<svg width="80.12" height="77.3" viewBox="0 0 80.12 77.3" xmlns="http://www.w3.org/2000/svg" xmlns:xlink="http://www.w3.org/1999/xlink" xml:space="preserve" overflow="hidden"><defs></defs><g><g><path d="M67.36 4.5 78.3 26.81 79.62 48.43 79.6 48.44 51.52 70.01 50.78 70.57 42.6 76.8 61.51 21.58Z" fill="#EFC3F4"/></g><g><path d="M61.51 21.55 42.6 76.77 42.55 76.8 42.55 76.79 16.56 24.38 37.52 0.5Z" fill="#EFC3F4"/></g><g><path d="M16.56 24.38 42.55 76.79 42.53 76.8 2.2 53.46 0.5 32.25 8.59 8.29 16.56 24.37Z" fill="#EFC3F4"/></g><g><path d="M42.6 77.3C42.5 77.3 42.39 77.27 42.31 77.21 42.13 77.08 42.06 76.85 42.13 76.64L66.89 4.34C66.96 4.15 67.13 4.02 67.33 4 67.53 4 67.72 4.1 67.81 4.28L78.75 26.59C78.78 26.65 78.8 26.71 78.8 26.78L80.12 48.4C80.13 48.59 80.04 48.76 79.88 48.86L51.08 70.97 42.9 77.2C42.81 77.26 42.71 77.3 42.6 77.3ZM67.44 5.8 43.61 75.4 51.23 69.6 79.1 48.19 77.8 26.94 67.44 5.8Z" fill="#292764"/></g><g><path d="M42.56 77.28C42.49 77.28 42.42 77.27 42.37 77.24 42.26 77.19 42.17 77.11 42.11 77.01L42.11 77.01 16.11 24.61C16.02 24.43 16.05 24.21 16.18 24.06L37.15 0.17C37.24 0.07 37.36 0.01 37.49 0 37.63-0.01 37.75 0.04 37.85 0.12L61.84 21.17C61.99 21.3 62.05 21.52 61.98 21.71L43.07 76.93C43.04 77.03 42.97 77.12 42.88 77.18 42.79 77.24 42.67 77.28 42.56 77.28ZM17.16 24.46 42.49 75.55 60.93 21.71 37.57 1.21 17.16 24.46Z" fill="#292764"/></g><g><path d="M42.52 77.3C42.43 77.3 42.35 77.28 42.28 77.24L1.95 53.89C1.81 53.81 1.72 53.66 1.7 53.5L0 32.29C-0.01 32.22 0 32.15 0.02 32.09L8.12 8.12C8.18 7.93 8.36 7.8 8.56 7.79 8.76 7.78 8.95 7.89 9.04 8.07L17.01 24.16C17.02 24.18 17.03 24.2 17.03 24.22L42.99 76.58C43.11 76.81 43.02 77.1 42.8 77.23 42.72 77.27 42.62 77.3 42.52 77.3ZM2.68 53.16 41.38 75.56 16.11 24.61C16.1 24.59 16.09 24.57 16.09 24.55L8.68 9.59 1.01 32.32 2.68 53.16Z" fill="#292764"/></g><g><path d="M39.04 24.3C38.78 24.3 38.56 24.1 38.54 23.83L37.02 0.53C37.01 0.26 37.22 0.02 37.49 0 37.77-0.02 38 0.19 38.02 0.47L39.54 23.77C39.56 24.05 39.35 24.28 39.07 24.3 39.06 24.3 39.05 24.3 39.04 24.3Z" fill="#292764"/></g></g></svg>