<svg width="89.47" height="51.53" viewBox="0 0 89.47 51.53" xmlns="http://www.w3.org/2000/svg" xmlns:xlink="http://www.w3.org/1999/xlink" xml:space="preserve" overflow="hidden"><defs></defs><g><g><g><path d="M88.97 15.3 68.04 25.76 68.03 0.5Z" fill="#F3D5AA"/></g><g><path d="M68.03 0.5 68.03 51.03 17.5 51.03 58.81 9.72Z" fill="#F3D5AA"/></g><g><path d="M58.81 9.72 17.5 51.03 17.5 32.31 17.5 15.31 17.5 9.72Z" fill="#F3D5AA"/></g><g><path d="M17.5 15.31 17.5 32.31 0.5 15.31Z" fill="#F3D5AA"/></g><g><path d="M17.5 32.81C17.37 32.81 17.24 32.76 17.15 32.66L0.15 15.66C0 15.52-0.04 15.31 0.04 15.12 0.12 14.93 0.3 14.81 0.5 14.81L17.5 14.81C17.78 14.81 18 15.03 18 15.31 18 15.59 17.78 15.81 17.5 15.81L1.71 15.81 17.86 31.96C18.06 32.16 18.06 32.47 17.86 32.67 17.76 32.76 17.63 32.81 17.5 32.81Z" fill="#292764"/></g><g><path d="M68.03 51.53 17.5 51.53C17.3 51.53 17.12 51.41 17.04 51.22 16.96 51.03 17.01 50.82 17.15 50.68L67.68 0.15C67.82 0.01 68.04-0.04 68.22 0.04 68.41 0.12 68.53 0.3 68.53 0.5L68.53 51.03C68.53 51.31 68.31 51.53 68.03 51.53ZM18.71 50.53 67.53 50.53 67.53 1.71 18.71 50.53Z" fill="#292764"/></g><g><path d="M17.5 51.53C17.22 51.53 17 51.31 17 51.03L17 9.72C17 9.44 17.22 9.22 17.5 9.22L58.81 9.22C59.09 9.22 59.31 9.44 59.31 9.72 59.31 10 59.09 10.22 58.81 10.22L18 10.22 18 51.03C18 51.31 17.78 51.53 17.5 51.53Z" fill="#292764"/></g><g><path d="M68.04 26.26C67.95 26.26 67.86 26.23 67.78 26.19 67.63 26.1 67.54 25.94 67.54 25.76L67.53 0.5C67.53 0.31 67.63 0.14 67.8 0.06 67.96-0.03 68.16-0.01 68.32 0.1L89.26 14.9C89.4 15 89.48 15.17 89.47 15.35 89.46 15.52 89.35 15.68 89.19 15.76L68.26 26.21C68.19 26.24 68.12 26.26 68.04 26.26ZM68.53 1.47 68.54 24.96 88 15.23 68.53 1.47Z" fill="#292764"/></g></g><g><g><path d="M48.29 37.4C48.1 37.4 47.91 37.33 47.76 37.18L39.2 28.61C35.43 24.84 35.43 18.71 39.2 14.95 39.49 14.66 39.97 14.66 40.26 14.95 40.55 15.24 40.55 15.72 40.26 16.01 37.08 19.19 37.08 24.37 40.26 27.55L48.82 36.12C49.11 36.41 49.11 36.89 48.82 37.18 48.67 37.33 48.48 37.4 48.29 37.4Z" fill="#292764"/></g><g><path d="M48.41 37.59 41.8 37.59C41.39 37.59 41.05 37.25 41.05 36.84 41.05 36.43 41.39 36.09 41.8 36.09L47.66 36.09 47.66 30.09C47.66 29.68 48 29.34 48.41 29.34 48.82 29.34 49.16 29.68 49.16 30.09L49.16 36.84C49.16 37.25 48.82 37.59 48.41 37.59Z" fill="#292764"/></g></g></g></svg>