<svg width="2446.99" height="2063.99" viewBox="0 0 2446.99 2063.99" xmlns="http://www.w3.org/2000/svg" xmlns:xlink="http://www.w3.org/1999/xlink" xml:space="preserve" overflow="hidden"><defs></defs><g><g><path d="M2107.65 554.98C2107.65 554.98 2370.6 438.74 2240.21 216.41 2144.31 59.92 1861.32 45.21 1827.67 319.74 2085.95 549.24 2107.65 554.98 2107.65 554.98Z" fill="#FFFFFF"/><path d="M2107.65 563.81C2106.89 563.81 2106.13 563.71 2105.39 563.52 2093.92 560.48 2013.4 496.59 1821.8 326.36 1819.63 324.43 1818.54 321.57 1818.9 318.69 1833.33 200.88 1896.02 121.5 1990.86 100.89 2087.44 79.94 2195.5 126.55 2247.75 211.8 2285.17 275.64 2294.69 337.16 2276.1 394.79 2240.61 504.78 2116.47 560.73 2111.21 563.06 2110.08 563.55 2108.87 563.81 2107.65 563.81ZM1837.01 316.24C2043.44 499.54 2096.26 537.54 2107.97 545.04 2129.11 534.68 2229.69 481.21 2259.32 389.26 2276.26 336.66 2267.27 280.01 2232.59 220.87 2184.23 141.95 2084.12 98.68 1994.62 118.14 1908.77 136.79 1851.52 208.87 1837.01 316.24Z"/></g><g><g><path d="M2027.44 447.69C2027.44 447.69 2128.9 391.9 2081.11 304.12 2051.65 265.61 1932.33 231.31 1916.66 383.57 1991.97 452.67 2027.44 447.69 2027.44 447.69Z" fill="#FFFFFF"/></g><g><path d="M2025.58 456.61C2014.61 456.61 1977.38 451.28 1910.69 390.08 1908.64 388.2 1907.59 385.46 1907.88 382.68 1916.28 301.07 1952.98 274.08 1982.3 265.81 2021.97 254.63 2069.05 273.81 2088.14 298.77 2140.27 394.33 2032.8 454.84 2031.71 455.45 2030.76 455.97 2029.74 456.3 2028.67 456.45 2028.16 456.5 2027.13 456.61 2025.58 456.61ZM2027.44 447.69 2027.61 447.69 2027.44 447.69ZM1925.93 380.07C1985.62 433.95 2018 438.58 2024.99 438.91 2038.22 431.05 2113.48 382.05 2073.35 308.34 2060.92 292.25 2022.23 272.85 1987.09 282.78 1953.51 292.27 1932.4 325.87 1925.93 380.07Z"/></g></g><g><path d="M451.99 765.69C451.99 765.69 259.8 533.77 72.89 728.64-57.51 869.95 8.36 1159.41 294.72 1115.03 452.38 789.21 451.99 765.69 451.99 765.69Z" fill="#FFFFFF"/><path d="M238.48 1128.36C143.01 1128.36 67.9 1087.78 27.91 1012.75-20.71 921.5-4.51 799.5 66.42 722.66 120 666.78 179.51 639.72 242.43 642 363.25 646.38 454.95 755.41 458.79 760.05 460.08 761.6 460.79 763.53 460.83 765.55 461.04 777.93 419.6 877.25 302.69 1118.88 301.43 1121.48 298.96 1123.31 296.08 1123.76 276.19 1126.84 256.95 1128.36 238.48 1128.36ZM235.11 659.52C179.56 659.52 127.17 684.8 79.28 734.75 13.38 806.15-1.71 919.62 43.5 1004.44 86.91 1085.87 176.24 1123.23 288.82 1106.98 415.38 845.2 438.29 781.65 442.36 768.08 426.22 750.06 343.34 663.28 241.71 659.64 239.49 659.55 237.3 659.52 235.11 659.52Z"/></g><g><g><path d="M366.72 877.17C366.72 877.17 281.52 790.76 206.67 864.02 176.25 904.66 175.72 1034.74 333.69 1007.12 381.86 911.5 366.72 877.17 366.72 877.17Z" fill="#FFFFFF"/></g><g><path d="M292.77 1019.8C237.51 1019.8 210.13 996.36 196.59 974.32 174.08 937.67 179.98 884.95 199.61 858.72 280.68 779.27 372.12 870.03 373.03 870.98 373.77 871.74 374.38 872.64 374.82 873.62 376.53 877.52 390.22 914.53 341.57 1011.09 340.31 1013.59 337.97 1015.33 335.21 1015.82 319.5 1018.57 305.39 1019.8 292.77 1019.8ZM274.23 843.36C254.43 843.36 233.24 850.38 212.85 870.33 200.07 887.59 191.45 932.21 211.63 965.08 230.89 996.45 271.08 1008.14 327.8 999.16 365.41 923.02 360.64 888.93 358.96 881.94 351.18 874.54 315.86 843.36 274.23 843.36Z"/></g></g><g><g><path d="M910.67 269.29C910.67 269.29 879.81 82.32 962.4 24.23 1044.99-33.86 1054.07 91.39 1054.07 91.39 1054.07 91.39 1124.86-2.09 1193.84 35.12 1262.82 72.33 1185.67 195.77 1185.67 195.77 1185.67 195.77 1540.55 143.13 1883.63 328.28 2226.71 513.43 2425.07 769.03 2437.24 1091.44 2449.41 1413.85 2343.95 1811.36 1544.86 1997.95 745.77 2184.54 407.08 1884.35 250.91 1428.03 94.74 971.71 444.81 408.54 910.67 269.29Z" fill="#FFFFFF"/></g><g><path d="M1102.28 2063.99C665.79 2064.01 388.4 1857.02 242.57 1430.9 173.64 1229.49 198.13 997.26 311.5 776.94 438.86 529.48 658.74 337.88 900.82 263.04 895.83 226.22 880 71.39 957.31 17 981.44 0.05 1002.72-4.25 1020.62 4.22 1045.18 15.88 1055.7 49.21 1060.03 70.96 1084.73 44.69 1140.89-3.44 1198.03 27.35 1213.79 35.87 1224.11 48.92 1228.68 66.19 1239.27 106.2 1215.59 159.18 1201.91 185.03 1278.05 177.56 1589.2 159.39 1887.82 320.51 2246.25 513.95 2434.06 773.21 2446.06 1091.12 2457.39 1391.32 2376.51 1812.83 1546.85 2006.57 1383.38 2044.73 1235.4 2063.99 1102.28 2063.99ZM1001.63 17.7C991.92 17.7 980.49 22.29 967.48 31.44 890.39 85.66 919.07 266.02 919.36 267.84 920.08 272.22 917.43 276.46 913.19 277.74 672.73 349.6 453.68 539.25 327.2 785.02 216.03 1001 191.91 1228.35 259.25 1425.16 446.06 1970.95 853.88 2150.27 1542.85 1989.34 2359.78 1798.59 2439.5 1385.72 2428.4 1091.75 2416.67 780.55 2231.97 526.28 1879.44 336.04 1543.05 154.48 1190.48 203.97 1186.97 204.47 1183.64 205 1180.16 203.45 1178.3 200.57 1176.4 197.69 1176.37 193.98 1178.2 191.07 1178.65 190.33 1223.9 117.05 1211.6 70.66 1208.29 58.14 1201.1 49.05 1189.65 42.88 1128.07 9.68 1061.77 95.84 1061.12 96.7 1058.91 99.63 1055.14 100.87 1051.58 99.84 1048.06 98.79 1045.54 95.68 1045.27 92.01 1044.06 75.7 1035.92 30.98 1013.04 20.15 1009.55 18.53 1005.74 17.7 1001.63 17.7Z"/></g></g><g><g><path d="M1643.64 1199.99 1780.38 1159.96C1780.38 1159.96 1607.75 924.12 1623.77 532.59 1631.15 352.25 1770.63 324.92 1918.96 347.92 1907.35 341.29 1895.59 334.75 1883.63 328.29 1540.55 143.14 1185.67 195.78 1185.67 195.78 1185.67 195.78 1262.82 72.34 1193.84 35.13 1124.86-2.08 1054.07 91.4 1054.07 91.4 1054.07 91.4 1044.99-33.85 962.4 24.24 879.81 82.33 910.67 269.3 910.67 269.3 546.65 378.09 253.34 745.74 217 1118.99 307.82 938.4 503.03 649.46 844.07 582.96 1349.01 484.5 1599.39 956.1 1643.64 1199.99Z" fill="#FFFFFF"/></g><g><path d="M1643.64 1208.83C1642.02 1208.83 1640.42 1208.38 1639 1207.52 1636.86 1206.19 1635.4 1204.04 1634.95 1201.57 1612.15 1075.92 1516.97 824.56 1304.87 679.66 1170.73 588 1016.26 558.37 845.76 591.64 504.64 658.14 310.33 953.06 224.88 1122.94 222.98 1126.73 218.6 1128.67 214.55 1127.46 210.46 1126.27 207.81 1122.36 208.2 1118.11 245.02 740.12 542.11 373.96 900.82 263.03 895.83 226.22 880 71.39 957.31 17 981.44 0.05 1002.72-4.25 1020.62 4.22 1045.18 15.88 1055.7 49.21 1060.03 70.98 1084.73 44.7 1140.89-3.44 1198.03 27.35 1213.79 35.87 1224.11 48.92 1228.68 66.19 1239.27 106.2 1215.59 159.18 1201.91 185.03 1278.05 177.56 1589.2 159.39 1887.82 320.51 1899.84 326.99 1911.67 333.58 1923.35 340.24 1927.04 342.36 1928.71 346.81 1927.3 350.83 1925.9 354.85 1921.82 357.25 1917.63 356.64 1815.19 340.74 1739.28 352.45 1691.94 391.36 1655.17 421.57 1635.22 469.22 1632.61 532.96 1616.9 916.56 1785.8 1152.41 1787.51 1154.75 1789.22 1157.06 1789.67 1160.08 1788.75 1162.8 1787.82 1165.51 1785.63 1167.61 1782.87 1168.42L1646.13 1208.46C1645.31 1208.71 1644.47 1208.83 1643.64 1208.83ZM977.97 560.74C1100.33 560.74 1213.18 595.63 1314.83 665.08 1501.12 792.37 1616.77 1017.84 1650.5 1188.8L1766.32 1154.88C1734.02 1105.02 1600.83 877.1 1614.94 532.24 1617.77 463.26 1639.89 411.28 1680.72 377.72 1724.64 341.61 1789.92 326.97 1875.23 333.81 1540.13 154.92 1190.47 204.02 1186.97 204.5 1183.64 205.03 1180.16 203.48 1178.3 200.6 1176.4 197.72 1176.37 194.01 1178.2 191.1 1178.65 190.36 1223.9 117.08 1211.6 70.69 1208.29 58.17 1201.1 49.08 1189.65 42.91 1128.07 9.61 1061.77 95.87 1061.12 96.73 1058.91 99.66 1055.14 100.9 1051.58 99.87 1048.06 98.82 1045.54 95.71 1045.27 92.04 1044.06 75.73 1035.92 31.01 1013.04 20.18 1001.33 14.7 986 18.44 967.49 31.46 890.32 85.73 919.08 266.04 919.37 267.86 920.09 272.24 917.46 276.48 913.2 277.76 573.01 379.42 287.73 715.33 231.91 1071.68 328.34 896.1 521.5 636.86 842.37 574.29 888.73 565.25 933.98 560.74 977.97 560.74Z"/></g></g><g><g><path d="M1707.29 1416.49C1707.29 1416.49 1778.25 1563.88 1797.57 1572.21 1816.89 1580.54 1897.34 1561.86 1904.56 1552.12 1919.25 1532.28 1893.81 1380.42 1893.81 1380.42 1893.81 1380.42 1830.67 1387.91 1797.57 1345.7 1797.57 1345.69 1764.47 1413.08 1707.29 1416.49Z" fill="#FFFFFF"/><path d="M1812.85 1582.99C1804.95 1582.99 1798.38 1582.18 1794.07 1580.32 1773.91 1571.61 1721.1 1465.52 1699.34 1420.31 1698.06 1417.65 1698.18 1414.55 1699.68 1412.01 1701.16 1409.46 1703.82 1407.84 1706.77 1407.66 1758.21 1404.61 1789.34 1342.42 1789.64 1341.78 1790.99 1339.06 1793.64 1337.21 1796.66 1336.9 1799.63 1336.56 1802.64 1337.85 1804.52 1340.23 1834.11 1377.95 1892.18 1371.67 1892.78 1371.62 1897.06 1371.1 1901.71 1374.29 1902.51 1378.93 1908.63 1415.42 1927.36 1536.14 1911.65 1557.35 1903.48 1568.4 1846.33 1582.99 1812.85 1582.99ZM1720.54 1423.57C1752.98 1489.91 1790.64 1558.22 1801.22 1564.17 1816.21 1570.53 1889.35 1554 1897.85 1546.41 1904.82 1536.36 1897.56 1458.75 1886.4 1389.72 1868.67 1390.24 1828.04 1388.08 1799.26 1360.63 1787.74 1379.13 1760.82 1414.98 1720.54 1423.57Z"/></g><g><path d="M1843.25 1502.37C1851.55 1500.64 1841.86 1429.01 1832.73 1371.68 1819.99 1366.42 1807.45 1358.27 1797.58 1345.69 1797.58 1345.69 1791.6 1357.82 1780.38 1372.05 1797.82 1417.23 1832.95 1504.52 1843.25 1502.37Z" fill="#FFFFFF"/><path d="M1841.84 1511.44C1833.22 1511.44 1819.8 1498.75 1772.13 1375.22 1771.01 1372.31 1771.51 1369.03 1773.44 1366.58 1783.89 1353.35 1789.58 1341.9 1789.65 1341.8 1791 1339.08 1793.63 1337.23 1796.65 1336.92 1799.77 1336.59 1802.63 1337.87 1804.51 1340.25 1812.37 1350.29 1823 1358.12 1836.09 1363.53 1838.92 1364.7 1840.95 1367.27 1841.44 1370.29 1863.26 1507.19 1854.82 1508.98 1845.06 1511.01L1845.06 1511.01C1844.03 1511.23 1842.98 1511.44 1841.84 1511.44ZM1790.4 1373.49C1812.78 1431.18 1828.27 1465.29 1837.48 1482 1836.89 1466.79 1834.05 1436.78 1824.75 1377.82 1815.04 1373.27 1806.49 1367.51 1799.21 1360.59 1796.9 1364.3 1793.95 1368.73 1790.4 1373.49Z"/></g><g><g><path d="M1944.47 1312.59C1939.34 1311.13 1933.99 1314.12 1932.53 1319.24 1931.98 1321.17 1918.5 1366.51 1876.07 1369.6 1836.94 1372.44 1808.31 1343.99 1802.11 1337.25L1767.44 1207.18C1766.06 1202.02 1760.76 1198.94 1755.6 1200.33 1750.44 1201.71 1747.37 1207.01 1748.75 1212.17L1783.22 1341.47C1779.44 1350.93 1763.74 1384.98 1727.9 1401.78 1688.57 1420.21 1661.17 1395.6 1659.93 1394.46 1656.05 1390.82 1649.95 1391.01 1646.29 1394.88 1642.62 1398.76 1642.79 1404.89 1646.68 1408.56 1647.8 1409.62 1667.79 1428.06 1698.84 1428.06 1709.96 1428.06 1722.51 1425.69 1736.11 1419.32 1769.78 1403.54 1788.09 1375.74 1796.57 1358.95 1811.19 1371.97 1839.92 1391.69 1877.48 1388.93 1933.58 1384.84 1950.46 1326.99 1951.16 1324.53 1952.59 1319.36 1949.6 1314.04 1944.47 1312.59Z"/></g><g><g><g><path d="M1889.55 1155.14C1896.89 1183 1858.79 1275.78 1779.49 1296.67 1700.19 1317.55 1609.72 1258.63 1602.38 1230.77 1595.04 1202.91 1645.79 1137.52 1725.09 1116.64 1804.39 1095.75 1882.21 1127.28 1889.55 1155.14Z" fill="#FFFFFF"/></g><g><path d="M1744.52 1309.84C1673.17 1309.84 1601.79 1263.26 1593.83 1233.03 1585 1199.44 1639.27 1130.11 1722.84 1108.1 1773.06 1094.84 1815.78 1103.03 1836.75 1109.13 1870 1118.74 1893.51 1135.52 1898.08 1152.9 1902.79 1170.77 1893.08 1203.81 1874.47 1233.25 1861 1254.55 1831.03 1292.21 1781.72 1305.2 1769.57 1308.4 1757.05 1309.84 1744.52 1309.84ZM1777.9 1118.65C1762.67 1118.65 1745.55 1120.37 1727.34 1125.17 1649.75 1145.61 1605.59 1208.24 1610.91 1228.52 1616.79 1250.82 1703 1307.71 1777.24 1288.12 1820.7 1276.67 1847.45 1242.9 1859.54 1223.79 1878.51 1193.8 1883.51 1166.9 1881.01 1157.39 1881.01 1157.37 1881.01 1157.37 1881.01 1157.37 1878.66 1148.47 1862.28 1134.86 1831.86 1126.07 1820.22 1122.72 1801.26 1118.65 1777.9 1118.65Z"/></g></g></g></g></g><g><g><path d="M1033.54 1332.85C1033.54 1385.15 991.13 1427.59 938.8 1427.59 886.47 1427.59 844.06 1385.15 844.06 1332.85 844.06 1280.53 886.47 1238.11 938.8 1238.11 991.13 1238.11 1033.54 1280.53 1033.54 1332.85Z"/></g><g><path d="M1006.66 1296.27C1006.66 1318.4 988.74 1336.35 966.58 1336.35 944.47 1336.35 926.53 1318.4 926.53 1296.27 926.53 1274.16 944.47 1256.19 966.58 1256.19 988.74 1256.19 1006.66 1274.16 1006.66 1296.27Z" fill="#FFFFFF"/></g></g><g><g><ellipse cx="736.67" cy="1544.83" rx="147.44" ry="117.24" fill="#FFFFFF"/></g><g><path d="M736.67 1670.89C650.51 1670.89 580.41 1614.34 580.41 1544.82 580.41 1475.3 650.51 1418.75 736.67 1418.75 822.83 1418.75 892.93 1475.3 892.93 1544.82 892.93 1614.34 822.83 1670.89 736.67 1670.89ZM736.67 1436.42C660.24 1436.42 598.07 1485.05 598.07 1544.83 598.07 1604.6 660.24 1653.24 736.67 1653.24 813.1 1653.24 875.27 1604.61 875.27 1544.83 875.27 1485.05 813.1 1436.42 736.67 1436.42Z"/></g></g><g><g><path d="M2305.36 965.32C2305.36 1017.62 2262.95 1060.06 2210.62 1060.06 2158.29 1060.06 2115.88 1017.62 2115.88 965.32 2115.88 913 2158.29 870.58 2210.62 870.58 2262.95 870.58 2305.36 912.99 2305.36 965.32Z"/></g><g><path d="M2278.47 928.74C2278.47 950.87 2260.55 968.82 2238.39 968.82 2216.28 968.82 2198.34 950.87 2198.34 928.74 2198.34 906.63 2216.28 888.66 2238.39 888.66 2260.55 888.66 2278.47 906.63 2278.47 928.74Z" fill="#FFFFFF"/></g></g><g><g><path d="M2437.24 1091.44C2435.81 1053.61 2431.79 1016.7 2425.3 980.72 2349.07 995.47 2296.51 1056.21 2307.7 1117.11 2317.39 1169.87 2371.77 1205.5 2435.88 1205.43 2438.48 1166.72 2438.64 1128.58 2437.24 1091.44Z" fill="#FFFFFF"/></g><g><path d="M2435.68 1214.24C2365.52 1214.24 2309.36 1174.97 2299.01 1118.7 2287.02 1053.44 2342.92 987.65 2423.63 972.04 2425.99 971.63 2428.37 972.11 2430.29 973.44 2432.24 974.77 2433.58 976.82 2434 979.15 2440.6 1015.8 2444.66 1053.46 2446.07 1091.11 2447.6 1131.71 2447.16 1169.28 2444.69 1206 2444.37 1210.71 2440.22 1214.64 2435.68 1214.24ZM2435.87 1205.41 2436.04 1205.41 2435.87 1205.41ZM2418.18 991.33C2351.71 1007.89 2306.57 1062.07 2316.4 1115.5 2324.78 1161.15 2369.95 1193.61 2427.6 1196.4 2429.55 1162.96 2429.82 1128.64 2428.41 1091.77L2428.41 1091.77C2427.14 1058.03 2423.71 1024.3 2418.18 991.33Z"/></g></g></g></svg>