<svg width="513.98" height="590.62" viewBox="0 0 513.98 590.62" xmlns="http://www.w3.org/2000/svg" xmlns:xlink="http://www.w3.org/1999/xlink" xml:space="preserve" overflow="hidden"><defs></defs><g><path d="M217.52 191.32 251.58 18.93C252.78 12.83 248.78 7.14 242.64 6.2L219.98 2.76 208.71 194.19 217.52 191.32Z" stroke="#000000" stroke-miterlimit="10" fill="#97D2FF"/><g><g><defs><rect x="42.93" y="461.72" width="220.5" height="33.49" id="SVGID_1_" fill="#97D2FF" transform="matrix(0.1908 -0.9816 0.9816 0.1908 -345.717 537.531)"/></defs><clipPath id="SVGID_2_"><use width="100%" height="100%" xlink:href="#SVGID_1_" overflow="visible"></use></clipPath><use width="100%" height="100%" xlink:href="#SVGID_1_" fill="#97D2FF" overflow="visible"></use><rect x="42.93" y="461.72" width="220.5" height="33.49" stroke="#000000" stroke-miterlimit="10" fill="#97D2FF" clip-path="url(#SVGID_2_)" transform="matrix(0.1908 -0.9816 0.9816 0.1908 -345.717 537.531)"/><use width="100%" height="100%" xlink:href="#SVGID_1_" stroke="#000000" stroke-miterlimit="10" fill="#97D2FF" overflow="visible"></use></g><path d="M148.59 589.88 157.38 587.01 193.63 403.58 184.79 403.58Z" stroke="#000000" stroke-miterlimit="10" fill="#97D2FF"/><path d="M153.03 403.9 192.79 403.9 177.69 484.23 135.64 484.23Z" stroke="#000000" stroke-miterlimit="10" fill="#97D2FF"/></g><g><defs><path d="M171.25 217.03 211.18 11.63C212.37 5.53 218.27 1.55 224.37 2.73L235.16 4.83C241.26 6.02 245.24 11.92 244.06 18.02L204.13 223.42 171.25 217.03Z" id="SVGID_3_" fill="#97D2FF"/></defs><clipPath id="SVGID_4_"><use width="100%" height="100%" xlink:href="#SVGID_3_" overflow="visible"></use></clipPath><use width="100%" height="100%" xlink:href="#SVGID_3_" fill="#97D2FF" overflow="visible"></use><rect x="98.47" y="95.26" width="220.5" height="33.49" stroke="#000000" stroke-miterlimit="10" fill="#97D2FF" clip-path="url(#SVGID_4_)" transform="matrix(0.1908 -0.9816 0.9816 0.1908 58.9499 295.521)"/><use width="100%" height="100%" xlink:href="#SVGID_3_" stroke="#000000" stroke-miterlimit="10" fill="#97D2FF" overflow="visible"></use></g><path d="M294.84 191.32 260.78 18.92C259.57 12.82 263.58 7.13 269.72 6.19L292.38 2.75 303.64 194.18 294.84 191.32Z" stroke="#000000" stroke-miterlimit="10" fill="#97D2FF"/><g><defs><path d="M341.12 217.03 301.19 11.63C300.01 5.53 294.1 1.55 288 2.73L277.21 4.83C271.11 6.02 267.13 11.92 268.31 18.02L308.23 223.42 341.12 217.03Z" id="SVGID_5_" fill="#97D2FF"/></defs><clipPath id="SVGID_6_"><use width="100%" height="100%" xlink:href="#SVGID_5_" overflow="visible"></use></clipPath><use width="100%" height="100%" xlink:href="#SVGID_5_" fill="#97D2FF" overflow="visible"></use><use width="100%" height="100%" xlink:href="#SVGID_5_" stroke="#000000" stroke-miterlimit="10" fill="#97D2FF" overflow="visible"></use></g><g><defs><rect x="147.96" y="433.53" width="220.5" height="33.49" id="SVGID_7_" fill="#97D2FF" transform="matrix(0.00974011 -1 1 0.00974011 -194.561 704.09)"/></defs><clipPath id="SVGID_8_"><use width="100%" height="100%" xlink:href="#SVGID_7_" overflow="visible"></use></clipPath><use width="100%" height="100%" xlink:href="#SVGID_7_" fill="#97D2FF" overflow="visible"></use><rect x="147.96" y="433.53" width="220.5" height="33.49" stroke="#000000" stroke-miterlimit="10" fill="#97D2FF" clip-path="url(#SVGID_8_)" transform="matrix(0.00974011 -1 1 0.00974011 -194.561 704.09)"/><use width="100%" height="100%" xlink:href="#SVGID_7_" stroke="#000000" stroke-miterlimit="10" fill="#97D2FF" overflow="visible"></use></g><path d="M243.43 405.6 275.67 400.98 274.84 482.25 240.75 487.15Z" stroke="#000000" stroke-miterlimit="10" fill="#97D2FF"/><g><g><defs><rect x="345.96" y="365.36" width="33.49" height="220.5" id="SVGID_9_" fill="#97D2FF" transform="matrix(0.9816 -0.1908 0.1908 0.9816 -84.0715 77.9283)"/></defs><clipPath id="SVGID_10_"><use width="100%" height="100%" xlink:href="#SVGID_9_" overflow="visible"></use></clipPath><use width="100%" height="100%" xlink:href="#SVGID_9_" fill="#97D2FF" overflow="visible"></use><rect x="345.96" y="365.36" width="33.49" height="220.5" stroke="#000000" stroke-miterlimit="10" fill="#97D2FF" clip-path="url(#SVGID_10_)" transform="matrix(0.9816 -0.1908 0.1908 0.9816 -84.0715 77.9283)"/><use width="100%" height="100%" xlink:href="#SVGID_9_" stroke="#000000" stroke-miterlimit="10" fill="#97D2FF" overflow="visible"></use></g><path d="M367.31 587.03 358.51 584.16 322.26 400.74 331.1 400.74Z" stroke="#000000" stroke-miterlimit="10" fill="#97D2FF"/><path d="M362.87 401.05 323.1 401.05 338.2 481.38 380.25 481.38Z" stroke="#000000" stroke-miterlimit="10" fill="#97D2FF"/></g><path d="M502.23 438.58 11.75 438.58C5.54 438.58 0.5 433.54 0.5 427.33L0.5 65.1C0.5 58.89 5.54 53.85 11.75 53.85L502.23 53.85C508.44 53.85 513.48 58.89 513.48 65.1L513.48 427.33C513.48 433.55 508.44 438.58 502.23 438.58Z" stroke="#000000" stroke-miterlimit="10" fill="#97D2FF"/><path d="M491.64 75.38 510.04 57.97C510.04 57.97 504.94 65.13 491.64 75.38Z" stroke="#000000" stroke-miterlimit="10" fill="#97D2FF"/><g><path d="M255.33 53.62C390.64 53.62 500.31 54.23 500.31 54.97 500.31 55.72 390.64 56.32 255.33 56.32 120.01 56.32 10.35 55.72 10.35 54.97 10.35 54.23 120.01 53.62 255.33 53.62Z" stroke="#000000" stroke-miterlimit="10" fill="#97D2FF"/><path d="M255.33 53.65C388.37 53.65 496.2 54.25 496.2 54.98 496.2 55.71 388.37 56.31 255.33 56.31 122.28 56.31 14.45 55.72 14.45 54.98 14.46 54.24 122.28 53.65 255.33 53.65Z" stroke="#000000" stroke-miterlimit="10" fill="#97D2FF"/><path d="M255.33 53.67C386.1 53.67 492.09 54.26 492.09 54.98 492.09 55.7 386.1 56.28 255.33 56.28 124.55 56.28 18.56 55.7 18.56 54.98 18.56 54.25 124.55 53.67 255.33 53.67Z" stroke="#000000" stroke-miterlimit="10" fill="#97D2FF"/><path d="M255.33 53.69C383.83 53.69 487.99 54.27 487.99 54.97 487.99 55.68 383.84 56.25 255.33 56.25 126.82 56.25 22.67 55.68 22.67 54.97 22.67 54.27 126.82 53.69 255.33 53.69Z" stroke="#000000" stroke-miterlimit="10" fill="#97D2FF"/><path d="M255.33 53.71C381.56 53.71 483.88 54.27 483.88 54.97 483.88 55.67 381.57 56.23 255.33 56.23 129.08 56.23 26.78 55.67 26.78 54.97 26.78 54.28 129.09 53.71 255.33 53.71Z" stroke="#000000" stroke-miterlimit="10" fill="#97D2FF"/><path d="M255.33 53.74C379.29 53.74 479.77 54.29 479.77 54.98 479.77 55.66 379.29 56.22 255.33 56.22 131.35 56.22 30.88 55.67 30.88 54.98 30.89 54.29 131.35 53.74 255.33 53.74Z" stroke="#000000" stroke-miterlimit="10" fill="#97D2FF"/><path d="M255.33 53.76C377.03 53.76 475.66 54.3 475.66 54.98 475.66 55.65 377.02 56.19 255.33 56.19 133.62 56.19 34.99 55.65 34.99 54.98 34.99 54.3 133.62 53.76 255.33 53.76Z" stroke="#000000" stroke-miterlimit="10" fill="#97D2FF"/><path d="M255.33 53.78C374.76 53.78 471.56 54.31 471.56 54.97 471.56 55.63 374.76 56.16 255.33 56.16 135.89 56.16 39.1 55.63 39.1 54.97 39.1 54.32 135.89 53.78 255.33 53.78Z" stroke="#000000" stroke-miterlimit="10" fill="#97D2FF"/><path d="M255.33 53.8C372.49 53.8 467.45 54.32 467.45 54.97 467.45 55.62 372.49 56.14 255.33 56.14 138.16 56.14 43.21 55.62 43.21 54.97 43.21 54.33 138.16 53.8 255.33 53.8Z" stroke="#000000" stroke-miterlimit="10" fill="#97D2FF"/><path d="M255.33 53.83C370.22 53.83 463.34 54.34 463.34 54.98 463.34 55.61 370.22 56.13 255.33 56.13 140.43 56.13 47.31 55.62 47.31 54.98 47.31 54.34 140.43 53.83 255.33 53.83Z" stroke="#000000" stroke-miterlimit="10" fill="#97D2FF"/><path d="M255.33 53.85C367.95 53.85 459.23 54.35 459.23 54.98 459.23 55.6 367.95 56.1 255.33 56.1 142.7 56.1 51.42 55.6 51.42 54.98 51.42 54.35 142.7 53.85 255.33 53.85Z" stroke="#000000" stroke-miterlimit="10" fill="#97D2FF"/><path d="M255.33 53.87C365.68 53.87 455.13 54.36 455.13 54.97 455.13 55.58 365.69 56.07 255.33 56.07 144.97 56.07 55.53 55.58 55.53 54.97 55.53 54.37 144.97 53.87 255.33 53.87Z" stroke="#000000" stroke-miterlimit="10" fill="#97D2FF"/><path d="M255.33 53.9C363.41 53.9 451.02 54.38 451.02 54.98 451.02 55.58 363.42 56.06 255.33 56.06 147.23 56.06 59.63 55.58 59.63 54.98 59.64 54.38 147.24 53.9 255.33 53.9Z" stroke="#000000" stroke-miterlimit="10" fill="#97D2FF"/><path d="M255.33 53.92C361.15 53.92 446.91 54.39 446.91 54.98 446.91 55.56 361.14 56.04 255.33 56.04 149.5 56.04 63.74 55.57 63.74 54.98 63.74 54.39 149.5 53.92 255.33 53.92Z" stroke="#000000" stroke-miterlimit="10" fill="#97D2FF"/><path d="M255.33 53.94C358.88 53.94 442.8 54.4 442.8 54.97 442.8 55.54 358.87 56 255.33 56 151.77 56 67.85 55.54 67.85 54.97 67.85 54.4 151.77 53.94 255.33 53.94Z" stroke="#000000" stroke-miterlimit="10" fill="#97D2FF"/><path d="M255.33 53.96C356.61 53.96 438.7 54.41 438.7 54.97 438.7 55.53 356.61 55.98 255.33 55.98 154.04 55.98 71.96 55.53 71.96 54.97 71.96 54.42 154.04 53.96 255.33 53.96Z" stroke="#000000" stroke-miterlimit="10" fill="#97D2FF"/><path d="M255.33 53.99C354.34 53.99 434.59 54.43 434.59 54.98 434.59 55.53 354.34 55.97 255.33 55.97 156.31 55.97 76.06 55.53 76.06 54.98 76.07 54.43 156.31 53.99 255.33 53.99Z" stroke="#000000" stroke-miterlimit="10" fill="#97D2FF"/><path d="M255.33 54.01C352.07 54.01 430.48 54.44 430.48 54.98 430.48 55.51 352.07 55.94 255.33 55.94 158.58 55.94 80.17 55.51 80.17 54.98 80.17 54.44 158.58 54.01 255.33 54.01Z" stroke="#000000" stroke-miterlimit="10" fill="#97D2FF"/><path d="M255.33 54.03C349.8 54.03 426.38 54.45 426.38 54.97 426.38 55.49 349.81 55.91 255.33 55.91 160.85 55.91 84.28 55.49 84.28 54.97 84.28 54.45 160.85 54.03 255.33 54.03Z" stroke="#000000" stroke-miterlimit="10" fill="#97D2FF"/><path d="M255.33 54.05C347.53 54.05 422.27 54.46 422.27 54.97 422.27 55.48 347.54 55.89 255.33 55.89 163.12 55.89 88.39 55.48 88.39 54.97 88.39 54.47 163.12 54.05 255.33 54.05Z" stroke="#000000" stroke-miterlimit="10" fill="#97D2FF"/><path d="M255.33 54.08C345.27 54.08 418.16 54.48 418.16 54.98 418.16 55.48 345.27 55.88 255.33 55.88 165.38 55.88 92.49 55.48 92.49 54.98 92.5 54.48 165.39 54.08 255.33 54.08Z" stroke="#000000" stroke-miterlimit="10" fill="#97D2FF"/><path d="M255.33 54.1C343 54.1 414.05 54.49 414.05 54.98 414.05 55.46 342.99 55.85 255.33 55.85 167.65 55.85 96.6 55.46 96.6 54.98 96.6 54.49 167.65 54.1 255.33 54.1Z" stroke="#000000" stroke-miterlimit="10" fill="#97D2FF"/><path d="M255.33 54.12C340.73 54.12 409.95 54.5 409.95 54.97 409.95 55.44 340.73 55.82 255.33 55.82 169.92 55.82 100.71 55.44 100.71 54.97 100.71 54.5 169.92 54.12 255.33 54.12Z" stroke="#000000" stroke-miterlimit="10" fill="#97D2FF"/><path d="M255.33 54.14C338.46 54.14 405.84 54.51 405.84 54.97 405.84 55.43 338.46 55.8 255.33 55.8 172.19 55.8 104.82 55.43 104.82 54.97 104.82 54.52 172.19 54.14 255.33 54.14Z" stroke="#000000" stroke-miterlimit="10" fill="#97D2FF"/><path d="M255.33 54.17C336.19 54.17 401.73 54.53 401.73 54.98 401.73 55.43 336.19 55.79 255.33 55.79 174.46 55.79 108.92 55.43 108.92 54.98 108.93 54.53 174.46 54.17 255.33 54.17Z" stroke="#000000" stroke-miterlimit="10" fill="#97D2FF"/><path d="M255.33 54.19C333.92 54.19 397.62 54.54 397.62 54.98 397.62 55.41 333.92 55.76 255.33 55.76 176.73 55.76 113.03 55.41 113.03 54.98 113.03 54.54 176.73 54.19 255.33 54.19Z" stroke="#000000" stroke-miterlimit="10" fill="#97D2FF"/><path d="M255.33 54.21C331.65 54.21 393.52 54.55 393.52 54.97 393.52 55.39 331.66 55.73 255.33 55.73 179 55.73 117.14 55.39 117.14 54.97 117.14 54.55 179 54.21 255.33 54.21Z" stroke="#000000" stroke-miterlimit="10" fill="#97D2FF"/><path d="M255.33 54.23C329.39 54.23 389.41 54.56 389.41 54.97 389.41 55.38 329.39 55.71 255.33 55.71 181.27 55.71 121.25 55.38 121.25 54.97 121.25 54.57 181.27 54.23 255.33 54.23Z" stroke="#000000" stroke-miterlimit="10" fill="#97D2FF"/><path d="M255.33 54.26C327.12 54.26 385.3 54.58 385.3 54.98 385.3 55.38 327.12 55.7 255.33 55.7 183.53 55.7 125.35 55.38 125.35 54.98 125.35 54.58 183.54 54.26 255.33 54.26Z" stroke="#000000" stroke-miterlimit="10" fill="#97D2FF"/><path d="M255.33 54.28C324.85 54.28 381.19 54.59 381.19 54.98 381.19 55.36 324.84 55.67 255.33 55.67 185.8 55.67 129.46 55.36 129.46 54.98 129.46 54.59 185.8 54.28 255.33 54.28Z" stroke="#000000" stroke-miterlimit="10" fill="#97D2FF"/><path d="M255.33 54.3C322.58 54.3 377.09 54.6 377.09 54.97 377.09 55.34 322.58 55.64 255.33 55.64 188.07 55.64 133.57 55.34 133.57 54.97 133.57 54.6 188.07 54.3 255.33 54.3Z" stroke="#000000" stroke-miterlimit="10" fill="#97D2FF"/><path d="M255.33 54.33C320.31 54.33 372.98 54.62 372.98 54.98 372.98 55.34 320.31 55.63 255.33 55.63 190.34 55.63 137.67 55.34 137.67 54.98 137.68 54.62 190.34 54.33 255.33 54.33Z" stroke="#000000" stroke-miterlimit="10" fill="#97D2FF"/><path d="M255.33 54.35C318.04 54.35 368.87 54.63 368.87 54.98 368.87 55.33 318.04 55.61 255.33 55.61 192.61 55.61 141.78 55.33 141.78 54.98 141.78 54.63 192.61 54.35 255.33 54.35Z" stroke="#000000" stroke-miterlimit="10" fill="#97D2FF"/><path d="M255.33 54.37C315.77 54.37 364.77 54.64 364.77 54.97 364.77 55.3 315.78 55.57 255.33 55.57 194.88 55.57 145.89 55.3 145.89 54.97 145.89 54.64 194.88 54.37 255.33 54.37Z" stroke="#000000" stroke-miterlimit="10" fill="#97D2FF"/><path d="M255.33 54.39C313.51 54.39 360.66 54.65 360.66 54.97 360.66 55.29 313.51 55.55 255.33 55.55 197.15 55.56 150 55.3 150 54.98 150 54.65 197.15 54.39 255.33 54.39Z" stroke="#000000" stroke-miterlimit="10" fill="#97D2FF"/><path d="M255.33 54.42C311.24 54.42 356.55 54.67 356.55 54.98 356.55 55.29 311.24 55.54 255.33 55.54 199.42 55.54 154.1 55.29 154.1 54.98 154.11 54.67 199.42 54.42 255.33 54.42Z" stroke="#000000" stroke-miterlimit="10" fill="#97D2FF"/><path d="M255.33 54.44C308.97 54.44 352.44 54.68 352.44 54.98 352.44 55.28 308.97 55.51 255.33 55.51 201.68 55.51 158.21 55.27 158.21 54.98 158.21 54.68 201.69 54.44 255.33 54.44Z" stroke="#000000" stroke-miterlimit="10" fill="#97D2FF"/><path d="M255.33 54.46C306.7 54.46 348.34 54.69 348.34 54.97 348.34 55.25 306.7 55.48 255.33 55.48 203.95 55.48 162.32 55.25 162.32 54.97 162.32 54.69 203.96 54.46 255.33 54.46Z" stroke="#000000" stroke-miterlimit="10" fill="#97D2FF"/><path d="M255.33 54.48C304.43 54.48 344.23 54.7 344.23 54.97 344.23 55.24 304.43 55.46 255.33 55.46 206.22 55.46 166.43 55.24 166.43 54.97 166.43 54.7 206.22 54.48 255.33 54.48Z" stroke="#000000" stroke-miterlimit="10" fill="#97D2FF"/><path d="M255.33 54.51C302.16 54.51 340.12 54.72 340.12 54.98 340.12 55.24 302.16 55.45 255.33 55.45 208.49 55.45 170.53 55.24 170.53 54.98 170.54 54.72 208.49 54.51 255.33 54.51Z" stroke="#000000" stroke-miterlimit="10" fill="#97D2FF"/><path d="M255.33 54.53C299.89 54.53 336.01 54.73 336.01 54.98 336.01 55.23 299.89 55.42 255.33 55.42 210.76 55.42 174.64 55.22 174.64 54.98 174.64 54.73 210.76 54.53 255.33 54.53Z" stroke="#000000" stroke-miterlimit="10" fill="#97D2FF"/><path d="M255.33 54.55C297.63 54.55 331.91 54.74 331.91 54.97 331.91 55.2 297.63 55.39 255.33 55.39 213.03 55.39 178.75 55.2 178.75 54.97 178.75 54.74 213.03 54.55 255.33 54.55Z" stroke="#000000" stroke-miterlimit="10" fill="#97D2FF"/><path d="M255.33 54.57C295.36 54.57 327.8 54.75 327.8 54.97 327.8 55.19 295.36 55.37 255.33 55.37 215.3 55.37 182.86 55.19 182.86 54.97 182.86 54.75 215.3 54.57 255.33 54.57Z" stroke="#000000" stroke-miterlimit="10" fill="#97D2FF"/><path d="M255.33 54.6C293.09 54.6 323.69 54.77 323.69 54.98 323.69 55.19 293.09 55.36 255.33 55.36 217.57 55.36 186.96 55.19 186.96 54.98 186.97 54.77 217.57 54.6 255.33 54.6Z" stroke="#000000" stroke-miterlimit="10" fill="#97D2FF"/><path d="M255.33 54.62C290.82 54.62 319.58 54.78 319.58 54.98 319.58 55.18 290.82 55.33 255.33 55.33 219.83 55.33 191.07 55.17 191.07 54.98 191.07 54.78 219.84 54.62 255.33 54.62Z" stroke="#000000" stroke-miterlimit="10" fill="#97D2FF"/><path d="M255.33 54.64C288.55 54.64 315.48 54.79 315.48 54.97 315.48 55.15 288.55 55.3 255.33 55.3 222.1 55.3 195.18 55.15 195.18 54.97 195.18 54.79 222.11 54.64 255.33 54.64Z" stroke="#000000" stroke-miterlimit="10" fill="#97D2FF"/><path d="M255.33 54.66C286.28 54.66 311.37 54.8 311.37 54.97 311.37 55.14 286.28 55.28 255.33 55.28 224.37 55.28 199.29 55.14 199.29 54.97 199.29 54.8 224.37 54.66 255.33 54.66Z" stroke="#000000" stroke-miterlimit="10" fill="#97D2FF"/><path d="M255.33 54.69C284.02 54.69 307.26 54.82 307.26 54.98 307.26 55.14 284.01 55.27 255.33 55.27 226.64 55.27 203.39 55.14 203.39 54.98 203.39 54.82 226.64 54.69 255.33 54.69Z" stroke="#000000" stroke-miterlimit="10" fill="#97D2FF"/><path d="M255.33 54.71C281.75 54.71 303.16 54.83 303.16 54.98 303.16 55.13 281.75 55.24 255.33 55.24 228.91 55.24 207.5 55.12 207.5 54.98 207.5 54.83 228.91 54.71 255.33 54.71Z" stroke="#000000" stroke-miterlimit="10" fill="#97D2FF"/><path d="M255.33 54.73C279.48 54.73 299.05 54.84 299.05 54.97 299.05 55.1 279.48 55.21 255.33 55.21 231.18 55.21 211.61 55.1 211.61 54.97 211.61 54.84 231.18 54.73 255.33 54.73Z" stroke="#000000" stroke-miterlimit="10" fill="#97D2FF"/><path d="M255.33 54.76C277.21 54.76 294.94 54.86 294.94 54.98 294.94 55.1 277.21 55.2 255.33 55.2 233.45 55.2 215.71 55.1 215.71 54.98 215.72 54.85 233.45 54.76 255.33 54.76Z" stroke="#000000" stroke-miterlimit="10" fill="#97D2FF"/><path d="M255.33 54.78C274.94 54.78 290.83 54.87 290.83 54.98 290.83 55.09 274.94 55.18 255.33 55.18 235.72 55.18 219.82 55.09 219.82 54.98 219.82 54.87 235.72 54.78 255.33 54.78Z" stroke="#000000" stroke-miterlimit="10" fill="#97D2FF"/></g><rect x="114.29" y="420.49" width="31.28" height="18.09" stroke="#000000" stroke-miterlimit="10" fill="#97D2FF"/><rect x="372.54" y="421.18" width="31.28" height="18.09" stroke="#000000" stroke-miterlimit="10" fill="#97D2FF"/></g></svg>