<svg width="100.18" height="83.48" viewBox="0 0 100.18 83.48" xmlns="http://www.w3.org/2000/svg" xmlns:xlink="http://www.w3.org/1999/xlink" xml:space="preserve" overflow="hidden"><defs></defs><g><g><g><path d="M77.56 6.04 92.91 43.31 92.9 43.32 92.83 43.37 58.82 66.14 58.09 66.62 50.09 71.93 71.07 21.61Z" fill="#EFC3F4"/></g><g><path d="M71.07 21.58 50.09 71.9 50.04 71.93 50.04 71.92 29 21.49 49.99 0.5Z" fill="#EFC3F4"/></g><g><path d="M29 21.49 50.04 71.92 50.02 71.93 7.22 43.28 7.21 43.27 7.2 43.27 22.55 6 29 21.48Z" fill="#EFC3F4"/></g><g><path d="M50.09 72.43C49.98 72.43 49.86 72.39 49.77 72.32 49.6 72.18 49.54 71.94 49.63 71.74L77.1 5.85C77.18 5.66 77.36 5.54 77.56 5.54 77.56 5.54 77.56 5.54 77.56 5.54 77.76 5.54 77.94 5.66 78.02 5.85L93.37 43.12C93.45 43.31 93.4 43.52 93.26 43.66 93.24 43.68 93.14 43.76 93.12 43.77L58.36 67.04 50.36 72.35C50.28 72.4 50.18 72.43 50.09 72.43ZM77.56 7.35 51.18 70.6 58.54 65.72 92.29 43.12 77.56 7.35Z" fill="#292764"/></g><g><path d="M50.05 72.41C49.97 72.41 49.89 72.39 49.82 72.35 49.72 72.29 49.63 72.21 49.58 72.11L49.58 72.11 28.54 21.68C28.46 21.49 28.5 21.28 28.65 21.13L49.63 0.15C49.83-0.05 50.14-0.05 50.34 0.15L71.42 21.23C71.56 21.37 71.61 21.59 71.53 21.78L50.55 72.09C50.51 72.19 50.44 72.27 50.35 72.33 50.26 72.38 50.16 72.41 50.05 72.41ZM29.59 21.61 50.06 70.68 70.48 21.7 49.99 1.21 29.59 21.61Z" fill="#292764"/></g><g><path d="M50.02 72.42C49.92 72.42 49.82 72.39 49.74 72.34L6.94 43.69C6.93 43.69 6.93 43.68 6.92 43.68 6.87 43.64 6.82 43.6 6.79 43.55 6.7 43.41 6.67 43.24 6.74 43.08L22.09 5.81C22.17 5.62 22.35 5.5 22.55 5.5 22.55 5.5 22.55 5.5 22.55 5.5 22.75 5.5 22.93 5.62 23.01 5.81L29.46 21.29C29.47 21.31 29.47 21.33 29.48 21.35L50.5 71.73C50.6 71.97 50.5 72.26 50.26 72.37 50.18 72.41 50.1 72.42 50.02 72.42ZM7.81 43.08 48.95 70.61 28.54 21.68C28.53 21.66 28.53 21.64 28.52 21.62L22.55 7.31 7.81 43.08Z" fill="#292764"/></g><g><path d="M49.99 23.68C49.71 23.68 49.49 23.46 49.49 23.18L49.49 0.5C49.49 0.22 49.71 0 49.99 0 50.27 0 50.49 0.22 50.49 0.5L50.49 23.18C50.49 23.45 50.26 23.68 49.99 23.68Z" fill="#292764"/></g></g><g><g><path d="M86.83 83.48C83.41 83.48 79.99 82.18 77.39 79.57L65.51 67.7C65.12 67.31 65.12 66.68 65.51 66.29 65.9 65.9 66.53 65.9 66.92 66.29L78.8 78.16C83.23 82.59 90.43 82.59 94.86 78.16 99.29 73.73 99.29 66.53 94.86 62.1 94.47 61.71 94.47 61.08 94.86 60.69 95.25 60.3 95.88 60.3 96.27 60.69 101.48 65.9 101.48 74.37 96.27 79.58 93.67 82.18 90.25 83.48 86.83 83.48Z" fill="#292764"/></g><g><path d="M65.95 76.99C65.4 76.99 64.95 76.54 64.95 75.99L64.95 66.83C64.95 66.28 65.4 65.83 65.95 65.83L75.32 65.83C75.87 65.83 76.32 66.28 76.32 66.83 76.32 67.38 75.87 67.83 75.32 67.83L66.95 67.83 66.95 75.99C66.95 76.54 66.5 76.99 65.95 76.99Z" fill="#292764"/></g></g><g><g><path d="M13.35 83.48C9.93 83.48 6.51 82.18 3.91 79.57-1.3 74.36-1.3 65.89 3.91 60.68 4.3 60.29 4.93 60.29 5.32 60.68 5.71 61.07 5.71 61.7 5.32 62.09 0.89 66.52 0.89 73.72 5.32 78.15 9.75 82.58 16.95 82.58 21.38 78.15L33.26 66.27C33.65 65.88 34.28 65.88 34.67 66.27 35.06 66.66 35.06 67.29 34.67 67.68L22.79 79.57C20.19 82.18 16.77 83.48 13.35 83.48Z" fill="#292764"/></g><g><path d="M34.23 76.99C33.68 76.99 33.23 76.54 33.23 75.99L33.23 67.83 24.86 67.83C24.31 67.83 23.86 67.38 23.86 66.83 23.86 66.28 24.31 65.83 24.86 65.83L34.23 65.83C34.78 65.83 35.23 66.28 35.23 66.83L35.23 75.99C35.23 76.54 34.78 76.99 34.23 76.99Z" fill="#292764"/></g></g></g></svg>