<svg width="87.46" height="177.18" viewBox="0 0 87.46 177.18" xmlns="http://www.w3.org/2000/svg" xmlns:xlink="http://www.w3.org/1999/xlink" xml:space="preserve" overflow="hidden"><defs></defs><g><g id="XMLID_63_"><g id="XMLID_66_"><path d="M39.22 171.42C39.22 171.87 39.3 172.2 39.48 172.25 42.79 172.36 46.38 172.38 49.32 172.36 52 172.34 54.15 172.3 55.06 172.28 55.36 172.27 55.65 172.13 55.85 171.9L56.41 171.22C56.68 170.89 57.19 170.91 57.43 171.26L57.43 171.26C57.78 171.76 58.36 172.04 58.96 171.99 60.26 171.9 62.59 171.73 64.14 171.63 65 171.58 65.63 170.79 65.47 169.93 65.47 169.91 65.46 169.9 65.46 169.88 65.44 169.74 65.41 169.6 65.38 169.45 65.2 168.49 64.94 167.32 64.65 166.18 64.46 165.41 64.26 164.65 64.07 163.97 63.76 162.85 63.46 161.94 63.25 161.52 63.22 161.47 63.2 161.43 63.16 161.39 62.9 161.1 61.77 159.9 61.32 160.18 60.96 160.41 60.3 161.46 59.93 162.08 59.77 162.35 59.45 162.46 59.16 162.36 58.08 161.97 55.56 161.12 54.66 161.38 53.58 161.69 47.46 165.95 46.74 166.46 46.69 166.5 46.65 166.52 46.59 166.54 45.99 166.74 42.26 167.99 40.68 168.6 40.39 168.71 40.17 168.81 40.06 168.86 39.55 169.16 39.22 170.51 39.22 171.42Z" id="XMLID_77_" fill="#2C435E"/><path d="M48.93 167.24C50.65 166.43 52.06 165.21 53.58 164.08 54.85 163.13 56.43 162.01 58.07 161.94 58.18 161.94 58.22 162.12 58.11 162.16 57.32 162.46 56.53 162.69 55.78 163.09 54.94 163.54 54.16 164.11 53.4 164.69 52.02 165.75 50.68 166.88 49.07 167.6 48.85 167.7 48.7 167.34 48.93 167.24Z" id="XMLID_76_" fill="#425B75"/><path d="M60.54 163.32C60.36 163.21 60.15 163.19 59.96 163.27 58.72 163.81 54.5 166.04 54.7 165.91 56.07 165.03 51.98 167.7 50.64 169.59 50.34 170.01 50.66 170.59 51.18 170.59 53.03 170.59 54.06 170.62 54.63 170.66 54.98 170.68 55.28 170.42 55.3 170.06 55.35 169.33 55.63 168.15 56.74 167.31 57.84 166.49 60.49 165.97 62.28 165.69 62.87 165.6 63.02 164.82 62.51 164.51L60.54 163.32Z" id="XMLID_75_" fill="#313144"/><path d="M39.22 171.42C39.22 171.87 39.3 172.2 39.48 172.25 42.74 172.36 46.27 172.38 49.19 172.36 49.28 172.36 49.36 172.34 49.45 172.3L52.02 171.15 52.02 170.94C52.02 170.94 50.92 169.15 49.51 168.65 48.46 168.27 43.28 168.49 40.69 168.62 40.4 168.73 40.18 168.83 40.07 168.88 39.55 169.16 39.22 170.51 39.22 171.42Z" id="XMLID_74_" fill="#425B75"/><path d="M61.61 170.18 64.74 169.95C65.13 169.92 65.4 169.57 65.32 169.19 65.14 168.29 64.9 167.24 64.65 166.2 64.46 165.43 64.26 164.67 64.07 163.99L63.33 164.24 63.18 165.2C63.16 165.32 63.11 165.43 63.03 165.52 62.62 165.98 61.29 167.53 61.08 168.47 60.99 168.86 60.94 169.2 60.91 169.47 60.88 169.87 61.21 170.21 61.61 170.18Z" id="XMLID_73_" fill="#425B75"/><path d="M59.86 162.24C59.74 162.45 59.74 162.7 59.87 162.91 60.28 163.55 61.28 164.94 62.56 165.59 62.87 165.75 63.23 165.88 63.61 165.98 64.09 166.11 64.53 165.68 64.41 165.2 63.99 163.56 63.55 162.12 63.27 161.55 63.24 161.5 63.22 161.46 63.18 161.42 62.92 161.13 61.79 159.93 61.34 160.21 60.94 160.45 60.21 161.65 59.86 162.24Z" id="XMLID_72_" fill="#313144"/><path d="M39.22 171.42C39.22 171.87 39.3 172.2 39.48 172.25 45.82 172.46 53.15 172.32 55.07 172.28 55.37 172.27 55.66 172.13 55.85 171.9L56.41 171.22C56.68 170.89 57.19 170.91 57.43 171.26L57.43 171.26C57.78 171.76 58.36 172.04 58.96 171.99 60.26 171.9 62.59 171.73 64.14 171.63 65 171.58 65.63 170.79 65.47 169.93 65.47 169.91 65.46 169.9 65.46 169.88 65.44 169.74 65.41 169.6 65.38 169.45L39.22 171.42Z" id="XMLID_71_" fill="#313144"/><path d="M51.51 163.07C52.07 162.79 52.78 163.03 53.36 163.19 54.07 163.38 54.93 163.55 55.52 164.01 55.7 164.15 55.7 164.53 55.42 164.56 54.73 164.64 53.97 164.4 53.3 164.22 52.65 164.05 51.83 163.91 51.44 163.31 51.39 163.23 51.43 163.11 51.51 163.07Z" id="XMLID_70_" fill="#313144"/><path d="M50.27 163.99C50.81 163.56 51.59 163.91 52.19 164.07 52.9 164.25 53.91 164.36 54.38 164.97 54.47 165.09 54.48 165.31 54.31 165.38 53.62 165.67 52.81 165.31 52.11 165.13 51.46 164.96 50.48 164.87 50.21 164.17 50.19 164.12 50.22 164.03 50.27 163.99Z" id="XMLID_69_" fill="#313144"/><path d="M49 164.56C49.67 164.4 50.42 164.77 51.05 164.98 51.68 165.19 52.46 165.33 52.93 165.82 53.08 165.98 52.99 166.26 52.78 166.3 52.11 166.43 51.37 166.07 50.73 165.88 50.1 165.68 49.29 165.56 48.85 165.04 48.71 164.88 48.78 164.62 49 164.56Z" id="XMLID_68_" fill="#313144"/><path d="M48.17 165.34C48.74 165.34 49.3 165.61 49.83 165.79 50.36 165.97 50.92 166.13 51.38 166.47 51.6 166.63 51.5 166.97 51.22 166.98 50.65 166.98 50.09 166.77 49.55 166.61 49.02 166.45 48.41 166.33 47.95 166 47.66 165.79 47.82 165.34 48.17 165.34Z" id="XMLID_67_" fill="#313144"/></g><path d="M64.88 163.15C62.62 163.82 60.02 163.86 57.66 163.65 53.75 163.31 50.48 162.29 50.48 162.29L51.23 118.84C51.23 118.84 50.61 118.39 48.91 114.22 47.4 112.02 47.51 70.5 47.83 69.87L52.67 72.13 53.18 72.37C53.18 72.37 61.9 69.36 64.51 68.51L64.55 68.49C64.92 68.37 65.15 68.3 65.22 68.29 65.26 68.28 65.29 68.36 65.33 68.5 65.71 70.27 65.49 82.38 65.49 82.38L62.45 112.73C62.45 112.73 63.38 116.79 65.15 123.98 66.91 131.16 65.9 155.82 64.88 163.15Z" id="XMLID_65_" fill="#5DC4BE"/><path d="M64.88 163.15C62.62 163.82 60.02 163.86 57.66 163.65 58.85 157.69 64.38 129.9 64.05 127.37 63.68 124.53 61.8 119 61.8 119 61.8 119 59.86 122.18 58.12 122.44 56.41 122.7 60.54 116.71 60.65 116.56 60.52 116.65 56.35 119.49 55.28 119.12 54.2 118.74 59.33 114.72 59.33 114.72 57.35 111.56 62.28 91.31 62.28 91.31 62.28 91.31 57.69 93.61 55.18 94.47 52.66 95.33 60.89 86.98 60.89 86.98 60.89 86.98 53.88 88.67 50.58 88.92 47.29 89.17 60.48 81.47 61.12 80.93 61.75 80.39 48.05 75.09 48.05 75.09L50.42 72.82 52.68 72.13 64.52 68.51 64.56 68.49 65.23 68.29 65.34 68.5C65.72 70.27 65.5 82.38 65.5 82.38L62.46 112.73C62.46 112.73 63.39 116.79 65.16 123.98 66.91 131.16 65.9 155.82 64.88 163.15Z" id="XMLID_64_" fill="#4DAEA7"/></g><g><g id="XMLID_51_"><path d="M59.29 176.24C59.29 176.69 59.37 177.02 59.55 177.07 62.86 177.18 66.45 177.2 69.39 177.18 72.07 177.16 74.22 177.12 75.13 177.1 75.43 177.09 75.72 176.95 75.92 176.72L76.48 176.04C76.75 175.71 77.26 175.73 77.5 176.08L77.5 176.08C77.85 176.58 78.43 176.86 79.03 176.81 80.33 176.72 82.66 176.55 84.21 176.45 85.07 176.4 85.7 175.61 85.54 174.75 85.54 174.73 85.53 174.72 85.53 174.7 85.51 174.56 85.48 174.42 85.45 174.27 85.27 173.31 85.01 172.14 84.72 171 84.53 170.23 84.33 169.47 84.14 168.79 83.83 167.67 83.53 166.76 83.32 166.34 83.29 166.29 83.27 166.25 83.23 166.21 82.97 165.92 81.84 164.72 81.39 165 81.03 165.23 80.37 166.28 80 166.9 79.84 167.17 79.52 167.28 79.23 167.18 78.15 166.79 75.63 165.94 74.73 166.2 73.65 166.51 67.53 170.77 66.81 171.28 66.76 171.32 66.72 171.34 66.66 171.36 66.06 171.56 62.33 172.81 60.75 173.42 60.46 173.53 60.24 173.63 60.13 173.68 59.63 173.98 59.29 175.33 59.29 176.24Z" id="XMLID_62_" fill="#2C435E"/><path d="M69.01 172.05C70.73 171.24 72.14 170.02 73.66 168.89 74.93 167.94 76.51 166.82 78.15 166.75 78.26 166.75 78.3 166.93 78.19 166.97 77.4 167.27 76.61 167.5 75.86 167.9 75.02 168.35 74.24 168.92 73.48 169.5 72.1 170.56 70.76 171.69 69.15 172.41 68.92 172.52 68.78 172.16 69.01 172.05Z" id="XMLID_61_" fill="#425B75"/><path d="M80.62 168.14C80.44 168.03 80.23 168.01 80.04 168.09 78.8 168.63 74.58 170.86 74.78 170.73 76.15 169.85 72.06 172.52 70.72 174.41 70.42 174.83 70.74 175.41 71.26 175.41 73.11 175.41 74.14 175.45 74.71 175.48 75.06 175.5 75.36 175.24 75.38 174.88 75.43 174.15 75.71 172.97 76.82 172.13 77.92 171.31 80.57 170.79 82.36 170.51 82.95 170.42 83.1 169.64 82.59 169.33L80.62 168.14Z" id="XMLID_60_" fill="#313144"/><path d="M59.29 176.24C59.29 176.69 59.37 177.02 59.55 177.07 62.81 177.18 66.34 177.2 69.26 177.18 69.35 177.18 69.43 177.16 69.52 177.12L72.09 175.97 72.09 175.76C72.09 175.76 70.99 173.97 69.58 173.47 68.53 173.09 63.35 173.31 60.76 173.44 60.47 173.55 60.25 173.65 60.14 173.7 59.63 173.98 59.29 175.33 59.29 176.24Z" id="XMLID_59_" fill="#425B75"/><path d="M81.68 175 84.81 174.77C85.2 174.74 85.47 174.39 85.39 174.01 85.21 173.11 84.97 172.06 84.72 171.02 84.53 170.25 84.33 169.49 84.14 168.81L83.4 169.06 83.25 170.02C83.23 170.14 83.18 170.25 83.1 170.34 82.69 170.8 81.36 172.35 81.15 173.29 81.06 173.68 81.01 174.02 80.98 174.29 80.96 174.69 81.28 175.03 81.68 175Z" id="XMLID_58_" fill="#425B75"/><path d="M79.93 167.06C79.81 167.27 79.81 167.53 79.94 167.73 80.35 168.37 81.35 169.76 82.63 170.41 82.94 170.57 83.3 170.7 83.68 170.8 84.16 170.93 84.6 170.5 84.48 170.02 84.06 168.38 83.62 166.94 83.34 166.37 83.31 166.32 83.29 166.28 83.25 166.24 82.99 165.95 81.86 164.75 81.41 165.03 81.01 165.27 80.28 166.46 79.93 167.06Z" id="XMLID_57_" fill="#313144"/><path d="M59.29 176.24C59.29 176.69 59.37 177.02 59.55 177.07 65.89 177.28 73.22 177.14 75.13 177.1 75.43 177.09 75.72 176.95 75.91 176.72L76.47 176.04C76.74 175.71 77.25 175.73 77.49 176.08L77.49 176.08C77.84 176.58 78.42 176.86 79.02 176.81 80.32 176.72 82.65 176.55 84.2 176.45 85.06 176.4 85.69 175.61 85.53 174.75 85.53 174.73 85.52 174.72 85.52 174.7 85.5 174.56 85.47 174.42 85.44 174.27L59.29 176.24Z" id="XMLID_56_" fill="#313144"/><path d="M71.58 167.89C72.14 167.61 72.85 167.85 73.43 168.01 74.14 168.2 75 168.37 75.59 168.83 75.77 168.97 75.77 169.35 75.49 169.38 74.8 169.46 74.04 169.22 73.37 169.04 72.72 168.87 71.9 168.73 71.51 168.13 71.46 168.05 71.5 167.93 71.58 167.89Z" id="XMLID_55_" fill="#313144"/><path d="M70.34 168.81C70.88 168.38 71.66 168.73 72.26 168.89 72.96 169.07 73.98 169.18 74.45 169.79 74.54 169.91 74.55 170.13 74.38 170.2 73.69 170.49 72.88 170.13 72.18 169.95 71.53 169.78 70.55 169.69 70.28 168.99 70.26 168.94 70.29 168.85 70.34 168.81Z" id="XMLID_54_" fill="#313144"/><path d="M69.07 169.38C69.74 169.22 70.49 169.59 71.12 169.8 71.75 170.01 72.53 170.15 73 170.64 73.15 170.8 73.06 171.08 72.85 171.12 72.18 171.25 71.44 170.89 70.8 170.7 70.17 170.5 69.36 170.38 68.92 169.86 68.78 169.69 68.85 169.44 69.07 169.38Z" id="XMLID_53_" fill="#313144"/><path d="M68.25 170.16C68.82 170.16 69.38 170.43 69.91 170.61 70.44 170.79 71 170.95 71.46 171.29 71.68 171.45 71.58 171.79 71.3 171.8 70.73 171.8 70.17 171.59 69.63 171.43 69.1 171.27 68.49 171.15 68.03 170.82 67.74 170.6 67.89 170.16 68.25 170.16Z" id="XMLID_52_" fill="#313144"/></g><path d="M85.75 167.97C83.6 168.9 80.16 168.74 77.07 168.29 73.47 167.77 70.36 166.86 70.36 166.86L71.17 122.53C71.17 122.53 70.25 121.24 67.87 117.19 67.09 115.67 65.87 104.21 64.9 93.92 64.06 85.03 63.42 77 63.42 77L52.52 66.4C52.52 66.4 71.33 64.11 71.6 64.12 71.88 64.13 83.86 70.73 83.86 70.73L83.53 117.24C83.53 117.24 85.14 120.56 86.69 126.57 88.26 132.58 87.17 156.05 85.75 167.97Z" id="XMLID_50_" fill="#5DC4BE"/><path d="M85.75 167.97C83.6 168.9 80.16 168.74 77.07 168.29 80.53 159.39 82.38 122.74 82.38 122.74 82.38 122.74 78.1 124.48 75.8 124.53 73.5 124.58 74.74 122.24 80.01 120.34 85.28 118.45 69.84 120.46 70.35 117.29 75.26 114.24 80.16 116.72 80.16 116.72L79.73 93.18C79.73 93.18 72.25 98.78 69.04 99.3 67.06 99.14 65.6 95.83 64.91 93.91 64.06 85.03 63.42 77 63.42 77L52.52 66.4C52.52 66.4 71.33 64.11 71.6 64.12 71.88 64.13 83.86 70.73 83.86 70.73L83.53 117.24C83.53 117.24 85.14 120.56 86.69 126.57 88.26 132.58 87.17 156.05 85.75 167.97Z" id="XMLID_49_" fill="#4DAEA7"/></g><g><path d="M14.96 38.69C14.96 38.69 12.82 42.49 13.21 47.69 13.59 52.89 13.24 76.13 17.21 76.96 21.18 77.79 22.81 77.96 23.63 75.84 24.45 73.73 25.51 53.22 25.51 53.22L14.96 38.69Z" id="XMLID_48_" fill="#E9DCC6"/><path d="M23.82 74.47C23.68 77.15 20.77 79.9 17.61 80.02 16.81 80.05 16.06 79.95 15.39 79.79 15.39 79.79 15.39 79.79 15.39 79.79 13.42 79.32 12.12 78.29 12.12 78.29L13.41 73.38C13.41 73.38 13.88 73.4 16.81 71.76 16.82 71.75 16.83 71.75 16.84 71.75 19.76 70.13 23.97 71.8 23.82 74.47Z" id="XMLID_47_" fill="#F9AC7A"/><path d="M23.82 74.47C23.68 77.15 20.77 79.9 17.61 80.02 16.81 80.05 16.06 79.95 15.39 79.79 17.87 79.37 19.61 77.33 19.41 75.11 19.26 73.38 17.66 72.23 16.83 71.74 19.76 70.13 23.97 71.8 23.82 74.47Z" id="XMLID_46_" fill="#E9DCC6"/><path d="M8.63 77.04C8.63 77.04 11.41 79.04 13.5 78.69 15.59 78.33 16.73 76.71 16.86 76.09 16.86 76.09 19.1 74.4 18.39 72.06 17.71 70.06 17.71 70.06 17.71 70.06 17.71 70.06 16.54 65.48 16.02 65.43 15.49 65.38 14.75 66.22 14.83 67.14 14.92 68.06 15.37 70.28 15.37 70.28L13.88 72.23 8.63 77.04Z" id="XMLID_45_" fill="#F3806A"/><path d="M15.3 72.32C15.3 72.32 16.37 72.71 16.45 71.67 16.53 70.63 12.55 67.64 11.68 67.7 10.81 67.77 9.92 68.69 10.61 69.89 9.34 69.29 8.01 70.51 9.35 72.05 8.6 71.91 7.92 71.79 7.56 72.55 7.2 73.31 8.37 74.51 8.37 74.51 8.37 74.51 7.33 74.67 7.26 75.89 7.21 76.78 9.42 77.29 9.88 77.36 10.34 77.43 12.64 77.66 13.27 77.4 13.9 77.14 13.92 76.58 13.75 75.94 14.87 75.67 14.86 75.2 14.63 74.36 15.58 73.8 16.24 73.48 15.3 72.32Z" id="XMLID_44_" fill="#F9AC7A"/><path d="M16.59 71.4C16.57 71.31 16.42 71.28 16.38 71.37 15.9 72.35 14 71.22 13.35 70.9 12.6 70.54 11.88 70.13 11.07 69.92 10.93 69.88 10.81 70.07 10.93 70.17 11.56 70.73 12.32 71.1 13.07 71.48 13.74 71.81 14.54 72.29 15.27 72.48 15.85 72.65 16.79 72.24 16.59 71.4Z" id="XMLID_43_" fill="#F3806A"/><path d="M15.85 72.63C15.82 72.52 15.56 72.51 15.53 72.64 15.16 74.63 12.36 72.35 10.89 72.46 10.78 72.47 10.74 72.59 10.81 72.67 11.23 73.16 11.86 73.33 12.44 73.57 13.08 73.84 13.77 74.24 14.47 74.33 15.2 74.42 16.07 73.47 15.85 72.63Z" id="XMLID_42_" fill="#F3806A"/><path d="M14.99 74.98C14.96 74.83 14.8 75.14 14.73 75.25 14.26 75.97 12.56 75.37 11.88 75.22 11.14 75.06 10.36 74.77 9.61 74.87 9.46 74.89 9.41 75.06 9.54 75.15 10.24 75.61 15.37 77.02 14.99 74.98Z" id="XMLID_41_" fill="#F3806A"/></g><g id="XMLID_27_"><g id="XMLID_28_"><path d="M63.33 57.73 74.15 69.61 48.62 89.24 34.97 71.61C34.97 71.61 16.14 51.08 15.18 45.69 14.44 41.56 17.02 35.94 20.22 31.27 22.27 32.68 27.35 35.73 29.16 32.98 30.82 30.47 34.23 22.76 36.01 18.65 40.32 17.1 47.87 15.55 52.97 21.07 60.46 29.17 63.33 57.73 63.33 57.73Z" id="XMLID_40_" fill="#5DC4BE"/><path d="M36.01 18.65C36.01 18.65 34.35 36.4 36.81 45 33.58 45.14 28.98 46.59 29.44 47.49 29.9 48.39 38.67 48.79 38.67 48.79 38.67 48.79 31.05 53.6 32.44 54.34 33.84 55.08 38.4 53.31 38.4 53.31L32.98 66 36.97 68.46 50.1 48.55 42.83 21.69 36.01 18.65Z" id="XMLID_39_" fill="#4DAEA7"/><path d="M43.7 76.08C51.57 86.73 57.92 94.14 57.92 94.14 57.92 94.14 48.62 96.21 46.52 94.83 44.42 93.44 33.99 72.79 33.99 72.79 33.99 72.79 17.49 55.04 15.39 48.61 13.75 43.59 13.77 39.7 16.72 35.16 17.39 34.12 18.95 32.14 19.95 31.01 19.95 31.01 28.56 56.6 39.76 70.69 41.14 72.61 42.46 74.41 43.7 76.08Z" id="XMLID_38_" fill="#FCF6D9"/><path d="M29.47 67.32C27.77 65.45 26.16 63.49 24.65 61.46 21.53 57.24 17.99 51.4 15.17 47.01 14.98 46.72 14.6 47.02 14.69 47.3 16.16 52.03 20.4 57.65 23.31 61.6 24.86 63.7 26.53 65.72 28.3 67.65 29.94 69.44 31.78 71.8 33.96 72.92 34.27 73.08 34.46 72.66 34.31 72.43 33.07 70.53 31 69.01 29.47 67.32Z" id="XMLID_37_" fill="#E2CFB5"/><path d="M39.75 70.69C41.14 72.61 42.46 74.4 43.7 76.08 39.28 73.03 26.24 58.89 26.24 58.89L25.77 53.59C25.77 53.59 25.24 53.61 21.36 51.85 19.29 47.07 17.22 37.48 16.71 35.16 17.38 34.12 18.94 32.14 19.94 31.01 19.95 31.02 28.55 56.61 39.75 70.69Z" id="XMLID_36_" fill="#E9DCC6"/><path d="M86.29 72.05C85.98 73.85 73.2 87.44 73.01 87.34 70.07 85.8 64.8 79.64 59.39 72.35 57.96 70.42 56.51 68.41 55.1 66.38 53.85 64.59 52.62 62.78 51.44 61.01 48.75 56.97 46.34 53.11 44.54 49.96 39.09 40.45 37.51 29.31 35.99 18.66 38.16 17.21 43.16 16.54 45.62 16.9 49.81 17.5 52.8 20.42 55.99 23.22 57.66 24.69 59.16 26.33 60.56 28.07 61.82 29.64 63 31.28 64.14 32.93 68.07 38.63 71.62 44.59 75.17 50.53 76.81 53.28 78.45 56.03 80.09 58.77 81.28 60.79 86.71 69.61 86.29 72.05Z" id="XMLID_35_" fill="#FCF6D9"/><path d="M59.38 72.35C57.95 70.42 56.5 68.41 55.09 66.38 53.84 64.59 52.61 62.78 51.43 61.01 51.73 57.73 52.07 54.38 52.25 54.36 52.6 54.33 54.52 46.26 48.93 18.55 60.04 23.2 65.76 38.1 66.65 47.14 67.4 54.85 61.53 69.25 59.38 72.35Z" id="XMLID_34_" fill="#E2CFB5"/><path d="M47.18 30.47 47.38 40.53 52.93 50.08 55.09 66.39C50.98 60.5 47.12 54.49 44.53 49.97 37.69 38.04 36.01 18.65 36.01 18.65 36.79 18.25 37.54 17.91 38.27 17.62L38.27 17.62C38.61 17.91 47.18 30.47 47.18 30.47Z" id="XMLID_33_" fill="#E9DCC6"/><path d="M63.6 68.23C63.37 69.52 69.83 69.83 72.47 67.44 75.1 65.05 75.53 59.96 74.22 60.01 72.91 60.05 63.99 66.06 63.6 68.23Z" id="XMLID_32_" fill="#E9DCC6"/><path d="M40.38 84.98C40.38 84.6 45.92 81.33 46.22 81.8 46.52 82.27 46.46 84.87 44.85 85.99 43.24 87.1 40.37 86.12 40.38 84.98Z" id="XMLID_31_" fill="#E9DCC6"/><path d="M61.74 66.1C61.08 66.48 60.41 66.87 59.74 67.25 59.72 67.26 59.74 67.28 59.76 67.27 60.43 66.89 61.09 66.5 61.75 66.12 61.77 66.12 61.75 66.09 61.74 66.1Z" id="XMLID_30_" fill="#E2CFB5"/><path d="M50.74 69.89C50.72 69.9 50.74 69.92 50.76 69.91 50.77 69.9 50.76 69.88 50.74 69.89Z" id="XMLID_29_" fill="#E2CFB5"/></g></g><g><path d="M27.21 12C27.86 14.36 27.83 16.21 27.27 16.07 26.7 15.93 16.98 12.62 16.98 12.62L3.14 14.97C3.14 14.97 1.41 15.46 0.45 14.37-0.43 13.36 0.01 11.59 1.54 9.74 1.66 9.58 1.8 9.42 1.95 9.26 3.8 7.23 9.13 2.72 12.69 1.18 16.24-0.36 18.63-0.2 19.69 0.55 20.1 0.84 21.23 2.27 22.49 4.06 24.48 6.88 26.81 10.56 27.21 12Z" id="XMLID_26_" fill="#F9A229"/><path d="M27.21 12C27.86 14.36 27.83 16.21 27.27 16.07 26.7 15.93 16.98 12.62 16.98 12.62L3.14 14.97C3.14 14.97 1.41 15.46 0.45 14.37-0.43 13.36 0.01 11.59 1.54 9.74 1.49 10.91 1.64 12.28 2.41 12.29 3.76 12.3 11.35 4.47 11.74 4.9 12.11 5.3 10.89 8.1 10.86 8.26 10.86 8.26 10.87 8.25 10.87 8.24 11.04 7.95 15.88 2.26 16.25 3 16.62 3.74 15.96 5.81 15.96 5.81 15.96 5.81 19.09 3.26 19.49 3.64 19.89 4.02 18.47 6.4 18.77 6.08 18.99 5.84 21.28 4.68 22.49 4.07 24.48 6.88 26.81 10.56 27.21 12Z" id="XMLID_25_" fill="#F58720"/><path d="M36.01 18.65C34.23 22.77 30.82 30.47 29.16 32.98 27.34 35.73 22.27 32.68 20.22 31.27 21.19 29.85 22.23 28.51 23.24 27.33 23.19 27.21 23.1 27.06 22.98 26.91 22.25 26 20.41 24.66 20.41 24.66L23.84 12.2 26.69 14.74 32.7 20.11C32.68 20.11 33.99 19.38 36.01 18.65Z" id="XMLID_24_" fill="#F9AC7A"/><path d="M26.67 14.74C27.89 17.13 28.78 19.83 27.91 21.71 26.54 24.69 24.19 26.26 22.97 26.91 22.24 26 20.4 24.66 20.4 24.66L23.83 12.2 26.67 14.74Z" id="XMLID_23_" fill="#F3806A"/><path d="M25.26 15.29C25.75 16.79 24.27 23.5 22.62 25.3 20.97 27.11 18.4 28.38 17.53 28.51 16.66 28.65 16.23 27.4 16.23 27.4 16.23 27.4 12.15 25.24 10.46 23.78 8.77 22.32 8.06 21.74 7.57 20.15 6.74 19.39 6.03 18.68 5.43 18.04 5.34 17.95 5.27 17.86 5.18 17.78 5.07 17.66 4.96 17.54 4.86 17.42 3.55 15.94 2.98 14.98 3.16 14.93 10.05 13.04 15.08 6.55 15.21 6.57 15.21 6.57 15.15 10.26 17.04 10.38 18.18 10.19 17.15 8.16 17.15 8.16 17.15 8.16 19.39 11.12 20.21 10.67 20.58 10.47 20.54 9.94 20.37 9.42 21.19 9.88 21.78 10.21 21.78 10.21 21.78 10.21 24.77 13.79 25.26 15.29Z" id="XMLID_22_" fill="#F9AC7A"/><path d="M16.57 24.15 15.99 24.8C15.99 24.8 16.14 26.83 16.23 27.4 16.23 27.4 12.15 25.24 10.46 23.78 8.77 22.32 8.06 21.74 7.57 20.15 6.63 19.28 5.83 18.48 5.19 17.77 5.69 17.1 6.99 15.69 8.78 16.15 9.98 16.69 11.24 18.13 11.46 19.14 11.68 20.15 11.82 21.92 11.82 21.92L14.12 20.82 14.87 21.9 15.59 22.94 16.57 24.15Z" id="XMLID_21_" fill="#F3806A"/><path d="M15.84 13.78C15.78 13.98 15.62 14.39 15.26 14.88 14.92 15.36 14.4 15.91 13.65 16.43 13.51 16.47 13.4 16.5 13.32 16.51 13.05 16.55 13.04 16.47 13 16.49 12.95 16.51 12.14 15.74 11.75 14.51 11.75 14.51 12.57 13.85 13.41 13.68 14.25 13.51 15.47 13.63 15.84 13.78Z" id="XMLID_20_" fill="#FFFFFF"/><path d="M11.02 18.16C10.97 18.3 10.85 18.5 10.69 18.71 10.28 19.25 9.59 19.88 9 19.98 9 19.98 9 19.98 9 19.98 8.18 19.89 7.29 18.32 7.29 18.32 7.29 18.32 8.16 17.62 9.01 17.59 9.86 17.56 10.88 17.91 11.02 18.16Z" id="XMLID_19_" fill="#FFFFFF"/><path d="M15.5 14.5C15.4 14.61 15.29 14.72 15.19 14.84 14.73 14.52 13.56 14.32 13 14.94 12.53 15.46 12.89 16.06 13.17 16.37 13.12 16.4 13.08 16.42 13.03 16.45 12.95 16.5 12.97 16.65 13.08 16.62 14.1 16.39 15.18 15.54 15.66 14.62 15.73 14.52 15.58 14.42 15.5 14.5Z" id="XMLID_18_" fill="#613738"/><path d="M10.69 18.71C10.12 18.25 8.48 18.24 8.38 18.85 8.31 19.32 8.65 19.69 8.85 19.86 8.79 19.88 8.74 19.9 8.68 19.92 8.58 19.96 8.64 20.1 8.74 20.07 8.88 20.03 9.03 19.97 9.18 19.91 9.28 19.88 9.39 19.83 9.49 19.77 9.88 19.58 10.24 19.33 10.45 18.99 10.46 18.98 10.46 18.97 10.46 18.96 10.55 18.88 10.63 18.79 10.69 18.71Z" id="XMLID_17_" fill="#613738"/><path d="M16.12 13.63C14.76 12.79 12.1 13.55 11.29 14.89 11.23 14.99 11.34 15.1 11.44 15.03 12.17 14.51 12.77 14.01 13.66 13.8 14.5 13.6 15.2 13.81 16.03 13.87 16.16 13.88 16.24 13.7 16.12 13.63Z" id="XMLID_16_" fill="#613738"/><path d="M9.03 17.47C8.11 17.55 7.24 17.95 6.63 18.65 6.53 18.76 6.71 18.9 6.81 18.82 7.55 18.27 8.33 17.84 9.28 17.82 9.95 17.8 10.53 18.09 11.18 18.15 11.23 18.15 11.27 18.09 11.24 18.05 10.73 17.48 9.75 17.41 9.03 17.47Z" id="XMLID_15_" fill="#613738"/><path d="M14.06 20.64C13.35 20.97 12.67 21.34 11.98 21.7 12.12 20.56 11.94 19.41 11.39 18.38 10.81 17.32 9.71 16.18 8.47 15.95 8.33 15.92 8.27 16.13 8.38 16.2 9.39 16.88 10.31 17.38 10.94 18.48 11.56 19.56 11.72 20.81 11.49 22.02 11.46 22.2 11.63 22.36 11.8 22.27 12.61 21.84 13.44 21.44 14.23 20.97 14.45 20.86 14.28 20.54 14.06 20.64Z" id="XMLID_14_" fill="#C96E66"/><path d="M18.3 11.93C18.26 12.17 19.5 11.97 20 12.35 20.5 12.73 20.09 14.08 20.09 14.08 20.09 14.08 21.22 16.12 21.37 15.92 21.51 15.72 20.91 13.56 20.91 13.56 20.91 13.56 21.39 11.96 20.88 11.61 20.38 11.26 18.34 11.69 18.3 11.93Z" id="XMLID_13_" fill="#F3806A"/><path d="M10.26 14.38C10.26 14.38 11.28 14.94 11.51 14.8 11.74 14.66 12.94 13.44 14.33 13.42 15.72 13.41 16.13 13.63 16.13 13.63 16.13 13.63 16.03 12.52 15.73 12.25 15.43 11.98 14.41 11.66 13.59 11.87 12.77 12.09 10.88 13.42 10.26 14.38Z" id="XMLID_12_" fill="#F3806A"/><path d="M10.24 14.26C10.18 14.29 9.78 14.61 9.94 14.59 10.1 14.58 10.3 14.72 10.68 14.37 11.06 14.02 12.65 12.68 13.38 12.26 14.11 11.84 15.1 12.11 15.2 11.87 15.3 11.63 13.41 11.27 12.51 11.8 11.6 12.34 9.78 13.99 9.67 14.08 9.36 14.35 10.24 14.26 10.24 14.26Z" id="XMLID_11_" fill="#613738"/><path d="M8.53 15.86C8.46 16 8.53 16.24 8.07 16.47 7.67 16.68 6.23 17.48 5.44 18.04 5.35 17.95 5.28 17.86 5.19 17.78 5.08 17.66 4.97 17.54 4.87 17.42 4.91 17.37 4.96 17.33 5.01 17.29 5.83 16.62 8.02 15.5 8.14 15.43 8.5 15.24 8.1 16.02 8.1 16.02 8.17 15.98 8.59 15.72 8.53 15.86Z" id="XMLID_10_" fill="#613738"/><path d="M16.27 14.17C16.1 14.25 16.04 14.45 15.95 14.61 15.85 14.79 15.75 14.97 15.7 15.17 15.68 15.25 15.81 15.32 15.87 15.26 16.02 15.11 16.11 14.92 16.22 14.74 16.3 14.59 16.44 14.43 16.41 14.25 16.4 14.19 16.33 14.15 16.27 14.17Z" id="XMLID_9_" fill="#F3806A"/><path d="M18.61 17.2C18.51 17.14 18.4 17.26 18.45 17.36 19.99 20.12 16.67 22.34 14.3 22.64 14.01 22.68 14.03 23.07 14.32 23.09 15.97 23.17 17.55 22.41 18.58 21.11 19.44 20.01 20.07 18.08 18.61 17.2Z" id="XMLID_8_" fill="#C96E66"/></g><g><path d="M50.17 79.39C50.17 79.39 46.56 88.57 43.94 90.05 39.19 91.1 37.88 90.62 37.88 90.62 37.88 90.62 35.76 95.76 34.55 95.52 33.34 95.28 35.68 90.63 35.68 90.63 35.4 90.28 32.91 95.59 31.14 94.59 30.4 94.16 34.56 89.77 34.31 89.59 34.07 89.41 30.65 94.24 29.24 93.53 28.31 93.06 30.61 90.64 31.95 89.35 30.5 90.66 27.7 93.06 27.31 92.31 26.78 91.29 32.49 85.64 33.5 85.55 34.51 85.46 40.7 85.74 40.7 85.74L42.94 77.43C42.94 77.43 45.07 77.13 47.15 77.64 48.29 77.93 49.41 78.45 50.17 79.39Z" id="XMLID_7_" fill="#F9AC7A"/><path d="M50.17 79.39C50.17 79.39 46.56 88.57 43.94 90.05 39.19 91.1 37.88 90.62 37.88 90.62 37.88 90.62 35.76 95.76 34.55 95.52 33.34 95.28 35.68 90.63 35.68 90.63 35.4 90.28 32.91 95.59 31.14 94.59 30.4 94.16 34.56 89.77 34.31 89.59 34.31 89.59 35.27 88.25 36.43 87.99 37.59 87.74 41.92 88.34 43.21 87.82 45.34 81.67 46.55 78.87 47.15 77.63 48.29 77.93 49.41 78.45 50.17 79.39Z" id="XMLID_6_" fill="#F3806A"/><path d="M53.67 81.48C53.67 81.48 52.99 81.64 50.84 81.37 50.18 81.29 49.38 81.16 48.41 80.98 46.65 80.65 44.35 80.12 41.36 79.29 41.65 76.67 47.46 54.87 47.46 54.87 47.46 54.87 46.3 54.27 46.02 53.21 45.74 52.14 48.51 51.67 48.51 51.67 48.51 51.67 47.03 51.43 46.81 50.07 46.59 48.71 48.46 48.45 48.46 48.45 48.46 48.45 40.07 26.12 43.8 19.62 44.3 18.74 45.03 18.16 46.02 17.95 52.77 16.55 63.2 38.44 63.2 45.34 63.22 52.23 53.67 81.48 53.67 81.48Z" id="XMLID_5_" fill="#FCF6D9"/><path d="M53.67 81.48C53.67 81.48 52.99 81.64 50.84 81.37 52.95 73.86 57.46 54.01 58.02 49.78 58.71 44.47 50.86 25.45 49.15 22.66 47.79 20.44 44.93 19.79 43.81 19.62 44.31 18.74 45.04 18.16 46.03 17.95 52.78 16.55 63.21 38.44 63.21 45.34 63.22 52.23 53.67 81.48 53.67 81.48Z" id="XMLID_4_" fill="#E9DCC6"/><path d="M48.99 51.68C49.5 50.59 52.93 50.04 53.9 51.02 54.87 51.99 51.88 52.07 51.88 52.07 51.88 52.07 55.36 53.58 53.48 54.23 51.61 54.88 48.48 52.77 48.99 51.68Z" id="XMLID_3_" fill="#E9DCC6"/><path d="M35.04 92.92C35.37 92.02 35.71 91.12 36.12 90.26 36.21 90.06 35.97 89.87 35.81 90.03 35.2 90.65 34.92 91.46 34.61 92.26 34.31 93.05 33.96 93.88 33.93 94.73 33.92 95.14 33.9 95.62 34.38 95.77 34.98 95.96 35.31 95.38 35.68 95.04 35.76 94.97 35.66 94.84 35.57 94.9 35.41 94.99 35.26 95.08 35.1 95.18 34.52 95.09 34.34 94.84 34.55 94.43 34.55 93.97 34.89 93.33 35.04 92.92Z" id="XMLID_2_" fill="#C96E66"/><path d="M34.73 89.22C34.3 88.95 33.3 90.22 32.45 91.45 32.09 91.74 31.76 92.07 31.41 92.37 31.21 92.54 30.7 93.08 30.37 93.14 29.24 93.53 29.16 92.91 29.53 92.45 29.66 92.24 29.8 92.04 29.97 91.85 30.93 90.67 32.19 89.66 33.01 88.38 33.06 88.3 32.96 88.19 32.88 88.25 32.14 88.81 31.48 89.53 30.85 90.26 30.83 90.25 30.81 90.25 30.79 90.27 30.14 90.72 29.36 91.45 28.61 91.73 27.94 91.98 27.67 91.77 28.23 91.06 28.53 90.68 28.85 90.32 29.17 89.97 30.45 88.54 31.95 87.32 33.22 85.9 33.3 85.81 33.2 85.66 33.09 85.73 31.71 86.56 30.53 87.76 29.43 88.91 28.72 89.65 27.26 90.81 27.2 91.94 27.12 93.43 28.99 92.08 30.11 91.11 30.04 91.19 29.97 91.27 29.9 91.35 29.49 91.8 28.52 92.75 28.88 93.44 29.41 94.47 30.72 93.58 31.69 92.62 31.44 93.01 31.26 93.31 31.17 93.44 30.92 93.83 30.4 94.55 30.97 94.94 31.49 95.29 32.23 94.81 32.54 94.41 32.65 94.27 32.51 94.06 32.34 94.16 32.15 94.28 31.55 94.33 31.45 94.06 31.41 93.94 32.01 93.22 32.08 93.12 32.42 92.62 32.77 92.13 33.12 91.64 33.43 91.21 33.75 90.77 34.05 90.34 34.19 90.14 34.5 89.45 34.71 89.42 34.81 89.42 34.81 89.27 34.73 89.22Z" id="XMLID_1_" fill="#C96E66"/></g></g></svg>