<svg width="83.96" height="83.96" viewBox="0 0 83.96 83.96" xmlns="http://www.w3.org/2000/svg" xmlns:xlink="http://www.w3.org/1999/xlink" xml:space="preserve" overflow="hidden"><defs></defs><g><g><g><line x1="0.48" y1="0.48" x2="2.38" y2="2.38" stroke="#808285" stroke-width="1.349" stroke-miterlimit="10" fill="none"/><line x1="6.16" y1="6.16" x2="79.69" y2="79.69" stroke="#808285" stroke-width="1.349" stroke-miterlimit="10" stroke-dasharray="5.3332 5.3332" fill="none"/><line x1="81.58" y1="81.58" x2="83.49" y2="83.49" stroke="#808285" stroke-width="1.349" stroke-miterlimit="10" fill="none"/></g></g><g><rect x="0.48" y="0.48" width="83.01" height="83.01" stroke="#435791" stroke-width="0.5992" stroke-linecap="round" stroke-linejoin="round" stroke-miterlimit="10" fill="#8EA7E8"/></g><g><g><g><line x1="0.48" y1="0.48" x2="2.38" y2="2.38" stroke="#435791" stroke-width="0.7961" stroke-miterlimit="10" fill="none"/><line x1="6.16" y1="6.16" x2="79.69" y2="79.69" stroke="#435791" stroke-width="0.7961" stroke-miterlimit="10" stroke-dasharray="5.3332 5.3332" fill="none"/><line x1="81.58" y1="81.58" x2="83.49" y2="83.49" stroke="#435791" stroke-width="0.7961" stroke-miterlimit="10" fill="none"/></g></g><g><path d="M23.13 51.33C38.3 56.24 57.32 42.89 54.86 25.48" stroke="#435791" stroke-width="0.7961" stroke-miterlimit="10" fill="none"/><path d="M54.93 25.74 56.6 25.46 55.52 24.16 54.43 22.85 53.85 24.45 53.26 26.03Z" fill="#435791"/><path d="M24.33 51.79 25.1 50.29 23.41 50.36 21.72 50.44 22.63 51.87 23.55 53.29Z" fill="#435791"/></g></g></g></svg>