<svg width="280.29" height="169.15" viewBox="0 0 280.29 169.15" xmlns="http://www.w3.org/2000/svg" xmlns:xlink="http://www.w3.org/1999/xlink" xml:space="preserve" overflow="hidden"><defs></defs><g><g><g><g><g><g><g><path d="M269.54 142.88C273.2 135.01 275.74 126.5 276.82 117.88 277.37 113.45 277.51 108.99 277.71 104.53 277.76 103.39 277.85 102.25 277.88 101.11 277.9 100.39 277.89 99.67 278.04 98.97 278.24 98.03 278.71 97.34 279.39 96.88 279.22 96.35 279.04 95.82 278.85 95.29 278.82 95.28 278.78 95.28 278.75 95.27 278.64 95.28 278.52 95.28 278.41 95.3 278.22 95.34 278.05 95.25 277.91 95.12 276.28 94.83 274.65 94.54 273.02 94.27 268.51 93.54 263.95 93.06 259.41 92.54 250.39 91.51 241.42 90.03 232.35 89.48 228.99 89.28 225.63 89.3 222.28 89.12 216.92 80.75 207.75 75.26 199.15 70.69 193.73 67.81 188.22 64.96 182.6 62.48 179.25 61 175.8 59.72 172.2 58.97 168.62 58.22 164.92 58.19 161.28 58.32 157.52 58.45 153.78 58.68 150.02 58.61 146.03 58.54 142.04 58.3 138.05 58.07 134.3 57.86 130.53 57.58 126.77 57.61 123.73 57.64 120.88 58.29 118.29 59.93 111.96 63.95 106.12 68.72 100.04 73.1 98.53 74.18 97.01 75.25 95.47 76.29 94.16 77.17 92.81 78 91.57 78.98 89.71 80.46 88.16 82.29 87.31 84.53 86.3 87.2 86.25 90 86.02 92.81 85.7 96.66 84.89 100.45 83.81 104.15 83.05 106.73 82.1 109.24 81.24 111.79 80.81 113.07 79.96 115.29 80.87 116.54 80.98 116.69 81.11 116.8 81.26 116.88 80.94 117.25 80.67 117.66 80.51 118.18 79.56 121.34 82.61 124.16 85.01 125.67 87.59 127.29 90.62 127.9 93.64 127.84 94.35 127.83 95.06 127.77 95.76 127.7 95.7 127.82 95.72 127.94 95.91 128.02 97.65 128.7 99.11 129.98 100.51 131.18 102.05 132.5 103.51 133.91 105.18 135.07 107.4 136.61 109.76 137.94 112.1 139.3 113.26 139.97 114.42 140.65 115.55 141.37 116.63 142.06 117.65 142.85 118.76 143.49 120.49 144.48 122.52 145.08 124.53 144.8 125.89 144.61 127.15 144.04 128.26 143.25 129.92 143.8 131.67 144.14 133.39 144.36 134.89 144.55 136.41 144.66 137.91 144.38 140.7 143.85 142.97 141.74 143.42 138.89 143.43 138.81 143.43 138.73 143.44 138.65 145.65 139.39 148 139.74 150.28 140.23 152.77 140.77 155.25 141.34 157.73 141.91 162.78 143.08 167.84 144.25 172.98 145.01 182.96 146.49 193.35 146.2 202.47 141.44 204.87 140.19 207.14 138.67 209.16 136.87 209.25 136.79 209.35 136.7 209.44 136.62 211.66 137.3 213.92 137.87 216.17 138.45 221.31 139.77 226.44 141.17 231.6 142.44 241.96 144.98 252.34 147.49 262.77 149.69 264.4 150.03 266.03 150.34 267.66 150.66 267.88 150.32 268.09 149.97 268.31 149.63 267.06 147.7 268.69 144.71 269.54 142.88Z" fill="#D09670"/></g><g><path d="M124.8 143.52C122.83 143.81 120.86 143.06 119.22 142.01 117.13 140.68 115.09 139.31 112.95 138.07 110.74 136.8 108.51 135.55 106.39 134.12 104.61 132.92 103.06 131.43 101.4 130.07 100.23 129.11 98.81 127.93 97.27 127.49 102.38 126.68 107.28 124.54 111.99 122.52 113.54 121.85 115.1 121.21 116.69 120.7 117.39 121.28 118.12 121.81 118.86 122.33 118.85 122.37 118.86 122.41 118.92 122.43 118.98 122.46 119.05 122.48 119.11 122.5 121.52 124.15 124.05 125.62 126.12 127.71 127.66 129.27 128.71 131.1 129.55 133.11 130.38 135.12 130.92 137.44 129.96 139.51 129.04 141.5 126.98 143.2 124.8 143.52Z" fill="#FFE3CB"/></g><g><path d="M138.73 143.07C137.26 143.56 135.73 143.43 134.21 143.32 132.47 143.2 130.76 143.01 129.06 142.6 129.48 142.23 129.86 141.82 130.21 141.39 131.67 139.58 132.15 137.4 131.57 135.15 131 132.96 129.85 130.75 128.49 128.95 127.02 126.99 125.08 125.47 123.07 124.11 122.94 124.02 122.81 123.94 122.68 123.85 124.4 124.45 126.12 125.03 127.81 125.71 130.79 126.91 133.72 128.34 136.35 130.2 138.66 131.83 141.23 133.92 141.96 136.79 142.62 139.36 141.3 142.22 138.73 143.07Z" fill="#FFE3CB"/></g><g><path d="M139.73 131.16C137 128.86 133.82 127.12 130.55 125.73 127.37 124.38 124.04 123.24 120.66 122.49 119.63 121.81 118.6 121.13 117.58 120.44 119.06 120.02 120.58 119.73 122.17 119.69 125.6 119.59 128.95 120.46 132.1 121.75 133.27 122.23 134.42 122.76 135.56 123.31 135.48 123.36 135.43 123.44 135.51 123.5 138 125.42 141.19 126.57 142.79 129.44 143.47 130.66 144.01 132.12 144.24 133.5 144.34 134.14 144.39 134.84 144.17 135.46 144.01 135.93 143.71 136.22 143.34 136.45 142.84 134.38 141.37 132.54 139.73 131.16Z" fill="#FFE3CB"/></g><g><path d="M272.95 141.21C276.62 133.53 278.84 125.38 279.75 116.92 280.23 112.4 280.35 107.86 280.26 103.32 280.22 101.21 280.06 99.1 279.45 97.07 279.4 96.91 279.35 96.76 279.3 96.61 276.53 96.14 273.77 95.55 271.03 95.15 266.44 94.47 261.82 93.98 257.21 93.46 252.62 92.94 248.06 92.3 243.48 91.71 238.98 91.13 234.45 90.66 229.92 90.43 227.66 90.31 225.4 90.29 223.15 90.17 223.07 90.17 222.98 90.16 222.9 90.15 223.07 90.44 223.24 90.74 223.4 91.04 222.22 89.66 220.94 88.34 219.6 87.12 213.06 79.6 204.1 74.52 195.3 70.03 189.8 67.23 184.29 64.28 178.52 62.07 175.21 60.8 171.81 59.84 168.26 59.55 164.63 59.25 160.97 59.48 157.34 59.65 149.9 59.99 142.5 59.5 135.07 59.11 131.61 58.93 128.05 58.57 124.59 58.9 123.2 59.03 121.84 59.35 120.58 59.94 119.08 60.63 117.73 61.62 116.38 62.56 110.42 66.69 104.75 71.22 98.82 75.39 96.32 77.15 93.49 78.65 91.29 80.79 89.69 82.34 88.68 84.26 88.18 86.42 87.48 89.44 87.59 92.58 87.15 95.64 86.62 99.26 85.68 102.81 84.54 106.29 83.85 108.41 82.97 110.47 82.34 112.61 82.16 113.23 81.39 115.78 82.44 115.97 82.67 115.84 82.92 115.72 83.18 115.62 84.68 115.06 86.2 114.64 87.67 113.99 91.08 112.49 94.28 110.56 97.37 108.5 98.91 107.47 100.43 106.4 101.96 105.34 102.18 104.15 102.61 102.96 102.97 101.81 103.36 100.58 103.78 99.35 104.16 98.11 104.92 95.65 105.53 93.19 105.86 90.64 105.97 89.75 106.1 88.85 105.94 87.96 105.79 87.05 105.3 86.25 104.73 85.54 103.48 83.97 101.28 81.89 99.1 82.24 98.9 82.27 98.96 82.01 99.11 81.98 101.45 81.48 103.6 82.73 105.24 84.31 106.63 85.65 107.33 87.15 107.3 89.04 107.32 89.02 107.33 89 107.36 88.98 107.41 88.89 107.65 88.78 107.74 88.87 108.79 88.3 110.09 88.02 111.18 87.71 112.64 87.3 114.1 86.81 115.58 86.47 117.02 86.13 118.5 86.02 119.97 85.91 121.4 85.81 122.8 85.62 124.22 85.44 124.44 85.41 124.42 85.69 124.26 85.76 121.63 86.89 118.61 86.98 115.85 87.68 114.38 88.05 112.93 88.51 111.45 88.88 110.71 89.06 109.98 89.26 109.25 89.44 108.59 89.61 107.93 89.85 107.25 89.86 107.04 92.41 106.44 94.93 105.64 97.35 105.17 98.77 104.65 100.18 104.16 101.59 103.83 102.53 103.54 103.5 103.24 104.45 104.33 103.7 105.42 102.96 106.53 102.25 109.15 100.57 111.77 99.19 114.8 98.42 120.95 96.85 127.39 97.09 133.68 96.9 139.48 96.72 145.35 96.23 151.08 95.29 155.97 94.49 161.22 93.21 165.42 90.4 165.05 90.84 164.69 91.29 164.33 91.74 159.59 94.75 153.74 95.99 148.27 96.77 142.69 97.56 137.01 97.96 131.37 98.08 128.21 98.14 125.05 98.18 121.89 98.42 118.87 98.65 115.82 99.01 112.94 99.98 109.89 101.01 107.32 103.09 104.71 104.92 101.71 107.01 98.74 109.15 95.64 111.09 92.61 112.99 89.45 114.7 86.1 115.96 85.4 116.22 84.69 116.43 83.97 116.64 83.46 116.79 82.88 116.96 82.5 117.35 81.33 118.52 81.97 120.51 82.75 121.68 84.45 124.21 87.41 125.89 90.36 126.47 93.46 127.08 96.68 126.7 99.72 125.96 102.85 125.21 105.88 124.09 108.86 122.88 111.84 121.67 114.75 120.2 117.89 119.41 121.1 118.6 124.46 118.47 127.71 119.14 130.97 119.82 134.06 121.15 137.03 122.62 144.3 126.19 151.34 130.18 159.02 132.85 166.7 135.52 174.73 136.7 182.78 135.25 181.93 135.74 181.04 136.15 180.12 136.49 179.26 136.61 178.4 136.72 177.53 136.78 169.34 137.35 161.31 135.29 153.79 132.18 149.89 130.57 146.11 128.71 142.36 126.78 142.12 126.65 141.87 126.53 141.63 126.4 142.77 127.31 143.68 128.42 144.28 129.8 145.29 132.12 146.53 136.17 143.46 137.32 143.49 137.61 143.5 137.9 143.49 138.2 146.17 138.13 148.86 138.72 151.48 139.23 154.24 139.77 156.98 140.41 159.73 141.03 169.35 143.19 179.23 145.41 189.15 144.29 193.99 143.74 198.7 142.34 202.96 139.96 204.83 138.91 206.59 137.67 208.2 136.25 208.18 136.24 208.15 136.24 208.13 136.23 208.45 135.97 208.77 135.71 209.09 135.44 209.09 135.44 209.09 135.44 209.09 135.44 209.09 135.44 209.09 135.44 209.1 135.43 210.69 134.07 212.2 132.61 213.85 131.31 212.98 132.97 211.72 134.46 210.36 135.78 213.06 136.5 215.79 137.13 218.5 137.82 228.86 140.48 239.25 143.04 249.66 145.49 254.85 146.71 260.05 147.89 265.27 148.97 266.29 149.18 267.32 149.37 268.35 149.57 270.02 146.86 271.58 144.08 272.95 141.21Z" fill="#FFE3CB"/></g><g><path d="M88.29 95.31C88.53 93.71 88.73 92.11 88.91 90.51 89.09 88.87 89.35 87.31 90.09 85.82 91.6 82.79 94.33 80.62 96.95 78.58 100.18 76.07 103.44 73.62 106.83 71.33 110.26 69.01 113.78 66.83 117.25 64.56 120.44 62.46 123.59 60.21 127.27 59.06 127.59 58.96 127.92 58.87 128.25 58.78 127.02 58.76 125.8 58.78 124.59 58.89 123.2 59.02 121.84 59.34 120.58 59.93 119.08 60.62 117.73 61.61 116.38 62.55 110.42 66.68 104.75 71.21 98.82 75.38 96.32 77.14 93.49 78.64 91.29 80.78 89.69 82.33 88.68 84.25 88.18 86.41 87.48 89.43 87.59 92.57 87.15 95.63 86.62 99.25 85.68 102.8 84.54 106.28 83.85 108.4 82.97 110.46 82.34 112.6 82.27 112.83 82.12 113.33 82.02 113.87 85.92 108.62 87.35 101.62 88.29 95.31Z" fill="#FFE3CB"/></g><g><path d="M131.45 72.97C133 72.82 134.54 72.68 136.09 72.59 140.11 72.34 144.21 72.55 148.21 72.99 150.21 73.21 152.21 73.48 154.18 73.88 155.42 74.13 156.66 74.42 157.91 74.61 155.28 73.18 152.37 72.29 149.41 71.81 143.4 70.84 137.35 71.62 131.45 72.97Z" fill="#FFE3CB"/></g><g><path d="M86.3 117.13C87.1 116.92 87.86 116.57 88.61 116.22 94.79 113.41 100.51 109.69 106.09 105.86 108.72 104.05 111.33 102.29 114.38 101.27 117.12 100.36 119.98 99.94 122.86 99.76 126.12 99.56 129.39 99.63 132.64 99.42 136.1 99.2 139.54 98.79 142.96 98.27 146.94 97.66 151.04 97.05 154.78 95.55 152.61 96.08 150.41 96.46 148.26 96.76 142.68 97.55 137 97.95 131.36 98.07 128.2 98.13 125.04 98.17 121.88 98.41 118.86 98.64 115.81 99 112.93 99.97 109.88 101 107.31 103.08 104.7 104.91 101.7 107 98.73 109.14 95.63 111.08 92.6 112.98 89.44 114.69 86.09 115.95 85.39 116.21 84.68 116.42 83.96 116.63 83.45 116.78 82.87 116.95 82.49 117.34 81.39 118.44 81.9 120.27 82.62 121.46 82.58 121.08 82.57 120.69 82.63 120.29 82.81 119.07 83.45 118.1 84.61 117.62 85.16 117.39 85.74 117.28 86.3 117.13Z" fill="#FFE3CB"/></g><g><path d="M98.78 95.98C97.98 97.46 97.23 98.98 96.38 100.43 94.7 103.31 92.6 106.59 89.52 108.14 87.42 109.19 84.63 109.13 82.57 107.99 82.13 109.25 81.68 110.51 81.26 111.78 80.83 113.06 79.98 115.28 80.89 116.53 81 116.68 81.13 116.79 81.28 116.87 81.04 117.15 80.84 117.48 80.68 117.84 81.92 117.57 82.98 116.97 84.07 116.32 85.48 115.49 86.92 114.79 88.39 114.07 91.64 112.47 94.8 110.66 97.82 108.66 100.61 106.81 103.31 104.83 106.19 103.12 108.88 101.52 111.73 100.09 114.77 99.29 117.86 98.47 121.06 98.22 124.25 98.08 129.35 97.85 134.47 97.77 139.57 97.42 144.52 97.08 149.58 96.45 154.22 94.6 156.42 93.72 158.5 92.55 160.28 90.99 161.75 89.7 163.72 87.76 163.63 85.63 163.55 83.75 161.88 82.38 160.45 81.4 158.68 80.18 156.71 79.27 154.8 78.3 152.24 76.99 149.59 75.56 146.74 75.04 143.41 74.43 140.02 75.18 136.75 75.83 129.46 77.27 122.3 79.29 115.15 81.29 112.58 82.01 110.07 83.23 107.43 83.62 104.95 83.99 103.17 82.39 101.13 81.36 101.96 82.61 102.74 83.92 102.84 85.41 102.96 87.32 102.22 89.25 101.44 90.96 100.64 92.68 99.68 94.32 98.78 95.98Z" fill="#FFE3CB"/></g><g><path d="M160.28 90.99C161.1 90.27 162.07 89.33 162.76 88.29 162.86 87.77 162.84 87.24 162.62 86.7 161.8 84.7 159.47 83.79 157.57 83.16 151.86 81.26 145.77 80.72 139.8 81.1 132.52 81.56 125.23 82.6 118.05 83.87 116.25 84.19 114.46 84.53 112.67 84.9 111.07 85.23 109.47 85.69 107.83 85.8 106.07 85.92 104.66 85.2 103.29 84.33 103.94 85.98 104.4 87.7 104.42 89.48 104.44 91.32 104.01 93.1 103.47 94.85 102.77 97.12 102.02 99.39 101.22 101.62 100.44 103.78 99.56 105.92 98.73 108.07 101.2 106.4 103.63 104.67 106.2 103.14 108.89 101.54 111.74 100.11 114.78 99.31 117.87 98.49 121.07 98.24 124.26 98.1 129.36 97.87 134.48 97.79 139.58 97.44 144.53 97.1 149.59 96.47 154.23 94.62 156.42 93.72 158.5 92.55 160.28 90.99Z" fill="#FCD1C2"/></g><g><path d="M265.15 121.38C259.19 120.18 253.25 118.79 247.53 116.72 244.67 115.69 241.87 114.48 239.19 113.05 236.71 111.73 234.12 110.26 232.05 108.34 226.59 103.27 225.94 95.62 223 89.16 222.76 89.15 222.52 89.14 222.27 89.13 216.91 80.76 207.74 75.27 199.14 70.7 193.72 67.82 188.21 64.97 182.59 62.49 179.24 61.01 175.79 59.73 172.19 58.98 168.61 58.23 164.91 58.2 161.27 58.33 157.51 58.46 153.77 58.69 150.01 58.62 146.02 58.55 142.03 58.31 138.04 58.08 134.29 57.87 130.52 57.59 126.76 57.62 123.72 57.65 120.87 58.3 118.28 59.94 117.99 60.12 117.72 60.32 117.44 60.51 120.68 60.18 123.99 60.23 127.18 60.54 129.82 60.79 132.44 61.18 135.08 61.4 137.92 61.63 140.77 61.78 143.62 61.89 148.95 62.1 154.3 62.12 159.61 62.66 168.53 63.57 177.28 66.04 184.85 70.97 188.74 73.51 192.4 76.65 195.39 80.22 197.97 83.32 199.87 86.98 200.72 90.94 202.33 98.44 199.8 106.22 194.65 111.79 188.55 118.38 179.57 121.58 170.78 122.25 166.12 122.61 161.4 122.3 156.81 121.39 152.05 120.45 147.61 118.75 143.19 116.77 138.58 114.71 133.92 112.53 128.86 111.93 123.99 111.35 119.31 112.42 114.93 114.54 110.91 116.49 107.21 119.03 103.25 121.08 100.23 122.64 97.06 123.84 93.71 124.42 90.56 124.97 85.89 125.29 82.61 123.78 83.37 124.53 84.23 125.17 85.03 125.67 87.61 127.29 90.64 127.9 93.66 127.84 94.37 127.83 95.08 127.77 95.78 127.7 95.72 127.82 95.74 127.94 95.93 128.02 96.16 128.11 96.37 128.23 96.59 128.34 99.84 127.6 103.14 127.02 106.48 127.15 112.72 127.39 118.18 130.78 122.89 134.64 124.66 136.09 126.64 137.88 127.29 140.17 127.75 141.79 127.25 143.19 126.29 144.32 126.99 144.05 127.65 143.69 128.26 143.25 129.92 143.8 131.67 144.14 133.39 144.36 134.89 144.55 136.41 144.66 137.91 144.38 140.7 143.85 142.97 141.74 143.42 138.89 143.43 138.81 143.43 138.73 143.44 138.65 145.65 139.39 148 139.74 150.28 140.23 152.77 140.77 155.25 141.34 157.73 141.91 162.78 143.08 167.84 144.25 172.98 145.01 182.96 146.49 193.35 146.2 202.47 141.44 204.87 140.19 207.14 138.67 209.16 136.87 209.25 136.79 209.35 136.7 209.44 136.62 211.66 137.3 213.92 137.87 216.17 138.45 221.31 139.77 226.44 141.17 231.6 142.44 241.96 144.98 252.34 147.49 262.77 149.69 264.4 150.03 266.03 150.34 267.66 150.66 267.88 150.32 268.09 149.97 268.31 149.63 268.3 149.61 268.29 149.58 268.28 149.56 268.3 149.56 268.32 149.57 268.35 149.57 270.04 146.87 271.6 144.1 272.97 141.23 275.61 135.71 277.49 129.94 278.68 123.99 274.16 123.08 269.65 122.28 265.15 121.38Z" fill="#FFE3CB"/></g><g><path d="M211.39 84.84C216 91.08 219.3 98.17 220.76 105.76 221.02 104.21 221.16 102.65 221.15 101.08 221.1 94.62 219.11 88.43 216.66 82.46 211.56 77.63 205.21 73.93 199.14 70.71 197.78 69.99 196.42 69.27 195.05 68.56 201.11 73.31 206.8 78.63 211.39 84.84Z" fill="#FFE3CB"/></g><g><path d="M270.74 145.48C269.3 145.05 267.86 144.61 266.43 144.17 262.68 143.02 258.82 142.14 255.02 141.17 251.25 140.21 247.48 139.27 243.71 138.33 239.99 137.41 236.27 136.49 232.54 135.58 230.02 134.96 227.43 134.41 225.02 133.43 223.38 132.77 221.76 131.82 220.83 130.26 219.79 128.53 219.82 126.42 220.2 124.5 220.83 121.26 222.08 118.15 222.82 114.94 222.85 114.81 222.87 114.69 222.9 114.56 222.75 114.77 222.6 114.97 222.45 115.17 220.16 118.19 217.52 120.94 214.95 123.72 211.72 127.21 208.39 130.93 204.42 133.59 200.82 136 196.85 137.94 192.68 139.12 188.58 140.28 184.19 140.73 180.06 139.43 179.55 139.27 179.61 138.48 180.07 138.31 185.54 136.22 191.29 134.02 195.75 130.12 192.66 131.13 189.53 132.02 186.33 132.61 182.29 133.36 178.21 133.53 174.12 133.14 166.48 132.41 159.08 129.89 152.2 126.56 145.38 123.26 139.06 118.74 131.73 116.58 128.21 115.54 124.57 115.24 120.95 115.92 118.6 116.36 116.32 117.23 114.12 118.16 111.46 119.28 108.85 120.6 106.42 122.17 104.88 123.17 103.3 124.29 102.06 125.68 105.08 125.14 107.87 123.72 110.84 122.96 112.26 122.59 113.75 122.4 115.22 122.61 116.69 122.82 117.98 123.46 119.21 124.27 121.7 125.91 123.94 128.01 125.71 130.4 127.39 132.67 128.75 135.37 128.91 138.24 129.02 140.27 128.48 142.12 127.47 143.75 127.74 143.59 128.01 143.43 128.26 143.25 128.54 143.34 128.83 143.42 129.11 143.5 129.84 142.29 130.66 141.14 131.29 139.88 131.95 138.55 132.01 137.05 132.59 135.69 133.05 134.61 133.81 133.95 134.97 133.74 135.74 133.6 136.55 133.69 137.26 134.03 138.89 134.81 139.84 136.57 140.44 138.2 140.96 139.59 141.29 141.06 141.5 142.54 142.49 141.58 143.2 140.33 143.43 138.88 143.44 138.8 143.44 138.72 143.45 138.64 145.66 139.38 148.01 139.73 150.29 140.22 152.78 140.76 155.26 141.33 157.74 141.9 162.79 143.07 167.85 144.24 172.99 145 182.97 146.48 193.36 146.19 202.48 141.43 204.88 140.18 207.15 138.66 209.17 136.86 209.26 136.78 209.36 136.69 209.45 136.61 211.67 137.29 213.93 137.86 216.18 138.44 221.32 139.76 226.45 141.16 231.61 142.43 241.97 144.97 252.35 147.48 262.78 149.68 264.41 150.02 266.04 150.33 267.67 150.65 267.89 150.31 268.1 149.96 268.32 149.62 268.31 149.6 268.3 149.57 268.29 149.55 268.31 149.55 268.33 149.56 268.36 149.56 269.17 148.22 269.97 146.86 270.74 145.48Z" fill="#FFE3CB"/></g></g></g></g></g></g><g><g><g><path d="M15.09 146.21C14.07 147.2 13.14 148.28 12.33 149.47 9.23 153.98 7.18 159.12 4.2 163.7 3.69 164.49 3.14 165.26 2.57 166.01 2.36 166.28 0.4 168.5 1.01 168.51 1.4 168.51 1.5 168.01 1.7 167.78 4.88 164.21 11.69 166 15.77 166.56 20.55 167.22 25.21 167.22 29.8 165.58 33.01 164.44 36.05 162.64 38.46 160.21 38.74 159.93 39.01 159.64 39.27 159.33 40.86 157.65 42.19 155.7 43.38 153.73 43.75 153.12 44.14 152.53 44.43 151.88 44.58 151.55 44.71 151.22 44.84 150.88 44.92 150.89 45 150.87 45.04 150.8 45.28 150.39 45.46 149.98 45.45 149.49 45.44 148.91 45.37 148.3 45.27 147.72 45.07 146.55 44.57 145.47 43.95 144.46 43.34 143.46 42.63 142.5 41.85 141.62 41.1 140.78 40.25 139.97 39.3 139.35 38.84 139.06 38.35 138.81 37.83 138.64 37.29 138.47 36.74 138.39 36.18 138.35 34.95 138.26 33.7 138.3 32.47 138.44 26.17 139.19 19.71 141.73 15.09 146.21Z" fill="#885F48"/><path d="M7.07 164.86C10.11 164.28 13.22 164.91 16.25 165.2 19.29 165.49 22.37 165.49 25.38 164.91 28.07 164.39 30.67 163.41 33.04 162.03 35.4 160.66 37.53 158.91 39.31 156.84 41.09 154.77 42.52 152.39 43.5 149.84 43.62 149.52 43.73 149.18 43.83 148.85 43.87 148.71 43.6 148.59 43.55 148.73 42.56 151.29 41.27 153.71 39.54 155.85 37.84 157.95 35.8 159.78 33.52 161.23 31.22 162.69 28.68 163.77 26.03 164.39 23.09 165.08 20.06 165.18 17.06 164.96 14.1 164.75 11.09 164.14 8.12 164.58 7.76 164.63 7.39 164.7 7.03 164.79 6.97 164.8 7.03 164.87 7.07 164.86Z" fill="#6A4A37"/><path d="M43.73 146.89C43.45 147.21 43.23 147.57 43 147.92 42.77 148.27 42.53 148.62 42.28 148.96 41.79 149.64 41.28 150.29 40.74 150.94 39.66 152.23 38.51 153.45 37.3 154.62 34.95 156.9 32.37 158.95 29.5 160.53 27.91 161.41 26.21 162.18 24.45 162.66 24.36 162.68 24.45 162.79 24.52 162.77 26.11 162.35 27.65 161.8 29.13 161.07 30.64 160.33 32.08 159.45 33.45 158.48 34.78 157.53 36.03 156.48 37.22 155.36 38.45 154.2 39.64 152.99 40.74 151.7 41.36 150.97 41.96 150.21 42.52 149.43 42.79 149.05 43.05 148.67 43.3 148.28 43.56 147.88 43.83 147.46 43.99 147.01 44.03 146.9 43.81 146.79 43.73 146.89Z" fill="#6A4A37"/><path d="M5.03 164.39C4.8 164.63 4.57 164.87 4.36 165.12 4.31 165.18 4.44 165.25 4.49 165.21 5.51 164.27 6.57 163.38 7.7 162.58 8.83 161.78 10 161.05 11.22 160.39 13.64 159.07 16.17 157.98 18.72 156.96 21.43 155.88 24.18 154.89 26.92 153.89 29.66 152.89 32.4 151.85 35.06 150.63 36.35 150.04 37.66 149.41 38.84 148.59 39.9 147.85 40.83 146.96 41.61 145.94 41.8 145.69 41.98 145.43 42.15 145.16 42.22 145.04 41.96 144.92 41.89 145.02 41.04 146.02 40.2 147.02 39.17 147.84 38.07 148.71 36.81 149.36 35.56 149.96 32.91 151.23 30.15 152.29 27.39 153.3 24.66 154.3 21.92 155.27 19.21 156.34 16.65 157.35 14.1 158.41 11.66 159.7 9.25 160.96 6.94 162.46 5.03 164.39Z" fill="#6A4A37"/><path d="M43.24 144.53C42.84 145.24 42.47 145.94 41.98 146.6 41.5 147.24 40.96 147.84 40.39 148.41 39.23 149.55 37.95 150.56 36.64 151.52 33.55 153.8 30.15 155.63 26.6 157.08 24.6 157.9 22.53 158.61 20.44 159.17 20.33 159.2 20.44 159.33 20.52 159.31 22.43 158.84 24.31 158.3 26.15 157.62 27.98 156.94 29.77 156.15 31.51 155.24 33.23 154.34 34.9 153.32 36.48 152.19 37.82 151.23 39.14 150.23 40.34 149.1 40.93 148.55 41.5 147.96 42.01 147.32 41.95 147.43 41.89 147.54 41.83 147.64 41.31 148.52 40.64 149.33 39.95 150.09 38.53 151.66 36.92 153.05 35.19 154.27 34.21 154.96 33.19 155.6 32.14 156.19 32.06 156.24 32.18 156.34 32.25 156.3 34.15 155.31 35.99 154.2 37.65 152.84 39.29 151.49 40.84 149.95 42.01 148.17 42.62 147.25 43.04 146.22 43.49 145.22 43.51 145.17 43.48 145.11 43.42 145.08 43.47 144.95 43.52 144.81 43.56 144.68 43.63 144.5 43.33 144.38 43.24 144.53Z" fill="#6A4A37"/><path d="M12.22 154.15C11.19 155.07 10.13 156.01 9.28 157.1 8.42 158.21 7.78 159.46 6.88 160.55 6.83 160.61 6.95 160.68 7 160.63 7.84 159.7 8.52 158.65 9.27 157.65 10 156.67 10.9 155.84 11.81 155.02 13.74 153.29 15.75 151.64 17.91 150.19 20.01 148.78 22.23 147.53 24.53 146.48 26.84 145.43 29.25 144.63 31.71 144.02 33.07 143.68 34.45 143.43 35.84 143.28 37.21 143.14 38.59 143.07 39.94 142.78 40.15 142.74 39.93 142.51 39.79 142.53 38.52 142.69 37.24 142.77 35.97 142.89 34.71 143 33.47 143.19 32.24 143.46 29.8 144 27.38 144.78 25.08 145.77 20.37 147.83 16.07 150.73 12.22 154.15Z" fill="#6A4A37"/><path d="M15.49 155.08C17.29 154.41 19.14 153.87 20.97 153.28 22.79 152.69 24.61 152.11 26.42 151.5 30.04 150.28 33.64 148.94 37.03 147.19 37.99 146.7 38.92 146.17 39.84 145.6 40.29 145.32 40.73 145.04 41.16 144.74 41.6 144.44 42.05 144.14 42.42 143.75 42.53 143.64 42.29 143.51 42.2 143.57 41.78 143.8 41.39 144.08 41 144.35 40.61 144.62 40.21 144.87 39.81 145.13 39.01 145.63 38.19 146.11 37.36 146.56 35.69 147.46 33.97 148.25 32.21 148.97 28.67 150.42 25.02 151.58 21.39 152.8 20.39 153.14 19.39 153.47 18.41 153.83 17.41 154.2 16.42 154.6 15.42 154.97 15.31 154.99 15.41 155.11 15.49 155.08Z" fill="#6A4A37"/><path d="M26.56 140.62C28.24 140.22 29.96 139.96 31.69 139.82 33.34 139.68 34.96 139.8 36.59 140.03 37.07 140.1 37.56 140.19 38.03 140.32 37.97 140.32 37.91 140.31 37.86 140.31 37.21 140.3 36.55 140.23 35.9 140.22 34.43 140.2 32.95 140.37 31.5 140.61 30.02 140.85 28.57 141.21 27.14 141.65 25.71 142.09 24.3 142.58 22.94 143.22 22.18 143.57 21.45 143.98 20.74 144.43 20.03 144.88 19.39 145.42 18.75 145.96 18.68 146.02 18.83 146.1 18.89 146.05 20.03 145.12 21.36 144.38 22.69 143.74 24.01 143.11 25.39 142.61 26.78 142.17 29.52 141.31 32.37 140.69 35.25 140.59 36.01 140.56 36.75 140.63 37.5 140.65 38.13 140.67 38.83 140.6 39.42 140.86 39.58 140.93 39.75 140.74 39.56 140.64 39.43 140.57 39.3 140.52 39.17 140.47 39.16 140.44 39.14 140.42 39.1 140.4 38.46 139.99 37.71 139.83 36.97 139.71 36.19 139.59 35.4 139.49 34.61 139.43 32.86 139.29 31.1 139.46 29.38 139.77 28.41 139.95 27.45 140.19 26.49 140.46 26.38 140.52 26.48 140.63 26.56 140.62Z" fill="#6A4A37"/><path d="M15.09 146.21C14.07 147.2 13.14 148.28 12.33 149.47 9.23 153.98 7.18 159.12 4.2 163.7 3.69 164.49 3.14 165.26 2.57 166.01 2.4 166.24 1.02 167.8 0.9 168.33 1.54 167.69 2.24 167.1 2.95 166.55 3.88 165.83 4.82 165.12 5.76 164.42 8.05 162.71 10.46 161.18 13.02 159.91 15.58 158.64 18.24 157.57 20.9 156.53 22.07 156.07 23.23 155.6 24.4 155.14 25.7 154.63 27 154.15 28.33 153.72 29.72 153.26 31.14 152.85 32.58 152.6 33.16 152.5 33.74 152.42 34.33 152.43 34.76 152.44 35.21 152.48 35.6 152.68 36.7 153.26 36.05 154.64 35.5 155.38 34.97 156.08 34.3 156.66 33.62 157.2 33 157.69 32.34 158.14 31.67 158.57 30.67 159.21 29.64 159.77 28.57 160.27 27.74 160.66 26.9 161.02 26.06 161.39 26.69 161.23 27.32 161.06 27.94 160.86 29.98 160.21 31.94 159.35 33.78 158.25 34.74 157.68 35.67 157.06 36.55 156.37 36.99 156.03 37.42 155.67 37.84 155.29 38.23 154.94 38.61 154.57 39.05 154.29 39.16 154.22 39.3 154.3 39.31 154.43 39.37 155.32 38.93 156.19 38.45 156.91 37.41 158.49 35.96 159.86 34.44 160.97 32.75 162.2 30.87 163.12 29 164.05 29.5 163.9 29.99 163.73 30.47 163.54 34.03 162.15 37.31 159.82 39.74 156.86 39.87 156.7 40.08 156.89 40.01 157.05 39.43 158.44 38.49 159.65 37.43 160.71 36.49 161.65 35.45 162.48 34.38 163.26 33.91 163.6 33.44 163.92 32.96 164.23 34.99 163.18 36.87 161.85 38.47 160.23 38.75 159.95 39.02 159.66 39.28 159.35 40.87 157.67 42.2 155.72 43.39 153.75 43.76 153.14 44.15 152.55 44.44 151.9 44.59 151.57 44.72 151.24 44.85 150.9 44.93 150.91 45.01 150.89 45.05 150.82 45.29 150.41 45.47 150 45.46 149.51 45.45 148.93 45.38 148.32 45.28 147.74 45.08 146.57 44.58 145.49 43.96 144.48 43.35 143.48 42.64 142.52 41.86 141.64 41.11 140.8 40.26 139.99 39.31 139.37 38.85 139.08 38.36 138.83 37.84 138.66 37.3 138.49 36.75 138.41 36.19 138.37 34.96 138.28 33.71 138.32 32.48 138.46 26.17 139.19 19.71 141.73 15.09 146.21Z" fill="#885F48" opacity="0.49"/><path d="M15.09 146.21C14.07 147.2 13.14 148.28 12.33 149.47 9.23 153.98 7.18 159.12 4.2 163.7 3.69 164.49 3.14 165.26 2.57 166.01 2.4 166.24 1.02 167.8 0.9 168.33 1.54 167.69 2.24 167.1 2.95 166.55 2.98 166.53 3.01 166.51 3.04 166.48 3.57 165.94 4.08 165.38 4.56 164.8 6.58 162.37 8.26 159.69 10.2 157.21 11.13 156.02 12.12 154.87 13.24 153.86 14.54 152.69 15.99 151.68 17.5 150.81 20.5 149.1 23.78 148.03 27.12 147.2 28.65 146.82 30.19 146.5 31.75 146.31 33.21 146.14 34.69 146.08 36.15 146.29 36.29 146.31 36.33 146.53 36.2 146.6 34.67 147.46 32.93 147.75 31.31 148.39 29.79 149 28.27 149.61 26.78 150.29 25.33 150.95 23.9 151.67 22.48 152.39 20.01 153.64 17.57 155.01 15.44 156.78 18.3 155.38 21.01 153.69 23.91 152.39 25.29 151.77 26.72 151.23 28.14 150.71 29.58 150.18 31.04 149.71 32.52 149.31 33.74 148.99 34.98 148.77 36.2 148.48 37.03 148.28 37.88 148.08 38.74 148.09 39.45 148.09 40.27 148.27 40.63 148.95 41.03 149.71 40.83 150.73 40.5 151.47 40.38 151.74 40.24 152 40.08 152.25 40.63 151.72 41.19 151.21 41.81 150.76 41.9 150.69 42.03 150.75 42.06 150.85 42.31 151.64 42.4 152.46 42.36 153.29 42.31 154.34 42.06 155.37 41.67 156.35 42.27 155.5 42.83 154.63 43.37 153.75 43.74 153.14 44.13 152.55 44.42 151.9 44.57 151.57 44.7 151.24 44.83 150.9 44.91 150.91 44.99 150.89 45.03 150.82 45.27 150.41 45.45 150 45.44 149.51 45.43 148.93 45.36 148.32 45.26 147.74 45.06 146.57 44.56 145.49 43.94 144.48 43.33 143.48 42.62 142.52 41.84 141.64 41.09 140.8 40.24 139.99 39.29 139.37 38.83 139.08 38.34 138.83 37.82 138.66 37.28 138.49 36.73 138.41 36.17 138.37 34.94 138.28 33.69 138.32 32.46 138.46 26.17 139.19 19.71 141.73 15.09 146.21ZM25.38 143.19C26.08 143.04 26.8 142.95 27.51 142.86 28.14 142.78 28.77 142.7 29.41 142.66 30.62 142.58 31.96 142.59 33.06 143.18 33.16 143.24 33.19 143.41 33.07 143.47 31.92 144.05 30.69 144.39 29.44 144.7 28.34 144.97 27.23 145.22 26.15 145.58 25.05 145.96 23.97 146.42 22.89 146.87 22.87 146.91 22.84 146.94 22.79 146.96 22.53 147.05 22.27 147.15 22.01 147.25 21.13 147.63 20.25 148.01 19.38 148.4 17.3 149.43 15.33 150.66 13.4 151.93 13.26 152.02 13.07 151.86 13.16 151.71 14.09 150.14 15.35 148.8 16.75 147.64 19.27 145.58 22.19 143.88 25.38 143.19Z" fill="#885F48" opacity="0.49"/><path d="M13.08 160.28C12.27 160.58 11.45 160.87 10.65 161.21 10.56 161.25 10.47 161.29 10.38 161.33 9.68 161.69 8.98 162.05 8.28 162.41 7.69 162.71 7.09 163.03 6.56 163.44 6.34 163.61 6.13 163.8 5.96 164.03 5.86 164.16 5.63 164.48 5.72 164.66 5.8 164.81 6.08 164.81 6.21 164.82 6.3 164.82 6.39 164.82 6.48 164.82 6.6 164.81 6.72 164.81 6.84 164.8 6.91 164.79 6.99 164.79 7.06 164.78 7.78 164.72 8.5 164.74 9.22 164.78 10.87 164.86 12.52 165.05 14.15 165.37 15.36 165.56 16.57 165.78 17.78 165.93 19.84 166.17 21.94 166.22 24 166.12 25.49 166.05 26.98 165.86 28.43 165.52 29.16 165.35 29.89 165.15 30.56 164.82 31.03 164.59 31.59 164.24 31.67 163.67 31.68 163.6 31.61 163.52 31.56 163.49 30.69 162.94 29.46 163.23 28.53 163.44 28.02 163.56 27.51 163.69 26.99 163.81 26.41 163.94 25.81 163.99 25.22 164.04 23.75 164.17 22.23 164.22 20.78 163.92 20.51 163.86 20.24 163.81 19.99 163.69 19.88 163.64 19.78 163.57 19.73 163.49 19.62 163.32 19.69 163.07 19.79 162.86 20.08 162.24 20.57 161.73 20.86 161.1 21.17 160.42 21.04 159.68 20.36 159.28 19.9 159.02 19.36 158.96 18.84 158.96 18.28 158.96 17.72 159.03 17.17 159.12 16.61 159.21 16.04 159.31 15.49 159.46 14.66 159.68 13.87 159.99 13.08 160.28Z" fill="#885F48"/><path d="M9.41 157.5C8.69 158.07 8 158.81 7.82 159.74 7.71 160.29 7.95 160.78 8.55 160.84 9.05 160.89 9.57 160.69 10.02 160.46 10.32 160.39 10.62 160.24 10.83 160.14 11.57 159.79 12.26 159.35 12.93 158.89 13.49 158.5 14.09 158.09 14.52 157.55 14.73 157.28 14.93 156.94 14.86 156.59 14.81 156.29 14.57 156.08 14.31 155.95 13.59 155.6 12.68 155.77 11.97 156.05 11.06 156.4 10.18 156.89 9.41 157.5Z" fill="#885F48"/></g><path d="M23.81 148.77C25.84 147.61 28.08 146.78 30.3 146.04 32.4 145.34 34.52 144.64 36.67 144.11 37.26 143.96 37.85 143.83 38.45 143.72 38.76 143.66 39.07 143.62 39.38 143.57 39.68 143.52 39.99 143.5 40.29 143.42 40.42 143.38 40.33 143.23 40.23 143.22 39.7 143.16 39.14 143.25 38.62 143.32 38.07 143.4 37.52 143.5 36.97 143.63 35.88 143.87 34.8 144.19 33.74 144.52 31.54 145.2 29.33 145.89 27.21 146.79 25.99 147.31 24.82 147.93 23.71 148.66 23.61 148.71 23.74 148.81 23.81 148.77Z" fill="#6A4A37"/><path d="M27.57 148.7C29.56 148.45 31.5 148 33.4 147.37 35.31 146.74 37.2 145.96 38.98 145.02 39.46 144.77 39.93 144.5 40.4 144.24 40.83 144.01 41.29 143.75 41.57 143.33 41.68 143.16 41.32 143.04 41.2 143.13 40.84 143.42 40.46 143.66 40.05 143.88 39.65 144.1 39.25 144.33 38.85 144.55 37.96 145.03 37.05 145.47 36.12 145.87 34.34 146.64 32.52 147.31 30.66 147.84 29.62 148.14 28.56 148.39 27.49 148.56 27.39 148.59 27.49 148.71 27.57 148.7Z" fill="#6A4A37"/><g><path d="M269.02 0.57C267.15-4.02 226.24 20.65 226.24 20.65 200.46 35.68 73.49 116.35 73.49 116.35L76.56 121.21 77.53 122.74 80.6 127.6C80.6 127.6 82.22 126.58 85.13 124.74 85.05 124.68 84.97 124.61 84.88 124.55 83.52 123.55 81.91 122.54 81.24 120.91 80.64 119.44 81.03 117.7 82.2 116.63 83.34 115.58 84.89 115.1 86.34 114.63 88.29 114 90.18 113.23 92.01 112.29 96.11 110.2 99.85 107.49 103.67 104.93 107.52 102.35 111.49 99.75 116.02 98.56 120.12 97.49 124.37 97.32 128.6 97.29 167.43 72.71 217.98 40.57 232.55 30.6 232.53 30.61 272.36 4.22 269.02 0.57Z" fill="#CE3727"/><path d="M82.19 116.63C83.33 115.58 84.88 115.1 86.33 114.63 88.16 114.04 89.93 113.32 91.65 112.46L106.23 103.24C106.48 103.08 106.73 102.92 106.98 102.77L268.9 0.37C265.84-3.23 226.24 20.65 226.24 20.65 200.46 35.68 73.49 116.35 73.49 116.35L76.92 121.77 80.97 119.21C81.03 118.24 81.45 117.3 82.19 116.63Z" fill="#982616"/><path d="M38.47 143.64 40.9 147.48 44.2 152.71 81.26 127.18 78.9 123.45 76.48 119.61 74.12 115.88 35.17 138.42Z" fill="#A3A5A8"/><path d="M40.83 135.15 39.83 135.73 48.63 149.65 49.58 149Z" fill="#6B6C6F"/><path d="M73.85 127.96C72.34 129.01 49.82 144.57 46.82 146.63 45.37 147.63 43.9 148.58 42.43 149.54 42.37 149.58 42.32 149.61 42.26 149.65L43.14 151.04C45.31 149.58 47.39 147.98 49.58 146.55 51.07 145.58 52.57 144.63 54.05 143.63 55.53 142.63 70 132.47 71.46 131.46 72.93 130.44 74.41 129.45 75.85 128.4 77.26 127.37 78.67 126.34 80.1 125.35L79.42 124.28C77.57 125.5 75.68 126.68 73.85 127.96Z" fill="#A3A5A8"/><path d="M36.59 140.67C38.84 139.34 41.03 137.89 43.28 136.56 46.44 134.68 49.67 132.9 52.86 131.07 56.03 129.25 59.16 127.38 62.28 125.48 63.84 124.53 65.41 123.58 66.98 122.64 68.52 121.71 70.08 120.82 71.61 119.87 72.81 119.13 74 118.35 75.21 117.61L74.12 115.89 35.17 138.43 36.59 140.67Z" fill="#A3A5A8"/><path d="M118.54 98.03C120.5 97.68 122.48 97.5 124.48 97.4 168.1 69.54 230.35 29.9 236.32 26.65 245.61 21.61 261.72 7.48 261.72 7.48L118.54 98.03Z" fill="#CE3727"/><path d="M81.51 121.45 80.32 122.2 81.87 124.64C81.87 124.64 82.46 124.27 83.55 123.57 82.75 122.97 82 122.3 81.51 121.45Z" fill="#CE3727"/></g></g><g><path d="M12.62 148.1C11.25 149.89 9.84 151.62 8.77 153.61 7.74 155.54 6.75 157.5 5.81 159.48 4.95 161.3 4.06 163.19 2.61 164.63 2.06 165.17 1.42 165.6 0.88 166.15 0.36 166.68-0.19 167.48 0.06 168.26 0.37 169.22 1.54 169.27 2.35 169.03 3.4 168.72 4.42 168.23 5.43 167.81 6.44 167.39 7.47 167.01 8.54 166.8 9.51 166.61 10.5 166.56 11.48 166.57 13.41 166.58 15.32 166.86 17.23 167.14 19.18 167.43 21.14 167.72 23.11 167.8 25.09 167.87 27.08 167.66 29.02 167.22 30.97 166.77 32.93 166.09 34.63 165.02 35.52 164.46 36.35 163.77 37.12 163.06 37.86 162.38 38.6 161.68 39.15 160.83 39.43 160.4 39.68 159.92 39.98 159.49 40 159.48 40.02 159.47 40.04 159.46 40.34 159.26 40.56 159.02 40.68 158.69 40.71 158.67 40.73 158.65 40.75 158.63 40.88 158.53 40.83 158.4 40.71 158.3 40.65 158.08 40.46 157.9 40.24 157.82 38.59 157.22 37.2 158.32 35.94 159.25 35.37 159.67 34.81 160.06 34.12 160.26 33.22 160.51 32.58 160.12 32.24 159.27 31.88 158.39 31.64 157.53 31.02 156.79 30.56 156.25 29.94 155.84 29.29 155.55 27.95 154.96 26.47 154.88 25.05 154.56 23.73 154.26 22.34 153.52 21.86 152.11 21.32 150.53 22.13 149.11 22.77 147.72 23.43 146.29 23.9 144.44 22.43 143.34 20.81 142.13 18.81 142.65 17.23 143.61 15.38 144.72 13.92 146.39 12.62 148.1Z" fill="#00B1D2"/><path d="M12.62 148.1C11.25 149.89 9.84 151.62 8.77 153.61 7.74 155.54 6.75 157.5 5.81 159.48 4.95 161.3 4.06 163.19 2.61 164.63 2.06 165.17 1.42 165.6 0.88 166.15 0.44 166.6-0.02 167.25 0.01 167.92 1.13 167.28 2.16 166.47 3.06 165.53 4.07 164.47 4.93 163.28 5.74 162.06 6.59 160.78 7.39 159.47 8.26 158.21 8.66 157.62 9.06 157.01 9.53 156.47 9.79 156.17 10.06 155.89 10.35 155.61 11.06 154.91 11.83 154.25 12.64 153.66 13.43 153.09 14.3 152.56 15.24 152.28 16 152.05 16.87 151.99 17.56 152.44 18.4 152.98 18.75 153.97 18.71 154.93 18.7 155.34 18.65 155.78 18.91 156.13 19.09 156.37 19.37 156.54 19.64 156.67 19.98 156.84 20.33 156.96 20.71 157.02 22.08 157.24 23.45 156.72 24.79 156.51 25.99 156.32 27.44 156.35 28.46 157.11 29.25 157.69 29.55 158.64 29.79 159.55 30 160.33 30.17 161.3 30.9 161.77 31.64 162.25 32.53 162.1 33.31 161.82 34.15 161.52 34.95 161.14 35.79 160.83 36.15 160.7 36.51 160.58 36.89 160.53 37.14 160.49 37.44 160.49 37.66 160.63 37.91 160.8 37.96 161.09 37.93 161.37 37.88 161.84 37.68 162.31 37.47 162.72 38.09 162.14 38.68 161.53 39.15 160.82 39.43 160.39 39.68 159.91 39.98 159.48 40 159.47 40.02 159.46 40.04 159.45 40.34 159.25 40.56 159.01 40.68 158.68 40.71 158.66 40.73 158.64 40.75 158.62 40.88 158.52 40.83 158.39 40.71 158.29 40.65 158.07 40.46 157.89 40.24 157.81 38.59 157.21 37.2 158.31 35.94 159.24 35.37 159.66 34.81 160.05 34.12 160.25 33.22 160.5 32.58 160.11 32.24 159.26 31.88 158.38 31.64 157.52 31.02 156.78 30.56 156.24 29.94 155.83 29.29 155.54 27.95 154.95 26.47 154.87 25.05 154.55 23.73 154.25 22.34 153.51 21.86 152.1 21.32 150.52 22.13 149.1 22.77 147.71 23.43 146.28 23.9 144.43 22.43 143.33 20.82 142.12 18.81 142.64 17.23 143.6 15.38 144.72 13.92 146.39 12.62 148.1Z" fill="#00B1D2"/><path d="M24.56 151.14C24.58 151.88 25.12 152.46 25.8 152.7 26.37 152.9 27 152.89 27.59 152.75 28.12 152.7 28.65 152.55 29.09 152.28 29.4 152.09 29.71 151.81 29.82 151.45 29.96 151.02 29.84 150.56 29.59 150.19 29.13 149.5 28.32 149.21 27.54 149.14 26.89 149.08 26.14 149.19 25.57 149.54 25.03 149.88 24.54 150.46 24.56 151.14Z" fill="#00B1D2"/><g><path d="M35.33 156.09C35.36 156.11 35.39 156.12 35.42 156.14 35.44 156.15 35.45 156.15 35.47 156.16 35.42 156.14 35.37 156.11 35.33 156.09Z" fill="#00B1D2"/><path d="M33.43 156.53C33.36 156.68 33.35 156.84 33.38 156.99 33.41 157.14 33.51 157.28 33.61 157.39 33.74 157.52 33.9 157.62 34.06 157.69 34.32 157.8 34.62 157.85 34.9 157.83 35.15 157.81 35.44 157.77 35.66 157.63 35.8 157.54 35.9 157.45 35.97 157.3 36.05 157.15 36.05 156.98 36.02 156.81 35.99 156.65 35.88 156.49 35.77 156.39 35.68 156.3 35.58 156.24 35.48 156.18 35.46 156.17 35.44 156.15 35.41 156.14 35.26 156.06 35.11 156 34.94 155.97 34.8 155.95 34.65 155.93 34.51 155.94 34.24 155.96 33.95 156.02 33.73 156.18 33.6 156.28 33.5 156.37 33.43 156.53Z" fill="#00B1D2"/></g></g><path d="M15.62 163.16C15.67 164.42 16.75 165.45 17.77 166.04 19.17 166.85 20.87 167.19 22.47 166.86 22.78 166.8 23.07 166.7 23.36 166.58 24.53 166.38 25.65 165.76 26.27 164.72 27.54 162.62 24.66 161.03 23.06 160.47 22.11 160.14 21.06 159.86 20.05 159.92 19.02 159.98 17.95 160.3 17.08 160.87 16.31 161.38 15.58 162.17 15.62 163.16Z" fill="#00B1D2"/><path d="M11.24 164.14C11.23 164.24 11.24 164.36 11.26 164.46 11.32 164.74 11.61 164.89 11.84 165.01 12.07 165.13 12.33 165.19 12.58 165.2 12.78 165.21 13 165.16 13.17 165.07 13.22 165.04 13.27 165.01 13.31 164.97 13.37 164.95 13.43 164.94 13.49 164.91 13.65 164.84 13.77 164.72 13.84 164.57 13.93 164.4 13.92 164.2 13.89 164.02 13.8 163.53 13.35 163.19 12.9 163.07 12.18 162.88 11.33 163.36 11.24 164.14Z" fill="#00B1D2"/><g><path d="M54.43 126.85C52.37 127.89 50.28 128.86 48.26 129.98 46.16 131.15 44.11 132.41 42.02 133.6 40.95 134.21 39.88 134.81 38.8 135.4 38.15 135.75 37.52 136.11 36.99 136.63 36.71 136.91 36.4 137.26 36.28 137.66 36.97 138.58 37.85 139.3 38.96 139.52 39.87 139.7 40.78 139.55 41.67 139.39 42.74 139.19 42.72 139.66 43.42 140.35 43.84 140.76 44.3 141.12 44.81 141.42 45.78 141.98 46.91 142.3 48.04 142.2 48.88 142.12 49.63 141.77 50.35 141.37 51.04 140.99 51.75 140.57 52.54 140.47 53.34 140.37 54.15 140.66 54.92 140.87 56.67 141.34 58.33 141.69 59.94 140.6 60.98 139.89 61.73 138.79 62.13 137.6 62.46 136.62 62.57 135.57 62.36 134.56 61.89 132.28 59.92 131.04 58.88 129.1 58.36 128.13 58.51 127.06 58.54 126.01 58.55 125.54 58.53 125.06 58.48 124.59 57.18 125.42 55.81 126.15 54.43 126.85Z" fill="#40B9EA"/><path d="M57.48 125.2C57.25 126.16 56.71 127.03 56.46 127.99 56.31 128.57 56.3 129.16 56.51 129.73 56.72 130.32 57.11 130.82 57.55 131.25 58.45 132.13 59.56 132.75 60.48 133.6 61.28 134.35 61.85 135.3 61.99 136.4 62.07 137.04 62.01 137.68 61.85 138.3 61.96 138.07 62.05 137.83 62.13 137.59 62.46 136.61 62.57 135.56 62.36 134.55 61.89 132.27 59.92 131.03 58.88 129.09 58.36 128.12 58.51 127.05 58.54 126 58.55 125.53 58.53 125.05 58.48 124.58 58.15 124.8 57.82 125 57.48 125.2Z" fill="#40B9EA" opacity="0.51"/><g><path d="M38.25 148.69C38.06 149.48 38.27 150.28 38.68 150.96 39.22 151.85 40.17 152.63 41.21 152.81 42.15 152.97 43.16 152.61 43.77 151.88 45.04 150.39 44.42 147.47 42.57 146.73 41.72 146.39 40.74 146.44 39.91 146.81 39.13 147.16 38.46 147.84 38.25 148.69Z" fill="#40B9EA"/><path d="M40.05 151.12C40 151.31 40.05 151.5 40.15 151.66 40.28 151.87 40.5 152.06 40.75 152.1 40.97 152.14 41.21 152.05 41.36 151.88 41.66 151.52 41.51 150.83 41.07 150.65 40.87 150.57 40.64 150.58 40.44 150.67 40.25 150.76 40.1 150.92 40.05 151.12Z" fill="#40B9EA"/><path d="M38.25 148.69C38.06 149.48 38.27 150.28 38.68 150.96 39.22 151.85 40.17 152.63 41.21 152.81 42.15 152.97 43.16 152.61 43.77 151.88 45.04 150.39 44.42 147.47 42.57 146.73 41.72 146.39 40.74 146.44 39.91 146.81 39.13 147.16 38.46 147.84 38.25 148.69ZM40.16 148.72C40.68 148.49 41.28 148.46 41.8 148.67 42.94 149.12 43.33 150.93 42.54 151.85 42.16 152.3 41.54 152.52 40.96 152.42 40.32 152.31 39.73 151.83 39.4 151.28 39.14 150.86 39.01 150.37 39.13 149.88 39.26 149.35 39.67 148.93 40.16 148.72Z" fill="#40B9EA" opacity="0.51"/></g><path d="M58.25 139.85C58.16 139.7 57.96 139.66 57.8 139.62 57.48 139.56 57.16 139.67 56.85 139.68 56.57 139.69 56.28 139.61 56.03 139.49 55.51 139.25 55.07 138.87 54.57 138.58 54.32 138.43 54.05 138.32 53.76 138.26 53.42 138.2 53.07 138.22 52.74 138.31 52.08 138.49 51.51 138.91 50.97 139.32 50.43 139.73 49.87 140.1 49.23 140.34 48.93 140.45 48.63 140.53 48.32 140.58 48.02 140.63 47.71 140.64 47.41 140.67 47.14 140.69 46.82 140.82 46.96 141.14 47.09 141.42 47.42 141.44 47.68 141.45 48.76 141.5 49.78 141.14 50.72 140.63 51.77 140.06 52.44 139.5 53.71 139.89 54.18 140.03 54.62 140.22 55.09 140.38 56.04 140.69 57.79 141.18 58.33 139.97 58.28 139.92 58.27 139.88 58.25 139.85Z" fill="#40B9EA"/><path d="M45.46 140.35C45.67 140.04 45.25 139.53 45.08 139.3 44.78 138.92 44.43 138.59 44.07 138.28 43.33 137.65 42.48 137.13 41.52 136.91 41.01 136.8 40.49 136.77 39.98 136.86 39.71 136.9 39.45 136.98 39.19 137.07 38.94 137.17 38.68 137.28 38.46 137.45 38.31 137.57 38.19 137.72 38.16 137.91 38.13 138.08 38.19 138.25 38.28 138.39 38.36 138.52 38.47 138.64 38.6 138.74 39.13 139.01 39.83 138.92 40.38 138.74 40.95 138.56 41.48 138.28 42.08 138.43 42.65 138.57 43.15 138.93 43.6 139.28 43.88 139.5 45.15 140.74 45.44 140.36 45.45 140.37 45.46 140.36 45.46 140.35Z" fill="#40B9EA"/><path d="M59.02 137.29C58.79 137.52 58.65 137.83 58.6 138.15 58.55 138.45 58.62 138.79 58.84 139.01 59.14 139.3 59.62 139.36 60 139.2 60.37 139.04 60.66 138.64 60.75 138.26 60.76 138.23 60.76 138.21 60.77 138.18 60.82 138.04 60.84 137.89 60.81 137.74 60.75 137.36 60.36 137.11 60.01 137.02 59.64 136.93 59.27 137.04 59.02 137.29Z" fill="#40B9EA"/></g></g></g></svg>