<svg width="603.18" height="821.89" viewBox="0 0 603.18 821.89" xmlns="http://www.w3.org/2000/svg" xmlns:xlink="http://www.w3.org/1999/xlink" xml:space="preserve" overflow="hidden"><defs></defs><g><path d="M569.01 821.89 222.58 821.89C205.97 810.75 119.7 751.91 84 708.04 76.44 698.74 48.77 618.62 27.5 553.57 14.22 512.94 3.44 478.16 1.62 470.19 0.99 467.41 0.57 461.91 0.31 454.45L0.31 454.37C-0.59 427.77 0.64 376.46 1.91 335.71L1.92 335.52 1.94 334.99C2 333.2 2.05 331.44 2.11 329.69L2.11 329.63C2.12 329.46 2.12 329.28 2.12 329.1 2.35 322.02 2.58 315.35 2.79 309.28 3.32 294.11 3.78 282.71 3.97 278.24L4.04 276.16C4.04 276.16 4.05 276.16 4.06 276.15 4.61 275.84 21.27 266.95 43.55 282.99 48.93 286.87 53.9 296.24 58.43 308.46 61.33 316.26 64.05 325.22 66.58 334.66 76.31 370.98 83.29 414.4 87.02 426.02 93.03 444.81 163.86 527.43 168.28 532.56 168.35 532.65 168.42 532.73 168.49 532.82L168.49 402.37 115.02 259.3 93.07 200.57 82.04 171.05C82.04 171.05 65.12 143.27 50.93 109.85 44.71 95.22 39.02 79.52 35.5 64.6 34.66 61.05 33.94 57.53 33.37 54.09 33.37 54.08 33.37 54.08 33.37 54.07 31.28 41.46 31.14 29.76 34.04 20.23 39.21 3.27 50.87 0.07 59.82 0.42 60.75 0.45 61.64 0.53 62.51 0.63 63.38 0.74 64.25 0.9 65.09 1.13 66.66 1.54 68.15 2.18 69.54 2.98 69.56 2.98 69.56 2.99 69.56 3 71.86 4.34 73.84 6.18 75.37 8.44 75.37 8.44 82.93 18.31 93.07 31.58 99.74 40.31 107.54 50.52 115.02 60.35 128.35 77.87 140.73 94.22 144.13 99.01 162.53 124.91 212.06 209.29 212.06 209.29L270.04 211.72C279.23 212.1 287.97 215.76 294.69 222.04 315.31 241.29 359.76 282.96 365.21 289.15 365.21 291.18 399.75 307.79 426.44 322.58 445.53 330.65 481.79 359.23 481.79 359.23 489.3 365.86 495.03 372.47 497.93 378.78 510.36 405.84 544.08 641.14 560.2 757.46 565.38 794.86 568.74 819.96 569.01 821.89Z" fill="#FFB27D"/><path d="M212.06 209.28C212.06 209.28 265.77 296.96 272.88 300.91 279.99 304.86 307.64 310.39 310.8 300.91 313.96 291.44 212.06 209.28 212.06 209.28Z" fill="#EFA26F"/><path d="M482.05 359.48C481.96 359.4 481.87 359.32 481.78 359.24 481.78 359.24 445.52 330.66 426.43 322.59 401.93 309.01 370.81 293.9 365.88 289.94 371.57 296.44 411.57 341.71 426.96 345.1 440.48 348.08 471.19 356.48 482.05 359.48Z" fill="#EFA26F"/><path d="M168.49 532.84 168.49 402.36C168.49 402.36 199.49 454.21 201.86 482.65 204.23 511.08 188.98 557.11 168.49 532.84Z" fill="#EFA26F"/><path d="M56.03 54.05C51.5 46.28 43.38 32.19 40.59 24.31 39.8 22.08 39.9 17.62 42.64 12.87 44.28 10.02 46.86 7.06 50.77 4.43 52.61 3.19 54.47 2.09 56.48 1.35 58.83 0.5 61.27 0.04 63.79 -4.44089e-16 66.05-0.03 68.42 1.29 70.03 3.63 70.04 3.64 70.04 3.66 70.05 3.66 75.43 11.5 82.24 22.17 86.86 31.83 90.07 38.5 89.05 46.21 84.38 49.59L82.2 51.18 71.04 59.33C66.41 62.71 59.72 60.4 56.03 54.05Z" fill="#FFD3B6"/><path d="M56.03 54.05C51.5 46.28 43.38 32.19 40.59 24.31 39.8 22.08 39.9 17.62 42.64 12.87 43.37 12.26 44.15 11.68 45 11.11 46.84 9.87 48.7 8.77 50.71 8.03 53.06 7.18 55.5 6.72 58.02 6.68 60.28 6.65 62.65 7.97 64.26 10.31 64.27 10.32 64.27 10.34 64.28 10.34 69.66 18.18 76.47 28.85 81.09 38.51 83.15 42.78 83.47 47.48 82.21 51.18L71.05 59.33C66.41 62.71 59.72 60.4 56.03 54.05Z" fill="#FFC197"/><path d="M394.96 768.32 291.48 821.9 222.59 821.9C205.97 810.75 119.7 751.91 84 708.04 76.44 698.74 48.77 618.62 27.5 553.57L27.5 553.54C30.32 562.18 89.67 688.57 106.57 702.93 123.47 717.29 212.19 800.94 236.69 800.09 260.42 799.28 386.78 770.2 394.61 768.4 394.72 768.38 394.84 768.35 394.96 768.32Z" fill="#EFA26F"/><path d="M603.18 821.89 230.1 821.89C248.81 814.55 320.4 787.2 394.61 768.4 394.73 768.38 394.84 768.35 394.96 768.32 458.69 752.2 524.3 742.42 559.93 757.09L560.19 757.47 603.18 821.89Z" fill="#D2E3FC"/><path d="M2.13 329.1C2.14 329.1 2.15 329.1 2.15 329.09 8.44 326.78 17.27 325.26 21.56 332.44 28.24 343.6 3.41 442.06 0.31 454.45L2.13 329.1Z" fill="#EFA26F"/><path d="M4.05 276.16 1.92 335.71C1.92 335.71 14.44 337.75 21.56 332.43 28.68 327.13 24.91 275.46 4.05 276.16Z" fill="#FFC197"/></g></svg>