<svg width="120" height="84.46" viewBox="0 0 120 84.46" xmlns="http://www.w3.org/2000/svg" xmlns:xlink="http://www.w3.org/1999/xlink" xml:space="preserve" overflow="hidden"><defs></defs><g><path d="M0 20.09 60 84.2 120 20.09Z" fill="#DBDBDB"/><path d="M0 20.09 59 21.79 60 77.96 60 84.2Z" fill="#EFBE4C"/><g><path d="M120 20.09 61 21.79 60 77.96 60 84.2Z" fill="#EFBE4C"/><path d="M87.54 22.87 61 21.79 60 77.96 60 84.2Z" fill="#FFFFFF"/></g><path d="M60 21.79 60 84.2 97.39 20.74Z" fill="#D88A00"/><path d="M103.33 0 60 84.2 61 24.2Z" fill="#EFBE4C"/><path d="M90.16 21.01 95.88 20.78 60 84.2 44.25 24.2 57.12 21.73 60 24.2 86 9.91 100.74 5.04Z" fill="#D88A00" opacity="0.4"/><path d="M102.29 6.78 49.65 24.21 60 84.2Z" fill="#EFBE4C"/><g opacity="0.6"><g><line x1="60" y1="20.78" x2="60" y2="22.28" stroke="#666666" stroke-width="0.5" stroke-linecap="round" stroke-linejoin="round" fill="none"/><line x1="60" y1="24.23" x2="60" y2="81.73" stroke="#666666" stroke-width="0.5" stroke-linecap="round" stroke-linejoin="round" stroke-dasharray="2.9238 1.9492" fill="none"/><line x1="60" y1="82.71" x2="60" y2="84.21" stroke="#666666" stroke-width="0.5" stroke-linecap="round" stroke-linejoin="round" fill="none"/></g></g><g><g><path d="M88.49 15.09C62.88 6.66 38.94 13.25 38.94 13.25" stroke="#233A3F" stroke-linecap="round" stroke-linejoin="round" stroke-miterlimit="10" fill="none"/><path d="M40.59 15.09 37.92 13.33 39.68 10.67" stroke="#233A3F" stroke-linecap="round" stroke-linejoin="round" stroke-miterlimit="10" fill="none"/></g></g></g></svg>