<svg width="154.27" height="80.2" viewBox="0 0 154.27 80.2" xmlns="http://www.w3.org/2000/svg" xmlns:xlink="http://www.w3.org/1999/xlink" xml:space="preserve" overflow="hidden"><defs></defs><g><g><g><path d="M67.81 73.01C60.63 73.01 54.93 72.03 50.52 70.05 45.71 67.89 42.32 64.51 39.83 59.4 38.6 56.87 37.69 54.64 36.89 52.67 34.93 47.87 33.85 45.22 31.09 45.58L31.05 45.17C34.07 44.78 35.26 47.69 37.22 52.5 38.02 54.46 38.93 56.69 40.15 59.2 42.59 64.23 45.93 67.55 50.66 69.67 56.43 72.26 64.45 73.12 75.18 72.3 95.59 70.73 100.83 54.97 102.8 49.04 103.04 48.32 103.22 47.76 103.39 47.36 104.98 43.52 106.45 43.87 106.51 43.88L106.43 44.28C106.42 44.27 105.17 44.04 103.72 47.53 103.56 47.91 103.37 48.47 103.14 49.18 101.15 55.18 95.85 71.13 75.2 72.71 72.58 72.91 70.11 73.01 67.81 73.01Z" fill="#898888"/><g><g><path d="M14.34 53.08C14.34 53.08 14.82 56.24 14.72 58.69 14.62 61.14 14.55 67.22 15.01 69.39L16.89 69.39C16.89 69.39 17.24 61.18 17.24 59.07 17.24 56.96 17.55 53.44 17.55 53.44L14.34 53.08Z" fill="#EFC9A6"/><path d="M14.34 53.08C14.34 53.08 14.82 56.24 14.72 58.69 14.62 61.14 14.55 67.22 15.01 69.39L16.89 69.39C16.89 69.39 17.24 61.18 17.24 59.07 17.24 56.96 17.55 53.44 17.55 53.44L14.34 53.08Z" fill="#EFC9A6" opacity="0.4"/><path d="M17.41 55.3C17.49 54.24 17.55 53.45 17.55 53.45L14.34 53.09C14.34 53.09 14.47 53.92 14.58 55.06 15.47 55.35 16.45 55.41 17.41 55.3Z" fill="#EFC9A6" opacity="0.6"/><path d="M17.08 64.62C17.13 63.23 17.18 61.78 17.21 60.66 16.36 61.34 15.5 62.02 14.64 62.69 14.64 63.89 14.66 65.15 14.71 66.29 15.52 65.75 16.31 65.19 17.08 64.62Z" fill="#EFC9A6" opacity="0.4"/><g><path d="M14.1 70.62C14.1 70.93 14.11 71.14 14.11 71.14 14.11 71.14 17.89 72.07 22.91 70.78 22.91 70.78 22.86 70.53 22.66 70.17 19.32 71.01 15.79 70.8 14.1 70.62Z" fill="#862F30"/><path d="M22.66 70.17C22.23 69.43 21.11 68.24 18.22 67.96 18.22 67.96 17.79 66.71 16.93 67.7 16.93 67.7 16.64 68.32 16.38 68.32 16.12 68.32 14.94 68.32 14.94 68.32 14.94 68.32 14.13 68.35 14.1 69.28 14.09 69.78 14.09 70.27 14.09 70.62 15.79 70.8 19.32 71.01 22.66 70.17Z" fill="#CD454B"/></g><g><path d="M19.66 53.27C19.66 53.27 21.84 57.52 21.11 59.76 20.39 62 14.69 65.57 14.69 65.67 14.69 65.77 14.34 63.46 14.34 63.46 14.34 63.46 18.42 60.6 18.62 58.63 18.83 56.66 16.79 53.9 16.79 53.9L19.66 53.27Z" fill="#EFC9A6"/><path d="M20.26 54.61C19.94 53.81 19.66 53.27 19.66 53.27L16.8 53.89C16.8 53.89 17.21 54.45 17.64 55.24 18.55 55.23 19.43 55 20.26 54.61Z" fill="#EFC9A6" opacity="0.6"/><g><path d="M13.07 66.13C13.72 68.62 14.29 71.49 16.67 70.88 16.72 70.87 16.75 70.86 16.8 70.85 16.88 69.96 16.01 67.7 15.95 66.62 15.87 65.32 15.55 65.25 15.38 65.16 15.22 65.07 14.71 63.54 15.02 62.94 15.02 62.94 14.79 62.73 14.1 62.94 13.77 63.04 13.31 63.16 12.93 63.32 12.93 63.33 12.43 63.65 13.07 66.13Z" fill="#EB4D54"/><path d="M16.67 70.88C14.29 71.49 13.72 68.62 13.07 66.13 12.42 63.65 12.92 63.33 12.92 63.33 12.52 63.5 12.21 63.72 12.24 64.01 12.29 64.58 12.92 70.35 15.01 71.21 15.01 71.21 15.96 71.49 16.61 71.21 16.72 71.16 16.77 71.03 16.79 70.85 16.75 70.86 16.72 70.87 16.67 70.88Z" fill="#B23F41"/></g></g></g><path d="M10.85 44C10.85 44 9.32 53.1 7.87 64.87 7.87 64.87 15.48 68.82 22.16 64.87L20.14 44.26 10.85 44Z" fill="#82569E"/><g><path d="M10.84 49.43C10.83 49.44 10.83 49.49 10.82 49.58 10.84 49.48 10.85 49.42 10.84 49.43Z" fill="#82569E"/><path d="M20.17 49.62C20.16 49.6 20.16 49.58 20.16 49.59 20.16 49.58 20.17 49.6 20.17 49.62Z" fill="#82569E"/><path d="M9.93 53.93C10.11 53.96 10.3 53.99 10.5 54.01 10.59 52.6 10.76 50.2 10.82 49.58 10.71 50.22 10.17 52.79 9.93 53.93Z" fill="#82569E"/><path d="M13.93 49.43C13.92 49.44 13.92 49.5 13.92 49.61 13.93 49.49 13.93 49.42 13.93 49.43Z" fill="#82569E"/><path d="M17.67 49.72C17.67 49.72 17.67 49.78 17.67 49.86 17.68 49.76 17.68 49.71 17.67 49.72Z" fill="#82569E"/><path d="M13.92 49.61C13.86 50.3 13.57 52.82 13.4 54.28 13.6 54.29 13.81 54.3 14.02 54.31 13.98 52.78 13.91 50.3 13.92 49.61Z" fill="#82569E"/><path d="M20.17 49.62C20.22 49.92 20.43 52.26 20.57 53.91 20.81 53.87 21.05 53.82 21.29 53.76 20.98 52.56 20.26 49.94 20.17 49.62Z" fill="#82569E"/><path d="M17.46 54.29C17.71 54.27 17.96 54.26 18.21 54.23 18.01 52.7 17.72 50.44 17.67 49.86 17.66 50.45 17.54 52.76 17.46 54.29Z" fill="#82569E"/></g><g><g><g><path d="M9.37 7.32C9.37 7.32 4.67 6.46 2.08 10.81-0.51 15.16 0.04 21.51 0.04 21.58 0.04 21.65 1.49 21.89 1.49 21.89 1.49 21.89 1.87 18.09 1.87 17.99 1.87 17.89 2.11 21.89 2.11 21.89L4.21 21.89 4 18.02 4.67 21.89 7.97 21.44C7.97 21.44 5.07 14.84 7.9 12.29L9.37 7.32Z" fill="#742F16"/><path d="M4.12 18.59C4.07 17.81 4.03 17.04 3.98 16.26 3.61 17.28 3.49 18.38 3.39 19.47 3.32 20.26 3.24 21.1 3.39 21.89L4.23 21.89 4.02 18.02 4.12 18.59Z" fill="#742F16" opacity="0.5"/><path d="M1.78 18.23C1.82 17.5 1.94 16.77 2 16.05 1.69 17 1.44 17.98 1.3 18.96 1.17 19.9 1.1 20.85 0.94 21.79 1.24 21.85 1.51 21.89 1.51 21.89 1.51 21.89 1.66 20.37 1.77 19.23 1.75 18.89 1.76 18.56 1.78 18.23Z" fill="#742F16" opacity="0.5"/><path d="M7.92 12.29 9.37 7.32C9.37 7.32 6.91 6.87 4.57 8.27 4.83 8.22 5.11 8.18 5.39 8.2 6.54 8.25 5.88 9.6 5.7 10.18 4.52 13.92 5.2 17.9 5.92 21.72L7.98 21.44C7.99 21.45 5.09 14.85 7.92 12.29Z" fill="#742F16" opacity="0.5"/></g><path d="M10.03 6.62C10.03 6.62 7.88 6.13 7.26 7.37 5.69 10.47 6.35 14.01 7.39 14.02 8.9 14.04 10.41 8.55 10.03 6.62Z" fill="#6E8D3B"/></g><path d="M35.83 9.64C35.21 5.81 32.77 4.77 32.77 4.77 31.84 2.08 26.66 0.73 26.66 0.73 26.32 0.62 25.97 0.53 25.63 0.44 25.55 0.42 25.48 0.4 25.4 0.39 25.05 0.31 24.69 0.24 24.34 0.18L24.33 0.18C23.96 0.12 23.6 0.08 23.23 0.05 23.18 0.04 23.13 0.04 23.07 0.04 22.69 0.02 22.31 0 21.93 0L21.93 0 21.93 0C15.13-0.01 8.2 4.29 7.2 13 5.96 23.77 16.14 26.03 16.14 26.03 18.86 24.41 19.28 20.71 19.28 20.71 17.73 20.54 17.07 16.92 18.97 16.19 20.87 15.47 20.84 18.02 20.84 18.02 22.36 16.02 22.95 10.85 22.95 10.85L23.29 13.32 24.74 13.15 25.74 9.32 25.74 12.36 27.95 12.08C28.05 11.18 28.75 8.39 28.75 8.39L28.95 11.29 31 10.98 31 10.98 33 10.67C33 9.09 32.65 8.39 32.65 8.39 33.64 9.26 33.55 10.15 33.55 10.15L35.83 9.64Z" fill="#742F16"/><g><path d="M28.74 8.4C28.74 8.4 28.05 11.2 27.94 12.09L25.73 12.37 25.73 9.33 24.73 13.16 23.28 13.33 22.94 10.86C22.94 10.86 22.35 16.02 20.83 18.03 20.83 18.03 20.86 15.47 18.96 16.2 17.06 16.93 17.72 20.55 19.27 20.72 19.27 20.72 18.86 24.41 16.13 26.04L15.74 27.97 18.02 28.45 18.54 26.45C18.54 26.45 20.37 27.28 25.99 26.14 31.62 25 32 19.41 32 19.41 32 19.41 32.66 19.48 33.04 18.75 33.42 18.03 32.07 17.27 32.07 17.27 30.96 16.68 32.04 15.06 32.52 12.2 32.62 11.61 32.66 11.12 32.66 10.71L28.94 11.3 28.74 8.4Z" fill="#F3D9BF"/></g><g opacity="0.8"><path d="M18.01 26.16C17.61 25.96 17.21 25.75 16.85 25.51 16.63 25.7 16.4 25.87 16.14 26.03L15.75 27.96 18.03 28.44 18.55 26.44C18.55 26.44 18.69 26.5 19.01 26.57 18.67 26.46 18.34 26.33 18.01 26.16Z" fill="#EFC9A6"/></g><g><path d="M30.2 16.26C30.12 16.88 29.83 17.35 29.55 17.31 29.28 17.27 29.13 16.74 29.21 16.12 29.3 15.5 29.58 15.03 29.86 15.07 30.14 15.11 30.29 15.64 30.2 16.26Z" fill="#431F0E"/><path d="M29.7 15.71C29.66 15.89 29.56 16.03 29.48 16.01 29.4 15.99 29.37 15.83 29.41 15.64 29.45 15.46 29.55 15.33 29.63 15.34 29.71 15.36 29.74 15.53 29.7 15.71Z" fill="#FFFFFF"/></g><path d="M30.41 11.91C29.63 11.72 29.03 12.56 28.87 13.21 28.87 13.22 28.87 13.22 28.88 13.22 28.89 13.22 28.89 13.22 28.89 13.22 28.9 13.22 28.91 13.22 28.91 13.21L28.91 13.2C28.91 13.19 28.9 13.19 28.9 13.2 29.16 12.73 29.77 12.25 30.32 12.5 30.87 12.74 30.88 13.58 30.95 14.08 30.96 14.17 31.06 14.09 31.07 14.04 31.21 13.27 31.41 12.16 30.41 11.91Z" fill="#5D270D"/><path d="M29.72 22.66C29.72 22.66 29.73 22.65 29.72 22.65 29.71 22.65 29.71 22.65 29.7 22.65 29.69 22.64 29.67 22.65 29.65 22.66 28.62 22.85 26.76 21.81 26.49 20.79 26.48 20.76 26.44 20.77 26.43 20.79 25.8 21.8 25.51 23.61 26.95 24.05 27.92 24.35 29.47 23.73 29.71 22.67 29.71 22.66 29.71 22.66 29.7 22.66 29.71 22.66 29.71 22.66 29.72 22.66Z" fill="#FFFFFF"/><path d="M19.9 17.74C19.46 17.31 18.38 17.54 18.57 18.29 18.57 18.3 18.59 18.29 18.59 18.28 18.53 17.65 19.16 17.63 19.51 17.85 19.68 17.96 19.78 18.13 19.87 18.31 19.89 18.34 19.89 18.38 19.9 18.41 19.89 18.54 19.87 18.67 19.82 18.8 19.76 18.97 19.22 19.21 19.12 18.96 19.11 18.95 19.1 18.96 19.1 18.97 19.14 19.26 19.69 19.14 19.85 19.04 19.89 19.01 19.93 18.97 19.98 18.92 19.97 19.17 19.91 19.43 19.8 19.62 19.77 19.67 19.82 19.7 19.86 19.67 20.46 19.26 20.38 18.2 19.9 17.74Z" fill="#E1B78C"/><g><path d="M35.83 9.64C35.21 5.81 32.77 4.77 32.77 4.77 31.84 2.08 26.66 0.73 26.66 0.73 25.15 0.24 23.54 0 21.93 0 30.06 0.08 32.02 7.26 32.02 7.26 31.2 5.49 29.39 4.65 29.39 4.65 31.17 7.45 31.14 9.89 31 10.99L33 10.68C33 9.1 32.65 8.4 32.65 8.4 33.64 9.27 33.55 10.16 33.55 10.16L35.83 9.64Z" fill="#742F16" opacity="0.5"/><path d="M20.79 16.05C20.79 16.05 19.83 15.05 18.56 15.68 17.29 16.31 17.45 19.08 17.45 19.08 17.45 19.08 14.94 23.15 12.97 23.15 11.03 23.15 8.41 20.19 8.32 20.09 10.79 24.84 16.14 26.03 16.14 26.03 18.86 24.41 19.28 20.71 19.28 20.71 17.73 20.54 17.07 16.92 18.97 16.19 20.87 15.47 20.84 18.02 20.84 18.02 22.36 16.02 22.95 10.85 22.95 10.85L22.95 10.86C22.81 8.9 22.25 7.63 22.25 7.63 22.65 11.24 20.79 16.05 20.79 16.05Z" fill="#742F16" opacity="0.5"/><path d="M24.54 4.43C25.59 8.28 24.54 11.98 24.11 13.23L24.73 13.15 25.7 9.42C25.99 6.09 24.54 4.43 24.54 4.43Z" fill="#742F16" opacity="0.5"/><path d="M26.74 4.43C28.35 6.85 27.43 10.6 26.91 12.21L27.94 12.08C28.03 11.31 28.55 9.13 28.7 8.54L28.7 8.54C28.81 5.39 26.74 4.43 26.74 4.43Z" fill="#742F16" opacity="0.5"/></g></g><path d="M16.62 27.3 15.33 27.3C15.33 27.3 10.46 33.47 10.15 44.42 10.15 44.42 15.79 45.75 20.97 44.42 20.97 44.42 20.3 38.49 19.78 34.14 19.26 29.78 19.26 27.71 16.62 27.3Z" fill="#F59AA4"/><g opacity="0.5"><path d="M19.78 34.13C19.26 29.78 19.26 27.71 16.62 27.3L15.33 27.3C15.33 27.3 15.19 27.47 14.97 27.81 15.33 27.69 15.81 27.63 16.42 27.81 16.42 27.81 13.8 28.02 14.21 31.09 14.63 34.16 16.11 36.92 16.11 36.92L17.56 36.16C17.56 36.16 17.96 42.96 17.88 43.75 17.83 44.21 17.64 44.66 17.48 44.96 18.62 44.89 19.81 44.72 20.97 44.42 20.97 44.41 20.3 38.48 19.78 34.13Z" fill="#F59AA4"/></g><path d="M32.1 45.57C32.1 46.14 31.63 46.6 31.06 46.6L25.13 46.6C24.56 46.6 24.09 46.14 24.09 45.57L24.09 45.57C24.09 45 24.55 44.53 25.13 44.53L31.06 44.53C31.64 44.54 32.1 45 32.1 45.57L32.1 45.57Z" fill="#292C60"/><path d="M29.86 45.27C29.79 44.82 30.07 44.68 30.38 44.54L25.32 44.54C25.22 45.25 25.27 45.97 25.56 46.61L30.32 46.61C30.1 46.18 29.93 45.71 29.86 45.27Z" fill="#006BB0" opacity="0.6"/><path d="M17.55 34.77C17.55 34.77 21.1 41.88 25.49 44.26 25.49 44.26 25.49 46.57 26.49 47.4 26.49 47.4 26.79 47.64 27.31 47.51 27.83 47.38 29.32 47.47 30.22 46.62 30.22 46.62 29.72 46.63 29.28 45.78 28.84 44.93 28.92 44.8 29.38 44.64 29.59 44.57 30.35 44.62 30.34 44.47 30.31 44.2 28.92 42.78 27.18 43.38 27.18 43.38 22.16 39.11 19.62 34.14L17.55 34.77Z" fill="#F3D9BF"/><path d="M20.38 35.47C20.11 35.03 19.86 34.58 19.63 34.13L17.56 34.77C17.56 34.77 17.89 35.42 18.46 36.39 19.1 36.11 19.75 35.81 20.38 35.47Z" fill="#EFC9A6" opacity="0.6"/><path d="M15.75 28.45C15.75 28.45 14.44 28.81 14.85 31.16 15.26 33.51 16.51 35.73 16.51 35.73L20.96 33.87C20.96 33.87 20.19 31.48 19.19 29.6 18.54 28.36 17.39 27.89 15.75 28.45Z" fill="#F4B0B1"/><path d="M16.32 28.56C16.96 28.79 17.33 29.55 17.59 30.11 18.26 31.55 18.76 33.07 19.43 34.51L20.96 33.87C20.96 33.87 20.19 31.48 19.19 29.6 18.53 28.36 17.38 27.89 15.75 28.45 15.75 28.45 15.72 28.46 15.67 28.48 15.87 28.46 16.08 28.48 16.32 28.56Z" fill="#F4B0B1" opacity="0.3"/><path d="M29.5 18.72C29.47 19.07 28.76 19.31 27.91 19.24 27.06 19.17 26.39 18.83 26.42 18.48 26.45 18.13 27.16 17.89 28.01 17.96 28.86 18.02 29.53 18.37 29.5 18.72Z" fill="#F5AAC4" opacity="0.4"/></g><g><path d="M113.11 44.04C113.11 44.61 112.7 45.07 112.2 45.07L106.99 45.07C106.49 45.07 106.08 44.61 106.08 44.04L106.08 44.04C106.08 43.47 106.49 43 106.99 43L112.2 43C112.7 43 113.11 43.46 113.11 44.04L113.11 44.04Z" fill="#292C60"/><path d="M112.13 43 107.77 43C107.87 43.17 107.93 43.37 107.93 43.57 107.94 43.86 107.7 44.23 107.59 44.49 107.51 44.69 107.42 44.88 107.33 45.07L112.09 45.07C112.25 44.39 112.3 43.72 112.13 43Z" fill="#292C60" opacity="0.5"/></g></g></g></g><g><path d="M127.44 9.05C130.36 7.69 133.17 6.71 136.62 7.34 138.83 7.74 141.29 8.58 142.55 10.16 144.07 12.06 144.12 15.15 146.88 16.32 148.85 17.15 150.58 16.04 152.49 15.87 154.85 15.66 154.36 17.57 153.8 18.7 153.05 20.22 151.38 22.01 149.67 22.91 148.39 23.58 147.29 22.89 146.28 22.25 144.84 21.34 144.09 22.19 142.81 22.79 141.54 23.39 140.67 23.27 139.63 22.45 138.05 21.19 137.83 19.94 137.33 18.25 137.11 17.52 136.92 16.63 136.09 16.21 135.37 15.84 134.49 16.01 133.7 15.87 131.81 15.52 129.39 13.97 128.6 12.56 128.03 11.53 127.47 9.07 128.88 8.36" fill="#3F1023"/><path d="M127.44 9.05C127.86 8.86 128.27 8.67 128.69 8.5 128.76 8.45 128.82 8.41 128.9 8.37L127.44 9.05Z" fill="#60243E"/><path d="M138.17 15.97C138.38 15.46 138.6 14.52 139.26 14.2 140.34 13.69 142.11 13.89 142.69 12.8 143.05 12.11 143.04 11.38 142.9 10.66 142.79 10.49 142.68 10.32 142.55 10.16 142.38 9.94 142.18 9.74 141.96 9.55 141.77 11.33 140.9 13.06 138.55 13.17 137.39 13.23 137.4 15.72 136.86 16.4 136.79 16.49 136.71 16.56 136.61 16.62 136.95 17 137.11 17.5 137.25 17.97 137.62 17.34 137.89 16.67 138.17 15.97Z" fill="#60243E"/><g><path d="M131.66 7.86C131.86 7.89 132.05 7.92 132.22 7.97 132.22 7.97 130.86 7.35 131.66 7.86Z" fill="#A05030"/></g><g><g><g><g><g><path d="M121.92 26C120.07 25.86 114.76 29.66 111.43 34.75 112.15 36.04 114.99 37.51 116.89 37.69 119.86 34.32 123.14 29.87 123.14 29.87 123.14 29.87 125.45 26.26 121.92 26Z" fill="#F0F0F0"/></g></g></g></g><path d="M123.77 24.18C123.77 24.18 123.19 24.16 121.17 25.15L119.51 27.25C119.51 27.25 122.51 27.24 123.75 25.85 123.76 25.85 124.87 24.56 123.77 24.18Z" fill="#ECECEC"/><g><g><path d="M122.51 64.23C122.51 64.23 122.87 65.06 138.02 70.65 140.1 71.42 139.99 69.13 139.99 69.13 139.99 69.13 128.33 61.3 126.22 60.43 124.13 59.54 122.51 64.23 122.51 64.23Z" fill="#DCA090"/></g></g><g><g><path d="M131.62 63.64C131.06 64.97 130.08 66.23 129.12 67.26 131.29 68.13 134.18 69.24 138.02 70.65 140.1 71.42 139.99 69.13 139.99 69.13 139.99 69.13 135.53 66.13 131.62 63.64Z" fill="#F3F3F3"/></g></g><g><g><path d="M132.31 64.08C132.08 63.93 131.85 63.78 131.62 63.64 131.06 64.97 130.08 66.23 129.12 67.26 129.37 67.36 129.64 67.47 129.92 67.58 130.95 66.47 131.9 65.35 132.31 64.08Z" fill="#191A3E"/><path d="M131.37 68.07C132.23 67.23 133 66.33 133.51 65.33 133.57 65.2 133.62 65.08 133.67 64.95 133.45 64.81 133.24 64.67 133.02 64.53 132.55 65.73 131.66 66.82 130.68 67.87 130.89 67.95 131.11 68.04 131.33 68.12 131.35 68.11 131.35 68.09 131.37 68.07Z" fill="#191A3E"/></g></g><g><g><path d="M119.63 62.79C119.63 62.79 119.22 63.57 121.95 76.73 122.32 78.53 124.63 77.17 124.63 77.17 124.63 77.17 125.93 65.21 125.66 63.33 125.39 61.45 119.63 62.79 119.63 62.79Z" fill="#F1AE9D"/></g></g><g><g><path d="M124.81 67.17C123.17 67.34 121.61 67.16 120.06 66.83 120.4 68.9 120.97 72.02 121.95 76.73 122.32 78.53 124.63 77.18 124.63 77.18 124.63 77.18 125.28 71.21 125.57 67.04 125.32 67.1 125.07 67.14 124.81 67.17Z" fill="#FFFFFF"/></g></g><g><g><path d="M125.51 67.74C125.53 67.5 125.54 67.26 125.56 67.03 125.32 67.09 125.07 67.14 124.8 67.16 123.16 67.33 121.6 67.15 120.05 66.82 120.09 67.08 120.14 67.37 120.19 67.67 122.01 68.05 123.76 68.08 125.51 67.74Z" fill="#191A3E"/><path d="M125.39 69.27C125.41 68.99 125.44 68.71 125.46 68.44 123.77 68.74 122.06 68.71 120.32 68.39 120.36 68.64 120.41 68.89 120.46 69.16 122 69.41 123.79 69.5 125.39 69.27Z" fill="#191A3E"/></g></g><g><path d="M119.77 64.62C119.77 64.62 118.07 51.72 118.3 47.72L128.53 47.93C128.53 47.93 128.75 50.12 128.28 53.38 127.69 57.48 126.12 63.07 125.65 65.41 125.65 65.41 122.21 67.4 119.77 64.62Z" fill="#F1AE9D"/></g><g><path d="" fill="#F1AE9D"/></g><g><path d="M126.36 19.45C124.84 18.66 122.03 19.94 122.03 19.94L121.97 26.42C121.97 26.42 127.36 27.29 127.31 26.35 127.18 24.22 127.41 19.99 126.36 19.45Z" fill="#F1AE9D"/></g><g><path d="M124.24 24.43C123.3 24.82 122.52 25.46 121.99 26.18 121.99 26.19 121.98 26.19 121.98 26.2L122.04 19.93C122.04 19.93 124.85 18.65 126.37 19.44 126.89 19.71 127.24 22.08 127.26 24.31 126.27 24.23 125.19 24.04 124.24 24.43Z" fill="#E4A190"/></g><g><path d="M119.14 8.31C119.74 7.43 118.91 7.36 120.23 7.06 121.58 6.75 123.02 6.63 124.45 6.67 125.88 6.63 126.36 7.87 127.7 8.18 128.41 8.34 129.03 8.54 129.57 8.89 130.22 9.32 130.13 9.73 130.35 10.3 130.49 10.66 130.71 10.99 130.88 11.34 131.18 11.97 131.5 12.64 131.61 13.29 131.84 14.63 131.73 15.96 131.46 17.29 131.19 18.64 131.08 19.05 129.86 20.18 128.24 21.68 127.35 23.49 123.41 23.48 121.78 23.47 119.18 23.59 118.63 22.27 117.9 20.52 117.82 19.72 117.47 19.27 117.15 18.87 116.03 18.77 115.8 18.38 115.73 18.25 116.83 17.02 116.85 16.33 116.87 15.84 116.6 14.06 116.57 13.6 116.38 10.5 117.98 10.02 119.14 8.31Z" fill="#F1AE9D"/></g><path d="M133.53 9.57C133.38 9.29 133.22 9.02 133.03 8.76 131.26 6.23 126.55 5.28 123.21 5.48 121.94 5.56 120.65 5.71 119.49 6.13 118.2 6.61 117.06 7.28 116.33 8.28 115.66 9.21 115.48 10.2 116.3 11.09 116.83 11.66 117.75 12.14 118.57 12.44 118.9 12.56 119.26 12.67 119.61 12.76 120.25 12.91 120.87 13.08 121.48 13.29 122.14 13.51 123 13.6 123.53 14.01 124.08 14.42 124.57 14.92 125.12 15.34 125.16 15.65 125.49 16.58 125.83 16.89 126.69 17.68 128.07 15.57 128.89 15.48 129.26 15.44 129.44 15.93 129.47 16.15 129.56 16.8 128.99 17.43 128.63 17.97 127.85 19.15 127.32 21.24 127.96 22.51 129.91 22.63 132.15 20.22 132.95 19 134.73 16.31 135.08 12.49 133.53 9.57Z" fill="#3F1023"/><path d="M116.08 10.16C121.48 12.23 128.7 11.72 132.78 8.49 132.25 7.95 131.61 7.48 130.9 7.08 130.02 8.32 128.75 9.3 126.82 9.82 122.95 10.87 119.44 10.53 115.95 8.98 115.79 9.37 115.73 9.76 115.8 10.14 115.89 10.12 115.98 10.12 116.08 10.16Z" fill="#60243E"/><g><g><path d="M130.78 16.67C130.5 17.91 128.3 19.58 127.72 18.53 127.36 17.89 127.37 17.14 127.65 15.9 127.93 14.66 127.33 13.85 128.74 14.05 130.15 14.25 131.06 15.43 130.78 16.67Z" fill="#F1AE9D"/></g><g><path d="M128.53 15.19C128.51 15.19 128.48 15.19 128.46 15.19 128.45 15.2 128.45 15.21 128.44 15.22 127.97 15.65 128.26 16.54 128.25 17.05 128.25 17.27 128.23 17.48 128.2 17.7 128.88 17.7 129.5 17.26 129.64 16.64 129.79 15.95 129.3 15.31 128.53 15.19Z" fill="#ED7379"/></g></g><g><path d="M132.16 32.35C132.16 30.16 129.47 26.16 127.31 25.46 126.07 26.9 123.96 26.67 122.22 26.06 122.07 26.01 122.02 25.92 122.01 25.83 119.76 26.82 117.99 28.64 117.56 30.78 117.25 32.33 116.94 35.05 116.63 39.13 116.6 39.52 116.6 48.33 116.94 48.41 116.94 48.41 119.68 49.37 124.29 49.4 128.9 49.43 132.03 49.09 132.03 49.09 132.37 44.77 132.16 34.98 132.16 32.35Z" fill="#FFFFFF"/></g><g><g><path d="M118.85 18.47C119.07 19.05 120.1 19.33 121.14 19.08 122.19 18.83 122.86 18.15 122.64 17.57 122.42 16.99 121.39 16.71 120.35 16.96 119.3 17.21 118.63 17.89 118.85 18.47Z" fill="#EE9491"/></g></g><g><path d="M118.31 15.75C118.31 16.22 118.62 16.6 119 16.6 119.38 16.6 119.69 16.22 119.69 15.75 119.69 15.28 119.38 14.9 119 14.9 118.62 14.9 118.31 15.28 118.31 15.75Z" fill="#3A0C00"/></g><g><path d="M120.2 19.63C120.33 21.17 118.44 21.86 118.44 21.86L117.83 20.05 120.2 19.63Z" fill="#FFFFFF"/></g><g><g><path d="M124.78 79.07 124.75 79.84C124.75 79.84 118.33 80.65 115.94 79.86 115.94 79.86 114.98 79.63 115.51 78.82 115.93 78.2 124.78 79.07 124.78 79.07Z" fill="#461603"/></g><g><path d="M124.78 77.04 124.78 79.32C124.78 79.32 119.04 80.18 115.82 79.36 115.82 79.36 114.17 78.79 117.69 78 121.21 77.21 121.95 76.77 121.95 76.77 121.95 76.77 123.52 77.93 124.78 77.04Z" fill="#6D3E1C"/></g><g><path d="M123.71 79.46C124.37 79.39 124.79 79.32 124.79 79.32L124.79 78.34C124.23 78.64 123.85 79 123.71 79.46Z" fill="#5D3516"/></g><g><path d="M118.43 78.74C119.28 78.69 120.06 78.51 120.8 78.18 121.48 77.87 122.22 77.57 122.84 77.21 122.35 77.03 121.95 76.78 121.95 76.78 121.95 76.78 121.2 77.22 117.69 78.01 117.38 78.08 117.11 78.15 116.87 78.21 116.71 78.69 118.06 78.76 118.43 78.74Z" fill="#8C5128"/></g><g><path d="M120.47 77.25C120.47 77.25 121.21 77.29 121.77 77.79" stroke="#B96236" stroke-width="1.1819" stroke-linecap="round" stroke-linejoin="round" stroke-miterlimit="10" fill="none"/></g><g><path d="M119.62 77.51C119.62 77.51 120.36 77.55 120.92 78.05" stroke="#B96236" stroke-width="1.1819" stroke-linecap="round" stroke-linejoin="round" stroke-miterlimit="10" fill="none"/></g><g><path d="M118.63 77.81C118.63 77.81 119.37 77.85 119.93 78.35" stroke="#B96236" stroke-width="1.1819" stroke-linecap="round" stroke-linejoin="round" stroke-miterlimit="10" fill="none"/></g><path d="M120.98 77.29C120.98 77.04 121 76.77 120.91 76.53 120.85 76.39 120.76 76.18 120.58 76.1 120.27 75.97 120.2 76.2 120.28 76.4 120.38 76.65 120.63 76.92 120.85 77.12 120.94 77.2 120.99 77.26 121.03 77.37" stroke="#B96236" stroke-width="1.1819" stroke-linecap="round" stroke-linejoin="round" stroke-miterlimit="10" fill="none"/><path d="M122.83 77.23C122.83 77.23 123.11 76.59 122.57 76.41 121.47 76.04 121.8 76.81 121.8 76.81 121.8 76.81 121.71 77.34 122.83 77.23Z" fill="#8C5128"/><path d="M120.97 77.32C121.21 77.01 121.53 76.49 122.08 76.52 122.27 76.53 122.31 76.68 122.22 76.81 122.07 77.02 121.75 77.16 121.47 77.23 121.36 77.26 121.08 77.26 121 77.31" stroke="#B96236" stroke-width="1.1819" stroke-linecap="round" stroke-linejoin="round" stroke-miterlimit="10" fill="none"/></g><g><g><path d="M141.34 69.27 142.21 69.59C142.21 69.59 140.6 74.62 138.75 76.06 138.75 76.06 138.1 76.67 137.38 75.96 136.84 75.43 141.34 69.27 141.34 69.27Z" fill="#461603"/></g><g><path d="M139.01 68.47 141.63 69.37C141.63 69.37 140.34 73.92 138.14 75.96 138.14 75.96 136.83 76.94 137.31 74.05 137.79 71.16 137.59 70.44 137.59 70.44 137.59 70.44 139.53 69.75 139.01 68.47Z" fill="#6D3E1C"/></g><g><path d="M141.36 70.21C141.54 69.69 141.63 69.37 141.63 69.37L140.5 68.98C140.64 69.51 140.9 69.93 141.36 70.21Z" fill="#5D3516"/></g><g><path d="M138.45 73.81C138.73 73.17 138.84 72.52 138.74 71.84 138.65 71.22 138.6 70.56 138.44 69.96 138.04 70.25 137.59 70.44 137.59 70.44 137.59 70.44 137.79 71.16 137.31 74.05 137.27 74.31 137.24 74.53 137.22 74.73 137.71 75.05 138.33 74.09 138.45 73.81Z" fill="#8C5128"/></g><g><path d="M137.54 71.72C137.54 71.72 137.87 71.19 138.68 70.98" stroke="#B96236" stroke-width="1.1819" stroke-linecap="round" stroke-linejoin="round" stroke-miterlimit="10" fill="none"/></g><g><path d="M137.51 72.44C137.51 72.44 137.84 71.91 138.65 71.7" stroke="#B96236" stroke-width="1.1819" stroke-linecap="round" stroke-linejoin="round" stroke-miterlimit="10" fill="none"/></g><g><path d="M137.46 73.29C137.46 73.29 137.8 72.76 138.6 72.55" stroke="#B96236" stroke-width="1.1819" stroke-linecap="round" stroke-linejoin="round" stroke-miterlimit="10" fill="none"/></g><path d="M137.8 71.36C137.52 71.26 137.21 71.14 136.9 71.11 136.71 71.09 136.43 71.08 136.28 71.19 136.01 71.37 136.24 71.51 136.5 71.53 136.83 71.56 137.23 71.48 137.55 71.4 137.68 71.37 137.77 71.36 137.9 71.37" stroke="#B96236" stroke-width="1.1819" stroke-linecap="round" stroke-linejoin="round" stroke-miterlimit="10" fill="none"/><path d="M138.46 69.98C138.46 69.98 137.83 69.52 137.41 69.84 136.55 70.5 137.56 70.56 137.56 70.56 137.56 70.56 138.14 70.84 138.46 69.98Z" fill="#8C5128"/><path d="M137.82 71.37C137.56 71.07 137.09 70.64 137.35 70.24 137.44 70.1 137.63 70.14 137.74 70.25 137.93 70.44 137.96 70.74 137.92 70.97 137.91 71.06 137.8 71.26 137.82 71.35" stroke="#B96236" stroke-width="1.1819" stroke-linecap="round" stroke-linejoin="round" stroke-miterlimit="10" fill="none"/></g></g><g><g><path d="M116.74 44.76C112.89 51.47 109.92 68.08 109.51 70.21 109.5 69.5 110.06 75.51 124.38 76.52 137.59 75.64 140.09 67.12 140.07 67.71 140.01 67.75 134.8 53.22 131.72 44.85 126.76 46.41 121.69 46.38 116.74 44.76Z" fill="#278DCA"/><path d="M116.74 44.76C112.89 51.47 109.92 68.08 109.51 70.21 109.5 69.5 110.06 75.51 124.38 76.52 137.59 75.64 140.09 67.12 140.07 67.71 140.01 67.75 134.8 53.22 131.72 44.85 126.76 46.41 121.69 46.38 116.74 44.76Z" fill="#278DCA"/></g><g><path d="M139.79 66.99C139.55 66.35 139.17 65.31 138.69 63.99 129.54 67.72 119.9 67.7 110.76 63.93 110.51 65.12 110.29 66.19 110.1 67.12 119.81 71.33 130.1 71.29 139.79 66.99Z" fill="none"/><path d="M132.84 47.91C132.45 46.83 132.07 45.8 131.72 44.85 126.76 46.41 121.69 46.38 116.74 44.76 116.28 45.56 115.83 46.52 115.4 47.56 121.16 49.12 127.06 49.24 132.84 47.91Z" fill="none"/><path d="M135.21 54.42C134.83 53.37 134.45 52.32 134.07 51.28 127.49 53.04 120.74 52.91 114.18 50.89 113.84 51.91 113.51 52.97 113.2 54.04 120.44 56.48 127.94 56.61 135.21 54.42Z" fill="none"/><path d="M109.76 70.65C110.49 72.01 113.36 75.74 124.38 76.52 130.73 76.1 134.6 73.91 136.91 71.82 127.96 74.97 118.61 74.58 109.76 70.65Z" fill="none"/><path d="M137.52 60.78C137.17 59.81 136.79 58.78 136.41 57.71 128.46 60.39 120.21 60.28 112.29 57.39 112.01 58.47 111.75 59.53 111.51 60.57 120.04 63.88 128.98 63.95 137.52 60.78Z" fill="none"/><path d="M140.06 67.68C140.06 67.69 140.07 67.7 140.07 67.7 140.07 67.68 140.07 67.68 140.06 67.68Z" fill="#276D91"/><path d="M109.51 70.21C109.51 70.19 109.52 70.17 109.52 70.16 109.51 70.15 109.51 70.17 109.51 70.21Z" fill="#276D91"/><path d="M136.91 71.82C139.22 69.73 139.97 67.74 140.06 67.69 140.03 67.63 139.94 67.4 139.79 67 130.1 71.29 119.8 71.34 110.1 67.14 109.81 68.61 109.61 69.69 109.52 70.17 109.54 70.19 109.6 70.37 109.76 70.66 118.61 74.58 127.96 74.97 136.91 71.82Z" fill="#276D91"/><path d="M138.69 64C138.34 63.05 137.95 61.96 137.52 60.78 128.97 63.95 120.04 63.88 111.51 60.57 111.23 61.75 110.98 62.89 110.76 63.94 119.9 67.71 129.54 67.73 138.69 64Z" fill="#276D91"/><path d="M136.41 57.71C136.02 56.64 135.62 55.53 135.22 54.42 127.95 56.61 120.45 56.48 113.21 54.04 112.89 55.15 112.59 56.28 112.3 57.39 120.21 60.28 128.46 60.39 136.41 57.71Z" fill="#276D91"/><path d="M134.07 51.27C133.65 50.12 133.24 48.99 132.84 47.9 127.06 49.23 121.16 49.12 115.4 47.56 114.98 48.58 114.57 49.7 114.18 50.88 120.73 52.9 127.48 53.03 134.07 51.27Z" fill="#276D91"/></g><g><path d="M116.74 44.76C116.59 45.02 116.44 45.3 116.29 45.59 116.04 54.48 114.52 63.2 112.98 73.67 114.11 74.32 115.6 74.95 117.58 75.47 118.52 63.92 119.38 54.73 119.51 45.48 118.59 45.29 117.66 45.06 116.74 44.76Z" fill="none"/><path d="M126.96 45.84C127.08 55.06 127.81 64.28 128.6 75.92 130.41 75.51 131.95 74.95 133.25 74.3 131.79 63.37 130.37 54.41 130.17 45.28 129.1 45.54 128.03 45.72 126.96 45.84Z" fill="none"/><path d="M109.52 70.16C109.55 70.19 109.7 70.67 110.21 71.35 111.49 64.75 112.8 58.73 113.56 52.79 111.37 60.04 109.83 68.54 109.52 70.16Z" fill="none"/><path d="M121.63 45.82C121.56 55.06 121.15 64.32 120.7 76.11 121.82 76.28 123.04 76.42 124.39 76.52 124.76 76.5 125.12 76.46 125.48 76.43 125.17 64.55 124.9 55.24 124.85 45.98 123.77 46 122.7 45.95 121.63 45.82Z" fill="none"/><path d="M139.6 66.48C138.35 63.1 134.85 53.4 132.33 46.5 132.72 54.84 134.45 63.01 136.14 72.47 138.63 70.5 139.65 68.45 139.96 67.85 139.84 67.39 139.72 66.94 139.6 66.48Z" fill="none"/><path d="M109.51 70.21C109.51 70.19 109.52 70.17 109.52 70.16 109.51 70.15 109.51 70.17 109.51 70.21Z" fill="none"/><path d="M140.06 67.68C140.06 67.69 140.07 67.7 140.07 67.7 140.07 67.68 140.07 67.68 140.06 67.68Z" fill="#276D91"/><path d="M140.06 67.68C140.02 67.6 139.86 67.18 139.6 66.47 139.72 66.93 139.84 67.39 139.96 67.85 140.01 67.75 140.05 67.69 140.06 67.68Z" fill="#276D91"/></g></g><path d="M118.2 13.02C118.2 13.02 118.26 13.01 118.42 13.02 118.57 13.02 118.76 13.04 118.99 13.07 119.21 13.12 119.48 13.15 119.74 13.24 119.87 13.28 120.01 13.32 120.15 13.36 120.28 13.41 120.41 13.47 120.55 13.53 120.68 13.59 120.82 13.64 120.94 13.7 121.06 13.77 121.17 13.83 121.29 13.9 121.4 13.96 121.51 14.03 121.61 14.09 121.71 14.16 121.79 14.22 121.87 14.28 122.19 14.52 122.4 14.68 122.4 14.68 122.44 14.71 122.44 14.77 122.4 14.8 122.36 14.83 122.3 14.84 122.25 14.81L122.24 14.8C122.24 14.8 122.02 14.66 121.68 14.45 121.6 14.4 121.51 14.34 121.41 14.28 121.31 14.23 121.2 14.18 121.08 14.13 120.97 14.08 120.85 14.02 120.73 13.97 120.61 13.91 120.48 13.88 120.35 13.84 120.22 13.8 120.09 13.76 119.97 13.71 119.84 13.68 119.71 13.65 119.59 13.63 119.35 13.56 119.11 13.56 118.91 13.53 118.71 13.53 118.54 13.51 118.44 13.53 118.34 13.53 118.26 13.54 118.26 13.54 118.08 13.57 117.91 13.47 117.87 13.33 117.84 13.19 117.96 13.05 118.14 13.02 118.15 13.02 118.16 13.02 118.16 13.02L118.2 13.02Z" fill="#3F1023"/><path d="M129.25 18.68C129.35 19.03 129.09 19.38 128.65 19.46 128.22 19.54 127.78 19.33 127.68 18.98 127.58 18.63 127.84 18.28 128.28 18.2 128.71 18.12 129.15 18.34 129.25 18.68Z" fill="#FFFFFF"/><path d="M118.6 31.17C118.58 30.97 118.56 30.78 118.52 30.58 118.26 30.56 118.01 30.53 117.76 30.5 119.2 29.48 120.56 28.07 121.26 26.63 121.62 26.76 121.73 27.05 122.09 27.19 121.33 28.72 120.14 30.07 118.6 31.17Z" fill="#276D93"/><path d="M120.71 32.35C120.61 32.15 120.5 31.95 120.39 31.75 120.14 31.82 119.88 31.88 119.63 31.94 120.59 30.33 121.12 28.58 121.2 26.8 121.6 26.81 121.99 26.82 122.39 26.83 122.31 28.75 121.74 30.62 120.71 32.35Z" fill="#278DCA"/><ellipse cx="122.09" cy="26.42" rx="1.12" ry="0.9" fill="#278DCA"/><path d="M122.41 25.56C122.51 26.06 122.36 26.57 121.79 26.86 121.62 26.95 121.44 26.99 121.26 27.01 121.47 27.19 121.76 27.31 122.09 27.31 122.71 27.31 123.21 26.91 123.21 26.41 123.21 26.01 122.87 25.67 122.41 25.56Z" fill="#276D93"/><path d="M127.18 23.81C127.18 23.81 123.85 24.84 122.36 25.25L123.33 27.84C123.33 27.84 127.02 27.3 128.26 25.91 128.26 25.91 128.28 24.19 127.18 23.81Z" fill="#ECECEC"/><g><g><g><path d="M123.86 43.27C123.97 42.47 123.5 42.47 122.51 41.48 121.68 40.65 120.82 40.15 120.82 40.15 117.14 41.94 111.98 44.05 108.95 44.28 105.55 44.53 109.25 46.13 109.25 46.13 113.57 45.89 118.46 45.11 123.86 43.27Z" fill="#F1AE9D"/></g></g><g><path d="M110.98 44.14C110.98 44.14 109.71 42.31 106.72 43.47 106.72 43.47 106.8 43.97 108.17 44.1 109.15 44.19 109.97 44.25 110.5 44.22 110.72 44.2 110.88 44.18 110.98 44.14Z" fill="#F1AE9D"/></g><g><path d="M110.37 45.95C110.35 46.12 109.49 46.19 109.33 46.22 108.77 46.3 108.22 46.22 107.66 46.15 107.44 46.12 107.21 46.08 106.99 46.03 106.84 45.99 106.69 45.94 106.54 45.89 106.17 45.77 105.91 45.48 105.63 45.26 105.37 45.05 105.19 44.61 105.39 44.34 105.59 44.07 105.94 43.94 106.31 43.86 107.11 43.69 107.95 43.76 108.76 43.76 109.43 43.76 110.43 44.3 110.48 44.45 110.53 44.58 110.37 45.95 110.37 45.95Z" fill="#F1AE9D"/></g></g><g><g><g><g><path d="M120.95 42.41C121.25 42.75 121.27 42.88 122.54 43.23 123.53 43.51 124.36 43.33 124.74 42.93 128.97 36.95 130.64 29.77 129.19 28.49 126.82 26.38 126.27 29.69 126.27 29.69 126.27 29.69 121.91 37.41 120.32 41.28 120.02 42 121.43 41.69 120.95 42.41 120.95 42.41 120.95 42.41 120.95 42.41Z" fill="#F1AE9D"/></g></g></g><g><g><g><path d="M129.81 28.11C131.06 29.22 130.05 35.25 126.96 40.43 125.23 40.74 122.06 39.8 120.74 38.69 122.34 34.78 124.83 30.01 124.83 30.01 124.83 30.01 127.44 26 129.81 28.11Z" fill="#F5F5F5"/></g></g></g></g></g><g><g><g><path d="M113.24 34.34C114.28 34.71 113.09 34.64 113.91 35.66 114.59 36.52 115.08 37.1 115.08 37.1 111.35 38.02 106.36 39.62 104.81 41.04 103.08 42.63 102.66 39.92 102.66 39.92 104.75 37.86 109.11 35.04 113.24 34.34Z" fill="#F1AE9D"/></g></g><path d="M106.01 40.08C106.01 40.08 107.83 41.81 104.86 42.84 104.86 42.84 104.24 42.52 104.72 41.68 105.06 41.08 105.39 40.59 105.68 40.31 105.8 40.19 105.91 40.12 106.01 40.08Z" fill="#F1AE9D"/><path d="M103.31 39.42C102.63 39.68 102.03 40.05 101.6 40.47 101.04 41.01 100.29 41.8 101 42.57 101.24 42.84 101.55 43.08 101.93 43.28 102.34 43.5 102.88 43.68 103.24 43.54 103.81 43.31 104.09 42.9 104.38 42.53 104.66 42.17 105.17 41.91 105.48 41.55 105.8 41.18 105.56 40.31 105.39 40.2 105.2 40.09 103.31 39.42 103.31 39.42Z" fill="#F1AE9D"/></g></svg>