<svg width="76.2" height="87.11" viewBox="0 0 76.2 87.11" xmlns="http://www.w3.org/2000/svg" xmlns:xlink="http://www.w3.org/1999/xlink" xml:space="preserve" overflow="hidden"><defs></defs><g><g><g><path d="M74.71 49.25 74.72 49.28 65.49 58.51 65.49 44.94 65.63 44.66 65.69 44.68Z" fill="#FFFFFF"/></g><g><path d="M1 49.21 0.97 49.23 0.95 49.21Z" fill="#BDF9F6"/></g><g><path d="M65.49 59.01C65.43 59.01 65.36 59 65.3 58.97 65.11 58.89 64.99 58.71 64.99 58.51L64.99 44.94C64.99 44.86 65.01 44.79 65.04 44.72L65.18 44.44C65.3 44.21 65.57 44.1 65.81 44.2 65.83 44.21 65.89 44.23 65.91 44.24L74.94 48.81C75.03 48.86 75.11 48.93 75.15 49.02L75.16 49.04C75.27 49.23 75.23 49.48 75.08 49.63L65.85 58.86C65.75 58.96 65.62 59.01 65.49 59.01ZM65.99 45.4 65.99 57.3 73.89 49.4 65.99 45.4Z" fill="#292764"/></g><g><g><path d="M75.72 13.8 63.22 26.29 51.83 37.68 51.82 37.67 57.48 32.01 63.06 26.41 75.69 13.78Z" fill="#BDF9F6"/></g><g><path d="M75.69 13.78 63.06 26.41 63.03 26.38 54.79 18.11 50.45 13.75 75.67 13.75Z" fill="#BDF9F6"/></g><g><path d="M74.7 49.23 74.71 49.25 65.69 44.68 65.63 44.66 51.83 37.68 63.22 26.29Z" fill="#BDF9F6"/></g><g><path d="M51.83 37.68 65.63 44.66 65.49 44.94 38.11 72.32 37.93 72.51 37.92 72.51 37.9 72.55 10.3 44.95 10.25 44.84 10.34 44.79 24.38 37.69 24.39 37.68 38.1 51.5Z" fill="#BDF9F6"/></g><g><path d="M65.5 65.79 65.5 86.44 65.49 86.44 65.49 86.45 57.21 82.27 51.79 79.53 51.78 79.53 51.77 79.52 46.93 77.07 38.11 72.61 37.93 72.51 38.11 72.32 65.49 44.94 65.49 58.51 65.49 65.79Z" fill="#BDF9F6"/></g><g><path d="M63.06 26.41 57.48 32.01 51.82 37.67 51.83 37.68 38.1 51.5 38.1 26.38 63.03 26.38Z" fill="#FFFFFF"/></g><g><path d="M54.79 18.11 63.03 26.38 38.1 26.38 37.92 26.38 37.92 1.18 50.45 13.75Z" fill="#FFFFFF"/></g><g><path d="M46.93 77.07 38.11 85.89 38.11 72.61Z" fill="#FFFFFF"/></g><g><path d="M38.11 72.61 38.11 85.89 29.21 76.98 37.92 72.57 37.9 72.55 37.92 72.51 37.93 72.51Z" fill="#FFFFFF"/></g><g><path d="M38.1 26.38 38.1 51.5 24.39 37.68 24.42 37.67 13.13 26.38 37.92 26.38Z" fill="#FFFFFF"/></g><g><path d="M37.92 1.18 37.92 26.38 13.13 26.38 12.97 26.21 21.29 17.86 21.3 17.86 25.38 13.75Z" fill="#FFFFFF"/></g><g><path d="M37.92 72.57 29.21 76.98 23.88 79.67 23.84 79.69 18.42 82.44 10.16 86.61 10.16 65.95 10.15 65.95 10.15 57.92 10.15 45.11 10.3 44.95 37.9 72.55Z" fill="#BDF9F6"/></g><g><path d="M25.38 13.75 21.3 17.86 21.29 17.86 12.97 26.21 0.52 13.76 0.54 13.75Z" fill="#BDF9F6"/></g><g><path d="M24.42 37.67 24.39 37.68 24.38 37.69 13.07 26.38 13.13 26.38Z" fill="#BDF9F6"/></g><g><path d="M24.38 37.69 10.34 44.79 10.25 44.84 1.51 49.25 12.96 26.38 13.07 26.38Z" fill="#BDF9F6"/></g><g><path d="M13.13 26.38 13.07 26.38 12.99 26.3 12.94 26.24 12.97 26.21Z" fill="#BDF9F6"/></g><g><path d="M13.07 26.38 12.96 26.38 12.99 26.3Z" fill="#BDF9F6"/></g><g><path d="M12.99 26.3 12.96 26.38 12.81 26.38 12.94 26.24Z" fill="#BDF9F6"/></g><g><path d="M12.97 26.21 12.94 26.24 0.5 13.8 0.52 13.76Z" fill="#BDF9F6"/></g><g><path d="M10.25 44.84 10.3 44.95 10.15 45.11 10.15 57.92 1.5 49.27 1.51 49.25Z" fill="#FFFFFF"/></g><g><path d="M42.26 6.01 39.84 6.01C39.56 6.01 39.34 5.79 39.34 5.51 39.34 5.23 39.56 5.01 39.84 5.01L42.26 5.01C42.54 5.01 42.76 5.23 42.76 5.51 42.76 5.79 42.54 6.01 42.26 6.01ZM36.84 6.01 33.84 6.01C33.56 6.01 33.34 5.79 33.34 5.51 33.34 5.23 33.56 5.01 33.84 5.01L36.84 5.01C37.12 5.01 37.34 5.23 37.34 5.51 37.34 5.79 37.12 6.01 36.84 6.01Z" fill="#7A7A9A"/></g><g><path d="M44.12 80.44C43.84 80.44 43.61 80.22 43.61 79.94 43.61 79.66 43.82 79.44 44.1 79.44L44.12 79.44C44.4 79.44 44.62 79.66 44.62 79.94 44.62 80.22 44.4 80.44 44.12 80.44ZM41.1 80.44 38.1 80.44C37.82 80.44 37.6 80.22 37.6 79.94 37.6 79.66 37.82 79.44 38.1 79.44L41.1 79.44C41.38 79.44 41.6 79.66 41.6 79.94 41.6 80.22 41.38 80.44 41.1 80.44ZM35.1 80.44 32.1 80.44C31.82 80.44 31.6 80.22 31.6 79.94 31.6 79.66 31.82 79.44 32.1 79.44L35.1 79.44C35.38 79.44 35.6 79.66 35.6 79.94 35.6 80.22 35.38 80.44 35.1 80.44Z" fill="#7A7A9A"/></g><g><path d="M51.83 38.18C51.7 38.18 51.57 38.13 51.48 38.03 51.28 37.83 51.27 37.51 51.47 37.31L75.34 13.42C75.43 13.33 75.58 13.28 75.7 13.27 75.83 13.27 75.96 13.33 76.06 13.42 76.25 13.62 76.27 13.95 76.07 14.14L52.19 38.03C52.09 38.13 51.96 38.18 51.83 38.18Z" fill="#292764"/></g><g><path d="M63.06 26.91C63.06 26.91 63.06 26.91 63.06 26.91 62.92 26.91 62.8 26.86 62.7 26.76L50.1 14.11C49.96 13.97 49.92 13.75 49.99 13.57 50.07 13.38 50.25 13.26 50.45 13.26L75.67 13.26C75.8 13.26 75.93 13.31 76.02 13.41 76.22 13.61 76.24 13.94 76.04 14.14L63.42 26.76C63.32 26.86 63.19 26.91 63.06 26.91ZM51.65 14.25 63.06 25.7 74.51 14.25 51.65 14.25Z" fill="#292764"/></g><g><path d="M74.71 49.75C74.63 49.75 74.56 49.73 74.48 49.7L51.61 38.13C51.47 38.06 51.37 37.92 51.34 37.76 51.31 37.6 51.37 37.44 51.48 37.33L62.87 25.94C62.98 25.83 63.14 25.77 63.3 25.8 63.46 25.83 63.6 25.93 63.67 26.07L75.15 49.01C75.15 49.01 75.15 49.01 75.15 49.02L75.16 49.04C75.25 49.23 75.21 49.46 75.06 49.61 74.97 49.71 74.84 49.75 74.71 49.75ZM52.68 37.54 73.59 48.12 63.09 27.13 52.68 37.54Z" fill="#292764"/></g><g><path d="M37.89 73.03C37.76 73.03 37.63 72.99 37.54 72.9L9.95 45.31C9.91 45.27 9.88 45.23 9.86 45.18L9.8 45.07C9.68 44.83 9.77 44.54 10.01 44.41L10.11 44.36 24.14 37.26C24.22 37.22 24.32 37.2 24.39 37.19 24.52 37.19 24.66 37.24 24.75 37.33L38.1 50.79 51.48 37.33C51.63 37.18 51.87 37.14 52.06 37.24L65.86 44.22C66.11 44.34 66.2 44.64 66.08 44.89L65.94 45.17C65.92 45.22 65.88 45.26 65.85 45.3L38.29 72.86C38.25 72.9 38.21 72.94 38.16 72.96 38.1 73 38.03 73.02 37.96 73.03 37.94 73.03 37.91 73.03 37.89 73.03ZM11.05 44.99 37.89 71.83 64.88 44.84 51.93 38.29 38.46 51.85C38.36 51.95 38.24 52 38.1 52L38.1 52C37.97 52 37.84 51.95 37.75 51.85L24.3 38.29 11.05 44.99Z" fill="#292764"/></g><g><path d="M65.48 86.95C65.41 86.95 65.33 86.93 65.26 86.9L51.6 79.99C51.56 79.98 51.53 79.96 51.5 79.94L37.69 72.95C37.55 72.88 37.46 72.74 37.43 72.59 37.4 72.44 37.45 72.28 37.56 72.17L37.75 71.97 65.14 44.58C65.28 44.44 65.5 44.4 65.68 44.47 65.87 44.55 65.99 44.73 65.99 44.93L65.99 65.67C66 65.72 66 65.75 66 65.79L66 86.45C66 86.65 65.88 86.82 65.72 86.9 65.64 86.93 65.56 86.95 65.48 86.95ZM52 79.08C52 79.08 52.01 79.08 52.01 79.09L65 85.65 65 65.89C64.99 65.86 64.99 65.82 64.99 65.79L64.99 46.15 38.76 72.38 52 79.08C52 79.07 52 79.07 52 79.08Z" fill="#292764"/></g><g><path d="M38.1 52C38.04 52 37.97 51.99 37.91 51.96 37.72 51.88 37.6 51.7 37.6 51.5L37.6 26.38C37.6 26.1 37.82 25.88 38.1 25.88L63.03 25.88C63.16 25.88 63.29 25.93 63.39 26.03 63.58 26.23 63.61 26.57 63.42 26.77L52.26 37.94C52.24 37.97 52.22 38.01 52.19 38.03L38.46 51.85C38.36 51.95 38.23 52 38.1 52ZM38.6 26.88 38.6 50.29 51.4 37.41C51.42 37.37 51.44 37.34 51.47 37.31L61.89 26.87 38.6 26.87Z" fill="#292764"/></g><g><path d="M63.03 26.88 37.92 26.88C37.64 26.88 37.42 26.66 37.42 26.38L37.42 1.18C37.42 0.98 37.54 0.8 37.73 0.72 37.92 0.64 38.13 0.68 38.27 0.83L63.38 26.03C63.52 26.17 63.56 26.39 63.49 26.57 63.41 26.75 63.23 26.88 63.03 26.88ZM38.42 25.88 61.83 25.88 54.44 18.47C54.44 18.47 54.44 18.47 54.44 18.47L38.42 2.39 38.42 25.88Z" fill="#292764"/></g><g><path d="M38.11 86.39C38.05 86.39 37.98 86.38 37.92 86.35 37.73 86.27 37.61 86.09 37.61 85.89L37.61 72.61C37.61 72.44 37.7 72.28 37.85 72.18 38 72.09 38.18 72.08 38.34 72.16L47.16 76.61C47.3 76.68 47.4 76.82 47.43 76.98 47.46 77.14 47.4 77.3 47.29 77.41L38.47 86.23C38.37 86.34 38.24 86.39 38.11 86.39ZM38.61 73.43 38.61 84.68 46.09 77.2 38.61 73.43Z" fill="#292764"/></g><g><path d="M38.11 86.39C37.98 86.39 37.85 86.34 37.76 86.24L28.85 77.33C28.74 77.22 28.68 77.06 28.71 76.9 28.74 76.74 28.84 76.61 28.98 76.53L37.53 72.2C37.69 72.03 37.97 71.97 38.16 72.07L38.35 72.17C38.51 72.26 38.61 72.43 38.61 72.61L38.61 85.88C38.61 86.08 38.49 86.26 38.3 86.34 38.24 86.38 38.18 86.39 38.11 86.39ZM30.05 77.11 37.62 84.68 37.62 73.28 30.05 77.11Z" fill="#292764"/></g><g><path d="M38.1 52C37.97 52 37.84 51.95 37.75 51.85L24.04 38.03C24 37.99 23.97 37.94 23.94 37.89L12.78 26.73C12.64 26.59 12.59 26.37 12.67 26.19 12.75 26 12.93 25.88 13.13 25.88L38.1 25.88C38.38 25.88 38.6 26.1 38.6 26.38L38.6 51.5C38.6 51.7 38.48 51.88 38.29 51.96 38.23 51.99 38.17 52 38.1 52ZM24.88 37.46 37.6 50.28 37.6 26.88 14.34 26.88 24.78 37.32C24.82 37.36 24.85 37.41 24.88 37.46Z" fill="#292764"/></g><g><path d="M37.92 26.88 13.13 26.88C13 26.88 12.87 26.83 12.78 26.73L12.62 26.57C12.42 26.37 12.42 26.06 12.62 25.86L20.94 17.51C20.96 17.49 20.98 17.47 21.01 17.45L37.56 0.82C37.7 0.68 37.92 0.63 38.1 0.71 38.29 0.79 38.41 0.97 38.41 1.17L38.41 26.37C38.42 26.65 38.19 26.88 37.92 26.88ZM14.01 25.88 37.42 25.88 37.42 2.39 21.65 18.21C21.63 18.23 21.61 18.25 21.58 18.27L14.01 25.88Z" fill="#292764"/></g><g><path d="M10.16 87.11C10.07 87.11 9.98 87.09 9.9 87.04 9.75 86.95 9.66 86.79 9.66 86.61L9.66 66.05C9.65 66.02 9.65 65.98 9.65 65.95L9.65 45.11C9.65 44.98 9.7 44.85 9.8 44.76L9.95 44.61C10.15 44.41 10.46 44.41 10.66 44.61L38.25 72.2C38.36 72.31 38.43 72.49 38.4 72.64 38.37 72.8 38.29 72.95 38.14 73.02L10.38 87.05C10.31 87.09 10.24 87.11 10.16 87.11ZM10.65 65.85C10.66 65.88 10.66 65.92 10.66 65.95L10.66 85.8 37.08 72.44 10.65 46.01 10.65 65.85Z" fill="#292764"/></g><g><path d="M12.97 26.71C12.84 26.71 12.71 26.66 12.62 26.56L0.17 14.12C0.05 14 0 13.84 0.03 13.68 0.06 13.52 0.16 13.38 0.3 13.31 0.37 13.28 0.47 13.25 0.54 13.25L25.38 13.25C25.58 13.25 25.76 13.37 25.84 13.56 25.92 13.75 25.88 13.96 25.73 14.1L21.65 18.21C21.63 18.23 21.61 18.25 21.58 18.27L13.32 26.57C13.23 26.66 13.1 26.71 12.97 26.71L12.97 26.71ZM1.72 14.25 12.97 25.5 20.94 17.5C20.96 17.48 20.98 17.46 21.01 17.44L24.19 14.24 1.72 14.24Z" fill="#292764"/></g><g><path d="M24.38 38.18C24.25 38.18 24.13 38.13 24.03 38.04L12.71 26.73C12.57 26.59 12.52 26.37 12.6 26.19 12.68 26 12.86 25.88 13.06 25.88 13.19 25.88 13.39 25.93 13.48 26.03L24.77 37.32C24.89 37.44 24.94 37.62 24.9 37.79 24.86 37.96 24.73 38.09 24.57 38.15L24.57 38.15C24.51 38.17 24.44 38.18 24.38 38.18Z" fill="#292764"/></g><g><path d="M1.51 49.75C1.38 49.75 1.25 49.7 1.16 49.6 1.01 49.45 0.97 49.21 1.07 49.02L12.52 26.14C12.61 25.97 12.78 25.86 12.97 25.86L13.08 25.86C13.21 25.86 13.34 25.91 13.43 26.01L24.74 37.32C24.85 37.43 24.91 37.59 24.88 37.75 24.85 37.91 24.75 38.04 24.61 38.12L1.74 49.7C1.67 49.74 1.59 49.75 1.51 49.75ZM13.13 27.15 2.64 48.13 23.54 37.56 13.13 27.15Z" fill="#292764"/></g><g><path d="M13.13 26.88 13.06 26.88C12.93 26.88 12.8 26.83 12.71 26.73L12.63 26.65C12.54 26.56 12.46 26.4 12.46 26.27 12.46 26.14 12.49 25.98 12.58 25.89 12.78 25.7 13.12 25.67 13.32 25.86L13.48 26.02C13.62 26.16 13.67 26.38 13.59 26.57 13.52 26.75 13.33 26.88 13.13 26.88Z" fill="#292764"/></g><g><path d="M13.07 26.88 12.96 26.88C12.79 26.88 12.63 26.8 12.54 26.66 12.45 26.52 12.43 26.34 12.5 26.19 12.57 26.04 12.72 25.89 12.88 25.86 13.04 25.83 13.23 25.84 13.34 25.96L13.42 26.04C13.56 26.18 13.61 26.4 13.53 26.58 13.45 26.75 13.27 26.88 13.07 26.88Z" fill="#292764"/></g><g><path d="M12.96 26.88 12.81 26.88C12.61 26.88 12.43 26.76 12.35 26.57 12.27 26.38 12.31 26.17 12.46 26.03L12.59 25.9C12.68 25.81 12.81 25.75 12.94 25.75L12.94 25.75C13.07 25.75 13.2 25.8 13.29 25.9 13.43 26.04 13.53 26.32 13.45 26.51L13.42 26.59C13.34 26.76 13.16 26.88 12.96 26.88Z" fill="#292764"/></g><g><path d="M12.94 26.74C12.81 26.74 12.68 26.69 12.59 26.59L0.15 14.15C-0.02 13.98-0.04 13.72 0.09 13.52 0.17 13.39 0.32 13.3 0.47 13.28 0.62 13.26 0.78 13.3 0.88 13.41L13.33 25.86C13.42 25.95 13.48 26.08 13.48 26.22 13.48 26.35 13.43 26.48 13.33 26.57L13.3 26.6C13.19 26.7 13.06 26.74 12.94 26.74Z" fill="#292764"/></g><g><path d="M10.15 58.42C10.02 58.42 9.89 58.37 9.8 58.27L1.15 49.61C0.96 49.41 0.96 49.1 1.15 48.9 1.19 48.86 1.24 48.82 1.29 48.8L10.02 44.39C10.14 44.33 10.28 44.32 10.4 44.36 10.53 44.4 10.63 44.49 10.69 44.61L10.74 44.72C10.84 44.91 10.8 45.14 10.65 45.3L10.64 45.31 10.64 57.92C10.64 58.12 10.52 58.3 10.33 58.38 10.28 58.41 10.21 58.42 10.15 58.42ZM2.34 49.4 9.65 56.72 9.65 45.71 2.34 49.4Z" fill="#292764"/></g></g><g><path d="M0.97 49.73C0.84 49.73 0.71 49.68 0.62 49.58 0.48 49.44 0.42 49.21 0.5 49.02 0.66 48.63 1.34 48.65 1.46 49.06 1.52 49.27 1.47 49.5 1.28 49.62L1.25 49.64C1.16 49.71 1.06 49.73 0.97 49.73Z" fill="#292764"/></g></g><g><g><path d="M24.36 21.92C19.2 21.92 15 17.72 15 12.56L15 1.19C15 0.64 15.45 0.19 16 0.19 16.55 0.19 17 0.64 17 1.19L17 12.56C17 16.62 20.3 19.92 24.36 19.92 28.42 19.92 31.72 16.62 31.72 12.56 31.72 12.01 32.17 11.56 32.72 11.56 33.27 11.56 33.72 12.01 33.72 12.56 33.73 17.72 29.53 21.92 24.36 21.92Z" fill="#292764"/></g><g><path d="M20.43 6.47C20.17 6.47 19.92 6.37 19.72 6.18L15.95 2.4 12.27 6.08C11.88 6.47 11.25 6.47 10.86 6.08 10.47 5.69 10.47 5.06 10.86 4.67L15.24 0.29C15.62-0.09 16.28-0.09 16.65 0.29L21.13 4.77C21.52 5.16 21.52 5.79 21.13 6.18 20.95 6.37 20.69 6.47 20.43 6.47Z" fill="#292764"/></g></g></g></svg>