<svg width="279.89" height="451.41" viewBox="0 0 279.89 451.41" xmlns="http://www.w3.org/2000/svg" xmlns:xlink="http://www.w3.org/1999/xlink" xml:space="preserve" overflow="hidden"><defs></defs><g><g><defs><path d="M239.62 20.98 239.62 401.45C239.62 409.34 235.26 416.21 228.82 419.79 225.8 421.47 222.33 422.43 218.63 422.43L64.08 422.43C52.49 422.43 43.1 413.04 43.1 401.45L43.1 20.98C43.1 9.39 52.49 0 64.08 0L218.63 0C230.22 0 239.62 9.39 239.62 20.98Z" id="SVGID_1_"/></defs><clipPath id="SVGID_2_"><use width="100%" height="100%" xlink:href="#SVGID_1_" overflow="visible"></use></clipPath><path d="M239.62 20.98 239.62 401.45C239.62 409.34 235.26 416.21 228.82 419.79 225.8 421.47 222.33 422.43 218.63 422.43L64.08 422.43C52.49 422.43 43.1 413.04 43.1 401.45L43.1 20.98C43.1 9.39 52.49 0 64.08 0L218.63 0C230.22 0 239.62 9.39 239.62 20.98Z" fill="#C1E7F4" clip-path="url(#SVGID_2_)"/><path d="M126.02 194.25C130.19 191.94 134.01 189.06 137.77 186.14 143.44 181.73 149.01 177.17 154.75 172.84 161.71 167.59 168.91 162.68 176.34 158.13 176.46 160.3 178.28 161.94 180.03 163.22 185.43 167.18 191.55 170.22 196.34 174.9 199.36 177.84 201.76 181.35 204.56 184.49 209.11 189.58 214.68 193.65 219.95 197.99 220.71 198.61 221.52 199.37 221.55 200.35 221.6 201.75 220.09 202.63 218.79 203.16 191.07 214.49 160 214.95 130.33 210.95" fill="#99B5C9" clip-path="url(#SVGID_2_)"/><path d="M71.22 198.44C75.39 196.13 79.21 193.25 82.97 190.33 88.64 185.92 94.21 181.36 99.95 177.03 106.91 171.78 114.11 166.87 121.54 162.31 121.66 164.48 123.48 166.12 125.23 167.4 130.63 171.36 136.75 174.4 141.54 179.08 144.56 182.02 146.96 185.53 149.76 188.67 154.31 193.76 159.88 197.83 165.15 202.17 165.91 202.79 166.72 203.55 166.75 204.53 166.8 205.93 165.29 206.81 163.99 207.34 136.27 218.67 105.2 219.13 75.53 215.13" fill="#99B5C9" clip-path="url(#SVGID_2_)"/><path d="M31.57 196.51C35.74 194.2 39.56 191.32 43.32 188.4 48.99 183.99 54.56 179.43 60.3 175.1 67.26 169.85 74.46 164.94 81.89 160.38 82.01 162.55 83.83 164.19 85.58 165.47 90.98 169.43 97.1 172.47 101.89 177.15 104.91 180.09 107.31 183.6 110.11 186.74 114.66 191.83 120.23 195.9 125.5 200.24 126.26 200.86 127.07 201.62 127.1 202.6 127.15 204 125.64 204.88 124.34 205.41 96.62 216.74 65.55 217.2 35.88 213.2" fill="#99B5C9" clip-path="url(#SVGID_2_)"/><path d="M87.36 205.83C92.45 203 97.13 199.49 101.73 195.91 108.67 190.51 115.47 184.94 122.48 179.65 130.98 173.23 139.79 167.23 148.87 161.66 149.02 164.31 151.24 166.32 153.38 167.89 159.98 172.73 167.46 176.45 173.32 182.17 177.01 185.77 179.94 190.05 183.37 193.89 188.94 200.12 195.74 205.08 202.18 210.4 203.1 211.16 204.1 212.08 204.14 213.28 204.2 214.99 202.35 216.06 200.77 216.71 166.89 230.55 128.92 231.12 92.64 226.24" fill="#364251" clip-path="url(#SVGID_2_)"/><path d="M0 208.08C5.09 205.25 9.77 201.74 14.37 198.16 21.31 192.76 28.11 187.19 35.12 181.9 43.62 175.48 52.43 169.48 61.51 163.91 61.66 166.56 63.88 168.57 66.02 170.14 72.62 174.98 80.1 178.7 85.96 184.42 89.65 188.02 92.58 192.3 96.01 196.14 101.58 202.37 108.38 207.33 114.82 212.65 115.74 213.41 116.74 214.33 116.78 215.53 116.84 217.24 114.99 218.31 113.41 218.96 79.53 232.8 41.56 233.37 5.28 228.49" fill="#364251" clip-path="url(#SVGID_2_)"/><path d="M163.11 207.76C168.2 204.93 172.88 201.42 177.48 197.84 184.42 192.44 191.22 186.87 198.23 181.58 206.73 175.16 215.54 169.16 224.62 163.59 224.77 166.24 226.99 168.25 229.13 169.82 235.73 174.66 243.21 178.38 249.07 184.1 252.76 187.7 255.69 191.98 259.12 195.82 264.69 202.05 271.49 207.01 277.93 212.33 278.85 213.09 279.85 214.01 279.89 215.21 279.95 216.92 278.1 217.99 276.52 218.64 242.64 232.48 204.67 233.05 168.39 228.17" fill="#364251" clip-path="url(#SVGID_2_)"/><path d="M267.91 218.2C259.59 211.34 250.81 204.93 243.63 196.89 239.2 191.93 235.41 186.4 230.65 181.76 226.11 177.33 220.83 173.83 215.48 170.4 211.19 174.13 207.67 178.61 202.47 180.56 194.47 184.56 195.47 174.56 193.47 170.56 190.47 164.56 183.47 175.56 180.47 170.56 179.87 169.76 179.49 168.99 179.28 168.23 174.46 171.57 169.69 174.98 165.01 178.51 155.96 185.34 147.18 192.53 138.22 199.5 132.29 204.12 126.25 208.65 119.67 212.3L126.48 238.65C173.31 244.95 222.33 244.22 266.07 226.35 268.12 225.51 270.5 224.13 270.42 221.92 270.39 220.37 269.1 219.18 267.91 218.2Z" fill="#485870" clip-path="url(#SVGID_2_)"/><path d="M193.47 170.55C195.47 174.55 194.47 184.55 202.47 180.55 207.67 178.6 211.19 174.12 215.48 170.39 211.91 168.09 208.32 165.82 204.91 163.32 202.15 161.3 199.28 158.7 199.09 155.28 192.36 159.4 185.77 163.73 179.28 168.22 179.49 168.98 179.87 169.75 180.47 170.55 183.47 175.55 190.47 164.55 193.47 170.55Z" fill="#9BA8BA" clip-path="url(#SVGID_2_)"/><path d="M172.57 207.99C167.63 205.33 162.88 202.26 157.61 200.34 152.71 198.55 147.39 197.76 142.92 195.09 137.96 192.13 134.57 187.18 130.27 183.33 127.9 181.21 125.24 179.4 122.48 177.71 117.12 182.44 112.54 186.11 108.48 182.56 98.48 174.56 91.48 180.56 82.48 178.56 80.69 178.05 80.21 176.88 80.55 175.31 64.84 186.7 48.97 197.86 32.93 208.77L31.48 245.71C85.55 252.53 141.15 259.28 193.97 245.83 214.84 240.51 234.83 232.13 255.67 226.71 227.17 224.26 197.75 221.56 172.57 207.99Z" fill="#586B89" clip-path="url(#SVGID_2_)"/><path d="M82.47 178.55C91.47 180.55 98.47 174.55 108.47 182.55 112.53 186.11 117.11 182.44 122.47 177.7 114.32 172.7 105.33 168.71 100.56 160.62 93.92 165.56 87.25 170.44 80.55 175.3 80.2 176.87 80.68 178.04 82.47 178.55Z" fill="#9BA8BA" clip-path="url(#SVGID_2_)"/><path d="M239.62 223.23 239.62 401.45C239.62 409.34 235.26 416.21 228.82 419.79 225.8 421.47 222.33 422.43 218.63 422.43L64.08 422.43C52.49 422.43 43.1 413.04 43.1 401.45L43.1 223.23 239.62 223.23Z" fill="#99B5C9" clip-path="url(#SVGID_2_)"/><path d="M88.31 272.45C95.41 273.42 102.62 272.24 109.64 270.81 134.96 265.67 159.55 257.26 184.97 252.69 210.4 248.12 237.46 247.61 261.18 257.84 257.48 265.71 257.63 274.74 257.2 283.42 256.77 292.1 255.41 301.37 249.53 307.78 245.8 311.84 240.64 314.28 235.45 316.13 223.82 320.26 211.45 321.87 199.13 322.59 160.61 324.85 121.01 318.32 87.24 299.65 84.27 298.01 81.21 296.14 79.57 293.16" fill="#7B9BAF" clip-path="url(#SVGID_2_)"/><path d="M239.62 305.3 239.62 401.45C239.62 409.34 235.26 416.21 228.82 419.79 225.8 421.47 222.33 422.43 218.63 422.43L64.08 422.43C52.49 422.43 43.1 413.04 43.1 401.45L43.1 273.28C54.34 273.44 65.67 275.11 76.57 277.65 102.12 283.61 126.47 293.99 151.98 300.09 180.6 306.92 210.3 308.23 239.62 305.3Z" fill="#B6CCDD" clip-path="url(#SVGID_2_)"/><path d="M239.62 323.51 239.62 401.45C239.62 409.34 235.26 416.21 228.82 419.79 225.8 421.47 222.33 422.43 218.63 422.43L64.08 422.43C52.49 422.43 43.1 413.04 43.1 401.45L43.1 398.48C59.42 382.8 77.2 368.65 96.43 356.87 97.26 356.36 98.1 355.85 98.94 355.35 105.49 351.43 112.2 347.78 119.08 344.45 154.07 327.48 193.48 318.73 232.18 322.55 234.65 322.79 237.14 323.1 239.62 323.51Z" fill="#CEDFEF" clip-path="url(#SVGID_2_)"/><path d="M228.82 419.79C225.8 421.47 222.33 422.43 218.63 422.43L64.08 422.43C52.49 422.43 43.1 413.04 43.1 401.45L43.1 350.99C54.37 350.7 65.79 351.52 76.96 352.67 80.09 352.99 83.21 353.34 86.34 353.71 90.54 354.21 94.74 354.75 98.94 355.35 128.62 359.61 157.93 366.63 185.13 379.11 199.64 385.75 213.88 394.32 223.01 407.41 225.58 411.1 227.68 415.38 228.82 419.79Z" fill="#E4EEF7" clip-path="url(#SVGID_2_)"/><g clip-path="url(#SVGID_2_)"><path d="M76.32 247.04C76.26 255.41 75.81 263.73 75.02 272.07 78.39 271.76 81.77 271.45 85.14 271.14 83.21 262.5 83.69 253.73 82.69 244.97" fill="#56453E"/><path d="M63.46 229.53C60.07 236.88 56.85 244.25 53.99 251.83 53.65 252.73 53.41 253.66 53.87 254.57 56.27 253.06 57.95 251.18 59.22 248.64 58.63 250.57 58.37 252.52 58.54 254.51 58.62 255.39 59.05 256.37 60 256.25 60.35 256.21 60.53 255.91 60.72 255.65 62.22 253.61 63.34 251.43 64.21 249.05 63.96 251.11 63.9 253.19 64.11 255.24 64.18 255.96 64.5 256.79 65.29 256.71 65.61 256.68 65.77 256.41 65.94 256.16 67.39 254.06 68.41 251.83 69.13 249.39 68.82 251.39 68.86 253.36 69.34 255.31 69.55 256.14 70.12 257.01 71.01 256.75 71.34 256.65 71.47 256.33 71.62 256.05 72.78 253.78 73.55 251.42 74.04 248.92 74.26 250.63 74.46 252.44 74.69 254.13 74.85 255.31 75.21 256.75 76.53 256.86 77.41 256.94 77.94 256.2 78.36 255.5 79.39 253.78 79.9 251.89 80.09 249.89 80.44 251.94 81.03 253.91 81.93 255.78 82.28 256.49 82.91 257.21 83.7 256.86 84.05 256.7 84.13 256.32 84.23 255.98 84.85 254 85.36 251.96 85.84 249.94 86.17 251.57 86.62 253.26 87.35 254.75 87.88 255.84 88.71 257.06 90.02 256.79 91.33 256.52 91.57 255.07 91.75 253.9 91.98 252.47 92.13 250.91 92.34 249.47 92.88 251.3 93.61 252.96 94.73 254.52 95.03 254.93 95.3 255.31 95.87 255.44 96.44 255.56 97.07 255.2 97.38 254.66 97.69 254.12 97.78 253.49 97.84 252.87 98 251.13 98.06 249.37 98.06 247.63 98.8 249.44 99.52 251.3 100.84 252.75 101.52 253.49 102.41 254.2 103.44 253.92 105.09 253.47 105.51 251.65 105.29 250.04 104.81 246.59 103.28 243.55 101.86 240.33 100.43 237.12 99.29 233.69 97.59 230.54 95.89 227.39 93.8 224.52 90.7 222.63 88.35 221.2 85.78 220.65 83.07 220.39 79.76 220.07 76.58 220.24 73.35 221.25 70.12 222.26 67.58 224.21 65.47 226.83" fill="#1F5154"/><path d="M68.91 200.75C66.55 211.83 61.11 221.8 58.32 232.75 58.18 233.29 58.12 233.92 58.62 234.25 59.12 234.58 59.71 234.23 60.15 233.84 61.84 232.33 63.18 230.58 64.26 228.57 63.86 230.61 63.45 232.65 63.06 234.69 62.97 235.16 62.88 235.64 63 236.11 63.12 236.58 63.45 236.99 63.96 237 64.46 237.01 64.81 236.64 65.11 236.27 66.8 234.18 68.1 231.94 69.15 229.47 68.78 231.78 68.96 233.9 69.79 236.08 69.92 236.42 70.06 236.76 70.4 236.91 71.13 237.22 71.8 236.76 72.27 236.17 73.98 234.03 74.85 231.73 75.09 229 75.34 231.12 75.68 233.24 76.26 235.3 76.42 235.87 76.59 236.51 77.19 236.72 78.12 237.06 78.9 236.33 79.39 235.53 80.62 233.52 81.25 231.37 81.45 229.02 81.55 231.07 82.07 232.98 82.99 234.8 83.42 235.65 84.23 236.46 85.11 236.3 85.99 236.14 86.25 235.47 86.52 234.78 87.33 232.71 87.5 230.53 87.75 228.34 88.14 230.17 88.73 231.94 89.61 233.58 90.07 234.45 90.86 235.32 91.86 234.9 92.32 234.71 92.46 234.23 92.6 233.79 93.36 231.4 93.6 229.02 93.47 226.52 94.09 228.19 94.65 229.8 95.81 231.2 96.96 232.6 98.43 233.42 100.24 233.57 100.64 233.6 101.05 233.48 101.3 233.24 101.55 233 101.62 232.74 101.65 232.44 101.79 231.21 101.51 230.1 101.15 228.92 97.55 217.34 94.06 206.14 87.48 195.85 86.15 193.76 84.37 191.88 81.88 191.51 80.47 191.3 79.31 191.9 78.12 192.54 75.21 194.11 72.91 196.28 70.76 198.76" fill="#276268"/><path d="M62.8 209.43C63.73 209.96 64.66 209.55 65.46 208.9 68.12 206.72 70.14 204.21 71.73 201.17 71.46 203.99 71.35 206.92 71.55 209.73 71.62 210.77 71.87 212.05 73 212.2 74.13 212.35 74.72 211.24 75.14 210.3 76.42 207.45 77.4 204.4 78.17 201.35 78.44 204.08 78.95 206.84 79.78 209.43 80.1 210.41 80.77 211.51 81.84 211.14 82.49 210.92 82.62 210.17 82.74 209.55 83.38 206.16 83.72 202.73 83.8 199.27 84.42 202.31 85.25 205.24 86.5 208.07 86.95 209.08 87.62 210.01 88.8 209.88 89.15 206.23 89 202.79 88.35 199.19 89.37 202.05 90.52 204.83 92.01 207.48 92.98 209.2 94.15 210.74 96.26 210.72 95.83 209.43 95.52 208.16 95.05 206.86 90.65 194.87 85.36 183.21 77.83 173.13 77.67 172.91 75.52 178.82 75.32 179.51 74.24 183.21 73 186.53 71.71 189.91 69.11 196.66 66.02 202.98 62.8 209.43Z" fill="#397C87"/><path d="M69.48 189.71C68.9 191.2 68.46 192.75 68.34 194.34 68.3 194.94 68.4 195.64 68.96 195.91 69.51 196.18 70.1 195.89 70.52 195.47 72.68 193.35 73.77 190.57 75.2 187.95 75.38 187.61 75.77 187.32 76.05 187.45 76.33 187.59 76.32 187.75 76.37 187.94 76.81 189.71 76.63 191.47 76.86 193.26 76.89 193.51 76.89 193.72 77.13 193.94 77.37 194.16 77.85 194.15 78.12 193.86 78.38 193.57 78.5 193.2 78.6 192.82 79.03 191.19 79.42 189.51 79.82 187.88 79.9 187.54 79.95 187.12 80.32 187.01 81.02 186.8 81.46 187.55 81.67 188.2 82.68 191.26 83.15 194.54 83.91 197.69 84.68 200.84 85.79 203.59 87.97 206 88.39 206.47 88.87 206.74 89.44 206.92 90.01 207.1 90.69 206.83 90.98 206.43 91.28 206.03 91.3 205.72 91.31 205.32 91.37 203.67 90.86 202.26 90.31 200.73 88.33 195.26 86.27 189.74 84.96 184.09 84.1 180.38 83.75 176.71 81.58 173.55 80.68 172.23 78.99 171.07 77.65 172.47 76.31 173.87 75.5 176.02 74.63 177.8 72.72 181.69 71.04 185.67 69.48 189.71Z" fill="#FFFFFF"/></g><path d="M78.51 42.22C110.22 40.72 141.99 41.17 173.73 41.61 174.96 38.19 171.55 34.54 167.95 34.08 164.35 33.62 160.86 35.32 157.62 36.96 159.97 33.35 157.85 28.55 155.33 25.07 151.08 19.21 145.63 14.23 139.43 10.5 135.22 7.98 130.36 5.99 125.52 6.73 122.01 7.27 118.83 9.2 116.21 11.6 111.25 16.13 107.96 22.46 107.12 29.12 107.54 25.58 103.9 22.43 100.35 22.66 96.8 22.89 93.82 25.81 92.69 29.19 92.45 29.91 92.24 30.71 91.61 31.13 90.77 31.7 89.62 31.3 88.73 30.82 85.92 29.3 83.23 26.99 80.03 27.16 76.53 27.34 73.69 31.14 74.52 34.55 72.52 33.07 70.11 31.95 67.63 32.08 65.14 32.21 62.63 33.86 62.09 36.29 59.25 35.38 55.98 35.95 53.62 37.77 48.65 41.58 59.44 42.85 61.69 42.78 67.27 42.6 72.9 42.48 78.51 42.22Z" fill="#EBFBFF" clip-path="url(#SVGID_2_)"/><g clip-path="url(#SVGID_2_)"><path d="M99.1 287.32C99.03 296.87 98.52 306.37 97.61 315.88 101.46 315.53 105.31 315.17 109.16 314.82 106.95 304.96 107.5 294.95 106.37 284.96" fill="#56453E"/><path d="M84.44 267.33C80.57 275.71 76.9 284.13 73.63 292.78 73.24 293.81 72.97 294.87 73.49 295.91 76.23 294.18 78.15 292.05 79.59 289.15 78.92 291.35 78.62 293.57 78.82 295.85 78.91 296.86 79.4 297.98 80.49 297.84 80.89 297.79 81.09 297.45 81.31 297.15 83.02 294.82 84.3 292.33 85.3 289.62 85.01 291.97 84.95 294.35 85.18 296.69 85.26 297.51 85.63 298.46 86.53 298.37 86.89 298.33 87.08 298.02 87.27 297.75 88.93 295.35 90.09 292.81 90.91 290.02 90.56 292.3 90.6 294.55 91.16 296.77 91.4 297.72 92.05 298.71 93.06 298.41 93.44 298.3 93.59 297.94 93.75 297.61 95.08 295.02 95.95 292.33 96.51 289.47 96.77 291.42 96.99 293.49 97.26 295.42 97.45 296.76 97.85 298.4 99.36 298.54 100.36 298.63 100.97 297.78 101.45 296.98 102.63 295.02 103.21 292.86 103.42 290.58 103.82 292.91 104.49 295.17 105.52 297.3 105.91 298.11 106.63 298.93 107.53 298.53 107.93 298.35 108.02 297.91 108.14 297.53 108.84 295.27 109.43 292.94 109.98 290.64 110.35 292.51 110.87 294.43 111.7 296.13 112.3 297.37 113.25 298.77 114.74 298.46 116.23 298.15 116.5 296.5 116.71 295.17 116.97 293.54 117.14 291.76 117.39 290.11 118.01 292.2 118.84 294.09 120.12 295.87 120.46 296.34 120.77 296.78 121.42 296.92 122.07 297.06 122.79 296.65 123.15 296.03 123.5 295.41 123.61 294.7 123.67 293.99 123.85 292 123.92 290 123.92 288.01 124.76 290.07 125.59 292.2 127.1 293.85 127.87 294.7 128.89 295.5 130.07 295.18 131.96 294.67 132.44 292.59 132.18 290.75 131.63 286.81 129.89 283.34 128.26 279.67 126.63 276.01 125.33 272.09 123.39 268.49 121.45 264.9 119.07 261.62 115.53 259.46 112.85 257.83 109.92 257.2 106.82 256.9 103.04 256.53 99.41 256.73 95.73 257.88 92.05 259.04 89.14 261.26 86.73 264.25" fill="#1F5154"/><path d="M90.65 234.49C87.95 247.13 81.75 258.51 78.57 271.01 78.41 271.62 78.34 272.34 78.91 272.72 79.48 273.1 80.16 272.69 80.65 272.25 82.58 270.52 84.11 268.53 85.34 266.24 84.89 268.57 84.42 270.9 83.97 273.22 83.87 273.76 83.76 274.3 83.9 274.84 84.04 275.37 84.42 275.85 84.99 275.86 85.57 275.87 85.96 275.45 86.31 275.02 88.23 272.63 89.72 270.08 90.92 267.26 90.5 269.89 90.7 272.31 91.65 274.8 91.8 275.19 91.96 275.58 92.35 275.75 93.18 276.1 93.94 275.58 94.49 274.9 96.44 272.46 97.44 269.84 97.7 266.72 97.98 269.14 98.37 271.56 99.03 273.91 99.21 274.56 99.41 275.29 100.09 275.53 101.16 275.91 102.04 275.09 102.6 274.17 104.01 271.87 104.72 269.43 104.95 266.74 105.06 269.08 105.66 271.26 106.71 273.34 107.2 274.31 108.13 275.23 109.13 275.05 110.13 274.87 110.43 274.1 110.74 273.32 111.66 270.96 111.86 268.47 112.14 265.98 112.59 268.06 113.26 270.09 114.26 271.96 114.79 272.95 115.69 273.94 116.82 273.47 117.34 273.25 117.5 272.71 117.67 272.2 118.53 269.48 118.81 266.76 118.66 263.9 119.37 265.8 120.01 267.64 121.33 269.24 122.65 270.84 124.32 271.77 126.38 271.94 126.84 271.98 127.31 271.83 127.59 271.56 127.87 271.28 127.95 270.99 127.99 270.65 128.15 269.24 127.83 267.98 127.41 266.63 123.31 253.42 119.32 240.63 111.81 228.89 110.29 226.51 108.26 224.36 105.42 223.93 103.81 223.69 102.49 224.37 101.13 225.11 97.81 226.91 95.18 229.37 92.73 232.21" fill="#276268"/><path d="M83.68 244.4C84.74 245.01 85.81 244.53 86.71 243.79 89.75 241.3 92.05 238.44 93.87 234.96 93.56 238.18 93.44 241.53 93.67 244.73 93.75 245.92 94.04 247.38 95.32 247.55 96.61 247.72 97.28 246.45 97.76 245.38 99.22 242.12 100.34 238.65 101.22 235.17 101.53 238.28 102.11 241.44 103.06 244.39 103.42 245.5 104.19 246.77 105.41 246.34 106.15 246.08 106.3 245.24 106.43 244.52 107.16 240.65 107.55 236.74 107.63 232.79 108.33 236.25 109.28 239.6 110.71 242.83 111.22 243.98 111.99 245.04 113.34 244.9 113.74 240.74 113.57 236.81 112.83 232.7 113.99 235.96 115.3 239.14 117 242.16 118.1 244.12 119.44 245.87 121.85 245.85 121.35 244.38 121.01 242.92 120.47 241.44 115.45 227.76 109.41 214.46 100.82 202.95 100.63 202.7 98.19 209.44 97.95 210.23 96.71 214.45 95.3 218.24 93.83 222.1 90.88 229.83 87.36 237.04 83.68 244.4Z" fill="#397C87"/><path d="M91.3 221.89C90.64 223.6 90.13 225.36 90 227.18 89.95 227.86 90.07 228.66 90.7 228.97 91.33 229.28 92 228.94 92.48 228.47 94.94 226.05 96.19 222.88 97.81 219.88 98.02 219.5 98.46 219.16 98.78 219.31 99.1 219.47 99.09 219.65 99.14 219.87 99.64 221.89 99.43 223.9 99.69 225.94 99.73 226.22 99.73 226.46 100 226.71 100.27 226.96 100.83 226.95 101.13 226.62 101.43 226.29 101.57 225.87 101.68 225.44 102.17 223.58 102.62 221.66 103.07 219.8 103.16 219.41 103.22 218.94 103.64 218.81 104.44 218.57 104.94 219.42 105.18 220.16 106.33 223.65 106.86 227.4 107.74 230.99 108.62 234.58 109.89 237.73 112.37 240.48 112.85 241.01 113.4 241.33 114.04 241.53 114.69 241.73 115.46 241.42 115.8 240.97 116.14 240.52 116.16 240.16 116.18 239.7 116.24 237.82 115.67 236.21 115.04 234.46 112.78 228.22 110.43 221.92 108.93 215.47 107.94 211.24 107.55 207.05 105.07 203.44 104.04 201.94 102.12 200.61 100.59 202.2 99.06 203.8 98.13 206.26 97.14 208.28 95 212.74 93.08 217.28 91.3 221.89Z" fill="#FFFFFF"/></g><g clip-path="url(#SVGID_2_)"><path d="M49.36 290.98C49.27 302.86 48.64 314.68 47.51 326.51 52.3 326.07 57.09 325.63 61.88 325.19 59.14 312.92 59.82 300.47 58.41 288.04" fill="#56453E"/><path d="M31.11 266.12C26.29 276.55 21.73 287.02 17.66 297.78 17.18 299.06 16.83 300.38 17.48 301.67 20.89 299.52 23.28 296.86 25.07 293.26 24.23 296 23.86 298.76 24.11 301.59 24.22 302.84 24.83 304.24 26.19 304.06 26.68 304 26.94 303.58 27.22 303.21 29.35 300.31 30.93 297.22 32.18 293.84 31.82 296.76 31.74 299.72 32.03 302.63 32.13 303.65 32.58 304.84 33.71 304.72 34.16 304.67 34.39 304.29 34.63 303.94 36.69 300.96 38.14 297.8 39.16 294.32 38.72 297.16 38.77 299.95 39.47 302.72 39.77 303.9 40.57 305.13 41.84 304.76 42.31 304.62 42.5 304.17 42.7 303.76 44.35 300.54 45.44 297.19 46.14 293.63 46.46 296.06 46.73 298.63 47.07 301.03 47.3 302.7 47.8 304.74 49.68 304.91 50.92 305.02 51.68 303.97 52.28 302.97 53.74 300.53 54.47 297.85 54.74 295.01 55.24 297.91 56.07 300.72 57.35 303.36 57.84 304.37 58.74 305.39 59.86 304.89 60.36 304.67 60.47 304.12 60.62 303.64 61.49 300.83 62.22 297.94 62.91 295.07 63.37 297.39 64.02 299.78 65.05 301.89 65.8 303.43 66.98 305.17 68.83 304.78 70.69 304.39 71.02 302.34 71.29 300.68 71.61 298.65 71.83 296.44 72.13 294.39 72.9 296.98 73.94 299.34 75.52 301.55 75.94 302.14 76.33 302.68 77.13 302.85 77.94 303.03 78.84 302.52 79.28 301.74 79.72 300.97 79.85 300.08 79.93 299.2 80.16 296.73 80.24 294.24 80.24 291.76 81.28 294.32 82.32 296.97 84.19 299.03 85.15 300.08 86.42 301.08 87.88 300.69 90.23 300.06 90.82 297.47 90.5 295.18 89.81 290.28 87.65 285.96 85.62 281.4 83.59 276.84 81.97 271.97 79.56 267.5 77.15 263.03 74.18 258.95 69.78 256.27 66.44 254.24 62.8 253.46 58.95 253.08 54.25 252.63 49.73 252.86 45.15 254.3 40.57 255.74 36.95 258.5 33.96 262.22" fill="#1F5154"/><path d="M38.84 225.26C35.49 240.98 27.77 255.14 23.81 270.68 23.62 271.44 23.52 272.34 24.23 272.81 24.94 273.28 25.78 272.78 26.4 272.22 28.8 270.07 30.7 267.59 32.23 264.74 31.67 267.63 31.08 270.53 30.52 273.43 30.39 274.1 30.26 274.78 30.43 275.44 30.6 276.1 31.07 276.69 31.79 276.7 32.51 276.71 33 276.19 33.43 275.66 35.82 272.69 37.67 269.52 39.17 266.01 38.65 269.29 38.9 272.3 40.07 275.39 40.25 275.88 40.45 276.36 40.94 276.57 41.97 277.01 42.92 276.36 43.6 275.51 46.03 272.48 47.27 269.21 47.6 265.34 47.95 268.36 48.44 271.37 49.25 274.29 49.48 275.09 49.72 276 50.57 276.31 51.9 276.79 52.99 275.76 53.69 274.62 55.44 271.76 56.32 268.72 56.61 265.38 56.75 268.3 57.49 271.01 58.8 273.59 59.41 274.8 60.56 275.94 61.81 275.72 63.06 275.5 63.43 274.54 63.81 273.56 64.96 270.62 65.2 267.53 65.56 264.42 66.12 267.01 66.96 269.53 68.19 271.86 68.85 273.09 69.97 274.33 71.38 273.73 72.03 273.46 72.23 272.79 72.43 272.15 73.5 268.76 73.85 265.38 73.66 261.83 74.55 264.19 75.34 266.48 76.98 268.47 78.62 270.46 80.7 271.62 83.27 271.83 83.84 271.88 84.42 271.7 84.78 271.35 85.13 271.01 85.23 270.65 85.28 270.22 85.48 268.47 85.08 266.89 84.56 265.22 79.46 248.79 74.5 232.88 65.16 218.28 63.27 215.32 60.75 212.64 57.21 212.11 55.21 211.81 53.57 212.66 51.88 213.58 47.75 215.81 44.48 218.88 41.43 222.41" fill="#276268"/><path d="M30.17 237.59C31.49 238.35 32.82 237.75 33.94 236.83 37.72 233.74 40.58 230.17 42.85 225.85 42.47 229.86 42.32 234.02 42.6 238 42.7 239.48 43.06 241.3 44.66 241.51 46.26 241.72 47.1 240.15 47.69 238.81 49.5 234.76 50.9 230.44 51.99 226.11 52.37 229.98 53.09 233.9 54.28 237.58 54.73 238.97 55.68 240.54 57.21 240.01 58.13 239.69 58.31 238.64 58.48 237.75 59.39 232.94 59.87 228.07 59.98 223.16 60.86 227.47 62.03 231.63 63.81 235.65 64.44 237.09 65.4 238.4 67.08 238.22 67.57 233.04 67.37 228.15 66.45 223.04 67.89 227.09 69.53 231.05 71.64 234.81 73.01 237.25 74.67 239.43 77.67 239.4 77.05 237.57 76.62 235.76 75.95 233.92 69.7 216.9 62.2 200.36 51.5 186.04 51.27 185.73 48.22 194.11 47.93 195.1 46.39 200.35 44.64 205.07 42.8 209.86 39.13 219.46 34.75 228.44 30.17 237.59Z" fill="#397C87"/><path d="M39.65 209.59C38.83 211.71 38.2 213.91 38.04 216.16 37.98 217.01 38.13 218 38.91 218.39 39.7 218.77 40.52 218.35 41.13 217.76 44.19 214.75 45.75 210.8 47.77 207.08 48.03 206.6 48.58 206.18 48.98 206.38 49.38 206.57 49.36 206.81 49.43 207.08 50.05 209.59 49.79 212.09 50.12 214.63 50.16 214.98 50.17 215.28 50.5 215.59 50.83 215.9 51.53 215.89 51.9 215.47 52.27 215.05 52.44 214.54 52.58 214 53.19 211.68 53.74 209.3 54.31 206.99 54.43 206.51 54.49 205.91 55.02 205.76 56.01 205.46 56.63 206.52 56.93 207.44 58.36 211.79 59.02 216.45 60.12 220.91 61.21 225.38 62.79 229.29 65.89 232.71 66.49 233.37 67.17 233.77 67.97 234.02 68.77 234.27 69.74 233.89 70.16 233.33 70.58 232.77 70.61 232.33 70.63 231.75 70.71 229.41 69.99 227.41 69.21 225.24 66.39 217.47 63.48 209.64 61.61 201.62 60.38 196.36 59.89 191.15 56.81 186.66 55.53 184.79 53.14 183.14 51.24 185.12 49.34 187.11 48.18 190.17 46.95 192.69 44.25 198.21 41.86 203.86 39.65 209.59Z" fill="#FFFFFF"/></g><g clip-path="url(#SVGID_2_)"><path d="M28.78 318.57C30.3 333.6 41.37 345.58 49.52 358.3 55.25 367.25 59.69 376.95 64.33 386.51 74.57 407.64 85.87 428.25 97.16 448.84 97.67 449.77 98.24 450.75 99.21 451.18 100.07 451.56 101.06 451.4 101.99 451.25 108.64 450.11 115.29 448.96 121.94 447.82 115.67 438.81 109.41 429.8 103.14 420.79 99.69 415.83 96.21 410.81 94.04 405.18 91.73 399.21 90.98 392.75 90.58 386.36 89.47 368.59 90.98 350.65 95.03 333.31 92.44 332.39 90.51 335.74 89.83 338.4 85.87 353.88 83.48 369.76 82.69 385.73 64.07 359.12 45.33 332.6 26.47 306.17" fill="#56453E"/><path d="M45.52 335.16C45.23 336.66 45.8 338.3 46.97 339.3 48.34 340.46 50.38 340.74 51.52 342.13 52.91 343.83 52.36 346.4 53.23 348.41 54.22 350.7 56.84 351.87 58.13 354.01 59.33 356 59.24 358.61 60.66 360.45 62.13 362.35 64.83 362.92 66.39 364.75 68.06 366.72 68.07 369.75 69.85 371.62 71.13 372.96 73.11 373.46 74.38 374.81 76.09 376.62 76.08 379.4 76.77 381.8 77.39 383.95 78.65 385.92 80.35 387.37 81.1 388.01 82.34 388.52 82.98 387.78 83.29 387.43 83.32 386.92 83.33 386.45 83.45 382.76 83.49 378.79 81.37 375.77 80.63 374.72 79.67 373.85 78.86 372.86 77.84 371.62 77.06 370.2 76.29 368.79 74.79 366.05 73.29 363.3 71.79 360.56 70.65 358.48 69.49 356.37 67.84 354.66 66.52 353.3 64.93 352.24 63.48 351.02 57.62 346.07 54.45 338.72 49.87 332.56 48.32 330.46 45.84 333.55 45.52 335.16Z" fill="#FFFFFF"/></g><path d="M245.2 74.55C243.04 68.74 235.55 66.59 229.51 67.95 221.29 69.81 214.65 76.67 212.12 84.71 209.59 92.75 210.88 101.71 214.67 109.24 213.53 103.96 210.28 99.04 205.54 96.44 200.8 93.84 194.6 93.83 190.15 96.9 185.7 99.97 183.53 106.19 185.58 111.19 184.77 109.9 182.97 109.52 181.52 110 180.07 110.48 178.97 111.64 178.09 112.88 176.11 115.71 175.09 119.19 175.24 122.64 172.99 121.13 170.46 119.85 167.76 119.77 165.05 119.69 162.16 121.1 161.18 123.62 160.89 124.37 160.7 125.27 159.99 125.64 159.51 125.88 158.95 125.8 158.42 125.73 151.73 124.86 144.68 127.29 139.94 132.09 174.03 132.22 208.12 132.34 242.2 132.47 247.85 132.49 253.53 132.51 259.12 131.63" fill="#EBFBFF" clip-path="url(#SVGID_2_)"/><path d="M136.17 143.75C132.34 142.78 126.54 144.11 122.56 144.27 117.75 144.47 112.95 144.68 108.14 144.89 98.52 145.31 88.9 145.73 79.28 146.06 69.66 146.39 60.04 146.62 50.42 146.66 45.91 146.68 40.79 147.3 36.34 146.56 34.35 146.23 29.67 145.29 28.52 143.5 28.12 142.87 27.98 142.11 27.85 141.37 25.93 130.22 24.54 118.67 27.21 107.68 29.82 96.9 38.91 82.97 51.22 81.96 55.83 81.58 60.04 85.26 61.59 89.61 63.14 93.96 62.55 98.79 61.43 103.27 59.72 110.14 56.81 116.71 52.88 122.6 55.07 122.09 57.37 121.59 59.54 122.19 61.71 122.79 63.63 124.9 63.2 127.11 62.17 122.39 63.5 117.22 66.67 113.58 68.67 111.28 72.02 109.54 74.72 110.95 76.95 112.11 77.74 114.85 78.31 117.3 80.15 113.62 83.93 110.98 88.02 110.51 89.41 110.35 90.96 110.47 92 111.42 93.58 112.85 93.28 115.39 92.71 117.44 91.35 122.38 89.22 127.09 86.42 131.38 89.32 129.04 94.91 126.68 98.21 129.33 100.74 131.36 101.24 135.37 99.57 138.16 101.55 135.93 103.68 133.65 106.47 132.6 109.26 131.54 112.9 132.11 114.47 134.65 115.83 136.84 115.33 139.83 116.75 141.98 118.01 139.69 121.35 140.02 123.88 140.66 127.97 141.68 132.07 142.71 136.17 143.75Z" fill="#EBFBFF" clip-path="url(#SVGID_2_)"/><g clip-path="url(#SVGID_2_)"><g><path d="M242.18 18.48C217.68 21.54 202.28 49 178.05 53.73 171.67 54.98 165.1 54.53 158.61 54.85 154.28 55.06 149.99 55.62 145.7 56.31 142.19 55.62 138.31 55.08 137.11 54.74 131.68 53.21 126.28 51.52 120.72 50.5 105.2 47.65 88.69 50.57 75.07 58.55 90.64 53.35 107.59 52.36 123.66 55.71 127.21 56.45 130.72 57.39 134.22 58.31 132.42 58.63 130.62 58.95 128.82 59.24 120.22 60.62 111.44 61.48 103.28 64.53 92.98 68.39 84.27 75.5 75.76 82.49 86.82 76.57 98.9 72.83 110.88 69.13 118.97 66.63 127.16 64.12 135.62 63.75 142.04 63.47 148.41 64.44 154.8 65.33 148 68.79 141.49 72.82 135.34 77.33 132.22 78.41 129.04 79.31 125.8 79.95 119.55 81.19 113.14 81.58 106.96 83.16 98.29 85.37 90.38 89.85 82.96 94.84 87.41 92.54 91.89 90.23 96.71 88.88 103.35 87.02 110.36 87.03 117.14 85.8 120.89 85.12 124.67 84.09 128.34 82.8 119.82 89.89 112.12 97.96 105.5 106.84 111.92 102.01 118.35 97.19 124.78 92.39 137.74 82.7 151.06 72.92 165.79 66.51 166.69 66.56 167.59 66.6 168.49 66.61 178.81 66.74 189.16 64.13 198.18 59.12 204.44 55.64 210.01 51.07 216.16 47.4 227.87 40.41 241.61 36.87 255.24 37.31L242.18 18.48Z" fill="#56453E"/><path d="M102.87 48.48C104.91 47.96 106.77 46.88 108.79 46.27 111.83 45.35 115.2 45.54 118.11 46.81 120.07 47.66 121.87 49 123.97 49.39 127.62 50.07 131.38 47.79 134.98 48.67 136.82 49.12 138.41 50.36 140.26 50.74 143.07 51.32 145.93 49.87 148.79 50.04 151.87 50.22 154.67 52.27 157.75 52.16 160.61 52.06 163.05 50.13 165.77 49.24 172.53 47.01 180.27 51.29 186.88 48.68 189.98 47.45 192.46 44.82 195.72 44.08 196.41 43.92 197.25 43.91 197.67 44.47 198.31 45.31 197.44 46.46 196.57 47.07 195.01 48.17 193.27 48.98 191.52 49.74 177.12 56.01 161.31 58.99 145.62 58.4 143.54 58.32 141.45 58.18 139.43 57.66 137.72 57.22 136.09 56.51 134.42 55.91 131.82 54.98 129.12 54.34 126.42 53.74 119.29 52.16 112.05 50.85 104.75 50.78 101.78 50.75 98.8 50.93 95.86 51.38 94.41 51.6 91.26 53.18 91.01 51.13 90.55 47.2 100.72 49.03 102.87 48.48Z" fill="#FFFFFF"/><path d="M112.26 58.51C108.76 59.66 105.51 61.47 102.05 62.72 98.44 64.03 94.62 64.71 91.05 66.13 87.48 67.55 84.04 69.88 82.47 73.39 82.2 73.99 82.02 74.77 82.48 75.24 82.89 75.66 83.57 75.59 84.14 75.45 89.02 74.27 92.92 70.62 97.58 68.73 99.86 67.8 102.3 67.32 104.65 66.56 110.08 64.8 114.96 62 120.6 60.84 122.64 60.42 123.12 59.1 120.92 57.85 118.61 56.56 114.56 57.75 112.26 58.51Z" fill="#FFFFFF"/><path d="M128.42 75.05C125.63 75.57 122.73 75.71 120.09 76.77 118.24 77.51 116.59 78.69 114.71 79.35 111.37 80.52 107.66 79.95 104.21 80.73 99.94 81.7 96.43 84.62 93.09 87.45 94.66 88 96.4 87.76 98.01 87.32 103.71 85.77 109.11 81.83 114.94 82.81 115.91 82.97 116.87 83.28 117.85 83.29 121.78 83.36 124.64 79.07 128.56 78.76 129.89 78.65 131.23 79.03 132.57 78.95 135.07 78.79 143.24 75.56 140.59 72.03 139.21 70.2 137.64 71.79 136.05 72.55 133.63 73.72 131.05 74.56 128.42 75.05Z" fill="#FFFFFF"/></g></g></g><g><circle cx="122.87" cy="122.64" r="4.8" fill="#FFFFFF"/><ellipse cx="161.76" cy="92.8" rx="3.73" ry="3.73" fill="#FFFFFF" transform="matrix(0.1586 -0.9873 0.9873 0.1586 44.4828 237.803)"/><path d="M143.11 112.52C143.11 114.58 141.44 116.25 139.38 116.25 137.32 116.25 135.65 114.58 135.65 112.52 135.65 110.46 137.32 108.79 139.38 108.79 141.44 108.79 143.11 110.46 143.11 112.52Z" fill="#FFFFFF"/><path d="M73.85 91.74C73.85 93.51 72.42 94.94 70.65 94.94 68.88 94.94 67.45 93.51 67.45 91.74 67.45 89.97 68.88 88.54 70.65 88.54 72.42 88.54 73.85 89.97 73.85 91.74Z" fill="#FFFFFF"/><circle cx="186.27" cy="17.68" r="3.73" fill="#FFFFFF"/><circle cx="177.21" cy="137.03" r="4.26" fill="#FFFFFF"/><path d="M218.24 112.52C218.24 114.58 216.57 116.25 214.51 116.25 212.45 116.25 210.78 114.58 210.78 112.52 210.78 110.46 212.45 108.79 214.51 108.79 216.57 108.79 218.24 110.46 218.24 112.52Z" fill="#FFFFFF"/><path d="M126.06 196.7C126.06 198.76 124.39 200.43 122.33 200.43 120.27 200.43 118.6 198.76 118.6 196.7 118.6 194.64 120.27 192.97 122.33 192.97 124.39 192.97 126.06 194.64 126.06 196.7Z" fill="#FFFFFF"/><circle cx="160.7" cy="181.78" r="3.2" fill="#FFFFFF"/><path d="M144.18 241.46C144.18 243.23 142.75 244.66 140.98 244.66 139.21 244.66 137.78 243.23 137.78 241.46 137.78 239.69 139.21 238.26 140.98 238.26 142.75 238.26 144.18 239.69 144.18 241.46Z" fill="#FFFFFF"/><path d="M151.11 220.15C151.11 221.62 149.92 222.81 148.45 222.81 146.98 222.81 145.79 221.62 145.79 220.15 145.79 218.68 146.98 217.49 148.45 217.49 149.92 217.49 151.11 218.67 151.11 220.15Z" fill="#FFFFFF"/><circle cx="228.36" cy="231.33" r="4.8" fill="#FFFFFF"/><path d="M130.86 311.26C130.86 312.73 129.67 313.92 128.2 313.92 126.73 313.92 125.54 312.73 125.54 311.26 125.54 309.79 126.73 308.6 128.2 308.6 129.67 308.59 130.86 309.79 130.86 311.26Z" fill="#FFFFFF"/><path d="M88.77 278.22C88.77 281.16 86.38 283.55 83.44 283.55 80.5 283.55 78.11 281.16 78.11 278.22 78.11 275.28 80.5 272.89 83.44 272.89 86.38 272.89 88.77 275.28 88.77 278.22Z" fill="#FFFFFF"/><path d="M108.48 254.78C108.48 255.96 107.53 256.91 106.35 256.91 105.17 256.91 104.22 255.96 104.22 254.78 104.22 253.6 105.17 252.65 106.35 252.65 107.53 252.65 108.48 253.6 108.48 254.78Z" fill="#FFFFFF"/><circle cx="70.65" cy="241.46" r="3.73" fill="#FFFFFF"/><path d="M85.04 216.42C85.04 218.19 83.61 219.62 81.84 219.62 80.07 219.62 78.64 218.19 78.64 216.42 78.64 214.65 80.07 213.22 81.84 213.22 83.61 213.22 85.04 214.65 85.04 216.42Z" fill="#FFFFFF"/><path d="M53.6 259.04C53.6 260.81 52.17 262.24 50.4 262.24 48.63 262.24 47.2 260.81 47.2 259.04 47.2 257.27 48.63 255.84 50.4 255.84 52.17 255.84 53.6 257.28 53.6 259.04Z" fill="#FFFFFF"/><path d="M130.33 343.23C130.33 345.29 128.66 346.96 126.6 346.96 124.54 346.96 122.87 345.29 122.87 343.23 122.87 341.17 124.54 339.5 126.6 339.5 128.66 339.5 130.33 341.17 130.33 343.23Z" fill="#FFFFFF"/><path d="M120.2 377.86C120.2 381.39 117.34 384.25 113.81 384.25 110.28 384.25 107.42 381.39 107.42 377.86 107.42 374.33 110.28 371.47 113.81 371.47 117.34 371.46 120.2 374.33 120.2 377.86Z" fill="#FFFFFF"/><path d="M182.01 360.81C182.01 364.05 179.39 366.67 176.15 366.67 172.91 366.67 170.29 364.05 170.29 360.81 170.29 357.57 172.91 354.95 176.15 354.95 179.38 354.95 182.01 357.57 182.01 360.81Z" fill="#FFFFFF"/><circle cx="151.64" cy="400.77" r="5.86" fill="#FFFFFF"/><circle cx="215.58" cy="376.26" r="4.26" fill="#FFFFFF"/><circle cx="225.7" cy="180.72" r="4.26" fill="#FFFFFF"/><ellipse cx="209.18" cy="144.49" rx="3.2" ry="3.2" fill="#FFFFFF" transform="matrix(0.998 -0.063 0.063 0.998 -8.6917 13.4731)"/><path d="M220.9 66.16C220.9 67.93 219.47 69.36 217.7 69.36 215.93 69.36 214.5 67.93 214.5 66.16 214.5 64.39 215.93 62.96 217.7 62.96 219.47 62.96 220.9 64.4 220.9 66.16Z" fill="#FFFFFF"/><path d="M65.32 58.17C65.32 59.64 64.13 60.83 62.66 60.83 61.19 60.83 60 59.64 60 58.17 60 56.7 61.19 55.51 62.66 55.51 64.13 55.51 65.32 56.7 65.32 58.17Z" fill="#FFFFFF"/><circle cx="79.71" cy="16.61" r="4.8" fill="#FFFFFF"/><circle cx="101.02" cy="169" r="5.33" fill="#FFFFFF"/></g></g></svg>