<svg width="248.61" height="422.43" viewBox="0 0 248.61 422.43" xmlns="http://www.w3.org/2000/svg" xmlns:xlink="http://www.w3.org/1999/xlink" xml:space="preserve" overflow="hidden"><defs></defs><g><defs><path d="M218.56 20.98 218.56 401.45C218.56 413.04 209.17 422.43 197.58 422.43L43.03 422.43C31.44 422.43 22.04 413.04 22.04 401.45L22.04 20.98C22.04 9.39 31.44 0 43.03 0L197.58 0C209.17 0 218.56 9.39 218.56 20.98Z" id="SVGID_1_"/></defs><clipPath id="SVGID_2_"><use width="100%" height="100%" xlink:href="#SVGID_1_" overflow="visible"></use></clipPath><path d="M218.56 20.98 218.56 401.45C218.56 413.04 209.17 422.43 197.58 422.43L43.03 422.43C31.44 422.43 22.04 413.04 22.04 401.45L22.04 20.98C22.04 9.39 31.44 0 43.03 0L197.58 0C209.17 0 218.56 9.39 218.56 20.98Z" fill="#FFE3B6" clip-path="url(#SVGID_2_)"/><g clip-path="url(#SVGID_2_)"><path d="M228.9 59.36C226.9 51.99 218.48 47.43 210.93 48.63 203.39 49.84 197.17 55.91 194.5 63.06 191.83 70.22 192.32 78.26 194.49 85.58 192.87 81.38 191.19 77.08 188.18 73.73 185.17 70.38 180.51 68.14 176.15 69.25 170.88 70.59 167.72 77.23 170.01 82.16 167.06 79.95 162.6 80.54 159.81 82.95 157.02 85.36 155.76 89.19 155.76 92.87 155.76 96.56 156.88 100.15 158.18 103.59 154.15 102.04 149.77 100.74 145.56 101.69 141.35 102.64 137.53 106.58 138.17 110.85 129.23 107.96 118.88 109.96 111.66 115.97 116.34 116.69 121.1 115.91 125.81 115.45 135.03 114.54 144.31 114.8 153.57 114.98 185.25 115.61 216.95 115.29 248.62 114.04L228.9 59.36Z" fill="#FFF1DC"/><path d="M93.65 99.37C86.18 97.36 78.02 94.27 71.07 97.68 73.07 95.47 75.13 93.14 75.9 90.27 76.68 87.4 75.73 83.82 73.02 82.58 69.7 81.07 65.93 83.65 62.29 83.41 61.94 81.45 62.53 79.46 62.68 77.48 62.83 75.5 62.33 73.19 60.57 72.25 58.74 71.28 56.48 72.27 54.79 73.47 50.74 76.34 47.69 80.55 46.09 85.24 45.8 84.37 45.35 83.56 44.76 82.87 42.63 80.38 39.22 79.33 35.95 79.15 35.43 79.12 34.87 79.1 34.45 78.79 33.3 77.95 34.19 76.15 35.12 75.07 41.73 67.4 47.77 58.6 48.94 48.54 49.25 45.85 49.16 42.95 47.65 40.71 45.79 37.94 42.11 36.82 38.8 37.23 35.49 37.64 32.48 39.33 29.71 41.2 25.29 44.2 21.18 47.82 18.41 52.39 15.64 56.96 14.31 62.56 15.59 67.75L0 107.52C4.35 104.6 9.96 104.6 15.2 104.77 49.83 105.88 84.98 109.56 118.77 101.87 110.33 102.42 101.81 101.57 93.65 99.37Z" fill="#FFF1DC"/><path d="M113.6 47.85C139.65 47.43 165.7 47.01 191.75 46.59 190.85 42.94 189.71 38.93 186.55 36.89 181.88 33.88 175.78 36.78 171.03 39.66 172.04 32.14 170.98 24.36 168.02 17.37 166.8 14.5 165.22 11.71 162.91 9.62 160.6 7.53 157.46 6.19 154.36 6.58 149.66 7.17 146.31 11.34 143.89 15.41 141.16 19.99 138.92 24.86 137.23 29.92 134.64 25.23 128.51 22.85 123.43 24.54 118.35 26.24 114.89 31.82 115.63 37.13 112.33 33.77 106.87 32.75 102.57 34.7 101.45 35.21 100.35 35.97 99.92 37.12 99.49 38.27 100.04 39.83 101.24 40.08 90.79 39.08 79.99 42.27 71.77 48.79 74.13 49.92 76.82 50.08 79.44 50.15 90.88 50.48 102.33 49.71 113.6 47.85Z" fill="#FFF1DC"/></g><path d="M218.56 185.74 218.56 224.41C218.15 224.48 217.74 224.54 217.33 224.59 201.6 226.78 185.61 227.09 169.8 225.5 167.26 225.24 164.72 224.94 162.19 224.59 137.72 221.26 113.75 214.26 89.13 212.11L89.66 190.73 89.69 189.36C102.31 179.5 114.93 169.64 127.7 159.97 137.15 152.81 146.69 145.77 156.36 138.92 158.64 137.3 161.05 135.65 163.83 135.32 166.61 135 169.81 136.52 170.37 139.26 170.91 141.93 168.98 145.12 170.73 147.19 171.38 147.97 172.4 148.33 173.4 148.5 177.61 149.2 181.71 146.99 185.92 146.23 187.2 146 188.62 145.93 189.69 146.67 191.69 148.07 191.16 151.17 192.17 153.39 194.35 158.21 201.86 156.72 206.09 159.88 210.96 163.53 209.36 171.15 211.44 176.87 212.75 180.48 215.56 183.28 218.56 185.74Z" fill="#E8C085" clip-path="url(#SVGID_2_)"/><path d="M218.56 211.56 218.56 230.3C217.36 230.53 216.17 230.76 214.97 231 201.22 233.71 187.52 236.81 173.69 239.07 143.52 244.01 112.78 244.89 82.3 242.87 66.62 241.83 51 240.02 35.47 237.61 32.09 237.09 27.23 236.75 22.04 236.17L22.04 186.68C27.47 181.12 32.89 175.55 38.32 169.99 49.86 158.15 61.65 146.13 76.22 138.29 76.99 137.88 77.84 137.46 78.7 137.58 79.38 137.68 79.96 138.08 80.52 138.48 83.75 140.77 86.96 144.3 90.85 144.48 94.95 144.67 98.57 140.47 102.8 142.86 106.11 144.72 106.24 149.36 108.04 152.71 111.28 158.72 119.34 159.74 126.16 159.92 126.67 159.93 127.18 159.95 127.7 159.97 134.16 160.23 141.25 161.2 144.63 166.55 146.3 169.19 146.7 172.45 148.21 175.19 151.56 181.25 159.32 183.15 166.23 183.59 173.14 184.04 180.56 183.79 186.34 187.62 192.06 191.4 194.82 198.36 199.88 203 204.98 207.69 211.84 209.57 218.56 211.56Z" fill="#C99A5B" clip-path="url(#SVGID_2_)"/><path d="M218.56 221.34 218.56 228.9C217.37 229.61 216.17 230.31 214.97 231 188.03 246.68 159.47 259.8 129.02 266.05 93.15 273.42 54.2 270.53 22.45 252.29 22.31 252.21 22.18 252.13 22.04 252.05L22.04 200.81C26.68 197.62 31.32 194.44 35.97 191.26 38.98 189.19 42.49 187.3 45.2 184.84 47.12 183.09 48.33 181.1 51.28 180.91 55.59 180.62 57.18 186.03 61.4 186.99 65.28 187.88 69.31 186.95 73.24 186.29 77.17 185.62 81.41 185.25 84.94 187.1 86.7 188.03 88.14 189.44 89.66 190.73 90.44 191.39 91.25 192.02 92.12 192.54 99.47 196.9 109.1 192.18 117.35 194.44 123.05 196.01 127.4 200.74 132.98 202.7 138.77 204.74 145.12 203.57 151.26 203.57 166.68 203.59 180.94 211.08 195.57 215.93 203.06 218.41 210.76 220.22 218.56 221.34Z" fill="#AF7E45" clip-path="url(#SVGID_2_)"/><path d="M218.56 224.59 218.56 401.45C218.56 413.04 209.17 422.43 197.58 422.43L43.03 422.43C31.44 422.43 22.04 413.04 22.04 401.45L22.04 224.59 218.56 224.59Z" fill="#FFC550" clip-path="url(#SVGID_2_)"/><path d="M218.56 346.24 218.56 369.31C211.91 373.89 204.34 377.48 196.89 380.46 161.56 394.56 123.03 400.59 85.09 397.96 63.5 396.46 41.89 392.09 22.04 383.63L22.04 300.45C43.9 308.48 66.81 313.47 89.6 318.42 126.84 326.52 164.07 334.61 201.31 342.71 207.04 343.95 212.78 345.2 218.56 346.24Z" fill="#FFD68D" clip-path="url(#SVGID_2_)"/><path d="M218.56 355.24 218.56 401.45C218.56 413.04 209.17 422.43 197.58 422.43L43.03 422.43C31.44 422.43 22.04 413.04 22.04 401.45L22.04 312.06C86.72 329.92 152.35 344.34 218.56 355.24Z" fill="#C69775" clip-path="url(#SVGID_2_)"/><path d="M228.63 17.47C218.5 26.16 207.71 35.17 194.59 37.6 190.54 38.35 186.37 38.45 182.35 39.33 174.09 41.14 165.77 46.23 157.78 43.46 154.74 42.41 152.17 40.3 149.16 39.18 145.74 37.91 141.99 37.99 138.35 37.64 127.86 36.63 118.02 31.97 107.81 29.46 101.87 26.01 95.56 23.19 88.87 21.71 80.07 19.76 70.51 20.27 62.5 24.4 73.76 23.01 85.32 24.24 96.06 27.85 85.14 27.77 74.49 31.84 64.65 36.7 72.24 33.87 80.51 33.69 88.6 33.53 97.06 33.37 105.88 33.28 113.52 36.92 118.35 39.22 122.54 42.94 127.64 44.46 125.79 44.75 123.96 45.17 122.17 45.7 116.33 47.41 110.87 50.14 105.46 52.93 101.73 53.27 97.91 53.07 94.17 52.72 87.3 52.08 80.36 51 73.56 52.14 65.59 53.48 58.44 57.76 51.73 62.27 58.79 59.11 66.07 55.9 73.8 55.62 74.57 55.59 75.33 55.6 76.1 55.62 74.39 57.19 72.85 59.32 71.23 60.83 66.3 65.44 61 69.63 55.4 73.38 62.1 70.51 68.43 66.81 74.21 62.38 76.87 60.34 79.42 58.14 82.18 56.26 85.57 56.78 88.95 57.5 92.35 57.96 93.36 58.1 94.39 58.21 95.42 58.28 92.15 60.14 88.95 62.13 85.96 64.41 82.53 67.03 79.41 70 76.56 73.23 64.79 75.55 53.9 82.24 46.6 91.78 51.49 87.42 56.55 82.96 62.72 80.73 65.84 79.6 69.16 79.08 72.3 78.01 72.49 77.95 72.67 77.87 72.85 77.8 69.24 82.62 66.17 87.86 63.62 93.31 63.3 93.99 63.04 94.92 63.63 95.38 76.48 77.89 92.9 62.34 113.1 54.45 117.87 52.59 122.84 51.16 127.94 50.6 131.61 50.2 135.31 50.25 139 50.3 141.91 50.34 144.82 50.38 147.73 50.42 142.76 51.26 137.79 52.17 132.87 53.27 124.25 60.4 114.3 65.92 103.68 69.44 107.89 70.22 112.23 69.4 116.33 68.19 120.75 66.88 125.04 65.09 129.08 62.86 135.38 59.39 141.27 54.81 148.29 53.25 150.17 52.83 152.09 52.65 154.01 52.58 163.35 54.93 173.54 53.94 182.93 51.34 194.82 48.04 205.89 42.38 217.45 38.05 223.49 35.79 229.66 33.89 235.82 32L228.63 17.47Z" fill="#7A4C32" clip-path="url(#SVGID_2_)"/><g clip-path="url(#SVGID_2_)"><path d="M127.28 231.2C127.27 229.99 127.3 228.74 127.73 227.61 128.87 224.6 132.3 223.28 134.86 221.33 138.4 218.64 140.49 214.4 141.45 210.06 142.4 205.72 142.33 201.23 142.24 196.79 140.93 196.95 139.89 198.07 139.43 199.31 138.97 200.55 138.96 201.91 138.92 203.23 138.85 205.4 138.68 207.59 138.02 209.65 136.71 213.7 133.64 216.9 130.59 219.86 129.48 220.94 128.34 222.02 126.94 222.68 123.83 224.14 119.74 223 117.84 220.14 116.84 218.63 116.46 216.84 116.32 215.01 116.48 215.01 116.65 215 116.81 214.99 121.11 214.57 126.07 212.1 126.87 207.61 127.42 204.57 127.96 201.52 128.51 198.48 127.29 198.23 126.04 198.2 124.81 198.38 125.97 198.21 124.98 204.85 124.76 205.42 123.98 207.51 122.76 209.21 120.7 210.19 119.3 210.86 117.77 211.2 116.25 211.57 116.33 204.85 116.97 198.02 119.65 191.86L114.13 195.01C112.99 198.8 112.13 202.68 111.56 206.59 110.86 211.45 110.69 216.75 113.28 220.92 114.96 223.62 117.62 225.55 119.58 228.05 121.94 231.04 123.23 234.76 123.85 238.52 124.18 240.51 124.32 242.52 124.39 244.54 125.93 244.55 127.47 244.56 129.02 244.57 127.91 240.22 127.32 235.71 127.28 231.2Z" fill="#77461D"/><path d="M120.72 160.76C117.38 161.73 114.64 164.16 112.4 166.82 108.46 171.5 105.67 177.13 104.33 183.09 104.22 183.6 104.09 184.15 103.71 184.51 103.1 185.08 102.15 184.93 101.33 184.79 97.64 184.16 93.74 184.48 90.34 186.03 86.94 187.59 84.08 190.45 82.87 193.99 82.63 194.7 82.45 195.46 82.59 196.19 82.75 197.04 83.3 197.76 83.92 198.37 87.51 201.86 93.28 201.91 98.09 200.5 100.02 199.94 102.06 199.17 103.97 199.77 105.38 200.21 106.45 201.32 107.58 202.27 111.52 205.6 116.77 207.33 121.92 207.01 127.07 206.68 132.06 204.3 135.55 200.5 141.81 205.18 151.5 203.59 156.74 197.79 157.99 196.4 159.04 194.78 159.52 192.97 160.26 190.17 159.57 187.18 158.53 184.48 157.08 180.71 154.87 177.09 151.65 174.58 148.73 172.3 145.21 170.96 142.27 168.64 136.41 164.06 128.62 158.47 120.72 160.76Z" fill="#AA5D29"/></g><g clip-path="url(#SVGID_2_)"><path d="M174.23 228.67C173.42 241.93 172.61 255.19 171.8 268.44 177.22 266.01 183.75 270.86 189.33 268.81 186.04 254.23 184.09 239.35 183.52 224.41" fill="#4F2422"/><g><path d="M157.77 200.45C153.2 210.47 148.64 220.48 144.07 230.5 142.21 234.59 140.34 238.69 139.13 243.02 138.88 243.91 138.66 244.89 139.03 245.74 139.51 246.86 140.89 247.38 142.1 247.19 143.3 247.01 144.35 246.27 145.27 245.47 147.93 243.16 149.93 240.19 151.88 237.25 151.1 241.2 150.32 245.15 149.53 249.1 149.4 249.78 149.28 250.53 149.66 251.11 150.17 251.88 151.36 251.9 152.13 251.4 152.9 250.9 153.36 250.04 153.78 249.22 155.73 245.44 157.67 241.66 159.62 237.88 159.06 242.16 158.53 246.69 160.22 250.66 160.51 251.33 160.88 252.02 161.51 252.39 163.08 253.32 164.98 251.86 166.06 250.39 168.67 246.81 170.17 242.43 170.28 238 170.28 241.16 170.67 244.32 171.45 247.38 171.88 249.06 173.07 251.11 174.75 250.67 175.84 250.39 176.36 249.18 176.7 248.11 177.82 244.59 178.57 240.96 178.95 237.29 179.19 240.3 179.88 243.27 180.99 246.08 181.39 247.08 181.87 248.11 182.74 248.75 183.6 249.39 184.95 249.51 185.7 248.74 186.12 248.3 186.28 247.68 186.41 247.09 187.22 243.44 187.67 239.71 187.76 235.97 188.63 238.11 188.76 240.48 189.43 242.69 190.1 244.9 191.58 247.13 193.84 247.6 194.47 243.69 194.67 239.7 194.43 235.74 195.06 239.05 196.3 242.25 198.08 245.12 198.6 245.96 199.2 246.8 200.05 247.3 200.9 247.8 202.08 247.88 202.83 247.24 203.7 246.5 203.69 245.17 203.61 244.02 203.4 241.11 203.19 238.2 202.98 235.28 204.66 239.75 206.86 244.51 211.16 246.59 212.45 247.22 214.13 247.52 215.24 246.61 215.93 246.05 216.24 245.15 216.41 244.27 217.19 240.2 215.53 236.09 213.9 232.28 211.69 227.1 209.48 221.92 207.27 216.74 204.73 210.8 202.18 204.82 198.67 199.4 195.16 193.98 190.6 189.09 184.87 186.1 180.81 183.98 175.95 182.88 171.62 184.38" fill="#6B2720"/><path d="M149.07 203.31C147.63 207.32 146.2 211.35 145.23 215.5 145.96 216.15 147.1 215.52 147.84 214.88 153.31 210.13 157.92 204.4 161.38 198.04 159.74 203.61 159 209.44 159.18 215.24 159.25 217.32 159.97 219.97 162.04 220.13 164.1 220.29 165.22 217.82 165.73 215.82 166.98 210.95 168.23 206.08 169.47 201.21 171.81 206.35 170.37 212.93 173.77 217.44 174.42 218.3 175.36 219.1 176.44 219.01 178.2 218.88 178.9 216.69 179.16 214.94 179.83 210.41 180.49 205.89 181.16 201.36 181.4 206.13 182.66 210.85 184.83 215.11 185.32 216.07 185.89 217.05 186.78 217.66 187.67 218.27 188.98 218.4 189.79 217.68 190.4 217.14 190.6 216.27 190.73 215.46 191.57 210.55 191.74 205.52 191.22 200.56 192.53 205.85 194.07 211.53 198.32 214.95 198.84 215.37 199.61 215.75 200.14 215.34 200.48 215.07 200.55 214.58 200.57 214.14 200.83 209.69 200 205.26 199.18 200.88 199.98 204.2 201.46 207.36 203.49 210.11 204.3 211.2 205.24 212.26 206.51 212.73 207.78 213.2 209.43 212.88 210.09 211.71 210.49 211.01 210.47 210.16 210.38 209.36 210.06 206.46 208.89 203.74 207.74 201.06 205.18 195.13 202.62 189.2 200.07 183.27 196.83 175.76 193.59 168.25 189.96 160.92 187.75 156.44 184.32 147.84 178.87 146.52 174.88 145.55 169.19 149.26 166.82 152.37 164.71 155.15 164.17 158.74 163.35 162.05 161.88 168.06 159.6 173.82 157.52 179.64 154.72 187.52 151.9 195.42 149.07 203.31Z" fill="#873629"/><path d="M156.54 167.47C155.15 170.1 153.7 173.08 154.56 175.93 156.95 176.07 158.95 174.21 160.54 172.42 163.75 168.82 166.68 164.97 169.27 160.91 168.37 164.72 167.98 168.64 168.1 172.55 168.15 174.19 168.34 175.94 169.41 177.18 169.73 177.55 170.16 177.87 170.65 177.91 171.77 178 172.42 176.69 172.76 175.62 174.39 170.38 176.01 165.15 177.64 159.91 178.18 166.21 179.06 173.19 183.87 177.29 186.57 172.33 182.93 166.15 184.02 160.61 185.05 164.23 186.11 167.91 188.19 171.05 190.27 174.19 193.57 176.74 197.33 176.97 197.76 177 198.21 176.98 198.57 176.76 199.1 176.43 199.27 175.74 199.34 175.12 199.71 171.97 198.73 168.85 197.74 165.83 195.91 160.23 194.03 154.65 192.16 149.07 190.02 142.73 187.89 136.38 185.75 130.04 183.87 124.44 182.39 119 178.71 114.23 178.5 113.96 178.26 113.67 177.93 113.59 177.66 113.52 177.38 113.6 177.14 113.72 173.36 115.59 173.44 125.22 172.63 128.72 169.45 142.51 163.13 155.02 156.54 167.47Z" fill="#A35240"/></g></g><g clip-path="url(#SVGID_2_)"><path d="M120.1 79.89C121.54 80.22 122.98 80.54 124.42 80.87 120.39 81.43 116.54 83.18 113.48 85.85 115.12 85.85 116.75 85.63 118.34 85.21 115.9 86.57 113.95 88.77 112.89 91.35 111.64 94.41 111.45 98.2 108.83 100.22 115.92 99.94 122.85 96.63 127.53 91.29 127.55 92.58 127.58 93.88 127.6 95.17 130.12 92.79 132.12 89.86 133.42 86.65 133.61 88.43 134.1 90.18 134.87 91.8 134.83 91.72 137.03 88.68 137.23 88.27 137.9 86.9 138.43 85.39 138.66 83.88 138.98 81.77 138.72 80 136.79 78.85 132.18 76.1 124.5 77.55 120.1 79.89Z" fill="#FFC440"/><path d="M141.32 78.23C139 77.97 136.4 78.95 134.24 79.72 131.91 80.54 129.68 81.68 127.58 82.98 123.45 85.52 119.82 88.71 116.93 92.62 116.9 92.66 116.97 92.71 117 92.67 120.2 89.11 124.01 86.04 128.27 83.84 130.42 82.73 132.66 81.86 134.96 81.12 137.13 80.41 139.51 80.2 141.61 79.3 142.19 79.04 141.8 78.29 141.32 78.23Z" fill="#774A1E"/></g><g clip-path="url(#SVGID_2_)"><path d="M70.54 175.38C69.12 174.97 67.7 174.56 66.29 174.14 70.34 173.83 74.29 172.31 77.51 169.83 75.88 169.74 74.23 169.85 72.62 170.18 75.14 168.97 77.22 166.89 78.43 164.38 79.87 161.4 80.29 157.63 83.02 155.77 75.92 155.62 68.81 158.51 63.82 163.56 63.87 162.27 63.93 160.97 63.98 159.68 61.32 161.9 59.14 164.71 57.66 167.84 57.58 166.05 57.19 164.28 56.52 162.61 56.55 162.69 54.18 165.59 53.95 165.99 53.19 167.32 52.58 168.79 52.25 170.29 51.8 172.37 51.96 174.16 53.81 175.42 58.25 178.43 66.01 177.44 70.54 175.38Z" fill="#FFC440"/><path d="M49.26 175.75C51.56 176.15 54.21 175.33 56.42 174.69 58.79 174.01 61.09 173.01 63.27 171.84 67.54 169.55 71.36 166.58 74.48 162.86 74.51 162.82 74.45 162.77 74.41 162.8 71 166.17 67 169 62.62 170.94 60.41 171.92 58.12 172.65 55.78 173.26 53.57 173.83 51.18 173.91 49.03 174.68 48.44 174.89 48.78 175.67 49.26 175.75Z" fill="#774A1E"/></g><g clip-path="url(#SVGID_2_)"><path d="M50.15 366.94C49.46 365.64 48.76 364.33 48.07 363.03 51.12 365.72 54.96 367.49 58.99 368.07 57.92 366.83 56.69 365.73 55.33 364.81 57.95 365.77 60.9 365.81 63.54 364.93 66.68 363.88 69.68 361.55 72.91 362.22 68.07 357.03 61.04 353.94 53.94 353.89 54.91 353.03 55.87 352.16 56.84 351.3 53.39 350.94 49.87 351.34 46.58 352.46 47.81 351.15 48.81 349.64 49.53 348 49.49 348.08 45.76 348.4 45.32 348.51 43.84 348.89 42.36 349.48 41.06 350.29 39.25 351.42 38.08 352.78 38.47 354.99 39.4 360.27 45.52 365.14 50.15 366.94Z" fill="#FFC440"/><path d="M35.05 351.95C36.37 353.88 38.81 355.2 40.8 356.34 42.94 357.57 45.26 358.51 47.61 359.26 52.23 360.73 57.02 361.39 61.86 361.03 61.91 361.03 61.91 360.94 61.86 360.94 57.08 360.84 52.26 359.96 47.82 358.17 45.58 357.27 43.45 356.13 41.39 354.88 39.44 353.69 37.72 352.03 35.67 351.03 35.1 350.76 34.77 351.55 35.05 351.95Z" fill="#774A1E"/></g><g clip-path="url(#SVGID_2_)"><path d="M141.08 287.51C140.1 287.09 139.11 286.66 138.13 286.24 141.08 286.38 144.06 285.64 146.61 284.15 145.44 283.93 144.24 283.87 143.06 283.96 144.98 283.32 146.67 282.01 147.77 280.3 149.07 278.28 149.72 275.6 151.86 274.51 146.76 273.76 141.37 275.2 137.32 278.39 137.48 277.46 137.63 276.53 137.79 275.61 135.67 276.97 133.85 278.79 132.5 280.92 132.6 279.62 132.48 278.31 132.15 277.05 132.17 277.11 130.19 278.99 129.99 279.25 129.33 280.14 128.75 281.14 128.38 282.19 127.87 283.65 127.82 284.95 129.04 286.03 131.95 288.6 137.63 288.59 141.08 287.51Z" fill="#FFC440"/><path d="M125.72 285.86C127.34 286.35 129.33 286 130.97 285.75 132.74 285.47 134.49 284.96 136.16 284.32 139.45 283.06 142.46 281.26 145.05 278.86 145.08 278.84 145.04 278.79 145.01 278.81 142.25 280.92 139.12 282.6 135.79 283.61 134.11 284.12 132.39 284.43 130.65 284.66 129 284.87 127.28 284.71 125.66 285.07 125.2 285.16 125.38 285.75 125.72 285.86Z" fill="#774A1E"/></g><g clip-path="url(#SVGID_2_)"><path d="M183.42 98.57C182.73 97.27 182.03 95.96 181.34 94.66 184.39 97.35 188.23 99.12 192.26 99.7 191.19 98.46 189.96 97.36 188.6 96.44 191.22 97.4 194.17 97.44 196.81 96.56 199.95 95.51 202.95 93.18 206.18 93.85 201.34 88.66 194.31 85.57 187.21 85.52 188.18 84.66 189.14 83.79 190.11 82.93 186.66 82.57 183.14 82.97 179.85 84.09 181.08 82.78 182.08 81.27 182.8 79.63 182.76 79.71 179.03 80.03 178.59 80.14 177.11 80.52 175.63 81.11 174.33 81.92 172.52 83.05 171.35 84.41 171.74 86.62 172.67 91.9 178.79 96.77 183.42 98.57Z" fill="#D8702A"/><path d="M168.32 83.58C169.64 85.51 172.08 86.83 174.07 87.97 176.21 89.2 178.53 90.14 180.88 90.89 185.5 92.36 190.29 93.02 195.13 92.66 195.18 92.66 195.18 92.57 195.13 92.57 190.35 92.47 185.53 91.59 181.09 89.8 178.85 88.9 176.72 87.76 174.66 86.51 172.71 85.32 170.99 83.66 168.94 82.66 168.36 82.39 168.04 83.18 168.32 83.58Z" fill="#774A1E"/></g><g clip-path="url(#SVGID_2_)"><path d="M40.35 36.25C40.93 35.1 41.51 33.94 42.09 32.79 41.72 36.33 42.4 39.97 44.02 43.13 44.36 41.74 44.52 40.3 44.5 38.87 45.14 41.23 46.6 43.35 48.57 44.79 50.91 46.5 54.09 47.46 55.25 50.11 56.5 44.02 55.15 37.45 51.59 32.35 52.7 32.6 53.8 32.85 54.91 33.1 53.42 30.46 51.35 28.14 48.89 26.37 50.44 26.58 52.03 26.53 53.57 26.22 53.49 26.24 51.38 23.73 51.07 23.47 50.05 22.61 48.88 21.85 47.64 21.33 45.92 20.61 44.36 20.46 42.97 21.86 39.67 25.19 39.29 32.02 40.35 36.25Z" fill="#D8702A"/><path d="M43.4 17.88C42.69 19.8 42.98 22.21 43.17 24.21 43.38 26.36 43.88 28.5 44.54 30.55 45.83 34.59 47.78 38.34 50.49 41.62 50.52 41.65 50.58 41.61 50.55 41.57 48.2 38.11 46.39 34.22 45.42 30.14 44.93 28.08 44.66 25.99 44.51 23.89 44.37 21.89 44.68 19.83 44.36 17.86 44.27 17.31 43.55 17.48 43.4 17.88Z" fill="#774A1E"/></g><g clip-path="url(#SVGID_2_)"><path d="M61.85 122.06C62.4 123.23 62.94 124.4 63.49 125.57 60.95 123.08 57.68 121.35 54.19 120.66 55.07 121.79 56.09 122.81 57.23 123.68 54.99 122.72 52.41 122.54 50.06 123.19 47.27 123.96 44.54 125.86 41.74 125.12 45.73 129.88 51.73 132.91 57.93 133.29 57.05 134 56.16 134.71 55.28 135.42 58.28 135.9 61.38 135.71 64.3 134.89 63.17 135.97 62.22 137.25 61.51 138.65 61.55 138.58 64.83 138.48 65.21 138.4 66.52 138.13 67.84 137.69 69.02 137.04 70.65 136.14 71.74 135.01 71.5 133.05 70.94 128.4 65.82 123.85 61.85 122.06Z" fill="#D8702A"/><path d="M74.35 135.87C73.29 134.12 71.22 132.85 69.53 131.76 67.71 130.59 65.73 129.65 63.71 128.89 59.74 127.39 55.59 126.59 51.34 126.67 51.3 126.67 51.3 126.74 51.34 126.75 55.51 127.06 59.68 128.06 63.48 129.83 65.4 130.72 67.2 131.81 68.94 133 70.59 134.13 72.02 135.66 73.76 136.63 74.25 136.9 74.57 136.23 74.35 135.87Z" fill="#774A1E"/></g><g clip-path="url(#SVGID_2_)"><path d="M47.73 270.28C49 270.02 50.26 269.77 51.53 269.51 48.02 268.94 44.68 267.33 42.05 264.94 43.48 264.98 44.91 265.2 46.29 265.6 44.18 264.36 42.52 262.4 41.64 260.12 40.6 257.42 40.51 254.1 38.26 252.28 44.46 252.67 50.45 255.7 54.44 260.46 54.49 259.33 54.53 258.2 54.58 257.06 56.74 259.19 58.43 261.79 59.5 264.63 59.7 263.08 60.17 261.56 60.87 260.16 60.84 260.23 62.7 262.93 62.87 263.29 63.43 264.5 63.86 265.83 64.04 267.16 64.28 269.01 64.02 270.55 62.3 271.52 58.23 273.84 51.53 272.41 47.73 270.28Z" fill="#D8702A"/><path d="M66.26 272.15C64.22 272.33 61.97 271.42 60.1 270.71 58.08 269.94 56.15 268.9 54.34 267.73 50.78 265.42 47.67 262.56 45.22 259.09 45.19 259.05 45.25 259.01 45.28 259.04 48.01 262.22 51.28 264.98 54.96 266.99 56.82 268 58.76 268.81 60.76 269.51 62.65 270.17 64.73 270.41 66.54 271.23 67.04 271.46 66.69 272.12 66.26 272.15Z" fill="#774A1E"/></g><g clip-path="url(#SVGID_2_)"><path d="M96.73 400.03C98.3 399.71 99.88 399.39 101.45 399.08 97.09 398.38 92.94 396.38 89.68 393.4 91.46 393.44 93.23 393.72 94.94 394.22 92.32 392.68 90.25 390.24 89.17 387.41 87.88 384.05 87.77 379.93 84.97 377.67 92.67 378.15 100.12 381.91 105.07 387.84 105.13 386.43 105.19 385.03 105.24 383.62 107.92 386.27 110.03 389.5 111.35 393.03 111.6 391.1 112.18 389.21 113.06 387.47 113.02 387.56 115.33 390.91 115.54 391.36 116.24 392.87 116.77 394.52 116.99 396.17 117.29 398.47 116.96 400.39 114.83 401.59 109.76 404.45 101.45 402.68 96.73 400.03Z" fill="#BC5A50"/><path d="M119.75 402.35C117.22 402.57 114.43 401.44 112.09 400.56 109.58 399.61 107.18 398.32 104.93 396.86 100.51 393.99 96.64 390.44 93.6 386.13 93.57 386.08 93.64 386.03 93.68 386.07 97.07 390.02 101.14 393.45 105.71 395.94 108.01 397.2 110.44 398.2 112.91 399.06 115.26 399.88 117.84 400.18 120.09 401.2 120.71 401.49 120.27 402.31 119.75 402.35Z" fill="#774A1E"/></g><g clip-path="url(#SVGID_2_)"><path d="M162.71 329.77C163.33 328.82 163.95 327.87 164.57 326.92 162.05 328.77 158.99 329.86 155.88 330.03 156.78 329.16 157.8 328.4 158.9 327.79 156.83 328.35 154.58 328.18 152.61 327.32 150.28 326.3 148.15 324.32 145.63 324.61 149.69 320.97 155.27 319.09 160.71 319.53 160.03 318.8 159.35 318.08 158.67 317.35 161.33 317.31 164 317.85 166.43 318.93 165.58 317.85 164.92 316.62 164.48 315.32 164.5 315.38 167.34 315.88 167.67 316 168.77 316.4 169.87 316.94 170.81 317.65 172.12 318.64 172.92 319.75 172.47 321.42 171.39 325.4 166.38 328.71 162.71 329.77Z" fill="#BC5A50"/><path d="M175.28 319.34C174.14 320.72 172.19 321.57 170.59 322.31 168.87 323.1 167.03 323.67 165.18 324.08 161.55 324.89 157.84 325.07 154.16 324.47 154.12 324.46 154.13 324.4 154.17 324.4 157.83 324.65 161.58 324.3 165.1 323.24 166.88 322.7 168.58 321.98 170.24 321.16 171.82 320.39 173.24 319.23 174.88 318.61 175.33 318.42 175.52 319.05 175.28 319.34Z" fill="#774A1E"/></g><g clip-path="url(#SVGID_2_)"><path d="M118.9 137.62C119.71 137.46 120.53 137.29 121.34 137.13 119.08 136.77 116.94 135.73 115.25 134.19 116.17 134.21 117.09 134.36 117.97 134.61 116.62 133.82 115.55 132.55 114.98 131.09 114.31 129.35 114.26 127.22 112.81 126.05 116.79 126.3 120.65 128.25 123.21 131.31 123.24 130.58 123.27 129.85 123.3 129.13 124.69 130.5 125.78 132.17 126.46 134 126.59 133 126.89 132.02 127.34 131.12 127.32 131.16 128.51 132.9 128.62 133.13 128.98 133.91 129.26 134.76 129.37 135.62 129.53 136.81 129.35 137.8 128.25 138.42 125.64 139.91 121.34 138.99 118.9 137.62Z" fill="#BC5A50"/><path d="M130.81 138.82C129.5 138.94 128.06 138.35 126.85 137.89 125.55 137.4 124.31 136.73 123.15 135.97 120.86 134.49 118.86 132.65 117.29 130.42 117.27 130.4 117.31 130.37 117.33 130.39 119.08 132.43 121.19 134.21 123.55 135.5 124.74 136.15 125.99 136.67 127.28 137.12 128.49 137.54 129.83 137.7 130.99 138.23 131.31 138.38 131.08 138.8 130.81 138.82Z" fill="#774A1E"/></g></g></svg>