<svg width="2552.9" height="3248.72" viewBox="0 0 2552.9 3248.72" xmlns="http://www.w3.org/2000/svg" xmlns:xlink="http://www.w3.org/1999/xlink" xml:space="preserve" overflow="hidden"><style>
.MsftOfcResponsive_Fill_002060 {
 fill:#002060; 
}
</style>
<defs></defs><g><g><g><g><g><path d="M1550.99 316.27C1550.99 316.27 1632.16 166.68 1642.89 88.48 1642.89 88.48 1748.59 109.66 1772.63 169.64 1772.63 169.64 1768.06 67.49 1713.7 7.41 1713.7 7.41 1859.62 30.3 1894.91 194.34 1930.2 358.39 1550.99 316.27 1550.99 316.27Z" class="MsftOfcResponsive_Fill_002060" fill="#002060"/></g><g><path d="M1651.24 328.69C1596.97 328.69 1554.4 324.13 1550.17 323.67 1547.71 323.39 1545.55 321.91 1544.4 319.72 1543.26 317.53 1543.27 314.91 1544.46 312.74 1545.27 311.26 1625.11 163.44 1635.52 87.46 1635.8 85.43 1636.91 83.61 1638.58 82.42 1640.26 81.24 1642.35 80.76 1644.35 81.19 1648.1 81.94 1722.6 97.33 1761.59 139.29 1755.99 105.13 1742.06 49.84 1708.19 12.42 1706.08 10.08 1705.66 6.66 1707.16 3.9 1708.66 1.11 1711.64-0.35 1714.85 0.08 1716.36 0.31 1866.23 25.69 1902.17 192.78 1908.65 222.92 1902.45 248.69 1883.75 269.39 1839.36 318.53 1732.27 328.69 1651.24 328.69ZM1562.79 309.92C1611.98 314.1 1812.03 326.6 1872.72 259.43 1888.25 242.23 1893.13 221.45 1887.64 195.91 1861.38 73.84 1773.48 32.62 1733.04 19.91 1775.62 81.26 1779.88 165.42 1780.06 169.32 1780.22 172.95 1777.74 176.16 1774.2 176.91 1770.66 177.74 1767.09 175.78 1765.73 172.41 1747.07 125.84 1672.96 103.61 1648.96 97.54 1636.41 166.25 1580.48 276.27 1562.79 309.92Z" class="MsftOfcResponsive_Fill_002060" fill="#002060"/></g></g><g><g><g><g id="Artwork_25_2_"><g><g><ellipse cx="1444.26" cy="1104.36" rx="86.85" ry="86.85" class="MsftOfcResponsive_Fill_002060" fill="#002060" transform="matrix(0.7071 -0.7071 0.7071 0.7071 -357.89 1344.7)"/><path d="M1444.14 1198.65C1432.4 1198.65 1420.48 1196.44 1408.93 1191.78 1360.73 1172.3 1337.36 1117.24 1356.85 1069.04 1366.28 1045.69 1384.25 1027.42 1407.43 1017.57 1430.6 1007.74 1456.23 1007.51 1479.58 1016.95 1502.93 1026.39 1521.2 1044.36 1531.05 1067.53 1540.89 1090.72 1541.1 1116.34 1531.67 1139.68 1516.85 1176.35 1481.45 1198.65 1444.14 1198.65ZM1444.24 1024.91C1433.72 1024.91 1423.21 1027.03 1413.24 1031.27 1393.71 1039.55 1378.58 1054.95 1370.63 1074.62 1354.22 1115.21 1373.91 1161.58 1414.51 1177.99 1455.08 1194.42 1501.47 1174.71 1517.89 1134.12 1525.84 1114.46 1525.65 1092.87 1517.37 1073.35 1509.08 1053.82 1493.68 1038.7 1474.01 1030.75 1464.39 1026.85 1454.31 1024.91 1444.24 1024.91Z" class="MsftOfcResponsive_Fill_002060" fill="#002060"/></g></g></g><g id="Artwork_25_1_"><g><g><ellipse cx="2458.62" cy="780.63" rx="86.85" ry="86.85" class="MsftOfcResponsive_Fill_002060" fill="#002060" transform="matrix(0.7071 -0.7071 0.7071 0.7071 168.127 1967.15)"/><path d="M2458.64 874.95C2446.68 874.95 2434.72 872.66 2423.3 868.04 2375.11 848.56 2351.74 793.5 2371.22 745.3 2390.7 697.1 2445.72 673.71 2493.96 693.21 2542.15 712.69 2565.52 767.75 2546.04 815.95 2536.61 839.3 2518.64 857.57 2495.46 867.42 2483.61 872.44 2471.13 874.95 2458.64 874.95ZM2458.73 701.21C2427.3 701.21 2397.48 720 2384.99 750.88 2368.59 791.47 2388.28 837.84 2428.87 854.25 2448.53 862.21 2470.12 862.03 2489.64 853.73 2509.17 845.45 2524.3 830.05 2532.25 810.38L2532.25 810.38C2548.66 769.79 2528.98 723.42 2488.38 707.01 2478.67 703.07 2468.61 701.21 2458.73 701.21Z" class="MsftOfcResponsive_Fill_002060" fill="#002060"/></g></g></g></g><g><g><ellipse cx="1764.95" cy="1191.23" rx="27.04" ry="35.59" class="MsftOfcResponsive_Fill_002060" fill="#002060" transform="matrix(0.5 -0.866 0.866 0.5 -149.159 2124.12)"/><path d="M1772.79 1228.07C1764.38 1228.07 1755.65 1225.66 1747.72 1221.07 1738.09 1215.52 1730.64 1207.36 1726.75 1198.09 1722.56 1188.12 1722.9 1178.04 1727.69 1169.72 1737.2 1153.29 1761.64 1149.51 1782.19 1161.39 1791.82 1166.95 1799.27 1175.11 1803.16 1184.39 1807.35 1194.35 1807.01 1204.42 1802.21 1212.74 1797.41 1221.06 1788.85 1226.39 1778.12 1227.74 1776.37 1227.97 1774.59 1228.07 1772.79 1228.07ZM1757.07 1169.29C1749.81 1169.29 1743.55 1171.98 1740.56 1177.16 1738.14 1181.36 1738.1 1186.74 1740.44 1192.33 1743.08 1198.63 1748.3 1204.26 1755.13 1208.2 1761.96 1212.15 1769.43 1213.88 1776.24 1213.01 1782.26 1212.24 1786.9 1209.51 1789.32 1205.32L1789.32 1205.32C1791.74 1201.12 1791.79 1195.74 1789.44 1190.15 1786.8 1183.86 1781.58 1178.22 1774.74 1174.27 1768.97 1170.92 1762.72 1169.29 1757.07 1169.29Z" class="MsftOfcResponsive_Fill_002060" fill="#002060"/></g></g><g><g><ellipse cx="2265.24" cy="1031.39" rx="35.59" ry="27.04" class="MsftOfcResponsive_Fill_002060" fill="#002060" transform="matrix(0.0436 -0.999 0.999 0.0436 1135.97 3249.47)"/><path d="M2264.63 1074.4C2264.21 1074.4 2263.79 1074.4 2263.36 1074.39L2263.36 1074.39C2244.38 1073.55 2229.77 1053.59 2230.8 1029.89 2231.29 1018.78 2235.09 1008.4 2241.52 1000.67 2248.43 992.37 2257.35 988.08 2267.12 988.42 2286.11 989.26 2300.71 1009.21 2299.68 1032.9 2299.19 1044.02 2295.39 1054.4 2288.96 1062.14 2282.35 1070.07 2273.75 1074.4 2264.63 1074.4ZM2264.01 1059.52C2268.63 1059.82 2273.65 1057.28 2277.53 1052.62 2281.89 1047.36 2284.49 1040.13 2284.83 1032.25 2285.5 1017.01 2277.08 1003.74 2266.46 1003.27 2261.83 1002.88 2256.83 1005.51 2252.95 1010.17 2248.59 1015.41 2245.99 1022.66 2245.65 1030.52 2244.98 1045.78 2253.39 1059.05 2264.01 1059.52L2264.01 1059.52Z" class="MsftOfcResponsive_Fill_002060" fill="#002060"/></g></g></g><g><g><path d="M1865.67 371.28C1887.92 371.28 1924.69 414.88 1924.69 429.41 1924.69 443.94 1909.38 455.34 1893.84 457.59 1740.61 479.76 1843.42 371.28 1865.67 371.28Z" class="MsftOfcResponsive_Fill_002060" fill="#002060"/><path d="M1857.51 468.04C1832.68 468.04 1816.63 462.6 1808.81 451.63 1803.91 444.76 1800.16 432.52 1810.09 413.24 1822.22 389.69 1851.31 363.83 1865.67 363.83 1892.09 363.83 1932.13 410.39 1932.13 429.41 1932.13 448.28 1913.21 462.29 1894.91 464.95 1880.75 467.01 1868.3 468.04 1857.51 468.04ZM1865.67 378.71C1859.35 378.91 1833.4 399.33 1822.7 421.26 1819.47 427.87 1816.56 437.03 1820.99 443.1 1825.3 449.02 1840.4 457.84 1892.77 450.24 1904.54 448.54 1917.25 440.09 1917.25 429.42 1917.26 419.15 1883.67 378.72 1865.67 378.71L1865.67 378.71Z" class="MsftOfcResponsive_Fill_002060" fill="#002060"/></g></g><g><path d="M1982.74 314.79C2056.22 367.76 2152.77 335.58 2169.44 247.51 2106.56 200.83 2032.88 166.85 1946.22 157.27 1934.01 203.45 1927.12 274.7 1982.74 314.79Z" class="MsftOfcResponsive_Fill_002060" fill="#002060"/><path d="M2059.38 347.9C2031.51 347.9 2003.16 338.67 1978.39 320.81 1933.38 288.38 1919.4 229.62 1939.03 155.36 1939.97 151.8 1943.48 149.55 1947.04 149.87 2027.63 158.8 2103.94 189.64 2173.86 241.54 2176.15 243.24 2177.26 246.08 2176.73 248.89 2168.72 291.24 2142.39 324.21 2104.49 339.32 2090.08 345.07 2074.8 347.9 2059.38 347.9ZM1951.83 165.41C1940.44 212.68 1938.43 273.69 1987.09 308.76L1987.09 308.76C2021.41 333.53 2063.25 339.77 2098.99 325.51 2130.71 312.85 2153.18 285.72 2161.19 250.67 2096.33 203.42 2025.95 174.76 1951.83 165.41Z" class="MsftOfcResponsive_Fill_002060" fill="#002060"/></g><g><path d="M1580.13 402.8C1596.32 445.29 1670.16 440.23 1716.69 420.68 1763.22 401.13 1780.42 340.08 1755.13 297.6 1739.95 272.1 1679.96 239.68 1634.41 217.83 1593.07 237.44 1557.94 259.93 1528.1 284.73 1563.47 320.03 1566.1 365.97 1580.13 402.8Z" class="MsftOfcResponsive_Fill_002060" fill="#002060"/><path d="M1645.35 442.65C1630.14 442.65 1615.49 440.44 1603.15 435.14 1588.36 428.81 1578.27 418.82 1573.18 405.44L1573.18 405.44C1569.12 394.78 1566.09 383.75 1562.87 372.06 1555.02 343.52 1546.9 314 1522.86 289.99 1521.38 288.52 1520.59 286.49 1520.68 284.4 1520.77 282.31 1521.75 280.35 1523.35 279.01 1554.45 253.15 1590.74 230.3 1631.23 211.09 1633.26 210.12 1635.61 210.15 1637.63 211.1 1707 244.4 1748.69 272.22 1761.52 293.78 1775.24 316.82 1778.05 345.41 1769.23 372.19 1760.86 397.61 1742.76 417.78 1719.57 427.52 1698.99 436.18 1671.34 442.65 1645.35 442.65ZM1587.07 400.15C1590.68 409.62 1598.05 416.79 1609 421.48 1637.14 433.54 1683.03 426.76 1713.81 413.83 1733.03 405.74 1748.09 388.89 1755.1 367.56 1762.47 345.19 1760.09 320.46 1748.74 301.4 1737.93 283.24 1697.38 256.54 1634.4 226.07 1598.95 243.16 1566.9 263.11 1538.98 285.46 1561.51 311.06 1569.82 341.25 1577.21 368.13 1580.32 379.45 1583.26 390.15 1587.07 400.15L1587.07 400.15Z" class="MsftOfcResponsive_Fill_002060" fill="#002060"/></g></g></g></g><g><g><g><path d="M1833.94 1945.89C1833.94 1945.89 1877.95 1801.73 1921.95 1797.18 1965.96 1792.63 2019.83 1846.5 2025.9 1892.78 2031.97 1939.06 2004.66 1997.48 1946.99 2008.87 1889.33 2020.24 1816.49 1994.78 1833.94 1945.89Z" class="MsftOfcResponsive_Fill_002060" fill="#002060"/></g><g><path d="M1918.67 2019.01C1884.15 2019.01 1851.15 2007.83 1835.03 1989.13 1823.77 1976.08 1820.95 1960.33 1826.88 1943.56 1831.77 1927.58 1873.81 1794.69 1921.19 1789.78 1970.52 1784.57 2026.98 1843.89 2033.27 1891.8 2039.88 1942.25 2009.33 2004.13 1948.43 2016.15 1938.63 2018.09 1928.58 2019.01 1918.67 2019.01ZM1927.15 1804.34C1925.65 1804.34 1924.18 1804.41 1922.72 1804.56 1894.25 1807.51 1857.52 1894.15 1841.05 1948.07 1841.02 1948.17 1840.98 1948.29 1840.94 1948.39 1836.79 1960.05 1838.59 1970.49 1846.29 1979.43 1863.53 1999.42 1907.11 2009.12 1945.56 2001.57 1998.01 1991.22 2024.28 1937.53 2018.54 1893.74 2012.88 1850.7 1964.64 1804.34 1927.15 1804.34ZM1833.94 1945.89 1834.09 1945.89 1833.94 1945.89Z" class="MsftOfcResponsive_Fill_002060" fill="#002060"/></g></g></g><g><g><g><path d="M1974.76 2187.39C1945.41 2186.06 1926.21 2156.01 1936.43 2128.47 1945.03 2105.3 1960.82 2071.78 1982.35 2063.85 2016.05 2051.44 2066.3 2097.55 2058.61 2143.07 2054.05 2170.09 2010.22 2188.99 1974.76 2187.39Z" class="MsftOfcResponsive_Fill_002060" fill="#002060"/></g><g><path d="M1978.95 2194.91C1977.43 2194.91 1975.92 2194.88 1974.42 2194.81 1958.27 2194.08 1943.84 2185.88 1934.84 2172.29 1925.77 2158.61 1923.76 2141.26 1929.46 2125.89 1939.35 2099.22 1956.12 2065.6 1979.78 2056.87 1996.43 2050.71 2017.2 2056.06 2035.32 2071.08 2058.23 2090.08 2070.24 2118.83 2065.95 2144.29 2060.9 2174.13 2016.89 2194.91 1978.95 2194.91ZM1994.14 2069.25C1990.87 2069.25 1987.77 2069.76 1984.92 2070.8 1970.6 2076.08 1955.85 2097.48 1943.4 2131.05 1939.28 2142.16 1940.68 2154.19 1947.23 2164.08 1953.58 2173.66 1963.74 2179.44 1975.09 2179.96L1975.09 2179.96C2006.61 2181.05 2047.42 2164.66 2051.28 2141.82 2054.72 2121.48 2044.73 2098.19 2025.83 2082.51 2015.47 2073.93 2004.03 2069.25 1994.14 2069.25Z" class="MsftOfcResponsive_Fill_002060" fill="#002060"/></g></g></g><g><g><g><path d="M1749.29 2363.37C1749.29 2363.37 1748.79 2256.75 1789.84 2241.73 1830.89 2226.71 1910.98 2273.27 1918.49 2336.34 1925.99 2399.41 1754.79 2479.5 1749.29 2363.37Z" class="MsftOfcResponsive_Fill_002060" fill="#002060"/></g><g><path d="M1806.29 2430.01C1795.29 2430.01 1784.71 2428.01 1775.23 2423.39 1760.97 2416.46 1743.6 2400.48 1741.86 2363.71 1741.85 2363.61 1741.85 2363.51 1741.85 2363.39 1741.8 2351.95 1742.61 2251.08 1787.28 2234.75 1807.87 2227.23 1837.79 2233.09 1865.4 2250.05 1899.38 2270.93 1921.98 2302.85 1925.86 2335.47 1928.44 2357.19 1913.21 2382.1 1885.11 2402.11 1863.03 2417.82 1833.38 2430.01 1806.29 2430.01ZM1756.72 2363.16C1757.87 2386.75 1766.29 2402.52 1781.73 2410.02 1808.93 2423.25 1849.91 2408.92 1876.49 2389.99 1899.74 2373.45 1913 2353.23 1911.09 2337.23 1907.74 2309.08 1887.75 2281.23 1857.61 2262.72 1833.79 2248.07 1808.78 2242.7 1792.38 2248.71 1762.79 2259.53 1756.61 2334.83 1756.72 2363.16Z" class="MsftOfcResponsive_Fill_002060" fill="#002060"/></g></g></g><g><g><path d="M1906.61 2582.77C1902.56 2552.25 1912.87 2521.55 1933.91 2499.07 1952.54 2479.16 1979.91 2459.79 2012.05 2467.61 2072.64 2482.35 2048.62 2642.29 1967.83 2642.29 1924.56 2642.29 1910.42 2611.43 1906.61 2582.77Z" class="MsftOfcResponsive_Fill_002060" fill="#002060"/></g><g><path d="M1967.84 2649.73C1929.24 2649.73 1904.89 2626.3 1899.25 2583.75L1899.25 2583.75C1894.92 2551.19 1905.58 2518.48 1928.48 2494 1955.58 2465.04 1985.1 2453.35 2013.81 2460.41 2042.37 2467.35 2057.87 2502.95 2052.35 2549 2046.54 2597.51 2017.61 2649.73 1967.84 2649.73ZM1997.6 2473.31C1973.67 2473.31 1953.14 2489.4 1939.34 2504.16 1919.49 2525.37 1910.25 2553.67 1913.98 2581.8L1913.98 2581.8C1918.65 2617.01 1936.77 2634.86 1967.83 2634.86 2006.72 2634.86 2032.36 2590.77 2037.57 2547.21 2041.38 2515.42 2034.42 2480.7 2010.28 2474.82 2005.98 2473.78 2001.74 2473.31 1997.6 2473.31Z" class="MsftOfcResponsive_Fill_002060" fill="#002060"/></g></g><g><g><path d="M1631.35 2577.76C1631.35 2577.76 1778.24 2563.99 1803.49 2595.66 1828.74 2627.33 1761.26 2727.86 1707.55 2752.65 1653.84 2777.44 1551.48 2771.47 1541.38 2735.67 1531.29 2699.86 1546.43 2585.56 1631.35 2577.76Z" class="MsftOfcResponsive_Fill_002060" fill="#002060"/></g><g><path d="M1627.54 2775.24C1601.98 2775.24 1577.35 2771.23 1559.68 2763.1 1545.74 2756.67 1537.17 2748.12 1534.22 2737.68 1526.88 2711.65 1531.55 2654.03 1559.4 2613.49 1576.96 2587.95 1601.6 2573.03 1630.65 2570.36L1630.65 2570.36C1646.1 2568.92 1782.33 2557.19 1809.3 2591.03 1816.62 2600.21 1818.29 2613.47 1814.27 2630.43 1803.37 2676.42 1752.05 2740.3 1710.67 2759.39 1687.97 2769.88 1657.13 2775.24 1627.54 2775.24ZM1697.88 2582.16C1674.51 2582.16 1651.02 2583.38 1632.06 2585.17 1632.05 2585.17 1632.05 2585.17 1632.05 2585.17 1607.18 2587.45 1586.87 2599.82 1571.68 2621.93 1545.89 2659.44 1542.96 2713.77 1548.56 2733.65 1550.69 2741.2 1559.17 2746.5 1565.92 2749.61 1600.11 2765.33 1666.14 2763.59 1704.45 2745.91 1741.81 2728.68 1789.94 2668.67 1799.81 2627.02 1801.81 2618.57 1803.07 2607.07 1797.68 2600.31 1786.79 2586.65 1742.59 2582.16 1697.88 2582.16ZM1631.35 2577.76 1631.5 2577.76 1631.35 2577.76Z" class="MsftOfcResponsive_Fill_002060" fill="#002060"/></g></g><g><g><path d="M1958.86 2803.5C1909.45 2781.94 1855.81 2827.03 1829.95 2853.58 1814.99 2868.94 1805.12 2888.7 1802.57 2909.99 1791.89 2999.36 1916.59 3019.56 1963.3 3001.46 2016.14 2980.98 2027.12 2833.29 1958.86 2803.5Z" class="MsftOfcResponsive_Fill_002060" fill="#002060"/></g><g><path d="M1923.82 3015.08C1891.22 3015.08 1853.24 3005.66 1827.21 2985.46 1802.58 2966.34 1791.51 2939.95 1795.19 2909.11 1797.88 2886.71 1808.33 2865.15 1824.63 2848.41 1853.11 2819.17 1908.76 2773.57 1961.84 2796.7L1961.84 2796.7C2001.58 2814.03 2014.79 2864.79 2013.92 2906.51 2013.04 2948.32 1997.88 2996.03 1965.99 3008.38 1954.62 3012.8 1939.87 3015.08 1923.82 3015.08ZM1931.3 2805.25C1893.81 2805.25 1856.43 2837.06 1835.28 2858.78 1821.24 2873.2 1812.25 2891.69 1809.95 2910.89 1806.87 2936.62 1815.74 2957.75 1836.31 2973.72 1873.03 3002.22 1933.46 3005.01 1960.61 2994.54 1981.99 2986.25 1998.15 2949.1 1999.05 2906.2 1999.83 2869.29 1988.89 2824.74 1955.88 2810.32L1955.88 2810.32C1947.81 2806.79 1939.54 2805.25 1931.3 2805.25Z" class="MsftOfcResponsive_Fill_002060" fill="#002060"/></g></g><g><g><path d="M1542.36 2918.64C1542.36 2918.64 1545.3 2860.17 1576.56 2852.45 1607.82 2844.73 1650.47 2859.61 1654.88 2887.47 1659.29 2915.33 1617.74 2951.73 1594.94 2957.25 1572.14 2962.77 1540.15 2952.1 1542.36 2918.64Z" class="MsftOfcResponsive_Fill_002060" fill="#002060"/></g><g><path d="M1583.14 2966.08C1570.51 2966.08 1558.13 2962.03 1549.34 2954.64 1542.09 2948.53 1533.7 2937.26 1534.94 2918.21 1535.11 2914.93 1538.78 2854.13 1574.77 2845.23 1596.42 2839.9 1623.14 2844.39 1641.25 2856.39 1653.12 2864.27 1660.37 2874.61 1662.22 2886.3 1667.42 2919.14 1622.04 2958.34 1596.69 2964.48 1592.24 2965.56 1587.68 2966.08 1583.14 2966.08ZM1593.88 2857.88C1588.5 2857.88 1583.23 2858.46 1578.34 2859.67 1557.17 2864.9 1550.55 2904.28 1549.79 2919.02 1549.78 2919.06 1549.78 2919.09 1549.78 2919.14 1549.1 2929.48 1552.17 2937.59 1558.92 2943.27 1567.24 2950.3 1581.02 2953.03 1593.2 2950.04 1612.59 2945.35 1651.21 2911.78 1647.55 2888.64 1646.05 2879.2 1638.83 2872.64 1633.04 2868.79 1622.48 2861.78 1607.82 2857.88 1593.88 2857.88ZM1542.36 2918.63 1542.51 2918.63 1542.36 2918.63Z" class="MsftOfcResponsive_Fill_002060" fill="#002060"/></g></g><g><g><path d="M1204.37 2797.84C1204.37 2797.84 1204.37 2652.69 1281.36 2633.64 1358.35 2614.59 1430.57 2637.61 1439.31 2695.55 1448.04 2753.49 1417.88 2805.08 1376.61 2832.86 1335.33 2860.64 1207.55 2860.44 1204.37 2797.84Z" class="MsftOfcResponsive_Fill_002060" fill="#002060"/></g><g><path d="M1299.16 2857.99C1274.52 2857.99 1249.6 2853.79 1230.55 2844.27 1209.56 2833.77 1197.94 2817.85 1196.95 2798.22 1196.94 2798.09 1196.94 2797.97 1196.94 2797.84 1196.94 2791.67 1197.88 2646.63 1279.57 2626.42 1330.35 2613.85 1379.67 2619.04 1411.47 2640.3 1431.13 2653.45 1443.3 2672.17 1446.66 2694.44 1454.99 2749.71 1429.12 2806.46 1380.76 2839.03 1363.26 2850.8 1331.45 2857.99 1299.16 2857.99ZM1211.81 2797.67C1212.6 2811.74 1221.14 2822.95 1237.2 2830.97 1276.33 2850.54 1345.42 2844.91 1372.45 2826.69 1416.08 2797.32 1439.44 2746.27 1431.95 2696.65 1429.2 2678.37 1419.52 2663.58 1403.2 2652.66 1374.83 2633.68 1329.94 2629.27 1283.14 2640.86 1213.87 2658 1211.86 2791.92 1211.81 2797.67Z" class="MsftOfcResponsive_Fill_002060" fill="#002060"/></g></g><g><g><path d="M1332.21 3085.62C1332.21 3085.62 1375.65 3013.25 1426.76 3007.52 1477.87 3001.8 1576.23 3087.15 1594.26 3113.21 1612.29 3139.27 1550.96 3190.39 1524.89 3196.01 1498.82 3201.63 1409.38 3167.39 1362.87 3163.81 1316.36 3160.23 1317.9 3106.1 1332.21 3085.62Z" class="MsftOfcResponsive_Fill_002060" fill="#002060"/></g><g><path d="M1517.98 3204.06C1500.5 3204.06 1472.68 3196.67 1441.22 3188.31 1412.51 3180.69 1382.82 3172.8 1362.31 3171.22 1338.12 3169.36 1326.77 3155.71 1321.51 3144.61 1311.55 3123.56 1315.95 3096.12 1325.97 3081.59 1329.19 3076.26 1372.71 3006.1 1425.93 3000.14 1482.47 2993.96 1583.89 3085.16 1600.36 3109 1604.18 3114.52 1607.57 3124.04 1602.02 3138.07 1590.55 3167.09 1547.45 3198.77 1526.45 3203.3 1524.01 3203.81 1521.16 3204.06 1517.98 3204.06ZM1431.97 3014.68C1430.46 3014.68 1429.01 3014.75 1427.59 3014.91 1380.76 3020.15 1339 3088.75 1338.59 3089.45 1338.5 3089.6 1338.41 3089.74 1338.31 3089.87 1330.75 3100.69 1327.6 3122.7 1334.96 3138.24 1340.16 3149.23 1349.75 3155.34 1363.46 3156.4 1385.32 3158.07 1415.68 3166.14 1445.04 3173.94 1477.41 3182.53 1510.91 3191.48 1523.34 3188.73 1540.89 3184.96 1578.82 3156.35 1588.22 3132.59 1592.01 3122.99 1589.11 3118.81 1588.16 3117.43 1569.78 3090.89 1479.21 3014.68 1431.97 3014.68ZM1332.22 3085.62 1332.37 3085.62 1332.22 3085.62Z" class="MsftOfcResponsive_Fill_002060" fill="#002060"/></g></g><g><g><path d="M958.56 2987.52C957.36 2979.22 957.58 2970.77 959 2962.5 963.09 2938.75 977.05 2887.77 1023.14 2862.63 1084.45 2829.19 1169.72 2834.76 1210.41 2873.78 1251.1 2912.79 1273.39 2986.92 1246.08 3028.72 1218.77 3070.52 1139.07 3067.73 1067.73 3057.7 1001.4 3048.37 965.91 3038.56 958.56 2987.52Z" class="MsftOfcResponsive_Fill_002060" fill="#002060"/></g><g><path d="M1145.01 3071.48C1118.3 3071.48 1090.78 3068.45 1066.68 3065.06 1002.27 3056 959.43 3045.77 951.19 2988.58L951.19 2988.58C949.91 2979.69 950.07 2970.49 951.66 2961.23 955.55 2938.64 969.97 2883.15 1019.58 2856.1 1082.85 2821.56 1172.59 2827.21 1215.55 2868.4 1257.46 2908.6 1282.87 2985.98 1252.3 3032.77 1232.65 3062.86 1190.02 3071.48 1145.01 3071.48ZM1112.88 2848.06C1083.4 2848.06 1052.69 2854.97 1026.7 2869.14 982.79 2893.09 969.85 2943.28 966.32 2963.75 964.99 2971.47 964.86 2979.11 965.92 2986.46L965.92 2986.46C972.49 3032.12 1002.3 3040.99 1068.77 3050.34 1163.85 3063.73 1219.82 3055.31 1239.87 3024.64 1265.7 2985.11 1242.9 2915.22 1205.27 2879.14 1183.88 2858.63 1149.32 2848.06 1112.88 2848.06Z" class="MsftOfcResponsive_Fill_002060" fill="#002060"/></g></g><g><g><path d="M1038.34 3153.64C1044.06 3147.23 1052.94 3144.65 1061.22 3146.91 1074.91 3150.64 1096.41 3159.09 1102.94 3176.39 1112.78 3202.42 1112.28 3237.12 1076.16 3241.13 1043.33 3244.76 1008.36 3187.21 1038.34 3153.64Z" class="MsftOfcResponsive_Fill_002060" fill="#002060"/></g><g><path d="M1073.26 3248.72C1055.96 3248.72 1037.93 3235.77 1027.43 3215.39 1017.84 3196.79 1014.21 3169.5 1032.79 3148.69 1040.42 3140.15 1052.07 3136.74 1063.17 3139.73 1080.4 3144.42 1102.48 3154.13 1109.9 3173.76 1117.96 3195.1 1117.75 3216.05 1109.33 3229.8 1104.8 3237.2 1095.51 3246.45 1076.98 3248.51 1075.75 3248.64 1074.5 3248.72 1073.26 3248.72ZM1055.18 3153.52C1050.91 3153.52 1046.81 3155.31 1043.89 3158.59L1043.89 3158.59C1030.33 3173.78 1033.32 3194.38 1040.65 3208.58 1048.98 3224.74 1063.22 3234.9 1075.36 3233.74 1085.44 3232.62 1092.61 3228.69 1096.68 3222.04 1103.79 3210.43 1101 3192.21 1096.01 3179.02 1090.54 3164.53 1070.65 3157.17 1059.29 3154.08 1057.91 3153.71 1056.53 3153.52 1055.18 3153.52ZM1038.33 3153.64 1038.48 3153.64 1038.33 3153.64Z" class="MsftOfcResponsive_Fill_002060" fill="#002060"/></g></g><g><g><path d="M788.14 3150.95C788.14 3150.95 790.06 3065.56 825.07 3054.02 860.08 3042.48 928.54 3068.25 938.93 3094.02 949.32 3119.79 941.24 3157.49 912.77 3172.49 884.3 3187.49 790.07 3181.96 788.14 3150.95Z" class="MsftOfcResponsive_Fill_002060" fill="#002060"/></g><g><path d="M864.85 3187.96C840.5 3187.96 814.33 3183.72 797.91 3174.49 784.42 3166.91 781.12 3157.77 780.73 3151.42 780.72 3151.2 780.72 3151 780.72 3150.78 780.93 3141.5 783.89 3059.77 822.75 3046.96 860.09 3034.61 933.7 3061.13 945.83 3091.24 957.43 3120.01 948.31 3162.16 916.24 3179.06 905.28 3184.84 885.72 3187.96 864.85 3187.96ZM795.58 3150.76C796.04 3155.45 801.03 3159.2 805.18 3161.52 830.42 3175.72 889.69 3176.24 909.3 3165.9 934.26 3152.75 941.2 3119.54 932.03 3096.78 923.43 3075.45 859.41 3050.5 827.4 3061.07 803.08 3069.1 796.14 3129.61 795.58 3150.76Z" class="MsftOfcResponsive_Fill_002060" fill="#002060"/></g></g><g><g><path d="M960.63 2698.3C962.65 2691.63 966.1 2685.49 970.43 2680.02 980.63 2667.16 1006.1 2638.2 1026.51 2641.31 1052.66 2645.3 1072.59 2657.75 1073.84 2677.26 1075.09 2696.77 1055.57 2747.42 1019.87 2754.48 987.51 2760.88 949.02 2736.59 960.63 2698.3Z" class="MsftOfcResponsive_Fill_002060" fill="#002060"/></g><g><path d="M1009.41 2762.91C991.98 2762.91 974.5 2755.77 963.39 2743.51 951.68 2730.57 948.17 2713.75 953.51 2696.12 955.7 2688.89 959.43 2681.91 964.59 2675.39 978.08 2658.39 1004.24 2630.35 1027.62 2633.96 1059.81 2638.87 1079.85 2654.88 1081.24 2676.79 1082.65 2698.86 1061.47 2753.82 1021.3 2761.76 1017.4 2762.55 1013.41 2762.91 1009.41 2762.91ZM1023.4 2648.51C1011.92 2648.51 994.15 2662.06 976.25 2684.63 972.26 2689.68 969.39 2695 967.74 2700.44 967.74 2700.44 967.74 2700.44 967.74 2700.45 962.91 2716.38 968.71 2727.22 974.41 2733.52 984.69 2744.87 1002.39 2750.32 1018.42 2747.18 1049.56 2741.02 1067.51 2694.81 1066.41 2677.74 1065.5 2663.31 1050.16 2652.43 1025.38 2648.65 1024.75 2648.55 1024.08 2648.51 1023.4 2648.51ZM960.63 2698.29 960.78 2698.29 960.63 2698.29Z" class="MsftOfcResponsive_Fill_002060" fill="#002060"/></g></g><g><g><g><path d="M7.44 2800.71C7.44 2800.71 65.96 2778.97 114.45 2818.27 114.45 2818.27 103.58 2758.91 114.45 2676.98 125.32 2595.05 171.3 2557.43 171.3 2557.43 171.3 2557.43 172.14 2617.62 179.66 2658.59 187.18 2699.56 207.25 2756.4 207.25 2756.4 207.25 2756.4 217.28 2671.96 261.59 2647.72 261.59 2647.72 258.25 2738.85 274.13 2794.86 274.13 2794.86 279.15 2743.86 331.82 2710.42 331.82 2710.42 296.71 2787.33 325.97 2851.71 355.23 2916.08 380.31 3029.78 323.46 3079.95 266.61 3130.11 115.29 3103.36 114.45 3010.56 113.61 2917.75 106.09 2859.23 7.44 2800.71Z" class="MsftOfcResponsive_Fill_002060" fill="#002060"/></g><g><path d="M243.6 3112.29C219.2 3112.29 193.8 3107.4 171.16 3097.29 130.13 3079 107.35 3048.22 107.01 3010.62 106.21 2921.99 100.8 2864.73 3.64 2807.09 1.17 2805.64-0.23 2802.89 0.02 2800.03 0.28 2797.18 2.15 2794.73 4.83 2793.73 7.15 2792.87 57.29 2774.86 104.8 2802.57 102.26 2779.07 99.49 2733.13 107.06 2676 118.19 2592.1 164.6 2553.28 166.58 2551.67 168.79 2549.84 171.84 2549.49 174.42 2550.68 177 2551.89 178.67 2554.45 178.72 2557.31 178.73 2557.91 179.63 2617.36 186.95 2657.24 191.07 2679.6 199.08 2707.11 205.37 2727.06 212.46 2698.91 227.66 2657.79 258.01 2641.19 260.37 2639.9 263.22 2640 265.49 2641.38 267.77 2642.79 269.11 2645.31 269.01 2647.99 268.99 2648.74 266.8 2712.23 275.24 2764.66 283.24 2746.28 298.59 2722.7 327.82 2704.15 330.6 2702.36 334.2 2702.68 336.68 2704.82 339.16 2706.98 339.92 2710.51 338.57 2713.5 338.23 2714.24 305.24 2788.2 332.72 2848.63 358.87 2906.17 391.62 3029.71 328.37 3085.52 308.42 3103.13 276.94 3112.29 243.6 3112.29ZM26.37 2803.75C113.97 2861.27 121.08 2921.2 121.88 3010.47 122.26 3052.91 156.72 3074.57 177.22 3083.71 225.11 3105.05 288.5 3100.84 318.55 3074.36 371.16 3027.93 347.76 2917.61 319.2 2854.77 298.93 2810.19 307.72 2760.77 316.21 2731.93 285.5 2761.14 281.58 2795.19 281.53 2795.59 281.16 2799.13 278.33 2801.92 274.77 2802.23 271.37 2802.67 267.95 2800.3 266.98 2796.87 254.69 2753.56 253.63 2691.03 253.86 2662.51 222.83 2691.65 214.71 2756.54 214.62 2757.27 214.21 2760.7 211.49 2763.4 208.06 2763.77 204.67 2764.07 201.38 2762.11 200.23 2758.85 199.4 2756.51 179.89 2700.98 172.34 2659.92 167.26 2632.23 165.19 2596.55 164.38 2575.41 150.62 2592.02 128.74 2625.72 121.81 2677.94 111.22 2757.79 121.65 2816.33 121.75 2816.91 122.31 2819.97 120.91 2823.05 118.23 2824.63 115.58 2826.21 112.19 2825.97 109.76 2824.02 80.05 2799.96 46.02 2800.59 26.37 2803.75Z" class="MsftOfcResponsive_Fill_002060" fill="#002060"/></g></g></g></g></svg>