<svg width="96.43" height="41.47" viewBox="0 0 96.43 41.47" xmlns="http://www.w3.org/2000/svg" xmlns:xlink="http://www.w3.org/1999/xlink" xml:space="preserve" overflow="hidden"><defs></defs><g><g><linearGradient x1="47.8724" y1="55.527" x2="47.8724" y2="-72.4439" gradientUnits="userSpaceOnUse" id="SVGID_1_"><stop offset="0" stop-color="#FFFFFF"/><stop offset="0.1101" stop-color="#F7FDFE"/><stop offset="0.2808" stop-color="#E1F6FD"/><stop offset="0.4908" stop-color="#BDEBFA"/><stop offset="0.732" stop-color="#8CDCF6"/><stop offset="0.9966" stop-color="#4DC8F1"/><stop offset="1" stop-color="#4CC8F1"/></linearGradient><path d="M95.83 22.62C94.5 20.2 91.52 20.07 89.14 20.57 89.27 19.91 89.29 19.2 89.25 18.6 89.12 16.61 87.83 15 86.46 13.67 83.45 10.75 78.77 9.55 74.87 11.19 74.93 9.4 74.8 7.87 73.57 6.37 72.13 4.6 69.42 3.6 67.27 3.11 64.97 2.6 62.37 3.34 60.33 4.41 59.7 4.75 59.16 5.15 58.7 5.61 58.2 3.45 57.36 1.89 55.26 0.89 52.78-0.29 49.79-0.14 47.19 0.48 42.78 1.53 39.07 4.84 38.17 9.31 37.63 8.72 36.99 8.19 36.5 7.72 34.4 5.78 31.5 5.36 28.76 5.2 23.36 4.88 19.52 7.43 17.01 11.92 14.94 9.97 11.52 9.4 8.85 9.9 8.22 10.03 7.59 10.15 6.97 10.31 3.78 12.03 0.72 14 0.13 17.96-0.41 21.71 0.74 25.07 3.31 27.51 4.96 28.64 6.98 29.14 9.13 28.98 9.13 28.98 9.15 28.98 9.15 28.97 9.15 29.42 9.19 29.86 9.29 30.33 9.76 32.6 12.19 34.09 14.12 35 18.05 36.86 24.88 37.54 28.29 34.12 28.31 34.19 28.34 34.26 28.37 34.33 28.96 35.66 29.9 36.73 31 37.67 33.19 39.53 36.39 40.46 39.13 41.16 44.2 42.44 50.52 39.52 52.14 34.49 52.57 35.94 53.98 37.23 55.19 37.95 57.34 39.24 59.71 39.52 62.15 39 65.19 38.37 68.38 36.01 69.14 33.03 70.69 36.03 75.54 35.85 78.34 34.65 79.97 33.94 81.82 32.46 82.62 30.71 83.55 31.82 86.06 32.23 87.12 32.26 89.79 32.32 92.51 31.4 94.42 29.52 96.28 27.75 97.07 24.9 95.83 22.62Z" fill="#26BAE2"/><path d="M93.01 29.32C91.4 30.66 89.04 31.03 87.01 30.98 86.11 30.96 85.36 30.71 84.57 30.31 83.96 30 83.63 29.43 83.05 29.19 83.09 28.58 82.98 27.97 82.7 27.35 82.53 28.09 82.24 28.8 81.85 29.45 81.52 31.47 79.93 32.86 77.73 33.82 76.3 34.44 74.86 34.49 73.33 34.3 71.44 34.06 70.59 33.19 69.31 32.12 69.35 31.42 69.28 30.69 69.03 29.95 69.03 30.76 68.84 31.6 68.61 32.23 68.39 32.8 68.08 33.31 67.7 33.78 67.47 34.26 67.16 34.74 66.77 35.2 65.51 36.66 63.6 37.51 61.75 37.9 58.48 38.6 53.59 36.76 52.47 33.29 52.83 33.18 53.17 33.03 53.48 32.85 54.11 32.48 54.9 31.88 55.09 31.12 54.62 31.51 54.1 31.84 53.54 32.12 53.39 32.19 53.23 32.27 53.06 32.35 52.68 32.62 52.22 32.85 51.75 32.99 51.41 33.14 51.05 33.28 50.69 33.41 51.06 33.5 51.44 33.5 51.83 33.44 50.83 35.5 49.93 37.14 47.84 38.41 45.41 39.89 42.37 40.08 39.63 39.58 37.53 39.19 35.31 38.26 33.42 37.26 32.28 36.66 31.31 35.82 30.47 34.88 29.68 34 29.38 33.11 29.25 32.12 28.84 32.61 28.37 33.05 27.86 33.47 25.56 35.3 22.42 35.91 19.55 35.76 16.95 35.63 14.27 34.87 12.43 32.99 11.92 32.63 11.47 32.2 11.11 31.66 10.01 30.06 9.53 28.04 9.83 26.14 9.55 26.78 9.34 27.43 9.25 28.1 8.36 27.84 7.44 27.8 6.52 27.66 4.98 27.42 3.85 26.4 2.81 25.32 0.72 23.14-0.47 18.44 1.61 15.83 2.41 14.82 3.35 13.92 4.28 13.03 5.62 11.76 7.03 11.35 8.8 11.03 11.35 10.57 14.88 11.18 16.68 13.28 16.77 13.39 16.91 13.41 17.05 13.38 17.93 11.14 19.47 9.19 21.4 7.97 23.24 6.62 25.65 6.24 27.86 6.24 29.85 6.23 31.96 6.53 33.8 7.23 34.63 7.54 35.79 8.25 36.78 9.13 37.86 9.85 38.66 11.07 39.09 12.39L39.1 12.38C39.53 11.3 39.05 10.32 38.32 9.47 39.45 5.2 42.89 2.18 47.14 1.23 49.27 0.75 51.49 0.88 53.54 1.54 56.12 2.38 56.78 4.09 57.47 6.46 57.52 6.61 57.6 6.72 57.69 6.79 57.31 7.32 56.99 7.9 56.68 8.51 56.69 8.5 56.69 8.5 56.69 8.5 57.62 7.24 58.99 6.25 60.49 5.71 62.18 4.74 64.11 4.27 66.3 4.52 68.22 4.75 70.1 5.78 71.66 6.87 73.44 8.12 73.79 9.87 73.79 11.91 74.04 11.79 74.29 11.69 74.5 11.6 76.15 10.91 78.05 10.87 79.74 11.46 80.28 11.65 80.78 11.88 81.24 12.15 83.49 12.8 85.54 14.12 86.76 15.87 86.92 15.95 87.06 16.1 87.18 16.33 88.15 18.21 88.63 20.35 88.3 22.33 88.62 22 88.84 21.59 88.98 21.13 90.85 21.12 92.61 21.26 94.11 22.55 96.35 24.51 94.9 27.76 93.01 29.32Z" fill="url(#SVGID_1_)"/><path d="M94.1 22.57C92.6 21.28 90.85 21.14 88.97 21.15 88.82 21.6 88.6 22.02 88.29 22.35 88.62 20.36 88.14 18.23 87.17 16.35 87.05 16.12 86.91 15.97 86.75 15.89 85.53 14.13 83.48 12.82 81.23 12.17 80.77 11.9 80.27 11.67 79.73 11.48 78.04 10.89 76.14 10.93 74.49 11.62 74.27 11.71 74.02 11.81 73.78 11.93 73.78 11.9 73.77 11.88 73.77 11.84 73.7 11.95 73.63 12.05 73.55 12.16 79.6 12.2 86 20.28 81.87 26.42 79.57 29.84 74.75 30.57 71.16 29.05 70.53 28.78 69.82 28.24 69.13 27.54 68.25 29.52 66.65 31.19 64.27 32.14 59.35 34.11 56.51 31.44 55.94 27.81 53.79 29.84 50.8 31.18 48.12 31.39 46.36 31.53 43.7 31.5 42.45 29.94 41.56 30.25 40.63 30.45 39.67 30.51 34.75 30.81 31.76 28.32 30.45 24.82 27.63 27.89 23.23 29.78 19.31 29.51 16.15 29.29 11.92 28.43 10.96 24.8 10.75 24.01 10.67 23.23 10.7 22.48 8.4 23.22 5.99 23.01 4.24 20.94 2.41 18.77 2.17 16.39 2.97 14.29 2.49 14.79 2.01 15.3 1.57 15.85-0.51 18.46 0.68 23.16 2.77 25.34 3.8 26.42 4.94 27.44 6.48 27.68 7.4 27.82 8.32 27.86 9.21 28.12 9.31 27.44 9.51 26.79 9.79 26.16 9.49 28.05 9.97 30.08 11.07 31.68 11.42 32.21 11.88 32.65 12.39 33.01 14.23 34.9 16.91 35.65 19.51 35.78 22.38 35.93 25.52 35.32 27.82 33.49 28.33 33.08 28.8 32.63 29.21 32.14 29.34 33.13 29.64 34.03 30.43 34.9 31.28 35.85 32.25 36.68 33.38 37.28 35.26 38.28 37.49 39.21 39.59 39.6 42.33 40.1 45.37 39.91 47.8 38.43 49.89 37.16 50.79 35.52 51.79 33.46 51.41 33.52 51.02 33.51 50.65 33.43 51.01 33.31 51.37 33.16 51.71 33.01 52.18 32.87 52.64 32.64 53.02 32.37 53.19 32.29 53.35 32.21 53.5 32.14 54.06 31.86 54.58 31.53 55.05 31.14 54.86 31.9 54.08 32.5 53.44 32.87 53.13 33.05 52.79 33.2 52.43 33.31 53.56 36.78 58.44 38.62 61.71 37.92 63.56 37.52 65.46 36.68 66.73 35.22 67.13 34.75 67.43 34.28 67.66 33.8 68.03 33.34 68.35 32.82 68.57 32.25 68.8 31.63 68.99 30.78 68.99 29.97 69.24 30.71 69.32 31.43 69.27 32.14 70.56 33.21 71.4 34.08 73.29 34.32 74.82 34.51 76.26 34.46 77.69 33.84 79.88 32.88 81.48 31.49 81.81 29.47 82.2 28.82 82.5 28.11 82.66 27.37 82.95 27.99 83.06 28.6 83.01 29.21 83.59 29.46 83.92 30.02 84.53 30.33 85.32 30.72 86.07 30.98 86.97 31 89 31.05 91.36 30.69 92.97 29.34 94.9 27.76 96.35 24.51 94.1 22.57ZM92.08 24.74C91.61 26.32 90.26 27.9 88.69 28.47 86.89 29.13 84.01 28.42 84.56 25.95 85.19 23.08 88.02 22.43 90.53 22.21 90.81 22.18 90.97 22.3 91.04 22.48 91.93 22.76 92.44 23.54 92.08 24.74Z" fill="#C1D3DD" opacity="0.5"/></g><path d="M14.81 14.24C14.66 11.91 11.96 11.55 10.17 11.94 8.38 12.33 6.4 13.61 5.53 15.35 5.09 16.08 4.88 16.9 5.14 17.69 5.55 20.36 9.14 20.22 11.02 19.12 11.16 19.04 11.28 18.95 11.42 18.85 13.29 18.02 14.93 16.43 14.81 14.24Z" fill="#FFFFFF"/><path d="M32.19 10.88C31.62 8.19 28.15 8.31 26.04 8.71 23.5 9.19 19.58 11.7 19.83 14.69 19.98 16.42 21.04 17.14 22.35 17.3 23.52 17.85 25.31 17.76 26.46 17.4 29.15 16.57 32.91 14.25 32.19 10.88Z" fill="#FFFFFF"/><path d="M51.14 4.02C51 3.96 50.86 3.92 50.71 3.87 49.49 3.35 47.99 3.58 46.83 4.09 46.58 4.2 46.29 4.37 46 4.56 45.26 4.93 44.6 5.46 44.11 6.12 43.63 6.76 42.96 7.98 43.24 8.87 43.14 9.33 43.12 9.81 43.24 10.3 43.5 11.43 44.83 11.59 45.75 11.48 46.75 11.36 47.73 10.88 48.62 10.37 49.58 9.99 50.45 9.44 51.2 8.72 52.52 7.45 53.16 4.91 51.14 4.02Z" fill="#FFFFFF"/></g></svg>