<svg width="102.32" height="102.05" viewBox="0 0 102.32 102.05" xmlns="http://www.w3.org/2000/svg" xmlns:xlink="http://www.w3.org/1999/xlink" xml:space="preserve" overflow="hidden"><defs></defs><g><g><g><path d="M85.82 35.09 74.33 46.58 51.28 69.63 51.28 0.55 51.35 0.62Z" fill="#FFFFFF"/></g><g><path d="M51.28 0.55 51.28 69.63 28.23 46.58 16.75 35.09 51.21 0.62Z" fill="#FFFFFF"/></g><g><path d="M28.23 47.08C28.15 47.08 28.08 47.06 28.01 47.03 27.76 46.91 27.66 46.61 27.79 46.36L29.13 43.68C29.25 43.43 29.56 43.33 29.8 43.46 30.05 43.58 30.15 43.88 30.02 44.13L28.68 46.81C28.59 46.98 28.41 47.08 28.23 47.08ZM74.33 47.08C74.15 47.08 73.97 46.98 73.88 46.8L73.45 45.94C73.33 45.69 73.43 45.39 73.67 45.27 73.92 45.15 74.22 45.25 74.34 45.49L74.77 46.35C74.89 46.6 74.79 46.9 74.55 47.02 74.48 47.06 74.41 47.08 74.33 47.08ZM72.56 43.54C72.38 43.54 72.2 43.44 72.11 43.26L70.77 40.58C70.65 40.33 70.75 40.03 70.99 39.91 71.23 39.79 71.54 39.89 71.66 40.13L73 42.81C73.12 43.06 73.02 43.36 72.78 43.48 72.71 43.52 72.63 43.54 72.56 43.54ZM30.92 41.71C30.84 41.71 30.77 41.69 30.7 41.66 30.45 41.54 30.35 41.24 30.48 40.99L31.82 38.31C31.95 38.06 32.25 37.96 32.49 38.09 32.74 38.21 32.84 38.51 32.71 38.76L31.37 41.44C31.28 41.61 31.1 41.71 30.92 41.71ZM69.87 38.17C69.69 38.17 69.51 38.07 69.42 37.89L68.08 35.21C67.96 34.96 68.06 34.66 68.3 34.54 68.54 34.42 68.85 34.51 68.97 34.76L70.31 37.44C70.43 37.69 70.33 37.99 70.09 38.11 70.02 38.16 69.95 38.17 69.87 38.17ZM33.6 36.35C33.52 36.35 33.45 36.33 33.38 36.3 33.13 36.18 33.03 35.88 33.16 35.63L34.5 32.95C34.62 32.7 34.93 32.6 35.17 32.73 35.42 32.85 35.52 33.15 35.39 33.4L34.05 36.08C33.96 36.25 33.79 36.35 33.6 36.35ZM67.18 32.81C67 32.81 66.82 32.71 66.73 32.53L65.39 29.85C65.27 29.6 65.37 29.3 65.61 29.18 65.85 29.06 66.16 29.16 66.28 29.4L67.62 32.08C67.74 32.33 67.64 32.63 67.4 32.75 67.34 32.79 67.26 32.81 67.18 32.81ZM36.29 30.98C36.21 30.98 36.14 30.96 36.07 30.93 35.82 30.81 35.72 30.51 35.85 30.26L37.19 27.58C37.32 27.33 37.62 27.23 37.86 27.36 38.11 27.48 38.21 27.78 38.08 28.03L36.74 30.71C36.65 30.88 36.47 30.98 36.29 30.98ZM64.5 27.44C64.32 27.44 64.14 27.34 64.05 27.16L62.71 24.48C62.59 24.23 62.69 23.93 62.93 23.81 63.18 23.69 63.48 23.79 63.6 24.03L64.94 26.71C65.06 26.96 64.96 27.26 64.72 27.38 64.65 27.43 64.57 27.44 64.5 27.44ZM38.98 25.62C38.9 25.62 38.83 25.6 38.76 25.57 38.51 25.45 38.41 25.15 38.54 24.9L39.88 22.22C40 21.97 40.31 21.87 40.55 22 40.8 22.12 40.9 22.42 40.77 22.67L39.43 25.35C39.34 25.52 39.16 25.62 38.98 25.62ZM61.81 22.08C61.63 22.08 61.45 21.98 61.36 21.8L60.02 19.12C59.9 18.87 60 18.57 60.24 18.45 60.48 18.33 60.79 18.43 60.91 18.67L62.25 21.35C62.37 21.6 62.27 21.9 62.03 22.02 61.96 22.06 61.89 22.08 61.81 22.08ZM41.66 20.25C41.58 20.25 41.51 20.23 41.44 20.2 41.19 20.08 41.09 19.78 41.22 19.53L42.56 16.85C42.68 16.6 42.99 16.5 43.23 16.63 43.48 16.75 43.58 17.05 43.45 17.3L42.11 19.98C42.02 20.15 41.85 20.25 41.66 20.25ZM59.13 16.71C58.95 16.71 58.77 16.61 58.68 16.43L57.34 13.75C57.22 13.5 57.32 13.2 57.56 13.08 57.8 12.96 58.11 13.06 58.23 13.3L59.57 15.98C59.69 16.23 59.59 16.53 59.35 16.65 59.28 16.7 59.2 16.71 59.13 16.71ZM44.35 14.89C44.27 14.89 44.2 14.87 44.13 14.84 43.88 14.72 43.78 14.42 43.91 14.17L45.25 11.49C45.38 11.24 45.68 11.14 45.92 11.27 46.17 11.39 46.27 11.69 46.14 11.94L44.8 14.62C44.71 14.79 44.53 14.89 44.35 14.89ZM56.44 11.35C56.26 11.35 56.08 11.25 55.99 11.07L54.65 8.39C54.53 8.14 54.63 7.84 54.87 7.72 55.11 7.6 55.42 7.7 55.54 7.94L56.88 10.62C57 10.87 56.9 11.17 56.66 11.29 56.59 11.33 56.51 11.35 56.44 11.35ZM47.04 9.52C46.96 9.52 46.89 9.5 46.82 9.47 46.57 9.35 46.47 9.05 46.6 8.8L47.94 6.12C48.07 5.87 48.37 5.77 48.61 5.9 48.86 6.02 48.96 6.32 48.83 6.57L47.49 9.25C47.4 9.42 47.22 9.52 47.04 9.52ZM53.75 5.98C53.57 5.98 53.39 5.88 53.3 5.7L51.96 3.02C51.84 2.77 51.94 2.47 52.18 2.35 52.43 2.22 52.73 2.33 52.85 2.57L54.19 5.25C54.31 5.5 54.21 5.8 53.97 5.92 53.9 5.97 53.83 5.98 53.75 5.98ZM49.72 4.16C49.64 4.16 49.57 4.14 49.5 4.11 49.25 3.99 49.15 3.69 49.28 3.44L50.62 0.76C50.74 0.51 51.05 0.41 51.29 0.54 51.54 0.66 51.64 0.96 51.51 1.21L50.17 3.89C50.08 4.06 49.91 4.16 49.72 4.16Z" fill="#7A7A9A"/></g><g><path d="M101.64 101.19 101.82 101.55 0.75 101.55 51.28 69.63Z" fill="#FFFFFF"/></g><g><path d="M74.33 46.58 101.64 101.19 51.28 69.63Z" fill="#BDF9F6"/></g><g><path d="M51.28 0.48 51.35 0.62 51.28 0.55 51.21 0.62Z" fill="#BDF9F6"/></g><g><path d="M51.28 69.63 0.75 101.55 28.23 46.58Z" fill="#BDF9F6"/></g><g><path d="M85.75 35.59 82.75 35.59C82.47 35.59 82.25 35.37 82.25 35.09 82.25 34.81 82.47 34.59 82.75 34.59L85.75 34.59C86.03 34.59 86.25 34.81 86.25 35.09 86.25 35.36 86.03 35.59 85.75 35.59ZM79.75 35.59 76.75 35.59C76.47 35.59 76.25 35.37 76.25 35.09 76.25 34.81 76.47 34.59 76.75 34.59L79.75 34.59C80.03 34.59 80.25 34.81 80.25 35.09 80.25 35.36 80.03 35.59 79.75 35.59ZM73.75 35.59 70.75 35.59C70.47 35.59 70.25 35.37 70.25 35.09 70.25 34.81 70.47 34.59 70.75 34.59L73.75 34.59C74.03 34.59 74.25 34.81 74.25 35.09 74.25 35.36 74.03 35.59 73.75 35.59ZM67.75 35.59 64.75 35.59C64.47 35.59 64.25 35.37 64.25 35.09 64.25 34.81 64.47 34.59 64.75 34.59L67.75 34.59C68.03 34.59 68.25 34.81 68.25 35.09 68.25 35.36 68.03 35.59 67.75 35.59ZM61.75 35.59 58.75 35.59C58.47 35.59 58.25 35.37 58.25 35.09 58.25 34.81 58.47 34.59 58.75 34.59L61.75 34.59C62.03 34.59 62.25 34.81 62.25 35.09 62.25 35.36 62.03 35.59 61.75 35.59ZM55.75 35.59 52.75 35.59C52.47 35.59 52.25 35.37 52.25 35.09 52.25 34.81 52.47 34.59 52.75 34.59L55.75 34.59C56.03 34.59 56.25 34.81 56.25 35.09 56.25 35.36 56.03 35.59 55.75 35.59ZM49.75 35.59 46.75 35.59C46.47 35.59 46.25 35.37 46.25 35.09 46.25 34.81 46.47 34.59 46.75 34.59L49.75 34.59C50.03 34.59 50.25 34.81 50.25 35.09 50.25 35.36 50.03 35.59 49.75 35.59ZM43.75 35.59 40.75 35.59C40.47 35.59 40.25 35.37 40.25 35.09 40.25 34.81 40.47 34.59 40.75 34.59L43.75 34.59C44.03 34.59 44.25 34.81 44.25 35.09 44.25 35.36 44.03 35.59 43.75 35.59ZM37.75 35.59 34.75 35.59C34.47 35.59 34.25 35.37 34.25 35.09 34.25 34.81 34.47 34.59 34.75 34.59L37.75 34.59C38.03 34.59 38.25 34.81 38.25 35.09 38.25 35.36 38.03 35.59 37.75 35.59ZM31.75 35.59 28.75 35.59C28.47 35.59 28.25 35.37 28.25 35.09 28.25 34.81 28.47 34.59 28.75 34.59L31.75 34.59C32.03 34.59 32.25 34.81 32.25 35.09 32.25 35.36 32.03 35.59 31.75 35.59ZM25.75 35.59 22.75 35.59C22.47 35.59 22.25 35.37 22.25 35.09 22.25 34.81 22.47 34.59 22.75 34.59L25.75 34.59C26.03 34.59 26.25 34.81 26.25 35.09 26.25 35.36 26.03 35.59 25.75 35.59ZM19.75 35.59 16.75 35.59C16.47 35.59 16.25 35.37 16.25 35.09 16.25 34.81 16.47 34.59 16.75 34.59L19.75 34.59C20.03 34.59 20.25 34.81 20.25 35.09 20.25 35.36 20.03 35.59 19.75 35.59Z" fill="#7A7A9A"/></g><g><path d="M51.28 101.69C51 101.69 50.78 101.47 50.78 101.19L50.78 99.63C50.78 99.35 51 99.13 51.28 99.13 51.56 99.13 51.78 99.35 51.78 99.63L51.78 101.19C51.78 101.46 51.56 101.69 51.28 101.69ZM51.28 97.13C51 97.13 50.78 96.91 50.78 96.63L50.78 93.63C50.78 93.35 51 93.13 51.28 93.13 51.56 93.13 51.78 93.35 51.78 93.63L51.78 96.63C51.78 96.9 51.56 97.13 51.28 97.13ZM51.28 91.13C51 91.13 50.78 90.91 50.78 90.63L50.78 87.63C50.78 87.35 51 87.13 51.28 87.13 51.56 87.13 51.78 87.35 51.78 87.63L51.78 90.63C51.78 90.9 51.56 91.13 51.28 91.13ZM51.28 85.13C51 85.13 50.78 84.91 50.78 84.63L50.78 81.63C50.78 81.35 51 81.13 51.28 81.13 51.56 81.13 51.78 81.35 51.78 81.63L51.78 84.63C51.78 84.9 51.56 85.13 51.28 85.13ZM51.28 79.13C51 79.13 50.78 78.91 50.78 78.63L50.78 75.63C50.78 75.35 51 75.13 51.28 75.13 51.56 75.13 51.78 75.35 51.78 75.63L51.78 78.63C51.78 78.9 51.56 79.13 51.28 79.13ZM51.28 73.13C51 73.13 50.78 72.91 50.78 72.63L50.78 69.63C50.78 69.35 51 69.13 51.28 69.13 51.56 69.13 51.78 69.35 51.78 69.63L51.78 72.63C51.78 72.9 51.56 73.13 51.28 73.13Z" fill="#7A7A9A"/></g><g><path d="M49.7 100.14C49.57 100.14 49.45 100.09 49.35 100L47.21 97.9C47.01 97.71 47.01 97.39 47.2 97.19 47.39 96.99 47.71 96.99 47.91 97.18L50.05 99.28C50.25 99.47 50.25 99.79 50.06 99.99 49.96 100.09 49.83 100.14 49.7 100.14ZM45.42 95.93C45.29 95.93 45.17 95.88 45.07 95.79L42.93 93.69C42.73 93.5 42.73 93.18 42.92 92.98 43.11 92.78 43.43 92.78 43.63 92.97L45.77 95.07C45.97 95.26 45.97 95.58 45.78 95.78 45.68 95.88 45.55 95.93 45.42 95.93ZM41.14 91.73C41.01 91.73 40.89 91.68 40.79 91.59L38.65 89.49C38.45 89.3 38.45 88.98 38.64 88.78 38.83 88.58 39.15 88.58 39.35 88.77L41.49 90.87C41.69 91.06 41.69 91.38 41.5 91.58 41.4 91.68 41.27 91.73 41.14 91.73ZM36.86 87.52C36.73 87.52 36.61 87.47 36.51 87.38L34.37 85.28C34.17 85.09 34.17 84.77 34.36 84.57 34.55 84.37 34.87 84.37 35.07 84.56L37.21 86.66C37.41 86.85 37.41 87.17 37.22 87.37 37.12 87.47 36.99 87.52 36.86 87.52ZM32.58 83.32C32.45 83.32 32.33 83.27 32.23 83.18L30.09 81.08C29.89 80.89 29.89 80.57 30.08 80.37 30.27 80.17 30.59 80.17 30.79 80.36L32.93 82.46C33.13 82.65 33.13 82.97 32.94 83.17 32.84 83.27 32.71 83.32 32.58 83.32ZM28.3 79.11C28.17 79.11 28.05 79.06 27.95 78.97L25.81 76.87C25.61 76.68 25.61 76.36 25.8 76.16 25.99 75.96 26.31 75.96 26.51 76.15L28.65 78.25C28.85 78.44 28.85 78.76 28.66 78.96 28.56 79.06 28.43 79.11 28.3 79.11ZM24.02 74.91C23.89 74.91 23.77 74.86 23.67 74.77L21.53 72.67C21.33 72.48 21.33 72.16 21.52 71.96 21.71 71.76 22.03 71.76 22.23 71.95L24.37 74.05C24.57 74.24 24.57 74.56 24.38 74.76 24.28 74.86 24.15 74.91 24.02 74.91ZM19.74 70.7C19.61 70.7 19.49 70.65 19.39 70.56L17.25 68.46C17.05 68.27 17.05 67.95 17.24 67.75 17.43 67.55 17.75 67.55 17.95 67.74L20.09 69.84C20.29 70.03 20.29 70.35 20.1 70.55 20 70.65 19.87 70.7 19.74 70.7Z" fill="#7A7A9A"/></g><g><path d="M52.79 100.2C52.66 100.2 52.53 100.15 52.43 100.05 52.24 99.85 52.24 99.54 52.43 99.34L54.57 97.23C54.77 97.04 55.08 97.04 55.28 97.23 55.47 97.43 55.47 97.74 55.28 97.94L53.14 100.05C53.04 100.15 52.91 100.2 52.79 100.2ZM57.06 95.99C56.93 95.99 56.8 95.94 56.7 95.84 56.51 95.64 56.51 95.33 56.7 95.13L58.84 93.02C59.04 92.83 59.35 92.83 59.55 93.02 59.74 93.22 59.74 93.53 59.55 93.73L57.41 95.84C57.31 95.94 57.18 95.99 57.06 95.99ZM61.33 91.77C61.2 91.77 61.07 91.72 60.97 91.62 60.78 91.42 60.78 91.11 60.97 90.91L63.1 88.8C63.3 88.61 63.61 88.61 63.81 88.8 64 89 64 89.31 63.81 89.51L61.68 91.62C61.58 91.73 61.46 91.77 61.33 91.77ZM65.6 87.56C65.47 87.56 65.34 87.51 65.24 87.41 65.05 87.21 65.05 86.9 65.24 86.7L67.38 84.59C67.58 84.4 67.89 84.4 68.09 84.59 68.28 84.79 68.28 85.1 68.09 85.3L65.95 87.41C65.85 87.51 65.73 87.56 65.6 87.56ZM69.87 83.35C69.74 83.35 69.61 83.3 69.51 83.2 69.32 83 69.32 82.69 69.51 82.49L71.65 80.38C71.85 80.19 72.16 80.19 72.36 80.38 72.55 80.58 72.55 80.89 72.36 81.09L70.22 83.2C70.13 83.3 70 83.35 69.87 83.35ZM74.14 79.13C74.01 79.13 73.88 79.08 73.78 78.98 73.59 78.78 73.59 78.47 73.78 78.27L75.92 76.16C76.12 75.97 76.43 75.97 76.63 76.16 76.82 76.36 76.82 76.67 76.63 76.87L74.49 78.98C74.4 79.09 74.27 79.13 74.14 79.13ZM78.41 74.92C78.28 74.92 78.15 74.87 78.05 74.77 77.86 74.57 77.86 74.26 78.05 74.06L80.19 71.95C80.39 71.76 80.7 71.76 80.9 71.95 81.09 72.15 81.09 72.46 80.9 72.66L78.76 74.77C78.67 74.87 78.54 74.92 78.41 74.92ZM82.68 70.71C82.55 70.71 82.42 70.66 82.32 70.56 82.13 70.36 82.13 70.05 82.32 69.85L84.46 67.74C84.66 67.54 84.97 67.55 85.17 67.74 85.36 67.94 85.36 68.25 85.17 68.45L83.03 70.56C82.94 70.66 82.81 70.71 82.68 70.71Z" fill="#7A7A9A"/></g><g><path d="M101.82 102.05 0.75 102.05C0.53 102.05 0.33 101.9 0.27 101.69 0.21 101.48 0.3 101.25 0.48 101.13L51.01 69.2C51.17 69.1 51.38 69.1 51.54 69.2L101.9 100.76C101.98 100.81 102.04 100.88 102.08 100.96L102.26 101.32C102.34 101.48 102.33 101.66 102.24 101.81 102.15 101.96 101.99 102.05 101.82 102.05ZM2.48 101.05 100.48 101.05 51.28 70.22 2.48 101.05Z" fill="#292764"/></g><g><path d="M101.64 101.69C101.55 101.69 101.46 101.66 101.37 101.61L51.01 70.05C50.88 69.97 50.8 69.83 50.78 69.68 50.76 69.53 50.82 69.38 50.92 69.27L73.97 46.22C74.08 46.11 74.25 46.05 74.4 46.08 74.56 46.11 74.69 46.21 74.77 46.35L102.08 100.96C102.18 101.16 102.13 101.4 101.97 101.55 101.88 101.64 101.76 101.69 101.64 101.69ZM52.08 69.54 100.4 99.82 74.2 47.42 52.08 69.54Z" fill="#292764"/></g><g><path d="M51.28 70.13C51.22 70.13 51.15 70.12 51.09 70.09 50.9 70.01 50.78 69.83 50.78 69.63L50.78 0.55C50.78 0.35 50.9 0.17 51.09 0.09 51.28 0.01 51.49 0.05 51.63 0.2L86.17 34.74C86.37 34.94 86.37 35.25 86.17 35.45L51.63 69.98C51.54 70.08 51.41 70.13 51.28 70.13ZM51.78 1.75 51.78 68.42 85.11 35.09 51.78 1.75Z" fill="#292764"/></g><g><path d="M51.35 1.12C51.27 1.12 51.19 1.1 51.11 1.06 51.06 1.05 51 1.02 50.95 0.99 50.75 0.85 50.65 0.61 50.76 0.4L50.83 0.26C51-0.08 51.55-0.08 51.72 0.26L51.79 0.4C51.9 0.62 51.84 0.89 51.64 1.03 51.56 1.09 51.45 1.12 51.35 1.12Z" fill="#292764"/></g><g><path d="M51.28 70.13C51.15 70.13 51.02 70.08 50.93 69.98L16.4 35.44C16.2 35.24 16.2 34.93 16.4 34.73L50.86 0.26C51 0.12 51.25 0.04 51.44 0.12 51.63 0.2 51.78 0.34 51.78 0.55L51.78 69.63C51.78 69.83 51.66 70.01 51.47 70.09 51.41 70.11 51.34 70.13 51.28 70.13ZM17.46 35.09 50.78 68.42 50.78 1.75 17.46 35.09Z" fill="#292764"/></g><g><path d="M0.75 102.05C0.63 102.05 0.51 102.01 0.41 101.92 0.24 101.77 0.2 101.53 0.3 101.33L27.78 46.36C27.85 46.22 27.99 46.12 28.15 46.09 28.31 46.06 28.47 46.12 28.58 46.23L51.63 69.28C51.74 69.39 51.79 69.54 51.77 69.69 51.75 69.84 51.67 69.98 51.54 70.06L1.02 101.97C0.93 102.02 0.84 102.05 0.75 102.05ZM28.37 47.42 2 100.17 50.49 69.54 28.37 47.42Z" fill="#292764"/></g></g><g><g><path d="M82.29 45.02C81.88 45.02 81.54 44.69 81.54 44.27 81.54 43.85 81.87 43.52 82.29 43.52L97.93 43.43C97.93 43.43 97.93 43.43 97.93 43.43 98.34 43.43 98.68 43.76 98.68 44.18 98.68 44.6 98.35 44.93 97.93 44.93L82.29 45.02C82.3 45.02 82.29 45.02 82.29 45.02Z" fill="#292764"/></g><g><path d="M93.09 50.62C92.9 50.62 92.71 50.55 92.57 50.41 92.27 50.12 92.26 49.65 92.55 49.35L97.49 44.24 92.29 39.22C91.99 38.93 91.98 38.46 92.27 38.16 92.56 37.86 93.03 37.86 93.33 38.14L99.07 43.68C99.37 43.97 99.38 44.44 99.09 44.74L93.63 50.39C93.48 50.54 93.29 50.62 93.09 50.62Z" fill="#292764"/></g></g><g><g><path d="M17 44.83C17 44.83 17 44.83 17 44.83L1.36 44.73C0.95 44.73 0.61 44.39 0.61 43.98 0.61 43.57 0.95 43.23 1.36 43.23 1.36 43.23 1.36 43.23 1.36 43.23L17 43.32C17.41 43.32 17.75 43.66 17.75 44.07 17.75 44.49 17.41 44.83 17 44.83Z" fill="#292764"/></g><g><path d="M6.21 50.42C6.01 50.42 5.82 50.34 5.67 50.19L0.21 44.54C0.07 44.39 0 44.2 0 44 0 43.8 0.09 43.61 0.23 43.47L5.97 37.93C6.27 37.64 6.74 37.65 7.03 37.95 7.32 38.25 7.31 38.72 7.01 39.01L1.81 44.03 6.75 49.14C7.04 49.44 7.03 49.91 6.73 50.2 6.58 50.35 6.39 50.42 6.21 50.42Z" fill="#292764"/></g></g></g></svg>