<svg width="119.48" height="109.11" viewBox="0 0 119.48 109.11" xmlns="http://www.w3.org/2000/svg" xmlns:xlink="http://www.w3.org/1999/xlink" xml:space="preserve" overflow="hidden"><defs></defs><g><path d="M59.74 109.11C59.18 108.75 58.71 108.52 58.33 108.19 55.33 105.59 52.42 102.88 49.34 100.39 40.32 93.11 32.4 84.62 23.67 77.02 15.87 70.25 8.11 63.44 1.05 55.89-0.34 54.41-0.32 54.51 0.92 53.17 8.92 44.59 17.9 37.09 26.6 29.27 31.32 25.03 35.78 20.49 40.5 16.24 46.15 11.15 51.95 6.23 57.69 1.25 59.62-0.43 59.77-0.42 61.73 1.29 71.26 9.59 80.88 17.8 89.92 26.65 93.45 30.11 97.25 33.3 100.98 36.54 106.86 41.65 112.54 46.97 117.9 52.63 118.25 53 118.66 53.33 119.05 53.66 119.56 54.09 119.62 54.74 119.18 55.17 117.78 56.53 116.33 57.84 115 59.26 108.8 65.82 101.78 71.49 95.13 77.56 89.81 82.42 84.65 87.45 79.35 92.33 76.75 94.73 73.97 96.93 71.29 99.25 68.09 102.03 64.92 104.86 61.71 107.64 61.11 108.17 60.42 108.6 59.74 109.11ZM21.46 36.03C22.09 36.7 22.66 37.38 23.31 37.96 25.15 39.61 27.03 41.22 28.9 42.84 34.91 48.05 40.18 54.01 45.75 59.67 50.03 64.02 54.39 68.29 58.72 72.6 58.95 72.83 59.21 73.03 59.54 73.31 72.82 61.27 86.04 49.28 99.32 37.23 99.04 36.97 98.75 36.7 98.46 36.44 95.25 33.57 91.99 30.75 88.83 27.83 79.46 19.21 70.12 10.55 60.75 1.93 59.6 0.88 59.83 0.83 58.64 1.9 53.28 6.72 47.91 11.52 42.6 16.39 35.62 22.79 28.7 29.25 21.76 35.68 21.69 35.75 21.64 35.82 21.46 36.03ZM1.98 54.46C2.04 54.56 2.08 54.65 2.14 54.71 5.96 58.48 9.7 62.36 13.64 66 19.18 71.11 24.94 76 30.51 81.08 39.93 89.69 49.28 98.39 58.66 107.04 59.66 107.96 59.69 107.96 60.71 107.04 65.97 102.3 71.23 97.55 76.49 92.8 76.69 92.62 76.94 92.49 77.22 92.29 76.3 91.44 75.54 90.75 74.79 90.04 69.08 84.65 63.37 79.27 57.68 73.86 54.45 70.79 51.2 67.73 48.09 64.54 43.54 59.89 39.21 55.02 34.6 50.43 29.98 45.83 25.13 41.46 20.36 36.98 13.94 42.41 7.76 48.17 1.98 54.46ZM78.32 91.11C78.85 90.61 79.27 90.22 79.69 89.82 84.73 85.11 89.7 80.32 94.84 75.71 102.18 69.12 109.73 62.77 116.46 55.53 116.78 55.18 117.24 54.96 117.61 54.71 114.47 50.98 102.44 39.56 100.17 38.1 97.94 40.07 95.6 41.95 93.49 44.05 87.32 50.19 80.98 56.14 74.49 61.95 70.05 65.92 65.62 69.9 61.19 73.87 61.02 74.02 60.88 74.21 60.75 74.34 66.62 79.94 72.44 85.5 78.32 91.11Z" fill="#2F4042"/><path d="M21.46 36.03C21.64 35.82 21.7 35.74 21.76 35.68 28.7 29.25 35.63 22.79 42.6 16.39 47.91 11.52 53.29 6.72 58.64 1.9 59.83 0.83 59.6 0.87 60.75 1.93 70.12 10.56 79.45 19.22 88.83 27.83 92 30.74 95.25 33.57 98.46 36.44 98.75 36.7 99.03 36.97 99.32 37.23 86.04 49.28 72.82 61.27 59.54 73.31 59.22 73.03 58.96 72.83 58.72 72.6 54.39 68.3 50.03 64.02 45.75 59.67 40.18 54.01 34.91 48.05 28.9 42.84 27.03 41.22 25.15 39.61 23.31 37.96 22.65 37.38 22.09 36.7 21.46 36.03Z" fill="#FFF6A4"/><path d="M1.98 54.46C7.76 48.17 13.94 42.41 20.36 37 25.13 41.49 29.98 45.86 34.6 50.45 39.21 55.04 43.54 59.9 48.09 64.56 51.2 67.75 54.45 70.81 57.68 73.88 63.37 79.29 69.08 84.67 74.79 90.06 75.54 90.77 76.3 91.46 77.22 92.31 76.93 92.51 76.69 92.64 76.49 92.82 71.23 97.56 65.97 102.31 60.71 107.06 59.7 107.97 59.67 107.98 58.66 107.06 49.28 98.41 39.93 89.71 30.51 81.1 24.95 76 19.19 71.12 13.64 66 9.69 62.36 5.96 58.48 2.14 54.71 2.08 54.65 2.04 54.56 1.98 54.46Z" fill="#F9E467"/><path d="M78.32 91.11C72.44 85.5 66.62 79.94 60.75 74.34 60.87 74.21 61.02 74.02 61.19 73.87 65.62 69.89 70.06 65.92 74.49 61.95 80.97 56.14 87.32 50.19 93.49 44.05 95.6 41.95 97.94 40.07 100.17 38.1 102.44 39.56 114.46 50.99 117.61 54.71 117.24 54.97 116.78 55.19 116.46 55.53 109.73 62.77 102.18 69.12 94.84 75.71 89.71 80.32 84.74 85.11 79.69 89.82 79.27 90.21 78.85 90.61 78.32 91.11Z" fill="#F9E467"/></g></svg>