<svg width="102.07" height="102.07" viewBox="0 0 102.07 102.07" xmlns="http://www.w3.org/2000/svg" xmlns:xlink="http://www.w3.org/1999/xlink" xml:space="preserve" overflow="hidden"><defs></defs><g><g><rect x="0.5" y="0.5" width="101.07" height="101.07" fill="#BDF9F6"/></g><g><path d="M51.03 100C50.75 100 50.53 99.78 50.53 99.5L50.53 96.5C50.53 96.22 50.75 96 51.03 96 51.31 96 51.53 96.22 51.53 96.5L51.53 99.5C51.53 99.78 51.31 100 51.03 100ZM51.03 94C50.75 94 50.53 93.78 50.53 93.5L50.53 90.5C50.53 90.22 50.75 90 51.03 90 51.31 90 51.53 90.22 51.53 90.5L51.53 93.5C51.53 93.78 51.31 94 51.03 94ZM51.03 88C50.75 88 50.53 87.78 50.53 87.5L50.53 84.5C50.53 84.22 50.75 84 51.03 84 51.31 84 51.53 84.22 51.53 84.5L51.53 87.5C51.53 87.78 51.31 88 51.03 88ZM51.03 82C50.75 82 50.53 81.78 50.53 81.5L50.53 78.5C50.53 78.22 50.75 78 51.03 78 51.31 78 51.53 78.22 51.53 78.5L51.53 81.5C51.53 81.78 51.31 82 51.03 82ZM51.03 76C50.75 76 50.53 75.78 50.53 75.5L50.53 72.5C50.53 72.22 50.75 72 51.03 72 51.31 72 51.53 72.22 51.53 72.5L51.53 75.5C51.53 75.78 51.31 76 51.03 76ZM51.03 70C50.75 70 50.53 69.78 50.53 69.5L50.53 66.5C50.53 66.22 50.75 66 51.03 66 51.31 66 51.53 66.22 51.53 66.5L51.53 69.5C51.53 69.78 51.31 70 51.03 70ZM51.03 64C50.75 64 50.53 63.78 50.53 63.5L50.53 60.5C50.53 60.22 50.75 60 51.03 60 51.31 60 51.53 60.22 51.53 60.5L51.53 63.5C51.53 63.78 51.31 64 51.03 64ZM51.03 58C50.75 58 50.53 57.78 50.53 57.5L50.53 54.5C50.53 54.22 50.75 54 51.03 54 51.31 54 51.53 54.22 51.53 54.5L51.53 57.5C51.53 57.78 51.31 58 51.03 58ZM51.03 52C50.75 52 50.53 51.78 50.53 51.5L50.53 48.5C50.53 48.22 50.75 48 51.03 48 51.31 48 51.53 48.22 51.53 48.5L51.53 51.5C51.53 51.78 51.31 52 51.03 52ZM51.03 46C50.75 46 50.53 45.78 50.53 45.5L50.53 42.5C50.53 42.22 50.75 42 51.03 42 51.31 42 51.53 42.22 51.53 42.5L51.53 45.5C51.53 45.78 51.31 46 51.03 46ZM51.03 40C50.75 40 50.53 39.78 50.53 39.5L50.53 36.5C50.53 36.22 50.75 36 51.03 36 51.31 36 51.53 36.22 51.53 36.5L51.53 39.5C51.53 39.78 51.31 40 51.03 40ZM51.03 34C50.75 34 50.53 33.78 50.53 33.5L50.53 30.5C50.53 30.22 50.75 30 51.03 30 51.31 30 51.53 30.22 51.53 30.5L51.53 33.5C51.53 33.78 51.31 34 51.03 34ZM51.03 28C50.75 28 50.53 27.78 50.53 27.5L50.53 24.5C50.53 24.22 50.75 24 51.03 24 51.31 24 51.53 24.22 51.53 24.5L51.53 27.5C51.53 27.78 51.31 28 51.03 28ZM51.03 22C50.75 22 50.53 21.78 50.53 21.5L50.53 18.5C50.53 18.22 50.75 18 51.03 18 51.31 18 51.53 18.22 51.53 18.5L51.53 21.5C51.53 21.78 51.31 22 51.03 22ZM51.03 16C50.75 16 50.53 15.78 50.53 15.5L50.53 12.5C50.53 12.22 50.75 12 51.03 12 51.31 12 51.53 12.22 51.53 12.5L51.53 15.5C51.53 15.78 51.31 16 51.03 16ZM51.03 10C50.75 10 50.53 9.78 50.53 9.5L50.53 6.5C50.53 6.22 50.75 6 51.03 6 51.31 6 51.53 6.22 51.53 6.5L51.53 9.5C51.53 9.78 51.31 10 51.03 10ZM51.03 4C50.75 4 50.53 3.78 50.53 3.5L50.53 0.5C50.53 0.22 50.75 0 51.03 0 51.31 0 51.53 0.22 51.53 0.5L51.53 3.5C51.53 3.78 51.31 4 51.03 4Z" fill="#7A7A9A"/></g><g><path d="M99.5 51.53 96.5 51.53C96.22 51.53 96 51.31 96 51.03 96 50.75 96.22 50.53 96.5 50.53L99.5 50.53C99.78 50.53 100 50.75 100 51.03 100 51.31 99.78 51.53 99.5 51.53ZM93.5 51.53 90.5 51.53C90.22 51.53 90 51.31 90 51.03 90 50.75 90.22 50.53 90.5 50.53L93.5 50.53C93.78 50.53 94 50.75 94 51.03 94 51.31 93.78 51.53 93.5 51.53ZM87.5 51.53 84.5 51.53C84.22 51.53 84 51.31 84 51.03 84 50.75 84.22 50.53 84.5 50.53L87.5 50.53C87.78 50.53 88 50.75 88 51.03 88 51.31 87.78 51.53 87.5 51.53ZM81.5 51.53 78.5 51.53C78.22 51.53 78 51.31 78 51.03 78 50.75 78.22 50.53 78.5 50.53L81.5 50.53C81.78 50.53 82 50.75 82 51.03 82 51.31 81.78 51.53 81.5 51.53ZM75.5 51.53 72.5 51.53C72.22 51.53 72 51.31 72 51.03 72 50.75 72.22 50.53 72.5 50.53L75.5 50.53C75.78 50.53 76 50.75 76 51.03 76 51.31 75.78 51.53 75.5 51.53ZM69.5 51.53 66.5 51.53C66.22 51.53 66 51.31 66 51.03 66 50.75 66.22 50.53 66.5 50.53L69.5 50.53C69.78 50.53 70 50.75 70 51.03 70 51.31 69.78 51.53 69.5 51.53ZM63.5 51.53 60.5 51.53C60.22 51.53 60 51.31 60 51.03 60 50.75 60.22 50.53 60.5 50.53L63.5 50.53C63.78 50.53 64 50.75 64 51.03 64 51.31 63.78 51.53 63.5 51.53ZM57.5 51.53 54.5 51.53C54.22 51.53 54 51.31 54 51.03 54 50.75 54.22 50.53 54.5 50.53L57.5 50.53C57.78 50.53 58 50.75 58 51.03 58 51.31 57.78 51.53 57.5 51.53ZM51.5 51.53 48.5 51.53C48.22 51.53 48 51.31 48 51.03 48 50.75 48.22 50.53 48.5 50.53L51.5 50.53C51.78 50.53 52 50.75 52 51.03 52 51.31 51.78 51.53 51.5 51.53ZM45.5 51.53 42.5 51.53C42.22 51.53 42 51.31 42 51.03 42 50.75 42.22 50.53 42.5 50.53L45.5 50.53C45.78 50.53 46 50.75 46 51.03 46 51.31 45.78 51.53 45.5 51.53ZM39.5 51.53 36.5 51.53C36.22 51.53 36 51.31 36 51.03 36 50.75 36.22 50.53 36.5 50.53L39.5 50.53C39.78 50.53 40 50.75 40 51.03 40 51.31 39.78 51.53 39.5 51.53ZM33.5 51.53 30.5 51.53C30.22 51.53 30 51.31 30 51.03 30 50.75 30.22 50.53 30.5 50.53L33.5 50.53C33.78 50.53 34 50.75 34 51.03 34 51.31 33.78 51.53 33.5 51.53ZM27.5 51.53 24.5 51.53C24.22 51.53 24 51.31 24 51.03 24 50.75 24.22 50.53 24.5 50.53L27.5 50.53C27.78 50.53 28 50.75 28 51.03 28 51.31 27.78 51.53 27.5 51.53ZM21.5 51.53 18.5 51.53C18.22 51.53 18 51.31 18 51.03 18 50.75 18.22 50.53 18.5 50.53L21.5 50.53C21.78 50.53 22 50.75 22 51.03 22 51.31 21.78 51.53 21.5 51.53ZM15.5 51.53 12.5 51.53C12.22 51.53 12 51.31 12 51.03 12 50.75 12.22 50.53 12.5 50.53L15.5 50.53C15.78 50.53 16 50.75 16 51.03 16 51.31 15.78 51.53 15.5 51.53ZM9.5 51.53 6.5 51.53C6.22 51.53 6 51.31 6 51.03 6 50.75 6.22 50.53 6.5 50.53L9.5 50.53C9.78 50.53 10 50.75 10 51.03 10 51.31 9.78 51.53 9.5 51.53ZM3.5 51.53 0.5 51.53C0.22 51.53 0 51.31 0 51.03 0 50.75 0.22 50.53 0.5 50.53L3.5 50.53C3.78 50.53 4 50.75 4 51.03 4 51.31 3.78 51.53 3.5 51.53Z" fill="#7A7A9A"/></g><g><path d="M99.83 49.79C99.7 49.79 99.57 49.74 99.48 49.64L97.36 47.52C97.16 47.32 97.16 47.01 97.36 46.81 97.56 46.61 97.87 46.61 98.07 46.81L100.19 48.93C100.39 49.13 100.39 49.44 100.19 49.64 100.08 49.74 99.95 49.79 99.83 49.79ZM95.58 45.55C95.45 45.55 95.32 45.5 95.23 45.4L93.11 43.28C92.91 43.08 92.91 42.77 93.11 42.57 93.31 42.37 93.62 42.37 93.82 42.57L95.94 44.69C96.14 44.89 96.14 45.2 95.94 45.4 95.84 45.5 95.71 45.55 95.58 45.55ZM91.34 41.3C91.21 41.3 91.08 41.25 90.99 41.15L88.87 39.03C88.67 38.83 88.67 38.52 88.87 38.32 89.07 38.12 89.38 38.12 89.58 38.32L91.7 40.44C91.9 40.64 91.9 40.95 91.7 41.15 91.6 41.26 91.47 41.3 91.34 41.3ZM87.1 37.06C86.97 37.06 86.84 37.01 86.75 36.91L84.63 34.79C84.43 34.59 84.43 34.28 84.63 34.08 84.83 33.88 85.14 33.88 85.34 34.08L87.46 36.2C87.66 36.4 87.66 36.71 87.46 36.91 87.35 37.01 87.23 37.06 87.1 37.06ZM82.85 32.82C82.72 32.82 82.59 32.77 82.5 32.67L80.38 30.55C80.18 30.35 80.18 30.04 80.38 29.84 80.58 29.64 80.89 29.64 81.09 29.84L83.21 31.96C83.41 32.16 83.41 32.47 83.21 32.67 83.11 32.77 82.98 32.82 82.85 32.82ZM78.61 28.58C78.48 28.58 78.35 28.53 78.26 28.43L76.14 26.31C75.94 26.11 75.94 25.8 76.14 25.6 76.34 25.4 76.65 25.4 76.85 25.6L78.97 27.72C79.17 27.92 79.17 28.23 78.97 28.43 78.87 28.53 78.74 28.58 78.61 28.58ZM74.37 24.33C74.24 24.33 74.11 24.28 74.02 24.18L71.9 22.06C71.7 21.86 71.7 21.55 71.9 21.35 72.1 21.15 72.41 21.15 72.61 21.35L74.73 23.47C74.93 23.67 74.93 23.98 74.73 24.18 74.63 24.29 74.5 24.33 74.37 24.33ZM70.13 20.09C70 20.09 69.87 20.04 69.78 19.94L67.66 17.82C67.46 17.62 67.46 17.31 67.66 17.11 67.86 16.91 68.17 16.91 68.37 17.11L70.49 19.23C70.69 19.43 70.69 19.74 70.49 19.94 70.38 20.04 70.25 20.09 70.13 20.09ZM65.88 15.85C65.75 15.85 65.62 15.8 65.53 15.7L63.41 13.58C63.21 13.38 63.21 13.07 63.41 12.87 63.61 12.67 63.92 12.67 64.12 12.87L66.24 15C66.44 15.2 66.44 15.51 66.24 15.71 66.14 15.8 66.01 15.85 65.88 15.85ZM61.64 11.61C61.51 11.61 61.38 11.56 61.29 11.46L59.17 9.34C58.97 9.14 58.97 8.83 59.17 8.63 59.37 8.43 59.68 8.43 59.88 8.63L62 10.75C62.2 10.95 62.2 11.26 62 11.46 61.9 11.56 61.77 11.61 61.64 11.61ZM57.4 7.36C57.27 7.36 57.14 7.31 57.05 7.21L54.92 5.1C54.72 4.9 54.72 4.59 54.92 4.39 55.12 4.19 55.43 4.19 55.63 4.39L57.75 6.51C57.95 6.71 57.95 7.02 57.75 7.22 57.65 7.31 57.53 7.36 57.4 7.36ZM53.16 3.12C53.03 3.12 52.9 3.07 52.81 2.97L50.69 0.85C50.49 0.65 50.49 0.34 50.69 0.14 50.89-0.06 51.2-0.06 51.4 0.14L53.52 2.26C53.72 2.46 53.72 2.77 53.52 2.97 53.41 3.07 53.28 3.12 53.16 3.12Z" fill="#7A7A9A"/></g><g><path d="M0.5 51.53C0.37 51.53 0.24 51.48 0.15 51.38-0.05 51.18-0.05 50.87 0.15 50.67L2.27 48.55C2.47 48.35 2.78 48.35 2.98 48.55 3.18 48.75 3.18 49.06 2.98 49.26L0.86 51.38C0.76 51.49 0.63 51.53 0.5 51.53ZM4.74 47.29C4.61 47.29 4.48 47.24 4.39 47.14 4.19 46.94 4.19 46.63 4.39 46.43L6.51 44.31C6.71 44.11 7.02 44.11 7.22 44.31 7.42 44.51 7.42 44.82 7.22 45.02L5.1 47.15C5 47.24 4.87 47.29 4.74 47.29ZM8.99 43.05C8.86 43.05 8.73 43 8.64 42.9 8.44 42.7 8.44 42.39 8.64 42.19L10.76 40.07C10.96 39.87 11.27 39.87 11.47 40.07 11.67 40.27 11.67 40.58 11.47 40.78L9.34 42.9C9.24 43 9.11 43.05 8.99 43.05ZM13.23 38.81C13.1 38.81 12.97 38.76 12.88 38.66 12.68 38.46 12.68 38.15 12.88 37.95L15 35.83C15.2 35.63 15.51 35.63 15.71 35.83 15.91 36.03 15.91 36.34 15.71 36.54L13.59 38.66C13.48 38.76 13.36 38.81 13.23 38.81ZM17.47 34.56C17.34 34.56 17.21 34.51 17.12 34.41 16.92 34.21 16.92 33.9 17.12 33.7L19.24 31.58C19.44 31.38 19.75 31.38 19.95 31.58 20.15 31.78 20.15 32.09 19.95 32.29L17.83 34.41C17.73 34.52 17.6 34.56 17.47 34.56ZM21.71 30.32C21.58 30.32 21.45 30.27 21.36 30.17 21.16 29.97 21.16 29.66 21.36 29.46L23.48 27.34C23.68 27.14 23.99 27.14 24.19 27.34 24.39 27.54 24.39 27.85 24.19 28.05L22.07 30.17C21.97 30.27 21.84 30.32 21.71 30.32ZM25.96 26.08C25.83 26.08 25.7 26.03 25.61 25.93 25.41 25.73 25.41 25.42 25.61 25.22L27.73 23.1C27.93 22.9 28.24 22.9 28.44 23.1 28.64 23.3 28.64 23.61 28.44 23.81L26.32 25.93C26.21 26.03 26.08 26.08 25.96 26.08ZM30.2 21.84C30.07 21.84 29.94 21.79 29.85 21.69 29.65 21.49 29.65 21.18 29.85 20.98L31.97 18.86C32.17 18.66 32.48 18.66 32.68 18.86 32.88 19.06 32.88 19.37 32.68 19.57L30.56 21.69C30.45 21.79 30.33 21.84 30.2 21.84ZM34.44 17.59C34.31 17.59 34.18 17.54 34.09 17.44 33.89 17.24 33.89 16.93 34.09 16.73L36.21 14.61C36.41 14.41 36.72 14.41 36.92 14.61 37.12 14.81 37.12 15.12 36.92 15.32L34.8 17.44C34.7 17.54 34.57 17.59 34.44 17.59ZM38.68 13.35C38.55 13.35 38.42 13.3 38.33 13.2 38.13 13 38.13 12.69 38.33 12.49L40.45 10.37C40.65 10.17 40.96 10.17 41.16 10.37 41.36 10.57 41.36 10.88 41.16 11.08L39.04 13.2C38.94 13.3 38.81 13.35 38.68 13.35ZM42.93 9.11C42.8 9.11 42.67 9.06 42.58 8.96 42.38 8.76 42.38 8.45 42.58 8.25L44.7 6.13C44.9 5.93 45.21 5.93 45.41 6.13 45.61 6.33 45.61 6.64 45.41 6.84L43.29 8.96C43.18 9.06 43.05 9.11 42.93 9.11ZM47.17 4.87C47.04 4.87 46.91 4.82 46.82 4.72 46.62 4.52 46.62 4.21 46.82 4.01L48.94 1.89C49.14 1.69 49.45 1.69 49.65 1.89 49.85 2.09 49.85 2.4 49.65 2.6L47.53 4.72C47.43 4.82 47.3 4.87 47.17 4.87Z" fill="#7A7A9A"/></g><g><path d="M101.57 102.07 0.5 102.07C0.22 102.07 0 101.85 0 101.57L0 0.5C0 0.22 0.22 0 0.5 0L101.57 0C101.85 0 102.07 0.22 102.07 0.5L102.07 101.57C102.07 101.85 101.85 102.07 101.57 102.07ZM1 101.07 101.07 101.07 101.07 1 1 1 1 101.07Z" fill="#292764"/></g></g></svg>