<svg width="78.14" height="126.57" viewBox="0 0 78.14 126.57" xmlns="http://www.w3.org/2000/svg" xmlns:xlink="http://www.w3.org/1999/xlink" xml:space="preserve" overflow="hidden"><defs></defs><g><g><g><g><path d="M0.5 1.49 0.5 126.07 77.25 126.07 77.25 38.81 38.87 1.49Z" fill="#EEF3FF"/></g><g><path d="M39.37 126.07 38.37 126.07 38.37 121.49 39.37 121.49 39.37 126.07ZM39.37 116.49 38.37 116.49 38.37 111.49 39.37 111.49 39.37 116.49ZM39.37 106.49 38.37 106.49 38.37 101.49 39.37 101.49 39.37 106.49ZM39.37 96.49 38.37 96.49 38.37 91.49 39.37 91.49 39.37 96.49ZM39.37 86.49 38.37 86.49 38.37 81.49 39.37 81.49 39.37 86.49ZM39.37 76.49 38.37 76.49 38.37 71.49 39.37 71.49 39.37 76.49ZM39.37 66.49 38.37 66.49 38.37 61.49 39.37 61.49 39.37 66.49ZM39.37 56.49 38.37 56.49 38.37 51.49 39.37 51.49 39.37 56.49ZM39.37 46.49 38.37 46.49 38.37 41.49 39.37 41.49 39.37 46.49ZM39.37 36.49 38.37 36.49 38.37 31.49 39.37 31.49 39.37 36.49ZM39.37 26.49 38.37 26.49 38.37 21.49 39.37 21.49 39.37 26.49ZM39.37 16.49 38.37 16.49 38.37 11.49 39.37 11.49 39.37 16.49ZM39.37 6.49 38.37 6.49 38.37 1.49 39.37 1.49 39.37 6.49Z" fill="#8796D8"/></g><g><g><path d="M0.5 38.81 0.5 1.49 38.87 1.49Z" fill="#E4CDFC"/></g><g><path d="M1 38.81 0 38.81 0 0.99 38.87 0.99 38.87 1.99 1 1.99Z" fill="#8796D8"/></g></g><g><path d="M76.91 38.43 38.87 38.43 38.87 1.49Z" fill="#E4CDFC"/></g><g><rect x="6.96" y="29.6" width="5" height="1" fill="#8796D8" transform="matrix(0.7168 -0.6972 0.6972 0.7168 -18.3059 15.1187)"/><rect x="21.3" y="15.65" width="5" height="1" fill="#8796D8" transform="matrix(0.7168 -0.6972 0.6972 0.7168 -4.5239 21.1672)"/><rect x="14.13" y="22.63" width="5" height="1" fill="#8796D8" transform="matrix(0.7168 -0.6973 0.6973 0.7168 -11.4153 18.145)"/><rect x="28.47" y="8.68" width="5" height="1" fill="#8796D8" transform="matrix(0.7168 -0.6973 0.6973 0.7168 2.3683 24.1932)"/></g><path d="M39.08 0.99 38.38 0.99 34.75 0.99 0 0.99 0 126.57 77.75 126.57 77.75 38.93 78.14 38.93 39.08 0.99ZM39.37 2.68 75.62 37.94 39.37 37.94 39.37 2.68ZM76.75 125.57 1 125.57 1 39.02 4.43 35.68 3.73 34.96 1 37.63 1 1.99 37.64 1.99 36 3.59 36.7 4.31 38.38 2.67 38.38 38.93 76.66 38.93 76.75 39.02 76.75 125.57Z" fill="#8796D8"/></g></g><g><path d="M71.87 16.95C71.8 13.74 71.18 7.01 67.42 3.04 65.51 1.02 63.04 0 60.07 0 57.1 0 54.59 1.02 52.6 3.04 47.44 8.27 47.52 18.3 47.52 18.72L48.52 18.71C48.52 18.61 48.45 8.67 53.31 3.74 55.11 1.92 57.38 1 60.07 1 62.75 1 64.98 1.92 66.69 3.73 70.16 7.4 70.77 13.86 70.86 16.95L68.14 16.95 71.25 23.65 74.39 16.95 71.87 16.95Z" fill="#5366AD"/></g></g></svg>