<svg width="224.47" height="465.08" viewBox="0 0 224.47 465.08" xmlns="http://www.w3.org/2000/svg" xmlns:xlink="http://www.w3.org/1999/xlink" xml:space="preserve" overflow="hidden"><defs></defs><g><g><g><rect x="7.34" y="169.75" width="210.56" height="13.03" stroke="#0A0909" stroke-miterlimit="10" fill="#FFFFFF"/><path d="M217.9 183.19 7.34 183.19C7.12 183.19 6.94 183.01 6.94 182.78L6.94 169.75C6.94 169.52 7.12 169.34 7.34 169.34L217.9 169.34C218.12 169.34 218.3 169.52 218.3 169.75L218.3 182.78C218.3 183.01 218.12 183.19 217.9 183.19ZM7.74 182.37 217.49 182.37 217.49 170.17 7.74 170.17 7.74 182.37Z" stroke="#0A0909" stroke-miterlimit="10" fill="#FFFFFF"/></g><rect x="7.34" y="169.75" width="210.56" height="3.51" stroke="#0A0909" stroke-miterlimit="10" fill="#FFFFFF"/></g><g><g><rect x="1.89" y="0.81" width="221.45" height="9.76" stroke="#0A0909" stroke-miterlimit="10" fill="#FFFFFF"/><path d="M223.34 10.88 1.89 10.88C1.66 10.88 1.47 10.74 1.47 10.57L1.47 0.81C1.47 0.64 1.66 0.5 1.89 0.5L223.34 0.5C223.57 0.5 223.76 0.64 223.76 0.81L223.76 10.57C223.76 10.74 223.57 10.88 223.34 10.88ZM2.32 10.26 222.92 10.26 222.92 1.12 2.32 1.12 2.32 10.26Z" stroke="#0A0909" stroke-miterlimit="10" fill="#FFFFFF"/></g><rect x="1.89" y="0.81" width="221.45" height="2.63" stroke="#0A0909" stroke-miterlimit="10" fill="#FFFFFF"/></g><g><g><rect x="10.53" y="445.98" width="17.04" height="18.19" stroke="#0A0909" stroke-miterlimit="10" fill="#FFFFFF"/><path d="M27.56 464.58 10.53 464.58C10.29 464.58 10.1 464.4 10.1 464.17L10.1 445.98C10.1 445.75 10.29 445.57 10.53 445.57L27.57 445.57C27.8 445.57 27.99 445.75 27.99 445.98L27.99 464.17C27.99 464.4 27.8 464.58 27.56 464.58ZM10.95 463.76 27.14 463.76 27.14 446.39 10.95 446.39 10.95 463.76Z" stroke="#0A0909" stroke-miterlimit="10" fill="#FFFFFF"/></g><g><rect x="197.29" y="445.98" width="17.04" height="18.19" stroke="#0A0909" stroke-miterlimit="10" fill="#FFFFFF"/><path d="M214.32 464.58 197.28 464.58C197.05 464.58 196.86 464.4 196.86 464.17L196.86 445.98C196.86 445.75 197.05 445.57 197.28 445.57L214.32 445.57C214.56 445.57 214.75 445.75 214.75 445.98L214.75 464.17C214.75 464.4 214.56 464.58 214.32 464.58ZM197.71 463.76 213.9 463.76 213.9 446.39 197.71 446.39 197.71 463.76Z" stroke="#0A0909" stroke-miterlimit="10" fill="#FFFFFF"/></g></g><g><g><g><rect x="6.94" y="435.18" width="210.98" height="14.09" stroke="#0A0909" stroke-miterlimit="10" fill="#FFFFFF"/><path d="M217.91 449.69 6.94 449.69C6.71 449.69 6.52 449.5 6.52 449.28L6.52 435.19C6.52 434.96 6.71 434.78 6.94 434.78L217.92 434.78C218.15 434.78 218.34 434.96 218.34 435.19L218.34 449.28C218.34 449.5 218.15 449.69 217.91 449.69ZM7.36 448.86 217.49 448.86 217.49 435.59 7.36 435.59 7.36 448.86Z" stroke="#0A0909" stroke-miterlimit="10" fill="#FFFFFF"/></g></g><g><rect x="0.92" y="430.58" width="222.62" height="13.03" stroke="#0A0909" stroke-miterlimit="10" fill="#FFFFFF"/><path d="M223.55 444.01 0.92 444.01C0.68 444.01 0.5 443.83 0.5 443.6L0.5 430.57C0.5 430.34 0.69 430.16 0.92 430.16L223.54 430.16C223.78 430.16 223.97 430.34 223.97 430.57L223.97 443.6C223.97 443.83 223.78 444.01 223.55 444.01ZM1.35 443.19 223.12 443.19 223.12 430.99 1.35 430.99 1.35 443.19Z" stroke="#0A0909" stroke-miterlimit="10" fill="#FFFFFF"/></g><rect x="0.92" y="430.58" width="222.62" height="3.51" stroke="#0A0909" stroke-miterlimit="10" fill="#FFFFFF"/></g><g><g><rect x="18.52" y="198.02" width="9.47" height="113.57" stroke="#0A0909" stroke-miterlimit="10" fill="#FFFFFF"/><g><defs><filter id="Adobe_OpacityMaskFilter" x="17.42" y="194.31" width="2.7" height="112.17" filterUnits="userSpaceOnUse" primitiveUnits="userSpaceOnUse"><feFlood flood-color="#FFFFFF" result="back"/><feBlend in="SourceGraphic" in2="back" mode="normal"/></filter></defs><mask maskUnits="userSpaceOnUse" x="17.42" y="194.31" width="2.7" height="112.17" id="SVGID_1_"><g filter="url(#Adobe_OpacityMaskFilter)"><defs><filter id="Adobe_OpacityMaskFilter_1_" x="17.92" y="194.81" width="1.7" height="111.17" filterUnits="userSpaceOnUse" primitiveUnits="userSpaceOnUse"><feFlood flood-color="#FFFFFF" result="back"/><feBlend in="SourceGraphic" in2="back" mode="normal"/></filter></defs><mask maskUnits="userSpaceOnUse" x="17.92" y="194.81" width="1.7" height="111.17" id="SVGID_1_"><g filter="url(#Adobe_OpacityMaskFilter_1_)"></g></mask><radialGradient cx="-2859.93" cy="2452.74" r="31.4379" gradientUnits="userSpaceOnUse" id="SVGID_2_" gradientTransform="matrix(1.348 0 0 3.3211 3842.22 -7889.01)"><stop offset="0.1791"/><stop offset="1" stop-color="#FFFFFF"/></radialGradient><rect x="17.92" y="194.81" width="1.7" height="111.17" fill="url(#SVGID_2_)" mask="url(#SVGID_1_)"/></g></mask><g><rect x="17.08" y="194.18" width="9.47" height="113.57" stroke="#0A0909" stroke-miterlimit="10" fill="#FFFFFF"/><path d="M26.55 308.37 17.08 308.37C16.97 308.37 16.88 308.09 16.88 307.75L16.88 194.18C16.88 193.84 16.97 193.56 17.08 193.56L26.55 193.56C26.66 193.56 26.75 193.84 26.75 194.18L26.75 307.75C26.76 308.09 26.67 308.37 26.55 308.37ZM17.29 307.13 26.35 307.13 26.35 194.8 17.29 194.8 17.29 307.13Z" stroke="#0A0909" stroke-miterlimit="10" fill="#FFFFFF"/></g><rect x="17.92" y="194.81" width="1.7" height="111.17" stroke="#0A0909" stroke-miterlimit="10" fill="#FFFFFF"/><rect x="22.63" y="194.18" width="3.92" height="113.57" stroke="#0A0909" stroke-miterlimit="10" fill="#FFFFFF"/></g></g></g></g></svg>