<svg width="320.96" height="109.61" viewBox="0 0 320.96 109.61" xmlns="http://www.w3.org/2000/svg" xmlns:xlink="http://www.w3.org/1999/xlink" xml:space="preserve" overflow="hidden"><defs></defs><g><path d="M160.43 109.39C151.18 109.47 141.93 109.66 132.68 109.6 110.89 109.45 89.11 109.18 67.32 108.95 64.88 108.92 62.44 108.91 60 108.84 59.66 108.83 59.18 108.64 59.01 108.38 56.31 104.32 53.49 100.32 51 96.13 46.14 87.94 41.36 79.71 36.76 71.38 28.84 57.07 21.14 42.65 13.91 27.97 9.61 19.25 4.89 10.73 0.32 2.15-0.39 0.81 0.07 0.22 1.68 0.01 2.14-0.05 2.63 0.16 3.1 0.26 13.25 2.43 23.04 5.85 33.04 8.54 39.55 10.29 46.15 11.72 52.69 13.35 70.66 17.84 88.64 22.25 106.79 25.96 114.9 27.62 122.99 29.37 131.09 31.1 131.62 31.21 131.97 31.11 132.37 30.73 139.99 23.35 147.62 15.99 155.24 8.61 156.75 7.14 158.24 5.65 159.73 4.16 160.24 3.65 160.67 3.68 161.18 4.19 167.17 10.09 173.15 15.99 179.17 21.86 182.24 24.84 185.39 27.74 188.48 30.69 188.86 31.05 189.18 31.23 189.74 31.11 203.31 28.2 216.93 25.47 230.46 22.39 243.85 19.35 257.13 15.85 270.52 12.79 282.39 10.07 294.1 6.82 305.74 3.28 309.97 1.99 314.31 1.08 318.62 0.07 319.19-0.06 319.94 0.15 320.5 0.43 321.22 0.8 320.91 1.45 320.61 2 319.37 4.28 318.08 6.52 316.9 8.83 311.26 19.85 305.7 30.91 300.01 41.9 296.25 49.15 292.41 56.35 288.43 63.48 282.34 74.4 276.17 85.27 269.9 96.08 267.67 99.93 265.02 103.54 262.56 107.26 262.38 107.54 262.17 107.8 262.04 108.1 261.79 108.69 261.35 108.85 260.74 108.85 242.09 109.01 223.44 109.21 204.79 109.35 192.98 109.44 181.17 109.48 169.35 109.49 166.37 109.49 163.39 109.31 160.41 109.22 160.43 109.29 160.43 109.34 160.43 109.39ZM1.84 2.37C2 2.72 2.06 2.9 2.16 3.07 9.04 15.04 15.2 27.38 21.51 39.64 27.65 51.55 34.22 63.24 40.63 75.01 46.43 85.65 52.6 96.06 59.44 106.07 60.16 107.13 60.87 107.52 62.18 107.51 77.16 107.51 92.13 107.56 107.11 107.65 119.53 107.72 131.94 107.89 144.35 107.93 150.71 107.95 157.06 107.71 163.42 107.72 171.53 107.73 179.63 107.99 187.74 107.95 211.79 107.84 235.83 107.65 259.88 107.46 260.17 107.46 260.58 107.24 260.74 107 263.83 102.33 267.12 97.77 269.92 92.92 276.48 81.54 282.83 70.05 289.2 58.57 292.56 52.51 295.97 46.48 299.08 40.28 305.35 27.75 311.71 15.28 318.69 3.13 318.8 2.93 318.89 2.73 319.06 2.38 318.72 2.49 318.53 2.54 318.35 2.62 315.9 3.56 313.48 4.57 311.01 5.43 298.48 9.78 286.19 14.74 274.19 20.36 253.7 29.94 233.26 39.63 212.82 49.3 196.24 57.15 179.4 64.41 162.45 71.44 161.11 72 159.82 72.01 158.48 71.44 152.32 68.84 146.11 66.36 139.99 63.67 117.19 53.65 94.52 43.33 72.12 32.43 58.44 25.78 44.79 19.06 30.68 13.36 22.67 10.13 14.53 7.19 6.46 4.12 4.96 3.59 3.48 3.01 1.84 2.37ZM205.09 51.3C203.76 49.64 202.57 48.17 201.4 46.69 197.01 41.15 191.88 36.32 186.86 31.38 178.5 23.17 170.15 14.96 161.79 6.75 161.67 6.63 161.53 6.54 161.35 6.41 161.35 27.82 161.35 49.14 161.35 70.69 176.03 64.17 190.55 57.74 205.09 51.3ZM115.88 51.33C130.37 57.75 144.9 64.18 159.59 70.69 159.59 49.1 159.59 27.79 159.59 6.37 159.38 6.54 159.23 6.63 159.11 6.75 156.44 9.4 153.79 12.08 151.1 14.71 144.89 20.8 138.68 26.9 132.42 32.94 126.53 38.64 120.86 44.54 115.88 51.33ZM311.76 3.46C311.74 3.37 311.71 3.28 311.69 3.19 271.73 15.04 231.1 24.1 190.01 32.22 190.5 32.68 190.79 32.93 191.07 33.2 195.82 37.83 200.45 42.57 204.43 47.9 204.91 48.55 205.52 49.11 206.02 49.75 206.44 50.28 206.84 50.35 207.48 50.05 224.98 41.77 242.52 33.55 260 25.23 274.47 18.34 289.02 11.65 304.12 6.21 306.67 5.29 309.21 4.37 311.76 3.46ZM9.21 3.19C9.19 3.27 9.17 3.34 9.15 3.42 9.62 3.6 10.09 3.81 10.57 3.97 23.14 8.3 35.43 13.33 47.48 18.92 68.93 28.87 90.01 39.59 111.63 49.17 112.52 49.56 113.55 50.32 114.32 50.13 115.12 49.93 115.76 48.84 116.36 48.05 120.46 42.58 125.21 37.71 130.1 32.96 130.31 32.76 130.5 32.54 130.81 32.2 89.79 24.1 49.17 15.04 9.21 3.19Z" fill="#2F4042"/><path d="M1.84 2.37C3.48 3.01 4.96 3.59 6.44 4.15 14.52 7.22 22.65 10.15 30.66 13.39 44.77 19.09 58.43 25.81 72.1 32.46 94.5 43.35 117.17 53.67 139.97 63.7 146.09 66.39 152.3 68.88 158.46 71.47 159.8 72.04 161.09 72.02 162.43 71.47 179.37 64.44 196.21 57.18 212.8 49.33 233.25 39.66 253.68 29.97 274.17 20.39 286.18 14.77 298.47 9.81 310.99 5.46 313.46 4.6 315.88 3.59 318.33 2.65 318.52 2.58 318.71 2.52 319.04 2.41 318.87 2.75 318.78 2.96 318.67 3.16 311.69 15.31 305.34 27.79 299.06 40.31 295.96 46.5 292.55 52.54 289.18 58.6 282.8 70.08 276.46 81.58 269.9 92.95 267.11 97.8 263.81 102.36 260.72 107.03 260.56 107.27 260.15 107.49 259.86 107.49 235.81 107.67 211.77 107.87 187.72 107.98 179.62 108.02 171.51 107.76 163.4 107.75 157.04 107.74 150.69 107.98 144.33 107.96 131.91 107.92 119.5 107.75 107.09 107.68 92.11 107.6 77.14 107.54 62.16 107.54 60.85 107.54 60.15 107.15 59.42 106.1 52.58 96.09 46.4 85.68 40.61 75.04 34.2 63.27 27.63 51.58 21.49 39.67 15.2 27.38 9.04 15.04 2.16 3.07 2.06 2.9 2 2.72 1.84 2.37Z" fill="#FFF6A4"/><path d="M205.09 51.3C190.55 57.74 176.03 64.17 161.34 70.68 161.34 49.13 161.34 27.81 161.34 6.4 161.51 6.53 161.66 6.62 161.78 6.74 170.14 14.95 178.5 23.16 186.85 31.37 191.87 36.31 197 41.14 201.39 46.68 202.58 48.17 203.77 49.64 205.09 51.3Z" fill="#F9E467"/><path d="M115.88 51.33C120.86 44.54 126.53 38.64 132.43 32.94 138.69 26.9 144.89 20.8 151.11 14.71 153.8 12.07 156.45 9.4 159.12 6.75 159.24 6.63 159.38 6.54 159.6 6.37 159.6 27.79 159.6 49.1 159.6 70.69 144.9 64.18 130.37 57.75 115.88 51.33Z" fill="#FFF6A4"/><path d="M311.76 3.46C309.21 4.38 306.67 5.3 304.12 6.21 289.03 11.65 274.48 18.34 260 25.23 242.52 33.55 224.98 41.77 207.48 50.05 206.84 50.35 206.44 50.28 206.02 49.75 205.51 49.12 204.91 48.55 204.43 47.9 200.45 42.57 195.82 37.83 191.07 33.2 190.79 32.93 190.5 32.67 190.01 32.22 231.1 24.1 271.73 15.04 311.69 3.18 311.71 3.28 311.74 3.37 311.76 3.46Z" fill="#F9E467"/><path d="M9.21 3.19C49.17 15.04 89.79 24.1 130.79 32.2 130.48 32.53 130.29 32.75 130.08 32.96 125.2 37.71 120.44 42.58 116.34 48.05 115.75 48.84 115.11 49.93 114.3 50.13 113.53 50.32 112.5 49.57 111.61 49.17 89.99 39.59 68.91 28.87 47.46 18.92 35.42 13.33 23.14 8.3 10.57 3.97 10.09 3.8 9.62 3.6 9.15 3.42 9.17 3.34 9.19 3.27 9.21 3.19Z" fill="#F9E467"/></g></svg>