<svg width="113.76" height="81.21" viewBox="0 0 113.76 81.21" xmlns="http://www.w3.org/2000/svg" xmlns:xlink="http://www.w3.org/1999/xlink" xml:space="preserve" overflow="hidden"><defs></defs><g><g><g><path d="M32.99 15.67 32.99 15.67 98.22 80.9 32.99 80.9Z" stroke="#435791" stroke-width="0.6179" stroke-linecap="round" stroke-linejoin="round" stroke-miterlimit="10" fill="#8EA7E8"/><path d="M75.93 58.61 34.57 59.61C34.57 59.61 33.68 30.57 33.39 16.06L32.99 15.66 32.99 15.66 32.99 80.9 98.22 80.9 75.93 58.61Z" fill="#8EA7E8" opacity="0.5"/></g><g><path d="M32.99 60.73 32.99 80.9 98.22 80.9 113.45 60.73Z" stroke="#435791" stroke-width="0.6179" stroke-linecap="round" stroke-linejoin="round" stroke-miterlimit="10" fill="#8EA7E8"/><path d="M32.99 60.73 32.99 80.9 34.62 80.9C34.62 74.18 34.62 67.46 34.62 60.73L32.99 60.73Z" fill="#8EA7E8" opacity="0.5"/></g><g><path d="M12.89 60.64 32.99 80.76 32.99 15.53 12.83 0.31Z" stroke="#435791" stroke-width="0.6179" stroke-linecap="round" stroke-linejoin="round" stroke-miterlimit="10" fill="#8EA7E8"/><path d="M32.58 15.22C26.04 21.65 19.6 28.41 12.86 34.76L12.88 60.64 32.99 80.76 32.99 15.53 32.58 15.22Z" fill="#8EA7E8" opacity="0.5"/></g><g><path d="M32.99 15.53 33 15.53 33 80.9 0.31 48.21Z" stroke="#435791" stroke-width="0.6179" stroke-linecap="round" stroke-linejoin="round" stroke-miterlimit="10" fill="#8EA7E8"/></g></g><g><g><path d="M50.94 51.25C54.12 53.06 62.28 61.46 52.98 71.27" stroke="#435791" stroke-width="0.821" stroke-miterlimit="10" fill="none"/><path d="M51.87 51.93 50.97 53.14 50.36 51.75 49.76 50.36 51.27 50.54 52.77 50.71Z" fill="#435791"/></g><line x1="65.55" y1="48.71" x2="34.2" y2="79.1" stroke="#435791" stroke-width="0.821" stroke-miterlimit="10" stroke-dasharray="5.7737" fill="none"/></g></g></svg>