<svg width="118" height="89.22" viewBox="0 0 118 89.22" xmlns="http://www.w3.org/2000/svg" xmlns:xlink="http://www.w3.org/1999/xlink" xml:space="preserve" overflow="hidden"><defs></defs><g><path d="M117.23 88.72 0.77 88.72 20.19 44.61 0.77 0.5 117.23 0.5 97.81 44.61Z" stroke="#050505" stroke-miterlimit="10" fill="#FFFFFF"/><path d="M0.77 0.5 58.71 44.83 117.23 0.5 59 0.5Z" fill="#DBDBDB"/><path d="M0.77 88.72 20.19 44.61 58.71 44.83 97.81 44.61 117.23 88.72 58.71 44.83Z" fill="#DBDBDB"/><g opacity="0.6"><g><line x1="20.19" y1="44.61" x2="21.69" y2="44.61" stroke="#666666" stroke-width="0.5" stroke-linecap="round" stroke-linejoin="round" fill="none"/><line x1="23.63" y1="44.61" x2="95.34" y2="44.61" stroke="#666666" stroke-width="0.5" stroke-linecap="round" stroke-linejoin="round" stroke-dasharray="2.9074 1.9382" fill="none"/><line x1="96.31" y1="44.61" x2="97.81" y2="44.61" stroke="#666666" stroke-width="0.5" stroke-linecap="round" stroke-linejoin="round" fill="none"/></g></g><g opacity="0.6"><g><line x1="0.77" y1="0.5" x2="1.96" y2="1.41" stroke="#666666" stroke-width="0.5" stroke-linecap="round" stroke-linejoin="round" fill="none"/><line x1="3.57" y1="2.62" x2="115.24" y2="87.21" stroke="#666666" stroke-width="0.5" stroke-linecap="round" stroke-linejoin="round" stroke-dasharray="3.0235 2.0157" fill="none"/><line x1="116.04" y1="87.82" x2="117.23" y2="88.72" stroke="#666666" stroke-width="0.5" stroke-linecap="round" stroke-linejoin="round" fill="none"/></g></g><g opacity="0.6"><g><line x1="0.77" y1="88.72" x2="1.96" y2="87.82" stroke="#666666" stroke-width="0.5" stroke-linecap="round" stroke-linejoin="round" fill="none"/><line x1="3.57" y1="86.6" x2="115.24" y2="2.01" stroke="#666666" stroke-width="0.5" stroke-linecap="round" stroke-linejoin="round" stroke-dasharray="3.0235 2.0157" fill="none"/><line x1="116.04" y1="1.41" x2="117.23" y2="0.5" stroke="#666666" stroke-width="0.5" stroke-linecap="round" stroke-linejoin="round" fill="none"/></g></g><g><path d="M65.65 86.66C65.65 86.66 78.17 48.25 65.65 3.23" stroke="#233A3F" stroke-linecap="round" stroke-linejoin="round" stroke-miterlimit="10" fill="none"/><path d="M63.93 5.39 65.48 2.71 68.16 4.26" stroke="#233A3F" stroke-linecap="round" stroke-linejoin="round" stroke-miterlimit="10" fill="none"/></g><g><line x1="20.19" y1="44.48" x2="41.2" y2="44.75" stroke="#233A3F" stroke-linecap="round" stroke-linejoin="round" stroke-miterlimit="10" fill="none"/><path d="M40.03 42.51 42.39 44.52 40.39 46.88" stroke="#233A3F" stroke-linecap="round" stroke-linejoin="round" stroke-miterlimit="10" fill="none"/></g><g><line x1="97.84" y1="44.83" x2="76.82" y2="44.56" stroke="#233A3F" stroke-linecap="round" stroke-linejoin="round" stroke-miterlimit="10" fill="none"/><path d="M77.99 46.8 75.63 44.79 77.64 42.43" stroke="#233A3F" stroke-linecap="round" stroke-linejoin="round" stroke-miterlimit="10" fill="none"/></g><g opacity="0.6"><g><line x1="59" y1="0.5" x2="59" y2="2" stroke="#666666" stroke-width="0.5" stroke-linecap="round" stroke-linejoin="round" fill="none"/><line x1="59" y1="3.96" x2="59" y2="86.24" stroke="#666666" stroke-width="0.5" stroke-linecap="round" stroke-linejoin="round" stroke-dasharray="2.9388 1.9592" fill="none"/><line x1="59" y1="87.22" x2="59" y2="88.72" stroke="#666666" stroke-width="0.5" stroke-linecap="round" stroke-linejoin="round" fill="none"/></g></g></g></svg>