<svg width="86.66" height="88.51" viewBox="0 0 86.66 88.51" xmlns="http://www.w3.org/2000/svg" xmlns:xlink="http://www.w3.org/1999/xlink" xml:space="preserve" overflow="hidden"><defs></defs><g><path d="M84.66 0 43.58 23.17 43.33 27.64 43.33 27.65 43.32 27.64 43.08 23.17 2 0 37.12 43.47 43.33 38.67 49.54 43.47Z" fill="#DBDBDB"/><path d="M84.66 0 43.33 88.25 44.33 23.36Z" fill="#EFBE4C"/><path d="M42.32 23.37 2 0 43.33 88.25Z" fill="#EFBE4C"/><path d="M43.08 23.17 42.35 22.76 31.92 27.51 43.32 27.64Z" fill="#D88A00" opacity="0.4"/><path d="M43.58 23.17 44.31 22.76 54.74 27.51 43.33 27.64Z" fill="#D88A00" opacity="0.4"/><path d="M43.32 27.64 31.92 27.51 43.08 23.17 43.33 27.56 43.58 23.17 54.74 27.51 43.33 27.64 43.33 27.64 43.33 27.64 43.32 27.64Z" fill="#EFBE4C"/><rect x="31.92" y="25.79" width="22.82" height="3.19" fill="#FFFFFF"/><path d="M54.74 28.98 31.92 28.98 31.92 25.79 43.32 26.64 54.74 25.79Z" fill="#EFBE4C"/><path d="M43.33 28.25 3.9 4.05 43.33 88.25 82.27 5.1Z" fill="#D88A00"/><g><path d="M86.66 4.05 84.07 9.09 74.21 28.25 43.33 88.25 44.33 28.25 67.68 14.65Z" fill="#EFBE4C"/><path d="M42.32 28.25 0 4.05 43.33 88.25Z" fill="#EFBE4C"/></g><g opacity="0.6"><g><line x1="43.32" y1="28.25" x2="43.32" y2="29.75" stroke="#666666" stroke-width="0.5" stroke-linecap="round" stroke-linejoin="round" fill="none"/><line x1="43.32" y1="31.75" x2="43.32" y2="85.76" stroke="#666666" stroke-width="0.5" stroke-linecap="round" stroke-linejoin="round" stroke-dasharray="3.0004 2.0003" fill="none"/><line x1="43.32" y1="86.76" x2="43.32" y2="88.26" stroke="#666666" stroke-width="0.5" stroke-linecap="round" stroke-linejoin="round" fill="none"/></g></g><g opacity="0.6"><g><line x1="18.74" y1="40.47" x2="20.21" y2="40.77" stroke="#666666" stroke-width="0.5" stroke-linecap="round" stroke-linejoin="round" fill="none"/><path d="M22.17 41.17 43.33 45.47 65.47 40.97" stroke="#666666" stroke-width="0.5" stroke-linecap="round" stroke-linejoin="round" stroke-dasharray="3.0123 2.0082" fill="none"/><line x1="66.45" y1="40.77" x2="67.92" y2="40.47" stroke="#666666" stroke-width="0.5" stroke-linecap="round" stroke-linejoin="round" fill="none"/></g></g><g><g><path d="M52.88 30C56.36 46.15 51.76 57.24 51.76 57.24" stroke="#233A3F" stroke-linecap="round" stroke-linejoin="round" stroke-miterlimit="10" fill="none"/><path d="M49.93 55.59 51.68 58.26 54.35 56.5" stroke="#233A3F" stroke-linecap="round" stroke-linejoin="round" stroke-miterlimit="10" fill="none"/></g></g></g></svg>