<svg width="101.88" height="121.44" viewBox="0 0 101.88 121.44" xmlns="http://www.w3.org/2000/svg" xmlns:xlink="http://www.w3.org/1999/xlink" xml:space="preserve" overflow="hidden"><defs></defs><g><g><path d="M50.94 0.5 0.5 50.94 101.38 50.94Z" stroke="#505CA3" stroke-linecap="round" stroke-linejoin="round" stroke-miterlimit="10" fill="#FFFFFF"/><path d="M101.38 50.94 90.96 26.32 10.91 26.32 0.5 50.94Z" stroke="#505CA3" stroke-linecap="round" stroke-linejoin="round" stroke-miterlimit="10" fill="#FFFFFF"/><path d="M50.94 120.94 90.96 26.32 10.91 26.32Z" stroke="#505CA3" stroke-linecap="round" stroke-linejoin="round" stroke-miterlimit="10" fill="#FFFFFF"/><line x1="50.94" y1="0.5" x2="50.94" y2="120.94" stroke="#505CA3" stroke-linecap="round" stroke-linejoin="round" stroke-miterlimit="10" fill="none"/><g><g><line x1="0.5" y1="50.94" x2="3.2" y2="49.62" stroke="#505CA3" stroke-linecap="round" stroke-linejoin="round" fill="none"/><line x1="8.2" y1="47.18" x2="45.74" y2="28.86" stroke="#505CA3" stroke-linecap="round" stroke-linejoin="round" stroke-dasharray="5.5696 5.5696" fill="none"/><path d="M48.24 27.64 50.94 26.32 53.64 27.64" stroke="#505CA3" stroke-linecap="round" stroke-linejoin="round" fill="none"/><line x1="58.64" y1="30.08" x2="96.18" y2="48.4" stroke="#505CA3" stroke-linecap="round" stroke-linejoin="round" stroke-dasharray="5.5696 5.5696" fill="none"/><line x1="98.68" y1="49.62" x2="101.38" y2="50.94" stroke="#505CA3" stroke-linecap="round" stroke-linejoin="round" fill="none"/></g></g></g><g><g><g><path d="M27.47 32.92C33.67 35.31 38.47 40.45 40.42 46.81" stroke="#505CA3" stroke-linecap="round" stroke-linejoin="round" fill="none"/><g><path d="M27.72 38.3 20.43 31.49 29.97 28.58Z" fill="#505CA3"/></g><g><path d="M35.08 46.19 41.35 53.94 44.93 44.63Z" fill="#505CA3"/></g></g></g><g><g><path d="M74.41 32.92C68.21 35.31 63.41 40.45 61.46 46.81" stroke="#505CA3" stroke-linecap="round" stroke-linejoin="round" fill="none"/><g><path d="M71.91 28.58 81.45 31.49 74.16 38.3Z" fill="#505CA3"/></g><g><path d="M56.95 44.63 60.52 53.94 66.8 46.19Z" fill="#505CA3"/></g></g></g></g></g></svg>