<svg width="138.34" height="136.57" viewBox="0 0 138.34 136.57" xmlns="http://www.w3.org/2000/svg" xmlns:xlink="http://www.w3.org/1999/xlink" xml:space="preserve" overflow="hidden"><defs></defs><g><path d="M109.38 62.87C109.22 63.21 108.79 63.58 107.99 64 105.31 65.4 100.44 63.01 102.42 68.63 103.16 70.73 106.83 72.49 106.33 74.91 105.67 78.14 100.73 76.43 101.37 80.56 100.27 80.44 98.12 80.23 97.25 81.08 95.86 82.43 97.37 82.82 97.12 83.81 96.05 87.93 95.01 85.21 91.86 86.68 93.76 90.94 90.75 90 87.85 90.34 87.65 94.97 88.9 97.98 92.24 101.02 94.55 103.12 98.84 106.07 96.17 109.49 90.27 117.07 82.67 94.33 79.15 92.5 74.32 89.97 76.71 94.75 74.41 95.72 72.84 96.38 72.8 92.37 70.93 92.75 69.06 93.13 70.62 97.52 68.46 97.57 66.14 97.63 67.79 92.75 64.64 95.79 62.68 97.68 63.57 101.28 63.53 103.64 63.48 106.27 62.75 108.5 62.33 111.04 62.15 112.13 61.45 126.36 58.92 122.57 57.1 119.85 58.82 116.26 58.99 113.36 59.14 110.66 58.19 108.35 58.56 105.72 59.07 102.06 62.96 95.27 56.96 93.99 54.61 93.49 52.24 95.61 52.07 92.02 48.39 91.98 47.99 94.06 45.97 96.41 44.71 97.87 41.15 100.55 41.44 96.95 41.72 93.4 50.26 91.7 49.36 87.92 49.03 86.53 46.5 86.7 46.04 85.41 45.39 83.56 48.99 80.73 47.95 78.99 47.61 78.43 44.55 78.07 44.51 78.25 45.25 74.13 43.48 75.28 41.21 73.53 38.2 71.21 41.84 72.18 40.78 69.01 39.3 64.6 33.2 71.06 31.01 71.64 24.9 73.25 28.1 67.79 31.59 66.34 33.23 65.66 34.89 65.34 36.44 64.43 38.93 62.98 38.34 63.11 38.61 61.06 38.69 60.43 37.41 59.98 37.66 58.99 37.87 58.15 39.61 58.18 39.92 57.46 41.28 54.38 36.44 50.53 37.84 48.02 39.65 44.75 36.51 43.68 34 42.82 29.87 41.4 25.9 40.35 24.03 35.9 22.68 32.69 23.12 30.14 26.63 32.15 29.57 33.83 31.24 37.68 33.56 40.06 36.05 42.62 38.93 43.89 42.41 44.58 42.95 42.57 41.36 40.48 41.89 38.71 42.38 37.05 44.21 36.62 45.17 35.24 46.14 33.84 46.65 32.66 47.73 31.33 49.32 29.38 49.89 29.66 48.71 26.7 48.05 25.03 45.35 22.62 46.1 20.62 46.96 18.31 48.69 19.12 49.95 20.56 52.31 23.24 51.19 26.95 55.86 27.08 62.74 27.28 58.65 20.11 58.85 15.67 62.95 15.34 61.58 21.02 63.09 23.02 65.59 26.34 66.78 22.08 68.79 20.58 70.66 22.89 71.96 22.61 73.16 20.38 73.63 19.51 74.13 14.21 76.45 17.77 77.56 19.47 74.49 22.75 77.11 23.93 79.47 24.99 79.98 21.61 81.47 20.59 84.15 24.1 85.31 17.41 86.17 15.77 87.67 12.88 90.09 9.97 93.42 9.33 94.34 15.68 86.52 18.67 86.52 24.24 87.7 24.47 89.07 24.27 90.08 24 90.53 27.5 88.25 33.74 94.33 30.8 97.61 29.21 99.42 25.13 103.42 25.01 104.4 24.98 97.61 33.97 97.45 34.58 96.74 37.23 98.86 39.85 98.38 42.48 97.92 44.98 96.05 45.53 97.13 48.15 99.06 52.83 106.51 52.99 110.5 52.24 116.73 51.06 121.99 46.75 128.25 45.87 133.95 45.07 139.66 48.94 137.29 55.25 134.74 62.01 127.46 60.37 121.91 59.11 118.86 58.42 115.72 57.43 112.56 57.46 111.11 57.47 109.71 57.69 108.3 58.01 107.96 58.09 103.48 59.61 104.13 59.91 105.58 60.59 110.08 61.38 109.38 62.87ZM25.72 98.78C31.92 101.54 44.45 91.43 36.44 84.01 30.92 78.9 22.09 87.67 22.63 93.6 22.88 96.41 24.08 98.05 25.72 98.78ZM112.99 40.85C119.14 38.02 111.43 26.88 106.87 28.82 104.62 29.78 104.55 32.65 104.33 34.71 104.09 36.91 100.79 39.19 101.43 41.09 101.82 42.23 103.62 42.93 104.72 42.64 106.09 42.27 105.87 40.99 106.79 40.4 108.86 39.05 110.66 41.92 112.99 40.85ZM121.1 88.71C122.66 84.05 122.56 78.72 119.54 76.08 117.86 74.61 115.79 73.88 114.62 76.2 113.51 78.4 114.32 80.71 114.82 82.92 115.3 85.03 115.6 87.14 114.46 88.99 113.38 90.74 111.83 92.28 111.99 94.52 112.13 96.48 113.41 97.65 115.24 96.72 117.77 95.41 119.91 92.26 121.1 88.71ZM5.06 92.3C3.5 91.23-0.83 92.48 0.9 94.75 2.93 97.42 4.61 91.99 5.06 92.3ZM19.75 80.33C16.37 82.42 13.14 83.76 9.35 85.12 8.17 85.54-0.45 88.23 1.6 89.93 4.49 92.33 16.82 84.01 19.63 82.75 22.81 81.32 26.69 79.56 29.16 77.09 26.6 75.96 21.97 78.96 19.75 80.33ZM22.23 20.89C23.25 18.85 19.43 19.46 19.48 19.09 19.3 20.36 21.37 22.62 22.23 20.89ZM15.47 16.4C14.59 18.28 18.32 18.6 18.75 17.12 19.28 15.26 16.1 15.06 15.47 16.4ZM16.74 38.91C16.21 35.98 12.83 34.79 11.18 32.7 10.08 31.31 9.68 29.28 7.62 31.34 3.08 35.89 16.51 37.65 16.74 38.91ZM34.76 29.76C32.33 28.03 30.87 25.78 28.8 23.69 28.07 22.95 23.88 19.27 23.97 21.43 24.08 23.82 28.51 25.92 30.2 27.01 34.11 29.53 36.76 33.19 40.14 36.21 39.89 32.87 37.22 31.51 34.76 29.76ZM45.49 12.47C45.88 14.21 47.83 15.65 49.14 16.7 49.1 15.32 47.86 14.83 47.46 13.59 47.15 12.61 48.23 10.41 47.19 9.84 45.58 8.97 45.25 11.43 45.49 12.47ZM66.81 8.54C66.71 6.51 68.89 3.42 67.98 1.73 67.15 0.2 65.33 0.21 64.13 1.14 61.48 3.18 62.72 11.7 64.56 13.97 68.54 18.85 66.91 10.47 66.81 8.54ZM100.46 18.89C101.88 18 105.65 16.41 104.91 14.17 104.57 13.16 104.12 12.65 103.61 12.5 100.84 11.66 96.45 21.42 100.46 18.89ZM79.1 103.52C77.99 106.7 82.19 108.34 83.15 105.27 84.01 102.5 80.25 100.25 79.1 103.52ZM89.1 132.69C87.99 135.87 92.18 137.51 93.15 134.44 94.01 131.67 90.24 129.41 89.1 132.69ZM87.76 128.44C87.35 129.32 86.89 130.15 87.85 131.01 89.22 132.24 91.3 131.31 91.41 129.52 91.5 127.98 90.22 126.16 89.09 125.26 88.42 124.72 88.2 124.38 87.96 123.54 87.78 122.9 87.74 121.23 86.96 120.95 85.98 120.6 85.82 122.01 85.89 122.68 86.02 124.04 86.97 124.99 87.76 126.01 88.44 126.88 88.12 127.68 87.76 128.44ZM81.92 119.88C82.01 119.97 82.11 120.05 82.22 120.12 83.46 120.92 84.47 119.13 85.02 118.21 85.98 116.59 87.52 112.49 86.32 110.83 85.59 109.83 83.73 110.14 82.72 110.49 80.93 111.11 78.34 112.69 77.95 114.72 77.65 116.28 78.83 116.47 79.93 117.05 80.99 117.62 81.15 119.09 81.92 119.88Z" stroke="#0A0A0A" stroke-miterlimit="10" fill="#CC8D2E"/></g></svg>