<svg width="120" height="84.46" viewBox="0 0 120 84.46" xmlns="http://www.w3.org/2000/svg" xmlns:xlink="http://www.w3.org/1999/xlink" xml:space="preserve" overflow="hidden"><defs></defs><g><path d="M120 20.09 60 84.2 0 20.09Z" fill="#DBDBDB"/><g><path d="M120 20.09 61 21.79 60 77.96 60 84.2Z" fill="#EFBE4C"/><path d="M84.62 22.75 61 21.79 60 77.96 60 84.2Z" fill="#FFFFFF"/></g><g><path d="M0 20.09 59 21.79 60 77.96 60 84.2Z" fill="#EFBE4C"/><path d="M35.38 22.75 59 21.79 60 77.96 60 84.2Z" fill="#FFFFFF"/></g><path d="M60 24.2 22.61 20.74 60 84.2 97.39 20.74Z" fill="#D88A00"/><path d="M103.33 0 60 84.2 61 24.2Z" fill="#EFBE4C"/><path d="M59 24.2 16.67 0 60 84.2Z" fill="#EFBE4C"/><g opacity="0.6"><g><line x1="60" y1="24.2" x2="60" y2="25.7" stroke="#666666" stroke-width="0.5" stroke-linecap="round" stroke-linejoin="round" fill="none"/><line x1="60" y1="27.7" x2="60" y2="81.71" stroke="#666666" stroke-width="0.5" stroke-linecap="round" stroke-linejoin="round" stroke-dasharray="3.0004 2.0003" fill="none"/><line x1="60" y1="82.71" x2="60" y2="84.21" stroke="#666666" stroke-width="0.5" stroke-linecap="round" stroke-linejoin="round" fill="none"/></g></g><g><path d="M32.47 63.27C17.26 65.45 17.26 68.99 32.47 71.17 47.68 73.35 72.33 73.35 87.54 71.17 102.75 68.99 102.75 65.45 87.54 63.27" stroke="#233A3F" stroke-linecap="round" stroke-linejoin="round" stroke-miterlimit="10" fill="none"/><path d="M88.64 65.76 86.81 63.13 89.44 61.31" stroke="#233A3F" stroke-linecap="round" stroke-linejoin="round" stroke-miterlimit="10" fill="none"/></g></g></svg>