<svg width="102.07" height="102.07" viewBox="0 0 102.07 102.07" xmlns="http://www.w3.org/2000/svg" xmlns:xlink="http://www.w3.org/1999/xlink" xml:space="preserve" overflow="hidden"><defs></defs><g><g><g><path d="M101.57 51.04 101.57 101.57 0.5 101.57 0.5 51.04 51.04 51.04Z" fill="#BDF9F6"/></g><g><path d="M51.04 0.5 101.57 51.04 51.04 51.04Z" fill="#FFFFFF"/></g><g><path d="M51.04 0.5 51.04 51.04 0.5 51.04Z" fill="#FFFFFF"/></g><g><path d="M51.04 102.07C50.76 102.07 50.54 101.85 50.54 101.57L50.54 99.04C50.54 98.76 50.76 98.54 51.04 98.54 51.32 98.54 51.54 98.76 51.54 99.04L51.54 101.57C51.54 101.85 51.32 102.07 51.04 102.07ZM51.04 96.54C50.76 96.54 50.54 96.32 50.54 96.04L50.54 93.04C50.54 92.76 50.76 92.54 51.04 92.54 51.32 92.54 51.54 92.76 51.54 93.04L51.54 96.04C51.54 96.32 51.32 96.54 51.04 96.54ZM51.04 90.54C50.76 90.54 50.54 90.32 50.54 90.04L50.54 87.04C50.54 86.76 50.76 86.54 51.04 86.54 51.32 86.54 51.54 86.76 51.54 87.04L51.54 90.04C51.54 90.32 51.32 90.54 51.04 90.54ZM51.04 84.54C50.76 84.54 50.54 84.32 50.54 84.04L50.54 81.04C50.54 80.76 50.76 80.54 51.04 80.54 51.32 80.54 51.54 80.76 51.54 81.04L51.54 84.04C51.54 84.32 51.32 84.54 51.04 84.54ZM51.04 78.54C50.76 78.54 50.54 78.32 50.54 78.04L50.54 75.04C50.54 74.76 50.76 74.54 51.04 74.54 51.32 74.54 51.54 74.76 51.54 75.04L51.54 78.04C51.54 78.32 51.32 78.54 51.04 78.54ZM51.04 72.54C50.76 72.54 50.54 72.32 50.54 72.04L50.54 69.04C50.54 68.76 50.76 68.54 51.04 68.54 51.32 68.54 51.54 68.76 51.54 69.04L51.54 72.04C51.54 72.32 51.32 72.54 51.04 72.54ZM51.04 66.54C50.76 66.54 50.54 66.32 50.54 66.04L50.54 63.04C50.54 62.76 50.76 62.54 51.04 62.54 51.32 62.54 51.54 62.76 51.54 63.04L51.54 66.04C51.54 66.32 51.32 66.54 51.04 66.54ZM51.04 60.54C50.76 60.54 50.54 60.32 50.54 60.04L50.54 57.04C50.54 56.76 50.76 56.54 51.04 56.54 51.32 56.54 51.54 56.76 51.54 57.04L51.54 60.04C51.54 60.32 51.32 60.54 51.04 60.54ZM51.04 54.54C50.76 54.54 50.54 54.32 50.54 54.04L50.54 51.04C50.54 50.76 50.76 50.54 51.04 50.54 51.32 50.54 51.54 50.76 51.54 51.04L51.54 54.04C51.54 54.32 51.32 54.54 51.04 54.54Z" fill="#7A7A9A"/></g><g><path d="M101.57 102.07 0.5 102.07C0.22 102.07 0 101.85 0 101.57L0 51.04C0 50.76 0.22 50.54 0.5 50.54L101.57 50.54C101.85 50.54 102.07 50.76 102.07 51.04L102.07 101.57C102.07 101.85 101.85 102.07 101.57 102.07ZM1 101.07 101.07 101.07 101.07 51.54 1 51.54 1 101.07Z" fill="#292764"/></g><g><path d="M101.57 51.54 51.04 51.54C50.76 51.54 50.54 51.32 50.54 51.04L50.54 0.5C50.54 0.3 50.66 0.12 50.85 0.04 51.04-0.04 51.25 0.01 51.39 0.15L101.92 50.69C102.06 50.83 102.11 51.05 102.03 51.23 101.96 51.42 101.77 51.54 101.57 51.54ZM51.54 50.54 100.36 50.54 51.54 1.71 51.54 50.54Z" fill="#292764"/></g><g><path d="M51.04 51.54 0.5 51.54C0.3 51.54 0.12 51.42 0.04 51.23-0.04 51.04 0.01 50.83 0.15 50.69L50.69 0.15C50.83 0.01 51.05-0.04 51.23 0.04 51.42 0.12 51.54 0.3 51.54 0.5L51.54 51.04C51.54 51.32 51.32 51.54 51.04 51.54ZM1.71 50.54 50.54 50.54 50.54 1.71 1.71 50.54Z" fill="#292764"/></g></g><g><g><path d="M93.92 32.17C93.37 32.17 92.92 31.72 92.92 31.17L92.92 19.12C92.92 14.78 89.39 11.25 85.05 11.25 80.71 11.25 77.18 14.78 77.18 19.12 77.18 19.67 76.73 20.12 76.18 20.12 75.63 20.12 75.18 19.67 75.18 19.12 75.18 13.68 79.61 9.25 85.05 9.25 90.49 9.25 94.92 13.68 94.92 19.12L94.92 31.17C94.92 31.72 94.47 32.17 93.92 32.17Z" fill="#292764"/></g><g><path d="M93.97 32.39C93.71 32.39 93.46 32.29 93.26 32.1L88.51 27.35C88.12 26.96 88.12 26.33 88.51 25.94 88.9 25.55 89.53 25.55 89.92 25.94L93.96 29.99 97.9 26.05C98.29 25.66 98.92 25.66 99.31 26.05 99.7 26.44 99.7 27.07 99.31 27.46L94.66 32.11C94.49 32.29 94.23 32.39 93.97 32.39Z" fill="#292764"/></g></g><g><g><path d="M8.15 32.28C7.6 32.28 7.15 31.83 7.15 31.28L7.15 19.23C7.15 13.79 11.58 9.36 17.02 9.36 22.46 9.36 26.89 13.79 26.89 19.23 26.89 19.78 26.44 20.23 25.89 20.23 25.34 20.23 24.89 19.78 24.89 19.23 24.89 14.89 21.36 11.36 17.02 11.36 12.68 11.36 9.15 14.89 9.15 19.23L9.15 31.28C9.15 31.83 8.7 32.28 8.15 32.28Z" fill="#292764"/></g><g><path d="M8.1 32.49C7.84 32.49 7.59 32.39 7.39 32.2L2.74 27.55C2.35 27.16 2.35 26.53 2.74 26.14 3.13 25.75 3.76 25.75 4.15 26.14L8.09 30.08 12.13 26.03C12.52 25.64 13.15 25.64 13.54 26.03 13.93 26.42 13.93 27.05 13.54 27.44L8.8 32.2C8.61 32.4 8.35 32.49 8.1 32.49Z" fill="#292764"/></g></g></g></svg>