<svg width="244.44" height="461.32" viewBox="0 0 244.44 461.32" xmlns="http://www.w3.org/2000/svg" xmlns:xlink="http://www.w3.org/1999/xlink" xml:space="preserve" overflow="hidden"><defs></defs><g><defs><path d="M215.81 20.98 215.81 401.45C215.81 413.04 206.42 422.43 194.83 422.43L40.28 422.43C28.69 422.43 19.29 413.04 19.29 401.45L19.29 20.98C19.29 9.39 28.69 0 40.28 0L194.83 0C206.42 0 215.81 9.39 215.81 20.98Z" id="SVGID_1_"/></defs><clipPath id="SVGID_2_"><use width="100%" height="100%" xlink:href="#SVGID_1_" overflow="visible"></use></clipPath><path d="M215.81 20.98 215.81 401.45C215.81 413.04 206.42 422.43 194.83 422.43L40.28 422.43C28.69 422.43 19.29 413.04 19.29 401.45L19.29 20.98C19.29 9.39 28.69 0 40.28 0L194.83 0C206.42 0 215.81 9.39 215.81 20.98Z" fill="#FFDE73" clip-path="url(#SVGID_2_)"/><circle cx="125.58" cy="214.85" r="55.52" fill="#FFC440" clip-path="url(#SVGID_2_)"/><path d="M215.81 226.27 215.81 401.45C215.81 413.04 206.42 422.43 194.83 422.43L40.28 422.43C28.69 422.43 19.29 413.04 19.29 401.45L19.29 226.27 215.81 226.27Z" fill="#5EB8EF" clip-path="url(#SVGID_2_)"/><path d="M164.18 237.05C153.67 241.88 141.59 241.58 130.38 244.42 128.94 244.78 127.16 245.8 127.59 247.21 127.81 247.97 128.61 248.39 129.35 248.66 135.07 250.78 141.56 249.08 147.45 250.66 148.08 250.82 148.77 251.1 148.99 251.71 149.29 252.5 148.59 253.3 147.93 253.83 141.64 258.9 132.86 259.95 126.41 264.82 134.47 268.57 144.37 264.05 152.73 267.07 153.21 267.24 153.73 267.48 153.95 267.94 154.28 268.64 153.77 269.44 153.25 270.01 149 274.66 142.25 276.13 137.33 280.08 136.88 280.44 136.43 280.86 136.28 281.42 135.91 282.86 137.7 283.85 139.15 284.17 146.63 285.84 154.82 284.97 161.58 288.56 156.68 293.36 149.14 295.29 142.54 293.43 139.6 292.6 136.89 291.09 134.06 289.96 127.81 287.46 121.02 286.76 114.33 286.09 118 281.75 124.86 282 129.5 278.72 129.92 278.42 130.35 278.06 130.47 277.57 130.7 276.64 129.82 275.83 129 275.34 121.09 270.66 110.52 273.13 102.45 268.73 107.21 264.63 114.14 264.36 119.72 261.46 120.19 261.22 120.72 260.87 120.77 260.33 120.84 259.56 119.94 259.11 119.19 258.9 107.18 255.52 94.49 255.96 82.01 255.93 80.99 255.93 79.59 255.5 79.77 254.5 79.85 254.02 80.3 253.71 80.71 253.45 91.78 246.74 105.55 247.16 118.28 244.77 119.28 244.59 120.42 244.27 120.82 243.33 121.53 241.67 119.31 240.33 117.55 239.89 108.67 237.72 99.58 236.44 90.45 236.08 84.62 235.85 78.72 235.98 73 234.78 71.25 234.41 69.05 233 69.84 231.39 70.11 230.83 70.68 230.5 71.23 230.2 73.92 228.73 76.7 227.41 79.55 226.27L160.51 226.27C157.48 227.17 154.3 227.77 151.22 228.38 150.29 228.56 149.15 228.96 149.04 229.91 148.91 231.03 150.32 231.62 151.43 231.84 156.32 232.82 161.22 233.79 166.12 234.76 166.28 235.83 165.16 236.6 164.18 237.05Z" fill="#8CD5F9" clip-path="url(#SVGID_2_)"/><path d="M215.81 363.12 215.81 401.45C215.81 413.04 206.42 422.43 194.83 422.43L40.28 422.43C28.69 422.43 19.29 413.04 19.29 401.45L19.29 300.48C25.78 300.47 32.26 301.22 38.56 302.73 39.59 302.98 40.7 303.31 41.3 304.18 42.51 305.96 40.74 308.22 39.11 309.63 34.55 313.57 29.99 317.51 25.43 321.44 39.97 321.74 54.51 322.03 69.06 322.32 67.75 326.43 65.56 330.25 62.68 333.46 80.07 330.93 97.52 328.4 115.1 328.37 123.16 328.36 132 329.22 137.7 334.92 124.41 339.65 111.52 345.48 99.2 352.33 104.08 355.9 110.76 355.25 116.75 354.44 133.12 352.24 149.5 350.04 165.87 347.84 170.52 347.21 176.84 347.68 177.78 352.28 178.1 353.85 177.61 355.56 178.2 357.04 179.07 359.2 181.72 359.92 184.02 360.27 194.47 361.87 205.3 361.92 215.81 363.12Z" fill="#F7CF77" clip-path="url(#SVGID_2_)"/><path d="M215.81 363.12 215.81 381.52C213.41 380.89 211.21 379.71 209.5 377.86 207.78 376 206.66 373.6 204.74 371.95 199.88 367.77 192.52 369.99 186.39 371.83 184.52 372.39 182.5 372.9 180.63 372.33 178.76 371.76 177.21 369.69 177.91 367.86 178.51 366.29 180.57 365.09 180.04 363.49 179.61 362.18 177.85 362.04 176.48 362.13 170.09 362.58 163.71 363.03 157.33 363.48 159.7 360.07 162.72 357.11 166.18 354.8 157.72 351.53 148.26 353.53 139.35 355.23 122.29 358.5 104.99 360.54 87.64 361.33 84.57 361.47 80.32 360.39 80.64 357.34 80.8 355.87 82.1 354.81 83.31 353.96 90.28 349.06 97.91 345.11 105.94 342.27 110.78 340.55 116.13 338.98 119.15 334.82 101.37 329.38 83.35 342.79 64.77 343.44 67.14 342.72 67.28 339.01 65.42 337.38 63.56 335.76 60.76 335.8 58.36 336.4 55.96 336.99 53.65 338.04 51.18 338.13 50.36 338.16 49.41 338 49.03 337.29 48.51 336.32 49.4 335.23 50.23 334.51 52.87 332.25 55.65 330.16 58.57 328.27 46.28 322.94 30.46 330.4 19.3 322.98 19.3 322.98 19.29 322.98 19.29 322.97L19.29 317.93C23.33 314.43 27.35 310.94 31.38 307.44 27.54 305.91 23.42 305.1 19.29 305.04L19.29 300.48C25.78 300.47 32.26 301.22 38.56 302.73 39.59 302.98 40.7 303.31 41.3 304.18 42.51 305.96 40.74 308.22 39.11 309.63 34.55 313.57 29.99 317.51 25.43 321.44 39.97 321.74 54.51 322.03 69.06 322.32 67.75 326.43 65.56 330.25 62.68 333.46 80.07 330.93 97.52 328.4 115.1 328.37 123.16 328.36 132 329.22 137.7 334.92 124.41 339.65 111.52 345.48 99.2 352.33 104.08 355.9 110.76 355.25 116.75 354.44 133.12 352.24 149.5 350.04 165.87 347.84 170.52 347.21 176.84 347.68 177.78 352.28 178.1 353.85 177.61 355.56 178.2 357.04 179.07 359.2 181.72 359.92 184.02 360.27 194.47 361.87 205.3 361.92 215.81 363.12Z" fill="#D7ECF7" clip-path="url(#SVGID_2_)"/><path d="M215.81 39.36 215.81 138.1C167.94 137.1 120.07 135.78 72.22 134.17 76.97 131.07 83.14 131.9 88.8 132.14 91.07 132.24 93.63 132.11 95.19 130.45 96.44 129.12 96.7 127.17 97.11 125.38 97.59 123.26 98.44 121.13 100.07 119.69 101.69 118.25 104.24 117.69 106.08 118.84 105.38 114.38 104.71 109.62 106.59 105.52 109.36 99.48 116.98 96.95 123.55 97.99 130.11 99.03 135.87 102.82 141.39 106.51 141.87 103.13 146.9 102.76 149.77 104.62 152.64 106.47 154.76 109.58 158.04 110.56 159.43 106.19 161 101.56 164.59 98.7 168.18 95.84 174.44 95.9 176.56 99.97 173.13 92.2 171.22 83.76 170.97 75.27 170.69 65.69 172.63 55.81 177.98 47.86 183.34 39.9 192.43 34.17 202.02 34.3 206.99 34.37 211.95 36.25 215.81 39.36Z" fill="#FFEAAE" clip-path="url(#SVGID_2_)"/><path d="M102.19 203.61C91.7 204.5 81.21 205.4 70.72 206.29 64.66 206.81 58.6 207.32 52.54 207.84 43.98 208.57 35.33 209.3 26.83 208.05 24.32 207.68 21.81 207.13 19.29 206.74L19.29 133.82C22.41 130.62 26.35 128.24 30.71 127.19 34.52 126.28 39.02 126.49 41.7 129.34 44.94 132.77 44.11 138.28 42.66 142.78 39.54 152.43 34.53 161.48 27.98 169.23 30.5 171.7 35.55 168.78 38 171.31 39.02 172.36 39.14 173.98 39.08 175.44 39.01 177.19 38.76 178.93 38.35 180.63 40.09 176.55 42.54 172.77 45.58 169.54 47.87 167.09 50.96 164.82 54.27 165.35 58.06 165.97 60.37 170.22 60.2 174.06 60.03 177.9 58.03 181.39 56.09 184.7 58.18 182.74 61.76 180.82 63.52 183.09 64.36 184.18 64.22 185.71 63.92 187.04 62.9 191.71 60.52 196.08 57.15 199.46 62.17 199.12 67.19 199.18 72.21 199.51 82.25 200.16 92.26 201.88 102.19 203.61Z" fill="#FFEAAE" clip-path="url(#SVGID_2_)"/><path d="M46.25 76.57C78.73 76.29 111.23 76.77 143.69 78.02 143.73 73.79 142.85 68.34 138.71 67.47 136.88 67.08 135.02 67.82 133.3 68.54 130.65 69.65 127.99 70.77 125.34 71.88 125.68 59.19 124.15 46.06 117.9 35.01 116.14 31.89 113.93 28.89 110.84 27.08 103.57 22.82 93.88 26.62 88.24 32.88 81.73 40.11 78.85 50.46 80.7 60.01 78.91 56.38 75.67 52.09 71.84 53.38 70.51 53.83 69.49 54.91 68.63 56.02 66.02 59.39 64.3 63.43 63.69 67.65 60.19 65.17 56.34 62.57 52.05 62.71 47.76 62.85 43.47 67.27 45.19 71.21 42.53 68.7 38.16 68.24 35.04 70.15 33.26 71.24 31.86 73.62 32.99 75.38 33.93 76.84 35.99 76.97 37.73 76.93 45.97 76.77 54.21 76.6 62.44 76.44L46.25 76.57Z" fill="#FFEAAE" clip-path="url(#SVGID_2_)"/><g clip-path="url(#SVGID_2_)"><path d="M70.84 394.71C70.78 395.4 70.71 396.15 70.24 396.66 69.8 397.14 69.11 397.3 68.47 397.43 60.84 398.96 52.98 399.38 45.23 398.68 44.3 398.59 43.33 398.48 42.55 397.96 40.91 396.87 40.77 394.56 40.79 392.59 40.82 388.17 40.73 383.74 40.52 379.32 40.49 378.65 40.46 377.97 40.41 377.29 39.96 369.19 39.11 361.1 37.85 353.08 37.76 352.45 37.66 351.83 37.55 351.2 36.52 344.85 35.24 338.55 33.71 332.3 33.56 331.64 33.39 330.98 33.22 330.32 31.37 322.94 29.17 315.65 26.64 308.48 26.41 307.82 26.18 307.16 25.93 306.51 23.69 300.27 21.19 294.12 18.43 288.08 18.16 287.47 17.88 286.86 17.6 286.25 14.94 280.52 12.06 274.9 8.96 269.39 8.75 269.01 8.54 268.63 8.32 268.25 7.57 266.92 6.8 265.6 6.02 264.29L0 234.74C2.07 236.97 4.14 239.21 6.19 241.47 11.52 247.35 16.7 253.39 21.64 259.62 22.11 260.2 22.58 260.79 23.04 261.39 26.9 266.32 30.62 271.35 34.15 276.51 34.58 277.13 35.01 277.75 35.43 278.38 39.26 284.05 42.87 289.86 46.23 295.82 46.63 296.53 47.03 297.25 47.42 297.98 49.9 302.47 52.22 307.05 54.37 311.72 55.49 314.15 56.56 316.6 57.58 319.07 57.9 319.84 58.21 320.61 58.52 321.39 61.3 328.34 63.68 335.47 65.6 342.7 65.82 343.52 66.03 344.34 66.24 345.16 68.32 353.48 69.8 361.93 70.58 370.44 70.66 371.24 70.72 372.04 70.78 372.84 71.34 380.12 71.38 387.42 70.84 394.71Z" fill="#B5764B"/><g><path d="M35.43 278.38C29.55 281.17 23.84 284.41 18.43 288.08 18.16 287.47 17.88 286.86 17.6 286.25 22.15 283.05 26.93 280.18 31.88 277.64 32.63 277.25 33.39 276.87 34.15 276.51 34.58 277.13 35.01 277.75 35.43 278.38Z" fill="#8C5631"/><path d="M47.42 297.98C40.16 300.71 33.15 304.24 26.64 308.48 26.41 307.82 26.18 307.16 25.93 306.51 32.24 302.19 39.09 298.63 46.21 295.83 46.22 295.83 46.22 295.82 46.23 295.82 46.63 296.53 47.03 297.25 47.42 297.98Z" fill="#8C5631"/><path d="M58.52 321.39C49.97 324.28 41.62 327.93 33.71 332.3 33.56 331.64 33.39 330.98 33.22 330.32 40.72 325.96 48.61 322.31 56.78 319.35 57.05 319.25 57.31 319.16 57.58 319.07 57.9 319.84 58.21 320.61 58.52 321.39Z" fill="#8C5631"/><path d="M66.24 345.16C60.46 346.29 54.74 347.72 49.09 349.39 45.32 350.51 41.57 351.73 37.85 353.08 37.76 352.45 37.66 351.83 37.55 351.2 46.2 347.71 55.11 344.97 64.22 342.99 64.68 342.89 65.14 342.79 65.6 342.7 65.82 343.52 66.03 344.34 66.24 345.16Z" fill="#8C5631"/><path d="M70.78 372.84C64.08 373.73 57.42 374.99 50.85 376.57 47.39 377.4 43.94 378.31 40.52 379.32 40.49 378.65 40.46 377.97 40.41 377.29 48.97 374.51 57.75 372.44 66.64 371.03 67.95 370.82 69.26 370.62 70.58 370.44 70.66 371.24 70.72 372.04 70.78 372.84Z" fill="#8C5631"/><path d="M23.04 261.39C18.39 263.55 13.92 266.07 9.64 268.91 9.41 269.06 9.19 269.22 8.96 269.39 8.75 269.01 8.54 268.63 8.32 268.25 11.69 265.55 15.24 263.09 19.07 260.99 19.92 260.52 20.77 260.07 21.64 259.62 22.11 260.2 22.58 260.79 23.04 261.39Z" fill="#8C5631"/></g></g><g clip-path="url(#SVGID_2_)"><path d="M226.44 56.43C220.82 57.38 215.19 58.32 209.57 59.27 207.75 59.58 205.91 59.89 204.09 60.19 202.09 60.53 200.09 60.86 198.09 61.2 197.55 61.29 196.97 61.38 196.45 61.18 195.39 60.78 195.1 59.45 194.95 58.33 194.3 53.06 193.64 47.8 192.98 42.53 191.78 48.84 190.58 55.14 189.38 61.44 187.51 61.34 185.64 61.24 183.78 61.14 182 61.04 180.22 60.95 178.44 60.86 177.03 60.77 175.63 60.7 174.21 60.63 173.19 60.57 172.17 60.52 171.14 60.46 166.87 60.23 162.6 60 158.33 59.77 157.86 59.75 157.36 59.71 156.97 59.45 156.3 58.99 156.19 58.06 156.14 57.25 155.84 51.36 155.54 45.49 155.24 39.6 153.02 47.34 150.8 55.07 148.58 62.8 148.2 55.61 147.82 48.43 147.45 41.24 145.33 47.19 143.68 53.32 142.5 59.53 139.58 59.22 136.66 58.93 133.75 58.65 129.5 58.23 125.25 57.84 121 57.46 112.03 56.67 103.06 55.97 94.08 55.36 103.7 35.18 123.13 20.27 144.84 14.93 166.55 9.59 190.15 13.55 209.62 24.53 214.34 27.19 218.9 30.31 222.4 34.45L222.77 36.45 223.41 40 226.44 56.43Z" fill="#7DA83F"/><path d="M223.42 39.98C216.88 35.2 210.06 30.81 202.81 27.22 192.01 21.87 180.17 18.29 168.11 18.12 154.71 17.93 141.54 21.92 129.4 27.6 119.58 32.19 110.21 37.96 102.5 45.56 111.7 34.54 123.57 25.68 136.92 20.39 150.28 15.11 165.11 13.44 179.23 16.06 195.11 19.01 209.5 27.14 222.77 36.42L223.42 39.98Z" fill="#65872A"/><path d="M133.75 58.63C129.5 58.21 125.25 57.82 121 57.44 122.75 49.93 125.75 42.68 128.72 35.54 128.39 40.94 128.08 46.34 127.76 51.75 127.72 52.42 127.75 53.22 128.32 53.58 131.25 45.95 134.19 38.34 137.12 30.72 136.54 40.04 134.19 49.36 133.75 58.63Z" fill="#65872A"/><path d="M174.21 60.62C173.19 60.56 172.17 60.51 171.14 60.45 171.74 52.9 172.05 45.33 172.08 37.77 172.8 45.38 173.5 53 174.21 60.62Z" fill="#65872A"/><path d="M183.78 61.13C182 61.03 180.22 60.94 178.44 60.85 178.91 54.61 179.62 48.37 180.55 42.18 182.58 48.26 182.96 54.75 183.78 61.13Z" fill="#65872A"/><path d="M209.56 59.27C207.74 59.58 205.9 59.89 204.08 60.19 204.17 52.4 203.87 44.6 203.18 36.84 204.87 44.43 207 51.92 209.56 59.27Z" fill="#65872A"/></g><g clip-path="url(#SVGID_2_)"><path d="M231.55 55.79C226.59 58.6 221.62 61.41 216.66 64.22 215.05 65.13 213.43 66.05 211.82 66.96 210.06 67.96 208.29 68.96 206.53 69.96 206.05 70.23 205.54 70.51 204.98 70.5 203.85 70.49 203.12 69.34 202.6 68.33 200.19 63.6 197.77 58.88 195.35 54.15 196.38 60.49 197.4 66.82 198.43 73.15 196.64 73.69 194.85 74.24 193.06 74.78 191.35 75.3 189.65 75.82 187.94 76.34 186.59 76.74 185.24 77.15 183.89 77.57 182.91 77.86 181.93 78.16 180.95 78.46 176.86 79.7 172.77 80.94 168.68 82.19 168.23 82.33 167.75 82.46 167.29 82.35 166.5 82.15 166.08 81.31 165.76 80.56 163.47 75.13 161.18 69.71 158.88 64.28 159.44 72.31 159.99 80.34 160.55 88.36 157.74 81.73 154.93 75.11 152.12 68.48 152.16 74.8 152.7 81.12 153.72 87.36 150.87 88.07 148.03 88.79 145.19 89.52 141.05 90.58 136.92 91.66 132.8 92.76 124.1 95.08 115.43 97.49 106.78 99.98 108.93 77.73 122.1 57.08 140.68 44.64 159.26 32.21 182.79 27.87 204.84 31.53 210.19 32.42 215.54 33.79 220.24 36.49L221.27 38.24 223.09 41.36 231.55 55.79Z" fill="#AAC159"/><path d="M223.09 41.36C215.31 39.1 207.4 37.31 199.36 36.41 187.38 35.07 175.03 35.75 163.64 39.71 150.98 44.11 139.97 52.36 130.5 61.84 122.84 69.51 116 78.13 111.35 87.91 116.23 74.41 124.36 62.03 135.1 52.5 145.85 42.97 159.22 36.34 173.39 33.98 189.32 31.33 205.62 34.05 221.27 38.24L223.09 41.36Z" fill="#96AA41"/><path d="M145.19 89.52C141.05 90.58 136.92 91.66 132.8 92.76 131.88 85.1 132.22 77.27 132.57 69.54 134.11 74.73 135.66 79.91 137.2 85.1 137.39 85.74 137.69 86.49 138.35 86.63 138.5 78.46 138.66 70.3 138.81 62.14 141.46 71.1 142.44 80.66 145.19 89.52Z" fill="#96AA41"/><path d="M183.89 77.57C182.91 77.86 181.93 78.16 180.95 78.46 178.93 71.16 176.64 63.94 174.09 56.82 177.36 63.73 180.62 70.65 183.89 77.57Z" fill="#96AA41"/><path d="M193.06 74.78C191.35 75.3 189.65 75.82 187.94 76.34 186.25 70.31 184.79 64.21 183.55 58.07 187.54 63.09 190.11 69.06 193.06 74.78Z" fill="#96AA41"/><path d="M216.66 64.22C215.05 65.13 213.43 66.05 211.82 66.96 209.24 59.61 206.3 52.38 203 45.32 207.18 51.88 211.74 58.19 216.66 64.22Z" fill="#96AA41"/></g><path d="M215.81 180.33 215.81 221.21C212.32 221.2 208.82 221.16 205.33 221.11 185.61 220.84 165.88 220.57 146.16 220.29 144.7 220.27 142.94 220.06 142.34 218.73 149.61 214.73 158.64 214.07 166.41 216.97 165.77 212.98 169.49 209.12 173.53 208.9 177.57 208.68 181.37 211.48 183.15 215.12 183.27 211.94 184.25 208.79 185.96 206.1 186.94 204.57 188.23 203.12 189.95 202.51 191.66 201.9 193.85 202.36 194.79 203.92 193.24 197.52 193.3 190.73 194.96 184.36 195.88 180.83 197.53 177.14 200.78 175.5 204.61 173.56 209.35 175.14 212.8 177.68 213.88 178.48 214.89 179.37 215.81 180.33Z" fill="#FFEAAE" clip-path="url(#SVGID_2_)"/><g clip-path="url(#SVGID_2_)"><path d="M207.72 367.29C205.51 369.98 204.9 373.6 204.15 377 202.8 383.07 200.75 388.99 198.05 394.59 197.66 395.4 197.14 396.29 196.26 396.43 195.37 396.58 194.59 395.89 193.89 395.32 188.69 391.14 179.93 392.68 176.48 398.39 176.09 399.02 175.76 399.8 176.05 400.48 176.24 400.92 176.63 401.22 177.03 401.47 180.57 403.67 185.03 403.41 189.16 403.96 191.09 404.21 193.39 405.05 193.68 406.98 193.83 407.97 193.38 408.94 192.91 409.82 191.96 411.6 190.87 413.33 189.67 414.96 188.41 416.68 186.76 418.44 184.62 418.5 183.54 418.54 182.5 418.11 181.43 417.91 179.4 417.54 177.31 417.99 175.25 417.86 170.87 417.6 167.12 414.82 163.19 412.87 161.05 411.81 158.47 410.99 156.34 412.06 153.65 413.4 153.12 417.35 154.73 419.89 156.34 422.43 159.43 423.67 162.42 423.99 166.01 424.38 170.28 423.92 172.57 426.71 173 427.23 173.33 427.88 173.26 428.54 173.2 429.09 172.87 429.58 172.54 430.02 170.22 433.1 167.01 435.4 163.65 437.29 158.86 439.99 153.56 441.99 148.06 442.2 140.63 442.49 133.75 438.86 128.47 433.42 127.46 432.38 126.5 431.27 125.62 430.11 121.67 424.96 119.03 418.79 118.31 412.9 117.47 406 119.59 399.02 122.88 392.9 127.1 385.04 134.28 377.76 143.2 377.36 140.1 382.15 138.11 387.66 137.44 393.32 137.18 395.53 137.66 398.48 139.86 398.81 141.21 399.01 142.49 397.96 143.03 396.71 143.57 395.46 143.56 394.05 143.61 392.68 143.72 389.24 144.23 385.81 145.12 382.48 146.09 378.88 147.67 375.18 150.77 373.1 152.63 371.86 154.86 371.32 157.03 370.8 161.04 369.84 165.05 368.89 169.05 367.93 166.34 371.31 163.53 374.87 162.72 379.12 162.31 381.31 162.87 384.16 165.03 384.73 167.45 385.37 169.32 382.67 170.31 380.37 172.36 375.6 174.51 370.35 179.09 367.9 182.51 366.07 186.6 366.22 190.48 366.42 196.22 366.71 201.97 367 207.72 367.29Z" fill="#7DA83F"/><path d="M178.8 385.39C186.55 385.12 194.25 383.23 201.25 379.88 198.94 380.64 196.61 381.33 194.26 381.92 190.08 382.96 185.81 383.71 181.5 384 180.24 384.09 178.84 383.96 177.51 384.02 185.38 378.95 193.64 374.49 202.17 370.62 192.65 373.89 183.65 378.42 175.14 383.81 175.58 382.94 175.95 382.03 176.32 381.17 178.11 377.03 180.37 373.1 183.06 369.48 181.97 370.96 180.08 372.06 178.88 373.54 177.63 375.09 176.56 376.79 175.7 378.59 174.85 380.39 174.16 382.31 173.83 384.27 173.8 384.42 173.78 384.56 173.76 384.69 166.05 389.69 158.77 395.39 151.89 401.51 151.9 400.98 151.84 400.45 151.78 399.93 150.82 391.7 152.49 383.19 156.48 375.93 154.69 377.79 153.19 379.91 152 382.2 149.93 386.2 148.83 390.7 148.8 395.2 148.79 397.47 149.04 399.74 149.59 401.95 149.68 402.32 149.86 402.76 150 403.2 149.18 403.95 148.36 404.7 147.55 405.46 142.19 410.48 137.05 415.78 132.34 421.41 131.96 420.54 131.61 419.76 131.52 419.47 130.41 415.62 129.93 411.6 129.93 407.59 129.93 401.84 130.91 396.12 132.3 390.54 130.33 394.43 129.02 398.65 128.37 402.96 127.8 406.79 127.74 410.7 128.22 414.54 128.53 417.03 128.82 421.34 130.58 423.53 128.86 425.68 127.2 427.88 125.62 430.13 126.5 431.29 127.46 432.4 128.47 433.44 129.76 431.3 131.12 429.18 132.55 427.11 132.55 427.11 132.55 427.11 132.55 427.11 133.83 427.9 135.12 428.67 136.44 429.42 138.75 430.73 141.13 431.97 143.69 432.68 149.33 434.24 155.34 433.07 160.95 431.44 155.87 431.71 150.74 431.08 145.87 429.61 142.92 428.72 140.03 427.49 137.49 425.71 136.9 425.29 135.96 424.19 135.11 423.47 135.11 423.47 135.11 423.47 135.11 423.46 140.82 415.64 147.34 408.39 154.46 401.81 155.26 402.47 157.27 403.17 157.93 403.53 162.06 405.76 166.3 408.03 170.95 408.75 175.42 409.44 179.98 408.65 184.44 407.87 177.98 408.93 171.35 407.61 165.15 405.53 163.35 404.92 161.56 404.25 159.93 403.28 158.63 402.51 157.26 400.89 155.62 400.76 161.68 395.28 168.15 390.27 174.94 385.72 176.2 385.46 177.53 385.43 178.8 385.39Z" fill="#A1C660"/></g><g clip-path="url(#SVGID_2_)"><path d="M152.05 346.91C150.96 350.22 151.7 353.81 152.24 357.25 153.18 363.4 153.41 369.66 152.92 375.86 152.85 376.76 152.69 377.77 151.92 378.22 151.14 378.68 150.17 378.32 149.31 378.04 142.95 376.03 135.34 380.63 134.19 387.2 134.05 387.93 134.03 388.77 134.55 389.3 134.89 389.64 135.36 389.78 135.82 389.87 139.92 390.64 143.98 388.78 148.03 387.8 149.92 387.33 152.37 387.29 153.34 388.98 153.84 389.85 153.77 390.92 153.65 391.91 153.41 393.91 153.02 395.92 152.49 397.87 151.94 399.93 151.04 402.17 149.06 403 148.07 403.43 146.94 403.4 145.87 403.6 143.84 403.99 142.06 405.17 140.09 405.79 135.91 407.13 131.41 405.9 127.04 405.5 124.66 405.29 121.96 405.46 120.36 407.22 118.34 409.44 119.27 413.32 121.69 415.1 124.11 416.89 127.44 416.92 130.34 416.14 133.83 415.2 137.64 413.23 140.79 415 141.38 415.33 141.92 415.82 142.1 416.46 142.24 416.99 142.11 417.57 141.96 418.1 140.91 421.81 138.75 425.12 136.3 428.09 132.81 432.34 128.59 436.12 123.54 438.31 116.72 441.27 108.99 440.37 102.1 437.21 100.78 436.61 99.49 435.92 98.25 435.16 92.7 431.79 88.01 426.99 85.21 421.76 81.93 415.63 81.38 408.36 82.23 401.46 83.32 392.61 87.38 383.22 95.55 379.62 94.39 385.21 94.53 391.06 95.96 396.58 96.52 398.73 98.03 401.31 100.2 400.82 101.53 400.52 102.34 399.08 102.4 397.72 102.45 396.36 101.93 395.05 101.48 393.75 100.34 390.5 99.57 387.12 99.2 383.69 98.8 379.98 98.94 375.96 101.07 372.9 102.36 371.07 104.24 369.76 106.07 368.49 109.46 366.14 112.86 363.81 116.24 361.46 114.94 365.59 113.61 369.93 114.39 374.18 114.8 376.37 116.35 378.82 118.57 378.57 121.06 378.29 121.82 375.1 121.91 372.59 122.09 367.4 122.2 361.73 125.58 357.79 128.11 354.85 131.97 353.51 135.66 352.29 141.12 350.54 146.59 348.73 152.05 346.91Z" fill="#A2CE6E"/><path d="M131.65 374.24C138.78 371.18 145.27 366.64 150.58 360.98 148.71 362.52 146.78 364.01 144.8 365.41 141.28 367.9 137.57 370.13 133.66 371.97 132.52 372.51 131.16 372.9 129.95 373.43 135.45 365.86 141.54 358.71 148.09 352.02 140.39 358.52 133.64 366 127.67 374.09 127.76 373.12 127.78 372.13 127.82 371.2 127.99 366.7 128.68 362.21 129.87 357.86 129.38 359.63 128.02 361.34 127.44 363.16 126.83 365.06 126.45 367.03 126.31 369.02 126.17 371 126.22 373.05 126.62 375 126.65 375.15 126.68 375.28 126.71 375.42 121.33 382.87 116.6 390.82 112.4 399.01 112.22 398.52 111.97 398.04 111.72 397.58 107.85 390.26 106.32 381.72 107.41 373.51 106.41 375.89 105.78 378.41 105.51 380.98 105.03 385.46 105.63 390.05 107.24 394.26 108.05 396.38 109.11 398.41 110.42 400.26 110.64 400.58 110.96 400.92 111.25 401.28 110.75 402.28 110.26 403.27 109.78 404.27 106.6 410.89 103.72 417.69 101.37 424.65 100.7 423.98 100.09 423.38 99.91 423.14 97.48 419.95 95.57 416.38 94.13 412.64 92.05 407.28 90.89 401.59 90.17 395.89 89.74 400.23 90.04 404.63 91 408.89 91.85 412.67 93.22 416.33 95.05 419.74 96.24 421.95 98.07 425.86 100.51 427.27 99.68 429.9 98.93 432.54 98.27 435.21 99.51 435.97 100.81 436.66 102.12 437.26 102.55 434.8 103.05 432.33 103.63 429.88 103.63 429.88 103.63 429.88 103.63 429.88 105.11 430.15 106.6 430.41 108.09 430.62 110.72 431 113.38 431.3 116.02 431.04 121.84 430.45 127.02 427.18 131.66 423.63 127.02 425.72 122.01 426.99 116.94 427.38 113.86 427.62 110.73 427.52 107.72 426.78 107.02 426.61 105.75 425.92 104.7 425.55 104.7 425.55 104.7 425.55 104.7 425.54 107.19 416.18 110.65 407.07 114.91 398.36 115.9 398.69 118.02 398.61 118.77 398.7 123.43 399.28 128.2 399.86 132.79 398.86 137.21 397.89 141.18 395.5 145.05 393.15 139.42 396.47 132.76 397.64 126.22 397.94 124.32 398.03 122.41 398.04 120.53 397.73 119.04 397.48 117.18 396.47 115.6 396.94 119.26 389.64 123.48 382.63 128.17 375.93 129.25 375.25 130.48 374.75 131.65 374.24Z" fill="#7AA53C"/></g><path d="M221.61 399.15C216.88 399.95 212.3 401.49 207.89 403.37 208.45 403.02 209.01 402.68 209.56 402.41 212.51 400.95 215.59 399.76 218.57 398.36 226.26 394.73 233.24 389.62 241.2 386.6 231.54 386.73 221.48 388.78 213.98 394.86 211.91 396.54 210.09 398.49 208.27 400.42 207.44 401.3 205.62 402.65 204.62 403.98 202.45 405.1 200.32 406.31 198.22 407.57 202.33 402.7 204.91 396.64 207.59 390.81 210.62 384.22 214.13 377.5 219.99 373.23 214.27 377 208.41 380.89 204.47 386.5 203.07 388.49 201.95 390.66 200.99 392.89 199.29 396.84 198.1 400.97 196.66 405.01 196.06 406.69 195.46 408.36 194.52 409.89 191.96 411.56 189.46 413.32 187.03 415.19 188.64 412.35 189.82 409.21 190.7 406.18 193.72 396.45 195.4 386.25 199.73 377.04 194.15 382.53 188.56 388.59 186.7 396.2 185.49 401.18 185.96 406.34 185.5 411.4 185.32 413.38 184.89 415.29 184.47 417.22 182.6 418.74 180.76 420.3 178.98 421.93 179.75 419.55 180.23 417.05 180.49 414.56 181.03 409.4 180.72 404.19 180.68 399 180.65 395.96 180.73 392.88 181.61 389.97 182.63 386.62 184.68 383.65 185.67 380.28 179.42 386.12 175.12 394.23 174.61 402.77 174.18 410.09 176.45 417.4 176.07 424.69 173.56 427.16 171.16 429.75 168.88 432.43 170.51 427.61 171.3 422.63 170.75 417.17 170.06 410.26 167.48 403.59 167.37 396.65 167.32 393.09 167.92 389.55 168.53 386.03 165.83 390.25 164.36 395.14 163.45 400.07 162.73 403.95 162.34 407.92 162.7 411.85 162.94 414.55 163.53 417.21 164.18 419.84 165.32 424.45 166.3 428.92 166.87 433.63 166.91 433.96 166.97 434.3 167.02 434.64 165.36 436.69 163.78 438.81 162.26 440.98 162.3 436.81 161.65 432.64 160.31 428.69 158.5 423.39 155.48 418.45 154.71 412.9 154.24 409.56 154.62 406.16 155.14 402.83 155.62 399.75 156.22 396.67 157.22 393.72 153.47 398.87 151.01 404.97 150.31 411.3 149.61 417.63 150.69 424.17 153.54 429.87 155.08 432.96 157.11 435.77 158.97 438.66 159.63 439.69 160.62 440.96 161.35 442.29 158.65 446.27 156.18 450.5 155.06 455.17L157.84 461.32C159.85 456.21 162.24 451.26 164.96 446.5 167.3 446.1 169.52 445.61 172.06 445.88 175.45 446.24 178.77 447.39 181.61 449.27 183.33 450.41 184.88 451.79 186.68 452.8 190.58 455 195.27 455.26 199.75 455.06 204.22 454.86 208.73 454.26 213.16 454.94 204.84 452.04 196.5 449.13 188.54 445.36 185.62 443.98 182.68 442.45 179.48 442.05 176.87 441.72 174.21 442.16 171.68 442.87 170.08 443.32 167.91 443.9 166 444.75 168.01 441.37 170.19 438.09 172.53 434.93 173.55 434.56 174.61 434.26 175.68 434.05 178.94 433.41 182.3 433.47 185.6 433.84 187.89 434.09 190.19 434.5 192.34 435.34 194.85 436.33 197.1 437.89 199.51 439.11 205.88 442.33 213.21 443.03 220.34 443.02 215.2 440.74 210.23 438.07 205.49 435.04 202.59 433.19 199.74 431.18 196.49 430.07 192 428.54 187.05 428.83 182.47 430.06 179.44 430.87 176.54 432.07 173.69 433.39 176.5 429.72 179.53 426.22 182.75 422.9 184.06 422.6 185.34 422.15 186.66 421.92 190.29 421.29 193.99 422.43 197.4 423.82 200.24 424.97 203 426.31 205.67 427.81 207.7 428.95 209.71 430.2 211.95 430.85 214.85 431.69 217.97 431.46 220.91 430.81 223.86 430.16 226.7 429.09 229.6 428.25 227.11 427.58 224.51 427.48 221.94 427.2 215.55 426.53 209.31 424.79 203.23 422.7 199.34 421.37 195.41 419.87 191.3 419.77 189.16 419.71 187.04 420.04 184.98 420.64 186.61 419.05 188.29 417.5 190.02 416 191.34 416.07 192.66 416.28 193.97 416.51 197.73 417.16 201.53 417.87 205.34 417.62 209.9 417.32 214.25 415.65 218.62 414.3 222.99 412.94 227.63 411.88 232.11 412.8 229.93 411.87 227.63 411.25 225.32 410.69 221.44 409.74 217.48 408.92 213.49 409.07 209.72 409.21 206.03 410.21 202.5 411.53 199.76 412.55 197.08 413.77 194.29 414.63 193.1 415 191.88 415.29 190.65 415.48 194.14 412.48 197.81 409.69 201.63 407.12 202.02 407 202.42 406.89 202.82 406.81 205.02 406.37 207.28 406.57 209.52 406.59 219.69 406.66 229.51 402.92 239.65 402.07 241.26 401.94 242.93 401.88 244.44 402.45 237.63 398.58 229.34 397.84 221.61 399.15Z" fill="#388745" clip-path="url(#SVGID_2_)"/><path d="M39.97 371.61C40.09 376.41 40.95 381.16 42.19 385.79 41.92 385.18 41.67 384.58 41.48 384 40.45 380.87 39.72 377.65 38.75 374.5 36.25 366.37 32.2 358.73 30.34 350.43 29.09 360.01 29.68 370.26 34.64 378.56 36.01 380.85 37.67 382.93 39.33 385.01 40.08 385.95 41.16 387.95 42.33 389.13 43.13 391.44 44.02 393.72 44.97 395.97 40.73 391.21 35.11 387.79 29.72 384.3 23.63 380.36 17.47 375.93 14.09 369.52 17 375.72 20.02 382.07 25.01 386.77 26.78 388.44 28.76 389.86 30.83 391.13 34.49 393.37 38.42 395.14 42.21 397.15 43.79 397.99 45.36 398.82 46.74 399.96 48.03 402.73 49.42 405.46 50.91 408.13 48.32 406.13 45.39 404.52 42.51 403.21 33.32 398.83 23.46 395.72 14.95 390.11 19.59 396.42 24.79 402.82 32.06 405.74 36.81 407.65 41.99 407.92 46.93 409.1 48.86 409.56 50.7 410.25 52.55 410.95 53.79 413.02 55.07 415.06 56.43 417.05 54.18 415.95 51.78 415.12 49.35 414.5 44.32 413.23 39.12 412.79 33.98 412.09 30.97 411.68 27.93 411.17 25.18 409.88 22.01 408.39 19.36 405.94 16.17 404.48 21.06 411.5 28.47 416.91 36.85 418.63 44.03 420.1 51.59 418.9 58.75 420.31 60.84 423.15 63.05 425.89 65.39 428.53 60.85 426.23 56.03 424.74 50.55 424.5 43.61 424.19 36.64 425.8 29.75 424.91 26.21 424.45 22.8 423.35 19.41 422.25 23.2 425.52 27.84 427.68 32.58 429.28 36.32 430.54 40.19 431.49 44.13 431.71 46.84 431.86 49.55 431.65 52.24 431.38 56.97 430.91 61.53 430.57 66.28 430.68 66.62 430.69 66.96 430.68 67.3 430.67 69.1 432.61 70.97 434.47 72.89 436.28 68.77 435.65 64.55 435.69 60.45 436.46 54.95 437.49 49.62 439.78 44.02 439.75 40.65 439.73 37.34 438.87 34.11 437.89 31.13 436.98 28.17 435.95 25.39 434.54 29.95 438.99 35.64 442.29 41.81 443.89 47.98 445.49 54.6 445.35 60.65 443.35 63.93 442.26 67 440.66 70.13 439.23 71.24 438.72 72.64 437.92 74.06 437.39 77.61 440.63 81.45 443.68 85.91 445.46L92.4 443.58C87.63 440.86 83.07 437.79 78.75 434.42 78.68 432.05 78.52 429.78 79.15 427.3 79.99 424 81.6 420.88 83.87 418.33 85.24 416.79 86.83 415.45 88.09 413.82 90.82 410.27 91.75 405.67 92.19 401.21 92.63 396.75 92.68 392.2 93.98 387.92 89.92 395.74 85.85 403.58 80.98 410.92 79.19 413.61 77.27 416.3 76.41 419.42 75.71 421.96 75.77 424.65 76.11 427.26 76.33 428.91 76.59 431.14 77.16 433.15 74.1 430.68 71.17 428.05 68.38 425.28 68.16 424.21 68.01 423.13 67.96 422.04 67.79 418.72 68.33 415.41 69.17 412.19 69.75 409.96 70.47 407.74 71.62 405.73 72.96 403.38 74.82 401.39 76.37 399.17 80.46 393.33 82.21 386.17 83.21 379.11 80.22 383.87 76.87 388.41 73.2 392.67 70.96 395.27 68.56 397.81 67 400.87 64.84 405.09 64.43 410.03 64.99 414.74 65.36 417.85 66.13 420.89 67.04 423.9 63.81 420.59 60.77 417.1 57.95 413.44 57.84 412.1 57.58 410.77 57.54 409.43 57.43 405.75 59.1 402.25 60.96 399.07 62.51 396.43 64.22 393.88 66.09 391.45 67.51 389.6 69.03 387.79 70 385.67 71.25 382.92 71.47 379.8 71.24 376.79 71.01 373.78 70.36 370.82 69.94 367.83 68.92 370.2 68.45 372.76 67.81 375.26 66.23 381.49 63.62 387.41 60.69 393.13 58.82 396.79 56.78 400.47 56.08 404.52 55.72 406.63 55.74 408.78 56.04 410.9 54.69 409.06 53.41 407.17 52.17 405.25 52.43 403.95 52.83 402.68 53.24 401.42 54.42 397.79 55.66 394.13 55.96 390.33 56.31 385.77 55.29 381.23 54.57 376.72 53.85 372.2 53.46 367.46 55.01 363.16 53.78 365.19 52.84 367.38 51.95 369.58 50.45 373.28 49.08 377.09 48.66 381.06 48.26 384.81 48.73 388.6 49.52 392.29 50.14 395.15 50.96 397.97 51.41 400.86 51.6 402.09 51.72 403.34 51.73 404.59 49.26 400.71 47.02 396.68 45.02 392.53 44.96 392.12 44.91 391.72 44.89 391.31 44.77 389.07 45.29 386.86 45.63 384.64 47.15 374.59 44.84 364.33 45.46 354.18 45.56 352.57 45.74 350.91 46.52 349.49 41.68 355.68 39.77 363.77 39.97 371.61Z" fill="#388745" clip-path="url(#SVGID_2_)"/><path d="M60.51 98.9C60.17 94.11 59.08 89.41 57.63 84.84 57.92 85.44 58.2 86.02 58.42 86.59 59.59 89.67 60.47 92.85 61.58 95.95 64.45 103.96 68.86 111.4 71.09 119.61 71.89 109.98 70.83 99.77 65.49 91.71 64.02 89.49 62.26 87.48 60.5 85.49 59.7 84.58 58.53 82.64 57.31 81.51 56.4 79.24 55.41 77.01 54.36 74.8 58.81 79.36 64.59 82.51 70.14 85.75 76.41 89.41 82.76 93.54 86.44 99.79 83.25 93.73 79.93 87.52 74.74 83.06 72.9 81.48 70.85 80.15 68.72 78.98 64.96 76.91 60.96 75.33 57.08 73.49 55.46 72.73 53.86 71.97 52.43 70.89 51.02 68.18 49.5 65.52 47.88 62.93 50.56 64.81 53.56 66.28 56.5 67.45 65.89 71.4 75.88 74.05 84.63 79.26 79.71 73.17 74.21 67.02 66.82 64.44 61.99 62.75 56.8 62.73 51.81 61.77 49.86 61.4 47.99 60.79 46.11 60.18 44.78 58.17 43.4 56.19 41.95 54.26 44.25 55.26 46.69 55.98 49.14 56.48 54.22 57.52 59.44 57.71 64.6 58.17 67.63 58.44 70.69 58.81 73.5 59.97 76.74 61.31 79.5 63.64 82.75 64.95 77.54 58.16 69.89 53.1 61.44 51.77 54.2 50.63 46.7 52.19 39.48 51.11 37.27 48.37 34.92 45.73 32.47 43.2 37.11 45.29 41.99 46.55 47.48 46.54 54.42 46.52 61.31 44.59 68.23 45.16 71.78 45.45 75.25 46.4 78.68 47.34 74.74 44.24 70.01 42.31 65.2 40.93 61.41 39.84 57.49 39.07 53.55 39.04 50.84 39.02 48.14 39.35 45.46 39.74 40.76 40.43 36.22 40.98 31.47 41.09 31.13 41.1 30.79 41.12 30.45 41.15 28.57 39.3 26.61 37.52 24.6 35.8 28.74 36.24 32.96 36 37.02 35.04 42.47 33.75 47.68 31.22 53.28 30.99 56.65 30.85 60 31.56 63.26 32.39 66.28 33.16 69.29 34.06 72.13 35.34 67.37 31.11 61.53 28.07 55.3 26.76 49.07 25.45 42.45 25.9 36.5 28.18 33.27 29.42 30.29 31.16 27.22 32.74 26.13 33.3 24.77 34.16 23.38 34.76 19.68 31.69 15.71 28.82 11.17 27.25L4.78 29.43C9.67 31.92 14.36 34.78 18.84 37.95 19.02 40.31 19.28 42.57 18.77 45.08 18.08 48.42 16.62 51.61 14.47 54.26 13.17 55.86 11.65 57.28 10.47 58.96 7.9 62.63 7.19 67.27 6.96 71.75 6.73 76.22 6.89 80.77 5.79 85.11 9.48 77.11 13.18 69.09 17.71 61.53 19.37 58.76 21.17 55.98 21.88 52.83 22.46 50.26 22.28 47.58 21.82 44.98 21.53 43.34 21.16 41.13 20.5 39.15 23.67 41.48 26.72 43.96 29.64 46.6 29.91 47.66 30.11 48.73 30.21 49.82 30.53 53.12 30.14 56.46 29.46 59.71 28.99 61.97 28.36 64.22 27.32 66.27 26.09 68.68 24.32 70.76 22.88 73.04 19.06 79.07 17.65 86.3 16.97 93.4 19.74 88.5 22.87 83.82 26.34 79.39 28.46 76.69 30.74 74.04 32.16 70.91 34.12 66.59 34.31 61.64 33.53 56.96 33.02 53.87 32.1 50.87 31.06 47.9 34.44 51.05 37.64 54.4 40.63 57.93 40.8 59.26 41.13 60.58 41.23 61.92 41.51 65.6 40.01 69.16 38.3 72.43 36.88 75.14 35.28 77.77 33.53 80.28 32.2 82.19 30.76 84.07 29.9 86.23 28.78 89.04 28.71 92.16 29.07 95.16 29.44 98.16 30.22 101.09 30.78 104.05 31.69 101.64 32.04 99.05 32.56 96.53 33.85 90.23 36.18 84.2 38.84 78.35 40.54 74.61 42.41 70.84 42.91 66.76 43.17 64.64 43.05 62.49 42.65 60.39 44.08 62.17 45.45 63.99 46.78 65.85 46.58 67.16 46.24 68.45 45.89 69.73 44.88 73.41 43.81 77.12 43.69 80.94 43.55 85.51 44.79 90 45.71 94.47 46.64 98.95 47.25 103.67 45.9 108.04 47.04 105.96 47.87 103.73 48.66 101.49 49.98 97.72 51.18 93.86 51.42 89.87 51.64 86.11 51 82.34 50.04 78.7 49.29 75.87 48.34 73.09 47.75 70.23 47.5 69.01 47.33 67.77 47.26 66.52 49.91 70.29 52.33 74.21 54.52 78.25 54.6 78.65 54.67 79.06 54.71 79.47 54.94 81.7 54.52 83.94 54.28 86.16 53.22 96.27 56.01 106.41 55.86 116.58 55.84 118.2 55.73 119.86 55.02 121.31 59.53 114.9 61.07 106.72 60.51 98.9Z" fill="#388745" clip-path="url(#SVGID_2_)"/></g></svg>