<svg width="316.06" height="179.87" viewBox="0 0 316.06 179.87" xmlns="http://www.w3.org/2000/svg" xmlns:xlink="http://www.w3.org/1999/xlink" xml:space="preserve" overflow="hidden"><defs></defs><g><g><g><g><path d="M99.78 141.27C99.78 141.27 68.29 157.42 40.19 179.62L296.24 179.62C300.34 160.62 290.93 142.73 236.92 147.17 236.92 147.17 314.29 89.47 259.94 74.3 214.35 61.58 162.73 101.15 147.28 114.24 165.02 98.52 227.98 41.56 230.32 23.27 233.03 2 203.58-10.07 159 10.96 159 10.96 22.08 68.42 8.22 117.56-5.63 166.71 74.1 149.44 99.78 141.27Z" fill="#98DDFC"/></g></g><path d="M70.21 99.48C69.79 96.6 67.55 95.17 65.23 93.92 64.78 93.8 64.32 93.71 63.85 93.62 61.91 93.25 59.42 93.67 57.91 95.09 56.07 91.82 53.28 89.96 49.34 90.2 47.34 90.32 45.23 90.62 43.71 92.03 43.35 92.37 42.88 92.76 42.49 93.19 41.83 89.94 39.13 87.53 35.91 86.76 34.01 86.31 31.84 86.2 30.03 87.06 28.49 87.78 27.89 88.93 27.53 90.49 27.18 90.16 26.79 89.86 26.33 89.62 24.84 88.84 22.95 88.3 21.27 88.68 19.7 89.03 17.73 89.76 16.67 91.05 15.76 92.15 15.67 93.25 15.72 94.56 12.87 93.37 9.47 94.24 7.27 96.36 6.27 97.33 5.33 98.5 5.23 99.95 5.2 100.39 5.22 100.9 5.31 101.39 3.57 101.03 1.4 101.12 0.43 102.88-0.48 104.54 0.11 106.62 1.44 107.91 2.83 109.28 4.81 109.95 6.76 109.91 7.53 109.89 9.36 109.59 10.04 108.79 10.63 110.06 11.96 111.14 13.16 111.65 15.2 112.52 18.73 112.66 19.87 110.47 20.43 112.64 22.75 114.35 24.96 114.82 26.74 115.2 28.46 114.99 30.04 114.05 30.92 113.53 31.95 112.6 32.26 111.53 33.45 115.2 38.05 117.32 41.76 116.39 43.76 115.88 46.08 115.21 47.69 113.85 48.49 113.17 49.18 112.39 49.61 111.42 49.63 111.37 49.64 111.32 49.66 111.26 52.14 113.75 57.12 113.26 59.99 111.9 61.4 111.24 63.17 110.16 63.51 108.5 63.58 108.16 63.61 107.84 63.61 107.51 63.61 107.51 63.62 107.51 63.62 107.51 65.19 107.63 66.66 107.26 67.87 106.44 69.77 104.66 70.61 102.22 70.21 99.48Z" fill="#FFFFFF"/><path d="M236.68 21.38C236.25 18.47 234 17.02 231.66 15.76 231.21 15.64 230.74 15.55 230.27 15.46 228.31 15.09 225.8 15.51 224.27 16.94 222.42 13.65 219.59 11.77 215.61 12 213.59 12.12 211.46 12.43 209.92 13.85 209.55 14.2 209.08 14.59 208.7 15.02 208.04 11.73 205.31 9.3 202.06 8.53 200.14 8.07 197.95 7.97 196.12 8.83 194.57 9.56 193.95 10.72 193.59 12.3 193.24 11.96 192.85 11.67 192.38 11.42 190.88 10.64 188.97 10.09 187.28 10.46 185.69 10.82 183.7 11.55 182.64 12.85 181.73 13.96 181.64 15.07 181.68 16.39 178.8 15.19 175.37 16.06 173.15 18.21 172.14 19.19 171.19 20.37 171.1 21.83 171.07 22.28 171.09 22.79 171.18 23.28 169.42 22.91 167.23 23.01 166.26 24.78 165.35 26.45 165.94 28.56 167.28 29.86 168.69 31.24 170.69 31.92 172.65 31.88 173.43 31.86 175.28 31.56 175.96 30.75 176.55 32.03 177.9 33.12 179.11 33.63 181.18 34.51 184.74 34.65 185.89 32.44 186.45 34.64 188.8 36.36 191.03 36.83 192.83 37.22 194.56 37 196.16 36.05 197.04 35.53 198.09 34.58 198.4 33.51 199.6 37.21 204.25 39.36 207.98 38.41 210 37.9 212.34 37.22 213.96 35.85 214.77 35.16 215.47 34.38 215.9 33.4 215.92 33.35 215.94 33.29 215.95 33.24 218.46 35.75 223.48 35.26 226.38 33.88 227.8 33.21 229.59 32.11 229.93 30.45 230 30.11 230.03 29.78 230.03 29.45L230.05 29.45C231.64 29.57 233.12 29.2 234.34 28.37 236.24 26.61 237.09 24.14 236.68 21.38Z" fill="#FFFFFF"/><path d="M282.04 179.63C280.91 178.67 279.54 177.95 278.05 177.6 276.1 177.13 273.86 177.03 272.01 177.91 271.1 178.34 270.51 178.92 270.1 179.63L282.04 179.63Z" fill="#FFFFFF"/><path d="M265.77 179.63C264.85 179.42 263.9 179.37 263.02 179.57 262.94 179.59 262.85 179.61 262.76 179.63L265.77 179.63Z" fill="#FFFFFF"/><g><g><linearGradient x1="-2864.15" y1="79.3052" x2="-2864.15" y2="-63.6483" gradientUnits="userSpaceOnUse" id="SVGID_1_" gradientTransform="matrix(-1 0 0 1 -2759.36 0)"><stop offset="0" stop-color="#FFFFFF"/><stop offset="0.1101" stop-color="#F7FDFE"/><stop offset="0.2808" stop-color="#E1F6FD"/><stop offset="0.4908" stop-color="#BDEBFA"/><stop offset="0.732" stop-color="#8CDCF6"/><stop offset="0.9966" stop-color="#4DC8F1"/><stop offset="1" stop-color="#4CC8F1"/></linearGradient><path d="M51.12 42.54C52.6 39.84 55.94 39.69 58.61 40.25 58.47 39.51 58.45 38.72 58.49 38.04 58.63 35.82 60.07 34.02 61.61 32.53 64.98 29.26 70.21 27.94 74.58 29.76 74.51 27.76 74.65 26.06 76.04 24.38 77.65 22.4 80.68 21.28 83.09 20.74 85.66 20.17 88.57 21 90.85 22.19 91.56 22.56 92.16 23.01 92.69 23.53 93.25 21.13 94.18 19.37 96.54 18.26 99.32 16.95 102.66 17.11 105.57 17.8 110.51 18.98 114.66 22.67 115.67 27.67 116.26 27.01 116.98 26.42 117.53 25.89 119.86 23.72 123.11 23.26 126.18 23.07 132.22 22.72 136.52 25.57 139.34 30.58 141.66 28.41 145.48 27.76 148.47 28.33 149.19 28.47 149.89 28.6 150.58 28.79 154.14 30.71 157.57 32.91 158.22 37.33 158.83 41.53 157.54 45.27 154.66 48 152.81 49.27 150.55 49.82 148.14 49.64 148.14 49.64 148.12 49.64 148.12 49.63 148.13 50.13 148.08 50.63 147.97 51.16 147.45 53.7 144.73 55.36 142.56 56.38 138.15 58.46 130.51 59.22 126.7 55.4 126.67 55.48 126.65 55.56 126.62 55.64 125.96 57.13 124.91 58.31 123.67 59.37 121.21 61.45 117.64 62.48 114.57 63.26 108.89 64.69 101.81 61.43 100 55.81 99.52 57.43 97.93 58.87 96.59 59.67 94.16 61.12 91.52 61.44 88.79 60.85 85.39 60.14 81.82 57.52 80.97 54.18 79.22 57.54 73.8 57.34 70.67 56 68.83 55.21 66.78 53.56 65.88 51.61 64.84 52.85 62.03 53.31 60.85 53.33 57.86 53.39 54.82 52.37 52.68 50.26 50.63 48.28 49.73 45.08 51.12 42.54Z" fill="#26BAE2"/><path d="M54.27 50.04C56.08 51.53 58.72 51.95 60.99 51.89 62 51.86 62.84 51.58 63.73 51.14 64.41 50.79 64.78 50.15 65.43 49.89 65.38 49.22 65.5 48.53 65.82 47.83 66.01 48.66 66.34 49.45 66.78 50.18 67.15 52.43 68.92 53.99 71.39 55.06 72.99 55.75 74.6 55.81 76.32 55.6 78.44 55.34 79.38 54.37 80.83 53.17 80.77 52.38 80.86 51.58 81.14 50.75 81.14 51.65 81.35 52.6 81.61 53.29 81.85 53.93 82.21 54.5 82.63 55.02 82.88 55.56 83.22 56.08 83.67 56.61 85.08 58.25 87.22 59.19 89.29 59.63 92.94 60.41 98.42 58.36 99.67 54.49 99.27 54.37 98.88 54.2 98.54 53.99 97.84 53.58 96.95 52.91 96.75 52.06 97.28 52.5 97.85 52.87 98.47 53.18 98.65 53.27 98.82 53.36 99.01 53.45 99.44 53.74 99.95 54 100.48 54.15 100.86 54.32 101.26 54.48 101.67 54.62 101.26 54.72 100.83 54.72 100.4 54.66 101.52 56.96 102.53 58.8 104.86 60.22 107.58 61.86 110.99 62.09 114.04 61.53 116.4 61.09 118.89 60.06 121 58.94 122.27 58.26 123.35 57.33 124.3 56.27 125.18 55.29 125.52 54.29 125.66 53.18 126.12 53.72 126.64 54.23 127.22 54.69 129.8 56.73 133.31 57.42 136.52 57.25 139.43 57.1 142.43 56.25 144.49 54.14 145.06 53.75 145.56 53.26 145.97 52.67 147.19 50.88 147.74 48.62 147.39 46.5 147.7 47.21 147.94 47.94 148.05 48.7 149.05 48.41 150.08 48.37 151.1 48.21 152.84 47.94 154.1 46.8 155.26 45.59 157.59 43.16 158.9 37.9 156.58 34.99 155.69 33.87 154.65 32.86 153.59 31.87 152.1 30.46 150.52 30 148.54 29.64 145.68 29.13 141.73 29.81 139.71 32.15 139.6 32.27 139.45 32.3 139.3 32.27 138.31 29.76 136.58 27.6 134.42 26.23 132.36 24.71 129.67 24.3 127.18 24.29 124.97 24.28 122.6 24.62 120.54 25.41 119.62 25.75 118.32 26.55 117.21 27.52 116 28.32 115.11 29.69 114.63 31.17 114.63 31.17 114.62 31.16 114.62 31.15 114.15 29.94 114.69 28.85 115.5 27.9 114.24 23.12 110.4 19.75 105.62 18.68 103.25 18.15 100.76 18.29 98.46 19.03 95.58 19.97 94.84 21.88 94.07 24.52 94.02 24.69 93.92 24.81 93.82 24.89 94.25 25.48 94.61 26.13 94.96 26.81 94.95 26.8 94.93 26.8 94.93 26.8 93.9 25.39 92.37 24.28 90.68 23.69 88.8 22.6 86.62 22.07 84.18 22.35 82.04 22.6 79.92 23.75 78.18 24.97 76.18 26.37 75.79 28.32 75.79 30.6 75.51 30.47 75.24 30.35 74.99 30.25 73.14 29.48 71.02 29.44 69.13 30.09 68.52 30.3 67.97 30.56 67.44 30.86 64.93 31.59 62.64 33.07 61.26 35.02 61.09 35.11 60.93 35.28 60.8 35.54 59.71 37.64 59.17 40.03 59.54 42.25 59.19 41.88 58.94 41.42 58.77 40.92 56.68 40.91 54.71 41.06 53.03 42.51 50.53 44.66 52.16 48.28 54.27 50.04Z" fill="url(#SVGID_1_)"/><path d="M54.27 50.04C56.08 51.53 58.72 51.95 60.99 51.89 62 51.86 62.84 51.58 63.73 51.14 64.41 50.79 64.78 50.15 65.43 49.89 65.38 49.22 65.5 48.53 65.82 47.83 66.01 48.66 66.34 49.45 66.78 50.18 67.15 52.43 68.92 53.99 71.39 55.06 72.99 55.75 74.6 55.81 76.32 55.6 78.44 55.34 79.38 54.37 80.83 53.17 80.77 52.38 80.86 51.58 81.14 50.75 81.14 51.65 81.35 52.6 81.61 53.29 81.85 53.93 82.21 54.5 82.63 55.02 82.88 55.56 83.22 56.08 83.67 56.61 85.08 58.25 87.22 59.19 89.29 59.63 92.94 60.41 98.42 58.36 99.67 54.49 99.27 54.37 98.88 54.2 98.54 53.99 97.84 53.58 96.95 52.91 96.75 52.06 97.28 52.5 97.85 52.87 98.47 53.18 98.65 53.27 98.82 53.36 99.01 53.45 99.44 53.74 99.95 54 100.48 54.15 100.86 54.32 101.26 54.48 101.67 54.62 101.26 54.72 100.83 54.72 100.4 54.66 101.52 56.96 102.53 58.8 104.86 60.22 107.58 61.86 110.99 62.09 114.04 61.53 116.4 61.09 118.89 60.06 121 58.94 122.27 58.26 123.35 57.33 124.3 56.27 125.18 55.29 125.52 54.29 125.66 53.18 126.12 53.72 126.64 54.23 127.22 54.69 129.8 56.73 133.31 57.42 136.52 57.25 139.43 57.1 142.43 56.25 144.49 54.14 145.06 53.75 145.56 53.26 145.97 52.67 147.19 50.88 147.74 48.62 147.39 46.5 147.7 47.21 147.94 47.94 148.05 48.7 149.05 48.41 150.08 48.37 151.1 48.21 152.84 47.94 154.1 46.8 155.26 45.59 157.59 43.16 158.9 37.9 156.58 34.99 156.1 34.38 155.57 33.81 155.02 33.25 155.94 35.59 155.66 38.26 153.61 40.68 151.65 43 148.96 43.22 146.39 42.4 146.42 43.24 146.33 44.11 146.1 45 145.01 49.05 140.3 50.02 136.74 50.26 132.35 50.57 127.44 48.46 124.28 45.03 122.82 48.93 119.47 51.71 113.96 51.38 112.88 51.32 111.84 51.09 110.86 50.74 109.45 52.49 106.47 52.51 104.5 52.36 101.51 52.13 98.17 50.63 95.75 48.37 95.12 52.42 91.93 55.41 86.42 53.21 83.77 52.14 81.98 50.27 80.98 48.06 80.22 48.85 79.43 49.46 78.72 49.75 74.71 51.44 69.31 50.62 66.74 46.81 62.11 39.94 69.27 30.91 76.06 30.86 75.97 30.73 75.89 30.62 75.8 30.51 75.8 30.54 75.79 30.57 75.79 30.61 75.51 30.48 75.24 30.36 74.99 30.26 73.14 29.49 71.02 29.45 69.13 30.1 68.52 30.31 67.97 30.57 67.44 30.87 64.93 31.6 62.64 33.08 61.26 35.03 61.09 35.12 60.93 35.29 60.8 35.55 59.71 37.65 59.17 40.04 59.54 42.26 59.19 41.89 58.94 41.43 58.77 40.93 56.68 40.92 54.71 41.07 53.03 42.52 50.53 44.66 52.16 48.28 54.27 50.04ZM56.48 42.39C56.55 42.2 56.72 42.06 57.04 42.09 59.86 42.35 63.02 43.07 63.73 46.28 64.34 49.04 61.12 49.83 59.11 49.1 57.35 48.45 55.84 46.7 55.32 44.93 54.92 43.57 55.49 42.71 56.48 42.39Z" fill="#C1D3DD" opacity="0.5"/></g><path d="M141.81 33.19C141.96 30.59 145.01 30.18 147 30.62 149 31.06 151.22 32.49 152.18 34.43 152.67 35.24 152.92 36.16 152.62 37.04 152.17 40.02 148.13 39.86 146.04 38.64 145.89 38.56 145.75 38.45 145.61 38.34 143.5 37.4 141.66 35.63 141.81 33.19Z" fill="#FFFFFF"/><path d="M122.34 29.43C122.98 26.43 126.85 26.57 129.22 27.01 132.07 27.54 136.45 30.35 136.18 33.69 136.01 35.62 134.82 36.43 133.35 36.61 132.05 37.22 130.04 37.13 128.75 36.73 125.75 35.78 121.53 33.2 122.34 29.43Z" fill="#FFFFFF"/><path d="M101.13 21.77C101.29 21.71 101.44 21.65 101.62 21.61 102.97 21.03 104.65 21.28 105.96 21.85 106.24 21.97 106.56 22.15 106.88 22.37 107.71 22.78 108.44 23.37 109 24.1 109.53 24.81 110.28 26.18 109.98 27.18 110.07 27.69 110.11 28.22 109.98 28.77 109.69 30.03 108.2 30.22 107.16 30.09 106.03 29.95 104.94 29.42 103.95 28.85 102.87 28.42 101.9 27.81 101.06 27.01 99.58 25.61 98.87 22.77 101.13 21.77Z" fill="#FFFFFF"/></g><g><g><linearGradient x1="-3035.34" y1="118.397" x2="-3035.34" y2="11.4578" gradientUnits="userSpaceOnUse" id="SVGID_2_" gradientTransform="matrix(-1 0 0 1 -2759.36 0)"><stop offset="0" stop-color="#FFFFFF"/><stop offset="0.1101" stop-color="#F7FDFE"/><stop offset="0.2808" stop-color="#E1F6FD"/><stop offset="0.4908" stop-color="#BDEBFA"/><stop offset="0.732" stop-color="#8CDCF6"/><stop offset="0.9966" stop-color="#4DC8F1"/><stop offset="1" stop-color="#4CC8F1"/></linearGradient><path d="M235.84 90.89C236.95 88.88 239.43 88.77 241.43 89.19 241.33 88.62 241.31 88.03 241.34 87.53 241.45 85.87 242.53 84.52 243.67 83.41 246.2 80.97 250.11 79.97 253.38 81.35 253.32 79.85 253.44 78.57 254.48 77.31 255.69 75.83 257.95 74.99 259.75 74.59 261.68 74.17 263.85 74.78 265.56 75.67 266.09 75.96 266.54 76.29 266.94 76.68 267.35 74.88 268.04 73.56 269.81 72.74 271.89 71.76 274.39 71.87 276.57 72.39 280.27 73.27 283.37 76.03 284.12 79.78 284.56 79.28 285.09 78.84 285.52 78.45 287.26 76.84 289.69 76.48 291.98 76.34 296.51 76.07 299.73 78.21 301.83 81.95 303.57 80.32 306.42 79.85 308.66 80.28 309.2 80.38 309.72 80.48 310.24 80.63 312.9 82.05 315.48 83.7 315.96 87.01 316.42 90.15 315.46 92.95 313.29 94.99 311.91 95.94 310.23 96.35 308.41 96.22 308.41 96.22 308.41 96.22 308.4 96.22 308.41 96.59 308.37 96.96 308.28 97.35 307.88 99.25 305.86 100.5 304.24 101.27 300.95 102.81 295.22 103.38 292.38 100.53 292.35 100.58 292.34 100.65 292.31 100.69 291.82 101.81 291.03 102.7 290.1 103.48 288.27 105.04 285.6 105.81 283.31 106.4 279.05 107.48 273.76 105.04 272.4 100.82 272.05 102.04 270.86 103.11 269.85 103.71 268.04 104.78 266.06 105.02 264.02 104.59 261.48 104.05 258.8 102.09 258.17 99.6 256.86 102.1 252.8 101.95 250.46 100.96 249.08 100.38 247.55 99.14 246.88 97.67 246.1 98.6 244 98.94 243.12 98.97 240.88 99.01 238.6 98.26 236.99 96.68 235.47 95.19 234.8 92.8 235.84 90.89Z" fill="#26BAE2"/><path d="M238.19 96.5C239.54 97.62 241.52 97.92 243.21 97.89 243.97 97.86 244.59 97.66 245.26 97.33 245.77 97.07 246.05 96.59 246.53 96.39 246.5 95.89 246.58 95.37 246.83 94.85 246.97 95.47 247.22 96.06 247.55 96.6 247.82 98.29 249.15 99.45 251 100.25 252.2 100.76 253.4 100.81 254.68 100.65 256.27 100.45 256.98 99.72 258.05 98.83 258.01 98.25 258.08 97.65 258.29 97.03 258.29 97.7 258.44 98.41 258.64 98.93 258.82 99.41 259.08 99.84 259.4 100.22 259.59 100.63 259.84 101.01 260.18 101.41 261.24 102.63 262.82 103.34 264.37 103.67 267.12 104.25 271.21 102.72 272.15 99.83 271.86 99.73 271.57 99.6 271.32 99.46 270.78 99.16 270.13 98.65 269.97 98 270.38 98.33 270.8 98.61 271.27 98.84 271.4 98.91 271.53 98.97 271.66 99.04 271.99 99.26 272.38 99.45 272.77 99.57 273.05 99.69 273.34 99.82 273.65 99.91 273.35 99.99 273.02 100 272.7 99.94 273.54 101.66 274.29 103.05 276.05 104.11 278.09 105.33 280.64 105.5 282.92 105.07 284.68 104.74 286.55 103.97 288.13 103.14 289.08 102.63 289.89 101.93 290.6 101.15 291.25 100.42 291.51 99.67 291.61 98.84 291.95 99.24 292.35 99.62 292.78 99.97 294.71 101.48 297.33 102 299.74 101.88 301.91 101.76 304.16 101.14 305.69 99.55 306.12 99.26 306.5 98.9 306.79 98.45 307.72 97.12 308.12 95.42 307.87 93.85 308.1 94.36 308.28 94.92 308.35 95.48 309.1 95.26 309.87 95.23 310.64 95.1 311.92 94.9 312.87 94.04 313.74 93.15 315.49 91.33 316.47 87.41 314.73 85.22 314.07 84.38 313.28 83.63 312.49 82.88 311.37 81.82 310.2 81.48 308.72 81.22 306.59 80.83 303.63 81.34 302.12 83.09 302.05 83.18 301.92 83.21 301.82 83.18 301.08 81.31 299.78 79.68 298.18 78.67 296.64 77.53 294.62 77.22 292.76 77.21 291.1 77.21 289.34 77.46 287.79 78.05 287.09 78.31 286.12 78.9 285.29 79.64 284.38 80.24 283.71 81.25 283.36 82.35L283.36 82.35C283 81.45 283.41 80.62 284.01 79.92 283.08 76.34 280.2 73.82 276.63 73.03 274.85 72.63 272.98 72.74 271.27 73.28 269.11 73.98 268.56 75.42 267.98 77.4 267.94 77.53 267.87 77.61 267.79 77.67 268.11 78.13 268.39 78.61 268.64 79.11 268.63 79.1 268.63 79.1 268.63 79.1 267.86 78.05 266.71 77.21 265.45 76.76 264.04 75.95 262.41 75.56 260.57 75.77 258.97 75.95 257.39 76.82 256.09 77.73 254.59 78.79 254.3 80.24 254.3 81.96 254.09 81.84 253.88 81.76 253.7 81.7 252.32 81.13 250.74 81.08 249.32 81.58 248.88 81.74 248.46 81.94 248.07 82.15 246.19 82.7 244.47 83.81 243.46 85.27 243.32 85.34 243.21 85.47 243.11 85.65 242.29 87.22 241.89 89 242.17 90.66 241.91 90.39 241.71 90.05 241.59 89.67 240.03 89.65 238.55 89.77 237.3 90.86 235.4 92.49 236.61 95.2 238.19 96.5Z" fill="url(#SVGID_2_)"/><path d="M238.19 96.5C239.54 97.62 241.52 97.92 243.21 97.89 243.97 97.86 244.59 97.66 245.26 97.33 245.77 97.07 246.05 96.59 246.53 96.39 246.5 95.89 246.58 95.37 246.83 94.85 246.97 95.47 247.22 96.06 247.55 96.6 247.82 98.29 249.15 99.45 251 100.25 252.2 100.76 253.4 100.81 254.68 100.65 256.27 100.45 256.98 99.72 258.05 98.83 258.01 98.25 258.08 97.65 258.29 97.03 258.29 97.7 258.44 98.41 258.64 98.93 258.82 99.41 259.08 99.84 259.4 100.22 259.59 100.63 259.84 101.01 260.18 101.41 261.24 102.63 262.82 103.34 264.37 103.67 267.12 104.25 271.21 102.72 272.15 99.83 271.86 99.73 271.57 99.6 271.32 99.46 270.78 99.16 270.13 98.65 269.97 98 270.38 98.33 270.8 98.61 271.27 98.84 271.4 98.91 271.53 98.97 271.66 99.04 271.99 99.26 272.38 99.45 272.77 99.57 273.05 99.69 273.34 99.82 273.65 99.91 273.35 99.99 273.02 100 272.7 99.94 273.54 101.66 274.29 103.05 276.05 104.11 278.09 105.33 280.64 105.5 282.92 105.07 284.68 104.74 286.55 103.97 288.13 103.14 289.08 102.63 289.89 101.93 290.6 101.15 291.25 100.42 291.51 99.67 291.61 98.84 291.95 99.24 292.35 99.62 292.78 99.97 294.71 101.48 297.33 102 299.74 101.88 301.91 101.76 304.16 101.14 305.69 99.55 306.12 99.26 306.5 98.9 306.79 98.45 307.72 97.12 308.12 95.42 307.87 93.85 308.1 94.36 308.28 94.92 308.35 95.48 309.1 95.26 309.87 95.23 310.64 95.1 311.92 94.9 312.87 94.04 313.74 93.15 315.49 91.33 316.47 87.41 314.73 85.22 314.38 84.77 313.97 84.34 313.56 83.93 314.24 85.68 314.03 87.67 312.5 89.49 311.03 91.21 309.03 91.38 307.11 90.77 307.13 91.4 307.07 92.06 306.88 92.72 306.08 95.74 302.54 96.47 299.89 96.67 296.61 96.88 292.94 95.31 290.57 92.74 289.46 95.66 286.97 97.75 282.85 97.5 282.04 97.45 281.27 97.27 280.53 97.02 279.47 98.33 277.25 98.35 275.77 98.23 273.53 98.06 271.04 96.95 269.23 95.25 268.76 98.28 266.37 100.5 262.26 98.86 260.27 98.07 258.93 96.67 258.19 95.02 257.62 95.62 257.02 96.06 256.49 96.28 253.5 97.55 249.46 96.95 247.53 94.07 244.06 88.94 249.42 82.2 254.49 82.15 254.44 82.06 254.37 81.97 254.31 81.88 254.31 81.91 254.3 81.94 254.3 81.96 254.09 81.84 253.88 81.76 253.7 81.7 252.32 81.13 250.74 81.08 249.32 81.58 248.88 81.74 248.46 81.94 248.07 82.15 246.19 82.7 244.47 83.81 243.46 85.27 243.32 85.34 243.21 85.47 243.11 85.65 242.29 87.22 241.89 89 242.17 90.66 241.91 90.39 241.71 90.05 241.59 89.67 240.03 89.65 238.55 89.77 237.3 90.86 235.4 92.49 236.61 95.2 238.19 96.5ZM239.85 90.78C239.9 90.65 240.03 90.53 240.26 90.55 242.38 90.75 244.74 91.29 245.26 93.69 245.72 95.75 243.3 96.34 241.81 95.8 240.48 95.32 239.36 94 238.97 92.68 238.67 91.66 239.1 91.02 239.85 90.78Z" fill="#C1D3DD" opacity="0.5"/></g><path d="M303.67 83.9C303.78 81.95 306.06 81.65 307.55 81.99 309.05 82.32 310.71 83.38 311.43 84.83 311.81 85.45 311.98 86.14 311.76 86.79 311.42 89.02 308.41 88.9 306.84 87.99 306.72 87.92 306.61 87.84 306.51 87.76 304.93 87.06 303.56 85.73 303.67 83.9Z" fill="#FFFFFF"/><path d="M289.11 81.09C289.59 78.84 292.49 78.95 294.26 79.26 296.38 79.67 299.67 81.78 299.45 84.27 299.32 85.72 298.43 86.33 297.34 86.46 296.36 86.92 294.85 86.85 293.89 86.54 291.65 85.84 288.51 83.9 289.11 81.09Z" fill="#FFFFFF"/><path d="M273.25 75.36C273.36 75.31 273.49 75.27 273.61 75.24 274.62 74.81 275.89 74.99 276.86 75.42 277.07 75.51 277.31 75.65 277.56 75.81 278.18 76.12 278.72 76.56 279.13 77.11 279.53 77.63 280.09 78.67 279.87 79.42 279.93 79.79 279.97 80.2 279.87 80.6 279.64 81.54 278.53 81.68 277.76 81.58 276.92 81.48 276.1 81.07 275.37 80.66 274.56 80.33 273.83 79.88 273.2 79.28 272.09 78.23 271.56 76.11 273.25 75.36Z" fill="#FFFFFF"/></g></g><g><g><path d="M74.61 176.69C75.48 175.4 75.98 174.02 76.28 172.56 76.38 170.2 76.39 167.8 76.62 165.45 76.56 162.71 76.5 159.98 77.17 157.45 77.27 156.98 78.06 157.05 78.01 157.56 77.97 158.27 78.01 158.98 78.01 159.67 78.2 159.23 78.38 158.83 78.59 158.4 78.83 157.93 79.54 158.11 79.64 158.58 79.81 158.63 79.99 158.78 80.04 159.05 80.12 159.83 80.13 160.63 80.2 161.43 80.49 159.27 80.82 157.16 81.11 155.16 81.21 154.45 82.38 154.6 82.35 155.27 82.03 162.29 83.33 170.14 81.78 176.95 81.68 177.39 81.26 177.56 80.9 177.54 80.83 178.01 80.77 178.46 80.64 178.85 80.61 179.29 80.35 179.58 79.97 179.76 79.97 179.76 79.96 179.76 79.94 179.76 79.83 179.81 79.7 179.83 79.57 179.85L79.51 179.88C79.41 179.88 79.27 179.85 79.18 179.84 79.14 179.84 79.08 179.81 79.08 179.81 78.98 179.76 78.94 179.76 78.88 179.72 78.54 179.59 78.27 179.26 78.27 178.83 78.09 178.21 78.05 177.5 78.02 176.79 77.88 176.93 77.68 177.02 77.49 177.06 76.87 178.22 76 178.81 74.71 177.73 74.46 177.49 74.4 176.98 74.61 176.69Z" fill="#6F4C1E"/><g><path d="M59.81 123.76C59.06 123.6 58.43 122.98 58.47 122.07 58.71 118.07 59.78 114.4 61.04 110.73L60.96 110.76C59.65 111.09 58.78 109.94 58.94 108.6 59.45 104.56 60.85 101.02 62.95 97.94 62.66 97.6 62.4 97.2 62.16 96.67 61.01 94 61.23 90.43 61.78 87.03 60.94 86.99 60.08 86.21 60.07 85.25 59.98 78.9 61.72 73.07 64.81 67.99 64.63 67.67 64.5 67.39 64.5 67.03 64.5 63.94 65.03 61.05 65.85 58.3 64.69 58.73 63.53 57.63 63.73 56.16 64.45 51.07 65.81 46.29 67.67 41.7 67.34 41.27 67.15 40.72 67.3 40.12 67.71 38.56 68.08 36.99 68.48 35.43 67.69 35.36 66.98 34.7 66.86 33.69 66.72 32.64 66.79 31.42 67.01 30.05 69.02 26.22 70.52 22.17 73.15 18.54 75.22 15.71 77.55 17.36 79.5 20.13 79.6 20.48 79.67 20.81 79.77 21.04 79.83 21.15 79.93 21.18 79.99 21.3 81.17 23.07 82.1 24.94 82.86 26.91 83.1 27.62 83.31 28.23 83.36 28.6 83.55 29.58 83.86 30.37 84.26 31.13 84.49 31.93 84.72 32.75 84.93 33.59 85.18 34.77 84.43 35.68 83.39 35.83 83.34 35.83 83.25 35.84 83.17 35.85 84.98 38.34 86.01 41.12 87.04 44.41 87.49 45.85 86.16 46.96 84.98 46.69 85.48 48.57 86.01 50.43 86.86 52.16 87.26 52.93 87.06 53.82 86.59 54.44 89.38 58.86 91.72 63.52 93.45 68.64 93.93 70.11 92.55 71.2 91.35 71 91.24 70.98 91.16 70.96 91.08 70.91 91.87 73.01 92.56 75.2 93.41 77.35 93.81 78.3 93.1 79.28 92.24 79.6 94.35 83.33 96.14 87.22 96.98 91.64 97.17 92.77 96.45 93.86 95.49 93.95 96.98 96.73 98.24 99.64 98.97 102.91 99.29 104.35 98.06 105.48 96.86 105.02 97.32 106.62 97.71 108.22 98.14 109.84 98.56 111.36 97.3 112.25 96.16 111.95 97.44 114.45 98.52 117.05 99.32 119.82 99.57 120.71 99.02 121.72 98.25 121.98 100.32 124.96 101.9 128.22 102.92 131.95 103.23 133.14 102.16 134.56 101.01 134.11 100.59 133.93 100.23 133.73 99.82 133.58 100.68 135.88 101.36 138.24 102.12 140.62 102.49 141.78 101.41 142.98 100.38 142.82 100.94 144.59 101.33 146.47 101.74 148.4 102.1 149.96 100.69 151.12 99.39 150.43 99.34 150.43 99.28 150.38 99.22 150.34 99.93 152.67 100.38 155.09 100.95 157.51 101.26 158.89 99.82 160.46 98.58 159.53 97.35 158.58 96.05 157.8 94.77 156.96 95.16 158.53 95.47 160.14 95.81 161.82 96.03 163.02 95.06 164.65 93.76 164.11 88.5 161.82 89.43 160.9 85.39 156.95 81.76 169.19 74.53 164.21 75.22 154.94 70.13 167.08 69.39 156.28 67.74 158.41 66.74 159.7 64.92 158.61 64.82 157.14 64.82 157.06 64.8 156.95 64.8 156.85 64.66 157.09 64.49 157.34 64.37 157.56 63.69 158.76 61.55 158.85 61.32 157.18 61.11 155.67 60.93 154.22 60.87 152.78 60.2 152.74 59.6 152.2 59.36 151.53 58.84 149.98 58.77 148.87 58.9 147.8 58.56 147.42 58.42 146.84 58.56 146.26 58.78 145.33 59.02 144.42 59.24 143.53 58.56 143.4 58.02 142.89 58.1 141.95 58.37 138.69 58.7 136.04 59.81 133.29 59.52 133.29 59.21 133.29 58.92 133.29 57.84 133.29 57.1 132.25 57.32 131.09 57.92 128.46 58.72 126.02 59.81 123.76Z" fill="#4C7C35"/><g><path d="M74.27 23.49C74.43 23.13 74.99 23.39 74.84 23.77 74.3 25.63 74.08 27.65 74.06 29.63 74.05 30.76 74.2 31.89 74.51 33 74.76 33.88 75.4 34.33 75.87 35.03 76.16 35.45 75.8 36.06 75.36 36.06 73.29 36.01 72.9 32.96 72.81 31.29 72.65 28.64 73.21 25.85 74.27 23.49Z" fill="#A7C75B"/><path d="M76.57 29.2C76.7 28.68 77.38 28.89 77.31 29.4 77.18 30.38 77.08 31.34 77.16 32.36 77.23 33.53 77.87 34.1 78.58 34.92 79.11 35.46 78.44 36.24 77.84 35.95 75.42 34.88 76.09 31.3 76.57 29.2Z" fill="#A7C75B"/><path d="M74.23 41.95C74.54 41.52 75.27 42.11 74.95 42.56 73.46 44.8 72.88 47.38 73.06 50.08 73.1 50.72 72.18 50.88 72.06 50.25 71.47 47.26 72.49 44.3 74.23 41.95Z" fill="#A7C75B"/><path d="M76.89 44.76C77.03 44.12 77.94 44.39 77.81 45.03 77.43 47.03 77.59 49.15 77 51.08 76.88 51.61 76.03 51.57 76.08 50.96 76.2 48.91 76.46 46.77 76.89 44.76Z" fill="#A7C75B"/><path d="M72.14 61.71C72.32 61.15 73.08 61.34 72.94 61.91 72.59 63.46 72.23 65.02 71.98 66.6 71.74 68.22 72 69.73 72.2 71.33 72.27 71.75 71.68 72.03 71.42 71.69 69.42 68.99 71.3 64.53 72.14 61.71Z" fill="#A7C75B"/><path d="M76.87 61.81C76.87 61.13 77.84 61.1 77.84 61.79 77.87 64.46 78.05 66.96 79 69.44 79.22 70.04 78.42 70.33 78.17 69.89 76.68 67.59 76.83 64.46 76.87 61.81Z" fill="#A7C75B"/><path d="M68.43 76.66C68.78 75.9 69.81 76.55 69.45 77.28 67.93 80.5 68.23 84.01 67.81 87.5 67.74 88.17 66.91 87.92 66.84 87.36 66.41 83.8 66.8 79.86 68.43 76.66Z" fill="#A7C75B"/><path d="M72.36 77.68C72.6 76.88 73.75 77.19 73.53 78.02 72.84 80.57 73.09 83.02 73.04 85.64 73.03 86.26 72.27 86.37 72.08 85.79 71.23 83.18 71.59 80.24 72.36 77.68Z" fill="#A7C75B"/><path d="M76.74 80.7C76.96 79.84 78.19 80.19 77.98 81.04 77.54 82.57 77.67 84.19 77.41 85.77 77.32 86.26 76.58 86.28 76.49 85.77 76.18 84.13 76.27 82.33 76.74 80.7Z" fill="#A7C75B"/><path d="M70.36 89.62C70.76 88.79 71.87 89.51 71.51 90.31 71.51 90.36 71.46 90.38 71.46 90.43 71.58 90.58 71.63 90.76 71.58 91.03 70.81 94.32 70.82 97.45 71.02 100.8 71.05 101.45 70.24 101.47 70.06 100.97 69.6 99.66 69.39 98.32 69.35 96.95 69.29 97.31 69.23 97.61 69.19 97.98 69.08 98.86 67.88 98.58 67.84 97.82 67.66 94.78 69.12 92.19 70.36 89.62Z" fill="#A7C75B"/><path d="M75.02 92.79C75.25 91.77 76.63 92.18 76.46 93.19 76.11 95.34 76.02 97.28 76.66 99.32 76.83 99.93 76.16 100.25 75.78 99.9 73.9 98.2 74.58 95.06 75.02 92.79Z" fill="#A7C75B"/><path d="M80.76 95.42C81.02 94.66 82.14 94.92 81.97 95.77 81.66 97.1 82.01 98.02 82.4 99.3 82.61 99.97 81.77 100.53 81.3 100.01 80.2 98.75 80.24 97 80.76 95.42Z" fill="#A7C75B"/><path d="M62.76 106.44C62.36 108.35 62.38 110.32 62.69 112.26 62.71 112.37 62.77 112.42 62.83 112.48 62.77 112.9 62.76 113.35 62.78 113.79 62.85 114.57 63.79 114.53 63.85 113.79 63.98 112.55 64.18 111.34 64.99 110.36 65.48 109.82 64.83 108.97 64.29 109.24 64.49 106.91 64.8 104.61 66.29 102.68 66.97 101.86 65.89 100.71 65.16 101.48 64.92 101.75 64.74 102.01 64.56 102.28 64.67 101.55 64.76 100.81 64.95 100.11 65.02 100.3 65.09 100.53 65.17 100.73 65.44 101.26 65.97 101.09 66.21 100.71 66.44 100.96 66.93 100.84 66.96 100.36 67.15 98.03 67.45 95.8 68.23 93.58 68.48 92.89 67.44 92.6 67.19 93.29 66.6 94.98 66.19 96.67 66.07 98.45 65.75 95.8 65.75 93.33 66.38 90.6 66.59 89.66 65.29 89.28 65.03 90.22 64.78 91.2 64.55 92.22 64.37 93.24 64.44 91.3 64.66 89.35 65.02 87.42 65.2 87.42 65.33 87.32 65.38 87.06 65.6 85.35 65.71 83.64 65.81 81.9 66.24 79.86 66.93 77.95 67.8 75.97 68.14 75.26 67.15 74.63 66.82 75.35 66.57 75.83 66.37 76.27 66.18 76.75 66.28 75.46 66.43 74.17 66.67 72.9 66.67 72.97 66.67 73.01 66.69 73.08 66.77 73.95 67.86 73.93 67.93 73.06 68.31 69.71 68.4 66.35 68.95 63.03 68.92 64.06 68.96 65.11 69.05 66.15 69.11 67.1 70.32 67.06 70.38 66.12 70.55 63.43 70.07 60.79 71.07 58.23 71.38 57.45 70.32 56.77 69.97 57.56 69.68 58.22 69.48 58.9 69.28 59.58 68.99 59.37 68.47 59.39 68.32 59.9 67.96 61.03 67.65 62.23 67.38 63.43 67.25 58.27 66.16 53.03 68.9 48.5 67.96 51.29 67.54 54.3 68.45 57.19 68.61 57.75 69.48 57.68 69.42 57.03 69.25 54.14 69.35 51.48 70 48.83 70.08 50.07 70.3 51.32 70.75 52.46 70.99 53.08 72.01 53.06 71.93 52.26 71.6 49.05 71.12 45.58 72.64 42.59 72.72 42.38 72.68 42.2 72.6 42.02 72.64 41.9 72.64 41.74 72.58 41.57 71.24 39.02 70.89 35.82 72.78 33.44 73.03 33.09 72.6 32.61 72.31 32.95 72.11 33.16 71.95 33.39 71.81 33.63 71.78 33.61 71.72 33.6 71.72 33.6 70 29.48 71.47 26.04 73.03 21.93 73.53 20.59 74.28 18.93 74.5 17.32 74.05 17.54 73.58 17.9 73.14 18.51 72.43 19.49 71.84 20.51 71.25 21.53 69.37 26.51 67.27 32.29 70.76 34.89 68.99 38.46 68.07 42.9 69.25 46.78 69.28 46.91 69.4 46.96 69.48 47.02 69.44 47.11 69.41 47.24 69.34 47.36 69.25 47 68.87 46.76 68.59 47.11 64.89 51.62 64.93 58.15 66.48 63.66 66.62 64.14 67.23 64.08 67.37 63.66 66.96 65.52 66.72 67.43 66.66 69.32 64.64 74.24 63.86 80.1 64.33 85.45 62.95 89.9 61.99 95.16 63.54 99.65 63.63 99.94 63.83 100.04 64.03 100.09 63.27 102.13 62.89 104.26 62.76 106.44ZM70.6 38.93C70.74 40.02 71.07 41.08 71.64 42.01 71.04 42.99 70.65 44.13 70.34 45.32 70.31 45.36 70.25 45.4 70.21 45.44 70.11 43.24 70.18 41.05 70.6 38.93Z" fill="#A7C75B"/><path d="M69.14 106.89C69.14 106.05 70.35 106.02 70.35 106.84 70.32 108.82 70 110.78 69.45 112.64 69.24 113.35 68.35 113.08 68.46 112.37 68.72 110.53 69.12 108.73 69.14 106.89Z" fill="#A7C75B"/><path d="M74.76 107.31C74.79 109.17 74.92 111 75.41 112.8 75.57 113.38 74.83 113.71 74.54 113.2 73.49 111.42 73.52 109.35 73.53 107.31 73.53 106.44 74.76 106.41 74.76 107.31Z" fill="#A7C75B"/><path d="M77.54 109.73C77.77 108.91 78.97 109.25 78.73 110.07 78.4 111.42 78.34 112.8 77.73 114.02 77.54 114.39 76.9 114.28 76.95 113.79 77.03 112.44 77.18 111.06 77.54 109.73Z" fill="#A7C75B"/><path d="M65.87 106.24C66.07 105.28 67.4 105.69 67.19 106.62 66.87 108.27 66.91 109.93 66.75 111.62 66.68 112.48 65.6 112.53 65.51 111.66 65.34 109.84 65.49 108.02 65.87 106.24Z" fill="#A7C75B"/><path d="M65.87 116.42C66.21 115.57 67.56 116.15 67.27 117.04 66.58 119.18 66.21 121.37 65.51 123.51 65.31 124.17 64.27 124.13 64.32 123.37 64.47 120.88 64.97 118.68 65.87 116.42Z" fill="#A7C75B"/><path d="M70.38 117.34C70.76 116.59 71.81 117.24 71.47 118.04 70.81 119.68 70.65 121.3 70.27 123.06 70.16 123.62 69.3 123.66 69.19 123.06 68.85 121.08 69.59 119.11 70.38 117.34Z" fill="#A7C75B"/><path d="M72.45 122.99C72.84 122.8 73.18 122.51 73.46 122.17 73.8 121.77 74.41 122.4 74.04 122.77 73.57 123.26 73.21 123.6 72.56 123.66 72.17 123.71 72.14 123.13 72.45 122.99Z" fill="#A7C75B"/><path d="M62.76 122.9C62.76 122.08 63.89 122.08 63.89 122.88 63.94 124.07 64.09 125.32 63.82 126.5 63.69 127.02 62.94 127.06 62.84 126.53 62.56 125.35 62.73 124.1 62.76 122.9Z" fill="#A7C75B"/><path d="M66.43 127.35C66.72 126.59 67.75 127.22 67.46 127.97 67.07 128.93 66.97 129.99 66.55 130.95 66.31 131.48 65.49 131.11 65.67 130.56 66.01 129.53 66.01 128.37 66.43 127.35Z" fill="#A7C75B"/><path d="M69.74 132.86C70.02 132.44 70.25 132.15 70.3 131.58 70.35 130.67 71.68 130.67 71.59 131.58 71.52 132.51 71.23 133.14 70.55 133.73 69.99 134.26 69.25 133.51 69.74 132.86Z" fill="#A7C75B"/></g></g></g><g><path d="M46.2 177.86C46.74 177.04 47.07 176.18 47.25 175.25 47.32 173.76 47.32 172.24 47.47 170.76 47.44 169.03 47.4 167.31 47.82 165.71 47.88 165.41 48.38 165.46 48.36 165.77 48.33 166.22 48.36 166.67 48.36 167.1 48.47 166.82 48.59 166.57 48.72 166.3 48.88 166.01 49.32 166.12 49.38 166.41 49.49 166.44 49.61 166.53 49.63 166.71 49.69 167.2 49.69 167.7 49.73 168.21 49.92 166.85 50.12 165.52 50.31 164.25 50.38 163.8 51.12 163.9 51.1 164.32 50.9 168.76 51.72 173.71 50.74 178.01 50.68 178.29 50.42 178.4 50.19 178.38 50.15 178.67 50.11 178.96 50.03 179.21 50.01 179.49 49.84 179.68 49.61 179.79 49.61 179.79 49.6 179.79 49.59 179.79 49.52 179.81 49.43 179.83 49.36 179.84L49.32 179.86C49.26 179.86 49.16 179.84 49.11 179.83 49.08 179.83 49.04 179.81 49.04 179.81 48.98 179.79 48.95 179.79 48.92 179.76 48.7 179.68 48.53 179.46 48.53 179.19 48.41 178.8 48.39 178.35 48.37 177.9 48.28 177.98 48.16 178.03 48.04 178.07 47.65 178.8 47.1 179.17 46.28 178.49 46.1 178.36 46.07 178.04 46.2 177.86Z" fill="#6F4C1E"/><g><path d="M36.86 144.45C36.39 144.35 35.99 143.95 36.02 143.38 36.18 140.86 36.84 138.54 37.64 136.22L37.59 136.23C36.76 136.45 36.21 135.72 36.31 134.87 36.63 132.32 37.52 130.09 38.85 128.14 38.67 127.93 38.51 127.67 38.35 127.34 37.62 125.66 37.77 123.4 38.11 121.25 37.57 121.23 37.03 120.74 37.02 120.13 36.97 116.12 38.07 112.44 40.02 109.23 39.9 109.04 39.83 108.85 39.83 108.62 39.83 106.67 40.16 104.84 40.68 103.11 39.95 103.38 39.22 102.69 39.35 101.76 39.8 98.55 40.66 95.53 41.83 92.64 41.62 92.37 41.5 92.02 41.59 91.64 41.85 90.66 42.08 89.66 42.33 88.68 41.84 88.63 41.39 88.22 41.31 87.58 41.22 86.92 41.27 86.14 41.4 85.29 42.67 82.87 43.62 80.32 45.28 78.02 46.58 76.23 48.06 77.27 49.28 79.03 49.35 79.25 49.38 79.45 49.45 79.6 49.48 79.67 49.55 79.68 49.59 79.77 50.34 80.89 50.93 82.06 51.4 83.31 51.55 83.75 51.68 84.14 51.71 84.38 51.83 84.99 52.03 85.5 52.28 85.97 52.43 86.48 52.58 86.99 52.7 87.53 52.86 88.27 52.39 88.84 51.73 88.95 51.7 88.95 51.64 88.95 51.59 88.97 52.73 90.54 53.37 92.29 54.03 94.37 54.31 95.28 53.47 95.97 52.73 95.81 53.05 97 53.37 98.16 53.91 99.26 54.16 99.75 54.04 100.31 53.74 100.7 55.5 103.49 56.98 106.43 58.07 109.66 58.37 110.59 57.5 111.27 56.75 111.15 56.68 111.14 56.63 111.11 56.58 111.09 57.08 112.42 57.52 113.8 58.05 115.17 58.31 115.77 57.85 116.39 57.31 116.59 58.65 118.94 59.77 121.4 60.3 124.19 60.42 124.9 59.97 125.6 59.35 125.65 60.3 127.41 61.09 129.25 61.55 131.31 61.74 132.22 60.98 132.93 60.22 132.64 60.51 133.65 60.76 134.67 61.03 135.69 61.3 136.64 60.5 137.21 59.78 137.02 60.58 138.59 61.27 140.23 61.78 141.99 61.94 142.56 61.59 143.19 61.11 143.35 62.41 145.23 63.41 147.29 64.05 149.65 64.25 150.4 63.57 151.29 62.84 151.01 62.57 150.9 62.35 150.77 62.1 150.68 62.63 152.14 63.06 153.62 63.55 155.13 63.78 155.86 63.1 156.62 62.45 156.52 62.8 157.64 63.05 158.82 63.31 160.04 63.53 161.02 62.65 161.75 61.82 161.32 61.79 161.32 61.75 161.29 61.71 161.27 62.15 162.74 62.44 164.27 62.8 165.8 63 166.67 62.09 167.67 61.3 167.07 60.53 166.47 59.7 165.98 58.89 165.44 59.14 166.43 59.33 167.45 59.55 168.52 59.68 169.28 59.08 170.3 58.26 169.96 54.93 168.52 55.52 167.94 52.98 165.44 50.68 173.17 46.13 170.02 46.56 164.18 43.35 171.84 42.88 165.02 41.84 166.37 41.21 167.19 40.06 166.5 39.99 165.57 39.99 165.52 39.98 165.44 39.98 165.39 39.9 165.54 39.79 165.69 39.71 165.83 39.28 166.59 37.93 166.65 37.78 165.6 37.64 164.64 37.53 163.73 37.49 162.82 37.07 162.8 36.69 162.45 36.54 162.04 36.21 161.06 36.16 160.36 36.25 159.69 36.04 159.45 35.94 159.09 36.04 158.72 36.18 158.14 36.33 157.56 36.46 156.99 36.04 156.91 35.69 156.59 35.74 156 35.91 153.95 36.12 152.28 36.82 150.53 36.64 150.53 36.44 150.53 36.26 150.53 35.58 150.53 35.11 149.87 35.25 149.14 35.66 147.42 36.17 145.87 36.86 144.45Z" fill="#3F6C31"/><g><path d="M45.99 81.15C46.09 80.93 46.44 81.08 46.35 81.33 46 82.5 45.87 83.78 45.86 85.03 45.85 85.74 45.95 86.46 46.14 87.16 46.3 87.72 46.7 88 46.99 88.44 47.17 88.7 46.95 89.09 46.67 89.09 45.36 89.06 45.12 87.13 45.06 86.07 44.97 84.41 45.32 82.64 45.99 81.15Z" fill="#A7C75B"/><path d="M47.44 84.76C47.52 84.43 47.95 84.56 47.91 84.89 47.82 85.5 47.77 86.11 47.81 86.76 47.86 87.49 48.26 87.86 48.71 88.37 49.04 88.71 48.62 89.21 48.24 89.02 46.72 88.34 47.14 86.08 47.44 84.76Z" fill="#A7C75B"/><path d="M45.96 92.8C46.16 92.54 46.61 92.91 46.42 93.19 45.48 94.6 45.1 96.23 45.22 97.94 45.25 98.35 44.66 98.44 44.59 98.05 44.22 96.15 44.87 94.29 45.96 92.8Z" fill="#A7C75B"/><path d="M47.64 94.58C47.72 94.18 48.3 94.36 48.22 94.75 47.98 96.02 48.08 97.35 47.7 98.57 47.63 98.91 47.09 98.88 47.12 98.5 47.2 97.2 47.37 95.85 47.64 94.58Z" fill="#A7C75B"/><path d="M44.64 105.27C44.76 104.92 45.24 105.05 45.15 105.4 44.93 106.38 44.7 107.36 44.55 108.36 44.39 109.38 44.56 110.34 44.68 111.35 44.72 111.61 44.35 111.78 44.19 111.57 42.92 109.88 44.11 107.06 44.64 105.27Z" fill="#A7C75B"/><path d="M47.63 105.34C47.63 104.91 48.23 104.89 48.23 105.33 48.26 107.01 48.37 108.6 48.97 110.16 49.11 110.54 48.6 110.72 48.44 110.44 47.5 108.99 47.6 107.01 47.63 105.34Z" fill="#A7C75B"/><path d="M42.3 114.72C42.53 114.24 43.18 114.65 42.95 115.11 41.99 117.14 42.18 119.36 41.91 121.56 41.87 121.98 41.34 121.83 41.31 121.47 41.02 119.22 41.28 116.74 42.3 114.72Z" fill="#A7C75B"/><path d="M44.78 115.36C44.94 114.86 45.66 115.05 45.52 115.57 45.09 117.18 45.25 118.73 45.22 120.38 45.21 120.77 44.73 120.84 44.61 120.47 44.07 118.83 44.29 116.97 44.78 115.36Z" fill="#A7C75B"/><path d="M47.54 117.27C47.68 116.73 48.46 116.95 48.32 117.48 48.05 118.45 48.13 119.47 47.96 120.47 47.91 120.78 47.43 120.79 47.38 120.47 47.19 119.43 47.25 118.29 47.54 117.27Z" fill="#A7C75B"/><path d="M43.52 122.9C43.77 122.38 44.47 122.83 44.25 123.34 44.25 123.37 44.22 123.38 44.22 123.41 44.29 123.5 44.32 123.62 44.29 123.79 43.81 125.87 43.81 127.85 43.94 129.96 43.96 130.37 43.45 130.38 43.34 130.06 43.04 129.24 42.92 128.39 42.89 127.52 42.85 127.75 42.82 127.94 42.79 128.17 42.72 128.73 41.96 128.55 41.93 128.07 41.82 126.15 42.73 124.52 43.52 122.9Z" fill="#A7C75B"/><path d="M46.46 124.9C46.6 124.26 47.47 124.52 47.37 125.15 47.15 126.51 47.09 127.74 47.5 129.02 47.6 129.4 47.18 129.61 46.94 129.38 45.75 128.31 46.19 126.33 46.46 124.9Z" fill="#A7C75B"/><path d="M50.09 126.56C50.25 126.08 50.96 126.25 50.85 126.79 50.65 127.63 50.87 128.21 51.12 129.02 51.25 129.44 50.72 129.8 50.42 129.47 49.72 128.66 49.75 127.56 50.09 126.56Z" fill="#A7C75B"/><path d="M38.72 133.51C38.47 134.72 38.48 135.97 38.68 137.19 38.69 137.26 38.73 137.29 38.76 137.33 38.72 137.59 38.72 137.88 38.73 138.15 38.77 138.65 39.36 138.62 39.4 138.15 39.48 137.37 39.61 136.59 40.12 135.99 40.43 135.64 40.02 135.11 39.68 135.28 39.81 133.81 40 132.36 40.94 131.14 41.37 130.62 40.69 129.9 40.22 130.39 40.08 130.56 39.96 130.72 39.84 130.89 39.91 130.43 39.96 129.97 40.09 129.52 40.13 129.64 40.17 129.79 40.23 129.91 40.4 130.24 40.74 130.13 40.89 129.9 41.03 130.05 41.34 129.98 41.37 129.67 41.49 128.19 41.68 126.79 42.17 125.39 42.32 124.96 41.67 124.78 41.51 125.21 41.13 126.28 40.87 127.34 40.8 128.48 40.6 126.81 40.6 125.24 41 123.53 41.13 122.93 40.31 122.69 40.15 123.28 39.99 123.9 39.85 124.54 39.73 125.19 39.78 123.97 39.92 122.73 40.14 121.52 40.25 121.52 40.34 121.45 40.37 121.29 40.51 120.21 40.58 119.13 40.64 118.03 40.91 116.74 41.35 115.53 41.89 114.28 42.11 113.83 41.48 113.44 41.27 113.89 41.11 114.2 40.99 114.47 40.86 114.77 40.93 113.96 41.01 113.14 41.17 112.34 41.17 112.39 41.17 112.41 41.18 112.46 41.24 113.01 41.92 113 41.96 112.44 42.21 110.32 42.26 108.21 42.61 106.11 42.59 106.76 42.62 107.42 42.67 108.08 42.71 108.68 43.47 108.65 43.51 108.07 43.62 106.37 43.31 104.7 43.94 103.09 44.14 102.6 43.47 102.17 43.25 102.67 43.06 103.08 42.93 103.51 42.81 103.94 42.63 103.81 42.3 103.82 42.21 104.14 41.98 104.85 41.79 105.61 41.62 106.37 41.54 103.12 40.84 99.8 42.57 96.94 41.98 98.71 41.71 100.6 42.29 102.43 42.39 102.78 42.94 102.74 42.9 102.34 42.8 100.51 42.86 98.83 43.27 97.16 43.32 97.95 43.46 98.74 43.74 99.45 43.89 99.84 44.53 99.83 44.49 99.33 44.28 97.31 43.98 95.1 44.94 93.23 44.99 93.09 44.96 92.98 44.91 92.87 44.94 92.8 44.94 92.7 44.89 92.59 44.04 90.98 43.82 88.96 45.01 87.46 45.18 87.24 44.9 86.94 44.72 87.15 44.59 87.29 44.49 87.42 44.4 87.58 44.38 87.57 44.34 87.56 44.34 87.56 43.26 84.96 44.19 82.79 45.17 80.19 45.48 79.35 45.96 78.31 46.1 77.28 45.81 77.42 45.52 77.64 45.24 78.04 44.79 78.66 44.41 79.3 44.04 79.94 42.85 83.09 41.53 86.74 43.73 88.38 42.61 90.63 42.03 93.44 42.78 95.88 42.79 95.96 42.87 95.99 42.92 96.03 42.89 96.09 42.87 96.17 42.83 96.25 42.78 96.02 42.54 95.87 42.36 96.09 40.03 98.94 40.05 103.06 41.03 106.54 41.11 106.85 41.5 106.8 41.58 106.54 41.33 107.72 41.17 108.92 41.13 110.12 39.86 113.22 39.36 116.93 39.66 120.31 38.8 123.11 38.18 126.44 39.16 129.27 39.22 129.45 39.34 129.52 39.47 129.55 39.05 130.79 38.81 132.14 38.72 133.51ZM43.68 90.9C43.76 91.59 43.97 92.26 44.33 92.84 43.95 93.46 43.71 94.19 43.52 94.93 43.5 94.95 43.46 94.98 43.43 95.01 43.36 93.62 43.41 92.24 43.68 90.9Z" fill="#A7C75B"/><path d="M42.75 133.79C42.75 133.26 43.51 133.24 43.51 133.76 43.49 135.01 43.29 136.25 42.93 137.43 42.8 137.88 42.24 137.71 42.31 137.26 42.48 136.09 42.73 134.96 42.75 133.79Z" fill="#A7C75B"/><path d="M46.29 134.06C46.31 135.24 46.39 136.39 46.7 137.53 46.8 137.9 46.33 138.11 46.16 137.78 45.5 136.66 45.51 135.35 45.52 134.06 45.52 133.51 46.29 133.49 46.29 134.06Z" fill="#A7C75B"/><path d="M48.06 135.59C48.19 135.07 48.96 135.28 48.81 135.8 48.6 136.66 48.56 137.53 48.17 138.3 48.06 138.54 47.64 138.47 47.67 138.16 47.73 137.3 47.82 136.43 48.06 135.59Z" fill="#A7C75B"/><path d="M40.69 133.39C40.82 132.78 41.66 133.04 41.52 133.63 41.32 134.67 41.34 135.73 41.24 136.79 41.19 137.34 40.52 137.37 40.46 136.82 40.35 135.66 40.44 134.51 40.69 133.39Z" fill="#A7C75B"/><path d="M40.69 139.81C40.9 139.28 41.75 139.64 41.57 140.2 41.13 141.55 40.9 142.94 40.46 144.28 40.34 144.7 39.68 144.67 39.71 144.19 39.8 142.63 40.12 141.24 40.69 139.81Z" fill="#A7C75B"/><path d="M43.53 140.4C43.77 139.93 44.44 140.33 44.22 140.84 43.8 141.87 43.7 142.9 43.46 144.01 43.39 144.36 42.85 144.39 42.79 144.01 42.57 142.76 43.03 141.51 43.53 140.4Z" fill="#A7C75B"/><path d="M44.84 143.96C45.09 143.84 45.3 143.66 45.48 143.44 45.7 143.19 46.08 143.59 45.84 143.82 45.54 144.13 45.32 144.34 44.91 144.38 44.66 144.42 44.64 144.05 44.84 143.96Z" fill="#A7C75B"/><path d="M38.72 143.91C38.72 143.4 39.44 143.4 39.44 143.89 39.47 144.65 39.56 145.43 39.4 146.18 39.32 146.51 38.85 146.53 38.77 146.19 38.59 145.45 38.7 144.66 38.72 143.91Z" fill="#A7C75B"/><path d="M41.03 146.71C41.21 146.24 41.87 146.63 41.69 147.11 41.44 147.71 41.38 148.38 41.12 148.99 40.96 149.33 40.45 149.09 40.56 148.74 40.77 148.09 40.77 147.36 41.03 146.71Z" fill="#A7C75B"/><path d="M43.12 150.19C43.3 149.93 43.45 149.74 43.47 149.38 43.51 148.8 44.34 148.8 44.29 149.38 44.25 149.96 44.07 150.36 43.63 150.73 43.29 151.08 42.82 150.6 43.12 150.19Z" fill="#A7C75B"/></g></g></g><g><path d="M98.82 172.85C99.51 171.82 99.92 170.71 100.16 169.53 100.24 167.64 100.25 165.72 100.44 163.83 100.4 161.64 100.35 159.44 100.89 157.41 100.97 157.03 101.61 157.09 101.57 157.5 101.53 158.07 101.57 158.65 101.57 159.19 101.71 158.83 101.87 158.52 102.03 158.17 102.23 157.8 102.8 157.94 102.87 158.32 103.01 158.36 103.16 158.48 103.19 158.7 103.25 159.32 103.26 159.96 103.32 160.6 103.55 158.87 103.82 157.18 104.05 155.58 104.14 155.01 105.08 155.13 105.05 155.67 104.8 161.3 105.84 167.59 104.59 173.05 104.51 173.4 104.17 173.54 103.88 173.53 103.83 173.91 103.78 174.26 103.68 174.58 103.65 174.93 103.44 175.17 103.14 175.31 103.14 175.31 103.13 175.31 103.12 175.31 103.03 175.35 102.92 175.37 102.82 175.38L102.78 175.4C102.7 175.4 102.59 175.38 102.52 175.37 102.48 175.37 102.44 175.35 102.44 175.35 102.36 175.31 102.33 175.31 102.28 175.28 102.01 175.17 101.79 174.91 101.79 174.57 101.65 174.08 101.62 173.5 101.59 172.93 101.47 173.04 101.31 173.11 101.16 173.14 100.66 174.07 99.96 174.55 98.93 173.68 98.71 173.49 98.66 173.08 98.82 172.85Z" fill="#6F4C1E"/><g><path d="M86.95 130.38C86.35 130.26 85.84 129.76 85.87 129.03 86.07 125.83 86.92 122.88 87.93 119.93L87.86 119.95C86.81 120.22 86.11 119.29 86.25 118.22 86.66 114.98 87.78 112.14 89.46 109.66 89.23 109.39 89.03 109.07 88.83 108.64 87.9 106.5 88.09 103.63 88.53 100.9 87.86 100.87 87.17 100.24 87.15 99.48 87.08 94.38 88.48 89.71 90.95 85.62 90.81 85.37 90.71 85.14 90.71 84.86 90.71 82.38 91.13 80.06 91.79 77.85 90.86 78.19 89.93 77.31 90.08 76.14 90.66 72.06 91.75 68.23 93.23 64.54 92.98 64.19 92.82 63.75 92.94 63.27 93.27 62.02 93.56 60.76 93.89 59.51 93.25 59.45 92.68 58.92 92.59 58.11 92.48 57.28 92.54 56.29 92.71 55.2 94.32 52.13 95.53 48.88 97.63 45.96 99.29 43.68 101.16 45.02 102.72 47.24 102.8 47.52 102.85 47.78 102.94 47.97 102.98 48.05 103.07 48.08 103.11 48.18 104.06 49.6 104.81 51.09 105.41 52.68 105.61 53.25 105.77 53.73 105.81 54.03 105.96 54.81 106.21 55.45 106.53 56.05 106.72 56.7 106.91 57.36 107.08 58.03 107.28 58.98 106.68 59.7 105.84 59.83 105.8 59.83 105.73 59.84 105.66 59.84 107.11 61.84 107.94 64.07 108.77 66.71 109.12 67.86 108.06 68.76 107.12 68.54 107.52 70.05 107.94 71.53 108.63 72.92 108.95 73.54 108.79 74.26 108.41 74.76 110.65 78.31 112.53 82.05 113.91 86.15 114.29 87.33 113.19 88.2 112.23 88.04 112.15 88.03 112.08 88.01 112.01 87.97 112.64 89.66 113.2 91.41 113.88 93.14 114.2 93.91 113.63 94.69 112.94 94.94 114.64 97.93 116.07 101.06 116.74 104.61 116.89 105.52 116.32 106.4 115.54 106.46 116.74 108.7 117.75 111.03 118.33 113.65 118.58 114.81 117.61 115.72 116.64 115.34 117.01 116.62 117.32 117.91 117.66 119.2 118 120.42 116.99 121.13 116.08 120.9 117.1 122.9 117.97 124.98 118.61 127.21 118.81 127.93 118.37 128.73 117.76 128.94 119.42 131.33 120.69 133.95 121.5 136.95 121.75 137.9 120.89 139.04 119.97 138.68 119.63 138.54 119.35 138.38 119.02 138.26 119.7 140.11 120.25 142 120.85 143.91 121.15 144.83 120.29 145.8 119.46 145.67 119.9 147.1 120.22 148.6 120.55 150.14 120.84 151.4 119.7 152.32 118.66 151.77 118.62 151.77 118.57 151.73 118.53 151.7 119.1 153.57 119.47 155.51 119.92 157.45 120.17 158.56 119.02 159.83 118.02 159.07 117.03 158.31 115.99 157.69 114.97 157.01 115.28 158.28 115.53 159.56 115.8 160.91 115.97 161.87 115.2 163.18 114.16 162.75 109.93 160.91 110.68 160.18 107.44 157.01 104.53 166.83 98.73 162.83 99.29 155.4 95.2 165.13 94.61 156.47 93.29 158.18 92.49 159.22 91.03 158.34 90.95 157.17 90.95 157.1 90.93 157.01 90.93 156.94 90.82 157.13 90.69 157.33 90.59 157.5 90.04 158.47 88.33 158.54 88.14 157.19 87.97 155.99 87.83 154.83 87.78 153.67 87.24 153.63 86.76 153.21 86.58 152.67 86.16 151.42 86.1 150.53 86.21 149.68 85.94 149.38 85.82 148.91 85.94 148.45 86.12 147.7 86.31 146.97 86.48 146.26 85.94 146.15 85.5 145.74 85.57 144.99 85.79 142.37 86.06 140.25 86.95 138.03 86.72 138.03 86.47 138.03 86.24 138.03 85.38 138.03 84.77 137.19 84.95 136.26 85.43 134.16 86.08 132.2 86.95 130.38Z" fill="#5B8F3B"/><g><path d="M98.56 49.94C98.69 49.64 99.14 49.86 99.02 50.16 98.58 51.65 98.41 53.27 98.4 54.86 98.39 55.76 98.51 56.68 98.76 57.56 98.97 58.26 99.48 58.63 99.85 59.18 100.08 59.52 99.79 60.01 99.44 60.01 97.78 59.97 97.47 57.52 97.39 56.18 97.26 54.07 97.7 51.84 98.56 49.94Z" fill="#A7C75B"/><path d="M100.4 54.52C100.5 54.1 101.04 54.27 101 54.68 100.89 55.46 100.81 56.24 100.87 57.05 100.93 57.98 101.44 58.44 102.01 59.09 102.43 59.53 101.9 60.16 101.43 59.92 99.48 59.07 100.01 56.21 100.4 54.52Z" fill="#A7C75B"/><path d="M98.52 64.75C98.77 64.41 99.35 64.88 99.1 65.24 97.9 67.04 97.43 69.1 97.58 71.28 97.61 71.79 96.87 71.92 96.78 71.41 96.31 69.01 97.13 66.64 98.52 64.75Z" fill="#A7C75B"/><path d="M100.66 67.01C100.77 66.5 101.5 66.72 101.4 67.23 101.09 68.84 101.22 70.53 100.74 72.08 100.64 72.51 99.96 72.47 100 71.99 100.1 70.33 100.3 68.62 100.66 67.01Z" fill="#A7C75B"/><path d="M96.84 80.6C96.98 80.15 97.59 80.32 97.49 80.76 97.2 82.01 96.91 83.26 96.72 84.53 96.52 85.83 96.74 87.04 96.89 88.33 96.95 88.67 96.47 88.88 96.27 88.61 94.66 86.45 96.17 82.87 96.84 80.6Z" fill="#A7C75B"/><path d="M100.64 80.69C100.64 80.14 101.42 80.12 101.42 80.67 101.44 82.81 101.59 84.82 102.36 86.81 102.53 87.28 101.89 87.51 101.68 87.16 100.48 85.33 100.61 82.81 100.64 80.69Z" fill="#A7C75B"/><path d="M93.87 92.6C94.15 92 94.98 92.51 94.69 93.1 93.47 95.68 93.71 98.5 93.38 101.3 93.32 101.84 92.65 101.64 92.6 101.19 92.24 98.32 92.56 95.17 93.87 92.6Z" fill="#A7C75B"/><path d="M97.02 93.42C97.21 92.78 98.13 93.03 97.96 93.69 97.4 95.74 97.61 97.71 97.57 99.81 97.55 100.31 96.94 100.4 96.79 99.93 96.11 97.82 96.4 95.47 97.02 93.42Z" fill="#A7C75B"/><path d="M100.53 95.84C100.72 95.15 101.71 95.43 101.52 96.11 101.17 97.34 101.28 98.64 101.06 99.9 100.99 100.3 100.39 100.31 100.33 99.9 100.09 98.58 100.16 97.14 100.53 95.84Z" fill="#A7C75B"/><path d="M95.42 102.99C95.74 102.33 96.63 102.9 96.35 103.54 96.35 103.58 96.31 103.59 96.31 103.63 96.4 103.76 96.44 103.9 96.4 104.11 95.79 106.75 95.8 109.26 95.95 111.95 95.98 112.47 95.33 112.48 95.19 112.08 94.82 111.03 94.65 109.96 94.62 108.86 94.58 109.14 94.53 109.39 94.49 109.68 94.41 110.39 93.44 110.16 93.41 109.55 93.24 107.13 94.42 105.06 95.42 102.99Z" fill="#A7C75B"/><path d="M99.15 105.55C99.34 104.72 100.44 105.06 100.32 105.86 100.03 107.59 99.96 109.14 100.47 110.78 100.6 111.27 100.06 111.53 99.77 111.24 98.25 109.88 98.8 107.36 99.15 105.55Z" fill="#A7C75B"/><path d="M103.76 107.65C103.96 107.04 104.87 107.25 104.72 107.94 104.47 109.01 104.76 109.74 105.07 110.77 105.24 111.31 104.57 111.75 104.19 111.34 103.31 110.32 103.34 108.92 103.76 107.65Z" fill="#A7C75B"/><path d="M89.32 116.49C89 118.02 89.02 119.61 89.27 121.16 89.29 121.24 89.34 121.28 89.38 121.34 89.34 121.68 89.33 122.04 89.35 122.4 89.41 123.02 90.16 122.99 90.21 122.4 90.31 121.4 90.47 120.42 91.12 119.65 91.52 119.21 90.99 118.53 90.56 118.75 90.73 116.88 90.97 115.04 92.16 113.49 92.7 112.83 91.84 111.91 91.25 112.52 91.06 112.73 90.92 112.95 90.77 113.16 90.86 112.57 90.93 111.99 91.09 111.41 91.15 111.57 91.2 111.75 91.27 111.91 91.48 112.34 91.91 112.19 92.11 111.89 92.29 112.08 92.68 112 92.71 111.6 92.86 109.73 93.11 107.94 93.73 106.16 93.92 105.61 93.09 105.38 92.89 105.92 92.42 107.28 92.09 108.63 92 110.06 91.74 107.94 91.74 105.97 92.25 103.77 92.42 103.02 91.38 102.71 91.17 103.46 90.96 104.24 90.78 105.06 90.64 105.89 90.69 104.33 90.87 102.77 91.17 101.22 91.31 101.22 91.42 101.14 91.46 100.93 91.64 99.56 91.72 98.18 91.8 96.8 92.14 95.16 92.7 93.62 93.39 92.04 93.67 91.47 92.86 90.97 92.61 91.54 92.41 91.93 92.25 92.28 92.1 92.66 92.19 91.63 92.3 90.59 92.49 89.57 92.49 89.63 92.49 89.65 92.51 89.71 92.58 90.41 93.45 90.39 93.51 89.69 93.82 87.01 93.89 84.31 94.33 81.65 94.3 82.47 94.33 83.31 94.41 84.15 94.46 84.91 95.43 84.87 95.47 84.13 95.61 81.97 95.23 79.85 96.03 77.8 96.29 77.17 95.43 76.63 95.15 77.26 94.91 77.78 94.75 78.33 94.6 78.88 94.37 78.71 93.95 78.72 93.82 79.13 93.54 80.04 93.28 81 93.07 81.97 92.96 77.83 92.09 73.62 94.28 69.99 93.53 72.24 93.19 74.65 93.92 76.96 94.04 77.41 94.74 77.35 94.69 76.83 94.56 74.51 94.63 72.37 95.16 70.25 95.22 71.25 95.4 72.25 95.75 73.16 95.95 73.66 96.76 73.64 96.7 73.01 96.44 70.44 96.05 67.64 97.27 65.25 97.33 65.09 97.31 64.93 97.23 64.8 97.27 64.7 97.27 64.57 97.21 64.44 96.14 62.4 95.85 59.82 97.37 57.93 97.58 57.65 97.22 57.26 96.99 57.53 96.83 57.7 96.71 57.88 96.58 58.08 96.56 58.07 96.51 58.05 96.51 58.05 95.13 54.74 96.32 51.99 97.56 48.68 97.97 47.61 98.56 46.28 98.74 44.98 98.38 45.17 98 45.45 97.65 45.95 97.08 46.73 96.6 47.55 96.13 48.37 94.62 52.37 92.94 57.01 95.74 59.09 94.32 61.96 93.58 65.53 94.53 68.63 94.54 68.73 94.65 68.77 94.71 68.83 94.68 68.9 94.66 69.01 94.6 69.1 94.53 68.81 94.23 68.61 94 68.9 91.04 72.52 91.07 77.76 92.31 82.18 92.42 82.58 92.91 82.52 93.02 82.18 92.7 83.67 92.5 85.21 92.44 86.73 90.82 90.66 90.2 95.37 90.57 99.67 89.47 103.23 88.7 107.46 89.94 111.06 90.01 111.29 90.17 111.37 90.34 111.41 89.73 113.04 89.43 114.74 89.32 116.49ZM95.61 62.33C95.72 63.21 95.99 64.06 96.44 64.8 95.96 65.59 95.65 66.51 95.4 67.45 95.38 67.49 95.33 67.52 95.29 67.56 95.22 65.79 95.28 64.03 95.61 62.33Z" fill="#A7C75B"/><path d="M94.44 116.85C94.44 116.18 95.41 116.15 95.41 116.81 95.39 118.4 95.13 119.97 94.68 121.46 94.52 122.03 93.8 121.81 93.89 121.24 94.1 119.77 94.42 118.33 94.44 116.85Z" fill="#A7C75B"/><path d="M98.94 117.19C98.96 118.69 99.07 120.15 99.46 121.59 99.59 122.05 98.99 122.32 98.76 121.91 97.93 120.48 97.95 118.83 97.95 117.19 97.96 116.49 98.94 116.47 98.94 117.19Z" fill="#A7C75B"/><path d="M101.18 119.13C101.36 118.48 102.33 118.74 102.14 119.4 101.87 120.48 101.82 121.59 101.33 122.57 101.18 122.88 100.66 122.79 100.7 122.4 100.77 121.3 100.89 120.2 101.18 119.13Z" fill="#A7C75B"/><path d="M91.82 116.33C91.98 115.56 93.05 115.89 92.88 116.63 92.63 117.96 92.66 119.29 92.53 120.64 92.47 121.34 91.61 121.37 91.54 120.68 91.39 119.21 91.51 117.76 91.82 116.33Z" fill="#A7C75B"/><path d="M91.82 124.5C92.09 123.82 93.17 124.29 92.94 125 92.39 126.71 92.09 128.48 91.53 130.19 91.37 130.72 90.54 130.69 90.57 130.09 90.69 128.07 91.09 126.31 91.82 124.5Z" fill="#A7C75B"/><path d="M95.43 125.24C95.73 124.64 96.57 125.15 96.31 125.79 95.78 127.11 95.65 128.41 95.34 129.82 95.25 130.27 94.57 130.3 94.48 129.82 94.2 128.24 94.8 126.65 95.43 125.24Z" fill="#A7C75B"/><path d="M97.09 129.77C97.4 129.61 97.68 129.38 97.9 129.11 98.18 128.79 98.66 129.29 98.36 129.59 97.99 129.98 97.7 130.25 97.18 130.31 96.86 130.35 96.84 129.88 97.09 129.77Z" fill="#A7C75B"/><path d="M89.32 129.7C89.32 129.04 90.23 129.04 90.23 129.68 90.27 130.64 90.39 131.64 90.18 132.59 90.08 133 89.47 133.03 89.39 132.61 89.16 131.67 89.29 130.66 89.32 129.7Z" fill="#A7C75B"/><path d="M92.26 133.26C92.49 132.66 93.32 133.16 93.09 133.76 92.78 134.53 92.69 135.38 92.36 136.15 92.17 136.58 91.51 136.27 91.66 135.83 91.92 135.02 91.92 134.09 92.26 133.26Z" fill="#A7C75B"/><path d="M94.92 137.69C95.14 137.35 95.33 137.12 95.37 136.66 95.4 135.93 96.47 135.93 96.4 136.66 96.35 137.4 96.11 137.91 95.57 138.39 95.12 138.81 94.53 138.21 94.92 137.69Z" fill="#A7C75B"/></g></g></g></g><g><g><path d="M234.47 165.1C235.27 163.91 235.73 162.64 236.01 161.3 236.1 159.13 236.11 156.92 236.33 154.75 236.28 152.23 236.22 149.72 236.84 147.38 236.93 146.95 237.66 147.02 237.62 147.48 237.58 148.13 237.62 148.79 237.62 149.42 237.79 149.01 237.96 148.64 238.16 148.25 238.38 147.82 239.04 147.98 239.12 148.41 239.28 148.46 239.45 148.6 239.49 148.84 239.57 149.55 239.57 150.29 239.63 151.03 239.9 149.04 240.2 147.1 240.47 145.26 240.57 144.61 241.64 144.75 241.61 145.36 241.31 151.82 242.51 159.05 241.09 165.31 241 165.71 240.61 165.87 240.28 165.85 240.22 166.28 240.16 166.69 240.04 167.06 240.01 167.47 239.77 167.73 239.43 167.89 239.43 167.89 239.42 167.89 239.4 167.89 239.29 167.93 239.18 167.96 239.06 167.97L239.01 168C238.92 168 238.79 167.97 238.7 167.96 238.66 167.96 238.61 167.94 238.61 167.94 238.52 167.9 238.48 167.9 238.43 167.86 238.12 167.74 237.87 167.44 237.87 167.04 237.7 166.47 237.66 165.82 237.64 165.16 237.51 165.29 237.32 165.37 237.15 165.41 236.58 166.48 235.78 167.02 234.6 166.03 234.33 165.83 234.28 165.36 234.47 165.1Z" fill="#6F4C1E"/><g><path d="M220.85 116.38C220.16 116.24 219.58 115.66 219.62 114.82 219.85 111.14 220.82 107.76 221.98 104.38L221.91 104.4C220.7 104.71 219.9 103.65 220.05 102.41 220.52 98.69 221.81 95.43 223.74 92.6 223.47 92.29 223.24 91.92 223.01 91.43 221.95 88.97 222.16 85.69 222.66 82.56 221.88 82.52 221.1 81.81 221.08 80.92 220.99 75.07 222.6 69.71 225.45 65.03 225.28 64.74 225.16 64.48 225.16 64.15 225.16 61.31 225.65 58.65 226.4 56.11 225.34 56.5 224.27 55.49 224.44 54.14 225.11 49.46 226.36 45.06 228.07 40.84 227.77 40.45 227.59 39.94 227.73 39.38 228.11 37.95 228.45 36.5 228.82 35.06 228.09 35 227.44 34.39 227.33 33.46 227.21 32.5 227.27 31.37 227.47 30.11 229.32 26.59 230.7 22.86 233.12 19.52 235.02 16.91 237.17 18.44 238.96 20.99 239.05 21.31 239.11 21.61 239.21 21.82 239.27 21.92 239.36 21.95 239.41 22.06 240.5 23.69 241.35 25.41 242.05 27.22 242.27 27.88 242.46 28.43 242.51 28.77 242.68 29.67 242.97 30.4 243.34 31.1 243.55 31.84 243.77 32.6 243.96 33.36 244.19 34.44 243.5 35.28 242.54 35.42 242.5 35.42 242.41 35.43 242.33 35.44 244 37.73 244.94 40.29 245.89 43.32 246.31 44.65 245.08 45.67 244 45.42 244.46 47.15 244.95 48.86 245.73 50.45 246.1 51.16 245.92 51.98 245.48 52.55 248.04 56.62 250.2 60.91 251.79 65.62 252.23 66.97 250.96 67.97 249.86 67.79 249.76 67.77 249.69 67.75 249.61 67.71 250.33 69.64 250.97 71.65 251.76 73.64 252.13 74.51 251.47 75.41 250.69 75.71 252.64 79.14 254.28 82.72 255.05 86.79 255.22 87.83 254.56 88.84 253.68 88.92 255.05 91.47 256.21 94.16 256.88 97.17 257.17 98.49 256.05 99.54 254.94 99.11 255.37 100.58 255.72 102.06 256.12 103.54 256.51 104.94 255.35 105.76 254.3 105.48 255.47 107.78 256.47 110.17 257.21 112.72 257.44 113.54 256.94 114.46 256.23 114.71 258.13 117.45 259.59 120.45 260.53 123.89 260.81 124.98 259.83 126.29 258.77 125.88 258.38 125.72 258.05 125.53 257.68 125.39 258.47 127.51 259.09 129.68 259.79 131.87 260.13 132.94 259.14 134.04 258.19 133.9 258.71 135.53 259.06 137.26 259.44 139.03 259.77 140.46 258.48 141.53 257.28 140.9 257.23 140.9 257.18 140.86 257.12 140.82 257.77 142.96 258.19 145.19 258.71 147.42 259 148.69 257.67 150.14 256.53 149.28 255.4 148.4 254.2 147.69 253.03 146.92 253.39 148.37 253.67 149.84 253.98 151.39 254.18 152.5 253.29 153.99 252.1 153.5 247.26 151.39 248.11 150.55 244.4 146.92 241.06 158.18 234.41 153.6 235.04 145.07 230.36 156.24 229.67 146.3 228.16 148.26 227.24 149.44 225.56 148.45 225.47 147.09 225.47 147.01 225.45 146.91 225.45 146.82 225.32 147.04 225.16 147.27 225.05 147.47 224.42 148.58 222.46 148.66 222.24 147.12 222.04 145.73 221.88 144.4 221.82 143.07 221.2 143.03 220.65 142.54 220.43 141.92 219.95 140.49 219.88 139.47 220 138.49 219.69 138.14 219.56 137.61 219.69 137.07 219.9 136.21 220.11 135.38 220.31 134.56 219.69 134.44 219.19 133.98 219.26 133.1 219.51 130.1 219.82 127.67 220.84 125.13 220.58 125.13 220.29 125.13 220.02 125.13 219.03 125.13 218.34 124.17 218.55 123.1 219.1 120.72 219.84 118.46 220.85 116.38Z" fill="#4C7C35"/><g><path d="M234.16 24.1C234.31 23.77 234.82 24.01 234.69 24.35 234.19 26.06 233.99 27.92 233.98 29.74 233.97 30.78 234.11 31.82 234.39 32.84 234.62 33.65 235.21 34.07 235.64 34.71 235.9 35.09 235.57 35.65 235.17 35.65 233.27 35.6 232.91 32.79 232.82 31.26 232.67 28.85 233.18 26.28 234.16 24.1Z" fill="#A7C75B"/><path d="M236.28 29.36C236.4 28.88 237.02 29.07 236.96 29.54 236.84 30.44 236.75 31.33 236.82 32.26 236.89 33.34 237.47 33.86 238.13 34.61 238.62 35.1 238.01 35.82 237.45 35.56 235.22 34.58 235.83 31.29 236.28 29.36Z" fill="#A7C75B"/><path d="M234.12 41.09C234.41 40.7 235.08 41.24 234.78 41.65 233.41 43.71 232.87 46.08 233.04 48.57 233.08 49.16 232.23 49.31 232.12 48.73 231.58 45.98 232.52 43.26 234.12 41.09Z" fill="#A7C75B"/><path d="M236.57 43.68C236.7 43.09 237.53 43.34 237.41 43.92 237.06 45.76 237.2 47.71 236.66 49.49 236.54 49.98 235.76 49.94 235.81 49.38 235.93 47.5 236.17 45.53 236.57 43.68Z" fill="#A7C75B"/><path d="M232.19 59.28C232.36 58.76 233.05 58.94 232.93 59.46 232.6 60.89 232.27 62.32 232.05 63.77 231.83 65.26 232.07 66.65 232.25 68.12 232.32 68.51 231.77 68.76 231.54 68.45 229.69 65.98 231.42 61.88 232.19 59.28Z" fill="#A7C75B"/><path d="M236.55 59.37C236.55 58.74 237.44 58.72 237.44 59.35 237.47 61.81 237.63 64.11 238.51 66.39 238.72 66.94 237.98 67.21 237.74 66.8 236.37 64.7 236.51 61.81 236.55 59.37Z" fill="#A7C75B"/><path d="M228.78 73.04C229.11 72.34 230.05 72.94 229.72 73.61 228.32 76.57 228.6 79.81 228.21 83.02 228.15 83.63 227.38 83.41 227.32 82.89 226.92 79.6 227.28 75.99 228.78 73.04Z" fill="#A7C75B"/><path d="M232.4 73.98C232.63 73.24 233.68 73.53 233.48 74.29 232.84 76.64 233.08 78.89 233.03 81.3 233.02 81.87 232.32 81.98 232.15 81.44 231.36 79.04 231.69 76.34 232.4 73.98Z" fill="#A7C75B"/><path d="M236.43 76.76C236.63 75.97 237.77 76.29 237.57 77.07 237.17 78.48 237.29 79.97 237.05 81.43 236.97 81.88 236.28 81.9 236.21 81.43 235.92 79.91 236 78.25 236.43 76.76Z" fill="#A7C75B"/><path d="M230.56 84.96C230.93 84.2 231.95 84.86 231.62 85.59 231.62 85.64 231.58 85.66 231.58 85.7 231.69 85.84 231.73 86 231.69 86.25 230.98 89.28 230.99 92.16 231.18 95.24 231.21 95.84 230.46 95.86 230.3 95.39 229.87 94.18 229.68 92.95 229.65 91.69 229.6 92.02 229.54 92.3 229.51 92.63 229.41 93.44 228.3 93.18 228.26 92.48 228.08 89.71 229.41 87.33 230.56 84.96Z" fill="#A7C75B"/><path d="M234.85 87.89C235.06 86.95 236.33 87.33 236.18 88.26 235.86 90.24 235.77 92.03 236.36 93.9 236.52 94.46 235.9 94.76 235.56 94.43 233.81 92.86 234.44 89.98 234.85 87.89Z" fill="#A7C75B"/><path d="M240.13 90.3C240.37 89.6 241.4 89.84 241.24 90.63 240.95 91.86 241.27 92.7 241.63 93.88 241.82 94.5 241.05 95.01 240.62 94.54 239.61 93.37 239.65 91.76 240.13 90.3Z" fill="#A7C75B"/><path d="M223.57 100.45C223.2 102.21 223.22 104.03 223.51 105.81 223.53 105.91 223.58 105.96 223.63 106.01 223.58 106.4 223.57 106.81 223.59 107.22 223.65 107.94 224.52 107.9 224.58 107.22 224.7 106.08 224.88 104.96 225.63 104.07 226.08 103.57 225.48 102.79 224.99 103.04 225.18 100.89 225.46 98.78 226.83 97 227.45 96.25 226.46 95.18 225.79 95.9 225.57 96.14 225.41 96.39 225.24 96.63 225.34 95.96 225.42 95.28 225.6 94.63 225.67 94.81 225.73 95.01 225.81 95.2 226.05 95.69 226.55 95.53 226.77 95.18 226.98 95.41 227.43 95.3 227.46 94.85 227.64 92.7 227.91 90.66 228.63 88.61 228.86 87.98 227.9 87.71 227.67 88.34 227.13 89.89 226.75 91.45 226.64 93.09 226.35 90.65 226.35 88.38 226.93 85.87 227.13 85 225.93 84.65 225.69 85.52 225.46 86.42 225.25 87.36 225.09 88.3 225.15 86.52 225.36 84.72 225.69 82.94 225.85 82.94 225.97 82.85 226.02 82.61 226.22 81.03 226.33 79.46 226.42 77.86 226.81 75.98 227.45 74.22 228.25 72.4 228.56 71.74 227.65 71.17 227.35 71.83 227.12 72.28 226.94 72.68 226.76 73.12 226.85 71.93 226.99 70.74 227.21 69.58 227.21 69.64 227.21 69.68 227.23 69.74 227.31 70.54 228.31 70.53 228.37 69.72 228.72 66.64 228.8 63.54 229.31 60.49 229.28 61.44 229.32 62.4 229.4 63.36 229.46 64.24 230.57 64.2 230.62 63.33 230.78 60.86 230.34 58.42 231.26 56.07 231.55 55.35 230.57 54.73 230.25 55.45 229.98 56.05 229.79 56.68 229.62 57.31 229.35 57.12 228.87 57.13 228.73 57.6 228.4 58.64 228.11 59.75 227.87 60.85 227.75 56.11 226.75 51.28 229.27 47.11 228.41 49.68 228.02 52.45 228.86 55.1 229.01 55.62 229.8 55.55 229.75 54.96 229.6 52.3 229.68 49.85 230.28 47.41 230.35 48.56 230.56 49.7 230.97 50.75 231.2 51.32 232.13 51.3 232.06 50.57 231.76 47.62 231.31 44.42 232.71 41.67 232.79 41.48 232.75 41.31 232.67 41.15 232.71 41.04 232.71 40.9 232.65 40.74 231.42 38.39 231.09 35.45 232.83 33.26 233.06 32.94 232.67 32.49 232.4 32.81 232.22 33 232.07 33.21 231.93 33.43 231.9 33.41 231.84 33.4 231.84 33.4 230.25 29.61 231.62 26.44 233.05 22.66 233.51 21.43 234.2 19.9 234.41 18.42 233.99 18.63 233.56 18.95 233.16 19.52 232.51 20.42 231.96 21.36 231.41 22.3 229.68 26.88 227.75 32.21 230.96 34.6 229.33 37.88 228.48 41.97 229.57 45.54 229.6 45.66 229.71 45.7 229.78 45.76 229.74 45.85 229.71 45.97 229.65 46.07 229.56 45.74 229.22 45.52 228.96 45.84 225.55 49.99 225.59 56 227.01 61.08 227.14 61.52 227.7 61.46 227.83 61.08 227.46 62.79 227.23 64.55 227.18 66.29 225.33 70.81 224.6 76.21 225.04 81.14 223.77 85.23 222.89 90.08 224.31 94.21 224.39 94.47 224.57 94.57 224.76 94.62 224.04 96.48 223.68 98.44 223.57 100.45ZM230.78 38.31C230.91 39.31 231.21 40.28 231.74 41.15 231.19 42.06 230.83 43.1 230.55 44.19 230.52 44.22 230.47 44.27 230.42 44.3 230.33 42.28 230.4 40.27 230.78 38.31Z" fill="#A7C75B"/><path d="M229.43 100.86C229.43 100.09 230.54 100.06 230.54 100.81 230.51 102.63 230.22 104.44 229.71 106.15 229.51 106.81 228.7 106.55 228.8 105.9 229.05 104.21 229.41 102.55 229.43 100.86Z" fill="#A7C75B"/><path d="M234.61 101.24C234.63 102.96 234.76 104.63 235.2 106.29 235.35 106.82 234.67 107.13 234.4 106.66 233.44 105.03 233.46 103.12 233.47 101.24 233.48 100.45 234.61 100.42 234.61 101.24Z" fill="#A7C75B"/><path d="M237.17 103.47C237.38 102.72 238.49 103.03 238.27 103.78 237.96 105.03 237.91 106.29 237.34 107.42 237.17 107.76 236.57 107.66 236.62 107.21 236.7 105.97 236.84 104.7 237.17 103.47Z" fill="#A7C75B"/><path d="M226.43 100.26C226.61 99.38 227.84 99.76 227.65 100.61 227.36 102.13 227.39 103.66 227.24 105.21 227.17 106.01 226.19 106.05 226.1 105.25 225.94 103.57 226.07 101.9 226.43 100.26Z" fill="#A7C75B"/><path d="M226.43 109.63C226.74 108.85 227.98 109.38 227.72 110.2 227.08 112.17 226.74 114.19 226.1 116.15 225.92 116.76 224.96 116.72 225.01 116.02 225.14 113.74 225.6 111.71 226.43 109.63Z" fill="#A7C75B"/><path d="M230.58 110.48C230.93 109.78 231.9 110.38 231.58 111.12 230.97 112.63 230.83 114.12 230.48 115.74 230.38 116.25 229.59 116.29 229.49 115.74 229.17 113.92 229.85 112.1 230.58 110.48Z" fill="#A7C75B"/><path d="M232.48 115.68C232.84 115.5 233.16 115.24 233.41 114.92 233.73 114.55 234.28 115.13 233.94 115.47 233.51 115.92 233.18 116.23 232.58 116.29 232.22 116.34 232.19 115.81 232.48 115.68Z" fill="#A7C75B"/><path d="M223.57 115.6C223.57 114.85 224.61 114.85 224.61 115.58 224.65 116.68 224.79 117.83 224.54 118.91 224.42 119.39 223.73 119.42 223.63 118.94 223.38 117.85 223.54 116.7 223.57 115.6Z" fill="#A7C75B"/><path d="M226.94 119.69C227.21 119 228.16 119.57 227.89 120.26 227.53 121.14 227.44 122.12 227.05 123 226.83 123.49 226.08 123.14 226.24 122.64 226.55 121.7 226.55 120.63 226.94 119.69Z" fill="#A7C75B"/><path d="M229.99 124.76C230.24 124.38 230.46 124.1 230.5 123.58 230.54 122.74 231.77 122.74 231.69 123.58 231.62 124.44 231.36 125.01 230.73 125.56 230.22 126.05 229.53 125.36 229.99 124.76Z" fill="#A7C75B"/></g></g></g><g><path d="M256.75 161.56C257.39 160.61 257.77 159.59 257.99 158.51 258.06 156.77 258.07 155 258.24 153.26 258.2 151.24 258.16 149.22 258.65 147.35 258.72 147 259.31 147.06 259.27 147.43 259.24 147.96 259.27 148.48 259.27 148.99 259.4 148.66 259.54 148.37 259.7 148.05 259.88 147.71 260.4 147.84 260.47 148.18 260.6 148.21 260.74 148.33 260.77 148.53 260.83 149.1 260.84 149.69 260.88 150.28 261.1 148.69 261.34 147.13 261.55 145.66 261.63 145.13 262.49 145.25 262.47 145.74 262.24 150.93 263.19 156.71 262.05 161.74 261.98 162.06 261.67 162.19 261.4 162.18 261.36 162.53 261.31 162.85 261.22 163.15 261.2 163.48 261 163.69 260.73 163.82 260.73 163.82 260.72 163.82 260.71 163.82 260.63 163.85 260.53 163.87 260.43 163.89L260.39 163.9C260.31 163.9 260.21 163.89 260.15 163.87 260.12 163.87 260.07 163.85 260.07 163.85 260 163.82 259.97 163.82 259.92 163.79 259.67 163.69 259.47 163.45 259.47 163.13 259.34 162.67 259.31 162.15 259.29 161.62 259.18 161.72 259.03 161.78 258.89 161.82 258.43 162.68 257.78 163.12 256.84 162.31 256.64 162.16 256.6 161.78 256.75 161.56Z" fill="#6F4C1E"/><g><path d="M245.83 122.47C245.28 122.36 244.81 121.9 244.84 121.23 245.03 118.28 245.81 115.57 246.74 112.86L246.68 112.88C245.71 113.13 245.07 112.27 245.19 111.29 245.56 108.31 246.59 105.7 248.15 103.41 247.94 103.16 247.75 102.87 247.57 102.48 246.72 100.51 246.89 97.87 247.29 95.36 246.67 95.33 246.04 94.75 246.02 94.05 245.96 89.35 247.24 85.06 249.52 81.3 249.39 81.07 249.3 80.86 249.3 80.6 249.3 78.32 249.69 76.18 250.3 74.15 249.44 74.46 248.59 73.65 248.73 72.57 249.27 68.82 250.27 65.29 251.63 61.9 251.4 61.58 251.25 61.17 251.36 60.73 251.66 59.58 251.93 58.42 252.23 57.27 251.64 57.22 251.12 56.73 251.03 55.98 250.93 55.21 250.98 54.3 251.14 53.3 252.63 50.47 253.74 47.48 255.67 44.8 257.2 42.7 258.92 43.93 260.36 45.98 260.43 46.23 260.48 46.48 260.56 46.65 260.6 46.73 260.68 46.75 260.72 46.84 261.59 48.14 262.28 49.51 262.84 50.98 263.02 51.5 263.17 51.95 263.21 52.23 263.35 52.95 263.58 53.54 263.87 54.09 264.05 54.69 264.22 55.29 264.37 55.91 264.56 56.78 264.01 57.45 263.23 57.57 263.19 57.57 263.12 57.58 263.06 57.58 264.39 59.42 265.15 61.48 265.92 63.9 266.25 64.96 265.26 65.78 264.4 65.59 264.77 66.98 265.16 68.34 265.79 69.62 266.09 70.19 265.94 70.86 265.59 71.31 267.65 74.57 269.38 78.02 270.65 81.79 271.01 82.88 269.99 83.68 269.11 83.53 269.03 83.52 268.97 83.5 268.91 83.47 269.49 85.02 270.01 86.64 270.64 88.23 270.93 88.94 270.41 89.66 269.77 89.89 271.34 92.65 272.65 95.52 273.27 98.79 273.41 99.62 272.89 100.43 272.17 100.49 273.27 102.55 274.2 104.69 274.74 107.11 274.97 108.18 274.07 109.01 273.19 108.67 273.53 109.85 273.82 111.03 274.13 112.23 274.44 113.35 273.51 114.01 272.67 113.79 273.61 115.63 274.41 117.55 275 119.6 275.19 120.26 274.78 121 274.21 121.19 275.74 123.39 276.91 125.81 277.65 128.56 277.88 129.43 277.09 130.48 276.24 130.15 275.93 130.02 275.66 129.88 275.37 129.76 276 131.46 276.5 133.2 277.06 134.96 277.33 135.81 276.54 136.7 275.78 136.58 276.19 137.9 276.48 139.28 276.78 140.7 277.04 141.86 276 142.71 275.04 142.2 275 142.2 274.96 142.17 274.91 142.14 275.43 143.86 275.77 145.65 276.19 147.43 276.42 148.45 275.36 149.62 274.44 148.92 273.53 148.22 272.57 147.64 271.63 147.02 271.91 148.18 272.14 149.36 272.39 150.61 272.55 151.5 271.84 152.7 270.88 152.3 266.99 150.61 267.67 149.94 264.7 147.02 262.02 156.06 256.68 152.38 257.2 145.54 253.44 154.5 252.89 146.52 251.67 148.1 250.93 149.05 249.59 148.25 249.51 147.17 249.51 147.11 249.49 147.03 249.49 146.96 249.39 147.13 249.27 147.32 249.18 147.48 248.68 148.37 247.1 148.44 246.93 147.2 246.77 146.09 246.64 145.03 246.59 143.96 246.1 143.93 245.65 143.54 245.48 143.04 245.1 141.89 245.04 141.07 245.14 140.29 244.89 140.01 244.79 139.58 244.89 139.15 245.06 138.46 245.23 137.79 245.39 137.13 244.89 137.03 244.49 136.65 244.55 135.96 244.75 133.55 245 131.59 245.82 129.56 245.61 129.56 245.38 129.56 245.17 129.56 244.38 129.56 243.82 128.79 243.98 127.93 244.43 125.96 245.02 124.15 245.83 122.47Z" fill="#5B8F3B"/><g><path d="M256.51 48.45C256.63 48.18 257.04 48.37 256.94 48.66 256.53 50.03 256.38 51.52 256.37 52.98 256.36 53.81 256.47 54.65 256.7 55.47 256.89 56.12 257.36 56.45 257.7 56.96 257.91 57.28 257.65 57.72 257.33 57.72 255.8 57.69 255.52 55.43 255.44 54.2 255.31 52.25 255.72 50.19 256.51 48.45Z" fill="#A7C75B"/><path d="M258.21 52.66C258.3 52.27 258.8 52.43 258.76 52.81 258.66 53.53 258.59 54.24 258.64 54.99 258.69 55.85 259.16 56.27 259.69 56.87 260.08 57.27 259.59 57.85 259.15 57.63 257.36 56.86 257.85 54.21 258.21 52.66Z" fill="#A7C75B"/><path d="M256.47 62.08C256.7 61.76 257.24 62.2 257 62.53 255.9 64.18 255.46 66.08 255.6 68.09 255.63 68.56 254.95 68.68 254.86 68.21 254.44 66 255.19 63.81 256.47 62.08Z" fill="#A7C75B"/><path d="M258.44 64.15C258.54 63.68 259.21 63.89 259.12 64.35 258.84 65.83 258.96 67.39 258.52 68.82 258.43 69.22 257.8 69.18 257.84 68.73 257.93 67.21 258.11 65.64 258.44 64.15Z" fill="#A7C75B"/><path d="M254.93 76.66C255.06 76.25 255.62 76.4 255.53 76.81 255.27 77.96 255 79.11 254.82 80.28 254.64 81.47 254.84 82.59 254.97 83.77 255.02 84.08 254.58 84.28 254.4 84.03 252.92 82.05 254.31 78.75 254.93 76.66Z" fill="#A7C75B"/><path d="M258.42 76.75C258.42 76.24 259.14 76.22 259.14 76.73 259.16 78.7 259.3 80.55 260 82.38 260.16 82.82 259.57 83.03 259.38 82.7 258.28 81.01 258.39 78.7 258.42 76.75Z" fill="#A7C75B"/><path d="M252.19 87.71C252.45 87.16 253.21 87.62 252.95 88.17 251.83 90.55 252.05 93.14 251.74 95.72 251.69 96.22 251.07 96.03 251.02 95.62 250.7 92.98 250.99 90.07 252.19 87.71Z" fill="#A7C75B"/><path d="M255.1 88.46C255.28 87.87 256.12 88.1 255.96 88.71 255.45 90.6 255.63 92.41 255.6 94.34 255.58 94.8 255.02 94.88 254.88 94.45 254.26 92.52 254.52 90.34 255.1 88.46Z" fill="#A7C75B"/><path d="M258.32 90.69C258.49 90.06 259.4 90.31 259.23 90.94 258.91 92.07 259.01 93.26 258.81 94.43 258.75 94.79 258.2 94.81 258.14 94.43 257.92 93.22 257.98 91.89 258.32 90.69Z" fill="#A7C75B"/><path d="M253.62 97.27C253.91 96.66 254.74 97.19 254.47 97.78 254.47 97.82 254.44 97.83 254.44 97.86 254.52 97.98 254.56 98.11 254.52 98.31 253.96 100.74 253.96 103.05 254.11 105.53 254.13 106.01 253.54 106.02 253.41 105.65 253.07 104.68 252.92 103.7 252.88 102.68 252.84 102.94 252.8 103.17 252.76 103.44 252.68 104.09 251.79 103.88 251.76 103.32 251.62 101.08 252.7 99.17 253.62 97.27Z" fill="#A7C75B"/><path d="M257.06 99.63C257.23 98.87 258.25 99.18 258.13 99.92 257.86 101.51 257.8 102.94 258.27 104.44 258.4 104.89 257.9 105.13 257.63 104.86 256.22 103.61 256.73 101.3 257.06 99.63Z" fill="#A7C75B"/><path d="M261.3 101.55C261.49 100.99 262.32 101.18 262.18 101.82 261.95 102.8 262.21 103.48 262.5 104.43 262.65 104.92 262.04 105.34 261.69 104.96 260.88 104.02 260.91 102.72 261.3 101.55Z" fill="#A7C75B"/><path d="M248.01 109.69C247.72 111.1 247.73 112.56 247.96 113.99 247.98 114.07 248.02 114.1 248.06 114.15 248.02 114.46 248.01 114.79 248.03 115.12 248.08 115.69 248.78 115.66 248.82 115.12 248.91 114.2 249.06 113.3 249.66 112.59 250.02 112.19 249.54 111.56 249.15 111.76 249.3 110.04 249.52 108.34 250.63 106.92 251.13 106.31 250.34 105.46 249.79 106.03 249.62 106.23 249.48 106.42 249.34 106.62 249.42 106.08 249.48 105.54 249.64 105.01 249.69 105.16 249.74 105.32 249.81 105.47 250 105.86 250.4 105.73 250.58 105.45 250.75 105.63 251.11 105.55 251.13 105.19 251.27 103.47 251.5 101.82 252.07 100.19 252.25 99.69 251.48 99.47 251.3 99.97 250.87 101.22 250.56 102.47 250.48 103.78 250.24 101.83 250.24 100.01 250.71 97.99 250.87 97.3 249.91 97.01 249.72 97.71 249.53 98.43 249.36 99.19 249.23 99.95 249.28 98.52 249.44 97.08 249.71 95.65 249.84 95.65 249.94 95.58 249.97 95.38 250.13 94.12 250.21 92.85 250.29 91.58 250.6 90.07 251.12 88.65 251.76 87.2 252.02 86.67 251.27 86.21 251.04 86.74 250.86 87.1 250.71 87.42 250.57 87.77 250.65 86.82 250.75 85.87 250.93 84.93 250.93 84.98 250.93 85.01 250.95 85.06 251.02 85.7 251.81 85.68 251.87 85.04 252.15 82.57 252.22 80.09 252.62 77.64 252.6 78.4 252.62 79.17 252.69 79.94 252.73 80.64 253.62 80.61 253.67 79.92 253.8 77.93 253.45 75.98 254.18 74.09 254.42 73.51 253.63 73.01 253.37 73.6 253.15 74.08 253 74.59 252.86 75.1 252.65 74.94 252.26 74.95 252.15 75.33 251.89 76.17 251.65 77.05 251.46 77.94 251.36 74.13 250.56 70.26 252.58 66.91 251.89 68.98 251.58 71.2 252.25 73.33 252.36 73.74 253 73.69 252.96 73.21 252.84 71.08 252.91 69.11 253.39 67.16 253.45 68.08 253.61 69 253.94 69.83 254.12 70.29 254.87 70.28 254.81 69.69 254.57 67.32 254.21 64.75 255.34 62.55 255.4 62.4 255.37 62.26 255.3 62.14 255.34 62.05 255.34 61.93 255.28 61.81 254.29 59.93 254.02 57.56 255.43 55.82 255.62 55.56 255.29 55.21 255.08 55.45 254.93 55.61 254.82 55.77 254.7 55.95 254.68 55.94 254.64 55.93 254.64 55.93 253.37 52.88 254.46 50.35 255.6 47.31 255.98 46.33 256.52 45.1 256.69 43.9 256.36 44.07 256.01 44.33 255.69 44.79 255.17 45.51 254.72 46.26 254.29 47.01 252.9 50.69 251.35 54.96 253.93 56.88 252.62 59.52 251.94 62.8 252.82 65.66 252.83 65.75 252.93 65.79 252.98 65.84 252.95 65.91 252.93 66 252.88 66.09 252.82 65.82 252.54 65.64 252.33 65.91 249.6 69.24 249.63 74.06 250.78 78.13 250.88 78.49 251.33 78.44 251.43 78.13 251.13 79.5 250.95 80.92 250.9 82.32 249.41 85.94 248.84 90.27 249.18 94.23 248.17 97.51 247.46 101.4 248.6 104.71 248.67 104.92 248.81 105 248.96 105.04 248.38 106.52 248.11 108.09 248.01 109.69ZM253.79 59.85C253.89 60.66 254.14 61.44 254.56 62.12 254.12 62.85 253.83 63.69 253.6 64.56 253.58 64.59 253.53 64.62 253.5 64.66 253.44 63.04 253.49 61.42 253.79 59.85Z" fill="#A7C75B"/><path d="M252.71 110.02C252.71 109.4 253.6 109.38 253.6 109.99 253.58 111.45 253.34 112.89 252.93 114.27 252.78 114.8 252.12 114.6 252.2 114.07 252.41 112.71 252.7 111.39 252.71 110.02Z" fill="#A7C75B"/><path d="M256.86 110.34C256.88 111.72 256.98 113.06 257.34 114.39 257.46 114.82 256.91 115.06 256.69 114.68 255.92 113.36 255.94 111.84 255.95 110.34 255.96 109.69 256.86 109.68 256.86 110.34Z" fill="#A7C75B"/><path d="M258.92 112.13C259.09 111.53 259.97 111.77 259.8 112.37 259.55 113.37 259.5 114.39 259.05 115.29 258.92 115.57 258.43 115.49 258.47 115.13 258.54 114.13 258.65 113.11 258.92 112.13Z" fill="#A7C75B"/><path d="M250.3 109.55C250.45 108.84 251.43 109.14 251.27 109.83 251.04 111.05 251.06 112.28 250.95 113.52 250.9 114.16 250.1 114.19 250.04 113.56 249.91 112.2 250.02 110.87 250.3 109.55Z" fill="#A7C75B"/><path d="M250.3 117.06C250.55 116.43 251.55 116.86 251.33 117.52 250.82 119.1 250.54 120.72 250.03 122.3 249.89 122.79 249.12 122.76 249.15 122.21 249.27 120.36 249.64 118.74 250.3 117.06Z" fill="#A7C75B"/><path d="M253.63 117.75C253.91 117.2 254.68 117.67 254.44 118.26 253.95 119.47 253.83 120.67 253.55 121.97 253.47 122.38 252.84 122.42 252.76 121.97 252.5 120.51 253.05 119.05 253.63 117.75Z" fill="#A7C75B"/><path d="M255.16 121.92C255.45 121.78 255.7 121.56 255.91 121.31 256.16 121.01 256.61 121.48 256.33 121.75 255.99 122.11 255.72 122.36 255.24 122.41 254.95 122.45 254.93 122.02 255.16 121.92Z" fill="#A7C75B"/><path d="M248.01 121.86C248.01 121.25 248.85 121.25 248.85 121.84 248.89 122.73 249 123.65 248.8 124.52 248.71 124.9 248.15 124.93 248.07 124.54 247.86 123.66 247.98 122.74 248.01 121.86Z" fill="#A7C75B"/><path d="M250.71 125.13C250.92 124.57 251.69 125.04 251.47 125.59 251.18 126.3 251.11 127.08 250.8 127.79 250.62 128.18 250.02 127.9 250.15 127.49 250.4 126.75 250.4 125.89 250.71 125.13Z" fill="#A7C75B"/><path d="M253.16 129.21C253.37 128.9 253.54 128.68 253.57 128.26 253.6 127.59 254.58 127.59 254.52 128.26 254.47 128.94 254.26 129.4 253.75 129.85 253.35 130.24 252.8 129.68 253.16 129.21Z" fill="#A7C75B"/></g></g></g></g></g></svg>