<svg width="120.59" height="83.58" viewBox="0 0 120.59 83.58" xmlns="http://www.w3.org/2000/svg" xmlns:xlink="http://www.w3.org/1999/xlink" xml:space="preserve" overflow="hidden"><defs></defs><g><g><path d="M61.87 83.29C51.42 83.29 40.98 83.26 30.53 83.3 22.99 83.33 15.44 83.48 7.9 83.53 5.77 83.54 3.63 83.4 1.5 83.3 0.28 83.24-0.12 82.72 0.05 81.53 1.19 73.77 2.34 66.01 3.46 58.25 3.66 56.86 3.65 55.44 3.9 54.07 4.03 53.34 4.38 52.54 4.87 51.98 9.98 46.21 15.75 41.1 21.42 35.9 31.98 26.22 42.54 16.53 53.15 6.91 55.52 4.76 58.11 2.85 60.6 0.82 60.86 0.61 61.05 0.27 61.34 0.16 61.69 0.03 62.25-0.09 62.48 0.09 65.88 2.87 69.36 5.58 72.6 8.54 86.13 20.9 99.61 33.32 113.07 45.77 115.22 47.76 117.2 49.93 119.17 52.11 119.66 52.65 120.01 53.51 120.03 54.23 120.26 63.21 120.41 72.19 120.59 81.17 120.59 81.38 120.6 81.6 120.59 81.81 120.49 83.04 120.11 83.45 118.87 83.47 114.84 83.53 110.81 83.61 106.77 83.57 91.8 83.45 76.84 83.28 61.87 83.13 61.87 83.19 61.87 83.24 61.87 83.29ZM62.09 4.67C62.02 4.67 61.95 4.67 61.88 4.67 61.85 4.78 61.8 4.89 61.79 5 61.42 11.1 60.92 17.19 60.7 23.29 60.35 33.09 60.19 42.9 59.95 52.7 59.94 52.94 59.94 53.19 59.91 53.43 59.8 54.24 59.38 54.69 58.51 54.67 57.5 54.65 56.49 54.7 55.49 54.68 46.11 54.44 36.74 54.08 27.36 53.98 20.67 53.91 13.98 54.19 7.29 54.3 6.6 54.31 5.91 54.22 5.12 54.17 5.12 63.47 5.12 72.71 5.12 82.22 17.72 82.06 30.36 81.83 43 81.75 55.65 81.67 68.29 81.67 80.94 81.75 93.58 81.83 106.21 82.06 118.79 82.22 118.79 72.72 118.79 63.48 118.79 54.22 118.58 54.19 118.46 54.16 118.35 54.16 115.79 54.18 113.22 54.33 110.67 54.21 99.06 53.67 87.46 54.06 75.85 54.45 72.4 54.56 68.95 54.62 65.5 54.67 64.43 54.69 64.09 54.32 63.98 53.26 63.96 53.02 63.96 52.77 63.95 52.53 63.71 38.29 63.34 24.06 62.48 9.85 62.39 8.12 62.23 6.4 62.09 4.67ZM58.44 53.4C58.78 36.07 59.55 19.04 61.14 1.99 61.01 2.07 60.9 2.12 60.81 2.19 58.49 4.13 56.08 5.97 53.86 8.02 43.2 17.86 32.57 27.74 21.98 37.66 16.97 42.36 12.07 47.18 7.12 51.94 6.87 52.18 6.67 52.46 6.45 52.72 6.49 52.81 6.52 52.89 6.56 52.98 23.83 51.97 41.1 52.77 58.44 53.4ZM62.77 2.02C64.36 19.07 65.13 36.11 65.47 53.4 82.81 52.77 100.09 51.98 117.53 52.98 115.87 50.27 66.45 4.37 62.77 2.02ZM3.3 82.02C3.44 75.94 3.58 69.96 3.72 63.98 3.62 63.97 3.52 63.97 3.42 63.96 2.73 69.96 2.04 75.96 1.34 82.02 2.12 82.02 2.66 82.02 3.3 82.02Z" fill="#2F4042"/><path d="M62.09 4.67C62.22 6.4 62.38 8.12 62.49 9.85 63.35 24.06 63.72 38.3 63.96 52.53 63.96 52.77 63.96 53.02 63.99 53.26 64.1 54.32 64.44 54.69 65.51 54.67 68.96 54.62 72.41 54.56 75.86 54.45 87.46 54.07 99.07 53.67 110.68 54.21 113.23 54.33 115.8 54.18 118.36 54.16 118.48 54.16 118.59 54.19 118.8 54.22 118.8 63.48 118.8 72.72 118.8 82.22 106.22 82.06 93.58 81.83 80.95 81.75 68.3 81.67 55.66 81.67 43.01 81.75 30.37 81.83 17.73 82.06 5.13 82.22 5.13 72.71 5.13 63.47 5.13 54.17 5.92 54.22 6.61 54.31 7.3 54.3 13.99 54.19 20.68 53.91 27.37 53.98 36.75 54.08 46.12 54.44 55.5 54.68 56.51 54.71 57.52 54.65 58.52 54.67 59.39 54.69 59.81 54.23 59.92 53.43 59.95 53.19 59.96 52.94 59.96 52.7 60.2 42.89 60.36 33.09 60.71 23.29 60.93 17.19 61.42 11.09 61.8 5 61.81 4.89 61.86 4.78 61.88 4.67 61.95 4.67 62.02 4.67 62.09 4.67Z" fill="#F9E467"/><path d="M58.44 53.4C41.09 52.77 23.83 51.97 6.55 52.98 6.51 52.89 6.48 52.81 6.44 52.72 6.66 52.46 6.87 52.18 7.11 51.94 12.06 47.17 16.96 42.35 21.97 37.66 32.56 27.74 43.19 17.87 53.85 8.02 56.07 5.97 58.48 4.13 60.8 2.19 60.89 2.12 61 2.07 61.13 1.99 59.56 19.04 58.78 36.08 58.44 53.4Z" fill="#FFF6A4"/><path d="M62.77 2.02C66.45 4.36 115.87 50.27 117.54 52.98 100.1 51.98 82.82 52.76 65.48 53.4 65.14 36.12 64.37 19.08 62.77 2.02Z" fill="#FFF6A4"/><path d="M3.3 82.02C2.65 82.02 2.11 82.02 1.34 82.02 2.04 75.96 2.73 69.96 3.42 63.96 3.52 63.97 3.62 63.97 3.72 63.98 3.58 69.96 3.44 75.94 3.3 82.02Z" fill="#FFF6A4"/></g><g><path d="M39.83 57.43C39.22 57.43 38.61 57.44 38 57.43 37.63 57.42 37.32 57.27 37.31 56.85 37.29 56.43 37.61 56.23 37.96 56.23 39.27 56.21 40.58 56.22 41.89 56.25 42.22 56.26 42.61 56.39 42.62 56.81 42.63 57.28 42.21 57.4 41.85 57.42 41.18 57.45 40.5 57.42 39.83 57.43 39.83 57.43 39.83 57.43 39.83 57.43Z" fill="#2F4042"/><path d="M82.46 57.41C81.76 57.41 81.06 57.44 80.36 57.4 80.03 57.38 79.66 57.24 79.67 56.81 79.68 56.44 80 56.3 80.31 56.27 81.68 56.12 83.05 56.16 84.42 56.25 84.74 56.27 85 56.49 84.99 56.85 84.98 57.22 84.72 57.4 84.39 57.42 83.75 57.45 83.11 57.43 82.47 57.43 82.46 57.42 82.46 57.41 82.46 57.41Z" fill="#2F4042"/><path d="M46.84 57.59C46.38 57.56 45.87 57.55 45.36 57.5 45.03 57.46 44.79 57.26 44.77 56.91 44.75 56.51 45.01 56.25 45.37 56.24 46.37 56.2 47.37 56.2 48.36 56.23 48.71 56.24 49 56.48 49 56.88 48.99 57.28 48.7 57.48 48.35 57.52 47.86 57.57 47.38 57.57 46.84 57.59Z" fill="#2F4042"/><path d="M75.43 56.22C75.91 56.22 76.4 56.19 76.88 56.23 77.24 56.26 77.52 56.47 77.52 56.87 77.52 57.27 77.24 57.5 76.89 57.51 75.92 57.54 74.96 57.55 73.99 57.52 73.6 57.51 73.28 57.27 73.3 56.83 73.32 56.44 73.63 56.25 73.98 56.22 74.46 56.19 74.94 56.21 75.43 56.22 75.43 56.21 75.43 56.22 75.43 56.22Z" fill="#2F4042"/><path d="M68.57 57.58C68.02 57.58 67.48 57.6 66.93 57.57 66.61 57.55 66.32 57.38 66.32 57.01 66.32 56.65 66.6 56.46 66.92 56.45 68.01 56.43 69.1 56.44 70.19 56.47 70.53 56.48 70.77 56.68 70.75 57.05 70.73 57.38 70.48 57.54 70.2 57.56 69.66 57.6 69.11 57.57 68.57 57.58 68.57 57.58 68.57 57.58 68.57 57.58Z" fill="#2F4042"/><path d="M53.72 57.57C53.17 57.57 52.63 57.6 52.09 57.56 51.77 57.54 51.5 57.34 51.53 56.97 51.55 56.66 51.79 56.48 52.09 56.48 53.18 56.46 54.27 56.45 55.36 56.46 55.68 56.46 55.97 56.65 55.97 57.02 55.97 57.39 55.68 57.56 55.36 57.58 54.82 57.61 54.27 57.58 53.72 57.57 53.72 57.58 53.72 57.58 53.72 57.57Z" fill="#2F4042"/><path d="M19.4 57.73C18.91 57.73 18.43 57.75 17.94 57.72 17.62 57.7 17.32 57.57 17.3 57.2 17.28 56.83 17.54 56.62 17.87 56.62 18.93 56.6 19.99 56.61 21.05 56.64 21.36 56.65 21.69 56.8 21.68 57.17 21.67 57.54 21.34 57.66 21.03 57.69 20.49 57.74 19.94 57.75 19.39 57.77 19.4 57.76 19.4 57.74 19.4 57.73Z" fill="#2F4042"/><path d="M102.8 57.71C102.23 57.72 101.64 57.81 101.08 57.65 100.83 57.58 100.61 57.44 100.61 57.16 100.61 56.88 100.81 56.71 101.07 56.67 102.22 56.48 103.37 56.54 104.52 56.63 104.82 56.65 105.02 56.87 105 57.2 104.98 57.53 104.74 57.69 104.45 57.7 103.89 57.73 103.34 57.71 102.8 57.71Z" fill="#2F4042"/><path d="M61.87 79.11C61.85 79.46 61.85 79.85 61.8 80.24 61.75 80.61 61.53 80.83 61.12 80.82 60.75 80.81 60.54 80.6 60.5 80.27 60.38 79.46 60.4 78.64 60.5 77.82 60.54 77.49 60.78 77.29 61.13 77.28 61.54 77.27 61.76 77.5 61.81 77.87 61.86 78.27 61.85 78.67 61.87 79.11Z" fill="#2F4042"/><path d="M61.13 56.55C61.59 56.55 62.05 56.53 62.5 56.56 62.86 56.59 63.17 56.76 63.17 57.17 63.17 57.54 62.88 57.72 62.57 57.75 61.6 57.85 60.62 57.88 59.65 57.73 59.33 57.68 59.08 57.48 59.11 57.1 59.14 56.78 59.38 56.61 59.66 56.58 60.14 56.52 60.63 56.52 61.12 56.5 61.13 56.51 61.13 56.53 61.13 56.55Z" fill="#2F4042"/><path d="M26.28 57.58C25.67 57.55 25.18 57.53 24.7 57.49 24.41 57.47 24.15 57.34 24.13 57.01 24.1 56.68 24.33 56.49 24.62 56.46 25.67 56.36 26.73 56.3 27.79 56.46 28.04 56.5 28.26 56.64 28.28 56.92 28.3 57.25 28.08 57.43 27.79 57.46 27.24 57.54 26.7 57.56 26.28 57.58Z" fill="#2F4042"/><path d="M96.01 57.59C95.55 57.56 95.03 57.54 94.52 57.49 94.23 57.46 94 57.29 94 56.96 94.01 56.68 94.22 56.52 94.47 56.48 95.55 56.31 96.64 56.35 97.72 56.49 97.98 56.52 98.16 56.72 98.15 57 98.14 57.28 97.94 57.45 97.68 57.47 97.15 57.52 96.61 57.55 96.01 57.59Z" fill="#2F4042"/><path d="M60.45 67.78C60.49 67.3 60.52 66.87 60.57 66.45 60.61 66.1 60.8 65.88 61.17 65.89 61.49 65.9 61.67 66.09 61.72 66.4 61.88 67.37 61.86 68.34 61.67 69.3 61.62 69.55 61.46 69.75 61.17 69.76 60.84 69.77 60.66 69.55 60.62 69.26 60.54 68.75 60.5 68.24 60.45 67.78Z" fill="#2F4042"/><path d="M33.02 56.33C33.53 56.33 34.05 56.32 34.56 56.34 34.88 56.35 35.18 56.49 35.19 56.86 35.2 57.19 34.92 57.37 34.65 57.37 33.53 57.4 32.41 57.4 31.29 57.38 31.01 57.37 30.75 57.19 30.76 56.86 30.77 56.49 31.04 56.34 31.38 56.34 31.93 56.32 32.47 56.33 33.02 56.33 33.02 56.33 33.02 56.33 33.02 56.33Z" fill="#2F4042"/><path d="M89.35 56.33C89.9 56.33 90.44 56.32 90.99 56.34 91.29 56.35 91.52 56.52 91.54 56.84 91.56 57.17 91.3 57.36 91.03 57.37 89.88 57.45 88.73 57.48 87.59 57.35 87.34 57.32 87.12 57.16 87.12 56.87 87.11 56.54 87.36 56.37 87.64 56.35 88.21 56.32 88.79 56.34 89.37 56.34 89.35 56.34 89.35 56.33 89.35 56.33Z" fill="#2F4042"/><path d="M7.48 57.59C7.03 57.59 6.57 57.62 6.12 57.58 5.79 57.55 5.53 57.37 5.55 57 5.57 56.69 5.81 56.54 6.11 56.51 6.98 56.44 7.86 56.34 8.74 56.46 9.12 56.51 9.48 56.69 9.42 57.15 9.37 57.55 9.02 57.65 8.66 57.65 8.27 57.66 7.87 57.65 7.48 57.65 7.48 57.63 7.48 57.61 7.48 57.59Z" fill="#2F4042"/><path d="M114.75 57.64C114.33 57.64 113.9 57.66 113.48 57.63 113.15 57.61 112.88 57.46 112.86 57.09 112.84 56.77 113.05 56.56 113.33 56.51 114.35 56.3 115.38 56.42 116.4 56.57 116.61 56.6 116.75 56.81 116.74 57.05 116.72 57.38 116.49 57.55 116.21 57.57 115.73 57.61 115.24 57.58 114.76 57.58 114.75 57.6 114.75 57.62 114.75 57.64Z" fill="#2F4042"/><path d="M61.72 61.78C61.72 62.24 61.74 62.69 61.71 63.15 61.69 63.52 61.53 63.83 61.11 63.82 60.75 63.81 60.57 63.53 60.56 63.2 60.55 62.26 60.56 61.31 60.58 60.37 60.59 60.05 60.78 59.86 61.1 59.85 61.47 59.84 61.66 60.05 61.68 60.41 61.69 60.87 61.68 61.32 61.68 61.78 61.71 61.78 61.71 61.78 61.72 61.78Z" fill="#2F4042"/><path d="M13.17 57.46C12.71 57.46 12.26 57.47 11.8 57.45 11.5 57.44 11.26 57.29 11.25 56.96 11.24 56.67 11.43 56.49 11.69 56.46 12.72 56.34 13.75 56.29 14.77 56.5 15.01 56.55 15.26 56.71 15.23 56.99 15.2 57.25 14.96 57.41 14.71 57.44 14.2 57.49 13.68 57.51 13.16 57.53 13.17 57.5 13.17 57.48 13.17 57.46Z" fill="#2F4042"/><path d="M109.08 57.52C108.6 57.5 108.11 57.49 107.63 57.44 107.35 57.41 107.08 57.27 107.08 56.94 107.08 56.66 107.33 56.52 107.57 56.48 108.56 56.29 109.56 56.34 110.56 56.45 110.86 56.48 111.07 56.68 111.04 57.01 111.01 57.29 110.81 57.44 110.54 57.45 110.06 57.47 109.57 57.46 109.08 57.46 109.08 57.48 109.08 57.5 109.08 57.52Z" fill="#2F4042"/><path d="M61.69 74.22C61.61 74.61 61.96 75.51 61.18 75.52 60.3 75.53 60.66 74.61 60.59 74.07 60.55 73.77 60.58 73.46 60.6 73.16 60.62 72.83 60.74 72.53 61.11 72.51 61.54 72.49 61.67 72.82 61.69 73.18 61.7 73.47 61.69 73.78 61.69 74.22Z" fill="#2F4042"/></g><g><path d="M38.32 41.57C37.88 41.27 37.47 41.03 37.1 40.73 36.86 40.53 36.7 40.24 36.9 39.92 37.07 39.63 37.4 39.62 37.63 39.73 38.6 40.17 39.56 40.63 40.5 41.13 40.69 41.23 40.88 41.51 40.88 41.72 40.93 42.82 40.83 43.91 40.58 44.98 40.51 45.28 40.28 45.45 39.97 45.41 39.65 45.36 39.51 45.12 39.5 44.82 39.48 44.39 39.52 43.97 39.5 43.54 39.49 43.31 39.66 43.01 39.39 42.88 39.14 42.76 38.95 43.02 38.75 43.15 34.7 45.91 32.02 49.64 30.8 54.4 29.58 59.17 28.92 63.99 30.14 68.87 30.61 70.76 31.18 72.64 32.28 74.29 32.41 74.48 32.61 74.73 32.38 74.95 32.1 75.21 31.87 74.94 31.68 74.76 31.1 74.2 30.76 73.48 30.45 72.75 27.97 66.88 28.11 60.88 29.43 54.78 30.61 49.33 33.41 45 38.01 41.85 38.11 41.78 38.19 41.69 38.32 41.57Z" fill="#2F4042"/></g></g></svg>