<svg width="58.02" height="145.62" viewBox="0 0 58.02 145.62" xmlns="http://www.w3.org/2000/svg" xmlns:xlink="http://www.w3.org/1999/xlink" xml:space="preserve" overflow="hidden"><defs></defs><g><g><path d="M15.17 98.27 15.16 0.49 15.17 0.49 57.52 102.74 15.16 145.12 15.17 131.47Z" fill="#BDF9F6"/></g><g><path d="M54.32 95.36C54.22 95.36 54.11 95.33 54.02 95.26L53.52 94.89C53.3 94.73 53.25 94.41 53.41 94.19 53.57 93.97 53.89 93.92 54.11 94.08L54.61 94.45C54.83 94.61 54.88 94.93 54.72 95.15 54.63 95.29 54.48 95.36 54.32 95.36ZM51.41 93.21C51.31 93.21 51.2 93.18 51.11 93.11L48.7 91.33C48.48 91.17 48.43 90.85 48.59 90.63 48.76 90.41 49.07 90.36 49.29 90.52L51.7 92.3C51.92 92.46 51.97 92.78 51.81 93 51.72 93.14 51.57 93.21 51.41 93.21ZM46.59 89.65C46.49 89.65 46.38 89.62 46.29 89.55L43.88 87.77C43.66 87.61 43.61 87.29 43.77 87.07 43.94 86.85 44.25 86.8 44.47 86.96L46.88 88.74C47.1 88.9 47.15 89.22 46.99 89.44 46.89 89.58 46.74 89.65 46.59 89.65ZM41.76 86.08C41.66 86.08 41.55 86.05 41.46 85.98L39.05 84.2C38.83 84.04 38.78 83.72 38.94 83.5 39.11 83.28 39.42 83.23 39.64 83.39L42.05 85.17C42.27 85.33 42.32 85.65 42.16 85.87 42.06 86.01 41.91 86.08 41.76 86.08ZM36.93 82.52C36.83 82.52 36.72 82.49 36.63 82.42L34.22 80.64C34 80.48 33.95 80.16 34.11 79.94 34.28 79.72 34.59 79.67 34.81 79.83L37.22 81.61C37.44 81.77 37.49 82.09 37.33 82.31 37.24 82.45 37.09 82.52 36.93 82.52ZM32.11 78.95C32.01 78.95 31.9 78.92 31.81 78.85L29.4 77.07C29.18 76.91 29.13 76.59 29.29 76.37 29.46 76.15 29.77 76.1 29.99 76.26L32.4 78.04C32.62 78.2 32.67 78.52 32.51 78.74 32.41 78.88 32.26 78.95 32.11 78.95ZM27.28 75.39C27.18 75.39 27.07 75.36 26.98 75.29L24.57 73.51C24.35 73.35 24.3 73.03 24.46 72.81 24.63 72.59 24.94 72.54 25.16 72.7L27.57 74.48C27.79 74.64 27.84 74.96 27.68 75.18 27.58 75.32 27.43 75.39 27.28 75.39ZM22.45 71.82C22.35 71.82 22.24 71.79 22.15 71.72L19.74 69.94C19.52 69.78 19.47 69.46 19.63 69.24 19.8 69.02 20.11 68.97 20.33 69.13L22.74 70.91C22.96 71.07 23.01 71.39 22.85 71.61 22.76 71.75 22.61 71.82 22.45 71.82ZM17.63 68.26C17.53 68.26 17.42 68.23 17.33 68.16L14.92 66.38C14.7 66.22 14.65 65.9 14.81 65.68 14.97 65.46 15.29 65.41 15.51 65.57L17.92 67.35C18.14 67.51 18.19 67.83 18.03 68.05 17.93 68.19 17.78 68.26 17.63 68.26Z" fill="#7A7A9A"/></g><g><g><path d="M0.75 101.8C0.34 101.8 0 101.46 0 101.05 0 93.97 5.76 88.21 12.84 88.21L29.27 88.21C29.68 88.21 30.02 88.55 30.02 88.96 30.02 89.37 29.68 89.71 29.27 89.71L12.84 89.71C6.59 89.71 1.5 94.8 1.5 101.05 1.5 101.46 1.16 101.8 0.75 101.8Z" fill="#292764"/></g><g><path d="M23.08 96.12C22.89 96.12 22.7 96.05 22.55 95.9 22.26 95.61 22.26 95.13 22.55 94.84L28.5 88.89 22.69 83.08C22.4 82.79 22.4 82.31 22.69 82.02 22.98 81.73 23.46 81.73 23.75 82.02L30.09 88.36C30.23 88.5 30.31 88.69 30.31 88.89 30.31 89.09 30.23 89.28 30.09 89.42L23.61 95.9C23.46 96.05 23.27 96.12 23.08 96.12Z" fill="#292764"/></g></g><g><path d="M15.16 145.62C15.1 145.62 15.03 145.61 14.97 145.58 14.78 145.5 14.66 145.32 14.66 145.12L14.67 98.27 14.66 0.49C14.66 0.36 14.71 0.23 14.81 0.14 15.05-0.1 15.51-0.01 15.64 0.3L58 102.55C58.08 102.74 58.03 102.95 57.89 103.09L15.52 145.48C15.41 145.57 15.29 145.62 15.16 145.62ZM15.66 2.97 15.67 98.27 15.67 98.27 15.66 143.91 56.94 102.62 15.66 2.97Z" fill="#292764"/></g></g></svg>