<svg width="86.71" height="72.42" viewBox="0 0 86.71 72.42" xmlns="http://www.w3.org/2000/svg" xmlns:xlink="http://www.w3.org/1999/xlink" xml:space="preserve" overflow="hidden"><defs></defs><g><g><path d="M70.86 6.04 86.2 43.29 64.4 21.55Z" fill="#EFC3F4"/></g><g><path d="M43.29 0.5 64.39 21.55 64.4 21.55 86.2 43.29 86.21 43.3 86.22 43.31 86.21 43.32 86.13 43.37 52.12 66.14 51.4 66.62 43.41 71.92 43.4 71.9 43.35 71.93 43.35 71.92 43.32 71.93 0.53 43.28 22.3 21.49Z" fill="#EFC3F4"/></g><g><path d="M22.3 21.48 22.3 21.49 0.53 43.28 0.51 43.27 0.5 43.27 15.85 6Z" fill="#EFC3F4"/></g><g><path d="M7.19 47.62C6.91 47.62 6.69 47.4 6.69 47.12L6.69 46.72C6.69 46.44 6.91 46.22 7.19 46.22 7.47 46.22 7.69 46.44 7.69 46.72L7.69 47.12C7.69 47.4 7.47 47.62 7.19 47.62ZM7.19 42.22C6.91 42.22 6.69 42 6.69 41.72L6.69 36.72C6.69 36.44 6.91 36.22 7.19 36.22 7.47 36.22 7.69 36.44 7.69 36.72L7.69 41.72C7.69 42 7.47 42.22 7.19 42.22ZM7.19 32.22C6.91 32.22 6.69 32 6.69 31.72L6.69 26.72C6.69 26.44 6.91 26.22 7.19 26.22 7.47 26.22 7.69 26.44 7.69 26.72L7.69 31.72C7.69 32 7.47 32.22 7.19 32.22Z" fill="#7A7A9A"/></g><g><path d="M79.55 47.65C79.27 47.65 79.05 47.43 79.05 47.15L79.05 46.7C79.05 46.42 79.27 46.2 79.55 46.2 79.83 46.2 80.05 46.42 80.05 46.7L80.05 47.15C80.05 47.42 79.83 47.65 79.55 47.65ZM79.55 42.2C79.27 42.2 79.05 41.98 79.05 41.7L79.05 36.7C79.05 36.42 79.27 36.2 79.55 36.2 79.83 36.2 80.05 36.42 80.05 36.7L80.05 41.7C80.05 41.97 79.83 42.2 79.55 42.2ZM79.55 32.2C79.27 32.2 79.05 31.98 79.05 31.7L79.05 26.7C79.05 26.42 79.27 26.2 79.55 26.2 79.83 26.2 80.05 26.42 80.05 26.7L80.05 31.7C80.05 31.97 79.83 32.2 79.55 32.2Z" fill="#7A7A9A"/></g><g><path d="M86.2 43.79C86.07 43.79 85.94 43.74 85.85 43.64L64.05 21.9C63.91 21.76 63.86 21.54 63.94 21.35L70.4 5.85C70.48 5.66 70.66 5.54 70.86 5.54L70.86 5.54C71.06 5.54 71.24 5.66 71.32 5.85L86.66 43.1C86.75 43.32 86.67 43.57 86.48 43.71 86.39 43.76 86.3 43.79 86.2 43.79ZM64.99 21.43 84.79 41.17 70.86 7.35 64.99 21.43Z" fill="#292764"/></g><g><path d="M43.32 72.42C43.22 72.42 43.12 72.4 43.04 72.34L0.25 43.69C0.13 43.61 0.05 43.47 0.03 43.32 0.02 43.17 0.07 43.02 0.17 42.92L42.93 0.15C43.13-0.05 43.44-0.05 43.64 0.15L64.69 21.15C64.71 21.17 64.73 21.18 64.75 21.2L86.55 42.94C86.64 43.03 86.71 43.17 86.71 43.3 86.71 43.43 86.67 43.57 86.57 43.66 86.54 43.69 86.51 43.72 86.47 43.74L51.67 67.04 43.68 72.34C43.59 72.4 43.49 72.42 43.38 72.42 43.37 72.42 43.34 72.42 43.32 72.42ZM1.31 43.2 43.36 71.35 51.84 65.72 85.43 43.23 64.1 21.96C64.08 21.94 64.06 21.93 64.04 21.91L43.29 1.21 1.31 43.2Z" fill="#292764"/></g><g><path d="M0.53 43.78C0.46 43.78 0.38 43.76 0.31 43.73 0.22 43.69 0.14 43.63 0.09 43.55 0 43.41-0.03 43.23 0.04 43.08L15.39 5.81C15.47 5.62 15.65 5.5 15.85 5.5 15.85 5.5 15.85 5.5 15.85 5.5 16.05 5.5 16.23 5.62 16.31 5.81L22.76 21.29C22.79 21.35 22.8 21.42 22.8 21.48L22.8 21.49C22.8 21.62 22.75 21.75 22.65 21.84L0.88 43.63C0.79 43.73 0.66 43.78 0.53 43.78ZM15.85 7.31 1.89 41.21 21.71 21.37 15.85 7.31Z" fill="#292764"/></g><g><path d="M43.29 25.14C43.01 25.14 42.79 24.92 42.79 24.64L42.79 0.5C42.79 0.22 43.01 0 43.29 0 43.57 0 43.79 0.22 43.79 0.5L43.79 24.64C43.79 24.92 43.56 25.14 43.29 25.14Z" fill="#292764"/></g></g></svg>