<svg width="77.98" height="166.39" viewBox="0 0 77.98 166.39" xmlns="http://www.w3.org/2000/svg" xmlns:xlink="http://www.w3.org/1999/xlink" xml:space="preserve" overflow="hidden"><defs></defs><g><g><g><path d="M69.08 111.18C68.98 112.22 68.98 113.26 69.09 114.3 69.18 115.12 69.25 115.96 69.51 116.76 69.62 117.09 69.82 117.5 70.19 117.59 70.59 117.69 70.76 117.37 70.8 117.05 70.86 116.59 70.57 115.81 71.23 115.61 71.89 115.41 72.14 119.07 72.59 119.34 72.93 119.55 73.41 118.44 73.4 117.83 73.4 117.22 73.56 116.01 73.56 116.01 73.56 116.01 73.71 119.71 74.16 119.6 75.26 119.34 75.11 115.9 75.11 115.9 75.11 115.9 75.13 118.9 75.59 118.91 76.54 118.94 76.47 115.43 76.47 115.43 76.47 115.43 76.37 118.39 76.89 118.41 78.27 118.46 78.13 114.61 77.6 113.33 76.88 111.58 74.47 108.87 72.61 107.92" fill="#FFD5B8"/></g><g><g><path d="M73.12 112.89C73.35 113.2 73.58 113.49 73.88 113.74 74.19 113.99 74.52 114.19 74.89 114.35 75.07 114.43 75.25 114.49 75.44 114.54 75.6 114.59 75.8 114.62 75.91 114.76 76.02 114.89 76.03 115.08 76.06 115.24 76.09 115.44 76.16 115.58 76.32 115.7 76.41 115.77 76.54 115.68 76.54 115.58 76.51 115.24 76.5 114.82 76.29 114.54 76.05 114.21 75.63 114.16 75.27 114.03 74.91 113.9 74.56 113.72 74.25 113.51 73.92 113.29 73.59 113.04 73.32 112.74 73.22 112.63 73.03 112.77 73.12 112.89L73.12 112.89Z" fill="#F9B995"/></g></g><g><g><path d="M71.51 113.94C71.52 114.09 71.51 114.23 71.46 114.37 71.44 114.45 71.42 114.48 71.38 114.56 71.36 114.59 71.35 114.62 71.33 114.65 71.32 114.67 71.31 114.68 71.3 114.7 71.3 114.7 71.26 114.76 71.29 114.72 71.28 114.73 71.27 114.75 71.26 114.76 71.24 114.78 71.23 114.8 71.22 114.82 71.21 114.84 71.2 114.84 71.21 114.83 71.23 114.81 71.19 114.85 71.19 114.85 71.18 114.87 71.16 114.88 71.15 114.9 71.12 114.93 71.1 114.95 71.07 114.98 71.05 114.99 71.04 115.01 71.02 115.02 71 115.03 70.99 115.05 71.01 115.03 70.98 115.06 70.94 115.08 70.91 115.1 70.88 115.12 70.86 115.14 70.84 115.15 70.83 115.16 70.81 115.18 70.83 115.16 70.76 115.21 70.68 115.25 70.62 115.32 70.54 115.41 70.57 115.56 70.69 115.59 70.87 115.65 71.11 115.55 71.26 115.44 71.42 115.32 71.57 115.17 71.66 114.99 71.83 114.65 71.89 114.27 71.78 113.9 71.73 113.76 71.49 113.78 71.51 113.94L71.51 113.94Z" fill="#F9B995"/></g></g></g><g><g><path d="M8.9 111.18C9 112.22 9 113.26 8.89 114.3 8.8 115.12 8.73 115.96 8.47 116.76 8.36 117.09 8.16 117.5 7.79 117.59 7.39 117.69 7.22 117.37 7.18 117.05 7.12 116.59 7.41 115.81 6.75 115.61 6.09 115.41 5.84 119.07 5.39 119.34 5.05 119.55 4.57 118.44 4.58 117.83 4.58 117.22 4.42 116.01 4.42 116.01 4.42 116.01 4.27 119.71 3.82 119.6 2.72 119.34 2.87 115.9 2.87 115.9 2.87 115.9 2.85 118.9 2.39 118.91 1.44 118.94 1.51 115.43 1.51 115.43 1.51 115.43 1.61 118.39 1.09 118.41-0.29 118.46-0.15 114.61 0.38 113.33 1.1 111.58 3.51 108.87 5.37 107.92" fill="#FFD5B8"/></g><g><g><path d="M4.66 112.74C4.4 113.03 4.08 113.28 3.76 113.5 3.43 113.71 3.08 113.9 2.71 114.03 2.36 114.15 1.94 114.2 1.7 114.52 1.48 114.81 1.47 115.24 1.44 115.58 1.43 115.68 1.57 115.77 1.66 115.7 1.82 115.58 1.89 115.44 1.92 115.24 1.95 115.09 1.96 114.9 2.05 114.77 2.16 114.62 2.37 114.58 2.54 114.54 2.73 114.49 2.91 114.42 3.09 114.35 3.45 114.2 3.78 114 4.08 113.76 4.39 113.51 4.63 113.22 4.86 112.9 4.95 112.77 4.76 112.63 4.66 112.74L4.66 112.74Z" fill="#F9B995"/></g></g><g><g><path d="M6.21 113.9C6.1 114.26 6.16 114.65 6.33 114.99 6.42 115.16 6.56 115.3 6.71 115.42 6.86 115.54 7.11 115.65 7.3 115.59 7.42 115.55 7.45 115.41 7.37 115.32 7.31 115.25 7.24 115.22 7.16 115.17 7.14 115.15 7.18 115.19 7.15 115.16 7.12 115.14 7.1 115.12 7.07 115.1 7.04 115.08 7.01 115.06 6.98 115.03 6.96 115.01 7.01 115.05 6.97 115.02 6.95 115.01 6.94 114.99 6.92 114.98 6.89 114.95 6.86 114.92 6.83 114.89 6.81 114.86 6.78 114.84 6.76 114.81 6.79 114.85 6.73 114.77 6.72 114.76 6.71 114.74 6.69 114.73 6.68 114.71 6.7 114.74 6.68 114.71 6.67 114.7 6.66 114.68 6.65 114.67 6.63 114.65 6.61 114.62 6.59 114.59 6.57 114.55 6.53 114.48 6.52 114.44 6.49 114.37 6.44 114.22 6.43 114.08 6.44 113.93 6.49 113.79 6.25 113.76 6.21 113.9L6.21 113.9Z" fill="#F9B995"/></g></g></g><path d="M68.68 110.64C68.77 111.34 68.7 111.58 69.01 112.19 70.42 112.66 73.58 111.86 74.63 111.37 74.87 111.26 75.76 110.73 75.83 110.48 75.72 109.8 74.99 108.67 74.53 108.08" fill="#CE4C32"/><g><g><g><path d="M55.29 157.98C55.52 158.86 55.27 159.43 56.63 160.09 57.47 160.5 59.15 160.71 60.06 160.95 60.97 161.19 61.89 161.54 62.5 162.22 63.08 162.86 63.34 163.72 63.49 164.57 63.51 164.68 63.53 164.81 63.46 164.91 63.38 165.03 63.23 165.06 63.09 165.08 61.23 165.38 59.33 165.39 57.45 165.4 56.45 165.41 55.44 165.41 54.46 165.24 53.07 165 51.78 165.35 50.52 164.77 50.45 164.74 50.38 164.7 50.34 164.65 50.28 164.57 50.28 164.47 50.28 164.37 50.32 162.38 50.41 157.57 50.07 156.74" fill="#FFDBBB"/></g><g><path d="M49.77 164.5C49.78 163.72 49.94 162.5 49.85 161.46 49.77 160.61 49.94 160.18 50.02 160.07 50.22 159.8 50.36 160.14 50.54 160.22 51.09 160.48 51.74 160.47 52.35 160.42 52.99 160.38 54.73 160.28 55.23 159.82 55.72 159.37 55.3 158.66 55.78 158.67 56.26 158.67 56.02 159.42 57.48 160.02 58.42 160.41 59.44 160.59 60.43 160.85 61.42 161.11 62.42 161.5 63.09 162.24 63.73 162.94 59.64 165.7 57.59 165.71 56.5 165.72 55.4 165.72 54.33 165.54 52.82 165.27 51.41 165.58 50.03 164.94 49.96 164.91 49.88 164.87 49.83 164.8 49.77 164.72 49.77 164.61 49.77 164.5Z" fill="#CE7165"/></g><path d="M49.78 164.72C49.77 164.65 49.76 164.58 49.76 164.5 49.78 163.49 49.75 162.46 49.84 161.46 50.53 161.69 51.15 162.05 51.57 162.66 52 163.29 52.3 163.95 52.41 164.95 54.3 165.6 56.57 165.4 58.2 165.27 59.08 164.96 59.75 162.31 59.65 160.66 61.36 160.84 62.62 161.11 63.47 161.81 64.36 162.54 64.66 163.75 64.18 164.8 61.65 166.46 55.09 166.81 51.05 165.87 50.51 165.75 49.89 165.33 49.78 164.72Z" fill="#7C3432"/><path d="M62.01 118.77C63.14 132.02 60.74 150.57 58.32 157.25 57.39 157.79 51.81 159.07 48.33 157.03 47.57 151.72 47.02 140.97 41.55 130.95 37.48 123.5 32.49 117.54 32.49 117.54 32.49 117.54 26.01 118.06 38.82 114.73 51.63 111.41 51.63 111.41 51.63 111.41" fill="#354A6D"/><g><path d="M36.04 124.96C36.78 127.44 38.44 129.54 40.26 131.37 42.1 133.21 44.29 134.91 46.87 135.22 47.75 135.33 48.67 135.26 49.46 134.87 50.84 134.18 51.58 132.6 51.78 131.07 52.14 128.37 51.17 125.66 49.84 123.29 49.07 121.91 48.16 120.59 46.98 119.55 45.8 118.51 44.31 117.76 42.74 117.66" fill="#354A6D"/></g><g><g><path d="M56.29 159.07C56.22 159.12 56.17 159.18 56.15 159.28 56.14 159.34 56.14 159.41 56.13 159.47 56.14 159.42 56.16 159.37 56.17 159.32 56.14 159.39 56.12 159.45 56.12 159.53 56.12 159.56 56.12 159.59 56.12 159.62 56.12 159.69 56.12 159.77 56.11 159.84 56.11 159.87 56.11 159.91 56.1 159.94 56.12 159.85 56.1 159.94 56.1 159.96 56.09 160.02 56.07 160.08 56.06 160.14 56.05 160.2 56.03 160.25 56.02 160.3 56.01 160.32 55.99 160.36 55.99 160.39 56.01 160.33 56.02 160.32 56.01 160.35 56 160.36 56 160.37 55.99 160.38 55.96 160.43 55.93 160.48 55.89 160.53 55.81 160.65 55.78 160.79 55.82 160.93 55.87 161.11 56.02 161.19 56.19 161.21 56.38 161.23 56.54 161.08 56.64 160.94 56.7 160.85 56.74 160.75 56.78 160.66 56.85 160.49 56.89 160.3 56.88 160.12 56.87 159.92 56.84 159.71 56.78 159.51 56.76 159.45 56.75 159.38 56.72 159.33 56.7 159.31 56.69 159.29 56.67 159.27 56.69 159.29 56.69 159.29 56.68 159.27 56.68 159.25 56.66 159.23 56.65 159.22 56.59 159.1 56.42 158.97 56.29 159.07L56.29 159.07Z" fill="#7C3432"/></g></g><g><g><path d="M57.16 159.8C57.1 160.04 57.16 160.3 57.16 160.55 57.16 160.58 57.16 160.61 57.16 160.63 57.16 160.65 57.16 160.66 57.16 160.68 57.16 160.72 57.16 160.71 57.16 160.66 57.17 160.68 57.15 160.73 57.14 160.75 57.13 160.78 57.13 160.81 57.12 160.84 57.09 160.98 57 161.13 57.01 161.28 57.02 161.4 57.07 161.5 57.18 161.57 57.28 161.63 57.42 161.64 57.52 161.57 57.7 161.45 57.76 161.24 57.81 161.04 57.84 160.88 57.86 160.71 57.85 160.54 57.84 160.45 57.83 160.36 57.82 160.27 57.8 160.18 57.76 160.1 57.73 160.01 57.7 159.93 57.65 159.87 57.59 159.81 57.53 159.74 57.47 159.7 57.38 159.67 57.28 159.66 57.19 159.72 57.16 159.8L57.16 159.8Z" fill="#7C3432"/></g></g><g><g><path d="M58.22 160.2C58.22 160.25 58.22 160.29 58.23 160.34 58.24 160.41 58.23 160.28 58.23 160.34 58.23 160.35 58.23 160.36 58.23 160.38 58.24 160.43 58.25 160.49 58.26 160.54 58.27 160.57 58.26 160.61 58.26 160.53 58.26 160.55 58.26 160.56 58.26 160.58 58.27 160.72 58.26 160.86 58.24 161 58.24 160.96 58.25 160.93 58.25 160.89 58.23 160.99 58.21 161.09 58.17 161.19 58.18 161.16 58.2 161.12 58.21 161.09 58.18 161.15 58.16 161.22 58.13 161.28 58.14 161.25 58.16 161.21 58.17 161.18 58.13 161.26 58.08 161.34 58.07 161.43 58.05 161.55 58.06 161.66 58.14 161.76 58.21 161.85 58.32 161.91 58.44 161.91 58.92 161.91 59.06 161.26 59.04 160.89 59.03 160.7 58.97 160.52 58.88 160.36 58.79 160.2 58.67 160.07 58.49 160.01 58.35 159.96 58.21 160.07 58.22 160.2L58.22 160.2Z" fill="#7C3432"/></g></g></g><g><g><path d="M22.78 157.98C22.55 158.86 22.8 159.43 21.44 160.09 20.6 160.5 18.92 160.71 18.01 160.95 17.1 161.19 16.18 161.54 15.57 162.22 14.99 162.86 14.73 163.72 14.58 164.57 14.56 164.68 14.54 164.81 14.61 164.91 14.69 165.03 14.84 165.06 14.98 165.08 16.84 165.38 18.74 165.39 20.62 165.4 21.62 165.41 22.63 165.41 23.61 165.24 25 165 26.29 165.35 27.55 164.77 27.62 164.74 27.69 164.7 27.73 164.65 27.79 164.57 27.79 164.47 27.79 164.37 27.75 162.38 27.66 157.57 28 156.74" fill="#FFDBBB"/></g><g><path d="M28.3 164.5C28.29 163.72 28.13 162.5 28.22 161.46 28.3 160.61 28.13 160.18 28.05 160.07 27.85 159.8 27.71 160.14 27.53 160.22 26.98 160.48 26.33 160.47 25.72 160.42 25.08 160.38 23.34 160.28 22.84 159.82 22.35 159.37 22.77 158.66 22.29 158.67 21.81 158.67 22.05 159.42 20.59 160.02 19.65 160.41 18.63 160.59 17.64 160.85 16.65 161.11 15.65 161.5 14.98 162.24 14.34 162.94 18.43 165.7 20.48 165.71 21.57 165.72 22.67 165.72 23.74 165.54 25.25 165.27 26.66 165.58 28.04 164.94 28.11 164.91 28.19 164.87 28.24 164.8 28.3 164.72 28.3 164.61 28.3 164.5Z" fill="#CE7165"/></g><path d="M27.03 165.88C22.99 166.82 16.43 166.47 13.9 164.81 13.41 163.76 13.72 162.55 14.61 161.82 15.46 161.11 16.72 160.85 18.43 160.67 18.33 162.32 19 164.97 19.88 165.28 21.51 165.41 23.78 165.61 25.67 164.96 25.78 163.96 26.08 163.3 26.51 162.67 26.93 162.06 27.55 161.7 28.24 161.47 28.33 162.47 28.3 163.5 28.32 164.51 28.32 164.59 28.32 164.66 28.3 164.73 28.18 165.33 27.56 165.75 27.03 165.88Z" fill="#7C3432"/><path d="M16.06 118.77C14.93 132.02 17.33 150.57 19.75 157.25 20.68 157.79 26.26 159.07 29.74 157.03 30.5 151.72 31.05 140.97 36.52 130.95 40.59 123.5 45.58 117.54 45.58 117.54 45.58 117.54 52.06 118.06 39.25 114.73 26.44 111.41 26.44 111.41 26.44 111.41" fill="#354A6D"/><g><path d="M42.04 124.96C41.3 127.44 39.64 129.54 37.82 131.37 35.98 133.21 33.79 134.91 31.21 135.22 30.33 135.33 29.41 135.26 28.62 134.87 27.24 134.18 26.5 132.6 26.3 131.07 25.94 128.37 26.91 125.66 28.24 123.29 29.01 121.91 29.92 120.59 31.1 119.55 32.28 118.51 33.77 117.76 35.34 117.66" fill="#354A6D"/></g><g><g><path d="M21.62 159.04C21.56 159.05 21.5 159.1 21.46 159.15 21.44 159.18 21.4 159.23 21.39 159.27 21.38 159.29 21.38 159.29 21.39 159.28 21.42 159.25 21.4 159.27 21.35 159.34 21.33 159.37 21.32 159.41 21.31 159.45 21.3 159.49 21.29 159.53 21.28 159.57 21.23 159.76 21.2 159.97 21.19 160.17 21.19 160.34 21.23 160.53 21.29 160.68 21.33 160.77 21.37 160.87 21.42 160.95 21.51 161.1 21.68 161.25 21.87 161.22 22.04 161.2 22.19 161.11 22.24 160.94 22.28 160.8 22.25 160.66 22.17 160.54 22.14 160.49 22.1 160.44 22.07 160.39 22.07 160.38 22.06 160.37 22.06 160.37 22.04 160.33 22.04 160.34 22.07 160.4 22.07 160.38 22.05 160.35 22.04 160.33 22.02 160.27 22.01 160.21 21.99 160.15 21.98 160.09 21.96 160.04 21.95 159.98 21.95 159.96 21.94 159.95 21.94 159.93 21.93 159.89 21.93 159.89 21.94 159.94 21.93 159.92 21.93 159.87 21.93 159.84 21.92 159.77 21.92 159.69 21.92 159.62 21.92 159.59 21.92 159.56 21.92 159.53 21.92 159.45 21.9 159.39 21.87 159.32 21.88 159.37 21.9 159.42 21.91 159.47 21.9 159.38 21.91 159.27 21.86 159.18 21.83 159.08 21.74 159.02 21.62 159.04L21.62 159.04Z" fill="#7C3432"/></g></g><g><g><path d="M20.7 159.69C20.62 159.72 20.56 159.76 20.5 159.83 20.44 159.89 20.39 159.95 20.36 160.03 20.32 160.11 20.28 160.2 20.26 160.28 20.24 160.37 20.23 160.47 20.22 160.56 20.21 160.72 20.22 160.89 20.25 161.05 20.29 161.25 20.36 161.47 20.54 161.59 20.64 161.66 20.78 161.65 20.88 161.59 20.99 161.52 21.03 161.42 21.05 161.3 21.07 161.16 20.97 161 20.94 160.86 20.93 160.83 20.93 160.8 20.92 160.77 20.92 160.75 20.9 160.7 20.9 160.68 20.91 160.73 20.91 160.74 20.9 160.7 20.9 160.68 20.9 160.67 20.9 160.65 20.9 160.62 20.9 160.59 20.9 160.57 20.89 160.32 20.96 160.06 20.9 159.82 20.88 159.72 20.79 159.66 20.7 159.69L20.7 159.69Z" fill="#7C3432"/></g></g><g><g><path d="M19.59 160C19.41 160.06 19.29 160.19 19.2 160.35 19.11 160.52 19.05 160.7 19.04 160.89 19.02 161.26 19.16 161.92 19.64 161.91 19.76 161.91 19.86 161.85 19.94 161.76 20.02 161.66 20.03 161.55 20.01 161.43 19.99 161.34 19.94 161.26 19.91 161.18 19.92 161.21 19.94 161.25 19.95 161.28 19.92 161.21 19.9 161.15 19.87 161.09 19.88 161.12 19.9 161.16 19.91 161.19 19.87 161.09 19.84 160.99 19.83 160.89 19.83 160.92 19.84 160.96 19.84 160.99 19.82 160.85 19.81 160.71 19.82 160.58 19.82 160.57 19.82 160.55 19.82 160.54 19.82 160.63 19.82 160.57 19.82 160.55 19.83 160.5 19.84 160.45 19.85 160.4 19.85 160.38 19.85 160.37 19.85 160.35 19.85 160.33 19.85 160.33 19.85 160.35 19.85 160.37 19.85 160.37 19.85 160.36 19.87 160.35 19.86 160.24 19.86 160.21 19.86 160.07 19.72 159.96 19.59 160L19.59 160Z" fill="#7C3432"/></g></g></g></g><path d="M35.25 60.53C35.76 64.97 34.35 66.72 30.21 67.59 30.21 67.59 29.95 73.71 37.92 74.65 41.2 75.04 46.3 71.47 47.26 68.45 43.77 67.82 42.3 63.82 43.4 60.91" fill="#FFD5B8"/><path d="M9.39 110.64C9.3 111.34 9.37 111.58 9.06 112.19 7.65 112.66 4.49 111.86 3.44 111.37 3.2 111.26 2.31 110.73 2.24 110.48 2.35 109.8 3.08 108.67 3.54 108.08" fill="#CE4C32"/><g><path d="M61.48 111.75C62.85 115.52 62.91 116.38 63.58 118.52 62.14 124.29 51.31 127.44 39.03 127.44 26.75 127.44 15.92 124.3 14.48 118.52 15.15 116.38 15.21 115.52 16.58 111.75" fill="#CE4C32"/></g><path d="M49.74 84.34C49.49 87.6 51.13 90.74 53.21 93.32 55.29 95.9 57.85 95.34 59.9 97.94 62.11 100.74 65.47 106.8 68.53 110.8 70.58 111.76 74.43 110.88 75.62 109.08 76.07 103.41 70.75 79.37 59.33 71.94 52.86 67.73 46.52 66.62 44.18 65.26 43.75 65.01 43.27 64.87 42.85 65.15 42.15 65.62 40.35 66.22 39.04 66.22 37.73 66.22 35.93 65.61 35.23 65.15 34.81 64.87 34.33 65.01 33.9 65.26 31.19 66.86 25.95 68 19.48 72.21 8.06 79.63 2.01 103.42 2.46 109.08 3.65 110.88 7.5 111.76 9.55 110.8 12.6 106.8 15.97 100.74 18.18 97.94 20.23 95.34 22.78 95.89 24.87 93.32 26.95 90.74 28.59 87.6 28.34 84.34" fill="#FF815F"/><g><path d="M43.01 65.48C42.93 66.14 43 67.11 43.58 67.54 43.69 67.62 43.87 67.51 43.86 67.38 43.83 67.08 43.67 66.84 43.57 66.56 43.45 66.22 43.39 65.85 43.36 65.49 43.35 65.25 43.04 65.26 43.01 65.48L43.01 65.48Z" fill="#F45E3B"/></g><g><path d="M40.25 66.29C40.07 66.84 39.98 67.74 40.25 68.26 40.32 68.4 40.54 68.4 40.61 68.26 40.87 67.74 40.79 66.83 40.61 66.29 40.55 66.12 40.31 66.12 40.25 66.29L40.25 66.29Z" fill="#F45E3B"/></g><g><path d="M37.65 66.11C37.41 66.8 37 67.55 36.92 68.27 36.9 68.47 37.18 68.57 37.31 68.43 37.83 67.85 37.97 66.91 38.03 66.16 38.05 65.93 37.72 65.91 37.65 66.11L37.65 66.11Z" fill="#F45E3B"/></g><g><path d="M35.69 65.41C35.41 65.82 35.12 66.22 34.79 66.6 34.5 66.94 34.17 67.23 33.96 67.64 33.89 67.79 34.01 68.01 34.2 67.95 35.11 67.61 35.74 66.51 36.11 65.66 36.23 65.37 35.87 65.14 35.69 65.41L35.69 65.41Z" fill="#F45E3B"/></g><path d="M67.52 37.99C66.51 32.32 64.18 27.08 62.15 21.76 60.96 18.66 59.61 15.21 56.82 13.91L55.54 13.81C53.23 12.21 50.51 11.35 47.84 11.74L39.04 12.46 30.24 11.74C27.57 11.35 24.85 12.21 22.54 13.81L21.26 13.91C18.48 15.21 17.12 18.66 15.93 21.76 13.89 27.07 11.56 32.32 10.56 37.99 9.55 43.66 10.04 49.98 13.21 54.56 16.49 59.3 23.17 62.09 28.46 63.07 35.35 64.34 43.14 64.44 50.02 62.99 55.38 61.86 61.44 59.51 64.87 54.56 68.04 49.98 68.53 43.66 67.52 37.99Z" fill="#FFD5B8"/><g><path d="M12.7 44.73C12.02 43.2 9.97 42.61 8.41 43.22 6.85 43.83 5.79 45.36 5.34 46.97 5.19 47.48 5.09 48 5.1 48.53 5.14 50.65 6.87 52.41 8.81 53.26 9.89 53.73 11.09 54 12.24 53.77 13.39 53.54 14.48 52.76 14.84 51.64" fill="#FFD5B8"/></g><g><path d="M65.72 44.73C66.4 43.2 68.45 42.61 70.01 43.22 71.57 43.83 72.63 45.36 73.08 46.97 73.22 47.48 73.32 48 73.31 48.53 73.27 50.65 71.54 52.41 69.6 53.26 68.52 53.73 67.32 54 66.17 53.77 65.02 53.54 63.93 52.76 63.57 51.64" fill="#FFD5B8"/></g><path d="M16.47 96.16C15.69 97.61 9.89 107.54 9.7 107.91 8.26 110.69 6.1 110.78 5.03 110.78 6.56 111.28 8.36 111.35 9.55 110.79 12.6 106.79 15.97 100.73 18.18 97.93L18.94 94.03C18.94 94.03 19.96 88.06 20.94 83.82 19.03 86.84 18.27 92.84 16.47 96.16Z" fill="#F45E3B"/><path d="M61.6 96.16C62.38 97.61 68.18 107.54 68.37 107.91 69.81 110.69 71.97 110.78 73.04 110.78 71.51 111.28 69.71 111.35 68.52 110.79 65.47 106.79 62.1 100.73 59.89 97.93L59.13 94.03C59.13 94.03 58.11 88.06 57.13 83.82 59.04 86.84 59.8 92.84 61.6 96.16Z" fill="#F45E3B"/><g><path d="M56.91 72.92C56.59 80.05 60.31 99.88 61 102.77 61.79 107.61 64.29 110.64 63.72 113.83 62.62 119.95 54.18 124.19 39.04 124.19 23.9 124.19 15.46 119.94 14.36 113.83 13.79 110.65 16.29 107.61 17.08 102.77 17.77 99.87 21.49 80.04 21.17 72.92" fill="#FF815F"/></g><g><path d="M3.56 26.26C5.11 14.64 14.73 5.37 25.63 2.04 26.27 1.84 26.92 1.67 27.57 1.5 31.67 0.46 35.91-0.03 40.14-0.01 45.62 0.02 51.48 0.57 56.35 3.3 58.04 4.25 59.59 5.71 60.16 7.52 62.97 7.66 66.6 9.42 70.46 14.26 72.98 17.43 74.5 22.25 75.3 26.25 76.34 31.47 76.18 37.44 74.81 42.64 74.4 44.21 73.73 45.75 72.63 46.94 72.14 47.47 71.43 47.96 70.74 47.73 70.24 47.56 69.93 47.07 69.76 46.57 69.04 50.13 67.41 53.51 65.02 56.26 61.82 59.95 57.29 62.5 52.44 63.33 51.81 63.44 51.13 63.51 50.56 63.23 49.99 62.95 49.63 62.17 50 61.65 44.55 64.4 37.7 64.2 32.42 61.14 32.1 62.45 30.51 63 29.15 63.06 26.34 63.18 23.51 62.09 21.52 60.13 21.25 61.03 19.89 60.8 19.09 60.3 14.11 57.2 11.05 51.72 9.15 46.34 9.13 46.41 9.11 46.48 9.09 46.55 8.92 47.06 8.61 47.58 8.1 47.75 7.41 47.98 6.7 47.49 6.21 46.96 5.11 45.77 4.45 44.23 4.04 42.66 2.68 37.45 2.86 31.54 3.56 26.26Z" fill="#7C3432"/></g><g><path d="M4.81 38.07C4.85 39.92 5.15 42.1 6.79 42.96 7.83 39.09 8.87 35.23 9.91 31.36 10.17 37.31 10.46 43.39 12.67 48.92 12.06 43.42 12.22 37.84 13.14 32.38 13.62 35.59 14.1 38.8 14.58 42.01 15.29 46.73 16.22 51.88 19.86 54.98 20.23 55.29 20.74 55.6 21.17 55.36 21.51 55.18 21.61 54.74 21.66 54.36 22.12 50.48 21.93 42.9 22.92 42.94 23.9 42.97 26.57 55.57 28.64 55.06 30.72 54.55 30.42 50.51 30.71 48.05 31.28 43.12 32.57 38.27 34.54 33.72 37.33 37.84 38.06 43.02 40.54 47.34 42.01 49.89 44.07 52.1 46.53 53.72 47.46 54.34 48.56 54.89 49.66 54.67 51.23 54.35 52.03 52.64 52.6 51.15 53.4 49.07 54.19 46.99 54.99 44.91 55.87 47.94 54.91 54.14 57.62 54 60.32 53.87 63.28 46.87 64.59 42.52 65.9 38.18 66.38 33.63 66.85 29.12 68.81 32.21 70.12 35.72 70.67 39.34 72.67 37.71 73.08 34.81 72.89 32.24 72.7 29.67 72.07 27.06 72.59 24.54 73.81 25.87 74.85 27.35 75.71 28.92 76.25 33.45 75.96 38.32 74.81 42.66 74.4 44.23 73.73 45.77 72.63 46.96 72.14 47.49 71.43 47.98 70.74 47.75 70.24 47.58 69.93 47.09 69.76 46.59 69.04 50.15 67.41 53.53 65.02 56.28 61.82 59.97 57.29 62.52 52.44 63.35 51.81 63.46 51.13 63.53 50.56 63.25 49.99 62.97 49.63 62.19 50 61.67 44.55 64.42 37.7 64.22 32.42 61.16 32.1 62.47 30.51 63.02 29.15 63.08 26.34 63.2 23.51 62.11 21.52 60.15 21.25 61.05 19.89 60.82 19.09 60.32 14.11 57.22 11.05 51.74 9.15 46.36 9.13 46.43 9.11 46.5 9.09 46.57 8.92 47.08 8.61 47.6 8.1 47.77 7.41 48 6.7 47.51 6.21 46.98 5.11 45.79 4.45 44.25 4.04 42.68 2.67 37.48 2.84 31.57 3.55 26.29 3.98 23.07 4.94 20.36 6.24 18.06 6.25 18 6.27 17.95 6.28 17.89 6.3 17.86 6.33 17.83 6.35 17.8 5.17 24.47 4.65 31.28 4.81 38.07Z" fill="#632A2A"/></g><g><g><path d="M60.55 10.28C62.62 10.76 64.05 12.89 65.12 14.57 65.68 15.45 66.17 16.37 66.6 17.33 67.07 18.38 67.38 19.48 67.81 20.54 67.89 20.73 68.14 20.66 68.11 20.46 67.95 19.34 67.49 18.21 67.04 17.18 66.56 16.09 65.97 15.04 65.31 14.05 64.19 12.37 62.76 10.37 60.65 9.96 60.43 9.92 60.34 10.23 60.55 10.28L60.55 10.28Z" fill="#632A2A"/></g></g><g><g><path d="M58.36 12.59C59.66 16.79 60.39 21.14 60.46 25.54 60.49 27.69 60.37 29.85 60.09 31.98 59.8 34.21 59.2 36.35 58.76 38.55 58.69 38.9 59.15 39.01 59.28 38.69 60.12 36.62 60.5 34.28 60.8 32.08 61.1 29.91 61.23 27.73 61.19 25.54 61.11 21.1 60.33 16.64 58.82 12.46 58.72 12.17 58.26 12.29 58.36 12.59L58.36 12.59Z" fill="#632A2A"/></g></g><g><g><path d="M56.26 14.84C55.51 18.73 54.58 22.58 53.67 26.44 53.62 26.64 53.92 26.72 53.98 26.53 55.11 22.73 55.95 18.86 56.67 14.96 56.72 14.68 56.31 14.57 56.26 14.84L56.26 14.84Z" fill="#632A2A"/></g></g><g><g><path d="M54.82 10.38C48.73 12.68 43.52 17.62 41.41 23.83 41.35 24.01 41.64 24.14 41.72 23.96 44.28 18.07 48.91 13.2 54.97 10.89 55.27 10.77 55.13 10.26 54.82 10.38L54.82 10.38Z" fill="#632A2A"/></g></g><g><g><path d="M24.63 30.31C24.93 25.27 28.22 21.05 31.88 17.84 35.74 14.47 40.29 11.77 45.21 10.27 46.53 9.87 47.89 9.55 49.26 9.33 50.75 9.09 52.24 9.08 53.73 8.91 54.05 8.87 54.05 8.45 53.73 8.41 52.42 8.24 51.05 8.41 49.74 8.59 48.42 8.77 47.12 9.04 45.84 9.4 43.33 10.11 40.92 11.14 38.64 12.4 34.2 14.87 29.92 18.29 27.08 22.56 25.54 24.88 24.51 27.5 24.42 30.3 24.41 30.45 24.62 30.45 24.63 30.31L24.63 30.31Z" fill="#632A2A"/></g></g><g><g><path d="M25.35 10.67C31.59 5.16 40.18 2.72 48.38 4.22 50.76 4.66 52.94 5.54 55.23 6.29 55.45 6.36 55.56 6.05 55.38 5.93 53.54 4.78 51.31 4.16 49.21 3.73 47.06 3.28 44.85 3.09 42.65 3.16 38.49 3.29 34.4 4.38 30.72 6.32 28.66 7.41 26.74 8.76 25.01 10.32 24.76 10.53 25.11 10.88 25.35 10.67L25.35 10.67Z" fill="#632A2A"/></g></g></g></svg>