<svg width="117.03" height="86.4" viewBox="0 0 117.03 86.4" xmlns="http://www.w3.org/2000/svg" xmlns:xlink="http://www.w3.org/1999/xlink" xml:space="preserve" overflow="hidden"><defs></defs><g><g><path d="M28.88 85.62C20.57 85.62 12.27 85.62 3.96 85.62 3.44 85.62 2.92 85.61 2.4 85.58 0.81 85.49 0.16 84.82 0.15 83.23 0.1 74.89-0.03 66.54 0 58.2 0.03 50.14 0.19 42.07 0.36 34 0.4 31.93 0.65 29.86 0.88 27.8 1.06 26.2 1.58 25.82 3.17 25.84 12.24 25.93 21.31 26.03 30.38 26.09 30.84 26.09 31.43 25.92 31.75 25.62 39.19 18.46 46.6 11.28 54.01 4.09 55.22 2.92 56.4 1.72 57.6 0.55 58.35-0.18 58.81-0.19 59.55 0.53 67.24 8.05 74.91 15.58 82.6 23.09 83.58 24.05 84.61 24.96 85.65 25.86 85.85 26.03 86.2 26.1 86.49 26.09 95.53 26.02 104.57 25.94 113.61 25.83 115.65 25.81 116.13 26.05 116.31 28.04 116.62 31.51 116.94 34.98 116.96 38.46 117.04 53.37 117.01 68.28 117.01 83.19 117.01 84.8 116.37 85.53 114.78 85.55 112 85.58 109.22 85.43 106.44 85.49 97.4 85.66 88.37 85.9 79.33 86.09 73.89 86.21 68.46 86.42 63.02 86.37 52.24 86.28 41.47 86.03 30.7 85.85 30.09 85.84 29.48 85.85 28.87 85.85 28.88 85.78 28.88 85.7 28.88 85.62ZM115.42 55.76C114.4 55.76 113.44 55.77 112.47 55.76 103.46 55.68 94.45 55.62 85.44 55.52 73.87 55.39 62.29 55.12 50.72 55.12 40.7 55.12 30.69 55.42 20.67 55.56 15.17 55.64 9.68 55.68 4.18 55.74 3.37 55.75 2.56 55.74 1.74 55.74 1.74 65.14 1.74 74.54 1.74 83.89 1.98 83.98 2.06 84.04 2.14 84.04 3.03 84.05 3.91 84.06 4.8 84.07 12.34 84.14 19.89 84.08 27.43 84.3 43.28 84.76 59.12 85.13 74.97 84.72 87.82 84.39 100.67 83.64 113.53 84.07 114.1 84.09 114.68 84.07 115.41 84.07 115.42 74.55 115.42 65.12 115.42 55.76ZM1.64 54.34C25.89 54.68 49.92 53.1 73.99 53.83 87.66 54.24 101.35 54.18 115.03 54.33 115.14 54.33 115.26 54.29 115.54 54.24 115.43 45.24 115.31 36.25 115.19 27.16 114.54 27.16 114.15 27.15 113.77 27.16 112.21 27.21 110.66 27.29 109.1 27.31 93.83 27.5 78.56 27.67 63.3 27.86 61.59 27.88 59.88 28.05 58.17 28.02 51 27.88 43.82 27.64 36.65 27.53 25.44 27.36 14.24 27.27 3.03 27.14 2.77 27.14 2.5 27.17 2 27.21 1.88 36.24 1.76 45.21 1.64 54.34ZM33.91 26.05C34.15 26.09 34.27 26.12 34.39 26.12 41.47 26.23 48.55 26.33 55.63 26.46 56.2 26.47 56.36 26.25 56.4 25.73 56.63 22.63 56.91 19.53 57.12 16.42 57.38 12.58 57.59 8.74 57.83 4.9 57.89 3.88 57.98 2.86 58.06 1.84 57.99 1.8 57.92 1.77 57.85 1.73 49.9 9.81 41.95 17.88 33.91 26.05ZM59.33 1.73C59.26 1.76 59.19 1.8 59.12 1.83 59.25 3.41 59.39 4.99 59.5 6.57 59.94 12.94 60.37 19.3 60.78 25.67 60.82 26.32 61.09 26.46 61.7 26.45 68.57 26.33 75.44 26.23 82.31 26.12 82.6 26.12 82.89 26.09 83.3 26.06 75.24 17.89 67.28 9.81 59.33 1.73ZM58.66 7.06C58.61 7.06 58.56 7.06 58.51 7.06 58.21 13.5 57.92 19.95 57.62 26.41 58.32 26.41 58.91 26.41 59.55 26.41 59.26 19.9 58.96 13.48 58.66 7.06Z" fill="#2F4042"/><path d="M115.42 55.76C115.42 65.12 115.42 74.55 115.42 84.09 114.68 84.09 114.11 84.11 113.54 84.09 100.68 83.66 87.83 84.41 74.98 84.74 59.13 85.15 43.28 84.78 27.44 84.32 19.9 84.1 12.36 84.16 4.81 84.09 3.92 84.08 3.04 84.08 2.15 84.06 2.07 84.06 1.99 84 1.75 83.91 1.75 74.56 1.75 65.16 1.75 55.76 2.57 55.76 3.38 55.77 4.19 55.76 9.69 55.7 15.18 55.66 20.68 55.58 30.7 55.43 40.71 55.14 50.73 55.14 62.3 55.14 73.88 55.41 85.45 55.54 94.46 55.64 103.47 55.7 112.48 55.78 113.44 55.77 114.41 55.76 115.42 55.76Z" fill="#F9E467"/><path d="M1.64 54.34C1.76 45.21 1.87 36.24 1.99 27.22 2.5 27.18 2.76 27.15 3.02 27.15 14.23 27.27 25.43 27.37 36.64 27.54 43.81 27.65 50.99 27.89 58.16 28.03 59.87 28.06 61.58 27.89 63.29 27.87 78.56 27.68 93.83 27.51 109.09 27.32 110.65 27.3 112.2 27.22 113.76 27.17 114.15 27.16 114.54 27.17 115.18 27.17 115.3 36.26 115.41 45.25 115.53 54.25 115.25 54.3 115.14 54.34 115.02 54.34 101.34 54.19 87.66 54.26 73.98 53.84 49.93 53.1 25.89 54.68 1.64 54.34Z" fill="#FFF6A4"/><path d="M33.91 26.05C41.96 17.88 49.91 9.81 57.86 1.73 57.93 1.77 58 1.8 58.07 1.84 57.99 2.86 57.9 3.88 57.84 4.9 57.6 8.74 57.39 12.58 57.13 16.42 56.92 19.53 56.64 22.63 56.41 25.73 56.37 26.25 56.21 26.47 55.64 26.46 48.56 26.33 41.48 26.23 34.4 26.12 34.27 26.12 34.15 26.09 33.91 26.05Z" fill="#F9E467"/><path d="M59.33 1.73C67.28 9.81 75.24 17.89 83.29 26.06 82.88 26.09 82.59 26.11 82.3 26.12 75.43 26.23 68.56 26.32 61.69 26.45 61.09 26.46 60.82 26.33 60.77 25.67 60.36 19.3 59.93 12.94 59.49 6.57 59.38 4.99 59.24 3.41 59.11 1.83 59.19 1.8 59.26 1.77 59.33 1.73Z" fill="#F9E467"/><path d="M58.66 7.06C58.96 13.48 59.25 19.9 59.55 26.41 58.91 26.41 58.33 26.41 57.62 26.41 57.92 19.95 58.21 13.5 58.51 7.06 58.56 7.06 58.61 7.06 58.66 7.06Z" fill="#F9E467"/></g><g><path d="M58.95 59.55C58.95 60.1 58.96 60.64 58.95 61.19 58.93 61.76 58.68 62.06 58.04 62.05 57.42 62.04 57.21 61.72 57.21 61.21 57.2 60.06 57.22 58.9 57.25 57.75 57.26 57.21 57.53 56.95 58.12 56.96 58.69 56.97 58.89 57.25 58.91 57.73 58.94 58.34 58.92 58.94 58.92 59.55 58.92 59.55 58.93 59.55 58.95 59.55Z" fill="#2F4042"/><path d="M20.58 38.68C20.21 38.64 20.07 38.4 20.08 38.05 20.09 37.69 20.26 37.41 20.48 37.15 21.39 36.13 22.3 35.1 23.22 34.09 23.51 33.77 23.89 33.46 24.32 33.84 24.72 34.2 24.45 34.59 24.2 34.89 23.24 36.03 22.26 37.16 21.29 38.28 21.11 38.5 20.89 38.65 20.58 38.68Z" fill="#2F4042"/><path d="M96.05 37.96C96.06 38.28 96 38.52 95.74 38.63 95.41 38.77 95.13 38.6 94.93 38.37 94.09 37.45 93.26 36.51 92.45 35.57 92.19 35.27 91.97 34.94 91.75 34.61 91.59 34.36 91.56 34.09 91.79 33.86 92.02 33.63 92.33 33.6 92.54 33.8 93.8 34.99 95.01 36.23 95.98 37.68 96.04 37.76 96.04 37.9 96.05 37.96Z" fill="#2F4042"/><path d="M57.34 66.81C57.34 66.2 57.33 65.59 57.34 64.99 57.35 64.54 57.55 64.23 58.05 64.22 58.54 64.21 58.78 64.51 58.78 64.96 58.79 66.24 58.79 67.51 58.77 68.79 58.76 69.22 58.59 69.58 58.08 69.59 57.52 69.59 57.37 69.19 57.35 68.73 57.34 68.09 57.35 67.45 57.34 66.81 57.35 66.81 57.35 66.81 57.34 66.81Z" fill="#2F4042"/><path d="M57.26 81.94C57.26 81.45 57.24 80.97 57.26 80.48 57.28 79.96 57.58 79.74 58.11 79.75 58.61 79.76 58.85 80.01 58.86 80.47 58.88 81.44 58.89 82.42 58.87 83.39 58.86 83.88 58.62 84.17 58.06 84.17 57.51 84.17 57.27 83.89 57.25 83.4 57.22 82.91 57.24 82.43 57.24 81.94 57.26 81.94 57.26 81.94 57.26 81.94Z" fill="#2F4042"/><path d="M57.38 74.33C57.38 73.72 57.36 73.11 57.39 72.5 57.41 72.08 57.59 71.71 58.1 71.72 58.56 71.73 58.74 72.08 58.75 72.46 58.77 73.71 58.78 74.96 58.73 76.2 58.72 76.61 58.59 77.15 58.04 77.12 57.52 77.09 57.43 76.56 57.4 76.14 57.35 75.56 57.39 74.94 57.38 74.33 57.38 74.33 57.38 74.33 57.38 74.33Z" fill="#2F4042"/><path d="M19.13 40.23C19.12 40.75 16.44 43.89 15.92 43.99 15.49 44.07 15.26 43.85 15.26 43.46 15.26 43.23 15.34 42.96 15.48 42.79 16.31 41.82 17.16 40.86 18.01 39.92 18.22 39.69 18.51 39.55 18.83 39.71 19.04 39.8 19.13 40 19.13 40.23Z" fill="#2F4042"/><path d="M97.36 39.63C97.86 39.66 98.07 39.83 98.26 40.03 99.03 40.89 99.81 41.74 100.56 42.63 100.86 42.98 101.15 43.45 100.72 43.85 100.26 44.28 99.85 43.87 99.56 43.54 98.76 42.62 98 41.68 97.23 40.73 97.03 40.49 96.91 40.2 97.1 39.89 97.2 39.72 97.35 39.63 97.36 39.63Z" fill="#2F4042"/><path d="M5.59 53.56C4.97 53.48 4.98 53.06 5.16 52.63 5.38 52.11 5.83 51.77 6.23 51.4 6.83 50.84 7.45 50.3 8.07 49.77 8.28 49.59 8.56 49.5 8.83 49.69 9.09 49.88 9.14 50.18 8.96 50.42 8.09 51.59 7.09 52.64 5.87 53.47 5.79 53.52 5.69 53.52 5.59 53.56Z" fill="#2F4042"/><path d="M111.08 52.96C111.07 53.43 110.78 53.72 110.38 53.49 109.05 52.72 108.04 51.59 107.15 50.35 107.02 50.17 107.08 49.94 107.23 49.76 107.39 49.58 107.62 49.51 107.81 49.64 109.05 50.48 110.16 51.45 111.01 52.7 111.06 52.76 111.06 52.87 111.08 52.96Z" fill="#2F4042"/><path d="M29.26 29.26C29.25 29.34 29.26 29.38 29.24 29.4 28.4 30.63 27.49 31.8 26.29 32.7 26.09 32.85 25.81 32.81 25.62 32.6 25.43 32.4 25.41 32.13 25.56 31.92 26.37 30.77 27.33 29.75 28.42 28.88 28.78 28.61 29.19 28.76 29.26 29.26Z" fill="#2F4042"/><path d="M90.66 32.23C90.59 32.74 90.21 32.95 89.83 32.69 88.62 31.84 87.76 30.66 86.92 29.46 86.79 29.27 86.86 29.04 87.06 28.89 87.24 28.75 87.49 28.71 87.66 28.85 88.79 29.77 89.82 30.8 90.62 32.03 90.65 32.08 90.65 32.15 90.66 32.23Z" fill="#2F4042"/><path d="M14.05 45.23C13.98 45.36 13.9 45.6 13.74 45.78 13.11 46.49 12.47 47.18 11.81 47.86 11.52 48.16 11.12 48.36 10.75 48.04 10.38 47.72 10.49 47.29 10.78 46.98 11.49 46.22 12.23 45.5 12.97 44.77 13.18 44.57 13.45 44.5 13.73 44.62 13.95 44.7 14.05 44.89 14.05 45.23Z" fill="#2F4042"/><path d="M102.68 44.56C102.9 44.57 103.09 44.67 103.25 44.82 103.94 45.51 104.64 46.19 105.31 46.9 105.62 47.23 105.8 47.67 105.38 48.03 105.01 48.35 104.61 48.14 104.32 47.84 103.63 47.11 102.95 46.37 102.29 45.61 102.11 45.4 102.01 45.13 102.15 44.85 102.26 44.64 102.44 44.56 102.68 44.56Z" fill="#2F4042"/></g><g><path d="M100.89 20.82C101.01 21.64 101.11 22.27 101.18 22.9 101.22 23.31 101.18 23.76 100.7 23.86 100.22 23.96 99.98 23.59 99.86 23.19 99.55 22.13 99.41 21.04 99.3 19.95 99.25 19.48 99.56 19.12 99.87 18.85 100.49 18.3 101.21 17.9 102.01 17.65 102.41 17.53 102.84 17.51 103.03 17.97 103.22 18.43 102.9 18.71 102.53 18.92 102.27 19.07 102 19.2 101.6 19.41 101.99 19.68 102.29 19.91 102.6 20.12 107.43 23.21 108.84 27.79 108.23 33.19 108.02 35.01 107.61 36.8 106.68 38.42 106.41 38.9 106.11 39.36 105.69 39.73 105.49 39.9 105.26 40.02 105.03 39.82 104.78 39.6 104.97 39.38 105.1 39.18 108.04 34.78 107.7 30.19 105.75 25.58 104.84 23.42 102.96 22.13 100.89 20.82Z" fill="#2F4042"/><path d="M17.44 19.49C17.21 19.08 16.79 19.08 16.5 18.86 16.18 18.62 15.93 18.35 16.1 17.94 16.25 17.57 16.62 17.5 16.96 17.6 17.93 17.9 18.84 18.32 19.5 19.13 19.69 19.37 19.88 19.63 19.83 19.96 19.66 21.01 19.49 22.07 19.28 23.11 19.19 23.54 18.94 23.96 18.4 23.84 17.92 23.73 17.93 23.27 17.93 22.86 17.94 22.23 18.24 21.63 18.14 20.88 15.6 22.39 13.57 24.24 12.69 27.09 11.77 30.04 11.65 33.02 12.44 36.03 12.73 37.13 13.17 38.16 13.91 39.05 14.09 39.27 14.42 39.54 14.07 39.82 13.77 40.06 13.5 39.81 13.28 39.58 12.79 39.07 12.39 38.48 12.13 37.83 10.63 34.12 10.25 30.34 11.43 26.46 12.27 23.69 14.1 21.71 16.45 20.14 16.79 19.94 17.11 19.72 17.44 19.49Z" fill="#2F4042"/></g></g></svg>