<svg width="216.87" height="137.77" viewBox="0 0 216.87 137.77" xmlns="http://www.w3.org/2000/svg" xmlns:xlink="http://www.w3.org/1999/xlink" xml:space="preserve" overflow="hidden"><defs></defs><g><g><g><path d="M1.64 20.45 98.88 127.2 215.13 20.45Z" stroke="#565656" stroke-width="1.3564" stroke-miterlimit="10" fill="#FFFFFF"/><g><g><line x1="1.64" y1="20.45" x2="2.79" y2="20.45" stroke="#565656" stroke-width="0.8665" stroke-miterlimit="10" fill="none"/><line x1="5.17" y1="20.45" x2="22.96" y2="20.45" stroke="#565656" stroke-width="0.8665" stroke-miterlimit="10" stroke-dasharray="2.3729 2.3729 2.3729 2.3729 2.3729 2.3729" fill="none"/><line x1="24.15" y1="20.45" x2="212.79" y2="20.45" stroke="#565656" stroke-width="0.8665" stroke-miterlimit="10" stroke-dasharray="2.3729 2.3729 2.3729 2.3729 2.3729 2.3729" fill="none"/><line x1="213.98" y1="20.45" x2="215.13" y2="20.45" stroke="#565656" stroke-width="0.8665" stroke-miterlimit="10" fill="none"/></g></g></g><path d="" stroke="#A3A3A3" stroke-width="0.8665" stroke-linecap="round" stroke-miterlimit="10" fill="none"/></g><g><path d="M1.64 20.45 108.39 127.2 215.13 20.45Z" stroke="#565656" stroke-width="1.3564" stroke-miterlimit="10" fill="#AABFCE"/><g><g><line x1="1.64" y1="20.45" x2="2.79" y2="20.45" stroke="#565656" stroke-width="0.8665" stroke-miterlimit="10" fill="none"/><line x1="5.17" y1="20.45" x2="22.96" y2="20.45" stroke="#565656" stroke-width="0.8665" stroke-miterlimit="10" stroke-dasharray="2.3729 2.3729 2.3729 2.3729 2.3729 2.3729" fill="none"/><line x1="24.15" y1="20.45" x2="212.79" y2="20.45" stroke="#565656" stroke-width="0.8665" stroke-miterlimit="10" stroke-dasharray="2.3729 2.3729 2.3729 2.3729 2.3729 2.3729" fill="none"/><line x1="213.98" y1="20.45" x2="215.13" y2="20.45" stroke="#565656" stroke-width="0.8665" stroke-miterlimit="10" fill="none"/></g></g></g><path d="" stroke="#A3A3A3" stroke-width="0.8665" stroke-linecap="round" stroke-miterlimit="10" fill="none"/></g><line x1="19.68" y1="53.72" x2="198.7" y2="53.72" stroke="#565656" stroke-width="0.8665" stroke-miterlimit="10" stroke-dasharray="2.3107 2.3107 2.3107 2.3107 2.3107" fill="none"/><g><path d="M116.87 0.91C142.49 47.86 117.68 83.43 117.68 83.43" stroke="#666666" stroke-width="0.8665" stroke-linecap="round" stroke-miterlimit="10" fill="none"/><path d="M115.92 2.88 116.7 0.52 119.28 1.15" stroke="#666666" stroke-width="0.8665" stroke-linecap="round" stroke-miterlimit="10" fill="none"/></g><text fill="#565656" font-family="Asap-Regular" font-size="10.797" transform="translate(108.385 114.377)">A</text><text fill="#565656" font-family="Asap-Regular" font-size="10.797" transform="translate(88.2719 135.069)">B</text></svg>