<svg width="216.67" height="109.7" viewBox="0 0 216.67 109.7" xmlns="http://www.w3.org/2000/svg" xmlns:xlink="http://www.w3.org/1999/xlink" xml:space="preserve" overflow="hidden"><defs></defs><g><g><path d="M1.54 47.95 31.84 81.22 181.76 81.22 215.03 47.95Z" stroke="#565656" stroke-width="1.3564" stroke-miterlimit="10" fill="#AABFCE"/></g><path d="" stroke="#A3A3A3" stroke-width="0.8665" stroke-linecap="round" stroke-miterlimit="10" fill="none"/><path d="M108.28 7.74 181.3 80.76C181.47 80.93 181.35 81.21 181.11 81.21L35.45 81.21C35.21 81.21 35.1 80.92 35.26 80.76L108.28 7.74Z" stroke="#565656" stroke-width="1.3564" stroke-miterlimit="10" fill="#FFFFFF"/><path d="M116.76 7.74 180.85 78.51C181.9 79.47 181.22 81.22 179.8 81.22L34.02 81.22C32.66 81.22 116.76 7.74 116.76 7.74Z" stroke="#565656" stroke-width="1.3564" stroke-miterlimit="10" fill="#AABFCE"/></g><line x1="48.81" y1="67.56" x2="170.93" y2="67.56" stroke="#565656" stroke-width="0.8665" stroke-miterlimit="10" stroke-dasharray="2.3107 2.3107 2.3107 2.3107 2.3107" fill="none"/><g><path d="M114.36 104.93C128.65 105.37 140.59 94.14 141.03 79.85 141.47 65.56 130.24 53.62 115.95 53.18" stroke="#666666" stroke-width="0.8665" stroke-linecap="round" stroke-miterlimit="10" fill="none"/><path d="M118.85 109.26 113.96 104.78 118.31 99.93" stroke="#666666" stroke-width="0.8665" stroke-linecap="round" stroke-miterlimit="10" fill="none"/></g><text fill="#565656" font-family="Asap-Regular" font-size="10.797" transform="translate(96.4628 9.0371)">A</text><text fill="#565656" font-family="Asap-Regular" font-size="10.797" transform="translate(113.96 23.6563)">B</text></svg>