<svg width="101.88" height="121.44" viewBox="0 0 101.88 121.44" xmlns="http://www.w3.org/2000/svg" xmlns:xlink="http://www.w3.org/1999/xlink" xml:space="preserve" overflow="hidden"><defs></defs><g><g><path d="M50.94 0.5 0.5 50.94 101.38 50.94Z" stroke="#505CA3" stroke-linecap="round" stroke-linejoin="round" stroke-miterlimit="10" fill="#FFFFFF"/><path d="M50.94 120.94 70.95 73.63 48.93 56.43 101.38 50.94 50.94 26.32 0.5 50.94 53.71 55.03 30.93 73.63Z" stroke="#505CA3" stroke-linecap="round" stroke-linejoin="round" stroke-miterlimit="10" fill="#FFFFFF"/><line x1="50.94" y1="0.5" x2="50.94" y2="26.32" stroke="#505CA3" stroke-linecap="round" stroke-linejoin="round" stroke-miterlimit="10" fill="none"/><g><g><line x1="0.5" y1="50.94" x2="3.2" y2="49.62" stroke="#505CA3" stroke-linecap="round" stroke-linejoin="round" fill="none"/><line x1="8.2" y1="47.18" x2="45.74" y2="28.86" stroke="#505CA3" stroke-linecap="round" stroke-linejoin="round" stroke-dasharray="5.5696 5.5696" fill="none"/><line x1="48.24" y1="27.64" x2="50.94" y2="26.32" stroke="#505CA3" stroke-linecap="round" stroke-linejoin="round" fill="none"/></g></g><line x1="50.94" y1="26.32" x2="74.32" y2="53.77" stroke="#505CA3" stroke-linecap="round" stroke-linejoin="round" stroke-miterlimit="10" fill="none"/><line x1="53.71" y1="55.03" x2="50.94" y2="26.32" stroke="#505CA3" stroke-linecap="round" stroke-linejoin="round" stroke-miterlimit="10" fill="none"/><line x1="50.94" y1="120.94" x2="50.94" y2="58" stroke="#505CA3" stroke-linecap="round" stroke-linejoin="round" stroke-miterlimit="10" fill="none"/><path d="M62.32 55.03 48.93 56.43 70.95 73.63Z" stroke="#505CA3" stroke-linecap="round" stroke-linejoin="round" stroke-miterlimit="10" fill="#FFFFFF"/><path d="M38.15 53.83 53.71 55.03 30.93 73.63Z" stroke="#505CA3" stroke-linecap="round" stroke-linejoin="round" stroke-miterlimit="10" fill="#FFFFFF"/><line x1="50.94" y1="26.32" x2="29.61" y2="53.18" stroke="#505CA3" stroke-linecap="round" stroke-linejoin="round" stroke-miterlimit="10" fill="none"/><g><g><line x1="37.63" y1="89.47" x2="40.63" y2="89.47" stroke="#505CA3" stroke-linecap="round" stroke-linejoin="round" fill="none"/><line x1="47.5" y1="89.47" x2="57.81" y2="89.47" stroke="#505CA3" stroke-linecap="round" stroke-linejoin="round" stroke-dasharray="6.8748 6.8748" fill="none"/><line x1="61.25" y1="89.47" x2="64.25" y2="89.47" stroke="#505CA3" stroke-linecap="round" stroke-linejoin="round" fill="none"/></g></g></g><g><g><path d="M48.68 100.21C41.96 93.49 40.57 83.46 44.51 75.37" stroke="#505CA3" stroke-linecap="round" stroke-linejoin="round" fill="none"/><g><path d="M47.99 79.48 48.68 69.53 39.72 73.9Z" fill="#505CA3"/></g></g></g></g></svg>