<svg width="110.35" height="133.16" viewBox="0 0 110.35 133.16" xmlns="http://www.w3.org/2000/svg" xmlns:xlink="http://www.w3.org/1999/xlink" xml:space="preserve" overflow="hidden"><defs></defs><g><path d="M0 0 4.03 36.31C4.03 36.31 69.54 121.08 75.65 129.11 85.23 141.72 116 122.05 109.44 108.43 102.89 94.82 36.31 11.1 36.31 11.1L0 0Z" fill="#75B9CB"/><path d="M30.77 24.71 36.31 11.1 0 0 4.03 36.31 18.16 34.8Z" fill="#EFCA79"/><path d="M1.66 14.91C5.95 14.64 11.43 12.53 14.64 4.47L0 0 1.66 14.91Z" fill="#643E72"/><path d="M89.26 123.04C87.76 119.83 84.97 117.07 82.77 114.32 80.6 111.6 78.43 108.88 76.22 106.19 71.7 100.66 67.2 95.12 62.73 89.55L35.9 56.12C33.38 52.98 30.85 49.84 28.31 46.71 25.79 43.61 23.41 40.26 20.63 37.39 19.71 36.44 18.03 37.68 18.77 38.82 20.71 41.82 23.13 44.55 25.33 47.36 27.48 50.1 29.62 52.85 31.78 55.59 36.21 61.2 40.65 66.81 45.08 72.42 53.95 83.64 62.86 94.83 71.63 106.13 74.1 109.32 76.59 112.5 79.1 115.66 80.3 117.17 81.49 118.67 82.69 120.18 84 121.84 85.21 123.56 86.88 124.87 88.24 125.91 90.01 124.65 89.26 123.04Z" fill="#95C9E2"/><path d="M102.79 112.23C101.94 108.79 99.31 106.08 97.13 103.37 94.96 100.67 92.79 97.96 90.63 95.26 86.13 89.64 81.64 84 77.1 78.41 68.07 67.31 59.05 56.21 50.04 45.1 47.57 42.06 45.14 38.98 42.63 35.97 41.35 34.43 40.04 32.92 38.74 31.4 37.49 29.93 36.23 28.39 34.63 27.3 34.38 27.13 33.98 27.42 34.09 27.71 35.32 30.87 37.89 33.64 39.9 36.35 41.92 39.07 44.03 41.72 46.12 44.4 50.55 50.1 54.98 55.79 59.41 61.49 68.22 72.81 77 84.14 85.86 95.41 88.29 98.49 90.71 101.58 93.14 104.66 95.54 107.71 97.84 111.51 101.37 113.31 102.12 113.7 103 113.07 102.79 112.23Z" fill="#95C9E2"/></g></svg>