<svg width="13.35" height="79.98" viewBox="0 0 13.35 79.98" xmlns="http://www.w3.org/2000/svg" xmlns:xlink="http://www.w3.org/1999/xlink" xml:space="preserve" overflow="hidden"><defs></defs><path d="M8.47 0C9.22 1.79 9.61 3.68 9.27 5.53 8.73 8.44 8.97 11.36 8.9 14.27 8.78 18.68 9.25 23.07 9.72 27.46 10.2 31.85 10.22 36.26 10.26 40.67 10.32 45.91 10.52 51.16 11.07 56.39 11.1 56.71 11.11 57.04 11.1 57.36 11 61.32 11.48 65.25 11.91 69.18 12.31 72.79 12.71 76.4 13.33 79.98 8.05 77.01 4.67 72.85 3.1 67.52 2.07 63.99 1.69 60.39 1.27 56.78 0.58 50.65 0.5 44.5 0.36 38.35 0.31 36.23-0.14 34.09 0.03 31.95 0.53 25.76 0.21 19.51 1.39 13.36 1.83 11.13 2.39 8.89 4 7.01 4.92 7.07 5.26 6.5 5.56 5.89 6.1 4.77 7.1 3.88 7.56 2.72 8.33 1.93 8.54 1 8.47 0Z" fill="#0F4EED" fill-rule="evenodd" clip-rule="evenodd"/></svg>