<svg width="106.46" height="106.46" viewBox="0 0 106.46 106.46" xmlns="http://www.w3.org/2000/svg" xmlns:xlink="http://www.w3.org/1999/xlink" xml:space="preserve" overflow="hidden"><defs></defs><g><path d="M106.46 53.23C106.46 54 106.44 54.76 106.41 55.52 106.3 58.25 105.97 60.93 105.46 63.54 105.37 63.99 105.28 64.43 105.18 64.87 102.08 78.77 93.55 90.62 81.92 98.07 74.31 102.95 65.37 105.95 55.77 106.4 54.93 106.44 54.08 106.46 53.23 106.46 47.44 106.46 41.86 105.53 36.64 103.82 25 100.01 15.13 92.29 8.58 82.21 6.9 79.64 5.44 76.91 4.22 74.05 1.51 67.66 0 60.62 0 53.23 0 23.83 23.83 0 53.23 0 82.63 0 106.46 23.83 106.46 53.23Z" fill="#39B8FF"/><path d="M106.46 53.23C106.46 54 106.44 54.76 106.41 55.52 106.3 58.25 105.97 60.93 105.46 63.54 105.37 63.99 105.28 64.43 105.18 64.87 102.08 78.77 93.55 90.62 81.92 98.07 74.31 102.95 65.37 105.95 55.77 106.4 54.93 106.44 54.08 106.46 53.23 106.46 47.44 106.46 41.86 105.53 36.64 103.82 25 100.01 15.13 92.29 8.58 82.21 6.9 79.64 5.44 76.91 4.22 74.05 1.51 67.66 0 60.62 0 53.23 0 23.83 23.83 0 53.23 0 82.63 0 106.46 23.83 106.46 53.23Z" fill="#D1D1DD"/><path d="M81.92 98.07C74.31 102.95 65.37 105.95 55.77 106.4 54.93 106.44 54.08 106.46 53.23 106.46 47.44 106.46 41.86 105.53 36.64 103.82 25 100.01 15.13 92.29 8.58 82.21 6.9 79.64 5.44 76.91 4.22 74.05 18.4 70.17 33.73 70.48 47.72 75.05 51.01 76.13 54.23 77.44 57.34 78.97 57.85 79.21 58.36 79.47 58.86 79.73 59.37 79.99 59.88 80.27 60.39 80.55 68.55 85.01 75.9 90.98 81.92 98.07Z" fill="#54987F"/><g><path d="M90.9 68.52C88.56 62.18 84.9 56.33 80.22 51.45 78.88 50.05 77.28 48.65 75.34 48.53 72.93 48.38 70.89 50.25 69.45 52.18 66.25 56.44 64.39 61.55 62.87 66.66 61.35 71.77 60.12 76.99 57.98 81.87 63.43 78.84 68.85 76.03 74.63 73.69 79.86 71.56 85.33 69.46 90.9 68.52Z" fill="#807F7D"/><path d="M106.41 55.52C106.3 58.25 105.97 60.93 105.46 63.54 105.37 63.99 105.28 64.43 105.18 64.87 97.97 66.78 90.78 68.79 83.57 70.65 83.73 70.61 83.87 70.46 83.98 70.23 84.5 69.2 84.56 66.6 84.65 65.76 84.66 65.7 84.66 65.65 84.67 65.61 84.99 63.52 85.51 61.3 86.25 59.14 86.66 57.9 87.15 56.68 87.71 55.52 88.51 53.84 89.45 52.29 90.52 50.96 92.94 47.98 96.29 47.42 99.53 49.15 102.18 50.57 104.49 52.87 106.41 55.52Z" fill="#807F7D"/></g><path d="M105.46 63.54C105.37 63.99 105.28 64.43 105.18 64.87 102.08 78.77 93.55 90.62 81.92 98.07 74.31 102.95 65.37 105.95 55.77 106.4 54.93 106.44 54.08 106.46 53.23 106.46 47.44 106.46 41.86 105.53 36.64 103.82 38.55 100.11 40.79 96.55 43.31 93.21 47.33 87.87 52.06 83.07 57.34 78.97 58.14 78.36 58.95 77.76 59.77 77.18 61.26 76.12 62.78 75.11 64.35 74.17 70.65 70.38 77.52 67.55 84.65 65.76 86.19 65.37 87.75 65.03 89.32 64.75L89.33 64.75C94.64 63.76 100.05 63.35 105.46 63.54Z" fill="#65A55B"/><g><g><g><rect x="86.89" y="88.61" width="1" height="1.5" fill="#FFFFFF" transform="matrix(0.7709 -0.637 0.637 0.7709 -36.8953 76.1413)"/></g><g><path d="M77.96 78.73 75.1 75.28 75.87 74.64 78.73 78.09 77.96 78.73ZM66.53 64.92 64.82 62.85 65.59 62.21 67.3 64.28 66.53 64.92Z" fill="#FFFFFF"/></g><g><path d="M56.25 52.48 54.54 50.41 55.31 49.77 57.02 51.84 56.25 52.48ZM45.97 40.05 43.11 36.6 43.88 35.96 46.74 39.41 45.97 40.05ZM34.54 26.23 32.83 24.16 33.6 23.52 35.31 25.59 34.54 26.23Z" fill="#FFFFFF"/></g><g><rect x="23.67" y="12.15" width="1" height="1.5" fill="#FFFFFF" transform="matrix(0.7707 -0.6372 0.6372 0.7707 -2.679 18.3579)"/></g></g><g><g><rect x="37.18" y="100.08" width="1" height="1.5" fill="#FFFFFF" transform="matrix(0.7708 -0.637 0.637 0.7708 -55.5955 47.1083)"/></g><g><path d="M27.43 89.22 24.3 85.44 25.07 84.8 28.2 88.58 27.43 89.22ZM14.93 74.09 13.05 71.82 13.82 71.18 15.7 73.45 14.93 74.09Z" fill="#FFFFFF"/></g><g><rect x="3.08" y="58.83" width="1" height="1.5" fill="#FFFFFF" transform="matrix(0.7709 -0.637 0.637 0.7709 -37.1321 15.9307)"/></g></g><g><g><rect x="96.4" y="63.17" width="1" height="1.5" fill="#FFFFFF" transform="matrix(0.7707 -0.6372 0.6372 0.7707 -18.5117 76.3996)"/></g><g><path d="M88.6 54.67 86.12 51.67 86.89 51.03 89.37 54.03 88.6 54.67ZM78.69 42.69 77.2 40.89 77.97 40.25 79.46 42.05 78.69 42.69Z" fill="#FFFFFF"/></g><g><path d="M69.77 31.91 68.28 30.11 69.05 29.47 70.54 31.27 69.77 31.91ZM60.85 21.12 58.37 18.12 59.14 17.48 61.62 20.48 60.85 21.12ZM50.94 9.14 49.45 7.34 50.22 6.7 51.71 8.5 50.94 9.14Z" fill="#FFFFFF"/></g></g><g><g><rect x="102.41" y="46.36" width="1" height="1.5" fill="#FFFFFF" transform="matrix(0.7705 -0.6374 0.6374 0.7705 -6.4165 76.4044)"/></g><g><path d="M92.59 35.43 89.44 31.62 90.21 30.98 93.36 34.79 92.59 35.43ZM79.99 20.19 78.1 17.9 78.87 17.26 80.76 19.55 79.99 20.19Z" fill="#FFFFFF"/></g><g><rect x="68.05" y="4.82" width="1" height="1.5" fill="#FFFFFF" transform="matrix(0.7705 -0.6374 0.6374 0.7705 12.1775 44.9732)"/></g></g><g><g><rect x="76.78" y="96.01" width="1" height="1.5" fill="#FFFFFF" transform="matrix(0.7704 -0.6376 0.6376 0.7704 -43.9455 71.4895)"/></g><g><path d="M67.98 86.29 65.17 82.89 65.94 82.25 68.75 85.65 67.98 86.29ZM56.73 72.69 55.04 70.65 55.81 70.01 57.5 72.05 56.73 72.69Z" fill="#FFFFFF"/></g><g><path d="M46.6 60.44 44.91 58.4 45.68 57.76 47.37 59.8 46.6 60.44ZM36.47 48.19 33.66 44.79 34.43 44.15 37.24 47.55 36.47 48.19ZM25.22 34.59 23.53 32.55 24.3 31.91 25.99 33.95 25.22 34.59Z" fill="#FFFFFF"/></g><g><rect x="14.5" y="20.69" width="1" height="1.5" fill="#FFFFFF" transform="matrix(0.7705 -0.6374 0.6374 0.7705 -10.2253 14.4819)"/></g></g><g><g><rect x="58.08" y="102.04" width="1" height="1.5" fill="#FFFFFF" transform="matrix(0.7707 -0.6372 0.6372 0.7707 -52.0637 60.8964)"/></g><g><path d="M50.55 93.86 48.16 90.97 48.93 90.33 51.32 93.22 50.55 93.86ZM41 82.31 39.57 80.58 40.34 79.94 41.77 81.67 41 82.31Z" fill="#FFFFFF"/></g><g><path d="M32.4 71.91 30.97 70.18 31.74 69.54 33.17 71.27 32.4 71.91ZM23.8 61.51 21.41 58.62 22.18 57.98 24.57 60.87 23.8 61.51ZM14.25 49.96 12.82 48.23 13.59 47.59 15.02 49.32 14.25 49.96Z" fill="#FFFFFF"/></g><g><rect x="5.06" y="37.92" width="1" height="1.5" fill="#FFFFFF" transform="matrix(0.7705 -0.6374 0.6374 0.7705 -23.3708 12.4161)"/></g></g><g><g><path d="M87.46 76.66 85.83 74.69 86.6 74.05 88.23 76.02 87.46 76.66Z" fill="#FFFFFF"/></g><g><path d="M77.71 64.86 76.08 62.89 76.85 62.25 78.48 64.22 77.71 64.86ZM67.96 53.07 65.25 49.79 66.02 49.15 68.73 52.43 67.96 53.07ZM57.12 39.96 55.5 38 56.27 37.36 57.9 39.33 57.12 39.96Z" fill="#FFFFFF"/></g><g><rect x="46.78" y="26.52" width="1" height="1.5" fill="#FFFFFF" transform="matrix(0.7708 -0.637 0.637 0.7708 -6.5378 36.365)"/></g></g></g><path d="M37.84 64.36C37.87 60.42 39.93 56.71 42.69 53.9 45.45 51.09 48.88 49.03 52.26 47.01 46.52 47.98 41.31 50.96 37.92 55.69 36.78 48.84 39.22 41.5 44.24 36.7 40.53 37.44 37.44 40.24 36.53 43.91 34.18 39.32 29.88 35.76 24.92 34.31 27.12 35.99 29.33 37.69 31.17 39.76 33.01 41.83 34.47 44.32 34.88 47.06 35.21 49.25 34.87 51.47 34.53 53.66 33.94 57.47 33.46 61.11 32.86 64.92 30.36 61.43 27.53 58.17 24.44 55.19 23.17 53.97 21.64 52.72 19.89 52.89 22.16 53.98 24 55.81 25.45 57.86 26.86 59.85 27.93 62.07 28.98 64.28 25.53 63.95 22.09 63.61 18.64 63.28 20.43 64.11 22.3 64.76 24.22 65.24 26.91 65.91 29.51 65.9 31.06 68.52 32.9 71.64 32.92 75.62 32.59 79.12 32.43 80.83 32.11 82.53 31.88 84.22 31.73 85.28 31.21 89.41 29.96 89.82 28.93 90.16 28.39 92.14 29.15 92.92 29.8 93.59 30.86 93.56 31.79 93.54 35.97 93.42 40.17 94.19 44.04 95.79 39.68 89.02 37.62 80.8 38.25 72.77 38.44 70.38 38.93 67.85 40.61 66.14 42.02 64.7 44.05 64.07 45.99 63.49 47.88 62.93 49.77 62.36 51.66 61.8 46.85 60.32 41.88 61.38 37.84 64.36Z" fill="#77383D"/><path d="M42.74 39.06C42.65 37.15 44.11 35.28 45.98 34.9 47.85 34.52 49.92 35.66 50.59 37.45 51.26 39.24 50.46 41.46 48.79 42.41 50.21 41.51 52.36 41.92 53.27 43.33 54.18 44.75 53.83 46.81 52.55 47.9 51.27 48.99 49.24 49.04 47.86 48.08 49.18 49.15 49.6 50.89 48.94 52.45 48.28 54.01 46.52 55.03 44.84 54.82 43.16 54.62 41.69 53.21 41.42 51.53 40.91 53.09 38.87 54.53 37.26 54.18 35.65 53.83 34.46 52.14 34.66 50.51 34.85 48.88 36.41 47.52 38.05 47.56 36.83 47.72 35.54 46.92 35.15 45.75 34.76 44.58 35.3 43.17 36.37 42.56 37.44 41.95 38.93 42.21 39.74 43.14 38.35 42.47 37.29 41.03 37.3 39.49 37.31 37.95 38.55 36.44 40.09 36.34 41.63 36.23 43.09 37.55 42.74 39.06Z" fill="#33593A"/><path d="M55.77 106.4C54.93 106.44 54.08 106.46 53.23 106.46 47.44 106.46 41.86 105.53 36.64 103.82 25 100.01 15.13 92.29 8.58 82.21 18.03 81.9 27.57 84.07 35.93 88.49 38.51 89.85 40.98 91.43 43.31 93.21 48.16 96.87 52.39 101.35 55.77 106.4Z" fill="#409E62"/><path d="M30.02 62.3C30.23 64.46 28.86 66.68 26.83 67.45 24.8 68.22 22.3 67.49 21.02 65.73 20.06 66.11 19.02 66.37 18 66.22 16.98 66.07 15.98 65.43 15.64 64.45 15.3 63.47 15.83 62.22 16.83 61.96 15.56 61.92 14.22 61.77 13.18 61.04 12.14 60.31 11.53 58.82 12.15 57.71 12.64 56.84 13.72 56.46 14.71 56.53 15.7 56.6 16.62 57.05 17.5 57.51 16.33 56.33 16.14 54.31 17.05 52.92 17.97 51.53 19.9 50.93 21.45 51.54 23 52.15 23.99 53.92 23.7 55.56 24.7 53.48 27.91 52.93 29.55 54.57 31.18 56.21 30.64 59.41 28.55 60.42" fill="#377735"/><path d="M24.32 42.4C22.93 41.34 20.66 41.72 19.7 43.18 20.01 41.61 19.41 39.87 18.12 38.92 16.83 37.97 14.91 37.94 13.66 38.95 12.42 39.95 12.06 41.94 12.97 43.26 11.65 42.13 9.27 42.78 8.7 44.42 8.13 46.06 9.6 48.04 11.34 47.97 9.74 48.19 8.56 49.91 8.81 51.51 9.06 53.1 10.6 54.35 12.21 54.4 13.82 54.45 15.38 53.39 16.06 51.93 15.56 54.05 17.66 56.34 19.81 56.02 21.97 55.71 23.32 52.92 22.24 51.03 23.25 51.51 24.59 51.11 25.16 50.15 25.57 49.46 25.41 48.85 25.28 48.13 25.11 47.16 25.07 47.31 25.25 46.34 25.52 44.87 25.68 43.44 24.32 42.4Z" fill="#579C41"/><path d="M26.2 19.65C23.58 19.31 20.85 21.13 20.16 23.68 19.47 26.23 20.91 29.18 23.34 30.2 21.77 30.43 20.7 32.33 21.32 33.79 21.94 35.25 24.05 35.8 25.3 34.84 23.35 36 23.13 39.21 24.91 40.63 26.69 42.04 29.77 41.11 30.46 38.95 29.75 40.3 30.7 42.22 32.2 42.48 33.7 42.75 35.25 41.27 35.05 39.76 36.51 40.64 38.53 40.43 39.78 39.28 41.03 38.13 41.4 36.13 40.65 34.6 39.9 33.08 38.08 32.16 36.41 32.45 37.35 32.1 37.89 30.92 37.55 29.98 37.2 29.03 36.03 28.48 35.08 28.82 36.43 27.83 36.61 25.59 35.43 24.4 34.74 23.7 33.7 23.48 32.75 23.65 31.41 23.9 31.52 24.53 30.72 23.48 29.38 21.71 28.76 19.98 26.2 19.65Z" fill="#377735"/><path d="M39.66 26.23C38.45 24.99 37.96 23.1 38.41 21.43 38.86 19.76 40.25 18.38 41.92 17.92 43.59 17.47 45.48 17.96 46.72 19.17 47.34 17.7 49.1 16.64 50.66 16.95 52.22 17.26 53.46 18.75 53.47 20.34 53.48 21.93 52.27 23.45 50.72 23.78 52.02 23.62 53.11 25.14 53.1 26.44 53.09 27.74 51.78 28.88 50.49 28.71 51.38 29.72 51.92 30.78 51.8 32.12 51.69 33.46 50.85 34.76 49.6 35.26 48.35 35.76 46.75 35.33 46.04 34.19 46.23 35.44 45.95 36.54 45.13 37.51 44.64 38.09 43.99 38.55 43.25 38.69 42.51 38.83 41.68 38.61 41.18 38.04 40.69 37.47 40.61 36.54 41.1 35.96 40.18 36.78 38.54 36.61 37.52 35.92 36.49 35.23 36.03 33.81 36.45 32.64 36.87 31.48 38.13 30.68 39.36 30.8 38.33 31.27 37.05 30 36.87 28.89 36.68 27.79 38.53 26.13 39.66 26.23Z" fill="#377735"/><path d="M45.78 42.21C44.7 41.79 43.38 42.11 42.6 42.97 41.83 43.83 41.65 45.18 42.18 46.21 42.71 47.24 43.91 47.88 45.06 47.75 43.81 48.38 43.45 50.28 44 51.56 44.55 52.85 46.08 53.6 47.45 53.31 48.82 53.02 49.9 51.76 50.04 50.37 50.31 51.16 50.6 52.02 51.1 52.69 51.6 53.35 52.37 53.87 53.2 53.86 54.05 53.84 54.8 53.29 55.36 52.65 56.37 51.49 56.95 50.02 57.52 48.59 58.28 49.88 60.11 50.19 61.28 49.26 62.46 48.33 62.56 46.34 61.48 45.3 63.38 45.65 65.49 45.04 66.74 43.57 67.99 42.09 68.19 39.75 67.04 38.2 65.89 36.65 63.39 36.22 61.91 37.46 62.7 36.36 61.97 34.64 60.71 34.17 59.45 33.7 57.96 34.27 57.07 35.28 56.17 36.29 55.77 37.64 55.56 38.98 54.45 37.23 52.07 36.4 50.11 37.1 48.14 37.77 45.53 40.15 45.78 42.21Z" fill="#579C41"/><path d="M46.33 65.95C47.81 65.74 49.04 64.5 49.39 63.05 49.4 65.04 51.59 66.71 53.52 66.18 55.44 65.65 56.48 63.1 55.47 61.38 57 62.49 59.34 62.3 60.67 60.95 62 59.6 62.15 57.26 61.02 55.74 59.89 54.22 57.59 53.72 55.92 54.63 56.34 52.38 54.29 50 52 50.1 49.71 50.2 47.87 52.74 48.49 54.94 48.11 53.6 45.12 53.81 44.24 54.18 42.36 54.97 41.94 56.91 41.97 58.78 42.01 61.42 42.71 66.46 46.33 65.95Z" fill="#377735"/><path d="M20.92 31.07C19.79 32.94 20.18 35.59 21.8 37.05 19.78 35.51 16.36 36.59 15.6 39.02 14.84 41.44 17.03 44.29 19.56 44.18 17.89 45.64 17.67 48.47 19.1 50.17 20.53 51.87 23.36 52.13 25.08 50.73 24.49 51.52 24.59 52.69 25.17 53.48 25.75 54.27 26.73 54.71 27.7 54.83 29.45 55.04 31.29 54.23 32.33 52.8 33.37 51.37 33.57 49.37 32.83 47.77 34.47 48.56 36.69 47.77 37.44 46.11 38.2 44.45 37.35 42.26 35.68 41.53 38 40.73 39.07 37.52 37.7 35.49 36.33 33.46 32.97 33.23 31.34 35.06 33.01 33.18 29.47 29.32 27.85 28.83 25.61 28.14 22.2 28.95 20.92 31.07Z" fill="#579C41"/><path d="M38.38 52.73C38.85 51.21 38.17 49.41 36.81 48.58 35.45 47.75 33.54 47.97 32.41 49.09 31.27 50.21 31.02 52.11 31.82 53.48 30.22 53.09 28.4 53.49 27.24 54.67 26.08 55.84 25.73 57.8 26.56 59.22 27.39 60.64 29.43 61.26 30.84 60.4 29.3 61.27 28.83 63.55 29.83 65.01 30.83 66.47 33.03 66.89 34.54 65.99 36.06 65.09 36.75 63.04 36.18 61.37 36.22 62.92 37.8 63.93 39.35 63.99 40.9 64.06 42.4 62.78 42.57 61.24 42.74 59.7 41.57 58.12 40.04 57.84 41.62 57.58 42.71 55.71 42.17 54.2 41.63 52.7 39.76 51.92 38.38 52.73Z" fill="#579C41"/></g></svg>