<svg width="57.81" height="53.08" viewBox="0 0 57.81 53.08" xmlns="http://www.w3.org/2000/svg" xmlns:xlink="http://www.w3.org/1999/xlink" xml:space="preserve" overflow="hidden"><defs></defs><g id="XMLID_1_"><g id="XMLID_2_"><g id="XMLID_3_"><path d="M53.77 10.86 40.28 10.44C40.28 10.44 40.22 10.44 40.1 10.44L16.52 9.69 1.81 9.23C1.81 9.23 2.99 3.84 4.15 1.34 4.4 0.81 4.64 0.42 4.87 0.22 6.03-0.76 38.33 1.74 49.35 3.78 50.99 4.09 52.16 4.38 52.68 4.65 56.71 6.74 53.77 10.86 53.77 10.86Z" id="XMLID_8_" fill="#754C28"/><path d="M49.96 4.88 40.28 10.43C40.28 10.43 40.22 10.43 40.1 10.43 38.19 10.4 21.79 10.11 21.4 10.44 21.23 10.58 19.09 10.23 16.53 9.69 12.92 8.93 8.48 7.79 7.47 7.11 5.75 5.95 13.5 2.92 13.95 2.88 14.26 2.85 8.95 2.03 5.28 1.5 4.65 1.41 4.4 0.63 4.87 0.23 4.87 0.23 4.87 0.23 4.88 0.22 6.04-0.76 38.34 1.74 49.36 3.78L49.96 4.88Z" id="XMLID_7_" fill="#633F23"/><rect x="0" y="6.04" width="57.81" height="47.04" id="XMLID_6_" fill="#507B8E"/><path d="M57.81 6.04 57.81 38.39 0 23.41 0 16.59 38.86 23.1 9.68 6.04Z" id="XMLID_5_" fill="#4B6C87"/><path d="M57.81 48.08 57.81 53.09 0 53.09 0 48.08C10.61 48.07 45.59 48.08 57.81 48.08Z" id="XMLID_4_" fill="#2C435E"/></g></g></g></svg>