<svg width="103.29" height="120.89" viewBox="0 0 103.29 120.89" xmlns="http://www.w3.org/2000/svg" xmlns:xlink="http://www.w3.org/1999/xlink" xml:space="preserve" overflow="hidden"><defs></defs><g><g><path d="M45.84 28.37C47.46 26.95 48.92 25.66 50.39 24.38 51.52 23.4 51.77 23.4 52.88 24.36 54.15 25.46 55.41 26.58 56.67 27.68 56.89 27.87 57.13 28.05 57.38 28.25 57.52 27.68 57.59 27.18 57.76 26.71 57.96 26.16 58.36 26.06 58.85 26.39 59.03 26.51 59.19 26.65 59.35 26.8 69.57 36.62 79.87 46.36 89.98 56.3 94.46 60.71 98.54 65.52 102.8 70.16 103.5 70.93 103.45 71.05 102.56 71.99 100.54 74.16 98.55 76.35 96.53 78.52 85.6 90.3 74.39 101.8 62.29 112.42 59.31 115.04 56.15 117.46 53.09 119.99 51.63 121.2 51.66 121.21 50.25 120.01 45.61 116.08 40.83 112.31 36.34 108.22 27.85 100.48 19.69 92.39 11.89 83.95 8.26 80.02 4.59 76.14 0.94 72.23 0.8 72.08 0.67 71.88 0.5 71.78-0.23 71.35-0.05 70.83 0.36 70.33 0.77 69.84 1.24 69.4 1.67 68.92 5.64 64.6 9.44 60.11 13.61 56 22.88 46.87 32.34 37.92 41.72 28.9 42.47 28.18 43.21 27.45 44 26.78 44.3 26.52 44.9 26.17 45.06 26.29 45.4 26.54 45.57 27.05 45.76 27.48 45.85 27.67 45.81 27.93 45.84 28.37ZM58.64 27.79C58.58 28.12 58.51 28.32 58.5 28.52 58.35 31.45 58.21 34.38 58.06 37.31 57.8 42.37 57.56 47.44 57.27 52.5 56.76 61.25 56.11 70 55.7 78.76 55.13 91.07 54.27 103.35 52.93 115.59 52.83 116.48 52.75 117.37 52.66 118.27 52.73 118.31 52.81 118.35 52.88 118.39 70.65 104.26 86.17 87.81 101.52 71.32 88.4 55.7 73.45 41.9 58.64 27.79ZM50.64 118.55C50.61 118.01 50.61 117.74 50.58 117.48 50.18 113.44 49.71 109.4 49.4 105.35 48.82 97.71 48.3 90.06 47.84 82.41 47.4 75.09 47.1 67.77 46.69 60.45 46.1 49.9 45.45 39.36 44.83 28.81 44.81 28.52 44.78 28.22 44.74 27.74 29.85 41.9 14.9 55.72 1.79 71.32 17.16 87.82 32.67 104.28 50.64 118.55ZM51.54 111.47C51.6 111.47 51.67 111.47 51.73 111.47 51.77 111.22 51.82 110.97 51.85 110.71 53.29 98.2 53.75 85.61 54.59 73.05 55.23 63.42 55.89 53.79 56.53 44.16 56.83 39.65 57.1 35.14 57.35 30.62 57.37 30.23 57.19 29.7 56.91 29.45 55.38 28.09 53.78 26.81 52.24 25.47 51.8 25.09 51.5 25.1 51.07 25.47 49.52 26.81 47.93 28.09 46.39 29.45 46.12 29.69 45.94 30.18 45.95 30.54 46.04 32.68 46.2 34.81 46.33 36.94 46.65 42.12 46.95 47.31 47.3 52.49 47.87 61 48.47 69.5 49.06 78 49.74 87.81 50.42 97.63 51.12 107.44 51.21 108.79 51.4 110.13 51.54 111.47Z" fill="#2F4042"/><path d="M58.64 27.79C73.45 41.9 88.4 55.7 101.52 71.32 86.17 87.8 70.65 104.26 52.88 118.39 52.81 118.35 52.73 118.31 52.66 118.27 52.75 117.38 52.83 116.49 52.93 115.59 54.27 103.34 55.12 91.06 55.7 78.76 56.11 70 56.76 61.26 57.27 52.5 57.57 47.44 57.8 42.37 58.06 37.31 58.21 34.38 58.35 31.45 58.5 28.52 58.51 28.32 58.58 28.13 58.64 27.79Z" fill="#FFF6A4"/><path d="M50.64 118.55C32.67 104.28 17.16 87.82 1.79 71.32 14.9 55.72 29.85 41.9 44.73 27.74 44.77 28.22 44.8 28.52 44.82 28.81 45.44 39.36 46.09 49.9 46.68 60.45 47.09 67.77 47.39 75.09 47.83 82.41 48.29 90.06 48.82 97.71 49.39 105.35 49.7 109.4 50.17 113.44 50.57 117.48 50.6 117.74 50.61 118.01 50.64 118.55Z" fill="#FFF6A4"/><path d="M51.54 111.47C51.4 110.13 51.21 108.78 51.11 107.43 50.41 97.62 49.73 87.8 49.05 77.99 48.46 69.49 47.87 60.99 47.3 52.48 46.95 47.3 46.65 42.11 46.33 36.93 46.2 34.8 46.04 32.66 45.95 30.53 45.94 30.17 46.12 29.68 46.39 29.44 47.92 28.08 49.52 26.8 51.07 25.46 51.5 25.09 51.8 25.08 52.24 25.46 53.79 26.8 55.39 28.08 56.91 29.44 57.19 29.69 57.37 30.23 57.35 30.61 57.11 35.12 56.83 39.64 56.53 44.15 55.89 53.78 55.23 63.41 54.59 73.04 53.76 85.6 53.29 98.18 51.85 110.7 51.82 110.95 51.77 111.21 51.73 111.46 51.67 111.47 51.61 111.47 51.54 111.47Z" fill="#F9E467"/></g><g><path d="M95.45 4.26C95.27 3.43 94.81 2.82 94.48 2.14 94.29 1.76 94.09 1.38 93.96 0.97 93.85 0.64 93.9 0.28 94.26 0.09 94.64-0.11 95.02 0.02 95.22 0.36 96.05 1.78 96.86 3.22 97.31 4.82 97.43 5.24 97.34 5.68 97.08 6.04 96.31 7.14 95.54 8.24 94.73 9.31 94.45 9.68 94.06 10.23 93.54 9.86 93.01 9.48 93.35 8.91 93.63 8.47 93.99 7.9 94.4 7.37 94.8 6.83 95.44 5.94 95.44 5.92 94.31 5.77 92.27 5.5 90.23 5.64 88.18 5.77 76.38 6.5 65.46 16.46 62.7 26.17 62.58 26.58 62.41 26.97 62.24 27.37 62.16 27.56 62.03 27.8 61.78 27.71 61.52 27.62 61.59 27.36 61.65 27.16 61.83 26.55 62.01 25.93 62.21 25.32 66.34 12.51 78.66 2.69 94.14 4.1 94.56 4.13 94.97 4.2 95.45 4.26Z" fill="#2F4042"/><path d="M7.88 6.03C8.28 6.85 8.9 7.49 9.37 8.22 9.7 8.73 10.24 9.4 9.64 9.84 8.99 10.32 8.58 9.51 8.23 9.05 7.51 8.1 6.84 7.12 6.15 6.15 5.79 5.64 5.74 5.08 5.94 4.5 6.41 3.1 7.13 1.83 7.83 0.54 8.04 0.14 8.41-0.15 8.89 0.09 9.37 0.33 9.33 0.8 9.14 1.21 8.67 2.2 8.16 3.16 7.59 4.31 10.09 3.83 12.43 3.91 14.76 4.14 25.64 5.23 33.52 10.81 38.79 20.26 39.97 22.37 40.85 24.61 41.48 26.95 41.55 27.2 41.77 27.54 41.42 27.68 41 27.85 40.92 27.41 40.84 27.15 40.02 24.51 39 21.96 37.42 19.69 30.71 10.04 21.65 5.02 9.72 5.7 9.11 5.73 8.5 5.78 7.88 6.03Z" fill="#2F4042"/></g></g></svg>