<svg width="182.77" height="412.87" viewBox="0 0 182.77 412.87" xmlns="http://www.w3.org/2000/svg" xmlns:xlink="http://www.w3.org/1999/xlink" xml:space="preserve" overflow="hidden"><defs></defs><g><g><g><g><path d="M56.9 308.88C56.9 308.88 59.97 312.98 47.24 389.78 45.5 400.3 34.72 392.37 34.72 392.37 34.72 392.37 28.65 322.59 29.91 311.61 31.17 300.62 56.9 308.88 56.9 308.88Z" fill="#F1AE9E"/></g></g><g><g><path d="M34.72 402.93 34.85 407.42C34.85 407.42 64.78 412.16 75.92 407.54 75.92 407.54 80.41 406.2 77.91 401.46 76.02 397.85 34.72 402.93 34.72 402.93Z" fill="#FFFFFF"/></g><g><path d="M34.72 391.08 34.72 404.41C34.72 404.41 61.51 409.41 76.51 404.67 76.51 404.67 84.2 401.34 67.79 396.72 51.38 392.11 47.9 389.57 47.9 389.57 47.9 389.57 40.63 396.27 34.72 391.08Z" fill="#008EB7"/></g><g><path d="M38.37 397.42C36.62 396.92 34.94 393.66 35.06 391.33 39.29 393.77 42.58 392.71 44.11 392 44.02 394.97 41.34 398.27 38.37 397.42Z" fill="#00668E"/></g><g><path d="M70.73 397.61C83.21 401.76 76.51 404.66 76.51 404.66 73.42 405.63 69.82 406.2 66.07 406.47 66.44 402.95 67.74 399.82 70.73 397.61Z" fill="#00668E"/></g></g><g><g><path d="M51.21 383.38C62.75 312.59 59.87 310.12 59.87 310.12 59.87 310.12 27.49 298.5 26.23 309.49 25.25 318.05 28.91 364.57 30.48 383.69L51.21 383.38Z" fill="#004B72"/></g></g><g><path d="M59.87 311.56C59.87 311.56 67.76 240.36 66.73 217.01L21.63 217.59C21.63 217.59 11.44 236.81 14.88 258.66 17.64 276.14 26.99 308.64 26.54 320.17 26.54 320.16 48.49 327.81 59.87 311.56Z" fill="#004B72"/></g><g><g><path d="M157.32 149.82C157.32 149.82 152.69 138.87 167.41 131.32 167.41 131.32 169.48 133.29 165.84 138.96 163.25 143 160.92 146.36 159.15 148.26 158.44 149.04 157.83 149.57 157.32 149.82Z" fill="#F1AE9E"/></g><g><path d="M164.37 157.26C168.04 155.87 171.59 153.71 174.55 151.15 178.39 147.83 183.7 142.94 182.62 137.36 182.25 135.43 181.55 133.65 180.4 132.08 179.17 130.4 177.28 128.87 175.33 129.66 172.25 130.91 169.98 133.46 167.75 135.83 165.58 138.12 162.68 139.57 160.41 141.83 158.06 144.17 156.86 150.1 157.33 150.92 157.82 151.74 164.37 157.26 164.37 157.26Z" fill="#F1AE9E"/></g><g><g><path d="M105.32 196.56C107.53 196.45 108.17 196.78 112.51 192.98 115.9 190.01 116.52 186.62 115.46 183.9 96.24 148.79 73.33 123.96 64.25 125.54 49.38 128.13 58.77 143.21 58.77 143.21 58.77 143.21 75.87 167.5 91.15 185.44 95.57 190.64 98.3 193 102.71 197.87 102.71 197.87 105.32 196.55 105.32 196.56Z" fill="#F1AE9E"/></g></g><g><g><path d="M159.48 147.25C162.96 149.01 165.66 152.33 168.66 155.04 160.01 166.18 148.9 175.43 137.43 183.53 128.76 189.66 119.93 195.34 110.46 200.14 109.57 200.59 108.62 201.05 107.63 200.95 106.93 200.89 106.29 200.55 105.7 200.18 104.2 199.25 102.83 198.03 101.79 196.6 100.61 194.96 100.68 192.91 100.73 190.93 100.78 188.88 100.96 185.07 103.17 184.06 123.08 174.95 146.51 158.97 159.48 147.25Z" fill="#F1AE9E"/></g></g><g><g><g><path d="M60.69 120.15C69.33 119.36 94.06 141.54 109.64 171.19 106.29 178.74 93.03 187.28 84.17 188.34 70.34 168.69 55 142.71 55 142.71 55 142.71 44.21 121.67 60.69 120.15Z" fill="#F0F0F0"/></g></g></g></g><g><g><path d="M107.63 311.7C107.63 311.7 110.7 315.8 97.96 392.6 96.22 403.12 85.44 395.19 85.44 395.19 85.44 395.19 79.37 325.41 80.63 314.43 81.91 303.45 107.63 311.7 107.63 311.7Z" fill="#F1AE9E"/></g></g><g><path d="M106.16 319.11C106.16 319.11 74.96 253.57 62.69 233.67L28.67 256.12C28.67 256.12 33.99 267.8 45.16 283.37 59.19 302.92 80.14 328.09 85.35 338.39 85.35 338.38 104.13 338.84 106.16 319.11Z" fill="#F1AE9E"/></g><g><g><path d="M101.46 387.16C113 316.37 110.12 313.9 110.12 313.9 110.12 313.9 77.74 302.28 76.48 313.27 75.5 321.83 79.16 368.36 80.74 387.47L101.46 387.16Z" fill="#005885"/></g></g><g><path d="M110.29 314.65C110.29 314.65 82.56 248.6 70.29 228.7L15.6 255.85C15.6 255.85 23.34 272.28 37.89 284.75 51.32 296.27 80.15 328.09 85.36 338.39 85.35 338.38 108.26 334.38 110.29 314.65Z" fill="#005885"/></g><g><path d="" fill="#F1AE9E"/></g><g><path d="M40 81.89C47.07 77.27 60.18 84.73 60.18 84.73L60.47 122.55C60.47 122.55 35.31 127.63 35.58 122.16 36.19 109.78 35.11 85.08 40 81.89Z" fill="#F1AE9E"/></g><g><path d="M49.9 110.99C54.28 113.26 57.91 116.98 60.41 121.22 60.43 121.25 60.45 121.29 60.47 121.33L60.19 84.75C60.19 84.75 47.08 77.28 40.01 81.91 37.6 83.48 35.96 97.32 35.87 110.33 40.4 109.81 45.46 108.69 49.9 110.99Z" fill="#E4A191"/></g><g><path d="M73.68 16.9C70.88 11.74 74.74 11.38 68.61 9.59 62.32 7.76 55.59 7.08 48.91 7.3 42.23 7.08 40.01 14.29 33.74 16.12 30.44 17.08 27.52 18.21 25 20.28 21.95 22.79 22.37 25.18 21.35 28.5 20.7 30.6 19.66 32.53 18.87 34.59 17.48 38.25 15.98 42.16 15.46 45.98 14.4 53.81 14.9 61.57 16.15 69.34 17.42 77.2 15.16 84.52 20.88 91.15 28.46 99.92 34.35 106.32 52.71 106.24 60.31 106.2 73.44 106.09 76 98.43 79.41 88.21 79.79 83.52 81.42 80.94 82.91 78.58 88.16 78.03 89.19 75.74 89.53 74.99 84.38 67.79 84.28 63.76 84.21 60.88 85.46 50.5 85.6 47.81 86.53 29.7 79.08 26.86 73.68 16.9Z" fill="#F1AE9E"/></g><g><path d="M6.18 24.13C13.2 9.47 18.21 14.58 19.6 10.92 20.38 8.86 20.7 30.6 21.35 28.5 22.37 25.18 21.95 22.79 25 20.28 27.52 18.21 30.44 17.08 33.74 16.12 40.01 14.29 42.23 7.08 48.91 7.3 50.88 7.24 52.84 7.27 54.81 7.37 55.67 12.12 55.33 17.11 54.32 22.24 54.07 23.53 55.54 24.6 55.55 26.05 55.56 28.07 54.5 30.62 53.92 32.54 52.61 36.84 50.7 40.91 48.08 44.57 46.37 46.96 44.21 49.06 42.72 51.62 41.01 54.57 38.87 57.56 37.81 60.85 37.42 62.06 37.63 63.38 36.31 63.75 35.09 64.08 33.6 62.67 32.6 62.1 31.57 61.51 29 58.88 28.09 58.76 26.36 58.53 25.53 61.39 25.4 62.69 25 66.47 27.66 70.16 29.34 73.32 33.68 81.51 30.62 90.86 25.53 96.73 12.19 92.62 7.97 77.27 5.36 69.74-1.25 50.75-1.06 39.24 6.18 24.13Z" fill="#D28404"/></g><g><g><path d="M19.37 65.67C20.69 72.88 30.94 82.65 33.66 76.55 35.33 72.82 35.29 68.44 33.97 61.23 32.65 54.02 35.46 49.24 28.89 50.44 22.32 51.64 18.06 58.46 19.37 65.67Z" fill="#F1AE9E"/></g><g><path d="M29.86 57.08C29.98 57.06 30.09 57.07 30.21 57.05 30.24 57.11 30.26 57.17 30.31 57.23 32.48 59.73 31.17 64.93 31.2 67.93 31.21 69.21 31.3 70.46 31.44 71.71 28.26 71.7 25.37 69.16 24.71 65.54 23.98 61.52 26.29 57.73 29.86 57.08Z" fill="#EE7379"/></g></g><g><path d="M12.95 157.17C12.95 144.4 25.51 121.02 35.57 116.99 41.35 125.42 51.2 124.03 59.29 120.48 59.97 120.18 60.24 119.67 60.27 119.13 70.76 124.89 79.04 135.56 81.04 148.03 82.48 157.05 83.93 172.93 85.37 196.75 85.51 199.04 85.51 250.42 83.93 250.88 83.93 250.88 71.17 256.47 49.65 256.66 28.13 256.84 13.56 254.86 13.56 254.86 11.96 229.68 12.95 172.56 12.95 157.17Z" fill="#FFFFFF"/></g><g><g><path d="M75.03 76.21C74.01 79.62 69.22 81.2 64.34 79.74 59.45 78.28 56.32 74.33 57.34 70.92 58.36 67.51 63.15 65.92 68.03 67.39 72.92 68.85 76.05 72.8 75.03 76.21Z" fill="#EE9592"/></g></g><g><g><path d="M60.97 52.76C60.29 52.7 59.66 52.28 59.35 51.61 58.9 50.62 59.33 49.45 60.33 48.99 71.43 43.91 78.44 46.16 78.73 46.26 79.76 46.61 80.32 47.73 79.97 48.76 79.63 49.78 78.51 50.34 77.49 50.01 77.35 49.97 71.47 48.24 61.97 52.58 61.64 52.74 61.3 52.79 60.97 52.76Z" fill="#B57303"/></g></g><g><path d="M77.52 60.33C77.52 63.08 76.08 65.31 74.3 65.31 72.52 65.31 71.08 63.08 71.08 60.33 71.08 57.58 72.52 55.35 74.3 55.35 76.08 55.35 77.52 57.58 77.52 60.33Z" fill="#3A0D00"/></g><g><path d="M68.72 82.95C68.1 91.93 76.93 95.95 76.93 95.95L79.77 85.41 68.72 82.95Z" fill="#FFFFFF"/></g><g><g><path d="M84.73 406.23 84.86 410.72C84.86 410.72 114.79 415.46 125.94 410.85 125.94 410.85 130.43 409.5 127.93 404.76 126.03 401.16 84.73 406.23 84.73 406.23Z" fill="#FFFFFF"/></g><g><path d="M84.73 394.38 84.73 407.71C84.73 407.71 111.52 412.71 126.51 407.96 126.51 407.96 134.2 404.63 117.8 400.01 101.4 395.39 97.91 392.85 97.91 392.85 97.91 392.85 90.64 399.57 84.73 394.38Z" fill="#008EB7"/></g><g><path d="M88.39 400.73C86.63 400.22 84.95 396.96 85.08 394.64 89.31 397.07 92.59 396.02 94.13 395.31 94.04 398.27 91.35 401.58 88.39 400.73Z" fill="#00668E"/></g><g><path d="M120.74 400.92C133.22 405.06 126.52 407.97 126.52 407.97 123.43 408.95 119.84 409.51 116.08 409.78 116.45 406.25 117.75 403.13 120.74 400.92Z" fill="#00668E"/></g></g></g><g><g><g><g><path d="M17.17 216.6C14.92 217.49 14.43 218.06 8.33 216.56 3.57 215.4 0.9 212.41 0.68 209.5 3.21 169.49 19.55 130.16 29.33 127.56 45.32 123.31 36.92 140.87 36.92 140.87 36.92 140.87 29.36 189.7 23.22 212.69 22.08 216.92 17.61 211.82 17.17 216.6 17.17 216.59 17.17 216.59 17.17 216.6Z" fill="#F1AE9E"/></g></g></g><g><g><g><path d="M28.11 124.09C19.72 126.32 4.42 158.38 0 191.59 5.75 197.53 21.14 200.98 29.83 198.92 36.04 175.7 41.5 146.04 41.5 146.04 41.5 146.04 44.1 119.84 28.11 124.09Z" fill="#F6F6F6"/></g></g></g></g><g><g><path d="M0.55 209.82C3.56 206.17 5.07 207.78 12.44 207.05 18.62 206.43 23.5 207.3 23.5 207.29 27.97 226.85 35.9 252.72 44.83 263.78 54.84 276.18 36.15 270.3 36.15 270.3 23.04 254.89 10.41 235.36 0.55 209.82Z" fill="#F1AE9E"/></g></g><g><path d="M38.81 256.39C38.81 256.39 50.6 253.18 55.47 267.88 55.47 267.88 53.13 269.63 48.12 265.59 44.55 262.71 41.62 260.16 40.03 258.29 39.39 257.54 38.97 256.89 38.81 256.39Z" fill="#F1AE9E"/></g><g><path d="M33.21 265.81C34.48 269.25 36.49 272.59 38.86 275.38 41.94 279 46.49 284 51.71 283.03 53.51 282.69 55.19 282.05 56.67 280.99 58.25 279.85 59.7 278.1 58.97 276.27 57.82 273.38 55.44 271.24 53.25 269.14 51.13 267.1 49.78 264.37 47.68 262.23 45.51 260.01 39.97 258.86 39.19 259.29 38.42 259.71 33.21 265.81 33.21 265.81Z" fill="#F1AE9E"/></g><g><path d="M62.8 259.33C53.22 272.45 51.81 273.08 40.27 278.66 37.95 288.65 60.62 294.28 66.07 286.78 69.75 281.72 69.72 264.11 63.76 261.25" fill="#005885"/></g><g><g><g><path d="M5.01 26.47C2.37 24.83 0.25 22.81 1.04 20.36 2.24 16.64 8.92 10 12.11 7.74 21.68 0.95 30.12 11.16 29.24 20.78 28.3 31.04 21.71 31.11 13.92 30.45 8.42 29.73 7.17 27.81 5.01 26.47Z" fill="#D59000"/></g></g></g><g><path d="M21.5 19.53C20.93 17.45 20.6 15.47 20.65 13.83 20.72 11.35 22.68 8.06 22.59 6.4 22.52 5.16 34.32 1.79 35.78 1.42 40.68 0.17 45.61-0.3 50.66 0.2 61.35 1.26 71.74 5.23 81.54 9.35 90.49 13.11 95.58 10.96 95.4 12.53 93.39 30.3 71.98 37.7 65.69 39.91 59.49 42.09 52.76 42.97 46.22 42.11 39.13 41.17 32.18 37.79 27.62 32.19 25.3 29.34 22.79 24.19 21.5 19.53Z" fill="#D59000"/></g></g></svg>