<svg width="196.19" height="147.33" viewBox="0 0 196.19 147.33" xmlns="http://www.w3.org/2000/svg" xmlns:xlink="http://www.w3.org/1999/xlink" xml:space="preserve" overflow="hidden"><defs></defs><g><g><g><path d="M193.58 139.2C193.58 143.69 190.27 147.33 186.19 147.33L21.84 147.33C17.76 147.33 14.45 143.69 14.45 139.2L14.45 139.2C14.45 134.71 17.76 131.07 21.84 131.07L186.19 131.07C190.27 131.06 193.58 134.71 193.58 139.2L193.58 139.2Z" fill="#8DAF38"/></g></g><g><g><path d="M20.05 131.31C20.05 131.31 78.18 154.09 186.18 131.06L20.05 131.31Z" fill="#AFCC54"/></g></g><g><g><g><g><rect x="29.09" y="103.35" width="8.1" height="33.09" fill="#B6712C"/></g></g></g><g><g><g><rect x="29.09" y="103.35" width="2.98" height="31.66" fill="#A36028"/></g></g></g><g><g><g><path d="M14.86 75.45C14.93 75.21 14.98 74.96 15.06 74.72 11.37 73.25 8.77 69.65 8.77 65.44 8.77 59.92 13.25 55.44 18.77 55.44 19.58 55.44 20.37 55.55 21.13 55.73 20.62 54.11 20.35 52.38 20.35 50.59 20.35 41.09 28.05 33.39 37.55 33.39 47.05 33.39 54.75 41.09 54.75 50.59 54.75 51.27 54.7 51.93 54.62 52.59 58.04 54.8 60.31 58.64 60.31 63.02 60.31 66.09 59.19 68.9 57.35 71.06 59.18 72.97 60.31 75.55 60.31 78.41 60.31 78.6 60.29 78.78 60.28 78.96 63.78 80.23 66.29 83.58 66.29 87.52 66.29 92.55 62.21 96.63 57.18 96.63 56.26 96.63 55.37 96.49 54.53 96.24 54.66 97.03 54.74 97.84 54.74 98.67 54.74 106.91 48.06 113.59 39.82 113.59 32.61 113.59 26.6 108.48 25.2 101.69 22.52 104.12 18.98 105.61 15.08 105.61 6.75 105.61 0 98.85 0 90.52 0 82.27 6.63 75.57 14.86 75.45Z" fill="#8DAF38"/></g></g></g><g><g><g><path d="M57.27 89.42C57.28 89.24 57.3 89.05 57.3 88.87 57.3 86.02 56.17 83.43 54.34 81.52 56.19 79.35 57.3 76.55 57.3 73.48 57.3 69.1 55.03 65.26 51.61 63.05 51.69 62.39 51.74 61.73 51.74 61.05 51.74 51.55 44.04 43.85 34.54 43.85 28.67 43.85 23.49 46.8 20.38 51.29 20.36 50.94 20.34 50.59 20.34 50.24 20.34 40.74 28.04 33.04 37.54 33.04 47.04 33.04 54.74 40.74 54.74 50.24 54.74 50.92 54.69 51.58 54.61 52.24 58.03 54.45 60.3 58.29 60.3 62.67 60.3 65.74 59.18 68.55 57.34 70.71 59.17 72.62 60.3 75.2 60.3 78.06 60.3 78.25 60.28 78.43 60.27 78.61 63.77 79.88 66.28 83.23 66.28 87.17 66.28 90.18 64.8 92.82 62.55 94.48 61.58 92.15 59.67 90.29 57.27 89.42Z" fill="#7DA032"/></g></g></g></g><g><g><g><g><rect x="140.48" y="91.72" width="10.57" height="43.17" fill="#B6712C"/></g></g></g><g><g><g><rect x="140.48" y="91.72" width="3.89" height="41.3" fill="#A36028"/></g></g></g><g><g><g><path d="M121.91 55.32C122 55 122.07 54.68 122.17 54.37 117.36 52.45 113.96 47.75 113.96 42.26 113.96 35.05 119.8 29.21 127.01 29.21 128.07 29.21 129.1 29.35 130.09 29.59 129.43 27.47 129.07 25.22 129.07 22.89 129.07 10.5 139.12 0.45 151.51 0.45 163.9 0.45 173.95 10.5 173.95 22.89 173.95 23.77 173.89 24.64 173.79 25.49 178.25 28.38 181.21 33.39 181.21 39.1 181.21 43.11 179.75 46.77 177.34 49.59 179.73 52.08 181.21 55.45 181.21 59.18 181.21 59.42 181.19 59.66 181.17 59.9 185.74 61.56 189.01 65.92 189.01 71.07 189.01 77.64 183.69 82.96 177.12 82.96 175.92 82.96 174.76 82.78 173.67 82.45 173.84 83.48 173.95 84.54 173.95 85.62 173.95 96.37 165.23 105.09 154.48 105.09 145.08 105.09 137.23 98.42 135.41 89.56 131.92 92.73 127.29 94.68 122.21 94.68 111.34 94.68 102.53 85.87 102.53 75 102.53 64.22 111.18 55.48 121.91 55.32Z" fill="#8DAF38"/></g></g></g><g><g><g><path d="M177.25 73.55C177.26 73.31 177.29 73.07 177.29 72.83 177.29 69.11 175.81 65.73 173.42 63.24 175.83 60.41 177.29 56.75 177.29 52.75 177.29 47.04 174.33 42.03 169.87 39.14 169.97 38.28 170.03 37.42 170.03 36.54 170.03 24.15 159.98 14.1 147.59 14.1 139.93 14.1 133.17 17.95 129.12 23.81 129.09 23.36 129.07 22.9 129.07 22.44 129.07 10.05 139.12 0 151.51 0 163.9 0 173.95 10.05 173.95 22.44 173.95 23.32 173.89 24.19 173.79 25.04 178.25 27.93 181.21 32.94 181.21 38.65 181.21 42.66 179.75 46.32 177.34 49.14 179.73 51.63 181.21 55 181.21 58.73 181.21 58.97 181.19 59.21 181.17 59.45 185.74 61.11 189.01 65.47 189.01 70.62 189.01 74.55 187.08 78 184.15 80.16 182.87 77.11 180.38 74.68 177.25 73.55Z" fill="#7DA032"/></g></g></g></g><g><g><rect x="26.83" y="71.32" width="157.64" height="65.17" fill="#E3924F"/></g></g><g><g><rect x="23.43" y="69.63" width="163.79" height="4.48" fill="#7A4D39"/></g></g><g><g><rect x="66.05" y="46.87" width="78.43" height="89.61" fill="#CE8249"/></g></g><g><g><rect x="66.05" y="42.61" width="78.43" height="4.26" fill="#7A4D39"/></g></g><g><g><g><g><rect x="32.34" y="80.63" width="10.36" height="10.55" fill="#39828F"/></g></g></g><g><g><g><path d="M40.52 80.63 32.34 85.12 32.34 89.78 42.7 84.56 42.7 80.63 40.52 80.63Z" fill="#619BA5"/></g></g></g><g><g><g><path d="M32.34 90.37 42.7 85.2 42.7 86.14 32.34 91.17Z" fill="#619BA5"/></g></g></g><g><g><g><rect x="37.03" y="80.63" width="0.85" height="10.55" fill="#DFC2C2"/></g></g></g><g><g><g><rect x="32.34" y="85.5" width="10.36" height="0.86" fill="#DFC2C2"/></g></g></g><g><g><g><rect x="32.34" y="79.68" width="10.36" height="0.95" fill="#FFFFFF"/></g></g></g><g><g><g><rect x="31.4" y="79.68" width="0.94" height="11.49" fill="#FFFFFF"/></g></g></g><g><g><g><rect x="42.7" y="79.68" width="1" height="11.49" fill="#FFFFFF"/></g></g></g><g><g><g><rect x="31.4" y="91.17" width="12.3" height="1.12" fill="#FFFFFF"/></g></g></g></g><g><g><g><g><rect x="48.81" y="80.63" width="10.36" height="10.55" fill="#39828F"/></g></g></g><g><g><g><path d="M56.99 80.63 48.81 85.12 48.81 89.78 59.17 84.56 59.17 80.63 56.99 80.63Z" fill="#619BA5"/></g></g></g><g><g><g><path d="M48.81 90.37 59.17 85.2 59.17 86.14 48.81 91.17Z" fill="#619BA5"/></g></g></g><g><g><g><rect x="53.5" y="80.63" width="0.85" height="10.55" fill="#DFC2C2"/></g></g></g><g><g><g><rect x="48.81" y="85.5" width="10.36" height="0.86" fill="#DFC2C2"/></g></g></g><g><g><g><rect x="48.81" y="79.68" width="10.36" height="0.95" fill="#FFFFFF"/></g></g></g><g><g><g><rect x="47.87" y="79.68" width="0.94" height="11.49" fill="#FFFFFF"/></g></g></g><g><g><g><rect x="59.17" y="79.68" width="1" height="11.49" fill="#FFFFFF"/></g></g></g><g><g><g><rect x="47.87" y="91.17" width="12.3" height="1.12" fill="#FFFFFF"/></g></g></g></g><g><g><g><g><rect x="32.34" y="97.43" width="10.36" height="10.55" fill="#39828F"/></g></g></g><g><g><g><path d="M40.52 97.43 32.34 101.92 32.34 106.58 42.7 101.36 42.7 97.43 40.52 97.43Z" fill="#619BA5"/></g></g></g><g><g><g><path d="M32.34 107.17 42.7 102 42.7 102.94 32.34 107.97Z" fill="#619BA5"/></g></g></g><g><g><g><rect x="37.03" y="97.43" width="0.85" height="10.55" fill="#DFC2C2"/></g></g></g><g><g><g><rect x="32.34" y="102.3" width="10.36" height="0.86" fill="#DFC2C2"/></g></g></g><g><g><g><rect x="32.34" y="96.48" width="10.36" height="0.95" fill="#FFFFFF"/></g></g></g><g><g><g><rect x="31.4" y="96.48" width="0.94" height="11.49" fill="#FFFFFF"/></g></g></g><g><g><g><rect x="42.7" y="96.48" width="1" height="11.49" fill="#FFFFFF"/></g></g></g><g><g><g><rect x="31.4" y="107.97" width="12.3" height="1.12" fill="#FFFFFF"/></g></g></g></g><g><g><g><g><rect x="48.81" y="97.43" width="10.36" height="10.55" fill="#39828F"/></g></g></g><g><g><g><path d="M56.99 97.43 48.81 101.92 48.81 106.58 59.17 101.36 59.17 97.43 56.99 97.43Z" fill="#619BA5"/></g></g></g><g><g><g><path d="M48.81 107.17 59.17 102 59.17 102.94 48.81 107.97Z" fill="#619BA5"/></g></g></g><g><g><g><rect x="53.5" y="97.43" width="0.85" height="10.55" fill="#DFC2C2"/></g></g></g><g><g><g><rect x="48.81" y="102.3" width="10.36" height="0.86" fill="#DFC2C2"/></g></g></g><g><g><g><rect x="48.81" y="96.48" width="10.36" height="0.95" fill="#FFFFFF"/></g></g></g><g><g><g><rect x="47.87" y="96.48" width="0.94" height="11.49" fill="#FFFFFF"/></g></g></g><g><g><g><rect x="59.17" y="96.48" width="1" height="11.49" fill="#FFFFFF"/></g></g></g><g><g><g><rect x="47.87" y="107.97" width="12.3" height="1.12" fill="#FFFFFF"/></g></g></g></g><g><g><g><g><rect x="32.34" y="114.23" width="10.36" height="10.55" fill="#39828F"/></g></g></g><g><g><g><path d="M40.52 114.23 32.34 118.72 32.34 123.38 42.7 118.16 42.7 114.23 40.52 114.23Z" fill="#619BA5"/></g></g></g><g><g><g><path d="M32.34 123.97 42.7 118.8 42.7 119.74 32.34 124.77Z" fill="#619BA5"/></g></g></g><g><g><g><rect x="37.03" y="114.23" width="0.85" height="10.55" fill="#DFC2C2"/></g></g></g><g><g><g><rect x="32.34" y="119.1" width="10.36" height="0.86" fill="#DFC2C2"/></g></g></g><g><g><g><rect x="32.34" y="113.28" width="10.36" height="0.95" fill="#FFFFFF"/></g></g></g><g><g><g><rect x="31.4" y="113.28" width="0.94" height="11.49" fill="#FFFFFF"/></g></g></g><g><g><g><rect x="42.7" y="113.28" width="1" height="11.49" fill="#FFFFFF"/></g></g></g><g><g><g><rect x="31.4" y="124.77" width="12.3" height="1.12" fill="#FFFFFF"/></g></g></g></g><g><g><g><g><rect x="48.81" y="114.23" width="10.36" height="10.55" fill="#39828F"/></g></g></g><g><g><g><path d="M56.99 114.23 48.81 118.72 48.81 123.38 59.17 118.16 59.17 114.23 56.99 114.23Z" fill="#619BA5"/></g></g></g><g><g><g><path d="M48.81 123.97 59.17 118.8 59.17 119.74 48.81 124.77Z" fill="#619BA5"/></g></g></g><g><g><g><rect x="53.5" y="114.23" width="0.85" height="10.55" fill="#DFC2C2"/></g></g></g><g><g><g><rect x="48.81" y="119.1" width="10.36" height="0.86" fill="#DFC2C2"/></g></g></g><g><g><g><rect x="48.81" y="113.28" width="10.36" height="0.95" fill="#FFFFFF"/></g></g></g><g><g><g><rect x="47.87" y="113.28" width="0.94" height="11.49" fill="#FFFFFF"/></g></g></g><g><g><g><rect x="59.17" y="113.28" width="1" height="11.49" fill="#FFFFFF"/></g></g></g><g><g><g><rect x="47.87" y="124.77" width="12.3" height="1.12" fill="#FFFFFF"/></g></g></g></g><g><g><g><g><rect x="167.24" y="80.63" width="10.36" height="10.55" fill="#39828F"/></g></g></g><g><g><g><path d="M175.42 80.63 167.24 85.12 167.24 89.78 177.59 84.56 177.59 80.63 175.42 80.63Z" fill="#619BA5"/></g></g></g><g><g><g><path d="M167.24 90.37 177.59 85.2 177.59 86.14 167.24 91.17Z" fill="#619BA5"/></g></g></g><g><g><g><rect x="171.93" y="80.63" width="0.85" height="10.55" fill="#DFC2C2"/></g></g></g><g><g><g><rect x="167.24" y="85.5" width="10.36" height="0.86" fill="#DFC2C2"/></g></g></g><g><g><g><rect x="167.24" y="79.68" width="10.36" height="0.95" fill="#FFFFFF"/></g></g></g><g><g><g><rect x="166.3" y="79.68" width="0.94" height="11.49" fill="#FFFFFF"/></g></g></g><g><g><g><rect x="177.59" y="79.68" width="1" height="11.49" fill="#FFFFFF"/></g></g></g><g><g><g><rect x="166.3" y="91.17" width="12.3" height="1.12" fill="#FFFFFF"/></g></g></g></g><g><g><g><g><rect x="167.24" y="97.43" width="10.36" height="10.55" fill="#39828F"/></g></g></g><g><g><g><path d="M175.42 97.43 167.24 101.92 167.24 106.58 177.59 101.36 177.59 97.43 175.42 97.43Z" fill="#619BA5"/></g></g></g><g><g><g><path d="M167.24 107.17 177.59 102 177.59 102.94 167.24 107.97Z" fill="#619BA5"/></g></g></g><g><g><g><rect x="171.93" y="97.43" width="0.85" height="10.55" fill="#DFC2C2"/></g></g></g><g><g><g><rect x="167.24" y="102.3" width="10.36" height="0.86" fill="#DFC2C2"/></g></g></g><g><g><g><rect x="167.24" y="96.48" width="10.36" height="0.95" fill="#FFFFFF"/></g></g></g><g><g><g><rect x="166.3" y="96.48" width="0.94" height="11.49" fill="#FFFFFF"/></g></g></g><g><g><g><rect x="177.59" y="96.48" width="1" height="11.49" fill="#FFFFFF"/></g></g></g><g><g><g><rect x="166.3" y="107.97" width="12.3" height="1.12" fill="#FFFFFF"/></g></g></g></g><g><g><g><g><rect x="167.24" y="114.23" width="10.36" height="10.55" fill="#39828F"/></g></g></g><g><g><g><path d="M175.42 114.23 167.24 118.72 167.24 123.38 177.59 118.16 177.59 114.23 175.42 114.23Z" fill="#619BA5"/></g></g></g><g><g><g><path d="M167.24 123.97 177.59 118.8 177.59 119.74 167.24 124.77Z" fill="#619BA5"/></g></g></g><g><g><g><rect x="171.93" y="114.23" width="0.85" height="10.55" fill="#DFC2C2"/></g></g></g><g><g><g><rect x="167.24" y="119.1" width="10.36" height="0.86" fill="#DFC2C2"/></g></g></g><g><g><g><rect x="167.24" y="113.28" width="10.36" height="0.95" fill="#FFFFFF"/></g></g></g><g><g><g><rect x="166.3" y="113.28" width="0.94" height="11.49" fill="#FFFFFF"/></g></g></g><g><g><g><rect x="177.59" y="113.28" width="1" height="11.49" fill="#FFFFFF"/></g></g></g><g><g><g><rect x="166.3" y="124.77" width="12.3" height="1.12" fill="#FFFFFF"/></g></g></g></g><g><g><rect x="26.83" y="132.94" width="157.64" height="3.54" fill="#7A4D39"/></g></g><g><g><rect x="26.83" y="74.11" width="39.21" height="2.9" fill="#C98049"/></g></g><g><g><rect x="144.47" y="74.11" width="40" height="2.9" fill="#C98049"/></g></g><g><g><rect x="66.05" y="42.61" width="78.43" height="2.13" fill="#915E4A"/></g></g><g><g><rect x="23.43" y="69.63" width="42.61" height="2.24" fill="#915E4A"/></g></g><g><g><rect x="144.47" y="69.63" width="42.74" height="2.24" fill="#915E4A"/></g></g><g><g><g><path d="M167 124.25C167 124.25 178.72 128.62 179.7 138.77L181.93 138.77C181.93 138.77 180.81 126.95 167 124.25Z" fill="#7DA032"/></g></g><g><g><path d="M183.47 138.77C183.47 138.77 182.62 129.77 172.11 127.72 172.11 127.72 181.03 131.05 181.77 138.77L183.47 138.77Z" fill="#698428"/></g></g><g><g><path d="M196.19 124.18C196.19 124.18 184.47 128.55 183.49 138.7L181.26 138.7C181.26 138.71 182.38 126.88 196.19 124.18Z" fill="#7DA032"/></g></g><g><g><path d="M182.28 139.41C182.28 139.41 177.86 131.35 185.63 124.5 185.63 124.5 179.94 131.65 183.73 138.58L182.28 139.41Z" fill="#698428"/></g></g><g><g><path d="M183.56 119.48C183.56 119.48 177.34 129.62 183.44 138.13L181.69 139.41C181.69 139.41 174.57 129.51 183.56 119.48Z" fill="#A6C642"/></g></g><g><g><path d="M190.44 139.54C190.44 141.17 186.72 142.5 182.14 142.5 177.56 142.5 173.84 141.18 173.84 139.54 173.84 137.91 177.56 136.58 182.14 136.58 186.72 136.59 190.44 137.91 190.44 139.54Z" fill="#8DAF38"/></g></g></g><g><g><g><path d="M13.09 124.32C13.09 124.32 24.81 128.69 25.79 138.84L28.02 138.84C28.02 138.85 26.91 127.02 13.09 124.32Z" fill="#7DA032"/></g></g><g><g><path d="M29.56 138.85C29.56 138.85 28.71 129.85 18.2 127.8 18.2 127.8 27.12 131.13 27.86 138.85L29.56 138.85Z" fill="#698428"/></g></g><g><g><path d="M42.29 124.26C42.29 124.26 30.57 128.63 29.59 138.78L27.36 138.78C27.36 138.78 28.47 126.96 42.29 124.26Z" fill="#7DA032"/></g></g><g><g><path d="M28.38 139.48C28.38 139.48 23.96 131.42 31.73 124.57 31.73 124.57 26.04 131.72 29.83 138.65L28.38 139.48Z" fill="#698428"/></g></g><g><g><path d="M29.66 119.56C29.66 119.56 23.44 129.7 29.54 138.21L27.79 139.49C27.79 139.48 20.67 129.59 29.66 119.56Z" fill="#A6C642"/></g></g><g><g><path d="M36.53 139.62C36.53 141.25 32.81 142.58 28.23 142.58 23.65 142.58 19.93 141.26 19.93 139.62 19.93 137.99 23.65 136.66 28.23 136.66 32.82 136.66 36.53 137.98 36.53 139.62Z" fill="#8DAF38"/></g></g></g><g><g><rect x="67.75" y="47.35" width="11.3" height="2.88" fill="#B27044"/><rect x="68.82" y="51.35" width="11.3" height="2.88" fill="#B27044"/><rect x="67.75" y="55.35" width="11.3" height="2.88" fill="#B27044"/><rect x="70.97" y="59.35" width="11.3" height="2.88" fill="#B27044"/><rect x="67.75" y="63.35" width="11.3" height="2.88" fill="#B27044"/><rect x="67.75" y="67.35" width="11.3" height="2.88" fill="#B27044"/><rect x="69.9" y="71.35" width="11.3" height="2.88" fill="#B27044"/><rect x="67.75" y="75.35" width="11.3" height="2.88" fill="#B27044"/></g><g><rect x="80.12" y="47.31" width="11.3" height="2.88" fill="#B27044"/><rect x="81.2" y="51.31" width="11.3" height="2.88" fill="#B27044"/><rect x="80.12" y="55.31" width="11.3" height="2.88" fill="#B27044"/><rect x="83.35" y="59.31" width="11.3" height="2.88" fill="#B27044"/><rect x="80.12" y="63.31" width="11.3" height="2.88" fill="#B27044"/><rect x="80.12" y="67.31" width="11.3" height="2.88" fill="#B27044"/><rect x="82.27" y="71.31" width="11.3" height="2.88" fill="#B27044"/><rect x="80.12" y="75.31" width="11.3" height="2.88" fill="#B27044"/></g><g><rect x="92.75" y="47.35" width="11.3" height="2.88" fill="#B27044"/><rect x="93.83" y="51.35" width="11.3" height="2.88" fill="#B27044"/><rect x="92.75" y="55.35" width="11.3" height="2.88" fill="#B27044"/><rect x="95.98" y="59.35" width="11.3" height="2.88" fill="#B27044"/><rect x="92.75" y="63.35" width="11.3" height="2.88" fill="#B27044"/><rect x="92.75" y="67.35" width="11.3" height="2.88" fill="#B27044"/><rect x="94.91" y="71.35" width="11.3" height="2.88" fill="#B27044"/><rect x="92.75" y="75.35" width="11.3" height="2.88" fill="#B27044"/></g><g><rect x="105.13" y="47.31" width="11.3" height="2.88" fill="#B27044"/><rect x="106.2" y="51.31" width="11.3" height="2.88" fill="#B27044"/><rect x="105.13" y="55.31" width="11.3" height="2.88" fill="#B27044"/><rect x="108.36" y="59.31" width="11.3" height="2.88" fill="#B27044"/><rect x="105.13" y="63.31" width="11.3" height="2.88" fill="#B27044"/><rect x="105.13" y="67.31" width="11.3" height="2.88" fill="#B27044"/><rect x="107.28" y="71.31" width="11.3" height="2.88" fill="#B27044"/><rect x="105.13" y="75.31" width="11.3" height="2.88" fill="#B27044"/></g><g><rect x="117.2" y="47.35" width="11.3" height="2.88" fill="#B27044"/><rect x="118.28" y="51.35" width="11.3" height="2.88" fill="#B27044"/><rect x="117.2" y="55.35" width="11.3" height="2.88" fill="#B27044"/><rect x="120.43" y="59.35" width="11.3" height="2.88" fill="#B27044"/><rect x="117.2" y="63.35" width="11.3" height="2.88" fill="#B27044"/><rect x="117.2" y="67.35" width="11.3" height="2.88" fill="#B27044"/><rect x="119.35" y="71.35" width="11.3" height="2.88" fill="#B27044"/><rect x="117.2" y="75.35" width="11.3" height="2.88" fill="#B27044"/></g><g><rect x="129.58" y="47.31" width="11.3" height="2.88" fill="#B27044"/><rect x="130.65" y="51.31" width="11.3" height="2.88" fill="#B27044"/><rect x="129.58" y="55.31" width="11.3" height="2.88" fill="#B27044"/><rect x="132.8" y="59.31" width="11.3" height="2.88" fill="#B27044"/><rect x="129.58" y="63.31" width="11.3" height="2.88" fill="#B27044"/><rect x="129.58" y="67.31" width="11.3" height="2.88" fill="#B27044"/><rect x="131.73" y="71.31" width="11.3" height="2.88" fill="#B27044"/><rect x="129.58" y="75.31" width="11.3" height="2.88" fill="#B27044"/></g></g><g><g><rect x="67.75" y="80.35" width="11.3" height="2.88" fill="#B27044"/><rect x="68.82" y="84.35" width="11.3" height="2.88" fill="#B27044"/><rect x="67.75" y="88.35" width="11.3" height="2.88" fill="#B27044"/><rect x="70.97" y="92.35" width="11.3" height="2.88" fill="#B27044"/><rect x="67.75" y="96.35" width="11.3" height="2.88" fill="#B27044"/><rect x="67.75" y="100.35" width="11.3" height="2.88" fill="#B27044"/><rect x="69.9" y="104.35" width="11.3" height="2.88" fill="#B27044"/><rect x="67.75" y="108.35" width="11.3" height="2.88" fill="#B27044"/></g><g><rect x="80.12" y="80.31" width="11.3" height="2.88" fill="#B27044"/><rect x="81.2" y="84.31" width="11.3" height="2.88" fill="#B27044"/><rect x="80.12" y="88.31" width="11.3" height="2.88" fill="#B27044"/><rect x="83.35" y="92.31" width="11.3" height="2.88" fill="#B27044"/><rect x="80.12" y="96.31" width="11.3" height="2.88" fill="#B27044"/><rect x="80.12" y="100.31" width="11.3" height="2.88" fill="#B27044"/><rect x="82.27" y="104.31" width="11.3" height="2.88" fill="#B27044"/><rect x="80.12" y="108.31" width="11.3" height="2.88" fill="#B27044"/></g><g><rect x="92.75" y="80.35" width="11.3" height="2.88" fill="#B27044"/><rect x="93.83" y="84.35" width="11.3" height="2.88" fill="#B27044"/><rect x="92.75" y="88.35" width="11.3" height="2.88" fill="#B27044"/><rect x="95.98" y="92.35" width="11.3" height="2.88" fill="#B27044"/><rect x="92.75" y="96.35" width="11.3" height="2.88" fill="#B27044"/><rect x="92.75" y="100.35" width="11.3" height="2.88" fill="#B27044"/><rect x="94.91" y="104.35" width="11.3" height="2.88" fill="#B27044"/><rect x="92.75" y="108.35" width="11.3" height="2.88" fill="#B27044"/></g><g><rect x="105.13" y="80.31" width="11.3" height="2.88" fill="#B27044"/><rect x="106.2" y="84.31" width="11.3" height="2.88" fill="#B27044"/><rect x="105.13" y="88.31" width="11.3" height="2.88" fill="#B27044"/><rect x="108.36" y="92.31" width="11.3" height="2.88" fill="#B27044"/><rect x="105.13" y="96.31" width="11.3" height="2.88" fill="#B27044"/><rect x="105.13" y="100.31" width="11.3" height="2.88" fill="#B27044"/><rect x="107.28" y="104.31" width="11.3" height="2.88" fill="#B27044"/><rect x="105.13" y="108.31" width="11.3" height="2.88" fill="#B27044"/></g><g><rect x="117.2" y="80.35" width="11.3" height="2.88" fill="#B27044"/><rect x="118.28" y="84.35" width="11.3" height="2.88" fill="#B27044"/><rect x="117.2" y="88.35" width="11.3" height="2.88" fill="#B27044"/><rect x="120.43" y="92.35" width="11.3" height="2.88" fill="#B27044"/><rect x="117.2" y="96.35" width="11.3" height="2.88" fill="#B27044"/><rect x="117.2" y="100.35" width="11.3" height="2.88" fill="#B27044"/><rect x="119.35" y="104.35" width="11.3" height="2.88" fill="#B27044"/><rect x="117.2" y="108.35" width="11.3" height="2.88" fill="#B27044"/></g><g><rect x="129.58" y="80.31" width="11.3" height="2.88" fill="#B27044"/><rect x="130.65" y="84.31" width="11.3" height="2.88" fill="#B27044"/><rect x="129.58" y="88.31" width="11.3" height="2.88" fill="#B27044"/><rect x="132.8" y="92.31" width="11.3" height="2.88" fill="#B27044"/><rect x="129.58" y="96.31" width="11.3" height="2.88" fill="#B27044"/><rect x="129.58" y="100.31" width="11.3" height="2.88" fill="#B27044"/><rect x="131.73" y="104.31" width="11.3" height="2.88" fill="#B27044"/><rect x="129.58" y="108.31" width="11.3" height="2.88" fill="#B27044"/></g></g><rect x="66.95" y="113.34" width="11.3" height="2.88" fill="#B27044"/><rect x="68.03" y="117.34" width="11.3" height="2.88" fill="#B27044"/><rect x="66.95" y="121.34" width="11.3" height="2.88" fill="#B27044"/><rect x="70.18" y="125.34" width="11.3" height="2.88" fill="#B27044"/><rect x="79.32" y="113.3" width="11.3" height="2.88" fill="#B27044"/><rect x="80.4" y="117.3" width="11.3" height="2.88" fill="#B27044"/><rect x="79.32" y="121.3" width="11.3" height="2.88" fill="#B27044"/><rect x="82.55" y="125.3" width="11.3" height="2.88" fill="#B27044"/><rect x="91.96" y="113.34" width="11.3" height="2.88" fill="#B27044"/><rect x="93.03" y="117.34" width="11.3" height="2.88" fill="#B27044"/><rect x="91.96" y="121.34" width="11.3" height="2.88" fill="#B27044"/><rect x="95.18" y="125.34" width="11.3" height="2.88" fill="#B27044"/><rect x="116.41" y="113.34" width="11.3" height="2.88" fill="#B27044"/><rect x="117.48" y="117.34" width="11.3" height="2.88" fill="#B27044"/><rect x="116.41" y="121.34" width="11.3" height="2.88" fill="#B27044"/><rect x="119.63" y="125.34" width="11.3" height="2.88" fill="#B27044"/><rect x="128.78" y="113.3" width="11.3" height="2.88" fill="#B27044"/><rect x="129.86" y="117.3" width="11.3" height="2.88" fill="#B27044"/><rect x="128.78" y="121.3" width="11.3" height="2.88" fill="#B27044"/><rect x="132.01" y="125.3" width="11.3" height="2.88" fill="#B27044"/><g><g><rect x="71.54" y="51.01" width="67.45" height="13.86" fill="#F5DA68"/></g></g><g><g><g><g><rect x="72.77" y="78.16" width="13.6" height="13.85" fill="#39828F"/></g></g></g><g><g><g><path d="M83.51 78.16 72.77 84.06 72.77 90.18 86.37 83.33 86.37 78.16 83.51 78.16Z" fill="#619BA5"/></g></g></g><g><g><g><path d="M72.77 90.95 86.37 84.17 86.37 85.4 72.77 92.01Z" fill="#619BA5"/></g></g></g><g><g><g><rect x="78.93" y="78.16" width="1.11" height="13.85" fill="#DFC2C2"/></g></g></g><g><g><g><rect x="72.77" y="84.56" width="13.6" height="1.12" fill="#DFC2C2"/></g></g></g><g><g><g><rect x="72.77" y="76.91" width="13.6" height="1.25" fill="#FFFFFF"/></g></g></g><g><g><g><rect x="71.54" y="76.91" width="1.23" height="15.1" fill="#FFFFFF"/></g></g></g><g><g><g><rect x="86.37" y="76.91" width="1.31" height="15.1" fill="#FFFFFF"/></g></g></g><g><g><g><rect x="71.54" y="92.01" width="16.15" height="1.47" fill="#FFFFFF"/></g></g></g></g><g><g><g><g><rect x="98.65" y="78.16" width="13.6" height="13.85" fill="#39828F"/></g></g></g><g><g><g><path d="M109.39 78.16 98.65 84.06 98.65 90.18 112.26 83.33 112.26 78.16 109.39 78.16Z" fill="#619BA5"/></g></g></g><g><g><g><path d="M98.65 90.95 112.26 84.17 112.26 85.4 98.65 92.01Z" fill="#619BA5"/></g></g></g><g><g><g><rect x="104.81" y="78.16" width="1.11" height="13.85" fill="#DFC2C2"/></g></g></g><g><g><g><rect x="98.65" y="84.56" width="13.6" height="1.12" fill="#DFC2C2"/></g></g></g><g><g><g><rect x="98.65" y="76.91" width="13.6" height="1.25" fill="#FFFFFF"/></g></g></g><g><g><g><rect x="97.42" y="76.91" width="1.23" height="15.1" fill="#FFFFFF"/></g></g></g><g><g><g><rect x="112.26" y="76.91" width="1.31" height="15.1" fill="#FFFFFF"/></g></g></g><g><g><g><rect x="97.42" y="92.01" width="16.15" height="1.47" fill="#FFFFFF"/></g></g></g></g><g><g><g><g><rect x="123.75" y="78.16" width="13.6" height="13.85" fill="#39828F"/></g></g></g><g><g><g><path d="M134.49 78.16 123.75 84.06 123.75 90.18 137.35 83.33 137.35 78.16 134.49 78.16Z" fill="#619BA5"/></g></g></g><g><g><g><path d="M123.75 90.95 137.35 84.17 137.35 85.4 123.75 92.01Z" fill="#619BA5"/></g></g></g><g><g><g><rect x="129.91" y="78.16" width="1.11" height="13.85" fill="#DFC2C2"/></g></g></g><g><g><g><rect x="123.75" y="84.56" width="13.6" height="1.12" fill="#DFC2C2"/></g></g></g><g><g><g><rect x="123.75" y="76.91" width="13.6" height="1.25" fill="#FFFFFF"/></g></g></g><g><g><g><rect x="122.51" y="76.91" width="1.23" height="15.1" fill="#FFFFFF"/></g></g></g><g><g><g><rect x="137.35" y="76.91" width="1.31" height="15.1" fill="#FFFFFF"/></g></g></g><g><g><g><rect x="122.51" y="92.01" width="16.15" height="1.47" fill="#FFFFFF"/></g></g></g></g><g><g><g><g><rect x="72.77" y="104.2" width="13.6" height="13.85" fill="#39828F"/></g></g></g><g><g><g><path d="M83.51 104.2 72.77 110.1 72.77 116.22 86.37 109.37 86.37 104.2 83.51 104.2Z" fill="#619BA5"/></g></g></g><g><g><g><path d="M72.77 116.99 86.37 110.21 86.37 111.44 72.77 118.05Z" fill="#619BA5"/></g></g></g><g><g><g><rect x="78.93" y="104.2" width="1.11" height="13.85" fill="#DFC2C2"/></g></g></g><g><g><g><rect x="72.77" y="110.6" width="13.6" height="1.12" fill="#DFC2C2"/></g></g></g><g><g><g><rect x="72.77" y="102.95" width="13.6" height="1.25" fill="#FFFFFF"/></g></g></g><g><g><g><rect x="71.54" y="102.95" width="1.23" height="15.1" fill="#FFFFFF"/></g></g></g><g><g><g><rect x="86.37" y="102.95" width="1.31" height="15.1" fill="#FFFFFF"/></g></g></g><g><g><g><rect x="71.54" y="118.05" width="16.15" height="1.47" fill="#FFFFFF"/></g></g></g></g><g><g><g><g><rect x="123.75" y="104.2" width="13.6" height="13.85" fill="#39828F"/></g></g></g><g><g><g><path d="M134.49 104.2 123.75 110.1 123.75 116.22 137.35 109.37 137.35 104.2 134.49 104.2Z" fill="#619BA5"/></g></g></g><g><g><g><path d="M123.75 116.99 137.35 110.21 137.35 111.44 123.75 118.05Z" fill="#619BA5"/></g></g></g><g><g><g><rect x="129.91" y="104.2" width="1.11" height="13.85" fill="#DFC2C2"/></g></g></g><g><g><g><rect x="123.75" y="110.6" width="13.6" height="1.12" fill="#DFC2C2"/></g></g></g><g><g><g><rect x="123.75" y="102.95" width="13.6" height="1.25" fill="#FFFFFF"/></g></g></g><g><g><g><rect x="122.51" y="102.95" width="1.23" height="15.1" fill="#FFFFFF"/></g></g></g><g><g><g><rect x="137.35" y="102.95" width="1.31" height="15.1" fill="#FFFFFF"/></g></g></g><g><g><g><rect x="122.51" y="118.05" width="16.15" height="1.47" fill="#FFFFFF"/></g></g></g></g><g><g><rect x="93.1" y="100.78" width="25.49" height="35.7" fill="#7A4D39"/></g></g><g><g><rect x="97.42" y="103.9" width="17.5" height="29.04" fill="#915E4A"/></g></g><path d="M144.47 74.24 184.47 133.02 144.36 132.85Z" opacity="0.14"/><g><g><g><g><rect x="150.77" y="80.63" width="10.36" height="10.55" fill="#39828F"/></g></g></g><g><g><g><path d="M158.95 80.63 150.77 85.12 150.77 89.78 161.12 84.56 161.12 80.63 158.95 80.63Z" fill="#619BA5"/></g></g></g><g><g><g><path d="M150.77 90.37 161.12 85.2 161.12 86.14 150.77 91.17Z" fill="#619BA5"/></g></g></g><g><g><g><rect x="155.46" y="80.63" width="0.85" height="10.55" fill="#DFC2C2"/></g></g></g><g><g><g><rect x="150.77" y="85.5" width="10.36" height="0.86" fill="#DFC2C2"/></g></g></g><g><g><g><rect x="150.77" y="79.68" width="10.36" height="0.95" fill="#FFFFFF"/></g></g></g><g><g><g><rect x="149.83" y="79.68" width="0.94" height="11.49" fill="#FFFFFF"/></g></g></g><g><g><g><rect x="161.12" y="79.68" width="1" height="11.49" fill="#FFFFFF"/></g></g></g><g><g><g><rect x="149.83" y="91.17" width="12.3" height="1.12" fill="#FFFFFF"/></g></g></g></g><g><g><g><g><rect x="150.77" y="97.43" width="10.36" height="10.55" fill="#39828F"/></g></g></g><g><g><g><path d="M158.95 97.43 150.77 101.92 150.77 106.58 161.12 101.36 161.12 97.43 158.95 97.43Z" fill="#619BA5"/></g></g></g><g><g><g><path d="M150.77 107.17 161.12 102 161.12 102.94 150.77 107.97Z" fill="#619BA5"/></g></g></g><g><g><g><rect x="155.46" y="97.43" width="0.85" height="10.55" fill="#DFC2C2"/></g></g></g><g><g><g><rect x="150.77" y="102.3" width="10.36" height="0.86" fill="#DFC2C2"/></g></g></g><g><g><g><rect x="150.77" y="96.48" width="10.36" height="0.95" fill="#FFFFFF"/></g></g></g><g><g><g><rect x="149.83" y="96.48" width="0.94" height="11.49" fill="#FFFFFF"/></g></g></g><g><g><g><rect x="161.12" y="96.48" width="1" height="11.49" fill="#FFFFFF"/></g></g></g><g><g><g><rect x="149.83" y="107.97" width="12.3" height="1.12" fill="#FFFFFF"/></g></g></g></g><g><g><g><g><rect x="150.77" y="114.23" width="10.36" height="10.55" fill="#39828F"/></g></g></g><g><g><g><path d="M158.95 114.23 150.77 118.72 150.77 123.38 161.12 118.16 161.12 114.23 158.95 114.23Z" fill="#619BA5"/></g></g></g><g><g><g><path d="M150.77 123.97 161.12 118.8 161.12 119.74 150.77 124.77Z" fill="#619BA5"/></g></g></g><g><g><g><rect x="155.46" y="114.23" width="0.85" height="10.55" fill="#DFC2C2"/></g></g></g><g><g><g><rect x="150.77" y="119.1" width="10.36" height="0.86" fill="#DFC2C2"/></g></g></g><g><g><g><rect x="150.77" y="113.28" width="10.36" height="0.95" fill="#FFFFFF"/></g></g></g><g><g><g><rect x="149.83" y="113.28" width="0.94" height="11.49" fill="#FFFFFF"/></g></g></g><g><g><g><rect x="161.12" y="113.28" width="1" height="11.49" fill="#FFFFFF"/></g></g></g><g><g><g><rect x="149.83" y="124.77" width="12.3" height="1.12" fill="#FFFFFF"/></g></g></g></g></g></svg>