<svg width="263.54" height="415.18" viewBox="0 0 263.54 415.18" xmlns="http://www.w3.org/2000/svg" xmlns:xlink="http://www.w3.org/1999/xlink" xml:space="preserve" overflow="hidden"><defs></defs><g><g><path d="M1 3.51C2.29 3.18 3.59 2.87 4.9 2.61" stroke="#57B4F7" stroke-width="2" stroke-linecap="round" stroke-miterlimit="10" fill="none"/><path d="M12.77 1.41C47.19-2.06 83.2 16.91 100.36 49.14 104.56 57.03 107.16 65.65 109.93 74.15 114.56 88.39 119.25 103.38 116.43 118.09 110.66 148.12 82.85 160.67 59.83 175.13 41 186.95 18.18 205.96 35.38 229.28 39.51 234.88 45.79 238.53 52.28 241.03 76.19 250.22 108.29 241.68 117.31 217.7 118.46 214.63 119.22 211.29 118.58 208.07 117.26 201.4 110.28 197.19 103.53 196.3 88.89 194.36 74.6 204.58 68.05 217.82 52.15 249.98 67.79 276.08 102.29 279.93 124.88 282.45 146.53 273.39 168.65 270.67 181.01 269.15 191.06 270.95 202.93 273.87 213.37 276.44 223.31 277.23 230.72 286.36 236.48 293.45 238.42 303.78 234.59 312.06 229.49 323.09 216.56 327.77 207.64 336.02 191.75 350.73 190.68 377.94 203.91 395.08 215.51 410.11 236.12 416.7 254.81 413.31" stroke="#57B4F7" stroke-width="2" stroke-linecap="round" stroke-miterlimit="10" stroke-dasharray="7.9711 7.9711" fill="none"/><path d="M258.72 412.45C260.01 412.11 261.29 411.73 262.55 411.29" stroke="#57B4F7" stroke-width="2" stroke-linecap="round" stroke-miterlimit="10" fill="none"/></g></g></svg>