<svg width="106.46" height="106.46" viewBox="0 0 106.46 106.46" xmlns="http://www.w3.org/2000/svg" xmlns:xlink="http://www.w3.org/1999/xlink" xml:space="preserve" overflow="hidden"><defs></defs><g><path d="M106.46 53.23C106.46 54 106.44 54.76 106.41 55.52 106.3 58.25 105.97 60.93 105.46 63.54 105.37 63.99 105.28 64.43 105.18 64.87 102.08 78.77 93.55 90.62 81.92 98.07 74.31 102.95 65.37 105.95 55.77 106.4 54.93 106.44 54.08 106.46 53.23 106.46 47.44 106.46 41.86 105.53 36.64 103.82 25 100.01 15.13 92.29 8.58 82.21 6.9 79.64 5.44 76.91 4.22 74.05 1.51 67.66 0 60.62 0 53.23 0 23.83 23.83 0 53.23 0 82.63 0 106.46 23.83 106.46 53.23Z" fill="#AAEBFF"/><path d="M81.92 98.07C74.31 102.95 65.37 105.95 55.77 106.4 54.93 106.44 54.08 106.46 53.23 106.46 47.44 106.46 41.86 105.53 36.64 103.82 25 100.01 15.13 92.29 8.58 82.21 6.9 79.64 5.44 76.91 4.22 74.05 18.4 70.17 33.73 70.48 47.72 75.05 51.01 76.13 54.23 77.44 57.34 78.97 57.85 79.21 58.36 79.47 58.86 79.73 59.37 79.99 59.88 80.27 60.39 80.55 68.55 85.01 75.9 90.98 81.92 98.07Z" fill="#56977F"/><g><path d="M90.9 68.52C88.56 62.18 84.9 56.33 80.22 51.45 78.88 50.05 77.28 48.65 75.34 48.53 72.93 48.38 70.89 50.25 69.45 52.18 66.25 56.44 64.39 61.55 62.87 66.66 61.35 71.77 60.12 76.99 57.98 81.87 63.43 78.84 68.85 76.03 74.63 73.69 79.86 71.56 85.33 69.46 90.9 68.52Z" fill="#83BDBF"/><path d="M106.41 55.52C106.3 58.25 105.97 60.93 105.46 63.54 105.37 63.99 105.28 64.43 105.18 64.87 97.97 66.78 90.78 68.79 83.57 70.65 83.73 70.61 83.87 70.46 83.98 70.23 84.5 69.2 84.56 66.6 84.65 65.76 84.66 65.7 84.66 65.65 84.67 65.61 84.99 63.52 85.51 61.3 86.25 59.14 86.66 57.9 87.15 56.68 87.71 55.52 88.51 53.84 89.45 52.29 90.52 50.96 92.94 47.98 96.29 47.42 99.53 49.15 102.18 50.57 104.49 52.87 106.41 55.52Z" fill="#83BDBF"/></g><path d="M105.46 63.54C105.37 63.99 105.28 64.43 105.18 64.87 102.08 78.77 93.55 90.62 81.92 98.07 74.31 102.95 65.37 105.95 55.77 106.4 54.93 106.44 54.08 106.46 53.23 106.46 47.44 106.46 41.86 105.53 36.64 103.82 38.55 100.11 40.79 96.55 43.31 93.21 47.33 87.87 52.06 83.07 57.34 78.97 58.14 78.36 58.95 77.76 59.77 77.18 61.26 76.12 62.78 75.11 64.35 74.17 70.65 70.38 77.52 67.55 84.65 65.76 86.19 65.37 87.75 65.03 89.32 64.75L89.33 64.75C94.64 63.76 100.05 63.35 105.46 63.54Z" fill="#7CAD6C"/><path d="M50.77 102.14C51.56 101.38 51.89 100.18 51.61 99.12 51.32 98.06 50.43 97.19 49.37 96.93 50.34 96.41 50.8 95.11 50.37 94.1 49.94 93.09 48.69 92.51 47.64 92.84 49.28 92.61 50.4 90.71 49.96 89.11 49.52 87.51 47.75 86.47 46.11 86.67 44.47 86.87 43.07 88.19 42.57 89.77 43.53 88.14 42.85 85.76 41.18 84.88 39.5 84 37.16 84.79 36.36 86.51 37.32 85.61 37.23 83.83 36.18 83.03 35.13 82.23 33.39 82.62 32.78 83.79 34.04 82.76 34.39 80.77 33.54 79.38 32.69 77.99 30.77 77.38 29.27 78.03 27.78 78.68 26.92 80.51 27.36 82.08 26.77 80.09 23.97 79.18 22.32 80.44 20.67 81.7 20.82 84.64 22.58 85.73 31.68 91.35 41.54 96.71 50.77 102.14Z" fill="#1F6456"/><path d="M37.84 64.36C37.87 60.42 39.93 56.71 42.69 53.9 45.45 51.09 48.88 49.03 52.26 47.01 46.52 47.98 41.31 50.96 37.92 55.69 36.78 48.84 39.22 41.5 44.24 36.7 40.53 37.44 37.44 40.24 36.53 43.91 34.18 39.32 29.88 35.76 24.92 34.31 27.12 35.99 29.33 37.69 31.17 39.76 33.01 41.83 34.47 44.32 34.88 47.06 35.21 49.25 34.87 51.47 34.53 53.66 33.94 57.47 33.46 61.11 32.86 64.92 30.36 61.43 27.53 58.17 24.44 55.19 23.17 53.97 21.64 52.72 19.89 52.89 22.16 53.98 24 55.81 25.45 57.86 26.86 59.85 27.93 62.07 28.98 64.28 25.53 63.95 22.09 63.61 18.64 63.28 20.43 64.11 22.3 64.76 24.22 65.24 26.91 65.91 29.51 65.9 31.06 68.52 32.9 71.64 32.92 75.62 32.59 79.12 32.43 80.83 32.11 82.53 31.88 84.22 31.73 85.28 31.21 89.41 29.96 89.82 28.93 90.16 28.39 92.14 29.15 92.92 29.8 93.59 30.86 93.56 31.79 93.54 35.97 93.42 40.17 94.19 44.04 95.79 39.68 89.02 37.62 80.8 38.25 72.77 38.44 70.38 38.93 67.85 40.61 66.14 42.02 64.7 44.05 64.07 45.99 63.49 47.88 62.93 49.77 62.36 51.66 61.8 46.85 60.32 41.88 61.38 37.84 64.36Z" fill="#77383D"/><path d="M55.77 106.4C54.93 106.44 54.08 106.46 53.23 106.46 47.44 106.46 41.86 105.53 36.64 103.82 25 100.01 15.13 92.29 8.58 82.21 18.03 81.9 27.57 84.07 35.93 88.49 38.51 89.85 40.98 91.43 43.31 93.21 48.16 96.87 52.39 101.35 55.77 106.4Z" fill="#649754"/><circle cx="70.64" cy="28.07" r="6.25" fill="#FFFFFF"/><path d="M40.01 43.81C39.92 41.9 41.38 40.03 43.25 39.65 45.12 39.27 47.19 40.41 47.86 42.2 48.53 43.99 47.73 46.21 46.06 47.16 47.48 46.26 49.63 46.67 50.54 48.08 51.45 49.5 51.1 51.56 49.82 52.65 48.54 53.74 46.51 53.79 45.13 52.83 46.45 53.9 46.87 55.64 46.21 57.2 45.55 58.76 43.79 59.78 42.11 59.57 40.43 59.37 38.96 57.96 38.69 56.28 38.18 57.84 36.14 59.28 34.53 58.93 32.92 58.58 31.73 56.89 31.92 55.26 32.11 53.63 33.67 52.27 35.31 52.31 34.09 52.47 32.8 51.67 32.41 50.5 32.02 49.33 32.56 47.92 33.63 47.31 34.7 46.7 36.19 46.96 37 47.89 35.61 47.22 34.55 45.78 34.56 44.24 34.57 42.7 35.81 41.19 37.35 41.09 38.9 40.99 40.36 42.31 40.01 43.81Z" fill="#1F6456"/><path d="M27.29 67.06C27.5 69.22 26.13 71.44 24.1 72.21 22.07 72.98 19.57 72.25 18.29 70.49 17.33 70.87 16.29 71.13 15.27 70.98 14.25 70.83 13.25 70.19 12.91 69.21 12.57 68.23 13.1 66.98 14.1 66.72 12.83 66.68 11.49 66.53 10.45 65.8 9.41 65.07 8.8 63.58 9.42 62.47 9.91 61.6 10.99 61.22 11.98 61.29 12.97 61.36 13.89 61.81 14.77 62.27 13.6 61.09 13.41 59.07 14.32 57.68 15.24 56.29 17.17 55.69 18.72 56.3 20.27 56.91 21.26 58.68 20.97 60.32 21.97 58.24 25.18 57.69 26.82 59.33 28.45 60.97 27.91 64.17 25.82 65.18" fill="#178250"/><path d="M21.59 47.16C20.2 46.1 17.93 46.48 16.97 47.94 17.28 46.37 16.68 44.63 15.39 43.68 14.1 42.73 12.18 42.7 10.93 43.71 9.69 44.71 9.33 46.7 10.24 48.02 8.92 46.89 6.54 47.54 5.97 49.18 5.4 50.82 6.87 52.8 8.61 52.73 7.01 52.95 5.83 54.67 6.08 56.27 6.33 57.86 7.87 59.11 9.48 59.16 11.09 59.21 12.65 58.15 13.33 56.69 12.83 58.81 14.93 61.1 17.08 60.78 19.24 60.47 20.59 57.68 19.51 55.79 20.52 56.27 21.86 55.87 22.43 54.91 22.84 54.22 22.68 53.61 22.55 52.89 22.38 51.92 22.34 52.07 22.52 51.1 22.79 49.62 22.95 48.2 21.59 47.16Z" fill="#19A740"/><path d="M23.47 24.4C20.85 24.06 18.12 25.88 17.43 28.43 16.74 30.98 18.18 33.93 20.61 34.95 19.04 35.18 17.97 37.08 18.59 38.54 19.21 40 21.32 40.55 22.57 39.59 20.62 40.75 20.4 43.96 22.18 45.38 23.96 46.79 27.04 45.86 27.73 43.7 27.02 45.05 27.97 46.97 29.47 47.23 30.97 47.5 32.52 46.02 32.32 44.51 33.78 45.39 35.8 45.18 37.05 44.03 38.3 42.88 38.67 40.88 37.92 39.35 37.17 37.83 35.35 36.91 33.68 37.2 34.62 36.85 35.16 35.67 34.82 34.73 34.47 33.78 33.3 33.23 32.35 33.57 33.7 32.58 33.88 30.34 32.7 29.15 32.01 28.45 30.97 28.23 30.02 28.4 28.68 28.65 28.79 29.28 27.99 28.23 26.65 26.46 26.03 24.74 23.47 24.4Z" fill="#178250"/><path d="M36.93 30.99C35.72 29.75 35.23 27.86 35.68 26.19 36.13 24.52 37.52 23.14 39.19 22.68 40.86 22.23 42.75 22.72 43.99 23.93 44.61 22.46 46.37 21.4 47.93 21.71 49.49 22.02 50.73 23.51 50.74 25.1 50.75 26.69 49.54 28.21 47.99 28.54 49.29 28.38 50.38 29.9 50.37 31.2 50.36 32.5 49.05 33.64 47.76 33.47 48.65 34.48 49.19 35.54 49.07 36.88 48.96 38.22 48.12 39.52 46.87 40.02 45.62 40.52 44.02 40.1 43.31 38.95 43.5 40.2 43.22 41.3 42.4 42.27 41.91 42.85 41.26 43.31 40.52 43.45 39.78 43.59 38.95 43.37 38.45 42.8 37.96 42.23 37.88 41.3 38.37 40.72 37.45 41.54 35.81 41.37 34.79 40.68 33.76 39.99 33.3 38.57 33.72 37.4 34.14 36.24 35.4 35.44 36.63 35.56 35.6 36.03 34.32 34.76 34.14 33.65 33.95 32.55 35.81 30.88 36.93 30.99Z" fill="#178250"/><path d="M43.05 46.97C41.97 46.55 40.65 46.87 39.87 47.73 39.1 48.59 38.92 49.94 39.45 50.97 39.98 52 41.18 52.64 42.33 52.51 41.08 53.14 40.72 55.04 41.27 56.32 41.82 57.61 43.35 58.36 44.72 58.07 46.09 57.78 47.17 56.52 47.31 55.13 47.58 55.92 47.87 56.78 48.37 57.45 48.87 58.11 49.64 58.63 50.47 58.62 51.32 58.6 52.07 58.05 52.63 57.41 53.64 56.25 54.22 54.78 54.79 53.35 55.55 54.64 57.38 54.95 58.55 54.02 59.72 53.09 59.83 51.1 58.75 50.06 60.65 50.41 62.76 49.8 64.01 48.33 65.26 46.85 65.46 44.51 64.31 42.96 63.16 41.41 60.66 40.98 59.18 42.22 59.97 41.12 59.24 39.4 57.98 38.93 56.72 38.46 55.23 39.03 54.34 40.04 53.44 41.05 53.04 42.4 52.83 43.74 51.72 41.99 49.34 41.16 47.38 41.86 45.41 42.53 42.81 44.91 43.05 46.97Z" fill="#19A740"/><path d="M43.61 70.71C45.09 70.5 46.32 69.26 46.67 67.81 46.68 69.8 48.87 71.47 50.8 70.94 52.72 70.41 53.76 67.86 52.75 66.14 54.28 67.25 56.62 67.06 57.95 65.71 59.28 64.36 59.43 62.02 58.3 60.5 57.16 58.99 54.87 58.48 53.2 59.39 53.63 57.14 51.58 54.76 49.29 54.86 47 54.96 45.16 57.5 45.78 59.7 45.4 58.36 42.41 58.57 41.53 58.94 39.65 59.73 39.23 61.67 39.26 63.54 39.28 66.18 39.98 71.21 43.61 70.71Z" fill="#178250"/><path d="M18.19 35.82C17.06 37.69 17.45 40.34 19.07 41.8 17.05 40.26 13.63 41.34 12.87 43.77 12.11 46.19 14.3 49.04 16.83 48.93 15.16 50.39 14.94 53.22 16.37 54.92 17.8 56.62 20.63 56.88 22.35 55.48 21.76 56.27 21.86 57.44 22.44 58.23 23.02 59.02 24 59.46 24.97 59.58 26.73 59.79 28.56 58.98 29.6 57.55 30.64 56.12 30.84 54.12 30.1 52.52 31.74 53.31 33.96 52.52 34.71 50.86 35.47 49.2 34.62 47.01 32.95 46.28 35.27 45.48 36.34 42.27 34.97 40.24 33.61 38.2 30.24 37.98 28.61 39.81 30.28 37.93 26.74 34.07 25.12 33.58 22.88 32.9 19.47 33.71 18.19 35.82Z" fill="#19A740"/><path d="M35.65 57.48C36.12 55.96 35.44 54.16 34.08 53.33 32.72 52.5 30.81 52.72 29.68 53.84 28.54 54.96 28.29 56.86 29.09 58.23 27.49 57.84 25.67 58.24 24.51 59.42 23.35 60.59 23 62.55 23.83 63.97 24.66 65.39 26.7 66.01 28.11 65.15 26.57 66.02 26.1 68.3 27.1 69.76 28.1 71.22 30.3 71.64 31.81 70.74 33.33 69.84 34.02 67.79 33.45 66.12 33.49 67.67 35.07 68.68 36.62 68.74 38.17 68.81 39.67 67.53 39.84 65.99 40.01 64.45 38.84 62.87 37.31 62.59 38.89 62.33 39.98 60.46 39.44 58.95 38.9 57.46 37.03 56.67 35.65 57.48Z" fill="#19A740"/><path d="M58.72 106.17C57.75 106.28 56.76 106.35 55.77 106.4 54.93 106.44 54.08 106.46 53.23 106.46 47.44 106.46 41.86 105.53 36.64 103.82 25.74 100.25 16.38 93.25 9.86 84.09 9.99 82.42 10.91 80.8 12.35 79.93 14.23 78.78 16.84 79 18.5 80.44 20.16 81.89 20.74 84.44 19.87 86.46 21.07 85.77 22.76 86.29 23.44 87.49 24.01 88.49 23.79 89.84 23.01 90.67 23.84 90.2 24.97 90.25 25.7 90.87 26.62 91.64 26.78 93.16 26.03 94.1 27.1 93.48 28.51 93.5 29.57 94.14 30.57 94.76 31.21 95.93 31.21 97.1 31.33 94.72 32.9 92.45 35.13 91.62 37.42 90.76 40.26 91.58 41.65 93.59 43.04 95.6 42.74 98.64 40.9 100.25 41.83 99.4 43 98.75 44.25 98.68 45.51 98.61 46.85 99.22 47.39 100.35 47.84 101.27 47.6 102.5 46.86 103.16 48.13 102.6 49.86 103.17 50.44 104.47 51.77 103.09 53.91 102.58 55.71 103.21 57.08 103.7 58.2 104.82 58.72 106.17Z" fill="#178250"/><g><path d="M61.92 81.95C61.87 81.54 61.91 81.11 62.08 80.73 62.25 80.35 62.58 80.04 62.98 79.92 63.38 79.81 63.85 79.93 64.1 80.26 64.38 80.62 64.35 81.16 64.15 81.57 63.95 81.98 63.6 82.3 63.26 82.61 63.99 82.41 64.79 82.5 65.44 82.9 65.63 83.02 65.82 83.19 65.86 83.41 65.91 83.74 65.61 84.01 65.31 84.16 64.58 84.53 63.67 84.54 62.93 84.19 63.16 84.44 63.38 84.65 63.48 84.98 63.59 85.31 63.58 85.69 63.39 85.98 63.19 86.29 62.79 86.46 62.43 86.42 62.06 86.37 61.73 86.13 61.56 85.79 61.39 85.46 61.38 85.06 61.51 84.71 61.28 85.23 60.86 85.58 60.35 85.85 60.05 86 59.67 86.09 59.4 85.89 59.23 85.76 59.15 85.54 59.15 85.33 59.15 85.12 59.23 84.91 59.33 84.72 59.6 84.22 60.04 83.81 60.56 83.58 59.89 83.72 59.21 83.42 58.88 82.83 58.73 82.55 58.66 82.18 58.85 81.92 59.03 81.67 59.36 81.6 59.67 81.58 60.4 81.55 61.23 81.64 61.92 81.95Z" fill="#D87544"/><path d="M61.09 83.32C61.14 83.88 61.7 84.33 62.26 84.27 62.81 84.21 63.26 83.64 63.18 83.08 62.99 81.74 60.97 82.01 61.09 83.32Z" fill="#FFD950"/></g><g><path d="M76.52 89.83C76.47 89.42 76.51 88.99 76.68 88.61 76.85 88.23 77.18 87.92 77.58 87.8 77.98 87.69 78.45 87.81 78.7 88.14 78.98 88.5 78.95 89.04 78.75 89.45 78.55 89.86 78.2 90.18 77.86 90.49 78.59 90.29 79.39 90.38 80.04 90.78 80.23 90.9 80.42 91.07 80.46 91.29 80.51 91.62 80.21 91.89 79.91 92.04 79.18 92.41 78.27 92.42 77.53 92.07 77.76 92.32 77.98 92.53 78.08 92.86 78.19 93.19 78.18 93.57 77.99 93.86 77.79 94.17 77.4 94.34 77.03 94.3 76.66 94.25 76.33 94.01 76.16 93.67 75.99 93.34 75.98 92.94 76.11 92.59 75.88 93.11 75.46 93.46 74.95 93.72 74.65 93.87 74.27 93.96 74 93.76 73.83 93.63 73.75 93.41 73.75 93.2 73.75 92.99 73.83 92.78 73.93 92.59 74.2 92.09 74.64 91.68 75.16 91.45 74.49 91.59 73.81 91.29 73.48 90.7 73.33 90.42 73.26 90.05 73.45 89.79 73.63 89.54 73.96 89.47 74.27 89.45 75 89.43 75.83 89.52 76.52 89.83Z" fill="#D87544"/><path d="M75.69 91.21C75.74 91.77 76.3 92.22 76.86 92.16 77.41 92.1 77.86 91.53 77.78 90.97 77.59 89.63 75.57 89.9 75.69 91.21Z" fill="#FFD950"/></g><g><path d="M88.46 74.58C88.41 74.17 88.45 73.74 88.62 73.36 88.79 72.98 89.12 72.67 89.52 72.55 89.92 72.44 90.39 72.56 90.64 72.89 90.92 73.25 90.89 73.79 90.69 74.2 90.49 74.61 90.14 74.93 89.8 75.24 90.53 75.04 91.33 75.13 91.98 75.53 92.17 75.65 92.36 75.82 92.4 76.04 92.45 76.37 92.15 76.64 91.85 76.79 91.12 77.16 90.21 77.17 89.47 76.82 89.7 77.07 89.92 77.28 90.02 77.61 90.13 77.94 90.12 78.32 89.93 78.61 89.73 78.92 89.33 79.09 88.97 79.05 88.6 79 88.27 78.76 88.1 78.42 87.93 78.09 87.92 77.69 88.05 77.34 87.82 77.86 87.4 78.21 86.89 78.48 86.59 78.63 86.21 78.72 85.94 78.52 85.77 78.39 85.69 78.17 85.69 77.96 85.69 77.75 85.77 77.54 85.87 77.35 86.14 76.85 86.58 76.44 87.1 76.21 86.43 76.35 85.75 76.05 85.42 75.46 85.27 75.18 85.2 74.81 85.39 74.55 85.57 74.3 85.9 74.23 86.21 74.21 86.94 74.18 87.77 74.27 88.46 74.58Z" fill="#D87544"/><path d="M87.63 75.96C87.68 76.52 88.24 76.97 88.8 76.91 89.35 76.85 89.8 76.28 89.72 75.72 89.53 74.37 87.51 74.65 87.63 75.96Z" fill="#FFD950"/></g></g></svg>