<svg width="120" height="69.6" viewBox="0 0 120 69.6" xmlns="http://www.w3.org/2000/svg" xmlns:xlink="http://www.w3.org/1999/xlink" xml:space="preserve" overflow="hidden"><defs></defs><g><path d="M0 5.23 60 69.34 120 5.23Z" fill="#DBDBDB"/><g><path d="M0 5.23 59 6.93 60 63.1 56.4 65.74Z" fill="#EFBE4C"/><path d="M0 9.34 59 6.93 60 63.1 56.4 65.74Z" fill="#FFFFFF"/></g><g><path d="M120 5.23 61 6.93 60 63.1 63.6 65.74Z" fill="#EFBE4C"/><path d="M120 9.34 61 6.93 60 63.1 63.6 65.74Z" fill="#FFFFFF"/></g><path d="M0 9.34 60 69.34 120 9.34Z" fill="#EFBE4C"/><g opacity="0.6"><g><line x1="49.66" y1="9.35" x2="49.91" y2="10.83" stroke="#666666" stroke-width="0.5" stroke-linecap="round" stroke-linejoin="round" fill="none"/><line x1="50.26" y1="12.83" x2="59.57" y2="66.87" stroke="#666666" stroke-width="0.5" stroke-linecap="round" stroke-linejoin="round" stroke-dasharray="3.0463 2.0309" fill="none"/><path d="M59.75 67.87 60 69.34 60.26 67.87" stroke="#666666" stroke-width="0.5" stroke-linecap="round" stroke-linejoin="round" fill="none"/><line x1="60.6" y1="65.86" x2="69.92" y2="11.83" stroke="#666666" stroke-width="0.5" stroke-linecap="round" stroke-linejoin="round" stroke-dasharray="3.0464 2.0309" fill="none"/><line x1="70.09" y1="10.83" x2="70.35" y2="9.35" stroke="#666666" stroke-width="0.5" stroke-linecap="round" stroke-linejoin="round" fill="none"/></g></g><g opacity="0.6"><g><line x1="60" y1="9.35" x2="60" y2="10.85" stroke="#666666" stroke-width="0.5" stroke-linecap="round" stroke-linejoin="round" fill="none"/><line x1="60" y1="12.85" x2="60" y2="66.85" stroke="#666666" stroke-width="0.5" stroke-linecap="round" stroke-linejoin="round" stroke-dasharray="3 2" fill="none"/><line x1="60" y1="67.85" x2="60" y2="69.35" stroke="#666666" stroke-width="0.5" stroke-linecap="round" stroke-linejoin="round" fill="none"/></g></g><g><g><path d="M90 19.31C90 19.31 106.93 26.71 112.29 21.86 117.65 17.01 83.82 2.07 83.82 2.07" stroke="#233A3F" stroke-linecap="round" stroke-linejoin="round" stroke-miterlimit="10" fill="none"/><path d="M83.98 4.55 82.96 1.52 85.99 0.5" stroke="#233A3F" stroke-linecap="round" stroke-linejoin="round" stroke-miterlimit="10" fill="none"/></g></g></g></svg>