<svg width="89.24" height="94.37" viewBox="0 0 89.24 94.37" xmlns="http://www.w3.org/2000/svg" xmlns:xlink="http://www.w3.org/1999/xlink" xml:space="preserve" overflow="hidden"><defs></defs><g><g><g><g><g><path d="M47.19 21.2 45.75 69.77C54.8 69.97 63.85 70.32 73.02 70.26L75.12 0.31 47.19 21.2Z" stroke="#435791" stroke-width="0.6179" stroke-linecap="round" stroke-linejoin="round" stroke-miterlimit="10" fill="#8EA7E8"/></g><g><path d="M14.06 0.4 16.39 70.47C25.57 69.62 34.62 69.55 43.65 69.71L42.05 21.19 14.06 0.4Z" stroke="#435791" stroke-width="0.6179" stroke-linecap="round" stroke-linejoin="round" stroke-miterlimit="10" fill="#8EA7E8"/></g><g><path d="M15.51 41.4 15.58 46.99 42.84 46.24 42.68 42.57Z" fill="#8EA7E8" opacity="0.5"/></g><g><path d="M73.84 41.4 73.77 46.99 46.51 46.24 46.68 42.57Z" fill="#8EA7E8" opacity="0.5"/></g></g><g><path d="M59.1 94.06 88.93 64.23 73.75 43.77 15.49 43.77 0.31 64.23 30.14 94.06Z" stroke="#435791" stroke-width="0.6179" stroke-linecap="round" stroke-linejoin="round" stroke-miterlimit="10" fill="#8EA7E8"/></g></g><g><g><path d="M65.36 61.77C65.36 64.73 63.28 67.13 60.71 67.13 58.14 67.13 56.06 64.73 56.06 61.77 56.06 58.81 58.14 56.41 60.71 56.41 63.28 56.41 65.36 58.81 65.36 61.77Z" fill="#435791"/><path d="M33.18 61.77C33.18 64.73 31.1 67.13 28.53 67.13 25.96 67.13 23.88 64.73 23.88 61.77 23.88 58.81 25.96 56.41 28.53 56.41 31.1 56.41 33.18 58.81 33.18 61.77Z" fill="#435791"/></g><g><path d="M38.24 68.47C38.4 66 51.05 66.27 51.05 68.51 51.05 70.76 46.33 74.08 44.71 74.08 43.09 74.09 38.1 70.54 38.24 68.47Z" fill="#435791"/><g><path d="M52.46 76.56C52.46 76.56 52.4 76.73 52.28 77.03 52.23 77.18 52.12 77.34 51.98 77.54 51.86 77.75 51.67 77.94 51.45 78.13 51.25 78.35 50.96 78.48 50.67 78.66 50.36 78.78 50.03 78.94 49.66 78.99 49.3 79.08 48.91 79.08 48.52 79.06L47.94 78.98C47.75 78.94 47.56 78.87 47.37 78.81 47.18 78.76 47.01 78.65 46.83 78.57 46.65 78.48 46.48 78.39 46.33 78.27 46.17 78.15 46.02 78.04 45.87 77.92 45.74 77.78 45.61 77.64 45.49 77.51 45.23 77.25 45.08 76.92 44.9 76.64 44.77 76.33 44.65 76.05 44.56 75.78 44.42 75.22 44.37 74.76 44.38 74.43 44.37 74.1 44.38 73.92 44.38 73.92 44.38 73.92 44.44 74.1 44.54 74.4 44.59 74.55 44.62 74.74 44.71 74.94 44.8 75.14 44.91 75.36 45 75.6 45.13 75.82 45.27 76.07 45.42 76.32 45.62 76.54 45.78 76.8 46.02 77.01 46.14 77.12 46.25 77.22 46.37 77.33L46.77 77.6C47.04 77.78 47.34 77.92 47.65 78.03 47.81 78.08 47.96 78.14 48.12 78.18L48.6 78.26C48.92 78.27 49.25 78.32 49.55 78.26 49.86 78.24 50.15 78.15 50.43 78.08 50.68 77.95 50.97 77.89 51.17 77.73 51.39 77.59 51.59 77.47 51.74 77.32 51.9 77.18 52.05 77.06 52.14 76.92 52.34 76.7 52.46 76.56 52.46 76.56Z" fill="#435791"/></g><g><path d="M36.78 76.56C36.78 76.56 36.9 76.7 37.1 76.95 37.19 77.09 37.34 77.21 37.5 77.35 37.65 77.5 37.85 77.62 38.07 77.76 38.27 77.91 38.56 77.98 38.81 78.11 39.09 78.18 39.38 78.27 39.69 78.29 40 78.35 40.32 78.3 40.64 78.29L41.12 78.21C41.28 78.17 41.43 78.11 41.59 78.06 41.9 77.95 42.21 77.81 42.47 77.63L42.87 77.36C42.99 77.25 43.11 77.14 43.22 77.04 43.46 76.83 43.62 76.57 43.82 76.35 43.97 76.09 44.11 75.85 44.24 75.63 44.34 75.39 44.44 75.17 44.53 74.97 44.62 74.77 44.65 74.58 44.7 74.43 44.79 74.13 44.86 73.95 44.86 73.95 44.86 73.95 44.87 74.13 44.86 74.46 44.87 74.79 44.82 75.25 44.68 75.81 44.6 76.08 44.47 76.37 44.34 76.67 44.16 76.94 44.01 77.28 43.75 77.54 43.62 77.68 43.5 77.81 43.37 77.95 43.23 78.08 43.07 78.19 42.91 78.3 42.76 78.43 42.58 78.51 42.41 78.6 42.23 78.69 42.06 78.79 41.87 78.84 41.68 78.9 41.49 78.96 41.3 79.01L40.72 79.09C40.33 79.11 39.94 79.11 39.58 79.02 39.21 78.97 38.88 78.82 38.57 78.69 38.28 78.51 37.99 78.38 37.79 78.16 37.57 77.97 37.39 77.78 37.26 77.57 37.13 77.37 37.01 77.21 36.96 77.06 36.84 76.74 36.78 76.56 36.78 76.56Z" fill="#435791"/></g><line x1="44.71" y1="70.71" x2="44.64" y2="76.14" stroke="#435791" stroke-width="0.821" stroke-miterlimit="10" fill="none"/></g></g></g></g></svg>