<svg width="52.87" height="29.31" viewBox="0 0 52.87 29.31" xmlns="http://www.w3.org/2000/svg" xmlns:xlink="http://www.w3.org/1999/xlink" xml:space="preserve" overflow="hidden"><defs></defs><g><g><path d="M45.44 28.3C45.36 28.3 45.27 28.29 45.19 28.27 44.66 28.13 44.34 27.58 44.48 27.05 45.84 21.88 43.48 15.82 38.73 12.32 35.13 9.66 30.57 8.66 26.54 9.64 26.46 9.66 26.38 9.68 26.31 9.7 27.53 12.17 28.18 14.92 28.15 17.68 28.11 20.35 27.41 22.61 26.1 24.22 24.4 26.32 21.63 27.22 19.36 26.4 17.7 25.81 16.36 24.34 15.78 22.48 15.31 20.98 15.32 19.23 15.81 17.4 16.83 13.59 19.68 10.35 23.38 8.63 22.66 7.58 21.81 6.63 20.85 5.79 17.46 2.85 12.8 1.5 8.37 2.17 5.38 2.62 3.01 4 1.86 5.95 1.58 6.43 0.97 6.59 0.49 6.31 0.02 6.03-0.14 5.41 0.14 4.94 1.59 2.47 4.49 0.73 8.07 0.19 13.07-0.57 18.34 0.96 22.15 4.29 23.36 5.34 24.41 6.57 25.28 7.91 25.54 7.83 25.8 7.76 26.06 7.7 30.66 6.59 35.84 7.71 39.91 10.72 45.3 14.69 47.97 21.62 46.41 27.57 46.29 28.01 45.88 28.3 45.44 28.3ZM24.4 10.37C21.16 11.83 18.59 14.67 17.72 17.93 17.33 19.38 17.31 20.75 17.67 21.89 18.06 23.14 18.96 24.14 20.02 24.52 21.67 25.11 23.54 24.18 24.53 22.96 25.82 21.37 26.12 19.19 26.14 17.65 26.17 15.12 25.55 12.61 24.4 10.37Z" fill="#292764"/></g><g><path d="M45.54 29.31C45.22 29.31 44.91 29.16 44.71 28.87L40.5 22.68C40.19 22.22 40.31 21.6 40.76 21.29 41.22 20.98 41.84 21.1 42.15 21.55L45.8 26.91 51.3 23.16C51.76 22.85 52.38 22.97 52.69 23.42 53 23.88 52.88 24.5 52.43 24.81L46.1 29.12C45.93 29.26 45.73 29.31 45.54 29.31Z" fill="#292764"/></g></g></svg>