<svg width="328.31" height="246.65" viewBox="0 0 328.31 246.65" xmlns="http://www.w3.org/2000/svg" xmlns:xlink="http://www.w3.org/1999/xlink" xml:space="preserve" overflow="hidden"><defs></defs><g><linearGradient x1="9.9383" y1="230.147" x2="327.59" y2="230.147" gradientUnits="userSpaceOnUse" id="SVGID_11_"><stop offset="0.3313" stop-color="#DC9427"/><stop offset="0.8216" stop-color="#B56E19"/><stop offset="1" stop-color="#A05E12"/></linearGradient><linearGradient x1="96.5938" y1="250.84" x2="281.585" y2="167.396" gradientUnits="userSpaceOnUse" id="SVGID_12_"><stop offset="0.3313" stop-color="#DC9427"/><stop offset="0.8863" stop-color="#B56E19"/><stop offset="1" stop-color="#A05E12"/></linearGradient><g><g><path d="M315.18 111.71C308.26 42.17 232.21-5.14 145.32 6.05 58.42 17.24-6.41 82.69 0.51 152.23 3.36 180.92 17.99 205.82 40.29 224.4L257.12 224.4C296.16 196.39 319.47 154.84 315.18 111.71Z" fill="#FFDF36"/></g><g opacity="0.8"><defs><path d="M315.18 111.71C308.26 42.17 232.21-5.14 145.32 6.05 58.42 17.24-6.41 82.69 0.51 152.23 3.36 180.92 17.99 205.82 40.29 224.4L257.12 224.4C296.16 196.39 319.47 154.84 315.18 111.71Z" id="SVGID_1_" opacity="0.8"/></defs><clipPath id="SVGID_2_"><use width="100%" height="100%" xlink:href="#SVGID_1_" overflow="visible"></use></clipPath><g clip-path="url(#SVGID_2_)"><rect x="16.07" y="45.26" width="5.09" height="201.4" fill="#F3BD59" opacity="0.52"/><rect x="37.44" y="42.99" width="5.09" height="201.4" fill="#F3BD59" opacity="0.52"/><rect x="58.81" y="34.51" width="5.09" height="207.05" fill="#F3BD59" opacity="0.52"/><rect x="80.17" y="19.23" width="5.09" height="207.05" fill="#F3BD59" opacity="0.52"/><rect x="101.54" y="13.01" width="5.09" height="207.05" fill="#F3BD59" opacity="0.52"/><rect x="122.91" y="5.66" width="5.09" height="207.05" fill="#F3BD59" opacity="0.52"/><rect x="144.27" y="3.39" width="5.09" height="207.05" fill="#F3BD59" opacity="0.52"/><rect x="165.64" y="1.7" width="5.09" height="207.05" fill="#F3BD59" opacity="0.52"/><rect x="187.01" y="0" width="5.09" height="207.05" fill="#F3BD59" opacity="0.52"/><rect x="208.37" y="3.39" width="5.09" height="207.05" fill="#F3BD59" opacity="0.52"/><rect x="229.74" y="5.09" width="5.09" height="207.05" fill="#F3BD59" opacity="0.52"/><rect x="251.11" y="7.92" width="5.09" height="207.05" fill="#F3BD59" opacity="0.52"/><rect x="272.48" y="14.71" width="5.09" height="207.05" fill="#F3BD59" opacity="0.52"/><rect x="293.84" y="28.85" width="5.09" height="207.05" fill="#F3BD59" opacity="0.52"/></g></g><g><defs><path d="M315.18 111.71C308.26 42.17 232.21-5.14 145.32 6.05 58.42 17.24-6.41 82.69 0.51 152.23 3.36 180.92 17.99 205.82 40.29 224.4L257.12 224.4C296.16 196.39 319.47 154.84 315.18 111.71Z" id="SVGID_3_"/></defs><clipPath id="SVGID_4_"><use width="100%" height="100%" xlink:href="#SVGID_3_" overflow="visible"></use></clipPath></g><g opacity="0.47"><path d="M273.48 115.41C273.48 166.85 243.6 204.62 194.7 224.41L257.11 224.41C296.16 196.4 319.47 154.85 315.18 111.72 308.88 48.37 245.22 3.48 168.25 4.44L168.25 4.53C168.25 4.53 273.48 5.66 273.48 115.41Z" fill="#FFCB05" opacity="0.65"/></g></g><g><g><defs><rect x="83.14" y="42.8" width="158.46" height="118.83" id="SVGID_5_"/></defs><radialGradient cx="74.9728" cy="56.8114" r="55.5445" gradientUnits="userSpaceOnUse" id="SVGID_6_" gradientTransform="matrix(1.2739 0 0 1.2383 66.8563 31.8633)"><stop offset="0" stop-color="#E8F3F5"/><stop offset="0.3067" stop-color="#D5E9ED"/><stop offset="0.9265" stop-color="#A4D0D8"/><stop offset="1" stop-color="#9ECDD5"/></radialGradient><clipPath id="SVGID_7_"><use width="100%" height="100%" xlink:href="#SVGID_5_" overflow="visible"></use></clipPath><use width="100%" height="100%" xlink:href="#SVGID_5_" fill="url(#SVGID_6_)" overflow="visible"></use><g clip-path="url(#SVGID_7_)"><linearGradient x1="159.514" y1="157.346" x2="159.514" y2="12.5499" gradientUnits="userSpaceOnUse" id="SVGID_8_"><stop offset="0" stop-color="#E7F6FD"/><stop offset="0.2121" stop-color="#E2F4FD"/><stop offset="0.4735" stop-color="#D3EFFC"/><stop offset="0.7597" stop-color="#BAE6FA"/><stop offset="1" stop-color="#9FDDF9"/></linearGradient><linearGradient x1="159.368" y1="156.849" x2="159.368" y2="167.454" gradientUnits="userSpaceOnUse" id="SVGID_9_"><stop offset="0.4049" stop-color="#89C658"/><stop offset="0.5218" stop-color="#84C557"/><stop offset="0.6658" stop-color="#75C155"/><stop offset="0.8242" stop-color="#5CBB50"/><stop offset="0.9918" stop-color="#39B34A"/><stop offset="1" stop-color="#37B34A"/></linearGradient><path d="M254 74.48C253.54 72.26 253.1 70.04 252.69 67.8 251.21 59.64 250.07 51.28 249.74 42.91 249.67 41.15 249.63 39.38 249.6 37.62 217.07 37.62 184.51 37.16 151.98 37.79 123 38.35 93.98 39.89 65.01 38.29 65.49 47.7 66.08 57.11 66.23 66.53 66.53 84.64 66.55 102.75 66.56 120.86 66.56 133.03 66.62 145.19 66.67 157.36L251.7 157.36C251.39 144.38 251.29 131.39 251.76 118.39 252.29 103.73 253.18 89.1 254 74.48Z" fill="url(#SVGID_8_)"/><path d="M251.46 141.64C244 145.12 238.14 148.68 233.96 145.95 223.29 138.97 219.07 132.12 201.28 145.34 183.49 158.57 171.17 122.92 148.4 138.13 125.63 153.34 113.89 149.07 102.38 142.32 90.87 135.56 81.03 150.07 81.03 150.07L107.05 155.34 201.24 156.48 251.59 153.13C251.5 149.31 251.45 145.48 251.46 141.64Z" fill="#A8D9C4"/><path d="M182.46 151.55C172.27 142.54 168.25 133.69 151.26 150.76 134.28 167.84 122.52 121.82 100.78 141.45 85.31 155.42 75.17 156.66 66.65 153.07 66.67 156.63 66.69 160.19 66.71 163.75L151.22 165.14 243.26 156.86C213.34 116.48 192.65 160.56 182.46 151.55Z" fill="#B3D451"/><path d="M251.46 143.89C236.53 145.65 225.58 157.33 218.91 152.98 208.24 146 204.02 139.14 186.23 152.37 168.44 165.6 156.12 129.95 133.35 145.16 110.58 160.37 98.84 156.1 87.33 149.34 77.62 143.63 69.09 153.09 66.67 156.17 66.67 156.52 66.68 156.88 66.68 157.23L92 162.36 186.19 163.51 251.76 159.15C251.6 154.06 251.49 148.97 251.46 143.89Z" fill="#89C658"/><path d="M66.74 166.74 252.06 166.74C251.93 163.52 251.81 160.31 251.71 157.09L66.68 157.09C66.7 160.31 66.72 163.52 66.74 166.74Z" fill="url(#SVGID_9_)"/><g><path d="M110.41 60.27C110.45 60.05 110.48 59.82 110.48 59.59 110.48 57.34 108.49 55.52 106.03 55.52 105.58 55.52 105.15 55.58 104.74 55.69 104.74 55.63 104.75 55.57 104.75 55.52 104.75 52.68 102.27 50.38 99.21 50.38 96.15 50.38 93.67 52.68 93.67 55.52 93.67 55.58 93.68 55.64 93.68 55.7 93.44 55.66 93.19 55.64 92.93 55.64 90.43 55.64 88.41 57.56 88.41 59.93 88.41 62.3 90.44 64.22 92.93 64.22 93.03 64.22 93.12 64.21 93.22 64.21 93.7 66.24 96.23 67.79 99.29 67.79 101.88 67.79 104.09 66.68 105 65.11 105.44 66.93 107.21 68.3 109.34 68.3 111.8 68.3 113.79 66.48 113.79 64.23 113.79 62.31 112.35 60.71 110.41 60.27Z" fill="#FFFFFF"/><path d="M104.57 94.61C103.05 94.19 101.64 94.74 101 95.86 100.42 94.46 99.15 93.28 97.57 92.84 95.19 92.18 93.01 93.43 92.7 95.63 92.69 95.68 92.69 95.73 92.69 95.77 92.5 95.69 92.31 95.61 92.11 95.55 90.23 95.03 88.5 96.01 88.16 97.76 86.31 97.32 84.65 98.29 84.41 99.99 84.16 101.74 85.51 103.58 87.41 104.11 89.19 104.61 90.82 103.77 91.23 102.24 91.28 102.25 91.33 102.26 91.38 102.27 91.52 103.95 93.32 105.71 95.7 106.37 98.3 107.1 100.63 106.24 100.94 104.46 101.09 104.52 101.24 104.59 101.4 104.63 103.31 105.16 105.05 104.17 105.3 102.43 105.37 101.97 105.31 101.49 105.17 101.04 106.42 100.86 107.39 100.01 107.57 98.74 107.82 96.98 106.47 95.14 104.57 94.61Z" fill="#FFFFFF"/><path d="M183.24 92.81C181.72 92.39 180.31 92.94 179.68 94.06 179.1 92.66 177.83 91.48 176.24 91.04 173.86 90.38 171.68 91.63 171.37 93.83 171.36 93.88 171.36 93.93 171.36 93.97 171.17 93.89 170.98 93.81 170.78 93.75 168.9 93.23 167.17 94.21 166.83 95.96 164.99 95.52 163.32 96.49 163.08 98.19 162.83 99.93 164.17 101.78 166.08 102.31 167.86 102.8 169.49 101.97 169.9 100.43 169.95 100.44 170.01 100.45 170.06 100.46 170.2 102.14 172 103.9 174.38 104.56 176.98 105.28 179.3 104.43 179.62 102.65 179.77 102.71 179.92 102.78 180.08 102.82 181.99 103.35 183.73 102.36 183.98 100.62 184.05 100.15 183.99 99.68 183.85 99.23 185.1 99.05 186.07 98.2 186.25 96.93 186.49 95.18 185.15 93.34 183.24 92.81Z" fill="#FFFFFF"/><path d="M132.79 115.7C132.54 115.7 132.31 115.74 132.08 115.81 132.08 115.77 132.09 115.74 132.09 115.7 132.09 114.16 130.74 112.91 129.08 112.91 127.42 112.91 126.07 114.16 126.07 115.7 126.07 115.73 126.08 115.77 126.08 115.8 125.94 115.78 125.81 115.76 125.66 115.76 124.3 115.76 123.2 116.8 123.2 118.09 123.2 119.38 124.3 120.42 125.66 120.42 125.72 120.42 125.77 120.41 125.82 120.4 126.08 121.5 127.45 122.35 129.11 122.35 130.93 122.35 132.41 121.34 132.45 120.08 132.56 120.09 132.66 120.11 132.78 120.11 134.11 120.11 135.19 119.12 135.19 117.9 135.21 116.69 134.13 115.7 132.79 115.7Z" fill="#FFFFFF"/></g><g><path d="M170.97 62.3C171.01 62.08 171.03 61.85 171.03 61.62 171.03 59.37 169.04 57.55 166.58 57.55 166.13 57.55 165.7 57.61 165.29 57.72 165.29 57.66 165.3 57.6 165.3 57.55 165.3 54.71 162.82 52.41 159.76 52.41 156.7 52.41 154.22 54.71 154.22 57.55 154.22 57.61 154.23 57.67 154.23 57.73 153.98 57.69 153.73 57.66 153.48 57.66 150.98 57.66 148.96 59.58 148.96 61.95 148.96 64.32 150.99 66.24 153.48 66.24 153.58 66.24 153.67 66.23 153.77 66.23 154.25 68.26 156.78 69.81 159.84 69.81 162.43 69.81 164.64 68.7 165.55 67.13 165.99 68.95 167.76 70.32 169.89 70.32 172.35 70.32 174.34 68.5 174.34 66.25 174.34 64.34 172.9 62.74 170.97 62.3Z" fill="#FFFFFF"/><path d="M230.87 53.75C229.35 53.33 227.94 53.88 227.31 55 226.73 53.6 225.46 52.42 223.87 51.98 221.49 51.32 219.31 52.57 219 54.77 218.99 54.82 218.99 54.87 218.99 54.92 218.8 54.84 218.61 54.76 218.41 54.7 216.53 54.18 214.8 55.16 214.46 56.91 212.61 56.47 210.95 57.44 210.71 59.14 210.46 60.88 211.8 62.73 213.71 63.26 215.49 63.76 217.12 62.92 217.53 61.39 217.58 61.4 217.64 61.41 217.69 61.42 217.83 63.1 219.63 64.85 222.01 65.52 224.62 66.24 226.94 65.39 227.25 63.61 227.4 63.67 227.55 63.74 227.71 63.78 229.61 64.31 231.36 63.33 231.61 61.58 231.67 61.12 231.62 60.64 231.48 60.19 232.73 60.02 233.7 59.16 233.88 57.89 234.12 56.13 232.77 54.28 230.87 53.75Z" fill="#FFFFFF"/><path d="M248.92 92.9C247.4 92.48 245.99 93.03 245.36 94.15 244.78 92.75 243.51 91.57 241.92 91.13 239.54 90.47 237.36 91.72 237.05 93.92 237.04 93.97 237.04 94.02 237.04 94.06 236.85 93.98 236.66 93.9 236.46 93.84 234.58 93.32 232.85 94.3 232.51 96.05 230.66 95.61 229 96.58 228.76 98.28 228.51 100.03 229.85 101.87 231.76 102.4 233.54 102.9 235.17 102.06 235.58 100.52 235.63 100.53 235.68 100.54 235.73 100.55 235.87 102.23 237.67 103.99 240.05 104.65 242.65 105.37 244.97 104.52 245.29 102.74 245.44 102.8 245.58 102.87 245.74 102.91 247.65 103.44 249.39 102.45 249.64 100.71 249.7 100.24 249.65 99.77 249.51 99.32 250.76 99.14 251.73 98.29 251.91 97.02 252.17 95.27 250.83 93.43 248.92 92.9Z" fill="#FFFFFF"/><path d="M214.69 117.45C214.44 117.45 214.21 117.49 213.98 117.56 213.98 117.52 213.99 117.49 213.99 117.45 213.99 115.91 212.64 114.66 210.98 114.66 209.32 114.66 207.97 115.91 207.97 117.45 207.97 117.49 207.98 117.52 207.98 117.55 207.85 117.53 207.71 117.51 207.57 117.51 206.21 117.51 205.11 118.55 205.11 119.84 205.11 121.13 206.21 122.17 207.57 122.17 207.63 122.17 207.68 122.16 207.73 122.15 207.99 123.26 209.36 124.1 211.02 124.1 212.84 124.1 214.31 123.09 214.36 121.83 214.47 121.84 214.57 121.86 214.69 121.86 216.02 121.86 217.11 120.87 217.11 119.65 217.11 118.44 216.03 117.45 214.69 117.45Z" fill="#FFFFFF"/></g></g><path d="M252.22 119.21 252.22 86.81C250.98 81.23 250.04 75.54 249.74 69.84 249.69 68.79 249.65 67.73 249.62 66.68L112.17 66.68C100.44 66.87 88.7 66.93 76.97 66.68L65.05 66.68C65.53 73.75 66.1 80.82 66.25 87.89 66.55 101.73 66.57 115.58 66.58 129.43 66.58 141.75 66.68 154.07 66.74 166.39L252.04 166.39C251.52 153.45 251.16 140.5 251.77 127.54 251.9 124.77 252.05 121.99 252.22 119.21Z" fill="none" clip-path="url(#SVGID_7_)"/></g><g><path d="M78.88 39.61 78.88 164.82 245.84 164.82 245.84 39.61 78.88 39.61ZM241.59 161.63 83.14 161.63 83.14 42.8 241.6 42.8 241.6 161.63Z" fill="#B89271"/><path d="M78.88 39.61 78.88 164.82 245.84 164.82 245.84 39.61 78.88 39.61ZM241.59 161.63 83.14 161.63 83.14 42.8 241.6 42.8 241.6 161.63Z" stroke="#C2BCAB" stroke-width="0.4966" stroke-linecap="round" stroke-linejoin="round" fill="none"/></g><g opacity="0.5"><radialGradient cx="74.9728" cy="56.8114" r="55.5445" gradientUnits="userSpaceOnUse" id="SVGID_10_" gradientTransform="matrix(1.2739 0 0 1.2383 66.8563 31.8633)"><stop offset="0" stop-color="#E8F3F5"/><stop offset="0.3067" stop-color="#D5E9ED"/><stop offset="0.9265" stop-color="#A4D0D8"/><stop offset="1" stop-color="#9ECDD5"/></radialGradient><path d="M83.14 42.8 83.14 161.63 241.6 161.63 241.6 42.8 83.14 42.8ZM238.4 159.24 86.33 159.24 86.33 45.19 238.4 45.19 238.4 159.24Z" fill="url(#SVGID_10_)"/></g><g><rect x="160.31" y="42.8" width="3.69" height="118.71" fill="#B89271"/><rect x="160.31" y="42.8" width="3.69" height="118.71" stroke="#C2BCAB" stroke-width="0.4966" stroke-linecap="round" stroke-linejoin="round" fill="none"/></g><g><path d="M155.69 42.8 83.14 102.22 83.14 112.34 168.05 42.8Z" fill="#FFFFFF" opacity="0.5"/><path d="M203.07 44.8 86.22 140.49 86.22 160.97 228.08 44.8Z" fill="#FFFFFF" opacity="0.5"/><path d="M241.59 119.43 190.07 161.63 241.59 161.63Z" fill="#FFFFFF" opacity="0.5"/><path d="M241.59 84.57 147.49 161.63 157.47 161.63 241.59 92.74Z" fill="#FFFFFF" opacity="0.5"/></g><g><g><path d="M254.86 38.28C254.86 39.53 253.82 40.53 252.55 40.53 251.27 40.53 250.23 39.52 250.23 38.28 250.23 37.04 251.27 36.03 252.55 36.03 253.82 36.02 254.86 37.03 254.86 38.28Z" stroke="#C09C66" stroke-width="0.4966" stroke-linecap="round" stroke-linejoin="round" fill="#D7A859"/><path d="M78.32 38.28C78.32 39.53 77.28 40.53 76 40.53 74.72 40.53 73.68 39.52 73.68 38.28 73.68 37.04 74.72 36.03 76 36.03 77.29 36.02 78.32 37.03 78.32 38.28Z" stroke="#C09C66" stroke-width="0.4966" stroke-linecap="round" stroke-linejoin="round" fill="#D7A859"/><path d="M252.54 38.28C252.54 39.15 251.93 39.86 251.17 39.86L76.69 39.86C75.94 39.86 75.32 39.15 75.32 38.28L75.32 38.28C75.32 37.41 75.93 36.7 76.69 36.7L251.17 36.7C251.93 36.7 252.54 37.4 252.54 38.28L252.54 38.28Z" stroke="#C09C66" stroke-width="0.4966" stroke-linecap="round" stroke-linejoin="round" fill="#D7A859"/><g opacity="0.5"><path d="M251.18 38.66 76.69 38.66C76.12 38.66 75.63 38.25 75.43 37.68 75.37 37.87 75.33 38.07 75.33 38.28 75.33 39.15 75.94 39.86 76.7 39.86L251.18 39.86C251.94 39.86 252.55 39.15 252.55 38.28 252.55 38.07 252.51 37.87 252.45 37.68 252.24 38.25 251.75 38.66 251.18 38.66Z" fill="#D7A859"/></g></g><path d="M250.77 37.11C250.77 37.39 250.5 37.61 250.17 37.61L77.63 37.61C77.3 37.61 77.04 37.39 77.04 37.11L77.04 37.11C77.04 36.84 77.31 36.61 77.63 36.61L250.17 36.61C250.5 36.61 250.77 36.84 250.77 37.11L250.77 37.11Z" fill="#BAB486" opacity="0.2"/></g><path d="M252.54 36.02C251.9 36.02 251.31 36.28 250.89 36.69L250.47 36.69C250.38 36.64 250.28 36.61 250.16 36.61L77.63 36.61C77.61 36.61 77.59 36.62 77.57 36.62 77.16 36.25 76.61 36.02 76.01 36.02 74.73 36.02 73.69 37.03 73.69 38.27 73.69 39.52 74.73 40.52 76.01 40.52 76.66 40.52 77.24 40.26 77.66 39.85L78.88 39.85 78.88 164.81 245.84 164.81 245.84 39.86 250.89 39.86C251.31 40.27 251.89 40.53 252.54 40.53 253.82 40.53 254.85 39.52 254.85 38.28 254.86 37.03 253.82 36.02 252.54 36.02ZM241.59 161.63 83.14 161.63 83.14 42.8 160.32 42.8 160.32 161.51 164 161.51 164 42.8 241.59 42.8 241.59 161.63Z" stroke="#726560" stroke-width="0.7195" stroke-miterlimit="10" fill="none"/></g><rect x="9.94" y="226.61" width="317.65" height="7.07" stroke="#9F5E26" stroke-width="0.2829" fill="url(#SVGID_11_)"/><path d="M327.87 226.61 10.22 226.61 72.45 181.64 265.64 181.64Z" stroke="#9F5E26" stroke-width="0.2829" fill="url(#SVGID_12_)"/><g opacity="0.17"><linearGradient x1="273.46" y1="231.452" x2="261.014" y2="179.124" gradientUnits="userSpaceOnUse" id="SVGID_13_"><stop offset="0.3313" stop-color="#DC9427"/><stop offset="0.8037" stop-color="#B56E19"/><stop offset="1" stop-color="#A05E12"/></linearGradient><path d="M264.56 181.92 208.25 181.92C226.01 183.79 277.38 191.07 294.26 214.11 297.76 218.9 296.64 222.82 292.37 226.04L325.62 226.04 264.56 181.92Z" fill="url(#SVGID_13_)"/></g><g opacity="0.16"><path d="M13.33 225.44 79.57 225.44C78.94 225.35 78.3 225.26 77.63 225.17 20.35 217.61 78.44 182.75 78.44 182.75L78.31 182.48 72.76 182.48 13.33 225.44Z" fill="#FFD552"/></g><g><path d="M14.32 229.93C14.32 230.67 13.72 231.27 12.98 231.27 12.24 231.27 11.64 230.67 11.64 229.93 11.64 229.19 12.24 228.59 12.98 228.59 13.72 228.59 14.32 229.19 14.32 229.93Z" stroke="#938785" stroke-width="0.2829" fill="#AEA4A2"/><path d="M13.45 229.82C13.45 230.24 13.11 230.58 12.69 230.58 12.27 230.58 11.93 230.24 11.93 229.82 11.93 229.4 12.27 229.06 12.69 229.06 13.11 229.06 13.45 229.4 13.45 229.82Z" fill="#CDC4C0"/></g></g></svg>