<svg width="116.48" height="79.67" viewBox="0 0 116.48 79.67" xmlns="http://www.w3.org/2000/svg" xmlns:xlink="http://www.w3.org/1999/xlink" xml:space="preserve" overflow="hidden"><defs></defs><g><g><path d="M99.64 76.41C99.76 75.59 99.86 74.96 99.93 74.33 99.97 73.92 99.93 73.47 99.45 73.37 98.97 73.27 98.73 73.64 98.61 74.04 98.3 75.1 98.16 76.19 98.05 77.28 98 77.75 98.31 78.11 98.62 78.38 99.24 78.93 99.96 79.33 100.76 79.58 101.16 79.7 101.59 79.72 101.78 79.26 101.97 78.8 101.65 78.52 101.28 78.3 101.02 78.15 100.75 78.02 100.35 77.81 100.74 77.54 101.04 77.31 101.35 77.11 106.18 74.02 107.59 69.44 106.98 64.04 106.77 62.22 106.36 60.43 105.43 58.81 105.16 58.33 104.86 57.87 104.44 57.5 104.24 57.33 104.01 57.21 103.78 57.41 103.53 57.63 103.72 57.85 103.85 58.05 106.79 62.45 106.45 67.04 104.5 71.65 103.6 73.81 101.71 75.1 99.64 76.41Z" fill="#2F4042"/><path d="M16.19 77.74C15.96 78.15 15.54 78.15 15.25 78.37 14.93 78.61 14.68 78.88 14.85 79.29 15 79.66 15.37 79.73 15.71 79.63 16.68 79.33 17.59 78.91 18.25 78.1 18.44 77.86 18.63 77.6 18.58 77.27 18.41 76.22 18.24 75.16 18.03 74.12 17.94 73.69 17.69 73.27 17.15 73.39 16.67 73.5 16.68 73.96 16.68 74.37 16.69 75 16.99 75.61 16.89 76.35 14.35 74.84 12.32 72.99 11.44 70.14 10.52 67.19 10.4 64.21 11.19 61.2 11.48 60.1 11.92 59.07 12.66 58.18 12.84 57.96 13.17 57.69 12.82 57.41 12.52 57.17 12.25 57.42 12.03 57.65 11.54 58.16 11.14 58.75 10.88 59.4 9.38 63.11 9 66.89 10.18 70.77 11.02 73.54 12.85 75.52 15.2 77.09 15.54 77.29 15.86 77.51 16.19 77.74Z" fill="#2F4042"/></g><g><path d="M58.25 55.71C42.8 55.71 27.34 55.7 11.89 55.71 8.56 55.71 5.23 55.79 1.9 55.8 0.53 55.8 0.52 55.76 0.28 54.4 0.23 54.13 0.21 53.85 0.2 53.58-0.08 45.18-0.1 36.79 0.31 28.39 0.38 27.01 0.62 26.79 2.04 26.77 10.44 26.63 18.83 26.48 27.23 26.32 27.59 26.31 28.04 26.17 28.28 25.93 35.46 18.65 43.33 12.17 51.28 5.78 53.44 4.04 55.5 2.16 57.59 0.33 58.06-0.08 58.46-0.14 58.95 0.28 67.22 7.36 75.5 14.41 83.74 21.5 85.29 22.83 86.66 24.37 88.16 25.76 88.5 26.07 89.04 26.32 89.5 26.33 97.93 26.51 106.35 26.65 114.78 26.79 115.97 26.81 116.28 27.08 116.29 28.34 116.37 35.39 116.45 42.44 116.48 49.5 116.49 51.29 116.29 53.09 116.23 54.89 116.2 55.64 115.78 55.81 115.15 55.81 113.38 55.82 111.61 55.85 109.84 55.85 96.25 55.86 82.66 55.86 69.07 55.87 65.47 55.87 61.86 55.87 58.26 55.87 58.25 55.81 58.25 55.76 58.25 55.71ZM1.73 54.3C39.54 54.3 77.11 54.3 114.88 54.3 114.88 45.68 114.88 36.99 114.88 28.09 112.53 28.09 110.28 28.1 108.03 28.09 100.73 28.04 93.43 27.97 86.14 27.93 72.71 27.86 59.28 27.39 45.84 27.69 31.4 28.02 16.96 28.05 2.51 28.21 2.28 28.21 2.04 28.25 1.73 28.28 1.73 37 1.73 45.67 1.73 54.3ZM30.54 26.06C49.08 26.06 67.58 26.06 86.08 26.06 77.44 17.23 67.5 9.78 58.31 1.47 49.12 9.78 39.19 17.23 30.54 26.06Z" fill="#2F4042"/><path d="M1.73 54.3C1.73 45.66 1.73 37 1.73 28.28 2.04 28.25 2.28 28.22 2.51 28.21 16.95 28.05 31.4 28.02 45.84 27.69 59.28 27.39 72.71 27.85 86.14 27.93 93.44 27.97 100.74 28.04 108.03 28.09 110.28 28.1 112.53 28.09 114.88 28.09 114.88 37 114.88 45.68 114.88 54.3 77.11 54.3 39.54 54.3 1.73 54.3Z" fill="#F9E467"/><path d="M30.54 26.06C39.19 17.23 49.13 9.78 58.31 1.47 67.5 9.78 77.44 17.23 86.08 26.06 67.58 26.06 49.08 26.06 30.54 26.06Z" fill="#FFF6A4"/></g><g><path d="M95.13 33.72C95.53 33.74 95.79 33.91 96.01 34.11 97.02 35.03 98.03 35.95 99.02 36.89 99.21 37.07 99.34 37.33 99.47 37.57 99.58 37.79 99.65 38.04 99.47 38.25 99.26 38.5 98.97 38.45 98.71 38.36 98.51 38.29 98.3 38.2 98.15 38.06 97.06 37.05 95.98 36.03 94.91 34.99 94.64 34.73 94.49 34.38 94.68 33.99 94.78 33.79 94.98 33.73 95.13 33.72Z" fill="#2F4042"/><path d="M17.02 38.43C16.7 38.43 16.51 38.19 16.63 37.73 16.72 37.4 16.89 37.11 17.14 36.88 18.14 35.95 19.14 35.02 20.16 34.11 20.53 33.78 21.01 33.44 21.43 33.95 21.79 34.38 21.46 34.81 21.12 35.14 20.16 36.07 19.19 36.99 18.22 37.91 17.93 38.18 17.6 38.41 17.02 38.43Z" fill="#2F4042"/><path d="M105.65 43.98C105.67 44.4 105.46 44.6 105.05 44.58 104.74 44.56 104.47 44.41 104.24 44.21 103.24 43.32 102.3 42.37 101.45 41.34 101.17 41.01 100.92 40.6 101.35 40.22 101.73 39.88 102.11 40.12 102.4 40.4 103.37 41.32 104.32 42.25 105.28 43.19 105.49 43.39 105.63 43.66 105.65 43.98Z" fill="#2F4042"/><path d="M11.05 44.58C10.67 44.57 10.5 44.37 10.52 44 10.53 43.64 10.71 43.36 10.95 43.12 11.86 42.23 12.77 41.33 13.7 40.46 14.03 40.15 14.45 39.81 14.88 40.26 15.26 40.66 14.97 41.06 14.69 41.39 13.85 42.39 12.93 43.32 11.96 44.19 11.69 44.42 11.4 44.57 11.05 44.58Z" fill="#2F4042"/><path d="M112.1 51.31C112.02 52.06 111.6 52.01 111.17 51.82 110.48 51.52 110.02 50.92 109.51 50.41 108.9 49.81 108.29 49.22 107.85 48.47 107.69 48.19 107.61 47.88 107.88 47.63 108.15 47.39 108.47 47.43 108.71 47.65 109.8 48.62 110.91 49.58 111.84 50.72 111.99 50.89 112.04 51.15 112.1 51.31Z" fill="#2F4042"/><path d="M8.45 48.14C8.38 48.28 8.31 48.52 8.17 48.71 7.35 49.78 6.42 50.74 5.38 51.59 5.06 51.85 4.6 52.16 4.23 51.78 3.83 51.38 4.12 50.88 4.43 50.56 5.39 49.58 6.39 48.64 7.38 47.69 7.59 47.49 7.86 47.41 8.14 47.53 8.36 47.63 8.45 47.81 8.45 48.14Z" fill="#2F4042"/><path d="M23.42 32.44C22.86 32.45 22.55 31.91 22.91 31.4 23.58 30.45 24.48 29.72 25.45 29.09 25.65 28.96 25.92 28.96 26.14 29.12 26.36 29.29 26.42 29.58 26.28 29.78 25.57 30.81 24.75 31.72 23.67 32.38 23.59 32.42 23.49 32.42 23.42 32.44Z" fill="#2F4042"/><path d="M93.38 31.85C93.3 32.48 92.85 32.6 92.4 32.33 91.38 31.71 90.61 30.8 89.9 29.85 89.75 29.66 89.77 29.38 89.96 29.17 90.12 28.99 90.36 28.94 90.54 29.04 91.67 29.66 92.62 30.48 93.33 31.57 93.38 31.63 93.37 31.74 93.38 31.85Z" fill="#2F4042"/></g></g></svg>