<svg width="132.09" height="131.41" viewBox="0 0 132.09 131.41" xmlns="http://www.w3.org/2000/svg" xmlns:xlink="http://www.w3.org/1999/xlink" xml:space="preserve" overflow="hidden"><defs></defs><g><g><path d="M131.59 71.77 112.65 71.77 131.59 71.72Z" fill="#BDF9F6" fill-opacity="0.2"/></g><g><path d="M131.59 71.72 112.65 71.77 107.91 71.78 107.91 71.71 107.68 56.02 107.7 47.79 131.59 71.68Z" fill="#BDF9F6" fill-opacity="0.2"/></g><g><path d="M97.05 104.41 97.04 104.44 79.54 104.44 44.38 104.44 39.06 104.44 27.67 93.05 27.67 87.56 27.67 51.45 27.68 35.06 27.7 35.06 60.22 24.22 60.32 24.33 60.38 24.39 60.38 24.08 76.18 24.05 76.19 24.06 83.95 24.04 107.7 47.79 107.68 56.02 107.91 71.71 107.91 71.78 97.06 104.38Z" fill="#BDF9F6" fill-opacity="0.2"/></g><g><path d="M72.66 111.34 53.09 130.91 53.08 130.9 53.07 130.91 49.19 119.11 46.65 111.37 46.64 111.36 46.64 111.34 44.38 104.44 79.54 104.44 72.65 111.33Z" fill="#BDF9F6" fill-opacity="0.2"/></g><g><path d="M107.72 32.25 107.7 47.79 83.95 24.04 99.66 24.01 107.73 32.08Z" fill="#BDF9F6" fill-opacity="0.2"/></g><g><path d="M27.67 87.56 20.07 85.06 20.01 85.04 12.28 82.52 0.5 78.64 20.07 59.07 20.06 59.06 27.67 51.45Z" fill="#BDF9F6" fill-opacity="0.2"/></g><g><path d="M83.95 24.04 76.19 24.06 76.18 24.05 60.38 24.08 60.32 24.08 60.33 0.5 60.38 0.49 60.41 0.5Z" fill="#BDF9F6" fill-opacity="0.2"/></g><g><path d="M60.38 24.39 60.32 24.33 60.32 24.18 60.32 24.08 60.38 24.08Z" fill="#BDF9F6" fill-opacity="0.2"/></g><g><path d="M60.32 24.33 60.22 24.22 60.32 24.18Z" fill="#BDF9F6" fill-opacity="0.2"/></g><g><path d="M60.32 24.18 60.22 24.22 60.07 24.08 60.32 24.08Z" fill="#BDF9F6" fill-opacity="0.2"/></g><g><path d="M131.59 72.27 112.65 72.27C112.37 72.27 112.15 72.05 112.15 71.77 112.15 71.49 112.37 71.27 112.65 71.27L131.59 71.23C131.59 71.23 131.59 71.23 131.59 71.23 131.72 71.23 131.85 71.28 131.94 71.38 132.03 71.47 132.09 71.6 132.09 71.73 132.09 72 131.87 72.27 131.59 72.27Z" fill="#292764" fill-opacity="0.2"/></g><g><path d="M107.91 72.28C107.78 72.28 107.65 72.23 107.56 72.13 107.47 72.04 107.41 71.91 107.41 71.78L107.17 56.03 107.19 47.79C107.19 47.59 107.31 47.41 107.5 47.33 107.69 47.25 107.9 47.3 108.04 47.44L131.93 71.33C132.02 71.42 132.08 71.55 132.08 71.68 132.08 71.96 131.86 72.22 131.58 72.22L107.91 72.28C107.91 72.28 107.91 72.28 107.91 72.28ZM131.59 71.72 131.59 71.72 131.59 71.72ZM108.19 48.99 108.17 56.02 108.4 71.27 130.42 71.22 108.19 48.99Z" fill="#292764" fill-opacity="0.2"/></g><g><path d="M97.04 104.94 39.06 104.94C38.93 104.94 38.8 104.89 38.71 104.79L27.31 93.4C27.22 93.31 27.16 93.18 27.16 93.05L27.17 35.06C27.17 34.81 27.35 34.6 27.59 34.57L59.98 23.78C60.07 23.66 60.21 23.59 60.37 23.59L76.17 23.56C76.21 23.58 76.24 23.56 76.27 23.57L83.94 23.55C84.05 23.59 84.2 23.6 84.29 23.7L108.04 47.45C108.13 47.54 108.19 47.67 108.19 47.8L108.17 56.03 108.41 71.71C108.41 71.77 108.4 71.88 108.38 71.94L97.53 104.54C97.53 104.54 97.52 104.57 97.52 104.57L97.51 104.6C97.44 104.8 97.25 104.94 97.04 104.94ZM97.04 104.41 97.05 104.41 97.04 104.41 97.04 104.41ZM39.26 103.94 96.68 103.94 107.41 71.7 107.17 56.03 107.2 48 83.74 24.54 76.19 24.56C76.19 24.56 76.12 24.56 76.09 24.55L60.85 24.58C60.8 24.7 60.7 24.8 60.58 24.85 60.42 24.92 60.23 24.89 60.1 24.79L28.18 35.42 28.17 92.84 39.26 103.94Z" fill="#292764" fill-opacity="0.2"/></g><g><path d="M53.09 131.41C53.03 131.41 52.98 131.4 52.93 131.38 52.77 131.33 52.65 131.22 52.6 131.06L46.2 111.57C46.18 111.53 46.17 111.48 46.16 111.44L43.92 104.59C43.87 104.44 43.9 104.27 43.99 104.14 44.08 104.01 44.23 103.93 44.39 103.93L79.55 103.93C79.75 103.93 79.93 104.05 80.01 104.24 80.09 104.43 80.04 104.64 79.9 104.78L73.09 111.59C73.07 111.62 73.05 111.65 73.02 111.68L53.45 131.25C53.34 131.37 53.22 131.41 53.09 131.41ZM47.12 111.2C47.12 111.21 47.13 111.21 47.13 111.22L53.29 130 72.22 111.07C72.24 111.04 72.27 111 72.3 110.97L78.34 104.93 45.07 104.93 47.12 111.2C47.11 111.19 47.12 111.19 47.12 111.2Z" fill="#292764" fill-opacity="0.2"/></g><g><path d="M107.7 48.29C107.57 48.29 107.44 48.24 107.35 48.14L83.59 24.39C83.45 24.25 83.4 24.03 83.48 23.85 83.56 23.66 83.74 23.54 83.94 23.54L99.65 23.51C99.65 23.51 99.65 23.51 99.65 23.51 99.78 23.51 99.91 23.56 100 23.66L108.07 31.73C108.17 31.83 108.22 31.97 108.22 32.11L108.21 32.27 108.19 47.79C108.19 47.99 108.07 48.17 107.88 48.25 107.83 48.28 107.76 48.29 107.7 48.29ZM85.15 24.54 107.2 46.59 107.22 32.28 99.46 24.52 85.15 24.54Z" fill="#292764" fill-opacity="0.2"/></g><g><path d="M27.67 88.06C27.62 88.06 27.57 88.05 27.51 88.04L0.34 79.11C0.17 79.06 0.05 78.92 0.01 78.75-0.03 78.58 0.02 78.4 0.14 78.28L19.63 58.79C19.65 58.76 19.67 58.73 19.7 58.7L27.3 51.1C27.44 50.96 27.66 50.91 27.85 50.99 28.04 51.07 28.16 51.25 28.16 51.45L28.16 87.56C28.16 87.72 28.08 87.87 27.95 87.96 27.87 88.03 27.77 88.06 27.67 88.06ZM1.43 78.42 27.17 86.87 27.17 52.66 20.5 59.33C20.48 59.36 20.46 59.39 20.43 59.42L1.43 78.42Z" fill="#292764" fill-opacity="0.2"/></g><g><path d="M60.38 24.58C60.25 24.58 60.09 24.53 60 24.43 59.91 24.34 59.82 24.21 59.82 24.08L59.83 0.5C59.83 0.26 60 0.06 60.23 0.01 60.32-0.01 60.46-0.01 60.55 0.02 60.62 0.04 60.72 0.1 60.77 0.15L84.3 23.68C84.44 23.82 84.49 24.04 84.41 24.22 84.33 24.41 84.15 24.53 83.95 24.53L76.19 24.55C76.19 24.55 76.12 24.55 76.09 24.54L60.38 24.58C60.38 24.58 60.38 24.58 60.38 24.58ZM60.83 1.63 60.82 23.58 76.18 23.55C76.22 23.57 76.25 23.55 76.28 23.56L82.75 23.54 60.83 1.63Z" fill="#292764" fill-opacity="0.2"/></g><g><path d="M60.38 24.89C60.25 24.89 60.12 24.84 60.02 24.74L59.96 24.68C59.87 24.59 59.81 24.46 59.81 24.33L59.81 24.08C59.81 23.8 60.03 23.58 60.31 23.58 60.59 23.58 60.87 23.8 60.87 24.08L60.87 24.39C60.87 24.59 60.75 24.78 60.56 24.85 60.51 24.88 60.45 24.89 60.38 24.89Z" fill="#292764" fill-opacity="0.2"/></g><g><path d="M60.32 24.83C60.19 24.83 60.06 24.78 59.97 24.68L59.87 24.58C59.75 24.46 59.7 24.29 59.73 24.13 59.76 23.96 59.88 23.83 60.03 23.77L60.13 23.73C60.28 23.67 60.46 23.69 60.6 23.78 60.74 23.87 60.82 24.03 60.82 24.19L60.82 24.33C60.82 24.53 60.7 24.71 60.51 24.79 60.45 24.81 60.38 24.83 60.32 24.83Z" fill="#292764" fill-opacity="0.2"/></g><g><path d="M60.22 24.72C60.09 24.72 59.96 24.67 59.87 24.57L59.73 24.43C59.59 24.29 59.54 24.07 59.62 23.88 59.7 23.69 59.88 23.57 60.08 23.57L60.33 23.57C60.61 23.57 60.83 23.79 60.83 24.07L60.83 24.17C60.83 24.37 60.71 24.56 60.52 24.63L60.42 24.67C60.34 24.71 60.28 24.72 60.22 24.72Z" fill="#292764" fill-opacity="0.2"/></g><g><path d="M97.16 29.98C96.14 31 94.5 31 93.48 29.98 92.46 28.96 92.46 27.32 93.48 26.3 94.5 25.28 96.14 25.28 97.16 26.3 98.18 27.32 98.18 28.97 97.16 29.98Z" fill="#292764" fill-opacity="0.2"/></g><g><path d="M105.07 37.89C104.05 38.91 102.41 38.91 101.39 37.89 100.37 36.87 100.37 35.23 101.39 34.21 102.41 33.19 104.05 33.19 105.07 34.21 106.09 35.23 106.09 36.88 105.07 37.89Z" fill="#292764" fill-opacity="0.2"/></g></g></svg>