<svg width="75.96" height="85.8" viewBox="0 0 75.96 85.8" xmlns="http://www.w3.org/2000/svg" xmlns:xlink="http://www.w3.org/1999/xlink" xml:space="preserve" overflow="hidden"><defs></defs><g><path d="M47.04 83.5C45.98 83.75 45.23 84.4 44.32 84.96 44.25 85 44.16 84.96 44.14 84.89 43.97 84.25 44.11 83.6 44.42 83.03 43.82 83.49 43.34 84.08 43.08 84.87 43.05 84.95 42.94 85 42.87 84.93 42.44 84.46 42.06 83.84 41.79 83.21 41.76 83.42 41.71 83.62 41.63 83.81 41.52 84.08 41.12 85.04 40.68 84.78 40.52 84.69 40.52 84.39 40.5 84.24 40.44 83.77 40.34 83.32 40.11 82.91 39.8 83.73 39.16 84.44 38.31 84.69 38.21 84.72 38.13 84.63 38.16 84.54 38.3 83.97 38.53 83.41 38.61 82.83 37.85 83.39 37.22 84.11 36.59 84.85 36.54 84.9 36.46 84.89 36.42 84.85 36.12 84.59 36.08 84.07 36.04 83.7 36.02 83.52 36.02 83.35 36.03 83.18 35.72 83.77 35.56 84.4 35.23 84.98 35.18 85.07 35.06 85.06 35.01 84.98 34.48 84.16 33.68 83.49 32.8 83.03 33.2 83.6 33.46 84.26 33.34 84.95 33.33 85.02 33.25 85.05 33.19 85.04 32.59 84.95 32.18 84.44 31.67 84.16 30.9 83.74 30.2 83.48 29.43 83.58 31.72 84.2 32.02 85.82 32.02 85.82L46.99 85.72C47.16 84.83 47.92 83.91 48.39 83.42 47.93 83.34 47.43 83.41 47.04 83.5Z" fill="#318A0A" opacity="0.3"/><g><path d="M51.22 47.58C51.22 47.58 42.62 55.44 42.62 60.07 42.62 64.7 43.2 85.04 43.2 85.04L35.01 85.46C35.01 85.46 34.76 63.05 34.1 59.41 33.44 55.77 32.36 54.28 25.25 50.73L25.5 49.24C25.5 49.24 28.31 49.41 34.35 54.29 34.35 54.29 35.26 50.24 27.57 42.13L25.58 40.06 27.9 38.74C27.9 38.74 30.46 43.04 32.45 45.61 34.43 48.17 35.76 49.99 35.34 44.29 34.93 38.58 35.18 35.52 35.18 35.52L36.83 35.93C36.83 35.93 36.91 41.72 37.32 44.53 37.73 47.34 38.56 51.56 40.13 45.85 41.7 40.14 43.94 35.6 43.94 35.6L45.1 37.5C45.1 37.5 43.45 41.8 42.45 44.28 41.46 46.76 41.87 51.23 42.28 55.45 42.28 55.45 49.31 47.01 51.13 45.52L51.22 47.58Z" fill="#89610D"/><path d="M51.22 47.58 51.14 45.51C49.32 47 42.29 55.44 42.29 55.44 41.88 51.22 41.46 46.76 42.46 44.27 43.45 41.79 45.11 37.49 45.11 37.49L43.95 35.59C43.95 35.59 41.72 40.14 40.14 45.84 38.57 51.55 37.74 47.33 37.33 44.52 36.92 41.71 36.84 35.92 36.84 35.92L36.31 35.79C36.33 35.92 36.34 36.06 36.36 36.19 36.59 38.2 36.47 40.21 36.5 42.23 36.55 45.52 36.96 48.83 37.11 52.12 37.44 59.48 37.53 66.84 37.84 74.19 38 77.9 38.06 81.59 38.11 85.3L43.2 85.04C43.2 85.04 42.62 64.69 42.62 60.07 42.62 55.44 51.22 47.58 51.22 47.58Z" fill="#71530D" opacity="0.2"/><path d="M51.22 47.58 51.14 45.51C49.32 47 42.29 55.44 42.29 55.44 41.88 51.22 41.46 46.76 42.46 44.27 43.45 41.79 45.11 37.49 45.11 37.49L43.95 35.59C43.95 35.59 42.16 39.25 40.65 44.11 40.53 45.23 40.41 46.34 40.35 47.4 39.95 54.54 40.2 61.71 40.42 68.85 40.59 74.29 40.79 79.73 40.96 85.16L43.2 85.05C43.2 85.05 42.62 64.7 42.62 60.08 42.62 55.44 51.22 47.58 51.22 47.58Z" fill="#71530D" opacity="0.4"/><path d="M29.94 51.13C26.93 49.31 25.5 49.23 25.5 49.23L25.25 50.72C26.93 51.56 28.28 52.29 29.36 52.95 29.68 52.39 29.9 51.79 29.94 51.13Z" fill="#71530D" opacity="0.3"/><path d="M30.42 42.72C29.06 40.67 27.9 38.73 27.9 38.73L25.58 40.05 27.57 42.12C28.08 42.66 28.55 43.18 28.99 43.68 29.57 43.57 30.06 43.2 30.42 42.72Z" fill="#71530D" opacity="0.3"/><path d="M43.57 41.45C44.36 39.43 45.1 37.49 45.1 37.49L43.94 35.59C43.94 35.59 43.16 37.18 42.2 39.66 42.38 40.47 42.81 41.2 43.57 41.45Z" fill="#71530D" opacity="0.3"/><path d="M51.14 45.51C50.43 46.09 48.94 47.72 47.38 49.49 47.46 49.69 47.55 49.88 47.68 50.06 47.84 50.27 48.03 50.45 48.24 50.59 49.87 48.81 51.23 47.57 51.23 47.57L51.14 45.51Z" fill="#71530D" opacity="0.3"/><path d="M36.97 40.21C36.86 37.96 36.83 35.92 36.83 35.92L35.18 35.51C35.18 35.51 35.03 37.34 35.16 40.8 35.78 40.81 36.42 40.57 36.97 40.21Z" fill="#71530D" opacity="0.3"/></g><g><path d="M64.25 24.95C64.25 24.95 68.8 18.33 62.83 17.05 63.38 16.62 63.79 15.98 63.64 15.29 63.47 14.56 62.51 14.01 61.8 14.12 61.78 14.12 61.76 14.13 61.74 14.13 61.84 13.67 61.76 13.21 61.29 12.91 60.66 12.52 59.93 12.66 59.35 13.07 59.3 13.11 59.25 13.16 59.2 13.2 59.54 11.97 60.16 7.39 52.56 2.69 44.32-2.38 36.8 0.82 34.84 3.23 34.6 2.52 33.98 1.9 33.17 2 32.05 2.14 31.53 3.08 31.52 4.07 31.11 3.78 30.6 3.63 30.16 3.75 29.57 3.91 29.36 4.63 29.38 5.16 29.38 5.21 29.39 5.26 29.4 5.32 27.69 4.38 23.23 2.59 18.44 6.15 15.01 8.7 13.81 11.8 13.52 14.41 13.08 13.54 12.21 12.77 11.22 13.16 10.1 13.6 10.24 15.5 10.34 16.45 10.37 16.75 10.41 17.04 10.47 17.33 9.77 16.62 8.69 16.23 8.05 16.96 7.47 17.63 7.69 18.67 8.15 19.38 7.43 19.26 6.7 19.55 6.16 20.12 5.35 20.98 5.4 22.42 5.98 23.49 3.12 25.44 0.5 28.33 0.08 32.5-0.62 39.37 3.69 41.12 6.29 41.55 6.16 41.65 6.04 41.77 5.94 41.91 5.63 42.31 5.48 42.98 5.86 43.39 6.1 43.66 6.41 43.8 6.73 43.85 5.65 44.67 4.91 46.14 5.91 47.25 6.27 47.65 6.74 47.8 7.22 47.76 5.6 49.35 3.03 53.09 7.1 57.96 12.12 63.96 22.67 59.57 24.86 54.89 24.91 54.95 24.96 55 25.02 55.05 25.68 55.63 26.48 55.18 26.79 54.51 27.01 54.02 27.08 53.45 26.96 52.93 27.97 53.01 28.37 52.45 28.38 51.48 28.4 50.32 27.56 48.92 26.86 48.04 26.71 47.85 26.54 47.68 26.35 47.53 27.22 47.31 27.87 46.71 28.21 45.86 28.63 44.79 27.98 43.43 27.01 42.55 27.63 42.38 28.17 41.93 28.52 41.37 28.87 40.82 28.87 40.21 28.65 39.63 28.74 39.76 28.83 39.88 28.93 40 29.7 40.88 30.76 41.08 31.55 40.12 31.74 39.88 31.88 39.62 31.97 39.33 32.18 40.14 32.75 40.67 33.83 40.31 34.77 40 35.05 39.12 35.07 38.23 35.61 38.66 36.41 38.79 36.97 38.39 37.18 38.24 37.35 38.04 37.49 37.8 37.79 38.59 38.52 39.18 39.43 39.27 40.7 39.39 42.16 38.72 42.85 37.62 42.95 37.92 43.12 38.19 43.4 38.39 43.7 38.6 44.06 38.66 44.41 38.61 44.18 39.11 44.07 39.67 44.32 40.08 44.67 40.67 45.47 40.75 46.07 40.51 46.01 40.64 45.96 40.78 45.92 40.91 45.6 41.91 45.72 43.28 46.44 44.08 46.99 44.69 47.87 44.84 48.62 44.61 48.45 44.85 48.31 45.11 48.18 45.4 47.76 46.31 47.65 47.67 48.41 48.43 48.57 48.6 48.77 48.69 48.98 48.74 48.89 49.25 49 49.76 49.42 50.18 49.76 50.52 50.1 50.63 50.43 50.58 49.81 52.18 51.57 57.38 60.93 55.75 70.5 54.08 73.21 45.97 68.52 43.55 68.94 43.4 69.26 43.14 69.33 42.76 69.43 42.22 69.18 41.8 68.82 41.47 70.33 41.54 73.69 41.14 75.51 36.58 77.9 30.54 70.36 24.17 64.25 24.95Z" fill="#6EBD24"/><path d="M70.29 26.21C71.36 27.34 72.11 28.76 72.33 30.3 72.71 32.92 70.84 35.43 68.55 36.55 66.97 37.32 65.44 37.29 64.05 36.77 63.9 37.92 63.58 39.05 63.06 40.05 61.98 42.12 59.76 43.22 57.46 42.51 54.37 41.56 53.15 38.02 53.3 34.86 51.29 35.32 49.01 34.84 47.42 33.52 46.62 32.86 46.1 32.04 45.81 31.14 44.54 31.82 42.9 32.39 41.48 31.95 39.98 31.48 39.5 30 39.59 28.55 39.31 29.04 38.96 29.48 38.58 29.85 37.99 30.43 36.95 31.26 36.06 30.83 35.37 30.5 35.1 29.73 35.07 28.97 34.67 29.6 34.07 30.11 33.31 30.21 33 30.25 32.73 30.22 32.5 30.13 32.46 30.37 32.41 30.62 32.33 30.85 31.99 31.85 30.93 33.13 29.72 32.69 28.84 32.38 28.27 31.55 27.9 30.67 27.24 31.64 25.97 32.07 25.06 31.39 24.46 32.91 23.44 34.28 22.04 35.03 20.01 36.12 16.88 36.23 14.92 34.96 14.27 35.35 13.58 35.69 12.84 35.96 10.58 36.78 8 37.19 5.6 36.61 3.21 36.02 1.24 34.45 0.26 32.17 0.22 32.08 0.19 32 0.16 31.91 0.13 32.1 0.1 32.28 0.08 32.48-0.62 39.35 3.69 41.1 6.29 41.53 6.16 41.63 6.04 41.75 5.94 41.89 5.63 42.29 5.48 42.96 5.86 43.37 6.1 43.64 6.41 43.78 6.73 43.83 5.65 44.65 4.91 46.12 5.91 47.23 6.27 47.63 6.74 47.78 7.22 47.74 5.6 49.35 3.03 53.09 7.1 57.96 12.12 63.96 22.67 59.57 24.86 54.89 24.91 54.95 24.96 55 25.02 55.05 25.68 55.63 26.48 55.18 26.79 54.51 27.01 54.02 27.08 53.45 26.96 52.93 27.97 53.01 28.37 52.45 28.38 51.48 28.4 50.32 27.56 48.92 26.86 48.04 26.71 47.85 26.54 47.68 26.35 47.53 27.22 47.31 27.87 46.71 28.21 45.86 28.63 44.79 27.98 43.43 27.01 42.55 27.63 42.38 28.17 41.93 28.52 41.37 28.87 40.82 28.87 40.21 28.65 39.63 28.74 39.76 28.83 39.88 28.93 40 29.7 40.88 30.76 41.08 31.55 40.12 31.74 39.88 31.88 39.62 31.97 39.33 32.18 40.14 32.75 40.67 33.83 40.31 34.77 40 35.05 39.12 35.07 38.23 35.61 38.66 36.41 38.79 36.97 38.39 37.18 38.24 37.35 38.04 37.49 37.8 37.79 38.59 38.52 39.18 39.43 39.27 40.7 39.39 42.16 38.72 42.85 37.62 42.95 37.92 43.12 38.19 43.4 38.39 43.7 38.6 44.06 38.66 44.41 38.61 44.18 39.11 44.07 39.67 44.32 40.08 44.67 40.67 45.47 40.75 46.07 40.51 46.01 40.64 45.96 40.78 45.92 40.91 45.6 41.91 45.72 43.28 46.44 44.08 46.99 44.69 47.87 44.84 48.62 44.61 48.45 44.85 48.31 45.11 48.18 45.4 47.76 46.31 47.65 47.67 48.41 48.43 48.57 48.6 48.77 48.69 48.98 48.74 48.89 49.25 49 49.76 49.42 50.18 49.76 50.52 50.1 50.63 50.43 50.58 49.81 52.18 51.57 57.38 60.93 55.75 70.5 54.08 73.21 45.97 68.52 43.55 68.94 43.4 69.26 43.14 69.33 42.76 69.43 42.22 69.18 41.8 68.82 41.47 70.33 41.54 73.69 41.14 75.51 36.58 77.11 32.5 74.22 28.29 70.29 26.21Z" fill="#6EBD24" opacity="0.5"/><path d="M51.29 52.94C50.86 51.73 50.88 50.53 51.46 49.37 51.51 49.26 51.57 49.16 51.63 49.05 51.27 48.78 50.95 48.46 50.71 48.18 49.73 47.02 49.54 45.63 50.32 44.29 50.11 44.23 49.9 44.15 49.68 44.04 48.14 43.22 47.44 41.65 47.57 39.94 47.62 39.27 47.73 38.42 48.04 37.72 47.39 37.69 46.72 37.46 46.11 36.98 45.09 36.2 44.5 35.22 44.28 34.1 43.6 34.83 42.7 35.36 41.57 35.54 40.14 35.77 38.68 35.4 37.62 34.55 37.53 34.98 37.33 35.38 36.97 35.73 36.24 36.45 35.03 36.79 34.16 36.07 33.83 35.8 33.54 35.43 33.36 35.02 32.66 36.34 31.24 37.18 29.66 37.12 29.33 37.11 29.03 37.06 28.74 36.99 28.72 37.33 28.61 37.68 28.39 38.01 27.98 38.64 27.16 39.2 26.38 38.98 26.52 39.6 26.57 40.24 26.34 40.81 26.2 41.17 25.92 41.46 25.59 41.69 26.05 42.12 26.41 42.64 26.62 43.19 27.11 44.46 26.7 45.92 25.56 46.68 24.71 47.24 24.22 47.32 24.18 47.35 25.85 47.45 27.26 49.04 27.76 50.36 28.48 52.24 27 52.87 26.96 52.92 27.96 53 28.36 52.44 28.38 51.47 28.4 50.31 27.56 48.91 26.86 48.03 26.71 47.84 26.54 47.67 26.35 47.52 27.22 47.3 27.87 46.7 28.21 45.85 28.63 44.78 27.98 43.42 27.01 42.54 27.63 42.37 28.17 41.92 28.52 41.36 28.87 40.81 28.87 40.2 28.65 39.62 28.74 39.75 28.83 39.87 28.93 39.99 29.7 40.87 30.76 41.07 31.55 40.11 31.74 39.87 31.88 39.61 31.97 39.32 32.18 40.13 32.75 40.66 33.83 40.3 34.77 39.99 35.05 39.11 35.07 38.22 35.61 38.65 36.41 38.78 36.97 38.38 37.18 38.23 37.35 38.03 37.49 37.79 37.79 38.58 38.52 39.17 39.43 39.26 40.7 39.38 42.16 38.71 42.85 37.61 42.95 37.91 43.12 38.18 43.4 38.38 43.7 38.59 44.06 38.65 44.41 38.6 44.18 39.1 44.07 39.66 44.32 40.07 44.67 40.66 45.47 40.74 46.07 40.5 46.01 40.63 45.96 40.77 45.92 40.9 45.6 41.9 45.72 43.27 46.44 44.07 46.99 44.68 47.87 44.83 48.62 44.6 48.45 44.84 48.31 45.1 48.18 45.39 47.76 46.3 47.65 47.66 48.41 48.42 48.57 48.59 48.77 48.68 48.98 48.73 48.89 49.24 49 49.75 49.42 50.17 49.76 50.51 50.1 50.62 50.43 50.57 50.11 51.39 50.42 53.16 52.07 54.46 51.74 53.98 51.48 53.47 51.29 52.94Z" fill="#6EBD24" opacity="0.5"/><g><path d="M20.32 40.5C19.72 40.5 19.12 40.41 18.54 40.56 17.59 40.79 16.94 41.68 16.46 42.51 16.42 42.56 16.37 42.61 16.34 42.66 16.26 42.77 16.36 42.96 16.5 42.92 17.46 42.68 18.41 43.03 19.36 42.81 20.26 42.61 20.92 41.42 21.37 40.7 21.4 40.64 21.37 40.57 21.33 40.53 21.16 40.33 20.56 40.49 20.32 40.5Z" fill="#318A0A"/><path d="M16.58 43.74C16.54 43.68 16.46 43.63 16.39 43.65 16.25 43.69 16.18 43.85 16.14 43.99 15.53 44.92 15.59 46.48 15.92 47.44 16.24 48.36 17.36 49.3 18.35 49.35 18.41 49.35 18.46 49.32 18.49 49.26 18.99 48.28 18.83 47.3 18.44 46.32 18.02 45.28 17.16 44.66 16.58 43.74Z" fill="#318A0A"/><path d="M15.96 29.92C15.92 29.84 15.86 29.79 15.77 29.8 14.03 30 11.47 31.5 11.17 33.43 11.16 33.48 11.15 33.52 11.14 33.57 11.09 33.86 10.87 34.67 11.04 34.94 11.24 35.27 11.91 35.02 12.21 34.97 13.48 34.76 14.79 34.1 15.51 33.01 15.84 32.5 15.97 31.98 16.02 31.38 16.06 30.96 16.12 30.31 15.96 29.92Z" fill="#318A0A"/><path d="M12.64 24.98C12.78 25.23 12.96 25.45 13.16 25.67 13.68 26.22 14.46 26.78 15.24 26.86 15.5 26.88 16.96 26.96 17.02 26.57 17.06 26.33 16.79 25.9 16.69 25.67 16.53 25.3 16.26 25.01 15.99 24.72 15.47 24.17 14.93 23.84 14.22 23.6 13.88 23.48 13.48 23.47 13.13 23.44 12.9 23.41 12.35 23.34 12.15 23.49 11.81 23.74 12.48 24.77 12.64 24.98 12.63 24.98 12.63 24.98 12.64 24.98Z" fill="#318A0A"/><path d="M28.01 18.72C27.99 18.72 27.97 18.73 27.95 18.73 27.91 18.71 27.86 18.71 27.82 18.73 27.81 18.74 27.8 18.74 27.78 18.75 26.43 18.96 25.25 19.26 24.23 20.28 23.39 21.12 23.01 22.54 23.01 23.69 23.01 23.74 23.05 23.82 23.1 23.84 23.54 24.04 24.37 23.81 24.85 23.75 25.55 23.65 26.17 23.24 26.65 22.73 27.7 21.65 27.84 20.32 28.05 18.91 28.06 18.88 28.05 18.85 28.04 18.82 28.05 18.82 28.05 18.81 28.06 18.81 28.11 18.8 28.06 18.72 28.01 18.72Z" fill="#318A0A"/><path d="M32.6 12.38C32.46 11.95 31.3 12.6 31.07 12.68 30.24 12.98 29.5 13.36 28.84 13.95 28.02 14.7 27.18 16.49 27.62 17.68 27.63 17.82 27.65 17.97 27.66 18.1 27.67 18.2 27.75 18.28 27.85 18.29 28.33 18.35 29.01 17.99 29.42 17.77 30.18 17.36 30.89 16.99 31.53 16.39 32.08 15.87 32.34 15.25 32.54 14.54 32.65 14.14 32.66 13.72 32.65 13.31 32.65 13.04 32.69 12.65 32.6 12.38Z" fill="#318A0A"/><path d="M20.84 10.65C20.66 10.59 20.46 10.54 20.25 10.52 19.84 10.44 19.4 10.48 18.94 10.66 18.31 10.91 18.57 11.29 18.81 11.81 19.09 12.43 19.64 12.95 20.25 13.22 20.86 13.49 21.65 13.36 22.23 13.07 22.81 12.78 22.8 12.55 22.49 12.04 22.13 11.43 21.5 10.89 20.84 10.65Z" fill="#318A0A"/><path d="M39.98 7.33C39.9 7.3 39.81 7.36 39.81 7.44 39.66 8.6 39.47 9.89 40.3 10.83 40.64 11.22 41.13 11.35 41.63 11.4 41.67 11.41 41.72 11.42 41.77 11.43 41.9 11.45 42.03 11.44 42.15 11.43 42.3 11.42 42.44 11.4 42.57 11.35 42.63 11.34 42.69 11.33 42.75 11.32 42.78 11.31 42.82 11.28 42.84 11.25 43.07 10.56 42.71 9.62 42.3 9.06 41.78 8.36 40.78 7.64 39.98 7.33Z" fill="#318A0A"/><path d="M47.03 7.99C45.56 8.36 43.14 9.58 43.42 11.35 43.38 11.67 43.38 12.06 43.49 12.23 43.66 12.5 44.11 12.44 44.37 12.44 45.32 12.43 46.28 11.84 46.78 11.04 47.31 10.21 47.25 9.09 47.25 8.15 47.25 8.06 47.13 7.96 47.03 7.99Z" fill="#318A0A"/><path d="M53.75 19.14C54.29 18.14 54.3 16.71 54.15 15.62 54.13 15.5 54.03 15.42 53.91 15.47 52.78 15.95 51.59 16.75 50.85 17.76 50.4 18.28 50.08 18.9 50.08 19.6 50.08 20.06 50.22 20.45 50.36 20.89 50.46 21.18 50.85 21.02 51.04 20.97 52.16 20.63 53.16 20.23 53.75 19.14Z" fill="#318A0A"/><path d="M54.59 22.8C53.93 21.92 53.02 21.61 51.94 21.69 51.67 21.71 51.12 21.91 50.95 22.12 50.75 22.35 51.14 22.97 51.26 23.21 51.42 23.68 51.7 24.08 52.17 24.4 52.58 24.69 53.06 24.68 53.52 24.79 54.16 24.94 54.77 25.11 55.35 25.43 55.45 25.48 55.54 25.44 55.57 25.34 55.66 25 55.47 24.53 55.37 24.21 55.19 23.7 54.91 23.23 54.59 22.8Z" fill="#318A0A"/><path d="M66.42 35.29C65.29 35.15 63.91 35.1 62.89 35.72 62.29 36.08 61.66 36.67 61.65 37.42 61.65 38 62.07 38.41 62.61 38.55 63.57 38.81 64.69 38.52 65.37 37.76 65.66 37.43 65.91 37.06 66.11 36.67 66.28 36.33 66.56 35.88 66.59 35.5 66.59 35.39 66.52 35.3 66.42 35.29Z" fill="#318A0A"/></g><g opacity="0.3"><path d="M21.33 40.53C20.73 40.94 20.07 41.26 19.37 41.53 18.68 41.79 17.99 42.04 17.33 42.38 17 42.55 16.67 42.72 16.34 42.87 16.37 42.91 16.43 42.94 16.49 42.92 17.45 42.68 18.4 43.03 19.35 42.81 20.25 42.61 20.91 41.42 21.36 40.7 21.41 40.65 21.37 40.57 21.33 40.53 21.34 40.53 21.34 40.53 21.33 40.53Z" fill="#318A0A"/><path d="M17.2 47.47C16.62 46.36 16.1 44.95 16.34 43.67 16.23 43.73 16.17 43.86 16.13 43.99 15.52 44.92 15.58 46.48 15.91 47.44 16.23 48.36 17.35 49.3 18.34 49.35 18.39 49.35 18.44 49.32 18.47 49.28 17.98 48.73 17.54 48.12 17.2 47.47Z" fill="#318A0A"/><path d="M15.9 29.84C14.79 31.89 13.18 33.68 11.33 35.1 11.61 35.14 12 35.01 12.21 34.97 13.48 34.76 14.79 34.1 15.51 33.01 15.84 32.5 15.97 31.98 16.02 31.38 16.06 30.96 16.12 30.3 15.96 29.91 15.95 29.88 15.92 29.86 15.9 29.84Z" fill="#318A0A"/><path d="M12.07 23.59C11.95 23.96 12.49 24.79 12.63 24.98 12.63 24.98 12.63 24.98 12.64 24.99 12.78 25.24 12.96 25.46 13.16 25.68 13.68 26.23 14.46 26.79 15.24 26.87 15.49 26.89 16.84 26.96 17.01 26.62 15.18 25.92 13.44 24.94 12.07 23.59Z" fill="#318A0A"/><path d="M28.01 18.72C27.99 18.72 27.97 18.73 27.95 18.73 27.93 18.72 27.9 18.71 27.88 18.72 27.62 19.45 26.93 20.11 26.46 20.7 26 21.28 25.52 21.85 25 22.38 24.54 22.85 23.94 23.5 23.26 23.9 23.72 24 24.43 23.82 24.85 23.76 25.55 23.66 26.17 23.25 26.65 22.74 27.7 21.66 27.84 20.33 28.05 18.92 28.06 18.89 28.05 18.86 28.04 18.83 28.05 18.83 28.05 18.82 28.06 18.82 28.11 18.8 28.06 18.72 28.01 18.72Z" fill="#318A0A"/><path d="M32.6 12.38C32.58 12.33 32.55 12.29 32.51 12.27 32.33 12.67 32.11 13.06 31.88 13.43 31.41 14.17 30.95 14.93 30.41 15.62 29.65 16.59 28.75 17.5 27.69 18.14 27.71 18.22 27.78 18.28 27.87 18.29 28.35 18.35 29.03 17.99 29.44 17.77 30.2 17.36 30.91 16.99 31.55 16.39 32.1 15.87 32.36 15.25 32.56 14.54 32.67 14.14 32.68 13.72 32.67 13.31 32.65 13.04 32.69 12.65 32.6 12.38Z" fill="#318A0A"/><path d="M22.01 12.51C21.22 12.42 20.43 12.07 19.74 11.68 19.32 11.44 18.96 11.16 18.66 10.83 18.43 11.07 18.63 11.4 18.81 11.81 19.09 12.43 19.64 12.95 20.25 13.22 20.86 13.49 21.65 13.36 22.23 13.07 22.61 12.88 22.73 12.72 22.69 12.48 22.46 12.53 22.24 12.54 22.01 12.51Z" fill="#318A0A"/><path d="M40.39 8.85C40.18 8.43 39.97 7.97 39.8 7.49 39.66 8.64 39.48 9.9 40.3 10.83 40.64 11.22 41.13 11.35 41.63 11.4 41.67 11.41 41.72 11.42 41.77 11.43 41.9 11.45 42.03 11.44 42.15 11.43 42.3 11.42 42.44 11.4 42.57 11.35 42.63 11.34 42.68 11.33 42.74 11.32 41.66 10.88 40.9 9.87 40.39 8.85Z" fill="#318A0A"/><path d="M47.19 8.05C46.75 8.95 46.15 9.79 45.56 10.49 44.97 11.2 44.29 11.81 43.56 12.32 43.76 12.49 44.14 12.45 44.36 12.45 45.31 12.44 46.27 11.85 46.77 11.05 47.3 10.22 47.24 9.1 47.24 8.16 47.25 8.12 47.22 8.08 47.19 8.05Z" fill="#318A0A"/><path d="M54.11 15.53C53.73 16.38 53.23 17.19 52.65 17.96 51.91 18.95 51.23 20.03 50.41 20.99 50.56 21.14 50.87 21.02 51.03 20.97 52.16 20.63 53.16 20.23 53.75 19.14 54.29 18.14 54.3 16.71 54.15 15.62 54.14 15.58 54.13 15.55 54.11 15.53Z" fill="#318A0A"/><path d="M54.23 23.9C53.3 22.98 52.14 22.56 50.96 22.1 50.96 22.1 50.95 22.11 50.94 22.11 50.74 22.34 51.13 22.96 51.25 23.2 51.41 23.67 51.69 24.07 52.16 24.39 52.57 24.68 53.05 24.67 53.51 24.78 54.15 24.93 54.76 25.1 55.34 25.42 55.35 25.43 55.37 25.43 55.38 25.43 55.06 24.88 54.69 24.36 54.23 23.9Z" fill="#318A0A"/><path d="M62.06 38.28C62.21 38.4 62.4 38.49 62.6 38.55 63.56 38.81 64.68 38.52 65.36 37.76 65.65 37.43 65.9 37.06 66.1 36.67 66.27 36.33 66.55 35.88 66.58 35.5 66.58 35.48 66.58 35.47 66.58 35.45 64.77 35.93 63.22 36.9 62.06 38.28Z" fill="#318A0A"/></g></g><path d="M32.01 85.8C32.01 85.8 31.68 83.98 29.01 83.45 29.01 83.45 31.09 82.73 32.97 84.24 32.97 84.24 32.71 83.3 31.19 82.12 31.19 82.12 33.64 81.97 34.97 84.54 34.97 84.54 35.44 83.08 36.64 82.15 36.64 82.15 36.33 83.49 36.42 84.51 36.42 84.51 37.26 82.65 39.21 81.97 39.21 81.97 39.09 83.83 38.74 84.2 38.74 84.2 40.04 83.61 39.8 81.59 39.8 81.59 41.04 82.49 41.26 84.16 41.26 84.16 41.63 82.3 41.42 81.5 41.42 81.5 42.32 82.58 42.97 84.1 42.97 84.1 43.72 82.61 45.86 82.14 45.86 82.14 44.93 83.07 44.65 84.16 44.65 84.16 46.42 82.46 48.74 83.01 48.74 83.01 47.22 84.38 46.97 85.68L32.01 85.8Z" fill="#318A0A"/></g></svg>