<svg width="126.42" height="87.19" viewBox="0 0 126.42 87.19" xmlns="http://www.w3.org/2000/svg" xmlns:xlink="http://www.w3.org/1999/xlink" xml:space="preserve" overflow="hidden"><defs></defs><g><g><path d="M8.99 83.78C6.6 83.78 4.31 83.8 2.02 83.77 0.22 83.75-0.15 83.35 0.05 81.54 0.9 73.68 1.85 65.82 2.63 57.95 3.55 48.62 4.32 39.27 5.18 29.94 5.97 21.39 6.77 12.85 8.43 4.41 8.62 3.46 8.95 2.54 9.27 1.62 9.34 1.41 9.63 1.22 9.87 1.14 10.15 1.05 10.47 1.06 10.78 1.06 20.64 0.93 30.51 0.76 40.37 0.67 66.7 0.43 93.03 0.22 119.36 0 121.04-0.01 122.72 0.05 124.4 0.12 125.84 0.18 126.17 0.51 126.23 1.94 126.28 3.13 126.26 4.32 126.27 5.51 126.32 31.2 126.38 56.89 126.43 82.58 126.44 85.48 125.75 86.26 122.8 86.33 112.94 86.54 103.07 86.63 93.21 86.9 72.96 87.46 52.71 87.1 32.46 86.78 25.19 86.66 17.92 86.5 10.65 86.36 9.03 86.33 9.03 86.34 9.05 84.67 9.05 84.43 9.01 84.19 8.99 83.78ZM10.7 84.71C11.01 84.75 11.13 84.77 11.25 84.77 14.7 84.79 18.15 84.78 21.61 84.83 39.08 85.07 56.55 85.44 74.02 85.52 86.85 85.58 99.68 85.3 112.5 85.11 116.16 85.06 119.82 84.8 123.48 84.6 124.72 84.53 125 84.09 124.8 82.9 124.75 82.63 124.74 82.35 124.74 82.08 124.75 69.4 124.76 56.73 124.79 44.05 124.82 30.06 124.88 16.07 124.92 2.08 124.92 1.97 124.86 1.86 124.79 1.62 86.75 1.39 48.71 2.21 10.7 2.63 10.7 29.94 10.7 57.3 10.7 84.71ZM9.08 82.29C9.08 58.13 9.08 34.03 9.08 9.92 8.65 12.42 8.29 14.92 8.05 17.44 7.2 26.68 6.46 35.94 5.55 45.18 4.39 56.85 3.09 68.5 1.85 80.16 1.78 80.85 1.71 81.53 1.64 82.29 4.14 82.29 6.51 82.29 9.08 82.29Z" fill="#2F4042"/><path d="M10.7 84.71C10.7 57.3 10.7 29.94 10.7 2.63 48.71 2.21 86.75 1.39 124.8 1.62 124.87 1.85 124.93 1.97 124.93 2.08 124.89 16.07 124.83 30.06 124.8 44.05 124.77 56.73 124.76 69.4 124.75 82.08 124.75 82.35 124.76 82.63 124.81 82.9 125.01 84.1 124.73 84.53 123.49 84.6 119.83 84.8 116.17 85.06 112.51 85.11 99.68 85.3 86.85 85.58 74.03 85.52 56.56 85.44 39.09 85.06 21.62 84.83 18.17 84.78 14.72 84.79 11.26 84.77 11.13 84.77 11.01 84.75 10.7 84.71Z" fill="#F9E467"/><path d="M9.08 82.29C6.52 82.29 4.15 82.29 1.65 82.29 1.72 81.53 1.79 80.85 1.86 80.16 3.09 68.5 4.39 56.85 5.54 45.18 6.46 35.94 7.19 26.69 8.04 17.44 8.27 14.92 8.64 12.42 9.07 9.92 9.08 34.03 9.08 58.13 9.08 82.29Z" fill="#FFF6A4"/></g><g><path d="M68.39 45.02C68.39 45.87 68.39 46.73 68.39 47.58 68.39 47.95 68.34 48.32 68.13 48.63 67.85 49.05 67.53 49.06 67.29 48.62 67.15 48.36 67.05 48.04 67.05 47.75 67.04 45.83 67.06 43.9 67.08 41.98 67.09 41.55 67.12 41.02 67.66 40.99 68.28 40.96 68.32 41.54 68.34 41.99 68.37 43 68.35 44 68.35 45.01 68.37 45.02 68.38 45.02 68.39 45.02Z" fill="#2F4042"/><path d="M68.51 56.35C68.52 57.38 68.73 58.43 68.46 59.45 68.37 59.8 68.3 60.26 67.85 60.25 67.41 60.25 67.3 59.79 67.24 59.44 66.97 57.8 67.15 56.15 67.14 54.5 67.14 54.1 67.15 53.7 67.21 53.31 67.26 52.97 67.41 52.63 67.82 52.61 68.28 52.59 68.49 52.94 68.5 53.32 68.53 54.33 68.51 55.34 68.51 56.35Z" fill="#2F4042"/><path d="M68.56 24.28C68.53 25.28 68.71 26.29 68.47 27.28 68.39 27.61 68.32 28.01 67.92 28.03 67.45 28.06 67.35 27.62 67.3 27.26 67.04 25.35 67.18 23.44 67.22 21.53 67.23 21.16 67.44 20.79 67.89 20.8 68.34 20.81 68.53 21.17 68.54 21.55 68.58 22.45 68.56 23.37 68.56 24.28Z" fill="#2F4042"/><path d="M68.51 34.76C68.51 35.58 68.54 36.4 68.49 37.21 68.47 37.56 68.32 38 67.89 38.01 67.45 38.02 67.3 37.57 67.27 37.23 67.11 35.54 67.13 33.84 67.31 32.14 67.35 31.82 67.55 31.55 67.91 31.58 68.27 31.6 68.43 31.89 68.46 32.21 68.52 33.06 68.56 33.9 68.6 34.75 68.58 34.76 68.54 34.76 68.51 34.76Z" fill="#2F4042"/><path d="M69 5.48C69 6.15 69.03 6.82 68.99 7.48 68.97 7.91 68.87 8.4 68.35 8.45 67.79 8.49 67.67 7.99 67.63 7.57 67.49 6.12 67.58 4.66 67.71 3.21 67.74 2.89 67.9 2.62 68.27 2.59 68.69 2.56 68.9 2.86 68.92 3.21 68.96 3.97 68.93 4.72 68.93 5.48 68.94 5.48 68.97 5.48 69 5.48Z" fill="#2F4042"/><path d="M68.58 66.31C68.58 67.16 68.61 68.01 68.57 68.86 68.55 69.18 68.41 69.58 67.98 69.55 67.63 69.52 67.53 69.18 67.49 68.87 67.26 67.2 67.36 65.53 67.47 63.86 67.49 63.53 67.65 63.24 68.02 63.25 68.44 63.26 68.59 63.58 68.59 63.94 68.61 64.73 68.6 65.52 68.6 66.31 68.59 66.31 68.59 66.31 68.58 66.31Z" fill="#2F4042"/><path d="M68.77 14.4C68.77 15.07 68.79 15.74 68.76 16.41 68.74 16.76 68.58 17.09 68.17 17.11 67.71 17.13 67.52 16.8 67.49 16.41 67.4 15.01 67.4 13.62 67.5 12.22 67.52 11.86 67.72 11.56 68.12 11.57 68.57 11.58 68.75 11.92 68.76 12.31 68.79 13 68.78 13.7 68.77 14.4 68.77 14.4 68.77 14.4 68.77 14.4Z" fill="#2F4042"/><path d="M68.77 75.21C68.77 75.88 68.79 76.55 68.76 77.22 68.74 77.56 68.62 77.93 68.2 77.94 67.77 77.95 67.66 77.58 67.63 77.24 67.52 75.87 67.53 74.5 67.65 73.14 67.68 72.81 67.81 72.51 68.18 72.51 68.6 72.51 68.74 72.87 68.75 73.21 68.79 73.87 68.77 74.54 68.77 75.21 68.77 75.21 68.77 75.21 68.77 75.21Z" fill="#2F4042"/><path d="M67.7 82.29C67.7 81.8 67.69 81.31 67.7 80.83 67.71 80.5 67.86 80.21 68.22 80.18 68.59 80.15 68.78 80.41 68.81 80.74 68.92 81.83 68.97 82.93 68.79 84.02 68.74 84.33 68.59 84.64 68.21 84.61 67.9 84.59 67.75 84.3 67.72 84.03 67.66 83.46 67.65 82.88 67.63 82.3 67.66 82.3 67.68 82.29 67.7 82.29Z" fill="#2F4042"/></g><g><path d="M33.72 34.04C33.29 34.05 33.14 33.82 33.16 33.46 33.18 33.11 33.36 32.82 33.61 32.56 34.62 31.55 35.68 30.59 36.83 29.72 37.22 29.42 37.69 29.13 38.13 29.61 38.53 30.04 38.15 30.42 37.83 30.72 36.82 31.69 35.8 32.64 34.78 33.59 34.48 33.86 34.14 34.05 33.72 34.04Z" fill="#2F4042"/><path d="M103.54 33.46C103.57 33.89 103.34 34.07 102.88 34.04 102.5 34.01 102.19 33.83 101.93 33.59 100.9 32.64 99.88 31.69 98.87 30.72 98.55 30.41 98.18 30.04 98.57 29.6 99.01 29.12 99.48 29.42 99.87 29.72 101.02 30.59 102.08 31.55 103.09 32.56 103.35 32.82 103.53 33.11 103.54 33.46Z" fill="#2F4042"/><path d="M27.2 40.8C27.18 41.09 27.02 41.32 26.81 41.52 25.9 42.4 24.88 43.18 23.85 43.93 23.46 44.21 22.94 44.47 22.53 44.01 22.12 43.55 22.5 43.11 22.85 42.82 23.86 41.99 24.88 41.18 25.96 40.43 26.57 39.99 27.19 40.22 27.2 40.8Z" fill="#2F4042"/><path d="M110.12 40.21C110.89 40.25 114.19 42.91 114.31 43.51 114.36 43.78 114.3 43.99 114.04 44.14 113.67 44.34 113.31 44.22 113.02 44.03 111.95 43.32 110.97 42.51 110.03 41.65 109.83 41.46 109.62 41.22 109.55 40.97 109.4 40.48 109.67 40.23 110.12 40.21Z" fill="#2F4042"/><path d="M49.62 18.95C49.59 19.05 49.58 19.15 49.53 19.22 48.67 20.46 47.5 21.46 46.33 22.44 46.08 22.65 45.68 22.63 45.41 22.4 45.13 22.17 45.08 21.81 45.29 21.56 46.27 20.37 47.35 19.26 48.68 18.4 49.16 18.09 49.54 18.42 49.62 18.95Z" fill="#2F4042"/><path d="M91.51 21.84C91.49 22.12 91.44 22.36 91.16 22.48 90.86 22.6 90.53 22.6 90.32 22.41 89.22 21.44 88.1 20.5 87.24 19.33 87.04 19.06 87 18.75 87.28 18.49 87.52 18.27 87.84 18.22 88.09 18.41 89.34 19.32 90.42 20.38 91.41 21.52 91.48 21.61 91.49 21.75 91.51 21.84Z" fill="#2F4042"/><path d="M51.64 17.2C51.23 17.16 51.01 16.92 51.13 16.52 51.2 16.27 51.35 15.99 51.56 15.82 52.6 14.93 53.66 14.06 54.74 13.2 55.07 12.94 55.5 12.7 55.88 13.08 56.25 13.46 55.98 13.83 55.66 14.12 54.66 15.01 53.66 15.9 52.65 16.77 52.38 17 52.07 17.19 51.64 17.2Z" fill="#2F4042"/><path d="M85.61 16.67C85.58 17.06 85.33 17.28 84.9 17.18 84.62 17.12 84.33 16.99 84.12 16.81 83.08 15.92 82.05 15.02 81.03 14.1 80.71 13.81 80.46 13.44 80.85 13.06 81.2 12.73 81.61 12.92 81.92 13.16 83.02 14.04 84.1 14.93 85.18 15.83 85.42 16.04 85.57 16.32 85.61 16.67Z" fill="#2F4042"/><path d="M17.4 49.22C17.12 49.23 16.9 49.17 16.78 48.95 16.6 48.64 16.7 48.35 16.91 48.1 17.41 47.48 18.1 47.05 18.72 46.55 19.24 46.13 19.79 45.74 20.35 45.37 20.64 45.18 20.98 45.18 21.25 45.44 21.49 45.66 21.55 45.97 21.34 46.19 20.27 47.35 19.1 48.42 17.65 49.18 17.57 49.22 17.46 49.21 17.4 49.22Z" fill="#2F4042"/><path d="M119.24 49.22C119.16 49.19 118.98 49.18 118.85 49.1 117.57 48.33 116.49 47.36 115.46 46.33 115.22 46.09 115.17 45.77 115.42 45.49 115.7 45.18 116.07 45.17 116.4 45.38 117.61 46.17 118.74 47.06 119.76 48.05 120.02 48.3 120.12 48.64 119.92 48.98 119.78 49.19 119.56 49.23 119.24 49.22Z" fill="#2F4042"/><path d="M32.16 36.03C32.08 36.17 31.99 36.41 31.82 36.58 30.98 37.4 30.13 38.21 29.25 38.98 28.89 39.3 28.39 39.61 27.94 39.2 27.5 38.79 27.85 38.34 28.16 37.97 28.95 37.06 29.88 36.29 30.84 35.54 31.13 35.32 31.46 35.18 31.84 35.38 32.05 35.51 32.15 35.7 32.16 36.03Z" fill="#2F4042"/><path d="M108.97 38.81C108.79 39.5 108.33 39.46 107.83 39.22 107.18 38.9 106.73 38.35 106.22 37.88 105.69 37.38 105.17 36.87 104.69 36.33 104.47 36.08 104.46 35.76 104.74 35.49 104.98 35.26 105.3 35.22 105.55 35.39 106.81 36.23 107.96 37.18 108.83 38.4 108.91 38.52 108.93 38.69 108.97 38.81Z" fill="#2F4042"/><path d="M58.23 11.21C57.61 11.19 57.29 10.64 57.71 10.15 58.65 9.05 59.75 8.1 60.97 7.26 61.19 7.11 61.47 7.11 61.71 7.27 61.96 7.44 62.04 7.72 61.89 7.92 60.94 9.16 59.83 10.26 58.5 11.16 58.43 11.2 58.31 11.2 58.23 11.21Z" fill="#2F4042"/><path d="M79.14 10.51C79.16 10.78 79.1 10.98 78.88 11.1 78.56 11.28 78.21 11.26 77.95 11.05 76.83 10.15 75.82 9.16 74.88 8.11 74.69 7.89 74.67 7.59 74.89 7.35 75.08 7.15 75.37 7.07 75.6 7.22 76.92 8.07 78.08 9.1 79.06 10.28 79.13 10.35 79.13 10.46 79.14 10.51Z" fill="#2F4042"/><path d="M67.45 2.91C67.41 3.16 67.25 3.36 67.06 3.53 66.17 4.34 65.28 5.16 64.38 5.96 64 6.28 63.55 6.59 63.09 6.14 62.67 5.74 62.97 5.34 63.3 5.02 64.24 4.12 65.23 3.28 66.36 2.58 66.61 2.43 66.87 2.29 67.19 2.45 67.38 2.55 67.46 2.71 67.45 2.91Z" fill="#2F4042"/><path d="M69.85 2.37C70.01 2.45 70.26 2.53 70.47 2.66 71.53 3.34 72.48 4.14 73.37 4.99 73.73 5.33 74.05 5.76 73.56 6.18 73.13 6.55 72.69 6.28 72.35 5.97 71.4 5.12 70.46 4.27 69.54 3.41 69.33 3.22 69.17 2.97 69.3 2.67 69.38 2.49 69.55 2.4 69.85 2.37Z" fill="#2F4042"/><path d="M40.38 27.83C39.81 27.76 39.6 27.38 39.83 26.98 40.55 25.72 41.72 24.82 42.93 23.97 43.13 23.83 43.45 23.86 43.65 24.07 43.82 24.24 43.91 24.47 43.78 24.66 42.97 25.89 41.96 26.96 40.67 27.78 40.6 27.83 40.48 27.82 40.38 27.83Z" fill="#2F4042"/><path d="M93.45 23.91C94.19 23.93 96.92 26.56 96.93 27.19 96.94 27.76 96.36 28.07 95.82 27.68 94.7 26.87 93.72 25.92 92.98 24.79 92.68 24.34 92.92 23.98 93.45 23.91Z" fill="#2F4042"/><path d="M14.38 50.89C14.63 50.87 14.83 50.95 14.98 51.14 15.17 51.4 15.15 51.69 14.95 51.91 14.16 52.77 13.26 53.52 12.26 54.16 12.01 54.32 11.68 54.3 11.42 54.12 11.15 53.93 11.12 53.66 11.2 53.38 11.34 52.87 13.83 50.92 14.38 50.89Z" fill="#2F4042"/><path d="M125.54 53.56C125.52 54.16 124.93 54.46 124.39 54.12 123.42 53.5 122.54 52.77 121.77 51.93 121.55 51.68 121.52 51.37 121.77 51.09 121.96 50.88 122.25 50.81 122.48 50.93 123.62 51.54 124.64 52.3 125.46 53.27 125.53 53.35 125.53 53.49 125.54 53.56Z" fill="#2F4042"/></g><g><path d="M55.3 49.89C54.56 49.3 53.8 48.73 53.09 48.11 52.69 47.76 52.33 47.27 52.82 46.77 53.31 46.27 53.78 46.65 54.17 47.01 55.2 47.97 56.12 49.03 57.02 50.11 57.67 50.9 57.4 51.72 56.93 52.4 56.06 53.65 54.92 54.7 53.78 55.71 53.38 56.06 52.84 56.35 52.4 55.85 51.98 55.37 52.41 54.92 52.72 54.57 53.42 53.78 54.17 53.03 54.9 52.24 54.54 51.96 54.19 52.06 53.86 52.06 50.56 52.06 47.28 51.82 44.02 51.25 39.1 50.38 34.7 48.32 30.72 45.41 22.25 39.23 16.53 31.06 13.56 20.99 12.69 18.04 12.26 15.03 12.57 11.95 12.6 11.66 12.52 11.23 12.92 11.22 13.33 11.21 13.29 11.63 13.29 11.92 13.2 19.19 16.12 25.46 19.88 31.41 24.27 38.37 30.04 43.87 37.52 47.47 41.48 49.37 45.72 50.02 50.03 50.31 51.66 50.42 53.31 50.33 54.94 50.33 55.07 50.17 55.19 50.03 55.3 49.89Z" fill="#2F4042"/><path d="M81.04 52.28C81.75 53.03 82.48 53.76 83.17 54.53 83.5 54.91 83.97 55.39 83.47 55.88 83.02 56.32 82.47 56.01 82.08 55.66 80.99 54.68 79.93 53.66 79.03 52.5 78.32 51.57 78.38 50.68 79.16 49.78 79.88 48.95 80.61 48.13 81.39 47.35 81.84 46.9 82.36 46.1 83.05 46.76 83.75 47.43 82.95 47.94 82.53 48.42 81.99 49.02 81.42 49.6 80.85 50.2 80.99 50.3 81.03 50.36 81.08 50.36 86.77 50.48 92.39 50.07 97.68 47.77 104.71 44.71 110.17 39.71 114.58 33.57 118.11 28.65 120.84 23.31 122.12 17.32 122.48 15.64 122.59 13.94 122.61 12.23 122.61 11.87 122.43 11.26 122.95 11.24 123.5 11.22 123.3 11.84 123.33 12.2 123.79 17.58 122.14 22.51 119.97 27.3 116.11 35.84 110.12 42.51 102.12 47.38 97.23 50.36 91.83 51.62 86.18 51.94 84.49 52.04 82.78 51.95 81.08 51.95 81.07 52.06 81.06 52.17 81.04 52.28Z" fill="#2F4042"/></g></g></svg>