<svg width="89.47" height="143.93" viewBox="0 0 89.47 143.93" xmlns="http://www.w3.org/2000/svg" xmlns:xlink="http://www.w3.org/1999/xlink" xml:space="preserve" overflow="hidden"><defs></defs><g><g><g><path d="M88.97 36.23 88.97 107.7 63.33 82.06 63.33 81.33 73.43 71.23 63.7 61.5Z" fill="#F3D5AA"/></g><g><path d="M73.43 71.23 63.33 81.33 63.33 61.86 63.7 61.5Z" fill="#FFFFFF"/></g><g><path d="M63.7 61.5 63.33 61.86 63.33 61.13Z" fill="#FFFFFF"/></g><g><path d="M63.33 82.06 88.97 107.7 53.23 143.43 17.5 107.7 26.86 98.34 26.86 98.33 26.86 45.6 26.86 45.59 17.5 36.23 53.23 0.49 88.97 36.23 63.7 61.5 63.33 61.13 63.33 61.86 63.33 81.33Z" fill="#FFFFFF"/></g><g><path d="M26.86 98.33 26.86 98.34 17.5 107.7 17.5 88.97Z" fill="#F3D5AA"/></g><g><path d="M26.86 45.6 26.86 98.33 17.5 88.97 0.5 71.97 17.5 54.97Z" fill="#FFFFFF"/></g><g><path d="M26.86 45.59 26.86 45.6 17.5 54.97 17.5 36.23Z" fill="#F3D5AA"/></g><g><path d="M87.5 72.47 84.5 72.47C84.22 72.47 84 72.25 84 71.97 84 71.69 84.22 71.47 84.5 71.47L87.5 71.47C87.78 71.47 88 71.69 88 71.97 88 72.25 87.78 72.47 87.5 72.47ZM81.5 72.47 78.5 72.47C78.22 72.47 78 72.25 78 71.97 78 71.69 78.22 71.47 78.5 71.47L81.5 71.47C81.78 71.47 82 71.69 82 71.97 82 72.25 81.78 72.47 81.5 72.47ZM75.5 72.47 72.5 72.47C72.22 72.47 72 72.25 72 71.97 72 71.69 72.22 71.47 72.5 71.47L75.5 71.47C75.78 71.47 76 71.69 76 71.97 76 72.25 75.78 72.47 75.5 72.47ZM69.5 72.47 66.5 72.47C66.22 72.47 66 72.25 66 71.97 66 71.69 66.22 71.47 66.5 71.47L69.5 71.47C69.78 71.47 70 71.69 70 71.97 70 72.25 69.78 72.47 69.5 72.47ZM63.5 72.47 60.5 72.47C60.22 72.47 60 72.25 60 71.97 60 71.69 60.22 71.47 60.5 71.47L63.5 71.47C63.78 71.47 64 71.69 64 71.97 64 72.25 63.78 72.47 63.5 72.47ZM57.5 72.47 54.5 72.47C54.22 72.47 54 72.25 54 71.97 54 71.69 54.22 71.47 54.5 71.47L57.5 71.47C57.78 71.47 58 71.69 58 71.97 58 72.25 57.78 72.47 57.5 72.47ZM51.5 72.47 48.5 72.47C48.22 72.47 48 72.25 48 71.97 48 71.69 48.22 71.47 48.5 71.47L51.5 71.47C51.78 71.47 52 71.69 52 71.97 52 72.25 51.78 72.47 51.5 72.47ZM45.5 72.47 42.5 72.47C42.22 72.47 42 72.25 42 71.97 42 71.69 42.22 71.47 42.5 71.47L45.5 71.47C45.78 71.47 46 71.69 46 71.97 46 72.25 45.78 72.47 45.5 72.47ZM39.5 72.47 36.5 72.47C36.22 72.47 36 72.25 36 71.97 36 71.69 36.22 71.47 36.5 71.47L39.5 71.47C39.78 71.47 40 71.69 40 71.97 40 72.25 39.78 72.47 39.5 72.47ZM33.5 72.47 30.5 72.47C30.22 72.47 30 72.25 30 71.97 30 71.69 30.22 71.47 30.5 71.47L33.5 71.47C33.78 71.47 34 71.69 34 71.97 34 72.25 33.78 72.47 33.5 72.47ZM27.5 72.47 24.5 72.47C24.22 72.47 24 72.25 24 71.97 24 71.69 24.22 71.47 24.5 71.47L27.5 71.47C27.78 71.47 28 71.69 28 71.97 28 72.25 27.78 72.47 27.5 72.47ZM21.5 72.47 18.5 72.47C18.22 72.47 18 72.25 18 71.97 18 71.69 18.22 71.47 18.5 71.47L21.5 71.47C21.78 71.47 22 71.69 22 71.97 22 72.25 21.78 72.47 21.5 72.47ZM15.5 72.47 12.5 72.47C12.22 72.47 12 72.25 12 71.97 12 71.69 12.22 71.47 12.5 71.47L15.5 71.47C15.78 71.47 16 71.69 16 71.97 16 72.25 15.78 72.47 15.5 72.47ZM9.5 72.47 6.5 72.47C6.22 72.47 6 72.25 6 71.97 6 71.69 6.22 71.47 6.5 71.47L9.5 71.47C9.78 71.47 10 71.69 10 71.97 10 72.25 9.78 72.47 9.5 72.47ZM3.5 72.47 0.5 72.47C0.22 72.47 0 72.25 0 71.97 0 71.69 0.22 71.47 0.5 71.47L3.5 71.47C3.78 71.47 4 71.69 4 71.97 4 72.25 3.78 72.47 3.5 72.47Z" fill="#7A7A9A"/></g><g><path d="M17.5 55.47C17.22 55.47 17 55.25 17 54.97L17 36.23C17 35.95 17.22 35.73 17.5 35.73 17.78 35.73 18 35.95 18 36.23L18 54.97C18 55.25 17.78 55.47 17.5 55.47Z" fill="#292764"/></g><g><path d="M17.5 108.2C17.22 108.2 17 107.98 17 107.7L17 88.97C17 88.69 17.22 88.47 17.5 88.47 17.78 88.47 18 88.69 18 88.97L18 107.7C18 107.98 17.78 108.2 17.5 108.2Z" fill="#292764"/></g><g><path d="M26.86 98.83C26.73 98.83 26.6 98.78 26.51 98.68L0.15 72.33C-0.05 72.13-0.05 71.82 0.15 71.62L26.51 45.25C26.71 45.05 27.02 45.05 27.22 45.25 27.42 45.44 27.42 45.76 27.22 45.96L1.21 71.97 27.22 97.98C27.42 98.18 27.42 98.49 27.22 98.69 27.12 98.79 26.99 98.83 26.86 98.83Z" fill="#292764"/></g><g><path d="M88.97 108.2C88.69 108.2 88.47 107.98 88.47 107.7L88.47 36.23C88.47 35.95 88.69 35.73 88.97 35.73 89.25 35.73 89.47 35.95 89.47 36.23L89.47 107.7C89.47 107.98 89.25 108.2 88.97 108.2Z" fill="#292764"/></g><g><path d="M26.86 99.01C26.58 99.01 26.36 98.79 26.36 98.51L26.36 98.34C26.36 98.06 26.58 97.84 26.86 97.84 27.14 97.84 27.36 98.06 27.36 98.34L27.36 98.51C27.36 98.79 27.14 99.01 26.86 99.01Z" fill="#292764"/></g><g><path d="M63.33 62.36C63.2 62.36 63.07 62.31 62.97 62.21 62.78 62.01 62.78 61.7 62.98 61.5L63.35 61.14C63.55 60.95 63.87 60.95 64.06 61.15 64.25 61.35 64.25 61.66 64.05 61.86L63.68 62.22C63.58 62.32 63.46 62.36 63.33 62.36Z" fill="#292764"/></g><g><path d="M53.23 143.93C53.1 143.93 52.97 143.88 52.88 143.78L17.15 108.05C16.95 107.85 16.95 107.54 17.15 107.34L26.36 98.13 26.36 45.8 17.15 36.59C16.95 36.39 16.95 36.08 17.15 35.88L52.88 0.14C53.07-0.05 53.4-0.05 53.59 0.14L89.33 35.88C89.53 36.08 89.53 36.39 89.33 36.59L64.05 61.86C63.85 62.06 63.54 62.06 63.34 61.86 63.14 61.66 63.14 61.35 63.34 61.15L88.26 36.23 53.23 1.2 18.21 36.23 27.22 45.24C27.31 45.33 27.37 45.46 27.37 45.59L27.37 98.33C27.37 98.46 27.32 98.6 27.22 98.69L18.21 107.7 53.23 142.72 88.26 107.7 62.98 82.42C62.89 82.33 62.83 82.2 62.83 82.07L62.83 81.34C62.83 81.06 63.05 80.84 63.33 80.84 63.61 80.84 63.83 81.06 63.83 81.34L63.83 81.86 89.32 107.35C89.41 107.44 89.47 107.57 89.47 107.7 89.47 107.83 89.42 107.96 89.32 108.05L53.58 143.78C53.49 143.89 53.36 143.93 53.23 143.93Z" fill="#292764"/></g><g><path d="M63.33 81.83C63.27 81.83 63.2 81.82 63.14 81.79 62.95 81.71 62.83 81.53 62.83 81.33L62.83 61.13C62.83 60.93 62.95 60.75 63.14 60.67 63.33 60.59 63.54 60.64 63.68 60.78L73.78 70.88C73.98 71.08 73.98 71.39 73.78 71.59L63.68 81.69C63.59 81.78 63.46 81.83 63.33 81.83ZM63.83 62.34 63.83 80.13 72.72 71.24 63.83 62.34Z" fill="#292764"/></g><g><path d="M63.33 82.7C63.05 82.7 62.83 82.48 62.83 82.2L62.83 82.06C62.83 81.78 63.05 81.56 63.33 81.56 63.61 81.56 63.83 81.78 63.83 82.06L63.83 82.2C63.83 82.48 63.61 82.7 63.33 82.7Z" fill="#292764"/></g></g><g><g><path d="M83.47 57.58 71.36 57.58C66.03 57.58 61.7 53.25 61.7 47.92 61.7 47.51 62.04 47.17 62.45 47.17 62.86 47.17 63.2 47.51 63.2 47.92 63.2 52.42 66.86 56.08 71.36 56.08L83.47 56.08C83.88 56.08 84.22 56.42 84.22 56.83 84.22 57.25 83.88 57.58 83.47 57.58Z" fill="#292764"/></g><g><path d="M79.01 62.31C78.82 62.31 78.63 62.24 78.48 62.09 78.19 61.8 78.19 61.32 78.48 61.03L82.62 56.89 78.37 52.64C78.08 52.35 78.08 51.87 78.37 51.58 78.66 51.29 79.14 51.29 79.43 51.58L84.21 56.36C84.5 56.65 84.5 57.13 84.21 57.42L79.54 62.09C79.4 62.23 79.21 62.31 79.01 62.31Z" fill="#292764"/></g></g><g><g><path d="M30.03 64.4 17.92 64.4C17.51 64.4 17.17 64.06 17.17 63.65 17.17 63.24 17.51 62.9 17.92 62.9L30.03 62.9C34.53 62.9 38.19 59.24 38.19 54.74 38.19 54.33 38.53 53.99 38.94 53.99 39.35 53.99 39.69 54.33 39.69 54.74 39.69 60.07 35.36 64.4 30.03 64.4Z" fill="#292764"/></g><g><path d="M22.37 69.13C22.18 69.13 21.99 69.06 21.84 68.91L17.17 64.24C16.88 63.95 16.88 63.47 17.17 63.18L21.95 58.4C22.24 58.11 22.72 58.11 23.01 58.4 23.3 58.69 23.3 59.17 23.01 59.46L18.76 63.71 22.9 67.85C23.19 68.14 23.19 68.62 22.9 68.91 22.76 69.05 22.56 69.13 22.37 69.13Z" fill="#292764"/></g></g></g></svg>