<svg width="119.48" height="109.11" viewBox="0 0 119.48 109.11" xmlns="http://www.w3.org/2000/svg" xmlns:xlink="http://www.w3.org/1999/xlink" xml:space="preserve" overflow="hidden"><defs></defs><g><g><path d="M59.74 109.11C59.18 108.75 58.71 108.52 58.33 108.19 55.33 105.59 52.42 102.88 49.34 100.39 40.32 93.11 32.4 84.62 23.67 77.02 15.87 70.25 8.11 63.44 1.05 55.89-0.34 54.41-0.32 54.51 0.92 53.17 8.92 44.59 17.9 37.09 26.6 29.27 31.32 25.03 35.78 20.49 40.5 16.24 46.15 11.15 51.95 6.23 57.69 1.25 59.62-0.43 59.77-0.42 61.73 1.29 71.26 9.59 80.88 17.8 89.92 26.65 93.45 30.11 97.25 33.3 100.98 36.54 106.86 41.65 112.54 46.97 117.9 52.63 118.25 53 118.66 53.33 119.05 53.66 119.56 54.09 119.62 54.74 119.18 55.17 117.78 56.53 116.34 57.84 115 59.26 108.8 65.82 101.78 71.49 95.13 77.56 89.81 82.42 84.65 87.45 79.35 92.33 76.75 94.73 73.97 96.93 71.29 99.25 68.09 102.03 64.92 104.86 61.71 107.64 61.11 108.17 60.42 108.6 59.74 109.11ZM21.46 36.03C22.09 36.7 22.66 37.38 23.31 37.96 25.15 39.61 27.03 41.22 28.9 42.84 34.91 48.05 40.18 54.01 45.75 59.67 50.03 64.02 54.39 68.29 58.72 72.6 58.95 72.83 59.21 73.03 59.54 73.31 72.82 61.27 86.04 49.28 99.32 37.23 99.04 36.97 98.75 36.7 98.46 36.44 95.25 33.57 91.99 30.75 88.83 27.83 79.46 19.21 70.12 10.55 60.75 1.93 59.6 0.88 59.83 0.83 58.64 1.9 53.28 6.72 47.91 11.52 42.6 16.39 35.62 22.79 28.7 29.25 21.76 35.68 21.69 35.75 21.64 35.82 21.46 36.03ZM1.98 54.46C2.04 54.56 2.08 54.65 2.14 54.71 5.96 58.48 9.7 62.36 13.64 66 19.18 71.11 24.94 76 30.51 81.08 39.93 89.69 49.28 98.39 58.66 107.04 59.66 107.96 59.69 107.96 60.71 107.04 65.97 102.3 71.23 97.55 76.49 92.8 76.69 92.62 76.94 92.49 77.22 92.29 76.3 91.44 75.54 90.75 74.79 90.04 69.08 84.65 63.37 79.27 57.68 73.86 54.45 70.79 51.2 67.73 48.09 64.54 43.54 59.89 39.21 55.02 34.6 50.43 29.98 45.83 25.13 41.46 20.36 36.97 13.94 42.41 7.76 48.17 1.98 54.46ZM78.32 91.11C78.85 90.61 79.27 90.22 79.69 89.82 84.73 85.11 89.7 80.32 94.84 75.71 102.18 69.12 109.73 62.77 116.46 55.53 116.78 55.18 117.24 54.96 117.61 54.71 114.47 50.98 102.44 39.56 100.17 38.1 97.94 40.07 95.6 41.95 93.49 44.05 87.32 50.19 80.98 56.14 74.49 61.95 70.05 65.92 65.62 69.9 61.19 73.87 61.02 74.02 60.88 74.21 60.75 74.34 66.62 79.94 72.44 85.5 78.32 91.11Z" fill="#2F4042"/><path d="M21.46 36.03C21.64 35.82 21.7 35.74 21.76 35.68 28.7 29.25 35.63 22.79 42.6 16.39 47.91 11.52 53.29 6.72 58.64 1.9 59.83 0.83 59.6 0.87 60.75 1.93 70.12 10.56 79.45 19.22 88.83 27.83 92 30.74 95.25 33.57 98.46 36.44 98.75 36.7 99.03 36.97 99.32 37.23 86.04 49.28 72.82 61.27 59.54 73.31 59.22 73.03 58.96 72.83 58.72 72.6 54.39 68.3 50.03 64.02 45.75 59.67 40.18 54.01 34.91 48.05 28.9 42.84 27.03 41.22 25.15 39.61 23.31 37.96 22.65 37.38 22.09 36.7 21.46 36.03Z" fill="#FFF6A4"/><path d="M1.98 54.46C7.76 48.17 13.94 42.41 20.36 37 25.13 41.49 29.98 45.86 34.6 50.46 39.21 55.05 43.54 59.91 48.09 64.57 51.2 67.76 54.45 70.82 57.68 73.89 63.37 79.3 69.08 84.68 74.79 90.07 75.54 90.78 76.3 91.47 77.22 92.32 76.93 92.52 76.69 92.65 76.49 92.83 71.23 97.57 65.97 102.32 60.71 107.07 59.7 107.98 59.67 107.99 58.66 107.07 49.28 98.42 39.93 89.72 30.51 81.11 24.95 76 19.19 71.12 13.64 66 9.69 62.36 5.96 58.48 2.14 54.71 2.08 54.65 2.04 54.56 1.98 54.46Z" fill="#F9E467"/><path d="M78.32 91.11C72.44 85.5 66.62 79.94 60.75 74.34 60.87 74.21 61.02 74.02 61.19 73.87 65.62 69.89 70.06 65.92 74.49 61.95 80.97 56.14 87.32 50.19 93.49 44.05 95.6 41.95 97.94 40.07 100.17 38.1 102.44 39.56 114.46 50.99 117.61 54.71 117.24 54.97 116.78 55.19 116.46 55.53 109.73 62.77 102.18 69.12 94.84 75.71 89.71 80.32 84.74 85.11 79.69 89.82 79.27 90.21 78.85 90.61 78.32 91.11Z" fill="#F9E467"/></g><g><path d="M47.11 53.75C47.78 53.75 48.45 53.73 49.11 53.76 49.57 53.77 49.91 53.92 49.94 54.5 49.96 55.11 49.64 55.34 49.13 55.35 47.79 55.38 46.46 55.37 45.12 55.38 44.37 55.38 44.52 54.86 44.47 54.38 44.41 53.76 44.79 53.75 45.2 53.74 45.84 53.73 46.48 53.74 47.11 53.75 47.11 53.74 47.11 53.75 47.11 53.75Z" fill="#2F4042"/><path d="M71.83 53.74C72.47 53.74 73.11 53.73 73.74 53.74 74.12 53.75 74.5 53.77 74.43 54.33 74.38 54.77 74.6 55.37 73.82 55.37 72.45 55.37 71.09 55.38 69.72 55.35 69.19 55.34 68.91 55.05 68.95 54.46 68.99 53.87 69.37 53.77 69.82 53.76 70.49 53.73 71.16 53.75 71.83 53.74 71.83 53.74 71.83 53.74 71.83 53.74Z" fill="#2F4042"/><path d="M40.11 53.75C40.48 53.75 40.84 53.74 41.21 53.75 41.69 53.77 42.11 53.85 42.13 54.5 42.15 55.2 41.72 55.32 41.2 55.35 40.84 55.37 40.47 55.34 40.1 55.33 39.03 55.28 37.96 55.24 36.9 55.17 36.48 55.14 35.97 55.1 36.01 54.49 36.05 53.97 36.5 53.94 36.91 53.92 37.98 53.87 39.04 53.82 40.11 53.77 40.11 53.76 40.11 53.76 40.11 53.75Z" fill="#2F4042"/><path d="M79.9 55.36C79.17 55.36 78.44 55.38 77.71 55.35 77.18 55.33 76.77 55.16 76.79 54.49 76.82 53.84 77.24 53.74 77.72 53.76 79.21 53.8 80.7 53.87 82.19 53.94 82.55 53.96 82.87 54.09 82.9 54.51 82.93 55 82.55 55.14 82.18 55.15 81.42 55.18 80.66 55.16 79.9 55.16 79.9 55.22 79.9 55.29 79.9 55.36Z" fill="#2F4042"/><path d="M21.94 55.26C21.21 55.26 20.48 55.27 19.75 55.26 19.27 55.26 18.92 55.11 18.92 54.53 18.93 54.02 19.24 53.81 19.68 53.81 21.2 53.81 22.72 53.84 24.23 53.88 24.64 53.89 25.04 54.03 25.03 54.56 25.02 55.08 24.63 55.2 24.21 55.21 23.45 55.23 22.69 55.21 21.93 55.21 21.94 55.23 21.94 55.24 21.94 55.26Z" fill="#2F4042"/><path d="M96.84 55.21C96.11 55.21 95.38 55.22 94.65 55.2 94.22 55.19 93.86 55.05 93.87 54.52 93.88 54.04 94.23 53.89 94.61 53.88 96.16 53.84 97.7 53.81 99.25 53.81 99.7 53.81 99.99 54.05 99.98 54.56 99.97 55.08 99.66 55.25 99.21 55.25 98.42 55.26 97.63 55.25 96.84 55.25 96.84 55.24 96.84 55.23 96.84 55.21Z" fill="#2F4042"/><path d="M30.58 53.92C31.28 53.92 31.98 53.91 32.68 53.92 33.09 53.93 33.54 54.01 33.58 54.5 33.63 55.02 33.14 55.15 32.76 55.16 31.24 55.2 29.72 55.2 28.21 55.2 27.79 55.2 27.49 54.99 27.5 54.54 27.5 54.09 27.8 53.9 28.22 53.89 29.01 53.88 29.8 53.89 30.59 53.89 30.58 53.9 30.58 53.91 30.58 53.92Z" fill="#2F4042"/><path d="M88.45 53.88C89.15 53.88 89.85 53.88 90.55 53.88 91.02 53.88 91.43 54.01 91.42 54.57 91.41 55.07 91.03 55.2 90.59 55.2 89.16 55.2 87.73 55.2 86.31 55.18 85.89 55.17 85.34 55.09 85.34 54.56 85.34 53.97 85.9 53.93 86.36 53.92 87.06 53.91 87.76 53.92 88.46 53.92 88.45 53.91 88.45 53.9 88.45 53.88Z" fill="#2F4042"/><path d="M7.12 53.91C7.82 53.91 8.52 53.89 9.22 53.92 9.65 53.93 10.15 54.01 10.16 54.56 10.17 55.06 9.68 55.18 9.3 55.19 7.84 55.22 6.39 55.22 4.93 55.2 4.53 55.2 4.19 54.98 4.2 54.55 4.21 54.11 4.53 53.93 4.95 53.92 5.67 53.91 6.39 53.91 7.12 53.91Z" fill="#2F4042"/><path d="M111.8 53.9C112.5 53.9 113.2 53.9 113.89 53.9 114.33 53.9 114.71 54.05 114.7 54.55 114.7 54.99 114.35 55.18 113.95 55.18 112.49 55.19 111.04 55.2 109.58 55.16 109.2 55.15 108.72 55.03 108.74 54.52 108.76 54.02 109.2 53.92 109.61 53.91 110.34 53.9 111.07 53.91 111.8 53.9 111.8 53.91 111.8 53.91 111.8 53.9Z" fill="#2F4042"/><path d="M55.42 53.94C56.03 53.94 56.64 53.93 57.25 53.94 57.63 53.95 57.92 54.11 57.94 54.51 57.96 54.98 57.62 55.14 57.22 55.14 56 55.16 54.79 55.17 53.57 55.17 53.14 55.17 52.73 55.04 52.75 54.53 52.76 54.02 53.17 53.92 53.6 53.93 54.21 53.93 54.82 53.93 55.42 53.94 55.42 53.93 55.42 53.94 55.42 53.94Z" fill="#2F4042"/><path d="M63.63 53.93C64.21 53.93 64.79 53.93 65.36 53.93 65.77 53.93 66.12 54.05 66.14 54.51 66.17 55.02 65.78 55.17 65.34 55.17 64.09 55.17 62.85 55.16 61.6 55.14 61.23 55.13 60.93 54.95 60.94 54.54 60.95 54.14 61.23 53.95 61.61 53.95 62.3 53.93 62.96 53.94 63.63 53.93 63.63 53.94 63.63 53.93 63.63 53.93Z" fill="#2F4042"/><path d="M14.42 55.23C13.94 55.23 13.45 55.24 12.97 55.23 12.53 55.22 12.19 55.04 12.18 54.54 12.18 54.09 12.5 53.89 12.9 53.88 13.9 53.84 14.89 53.82 15.89 53.83 16.35 53.84 16.74 54.06 16.71 54.6 16.68 55.08 16.31 55.25 15.88 55.26 15.4 55.27 14.91 55.26 14.43 55.26 14.42 55.25 14.42 55.24 14.42 55.23Z" fill="#2F4042"/><path d="M104.46 55.26C104 55.26 103.54 55.27 103.09 55.26 102.61 55.25 102.21 55.09 102.21 54.55 102.2 54.01 102.62 53.82 103.08 53.81 104.05 53.8 105.03 53.83 106 53.87 106.4 53.89 106.73 54.08 106.72 54.54 106.72 55.04 106.37 55.21 105.92 55.23 105.43 55.24 104.94 55.23 104.45 55.23 104.46 55.24 104.46 55.25 104.46 55.26Z" fill="#2F4042"/></g><g><path d="M58.97 43.31C58.53 43.01 58.12 42.77 57.75 42.47 57.51 42.27 57.35 41.98 57.55 41.66 57.72 41.37 58.05 41.36 58.28 41.47 59.25 41.91 60.21 42.37 61.15 42.87 61.34 42.97 61.53 43.25 61.53 43.46 61.58 44.56 61.48 45.65 61.23 46.72 61.16 47.02 60.93 47.19 60.62 47.15 60.3 47.1 60.16 46.86 60.15 46.56 60.13 46.13 60.17 45.71 60.15 45.28 60.14 45.05 60.31 44.75 60.04 44.62 59.79 44.5 59.6 44.76 59.4 44.89 55.35 47.65 52.67 51.38 51.45 56.14 50.23 60.91 49.57 65.73 50.79 70.61 51.26 72.5 51.83 74.38 52.93 76.03 53.06 76.22 53.26 76.47 53.03 76.69 52.75 76.95 52.52 76.68 52.33 76.5 51.75 75.94 51.41 75.22 51.1 74.48 48.62 68.61 48.76 62.61 50.08 56.51 51.26 51.06 54.06 46.73 58.66 43.58 58.76 43.51 58.84 43.42 58.97 43.31Z" fill="#2F4042"/></g></g></svg>