<svg width="64.46" height="114.21" viewBox="0 0 64.46 114.21" xmlns="http://www.w3.org/2000/svg" xmlns:xlink="http://www.w3.org/1999/xlink" xml:space="preserve" overflow="hidden"><defs></defs><path d="M53.68 82.09C53.31 80.85 53.38 79.74 53.76 78.78 52.66 79.4 51.59 80.04 50.65 80.82 50.1 81.28 49.49 81.91 48.57 81.63 47.63 81.34 47.87 80.54 47.82 79.91 47.6 77.11 48.16 74.34 48.27 71.55 48.52 65.52 48.3 59.48 48.66 53.43 49.13 45.52 49.49 37.6 49.33 29.67 49.26 26.3 49.67 22.9 50.86 19.64 52.3 15.67 55.2 12.44 59.52 10.04 61.48 9.35 62.2 7.8 63.26 6.53 63.65 6.06 64.05 5.59 64.45 5.13 63.45 5.23 62.44 5.32 61.41 5.35 58.44 5.45 56.52 4.09 55.64 2.27 52.15 1.93 48.66 1.62 45.19 1.2 41.54 0.76 37.86 0.56 34.19 0.27 28.58-0.17 23.04-0.16 17.6 1.14 7.25 3.6 0.73 10.58 0.76 19.15 0.76 20.06 0.78 20.97 0.79 21.88 1.16 22.43 1.05 23.03 0.97 23.6-0.06 30.64-0.36 37.69 0.56 44.75 1.65 53.15 1.51 61.59 1.97 70.01 2.39 77.66 2.54 85.31 3.64 92.92 4.08 95.95 3.54 99.21 6.2 101.86 6.2 101.86 6.2 101.86 6.2 101.86 8.36 103.06 10.85 103.76 13.25 104.56 18.64 106.35 24.28 107.34 30.09 107.89 35.81 108.44 41.33 107.76 46.8 106.56 47.1 106.49 47.37 106.31 47.65 106.18 48.35 105.7 48.25 105.05 48.36 104.4 48.89 101.5 48.8 98.58 48.78 95.67 48.75 92.03 50.24 89.11 54.55 87.36 55.26 87.07 55.93 86.7 56.58 86.32 55.23 85.29 54.2 83.81 53.68 82.09Z" fill="#101BE5" fill-rule="evenodd" clip-rule="evenodd"/><path d="M33.07 4.93 45.27 53.99 45.87 114.21 54.03 112.37 51.59 47.1 40.99 1.66 34.19 0.26" fill="#0F2FED" fill-rule="evenodd" clip-rule="evenodd"/></svg>