<svg width="218.33" height="424.69" viewBox="0 0 218.33 424.69" xmlns="http://www.w3.org/2000/svg" xmlns:xlink="http://www.w3.org/1999/xlink" xml:space="preserve" overflow="hidden"><defs></defs><g><linearGradient x1="-24.2252" y1="296.782" x2="262.576" y2="296.782" gradientUnits="userSpaceOnUse" id="SVGID_1_"><stop offset="0" stop-color="#5B5855"/><stop offset="0.0224" stop-color="#5E5B58"/><stop offset="0.037" stop-color="#666360"/><stop offset="0.0495" stop-color="#74726F"/><stop offset="0.0607" stop-color="#898785"/><stop offset="0.0711" stop-color="#A3A2A0"/><stop offset="0.0808" stop-color="#C4C3C2"/><stop offset="0.0899" stop-color="#EAE9E9"/><stop offset="0.0944" stop-color="#FFFFFF"/><stop offset="0.1046" stop-color="#F0F0F0"/><stop offset="0.1186" stop-color="#E3E3E3"/><stop offset="0.1368" stop-color="#DBDBDB"/><stop offset="0.1747" stop-color="#D9D9D9"/><stop offset="0.1822" stop-color="#DADADA"/><stop offset="0.373" stop-color="#F5F5F5"/><stop offset="0.4854" stop-color="#FFFFFF"/><stop offset="0.675" stop-color="#FDFDFD"/><stop offset="0.7432" stop-color="#F6F6F6"/><stop offset="0.7917" stop-color="#EBEBEB"/><stop offset="0.8185" stop-color="#E0E0E0"/><stop offset="0.8334" stop-color="#A6A6A6"/><stop offset="0.8477" stop-color="#767675"/><stop offset="0.8585" stop-color="#585857"/><stop offset="0.8646" stop-color="#4D4D4C"/></linearGradient><path d="M217.26 424.55 0.43 424.55 1.07 169.02 217.91 169.02Z" fill="#002060"/><path d="M217.26 424.69 0.43 424.69C0.2 424.69 0 424.63 0 424.55L0.65 169.02C0.65 168.94 0.84 168.88 1.08 168.88L217.91 168.88C218.14 168.88 218.34 168.94 218.34 169.02L217.69 424.55C217.68 424.63 217.49 424.69 217.26 424.69ZM0.85 424.41 216.83 424.41 217.48 169.16 1.5 169.16 0.85 424.41Z" fill="#002060"/></g><g><g><linearGradient x1="-24.2252" y1="82.6958" x2="262.576" y2="82.6958" gradientUnits="userSpaceOnUse" id="SVGID_2_"><stop offset="0" stop-color="#5B5855"/><stop offset="0.0224" stop-color="#5E5B58"/><stop offset="0.037" stop-color="#666360"/><stop offset="0.0495" stop-color="#74726F"/><stop offset="0.0607" stop-color="#898785"/><stop offset="0.0711" stop-color="#A3A2A0"/><stop offset="0.0808" stop-color="#C4C3C2"/><stop offset="0.0899" stop-color="#EAE9E9"/><stop offset="0.0944" stop-color="#FFFFFF"/><stop offset="0.1046" stop-color="#F0F0F0"/><stop offset="0.1186" stop-color="#E3E3E3"/><stop offset="0.1368" stop-color="#DBDBDB"/><stop offset="0.1747" stop-color="#D9D9D9"/><stop offset="0.1822" stop-color="#DADADA"/><stop offset="0.373" stop-color="#F5F5F5"/><stop offset="0.4854" stop-color="#FFFFFF"/><stop offset="0.675" stop-color="#FDFDFD"/><stop offset="0.7432" stop-color="#F6F6F6"/><stop offset="0.7917" stop-color="#EBEBEB"/><stop offset="0.8185" stop-color="#E0E0E0"/><stop offset="0.8334" stop-color="#A6A6A6"/><stop offset="0.8477" stop-color="#767675"/><stop offset="0.8585" stop-color="#585857"/><stop offset="0.8646" stop-color="#4D4D4C"/></linearGradient><path d="M217.26 165.07 0.43 165.07 1.07 0.32 217.91 0.32Z" fill="#002060"/><path d="M217.26 165.39 0.43 165.39C0.2 165.39 0 165.25 0 165.07L0.65 0.32C0.65 0.14 0.84 0 1.07 0L217.9 0C218.13 0 218.33 0.14 218.33 0.32L217.68 165.08C217.68 165.25 217.49 165.39 217.26 165.39ZM0.85 164.76 216.83 164.76 217.48 0.64 1.5 0.64 0.85 164.76Z" fill="#002060"/></g><g><g><linearGradient x1="-221.456" y1="5269.12" x2="-286.186" y2="5269.12" gradientUnits="userSpaceOnUse" id="SVGID_3_" gradientTransform="matrix(-1 0 0 -1 -244.33 5344.51)"><stop offset="0" stop-color="#5B5855"/><stop offset="0.036" stop-color="#5E5B58"/><stop offset="0.0596" stop-color="#666360"/><stop offset="0.0797" stop-color="#74726F"/><stop offset="0.0977" stop-color="#898785"/><stop offset="0.1144" stop-color="#A3A2A0"/><stop offset="0.1301" stop-color="#C4C3C2"/><stop offset="0.1448" stop-color="#EAE9E9"/><stop offset="0.152" stop-color="#FFFFFF"/><stop offset="0.3051" stop-color="#C1C1C0"/><stop offset="0.4658" stop-color="#858584"/><stop offset="0.5426" stop-color="#6D6D6C"/><stop offset="0.5876" stop-color="#747473"/><stop offset="0.6525" stop-color="#878786"/><stop offset="0.7297" stop-color="#A6A6A6"/><stop offset="0.8155" stop-color="#D1D1D1"/><stop offset="0.8577" stop-color="#E9E9E9"/></linearGradient><rect x="15.3" y="15.14" width="9.29" height="120.5" fill="#002060" opacity="0.6"/><g><defs><filter id="Adobe_OpacityMaskFilter" fill="#002060" x="19.95" y="15.14" width="1.67" height="117.95" filterUnits="userSpaceOnUse" primitiveUnits="userSpaceOnUse"><feFlood flood-color="#FFFFFF" result="back"/><feBlend in="SourceGraphic" in2="back" mode="normal"/></filter></defs><mask maskUnits="userSpaceOnUse" x="19.95" y="15.14" width="1.67" height="117.95" id="SVGID_5_"><g filter="url(#Adobe_OpacityMaskFilter)"><defs><filter id="Adobe_OpacityMaskFilter_1_" x="19.95" y="15.14" width="1.67" height="117.95" filterUnits="userSpaceOnUse" primitiveUnits="userSpaceOnUse"><feFlood flood-color="#FFFFFF" result="back"/><feBlend in="SourceGraphic" in2="back" mode="normal"/></filter></defs><mask maskUnits="userSpaceOnUse" x="19.95" y="15.14" width="1.67" height="117.95" id="SVGID_5_"><g filter="url(#Adobe_OpacityMaskFilter_1_)"></g></mask><radialGradient cx="-301.929" cy="2900.42" r="31.4535" gradientUnits="userSpaceOnUse" id="SVGID_6_" gradientTransform="matrix(-1.3231 0 0 -3.5236 -347.522 10287.3)"><stop offset="0.1791"/><stop offset="1" stop-color="#FFFFFF"/></radialGradient><rect x="19.95" y="15.14" width="1.67" height="117.95" fill="url(#SVGID_6_)" mask="url(#SVGID_5_)"/></g></mask><radialGradient cx="-301.929" cy="2900.42" r="31.4535" gradientUnits="userSpaceOnUse" id="SVGID_7_" gradientTransform="matrix(-1.3231 0 0 -3.5236 -347.522 10287.3)"><stop offset="0.1791" stop-color="#BCD2E4"/><stop offset="1" stop-color="#FFFFFF"/></radialGradient><g><linearGradient x1="-299.687" y1="5271" x2="-240.185" y2="5271" gradientUnits="userSpaceOnUse" id="SVGID_4_" gradientTransform="matrix(-1 0 0 -1 -244.33 5344.51)"><stop offset="0" stop-color="#5B5855"/><stop offset="0.036" stop-color="#5E5B58"/><stop offset="0.0596" stop-color="#666360"/><stop offset="0.0797" stop-color="#74726F"/><stop offset="0.0977" stop-color="#898785"/><stop offset="0.1144" stop-color="#A3A2A0"/><stop offset="0.1301" stop-color="#C4C3C2"/><stop offset="0.1448" stop-color="#EAE9E9"/><stop offset="0.152" stop-color="#FFFFFF"/><stop offset="0.3051" stop-color="#C1C1C0"/><stop offset="0.4658" stop-color="#858584"/><stop offset="0.5426" stop-color="#6D6D6C"/><stop offset="0.5876" stop-color="#747473"/><stop offset="0.6525" stop-color="#878786"/><stop offset="0.7297" stop-color="#A6A6A6"/><stop offset="0.8155" stop-color="#D1D1D1"/><stop offset="0.8577" stop-color="#E9E9E9"/><stop offset="0.8668" stop-color="#CDCDCC"/><stop offset="0.8812" stop-color="#A6A6A5"/><stop offset="0.8962" stop-color="#868685"/><stop offset="0.9117" stop-color="#6D6D6C"/><stop offset="0.9277" stop-color="#5B5B5A"/><stop offset="0.9447" stop-color="#50504F"/><stop offset="0.9643" stop-color="#4D4D4C"/></linearGradient><rect x="13.15" y="13.26" width="9.3" height="120.5" fill="#002060"/><path d="M13.15 12.6 22.45 12.6C22.56 12.6 22.65 12.89 22.65 13.26L22.65 133.76C22.65 134.12 22.56 134.42 22.45 134.42L13.15 134.42C13.04 134.42 12.95 134.13 12.95 133.76L12.95 13.26C12.95 12.9 13.04 12.6 13.15 12.6ZM22.24 13.92 13.34 13.92 13.34 133.1 22.24 133.1 22.24 13.92Z" fill="#002060"/></g><rect x="19.95" y="15.14" width="1.67" height="117.95" fill="#002060"/><rect x="13.15" y="13.26" width="3.85" height="120.5" fill="#002060" opacity="0.6"/></g></g></g></g></svg>