<svg width="233.55" height="291.59" viewBox="0 0 233.55 291.59" xmlns="http://www.w3.org/2000/svg" xmlns:xlink="http://www.w3.org/1999/xlink" xml:space="preserve" overflow="hidden"><defs></defs><g><path d="M154.93 279.91C155.91 278.63 156.43 277.34 156.72 276.15 153.47 275.46 150.88 275.17 150.88 275.17L148.21 229.59 128.97 229.02C128.97 229.02 131.77 265.33 135.01 281.16 140.47 281.86 152.55 283.02 154.93 279.91Z" fill="#F9DCCC"/><path d="M169.67 285.45C171.06 280.2 162.74 277.44 156.73 276.15 156.43 277.34 155.92 278.63 154.94 279.91 152.56 283.01 140.48 281.86 135.02 281.16 135.81 284.99 136.62 287.64 137.43 288.27 141.55 291.42 167.51 293.54 169.67 285.45Z" fill="#C1272D"/><path d="M86.44 279.96C85.62 278.58 85.27 277.24 85.11 276.03 88.35 275.69 90.91 275.71 90.91 275.71L98.65 230.72 117.47 232.31C117.47 232.31 110.66 268.08 105.71 283.45 100.33 283.52 88.42 283.3 86.44 279.96Z" fill="#F9DCCC"/><path d="M71.45 283.81C70.68 278.44 79.1 276.63 85.11 276.03 85.27 277.24 85.62 278.58 86.44 279.96 88.41 283.3 100.32 283.52 105.71 283.45 104.51 287.17 103.42 289.7 102.57 290.23 98.19 292.9 72.64 292.07 71.45 283.81Z" fill="#C1272D"/><path d="M177.91 113.36 214.59 81.19C214.59 81.19 223.09 92.26 223.77 87.56 224.44 82.85 221.8 80.09 221.8 80.09 221.8 80.09 234.91 81.48 233.43 76.41 231.96 71.34 223.25 73.17 223.25 73.17 223.25 73.17 233.36 68.14 230.78 63.7 228.21 59.27 221.02 64.51 221.02 64.51 221.02 64.51 225.97 58.49 222.15 55.97 218.31 53.46 213.7 66.43 213.7 66.43 213.7 66.43 212.87 57.09 209.15 57.04 205.7 57 205.83 62.23 207.02 67.03 207.11 67.42 207.23 67.82 207.34 68.2 208.81 73.29 166.47 102.07 166.47 102.07L177.91 113.36Z" fill="#F9DCCC"/><path d="M72.51 153.95 25.81 169.71C25.81 169.71 31.11 182.8 26.68 181 22.24 179.19 21.18 175.46 21.18 175.46 21.18 175.46 15.72 187.65 12.04 183.77 8.37 179.89 14.39 173.19 14.39 173.19 14.39 173.19 4.86 179.5 2.32 174.98-0.23 170.46 7.98 166.84 7.98 166.84 7.98 166.84 0.24 168.1 0 163.47-0.23 158.84 13.05 161.35 13.05 161.35 13.05 161.35 5.7 155.92 7.56 152.62 9.28 149.57 13.76 152.35 17.33 155.85 17.63 156.13 17.92 156.43 18.2 156.72 21.87 160.6 68.53 138.16 68.53 138.16L72.51 153.95Z" fill="#F9DCCC"/><path d="M171.54 92.2C171.54 92.2 137.71 119.54 105.63 127.09 73.54 134.63 54.43 140.03 54.43 140.03L61.7 160.56 85.11 156.34C85.11 156.34 69.6 230.42 64.42 243.91L189.68 235.76 160.31 131.95 187.28 110.21 171.54 92.2Z" fill="#C1272D"/><path d="M82.58 168.06C82.58 168.06 69.61 230.43 64.43 243.92L189.69 235.77 165.89 151.64 82.58 168.06Z" fill="#DE595E"/><path d="M166.85 149.81C151.27 152.89 98.82 163.29 82.81 166.45 82.59 167.92 82.35 169.49 82.1 171.13L167.68 154.17 166.85 149.81Z" fill="#F2F2F2"/><path d="M171.43 79.27C171.43 79.27 193.04 79.99 195.66 112.56 195.66 112.56 193.54 122.07 175.55 107.67 157.55 93.28 157.33 83.83 157.33 83.83L171.43 79.27Z" fill="#862703"/><path d="M66.19 99.93C66.19 99.93 71.92 123.43 36.58 134.27 36.58 134.27 28.94 130.69 36.35 108.83 43.76 86.97 52.55 83.58 52.55 83.58L66.19 99.93Z" fill="#862703"/><path d="M84.8 3.98C26.73 20.43 45.58 80.2 45.58 80.2L52.8 99.68C52.8 99.68 66.96 129.79 113.04 127.83 159.1 125.87 169.14 90.16 169.14 90.16L174.27 71.97C174.26 71.98 169.37-19.98 84.8 3.98Z" fill="#862703"/></g></svg>