<svg width="120" height="84.46" viewBox="0 0 120 84.46" xmlns="http://www.w3.org/2000/svg" xmlns:xlink="http://www.w3.org/1999/xlink" xml:space="preserve" overflow="hidden"><defs></defs><g><path d="M103.33 0 60 84.2 61 19.79Z" fill="#EFBE4C"/><path d="M59 19.79 16.67 0 60 84.2Z" fill="#EFBE4C"/><g><g><path d="M120 20.09 61 19.79 60 77.96 60 84.2Z" fill="#D88A00"/><path d="M84.62 22.75 61 19.79 60 77.96 60 84.2Z" fill="#D88A00"/></g><g><path d="M0 20.09 59 19.79 60 77.96 60 84.2Z" fill="#D88A00"/><path d="M35.38 22.75 59 19.79 60 77.96 60 84.2Z" fill="#D88A00"/></g></g><path d="M120 20.09 60 84.2 0 20.09 60 22.09Z" fill="#EFBE4C"/><g opacity="0.6"><g><line x1="49.65" y1="22.09" x2="49.9" y2="23.57" stroke="#666666" stroke-width="0.5" stroke-linecap="round" stroke-linejoin="round" fill="none"/><line x1="50.22" y1="25.48" x2="59.59" y2="81.77" stroke="#666666" stroke-width="0.5" stroke-linecap="round" stroke-linejoin="round" stroke-dasharray="2.902 1.9347" fill="none"/><path d="M59.75 82.73 60 84.21 60.24 82.73" stroke="#666666" stroke-width="0.5" stroke-linecap="round" stroke-linejoin="round" fill="none"/><line x1="60.56" y1="80.82" x2="69.94" y2="24.52" stroke="#666666" stroke-width="0.5" stroke-linecap="round" stroke-linejoin="round" stroke-dasharray="2.9021 1.9347" fill="none"/><line x1="70.1" y1="23.57" x2="70.34" y2="22.09" stroke="#666666" stroke-width="0.5" stroke-linecap="round" stroke-linejoin="round" fill="none"/></g></g><g opacity="0.6"><g><line x1="60" y1="22.09" x2="60" y2="23.59" stroke="#666666" stroke-width="0.5" stroke-linecap="round" stroke-linejoin="round" fill="none"/><line x1="60" y1="25.66" x2="60" y2="81.67" stroke="#666666" stroke-width="0.5" stroke-linecap="round" stroke-linejoin="round" stroke-dasharray="3.1116 2.0744" fill="none"/><line x1="60" y1="82.71" x2="60" y2="84.21" stroke="#666666" stroke-width="0.5" stroke-linecap="round" stroke-linejoin="round" fill="none"/></g></g><g><g><g><path d="M82.53 50.49C82.53 50.49 99.46 57.89 104.82 53.04 110.18 48.19 76.35 33.25 76.35 33.25" stroke="#233A3F" stroke-linecap="round" stroke-linejoin="round" stroke-miterlimit="10" fill="none"/><path d="M76.51 35.72 75.49 32.7 78.52 31.68" stroke="#233A3F" stroke-linecap="round" stroke-linejoin="round" stroke-miterlimit="10" fill="none"/></g></g><g><g><path d="M64.63 26.35C71.59 14.46 85.35 14.07 85.35 14.07" stroke="#233A3F" stroke-linecap="round" stroke-linejoin="round" stroke-miterlimit="10" fill="none"/><path d="M84.36 16.34 86.35 13.84 83.85 11.85" stroke="#233A3F" stroke-linecap="round" stroke-linejoin="round" stroke-miterlimit="10" fill="none"/></g></g><g><g><path d="M37.47 50.49C37.47 50.49 20.54 57.89 15.18 53.04 9.82 48.19 43.65 33.25 43.65 33.25" stroke="#233A3F" stroke-linecap="round" stroke-linejoin="round" stroke-miterlimit="10" fill="none"/><path d="M43.49 35.72 44.5 32.7 41.48 31.68" stroke="#233A3F" stroke-linecap="round" stroke-linejoin="round" stroke-miterlimit="10" fill="none"/></g></g><g><g><path d="M55.36 26.35C48.4 14.46 34.64 14.07 34.64 14.07" stroke="#233A3F" stroke-linecap="round" stroke-linejoin="round" stroke-miterlimit="10" fill="none"/><path d="M35.63 16.34 33.65 13.84 36.15 11.85" stroke="#233A3F" stroke-linecap="round" stroke-linejoin="round" stroke-miterlimit="10" fill="none"/></g></g></g></g></svg>