<svg width="233.71" height="155.64" viewBox="0 0 233.71 155.64" xmlns="http://www.w3.org/2000/svg" xmlns:xlink="http://www.w3.org/1999/xlink" xml:space="preserve" overflow="hidden"><defs></defs><g><path d="M159.29 3.44C159.01 3.32 155.71 3.06 155.31 3.09 154.91 3.12 155.18 8.2 155.18 8.2L160.71 8.58C160.7 8.58 159.56 3.56 159.29 3.44Z" fill="#B77D4E"/><path d="M149.12 1.77C148.83 1.63 145.19 1.1 144.74 1.11 144.29 1.11 143.79 6.39 143.79 6.39L149.88 7.21C149.89 7.2 149.41 1.91 149.12 1.77Z" fill="#B77D4E"/><path d="M138.99 0.14C138.69 0.03 134.97-0.04 134.5 0.02 134.04 0.08 133.53 5.42 133.53 5.42L139.77 5.48C139.78 5.48 139.28 0.25 138.99 0.14Z" fill="#B77D4E"/><path d="M125.71 0.27C125.4 0.19 121.62 0.37 121.16 0.45 120.7 0.54 120.64 5.64 120.64 5.64L126.97 5.28C126.96 5.28 126.02 0.35 125.71 0.27Z" fill="#B77D4E"/><path d="M113.83 1.06C113.52 0.98 109.74 1.16 109.28 1.24 108.82 1.33 108.76 6.43 108.76 6.43L115.09 6.07C115.08 6.08 114.14 1.15 113.83 1.06Z" fill="#B77D4E"/><path d="M101.72 2.2C101.41 2.12 97.63 2.3 97.17 2.38 96.71 2.47 96.65 7.57 96.65 7.57L102.98 7.21C102.97 7.21 102.03 2.28 101.72 2.2Z" fill="#B77D4E"/><path d="M89.06 1.74C88.75 1.66 84.97 1.84 84.51 1.92 84.05 2.01 83.99 7.11 83.99 7.11L90.32 6.75C90.31 6.76 89.37 1.83 89.06 1.74Z" fill="#B77D4E"/><path d="M227.59 111.15C223.86 110.4 222.02 105.9 225.25 104.39 228.49 102.87 227.68 104.76 229.3 105 230.92 105.24 231.61 104.24 233.35 105.49 235.1 106.73 230.02 111.64 227.59 111.15Z" fill="#D3B49C"/><path d="M81.63 43.21 81.18 10.85 82.9 6.7 135.68 3.49 161.04 6.78 164.52 10.16 171.56 37.6Z" fill="#E2A06F"/><g><path d="M130.72 3.79 82.9 6.7 81.18 10.85 81.38 25.13 81.74 25.09 81.71 22.12 88.01 21.85 87.55 18.51 84.01 17.9 83.71 15.93 88.82 16.15 88.58 13.31 86.92 12.7 86.48 8.37 93.13 7.48 93.68 10.07 91.14 10.33 91.53 16.14 94.66 15.88 94.39 12.92 99.09 12.28 99.33 17.35 119.03 16.91 118.06 13.94 115.24 13.46 114.97 10.49 123.19 11.45 124.5 7.61 127.75 7.35 128.3 8.83 137.74 8.92 136.99 5.33 130.61 5.23Z" fill="#D39663"/><path d="M83.88 39.81 84.18 36.71 91.96 36.19 92.14 33.1 100.21 33.93 100.16 30.34 92.66 29.38 92.03 26.41 86.16 25.94 85.5 28.42 81.43 28.87 81.59 39.96Z" fill="#D39663"/></g><path d="M164.52 10.16 161.04 6.79 135.91 3.53C135.45 6.13 135 8.76 135 8.76L136.41 16.78 139.55 39.59 171.55 37.6 164.52 10.16Z" fill="#B77D4E"/><g><path d="M144.01 19.87 152.02 19.22 152.6 22.63 160.9 21.98 161.17 18.56 165.18 18.24 166.34 22.58 163.76 22.43 163.77 24.6 156.04 24.63 157.34 29.74 165.93 29.09 166.51 32.65 170.15 32.1 164.52 10.16 161.04 6.78 159.5 6.58 159.43 9.58 163.01 10.5 164.45 14.68 155.15 15.33 154.28 11.3 147.27 11.17 147.71 16.13 143.14 16.31Z" fill="#A5683F"/><path d="M170.83 34.77 170.96 36.82 171.36 36.84Z" fill="#A5683F"/></g><path d="M185.36 32.26C185.06 31.02 184.01 30.18 182.83 30.23L143.41 31.81 76.74 31.81 23 29.14C21.61 29.07 20.43 30.24 20.37 31.75L20.37 31.75C20.31 33.28 21.42 34.56 22.84 34.59L183.41 37.86C185.08 37.89 186.31 36.19 185.89 34.45L185.36 32.26Z" fill="#7F4F2E"/><path d="M214.99 154.85 2.82 155.64 6.55 129.29 4.36 95.8 1.41 43.13 0 35.23 10.05 29.55 37.5 32.46 128.14 33.62 188.9 31.51 193.08 35.26 205.48 112.74Z" fill="#D39663"/><path d="M151.89 124.92 152.44 121.51 146.44 121.72 146.05 127.81 138.37 125.94 136.7 132.27 141.34 134.13 142.07 139.76 129.11 138.81 129.12 133.49 119.54 131.98 118.66 138.42 112.32 137.76 112.44 142.49 123.64 143.19 123.41 147.66 135 148.42 136.4 144.1 142 144.45 142.29 150.23 138.79 149.55 138.15 152.33 127.54 150.88 127.7 155.18 151.09 155.09Z" fill="#E2A06F"/><path d="M53.78 49.93 59.79 50.38 63.67 57.57 78.26 55.66 78.92 61.24 73.99 62.18 73.36 67.77 109.42 68.33 107.89 58.8 116.69 59.93 117.35 65.51 123.15 65.95 121.61 55.03 116.89 54.58 116.87 49.7 129.32 51.28 130.21 59.42 127.42 60.59 128.08 65.94 137.31 65.44 137.54 69.16 131.32 70.34 131.77 76.62 143.36 77.04 144.45 82.62 153.04 83.52 153.92 90.49 138.89 88.92 136.73 84.28 126.21 85.25 126.23 90.83 112.93 92.74 114.24 99.48 128.62 97.79 130.14 103.6 144.52 104.48 146.25 110.29 153.55 110.72 153.75 105.61 159.33 105.59 160.86 114.19 164.81 114.32 160.12 85.35 152.18 32.79 128.14 33.62 80.81 33.02 81.85 35.64 65.75 35.01 68.56 42.9 59.12 42.47 57.61 39.22 46.24 40.66 47.75 46 36.17 46.28 36.19 53.02 53.36 52.73Z" fill="#E2A06F"/><g><path d="M9.24 89.26 3.98 89.08 4.36 95.8 4.97 105.06 12.97 105.68 14.23 109.24 22.92 108.29 23.5 103.97 34.56 102.23 34.21 97.03 22.3 98.61 21.68 94.13 10.03 93.73Z" fill="#E2A06F"/><path d="M64.24 155.41 63.62 149.78 55.14 150.54 53.84 145.91 66.91 146.1 65.46 140.03 73.12 140.19 74.01 142.68 83.45 141.35 82.78 137.23 92.26 136.8 92.97 131.58 78.92 132.13 78.28 134.3 73.42 134.07 71.02 128.57 58.9 130.33 58.96 126.01 63.09 125.18 64.2 120.84 34.82 121.09 35.06 128.44 27.99 127.73 28.05 123.42 23.36 123.19 23.45 131.63 27.26 131.88 26.75 135.67 16.75 134.68 16.9 128.39 19.3 127.43 19.33 123.29 11.74 123.85 11.96 120.98 17.16 119.94 17.47 115.08 8.05 114.97 7.75 110.67 5.32 110.48 6.55 129.29 2.82 155.64Z" fill="#E2A06F"/></g><path d="M77.13 155.37 100.28 155.28 99.05 149.89 77.17 150.79Z" fill="#AF7346"/><path d="M205.48 112.74 193.08 35.27 188.9 31.52 143.19 33.11C144.86 46.49 148.5 75.48 148.77 77.21 149.12 79.47 149.19 99.41 149.56 106.94 149.85 112.77 148.32 135.29 150.54 155.1L215 154.86 205.48 112.74Z" fill="#AF7346"/><path d="M205.48 112.74 203.36 99.51 193.9 99.97 197.93 110.29 185.93 109 187.21 124.34 197.98 123.3 199.86 134.96 186.32 135.34 182 130.02 168.14 128.41 168.79 139.08 158.64 139.45 158.99 151.79 169.75 150.41 170.1 155.02 214.99 154.85Z" fill="#A5683F"/><path d="M43.33 155.49 96.35 155.29 90.3 100.6C90 97.91 88.32 95.59 85.9 94.53L74.76 89.64C73.84 89.24 72.85 89.03 71.85 89.03L62.47 89.07C61.53 89.07 60.6 89.26 59.72 89.63L48.06 94.52C45.31 95.67 43.51 98.42 43.5 101.47L43.33 155.49Z" fill="#7F4F2E"/><path d="M62.97 105.87 43.48 105.94 43.33 155.49 63.12 155.42Z" fill="#93603B"/><path d="M45.18 155.48 94.49 155.29 88.85 101.63C88.57 98.99 87.01 96.72 84.76 95.67L74.4 90.87C73.55 90.47 72.62 90.27 71.69 90.27L62.97 90.3C62.09 90.3 61.23 90.49 60.42 90.85L49.58 95.65C47.02 96.78 45.35 99.47 45.34 102.47L45.18 155.48Z" fill="#4C2C23"/><path d="M46.78 155.48 92.89 155.31 87.61 103.3C87.35 100.74 85.89 98.54 83.78 97.52L74.09 92.86C73.29 92.48 72.43 92.28 71.56 92.28L63.4 92.31C62.58 92.31 61.77 92.49 61.01 92.84L50.88 97.5C48.49 98.6 46.92 101.21 46.91 104.11L46.78 155.48Z" fill="#93603B"/><path d="M47.5 101.36 57.64 96.71C58.4 96.36 59.21 96.18 60.03 96.18L68.19 96.15C69.06 96.15 69.92 96.34 70.72 96.73L80.41 101.39C82.52 102.4 83.98 104.61 84.24 107.17L89.13 155.33 92.9 155.32 87.62 103.31C87.36 100.75 85.9 98.55 83.79 97.53L74.1 92.87C73.3 92.49 72.44 92.29 71.57 92.29L63.41 92.32C62.59 92.32 61.78 92.5 61.02 92.85L50.88 97.5C49.27 98.24 48.03 99.67 47.39 101.41 47.43 101.4 47.46 101.38 47.5 101.36Z" fill="#7F4F2E"/><path d="M169.6 114.25C169.6 114.25 177.48 115.47 177.7 114.47 177.93 113.47 174.59 83.62 170.43 83.89 166.26 84.16 167.74 109.74 169.6 114.25Z" fill="#7F4F2E"/><path d="M170 112.29C170 112.29 174.63 113.25 174.75 112.47 174.88 111.69 172.68 88.41 170.24 88.62 167.8 88.83 168.87 108.78 170 112.29Z" fill="#4C2C23"/><path d="M131.86 111.86C132.56 112.17 137.42 111.84 137.42 111.84 137.42 111.84 134.81 91.83 132.96 93.69 131.11 95.54 131.86 111.86 131.86 111.86Z" fill="#7F4F2E"/><path d="M95.73 32.1C96.31 32.4 100.35 32.08 100.35 32.08 100.35 32.08 100.17 13.03 96.64 14.06 94.43 14.7 95.73 32.1 95.73 32.1Z" fill="#7F4F2E"/><path d="M126.34 32.97C126.99 33.31 131.51 32.95 131.51 32.95 131.51 32.95 131.31 11.62 127.35 12.77 124.88 13.49 126.34 32.97 126.34 32.97Z" fill="#7F4F2E"/><path d="M128.12 31.41C128.43 31.63 130.6 31.4 130.6 31.4 130.6 31.4 130.49 17.37 128.6 18.13 127.41 18.6 128.12 31.41 128.12 31.41Z" fill="#4C2C23"/><path d="M97.19 31.27C97.45 31.49 99.27 31.26 99.27 31.26 99.27 31.26 99.17 17.23 97.58 17.99 96.58 18.46 97.19 31.27 97.19 31.27Z" fill="#4C2C23"/><path d="M155.71 31.7C156.18 32.02 159.27 31.69 159.27 31.69 159.27 31.69 157.66 11.59 155.01 12.67 153.36 13.34 155.71 31.7 155.71 31.7Z" fill="#7F4F2E"/><path d="M156.01 31.32C156.18 31.55 157.23 31.32 157.23 31.32 157.23 31.32 155.93 16.72 155.06 17.5 154.52 17.99 156.01 31.32 156.01 31.32Z" fill="#4C2C23"/><path d="M132.88 110.95C133.34 111.15 136.58 110.94 136.58 110.94 136.58 110.94 134.84 97.63 133.62 98.87 132.38 100.09 132.88 110.95 132.88 110.95Z" fill="#4C2C23"/><path d="M87.9 106.11 87.61 103.3C87.35 100.74 85.89 98.54 83.78 97.52L74.09 92.86C73.29 92.48 72.43 92.28 71.56 92.28L63.4 92.31C62.58 92.31 61.77 92.49 61.01 92.84L50.88 97.5C48.49 98.6 46.92 101.21 46.91 104.11L46.9 106.27 87.9 106.11Z" fill="#7F4F2E"/><path d="M67.03 92.49 65.53 92.37C66.09 95.08 67.17 153.02 67.17 153.02L70.29 153.25C68.21 132.7 67.07 112.43 67.03 92.49Z" fill="#7F4F2E"/><path d="M67.78 91.43 66.27 91.31C66.86 94.07 68.55 153.02 68.55 153.02L71.68 153.26C69.38 132.34 68.03 111.72 67.78 91.43Z" fill="#4C2C23"/><path d="M61.85 154.63C61.74 154.06 59.29 114 59.29 114L60.12 151.31 56.53 151.32 53.92 128.48 54.45 148.45 55.36 153.61 61.85 154.63Z" fill="#7F4F2E"/><path d="M72.89 96.05C73.01 96.68 75.69 140.44 75.69 140.44L74.63 99.68 78.22 99.67 80.96 124.62 80.31 102.8 79.37 97.16 72.89 96.05Z" fill="#7F4F2E"/><path d="M39.37 155.51 98.12 155.29 95.94 150.18 40.29 151.16Z" fill="#EAC19B"/><path d="M91.79 155.31 98.12 155.29 95.94 150.18 91.78 150.25Z" fill="#DBB08D"/><path d="M93.9 138.79 90.66 138.8 91.22 144.15 94.46 144.14Z" fill="#7F4F2E"/><path d="M90.95 110.45 87.71 110.46 88.27 115.81 91.51 115.8Z" fill="#7F4F2E"/><path d="M47.71 140.15 44.47 140.16 44.46 145.45 47.7 145.44Z" fill="#93603B"/><path d="M47.78 112.12 44.54 112.13 44.53 117.42 47.77 117.41Z" fill="#93603B"/><path d="M152.8 65.08 161.2 65.37 162.07 74.62 172.71 74.9 171.84 65.01 181.36 64.97 181.06 57.95 186.94 58.25 186.92 50.91 175.44 50.31 176.31 58.93 167.64 61.52 163.13 53.24 154.17 54.23 153.59 47.21 144.88 46.58C146.16 56.78 147.59 68.17 148.32 73.78L153.68 73.07 152.8 65.08Z" fill="#A5683F"/><path d="M70.61 126.27C70.61 127.52 71.55 128.52 72.7 128.52 73.85 128.52 74.78 127.5 74.78 126.25 74.78 125 73.84 124 72.69 124 71.54 124.01 70.61 125.02 70.61 126.27Z" fill="#7F4F2E"/><path d="M62.1 126.24C62.1 127.49 63.04 128.49 64.19 128.49 65.34 128.49 66.27 127.47 66.27 126.22 66.27 124.97 65.33 123.97 64.18 123.97 63.03 123.98 62.1 124.99 62.1 126.24Z" fill="#7F4F2E"/><path d="M70.4 125.26C70.4 126.23 71.13 127.01 72.03 127.01 72.93 127.01 73.65 126.22 73.64 125.25 73.64 124.28 72.91 123.5 72.01 123.5 71.12 123.51 70.39 124.29 70.4 125.26Z" fill="#E0B044"/><path d="M61.79 125.48C61.79 126.44 62.51 127.21 63.4 127.21 64.28 127.21 65 126.43 65 125.47 65 124.51 64.28 123.74 63.39 123.74 62.5 123.75 61.79 124.53 61.79 125.48Z" fill="#E0B044"/><path d="M137.45 32.67 133.69 32.68 134.21 36.07C134.27 36.47 134.6 36.76 134.98 36.74L136.83 36.64C137.23 36.62 137.55 36.25 137.53 35.81L137.45 32.67Z" fill="#7F4F2E"/><path d="M152.75 32.11 150.15 32.12 150.51 34.46C150.55 34.74 150.78 34.94 151.04 34.92L152.32 34.85C152.6 34.83 152.82 34.58 152.81 34.28L152.75 32.11Z" fill="#7F4F2E"/><path d="M164.44 31.69 161.84 31.7 162.21 35.31C162.25 35.74 162.48 36.05 162.74 36.03L164.02 35.92C164.3 35.9 164.51 35.51 164.51 35.04L164.44 31.69Z" fill="#7F4F2E"/><path d="M178.5 31.26 175.03 31.27 176.09 34.25C176.22 34.6 176.57 34.86 176.91 34.84L178.6 34.75C178.97 34.73 179.19 34.41 179.11 34.02L178.5 31.26Z" fill="#7F4F2E"/><path d="M124.48 32.47 120.72 32.48 120.79 36.08C120.8 36.51 121.09 36.81 121.47 36.79L123.34 36.68C123.75 36.66 124.11 36.27 124.15 35.8L124.48 32.47Z" fill="#7F4F2E"/><path d="M55.61 31.72 51.85 31.73 51.92 35.33C51.93 35.76 52.22 36.06 52.6 36.04L54.47 35.93C54.88 35.91 55.24 35.52 55.28 35.05L55.61 31.72Z" fill="#7F4F2E"/><path d="M112.29 32.26 108.53 32.27 108.6 35.87C108.61 36.3 108.9 36.6 109.28 36.58L111.15 36.47C111.56 36.45 111.92 36.06 111.96 35.59L112.29 32.26Z" fill="#7F4F2E"/><path d="M100.17 32.22 96.94 32.23 97 35.33C97.01 35.7 97.26 35.96 97.58 35.94L99.19 35.85C99.54 35.83 99.85 35.49 99.89 35.09L100.17 32.22Z" fill="#7F4F2E"/><path d="M88.06 32.19 84.3 32.2 84.37 35.8C84.38 36.23 84.67 36.53 85.05 36.51L86.92 36.4C87.33 36.38 87.69 35.99 87.73 35.52L88.06 32.19Z" fill="#7F4F2E"/><path d="M68.67 32.01 66.24 32.02 66.29 34.35C66.3 34.63 66.49 34.83 66.73 34.81L67.94 34.74C68.2 34.72 68.44 34.47 68.47 34.17L68.67 32.01Z" fill="#7F4F2E"/><path d="M37.77 31.37 35.34 31.38 35.39 33.71C35.4 33.99 35.58 34.19 35.83 34.17L37.04 34.1C37.3 34.08 37.54 33.83 37.57 33.53L37.77 31.37Z" fill="#7F4F2E"/></g></svg>