<svg width="78.54" height="126.57" viewBox="0 0 78.54 126.57" xmlns="http://www.w3.org/2000/svg" xmlns:xlink="http://www.w3.org/1999/xlink" xml:space="preserve" overflow="hidden"><defs></defs><g><g><g><g><path d="M39.27 1.49 1.23 38.43 0.89 38.43 0.89 126.07 77.64 126.07 77.64 38.81Z" fill="#EEF3FF"/></g><g><path d="M78.14 126.57 0.39 126.57 0.39 37.93 1.03 37.93 39.27 0.79 78.14 38.6 78.14 126.57ZM1.39 125.57 77.14 125.57 77.14 39.02 39.27 2.19 1.44 38.93 1.39 38.93 1.39 125.57Z" fill="#8796D8"/></g></g><g><path d="M39.77 126.07 38.77 126.07 38.77 121.49 39.77 121.49 39.77 126.07ZM39.77 116.49 38.77 116.49 38.77 111.49 39.77 111.49 39.77 116.49ZM39.77 106.49 38.77 106.49 38.77 101.49 39.77 101.49 39.77 106.49ZM39.77 96.49 38.77 96.49 38.77 91.49 39.77 91.49 39.77 96.49ZM39.77 86.49 38.77 86.49 38.77 81.49 39.77 81.49 39.77 86.49ZM39.77 76.49 38.77 76.49 38.77 71.49 39.77 71.49 39.77 76.49ZM39.77 66.49 38.77 66.49 38.77 61.49 39.77 61.49 39.77 66.49ZM39.77 56.49 38.77 56.49 38.77 51.49 39.77 51.49 39.77 56.49ZM39.77 46.49 38.77 46.49 38.77 41.49 39.77 41.49 39.77 46.49ZM39.77 36.49 38.77 36.49 38.77 31.49 39.77 31.49 39.77 36.49ZM39.77 26.49 38.77 26.49 38.77 21.49 39.77 21.49 39.77 26.49ZM39.77 16.49 38.77 16.49 38.77 11.49 39.77 11.49 39.77 16.49ZM39.77 6.49 38.77 6.49 38.77 1.49 39.77 1.49 39.77 6.49Z" fill="#8796D8"/></g><g><path d="M77.3 38.43 39.27 38.43 39.27 1.49Z" fill="#E4CDFC"/></g><g><g><path d="M1.23 38.43 39.27 38.43 39.27 1.49Z" fill="#E4CDFC"/></g><path d="M39.77 1.28 39.27 0.79 38.77 1.28 0 38.93 38.77 38.93 39.77 38.93 78.54 38.93 39.77 1.28ZM38.77 37.93 2.46 37.93 38.76 2.67 38.76 37.93ZM39.77 2.67 76.07 37.93 39.77 37.93 39.77 2.67Z" fill="#8796D8"/></g></g><g><g><path d="M75.23 16.95C75.16 13.74 74.54 7.01 70.78 3.04 68.87 1.02 66.4 0 63.43 0 60.46 0 57.95 1.02 55.96 3.04 50.8 8.27 50.88 18.3 50.88 18.72L51.88 18.71C51.88 18.61 51.81 8.67 56.67 3.74 58.47 1.92 60.74 1 63.43 1 66.11 1 68.34 1.92 70.05 3.73 73.52 7.4 74.13 13.86 74.22 16.95L71.5 16.95 74.61 23.65 77.75 16.95 75.23 16.95Z" fill="#5366AD"/></g><g><path d="M3.3 16.95C3.37 13.74 4 7.01 7.75 3.04 9.66 1.02 12.14 0 15.1 0 18.07 0 20.58 1.02 22.57 3.04 27.73 8.27 27.65 18.3 27.65 18.72L26.65 18.71C26.65 18.61 26.72 8.67 21.86 3.74 20.07 1.92 17.79 1 15.1 1 12.42 1 10.19 1.92 8.48 3.73 5.01 7.4 4.4 13.86 4.31 16.95L7.03 16.95 3.92 23.65 0.78 16.95 3.3 16.95Z" fill="#5366AD"/></g></g></g></svg>