<svg width="153.42" height="230.3" viewBox="0 0 153.42 230.3" xmlns="http://www.w3.org/2000/svg" xmlns:xlink="http://www.w3.org/1999/xlink" xml:space="preserve" overflow="hidden"><defs></defs><g id="XMLID_1_"><g id="XMLID_448_"><path d="M108.36 104.83C107.49 104.75 106.55 104.68 105.56 104.59 97.06 103.89 85.42 102.93 79.02 99.17 71.52 94.76 65.48 83.83 63.98 75.81L71.84 74.33C72.97 80.36 77.86 89.21 83.07 92.27 87.89 95.11 98.92 96.02 106.21 96.62 107.21 96.7 108.17 96.78 109.06 96.86L108.36 104.83Z" id="XMLID_449_" fill="#F8BFA3"/></g><g id="XMLID_6_"><g id="XMLID_439_"><g id="XMLID_446_"><path d="M77.74 112.45C67.21 115.16 56.39 116.28 45.5 115.78L44.84 130.2C55.72 130.7 66.54 129.77 77.12 127.44 77.86 122.54 77.81 117.43 77.74 112.45Z" id="XMLID_447_" fill="#003558"/></g><g id="XMLID_444_"><path d="M98.4 117.14C97.07 113.33 93.44 110.66 89.14 110.34 86.58 110.15 84.46 110.79 82.92 111.25L82.82 111.28C81.41 111.7 80 112.09 78.58 112.46 78.65 117.44 78.71 122.55 77.95 127.45 79.41 127.13 80.87 126.78 82.33 126.41 78.97 135.32 75.62 143.71 70.22 151.58L81.05 159.81C88.46 149.01 94.23 137.19 98.19 124.71 98.59 123.42 99.54 120.43 98.4 117.14Z" id="XMLID_445_" fill="#003558"/></g><g id="XMLID_442_"><path d="M77.5 111.55 76.95 128.98 81.81 129.55C81.81 129.55 84.3 110.43 84.03 110.3 83.2 109.89 77.5 111.55 77.5 111.55Z" id="XMLID_443_" fill="#003558"/></g><g id="XMLID_440_"><path d="M76.95 168.37C77.12 167.97 88.4 149.47 88.4 149.47L74.95 143.64 68.88 152.8 76.95 168.37Z" id="XMLID_441_" fill="#003558"/></g></g><g id="XMLID_211_"><g id="XMLID_215_"><g id="XMLID_435_"><g id="XMLID_436_"><g id="XMLID_437_"><path d="M41.37 137.12 41.42 140.41C41.65 141.51 40.94 142.58 39.84 142.81 38.74 143.04 37.67 142.33 37.44 141.23L37.24 137.22 41.37 137.12Z" id="XMLID_438_" fill="#7C6671"/></g></g></g><g id="XMLID_431_"><g id="XMLID_432_"><g id="XMLID_433_"><path d="M51.25 132.69C52.22 133.6 53.22 134.86 52.83 136.13 52.41 137.51 50.68 137.94 49.24 138.07 45.73 138.41 42.19 138.44 38.68 138.16 36.47 137.99 34.14 137.64 32.39 136.28 28.1 132.95 30.12 124.84 35.75 124.57 41.1 124.32 47.61 129.28 51.25 132.69Z" id="XMLID_434_" fill="#2D1E26"/></g></g></g><g id="XMLID_427_"><g id="XMLID_428_"><g id="XMLID_429_"><path d="M69.48 194.96C69.38 194.78 67.38 181.9 66.73 177.72 66.62 177 67.11 176.33 67.82 176.22L67.82 176.22C68.55 176.1 69.23 176.61 69.33 177.34L71.03 195.17 69.48 194.96Z" id="XMLID_430_" fill="#443039"/></g></g></g><g id="XMLID_423_"><g id="XMLID_424_"><g id="XMLID_425_"><path d="M69.04 179.03C71.25 179.4 73.47 178.51 75.5 177.58 76.74 177.01 78.08 176.3 78.55 175.02 79.04 173.69 78.34 172.11 77.16 171.31 75.98 170.52 74.44 170.41 73.05 170.7 71.66 170.99 70.37 171.65 69.11 172.29 67.54 173.09 65.27 173.59 65.25 175.58 65.24 177.34 67.55 178.79 69.04 179.03Z" id="XMLID_426_" fill="#2D1E26"/></g></g></g><g id="XMLID_386_"><g id="XMLID_418_"><g id="XMLID_419_"><g id="XMLID_420_"><g id="XMLID_421_"><path d="M80.22 177.66C75.27 182.32 60.07 161.95 61.37 159.76 62.67 157.57 74.18 148.52 75.49 148.95 76.8 149.38 82.3 155.68 81.77 157.1 81.24 158.52 76.3 163.53 76.3 163.53 76.3 163.53 84.27 173.84 80.22 177.66Z" id="XMLID_422_" fill="#FFFFFD"/></g></g></g></g><g id="XMLID_402_"><g id="XMLID_413_"><g id="XMLID_414_"><g id="XMLID_415_"><g id="XMLID_416_"><path d="M80.24 173.91C79.37 174.53 78.18 174.56 77.17 174.23 76.15 173.9 75.28 173.25 74.45 172.57 69.2 168.26 68.71 166.68 64.92 161.04 64.45 160.35 63.98 159.64 63.76 158.83 63.62 158.33 63.59 157.77 63.72 157.27 64.4 156.65 65.17 155.98 66 155.3 65.95 155.82 65.99 156.34 66.13 156.84 66.34 157.6 66.78 158.33 67.45 158.74 68.06 159.12 68.82 159.2 69.53 159.11 73.13 158.64 75.66 153.12 71.24 151.66 71.11 151.62 70.97 151.59 70.83 151.56 73.09 149.93 75 148.78 75.49 148.94 76.8 149.37 82.3 155.67 81.77 157.09 81.24 158.51 76.3 163.52 76.3 163.52 76.3 163.52 79.39 167.62 80.81 173.3 80.66 173.54 80.47 173.75 80.24 173.91Z" id="XMLID_417_" fill="none"/></g></g></g></g><g id="XMLID_408_"><g id="XMLID_409_"><g id="XMLID_410_"><g id="XMLID_411_"><path d="M64.37 158.91C64.58 159.67 65.03 160.34 65.47 161 69.06 166.34 69.52 167.82 74.49 171.91 75.27 172.55 76.1 173.17 77.06 173.48 78.02 173.79 79.15 173.76 79.97 173.18 80.19 173.03 80.37 172.83 80.52 172.61 80.96 174.35 80.89 175.84 79.96 176.73 75.28 181.14 60.89 161.86 62.12 159.79 62.41 159.3 63.23 158.45 64.34 157.45 64.21 157.91 64.23 158.44 64.37 158.91Z" id="XMLID_412_" fill="#453248"/></g></g></g></g><g id="XMLID_403_"><g id="XMLID_404_"><g id="XMLID_405_"><g id="XMLID_406_"><path d="M69.54 159.12C68.83 159.21 68.07 159.13 67.46 158.75 66.79 158.34 66.35 157.61 66.14 156.85 66 156.35 65.96 155.82 66.01 155.31 67.56 154.02 69.29 152.68 70.85 151.57 70.99 151.6 71.13 151.63 71.26 151.67 75.67 153.13 73.13 158.65 69.54 159.12Z" id="XMLID_407_" fill="#453248"/></g></g></g></g></g><g id="XMLID_397_"><g id="XMLID_398_"><g id="XMLID_399_"><g id="XMLID_400_"><path d="M77.99 165.95C78.42 166.13 78.9 166.39 79.32 166.17 79.59 166.03 79.74 165.72 79.74 165.43 79.74 165.13 79.62 164.84 79.47 164.59 78.95 163.77 78.01 163.25 77.05 163.16 76.23 163.08 72.8 163.88 73.78 165.19 74.49 166.16 76.94 165.5 77.99 165.95Z" id="XMLID_401_" fill="#453248"/></g></g></g></g><g id="XMLID_392_"><g id="XMLID_393_"><g id="XMLID_394_"><g id="XMLID_395_"><path d="M78.76 163.12C79.19 163.3 79.67 163.56 80.09 163.34 80.36 163.2 80.51 162.89 80.51 162.6 80.51 162.3 80.39 162.01 80.24 161.76 79.72 160.94 78.78 160.42 77.82 160.33 77 160.25 73.57 161.05 74.55 162.36 75.25 163.34 77.71 162.68 78.76 163.12Z" id="XMLID_396_" fill="#453248"/></g></g></g></g><g id="XMLID_387_"><g id="XMLID_388_"><g id="XMLID_389_"><g id="XMLID_390_"><path d="M80.36 160.74C80.71 161.05 81.09 161.44 81.55 161.37 81.85 161.33 82.09 161.08 82.18 160.8 82.28 160.52 82.26 160.21 82.19 159.91 81.96 158.96 81.24 158.18 80.35 157.78 79.59 157.44 76.09 157.11 76.6 158.67 76.97 159.84 79.51 159.99 80.36 160.74Z" id="XMLID_391_" fill="#453248"/></g></g></g></g></g><g id="XMLID_382_"><g id="XMLID_383_"><g id="XMLID_384_"><path d="M69.32 191.25C68.95 191.82 36.58 197.98 29.74 199.11 29.13 199.21 28.77 199.86 29.01 200.43L29.01 200.43C29.17 200.81 29.55 201.05 29.96 201.03L71.09 197.87 69.32 191.25Z" id="XMLID_385_" fill="#2D1E26"/></g></g></g><g id="XMLID_375_"><g id="XMLID_379_"><g id="XMLID_380_"><path d="M35.49 148.6C36 157.66 28.11 192.96 28.65 199.87 28.7 200.49 29.31 200.9 29.9 200.71L29.9 200.71C30.29 200.59 30.57 200.22 30.58 199.81L41.51 147.53 35.49 148.6Z" id="XMLID_381_" fill="#2D1E26"/></g></g><g id="XMLID_376_"><g id="XMLID_377_"><path d="M32.67 169.59C32.67 169.59 17.25 164.7 6.54 169.67 6.54 169.67 8.71 165.2 10.6 162.7 12.49 160.2 35.71 157.61 35.71 157.61L32.67 169.59Z" id="XMLID_378_" fill="#2D1E26"/></g></g></g><g id="XMLID_256_"><g id="XMLID_332_"><g id="XMLID_368_"><g id="XMLID_369_"><g id="XMLID_370_"><g id="XMLID_371_"><path d="M27.63 201.92 28.91 195.09 25.56 199.76 24.89 199.45 29.23 193.41 32.56 175.6 40.48 178.99 30 193.57 28.44 201.9 27.63 201.92ZM33.14 176.74 30.31 191.89 39.3 179.37 33.14 176.74Z" id="XMLID_372_" fill="#443039"/></g></g></g></g><g id="XMLID_361_"><g id="XMLID_362_"><g id="XMLID_363_"><g id="XMLID_364_"><path d="M32.46 200.89 26.74 203.23 26.53 202.57 30.68 200.87 26.61 200.81 26.78 200.07 32.43 200.15 50.8 192.63 50.52 201.15 32.46 200.89ZM34.21 200.17 49.73 200.39 49.95 193.73 34.21 200.17Z" id="XMLID_365_" fill="#443039"/></g></g></g></g><g id="XMLID_354_"><g id="XMLID_355_"><g id="XMLID_356_"><g id="XMLID_357_"><path d="M29.96 206.6 24.93 203.72 25.46 203.07 29.07 205.14 27 201.71 27.74 201.26 30.61 206.02 46.47 215.11 39.67 222.72 29.96 206.6ZM31.51 207.48 39.91 221.41 45.3 215.38 31.51 207.48Z" id="XMLID_358_" fill="#443039"/></g></g></g></g><g id="XMLID_347_"><g id="XMLID_348_"><g id="XMLID_349_"><g id="XMLID_350_"><path d="M13.76 223.55 23.81 207.84 24.7 201.82 25.52 201.77 24.87 206.19 27.69 201.78 28.39 202.05 24.61 207.96 21.93 226.03 13.76 223.55ZM14.93 223.08 21.27 225 23.55 209.6 14.93 223.08Z" id="XMLID_351_" fill="#443039"/></g></g></g></g><g id="XMLID_340_"><g id="XMLID_341_"><g id="XMLID_342_"><g id="XMLID_343_"><path d="M22.19 198.13 6.26 190.35 11.43 182.83 22.82 197.53 28.23 200.17 27.73 200.84 23.95 198.99 26.29 202.01 25.58 202.51 22.19 198.13ZM7.38 189.99 21.05 196.67 11.37 184.18 7.38 189.99Z" id="XMLID_344_" fill="#443039"/></g></g></g></g><g id="XMLID_333_"><g id="XMLID_334_"><g id="XMLID_335_"><g id="XMLID_336_"><path d="M20.8 203.66 5.76 212.2 3.31 206.09 20.63 202.97 25.98 199.93 26.32 200.53 22.68 202.6 27.15 201.8 27.15 202.53 20.8 203.66ZM4.45 206.61 6.26 211.13 18.76 204.04 4.45 206.61Z" id="XMLID_337_" fill="#443039"/></g></g></g></g></g><g id="XMLID_327_"><g id="XMLID_328_"><g id="XMLID_329_"><g id="XMLID_330_"><path d="M29.76 203.46C30.69 203.01 30.95 201.5 30.34 200.1 29.73 198.69 28.49 197.92 27.56 198.37L20.72 201.18 23.28 207.12 29.76 203.46Z" id="XMLID_331_" fill="#443039"/></g></g></g></g><g id="XMLID_305_"><g id="XMLID_320_"><g id="XMLID_321_"><g id="XMLID_322_"><g id="XMLID_323_"><path d="M4.38 212.7C9.9 225.52 23.82 231.36 35.43 225.73 47.04 220.1 53.21 204.5 47.69 191.68 42.17 178.86 27.02 173.61 15.42 179.24 3.82 184.87-1.13 199.88 4.38 212.7ZM6.72 211.56C1.66 199.8 5.93 186.16 16.25 181.15 26.57 176.15 39.08 181.64 44.14 193.41 49.2 205.17 44.93 218.81 34.61 223.82 24.29 228.82 11.78 223.33 6.72 211.56Z" id="XMLID_324_" fill="#7C6671"/></g></g></g></g><g id="XMLID_313_"><g id="XMLID_314_"><g id="XMLID_315_"><g id="XMLID_316_"><path d="M3.16 213.29C9.06 227.01 25.49 232.48 38.1 226.36 50.71 220.24 57.09 203.71 51.19 189.99 45.29 176.27 29.33 170.57 16.72 176.69 4.12 182.81-2.74 199.57 3.16 213.29ZM4.38 212.7C-1.14 199.88 3.82 184.88 15.42 179.25 27.02 173.62 40.95 179.47 46.47 192.28 51.99 205.1 47.03 220.1 35.43 225.73 23.83 231.36 9.9 225.51 4.38 212.7Z" id="XMLID_317_" fill="#443039"/></g></g></g></g><g id="XMLID_306_"><g id="XMLID_307_"><g id="XMLID_308_"><g id="XMLID_309_"><path d="M2.25 213.73C8.39 228 25.23 233.82 39.86 226.72 54.49 219.62 58.59 204.69 52.44 190.41 46.3 176.14 32.24 167.94 17.61 175.03 2.98 182.14-3.89 199.46 2.25 213.73ZM3.16 213.29C-2.74 199.57 4.12 182.81 16.73 176.69 29.34 170.57 42.79 177.69 48.69 191.4 54.59 205.12 50.72 220.24 38.11 226.36 25.5 232.47 9.06 227.01 3.16 213.29Z" id="XMLID_310_" fill="#2D1E26"/></g></g></g></g></g><g id="XMLID_300_"><g id="XMLID_301_"><g id="XMLID_302_"><g id="XMLID_303_"><path d="M20.04 205.1C20.75 206.74 22.2 207.65 23.28 207.12 24.36 206.59 24.67 204.84 23.96 203.2 23.25 201.56 21.8 200.65 20.72 201.18 19.64 201.7 19.34 203.46 20.04 205.1Z" id="XMLID_304_" fill="#7C6671"/></g></g></g></g><g id="XMLID_257_"><g id="XMLID_293_"><g id="XMLID_294_"><g id="XMLID_295_"><g id="XMLID_296_"><path d="M23.17 204.3 21.94 199.26 21.27 204.03 20.45 204.08 21.42 197.14 17.02 179.08 24.9 178.04 22.26 196.97 23.98 204.02 23.17 204.3ZM18.05 179.67 21.75 194.85 23.98 178.89 18.05 179.67Z" id="XMLID_297_" fill="#7C6671"/></g></g></g></g><g id="XMLID_286_"><g id="XMLID_287_"><g id="XMLID_288_"><g id="XMLID_289_"><path d="M22.2 205.19 26.27 201.37 21.88 203.49 21.61 202.85 27.97 199.77 42.44 186.21 45.87 191.88 28.39 200.33 22.74 205.63 22.2 205.19ZM30.09 198.76 44.73 191.68 42.17 187.45 30.09 198.76Z" id="XMLID_290_" fill="#7C6671"/></g></g></g></g><g id="XMLID_279_"><g id="XMLID_280_"><g id="XMLID_281_"><g id="XMLID_282_"><path d="M28.67 206.38 21.11 206.6 21.25 205.86 26.69 205.7 22.58 204.29 23 203.59 28.96 205.63 47.55 205.09 45.97 212.29 28.67 206.38ZM30.94 206.32 45.39 211.26 46.57 205.87 30.94 206.32Z" id="XMLID_283_" fill="#7C6671"/></g></g></g></g><g id="XMLID_272_"><g id="XMLID_273_"><g id="XMLID_274_"><g id="XMLID_275_"><path d="M26.15 227.42 23.97 210.5 20.2 205.04 20.93 204.57 23.73 208.62 23.17 204.26 23.99 204.04 24.78 210.14 34.97 224.91 26.15 227.42ZM26.88 226.48 33.66 224.55 25.01 212.02 26.88 226.48Z" id="XMLID_276_" fill="#7C6671"/></g></g></g></g><g id="XMLID_265_"><g id="XMLID_266_"><g id="XMLID_267_"><g id="XMLID_268_"><path d="M16.52 202.31 3.13 200.31 4.26 193.53 16.96 201.6 23.21 202.53 22.92 203.26 18.55 202.61 21.83 204.69 21.27 205.32 16.52 202.31ZM4.05 199.68 14.93 201.31 4.85 194.9 4.05 199.68Z" id="XMLID_269_" fill="#7C6671"/></g></g></g></g><g id="XMLID_258_"><g id="XMLID_259_"><g id="XMLID_260_"><g id="XMLID_261_"><path d="M6.54 215.49 18.05 207.46 20.77 203 21.48 203.25 19.55 206.42 22.55 204.33 22.97 204.88 18.66 207.89 11.03 220.42 6.54 215.49ZM7.72 215.51 10.97 219.08 17.15 208.93 7.72 215.51Z" id="XMLID_262_" fill="#7C6671"/></g></g></g></g></g></g><g id="XMLID_253_"><g id="XMLID_254_"><path d="M17.77 203.6C17.77 200.71 20.11 198.37 23 198.37 25.89 198.37 28.23 200.71 28.23 203.6 28.23 206.49 25.89 208.83 23 208.83 20.11 208.83 17.77 206.49 17.77 203.6Z" id="XMLID_255_" fill="#443039"/></g></g><g id="XMLID_250_"><g id="XMLID_251_"><path d="M22.84 209.86 22.67 209.8C22.47 209.73 17.78 208.12 16.95 204.59 16.48 202.59 17.33 200.48 19.48 198.33L19.68 198.13 19.95 198.06C20.14 198.01 39.6 192.76 54.01 188.94L54.54 190.93C41.06 194.5 23.17 199.32 20.76 199.97 19.29 201.51 18.69 202.9 18.97 204.11 19.42 206.03 22.02 207.35 23.18 207.78 25.1 207.75 41.69 207.42 55.54 205.83L55.78 207.88C41.03 209.58 23.21 209.85 23.03 209.85L22.84 209.86Z" id="XMLID_252_" fill="#2D1E26"/></g></g><g id="XMLID_246_"><g id="XMLID_247_"><g id="XMLID_248_"><path d="M71.35 191.44C70.98 192.01 29.47 201.33 22.63 202.46 22.02 202.56 21.66 203.21 21.9 203.78L21.9 203.78C22.06 204.16 22.44 204.4 22.85 204.38L73.12 198.06 71.35 191.44Z" id="XMLID_249_" fill="#5F4457"/></g></g></g><g id="XMLID_242_"><g id="XMLID_243_"><g id="XMLID_244_"><path d="M35.29 146.97C35.8 156.03 20.99 196.32 21.53 203.23 21.58 203.85 22.19 204.26 22.78 204.07L22.78 204.07C23.17 203.95 23.45 203.58 23.46 203.17L41.3 145.9 35.29 146.97Z" id="XMLID_245_" fill="#5F4457"/></g></g></g><g id="XMLID_239_"><g id="XMLID_240_"><path d="M41.28 147.05C40 147.63 39.15 148.98 39.33 150.38 39.44 151.26 39.96 152.12 41.37 152.53 44.89 153.57 100.05 149.47 100.05 149.47L100.05 149.47C102.61 146.59 105.03 141.06 101.19 141.38L41.28 147.05Z" id="XMLID_241_" fill="#5F4457"/></g></g><g id="XMLID_236_"><g id="XMLID_237_"><path d="M67.89 197.57 35.01 150.25 34.21 139.58 44.45 139.19 43.89 150.81 70.78 194.98Z" id="XMLID_238_" fill="#5F4457"/></g></g><g id="XMLID_232_"><g id="XMLID_233_"><g id="XMLID_234_"><path d="M67.84 194.69 96.66 143.95C97.6 142.29 99.8 141.86 101.3 143.05L101.3 143.05C102.51 144.01 102.84 145.72 102.06 147.06L72.76 197.52C71.68 199.37 69.02 199.41 67.9 197.58L67.9 197.58C67.35 196.69 67.33 195.59 67.84 194.69Z" id="XMLID_235_" fill="#5F4457"/></g></g></g><g id="XMLID_229_"><g id="XMLID_230_"><path d="M55.76 207.89 55.52 205.84C62.99 204.98 68.38 203.9 71.55 202.64 77 200.48 77.81 196.15 76.74 192.83 75.64 189.39 72.36 186.35 68.77 187.23 66.61 187.76 61.81 189.01 54.51 190.94L54 188.95C61.31 187.01 66.12 185.76 68.3 185.23 73.06 184.07 77.34 187.86 78.72 192.21 80 196.23 79.1 201.87 72.32 204.57 68.98 205.88 63.41 207.01 55.76 207.89Z" id="XMLID_231_" fill="#2D1E26"/></g></g><g id="XMLID_225_"><g id="XMLID_226_"><g id="XMLID_227_"><path d="M70.71 196.66C70.83 196.83 74.3 209.39 75.43 213.47 75.62 214.17 75.21 214.89 74.52 215.09L74.52 215.09C73.81 215.29 73.07 214.87 72.89 214.15L69.15 196.63 70.71 196.66Z" id="XMLID_228_" fill="#443039"/></g></g></g><g id="XMLID_220_"><g id="XMLID_221_"><g id="XMLID_222_"><path d="M65.42 196.38C65.55 196.75 63.36 197.87 63.53 198.21 63.7 198.56 66.11 197.9 66.31 198.22 66.53 198.55 64.7 200.1 64.95 200.39 65.21 200.7 67.35 199.51 67.65 199.77 67.96 200.04 66.68 201.98 67.01 202.19 67.36 202.42 68.98 200.7 69.36 200.86 69.75 201.03 69.33 203.24 69.73 203.32 70.15 203.41 70.82 201.25 71.24 201.24 71.66 201.23 72.46 203.35 72.87 203.24 73.28 203.13 72.64 200.96 73.01 200.76 73.37 200.56 75.26 202.03 75.56 201.75 75.85 201.48 74.18 199.8 74.42 199.47 74.65 199.15 77.04 199.84 77.21 199.48 77.37 199.13 75.16 198.07 75.26 197.69 75.36 197.32 77.88 197.33 77.92 196.94 77.96 196.56 75.5 196.11 75.48 195.72 75.47 195.34 77.89 194.74 77.82 194.35 77.75 193.98 75.24 194.11 75.11 193.74 74.98 193.37 77.15 192.22 76.98 191.88 76.8 191.52 74.41 192.23 74.19 191.91 73.96 191.58 75.72 189.97 75.45 189.68 75.17 189.38 73.08 190.64 72.77 190.38 72.45 190.12 73.62 188.13 73.27 187.92 72.9 187.7 71.35 189.47 70.96 189.32 70.56 189.16 70.9 186.94 70.49 186.86 70.06 186.78 69.41 188.94 68.99 188.95 68.56 188.96 67.74 186.84 67.33 186.96 66.92 187.07 67.57 189.23 67.22 189.43 66.87 189.63 64.97 188.18 64.68 188.46 64.4 188.73 66.13 190.36 65.91 190.69 65.7 191.01 63.28 190.39 63.13 190.76 62.99 191.1 65.26 192.07 65.17 192.45 65.09 192.81 62.57 192.9 62.55 193.28 62.52 193.65 65.01 194.02 65.03 194.41 65.06 194.78 62.64 195.43 62.72 195.8 62.78 196.17 65.3 196.01 65.42 196.38Z" id="XMLID_223_" fill="#7C6671"/></g></g></g><g id="XMLID_216_"><g id="XMLID_217_"><g id="XMLID_218_"><path d="M72.98 212.43C70.74 212.32 68.64 213.45 66.72 214.62 65.55 215.33 64.31 216.19 63.98 217.51 63.64 218.89 64.52 220.38 65.78 221.03 67.04 221.68 68.58 221.62 69.93 221.17 71.28 220.72 72.48 219.92 73.66 219.13 75.12 218.15 77.32 217.4 77.11 215.42 76.95 213.68 74.49 212.51 72.98 212.43Z" id="XMLID_219_" fill="#2D1E26"/></g></g></g></g><g id="XMLID_212_"><g id="XMLID_213_"><path d="M65.76 195.7C65.76 193.24 67.76 191.24 70.22 191.24 72.68 191.24 74.68 193.24 74.68 195.7 74.68 198.16 72.68 200.16 70.22 200.16 67.76 200.16 65.76 198.17 65.76 195.7Z" id="XMLID_214_" fill="#443039"/></g></g></g><g id="XMLID_195_"><g id="XMLID_204_"><g id="XMLID_209_"><path d="M47.92 119.55 39.85 131.52C46.51 136.01 51.72 143.2 54.92 152.06 59.48 149.98 63.4 147.09 67.26 144.06 62.94 133.73 56.3 125.2 47.92 119.55Z" id="XMLID_210_" fill="#003558"/></g><g id="XMLID_207_"><path d="M68.11 144.06C64.24 147.09 60.32 149.98 55.77 152.06 57.18 155.95 58.2 160.16 58.78 164.61 60.4 177.03 60.03 191.02 53.97 205.33L65.37 210.51C72.44 193.81 75.04 177.74 73.08 162.75 72.22 156.08 70.52 149.8 68.11 144.06Z" id="XMLID_208_" fill="#003558"/></g><g id="XMLID_205_"><path d="M56.64 195.1 58.54 187C58.54 187 64.42 189.74 72.31 189.1 72.31 189.1 70.55 201.04 68.19 206.89 68.19 206.89 57.57 203.22 56.64 195.1Z" id="XMLID_206_" fill="#FF844A"/></g></g><g id="XMLID_200_"><g id="XMLID_201_"><g id="XMLID_202_"><path d="M71.27 116.79 41.51 106.98 39.49 108.13 37.86 112.27C37.24 117.77 34.93 126.27 37.99 129.32 41.66 132.99 46.54 134.83 51.53 136.22 55.25 137.25 57.52 137.63 61.46 136.08 67.85 133.56 72.59 124.24 71.27 116.79Z" id="XMLID_203_" fill="#003558"/></g></g></g><g id="XMLID_196_"><g id="XMLID_197_"><g id="XMLID_198_"><path d="M36.78 116.83C37.93 105.69 40.32 94.39 43.51 83.67 45.04 78.52 46.54 72.83 48.99 68.03 53.87 58.49 69.71 60.75 74.32 69.27 76.27 72.87 76.1 77.21 75.82 81.29 74.89 95.04 73.28 108.74 71.63 122.42 71.29 125.24 71.24 125.94 68.41 126.09 66.76 126.18 65.1 126.06 63.46 125.89 59.44 125.47 55.46 124.64 51.55 123.62 49.44 123.08 36.42 120.27 36.78 116.83Z" id="XMLID_199_" fill="#FF844A"/></g></g></g></g><g id="XMLID_158_"><g id="XMLID_190_"><g id="XMLID_191_"><g id="XMLID_192_"><g id="XMLID_193_"><path d="M78.19 214.22C77.07 220.93 52.64 213.89 52.35 211.36 52.06 208.83 55.76 194.66 57.07 194.21 58.38 193.76 66.57 195.45 67 196.91 67.44 198.36 66.53 205.33 66.53 205.33 66.53 205.33 79.11 208.73 78.19 214.22Z" id="XMLID_194_" fill="#FFFFFD"/></g></g></g></g><g id="XMLID_174_"><g id="XMLID_185_"><g id="XMLID_186_"><g id="XMLID_187_"><g id="XMLID_188_"><path d="M75.94 211.23C75.62 212.25 74.69 212.99 73.68 213.34 72.67 213.69 71.58 213.7 70.51 213.66 63.72 213.4 62.38 212.44 55.95 210.24 55.16 209.97 54.35 209.69 53.69 209.19 53.27 208.87 52.92 208.45 52.72 207.97 52.89 207.07 53.1 206.07 53.35 205.02 53.63 205.46 53.98 205.86 54.39 206.17 55.02 206.65 55.81 206.96 56.59 206.88 57.31 206.81 57.96 206.42 58.47 205.91 61.05 203.36 59.74 197.44 55.33 198.94 55.2 198.99 55.07 199.05 54.94 199.11 55.76 196.45 56.58 194.37 57.07 194.2 58.38 193.75 66.57 195.44 67 196.9 67.44 198.35 66.53 205.32 66.53 205.32 66.53 205.32 71.47 206.72 76.04 210.39 76.05 210.68 76.02 210.96 75.94 211.23Z" id="XMLID_189_" fill="none"/></g></g></g></g><g id="XMLID_180_"><g id="XMLID_181_"><g id="XMLID_182_"><g id="XMLID_183_"><path d="M54.23 208.88C54.86 209.36 55.62 209.62 56.37 209.88 62.45 211.96 63.72 212.87 70.15 213.12 71.16 213.16 72.2 213.15 73.15 212.82 74.11 212.49 74.98 211.78 75.28 210.82 75.36 210.57 75.39 210.3 75.37 210.03 76.77 211.16 77.62 212.38 77.41 213.65 76.35 220 53.23 213.34 52.95 210.94 52.88 210.38 53.03 209.2 53.3 207.73 53.5 208.18 53.83 208.58 54.23 208.88Z" id="XMLID_184_" fill="#453248"/></g></g></g></g><g id="XMLID_175_"><g id="XMLID_176_"><g id="XMLID_177_"><g id="XMLID_178_"><path d="M58.47 205.91C57.96 206.42 57.3 206.8 56.59 206.88 55.8 206.96 55.02 206.65 54.39 206.17 53.98 205.86 53.63 205.46 53.35 205.02 53.81 203.05 54.37 200.95 54.94 199.12 55.07 199.06 55.2 199 55.33 198.95 59.74 197.44 61.05 203.36 58.47 205.91Z" id="XMLID_179_" fill="#453248"/></g></g></g></g></g><g id="XMLID_169_"><g id="XMLID_170_"><g id="XMLID_171_"><g id="XMLID_172_"><path d="M69.33 206.24C69.78 206.13 70.32 206.04 70.52 205.62 70.65 205.35 70.58 205.01 70.4 204.77 70.22 204.53 69.95 204.37 69.67 204.27 68.76 203.93 67.7 204.08 66.87 204.59 66.17 205.03 63.92 207.73 65.49 208.19 66.67 208.53 68.23 206.52 69.33 206.24Z" id="XMLID_173_" fill="#453248"/></g></g></g></g><g id="XMLID_164_"><g id="XMLID_165_"><g id="XMLID_166_"><g id="XMLID_167_"><path d="M68.23 203.53C68.68 203.42 69.22 203.33 69.42 202.91 69.55 202.64 69.48 202.3 69.3 202.06 69.12 201.82 68.85 201.66 68.57 201.56 67.66 201.21 66.6 201.37 65.77 201.88 65.07 202.32 62.82 205.02 64.39 205.48 65.57 205.82 67.13 203.81 68.23 203.53Z" id="XMLID_168_" fill="#453248"/></g></g></g></g><g id="XMLID_159_"><g id="XMLID_160_"><g id="XMLID_161_"><g id="XMLID_162_"><path d="M68.07 200.67C68.53 200.7 69.07 200.79 69.4 200.46 69.61 200.25 69.65 199.91 69.56 199.62 69.47 199.34 69.26 199.1 69.03 198.91 68.28 198.29 67.22 198.1 66.28 198.33 65.48 198.52 62.48 200.37 63.83 201.31 64.83 201.99 66.94 200.58 68.07 200.67Z" id="XMLID_163_" fill="#453248"/></g></g></g></g></g><g id="XMLID_7_"><g id="XMLID_12_"><g id="XMLID_20_"><g id="XMLID_155_"><g id="XMLID_156_"><path d="M124.54 198.81 113.64 145.74C113.29 144.05 112.6 142.43 111.48 141.13 109.22 138.52 106.42 138.15 103.57 139.22 99.91 140.6 98.38 144.55 100.47 149.25L107.41 147.62 121.58 199.56C121.82 200.44 122.94 200.8 123.82 200.29 124.37 199.97 124.66 199.37 124.54 198.81Z" id="XMLID_157_" fill="#5F4457"/></g></g><g id="XMLID_151_"><g id="XMLID_152_"><g id="XMLID_153_"><path d="M104.65 140.39C104.04 139.25 98.74 119.82 97.46 115.13 97.3 114.54 96.74 114.16 96.14 114.23L96.14 114.23C95.4 114.31 94.9 115.02 95.07 115.74L100.84 140.35 104.65 140.39Z" id="XMLID_154_" fill="#7C6671"/></g></g></g><g id="XMLID_31_"><g id="XMLID_108_"><g id="XMLID_144_"><g id="XMLID_145_"><g id="XMLID_146_"><g id="XMLID_147_"><path d="M121.9 198.47 123.36 190.66 119.52 196 118.75 195.65 123.71 188.74 127.52 168.37 136.58 172.25 124.61 188.92 122.83 198.45 121.9 198.47ZM128.2 169.67 124.96 187 135.24 172.68 128.2 169.67Z" id="XMLID_148_" fill="#443039"/></g></g></g></g><g id="XMLID_137_"><g id="XMLID_138_"><g id="XMLID_139_"><g id="XMLID_140_"><path d="M127.42 197.3 120.88 199.98 120.64 199.22 125.39 197.27 120.74 197.2 120.94 196.35 127.4 196.44 148.41 187.84 148.09 197.58 127.42 197.3ZM129.42 196.47 147.17 196.72 147.42 189.1 129.42 196.47Z" id="XMLID_141_" fill="#443039"/></g></g></g></g><g id="XMLID_130_"><g id="XMLID_131_"><g id="XMLID_132_"><g id="XMLID_133_"><path d="M124.57 203.82 118.82 200.53 119.43 199.79 123.56 202.16 121.2 198.24 122.05 197.73 125.33 203.17 143.47 213.56 135.69 222.26 124.57 203.82ZM126.33 204.83 135.94 220.76 142.1 213.86 126.33 204.83Z" id="XMLID_134_" fill="#443039"/></g></g></g></g><g id="XMLID_123_"><g id="XMLID_124_"><g id="XMLID_125_"><g id="XMLID_126_"><path d="M106.03 223.21 117.52 205.24 118.54 198.36 119.48 198.31 118.73 203.36 121.96 198.31 122.76 198.61 118.43 205.37 115.37 226.04 106.03 223.21ZM107.37 222.67 114.62 224.87 117.23 207.26 107.37 222.67Z" id="XMLID_127_" fill="#443039"/></g></g></g></g><g id="XMLID_116_"><g id="XMLID_117_"><g id="XMLID_118_"><g id="XMLID_119_"><path d="M115.67 194.14 97.45 185.24 103.36 176.64 116.39 193.45 122.58 196.47 122.01 197.23 117.69 195.12 120.36 198.57 119.55 199.14 115.67 194.14ZM98.74 184.83 114.37 192.46 103.3 178.18 98.74 184.83Z" id="XMLID_120_" fill="#443039"/></g></g></g></g><g id="XMLID_109_"><g id="XMLID_110_"><g id="XMLID_111_"><g id="XMLID_112_"><path d="M114.09 200.46 96.88 210.23 94.08 203.24 113.88 199.67 120 196.19 120.38 196.88 116.22 199.24 121.33 198.32 121.34 199.15 114.09 200.46ZM95.39 203.83 97.46 208.99 111.75 200.88 95.39 203.83Z" id="XMLID_113_" fill="#443039"/></g></g></g></g></g><g id="XMLID_103_"><g id="XMLID_104_"><g id="XMLID_105_"><g id="XMLID_106_"><path d="M124.34 200.24C125.4 199.73 125.7 198 125.01 196.39 124.32 194.78 122.9 193.89 121.83 194.41L114 197.62 116.93 204.42 124.34 200.24Z" id="XMLID_107_" fill="#443039"/></g></g></g></g><g id="XMLID_81_"><g id="XMLID_96_"><g id="XMLID_97_"><g id="XMLID_98_"><g id="XMLID_99_"><path d="M95.31 210.8C101.62 225.46 117.55 232.14 130.82 225.71 144.09 219.27 151.15 201.43 144.85 186.77 138.54 172.11 121.21 166.1 107.94 172.54 94.67 178.98 89 196.14 95.31 210.8ZM97.98 209.5C92.19 196.05 97.08 180.45 108.88 174.72 120.68 169 134.99 175.29 140.78 188.74 146.57 202.19 141.68 217.79 129.88 223.52 118.08 229.24 103.77 222.95 97.98 209.5Z" id="XMLID_100_" fill="#7C6671"/></g></g></g></g><g id="XMLID_89_"><g id="XMLID_90_"><g id="XMLID_91_"><g id="XMLID_92_"><path d="M93.91 211.47C100.66 227.16 119.45 233.41 133.88 226.41 148.31 219.41 155.6 200.5 148.85 184.81 142.1 169.12 123.85 162.6 109.43 169.6 95.01 176.61 87.16 195.79 93.91 211.47ZM95.31 210.8C89 196.14 94.67 178.98 107.94 172.54 121.21 166.1 137.14 172.79 143.45 187.45 149.76 202.11 144.09 219.27 130.82 225.71 117.55 232.14 101.62 225.45 95.31 210.8Z" id="XMLID_93_" fill="#443039"/></g></g></g></g><g id="XMLID_82_"><g id="XMLID_83_"><g id="XMLID_84_"><g id="XMLID_85_"><path d="M92.87 211.98C99.9 228.3 119.15 234.96 135.88 226.84 152.61 218.72 157.3 201.64 150.27 185.32 143.24 169 127.17 159.62 110.44 167.73 93.71 175.85 85.84 195.66 92.87 211.98ZM93.91 211.47C87.16 195.78 95 176.61 109.43 169.61 123.85 162.61 139.23 170.75 145.98 186.44 152.73 202.13 148.3 219.42 133.88 226.42 119.46 233.42 100.66 227.16 93.91 211.47Z" id="XMLID_86_" fill="#2D1E26"/></g></g></g></g></g><g id="XMLID_76_"><g id="XMLID_77_"><g id="XMLID_78_"><g id="XMLID_79_"><path d="M113.22 202.11C114.03 203.99 115.69 205.02 116.93 204.42 118.17 203.82 118.52 201.81 117.71 199.93 116.9 198.05 115.24 197.02 114 197.62 112.76 198.22 112.41 200.23 113.22 202.11Z" id="XMLID_80_" fill="#7C6671"/></g></g></g></g><g id="XMLID_32_"><g id="XMLID_69_"><g id="XMLID_70_"><g id="XMLID_71_"><g id="XMLID_72_"><path d="M116.8 201.19 115.4 195.42 114.64 200.88 113.7 200.94 114.81 193 109.78 172.34 118.79 171.15 115.77 192.79 117.73 200.85 116.8 201.19ZM110.94 173.02 115.17 190.38 117.72 172.13 110.94 173.02Z" id="XMLID_73_" fill="#7C6671"/></g></g></g></g><g id="XMLID_62_"><g id="XMLID_63_"><g id="XMLID_64_"><g id="XMLID_65_"><path d="M115.69 202.21 120.35 197.84 115.33 200.27 115.02 199.54 122.29 196.02 138.84 180.52 142.77 187 122.78 196.67 116.31 202.73 115.69 202.21ZM124.72 194.85 141.46 186.75 138.53 181.91 124.72 194.85Z" id="XMLID_66_" fill="#7C6671"/></g></g></g></g><g id="XMLID_55_"><g id="XMLID_56_"><g id="XMLID_57_"><g id="XMLID_58_"><path d="M123.09 203.57 114.44 203.82 114.6 202.97 120.82 202.79 116.12 201.18 116.6 200.38 123.42 202.71 144.68 202.09 142.88 210.32 123.09 203.57ZM125.68 203.5 142.2 209.15 143.55 202.98 125.68 203.5Z" id="XMLID_59_" fill="#7C6671"/></g></g></g></g><g id="XMLID_47_"><g id="XMLID_48_"><g id="XMLID_49_"><g id="XMLID_50_"><path d="M120.21 227.64 117.72 208.29 113.41 202.05 114.24 201.51 117.44 206.15 116.8 201.16 117.74 200.9 118.64 207.87 130.3 224.76 120.21 227.64ZM121.04 226.56 128.8 224.35 118.91 210.01 121.04 226.56Z" id="XMLID_51_" fill="#7C6671"/></g></g></g></g><g id="XMLID_40_"><g id="XMLID_41_"><g id="XMLID_42_"><g id="XMLID_43_"><path d="M109.2 198.92 93.89 196.63 95.18 188.88 109.7 198.11 116.84 199.18 116.51 200.02 111.51 199.27 115.26 201.65 114.62 202.37 109.2 198.92ZM94.93 195.9 107.37 197.76 95.84 190.43 94.93 195.9Z" id="XMLID_44_" fill="#7C6671"/></g></g></g></g><g id="XMLID_33_"><g id="XMLID_34_"><g id="XMLID_35_"><g id="XMLID_36_"><path d="M97.78 213.99 110.94 204.81 114.05 199.71 114.86 200 112.65 203.63 116.08 201.24 116.56 201.87 111.63 205.31 102.91 219.64 97.78 213.99ZM99.13 214.01 102.85 218.1 109.92 206.49 99.13 214.01Z" id="XMLID_37_" fill="#7C6671"/></g></g></g></g></g></g><g id="XMLID_25_"><g id="XMLID_26_"><g id="XMLID_27_"><g id="XMLID_28_"><g id="XMLID_29_"><path d="M117.46 200.02 106.17 145.98 99.94 147.83 114.48 200.68C114.72 201.56 115.84 201.96 116.72 201.48L116.72 201.48C117.28 201.17 117.58 200.59 117.46 200.02Z" id="XMLID_30_" fill="#5F4457"/></g></g></g></g></g><g id="XMLID_21_"><g id="XMLID_22_"><g id="XMLID_23_"><path d="M105.82 136.77C106.07 137.72 106.29 138.54 106.47 139.24 106.94 141.07 105.62 143 103.58 143.51L103.56 143.52C101.62 144 99.73 143.01 99.3 141.28L98.68 138.83C98.24 137.08 99.43 135.22 101.36 134.62L101.36 134.62C103.33 134.01 105.35 134.98 105.82 136.77Z" id="XMLID_24_" fill="#2D1E26"/></g></g></g></g><g id="XMLID_13_"><g id="XMLID_16_"><g id="XMLID_17_"><g id="XMLID_18_"><path d="M102.15 104.43C102.12 104.95 102.14 105.48 102.32 105.96 102.5 106.44 102.87 106.88 103.37 107.04 104.11 107.28 104.68 107.15 105.1 106.78 107.35 109.12 111.07 109.22 113.44 106.98 115.82 104.73 115.92 100.98 113.67 98.61 111.42 96.23 107.67 96.13 105.3 98.38 105.12 98.55 104.96 98.73 104.81 98.91 104.69 98.98 104.57 99.06 104.48 99.16 103.11 100.57 102.27 102.47 102.15 104.43Z" id="XMLID_19_" fill="#A3525B"/></g></g></g><g id="XMLID_14_"><path d="M110.28 102.46 78.69 127.3C77.59 128.17 77.15 129.71 77.81 130.96 77.95 131.23 78.13 131.49 78.37 131.74 78.38 131.75 78.39 131.76 78.4 131.78 79.47 132.86 81.23 132.87 82.41 131.91 92.95 123.29 102.49 114.5 113 105.87 113.94 105.1 114.08 103.71 113.3 102.78L113.3 102.78C112.54 101.87 111.2 101.73 110.28 102.46Z" id="XMLID_15_" fill="#2D1E26"/></g></g></g><g id="XMLID_8_"><g id="XMLID_9_"><g id="XMLID_10_"><path d="M88.09 122.54C88.28 123.02 88.42 123.53 88.39 124.05 88.36 124.57 88.14 125.09 87.72 125.39 87.08 125.84 86.5 125.89 85.99 125.67 84.56 128.59 81.04 129.81 78.11 128.4 75.16 126.98 73.92 123.44 75.34 120.5 76.76 117.55 80.3 116.31 83.24 117.73 83.46 117.84 83.67 117.96 83.87 118.09 84.01 118.11 84.14 118.16 84.27 118.23 86.01 119.15 87.38 120.72 88.09 122.54Z" id="XMLID_11_" fill="#A3525B"/></g></g></g></g></g><g id="XMLID_4_"><path d="M76.57 123.36C70.41 118.43 64.03 113.32 59.16 106.57 54.96 100.74 53.43 94.18 54.33 85.91L62.28 86.78C61.59 93.05 62.63 97.71 65.64 101.89 69.87 107.76 75.81 112.51 81.56 117.11L76.57 123.36Z" id="XMLID_5_" fill="#F8BFA3"/></g><g id="XMLID_2_"><path d="M51.65 147.54 54.92 154.6 69.94 145.98 66.63 138.35Z" id="XMLID_3_" fill="#031D3A"/></g><g><path d="M68.83 60.38C68.75 64.53 66.49 67.83 63.79 67.76L60.69 67.67C57.99 67.59 55.86 64.17 55.94 60.01L55.94 60.01C56.02 55.86 58.28 52.56 60.98 52.63L64.08 52.72C66.79 52.8 68.91 56.23 68.83 60.38L68.83 60.38Z" fill="#F5A48D"/><g><defs><path d="M34.75 33.48C35.02 33.49 35.29 33.51 35.55 33.55 35.56 33.53 35.56 33.52 35.57 33.5 41.23 17.8 51.45 8.84 67.61 10.95 87.97 13.6 87.11 31.43 90.08 35.06 92.3 37.78 93.32 41.89 92.1 46.94 89.69 56.97 76.76 62.13 64.61 61.82 52.46 61.51 39.43 53.93 35.71 44.14 35.34 44.19 34.95 44.22 34.56 44.21 31.18 44.12 28.48 41.65 28.53 38.69 28.58 35.73 31.37 33.4 34.75 33.48Z" id="SVGID_1_"/></defs><clipPath id="SVGID_2_"><use width="100%" height="100%" xlink:href="#SVGID_1_" overflow="visible"></use></clipPath><path d="M34.75 33.48C35.02 33.49 35.29 33.51 35.55 33.55 35.56 33.53 35.56 33.52 35.57 33.5 41.23 17.8 49.29 6.28 65.6 6.69 81.91 7.11 93.84 32.25 95.01 35.71 96.09 38.91 93.32 41.89 92.1 46.94 89.69 56.97 76.76 62.13 64.61 61.82 52.46 61.51 39.43 53.93 35.71 44.14 35.34 44.19 34.95 44.22 34.56 44.21 31.18 44.12 28.48 41.65 28.53 38.69 28.58 35.73 31.37 33.4 34.75 33.48Z" fill="#F8BFA3" clip-path="url(#SVGID_2_)"/><path d="M82.3 44.45C82.27 45.97 84.78 47.27 87.91 47.35 91.04 47.43 93.59 46.26 93.62 44.74 93.65 43.22 91.14 41.92 88.01 41.84 84.89 41.76 82.33 42.93 82.3 44.45Z" fill="#F5A48D" clip-path="url(#SVGID_2_)"/></g><path d="M57.62 43.82C57.59 45.34 60.1 46.64 63.23 46.72 66.36 46.8 68.91 45.63 68.94 44.11 68.97 42.59 66.46 41.29 63.33 41.21 60.21 41.13 57.65 42.3 57.62 43.82Z" fill="#F5A48D"/><g><defs><path d="M73.93 55.62C69.42 55.51 66.89 52.99 65.86 49.72 65.86 49.72 69.78 50.64 74.29 50.75 78.94 50.87 80.65 50.4 80.65 50.4 80.59 53.28 78.44 55.73 73.93 55.62Z" id="SVGID_3_"/></defs><clipPath id="SVGID_4_"><use width="100%" height="100%" xlink:href="#SVGID_3_" overflow="visible"></use></clipPath><path d="M73.58 57.73C67.49 57.57 63.7 53 62.73 47.44 62.73 47.44 68.02 49.02 74.1 49.17 80.38 49.33 84.79 48 84.79 48 81.13 53.45 79.67 57.89 73.58 57.73Z" fill="#9B1A17" clip-path="url(#SVGID_4_)"/><path d="M66.94 49.41C66.91 50.84 69.9 52.08 73.6 52.17 77.31 52.26 80.33 51.18 80.36 49.75 80.39 48.32 77.4 47.08 73.7 46.99 69.99 46.9 66.96 47.98 66.94 49.41Z" fill="#FFFFFF" clip-path="url(#SVGID_4_)"/><path d="M77.73 55.71C77.75 54.48 76.19 53.45 74.25 53.4 72.31 53.35 70.71 54.3 70.69 55.53 70.67 56.76 72.23 57.79 74.17 57.84 76.12 57.89 77.71 56.94 77.73 55.71Z" fill="#EF8581" clip-path="url(#SVGID_4_)"/></g><g><path d="M83.4 34.04C83.4 34.04 83.4 34.04 83.4 34.04 83.65 33.84 83.94 33.73 84.28 33.67 84.31 33.66 84.34 33.66 84.37 33.65 84.38 33.65 84.64 33.62 84.76 33.61 85.37 33.57 86.15 33.62 87.2 33.65 88.97 33.71 90.13 32.63 90.12 32.64 89.76 33.72 88.89 34.47 87.76 34.99 87.62 35.06 87.47 35.12 87.31 35.19 87.52 35.62 87.64 36.12 87.63 36.64 87.6 38.28 86.33 39.58 84.8 39.54 83.26 39.5 82.04 38.14 82.07 36.5 82.09 35.46 82.62 34.55 83.4 34.04Z" fill="#432918"/><path d="M83.32 35.41C83.31 35.79 83.66 36.11 84.1 36.12 84.53 36.13 84.89 35.83 84.9 35.45 84.91 35.07 84.56 34.75 84.13 34.74 83.7 34.73 83.33 35.03 83.32 35.41Z" fill="#FFFFFF"/></g><g><path d="M58.46 33.41C58.46 33.41 58.46 33.4 58.46 33.41 58.71 33.21 59 33.1 59.34 33.04 59.37 33.03 59.4 33.03 59.43 33.02 59.44 33.02 59.7 32.99 59.82 32.98 60.43 32.94 61.21 32.99 62.26 33.02 64.03 33.08 65.19 32 65.18 32.01 64.82 33.09 63.95 33.84 62.82 34.36 62.68 34.43 62.53 34.49 62.37 34.56 62.59 34.99 62.7 35.49 62.69 36.01 62.66 37.65 61.39 38.95 59.86 38.91 58.32 38.87 57.1 37.51 57.13 35.87 57.15 34.82 57.68 33.91 58.46 33.41Z" fill="#432918"/><path d="M58.38 34.78C58.37 35.16 58.72 35.48 59.16 35.49 59.6 35.5 59.95 35.2 59.96 34.82 59.97 34.44 59.62 34.12 59.19 34.11 58.74 34.09 58.39 34.39 58.38 34.78Z" fill="#FFFFFF"/></g><path d="M72.63 42.73C72.87 42.41 72.96 41.99 73.04 41.62 73.13 41.19 73.28 40.65 73.16 40.22 73.15 40.19 73.19 40.17 73.2 40.21 73.37 40.9 73.59 41.37 73.51 42.09 73.49 42.29 73.43 42.49 73.37 42.7 74.4 42.46 75.7 42.9 75.87 43.9 75.98 44.55 75.73 45.13 75.06 45.44 74.44 45.73 73.68 45.87 73.04 45.59 73.01 45.58 73.01 45.52 73.04 45.51 73.58 45.29 75.69 44.91 75.22 44.09 74.75 43.27 73.42 43.73 72.7 43.82 72.65 43.83 72.6 43.81 72.57 43.79 72.49 43.81 72.41 43.8 72.35 43.75 71.97 43.41 72.4 43.02 72.63 42.73Z" fill="#C69F7E"/><g><path d="M32.08 36.94C33.05 37.51 34.11 38.12 34.8 38.96 35.26 39.53 35.4 40.35 34.53 40.62 34.06 40.76 33.48 40.6 33.14 40.3 33.06 40.23 33.05 40.34 33.13 40.21 33.38 39.79 33.76 39.47 34.02 39.05 34.11 38.89 34.13 38.52 33.84 38.5 32.49 38.4 31.82 39.93 32.25 40.9 32.63 41.74 33.77 42.03 34.69 41.81 35.91 41.52 36.21 40.12 35.89 39.19 35.44 37.9 33.74 36.45 32.09 36.82 32.04 36.82 32.04 36.92 32.08 36.94L32.08 36.94Z" fill="#C69F7E"/></g><g><defs><path d="M37.16 17.19C38.69 14.93 40.32 12.73 43.1 11.56 43.61 11.35 44.35 11.15 45.1 11.09 44.12 10.59 43.29 9.87 42.9 9.07 42.9 9.06 42.9 9.05 42.91 9.06 43.88 9.41 44.71 9.94 45.68 10.3 45.85 10.36 46.02 10.42 46.2 10.47 44.97 9.74 44.23 8.77 44.09 7.5 44.09 7.47 44.12 7.41 44.16 7.45 44.78 8.27 45.86 8.9 46.79 9.39 47.08 9.55 47.41 9.67 47.75 9.8 47.25 8.71 47.05 7.38 47.58 6.3 47.59 6.28 47.62 6.28 47.63 6.3 48.04 7.34 48.08 8.43 48.63 9.44 48.7 9.57 48.78 9.69 48.86 9.81 49.78 9.08 50.79 8.56 51.87 7.9 55.63 5.62 68.07 5.9 73.64 7.8 81.86 10.5 84.46 14.72 87.75 19.25 90.77 23.42 91.74 31.07 91.74 31.07 91.74 31.07 87.59 26.31 84.35 25.81 84.78 26.14 85.17 26.46 85.48 26.71 86.48 27.51 87.89 28.84 87.87 30.09L87.87 30.12C87.87 30.13 87.87 30.15 87.86 30.16 87.85 30.18 87.85 30.19 87.84 30.21 87.8 30.32 87.69 30.43 87.56 30.33 87.36 30.18 87.22 29.99 87.09 29.79 84.75 28.14 82.34 26.83 79.56 25.8 77.93 25.19 76 25.11 74.16 24.9 74.47 25.17 74.74 25.43 74.94 25.63 76.16 26.8 77.46 28.44 77.13 30.09 77.03 30.57 76.47 30.51 76.39 30.06L76.39 30.05C73.67 27.77 70.92 26.08 67.19 25.31 64.22 24.7 61.15 24.46 58.16 24 55.15 23.54 52.07 22.76 49.88 21.17 49.12 23.04 50.74 34.98 45.08 38.01 41.17 40.09 35.67 33.83 35.54 33.56 33.29 28.5 34.09 21.75 37.16 17.19Z" id="SVGID_5_"/></defs><clipPath id="SVGID_6_"><use width="100%" height="100%" xlink:href="#SVGID_5_" overflow="visible"></use></clipPath><path d="M37.16 17.19C38.69 14.93 40.32 12.73 43.1 11.56 43.61 11.35 44.35 11.15 45.1 11.09 44.12 10.59 43.29 9.87 42.9 9.07 42.9 9.06 42.9 9.05 42.91 9.06 43.88 9.41 44.71 9.94 45.68 10.3 45.85 10.36 46.02 10.42 46.2 10.47 44.97 9.74 44.23 8.77 44.09 7.5 44.09 7.47 44.12 7.41 44.16 7.45 44.78 8.27 45.86 8.9 46.79 9.39 47.08 9.55 47.41 9.67 47.75 9.8 47.25 8.71 47.05 7.38 47.58 6.3 47.59 6.28 47.62 6.28 47.63 6.3 48.04 7.34 48.08 8.43 48.63 9.44 48.7 9.57 48.78 9.69 48.86 9.81 49.78 9.08 50.79 8.56 51.87 7.9 55.63 5.62 68.07 5.9 73.64 7.8 81.86 10.5 84.46 14.72 87.75 19.25 90.77 23.42 91.74 31.07 91.74 31.07 91.74 31.07 87.59 26.31 84.35 25.81 84.78 26.14 85.17 26.46 85.48 26.71 86.48 27.51 87.89 28.84 87.87 30.09L87.87 30.12C87.87 30.13 87.87 30.15 87.86 30.16 87.85 30.18 87.85 30.19 87.84 30.21 87.8 30.32 87.69 30.43 87.56 30.33 87.36 30.18 87.22 29.99 87.09 29.79 84.75 28.14 82.34 26.83 79.56 25.8 77.93 25.19 76 25.11 74.16 24.9 74.47 25.17 74.74 25.43 74.94 25.63 76.16 26.8 77.46 28.44 77.13 30.09 77.03 30.57 76.47 30.51 76.39 30.06L76.39 30.05C73.67 27.77 70.92 26.08 67.19 25.31 64.22 24.7 61.15 24.46 58.16 24 55.15 23.54 52.07 22.76 49.88 21.17 49.12 23.04 50.74 34.98 45.08 38.01 41.17 40.09 35.67 33.83 35.54 33.56 33.29 28.5 34.09 21.75 37.16 17.19Z" fill="#432918" clip-path="url(#SVGID_6_)"/><g clip-path="url(#SVGID_6_)"><path d="M44.29 10.78C46.75 12.7 52.62 10.35 55.17 9.37 59.52 7.71 63.82 4.82 62.08 0.21 62.04 0.12 62.17-0.1 62.27 0.05 67.94 8.39 45.9 15.13 44.24 10.85 44.23 10.83 44.24 10.74 44.29 10.78L44.29 10.78Z" fill="#2C2020"/></g><g clip-path="url(#SVGID_6_)"><path d="M46 12.98C52.06 15.95 57.7 17.78 64.72 17.61 68.37 17.52 71.97 16.83 75.45 15.95 78.89 15.07 81.23 13.11 83.9 11.17 84.17 10.98 84.29 11.45 84.18 11.6 80.63 16.69 72.92 17.98 66.61 18.52 59.46 19.13 51.16 17.83 45.97 13.11 45.94 13.07 45.93 12.94 46 12.98L46 12.98Z" fill="#2C2020"/></g><g clip-path="url(#SVGID_6_)"><path d="M87.31 16.78C82.81 22.14 72.85 23.4 65.78 22.96 57.17 22.43 48.11 18.03 44.17 11.05 44.1 10.92 44.16 10.45 44.41 10.65 47.89 13.53 50.24 16.82 54.52 18.96 57.96 20.69 61.9 21.5 65.8 21.84 69.81 22.18 73.87 21.74 77.69 20.75 81.25 19.83 83.97 17.94 87.19 16.46 87.35 16.4 87.37 16.71 87.31 16.78L87.31 16.78Z" fill="#2C2020"/></g><g clip-path="url(#SVGID_6_)"><path d="M78.96 7.8C75.74 12.09 69.14 13.81 63.63 14.61 57.97 15.43 48.87 15.84 44.31 12.04 44.17 11.93 44.14 11.44 44.44 11.54 47.47 12.51 49.95 13.53 53.22 13.85 56.12 14.13 59.05 14.04 61.93 13.77 68.45 13.15 73.72 11.03 78.79 7.54 78.95 7.43 79.03 7.71 78.96 7.8L78.96 7.8Z" fill="#2C2020"/></g><g clip-path="url(#SVGID_6_)"><path d="M44.83 11.04C48.44 13.32 43.07 18.93 41.1 20.54 36.92 23.95 29.38 25.56 23.96 23.67 23.7 23.58 23.78 23.12 24.05 23.09 28.33 22.67 32.4 22.84 36.46 21.36 39.73 20.17 46.76 15.28 44.61 11.4 44.53 11.26 44.59 10.88 44.83 11.04L44.83 11.04Z" fill="#2C2020"/></g><g clip-path="url(#SVGID_6_)"><path d="M45.42 11.43C49.97 13.74 47.19 20.98 45.41 23.94 42.78 28.31 36.43 33.92 30.24 33.09 30.04 33.06 29.93 32.65 30.13 32.57 32.24 31.77 34.46 31.5 36.52 30.51 38.88 29.38 40.9 27.45 42.61 25.68 46.24 21.92 48.72 16.03 45.38 11.49 45.37 11.48 45.37 11.41 45.42 11.43L45.42 11.43Z" fill="#2C2020"/></g><g clip-path="url(#SVGID_6_)"><path d="M44.29 11.01C46.1 12.64 43.19 14.98 41.81 15.91 38.79 17.95 33.9 19.27 30.64 16.84 30.52 16.75 30.52 16.32 30.76 16.37 33.48 16.91 35.67 17.1 38.35 16.29 40.5 15.64 44.48 13.47 44.16 11.13 44.16 11.08 44.21 10.93 44.29 11.01L44.29 11.01Z" fill="#2C2020"/></g></g></g></g></svg>