<svg width="194.42" height="193.72" viewBox="0 0 194.42 193.72" xmlns="http://www.w3.org/2000/svg" xmlns:xlink="http://www.w3.org/1999/xlink" xml:space="preserve" overflow="hidden"><defs></defs><g><g><path d="M76.75 29.69 86.9 185.92 129.01 146.8 121.4 29.69Z" stroke="#565656" stroke-width="1.3564" stroke-miterlimit="10" fill="#AABFCE"/><path d="M122.15 29.64 122.11 28.97 75.95 28.97 86.25 187.52 129.78 147.09Z" fill="#B0B0B0"/></g><g><path d="M12.47 29.72 103.02 114.36 177.28 29.72Z" stroke="#565656" stroke-width="1.3564" stroke-miterlimit="10" fill="#FFFFFF"/><line x1="12.47" y1="29.72" x2="177.28" y2="29.72" stroke="#565656" stroke-width="1.3564" stroke-miterlimit="10" fill="#FFFFFF"/></g><g><path d="M12.47 29.72 94.88 112.12 177.28 29.72Z" stroke="#565656" stroke-width="1.3564" stroke-miterlimit="10" fill="#AABFCE"/><g><g><line x1="12.47" y1="29.72" x2="13.63" y2="29.72" stroke="#565656" stroke-width="0.8665" stroke-miterlimit="10" fill="none"/><line x1="15.98" y1="29.72" x2="33.65" y2="29.72" stroke="#565656" stroke-width="0.8665" stroke-miterlimit="10" stroke-dasharray="2.355 2.355 2.355 2.355 2.355 2.355" fill="none"/><line x1="34.82" y1="29.72" x2="174.95" y2="29.72" stroke="#565656" stroke-width="0.8665" stroke-miterlimit="10" stroke-dasharray="2.355 2.355 2.355 2.355 2.355 2.355" fill="none"/><line x1="176.12" y1="29.72" x2="177.28" y2="29.72" stroke="#565656" stroke-width="0.8665" stroke-miterlimit="10" fill="none"/></g></g></g><g><path d="M72.55 29.72 69.24 192.16 113.9 151.48 117.2 29.72Z" stroke="#565656" stroke-width="1.3564" stroke-miterlimit="10" fill="#AABFCE"/></g><line x1="36.01" y1="51.29" x2="146.04" y2="60.95" stroke="#565656" stroke-width="0.8665" stroke-miterlimit="10" stroke-dasharray="2.3107 2.3107 2.3107 2.3107 2.3107" fill="none"/></g><g><path d="M91.97 0.93C68.58 49.03 95.04 83.4 95.04 83.4" stroke="#666666" stroke-width="0.8665" stroke-linecap="round" stroke-miterlimit="10" fill="none"/><path d="M93 2.86 92.12 0.53 89.56 1.28" stroke="#666666" stroke-width="0.8665" stroke-linecap="round" stroke-miterlimit="10" fill="none"/></g><line x1="132.67" y1="28.97" x2="160.55" y2="46.45" stroke="#565656" stroke-width="0.8665" stroke-miterlimit="10" stroke-dasharray="2.3107 2.3107 2.3107 2.3107 2.3107" fill="none"/><g><path d="M179.53 53.8C188.08 53.22 194.54 45.81 193.96 37.26 193.38 28.71 185.97 22.25 177.42 22.83" stroke="#666666" stroke-width="0.8665" stroke-linecap="round" stroke-miterlimit="10" fill="none"/><path d="M182.46 56.12 179.28 53.74 181.59 50.59" stroke="#666666" stroke-width="0.8665" stroke-linecap="round" stroke-miterlimit="10" fill="none"/></g><text fill="#565656" font-family="Asap-Regular" font-size="10.797" transform="translate(-0.000167847 28.9679)">A</text><text fill="#565656" font-family="Asap-Regular" font-size="10.797" transform="translate(175.937 42.159)">B</text></svg>