<svg width="206.22" height="129.83" viewBox="0 0 206.22 129.83" xmlns="http://www.w3.org/2000/svg" xmlns:xlink="http://www.w3.org/1999/xlink" xml:space="preserve" overflow="hidden"><defs></defs><g><path d="M104.49 46.38C104.49 46.38 114.55 45.65 124.97 43.09 135.39 40.53 134.94 46.34 136.22 45.97 137.5 45.6 148.01 40.16 171.78 29.38 195.55 18.59 207.25 9.08 206.16 2.14 206.16 2.14 136.31 29.75 135.21 30.12 134.11 30.49 129.54 29.57 128.81 29.21 128.08 28.85 108.51 37.07 102.3 41.1 96.08 45.1 104.49 46.38 104.49 46.38Z" fill="#B3C6D2" fill-opacity="0.08"/><path d="M108.33 52.23C108.95 51.11 115.46 48.21 120.58 40.34 125.7 32.48 128.26 27.36 128.08 26.63 127.9 25.9 142.34 14.74 163.19 7.25 184.04-0.25 199.39-1.89 206.16 2.13 206.16 2.13 165.2 26.45 154.05 34.49 142.9 42.54 133.94 49.3 127.54 51.68 121.14 54.06 109.99 58.63 109.99 58.63L108.33 52.23Z" fill="#FFFDF9" fill-opacity="0.08"/><path d="M96.99 40.9C91.36 44.18 68.47 39.25 53.11 31.57 37.75 23.89 19.65 32.67 5.93 50.22-7.78 67.78 4.28 91.91 21.84 88.07 39.39 84.23 105.22 49.12 105.22 49.12 109.06 44.74 102.62 37.61 96.99 40.9ZM45.97 69.42C29.51 76.55 18.54 79.29 16.35 69.42 14.16 59.55 24.55 38.85 44.33 43.09 59.69 46.38 62.43 62.29 45.97 69.42Z" fill="#643E72" fill-opacity="0.08"/><path d="M107.44 50.56C107.44 50.56 40.12 82.7 26.61 94.55 13.1 106.4 25.36 130.44 47.63 129.82 69.9 129.2 87.71 119.84 90.64 102.92 93.58 86 103.2 64.65 109.18 62.06 115.17 59.48 113.25 50.07 107.44 50.56ZM76.16 103.14C67.83 121.58 45.01 117.65 38.36 110.03 31.72 102.4 40.43 95.2 55.94 86.19 71.45 77.18 82.63 88.83 76.16 103.14Z" fill="#643E72" fill-opacity="0.08"/><circle cx="134.11" cy="36.69" r="3.47" fill="#86959D" fill-opacity="0.08"/><path d="M52.93 37.81C52.48 36.65 51.84 35.55 50.78 34.88 49.63 34.15 48.34 33.72 47.07 33.26 44.69 32.41 42.26 31.68 39.72 31.51 35.97 31.25 29.63 32.7 29.62 37.43 29.62 38.38 30.52 38.99 31.41 38.79 31.69 38.73 31.99 38.74 32.36 38.63 32.73 38.52 33.21 38.22 33.44 38.13 34.17 37.83 34.97 37.57 35.73 37.38 36.11 37.28 36.5 37.22 36.89 37.16 36.94 37.15 37.06 37.14 37.12 37.13 37.34 37.11 37.56 37.09 37.79 37.08 38.19 37.06 38.59 37.06 38.99 37.07 39.19 37.08 39.39 37.09 39.59 37.11 39.64 37.11 39.89 37.15 39.98 37.16 42.03 37.51 43.99 38.24 45.91 38.99 47.06 39.44 48.18 39.87 49.43 39.94 50.46 40 51.67 39.52 52.51 38.9 52.81 38.66 53.1 38.23 52.93 37.81Z" fill="#7B5A8B" fill-opacity="0.08"/><path d="M62.08 41.45C61.99 41.2 61.89 40.97 61.73 40.76 61.71 40.73 61.69 40.71 61.67 40.69 61.57 40.51 61.44 40.35 61.31 40.2 61.14 40.02 60.93 39.88 60.71 39.76 60.64 39.72 60.56 39.67 60.49 39.63 60.33 39.54 60.09 39.44 59.92 39.39 59.71 39.33 59.47 39.32 59.26 39.3 59.09 39.28 58.93 39.26 58.76 39.24 58.67 39.23 58.57 39.21 58.48 39.21 58.22 39.19 57.94 39.27 57.7 39.37 57.54 39.44 57.4 39.52 57.27 39.62 57.26 39.63 57.24 39.63 57.23 39.64 56.91 39.78 56.58 40.25 56.51 40.58 56.44 40.88 56.47 41.16 56.56 41.44 56.57 41.51 56.57 41.59 56.59 41.66 56.68 42.07 56.96 42.42 57.29 42.67 57.42 42.77 57.54 42.85 57.68 42.94 57.84 43.04 58.01 43.14 58.17 43.24 58.21 43.26 58.24 43.28 58.28 43.3 58.42 43.37 58.7 43.51 58.85 43.53 58.95 43.55 59.05 43.56 59.14 43.57 59.18 43.58 59.23 43.58 59.27 43.59 59.45 43.61 59.63 43.64 59.82 43.66 60 43.64 60.18 43.61 60.37 43.59 60.5 43.57 60.63 43.52 60.75 43.46 60.97 43.42 61.18 43.34 61.37 43.22 61.66 43.03 61.88 42.79 62.02 42.46 62.13 42.17 62.19 41.77 62.08 41.45Z" fill="#7B5A8B" fill-opacity="0.08"/><path d="M80.8 114.45C80.91 114.16 81 113.87 80.99 113.55 80.98 113.2 80.9 112.91 80.78 112.61 80.76 112.56 80.75 112.51 80.72 112.46 80.71 112.43 80.7 112.41 80.69 112.38 80.7 112.4 80.7 112.42 80.71 112.44 80.46 111.92 80 111.58 79.33 111.54 79.42 111.55 79.51 111.56 79.6 111.56 79.57 111.56 79.55 111.55 79.52 111.55 79.55 111.39 78.7 111.5 78.58 111.52 78.51 111.53 78.31 111.58 78.13 111.64 78.01 111.66 77.9 111.68 77.83 111.7 77.61 111.71 77.28 111.82 77.13 111.87 76.52 112.08 76.07 112.46 75.58 112.86 75.52 112.9 75.47 112.95 75.41 112.99 75.41 112.99 75.41 112.99 75.41 112.99 75.08 113.23 74.75 113.48 74.43 113.73 74.23 113.89 74.04 114.05 73.85 114.21 73.78 114.27 73.71 114.32 73.65 114.37 72.76 115.02 71.86 115.62 71.01 116.34 70.83 116.5 70.64 116.64 70.46 116.8 70.44 116.81 70.44 116.82 70.43 116.82 70.4 116.84 70.38 116.85 70.35 116.88 70.11 117.07 69.92 117.29 69.76 117.54 69.68 117.59 69.6 117.67 69.53 117.73 69.35 117.9 69.23 118.07 69.12 118.27 69 118.41 68.9 118.57 68.84 118.77 68.83 118.8 68.84 118.8 68.83 118.82 68.81 118.83 68.79 118.83 68.74 118.88 68.44 119.15 68.58 119.74 68.99 119.82 69.04 119.83 69.09 119.84 69.13 119.85 69.12 119.84 69.12 119.84 69.11 119.83 69.25 119.9 69.35 120.03 69.5 120.09 69.64 120.16 69.68 120.18 69.61 120.13 69.49 120.04 69.59 120.08 69.91 120.25 70.08 120.31 70.25 120.34 70.43 120.35 70.53 120.36 70.65 120.36 70.75 120.36 70.78 120.36 70.79 120.36 70.81 120.36 71.1 120.52 71.54 120.48 71.85 120.44 72.48 120.36 73.11 120.27 73.74 120.15 74.39 120.02 75.01 119.69 75.61 119.41 76.68 118.9 77.68 118.32 78.61 117.58 79 117.27 79.41 116.94 79.77 116.59 79.99 116.37 80.2 116.1 80.35 115.83 80.44 115.61 80.53 115.4 80.62 115.18 80.63 115.11 80.64 115.04 80.65 114.97 80.68 114.9 80.71 114.83 80.74 114.76 80.77 114.64 80.78 114.55 80.8 114.45Z" fill="#7B5A8B" fill-opacity="0.08"/></g></svg>