<svg width="89.47" height="83.33" viewBox="0 0 89.47 83.33" xmlns="http://www.w3.org/2000/svg" xmlns:xlink="http://www.w3.org/1999/xlink" xml:space="preserve" overflow="hidden"><defs></defs><g><g><g><path d="M88.97 11.37 88.97 47.1 53.23 82.83 17.5 47.1 17.5 28.37 17.5 11.37Z" fill="#F3D5AA"/></g><g><path d="M17.5 11.37 17.5 28.37 0.5 11.37Z" fill="#F3D5AA"/></g><g><path d="M17.5 47.6C17.32 47.6 17.14 47.5 17.05 47.32 16.93 47.07 17.03 46.77 17.27 46.65L18.97 45.8C19.22 45.68 19.52 45.78 19.64 46.02 19.76 46.27 19.66 46.57 19.42 46.69L17.72 47.54C17.65 47.58 17.57 47.6 17.5 47.6ZM21.89 45.41C21.71 45.41 21.53 45.31 21.44 45.13 21.32 44.88 21.42 44.58 21.66 44.46L24.34 43.12C24.59 43 24.89 43.1 25.01 43.34 25.13 43.59 25.03 43.89 24.79 44.01L22.11 45.35C22.04 45.39 21.96 45.41 21.89 45.41ZM27.25 42.73C27.07 42.73 26.89 42.63 26.8 42.45 26.68 42.2 26.78 41.9 27.02 41.78L29.7 40.44C29.95 40.32 30.25 40.42 30.37 40.66 30.49 40.91 30.39 41.21 30.15 41.33L27.47 42.67C27.4 42.71 27.33 42.73 27.25 42.73ZM32.62 40.04C32.44 40.04 32.26 39.94 32.17 39.76 32.05 39.51 32.15 39.21 32.39 39.09L35.07 37.75C35.32 37.63 35.62 37.73 35.74 37.97 35.86 38.22 35.76 38.52 35.52 38.64L32.84 39.98C32.77 40.02 32.69 40.04 32.62 40.04ZM37.99 37.36C37.81 37.36 37.63 37.26 37.54 37.08 37.42 36.83 37.52 36.53 37.76 36.41L40.44 35.07C40.68 34.95 40.99 35.05 41.11 35.29 41.23 35.54 41.13 35.84 40.89 35.96L38.21 37.3C38.14 37.34 38.06 37.36 37.99 37.36ZM43.35 34.68C43.17 34.68 42.99 34.58 42.9 34.4 42.78 34.15 42.88 33.85 43.12 33.73L45.8 32.39C46.05 32.27 46.35 32.37 46.47 32.61 46.59 32.86 46.49 33.16 46.25 33.28L43.57 34.62C43.5 34.66 43.43 34.68 43.35 34.68ZM48.72 31.99C48.54 31.99 48.36 31.89 48.27 31.71 48.15 31.46 48.25 31.16 48.49 31.04L51.17 29.7C51.42 29.58 51.72 29.68 51.84 29.92 51.96 30.17 51.86 30.47 51.62 30.59L48.94 31.93C48.87 31.98 48.79 31.99 48.72 31.99ZM54.09 29.31C53.91 29.31 53.73 29.21 53.64 29.03 53.52 28.78 53.62 28.48 53.86 28.36L56.54 27.02C56.79 26.9 57.09 27 57.21 27.24 57.33 27.49 57.23 27.79 56.99 27.91L54.31 29.25C54.24 29.29 54.16 29.31 54.09 29.31ZM59.45 26.63C59.27 26.63 59.09 26.53 59 26.35 58.88 26.1 58.98 25.8 59.22 25.68L61.9 24.34C62.14 24.22 62.45 24.32 62.57 24.56 62.69 24.81 62.59 25.11 62.35 25.23L59.67 26.57C59.61 26.61 59.53 26.63 59.45 26.63ZM64.82 23.94C64.64 23.94 64.46 23.84 64.37 23.66 64.25 23.41 64.35 23.11 64.59 22.99L67.27 21.65C67.52 21.53 67.82 21.63 67.94 21.87 68.06 22.12 67.96 22.42 67.72 22.54L65.04 23.88C64.97 23.93 64.89 23.94 64.82 23.94ZM70.19 21.26C70.01 21.26 69.83 21.16 69.74 20.98 69.62 20.73 69.72 20.43 69.96 20.31L72.64 18.97C72.89 18.85 73.19 18.95 73.31 19.19 73.43 19.44 73.33 19.74 73.09 19.86L70.41 21.2C70.34 21.24 70.26 21.26 70.19 21.26ZM75.55 18.58C75.37 18.58 75.19 18.48 75.1 18.3 74.98 18.05 75.08 17.75 75.32 17.63L78 16.29C78.25 16.17 78.55 16.27 78.67 16.51 78.79 16.76 78.69 17.06 78.45 17.18L75.77 18.52C75.7 18.56 75.63 18.58 75.55 18.58ZM80.92 15.9C80.74 15.9 80.56 15.8 80.47 15.62 80.35 15.37 80.45 15.07 80.69 14.95L83.37 13.61C83.62 13.49 83.92 13.59 84.04 13.83 84.16 14.08 84.06 14.38 83.82 14.5L81.14 15.84C81.07 15.88 80.99 15.9 80.92 15.9ZM86.29 13.21C86.11 13.21 85.93 13.11 85.84 12.93 85.72 12.68 85.82 12.38 86.06 12.26L88.74 10.92C88.99 10.8 89.29 10.9 89.41 11.14 89.53 11.39 89.43 11.69 89.19 11.81L86.51 13.15C86.44 13.19 86.36 13.21 86.29 13.21Z" fill="#7A7A9A"/></g><g><path d="M17.5 28.87C17.37 28.87 17.24 28.82 17.15 28.72L0.15 11.72C0 11.58-0.04 11.37 0.04 11.18 0.12 10.99 0.3 10.87 0.5 10.87L17.5 10.87C17.78 10.87 18 11.09 18 11.37 18 11.65 17.78 11.87 17.5 11.87L1.71 11.87 17.86 28.02C18.06 28.22 18.06 28.53 17.86 28.73 17.76 28.82 17.63 28.87 17.5 28.87Z" fill="#292764"/></g><g><path d="M53.23 83.33C53.1 83.33 52.97 83.28 52.88 83.18L17.15 47.45C17.05 47.36 17 47.23 17 47.1L17 11.37C17 11.09 17.22 10.87 17.5 10.87L88.97 10.87C89.25 10.87 89.47 11.09 89.47 11.37L89.47 47.1C89.47 47.23 89.42 47.36 89.32 47.45L53.58 83.18C53.49 83.28 53.36 83.33 53.23 83.33ZM18 46.89 53.23 82.12 88.47 46.89 88.47 11.87 18 11.87 18 46.89Z" fill="#292764"/></g></g><g><g><path d="M35.85 22.52C35.44 22.52 35.1 22.18 35.1 21.77L35.1 9.66C35.1 4.33 39.44 0 44.76 0 45.17 0 45.51 0.34 45.51 0.75 45.51 1.16 45.17 1.5 44.76 1.5 40.26 1.5 36.6 5.16 36.6 9.66L36.6 21.77C36.6 22.19 36.27 22.52 35.85 22.52Z" fill="#292764"/></g><g><path d="M35.8 22.74C35.61 22.74 35.42 22.67 35.27 22.52L30.6 17.85C30.31 17.56 30.31 17.08 30.6 16.79 30.89 16.5 31.37 16.5 31.66 16.79L35.8 20.93 40.05 16.68C40.34 16.39 40.82 16.39 41.11 16.68 41.4 16.97 41.4 17.45 41.11 17.74L36.33 22.52C36.18 22.67 35.99 22.74 35.8 22.74Z" fill="#292764"/></g></g></g></svg>