<svg width="43.37" height="95.29" viewBox="0 0 43.37 95.29" xmlns="http://www.w3.org/2000/svg" xmlns:xlink="http://www.w3.org/1999/xlink" xml:space="preserve" overflow="hidden"><defs></defs><g><g><path d="M0.5 58.03 42.87 15.64 42.86 29.3 42.86 94.79 42.81 94.79 3.79 65.98Z" fill="#BDF9F6"/></g><g><path d="M42.91 94.79 3.89 65.98 3.84 65.98 3.83 0.49 3.84 0.49Z" fill="#BDF9F6"/></g><g><g><path d="M11.28 90.38C11.09 90.38 10.9 90.31 10.75 90.16 5.75 85.16 5.75 77.01 10.75 72.01L22.37 60.39C22.66 60.1 23.14 60.1 23.43 60.39 23.72 60.68 23.72 61.16 23.43 61.45L11.81 73.06C7.39 77.48 7.39 84.67 11.81 89.09 12.1 89.38 12.1 89.86 11.81 90.15 11.66 90.3 11.47 90.38 11.28 90.38Z" fill="#292764"/></g><g><path d="M23.05 70.57C22.64 70.57 22.3 70.23 22.3 69.82L22.3 61.41 14.09 61.41C13.68 61.41 13.34 61.07 13.34 60.66 13.34 60.25 13.68 59.91 14.09 59.91L23.05 59.91C23.46 59.91 23.8 60.25 23.8 60.66L23.8 69.82C23.8 70.24 23.46 70.57 23.05 70.57Z" fill="#292764"/></g></g><g><path d="M42.86 95.29C42.75 95.29 42.6 95.26 42.51 95.19L3.49 66.38C3.42 66.33 3.36 66.25 3.33 66.17L0.04 58.22C-0.04 58.03 0.01 57.82 0.15 57.68L42.52 15.29C42.66 15.15 42.88 15.1 43.06 15.18 43.25 15.26 43.37 15.44 43.37 15.64L43.36 94.79C43.36 95.06 43.14 95.29 42.86 95.29ZM4.2 65.66 42.36 93.84 42.37 16.85 1.09 58.14 4.2 65.66Z" fill="#292764"/></g><g><path d="M3.84 55.19C3.78 55.19 3.71 55.18 3.65 55.15 3.46 55.07 3.34 54.89 3.34 54.69L3.33 0.49C3.33 0.36 3.38 0.23 3.48 0.14 3.71-0.1 4.17-0.01 4.3 0.3L20.17 38.62C20.25 38.81 20.2 39.02 20.06 39.16L4.19 55.04C4.1 55.14 3.97 55.19 3.84 55.19ZM4.33 2.98 4.34 53.48 19.12 38.69 4.33 2.98Z" fill="#292764"/></g></g></svg>