<svg width="76.2" height="85.86" viewBox="0 0 76.2 85.86" xmlns="http://www.w3.org/2000/svg" xmlns:xlink="http://www.w3.org/1999/xlink" xml:space="preserve" overflow="hidden"><defs></defs><g><g><g><path d="M75.71 12.55 63.22 25.04 52.19 36.07 51.83 36.43 51.82 36.42 57.47 30.76 63.21 25.01 75.69 12.53Z" fill="#BDF9F6"/></g><g><path d="M75.69 12.53 63.21 25.01 57.47 30.76 51.82 36.42 51.83 36.43 38.1 50.25 46.39 33.68 56.96 12.51 75.67 12.51Z" fill="#BDF9F6"/></g><g><path d="M74.71 48.01 74.72 48.03 65.49 57.27 65.49 43.7 65.63 43.41 65.69 43.44Z" fill="#FFFFFF"/></g><g><path d="M74.7 47.99 74.71 48.01 65.69 43.44 65.63 43.41 51.83 36.43 52.19 36.07 63.22 25.04Z" fill="#BDF9F6"/></g><g><path d="M51.83 36.43 65.63 43.41 65.49 43.7 38.11 71.07 38.11 71.37 37.93 71.27 37.92 71.27 37.9 71.3 10.3 43.71 10.25 43.6 10.34 43.54 24.38 36.44 24.39 36.43 38.1 50.25Z" fill="#BDF9F6"/></g><g><path d="M65.5 64.54 65.5 85.2 65.49 85.2 65.49 85.21 57.21 81.03 51.79 78.28 51.78 78.28 51.77 78.27 46.93 75.82 38.11 71.37 38.11 71.07 65.49 43.7 65.49 57.27 65.49 64.54Z" fill="#BDF9F6"/></g><g><path d="M56.96 12.51 46.39 33.68 38.1 50.25 38.1 12.51Z" fill="#BDF9F6"/></g><g><path d="M46.93 75.82 38.11 84.64 38.11 71.37Z" fill="#FFFFFF"/></g><g><path d="M38.11 71.37 38.11 84.64 29.21 75.73 37.92 71.32 37.9 71.3 37.92 71.27 37.93 71.27Z" fill="#FFFFFF"/></g><g><path d="M38.1 12.51 38.1 50.25 29.84 33.68 19.24 12.51Z" fill="#BDF9F6"/></g><g><path d="M29.84 33.68 38.1 50.25 29.83 33.69Z" fill="#BDF9F6"/></g><g><path d="M29.83 33.69 38.1 50.25 24.39 36.43 24.42 36.42 0.52 12.52 0.54 12.51 19.24 12.51Z" fill="#BDF9F6"/></g><g><path d="M37.92 71.32 29.21 75.73 23.88 78.42 23.84 78.45 18.42 81.19 10.16 85.36 10.16 64.7 10.15 64.7 10.15 56.68 10.15 43.86 10.3 43.71 37.9 71.3Z" fill="#BDF9F6"/></g><g><path d="M19.24 12.51 29.84 33.68 29.83 33.69Z" fill="#BDF9F6"/></g><g><path d="M24.42 36.42 24.39 36.43 24.38 36.44 13 25.07 12.99 25.05 0.5 12.55 0.52 12.52Z" fill="#BDF9F6"/></g><g><path d="M24.38 36.44 10.34 43.54 10.25 43.6 1.51 48.01 12.99 25.05 13 25.07Z" fill="#BDF9F6"/></g><g><path d="M10.25 43.6 10.3 43.71 10.15 43.86 10.15 56.68 1.5 48.02 1.51 48.01Z" fill="#FFFFFF"/></g><g><path d="M63.22 25.54 60.22 25.54C59.94 25.54 59.72 25.32 59.72 25.04 59.72 24.76 59.94 24.54 60.22 24.54L63.22 24.54C63.5 24.54 63.72 24.76 63.72 25.04 63.72 25.32 63.5 25.54 63.22 25.54ZM57.22 25.54 54.22 25.54C53.94 25.54 53.72 25.32 53.72 25.04 53.72 24.76 53.94 24.54 54.22 24.54L57.22 24.54C57.5 24.54 57.72 24.76 57.72 25.04 57.72 25.32 57.5 25.54 57.22 25.54ZM51.22 25.54 48.22 25.54C47.94 25.54 47.72 25.32 47.72 25.04 47.72 24.76 47.94 24.54 48.22 24.54L51.22 24.54C51.5 24.54 51.72 24.76 51.72 25.04 51.72 25.32 51.5 25.54 51.22 25.54ZM45.22 25.54 42.22 25.54C41.94 25.54 41.72 25.32 41.72 25.04 41.72 24.76 41.94 24.54 42.22 24.54L45.22 24.54C45.5 24.54 45.72 24.76 45.72 25.04 45.72 25.32 45.5 25.54 45.22 25.54ZM39.22 25.54 36.22 25.54C35.94 25.54 35.72 25.32 35.72 25.04 35.72 24.76 35.94 24.54 36.22 24.54L39.22 24.54C39.5 24.54 39.72 24.76 39.72 25.04 39.72 25.32 39.5 25.54 39.22 25.54ZM33.22 25.54 30.22 25.54C29.94 25.54 29.72 25.32 29.72 25.04 29.72 24.76 29.94 24.54 30.22 24.54L33.22 24.54C33.5 24.54 33.72 24.76 33.72 25.04 33.72 25.32 33.5 25.54 33.22 25.54ZM27.22 25.54 24.22 25.54C23.94 25.54 23.72 25.32 23.72 25.04 23.72 24.76 23.94 24.54 24.22 24.54L27.22 24.54C27.5 24.54 27.72 24.76 27.72 25.04 27.72 25.32 27.5 25.54 27.22 25.54ZM21.22 25.54 18.22 25.54C17.94 25.54 17.72 25.32 17.72 25.04 17.72 24.76 17.94 24.54 18.22 24.54L21.22 24.54C21.5 24.54 21.72 24.76 21.72 25.04 21.72 25.32 21.5 25.54 21.22 25.54ZM15.22 25.54 12.99 25.54C12.71 25.54 12.49 25.32 12.49 25.04 12.49 24.76 12.71 24.54 12.99 24.54L15.22 24.54C15.5 24.54 15.72 24.76 15.72 25.04 15.72 25.32 15.5 25.54 15.22 25.54Z" fill="#7A7A9A"/></g><g><path d="M51.83 36.93C51.7 36.93 51.57 36.88 51.48 36.78 51.28 36.58 51.27 36.26 51.47 36.06L75.34 12.17C75.54 11.97 75.85 11.97 76.05 12.17 76.25 12.37 76.27 12.7 76.07 12.9L52.19 36.79C52.09 36.88 51.96 36.93 51.83 36.93Z" fill="#292764"/></g><g><path d="M38.1 50.75C38 50.75 37.9 50.72 37.81 50.66 37.61 50.52 37.54 50.25 37.65 50.03L56.51 12.29C56.59 12.12 56.77 12.01 56.96 12.01L75.67 12.01C75.8 12.01 75.93 12.06 76.02 12.15 76.12 12.24 76.18 12.38 76.18 12.52 76.18 12.65 76.14 12.79 76.04 12.89L52.26 36.69C52.24 36.72 52.22 36.76 52.19 36.78L38.46 50.61C38.36 50.7 38.23 50.75 38.1 50.75ZM57.27 13.01 39.94 47.69 51.4 36.17C51.42 36.13 51.44 36.1 51.47 36.07L74.51 13.01 57.27 13.01Z" fill="#292764"/></g><g><path d="M65.49 57.77C65.43 57.77 65.36 57.76 65.3 57.73 65.11 57.65 64.99 57.47 64.99 57.27L64.99 43.7C64.99 43.62 65.01 43.55 65.04 43.48L65.18 43.2C65.3 42.97 65.57 42.86 65.81 42.96 65.82 42.97 65.89 42.99 65.91 43L74.94 47.57C75.04 47.62 75.11 47.7 75.16 47.79L75.17 47.81C75.27 48 75.23 48.23 75.08 48.39L65.85 57.62C65.75 57.71 65.62 57.77 65.49 57.77ZM65.99 44.15 65.99 56.06 73.89 48.16 65.99 44.15Z" fill="#292764"/></g><g><path d="M74.71 48.51C74.63 48.51 74.56 48.49 74.48 48.46L51.61 36.88C51.47 36.81 51.37 36.67 51.34 36.51 51.31 36.35 51.37 36.19 51.48 36.08L62.87 24.69C62.98 24.58 63.14 24.52 63.3 24.55 63.46 24.58 63.6 24.68 63.67 24.82L75.15 47.78C75.25 47.97 75.22 48.21 75.06 48.36 74.97 48.46 74.84 48.51 74.71 48.51ZM52.68 36.3 73.59 46.88 63.09 25.89 52.68 36.3Z" fill="#292764"/></g><g><path d="M38.11 71.87C38.03 71.87 37.95 71.85 37.88 71.81L37.83 71.78C37.72 71.77 37.62 71.73 37.54 71.65L9.95 44.06C9.91 44.02 9.88 43.98 9.86 43.93L9.8 43.83C9.68 43.59 9.77 43.3 10 43.17L10.1 43.12 24.13 36.02C24.2 35.98 24.29 35.95 24.38 35.95 24.51 35.94 24.65 35.99 24.75 36.09L38.1 49.54 51.48 36.08C51.63 35.93 51.87 35.89 52.06 35.99L65.86 42.97C66.11 43.09 66.2 43.39 66.08 43.64L65.94 43.92C65.92 43.97 65.88 44.01 65.85 44.05L38.61 71.28 38.61 71.37C38.61 71.54 38.52 71.71 38.37 71.8 38.29 71.84 38.2 71.87 38.11 71.87ZM11.05 43.75 37.89 70.59 64.88 43.6 51.93 37.05 38.46 50.61C38.37 50.7 38.24 50.76 38.11 50.76L38.11 50.76C37.98 50.76 37.85 50.71 37.76 50.61L24.3 37.05 11.05 43.75Z" fill="#292764"/></g><g><path d="M65.48 85.71C65.41 85.71 65.33 85.69 65.26 85.66L51.6 78.75C51.56 78.74 51.53 78.72 51.5 78.7L37.89 71.82C37.72 71.74 37.62 71.56 37.62 71.37L37.62 71.08C37.62 70.95 37.67 70.82 37.77 70.73L65.15 43.35C65.29 43.21 65.51 43.17 65.69 43.24 65.88 43.32 66 43.5 66 43.7L66 64.44C66 64.47 66 64.5 66 64.54L66 85.2C66 85.4 65.88 85.57 65.72 85.65 65.64 85.69 65.56 85.71 65.48 85.71ZM52 77.83C52.01 77.83 52.01 77.83 52.02 77.84L65 84.4 65 64.64C64.99 64.61 64.99 64.57 64.99 64.54L64.99 44.9 38.76 71.13 52 77.83C52 77.83 52 77.83 52 77.83Z" fill="#292764"/></g><g><path d="M38.1 50.75C38.06 50.75 38.02 50.75 37.99 50.74 37.76 50.69 37.6 50.49 37.6 50.25L37.6 12.51C37.6 12.23 37.82 12.01 38.1 12.01L56.96 12.01C57.13 12.01 57.29 12.1 57.39 12.25 57.48 12.4 57.49 12.58 57.41 12.74L38.55 50.48C38.46 50.65 38.29 50.75 38.1 50.75ZM38.6 13.01 38.6 48.14 56.15 13.01 38.6 13.01Z" fill="#292764"/></g><g><path d="M38.11 85.14C38.05 85.14 37.98 85.13 37.92 85.1 37.73 85.02 37.61 84.84 37.61 84.64L37.61 71.37C37.61 71.2 37.7 71.04 37.85 70.94 38 70.85 38.18 70.84 38.34 70.92L47.16 75.37C47.3 75.44 47.4 75.58 47.43 75.74 47.46 75.9 47.4 76.06 47.29 76.17L38.47 85C38.37 85.09 38.24 85.14 38.11 85.14ZM38.61 72.18 38.61 83.43 46.09 75.95 38.61 72.18Z" fill="#292764"/></g><g><path d="M38.11 85.14C37.98 85.14 37.85 85.09 37.76 84.99L28.85 76.08C28.74 75.97 28.68 75.81 28.71 75.65 28.74 75.49 28.84 75.36 28.98 75.28L37.53 70.95C37.69 70.78 37.97 70.72 38.16 70.82L38.35 70.92C38.51 71.01 38.62 71.18 38.62 71.36L38.62 84.63C38.62 84.83 38.5 85.01 38.31 85.09 38.24 85.13 38.18 85.14 38.11 85.14ZM30.05 75.87 37.62 83.44 37.62 72.04 30.05 75.87Z" fill="#292764"/></g><g><path d="M38.1 50.75C37.91 50.75 37.74 50.65 37.65 50.47L18.79 12.73C18.71 12.57 18.72 12.39 18.81 12.24 18.9 12.09 19.06 12 19.24 12L38.1 12C38.38 12 38.6 12.22 38.6 12.5L38.6 50.24C38.6 50.47 38.44 50.67 38.21 50.73 38.18 50.75 38.14 50.75 38.1 50.75ZM20.05 13.01 37.6 48.13 37.6 13.01 20.05 13.01Z" fill="#292764"/></g><g><path d="M38.1 50.75C37.92 50.75 37.74 50.65 37.65 50.47L37.65 50.46 29.38 33.9C29.28 33.71 29.32 33.48 29.47 33.32 29.58 33.21 29.75 33.15 29.91 33.17 30.07 33.2 30.21 33.29 30.28 33.44L38.55 50.01C38.67 50.26 38.57 50.56 38.33 50.68 38.25 50.74 38.18 50.75 38.1 50.75Z" fill="#292764"/></g><g><path d="M38.1 50.75C37.97 50.75 37.84 50.7 37.75 50.6L24.04 36.79C24 36.75 23.97 36.7 23.94 36.65L0.17 12.87C0.05 12.76 0 12.6 0.03 12.44 0.06 12.28 0.16 12.15 0.3 12.07 0.37 12.04 0.47 12.01 0.55 12.01L19.25 12.01C19.44 12.01 19.61 12.12 19.7 12.29L30.28 33.47 30.28 33.47 38.56 50.03C38.67 50.25 38.6 50.52 38.4 50.66 38.31 50.72 38.2 50.75 38.1 50.75ZM24.88 36.21 36.26 47.68 18.93 13.01 1.72 13.01 24.78 36.07C24.82 36.11 24.85 36.16 24.88 36.21Z" fill="#292764"/></g><g><path d="M10.16 85.86C10.07 85.86 9.98 85.84 9.9 85.79 9.75 85.7 9.66 85.54 9.66 85.36L9.66 64.8C9.65 64.77 9.65 64.73 9.65 64.7L9.65 43.86C9.65 43.73 9.7 43.6 9.8 43.51L9.95 43.36C10.14 43.17 10.47 43.17 10.66 43.36L38.25 70.95C38.36 71.06 38.43 71.24 38.4 71.39 38.37 71.55 38.29 71.7 38.14 71.77L10.38 85.81C10.31 85.84 10.24 85.86 10.16 85.86ZM10.65 64.6C10.66 64.63 10.66 64.67 10.66 64.7L10.66 84.55 37.08 71.19 10.65 44.76 10.65 64.6Z" fill="#292764"/></g><g><path d="M29.83 34.18C29.81 34.18 29.78 34.18 29.75 34.17 29.59 34.14 29.45 34.05 29.38 33.91L18.79 12.73C18.67 12.48 18.77 12.18 19.01 12.06 19.26 11.94 19.56 12.04 19.68 12.28L30.28 33.45C30.38 33.64 30.34 33.87 30.19 34.03 30.09 34.13 29.96 34.18 29.83 34.18Z" fill="#292764"/></g><g><path d="M24.39 36.94C24.26 36.94 24.13 36.89 24.03 36.8L0.15 12.91C-0.02 12.74-0.04 12.47 0.09 12.28 0.17 12.16 0.32 12.06 0.47 12.05 0.62 12.04 0.78 12.07 0.88 12.18L24.78 36.08C24.9 36.2 24.95 36.38 24.91 36.55 24.87 36.72 24.75 36.85 24.59 36.91 24.53 36.94 24.46 36.95 24.4 36.95 24.39 36.94 24.39 36.94 24.39 36.94Z" fill="#292764"/></g><g><path d="M1.51 48.51C1.38 48.51 1.25 48.46 1.16 48.36 1.01 48.21 0.97 47.97 1.07 47.78L12.55 24.82C12.62 24.68 12.76 24.58 12.92 24.55 13.08 24.52 13.24 24.58 13.35 24.69L24.74 36.08C24.85 36.19 24.91 36.35 24.88 36.51 24.85 36.67 24.75 36.8 24.61 36.88L1.74 48.46C1.67 48.49 1.59 48.51 1.51 48.51ZM13.13 25.9 2.64 46.88 23.54 36.31 13.13 25.9Z" fill="#292764"/></g><g><path d="M10.15 57.18C10.02 57.18 9.89 57.13 9.8 57.03L1.15 48.37C0.96 48.17 0.96 47.86 1.15 47.66 1.19 47.62 1.24 47.58 1.29 47.56L10.02 43.15C10.14 43.09 10.28 43.08 10.4 43.12 10.53 43.16 10.63 43.25 10.69 43.37L10.74 43.48C10.84 43.67 10.8 43.91 10.65 44.06L10.64 44.07 10.64 56.68C10.64 56.88 10.52 57.06 10.33 57.14 10.28 57.17 10.21 57.18 10.15 57.18ZM2.34 48.15 9.65 55.47 9.65 44.46 2.34 48.15Z" fill="#292764"/></g></g><g><g><path d="M24.88 69.26C24.63 69.26 24.38 69.17 24.18 68.98 23.78 68.6 23.77 67.96 24.16 67.57L31.13 60.39C32.31 59.18 32.94 57.57 32.92 55.86 32.89 54.16 32.21 52.57 31 51.39 29.79 50.21 28.18 49.57 26.47 49.6 24.76 49.62 23.18 50.31 22 51.52 21.62 51.92 20.98 51.93 20.59 51.54 20.19 51.16 20.18 50.52 20.57 50.13 22.12 48.53 24.21 47.63 26.45 47.6 28.68 47.52 30.8 48.4 32.4 49.95 34 51.5 34.89 53.59 34.93 55.83 34.96 58.07 34.13 60.18 32.58 61.78L25.61 68.96C25.4 69.16 25.14 69.26 24.88 69.26Z" fill="#292764"/></g><g><path d="M24.79 69.42C24.53 69.42 24.28 69.32 24.09 69.14 23.9 68.96 23.79 68.7 23.79 68.44L23.71 62.86C23.7 62.31 24.14 61.85 24.7 61.85 24.7 61.85 24.71 61.85 24.72 61.85 25.27 61.85 25.71 62.29 25.72 62.84L25.79 67.42 30.25 67.35C30.25 67.35 30.26 67.35 30.27 67.35 30.82 67.35 31.26 67.79 31.27 68.34 31.28 68.89 30.84 69.35 30.28 69.35L24.82 69.43C24.8 69.42 24.79 69.42 24.79 69.42Z" fill="#292764"/></g></g><g><g><path d="M52.07 69.19C51.82 69.19 51.57 69.1 51.37 68.91L44.19 61.94C40.88 58.73 40.8 53.42 44.02 50.11 45.57 48.51 47.66 47.61 49.9 47.58 52.1 47.52 54.25 48.38 55.85 49.93 56.25 50.31 56.26 50.95 55.87 51.34 55.49 51.74 54.85 51.75 54.46 51.36 53.25 50.18 51.64 49.52 49.93 49.57 48.22 49.59 46.64 50.28 45.46 51.49 43.02 54.01 43.08 58.04 45.59 60.49L52.77 67.46C53.17 67.84 53.18 68.48 52.79 68.87 52.59 69.08 52.33 69.19 52.07 69.19Z" fill="#292764"/></g><g><path d="M46.71 69.42C46.16 69.42 45.72 68.98 45.71 68.43 45.7 67.88 46.14 67.42 46.7 67.42L51.16 67.35 51.09 62.77C51.08 62.22 51.52 61.76 52.08 61.76 52.6 61.79 53.09 62.19 53.09 62.75L53.17 68.33C53.18 68.88 52.74 69.34 52.18 69.34L46.72 69.42C46.72 69.42 46.71 69.42 46.71 69.42Z" fill="#292764"/></g></g><g><g><path d="M45.85 21.79C45.85 21.79 45.85 21.79 45.85 21.79 45.29 21.79 44.85 21.34 44.85 20.78L44.93 9.41C44.94 7.45 44.19 5.6 42.8 4.2 41.41 2.79 39.57 2.01 37.61 2 37.59 2 37.58 2 37.56 2 33.52 2 30.22 5.27 30.2 9.31 30.2 9.86 29.75 10.3 29.2 10.3 29.2 10.3 29.2 10.3 29.19 10.3 28.64 10.3 28.19 9.85 28.2 9.29 28.24 4.16 32.43 0 37.57 0 37.59 0 37.61 0 37.63 0 42.79 0.04 46.97 4.26 46.93 9.43L46.85 20.8C46.85 21.34 46.4 21.79 45.85 21.79Z" fill="#292764"/></g><g><path d="M45.9 21.99C45.64 21.99 45.38 21.89 45.19 21.69L40.74 17.18C40.35 16.79 40.36 16.15 40.75 15.77 41.14 15.38 41.78 15.39 42.16 15.78L45.91 19.58 49.61 15.93C50 15.54 50.64 15.55 51.02 15.94 51.41 16.33 51.4 16.97 51.01 17.35L46.6 21.7C46.41 21.9 46.16 21.99 45.9 21.99Z" fill="#292764"/></g></g></g></svg>