<svg width="213.63" height="216.8" viewBox="0 0 213.63 216.8" xmlns="http://www.w3.org/2000/svg" xmlns:xlink="http://www.w3.org/1999/xlink" xml:space="preserve" overflow="hidden"><style>
.MsftOfcThm_Background2_lumMod_75_Stroke_v2 {
 stroke:#AFABAB; 
}
</style>
<defs></defs><path d="M209.3 36.26C205.95 30.03 199.04 25.56 192.76 22.76 186.34 19.9 178.8 18.87 171.83 19.46 167.2 19.85 162.62 20.35 158.09 21.3 153.1 22.35 148.7 24.52 143.92 26.12 143.86 26.14 143.78 26.2 143.73 26.28 141.78 23.16 139.72 20.1 137.42 17.24 137.46 17.24 137.48 17.24 137.48 17.24L137.53 17.26C137.86 17.81 138.55 17.43 138.87 16.94 138.89 16.78 138.89 16.61 138.9 16.45 135.19 11.64 133.61 5.73 128.59 2.22 126.37 1.72 124.08 1.49 122.27 1.27 110.67-0.3 98.46-0.13 86.79 0.33 77.32 0.7 67.19 2.1 58.19 5.28 57.71 5.45 57.26 5.67 56.83 5.93 54.93 8 53.12 10.2 51.7 12.65 51.17 13.55 48.34 17.55 48.78 18.61 48.86 18.78 48.89 18.95 48.91 19.12 48.91 19.14 48.93 19.14 48.93 19.14 49.07 19.16 49.12 19.24 49.17 19.33 47.3 19.54 44.92 19.18 43.4 19.22 39.88 19.34 36.32 19.35 32.78 19.35 25.49 19.36 18.18 19.37 10.88 19.63 8.19 19.73 2.9 19.08 0.57 20.98-1.91 23.02 4.13 26.31 5.27 27.16 16.52 35.45 18.92 53.02 19.85 65.88 20.82 79.14 20.42 92.46 20.95 105.74 19.97 118.32 19.72 130.93 19.44 143.55 19.06 162 19.46 180.94 22.14 199.25 22.17 199.5 22.21 199.77 22.26 200.02 22.32 200.47 22.39 200.92 22.46 201.36 22.5 201.53 22.57 201.62 22.67 201.64 23.23 203.25 24.24 204.76 26.14 206.14 31.2 209.85 39.22 211.35 45.22 212.65 60.65 216 76.64 216.86 92.4 216.8 108.64 216.74 124.9 215.16 140.74 211.58 148.03 209.93 155.08 207.57 162.14 205.08 165.17 204 167.01 202.27 167.28 199.7 167.97 196.67 167.56 193.08 170.21 190.92 171.42 189.94 173.11 189.48 174.18 188.32 176.29 185.98 176.4 182.93 176.47 179.88 176.61 174.52 176.83 169.17 176.99 163.81 177.02 162.6 177.14 160.73 176.21 159.73 174.39 157.78 171.43 157.13 170.46 154.5 174.61 147.98 179.37 141.68 183.68 135.34 188.94 127.65 193.37 119.93 197.52 111.61 205.82 94.95 213.36 78.21 213.58 59.29 213.71 51.52 213.05 43.21 209.3 36.26ZM193.93 34.26C195.63 34.26 195.03 36.91 193.51 36.91 191.81 36.91 192.4 34.26 193.93 34.26ZM194.46 68.64C193.44 74.25 192.21 79.92 190.88 85.47 189.39 91.71 186.29 97.4 183.5 103.14 181.59 107.15 179.67 111.27 177.7 115.36 174.79 120.25 171.76 125.07 168.95 130.05 168.57 116.47 167.91 102.91 165.99 89.44 163.79 73.98 160.08 58.94 153.66 44.77 154.2 41.57 156.82 39.7 160.18 38.61 162.06 38.19 163.92 37.93 165.13 37.61L165.14 37.61C165.86 37.5 166.57 37.4 167.31 37.3 170.12 37.07 172.83 37.07 174.77 37.07 179.4 37.07 183.98 38.15 187.73 40.83 190.13 43.4 191.67 47.19 192.77 50.13 195.03 56.18 195.6 62.35 194.46 68.64Z" class="MsftOfcThm_Background2_lumMod_75_Stroke_v2" stroke="#AFABAB" fill="#FFC000"/><path d="M21.78 96.89C21.83 87.53 21.87 78.18 21.55 68.82 21.29 61.63 20.47 54.43 19.08 47.35 18 41.89 16.87 36.17 13.68 31.49 10.65 27.02 6.79 24.53 2.38 21.67 1.88 21.36 4.37 21.05 4.37 21.05 6.4 20.82 8.39 20.76 10.4 20.76 14 20.74 17.59 20.95 21.19 21.15 28.25 21.56 35.27 22 42.34 21.7 44.03 21.62 46.51 21.67 48.49 21 44.62 26.47 41.32 32.37 38.33 38.01 29.84 54.12 25.31 71.49 22.73 89.43 22.36 91.93 22.07 94.41 21.78 96.89Z" class="MsftOfcThm_Background2_lumMod_75_Stroke_v2" stroke="#AFABAB" fill="#FFC000"/><path d="M165.94 176.12C165.88 176.15 165.79 176.17 165.73 176.23 161.05 179.48 154.27 180.79 148.85 182.17 142.9 183.7 136.81 184.62 130.74 185.45 117.33 187.29 103.84 188.08 90.3 188 77.44 187.94 64.6 187.11 51.89 185.09 46.16 184.19 40.44 182.89 34.8 181.55 29.89 180.38 25.51 178.93 22.72 175 22.02 148.1 21.74 121.21 24.83 94.4 26.83 77.22 30.74 60.32 37.84 44.51 41.41 36.54 45.56 27.81 50.83 20.08 54.79 20.7 58.86 20.84 62.22 21.14 72.22 22.02 82.23 22.53 92.25 22.28 106.61 21.94 121.79 21.03 136.05 17.59 142.21 25.9 146.86 35.67 150.83 44.51 157.93 60.32 161.85 77.22 163.84 94.4 165.44 108.27 166.13 122.17 166.35 136.09 166.33 136.1 166.33 136.1 166.33 136.12 166.05 136.54 166.13 136.8 166.35 136.93 166.56 149.98 166.3 163.05 165.94 176.12Z" class="MsftOfcThm_Background2_lumMod_75_Stroke_v2" stroke="#AFABAB" fill="#FFC000"/><g><path d="M43.84 27.42C36.46 30.14 27.97 30.32 20.26 29.38 16.32 28.91 12.37 28.27 8.89 26.26 10.65 27.73 12.27 29.39 13.69 31.48 16.88 36.16 18 41.89 19.09 47.34 20.48 54.41 21.29 61.62 21.56 68.81 21.89 78.17 21.84 87.52 21.79 96.88 22.08 94.4 22.37 91.92 22.73 89.45 25.31 71.51 29.84 54.14 38.33 38.03 40.23 34.45 42.25 30.78 44.46 27.17 44.25 27.26 44.03 27.35 43.84 27.42Z" class="MsftOfcThm_Background2_lumMod_75_Stroke_v2" stroke="#AFABAB" fill="#FFC000"/></g><g><path d="M34.22 39.14C30.91 44.26 24.74 44.7 20.25 40.93 18.81 39.75 17.59 38.43 16.46 37.02 17.7 40.35 18.4 43.9 19.09 47.36 20.48 54.43 21.29 61.64 21.56 68.83 21.89 78.19 21.84 87.54 21.79 96.9 22.08 94.42 22.37 91.94 22.73 89.47 25.31 71.53 29.84 54.16 38.33 38.05 40.34 34.25 42.5 30.34 44.87 26.51 41.09 30.51 37.22 34.47 34.22 39.14Z" class="MsftOfcThm_Background2_lumMod_75_Stroke_v2" stroke="#AFABAB" fill="#FFC000"/></g></svg>