<svg width="90.72" height="89.65" viewBox="0 0 90.72 89.65" xmlns="http://www.w3.org/2000/svg" xmlns:xlink="http://www.w3.org/1999/xlink" xml:space="preserve" overflow="hidden"><defs></defs><g><g><g><g><g><path d="M38.87 0.5 0.84 37.44 0.5 37.44 0.5 89.3 77.25 89.3 77.25 37.82Z" fill="#E4CDFC"/></g></g><g><g><path d="M77.61 89.65 0.14 89.65 0.14 37.08 0.69 37.08 38.87 0 77.6 37.67 77.6 89.65ZM0.86 88.94 76.89 88.94 76.89 37.97 38.87 1 0.98 37.8 0.86 37.8 0.86 88.94Z" fill="#8796D8"/></g></g></g><g><g><path d="M39.23 89.3 38.51 89.3 38.51 86.6 39.23 86.6 39.23 89.3ZM39.23 83.31 38.51 83.31 38.51 80.02 39.23 80.02 39.23 83.31ZM39.23 76.73 38.51 76.73 38.51 73.44 39.23 73.44 39.23 76.73ZM39.23 70.16 38.51 70.16 38.51 66.87 39.23 66.87 39.23 70.16ZM39.23 63.58 38.51 63.58 38.51 60.29 39.23 60.29 39.23 63.58ZM39.23 57 38.51 57 38.51 53.71 39.23 53.71 39.23 57ZM39.23 50.42 38.51 50.42 38.51 47.13 39.23 47.13 39.23 50.42ZM39.23 43.84 38.51 43.84 38.51 40.55 39.23 40.55 39.23 43.84ZM39.23 37.26 38.51 37.26 38.51 33.97 39.23 33.97 39.23 37.26ZM39.23 30.68 38.51 30.68 38.51 27.39 39.23 27.39 39.23 30.68ZM39.23 24.1 38.51 24.1 38.51 20.81 39.23 20.81 39.23 24.1ZM39.23 17.52 38.51 17.52 38.51 14.23 39.23 14.23 39.23 17.52ZM39.23 10.94 38.51 10.94 38.51 7.66 39.23 7.66 39.23 10.94Z" fill="#8796D8"/></g></g><g><g><g><g><path d="M0.5 37.8 0.5 7.66 31.66 7.66Z" fill="#E4CDFC"/></g></g><g><g><path d="M0.5 37.8 0.5 7.66 31.66 7.66Z" fill="#EEF3FF"/></g></g></g><g><g><g><path d="M0 38.98 0 7.16 32.9 7.16 0 38.98ZM1 8.16 1 36.63 30.43 8.16 1 8.16Z" fill="#8796D8"/></g></g><g><g><path d="M0 38.98 0 7.16 32.9 7.16 0 38.98ZM1 8.16 1 36.63 30.43 8.16 1 8.16Z" fill="#8796D8"/></g></g></g></g><g><g><g><g><path d="M77.25 37.8 77.25 7.66 46.09 7.66Z" fill="#E4CDFC"/></g></g><g><g><path d="M77.25 37.8 77.25 7.66 46.09 7.66Z" fill="#EEF3FF"/></g></g></g><g><g><g><path d="M77.75 38.98 44.85 7.16 77.75 7.16 77.75 38.98ZM47.32 8.16 76.75 36.63 76.75 8.16 47.32 8.16Z" fill="#8796D8"/></g></g><g><g><path d="M77.75 38.98 44.85 7.16 77.75 7.16 77.75 38.98ZM47.32 8.16 76.75 36.63 76.75 8.16 47.32 8.16Z" fill="#8796D8"/></g></g></g></g><g><path d="M46.08 8.16 41.08 8.16 41.08 7.16 46.08 7.16 46.08 8.16ZM36.08 8.16 32.01 8.16 32.01 7.16 36.08 7.16 36.08 8.16Z" fill="#8796D8"/></g></g><g><g><path d="M70.43 80.19 63.29 76.31 65.63 74.58C56.02 60.16 68.34 49.32 68.47 49.21L69.28 50.15C68.78 50.58 57.68 60.39 66.63 73.85L68.81 72.24 70.43 80.19Z" fill="#5366AD"/></g><g><path d="M82.26 48.35 89.4 52.23 87.06 53.96C96.67 68.38 84.35 79.22 84.22 79.33L83.41 78.39C83.91 77.96 95.01 68.15 86.06 54.69L83.88 56.3 82.26 48.35Z" fill="#5366AD"/></g></g></g></svg>