<svg width="189.37" height="187.72" viewBox="0 0 189.37 187.72" xmlns="http://www.w3.org/2000/svg" xmlns:xlink="http://www.w3.org/1999/xlink" xml:space="preserve" overflow="hidden"><defs></defs><g><g><path d="M99.49 72.86 91.39 48.86 21.53 15.92 68.77 159.13Z" stroke="#565656" stroke-width="1.3564" stroke-miterlimit="10" fill="#AABFCE"/><path d="M91.94 48.37 20.39 14.63 68.12 159.34 68.74 161.22 100.13 73.09 100.21 72.86Z" fill="#B0B0B0"/><g><path d="M188.66 153.29 188.04 123.6C188 123.03 187.58 122.55 187.01 122.46L185.81 122.28 176.84 142.85 188.66 153.29Z" stroke="#565656" stroke-width="1.3564" stroke-miterlimit="10" fill="#AABFCE"/><path d="M38.66 185.14 63.61 147.26 1.77 171.55 37.21 187 39.08 186.45C38.6 186.27 38.32 185.65 38.66 185.14Z" stroke="#565656" stroke-width="1.3564" stroke-miterlimit="10" fill="#AABFCE"/><path d="M175.34 146.31 176.85 142.85 185.82 122.29 185.82 122.27 146.24 114.83 134.87 119.29 175.29 145.92" stroke="#565656" stroke-width="1.3564" stroke-miterlimit="10" fill="#AABFCE"/><path d="M74.62 130.55 74.62 130.55 63.61 147.27 63.61 147.27Z" stroke="#565656" stroke-width="1.3564" stroke-miterlimit="10" fill="#AABFCE"/><path d="M117.48 65.49 111.7 40.83 45.29 1.39 74.62 130.55 74.62 130.55Z" stroke="#565656" stroke-width="1.3564" stroke-miterlimit="10" fill="#AABFCE"/><path d="M130.48 121.01 129.21 115.56 130.48 121.01Z" stroke="#565656" stroke-width="1.3564" stroke-miterlimit="10" fill="#AABFCE"/><path d="M130.48 121.01 130.48 121.01 138.87 156.8 138.87 156.8Z" stroke="#565656" stroke-width="1.3564" stroke-miterlimit="10" fill="#AABFCE"/><path d="M138.79 156.83 138.86 156.81 130.48 121.02 129.2 115.57 117.47 65.5 74.61 130.56 63.6 147.28 63.6 147.28 38.65 185.16C38.31 185.67 38.59 186.28 39.08 186.47L81.51 173.97 84.23 173.17 138.87 157.07 138.79 156.83Z" stroke="#565656" stroke-width="1.3564" stroke-miterlimit="10" fill="#FFFFFF"/><path d="M84.23 173.15 138.87 157.05 138.79 156.82 138.86 156.8 130.48 121.01 129.2 115.56 130.48 121.01C117.17 153.89 87.44 170.32 70.14 176.96 70.31 177.03 70.48 177.09 70.64 177.15L81.5 173.95 84.23 173.15Z" fill="#B0B0B0" opacity="0.5"/><path d="M138.79 156.83 138.87 156.8 130.48 121.01 129.21 115.56 117.48 65.49 100.49 91.28 117.48 163.36 138.88 157.05Z" stroke="#565656" stroke-width="1.3564" stroke-miterlimit="10" fill="#AABFCE"/><path d="M188.72 123.57C188.67 122.67 188.01 121.94 187.11 121.8L185.4 121.55 176.02 143.04 189.37 154.83 188.72 123.57Z" fill="#B0B0B0"/></g><path d="M176.9 126.44C175.86 125.04 174.25 124.41 172.7 124.54 172.19 124.58 171.84 125.07 171.99 125.56L173.1 129.23 169.55 127.78C169.08 127.59 168.56 127.89 168.47 128.4 168.21 129.87 168.64 131.43 169.77 132.57 171.74 134.54 175.02 134.4 176.81 132.15 178.11 130.5 178.15 128.11 176.9 126.44Z" fill="#565656"/><path d="M68.44 103.35 74.62 130.55 86.32 112.79C79.77 111.47 73.63 107.95 68.44 103.35Z" fill="#B0B0B0"/></g><path d="M111.39 103.86 102.44 97.96 104.46 106.58 117.72 163.18 174.69 146.15C174.94 146.08 174.99 145.75 174.77 145.6L111.39 103.86Z" stroke="#565656" stroke-width="1.3564" stroke-miterlimit="10" fill="#FFFFFF"/></g></svg>