<svg width="106.46" height="106.46" viewBox="0 0 106.46 106.46" xmlns="http://www.w3.org/2000/svg" xmlns:xlink="http://www.w3.org/1999/xlink" xml:space="preserve" overflow="hidden"><defs></defs><g><path d="M106.46 53.23C106.46 54 106.44 54.76 106.41 55.52 106.3 58.25 105.97 60.93 105.46 63.54 105.37 63.99 105.28 64.43 105.18 64.87 102.08 78.77 93.55 90.62 81.92 98.07 74.31 102.95 65.37 105.95 55.77 106.4 54.93 106.44 54.08 106.46 53.23 106.46 47.44 106.46 41.86 105.53 36.64 103.82 25 100.01 15.13 92.29 8.58 82.21 6.9 79.64 5.44 76.91 4.22 74.05 1.51 67.66 0 60.62 0 53.23 0 23.83 23.83 0 53.23 0 82.63 0 106.46 23.83 106.46 53.23Z" fill="#39B8FF"/><path d="M106.46 53.23C106.46 54 106.44 54.76 106.41 55.52 106.3 58.25 105.97 60.93 105.46 63.54 105.37 63.99 105.28 64.43 105.18 64.87 102.08 78.77 93.55 90.62 81.92 98.07 74.31 102.95 65.37 105.95 55.77 106.4 54.93 106.44 54.08 106.46 53.23 106.46 47.44 106.46 41.86 105.53 36.64 103.82 25 100.01 15.13 92.29 8.58 82.21 6.9 79.64 5.44 76.91 4.22 74.05 1.51 67.66 0 60.62 0 53.23 0 23.83 23.83 0 53.23 0 82.63 0 106.46 23.83 106.46 53.23Z" fill="#FFE8B6"/><path d="M81.92 98.07C74.31 102.95 65.37 105.95 55.77 106.4 54.93 106.44 54.08 106.46 53.23 106.46 47.44 106.46 41.86 105.53 36.64 103.82 25 100.01 15.13 92.29 8.58 82.21 6.9 79.64 5.44 76.91 4.22 74.05 18.4 70.17 33.73 70.48 47.72 75.05 51.01 76.13 54.23 77.44 57.34 78.97 57.85 79.21 58.36 79.47 58.86 79.73 59.37 79.99 59.88 80.27 60.39 80.55 68.55 85.01 75.9 90.98 81.92 98.07Z" fill="#D19176"/><g><g><path d="M90.9 68.52C88.56 62.18 84.9 56.33 80.22 51.45 78.88 50.05 77.28 48.65 75.34 48.53 72.93 48.38 70.89 50.25 69.45 52.18 66.25 56.44 64.39 61.55 62.87 66.66 61.35 71.77 60.12 76.99 57.98 81.87 63.43 78.84 68.85 76.03 74.63 73.69 79.86 71.56 85.33 69.46 90.9 68.52Z" fill="#9B6D5E"/><path d="M106.41 55.52C106.3 58.25 105.97 60.93 105.46 63.54 105.37 63.99 105.28 64.43 105.18 64.87 97.97 66.78 90.78 68.79 83.57 70.65 83.73 70.61 83.87 70.46 83.98 70.23 84.5 69.2 84.56 66.6 84.65 65.76 84.66 65.7 84.66 65.65 84.67 65.61 84.99 63.52 85.51 61.3 86.25 59.14 86.66 57.9 87.15 56.68 87.71 55.52 88.51 53.84 89.45 52.29 90.52 50.96 92.94 47.98 96.29 47.42 99.53 49.15 102.18 50.57 104.49 52.87 106.41 55.52Z" fill="#9B6D5E"/></g></g><path d="M105.46 63.54C105.37 63.99 105.28 64.43 105.18 64.87 102.08 78.77 93.55 90.62 81.92 98.07 74.31 102.95 65.37 105.95 55.77 106.4 54.93 106.44 54.08 106.46 53.23 106.46 47.44 106.46 41.86 105.53 36.64 103.82 38.55 100.11 40.79 96.55 43.31 93.21 47.33 87.87 52.06 83.07 57.34 78.97 58.14 78.36 58.95 77.76 59.77 77.18 61.26 76.12 62.78 75.11 64.35 74.17 70.65 70.38 77.52 67.55 84.65 65.76 86.19 65.37 87.75 65.03 89.32 64.75L89.33 64.75C94.64 63.76 100.05 63.35 105.46 63.54Z" fill="#F7B882"/><path d="M37.84 64.36C37.87 60.42 39.93 56.71 42.69 53.9 45.45 51.09 48.88 49.03 52.26 47.01 46.52 47.98 41.31 50.96 37.92 55.69 36.78 48.84 39.22 41.5 44.24 36.7 40.53 37.44 37.44 40.24 36.53 43.91 34.18 39.32 29.88 35.76 24.92 34.31 27.12 35.99 29.33 37.69 31.17 39.76 33.01 41.83 34.47 44.32 34.88 47.06 35.21 49.25 34.87 51.47 34.53 53.66 33.94 57.47 33.46 61.11 32.86 64.92 30.36 61.43 27.53 58.17 24.44 55.19 23.17 53.97 21.64 52.72 19.89 52.89 22.16 53.98 24 55.81 25.45 57.86 26.86 59.85 27.93 62.07 28.98 64.28 25.53 63.95 22.09 63.61 18.64 63.28 20.43 64.11 22.3 64.76 24.22 65.24 26.91 65.91 29.51 65.9 31.06 68.52 32.9 71.64 32.92 75.62 32.59 79.12 32.43 80.83 32.11 82.53 31.88 84.22 31.73 85.28 31.21 89.41 29.96 89.82 28.93 90.16 28.39 92.14 29.15 92.92 29.8 93.59 30.86 93.56 31.79 93.54 35.97 93.42 40.17 94.19 44.04 95.79 39.68 89.02 37.62 80.8 38.25 72.77 38.44 70.38 38.93 67.85 40.61 66.14 42.02 64.7 44.05 64.07 45.99 63.49 47.88 62.93 49.77 62.36 51.66 61.8 46.85 60.32 41.88 61.38 37.84 64.36Z" fill="#77383D"/><path d="M55.77 106.4C54.93 106.44 54.08 106.46 53.23 106.46 47.44 106.46 41.86 105.53 36.64 103.82 25 100.01 15.13 92.29 8.58 82.21 18.03 81.9 27.57 84.07 35.93 88.49 38.51 89.85 40.98 91.43 43.31 93.21 48.16 96.87 52.39 101.35 55.77 106.4Z" fill="#DD8C6F"/><path d="M76.89 28.07C76.89 31.52 74.09 34.32 70.64 34.32 67.19 34.32 64.39 31.52 64.39 28.07 64.39 24.62 67.19 21.82 70.64 21.82 74.09 21.83 76.89 24.62 76.89 28.07Z" fill="#FFFFFF"/><g><g><path d="M60.47 87.89C59.98 87.2 59.5 86.52 59.01 85.83 59.79 86.22 60.51 86.75 61.09 87.4 61.14 86.58 61.2 85.75 61.25 84.93 61.63 85.67 62 86.4 62.38 87.14 62.8 86.31 63.6 85.67 64.51 85.45 64.3 86.05 64.09 86.64 63.88 87.24 64.45 86.68 65.29 86.41 66.08 86.53 65.62 86.97 65.16 87.41 64.71 87.85 63.16 87.97 62.01 87.78 60.47 87.89Z" fill="#D19176"/><path d="M73.99 76.43C73.57 75.67 72.89 75.07 72.09 74.73 72.85 75.09 73.62 75.45 74.38 75.8 74.15 75.05 73.92 74.31 73.69 73.56 74.5 73.96 75.16 74.66 75.51 75.49 75.75 74.85 75.99 74.22 76.23 73.58 76.44 74.14 76.53 74.75 76.49 75.35 76.93 74.67 77.87 74.38 78.62 74.68 77.84 74.85 77.26 75.65 77.32 76.44 76.12 76.39 75.2 76.49 73.99 76.43Z" fill="#D19176"/><path d="M80.35 84.9C81.09 84.93 81.83 85.18 82.44 85.6 82.29 84.85 81.88 84.14 81.3 83.64 82.21 83.86 82.99 84.54 83.32 85.41 83.63 84.67 84.2 84.04 84.91 83.65 84.69 84.23 84.46 84.81 84.24 85.39 84.76 84.77 85.56 84.41 86.36 84.42 85.67 84.86 85.08 85.47 84.65 86.18 84.56 86.32 82.32 86.13 82.1 86.02 81.45 85.71 81.15 85.08 80.35 84.9Z" fill="#D19176"/><path d="M64.11 100.42C64.79 100.5 65.45 100.75 66.01 101.15 66.17 100.52 66.05 99.82 65.69 99.28 66.29 99.64 66.73 100.26 66.88 100.94 67.31 100.43 67.91 100.06 68.56 99.91 68.29 100.31 68.01 100.7 67.74 101.1 68.17 100.65 68.83 100.44 69.45 100.55 69.1 100.96 68.76 101.37 68.41 101.77 68.29 101.91 65.99 101.79 65.77 101.69 65.16 101.41 64.84 100.67 64.11 100.42Z" fill="#D19176"/><path d="M91.72 73.18C91.37 72.39 90.71 71.75 89.91 71.43 90.77 71.53 91.59 71.88 92.26 72.42 92.35 71.78 92.65 71.18 93.1 70.72 93.08 71.23 93.06 71.73 93.03 72.24 93.44 71.73 94.12 71.44 94.77 71.5 94.35 71.89 94.07 72.43 94 73 93.24 73.11 92.48 73.08 91.72 73.18Z" fill="#D19176"/></g></g><g><path d="M21.8 51.05C21.78 50.82 21.78 50.59 21.86 50.37 21.94 50.16 22.12 49.97 22.35 49.94 22.6 49.9 22.84 50.06 23.03 50.22 23.86 50.94 24.34 52.06 24.29 53.16 24.88 52.03 26.15 51.28 27.42 51.32 27.52 51.32 26.52 52.98 26.38 53.11 25.87 53.62 25.19 54.06 24.47 54.21 22.9 54.56 21.92 52.37 21.8 51.05Z" fill="#CC6B52"/><path d="M21.03 57.49C21.58 58.11 22.37 58.5 23.19 58.58 23.91 58.65 25.86 58.11 24.77 57.1 23.93 56.31 21.82 56.96 21.03 57.49Z" fill="#CC6B52"/><path d="M29.18 34.52C29.17 33.78 29.5 33.04 30.05 32.53 30.72 33.01 31.14 33.83 31.14 34.65 31.14 35.15 30.89 36.36 30.23 36.39 29.48 36.44 29.18 35.02 29.18 34.52Z" fill="#CC6B52"/><path d="M32.73 39.83C32.48 39.06 32.56 38.2 32.95 37.49 33.33 36.78 34.01 36.24 34.78 36.02 35.18 36.7 35.13 37.55 34.74 38.23 34.34 38.92 33.51 39.84 32.73 39.83Z" fill="#CC6B52"/><path d="M26.9 40.51C27.29 39.79 27.99 39.23 28.78 39.01 29.57 38.79 30.45 38.9 31.17 39.31 30.93 40.09 30.24 40.71 29.51 41.08 28.77 41.45 27.67 40.8 26.9 40.51Z" fill="#CC6B52"/><path d="M41.75 34.71C41.84 34.53 41.96 34.34 42.15 34.27 42.49 34.16 42.83 34.51 42.85 34.86 42.87 35.21 42.68 35.54 42.5 35.84 42.96 35.48 43.53 35.25 44.11 35.17 44.43 35.13 44.82 35.16 45.01 35.43 45.24 35.75 45.05 36.19 44.8 36.5 44.28 37.14 43.02 37.9 42.16 37.52 41.18 37.1 41.38 35.48 41.75 34.71Z" fill="#CC6B52"/><path d="M44.79 49.68C44.16 49.28 43.71 48.63 43.54 47.91 43.37 47.19 43.5 46.4 43.89 45.77 44.92 45.89 45.52 46.91 45.45 47.94 45.71 46.63 46.81 45.69 48.14 45.55 48.18 46.41 47.73 47.28 47.13 47.9 46.54 48.52 45.65 49.67 44.79 49.68Z" fill="#CC6B52"/><path d="M48.65 48.82C49.82 47.79 51.77 47.82 52.91 48.88 52.37 49.46 51.59 49.91 50.8 49.9 50 49.87 49.16 49.42 48.65 48.82Z" fill="#CC6B52"/><path d="M49.66 47.24C49.44 45.78 50.47 44.23 51.91 43.88 52.24 44.68 52.22 45.73 51.74 46.45 51.26 47.17 50.53 47.25 49.66 47.24Z" fill="#CC6B52"/><path d="M42.9 52.73C43.53 52.2 44.42 52 45.22 52.23 46.01 52.46 46.67 53.1 46.92 53.88 46.31 54.4 45.24 54.56 44.47 54.32 43.7 54.07 43.1 53.5 42.9 52.73Z" fill="#CC6B52"/><path d="M48.4 61.77C48.53 61.02 48.69 60.26 49.12 59.63 49.55 59 50.31 58.55 51.05 58.71 51.59 59.22 51.13 60.04 50.63 60.59 50.13 61.14 49.1 61.53 48.4 61.77Z" fill="#CC6B52"/><path d="M45.21 62.47C45.96 62.33 46.76 62.5 47.38 62.94 48 63.38 48.43 64.08 48.54 64.83 47.84 65.28 46.71 65.3 46 64.87 45.29 64.45 45.13 63.3 45.21 62.47Z" fill="#CC6B52"/><path d="M23.2 68.45C23.88 66.7 25.8 65.51 27.67 65.67 27.37 67.36 24.92 68.59 23.2 68.45Z" fill="#CC6B52"/><path d="M22.22 64.15C20.84 63.66 19.82 62.28 19.76 60.81 21.15 60.68 22.28 61.65 22.7 62.99 23 62.15 23.83 61.52 24.72 61.47 24.86 62.22 24.77 62.89 24.24 63.44 23.71 63.99 22.94 64.41 22.22 64.15Z" fill="#CC6B52"/><path d="M21 66.42C21.74 65.41 23.14 64.93 24.34 65.26 24.27 66.01 23.98 66.44 23.37 66.88 22.77 67.33 21.74 66.58 21 66.42Z" fill="#CC6B52"/></g></g></svg>