<svg width="267.15" height="305.38" viewBox="0 0 267.15 305.38" xmlns="http://www.w3.org/2000/svg" xmlns:xlink="http://www.w3.org/1999/xlink" xml:space="preserve" overflow="hidden"><defs></defs><g><path d="M262.08 272.07 247.86 272.07 247.86 7.33 27.34 7.33 27.34 272.07 11.28 272.07 11.28 305.38 262.08 305.38Z" fill="#B3B3B3" opacity="0.5"/><g><g><rect x="22.23" y="0" width="220.17" height="280.95" fill="#DCD3C6"/><g><g><g><path d="M53.56 22.12 49.19 22.12 49.19 25.24 49.19 254 49.19 257.13 53.56 257.13 222.49 257.13 226.88 257.13 226.88 254 226.88 25.24 226.88 22.12 222.49 22.12Z" fill="#EBCFB2" opacity="0.7"/><rect x="51.71" y="27.14" width="161.63" height="221.62" fill="#BFE7F8" opacity="0.8"/><g><linearGradient x1="-61.3166" y1="189.289" x2="165.374" y2="27.3675" gradientUnits="userSpaceOnUse" id="SVGID_1_"><stop offset="0" stop-color="#FFFFFF"/><stop offset="0.997" stop-color="#4982C3"/></linearGradient><linearGradient x1="8.1839" y1="251.95" x2="231.296" y2="92.5834" gradientUnits="userSpaceOnUse" id="SVGID_2_"><stop offset="0" stop-color="#FFFFFF"/><stop offset="0.997" stop-color="#4982C3"/></linearGradient><path d="M123.07 26.94 51.71 104.75 51.71 139.2 154.66 26.94Z" fill="url(#SVGID_1_)" opacity="0.5"/><path d="M213.31 50.36 51.71 226.56 51.71 248.76 89.75 248.76 213.31 114.05Z" fill="url(#SVGID_2_)" opacity="0.5"/></g></g><g><linearGradient x1="134.553" y1="258.248" x2="134.553" y2="11.8294" gradientUnits="userSpaceOnUse" id="SVGID_3_"><stop offset="0" stop-color="#A0BDE0"/><stop offset="0.997" stop-color="#4982C3"/></linearGradient><path d="M219.29 72.87 219.29 69.22 169.85 69.22 169.85 26.74 164.78 26.74 164.78 69.23 108.77 69.23 108.77 26.74 103.7 26.74 103.7 69.23 49.82 69.23 49.82 72.88 103.71 72.88 103.71 114.77 49.82 114.77 49.82 118.42 103.71 118.42 103.71 160.29 49.82 160.29 49.82 163.96 103.71 163.96 103.71 205.84 49.82 205.84 49.82 209.5 103.71 209.5 103.71 251.56 108.78 251.56 108.78 209.5 164.79 209.5 164.79 251.56 169.86 251.56 169.86 209.5 219.3 209.5 219.3 205.84 169.86 205.84 169.86 163.96 219.3 163.96 219.3 160.29 169.86 160.29 169.86 118.42 219.3 118.42 219.3 114.77 169.86 114.77 169.86 72.87 219.29 72.87ZM164.78 205.84 108.77 205.84 108.77 163.96 164.78 163.96 164.78 205.84ZM164.78 160.29 108.77 160.29 108.77 118.42 164.78 118.42 164.78 160.29ZM164.78 114.76 108.77 114.76 108.77 72.87 164.78 72.87 164.78 114.76Z" fill="url(#SVGID_3_)"/><g opacity="0.6"><path d="M104.95 158.63 106.48 158.63 106.48 116.76 162.43 116.76 162.43 115.65 104.95 115.65Z" fill="#445D72"/><path d="M106.48 162.31 162.43 162.31 162.43 161.19 104.95 161.19 104.95 204.18 106.48 204.18Z" fill="#445D72"/><rect x="47.55" y="70.11" width="52.34" height="1.11" fill="#445D72"/><path d="M104.95 113.1 106.48 113.1 106.48 71.23 162.43 71.23 162.43 70.11 104.95 70.11Z" fill="#445D72"/><rect x="47.55" y="161.19" width="53.78" height="1.13" fill="#445D72"/><rect x="47.55" y="115.65" width="53.78" height="1.11" fill="#445D72"/><rect x="166.02" y="25.08" width="1.55" height="42.5" fill="#445D72"/><path d="M215.46 115.65 166.02 115.65 166.02 158.63 167.57 158.63 167.57 116.76 216.98 116.76 216.98 113.1 215.46 113.1Z" fill="#445D72"/><path d="M215.46 67.58 215.46 70.11 166.02 70.11 166.02 113.1 167.57 113.1 167.57 71.23 216.98 71.23 216.98 67.58Z" fill="#445D72"/><path d="M215.46 161.19 166.02 161.19 166.02 204.18 167.57 204.18 167.57 162.31 216.98 162.31 216.98 158.63 215.46 158.63Z" fill="#445D72"/><rect x="47.55" y="206.73" width="53.88" height="1.1" fill="#445D72"/><path d="M215.46 206.73 166.02 206.73 166.02 248.8 162.51 248.8 162.51 249.91 167.57 249.91 167.57 207.83 216.98 207.83 216.98 204.18 215.46 204.18Z" fill="#445D72"/><rect x="104.95" y="25.08" width="1.53" height="42.5" fill="#445D72"/><path d="M162.51 206.73 104.95 206.73 104.95 248.8 101.43 248.8 101.43 249.91 106.48 249.91 106.48 207.83 162.51 207.83Z" fill="#445D72"/></g></g><path d="M213.34 27.14 213.34 248.76 51.71 248.76 51.71 27.14 213.34 27.14 213.34 27.14ZM228.47 12.06 223.71 12.06 41.34 12.06 36.59 12.06 36.59 15.38 36.59 259.2 36.59 262.53 41.34 262.53 223.71 262.53 228.47 262.53 228.47 259.2 228.47 15.38 228.47 12.06 228.47 12.06Z" fill="#FFFFFF"/><path d="M213.34 27.14 213.34 248.76 51.71 248.76 51.71 27.14 213.34 27.14 213.34 27.14ZM217.52 25.89 213.31 25.89 51.74 25.89 47.54 25.89 47.54 28.88 47.54 248.17 47.54 251.18 51.74 251.18 213.31 251.18 217.52 251.18 217.52 248.17 217.52 28.87 217.52 25.89 217.52 25.89Z" fill="#445D72" opacity="0.6"/></g><path d="M216.98 71.23 216.98 67.58 167.57 67.58 167.57 25.08 162.51 25.08 162.51 67.58 106.48 67.58 106.48 25.08 101.43 25.08 101.43 67.58 47.55 67.58 47.55 71.23 101.43 71.23 101.43 113.1 47.55 113.1 47.55 116.76 101.43 116.76 101.43 158.63 47.55 158.63 47.55 162.31 101.43 162.31 101.43 204.17 47.55 204.17 47.55 207.82 101.43 207.82 101.43 249.9 106.48 249.9 106.48 207.82 162.51 207.82 162.51 249.9 167.57 249.9 167.57 207.82 216.98 207.82 216.98 204.17 167.57 204.17 167.57 162.31 216.98 162.31 216.98 158.63 167.57 158.63 167.57 116.76 216.98 116.76 216.98 113.1 167.57 113.1 167.57 71.23 216.98 71.23ZM162.51 204.18 106.48 204.18 106.48 162.32 162.51 162.32 162.51 204.18ZM162.51 158.63 106.48 158.63 106.48 116.76 162.51 116.76 162.51 158.63ZM162.51 113.1 106.48 113.1 106.48 71.23 162.51 71.23 162.51 113.1Z" fill="#FFFFFF"/></g></g><rect x="6.2" y="264.32" width="250.39" height="33.26" fill="#DCD3C6"/><rect x="6.2" y="280.95" width="250.39" height="16.63" fill="#B7B0A7"/></g><rect x="51.3" y="116.76" width="166.22" height="134.4" fill="#7BCCD1"/><rect x="80.02" y="139.99" width="137.49" height="111.18" fill="#7BCCD1" opacity="0.5"/><g><defs><rect x="47.55" y="116.76" width="169.97" height="134.4" id="SVGID_4_"/></defs><clipPath id="SVGID_5_"><use width="100%" height="100%" xlink:href="#SVGID_4_" overflow="visible"></use></clipPath><g clip-path="url(#SVGID_5_)"><g><g><path d="M50.55 251.46C50.55 251.46 52.85 255.64 51.17 258.98 49.5 262.32 56.19 261.91 55.77 257.94 55.36 253.98 50.55 251.46 50.55 251.46Z" fill="#F48B85"/><path d="M52.6 261.7C51.91 261.7 51.29 261.49 50.9 261.09 50.58 260.77 50.15 260.04 50.77 258.79 52.32 255.7 50.18 251.73 50.16 251.69 50.06 251.51 50.09 251.3 50.23 251.15 50.37 251.01 50.59 250.97 50.76 251.07 50.97 251.18 55.79 253.74 56.23 257.9 56.38 259.38 55.65 260.66 54.27 261.31 53.72 261.57 53.14 261.7 52.6 261.7ZM51.56 252.65C52.13 254.23 52.74 256.87 51.58 259.19 51.38 259.58 51.22 260.12 51.54 260.45 51.96 260.88 53.01 260.89 53.87 260.49 54.36 260.26 55.48 259.56 55.32 257.99 55.07 255.54 52.96 253.64 51.56 252.65Z" fill="#B27161"/></g><g><path d="M43.45 251.89 44.49 260.66C44.49 260.66 38.85 259.41 38.64 253.97 38.43 248.54 43.45 251.89 43.45 251.89Z" fill="#F48B85"/><path d="M44.49 261.11C44.46 261.11 44.42 261.11 44.39 261.1 44.33 261.09 38.4 259.71 38.18 253.99 38.12 252.3 38.53 251.19 39.43 250.69 41.03 249.78 43.43 251.33 43.7 251.5 43.81 251.57 43.88 251.7 43.9 251.83L44.94 260.6C44.96 260.75 44.9 260.89 44.79 260.99 44.71 261.07 44.6 261.11 44.49 261.11ZM40.59 251.32C40.33 251.32 40.08 251.37 39.87 251.49 39.16 251.88 39.05 253.05 39.09 253.96 39.24 257.92 42.54 259.52 43.95 260.03L43.01 252.16C42.47 251.82 41.44 251.32 40.59 251.32Z" fill="#B27161"/></g><g><path d="M55.64 208.27C55.64 208.27 69.57 233.07 72.64 251.46 74.31 260.93 52.58 264.84 53.96 257.32 55.35 250.63 32.51 249.52 44.49 260.66 47 262.62 28.88 263.16 18.29 255.92 9.93 264.84 1.85 256.48 0.45 251.74 4.92 249.23 13.55 203.81 26.37 202.69 39.2 201.59 55.64 208.27 55.64 208.27Z" fill="#F58D87"/><path d="M39.99 262.36C34.24 262.36 24.88 260.81 18.36 256.52 14.51 260.46 10.92 260.65 8.56 260.09 4.02 259.01 0.83 254.64 0.02 251.88-0.04 251.68 0.05 251.46 0.23 251.35 1.64 250.56 3.88 243.93 6.25 236.91 11.08 222.6 17.71 202.99 26.33 202.24 39.09 201.15 55.64 207.78 55.8 207.85 55.9 207.89 55.98 207.96 56.03 208.05 56.17 208.3 70.04 233.13 73.09 251.39 73.59 254.2 72.17 256.86 69.09 258.87 64.64 261.79 57.88 262.65 54.93 260.68 53.73 259.88 53.24 258.69 53.51 257.24 53.94 255.2 51.61 254.01 50.59 253.6 47.55 252.36 42.92 252.37 41.73 254.24 40.89 255.55 41.98 257.72 44.79 260.34 45.28 260.72 45.24 261.17 45.02 261.46 44.62 262.01 42.71 262.36 39.99 262.36ZM18.29 255.47C18.38 255.47 18.47 255.49 18.55 255.55 27.97 261.98 42.51 261.98 44.19 261 44.19 261 44.18 261 44.18 261 40.11 257.22 40.19 254.97 40.97 253.75 42.43 251.46 47.44 251.34 50.94 252.76 53.54 253.82 54.81 255.52 54.41 257.42 54.21 258.51 54.54 259.34 55.44 259.93 58.09 261.68 64.48 260.8 68.6 258.11 70.54 256.84 72.75 254.67 72.2 251.55 69.3 234.15 56.45 210.67 55.32 208.64 53.65 207.99 38.33 202.1 26.41 203.16 18.38 203.86 11.87 223.14 7.11 237.21 4.29 245.58 2.54 250.57 0.98 251.93 1.85 254.42 4.79 258.26 8.76 259.2 11.93 259.96 15.02 258.75 17.95 255.62 18.05 255.52 18.17 255.47 18.29 255.47Z" fill="#B27161"/></g><g opacity="0.6"><path d="M0.45 251.75C0.56 252.12 0.72 252.52 0.91 252.94 3.18 249.85 6.59 243.9 9.79 233.08 15.22 214.69 17.73 215.94 15.64 229.74 14.15 239.54 13.21 251.44 14.81 258.72 15.95 258.09 17.12 257.19 18.29 255.94 18.59 256.15 18.9 256.35 19.21 256.54 16.2 214.71 35.46 203.62 34.66 227.24 34.12 243.08 37.52 255.28 39.99 261.95 43.43 261.96 45.44 261.42 44.49 260.68 32.51 249.54 55.36 250.65 53.96 257.34 53.55 259.54 55.14 260.76 57.53 261.15 60.35 245.79 50.15 211.59 55.98 215.95 61.43 220.04 69.39 245.66 72.14 254.99 72.65 253.93 72.86 252.76 72.64 251.49 69.57 233.1 55.64 208.3 55.64 208.3 55.64 208.3 39.2 201.62 26.37 202.73 13.55 203.81 4.92 249.24 0.45 251.75ZM43.45 245.61C45.33 237.88 40.73 209.88 46.79 215.73 52.85 221.58 53.48 248.12 53.48 248.12 53.48 252.93 42.19 251.68 43.45 245.61Z" fill="#F58D87"/></g><g><path d="M46.79 215.73C52.85 221.58 53.48 248.12 53.48 248.12 53.48 252.93 42.19 251.68 43.45 245.61 45.33 237.88 40.72 209.87 46.79 215.73Z" fill="none"/><path d="M26.37 202.7C39.2 201.59 55.64 208.27 55.64 208.27 55.64 208.27 56.95 210.59 58.84 214.34 56.17 213.01 52.61 213.1 52.22 222.62 49.3 212.8 41.77 210.08 40.72 219.7 36.34 213.43 25.88 206.53 21.08 218.44 18.95 213.04 16.57 213.54 14.63 216.02 18.05 208.71 21.96 203.08 26.37 202.7Z" fill="#F58D87" opacity="0.6"/></g><g><path d="M17.74 19.32C17.74 19.32 10.64 153.65 31.12 190.44 38.23 204.24 61.22 205.07 75.02 177.06 88.82 149.05 98.24 21.55 98.24 21.55L17.74 19.32Z" fill="#F58D87"/><path d="M46.74 200.24C39.79 200.24 33.81 196.67 30.71 190.65 22.19 175.34 17.33 141.84 16.29 91.09 15.51 53.33 17.26 19.63 17.28 19.29 17.29 19.04 17.5 18.82 17.75 18.86L98.25 21.09C98.37 21.09 98.49 21.15 98.57 21.24 98.65 21.33 98.69 21.46 98.69 21.58 98.66 21.9 96.28 53.87 92.25 88.85 86.83 135.85 81.17 165.59 75.42 177.25 65.27 197.85 52.11 200.18 46.93 200.23 46.87 200.24 46.8 200.24 46.74 200.24ZM18.17 19.79C17.97 23.89 16.47 55.7 17.2 91.08 18.22 140.96 23.17 175.24 31.51 190.22 34.46 195.94 40.14 199.33 46.74 199.33 46.8 199.33 46.86 199.33 46.91 199.33 57.36 199.24 67.71 190.84 74.59 176.85 87.77 150.1 97.08 30.55 97.73 21.99L18.17 19.79Z" fill="#B27161"/></g><g opacity="0.6"><path d="M17.74 19.32 22.22 19.45C20.05 54.36 15.66 142.37 25.68 152.39 32.79 159.92 29.03 60.01 38.23 60.01 47.43 60.01 25.27 172.88 41.57 178.31 57.88 183.74 67.91 108.08 72.51 58.75 77.11 9.43 82.12 78.4 70 131.91 57.88 185.42 76.69 155.74 78.37 104.74 80.04 53.73 86.72 86.34 84.22 120.2 81.93 151.16 96.05 66.46 91.78 21.37L98.25 21.55C98.25 21.55 88.82 149.05 75.03 177.06 61.23 205.07 38.24 204.24 31.13 190.44 10.63 153.65 17.74 19.32 17.74 19.32Z" fill="#F58D87"/></g><path d="M75.7 54.16C75.7 54.16 66.78 161.73 45.6 196.29 45.6 196.29 72.64 170.79 75.7 54.16Z" fill="#F58D87"/><g opacity="0.6"><path d="M33.9 172.6C36.97 190.72 46.16 188.76 55.92 173.71 55.36 185.7 56.75 194.06 70.97 171.2 72.15 175.11 73.71 176.43 75.28 176.45 75.19 176.65 75.1 176.86 75.01 177.06 61.21 205.07 38.22 204.24 31.11 190.44 28.94 186.54 27.08 181.55 25.5 175.75 28.23 176.62 30.99 175.36 33.9 172.6Z" fill="#F58D87"/></g><g><g><radialGradient cx="41.4303" cy="202.717" r="9.5754" gradientUnits="userSpaceOnUse" id="SVGID_8_"><stop offset="0" stop-color="#F7ABA6"/><stop offset="0.1589" stop-color="#F6A09D"/><stop offset="0.4353" stop-color="#F48486"/><stop offset="0.7791" stop-color="#F05863"/></radialGradient><g><radialGradient cx="-22.9692" cy="64.2263" r="47.028" gradientUnits="userSpaceOnUse" id="SVGID_6_" gradientTransform="matrix(0.6499 0.6633 -0.7601 0.7447 112.994 170.715)"><stop offset="0.2086" stop-color="#CC962B"/><stop offset="0.5951" stop-color="#EDE35E"/><stop offset="1" stop-color="#D3A41A"/></radialGradient><path d="M30.38 188.61C30.38 188.61 20.88 196.99 27.41 204.74 33.94 212.48 43.77 215.45 50.67 209.31 57.56 203.17 55.92 200.97 47.05 198.4 38.18 195.84 31.69 192.83 30.38 188.61Z" fill="url(#SVGID_6_)"/><path d="M42.12 213.05C41.79 213.05 41.45 213.04 41.11 213.01 36.16 212.66 31.04 209.75 27.06 205.03 20.32 197.03 29.98 188.35 30.08 188.27 30.19 188.17 30.35 188.14 30.5 188.17 30.65 188.21 30.77 188.33 30.81 188.47 31.92 192.04 37.12 195.06 47.17 197.95 51.7 199.26 54.83 200.58 55.32 202.74 55.72 204.5 54.42 206.56 50.97 209.63 48.44 211.88 45.4 213.05 42.12 213.05ZM30.19 189.41C28.36 191.23 22.36 198.04 27.75 204.44 31.58 208.97 36.47 211.77 41.17 212.1 44.6 212.33 47.76 211.26 50.35 208.95 53.43 206.2 54.72 204.29 54.42 202.94 54.09 201.48 51.84 200.25 46.91 198.82 37 195.97 31.78 193.04 30.19 189.41Z" fill="#9D742B"/></g><g><radialGradient cx="40.019" cy="200.602" r="13.5287" gradientUnits="userSpaceOnUse" id="SVGID_7_"><stop offset="0" stop-color="#F7ABA6"/><stop offset="0.1589" stop-color="#F6A09D"/><stop offset="0.4353" stop-color="#F48486"/><stop offset="0.7791" stop-color="#F05863"/></radialGradient><path d="M30.38 188.61C30.38 188.61 20.88 196.99 27.41 204.74 33.94 212.48 43.77 215.45 50.67 209.31 57.56 203.17 55.92 200.97 47.05 198.4 38.18 195.84 31.69 192.83 30.38 188.61Z" fill="url(#SVGID_7_)"/><path d="M42.12 213.05C41.79 213.05 41.45 213.04 41.11 213.01 36.16 212.66 31.04 209.75 27.06 205.03 20.32 197.03 29.98 188.35 30.08 188.27 30.19 188.17 30.35 188.14 30.5 188.17 30.65 188.21 30.77 188.33 30.81 188.47 31.92 192.04 37.12 195.06 47.17 197.95 51.7 199.26 54.83 200.58 55.32 202.74 55.72 204.5 54.42 206.56 50.97 209.63 48.44 211.88 45.4 213.05 42.12 213.05ZM30.19 189.41C28.36 191.23 22.36 198.04 27.75 204.44 31.58 208.97 36.47 211.77 41.17 212.1 44.6 212.33 47.76 211.26 50.35 208.95 53.43 206.2 54.72 204.29 54.42 202.94 54.09 201.48 51.84 200.25 46.91 198.82 37 195.97 31.78 193.04 30.19 189.41Z" fill="#D11349"/></g><path d="M33.3 195.54C33.3 195.54 37.04 196.19 44 199.32 50.96 202.46 55.79 203.03 50.96 206.44 46.13 209.84 38.9 211.78 33.98 207.16 29.05 202.52 28.42 197.51 33.3 195.54Z" fill="url(#SVGID_8_)" opacity="0.5"/><path d="M37.65 199.34C37.65 199.34 40.15 199.66 44.72 201.55 49.3 203.45 52.54 203.68 49.19 206.11 45.84 208.54 40.92 210.06 37.75 207.1 34.58 204.15 34.31 200.81 37.65 199.34Z" fill="#CC962B" opacity="0.39"/><path d="M48.53 207.8C46.83 209.47 44.21 209.55 42.69 208 41.16 206.45 41.31 203.83 43.02 202.17 44.72 200.5 47.34 200.41 48.86 201.96 50.38 203.52 50.23 206.12 48.53 207.8Z" fill="#CC962B"/><g><radialGradient cx="570.731" cy="-337.445" r="2.016" gradientUnits="userSpaceOnUse" id="SVGID_9_" gradientTransform="matrix(2.4811 0.9072 -1.3595 0.6872 -1828.62 -81.8839)"><stop offset="0.2086" stop-color="#CC962B"/><stop offset="0.5951" stop-color="#EDE35E"/><stop offset="1" stop-color="#D3A41A"/></radialGradient><path d="M49.35 204.65C48.88 206.06 47.08 206.91 45.32 206.55 43.56 206.18 42.52 204.75 43 203.33 43.47 201.92 45.27 201.07 47.03 201.43 48.79 201.8 49.83 203.24 49.35 204.65Z" fill="url(#SVGID_9_)"/><path d="M46.13 207.09C45.84 207.09 45.53 207.06 45.24 207 44.16 206.78 43.27 206.17 42.8 205.35 42.41 204.68 42.34 203.91 42.58 203.19 43.13 201.55 45.12 200.59 47.14 201 48.21 201.22 49.1 201.82 49.58 202.65 49.96 203.32 50.04 204.08 49.8 204.81 49.33 206.17 47.79 207.09 46.13 207.09ZM46.21 201.8C44.93 201.8 43.77 202.46 43.44 203.47 43.28 203.95 43.33 204.45 43.59 204.89 43.93 205.49 44.6 205.93 45.43 206.1 46.96 206.42 48.53 205.7 48.93 204.5L48.93 204.5C49.09 204.02 49.04 203.53 48.78 203.08 48.44 202.48 47.77 202.04 46.95 201.87 46.7 201.83 46.45 201.8 46.21 201.8Z" fill="#9D742B"/></g></g><g><g><radialGradient cx="-156.664" cy="134.882" r="47.0478" gradientUnits="userSpaceOnUse" id="SVGID_10_" gradientTransform="matrix(-0.8711 0.3216 0.3686 0.9982 -148.276 115.398)"><stop offset="0.2086" stop-color="#CC962B"/><stop offset="0.5951" stop-color="#EDE35E"/><stop offset="1" stop-color="#D3A41A"/></radialGradient><path d="M61.26 194.43C61.26 194.43 66.26 206.08 57.05 210.29 47.84 214.49 37.68 212.97 34.08 204.47 30.47 195.97 32.89 194.68 42 196.16 51.11 197.63 58.26 197.69 61.26 194.43Z" fill="url(#SVGID_10_)"/><path d="M47.26 213C45.07 213 42.99 212.64 41.11 211.91 37.68 210.57 35.1 208.06 33.65 204.65 31.84 200.39 31.55 197.98 32.66 196.55 34.03 194.81 37.41 194.96 42.07 195.71 52.4 197.38 58.39 196.88 60.93 194.12 61.03 194.01 61.18 193.96 61.34 193.98 61.49 194 61.62 194.11 61.68 194.25 61.73 194.37 66.74 206.36 57.24 210.7 53.9 212.23 50.47 213 47.26 213ZM36.83 196.09C35.01 196.09 33.92 196.43 33.38 197.11 32.52 198.2 32.88 200.48 34.49 204.29 35.84 207.48 38.24 209.82 41.44 211.06 45.84 212.76 51.46 212.34 56.86 209.88 64.37 206.45 61.93 197.67 61.08 195.24 58.09 197.83 52.11 198.26 41.93 196.6 39.81 196.26 38.14 196.09 36.83 196.09Z" fill="#9D742B"/></g><g><linearGradient x1="32.4699" y1="203.489" x2="62.6146" y2="203.489" gradientUnits="userSpaceOnUse" id="SVGID_11_"><stop offset="0" stop-color="#FFFFFF"/><stop offset="0.0736" stop-color="#FCDDDD"/><stop offset="1" stop-color="#F58D87"/></linearGradient><path d="M61.26 194.43C61.26 194.43 66.26 206.08 57.05 210.29 47.84 214.49 37.68 212.97 34.08 204.47 30.47 195.97 32.89 194.68 42 196.16 51.11 197.63 58.26 197.69 61.26 194.43Z" fill="url(#SVGID_11_)"/><path d="M47.26 213C45.07 213 42.99 212.64 41.11 211.91 37.68 210.57 35.1 208.06 33.65 204.65 31.84 200.39 31.55 197.98 32.66 196.55 34.03 194.81 37.41 194.96 42.07 195.71 52.4 197.38 58.39 196.88 60.93 194.12 61.03 194.01 61.18 193.96 61.34 193.98 61.49 194 61.62 194.11 61.68 194.25 61.73 194.37 66.74 206.36 57.24 210.7 53.9 212.23 50.47 213 47.26 213ZM36.83 196.09C35.01 196.09 33.92 196.43 33.38 197.11 32.52 198.2 32.88 200.48 34.49 204.29 35.84 207.48 38.24 209.82 41.44 211.06 45.84 212.76 51.46 212.34 56.86 209.88 64.37 206.45 61.93 197.67 61.08 195.24 58.09 197.83 52.11 198.26 41.93 196.6 39.81 196.26 38.14 196.09 36.83 196.09Z" fill="#F58D87"/></g><path d="M55.65 199.47C55.65 199.47 52 198.45 44.35 198.31 36.72 198.16 32.11 196.62 35.01 201.76 37.93 206.91 43.63 211.75 50.06 209.68 56.5 207.59 59.22 203.32 55.65 199.47Z" fill="#FEFEFE" opacity="0.2"/><path d="M50.1 201.03C50.1 201.03 47.71 200.25 42.75 200 37.81 199.75 34.78 198.58 36.77 202.21 38.76 205.83 42.55 209.32 46.69 208 50.81 206.69 52.48 203.78 50.1 201.03Z" fill="#FEFEFE" opacity="0.2"/><path d="M36.64 204.02C37.46 206.26 39.78 207.45 41.82 206.71 43.86 205.95 44.85 203.52 44.02 201.29 43.2 199.06 40.88 197.85 38.83 198.6 36.8 199.36 35.81 201.78 36.64 204.02Z" fill="#F58D87" opacity="0.6"/><g><radialGradient cx="520.585" cy="-325.17" r="2.0157" gradientUnits="userSpaceOnUse" id="SVGID_12_" gradientTransform="matrix(-2.6308 -0.241 0.935 1.2026 1713.98 718.098)"><stop offset="0" stop-color="#F7ABA6"/><stop offset="0.1589" stop-color="#F6A09D"/><stop offset="0.4353" stop-color="#F48486"/><stop offset="0.7791" stop-color="#F05863"/></radialGradient><path d="M37.24 200.83C37.06 202.3 38.33 203.84 40.07 204.27 41.82 204.69 43.37 203.83 43.54 202.36 43.73 200.88 42.45 199.34 40.72 198.92 38.97 198.49 37.42 199.35 37.24 200.83Z" fill="url(#SVGID_12_)"/><path d="M40.95 204.83C40.63 204.83 40.3 204.79 39.96 204.71 38 204.23 36.58 202.47 36.78 200.78L36.78 200.78C36.87 200.02 37.27 199.36 37.91 198.92 38.69 198.37 39.76 198.21 40.82 198.47 42.78 198.95 44.2 200.72 43.99 202.41 43.9 203.16 43.51 203.81 42.88 204.25 42.35 204.63 41.67 204.83 40.95 204.83ZM37.69 200.88C37.54 202.13 38.66 203.45 40.18 203.82 41 204.01 41.8 203.9 42.36 203.5 42.78 203.21 43.03 202.79 43.09 202.29 43.25 201.04 42.14 199.71 40.61 199.34 39.79 199.14 39 199.26 38.43 199.65 38.01 199.96 37.75 200.38 37.69 200.88L37.69 200.88Z" fill="#D11349"/></g></g></g><path d="M40.1 214.26C40.1 214.26 41.98 237.87 40.52 248.32 40.52 248.33 45.12 232.03 40.1 214.26Z" fill="#F58D87"/><path d="M22.33 214.47C22.33 214.47 15.02 235.37 16.69 251.05 16.69 251.05 11.67 234.12 22.33 214.47Z" fill="#F58D87"/><g opacity="0.2"><path d="M67.48 60.43C67.48 60.43 64.14 132.33 51.17 156.99 38.22 181.65 38.63 134.42 44.07 83.42 49.51 32.42 67.48 35.34 67.48 60.43Z" fill="#FFF3D3"/><path d="M34.04 49.98C34.04 49.98 29.02 73.39 27.77 104.32 26.51 135.25 20.66 102.23 22.76 72.13 24.84 42.04 34.46 34.93 34.04 49.98Z" fill="#FFF3D3"/></g><g opacity="0.26"><radialGradient cx="-123.093" cy="191.341" r="137.073" gradientUnits="userSpaceOnUse" id="SVGID_13_" gradientTransform="matrix(-1 0 0 1 -70.9918 0)"><stop offset="0.2086" stop-color="#CC962B"/><stop offset="0.5951" stop-color="#EDE35E"/><stop offset="1" stop-color="#D3A41A"/></radialGradient><radialGradient cx="-157.097" cy="196.26" r="125.901" gradientUnits="userSpaceOnUse" id="SVGID_14_" gradientTransform="matrix(-1 0 0 1 -70.9918 0)"><stop offset="0.2086" stop-color="#CC962B"/><stop offset="0.5951" stop-color="#EDE35E"/><stop offset="1" stop-color="#D3A41A"/></radialGradient><radialGradient cx="-132.907" cy="196.981" r="98.8886" gradientUnits="userSpaceOnUse" id="SVGID_15_" gradientTransform="matrix(-1 0 0 1 -70.9918 0)"><stop offset="0.2086" stop-color="#CC962B"/><stop offset="0.5951" stop-color="#EDE35E"/><stop offset="1" stop-color="#D3A41A"/></radialGradient><path d="M31.11 224.71C31.11 224.71 28.88 236.97 32.23 249.52 35.57 262.05 21.92 258.16 21.63 239.48 21.36 220.81 31.39 215.52 31.11 224.71Z" fill="url(#SVGID_13_)"/><path d="M57.03 223.6C57.03 223.6 63.71 241.99 62.04 251.19 60.37 260.39 70.4 254.81 66.78 243.39 63.16 231.96 55.92 218.86 57.03 223.6Z" fill="url(#SVGID_14_)"/><path d="M45.33 223.04C45.33 223.04 47 231.82 46.37 241.43 45.74 251.04 53.27 245.81 50.76 230.77 48.25 215.73 44.28 216.98 45.33 223.04Z" fill="url(#SVGID_15_)"/></g></g></g><g clip-path="url(#SVGID_5_)"><g><g><path d="M216.6 251.46C216.6 251.46 214.3 255.64 215.98 258.98 217.65 262.32 210.96 261.91 211.38 257.94 211.8 253.98 216.6 251.46 216.6 251.46Z" fill="#F48B85"/><path d="M212.89 261.31C211.5 260.66 210.77 259.38 210.93 257.9 211.37 253.73 216.19 251.17 216.4 251.07 216.58 250.97 216.8 251.01 216.93 251.15 217.07 251.3 217.1 251.51 217 251.69 216.98 251.73 214.83 255.7 216.39 258.79 217.01 260.04 216.58 260.77 216.26 261.09 215.87 261.5 215.25 261.7 214.56 261.7 214.02 261.7 213.44 261.57 212.89 261.31ZM211.83 257.99C211.67 259.55 212.79 260.26 213.28 260.49 214.15 260.89 215.19 260.88 215.61 260.45 215.93 260.12 215.77 259.58 215.57 259.19 214.41 256.87 215.01 254.22 215.59 252.65 214.2 253.64 212.09 255.54 211.83 257.99Z" fill="#B27161"/></g><g><path d="M223.71 251.89 222.66 260.66C222.66 260.66 228.3 259.41 228.51 253.97 228.72 248.54 223.71 251.89 223.71 251.89Z" fill="#F48B85"/><path d="M222.36 261C222.25 260.9 222.2 260.75 222.21 260.61L223.25 251.84C223.27 251.71 223.34 251.59 223.45 251.51 223.72 251.34 226.12 249.79 227.72 250.7 228.61 251.2 229.03 252.31 228.97 254 228.75 259.72 222.82 261.1 222.76 261.11 222.73 261.12 222.69 261.12 222.66 261.12 222.55 261.11 222.44 261.07 222.36 261ZM224.13 252.16 223.19 260.03C224.6 259.53 227.9 257.93 228.05 253.96 228.09 253.05 227.98 251.89 227.27 251.49 227.06 251.37 226.82 251.32 226.55 251.32 225.72 251.32 224.68 251.82 224.13 252.16Z" fill="#B27161"/></g><g><path d="M211.52 208.27C211.52 208.27 197.59 233.07 194.52 251.46 192.85 260.93 214.58 264.84 213.2 257.32 211.81 250.63 234.65 249.52 222.67 260.66 220.16 262.62 238.28 263.16 248.87 255.92 257.23 264.84 265.31 256.48 266.71 251.74 262.24 249.23 253.61 203.81 240.79 202.69 227.96 201.59 211.52 208.27 211.52 208.27Z" fill="#F58D87"/><path d="M222.12 261.44C221.91 261.15 221.87 260.7 222.35 260.32 225.16 257.7 226.25 255.54 225.41 254.22 224.22 252.35 219.6 252.34 216.55 253.58 215.53 254 213.2 255.18 213.63 257.22 213.9 258.68 213.41 259.87 212.21 260.66 209.26 262.62 202.51 261.76 198.05 258.85 194.98 256.84 193.56 254.18 194.05 251.37 197.1 233.1 210.97 208.27 211.11 208.03 211.16 207.94 211.24 207.87 211.34 207.83 211.51 207.77 228.06 201.13 240.81 202.22 249.44 202.97 256.06 222.58 260.89 236.89 263.26 243.91 265.5 250.53 266.91 251.33 267.1 251.44 267.18 251.65 267.12 251.86 266.3 254.62 263.12 258.99 258.58 260.07 256.22 260.63 252.63 260.45 248.78 256.5 242.26 260.8 232.89 262.34 227.15 262.34 224.44 262.36 222.53 262.01 222.12 261.44ZM249.19 255.61C252.12 258.74 255.21 259.96 258.38 259.19 262.35 258.25 265.29 254.41 266.16 251.92 264.6 250.57 262.86 245.57 260.03 237.2 255.28 223.13 248.76 203.85 240.73 203.15 228.82 202.09 213.49 207.98 211.82 208.63 210.7 210.66 197.85 234.14 194.95 251.54 194.4 254.66 196.6 256.83 198.55 258.1 202.67 260.79 209.06 261.67 211.71 259.92 212.6 259.33 212.94 258.5 212.74 257.41 212.34 255.51 213.61 253.81 216.21 252.75 219.71 251.33 224.71 251.45 226.18 253.74 226.96 254.96 227.03 257.21 222.97 260.99 222.97 260.99 222.97 260.99 222.96 260.99 224.63 261.97 239.18 261.97 248.6 255.54 248.68 255.49 248.77 255.46 248.86 255.46 248.98 255.47 249.1 255.52 249.19 255.61Z" fill="#B27161"/></g><g opacity="0.6"><path d="M240.78 202.7C227.95 201.59 211.51 208.27 211.51 208.27 211.51 208.27 197.58 233.07 194.51 251.46 194.29 252.74 194.5 253.9 195.01 254.96 197.76 245.63 205.72 220.02 211.17 215.92 217 211.55 206.79 245.75 209.62 261.12 212.01 260.73 213.6 259.52 213.19 257.31 211.8 250.62 234.64 249.51 222.66 260.65 221.71 261.39 223.72 261.93 227.16 261.92 229.63 255.26 233.02 243.05 232.49 227.21 231.68 203.59 250.94 214.68 247.94 256.51 248.25 256.32 248.56 256.12 248.86 255.91 250.03 257.17 251.2 258.06 252.34 258.69 253.94 251.41 252.99 239.51 251.51 229.71 249.42 215.91 251.93 214.66 257.36 233.05 260.56 243.88 263.97 249.83 266.24 252.91 266.43 252.49 266.59 252.09 266.7 251.72 262.23 249.24 253.6 203.81 240.78 202.7ZM213.67 248.12C213.67 248.12 214.3 221.58 220.36 215.73 226.42 209.88 221.82 237.88 223.7 245.61 224.96 251.68 213.67 252.93 213.67 248.12Z" fill="#F58D87"/></g><g><path d="M220.37 215.73C214.31 221.58 213.68 248.12 213.68 248.12 213.68 252.93 224.97 251.68 223.71 245.61 221.83 237.88 226.43 209.87 220.37 215.73Z" fill="none"/><path d="M240.78 202.7C227.95 201.59 211.51 208.27 211.51 208.27 211.51 208.27 210.2 210.59 208.31 214.34 210.98 213.01 214.54 213.1 214.93 222.62 217.85 212.8 225.38 210.08 226.43 219.7 230.81 213.43 241.27 206.53 246.07 218.44 248.2 213.04 250.58 213.54 252.52 216.02 249.1 208.71 245.19 203.08 240.78 202.7Z" fill="#F58D87" opacity="0.6"/></g><g><path d="M249.42 19.32C249.42 19.32 256.52 153.65 236.04 190.44 228.93 204.24 205.94 205.07 192.14 177.06 178.34 149.05 168.92 21.55 168.92 21.55L249.42 19.32Z" fill="#F58D87"/><path d="M220.23 200.24C215.05 200.19 201.89 197.86 191.74 177.26 186 165.6 180.34 135.86 174.91 88.86 170.87 53.88 168.49 21.91 168.47 21.59 168.46 21.47 168.51 21.34 168.59 21.25 168.67 21.16 168.79 21.1 168.91 21.1L249.41 18.87C249.66 18.83 249.86 19.05 249.88 19.3 249.9 19.64 251.65 53.34 250.87 91.1 249.83 141.84 244.97 175.35 236.45 190.66 233.35 196.68 227.37 200.25 220.42 200.25 220.35 200.24 220.29 200.24 220.23 200.24ZM169.41 21.99C170.06 30.55 179.37 150.11 192.55 176.85 199.44 190.83 209.79 199.23 220.23 199.33 220.29 199.33 220.35 199.33 220.4 199.33 227 199.33 232.69 195.94 235.63 190.22 243.97 175.24 248.92 140.96 249.94 91.08 250.67 55.7 249.17 23.89 248.97 19.79L169.41 21.99Z" fill="#B27161"/></g><g opacity="0.6"><path d="M249.42 19.32 244.94 19.45C247.11 54.36 251.5 142.37 241.48 152.39 234.37 159.92 238.13 60.01 228.93 60.01 219.73 60.01 241.89 172.88 225.59 178.31 209.28 183.74 199.25 108.08 194.65 58.75 190.05 9.43 185.04 78.4 197.16 131.91 209.28 185.42 190.47 155.74 188.79 104.74 187.12 53.73 180.44 86.34 182.94 120.2 185.23 151.16 171.11 66.46 175.38 21.37L168.91 21.55C168.91 21.55 178.34 149.05 192.13 177.06 205.93 205.07 228.92 204.24 236.03 190.44 256.52 153.65 249.42 19.32 249.42 19.32Z" fill="#F58D87"/></g><path d="M191.45 54.16C191.45 54.16 200.37 161.73 221.55 196.29 221.55 196.29 194.51 170.79 191.45 54.16Z" fill="#F58D87"/><g opacity="0.6"><path d="M233.25 172.6C230.18 190.72 220.99 188.76 211.23 173.71 211.79 185.7 210.4 194.06 196.18 171.2 195 175.11 193.44 176.43 191.87 176.45 191.96 176.65 192.05 176.86 192.14 177.06 205.94 205.07 228.93 204.24 236.04 190.44 238.21 186.54 240.07 181.55 241.65 175.75 238.92 176.62 236.16 175.36 233.25 172.6Z" fill="#F58D87"/></g><g><g><radialGradient cx="-105.702" cy="202.717" r="9.5754" gradientUnits="userSpaceOnUse" id="SVGID_18_" gradientTransform="matrix(-1 0 0 1 120.021 0)"><stop offset="0" stop-color="#F7ABA6"/><stop offset="0.1589" stop-color="#F6A09D"/><stop offset="0.4353" stop-color="#F48486"/><stop offset="0.7791" stop-color="#F05863"/></radialGradient><g><radialGradient cx="-133.852" cy="162.989" r="47.0279" gradientUnits="userSpaceOnUse" id="SVGID_16_" gradientTransform="matrix(-0.6499 0.6633 0.7601 0.7447 7.0265 170.715)"><stop offset="0.2086" stop-color="#CC962B"/><stop offset="0.5951" stop-color="#EDE35E"/><stop offset="1" stop-color="#D3A41A"/></radialGradient><path d="M236.78 188.61C236.78 188.61 246.28 196.99 239.75 204.74 233.22 212.48 223.39 215.45 216.49 209.31 209.6 203.17 211.24 200.97 220.11 198.4 228.98 195.84 235.46 192.83 236.78 188.61Z" fill="url(#SVGID_16_)"/><path d="M216.19 209.64C212.74 206.57 211.44 204.5 211.84 202.75 212.33 200.59 215.45 199.27 219.99 197.96 230.04 195.06 235.23 192.05 236.35 188.48 236.39 188.33 236.51 188.22 236.66 188.18 236.81 188.14 236.97 188.18 237.08 188.28 237.18 188.37 246.84 197.05 240.1 205.04 236.11 209.76 230.99 212.67 226.05 213.02 225.71 213.05 225.37 213.06 225.04 213.06 221.75 213.05 218.71 211.88 216.19 209.64ZM220.24 198.83C215.31 200.25 213.06 201.49 212.73 202.95 212.42 204.3 213.71 206.21 216.8 208.96 219.39 211.27 222.55 212.34 225.98 212.11 230.69 211.78 235.58 208.98 239.4 204.45 244.79 198.05 238.8 191.24 236.96 189.42 235.37 193.04 230.15 195.97 220.24 198.83Z" fill="#9D742B"/></g><g><radialGradient cx="-107.113" cy="200.602" r="13.5287" gradientUnits="userSpaceOnUse" id="SVGID_17_" gradientTransform="matrix(-1 0 0 1 120.021 0)"><stop offset="0" stop-color="#F7ABA6"/><stop offset="0.1589" stop-color="#F6A09D"/><stop offset="0.4353" stop-color="#F48486"/><stop offset="0.7791" stop-color="#F05863"/></radialGradient><path d="M236.78 188.61C236.78 188.61 246.28 196.99 239.75 204.74 233.22 212.48 223.39 215.45 216.49 209.31 209.6 203.17 211.24 200.97 220.11 198.4 228.98 195.84 235.46 192.83 236.78 188.61Z" fill="url(#SVGID_17_)"/><path d="M216.19 209.64C212.74 206.57 211.44 204.5 211.84 202.75 212.33 200.59 215.45 199.27 219.99 197.96 230.04 195.06 235.23 192.05 236.35 188.48 236.39 188.33 236.51 188.22 236.66 188.18 236.81 188.14 236.97 188.18 237.08 188.28 237.18 188.37 246.84 197.05 240.1 205.04 236.11 209.76 230.99 212.67 226.05 213.02 225.71 213.05 225.37 213.06 225.04 213.06 221.75 213.05 218.71 211.88 216.19 209.64ZM220.24 198.83C215.31 200.25 213.06 201.49 212.73 202.95 212.42 204.3 213.71 206.21 216.8 208.96 219.39 211.27 222.55 212.34 225.98 212.11 230.69 211.78 235.58 208.98 239.4 204.45 244.79 198.05 238.8 191.24 236.96 189.42 235.37 193.04 230.15 195.97 220.24 198.83Z" fill="#D11349"/></g><path d="M233.85 195.54C233.85 195.54 230.11 196.19 223.15 199.32 216.19 202.46 211.36 203.03 216.19 206.44 221.02 209.84 228.25 211.78 233.17 207.16 238.11 202.52 238.73 197.51 233.85 195.54Z" fill="url(#SVGID_18_)" opacity="0.5"/><path d="M229.51 199.34C229.51 199.34 227.01 199.66 222.44 201.55 217.86 203.45 214.62 203.68 217.97 206.11 221.32 208.54 226.24 210.06 229.42 207.1 232.58 204.15 232.84 200.81 229.51 199.34Z" fill="#CC962B" opacity="0.39"/><path d="M218.62 207.8C220.32 209.47 222.94 209.55 224.46 208 225.99 206.45 225.84 203.83 224.13 202.17 222.43 200.5 219.81 200.41 218.29 201.96 216.77 203.52 216.92 206.12 218.62 207.8Z" fill="#CC962B"/><g><radialGradient cx="536.32" cy="-292.018" r="2.0159" gradientUnits="userSpaceOnUse" id="SVGID_19_" gradientTransform="matrix(-2.4811 0.9072 1.3595 0.6872 1948.64 -81.8839)"><stop offset="0.2086" stop-color="#CC962B"/><stop offset="0.5951" stop-color="#EDE35E"/><stop offset="1" stop-color="#D3A41A"/></radialGradient><path d="M217.8 204.65C218.27 206.06 220.07 206.91 221.83 206.55 223.59 206.18 224.63 204.75 224.15 203.33 223.68 201.92 221.88 201.07 220.12 201.43 218.36 201.8 217.33 203.24 217.8 204.65Z" fill="url(#SVGID_19_)"/><path d="M217.37 204.8C217.13 204.08 217.21 203.31 217.59 202.64 218.06 201.82 218.95 201.22 220.03 200.99 222.05 200.58 224.04 201.54 224.59 203.18 224.83 203.9 224.76 204.67 224.37 205.34 223.9 206.16 223.01 206.77 221.93 206.99 221.63 207.05 221.33 207.08 221.04 207.08 219.37 207.09 217.83 206.17 217.37 204.8ZM220.21 201.88C219.39 202.05 218.72 202.49 218.38 203.09 218.12 203.54 218.07 204.03 218.23 204.51L218.23 204.51C218.63 205.71 220.2 206.43 221.73 206.11 222.56 205.94 223.23 205.49 223.57 204.9 223.83 204.45 223.88 203.96 223.72 203.48 223.39 202.48 222.22 201.81 220.95 201.81 220.7 201.8 220.46 201.83 220.21 201.88Z" fill="#9D742B"/></g></g><g><g><radialGradient cx="-8.0233" cy="86.9929" r="47.0478" gradientUnits="userSpaceOnUse" id="SVGID_20_" gradientTransform="matrix(0.8711 0.3216 -0.3686 0.9982 268.296 115.398)"><stop offset="0.2086" stop-color="#CC962B"/><stop offset="0.5951" stop-color="#EDE35E"/><stop offset="1" stop-color="#D3A41A"/></radialGradient><path d="M205.89 194.43C205.89 194.43 200.89 206.08 210.1 210.29 219.31 214.49 229.47 212.97 233.07 204.47 236.68 195.97 234.26 194.68 225.15 196.16 216.05 197.63 208.89 197.69 205.89 194.43Z" fill="url(#SVGID_20_)"/><path d="M209.92 210.7C200.41 206.36 205.43 194.37 205.48 194.25 205.54 194.11 205.67 194 205.82 193.98 205.98 193.95 206.13 194.01 206.23 194.12 208.76 196.88 214.76 197.37 225.09 195.71 229.74 194.96 233.13 194.81 234.5 196.55 235.61 197.97 235.32 200.39 233.51 204.65 232.06 208.07 229.48 210.58 226.05 211.91 224.17 212.64 222.09 213 219.9 213 216.69 213 213.26 212.23 209.92 210.7ZM225.23 196.61C215.04 198.27 209.07 197.84 206.08 195.25 205.23 197.68 202.79 206.46 210.3 209.89 215.7 212.35 221.32 212.78 225.72 211.07 228.92 209.83 231.32 207.49 232.67 204.3 234.29 200.5 234.64 198.21 233.78 197.12 233.24 196.43 232.15 196.1 230.33 196.1 229.02 196.09 227.34 196.26 225.23 196.61Z" fill="#9D742B"/></g><g><linearGradient x1="-114.662" y1="203.489" x2="-84.5178" y2="203.489" gradientUnits="userSpaceOnUse" id="SVGID_21_" gradientTransform="matrix(-1 0 0 1 120.021 0)"><stop offset="0" stop-color="#FFFFFF"/><stop offset="0.0736" stop-color="#FCDDDD"/><stop offset="1" stop-color="#F58D87"/></linearGradient><path d="M205.89 194.43C205.89 194.43 200.89 206.08 210.1 210.29 219.31 214.49 229.47 212.97 233.07 204.47 236.68 195.97 234.26 194.68 225.15 196.16 216.05 197.63 208.89 197.69 205.89 194.43Z" fill="url(#SVGID_21_)"/><path d="M209.92 210.7C200.41 206.36 205.43 194.37 205.48 194.25 205.54 194.11 205.67 194 205.82 193.98 205.98 193.95 206.13 194.01 206.23 194.12 208.76 196.88 214.76 197.37 225.09 195.71 229.74 194.96 233.13 194.81 234.5 196.55 235.61 197.97 235.32 200.39 233.51 204.65 232.06 208.07 229.48 210.58 226.05 211.91 224.17 212.64 222.09 213 219.9 213 216.69 213 213.26 212.23 209.92 210.7ZM225.23 196.61C215.04 198.27 209.07 197.84 206.08 195.25 205.23 197.68 202.79 206.46 210.3 209.89 215.7 212.35 221.32 212.78 225.72 211.07 228.92 209.83 231.32 207.49 232.67 204.3 234.29 200.5 234.64 198.21 233.78 197.12 233.24 196.43 232.15 196.1 230.33 196.1 229.02 196.09 227.34 196.26 225.23 196.61Z" fill="#F58D87"/></g><path d="M211.51 199.47C211.51 199.47 215.16 198.45 222.81 198.31 230.44 198.16 235.05 196.62 232.15 201.76 229.23 206.91 223.53 211.75 217.1 209.68 210.65 207.59 207.94 203.32 211.51 199.47Z" fill="#FEFEFE" opacity="0.2"/><path d="M217.06 201.03C217.06 201.03 219.46 200.25 224.41 200 229.35 199.75 232.38 198.58 230.39 202.21 228.4 205.83 224.61 209.32 220.47 208 216.34 206.69 214.68 203.78 217.06 201.03Z" fill="#FEFEFE" opacity="0.2"/><path d="M230.51 204.02C229.69 206.26 227.37 207.45 225.33 206.71 223.29 205.95 222.3 203.52 223.13 201.29 223.95 199.06 226.27 197.85 228.32 198.6 230.36 199.36 231.35 201.78 230.51 204.02Z" fill="#F58D87" opacity="0.6"/><g><radialGradient cx="580.801" cy="-313.102" r="2.0157" gradientUnits="userSpaceOnUse" id="SVGID_22_" gradientTransform="matrix(2.6308 -0.241 -0.935 1.2026 -1593.96 718.098)"><stop offset="0" stop-color="#F7ABA6"/><stop offset="0.1589" stop-color="#F6A09D"/><stop offset="0.4353" stop-color="#F48486"/><stop offset="0.7791" stop-color="#F05863"/></radialGradient><path d="M229.91 200.83C230.09 202.3 228.82 203.84 227.08 204.27 225.33 204.69 223.78 203.83 223.61 202.36 223.42 200.88 224.7 199.34 226.43 198.92 228.18 198.49 229.73 199.35 229.91 200.83Z" fill="url(#SVGID_22_)"/><path d="M224.27 204.25C223.64 203.81 223.25 203.15 223.16 202.41 222.95 200.72 224.37 198.95 226.33 198.47 227.39 198.21 228.46 198.37 229.24 198.92 229.88 199.36 230.28 200.02 230.37 200.78L230.37 200.78C230.57 202.47 229.15 204.24 227.19 204.71 226.86 204.79 226.53 204.83 226.2 204.83 225.48 204.83 224.81 204.63 224.27 204.25ZM229.46 200.88C229.4 200.38 229.14 199.96 228.72 199.66 228.16 199.27 227.36 199.14 226.54 199.35 225.01 199.72 223.9 201.04 224.06 202.3 224.12 202.8 224.37 203.22 224.79 203.51 225.35 203.91 226.15 204.01 226.97 203.83 228.5 203.45 229.61 202.13 229.46 200.88L229.46 200.88Z" fill="#D11349"/></g></g></g><path d="M227.06 214.26C227.06 214.26 225.18 237.87 226.64 248.32 226.63 248.33 222.04 232.03 227.06 214.26Z" fill="#F58D87"/><path d="M244.82 214.47C244.82 214.47 252.13 235.37 250.46 251.05 250.46 251.05 255.48 234.12 244.82 214.47Z" fill="#F58D87"/><g opacity="0.2"><path d="M199.67 60.43C199.67 60.43 203.01 132.33 215.98 156.99 228.93 181.65 228.52 134.42 223.08 83.42 217.65 32.42 199.67 35.34 199.67 60.43Z" fill="#FFF3D3"/><path d="M233.11 49.98C233.11 49.98 238.13 73.39 239.38 104.32 240.64 135.25 246.49 102.23 244.39 72.13 242.31 42.04 232.69 34.93 233.11 49.98Z" fill="#FFF3D3"/></g><g opacity="0.26"><radialGradient cx="24.0401" cy="191.341" r="137.073" gradientUnits="userSpaceOnUse" id="SVGID_23_" gradientTransform="translate(191.013 0)"><stop offset="0.2086" stop-color="#CC962B"/><stop offset="0.5951" stop-color="#EDE35E"/><stop offset="1" stop-color="#D3A41A"/></radialGradient><radialGradient cx="-9.965" cy="196.26" r="125.901" gradientUnits="userSpaceOnUse" id="SVGID_24_" gradientTransform="translate(191.013 0)"><stop offset="0.2086" stop-color="#CC962B"/><stop offset="0.5951" stop-color="#EDE35E"/><stop offset="1" stop-color="#D3A41A"/></radialGradient><radialGradient cx="14.225" cy="196.981" r="98.8886" gradientUnits="userSpaceOnUse" id="SVGID_25_" gradientTransform="translate(191.013 0)"><stop offset="0.2086" stop-color="#CC962B"/><stop offset="0.5951" stop-color="#EDE35E"/><stop offset="1" stop-color="#D3A41A"/></radialGradient><path d="M236.04 224.71C236.04 224.71 238.27 236.97 234.92 249.52 231.58 262.05 245.23 258.16 245.52 239.48 245.79 220.81 235.76 215.52 236.04 224.71Z" fill="url(#SVGID_23_)"/><path d="M210.12 223.6C210.12 223.6 203.44 241.99 205.11 251.19 206.78 260.39 196.75 254.81 200.37 243.39 204 231.96 211.23 218.86 210.12 223.6Z" fill="url(#SVGID_24_)"/><path d="M221.83 223.04C221.83 223.04 220.16 231.82 220.79 241.43 221.42 251.04 213.89 245.81 216.4 230.77 218.9 215.73 222.87 216.98 221.83 223.04Z" fill="url(#SVGID_25_)"/></g></g></g></g></g><g><g><g><g><g><path d="M161.34 256.23C161.34 256.23 168.14 256.71 169.79 251.83 170.27 250.4 165.58 243.67 164.9 242.29 162.44 237.29 159.68 233.28 158.08 227.79 157.43 225.55 156.89 223.33 156.53 221.01 156.27 219.32 156.08 217.64 155.87 215.96 154.86 207.87 153.66 199.87 143.62 199.41 143.62 199.41 143.95 226.87 146.18 233.57 148.41 240.26 154.95 247.73 161.34 256.23Z" fill="#5E5E5C"/><g><path d="M169.83 251.56C169.83 251.48 169.82 251.39 169.8 251.29 169.8 251.29 169.8 251.28 169.8 251.27 169.78 251.18 169.76 251.07 169.73 250.96 169.72 250.93 169.71 250.9 169.71 250.88 169.67 250.76 169.63 250.65 169.59 250.52 169.59 250.51 169.58 250.49 169.58 250.48 169.53 250.36 169.48 250.24 169.43 250.11 169.42 250.08 169.4 250.04 169.39 250.01 169.33 249.87 169.26 249.73 169.19 249.58 169.18 249.56 169.17 249.54 169.16 249.52 169.1 249.39 169.03 249.25 168.96 249.11 168.94 249.07 168.92 249.03 168.9 248.99 168.82 248.83 168.74 248.68 168.65 248.52 168.64 248.49 168.62 248.46 168.6 248.43 168.52 248.29 168.44 248.15 168.36 248 168.34 247.96 168.31 247.91 168.29 247.87 168.2 247.71 168.11 247.54 168.01 247.38 167.99 247.34 167.97 247.3 167.95 247.27 167.87 247.13 167.79 247 167.71 246.86 167.68 246.81 167.65 246.77 167.63 246.72 167.53 246.56 167.44 246.4 167.34 246.24 167.31 246.2 167.29 246.15 167.26 246.11 167.18 245.98 167.11 245.85 167.03 245.73 167 245.68 166.97 245.63 166.94 245.58 166.85 245.44 166.76 245.3 166.68 245.16 166.63 245.08 166.58 245 166.53 244.92 166.49 244.86 166.45 244.79 166.41 244.73 166.27 244.51 166.14 244.29 166.01 244.09 166.3 245.79 166.12 247.46 165.06 248.7 162.18 252.06 157.62 245.22 154.98 240.54 152.34 235.86 154.26 221.94 153.66 218.1 153.19 215.1 152.65 207.03 152.43 203.66 152.43 203.66 152.43 203.66 152.43 203.65 150.7 201.23 148.01 199.61 143.66 199.42 143.66 199.42 143.99 226.88 146.22 233.58 148.45 240.27 154.98 247.74 161.37 256.24 161.37 256.24 168.17 256.72 169.82 251.84 169.84 251.78 169.85 251.71 169.85 251.63 169.83 251.6 169.83 251.58 169.83 251.56Z" fill="#5E5E5C" opacity="0.4"/><path d="M156.39 227.81C156.6 230.38 159.68 234.09 161.7 236.22 160.3 233.59 159.01 230.93 158.09 227.79 157.71 226.5 157.38 225.22 157.09 223.92 156.63 225.43 156.31 226.87 156.39 227.81Z" fill="#5E5E5C" opacity="0.4"/></g><g><g><path d="M163.47 239.33C163.42 239.35 163.21 238.98 162.87 238.45 162.54 237.91 162.05 237.22 161.54 236.55 161.03 235.88 160.5 235.22 160.1 234.72 159.7 234.22 159.44 233.89 159.44 233.89 159.44 233.89 159.2 233.54 158.83 233.02 158.47 232.49 158 231.77 157.58 231.03 157.17 230.28 156.8 229.49 156.61 228.88 156.41 228.27 156.34 227.84 156.38 227.83 156.43 227.81 156.58 228.21 156.85 228.78 157.11 229.35 157.53 230.08 157.98 230.78 158.44 231.48 158.94 232.15 159.33 232.66 159.72 233.16 159.98 233.49 159.98 233.49 159.98 233.49 160.23 233.84 160.6 234.35 160.97 234.87 161.46 235.57 161.93 236.28 162.39 237 162.83 237.74 163.1 238.33 163.37 238.9 163.5 239.31 163.47 239.33Z" fill="#5E5E5C"/></g><g><path d="M169.23 252.29C169.25 252.3 169.15 252.49 168.97 252.82 168.8 253.15 168.48 253.59 168.07 254.09 167.84 254.32 167.63 254.6 167.33 254.83 167.19 254.95 167.04 255.07 166.89 255.2 166.73 255.32 166.56 255.42 166.39 255.53 166.06 255.77 165.65 255.91 165.26 256.1 165.06 256.17 164.84 256.22 164.63 256.29L164.31 256.38 163.98 256.43C163.13 256.6 162.16 256.53 161.38 256.14 160.6 255.75 160.07 255.14 159.66 254.64 159.25 254.13 158.95 253.7 158.72 253.4 158.5 253.11 158.37 252.95 158.37 252.95 158.37 252.95 158.25 252.78 158.02 252.5 157.78 252.21 157.45 251.8 157.05 251.31 156.25 250.31 155.19 248.99 154.2 247.6 153.21 246.21 152.27 244.79 151.67 243.66 151.35 243.11 151.13 242.62 150.97 242.29 150.81 241.95 150.73 241.76 150.75 241.75 150.77 241.74 150.89 241.92 151.09 242.23 151.29 242.54 151.54 243.01 151.9 243.53 152.57 244.61 153.56 245.97 154.59 247.31 155.62 248.65 156.72 249.94 157.53 250.91 157.94 251.39 158.29 251.79 158.53 252.07 158.78 252.36 158.91 252.53 158.91 252.53 158.91 252.53 159.04 252.7 159.26 253.01 159.48 253.31 159.78 253.76 160.15 254.25 160.53 254.74 160.99 255.29 161.64 255.64 162.28 255.99 163.1 256.09 163.91 255.95L164.22 255.92 164.52 255.85C164.72 255.8 164.92 255.76 165.11 255.7 165.48 255.54 165.87 255.42 166.19 255.21 166.36 255.11 166.53 255.02 166.68 254.92 166.83 254.81 166.98 254.7 167.12 254.59 167.42 254.39 167.64 254.13 167.88 253.92 168.75 253 169.17 252.25 169.23 252.29Z" fill="#5E5E5C"/></g><g><path d="M161.07 235.85C161.05 235.86 160.92 235.61 160.71 235.16 160.51 234.71 160.22 234.07 159.87 233.29 159.55 232.51 159.2 231.59 158.81 230.6 158.45 229.6 158.11 228.52 157.74 227.45 157.12 225.27 156.6 223.06 156.36 221.38 156.23 220.54 156.08 219.85 156.04 219.35 155.99 218.86 155.96 218.58 155.96 218.58 155.96 218.58 155.86 217.46 155.71 215.77 155.64 214.1 155.37 211.88 154.84 209.72 154.45 207.5 153.16 205.64 152.27 204.22 151.81 203.51 151.44 202.91 151.21 202.48 150.98 202.04 150.86 201.79 150.88 201.78 150.9 201.77 151.06 202 151.33 202.41 151.6 202.82 152 203.39 152.49 204.08 152.98 204.77 153.55 205.57 154.08 206.5 154.35 206.96 154.58 207.46 154.81 207.98 154.97 208.51 155.14 209.06 155.31 209.6 155.91 211.79 156.23 214.04 156.34 215.74 156.52 217.41 156.64 218.52 156.64 218.52 156.64 218.52 156.66 218.8 156.71 219.29 156.75 219.78 156.88 220.47 156.99 221.3 157.19 222.97 157.66 225.16 158.22 227.33 158.55 228.4 158.86 229.48 159.18 230.48 159.53 231.48 159.85 232.41 160.13 233.21 160.43 234 160.68 234.66 160.85 235.12 161 235.57 161.09 235.84 161.07 235.85Z" fill="#5E5E5C"/></g></g><g><path d="M156.69 233.38C156.9 233.27 157.24 233.51 157.44 233.92 157.65 234.32 157.64 234.74 157.43 234.84 157.22 234.95 156.89 234.71 156.68 234.31 156.48 233.9 156.48 233.49 156.69 233.38Z" fill="#5E5E5C"/><path d="M155.49 230.12C155.84 230 156.31 230.45 156.55 231.13 156.79 231.81 156.7 232.46 156.35 232.58 156 232.7 155.53 232.25 155.29 231.57 155.06 230.9 155.15 230.24 155.49 230.12Z" fill="#5E5E5C"/></g></g><path d="M161.38 256.13C161.37 256.16 161.38 256.2 161.38 256.23 161.9 256.26 168.21 256.51 169.79 251.83 169.81 251.77 169.82 251.7 169.82 251.62 169.82 251.6 169.82 251.58 169.82 251.56 169.82 251.48 169.81 251.39 169.79 251.29 169.79 251.29 169.79 251.28 169.79 251.27 169.77 251.18 169.75 251.07 169.72 250.96 169.71 250.93 169.7 250.9 169.7 250.88 169.69 250.83 169.67 250.79 169.65 250.74 164.12 250.88 161.38 256.13 161.38 256.13Z" fill="#5E5E5C"/><g><path d="M169.71 250.45C169.72 250.52 168.51 250.8 167.36 251.26 166.8 251.52 166.23 251.76 165.85 252.02 165.65 252.14 165.49 252.23 165.37 252.3 165.25 252.36 165.2 252.42 165.2 252.42 165.2 252.42 164.95 252.6 164.58 252.86 164.38 252.98 164.19 253.16 163.98 253.36 163.78 253.56 163.53 253.74 163.34 253.98 163.15 254.22 162.95 254.45 162.77 254.67 162.67 254.78 162.59 254.89 162.53 255.01 162.46 255.12 162.39 255.23 162.33 255.33 162.08 255.72 161.9 255.98 161.87 255.97 161.84 255.96 161.97 255.67 162.17 255.25 162.22 255.14 162.28 255.03 162.34 254.91 162.4 254.79 162.47 254.66 162.56 254.54 162.73 254.3 162.92 254.04 163.1 253.78 163.28 253.52 163.53 253.31 163.73 253.09 163.94 252.87 164.13 252.67 164.33 252.54 164.71 252.25 164.96 252.05 164.96 252.05 164.96 252.05 165.02 251.99 165.14 251.93 165.26 251.86 165.44 251.77 165.65 251.66 166.06 251.41 166.66 251.19 167.25 250.96 168.45 250.57 169.7 250.4 169.71 250.45Z" fill="#5E5E5C"/></g></g></g><g><g><path d="M115.94 201.58C116.29 201.27 124.3 197.1 131.29 196.46 138.28 195.82 144.36 198.22 148.92 200.78 150.98 214.92 151.77 214.89 150.59 231.02 149.68 243.5 149.83 246.06 149.83 246.06 149.83 246.06 150.74 247.98 150.13 249.1 149.52 250.22 143.75 254.38 135.09 254.38 125.44 254.38 119.29 250.38 119.29 250.38 119.14 249.34 119.52 248.54 120.13 247.18 120.43 246.22 117.62 223.82 117.62 223.82 117.62 223.82 112.75 204.46 115.94 201.58Z" fill="#5E5E5C"/><path d="M150.13 249.1C150.6 248.23 150.16 246.87 149.93 246.32 136.15 255.82 123.53 249.64 119.97 247.51 119.45 248.68 119.14 249.43 119.28 250.39 119.28 250.39 125.43 254.39 135.08 254.39 143.75 254.38 149.52 250.22 150.13 249.1Z" fill="#5E5E5C"/><path d="M131.29 196.46C124.3 197.1 116.29 201.27 115.94 201.58 115.5 201.97 115.22 202.68 115.05 203.6 115.71 203.87 116.38 203.9 117 203.5L126.12 199.02C126.12 199.02 130.07 202.57 134.33 201.74 138.85 200.86 138.85 198.22 138.85 198.22L149.01 201.43C148.95 201.01 148.92 200.78 148.92 200.78 144.36 198.22 138.28 195.82 131.29 196.46Z" fill="#5E5E5C"/><g opacity="0.4"><g><path d="M134.02 203.5C134.03 203.59 133.01 203.75 131.97 203.67 130.93 203.61 129.92 203.3 129.92 203.3 129.92 203.3 129.67 203.2 129.32 203.04 128.96 202.86 128.5 202.61 128.08 202.28 127.66 201.95 127.28 201.57 127.05 201.23 126.82 200.9 126.71 200.65 126.74 200.63 126.78 200.6 126.96 200.79 127.24 201.05 127.51 201.32 127.92 201.62 128.34 201.88 129.19 202.4 130.14 202.66 130.14 202.66 130.14 202.66 131.06 203.02 132.04 203.2 133.01 203.39 134.02 203.41 134.02 203.5Z" fill="#5E5E5C"/></g><g><path d="M140.1 200.94C140.16 201 139.6 201.78 138.9 202.44 138.19 203.09 137.37 203.59 137.37 203.59 137.37 203.59 137.15 203.68 136.82 203.82 136.66 203.89 136.46 203.97 136.25 204.02 136.04 204.08 135.81 204.15 135.58 204.21 134.65 204.41 133.72 204.37 133.72 204.29 133.72 204.18 134.62 204.05 135.46 203.75 135.67 203.67 135.87 203.58 136.07 203.5 136.27 203.43 136.44 203.34 136.59 203.25 136.88 203.09 137.08 202.99 137.08 202.99 137.08 202.99 137.88 202.59 138.63 202.06 139.36 201.53 140.03 200.87 140.1 200.94Z" fill="#5E5E5C"/></g><g><path d="M138.74 249.42C138.75 249.46 138.25 249.65 137.46 249.85 136.67 250.05 135.6 250.18 134.52 250.21 133.44 250.22 132.36 250.13 131.56 250.01 130.76 249.89 130.23 249.79 130.23 249.79 130.23 249.79 130.1 249.76 129.87 249.7 129.64 249.64 129.31 249.57 128.93 249.45 128.15 249.23 127.13 248.89 126.13 248.53 125.12 248.16 124.13 247.76 123.39 247.45 122.65 247.14 122.16 246.92 122.18 246.87 122.21 246.78 124.24 247.45 126.27 248.07 127.29 248.37 128.31 248.66 129.08 248.84 129.46 248.94 129.79 249 130.01 249.05 130.24 249.1 130.36 249.13 130.36 249.13 130.36 249.13 130.87 249.25 131.65 249.4 132.43 249.55 133.47 249.68 134.52 249.74 135.57 249.77 136.62 249.71 137.41 249.6 138.2 249.48 138.72 249.37 138.74 249.42Z" fill="#5E5E5C"/></g><g><path d="M146.33 245.9C146.35 245.94 146.07 246.13 145.62 246.41 145.19 246.7 144.55 246.98 143.92 247.26 143.6 247.4 143.27 247.48 142.96 247.59 142.81 247.64 142.66 247.69 142.51 247.73 142.37 247.76 142.23 247.79 142.1 247.82 141.59 247.93 141.26 248 141.26 248 141.26 248 139.89 248.14 138.54 248.13 137.19 248.12 135.84 248.08 135.84 247.99 135.84 247.9 137.18 247.77 138.52 247.65 139.86 247.54 141.17 247.33 141.17 247.33 141.17 247.33 141.5 247.28 141.99 247.21 142.11 247.19 142.25 247.17 142.39 247.15 142.53 247.12 142.67 247.08 142.83 247.05 143.13 246.97 143.46 246.92 143.78 246.81 144.41 246.6 145.06 246.4 145.51 246.18 145.99 245.97 146.31 245.86 146.33 245.9Z" fill="#5E5E5C"/></g><g><path d="M120.2 236.62C120.09 236.61 120.08 235.49 119.81 234.42 119.75 234.15 119.65 233.89 119.58 233.64 119.51 233.39 119.43 233.17 119.35 232.97 119.2 232.58 119.11 232.32 119.11 232.32 119.11 232.32 118.75 231.26 118.4 230.2 118.05 229.12 117.84 228 117.92 227.98 118.01 227.96 118.37 229.01 118.82 230.03 119.28 231.04 119.71 232.09 119.71 232.09 119.71 232.09 119.79 232.37 119.91 232.78 119.97 232.98 120.04 233.23 120.09 233.5 120.14 233.77 120.21 234.05 120.25 234.33 120.41 235.48 120.26 236.63 120.2 236.62Z" fill="#5E5E5C"/></g></g><path d="M119.32 250.4C119.33 250.4 119.34 250.41 119.35 250.42 119.35 250.42 119.36 250.43 119.37 250.43 119.39 250.44 119.41 250.46 119.44 250.47 119.45 250.47 119.46 250.48 119.46 250.48 119.48 250.49 119.51 250.51 119.54 250.53 119.56 250.54 119.57 250.55 119.59 250.56 119.6 250.57 119.61 250.57 119.63 250.58 119.64 250.59 119.66 250.59 119.67 250.6 119.69 250.61 119.72 250.63 119.75 250.64 119.79 250.66 119.82 250.68 119.86 250.7 119.89 250.71 119.91 250.73 119.94 250.74 119.95 250.75 119.97 250.75 119.98 250.76 120.07 250.81 120.18 250.87 120.29 250.92 120.32 250.94 120.35 250.95 120.38 250.97 120.41 250.99 120.45 251 120.48 251.02 120.54 251.05 120.59 251.08 120.65 251.11 120.7 251.13 120.75 251.16 120.8 251.18 120.82 251.19 120.84 251.2 120.87 251.21 120.89 251.22 120.91 251.23 120.92 251.24 120.98 251.27 121.05 251.3 121.12 251.34 121.16 251.36 121.19 251.37 121.23 251.39 121.3 251.42 121.38 251.46 121.45 251.49 121.46 251.49 121.47 251.5 121.48 251.5 121.51 251.52 121.55 251.53 121.58 251.55 121.66 251.58 121.73 251.62 121.81 251.65 121.81 251.65 121.82 251.65 121.82 251.65 121.85 251.66 121.89 251.68 121.92 251.69 122.07 251.75 122.22 251.82 122.38 251.88 122.39 251.89 122.41 251.89 122.42 251.9 122.59 251.97 122.76 252.04 122.94 252.11 122.96 252.12 122.98 252.13 123 252.13 123.11 252.17 123.22 252.21 123.33 252.25 123.34 252.25 123.35 252.26 123.36 252.26 123.39 252.27 123.43 252.28 123.46 252.3 123.56 252.34 123.66 252.37 123.76 252.41 123.82 252.43 123.88 252.45 123.94 252.47 124.05 252.51 124.16 252.55 124.27 252.58 124.33 252.6 124.4 252.62 124.46 252.64 124.57 252.68 124.68 252.71 124.79 252.75 124.85 252.77 124.91 252.79 124.96 252.8 125.08 252.84 125.21 252.88 125.33 252.92 125.35 252.92 125.36 252.93 125.38 252.94 125.39 252.94 125.41 252.95 125.42 252.95 125.65 253.02 125.89 253.09 126.13 253.15 126.14 253.15 126.16 253.16 126.17 253.16 126.41 253.22 126.65 253.29 126.9 253.35 126.95 253.36 126.99 253.37 127.04 253.38 127.17 253.41 127.31 253.44 127.45 253.48 127.5 253.49 127.56 253.5 127.61 253.52 127.63 253.52 127.65 253.53 127.67 253.53 127.81 253.56 127.95 253.59 128.1 253.62 128.18 253.64 128.25 253.65 128.33 253.67 128.47 253.7 128.61 253.73 128.76 253.75 128.78 253.75 128.8 253.76 128.82 253.76 128.88 253.77 128.94 253.78 129 253.79 129.15 253.82 129.3 253.84 129.45 253.87 129.53 253.88 129.6 253.89 129.68 253.91 129.84 253.94 130 253.96 130.16 253.98 130.22 253.99 130.28 254 130.34 254 130.74 254.06 131.15 254.11 131.57 254.15 127.47 252.94 125.64 251.28 129.28 251.81 135.89 252.77 140.68 251.93 145.46 250.13 147.79 249.25 149.28 248.06 150.2 247.07 150.05 246.47 149.83 246.01 149.83 246.01 149.83 246.01 149.83 245.99 149.83 245.94 149.83 245.93 149.83 245.92 149.83 245.91 149.83 245.89 149.83 245.87 149.83 245.85 149.83 245.84 149.83 245.84 149.83 245.83 149.83 245.83 149.83 245.82 149.83 245.82 149.83 245.74 149.83 245.64 149.83 245.5 149.83 245.49 149.83 245.49 149.83 245.48 149.83 245.47 149.83 245.47 149.83 245.46 149.83 245.42 149.83 245.37 149.83 245.32 149.83 245.31 149.83 245.3 149.83 245.29 149.83 245.24 149.83 245.18 149.83 245.12 149.83 245.11 149.83 245.1 149.83 245.09 149.84 244.23 149.88 242.65 150.02 239.91 150.02 239.86 150.03 239.8 150.03 239.75 150.04 239.58 150.05 239.42 150.06 239.24 150.07 239.1 150.08 238.95 150.08 238.81 150.09 238.72 150.09 238.63 150.1 238.54 150.1 238.5 150.1 238.46 150.11 238.43 147.09 246.26 141.42 248.84 132.6 246.89 128.34 245.95 126.06 241.19 124.73 237.27 123.9 234.84 123.97 232.59 123.63 230.12 123.23 227.19 122.82 224.26 122.43 221.33 121.73 216.14 121.44 210.85 121.31 205.62 121.26 203.63 120.95 200.99 122.5 199.65 123.72 198.6 125.32 198.2 126.61 197.26 121.15 198.69 116.23 201.27 115.96 201.52 115.02 202.37 114.78 204.67 114.91 207.48L114.91 207.48C115.2 213.74 117.33 222.54 117.6 223.64 117.6 223.65 117.6 223.66 117.61 223.67 117.61 223.69 117.62 223.7 117.62 223.72 117.63 223.75 117.63 223.76 117.63 223.76 117.63 223.76 120.44 246.16 120.14 247.12 119.53 248.48 119.15 249.28 119.3 250.32 119.28 250.38 119.3 250.39 119.32 250.4 119.31 250.4 119.31 250.4 119.32 250.4Z" fill="#5E5E5C" opacity="0.4"/></g><g opacity="0.4"><path d="M130.48 205.15C130.54 204.92 130.92 204.83 131.33 204.94 131.75 205.05 132.04 205.33 131.98 205.55 131.92 205.78 131.54 205.87 131.13 205.76 130.72 205.65 130.42 205.38 130.48 205.15Z" fill="#5E5E5C"/><path d="M127.41 203.89C127.54 203.55 128.16 203.49 128.8 203.76 129.43 204.03 129.84 204.52 129.71 204.87 129.58 205.21 128.96 205.27 128.33 205 127.68 204.73 127.28 204.24 127.41 203.89Z" fill="#5E5E5C"/></g><g opacity="0.4"><path d="M149.73 222.63C149.51 222.63 149.32 222.27 149.31 221.82 149.3 221.37 149.47 221 149.7 220.99 149.92 220.99 150.11 221.35 150.12 221.8 150.13 222.26 149.95 222.63 149.73 222.63Z" fill="#5E5E5C"/><path d="M149.41 226.09C149.06 226.05 148.84 225.44 148.92 224.72 149 224.01 149.34 223.46 149.69 223.5 150.04 223.54 150.26 224.15 150.18 224.87 150.1 225.58 149.76 226.13 149.41 226.09Z" fill="#5E5E5C"/></g><path d="M131.29 196.46C130.42 196.54 129.53 196.67 128.64 196.85 128.64 196.85 128.63 196.86 128.63 196.86 128.63 196.86 126.88 197.98 127.57 198.78 128.25 199.58 131.22 201.26 134.48 200.3 137.75 199.34 137.67 197.5 136.91 196.7 136.86 196.65 136.77 196.59 136.67 196.55 134.95 196.34 133.15 196.29 131.29 196.46Z" fill="#5E5E5C" opacity="0.4"/></g><g><linearGradient x1="133.018" y1="179.137" x2="131.651" y2="184.463" gradientUnits="userSpaceOnUse" id="SVGID_26_"><stop offset="0.2206" stop-color="#FCE8D9"/><stop offset="1" stop-color="#F4C7BD"/></linearGradient><path d="M130.1 193.04C130.37 194.05 130.15 195.18 129.51 196.01 128.87 196.84 127.83 197.34 126.79 197.33 128.38 198.93 130.65 199.82 132.9 199.74 135.15 199.66 137.35 198.61 138.83 196.91 137.85 196.95 136.87 196.48 136.28 195.69 135.69 194.91 135.52 193.83 135.84 192.9L130.1 193.04Z" fill="#F9B799"/><path d="M130.19 193.65C130.85 194.5 131.91 195.02 132.99 195.02 134.06 195.03 135.13 194.52 135.8 193.68L130.19 193.65Z" opacity="0.15"/><g><path d="M114.31 174.65C113.68 173.94 112.78 173.44 111.83 173.39 110.88 173.34 109.89 173.77 109.38 174.58 108.99 175.19 108.89 175.95 108.86 176.68 108.77 178.36 109 180.21 110.21 181.39 111.41 182.56 113.23 182.75 114.9 182.83L114.31 174.65Z" fill="#F9B799"/><path d="M112.77 178.04C112.77 178.93 112.31 179.65 111.75 179.65 111.18 179.65 110.73 178.93 110.73 178.04 110.73 177.15 111.19 176.43 111.75 176.43 112.31 176.43 112.77 177.15 112.77 178.04Z" fill="#F4C7BD"/></g><g><path d="M152.44 174.65C153.07 173.94 153.97 173.44 154.92 173.39 155.87 173.34 156.86 173.77 157.37 174.58 157.76 175.19 157.86 175.95 157.89 176.68 157.98 178.36 157.75 180.21 156.54 181.39 155.34 182.56 153.52 182.75 151.85 182.83L152.44 174.65Z" fill="#F9B799"/><ellipse cx="155" cy="178.04" rx="1.02" ry="1.61" fill="#F4C7BD"/></g><path d="M114.3 178.39C113.86 180.22 113.54 182.14 113.94 183.98 114.7 187.45 117.86 189.86 121.09 191.36 128.46 194.78 137.28 194.9 144.73 191.68 147.88 190.32 151 188.12 151.95 184.82 152.79 181.89 151.74 178.78 150.7 175.91 148.88 170.89 146.83 165.55 142.46 162.47 138.72 159.83 133.7 159.32 129.3 160.59 120.54 163.1 116.29 170 114.3 178.39Z" fill="#F9B799"/><g><path d="M122.91 174.7C124.18 173.95 125.91 174.36 126.97 175.38 128.08 176.44 128.57 177.99 128.88 179.5 128.9 179.59 128.91 179.69 128.87 179.76 128.82 179.86 128.7 179.89 128.59 179.92 126.71 180.35 124.72 180.32 122.86 179.81 121.5 179.44 120.86 178.74 120.75 177.95 120.61 176.83 121.5 175.53 122.91 174.7Z" fill="#FFFFFF"/><g><path d="M126.48 178.48C127.37 177.68 127.44 176.3 126.63 175.41 125.83 174.52 124.45 174.45 123.56 175.26 122.67 176.06 122.6 177.44 123.41 178.33 124.22 179.22 125.59 179.29 126.48 178.48Z" fill="#8C7257"/><path d="M125.59 177.49C125.91 177.2 125.94 176.71 125.65 176.39 125.36 176.07 124.87 176.04 124.55 176.33 124.23 176.62 124.2 177.11 124.49 177.43 124.77 177.75 125.27 177.78 125.59 177.49Z" fill="#3A3129"/><path d="M123.98 176.42C123.82 176.41 123.66 176.4 123.51 176.43 123.28 176.48 123.19 176.59 123.15 176.82 123.14 176.88 123.13 176.94 123.13 177.01 123.13 177.28 123.31 177.7 123.55 177.84 123.69 177.92 123.86 177.83 123.99 177.73 124.3 177.5 125.01 177.06 125.15 176.69 125.25 176.41 125.07 176.49 124.78 176.47 124.51 176.45 124.24 176.43 123.98 176.42Z" fill="#FFFFFF" opacity="0.2"/><path d="M124.19 178.28C124.18 178.29 124.17 178.31 124.16 178.32 124.15 178.35 124.19 178.38 124.21 178.4 124.3 178.46 124.4 178.51 124.51 178.53 124.62 178.55 124.74 178.53 124.82 178.46 124.9 178.4 124.95 178.3 124.99 178.21 125.03 178.1 125.29 177.3 125 177.44 124.86 177.51 124.71 177.74 124.6 177.86 124.46 178 124.32 178.14 124.19 178.28Z" fill="#FFFFFF" opacity="0.2"/></g><g><path d="M120.7 177.96C120.4 177.41 120.47 176.71 120.67 176.11 120.89 175.51 121.25 174.96 121.7 174.52 121.92 174.29 122.16 174.08 122.42 173.9 122.73 173.7 123.07 173.53 123.42 173.42 124.14 173.22 124.88 173.25 125.55 173.42 126.22 173.62 126.84 173.94 127.36 174.4 127.86 174.88 128.26 175.41 128.5 175.99 129.02 177.15 129.11 178.34 128.92 179.49L128.8 179.51C128.57 178.45 128.26 177.39 127.7 176.47 127.15 175.55 126.28 174.81 125.24 174.56 124.73 174.42 124.19 174.39 123.67 174.51 123.16 174.62 122.7 174.92 122.27 175.25 121.45 175.9 120.7 176.87 120.8 177.95L120.7 177.96Z" fill="#5E5149"/></g><path d="M142.64 174.7C141.37 173.95 139.64 174.36 138.58 175.38 137.47 176.44 136.98 177.99 136.67 179.5 136.65 179.59 136.64 179.69 136.68 179.76 136.73 179.86 136.85 179.89 136.96 179.92 138.84 180.35 140.83 180.32 142.69 179.81 144.05 179.44 144.69 178.74 144.8 177.95 144.94 176.83 144.04 175.53 142.64 174.7Z" fill="#FFFFFF"/><g><path d="M144.73 177.94C144.83 176.85 144.08 175.89 143.26 175.24 142.83 174.91 142.38 174.61 141.86 174.5 141.34 174.38 140.8 174.42 140.29 174.55 139.25 174.8 138.38 175.54 137.83 176.46 137.26 177.38 136.96 178.44 136.73 179.5L136.61 179.48C136.42 178.33 136.51 177.13 137.03 175.98 137.28 175.39 137.67 174.87 138.17 174.39 138.69 173.93 139.31 173.61 139.98 173.41 140.66 173.25 141.4 173.22 142.11 173.41 142.46 173.52 142.81 173.69 143.11 173.89 143.37 174.07 143.61 174.28 143.83 174.51 144.28 174.96 144.64 175.5 144.86 176.1 145.06 176.7 145.13 177.41 144.83 177.95L144.73 177.94Z" fill="#5E5149"/></g></g><g><path d="M142.16 178.48C143.05 177.68 143.12 176.3 142.31 175.41 141.51 174.52 140.13 174.45 139.24 175.26 138.35 176.06 138.28 177.44 139.09 178.33 139.9 179.22 141.27 179.29 142.16 178.48Z" fill="#8C7257"/><path d="M141.27 177.49C141.59 177.2 141.61 176.71 141.33 176.39 141.04 176.07 140.55 176.04 140.23 176.33 139.91 176.62 139.88 177.11 140.17 177.43 140.45 177.75 140.95 177.78 141.27 177.49Z" fill="#3A3129"/><path d="M139.66 176.42C139.5 176.41 139.34 176.4 139.19 176.43 138.96 176.48 138.87 176.59 138.83 176.82 138.82 176.88 138.81 176.94 138.81 177.01 138.81 177.28 138.99 177.7 139.23 177.84 139.37 177.92 139.54 177.83 139.67 177.73 139.98 177.5 140.69 177.06 140.83 176.69 140.93 176.41 140.75 176.49 140.46 176.47 140.19 176.45 139.92 176.43 139.66 176.42Z" fill="#FFFFFF" opacity="0.2"/><path d="M139.87 178.28C139.86 178.29 139.85 178.31 139.84 178.32 139.83 178.35 139.86 178.38 139.89 178.4 139.98 178.46 140.08 178.51 140.19 178.53 140.3 178.55 140.42 178.53 140.5 178.46 140.58 178.4 140.63 178.3 140.67 178.21 140.71 178.1 140.97 177.3 140.68 177.44 140.54 177.51 140.39 177.74 140.28 177.86 140.14 178 140 178.14 139.87 178.28Z" fill="#FFFFFF" opacity="0.2"/></g><path d="M147.27 181.2C148.13 180.23 148.58 178.89 148.47 177.6 148.33 175.97 147.4 174.12 145.64 174.19 143.06 174.29 140.37 173.67 138.33 172.22 141.8 173.1 145.42 173.51 148.99 173.23 148.68 173.62 148.3 173.95 147.86 174.2 148.88 174.32 149.45 175.48 149.53 176.5 149.67 178.31 148.74 180.13 147.27 181.2Z" opacity="0.15"/><path d="M124.3 166.02C121.64 167.23 120.13 169.44 118.3 171.54 117.36 172.61 116.58 173.69 116.08 175.04 115.88 175.57 114.95 178.48 115.5 178.91 114.32 177.75 115.17 173.52 116.23 171.16 117.6 168.13 120.98 165.95 124.3 166.02Z" opacity="0.15"/><path d="M145.78 156.96C146.68 157.7 147.53 158.65 147.65 159.81 145.83 158.33 143.64 157.32 141.34 156.89 142.19 158.52 143.56 159.88 145.2 160.71 141.7 160.66 138.24 159.22 135.74 156.78 136.12 158.42 137.12 159.9 138.5 160.86 137.79 160.37 136.33 160.3 135.49 159.89 134.52 159.42 133.45 158.8 132.71 158 131.34 156.52 131.58 154.91 133.54 154.32 137.61 153.09 142.55 154.29 145.78 156.96Z" fill="#FFFFFF" opacity="0.1"/><path d="M115.32 161.15C114.26 162.21 113.61 163.69 113.63 165.18 114.77 164.08 116.03 163.11 117.38 162.29 117.12 163.05 116.71 163.75 116.18 164.35 117.48 164.23 118.81 163.92 119.82 163.11 120.92 162.24 122.02 159.87 120.18 159.26 118.65 158.74 116.33 160.13 115.32 161.15Z" fill="#FFFFFF" opacity="0.1"/><g><path d="M143.89 172.47C143.29 172.26 142.73 172.13 142.18 172.08 141.63 172.03 141.12 172.05 140.64 172.11 140.4 172.15 140.16 172.26 139.95 172.37 139.74 172.47 139.54 172.5 139.32 172.43 139.1 172.37 138.86 172.25 138.65 172.07 138.42 171.92 138.2 171.65 137.65 171.58L137.37 171.39C137.15 170.81 137.46 170.21 137.78 169.85 138.12 169.45 138.48 169.23 138.84 169.07 139.6 168.71 140.41 169.17 141.08 169.43 141.78 169.69 142.41 170.08 142.93 170.56 143.44 171.05 143.87 171.61 144.12 172.23L143.89 172.47Z" fill="#BC5D1D"/></g><path d="M131.3 181.86C130.95 182.28 130.46 182.71 130.57 183.25 130.63 183.53 130.86 183.76 131.13 183.87 131.4 183.98 131.69 184 131.98 184 132.33 183.99 132.7 183.95 132.99 183.75 133.45 183.43 133.59 182.81 133.56 182.25 133.52 181.31 133.09 180.2 132.33 179.62 131.96 180.36 131.85 181.21 131.3 181.86Z" fill="url(#SVGID_26_)"/><path d="M133 183.75C132.71 183.95 132.34 183.99 131.99 184 131.7 184 131.4 183.99 131.14 183.87 130.87 183.76 130.64 183.53 130.58 183.25 130.9 183.45 131.35 183.52 131.72 183.58 132.13 183.63 132.58 183.69 133 183.75Z" opacity="0.07"/><g><path d="M132.08 186.17C133.44 186.18 134.8 186.06 136.1 185.67 137.41 185.34 138.65 184.76 139.81 184.06L139.91 184.2C139.68 185.09 139.17 185.73 138.58 186.24 137.98 186.74 137.29 187.12 136.55 187.31 135.81 187.51 135.02 187.55 134.26 187.41 133.49 187.28 132.73 186.98 132.08 186.34L132.08 186.17Z" fill="#E08D80"/></g><g><path d="M121.42 172.22C121.67 171.6 122.1 171.05 122.61 170.55 123.13 170.07 123.76 169.69 124.46 169.42 125.13 169.16 125.95 168.7 126.7 169.06 127.06 169.22 127.42 169.44 127.76 169.84 128.08 170.2 128.39 170.81 128.17 171.38L127.89 171.57C127.34 171.65 127.12 171.91 126.89 172.06 126.67 172.24 126.44 172.35 126.22 172.42 126 172.5 125.81 172.47 125.59 172.36 125.38 172.24 125.14 172.14 124.9 172.1 124.42 172.04 123.91 172.02 123.36 172.07 122.81 172.11 122.25 172.25 121.65 172.46L121.42 172.22Z" fill="#BC5D1D"/></g></g><path d="M155.18 165.85C155 164.36 154.23 163.1 153.55 161.76 152.14 159.02 149.94 156.77 147.42 155.03 142.41 151.58 135.98 149.78 129.91 150.08 126.73 150.24 122.31 150.09 120.53 152.74 118.82 152.88 114.99 156.26 113.54 158.21 111.65 160.76 111.08 164.08 111.15 167.25 111.22 170.6 111.53 176.48 114.29 178.38 114.52 175.78 116.46 172.15 117.43 169.96 117.92 168.85 118.79 168.55 119.55 167.6 119.78 167.32 120.83 166.7 121.53 166.02 121.63 167.23 122.21 166.81 122.76 167.79 122.82 167.81 122.87 167.83 122.93 167.86 123.66 168.22 124.41 168.57 125.15 168.9 125.36 168.83 125.58 168.79 125.8 168.79 126.31 168.79 126.82 168.82 127.33 168.88 127.53 168.91 127.74 168.93 127.94 168.96 128.03 168.97 128.09 168.98 128.15 168.99 128.13 168.98 128.4 168.98 128.43 168.98 129.36 168.96 130.25 169.06 131.08 169.51 131.11 169.53 131.14 169.56 131.17 169.58 131.23 169.58 131.28 169.57 131.34 169.57 135.39 169.55 140.4 168.81 144.23 170.34 144.26 170.35 144.29 170.37 144.33 170.38 146.37 170.5 148.22 171.18 149.64 173.22 150.28 174.14 150.11 175.03 149.56 175.66 150.39 176 150.89 176.84 151.01 177.78 151.18 179.2 151.43 180.6 151.73 182 152.16 181.51 152.62 181.04 153.02 180.52 154.64 178.4 155.08 175.61 155.24 172.95 155.39 170.61 155.46 168.18 155.18 165.85Z" fill="#110802"/></g></g><g><g><path d="M97.55 253.69C97.55 253.69 103.15 257.76 107.47 255.02 107.47 255.02 110.47 236.17 112.03 234.15 113.83 231.8 119.23 222.03 119.23 222.03 119.23 222.03 124.63 210.16 114.31 201.44 114.31 201.44 103.99 219.82 101.59 226.3 99.19 232.77 98.51 243.46 97.55 253.69Z" fill="#5E5E5C"/><path d="M116.35 203.42C118.39 207.64 119.47 216.08 118.03 218.9 116.59 221.71 113.59 222.77 111.79 226.05 109.99 229.33 106.03 248.33 102.07 249.03 99.79 249.44 98.82 246.61 98.44 244.05 98.13 247.21 97.86 250.47 97.55 253.68 97.55 253.68 103.15 257.75 107.47 255.01 107.47 255.01 110.47 236.16 112.03 234.14 113.83 231.79 119.23 222.02 119.23 222.02 119.23 222.02 123.85 211.85 116.35 203.42Z" fill="#5E5E5C" opacity="0.4"/><g><g><path d="M99.95 237.97C99.91 237.98 99.78 237.49 99.69 236.73 99.58 235.97 99.57 234.96 99.63 233.94 99.7 232.93 99.86 231.92 100.01 231.17 100.16 230.42 100.29 229.93 100.29 229.93 100.29 229.93 100.44 229.44 100.68 228.72 100.93 228 101.3 227.06 101.73 226.14 102.58 224.29 103.71 222.6 103.79 222.65 103.87 222.7 102.9 224.46 102.17 226.32 101.8 227.25 101.48 228.19 101.27 228.91 101.06 229.62 100.93 230.1 100.93 230.1 100.93 230.1 100.79 230.58 100.61 231.3 100.43 232.02 100.23 233 100.1 233.98 99.99 234.97 99.92 235.96 99.95 236.71 99.96 237.46 100.01 237.97 99.95 237.97Z" fill="#5E5E5C"/></g><g><path d="M105.71 253.76C105.75 253.84 104.82 254.27 103.81 254.4 102.81 254.56 101.78 254.45 101.78 254.46 101.78 254.46 101.53 254.42 101.15 254.33 100.78 254.24 100.29 254.08 99.83 253.85 99.38 253.61 98.95 253.32 98.7 253.04 98.44 252.77 98.32 252.54 98.35 252.52 98.39 252.49 98.58 252.65 98.87 252.84 99.16 253.05 99.59 253.25 100.02 253.42 100.47 253.58 100.93 253.68 101.28 253.73 101.63 253.78 101.87 253.81 101.87 253.8 101.87 253.8 102.81 253.97 103.77 253.93 104.74 253.94 105.68 253.68 105.71 253.76Z" fill="#5E5E5C"/></g><g><path d="M113.55 226.72C113.57 226.73 113.52 226.97 113.41 227.38 113.3 227.8 113.14 228.38 112.94 229.09 112.84 229.44 112.73 229.82 112.62 230.23 112.5 230.63 112.43 231.07 112.32 231.52 112.12 232.41 111.9 233.37 111.69 234.32 111.29 236.24 110.91 238.15 110.56 239.59 110.22 241.02 110 241.98 110 241.98 110 241.98 109.73 242.91 109.41 244.33 109.09 245.75 108.75 247.66 108.49 249.59 108.35 250.55 108.23 251.52 108.08 252.43 107.93 253.33 107.76 254.19 107.42 254.88 107.25 255.22 107.01 255.51 106.71 255.67 106.42 255.82 106.13 255.85 105.9 255.83 105.68 255.81 105.51 255.77 105.39 255.73 105.28 255.69 105.22 255.67 105.22 255.66 105.23 255.63 105.47 255.7 105.9 255.71 106.11 255.71 106.37 255.66 106.6 255.52 106.83 255.37 107.03 255.11 107.17 254.79 107.45 254.14 107.58 253.3 107.7 252.4 107.81 251.5 107.9 250.53 108.01 249.56 108.21 247.62 108.51 245.67 108.8 244.23 109.09 242.78 109.34 241.84 109.34 241.84 109.34 241.84 109.58 240.89 109.95 239.48 110.33 238.07 110.76 236.16 111.22 234.25 111.47 233.3 111.72 232.35 111.95 231.46 112.07 231.02 112.17 230.58 112.31 230.18 112.45 229.78 112.57 229.4 112.69 229.05 112.93 228.35 113.13 227.77 113.28 227.37 113.44 226.94 113.53 226.71 113.55 226.72Z" fill="#5E5E5C"/></g><g><path d="M118.67 207.49C118.69 207.48 118.84 207.69 119.08 208.06 119.33 208.43 119.63 209 119.95 209.7 120.09 210.05 120.27 210.43 120.4 210.86 120.47 211.07 120.54 211.28 120.6 211.51 120.65 211.74 120.71 211.97 120.76 212.2 120.95 213.14 121.08 214.17 121.04 215.2 121.01 216.23 120.87 217.25 120.66 218.19 120.43 219.13 120.18 219.99 119.9 220.71 119.64 221.43 119.38 222.02 119.2 222.43 119.02 222.84 118.91 223.07 118.91 223.07 118.91 223.07 118.46 223.99 117.7 225.32 116.94 226.65 115.86 228.37 114.77 230.08 113.68 231.79 112.62 233.52 111.9 234.85 111.17 236.18 110.76 237.11 110.71 237.09 110.69 237.08 110.77 236.84 110.92 236.42 111.08 236 111.33 235.42 111.66 234.73 112.31 233.35 113.32 231.58 114.35 229.83 115.39 228.08 116.42 226.35 117.14 225.01 117.86 223.68 118.29 222.77 118.29 222.77 118.29 222.77 118.4 222.54 118.59 222.15 118.78 221.75 119.04 221.18 119.31 220.48 119.6 219.79 119.86 218.95 120.11 218.05 120.34 217.14 120.5 216.16 120.56 215.17 120.63 214.18 120.54 213.18 120.39 212.26 120.34 212.03 120.3 211.8 120.26 211.58 120.21 211.36 120.14 211.15 120.09 210.94 119.99 210.52 119.83 210.14 119.71 209.79 119.16 208.38 118.61 207.52 118.67 207.49Z" fill="#5E5E5C"/></g></g><g><path d="M101.75 232.63C101.98 232.68 102.09 233.07 102 233.5 101.91 233.93 101.65 234.24 101.42 234.2 101.19 234.15 101.08 233.76 101.17 233.33 101.26 232.9 101.52 232.59 101.75 232.63Z" fill="#5E5E5C"/><path d="M102.87 229.43C103.22 229.55 103.3 230.18 103.06 230.85 102.82 231.51 102.34 231.95 102 231.83 101.65 231.71 101.57 231.08 101.81 230.41 102.05 229.74 102.52 229.3 102.87 229.43Z" fill="#5E5E5C"/></g></g></g><g><g><path d="M101.38 245.56 100.27 249.31C100.27 249.31 96.43 253.55 96.16 254.53 95.85 255.65 95.44 259.33 96.47 259.97 97.5 260.61 97.51 258.58 97.51 258.58 97.51 258.58 98.37 261.95 101.55 262.37 104.73 262.79 104.44 260.52 104.25 259.48 104.07 258.44 104.96 254.84 104.96 254.84 104.96 254.84 104.47 257.63 105.91 257.79 107.04 257.92 108.08 254.57 107.56 253.32 107.03 252.06 106.47 251.17 105.67 250.19 105.05 249.43 107.47 246.87 107.47 246.87 107.47 246.87 102.85 244.91 101.38 245.56Z" fill="#F9B799"/><g><g><path d="M103.25 262.11C103.25 262.13 102.95 262.15 102.5 262.09 102.05 262.03 101.49 261.81 101 261.51 100.51 261.2 100.12 260.81 99.86 260.5 99.61 260.19 99.45 259.97 99.45 259.97 99.45 259.97 99.42 259.91 99.36 259.81 99.31 259.71 99.22 259.57 99.14 259.39 98.98 259.04 98.79 258.57 98.69 258.08 98.59 257.59 98.53 257.1 98.56 256.73 98.58 256.36 98.66 256.12 98.68 256.12 98.72 256.12 98.71 256.37 98.74 256.72 98.76 257.08 98.87 257.55 99.01 258.01 99.15 258.47 99.36 258.92 99.54 259.24 99.72 259.56 99.86 259.77 99.86 259.77 99.86 259.77 99.99 259.98 100.21 260.28 100.44 260.58 100.78 260.96 101.2 261.27 101.63 261.57 102.12 261.82 102.54 261.92 102.96 262.05 103.26 262.07 103.25 262.11Z" fill="#FF6875"/></g><g><path d="M104.55 260.7C104.56 260.71 104.4 260.91 104 261.08 103.81 261.17 103.52 261.22 103.23 261.16 102.94 261.11 102.67 260.95 102.46 260.78 102.04 260.42 101.79 259.98 101.61 259.65 101.44 259.32 101.35 259.09 101.35 259.09 101.35 259.09 101.27 258.86 101.18 258.52 101.09 258.18 100.99 257.71 100.93 257.24 100.87 256.77 100.85 256.3 100.87 255.95 100.89 255.6 100.97 255.37 101 255.37 101.03 255.38 101.02 255.6 101.06 255.95 101.09 256.29 101.17 256.75 101.27 257.2 101.37 257.65 101.5 258.1 101.61 258.43 101.72 258.76 101.81 258.97 101.81 258.97 101.81 258.97 101.88 259.19 102.02 259.51 102.16 259.82 102.37 260.25 102.71 260.59 102.88 260.76 103.08 260.89 103.3 260.95 103.52 261.01 103.75 260.99 103.93 260.94 104.3 260.83 104.52 260.67 104.55 260.7Z" fill="#FF6875"/></g><g><path d="M104.86 253.84C104.87 253.84 104.9 253.95 104.93 254.14 104.94 254.24 104.97 254.36 104.97 254.5 104.97 254.64 104.97 254.8 104.97 254.97 104.95 255.66 104.76 256.57 104.59 257.51 104.55 257.75 104.52 257.98 104.49 258.22 104.47 258.46 104.45 258.69 104.44 258.92 104.44 259.37 104.51 259.83 104.52 260.26 104.52 260.68 104.49 261.08 104.35 261.4 104.22 261.72 103.98 261.95 103.82 262.06 103.83 262.05 103.83 262.05 103.83 262.05 103.57 262.23 103.39 262.3 103.28 262.33 103.17 262.37 103.14 262.38 103.14 262.38 103.14 262.38 102.97 262.44 102.65 262.47 102.34 262.51 101.89 262.5 101.38 262.42 100.88 262.33 100.28 262.16 99.75 261.82 99.23 261.49 98.8 261.04 98.43 260.57 97.7 259.63 97.24 258.56 97.03 257.75 96.92 257.34 96.89 256.99 96.88 256.75 96.88 256.51 96.9 256.37 96.92 256.37 96.96 256.37 96.94 256.92 97.21 257.71 97.47 258.5 97.97 259.52 98.71 260.41 99.08 260.85 99.51 261.27 99.98 261.55 100.45 261.84 100.99 261.98 101.46 262.05 101.93 262.12 102.32 262.11 102.58 262.08 102.84 262.04 102.98 262 102.98 262 102.98 262 103.01 261.99 103.09 261.96 103.17 261.93 103.32 261.88 103.51 261.75L103.52 261.74C103.63 261.66 103.8 261.52 103.92 261.26 104.04 261 104.09 260.65 104.1 260.24 104.11 259.83 104.06 259.39 104.07 258.9 104.09 258.66 104.11 258.42 104.15 258.17 104.2 257.93 104.23 257.69 104.29 257.45 104.5 256.5 104.73 255.61 104.8 254.94 104.81 254.77 104.83 254.62 104.84 254.48 104.85 254.34 104.83 254.23 104.84 254.13 104.84 253.95 104.84 253.84 104.86 253.84Z" fill="#FF6875"/></g><g><path d="M104.78 249.35C104.79 249.33 105.21 249.55 105.69 250 106.18 250.45 106.71 251.13 107.11 251.86 107.53 252.59 107.8 253.36 107.93 253.96 108.06 254.56 108.03 254.98 108.03 254.98 108.03 254.98 108.02 255.08 108 255.26 107.98 255.44 107.93 255.69 107.83 255.99 107.73 256.28 107.6 256.62 107.39 256.97 107.17 257.3 106.89 257.7 106.35 257.86 106.08 257.93 105.77 257.92 105.53 257.78 105.3 257.65 105.16 257.47 105.06 257.3 104.86 256.95 104.77 256.6 104.73 256.3 104.69 256 104.7 255.75 104.74 255.57 104.78 255.4 104.84 255.3 104.85 255.31 104.87 255.32 104.84 255.41 104.83 255.58 104.83 255.75 104.85 255.99 104.91 256.28 104.98 256.56 105.09 256.89 105.3 257.2 105.4 257.35 105.54 257.49 105.7 257.58 105.85 257.66 106.06 257.66 106.24 257.61 106.61 257.49 106.86 257.14 107.04 256.83 107.22 256.51 107.33 256.18 107.41 255.91 107.49 255.63 107.53 255.4 107.54 255.23 107.55 255.07 107.56 254.97 107.56 254.97 107.56 254.97 107.59 254.59 107.5 254.02 107.41 253.45 107.17 252.69 106.81 251.97 106.46 251.25 105.99 250.56 105.55 250.1 105.12 249.63 104.75 249.37 104.78 249.35Z" fill="#FF6875"/></g><g><path d="M97.48 258.64C97.49 258.64 97.53 258.74 97.54 258.93 97.55 259.11 97.54 259.38 97.42 259.69 97.35 259.84 97.26 260.03 97 260.12 96.73 260.21 96.46 260.1 96.25 259.97 96.04 259.82 95.92 259.61 95.86 259.39 95.8 259.18 95.78 258.96 95.78 258.75 95.78 258.54 95.78 258.33 95.78 258.13 95.78 257.93 95.75 257.76 95.72 257.55 95.69 257.35 95.67 257.17 95.64 256.99 95.63 256.81 95.62 256.64 95.61 256.48 95.58 256.16 95.62 255.9 95.63 255.71 95.64 255.52 95.65 255.42 95.65 255.42 95.65 255.42 95.65 255.39 95.66 255.34 95.67 255.29 95.69 255.22 95.72 255.13 95.75 255.04 95.78 254.93 95.82 254.8 95.86 254.67 95.89 254.53 95.98 254.38 96.28 253.77 96.83 253.08 97.4 252.39 97.97 251.71 98.57 251.04 99.02 250.55 99.48 250.06 99.78 249.73 99.81 249.74 99.88 249.78 98.75 251.15 97.68 252.54 97.15 253.23 96.63 253.95 96.39 254.5 96.31 254.63 96.29 254.77 96.26 254.89 96.23 255.01 96.2 255.11 96.18 255.2 96.16 255.28 96.14 255.35 96.13 255.4 96.12 255.45 96.12 255.47 96.12 255.47 96.12 255.47 96.11 255.57 96.09 255.74 96.08 255.92 96.03 256.16 96.05 256.47 96.05 256.62 96.06 256.79 96.06 256.96 96.08 257.14 96.09 257.32 96.11 257.51 96.13 257.69 96.16 257.91 96.14 258.13 96.13 258.33 96.12 258.54 96.11 258.75 96.1 259.15 96.13 259.57 96.43 259.8 96.58 259.91 96.78 259.99 96.92 259.94 97.07 259.9 97.18 259.76 97.25 259.62 97.51 259.07 97.44 258.63 97.48 258.64Z" fill="#FF6875"/></g></g></g><path d="M105.67 250.19C105.26 249.69 106.18 248.4 106.85 247.58 106.72 246.97 106.58 246.53 106.42 246.46 106.41 246.46 106.4 246.45 106.39 246.45 105.98 246.36 103.26 246.31 101.16 246.31L100.27 249.3C100.27 249.3 96.43 253.54 96.16 254.52 95.85 255.64 95.44 259.32 96.47 259.96 97.5 260.6 97.51 258.57 97.51 258.57 97.51 258.57 98.37 261.94 101.55 262.36 103.93 262.68 104.36 261.49 104.36 260.43 103.9 260.91 102.53 262.09 100.63 261.36 98.29 260.46 96.78 256.5 98.37 253.59 99.96 250.68 101.55 250.82 102.81 250.47 103.71 250.22 105.68 251.11 106.72 251.63 106.41 251.14 106.07 250.68 105.67 250.19Z" fill="#FFBDC0" opacity="0.5"/></g><g><g><g><path d="M161.65 252.17 164.69 255.16C164.69 255.16 166.82 260.1 167.63 260.87 168.55 261.75 170.8 263.91 172.02 263.58 173.25 263.25 172.22 262.57 172.22 262.57 172.22 262.57 176.03 263.97 178.29 262.02 180.55 260.07 177.42 259.28 176.29 258.79 175.47 258.43 174.79 257.75 174.16 257.2 173.9 256.97 172.64 256.15 173.02 255.76 173.43 255.35 174.54 255.75 175.09 255.73 175.96 255.71 177.08 255 177.11 254.22 177.13 253.69 176.88 253.21 176.28 253.14 175.41 253.04 174.5 253.58 173.54 253.45 172.43 253.3 172.08 252.76 171.27 252.27 170.64 251.88 169.45 251.96 168.69 251.95 167.58 251.93 166.47 248.74 166.47 248.74 166.47 248.74 163 249.37 161.65 252.17Z" fill="#F9B799"/></g><path d="M178.55 261.78C178.58 261.75 178.61 261.72 178.64 261.68 178.64 261.68 178.65 261.67 178.65 261.67 179.5 260.71 178.97 260.07 178.16 259.6 178.25 260.36 178.1 261.42 176.76 262.07 174.52 263.16 169.75 261.85 167.81 259.03 165.86 256.2 166.92 255.19 167.31 254.11 167.69 253.06 169.67 252.54 170.68 252.1 170.54 252.08 170.4 252.06 170.27 252.05 170.03 252.03 169.8 252.01 169.56 252 169.51 252 169.47 251.99 169.42 251.99 169.18 251.98 168.95 251.97 168.7 251.96 167.59 251.94 166.48 248.75 166.48 248.75 166.48 248.75 163.36 250.12 162.14 251.39 162.05 251.51 161.97 251.63 161.9 251.75 161.82 251.89 161.74 252.02 161.67 252.17L163.35 253.82C163.84 254.23 164.27 254.72 164.72 255.16 164.72 255.16 166.85 260.1 167.66 260.87 168.58 261.75 170.83 263.91 172.05 263.58 173.28 263.25 172.25 262.57 172.25 262.57 172.25 262.57 176.06 263.97 178.32 262.02 178.38 261.96 178.44 261.91 178.5 261.86 178.5 261.83 178.53 261.81 178.55 261.78Z" fill="#FFBDC0" opacity="0.5"/></g><g><g><g><path d="M174.91 257.84C174.94 257.85 174.91 258.01 174.82 258.24 174.72 258.47 174.54 258.77 174.31 259.03 173.85 259.57 173.21 259.96 173.21 259.96 173.21 259.96 173.05 260.05 172.8 260.18 172.55 260.3 172.21 260.45 171.85 260.57 171.15 260.83 170.41 260.97 170.39 260.92 170.37 260.87 171.06 260.62 171.71 260.31 172.04 260.16 172.34 259.99 172.57 259.86 172.79 259.73 172.94 259.63 172.94 259.63 172.94 259.63 173.56 259.3 174.06 258.85 174.31 258.63 174.52 258.37 174.66 258.17 174.79 257.97 174.88 257.83 174.91 257.84Z" fill="#FF6875"/></g><g><path d="M176.1 262.58C176.1 262.55 176.34 262.55 176.68 262.52 176.77 262.51 176.86 262.5 176.95 262.49 177.04 262.48 177.14 262.45 177.23 262.42 177.41 262.36 177.57 262.26 177.61 262.12 177.69 261.83 177.4 261.49 177.19 261.3 176.97 261.1 176.79 260.98 176.79 260.98 176.79 260.98 176.75 260.95 176.68 260.9 176.61 260.85 176.51 260.78 176.37 260.7 176.1 260.55 175.68 260.38 175.26 260.2 174.84 260.02 174.42 259.79 174.2 259.53 173.97 259.28 173.95 259.06 173.97 259.06 174.01 259.05 174.09 259.24 174.33 259.43 174.56 259.63 174.97 259.8 175.39 259.94 175.81 260.08 176.26 260.22 176.58 260.38 176.74 260.46 176.87 260.53 176.96 260.59 177.04 260.65 177.09 260.68 177.09 260.68 177.09 260.68 177.28 260.81 177.51 261.06 177.63 261.18 177.75 261.34 177.85 261.53 177.94 261.72 178.02 261.96 177.91 262.21 177.8 262.46 177.52 262.59 177.3 262.63 177.18 262.66 177.07 262.67 176.97 262.67 176.86 262.68 176.77 262.68 176.68 262.67 176.33 262.66 176.1 262.6 176.1 262.58Z" fill="#FF6875"/></g><g><path d="M169.95 260.87C170 260.82 171.05 261.7 172.27 262.37 172.87 262.7 173.53 262.97 174.03 263.03 174.28 263.07 174.48 263.07 174.62 263.05 174.75 263.03 174.83 263.02 174.83 263.02 174.83 263.03 174.9 263 175.03 262.96 175.15 262.93 175.35 262.83 175.52 262.7 175.69 262.56 175.74 262.43 175.56 262.22 175.39 262.02 175.09 261.84 174.79 261.68 174.18 261.36 173.52 261.08 173.05 260.83 172.57 260.59 172.31 260.35 172.34 260.33 172.36 260.32 172.64 260.5 173.14 260.69 173.63 260.89 174.31 261.13 174.96 261.43 175.28 261.59 175.61 261.75 175.87 262.01 175.99 262.14 176.1 262.32 176.08 262.51 176.06 262.71 175.94 262.85 175.83 262.95 175.6 263.14 175.4 263.25 175.22 263.31 175.05 263.37 174.95 263.41 174.95 263.4 174.95 263.4 174.85 263.41 174.67 263.44 174.49 263.45 174.23 263.45 173.94 263.39 173.36 263.28 172.68 262.97 172.08 262.6 171.48 262.23 170.93 261.8 170.55 261.47 170.16 261.13 169.93 260.89 169.95 260.87Z" fill="#FF6875"/></g><g><path d="M172.65 263C172.66 263 172.74 263.07 172.79 263.25 172.81 263.34 172.79 263.49 172.63 263.57 172.49 263.65 172.31 263.66 172.13 263.66 171.77 263.66 171.36 263.58 170.94 263.48 170.53 263.37 170.07 263.26 169.65 263.04 168.82 262.62 168.18 262.03 167.71 261.59 167.25 261.14 166.97 260.82 166.97 260.82 166.97 260.82 166.91 260.73 166.81 260.58 166.72 260.42 166.54 260.21 166.41 259.94 166.11 259.4 165.82 258.64 165.58 257.89 165.34 257.13 165.11 256.38 164.88 255.84 164.65 255.3 164.44 254.94 164.48 254.93 164.49 254.92 164.56 255 164.66 255.15 164.75 255.3 164.92 255.51 165.05 255.78 165.34 256.32 165.62 257.07 165.9 257.81 166.18 258.55 166.49 259.28 166.8 259.78 166.93 260.04 167.11 260.23 167.2 260.37 167.3 260.51 167.36 260.59 167.36 260.59 167.36 260.59 167.61 260.9 168.04 261.35 168.47 261.79 169.08 262.38 169.82 262.8 170.17 263.02 170.61 263.14 171.01 263.27 171.41 263.39 171.8 263.48 172.13 263.51 172.29 263.52 172.45 263.52 172.55 263.47 172.66 263.43 172.68 263.34 172.68 263.26 172.68 263.1 172.63 263.01 172.65 263Z" fill="#FF6875"/></g></g><g><g><path d="M173.84 255.17C173.86 255.19 173.71 255.33 173.44 255.51 173.17 255.69 172.77 255.88 172.35 256.04 171.92 256.18 171.47 256.28 171.12 256.32 170.95 256.35 170.8 256.34 170.7 256.35 170.6 256.35 170.54 256.36 170.54 256.36 170.54 256.36 170.48 256.36 170.38 256.35 170.28 256.33 170.13 256.34 169.96 256.3 169.61 256.25 169.16 256.1 168.77 255.87 168.38 255.64 168.1 255.31 167.94 255.06 167.79 254.79 167.73 254.61 167.76 254.6 167.79 254.59 167.91 254.75 168.09 254.98 168.29 255.19 168.58 255.47 168.95 255.64 169.32 255.81 169.72 255.92 170.03 255.94 170.18 255.97 170.32 255.96 170.41 255.97 170.5 255.97 170.55 255.98 170.55 255.98 170.55 255.98 170.6 255.98 170.69 255.98 170.78 255.98 170.91 255.99 171.07 255.97 171.39 255.96 171.81 255.89 172.23 255.79 172.64 255.68 173.05 255.53 173.33 255.4 173.63 255.25 173.82 255.15 173.84 255.17Z" fill="#FF6875"/></g><g><path d="M174.85 253.36C174.84 253.34 175.02 253.21 175.36 253.12 175.69 253.04 176.2 252.99 176.66 253.22 176.88 253.33 177.06 253.53 177.13 253.73 177.21 253.94 177.18 254.13 177.16 254.29 177.12 254.44 177.08 254.57 177.02 254.66 176.98 254.75 176.94 254.8 176.94 254.8 176.94 254.8 176.9 254.84 176.84 254.92 176.77 254.99 176.66 255.1 176.51 255.19 176.21 255.39 175.74 255.52 175.28 255.58 174.36 255.68 173.47 255.58 173.47 255.54 173.47 255.47 174.38 255.47 175.22 255.3 175.64 255.22 176.03 255.07 176.24 254.9 176.35 254.82 176.42 254.74 176.47 254.69 176.51 254.63 176.54 254.6 176.54 254.6 176.54 254.6 176.65 254.47 176.73 254.22 176.81 253.98 176.78 253.65 176.47 253.46 176.16 253.26 175.71 253.24 175.39 253.28 175.07 253.32 174.87 253.39 174.85 253.36Z" fill="#FF6875"/></g><g><path d="M177.92 262.26C177.9 262.23 178.2 262.08 178.51 261.74 178.81 261.41 179.09 260.83 178.81 260.34 178.58 259.83 177.92 259.65 177.44 259.51 176.94 259.38 176.6 259.23 176.6 259.23 176.6 259.23 176.52 259.19 176.39 259.13 176.26 259.06 176.06 258.98 175.84 258.85 175.39 258.61 174.83 258.23 174.34 257.8 173.86 257.36 173.45 256.87 173.2 256.48 172.95 256.09 172.81 255.82 172.84 255.81 172.9 255.78 173.58 256.81 174.58 257.6 175.08 257.99 175.63 258.32 176.07 258.53 176.28 258.65 176.48 258.72 176.61 258.78 176.74 258.84 176.82 258.87 176.82 258.87 176.82 258.87 177.1 259 177.58 259.16 177.82 259.24 178.12 259.33 178.42 259.49 178.73 259.64 178.99 259.92 179.12 260.22 179.27 260.53 179.23 260.87 179.13 261.15 179.07 261.29 179.01 261.42 178.92 261.53 178.85 261.65 178.74 261.74 178.65 261.83 178.28 262.17 177.93 262.27 177.92 262.26Z" fill="#FF6875"/></g></g></g></g></svg>