<svg width="95.33" height="143.94" viewBox="0 0 95.33 143.94" xmlns="http://www.w3.org/2000/svg" xmlns:xlink="http://www.w3.org/1999/xlink" xml:space="preserve" overflow="hidden"><defs></defs><g><g><g><path d="M83.4 36.24 83.4 107.71 47.66 71.97Z" fill="#F3D5AA"/></g><g><path d="M83.4 36.24 47.66 71.97 11.93 36.24 47.66 0.5Z" fill="#FFFFFF"/></g><g><path d="M83.4 107.71 47.66 143.44 11.93 107.71 47.66 71.97Z" fill="#FFFFFF"/></g><g><path d="M47.66 71.97 11.93 107.71 11.93 36.24Z" fill="#F3D5AA"/></g><g><path d="M47.66 142C47.38 142 47.16 141.78 47.16 141.5L47.16 138.5C47.16 138.22 47.38 138 47.66 138 47.94 138 48.16 138.22 48.16 138.5L48.16 141.5C48.16 141.78 47.94 142 47.66 142ZM47.66 136C47.38 136 47.16 135.78 47.16 135.5L47.16 132.5C47.16 132.22 47.38 132 47.66 132 47.94 132 48.16 132.22 48.16 132.5L48.16 135.5C48.16 135.78 47.94 136 47.66 136ZM47.66 130C47.38 130 47.16 129.78 47.16 129.5L47.16 126.5C47.16 126.22 47.38 126 47.66 126 47.94 126 48.16 126.22 48.16 126.5L48.16 129.5C48.16 129.78 47.94 130 47.66 130ZM47.66 124C47.38 124 47.16 123.78 47.16 123.5L47.16 120.5C47.16 120.22 47.38 120 47.66 120 47.94 120 48.16 120.22 48.16 120.5L48.16 123.5C48.16 123.78 47.94 124 47.66 124ZM47.66 118C47.38 118 47.16 117.78 47.16 117.5L47.16 114.5C47.16 114.22 47.38 114 47.66 114 47.94 114 48.16 114.22 48.16 114.5L48.16 117.5C48.16 117.78 47.94 118 47.66 118ZM47.66 112C47.38 112 47.16 111.78 47.16 111.5L47.16 108.5C47.16 108.22 47.38 108 47.66 108 47.94 108 48.16 108.22 48.16 108.5L48.16 111.5C48.16 111.78 47.94 112 47.66 112ZM47.66 106C47.38 106 47.16 105.78 47.16 105.5L47.16 102.5C47.16 102.22 47.38 102 47.66 102 47.94 102 48.16 102.22 48.16 102.5L48.16 105.5C48.16 105.78 47.94 106 47.66 106ZM47.66 100C47.38 100 47.16 99.78 47.16 99.5L47.16 96.5C47.16 96.22 47.38 96 47.66 96 47.94 96 48.16 96.22 48.16 96.5L48.16 99.5C48.16 99.78 47.94 100 47.66 100ZM47.66 94C47.38 94 47.16 93.78 47.16 93.5L47.16 90.5C47.16 90.22 47.38 90 47.66 90 47.94 90 48.16 90.22 48.16 90.5L48.16 93.5C48.16 93.78 47.94 94 47.66 94ZM47.66 88C47.38 88 47.16 87.78 47.16 87.5L47.16 84.5C47.16 84.22 47.38 84 47.66 84 47.94 84 48.16 84.22 48.16 84.5L48.16 87.5C48.16 87.78 47.94 88 47.66 88ZM47.66 82C47.38 82 47.16 81.78 47.16 81.5L47.16 78.5C47.16 78.22 47.38 78 47.66 78 47.94 78 48.16 78.22 48.16 78.5L48.16 81.5C48.16 81.78 47.94 82 47.66 82ZM47.66 76C47.38 76 47.16 75.78 47.16 75.5L47.16 72.5C47.16 72.22 47.38 72 47.66 72 47.94 72 48.16 72.22 48.16 72.5L48.16 75.5C48.16 75.78 47.94 76 47.66 76ZM47.66 70C47.38 70 47.16 69.78 47.16 69.5L47.16 66.5C47.16 66.22 47.38 66 47.66 66 47.94 66 48.16 66.22 48.16 66.5L48.16 69.5C48.16 69.78 47.94 70 47.66 70ZM47.66 64C47.38 64 47.16 63.78 47.16 63.5L47.16 60.5C47.16 60.22 47.38 60 47.66 60 47.94 60 48.16 60.22 48.16 60.5L48.16 63.5C48.16 63.78 47.94 64 47.66 64ZM47.66 58C47.38 58 47.16 57.78 47.16 57.5L47.16 54.5C47.16 54.22 47.38 54 47.66 54 47.94 54 48.16 54.22 48.16 54.5L48.16 57.5C48.16 57.78 47.94 58 47.66 58ZM47.66 52C47.38 52 47.16 51.78 47.16 51.5L47.16 48.5C47.16 48.22 47.38 48 47.66 48 47.94 48 48.16 48.22 48.16 48.5L48.16 51.5C48.16 51.78 47.94 52 47.66 52ZM47.66 46C47.38 46 47.16 45.78 47.16 45.5L47.16 42.5C47.16 42.22 47.38 42 47.66 42 47.94 42 48.16 42.22 48.16 42.5L48.16 45.5C48.16 45.78 47.94 46 47.66 46ZM47.66 40C47.38 40 47.16 39.78 47.16 39.5L47.16 36.5C47.16 36.22 47.38 36 47.66 36 47.94 36 48.16 36.22 48.16 36.5L48.16 39.5C48.16 39.78 47.94 40 47.66 40ZM47.66 34C47.38 34 47.16 33.78 47.16 33.5L47.16 30.5C47.16 30.22 47.38 30 47.66 30 47.94 30 48.16 30.22 48.16 30.5L48.16 33.5C48.16 33.78 47.94 34 47.66 34ZM47.66 28C47.38 28 47.16 27.78 47.16 27.5L47.16 24.5C47.16 24.22 47.38 24 47.66 24 47.94 24 48.16 24.22 48.16 24.5L48.16 27.5C48.16 27.78 47.94 28 47.66 28ZM47.66 22C47.38 22 47.16 21.78 47.16 21.5L47.16 18.5C47.16 18.22 47.38 18 47.66 18 47.94 18 48.16 18.22 48.16 18.5L48.16 21.5C48.16 21.78 47.94 22 47.66 22ZM47.66 16C47.38 16 47.16 15.78 47.16 15.5L47.16 12.5C47.16 12.22 47.38 12 47.66 12 47.94 12 48.16 12.22 48.16 12.5L48.16 15.5C48.16 15.78 47.94 16 47.66 16ZM47.66 10C47.38 10 47.16 9.78 47.16 9.5L47.16 6.5C47.16 6.22 47.38 6 47.66 6 47.94 6 48.16 6.22 48.16 6.5L48.16 9.5C48.16 9.78 47.94 10 47.66 10ZM47.66 4C47.38 4 47.16 3.78 47.16 3.5L47.16 0.5C47.16 0.22 47.38 0 47.66 0 47.94 0 48.16 0.22 48.16 0.5L48.16 3.5C48.16 3.78 47.94 4 47.66 4Z" fill="#7A7A9A"/></g><g><path d="M21.39 97.11C21.11 97.11 20.89 96.89 20.89 96.61L20.89 93.61C20.89 93.33 21.11 93.11 21.39 93.11 21.67 93.11 21.89 93.33 21.89 93.61L21.89 96.61C21.89 96.88 21.66 97.11 21.39 97.11ZM21.39 91.11C21.11 91.11 20.89 90.89 20.89 90.61L20.89 87.61C20.89 87.33 21.11 87.11 21.39 87.11 21.67 87.11 21.89 87.33 21.89 87.61L21.89 90.61C21.89 90.88 21.66 91.11 21.39 91.11ZM21.39 85.11C21.11 85.11 20.89 84.89 20.89 84.61L20.89 81.61C20.89 81.33 21.11 81.11 21.39 81.11 21.67 81.11 21.89 81.33 21.89 81.61L21.89 84.61C21.89 84.88 21.66 85.11 21.39 85.11ZM21.39 79.11C21.11 79.11 20.89 78.89 20.89 78.61L20.89 75.61C20.89 75.33 21.11 75.11 21.39 75.11 21.67 75.11 21.89 75.33 21.89 75.61L21.89 78.61C21.89 78.88 21.66 79.11 21.39 79.11ZM21.39 73.11C21.11 73.11 20.89 72.89 20.89 72.61L20.89 69.61C20.89 69.33 21.11 69.11 21.39 69.11 21.67 69.11 21.89 69.33 21.89 69.61L21.89 72.61C21.89 72.88 21.66 73.11 21.39 73.11ZM21.39 67.11C21.11 67.11 20.89 66.89 20.89 66.61L20.89 63.61C20.89 63.33 21.11 63.11 21.39 63.11 21.67 63.11 21.89 63.33 21.89 63.61L21.89 66.61C21.89 66.88 21.66 67.11 21.39 67.11ZM21.39 61.1C21.11 61.1 20.89 60.88 20.89 60.6L20.89 57.6C20.89 57.32 21.11 57.1 21.39 57.1 21.67 57.1 21.89 57.32 21.89 57.6L21.89 60.6C21.89 60.88 21.66 61.1 21.39 61.1ZM21.39 55.1C21.11 55.1 20.89 54.88 20.89 54.6L20.89 51.6C20.89 51.32 21.11 51.1 21.39 51.1 21.67 51.1 21.89 51.32 21.89 51.6L21.89 54.6C21.89 54.88 21.66 55.1 21.39 55.1ZM21.39 49.1C21.11 49.1 20.89 48.88 20.89 48.6L20.89 45.6C20.89 45.32 21.11 45.1 21.39 45.1 21.67 45.1 21.89 45.32 21.89 45.6L21.89 48.6C21.89 48.88 21.66 49.1 21.39 49.1Z" fill="#7A7A9A"/></g><g><path d="M58.23 81.61C57.95 81.61 57.73 81.39 57.73 81.11L57.73 79.51C57.73 79.23 57.95 79.01 58.23 79.01 58.51 79.01 58.73 79.23 58.73 79.51L58.73 81.11C58.73 81.38 58.5 81.61 58.23 81.61ZM58.23 77.01C57.95 77.01 57.73 76.79 57.73 76.51L57.73 73.51C57.73 73.23 57.95 73.01 58.23 73.01 58.51 73.01 58.73 73.23 58.73 73.51L58.73 76.51C58.73 76.78 58.5 77.01 58.23 77.01ZM58.23 71.01C57.95 71.01 57.73 70.79 57.73 70.51L57.73 67.51C57.73 67.23 57.95 67.01 58.23 67.01 58.51 67.01 58.73 67.23 58.73 67.51L58.73 70.51C58.73 70.78 58.5 71.01 58.23 71.01ZM58.23 65.01C57.95 65.01 57.73 64.79 57.73 64.51L57.73 61.51C57.73 61.23 57.95 61.01 58.23 61.01 58.51 61.01 58.73 61.23 58.73 61.51L58.73 64.51C58.73 64.78 58.5 65.01 58.23 65.01Z" fill="#7A7A9A"/></g><g><path d="M47.66 143.94C47.53 143.94 47.4 143.89 47.31 143.79L11.58 108.06C11.38 107.86 11.38 107.55 11.58 107.35 11.78 107.15 12.09 107.15 12.29 107.35L47.67 142.73 83.06 107.35C83.26 107.15 83.57 107.15 83.77 107.35 83.97 107.55 83.97 107.86 83.77 108.06L48.03 143.79C47.92 143.89 47.79 143.94 47.66 143.94Z" fill="#292764"/></g><g><path d="M11.93 36.74C11.8 36.74 11.67 36.69 11.58 36.59 11.38 36.39 11.38 36.08 11.58 35.88L47.31 0.15C47.5-0.04 47.83-0.04 48.02 0.15L83.76 35.89C83.96 36.09 83.96 36.4 83.76 36.6 83.56 36.8 83.25 36.8 83.05 36.6L47.66 1.21 12.29 36.59C12.19 36.69 12.06 36.74 11.93 36.74Z" fill="#292764"/></g><g><path d="M11.93 108.21C11.87 108.21 11.8 108.2 11.74 108.17 11.55 108.09 11.43 107.91 11.43 107.71L11.43 36.24C11.43 36.04 11.55 35.86 11.74 35.78 11.93 35.7 12.14 35.75 12.28 35.89L48.01 71.62C48.21 71.82 48.21 72.13 48.01 72.33L12.28 108.07C12.19 108.16 12.06 108.21 11.93 108.21ZM12.43 37.45 12.43 106.51 46.95 71.98 12.43 37.45Z" fill="#292764"/></g><g><path d="M83.4 108.21C83.27 108.21 83.14 108.16 83.05 108.06L47.31 72.32C47.22 72.23 47.16 72.1 47.16 71.97 47.16 71.84 47.21 71.71 47.31 71.62L83.05 35.89C83.19 35.75 83.41 35.7 83.59 35.78 83.78 35.86 83.9 36.04 83.9 36.24L83.9 107.71C83.9 107.91 83.78 108.09 83.59 108.17 83.53 108.2 83.47 108.21 83.4 108.21ZM48.37 71.97 82.9 106.5 82.9 37.45 48.37 71.97Z" fill="#292764"/></g></g><g><g><path d="M21.77 75.91 9.66 75.91C4.33 75.91 0 71.58 0 66.25 0 65.84 0.34 65.5 0.75 65.5 1.16 65.5 1.5 65.84 1.5 66.25 1.5 70.75 5.16 74.41 9.66 74.41L21.77 74.41C22.18 74.41 22.52 74.75 22.52 75.16 22.52 75.58 22.19 75.91 21.77 75.91Z" fill="#292764"/></g><g><path d="M17.32 80.64C17.13 80.64 16.94 80.57 16.79 80.42 16.5 80.13 16.5 79.65 16.79 79.36L20.93 75.22 16.68 70.97C16.39 70.68 16.39 70.2 16.68 69.91 16.97 69.62 17.45 69.62 17.74 69.91L22.52 74.69C22.81 74.98 22.81 75.46 22.52 75.75L17.85 80.42C17.7 80.56 17.51 80.64 17.32 80.64Z" fill="#292764"/></g></g><g><g><path d="M85.67 75.91 73.55 75.91C73.14 75.91 72.8 75.57 72.8 75.16 72.8 74.75 73.14 74.41 73.55 74.41L85.66 74.41C90.16 74.41 93.82 70.75 93.82 66.25 93.82 65.84 94.16 65.5 94.57 65.5 94.98 65.5 95.32 65.84 95.32 66.25 95.33 71.58 90.99 75.91 85.67 75.91Z" fill="#292764"/></g><g><path d="M78.01 80.64C77.82 80.64 77.63 80.57 77.48 80.42L72.81 75.75C72.52 75.46 72.52 74.98 72.81 74.69L77.59 69.91C77.88 69.62 78.36 69.62 78.65 69.91 78.94 70.2 78.94 70.68 78.65 70.97L74.4 75.22 78.54 79.36C78.83 79.65 78.83 80.13 78.54 80.42 78.39 80.56 78.2 80.64 78.01 80.64Z" fill="#292764"/></g></g></g></svg>