<svg width="80.83" height="81.35" viewBox="0 0 80.83 81.35" xmlns="http://www.w3.org/2000/svg" xmlns:xlink="http://www.w3.org/1999/xlink" xml:space="preserve" overflow="hidden"><defs></defs><g><path d="M80.33 31.54 78.93 36.37 77.2 42.32 3.49 42.32 1.84 36.66 0.5 32.05 32.05 0.5 49.29 0.5Z" stroke="#505CA3" stroke-linecap="round" stroke-linejoin="round" stroke-miterlimit="10" fill="#FFFFFF"/><path d="M42.17 47.45 40.23 49.04 38.67 47.82Z" stroke="#505CA3" stroke-linecap="round" stroke-linejoin="round" stroke-miterlimit="10" fill="#FFFFFF"/><path d="M40.23 49.04 60.69 65.01 53.99 80.85 27.36 80.85 20.66 65.01Z" stroke="#505CA3" stroke-linecap="round" stroke-linejoin="round" stroke-miterlimit="10" fill="#FFFFFF"/><path d="M78.93 36.37 77.2 42.32 76.77 43.82 42.17 47.45 43.45 46.41 3.79 43.36 3.49 42.32 1.84 36.66 40.68 17.7Z" stroke="#505CA3" stroke-linecap="round" stroke-linejoin="round" stroke-miterlimit="10" fill="#FFFFFF"/><line x1="40.68" y1="17.7" x2="64.05" y2="45.15" stroke="#505CA3" stroke-linecap="round" stroke-linejoin="round" stroke-miterlimit="10" fill="none"/><line x1="43.45" y1="46.41" x2="40.68" y2="17.7" stroke="#505CA3" stroke-linecap="round" stroke-linejoin="round" stroke-miterlimit="10" fill="none"/><path d="M52.06 46.41 38.67 47.81 60.69 65.01Z" stroke="#505CA3" stroke-linecap="round" stroke-linejoin="round" stroke-miterlimit="10" fill="#FFFFFF"/><path d="M27.88 45.21 43.45 46.41 20.66 65.01Z" stroke="#505CA3" stroke-linecap="round" stroke-linejoin="round" stroke-miterlimit="10" fill="#FFFFFF"/><line x1="40.68" y1="17.7" x2="19.34" y2="44.56" stroke="#505CA3" stroke-linecap="round" stroke-linejoin="round" stroke-miterlimit="10" fill="none"/><line x1="53.99" y1="80.85" x2="27.36" y2="80.85" stroke="#505CA3" stroke-linecap="round" stroke-linejoin="round" stroke-miterlimit="10" fill="none"/><path d="M40.68 38.56 27.36 80.85 53.99 80.85Z" stroke="#505CA3" stroke-linecap="round" stroke-linejoin="round" stroke-miterlimit="10" fill="#FFFFFF"/><line x1="40.68" y1="80.85" x2="40.68" y2="38.56" stroke="#505CA3" stroke-linecap="round" stroke-linejoin="round" stroke-miterlimit="10" fill="none"/><path d="" stroke="#505CA3" stroke-linecap="round" stroke-linejoin="round" stroke-miterlimit="10" fill="none"/><path d="M32.06 0.5 40.68 9.1 49.3 0.5Z" stroke="#505CA3" stroke-linecap="round" stroke-linejoin="round" stroke-miterlimit="10" fill="#B59DF6"/><path d="M80.19 32.06 76.77 43.82 70.1 32.06Z" stroke="#505CA3" stroke-linecap="round" stroke-linejoin="round" stroke-miterlimit="10" fill="#B59DF6"/><path d="M0.5 32.06 3.79 43.36 12.56 31.43Z" stroke="#505CA3" stroke-linecap="round" stroke-linejoin="round" stroke-miterlimit="10" fill="#B59DF6"/><line x1="40.68" y1="0.5" x2="40.68" y2="17.7" stroke="#505CA3" stroke-linecap="round" stroke-linejoin="round" stroke-miterlimit="10" fill="none"/><line x1="12.56" y1="31.43" x2="1.84" y2="36.66" stroke="#505CA3" stroke-linecap="round" stroke-linejoin="round" stroke-miterlimit="10" fill="none"/><line x1="70.1" y1="32.06" x2="78.93" y2="36.37" stroke="#505CA3" stroke-linecap="round" stroke-linejoin="round" stroke-miterlimit="10" fill="none"/></g></svg>