<svg width="76.2" height="101.31" viewBox="0 0 76.2 101.31" xmlns="http://www.w3.org/2000/svg" xmlns:xlink="http://www.w3.org/1999/xlink" xml:space="preserve" overflow="hidden"><defs></defs><g><g><g><path d="M10.25 55.31 10.3 55.42 10.15 55.57 10.15 68.39 1.5 59.73 1.51 59.72Z" fill="#FFFFFF"/></g><g><g><path d="M75.71 24.27 63.22 36.76 51.83 48.15 51.82 48.14 57.47 42.47 63.06 36.88 75.69 24.25Z" fill="#BDF9F6"/></g><g><path d="M75.69 24.25 63.06 36.88 63.03 36.84 54.78 28.58 50.45 24.22 75.67 24.22Z" fill="#BDF9F6"/></g><g><path d="M74.71 59.72 74.72 59.75 65.49 68.98 65.49 55.41 65.63 55.13 65.69 55.15Z" fill="#FFFFFF"/></g><g><path d="M74.7 59.7 74.71 59.72 65.69 55.15 65.63 55.13 51.83 48.15 63.22 36.76Z" fill="#BDF9F6"/></g><g><path d="M51.83 48.15 65.63 55.13 65.49 55.41 38.11 82.79 38.11 83.08 37.92 82.98 37.9 83.02 10.3 55.42 10.25 55.31 10.34 55.26 24.38 48.16 24.39 48.15 38.1 61.97Z" fill="#BDF9F6"/></g><g><path d="M65.5 76.25 65.5 96.91 65.49 96.91 65.49 96.92 57.21 92.74 51.79 90 51.78 90 51.77 89.99 46.93 87.54 38.11 83.08 38.11 82.79 65.49 55.41 65.49 68.98 65.49 76.25Z" fill="#BDF9F6"/></g><g><path d="M63.06 36.88 57.47 42.47 51.82 48.14 51.83 48.15 38.1 61.97 38.1 36.84 63.03 36.84Z" fill="#BDF9F6"/></g><g><path d="M54.78 28.58 63.03 36.84 38.1 36.84 37.92 36.84 37.92 20 38.1 20.18 42.26 16.01 50.45 24.22Z" fill="#FFFFFF"/></g><g><path d="M46.93 87.54 44.12 90.35 38.11 84.33 38.11 83.08Z" fill="#FFFFFF"/></g><g><path d="M44.12 90.35 32.1 90.35 38.11 84.33Z" fill="#BDF9F6"/></g><g><path d="M42.36 15.91 42.26 16.01 42.17 15.91Z" fill="#BDF9F6"/></g><g><path d="M42.17 15.91 42.26 16.01 38.1 20.18 37.92 20 33.84 15.91Z" fill="#BDF9F6"/></g><g><path d="M38.11 83.08 38.11 84.33 32.1 90.35 29.21 87.45 37.92 83.04 37.9 83.02 37.92 82.98Z" fill="#FFFFFF"/></g><g><path d="M38.1 36.84 38.1 61.97 24.39 48.15 24.42 48.14 13.13 36.84 37.92 36.84Z" fill="#BDF9F6"/></g><g><path d="M37.92 20 37.92 36.84 13.13 36.84 12.97 36.68 21.29 28.33 21.3 28.33 25.38 24.22 33.66 15.91 33.84 15.91Z" fill="#FFFFFF"/></g><g><path d="M37.92 83.04 29.21 87.45 23.88 90.14 23.84 90.16 18.42 92.9 10.16 97.08 10.16 76.42 10.15 76.42 10.15 68.39 10.15 55.57 10.3 55.42 37.9 83.02Z" fill="#BDF9F6"/></g><g><path d="M25.38 24.22 21.3 28.33 21.29 28.33 12.97 36.68 0.52 24.23 0.54 24.22Z" fill="#BDF9F6"/></g><g><path d="M24.42 48.14 24.39 48.15 24.38 48.16 13.07 36.84 13.13 36.84Z" fill="#BDF9F6"/></g><g><path d="M24.38 48.16 10.34 55.26 10.25 55.31 1.51 59.72 12.96 36.84 13.07 36.84Z" fill="#BDF9F6"/></g><g><path d="M13.13 36.84 13.07 36.84 12.99 36.77 12.94 36.71 12.97 36.68Z" fill="#BDF9F6"/></g><g><path d="M13.07 36.84 12.96 36.84 12.99 36.77Z" fill="#BDF9F6"/></g><g><path d="M12.99 36.77 12.96 36.84 12.81 36.84 12.94 36.71Z" fill="#BDF9F6"/></g><g><rect x="6.71" y="21.67" width="0.04" height="17.6" fill="#BDF9F6" transform="matrix(0.7071 -0.7071 0.7071 0.7071 -19.5768 13.6855)"/></g><g><path d="M51.83 48.65C51.7 48.65 51.57 48.6 51.48 48.5 51.28 48.3 51.27 47.98 51.47 47.78L75.34 23.89C75.54 23.69 75.85 23.69 76.05 23.89 76.25 24.09 76.27 24.42 76.07 24.62L52.19 48.5C52.09 48.6 51.96 48.65 51.83 48.65Z" fill="#292764"/></g><g><path d="M63.06 37.38C62.93 37.38 62.81 37.33 62.71 37.24L50.1 24.58C49.96 24.44 49.92 24.22 49.99 24.04 50.07 23.85 50.25 23.73 50.45 23.73L75.67 23.73C75.8 23.73 75.93 23.78 76.02 23.88 76.22 24.08 76.24 24.41 76.04 24.61L63.41 37.23C63.32 37.33 63.19 37.38 63.06 37.38ZM51.65 24.72 63.06 36.17 74.51 24.72 51.65 24.72Z" fill="#292764"/></g><g><path d="M65.49 69.48C65.43 69.48 65.36 69.47 65.3 69.44 65.11 69.36 64.99 69.18 64.99 68.98L64.99 55.41C64.99 55.33 65.01 55.26 65.04 55.19L65.18 54.91C65.3 54.68 65.57 54.57 65.82 54.67L74.94 59.28C75.04 59.33 75.11 59.41 75.16 59.5L75.17 59.52C75.27 59.71 75.23 59.94 75.08 60.1L65.85 69.33C65.75 69.43 65.62 69.48 65.49 69.48ZM65.99 55.87 65.99 67.78 73.89 59.88 65.99 55.87Z" fill="#292764"/></g><g><path d="M74.71 60.22C74.63 60.22 74.56 60.2 74.48 60.17L51.61 48.59C51.47 48.52 51.37 48.38 51.34 48.22 51.32 48.06 51.37 47.9 51.48 47.79L62.87 36.4C62.98 36.29 63.15 36.23 63.3 36.26 63.46 36.29 63.59 36.39 63.67 36.53L75.15 59.48 75.15 59.48 75.16 59.5C75.26 59.69 75.22 59.93 75.07 60.08 74.97 60.17 74.84 60.22 74.71 60.22ZM52.68 48.01 73.59 58.59 63.09 37.6 52.68 48.01Z" fill="#292764"/></g><g><path d="M38.11 83.58C38.03 83.58 37.96 83.56 37.89 83.53L37.83 83.5C37.72 83.49 37.62 83.45 37.55 83.37L9.95 55.78C9.91 55.74 9.88 55.7 9.86 55.65L9.8 55.54C9.68 55.3 9.77 55.01 10 54.88L10.1 54.83 24.13 47.73C24.2 47.69 24.29 47.66 24.38 47.66 24.51 47.67 24.65 47.7 24.75 47.8L38.1 61.26 51.48 47.8C51.63 47.65 51.87 47.61 52.06 47.71L65.86 54.69C66.11 54.81 66.2 55.11 66.08 55.36L65.94 55.64C65.92 55.69 65.88 55.73 65.85 55.77L38.61 83 38.61 83.09C38.61 83.26 38.52 83.42 38.37 83.51 38.3 83.56 38.2 83.58 38.11 83.58ZM11.05 55.46 37.89 82.3 64.88 55.31 51.93 48.76 38.46 62.32C38.37 62.41 38.24 62.47 38.11 62.47L38.11 62.47C37.98 62.47 37.85 62.42 37.76 62.32L24.3 48.76 11.05 55.46Z" fill="#292764"/></g><g><path d="M65.48 97.42C65.41 97.42 65.33 97.4 65.26 97.37L51.6 90.46C51.56 90.45 51.53 90.43 51.5 90.41L37.89 83.53C37.72 83.45 37.62 83.27 37.62 83.08L37.62 82.79C37.62 82.66 37.67 82.53 37.77 82.44L65.15 55.06C65.29 54.92 65.51 54.87 65.69 54.95 65.88 55.03 66 55.21 66 55.41L66 76.15C66 76.19 66 76.22 66 76.25L66 96.91C66 97.11 65.88 97.28 65.72 97.36 65.64 97.4 65.56 97.42 65.48 97.42ZM52 89.54C52 89.54 52.01 89.54 52.01 89.55L65 96.12 65 76.36C64.99 76.33 64.99 76.29 64.99 76.26L64.99 56.62 38.76 82.85 52 89.54C52 89.54 52 89.54 52 89.54Z" fill="#292764"/></g><g><path d="M38.1 62.47C38.04 62.47 37.97 62.46 37.91 62.43 37.72 62.35 37.6 62.17 37.6 61.97L37.6 36.84C37.6 36.56 37.82 36.34 38.1 36.34L63.03 36.34C63.16 36.34 63.28 36.39 63.38 36.48 63.48 36.57 63.55 36.72 63.55 36.85 63.55 36.98 63.51 37.13 63.42 37.22L52.26 48.41C52.24 48.44 52.22 48.48 52.19 48.5L38.46 62.32C38.36 62.42 38.23 62.47 38.1 62.47ZM38.6 37.34 38.6 60.75 51.4 47.88C51.42 47.84 51.44 47.81 51.47 47.78L61.89 37.34 38.6 37.34Z" fill="#292764"/></g><g><path d="M63.03 37.34 37.92 37.34C37.64 37.34 37.42 37.12 37.42 36.84L37.42 20C37.42 19.8 37.54 19.62 37.73 19.54 37.84 19.5 37.95 19.49 38.06 19.52L41.91 15.66C42.1 15.47 42.43 15.47 42.62 15.66L63.39 36.49C63.53 36.63 63.57 36.85 63.5 37.04 63.41 37.22 63.23 37.34 63.03 37.34ZM38.42 36.34 61.83 36.34 54.44 28.93C54.44 28.93 54.44 28.93 54.44 28.93L42.26 16.72 38.45 20.54C38.44 20.55 38.42 20.56 38.41 20.57L38.41 36.34Z" fill="#292764"/></g><g><path d="M44.12 90.85C43.99 90.85 43.86 90.8 43.77 90.7L37.76 84.69C37.67 84.6 37.61 84.47 37.61 84.34L37.61 83.09C37.61 82.92 37.7 82.76 37.85 82.66 38 82.57 38.18 82.56 38.34 82.64L47.16 87.09C47.3 87.16 47.4 87.3 47.43 87.46 47.46 87.62 47.4 87.78 47.29 87.89L44.48 90.7C44.38 90.79 44.26 90.85 44.12 90.85ZM38.61 84.13 44.12 89.64 46.09 87.67 38.61 83.89 38.61 84.13Z" fill="#292764"/></g><g><path d="M44.12 90.85 32.1 90.85C31.9 90.85 31.72 90.73 31.64 90.54 31.56 90.35 31.61 90.14 31.75 90L37.76 83.99C37.95 83.8 38.28 83.8 38.47 83.99L44.48 90C44.62 90.14 44.67 90.36 44.59 90.54 44.51 90.72 44.33 90.85 44.12 90.85ZM33.31 89.85 42.92 89.85 38.12 85.05 33.31 89.85Z" fill="#292764"/></g><g><path d="M42.26 16.51C42.26 16.51 42.25 16.51 42.24 16.51 42.1 16.51 41.97 16.44 41.88 16.34L41.79 16.24C41.66 16.09 41.63 15.88 41.71 15.7 41.79 15.52 41.97 15.41 42.17 15.41L42.36 15.41C42.56 15.41 42.74 15.53 42.82 15.72 42.9 15.91 42.85 16.12 42.71 16.26L42.61 16.36C42.52 16.46 42.39 16.51 42.26 16.51Z" fill="#292764"/></g><g><path d="M38.1 20.68 38.1 20.68C37.97 20.68 37.84 20.63 37.75 20.53L33.49 16.26C33.35 16.12 33.31 15.9 33.38 15.72 33.46 15.53 33.64 15.41 33.84 15.41L42.17 15.41C42.31 15.41 42.45 15.47 42.55 15.58L42.64 15.68C42.81 15.88 42.8 16.18 42.62 16.36L38.46 20.53C38.36 20.63 38.23 20.68 38.1 20.68ZM35.05 16.41 38.1 19.47 41.15 16.41 35.05 16.41Z" fill="#292764"/></g><g><path d="M32.1 90.85C31.97 90.85 31.84 90.8 31.75 90.7L28.85 87.8C28.74 87.69 28.69 87.53 28.71 87.37 28.74 87.21 28.84 87.08 28.98 87L37.53 82.67C37.68 82.51 37.94 82.44 38.14 82.54L38.34 82.64C38.51 82.72 38.62 82.9 38.62 83.09L38.62 84.34C38.62 84.47 38.57 84.6 38.47 84.69L32.46 90.7C32.36 90.8 32.23 90.85 32.1 90.85ZM30.05 87.58 32.1 89.63 37.61 84.12 37.61 83.74 30.05 87.58Z" fill="#292764"/></g><g><path d="M38.1 62.47C37.97 62.47 37.84 62.42 37.75 62.32L24.04 48.5C24 48.46 23.96 48.41 23.94 48.36L12.78 37.2C12.64 37.06 12.59 36.84 12.67 36.66 12.75 36.47 12.93 36.35 13.13 36.35L38.1 36.35C38.38 36.35 38.6 36.57 38.6 36.85L38.6 61.97C38.6 62.17 38.48 62.35 38.29 62.43 38.23 62.45 38.17 62.47 38.1 62.47ZM24.88 47.93 37.6 60.75 37.6 37.34 14.34 37.34 24.78 47.78C24.82 47.83 24.86 47.88 24.88 47.93Z" fill="#292764"/></g><g><path d="M37.92 37.34 13.13 37.34C13 37.34 12.87 37.29 12.78 37.19L12.62 37.03C12.43 36.83 12.43 36.52 12.62 36.33L20.94 27.98C20.96 27.96 20.98 27.94 21.01 27.92L33.31 15.56C33.4 15.47 33.53 15.41 33.66 15.41L33.84 15.41C33.97 15.41 34.1 15.46 34.19 15.56L38.26 19.64C38.35 19.73 38.41 19.86 38.41 19.99L38.41 36.84C38.42 37.12 38.19 37.34 37.92 37.34ZM14.01 36.34 37.42 36.34 37.42 20.21 33.75 16.53 21.65 28.68C21.63 28.7 21.61 28.72 21.58 28.74L14.01 36.34Z" fill="#292764"/></g><g><path d="M10.16 97.58C10.07 97.58 9.98 97.56 9.9 97.51 9.75 97.42 9.66 97.26 9.66 97.08L9.66 76.52C9.65 76.49 9.65 76.45 9.65 76.42L9.65 55.57C9.65 55.44 9.7 55.31 9.8 55.22L9.95 55.07C10.15 54.87 10.46 54.87 10.66 55.07L38.25 82.66C38.36 82.77 38.43 82.95 38.4 83.1 38.37 83.26 38.29 83.41 38.14 83.48L10.38 97.52C10.31 97.56 10.24 97.58 10.16 97.58ZM10.65 76.32C10.66 76.35 10.66 76.39 10.66 76.42L10.66 96.26 37.08 82.9 10.65 56.48 10.65 76.32Z" fill="#292764"/></g><g><path d="M12.97 37.18C12.84 37.18 12.71 37.13 12.62 37.03L0.17 24.59C0.05 24.47 0 24.31 0.03 24.15 0.06 23.99 0.16 23.85 0.31 23.78 0.38 23.75 0.47 23.72 0.55 23.72L25.39 23.72C25.59 23.72 25.77 23.84 25.85 24.03 25.93 24.22 25.89 24.43 25.74 24.57L21.66 28.68C21.64 28.7 21.62 28.72 21.59 28.74L13.33 37.03C13.23 37.13 13.1 37.18 12.97 37.18 12.97 37.18 12.97 37.18 12.97 37.18ZM1.72 24.72 12.97 35.97 20.94 27.97C20.96 27.95 20.98 27.93 21.01 27.91L24.19 24.71 1.72 24.71Z" fill="#292764"/></g><g><path d="M24.38 48.65C24.25 48.65 24.12 48.6 24.02 48.51L12.71 37.2C12.57 37.06 12.52 36.84 12.6 36.66 12.68 36.47 12.86 36.35 13.06 36.35 13.19 36.35 13.39 36.4 13.48 36.5L24.77 47.79C24.89 47.91 24.94 48.09 24.9 48.26 24.86 48.43 24.74 48.56 24.57 48.62 24.51 48.65 24.45 48.66 24.38 48.66 24.39 48.65 24.39 48.65 24.38 48.65Z" fill="#292764"/></g><g><path d="M1.51 60.22C1.38 60.22 1.25 60.17 1.16 60.07 1.01 59.92 0.97 59.68 1.07 59.49L12.52 36.61C12.61 36.44 12.78 36.33 12.97 36.33L13.08 36.33C13.21 36.33 13.34 36.38 13.43 36.48L24.74 47.79C24.85 47.9 24.91 48.06 24.88 48.22 24.85 48.38 24.75 48.51 24.61 48.59L1.74 60.17C1.67 60.21 1.59 60.22 1.51 60.22ZM13.13 37.62 2.64 58.6 23.54 48.03 13.13 37.62Z" fill="#292764"/></g><g><path d="M13.13 37.34 13.06 37.34C12.93 37.34 12.8 37.29 12.71 37.19L12.63 37.11C12.43 36.91 12.38 36.54 12.58 36.35 12.67 36.26 12.82 36.19 12.95 36.19L12.95 36.19C13.08 36.19 13.23 36.23 13.32 36.32L13.48 36.48C13.62 36.62 13.66 36.84 13.59 37.02 13.52 37.22 13.33 37.34 13.13 37.34Z" fill="#292764"/></g><g><path d="M13.07 37.34 12.96 37.34C12.79 37.34 12.64 37.26 12.54 37.12 12.45 36.98 12.43 36.8 12.5 36.65 12.57 36.5 12.72 36.35 12.88 36.32 13.04 36.29 13.23 36.3 13.34 36.42L13.42 36.5C13.56 36.64 13.61 36.86 13.53 37.05 13.45 37.22 13.27 37.34 13.07 37.34Z" fill="#292764"/></g><g><path d="M12.96 37.34 12.81 37.34C12.61 37.34 12.43 37.22 12.35 37.03 12.27 36.84 12.31 36.63 12.46 36.49L12.59 36.36C12.68 36.27 12.81 36.21 12.94 36.21L12.94 36.21C13.07 36.21 13.2 36.26 13.29 36.36 13.43 36.5 13.53 36.77 13.45 36.96L13.42 37.04C13.34 37.22 13.16 37.34 12.96 37.34Z" fill="#292764"/></g><g><path d="M12.94 37.21 12.94 37.21C12.81 37.21 12.68 37.16 12.59 37.06L0.15 24.62C-0.02 24.45-0.04 24.19 0.09 23.99 0.17 23.86 0.32 23.77 0.47 23.75 0.61 23.74 0.78 23.77 0.88 23.88L13.33 36.33C13.42 36.42 13.48 36.55 13.48 36.68 13.48 36.81 13.43 36.94 13.33 37.03L13.3 37.06C13.2 37.16 13.07 37.21 12.94 37.21Z" fill="#292764"/></g></g><g><path d="M10.15 68.89C10.02 68.89 9.89 68.84 9.8 68.74L1.15 60.08C0.95 59.88 0.95 59.57 1.15 59.37 1.19 59.33 1.24 59.29 1.29 59.27L10.02 54.86C10.14 54.8 10.28 54.79 10.4 54.83 10.53 54.87 10.63 54.96 10.69 55.08L10.74 55.19C10.84 55.38 10.8 55.62 10.65 55.77L10.64 55.78 10.64 68.39C10.64 68.59 10.52 68.77 10.33 68.85 10.28 68.88 10.21 68.89 10.15 68.89ZM2.34 59.87 9.65 67.19 9.65 56.18 2.34 59.87Z" fill="#292764"/></g></g><g><g><path d="M29.55 101.31C24.39 101.31 20.19 97.11 20.19 91.95L20.19 80.58C20.19 80.03 20.64 79.58 21.19 79.58 21.74 79.58 22.19 80.03 22.19 80.58L22.19 91.95C22.19 96.01 25.49 99.31 29.55 99.31 33.61 99.31 36.91 96.01 36.91 91.95 36.91 91.4 37.36 90.95 37.91 90.95 38.46 90.95 38.91 91.4 38.91 91.95 38.92 97.11 34.72 101.31 29.55 101.31Z" fill="#292764"/></g><g><path d="M25.62 85.86C25.36 85.86 25.11 85.76 24.91 85.57L21.13 81.79 17.45 85.47C17.06 85.86 16.43 85.86 16.04 85.47 15.65 85.08 15.65 84.45 16.04 84.06L20.42 79.68C20.8 79.3 21.46 79.3 21.83 79.68L26.31 84.16C26.7 84.55 26.7 85.18 26.31 85.57 26.14 85.76 25.88 85.86 25.62 85.86Z" fill="#292764"/></g></g><g><g><path d="M54.64 21.73C54.09 21.73 53.64 21.28 53.64 20.73L53.64 9.36C53.64 5.3 50.34 2 46.28 2 42.22 2 38.92 5.3 38.92 9.36 38.92 9.91 38.47 10.36 37.92 10.36 37.37 10.36 36.92 9.91 36.92 9.36 36.92 4.2 41.12 0 46.28 0 51.44 0 55.64 4.2 55.64 9.36L55.64 20.73C55.64 21.28 55.2 21.73 54.64 21.73Z" fill="#292764"/></g><g><path d="M54.69 21.93C54.43 21.93 54.18 21.83 53.98 21.64L49.5 17.16C49.11 16.77 49.11 16.14 49.5 15.75 49.89 15.36 50.52 15.36 50.91 15.75L54.69 19.53 58.37 15.85C58.76 15.46 59.39 15.46 59.78 15.85 60.17 16.24 60.17 16.87 59.78 17.26L55.4 21.64C55.2 21.84 54.95 21.93 54.69 21.93Z" fill="#292764"/></g></g></g></svg>