<svg width="171.04" height="124.49" viewBox="0 0 171.04 124.49" xmlns="http://www.w3.org/2000/svg" xmlns:xlink="http://www.w3.org/1999/xlink" xml:space="preserve" overflow="hidden"><defs></defs><g><g><g><path d="M163.19 11.25C160.35 6.92 155.68 2.36 147.7 1.9 123.66 0.52 27.08 15.07 10.06 25.59 2.07 30.53 1.08 38.24 2.18 43.34 5.73 59.91 11.76 91.72 35.83 92.98 40.34 93.22 48.22 93.34 57.66 93.38L101.06 122.67 77.87 93.36C104.18 93.2 132.77 92.6 137.1 91.94 150.85 89.83 163.09 84.96 168.03 75.89 169.5 73.19 171.09 23.31 163.19 11.25Z" fill="#FFFDEE" fill-rule="evenodd" clip-rule="evenodd"/><path d="M101.05 124.49C100.7 124.49 100.35 124.39 100.04 124.18L57.1 95.19C47.12 95.14 39.93 95.01 35.73 94.79 11.01 93.49 4.33 62.13 0.74 45.28L0.4 43.71C-0.91 37.61 0.69 29.24 9.1 24.04 25.41 13.97 114.71 0 144.07 0 145.46 0 146.71 0.03 147.8 0.09 154.86 0.49 160.55 3.92 164.7 10.26 173.04 22.99 171.35 73.57 169.62 76.75 163.71 87.59 148.82 91.97 137.37 93.73 133.03 94.4 106.29 94.96 81.58 95.15L102.46 121.56C103.01 122.26 102.97 123.26 102.37 123.91 102.03 124.29 101.54 124.49 101.05 124.49ZM144.07 3.62C130.12 3.62 101.42 6.87 72.64 11.72 41.07 17.03 18.03 22.79 11 27.13 2.42 32.43 3.42 40.59 3.93 42.96L4.27 44.53C7.9 61.55 13.97 90.02 35.91 91.17 40.07 91.39 47.59 91.53 57.65 91.57 58.01 91.57 58.36 91.68 58.65 91.88L92.39 114.65 76.45 94.48C76.02 93.94 75.94 93.2 76.24 92.58 76.54 91.95 77.17 91.56 77.86 91.55 106.5 91.37 132.95 90.75 136.83 90.15 147.47 88.52 161.25 84.56 166.45 75.02 167.9 70.97 168.91 23.27 161.69 12.25 158.15 6.85 153.55 4.05 147.61 3.71 146.58 3.65 145.39 3.62 144.07 3.62Z" fill="#25C8D9"/></g></g></g></svg>