<svg width="104.58" height="121.44" viewBox="0 0 104.58 121.44" xmlns="http://www.w3.org/2000/svg" xmlns:xlink="http://www.w3.org/1999/xlink" xml:space="preserve" overflow="hidden"><defs></defs><g><g><path d="M53.64 0.5 3.2 50.94 104.08 50.94Z" stroke="#505CA3" stroke-linecap="round" stroke-linejoin="round" stroke-miterlimit="10" fill="#FFFFFF"/><path d="M104.08 50.94 13.62 26.32 3.2 50.94Z" stroke="#505CA3" stroke-linecap="round" stroke-linejoin="round" stroke-miterlimit="10" fill="#FFFFFF"/><path d="M53.64 120.94 73.66 73.63 51.64 56.43 104.08 50.94 53.64 26.32 13.62 26.32Z" stroke="#505CA3" stroke-linecap="round" stroke-linejoin="round" stroke-miterlimit="10" fill="#FFFFFF"/><line x1="53.64" y1="0.5" x2="53.64" y2="26.32" stroke="#505CA3" stroke-linecap="round" stroke-linejoin="round" stroke-miterlimit="10" fill="none"/><g><g><line x1="3.2" y1="50.94" x2="5.9" y2="49.62" stroke="#505CA3" stroke-linecap="round" stroke-linejoin="round" fill="none"/><line x1="10.91" y1="47.18" x2="48.45" y2="28.86" stroke="#505CA3" stroke-linecap="round" stroke-linejoin="round" stroke-dasharray="5.5696 5.5696" fill="none"/><line x1="50.95" y1="27.64" x2="53.64" y2="26.32" stroke="#505CA3" stroke-linecap="round" stroke-linejoin="round" fill="none"/></g></g><line x1="53.64" y1="26.32" x2="77.02" y2="53.77" stroke="#505CA3" stroke-linecap="round" stroke-linejoin="round" stroke-miterlimit="10" fill="none"/><g><g><line x1="53.64" y1="26.32" x2="52.48" y2="29.08" stroke="#505CA3" stroke-linecap="round" stroke-linejoin="round" fill="none"/><line x1="49.95" y1="35.05" x2="36.06" y2="67.88" stroke="#505CA3" stroke-linecap="round" stroke-linejoin="round" stroke-dasharray="6.4811 6.4811" fill="none"/><line x1="34.8" y1="70.87" x2="33.63" y2="73.63" stroke="#505CA3" stroke-linecap="round" stroke-linejoin="round" fill="none"/></g></g><line x1="51.64" y1="56.43" x2="53.64" y2="26.32" stroke="#505CA3" stroke-linecap="round" stroke-linejoin="round" stroke-miterlimit="10" fill="none"/><line x1="53.64" y1="120.94" x2="53.64" y2="58" stroke="#505CA3" stroke-linecap="round" stroke-linejoin="round" stroke-miterlimit="10" fill="none"/><path d="M65.03 55.03 51.64 56.43 73.66 73.63Z" stroke="#505CA3" stroke-linecap="round" stroke-linejoin="round" stroke-miterlimit="10" fill="#FFFFFF"/></g><path d="M17.64 65.7 21.58 56.53 11.67 57.71 13.16 59.7 0.5 69.17 3.49 73.17 16.16 63.71Z" stroke="#505CA3" stroke-linecap="round" stroke-linejoin="round" stroke-miterlimit="10" fill="#FFFFFF"/><g><g><path d="M27.72 49.87C37.22 49.87 45.3 55.98 48.23 64.48" stroke="#505CA3" stroke-linecap="round" stroke-linejoin="round" fill="none"/><g><path d="M42.87 64.05 49.42 71.57 52.66 62.14Z" fill="#505CA3"/></g></g></g></g></svg>