<svg width="250.02" height="492.31" viewBox="0 0 250.02 492.31" xmlns="http://www.w3.org/2000/svg" xmlns:xlink="http://www.w3.org/1999/xlink" xml:space="preserve" overflow="hidden"><defs></defs><g><g><g><g><path d="M151.45 370.62C151.45 370.62 171.41 371.66 218.74 419.4 224.85 425.56 213.62 431.52 213.62 431.52 213.62 431.52 149.57 397.53 142.76 391.73 135.96 385.93 151.45 370.62 151.45 370.62Z" fill="#F1AE9E"/></g></g><g><g><path d="M218.07 414.59C172.2 368.81 149.37 363.3 149.37 363.3 149.37 363.3 129.52 385.93 136.32 391.73 142.08 396.64 192.99 421.22 209.01 429.22L218.07 414.59Z" fill="#0078B6"/></g></g><g><g><path d="M213.06 431.17C213.06 431.17 220.87 427.62 219.08 419.13 219.08 419.13 228.72 421.54 233.03 427.57 233.03 427.57 233.3 430.82 233.27 435.24 233.27 436.63 231.99 437.15 231.9 438.72 231.84 440.04 232.98 442.39 232.83 443.74 232.35 448.24 231.39 452.73 229.58 455.79 224.52 464.33 216.39 463.98 215.79 454.69 215.19 445.39 218.01 446.16 213.06 431.17Z" fill="#6D3F1D"/></g><g><path d="M219.82 419.33C223.13 425.2 227.37 427.16 233 428.94 232.93 427.05 233.03 427.56 233.03 427.56 229.43 422.53 222.14 420.03 219.82 419.33Z" fill="#553012"/></g><g><path d="M224 442.49C223.55 436.09 221.58 430.24 218.91 424.5 217.5 429.14 213.06 431.17 213.06 431.17 217.56 444.8 215.65 445.42 215.71 452.4 218.06 458.18 224.44 448.66 224 442.49Z" fill="#8D5129"/></g><g><path d="M231.11 435.13C231.11 436.52 229.83 437.04 229.75 438.61 229.68 439.93 230.82 442.28 230.67 443.63 230.19 448.13 229.24 452.62 227.42 455.68 225.25 459.35 222.51 461.36 220.04 461.75 222.94 462.56 226.75 460.57 229.58 455.79 231.4 452.73 232.35 448.24 232.83 443.74 232.97 442.39 231.83 440.03 231.9 438.72 231.98 437.16 233.26 436.64 233.27 435.24 233.29 430.82 233.03 427.57 233.03 427.57 232.45 426.76 231.77 426.02 231.04 425.34 231.07 427.47 231.12 431.88 231.11 435.13Z" fill="#461603"/></g><g><path d="M213.71 432.62C213.71 432.62 211.07 429.5 212.63 427.56 214.19 425.61 216.76 422.41 219.14 424.94 219.14 424.94 216.85 432.84 213.23 431.27" fill="#8D5129"/></g><g><path d="M220.77 455.62C221 456 220.42 456.76 219.48 457.31 218.54 457.87 217.6 458.01 217.37 457.63 217.14 457.25 217.73 456.49 218.67 455.94 219.61 455.38 220.55 455.23 220.77 455.62Z" fill="#9A592D"/></g><g><path d="M215.88 448.33C215.81 448.33 215.73 448.31 215.67 448.26 215.51 448.14 215.47 447.92 215.59 447.77 215.69 447.63 218.06 444.36 222.65 443.61 222.84 443.59 223.03 443.71 223.06 443.9 223.09 444.09 222.96 444.28 222.76 444.31 218.47 445.01 216.19 448.15 216.16 448.18 216.1 448.27 215.99 448.33 215.88 448.33Z" fill="#BA6236"/></g><g><path d="M215.93 445.23C215.86 445.23 215.79 445.21 215.73 445.16 215.57 445.04 215.53 444.82 215.65 444.67 215.75 444.53 218.12 441.26 222.71 440.51 222.91 440.48 223.09 440.61 223.12 440.81 223.15 441 223.02 441.19 222.82 441.22 218.52 441.93 216.25 445.06 216.23 445.09 216.16 445.18 216.04 445.23 215.93 445.23Z" fill="#BA6236"/></g><g><g><path d="M215.7 441.6C215.63 441.6 215.56 441.58 215.49 441.54 215.33 441.42 215.3 441.2 215.41 441.04 215.51 440.9 217.88 437.63 222.47 436.88 222.66 436.85 222.85 436.98 222.88 437.18 222.91 437.37 222.78 437.56 222.59 437.59 218.28 438.3 216.01 441.43 215.99 441.46 215.92 441.55 215.81 441.6 215.7 441.6Z" fill="#BA6236"/></g></g><g><g><path d="M214.87 438.02C214.8 438.02 214.73 438 214.67 437.96 214.5 437.84 214.47 437.62 214.59 437.46 214.69 437.32 217.06 434.05 221.65 433.3 221.84 433.28 222.03 433.4 222.06 433.6 222.09 433.79 221.96 433.98 221.76 434.01 217.46 434.72 215.19 437.86 215.17 437.88 215.09 437.97 214.99 438.02 214.87 438.02Z" fill="#BA6236"/></g></g><g><path d="M211.91 436.1C210.95 436.1 210.12 436.01 209.41 435.83 208.6 435.62 207.61 435.09 207.49 434.25 207.43 433.86 207.56 433.28 208.47 432.74 209.53 432.1 211.08 432.41 212.14 432.7 213.53 433.07 214.82 433.9 216.06 434.69 216.24 434.81 216.43 434.93 216.61 435.05 216.8 435.07 217.01 435.11 217.22 435.17 217.41 435.22 217.53 435.41 217.48 435.6 217.43 435.79 217.24 435.91 217.05 435.86 216.93 435.83 216.83 435.8 216.73 435.79 216.63 435.83 216.51 435.83 216.41 435.76 216.4 435.75 216.39 435.75 216.38 435.74 216.04 435.7 215.71 435.73 215.27 435.8 214.02 436 212.89 436.1 211.91 436.1ZM210.04 433.09C209.6 433.09 209.17 433.16 208.83 433.36 208.58 433.51 208.15 433.82 208.2 434.15 208.26 434.52 208.85 434.95 209.59 435.14 210.94 435.49 212.81 435.47 215.17 435.1 215.23 435.09 215.28 435.09 215.34 435.08 214.25 434.38 213.13 433.71 211.97 433.4 211.61 433.3 210.81 433.09 210.04 433.09Z" fill="#BA6236"/></g><g><path d="M216.71 435.97C216.58 435.97 216.46 435.9 216.39 435.78 216.28 435.57 216.17 435.35 216.05 435.12 214.9 432.89 213.31 429.84 215.05 427.46 215.36 427.04 215.79 426.87 216.26 426.85 216.82 426.89 217.38 427.28 217.71 427.88 218.74 429.73 218.25 432.14 218 433.09 217.93 433.36 217.77 433.7 217.59 434.05 217.39 434.48 217.08 435.14 217.11 435.38 217.12 435.46 217.1 435.53 217.06 435.6 217.07 435.73 217 435.86 216.87 435.93 216.83 435.96 216.77 435.97 216.71 435.97ZM216.18 427.56C215.97 427.56 215.79 427.67 215.64 427.88 214.2 429.84 215.53 432.54 216.58 434.58 216.68 434.32 216.82 434.04 216.95 433.75 217.11 433.42 217.25 433.11 217.31 432.91 217.8 431.11 217.72 429.36 217.09 428.23 216.88 427.85 216.54 427.58 216.22 427.57 216.21 427.56 216.19 427.56 216.18 427.56Z" fill="#BA6236"/></g></g></g><g><path d="M222.02 256.25C222.14 257.82 222.28 259.38 222.43 260.95 223.55 272.96 226.97 286.42 224.92 298.47 216.6 347.44 149.34 339.27 126.6 306.81 112.93 287.3 112.52 261.77 113.63 238.66 114.88 212.55 127.3 185.49 151.92 173.77 171.56 164.42 197.84 164.94 213.25 181.95 222.28 191.92 223.38 206.84 222.07 219.63 220.8 231.81 221.06 244.06 222.02 256.25Z" fill="#009AC5"/></g><g><path d="M212.81 294.3C217.14 275.98 210.01 259.8 208.09 241.83 206.2 224.18 212.35 201.92 202.27 186.07 194.09 173.21 179.61 170.61 165.39 170.47 164.64 170.46 164.18 170.04 163.97 169.51 159.79 170.53 155.72 171.96 151.91 173.78 127.3 185.5 114.87 212.56 113.62 238.67 112.51 261.78 112.92 287.31 126.59 306.82 139.4 325.11 166.34 335.68 188.91 332.68 199.32 321.73 209.3 309.13 212.81 294.3Z" fill="#008CBF"/></g><g><path d="M138.77 392.12C138.77 392.12 117.06 338.06 107.1 315.95L137.61 299.67C137.61 299.67 145.01 314.36 150.91 331.28 156.81 348.2 161.2 367.34 166.08 380.28 166.07 380.28 156.9 401.85 138.77 392.12Z" fill="#F1AE9E"/></g><g><path d="M133.7 393.16C133.7 393.16 137.74 317.98 141.65 294.05L183.15 302.15C183.15 302.15 182.66 315.46 178.09 334.79 172.36 359.07 160.38 387.89 159.45 399.82 159.45 399.82 143.44 411.28 133.7 393.16Z" fill="#F1AE9E"/></g><g><path d="M134.54 403.25C134.54 403.25 118.6 372.63 108.89 344.18 103.32 327.87 102.32 305 101.93 294.86L137.61 299.66C137.61 299.66 145.53 312.75 151.43 329.66 157.33 346.58 163.95 371.72 168.82 384.67 168.81 384.68 152.67 412.98 134.54 403.25Z" fill="#0078B6"/></g><g><path d="M130.67 395.94C130.67 395.94 139.32 331.86 141.31 296.06L183.16 302.14C183.16 302.14 187.35 317.93 180.19 345.67 176.51 359.92 167.76 383.21 163.59 397.08 163.58 397.09 140.4 414.07 130.67 395.94Z" fill="#0082C5"/></g><g><path d="" fill="#F1AE9E"/></g><g><path d="M175.16 273.38C180.3 232.87 190.18 184.48 181.92 178.49 172.83 171.9 159.36 168.94 145.76 168.69 132.69 168.45 116.66 169.91 103.63 174.41 95.68 177.15 102.06 230.21 104.23 273.38L175.16 273.38Z" fill="#F1AE9E"/></g><g><path d="M136.35 129.53C143.69 124.73 157.29 132.48 157.29 132.48L157.59 171.71C157.59 171.71 131.49 176.98 131.77 171.3 132.4 158.45 131.28 132.83 136.35 129.53Z" fill="#F1AE9E"/></g><g><path d="M146.62 159.7C151.16 162.05 154.93 165.91 157.51 170.3 157.53 170.34 157.55 170.37 157.57 170.41L157.29 132.47C157.29 132.47 143.68 124.73 136.35 129.52 133.86 131.15 132.14 145.5 132.06 158.99 136.77 158.49 142.01 157.31 146.62 159.7Z" fill="#D89E8F"/></g><g><path d="M193.56 43.6C189.6 33 180.65 22.15 169.03 18.19 161.44 15.6 153.3 14.64 145.22 14.96 137.14 14.65 129 15.6 121.41 18.19 109.79 22.15 100.84 33 96.88 43.6 90.57 60.51 87.45 71.4 88.09 89.25 88.98 114.03 96.86 142.48 123.51 150.47 129.89 152.39 137.35 153.42 144.03 153.18 144.42 153.17 144.82 153.14 145.22 153.11 145.61 153.14 146.01 153.17 146.4 153.18 153.08 153.42 160.53 152.39 166.92 150.47 193.57 142.48 201.46 114.03 202.35 89.25 202.99 71.39 199.87 60.51 193.56 43.6Z" fill="#F1AE9E"/></g><g><g><path d="M72.58 90C74.17 98.72 86.56 110.54 89.86 103.16 91.88 98.65 91.83 93.36 90.23 84.64 88.64 75.92 92.04 70.14 84.09 71.59 76.14 73.04 70.99 81.29 72.58 90Z" fill="#F1AE9E"/></g><g><path d="M85.26 79.62C85.4 79.6 85.54 79.61 85.68 79.59 85.72 79.66 85.74 79.73 85.8 79.8 88.42 82.82 86.83 89.12 86.87 92.74 86.89 94.29 87 95.8 87.17 97.31 83.33 97.3 79.83 94.22 79.04 89.85 78.15 84.99 80.94 80.41 85.26 79.62Z" fill="#EE7379"/></g></g><g><g><path d="M216.11 88.42C214.52 97.14 202.13 108.95 198.83 101.57 196.82 97.05 196.86 91.77 198.46 83.05 200.05 74.33 196.65 68.55 204.6 70 212.55 71.46 217.7 79.7 216.11 88.42Z" fill="#F1AE9E"/></g><g><path d="M203.43 78.03C203.29 78 203.15 78.02 203.01 78 202.97 78.07 202.95 78.15 202.89 78.22 200.27 81.24 201.85 87.53 201.81 91.16 201.8 92.71 201.69 94.23 201.51 95.73 205.35 95.72 208.85 92.64 209.65 88.27 210.55 83.4 207.76 78.82 203.43 78.03Z" fill="#EE7379"/></g></g><g><path d="M183 300.97C185.07 281.2 193.51 229.62 192.33 221.01 190.41 206.92 192.38 184.76 181.39 174.37 178.94 172.06 158.66 168.58 158.81 169.82 158.86 170.27 158.92 170.58 158.96 170.78 158.85 170.96 158.72 171.3 158.52 171.92 155.71 181.07 145.25 182.46 138.09 179.72 133.41 177.93 130.06 174.83 131.28 168.91 126.97 169.97 122.86 169.12 118.55 169.35 114.34 169.57 109.86 170.05 105.83 171.32 96.94 174.11 99.95 188.69 97.75 195.55 92.88 210.75 100.97 275.13 102.63 301.23 102.63 301.23 113.89 304.97 136.14 306.8 165.17 309.19 183 300.97 183 300.97Z" fill="#FFFFFF"/></g><g><path d="M151.89 189.1C151.89 193.29 148.5 196.69 144.3 196.69 140.11 196.69 136.72 193.3 136.72 189.1 136.72 184.91 140.11 181.52 144.3 181.52 148.49 181.52 151.89 184.91 151.89 189.1Z" fill="#E64750"/></g><g><path d="M146.45 181.86C147.13 186.09 146.12 190.38 142.28 192.9 141.16 193.63 139.95 194.02 138.71 194.18 140.1 195.71 142.08 196.68 144.31 196.68 148.5 196.68 151.9 193.29 151.9 189.09 151.89 185.66 149.59 182.79 146.45 181.86Z" fill="#BC3C41"/></g><g><path d="M131.56 160.97C131.56 160.97 136.3 178.77 144.3 181.51L125.34 196.68C125.34 196.68 115.75 179.3 120.39 169.19 120.39 169.19 121.86 161.18 131.56 160.97Z" fill="#EDEDED"/></g><g><g><g><g><path d="M194.88 30.13C192.68 26.13 189.89 22.53 186.25 19.73 181.2 15.86 174.37 13.49 167.98 13.82 161.91 14.13 160.82 17.92 161.25 23.51 161.91 32.1 166.69 43.22 172.84 49.36 175.68 52.19 178.3 55.24 181.48 57.73 184.94 60.44 189.73 62.1 191.84 66.2 194.03 70.44 195.02 76.19 196.73 80.77 198.03 84.25 201.21 93.68 203.99 85.3 204.92 82.47 203.95 79.64 204.42 76.8 204.93 73.74 206.25 71.87 205.83 68.72 205.09 63.1 203.31 57.05 202.09 51.46 200.53 44.42 198.51 36.72 194.88 30.13Z" fill="#D28404"/></g></g></g></g><g><g><g><g><path d="M195.31 36.43C198.93 34.18 201.86 31.39 200.78 28.02 199.13 22.9 189.93 13.77 185.55 10.66 172.39 1.32 160.76 15.36 161.97 28.6 163.27 42.73 172.34 42.81 183.06 41.91 190.62 40.91 192.35 38.27 195.31 36.43Z" fill="#D59000"/></g></g></g></g><g><g><g><g><path d="M108.28 27.95C109.81 28.98 111.04 30.79 111.77 33.65 113.66 41.09 110.03 51.46 105.96 57.69 104.57 59.81 103.3 62.01 101.63 64.02 99.88 66.13 97.45 67.41 95.59 69.39 91.95 73.25 93.52 78.79 90.59 83.11 85.09 91.25 80.89 69.16 80.95 66.06 81.14 55.57 81.73 44.74 88.67 36.26 92.95 31.04 102.67 24.18 108.28 27.95Z" fill="#D28404"/></g></g></g></g><g><g><path d="M128.74 110.41C128.74 114.71 123.74 118.2 117.58 118.2 111.42 118.2 106.42 114.71 106.42 110.41 106.42 106.1 111.42 102.61 117.58 102.61 123.74 102.62 128.74 106.11 128.74 110.41Z" fill="#EE9592"/></g><g><path d="M183.3 110.41C183.3 114.71 178.3 118.2 172.14 118.2 165.98 118.2 160.98 114.71 160.98 110.41 160.98 106.1 165.98 102.61 172.14 102.61 178.3 102.62 183.3 106.11 183.3 110.41Z" fill="#EE9592"/></g></g><g><g><path d="M112.4 86.59C111.57 86.59 110.77 86.16 110.33 85.39 109.67 84.25 110.07 82.79 111.21 82.13 124.01 74.79 132.69 76.72 133.06 76.81 134.34 77.11 135.14 78.4 134.83 79.68 134.53 80.96 133.25 81.75 131.98 81.46 131.81 81.42 124.53 80 113.59 86.28 113.21 86.49 112.81 86.59 112.4 86.59Z" fill="#B57303"/></g></g><g><g><path d="M176.64 88.18C176.04 88.18 175.43 87.96 174.97 87.5 167.32 80.03 157.7 81.07 157.6 81.08 156.29 81.22 155.11 80.3 154.95 78.99 154.8 77.68 155.73 76.5 157.05 76.34 157.53 76.28 169.05 75.04 178.31 84.09 179.26 85.01 179.27 86.52 178.35 87.46 177.87 87.94 177.25 88.18 176.64 88.18Z" fill="#B57303"/></g></g><g><path d="M128.38 122.63C128.38 122.63 142.73 126.35 160.62 122.63 160.62 122.63 159.56 136.62 144.32 136.62 129.09 136.63 128.38 122.63 128.38 122.63Z" fill="#702323"/></g><g><path d="M138.52 135.78C140.18 136.3 142.08 136.63 144.33 136.63 148.63 136.63 151.78 135.49 154.12 133.89 149.37 130.82 143.3 131.16 138.52 135.78Z" fill="#BE3C42"/></g><g><path d="M158.83 128.48C160.4 125.41 160.62 122.64 160.62 122.64 142.73 123.88 128.38 122.64 128.38 122.64 128.38 122.64 128.53 125.41 130.03 128.48 130.03 128.48 134.94 129.72 144.68 129.72 154.42 129.72 158.83 128.48 158.83 128.48Z" fill="#FFFFFF"/></g><g><path d="M132.28 95.53C132.28 98.86 130.54 101.55 128.38 101.55 126.23 101.55 124.48 98.85 124.48 95.53 124.48 92.21 126.23 89.51 128.38 89.51 130.54 89.51 132.28 92.21 132.28 95.53Z" fill="#43100A"/></g><g><path d="M156.97 95.53C156.97 98.86 158.71 101.55 160.86 101.55 163.02 101.55 164.76 98.85 164.76 95.53 164.76 92.21 163.01 89.51 160.86 89.51 158.71 89.51 156.97 92.21 156.97 95.53Z" fill="#43100A"/></g><g><path d="M143.5 94.82C144 96.48 144.53 98.01 144.73 99.81 144.8 100.69 144.83 101.62 144.67 102.52 144.54 103.43 144.28 104.33 143.94 105.19L143.93 105.22 143.83 105.39C143.39 106.17 142.95 107.29 142.53 108.28L141.99 109.81 141.77 110.53C141.71 110.73 141.69 111 141.66 111.07L141.68 111.64C141.72 111.81 141.77 111.97 141.87 112.14 142.07 112.47 142.39 112.83 142.82 113.13 143.66 113.74 144.75 114.2 145.87 114.66 144.67 114.92 143.42 114.93 142.14 114.54 141.51 114.34 140.84 114.04 140.28 113.47 140 113.19 139.76 112.85 139.57 112.47 139.47 112.28 139.4 112.03 139.33 111.81 139.27 111.59 139.26 111.5 139.23 111.34 139.18 110.83 139.21 110.51 139.24 110.13 139.3 109.8 139.33 109.46 139.4 109.14 139.51 108.51 139.72 107.92 139.91 107.33 140.31 106.13 140.76 105.08 141.54 103.86L141.43 104.05C141.69 103.37 142.07 102.72 142.24 102 142.44 101.29 142.66 100.56 142.74 99.77 143.02 98.25 143.01 96.48 143.5 94.82Z" fill="#DE9787"/></g><g><path d="M157.89 161.29C157.89 161.29 152.09 178.77 144.09 181.52L163.05 196.69C163.05 196.69 172.64 179.31 168 169.2 168 169.19 167.58 161.5 157.89 161.29Z" fill="#EDEDED"/></g><g><g><path d="M172.62 26.88C173.4 24.02 173.85 21.29 173.78 19.03 173.68 15.62 170.98 11.09 171.11 8.8 171.21 7.09 154.97 2.46 152.95 1.95 146.21 0.23 139.42-0.42 132.47 0.27 117.76 1.73 103.46 7.2 89.97 12.87 77.65 18.05 70.65 15.09 70.89 17.25 73.67 41.71 103.14 51.89 111.79 54.93 120.32 57.93 129.57 59.15 138.58 57.95 148.33 56.66 157.91 52 164.17 44.3 167.39 40.38 170.85 33.3 172.62 26.88Z" fill="#D59000"/></g></g><g><path d="M151.89 189.1C151.89 193.29 148.5 196.69 144.3 196.69 140.11 196.69 136.72 193.3 136.72 189.1 136.72 184.91 140.11 181.52 144.3 181.52 148.49 181.52 151.89 184.91 151.89 189.1Z" fill="#E64750"/></g><g><path d="M146.45 181.86C147.13 186.09 146.12 190.38 142.28 192.9 141.16 193.63 139.95 194.02 138.71 194.18 140.1 195.71 142.08 196.68 144.31 196.68 148.5 196.68 151.9 193.29 151.9 189.09 151.89 185.66 149.59 182.79 146.45 181.86Z" fill="#BC3C41"/></g><g><path d="M131.56 160.97C131.56 160.97 136.3 178.77 144.3 181.51L125.34 196.68C125.34 196.68 115.75 179.3 120.39 169.19 120.39 169.19 121.86 161.18 131.56 160.97Z" fill="#EDEDED"/></g><g><g><path d="M219.93 254.49C222.23 254.38 239.52 270.87 244.02 266.93 247.54 263.85 233.99 246.56 232.89 243.74 212.96 207.33 186.76 179.19 177.33 180.83 161.91 183.51 176.11 201.63 176.11 201.63 176.11 201.63 189.39 224.34 205.23 242.95 209.82 248.34 214.29 254.64 218.87 259.69 218.87 259.7 222.45 256.57 219.93 254.49Z" fill="#F1AE9E"/></g></g><g><g><g><path d="M175.43 171.66C184.4 170.83 210.05 193.84 226.2 224.6 222.72 232.44 208.97 241.29 199.77 242.39 185.43 222 169.52 195.06 169.52 195.06 169.52 195.06 158.34 173.23 175.43 171.66Z" fill="#FFFFFF"/></g></g></g><g><g><path d="M198.31 246.5C198.31 246.5 200.96 233.23 184.33 228.97 184.33 228.97 182.58 231.69 187.42 236.92 190.88 240.65 193.92 243.69 196.11 245.3 196.99 245.95 197.73 246.37 198.31 246.5Z" fill="#F1AE9E"/></g></g><g><g><path d="M236.1 280.21C245.21 282.64 250.37 280.91 250 274.05 249.69 268.3 242.39 259.54 242.39 259.54 222.04 254.96 200.48 251.22 187.99 242.65 174 233.05 182.74 250.61 182.74 250.61 200.25 263.17 208.91 270.48 236.1 280.21Z" fill="#F1AE9E"/></g></g><g><g><path d="M192.83 279.23C190.23 279.23 187.72 277.81 186.45 275.33 160.97 225.61 176.19 173.34 176.85 171.14 177.99 167.35 181.98 165.21 185.77 166.34 189.56 167.48 191.7 171.46 190.57 175.25 190.39 175.88 176.43 224.39 199.19 268.8 200.99 272.32 199.61 276.63 196.09 278.44 195.05 278.98 193.93 279.23 192.83 279.23Z" fill="#37B1DE"/></g></g><g><path d="M195.4 259.17C191.49 258.03 185.34 253.49 182.07 251.08 177.84 247.95 171.95 243.31 172.63 237.46 172.87 235.43 173.44 233.54 174.51 231.82 175.64 229.99 177.48 228.25 179.56 228.92 182.85 229.97 185.39 232.43 187.89 234.7 190.3 236.9 193.43 238.17 195.95 240.33 198.56 242.56 200.27 248.6 199.86 249.49 199.43 250.37 195.4 259.17 195.4 259.17Z" fill="#F1AE9E"/></g><g><g><g><path d="M136.18 393.56C136.18 393.56 131.36 399.88 120.77 470.67 119.14 481.61 132.5 476.86 132.5 476.86 132.5 476.86 158.6 409.06 160.5 397.75 162.42 386.43 136.18 393.56 136.18 393.56Z" fill="#F1AE9E"/></g></g><g><g><path d="M121.55 464.17C129.47 408.47 131.26 391.91 131.26 391.91 131.26 391.91 166.27 383.38 164.37 394.69 162.89 403.51 145.99 450.07 138.91 468.67L121.55 464.17Z" fill="#0082C5"/></g></g><g><g><path d="M120.82 469.11C120.82 469.11 126.37 475.65 134.06 471.59 134.06 471.59 134.39 481.52 129.77 487.31 129.77 487.31 126.72 488.46 122.47 489.65 121.12 490.03 120.28 488.94 118.75 489.29 117.46 489.59 115.51 491.33 114.17 491.56 109.71 492.33 105.13 492.64 101.69 491.74 92.1 489.21 90.2 481.29 98.97 478.17 107.74 475.07 107.75 477.99 120.82 469.11Z" fill="#6D3F1D"/></g><g><path d="M134.06 472.37C129.32 477.17 128.6 481.77 128.44 487.68 130.24 487.09 129.77 487.32 129.77 487.32 133.63 482.48 134.03 474.78 134.06 472.37Z" fill="#553012"/></g><g><path d="M112.93 482.74C118.97 480.55 124.05 477.05 128.83 472.92 123.98 472.83 120.82 469.12 120.82 469.12 108.95 477.19 107.83 475.52 101.14 477.49 96.22 481.33 107.13 484.85 112.93 482.74Z" fill="#8D5129"/></g><g><path d="M121.96 487.55C120.62 487.93 119.77 486.84 118.24 487.19 116.95 487.49 115 489.23 113.66 489.46 109.2 490.23 104.62 490.54 101.19 489.64 97.06 488.56 94.38 486.47 93.33 484.21 93.34 487.22 96.3 490.34 101.68 491.75 105.12 492.65 109.7 492.34 114.16 491.57 115.5 491.33 117.45 489.59 118.74 489.3 120.27 488.95 121.11 490.03 122.46 489.66 126.72 488.47 129.76 487.32 129.76 487.32 130.38 486.54 130.91 485.69 131.36 484.8 129.32 485.42 125.09 486.68 121.96 487.55Z" fill="#461603"/></g><g><path d="M119.61 470.13C119.61 470.13 121.89 466.73 124.19 467.7 126.49 468.67 130.27 470.25 128.49 473.24 128.49 473.24 120.27 473.2 120.78 469.3" fill="#8D5129"/></g><g><path d="M99.44 483.24C99.13 483.56 98.25 483.21 97.45 482.46 96.66 481.71 96.26 480.84 96.56 480.52 96.86 480.2 97.75 480.55 98.54 481.3 99.34 482.05 99.74 482.92 99.44 483.24Z" fill="#9A592D"/></g><g><path d="M111.18 482.25C111.05 482.25 110.92 482.18 110.85 482.05 108.99 478.1 105.36 476.78 105.32 476.77 105.14 476.7 105.03 476.5 105.1 476.31 105.17 476.13 105.37 476.03 105.56 476.09 105.72 476.15 109.51 477.53 111.5 481.74 111.58 481.92 111.51 482.13 111.33 482.22 111.28 482.24 111.23 482.25 111.18 482.25Z" fill="#BA6236"/></g><g><path d="M114.17 481.46C114.03 481.46 113.91 481.39 113.85 481.26 111.99 477.31 108.35 475.99 108.31 475.98 108.12 475.92 108.03 475.71 108.09 475.52 108.15 475.34 108.36 475.24 108.54 475.3 108.71 475.36 112.5 476.74 114.49 480.95 114.57 481.13 114.49 481.35 114.31 481.43 114.27 481.45 114.22 481.46 114.17 481.46Z" fill="#BA6236"/></g><g><g><path d="M117.59 480.24C117.46 480.24 117.33 480.17 117.27 480.04 115.41 476.09 111.77 474.77 111.73 474.76 111.55 474.7 111.45 474.49 111.51 474.3 111.57 474.12 111.78 474.02 111.97 474.08 112.13 474.14 115.93 475.52 117.91 479.73 118 479.91 117.92 480.12 117.74 480.21 117.7 480.23 117.64 480.24 117.59 480.24Z" fill="#BA6236"/></g></g><g><g><path d="M120.81 478.46C120.68 478.46 120.55 478.39 120.49 478.26 118.63 474.33 115 472.99 114.96 472.98 114.77 472.91 114.67 472.71 114.74 472.52 114.8 472.34 115.02 472.24 115.2 472.3 115.36 472.36 119.15 473.74 121.14 477.95 121.22 478.13 121.15 478.34 120.97 478.43 120.91 478.45 120.86 478.46 120.81 478.46Z" fill="#BA6236"/></g></g><g><path d="M117.75 474.58C117.56 474.58 117.4 474.42 117.39 474.23 117.39 474.11 117.38 474 117.37 473.9 117.31 473.81 117.28 473.7 117.31 473.59 117.31 473.58 117.31 473.57 117.32 473.56 117.26 473.22 117.15 472.91 116.96 472.51 115.92 470.26 115.37 468.36 115.33 466.88 115.31 466.04 115.55 464.94 116.32 464.59 116.68 464.43 117.28 464.39 118.04 465.12 118.94 465.97 119.07 467.54 119.09 468.64 119.11 470.08 118.67 471.54 118.25 472.96 118.19 473.18 118.12 473.39 118.06 473.6 118.09 473.79 118.1 473.99 118.11 474.21 118.12 474.4 117.96 474.57 117.77 474.58L117.75 474.58ZM116.78 465.22C116.72 465.22 116.67 465.23 116.62 465.25 116.27 465.4 116.03 466.09 116.05 466.86 116.09 468.25 116.62 470.05 117.62 472.21 117.64 472.27 117.67 472.32 117.68 472.37 118.05 471.13 118.4 469.87 118.37 468.67 118.36 468.11 118.33 466.39 117.55 465.65 117.38 465.47 117.06 465.22 116.78 465.22Z" fill="#BA6236"/></g><g><path d="M120.31 474.39C120.03 474.39 119.67 474.33 119.29 474.27 118.82 474.19 118.1 474.07 117.87 474.17 117.81 474.2 117.73 474.21 117.66 474.19 117.53 474.23 117.38 474.19 117.29 474.09 117.15 473.95 117.16 473.72 117.31 473.59 117.49 473.43 117.66 473.26 117.85 473.08 119.67 471.35 122.17 468.98 124.95 470.02 125.44 470.2 125.76 470.56 125.86 471.01 125.98 471.56 125.75 472.2 125.27 472.69 123.77 474.19 121.32 474.38 120.33 474.39L120.31 474.39ZM118.51 473.44C118.79 473.46 119.09 473.51 119.41 473.56 119.76 473.62 120.09 473.68 120.3 473.68L120.32 473.68C122.19 473.65 123.86 473.09 124.76 472.18 125.07 471.87 125.23 471.46 125.16 471.16 125.11 470.94 124.95 470.78 124.69 470.68 122.42 469.84 120.18 471.86 118.51 473.44Z" fill="#BA6236"/></g></g></g><g><g><path d="M37.89 136.72C42.66 136.54 46.22 139.11 50.58 132.95 54.22 127.79 55.88 122.76 55.88 122.76 40.55 105.1 21.28 79.93 15.81 64.14 9.68 46.46 5.62 67.46 5.62 67.46 12.9 90.07 19.88 110.03 37.89 136.72Z" fill="#F1AE9E"/></g></g><g><g><g><path d="M37.9 130.74C38.1 128.37 37.81 127.69 41.8 122.97 44.91 119.28 52.59 121.2 55.25 122.28 91.85 152.63 113.01 170.69 111.02 180.44 107.77 196.39 92.67 184.28 92.67 184.28 92.67 184.28 56.26 153.27 38.7 137.79 35.46 134.92 41.92 133.21 37.9 130.74L37.9 130.74Z" fill="#F1AE9E"/></g></g></g><g><g><g><path d="M113.28 174.86C114.99 166.49 95.12 146.35 68.45 123.89 60.7 126.36 48.4 142.44 46.4 151 64.13 166.64 96.65 209.38 96.65 209.38 96.65 209.38 110.02 190.81 113.28 174.86Z" fill="#FFFFFF"/></g></g></g><g><path d="M18.22 71.48C18.22 71.48 27.88 63.02 17.83 50.22 17.83 50.22 14.94 51.26 15.57 57.99 16.02 62.8 16.55 66.84 17.27 69.31 17.55 70.3 17.87 71.04 18.22 71.48Z" fill="#F1AE9E"/></g><g><path d="M6.71 70.91C4.43 67.8 2.67 64.1 1.61 60.4 0.23 55.6-1.51 48.71 2.38 44.7 3.72 43.32 5.26 42.22 7.05 41.54 8.96 40.82 11.35 40.57 12.53 42.27 14.39 44.96 14.88 48.28 15.45 51.42 16 54.47 17.62 57.23 18.28 60.31 18.95 63.5 16.75 69.03 15.93 69.46 15.08 69.89 6.71 70.91 6.71 70.91Z" fill="#F1AE9E"/></g></g></svg>