<svg width="104.86" height="82.16" viewBox="0 0 104.86 82.16" xmlns="http://www.w3.org/2000/svg" xmlns:xlink="http://www.w3.org/1999/xlink" xml:space="preserve" overflow="hidden"><defs></defs><g><g><path d="M104.37 8.85 94.38 18.85 104.35 8.83Z" fill="#BDF9F6"/></g><g><path d="M104.35 8.83 94.38 18.85 91.88 21.35 91.85 21.32 83.44 13.16 79.11 8.81 104.33 8.81Z" fill="#BDF9F6"/></g><g><path d="M103.37 44.31 103.38 44.33 94.15 53.57 75.59 72.12 72.78 74.93 60.76 74.93 57.86 72.03 38.81 52.98 30.16 44.32 30.17 44.31 41.62 21.43 41.73 21.43 41.79 21.43 41.63 21.27 49.95 12.91 49.96 12.91 54.04 8.81 79.11 8.81 83.44 13.16 91.85 21.32 91.88 21.35 103.36 44.29Z" fill="#BDF9F6"/></g><g><path d="M94.16 60.84 94.16 81.5 94.15 81.5 94.15 81.51 85.87 77.33 80.45 74.58 80.44 74.58 80.43 74.57 75.59 72.12 94.15 53.57 94.15 60.84Z" fill="#BDF9F6"/></g><g><path d="M70.92 0.6 79.11 8.81 54.04 8.81 62.32 0.5 70.83 0.5Z" fill="#BDF9F6"/></g><g><path d="M57.86 72.03 52.54 74.72 52.5 74.75 47.08 77.49 38.82 81.66 38.82 61 38.81 61 38.81 52.98Z" fill="#BDF9F6"/></g><g><path d="M54.04 8.81 49.96 12.91 49.95 12.91 41.63 21.27 41.6 21.3 29.16 8.85 29.18 8.82 29.2 8.81Z" fill="#BDF9F6"/></g><g><path d="M41.79 21.43 41.73 21.43 41.65 21.35 41.6 21.3 41.63 21.27Z" fill="#BDF9F6"/></g><g><path d="M41.73 21.43 41.62 21.43 41.65 21.35Z" fill="#BDF9F6"/></g><g><path d="M41.65 21.35 41.62 21.43 41.46 21.43 41.6 21.3Z" fill="#BDF9F6"/></g><g><path d="M94.38 19.35C94.25 19.35 94.12 19.3 94.03 19.2 93.83 19.01 93.83 18.69 94.03 18.49L104 8.48C104.09 8.39 104.22 8.33 104.35 8.33 104.35 8.33 104.35 8.33 104.35 8.33 104.48 8.33 104.61 8.38 104.7 8.48 104.9 8.68 104.92 9.01 104.72 9.21L94.72 19.21C94.63 19.3 94.51 19.35 94.38 19.35Z" fill="#292764"/></g><g><path d="M91.88 21.85C91.76 21.89 91.62 21.79 91.52 21.7L83.09 13.52 78.75 9.16C78.61 9.02 78.57 8.8 78.64 8.62 78.72 8.43 78.9 8.31 79.1 8.31L104.32 8.31C104.45 8.31 104.58 8.36 104.67 8.46 104.87 8.66 104.89 8.99 104.69 9.19L92.24 21.71C92.14 21.8 92.02 21.85 91.88 21.85ZM80.31 9.31 83.8 12.81 91.88 20.65 103.17 9.31 80.31 9.31Z" fill="#292764"/></g><g><path d="M72.78 75.43 60.76 75.43C60.63 75.43 60.5 75.38 60.41 75.28L29.81 44.67C29.64 44.5 29.62 44.23 29.75 44.03L41.13 21.28C41.12 21.15 41.17 21.01 41.27 20.9L49.59 12.55C49.61 12.53 49.63 12.51 49.66 12.49L53.69 8.44C53.78 8.35 53.91 8.29 54.04 8.29L79.11 8.29C79.24 8.29 79.37 8.34 79.46 8.44L83.79 12.8 92.19 20.95C92.23 20.99 92.3 21.07 92.32 21.12L103.8 44.05 103.81 44.07 103.82 44.09C103.92 44.28 103.88 44.51 103.73 44.67L73.13 75.27C73.04 75.38 72.92 75.43 72.78 75.43ZM60.97 74.43 72.58 74.43 102.78 44.23 91.48 21.65 83.1 13.52 78.9 9.31 54.25 9.31 50.31 13.27C50.29 13.29 50.27 13.31 50.24 13.33L42.27 21.33C42.29 21.43 42.28 21.53 42.24 21.63 42.18 21.77 42.06 21.87 41.92 21.92L30.77 44.22 60.97 74.43Z" fill="#292764"/></g><g><path d="M94.14 82.01C94.07 82.01 93.99 81.99 93.92 81.96L80.26 75.05C80.22 75.04 80.19 75.02 80.16 75L75.37 72.57C75.23 72.5 75.13 72.36 75.1 72.2 75.08 72.04 75.13 71.88 75.24 71.77L93.8 53.21C93.94 53.07 94.16 53.02 94.34 53.1 94.53 53.18 94.65 53.36 94.65 53.56L94.65 60.73C94.66 60.76 94.66 60.8 94.66 60.84L94.66 81.5C94.66 81.7 94.54 81.88 94.36 81.96 94.29 81.99 94.22 82.01 94.14 82.01ZM80.66 74.13C80.66 74.13 80.67 74.13 80.67 74.14L93.66 80.71 93.66 60.95C93.65 60.91 93.65 60.88 93.65 60.84L93.65 54.77 76.43 71.99 80.66 74.13C80.66 74.13 80.66 74.13 80.66 74.13Z" fill="#292764"/></g><g><path d="M79.11 9.31 54.04 9.31C53.84 9.31 53.66 9.19 53.58 9 53.5 8.81 53.54 8.6 53.69 8.46L61.97 0.15C62.06 0.05 62.19 0 62.32 0L70.84 0C70.98 0 71.12 0.06 71.21 0.17L71.29 0.26 79.47 8.46C79.61 8.6 79.65 8.81 79.57 9 79.5 9.19 79.31 9.31 79.11 9.31ZM55.25 8.31 77.91 8.31 70.62 1 62.53 1 55.25 8.31Z" fill="#292764"/></g><g><path d="M38.82 82.16C38.73 82.16 38.64 82.14 38.56 82.09 38.41 82 38.32 81.84 38.32 81.66L38.32 61.1C38.31 61.07 38.31 61.03 38.31 61L38.31 52.97C38.31 52.77 38.43 52.59 38.62 52.51 38.81 52.43 39.02 52.47 39.16 52.62L58.22 71.68C58.33 71.79 58.39 71.95 58.36 72.11 58.33 72.27 58.23 72.4 58.09 72.48L39.04 82.11C38.97 82.14 38.9 82.16 38.82 82.16ZM39.31 60.9C39.32 60.93 39.32 60.97 39.32 61L39.32 80.84 57.02 71.89 39.31 54.18 39.31 60.9Z" fill="#292764"/></g><g><path d="M41.61 21.78C41.48 21.78 41.33 21.74 41.24 21.65L28.81 9.21C28.64 9.04 28.62 8.78 28.75 8.58 28.8 8.5 28.89 8.41 28.97 8.37 29.04 8.34 29.13 8.31 29.21 8.31L54.05 8.31C54.25 8.31 54.43 8.43 54.51 8.62 54.59 8.81 54.55 9.02 54.4 9.16L50.32 13.27C50.3 13.29 50.28 13.31 50.25 13.33L41.99 21.63C41.89 21.71 41.74 21.78 41.61 21.78L41.61 21.78ZM30.32 9.31 41.59 20.59 49.59 12.56C49.61 12.54 49.63 12.52 49.66 12.5L52.84 9.3 30.32 9.3Z" fill="#292764"/></g><g><path d="M41.79 21.93 41.72 21.93C41.59 21.93 41.46 21.88 41.37 21.78L41.29 21.7C41.2 21.61 41.12 21.45 41.12 21.32 41.12 21.19 41.15 21.03 41.24 20.94 41.44 20.75 41.78 20.72 41.98 20.91L42.14 21.07C42.28 21.21 42.33 21.43 42.25 21.61 42.18 21.81 41.99 21.93 41.79 21.93Z" fill="#292764"/></g><g><path d="M41.73 21.93 41.62 21.93C41.45 21.93 41.3 21.85 41.2 21.71 41.11 21.57 41.09 21.39 41.16 21.24 41.23 21.09 41.38 20.94 41.54 20.91 41.7 20.88 41.89 20.89 42 21.01L42.08 21.09C42.22 21.23 42.27 21.45 42.19 21.63 42.11 21.81 41.93 21.93 41.73 21.93Z" fill="#292764"/></g><g><path d="M41.62 21.93 41.47 21.93C41.27 21.93 41.09 21.81 41.01 21.62 40.93 21.43 40.97 21.22 41.12 21.08L41.25 20.95C41.34 20.86 41.47 20.8 41.6 20.8L41.6 20.8C41.73 20.8 41.86 20.85 41.95 20.95 42.09 21.09 42.19 21.36 42.11 21.55L42.08 21.63C42 21.81 41.82 21.93 41.62 21.93Z" fill="#292764"/></g><g><g><path d="M45.44 42.15C45.36 42.15 45.27 42.14 45.19 42.12 44.66 41.98 44.34 41.43 44.48 40.9 45.84 35.73 43.48 29.67 38.73 26.17 35.13 23.51 30.57 22.51 26.54 23.49 26.46 23.51 26.38 23.53 26.31 23.55 27.53 26.02 28.18 28.77 28.15 31.53 28.11 34.2 27.4 36.46 26.1 38.07 24.4 40.17 21.63 41.06 19.36 40.25 17.7 39.66 16.36 38.19 15.78 36.33 15.31 34.83 15.32 33.08 15.81 31.25 16.83 27.44 19.68 24.21 23.38 22.48 22.66 21.43 21.81 20.48 20.85 19.64 17.47 16.7 12.81 15.34 8.38 16.01 5.39 16.46 3.02 17.84 1.87 19.79 1.59 20.27 0.98 20.43 0.5 20.15 0.02 19.87-0.13 19.26 0.14 18.78 1.6 16.31 4.49 14.58 8.07 14.03 13.07 13.27 18.34 14.8 22.15 18.13 23.36 19.18 24.41 20.41 25.28 21.75 25.54 21.67 25.8 21.6 26.06 21.54 30.66 20.42 35.84 21.55 39.91 24.55 45.3 28.52 47.97 35.45 46.41 41.4 46.29 41.85 45.88 42.15 45.44 42.15ZM24.4 24.22C21.16 25.69 18.59 28.52 17.72 31.78 17.33 33.23 17.31 34.6 17.67 35.74 18.06 36.99 18.96 37.99 20.02 38.37 21.67 38.96 23.54 38.03 24.53 36.81 25.82 35.22 26.12 33.04 26.14 31.5 26.17 28.97 25.55 26.46 24.4 24.22Z" fill="#292764"/></g><g><path d="M45.54 43.16C45.48 43.16 45.41 43.15 45.35 43.14 45.09 43.09 44.86 42.94 44.71 42.72L40.5 36.53C40.19 36.07 40.31 35.45 40.76 35.14 41.22 34.83 41.84 34.95 42.15 35.4L45.8 40.76 51.3 37.01C51.76 36.7 52.38 36.82 52.69 37.27 53 37.73 52.88 38.35 52.43 38.66L46.1 42.97C45.93 43.1 45.74 43.16 45.54 43.16Z" fill="#292764"/></g></g></g></svg>