<svg width="85.68" height="93.37" viewBox="0 0 85.68 93.37" xmlns="http://www.w3.org/2000/svg" xmlns:xlink="http://www.w3.org/1999/xlink" xml:space="preserve" overflow="hidden"><defs></defs><g><g><path d="M46.38 17.25 46.37 17.25 46.37 17.25 8.46 55.15 46.37 93.07 84.29 55.15Z" stroke="#435791" stroke-width="0.6179" stroke-linecap="round" stroke-linejoin="round" stroke-miterlimit="10" fill="#E4DEFF"/><g><g><path d="M72.47 0.31 48.58 17.28 47.18 65.5C54.91 65.5 62.64 65.5 70.52 65.5L72.47 0.31Z" stroke="#435791" stroke-width="0.6179" stroke-linecap="round" stroke-linejoin="round" stroke-miterlimit="10" fill="#8EA7E8"/><path d="M71.26 40.47C64.26 32.66 56.19 24.03 49.27 16.78L48.58 17.27 47.18 65.49C54.91 65.49 62.64 65.49 70.52 65.49L71.26 40.47Z" fill="#8EA7E8" opacity="0.5"/></g><g><path d="M43.93 17.28 19.99 0.39 22.16 65.49C30.06 65.49 37.79 65.49 45.5 65.49L43.93 17.28Z" stroke="#435791" stroke-width="0.6179" stroke-linecap="round" stroke-linejoin="round" stroke-miterlimit="10" fill="#8EA7E8"/><path d="M43.93 17.28 43.1 16.7C38.78 21.28 24.37 36.67 21.3 39.99L22.15 65.49C30.05 65.49 37.78 65.49 45.49 65.49L43.93 17.28Z" fill="#8EA7E8" opacity="0.5"/></g></g><g><path d="M43.93 17.28 43.93 17.28 46.38 93.06 7.27 56.39Z" stroke="#435791" stroke-width="0.6179" stroke-linecap="round" stroke-linejoin="round" stroke-miterlimit="10" fill="#8EA7E8"/></g><g><path d="M48.58 17.28 48.58 17.28 46.37 93.07 85.37 56.27Z" stroke="#435791" stroke-width="0.6179" stroke-linecap="round" stroke-linejoin="round" stroke-miterlimit="10" fill="#8EA7E8"/></g></g><g><path d="M18.19 33.66 17.29 34.58 16.94 33.35 16.58 32.1 17.83 32.42 19.08 32.73Z" fill="#435791"/><path d="M1.8 18.93C-2.72 26.11 4.65 33.56 11.31 29.09 20.26 23.09 8.74 17.07 7.09 24.02 5.76 29.63 12.55 35.82 17.91 32.94" stroke="#435791" stroke-width="0.821" stroke-miterlimit="10" fill="none"/></g></g></svg>