<svg width="39.42" height="82.96" viewBox="0 0 39.42 82.96" xmlns="http://www.w3.org/2000/svg" xmlns:xlink="http://www.w3.org/1999/xlink" xml:space="preserve" overflow="hidden"><defs></defs><g><g><g><g><path d="M0.5 0.5 7.87 0.5 34.62 26.49 0.5 81.21Z" fill="#E4CDFC"/></g><g><path d="M38.52 19.43 34.29 26.21 7.71 0.5 38.87 0.5 38.87 19.43Z" fill="#EEF3FF"/></g><g><path d="M38.52 20.24 34.6 26.51 7.71 0.5 38.87 0.5 38.87 20.38Z" fill="#EEF3FF"/></g><g><g><path d="M0.14 79.45 0.86 79.45 0.86 82.14 0.14 82.14 0.14 79.45ZM0.14 72.87 0.86 72.87 0.86 76.16 0.14 76.16 0.14 72.87ZM0.14 66.29 0.86 66.29 0.86 69.58 0.14 69.58 0.14 66.29ZM0.14 59.71 0.86 59.71 0.86 63 0.14 63 0.14 59.71ZM0.14 53.13 0.86 53.13 0.86 56.42 0.14 56.42 0.14 53.13ZM0.14 46.55 0.86 46.55 0.86 49.84 0.14 49.84 0.14 46.55ZM0.14 39.97 0.86 39.97 0.86 43.26 0.14 43.26 0.14 39.97ZM0.14 33.4 0.86 33.4 0.86 36.69 0.14 36.69 0.14 33.4ZM0.14 26.82 0.86 26.82 0.86 30.11 0.14 30.11 0.14 26.82ZM0.14 20.24 0.86 20.24 0.86 23.53 0.14 23.53 0.14 20.24ZM0.14 13.66 0.86 13.66 0.86 16.95 0.14 16.95 0.14 13.66ZM0.14 7.08 0.86 7.08 0.86 10.37 0.14 10.37 0.14 7.08ZM0.14 0.5 0.86 0.5 0.86 3.79 0.14 3.79 0.14 0.5Z" fill="#8796D8"/></g></g><g><rect x="0.14" y="0" width="7.57" height="1" fill="#8796D8"/></g><g><path d="M34.43 26.8 7.35 0.5 8.38 0.5 34.81 26.17Z" fill="#8796D8"/></g><g><path d="M34.49 27.1 6.48 0 39.38 0 39.38 20.35 38.95 20.35 34.49 27.1ZM8.95 1 34.33 25.55 38.38 19.41 38.38 1 8.95 1Z" fill="#8796D8"/></g><g><path d="M38.52 20.24 0.14 20.24 0.14 81.78Z" fill="#EEF3FF"/></g><g><path d="M0 82.96 0 19.74 39.42 19.74 0 82.96ZM1 20.74 1 79.47 37.62 20.74 1 20.74Z" fill="#8796D8"/></g></g></g><g><path d="M18.06 53.85 17.06 53.85 17.06 50.5 18.06 50.5 18.06 53.85ZM18.06 45.5 17.06 45.5 17.06 40.5 18.06 40.5 18.06 45.5ZM18.06 35.5 17.06 35.5 17.06 30.5 18.06 30.5 18.06 35.5ZM18.06 25.5 17.06 25.5 17.06 20.5 18.06 20.5 18.06 25.5ZM18.06 15.5 17.06 15.5 17.06 10.5 18.06 10.5 18.06 15.5ZM18.06 5.5 17.06 5.5 17.06 0.5 18.06 0.5 18.06 5.5Z" fill="#8796D8"/></g></g></svg>