<svg width="89.47" height="87.26" viewBox="0 0 89.47 87.26" xmlns="http://www.w3.org/2000/svg" xmlns:xlink="http://www.w3.org/1999/xlink" xml:space="preserve" overflow="hidden"><defs></defs><g><g><g><path d="M88.97 15.3 88.97 51.03 68.04 25.76Z" fill="#F3D5AA"/></g><g><path d="M68.04 25.76 88.97 51.03 53.23 86.76 17.5 51.03Z" fill="#FFFFFF"/></g><g><path d="M88.97 15.3 68.04 25.76 68.03 0.5Z" fill="#F3D5AA"/></g><g><path d="M68.03 0.5 68.04 25.76 17.5 51.03 17.5 32.3 17.5 15.3 17.5 0.5Z" fill="#FFFFFF"/></g><g><path d="M17.5 15.3 17.5 32.3 0.5 15.3Z" fill="#F3D5AA"/></g><g><path d="M17.5 32.8C17.37 32.8 17.24 32.75 17.15 32.65L0.15 15.65C0 15.51-0.04 15.29 0.04 15.11 0.12 14.92 0.3 14.8 0.5 14.8L17.5 14.8C17.78 14.8 18 15.02 18 15.3 18 15.58 17.78 15.8 17.5 15.8L1.71 15.8 17.86 31.95C18.06 32.15 18.06 32.46 17.86 32.66 17.76 32.75 17.63 32.8 17.5 32.8Z" fill="#292764"/></g><g><path d="M17.5 51.53C17.22 51.53 17 51.31 17 51.03L17 0.5C17 0.22 17.22 0 17.5 0L68.03 0C68.13 0 68.23 0.03 68.32 0.09L89.26 14.89C89.49 15.05 89.54 15.36 89.38 15.59 89.22 15.81 88.91 15.87 88.68 15.71L67.87 1 18 1 18 51.03C18 51.31 17.78 51.53 17.5 51.53Z" fill="#292764"/></g><g><path d="M53.23 87.26C53.1 87.26 52.97 87.21 52.88 87.11L17.15 51.38C17.04 51.27 16.98 51.1 17.01 50.95 17.04 50.79 17.14 50.66 17.28 50.58L88.75 14.85C88.91 14.77 89.09 14.78 89.24 14.87 89.39 14.96 89.48 15.12 89.48 15.3L89.48 51.03C89.48 51.16 89.43 51.29 89.33 51.38L53.58 87.11C53.49 87.21 53.36 87.26 53.23 87.26ZM18.34 51.17 53.23 86.06 88.47 50.83 88.47 16.11 18.34 51.17Z" fill="#292764"/></g><g><path d="M88.97 51.53C88.83 51.53 88.68 51.47 88.58 51.35L67.65 26.08C67.58 25.99 67.54 25.88 67.54 25.76L67.53 0.5C67.53 0.22 67.75 0 68.03 0L68.03 0C68.31 0 68.53 0.22 68.53 0.5L68.54 25.58 89.36 50.71C89.54 50.92 89.51 51.24 89.29 51.41 89.2 51.49 89.08 51.53 88.97 51.53Z" fill="#292764"/></g></g><g><g><path d="M45.81 47.82C45.62 47.82 45.43 47.75 45.28 47.6 44.99 47.31 44.99 46.83 45.28 46.54 48.46 43.36 48.46 38.18 45.28 35L36.72 26.44C36.43 26.15 36.43 25.67 36.72 25.38 37.01 25.09 37.49 25.09 37.78 25.38L46.34 33.94C50.11 37.71 50.11 43.84 46.34 47.6 46.19 47.75 46 47.82 45.81 47.82Z" fill="#292764"/></g><g><path d="M37.13 33.22C36.72 33.22 36.38 32.88 36.38 32.47L36.38 25.72C36.38 25.31 36.72 24.97 37.13 24.97L43.74 24.97C44.15 24.97 44.49 25.31 44.49 25.72 44.49 26.13 44.15 26.47 43.74 26.47L37.88 26.47 37.88 32.47C37.88 32.88 37.54 33.22 37.13 33.22Z" fill="#292764"/></g></g><g><g><path d="M81.54 76.07C81.35 76.07 81.16 76 81.01 75.85 80.72 75.56 80.72 75.08 81.01 74.79 84.19 71.61 84.19 66.43 81.01 63.25L72.45 54.69C72.16 54.4 72.16 53.92 72.45 53.63 72.74 53.34 73.22 53.34 73.51 53.63L82.08 62.19C85.85 65.96 85.85 72.09 82.08 75.85 81.92 76 81.73 76.07 81.54 76.07Z" fill="#292764"/></g><g><path d="M72.86 61.47C72.45 61.47 72.11 61.13 72.11 60.72L72.11 53.97C72.11 53.56 72.45 53.22 72.86 53.22L79.47 53.22C79.88 53.22 80.22 53.56 80.22 53.97 80.22 54.38 79.88 54.72 79.47 54.72L73.61 54.72 73.61 60.72C73.61 61.13 73.27 61.47 72.86 61.47Z" fill="#292764"/></g></g></g></svg>