<svg width="1139.09" height="852.93" viewBox="0 0 1139.09 852.93" xmlns="http://www.w3.org/2000/svg" xmlns:xlink="http://www.w3.org/1999/xlink" xml:space="preserve" overflow="hidden"><defs></defs><g><path d="M539.87 515.08C559.28 500.27 689.33 613.92 684.12 633.72 678.99 653.38 612.85 735.89 626.66 740.21 640.38 744.53 679.87 728.94 674.7 777.12 669.53 825.23 601.66 826.08 590.53 784.84 579.4 743.61 626.66 675.83 634.31 664.61 642.03 653.38 552.76 609.6 545.04 591.6 537.32 573.53 528.74 523.72 539.87 515.08Z" fill="#FF9797"/><path d="M3.71 486.26C25.43 462.86 217.82 581.08 215.42 607.66 213.15 634.25 145.84 754.83 164.51 757.5 183.21 759.97 230.66 731.5 234.53 794.46 238.37 857.59 151.08 873.52 127.75 822.83 104.35 772.13 150.5 674.53 158.07 658.36 165.54 642.29 40.87 605.24 27.03 583.72 13.09 562.2-8.76 499.82 3.71 486.26Z" fill="#FF6161"/><path d="M967.15 0.9C981.18-12.24 1141.2 122.14 1139.07 153.91 1137.02 185.7 1049.35 255.49 1062.79 276.61 1076.35 297.73 1110.22 268.04 1118.2 307.96 1126.26 347.89 1077.37 393.62 1040.26 375.23 1003.15 356.76 1019.87 265.56 1074.64 193.97 1089.15 184.71 999.64 105.19 986.89 120.34 974.22 135.53 968.98 182.37 987.02 182.79 1005.11 183.3 1027.55 214.7 1007.41 260.17 987.36 305.6 935.06 291.57 940.26 230.1 945.39 168.81 951.28 15.83 967.15 0.9Z" fill="#FFBBBB"/></g></svg>