<svg width="120" height="84.46" viewBox="0 0 120 84.46" xmlns="http://www.w3.org/2000/svg" xmlns:xlink="http://www.w3.org/1999/xlink" xml:space="preserve" overflow="hidden"><defs></defs><g><path d="M0 20.09 60 84.2 120 20.09Z" fill="#DBDBDB"/><g><path d="M0 20.09 59 21.79 60 77.96 56.4 80.6Z" fill="#EFBE4C"/><path d="M0 24.2 59 21.79 60 77.96 56.4 80.6Z" fill="#FFFFFF"/></g><g><path d="M120 20.09 61 21.79 60 77.96 60 84.2Z" fill="#EFBE4C"/><path d="M84.62 22.75 61 21.79 60 77.96 60 84.2Z" fill="#FFFFFF"/></g><path d="M0 24.2 60 84.2 60 24.2Z" fill="#EFBE4C"/><path d="M59.04 24.2 60 84.2 95.6 20.79 78.62 21.19 61 24.2Z" fill="#D88A00"/><path d="M61 24.2 103.33 0 60 84.2Z" fill="#EFBE4C"/><g opacity="0.6"><g><line x1="60" y1="24.2" x2="60" y2="25.7" stroke="#666666" stroke-width="0.5" stroke-linecap="round" stroke-linejoin="round" fill="none"/><line x1="60" y1="27.7" x2="60" y2="81.71" stroke="#666666" stroke-width="0.5" stroke-linecap="round" stroke-linejoin="round" stroke-dasharray="3.0003 2.0002" fill="none"/><line x1="60" y1="82.71" x2="60" y2="84.21" stroke="#666666" stroke-width="0.5" stroke-linecap="round" stroke-linejoin="round" fill="none"/></g></g><g opacity="0.6"><g><line x1="60" y1="84.2" x2="59.75" y2="82.72" stroke="#666666" stroke-width="0.5" stroke-linecap="round" stroke-linejoin="round" fill="none"/><line x1="59.4" y1="80.72" x2="50.08" y2="26.69" stroke="#666666" stroke-width="0.5" stroke-linecap="round" stroke-linejoin="round" stroke-dasharray="3.0464 2.0309" fill="none"/><line x1="49.91" y1="25.68" x2="49.65" y2="24.21" stroke="#666666" stroke-width="0.5" stroke-linecap="round" stroke-linejoin="round" fill="none"/></g></g><g><g><path d="M30 34.17C30 34.17 13.07 41.57 7.71 36.72 2.35 31.87 36.18 16.93 36.18 16.93" stroke="#233A3F" stroke-linecap="round" stroke-linejoin="round" stroke-miterlimit="10" fill="none"/><path d="M36.02 19.4 37.04 16.38 34.01 15.36" stroke="#233A3F" stroke-linecap="round" stroke-linejoin="round" stroke-miterlimit="10" fill="none"/></g></g></g></svg>