<svg width="119.56" height="86.19" viewBox="0 0 119.56 86.19" xmlns="http://www.w3.org/2000/svg" xmlns:xlink="http://www.w3.org/1999/xlink" xml:space="preserve" overflow="hidden"><defs></defs><g><g><path d="M101.11 82.94C101.23 82.12 101.33 81.49 101.4 80.86 101.44 80.45 101.4 80 100.92 79.9 100.44 79.8 100.2 80.17 100.08 80.57 99.77 81.63 99.63 82.72 99.52 83.81 99.47 84.28 99.78 84.64 100.09 84.91 100.71 85.46 101.43 85.86 102.23 86.11 102.63 86.23 103.06 86.25 103.25 85.79 103.44 85.33 103.12 85.05 102.75 84.83 102.49 84.68 102.22 84.55 101.82 84.34 102.21 84.07 102.51 83.84 102.82 83.63 107.65 80.54 109.06 75.96 108.45 70.56 108.24 68.74 107.84 66.95 106.9 65.33 106.63 64.85 106.33 64.39 105.91 64.02 105.71 63.85 105.48 63.73 105.25 63.93 105 64.15 105.19 64.37 105.32 64.57 108.26 68.97 107.92 73.56 105.97 78.17 105.07 80.34 103.18 81.62 101.11 82.94Z" fill="#2F4042"/><path d="M17.66 84.26C17.43 84.67 17.01 84.67 16.72 84.89 16.4 85.13 16.15 85.4 16.32 85.81 16.47 86.18 16.84 86.25 17.18 86.15 18.15 85.85 19.06 85.43 19.72 84.62 19.91 84.38 20.1 84.12 20.05 83.79 19.88 82.74 19.71 81.68 19.5 80.64 19.41 80.21 19.16 79.79 18.62 79.91 18.14 80.02 18.15 80.48 18.15 80.89 18.16 81.52 18.46 82.13 18.36 82.87 15.82 81.36 13.79 79.51 12.91 76.66 11.99 73.71 11.87 70.73 12.66 67.72 12.95 66.62 13.39 65.59 14.13 64.7 14.31 64.48 14.64 64.21 14.29 63.93 13.99 63.69 13.72 63.94 13.5 64.17 13.01 64.68 12.61 65.27 12.35 65.92 10.85 69.63 10.47 73.41 11.65 77.29 12.49 80.06 14.32 82.04 16.67 83.61 17.01 83.82 17.33 84.04 17.66 84.26Z" fill="#2F4042"/></g><g><path d="M28.55 58.79C20.75 58.79 11.71 58.79 2.67 58.79 2.18 58.79 1.67 58.84 1.21 58.72 0.78 58.61 0.17 58.41 0.04 58.09-0.09 57.78 0.16 57.14 0.45 56.85 3.45 53.81 6.46 50.77 9.54 47.8 20.6 37.14 31.67 26.49 42.77 15.87 46.48 12.32 50.29 8.89 54.02 5.37 55.57 3.91 57.06 2.37 58.53 0.82 59.6-0.3 60-0.27 61.08 0.88 62.64 2.55 64.28 4.15 65.94 5.73 71.94 11.47 77.96 17.19 83.97 22.93 92.39 30.96 100.81 38.99 109.2 47.05 112.55 50.27 115.82 53.55 119.1 56.84 119.39 57.13 119.67 57.82 119.53 58.07 119.33 58.42 118.72 58.71 118.28 58.72 112.87 58.79 107.47 58.76 102.06 58.84 88.84 59.03 75.62 59.32 62.4 59.44 56.6 59.49 50.81 59.22 45.01 59.11 39.93 59.01 34.86 58.91 28.55 58.79ZM59.41 2.13C57.17 4.24 54.87 6.42 52.56 8.59 51.72 9.39 50.84 10.15 50.01 10.96 40.14 20.58 30.29 30.2 20.42 39.8 14.64 45.42 8.83 51.01 3.04 56.62 2.86 56.79 2.72 57 2.59 57.15 21.52 57.36 40.4 57.58 59.41 57.79 59.41 39.24 59.41 20.6 59.41 2.13ZM60.98 57.77C79.74 57.56 98.35 57.36 117.16 57.15 98.37 39 79.7 20.96 60.98 2.87 60.98 21.29 60.98 39.59 60.98 57.77Z" fill="#2F4042"/><path d="M59.41 2.13C59.41 20.6 59.41 39.24 59.41 57.79 40.4 57.57 21.52 57.36 2.59 57.15 2.72 57 2.86 56.8 3.04 56.62 8.83 51.01 14.64 45.42 20.42 39.8 30.29 30.2 40.15 20.57 50.01 10.97 50.84 10.16 51.71 9.39 52.56 8.6 54.87 6.42 57.17 4.25 59.41 2.13Z" fill="#FFF6A4"/><path d="M60.98 57.77C60.98 39.59 60.98 21.29 60.98 2.88 79.7 20.96 98.37 39 117.15 57.15 98.35 57.36 79.74 57.56 60.98 57.77Z" fill="#F9E467"/></g></g></svg>