<svg width="59.09" height="66.75" viewBox="0 0 59.09 66.75" xmlns="http://www.w3.org/2000/svg" xmlns:xlink="http://www.w3.org/1999/xlink" xml:space="preserve" overflow="hidden"><defs></defs><g><g><path d="M39.85 37.01C39.85 37.01 33.16 43.13 33.16 46.73 33.16 50.33 33.61 66.16 33.61 66.16L27.24 66.48C27.24 66.48 27.05 49.04 26.53 46.21 26.01 43.38 25.18 42.22 19.64 39.46L19.84 38.3C19.84 38.3 22.02 38.43 26.72 42.23 26.72 42.23 27.43 39.08 21.44 32.77L19.9 31.16 21.7 30.13C21.7 30.13 23.7 33.48 25.24 35.47 26.78 37.46 27.81 38.88 27.49 34.44 27.17 30 27.36 27.62 27.36 27.62L28.65 27.94C28.65 27.94 28.71 32.44 29.03 34.63 29.35 36.82 30 40.1 31.22 35.66 32.44 31.22 34.18 27.68 34.18 27.68L35.08 29.16C35.08 29.16 33.79 32.51 33.02 34.44 32.25 36.37 32.57 39.84 32.89 43.13 32.89 43.13 38.36 36.57 39.78 35.41L39.85 37.01Z" fill="#89610D"/><path d="M39.85 37.01 39.79 35.4C38.37 36.56 32.9 43.12 32.9 43.12 32.58 39.84 32.26 36.36 33.03 34.43 33.8 32.5 35.09 29.15 35.09 29.15L34.19 27.67C34.19 27.67 32.45 31.21 31.23 35.65 30.01 40.09 29.36 36.81 29.04 34.62 28.72 32.43 28.66 27.93 28.66 27.93L28.25 27.83C28.26 27.93 28.28 28.04 28.29 28.14 28.47 29.7 28.37 31.27 28.4 32.84 28.44 35.4 28.76 37.97 28.87 40.54 29.13 46.26 29.19 51.99 29.44 57.71 29.56 60.59 29.61 63.47 29.65 66.35L33.61 66.15C33.61 66.15 33.16 50.32 33.16 46.72 33.16 43.12 39.85 37.01 39.85 37.01Z" fill="#71530D" opacity="0.2"/><path d="M39.85 37.01 39.79 35.4C38.37 36.56 32.9 43.12 32.9 43.12 32.58 39.84 32.26 36.36 33.03 34.43 33.8 32.5 35.09 29.15 35.09 29.15L34.19 27.67C34.19 27.67 32.79 30.51 31.62 34.3 31.53 35.18 31.43 36.04 31.39 36.86 31.08 42.41 31.27 47.99 31.44 53.55 31.57 57.78 31.73 62.01 31.86 66.24L33.6 66.15C33.6 66.15 33.15 50.32 33.15 46.72 33.15 43.12 39.85 37.01 39.85 37.01Z" fill="#71530D" opacity="0.4"/><path d="M23.3 39.78C20.96 38.37 19.85 38.3 19.85 38.3L19.65 39.46C20.96 40.11 22.01 40.68 22.85 41.2 23.09 40.76 23.27 40.28 23.3 39.78Z" fill="#71530D" opacity="0.3"/><path d="M23.67 33.23C22.61 31.63 21.71 30.12 21.71 30.12L19.91 31.15 21.45 32.76C21.85 33.18 22.22 33.58 22.56 33.97 23 33.9 23.39 33.61 23.67 33.23Z" fill="#71530D" opacity="0.3"/><path d="M33.9 32.24C34.51 30.67 35.1 29.16 35.1 29.16L34.2 27.68C34.2 27.68 33.59 28.92 32.84 30.85 32.97 31.48 33.3 32.05 33.9 32.24Z" fill="#71530D" opacity="0.3"/><path d="M39.79 35.4C39.24 35.85 38.08 37.12 36.86 38.5 36.92 38.66 36.99 38.8 37.1 38.94 37.23 39.11 37.37 39.24 37.53 39.36 38.8 37.97 39.85 37.01 39.85 37.01L39.79 35.4Z" fill="#71530D" opacity="0.3"/><path d="M28.77 31.28C28.69 29.53 28.66 27.94 28.66 27.94L27.37 27.62C27.37 27.62 27.25 29.04 27.35 31.74 27.83 31.75 28.33 31.56 28.77 31.28Z" fill="#71530D" opacity="0.3"/></g><g><path d="M49.99 19.41C49.99 19.41 53.53 14.26 48.89 13.27 49.31 12.93 49.64 12.44 49.52 11.9 49.39 11.33 48.64 10.9 48.09 10.99 48.07 10.99 48.06 11 48.04 11 48.12 10.65 48.05 10.28 47.69 10.05 47.2 9.75 46.63 9.85 46.18 10.18 46.14 10.21 46.1 10.25 46.06 10.29 46.32 9.33 46.81 5.77 40.9 2.11 34.5-1.85 28.65 0.64 27.12 2.51 26.93 1.96 26.45 1.47 25.82 1.55 24.95 1.66 24.54 2.39 24.53 3.16 24.22 2.94 23.81 2.82 23.47 2.91 23.01 3.04 22.85 3.59 22.86 4.01 22.86 4.05 22.87 4.09 22.88 4.13 21.55 3.39 18.08 2.01 14.35 4.77 11.68 6.75 10.75 9.16 10.52 11.2 10.18 10.53 9.5 9.92 8.73 10.23 7.86 10.58 7.97 12.05 8.05 12.79 8.08 13.02 8.11 13.25 8.15 13.47 7.6 12.92 6.76 12.61 6.27 13.18 5.82 13.7 5.99 14.51 6.35 15.06 5.79 14.97 5.22 15.19 4.8 15.63 4.17 16.3 4.21 17.42 4.66 18.25 2.43 19.76 0.4 22.01 0.07 25.26-0.47 30.61 2.88 31.96 4.91 32.3 4.81 32.38 4.72 32.47 4.64 32.58 4.4 32.89 4.28 33.41 4.57 33.73 4.76 33.94 5 34.05 5.25 34.08 4.41 34.72 3.83 35.86 4.61 36.73 4.89 37.04 5.26 37.16 5.63 37.13 4.38 38.38 2.38 41.29 5.55 45.08 9.45 49.75 17.66 46.33 19.37 42.69 19.41 42.73 19.45 42.78 19.5 42.82 20.01 43.27 20.63 42.92 20.87 42.4 21.05 42.02 21.09 41.58 21.01 41.17 21.79 41.24 22.1 40.8 22.11 40.04 22.12 39.14 21.47 38.05 20.93 37.36 20.81 37.21 20.68 37.08 20.54 36.96 21.21 36.8 21.72 36.33 21.98 35.66 22.31 34.83 21.8 33.77 21.04 33.09 21.52 32.96 21.94 32.61 22.22 32.17 22.49 31.75 22.49 31.27 22.32 30.82 22.39 30.92 22.46 31.01 22.54 31.11 23.13 31.79 23.97 31.95 24.58 31.2 24.73 31.02 24.83 30.81 24.9 30.59 25.07 31.22 25.51 31.64 26.35 31.36 27.08 31.12 27.3 30.44 27.31 29.74 27.73 30.08 28.36 30.17 28.79 29.87 28.95 29.76 29.09 29.59 29.2 29.41 29.44 30.03 30 30.49 30.71 30.55 31.7 30.64 32.83 30.12 33.37 29.26 33.45 29.5 33.58 29.71 33.8 29.86 34.03 30.02 34.31 30.07 34.59 30.03 34.41 30.42 34.32 30.86 34.51 31.17 34.79 31.63 35.41 31.69 35.87 31.5 35.83 31.6 35.79 31.71 35.75 31.81 35.5 32.59 35.59 33.65 36.15 34.28 36.58 34.76 37.26 34.87 37.85 34.69 37.72 34.88 37.61 35.08 37.51 35.31 37.18 36.02 37.1 37.08 37.69 37.67 37.82 37.8 37.97 37.88 38.13 37.91 38.06 38.31 38.15 38.7 38.47 39.03 38.73 39.3 39 39.38 39.25 39.34 38.76 40.59 40.14 44.63 47.42 43.36 54.87 42.06 56.97 35.75 53.33 33.88 53.66 33.76 53.91 33.56 53.96 33.26 54.04 32.84 53.85 32.52 53.56 32.26 54.74 32.32 57.34 32.01 58.76 28.46 60.6 23.76 54.74 18.8 49.99 19.41Z" fill="#6EBD24"/><path d="M54.68 20.39C55.51 21.27 56.1 22.37 56.27 23.57 56.56 25.61 55.11 27.56 53.33 28.43 52.1 29.03 50.91 29.01 49.83 28.6 49.72 29.5 49.47 30.37 49.06 31.15 48.22 32.76 46.5 33.61 44.71 33.06 42.31 32.32 41.35 29.57 41.47 27.11 39.91 27.47 38.13 27.09 36.9 26.07 36.28 25.56 35.87 24.92 35.65 24.22 34.66 24.75 33.39 25.19 32.28 24.85 31.11 24.49 30.74 23.34 30.81 22.21 30.59 22.59 30.32 22.93 30.02 23.22 29.56 23.67 28.75 24.32 28.06 23.98 27.52 23.72 27.31 23.12 27.29 22.53 26.98 23.02 26.51 23.41 25.92 23.49 25.68 23.52 25.47 23.5 25.29 23.43 25.26 23.62 25.22 23.81 25.16 23.99 24.9 24.77 24.07 25.76 23.13 25.42 22.44 25.17 22 24.53 21.72 23.85 21.21 24.61 20.21 24.94 19.51 24.41 19.05 25.59 18.25 26.66 17.16 27.24 15.59 28.09 13.15 28.17 11.62 27.19 11.12 27.49 10.58 27.75 10 27.96 8.22 28.61 6.22 28.93 4.35 28.48 2.5 28.03 0.97 26.8 0.2 25.03 0.17 24.96 0.14 24.9 0.12 24.83 0.1 24.98 0.07 25.12 0.06 25.27-0.48 30.62 2.87 31.97 4.9 32.31 4.8 32.39 4.71 32.48 4.63 32.59 4.39 32.9 4.27 33.42 4.56 33.74 4.75 33.95 4.99 34.06 5.24 34.09 4.4 34.73 3.82 35.87 4.6 36.74 4.88 37.05 5.25 37.17 5.62 37.14 4.37 38.39 2.37 41.3 5.54 45.09 9.44 49.76 17.65 46.34 19.36 42.7 19.4 42.74 19.44 42.79 19.49 42.83 20 43.28 20.62 42.93 20.86 42.41 21.04 42.03 21.08 41.59 21 41.18 21.78 41.25 22.09 40.81 22.1 40.05 22.11 39.15 21.46 38.06 20.92 37.37 20.8 37.22 20.67 37.09 20.53 36.97 21.2 36.81 21.71 36.34 21.97 35.67 22.3 34.84 21.79 33.78 21.03 33.1 21.51 32.97 21.93 32.62 22.21 32.18 22.48 31.76 22.48 31.28 22.31 30.83 22.38 30.93 22.45 31.02 22.53 31.12 23.12 31.8 23.96 31.96 24.57 31.21 24.72 31.03 24.82 30.82 24.89 30.6 25.06 31.23 25.5 31.65 26.34 31.37 27.07 31.13 27.29 30.45 27.3 29.75 27.72 30.09 28.35 30.18 28.78 29.88 28.94 29.77 29.08 29.6 29.19 29.42 29.43 30.04 29.99 30.5 30.7 30.56 31.69 30.65 32.82 30.13 33.36 29.27 33.44 29.51 33.57 29.72 33.79 29.87 34.02 30.03 34.3 30.08 34.58 30.04 34.4 30.43 34.31 30.87 34.5 31.18 34.78 31.64 35.4 31.7 35.86 31.51 35.82 31.61 35.78 31.72 35.74 31.82 35.49 32.6 35.58 33.66 36.14 34.29 36.57 34.77 37.25 34.88 37.84 34.7 37.71 34.89 37.6 35.09 37.5 35.32 37.17 36.03 37.09 37.09 37.68 37.68 37.81 37.81 37.96 37.89 38.12 37.92 38.05 38.32 38.14 38.71 38.46 39.04 38.72 39.31 38.99 39.39 39.24 39.35 38.75 40.6 40.13 44.64 47.41 43.37 54.86 42.07 56.96 35.76 53.32 33.89 53.65 33.77 53.9 33.57 53.95 33.27 54.03 32.85 53.84 32.53 53.55 32.27 54.73 32.33 57.33 32.02 58.75 28.47 59.99 25.29 57.74 22.01 54.68 20.39Z" fill="#6EBD24" opacity="0.5"/><path d="M39.9 41.19C39.56 40.24 39.58 39.32 40.03 38.41 40.07 38.33 40.11 38.25 40.16 38.16 39.88 37.95 39.63 37.7 39.45 37.48 38.69 36.58 38.54 35.5 39.15 34.46 38.99 34.42 38.82 34.35 38.65 34.26 37.46 33.63 36.91 32.4 37.01 31.07 37.05 30.55 37.13 29.89 37.37 29.34 36.86 29.32 36.35 29.14 35.87 28.77 35.08 28.16 34.62 27.4 34.45 26.53 33.92 27.1 33.22 27.51 32.34 27.65 31.23 27.83 30.09 27.54 29.27 26.88 29.2 27.21 29.04 27.53 28.77 27.8 28.2 28.36 27.26 28.62 26.59 28.06 26.33 27.85 26.11 27.56 25.97 27.24 25.43 28.27 24.32 28.92 23.09 28.88 22.84 28.87 22.6 28.83 22.38 28.78 22.36 29.05 22.28 29.32 22.11 29.57 21.79 30.06 21.15 30.5 20.55 30.32 20.66 30.8 20.7 31.3 20.52 31.75 20.41 32.03 20.2 32.26 19.94 32.44 20.3 32.77 20.58 33.18 20.74 33.6 21.12 34.59 20.8 35.73 19.91 36.31 19.25 36.74 18.87 36.81 18.83 36.83 20.13 36.91 21.23 38.15 21.62 39.17 22.17 40.63 21.03 41.12 21 41.16 21.78 41.22 22.09 40.78 22.1 40.03 22.11 39.13 21.46 38.04 20.92 37.35 20.8 37.2 20.67 37.07 20.53 36.95 21.2 36.79 21.71 36.32 21.97 35.65 22.3 34.82 21.79 33.76 21.03 33.08 21.51 32.95 21.93 32.6 22.21 32.16 22.48 31.74 22.48 31.26 22.31 30.81 22.38 30.91 22.45 31 22.53 31.1 23.12 31.78 23.96 31.94 24.57 31.19 24.72 31.01 24.82 30.8 24.89 30.58 25.06 31.21 25.5 31.63 26.34 31.35 27.07 31.11 27.29 30.43 27.3 29.73 27.72 30.07 28.35 30.16 28.78 29.86 28.94 29.75 29.08 29.58 29.19 29.4 29.43 30.02 29.99 30.48 30.7 30.54 31.69 30.63 32.82 30.11 33.36 29.25 33.44 29.49 33.57 29.7 33.79 29.85 34.02 30.01 34.3 30.06 34.58 30.02 34.4 30.41 34.31 30.85 34.5 31.16 34.78 31.62 35.4 31.68 35.86 31.49 35.82 31.59 35.78 31.7 35.74 31.8 35.49 32.58 35.58 33.64 36.14 34.27 36.57 34.75 37.25 34.86 37.84 34.68 37.71 34.87 37.6 35.07 37.5 35.3 37.17 36.01 37.09 37.07 37.68 37.66 37.81 37.79 37.96 37.87 38.12 37.9 38.05 38.3 38.14 38.69 38.46 39.02 38.72 39.29 38.99 39.37 39.24 39.33 38.99 39.97 39.23 41.35 40.51 42.36 40.25 41.99 40.05 41.6 39.9 41.19Z" fill="#6EBD24" opacity="0.5"/><g><path d="M15.81 31.5C15.35 31.5 14.88 31.43 14.42 31.54 13.68 31.72 13.17 32.41 12.8 33.06 12.77 33.1 12.73 33.14 12.7 33.18 12.64 33.27 12.72 33.41 12.83 33.38 13.57 33.2 14.31 33.46 15.06 33.3 15.76 33.14 16.28 32.22 16.62 31.66 16.65 31.62 16.62 31.56 16.59 31.53 16.46 31.38 16 31.5 15.81 31.5Z" fill="#318A0A"/><path d="M12.9 34.03C12.87 33.98 12.81 33.94 12.75 33.96 12.64 33.99 12.59 34.12 12.55 34.23 12.07 34.96 12.12 36.17 12.38 36.91 12.63 37.62 13.5 38.36 14.27 38.39 14.32 38.39 14.35 38.36 14.37 38.32 14.76 37.56 14.64 36.8 14.33 36.03 14.02 35.22 13.36 34.74 12.9 34.03Z" fill="#318A0A"/><path d="M12.42 23.27C12.39 23.2 12.34 23.17 12.27 23.18 10.91 23.34 8.92 24.5 8.69 26 8.68 26.04 8.67 26.07 8.66 26.11 8.62 26.34 8.45 26.97 8.58 27.18 8.74 27.44 9.26 27.24 9.49 27.21 10.48 27.04 11.5 26.53 12.06 25.68 12.32 25.29 12.41 24.88 12.45 24.41 12.5 24.09 12.55 23.58 12.42 23.27Z" fill="#318A0A"/><path d="M9.83 19.44C9.94 19.63 10.08 19.81 10.24 19.98 10.64 20.41 11.25 20.85 11.85 20.9 12.06 20.92 13.19 20.98 13.24 20.67 13.27 20.49 13.06 20.15 12.98 19.97 12.86 19.68 12.65 19.46 12.44 19.23 12.04 18.8 11.62 18.55 11.07 18.36 10.81 18.27 10.49 18.26 10.22 18.23 10.04 18.21 9.61 18.15 9.46 18.27 9.19 18.47 9.71 19.27 9.83 19.44 9.83 19.43 9.83 19.43 9.83 19.44Z" fill="#318A0A"/><path d="M21.79 14.57C21.77 14.57 21.76 14.57 21.74 14.58 21.71 14.57 21.67 14.56 21.64 14.58 21.63 14.59 21.62 14.59 21.61 14.6 20.55 14.77 19.64 15 18.85 15.79 18.2 16.44 17.9 17.54 17.9 18.45 17.9 18.49 17.93 18.55 17.97 18.57 18.31 18.72 18.96 18.55 19.33 18.5 19.87 18.42 20.35 18.1 20.73 17.71 21.54 16.86 21.66 15.84 21.82 14.74 21.82 14.72 21.82 14.69 21.81 14.67 21.81 14.67 21.82 14.66 21.83 14.66 21.87 14.62 21.83 14.56 21.79 14.57Z" fill="#318A0A"/><path d="M25.37 9.63C25.26 9.3 24.36 9.8 24.18 9.86 23.53 10.09 22.96 10.39 22.45 10.85 21.81 11.43 21.16 12.82 21.5 13.75 21.51 13.86 21.52 13.97 21.53 14.08 21.54 14.16 21.6 14.22 21.68 14.23 22.05 14.27 22.58 14 22.9 13.82 23.49 13.5 24.04 13.22 24.54 12.75 24.97 12.35 25.17 11.86 25.32 11.31 25.41 11 25.42 10.67 25.41 10.36 25.41 10.15 25.43 9.84 25.37 9.63Z" fill="#318A0A"/><path d="M16.21 8.28C16.07 8.23 15.91 8.19 15.75 8.18 15.43 8.12 15.09 8.15 14.73 8.29 14.24 8.48 14.44 8.78 14.63 9.19 14.85 9.67 15.28 10.07 15.75 10.29 16.22 10.5 16.84 10.4 17.29 10.17 17.74 9.95 17.73 9.77 17.49 9.37 17.21 8.89 16.73 8.47 16.21 8.28Z" fill="#318A0A"/><path d="M31.11 5.7C31.05 5.68 30.98 5.72 30.97 5.79 30.86 6.69 30.71 7.69 31.35 8.42 31.62 8.72 32 8.83 32.38 8.87 32.42 8.88 32.45 8.89 32.49 8.89 32.59 8.9 32.69 8.9 32.79 8.89 32.91 8.89 33.02 8.87 33.12 8.83 33.16 8.82 33.21 8.81 33.26 8.81 33.29 8.81 33.32 8.78 33.33 8.75 33.51 8.21 33.23 7.48 32.91 7.05 32.5 6.51 31.73 5.95 31.11 5.7Z" fill="#318A0A"/><path d="M36.59 6.21C35.45 6.49 33.56 7.45 33.78 8.82 33.75 9.07 33.74 9.37 33.83 9.51 33.96 9.72 34.31 9.68 34.51 9.67 35.25 9.67 36 9.2 36.39 8.58 36.8 7.93 36.76 7.06 36.76 6.33 36.76 6.27 36.67 6.2 36.59 6.21Z" fill="#318A0A"/><path d="M41.82 14.89C42.24 14.11 42.25 13 42.13 12.16 42.12 12.06 42.04 12 41.94 12.04 41.06 12.42 40.13 13.03 39.56 13.82 39.21 14.22 38.96 14.7 38.96 15.25 38.96 15.61 39.06 15.91 39.18 16.25 39.26 16.48 39.56 16.35 39.71 16.31 40.58 16.05 41.36 15.73 41.82 14.89Z" fill="#318A0A"/><path d="M42.47 17.74C41.96 17.06 41.25 16.81 40.41 16.87 40.2 16.89 39.78 17.04 39.64 17.2 39.48 17.38 39.79 17.86 39.88 18.05 40.01 18.42 40.22 18.73 40.59 18.98 40.91 19.2 41.28 19.2 41.64 19.28 42.13 19.39 42.62 19.53 43.06 19.78 43.14 19.82 43.21 19.78 43.23 19.71 43.3 19.45 43.15 19.08 43.07 18.83 42.94 18.43 42.72 18.07 42.47 17.74Z" fill="#318A0A"/><path d="M51.67 27.45C50.79 27.34 49.71 27.3 48.92 27.78 48.46 28.06 47.96 28.52 47.95 29.1 47.95 29.55 48.28 29.87 48.69 29.98 49.44 30.19 50.31 29.96 50.84 29.37 51.07 29.12 51.26 28.82 51.42 28.52 51.55 28.25 51.77 27.9 51.79 27.6 51.8 27.53 51.75 27.46 51.67 27.45Z" fill="#318A0A"/></g><g opacity="0.3"><path d="M16.6 31.53C16.13 31.85 15.62 32.1 15.08 32.31 14.54 32.52 14.01 32.71 13.5 32.97 13.24 33.1 12.99 33.23 12.73 33.35 12.76 33.38 12.8 33.4 12.85 33.39 13.59 33.21 14.33 33.47 15.08 33.31 15.78 33.15 16.3 32.23 16.64 31.67 16.66 31.62 16.63 31.56 16.6 31.53 16.6 31.53 16.6 31.53 16.6 31.53Z" fill="#318A0A"/><path d="M13.38 36.93C12.93 36.07 12.53 34.97 12.71 33.98 12.62 34.02 12.58 34.13 12.55 34.23 12.07 34.96 12.12 36.17 12.38 36.91 12.63 37.62 13.5 38.36 14.27 38.39 14.31 38.39 14.35 38.37 14.37 38.33 13.99 37.91 13.65 37.44 13.38 36.93Z" fill="#318A0A"/><path d="M12.37 23.21C11.5 24.81 10.26 26.2 8.81 27.3 9.03 27.33 9.33 27.23 9.5 27.2 10.49 27.03 11.51 26.52 12.07 25.67 12.33 25.28 12.42 24.87 12.46 24.4 12.49 24.07 12.54 23.56 12.41 23.26 12.41 23.25 12.39 23.23 12.37 23.21Z" fill="#318A0A"/><path d="M9.39 18.35C9.29 18.63 9.72 19.28 9.83 19.43 9.83 19.43 9.83 19.43 9.83 19.43 9.94 19.62 10.08 19.8 10.24 19.97 10.64 20.4 11.25 20.84 11.85 20.89 12.05 20.91 13.09 20.96 13.22 20.7 11.81 20.16 10.46 19.4 9.39 18.35Z" fill="#318A0A"/><path d="M21.79 14.57C21.77 14.57 21.76 14.57 21.74 14.58 21.72 14.57 21.7 14.57 21.68 14.57 21.48 15.14 20.94 15.65 20.58 16.11 20.22 16.56 19.85 17 19.44 17.42 19.09 17.79 18.62 18.29 18.09 18.6 18.45 18.68 19 18.54 19.33 18.49 19.87 18.41 20.35 18.09 20.73 17.7 21.54 16.85 21.66 15.83 21.82 14.73 21.82 14.71 21.82 14.68 21.81 14.66 21.81 14.66 21.82 14.65 21.83 14.65 21.87 14.62 21.83 14.56 21.79 14.57Z" fill="#318A0A"/><path d="M25.37 9.63C25.36 9.59 25.33 9.57 25.3 9.55 25.16 9.86 24.99 10.17 24.81 10.45 24.45 11.03 24.09 11.61 23.66 12.15 23.07 12.9 22.37 13.61 21.54 14.11 21.56 14.17 21.61 14.22 21.68 14.23 22.05 14.27 22.58 14 22.9 13.82 23.49 13.5 24.04 13.22 24.54 12.75 24.97 12.35 25.17 11.86 25.32 11.31 25.41 11 25.42 10.67 25.41 10.36 25.41 10.15 25.43 9.84 25.37 9.63Z" fill="#318A0A"/><path d="M17.12 9.74C16.5 9.67 15.89 9.4 15.35 9.09 15.02 8.91 14.74 8.68 14.51 8.43 14.33 8.62 14.48 8.87 14.63 9.19 14.85 9.67 15.28 10.07 15.75 10.29 16.22 10.5 16.84 10.4 17.29 10.17 17.58 10.02 17.68 9.89 17.65 9.71 17.47 9.74 17.3 9.75 17.12 9.74Z" fill="#318A0A"/><path d="M31.42 6.88C31.26 6.56 31.09 6.2 30.96 5.82 30.85 6.71 30.71 7.7 31.35 8.42 31.62 8.72 32 8.83 32.38 8.87 32.42 8.88 32.45 8.89 32.49 8.89 32.59 8.9 32.69 8.9 32.79 8.89 32.91 8.89 33.02 8.87 33.12 8.83 33.16 8.82 33.21 8.81 33.25 8.81 32.41 8.46 31.82 7.68 31.42 6.88Z" fill="#318A0A"/><path d="M36.72 6.26C36.38 6.96 35.91 7.61 35.45 8.16 34.99 8.71 34.46 9.19 33.89 9.59 34.05 9.72 34.34 9.69 34.52 9.69 35.26 9.69 36.01 9.22 36.4 8.6 36.81 7.95 36.77 7.08 36.77 6.35 36.76 6.31 36.74 6.28 36.72 6.26Z" fill="#318A0A"/><path d="M42.09 12.08C41.8 12.74 41.4 13.37 40.95 13.97 40.37 14.74 39.84 15.58 39.21 16.32 39.33 16.44 39.57 16.34 39.69 16.3 40.57 16.04 41.34 15.73 41.8 14.88 42.22 14.1 42.23 12.99 42.11 12.15 42.12 12.12 42.11 12.1 42.09 12.08Z" fill="#318A0A"/><path d="M42.19 18.6C41.46 17.89 40.56 17.56 39.65 17.2 39.65 17.2 39.64 17.21 39.64 17.21 39.48 17.39 39.79 17.87 39.88 18.06 40.01 18.43 40.22 18.74 40.59 18.99 40.91 19.21 41.28 19.21 41.64 19.29 42.13 19.4 42.62 19.54 43.06 19.79 43.07 19.79 43.08 19.8 43.09 19.8 42.83 19.36 42.55 18.95 42.19 18.6Z" fill="#318A0A"/><path d="M48.28 29.78C48.4 29.88 48.54 29.95 48.7 29.99 49.45 30.2 50.32 29.97 50.85 29.38 51.08 29.13 51.27 28.83 51.43 28.53 51.56 28.26 51.78 27.91 51.8 27.61 51.8 27.6 51.8 27.58 51.8 27.57 50.39 27.95 49.19 28.7 48.28 29.78Z" fill="#318A0A"/></g></g><path d="M24.9 66.75C24.9 66.75 24.64 65.34 22.56 64.93 22.56 64.93 24.18 64.37 25.64 65.55 25.64 65.55 25.44 64.82 24.26 63.9 24.26 63.9 26.17 63.78 27.2 65.78 27.2 65.78 27.56 64.65 28.5 63.92 28.5 63.92 28.26 64.96 28.33 65.75 28.33 65.75 28.98 64.3 30.5 63.77 30.5 63.77 30.41 65.22 30.14 65.51 30.14 65.51 31.15 65.05 30.96 63.48 30.96 63.48 31.93 64.18 32.09 65.48 32.09 65.48 32.38 64.03 32.21 63.41 32.21 63.41 32.91 64.25 33.42 65.44 33.42 65.44 34 64.28 35.67 63.92 35.67 63.92 34.95 64.64 34.73 65.49 34.73 65.49 36.11 64.16 37.92 64.6 37.92 64.6 36.74 65.66 36.54 66.68L24.9 66.75Z" fill="#318A0A"/><path d="M36.6 64.96C35.77 65.16 35.19 65.66 34.49 66.09 34.44 66.12 34.36 66.09 34.35 66.04 34.21 65.54 34.32 65.03 34.57 64.59 34.11 64.95 33.73 65.41 33.52 66.02 33.5 66.08 33.41 66.12 33.36 66.06 33.03 65.7 32.73 65.21 32.52 64.72 32.5 64.88 32.46 65.04 32.4 65.19 32.32 65.4 32 66.15 31.66 65.95 31.54 65.88 31.54 65.65 31.52 65.53 31.48 65.16 31.39 64.82 31.22 64.5 30.98 65.14 30.48 65.69 29.82 65.88 29.75 65.9 29.68 65.83 29.7 65.76 29.81 65.31 29.99 64.88 30.05 64.43 29.46 64.86 28.97 65.42 28.47 66 28.44 66.04 28.37 66.03 28.34 66 28.11 65.79 28.07 65.39 28.04 65.1 28.03 64.96 28.02 64.82 28.04 64.69 27.8 65.15 27.67 65.65 27.41 66.09 27.37 66.15 27.28 66.15 27.24 66.09 26.82 65.45 26.2 64.93 25.52 64.58 25.83 65.02 26.03 65.53 25.94 66.07 25.93 66.13 25.87 66.15 25.82 66.14 25.35 66.07 25.03 65.67 24.64 65.45 24.05 65.12 23.5 64.92 22.89 65 24.67 65.48 24.9 66.75 24.9 66.75L36.54 66.67C36.67 65.97 37.27 65.26 37.63 64.88 37.29 64.83 36.9 64.89 36.6 64.96Z" fill="#318A0A" opacity="0.3"/></g></svg>