<svg width="84.47" height="103.3" viewBox="0 0 84.47 103.3" xmlns="http://www.w3.org/2000/svg" xmlns:xlink="http://www.w3.org/1999/xlink" xml:space="preserve" overflow="hidden"><defs></defs><g><g><g><g><path d="M71.09 0.31 44.67 19.08 43.12 72.4C51.67 72.4 60.22 72.4 68.93 72.4L71.09 0.31Z" stroke="#435791" stroke-width="0.6179" stroke-linecap="round" stroke-linejoin="round" stroke-miterlimit="10" fill="#8EA7E8"/><path d="M69.76 44.73C62.02 36.09 53.09 26.55 45.44 18.53L44.67 19.07 43.12 72.4C51.67 72.4 60.22 72.4 68.93 72.4L69.76 44.73Z" fill="#8EA7E8" opacity="0.5"/></g><g><path d="M39.54 19.08 13.05 0.4 15.45 72.4C24.18 72.4 32.73 72.4 41.26 72.4L39.54 19.08Z" stroke="#435791" stroke-width="0.6179" stroke-linecap="round" stroke-linejoin="round" stroke-miterlimit="10" fill="#8EA7E8"/><path d="M39.54 19.08 38.62 18.43C33.84 23.5 17.9 40.52 14.51 44.2L15.45 72.4C24.18 72.4 32.73 72.4 41.26 72.4L39.54 19.08Z" fill="#8EA7E8" opacity="0.5"/></g></g><g><path d="M42.24 19.14 42.23 19.14 42.23 19.14 0.31 61.07 42.23 103 84.16 61.07Z" stroke="#435791" stroke-width="0.6179" stroke-linecap="round" stroke-linejoin="round" stroke-miterlimit="10" fill="#8EA7E8"/></g></g><g><g><g><line x1="14.58" y1="46.79" x2="16.58" y2="46.79" stroke="#435791" stroke-width="0.821" stroke-miterlimit="10" fill="none"/><line x1="20.52" y1="46.79" x2="65.79" y2="46.79" stroke="#435791" stroke-width="0.821" stroke-miterlimit="10" stroke-dasharray="3.9364 3.9364" fill="none"/><line x1="67.75" y1="46.79" x2="69.75" y2="46.79" stroke="#435791" stroke-width="0.821" stroke-miterlimit="10" fill="none"/></g></g><g><path d="M20.21 29.99C23.4 28.2 34.8 25.53 38.42 38.56" stroke="#435791" stroke-width="0.821" stroke-miterlimit="10" fill="none"/><path d="M21.26 29.54 21.84 30.94 20.33 30.74 18.83 30.54 19.76 29.34 20.68 28.14Z" fill="#435791"/></g></g></g></svg>