<svg width="46.36" height="101.94" viewBox="0 0 46.36 101.94" xmlns="http://www.w3.org/2000/svg" xmlns:xlink="http://www.w3.org/1999/xlink" xml:space="preserve" overflow="hidden"><defs></defs><g><g><path d="M0.5 62.08 45.86 16.71 45.85 31.33 45.85 101.44 45.8 101.44 4.03 70.6Z" fill="#BDF9F6"/></g><g><path d="M45.9 101.44 4.13 70.6 4.08 70.6 4.06 0.49 4.08 0.49Z" fill="#BDF9F6"/></g><g><path d="M45.85 101.94C45.74 101.94 45.59 101.91 45.5 101.84L3.73 71C3.66 70.95 3.6 70.87 3.56 70.79L0.04 62.28C-0.04 62.09 0.01 61.88 0.15 61.74L45.5 16.35C45.64 16.21 45.86 16.16 46.04 16.24 46.23 16.32 46.35 16.5 46.35 16.7L46.34 31.32 46.34 101.43C46.35 101.71 46.12 101.94 45.85 101.94ZM4.43 70.28 45.35 100.49 45.36 17.92 1.09 62.2 4.43 70.28Z" fill="#292764"/></g><g><path d="M4.08 59.01C4.02 59.01 3.95 59 3.89 58.97 3.7 58.89 3.58 58.71 3.58 58.51L3.57 0.49C3.57 0.36 3.62 0.23 3.72 0.14 3.95-0.1 4.41-0.01 4.54 0.3L21.53 41.32C21.61 41.51 21.56 41.72 21.42 41.86L4.43 58.86C4.33 58.96 4.21 59.01 4.08 59.01ZM4.57 2.98 4.58 57.3 20.48 41.39 4.57 2.98Z" fill="#292764"/></g></g></svg>