<svg width="4142.63" height="1859.32" viewBox="0 0 4142.63 1859.32" xmlns="http://www.w3.org/2000/svg" xmlns:xlink="http://www.w3.org/1999/xlink" xml:space="preserve" overflow="hidden"><defs></defs><g><path d="M471.68 1110.52C402.23 757.48 853.3 761.91 925.27 1094.87 830.6 1286.53 471.68 1110.52 471.68 1110.52Z" fill="#57750E"/><path d="M594.22 879.96C653.44 818.02 869.8 852.38 900.28 1058.34 816.59 1052.81 487.72 991.39 594.22 879.96Z" fill="#749316"/><path d="M814.52 901.85C765.5 856.74 649.5 871.86 736.74 971.81 823.98 1071.76 919.37 998.35 814.52 901.85Z" fill="#96B523"/><g><g><path d="M3.51 1130.47C242.8 995.22 333.89 1011.38 989.21 1100.87 1644.53 1190.37 2637.03 878.13 2746.4 576.92 2803.49 427.31 2524.64 335.89 2547.92 165.01 2617.28 267.01 2824.72 459.68 3060.61 462.63 3297.34 465.59 3613.44 295.7 3613.44 295.7 3613.44 295.7 3778.23 98.39 3746.36 98.39 3714.49 98.39 3582.56 344.33 3459.64 457.92 3372.19 538.74 3227 585.4 3064.41 634.81 2945.62 670.91 2312.09 1313.14 1328.46 1459.05 960.34 1513.67 294.81 1268.3 3.51 1542.71L3.51 1130.47Z" fill="#993E00"/></g></g><path d="M3543.57 322.89C3505.43 422.04 3483.87 491.96 3115.61 466.76 3345.59 408.53 3435.82 393.66 3590.31 254.23 3610.65 355.05 3543.57 322.89 3543.57 322.89Z" fill="#702D00"/><path d="M2587.33 213.34C2579.26 235.8 2632.94 321.69 2676.69 366.77 2720.44 411.85 2859.2 505.95 2845.93 564.29 2803.21 752.23 2310.91 965.9 1776.85 1074.66 2033.31 1021.52 2643.48 841.59 2752.02 547.93 2746.27 481.07 2533.12 291.81 2533.12 156.94 2533.13 142.27 2587.33 213.34 2587.33 213.34Z" fill="#702D00"/><path d="M559.87 1073.27C559.87 1073.27 461.28 1093.89 453.48 1138.19 445.68 1182.48 614.98 1244.2 768.43 1293.76 921.88 1343.32 1608.95 1406.27 1923.07 1268.56 1834.7 1306.93 1632.34 1420.73 1354.31 1455.66 1140.99 1482.46 877.83 1445.69 619.46 1396.72 219.39 1359.35 78.94 1486.8 3.52 1562.22L3.52 1206.13C3.51 1206.13 247.51 1021.27 559.87 1073.27Z" fill="#702D00"/><path d="M2655.24 301.72C2686.45 380.51 2874.97 474.23 2877.05 546.98 2880.87 680.9 2512.44 876.86 2258.52 964.22 1639.43 1177.22 727.72 1097.28 746.08 1155.42 764.43 1213.56 1379.38 1297.56 1665.59 1258.62 2075.86 1202.79 2363.26 1121.6 2982.89 624.23 3041.98 576.8 3229.12 604.88 3389.38 482.56 3345.17 506.73 3154.26 528.55 3003.93 501.63 2907.01 484.27 2655.24 301.72 2655.24 301.72Z" fill="#9E5C04"/><path d="M1.44 1347.68C49.15 1366.78 110.56 1345.83 163.04 1297.66 280.95 1189.44 291.35 1022.63 215.06 981.19 171.01 925.03 71.71 834.25 0 895.33" fill="#485B0B"/><path d="M430.06 1115.8C430.06 1115.8 541.04 1076.45 502.89 928.24 453.56 736.61 173.44 672.72 3.51 759.41L3.51 899.51C20.85 1161 201.18 1244.92 346.83 1190.25 530.63 1115.81 381.51 859.74 204.65 823.45" fill="#57750E"/><path d="M2626.12 261.49C2586.6 194.79 2747.6 39.32 2919.11 269.27 2855.82 278.57 2783.82 426.39 2627.34 337.39 2575.04 286.78 2652.94 207.53 2739.97 225.04" fill="#57750E"/><path d="M279.59 1468.43C352.93 1249.08 486.15 1245.17 580.29 1250.67 738.99 1259.9 826.42 1492.99 623.54 1612.94 420.65 1732.89 196.01 1747.24 131.07 1859.33 78.47 1492.55 46.89 1296.47 267.57 1184.09 368.41 1132.74 516.13 1147.62 521.78 1277.48" fill="#749316"/><path d="M518.11 1250.3C415.51 1267.04 271.4 1408.35 206.38 1676.67 374.57 1579.57 691.88 1565.69 721.36 1409.64 750.85 1253.58 572.77 1241.38 518.11 1250.3Z" fill="#8FAF1C"/><path d="M504.72 1216C384.98 1054.18 99.98 1210.73 164.77 1494.6 190.78 1539.68 257.13 1303.86 474.51 1263.98 521.96 1263.98 504.72 1216 504.72 1216Z" fill="#8FAF1C"/><path d="M459.26 1010.91C565.9 929.34 451.46 673.77 95.13 740.87 149.75 792.36 115.94 1009.43 162.75 1086.86 209.57 1164.29 399.44 1192.17 415.04 1084.59 430.65 977.02 318.8 839.45 258.98 821.11 352.62 828.77 459.26 1010.91 459.26 1010.91Z" fill="#749316"/><path d="M518.11 1250.3C621.26 1227.67 742.17 1296.93 599.12 1372.36 456.07 1447.78 331.54 1511.9 305.21 1507.95 267.67 1502.33 351.27 1286.89 518.11 1250.3Z" fill="#B3D32A"/><path d="M465.51 942.59C510.87 877.67 437 767.1 313.89 773.66 357.24 824.3 439.93 979.21 465.51 942.59Z" fill="#96B523"/><path d="M2619.33 300.32C2635.88 354.97 2734.16 342.97 2785.27 304.66 2836.37 266.35 2888.97 251.57 2912.48 260.6 2843 152.57 2754.19 139.62 2695.5 153.65 2636.81 167.68 2626.91 222.11 2626.91 222.11 2672.04 198.14 2755.95 174.39 2835.62 229.12 2732.56 192.55 2602.77 245.67 2619.33 300.32Z" fill="#749316"/><g><path d="M2560.57 180.26C2597.53 119.79 2522.46-67.85 2317.02 65.89 2365.03 92.03 2379.11 231.83 2530.86 206.67 2587.75 181.54 2548.69 94.98 2473.74 83.31" fill="#57750E"/><path d="M2557.83 109.69C2549.24 25.08 2457.44-10.03 2337.05 54.47 2373.37 64.11 2374.18 116.93 2438.61 144.25 2503.05 171.57 2539.59 162.22 2530.55 115.45 2519.59 58.75 2443.66 40.16 2443.66 40.16 2529.09 25.13 2557.83 109.69 2557.83 109.69Z" fill="#749316"/></g><path d="M729.14 1233.7C710.09 1205.9 684.64 1199.14 646.65 1184.31 608.66 1169.49 579.38 1129.51 573.21 1098.35 567.04 1067.19 556.82 1083.56 567.04 1108.81 586.66 1157.25 568.9 1193.39 568.9 1193.39 595.75 1208.5 659.76 1190.4 729.14 1233.7Z" fill="#842145"/><g><g><path d="M496.83 1056.23C537.48 1048.2 622.1 1088.65 580.61 1171.48 539.12 1254.3 503.57 1267.11 491.47 1312.34 326.31 1215.35 400.86 995.11 496.83 1056.23Z" fill="#BA3A75"/><path d="M488.85 1033.13C496.9 952.66 400.66 893.15 312.02 918.18 223.37 943.19 214.06 1009.59 178.5 1022.38 142.95 1035.21 184.73 1045.43 214.53 1046.46 244.34 1047.49 357.45 1126.89 434.79 1073.39 484.25 1064.57 488.85 1033.13 488.85 1033.13Z" fill="#BA3A75"/><path d="M508.02 1037.31C553.67 986.23 643.88 1017.44 684.19 1069.76 724.52 1122.06 720.7 1181.61 735.63 1206.7 750.56 1231.79 753.46 1249.45 717.37 1227.13 681.28 1204.82 543.43 1212.34 500.52 1139.48 457.61 1066.61 508.02 1037.31 508.02 1037.31Z" fill="#BA3A75"/><path d="M631.35 949C664.79 1002.7 649.74 1101.64 490.45 1062.36 362.89 1030.92 375.06 931.85 426.52 892.91 477.99 853.98 583.69 872.44 631.35 949Z" fill="#BA3A75"/><path d="M576.66 1050.48C587.44 1017.44 638.13 1096.61 645.6 1075.02 655.62 1046.14 630.35 1031.56 609.91 1021.19 649.31 1009.26 724.84 1093.8 713.52 1160.26 705.3 1208.49 546.26 1143.73 576.66 1050.48Z" fill="#E05A90"/><path d="M431.07 944.23C434.12 922.63 388.93 890.91 303.84 913.89 261.47 925.34 231.8 983.11 211.34 994.87 190.88 1006.61 189.28 1016.12 221.71 1012.2 254.14 1008.26 294.21 1031.58 360.36 1027.45 426.5 1023.3 444.15 979.25 419.27 967.42 394.39 955.58 356.7 951.98 386.88 941.55 417.07 931.11 427.92 966.61 431.07 944.23Z" fill="#E05A90"/><path d="M483.28 1096.21C453.63 1091.22 496.05 1045.37 458.62 1052.01 437.92 1055.68 399.89 1088.35 412.39 1146.89 424.89 1205.42 497.59 1239.08 530.54 1192.48 562.81 1146.83 547.08 1078.64 536.07 1066.29 511.88 1039.24 512.01 1101.05 483.28 1096.21Z" fill="#E05A90"/><path d="M565.62 895.39C489.82 859.71 454.34 895.03 473.53 916.88 492.71 938.72 513.23 921.99 546.23 940.58 579.23 959.19 573.5 968.94 607.05 977.58 640.6 986.21 650.15 935.18 565.62 895.39Z" fill="#E05A90"/><path d="M645.16 987.56C645.87 996.32 559.75 1013.52 503.76 982.67 447.78 951.84 435.11 897.13 453.1 879.24 428.22 882.69 404.87 899.83 402.08 916.21 426.1 918.61 461.33 951.02 473.11 1005.95 472.59 1021.15 410.22 1096.25 313.31 1082.35 382.04 1101.4 408.63 1086.32 408.63 1086.32 435.26 1050.84 472.45 1037.51 503.41 1043.27 534.38 1049.05 573.97 1083.63 573.2 1176.62 594.78 1098.33 556.82 1060.04 574.1 1036.06 591.39 1012.09 617.38 1008.21 641.05 1026.05 650.47 1004.5 645.16 987.56 645.16 987.56Z" fill="#842145"/></g><path d="M492.9 1011.28C497.69 951.01 510.67 779.51 464.44 762.12 428.38 748.56 461.02 707.58 497.56 740.87 534.1 774.15 524.52 938.9 492.9 1011.28Z" fill="#ED510C"/><path d="M507.77 1014.86C595.72 912.53 607.9 782.72 664.63 797.94 721.36 813.16 715.62 859.83 664.63 846.05 613.64 832.28 542.43 1023.76 507.77 1014.86Z" fill="#ED510C"/><path d="M656.37 796.81C682.35 787.04 698.82 810.55 675.42 824.42 652.01 838.3 626.06 808.21 656.37 796.81Z" fill="#FF9929"/><path d="M640.19 825.25C637.53 820.72 630.55 818.19 625.95 821.52 619.36 826.29 615.05 832.51 609.97 838.75 606.39 843.14 605.66 849.14 609.97 853.46 613.67 857.16 621.1 857.86 624.68 853.46 628.32 848.99 631.71 842.92 636.45 839.48 641.04 836.16 643.26 830.5 640.19 825.25Z" fill="#FF9929"/><path d="M490.8 736.56C486.52 733.48 481.89 731.43 477.04 729.45 471.79 727.3 465.61 731.74 464.24 736.71 462.6 742.67 466.27 747.36 471.51 749.5 471.96 749.68 472.37 749.94 472.8 750.14 473.85 750.86 475.03 751.43 476.28 751.91 477.65 752.73 478.99 753.59 480.28 754.52 484.9 757.84 491.85 755.33 494.52 750.79 497.61 745.55 495.4 739.86 490.8 736.56Z" fill="#FF9929"/><path d="M511.37 771.9C510.78 770.68 510.55 769.41 510.69 768.08 510.57 761.39 500.16 761.36 500.29 768.08 500.33 770.4 500.57 772.48 501.35 774.66 503.55 780.95 513.61 778.24 511.37 771.9Z" fill="#FF9929"/><path d="M517.63 801.02C510.92 801.02 510.92 811.43 517.63 811.43 524.34 811.43 524.34 801.02 517.63 801.02Z" fill="#FF9929"/></g><g><path d="M4142.63 258.97C4106.89 301.07 4065.67 405.31 3952.75 370.54 4033.76 394.7 4075.48 571.8 4013.68 640.84 3795.31 643.46 3748.05 504.56 3758.93 403.04 3748.82 453.97 3708.6 639.71 3438.28 587.24 3369.14 447.42 3420.51 363.33 3511.57 314.24 3511.57 314.24 3333.48 374.35 3319.68 247.87 3387.52 137.59 3465.46 128.31 3584.54 169.62 3516.3 141.47 3507.34 41.32 3558.68 4.53 3657.89-23.79 3826.67 86.06 3806.77 197.43 3919.09 82.3 4095.9 152.6 4142.63 258.97Z" fill="#57750E"/><path d="M3636.43 299.68C3564.65 247.2 3392.15 316.96 3453.76 538.73 3604.75 539.53 3760.83 501.28 3703.93 333.69 3675.27 291.02 3540.89 373.06 3500.91 471.19 3500.92 354.53 3636.43 299.68 3636.43 299.68Z" fill="#749316"/><path d="M3863.75 361.13C4000.09 340.1 4063.81 464.79 4021.02 594.19 4013.46 537.24 3925.35 398.1 3863.75 361.13Z" fill="#749316"/><path d="M3817.35 380.21C3826.09 327.85 4019.52 494.91 4021.03 594.19 3922.75 590.6 3795.08 513.65 3817.35 380.21Z" fill="#749316"/><path d="M3668.85 340.92C3606.29 349.9 3503.6 404.65 3500.91 471.19 3599.58 494.31 3694.91 405.21 3668.85 340.92Z" fill="#8FAF1C"/><path d="M4120.49 232.53C4034.7 84.89 3777.39 101.67 3820.58 257.82 3849.54 205.9 3982.8 183.96 4023.53 200.97 3936.99 209.68 3832.1 241.92 3843.87 298.3 3855.64 354.67 4059.58 332.38 4120.49 232.53Z" fill="#749316"/><path d="M3640.92 220.1C3596.38 67.71 3392.32 133.78 3338.07 230.45 3354.7 300.48 3560.87 306.27 3611.76 258.77 3600.38 207.88 3488.04 192.74 3444.59 206.55 3503.94 158.22 3604.65 202.72 3640.92 220.1Z" fill="#749316"/><path d="M3773.63 216.38C3882.21 90.93 3703.52 1.86 3593.6 0 3547.08 60.48 3563.65 233.39 3704.82 228.61 3731.93 177.45 3671.97 80.74 3671.97 80.74 3728.36 110.03 3773.63 216.38 3773.63 216.38Z" fill="#749316"/><path d="M3633.68 200.83C3613.52 124.56 3500.31 93.98 3397.36 181.07 3519.61 150.98 3610.94 199.37 3633.68 200.83Z" fill="#8FAF1C"/><path d="M3878.49 140.46C3967.75 117.26 4052.55 168.72 4053.23 182.42 4053.91 196.12 3960.53 159.5 3854.5 215.16 3796.63 245.54 3840.79 150.26 3878.49 140.46Z" fill="#8FAF1C"/><path d="M3644.25 20.97C3745.02 26.04 3816.41 82.28 3787.61 170.42 3760.41 159.36 3707.6 27.09 3644.25 20.97Z" fill="#8FAF1C"/></g></g></svg>