<svg width="217.51" height="133.17" viewBox="0 0 217.51 133.17" xmlns="http://www.w3.org/2000/svg" xmlns:xlink="http://www.w3.org/1999/xlink" xml:space="preserve" overflow="hidden"><defs></defs><g><g><path d="M1.54 43.43 31.84 76.7 181.76 76.7 215.03 43.43Z" stroke="#565656" stroke-width="1.3564" stroke-miterlimit="10" fill="#AABFCE"/></g><path d="" stroke="#A3A3A3" stroke-width="0.8665" stroke-linecap="round" stroke-miterlimit="10" fill="none"/><path d="M112.06 3.22 181.31 76.24C181.48 76.41 181.36 76.69 181.12 76.69L35.45 76.69C35.21 76.69 35.09 76.4 35.26 76.24L112.06 3.22Z" stroke="#565656" stroke-width="1.3564" stroke-miterlimit="10" fill="#FFFFFF"/><g><path d="M180.85 73.99 170.2 63.04 47.94 63.04C39.4 71.11 33.64 76.7 34.02 76.7L179.8 76.7C181.22 76.7 181.9 74.95 180.85 73.99Z" stroke="#565656" stroke-width="1.3564" stroke-miterlimit="10" fill="#AABFCE"/></g><path d="M112.06 122.85C112.06 122.85 71.58 85.38 48.92 63.96 48.57 63.62 48.81 63.03 49.3 63.03L168.93 63.03C169.41 63.03 169.65 63.6 169.32 63.95L112.06 122.85Z" stroke="#565656" stroke-width="1.3564" stroke-miterlimit="10" fill="#FFFFFF"/><line x1="112.06" y1="122.85" x2="112.06" y2="3.22" stroke="#565656" stroke-width="0.8665" stroke-miterlimit="10" stroke-dasharray="2.3107 2.3107 2.3107 2.3107 2.3107" fill="none"/><g><path d="M118.41 40.27C165.26 10.45 217.08 41.5 217.08 41.5" stroke="#666666" stroke-width="0.8665" stroke-linecap="round" stroke-miterlimit="10" fill="none"/><path d="M121.16 41.22 118.35 40.24 119.17 37.16" stroke="#666666" stroke-width="0.8665" stroke-linecap="round" stroke-miterlimit="10" fill="none"/></g><g><path d="M104.8 40.27C57.95 10.46 6.13 41.5 6.13 41.5" stroke="#666666" stroke-width="0.8665" stroke-linecap="round" stroke-miterlimit="10" fill="none"/><path d="M102.05 41.22 104.86 40.24 104.03 37.16" stroke="#666666" stroke-width="0.8665" stroke-linecap="round" stroke-miterlimit="10" fill="none"/></g></g><text fill="#565656" font-family="Asap-Regular" font-size="10.797" transform="translate(95.9737 9.037)">A</text><text fill="#565656" font-family="Asap-Regular" font-size="10.797" transform="translate(101.857 130.465)">B</text></svg>