<svg width="106.46" height="106.46" viewBox="0 0 106.46 106.46" xmlns="http://www.w3.org/2000/svg" xmlns:xlink="http://www.w3.org/1999/xlink" xml:space="preserve" overflow="hidden"><defs></defs><g><path d="M106.46 53.23C106.46 54 106.44 54.76 106.41 55.52 106.3 58.25 105.97 60.93 105.46 63.54 105.37 63.99 105.28 64.43 105.18 64.87 102.08 78.77 93.55 90.62 81.92 98.07 74.31 102.95 65.37 105.95 55.77 106.4 54.93 106.44 54.08 106.46 53.23 106.46 47.44 106.46 41.86 105.53 36.64 103.82 25 100.01 15.13 92.29 8.58 82.21 6.9 79.64 5.44 76.91 4.22 74.05 1.51 67.66 0 60.62 0 53.23 0 23.83 23.83 0 53.23 0 82.63 0 106.46 23.83 106.46 53.23Z" fill="#39B8FF"/><path d="M106.46 53.23C106.46 54 106.44 54.76 106.41 55.52 106.3 58.25 105.97 60.93 105.46 63.54 105.37 63.99 105.28 64.43 105.18 64.87 102.08 78.77 93.55 90.62 81.92 98.07 74.31 102.95 65.37 105.95 55.77 106.4 54.93 106.44 54.08 106.46 53.23 106.46 47.44 106.46 41.86 105.53 36.64 103.82 25 100.01 15.13 92.29 8.58 82.21 6.9 79.64 5.44 76.91 4.22 74.05 1.51 67.66 0 60.62 0 53.23 0 23.83 23.83 0 53.23 0 82.63 0 106.46 23.83 106.46 53.23Z" fill="#D4F9FF"/><path d="M81.92 98.07C74.31 102.95 65.37 105.95 55.77 106.4 54.93 106.44 54.08 106.46 53.23 106.46 47.44 106.46 41.86 105.53 36.64 103.82 25 100.01 15.13 92.29 8.58 82.21 6.9 79.64 5.44 76.91 4.22 74.05 18.4 70.17 33.73 70.48 47.72 75.05 51.01 76.13 54.23 77.44 57.34 78.97 57.85 79.21 58.36 79.47 58.86 79.73 59.37 79.99 59.88 80.27 60.39 80.55 68.55 85.01 75.9 90.98 81.92 98.07Z" fill="#A0DE9D"/><g><g><path d="M90.9 68.52C85.33 69.46 79.86 71.56 74.63 73.69 68.85 76.04 63.43 78.85 57.98 81.88 60.12 76.99 61.35 71.77 62.87 66.66 63.99 62.91 65.28 59.17 67.17 55.76 67.84 54.52 68.6 53.32 69.45 52.19 70.9 50.26 72.94 48.39 75.34 48.54 77.28 48.66 78.88 50.05 80.22 51.45 80.3 51.53 80.38 51.61 80.46 51.7 85.02 56.53 88.6 62.29 90.9 68.52Z" fill="#98B799"/><path d="M106.41 55.52C106.3 58.25 105.97 60.93 105.46 63.54 105.37 63.99 105.28 64.43 105.18 64.87 97.97 66.78 90.78 68.79 83.57 70.65 83.73 70.61 83.87 70.46 83.98 70.23 84.5 69.2 84.56 66.6 84.65 65.76 84.66 65.7 84.66 65.65 84.67 65.61 84.99 63.52 85.51 61.3 86.25 59.14 86.66 57.9 87.15 56.68 87.71 55.52 87.95 55.01 88.21 54.5 88.49 54.02 89.1 52.91 89.78 51.88 90.52 50.96 92.94 47.98 96.29 47.42 99.53 49.15 100.56 49.7 101.54 50.39 102.46 51.18 103.92 52.41 105.24 53.9 106.41 55.52Z" fill="#98B799"/></g></g><path d="M105.46 63.54C105.37 63.99 105.28 64.43 105.18 64.87 102.08 78.77 93.55 90.62 81.92 98.07 74.31 102.95 65.37 105.95 55.77 106.4 54.93 106.44 54.08 106.46 53.23 106.46 47.44 106.46 41.86 105.53 36.64 103.82 38.55 100.11 40.79 96.55 43.31 93.21 47.33 87.87 52.06 83.07 57.34 78.97 58.14 78.36 58.95 77.76 59.77 77.18 61.26 76.12 62.78 75.11 64.35 74.17 70.65 70.38 77.52 67.55 84.65 65.76 86.19 65.37 87.75 65.03 89.32 64.75L89.33 64.75C94.64 63.76 100.05 63.35 105.46 63.54Z" fill="#82C67D"/><path d="M70.3 103.66C65.71 105.22 60.83 106.16 55.77 106.4 54.93 106.44 54.08 106.46 53.23 106.46 47.44 106.46 41.86 105.53 36.64 103.82 38.55 100.11 40.79 96.55 43.31 93.21 47.14 88.12 51.62 83.52 56.6 79.56 57.23 79.46 57.85 79.52 58.36 79.88 58.97 80.3 59.28 81.12 59.1 81.84 58.94 82.5 58.43 83.01 57.97 83.52 56.52 85.13 55.36 87.02 54.6 89.06 54.33 89.78 54.12 90.63 54.54 91.27 54.99 91.94 55.94 92.05 56.74 91.97 58.14 91.81 59.47 91.28 60.85 90.97 62.22 90.65 63.74 90.58 64.96 91.29 65.53 91.62 66.01 92.14 66.17 92.78 66.43 93.79 65.81 94.83 65.06 95.55 64.31 96.28 63.4 96.85 62.78 97.69 62.16 98.53 61.92 99.8 62.63 100.57 63.03 101 63.62 101.18 64.19 101.32 66.04 101.78 67.97 102.09 69.58 103.11 69.83 103.27 70.08 103.45 70.3 103.66Z" fill="#FFFFFF"/><path d="M73.37 75.2C73.05 75.49 72.72 75.83 72.7 76.26 72.66 77.13 73.79 77.48 74.65 77.56 75.62 77.65 76.59 77.73 77.56 77.82 77.88 77.85 78.23 77.88 78.48 78.09 79.04 78.54 78.82 79.42 78.55 80.09 77.75 82.06 76.95 84.03 76.15 86 75.6 87.36 75.1 89.06 76.09 90.15 77.14 91.31 79.03 90.84 80.49 90.28 82.91 89.35 85.34 88.42 87.76 87.49 89.95 86.65 92.17 85.8 94.13 84.51 96.1 83.22 97.82 81.44 98.62 79.23 98.74 78.89 98.84 78.5 98.65 78.2 98.55 78.03 98.37 77.92 98.19 77.83 97.3 77.4 96.27 77.45 95.29 77.29 94.32 77.13 93.25 76.64 93 75.69 92.73 74.7 93.45 73.73 94.2 73.03 94.95 72.33 95.84 71.64 96.05 70.64 96.32 69.34 95.27 68.06 94.03 67.61 92.2 66.94 90.32 67.56 88.49 67.86 86.61 68.17 84.75 68.67 82.97 69.34 79.45 70.63 76.16 72.64 73.37 75.2Z" fill="#FFFFFF"/><path d="M67.98 86.16C67.89 86.66 67.94 87.23 68.31 87.58 68.79 88.03 69.57 87.92 70.2 87.71 71.44 87.31 77.34 84.08 74.02 82.74 71.81 81.84 68.39 83.96 67.98 86.16Z" fill="#FFFFFF"/><path d="M37.84 64.36C37.87 60.42 39.93 56.71 42.69 53.9 45.45 51.09 48.88 49.03 52.26 47.01 46.52 47.98 41.31 50.96 37.92 55.69 36.78 48.84 39.22 41.5 44.24 36.7 40.53 37.44 37.44 40.24 36.53 43.91 34.18 39.32 29.88 35.76 24.92 34.31 27.12 35.99 29.33 37.69 31.17 39.76 33.01 41.83 34.47 44.32 34.88 47.06 35.21 49.25 34.87 51.47 34.53 53.66 33.94 57.47 33.46 61.11 32.86 64.92 30.36 61.43 27.53 58.17 24.44 55.19 23.17 53.97 21.64 52.72 19.89 52.89 22.16 53.98 24 55.81 25.45 57.86 26.86 59.85 27.93 62.07 28.98 64.28 25.53 63.95 22.09 63.61 18.64 63.28 20.43 64.11 22.3 64.76 24.22 65.24 26.91 65.91 29.51 65.9 31.06 68.52 32.9 71.64 32.92 75.62 32.59 79.12 32.43 80.83 32.11 82.53 31.88 84.22 31.73 85.28 31.21 89.41 29.96 89.82 28.93 90.16 28.39 92.14 29.15 92.92 29.8 93.59 30.86 93.56 31.79 93.54 35.97 93.42 40.17 94.19 44.04 95.79 39.68 89.02 37.62 80.8 38.25 72.77 38.44 70.38 38.93 67.85 40.61 66.14 42.02 64.7 44.05 64.07 45.99 63.49 47.88 62.93 49.77 62.36 51.66 61.8 46.85 60.32 41.88 61.38 37.84 64.36Z" fill="#5B3F18"/><path d="M55.77 106.4C54.93 106.44 54.08 106.46 53.23 106.46 47.44 106.46 41.86 105.53 36.64 103.82 25 100.01 15.13 92.29 8.58 82.21 18.03 81.9 27.57 84.07 35.93 88.49 38.51 89.85 40.98 91.43 43.31 93.21 48.16 96.87 52.39 101.35 55.77 106.4Z" fill="#7CAD6C"/><circle cx="70.64" cy="28.07" r="6.25" fill="#FFFFFF"/><path d="M30.76 89.85C31.02 90.14 31.28 90.46 31.3 90.85 31.35 91.61 30.46 92.13 29.7 92.06 28.94 91.99 28.28 91.56 27.56 91.29 26.93 91.05 26.25 90.94 25.57 90.96 25.44 90.96 25.3 90.98 25.18 91.04 24.62 91.37 25.33 92.25 25.14 92.88 25.03 93.25 24.6 93.44 24.22 93.42 23.84 93.4 23.49 93.2 23.16 93.01 22.34 92.55 21.53 92.09 20.71 91.62 18.41 90.31 15.9 88.69 15.33 86.1 15.27 85.81 15.23 85.5 15.35 85.22 15.6 84.65 16.36 84.54 16.99 84.56 18.41 84.61 19.61 85.08 20.97 85.37 22.1 85.61 23.26 85.6 24.39 85.92 26.83 86.61 29.07 87.97 30.76 89.85Z" fill="#FFFFFF"/><path d="M41.12 87.32C41.37 87.85 41.46 88.48 41.89 88.88 42.16 89.13 42.53 89.25 42.85 89.46 43.91 90.16 44.01 91.65 44.57 92.78 44.91 93.47 45.43 94.05 45.82 94.71 46.21 95.37 46.46 96.19 46.18 96.9 46.13 97.04 46.04 97.18 45.9 97.23 45.78 97.28 45.64 97.24 45.52 97.19 43.92 96.63 42.81 95.19 41.39 94.26 40.25 93.52 38.93 93.12 37.7 92.57 35.8 91.72 34.1 90.49 32.41 89.26 32.04 88.99 31.62 88.63 31.67 88.18 31.73 87.54 32.6 87.35 33.23 87.5 35.03 87.92 35.55 87.4 36.95 86.47 38.35 85.54 40.32 85.62 41.12 87.32Z" fill="#FFFFFF"/><path d="M20.52 62.05C21.18 62.44 21.9 62.72 22.64 62.89 22.99 62.97 23.42 63.11 23.44 63.47 23.44 63.62 23.36 63.77 23.36 63.92 23.36 64.28 23.81 64.45 24.16 64.52 24.92 64.67 25.68 64.82 26.44 64.97 27.61 65.2 28.79 65.43 29.98 65.36 30.23 65.35 30.48 65.31 30.69 65.18 31.18 64.87 31.19 64.1 30.85 63.62 30.08 62.51 27.61 61.54 26.31 61.08 24.36 60.4 22.11 60.63 20.52 62.05Z" fill="#FFFFFF"/><path d="M30.35 61.82C31.02 63.44 32.02 65.15 33.7 65.64 33.97 65.03 34.07 64.37 34.17 63.71 34.34 62.59 34.51 61.47 34.68 60.34 34.73 60 34.78 59.65 34.71 59.31 34.63 58.97 34.4 58.65 34.06 58.57 33.85 58.52 33.64 58.57 33.44 58.65 32.94 58.85 32.54 59.28 32.35 59.79 32.27 60.01 32.21 60.27 32 60.36 31.9 60.4 31.79 60.4 31.68 60.37 31.1 60.24 30.8 59.63 30.49 59.12 30.11 58.5 28.56 56.86 28.66 58.47 28.68 58.87 29.31 59.43 29.5 59.77 29.86 60.43 30.07 61.14 30.35 61.82Z" fill="#FFFFFF"/><path d="M42.87 48.91C43.42 48.69 44.14 48.51 44.52 48.96 44.62 49.09 44.7 49.26 44.86 49.31 45.01 49.36 45.17 49.27 45.3 49.18 45.97 48.74 46.67 48.3 47.46 48.21 47.6 48.19 47.75 48.19 47.88 48.25 48.22 48.41 48.24 48.91 48.02 49.21 47.8 49.51 47.43 49.65 47.08 49.78 45.53 50.34 43.94 50.96 42.72 52.07 42.09 52.65 41.55 53.37 40.78 53.74 40.01 54.11 38.87 53.93 38.59 53.12 38.38 52.52 38.73 51.87 39.16 51.4 40.37 50.1 41.19 49.59 42.87 48.91Z" fill="#FFFFFF"/><path d="M38.86 62.22C39.61 61.62 40.57 61.28 41.54 61.27 41.66 61.27 41.79 61.27 41.9 61.33 42.13 61.45 42.2 61.77 42.11 62.02 42.02 62.27 41.83 62.46 41.63 62.63 40.48 63.65 39.19 64.52 37.81 65.21 37.43 65.4 36.98 65.58 36.58 65.43 36.5 65.4 36.42 65.35 36.37 65.28 36.3 65.19 36.29 65.07 36.28 64.96 36.25 64.26 36.56 63.56 37.09 63.11 37.62 62.67 38.38 62.4 38.57 61.74" fill="#FFFFFF"/><path d="M30.31 34.92C29.72 34.53 29.1 34.13 28.4 34 27.7 33.87 26.89 34.08 26.51 34.68 27.49 35.84 29.08 36.27 30.26 37.22 31.18 37.96 31.82 38.97 32.44 39.97 33.4 41.5 34.36 43.04 35.32 44.57 35.66 45.11 36.22 45.73 36.81 45.49 37.24 45.32 37.37 44.79 37.45 44.33 37.73 42.7 38.09 40.94 39.35 39.86 39.91 39.38 40.64 39.05 40.98 38.39 41.22 37.91 41.21 37.35 41.19 36.81 41.18 36.58 41.15 36.32 40.96 36.2 40.83 36.12 40.65 36.13 40.5 36.17 38.66 36.58 37.4 39.65 35.34 39.15 34.52 38.95 34.07 38.02 33.53 37.44 32.61 36.45 31.44 35.68 30.31 34.92Z" fill="#FFFFFF"/><path d="M77.55 52.61C76.54 53.74 77.73 55.95 76.53 56.87 75.72 57.48 74.45 56.79 74.19 55.82 74.04 55.23 74.13 54.57 73.79 54.07 73.34 53.41 72.32 53.39 71.61 53.75 70.89 54.12 70.37 54.76 69.75 55.27 69.07 55.84 67.8 56.28 67.17 55.76 67.84 54.52 68.6 53.32 69.45 52.19 70.9 50.26 72.94 48.39 75.34 48.54 77.28 48.66 78.88 50.05 80.22 51.45 80.3 51.53 80.38 51.61 80.46 51.7 79.51 52.07 78.23 51.84 77.55 52.61Z" fill="#FFFFFF"/><path d="M102.46 51.18C102.35 51.2 102.23 51.2 102.11 51.2 101.38 51.21 100.65 51.23 99.92 51.24 99.64 51.25 99.32 51.26 99.12 51.46 98.65 51.9 99.13 52.77 98.77 53.29 98.56 53.59 98.13 53.67 97.78 53.57 97.43 53.48 97.13 53.25 96.84 53.03 96.04 52.44 95.06 51.87 94.11 52.14 92.42 52.62 91.94 55.35 90.19 55.41 89.39 55.43 88.76 54.79 88.49 54.02 89.1 52.91 89.78 51.88 90.52 50.96 92.94 47.98 96.29 47.42 99.53 49.15 100.56 49.7 101.54 50.39 102.46 51.18Z" fill="#FFFFFF"/></g></svg>