<svg width="126.42" height="87.19" viewBox="0 0 126.42 87.19" xmlns="http://www.w3.org/2000/svg" xmlns:xlink="http://www.w3.org/1999/xlink" xml:space="preserve" overflow="hidden"><defs></defs><g><g><path d="M8.99 83.78C6.6 83.78 4.31 83.8 2.02 83.77 0.22 83.75-0.15 83.35 0.05 81.54 0.9 73.68 1.85 65.82 2.63 57.95 3.55 48.62 4.32 39.27 5.18 29.94 5.97 21.39 6.77 12.85 8.43 4.41 8.62 3.46 8.95 2.54 9.27 1.62 9.34 1.41 9.63 1.22 9.87 1.14 10.15 1.05 10.47 1.06 10.78 1.06 20.65 0.93 30.51 0.76 40.37 0.67 66.7 0.43 93.03 0.22 119.36 0 121.04-0.01 122.72 0.05 124.4 0.12 125.84 0.18 126.17 0.51 126.23 1.94 126.28 3.13 126.26 4.32 126.27 5.51 126.32 31.2 126.38 56.89 126.43 82.58 126.44 85.48 125.75 86.26 122.8 86.33 112.94 86.54 103.07 86.63 93.21 86.9 72.96 87.46 52.71 87.1 32.46 86.78 25.19 86.66 17.92 86.5 10.65 86.36 9.03 86.33 9.03 86.34 9.05 84.67 9.05 84.43 9.01 84.19 8.99 83.78ZM10.7 84.71C11.01 84.75 11.13 84.77 11.25 84.77 14.7 84.79 18.15 84.78 21.61 84.83 39.08 85.07 56.55 85.44 74.02 85.52 86.85 85.58 99.68 85.3 112.5 85.11 116.16 85.06 119.82 84.8 123.48 84.6 124.72 84.53 125 84.09 124.8 82.9 124.75 82.63 124.74 82.35 124.74 82.08 124.75 69.4 124.76 56.73 124.79 44.05 124.82 30.06 124.88 16.07 124.92 2.08 124.92 1.97 124.86 1.86 124.79 1.62 86.75 1.39 48.71 2.21 10.7 2.63 10.7 29.94 10.7 57.3 10.7 84.71ZM9.08 82.29C9.08 58.13 9.08 34.03 9.08 9.92 8.65 12.42 8.29 14.92 8.05 17.44 7.2 26.68 6.46 35.94 5.55 45.18 4.39 56.85 3.09 68.5 1.85 80.16 1.78 80.85 1.71 81.53 1.64 82.29 4.14 82.29 6.51 82.29 9.08 82.29Z" fill="#2F4042"/><path d="M10.7 84.71C10.7 57.3 10.7 29.94 10.7 2.63 48.71 2.21 86.75 1.39 124.8 1.62 124.87 1.85 124.93 1.97 124.93 2.08 124.89 16.07 124.83 30.06 124.8 44.05 124.77 56.73 124.76 69.4 124.75 82.08 124.75 82.35 124.76 82.63 124.81 82.9 125.01 84.1 124.73 84.53 123.49 84.6 119.83 84.8 116.17 85.06 112.51 85.11 99.68 85.3 86.85 85.58 74.03 85.52 56.56 85.44 39.09 85.06 21.62 84.83 18.17 84.78 14.72 84.79 11.26 84.77 11.13 84.77 11.01 84.75 10.7 84.71Z" fill="#F9E467"/><path d="M9.08 82.29C6.52 82.29 4.15 82.29 1.65 82.29 1.72 81.53 1.79 80.85 1.86 80.16 3.09 68.5 4.39 56.85 5.54 45.18 6.46 35.94 7.19 26.69 8.04 17.44 8.27 14.92 8.64 12.42 9.07 9.92 9.08 34.03 9.08 58.13 9.08 82.29Z" fill="#FFF6A4"/></g><g><path d="M69.15 45.02C69.15 45.87 69.15 46.73 69.15 47.58 69.15 47.95 69.1 48.32 68.89 48.63 68.61 49.05 68.29 49.06 68.05 48.62 67.91 48.36 67.81 48.04 67.81 47.75 67.8 45.83 67.82 43.9 67.84 41.98 67.85 41.55 67.88 41.02 68.42 40.99 69.04 40.96 69.08 41.54 69.1 41.99 69.13 43 69.11 44 69.11 45.01 69.13 45.02 69.14 45.02 69.15 45.02Z" fill="#2F4042"/><path d="M69.27 56.35C69.28 57.38 69.49 58.43 69.22 59.45 69.13 59.8 69.06 60.26 68.61 60.25 68.17 60.25 68.06 59.79 68 59.44 67.73 57.8 67.91 56.15 67.9 54.5 67.9 54.1 67.91 53.7 67.97 53.31 68.02 52.97 68.17 52.63 68.58 52.61 69.04 52.59 69.25 52.94 69.26 53.32 69.3 54.33 69.27 55.34 69.27 56.35Z" fill="#2F4042"/><path d="M69.32 24.28C69.29 25.28 69.47 26.29 69.23 27.28 69.15 27.61 69.08 28.01 68.68 28.03 68.21 28.06 68.11 27.62 68.06 27.26 67.8 25.35 67.94 23.44 67.98 21.53 67.99 21.16 68.2 20.79 68.65 20.8 69.1 20.81 69.29 21.17 69.3 21.55 69.35 22.45 69.32 23.37 69.32 24.28Z" fill="#2F4042"/><path d="M69.27 34.76C69.27 35.58 69.3 36.4 69.25 37.21 69.23 37.56 69.08 38 68.65 38.01 68.21 38.02 68.06 37.57 68.03 37.23 67.87 35.54 67.89 33.84 68.07 32.14 68.11 31.82 68.31 31.55 68.67 31.58 69.03 31.6 69.19 31.89 69.22 32.21 69.28 33.06 69.32 33.9 69.36 34.75 69.34 34.76 69.31 34.76 69.27 34.76Z" fill="#2F4042"/><path d="M69.76 5.48C69.76 6.15 69.79 6.82 69.75 7.48 69.73 7.91 69.63 8.4 69.11 8.45 68.55 8.49 68.43 7.99 68.39 7.57 68.25 6.12 68.34 4.66 68.47 3.21 68.5 2.89 68.66 2.62 69.03 2.59 69.45 2.56 69.66 2.86 69.68 3.21 69.72 3.97 69.69 4.72 69.69 5.48 69.71 5.48 69.73 5.48 69.76 5.48Z" fill="#2F4042"/><path d="M69.34 66.31C69.34 67.16 69.37 68.01 69.33 68.86 69.31 69.18 69.17 69.58 68.74 69.55 68.39 69.52 68.29 69.18 68.25 68.87 68.02 67.2 68.12 65.53 68.23 63.86 68.25 63.53 68.41 63.24 68.78 63.25 69.2 63.26 69.35 63.58 69.35 63.94 69.37 64.73 69.36 65.52 69.36 66.31 69.35 66.31 69.35 66.31 69.34 66.31Z" fill="#2F4042"/><path d="M69.53 14.4C69.53 15.07 69.55 15.74 69.52 16.41 69.5 16.76 69.34 17.09 68.93 17.11 68.47 17.13 68.28 16.8 68.25 16.41 68.16 15.01 68.16 13.62 68.26 12.22 68.28 11.86 68.48 11.56 68.88 11.57 69.33 11.58 69.51 11.92 69.52 12.31 69.56 13 69.54 13.7 69.53 14.4 69.54 14.4 69.54 14.4 69.53 14.4Z" fill="#2F4042"/><path d="M69.54 75.21C69.54 75.88 69.56 76.55 69.53 77.22 69.51 77.56 69.39 77.93 68.97 77.94 68.54 77.95 68.43 77.58 68.4 77.24 68.29 75.87 68.3 74.5 68.42 73.14 68.45 72.81 68.58 72.51 68.95 72.51 69.37 72.51 69.51 72.87 69.52 73.21 69.55 73.87 69.53 74.54 69.54 75.21 69.53 75.21 69.53 75.21 69.54 75.21Z" fill="#2F4042"/><path d="M68.46 82.29C68.46 81.8 68.45 81.31 68.46 80.83 68.47 80.5 68.62 80.21 68.98 80.18 69.35 80.15 69.54 80.41 69.57 80.74 69.68 81.83 69.73 82.93 69.55 84.02 69.5 84.33 69.35 84.64 68.97 84.61 68.66 84.59 68.51 84.3 68.48 84.03 68.42 83.46 68.41 82.88 68.39 82.3 68.42 82.3 68.44 82.29 68.46 82.29Z" fill="#2F4042"/></g><g><path d="M101.77 51.89C101.89 50.76 101.72 49.83 101.68 48.9 101.66 48.41 101.63 47.83 102.3 47.78 102.88 47.74 103.05 48.26 103.1 48.72 103.3 50.39 103.39 52.06 103.14 53.74 103.08 54.14 102.91 54.44 102.58 54.64 101.55 55.24 100.53 55.85 99.48 56.41 99.06 56.63 98.48 56.84 98.16 56.31 97.83 55.77 98.32 55.38 98.71 55.13 99.66 54.52 100.65 53.98 101.62 53.4 101.62 53.09 101.33 53.05 101.15 52.91 96.9 49.71 91.99 47.83 87.1 45.91 80.5 43.31 73.83 40.96 66.79 39.83 61.16 38.93 55.5 38.69 49.8 38.93 43.05 39.21 36.34 39.74 29.67 40.83 28.96 40.95 28.24 41.05 27.45 41.42 28.17 41.89 28.8 42.3 29.43 42.72 29.76 42.94 30.08 43.17 30.38 43.44 30.64 43.67 30.85 43.98 30.65 44.33 30.46 44.66 30.08 44.74 29.76 44.58 28.16 43.81 26.64 42.91 25.35 41.68 24.96 41.31 24.97 40.8 25.2 40.31 25.9 38.85 26.78 37.49 27.71 36.16 27.98 35.78 28.37 35.39 28.86 35.73 29.35 36.06 29.12 36.56 28.88 36.96 28.18 38.13 27.46 39.28 26.62 40.63 29.19 40.03 31.52 39.47 33.89 39.1 45.43 37.28 56.98 36.31 68.61 38.44 74.81 39.58 80.63 41.87 86.43 44.2 90.08 45.67 93.75 47.11 97.2 49.03 98.76 49.85 100.21 50.79 101.77 51.89Z" fill="#2F4042"/></g></g></svg>