<svg width="210.98" height="81.94" viewBox="0 0 210.98 81.94" xmlns="http://www.w3.org/2000/svg" xmlns:xlink="http://www.w3.org/1999/xlink" xml:space="preserve" overflow="hidden"><defs></defs><g><path d="M7.64 0 0 33.32 201.17 81.93C201.17 81.93 211.56 37.6 210.95 36.68 210.34 35.77 7.64 0 7.64 0Z" fill="#C83E6D" fill-opacity="0.08"/><path d="M207.68 53.45C209.63 44.62 211.2 37.06 210.96 36.69 210.34 35.77 7.64 0 7.64 0L3.84 16.58C42.81 23.53 172.6 46.73 207.68 53.45Z" fill="#D47993" fill-opacity="0.08"/><path d="M14.36 3.22C14.24 2.92 14.09 2.64 13.79 2.48 13.54 2.35 13.28 2.3 13 2.33 12.74 2.36 12.47 2.47 12.29 2.67 12.06 2.92 11.97 3.19 11.93 3.52 11.94 3.43 11.95 3.34 11.97 3.25 11.93 3.47 11.88 3.67 11.85 3.9 11.83 4.07 11.82 4.25 11.81 4.42 11.78 4.74 11.75 5.06 11.73 5.38 11.7 5.73 11.65 6.08 11.64 6.42 11.63 6.66 11.68 6.93 11.73 7.16 11.86 7.77 12.53 8.16 13.11 8.08 14.43 7.9 14.34 6.34 14.39 5.34 14.41 5.01 14.43 4.67 14.45 4.34 14.48 3.98 14.51 3.58 14.36 3.22Z" fill="#652438" fill-opacity="0.08"/><path d="M44.96 9.33C44.84 9.03 44.69 8.75 44.39 8.59 44.14 8.46 43.88 8.41 43.6 8.44 43.34 8.47 43.07 8.58 42.89 8.78 42.66 9.03 42.57 9.3 42.53 9.63 42.54 9.54 42.55 9.45 42.57 9.36 42.53 9.58 42.48 9.78 42.45 10.01 42.43 10.18 42.42 10.36 42.41 10.53 42.38 10.85 42.35 11.17 42.33 11.49 42.3 11.84 42.25 12.19 42.24 12.53 42.23 12.77 42.28 13.04 42.33 13.27 42.46 13.88 43.13 14.27 43.71 14.19 45.03 14.01 44.94 12.45 44.99 11.45 45.01 11.12 45.03 10.78 45.05 10.45 45.08 10.09 45.11 9.7 44.96 9.33Z" fill="#652438" fill-opacity="0.08"/><path d="M73.49 15.12C73.37 14.82 73.22 14.54 72.92 14.38 72.67 14.25 72.41 14.2 72.13 14.23 71.87 14.26 71.6 14.37 71.42 14.57 71.19 14.82 71.1 15.09 71.06 15.42 71.07 15.33 71.08 15.24 71.1 15.15 71.06 15.37 71.01 15.57 70.98 15.8 70.96 15.97 70.95 16.15 70.94 16.32 70.91 16.64 70.88 16.96 70.86 17.28 70.83 17.63 70.78 17.98 70.77 18.32 70.76 18.56 70.81 18.83 70.86 19.06 70.99 19.67 71.66 20.06 72.24 19.98 73.56 19.8 73.47 18.24 73.52 17.24 73.54 16.91 73.56 16.57 73.58 16.24 73.61 15.87 73.64 15.48 73.49 15.12Z" fill="#652438" fill-opacity="0.08"/><path d="M105.05 20.34C104.93 20.04 104.78 19.76 104.48 19.6 104.23 19.47 103.97 19.42 103.69 19.45 103.43 19.48 103.16 19.59 102.98 19.79 102.75 20.04 102.66 20.31 102.62 20.64 102.63 20.55 102.64 20.46 102.66 20.37 102.62 20.59 102.57 20.79 102.54 21.02 102.52 21.19 102.51 21.37 102.5 21.54 102.47 21.86 102.44 22.18 102.42 22.5 102.39 22.85 102.34 23.2 102.33 23.54 102.32 23.78 102.37 24.05 102.42 24.28 102.55 24.89 103.22 25.28 103.8 25.2 105.12 25.02 105.03 23.46 105.08 22.46 105.1 22.13 105.12 21.79 105.14 21.46 105.16 21.1 105.19 20.7 105.05 20.34Z" fill="#652438" fill-opacity="0.08"/><path d="M137.6 27.22C137.48 26.92 137.33 26.64 137.03 26.48 136.78 26.35 136.52 26.3 136.24 26.33 135.98 26.36 135.71 26.47 135.53 26.67 135.3 26.92 135.21 27.19 135.17 27.52 135.18 27.43 135.19 27.34 135.21 27.25 135.17 27.47 135.12 27.67 135.09 27.9 135.07 28.07 135.06 28.25 135.05 28.42 135.02 28.74 135 29.06 134.97 29.38 134.94 29.73 134.89 30.08 134.88 30.42 134.87 30.66 134.92 30.93 134.97 31.16 135.1 31.77 135.77 32.16 136.35 32.08 137.67 31.9 137.58 30.34 137.63 29.34 137.65 29.01 137.67 28.67 137.69 28.34 137.72 27.97 137.75 27.58 137.6 27.22Z" fill="#652438" fill-opacity="0.08"/><path d="M167.87 32.72C167.75 32.42 167.6 32.14 167.3 31.98 167.05 31.85 166.79 31.8 166.51 31.83 166.25 31.86 165.98 31.97 165.8 32.17 165.57 32.42 165.48 32.69 165.44 33.02 165.45 32.93 165.46 32.84 165.48 32.75 165.44 32.97 165.39 33.17 165.36 33.4 165.34 33.57 165.33 33.75 165.32 33.92 165.29 34.24 165.27 34.56 165.24 34.88 165.21 35.23 165.16 35.58 165.15 35.92 165.14 36.16 165.19 36.43 165.24 36.66 165.37 37.27 166.04 37.66 166.62 37.58 167.94 37.4 167.85 35.84 167.9 34.84 167.92 34.51 167.94 34.17 167.96 33.84 167.99 33.48 168.02 33.09 167.87 32.72Z" fill="#652438" fill-opacity="0.08"/><path d="M200.88 39.6C200.76 39.3 200.61 39.02 200.31 38.86 200.06 38.73 199.8 38.68 199.52 38.71 199.26 38.74 198.99 38.85 198.81 39.05 198.58 39.3 198.49 39.57 198.45 39.9 198.46 39.81 198.47 39.72 198.49 39.63 198.45 39.85 198.4 40.05 198.37 40.28 198.35 40.45 198.34 40.63 198.33 40.8 198.3 41.12 198.28 41.44 198.25 41.76 198.22 42.11 198.17 42.46 198.16 42.8 198.15 43.04 198.2 43.31 198.25 43.54 198.38 44.15 199.05 44.54 199.63 44.46 200.95 44.28 200.86 42.72 200.91 41.72 200.93 41.39 200.95 41.05 200.97 40.72 201 40.36 201.03 39.96 200.88 39.6Z" fill="#652438" fill-opacity="0.08"/></g></svg>