<svg width="77.75" height="94.95" viewBox="0 0 77.75 94.95" xmlns="http://www.w3.org/2000/svg" xmlns:xlink="http://www.w3.org/1999/xlink" xml:space="preserve" overflow="hidden"><defs></defs><g><g><g><g><g><path d="M46.23 0.5 31.51 0.5 0.84 30.29 0.5 30.29 0.5 82.14 77.25 82.14 77.25 30.66Z" fill="#E4CDFC"/></g><g><path d="M46.75 0.5 45.72 0.5 76.89 30.82 76.89 81.78 0.86 81.78 0.86 30.64 0.98 30.64 32.02 0.5 30.99 0.5 0.69 29.93 0.14 29.93 0.14 82.5 77.61 82.5 77.61 30.51Z" fill="#8796D8"/></g></g><g><g><path d="M39.23 82.14 38.51 82.14 38.51 79.45 39.23 79.45 39.23 82.14ZM39.23 76.16 38.51 76.16 38.51 72.87 39.23 72.87 39.23 76.16ZM39.23 69.58 38.51 69.58 38.51 66.29 39.23 66.29 39.23 69.58ZM39.23 63 38.51 63 38.51 59.71 39.23 59.71 39.23 63ZM39.23 56.42 38.51 56.42 38.51 53.13 39.23 53.13 39.23 56.42ZM39.23 49.84 38.51 49.84 38.51 46.55 39.23 46.55 39.23 49.84ZM39.23 43.26 38.51 43.26 38.51 39.97 39.23 39.97 39.23 43.26ZM39.23 36.68 38.51 36.68 38.51 33.4 39.23 33.4 39.23 36.68ZM39.23 30.11 38.51 30.11 38.51 26.82 39.23 26.82 39.23 30.11ZM39.23 23.53 38.51 23.53 38.51 20.24 39.23 20.24 39.23 23.53ZM39.23 16.95 38.51 16.95 38.51 13.66 39.23 13.66 39.23 16.95ZM39.23 10.37 38.51 10.37 38.51 7.08 39.23 7.08 39.23 10.37ZM39.23 3.79 38.51 3.79 38.51 0.5 39.23 0.5 39.23 3.79Z" fill="#8796D8"/></g></g><g><g><g><g><path d="M0.5 30.64 0.5 0.5 31.66 0.5Z" fill="#E4CDFC"/></g></g><g><g><path d="M0.5 30.64 0.5 0.5 31.66 0.5Z" fill="#EEF3FF"/></g></g></g><g><g><g><path d="M0 31.82 0 0 32.9 0 0 31.82ZM1 1 1 29.46 30.43 1 1 1Z" fill="#8796D8"/></g></g><g><g><path d="M0 31.82 0 0 32.9 0 0 31.82ZM1 1 1 29.46 30.43 1 1 1Z" fill="#8796D8"/></g></g></g></g><g><g><g><g><path d="M77.25 30.64 77.25 0.5 46.09 0.5Z" fill="#E4CDFC"/></g></g><g><g><path d="M77.25 30.64 77.25 0.5 46.09 0.5Z" fill="#EEF3FF"/></g></g></g><g><g><g><path d="M77.75 31.82 44.85 0 77.75 0 77.75 31.82ZM47.32 1 76.75 29.46 76.75 1 47.32 1Z" fill="#8796D8"/></g></g><g><g><path d="M77.75 31.82 44.85 0 77.75 0 77.75 31.82ZM47.32 1 76.75 29.46 76.75 1 47.32 1Z" fill="#8796D8"/></g></g></g></g><g><rect x="31.66" y="0" width="15.08" height="1" fill="#8796D8"/></g></g><g><path d="M38.09 82.05 37.58 81.25 38.42 80.71 38.93 81.51 38.09 82.05ZM34.91 77.03 32.23 72.81 33.07 72.27 35.75 76.49 34.91 77.03ZM29.55 68.59 26.87 64.37 27.71 63.83 30.39 68.05 29.55 68.59ZM24.19 60.14 21.51 55.92 22.35 55.38 25.03 59.6 24.19 60.14ZM18.83 51.7 16.15 47.48 17 46.94 19.68 51.16 18.83 51.7ZM13.47 43.26 10.79 39.04 11.63 38.5 14.31 42.72 13.47 43.26ZM8.12 34.81 5.44 30.59 6.28 30.05 8.96 34.27 8.12 34.81ZM2.76 26.37 0.08 22.15 0.92 21.61 3.6 25.83 2.76 26.37Z" fill="#8796D8"/></g><g><path d="M39.63 82.05 38.79 81.51 39.3 80.71 40.14 81.25 39.63 82.05ZM42.81 77.03 41.97 76.49 44.65 72.27 45.49 72.81 42.81 77.03ZM48.17 68.59 47.33 68.05 50.01 63.83 50.85 64.37 48.17 68.59ZM53.53 60.14 52.69 59.6 55.37 55.38 56.21 55.92 53.53 60.14ZM58.89 51.7 58.05 51.16 60.73 46.94 61.57 47.48 58.89 51.7ZM64.25 43.26 63.41 42.72 66.09 38.5 66.93 39.04 64.25 43.26ZM69.6 34.81 68.76 34.27 71.44 30.05 72.28 30.59 69.6 34.81ZM74.96 26.37 74.12 25.83 76.8 21.61 77.64 22.15 74.96 26.37Z" fill="#8796D8"/></g></g><g><path d="M43.43 86.48 39.55 93.62 37.82 91.28C23.4 100.89 12.56 88.57 12.45 88.44L13.39 87.63C13.82 88.13 23.63 99.23 37.09 90.28L35.48 88.1 43.43 86.48Z" fill="#5366AD"/></g></g></svg>