<svg width="101.88" height="121.44" viewBox="0 0 101.88 121.44" xmlns="http://www.w3.org/2000/svg" xmlns:xlink="http://www.w3.org/1999/xlink" xml:space="preserve" overflow="hidden"><defs></defs><g><g><path d="M50.94 0.5 0.5 50.94 101.38 50.94Z" stroke="#505CA3" stroke-linecap="round" stroke-linejoin="round" stroke-miterlimit="10" fill="#FFFFFF"/><path d="M101.38 50.94 90.96 26.32 10.91 26.32 0.5 50.94Z" stroke="#505CA3" stroke-linecap="round" stroke-linejoin="round" stroke-miterlimit="10" fill="#FFFFFF"/><path d="M50.94 120.94 90.96 26.32 10.91 26.32Z" stroke="#505CA3" stroke-linecap="round" stroke-linejoin="round" stroke-miterlimit="10" fill="#FFFFFF"/><line x1="50.94" y1="0.5" x2="50.94" y2="120.94" stroke="#505CA3" stroke-linecap="round" stroke-linejoin="round" stroke-miterlimit="10" fill="none"/><g><g><line x1="0.5" y1="50.94" x2="3.2" y2="49.62" stroke="#505CA3" stroke-linecap="round" stroke-linejoin="round" fill="none"/><line x1="8.2" y1="47.18" x2="45.74" y2="28.86" stroke="#505CA3" stroke-linecap="round" stroke-linejoin="round" stroke-dasharray="5.5696 5.5696" fill="none"/><line x1="48.24" y1="27.64" x2="50.94" y2="26.32" stroke="#505CA3" stroke-linecap="round" stroke-linejoin="round" fill="none"/></g></g><g><g><line x1="50.94" y1="26.32" x2="52.11" y2="29.08" stroke="#505CA3" stroke-linecap="round" stroke-linejoin="round" fill="none"/><line x1="54.63" y1="35.05" x2="68.52" y2="67.88" stroke="#505CA3" stroke-linecap="round" stroke-linejoin="round" stroke-dasharray="6.4811 6.4811" fill="none"/><line x1="69.78" y1="70.87" x2="70.95" y2="73.63" stroke="#505CA3" stroke-linecap="round" stroke-linejoin="round" fill="none"/></g></g><g><g><line x1="50.94" y1="26.32" x2="53.64" y2="27.64" stroke="#505CA3" stroke-linecap="round" stroke-linejoin="round" fill="none"/><line x1="58.64" y1="30.08" x2="96.18" y2="48.4" stroke="#505CA3" stroke-linecap="round" stroke-linejoin="round" stroke-dasharray="5.5696 5.5696" fill="none"/><line x1="98.68" y1="49.62" x2="101.38" y2="50.94" stroke="#505CA3" stroke-linecap="round" stroke-linejoin="round" fill="none"/></g></g></g><path d="M90.81 57.23 81.65 53.3 82.82 63.2 84.82 61.71 94.28 74.37 98.28 71.38 88.82 58.72Z" stroke="#505CA3" stroke-linecap="round" stroke-linejoin="round" stroke-miterlimit="10" fill="#FFFFFF"/><g><g><path d="M72.5 47.07C63.46 49.98 57.64 58.27 57.45 67.27" stroke="#505CA3" stroke-linecap="round" stroke-linejoin="round" fill="none"/><g><path d="M52.52 66.39 58.5 74.37 62.42 65.21Z" fill="#505CA3"/></g></g></g></g></svg>