<svg width="118.97" height="171.33" viewBox="0 0 118.97 171.33" xmlns="http://www.w3.org/2000/svg" xmlns:xlink="http://www.w3.org/1999/xlink" xml:space="preserve" overflow="hidden"><defs></defs><g><g><path d="M118.05 85.68C118.08 85.68 118.1 85.68 118.13 85.68 118.13 83.97 118.1 82.26 118.14 80.55 118.42 67.88 118.83 55.21 118.95 42.54 119.04 32.37 118.78 22.21 118.68 12.04 118.65 8.8 118.67 5.56 118.66 2.33 118.66 1.81 118.61 1.29 118.55 0.78 118.5 0.29 118.26 0.04 117.7 0.07 116.54 0.12 115.38 0.08 114.22 0.08 104.11 0.13 94 0.24 83.9 0.24 75.41 0.24 66.92-0.01 58.43 0.05 39.88 0.18 21.34 0.57 2.8 0.06 0.27-0.01 0.34-0.43 0.32 2.52 0.27 8.44 0.45 14.37 0.29 20.28-0.22 38.7 0.04 57.11 0.59 75.53 0.73 80.05 0.94 84.57 0.86 89.08 0.63 102.58 0.16 116.07 0.02 129.57-0.08 139.52 0.19 149.47 0.28 159.43 0.31 162.64 0.29 165.84 0.31 169.05 0.31 169.57 0.36 170.09 0.42 170.6 0.48 171.08 0.68 171.34 1.27 171.3 2.15 171.24 3.04 171.31 3.92 171.3 13.63 171.22 23.34 171.06 33.06 171.06 42.1 171.06 51.14 171.33 60.18 171.32 72.4 171.3 84.61 171.06 96.83 171.02 103.76 171 110.69 171.16 117.62 171.29 118.29 171.3 118.51 171.06 118.57 170.5 118.62 169.95 118.67 169.4 118.66 168.86 118.62 164.31 118.5 159.76 118.53 155.21 118.56 150.48 118.83 145.75 118.83 141.01 118.83 130.6 118.79 120.18 118.65 109.77 118.55 101.74 118.26 93.71 118.05 85.68Z" fill="#FFFFFF"/><path d="M118.05 85.68C118.26 93.71 118.54 101.74 118.65 109.77 118.79 120.18 118.83 130.6 118.83 141.01 118.83 145.74 118.56 150.47 118.53 155.21 118.5 159.76 118.62 164.31 118.66 168.86 118.67 169.41 118.62 169.96 118.57 170.5 118.52 171.06 118.29 171.31 117.62 171.29 110.69 171.17 103.76 171 96.83 171.02 84.61 171.06 72.4 171.3 60.18 171.32 51.14 171.34 42.1 171.07 33.06 171.06 23.35 171.06 13.64 171.21 3.92 171.3 3.04 171.31 2.15 171.23 1.27 171.3 0.69 171.34 0.48 171.08 0.42 170.6 0.36 170.09 0.31 169.57 0.31 169.05 0.29 165.84 0.31 162.64 0.28 159.43 0.19 149.48-0.08 139.52 0.02 129.57 0.16 116.07 0.63 102.58 0.86 89.08 0.94 84.57 0.72 80.04 0.59 75.53 0.04 57.12-0.22 38.7 0.29 20.28 0.45 14.37 0.27 8.44 0.32 2.52 0.34-0.43 0.27-0.01 2.8 0.06 21.34 0.57 39.88 0.18 58.42 0.05 66.91-0.01 75.4 0.23 83.9 0.24 94.01 0.24 104.12 0.13 114.23 0.07 115.39 0.06 116.55 0.1 117.71 0.06 118.27 0.04 118.51 0.28 118.56 0.77 118.62 1.29 118.66 1.8 118.67 2.32 118.68 5.56 118.66 8.8 118.69 12.03 118.78 22.2 119.05 32.37 118.96 42.53 118.84 55.2 118.42 67.87 118.15 80.54 118.11 82.25 118.14 83.96 118.14 85.67 118.1 85.68 118.08 85.68 118.05 85.68ZM1.66 1.51C1.66 1.61 1.64 1.79 1.64 1.97 1.61 9 1.69 16.02 1.55 23.04 1.15 42.6 1.47 62.13 2.46 81.66 2.64 85.22 2.38 88.8 2.27 92.36 1.99 101.7 1.47 111.04 1.43 120.38 1.35 136.75 1.55 153.12 1.64 169.49 1.64 169.66 1.7 169.83 1.74 170.03 1.96 170.03 2.14 170.03 2.32 170.03 11.15 169.9 19.97 169.68 28.8 169.67 40.13 169.66 51.46 169.93 62.79 169.86 80.81 169.76 98.83 169.47 116.85 170.04 116.99 170.04 117.13 170 117.32 169.97 117.32 169.68 117.32 169.43 117.32 169.19 117.34 162.32 117.27 155.45 117.41 148.58 117.81 128.94 117.5 109.31 116.5 89.68 116.32 86.12 116.58 82.54 116.69 78.98 116.97 69.64 117.49 60.3 117.53 50.96 117.61 34.59 117.41 18.22 117.32 1.85 117.32 1.68 117.26 1.51 117.26 1.51 78.71 1.51 40.23 1.51 1.66 1.51Z" fill="#2F4042"/><path d="M1.66 1.51C40.23 1.51 78.71 1.51 117.27 1.51 117.27 1.51 117.33 1.68 117.33 1.85 117.42 18.22 117.62 34.59 117.54 50.96 117.49 60.3 116.98 69.64 116.7 78.98 116.59 82.55 116.33 86.13 116.51 89.68 117.52 109.3 117.82 128.93 117.42 148.58 117.28 155.45 117.36 162.32 117.33 169.19 117.33 169.43 117.33 169.67 117.33 169.97 117.13 170 116.99 170.04 116.86 170.04 98.84 169.48 80.82 169.76 62.8 169.86 51.47 169.92 40.14 169.65 28.81 169.67 19.98 169.68 11.16 169.9 2.33 170.03 2.15 170.03 1.97 170.03 1.75 170.03 1.71 169.83 1.65 169.66 1.65 169.49 1.56 153.12 1.36 136.75 1.44 120.38 1.49 111.04 2 101.7 2.28 92.36 2.39 88.79 2.65 85.21 2.47 81.66 1.47 62.13 1.16 42.59 1.55 23.04 1.69 16.02 1.61 9 1.64 1.97 1.64 1.79 1.65 1.61 1.66 1.51Z" fill="#FFF6A4"/></g><g><path d="M47.15 84.86C47.82 84.86 48.49 84.84 49.15 84.87 49.61 84.88 49.95 85.03 49.98 85.61 50 86.22 49.68 86.45 49.17 86.46 47.83 86.49 46.5 86.48 45.16 86.49 44.41 86.49 44.56 85.97 44.51 85.49 44.45 84.87 44.83 84.86 45.24 84.85 45.88 84.84 46.51 84.85 47.15 84.86 47.15 84.85 47.15 84.85 47.15 84.86Z" fill="#2F4042"/><path d="M71.87 84.85C72.51 84.85 73.15 84.84 73.78 84.85 74.16 84.86 74.54 84.88 74.47 85.44 74.42 85.88 74.64 86.48 73.86 86.48 72.49 86.48 71.13 86.49 69.76 86.46 69.23 86.45 68.95 86.16 68.99 85.57 69.03 84.98 69.41 84.88 69.86 84.87 70.53 84.84 71.2 84.86 71.87 84.85 71.87 84.85 71.87 84.85 71.87 84.85Z" fill="#2F4042"/><path d="M40.14 84.86C40.51 84.86 40.87 84.85 41.24 84.86 41.72 84.88 42.14 84.96 42.16 85.61 42.18 86.31 41.75 86.43 41.23 86.46 40.87 86.48 40.5 86.45 40.13 86.44 39.06 86.39 37.99 86.35 36.93 86.28 36.51 86.25 36 86.21 36.04 85.6 36.08 85.08 36.53 85.05 36.94 85.03 38.01 84.98 39.07 84.93 40.14 84.88 40.14 84.87 40.14 84.86 40.14 84.86Z" fill="#2F4042"/><path d="M79.94 86.47C79.21 86.47 78.48 86.49 77.75 86.46 77.22 86.44 76.81 86.27 76.83 85.6 76.86 84.95 77.28 84.85 77.76 84.87 79.25 84.91 80.74 84.98 82.23 85.05 82.59 85.07 82.91 85.2 82.94 85.62 82.97 86.11 82.59 86.25 82.22 86.26 81.46 86.29 80.7 86.27 79.94 86.27 79.94 86.33 79.94 86.4 79.94 86.47Z" fill="#2F4042"/><path d="M21.98 86.37C21.25 86.37 20.52 86.38 19.79 86.37 19.31 86.37 18.96 86.22 18.96 85.64 18.97 85.13 19.28 84.92 19.72 84.92 21.24 84.92 22.76 84.95 24.27 84.99 24.68 85 25.08 85.14 25.07 85.67 25.06 86.19 24.67 86.31 24.25 86.32 23.49 86.34 22.73 86.32 21.97 86.32 21.98 86.34 21.98 86.35 21.98 86.37Z" fill="#2F4042"/><path d="M96.88 86.32C96.15 86.32 95.42 86.33 94.69 86.31 94.26 86.3 93.9 86.16 93.91 85.63 93.92 85.15 94.27 85 94.65 84.99 96.2 84.95 97.74 84.92 99.29 84.92 99.74 84.92 100.03 85.16 100.02 85.67 100.01 86.19 99.7 86.36 99.25 86.36 98.46 86.37 97.67 86.36 96.88 86.36 96.88 86.35 96.88 86.33 96.88 86.32Z" fill="#2F4042"/><path d="M30.61 85.03C31.31 85.03 32.01 85.02 32.71 85.03 33.12 85.04 33.57 85.12 33.61 85.61 33.66 86.13 33.17 86.26 32.79 86.27 31.27 86.31 29.75 86.31 28.24 86.31 27.82 86.31 27.52 86.1 27.53 85.65 27.53 85.2 27.83 85.01 28.25 85 29.04 84.99 29.83 85 30.62 85 30.61 85.01 30.61 85.02 30.61 85.03Z" fill="#2F4042"/><path d="M88.48 84.99C89.18 84.99 89.88 84.99 90.58 84.99 91.05 84.99 91.46 85.12 91.45 85.68 91.44 86.18 91.06 86.31 90.62 86.31 89.19 86.31 87.76 86.31 86.34 86.29 85.92 86.28 85.37 86.2 85.37 85.67 85.37 85.08 85.93 85.04 86.39 85.03 87.09 85.02 87.79 85.03 88.49 85.03 88.48 85.02 88.48 85 88.48 84.99Z" fill="#2F4042"/><path d="M7.16 85.02C7.86 85.02 8.56 85 9.26 85.03 9.69 85.04 10.19 85.12 10.2 85.67 10.21 86.17 9.72 86.29 9.34 86.3 7.88 86.33 6.43 86.33 4.97 86.31 4.57 86.31 4.23 86.09 4.24 85.66 4.25 85.22 4.57 85.04 4.99 85.03 5.7 85.01 6.43 85.02 7.16 85.02Z" fill="#2F4042"/><path d="M111.84 85.01C112.54 85.01 113.24 85.01 113.93 85.01 114.37 85.01 114.75 85.16 114.74 85.66 114.74 86.1 114.39 86.29 113.99 86.29 112.53 86.3 111.08 86.31 109.62 86.27 109.24 86.26 108.76 86.14 108.78 85.63 108.8 85.13 109.24 85.03 109.65 85.02 110.38 85.01 111.11 85.02 111.84 85.01 111.84 85.02 111.84 85.02 111.84 85.01Z" fill="#2F4042"/><path d="M55.46 85.05C56.07 85.05 56.68 85.04 57.29 85.05 57.67 85.06 57.96 85.22 57.98 85.62 58 86.09 57.66 86.25 57.26 86.26 56.04 86.28 54.83 86.29 53.61 86.29 53.18 86.29 52.77 86.16 52.79 85.65 52.8 85.14 53.21 85.04 53.64 85.05 54.24 85.04 54.85 85.04 55.46 85.05 55.46 85.04 55.46 85.04 55.46 85.05Z" fill="#2F4042"/><path d="M63.67 85.04C64.25 85.04 64.83 85.04 65.4 85.04 65.81 85.04 66.16 85.16 66.18 85.62 66.21 86.13 65.82 86.28 65.38 86.28 64.13 86.28 62.89 86.28 61.64 86.25 61.27 86.24 60.97 86.06 60.98 85.65 60.99 85.25 61.27 85.06 61.65 85.06 62.33 85.04 63 85.05 63.67 85.04 63.67 85.05 63.67 85.04 63.67 85.04Z" fill="#2F4042"/><path d="M14.46 86.33C13.98 86.33 13.49 86.34 13.01 86.33 12.57 86.32 12.23 86.14 12.22 85.64 12.22 85.19 12.54 84.99 12.94 84.98 13.94 84.94 14.93 84.92 15.93 84.93 16.39 84.94 16.78 85.16 16.75 85.7 16.72 86.18 16.35 86.35 15.92 86.36 15.44 86.37 14.95 86.36 14.47 86.36 14.46 86.36 14.46 86.35 14.46 86.33Z" fill="#2F4042"/><path d="M104.5 86.37C104.04 86.37 103.58 86.38 103.13 86.37 102.65 86.36 102.25 86.2 102.25 85.66 102.24 85.12 102.66 84.93 103.12 84.92 104.09 84.91 105.07 84.94 106.04 84.98 106.44 85 106.77 85.19 106.76 85.65 106.76 86.15 106.41 86.32 105.96 86.34 105.47 86.35 104.98 86.34 104.49 86.34 104.5 86.35 104.5 86.36 104.5 86.37Z" fill="#2F4042"/></g><g><path d="M44.75 136.79C43.14 133.3 41.75 129.85 40.55 126.33 38 118.81 36.53 111.04 35.41 103.21 34.32 95.51 33.87 87.77 34.72 80.01 35.94 68.85 39.02 58.29 44.87 48.63 46.36 46.17 48.09 43.88 49.95 41.68 50.09 41.52 50.23 41.35 50.38 41.21 50.57 41.04 50.79 40.7 51.06 40.94 51.34 41.19 51.01 41.43 50.85 41.63 44.07 50.3 40.14 60.25 37.79 70.9 35.13 83 35.65 95.11 37.69 107.23 39.22 116.29 41.36 125.17 45.13 133.6 45.52 134.46 45.9 135.32 46.32 136.26 46.78 135.71 46.88 135.08 47.13 134.52 47.46 133.8 47.76 133.06 48.1 132.35 48.32 131.89 48.67 131.56 49.19 131.83 49.71 132.1 49.63 132.59 49.4 133.03 48.75 134.28 48.32 135.62 47.8 136.93 47.69 137.21 47.58 137.5 47.52 137.8 47.31 138.77 46.79 139.17 45.84 138.88 44.19 138.39 42.51 138.11 40.81 137.89 40.24 137.82 39.62 137.68 39.7 136.96 39.78 136.18 40.47 136.18 41.06 136.26 42.24 136.4 43.42 136.59 44.75 136.79Z" fill="#2F4042"/></g></g></svg>