<svg width="1790.66" height="1677.61" viewBox="0 0 1790.66 1677.61" xmlns="http://www.w3.org/2000/svg" xmlns:xlink="http://www.w3.org/1999/xlink" xml:space="preserve" overflow="hidden"><defs></defs><g><path d="M647.19 1062.02C520.12 938.84 142.81 919.54 154.36 985 165.92 1050.5 577.91 1092.81 647.19 1062.02Z" fill="#E2A98C"/><path d="M491.38 990.87C541.02 976.82 207 931.54 172.81 976.82 148.19 1009.35 426.19 1009.31 491.38 990.87Z" fill="#FFD0BB"/><path d="M672.86 1091.58C473.75 973.72-15.05 1027.52 0.36 1112.25 15.73 1196.93 565.16 1237.91 672.86 1091.58Z" fill="#E2A98C"/><path d="M483.61 996.49C451.7 1029.5 346.41 1021.92 287.91 1019.47 405.5 1025.64 485.18 1040.57 489.1 1052.26 493.02 1063.96 360.12 1057.45 360.12 1057.45 476.41 1063.97 576.55 1070.75 582.07 1091.58 587.67 1112.38 468.44 1172.94 300.18 1188.51 425.85 1200.45 660.14 1150.12 677.33 1098.37" fill="#D37272"/><path d="M1031.33 1282.75C993.04 1298.5 975.08 1552.68 998.17 1570.61 1021.28 1588.58 1084.83 1580.88 1089.94 1609.14 1095.09 1637.34 1025.78 1606.52 1007.84 1609.14 989.87 1611.7 1061.74 1663.04 1020.66 1675.86 979.61 1688.67 984.72 1627.1 964.2 1614.25 943.64 1601.43 856.66 1639.92 857.82 1609.13 858.95 1578.31 940.49 1591.16 953.31 1565.46 966.13 1539.82 969.31 1305.89 961.61 1282.74" fill="#16232D"/><path d="M1103.5 1192.67C1106.95 1253.6 1050.72 1316.47 1036.26 1319.71 1062.99 1361.27 1028.59 1374.32 1019.7 1334.78 996.82 1389.81 919.63 1359.74 948.99 1330.31 896.83 1357.07 898.59 1320.01 942.58 1315.79 907.74 1300.18 908.42 1172.38 908.42 1172.38" fill="#E08668"/><path d="M1458.83 684.69C1529.78 828.43 1512.09 1166.99 1264.43 1290.49 1027.58 1408.53 691.21 1273.98 591.11 1086.6 562.88 1032.69 609.97 1013.49 609.97 1013.49 668.99 885.16 999.46 670.26 1206.41 698.67" fill="#004FC1"/><path d="M1457.81 721.92C1511.14 733.79 1509.53 884.97 1489.38 994.68 1469.2 1104.36 1073.91 1161.71 1114.68 1106.06 1229.51 1013.49 1264.77 903.92 1281.74 854.1 1298.65 804.25 1381.5 771.28 1381.5 771.28" fill="#0372DE"/><path d="M1315.84 918.31C1251.27 1021.17 1184.92 1121.07 1007.94 1121.07 860.21 1121.07 667.17 1003.75 584.29 1031.1 567.82 1036.51 586.4 1095.3 609.99 1122.27 671.6 1201.85 878.35 1394.24 1182.74 1320.26 1436.47 1258.61 1518.64 987.59 1488.16 884.46 1474.96 800.25 1366.78 837.03 1315.84 918.31Z" fill="#D37272"/><path d="M708.69 1172.38C690.01 1185.27 760.1 1236.62 798.87 1201.3 837.64 1165.94 727.41 1159.5 708.69 1172.38Z" fill="#EFA29E"/><path d="M652.3 1138.73C672.42 1143 690.96 1166.01 673.54 1165.36 656.16 1164.68 640.4 1136.21 652.3 1138.73Z" fill="#EFA29E"/><path d="M779.3 1240.45C762.39 1217.39 717.83 1221.18 728.4 1230.62 739 1240.07 800.99 1269.93 779.3 1240.45Z" fill="#EFA29E"/><path d="M1327.44 931.28C1262.93 1034.21 1172.72 1121.72 1000.14 1144.16 933.65 1152.82 767.75 1150.64 781.25 1221.15 793.93 1287.33 1016.47 1360.67 1182.74 1320.26 1436.47 1258.61 1516.08 1003.18 1485.6 900.08 1472.4 815.79 1378.4 849.98 1327.44 931.28Z" fill="#EFA29E"/><g><path d="M1085.43 682.58C965.22 543.82 1008.38 165.47 1281.74 96.02 1586.23 18.69 1676.1 287.8 1730.89 364.88 1846.07 418.61 1787.76 601.32 1616.06 684.55 1449.15 765.57 1229.85 849.37 1085.43 682.58Z" fill="#057CDD"/><path d="M1274.69 109.7C1101.94 185.05 1091.98 391.22 1114.15 506.01 1136.34 620.8 1160.1 747.23 1358.67 730.35 1488.84 719.3 1661.22 653.64 1744.2 539.56 1809.66 449.62 1766.36 378.26 1722.62 363.23 1594.39 126.57 1462.72 27.7 1274.69 109.7Z" fill="#1897D6"/><path d="M1496.06 450.43C1474.24 488.99 1464.08 544.15 1494.84 568.8 1525.52 593.36 1548.5 621.34 1562.72 609.51 1576.87 597.71 1650.72 512.51 1600.9 462.63" fill="#057CDD"/><path d="M1314.07 104.86C1111.82 187.64 1227.98 512.38 1481.27 435.02 1734.52 357.77 1551.02 7.89 1314.07 104.86Z" fill="#26BBEF"/><path d="M1625.35 213.54C1585.97 214.63 1582.8 263.86 1601.14 307.88 1619.52 351.89 1656.1 354.18 1672.22 343.95 1688.42 333.65 1692.37 307.43 1685.86 284.93 1676.66 256.06 1640.89 216.78 1625.35 213.54Z" fill="#2D0C00"/><path d="M1283.62 327.42C1232.41 325.82 1219.29 402.69 1254.85 447.73 1294.91 498.32 1380.01 469.34 1366.54 398.64 1353.24 365.85 1311.03 327.22 1283.62 327.42Z" fill="#2D0C00"/><path d="M1290.65 451.32C1270.23 437.82 1236.54 492.02 1269.41 508.19 1302.2 524.42 1300.77 458 1290.65 451.32Z" fill="#F4E8DC"/><path d="M1643.38 327.25C1629.3 315.45 1606.01 362.67 1628.72 376.73 1651.43 390.9 1650.37 333.15 1643.38 327.25Z" fill="#F4E8DC"/><path d="M1615.08 474.53C1631.65 510.98 1624.18 579.3 1592.48 594 1583.89 597.91 1577.96 584.59 1541.48 574.7 1485.43 559.52 1454.57 545.11 1477.72 523.66" fill="#EF9300"/><path d="M1604.21 477.4C1615.8 533.08 1608.23 557.87 1604.69 566.21 1619.49 562.94 1631.29 491.55 1607.18 468.6" fill="#FFC41F"/><path d="M1596.19 477.47C1607.85 500.76 1601.11 552.92 1583.81 561.61 1566.56 570.3 1523.6 533.89 1494.42 531.95" fill="#EA4242"/><path d="M1575.06 502.25C1587.33 511.87 1581.16 545.89 1572.2 552.13 1563.23 558.3 1535.51 542.34 1536.71 534.64 1537.96 526.9 1557.77 488.96 1575.06 502.25Z" fill="#FC5959"/><path d="M1642.7 246.51C1655.21 245.52 1654.74 266.39 1647.37 266.08 1639.97 265.75 1630.19 247.57 1642.7 246.51Z" fill="#F4E8DC"/><path d="M1309.54 353.98C1324.23 352.78 1323.69 377.43 1314.96 377.06 1306.22 376.68 1294.77 355.21 1309.54 353.98Z" fill="#F4E8DC"/><path d="M1458.42 526.97C1415.87 469.66 1469.53 409 1518.08 396.38 1560.49 385.37 1633.8 402.04 1659.54 461.61 1665.95 476.37 1612.35 474.87 1590.3 493.56 1576.32 505.35 1550 530.32 1518.12 538.53 1504.89 542.04 1490.88 549.51 1476.18 541.02 1470.32 537.6 1464.39 532.97 1458.42 526.97Z" fill="#EF9300"/><path d="M1518.09 396.39C1576.6 377.37 1639.19 419.06 1652.56 455.1 1652.29 464.37 1607.66 462.57 1586.56 471.7 1565.42 480.78 1514.21 538.53 1474.29 513.77 1434.35 488.92 1456.45 416.33 1518.09 396.39Z" fill="#FFC41F"/><path d="M1555.22 556.36C1533.64 547.67 1526.68 554.18 1551.43 566.55 1576.18 578.93 1594.12 571.98 1555.22 556.36Z" fill="#FFC41F"/><path d="M1581.23 396.7C1603.73 402.32 1619.62 434.88 1568.64 427.48 1517.67 420.05 1526.2 382.79 1581.23 396.7Z" fill="#FFE443"/><path d="M1512.9 446.27C1493.94 440.89 1477.85 454.08 1494.09 462.95 1510.32 471.77 1525.69 449.88 1512.9 446.27Z" fill="#EF9300"/><path d="M1253.07 220.6C1229.68 199.4 1194.8 236.11 1200.47 293.39 1216.08 231.99 1261.91 228.61 1253.07 220.6Z" fill="#2D0C00"/><path d="M1471.55 140.31C1471.18 115.96 1512.39 104.41 1552.46 137.48 1498.72 118.36 1471.72 151.08 1471.55 140.31Z" fill="#2D0C00"/><path d="M1188.19 472.87C1166.99 369.39 1209.91 303.42 1282.29 314.02 1307.11 303.21 1304.96 272.81 1304.96 272.81 1313.96 293.6 1315.9 327.46 1301.04 332.41 1242.98 306.15 1182.6 358.95 1188.19 472.87Z" fill="#2D0C00"/><path d="M1568.27 344.81C1529.06 246.79 1556.61 194.08 1628.96 204.82 1652.28 199.33 1649.21 169.36 1649.21 169.36 1658.55 185.12 1657.8 218.86 1642.94 223.84 1589.2 209.35 1542.63 233.66 1568.27 344.81Z" fill="#2D0C00"/><path d="M1186.01 136.49C1210.59 109.49 1196.3 56.64 1182.05 38.03 1214.24 26.44 1232.99 45.26 1226.85 89.38 1238.44 51.77 1259.03 12.8 1291.15 2.58 1323.27-7.68 1362.99 22.32 1371.75 33.03 1343.56 25.12 1295.31 30.09 1250.07 87.23 1279.97 48.27 1372.16 31.66 1379.86 99.95 1322.25 75.54 1239.26 112.19 1209.43 132.44" fill="#057CDD"/><path d="M1604.28 485.44C1583.28 491.75 1554.3 524.07 1524.23 532.7 1493.89 541.36 1486.05 520.25 1479.43 526.93 1472.82 533.68 1488.16 549.47 1523.31 539.78 1558.39 530.17 1578.23 496.77 1604.28 485.44Z" fill="#BA3000"/><path d="M1261.15 82.89C1299.37 33.15 1355.86 45.05 1372.77 84.12 1337.42 69.57 1261.15 82.89 1261.15 82.89Z" fill="#1897D6"/><path d="M1245.68 60.4C1247.96 19.96 1296.48-27.8 1358.67 21.32 1315.98 15.76 1245.68 60.4 1245.68 60.4Z" fill="#1897D6"/><path d="M1225.97 56.68C1231.6 75.4 1233.34 107.78 1210.18 118.66 1220.58 88.93 1225.97 56.68 1225.97 56.68Z" fill="#004FC1"/><path d="M1206.4 136.15C1240.36 95.07 1277.42 85.29 1338.07 91.9 1290.68 93.67 1206.4 136.15 1206.4 136.15Z" fill="#004FC1"/><path d="M1316.49 1.24C1363.68 10.07 1345.1 22.92 1302.14 26.4 1259.18 29.88 1271.55-7.15 1316.49 1.24Z" fill="#26BBEF"/><path d="M1341.21 53.95C1370.33 70.62 1354.81 79.86 1325.39 75.87 1296 71.88 1313.39 38.06 1341.21 53.95Z" fill="#26BBEF"/></g><path d="M808.9 1229.69C844.05 1251.48 680.81 1552.5 653.6 1563.23 626.39 1574 554.46 1555.94 544.77 1582.98 535.06 1610.04 610.61 1587.27 627.96 1592.72 645.21 1598.25 550.36 1622.18 588.82 1641.55 627.21 1660.91 653.7 1611.07 676.1 1601.72 698.43 1592.47 766.55 1640.24 770.47 1609.63 774.35 1579.08 708.38 1585.05 705.18 1563.88 700.89 1535.51 866.31 1278.55 877.66 1256.96" fill="#16232D"/><path d="M949.4 1226.46C935.08 1285.75 863.14 1329.7 848.34 1328.64 861.95 1376.13 825.23 1378.72 828.16 1338.25 790.35 1384.39 725.13 1333.27 761.75 1313.6 704.06 1324.17 716.47 1289.19 759.77 1297.85 740.88 1241.32 785.41 1193.28 785.41 1193.28" fill="#EFA29E"/><path d="M439.9 1036.96C307.07 1014.49 15.63 1044.36 14.58 1094.04 13.52 1143.67 445.66 1187.59 543.92 1086.7 514.77 1073.3 304.31 1059.6 159.99 1072.28 323.54 1028.23 469.01 1051.89 439.9 1036.96Z" fill="#FFD0BB"/><path d="M1439.6 948.11C1461.96 953.33 1485.59 1043.5 1417.06 1152.03 1332.47 1286.03 1128.86 1335.97 979.4 1314.35 877.66 1299.62 789.36 1232.11 829.76 1207.05 870.16 1181.99 966.44 1239.96 1172.71 1121.71 1344.07 1023.46 1372.03 932.43 1439.6 948.11Z" fill="#F9CBB7"/><path d="M877.66 1299.63C883.66 1314.26 833.81 1350.74 798.12 1318.96 770.81 1294.69 781.01 1263.49 799.38 1261.44 823.32 1258.81 871.56 1284.7 877.66 1299.63Z" fill="#F9CBB7"/><path d="M806.41 1329.97C827.28 1337.4 799.66 1364.99 774.02 1353.91 748.38 1342.8 777.8 1319.78 806.41 1329.97Z" fill="#F9CBB7"/><path d="M764.17 1301.09C767.61 1306.03 735.22 1309.51 729.12 1304.91 722.98 1300.21 759.29 1291.2 764.17 1299.93" fill="#F9CBB7"/><path d="M1436.46 873.03C1464.62 879.34 1451.67 959.36 1422.41 957.18 1393.1 955.03 1400.53 864.95 1436.46 873.03Z" fill="#F9CBB7"/><path d="M1358.19 928.34C1379.26 934.3 1356.89 974.98 1340.19 973.58 1323.55 972.18 1320.96 917.83 1358.19 928.34Z" fill="#F9CBB7"/><path d="M1292.69 1023.46C1313.52 1028.51 1300.43 1081.25 1273.46 1072.28 1246.53 1063.28 1265.72 1017.01 1292.69 1023.46Z" fill="#F9CBB7"/><path d="M1044.49 1171.09C1020.22 1153.53 940.75 1180.37 969.79 1196.29 998.83 1212.21 1065.76 1186.5 1044.49 1171.09Z" fill="#F9CBB7"/><path d="M1422.42 1034.37C1463.81 1072.28 1393.07 1194.95 1366.78 1185.54 1351.74 1180.16 1374.86 1138.83 1374.86 1138.83 1374.86 1138.83 1333.47 1210.57 1298.8 1189.36 1264.16 1168.19 1316.15 1110.53 1316.15 1110.53 1316.15 1110.53 1299.07 1133.51 1286.9 1116.66 1274.76 1099.86 1359.82 1002.22 1422.42 1034.37Z" fill="#FFE5DC"/><path d="M1331.46 1203.55C1275.95 1234.06 1273.6 1183.56 1278.54 1172.38 1211.75 1224.21 1158.12 1257.75 1175.1 1272.45 1192.08 1287.15 1276.43 1255.95 1331.46 1203.55Z" fill="#FFE5DC"/><path d="M1274.93 1104.2C1270.6 1132.81 1285.77 1132.81 1285.77 1132.81 1262.14 1161.42 1232.82 1179.1 1226.79 1171.47 1214.24 1155.54 1265.79 1120.43 1274.93 1104.2Z" fill="#FFE5DC"/><path d="M1341.72 1192.4C1346.94 1206.01 1362.49 1203.72 1381.51 1189.57 1348.16 1231.74 1286.25 1265.9 1273.39 1247.8 1301.93 1235.74 1341.72 1192.4 1341.72 1192.4Z" fill="#FFE5DC"/><path d="M1199.58 1180.74C1195.39 1202.56 1229.52 1201.3 1229.52 1201.3 1202.31 1218.24 1168.97 1231.47 1163.1 1221.14 1157.24 1210.85 1199.58 1180.74 1199.58 1180.74Z" fill="#FFE5DC"/><path d="M228.72 1035.33C132.74 1041.22 10.59 1059.32 24.7 1094.04 38.88 1128.74 227.49 1127.35 349.41 1094.04 249.31 1074.87 83.75 1084.08 83.75 1084.08 118.42 1059.47 228.72 1035.33 228.72 1035.33Z" fill="#FFE9E3"/><path d="M304.3 960.35C263.42 948.18 147.95 957.18 172.8 976.82 227.66 1020.15 345.15 972.59 304.3 960.35Z" fill="#FFE5DC"/><g><path d="M640.13 899.76C640.13 899.76 463.22 867 438.16 887.76 411.19 910.1 630.62 934.89 630.62 934.89 630.62 934.89 416.17 888.24 401.71 923.53 383.5 967.72 705.01 1008.22 705.01 1008.22 705.01 1008.22 423.18 951.86 419.91 983.16 416.7 1014.42 580.84 1087.01 728.8 1081.93" fill="#56312C"/><path d="M738.94 825.13C626.98 843.37 513.61 915.65 583.64 927.21 515.08 935.26 516.88 980.23 617.9 1005.01 605.9 1004.56 585.95 992.19 582.06 996.48 557.99 1023.45 636.54 1083.83 774.22 1098.22 939.51 1115.54 1055.46 1024.99 1031.15 974.53" fill="#16232D"/><path d="M713.6 898.95C669.48 885.45 688.17 846.24 688.17 846.24 631.81 861.58 567.68 886.23 566.62 901.4 565.57 916.57 635.87 907.37 713.6 898.95Z" fill="#45565E"/><path d="M685.85 926.8C679.47 962.63 712.44 976.61 780.6 980.33 682.65 986.97 568.71 963.55 565.23 939.89 561.79 916.23 685.85 926.8 685.85 926.8Z" fill="#45565E"/><path d="M744.08 1005.12C735.22 1028.58 759.29 1056.02 807.09 1073.41 718.79 1071.4 594.55 1022.24 591.1 998.58 599.59 991.44 744.08 1005.12 744.08 1005.12Z" fill="#45565E"/><path d="M551.66 892.5C531.88 878.79 427.08 881.73 438.16 887.76 449.24 893.77 575.73 909.28 551.66 892.5Z" fill="#844741"/><path d="M551.11 925.95C458.34 904.98 415.21 911.04 410.37 923.62 405.46 936.27 522.54 970.41 567.99 978.14 542.9 969.69 536.59 945.61 536.59 945.61 505.43 936.99 455.58 924.37 455.58 924.37 488.34 921.34 551.11 925.95 551.11 925.95Z" fill="#844741"/><path d="M560.69 986.74C559.09 995.02 567.54 1004.37 567.54 1004.37 533.85 990.08 478.76 990.98 478.76 990.98 535.7 1002.05 571.43 1018.49 571.43 1018.49 591.27 1041.91 618.68 1052.27 618.68 1052.27 513.64 1044.67 426.22 996.06 427.41 981.23 428.65 966.38 542.18 981.04 560.69 986.74Z" fill="#844741"/><path d="M1197.44 827.76C1246.77 973.68 1094.06 1109.17 907.88 1095.22 807.1 1089.26 701.27 1011.8 847.74 953.9 735.91 971.63 622.07 921.57 786.98 876.2 698.95 875.72 695.44 798.09 882.96 751.85 1070.43 705.66 1154.03 710.61 1197.44 827.76Z" fill="#0372DE"/><path d="M1112.44 752.17C1208.52 799.6 1202.07 931.27 1083.32 995.53 964.6 1059.79 811.69 1036.85 811.93 989.64 812.14 959.15 907.36 925.23 902.21 926.22 812.06 943.85 731.84 935.87 729.32 903.31 728.23 889.47 776.17 876.23 830.45 856.6 695.2 870.21 713.91 802.26 863.93 756.84 974.93 723.3 1058.23 725.4 1112.44 752.17Z" fill="#1897D6"/><path d="M1083.39 740.98C982.85 702.49 744.08 800.78 878.14 865.29 1012.2 929.76 1241.89 801.64 1083.39 740.98Z" fill="#26BBEF"/><path d="M890.01 790.28C868.7 775.08 777.23 800.96 806.75 818.75 836.31 836.55 920.45 811.97 890.01 790.28Z" fill="#26BBEF"/><path d="M895.4 870.34C872.82 850.49 742.25 879.03 778.38 904.12 814.59 929.19 933.31 903.79 895.4 870.34Z" fill="#26BBEF"/><path d="M1007.22 921.31C1033.89 933.62 999.59 975.96 945.04 957.72 890.45 939.49 972.85 905.45 1007.22 921.31Z" fill="#26BBEF"/><path d="M1085.16 866.05C1105.28 871.91 1072.07 900.32 1040.5 888.28 1008.93 876.24 1047.8 855.2 1085.16 866.05Z" fill="#26BBEF"/></g><path d="M694.03 855.57C687.08 855.5 608.93 880.83 608.93 880.83L699.07 868.22" fill="#16232D"/><path d="M690.86 935.66C660.07 927.65 604.09 933.04 604.09 933.04 639.79 943.71 705.62 948.11 705.62 948.11" fill="#16232D"/><path d="M749.13 1015.58C707.91 1003.38 643.3 1009.31 643.3 1009.31 677.77 1023.73 754.86 1031.1 754.86 1031.1" fill="#16232D"/><path d="M594 883.47C591.1 888.95 603.55 897.72 627.27 898.37 563.83 905.94 551.11 900 594 883.47Z" fill="#758389"/><path d="M608.94 924.93C590.05 932.43 596.46 947.78 615.08 954.84 558 949.06 540.41 923.63 608.94 924.93Z" fill="#758389"/><path d="M640.09 998.91C620.32 1003.34 614.11 1008.66 654.82 1028.67 587.01 1013.5 568.91 988.1 640.09 998.91Z" fill="#758389"/><path d="M708.87 1516.94C718.01 1523.69 681.83 1557.21 688.93 1569.38 695.95 1581.58 725.65 1579.19 742.04 1584.83 758.44 1590.38 759.16 1605.62 741.19 1606.92 723.22 1608.18 698.54 1580.94 678.63 1582.85 658.72 1584.79 635.33 1611.41 621.22 1624.24 607.11 1637.06 581.19 1633.38 586.99 1619.23 592.95 1604.67 641.74 1592.12 634.69 1585.07 627.63 1578.02 588.76 1579.31 576.42 1583.81 564.08 1588.25 555.42 1573.48 576.42 1567.42 597.46 1561.32 641.09 1573.52 660.97 1565.2 680.88 1556.83 700.65 1510.87 708.87 1516.94Z" fill="#324147"/><path d="M979.75 1532.64C971.91 1531.51 975.28 1564.38 964.34 1573.21 944.63 1589.2 893.49 1583.78 877.67 1590.88 865.91 1596.09 865.94 1608.64 883.98 1608.85 901.98 1608.98 948.52 1582.87 966.28 1592.01 984.05 1601.18 984.83 1634.04 993.22 1651.2 1001.61 1668.31 1024.18 1668.9 1024.04 1653.61 1023.87 1637.79 989.84 1611.44 1002.36 1599.13 1009.48 1592.14 1058.17 1599.13 1067.99 1607.86 1077.81 1616.63 1091.34 1606.02 1074.06 1592.62 1056.74 1579.22 1009.56 1590.24 994.18 1575.16 978.79 1560.02 987.58 1533.72 979.75 1532.64Z" fill="#324147"/><path d="M722.81 1493.62C730.11 1496.48 721.62 1513.5 712.96 1509.04 704.3 1504.57 713.67 1490.08 722.81 1493.62Z" fill="#324147"/><path d="M763.12 1407.88C771 1408.36 766.26 1424.42 757.97 1421.08 749.69 1417.74 756.98 1407.58 763.12 1407.88Z" fill="#324147"/><path d="M773.99 1399.59C782.99 1402.87 782.76 1390.22 776.24 1388.65 771.23 1387.46 767.93 1397.35 773.99 1399.59Z" fill="#324147"/><path d="M595.84 1610.39C610.84 1602.17 619.02 1614.59 605.45 1622.29 591.89 1630.03 576.55 1621 595.84 1610.39Z" fill="#526166"/><path d="M1019.49 1643.92C1030.16 1657.35 1016.12 1666.67 1006.26 1654.59 996.38 1642.45 1005.86 1626.66 1019.49 1643.92Z" fill="#526166"/><path d="M576.41 1567.4C567.28 1568.35 557.66 1580.26 575.62 1579.6 593.59 1578.99 585.55 1566.42 576.41 1567.4Z" fill="#526166"/><path d="M883.46 1589.06C874.32 1590.02 864.7 1601.92 882.67 1601.27 900.65 1600.65 892.6 1588.1 883.46 1589.06Z" fill="#526166"/><path d="M978.31 1510.06C986.02 1510.03 986.32 1527.01 978.31 1526.36 970.27 1525.74 968.36 1510.16 978.31 1510.06Z" fill="#324147"/><path d="M979.88 1388.55C987.11 1388.62 991.47 1399.4 979.88 1400.15 968.36 1400.82 973.13 1388.45 979.88 1388.55Z" fill="#324147"/></g></svg>