<svg width="70.06" height="109.09" viewBox="0 0 70.06 109.09" xmlns="http://www.w3.org/2000/svg" xmlns:xlink="http://www.w3.org/1999/xlink" xml:space="preserve" overflow="hidden"><defs></defs><g><g><g><path d="M69.57 35.04 58.1 46.51 58.09 46.48 69.55 35.02Z" fill="#BDF9F6"/></g><g><path d="M69.55 35.02 58.09 46.48 52.82 51.76 47.63 56.96 47.62 56.96 42.64 54.44 35.04 50.6 35.03 50.6 35.03 0.5Z" fill="#FFFFFF"/></g><g><path d="M68.65 67.6 68.66 67.62 35.04 101.24 35.04 69.58 35.04 50.6 42.64 54.44 47.62 56.96 47.63 56.96 47.64 56.97Z" fill="#FFFFFF"/></g><g><path d="M68.64 67.58 68.65 67.6 47.64 56.97 58.1 46.51Z" fill="#BDF9F6"/></g><g><path d="M58.09 46.48 58.1 46.51 47.64 56.97 47.63 56.96 52.82 51.76Z" fill="#BDF9F6"/></g><g><path d="M35.04 69.58 35.04 101.24 12.6 78.8 1.42 67.61 1.43 67.6 22.43 56.98 22.47 56.96 27.44 54.44 35.03 50.61 35.03 69.58Z" fill="#FFFFFF"/></g><g><path d="M35.04 50.6 35.04 69.58 35.03 69.58 35.03 50.61 35.03 50.6Z" fill="#BDF9F6"/></g><g><path d="M35.03 50.6 35.03 50.61 27.44 54.44 22.47 56.96 17.27 51.76 11.99 46.48 0.52 35.01 0.54 35 34.96 0.57 35.03 0.5Z" fill="#FFFFFF"/></g><g><path d="M22.47 56.96 22.43 56.98 11.98 46.53 11.97 46.52 11.99 46.48 17.27 51.76Z" fill="#BDF9F6"/></g><g><path d="M22.43 56.98 1.43 67.6 11.97 46.52 11.98 46.53Z" fill="#BDF9F6"/></g><g><path d="M11.99 46.48 11.97 46.52 0.5 35.04 0.52 35.01Z" fill="#BDF9F6"/></g><g><path d="M69.54 35.5 66.54 35.5C66.26 35.5 66.04 35.28 66.04 35 66.04 34.72 66.26 34.5 66.54 34.5L69.54 34.5C69.82 34.5 70.04 34.72 70.04 35 70.04 35.28 69.82 35.5 69.54 35.5ZM63.54 35.5 60.54 35.5C60.26 35.5 60.04 35.28 60.04 35 60.04 34.72 60.26 34.5 60.54 34.5L63.54 34.5C63.82 34.5 64.04 34.72 64.04 35 64.04 35.28 63.82 35.5 63.54 35.5ZM57.54 35.5 54.54 35.5C54.26 35.5 54.04 35.28 54.04 35 54.04 34.72 54.26 34.5 54.54 34.5L57.54 34.5C57.82 34.5 58.04 34.72 58.04 35 58.04 35.28 57.82 35.5 57.54 35.5ZM51.54 35.5 48.54 35.5C48.26 35.5 48.04 35.28 48.04 35 48.04 34.72 48.26 34.5 48.54 34.5L51.54 34.5C51.82 34.5 52.04 34.72 52.04 35 52.04 35.28 51.82 35.5 51.54 35.5ZM45.54 35.5 42.54 35.5C42.26 35.5 42.04 35.28 42.04 35 42.04 34.72 42.26 34.5 42.54 34.5L45.54 34.5C45.82 34.5 46.04 34.72 46.04 35 46.04 35.28 45.82 35.5 45.54 35.5ZM39.54 35.5 36.54 35.5C36.26 35.5 36.04 35.28 36.04 35 36.04 34.72 36.26 34.5 36.54 34.5L39.54 34.5C39.82 34.5 40.04 34.72 40.04 35 40.04 35.28 39.82 35.5 39.54 35.5ZM33.54 35.5 30.54 35.5C30.26 35.5 30.04 35.28 30.04 35 30.04 34.72 30.26 34.5 30.54 34.5L33.54 34.5C33.82 34.5 34.04 34.72 34.04 35 34.04 35.28 33.82 35.5 33.54 35.5ZM27.54 35.5 24.54 35.5C24.26 35.5 24.04 35.28 24.04 35 24.04 34.72 24.26 34.5 24.54 34.5L27.54 34.5C27.82 34.5 28.04 34.72 28.04 35 28.04 35.28 27.82 35.5 27.54 35.5ZM21.54 35.5 18.54 35.5C18.26 35.5 18.04 35.28 18.04 35 18.04 34.72 18.26 34.5 18.54 34.5L21.54 34.5C21.82 34.5 22.04 34.72 22.04 35 22.04 35.28 21.82 35.5 21.54 35.5ZM15.54 35.5 12.54 35.5C12.26 35.5 12.04 35.28 12.04 35 12.04 34.72 12.26 34.5 12.54 34.5L15.54 34.5C15.82 34.5 16.04 34.72 16.04 35 16.04 35.28 15.82 35.5 15.54 35.5ZM9.54 35.5 6.54 35.5C6.26 35.5 6.04 35.28 6.04 35 6.04 34.72 6.26 34.5 6.54 34.5L9.54 34.5C9.82 34.5 10.04 34.72 10.04 35 10.04 35.28 9.82 35.5 9.54 35.5ZM3.54 35.5 0.54 35.5C0.26 35.5 0.04 35.28 0.04 35 0.04 34.72 0.26 34.5 0.54 34.5L3.54 34.5C3.82 34.5 4.04 34.72 4.04 35 4.04 35.28 3.82 35.5 3.54 35.5Z" fill="#7A7A9A"/></g><g><path d="M58.1 47.01C58.06 47.01 58.02 47.01 57.98 47 57.81 46.96 57.67 46.83 57.62 46.67 57.56 46.49 57.6 46.27 57.73 46.13L69.2 34.66C69.3 34.57 69.44 34.52 69.56 34.51 69.69 34.51 69.82 34.57 69.92 34.67 70.11 34.87 70.12 35.2 69.93 35.39L58.45 46.86C58.36 46.96 58.23 47.01 58.1 47.01Z" fill="#292764"/></g><g><path d="M47.63 57.46C47.55 57.46 47.46 57.44 47.39 57.41L34.84 51.06C34.66 50.98 34.53 50.81 34.53 50.6L34.53 0.5C34.53 0.3 34.65 0.12 34.84 0.04 35.03-0.04 35.24 0.01 35.38 0.15L69.9 34.66C69.99 34.75 70.05 34.88 70.05 35.01 70.05 35.14 70 35.27 69.9 35.36L47.98 57.31C47.89 57.41 47.76 57.46 47.63 57.46ZM35.53 50.29 47.53 56.36 68.84 35.03 35.53 1.71 35.53 50.29Z" fill="#292764"/></g><g><path d="M68.65 68.1C68.57 68.1 68.5 68.08 68.42 68.05L47.41 57.41C47.27 57.34 47.17 57.2 47.14 57.04 47.12 56.88 47.17 56.72 47.28 56.61L57.74 46.15C57.85 46.04 58.01 45.98 58.17 46.01 58.33 46.04 58.47 46.14 58.54 46.28L69.08 67.35 69.08 67.35 69.09 67.37C69.19 67.56 69.15 67.8 69 67.95 68.91 68.05 68.78 68.1 68.65 68.1ZM48.48 56.83 67.52 66.47 57.96 47.35 48.48 56.83Z" fill="#292764"/></g><g><path d="M47.64 57.47C47.51 57.47 47.38 57.42 47.29 57.32 47.09 57.12 47.08 56.8 47.28 56.6L57.74 46.12C57.86 46 58.04 45.95 58.21 45.99 58.38 46.03 58.52 46.16 58.57 46.32L58.58 46.35C58.64 46.53 58.59 46.72 58.46 46.86L47.99 57.32C47.9 57.42 47.77 57.47 47.64 57.47Z" fill="#292764"/></g><g><path d="M35.04 70.08C34.76 70.08 34.53 69.86 34.53 69.58L34.53 50.61C34.53 50.33 34.75 50.1 35.03 50.1 35.31 50.1 35.54 50.32 35.54 50.6L35.54 69.58C35.54 69.86 35.32 70.08 35.04 70.08Z" fill="#292764"/></g><g><path d="M22.47 57.46C22.34 57.46 22.21 57.41 22.12 57.31L0.17 35.36C0.05 35.25 0 35.08 0.03 34.92 0.05 34.79 0.13 34.67 0.24 34.6L34.61 0.21C34.75 0.07 35 0 35.19 0.07 35.38 0.15 35.53 0.3 35.53 0.5L35.53 50.61C35.53 50.8 35.42 50.97 35.26 51.06L22.7 57.41C22.62 57.44 22.55 57.46 22.47 57.46ZM1.23 35.01 22.56 56.34 34.52 50.29 34.52 1.71 1.23 35.01ZM35.03 50.61 35.03 50.61 35.03 50.61Z" fill="#292764"/></g><g><path d="M22.43 57.48C22.3 57.48 22.17 57.43 22.08 57.33L11.63 46.88C11.48 46.73 11.43 46.49 11.52 46.3 11.59 46.15 11.74 46.03 11.9 46.01 12.06 45.98 12.23 46.01 12.35 46.13L22.83 56.61C22.94 56.72 23 56.89 22.97 57.05 22.94 57.21 22.84 57.35 22.7 57.42L22.66 57.44C22.58 57.46 22.5 57.48 22.43 57.48Z" fill="#292764"/></g><g><path d="M1.43 68.1C1.3 68.1 1.17 68.05 1.08 67.95 0.93 67.8 0.89 67.57 0.99 67.37L11.53 46.29C11.6 46.15 11.74 46.05 11.9 46.02 12.06 45.99 12.22 46.05 12.33 46.16L22.79 56.62C22.9 56.73 22.95 56.89 22.93 57.05 22.9 57.21 22.8 57.34 22.66 57.42L1.66 68.04C1.58 68.08 1.51 68.1 1.43 68.1ZM12.11 47.36 2.55 66.47 21.59 56.84 12.11 47.36Z" fill="#292764"/></g><g><path d="M11.97 47.02C11.84 47.02 11.71 46.97 11.62 46.87L0.15 35.39C-0.02 35.22-0.04 34.96 0.08 34.76 0.16 34.63 0.31 34.54 0.46 34.52 0.6 34.51 0.77 34.54 0.88 34.65L12.35 46.12C12.5 46.27 12.54 46.5 12.45 46.69L12.43 46.73C12.36 46.88 12.22 46.98 12.06 47 12.02 47.02 12 47.02 11.97 47.02Z" fill="#292764"/></g><g><path d="M35.05 89.11C34.92 89.11 34.79 89.06 34.7 88.96 34.5 88.77 34.5 88.45 34.7 88.25L36.82 86.13C37.02 85.93 37.33 85.93 37.53 86.13 37.73 86.32 37.73 86.64 37.53 86.84L35.41 88.96C35.3 89.06 35.17 89.11 35.05 89.11ZM39.28 84.86C39.15 84.86 39.02 84.81 38.93 84.71 38.73 84.52 38.73 84.2 38.93 84L41.05 81.88C41.25 81.68 41.56 81.68 41.76 81.88 41.96 82.07 41.96 82.39 41.76 82.59L39.64 84.71C39.54 84.81 39.41 84.86 39.28 84.86ZM43.52 80.61C43.39 80.61 43.26 80.56 43.17 80.46 42.97 80.27 42.97 79.95 43.17 79.75L45.29 77.63C45.49 77.43 45.8 77.43 46 77.63 46.2 77.82 46.2 78.14 46 78.34L43.88 80.46C43.78 80.57 43.65 80.61 43.52 80.61ZM47.76 76.37C47.63 76.37 47.5 76.32 47.41 76.22 47.21 76.03 47.21 75.71 47.41 75.51L49.53 73.39C49.73 73.19 50.04 73.19 50.24 73.39 50.44 73.58 50.44 73.9 50.24 74.1L48.12 76.22C48.02 76.32 47.89 76.37 47.76 76.37ZM52 72.12C51.87 72.12 51.74 72.07 51.65 71.97 51.45 71.78 51.45 71.46 51.65 71.26L53.77 69.14C53.97 68.94 54.28 68.94 54.48 69.14 54.68 69.33 54.68 69.65 54.48 69.85L52.36 71.97C52.25 72.07 52.13 72.12 52 72.12ZM56.24 67.87C56.11 67.87 55.98 67.82 55.89 67.72 55.69 67.53 55.69 67.21 55.89 67.01L58 64.9C58.2 64.7 58.51 64.7 58.71 64.9 58.91 65.09 58.91 65.41 58.71 65.61L56.59 67.73C56.49 67.83 56.37 67.87 56.24 67.87Z" fill="#7A7A9A"/></g><g><path d="M35.13 89.11C35 89.11 34.87 89.06 34.78 88.96L32.66 86.84C32.46 86.64 32.46 86.33 32.66 86.13 32.86 85.93 33.17 85.93 33.37 86.13L35.49 88.25C35.69 88.45 35.69 88.76 35.49 88.96 35.39 89.06 35.26 89.11 35.13 89.11ZM30.89 84.86C30.76 84.86 30.63 84.81 30.54 84.71L28.42 82.59C28.22 82.39 28.22 82.08 28.42 81.88 28.62 81.68 28.93 81.68 29.13 81.88L31.25 84C31.45 84.2 31.45 84.51 31.25 84.71 31.15 84.81 31.02 84.86 30.89 84.86ZM26.65 80.62C26.52 80.62 26.39 80.57 26.3 80.47L24.18 78.35C23.98 78.15 23.98 77.84 24.18 77.64 24.38 77.44 24.69 77.44 24.89 77.64L27.01 79.76C27.21 79.96 27.21 80.27 27.01 80.47 26.91 80.57 26.78 80.62 26.65 80.62ZM22.41 76.37C22.28 76.37 22.15 76.32 22.06 76.22L19.94 74.1C19.74 73.9 19.74 73.59 19.94 73.39 20.14 73.19 20.45 73.19 20.65 73.39L22.77 75.51C22.97 75.71 22.97 76.02 22.77 76.22 22.67 76.32 22.54 76.37 22.41 76.37ZM18.18 72.12C18.05 72.12 17.92 72.07 17.83 71.97L15.71 69.85C15.51 69.65 15.51 69.34 15.71 69.14 15.91 68.94 16.22 68.94 16.42 69.14L18.54 71.26C18.74 71.46 18.74 71.77 18.54 71.97 18.43 72.07 18.3 72.12 18.18 72.12ZM13.94 67.87C13.81 67.87 13.68 67.82 13.59 67.72L11.47 65.6C11.27 65.4 11.27 65.09 11.47 64.89 11.67 64.69 11.98 64.69 12.18 64.89L14.3 67.01C14.5 67.21 14.5 67.52 14.3 67.72 14.19 67.83 14.07 67.87 13.94 67.87Z" fill="#7A7A9A"/></g><g><path d="M35.04 101.74C34.98 101.74 34.91 101.73 34.85 101.7 34.66 101.62 34.54 101.44 34.54 101.24L34.54 50.6C34.54 50.43 34.63 50.27 34.78 50.17 34.93 50.08 35.11 50.07 35.27 50.15L47.81 56.49C47.84 56.5 47.88 56.52 47.91 56.54L68.88 67.15C68.98 67.2 69.05 67.28 69.1 67.37L69.11 67.39C69.21 67.58 69.17 67.81 69.02 67.97L35.4 101.59C35.3 101.69 35.17 101.74 35.04 101.74ZM35.54 51.41 35.54 100.03 67.83 67.74 47.41 57.41C47.41 57.41 47.41 57.41 47.41 57.41 47.4 57.41 47.4 57.4 47.39 57.4L35.54 51.41Z" fill="#292764"/></g><g><path d="M35.04 101.74C34.91 101.74 34.78 101.69 34.69 101.59L1.07 67.96C0.87 67.76 0.87 67.45 1.07 67.25 1.11 67.21 1.16 67.17 1.21 67.15L34.81 50.16C34.96 50.08 35.15 50.09 35.3 50.18 35.45 50.27 35.54 50.43 35.54 50.61L35.54 69.48C35.55 69.51 35.55 69.55 35.55 69.58L35.55 101.24C35.55 101.44 35.43 101.62 35.24 101.7 35.17 101.73 35.1 101.74 35.04 101.74ZM2.26 67.74 34.54 100.03 34.54 69.68C34.53 69.65 34.53 69.61 34.53 69.58L34.53 51.42 2.26 67.74Z" fill="#292764"/></g></g><g><g><path d="M11.75 108.99C9.14 108.99 6.69 107.99 4.84 106.17 0.96 102.36 0.9 96.1 4.72 92.22L13.17 83.62C13.56 83.23 14.19 83.22 14.58 83.61 14.97 84 14.98 84.63 14.59 85.02L6.14 93.62C3.1 96.71 3.15 101.7 6.24 104.74 7.73 106.2 9.69 106.96 11.82 106.98 13.93 106.96 15.9 106.13 17.36 104.64 17.75 104.25 18.38 104.24 18.77 104.63 19.16 105.02 19.17 105.65 18.78 106.04 16.94 107.91 14.47 108.96 11.83 108.98 11.81 108.99 11.78 108.99 11.75 108.99Z" fill="#292764"/></g><g><path d="M14.05 91.85C13.5 91.85 13.05 91.41 13.05 90.86L13 85.14 7.43 85.19C6.88 85.17 6.43 84.75 6.42 84.2 6.42 83.65 6.86 83.2 7.41 83.19L13.98 83.13C13.98 83.13 13.99 83.13 13.99 83.13 14.25 83.13 14.5 83.23 14.69 83.42 14.88 83.61 14.99 83.86 14.99 84.12L15.05 90.84C15.05 91.39 14.61 91.85 14.05 91.85 14.06 91.85 14.05 91.85 14.05 91.85Z" fill="#292764"/></g></g><g><g><path d="M58.3 109.09C55.69 109.09 53.24 108.09 51.39 106.27 51 105.88 50.99 105.25 51.38 104.85 51.77 104.46 52.4 104.45 52.8 104.84 54.29 106.31 56.28 107.07 58.38 107.08 60.49 107.06 62.46 106.23 63.92 104.74 66.96 101.65 66.92 96.66 63.82 93.62L55.22 85.17C54.83 84.78 54.82 84.15 55.21 83.76 55.6 83.37 56.23 83.36 56.62 83.75L65.22 92.2C69.1 96.01 69.16 102.27 65.34 106.15 63.5 108.02 61.03 109.07 58.39 109.09 58.36 109.09 58.33 109.09 58.3 109.09Z" fill="#292764"/></g><g><path d="M55.86 92C55.31 92 54.86 91.56 54.86 91.01L54.8 84.29C54.8 84.02 54.9 83.77 55.09 83.58 55.28 83.39 55.53 83.28 55.79 83.28L62.36 83.22C62.36 83.22 62.37 83.22 62.37 83.22 62.92 83.22 63.37 83.66 63.37 84.21 63.37 84.76 62.93 85.21 62.38 85.22L56.81 85.27 56.86 90.99C56.87 91.54 56.42 91.99 55.86 92 55.87 92 55.87 92 55.86 92Z" fill="#292764"/></g></g></g></svg>