<svg width="122.45" height="122.45" viewBox="0 0 122.45 122.45" xmlns="http://www.w3.org/2000/svg" xmlns:xlink="http://www.w3.org/1999/xlink" xml:space="preserve" overflow="hidden"><defs></defs><g><rect x="18.29" y="18.29" width="85.88" height="85.88" stroke="#505CA3" stroke-linecap="round" stroke-linejoin="round" stroke-miterlimit="10" fill="#EAA639" transform="matrix(0.7071 0.7071 -0.7071 0.7071 61.2233 -25.3595)"/><line x1="61.22" y1="0.5" x2="61.22" y2="121.95" stroke="#505CA3" stroke-linecap="round" stroke-linejoin="round" stroke-miterlimit="10" fill="none"/><g><g><g><path d="M24.44 72.5C24.44 58.63 33.99 47 46.87 43.8" stroke="#FFFFFF" stroke-linecap="round" stroke-linejoin="round" fill="none"/><g><path d="M46.16 49.09 54 42.93 44.75 39.22Z" fill="#FFFFFF"/></g></g></g><g><g><path d="M98 72.5C98 58.63 88.45 47 75.57 43.8" stroke="#FFFFFF" stroke-linecap="round" stroke-linejoin="round" fill="none"/><g><path d="M77.7 39.22 68.44 42.93 76.28 49.09Z" fill="#FFFFFF"/></g></g></g></g><g><g><line x1="61.22" y1="121.95" x2="62.39" y2="119.18" stroke="#FFFFFF" stroke-linecap="round" stroke-linejoin="round" fill="none"/><line x1="64.64" y1="113.86" x2="95.03" y2="42.03" stroke="#FFFFFF" stroke-linecap="round" stroke-linejoin="round" stroke-dasharray="5.7777 5.7777" fill="none"/><line x1="96.16" y1="39.37" x2="97.33" y2="36.6" stroke="#FFFFFF" stroke-linecap="round" stroke-linejoin="round" fill="none"/></g></g><g><g><line x1="61.22" y1="121.95" x2="60.05" y2="119.18" stroke="#FFFFFF" stroke-linecap="round" stroke-linejoin="round" fill="none"/><line x1="57.8" y1="113.86" x2="27.41" y2="42.03" stroke="#FFFFFF" stroke-linecap="round" stroke-linejoin="round" stroke-dasharray="5.7777 5.7777" fill="none"/><line x1="26.29" y1="39.37" x2="25.12" y2="36.6" stroke="#FFFFFF" stroke-linecap="round" stroke-linejoin="round" fill="none"/></g></g></g></svg>