<svg width="134.6" height="93.07" viewBox="0 0 134.6 93.07" xmlns="http://www.w3.org/2000/svg" xmlns:xlink="http://www.w3.org/1999/xlink" xml:space="preserve" overflow="hidden"><defs></defs><g><g><path d="M1.65 15.65 133.86 0.59 45.62 39.13Z" fill="#EEF3FF" fill-opacity="0.18"/><path d="M59.16 50.31 133.86 0.59 100.81 92.15Z" fill="#EEF3FF" fill-opacity="0.18"/><path d="M45.62 39.13 45.62 70.7 59.16 50.31 133.86 0.59Z" fill="#8796D8" fill-opacity="0.18"/><path d="M45.62 70.7 70.49 61.7 59.16 50.31Z" fill="#E4CDFC" fill-opacity="0.18"/></g><path d="M101.01 93.07 134.26 0.96 134.6 0 133.68 0.1 0 15.33 45.12 39.42 45.12 70.54 45.12 71.4 45.95 71.1 70.37 62.26 101.01 93.07ZM100.6 91.24 71.4 61.9 71.4 61.9 59.94 50.39 132.87 1.84 100.6 91.24ZM130.61 1.46 68.93 28.4 45.64 38.57 3.3 15.96 130.61 1.46ZM46.12 39.45 128.84 3.32 59.22 49.67 59.08 49.53 58.8 49.96 58.38 50.24 58.52 50.38 46.12 69.04 46.12 39.45ZM69.58 61.5 46.87 69.72 59.24 51.1 62.5 54.38 69.58 61.5Z" fill="#8796D8" fill-opacity="0.18"/></g></svg>