<svg width="194.84" height="217.8" viewBox="0 0 194.84 217.8" xmlns="http://www.w3.org/2000/svg" xmlns:xlink="http://www.w3.org/1999/xlink" xml:space="preserve" overflow="hidden"><defs></defs><g><path d="M29.63 19.62C29.63 19.64 29.65 19.64 29.65 19.64 29.78 19.66 29.83 19.73 29.88 19.81 30.5 20.22 31.2 20.52 31.95 20.76 33.47 21.25 35.04 21.62 36.6 21.94 40.17 22.68 43.78 23.18 47.38 23.7 50.62 24.17 53.85 24.69 57.12 24.97 60.36 25.25 63.61 25.37 66.86 25.38 73.27 25.41 79.68 24.99 86.09 24.77 92.28 24.56 98.52 24.29 104.58 22.9 106.89 22.37 109.18 21.67 111.46 21 112.8 20.61 114.24 20.2 115.53 19.54 115.56 18.88 115.97 18.19 116.65 18.12 117.03 18.08 117.4 18.04 117.77 18 117.84 17.98 117.91 17.98 117.99 17.95 118.09 17.92 118.18 17.91 118.27 17.9 118.23 17.84 118.18 17.79 118.14 17.73 118.18 17.73 118.2 17.73 118.2 17.73L118.25 17.75C118.29 17.81 118.33 17.86 118.38 17.9 118.45 17.9 118.52 17.9 118.59 17.92 118.77 17.91 118.95 17.9 119.12 17.89 119.3 17.78 119.47 17.61 119.59 17.43 119.61 17.27 119.61 17.1 119.62 16.94 115.91 12.13 114.33 6.22 109.31 2.71 107.09 2.21 104.8 1.98 102.99 1.76 91.39 0.19 79.18 0.36 67.51 0.82 58.03 1.2 47.9 2.6 38.9 5.78 38.42 5.95 37.97 6.17 37.54 6.43 35.63 8.5 33.83 10.7 32.41 13.15 31.88 14.05 29.05 18.05 29.49 19.11 29.58 19.28 29.61 19.45 29.63 19.62Z" stroke="#000000" stroke-miterlimit="10" fill="#FF6B6B"/><path d="M190.01 36.76C186.66 30.53 179.75 26.06 173.47 23.26 167.05 20.4 159.51 19.37 152.54 19.96 147.91 20.35 143.33 20.85 138.8 21.8 133.81 22.85 129.41 25.02 124.63 26.62 124.58 26.63 124.54 26.68 124.49 26.72 125.53 29.06 126.33 31.51 127.49 33.79 128.81 36.4 130.69 38.73 132.25 41.2 132.97 42.34 133.58 43.73 134.45 44.85 135.15 41.92 137.67 40.17 140.88 39.13 142.76 38.71 144.62 38.45 145.83 38.13L145.84 38.13C146.56 38.02 147.27 37.92 148.01 37.82 150.82 37.59 153.53 37.59 155.47 37.59 160.1 37.59 164.68 38.67 168.43 41.35 170.83 43.92 172.37 47.71 173.47 50.65 175.72 56.66 176.29 62.83 175.15 69.12 174.13 74.73 172.9 80.4 171.57 85.95 170.08 92.19 166.98 97.88 164.19 103.62 162.28 107.63 160.36 111.75 158.39 115.84 155.48 120.73 152.45 125.55 149.64 130.53 149.63 130.2 149.62 129.87 149.61 129.53 148.98 132.07 148.7 134.71 148.56 137.32 148.14 144.88 148.67 152.45 148.6 160.01 148.57 163.71 148.2 167.38 148.01 171.08 147.94 172.42 147.8 173.8 147.22 175.03 146.54 176.47 145.43 177.51 144.06 178.3 143.66 178.53 143.18 178.48 142.83 178.23 140.27 178.4 137.75 178.9 135.2 179.12 132.47 179.35 129.74 179.49 127.01 179.67 121.55 180.03 116.08 180.34 110.61 180.5 100.83 180.79 91.03 180.83 81.26 180.36 76.39 180.13 71.56 179.64 66.7 179.25 61.78 178.85 56.85 178.72 51.92 178.65 46.97 178.58 42.02 178.59 37.08 178.47 32.22 178.35 27.39 177.95 22.55 177.66 20.12 177.52 17.68 177.4 15.24 177.29 12.94 177.19 10.63 177.2 8.37 176.7 7.2 176.44 6.05 176.09 4.95 175.62 4.14 175.28 3.35 174.91 2.47 174.84 2.09 174.81 1.15 174.8 0.51 175.01 0.93 183.3 1.67 191.56 2.87 199.69 2.9 199.94 2.94 200.21 2.99 200.46 3.05 200.91 3.12 201.36 3.19 201.8 3.23 201.97 3.3 202.06 3.4 202.08 3.96 203.69 4.97 205.2 6.87 206.58 11.93 210.29 19.95 211.79 25.95 213.09 41.38 216.44 57.37 217.3 73.13 217.24 89.37 217.18 105.63 215.6 121.47 212.02 128.76 210.37 135.81 208.01 142.87 205.52 145.9 204.44 147.74 202.71 148.01 200.14 148.7 197.11 148.29 193.52 150.94 191.36 152.15 190.38 153.84 189.92 154.91 188.76 157.02 186.42 157.13 183.37 157.2 180.32 157.34 174.96 157.56 169.61 157.72 164.25 157.75 163.04 157.87 161.17 156.94 160.17 155.12 158.22 152.16 157.57 151.19 154.94 155.34 148.42 160.1 142.12 164.41 135.78 169.67 128.09 174.1 120.37 178.25 112.05 186.55 95.39 194.09 78.65 194.31 59.73 194.42 52.02 193.76 43.71 190.01 36.76ZM174.22 37.41C172.52 37.41 173.12 34.76 174.64 34.76 176.34 34.76 175.74 37.41 174.22 37.41Z" stroke="#000000" stroke-miterlimit="10" fill="#FF6B6B"/><path d="M35 11.91C37.92 7.1 42.75 6.68 47.67 5.43 56.31 3.22 65.27 2.76 74.14 2.62 82.86 2.51 91.6 2.85 100.29 3.54 103.68 3.81 107.6 4.13 110.83 5.63 111.66 6.49 112.28 7.82 112.91 8.66 113.4 9.29 113.82 9.95 114.24 10.63 101.91 12.58 89.21 13.28 76.81 13.87 69.16 14.22 61.52 14.13 53.87 13.69 50.02 13.47 46.17 13.06 42.33 12.64 40.29 12.41 37.47 12.47 34.85 12.13 34.9 12.05 34.95 11.97 35 11.91Z" stroke="#000000" stroke-miterlimit="10" fill="#FF6B6B"/><path d="M34.12 13.15C34.22 13.04 34.31 12.93 34.39 12.83 38.72 13.6 43.1 14.16 47.49 14.61 56.41 15.51 65.35 15.68 74.28 15.44 82.46 15.23 90.59 14.58 98.71 13.76 104.1 13.23 109.7 13.07 115.06 12 115.7 13.13 116.31 14.32 116.93 15.47 116.03 15.56 115.15 15.63 114.26 15.66 114.17 15.66 114.1 15.66 114.05 15.64 101.5 17.88 88.97 19.6 75.98 20.2 66.47 20.64 56.98 20.45 47.46 20.08 43.07 19.89 38.67 19.66 34.27 19.28 33.72 19.23 33.16 19.2 32.59 19.15 32.59 19.13 32.61 19.11 32.61 19.11 32.17 19.09 31.71 19.07 31.24 19.05 31.24 19.01 31.24 18.97 31.21 18.93 31.12 18.81 31.04 18.7 30.95 18.61 31.87 16.69 33.29 15.06 34.12 13.15Z" stroke="#000000" stroke-miterlimit="10" fill="#FF6B6B"/><path d="M146 199.3C143.27 204.75 132.37 206.37 127.27 207.78 120.95 209.51 114.47 210.76 108 211.79 94.56 213.94 80.89 214.54 67.29 214.37 54.99 214.2 42.56 213.27 30.47 211.05 24 209.85 17.67 207.98 11.55 205.57 5.57 203.21 5.23 198.84 4 194.02 3.84 188.49 3.67 182.95 3.53 177.43 7.66 183.51 17.81 184.7 24.59 186.19 38.95 189.37 53.58 190.41 68.25 190.64 82.59 190.87 96.84 189.95 111.05 188.09 118.34 187.13 125.61 185.81 132.72 183.86 137.54 182.53 142.61 180.98 146.63 177.89 146.43 185.02 146.2 192.16 146 199.3Z" stroke="#000000" stroke-miterlimit="10" fill="#FF6B6B"/><path d="M70.08 15.5C67.33 15.53 64.59 15.53 61.82 15.47 61.11 17.1 60.42 18.74 59.8 20.41 63.28 20.46 66.73 20.46 70.22 20.38 70.22 18.74 70.19 17.11 70.08 15.5Z" stroke="#000000" stroke-miterlimit="10" fill="#FF6B6B"/><path d="M71.02 190.65C70.09 190.65 69.16 190.65 68.24 190.63 59.41 190.49 50.58 190.06 41.82 189.04 41.8 196.95 41.82 204.87 42.05 212.76 50.43 213.75 58.89 214.24 67.3 214.36 68.37 214.36 69.42 214.36 70.47 214.37 70.48 206.47 70.83 198.53 71.02 190.65Z" stroke="#000000" stroke-miterlimit="10" fill="#FF6B6B"/><path d="M153.7 161.59C155.74 163.03 154.73 167.59 154.88 169.66 155.06 172.44 155.27 175.23 155.5 178 155.8 181.78 156.08 186.5 152.29 188.76 151.15 189.43 149.91 190.03 149.05 191.05 148.75 191.41 148.48 191.79 148.25 192.18 149.51 180.96 150.01 169.58 150.08 158.27 150.22 158.27 150.35 158.27 150.45 158.31 150.92 159.56 152.02 160.41 153.7 161.59Z" stroke="#000000" stroke-miterlimit="10" fill="#FF6B6B"/><g><path d="M112.25 7.62C103.26 9.47 94.05 10.35 84.81 10.6 76.51 10.83 68.21 10.64 59.93 10.07 52.98 9.58 45.55 10.21 38.82 8.17 37.36 9 36.05 10.16 35 11.9 34.95 11.96 34.9 12.04 34.85 12.11 37.48 12.45 40.29 12.39 42.33 12.62 46.17 13.04 50.01 13.45 53.87 13.67 61.52 14.11 69.16 14.2 76.81 13.85 89.22 13.26 101.91 12.56 114.24 10.61 113.82 9.94 113.39 9.27 112.91 8.64 112.71 8.37 112.48 8 112.25 7.62Z" stroke="#000000" stroke-miterlimit="10" fill="#FF6B6B"/></g><g><path d="M31.26 19.05C31.72 19.08 32.19 19.1 32.63 19.1 32.63 19.1 32.61 19.13 32.61 19.15 33.18 19.2 33.73 19.24 34.29 19.28 38.39 19.64 42.49 19.86 46.61 20.03 47.39 18.24 48.22 16.48 49.1 14.75 48.57 14.7 48.05 14.66 47.5 14.61 43.11 14.16 38.74 13.6 34.4 12.83 34.32 12.93 34.23 13.04 34.13 13.15 33.3 15.06 31.87 16.69 30.97 18.61 31.06 18.71 31.14 18.81 31.23 18.93 31.26 18.97 31.26 19.01 31.26 19.05Z" stroke="#000000" stroke-miterlimit="10" fill="#FF6B6B"/><path d="M115.07 12C109.71 13.07 104.11 13.23 98.72 13.76 97.16 13.91 95.6 14.06 94.03 14.2 94.47 15.34 94.88 16.47 95.27 17.59 95.37 17.88 95.46 18.19 95.56 18.49 101.77 17.71 107.93 16.73 114.07 15.64 114.12 15.66 114.19 15.66 114.28 15.66 115.17 15.63 116.05 15.56 116.95 15.47 116.32 14.32 115.71 13.13 115.07 12Z" stroke="#000000" stroke-miterlimit="10" fill="#FF6B6B"/></g><g><path d="M25.59 186.4C25.27 186.32 24.92 186.26 24.58 186.18 17.81 184.69 7.65 183.51 3.52 177.42 3.67 182.94 3.83 188.48 3.99 194.01 5.22 198.83 5.57 203.2 11.54 205.56 16.08 207.36 20.73 208.85 25.48 209.98 25.3 202.13 25.31 194.25 25.59 186.4Z" stroke="#000000" stroke-miterlimit="10" fill="#FF6B6B"/><path d="M132.72 183.85C125.9 185.72 118.98 187 111.98 187.95 111.64 193.85 111.3 199.76 111.25 205.65 111.23 207.52 111.23 209.38 111.25 211.25 116.64 210.32 122.01 209.22 127.28 207.78 132.38 206.38 143.28 204.76 146.01 199.3 146.21 192.16 146.44 185.02 146.63 177.88 142.61 180.96 137.54 182.51 132.72 183.85Z" stroke="#000000" stroke-miterlimit="10" fill="#FF6B6B"/></g><g><path d="M155.47 177.69C154.84 177.76 154.16 177.55 153.57 176.93 151.83 175.07 152.3 171.19 152.2 168.86 152.08 165.97 152.16 162.85 151.61 159.96 151.06 159.44 150.68 158.93 150.44 158.31 150.34 158.27 150.2 158.27 150.07 158.27 150 169.58 149.51 180.96 148.24 192.18 148.47 191.79 148.74 191.41 149.04 191.05 149.9 190.03 151.14 189.43 152.28 188.76 156.07 186.5 155.8 181.78 155.49 178 155.49 177.9 155.49 177.8 155.47 177.69Z" stroke="#000000" stroke-miterlimit="10" fill="#FF6B6B"/></g><path d="M101.55 5.38C92.85 3.91 83.93 4.12 75.16 4.37 66.05 4.62 56.84 4.87 47.85 6.4 47.52 6.45 47.62 6.96 47.93 6.97 57 7.35 66.09 6.94 75.17 6.91 83.83 6.89 92.98 7.61 101.56 6.27 102 6.21 101.98 5.46 101.55 5.38Z" stroke="#000000" stroke-miterlimit="10" fill="#FF6B6B"/><path d="M113.35 20.47C100.85 23.21 88.62 25.16 75.81 25.24 63.44 25.3 51.34 24.02 39.1 22.58 39.05 22.56 39.03 22.66 39.08 22.68 63.79 29.55 89.04 28.05 113.43 20.81 113.65 20.74 113.55 20.41 113.35 20.47Z" stroke="#000000" stroke-miterlimit="10" fill="#FF6B6B"/><path d="M136.14 183.41C126.37 184.61 116.93 187.57 107.11 188.77 96.78 190.02 86.34 190.83 75.95 191.22 55.75 191.99 34.23 190.36 14.77 184.82 14.57 184.77 14.49 185.06 14.67 185.13 53.46 199.03 97.3 195.36 136.23 183.97 136.52 183.88 136.48 183.37 136.14 183.41Z" stroke="#000000" stroke-miterlimit="10" fill="#FF6B6B"/></g></svg>