<svg width="120" height="77.68" viewBox="0 0 120 77.68" xmlns="http://www.w3.org/2000/svg" xmlns:xlink="http://www.w3.org/1999/xlink" xml:space="preserve" overflow="hidden"><defs></defs><g><path d="M0 13.31 60 77.42 120 13.31Z" fill="#DBDBDB"/><g><path d="M0 13.31 59 15.01 60 71.18 56.4 73.82Z" fill="#EFBE4C"/><path d="M0 17.42 59 15.01 60 71.18 56.4 73.82Z" fill="#FFFFFF"/></g><g><path d="M120 13.31 61 15.01 60 71.18 60 77.42Z" fill="#EFBE4C"/></g><path d="M0 17.42 60 77.42 70.35 17.43Z" fill="#EFBE4C"/><path d="M24.52 17.42 60 77.42 75.75 17.42 62.14 14.71 60.96 17.42Z" fill="#D88A00"/><path d="M17.71 0 70.35 17.43 60 77.42Z" fill="#EFBE4C"/><g opacity="0.6"><g><line x1="60" y1="14" x2="60" y2="15.5" stroke="#666666" stroke-width="0.5" stroke-linecap="round" stroke-linejoin="round" fill="none"/><line x1="60" y1="17.45" x2="60" y2="74.95" stroke="#666666" stroke-width="0.5" stroke-linecap="round" stroke-linejoin="round" stroke-dasharray="2.9238 1.9492" fill="none"/><line x1="60" y1="75.93" x2="60" y2="77.43" stroke="#666666" stroke-width="0.5" stroke-linecap="round" stroke-linejoin="round" fill="none"/></g></g><g><g><path d="M31.51 8.31C57.12-0.12 81.06 6.47 81.06 6.47" stroke="#233A3F" stroke-linecap="round" stroke-linejoin="round" stroke-miterlimit="10" fill="none"/><path d="M79.41 8.31 82.08 6.55 80.32 3.88" stroke="#233A3F" stroke-linecap="round" stroke-linejoin="round" stroke-miterlimit="10" fill="none"/></g></g></g></svg>