<svg width="199.87" height="513.3" viewBox="0 0 199.87 513.3" xmlns="http://www.w3.org/2000/svg" xmlns:xlink="http://www.w3.org/1999/xlink" xml:space="preserve" overflow="hidden"><defs></defs><g><g><g><g><path d="M113.48 419.38C113.48 419.38 110.72 424.6 24.46 449.14 12.64 452.5 15.6 437.38 15.6 437.38 15.6 437.38 85.29 396.72 97.36 392.63 109.41 388.52 113.48 419.38 113.48 419.38Z" fill="#F1AE9E"/></g></g><g><g><path d="M4.61 442.58 0 444.92C0 444.92 9.79 478.42 20.09 487.77 20.09 487.77 23.7 491.78 27.41 486.84 30.23 483.09 4.61 442.58 4.61 442.58Z" fill="#FFFFFF"/></g><g><path d="M16.96 436.74 3.07 443.3C3.07 443.3 11.05 473.66 23.37 486.95 23.37 486.95 30.63 493.32 27.35 473.96 24.08 454.6 25.01 449.73 25.01 449.73 25.01 449.73 14.45 445.45 16.96 436.74Z" fill="#008EB7"/></g><g><path d="M12.15 443.67C11.81 441.59 14.38 438.24 16.86 437.23 16.41 442.83 19.12 445.72 20.62 446.98 17.48 448.35 12.72 447.17 12.15 443.67Z" fill="#00668E"/></g><g><path d="M27.87 477.45C29.7 492.49 23.37 486.94 23.37 486.94 20.83 484.2 18.48 480.73 16.34 476.95 20.2 475.62 24.1 475.43 27.87 477.45Z" fill="#00668E"/></g></g><g><g><path d="M33.09 450.12C112.5 427.3 113.66 423.08 113.66 423.08 113.66 423.08 109.82 383.64 97.75 387.74 88.35 390.93 41.7 417.64 22.57 428.69L33.09 450.12Z" fill="#004B72"/></g></g><g><path d="M116.27 406.14C116.27 406.14 125.37 324.13 124.17 297.22L58.48 297.64C58.48 297.64 55.82 321.42 63.47 342.12 70.54 361.24 78.39 402.77 77.87 416.05 77.88 416.04 103.17 424.85 116.27 406.14Z" fill="#004B72"/></g><g><g><path d="M147.72 396.76C147.72 396.76 151.26 401.48 136.59 489.96 134.58 502.08 122.17 492.95 122.17 492.95 122.17 492.95 115.18 412.57 116.63 399.92 118.09 387.25 147.72 396.76 147.72 396.76Z" fill="#F1AE9E"/></g></g><g><g><path d="M140.61 483.68C153.91 402.14 150.59 399.29 150.59 399.29 150.59 399.29 113.29 385.91 111.84 398.57 110.7 408.44 114.92 462.02 116.74 484.04L140.61 483.68Z" fill="#005885"/></g></g><g><path d="M150.77 400.45C150.77 400.45 136.04 319.26 127.2 293.82L58.92 310.72C58.92 310.72 63.53 331.13 76.78 348.77 89.02 365.08 113.51 408.04 116.81 420.92 116.81 420.92 143.56 422.13 150.77 400.45Z" fill="#005885"/></g><g><g><path d="M121.34 505.66 121.49 510.83C121.49 510.83 155.97 516.3 168.81 510.98 168.81 510.98 173.98 509.43 171.1 503.97 168.91 499.81 121.34 505.66 121.34 505.66Z" fill="#FFFFFF"/></g><g><path d="M121.34 492 121.34 507.36C121.34 507.36 152.2 513.12 169.47 507.66 169.47 507.66 178.33 503.82 159.43 498.51 140.53 493.2 136.52 490.27 136.52 490.27 136.52 490.27 128.14 497.99 121.34 492Z" fill="#008EB7"/></g><g><path d="M125.55 499.31C123.53 498.73 121.59 494.97 121.74 492.3 126.61 495.11 130.39 493.89 132.16 493.08 132.06 496.49 128.97 500.29 125.55 499.31Z" fill="#00668E"/></g><g><path d="M162.82 499.53C177.2 504.3 169.48 507.65 169.48 507.65 165.93 508.78 161.78 509.42 157.45 509.74 157.88 505.68 159.38 502.08 162.82 499.53Z" fill="#00668E"/></g></g><g><g><path d="M173.51 313.74C173.51 313.74 186.57 309.66 193.59 327.38 193.59 327.38 191.11 329.53 185 324.73 180.65 321.3 177.07 318.27 175.08 316.03 174.28 315.13 173.74 314.36 173.51 313.74Z" fill="#A06654"/></g><g><path d="M164.19 321C165.37 325.36 167.46 329.68 170.06 333.36 173.43 338.14 178.45 344.77 184.96 344.16 187.21 343.95 189.33 343.35 191.27 342.21 193.33 341 195.3 339 194.61 336.67 193.52 333 190.85 330.12 188.39 327.29 186.01 324.55 184.66 321.05 182.33 318.2 179.91 315.25 173.24 313.21 172.25 313.66 171.25 314.1 164.19 321 164.19 321Z" fill="#A06654"/></g><g><g><path d="M123.41 255.84C125.75 256.86 126.25 257.53 132.67 255.83 137.69 254.5 140.06 251.32 140.36 247.98 138.54 201.91 127.64 164.55 117.45 161.52 100.79 156.57 102.74 176.94 102.74 176.94 102.74 176.94 107.93 210.76 114.49 237.1 116.39 244.73 117.99 248.56 120.04 255.85 120.05 255.86 123.41 255.84 123.41 255.84Z" fill="#A06654"/></g></g><g><g><path d="M176.21 316.51C173.8 320.3 169.69 323.02 166.25 326.16 154.45 315 145.09 301.22 137.08 287.16 131.02 276.54 124.52 266.77 120.08 255.37 119.66 254.3 120.22 252.16 120.44 251.03 120.59 250.24 121.04 249.54 121.54 248.9 122.77 247.29 124.33 245.85 126.08 244.82 128.09 243.64 130.43 243.96 132.7 244.23 135.05 244.52 139.39 245.15 140.31 247.8 148.53 271.68 164.23 300.33 176.21 316.51Z" fill="#A06654"/></g></g><g><g><g><path d="M116.55 154.15C125.88 157.76 140.01 193.32 140.88 231.9 133.55 237.98 115.5 239.98 105.8 236.53 101.61 209.16 99.11 174.51 99.11 174.51 99.11 174.51 98.77 147.26 116.55 154.15Z" fill="#F0F0F0"/></g></g></g></g><g><path d="" fill="#A06654"/></g><g><path d="M84.13 109.2C92.27 103.87 107.38 112.47 107.38 112.47L107.71 156.04C107.71 156.04 78.73 161.89 79.04 155.59 79.74 141.32 78.51 112.87 84.13 109.2Z" fill="#A06654"/></g><g><path d="M95.53 142.71C100.58 145.33 104.76 149.61 107.64 154.49 107.66 154.53 107.68 154.57 107.7 154.61L107.38 112.47C107.38 112.47 92.27 103.87 84.13 109.2 81.36 111.01 79.46 126.95 79.36 141.93 84.6 141.36 90.42 140.06 95.53 142.71Z" fill="#905C4B"/></g><g><path d="M122.93 34.33C119.71 28.39 124.15 27.97 117.09 25.9 109.86 23.79 102.1 23.01 94.4 23.27 86.7 23.02 84.16 31.33 76.93 33.43 73.14 34.54 69.77 35.84 66.87 38.23 63.36 41.12 63.85 43.87 62.67 47.69 61.92 50.1 60.71 52.33 59.82 54.71 58.22 58.93 56.49 63.43 55.89 67.84 54.67 76.86 55.25 85.8 56.69 94.75 58.14 103.81 55.54 112.24 62.14 119.87 70.87 129.98 77.66 137.35 98.8 137.25 107.56 137.21 122.69 137.07 125.63 128.25 129.55 116.48 129.98 111.08 131.87 108.1 133.59 105.38 139.64 104.75 140.82 102.11 141.21 101.25 135.28 92.95 135.17 88.31 135.09 84.99 136.53 73.03 136.68 69.94 137.73 49.08 129.15 45.8 122.93 34.33Z" fill="#A06654"/></g><g><path d="M39.8 41.62C39.9 41.06 40.02 40.53 40.2 40.06 41.76 35.9 43.25 33.88 47.2 32.19 48.98 31.43 57.28 28.67 59.12 29.46 62.27 30.8 63.48 45.01 62.65 47.71 63.83 43.89 63.33 41.13 66.85 38.25 69.75 35.86 73.11 34.57 76.91 33.45 84.14 31.34 86.69 23.03 94.38 23.29 96.65 23.21 98.91 23.26 101.17 23.37 102.17 28.84 101.77 34.58 100.61 40.49 100.32 41.98 102.02 43.21 102.03 44.89 102.04 47.21 100.82 50.15 100.15 52.36 98.64 57.32 96.45 62 93.42 66.22 91.45 68.98 88.96 71.39 87.25 74.34 85.27 77.75 82.82 81.18 81.59 84.98 81.14 86.37 81.39 87.9 79.87 88.32 78.46 88.71 76.74 87.07 75.59 86.42 74.4 85.75 71.44 82.71 70.4 82.57 68.41 82.3 67.46 85.6 67.3 87.09 66.83 91.44 69.9 95.69 71.83 99.34 75.95 107.12 73.3 117.94 72.5 126.3 69.19 127.63 58.77 131.9 60.27 123.38 54.72 129.16 48.05 122.16 49.32 116.02 39.87 117.14 30.81 99.81 39.51 95.24 39.95 95.26 39.96 95.28 39.54 95.3 32.41 93.41 32.64 76.72 37.46 72.71 29.09 68.18 31.77 56.44 35.85 49.51 36.73 48.03 37.92 48.63 38.85 46.62 39.44 45.35 39.49 43.36 39.8 41.62Z" fill="#381705"/></g><g><g><path d="M60.37 90.51C61.89 98.82 73.69 110.07 76.83 103.04 78.75 98.74 78.7 93.7 77.19 85.39 75.67 77.08 78.9 71.57 71.33 72.96 63.77 74.35 58.86 82.21 60.37 90.51Z" fill="#A06654"/></g><g><path d="M72.46 80.61C72.59 80.59 72.72 80.6 72.86 80.59 72.9 80.65 72.92 80.73 72.97 80.79 75.47 83.67 73.96 89.66 73.99 93.12 74.01 94.6 74.11 96.04 74.28 97.47 70.62 97.46 67.29 94.52 66.53 90.36 65.68 85.73 68.33 81.36 72.46 80.61Z" fill="#894E45"/></g></g><g><path d="M53.09 177.44C53.09 162.72 67.43 154.27 79.02 149.63 85.68 159.33 97.02 157.75 106.35 153.65 107.13 153.3 107.45 152.72 107.49 152.1 119.57 158.73 129.11 171.02 131.41 185.39 133.07 195.78 134.73 214.08 136.4 241.51 136.56 244.14 136.57 303.33 134.74 303.87 134.74 303.87 120.04 310.31 95.25 310.52 70.45 310.73 53.67 308.44 53.67 308.44 51.83 279.45 53.09 195.16 53.09 177.44Z" fill="#FFFFFF"/></g><g><g><path d="M124.49 102.65C123.32 106.58 117.8 108.4 112.17 106.72 106.55 105.03 102.94 100.49 104.11 96.56 105.29 92.63 110.8 90.81 116.43 92.49 122.05 94.18 125.66 98.72 124.49 102.65Z" fill="#9F5B50"/></g></g><g><g><path d="M108.29 75.64C107.5 75.57 106.78 75.09 106.43 74.32 105.9 73.18 106.41 71.83 107.55 71.31 120.33 65.46 128.4 68.05 128.74 68.17 129.93 68.57 130.57 69.86 130.17 71.05 129.77 72.24 128.49 72.87 127.31 72.49 127.15 72.44 120.38 70.45 109.43 75.45 109.07 75.61 108.67 75.67 108.29 75.64Z" fill="#381705"/></g></g><g><path d="M127.36 84.36C127.36 87.53 125.7 90.1 123.65 90.1 121.6 90.1 119.93 87.53 119.93 84.36 119.93 81.19 121.6 78.62 123.65 78.62 125.7 78.62 127.36 81.19 127.36 84.36Z" fill="#3A0D00"/></g><g><path d="M117.22 110.42C116.51 120.77 126.67 125.4 126.67 125.4L129.94 113.25 117.22 110.42Z" fill="#FFFFFF"/></g></g><g><path d="M107.56 319.24C96.53 334.35 94.91 335.08 81.61 341.51 78.94 353.02 105.05 359.5 111.34 350.86 115.57 345.03 115.54 324.74 108.68 321.45" fill="#005885"/></g><path d="M45.04 32.89C41.28 30.01 39.47 27.25 43.11 22.8 47.2 17.78 52.78 19.44 58.11 18.53 57.19 6.46 76.78 0.2 83.98 9.32 84.78-6.03 115.46-0.51 115.41 12.05 116.07 5.88 126.77 7.76 129.91 10.93 133.19 14.25 133.32 18.27 133.09 22.65 134.21 21.29 139.02 21.61 140.75 21.78 143.68 22.06 145.86 23.5 147.32 26.07 148.13 27.5 149.12 29.96 148.92 31.65 148.57 34.58 145.36 37.8 142.4 38.02 145.94 38.74 147.56 43.75 147.56 46.99 147.56 51.05 143.18 55.43 139.14 55.8 140.74 62.29 128.57 61.74 125.16 60.97 122.33 60.33 120.14 58.75 118.67 56.29 117.63 60.13 115.49 63.89 110.84 63.75 104.63 63.57 99.42 60.08 96.14 55.31 94.02 64.99 77.95 65.9 74.58 56.58 73.57 57.69 73.14 59.18 71.9 60.35 70.39 61.78 68.44 62.63 66.53 63.45 61.97 65.42 57.11 65.29 52.35 65.85 48.33 66.33 43.81 63.56 42.06 59.84 40.25 55.99 41.67 53.34 43.56 50.35 40 48.56 39.11 48.38 39.28 43.83 39.43 39.86 40.53 33.96 45.04 32.89Z" fill="#381705"/><g><g><g><g><path d="M116.9 259.59C115.58 262.04 115.58 262.91 109.11 266.15 104.05 268.68 99.48 268.04 97.12 265.65 69.53 228.62 54.58 181.89 61.23 172.32 72.11 156.67 77.82 178.36 77.82 178.36 77.82 178.36 107.57 226.89 119.3 251.65 121.47 256.22 113.73 255.07 116.9 259.57 116.89 259.58 116.89 259.59 116.9 259.59Z" fill="#A06654"/></g></g></g><g><g><g><path d="M57.57 170.18C51.86 178.39 62.32 217.96 83.18 250.41 92.65 251.34 108.74 242.91 114.85 234.62 103.01 209.59 85.7 179.47 85.7 179.47 85.7 179.47 68.45 154.52 57.57 170.18Z" fill="#F6F6F6"/></g></g></g></g><g><g><path d="M97.25 266.02C97.18 260.58 99.7 260.86 105.63 254.72 110.6 249.57 115.54 246.7 115.53 246.7 134.03 260.55 160.27 277.37 176.36 280.43 194.39 283.86 173.59 292.63 173.59 292.63 150.58 288.86 124.94 281.11 97.25 266.02Z" fill="#A06654"/></g></g><g><path d="M165.55 278.42C165.55 278.42 173.5 266.81 188.74 276.1 188.74 276.1 187.98 279.38 180.58 279.57 175.29 279.7 170.82 279.64 168.04 279.18 166.92 278.99 166.07 278.75 165.55 278.42Z" fill="#A06654"/></g><g><path d="M167.66 290.87C171.34 292.94 175.59 294.38 179.75 295.07 185.15 295.95 192.87 296.95 196.73 292.21 198.07 290.57 199.05 288.76 199.56 286.73 200.11 284.56 200.06 281.93 198.06 280.86 194.9 279.18 191.22 279.07 187.72 278.86 184.33 278.65 181.11 277.25 177.68 276.94 174.12 276.62 168.39 279.73 168.03 280.68 167.69 281.63 167.66 290.87 167.66 290.87Z" fill="#A06654"/></g></g></svg>