<svg width="20.1" height="20.53" viewBox="0 0 20.1 20.53" xmlns="http://www.w3.org/2000/svg" xmlns:xlink="http://www.w3.org/1999/xlink" xml:space="preserve" overflow="hidden"><defs></defs><g><g><g><g><path d="M6.89 13.84C6.75 13.84 6.61 13.85 6.46 13.83 6.37 13.82 6.3 13.79 6.22 13.74 6.2 13.72 6.01 13.53 6.01 13.48 6.06 13.44 6.11 13.39 6.15 13.33 6.17 13.31 6.15 13.28 6.12 13.3 5.89 13.5 5.64 13.55 5.35 13.51 5.04 13.46 4.7 13.1 4.9 12.78 4.9 12.78 4.9 12.77 4.9 12.78 4.77 12.9 4.74 13.07 4.78 13.22 4.77 13.22 4.77 13.23 4.77 13.23 4.71 13.38 4.62 13.53 4.5 13.64 4.47 13.66 4.45 13.68 4.42 13.7 4.43 13.75 4.44 13.81 4.44 13.86 4.46 13.85 4.49 13.83 4.52 13.81 4.81 14.48 4.96 15.18 5.08 15.89 5.21 16.64 5.23 17.38 5.23 18.14 5.1 18.34 4.89 18.47 4.75 18.67 4.58 18.89 4.44 19.13 4.4 19.41 4.37 19.59 4.3 19.8 4.5 19.91 4.67 20 4.85 20.04 5.02 19.98 5.22 20.15 5.66 20.11 5.85 20.04 6.18 19.92 6.26 19.61 6.3 19.29 6.32 19.11 6.29 18.91 6.27 18.73 6.24 18.5 6.26 18.28 6.26 18.05 6.39 17.43 6.43 16.79 6.44 16.17 6.44 15.74 6.44 15.3 6.4 14.88 6.36 14.54 6.28 14.23 6.2 13.9 6.21 13.91 6.22 13.91 6.23 13.92 6.45 14.02 6.67 13.99 6.89 13.91 6.92 13.9 6.93 13.84 6.89 13.84Z" fill="#AF705A"/><path d="M5.97 19.8C5.85 19.92 5.63 19.91 5.48 19.91 5.3 19.91 5.11 19.89 5.05 19.7 4.99 19.54 5.04 19.28 5.07 19.13 5.08 19.08 5.11 19.04 5.12 19 5.06 19.1 5.01 19.19 4.96 19.29 4.95 19.34 4.94 19.39 4.92 19.44 4.87 19.59 4.87 19.73 4.93 19.87 4.73 19.86 4.48 19.81 4.51 19.59 4.53 19.38 4.61 19.16 4.72 18.97 4.84 18.78 4.98 18.62 5.12 18.45 5.11 18.49 5.11 18.53 5.13 18.57 5.21 18.73 5.38 18.77 5.54 18.81 5.7 18.85 5.94 18.87 6.07 18.75 6.09 18.73 6.1 18.72 6.12 18.7 6.13 18.76 6.13 18.83 6.14 18.89 6.18 19.16 6.19 19.58 5.97 19.8Z" fill="#EBDCCD"/><path d="M4.57 19.67C4.69 19.27 4.87 18.89 5.16 18.6 5.15 18.59 5.14 18.58 5.14 18.57 5.12 18.53 5.12 18.49 5.13 18.45 4.99 18.62 4.85 18.78 4.73 18.97 4.62 19.15 4.54 19.37 4.52 19.59 4.51 19.65 4.53 19.7 4.56 19.74 4.56 19.71 4.56 19.69 4.57 19.67Z" fill="#CAB5A3"/><path d="M5.46 18.78C5.43 18.77 5.4 18.76 5.37 18.75 5.19 19 5.08 19.3 5.02 19.61 5.03 19.64 5.03 19.67 5.04 19.7 5.1 19.86 5.24 19.9 5.39 19.91 5.48 19.54 5.51 19.14 5.46 18.78Z" fill="#CAB5A3"/><path d="M5.73 19.9C5.77 19.55 5.77 19.19 5.73 18.83 5.72 18.83 5.7 18.83 5.69 18.83 5.72 19.18 5.7 19.55 5.62 19.91 5.65 19.91 5.69 19.9 5.73 19.9Z" fill="#CAB5A3"/><path d="M6.15 18.88C6.14 18.82 6.14 18.75 6.13 18.69 6.12 18.71 6.1 18.72 6.08 18.74 5.94 18.86 5.71 18.85 5.55 18.8 5.5 18.79 5.45 18.77 5.41 18.76 5.49 18.81 5.58 18.86 5.67 18.92 5.79 18.99 5.8 19.17 5.8 19.29 5.8 19.49 5.78 19.7 5.72 19.91 5.82 19.9 5.91 19.87 5.98 19.81 6.19 19.58 6.18 19.16 6.15 18.88Z" fill="#A98F79"/><path d="M4.92 19.44C4.93 19.41 4.94 19.38 4.94 19.35 4.86 19.51 4.79 19.67 4.75 19.84 4.81 19.85 4.87 19.86 4.93 19.86 4.87 19.72 4.87 19.58 4.92 19.44Z" fill="#A98F79"/><path d="M6.24 14.84C6.26 15.27 6.25 15.71 6.24 16.14 6.24 16.63 6.2 17.12 6.15 17.61 6.16 17.62 6.16 17.63 6.16 17.65 6.14 17.88 6.16 18.11 6.14 18.34 6.13 18.46 6.11 18.56 6.01 18.64 5.94 18.7 5.85 18.71 5.75 18.7 5.73 18.7 5.71 18.7 5.69 18.7 5.54 18.7 5.27 18.66 5.24 18.47 5.21 18.34 5.26 18.22 5.31 18.1 5.42 17.39 5.31 16.63 5.19 15.93 5.06 15.19 4.87 14.48 4.53 13.81 4.68 13.7 4.8 13.52 4.82 13.35 4.88 13.46 4.97 13.56 5.09 13.62 5.39 13.75 5.74 13.71 5.99 13.51 5.95 13.65 6.03 13.8 6.15 13.88 6.19 14.2 6.23 14.51 6.24 14.84Z" fill="#FFD4C5"/><path d="M6.24 14.84C6.23 14.52 6.19 14.2 6.15 13.88 6.03 13.79 5.95 13.65 5.99 13.51 5.74 13.7 5.39 13.75 5.09 13.62 4.97 13.56 4.87 13.46 4.82 13.35 4.8 13.52 4.68 13.7 4.53 13.81 4.81 14.35 4.99 14.93 5.12 15.52 5.12 15.52 5.22 16.13 5.22 16.13 5.27 16.07 5.26 15.89 5.36 15.87 5.97 15.76 5.94 16.62 5.96 17.18 5.97 17.67 5.95 18.2 5.85 18.69 5.92 18.69 5.98 18.67 6.03 18.63 6.13 18.55 6.15 18.45 6.16 18.33 6.18 18.1 6.16 17.87 6.18 17.64 6.18 17.62 6.18 17.61 6.17 17.6 6.22 17.12 6.26 16.63 6.26 16.13 6.25 15.7 6.26 15.27 6.24 14.84Z" fill="#FFB098"/><path d="M5.45 15.37C5.46 15.37 5.48 15.38 5.48 15.39 5.57 15.73 6.02 15.7 6.25 15.92 6.26 15.56 6.26 15.2 6.24 14.84 6.23 14.52 6.19 14.2 6.15 13.88 6.03 13.79 5.95 13.65 5.99 13.51 5.74 13.7 5.39 13.75 5.09 13.62 4.97 13.56 4.87 13.46 4.82 13.35 4.8 13.52 4.68 13.7 4.53 13.81 4.77 14.29 4.94 14.78 5.06 15.29 5.16 15.37 5.3 15.4 5.45 15.37Z" fill="#D6735C"/></g><g><path d="M13.76 11.98C13.62 11.98 13.48 11.99 13.35 11.97 13.26 11.96 13.19 11.93 13.12 11.89 13.1 11.88 12.92 11.7 12.92 11.64 12.97 11.6 13.01 11.55 13.05 11.5 13.06 11.48 13.05 11.45 13.02 11.47 12.8 11.66 12.56 11.7 12.27 11.66 11.96 11.62 11.63 11.28 11.83 10.98 11.83 10.98 11.83 10.97 11.83 10.98 11.71 11.1 11.68 11.25 11.71 11.39 11.7 11.39 11.7 11.4 11.7 11.4 11.64 11.54 11.56 11.68 11.44 11.79 11.29 11.92 11.06 12.01 10.88 11.92 10.88 11.92 10.87 11.92 10.88 11.92 11.04 12.12 11.28 12.09 11.47 11.96 11.75 12.58 11.9 13.24 12.01 13.91 12.13 14.61 12.16 15.31 12.16 16.02 12.03 16.21 11.83 16.33 11.69 16.51 11.53 16.72 11.39 16.95 11.35 17.21 11.32 17.38 11.26 17.57 11.45 17.67 11.62 17.76 11.79 17.8 11.95 17.73 12.14 17.89 12.57 17.86 12.76 17.78 13.07 17.67 13.16 17.38 13.2 17.08 13.22 16.91 13.19 16.73 13.17 16.56 13.14 16.34 13.16 16.14 13.16 15.92 13.28 15.34 13.33 14.74 13.33 14.16 13.33 13.76 13.34 13.35 13.29 12.95 13.25 12.64 13.18 12.34 13.09 12.03 13.1 12.03 13.11 12.04 13.12 12.05 13.33 12.14 13.55 12.12 13.76 12.04 13.79 12.04 13.8 11.98 13.76 11.98Z" fill="#AF705A"/><path d="M12.87 17.57C12.75 17.68 12.54 17.68 12.39 17.68 12.22 17.68 12.04 17.66 11.97 17.48 11.91 17.33 11.96 17.09 11.99 16.94 12.01 16.87 12.06 16.82 12.03 16.76 12.03 16.75 12.02 16.76 12.02 16.77 12.03 16.81 11.94 16.95 11.92 16.99 11.88 17.07 11.88 17.15 11.85 17.23 11.8 17.37 11.8 17.5 11.86 17.63 11.67 17.62 11.43 17.58 11.45 17.37 11.48 17.17 11.55 16.96 11.66 16.79 11.77 16.61 11.91 16.46 12.05 16.3 12.04 16.34 12.04 16.38 12.06 16.41 12.13 16.55 12.3 16.6 12.46 16.64 12.62 16.68 12.85 16.69 12.98 16.58 13 16.56 13.01 16.55 13.03 16.53 13.04 16.59 13.04 16.65 13.05 16.71 13.07 16.97 13.09 17.37 12.87 17.57Z" fill="#EBDCCD"/><path d="M12.87 17.57C12.75 17.68 12.54 17.68 12.39 17.68 12.22 17.68 12.04 17.66 11.97 17.48 11.91 17.33 11.96 17.09 11.99 16.94 12.01 16.87 12.06 16.82 12.03 16.76 12.03 16.75 12.02 16.76 12.02 16.77 12.03 16.81 11.94 16.95 11.92 16.99 11.88 17.07 11.88 17.15 11.85 17.23 11.8 17.37 11.8 17.5 11.86 17.63 11.67 17.62 11.43 17.58 11.45 17.37 11.48 17.17 11.55 16.96 11.66 16.79 11.77 16.61 11.91 16.46 12.05 16.3 12.04 16.34 12.04 16.38 12.06 16.41 12.13 16.55 12.3 16.6 12.46 16.64 12.62 16.68 12.85 16.69 12.98 16.58 13 16.56 13.01 16.55 13.03 16.53 13.04 16.59 13.04 16.65 13.05 16.71 13.07 16.97 13.09 17.37 12.87 17.57Z" fill="#CAB5A3" opacity="0.6"/><path d="M12.32 17.21C12.36 17.02 12.4 16.82 12.46 16.64 12.42 16.63 12.39 16.62 12.36 16.61 12.36 16.62 12.35 16.62 12.35 16.63 12.19 16.84 12.08 17.06 12.01 17.3 12 17.35 11.99 17.4 11.97 17.45 11.97 17.46 11.98 17.47 11.98 17.49 12.03 17.61 12.13 17.66 12.25 17.68 12.26 17.52 12.29 17.37 12.32 17.21Z" fill="#CAB5A3" opacity="0.6"/><path d="M11.73 17.55C11.75 17.44 11.77 17.32 11.81 17.21 11.88 16.95 11.97 16.7 12.13 16.49 12.11 16.47 12.09 16.44 12.07 16.41 11.87 16.64 11.71 16.88 11.6 17.16 11.56 17.27 11.52 17.37 11.49 17.49 11.53 17.56 11.62 17.59 11.72 17.61 11.72 17.59 11.72 17.57 11.73 17.55Z" fill="#CAB5A3"/><path d="M11.93 16.99C11.94 16.97 11.96 16.94 11.98 16.9 11.82 17.11 11.74 17.36 11.7 17.61 11.76 17.62 11.82 17.63 11.87 17.63 11.81 17.5 11.81 17.37 11.86 17.23 11.88 17.15 11.89 17.07 11.93 16.99Z" fill="#A98F79"/><path d="M13.04 16.71C13.03 16.65 13.02 16.59 13.02 16.53 13.01 16.54 12.99 16.56 12.97 16.58 12.84 16.69 12.61 16.68 12.45 16.64 12.34 16.61 12.22 16.58 12.13 16.51 12.2 16.59 12.3 16.65 12.38 16.66 12.5 16.69 12.62 16.7 12.74 16.7 12.77 16.7 12.79 16.72 12.79 16.75 12.81 17.07 12.75 17.38 12.62 17.67 12.71 17.66 12.8 17.63 12.86 17.58 13.09 17.37 13.07 16.97 13.04 16.71Z" fill="#A98F79"/><path d="M13.14 12.92C13.16 13.33 13.15 13.73 13.14 14.14 13.14 14.91 13.03 15.66 12.95 16.42 12.85 16.56 12.57 16.48 12.43 16.44 12.34 16.42 12.19 16.38 12.19 16.26 12.19 16.2 12.2 16.15 12.21 16.09 12.21 16.09 12.21 16.08 12.22 16.08 12.35 15.38 12.24 14.63 12.12 13.94 12 13.25 11.81 12.58 11.48 11.95 11.63 11.85 11.74 11.68 11.76 11.51 11.82 11.62 11.91 11.71 12.03 11.76 12.32 11.89 12.66 11.84 12.9 11.66 12.87 11.79 12.94 11.93 13.06 12.01 13.08 12.32 13.12 12.62 13.14 12.92Z" fill="#D6735C"/><path d="M12 12.11C12.01 12.1 12.02 12.09 12.03 12.1 12.2 12.2 12.32 12.14 12.48 12.09 12.58 12.05 12.68 12.04 12.78 12.08 12.9 12.12 12.99 12.2 13.08 12.29 13.07 12.2 13.06 12.12 13.05 12.03 12.93 11.95 12.86 11.81 12.89 11.68 12.65 11.86 12.31 11.91 12.02 11.78 11.9 11.73 11.81 11.64 11.75 11.53 11.73 11.69 11.61 11.86 11.47 11.97 11.55 12.12 11.62 12.27 11.68 12.43 11.82 12.35 11.93 12.24 12 12.11Z" fill="#D6735C"/></g><g><path d="M20.09 7.07C20.12 6.81 20.02 6.41 19.75 6.32 19.8 6.27 19.82 6.2 19.81 6.11 19.8 5.95 19.64 5.85 19.51 5.78 20 5.5 19.65 4.75 19.16 4.64 19.21 4.48 19.17 4.24 19.01 4.23 19.1 4.03 19.12 3.8 18.99 3.61 18.86 3.42 18.64 3.28 18.43 3.38 18.44 3.19 18.32 2.97 18.12 2.96 18.24 2.76 18.21 2.45 18.02 2.3 17.89 2.2 17.73 2.16 17.57 2.15 17.52 2.15 17.44 2.15 17.37 2.17 17.42 1.94 17.2 1.75 16.98 1.81 17.04 1.52 16.93 1.22 16.62 1.11 16.35 1.02 16.08 1.21 16.01 1.46 15.87 1.36 15.66 1.31 15.53 1.41 15.48 1.22 15.31 1.15 15.11 1.11 14.96 1.09 14.82 1.13 14.71 1.22 14.69 0.93 14.31 0.96 14.11 1.11 14.11 0.72 13.96 0.35 13.5 0.33 13.13 0.31 12.77 0.45 12.61 0.76 12.59 0.65 12.54 0.55 12.43 0.51 12.21 0.42 12.02 0.55 11.89 0.72 11.85 0.43 11.63 0.26 11.3 0.33 10.96 0.41 10.89 0.68 10.84 0.98 10.69 0.94 10.57 1.05 10.52 1.19 10.36 0.89 9.81 0.84 9.53 0.97 9.32 1.07 9.17 1.33 9.1 1.57 8.96 1.47 8.78 1.51 8.63 1.56 8.47 1.62 8.27 1.77 8.22 1.94 8.17 2.09 8.19 2.24 8.23 2.38 7.99 2.35 7.75 2.48 7.59 2.67 7.39 2.89 7.37 3.17 7.42 3.45 7.24 3.39 7.08 3.4 6.92 3.53 6.86 3.59 6.8 3.67 6.76 3.75 6.63 3.67 6.46 3.73 6.34 3.89 6.14 4.18 6.21 4.46 6.32 4.76 6.05 4.76 5.83 4.92 5.72 5.16 5.35 4.94 4.75 5.42 4.53 5.68 4.34 5.91 4.17 6.27 4.28 6.57 4.33 6.71 4.51 6.86 4.42 7 4.37 7.08 4.38 7.18 4.4 7.27 4.14 7.33 3.94 7.6 3.99 7.85 3.76 7.63 3.4 7.54 3.11 7.72 2.78 7.92 2.88 8.29 3.13 8.48 2.65 8.47 2.29 8.81 2.22 9.31 2.18 9.56 2.35 9.77 2.56 9.89 2.72 9.99 2.98 10.1 3.19 10.08 3.06 10.24 2.94 10.48 3.1 10.57 2.7 10.76 2.42 11.32 2.6 11.73 2.71 12 2.98 12.22 3.25 12.31 3.39 12.36 3.59 12.35 3.73 12.27 3.69 12.38 3.66 12.49 3.75 12.57 3.86 12.67 4.03 12.66 4.17 12.63 4.14 12.69 4.13 12.75 4.13 12.82 4.14 13.03 4.28 13.22 4.47 13.3 4.35 13.4 4.25 13.5 4.17 13.67 4.09 13.85 4.11 14.04 4.18 14.22 4.25 14.41 4.45 14.59 4.64 14.65 4.83 14.7 4.96 14.67 5.09 14.56 5.04 14.89 5.29 15.17 5.63 15.11 5.61 15.19 5.63 15.28 5.68 15.36 5.89 15.7 6.37 15.69 6.67 15.49 6.83 15.38 6.95 15.23 7.05 15.07 7.09 15 7.1 14.9 7.11 15.02 7.12 15.09 7.12 15.16 7.16 15.23 7.3 15.45 7.66 15.47 7.84 15.29 7.84 15.4 7.82 15.51 7.85 15.63 7.87 15.72 7.92 15.79 7.97 15.87 8.08 16.03 8.26 16.13 8.46 16.15 8.77 16.19 9.07 16.04 9.24 15.79 9.28 15.91 9.37 16.01 9.55 16.08 9.72 16.14 9.92 16.13 10.09 16.05 10.17 16.01 10.3 15.94 10.38 15.86 10.5 16.13 10.76 16.2 11.06 16.22 11.35 16.24 11.54 16.02 11.57 15.77 11.65 15.84 11.77 15.84 11.88 15.79 11.98 15.74 12.02 15.63 12.03 15.52 12.05 15.54 12.08 15.56 12.11 15.59 12.21 15.66 12.44 15.73 12.57 15.69 12.7 15.65 12.77 15.56 12.81 15.44 12.84 15.37 12.85 15.29 12.86 15.22 12.86 15.19 12.87 15.15 12.87 15.12 12.88 15.05 12.86 15.08 12.9 15.12 13.09 15.31 13.45 15.27 13.66 15.14 13.83 15.02 13.89 14.78 13.87 14.57 14.02 14.61 14.2 14.53 14.3 14.39 14.54 14.62 15.05 14.7 15.19 14.25 15.23 14.11 15.22 13.96 15.2 13.82 15.21 13.91 15.32 13.93 15.4 13.91 15.55 13.88 15.68 13.68 15.71 13.5 15.85 13.58 16.03 13.61 16.17 13.61 16.57 13.61 16.74 13.21 16.71 12.87 16.98 13.04 17.42 12.75 17.34 12.48 17.5 12.57 17.74 12.58 17.9 12.49 18.11 12.37 18.24 12.09 18.28 11.86 18.3 11.76 18.29 11.68 18.27 11.59 18.27 11.57 18.27 11.54 18.26 11.51 18.45 11.6 18.72 11.51 18.83 11.35 18.95 11.16 19.02 10.81 18.88 10.6 19.12 10.56 19.33 10.37 19.42 10.11 19.46 10 19.47 9.66 19.38 9.48 19.5 9.42 19.59 9.27 19.65 9.18 19.76 8.98 19.8 8.71 19.64 8.54 19.81 8.44 19.92 8.33 19.93 8.1 19.94 7.92 19.82 7.76 19.68 7.64 19.89 7.54 20.07 7.23 20.09 7.07Z" fill="#96816F"/><path d="M19.74 7.46C19.69 7.51 19.63 7.55 19.58 7.6 19.59 7.62 19.61 7.64 19.62 7.67 19.63 7.67 19.63 7.67 19.64 7.66 19.69 7.73 19.73 7.8 19.77 7.88 19.88 8.15 19.73 8.33 19.52 8.47 19.61 8.59 19.66 8.74 19.64 8.88 19.63 9.1 19.47 9.36 19.32 9.38 19.3 9.37 19.28 9.36 19.26 9.36 19.33 9.46 19.35 9.59 19.34 9.72 19.34 9.75 19.35 9.77 19.35 9.77 19.37 9.91 19.35 10.03 19.29 10.16 19.18 10.39 18.95 10.47 18.72 10.46 18.92 10.73 18.96 11.07 18.68 11.32 18.58 11.41 18.27 11.51 18.14 11.4 18.14 11.4 18.14 11.4 18.14 11.4 18.16 11.42 18.18 11.44 18.2 11.45 18.21 11.52 18.24 11.66 18.24 11.69 18.25 11.88 18.13 12.08 18.01 12.21 17.97 12.26 17.91 12.29 17.86 12.32 17.6 12.45 17.21 12.36 17.17 12.09 17.14 12.21 17.17 12.3 17.23 12.37 17.23 12.37 17.23 12.37 17.23 12.37 17.25 12.51 17.24 12.62 17.13 12.73 17 12.86 16.8 12.87 16.67 12.74 16.65 12.72 16.63 12.74 16.62 12.76 16.65 13 16.63 13.27 16.43 13.41 16.21 13.55 15.84 13.55 15.66 13.35 15.65 13.39 15.64 13.43 15.62 13.47 15.57 13.71 15.39 14.01 15.18 13.75 15.17 13.73 15.14 13.76 15.15 13.77 15.15 13.8 15.15 13.84 15.15 13.88 15.17 14.13 15.1 14.37 14.81 14.42 14.68 14.44 14.38 14.39 14.29 14.25 14.25 14.29 14.21 14.32 14.16 14.35L14.16 14.35C14.15 14.35 14.15 14.35 14.14 14.36 14.06 14.4 13.97 14.41 13.9 14.39 13.87 14.39 13.84 14.37 13.81 14.36 13.83 14.53 13.82 14.7 13.72 14.86 13.68 14.92 13.63 14.98 13.56 15.02 13.55 15.03 13.54 15.03 13.53 15.04 13.51 15.05 13.49 15.06 13.47 15.07 13.47 15.07 13.47 15.07 13.47 15.07 13.46 15.07 13.46 15.08 13.45 15.08 13.44 15.08 13.43 15.09 13.42 15.09 13.42 15.09 13.42 15.09 13.42 15.09 13.41 15.09 13.4 15.09 13.39 15.1 13.22 15.14 13.02 15.1 12.88 15.01 12.87 15 12.85 15.01 12.85 15.03 12.8 15.24 12.78 15.56 12.51 15.57 12.38 15.58 12.27 15.56 12.18 15.5 12.13 15.48 12.08 15.44 12.05 15.4 12.05 15.4 12.04 15.4 12.04 15.39 12.04 15.39 12.04 15.39 12.04 15.39 12.02 15.37 12.01 15.35 12 15.33 12 15.41 11.98 15.49 11.94 15.55 11.94 15.56 11.94 15.56 11.94 15.56 11.91 15.69 11.76 15.76 11.66 15.69 11.61 15.68 11.57 15.65 11.54 15.62 11.53 15.63 11.52 15.64 11.52 15.65 11.5 15.94 11.32 16.09 11.04 16.08 10.82 16.07 10.48 16.01 10.47 15.73 10.47 15.67 10.4 15.7 10.38 15.73 10.35 15.8 10.15 15.87 10.08 15.9 9.95 15.96 9.81 15.95 9.68 15.92 9.4 15.86 9.35 15.68 9.37 15.48 9.36 15.39 9.37 15.29 9.38 15.19 9.3 15.34 9.24 15.5 9.25 15.65 9.1 15.87 8.84 15.98 8.57 15.99 8.42 15.99 8.28 15.93 8.16 15.84 7.93 15.66 7.93 15.43 7.95 15.16 7.95 15.12 7.91 15.1 7.88 15.13 7.77 15.26 7.61 15.28 7.46 15.25 7.26 15.22 7.21 15.08 7.19 14.89 7.19 14.87 7.16 14.87 7.15 14.89 6.94 15.2 6.63 15.51 6.22 15.44 6.18 15.43 6.15 15.43 6.11 15.41 5.99 15.41 5.88 15.39 5.82 15.32 5.69 15.19 5.75 14.97 5.81 14.81 5.76 14.88 5.71 14.95 5.69 15.03 5.38 15.04 5.07 14.79 5.23 14.46 5.25 14.43 5.23 14.37 5.18 14.4 4.86 14.6 4.5 14.45 4.32 14.13 4.18 13.88 4.29 13.36 4.63 13.32 4.66 13.32 4.7 13.27 4.7 13.23 4.54 13.21 4.42 13.13 4.34 13 4.31 12.97 4.29 12.94 4.27 12.9 4.22 12.79 4.24 12.67 4.29 12.56 4.3 12.53 4.3 12.51 4.31 12.49 4.32 12.46 4.33 12.44 4.33 12.41 4.28 12.46 4.24 12.51 4.2 12.57 4.11 12.58 4.02 12.59 3.93 12.58 3.71 12.56 3.76 12.32 3.82 12.17 3.84 12.14 3.79 12.11 3.77 12.14 3.65 12.29 3.32 12.21 3.18 12.14 2.97 12.05 2.8 11.86 2.68 11.67 2.45 11.29 2.85 10.7 3.24 10.61 3.28 10.6 3.29 10.53 3.24 10.52 2.92 10.5 3.15 10.16 3.29 10.05 3.33 10.04 3.33 9.98 3.28 10 3.1 10.04 2.9 9.91 2.74 9.83 2.53 9.73 2.36 9.58 2.33 9.35 2.27 8.83 2.8 8.51 3.24 8.55 3.26 8.55 3.28 8.51 3.26 8.5 2.9 8.31 2.85 7.87 3.27 7.72 3.54 7.62 3.88 7.79 4.05 8 4.05 8 4.05 8 4.05 8.01 4.05 8.01 4.06 8.02 4.06 8.02 4.1 8.05 4.16 7.99 4.14 7.95 4 7.71 4.2 7.4 4.48 7.39 4.53 7.39 4.56 7.33 4.54 7.29 4.5 7.19 4.47 7.09 4.56 6.99 4.57 6.98 4.58 6.96 4.58 6.95 4.59 6.89 4.54 6.81 4.51 6.76 4.41 6.59 4.34 6.46 4.36 6.26 4.37 6.07 4.49 5.87 4.61 5.73 4.8 5.49 5.4 5.04 5.71 5.29 5.74 5.31 5.78 5.28 5.79 5.25 5.87 4.99 6.1 4.83 6.38 4.87 6.42 4.88 6.46 4.83 6.44 4.79 6.37 4.6 6.29 4.42 6.3 4.22 6.3 4.1 6.37 4 6.45 3.91 6.53 3.82 6.63 3.82 6.73 3.86 6.69 3.97 6.68 4.09 6.71 4.19 6.71 4.2 6.72 4.21 6.73 4.21L6.73 4.21C6.73 4.21 6.73 4.21 6.73 4.21 6.74 4.21 6.75 4.21 6.75 4.2 6.75 4.2 6.76 4.19 6.76 4.18 6.78 4.09 6.8 4.01 6.82 3.92 6.82 3.92 6.82 3.92 6.82 3.92 6.86 3.95 6.9 3.89 6.88 3.86 6.87 3.85 6.86 3.84 6.86 3.83 6.88 3.77 6.92 3.72 6.96 3.66 7.1 3.49 7.3 3.55 7.48 3.61 7.53 3.63 7.58 3.55 7.56 3.51 7.33 3.05 7.76 2.34 8.31 2.55 8.37 2.57 8.4 2.49 8.39 2.44 8.3 2.16 8.29 1.93 8.55 1.75 8.58 1.73 8.61 1.71 8.64 1.7 8.65 1.69 8.65 1.68 8.67 1.68 8.79 1.58 8.98 1.58 9.11 1.68 9.17 1.72 9.21 1.8 9.23 1.88 9.25 1.79 9.22 1.7 9.16 1.63 9.2 1.52 9.25 1.41 9.25 1.4 9.35 1.23 9.52 1.05 9.72 1.03 9.92 1.01 10.47 1.07 10.51 1.32 10.52 1.36 10.57 1.34 10.58 1.31 10.58 1.19 10.68 0.97 10.86 1.08 10.88 1.09 10.89 1.09 10.9 1.08 10.89 0.97 10.93 0.85 10.98 0.75 11.02 0.62 11.08 0.5 11.22 0.44 11.24 0.43 11.26 0.42 11.28 0.42 11.32 0.4 11.35 0.39 11.39 0.4 11.48 0.4 11.57 0.41 11.65 0.45 11.79 0.52 11.81 0.7 11.82 0.83 11.82 0.88 11.88 0.87 11.9 0.84 12 0.68 12.15 0.52 12.36 0.57 12.55 0.61 12.55 0.85 12.55 1 12.55 1 12.55 1.01 12.55 1.01 12.6 0.88 12.7 0.75 12.76 0.67 12.9 0.47 13.14 0.37 13.38 0.4 13.45 0.41 13.51 0.42 13.57 0.44 13.87 0.49 13.99 0.73 14.02 1 14.05 1.09 14.07 1.19 14.08 1.28 14.09 1.28 14.1 1.27 14.11 1.25 14.21 1.05 14.59 1 14.66 1.24 14.66 1.24 14.66 1.24 14.66 1.25 14.62 1.29 14.58 1.33 14.54 1.38 14.53 1.4 14.53 1.41 14.54 1.42 14.64 1.24 14.94 1.18 15.13 1.22 15.29 1.25 15.45 1.35 15.54 1.48 15.63 1.32 15.91 1.45 15.99 1.54 16 1.54 16 1.55 16 1.55 16.03 1.48 16.06 1.42 16.1 1.37 16.21 1.19 16.44 1.13 16.65 1.24 16.88 1.35 16.9 1.64 16.84 1.86 16.83 1.9 16.86 1.94 16.9 1.91 17.13 1.77 17.25 1.98 17.26 2.17 17.2 2.19 17.14 2.21 17.1 2.25 17.18 2.23 17.27 2.23 17.35 2.22 17.46 2.22 17.58 2.22 17.68 2.26 17.71 2.27 17.73 2.28 17.76 2.28 18.04 2.37 18.15 2.7 18.02 2.96 18.01 2.98 18.01 3.01 18.04 3.01 18.24 2.98 18.38 3.23 18.34 3.41 18.33 3.44 18.35 3.46 18.38 3.44 18.6 3.31 18.79 3.48 18.89 3.66 19 3.85 18.95 4.1 18.84 4.27 18.83 4.28 18.83 4.29 18.83 4.3 18.89 4.27 18.97 4.27 19.02 4.3 19.1 4.36 19.11 4.47 19.09 4.56 19.09 4.56 19.09 4.56 19.09 4.56 19.09 4.58 19.09 4.6 19.09 4.61 19.03 4.61 18.96 4.61 18.89 4.63 18.89 4.63 18.89 4.63 18.88 4.63 18.92 4.63 18.98 4.63 19 4.63 19.05 4.63 19.11 4.66 19.15 4.69 19.2 4.72 19.24 4.75 19.28 4.79 19.61 5.01 19.81 5.52 19.41 5.73 19.39 5.74 19.38 5.78 19.4 5.79 19.52 5.85 19.95 6.15 19.62 6.28 19.6 6.29 19.58 6.32 19.58 6.34 19.67 6.35 19.77 6.41 19.83 6.48 19.86 6.52 19.89 6.56 19.91 6.61 19.96 6.71 19.98 6.82 19.99 6.91 20.02 7.09 19.9 7.32 19.74 7.46Z" fill="#FFFFFF"/><path d="M7.86 2.9C8.09 2.94 8.29 3.08 8.47 3.23 8.37 2.78 8.85 2.42 9.28 2.38 9.3 2.38 9.32 2.4 9.32 2.42 9.29 2.64 9.4 2.8 9.56 2.91 9.4 2.57 9.56 2.23 9.92 2.09 9.81 2.01 9.71 1.9 9.76 1.76 9.81 1.62 9.94 1.52 10.08 1.47 10.23 1.41 10.42 1.4 10.56 1.5 10.64 1.56 10.68 1.65 10.7 1.74 10.8 1.51 10.99 1.32 11.2 1.45 11.17 1.17 11.56 1.07 11.79 1.25 11.88 0.92 12.27 0.95 12.46 1.2 12.79 0.58 13.98 0.64 13.86 1.44 14.04 1.37 14.22 1.43 14.38 1.55 14.39 1.56 14.41 1.58 14.4 1.59 14.38 1.64 14.36 1.7 14.35 1.75 14.75 1.35 15.5 1.48 15.69 2.04 15.75 1.94 15.76 1.83 15.74 1.72 15.74 1.69 15.76 1.66 15.79 1.67 15.9 1.72 16 1.77 16.08 1.85 16.15 1.69 16.31 1.49 16.49 1.64 16.65 1.77 16.64 1.98 16.55 2.14 16.69 2.12 16.79 2.21 16.84 2.38 16.85 2.4 16.84 2.41 16.82 2.42 16.7 2.51 16.64 2.61 16.6 2.74 17.06 2.45 18.04 2.66 17.77 3.25 18.05 3.15 18.24 3.47 18.21 3.76 18.38 3.62 18.6 3.55 18.79 3.73 18.87 3.81 18.93 3.89 18.96 3.99 18.98 3.87 18.97 3.75 18.91 3.64 18.81 3.46 18.62 3.29 18.4 3.42 18.38 3.44 18.35 3.41 18.36 3.39 18.41 3.21 18.27 2.96 18.06 2.99 18.03 2.99 18.03 2.96 18.04 2.94 18.17 2.69 18.06 2.35 17.78 2.26 17.75 2.25 17.73 2.24 17.7 2.24 17.6 2.2 17.49 2.2 17.37 2.2 17.3 2.2 17.2 2.2 17.12 2.23 17.16 2.2 17.22 2.17 17.28 2.15 17.27 1.96 17.15 1.75 16.92 1.89 16.88 1.91 16.85 1.88 16.86 1.84 16.92 1.62 16.9 1.33 16.67 1.22 16.46 1.11 16.23 1.17 16.12 1.35 16.08 1.4 16.04 1.47 16.02 1.53 16.02 1.53 16.01 1.53 16.01 1.52 15.93 1.43 15.64 1.3 15.56 1.46 15.47 1.32 15.31 1.23 15.15 1.2 14.96 1.16 14.66 1.22 14.56 1.4 14.55 1.39 14.54 1.37 14.56 1.36 14.6 1.31 14.63 1.27 14.68 1.23 14.68 1.23 14.68 1.23 14.68 1.22 14.59 1 14.2 1.06 14.1 1.26 14.09 1.28 14.08 1.28 14.07 1.29 14.06 1.19 14.04 1.1 14.01 1.01 13.98 0.73 13.86 0.5 13.56 0.45 13.5 0.42 13.44 0.4 13.37 0.4 13.13 0.38 12.89 0.48 12.75 0.67 12.69 0.75 12.59 0.88 12.54 1.01 12.54 1.01 12.54 1 12.54 1 12.54 0.86 12.54 0.61 12.35 0.57 12.15 0.53 12 0.69 11.9 0.85 11.88 0.88 11.82 0.89 11.82 0.84 11.81 0.7 11.79 0.52 11.65 0.46 11.57 0.42 11.48 0.41 11.39 0.41 11.35 0.4 11.31 0.41 11.28 0.43 11.26 0.44 11.24 0.44 11.22 0.45 11.08 0.51 11.02 0.63 10.98 0.76 10.93 0.86 10.89 0.97 10.9 1.09 10.89 1.1 10.87 1.1 10.86 1.09 10.67 0.99 10.58 1.2 10.58 1.32 10.58 1.36 10.52 1.37 10.51 1.33 10.47 1.07 9.92 1.02 9.72 1.04 9.52 1.06 9.35 1.24 9.25 1.41 9.25 1.41 9.2 1.52 9.16 1.64 9.22 1.7 9.25 1.79 9.23 1.88 9.21 1.8 9.17 1.72 9.11 1.67 8.98 1.58 8.8 1.57 8.67 1.67 8.66 1.68 8.65 1.69 8.64 1.7 8.61 1.71 8.58 1.73 8.55 1.75 8.29 1.93 8.3 2.16 8.39 2.44 8.4 2.49 8.37 2.57 8.31 2.55 7.93 2.4 7.62 2.69 7.52 3.03 7.6 2.94 7.71 2.87 7.86 2.9Z" fill="#DDC5AC" opacity="0.3"/><path d="M13.42 2.36C13.39 2.37 13.37 2.34 13.37 2.31 13.4 2.12 13.53 1.95 13.7 1.86 13.41 1.84 13.16 2.02 13.15 2.34 13.15 2.36 13.13 2.38 13.11 2.38 12.96 2.36 12.87 2.45 12.83 2.58 12.82 2.61 12.79 2.61 12.77 2.6 12.34 2.26 11.89 2.6 11.55 2.9 11.53 2.91 11.51 2.91 11.5 2.9 11.28 2.71 10.98 2.73 10.71 2.82 11.02 2.82 11.3 2.97 11.39 3.3 11.4 3.3 11.41 3.31 11.41 3.31 11.71 3.02 12.16 2.9 12.55 3.09 12.57 3.1 12.57 3.12 12.57 3.13 12.48 3.35 12.5 3.57 12.57 3.78 12.58 3.36 12.86 2.95 13.25 2.78 13.47 2.68 13.74 2.61 13.98 2.68 14.18 2.74 14.34 2.86 14.52 2.95 14.38 2.5 13.86 2.25 13.42 2.36Z" fill="#DDC5AC" opacity="0.2"/><path d="M12.13 7C12.13 7.03 12.1 7.04 12.07 7.03 11.82 6.9 11.55 6.9 11.3 7.03 11.28 7.04 11.26 7.04 11.25 7.02 11.1 6.68 10.75 6.61 10.45 6.83 10.15 7.05 10 7.43 10.16 7.78 10.17 7.81 10.15 7.85 10.12 7.84 9.84 7.76 9.56 7.82 9.42 8.1 9.34 8.28 9.31 8.47 9.3 8.66 9.54 8.35 9.94 8.22 10.29 8.48 10.31 8.49 10.32 8.52 10.3 8.54 10.16 8.67 10.17 8.88 10.25 9.09 10.28 9.13 10.3 9.17 10.31 9.22 10.45 8.88 10.84 8.69 11.17 8.55 11.19 8.54 11.22 8.57 11.22 8.59 11.17 9.02 11.39 9.31 11.77 9.47 11.55 8.98 11.76 8.17 12.26 7.95 12.59 7.8 12.97 7.88 13.2 8.11 13.45 7.76 13.95 7.53 14.3 7.81 14.26 7.38 13.98 7.09 13.6 6.96 13.41 6.96 13.22 6.98 13.06 7.03 13.02 7.01 13 6.99 13 6.97 13.04 6.5 12.65 6.35 12.25 6.27 12 6.21 11.74 6.13 11.48 6.12 11.85 6.23 12.08 6.63 12.13 7Z" fill="#DDC5AC" opacity="0.2"/><path d="M19.64 7.66C19.63 7.66 19.63 7.66 19.62 7.67 19.61 7.65 19.59 7.62 19.58 7.6 19.63 7.55 19.69 7.51 19.74 7.46 19.9 7.32 20.02 7.09 20 6.91 19.99 6.82 19.96 6.71 19.92 6.61 19.9 6.57 19.88 6.52 19.84 6.48 19.78 6.41 19.68 6.36 19.59 6.34 19.59 6.32 19.6 6.29 19.63 6.28 19.96 6.15 19.54 5.85 19.41 5.79 19.39 5.78 19.4 5.74 19.42 5.73 19.82 5.52 19.62 5.01 19.29 4.79 19.25 4.75 19.2 4.72 19.16 4.69 19.12 4.66 19.06 4.64 19.01 4.63 18.99 4.63 18.93 4.63 18.89 4.63 18.89 4.63 18.89 4.63 18.9 4.63 18.97 4.61 19.03 4.6 19.1 4.61 19.1 4.6 19.1 4.58 19.1 4.56 19.1 4.56 19.1 4.56 19.1 4.56 19.12 4.47 19.12 4.36 19.03 4.3 18.98 4.27 18.9 4.27 18.84 4.3 18.84 4.29 18.85 4.28 18.85 4.27 18.97 4.1 19.01 3.85 18.9 3.66 18.88 3.62 18.85 3.58 18.82 3.54 18.83 3.61 18.82 3.68 18.81 3.75 18.78 3.99 18.63 4.05 18.47 4 18.59 4.23 18.48 4.52 18.2 4.66 18.08 4.72 17.91 4.76 17.79 4.66 17.74 4.62 17.7 4.57 17.68 4.51 17.61 4.88 17.23 5.09 16.82 5.16 17.01 5.23 17.15 5.37 17.19 5.58 17.19 5.61 17.17 5.63 17.14 5.63 16.52 5.51 15.96 5.94 15.96 6.57 16.2 6.4 16.51 6.43 16.72 6.66 16.74 6.68 16.73 6.73 16.69 6.72 16.38 6.7 16.09 6.87 15.93 7.13 16.18 6.98 16.51 6.96 16.74 7.2 16.87 6.91 17.24 6.91 17.51 7.03 17.54 7.04 17.53 7.08 17.51 7.1 17.07 7.36 16.86 8.06 17 8.57 17.16 8.23 17.68 8.11 17.94 8.42 17.96 8.45 17.95 8.49 17.91 8.49 17.75 8.5 17.62 8.59 17.6 8.76 17.59 8.85 17.58 8.9 17.65 8.95 17.7 8.99 17.74 9.05 17.74 9.11 17.76 9.26 17.65 9.4 17.54 9.48 17.41 9.58 17.22 9.65 17.05 9.6 16.87 9.55 16.78 9.4 16.72 9.24 16.63 9.42 16.45 9.48 16.25 9.37 16.16 9.32 16.08 9.25 16.01 9.17 15.75 9.26 15.46 9.28 15.19 9.26 15.35 9.51 15.43 9.82 15.29 10.1 15.16 10.35 14.93 10.52 14.66 10.61 14.43 10.69 14.13 10.72 13.91 10.58 13.73 10.47 13.66 10.29 13.66 10.09 13.49 10.29 13.21 10.35 13 10.16 12.89 10.58 12.37 10.93 12.05 10.64 12.09 10.87 12.05 11.11 11.87 11.28 11.68 11.45 11.4 11.53 11.15 11.51 10.94 11.49 10.67 11.42 10.58 11.2 10.5 11.02 10.55 10.84 10.65 10.69 10.24 10.96 9.53 11.22 9.4 10.77 9.25 11.03 9 11.25 8.69 11.28 8.37 11.32 8.05 11.17 7.95 10.84 7.83 10.44 8.01 10.04 8.31 9.76 8.55 9.55 8.85 9.45 9.07 9.65 9.06 9.54 9.07 9.44 9.11 9.35 8.93 9.1 8.77 8.75 8.81 8.42 8.85 8.11 9.02 7.87 9.33 7.81 9.55 7.77 9.78 7.69 9.82 7.43 9.85 7.21 9.81 6.96 9.68 6.77 9.67 6.75 9.68 6.73 9.69 6.72 10.1 6.45 10.83 5.56 10.05 5.29 10.03 5.28 10.01 5.24 10.03 5.22 10.24 5.05 10.4 4.75 10.21 4.49 10.06 4.28 9.81 4.24 9.62 4.43 9.6 4.47 9.54 4.43 9.57 4.39 9.9 3.93 9.42 3.37 8.92 3.67 8.9 3.69 8.86 3.66 8.87 3.63 9.09 2.87 8.09 2.69 7.54 2.97 7.48 3.14 7.48 3.34 7.56 3.51 7.58 3.55 7.53 3.63 7.48 3.61 7.3 3.55 7.1 3.49 6.96 3.66 6.91 3.72 6.88 3.77 6.86 3.83 6.87 3.84 6.88 3.85 6.88 3.86 6.9 3.89 6.86 3.95 6.83 3.92 6.83 3.92 6.83 3.92 6.83 3.92 6.8 4.01 6.78 4.09 6.76 4.18 6.76 4.19 6.76 4.19 6.75 4.2 6.75 4.21 6.74 4.21 6.73 4.21 6.73 4.21 6.73 4.21 6.73 4.21L6.73 4.21C6.72 4.21 6.72 4.2 6.71 4.19 6.68 4.09 6.69 3.97 6.72 3.86 6.63 3.82 6.53 3.82 6.45 3.91 6.37 4 6.3 4.1 6.3 4.22 6.29 4.42 6.37 4.6 6.44 4.79 6.46 4.83 6.42 4.88 6.38 4.87 6.1 4.83 5.87 4.99 5.79 5.25 5.78 5.28 5.74 5.31 5.71 5.29 5.4 5.04 4.81 5.49 4.61 5.73 4.49 5.87 4.37 6.07 4.36 6.26 4.34 6.46 4.41 6.6 4.51 6.76 4.54 6.81 4.59 6.89 4.58 6.95 4.58 6.97 4.57 6.98 4.56 6.99 4.47 7.09 4.5 7.19 4.54 7.29 4.56 7.33 4.52 7.39 4.48 7.39 4.2 7.4 4 7.71 4.14 7.95 4.16 7.99 4.1 8.05 4.07 8.01 4.07 8.01 4.07 8 4.06 8 4.06 8 4.06 8 4.06 7.99 3.88 7.79 3.54 7.62 3.27 7.72 2.85 7.87 2.9 8.31 3.26 8.49 3.28 8.5 3.26 8.54 3.24 8.54 2.8 8.51 2.27 8.83 2.34 9.35 2.37 9.59 2.54 9.73 2.75 9.83 2.9 9.91 3.1 10.04 3.28 10 3.32 9.99 3.32 10.04 3.3 10.06 3.16 10.17 2.93 10.51 3.25 10.53 3.3 10.53 3.3 10.61 3.25 10.62 2.86 10.72 2.47 11.3 2.69 11.68 2.8 11.87 2.98 12.06 3.19 12.15 3.33 12.21 3.65 12.29 3.78 12.15 3.8 12.12 3.85 12.15 3.83 12.18 3.76 12.33 3.72 12.57 3.94 12.59 4.03 12.6 4.12 12.59 4.21 12.58 4.24 12.52 4.29 12.47 4.34 12.42 4.33 12.45 4.32 12.47 4.32 12.5 4.32 12.52 4.31 12.54 4.3 12.57 4.25 12.68 4.22 12.79 4.28 12.91 4.3 12.95 4.32 12.99 4.35 13.01 4.42 13.14 4.55 13.22 4.69 13.27 4.69 13.31 4.65 13.35 4.62 13.36 4.28 13.4 4.16 13.92 4.31 14.17 4.49 14.49 4.85 14.64 5.17 14.44 5.21 14.41 5.23 14.46 5.22 14.5 5.06 14.84 5.37 15.08 5.68 15.07 5.71 14.99 5.75 14.92 5.8 14.85 5.73 15.01 5.68 15.22 5.81 15.36 5.88 15.43 5.99 15.45 6.1 15.45 6.14 15.46 6.17 15.47 6.21 15.48 6.61 15.55 6.93 15.24 7.14 14.93 7.15 14.92 7.17 14.91 7.18 14.93 7.2 15.11 7.26 15.25 7.45 15.29 7.61 15.32 7.77 15.29 7.87 15.17 7.9 15.14 7.94 15.16 7.94 15.2 7.93 15.47 7.92 15.7 8.15 15.88 8.27 15.97 8.41 16.03 8.56 16.03 8.83 16.03 9.08 15.91 9.24 15.69 9.24 15.54 9.3 15.39 9.37 15.23 9.36 15.33 9.35 15.43 9.36 15.52 9.33 15.73 9.38 15.91 9.67 15.96 9.8 15.99 9.94 15.99 10.07 15.94 10.14 15.91 10.34 15.84 10.37 15.77 10.38 15.74 10.45 15.71 10.46 15.77 10.47 16.05 10.81 16.11 11.03 16.12 11.31 16.13 11.49 15.98 11.51 15.69 11.51 15.68 11.52 15.66 11.53 15.66 11.56 15.7 11.6 15.72 11.65 15.73 11.76 15.8 11.9 15.73 11.93 15.6 11.93 15.59 11.93 15.59 11.93 15.59 11.97 15.52 11.98 15.44 11.99 15.37 12 15.39 12.02 15.41 12.03 15.43 12.03 15.43 12.03 15.43 12.03 15.43 12.03 15.43 12.04 15.43 12.04 15.44 12.08 15.48 12.12 15.52 12.17 15.54 12.27 15.59 12.38 15.62 12.5 15.61 12.77 15.59 12.79 15.28 12.84 15.07 12.84 15.06 12.86 15.05 12.87 15.05 13.01 15.14 13.21 15.18 13.38 15.14 13.39 15.14 13.4 15.14 13.41 15.13 13.41 15.13 13.41 15.13 13.41 15.13 13.42 15.13 13.43 15.12 13.44 15.12 13.45 15.12 13.46 15.11 13.46 15.11 13.46 15.11 13.46 15.11 13.46 15.11 13.48 15.1 13.5 15.09 13.52 15.08 13.53 15.07 13.54 15.07 13.55 15.06 13.61 15.01 13.67 14.96 13.71 14.9 13.81 14.74 13.82 14.57 13.8 14.4 13.83 14.41 13.86 14.43 13.89 14.43 13.97 14.46 14.05 14.44 14.13 14.4 14.14 14.4 14.14 14.4 14.15 14.39L14.15 14.39C14.2 14.37 14.24 14.33 14.28 14.29 14.37 14.43 14.67 14.48 14.8 14.46 15.09 14.41 15.16 14.17 15.14 13.92 15.14 13.88 15.14 13.84 15.14 13.81 15.14 13.79 15.16 13.77 15.17 13.79 15.38 14.05 15.56 13.75 15.61 13.51 15.63 13.47 15.64 13.44 15.65 13.39 15.84 13.58 16.21 13.59 16.42 13.45 16.63 13.32 16.64 13.04 16.61 12.8 16.62 12.78 16.64 12.76 16.66 12.78 16.79 12.91 16.99 12.9 17.12 12.77 17.22 12.66 17.23 12.55 17.22 12.41 17.22 12.41 17.22 12.41 17.22 12.41 17.16 12.34 17.13 12.24 17.16 12.13 17.2 12.41 17.59 12.49 17.85 12.36 17.9 12.33 17.96 12.3 18 12.25 18.12 12.12 18.24 11.92 18.23 11.73 18.23 11.7 18.2 11.56 18.19 11.49 18.17 11.47 18.15 11.46 18.13 11.44 18.13 11.44 18.13 11.44 18.13 11.44 18.26 11.55 18.57 11.44 18.67 11.36 18.95 11.11 18.91 10.77 18.71 10.5 18.94 10.51 19.16 10.43 19.28 10.2 19.34 10.07 19.36 9.95 19.34 9.81 19.34 9.8 19.34 9.78 19.33 9.76 19.34 9.63 19.32 9.51 19.25 9.4 19.27 9.4 19.29 9.41 19.31 9.42 19.46 9.4 19.62 9.15 19.63 8.92 19.65 8.78 19.6 8.64 19.51 8.51 19.72 8.36 19.87 8.19 19.76 7.92 19.73 7.8 19.69 7.73 19.64 7.66Z" fill="#DDC5AC" opacity="0.4"/><path d="M12.93 7.39C12.91 7.43 12.84 7.4 12.86 7.36 12.98 7.06 12.84 6.64 12.55 6.48 12.33 6.36 12.1 6.39 11.87 6.44 12.23 6.52 12.43 6.83 12.42 7.23 12.42 7.26 12.38 7.28 12.35 7.26 12.14 7.03 11.65 7.24 11.47 7.43 11.46 7.44 11.43 7.45 11.42 7.43 10.76 6.76 10.07 7.81 10.53 8.45 10.57 8.17 10.91 7.97 11.21 8 11.23 8 11.25 8.02 11.25 8.05 11.21 8.32 11.23 8.58 11.35 8.81 11.34 8.22 11.75 7.73 12.35 7.61 12.56 7.57 12.74 7.62 12.89 7.71 13.14 7.57 13.42 7.5 13.67 7.56 13.47 7.4 13.23 7.32 12.93 7.39Z" fill="#DDC5AC" opacity="0.2"/><path d="M19.64 7.66C19.63 7.66 19.63 7.66 19.62 7.67 19.61 7.65 19.59 7.62 19.58 7.6 19.63 7.55 19.69 7.51 19.74 7.46 19.9 7.32 20.02 7.09 20 6.91 19.99 6.82 19.96 6.71 19.92 6.61 19.9 6.57 19.88 6.52 19.84 6.48 19.78 6.41 19.68 6.36 19.59 6.34 19.59 6.32 19.6 6.29 19.63 6.28 19.96 6.15 19.54 5.85 19.41 5.79 19.39 5.78 19.4 5.74 19.42 5.73 19.7 5.58 19.69 5.29 19.54 5.05 19.57 5.32 19.41 5.61 19.08 5.71 19.06 5.72 19.04 5.7 19.03 5.68 18.98 5.53 18.86 5.48 18.73 5.49 18.86 5.55 18.96 5.64 18.98 5.79 19 5.97 18.91 6.14 18.76 6.25 18.61 6.35 18.42 6.42 18.26 6.33 18.05 6.21 17.92 6.04 17.66 6.1 17.64 6.1 17.62 6.09 17.61 6.07 17.56 5.76 17.71 5.52 17.95 5.36 17.7 5.4 17.41 5.51 17.44 5.77 17.45 5.81 17.4 5.84 17.37 5.8 16.95 5.22 16.2 5.84 16 6.37 16.25 6.13 16.63 5.98 16.92 6.24 17.1 6.4 17.11 6.58 17.04 6.74 17.24 6.62 17.47 6.54 17.69 6.55 18.06 6.57 18.11 6.9 18.05 7.21 18.05 7.23 18.03 7.24 18.01 7.24 17.56 7.23 17.32 7.86 17.26 8.3 17.39 7.97 17.74 7.79 18.12 7.84 18.6 7.9 18.84 8.31 18.72 8.77 18.71 8.8 18.68 8.81 18.65 8.79 18.42 8.58 18.19 8.7 18 8.87 18.35 8.95 18.61 9.23 18.53 9.62 18.45 10.01 18.14 10.32 17.75 10.38 17.72 10.38 17.7 10.36 17.7 10.33 17.74 10.16 17.76 9.97 17.66 9.83 17.56 10.35 17.03 10.74 16.54 10.88 16.19 10.98 15.84 10.93 15.65 10.7 15.63 11.19 15.19 11.58 14.69 11.74 14.3 11.86 13.67 11.88 13.51 11.49 13.4 11.59 13.26 11.65 13.15 11.59 13 12.33 11.93 12.78 11.48 12.1 11.44 12.63 10.97 13.02 10.41 12.91 10.16 12.86 9.94 12.71 9.83 12.47 9.71 12.2 9.78 11.9 9.88 11.63 9.68 11.82 9.54 12.06 9.49 12.34 9.44 12.6 9.4 12.85 9.14 12.98 8.78 13.17 8.23 13.19 7.98 12.82 7.96 12.8 7.98 12.77 8 12.76 8.35 12.6 8.75 12.39 8.79 12 8.42 12.25 7.89 12.33 7.51 12.07 7.13 11.81 7.16 11.41 7.36 11.07 6.95 11.28 6.43 11.3 6.19 10.84 6.05 10.57 6.06 10.23 6.29 10.06 6.09 10.09 5.92 10.18 5.88 10.41 5.87 10.45 5.83 10.45 5.81 10.42 5.31 9.62 6.73 8.98 7.03 9.6 7.09 9.4 7.22 9.24 7.42 9.14 7.45 9.13 7.49 9.16 7.47 9.19 7.33 9.45 7.33 9.85 7.63 9.97 7.37 9.37 7.95 8.47 8.64 8.73 8.66 8.74 8.67 8.76 8.66 8.78 8.78 8.84 8.88 8.93 8.96 9.04 8.96 9.04 8.96 9.03 8.96 9.02 8.75 8.6 8.66 8.07 9.06 7.76 9.22 7.66 9.4 7.6 9.59 7.58 9.64 7.52 9.69 7.44 9.7 7.36 9.73 7.17 9.7 6.99 9.55 6.86 9.53 6.84 9.54 6.82 9.55 6.81 9.55 6.8 9.56 6.79 9.57 6.79 10.03 6.57 10.33 5.66 9.74 5.42 9.71 5.4 9.7 5.38 9.71 5.35 9.87 5.05 9.97 4.44 9.5 4.37 9.47 4.37 9.47 4.33 9.48 4.31 9.57 4.13 9.64 3.9 9.57 3.7 9.5 3.52 9.32 3.33 9.1 3.33 8.84 3.33 8.57 3.42 8.32 3.32 7.95 3.17 7.84 2.84 7.98 2.53 7.61 2.63 7.38 3.15 7.56 3.51 7.58 3.55 7.53 3.63 7.48 3.61 7.3 3.55 7.1 3.49 6.96 3.66 6.91 3.72 6.88 3.77 6.86 3.83 6.87 3.84 6.88 3.85 6.88 3.86 6.9 3.89 6.86 3.95 6.83 3.92 6.83 3.92 6.83 3.92 6.83 3.92 6.8 4.01 6.78 4.09 6.76 4.18 6.76 4.19 6.76 4.19 6.75 4.2 6.75 4.21 6.74 4.21 6.73 4.21 6.73 4.21 6.73 4.21 6.73 4.21L6.73 4.21C6.72 4.21 6.72 4.2 6.71 4.19 6.68 4.09 6.69 3.97 6.72 3.86 6.63 3.82 6.53 3.82 6.45 3.91 6.37 4 6.3 4.1 6.3 4.22 6.29 4.42 6.37 4.6 6.44 4.79 6.46 4.83 6.42 4.88 6.38 4.87 6.1 4.83 5.87 4.99 5.79 5.25 5.78 5.28 5.74 5.31 5.71 5.29 5.4 5.04 4.81 5.49 4.61 5.73 4.49 5.87 4.37 6.07 4.36 6.26 4.34 6.46 4.41 6.6 4.51 6.76 4.54 6.81 4.59 6.89 4.58 6.95 4.58 6.97 4.57 6.98 4.56 6.99 4.47 7.09 4.5 7.19 4.54 7.29 4.56 7.33 4.52 7.39 4.48 7.39 4.2 7.4 4 7.71 4.14 7.95 4.16 7.99 4.1 8.05 4.07 8.01 4.07 8.01 4.07 8 4.06 8 4.06 8 4.06 8 4.06 7.99 3.88 7.79 3.54 7.62 3.27 7.72 2.85 7.87 2.9 8.31 3.26 8.49 3.28 8.5 3.26 8.54 3.24 8.54 2.8 8.51 2.27 8.83 2.34 9.35 2.37 9.59 2.54 9.73 2.75 9.83 2.9 9.91 3.1 10.04 3.28 10 3.32 9.99 3.32 10.04 3.3 10.06 3.16 10.17 2.93 10.51 3.25 10.53 3.3 10.53 3.3 10.61 3.25 10.62 2.86 10.72 2.47 11.3 2.69 11.68 2.8 11.87 2.98 12.06 3.19 12.15 3.33 12.21 3.65 12.29 3.78 12.15 3.8 12.12 3.85 12.15 3.83 12.18 3.76 12.33 3.72 12.57 3.94 12.59 4.03 12.6 4.12 12.59 4.21 12.58 4.24 12.52 4.29 12.47 4.34 12.42 4.33 12.45 4.32 12.47 4.32 12.5 4.32 12.52 4.31 12.54 4.3 12.57 4.25 12.68 4.22 12.79 4.28 12.91 4.3 12.95 4.32 12.99 4.35 13.01 4.42 13.14 4.55 13.22 4.69 13.27 4.69 13.31 4.65 13.35 4.62 13.36 4.28 13.4 4.16 13.92 4.31 14.17 4.49 14.49 4.85 14.64 5.17 14.44 5.21 14.41 5.23 14.46 5.22 14.5 5.06 14.84 5.37 15.08 5.68 15.07 5.71 14.99 5.75 14.92 5.8 14.85 5.73 15.01 5.68 15.22 5.81 15.36 5.88 15.43 5.99 15.45 6.1 15.45 6.14 15.46 6.17 15.47 6.21 15.48 6.61 15.55 6.93 15.24 7.14 14.93 7.15 14.92 7.17 14.91 7.18 14.93 7.2 15.11 7.26 15.25 7.45 15.29 7.61 15.32 7.77 15.29 7.87 15.17 7.9 15.14 7.94 15.16 7.94 15.2 7.93 15.47 7.92 15.7 8.15 15.88 8.27 15.97 8.41 16.03 8.56 16.03 8.83 16.03 9.08 15.91 9.24 15.69 9.24 15.54 9.3 15.39 9.37 15.23 9.36 15.33 9.35 15.43 9.36 15.52 9.33 15.73 9.38 15.91 9.67 15.96 9.8 15.99 9.94 15.99 10.07 15.94 10.14 15.91 10.34 15.84 10.37 15.77 10.38 15.74 10.45 15.71 10.46 15.77 10.47 16.05 10.81 16.11 11.03 16.12 11.31 16.13 11.49 15.98 11.51 15.69 11.51 15.68 11.52 15.66 11.53 15.66 11.56 15.7 11.6 15.72 11.65 15.73 11.76 15.8 11.9 15.73 11.93 15.6 11.93 15.59 11.93 15.59 11.93 15.59 11.97 15.52 11.98 15.44 11.99 15.37 12 15.39 12.02 15.41 12.03 15.43 12.03 15.43 12.03 15.43 12.03 15.43 12.03 15.43 12.04 15.43 12.04 15.44 12.08 15.48 12.12 15.52 12.17 15.54 12.27 15.59 12.38 15.62 12.5 15.61 12.77 15.59 12.79 15.28 12.84 15.07 12.84 15.06 12.86 15.05 12.87 15.05 13.01 15.14 13.21 15.18 13.38 15.14 13.39 15.14 13.4 15.14 13.41 15.13 13.41 15.13 13.41 15.13 13.41 15.13 13.42 15.13 13.43 15.12 13.44 15.12 13.45 15.12 13.46 15.11 13.46 15.11 13.46 15.11 13.46 15.11 13.46 15.11 13.48 15.1 13.5 15.09 13.52 15.08 13.53 15.07 13.54 15.07 13.55 15.06 13.61 15.01 13.67 14.96 13.71 14.9 13.81 14.74 13.82 14.57 13.8 14.4 13.83 14.41 13.86 14.43 13.89 14.43 13.97 14.46 14.05 14.44 14.13 14.4 14.14 14.4 14.14 14.4 14.15 14.39L14.15 14.39C14.2 14.37 14.24 14.33 14.28 14.29 14.37 14.43 14.67 14.48 14.8 14.46 15.09 14.41 15.16 14.17 15.14 13.92 15.14 13.88 15.14 13.84 15.14 13.81 15.14 13.79 15.16 13.77 15.17 13.79 15.38 14.05 15.56 13.75 15.61 13.51 15.63 13.47 15.64 13.44 15.65 13.39 15.84 13.58 16.21 13.59 16.42 13.45 16.63 13.32 16.64 13.04 16.61 12.8 16.62 12.78 16.64 12.76 16.66 12.78 16.79 12.91 16.99 12.9 17.12 12.77 17.22 12.66 17.23 12.55 17.22 12.41 17.22 12.41 17.22 12.41 17.22 12.41 17.16 12.34 17.13 12.24 17.16 12.13 17.2 12.41 17.59 12.49 17.85 12.36 17.9 12.33 17.96 12.3 18 12.25 18.12 12.12 18.24 11.92 18.23 11.73 18.23 11.7 18.2 11.56 18.19 11.49 18.17 11.47 18.15 11.46 18.13 11.44 18.13 11.44 18.13 11.44 18.13 11.44 18.26 11.55 18.57 11.44 18.67 11.36 18.95 11.11 18.91 10.77 18.71 10.5 18.94 10.51 19.16 10.43 19.28 10.2 19.34 10.07 19.36 9.95 19.34 9.81 19.34 9.8 19.34 9.78 19.33 9.76 19.34 9.63 19.32 9.51 19.25 9.4 19.27 9.4 19.29 9.41 19.31 9.42 19.46 9.4 19.62 9.15 19.63 8.92 19.65 8.78 19.6 8.64 19.51 8.51 19.72 8.36 19.87 8.19 19.76 7.92 19.73 7.8 19.69 7.73 19.64 7.66Z" fill="#DDC5AC" opacity="0.4"/><path d="M2.9 9.34C2.92 9.33 2.95 9.34 2.96 9.36 2.99 9.55 3.16 9.68 3.34 9.74 3.51 9.79 3.75 9.79 3.78 9.56 3.78 9.53 3.82 9.5 3.84 9.53 4.15 9.87 4.6 9.91 4.86 9.49 4.89 9.45 4.95 9.48 4.93 9.53 4.7 9.87 4.89 10.14 5.15 10.36 5.11 10.12 5.17 9.9 5.33 9.72 5.41 9.63 5.5 9.53 5.61 9.5 5.67 9.48 5.72 9.47 5.78 9.45 5.99 9.37 5.96 9.12 5.73 9.1 5.69 9.09 5.68 9.02 5.73 9.02 6.23 9.09 6.67 8.91 6.85 8.42 6.86 8.39 6.89 8.38 6.92 8.4 7.37 8.82 7.93 8.5 8.01 7.94 8.01 7.92 8.03 7.91 8.05 7.91 8.5 7.89 9.23 7.64 9.01 7.05 9.01 7.04 9.02 7.02 9.03 7.01 9.32 6.82 9.58 6.38 9.21 6.13 9.19 6.11 9.18 6.08 9.2 6.06 9.54 5.67 9.26 5.09 8.77 5.02 8.75 5.02 8.74 4.98 8.75 4.96 8.99 4.57 8.96 4.07 8.65 3.72 8.49 3.55 8.27 3.39 8.02 3.38 7.85 3.37 7.69 3.4 7.53 3.45 7.54 3.47 7.55 3.49 7.56 3.51 7.58 3.55 7.53 3.63 7.48 3.61 7.41 3.59 7.34 3.56 7.26 3.55 7.23 3.57 7.2 3.59 7.17 3.6 7.14 3.62 7.11 3.59 7.11 3.56 7.05 3.57 7 3.61 6.96 3.66 6.91 3.72 6.88 3.77 6.86 3.83 6.87 3.84 6.88 3.85 6.88 3.86 6.9 3.89 6.86 3.95 6.83 3.92 6.83 3.92 6.83 3.92 6.83 3.92 6.8 4.01 6.78 4.09 6.76 4.18 6.76 4.19 6.76 4.19 6.75 4.2 6.75 4.21 6.74 4.21 6.73 4.21 6.73 4.21 6.73 4.21 6.73 4.21L6.73 4.21C6.72 4.21 6.72 4.2 6.71 4.19 6.68 4.09 6.69 3.97 6.72 3.86 6.63 3.82 6.53 3.82 6.45 3.91 6.37 4 6.3 4.1 6.3 4.22 6.29 4.42 6.37 4.6 6.44 4.79 6.46 4.83 6.42 4.88 6.38 4.87 6.1 4.83 5.87 4.99 5.79 5.25 5.78 5.28 5.74 5.31 5.71 5.29 5.4 5.04 4.81 5.49 4.61 5.73 4.49 5.87 4.37 6.07 4.36 6.26 4.34 6.46 4.41 6.6 4.51 6.76 4.54 6.81 4.59 6.89 4.58 6.95 4.58 6.97 4.57 6.98 4.56 6.99 4.47 7.09 4.5 7.19 4.54 7.29 4.56 7.33 4.52 7.39 4.48 7.39 4.2 7.4 4 7.71 4.14 7.95 4.16 7.99 4.1 8.05 4.07 8.01 4.07 8.01 4.07 8 4.06 8 4.06 8 4.06 8 4.06 7.99 3.88 7.79 3.54 7.62 3.27 7.72 2.85 7.87 2.9 8.31 3.26 8.49 3.28 8.5 3.26 8.54 3.24 8.54 2.82 8.51 2.33 8.8 2.33 9.26 2.49 9.39 2.7 9.44 2.9 9.34Z" fill="#DDC5AC" opacity="0.4"/><path d="M18.43 10.3C18.64 10.48 18.81 10.79 18.57 11.03 18.35 11.25 18.06 11.18 17.83 11.02 17.95 11.29 18 11.64 17.69 11.8 17.43 11.94 17.1 11.8 16.99 11.54 16.66 11.97 15.84 12.06 15.62 11.57 15.58 11.76 15.49 11.94 15.36 12.07 15.1 12.32 14.79 12.31 14.49 12.14 14.44 12.23 14.38 12.29 14.3 12.34 14.61 12.33 14.98 12.36 15.16 12.56 15.26 12.67 15.35 12.87 15.23 13.01 15.12 13.14 14.95 13.19 14.78 13.21 14.99 13.43 14.96 13.74 14.67 13.92 14.35 14.12 14.01 14.02 13.79 13.76 13.8 14.14 13.65 14.53 13.22 14.58 12.73 14.64 12.67 14.21 12.59 13.83 12.14 14.25 10.84 14.72 10.91 13.79 10.71 13.95 10.45 14.08 10.19 14.03 9.93 13.98 9.77 13.78 9.67 13.55 9.51 13.91 9.06 14.2 8.74 13.93 8.76 14.15 8.64 14.4 8.43 14.49 8.23 14.58 8.15 14.45 8.13 14.29 7.88 14.66 7.32 14.83 7.11 14.35 6.89 14.57 6.59 14.74 6.28 14.6 6.07 14.51 5.86 14.28 5.88 14.03 5.9 13.77 6.15 13.7 6.37 13.78 6.47 13.82 6.57 13.89 6.68 13.91 6.86 13.95 7.1 13.93 7.26 13.85 7.48 13.74 7.63 13.57 7.72 13.36 7.47 13.56 7.13 13.64 6.86 13.42 6.59 13.2 6.56 12.87 6.68 12.57 6.45 12.77 6.23 13 6.31 13.32 6.32 13.35 6.29 13.37 6.26 13.37 5.7 13.27 5.65 12.71 5.94 12.33 5.55 12.53 5.26 12.98 5.36 13.43 5.37 13.47 5.33 13.49 5.3 13.47 5.14 13.3 5.08 13.1 5.13 12.9 4.88 13.07 4.6 13.13 4.35 13.03 4.43 13.15 4.54 13.23 4.68 13.27 4.68 13.31 4.64 13.35 4.61 13.36 4.27 13.4 4.15 13.92 4.3 14.17 4.48 14.49 4.84 14.64 5.16 14.44 5.2 14.41 5.22 14.46 5.21 14.5 5.05 14.84 5.36 15.08 5.67 15.07 5.7 14.99 5.74 14.92 5.79 14.85 5.72 15.01 5.67 15.22 5.8 15.36 5.87 15.43 5.98 15.45 6.09 15.45 6.13 15.46 6.16 15.47 6.2 15.48 6.6 15.55 6.92 15.24 7.13 14.93 7.14 14.92 7.16 14.91 7.17 14.93 7.19 15.11 7.25 15.25 7.44 15.29 7.6 15.32 7.76 15.29 7.86 15.17 7.89 15.14 7.93 15.16 7.93 15.2 7.92 15.47 7.91 15.7 8.14 15.88 8.26 15.97 8.4 16.03 8.55 16.03 8.82 16.03 9.07 15.91 9.23 15.69 9.23 15.54 9.29 15.39 9.36 15.23 9.35 15.33 9.34 15.43 9.35 15.52 9.32 15.73 9.37 15.91 9.66 15.96 9.79 15.99 9.93 15.99 10.06 15.94 10.13 15.91 10.33 15.84 10.36 15.77 10.37 15.74 10.44 15.71 10.45 15.77 10.46 16.05 10.8 16.11 11.02 16.12 11.3 16.13 11.48 15.98 11.5 15.69 11.5 15.68 11.51 15.66 11.52 15.66 11.55 15.7 11.59 15.72 11.64 15.73 11.75 15.8 11.89 15.73 11.92 15.6 11.92 15.59 11.92 15.59 11.92 15.59 11.96 15.52 11.97 15.44 11.98 15.37 11.99 15.39 12.01 15.41 12.02 15.43 12.02 15.43 12.02 15.43 12.02 15.43 12.02 15.43 12.03 15.43 12.03 15.44 12.07 15.48 12.11 15.52 12.16 15.54 12.26 15.59 12.37 15.62 12.49 15.61 12.76 15.59 12.78 15.28 12.83 15.07 12.83 15.06 12.85 15.05 12.86 15.05 13 15.14 13.2 15.18 13.37 15.14 13.38 15.14 13.39 15.14 13.4 15.13 13.4 15.13 13.4 15.13 13.4 15.13 13.41 15.13 13.42 15.12 13.43 15.12 13.44 15.12 13.45 15.11 13.45 15.11 13.45 15.11 13.45 15.11 13.45 15.11 13.47 15.1 13.49 15.09 13.51 15.08 13.52 15.07 13.53 15.07 13.54 15.06 13.6 15.01 13.66 14.96 13.7 14.9 13.8 14.74 13.81 14.57 13.79 14.4 13.82 14.41 13.85 14.43 13.88 14.43 13.96 14.46 14.04 14.44 14.12 14.4 14.13 14.4 14.13 14.4 14.14 14.39L14.14 14.39C14.19 14.37 14.23 14.33 14.27 14.29 14.36 14.43 14.66 14.48 14.79 14.46 15.08 14.41 15.15 14.17 15.13 13.92 15.13 13.88 15.13 13.84 15.13 13.81 15.13 13.79 15.15 13.77 15.16 13.79 15.37 14.05 15.55 13.75 15.6 13.51 15.62 13.47 15.63 13.44 15.64 13.39 15.83 13.58 16.2 13.59 16.41 13.45 16.62 13.32 16.63 13.04 16.6 12.8 16.61 12.78 16.63 12.76 16.65 12.78 16.78 12.91 16.98 12.9 17.11 12.77 17.21 12.66 17.22 12.55 17.21 12.41 17.21 12.41 17.21 12.41 17.21 12.41 17.15 12.34 17.12 12.24 17.15 12.13 17.19 12.41 17.58 12.49 17.84 12.36 17.89 12.33 17.95 12.3 17.99 12.25 18.11 12.12 18.23 11.92 18.22 11.73 18.22 11.7 18.19 11.56 18.18 11.49 18.16 11.47 18.14 11.46 18.12 11.44 18.12 11.44 18.12 11.44 18.12 11.44 18.25 11.55 18.56 11.44 18.66 11.36 18.94 11.11 18.9 10.77 18.7 10.5 18.93 10.51 19.15 10.43 19.27 10.2 19.3 10.15 19.32 10.1 19.33 10.04 19.07 10.17 18.76 10.28 18.43 10.3Z" fill="#DDC5AC" opacity="0.4"/></g><g><path d="M11.73 14.27C11.59 14.27 11.45 14.28 11.3 14.26 11.21 14.25 11.14 14.22 11.06 14.17 11.04 14.16 10.85 13.96 10.85 13.91 10.9 13.87 10.95 13.82 10.99 13.76 11 13.74 10.98 13.71 10.96 13.73 10.73 13.93 10.48 13.98 10.19 13.94 9.87 13.9 9.53 13.53 9.74 13.22 9.74 13.22 9.74 13.21 9.74 13.22 9.62 13.34 9.58 13.51 9.62 13.66 9.61 13.66 9.61 13.67 9.6 13.67 9.54 13.82 9.45 13.97 9.33 14.08 9.18 14.21 8.94 14.32 8.75 14.21 8.75 14.21 8.74 14.21 8.75 14.21 8.92 14.42 9.16 14.39 9.36 14.25 9.65 14.92 9.8 15.62 9.92 16.33 10.05 17.08 10.07 17.82 10.07 18.58 9.94 18.78 9.73 18.91 9.59 19.11 9.42 19.34 9.28 19.57 9.24 19.85 9.21 20.03 9.15 20.23 9.35 20.34 9.52 20.43 9.7 20.47 9.87 20.4 10.07 20.57 10.51 20.54 10.71 20.46 11.04 20.34 11.12 20.03 11.16 19.71 11.18 19.53 11.15 19.34 11.13 19.15 11.1 18.92 11.12 18.7 11.12 18.47 11.25 17.85 11.29 17.21 11.3 16.59 11.3 16.16 11.3 15.72 11.26 15.3 11.22 14.97 11.14 14.65 11.05 14.32 11.06 14.33 11.07 14.33 11.08 14.34 11.3 14.44 11.53 14.41 11.74 14.33 11.76 14.34 11.77 14.27 11.73 14.27Z" fill="#AF705A"/><path d="M10.81 20.23C10.69 20.35 10.47 20.34 10.32 20.34 10.14 20.34 9.95 20.32 9.89 20.13 9.83 19.97 9.88 19.71 9.91 19.56 9.92 19.49 9.98 19.43 9.95 19.37 9.95 19.36 9.94 19.37 9.94 19.37 9.95 19.41 9.85 19.56 9.84 19.61 9.8 19.69 9.8 19.78 9.77 19.87 9.72 20.02 9.72 20.16 9.78 20.3 9.58 20.29 9.33 20.25 9.36 20.02 9.38 19.81 9.46 19.59 9.57 19.41 9.69 19.21 9.83 19.06 9.97 18.89 9.96 18.92 9.96 18.96 9.98 19 10.06 19.16 10.23 19.2 10.39 19.24 10.55 19.28 10.78 19.3 10.92 19.18 10.94 19.16 10.95 19.15 10.97 19.13 10.98 19.19 10.98 19.26 10.99 19.32 11.02 19.6 11.03 20.02 10.81 20.23Z" fill="#EBDCCD"/><path d="M10.24 19.85C10.28 19.64 10.32 19.44 10.38 19.24 10.34 19.23 10.31 19.22 10.27 19.21 10.27 19.22 10.26 19.22 10.26 19.23 10.1 19.45 9.98 19.69 9.9 19.94 9.89 19.99 9.88 20.05 9.86 20.11 9.86 20.12 9.87 20.14 9.87 20.15 9.92 20.28 10.03 20.33 10.15 20.35 10.18 20.18 10.21 20.01 10.24 19.85Z" fill="#CAB5A3" opacity="0.6"/><path d="M9.63 20.21C9.65 20.09 9.67 19.97 9.71 19.85 9.78 19.58 9.87 19.31 10.04 19.09 10.02 19.06 10 19.03 9.98 19 9.78 19.24 9.61 19.5 9.5 19.81 9.46 19.92 9.42 20.04 9.38 20.16 9.42 20.23 9.52 20.27 9.62 20.29 9.62 20.25 9.63 20.23 9.63 20.21Z" fill="#CAB5A3"/><path d="M9.84 19.61C9.85 19.59 9.87 19.55 9.9 19.51 9.72 19.74 9.64 20 9.6 20.27 9.66 20.28 9.72 20.29 9.78 20.29 9.72 20.15 9.72 20.01 9.77 19.86 9.79 19.79 9.8 19.7 9.84 19.61Z" fill="#A98F79"/><path d="M10.99 19.32C10.98 19.26 10.98 19.19 10.97 19.13 10.96 19.15 10.94 19.16 10.92 19.18 10.78 19.3 10.55 19.29 10.39 19.24 10.27 19.21 10.15 19.18 10.06 19.1 10.13 19.18 10.23 19.25 10.31 19.27 10.43 19.3 10.56 19.3 10.68 19.3 10.71 19.3 10.73 19.32 10.73 19.35 10.75 19.69 10.69 20.02 10.56 20.33 10.66 20.32 10.74 20.29 10.81 20.23 11.03 20.02 11.02 19.6 10.99 19.32Z" fill="#A98F79"/><path d="M11.08 15.27C11.1 15.7 11.09 16.14 11.08 16.57 11.08 17.39 10.97 18.19 10.88 19 10.77 19.15 10.49 19.07 10.35 19.03 10.26 19 10.1 18.96 10.1 18.84 10.1 18.78 10.11 18.72 10.12 18.66 10.12 18.66 10.12 18.65 10.12 18.65 10.26 17.9 10.14 17.1 10.02 16.36 9.89 15.62 9.7 14.91 9.36 14.25 9.51 14.13 9.63 13.96 9.65 13.78 9.71 13.89 9.8 13.99 9.92 14.05 10.22 14.18 10.57 14.14 10.82 13.94 10.79 14.08 10.86 14.23 10.98 14.31 11.03 14.63 11.07 14.95 11.08 15.27Z" fill="#FFD4C5"/><path d="M11.08 15.27C11.07 14.95 11.03 14.63 10.99 14.31 10.87 14.23 10.79 14.08 10.83 13.94 10.58 14.14 10.23 14.18 9.93 14.05 9.81 13.99 9.71 13.9 9.66 13.78 9.64 13.95 9.52 14.13 9.37 14.25 9.71 14.92 9.9 15.63 10.03 16.36 10.16 17.1 10.27 17.9 10.13 18.65 10.13 18.65 10.13 18.66 10.13 18.66 10.12 18.72 10.11 18.78 10.11 18.84 10.11 18.94 10.22 18.98 10.31 19.01 10.34 18.66 10.39 18.31 10.44 17.96 10.41 16.86 10.34 16.08 10.24 15.1 10.19 14.63 10.38 14.38 10.52 14.5 11.05 14.96 11.02 15.89 10.99 16.53 10.97 17.01 10.9 17.49 10.84 17.98 10.85 18.35 10.83 18.72 10.75 19.09 10.81 19.08 10.86 19.06 10.89 19.01 10.97 18.2 11.08 17.4 11.09 16.58 11.09 16.14 11.11 15.7 11.08 15.27Z" fill="#FFB098"/><path d="M9.91 14.41C9.92 14.4 9.93 14.39 9.95 14.4 10.12 14.5 10.25 14.44 10.41 14.38 10.51 14.34 10.61 14.33 10.72 14.36 10.84 14.4 10.94 14.48 11.02 14.58 11.01 14.49 11 14.4 10.99 14.31 10.87 14.23 10.79 14.08 10.83 13.94 10.58 14.14 10.23 14.18 9.93 14.05 9.81 13.99 9.71 13.9 9.66 13.78 9.64 13.95 9.52 14.13 9.37 14.25 9.45 14.41 9.53 14.57 9.59 14.73 9.73 14.67 9.84 14.55 9.91 14.41Z" fill="#D6735C"/></g><path d="M12.68 3.18C12.68 3.18 12.69 3.19 12.69 3.19 12.79 2.84 13.09 2.53 13.43 2.58 13.19 2.46 12.9 2.6 12.75 2.82 12.59 2.64 12.35 2.58 12.1 2.63 11.98 2.65 11.86 2.71 11.76 2.78 11.71 2.84 11.67 2.9 11.63 2.97 11.73 2.86 11.9 2.82 12.03 2.79 12.28 2.73 12.48 2.82 12.69 2.93 12.68 3.01 12.66 3.1 12.68 3.18Z" fill="#96816F" opacity="0.5"/><path d="M18.21 7.23C18.32 7 18.34 6.66 18.13 6.49 18.01 6.38 17.86 6.32 17.7 6.3 17.63 6.29 17.57 6.31 17.51 6.34 17.5 6.35 17.48 6.36 17.46 6.37 17.54 6.09 17.28 5.81 17.01 5.79 16.72 5.76 16.41 5.91 16.3 6.19 16.3 6.19 16.3 6.19 16.3 6.19 16.43 5.98 16.68 5.87 16.92 5.89 17.24 5.92 17.37 6.17 17.39 6.46 17.39 6.49 17.42 6.48 17.43 6.46 17.54 6.23 18 6.52 18.09 6.63 18.21 6.8 18.23 7.04 18.16 7.24 18.15 7.24 18.14 7.24 18.13 7.24 17.81 7.26 17.68 7.52 17.57 7.77 17.57 7.78 17.57 7.78 17.58 7.78 17.71 7.61 17.8 7.49 18.02 7.43 18.31 7.36 18.47 7.5 18.65 7.7 18.67 7.72 18.71 7.7 18.7 7.68 18.66 7.37 18.48 7.24 18.21 7.23Z" fill="#96816F" opacity="0.5"/><path d="M6.27 11.17C6.08 11.14 5.9 11.06 5.84 10.86 5.78 10.64 5.94 10.48 6.02 10.3 6.02 10.29 6.01 10.28 6.01 10.29 5.98 10.32 5.94 10.34 5.91 10.37 5.86 10.43 5.82 10.49 5.78 10.56 5.75 10.61 5.73 10.66 5.72 10.72 5.72 10.72 5.71 10.72 5.71 10.72 5.56 10.69 5.42 10.66 5.32 10.52 5.21 10.37 5.21 10.16 5.24 9.98 5.28 9.7 5.44 9.47 5.66 9.31 5.66 9.31 5.66 9.3 5.66 9.3 5.35 9.45 5.13 9.77 5.12 10.13 5.12 10.51 5.28 10.82 5.7 10.77 5.7 10.77 5.71 10.77 5.71 10.77 5.7 10.82 5.71 10.88 5.72 10.92 5.79 11.18 6.04 11.22 6.27 11.2 6.28 11.2 6.28 11.17 6.27 11.17Z" fill="#96816F" opacity="0.5"/><path d="M7.33 13.35C7.2 13.52 7 13.56 6.81 13.47 6.61 13.38 6.61 13.19 6.6 13 6.6 12.99 6.59 12.99 6.59 13 6.57 13.12 6.53 13.24 6.56 13.37 6.57 13.4 6.58 13.42 6.6 13.45 6.31 13.66 5.9 13.49 5.76 13.18 5.7 13.03 5.7 12.85 5.73 12.7 5.77 12.5 5.89 12.39 6.01 12.25 6.01 12.25 6.01 12.24 6.01 12.25 5.91 12.33 5.86 12.33 5.78 12.43 5.72 12.5 5.68 12.6 5.65 12.69 5.58 12.92 5.61 13.14 5.71 13.35 5.87 13.67 6.4 13.76 6.63 13.48 6.68 13.53 6.75 13.57 6.79 13.59 7.01 13.69 7.25 13.57 7.34 13.36 7.37 13.35 7.35 13.34 7.33 13.35Z" fill="#96816F" opacity="0.5"/><path d="M12.25 7.19C12 7.06 11.73 7.11 11.55 7.33 11.52 7.37 11.49 7.41 11.47 7.45 11.34 7.23 10.99 7.25 10.77 7.35 10.48 7.48 10.25 7.75 10.28 8.08 10.28 8.09 10.29 8.08 10.29 8.08 10.3 7.74 10.56 7.56 10.85 7.47 10.98 7.43 11.11 7.43 11.24 7.5 11.3 7.54 11.35 7.59 11.41 7.63 11.4 7.65 11.4 7.68 11.4 7.7 11.39 7.76 11.36 7.89 11.42 7.94 11.43 7.94 11.43 7.94 11.43 7.93 11.41 7.86 11.49 7.72 11.52 7.66 11.56 7.58 11.63 7.5 11.69 7.44 11.83 7.32 12.03 7.31 12.21 7.32 12.27 7.32 12.31 7.22 12.25 7.19Z" fill="#96816F" opacity="0.5"/><g><path d="M17.63 12.18C17.49 12.18 17.35 12.19 17.22 12.17 17.13 12.16 17.06 12.14 16.99 12.09 16.97 12.08 16.79 11.9 16.79 11.84 16.84 11.8 16.88 11.75 16.92 11.7 16.94 11.68 16.92 11.65 16.89 11.67 16.67 11.86 16.43 11.9 16.14 11.86 15.83 11.82 15.5 11.48 15.7 11.18 15.7 11.18 15.7 11.18 15.7 11.18 15.58 11.3 15.55 11.45 15.58 11.59 15.57 11.59 15.57 11.6 15.57 11.6 15.51 11.74 15.43 11.88 15.31 11.99 15.16 12.12 14.93 12.21 14.75 12.11 14.75 12.11 14.75 12.11 14.75 12.11 14.91 12.31 15.15 12.27 15.34 12.14 15.62 12.77 15.77 13.42 15.89 14.09 16.01 14.79 16.04 15.48 16.04 16.19 15.91 16.38 15.71 16.5 15.57 16.69 15.41 16.9 15.27 17.13 15.23 17.39 15.21 17.56 15.14 17.75 15.33 17.85 15.49 17.94 15.66 17.98 15.83 17.91 16.02 18.07 16.45 18.04 16.64 17.97 16.96 17.85 17.04 17.57 17.08 17.27 17.1 17.1 17.07 16.92 17.05 16.75 17.02 16.53 17.04 16.33 17.04 16.12 17.16 15.54 17.21 14.94 17.21 14.36 17.21 13.96 17.22 13.55 17.17 13.15 17.13 12.84 17.06 12.54 16.97 12.24 16.98 12.25 16.99 12.25 17 12.26 17.21 12.35 17.43 12.33 17.65 12.25 17.66 12.23 17.68 12.18 17.63 12.18Z" fill="#AF705A"/><path d="M16.74 17.76C16.62 17.87 16.41 17.87 16.26 17.87 16.09 17.87 15.9 17.85 15.84 17.67 15.78 17.52 15.83 17.28 15.86 17.13 15.88 17.06 15.93 17.01 15.9 16.95 15.9 16.94 15.89 16.95 15.89 16.95 15.9 16.99 15.81 17.13 15.79 17.17 15.76 17.25 15.75 17.33 15.72 17.41 15.67 17.55 15.67 17.68 15.73 17.81 15.54 17.8 15.3 17.76 15.32 17.55 15.34 17.35 15.42 17.15 15.53 16.97 15.64 16.79 15.78 16.64 15.92 16.48 15.91 16.52 15.91 16.56 15.93 16.59 16 16.74 16.17 16.78 16.33 16.82 16.49 16.86 16.72 16.87 16.85 16.76 16.87 16.74 16.88 16.73 16.9 16.71 16.91 16.77 16.91 16.83 16.92 16.89 16.95 17.17 16.96 17.56 16.74 17.76Z" fill="#EBDCCD"/><path d="M16.19 17.4C16.23 17.21 16.27 17.01 16.33 16.83 16.3 16.82 16.26 16.81 16.23 16.8 16.23 16.8 16.22 16.81 16.22 16.82 16.06 17.03 15.95 17.25 15.88 17.48 15.87 17.53 15.85 17.58 15.84 17.63 15.84 17.64 15.85 17.65 15.85 17.67 15.9 17.8 16 17.84 16.12 17.86 16.13 17.71 16.16 17.56 16.19 17.4Z" fill="#CAB5A3" opacity="0.6"/><path d="M15.6 17.74C15.61 17.63 15.64 17.51 15.68 17.4 15.74 17.15 15.84 16.89 16 16.68 15.98 16.66 15.96 16.63 15.94 16.6 15.74 16.83 15.58 17.07 15.47 17.35 15.43 17.45 15.39 17.56 15.36 17.68 15.4 17.75 15.49 17.78 15.59 17.8 15.59 17.78 15.59 17.76 15.6 17.74Z" fill="#CAB5A3"/><path d="M15.8 17.18C15.81 17.17 15.83 17.13 15.85 17.09 15.69 17.3 15.61 17.55 15.57 17.8 15.62 17.81 15.69 17.82 15.74 17.82 15.68 17.69 15.68 17.56 15.73 17.42 15.75 17.34 15.76 17.26 15.8 17.18Z" fill="#A98F79"/><path d="M16.91 16.9C16.9 16.84 16.9 16.78 16.89 16.72 16.88 16.73 16.86 16.75 16.84 16.77 16.71 16.88 16.48 16.87 16.32 16.83 16.21 16.8 16.09 16.77 16 16.7 16.07 16.78 16.17 16.83 16.24 16.85 16.36 16.88 16.48 16.89 16.6 16.89 16.63 16.89 16.65 16.91 16.65 16.94 16.67 17.25 16.61 17.57 16.49 17.86 16.58 17.85 16.67 17.82 16.73 17.77 16.96 17.56 16.95 17.17 16.91 16.9Z" fill="#A98F79"/><path d="M17.01 13.11C17.03 13.52 17.02 13.92 17.01 14.33 17 15.1 16.9 15.85 16.82 16.61 16.71 16.75 16.44 16.68 16.3 16.64 16.21 16.61 16.06 16.58 16.06 16.47 16.06 16.41 16.07 16.35 16.08 16.3 16.08 16.3 16.09 16.29 16.09 16.29 16.23 15.59 16.12 14.84 15.99 14.14 15.87 13.45 15.68 12.78 15.35 12.16 15.5 12.05 15.61 11.89 15.63 11.72 15.68 11.83 15.78 11.92 15.9 11.97 16.19 12.1 16.53 12.05 16.77 11.87 16.73 12 16.81 12.14 16.93 12.22 16.96 12.51 16.99 12.81 17.01 13.11Z" fill="#FFD4C5"/><path d="M17.01 13.11C17 12.81 16.96 12.51 16.92 12.21 16.81 12.13 16.73 11.99 16.76 11.86 16.52 12.04 16.18 12.09 15.89 11.96 15.77 11.91 15.68 11.82 15.62 11.71 15.6 11.87 15.48 12.04 15.34 12.15 15.67 12.78 15.86 13.44 15.98 14.13 16.1 14.82 16.22 15.57 16.08 16.28 16.08 16.28 16.08 16.29 16.07 16.29 16.06 16.35 16.05 16.4 16.05 16.46 16.05 16.55 16.16 16.59 16.25 16.62 16.28 16.29 16.33 15.96 16.38 15.63 16.35 14.6 16.29 13.86 16.18 12.95 16.13 12.51 16.32 12.27 16.46 12.39 16.97 12.82 16.95 13.7 16.92 14.3 16.9 14.75 16.83 15.2 16.77 15.66 16.78 16.01 16.76 16.35 16.69 16.7 16.75 16.69 16.79 16.67 16.82 16.62 16.9 15.86 17.01 15.11 17.01 14.34 17.01 13.92 17.03 13.52 17.01 13.11Z" fill="#FFB098"/><path d="M15.87 12.3C15.88 12.29 15.89 12.28 15.9 12.29 16.07 12.38 16.19 12.33 16.35 12.27 16.45 12.24 16.55 12.22 16.65 12.26 16.77 12.3 16.86 12.37 16.94 12.46 16.93 12.37 16.92 12.29 16.91 12.2 16.8 12.12 16.72 11.98 16.75 11.85 16.51 12.03 16.17 12.08 15.88 11.95 15.76 11.9 15.67 11.81 15.61 11.7 15.59 11.86 15.47 12.03 15.33 12.14 15.41 12.29 15.48 12.44 15.54 12.6 15.69 12.54 15.8 12.43 15.87 12.3Z" fill="#D6735C"/></g></g><g><g><path d="M11.27 4.89C11.22 4.83 11.16 4.79 11.1 4.73 11.01 4.62 10.97 4.46 10.93 4.33 10.81 3.95 10.66 3.54 10.34 3.28 10.1 3.07 9.8 2.93 9.49 2.84 9.54 2.7 9.55 2.54 9.49 2.37 9.39 2.03 9.09 1.97 8.8 1.97 8.95 1.74 8.9 1.45 8.61 1.35 8.56 1.33 8.51 1.32 8.46 1.32 8.45 1.1 8.25 0.99 8.04 0.95 7.88 0.91 7.7 0.97 7.55 1.07 7.58 0.74 7.46 0.46 7.15 0.26 6.85 0.05 6.41 0.07 6.15 0.33 5.98 0.14 5.82-0.02 5.53 0 5.33 0.02 5.17 0.12 5.05 0.27 4.92 0.06 4.64 0.05 4.41 0.13 4.25 0.18 4.13 0.29 4.07 0.43 3.65 0.06 2.98 0.76 3.29 1.06 3.14 1.08 2.99 1.14 2.86 1.22 2.34 1.23 1.82 1.23 1.32 1.4 1.03 1.5 0.78 1.67 0.54 1.85 0.3 2.02 0.07 2.23 0 2.52 0 2.53 0 2.54 0.01 2.55 0.16 2.63 0.34 2.63 0.5 2.67 0.68 2.71 0.86 2.76 1.04 2.79 1.38 2.84 1.75 2.84 2.09 2.73 2.08 2.78 2.07 2.83 2.06 2.88 2.05 2.97 2.08 3.08 2.12 3.16 1.63 3.05 0.99 3.88 1.3 4.14 1.04 4.35 0.97 4.72 1.32 4.88 1.29 4.93 1.26 4.97 1.22 5.02 0.91 5.49 0.73 6.02 0.83 6.58 0.92 7.08 1.26 7.53 1.62 7.87 2.35 8.57 3.4 8.95 4.4 8.91 5.26 8.88 6.04 8.48 6.59 7.84 6.68 7.98 6.85 8 7.02 7.98 7.21 7.96 7.3 7.81 7.36 7.66 7.77 7.87 8.29 7.5 8.41 7.09 8.56 7.12 8.69 7.1 8.81 6.99 8.9 6.91 8.98 6.79 8.98 6.67 9.24 6.74 9.5 6.54 9.64 6.33 9.72 6.21 9.75 6.06 9.72 5.92 9.68 5.74 9.59 5.66 9.45 5.59 9.64 5.45 9.66 5.19 9.54 4.99 9.63 5.03 9.72 5.07 9.81 5.1 10.07 5.19 10.32 5.18 10.59 5.15 10.79 5.13 11.1 5.12 11.25 4.98 11.26 4.96 11.29 4.92 11.27 4.89Z" fill="#AF705A"/><path d="M1.31 4.88C1.44 4.74 1.54 4.58 1.66 4.42 1.9 4.12 2.15 3.83 2.41 3.54 2.67 3.25 2.93 2.97 3.23 2.72 3.4 2.57 3.63 2.56 3.85 2.57 3.86 2.56 3.88 2.56 3.89 2.57 3.91 2.57 3.92 2.57 3.94 2.57 3.97 2.57 3.99 2.6 4 2.62 4.11 2.69 4.24 2.7 4.36 2.74 4.5 2.79 4.64 2.88 4.77 2.95 5.08 3.11 5.39 3.29 5.7 3.46 5.87 3.56 6.05 3.66 6.23 3.75 6.39 3.84 6.6 3.98 6.79 3.98 6.98 3.97 7.13 3.88 7.31 3.83 7.46 3.79 7.61 3.74 7.76 3.67 7.77 3.67 7.77 3.66 7.78 3.66 7.74 3.47 7.72 3.28 7.74 3.08 7.76 2.73 8.01 2.34 8.36 2.23 8.49 2.19 8.69 2.16 8.81 2.25 8.96 2.37 9.03 2.56 9.19 2.67 9.19 2.67 9.2 2.68 9.21 2.69 9.3 2.74 9.39 2.8 9.49 2.83 9.54 2.69 9.54 2.54 9.49 2.37 9.39 2.03 9.09 1.97 8.8 1.97 8.95 1.74 8.9 1.45 8.61 1.35 8.56 1.33 8.51 1.32 8.46 1.32 8.45 1.1 8.25 0.99 8.04 0.95 7.88 0.91 7.7 0.97 7.55 1.07 7.58 0.74 7.46 0.46 7.15 0.26 6.85 0.05 6.41 0.07 6.15 0.33 5.98 0.14 5.82-0.02 5.53 0 5.33 0.02 5.17 0.12 5.05 0.27 4.92 0.06 4.64 0.05 4.41 0.13 4.25 0.18 4.13 0.29 4.07 0.43 3.65 0.06 2.98 0.76 3.29 1.06 3.14 1.08 2.99 1.14 2.86 1.22 2.84 1.22 2.82 1.22 2.8 1.22 2.84 1.22 2.88 1.23 2.92 1.22 3.04 1.21 3.44 1.19 3.5 1.06 3.55 0.94 3.7 0.73 3.86 0.87 3.88 0.89 3.9 0.91 3.92 0.94 4.02 1 4.04 1.09 4.01 1.2 4.01 1.26 4.01 1.32 3.99 1.37 3.89 1.65 3.65 1.77 3.38 1.88 3.35 1.89 3.32 1.88 3.3 1.86 3.25 1.88 3.22 1.9 3.19 1.93 3.08 2.05 2.98 2.17 2.87 2.28 2.87 2.29 2.86 2.31 2.84 2.32 2.61 2.49 2.35 2.61 2.09 2.73 2.09 2.73 2.09 2.73 2.09 2.73 2.08 2.78 2.07 2.83 2.06 2.88 2.05 2.97 2.08 3.08 2.12 3.16 1.63 3.05 0.99 3.88 1.3 4.14 1.04 4.35 0.97 4.72 1.31 4.88Z" fill="#96816F"/><path d="M9.72 5.92C9.68 5.74 9.59 5.66 9.45 5.59 9.62 5.47 9.65 5.24 9.57 5.05 9.52 5.01 9.47 4.97 9.42 4.92 9.36 4.98 9.3 5.03 9.24 5.09 9.13 5.21 9.03 5.34 8.94 5.47 8.91 5.5 8.88 5.51 8.84 5.49 8.77 5.45 8.69 5.41 8.61 5.37 8.58 5.62 8.39 5.87 8.24 6.07 8.03 6.34 7.79 6.57 7.55 6.82 7.4 6.98 7.27 7.14 7.15 7.32 7.08 7.42 7.01 7.51 6.9 7.58 6.78 7.67 6.68 7.75 6.59 7.86 6.69 7.98 6.86 8 7.02 7.98 7.21 7.96 7.3 7.81 7.36 7.66 7.77 7.87 8.29 7.5 8.41 7.09 8.56 7.12 8.69 7.1 8.81 6.99 8.9 6.91 8.98 6.79 8.98 6.67 9.24 6.74 9.5 6.54 9.64 6.33 9.71 6.21 9.75 6.06 9.72 5.92Z" fill="#96816F"/><path d="M2.15 2.49C1.67 2.65 1.16 2.63 0.62 2.55 0.54 2.54 0.46 2.53 0.38 2.52 0.34 2.52 0.05 2.56 0.1 2.42 0.16 2.24 0.32 2.1 0.47 1.98 0.74 1.76 1.06 1.57 1.39 1.48 1.61 1.42 1.84 1.39 2.08 1.38 2.27 1.35 2.47 1.33 2.66 1.34 2.66 1.34 2.66 1.34 2.66 1.34 2.75 1.33 2.85 1.33 2.94 1.32 2.96 1.32 2.97 1.32 2.99 1.31 3.01 1.31 3.04 1.31 3.07 1.3 3.19 1.28 3.31 1.25 3.43 1.21 3.43 1.21 3.44 1.2 3.44 1.2 3.44 1.25 3.47 1.3 3.53 1.33 3.53 1.33 3.54 1.33 3.54 1.33 3.53 1.35 3.53 1.36 3.52 1.37 3.51 1.39 3.51 1.4 3.51 1.41 3.49 1.41 3.47 1.41 3.44 1.41 3.37 1.45 3.31 1.5 3.26 1.57 3.19 1.65 3.14 1.74 3.08 1.83 3.02 1.93 2.94 2.01 2.85 2.09 2.78 2.18 2.67 2.25 2.57 2.31 2.54 2.32 2.49 2.36 2.43 2.38 2.41 2.39 2.39 2.4 2.36 2.41 2.32 2.43 2.21 2.49 2.15 2.49Z" fill="#FFD4C5"/><path d="M3.84 8.76C2.78 8.64 1.63 7.94 1.13 6.98 0.43 5.64 1.78 4.45 2.63 3.56 2.93 3.24 3.24 2.92 3.53 2.59 3.7 2.53 3.81 2.4 3.89 2.24 3.93 2.3 4 2.36 4.07 2.41 4.23 2.51 4.39 2.5 4.53 2.41 4.52 2.56 4.65 2.69 4.81 2.77 5.09 2.93 5.43 3 5.71 2.81 5.81 2.74 5.9 2.67 5.99 2.59 6 2.58 6.01 2.57 6.02 2.56 5.96 2.71 6.01 2.85 6.11 2.97 6.31 3.22 6.63 3.29 6.89 3.16 6.84 3.29 6.85 3.44 6.91 3.58 7.04 3.85 7.33 3.82 7.59 3.79 7.49 5.06 7.46 6.41 6.73 7.48 6.11 8.38 4.91 8.89 3.84 8.76Z" fill="#FFD4C5"/><path d="M2.93 5.37C3.25 5.28 3.52 5.01 3.66 4.69 3.79 4.38 3.92 4.08 4 3.76 4.04 3.6 4.09 3.44 4.08 3.28 4.06 3.08 3.95 2.81 3.7 2.88 3.69 2.88 3.67 2.88 3.67 2.87 3.51 2.93 3.23 3.06 3.16 3.23 3.33 3.23 3.52 3.13 3.68 3.22 3.82 3.3 3.88 3.43 3.83 3.59 3.83 3.61 3.79 3.63 3.77 3.6 3.49 3.26 3.06 3.53 2.78 3.73 2.45 3.98 2.14 4.32 2.05 4.73 2.05 4.74 2.04 4.76 2.02 4.76 1.96 4.76 1.89 4.78 1.83 4.79 2.12 5 2.33 5.29 2.43 5.63 2.45 5.58 2.49 5.37 2.5 5.37 2.65 5.41 2.79 5.4 2.93 5.37Z" fill="#FFD4C5"/><path d="M5.45 3.71C5.4 3.79 5.47 3.77 5.53 3.77 5.59 3.77 5.67 3.75 5.71 3.8 5.75 3.85 5.69 3.94 5.65 3.97 5.49 4.11 5.3 4.21 5.14 4.38 4.81 4.72 4.4 5.52 4.83 5.94 4.92 6.03 5.11 6.06 5.18 6.16 5.22 6.23 5.17 6.34 5.12 6.44 5.33 6.25 5.52 6.03 5.83 6.02 5.9 6.02 5.97 6.02 6.05 6.02 6.16 6.02 6.27 6.03 6.38 6.05 6.33 6 6.29 5.95 6.22 5.92 6.21 5.92 6.19 5.9 6.19 5.88 6.16 5.78 6.22 5.7 6.26 5.61 6.43 5.26 6.5 4.76 6.34 4.39 6.28 4.24 6.18 4.14 6.09 4.01 6.07 3.98 6.03 3.93 6.07 3.89 6.16 3.8 6.27 3.89 6.35 3.98 6.35 3.8 6.34 3.61 6.22 3.47 6.21 3.47 6.21 3.46 6.21 3.45 6.09 3.44 5.96 3.42 5.85 3.38 5.85 3.39 5.84 3.4 5.83 3.41 5.69 3.46 5.52 3.57 5.45 3.71Z" fill="#FFD4C5"/><path d="M6.91 3.58C6.85 3.44 6.84 3.29 6.89 3.17 6.63 3.29 6.31 3.22 6.11 2.97 6.01 2.84 5.96 2.71 6.02 2.56 6.01 2.57 6 2.58 5.99 2.59 5.9 2.67 5.81 2.74 5.71 2.81 5.43 3 5.09 2.93 4.81 2.77 4.65 2.69 4.52 2.56 4.53 2.41 4.39 2.49 4.22 2.5 4.07 2.41 4 2.36 3.93 2.3 3.89 2.24 3.81 2.4 3.7 2.53 3.53 2.59 3.49 2.64 3.45 2.69 3.41 2.73 3.57 2.81 3.84 2.69 3.97 2.6 3.99 2.59 4.02 2.6 4.03 2.62 4.07 2.81 4.25 2.9 4.43 2.87 4.45 2.87 4.48 2.88 4.48 2.91 4.52 3.47 5.38 3.18 5.71 3.08 5.72 3.08 5.75 3.1 5.75 3.12 5.75 3.42 6.38 3.37 6.58 3.37 6.61 3.37 6.62 3.4 6.62 3.42 6.56 3.67 6.63 4.08 6.97 4.01 6.99 4.01 7.02 4.01 7.02 4.04 7.05 4.27 7.04 4.5 7.02 4.74 7 4.96 7 5.19 6.97 5.42 6.93 5.84 6.9 6.14 6.7 6.76 6.58 7.14 6.35 7.49 6.06 7.77 5.79 8.04 5.38 8.26 5.02 8.37 4.31 8.57 4.37 8.32 4.88 8.15 5.11 8.08 5.42 7.81 5.5 7.59 5.51 7.57 5.53 7.56 5.55 7.56 5.72 7.59 5.86 7.48 5.95 7.34 5.6 7.48 5.14 7.34 5.06 6.99 5.05 7.02 5.04 7.04 5.03 7.07 4.98 7.23 5.04 7.32 5.16 7.4 5.21 7.44 5.28 7.5 5.27 7.57 5.23 7.81 4.76 7.95 4.58 8 4.28 8.07 4.06 8.18 3.75 8.12 3.44 8.05 3.3 8.04 3.05 7.51 3.04 7.48 3.11 7.45 3.14 7.46 3.22 7.48 3.3 7.49 3.38 7.48 3.45 7.47 3.74 7.35 3.54 7.24 3.52 7.23 3.52 7.21 3.53 7.19 3.32 7.02 3.07 6.85 2.8 6.79 2.59 6.74 2.11 6.77 2.32 7.13 2.41 7.28 2.55 7.27 2.7 7.35 2.72 7.36 2.81 7.41 2.8 7.43 2.64 7.74 2.54 7.94 1.98 7.51 1.41 7.08 1.49 6.9 1.96 6.64 1.69 6.61 1.29 6.67 1.3 7 1.3 7.04 1.25 7.05 1.23 7.02 1.05 6.78 0.96 6.48 0.94 6.17 0.93 6.43 0.99 6.7 1.13 6.98 1.63 7.94 2.77 8.64 3.84 8.76 4.91 8.89 6.11 8.38 6.73 7.48 7.46 6.42 7.5 5.06 7.59 3.79 7.34 3.83 7.05 3.86 6.91 3.58Z" fill="#FFD4C5"/><path d="M9.31 5.55C9.25 5.58 9.26 5.66 9.33 5.65 9.7 5.61 9.67 6.13 9.54 6.32 9.41 6.51 9.16 6.68 8.94 6.55 8.9 6.53 8.84 6.57 8.86 6.61 8.98 6.87 8.67 7.01 8.46 7 8.59 6.89 8.69 6.73 8.58 6.58 8.58 6.58 8.58 6.58 8.57 6.57 8.54 6.72 8.48 6.85 8.35 6.94 8.3 6.98 8.23 7.02 8.16 7.03 8.07 7.05 7.98 7.04 7.89 7.01 8.01 7.11 8.16 7.18 8.3 7.1 8.3 7.1 8.3 7.1 8.3 7.1 8.19 7.46 7.73 7.71 7.38 7.53 7.34 7.51 7.29 7.53 7.29 7.57 7.26 7.74 7.19 7.86 7.02 7.9 6.88 7.93 6.73 7.89 6.64 7.78 6.71 7.69 6.78 7.6 6.84 7.51 7.58 6.4 7.67 5.09 7.68 3.79 7.67 3.76 7.67 3.72 7.67 3.69 7.55 3.72 7.42 3.72 7.31 3.7 7.24 3.69 7.18 3.67 7.12 3.63 6.94 3.52 6.89 3.27 6.99 3.1 6.99 3.1 7 3.09 7.01 3.09 7.02 3.06 7.03 3.04 7.04 3.02 6.85 3.1 6.64 3.13 6.45 3.05 6.33 3 6.25 2.93 6.19 2.83 6.12 2.75 6.08 2.65 6.1 2.55 6.1 2.52 6.1 2.49 6.1 2.46 5.95 2.57 5.8 2.71 5.63 2.79 5.47 2.87 5.32 2.83 5.16 2.79 4.96 2.74 4.49 2.56 4.65 2.3 4.66 2.29 4.67 2.27 4.69 2.26 4.7 2.25 4.7 2.23 4.69 2.22 4.54 2.32 4.35 2.38 4.17 2.34 4.05 2.32 3.95 2.21 3.91 2.09 3.84 2.28 3.71 2.46 3.52 2.53 3.4 2.57 3.26 2.57 3.15 2.5 3.06 2.44 3.05 2.34 3.01 2.26 2.99 2.48 3.1 2.64 3.36 2.63 3.38 2.63 3.4 2.63 3.42 2.62 3.22 2.82 3.02 3.02 2.82 3.23 2.75 3.33 2.66 3.42 2.56 3.49 2.55 3.5 2.55 3.5 2.54 3.51 2.14 3.92 1.73 4.33 1.39 4.79 1.32 4.75 1.26 4.69 1.21 4.62 1.13 4.46 1.29 4.25 1.43 4.2 1.47 4.19 1.53 4.13 1.49 4.09 1.32 3.92 1.47 3.68 1.58 3.52 1.66 3.42 1.77 3.35 1.89 3.31 1.92 3.3 2.13 3.23 2.17 3.24 2.23 3.33 2.31 3.4 2.41 3.43 2.31 3.37 2.26 3.28 2.23 3.17 2.16 3.04 2.14 2.85 2.19 2.69 2.47 2.58 2.75 2.4 2.95 2.18 3.05 2.07 3.13 1.95 3.2 1.81 3.27 1.67 3.35 1.51 3.5 1.45 3.48 1.57 3.51 1.69 3.62 1.75 3.64 1.76 3.66 1.74 3.65 1.73 3.62 1.63 3.59 1.53 3.61 1.43 3.64 1.3 3.75 1.23 3.86 1.17 3.87 1.16 3.87 1.14 3.86 1.15 3.74 1.17 3.63 1.21 3.56 1.3 3.55 1.28 3.53 1.25 3.52 1.23 3.49 1.18 3.55 1.1 3.58 1.05 3.64 0.98 3.73 0.93 3.81 0.88 3.83 0.88 3.82 0.85 3.8 0.86 3.67 0.91 3.55 0.95 3.48 1.07 3.45 1.11 3.44 1.15 3.44 1.18 3.32 1.19 3.2 1.2 3.07 1.21 3.19 1.16 3.31 1.13 3.4 1.13 3.44 1.13 3.48 1.08 3.44 1.05 3.07 0.8 3.66 0.24 4.04 0.5 4 0.59 3.99 0.7 4 0.81 4 0.81 4 0.81 4.01 0.81 4.07 0.52 4.21 0.18 4.55 0.18 4.76 0.18 4.95 0.28 5.07 0.44 5.09 0.43 5.09 0.42 5.1 0.4 5.17 0.15 5.46 0.06 5.69 0.1 5.87 0.13 5.99 0.31 6.11 0.43 6.12 0.44 6.13 0.45 6.14 0.45 6.35 0.18 6.82 0.16 7.09 0.35 7.27 0.47 7.42 0.65 7.43 0.88 7.43 1.04 7.4 1.2 7.36 1.35 7.45 1.23 7.6 1.12 7.7 1.08 7.82 1.03 7.99 1.02 8.1 1.1 8.22 1.13 8.32 1.2 8.35 1.33 8.29 1.35 8.23 1.38 8.19 1.43 8.16 1.46 8.12 1.51 8.12 1.55 8.25 1.46 8.42 1.42 8.57 1.48 8.83 1.59 8.73 1.89 8.67 2.1 8.68 2.1 8.68 2.1 8.69 2.09 9.17 1.81 9.56 2.41 9.44 2.82 9.34 2.8 9.24 2.77 9.14 2.76 9 2.74 8.82 2.71 8.64 2.71 8.7 2.6 8.69 2.47 8.67 2.33 8.67 2.32 8.66 2.32 8.66 2.33 8.6 2.61 8.45 2.79 8.22 2.93 8.19 2.83 8.12 2.75 8.05 2.67 8.05 2.67 8.04 2.67 8.04 2.68 8.09 2.81 8.1 2.95 8.08 3.09 8.06 3.22 7.96 3.31 7.93 3.44 7.93 3.46 7.95 3.47 7.96 3.46 8.06 3.4 8.13 3.33 8.18 3.25 8.34 3.38 8.47 3.52 8.58 3.7 8.65 3.82 8.7 3.96 8.76 4.1 8.76 4.1 8.75 4.1 8.75 4.1 8.8 4.2 8.82 4.32 8.75 4.42 8.74 4.42 8.73 4.44 8.72 4.45 8.66 4.53 8.57 4.59 8.45 4.54 8.44 4.53 8.43 4.54 8.42 4.55 8.28 4.52 8.13 4.51 8.04 4.62 8.2 4.56 8.39 4.58 8.54 4.7 8.64 4.78 8.71 4.88 8.74 5 8.74 4.86 8.7 4.71 8.6 4.63 8.72 4.6 8.83 4.47 8.85 4.34 8.87 4.37 8.88 4.4 8.9 4.43 9.02 4.65 9.22 4.82 9.45 4.94 9.56 5.15 9.56 5.43 9.31 5.55Z" fill="#FFFFFF"/><path d="M9.33 5.65C9.26 5.66 9.25 5.58 9.31 5.55 9.56 5.43 9.56 5.14 9.44 4.94 9.22 4.82 9.02 4.65 8.9 4.43 8.88 4.4 8.87 4.37 8.85 4.34 8.83 4.47 8.72 4.6 8.6 4.62 8.7 4.7 8.74 4.86 8.74 5 8.71 4.89 8.64 4.78 8.54 4.7 8.39 4.58 8.2 4.56 8.04 4.62 8.14 4.52 8.29 4.52 8.42 4.55 8.43 4.54 8.44 4.53 8.45 4.54 8.57 4.59 8.66 4.53 8.72 4.45 8.73 4.44 8.74 4.42 8.75 4.41 8.82 4.31 8.8 4.2 8.75 4.09 8.75 4.09 8.76 4.09 8.76 4.09 8.7 3.96 8.65 3.82 8.58 3.7 8.47 3.52 8.34 3.38 8.18 3.25 8.13 3.34 8.06 3.4 7.96 3.46 7.95 3.47 7.92 3.46 7.93 3.44 7.96 3.31 8.06 3.22 8.09 3.09 8.11 2.95 8.1 2.81 8.05 2.68 8.05 2.67 8.06 2.67 8.06 2.67 8.13 2.75 8.2 2.84 8.23 2.93 8.46 2.78 8.61 2.6 8.67 2.33 8.67 2.32 8.68 2.32 8.68 2.33 8.69 2.47 8.7 2.6 8.64 2.71 8.82 2.71 9.01 2.75 9.14 2.76 9.24 2.77 9.34 2.8 9.44 2.82 9.46 2.74 9.47 2.66 9.46 2.57 9.33 2.64 9.2 2.67 9.08 2.62 8.81 2.5 8.83 2.18 9.02 2.03 8.92 2.01 8.81 2.03 8.69 2.09 8.68 2.1 8.68 2.1 8.67 2.1 8.71 1.97 8.76 1.8 8.73 1.67 8.73 1.68 8.72 1.69 8.72 1.71 8.7 1.79 8.62 1.9 8.52 1.89 8.47 1.88 8.42 1.87 8.37 1.85 8.56 2.03 8.65 2.28 8.45 2.54 8.37 2.62 8.28 2.66 8.19 2.57 8.12 2.5 8.07 2.42 7.97 2.37 7.91 2.35 7.86 2.33 7.8 2.32 7.92 2.49 7.98 2.68 7.92 2.89 7.85 3.1 7.69 3.32 7.45 3.33 7.28 3.34 7.15 3.16 7.15 3 7.15 2.9 7.17 2.8 7.2 2.7 7.05 2.8 6.85 2.84 6.69 2.82 6.36 2.78 6.22 2.45 6.21 2.14 6.04 2.33 5.78 2.49 5.58 2.53 5.36 2.59 5.09 2.58 4.94 2.38 4.8 2.19 4.8 1.99 4.88 1.8 4.63 1.9 4.37 1.94 4.16 1.89 3.97 1.83 3.74 1.65 3.76 1.43 3.78 1.26 3.87 1.13 4 1.06 3.91 1.07 3.82 1.09 3.73 1.11 3.67 1.12 3.61 1.05 3.66 1 3.82 0.87 4 0.79 4.19 0.8 4.18 0.6 4.23 0.39 4.35 0.23 4.15 0.33 4.05 0.58 4 0.81 4 0.81 3.99 0.81 3.99 0.81 3.99 0.7 4 0.59 4.04 0.5 3.66 0.24 3.07 0.8 3.44 1.05 3.48 1.08 3.44 1.13 3.4 1.13 3.3 1.13 3.19 1.16 3.07 1.21 3.2 1.2 3.32 1.19 3.44 1.18 3.44 1.14 3.46 1.11 3.48 1.07 3.55 0.95 3.67 0.91 3.8 0.86 3.82 0.85 3.83 0.88 3.81 0.89 3.73 0.94 3.64 0.98 3.58 1.05 3.55 1.1 3.49 1.18 3.52 1.23 3.53 1.25 3.55 1.28 3.56 1.3 3.63 1.21 3.73 1.16 3.85 1.13 3.87 1.13 3.87 1.15 3.85 1.15 3.75 1.22 3.64 1.29 3.61 1.42 3.59 1.53 3.61 1.62 3.65 1.72 3.65 1.74 3.63 1.75 3.62 1.74 3.51 1.68 3.48 1.56 3.5 1.44 3.35 1.52 3.26 1.67 3.2 1.81 3.13 1.95 3.05 2.07 2.95 2.18 2.75 2.4 2.47 2.58 2.19 2.69 2.14 2.85 2.16 3.04 2.23 3.17 2.25 3.27 2.31 3.37 2.4 3.43 2.3 3.4 2.22 3.33 2.16 3.24 2.13 3.23 1.92 3.3 1.89 3.31 1.77 3.35 1.66 3.42 1.58 3.52 1.47 3.68 1.32 3.92 1.49 4.09 1.53 4.13 1.47 4.19 1.43 4.2 1.28 4.25 1.13 4.46 1.21 4.62 1.25 4.7 1.31 4.75 1.38 4.79 1.72 4.33 2.13 3.92 2.53 3.51 2.53 3.5 2.54 3.5 2.55 3.49 2.65 3.42 2.74 3.33 2.81 3.23 3.01 3.03 3.21 2.83 3.41 2.62 3.39 2.62 3.37 2.63 3.35 2.63 3.1 2.64 2.99 2.48 3.01 2.26 3.05 2.34 3.06 2.43 3.15 2.5 3.26 2.57 3.4 2.57 3.52 2.52 3.71 2.45 3.84 2.27 3.91 2.08 3.94 2.2 4.05 2.31 4.17 2.34 4.35 2.38 4.54 2.32 4.69 2.21 4.69 2.22 4.69 2.24 4.68 2.25 4.67 2.28 4.66 2.29 4.65 2.3 4.49 2.55 4.96 2.74 5.15 2.79 5.31 2.83 5.46 2.87 5.62 2.79 5.8 2.71 5.95 2.57 6.1 2.45 6.1 2.48 6.1 2.51 6.1 2.54 6.07 2.64 6.12 2.75 6.19 2.83 6.25 2.93 6.33 3 6.45 3.05 6.64 3.13 6.85 3.1 7.04 3.02 7.02 3.04 7.01 3.06 7.01 3.09 7 3.09 6.99 3.1 6.99 3.1 6.89 3.27 6.94 3.52 7.12 3.63 7.18 3.67 7.24 3.69 7.31 3.7 7.42 3.73 7.55 3.72 7.67 3.69 7.67 3.72 7.68 3.76 7.68 3.79 7.67 5.09 7.58 6.4 6.84 7.51 6.78 7.6 6.71 7.69 6.64 7.78 6.73 7.88 6.89 7.93 7.02 7.89 7.19 7.85 7.26 7.73 7.29 7.57 7.3 7.53 7.35 7.51 7.38 7.53 7.73 7.71 8.19 7.46 8.31 7.1 8.31 7.1 8.31 7.1 8.31 7.1 8.16 7.18 8.01 7.11 7.9 7.01 7.98 7.04 8.07 7.05 8.16 7.03 8.23 7.02 8.3 6.99 8.36 6.94 8.49 6.85 8.55 6.72 8.58 6.58 8.58 6.58 8.58 6.58 8.59 6.59 8.68 6.73 8.59 6.89 8.46 7 8.67 7.01 8.99 6.87 8.86 6.61 8.84 6.57 8.9 6.53 8.94 6.55 9.16 6.68 9.42 6.51 9.55 6.32 9.67 6.13 9.7 5.61 9.33 5.65Z" fill="#DDC5AC" opacity="0.4"/><path d="M3.15 2.5C3.26 2.57 3.4 2.57 3.52 2.52 3.58 2.5 3.63 2.47 3.68 2.44 3.57 2.4 3.47 2.33 3.4 2.24 3.23 2.04 3.25 1.76 3.37 1.55 3.29 1.62 3.24 1.72 3.2 1.81 3.13 1.95 3.05 2.07 2.95 2.18 2.9 2.24 2.84 2.29 2.78 2.34 2.76 2.51 2.78 2.68 2.93 2.78 2.96 2.8 2.97 2.83 2.95 2.87 2.83 3.11 2.42 3.26 2.19 3.05 2.18 3.05 2.18 3.04 2.18 3.04 2.19 3.09 2.21 3.14 2.23 3.18 2.25 3.28 2.31 3.38 2.4 3.44 2.3 3.41 2.22 3.34 2.16 3.25 2.14 3.23 1.93 3.29 1.89 3.31 2.06 3.31 2.21 3.38 2.22 3.57 2.24 3.74 2.15 3.87 2.06 4 2.22 3.83 2.38 3.67 2.54 3.5 2.54 3.49 2.55 3.49 2.56 3.48 2.66 3.41 2.75 3.32 2.82 3.22 3.02 3.02 3.22 2.82 3.42 2.61 3.4 2.61 3.38 2.62 3.36 2.62 3.1 2.64 2.99 2.48 3.01 2.26 3.05 2.34 3.06 2.43 3.15 2.5Z" fill="#DDC5AC" opacity="0.6"/><path d="M7.69 6.27C7.7 6.25 7.73 6.23 7.76 6.24 8.04 6.35 8.35 6.48 8.61 6.23 8.68 6.16 8.73 6.09 8.78 6.01 8.64 6.11 8.47 6.16 8.29 6.15 8.04 6.14 7.82 5.94 7.82 5.69 7.82 5.37 8 5.08 8.32 4.99 8.54 4.93 8.75 4.97 8.87 5.13 8.87 4.99 8.8 4.84 8.86 4.7 8.88 4.65 8.94 4.61 9 4.57 8.96 4.53 8.93 4.48 8.9 4.43 8.89 4.4 8.87 4.38 8.86 4.35 8.86 4.35 8.85 4.35 8.85 4.36 8.82 4.48 8.72 4.6 8.6 4.62 8.7 4.7 8.74 4.86 8.74 5 8.71 4.89 8.64 4.78 8.54 4.7 8.39 4.58 8.2 4.56 8.04 4.62 8.14 4.52 8.29 4.52 8.42 4.55 8.43 4.54 8.44 4.53 8.45 4.54 8.57 4.59 8.66 4.53 8.72 4.45 8.73 4.44 8.74 4.43 8.75 4.42 8.56 4.51 8.37 4.53 8.2 4.41 8.03 4.3 7.93 4.1 8.02 3.91 8.11 3.72 8.29 3.62 8.48 3.56 8.39 3.44 8.29 3.35 8.18 3.25 8.13 3.34 8.06 3.4 7.96 3.46 7.95 3.47 7.92 3.46 7.93 3.44L7.93 3.44C7.79 3.56 7.59 3.64 7.37 3.61 7.19 3.59 7.05 3.51 6.95 3.4 6.97 3.5 7.03 3.58 7.11 3.64 7.18 3.67 7.24 3.69 7.31 3.7 7.42 3.73 7.55 3.72 7.67 3.69 7.67 3.72 7.68 3.76 7.68 3.79 7.67 5.09 7.58 6.4 6.84 7.51 6.78 7.6 6.71 7.69 6.64 7.78 6.73 7.88 6.89 7.93 7.02 7.89 7.19 7.85 7.26 7.73 7.29 7.57 7.3 7.53 7.35 7.51 7.38 7.53 7.73 7.71 8.19 7.46 8.31 7.1 8.31 7.1 8.31 7.1 8.31 7.1 8.16 7.18 8.01 7.11 7.9 7.01 7.98 7.04 8.07 7.05 8.16 7.03 8.23 7.02 8.3 6.99 8.36 6.94 8.44 6.88 8.5 6.79 8.54 6.7 8.15 7 7.32 6.83 7.69 6.27Z" fill="#DDC5AC" opacity="0.6"/><path d="M11.2 4.95C11.16 4.99 11.09 5 11.04 5.01 10.52 5.13 9.99 5.03 9.55 4.76 9.34 4.63 9.18 4.48 9.05 4.29 8.97 4.22 8.91 4.14 8.88 4.05 8.86 4 8.83 3.95 8.8 3.9 8.65 3.62 8.47 3.36 8.2 3.19 8.22 3.16 8.23 3.13 8.23 3.1 8.24 3.06 8.24 3.02 8.23 2.98 8.36 2.96 8.47 2.92 8.57 2.82 8.58 2.8 8.59 2.79 8.61 2.77 8.84 2.78 9.1 2.86 9.26 2.9 9.29 2.91 9.33 2.92 9.36 2.93 9.4 2.93 9.43 2.94 9.46 2.96 9.79 3.07 10.1 3.24 10.34 3.49 10.59 3.75 10.71 4.12 10.86 4.44 10.92 4.57 10.97 4.7 11.08 4.8 11.09 4.82 11.24 4.91 11.2 4.95Z" fill="#FFD4C5"/><path d="M3.53 1.34C3.47 1.3 3.44 1.25 3.44 1.2 3.44 1.2 3.43 1.21 3.43 1.21 3.41 1.22 3.39 1.23 3.37 1.23 3.4 1.26 3.4 1.31 3.36 1.34 3.14 1.5 2.86 1.44 2.61 1.5 2.28 1.58 2.04 1.78 1.76 1.95 1.51 2.12 1.24 2.24 0.93 2.28 0.67 2.32 0.36 2.28 0.11 2.37 0.11 2.39 0.1 2.4 0.1 2.42 0.05 2.56 0.34 2.52 0.39 2.53 0.47 2.54 0.55 2.54 0.63 2.56 1.16 2.64 1.67 2.66 2.15 2.5 2.22 2.5 2.32 2.44 2.37 2.42 2.39 2.4 2.41 2.39 2.43 2.38 2.48 2.36 2.54 2.32 2.57 2.31 2.68 2.25 2.78 2.18 2.86 2.09 2.95 2.01 3.03 1.93 3.09 1.83 3.14 1.74 3.2 1.65 3.26 1.57 3.31 1.5 3.37 1.45 3.44 1.41 3.46 1.41 3.48 1.4 3.51 1.41 3.51 1.4 3.51 1.39 3.52 1.37 3.53 1.36 3.53 1.35 3.53 1.34 3.54 1.34 3.53 1.34 3.53 1.34Z" fill="#D6735C"/><path d="M10.93 4.9C10.75 4.76 10.65 4.56 10.54 4.36 10.42 4.14 10.27 3.95 10.07 3.8 9.85 3.63 9.59 3.5 9.34 3.38 9.16 3.3 8.94 3.23 8.79 3.1 8.66 2.99 8.61 2.86 8.72 2.78 8.68 2.78 8.65 2.77 8.61 2.77 8.59 2.79 8.58 2.8 8.57 2.82 8.47 2.92 8.37 2.96 8.23 2.98 8.24 3.02 8.24 3.06 8.23 3.1 8.23 3.13 8.22 3.16 8.21 3.19 8.47 3.36 8.66 3.62 8.8 3.9 8.83 3.95 8.86 4 8.88 4.05 8.91 4.15 8.97 4.22 9.04 4.29 9.17 4.47 9.33 4.63 9.54 4.76 9.99 5.03 10.52 5.13 11.03 5.01 11.05 5.01 11.06 5 11.08 5 11.03 4.97 10.98 4.94 10.93 4.9Z" fill="#D6735C"/><path d="M3.05 1.44C2.65 1.32 2.19 1.69 1.88 1.88 1.63 2.04 1.4 2.21 1.11 2.3 0.82 2.39 0.5 2.38 0.2 2.33 0.2 2.33 0.19 2.33 0.19 2.33 0.19 2.34 0.19 2.35 0.2 2.36 0.2 2.36 0.2 2.36 0.2 2.36 0.2 2.35 0.44 2.41 0.46 2.41 0.58 2.44 0.7 2.44 0.82 2.43 1.04 2.41 1.26 2.33 1.45 2.23 1.91 1.98 2.33 1.59 2.85 1.49 2.74 1.78 2.56 1.99 2.32 2.18 2.32 2.18 2.32 2.19 2.32 2.19 2.47 2.14 2.59 2.06 2.69 1.95 2.81 1.83 2.84 1.64 2.89 1.48 2.94 1.47 2.98 1.47 3.03 1.46 3.05 1.47 3.07 1.44 3.05 1.44Z" fill="#AF705A"/><path d="M10.74 4.81C10.61 4.4 10.32 4.01 9.99 3.73 9.58 3.37 9.03 3.29 8.57 3.02 8.56 3.02 8.56 3.02 8.56 3.03 8.56 3.04 8.57 3.04 8.57 3.05 8.57 3.05 8.57 3.05 8.57 3.05 8.59 3.1 8.69 3.16 8.73 3.2 8.73 3.2 8.74 3.2 8.74 3.21 8.79 3.28 8.8 3.39 8.81 3.46 8.83 3.55 8.87 3.66 8.92 3.74 9.06 3.99 9.3 4.16 9.47 4.39 9.48 4.4 9.5 4.39 9.49 4.38 9.34 4.09 9.08 3.88 8.95 3.58 8.92 3.5 8.9 3.38 8.86 3.28 8.93 3.33 9 3.36 9.07 3.39 9.28 3.49 9.51 3.57 9.73 3.68 10.18 3.91 10.54 4.34 10.73 4.81 10.73 4.82 10.74 4.81 10.74 4.81Z" fill="#AF705A"/></g><path d="M4.05 3.15C4.07 2.98 4 2.84 3.84 2.77 3.68 2.7 3.51 2.86 3.41 2.96 3.36 3.01 3.4 3.12 3.47 3.07 3.54 3.03 3.65 2.96 3.73 3 3.77 3.02 3.8 3.08 3.83 3.12 3.86 3.16 3.91 3.18 3.95 3.2 3.99 3.22 4.04 3.2 4.05 3.15Z" fill="#AF705A"/><path d="M6.34 3.74C6.37 3.54 6.29 3.36 6.09 3.3 5.94 3.26 5.66 3.37 5.63 3.53 5.62 3.55 5.64 3.57 5.66 3.57 5.78 3.58 5.9 3.48 6.02 3.52 6.12 3.55 6.19 3.71 6.27 3.77 6.29 3.79 6.34 3.77 6.34 3.74Z" fill="#AF705A"/><path d="M3.71 3.65C3.67 3.6 3.62 3.56 3.57 3.54 3.52 3.51 3.45 3.5 3.37 3.52 3.02 3.6 2.74 3.82 2.52 4.08 2.34 4.29 2.13 4.58 2.12 4.86 2.12 4.89 2.12 4.91 2.12 4.94 2.05 4.88 1.97 4.84 1.88 4.81 1.88 4.81 1.87 4.81 1.87 4.81 2.01 4.92 2.15 5.04 2.25 5.18 2.3 5.26 2.34 5.33 2.37 5.41 2.39 5.41 2.41 5.39 2.4 5.37 2.39 5.34 2.38 5.31 2.37 5.28 2.43 5.31 2.49 5.34 2.56 5.35 3.11 5.5 3.56 4.94 3.71 4.48 3.78 4.24 3.88 3.88 3.71 3.65Z" fill="#AF705A"/><path d="M3.58 4.58C3.42 4.96 3.06 5.37 2.6 5.28 2.34 5.23 2.16 5.06 2.23 4.78 2.28 4.56 2.44 4.35 2.58 4.18 2.73 3.98 2.93 3.82 3.15 3.7 3.26 3.64 3.4 3.58 3.53 3.6 3.63 3.66 3.7 3.79 3.71 3.9 3.74 4.12 3.66 4.37 3.58 4.58Z" fill="#FFFFFF"/><g><path d="M5.4 7.31C5.25 7.25 5.11 7.17 5.07 7.02 5.07 7.02 5.07 7.03 5.07 7.03 5.1 7.2 5.23 7.31 5.37 7.38 5.45 7.56 5.26 7.74 5.1 7.83 4.87 7.97 4.57 8.06 4.32 8.14 3.98 8.24 3.67 8.24 3.37 8.04 3.12 7.88 2.94 7.6 2.93 7.31 3.14 7.35 3.72 7.42 3.6 7.18 3.53 7.05 3.28 6.94 3.16 6.88 3.05 6.82 2.93 6.79 2.81 6.78 2.64 6.73 2.41 6.69 2.32 6.81 2.13 7.04 2.73 7.26 2.87 7.3 2.87 7.3 2.88 7.3 2.89 7.3 2.84 7.55 2.74 7.89 2.42 7.8 2.34 7.78 2.26 7.73 2.18 7.68 2.06 7.63 1.96 7.56 1.86 7.48 1.75 7.39 1.62 7.29 1.55 7.16 1.5 7.05 1.52 6.96 1.56 6.88 1.58 6.83 1.62 6.79 1.69 6.75 1.69 6.75 1.7 6.75 1.7 6.75 1.75 6.72 1.8 6.69 1.85 6.67 1.65 6.7 1.4 6.76 1.42 7 1.44 7.28 1.69 7.49 1.89 7.66 2.02 7.77 2.21 7.89 2.4 7.91 2.4 7.91 2.41 7.92 2.41 7.92 2.51 7.96 2.57 8.07 2.65 8.14 2.77 8.24 2.93 8.3 3.07 8.35 3.33 8.44 3.6 8.36 3.85 8.28 3.85 8.28 3.86 8.27 3.86 8.27 4.06 8.27 4.26 8.21 4.45 8.15 4.76 8.04 5.13 7.95 5.36 7.71 5.42 7.64 5.47 7.52 5.46 7.42 5.6 7.46 5.75 7.47 5.87 7.43 5.89 7.43 5.89 7.41 5.9 7.4 5.73 7.41 5.57 7.38 5.4 7.31Z" fill="#AF705A"/><path d="M2.85 7.19C2.75 7.16 2.23 6.86 2.49 6.83 2.49 6.83 2.49 6.83 2.49 6.83 2.5 6.83 2.51 6.83 2.53 6.83 2.64 6.83 2.75 6.85 2.86 6.86 3.04 6.92 3.22 7.02 3.4 7.14 3.45 7.17 3.48 7.2 3.52 7.24 3.54 7.26 3.34 7.28 3.3 7.28 3.15 7.28 2.99 7.24 2.85 7.19Z" fill="#D85961"/><path d="M3.05 8.23C2.93 8.18 2.79 8.1 2.68 8.02 2.62 7.98 2.58 7.93 2.53 7.9 2.55 7.9 2.56 7.89 2.58 7.89 2.68 7.86 2.74 7.8 2.79 7.71 2.83 7.65 2.85 7.57 2.87 7.5 2.91 7.78 3.16 8.07 3.4 8.18 3.5 8.23 3.61 8.25 3.71 8.26 3.49 8.28 3.28 8.3 3.05 8.23Z" fill="#D85961"/><path d="M3.4 8.18C3.15 8.07 2.9 7.78 2.87 7.5 2.85 7.57 2.83 7.65 2.79 7.71 2.73 7.8 2.67 7.86 2.58 7.89 2.56 7.9 2.54 7.9 2.53 7.91 2.55 7.92 2.56 7.93 2.58 7.94 2.75 7.88 2.91 7.84 3.06 8.01 3.13 8.08 3.16 8.17 3.18 8.25 3.36 8.29 3.54 8.27 3.72 8.25 3.61 8.25 3.51 8.23 3.4 8.18Z" fill="#975961" opacity="0.6"/></g><g><path d="M5.42 6.1C5.34 6.17 5.26 6.25 5.2 6.33 5.29 6.25 5.4 6.19 5.53 6.16 5.76 6.04 6.03 6.01 6.32 6.04 6.35 6.04 6.38 6.03 6.41 6.03 6.24 5.98 6.08 5.92 5.92 5.91 6.15 5.7 6.3 5.35 6.34 5.09 6.39 4.78 6.31 4.46 6.14 4.2 5.99 3.99 5.76 4.01 5.56 4.11 5.54 4.12 5.52 4.13 5.5 4.14 5.25 4.26 5.07 4.53 4.93 4.76 4.8 4.97 4.68 5.25 4.73 5.5 4.79 5.78 5.01 5.97 5.27 6.07 5.32 6.08 5.37 6.1 5.42 6.1Z" fill="#AF705A"/><path d="M4.97 4.84C5.08 4.66 5.22 4.49 5.38 4.35 5.47 4.27 5.57 4.21 5.68 4.16 5.7 4.15 5.73 4.14 5.76 4.14 5.8 4.14 5.84 4.13 5.88 4.14 5.99 4.16 6.07 4.24 6.15 4.33 6.15 4.34 6.16 4.34 6.16 4.35 6.27 4.57 6.3 4.85 6.27 5.1 6.21 5.64 5.75 6.19 5.21 5.95 4.75 5.74 4.72 5.25 4.97 4.84Z" fill="#FFFFFF"/><g><path d="M3.44 4.89C3.24 5.18 2.94 5.31 2.76 5.18 2.57 5.06 2.59 4.73 2.79 4.44 2.99 4.15 3.29 4.02 3.47 4.15 3.65 4.27 3.64 4.61 3.44 4.89Z" fill="#005688"/><path d="M3.39 4.86C3.22 5.1 2.96 5.22 2.81 5.11 2.66 5.01 2.67 4.72 2.84 4.48 3.01 4.24 3.27 4.12 3.42 4.23 3.57 4.33 3.56 4.61 3.39 4.86Z" fill="#009FBC"/><path d="M3.3 4.81C3.2 4.98 3.03 5.07 2.92 5.01 2.81 4.95 2.81 4.76 2.91 4.59 3.01 4.42 3.18 4.33 3.29 4.39 3.4 4.45 3.4 4.64 3.3 4.81Z" fill="#001D3B"/><path d="M3.45 4.56C3.43 4.64 3.38 4.7 3.32 4.69 3.27 4.68 3.24 4.6 3.26 4.51 3.28 4.42 3.34 4.36 3.39 4.38 3.45 4.39 3.47 4.47 3.45 4.56Z" fill="#FFFFFF"/><path d="M3.3 4.93C3.27 4.98 3.23 5.01 3.2 4.99 3.17 4.97 3.17 4.92 3.2 4.87 3.22 4.82 3.27 4.79 3.3 4.81 3.33 4.83 3.33 4.88 3.3 4.93Z" fill="#FFFFFF"/></g><g><path d="M6.16 5.48C6.02 5.8 5.75 5.99 5.55 5.9 5.35 5.81 5.3 5.48 5.44 5.16 5.58 4.84 5.85 4.65 6.05 4.74 6.25 4.83 6.3 5.16 6.16 5.48Z" fill="#005688"/><path d="M6.11 5.45C5.99 5.73 5.76 5.89 5.58 5.82 5.42 5.74 5.37 5.46 5.49 5.19 5.61 4.92 5.84 4.75 6.01 4.83 6.18 4.9 6.22 5.18 6.11 5.45Z" fill="#009FBC"/><path d="M6.01 5.45C5.95 5.63 5.8 5.75 5.68 5.71 5.56 5.67 5.52 5.48 5.59 5.3 5.65 5.11 5.8 4.99 5.92 5.03 6.04 5.07 6.08 5.26 6.01 5.45Z" fill="#001D3B"/><path d="M6.11 5.16C6.11 5.25 6.06 5.32 6.01 5.32 5.95 5.32 5.91 5.25 5.91 5.16 5.91 5.07 5.96 5 6.01 5 6.07 5 6.11 5.07 6.11 5.16Z" fill="#FFFFFF"/><path d="M6.04 5.56C6.02 5.61 5.97 5.64 5.94 5.63 5.91 5.62 5.9 5.57 5.91 5.52 5.93 5.47 5.97 5.43 6.01 5.44 6.04 5.45 6.06 5.5 6.04 5.56Z" fill="#FFFFFF"/></g></g></g><path d="M2.51 1.39C2.12 1.4 1.74 1.47 1.37 1.58 1.02 1.69 0.77 1.89 0.48 2.11 0.47 2.11 0.48 2.12 0.48 2.12 1.12 1.74 1.82 1.67 2.52 1.44 2.55 1.43 2.54 1.39 2.51 1.39Z" fill="#FFEDE9"/><path d="M10.89 4.72C10.68 4.28 10.58 3.82 10.22 3.47 9.82 3.08 9.33 3.01 8.82 2.87 8.8 2.86 8.79 2.89 8.81 2.9 9.26 3.13 9.73 3.25 10.12 3.6 10.29 3.75 10.42 3.93 10.54 4.12 10.67 4.32 10.7 4.57 10.88 4.73 10.88 4.74 10.9 4.73 10.89 4.72Z" fill="#FFEDE9"/><path d="M4.16 5.16C3.97 5.56 3.84 5.98 3.75 6.41 3.71 6.62 3.67 6.85 3.67 7.08 3.56 6.98 3.45 6.9 3.4 6.86 3.17 6.72 2.89 6.67 2.63 6.66 2.53 6.66 2.42 6.67 2.33 6.72 2.3 6.72 2.26 6.73 2.23 6.74 3.06 6.27 3.81 4.74 4.08 3.86 4.15 3.62 4.27 3.31 4.23 3.04 4.39 3.08 4.54 3.2 4.67 3.28 4.79 3.35 4.93 3.37 5.06 3.38 5.26 3.4 5.49 3.38 5.67 3.45 4.98 3.79 4.49 4.49 4.16 5.16Z" fill="#FFEDE9" opacity="0.7"/><path d="M3.15 7.03C2.95 6.93 2.69 6.83 2.46 6.88 2.45 6.88 2.45 6.9 2.46 6.9 2.71 6.91 2.9 7.03 3.14 7.08 3.17 7.09 3.18 7.04 3.15 7.03Z" fill="#EB969D"/><path d="M3.34 7.2C3.31 7.16 3.28 7.12 3.24 7.09 3.22 7.08 3.2 7.09 3.19 7.1 3.19 7.11 3.19 7.12 3.19 7.13 3.19 7.14 3.2 7.16 3.21 7.16 3.25 7.17 3.29 7.19 3.33 7.21 3.34 7.22 3.35 7.21 3.34 7.2Z" fill="#EB969D"/><path d="M2.46 7.66C2.19 7.56 1.63 7.3 1.69 6.93 1.69 6.91 1.67 6.9 1.66 6.92 1.53 7.31 2.13 7.67 2.44 7.71 2.48 7.71 2.49 7.67 2.46 7.66Z" fill="#FFEDE9"/><path d="M5.07 7.64C4.87 7.82 4.58 7.88 4.32 7.94 4.05 8.01 3.67 8.07 3.43 7.92 3.41 7.91 3.4 7.93 3.41 7.94 3.6 8.15 4.01 8.1 4.26 8.04 4.42 8 4.58 7.95 4.74 7.88 4.86 7.83 5 7.77 5.09 7.67 5.1 7.65 5.08 7.63 5.07 7.64Z" fill="#FFEDE9"/><path d="M3.48 2.74C3.14 3.05 2.83 3.39 2.52 3.73 2.24 4.02 1.96 4.32 1.71 4.63 1.47 4.92 1.26 5.25 1.14 5.61 1.02 5.97 1.03 6.34 1.14 6.7 1.15 6.71 1.16 6.71 1.16 6.7 0.99 5.91 1.33 5.22 1.82 4.63 2.06 4.34 2.33 4.07 2.59 3.79 2.72 3.64 2.84 3.49 2.97 3.34 3.14 3.14 3.34 2.97 3.5 2.77 3.51 2.75 3.49 2.72 3.48 2.74Z" fill="#FFEDE9"/><path d="M5.71 6.01C6.15 5.88 6.58 6.01 6.66 6.3 6.75 6.59 6.45 6.92 6.01 7.05 5.57 7.18 5.14 7.05 5.06 6.77 4.98 6.48 5.27 6.14 5.71 6.01Z" fill="#EB969D" opacity="0.5"/><path d="M2.31 5.25C2.45 5.59 2.35 5.97 2.08 6.09 1.81 6.2 1.47 6.01 1.32 5.67 1.18 5.32 1.28 4.95 1.55 4.83 1.83 4.72 2.17 4.9 2.31 5.25Z" fill="#EB969D" opacity="0.5"/><path d="M3.71 3.9C3.7 3.79 3.63 3.66 3.53 3.6 3.5 3.6 3.47 3.6 3.44 3.6 3.71 3.81 3.55 4.27 3.43 4.53 3.28 4.85 3 5.2 2.6 5.14 2.28 5.1 2.29 4.72 2.38 4.48 2.38 4.47 2.39 4.45 2.4 4.43 2.33 4.54 2.26 4.66 2.23 4.79 2.16 5.06 2.34 5.24 2.6 5.28 3.06 5.36 3.42 4.96 3.58 4.57 3.66 4.37 3.74 4.12 3.71 3.9Z" fill="#BFB6AF" opacity="0.4"/><path d="M6.15 4.35C6.15 4.34 6.14 4.34 6.14 4.33 6.07 4.23 5.98 4.16 5.87 4.14 5.83 4.13 5.79 4.14 5.75 4.14 5.74 4.14 5.73 4.14 5.72 4.15 5.74 4.16 5.75 4.17 5.76 4.18 5.86 4.17 5.97 4.22 6.06 4.38 6.3 4.76 5.98 5.44 5.67 5.68 5.34 5.93 4.97 5.78 4.97 5.36 4.97 4.9 5.21 4.51 5.56 4.23 5.5 4.25 5.43 4.3 5.37 4.35 5.22 4.49 5.07 4.66 4.96 4.84 4.71 5.25 4.74 5.74 5.2 5.95 5.74 6.2 6.2 5.64 6.26 5.11 6.3 4.85 6.27 4.57 6.15 4.35Z" fill="#BFB6AF" opacity="0.4"/></g></g></svg>