<svg width="84.72" height="143.93" viewBox="0 0 84.72 143.93" xmlns="http://www.w3.org/2000/svg" xmlns:xlink="http://www.w3.org/1999/xlink" xml:space="preserve" overflow="hidden"><defs></defs><g><g><g><path d="M0.5 101.56 42.36 0.5 42.36 0.52 42.36 101.56Z" fill="#BDF9F6"/></g><g><path d="M42.36 101.56 42.36 0.52 42.37 101.56 84.22 101.56 42.37 143.43 0.5 101.56Z" fill="#FFFFFF"/></g><g><path d="M42.36 0.52 42.36 0.5 42.37 0.52 84.22 101.56 42.37 101.56Z" fill="#BDF9F6"/></g><g><path d="M42.37 143.93C42.09 143.93 41.87 143.71 41.87 143.43L41.87 140.43C41.87 140.15 42.09 139.93 42.37 139.93 42.65 139.93 42.87 140.15 42.87 140.43L42.87 143.43C42.87 143.7 42.64 143.93 42.37 143.93ZM42.37 137.93C42.09 137.93 41.87 137.71 41.87 137.43L41.87 134.43C41.87 134.15 42.09 133.93 42.37 133.93 42.65 133.93 42.87 134.15 42.87 134.43L42.87 137.43C42.87 137.7 42.64 137.93 42.37 137.93ZM42.37 131.93C42.09 131.93 41.87 131.71 41.87 131.43L41.87 128.43C41.87 128.15 42.09 127.93 42.37 127.93 42.65 127.93 42.87 128.15 42.87 128.43L42.87 131.43C42.87 131.7 42.64 131.93 42.37 131.93ZM42.37 125.93C42.09 125.93 41.87 125.71 41.87 125.43L41.87 122.43C41.87 122.15 42.09 121.93 42.37 121.93 42.65 121.93 42.87 122.15 42.87 122.43L42.87 125.43C42.87 125.7 42.64 125.93 42.37 125.93ZM42.37 119.93C42.09 119.93 41.87 119.71 41.87 119.43L41.87 116.43C41.87 116.15 42.09 115.93 42.37 115.93 42.65 115.93 42.87 116.15 42.87 116.43L42.87 119.43C42.87 119.7 42.64 119.93 42.37 119.93ZM42.37 113.93C42.09 113.93 41.87 113.71 41.87 113.43L41.87 110.43C41.87 110.15 42.09 109.93 42.37 109.93 42.65 109.93 42.87 110.15 42.87 110.43L42.87 113.43C42.87 113.7 42.64 113.93 42.37 113.93ZM42.37 107.93C42.09 107.93 41.87 107.71 41.87 107.43L41.87 104.43C41.87 104.15 42.09 103.93 42.37 103.93 42.65 103.93 42.87 104.15 42.87 104.43L42.87 107.43C42.87 107.7 42.64 107.93 42.37 107.93Z" fill="#7A7A9A"/></g><g><path d="M42.36 102.06 0.5 102.06C0.33 102.06 0.18 101.98 0.08 101.84-0.01 101.7-0.03 101.53 0.03 101.37L41.89 0.31C41.98 0.09 42.21-0.04 42.45 0.01 42.68 0.06 42.85 0.26 42.85 0.5L42.85 101.56C42.86 101.84 42.63 102.06 42.36 102.06ZM1.25 101.06 41.86 101.06 41.86 3.01 1.25 101.06Z" fill="#292764"/></g><g><path d="M84.22 102.06 42.37 102.06C42.09 102.06 41.87 101.84 41.87 101.56L41.86 0.52 41.86 0.52 41.86 0.5C41.86 0.27 42.02 0.06 42.25 0.01 42.48-0.04 42.71 0.07 42.81 0.28L84.69 101.36C84.75 101.51 84.74 101.69 84.64 101.83 84.55 101.98 84.39 102.06 84.22 102.06ZM42.87 101.06 83.48 101.06 42.86 3.01 42.87 101.06Z" fill="#292764"/></g><g><path d="M42.37 143.93C42.24 143.93 42.11 143.88 42.02 143.78L0.15 101.91C0.01 101.77-0.04 101.55 0.04 101.37 0.12 101.18 0.3 101.06 0.5 101.06L41.86 101.06 41.86 0.52C41.86 0.24 42.08 0.02 42.36 0.02 42.64 0.02 42.86 0.24 42.86 0.52L42.87 101.06 84.23 101.06C84.43 101.06 84.61 101.18 84.69 101.37 84.77 101.56 84.72 101.77 84.58 101.91L42.72 143.78C42.63 143.87 42.5 143.93 42.37 143.93ZM1.71 102.06 42.37 142.72 83.02 102.06 42.37 102.06C42.37 102.06 42.36 102.06 42.36 102.06L1.71 102.06Z" fill="#292764"/></g></g><g><g><path d="M51.02 55.18C50.83 55.18 50.64 55.11 50.49 54.96 50.2 54.67 50.2 54.19 50.49 53.9L61.97 42.42C66.92 37.47 74.97 37.47 79.92 42.42 80.21 42.71 80.21 43.19 79.92 43.48 79.63 43.77 79.15 43.77 78.86 43.48 74.5 39.11 67.39 39.12 63.03 43.48L51.55 54.96C51.4 55.1 51.21 55.18 51.02 55.18Z" fill="#292764"/></g><g><path d="M59.82 55.33 50.77 55.33C50.36 55.33 50.02 54.99 50.02 54.58L50.02 45.73C50.02 45.32 50.36 44.98 50.77 44.98 51.18 44.98 51.52 45.32 51.52 45.73L51.52 53.83 59.82 53.83C60.23 53.83 60.57 54.17 60.57 54.58 60.57 55 60.23 55.33 59.82 55.33Z" fill="#292764"/></g></g><g><g><path d="M33.71 55.18C33.52 55.18 33.33 55.11 33.18 54.96L21.71 43.48C19.61 41.38 16.8 40.22 13.8 40.22 10.8 40.22 7.99 41.38 5.89 43.48 5.6 43.77 5.12 43.77 4.83 43.48 4.54 43.19 4.54 42.71 4.83 42.42 7.22 40.03 10.41 38.72 13.8 38.72 17.2 38.72 20.39 40.03 22.77 42.42L34.24 53.9C34.53 54.19 34.53 54.67 34.24 54.96 34.1 55.1 33.91 55.18 33.71 55.18Z" fill="#292764"/></g><g><path d="M33.97 55.33 24.92 55.33C24.51 55.33 24.17 54.99 24.17 54.58 24.17 54.17 24.51 53.83 24.92 53.83L33.22 53.83 33.22 45.73C33.22 45.32 33.56 44.98 33.97 44.98 34.38 44.98 34.72 45.32 34.72 45.73L34.72 54.58C34.72 55 34.38 55.33 33.97 55.33Z" fill="#292764"/></g></g></g></svg>