<svg width="155.52" height="63.42" viewBox="0 0 155.52 63.42" xmlns="http://www.w3.org/2000/svg" xmlns:xlink="http://www.w3.org/1999/xlink" xml:space="preserve" overflow="hidden"><defs></defs><g><g><g><path d="M140.56 63.11 14.95 63.11 77.76 0.31Z" stroke="#435791" stroke-width="0.6179" stroke-linecap="round" stroke-linejoin="round" stroke-miterlimit="10" fill="#8EA7E8"/><path d="M140.56 63.11 118.04 41.65 36.18 41.89 14.95 63.11Z" fill="#8EA7E8" opacity="0.2"/></g><g><path d="M0.31 43.71 14.96 63.11 140.56 63.11 155.21 43.71Z" stroke="#435791" stroke-width="0.6179" stroke-linecap="round" stroke-linejoin="round" stroke-miterlimit="10" fill="#8EA7E8"/></g></g><g><g><path d="M68.71 41.07C68.56 44.73 64.87 55.84 51.88 52.1" stroke="#435791" stroke-width="0.821" stroke-miterlimit="10" fill="none"/><path d="M68.54 42.2 67.04 41.96 68 40.78 68.96 39.61 69.49 41.03 70.03 42.44Z" fill="#435791"/></g><g><g><g><line x1="77.76" y1="63.1" x2="77.76" y2="60.22" stroke="#435791" stroke-width="0.821" stroke-miterlimit="10" fill="none"/><line x1="77.76" y1="53.92" x2="77.76" y2="6.7" stroke="#435791" stroke-width="0.821" stroke-miterlimit="10" stroke-dasharray="6.2958 6.2958" fill="none"/><line x1="77.76" y1="3.55" x2="77.76" y2="0.67" stroke="#435791" stroke-width="0.821" stroke-miterlimit="10" fill="none"/></g></g><line x1="46.29" y1="31.86" x2="77.64" y2="62.25" stroke="#435791" stroke-width="0.821" stroke-miterlimit="10" stroke-dasharray="5.7737" fill="none"/></g></g></g></svg>