<svg width="94.6" height="217.04" viewBox="0 0 94.6 217.04" xmlns="http://www.w3.org/2000/svg" xmlns:xlink="http://www.w3.org/1999/xlink" xml:space="preserve" overflow="hidden"><defs></defs><g id="XMLID_132_"><g id="XMLID_247_"><path d="M84.55 104.83C83.68 104.75 82.74 104.68 81.75 104.59 73.25 103.89 61.61 102.93 55.21 99.17 47.71 94.76 41.67 83.83 40.17 75.81L48.03 74.33C49.16 80.36 54.05 89.21 59.26 92.27 64.08 95.11 75.11 96.02 82.4 96.62 83.4 96.7 84.36 96.78 85.25 96.86L84.55 104.83Z" id="XMLID_248_" fill="#F8BFA3"/></g><g id="XMLID_137_"><g id="XMLID_238_"><g id="XMLID_245_"><path d="M53.93 112.45C43.4 115.16 32.58 116.28 21.69 115.78L21.03 130.2C31.91 130.7 42.73 129.77 53.31 127.44 54.06 122.54 54 117.43 53.93 112.45Z" id="XMLID_246_" fill="#003558"/></g><g id="XMLID_243_"><path d="M74.59 117.14C73.26 113.33 69.63 110.66 65.33 110.34 62.77 110.15 60.65 110.79 59.11 111.25L59.01 111.28C57.6 111.7 56.19 112.09 54.77 112.46 54.84 117.44 54.9 122.55 54.14 127.45 55.6 127.13 57.06 126.78 58.52 126.41 55.16 135.32 51.81 143.71 46.41 151.58L57.24 159.81C64.65 149.01 70.42 137.19 74.38 124.71 74.79 123.42 75.74 120.43 74.59 117.14Z" id="XMLID_244_" fill="#003558"/></g><g id="XMLID_241_"><path d="M53.7 111.55 53.15 128.98 58.01 129.55C58.01 129.55 60.5 110.43 60.23 110.3 59.4 109.89 53.7 111.55 53.7 111.55Z" id="XMLID_242_" fill="#003558"/></g><g id="XMLID_239_"><path d="M53.15 168.37C53.32 167.97 64.6 149.47 64.6 149.47L51.15 143.64 45.08 152.8 53.15 168.37Z" id="XMLID_240_" fill="#003558"/></g></g><g id="XMLID_196_"><g id="XMLID_200_"><g id="XMLID_201_"><g id="XMLID_233_"><g id="XMLID_234_"><g id="XMLID_235_"><g id="XMLID_236_"><path d="M56.42 177.66C51.47 182.32 36.27 161.95 37.57 159.76 38.87 157.57 50.38 148.52 51.69 148.95 53 149.38 58.5 155.68 57.97 157.1 57.44 158.52 52.5 163.53 52.5 163.53 52.5 163.53 60.47 173.84 56.42 177.66Z" id="XMLID_237_" fill="#FFFFFD"/></g></g></g></g><g id="XMLID_217_"><g id="XMLID_228_"><g id="XMLID_229_"><g id="XMLID_230_"><g id="XMLID_231_"><path d="M56.44 173.91C55.57 174.53 54.38 174.56 53.37 174.23 52.35 173.9 51.48 173.25 50.65 172.57 45.4 168.26 44.91 166.68 41.12 161.04 40.65 160.35 40.18 159.64 39.96 158.83 39.82 158.33 39.79 157.77 39.92 157.27 40.6 156.65 41.37 155.98 42.2 155.3 42.15 155.82 42.19 156.34 42.33 156.84 42.54 157.6 42.98 158.33 43.65 158.74 44.26 159.12 45.02 159.2 45.73 159.11 49.33 158.64 51.86 153.12 47.44 151.66 47.31 151.62 47.17 151.59 47.03 151.56 49.29 149.93 51.2 148.78 51.69 148.94 53 149.37 58.5 155.67 57.97 157.09 57.44 158.51 52.5 163.52 52.5 163.52 52.5 163.52 55.59 167.62 57.01 173.3 56.86 173.54 56.67 173.75 56.44 173.91Z" id="XMLID_232_" fill="none"/></g></g></g></g><g id="XMLID_223_"><g id="XMLID_224_"><g id="XMLID_225_"><g id="XMLID_226_"><path d="M40.56 158.91C40.77 159.67 41.22 160.34 41.66 161 45.25 166.34 45.71 167.82 50.68 171.91 51.46 172.55 52.29 173.17 53.25 173.48 54.21 173.79 55.34 173.76 56.16 173.18 56.38 173.03 56.56 172.83 56.71 172.61 57.15 174.35 57.08 175.84 56.15 176.73 51.47 181.14 37.08 161.86 38.31 159.79 38.6 159.3 39.42 158.45 40.53 157.45 40.4 157.91 40.43 158.44 40.56 158.91Z" id="XMLID_227_" fill="#453248"/></g></g></g></g><g id="XMLID_218_"><g id="XMLID_219_"><g id="XMLID_220_"><g id="XMLID_221_"><path d="M45.73 159.12C45.02 159.21 44.26 159.13 43.65 158.75 42.98 158.34 42.54 157.61 42.33 156.85 42.19 156.35 42.15 155.82 42.2 155.31 43.75 154.02 45.48 152.68 47.04 151.57 47.18 151.6 47.32 151.63 47.45 151.67 51.87 153.13 49.33 158.65 45.73 159.12Z" id="XMLID_222_" fill="#453248"/></g></g></g></g></g><g id="XMLID_212_"><g id="XMLID_213_"><g id="XMLID_214_"><g id="XMLID_215_"><path d="M54.19 165.95C54.62 166.13 55.1 166.39 55.52 166.17 55.79 166.03 55.94 165.72 55.94 165.43 55.94 165.13 55.82 164.84 55.67 164.59 55.15 163.77 54.21 163.25 53.25 163.16 52.43 163.08 49 163.88 49.98 165.19 50.69 166.16 53.14 165.5 54.19 165.95Z" id="XMLID_216_" fill="#453248"/></g></g></g></g><g id="XMLID_207_"><g id="XMLID_208_"><g id="XMLID_209_"><g id="XMLID_210_"><path d="M54.95 163.12C55.38 163.3 55.86 163.56 56.28 163.34 56.55 163.2 56.69 162.89 56.7 162.6 56.7 162.3 56.58 162.01 56.43 161.76 55.91 160.94 54.97 160.42 54.01 160.33 53.19 160.25 49.76 161.05 50.74 162.36 51.45 163.34 53.9 162.68 54.95 163.12Z" id="XMLID_211_" fill="#453248"/></g></g></g></g><g id="XMLID_202_"><g id="XMLID_203_"><g id="XMLID_204_"><g id="XMLID_205_"><path d="M56.56 160.74C56.91 161.05 57.29 161.44 57.75 161.37 58.05 161.33 58.29 161.08 58.38 160.8 58.48 160.52 58.46 160.21 58.39 159.91 58.16 158.96 57.44 158.18 56.55 157.78 55.79 157.44 52.29 157.11 52.8 158.67 53.17 159.84 55.7 159.99 56.56 160.74Z" id="XMLID_206_" fill="#453248"/></g></g></g></g></g></g><g id="XMLID_197_"><g id="XMLID_198_"><path d="M41.96 195.7C41.96 193.24 43.96 191.24 46.42 191.24 48.88 191.24 50.88 193.24 50.88 195.7 50.88 198.16 48.88 200.16 46.42 200.16 43.95 200.16 41.96 198.17 41.96 195.7Z" id="XMLID_199_" fill="#443039"/></g></g></g><g id="XMLID_180_"><g id="XMLID_189_"><g id="XMLID_194_"><path d="M24.12 119.55 16.05 131.52C22.71 136.01 27.92 143.2 31.12 152.06 35.68 149.98 39.6 147.09 43.46 144.06 39.14 133.73 32.49 125.2 24.12 119.55Z" id="XMLID_195_" fill="#003558"/></g><g id="XMLID_192_"><path d="M44.31 144.06C40.44 147.09 36.52 149.98 31.97 152.06 33.38 155.95 34.4 160.16 34.98 164.61 36.6 177.03 36.23 191.02 30.17 205.33L41.57 210.51C48.64 193.81 51.24 177.74 49.28 162.75 48.41 156.08 46.71 149.8 44.31 144.06Z" id="XMLID_193_" fill="#003558"/></g><g id="XMLID_190_"><path d="M32.83 195.1 34.73 187C34.73 187 40.61 189.74 48.5 189.1 48.5 189.1 46.74 201.04 44.38 206.89 44.38 206.89 33.77 203.22 32.83 195.1Z" id="XMLID_191_" fill="#FF844A"/></g></g><g id="XMLID_185_"><g id="XMLID_186_"><g id="XMLID_187_"><path d="M47.47 116.79 17.71 106.98 15.69 108.13 14.06 112.27C13.44 117.77 11.13 126.27 14.19 129.32 17.86 132.99 22.74 134.83 27.73 136.22 31.45 137.25 33.73 137.63 37.66 136.08 44.04 133.56 48.78 124.24 47.47 116.79Z" id="XMLID_188_" fill="#003558"/></g></g></g><g id="XMLID_181_"><g id="XMLID_182_"><g id="XMLID_183_"><path d="M12.97 116.83C14.12 105.69 16.51 94.39 19.7 83.67 21.23 78.52 22.73 72.83 25.18 68.03 30.06 58.49 45.9 60.75 50.51 69.27 52.46 72.87 52.29 77.21 52.01 81.29 51.08 95.04 49.47 108.74 47.82 122.42 47.48 125.24 47.43 125.94 44.6 126.09 42.95 126.18 41.29 126.06 39.65 125.89 35.63 125.47 31.65 124.64 27.74 123.62 25.63 123.08 12.62 120.27 12.97 116.83Z" id="XMLID_184_" fill="#FF844A"/></g></g></g></g><g id="XMLID_143_"><g id="XMLID_175_"><g id="XMLID_176_"><g id="XMLID_177_"><g id="XMLID_178_"><path d="M54.38 214.22C53.26 220.93 28.83 213.89 28.54 211.36 28.24 208.83 31.95 194.66 33.26 194.21 34.57 193.76 42.76 195.45 43.19 196.91 43.63 198.36 42.72 205.33 42.72 205.33 42.72 205.33 55.3 208.73 54.38 214.22Z" id="XMLID_179_" fill="#FFFFFD"/></g></g></g></g><g id="XMLID_159_"><g id="XMLID_170_"><g id="XMLID_171_"><g id="XMLID_172_"><g id="XMLID_173_"><path d="M52.14 211.23C51.82 212.25 50.89 212.99 49.88 213.34 48.87 213.69 47.78 213.7 46.71 213.66 39.92 213.4 38.58 212.44 32.15 210.24 31.36 209.97 30.55 209.69 29.89 209.19 29.47 208.87 29.12 208.45 28.92 207.97 29.09 207.07 29.3 206.07 29.55 205.02 29.83 205.46 30.18 205.86 30.59 206.17 31.22 206.65 32.01 206.96 32.79 206.88 33.51 206.81 34.16 206.42 34.67 205.91 37.25 203.36 35.94 197.44 31.53 198.94 31.4 198.99 31.27 199.05 31.14 199.11 31.96 196.45 32.78 194.37 33.27 194.2 34.58 193.75 42.77 195.44 43.2 196.9 43.64 198.35 42.73 205.32 42.73 205.32 42.73 205.32 47.67 206.72 52.24 210.39 52.25 210.68 52.22 210.96 52.14 211.23Z" id="XMLID_174_" fill="none"/></g></g></g></g><g id="XMLID_165_"><g id="XMLID_166_"><g id="XMLID_167_"><g id="XMLID_168_"><path d="M30.42 208.88C31.05 209.36 31.81 209.62 32.56 209.88 38.64 211.96 39.91 212.87 46.34 213.12 47.35 213.16 48.39 213.15 49.34 212.82 50.3 212.49 51.17 211.78 51.47 210.82 51.55 210.57 51.58 210.3 51.56 210.03 52.96 211.16 53.81 212.38 53.6 213.65 52.54 220 29.42 213.34 29.14 210.94 29.07 210.38 29.22 209.2 29.49 207.73 29.69 208.18 30.03 208.58 30.42 208.88Z" id="XMLID_169_" fill="#453248"/></g></g></g></g><g id="XMLID_160_"><g id="XMLID_161_"><g id="XMLID_162_"><g id="XMLID_163_"><path d="M34.67 205.91C34.16 206.42 33.5 206.8 32.79 206.88 32 206.96 31.22 206.65 30.59 206.17 30.18 205.86 29.83 205.46 29.55 205.02 30.01 203.05 30.57 200.95 31.14 199.12 31.27 199.06 31.4 199 31.53 198.95 35.93 197.44 37.25 203.36 34.67 205.91Z" id="XMLID_164_" fill="#453248"/></g></g></g></g></g><g id="XMLID_154_"><g id="XMLID_155_"><g id="XMLID_156_"><g id="XMLID_157_"><path d="M45.53 206.24C45.98 206.13 46.52 206.04 46.72 205.62 46.85 205.35 46.78 205.01 46.6 204.77 46.42 204.53 46.15 204.37 45.87 204.27 44.96 203.93 43.9 204.08 43.07 204.59 42.37 205.03 40.12 207.73 41.69 208.19 42.87 208.53 44.42 206.52 45.53 206.24Z" id="XMLID_158_" fill="#453248"/></g></g></g></g><g id="XMLID_149_"><g id="XMLID_150_"><g id="XMLID_151_"><g id="XMLID_152_"><path d="M44.43 203.53C44.88 203.42 45.42 203.33 45.62 202.91 45.75 202.64 45.68 202.3 45.5 202.06 45.32 201.82 45.05 201.66 44.77 201.56 43.86 201.21 42.8 201.37 41.97 201.88 41.27 202.32 39.02 205.02 40.59 205.48 41.77 205.82 43.32 203.81 44.43 203.53Z" id="XMLID_153_" fill="#453248"/></g></g></g></g><g id="XMLID_144_"><g id="XMLID_145_"><g id="XMLID_146_"><g id="XMLID_147_"><path d="M44.27 200.67C44.73 200.7 45.27 200.79 45.6 200.46 45.81 200.25 45.85 199.91 45.76 199.62 45.67 199.34 45.46 199.1 45.23 198.91 44.48 198.29 43.42 198.1 42.48 198.33 41.68 198.52 38.68 200.37 40.03 201.31 41.02 201.99 43.14 200.58 44.27 200.67Z" id="XMLID_148_" fill="#453248"/></g></g></g></g></g><g id="XMLID_138_"><g id="XMLID_139_"><g id="XMLID_140_"><g id="XMLID_141_"><path d="M64.29 122.54C64.48 123.02 64.62 123.53 64.59 124.05 64.56 124.57 64.34 125.09 63.92 125.39 63.28 125.84 62.7 125.89 62.19 125.67 60.76 128.59 57.24 129.81 54.31 128.4 51.36 126.98 50.12 123.44 51.54 120.5 52.96 117.55 56.5 116.31 59.44 117.73 59.66 117.84 59.87 117.96 60.07 118.09 60.21 118.11 60.34 118.16 60.47 118.23 62.2 119.15 63.58 120.72 64.29 122.54Z" id="XMLID_142_" fill="#A3525B"/></g></g></g></g></g><g id="XMLID_135_"><path d="M52.77 123.36C46.61 118.43 40.23 113.32 35.36 106.57 31.16 100.74 29.63 94.18 30.53 85.91L38.48 86.78C37.79 93.05 38.83 97.71 41.84 101.89 46.07 107.76 52.01 112.51 57.76 117.11L52.77 123.36Z" id="XMLID_136_" fill="#F8BFA3"/></g><g id="XMLID_133_"><path d="M27.85 147.54 31.11 154.6 46.14 145.98 42.82 138.35Z" id="XMLID_134_" fill="#031D3A"/></g><g><path d="M45.03 60.38C44.95 64.53 42.69 67.83 39.99 67.76L36.89 67.67C34.19 67.59 32.06 64.17 32.14 60.01L32.14 60.01C32.22 55.86 34.48 52.56 37.18 52.63L40.28 52.72C42.98 52.8 45.11 56.23 45.03 60.38L45.03 60.38Z" fill="#F5A48D"/><g><defs><path d="M10.95 33.48C11.22 33.49 11.49 33.51 11.75 33.55 11.76 33.53 11.76 33.52 11.77 33.5 17.42 17.8 27.64 8.84 43.81 10.95 64.17 13.6 63.31 31.43 66.28 35.06 68.5 37.78 69.52 41.89 68.3 46.94 65.89 56.97 52.96 62.13 40.81 61.82 28.66 61.51 15.63 53.93 11.91 44.14 11.54 44.19 11.15 44.22 10.76 44.21 7.38 44.12 4.68 41.65 4.73 38.69 4.78 35.73 7.56 33.4 10.95 33.48Z" id="SVGID_1_"/></defs><clipPath id="SVGID_2_"><use width="100%" height="100%" xlink:href="#SVGID_1_" overflow="visible"></use></clipPath><path d="M10.95 33.48C11.22 33.49 11.49 33.51 11.75 33.55 11.76 33.53 11.76 33.52 11.77 33.5 17.42 17.8 25.49 6.28 41.8 6.69 58.11 7.11 70.04 32.25 71.21 35.71 72.29 38.91 69.52 41.89 68.3 46.94 65.89 56.97 52.96 62.13 40.81 61.82 28.66 61.51 15.63 53.93 11.91 44.14 11.54 44.19 11.15 44.22 10.76 44.21 7.38 44.12 4.68 41.65 4.73 38.69 4.78 35.73 7.56 33.4 10.95 33.48Z" fill="#F8BFA3" clip-path="url(#SVGID_2_)"/><path d="M58.5 44.45C58.47 45.97 60.98 47.27 64.11 47.35 67.24 47.43 69.79 46.26 69.82 44.74 69.85 43.22 67.34 41.92 64.21 41.84 61.08 41.76 58.53 42.93 58.5 44.45Z" fill="#F5A48D" clip-path="url(#SVGID_2_)"/></g><path d="M33.82 43.82C33.79 45.34 36.3 46.64 39.43 46.72 42.56 46.8 45.11 45.63 45.14 44.11 45.17 42.59 42.66 41.29 39.53 41.21 36.4 41.13 33.85 42.3 33.82 43.82Z" fill="#F5A48D"/><g><path d="M59.6 34.04C59.6 34.04 59.6 34.04 59.6 34.04 59.85 33.84 60.14 33.73 60.48 33.67 60.51 33.66 60.54 33.66 60.57 33.65 60.58 33.65 60.84 33.62 60.96 33.61 61.57 33.57 62.35 33.62 63.4 33.65 65.17 33.71 66.33 32.63 66.32 32.64 65.96 33.72 65.09 34.47 63.96 34.99 63.82 35.06 63.67 35.12 63.51 35.19 63.72 35.62 63.84 36.12 63.83 36.64 63.8 38.28 62.53 39.58 61 39.54 59.46 39.5 58.24 38.14 58.27 36.5 58.29 35.46 58.82 34.55 59.6 34.04Z" fill="#432918"/><path d="M59.52 35.41C59.51 35.79 59.86 36.11 60.3 36.12 60.73 36.13 61.09 35.83 61.1 35.45 61.11 35.07 60.76 34.75 60.33 34.74 59.88 34.73 59.52 35.03 59.52 35.41Z" fill="#FFFFFF"/></g><g><path d="M34.65 33.41C34.66 33.41 34.66 33.4 34.65 33.41 34.9 33.21 35.19 33.1 35.53 33.04 35.56 33.03 35.59 33.03 35.62 33.02 35.63 33.02 35.89 32.99 36.01 32.98 36.62 32.94 37.4 32.99 38.45 33.02 40.22 33.08 41.38 32 41.37 32.01 41.01 33.09 40.14 33.84 39.01 34.36 38.87 34.43 38.72 34.49 38.56 34.56 38.78 34.99 38.89 35.49 38.88 36.01 38.85 37.65 37.58 38.95 36.05 38.91 34.51 38.87 33.29 37.51 33.32 35.87 33.34 34.82 33.87 33.91 34.65 33.41Z" fill="#432918"/><path d="M34.57 34.78C34.56 35.16 34.91 35.48 35.35 35.49 35.79 35.5 36.14 35.2 36.15 34.82 36.16 34.44 35.81 34.12 35.38 34.11 34.94 34.09 34.58 34.39 34.57 34.78Z" fill="#FFFFFF"/></g><path d="M48.82 42.73C49.06 42.41 49.15 41.99 49.23 41.62 49.32 41.19 49.47 40.65 49.35 40.22 49.34 40.19 49.38 40.17 49.39 40.21 49.56 40.9 49.78 41.37 49.7 42.09 49.68 42.29 49.62 42.49 49.56 42.7 50.59 42.46 51.89 42.9 52.06 43.9 52.17 44.55 51.92 45.13 51.25 45.44 50.63 45.73 49.87 45.87 49.23 45.59 49.2 45.58 49.2 45.52 49.23 45.51 49.77 45.29 51.88 44.91 51.41 44.09 50.94 43.27 49.61 43.73 48.89 43.82 48.84 43.83 48.79 43.81 48.76 43.79 48.68 43.81 48.6 43.8 48.54 43.75 48.17 43.41 48.6 43.02 48.82 42.73Z" fill="#C69F7E"/><g><path d="M8.27 36.94C9.24 37.51 10.3 38.12 10.99 38.96 11.45 39.53 11.59 40.35 10.72 40.62 10.25 40.76 9.67 40.6 9.33 40.3 9.25 40.23 9.24 40.34 9.32 40.21 9.57 39.79 9.95 39.47 10.21 39.05 10.3 38.89 10.32 38.52 10.03 38.5 8.68 38.4 8.01 39.93 8.44 40.9 8.82 41.74 9.96 42.03 10.88 41.81 12.1 41.52 12.4 40.12 12.08 39.19 11.63 37.9 9.93 36.45 8.28 36.82 8.23 36.82 8.23 36.92 8.27 36.94L8.27 36.94Z" fill="#C69F7E"/></g><g><defs><path d="M13.36 17.19C14.89 14.93 16.52 12.73 19.3 11.56 19.81 11.35 20.55 11.15 21.3 11.09 20.32 10.59 19.49 9.87 19.1 9.07 19.1 9.06 19.1 9.05 19.11 9.06 20.08 9.41 20.91 9.94 21.88 10.3 22.05 10.36 22.22 10.42 22.4 10.47 21.17 9.74 20.43 8.77 20.29 7.5 20.29 7.47 20.32 7.41 20.36 7.45 20.98 8.27 22.06 8.9 22.99 9.39 23.28 9.55 23.61 9.67 23.95 9.8 23.45 8.71 23.25 7.38 23.78 6.3 23.79 6.28 23.82 6.28 23.83 6.3 24.24 7.34 24.28 8.43 24.83 9.44 24.9 9.57 24.98 9.69 25.06 9.81 25.99 9.08 27 8.56 28.08 7.9 31.84 5.62 44.28 5.9 49.85 7.8 58.07 10.5 60.67 14.72 63.96 19.25 66.98 23.42 67.95 31.07 67.95 31.07 67.95 31.07 63.8 26.31 60.56 25.81 60.99 26.14 61.38 26.46 61.69 26.71 62.69 27.51 64.1 28.84 64.08 30.09L64.08 30.12C64.08 30.13 64.08 30.15 64.07 30.16 64.06 30.18 64.06 30.19 64.05 30.21 64.01 30.32 63.9 30.43 63.77 30.33 63.57 30.18 63.43 29.99 63.3 29.79 60.96 28.14 58.55 26.83 55.77 25.8 54.14 25.19 52.21 25.11 50.37 24.9 50.68 25.17 50.95 25.43 51.15 25.63 52.37 26.8 53.67 28.44 53.34 30.09 53.24 30.57 52.68 30.51 52.6 30.06L52.6 30.05C49.88 27.77 47.13 26.08 43.4 25.31 40.43 24.7 37.36 24.46 34.37 24 31.36 23.54 28.28 22.76 26.09 21.17 25.33 23.04 26.95 34.98 21.29 38.01 17.38 40.09 11.88 33.83 11.75 33.56 9.49 28.5 10.28 21.75 13.36 17.19Z" id="SVGID_3_"/></defs><clipPath id="SVGID_4_"><use width="100%" height="100%" xlink:href="#SVGID_3_" overflow="visible"></use></clipPath><path d="M13.36 17.19C14.89 14.93 16.52 12.73 19.3 11.56 19.81 11.35 20.55 11.15 21.3 11.09 20.32 10.59 19.49 9.87 19.1 9.07 19.1 9.06 19.1 9.05 19.11 9.06 20.08 9.41 20.91 9.94 21.88 10.3 22.05 10.36 22.22 10.42 22.4 10.47 21.17 9.74 20.43 8.77 20.29 7.5 20.29 7.47 20.32 7.41 20.36 7.45 20.98 8.27 22.06 8.9 22.99 9.39 23.28 9.55 23.61 9.67 23.95 9.8 23.45 8.71 23.25 7.38 23.78 6.3 23.79 6.28 23.82 6.28 23.83 6.3 24.24 7.34 24.28 8.43 24.83 9.44 24.9 9.57 24.98 9.69 25.06 9.81 25.99 9.08 27 8.56 28.08 7.9 31.84 5.62 44.28 5.9 49.85 7.8 58.07 10.5 60.67 14.72 63.96 19.25 66.98 23.42 67.95 31.07 67.95 31.07 67.95 31.07 63.8 26.31 60.56 25.81 60.99 26.14 61.38 26.46 61.69 26.71 62.69 27.51 64.1 28.84 64.08 30.09L64.08 30.12C64.08 30.13 64.08 30.15 64.07 30.16 64.06 30.18 64.06 30.19 64.05 30.21 64.01 30.32 63.9 30.43 63.77 30.33 63.57 30.18 63.43 29.99 63.3 29.79 60.96 28.14 58.55 26.83 55.77 25.8 54.14 25.19 52.21 25.11 50.37 24.9 50.68 25.17 50.95 25.43 51.15 25.63 52.37 26.8 53.67 28.44 53.34 30.09 53.24 30.57 52.68 30.51 52.6 30.06L52.6 30.05C49.88 27.77 47.13 26.08 43.4 25.31 40.43 24.7 37.36 24.46 34.37 24 31.36 23.54 28.28 22.76 26.09 21.17 25.33 23.04 26.95 34.98 21.29 38.01 17.38 40.09 11.88 33.83 11.75 33.56 9.49 28.5 10.28 21.75 13.36 17.19Z" fill="#432918" clip-path="url(#SVGID_4_)"/><g clip-path="url(#SVGID_4_)"><path d="M20.48 10.78C22.94 12.7 28.81 10.35 31.36 9.37 35.71 7.71 40.01 4.82 38.27 0.21 38.23 0.12 38.36-0.1 38.46 0.05 44.13 8.39 22.09 15.13 20.43 10.85 20.42 10.83 20.43 10.74 20.48 10.78L20.48 10.78Z" fill="#2C2020"/></g><g clip-path="url(#SVGID_4_)"><path d="M22.2 12.98C28.26 15.95 33.9 17.78 40.92 17.61 44.57 17.52 48.17 16.83 51.65 15.95 55.09 15.07 57.43 13.11 60.1 11.17 60.37 10.98 60.49 11.45 60.38 11.6 56.83 16.69 49.12 17.98 42.81 18.52 35.66 19.13 27.36 17.83 22.17 13.11 22.13 13.07 22.13 12.94 22.2 12.98L22.2 12.98Z" fill="#2C2020"/></g><g clip-path="url(#SVGID_4_)"><path d="M63.51 16.78C59.01 22.14 49.05 23.4 41.98 22.96 33.37 22.43 24.31 18.03 20.37 11.05 20.3 10.92 20.36 10.45 20.61 10.65 24.09 13.53 26.44 16.82 30.72 18.96 34.16 20.69 38.1 21.5 42 21.84 46.01 22.18 50.07 21.74 53.89 20.75 57.45 19.83 60.17 17.94 63.39 16.46 63.55 16.4 63.57 16.71 63.51 16.78L63.51 16.78Z" fill="#2C2020"/></g><g clip-path="url(#SVGID_4_)"><path d="M55.16 7.8C51.94 12.09 45.34 13.81 39.83 14.61 34.17 15.43 25.07 15.84 20.51 12.04 20.37 11.93 20.34 11.44 20.64 11.54 23.67 12.51 26.15 13.53 29.42 13.85 32.32 14.13 35.25 14.04 38.13 13.77 44.65 13.15 49.92 11.03 54.99 7.54 55.15 7.43 55.23 7.71 55.16 7.8L55.16 7.8Z" fill="#2C2020"/></g><g clip-path="url(#SVGID_4_)"><path d="M21.03 11.04C24.64 13.32 19.27 18.93 17.3 20.54 13.12 23.95 5.58 25.56 0.16 23.67-0.1 23.58-0.02 23.12 0.25 23.09 4.53 22.67 8.6 22.84 12.66 21.36 15.93 20.17 22.96 15.28 20.81 11.4 20.73 11.26 20.78 10.88 21.03 11.04L21.03 11.04Z" fill="#2C2020"/></g><g clip-path="url(#SVGID_4_)"><path d="M21.61 11.43C26.16 13.74 23.38 20.98 21.6 23.94 18.97 28.31 12.62 33.92 6.43 33.09 6.23 33.06 6.12 32.65 6.32 32.57 8.43 31.77 10.65 31.5 12.71 30.51 15.07 29.38 17.09 27.45 18.8 25.68 22.43 21.92 24.91 16.03 21.57 11.49 21.57 11.48 21.57 11.41 21.61 11.43L21.61 11.43Z" fill="#2C2020"/></g><g clip-path="url(#SVGID_4_)"><path d="M20.49 11.01C22.3 12.64 19.39 14.98 18.01 15.91 14.99 17.95 10.1 19.27 6.84 16.84 6.72 16.75 6.72 16.32 6.96 16.37 9.68 16.91 11.87 17.1 14.55 16.29 16.7 15.64 20.68 13.47 20.36 11.13 20.35 11.08 20.41 10.93 20.49 11.01L20.49 11.01Z" fill="#2C2020"/></g></g></g></g><g id="XMLID_127_"><g id="XMLID_128_"><g id="XMLID_129_"><g id="XMLID_130_"><path d="M93.49 96.78C93.87 97.13 94.23 97.52 94.43 98 94.63 98.48 94.67 99.04 94.43 99.5 94.06 100.19 93.56 100.49 93 100.52 93.02 103.77 90.41 106.43 87.16 106.47 83.89 106.51 81.21 103.89 81.16 100.62 81.12 97.35 83.74 94.67 87.01 94.62 87.26 94.62 87.5 94.63 87.74 94.66 87.87 94.62 88.02 94.6 88.16 94.61 90.11 94.68 92.04 95.46 93.49 96.78Z" id="XMLID_131_" fill="#A3525B"/></g></g></g></g><g id="XMLID_52_"><path d="M42.09 54.18C42.12 54.12 42.17 54.08 42.23 54.04 44.9 52.69 49.19 52.77 53.45 54.24 53.88 54.39 54.22 54.74 54.19 55.01 54.17 55.29 53.8 55.39 53.36 55.24 49.6 53.94 45.81 53.88 43.46 55.07 43.19 55.21 42.69 55.09 42.35 54.81 42.1 54.59 42.01 54.35 42.09 54.18Z" id="XMLID_126_" fill="#453248"/></g></svg>