<svg width="136.19" height="291.33" viewBox="0 0 136.19 291.33" xmlns="http://www.w3.org/2000/svg" xmlns:xlink="http://www.w3.org/1999/xlink" xml:space="preserve" overflow="hidden"><defs></defs><g><g><path d="M120.62 194.41C120.44 196.22 120.45 198.06 120.64 199.87 120.79 201.31 120.92 202.78 121.37 204.16 121.55 204.73 121.91 205.45 122.56 205.61 123.27 205.78 123.56 205.23 123.63 204.66 123.73 203.85 123.22 202.5 124.38 202.15 125.54 201.8 125.98 208.2 126.75 208.67 127.35 209.03 128.18 207.09 128.17 206.02 128.17 204.96 128.44 202.84 128.44 202.84 128.44 202.84 128.7 209.31 129.5 209.12 131.42 208.66 131.15 202.64 131.15 202.64 131.15 202.64 131.18 207.88 132 207.91 133.67 207.97 133.55 201.83 133.55 201.83 133.55 201.83 133.37 207 134.28 207.04 136.69 207.13 136.44 200.4 135.52 198.15 134.26 195.08 130.04 190.35 126.79 188.69" fill="#FFD5B8"/><g><path d="M127.99 200.99C127.97 201.39 127.96 201.6 128.27 201.87 128.38 201.96 128.52 201.92 128.57 201.79 128.72 201.42 128.6 201.22 128.4 200.88 128.29 200.68 128 200.77 127.99 200.99L127.99 200.99Z" fill="#F9B995"/></g><g><path d="M131 201.09C131.02 201.42 131 201.38 131.13 201.68 131.17 201.78 131.32 201.83 131.38 201.71 131.55 201.41 131.54 201.37 131.47 201.03 131.42 200.76 130.98 200.81 131 201.09L131 201.09Z" fill="#F9B995"/></g><g><path d="M133.29 200.27C133.3 200.65 133.26 201 133.33 201.37 133.38 201.64 133.83 201.71 133.95 201.45 134.16 200.96 134.08 200.59 133.82 200.12 133.67 199.89 133.28 199.99 133.29 200.27L133.29 200.27Z" fill="#F9B995"/></g></g><path d="M119.93 193.46C120.09 194.69 119.97 195.1 120.5 196.17 122.96 196.99 128.5 195.59 130.33 194.74 130.75 194.55 132.3 193.61 132.43 193.19 132.24 192 130.96 190.03 130.15 189" fill="#CE4C32"/><g><g><g><path d="M99.26 275.63C99.46 277.24 98.88 278.17 101.13 279.65 102.51 280.56 105.42 281.34 106.96 281.97 108.5 282.6 110.03 283.45 110.96 284.79 111.84 286.06 112.08 287.64 112.15 289.16 112.16 289.36 112.16 289.59 112.02 289.74 111.86 289.93 111.58 289.95 111.32 289.96 107.97 290.04 104.64 289.62 101.32 289.2 99.55 288.98 97.78 288.75 96.09 288.21 93.7 287.45 91.58 286.11 89.48 284.78 89.37 284.71 89.25 284.63 89.19 284.52 89.11 284.37 89.13 284.19 89.16 284.02 89.69 280.53 90.24 276.97 91.87 273.8" fill="#FFDBBB"/><path d="M88.23 284.14C88.55 282.01 89 278.56 89.48 278.06 89.89 277.63 90.06 278.26 90.37 278.45 91.28 279.04 92.43 279.16 93.5 279.23 94.64 279.3 95.92 279.44 96.91 278.75 97.88 278.08 99.11 276.84 99.96 276.96 100.81 277.08 100.21 278.33 102.64 279.74 104.21 280.65 105.96 281.2 107.64 281.89 109.32 282.58 110.99 283.5 112 284.96 112.96 286.34 113.22 288.06 113.3 289.73 113.31 289.95 113.31 290.2 113.16 290.37 112.99 290.58 112.68 290.6 112.4 290.61 108.75 290.7 105.11 290.24 101.49 289.78 99.57 289.54 97.63 289.29 95.79 288.71 93.19 287.89 90.87 286.42 88.59 284.97 88.47 284.89 88.34 284.81 88.27 284.68 88.18 284.52 88.21 284.32 88.23 284.14Z" fill="#CE7165"/><path d="M88.23 284.52C88.21 284.4 88.21 284.26 88.23 284.14 88.5 282.37 88.78 280.6 89.17 278.85 90.17 279.7 90.89 280.87 91.48 282.04 92.09 283.25 92.61 284.55 92.66 285.88 95.83 287.47 99.19 288.54 102.67 289.16 102.66 288.81 102.68 288.45 102.74 288.11 103.23 285.52 105.03 283.32 107.29 281.77 107.4 281.81 107.52 281.86 107.63 281.9 109.31 282.59 111.57 283.49 112.58 284.95 113.54 286.33 114.5 288.23 112.99 290.6 105.19 292.76 94.89 289.88 88.48 285.47 88.11 285.2 88.08 284.83 88.23 284.52ZM105.79 281.02C106.4 280.55 105.69 279.49 105.03 279.9 103.71 280.71 102.14 281.58 101.43 282.99 101.06 283.73 102.24 284.51 102.81 283.91 103.29 283.4 103.66 282.83 104.17 282.35 104.68 281.88 105.23 281.45 105.79 281.02ZM103.42 279.8C103.98 279.38 103.36 278.59 102.76 278.84 101.35 279.44 100.05 280.23 99.17 281.48 99 281.72 98.96 282.08 99.11 282.34 99.14 282.39 99.17 282.45 99.2 282.5 99.34 282.75 99.59 282.86 99.87 282.82 100.65 282.73 100.81 282.01 101.28 281.5 101.89 280.83 102.69 280.34 103.42 279.8ZM101.3 278.45C101.95 277.99 101.2 276.9 100.52 277.31 99.42 277.97 97.82 278.59 97.12 279.71 96.96 279.96 96.91 280.28 97.06 280.55 97.09 280.61 97.12 280.66 97.15 280.72 97.32 281.02 97.72 281.2 98.05 281.02 98.56 280.74 98.82 280.22 99.3 279.87 99.95 279.37 100.63 278.92 101.3 278.45Z" fill="#7C3432"/></g><path d="M108.73 207.69C110.71 230.85 106.52 263.29 102.28 274.98 100.65 275.92 90.9 278.16 84.82 274.6 83.49 265.32 82.53 246.51 72.96 228.99 65.84 215.97 52.87 232.17 52.87 232.17L57.12 205.54C57.12 205.54 45.8 206.44 68.19 200.63 90.59 194.82 90.59 194.82 90.59 194.82" fill="#354A6D"/></g><g><g><path d="M36.93 275.63C36.73 277.24 37.31 278.17 35.06 279.65 33.68 280.56 30.77 281.34 29.23 281.97 27.69 282.6 26.16 283.45 25.23 284.79 24.35 286.06 24.11 287.64 24.04 289.16 24.03 289.36 24.03 289.59 24.17 289.74 24.33 289.93 24.61 289.95 24.87 289.96 28.22 290.04 31.55 289.62 34.87 289.2 36.64 288.98 38.41 288.75 40.1 288.21 42.49 287.45 44.61 286.11 46.71 284.78 46.82 284.71 46.94 284.63 47.01 284.52 47.09 284.37 47.07 284.19 47.04 284.02 46.51 280.53 45.96 276.97 44.33 273.8" fill="#FFDBBB"/><path d="M47.95 284.14C47.63 282.01 47.18 278.56 46.7 278.06 46.29 277.63 46.12 278.26 45.81 278.45 44.9 279.04 43.75 279.16 42.68 279.23 41.54 279.3 40.26 279.44 39.27 278.75 38.3 278.08 37.07 276.84 36.22 276.96 35.37 277.08 35.97 278.33 33.54 279.74 31.97 280.65 30.22 281.2 28.54 281.89 26.86 282.58 25.19 283.5 24.18 284.96 23.22 286.34 22.96 288.06 22.88 289.73 22.87 289.95 22.87 290.2 23.02 290.37 23.19 290.58 23.5 290.6 23.78 290.61 27.43 290.7 31.07 290.24 34.69 289.78 36.62 289.54 38.55 289.29 40.39 288.71 42.99 287.89 45.31 286.42 47.59 284.97 47.71 284.89 47.84 284.81 47.91 284.68 48 284.52 47.98 284.32 47.95 284.14Z" fill="#CE7165"/><path d="M47.7 285.47C41.28 289.89 30.99 292.77 23.19 290.6 21.68 288.22 22.65 286.33 23.6 284.95 24.61 283.49 26.87 282.59 28.55 281.9 28.66 281.85 28.78 281.81 28.89 281.77 31.15 283.32 32.96 285.52 33.44 288.11 33.5 288.45 33.52 288.81 33.51 289.16 36.98 288.54 40.34 287.47 43.52 285.88 43.57 284.55 44.09 283.25 44.7 282.04 45.29 280.87 46.02 279.69 47.01 278.85 47.4 280.6 47.69 282.38 47.95 284.14 47.97 284.27 47.97 284.4 47.95 284.52 48.11 284.83 48.08 285.2 47.7 285.47ZM32.02 282.36C32.53 282.84 32.9 283.41 33.38 283.92 33.95 284.52 35.13 283.74 34.76 283 34.05 281.59 32.48 280.72 31.16 279.91 30.5 279.5 29.79 280.56 30.4 281.03 30.95 281.45 31.51 281.88 32.02 282.36ZM34.91 281.5C35.38 282.01 35.54 282.73 36.32 282.82 36.6 282.85 36.85 282.74 36.99 282.5 37.02 282.45 37.05 282.39 37.08 282.34 37.23 282.08 37.19 281.72 37.02 281.48 36.13 280.23 34.84 279.43 33.43 278.84 32.84 278.59 32.21 279.38 32.77 279.8 33.5 280.34 34.29 280.83 34.91 281.5ZM36.89 279.85C37.37 280.2 37.63 280.72 38.14 281 38.46 281.18 38.87 281 39.04 280.7 39.07 280.64 39.1 280.59 39.13 280.53 39.28 280.26 39.23 279.94 39.07 279.69 38.37 278.57 36.77 277.95 35.67 277.29 34.99 276.89 34.24 277.98 34.89 278.43 35.55 278.92 36.23 279.37 36.89 279.85Z" fill="#7C3432"/></g><path d="M27.46 207.69C25.48 230.85 29.67 263.29 33.91 274.98 35.54 275.92 45.29 278.16 51.37 274.6 52.7 265.32 53.66 246.51 63.23 228.99 70.35 215.97 83.32 232.17 83.32 232.17L79.07 205.54C79.07 205.54 90.39 206.44 68 200.63 45.6 194.82 45.6 194.82 45.6 194.82" fill="#354A6D"/></g></g><path d="M62 105.84C62.9 113.6 60.43 116.67 53.19 118.19 53.19 118.19 52.74 128.89 66.68 130.54 72.41 131.22 81.34 124.97 83.02 119.71 76.91 118.6 74.35 111.61 76.27 106.53" fill="#FFD5B8"/><path d="M63.06 111.18C66.39 111.66 69.79 111.68 73.12 111.25 72.6 112.81 70.91 113.91 69.22 113.8 68.57 113.76 67.94 113.56 67.32 113.36 66.43 113.07 64.26 111.96 63.06 111.18" fill="#F9B995"/><g><path d="M15.57 194.41C15.75 196.22 15.74 198.06 15.55 199.87 15.4 201.31 15.27 202.78 14.82 204.16 14.64 204.73 14.28 205.45 13.63 205.61 12.92 205.78 12.63 205.23 12.56 204.66 12.46 203.85 12.97 202.5 11.81 202.15 10.65 201.8 10.21 208.2 9.44 208.67 8.84 209.03 8.01 207.09 8.02 206.02 8.02 204.96 7.75 202.84 7.75 202.84 7.75 202.84 7.49 209.31 6.69 209.12 4.77 208.66 5.04 202.64 5.04 202.64 5.04 202.64 5.01 207.88 4.19 207.91 2.52 207.97 2.64 201.83 2.64 201.83 2.64 201.83 2.82 207 1.91 207.04-0.5 207.13-0.25 200.4 0.67 198.15 1.93 195.08 6.15 190.35 9.4 188.69" fill="#FFD5B8"/><g><path d="M7.79 200.88C7.6 201.21 7.47 201.42 7.62 201.79 7.67 201.92 7.81 201.97 7.92 201.87 8.23 201.61 8.21 201.42 8.2 200.99 8.19 200.77 7.91 200.68 7.79 200.88L7.79 200.88Z" fill="#F9B995"/></g><g><path d="M4.72 201.02C4.66 201.36 4.65 201.4 4.81 201.7 4.87 201.81 5.02 201.77 5.06 201.67 5.18 201.37 5.17 201.41 5.19 201.08 5.21 200.82 4.77 200.75 4.72 201.02L4.72 201.02Z" fill="#F9B995"/></g><g><path d="M2.38 200.13C2.12 200.59 2.03 200.96 2.25 201.46 2.36 201.72 2.82 201.65 2.87 201.38 2.94 201.01 2.89 200.65 2.91 200.28 2.91 199.99 2.52 199.89 2.38 200.13L2.38 200.13Z" fill="#F9B995"/></g></g><path d="M16.26 193.46C16.1 194.69 16.22 195.1 15.69 196.17 13.23 196.99 7.69 195.59 5.86 194.74 5.45 194.55 3.89 193.61 3.76 193.19 3.95 192 5.23 190.03 6.04 189" fill="#CE4C32"/><g><path d="M107.35 195.42C109.75 202.01 109.85 203.52 111.02 207.26 108.51 217.36 89.56 222.85 68.09 222.85 46.63 222.85 27.67 217.36 25.16 207.26 26.34 203.52 26.44 202.01 28.83 195.42" fill="#CE4C32"/></g><path d="M86.81 147.47C86.37 153.17 89.24 158.66 92.88 163.17 96.52 167.68 100.99 166.71 104.57 171.26 108.43 176.16 114.31 186.76 119.65 193.75 123.24 195.43 129.97 193.88 132.05 190.74 132.83 180.83 123.22 137.94 103.25 124.94 91.93 117.58 80.72 117.81 77.07 114.1 76.46 113.48 75.48 113.42 74.75 113.9 73.53 114.72 70.38 115.78 68.09 115.78 65.8 115.78 62.66 114.72 61.43 113.9 60.7 113.42 59.72 113.48 59.11 114.1 55.46 117.81 44.12 117.58 32.8 124.94 12.82 137.93 3.35 180.83 4.13 190.74 6.21 193.88 12.94 195.42 16.53 193.75 21.87 186.76 27.76 176.16 31.61 171.26 35.19 166.71 39.66 167.68 43.3 163.17 46.94 158.66 49.81 153.17 49.37 147.47" fill="#FF815F"/><g><path d="M75.05 114.51C74.92 115.66 75.03 117.36 76.04 118.1 76.23 118.24 76.55 118.05 76.53 117.82 76.47 117.29 76.2 116.88 76.03 116.38 75.83 115.78 75.71 115.13 75.67 114.5 75.65 114.1 75.09 114.11 75.05 114.51L75.05 114.51Z" fill="#F45E3B"/></g><g><path d="M70.22 115.92C69.9 116.87 69.75 118.45 70.21 119.37 70.33 119.61 70.72 119.61 70.84 119.37 71.3 118.46 71.15 116.87 70.83 115.92 70.73 115.62 70.32 115.61 70.22 115.92L70.22 115.92Z" fill="#F45E3B"/></g><g><path d="M65.67 115.6C65.25 116.81 64.53 118.11 64.39 119.38 64.35 119.72 64.85 119.9 65.07 119.66 65.99 118.65 66.23 117 66.34 115.69 66.37 115.29 65.79 115.26 65.67 115.6L65.67 115.6Z" fill="#F45E3B"/></g><g><path d="M62.25 114.37C61.76 115.09 61.25 115.79 60.67 116.45 60.16 117.04 59.58 117.56 59.23 118.26 59.1 118.52 59.32 118.91 59.64 118.79 61.24 118.2 62.33 116.28 62.98 114.79 63.19 114.31 62.56 113.91 62.25 114.37L62.25 114.37Z" fill="#F45E3B"/></g><path d="M117.9 66.43C116.14 56.51 112.06 47.34 108.5 38.05 106.42 32.63 104.06 26.6 99.19 24.33L96.96 24.15C92.93 21.35 88.17 19.84 83.5 20.53L68.1 21.79 52.7 20.53C48.03 19.84 43.27 21.35 39.24 24.15L37 24.33C32.13 26.6 29.77 32.63 27.69 38.05 24.13 47.34 20.06 56.51 18.29 66.43 16.53 76.35 17.38 87.4 22.93 95.4 28.67 103.68 40.35 108.58 49.59 110.27 61.65 112.49 75.25 112.67 87.28 110.14 96.65 108.17 107.25 104.05 113.25 95.4 118.8 87.4 119.66 76.35 117.9 66.43Z" fill="#FFD5B8"/><g><g><path d="M90.69 75.11C97.54 75.67 98.42 65.02 91.56 64.46 84.7 63.9 83.83 74.55 90.69 75.11L90.69 75.11Z" fill="#7C3432"/></g><g><path d="M90.88 72.75C94.71 73.06 95.2 67.11 91.36 66.8 87.54 66.49 87.05 72.44 90.88 72.75L90.88 72.75Z" fill="#512020"/></g><g><path d="M89.07 71.65C92.19 71.9 92.59 67.05 89.46 66.8 86.34 66.55 85.94 71.4 89.07 71.65L89.07 71.65Z" fill="#FFFFFF"/></g><g><path d="M96.48 57.13C95.21 53.8 90.28 52.09 87.91 55.41 87.67 55.75 88.14 56.17 88.47 55.97 89.78 55.18 90.95 54.5 92.54 54.8 94.02 55.08 95.15 56.09 95.81 57.41 96 57.77 96.63 57.52 96.48 57.13L96.48 57.13Z" fill="#7C3432"/></g></g><path d="M90.9 84.2C90.6 81 95.09 80.97 97.22 81.13 99.74 81.32 105.13 81.94 102.58 85.66 100.9 88.12 96.5 88.73 93.84 87.93 92.13 87.41 91.05 85.73 90.9 84.2Z" fill="#EF9181"/><g><g><path d="M46.1 75.11C39.25 75.67 38.37 65.02 45.23 64.46 52.09 63.9 52.96 74.55 46.1 75.11L46.1 75.11Z" fill="#7C3432"/></g><g><path d="M45.91 72.75C42.08 73.06 41.59 67.11 45.43 66.8 49.25 66.49 49.74 72.44 45.91 72.75L45.91 72.75Z" fill="#512020"/></g><g><path d="M47.72 71.65C44.6 71.9 44.2 67.05 47.33 66.8 50.45 66.55 50.85 71.4 47.72 71.65L47.72 71.65Z" fill="#FFFFFF"/></g><g><path d="M40.98 57.41C41.64 56.09 42.77 55.08 44.25 54.8 45.84 54.5 47.01 55.18 48.32 55.97 48.65 56.17 49.12 55.75 48.88 55.41 46.52 52.09 41.59 53.8 40.31 57.13 40.17 57.51 40.79 57.78 40.98 57.41L40.98 57.41Z" fill="#7C3432"/></g></g><path d="M45.89 84.2C46.19 81 41.7 80.97 39.57 81.13 37.05 81.32 31.66 81.94 34.21 85.66 35.89 88.12 40.29 88.73 42.95 87.93 44.66 87.41 45.75 85.73 45.89 84.2Z" fill="#EF9181"/><path d="M101.33 36.69C106.89 44.06 106.22 54.23 108.66 63.13 108.87 63.88 109.13 64.67 109.75 65.13 111.62 66.52 113.75 63.74 114.45 61.52 114.43 65.95 114.87 70.4 115.85 74.73 116.14 76 116.15 77.83 117.02 78.88 117.99 80.06 120.11 79.51 121.21 78.7 121.64 79.54 121.76 80.49 122.05 81.39 122.34 82.28 122.89 83.19 123.78 83.49 124.98 83.89 126.22 83.04 127.08 82.11 129 80.02 130.16 77.33 130.88 74.59 133.27 65.5 132.97 55.17 131.74 45.94 127.13 11.35 88.03 9.5 82.9 11.11" fill="#7C3432"/><path d="M32.43 14.67C32.93 10.79 36.02 7.7 39.43 5.79 47.95 1.02 58.18 0.05 67.78 0 85.99-0.09 105.42 5.28 118.73 17.93 121.03 20.12 123.02 22.66 124.52 25.46 125.59 27.45 128.05 32.02 126.95 34.31 126.13 36 123.19 35.64 122.32 34.95 123.79 36.15 125.35 37.85 126.25 39.54 127.21 41.36 127.52 43.66 126.52 45.45 125.52 47.23 123.43 48.17 121.4 48.32 119.37 48.47 117.35 47.95 115.38 47.43 112.46 46.66 109.55 45.9 106.63 45.13 108.09 45.65 108.68 47.59 108.07 49.01 107.46 50.43 105.95 51.31 104.42 51.55 102.89 51.79 101.34 51.5 99.83 51.15 93.94 49.8 88.96 47.34 83.63 44.66 80.85 43.26 80.59 44.97 78.9 46.87 77.04 48.96 74.17 48.78 71.59 48.47 59.33 46.98 47.38 42.94 36.73 36.68 31.17 44.05 31.84 54.22 29.4 63.12 29.2 63.87 28.93 64.66 28.31 65.12 26.44 66.51 24.31 63.73 23.62 61.51 23.64 65.94 23.2 70.39 22.22 74.72 21.93 75.99 21.92 77.82 21.05 78.87 20.08 80.05 17.96 79.5 16.86 78.69 16.43 79.53 16.31 80.48 16.02 81.38 15.73 82.27 15.18 83.18 14.29 83.48 13.09 83.88 11.85 83.03 10.99 82.1 9.07 80.01 7.91 77.32 7.19 74.58 4.77 65.49 4.48 55.06 6.3 45.92 7.69 38.94 10.35 30.49 14.75 24.96 23.51 13.95 31.65 12.03 36.77 13.64" fill="#7C3432"/><g><path d="M22.04 78.21C20.86 75.53 17.26 74.5 14.53 75.56 11.8 76.63 9.96 79.31 9.16 82.13 8.91 83.02 8.74 83.94 8.76 84.86 8.83 88.56 11.85 91.65 15.24 93.14 17.12 93.97 19.23 94.43 21.24 94.04 23.26 93.64 25.15 92.27 25.79 90.32" fill="#FFD5B8"/><g><path d="M13.15 82.21C12.86 80.51 14.46 78.7 16.24 79.49 18.53 80.49 16.43 82.98 16.76 84.55 17.01 85.78 18.46 85.74 19.32 86.29 20 86.73 20.67 87.62 20.8 88.43 21.13 90.53 18.64 89.73 17.59 89.2 17.29 89.05 16.96 89.43 17.22 89.68 18.56 90.98 21.94 91.44 21.81 88.75 21.76 87.72 21.09 86.69 20.35 86.02 20.06 85.76 19.74 85.54 19.39 85.38 19.07 85.23 18.61 85.23 18.32 85.04 17.2 84.28 17.81 83.53 17.98 82.65 18.34 80.77 17.65 78.52 15.36 78.68 13.48 78.82 12.41 80.54 12.86 82.29 12.9 82.49 13.18 82.4 13.15 82.21L13.15 82.21Z" fill="#F9B995"/></g><g><path d="M12.85 84.97C12.72 86.15 13.36 87.8 14.68 88.03 14.94 88.07 15.2 87.75 14.96 87.54 14.1 86.77 13.33 86.25 13.24 84.97 13.22 84.72 12.88 84.72 12.85 84.97L12.85 84.97Z" fill="#F9B995"/></g></g><path d="M32.67 38.59C29.01 45.06 26.95 52.42 26.72 59.84 23.86 56.5 23.04 51.93 22.33 47.6 21.37 49 20.95 50.68 20.54 52.33 19.73 55.66 18.91 59 18.1 62.33 17.46 64.93 16.68 67.77 14.48 69.31 13.75 69.82 12.9 70.15 12.03 70.31 10.09 70.65 8.02 70.11 6.5 68.85 6.27 68.66 6.08 68.42 5.87 68.2 6.2 70.37 6.62 72.51 7.16 74.57 7.88 77.32 9.04 80.01 10.96 82.09 11.82 83.02 13.06 83.87 14.26 83.47 15.15 83.17 15.7 82.27 15.99 81.37 16.28 80.48 16.4 79.52 16.83 78.68 17.93 79.49 20.05 80.04 21.02 78.86 21.89 77.81 21.9 75.98 22.19 74.71 23.17 70.38 23.61 65.94 23.59 61.5 24.28 63.72 26.41 66.5 28.29 65.11 28.91 64.65 29.18 63.86 29.38 63.11 31.62 54.94 31.26 45.71 35.48 38.55 35.54 37.61 35.58 36.67 35.65 35.72 34.27 36.05 33.37 37.36 32.67 38.59Z" fill="#632A2A"/><path d="M126.5 45.46C127.5 43.66 127.2 41.36 126.23 39.55 125.33 37.86 123.77 36.17 122.3 34.96 123.17 35.64 126.12 36.01 126.93 34.32 128.03 32.04 125.57 27.47 124.5 25.47 123 22.67 121.01 20.12 118.71 17.94 117.7 16.98 116.64 16.07 115.56 15.19 117.96 20.08 123.54 24.1 124.01 29.69 124.07 30.36 123.96 31.18 123.34 31.44 122.98 31.6 122.56 31.5 122.18 31.39 117.55 30.05 113.53 27.21 109.22 25.07 104.26 22.61 98.84 21.08 93.33 20.56 101.61 23.24 109.07 28.4 114.51 35.2 115.41 36.32 116.28 37.89 115.51 39.1 114.57 40.58 112.31 39.99 110.74 39.24 106.31 37.12 101.89 35.01 97.46 32.89 99.51 34.05 101.04 35.56 102.87 37.01 103.64 37.62 104.26 38.41 104.81 39.22 105.35 40.01 105.86 40.85 106.09 41.78 106.32 42.71 106.24 43.76 105.69 44.54 105.01 45.5 103.76 45.88 102.6 46.07 97.54 46.87 92.31 44.91 87.72 42.96 82 40.53 76.44 37.53 70.36 36.24 71.98 37.33 73.6 38.42 75.23 39.51 76.17 40.14 77.2 40.91 77.35 42.04 77.62 44.13 74.85 45.15 72.74 45.17 65.78 45.23 59.08 42.78 52.55 40.36 48.84 38.99 45.13 37.61 41.42 36.24 39.91 35.68 38.21 34.82 36.64 35.14 35.07 35.46 33.73 37.32 34.18 38.87L34.58 40.3C35.18 39.04 35.87 37.83 36.73 36.69 47.38 42.95 59.33 46.99 71.59 48.48 74.17 48.79 77.04 48.97 78.9 46.88 80.59 44.98 80.85 43.27 83.63 44.67 88.96 47.36 93.95 49.81 99.83 51.16 101.34 51.51 102.89 51.8 104.42 51.56 105.95 51.32 107.46 50.44 108.07 49.02 108.68 47.6 108.08 45.66 106.63 45.14 109.55 45.91 112.46 46.67 115.38 47.44 117.35 47.96 119.37 48.48 121.4 48.33 123.42 48.18 125.51 47.23 126.5 45.46Z" fill="#632A2A"/><path d="M132.6 62.14C131.66 64.75 130.64 67.34 129.08 69.62 128.35 70.68 127.49 71.69 126.35 72.3 125.22 72.91 123.77 73.06 122.65 72.41 121.8 71.92 121.25 71.05 120.81 70.18 117.89 64.43 118.49 57.37 115.55 51.62 115.43 51.38 115.26 51.11 115 51.05 114.54 50.94 114.21 51.5 114.1 51.96 113.51 54.49 114.32 57.47 112.72 59.52 112.4 59.93 111.79 60.29 111.38 59.97 111.18 59.81 111.11 59.54 111.06 59.29 110.51 56.81 110.18 54.28 109.36 51.88 108.61 49.68 107.36 47.59 105.5 46.22 106.82 51.7 107.15 57.65 108.65 63.12 108.86 63.87 109.12 64.66 109.74 65.12 111.61 66.51 113.74 63.73 114.44 61.51 114.42 65.94 114.86 70.39 115.84 74.72 116.13 75.99 116.14 77.82 117.01 78.87 117.98 80.05 120.1 79.5 121.2 78.69 121.63 79.53 121.75 80.48 122.04 81.38 122.33 82.27 122.88 83.18 123.77 83.48 124.97 83.88 126.21 83.03 127.07 82.1 128.99 80.01 130.15 77.32 130.87 74.58 131.93 70.6 132.44 66.39 132.6 62.14Z" fill="#632A2A"/><g><path d="M114.75 78.21C115.93 75.53 119.53 74.5 122.26 75.56 124.99 76.63 126.83 79.31 127.63 82.13 127.88 83.02 128.05 83.94 128.03 84.86 127.96 88.56 124.94 91.65 121.55 93.14 119.67 93.97 117.56 94.43 115.55 94.04 113.53 93.64 111.64 92.27 111 90.32" fill="#FFD5B8"/><g><path d="M123.94 82.29C124.39 80.55 123.35 78.85 121.48 78.68 119.17 78.48 118.46 80.74 118.82 82.64 118.97 83.42 119.23 83.63 118.81 84.41 118.38 85.21 118.28 85 117.54 85.32 117.13 85.5 116.77 85.71 116.45 86.01 115.74 86.66 115.1 87.62 115 88.6 114.71 91.38 118.18 91.03 119.58 89.68 119.84 89.43 119.51 89.05 119.21 89.2 118.09 89.77 115.69 90.46 116 88.43 116.11 87.7 116.7 86.91 117.27 86.46 118.1 85.81 119.8 85.83 120.04 84.55 120.33 82.98 118.36 80.77 120.36 79.57 122.14 78.5 123.94 80.49 123.65 82.21 123.61 82.4 123.89 82.49 123.94 82.29L123.94 82.29Z" fill="#F9B995"/></g><g><path d="M123.55 84.97C123.45 86.24 122.69 86.77 121.83 87.54 121.59 87.75 121.85 88.07 122.11 88.03 123.42 87.81 124.07 86.15 123.94 84.97 123.91 84.72 123.57 84.72 123.55 84.97L123.55 84.97Z" fill="#F9B995"/></g></g><g><path d="M25.44 47.38C24.66 41.09 29.61 29.95 37.03 29.79 37.33 29.78 37.43 29.3 37.1 29.24 33.59 28.59 30.35 32.21 28.5 34.84 25.78 38.71 25.19 42.75 25.27 47.38 25.28 47.49 25.45 47.49 25.44 47.38L25.44 47.38Z" fill="#632A2A"/></g><g><path d="M13.62 52.25C14.58 47.03 16.38 42.04 19.49 37.7 23.09 32.68 29.17 26.7 35.65 26.56 36.04 26.55 36.15 25.95 35.75 25.86 29.92 24.61 23.63 31.1 20.31 35.22 16.38 40.1 13.74 45.93 13.51 52.24 13.52 52.3 13.61 52.31 13.62 52.25L13.62 52.25Z" fill="#632A2A"/></g><g><path d="M15.38 35.34C17.83 27.76 26.94 21.66 34.68 21.6 34.99 21.6 35.05 21.15 34.75 21.06 30.32 19.76 26.05 22.63 22.66 25.19 19.13 27.85 16.11 30.86 14.83 35.18 14.72 35.54 15.27 35.69 15.38 35.34L15.38 35.34Z" fill="#632A2A"/></g><g><path d="M64.77 33.88C59.91 30.04 54.62 27.52 48.52 26.28 44.5 25.46 38.74 24.78 36.79 29.37 36.68 29.64 36.99 29.96 37.23 29.71 43.85 22.85 58.13 29.57 64.53 34.19 64.71 34.33 64.95 34.02 64.77 33.88L64.77 33.88Z" fill="#632A2A"/></g><g><path d="M77.39 24.96C69.51 21.61 60.97 19.43 52.36 19.59 46.57 19.7 38.57 20.48 35.35 26.03 35.11 26.44 35.7 26.75 35.97 26.39 40.23 20.57 49.47 20.24 56.01 20.6 63.3 21 70.36 23 77.26 25.26 77.44 25.32 77.57 25.03 77.39 24.96L77.39 24.96Z" fill="#632A2A"/></g><g><path d="M79.99 14.01C70.8 10.33 60.75 9 50.92 10.41 45.59 11.18 34.02 14 34.4 21.32 34.42 21.64 34.83 21.68 34.94 21.39 38.11 13.1 48.13 11.43 56.03 10.97 64.25 10.49 72.17 11.55 79.83 14.6 80.2 14.76 80.36 14.16 79.99 14.01L79.99 14.01Z" fill="#632A2A"/></g><g><path d="M63.14 87.44C61.19 90.9 63.96 95.56 67.93 95.7 71.9 95.84 74.93 91.19 73.39 87.6 73.27 87.32 72.82 87.47 72.83 87.75 72.93 90.64 71.67 94.49 68.16 94.54 64.8 94.59 62.44 90.63 63.67 87.66 63.81 87.36 63.3 87.16 63.14 87.44L63.14 87.44Z" fill="#C43D4B"/></g><path d="M28.64 168.15C27.27 170.68 17.14 188.05 16.81 188.7 14.29 193.56 10.52 193.72 8.64 193.72 11.32 194.6 14.46 194.72 16.54 193.74 21.88 186.75 27.77 176.15 31.62 171.25L32.95 164.43C32.95 164.43 34.74 154 36.44 146.58 33.12 151.84 31.78 162.34 28.64 168.15Z" fill="#F45E3B"/><path d="M107.56 168.15C108.93 170.68 119.06 188.05 119.39 188.7 121.91 193.56 125.68 193.72 127.56 193.72 124.88 194.6 121.74 194.72 119.66 193.74 114.32 186.75 108.43 176.15 104.58 171.25L103.25 164.43C103.25 164.43 101.46 154 99.76 146.58 103.08 151.84 104.41 162.34 107.56 168.15Z" fill="#F45E3B"/><g><path d="M99.35 127.52C98.79 139.99 105.29 174.66 106.5 179.72 107.88 188.18 112.26 193.49 111.26 199.06 109.33 209.75 94.58 217.18 68.1 217.18 41.62 217.18 26.87 209.75 24.94 199.06 23.94 193.49 28.31 188.18 29.7 179.72 30.91 174.65 37.41 139.98 36.85 127.52" fill="#FF815F"/></g></g></svg>