<svg width="91.98" height="83" viewBox="0 0 91.98 83" xmlns="http://www.w3.org/2000/svg" xmlns:xlink="http://www.w3.org/1999/xlink" xml:space="preserve" overflow="hidden"><defs></defs><g><g><g><g><rect x="0.5" y="0.5" width="77.11" height="82" fill="#EEF3FF"/></g><g><path d="M78.11 83 0 83 0 0 78.11 0 78.11 83ZM1 82 77.11 82 77.11 1 1 1 1 82Z" fill="#8796D8"/></g><g><path d="M39.55 82.5 38.55 82.5 38.55 80.5 39.55 80.5 39.55 82.5ZM39.55 75.5 38.55 75.5 38.55 70.5 39.55 70.5 39.55 75.5ZM39.55 65.5 38.55 65.5 38.55 60.5 39.55 60.5 39.55 65.5ZM39.55 55.5 38.55 55.5 38.55 50.5 39.55 50.5 39.55 55.5ZM39.55 45.5 38.55 45.5 38.55 40.5 39.55 40.5 39.55 45.5ZM39.55 35.5 38.55 35.5 38.55 30.5 39.55 30.5 39.55 35.5ZM39.55 25.5 38.55 25.5 38.55 20.5 39.55 20.5 39.55 25.5ZM39.55 15.5 38.55 15.5 38.55 10.5 39.55 10.5 39.55 15.5ZM39.55 5.5 38.55 5.5 38.55 0.5 39.55 0.5 39.55 5.5Z" fill="#8796D8"/></g></g><g><g><path d="M39.05 8.15 46.62 0.5 39.05 0.5 31.48 0.5Z" fill="#E4CDFC"/></g><g><path d="M39.05 8.87 30.29 0 47.82 0 39.05 8.87ZM32.68 1 39.05 7.44 45.42 1 32.68 1Z" fill="#8796D8"/></g></g></g><g><g><path d="M71.69 66.37 64.55 62.49 66.89 60.76C57.28 46.34 69.6 35.5 69.73 35.39L70.54 36.33C70.04 36.76 58.94 46.57 67.89 60.03L70.07 58.42 71.69 66.37Z" fill="#5366AD"/></g><g><path d="M83.52 34.52 90.66 38.4 88.32 40.13C97.93 54.55 85.61 65.39 85.48 65.5L84.67 64.56C85.17 64.13 96.27 54.32 87.32 40.86L85.14 42.47 83.52 34.52Z" fill="#5366AD"/></g></g></g></svg>