<svg width="85" height="103.68" viewBox="0 0 85 103.68" xmlns="http://www.w3.org/2000/svg" xmlns:xlink="http://www.w3.org/1999/xlink" xml:space="preserve" overflow="hidden"><defs></defs><g><g><g><g><path d="M44.95 20.2 43.58 66.44C52.2 66.62 60.82 66.96 69.54 66.91L71.54 0.31 44.95 20.2Z" stroke="#435791" stroke-width="0.6179" stroke-linecap="round" stroke-linejoin="round" stroke-miterlimit="10" fill="#8EA7E8"/></g><g><path d="M13.38 0.4 15.6 67.12C24.34 66.31 32.95 66.25 41.56 66.4L40.03 20.2 13.38 0.4Z" stroke="#435791" stroke-width="0.6179" stroke-linecap="round" stroke-linejoin="round" stroke-miterlimit="10" fill="#8EA7E8"/></g><g><path d="M15 38.45 15.17 43.95 40.67 43.78 40.67 41.28Z" fill="#8EA7E8" opacity="0.5"/></g><g><path d="M70.17 38.45 70 43.95 44.5 43.78 44.5 41.28Z" fill="#8EA7E8" opacity="0.5"/></g></g><g><path d="M70.24 41.69 14.76 41.69 0.31 61.18 42.5 103.37 84.69 61.18Z" stroke="#435791" stroke-width="0.6179" stroke-linecap="round" stroke-linejoin="round" stroke-miterlimit="10" fill="#8EA7E8"/></g></g><g><g><g><line x1="29" y1="89.45" x2="30.77" y2="89.45" stroke="#435791" stroke-width="0.821" stroke-miterlimit="10" fill="none"/><line x1="34.14" y1="89.45" x2="52.67" y2="89.45" stroke="#435791" stroke-width="0.821" stroke-miterlimit="10" stroke-dasharray="3.3705 3.3705" fill="none"/><line x1="54.36" y1="89.45" x2="56.13" y2="89.45" stroke="#435791" stroke-width="0.821" stroke-miterlimit="10" fill="none"/></g></g><g><path d="M24.77 101.59C27.96 103.38 39.36 106.05 42.98 93.02" stroke="#435791" stroke-width="0.821" stroke-miterlimit="10" fill="none"/><path d="M25.83 102.04 26.4 100.64 24.9 100.84 23.4 101.04 24.32 102.24 25.25 103.44Z" fill="#435791"/></g></g></g></svg>