<svg width="143.93" height="143.94" viewBox="0 0 143.93 143.94" xmlns="http://www.w3.org/2000/svg" xmlns:xlink="http://www.w3.org/1999/xlink" xml:space="preserve" overflow="hidden"><defs></defs><g><g><rect x="21.43" y="21.43" width="101.07" height="101.07" fill="#FFFFFF" transform="matrix(0.7072 -0.7071 0.7071 0.7072 -29.8092 71.9603)"/></g><g><path d="M71.97 142C71.69 142 71.47 141.78 71.47 141.5L71.47 138.5C71.47 138.22 71.69 138 71.97 138 72.25 138 72.47 138.22 72.47 138.5L72.47 141.5C72.47 141.78 72.24 142 71.97 142ZM71.97 136C71.69 136 71.47 135.78 71.47 135.5L71.47 132.5C71.47 132.22 71.69 132 71.97 132 72.25 132 72.47 132.22 72.47 132.5L72.47 135.5C72.47 135.78 72.24 136 71.97 136ZM71.97 130C71.69 130 71.47 129.78 71.47 129.5L71.47 126.5C71.47 126.22 71.69 126 71.97 126 72.25 126 72.47 126.22 72.47 126.5L72.47 129.5C72.47 129.78 72.24 130 71.97 130ZM71.97 124C71.69 124 71.47 123.78 71.47 123.5L71.47 120.5C71.47 120.22 71.69 120 71.97 120 72.25 120 72.47 120.22 72.47 120.5L72.47 123.5C72.47 123.78 72.24 124 71.97 124ZM71.97 118C71.69 118 71.47 117.78 71.47 117.5L71.47 114.5C71.47 114.22 71.69 114 71.97 114 72.25 114 72.47 114.22 72.47 114.5L72.47 117.5C72.47 117.78 72.24 118 71.97 118ZM71.97 112C71.69 112 71.47 111.78 71.47 111.5L71.47 108.5C71.47 108.22 71.69 108 71.97 108 72.25 108 72.47 108.22 72.47 108.5L72.47 111.5C72.47 111.78 72.24 112 71.97 112ZM71.97 106C71.69 106 71.47 105.78 71.47 105.5L71.47 102.5C71.47 102.22 71.69 102 71.97 102 72.25 102 72.47 102.22 72.47 102.5L72.47 105.5C72.47 105.78 72.24 106 71.97 106ZM71.97 100C71.69 100 71.47 99.78 71.47 99.5L71.47 96.5C71.47 96.22 71.69 96 71.97 96 72.25 96 72.47 96.22 72.47 96.5L72.47 99.5C72.47 99.78 72.24 100 71.97 100ZM71.97 94C71.69 94 71.47 93.78 71.47 93.5L71.47 90.5C71.47 90.22 71.69 90 71.97 90 72.25 90 72.47 90.22 72.47 90.5L72.47 93.5C72.47 93.78 72.24 94 71.97 94ZM71.97 88C71.69 88 71.47 87.78 71.47 87.5L71.47 84.5C71.47 84.22 71.69 84 71.97 84 72.25 84 72.47 84.22 72.47 84.5L72.47 87.5C72.47 87.78 72.24 88 71.97 88ZM71.97 82C71.69 82 71.47 81.78 71.47 81.5L71.47 78.5C71.47 78.22 71.69 78 71.97 78 72.25 78 72.47 78.22 72.47 78.5L72.47 81.5C72.47 81.78 72.24 82 71.97 82ZM71.97 76C71.69 76 71.47 75.78 71.47 75.5L71.47 72.5C71.47 72.22 71.69 72 71.97 72 72.25 72 72.47 72.22 72.47 72.5L72.47 75.5C72.47 75.78 72.24 76 71.97 76ZM71.97 70C71.69 70 71.47 69.78 71.47 69.5L71.47 66.5C71.47 66.22 71.69 66 71.97 66 72.25 66 72.47 66.22 72.47 66.5L72.47 69.5C72.47 69.78 72.24 70 71.97 70ZM71.97 64C71.69 64 71.47 63.78 71.47 63.5L71.47 60.5C71.47 60.22 71.69 60 71.97 60 72.25 60 72.47 60.22 72.47 60.5L72.47 63.5C72.47 63.78 72.24 64 71.97 64ZM71.97 58C71.69 58 71.47 57.78 71.47 57.5L71.47 54.5C71.47 54.22 71.69 54 71.97 54 72.25 54 72.47 54.22 72.47 54.5L72.47 57.5C72.47 57.78 72.24 58 71.97 58ZM71.97 52C71.69 52 71.47 51.78 71.47 51.5L71.47 48.5C71.47 48.22 71.69 48 71.97 48 72.25 48 72.47 48.22 72.47 48.5L72.47 51.5C72.47 51.78 72.24 52 71.97 52ZM71.97 46C71.69 46 71.47 45.78 71.47 45.5L71.47 42.5C71.47 42.22 71.69 42 71.97 42 72.25 42 72.47 42.22 72.47 42.5L72.47 45.5C72.47 45.78 72.24 46 71.97 46ZM71.97 40C71.69 40 71.47 39.78 71.47 39.5L71.47 36.5C71.47 36.22 71.69 36 71.97 36 72.25 36 72.47 36.22 72.47 36.5L72.47 39.5C72.47 39.78 72.24 40 71.97 40ZM71.97 34C71.69 34 71.47 33.78 71.47 33.5L71.47 30.5C71.47 30.22 71.69 30 71.97 30 72.25 30 72.47 30.22 72.47 30.5L72.47 33.5C72.47 33.78 72.24 34 71.97 34ZM71.97 28C71.69 28 71.47 27.78 71.47 27.5L71.47 24.5C71.47 24.22 71.69 24 71.97 24 72.25 24 72.47 24.22 72.47 24.5L72.47 27.5C72.47 27.78 72.24 28 71.97 28ZM71.97 22C71.69 22 71.47 21.78 71.47 21.5L71.47 18.5C71.47 18.22 71.69 18 71.97 18 72.25 18 72.47 18.22 72.47 18.5L72.47 21.5C72.47 21.78 72.24 22 71.97 22ZM71.97 16C71.69 16 71.47 15.78 71.47 15.5L71.47 12.5C71.47 12.22 71.69 12 71.97 12 72.25 12 72.47 12.22 72.47 12.5L72.47 15.5C72.47 15.78 72.24 16 71.97 16ZM71.97 10C71.69 10 71.47 9.78 71.47 9.5L71.47 6.5C71.47 6.22 71.69 6 71.97 6 72.25 6 72.47 6.22 72.47 6.5L72.47 9.5C72.47 9.78 72.24 10 71.97 10ZM71.97 4C71.69 4 71.47 3.78 71.47 3.5L71.47 0.5C71.47 0.22 71.69 0 71.97 0 72.25 0 72.47 0.22 72.47 0.5L72.47 3.5C72.47 3.78 72.24 4 71.97 4Z" fill="#7A7A9A"/></g><g><path d="M36.23 108.2C35.95 108.2 35.73 107.98 35.73 107.7L35.73 104.7C35.73 104.42 35.95 104.2 36.23 104.2 36.51 104.2 36.73 104.42 36.73 104.7L36.73 107.7C36.73 107.98 36.51 108.2 36.23 108.2ZM36.23 102.2C35.95 102.2 35.73 101.98 35.73 101.7L35.73 98.7C35.73 98.42 35.95 98.2 36.23 98.2 36.51 98.2 36.73 98.42 36.73 98.7L36.73 101.7C36.73 101.98 36.51 102.2 36.23 102.2ZM36.23 96.2C35.95 96.2 35.73 95.98 35.73 95.7L35.73 92.7C35.73 92.42 35.95 92.2 36.23 92.2 36.51 92.2 36.73 92.42 36.73 92.7L36.73 95.7C36.73 95.98 36.51 96.2 36.23 96.2ZM36.23 90.2C35.95 90.2 35.73 89.98 35.73 89.7L35.73 86.7C35.73 86.42 35.95 86.2 36.23 86.2 36.51 86.2 36.73 86.42 36.73 86.7L36.73 89.7C36.73 89.98 36.51 90.2 36.23 90.2ZM36.23 84.2C35.95 84.2 35.73 83.98 35.73 83.7L35.73 80.7C35.73 80.42 35.95 80.2 36.23 80.2 36.51 80.2 36.73 80.42 36.73 80.7L36.73 83.7C36.73 83.98 36.51 84.2 36.23 84.2ZM36.23 78.2C35.95 78.2 35.73 77.98 35.73 77.7L35.73 74.7C35.73 74.42 35.95 74.2 36.23 74.2 36.51 74.2 36.73 74.42 36.73 74.7L36.73 77.7C36.73 77.98 36.51 78.2 36.23 78.2ZM36.23 72.2C35.95 72.2 35.73 71.98 35.73 71.7L35.73 68.7C35.73 68.42 35.95 68.2 36.23 68.2 36.51 68.2 36.73 68.42 36.73 68.7L36.73 71.7C36.73 71.98 36.51 72.2 36.23 72.2ZM36.23 66.2C35.95 66.2 35.73 65.98 35.73 65.7L35.73 62.7C35.73 62.42 35.95 62.2 36.23 62.2 36.51 62.2 36.73 62.42 36.73 62.7L36.73 65.7C36.73 65.98 36.51 66.2 36.23 66.2ZM36.23 60.2C35.95 60.2 35.73 59.98 35.73 59.7L35.73 56.7C35.73 56.42 35.95 56.2 36.23 56.2 36.51 56.2 36.73 56.42 36.73 56.7L36.73 59.7C36.73 59.98 36.51 60.2 36.23 60.2ZM36.23 54.2C35.95 54.2 35.73 53.98 35.73 53.7L35.73 50.7C35.73 50.42 35.95 50.2 36.23 50.2 36.51 50.2 36.73 50.42 36.73 50.7L36.73 53.7C36.73 53.98 36.51 54.2 36.23 54.2ZM36.23 48.2C35.95 48.2 35.73 47.98 35.73 47.7L35.73 44.7C35.73 44.42 35.95 44.2 36.23 44.2 36.51 44.2 36.73 44.42 36.73 44.7L36.73 47.7C36.73 47.98 36.51 48.2 36.23 48.2ZM36.23 42.2C35.95 42.2 35.73 41.98 35.73 41.7L35.73 38.7C35.73 38.42 35.95 38.2 36.23 38.2 36.51 38.2 36.73 38.42 36.73 38.7L36.73 41.7C36.73 41.98 36.51 42.2 36.23 42.2Z" fill="#7A7A9A"/></g><g><path d="M107.7 105.73C107.42 105.73 107.2 105.51 107.2 105.23L107.2 102.23C107.2 101.95 107.42 101.73 107.7 101.73 107.98 101.73 108.2 101.95 108.2 102.23L108.2 105.23C108.2 105.51 107.98 105.73 107.7 105.73ZM107.7 99.73C107.42 99.73 107.2 99.51 107.2 99.23L107.2 96.23C107.2 95.95 107.42 95.73 107.7 95.73 107.98 95.73 108.2 95.95 108.2 96.23L108.2 99.23C108.2 99.51 107.98 99.73 107.7 99.73ZM107.7 93.73C107.42 93.73 107.2 93.51 107.2 93.23L107.2 90.23C107.2 89.95 107.42 89.73 107.7 89.73 107.98 89.73 108.2 89.95 108.2 90.23L108.2 93.23C108.2 93.51 107.98 93.73 107.7 93.73ZM107.7 87.73C107.42 87.73 107.2 87.51 107.2 87.23L107.2 84.23C107.2 83.95 107.42 83.73 107.7 83.73 107.98 83.73 108.2 83.95 108.2 84.23L108.2 87.23C108.2 87.51 107.98 87.73 107.7 87.73ZM107.7 81.73C107.42 81.73 107.2 81.51 107.2 81.23L107.2 78.23C107.2 77.95 107.42 77.73 107.7 77.73 107.98 77.73 108.2 77.95 108.2 78.23L108.2 81.23C108.2 81.51 107.98 81.73 107.7 81.73ZM107.7 75.73C107.42 75.73 107.2 75.51 107.2 75.23L107.2 72.23C107.2 71.95 107.42 71.73 107.7 71.73 107.98 71.73 108.2 71.95 108.2 72.23L108.2 75.23C108.2 75.51 107.98 75.73 107.7 75.73ZM107.7 69.73C107.42 69.73 107.2 69.51 107.2 69.23L107.2 66.23C107.2 65.95 107.42 65.73 107.7 65.73 107.98 65.73 108.2 65.95 108.2 66.23L108.2 69.23C108.2 69.51 107.98 69.73 107.7 69.73ZM107.7 63.73C107.42 63.73 107.2 63.51 107.2 63.23L107.2 60.23C107.2 59.95 107.42 59.73 107.7 59.73 107.98 59.73 108.2 59.95 108.2 60.23L108.2 63.23C108.2 63.51 107.98 63.73 107.7 63.73ZM107.7 57.73C107.42 57.73 107.2 57.51 107.2 57.23L107.2 54.23C107.2 53.95 107.42 53.73 107.7 53.73 107.98 53.73 108.2 53.95 108.2 54.23L108.2 57.23C108.2 57.51 107.98 57.73 107.7 57.73ZM107.7 51.73C107.42 51.73 107.2 51.51 107.2 51.23L107.2 48.23C107.2 47.95 107.42 47.73 107.7 47.73 107.98 47.73 108.2 47.95 108.2 48.23L108.2 51.23C108.2 51.51 107.98 51.73 107.7 51.73ZM107.7 45.73C107.42 45.73 107.2 45.51 107.2 45.23L107.2 42.23C107.2 41.95 107.42 41.73 107.7 41.73 107.98 41.73 108.2 41.95 108.2 42.23L108.2 45.23C108.2 45.51 107.98 45.73 107.7 45.73ZM107.7 39.73C107.42 39.73 107.2 39.51 107.2 39.23L107.2 36.23C107.2 35.95 107.42 35.73 107.7 35.73 107.98 35.73 108.2 35.95 108.2 36.23L108.2 39.23C108.2 39.51 107.98 39.73 107.7 39.73Z" fill="#7A7A9A"/></g><g><path d="M71.97 143.94C71.84 143.94 71.71 143.89 71.62 143.79L0.15 72.32C0.05 72.23 0 72.1 0 71.97 0 71.84 0.05 71.71 0.15 71.62L71.62 0.14C71.81-0.05 72.14-0.05 72.33 0.14L143.79 71.61C143.99 71.81 143.99 72.12 143.79 72.32L72.33 143.79C72.23 143.88 72.1 143.94 71.97 143.94ZM1.21 71.97 71.97 142.73 142.72 71.97 71.97 1.2 1.21 71.97Z" fill="#292764"/></g></g></svg>