<svg width="304.2" height="93.05" viewBox="0 0 304.2 93.05" xmlns="http://www.w3.org/2000/svg" xmlns:xlink="http://www.w3.org/1999/xlink" xml:space="preserve" overflow="hidden"><defs></defs><g><g><g><path d="M193.28 45.64C193.28 54.07 165.93 60.9 132.2 60.9 98.46 60.9 71.11 54.07 71.11 45.64 71.11 37.21 98.46 30.38 132.2 30.38 165.93 30.38 193.28 37.21 193.28 45.64Z" fill="#2F282B" opacity="0.3"/><path d="M194.06 40.23C194.06 49.66 166.36 57.3 132.19 57.3 98.02 57.3 70.32 49.66 70.32 40.23 70.32 30.8 98.02 23.15 132.19 23.15 166.36 23.15 194.06 30.8 194.06 40.23Z" fill="#DDDDDD"/><path d="M193.28 39.7C193.28 48.83 165.93 56.24 132.2 56.24 98.46 56.24 71.11 48.83 71.11 39.7 71.11 30.56 98.46 23.15 132.2 23.15 165.93 23.15 193.28 30.56 193.28 39.7Z" fill="#FFFFFF"/><path d="M172.43 39.7C172.43 45.72 154.42 50.6 132.19 50.6 109.96 50.6 91.95 45.72 91.95 39.7 91.95 33.68 109.96 28.8 132.19 28.8 154.42 28.8 172.43 33.68 172.43 39.7Z" fill="#D7D9DA"/><path d="M171.78 40.19C171.78 45.94 154.06 50.6 132.19 50.6 110.33 50.6 92.6 45.94 92.6 40.19 92.6 34.44 110.33 29.79 132.19 29.79 154.05 29.79 171.78 34.44 171.78 40.19Z" fill="#FFFFFF"/></g><g><g><path d="M184.01 19.43C184.08 18.15 183.87 16.85 183.32 15.69 181.95 12.83 179.27 11.36 176.87 10.13 172.2 7.74 167.04 7.33 161.94 7.09 141.65 6.15 121.12 7.13 100.8 11.16 95.7 12.17 90.53 13.17 85.58 15.3 82.88 16.48 77.9 18.58 78.48 23.08 79.77 33.14 92.68 32.17 98.6 32.68 112.34 33.86 126.22 33.61 140.07 32.71 143.65 32.47 147.24 32.2 150.83 31.89 156.13 31.43 161.45 30.92 166.74 30.05 171.36 29.3 176.85 28.82 180.96 25.56 182.75 24.14 183.87 21.8 184.01 19.43Z" fill="#EFA64D"/></g><g><path d="M176.95 14C176.95 14 174.79 22.49 164.18 26.64 164.17 26.64 172.6 21.4 176.95 14Z" fill="#C17B49" opacity="0.3"/><path d="M164.71 14.19C164.71 14.19 162.55 22.69 151.93 26.84 151.93 26.84 160.36 21.59 164.71 14.19Z" fill="#C17B49" opacity="0.3"/><path d="M151.57 15.24C151.57 15.24 149.41 23.73 138.8 27.88 138.79 27.88 147.21 22.64 151.57 15.24Z" fill="#C17B49" opacity="0.3"/><path d="M138.08 15.45C138.08 15.45 135.92 23.94 125.3 28.09 125.3 28.1 133.73 22.84 138.08 15.45Z" fill="#C17B49" opacity="0.3"/><path d="M124.99 16.11C124.99 16.11 122.83 24.61 112.21 28.76 112.21 28.76 120.64 23.51 124.99 16.11Z" fill="#C17B49" opacity="0.3"/><path d="M112.62 16.1C112.62 16.1 110.46 24.6 99.85 28.74 99.85 28.74 108.27 23.49 112.62 16.1Z" fill="#C17B49" opacity="0.3"/><path d="M98.87 17.03C98.87 17.03 97.11 23.95 88.47 27.33 88.47 27.33 95.33 23.06 98.87 17.03Z" fill="#C17B49" opacity="0.3"/></g><path d="M98.59 32.68C112.33 33.86 126.21 33.61 140.06 32.71 143.64 32.47 147.23 32.2 150.82 31.89 156.12 31.43 161.44 30.92 166.73 30.05 171.35 29.3 176.84 28.82 180.95 25.56 182.74 24.14 183.86 21.8 184 19.43 184.07 18.15 183.86 16.85 183.31 15.69 181.94 12.83 179.26 11.36 176.86 10.13 172.19 7.74 167.03 7.33 161.93 7.09 141.64 6.15 121.11 7.13 100.79 11.16 95.69 12.17 90.52 13.17 85.57 15.3 82.87 16.48 77.89 18.58 78.47 23.08 79.76 33.14 92.67 32.17 98.59 32.68ZM102.92 20.6C102.5 17.28 106.16 15.73 108.15 14.87 111.8 13.3 115.61 12.56 119.37 11.82 134.35 8.85 149.47 8.13 164.43 8.82 168.19 8.99 172 9.29 175.44 11.06 177.21 11.97 179.18 13.05 180.19 15.16 180.6 16.02 180.76 16.96 180.7 17.91 180.6 19.65 179.77 21.38 178.45 22.43 175.42 24.83 171.37 25.18 167.97 25.74 164.06 26.38 160.15 26.75 156.23 27.09 153.59 27.32 150.95 27.52 148.31 27.69 138.09 28.36 127.87 28.54 117.74 27.67 113.38 27.31 103.87 28.02 102.92 20.6Z" fill="#EFA64D" opacity="0.5"/><path d="M180.02 16.59C180.02 16.59 180.6 10.41 160.99 9.55 141.39 8.69 122.8 11.7 122.8 11.7 122.8 11.7 173.93 8.87 180.02 16.59Z" fill="#EFA64D"/></g><g><g><path d="M133.52 42.2C133.83 41.44 133.8 37.87 133.55 37.22 132.77 35.16 129.79 36.52 128.1 35.68 125.48 34.38 122.12 32.82 119.15 33.18 117.42 33.39 115.77 33.96 114.08 34.35 113.23 34.73 112.42 35.08 111.69 35.35 108.68 36.48 105.29 37.29 101.89 37.88 101.7 37.91 101.52 37.94 101.33 37.98 97.8 38.57 94.28 39.14 91.83 40.8 90.77 41.53 89.84 40.43 89.51 41.24 89.32 41.69 89.5 44.03 89.51 44.48 89.51 45.18 89.74 45.86 90.14 46.5 91.52 48.72 94.12 50.97 97.99 52.18 102.01 53.43 107.49 53.63 112.1 51.79 114.46 50.84 115.98 49.46 118.21 48.52 122.63 46.66 127.76 45.2 131.87 43.13 132.49 42.81 133.05 42.51 133.52 42.2Z" fill="#CC8D5B"/><path d="M113.85 34.45C113.09 34.79 112.36 35.1 111.69 35.35 110.28 35.88 108.79 36.33 107.25 36.73L107.25 52.97C108.9 52.77 110.55 52.4 112.09 51.79 112.73 51.54 113.3 51.24 113.85 50.94L113.85 34.45Z" fill="#CC8D5B" opacity="0.3"/><path d="M133.56 37.23C132.78 35.17 129.8 36.53 128.11 35.69 127.64 35.45 127.14 35.22 126.62 34.98L126.62 45.37C128.46 44.68 130.24 43.95 131.87 43.14 132.5 42.82 133.06 42.52 133.53 42.22 133.83 41.44 133.8 37.88 133.56 37.23Z" fill="#CC8D5B" opacity="0.3"/><path d="M133.52 39.14C134.79 35.98 130.33 33.73 128.1 32.62 125.48 31.32 122.12 29.76 119.15 30.12 117.42 30.33 115.77 30.91 114.08 31.29 113.23 31.67 112.42 32.02 111.69 32.29 108.68 33.42 105.29 34.23 101.89 34.82 101.7 34.86 101.52 34.89 101.33 34.92 97.8 35.51 94.28 36.08 91.83 37.75 89.25 39.51 89.04 41.68 90.14 43.44 91.52 45.66 94.12 47.91 97.99 49.11 102.01 50.37 107.49 50.56 112.1 48.72 114.46 47.78 115.98 46.39 118.21 45.45 122.63 43.59 127.76 42.14 131.87 40.06 132.49 39.75 133.05 39.45 133.52 39.14Z" fill="#E69E67"/><path d="M131.95 38.86C133.15 36.02 129.01 34.03 126.94 33.06 124.51 31.91 121.39 30.53 118.63 30.86 117.02 31.05 115.49 31.58 113.91 31.92 113.12 32.26 112.37 32.58 111.68 32.83 108.88 33.85 105.72 34.59 102.56 35.13 102.38 35.16 102.21 35.19 102.04 35.22 98.76 35.77 95.48 36.29 93.2 37.79 90.79 39.38 90.58 41.32 91.61 42.89 92.88 44.87 95.29 46.87 98.88 47.93 102.62 49.03 107.7 49.18 111.99 47.52 114.19 46.66 115.6 45.42 117.68 44.57 121.79 42.89 126.57 41.57 130.4 39.69 130.98 39.41 131.51 39.13 131.95 38.86Z" fill="#FABF78"/><path d="M101.37 41.43C101.37 41.64 100.87 41.82 100.26 41.82 99.65 41.82 99.15 41.64 99.15 41.43 99.15 41.21 99.65 41.04 100.26 41.04 100.88 41.03 101.37 41.21 101.37 41.43Z" fill="#CC8D5B" opacity="0.3"/><path d="M106.18 43.35C106.18 43.47 105.9 43.57 105.56 43.57 105.22 43.57 104.94 43.47 104.94 43.35 104.94 43.23 105.22 43.13 105.56 43.13 105.9 43.13 106.18 43.23 106.18 43.35Z" fill="#CC8D5B" opacity="0.3"/><path d="M106.18 39.31C106.18 39.43 105.9 39.53 105.56 39.53 105.22 39.53 104.94 39.43 104.94 39.31 104.94 39.19 105.22 39.09 105.56 39.09 105.9 39.09 106.18 39.19 106.18 39.31Z" fill="#CC8D5B" opacity="0.3"/><path d="M95.01 40.54C95.01 40.66 94.73 40.76 94.39 40.76 94.05 40.76 93.77 40.66 93.77 40.54 93.77 40.42 94.05 40.32 94.39 40.32 94.73 40.32 95.01 40.42 95.01 40.54Z" fill="#CC8D5B" opacity="0.3"/><path d="M122.38 40.32C122.38 40.44 122.1 40.54 121.76 40.54 121.42 40.54 121.14 40.44 121.14 40.32 121.14 40.2 121.42 40.1 121.76 40.1 122.1 40.1 122.38 40.2 122.38 40.32Z" fill="#CC8D5B" opacity="0.3"/><path d="M120.21 35.24C120.21 35.36 119.93 35.46 119.59 35.46 119.25 35.46 118.97 35.36 118.97 35.24 118.97 35.12 119.25 35.02 119.59 35.02 119.93 35.02 120.21 35.12 120.21 35.24Z" fill="#CC8D5B" opacity="0.3"/><path d="M110.87 35.24C110.87 35.36 110.59 35.46 110.25 35.46 109.91 35.46 109.63 35.36 109.63 35.24 109.63 35.12 109.91 35.02 110.25 35.02 110.59 35.02 110.87 35.12 110.87 35.24Z" fill="#CC8D5B" opacity="0.3"/><path d="M130.35 36.76C130.35 36.88 130.07 36.98 129.73 36.98 129.39 36.98 129.11 36.88 129.11 36.76 129.11 36.64 129.39 36.54 129.73 36.54 130.07 36.54 130.35 36.64 130.35 36.76Z" fill="#CC8D5B" opacity="0.3"/></g><g><path d="M129.19 37.22C129.5 36.46 129.47 32.9 129.22 32.24 128.44 30.18 125.46 31.54 123.77 30.7 121.15 29.4 117.78 27.84 114.82 28.2 113.08 28.41 111.44 28.99 109.75 29.37 108.9 29.75 108.09 30.1 107.36 30.37 104.35 31.49 100.96 32.31 97.56 32.9 97.37 32.93 97.18 32.97 97 33 93.47 33.59 89.94 34.16 87.5 35.83 86.43 36.56 85.51 35.46 85.18 36.27 84.99 36.72 85.17 39.06 85.18 39.51 85.19 40.21 85.42 40.9 85.81 41.53 87.19 43.75 89.79 46 93.66 47.21 97.69 48.47 103.16 48.66 107.77 46.82 110.13 45.88 111.65 44.49 113.88 43.55 118.29 41.69 123.43 40.23 127.54 38.16 128.16 37.83 128.72 37.53 129.19 37.22Z" fill="#CC8D5B"/><path d="M109.51 29.47C108.75 29.8 108.02 30.12 107.35 30.37 105.94 30.89 104.45 31.35 102.91 31.75L102.91 47.99C104.57 47.79 106.21 47.42 107.75 46.8 108.39 46.55 108.96 46.25 109.5 45.96L109.5 29.47Z" fill="#CC8D5B" opacity="0.3"/><path d="M129.22 32.25C128.44 30.19 125.46 31.55 123.77 30.71 123.3 30.48 122.79 30.24 122.28 30L122.28 40.39C124.11 39.7 125.9 38.98 127.53 38.16 128.16 37.84 128.72 37.54 129.19 37.23 129.5 36.46 129.47 32.9 129.22 32.25Z" fill="#CC8D5B" opacity="0.3"/><path d="M129.19 34.17C130.46 31.01 126 28.76 123.77 27.65 121.15 26.35 117.78 24.79 114.82 25.14 113.08 25.35 111.44 25.93 109.75 26.31 108.9 26.69 108.09 27.04 107.36 27.31 104.35 28.43 100.96 29.25 97.56 29.84 97.37 29.88 97.18 29.91 97 29.94 93.47 30.53 89.94 31.1 87.5 32.76 84.92 34.53 84.7 36.69 85.81 38.46 87.19 40.68 89.79 42.93 93.66 44.13 97.69 45.39 103.16 45.58 107.77 43.73 110.13 42.79 111.65 41.41 113.88 40.46 118.29 38.61 123.43 37.15 127.54 35.08 128.16 34.78 128.72 34.47 129.19 34.17Z" fill="#E69E67"/><path d="M127.61 33.88C128.81 31.05 124.67 29.06 122.6 28.08 120.17 26.93 117.05 25.55 114.29 25.88 112.67 26.07 111.14 26.6 109.57 26.95 108.77 27.29 108.02 27.61 107.34 27.86 104.54 28.88 101.38 29.62 98.22 30.17 98.04 30.2 97.87 30.23 97.7 30.26 94.42 30.81 91.14 31.32 88.86 32.83 86.45 34.42 86.24 36.35 87.26 37.93 88.53 39.91 90.94 41.91 94.52 42.97 98.26 44.07 103.34 44.23 107.64 42.56 109.84 41.71 111.25 40.46 113.33 39.61 117.44 37.93 122.22 36.61 126.05 34.73 126.65 34.43 127.18 34.15 127.61 33.88Z" fill="#FABF78"/><path d="M97.04 36.45C97.04 36.67 96.54 36.84 95.93 36.84 95.31 36.84 94.82 36.67 94.82 36.45 94.82 36.24 95.31 36.06 95.93 36.06 96.54 36.06 97.04 36.23 97.04 36.45Z" fill="#CC8D5B" opacity="0.3"/><path d="M101.85 38.37C101.85 38.49 101.57 38.59 101.23 38.59 100.89 38.59 100.61 38.49 100.61 38.37 100.61 38.25 100.89 38.15 101.23 38.15 101.57 38.15 101.85 38.25 101.85 38.37Z" fill="#CC8D5B" opacity="0.3"/><path d="M101.85 34.33C101.85 34.45 101.57 34.55 101.23 34.55 100.89 34.55 100.61 34.45 100.61 34.33 100.61 34.21 100.89 34.11 101.23 34.11 101.57 34.11 101.85 34.21 101.85 34.33Z" fill="#CC8D5B" opacity="0.3"/><path d="M90.68 35.56C90.68 35.68 90.4 35.78 90.06 35.78 89.72 35.78 89.44 35.68 89.44 35.56 89.44 35.44 89.72 35.34 90.06 35.34 90.4 35.35 90.68 35.44 90.68 35.56Z" fill="#CC8D5B" opacity="0.3"/><path d="M118.04 35.35C118.04 35.47 117.76 35.57 117.42 35.57 117.08 35.57 116.8 35.47 116.8 35.35 116.8 35.23 117.08 35.13 117.42 35.13 117.76 35.13 118.04 35.22 118.04 35.35Z" fill="#CC8D5B" opacity="0.3"/><path d="M115.87 30.26C115.87 30.38 115.59 30.48 115.25 30.48 114.91 30.48 114.63 30.38 114.63 30.26 114.63 30.14 114.91 30.04 115.25 30.04 115.59 30.04 115.87 30.14 115.87 30.26Z" fill="#CC8D5B" opacity="0.3"/><path d="M106.54 30.26C106.54 30.38 106.26 30.48 105.92 30.48 105.58 30.48 105.3 30.38 105.3 30.26 105.3 30.14 105.58 30.04 105.92 30.04 106.26 30.04 106.54 30.14 106.54 30.26Z" fill="#CC8D5B" opacity="0.3"/><path d="M126.02 31.78C126.02 31.9 125.74 32 125.4 32 125.06 32 124.78 31.9 124.78 31.78 124.78 31.66 125.06 31.56 125.4 31.56 125.74 31.56 126.02 31.66 126.02 31.78Z" fill="#CC8D5B" opacity="0.3"/></g></g><g><g><g><path d="M175.38 17.63C174.81 16.11 173.81 14.87 172.57 13.9 172.55 13.88 172.55 13.85 172.53 13.83 169.94 11.24 156.87 7 143.44 8.64 130.01 10.29 124.48 13.83 124.48 13.83 124.48 13.83 124.13 16.66 124.01 17.01 124.01 17.01 127.07 50.34 132.61 50.57 136.3 50.73 151.13 49.58 160.62 48.8 160.72 48.8 160.83 48.8 160.93 48.8 163.54 48.71 166.19 48.36 168.78 48.11 174.84 47.52 172.48 39.97 172.46 35.9 172.45 32.87 173.12 29.86 174.14 27.02 174.2 26.86 174.26 26.71 174.31 26.55 175.41 23.63 176.55 20.74 175.38 17.63Z" fill="#CC8D5B"/><path d="M175.38 17.63C174.81 16.11 173.81 14.87 172.57 13.9 172.55 13.88 172.55 13.85 172.53 13.83 171.72 13.02 169.87 12.04 167.3 11.14 168.26 11.98 169 12.94 169.38 14 171.45 19.7 166.88 21.45 162.11 22.04 159.03 22.42 155.89 22.72 153.02 21.31 152.19 20.9 151.6 19.9 151.27 19.1 149.87 15.71 147.9 13.33 144.22 12.28 139 10.79 133.91 11.02 128.68 12.33 127.93 12.51 127.1 12.71 126.26 12.92 125.05 13.46 124.47 13.83 124.47 13.83 124.47 13.83 124.12 16.66 124 17.01 124 17.01 127.06 50.34 132.6 50.57 136.29 50.73 151.12 49.58 160.61 48.8 160.71 48.8 160.82 48.8 160.92 48.8 163.53 48.71 166.18 48.36 168.77 48.11 174.83 47.52 172.47 39.97 172.45 35.9 172.44 32.87 173.11 29.86 174.13 27.02 174.19 26.86 174.25 26.71 174.3 26.55 175.41 23.63 176.55 20.74 175.38 17.63Z" fill="#CC8D5B" opacity="0.3"/><path d="M148.14 27.8C148.2 27.64 148.26 27.47 148.32 27.31 149.46 24.24 150.65 21.21 149.43 17.96 148.14 14.52 144.8 12.43 141.31 11.63 136.94 10.63 131.78 10.47 127.56 12.16 123.16 13.92 119.6 17.67 119.81 22.64 119.92 25.18 121.24 27.52 121.42 29.96 121.77 34.8 121.06 39.8 121.94 44.61 122.47 47.54 123.34 49.55 126.54 50.02 129.09 50.4 131.71 50.73 134.29 50.65 137.02 50.56 139.8 50.19 142.52 49.92 148.86 49.3 146.39 41.38 146.38 37.12 146.36 33.93 147.07 30.77 148.14 27.8Z" fill="#E69E67"/><path d="M146.96 28.46C147.01 28.31 147.06 28.15 147.12 28 148.17 25.13 149.26 22.3 148.14 19.26 146.95 16.05 143.88 14.08 140.67 13.34 136.64 12.41 131.91 12.25 128.02 13.83 123.97 15.48 120.69 18.98 120.89 23.62 120.99 26 122.21 28.18 122.37 30.47 122.7 34.99 122.04 39.66 122.85 44.16 123.34 46.89 124.14 48.77 127.08 49.21 129.42 49.55 131.84 49.87 134.21 49.79 136.72 49.7 139.28 49.36 141.79 49.11 147.63 48.53 145.35 41.13 145.34 37.14 145.32 34.2 145.98 31.24 146.96 28.46Z" fill="#FABF78"/><g><path d="M125.71 21.77C125.22 22.11 124.79 22.6 124.51 23.12 124.37 23.38 124.69 23.41 124.83 23.26 125.2 22.86 125.64 22.49 125.95 22.03 126.11 21.81 125.96 21.6 125.71 21.77Z" fill="#CC8D5B" opacity="0.3"/><path d="M126.89 25.06C126.66 25.22 126.52 25.35 126.39 25.59 126.2 25.91 126.64 25.85 126.79 25.68 126.88 25.57 126.99 25.49 127.09 25.39 127.32 25.19 127.19 24.86 126.89 25.06Z" fill="#CC8D5B" opacity="0.3"/><path d="M132.66 22.15C132.63 22.1 132.6 22.05 132.56 22.02 132.42 21.86 132.03 22.23 132.19 22.37 132.25 22.42 132.29 22.46 132.36 22.49 132.5 22.59 132.75 22.29 132.66 22.15Z" fill="#CC8D5B" opacity="0.3"/><path d="M133.32 25.89C133.17 25.96 133.01 26.03 132.85 26.1 132.62 26.21 132.47 26.7 132.84 26.54 133.07 26.44 133.24 26.38 133.42 26.2 133.55 26.07 133.57 25.76 133.32 25.89Z" fill="#CC8D5B" opacity="0.3"/><path d="M142.33 19.91C142.17 20.02 142.02 20.13 141.85 20.23 141.57 20.4 141.61 20.83 141.98 20.62 142.22 20.48 142.4 20.36 142.55 20.14 142.69 19.94 142.55 19.77 142.33 19.91Z" fill="#CC8D5B" opacity="0.3"/><path d="M127.03 37.9C127.01 37.92 126.99 37.94 126.97 37.96 126.69 38.08 126.56 38.65 126.96 38.46 127.23 38.33 127.38 38.23 127.43 37.92 127.46 37.65 127.13 37.76 127.03 37.9Z" fill="#CC8D5B" opacity="0.3"/><path d="M132.2 38.06C132.1 38.11 132 38.16 131.9 38.2 131.62 38.31 131.5 38.86 131.89 38.69 132.14 38.57 132.23 38.5 132.39 38.27 132.54 38.09 132.4 37.94 132.2 38.06Z" fill="#CC8D5B" opacity="0.3"/><path d="M140.3 31.25C140.29 31.26 140.27 31.26 140.26 31.27 139.99 31.37 139.9 31.91 140.26 31.73 140.52 31.59 140.63 31.51 140.72 31.22 140.82 30.9 140.38 31.12 140.3 31.25Z" fill="#CC8D5B" opacity="0.3"/><path d="M137.73 43.66C137.62 43.69 137.54 43.72 137.44 43.77 137.24 43.88 137.09 44.34 137.43 44.18 137.54 44.13 137.62 44.09 137.72 44.01 137.82 43.94 138 43.59 137.73 43.66Z" fill="#CC8D5B" opacity="0.3"/><path d="M127.67 47.52 127.48 47.7C127.24 47.88 127.27 48.28 127.6 48.05 127.81 47.91 127.9 47.83 127.98 47.59 128.07 47.37 127.76 47.42 127.67 47.52Z" fill="#CC8D5B" opacity="0.3"/><path d="M139.36 46.04C139.07 46.06 138.93 46.12 138.75 46.37 138.46 46.76 138.97 46.87 139.19 46.55 139.17 46.58 139.14 46.61 139.13 46.63 139.36 46.6 139.7 46.02 139.36 46.04Z" fill="#CC8D5B" opacity="0.3"/></g></g><path d="M137.4 9.91C137.4 9.91 154.36 6.85 166.45 11.64 166.45 11.64 149.1 7.79 137.09 9.99 125.07 12.18 137.4 9.91 137.4 9.91Z" fill="#CC8D5B"/><path d="M123.42 17.13C123.42 17.13 119.97 20.27 121.22 25.14 122.48 30 122.79 31.03 122.48 33.62 122.17 36.21 122.4 44.29 123.5 46.42 123.5 46.42 122.4 40.14 122.87 35.74 123.34 31.35 123.26 30.01 122.56 28.2 121.85 26.39 120.2 21.53 123.42 17.13Z" fill="#CC8D5B"/></g><path d="M156.72 37.91C156.38 37.91 155.87 38.78 156.19 38.78 156.53 38.78 157.04 37.91 156.72 37.91Z" fill="#CC8D5B" opacity="0.8"/><path d="M159.83 35.56C159.87 35.22 159.45 35.37 159.31 35.47 159.07 35.65 158.68 36.09 158.8 36.43 158.81 36.45 158.81 36.46 158.81 36.47 158.94 36.83 159.46 36.31 159.56 36.19 159.57 36.18 159.58 36.17 159.58 36.16 159.67 36.06 159.77 35.79 159.79 35.6 159.8 35.6 159.81 35.61 159.82 35.61 159.83 35.59 159.83 35.58 159.83 35.56Z" fill="#CC8D5B" opacity="0.8"/><path d="M160.74 38.69C160.52 38.29 159.57 39.25 159.9 39.61 159.94 39.65 159.98 39.7 160.03 39.74 160.09 39.81 160.23 39.76 160.3 39.73 160.71 39.54 160.99 39.14 160.74 38.69Z" fill="#CC8D5B" opacity="0.8"/><path d="M148.98 28.6C148.73 28.6 148.35 29.24 148.59 29.24 148.84 29.24 149.21 28.6 148.98 28.6Z" fill="#CC8D5B" opacity="0.8"/><path d="M152.42 40.91C152.41 40.9 152.4 40.89 152.38 40.89 152.37 40.88 152.37 40.88 152.36 40.88 152.35 40.88 152.35 40.88 152.34 40.87 152.22 40.84 152.09 40.92 151.99 41.03 151.74 41.25 151.46 41.69 151.75 41.75 151.77 41.75 151.8 41.76 151.82 41.77 151.83 41.77 151.84 41.77 151.85 41.77 151.86 41.77 151.86 41.77 151.87 41.77 151.88 41.77 151.88 41.77 151.89 41.77 151.89 41.77 151.9 41.76 151.91 41.76 152.22 41.67 152.61 41.06 152.42 40.91Z" fill="#CC8D5B" opacity="0.8"/><path d="M154.49 32.69C154.22 32.53 153.85 33.05 153.81 33.27 153.8 33.31 153.8 33.35 153.79 33.38 153.69 33.94 154.51 33.29 154.54 32.92 154.54 32.86 154.56 32.73 154.49 32.69Z" fill="#CC8D5B" opacity="0.8"/><path d="M170.3 38.52C170.09 38.57 169.87 38.91 169.83 39.07L169.8 39.18C169.71 39.49 170 39.46 170.18 39.34 170.21 39.32 170.24 39.3 170.28 39.28 170.48 39.15 170.69 38.86 170.69 38.61 170.69 38.35 170.46 38.42 170.3 38.52Z" fill="#CC8D5B" opacity="0.8"/><path d="M170.55 31.02C170.53 31 170.51 30.97 170.49 30.95 170.27 30.65 169.76 31.74 170.2 31.5L170.33 31.43C170.45 31.36 170.65 31.16 170.55 31.02Z" fill="#CC8D5B" opacity="0.8"/><path d="M163.38 44.42C163.36 44.4 163.34 44.38 163.32 44.36 162.99 44.05 162.42 45.3 162.95 45.05 163 45.03 163.04 45.01 163.08 44.99 163.21 44.93 163.54 44.59 163.38 44.42Z" fill="#CC8D5B" opacity="0.8"/><path d="M166.99 44.67C166.9 44.74 166.3 45.51 166.7 45.51 166.92 45.51 167.24 45.22 167.34 44.98 167.45 44.73 167.23 44.49 166.99 44.67Z" fill="#CC8D5B" opacity="0.8"/><path d="M150.52 47.01C150.51 47.04 150.5 47.06 150.48 47.09 150.42 47.24 150.37 47.6 150.65 47.52 150.67 47.52 150.69 47.51 150.71 47.5 151.06 47.4 151.63 46.83 151.48 46.42 151.3 45.94 150.59 46.84 150.52 47.01Z" fill="#CC8D5B" opacity="0.8"/><path d="M156.78 46.12C156.51 46.12 156.1 46.81 156.36 46.81 156.63 46.81 157.03 46.12 156.78 46.12Z" fill="#CC8D5B" opacity="0.8"/><path d="M162.74 27.66C162.11 27.53 161.47 29.1 162.24 28.81 162.49 28.71 162.65 28.54 162.82 28.33 162.97 28.16 163.21 27.42 162.74 27.66Z" fill="#CC8D5B" opacity="0.8"/><path d="M166.36 34C166.03 34 165.56 34.82 165.86 34.82 166.18 34.81 166.66 34 166.36 34Z" fill="#CC8D5B" opacity="0.8"/></g></g></g><g><g><path d="M17.17 39.05C7.8 39.05 0.21 37.44 0.21 35.44L0.21 76.97C0.21 78.96 7.8 80.58 17.17 80.58 26.54 80.58 34.14 78.96 34.14 76.97L34.14 35.45C34.13 37.44 26.54 39.05 17.17 39.05Z" fill="#FFFFFF" opacity="0.8"/><path d="M34.23 35.28C34.22 35.66 34.12 36.03 33.93 36.34L33.93 76.98C33.93 78.62 27.2 80.38 17.17 80.38 7.15 80.38 0.41 78.62 0.41 76.98L0.41 35.98C0.29 35.76 0.2 35.52 0.14 35.26 0.06 35.29 0 35.36 0 35.45L0 76.98C0 79.37 8.73 80.79 17.17 80.79 25.61 80.79 34.34 79.36 34.34 76.98L34.34 35.45C34.34 35.37 34.29 35.32 34.23 35.28Z" fill="#9FBEC6"/><path d="M32.65 36.96 32.65 75.1C32.65 76.66 26.41 78.34 17.13 78.34 7.84 78.34 1.61 76.66 1.61 75.1L1.61 36.92C1.56 36.9 1.51 36.9 1.47 36.88 1.37 36.84 1.29 36.79 1.2 36.75L1.2 75.1C1.2 77.39 9.3 78.75 17.13 78.75 24.96 78.75 33.06 77.38 33.06 75.1L33.06 36.74C32.94 36.82 32.8 36.9 32.65 36.96Z" fill="#9FBEC6"/><g><path d="M32.75 42.98C32.68 44.8 25.74 46.27 17.17 46.27 8.6 46.27 1.65 44.8 1.59 42.98L1.4 42.98 1.4 75.1C1.4 77 8.44 78.55 17.13 78.55 25.82 78.55 32.86 77.01 32.86 75.1L32.86 42.98 32.75 42.98Z" fill="#F4F4F4"/></g><path d="M32.76 75.23C32.76 77.06 25.78 78.54 17.17 78.54 8.56 78.54 1.58 77.06 1.58 75.23 1.58 73.4 8.56 71.92 17.17 71.92 25.78 71.92 32.76 73.4 32.76 75.23Z" fill="#EAEAEA"/><path d="M17.17 39.64C8.56 39.64 1.58 41.12 1.58 42.96 1.58 42.97 1.58 42.98 1.58 42.98 1.65 44.8 8.59 46.27 17.16 46.27 25.73 46.27 32.68 44.8 32.74 42.98 32.74 42.97 32.75 42.96 32.75 42.96 32.76 41.12 25.78 39.64 17.17 39.64Z" fill="#FFFFFF"/><path d="M33.87 36C32.69 37.08 30.85 37.74 29.18 37.9L29.18 79.53C32.24 78.88 34.13 77.98 34.13 76.98L34.13 35.71C34.05 35.81 33.97 35.91 33.87 36Z" fill="#DDDDDD" opacity="0.4"/><path d="M4.75 37.69C3.99 37.62 3.38 37.41 2.71 37.08 2.61 37.03 2.51 36.98 2.4 36.93 2.37 36.92 2.34 36.91 2.3 36.89 2.22 36.86 2.14 36.83 2.06 36.8 1.21 36.67 0.53 36.16 0.17 35.45L0.13 35.45 0.13 76.98C0.13 77.95 1.95 78.83 4.88 79.48L4.88 37.68C4.84 37.68 4.79 37.69 4.75 37.69Z" fill="#DDDDDD" opacity="0.4"/><path d="M14.02 35.45 10.37 35.45 10.37 80.29C11.53 80.4 12.75 80.48 14.02 80.53L14.02 35.45Z" fill="#FFFFFF" opacity="0.5"/><g><path d="M34.13 35.45C34.13 37.44 26.53 39.06 17.16 39.06 7.79 39.06 0.2 37.45 0.2 35.45 0.2 33.45 7.8 31.84 17.16 31.84 26.54 31.84 34.13 33.45 34.13 35.45Z" fill="#FFFFFF" opacity="0.8"/><path d="M17.17 39.26C8.73 39.26 0 37.83 0 35.45 0 33.06 8.73 31.64 17.17 31.64 25.61 31.64 34.34 33.07 34.34 35.45 34.34 37.83 25.61 39.26 17.17 39.26ZM17.17 32.04C7.15 32.04 0.41 33.8 0.41 35.44 0.41 37.08 7.14 38.84 17.17 38.84 27.2 38.84 33.93 37.08 33.93 35.44 33.93 33.8 27.19 32.04 17.17 32.04Z" fill="#9FBEC6"/></g></g></g><g><g><g><g><linearGradient x1="619.772" y1="301.565" x2="649.577" y2="301.565" gradientUnits="userSpaceOnUse" id="SVGID_5_" gradientTransform="matrix(0.9998 -0.0176 0.0176 0.9998 -384.878 -285.389)"><stop offset="0" stop-color="#D2CDD3"/><stop offset="0.5116" stop-color="#FFFFFF"/><stop offset="0.9735" stop-color="#D2CDD3"/></linearGradient><linearGradient x1="591.024" y1="302.088" x2="664.274" y2="302.088" gradientUnits="userSpaceOnUse" id="SVGID_6_" gradientTransform="matrix(0.9998 -0.0176 0.0176 0.9998 -384.878 -285.389)"><stop offset="0" stop-color="#D2CDD3"/><stop offset="0.4758" stop-color="#FFFFFF"/><stop offset="0.9735" stop-color="#D2CDD3"/></linearGradient><linearGradient x1="607.431" y1="295.795" x2="634.006" y2="312.89" gradientUnits="userSpaceOnUse" id="SVGID_9_" gradientTransform="matrix(0.9998 -0.0176 0.0176 0.9998 -384.878 -285.389)"><stop offset="0"/><stop offset="0.0122" stop-color="#0E0E0D"/><stop offset="0.0808" stop-color="#555655"/><stop offset="0.1454" stop-color="#919290"/><stop offset="0.2041" stop-color="#C0C1BF"/><stop offset="0.2557" stop-color="#E1E3E0"/><stop offset="0.2983" stop-color="#F6F8F5"/><stop offset="0.3267" stop-color="#FDFFFC"/><stop offset="0.4054" stop-color="#FAFCF9"/><stop offset="0.4693" stop-color="#F0F2EF"/><stop offset="0.5279" stop-color="#DFE1DE"/><stop offset="0.5834" stop-color="#C7C9C6"/><stop offset="0.6367" stop-color="#A8AAA8"/><stop offset="0.6884" stop-color="#838482"/><stop offset="0.7387" stop-color="#565756"/><stop offset="0.7868" stop-color="#232423"/><stop offset="0.8167"/></linearGradient><linearGradient x1="632.02" y1="305.528" x2="639.068" y2="305.528" gradientUnits="userSpaceOnUse" id="SVGID_11_" gradientTransform="matrix(0.9998 -0.0176 0.0176 0.9998 -384.878 -285.389)"><stop offset="0"/><stop offset="0.0122" stop-color="#0E0E0D"/><stop offset="0.0808" stop-color="#555655"/><stop offset="0.1454" stop-color="#919290"/><stop offset="0.2041" stop-color="#C0C1BF"/><stop offset="0.2557" stop-color="#E1E3E0"/><stop offset="0.2983" stop-color="#F6F8F5"/><stop offset="0.3267" stop-color="#FDFFFC"/><stop offset="0.4054" stop-color="#FAFCF9"/><stop offset="0.4693" stop-color="#F0F2EF"/><stop offset="0.5279" stop-color="#DFE1DE"/><stop offset="0.5834" stop-color="#C7C9C6"/><stop offset="0.6367" stop-color="#A8AAA8"/><stop offset="0.6884" stop-color="#838482"/><stop offset="0.7387" stop-color="#565756"/><stop offset="0.7868" stop-color="#232423"/><stop offset="0.8167"/></linearGradient><g><linearGradient x1="690.852" y1="324.579" x2="666.463" y2="340.349" gradientUnits="userSpaceOnUse" id="SVGID_1_" gradientTransform="matrix(0.9998 -0.0176 0.0176 0.9998 -384.878 -285.389)"><stop offset="0" stop-color="#FFFFFF"/><stop offset="0.2634" stop-color="#FBFBFB"/><stop offset="0.5216" stop-color="#F1F0EF"/><stop offset="0.7771" stop-color="#DFDCDC"/><stop offset="1" stop-color="#C9C5C4"/></linearGradient><linearGradient x1="698.042" y1="312.716" x2="682.144" y2="331.538" gradientUnits="userSpaceOnUse" id="SVGID_3_" gradientTransform="matrix(0.9998 -0.0176 0.0176 0.9998 -384.878 -285.389)"><stop offset="0" stop-color="#FFFFFF"/><stop offset="0.2634" stop-color="#FBFBFB"/><stop offset="0.5216" stop-color="#F1F0EF"/><stop offset="0.7771" stop-color="#DFDCDC"/><stop offset="1" stop-color="#C9C5C4"/></linearGradient><g><g><path d="M303.36 42.34C301.45 27.57 294.33 22.94 288.81 20.94 283.29 18.94 278.39 20.67 277.54 18.94 277.42 18.7 277.35 18.35 277.31 17.91L277.29 17.94C277.29 17.94 277.75 26.44 280.3 33.28 280.34 30.7 280.97 27.75 283.54 27.19 288.28 26.16 296.92 31.07 296.89 47.03 296.85 61.93 286.74 69.17 283.85 64.93 283.42 66.75 282.88 68.65 282.21 70.63 280.4 75.47 278.28 80.8 277.96 81.59 280.64 77.42 283.38 76.15 287.75 73.69 296.43 68.88 305.27 57.11 303.36 42.34Z" fill="#FFFFFF"/><path d="M284.53 66.96C284.17 68.31 283.76 69.67 283.31 71 282.65 72.76 281.95 74.58 281.31 76.22 282.73 75.15 284.28 74.29 286.07 73.29L287.17 72.68C295.69 67.96 304.02 56.5 302.21 42.49 300.34 27.95 293.44 23.85 288.42 22.03 285.76 21.07 283.25 21.03 281.23 20.99 280.3 20.97 279.45 20.96 278.72 20.84 278.96 22.87 279.38 25.71 280.09 28.61 280.92 26.97 282.17 26.3 283.29 26.06 286.12 25.43 289.65 26.71 292.29 29.35 294.93 31.99 298.07 37.21 298.05 47.03 298.02 59.58 291.11 67.29 286.17 67.29 285.58 67.29 285.03 67.18 284.53 66.96Z" fill="#FFFFFF"/></g></g><path d="M303.36 42.34C302.68 37.07 301.34 33.09 299.64 30.06 301.58 34.68 302.63 39.97 302.42 45.22 301.63 69.62 285.11 70.14 283.98 70.06 282.85 69.98 280.87 74.74 280.87 74.74 280.87 74.74 282.93 69.36 284.12 66.35 292.51 69.9 301.41 55.48 298.14 39.05 295.33 24.9 282.88 25.13 282.85 23.99 282.83 22.86 284.46 22.11 289.02 23.58 284.85 20.46 279.13 22.73 278.9 20.98 278.83 20.48 278.89 20.06 279.02 19.71 278.29 19.61 277.77 19.4 277.55 18.94 277.43 18.7 277.36 18.35 277.32 17.91L277.3 17.94C277.3 17.94 277.76 26.44 280.31 33.28 280.35 30.7 280.98 27.75 283.55 27.19 288.29 26.16 296.93 31.07 296.9 47.03 296.86 61.93 286.75 69.17 283.86 64.93 283.43 66.75 282.89 68.65 282.22 70.63 280.41 75.47 278.29 80.8 277.97 81.59 280.65 77.42 283.39 76.15 287.76 73.69 296.43 68.88 305.27 57.11 303.36 42.34Z" fill="url(#SVGID_1_)"/><g><linearGradient x1="692.907" y1="328.541" x2="672.251" y2="335.579" gradientUnits="userSpaceOnUse" id="SVGID_2_" gradientTransform="matrix(0.9998 -0.0176 0.0176 0.9998 -384.878 -285.389)"><stop offset="0" stop-color="#FFFFFF"/><stop offset="0.2634" stop-color="#FBFBFB"/><stop offset="0.5216" stop-color="#F1F0EF"/><stop offset="0.7771" stop-color="#DFDCDC"/><stop offset="1" stop-color="#C9C5C4"/></linearGradient><path d="M287.03 66.53C293.38 65.07 297.32 55.11 297.47 46.34 297.62 37.57 294.66 31.78 290.71 28.55 286.76 25.32 282.12 25.7 280.94 27 279.76 28.29 279.38 27.93 278.65 24.94 278.06 22.11 278.01 20.43 278.09 19.47 277.84 19.35 277.65 19.18 277.54 18.95 277.42 18.71 277.35 18.36 277.31 17.92L277.29 17.95C277.29 17.95 277.75 26.45 280.3 33.29 280.34 30.71 280.97 27.76 283.54 27.2 288.28 26.17 296.92 31.08 296.89 47.04 296.85 61.94 286.74 69.18 283.85 64.94 283.81 65.09 283.77 65.25 283.73 65.4 284.52 66.26 285.71 66.69 287.03 66.53Z" fill="url(#SVGID_2_)"/></g><path d="M285.03 21.09C285.03 21.09 299.32 23.03 301.31 42.47 301.85 49.59 304.27 38.38 297.65 28.07 294.55 23.46 287.48 20.08 285.03 21.09Z" fill="#FFFFFF"/><path d="M282.65 19.89C282.65 19.89 283.06 19.87 283.76 19.91 284.47 19.96 285.48 20.06 286.66 20.32 287.84 20.58 289.22 20.97 290.62 21.58 291.31 21.89 292.02 22.24 292.71 22.64 293.06 22.84 293.4 23.07 293.74 23.28 294.07 23.51 294.41 23.74 294.73 23.99 295.05 24.25 295.37 24.49 295.67 24.77L296.12 25.18C296.26 25.32 296.41 25.46 296.55 25.61 296.84 25.89 297.1 26.18 297.36 26.48 297.63 26.77 297.86 27.08 298.1 27.38 298.34 27.68 298.55 27.99 298.75 28.29 298.96 28.59 299.15 28.9 299.33 29.2 299.51 29.5 299.68 29.79 299.83 30.08 299.97 30.38 300.13 30.65 300.26 30.93 300.5 31.49 300.75 31.99 300.91 32.46 301.08 32.92 301.24 33.32 301.33 33.66 301.54 34.34 301.65 34.72 301.65 34.72 301.65 34.72 301.51 34.34 301.28 33.67 301.17 33.33 300.99 32.94 300.81 32.49 300.72 32.26 300.61 32.02 300.49 31.77 300.37 31.52 300.25 31.26 300.12 30.99 299.99 30.72 299.83 30.45 299.68 30.17 299.53 29.88 299.35 29.6 299.16 29.3 298.98 29.01 298.79 28.71 298.57 28.42 298.36 28.13 298.16 27.81 297.91 27.52 297.67 27.23 297.45 26.92 297.18 26.64 296.92 26.35 296.66 26.06 296.37 25.79 296.23 25.65 296.09 25.51 295.95 25.37L295.5 24.97C295.21 24.7 294.89 24.46 294.58 24.21 294.26 23.95 293.93 23.73 293.61 23.5 293.27 23.29 292.94 23.06 292.6 22.87 291.93 22.46 291.23 22.12 290.54 21.8 289.85 21.5 289.18 21.22 288.52 21.01 287.87 20.79 287.24 20.62 286.65 20.47 285.48 20.19 284.48 20.04 283.77 19.97 283.05 19.9 282.65 19.89 282.65 19.89Z" fill="#4C4C4C" opacity="0.5"/><path d="M296.18 28.76C296.18 28.76 302.56 37.79 300.4 50.25 299.74 53.92 304.99 40.67 296.18 28.76Z" fill="url(#SVGID_3_)"/><path d="M301.24 48.17C301.24 48.17 301.04 50.11 300.42 51.58 299.79 53.05 301.33 53.05 301.77 50.6 302.22 48.15 301.45 46.53 301.24 48.17Z" fill="#FFFFFF"/></g><g opacity="0.8"><path d="M280.55 33.92C277.78 26.98 277.29 17.94 277.29 17.94L277.31 17.91C277.09 15.21 278.29 9.39 278.97 8.68 279.77 8.26 280.52 6.87 278.4 5.78 278.1 5.65 277.79 5.53 277.46 5.41 272.26 3.86 261.53 7.88 252.71 8.43 243.33 9.01 233.41 6.65 228.44 4.54 226.02 3.51 223.65 2.65 221.86 2.04 218.53 1.26 216.11 1.16 216.11 1.16 214.26 1.5 215.65 2.3 217.52 3.23 219.38 4.16 227.41 6.94 228.87 17.06 230.33 27.18 226.71 34.6 222.27 47.29 217.27 66.99 223.76 74.46 231.55 84.33 235.19 88.94 237.95 92.16 254.06 91.88 269.17 91.61 273.59 88.71 277.62 82.09 277.73 81.92 277.83 81.76 277.94 81.59 278.26 80.8 280.37 75.47 282.19 70.63 288.59 51.74 283.32 40.87 280.55 33.92Z" fill="#FFFFFF"/><path d="M252.18 93.05C237.71 93.05 234.57 90.01 230.66 85.04L230.03 84.24C222.59 74.84 216.17 66.72 221.17 47 221.88 44.96 222.54 43.14 223.16 41.42 226.64 31.84 228.94 25.51 227.74 17.22 226.49 8.58 220.07 5.66 217.65 4.56 217.4 4.45 217.19 4.35 217.02 4.27 215.36 3.45 213.93 2.74 214.11 1.46 214.27 0.34 215.5 0.11 215.91 0.03 215.99 0 216.08 0 216.17 0 216.27 0 218.74 0.11 222.14 0.91 224.67 1.77 226.91 2.63 228.91 3.47 234.01 5.63 243.64 7.83 252.66 7.27 256.19 7.05 260.06 6.26 263.8 5.49 269.44 4.33 274.72 3.38 277.81 4.3 278.21 4.44 278.55 4.58 278.88 4.72 280.61 5.61 280.96 6.68 280.96 7.43 280.96 8.26 280.51 9.07 279.78 9.56 279.3 10.49 278.28 15.41 278.47 17.82 278.48 17.91 278.47 18 278.46 18.09 278.55 19.46 279.18 27.38 281.62 33.49L282.11 34.71C285.04 41.91 289.45 52.78 283.3 71.01 281.47 75.9 279.35 81.24 279.03 82.03L278.67 82.64C274.5 89.49 269.77 92.77 254.1 93.05 253.44 93.05 252.8 93.05 252.18 93.05ZM219.07 2.66C222.08 4.06 228.67 7.52 230.03 16.89 231.31 25.75 228.8 32.66 225.34 42.21 224.72 43.93 224.06 45.74 223.38 47.67 218.69 66.18 224.49 73.51 231.84 82.8L232.47 83.6C235.88 87.91 238.33 90.98 254.05 90.71 268.82 90.45 272.81 87.77 276.64 81.48L276.98 80.95C277.19 80.36 279.3 75.05 281.12 70.22 286.99 52.84 282.76 42.45 279.97 35.58L279.47 34.35C276.66 27.31 276.15 18.38 276.13 18 276.12 17.92 276.13 17.84 276.14 17.77 276 14.96 277.08 8.98 278.14 7.88 278.22 7.79 278.33 7.71 278.44 7.66 278.55 7.61 278.63 7.48 278.63 7.45 278.63 7.41 278.5 7.15 277.88 6.83 277.67 6.74 277.39 6.63 277.09 6.53 276.46 6.34 275.6 6.24 274.59 6.24 271.79 6.24 268.13 6.99 264.26 7.79 260.44 8.57 256.49 9.38 252.8 9.61 243.42 10.18 233.36 7.9 228.01 5.63 226.06 4.8 223.87 3.97 221.51 3.16 220.62 2.93 219.8 2.78 219.07 2.66Z" fill="#FFFFFF"/></g><g opacity="0.9"><path d="M231.37 22.18C231.37 22.18 232.03 27.73 225.57 43.36 220.79 55.29 221.66 64.88 227.38 75.53 232.55 84.24 238.6 87.64 245.84 88.64 252.72 89.53 265.98 88.71 270.48 85.8 274.98 82.89 277.89 76.16 280.63 68.81 283.37 61.46 284.12 51.82 281.25 42.92 278.39 34.01 274.95 24.03 275.03 21.41L231.37 22.18Z" fill="#FFD646"/></g><path d="M275.04 21.41C275.06 22.57 265.3 23.68 253.24 23.89 241.18 24.11 231.39 23.33 231.37 22.18 231.35 21.02 241.11 19.91 253.17 19.69 265.22 19.48 275.02 20.25 275.04 21.41Z" fill="#FFF69B"/><g><linearGradient x1="675.172" y1="360.502" x2="668.61" y2="363.152" gradientUnits="userSpaceOnUse" id="SVGID_4_" gradientTransform="matrix(0.9998 -0.0176 0.0176 0.9998 -384.878 -285.389)"><stop offset="0" stop-color="#FFFFFF"/><stop offset="0.2634" stop-color="#FBFBFB"/><stop offset="0.5216" stop-color="#F1F0EF"/><stop offset="0.7771" stop-color="#DFDCDC"/><stop offset="1" stop-color="#C9C5C4"/></linearGradient><path d="M301.49 57.03C297.68 68.42 286.75 73.03 282.75 74.13 281.8 74.4 280.93 75.06 280.17 75.93 279.07 78.78 278.15 81.08 277.95 81.58 280.63 77.41 283.37 76.14 287.74 73.68 294.94 69.69 302.24 60.93 303.45 49.64 303.04 51.83 302.41 54.28 301.49 57.03Z" fill="url(#SVGID_4_)"/></g><path d="M277.47 5.42C277.79 5.53 278.1 5.66 278.41 5.79 278.12 5.64 277.81 5.52 277.47 5.42Z" fill="none"/><path d="M252.72 8.43C261.54 7.89 272.27 3.86 277.47 5.41 272.52 3.66 265.23 4.08 257.69 5.69 249.66 7.41 232.16 5.77 227.08 3.67 225.24 2.92 223.46 2.4 221.87 2.03 223.66 2.65 226.03 3.51 228.45 4.53 233.43 6.65 243.34 9.01 252.72 8.43Z" fill="url(#SVGID_5_)"/><path d="M265.74 7.96C274.95 5.89 276.81 6.15 279.01 8.67 279.8 8.23 280.51 6.86 278.41 5.78 278.11 5.65 277.8 5.53 277.47 5.41 272.27 3.86 261.54 7.88 252.72 8.43 243.34 9.01 233.42 6.65 228.45 4.54 226.03 3.51 223.66 2.65 221.87 2.04 218.54 1.26 216.12 1.16 216.12 1.16 215.23 1.32 215.09 1.59 215.39 1.93 217.69 2.04 221.43 2.62 225.71 4.83 234.23 9.23 247.55 13.43 265.74 7.96Z" fill="url(#SVGID_6_)"/><g><linearGradient x1="601.806" y1="335.291" x2="646.774" y2="348.178" gradientUnits="userSpaceOnUse" id="SVGID_7_" gradientTransform="matrix(0.9998 -0.0176 0.0176 0.9998 -384.878 -285.389)"><stop offset="0" stop-color="#C9C5C4"/><stop offset="0.0468" stop-color="#DDDADA"/><stop offset="0.1014" stop-color="#ECEBEB"/><stop offset="0.1693" stop-color="#F7F6F6"/><stop offset="0.2647" stop-color="#FDFDFD"/><stop offset="0.5293" stop-color="#FFFFFF"/><stop offset="0.7647" stop-color="#FDFDFD"/><stop offset="0.8494" stop-color="#F7F6F6"/><stop offset="0.9098" stop-color="#ECEBEB"/><stop offset="0.9584" stop-color="#DDDADA"/><stop offset="1" stop-color="#C9C5C4"/></linearGradient><path d="M280.54 33.65C277.77 26.7 277.28 17.67 277.28 17.67L277.31 17.64C277.1 15.04 278.2 9.54 278.9 8.51 278.49 8.16 278.07 7.82 277.65 7.49 276.51 10.75 275.07 15.69 275.07 19.87 275.07 26.79 281.21 39.86 282.62 48.3 284.61 60.2 279.73 73.06 275.25 80.7 270.78 88.33 261.82 88.55 251.54 88.74 244.31 88.87 239.04 88.19 235.01 84.42 230.55 80.25 227.83 76.08 225.89 72.74 219.2 58.87 223.67 47.68 228.51 35.26 235.21 18.28 228.61 11.75 225.67 8.85 225.64 8.82 225.61 8.79 225.58 8.76 227.11 10.72 228.37 13.33 228.87 16.78 230.33 26.9 226.71 34.32 222.27 47.01 217.27 66.7 223.75 74.17 231.55 84.05 235.19 88.66 237.96 91.88 254.06 91.6 269.17 91.33 273.59 88.43 277.62 81.82 277.73 81.65 277.83 81.48 277.94 81.32 278.26 80.53 280.37 75.2 282.19 70.36 288.58 51.46 283.32 40.59 280.54 33.65Z" fill="url(#SVGID_7_)"/></g><g opacity="0.5"><path d="M280.55 33.92C277.78 26.98 277.29 17.94 277.29 17.94L277.31 17.91C277.09 15.21 278.29 9.39 278.97 8.68 279.77 8.26 280.52 6.87 278.4 5.78 278.1 5.65 277.79 5.53 277.46 5.41 272.26 3.86 261.53 7.88 252.71 8.43 243.33 9.01 233.41 6.65 228.44 4.54 226.02 3.51 223.65 2.65 221.86 2.04 218.53 1.26 216.11 1.16 216.11 1.16 214.31 1.5 215.59 2.26 217.38 3.16 219.52 3.38 222.8 4.17 227.07 6.51 235.1 10.94 247.81 13.51 258.38 11.55 264.84 10.4 258.21 18.54 263.47 29.87 267.84 39.3 277 61.08 264.42 83.59 261.71 89.79 253.48 91.69 244.15 91.44 246.76 91.78 249.98 91.93 254.07 91.87 269.18 91.6 273.6 88.7 277.63 82.08 277.74 81.91 277.84 81.75 277.95 81.58 278.27 80.79 280.38 75.46 282.2 70.62 288.59 51.74 283.32 40.87 280.55 33.92Z" fill="#DCDCDC"/></g><g><path d="M243.34 10.27C243.34 10.27 243.9 10.35 244.88 10.42 245.86 10.49 247.26 10.55 248.95 10.53 249.79 10.52 250.7 10.49 251.67 10.43 252.63 10.37 253.65 10.28 254.69 10.16 255.73 10.05 256.81 9.89 257.9 9.71 258.44 9.61 258.99 9.51 259.54 9.4 260.09 9.28 260.63 9.16 261.18 9.03 263.36 8.5 265.52 7.88 267.58 7.38 269.63 6.89 271.59 6.53 273.28 6.49 274.13 6.46 274.91 6.54 275.58 6.68 276.25 6.82 276.82 7.05 277.26 7.29 277.48 7.4 277.65 7.54 277.82 7.64 277.97 7.76 278.1 7.86 278.2 7.95 278.39 8.13 278.49 8.23 278.49 8.23 278.49 8.23 278.39 8.14 278.19 7.96 278.09 7.87 277.95 7.78 277.8 7.67 277.63 7.57 277.45 7.45 277.24 7.34 276.81 7.12 276.24 6.91 275.57 6.79 274.9 6.67 274.13 6.62 273.29 6.65 272.45 6.69 271.55 6.79 270.6 6.97 269.65 7.14 268.66 7.37 267.64 7.62 265.6 8.13 263.44 8.75 261.25 9.3 260.7 9.42 260.14 9.54 259.59 9.66 259.04 9.77 258.49 9.86 257.94 9.96 256.84 10.14 255.76 10.29 254.71 10.4 253.66 10.52 252.64 10.59 251.67 10.63 250.71 10.68 249.78 10.69 248.94 10.68 247.25 10.67 245.84 10.56 244.87 10.46 243.9 10.37 243.34 10.27 243.34 10.27Z" fill="#4C4C4C" opacity="0.5"/><path d="M218.32 2.3C218.32 2.3 219.43 2.51 221.07 2.98 221.89 3.22 222.83 3.52 223.82 3.9 224.32 4.1 224.82 4.31 225.33 4.56 225.83 4.8 226.34 5.05 226.85 5.3 227.37 5.53 227.88 5.76 228.39 5.98 228.9 6.2 229.41 6.41 229.9 6.61 230.88 7.01 231.8 7.37 232.58 7.69 233.37 8 234.03 8.26 234.49 8.45 234.95 8.64 235.21 8.74 235.21 8.74 235.21 8.74 234.94 8.65 234.47 8.5 234 8.34 233.33 8.13 232.53 7.84 232.13 7.7 231.7 7.54 231.24 7.38 230.78 7.21 230.3 7.03 229.81 6.83 229.32 6.63 228.81 6.42 228.3 6.21 227.79 5.99 227.26 5.77 226.75 5.52 226.24 5.27 225.73 5.02 225.23 4.77 224.74 4.52 224.24 4.3 223.75 4.1 222.77 3.69 221.84 3.36 221.04 3.1 220.24 2.83 219.56 2.63 219.08 2.5 218.58 2.38 218.32 2.3 218.32 2.3Z" fill="#4C4C4C" opacity="0.5"/></g><g><linearGradient x1="633.073" y1="290.362" x2="632.997" y2="301.725" gradientUnits="userSpaceOnUse" id="SVGID_8_" gradientTransform="matrix(0.9998 -0.0176 0.0176 0.9998 -384.878 -285.389)"><stop offset="0" stop-color="#C9C5C4"/><stop offset="0.0468" stop-color="#DDDADA"/><stop offset="0.1014" stop-color="#ECEBEB"/><stop offset="0.1693" stop-color="#F7F6F6"/><stop offset="0.2647" stop-color="#FDFDFD"/><stop offset="0.5293" stop-color="#FFFFFF"/><stop offset="0.7647" stop-color="#FDFDFD"/><stop offset="0.8494" stop-color="#F7F6F6"/><stop offset="0.9098" stop-color="#ECEBEB"/><stop offset="0.9584" stop-color="#DDDADA"/><stop offset="1" stop-color="#C9C5C4"/></linearGradient><path d="M255.2 7.23C247.73 8.26 245.82 7.59 239.22 6.91 237.61 6.75 236.18 6.65 234.92 6.62 240.02 7.89 246.48 8.81 252.72 8.43 258.97 8.05 266.18 5.91 271.7 5.25 267.7 4.42 260.81 6.46 255.2 7.23Z" fill="url(#SVGID_8_)"/></g><path d="M281.48 65.87C281.48 65.87 281.53 65.66 281.62 65.26 281.66 65.07 281.72 64.82 281.79 64.53 281.82 64.39 281.86 64.24 281.9 64.07 281.93 63.9 281.97 63.73 282 63.54 282.07 63.17 282.14 62.76 282.23 62.31 282.29 61.87 282.36 61.38 282.44 60.86 282.57 59.83 282.67 58.65 282.72 57.37 282.75 56.73 282.73 56.06 282.75 55.37 282.74 55.02 282.73 54.67 282.72 54.32 282.71 53.97 282.7 53.6 282.67 53.24 282.64 52.87 282.62 52.5 282.59 52.13 282.55 51.76 282.51 51.38 282.47 51 282.44 50.61 282.37 50.23 282.33 49.84 282.28 49.45 282.23 49.06 282.16 48.66 282.09 48.27 282.03 47.87 281.95 47.47 281.87 47.07 281.8 46.67 281.71 46.26 281.61 45.86 281.53 45.46 281.43 45.05 281.33 44.65 281.22 44.24 281.12 43.84 281.02 43.44 280.89 43.03 280.78 42.62 280.66 42.22 280.54 41.81 280.42 41.41 280.15 40.59 279.87 39.78 279.59 38.96 279.06 37.32 278.5 35.69 277.96 34.09 277.68 33.29 277.44 32.47 277.19 31.68 276.94 30.88 276.7 30.1 276.47 29.32 276.06 27.74 275.67 26.24 275.31 24.77 275.24 24.4 275.17 24.04 275.11 23.69 275.06 23.32 275.02 22.97 274.97 22.61 274.91 21.9 274.87 21.22 274.87 20.56 274.86 17.93 275.29 15.79 275.66 14.32 275.84 13.59 276.03 13.02 276.16 12.64 276.29 12.25 276.37 12.06 276.37 12.06 276.37 12.06 276.31 12.27 276.21 12.66 276.12 13.05 275.99 13.63 275.86 14.37 275.73 15.11 275.62 16.02 275.53 17.05 275.45 18.09 275.43 19.27 275.49 20.54 275.52 21.17 275.6 21.84 275.69 22.51 275.75 22.84 275.8 23.18 275.86 23.53 275.94 23.88 276.02 24.24 276.1 24.6 276.51 26.02 276.94 27.5 277.39 29.05 277.89 30.58 278.42 32.16 278.95 33.76 279.5 35.36 280.08 36.99 280.62 38.63 280.89 39.45 281.16 40.27 281.43 41.08 281.55 41.5 281.67 41.92 281.8 42.33 281.91 42.75 282.03 43.16 282.14 43.58 282.57 45.24 282.88 46.9 283.1 48.52 283.32 50.14 283.46 51.71 283.48 53.21 283.5 53.58 283.49 53.95 283.49 54.32 283.48 54.68 283.48 55.04 283.48 55.39 283.43 56.09 283.41 56.77 283.34 57.42 283.22 58.72 283.05 59.9 282.84 60.94 282.73 61.46 282.64 61.94 282.53 62.39 282.41 62.83 282.3 63.24 282.2 63.6 282.15 63.78 282.1 63.95 282.06 64.12 282 64.28 281.95 64.43 281.91 64.57 281.81 64.85 281.73 65.08 281.67 65.27 281.54 65.67 281.48 65.87 281.48 65.87Z" fill="#4C4C4C" opacity="0.5"/><path d="M237.74 5.77C237.74 5.77 238.18 5.8 238.94 5.86 239.7 5.91 240.8 5.98 242.12 6.07 243.43 6.15 244.97 6.22 246.61 6.29 247.44 6.32 248.28 6.34 249.14 6.34 250 6.35 250.87 6.3 251.75 6.24 252.62 6.18 253.49 6.09 254.35 6 255.2 5.9 256.05 5.8 256.86 5.69 257.67 5.58 258.46 5.48 259.21 5.38 259.96 5.28 260.66 5.18 261.32 5.09 262.62 4.91 263.71 4.77 264.47 4.67 265.23 4.58 265.67 4.54 265.67 4.54 265.67 4.54 265.23 4.6 264.48 4.72 263.72 4.84 262.64 5.02 261.34 5.24 260.69 5.34 259.98 5.46 259.24 5.57 258.49 5.69 257.71 5.81 256.89 5.92 256.07 6.03 255.23 6.15 254.37 6.25 253.51 6.35 252.64 6.45 251.76 6.51 250.88 6.58 250 6.61 249.13 6.6 248.27 6.6 247.41 6.57 246.59 6.53 245.77 6.49 244.97 6.45 244.22 6.39 243.47 6.33 242.76 6.27 242.1 6.22 240.79 6.11 239.7 5.99 238.93 5.91 238.17 5.82 237.74 5.77 237.74 5.77Z" fill="#4C4C4C" opacity="0.5"/><path d="M226.81 4.28C226.81 4.28 238.68 9.76 250.45 9.16 255.26 8.92 247.48 11.11 239.3 9.28 231.14 7.44 225.3 3.99 226.81 4.28Z" fill="url(#SVGID_9_)"/><g opacity="0.5"><path d="M255.56 91.39C241.44 91.5 236.17 88.31 233.93 85.74 231.69 83.18 227.35 77.9 224.09 71.93 218.54 60.24 221.9 49.35 226.49 37.06 228.28 32.26 228.89 28.21 228.97 25.06 228.17 31.63 225.44 37.98 222.28 47.01 217.28 66.7 223.76 74.17 231.56 84.05 235.2 88.66 237.97 91.88 254.07 91.6 256.97 91.55 259.46 91.4 261.64 91.15 259.78 91.29 257.75 91.38 255.56 91.39Z" fill="#4C4C4C"/></g><g><linearGradient x1="677.866" y1="367.193" x2="671.306" y2="369.843" gradientUnits="userSpaceOnUse" id="SVGID_10_" gradientTransform="matrix(0.9998 -0.0176 0.0176 0.9998 -384.878 -285.389)"><stop offset="0" stop-color="#FFFFFF"/><stop offset="0.2634" stop-color="#FBFBFB"/><stop offset="0.5216" stop-color="#F1F0EF"/><stop offset="0.7771" stop-color="#DFDCDC"/><stop offset="1" stop-color="#C9C5C4"/></linearGradient><path d="M280.18 75.94C279.08 78.79 278.16 81.09 277.96 81.59 278.75 80.36 279.55 79.37 280.4 78.54 280.92 76.65 281.58 75.3 282.15 74.37 281.43 74.7 280.77 75.26 280.18 75.94Z" fill="url(#SVGID_10_)"/></g><path d="M245 8.31C245 8.31 245.32 8.34 245.89 8.37 246.18 8.38 246.52 8.4 246.92 8.4 247.32 8.41 247.77 8.4 248.25 8.41 248.74 8.4 249.27 8.41 249.83 8.38 250.39 8.36 250.98 8.34 251.59 8.3 252.2 8.28 252.83 8.22 253.47 8.18 254.11 8.13 254.76 8.05 255.41 7.99 256.06 7.92 256.7 7.84 257.34 7.77 257.97 7.68 258.6 7.59 259.2 7.5 259.8 7.4 260.38 7.3 260.94 7.21 261.49 7.12 262.01 7.01 262.49 6.92 262.97 6.82 263.41 6.75 263.8 6.66 264.19 6.58 264.53 6.5 264.8 6.44 265.36 6.32 265.68 6.25 265.68 6.25 265.68 6.25 265.37 6.34 264.81 6.49 264.53 6.56 264.2 6.65 263.81 6.75 263.43 6.86 262.99 6.96 262.51 7.06 262.03 7.16 261.51 7.29 260.96 7.4 260.41 7.51 259.83 7.62 259.22 7.73 258.61 7.82 257.99 7.92 257.35 8.02 256.71 8.1 256.06 8.18 255.41 8.26 254.75 8.32 254.11 8.39 253.46 8.43 252.82 8.47 252.19 8.52 251.57 8.54 251.27 8.55 250.97 8.57 250.67 8.57 250.37 8.57 250.08 8.58 249.8 8.58 249.24 8.59 248.71 8.57 248.21 8.56 247.23 8.53 246.42 8.47 245.85 8.42 245.32 8.37 245 8.31 245 8.31Z" fill="#4C4C4C" opacity="0.5"/><path d="M252.78 9.11C252.78 9.11 255.16 8.81 258.06 8.29 260.95 7.77 258.79 9.08 256.03 9.44 253.28 9.8 251.6 9.4 252.78 9.11Z" fill="url(#SVGID_11_)"/></g><path d="M252.18 92.18C237.4 92.18 234.73 88.79 231.34 84.5L230.7 83.69C223.11 74.09 217.11 66.5 222 47.21 222.68 45.25 223.35 43.43 223.97 41.71 227.37 32.35 229.82 25.59 228.59 17.09 227.27 7.98 220.54 4.91 218 3.76 217.76 3.65 217.56 3.56 217.4 3.48 215.65 2.61 214.88 2.13 214.96 1.56 215.02 1.12 215.58 0.96 216.06 0.87L216.06 0.87C216.23 0.87 218.66 0.98 221.93 1.75 224.35 2.58 226.57 3.43 228.56 4.27 233.2 6.24 241.56 8.23 249.78 8.23 250.77 8.23 251.75 8.2 252.7 8.14 256.29 7.92 260.19 7.12 263.96 6.35 267.9 5.54 271.63 4.77 274.58 4.77 275.75 4.77 276.72 4.89 277.55 5.13 277.89 5.25 278.21 5.38 278.52 5.51 279.81 6.17 280.08 6.91 280.08 7.43 280.08 8.1 279.63 8.65 279.16 8.91 278.6 9.61 277.37 15.14 277.6 17.88 277.6 17.93 277.6 17.97 277.58 18.01 277.64 18.97 278.24 27.35 280.81 33.81 280.97 34.2 281.13 34.61 281.31 35.03 284.19 42.1 288.53 52.8 282.48 70.72 280.52 75.96 278.25 81.64 278.23 81.7 278.11 81.89 278.02 82.03 277.94 82.18L277.9 82.25C273.86 88.89 269.46 91.89 254.1 92.17 253.43 92.18 252.79 92.18 252.18 92.18ZM216.11 1.45C215.62 1.55 215.53 1.67 215.53 1.67 215.6 1.94 217.15 2.71 217.66 2.97 217.81 3.05 218.01 3.14 218.24 3.24 220.86 4.43 227.8 7.59 229.16 17.02 230.41 25.67 227.93 32.49 224.51 41.92 223.88 43.64 223.23 45.45 222.55 47.39 217.73 66.39 223.65 73.87 231.15 83.35L231.78 84.15C235.2 88.48 237.66 91.61 252.17 91.61 252.78 91.61 253.41 91.61 254.07 91.59 269.16 91.32 273.46 88.4 277.39 81.95L277.44 81.88C277.53 81.73 277.62 81.59 277.71 81.44 277.71 81.44 279.97 75.76 281.93 70.54 287.91 52.83 283.62 42.26 280.77 35.26 280.6 34.84 280.43 34.43 280.27 34.03 277.51 27.12 277 18.05 276.99 17.96 276.99 17.92 276.99 17.88 277.01 17.84 276.82 15.04 277.99 9.28 278.76 8.48 278.78 8.46 278.81 8.44 278.84 8.43 279.15 8.27 279.49 7.88 279.49 7.44 279.49 6.94 279.06 6.46 278.26 6.04 277.98 5.92 277.68 5.8 277.36 5.69 276.6 5.46 275.69 5.35 274.57 5.35 271.68 5.35 267.98 6.11 264.07 6.91 260.28 7.69 256.37 8.49 252.73 8.72 251.77 8.78 250.78 8.81 249.78 8.81 241.48 8.81 233.03 6.8 228.34 4.81 226.37 3.97 224.16 3.13 221.78 2.31 218.55 1.55 216.14 1.45 216.11 1.45Z" fill="#9FA1A4" opacity="0.8"/><g><path d="M303.94 42.26C302.44 30.64 297.56 23.48 289.02 20.39 286.09 19.33 283.31 19.28 281.27 19.25 279.69 19.23 278.32 19.2 278.07 18.68 278.03 18.61 277.97 18.4 277.93 18.07 277.84 17.95 277.76 17.82 277.68 17.69 277.47 18.67 277.3 19.79 278.01 20.43 278.05 20.46 278.09 20.48 278.12 20.52 278.11 20.38 278.09 20.22 278.07 20.08 278.84 20.37 279.94 20.39 281.26 20.41 283.32 20.44 285.89 20.48 288.64 21.48 296.73 24.41 301.37 31.26 302.81 42.41 304.66 56.7 296.16 68.38 287.48 73.18L286.38 73.8C284.45 74.88 282.79 75.81 281.3 77 280.11 78.52 279.16 80.16 278.42 81.95 278.44 81.93 278.46 81.92 278.47 81.9 280.84 78.22 283.27 76.87 286.95 74.81L288.05 74.19C297.03 69.21 305.86 57.08 303.94 42.26Z" fill="#D5D7D8"/><path d="M297.47 47.03C297.49 37.4 294.44 32.32 291.88 29.76 289.8 27.67 287.22 26.48 284.81 26.48 284.33 26.48 283.86 26.53 283.42 26.63 282.13 26.91 280.65 27.85 280.02 30.57 280.02 30.56 280.02 30.55 280.01 30.54 279.86 31.64 279.97 32.75 280.3 33.84 280.34 33.84 280.37 33.87 280.41 33.86 280.68 33.81 280.89 33.58 280.89 33.3 280.92 31.04 281.43 28.25 283.67 27.76 284.03 27.68 284.41 27.64 284.81 27.64 286.92 27.64 289.2 28.71 291.06 30.58 293.47 32.99 296.33 37.8 296.31 47.03 296.28 59.01 289.6 65.55 286.17 65.55 285.38 65.55 284.76 65.23 284.33 64.6 284.28 64.52 284.2 64.47 284.12 64.43 283.93 65.15 283.89 65.94 283.98 66.69 284.03 66.49 284.11 66.29 284.16 66.09 284.72 66.5 285.4 66.71 286.17 66.71 290.76 66.71 297.44 59.05 297.47 47.03Z" fill="#D5D7D8"/></g></g><path d="M226.1 63.73C227.13 68.53 229.9 72.73 233.79 76.43 234.2 76.82 234.92 75.63 234.84 75.28 234 71.6 233.35 67.91 232.7 64.2 230.44 64.63 228.13 64.68 226.1 63.73Z" fill="#FFFFFF"/><path d="M233.23 12.53C233.03 12.36 232.6 12.93 232.69 13.12 239.69 29.4 229.59 39.57 226.21 54.63 225.77 56.58 225.63 58.44 225.69 60.23 227.32 61.24 229.97 61.41 232.15 61.06 232.13 60.98 232.12 60.9 232.11 60.82 230.39 50.73 235.75 44.08 238.01 35.08 240.02 27.06 239.96 18.37 233.23 12.53Z" fill="#FFFFFF"/></g></g></svg>