<svg width="273.17" height="521.72" viewBox="0 0 273.17 521.72" xmlns="http://www.w3.org/2000/svg" xmlns:xlink="http://www.w3.org/1999/xlink" xml:space="preserve" overflow="hidden"><defs></defs><g><path d="M123.48 25.06C139.79 15.59 155.47 8.76 174.71 13.11 187.02 15.89 200.78 21.75 207.8 32.8 216.26 46.1 216.55 67.65 231.96 75.8 242.97 81.63 252.63 73.87 263.28 72.69 276.46 71.24 273.7 84.57 270.58 92.47 266.38 103.1 257.06 115.58 247.55 121.83 240.4 126.53 234.27 121.7 228.66 117.23 220.65 110.85 216.45 116.78 209.32 121 202.22 125.2 197.37 124.37 191.59 118.62 182.76 109.83 181.54 101.09 178.74 89.33 177.53 84.21 176.44 78.04 171.81 75.09 167.77 72.51 162.91 73.71 158.5 72.68 147.95 70.22 134.45 59.42 130.05 49.57 126.85 42.41 123.77 25.18 131.63 20.28" fill="#3F1023"/><path d="M123.48 25.06C125.81 23.7 128.13 22.41 130.45 21.19 130.81 20.85 131.2 20.53 131.63 20.26L123.48 25.06Z" fill="#60253E"/><path d="M183.37 73.35C184.55 69.77 185.78 63.2 189.46 61.03 195.49 57.48 205.38 58.87 208.6 51.29 210.63 46.5 210.55 41.37 209.74 36.32 209.13 35.11 208.5 33.91 207.79 32.8 206.83 31.28 205.72 29.87 204.52 28.54 203.48 40.98 198.59 53.01 185.52 53.8 179.07 54.19 179.13 71.57 176.08 76.35 175.7 76.95 175.23 77.46 174.71 77.91 176.6 80.59 177.49 84.06 178.26 87.35 180.29 82.93 181.77 78.24 183.37 73.35Z" fill="#60253E"/><g><path d="M122.74 133.73C122.74 133.73 135.19 138.76 146.05 147.83 159.04 158.69 171.73 175.01 184.9 191 209.07 220.36 188.38 310.41 186.63 327.98 183.69 357.39 139.42 357.46 127.35 330.28 125.25 325.54 130.48 310.03 131.38 302.65 138.85 241.65 162.45 221.79 122.74 133.73Z" fill="#B35881"/></g><g><path d="M131.37 302.65C130.47 310.03 125.24 325.54 127.34 330.28 131.56 339.78 139.71 345.94 148.67 348.69 158.65 332.79 163.94 305.47 165.8 295.91 174 253.82 174.91 207.58 164.04 165.95 158.06 159.13 152.08 152.88 146.05 147.83 135.19 138.76 122.74 133.73 122.74 133.73 162.45 221.79 138.85 241.65 131.37 302.65Z" fill="#AB326B"/></g><g><path d="M169.93 278.48C169.93 278.48 159.57 327.4 151.51 343.51 151.51 343.51 170.5 355.02 185.46 333.15 200.43 311.28 194.1 283.66 194.1 283.66L169.93 278.48Z" fill="#CA6F99"/></g><g><path d="M147.05 16.74C148.15 16.92 149.22 17.16 150.18 17.53 150.19 17.53 142.58 13.17 147.05 16.74Z" fill="#A15030"/></g><g><g><g><g><path d="M39.34 234.77C36.69 234.65 35.92 235.03 30.73 230.49 26.67 226.94 25.93 222.88 27.21 219.63 50.19 177.64 77.6 147.94 88.45 149.83 106.23 152.92 95.02 170.96 95.02 170.96 95.02 170.96 74.56 200.01 56.28 221.47 50.99 227.68 47.73 230.51 42.45 236.34 42.46 236.35 39.34 234.77 39.34 234.77Z" fill="#F1AE9E"/></g></g><g><g><g><path d="M92.71 143.39C82.37 142.44 52.79 168.97 34.16 204.44 38.17 213.47 54.03 223.69 64.64 224.96 81.18 201.45 99.52 170.39 99.52 170.39 99.52 170.39 112.42 145.2 92.71 143.39Z" fill="#F0F0F0"/></g></g></g></g><path d="M103.02 130.66C103.02 130.66 99.78 130.51 88.53 137.45L79.28 152.09C79.28 152.09 96.03 151.99 102.94 142.3 102.94 142.3 109.19 133.33 103.02 130.66Z" fill="#EDEDED"/><g><g><path d="M96 410.23C96 410.23 97.99 416.02 182.54 455.03 194.13 460.37 193.52 444.39 193.52 444.39 193.52 444.39 128.45 389.77 116.73 383.63 105 377.5 96 410.23 96 410.23Z" fill="#DCA091"/></g></g><g><g><path d="M146.82 406.07C143.68 415.34 138.24 424.18 132.89 431.34 145.02 437.4 161.13 445.14 182.54 455.02 194.13 460.36 193.52 444.38 193.52 444.38 193.52 444.38 168.61 423.47 146.82 406.07Z" fill="#F4F4F4"/></g></g><g><g><path d="M150.67 409.15C149.39 408.12 148.1 407.09 146.83 406.07 143.69 415.34 138.25 424.18 132.9 431.34 134.32 432.05 135.81 432.79 137.34 433.55 143.08 425.89 148.38 418.03 150.67 409.15Z" fill="#191A3E"/><path d="M145.39 437.06C150.2 431.23 154.46 424.93 157.31 417.9 157.67 417.01 157.95 416.12 158.2 415.24 157 414.27 155.8 413.3 154.6 412.32 151.99 420.7 147.01 428.29 141.57 435.63 142.75 436.21 143.98 436.8 145.21 437.41 145.28 437.29 145.3 437.17 145.39 437.06Z" fill="#191A3E"/></g></g><g><g><path d="M79.9 400.19C79.9 400.19 77.61 405.62 92.84 497.49 94.93 510.07 107.81 500.59 107.81 500.59 107.81 500.59 115.07 417.13 113.56 403.99 112.05 390.85 79.9 400.19 79.9 400.19Z" fill="#F1AE9E"/></g></g><g><g><path d="M108.81 430.75C99.66 431.91 90.94 430.71 82.32 428.35 84.19 442.8 87.4 464.58 92.85 497.48 94.94 510.07 107.82 500.59 107.82 500.59 107.82 500.59 111.45 458.9 113.04 429.81 111.7 430.23 110.3 430.56 108.81 430.75Z" fill="#FFFFFF"/></g></g><g><g><path d="M112.75 434.75C112.85 433.07 112.94 431.42 113.03 429.82 111.7 430.24 110.3 430.57 108.81 430.76 99.66 431.92 90.94 430.72 82.32 428.36 82.56 430.21 82.82 432.18 83.1 434.27 93.23 436.89 102.99 437.12 112.75 434.75Z" fill="#191A3E"/><path d="M112.07 445.43C112.2 443.48 112.33 441.53 112.45 439.62 103 441.72 93.49 441.52 83.79 439.25 84.03 440.96 84.29 442.75 84.56 444.62 93.15 446.39 103.12 447.04 112.07 445.43Z" fill="#191A3E"/></g></g><g><path d="M80.72 412.93C80.72 412.93 71.26 322.91 72.49 294.97L129.54 296.41C129.54 296.41 130.79 311.71 128.16 334.48 124.87 363.07 116.11 402.09 113.49 418.42 113.5 418.43 94.32 432.36 80.72 412.93Z" fill="#F1AE9E"/></g><g><path d="" fill="#F1AE9E"/></g><g><path d="M117.46 97.62C109 92.09 93.31 101.02 93.31 101.02L92.97 146.25C92.97 146.25 123.06 152.33 122.74 145.78 122.02 130.98 123.3 101.44 117.46 97.62Z" fill="#F1AE9E"/></g><g><path d="M105.63 132.43C100.39 135.15 96.04 139.59 93.05 144.66 93.03 144.7 93.01 144.75 92.99 144.79L93.32 101.03C93.32 101.03 109.01 92.1 117.47 97.63 120.35 99.51 122.32 116.06 122.42 131.62 116.97 131.03 110.93 129.67 105.63 132.43Z" fill="#E4A191"/></g><g><path d="M77.18 19.89C80.53 13.72 75.91 13.28 83.25 11.14 90.76 8.95 98.81 8.14 106.81 8.41 114.8 8.15 117.45 16.78 124.95 18.96 128.89 20.11 132.38 21.46 135.4 23.94 139.05 26.94 138.54 29.8 139.76 33.77 140.54 36.27 141.79 38.59 142.72 41.05 144.37 45.43 146.18 50.1 146.8 54.68 148.07 64.05 147.46 73.33 145.97 82.62 144.46 92.03 143.87 94.89 137.02 102.81 127.96 113.3 123.01 125.93 101.06 125.82 91.97 125.78 77.45 126.56 74.39 117.4 70.32 105.18 69.87 99.57 67.91 96.47 66.13 93.65 59.85 92.99 58.62 90.25 58.21 89.35 64.36 80.74 64.48 75.92 64.57 72.47 63.07 60.06 62.91 56.85 61.8 35.2 70.71 31.8 77.18 19.89Z" fill="#F1AE9E"/></g><path d="M157.48 28.7C156.65 26.76 155.74 24.87 154.71 23.05 144.83 5.39 118.56-1.26 99.95 0.19 92.85 0.75 85.68 1.76 79.22 4.76 72.02 8.1 65.65 12.78 61.61 19.76 57.85 26.25 56.85 33.17 61.45 39.35 64.42 43.36 69.53 46.71 74.09 48.76 75.96 49.6 77.92 50.38 79.9 50.97 83.47 52.03 86.92 53.21 90.34 54.66 94.05 56.23 98.82 56.84 101.8 59.65 104.85 62.51 107.63 65.98 110.7 68.93 110.9 71.07 112.74 77.61 114.65 79.78 119.47 85.26 127.12 70.56 131.69 69.95 133.75 69.67 134.74 73.1 134.9 74.65 135.38 79.17 132.2 83.58 130.2 87.37 125.86 95.57 122.88 110.19 126.47 119.07 137.34 119.91 149.84 103.06 154.3 94.55 164.16 75.76 166.11 49.1 157.48 28.7Z" fill="#3F1023"/><path d="M60.11 32.77C90.21 47.2 130.51 43.66 153.29 21.09 150.34 17.3 146.79 14.04 142.83 11.28 137.93 19.93 130.85 26.75 120.06 30.41 98.45 37.73 78.91 35.36 59.42 24.52 58.5 27.22 58.17 29.94 58.58 32.61 59.06 32.51 59.58 32.52 60.11 32.77Z" fill="#60253E"/><g><g><path d="M142.13 78.22C140.56 86.84 128.29 98.53 125.03 91.23 123.04 86.76 123.09 81.53 124.66 72.91 126.24 64.29 122.88 58.57 130.74 60 138.6 61.43 143.7 69.6 142.13 78.22Z" fill="#F1AE9E"/></g><g><path d="M129.59 67.94C129.45 67.91 129.31 67.93 129.17 67.91 129.13 67.98 129.11 68.05 129.05 68.12 126.46 71.12 128.03 77.33 127.98 80.92 127.97 82.45 127.86 83.95 127.69 85.44 131.49 85.43 134.95 82.38 135.74 78.06 136.62 73.26 133.86 68.72 129.59 67.94Z" fill="#EE7379"/></g></g><g><path d="M149.82 187.66C149.82 172.38 134.81 144.42 122.77 139.6 115.86 149.67 104.08 148.03 94.4 143.77 93.58 143.41 93.26 142.8 93.22 142.15 80.68 149.04 70.77 161.8 68.38 176.71 66.65 187.5 64.93 206.49 63.2 234.99 63.03 237.72 63.03 299.18 64.93 299.73 64.93 299.73 80.2 306.42 105.93 306.64 131.67 306.86 149.1 304.48 149.1 304.48 151.01 274.4 149.82 206.07 149.82 187.66Z" fill="#FFFFFF"/></g><g><g><path d="M75.56 90.83C76.78 94.91 82.51 96.8 88.34 95.06 94.18 93.31 97.93 88.59 96.71 84.51 95.49 80.43 89.76 78.54 83.92 80.29 78.08 82.02 74.34 86.75 75.56 90.83Z" fill="#EE9592"/></g></g><g><path d="M72.57 71.84C72.57 75.13 74.3 77.8 76.43 77.8 78.56 77.8 80.29 75.13 80.29 71.84 80.29 68.55 78.56 65.88 76.43 65.88 74.3 65.88 72.57 68.55 72.57 71.84Z" fill="#3A0D00"/></g><g><path d="M83.11 98.89C83.85 109.63 73.29 114.44 73.29 114.44L69.89 101.83 83.11 98.89Z" fill="#FFFFFF"/></g><g><g><path d="M108.67 513.79 108.51 519.16C108.51 519.16 72.72 524.83 59.38 519.31 59.38 519.31 54.02 517.7 57 512.03 59.27 507.72 108.67 513.79 108.67 513.79Z" fill="#461603"/></g><g><path d="M108.67 499.61 108.67 515.55C108.67 515.55 76.63 521.53 58.69 515.86 58.69 515.86 49.49 511.87 69.11 506.35 88.74 500.83 92.9 497.79 92.9 497.79 92.9 497.79 101.61 505.82 108.67 499.61Z" fill="#6D3F1D"/></g><g><path d="M102.67 516.5C106.36 515.98 108.67 515.55 108.67 515.55L108.67 508.7C105.61 510.83 103.46 513.32 102.67 516.5Z" fill="#5E3516"/></g><g><path d="M73.21 511.5C77.94 511.15 82.31 509.93 86.46 507.58 90.25 505.42 94.35 503.35 97.86 500.82 95.12 499.59 92.91 497.81 92.91 497.81 92.91 497.81 88.75 500.85 69.12 506.37 67.38 506.86 65.88 507.33 64.57 507.8 63.61 511.12 71.15 511.65 73.21 511.5Z" fill="#8D5129"/></g><g><path d="M84.62 501.08C84.62 501.08 88.77 501.32 91.88 504.87" stroke="#BA6236" stroke-width="1.1819" stroke-linecap="round" stroke-linejoin="round" stroke-miterlimit="10" fill="none"/></g><g><path d="M79.89 502.93C79.89 502.93 84.04 503.17 87.15 506.71" stroke="#BA6236" stroke-width="1.1819" stroke-linecap="round" stroke-linejoin="round" stroke-miterlimit="10" fill="none"/></g><g><path d="M74.34 504.98C74.34 504.98 78.49 505.22 81.6 508.76" stroke="#BA6236" stroke-width="1.1819" stroke-linecap="round" stroke-linejoin="round" stroke-miterlimit="10" fill="none"/></g><path d="M87.48 501.38C87.48 499.66 87.61 497.72 87.11 496.07 86.8 495.06 86.26 493.61 85.24 493.09 83.5 492.19 83.13 493.77 83.57 495.17 84.13 496.93 85.52 498.77 86.73 500.16 87.23 500.73 87.49 501.16 87.73 501.88" stroke="#BA6236" stroke-width="1.1819" stroke-linecap="round" stroke-linejoin="round" stroke-miterlimit="10" fill="none"/><path d="M97.78 500.99C97.78 500.99 99.35 496.51 96.34 495.24 90.23 492.65 92.03 498.01 92.03 498.01 92.03 498.01 91.51 501.71 97.78 500.99Z" fill="#8D5129"/><path d="M87.42 501.57C88.74 499.4 90.52 495.79 93.63 496.02 94.7 496.1 94.9 497.16 94.42 498.03 93.6 499.51 91.78 500.49 90.22 500.96 89.59 501.15 88.05 501.14 87.59 501.51" stroke="#BA6236" stroke-width="1.1819" stroke-linecap="round" stroke-linejoin="round" stroke-miterlimit="10" fill="none"/></g><g><g><path d="M201.05 445.41 205.92 447.68C205.92 447.68 196.96 482.8 186.62 492.86 186.62 492.86 183.01 497.15 178.99 492.16 175.93 488.37 201.05 445.41 201.05 445.41Z" fill="#461603"/></g><g><path d="M188.03 439.8 202.67 446.11C202.67 446.11 195.48 477.9 183.17 492.12 183.17 492.12 175.87 498.99 178.56 478.78 181.26 458.58 180.12 453.55 180.12 453.55 180.12 453.55 190.94 448.74 188.03 439.8Z" fill="#6D3F1D"/></g><g><path d="M201.16 452C202.15 448.4 202.67 446.11 202.67 446.11L196.38 443.4C197.12 447.05 198.56 450.01 201.16 452Z" fill="#5E3516"/></g><g><path d="M184.91 477.07C186.47 472.59 187.07 468.1 186.55 463.35 186.07 459.01 185.79 454.43 184.86 450.21 182.64 452.24 180.13 453.56 180.13 453.56 180.13 453.56 181.27 458.59 178.57 478.79 178.33 480.59 178.17 482.16 178.08 483.54 180.77 485.74 184.24 479.02 184.91 477.07Z" fill="#8D5129"/></g><g><path d="M179.86 462.47C179.86 462.47 181.72 458.76 186.2 457.3" stroke="#BA6236" stroke-width="1.1819" stroke-linecap="round" stroke-linejoin="round" stroke-miterlimit="10" fill="none"/></g><g><path d="M179.69 467.55C179.69 467.55 181.55 463.83 186.04 462.38" stroke="#BA6236" stroke-width="1.1819" stroke-linecap="round" stroke-linejoin="round" stroke-miterlimit="10" fill="none"/></g><g><path d="M179.38 473.46C179.38 473.46 181.25 469.74 185.73 468.29" stroke="#BA6236" stroke-width="1.1819" stroke-linecap="round" stroke-linejoin="round" stroke-miterlimit="10" fill="none"/></g><path d="M181.27 459.96C179.69 459.28 177.96 458.39 176.25 458.21 175.2 458.09 173.66 458.02 172.78 458.74 171.26 459.98 172.57 460.95 174.03 461.09 175.87 461.27 178.11 460.73 179.87 460.17 180.59 459.94 181.09 459.87 181.85 459.94" stroke="#BA6236" stroke-width="1.1819" stroke-linecap="round" stroke-linejoin="round" stroke-miterlimit="10" fill="none"/><path d="M184.99 450.35C184.99 450.35 181.5 447.14 179.14 449.39 174.33 453.98 179.98 454.45 179.98 454.45 179.98 454.45 183.17 456.39 184.99 450.35Z" fill="#8D5129"/><path d="M181.42 460.09C179.95 458.03 177.33 454.96 178.78 452.19 179.27 451.24 180.33 451.47 180.94 452.26 181.97 453.6 182.15 455.66 181.96 457.28 181.89 457.94 181.27 459.34 181.43 459.91" stroke="#BA6236" stroke-width="1.1819" stroke-linecap="round" stroke-linejoin="round" stroke-miterlimit="10" fill="none"/></g></g><g><g><path d="M63.82 274.34C42.33 321.16 25.75 437.11 23.48 451.98 23.45 447.05 26.56 488.96 106.45 496.02 180.14 489.87 194.08 430.42 193.96 434.5 193.65 434.8 164.57 333.38 147.35 274.95 119.71 285.86 91.42 285.65 63.82 274.34Z" fill="#298ECA"/><path d="M63.82 274.34C42.33 321.16 25.75 437.11 23.48 451.98 23.45 447.05 26.56 488.96 106.45 496.02 180.14 489.87 194.08 430.42 193.96 434.5 193.65 434.8 164.57 333.38 147.35 274.95 119.71 285.86 91.42 285.65 63.82 274.34Z" fill="#298ECA"/></g><g><path d="M192.4 429.52C191.07 425.05 188.93 417.78 186.26 408.6 135.22 434.64 81.44 434.5 30.43 408.2 29.02 416.47 27.79 424 26.77 430.48 80.91 459.79 138.34 459.48 192.4 429.52Z" fill="none"/><path d="M153.62 296.29C151.42 288.77 149.32 281.57 147.36 274.95 119.7 285.87 91.41 285.65 63.81 274.34 61.23 279.96 58.73 286.6 56.31 293.9 88.48 304.78 121.36 305.6 153.62 296.29Z" fill="none"/><path d="M166.85 341.73C164.73 334.41 162.58 327.05 160.47 319.78 123.74 332.05 86.08 331.14 49.48 317.08 47.59 324.19 45.77 331.57 44.03 339.09 84.46 356.11 126.29 357.01 166.85 341.73Z" fill="none"/><path d="M24.87 455.04C28.96 464.51 44.95 490.58 106.46 496.01 141.87 493.05 163.45 477.79 176.34 463.19 126.41 485.22 74.24 482.46 24.87 455.04Z" fill="none"/><path d="M179.73 386.15C177.76 379.36 175.68 372.17 173.51 364.7 129.18 383.4 83.16 382.65 38.96 362.5 37.42 370.02 35.97 377.46 34.63 384.67 82.21 407.8 132.06 408.3 179.73 386.15Z" fill="none"/><path d="M193.91 434.33C193.93 434.4 193.97 434.49 193.97 434.49 193.97 434.33 193.95 434.3 193.91 434.33Z" fill="#296C92"/><path d="M23.48 451.98C23.49 451.87 23.52 451.72 23.54 451.6 23.5 451.54 23.48 451.65 23.48 451.98Z" fill="#296C92"/><path d="M176.33 463.19C189.19 448.62 193.38 434.73 193.9 434.33 193.74 433.94 193.23 432.28 192.4 429.51 138.33 459.47 80.9 459.78 26.77 430.46 25.14 440.73 24.04 448.25 23.54 451.59 23.65 451.73 23.99 453.01 24.87 455.04 74.24 482.46 126.41 485.22 176.33 463.19Z" fill="#296C92"/><path d="M186.26 408.6C184.33 401.99 182.12 394.39 179.73 386.15 132.06 408.3 82.21 407.8 34.63 384.67 33.09 392.91 31.68 400.84 30.42 408.2 81.44 434.5 135.22 434.64 186.26 408.6Z" fill="#296C92"/><path d="M173.51 364.7C171.34 357.23 169.1 349.51 166.85 341.73 126.29 357.01 84.46 356.11 44.04 339.09 42.26 346.83 40.56 354.7 38.97 362.49 83.16 382.65 129.18 383.4 173.51 364.7Z" fill="#296C92"/><path d="M160.48 319.78C158.14 311.74 155.84 303.85 153.62 296.28 121.36 305.59 88.48 304.77 56.31 293.89 53.94 301.04 51.67 308.86 49.48 317.07 86.09 331.14 123.74 332.06 160.48 319.78Z" fill="#296C92"/></g><g><path d="M63.82 274.34C62.98 276.17 62.15 278.13 61.33 280.16 59.95 342.23 51.47 403.08 42.87 476.13 49.17 480.66 57.5 485.09 68.53 488.7 73.77 408.08 78.58 343.92 79.31 279.38 74.12 278.04 68.95 276.45 63.82 274.34Z" fill="none"/><path d="M120.81 281.86C121.5 346.24 125.54 410.59 129.97 491.82 140.06 488.97 148.64 485.02 155.9 480.51 147.76 404.25 139.82 341.68 138.7 277.93 132.75 279.76 126.78 281.04 120.81 281.86Z" fill="none"/><path d="M23.54 451.6C23.72 451.83 24.52 455.15 27.39 459.91 34.55 413.85 41.85 371.85 46.1 330.38 33.82 380.99 25.25 440.3 23.54 451.6Z" fill="none"/><path d="M91.06 281.75C90.67 346.25 88.4 410.91 85.85 493.15 92.08 494.37 98.92 495.34 106.45 496.01 108.52 495.84 110.53 495.61 112.51 495.35 110.8 412.44 109.27 347.47 109.01 282.83 103.03 282.99 97.04 282.62 91.06 281.75Z" fill="none"/><path d="M191.33 425.91C184.34 402.29 164.85 334.59 150.75 286.45 152.92 344.66 162.59 401.7 172.03 467.74 185.92 454 191.62 439.68 193.34 435.51 192.68 432.31 192 429.11 191.33 425.91Z" fill="none"/><path d="M23.48 451.98C23.49 451.87 23.52 451.72 23.54 451.6 23.5 451.54 23.48 451.65 23.48 451.98Z" fill="none"/><path d="M46.11 330.38C41.86 371.85 34.56 413.85 27.4 459.91 30.17 464.49 34.89 470.38 42.87 476.13 51.47 403.08 59.95 342.22 61.33 280.16 55.84 293.67 50.72 311.4 46.11 330.38Z" fill="#296C92"/><path d="M79.3 279.38C78.57 343.93 73.77 408.08 68.52 488.7 73.69 490.39 79.43 491.91 85.85 493.15 88.4 410.91 90.67 346.25 91.06 281.75 87.13 281.18 83.22 280.38 79.3 279.38Z" fill="#296C92"/><path d="M109.01 282.83C109.28 347.47 110.8 412.45 112.51 495.35 118.78 494.54 124.58 493.33 129.96 491.81 125.53 410.58 121.49 346.23 120.8 281.85 116.88 282.4 112.95 282.73 109.01 282.83Z" fill="#296C92"/><path d="M147.37 274.95C144.48 276.09 141.59 277.03 138.7 277.93 139.81 341.68 147.75 404.25 155.9 480.51 162.23 476.57 167.56 472.2 172.04 467.76 162.6 401.72 152.93 344.68 150.76 286.47 149.58 282.48 148.45 278.62 147.37 274.95Z" fill="#296C92"/><path d="M193.91 434.33C193.93 434.4 193.97 434.49 193.97 434.49 193.97 434.33 193.95 434.3 193.91 434.33Z" fill="#296C92"/><path d="M193.91 434.33C193.69 433.79 192.79 430.81 191.34 425.91 192.01 429.1 192.68 432.3 193.35 435.52 193.64 434.81 193.82 434.4 193.91 434.33Z" fill="#296C92"/></g></g><path d="M71.93 52.75C71.93 52.75 72.28 52.71 73.14 52.75 74 52.74 75.04 52.92 76.34 53.09 77.58 53.44 79.08 53.64 80.53 54.27 81.27 54.55 82.03 54.84 82.8 55.14 83.53 55.52 84.27 55.91 85.01 56.3 85.73 56.72 86.51 57.04 87.16 57.52 87.82 58 88.47 58.46 89.1 58.91 89.72 59.36 90.33 59.8 90.9 60.21 91.43 60.67 91.9 61.15 92.35 61.56 94.13 63.24 95.31 64.36 95.31 64.36 95.55 64.59 95.56 64.98 95.33 65.22 95.11 65.45 94.76 65.47 94.51 65.28L94.45 65.23C94.45 65.23 93.2 64.26 91.33 62.81 90.86 62.45 90.37 62.04 89.82 61.65 89.24 61.31 88.62 60.95 87.99 60.58 87.36 60.21 86.71 59.83 86.04 59.44 85.38 59.05 84.63 58.82 83.93 58.5 83.21 58.21 82.5 57.91 81.81 57.62 81.09 57.43 80.36 57.23 79.67 57.04 78.31 56.58 76.97 56.56 75.88 56.35 74.77 56.32 73.82 56.24 73.28 56.32 72.74 56.33 72.29 56.41 72.29 56.41 71.28 56.59 70.32 55.92 70.14 54.91 69.96 53.9 70.64 52.94 71.65 52.76 71.7 52.75 71.74 52.75 71.78 52.74L71.93 52.75Z" fill="#3F1023"/><path d="M133.6 92.3C134.18 94.72 132.7 97.15 130.28 97.74 127.86 98.32 125.42 96.84 124.84 94.42 124.26 92 125.74 89.56 128.16 88.98 130.58 88.39 133.02 89.88 133.6 92.3Z" fill="#FFFFFF"/><path d="M74.16 179.43C74.05 178.06 73.91 176.7 73.73 175.34 72.3 175.17 70.89 174.98 69.49 174.75 77.53 167.66 85.08 157.76 89 147.77 91 148.7 91.61 150.72 93.61 151.65 89.4 162.36 82.79 171.81 74.16 179.43Z" fill="#286E94"/><path d="M85.95 187.69C85.39 186.28 84.81 184.89 84.19 183.53 82.77 184 81.36 184.43 79.94 184.83 85.28 173.61 88.27 161.41 88.73 148.98 90.95 149.06 93.16 149.14 95.37 149.22 94.89 162.56 91.68 175.65 85.95 187.69Z" fill="#298ECA"/><circle cx="93.66" cy="146.3" r="6.26" fill="#298ECA"/><path d="M95.43 140.32C96 143.81 95.16 147.35 91.99 149.43 91.07 150.03 90.06 150.35 89.04 150.49 90.19 151.75 91.82 152.56 93.66 152.56 97.12 152.56 99.92 149.75 99.92 146.3 99.92 143.46 98.02 141.09 95.43 140.32Z" fill="#286E94"/><path d="M122.03 128.09C122.03 128.09 103.43 135.31 95.16 138.14L100.56 156.25C100.56 156.25 121.16 152.45 128.07 142.76 128.06 142.76 128.19 130.76 122.03 128.09Z" fill="#EDEDED"/><g><path d="M151.51 314.71C150.85 314.71 150.18 314.58 149.52 314.3 147.46 313.4 98.87 291.4 94.15 207.55 92.23 173.59 97.95 152.08 111.15 143.6 123.77 135.5 137.71 142.69 138.29 143 140.73 144.29 141.66 147.31 140.38 149.75 139.1 152.18 136.09 153.11 133.65 151.85 133.45 151.75 124.11 147.09 116.47 152.05 109.67 156.47 102 169.59 104.11 207 108.49 284.75 153.04 304.95 153.49 305.15 156.02 306.24 157.18 309.19 156.08 311.72 155.27 313.59 153.44 314.71 151.51 314.71Z" fill="#CA6F99"/></g><g><g><g><path d="M103.51 263.93C104.13 258.31 101.49 258.36 95.97 251.41 91.35 245.59 86.53 242.14 86.53 242.14 66.03 254.62 37.24 269.4 20.3 270.97 1.33 272.73 21.95 283.86 21.95 283.86 46.12 282.24 73.4 276.77 103.51 263.93Z" fill="#F1AE9E"/></g></g><g><path d="M31.69 269.96C31.69 269.96 24.62 257.18 7.95 265.26 7.95 265.26 8.41 268.72 16.05 269.65 21.5 270.31 26.12 270.69 29.04 270.49 30.21 270.42 31.11 270.25 31.69 269.96Z" fill="#F1AE9E"/></g><g><path d="M28.27 282.62C28.13 283.78 23.37 284.31 22.44 284.48 19.31 285.03 16.24 284.45 13.13 283.96 11.9 283.77 10.61 283.45 9.4 283.12 8.54 282.88 7.7 282.48 6.87 282.13 4.78 281.27 3.35 279.28 1.8 277.71 0.36 276.26-0.65 273.15 0.47 271.27 1.58 269.4 3.55 268.47 5.58 267.93 10.04 266.74 14.72 267.21 19.27 267.23 22.98 267.25 28.6 271.03 28.87 272.06 29.16 273.07 28.27 282.61 28.27 282.62Z" fill="#F1AE9E"/></g></g><g><g><g><g><path d="M87.27 257.95C88.95 260.3 89.06 261.2 96.15 263.69 101.69 265.64 106.32 264.38 108.44 261.61 132.04 219.87 141.35 169.78 133.25 160.79 120.01 146.09 116.95 169.18 116.95 169.18 116.95 169.18 92.63 223.04 83.77 250.09 82.14 255.08 89.96 252.88 87.28 257.94 87.27 257.94 87.27 257.95 87.27 257.95Z" fill="#F1AE9E"/></g></g></g><g><g><g><path d="M136.73 158.11C143.68 165.82 138.07 207.95 120.81 244.1 111.17 246.29 93.5 239.7 86.13 231.96 95.07 204.64 108.97 171.35 108.97 171.35 108.97 171.35 123.48 143.41 136.73 158.11Z" fill="#F6F6F6"/></g></g></g></g></g></svg>