<svg width="729.67" height="348.12" viewBox="0 0 729.67 348.12" xmlns="http://www.w3.org/2000/svg" xmlns:xlink="http://www.w3.org/1999/xlink" xml:space="preserve" overflow="hidden"><defs></defs><path d="M274.55 66.02C281.43 58.45 273.63 54.33 265.84 54.78 258.04 55.24 237.87 62.12 237.87 62.12 237.87 62.12 251.17 49.28 253.92 43.55 256.67 37.82 247.04 31.17 240.39 34.15 233.74 37.13 218.47 46.45 213.79 50.89 213.79 50.89 217.69 41.49 219.06 35.76 220.44 30.03 211.11 23.07 203.7 27.28 198.7 30.11 180.54 49.52 175.27 55.71 175.27 55.71 178.25 48.98 179.63 45.09 181.01 41.19 173.82 36.22 168.32 38.98 163.99 41.14 155.33 49.07 145.24 63.74 137.42 75.12 126.9 118.08 124.14 130.47 121.39 142.85 125.06 189.17 123.68 195.36 122.3 201.55 82.64 271.49 17.06 315.97L16.17 348.14 144.5 348.14C161.63 316.67 199.06 248.8 216.77 223.79 240.16 190.77 272.49 150.64 273.87 132.07 275.25 113.5 280.52 102.26 270.89 98.13 261.26 94 255.53 104.09 252.09 110.97 248.65 117.85 243.22 129.01 232.22 136.8 232.22 136.8 223.66 116.24 235.35 98.35 247.03 80.46 267.67 73.58 274.55 66.02Z" fill="#E2E2E2"/><g><path d="M254.22 40.04C261.1 32.47 253.3 28.35 245.51 28.8 237.71 29.26 217.54 36.14 217.54 36.14 217.54 36.14 230.84 23.3 233.59 17.57 236.34 11.84 226.71 5.19 220.06 8.17 213.41 11.15 198.14 20.47 193.46 24.91 193.46 24.91 197.36 15.51 198.73 9.78 200.11 4.05 190.78-2.91 183.37 1.3 178.37 4.13 160.21 23.54 154.94 29.73 154.94 29.73 157.92 23 159.3 19.11 160.68 15.21 153.49 10.24 147.99 13 143.66 15.16 135 23.09 124.91 37.76 117.09 49.14 106.57 92.1 103.81 104.49 101.06 116.87 104.73 163.19 103.35 169.38 102 175.47 63.63 243.18 0.01 287.73L0.01 327.21 121.43 327.21C136.94 298.63 177.72 224.26 196.45 197.82 219.84 164.8 252.17 124.67 253.55 106.1 254.93 87.53 260.2 76.29 250.57 72.16 240.94 68.03 235.21 78.12 231.77 85 228.33 91.88 222.9 103.04 211.9 110.83 211.9 110.83 203.34 90.27 215.03 72.38 226.71 54.48 247.34 47.61 254.22 40.04Z" fill="#E9BEA5"/><path d="M215.53 37.54C213.51 36.66 211.55 38.31 209.88 39.34 208.07 40.45 206.34 41.67 204.66 42.96 201.23 45.61 198.11 48.69 195.35 52.03 189.79 58.76 185.6 66.6 183.23 75.01 182.55 77.43 182.02 79.85 181.78 82.35 181.57 84.48 181.03 87.13 182.45 88.94 182.58 89.11 182.89 89.09 183.03 88.94 184.38 87.49 184.34 85.34 184.69 83.49 185.07 81.49 185.5 79.48 185.99 77.5 186.99 73.48 188.41 69.57 190.24 65.86 193.86 58.51 198.95 51.92 205.2 46.62 206.99 45.1 208.86 43.68 210.82 42.39 211.75 41.78 212.7 41.19 213.67 40.63 214.73 40.02 215.57 39.54 215.85 38.27 215.89 38.03 215.81 37.66 215.53 37.54Z" fill="#DC9570"/><path d="M154.62 31.41C154.51 30.99 154.09 30.68 153.66 30.68 151.82 30.69 150.53 33.34 149.62 34.66 148.5 36.28 147.46 37.95 146.48 39.66 144.5 43.14 142.86 46.82 141.52 50.59 140.18 54.36 139.16 58.26 138.48 62.2 137.81 66.12 137.1 70.3 138.57 74.11 138.77 74.63 139.42 74.63 139.62 74.11 141.05 70.46 141.03 66.48 141.69 62.65 142.34 58.91 143.3 55.22 144.55 51.64 145.8 48.05 147.37 44.59 149.19 41.25 150.13 39.52 151.14 37.83 152.23 36.19 153.11 34.88 155.04 33.11 154.62 31.41Z" fill="#DC9570"/><path d="M189.03 26.74C183.26 31.97 177.93 38.06 173.44 44.43 168.99 50.74 165.23 57.57 162.73 64.88 162.03 66.94 161.43 69.03 160.94 71.15 160.5 73.07 159.64 75.45 160.94 77.19 161.12 77.43 161.38 77.46 161.61 77.28 163.11 76.12 163.14 74.22 163.52 72.5 163.92 70.71 164.4 68.94 164.96 67.19 166.1 63.61 167.57 60.15 169.26 56.8 172.69 50.01 177.06 43.65 181.8 37.71 184.48 34.34 187.36 31.15 190.14 27.86 190.78 27.09 189.79 26.06 189.03 26.74Z" fill="#DC9570"/><path d="M254.46 82.6C254.25 79.93 253.23 77.3 251.06 75.63 248.87 73.94 245.88 73.52 243.42 74.89 239.91 76.84 234.21 89.12 240.38 90.65 240.96 90.79 241.59 90.79 242.21 90.78 242.65 90.99 243.13 91.11 243.65 91.11 244.14 91.12 244.63 91.16 245.12 91.21 245.63 91.29 246.14 91.39 246.65 91.52 246.99 91.61 247.33 91.72 247.67 91.84 247.72 91.86 248.05 92.02 248.15 92.03 249.15 92.49 250.08 92.64 251.13 92.2 252.13 91.78 252.71 91.04 253.07 90.03 253.88 87.66 254.66 85.13 254.46 82.6Z" fill="#F3DCC8"/><path d="M251.95 34.68C251.61 32.85 250.13 31.5 248.45 30.88 246.92 30.31 245.17 30.55 243.61 30.89 241.89 31.26 240.25 31.89 238.67 32.65 238.13 32.91 237.61 33.63 237.48 34.2 237.32 34.91 237.43 35.54 237.74 36.2 238.54 37.88 239.35 39.55 240.15 41.23 240.59 42.15 242.06 42.8 243.04 42.41 243.69 42.15 244.35 41.89 245 41.63 245.22 41.63 245.45 41.62 245.68 41.56 246.42 41.39 247.08 40.9 247.75 40.53 247.95 40.45 248.15 40.37 248.36 40.29 248.98 40.04 249.59 39.74 250.11 39.34 250.69 38.93 251.2 38.41 251.53 37.8 252.07 36.81 252.15 35.75 251.95 34.68Z" fill="#F3DCC8"/><path d="M228.77 14C228.46 12.72 227.39 11.58 226.23 11.01 226.01 10.9 225.13 10.65 225.7 10.78 225.76 10.8 225.82 10.83 225.87 10.85 225.64 10.74 225.4 10.64 225.17 10.55 224.98 10.48 224.8 10.41 224.61 10.35 224.02 10.18 223.39 10.11 222.78 10.09 221.75 10.05 220.66 10.22 219.69 10.56 218.46 11 217.34 11.61 216.45 12.59 215.93 13.16 215.55 13.73 215.28 14.46 215.22 14.61 215.19 14.78 215.17 14.95 215.09 15.03 215.02 15.11 214.94 15.19 213.88 16.29 213.66 18.41 214.94 19.47 215.87 20.25 216.83 21.01 217.77 21.77 218.23 22.14 218.69 22.52 219.15 22.89 219.85 23.46 220.5 24.05 221.4 24.3 222.65 24.64 223.97 24.24 224.87 23.33 225.37 22.83 225.77 22.14 226.16 21.55 226.77 20.6 227.33 19.62 227.85 18.62 228.59 17.16 229.17 15.64 228.77 14Z" fill="#F3DCC8"/><path d="M190.97 4.05C188.51 2.48 185.22 3 182.93 4.62 180.42 6.39 178.24 9.03 177.43 12.03 177.04 13.46 177.91 15.06 179.37 15.44 179.7 15.53 180.03 15.61 180.36 15.69 180.94 16.06 181.52 16.42 182.11 16.77 182.66 17.09 183.21 17.38 183.78 17.65 184.66 18.05 185.5 18.52 186.49 18.48 188.22 18.42 189.56 16.73 190.65 15.54 191.54 14.58 192.39 13.54 192.94 12.35 194.27 9.42 193.83 5.87 190.97 4.05Z" fill="#F3DCC8"/><path d="M154.74 18C153.79 16.45 151.88 15.59 150.08 15.79 148.39 15.97 146.84 16.67 145.65 17.9 144.36 19.24 143.61 21.01 143.62 22.87 143.63 24.03 144.34 25.06 145.39 25.51 145.58 25.59 145.78 25.64 145.99 25.68 146.79 26.36 147.63 26.98 148.48 27.59 148.91 27.9 149.53 27.94 150.03 27.88 150.22 27.85 150.39 27.8 150.54 27.75 151.08 27.66 151.55 27.43 151.95 27.04 152.93 26.1 153.79 24.98 154.37 23.75 155.2 21.97 155.86 19.83 154.74 18Z" fill="#F3DCC8"/><path d="M131.68 86.71C131.68 86.14 131.67 85.6 131.58 85.03 131.55 84.85 131.53 84.67 131.49 84.49 131.42 84.14 131.25 83.77 131.01 83.47 130.3 82.17 128.14 82.14 127.45 83.5 127.45 83.51 127.44 83.51 127.44 83.52 127.21 83.82 127.05 84.17 126.99 84.49 126.96 84.67 126.94 84.85 126.91 85.03 126.86 85.41 126.82 85.77 126.82 86.15 126.82 86.32 126.82 86.5 126.82 86.67 126.82 87.03 126.82 87.4 126.83 87.76 126.84 88.21 126.93 88.68 127.16 89.08 127.2 89.15 127.24 89.22 127.29 89.29 127.66 89.96 128.48 90.49 129.26 90.46 130.08 90.42 130.81 90 131.23 89.29 131.5 88.83 131.67 88.36 131.68 87.81 131.69 87.43 131.68 87.07 131.68 86.71Z" fill="#DC9570"/><g><path d="M157.4 93.29C157.4 93.28 157.4 93.27 157.4 93.27 157.4 93.25 157.41 93.22 157.41 93.2 157.41 93.22 157.41 93.23 157.41 93.25 157.46 92.98 157.5 92.72 157.49 92.44 157.48 92.25 157.48 92.07 157.48 91.88 157.49 91.54 157.47 91.21 157.44 90.87 157.39 90.35 157.32 89.82 157.01 89.43 157.01 89.42 157.01 89.42 157.01 89.41 156.99 89.27 156.93 89.2 156.87 89.09 156.83 89.01 156.82 89 156.82 88.88 156.82 88.68 156.59 88.53 156.41 88.64 156.23 88.76 156.04 88.73 155.85 88.84 155.79 88.88 155.73 88.93 155.68 88.97 155.08 89.13 154.64 89.69 154.4 90.25 154.17 90.79 154.03 91.27 154.02 91.87 154.01 92.35 154.02 92.87 154.2 93.32 154.32 93.6 154.43 93.88 154.57 94.15 154.77 94.52 155.02 94.75 155.36 94.91 155.45 94.98 155.54 95.05 155.64 95.11 155.77 95.26 155.9 95.41 156.03 95.55 156.52 96.04 157.21 95.53 157.11 94.92 157.09 94.8 157.08 94.69 157.07 94.58 157.09 94.53 157.1 94.48 157.11 94.42 157.21 94.28 157.3 94.14 157.34 93.97 157.38 93.81 157.38 93.64 157.4 93.48 157.4 93.43 157.41 93.38 157.41 93.32 157.39 93.41 157.37 93.46 157.4 93.29Z" fill="#DC9570"/><path d="M157.4 93.33C157.4 93.3 157.41 93.27 157.41 93.24 157.41 93.25 157.41 93.25 157.41 93.26 157.4 93.29 157.4 93.31 157.4 93.33Z" fill="#DC9570"/></g><path d="M180.46 104.12C180.45 103.69 180.43 103.25 180.42 102.82 180.41 102.25 180.44 101.65 180.19 101.14 180.19 101.09 180.18 101.04 180.17 100.99 180.18 100.95 180.18 100.91 180.19 100.87 180.26 100.53 180.14 100.17 179.83 99.99 179.56 99.83 179.09 99.84 178.88 100.11 178.82 100.19 178.76 100.27 178.69 100.35 178.63 100.4 178.56 100.44 178.51 100.5 178.13 100.67 177.9 100.93 177.62 101.3 177.48 101.49 177.39 101.69 177.29 101.9 177.04 102.46 176.82 102.99 176.72 103.6 176.52 104.84 176.64 106.58 177.66 107.46 177.88 107.74 178.14 107.95 178.48 108.05 178.52 108.07 178.56 108.1 178.6 108.12 178.91 108.29 179.36 108.21 179.54 107.87 179.55 107.84 179.57 107.82 179.58 107.79 179.68 107.7 179.78 107.59 179.85 107.47 179.91 107.34 179.96 107.2 180.02 107.07 180.02 107.05 180.02 107.04 180.03 107.02 180.13 106.85 180.21 106.67 180.26 106.47 180.27 106.41 180.31 106.13 180.32 106 180.35 105.83 180.38 105.66 180.39 105.49 180.43 105.04 180.47 104.57 180.46 104.12Z" fill="#DC9570"/><g><path d="M187.08 192.05C186.53 191.62 185.81 191.59 185.19 191.92 185.1 191.97 184.99 192.02 184.9 192.07 184.89 192.08 184.89 192.07 184.88 192.08 184.86 192.09 184.85 192.09 184.84 192.1 184.47 192.26 184.17 192.49 183.86 192.75 183.43 193.12 183.09 193.54 182.76 194.01 182.18 194.83 181.75 195.69 181.37 196.62 181.03 197.45 180.77 198.56 180.87 199.45 180.9 199.7 180.91 199.98 180.97 200.22 180.99 200.32 181.04 200.49 181.1 200.64 181.11 200.68 181.11 200.73 181.12 200.77 181.13 200.85 181.14 200.94 181.16 201.02 181.25 201.6 181.45 202.11 181.86 202.54 182.39 203.1 183.27 203.03 183.81 202.54 184.24 202.16 184.41 201.66 184.62 201.15 184.62 201.14 184.63 201.13 184.63 201.11 184.62 201.12 184.61 201.12 184.58 201.15 184.6 201.12 184.62 201.1 184.65 201.06 184.65 201.07 184.65 201.07 184.65 201.07 184.65 201.06 184.65 201.06 184.66 201.05 184.66 201.05 184.66 201.05 184.66 201.05 184.73 200.96 184.8 200.88 184.86 200.79 184.91 200.72 184.95 200.64 184.99 200.57 185.26 200.09 185.43 199.59 185.61 199.08 185.64 198.99 185.68 198.91 185.71 198.82 185.83 198.51 185.66 198.94 185.62 199.02 185.77 198.68 185.9 198.34 186.03 197.99 186.15 197.65 186.3 197.31 186.43 196.97 186.44 196.95 186.45 196.92 186.47 196.88 186.55 196.7 186.64 196.52 186.73 196.34 186.96 195.88 187.16 195.42 187.34 194.94 187.35 194.92 187.35 194.92 187.35 194.91 187.36 194.88 187.37 194.87 187.38 194.83 187.49 194.57 187.5 194.47 187.54 194.2 187.54 194.21 187.55 194.19 187.56 194.14 187.61 194.06 187.63 193.93 187.66 193.84 187.91 193.19 187.59 192.44 187.08 192.05Z" fill="#DC9570"/><path d="M184.66 201.1C184.65 201.17 184.73 201.06 184.66 201.1L184.66 201.1Z" fill="#DC9570"/><path d="M184.66 201.1C184.66 201.09 184.66 201.09 184.67 201.07 184.67 201.09 184.66 201.09 184.66 201.1 184.66 201.11 184.66 201.1 184.66 201.1Z" fill="#DC9570"/></g></g><g><path d="M670.17 222.41C665.89 209.26 660.69 180.83 661.92 166.46 663.15 152.09 655.19 123.66 650.91 109.29 646.63 94.92 623.24 49.21 618.96 44.32 614.68 39.43 602.14 38.82 602.14 45.85 602.14 49.78 605.06 57.11 607.63 62.8 601.04 50.43 588.8 31.59 581.05 30.87 571.27 29.95 567.44 36.68 567.44 36.68 567.44 36.68 557.05 26.44 550.93 24.6 544.82 22.77 540.23 28.27 541.15 40.5 542.07 52.73 549.4 55.48 559.49 68.32 567.74 78.82 575.37 100.55 578.38 108.13 574.82 102.05 564.93 87.26 559.18 80.55 551.84 71.99 533.17 54.8 524.94 51.2 516.7 47.6 513.02 58.84 518.21 70.16 523.41 81.47 544.81 102.87 553.06 116.94 561.31 131 561.47 155.16 561.47 155.16 555.36 149.66 547.94 139.11 541.88 130.17 535.82 121.23 525.93 123.28 522.49 134.29 519.05 145.3 525.93 170.06 538.31 197.58 550.69 225.1 563.76 245.05 589.21 266.37 608.17 282.25 623.28 312.69 629.77 327.2L729.66 327.2C721.11 312.92 674.06 234.35 670.17 222.41Z" fill="#E9BEA5"/><path d="M583.62 122.15C583.25 120.5 582.86 118.85 582.39 117.22 581.43 113.91 580.31 110.54 578.7 107.49 578.25 106.63 576.94 107.23 577.16 108.14 577.99 111.42 579.05 114.63 579.86 117.92 580.27 119.57 580.67 121.21 581 122.87 581.17 123.69 581.29 124.55 581.59 125.34 581.88 126.1 582.33 126.71 582.77 127.39 582.98 127.72 583.52 127.68 583.63 127.28 583.84 126.46 584.07 125.69 584.05 124.83 584.03 123.93 583.81 123.03 583.62 122.15Z" fill="#DC9570"/><path d="M608.21 107.7C607.72 105.09 607.12 102.5 606.42 99.94 605.01 94.74 603.07 89.67 600.89 84.74 596.55 74.88 590.98 65.46 584.5 56.85 582.68 54.43 580.8 52.05 578.88 49.7 577.9 48.5 576.88 47.34 575.8 46.22 574.81 45.2 573.79 44.07 572.51 43.44 572.27 43.32 571.97 43.52 572.05 43.79 572.36 44.91 573.02 45.84 573.64 46.82 574.39 48 575.18 49.17 576 50.3 577.53 52.42 579.07 54.53 580.55 56.68 583.56 61.05 586.5 65.49 589.2 70.05 594.57 79.1 599.17 88.59 602.3 98.66 603.15 101.39 603.94 104.14 604.6 106.93 604.93 108.36 605.23 109.79 605.58 111.22 605.95 112.75 606.64 114.09 607.23 115.53 607.41 115.96 608.2 116.14 608.28 115.53 608.46 114.29 608.7 113.09 608.69 111.84 608.71 110.49 608.46 109.06 608.21 107.7Z" fill="#DC9570"/><path d="M632.5 109.41C632.04 107.12 631.34 104.88 630.56 102.68 629.05 98.41 627.34 94.19 625.56 90.03 623.82 85.95 621.92 81.95 619.71 78.1 618.61 76.19 617.44 74.31 616.19 72.49 615.06 70.85 613.82 68.74 612.14 67.63 611.7 67.34 610.99 67.83 611.19 68.36 611.93 70.25 613.53 71.96 614.64 73.65 615.77 75.37 616.82 77.14 617.82 78.95 619.89 82.7 621.7 86.6 623.38 90.54 625.1 94.59 626.73 98.7 628.2 102.85 628.93 104.91 629.59 106.99 630.07 109.12 630.32 110.23 630.51 111.34 630.64 112.47 630.76 113.46 630.82 114.44 631.6 115.15 631.8 115.33 632.12 115.35 632.32 115.15 633.69 113.76 632.84 111.08 632.5 109.41Z" fill="#DC9570"/><path d="M544.1 141.95C543.9 141.48 543.68 141.01 543.44 140.54 543.31 140.09 543.11 139.65 542.9 139.21 542.22 137.78 541.31 136.46 540.28 135.26 538.52 133.21 535.89 131.36 533.16 131.9 532.44 131.82 531.7 131.86 530.94 132.09 528.63 132.8 527.2 135.01 526.79 137.29 526.35 139.73 526.62 142.32 527.39 144.67 527.79 145.91 528.33 147.13 529 148.26 529.3 148.76 529.63 149.24 529.98 149.7 530.19 149.98 530.44 150.36 530.7 150.62 531.27 151.06 531.41 151.17 531.1 150.93 531.33 151.11 531.56 151.29 531.8 151.47 532.29 151.84 532.99 151.89 533.63 151.72 533.72 151.75 533.81 151.76 533.91 151.75 534.24 151.71 534.58 151.74 534.91 151.68 535.23 151.62 535.53 151.5 535.84 151.38 536.56 151.12 537.24 150.82 537.92 150.46 539.12 149.82 540.31 149.16 541.54 148.57 542.88 147.93 544.41 147.39 544.81 145.78 545.11 144.56 544.57 143.08 544.1 141.95Z" fill="#F3DCC8"/><path d="M534.93 63.01C535.05 61.34 533.73 60.31 532.61 59.32 531.67 58.49 530.71 57.67 529.74 56.89 528.75 56.09 527.74 55.12 526.56 54.61 525.14 53.99 523.51 54 522.22 54.93 519.75 56.71 519.6 59.84 520.48 62.54 521.19 64.72 522.43 66.57 524.07 68.1 524.83 69.01 525.64 69.89 526.43 70.77 527.25 71.68 529.12 71.78 529.93 70.77 530.54 70 531.16 69.23 531.77 68.46 532.15 67.98 532.57 67.51 532.83 66.95 533 66.59 533.09 66.25 533.12 65.91 533.33 65.72 533.55 65.54 533.77 65.34 534.43 64.72 534.86 63.92 534.93 63.01Z" fill="#F3DCC8"/><path d="M563.87 39.32C563.91 37.58 562.99 35.73 560.72 33.76 559.88 33.03 558.98 32.37 558.06 31.74 556.78 30.35 555.28 29.05 553.42 28.54 551.05 27.89 548.54 28.61 547.09 30.62 545.88 32.29 545.75 34.59 546.38 36.51 547.05 38.54 548.24 40.43 549.53 42.12 550.91 43.95 554.33 49.02 557.16 47.28 560.83 45.03 563.81 42.36 563.87 39.32Z" fill="#F3DCC8"/><path d="M590.22 42.07C588.22 38.56 585.01 35.91 581.24 34.5 579.95 34.02 578.54 33.89 577.29 34.58 576.17 35.2 575.49 36.47 575.15 37.66 574.53 39.85 574.99 42.3 576.14 44.24 576.72 45.22 577.46 46.1 578.35 46.81 578.94 47.28 579.55 47.79 580.27 48.04 580.59 48.6 581.09 49.02 581.71 49.28 584.52 50.48 591.93 45.08 590.22 42.07Z" fill="#F3DCC8"/><path d="M617.99 48.8C617.26 47.22 616.14 45.59 614.57 44.75 612.74 43.77 610.47 44.04 609.09 45.66 607.77 47.21 607.56 49.16 607.8 51.12 607.91 51.99 608.01 52.86 608.34 53.68 608.63 54.4 608.95 54.9 609.59 55.37 609.71 55.46 609.82 55.54 609.95 55.61 610.03 55.65 610.16 55.71 610.29 55.75 610.3 55.8 610.3 55.85 610.31 55.9 610.53 57.31 612.42 57.86 613.52 57.21 613.82 57.03 614.14 56.86 614.47 56.72 614.58 56.68 614.76 56.62 614.81 56.6 614.98 56.54 615.15 56.5 615.33 56.45 615.5 56.41 615.67 56.38 615.85 56.34 615.92 56.33 615.99 56.33 616.06 56.32 616.47 56.29 616.88 56.3 617.29 56.34 618.36 56.43 619.44 55.31 619.37 54.26 619.22 52.33 618.8 50.55 617.99 48.8Z" fill="#F3DCC8"/><path d="M588.31 137.27C588.28 137.04 588.27 136.78 588.19 136.56 588.1 136.34 588.01 136.11 587.9 135.9 587.8 135.7 587.69 135.51 587.56 135.33 587.34 135.01 587.03 134.7 586.63 134.61 586.28 134.53 585.94 134.55 585.61 134.69 584.89 134.99 584.51 135.77 584.71 136.53 584.73 136.62 584.75 136.72 584.76 136.81 584.76 136.87 584.77 136.93 584.77 136.99 584.77 137.14 584.79 137.3 584.82 137.45 584.84 137.64 584.86 137.83 584.85 138.03 584.85 138.24 584.85 138.44 584.86 138.64 584.87 139.01 584.91 139.34 585.1 139.66 585.46 140.27 586.19 140.58 586.87 140.4 587.28 140.29 587.7 139.99 587.9 139.6 588.01 139.39 588.1 139.16 588.18 138.95 588.31 138.63 588.33 138.26 588.34 137.91 588.35 137.7 588.34 137.48 588.31 137.27Z" fill="#DC9570"/><path d="M612.16 132.58 612.21 132.64C612.18 132.44 612.09 132.26 611.97 132.09 611.97 132.09 611.97 132.09 611.97 132.09 611.92 131.92 611.86 131.74 611.76 131.56 611.68 131.42 611.6 131.27 611.53 131.12 611.34 130.73 611.17 130.32 610.94 129.95 610.65 129.49 610.37 129.05 610.01 128.64 609.72 128.31 609.41 127.87 609.01 127.64L608.89 127.53C608.53 127.2 608.03 127.09 607.57 127.28 607.16 127.45 606.79 127.91 606.83 128.38 606.84 128.52 606.85 128.66 606.86 128.8 606.84 129.11 606.89 129.42 606.95 129.75 607 130.02 607.04 130.3 607.1 130.56 607.25 131.22 607.55 131.88 607.84 132.48 608.18 133.18 608.44 133.87 609.15 134.31 609.42 134.48 609.72 134.61 610.03 134.67 610.52 134.76 610.98 134.76 611.43 134.5 611.71 134.33 611.9 134.13 612.07 133.86 612.29 133.49 612.3 133.01 612.16 132.58Z" fill="#DC9570"/><path d="M636.24 135.68C636.09 134.93 635.83 134.13 635.43 133.49 635.04 132.88 634.65 132.15 634.01 131.76 633.98 131.73 633.94 131.7 633.91 131.67 633.69 131.49 633.49 131.41 633.25 131.36 633.22 131.31 633.19 131.26 633.16 131.21 632.86 130.67 632.07 131.05 632.2 131.62 632.2 131.63 632.21 131.69 632.22 131.74 632.11 131.87 632.01 132.02 631.96 132.19 631.95 132.23 631.9 132.42 631.92 132.45 632.03 132.21 632.03 132.2 631.93 132.44 631.84 132.62 631.8 132.8 631.8 133.01 631.79 133.11 631.79 133.21 631.79 133.32 631.78 133.84 631.91 134.38 631.98 134.89 631.99 134.98 632.01 135.07 632.02 135.16 632.06 135.41 632.15 135.62 632.25 135.85 632.34 136.05 632.43 136.24 632.52 136.44 632.61 136.64 632.69 136.84 632.79 137.03 633.05 137.52 633.47 137.82 633.96 137.95 634.34 138.15 634.77 138.2 635.2 138.02 635.56 137.87 635.79 137.61 635.93 137.3 636.02 137.18 636.11 137.04 636.15 136.89 636.31 136.49 636.32 136.11 636.24 135.68Z" fill="#DC9570"/><path d="M606.48 261.87C606.24 261.48 605.87 261.36 605.49 261.16 605.4 261.11 605.21 260.95 605.1 260.92 604.98 260.81 604.84 260.7 604.71 260.61 604.16 260.27 603.57 260.02 603.01 259.69 602.74 259.53 602.49 259.32 602.22 259.16 601.94 258.99 601.66 258.82 601.39 258.63 601.39 258.63 601.39 258.63 601.39 258.63 601.35 258.59 601.3 258.56 601.26 258.52 601.13 258.41 601 258.29 600.86 258.2 600.77 258.15 600.67 258.12 600.57 258.08 600.48 258 600.33 257.94 600.24 257.88 599.95 257.69 599.68 257.64 599.38 257.66 599.22 257.5 599 257.42 598.78 257.52 598.54 257.62 598.37 257.9 598.46 258.17 598.47 258.18 598.47 258.2 598.48 258.21 598.27 258.56 598.22 258.91 598.33 259.35 598.35 259.43 598.37 259.5 598.39 259.57 598.4 259.61 598.42 259.66 598.43 259.7 598.45 259.79 598.46 259.77 598.45 259.66 598.46 259.75 598.47 259.83 598.48 259.92 598.49 260.02 598.52 260.11 598.58 260.2 598.64 260.35 598.69 260.43 598.77 260.55 598.93 260.78 599.1 260.99 599.26 261.21 599.79 261.89 600.4 262.42 601.15 262.84 601.56 263.07 602 263.26 602.44 263.44 602.87 263.61 603.35 263.67 603.81 263.7 604 263.71 604.2 263.67 604.39 263.64 604.46 263.63 604.65 263.59 604.55 263.6 604.73 263.58 604.9 263.56 605.08 263.53 605.5 263.46 606.03 263.39 606.31 263.05 606.6 262.73 606.73 262.27 606.48 261.87Z" fill="#DC9570"/></g></svg>