<svg width="239.5" height="109.15" viewBox="0 0 239.5 109.15" xmlns="http://www.w3.org/2000/svg" xmlns:xlink="http://www.w3.org/1999/xlink" xml:space="preserve" overflow="hidden"><defs></defs><g><path d="M157.01 109.15 149.44 65.08 140.83 11.36 140.48 0 56.81 0.69 5.74 1.03 2.07 6.54 3.1 85.05 0 109.15Z" fill="#C48657"/><path d="M237.43 48.09 215.63 44.65 214.02 42.81 191.98 40.29 191.98 38.91 168.34 33.86 163.52 40.74 218.61 56.35 235.6 56.35 239.27 51.99Z" fill="#6D3629"/><path d="M231.69 71.27 230.32 51.3 167.65 38.45 174.54 109.15 239.5 109.15Z" fill="#B77D4E"/><path d="M184.02 70.97 182.03 66.22 188 66.84 187.39 59.8 182.03 60.26 181.12 54.9 187.85 54.75 189.99 57.2 196.88 57.96 196.57 53.06 201.62 52.91 201.47 47.25 196.11 47.86 195.83 44.23 167.65 38.45 170.06 63.24 176.68 71.27Z" fill="#AF7346"/><path d="M231.69 71.27 230.9 59.75 217.69 59.57 191.98 61.17 192.38 109.15 239.5 109.15Z" fill="#D3905E"/><path d="M231.69 71.27 231.51 68.67 227.03 69.44 227.79 74.03 221.67 73.42 221.52 78.31 225.34 79.23 226.87 83.36 216.93 83.98 216.01 80 208.51 79.84 208.97 84.74 204.07 84.89 204.99 88.41 213.56 87.8 214.17 91.17 223.05 90.56 223.35 87.19 227.64 86.88 228.86 91.17 226.11 91.02 226.11 93.16 217.84 93.16 219.22 98.21 228.4 97.6 229.02 101.12 233.45 100.5 233.76 105.25 238.74 105.46Z" fill="#CC8554"/><path d="M184.64 109.15 177.06 65.08 168.45 11.36 168.11 0 84.44 0.69 33.36 1.03 29.69 6.54 30.72 85.05 27.63 109.15Z" fill="#D39663"/><path d="M63.44 29.73 69.86 30.19 73.99 37.3 89.6 35.47 90.29 40.97 85.01 41.89 84.32 47.4 122.89 48.09 121.28 38.68 130.69 39.83 131.38 45.34 137.58 45.79 135.97 35.01 130.92 34.55 130.92 29.73 144.24 31.33 145.15 39.37 142.17 40.52 142.86 45.79 152.73 45.34 152.96 49.01 146.3 50.16 146.76 56.35 159.16 56.81 160.3 62.32 169.49 63.24 170.4 70.13 154.34 68.52 152.04 63.93 140.79 64.85 140.79 70.36 126.56 72.19 127.94 78.85 143.32 77.24 144.92 82.98 160.3 83.9 162.14 89.64 169.95 90.1 170.17 85.05 176.14 85.05 177.75 93.54 181.98 93.69 177.06 65.08 168.45 11.36 168.11 0 84.44 0.69 77.54 0.74 79.96 10.44 90.98 9.76 93.51 15.72 76.29 15.04 79.27 22.84 69.17 22.38 67.57 19.17 55.4 20.54 57.01 25.82 44.61 26.05 44.61 32.71 62.98 32.48Z" fill="#E2A06F"/><path d="M200.93 81.6C201.62 81.6 211.49 81.6 212.41 80.91 213.33 80.22 207.13 61.4 203.23 62.09 199.33 62.78 200.93 81.6 200.93 81.6Z" fill="#7F4F2E"/><path d="M201.78 80.77C202.22 80.77 208.46 80.77 209.04 80.22 209.62 79.67 205.7 64.51 203.23 65.07 200.76 65.62 201.78 80.77 201.78 80.77Z" fill="#4C2C23"/><path d="M147.68 72.88C148.31 75.48 159.62 74.72 160.08 73.11 160.54 71.5 155.72 51.53 151.59 53.14 147.45 54.75 145.84 65.31 147.68 72.88Z" fill="#7F4F2E"/><path d="M148.86 72.14C149.26 74.05 156.47 73.49 156.76 72.31 157.05 71.13 153.98 56.51 151.35 57.68 148.72 58.86 147.69 66.59 148.86 72.14Z" fill="#4C2C23"/><path d="M91.38 109.15 138.72 109.15C138.72 109.15 132.06 47.3 123.43 43.32 114.8 39.34 90.39 41.68 89.15 47.07 87.93 52.45 91.38 109.15 91.38 109.15Z" fill="#7F4F2E"/><path d="M93.6 109.15 137 109.15C137 109.15 130.9 48.55 122.98 44.65 115.07 40.75 92.69 43.04 91.56 48.32 90.44 53.6 93.6 109.15 93.6 109.15Z" fill="#4C2C23"/><path d="M95.27 109.15 131.38 109.15C131.38 109.15 126.3 50.75 119.72 46.99 113.14 43.23 94.52 45.44 93.58 50.53 92.64 55.62 95.27 109.15 95.27 109.15Z" fill="#93603B"/><path d="M30.72 85.05 27.62 109.15 52.52 109.15 50.69 106.05 44.49 103.64 42.42 100.2 41.39 91.94 45.18 89.87 41.05 89.53 39.33 82.3C39.33 82.3 34.85 80.92 33.48 79.2L32.45 72.31 30.13 69.99 30.72 85.05Z" fill="#E2AF7D"/><path d="M107.28 20.54 147.45 21.92 170.31 22.95 168.45 11.36 168.43 10.86C162.46 12.56 154.79 14.34 154.79 14.34L100.39 14.57 74.45 13.88 45.07 16.18C45.07 16.18 73.07 15.95 73.76 15.72 74.45 15.49 107.28 20.54 107.28 20.54Z" fill="#C48758"/><g><path d="M37.73 83.82 30.67 83.62 30.72 85.05 29.98 90.8 38.64 90.25Z" fill="#D39663"/><path d="M32.06 99.89 40.74 99.38 39.95 93.02 33.29 92.85Z" fill="#D39663"/><path d="M35.12 106.01 35.03 109.15 46.56 109.15 47.05 106.32Z" fill="#D39663"/></g><path d="M97.55 59.1C98.49 54.03 116.98 51.82 123.62 55.52 122.41 50.97 121.09 47.78 119.71 46.99 113.13 43.23 94.51 45.44 93.57 50.53 92.63 55.62 95.26 109.15 95.26 109.15L98.84 109.15C98.15 93.81 96.85 62.91 97.55 59.1Z" fill="#7F4F2E"/><g><path d="M106.28 89.64C106.28 89.64 107.35 101.63 107.54 109.15L108.23 109.15 106.28 89.64Z" fill="#7F4F2E"/><path d="M101.23 77.09C101.23 77.09 100.22 57.98 99.97 46.33 99.35 46.5 98.75 46.68 98.19 46.88L101.23 77.09Z" fill="#7F4F2E"/><path d="M125.83 109.15 127.66 109.15C123.67 91.63 119.15 50.31 119.15 50.31 119.15 50.31 122.61 84.76 125.83 109.15Z" fill="#7F4F2E"/><path d="M106.91 45.21C108.21 57.25 110.41 77.52 110.41 77.09 110.41 76.66 108.67 57.27 108.17 45.14 107.76 45.16 107.33 45.18 106.91 45.21Z" fill="#7F4F2E"/><path d="M115.01 69.44C115.01 69.44 116.68 96.57 116.87 109.15L118.28 109.15C117.43 96.13 116.02 75.82 115.01 69.44Z" fill="#7F4F2E"/></g><path d="M93.62 60.5C93.62 60.5 90.83 60.02 90.81 60.36 90.79 60.7 91.45 67.4 91.45 67.4L94.85 67.11 93.62 60.5Z" fill="#7F4F2E"/><path d="M94.89 96.46C94.89 96.46 92.19 96.02 92.17 96.33 92.16 96.63 92.82 102.53 92.82 102.53L96.1 102.29 94.89 96.46Z" fill="#7F4F2E"/><path d="M147.68 102.03C146.99 101.11 146.53 94.46 146.53 94.46L158.01 95.61 159.16 102.5 147.68 102.03Z" fill="#E2A06F"/><path d="M208.07 103.83C207.63 103.3 207.62 99.13 207.62 99.13L215.6 99.03 216.08 103.29 208.07 103.83Z" fill="#CC8554"/><path d="M200.05 95.16 199.86 91.29 194.12 91.48 194.23 95Z" fill="#CC8554"/><path d="M225.36 64.66 225.21 61.62 220.69 61.77 220.78 64.53Z" fill="#CC8554"/><path d="M212.72 57.38 212.52 53.22 206.35 53.43 206.47 57.2Z" fill="#AF7346"/><path d="M189.21 79.2 189 75.04 182.7 75.23 182.83 79.01Z" fill="#AF7346"/><path d="M56.49 82.67C55.84 81.8 55.4 75.18 55.4 75.18L66.25 75.49 67.34 82.29 56.49 82.67Z" fill="#E2A06F"/><path d="M39.93 13.8C39.49 13.06 39.98 7.46 39.98 7.46L49.17 7.73 49.21 13.49 39.93 13.8Z" fill="#E2A06F"/><path d="M69.67 72.34C69.24 71.68 69.44 66.68 69.44 66.68L77.83 66.92 78.12 72.06 69.67 72.34Z" fill="#E2A06F"/><path d="M51.73 101.57C51.35 101 51.53 96.63 51.53 96.63L58.86 96.84 59.11 101.33 51.73 101.57Z" fill="#E2A06F"/><path d="M30.4 60.32 41.17 59.11 40.48 53.37 47.37 53.6 48.06 60.26 56.78 60.49 56.09 53.37 63.89 53.37 63.66 48.32 68.49 48.55 68.49 43.27 59.07 42.81 59.76 49.01 52.65 50.84 48.97 44.88 41.63 45.57 41.17 40.52 30.13 39.78Z" fill="#E2A06F"/><path d="M105.59 59.76 113.54 59.49C114.23 59.47 114.77 58.81 114.68 58.09 114.43 56.02 113.41 52.31 109.41 52.25 105.41 52.19 104.59 56.3 104.43 58.48 104.38 59.19 104.91 59.79 105.59 59.76Z" fill="#724526"/><path d="M105.84 58.88 111.68 58.68C112.19 58.66 112.58 58.18 112.51 57.65 112.32 56.13 111.58 53.41 108.64 53.36 105.71 53.31 105.1 56.33 104.99 57.93 104.95 58.46 105.35 58.89 105.84 58.88Z" fill="#4C2C23"/><path d="M129.54 17.71 169.68 19.04 169.24 16.28 158.93 16.95Z" fill="#7F4F2E"/><path d="M87.16 109.15 145.31 109.15 143.16 104.1 88.07 104.87Z" fill="#EAC19B"/><path d="M178.97 39.9 179.43 46.18 181.88 46.94 182.19 39.44Z" fill="#6D3629"/><path d="M199.48 43.99 199.96 49.15 202.49 49.64 202.81 43.42Z" fill="#6D3629"/><path d="M219.68 47.54 220.25 52.71 222.87 53.16 223.3 47.94Z" fill="#6D3629"/><path d="M147.76 66.76C150.59 66.68 157.17 66.61 157.17 66.61L156.71 65.77 147.6 65.62 147.76 66.76Z" fill="#7F4F2E"/><path d="M152.27 56.2 150.97 56.89C151.96 60.72 152.88 73.88 152.88 73.88L154.33 74.03C154.34 74.03 151.43 59.19 152.27 56.2Z" fill="#7F4F2E"/><path d="M208.12 72.08C205.93 72.22 200.85 72.46 200.85 72.46L201.2 73.29 208.23 73.22 208.12 72.08Z" fill="#7F4F2E"/><path d="M204.45 81.22 205.92 80.98C204.97 76.89 204.49 63.67 204.49 63.67L202.89 63.03C202.89 63.03 205.5 78.57 204.45 81.22Z" fill="#7F4F2E"/><g><path d="M212.3 44.42 214.02 42.81 191.98 40.29 194.16 42.24Z" fill="#893D2E"/><path d="M239.27 51.99 237.43 48.09 216.85 44.84 216.89 46.6 239.27 52Z" fill="#893D2E"/><path d="M175.11 37.19 189.23 40.63 191.98 38.91 174.24 35.12Z" fill="#893D2E"/></g></g></svg>