<svg width="113.19" height="113.19" viewBox="0 0 113.19 113.19" xmlns="http://www.w3.org/2000/svg" xmlns:xlink="http://www.w3.org/1999/xlink" xml:space="preserve" overflow="hidden"><defs></defs><g><rect x="0.5" y="0.5" width="112.19" height="112.19" stroke="#0A0A0A" stroke-miterlimit="10" fill="#FFFFFF"/><path d="M0.5 56.59 112.69 56.59C112.69 56.59 58.49 39.63 0.5 56.59Z" fill="#DBDBDB"/><g opacity="0.6"><g><line x1="0.5" y1="56.59" x2="2" y2="56.59" stroke="#666666" stroke-width="0.5" stroke-linecap="round" stroke-linejoin="round" fill="none"/><line x1="4.04" y1="56.59" x2="110.17" y2="56.59" stroke="#666666" stroke-width="0.5" stroke-linecap="round" stroke-linejoin="round" stroke-dasharray="3.0613 2.0409" fill="none"/><line x1="111.19" y1="56.59" x2="112.69" y2="56.59" stroke="#666666" stroke-width="0.5" stroke-linecap="round" stroke-linejoin="round" fill="none"/></g></g><g><path d="M67.68 102.69C67.68 102.69 79.71 56.6 67.68 8.82" stroke="#233A3F" stroke-linecap="round" stroke-linejoin="round" stroke-miterlimit="10" fill="none"/><path d="M66.01 10.9 67.51 8.32 70.09 9.81" stroke="#233A3F" stroke-linecap="round" stroke-linejoin="round" stroke-miterlimit="10" fill="none"/></g><g opacity="0.6"><g><line x1="56.59" y1="0.5" x2="56.59" y2="2" stroke="#666666" stroke-width="0.5" stroke-linecap="round" stroke-linejoin="round" fill="none"/><line x1="56.59" y1="4.04" x2="56.59" y2="110.17" stroke="#666666" stroke-width="0.5" stroke-linecap="round" stroke-linejoin="round" stroke-dasharray="3.0613 2.0409" fill="none"/><line x1="56.59" y1="111.19" x2="56.59" y2="112.69" stroke="#666666" stroke-width="0.5" stroke-linecap="round" stroke-linejoin="round" fill="none"/></g></g><g opacity="0.6"><g><line x1="0.5" y1="0.5" x2="1.56" y2="1.56" stroke="#666666" stroke-width="0.5" stroke-linecap="round" stroke-linejoin="round" fill="none"/><line x1="2.96" y1="2.96" x2="110.93" y2="110.93" stroke="#666666" stroke-width="0.5" stroke-linecap="round" stroke-linejoin="round" stroke-dasharray="2.9743 1.9829" fill="none"/><line x1="111.63" y1="111.63" x2="112.69" y2="112.69" stroke="#666666" stroke-width="0.5" stroke-linecap="round" stroke-linejoin="round" fill="none"/></g></g><g opacity="0.6"><g><line x1="0.5" y1="112.69" x2="1.56" y2="111.63" stroke="#666666" stroke-width="0.5" stroke-linecap="round" stroke-linejoin="round" fill="none"/><line x1="2.96" y1="110.22" x2="110.93" y2="2.26" stroke="#666666" stroke-width="0.5" stroke-linecap="round" stroke-linejoin="round" stroke-dasharray="2.9743 1.9829" fill="none"/><line x1="111.63" y1="1.56" x2="112.69" y2="0.5" stroke="#666666" stroke-width="0.5" stroke-linecap="round" stroke-linejoin="round" fill="none"/></g></g><g><line x1="0.5" y1="56.38" x2="30.1" y2="56.64" stroke="#233A3F" stroke-linecap="round" stroke-linejoin="round" stroke-miterlimit="10" fill="none"/><path d="M28.97 54.49 31.24 56.42 29.31 58.7" stroke="#233A3F" stroke-linecap="round" stroke-linejoin="round" stroke-miterlimit="10" fill="none"/></g><g><line x1="112.69" y1="56.59" x2="83.09" y2="56.33" stroke="#233A3F" stroke-linecap="round" stroke-linejoin="round" stroke-miterlimit="10" fill="none"/><path d="M84.22 58.49 81.94 56.55 83.88 54.28" stroke="#233A3F" stroke-linecap="round" stroke-linejoin="round" stroke-miterlimit="10" fill="none"/></g></g></svg>