<svg width="187.66" height="405.27" viewBox="0 0 187.66 405.27" xmlns="http://www.w3.org/2000/svg" xmlns:xlink="http://www.w3.org/1999/xlink" xml:space="preserve" overflow="hidden"><defs></defs><g><g><g><g><g><path d="M99.7 369.41 99.38 387.65C99.38 387.65 95.13 399.34 96.87 402.13 96.87 402.13 109.08 403.87 120.25 403.87 131.42 403.87 149.92 406.66 150.96 401.08 152.01 395.5 140.18 389.34 124.78 390.96 124.78 390.96 116.4 390.96 116.06 389.21 115.71 387.46 116.41 370.36 116.41 370.36L99.7 369.41Z" fill="#F9B799"/><path d="M99.7 369.41 99.38 387.65C99.38 387.65 95.13 399.34 96.87 402.13 96.87 402.13 109.08 403.87 120.25 403.87 131.42 403.87 149.92 406.66 150.96 401.08 152.01 395.5 140.18 389.34 124.78 390.96 124.78 390.96 116.4 390.96 116.06 389.21 115.71 387.46 116.41 370.36 116.41 370.36L99.7 369.41Z" fill="#FFBDC0" opacity="0.5"/><path d="M116.07 389.21C115.85 388.09 116.05 380.7 116.23 375.51 108.56 376.91 102.5 375.19 99.62 374.06L99.38 387.64C99.38 387.64 98.98 388.75 98.47 390.36 101.91 390.37 117.1 390.84 117.71 390.24L117.71 390.24C116.81 390.01 116.16 389.67 116.07 389.21Z" fill="#FFFFFF"/><path d="M109.56 382.67C103.76 383.2 102.64 377.69 104.13 375.39 102.23 375 100.69 374.49 99.61 374.07L99.39 386.47C104.88 387.56 112.74 389.1 116.53 389.78 116.27 389.61 116.1 389.43 116.05 389.21 115.89 388.44 115.95 384.69 116.05 380.74 114.43 381.62 112.28 382.42 109.56 382.67Z" fill="#7C9E38" opacity="0.2"/></g><g opacity="0.2"><path d="M134.64 392.39C134.61 392.81 133.93 393.11 133.12 393.05 132.31 393 131.68 392.61 131.71 392.19 131.74 391.77 132.42 391.47 133.23 391.53 134.03 391.59 134.66 391.97 134.64 392.39Z" fill="#7C9E38"/><path d="M140.76 393.54C140.63 394.19 139.49 394.51 138.23 394.25 136.96 393.99 136.04 393.26 136.18 392.61 136.31 391.96 137.44 391.65 138.71 391.9 139.97 392.16 140.89 392.9 140.76 393.54Z" fill="#7C9E38"/></g></g><path d="M150.97 401.08C152.02 395.5 142.03 388.17 124.79 390.96 124.79 390.96 116.41 390.96 116.07 389.21 115.99 388.83 116.11 385.75 116.11 384.24 109.55 385.92 103.08 385.32 99.46 383.33L99.38 387.65C99.38 387.65 95.13 399.34 96.87 402.13 96.87 402.13 109.08 403.87 120.25 403.87 131.42 403.87 149.92 406.66 150.97 401.08Z" fill="#423F3F"/><path d="M150.97 401.08C151.41 398.73 149.89 396.07 146.7 393.99 144.66 396.05 140.1 397.34 131.93 397.75 119.26 398.39 104.03 397.43 101.3 394.38 100.02 392.95 99.52 390.23 99.35 387.73 99 388.7 95.2 399.47 96.87 402.13 96.87 402.13 109.08 403.87 120.25 403.87 131.42 403.87 149.92 406.66 150.97 401.08Z" fill="#B91318" opacity="0.4"/><path d="M150.03 397.16C147.47 393.21 140.13 389.7 129.24 390.44 123.97 395.04 122 400.46 122 400.46 126.37 402.72 140.07 402.12 150.93 401.2 150.94 401.15 150.96 401.11 150.97 401.07 151.18 399.97 150.83 398.59 150.03 397.16Z" fill="#FFFFFF"/><path d="M118.25 390.39C119.11 390.58 120.13 390.7 121.1 390.79 118.91 392.39 116.01 394.37 114.93 393.79 113.72 393.14 116.53 391.36 118.25 390.39ZM121.48 390.82C119.87 391.96 117.81 393.65 118.95 394.14 120 394.6 122.47 392.66 124.47 390.95 123.95 390.95 122.79 390.92 121.48 390.82ZM111.53 393.27C112.61 393.85 115.52 391.86 117.71 390.26 116.81 390.01 116.16 389.68 116.07 389.22 116.07 389.21 109.83 392.35 111.53 393.27Z" fill="#FFFFFF"/><path d="M150.07 397.25C149.96 397.07 149.83 396.89 149.7 396.71 149.64 396.63 149.59 396.56 149.53 396.48 149.31 396.2 149.06 395.93 148.8 395.66 148.76 395.62 148.7 395.57 148.66 395.53 148.42 395.3 148.18 395.08 147.91 394.86 147.82 394.79 147.73 394.72 147.64 394.65 147.39 394.46 147.14 394.27 146.87 394.09 146.81 394.05 146.76 394.02 146.7 393.98 144.65 396.04 140.1 397.32 131.94 397.73 129.11 397.87 126.15 397.94 123.23 397.91 122.38 399.43 122.01 400.45 122.01 400.45 126.38 402.71 140.08 402.11 150.94 401.19 150.95 401.14 150.97 401.1 150.98 401.06 151.17 399.99 150.83 398.64 150.07 397.25Z" fill="#7C9E38" opacity="0.2"/><path d="M122 400.47C107.11 399.69 99.55 398.17 96.69 397.46 96.37 399.47 96.32 401.25 96.87 402.13 96.87 402.13 109.08 403.87 120.25 403.87 131.42 403.87 149.92 406.66 150.96 401.08 151.12 400.25 150.96 399.28 150.54 398.24 144.95 400.01 135.21 401.16 122 400.47Z" fill="#FFFFFF"/><path d="M96.69 398.63C99.55 399.34 107.11 400.86 122 401.64 135.21 402.34 144.95 401.18 150.55 399.41 150.77 399.95 150.91 400.47 150.98 400.97 151.11 400.16 150.95 399.23 150.55 398.23 144.96 400 135.21 401.15 122 400.46 107.11 399.68 99.55 398.16 96.69 397.45 96.5 398.61 96.41 399.69 96.47 400.57 96.51 399.97 96.58 399.31 96.69 398.63Z" fill="#7C9E38" opacity="0.4"/></g><g><g><g><path d="M50.48 370.11 50.16 388.35C50.16 388.35 45.91 400.04 47.65 402.83 47.65 402.83 59.87 404.58 71.04 404.58 82.21 404.58 100.71 407.37 101.75 401.79 102.8 396.21 90.97 390.05 75.57 391.67 75.57 391.67 67.19 391.67 66.84 389.92 66.49 388.17 67.19 371.07 67.19 371.07L50.48 370.11Z" fill="#F9B799"/><path d="M50.48 370.11 50.16 388.35C50.16 388.35 45.91 400.04 47.65 402.83 47.65 402.83 59.87 404.58 71.04 404.58 82.21 404.58 100.71 407.37 101.75 401.79 102.8 396.21 90.97 390.05 75.57 391.67 75.57 391.67 67.19 391.67 66.84 389.92 66.49 388.17 67.19 371.07 67.19 371.07L50.48 370.11Z" fill="#FFBDC0" opacity="0.5"/><path d="M66.85 389.91C66.63 388.79 66.83 381.4 67.01 376.21 59.33 377.61 53.28 375.89 50.4 374.76L50.16 388.34C50.16 388.34 49.76 389.45 49.25 391.06 52.69 391.07 67.88 391.54 68.49 390.94L68.49 390.94C67.59 390.7 66.94 390.37 66.85 389.91Z" fill="#FFFFFF"/><path d="M60.35 383.36C54.54 383.89 53.42 378.38 54.92 376.09 53.02 375.7 51.48 375.19 50.4 374.76L50.18 387.16C55.67 388.25 63.53 389.79 67.32 390.47 67.06 390.3 66.89 390.12 66.84 389.9 66.69 389.13 66.74 385.38 66.84 381.43 65.22 382.31 63.06 383.12 60.35 383.36Z" fill="#7C9E38" opacity="0.2"/></g><g opacity="0.2"><path d="M85.43 393.09C85.4 393.51 84.72 393.81 83.91 393.75 83.1 393.7 82.47 393.31 82.5 392.89 82.53 392.47 83.21 392.17 84.02 392.23 84.82 392.28 85.45 392.67 85.43 393.09Z" fill="#7C9E38"/><path d="M91.55 394.24C91.42 394.89 90.28 395.21 89.02 394.95 87.75 394.7 86.83 393.96 86.97 393.31 87.1 392.66 88.23 392.35 89.5 392.6 90.75 392.86 91.68 393.59 91.55 394.24Z" fill="#7C9E38"/></g></g><path d="M101.76 401.78C102.81 396.2 92.82 388.86 75.58 391.66 75.58 391.66 67.2 391.66 66.85 389.91 66.77 389.53 66.89 386.45 66.89 384.94 60.33 386.62 53.86 386.02 50.24 384.03L50.16 388.35C50.16 388.35 45.91 400.04 47.65 402.83 47.65 402.83 59.87 404.58 71.04 404.58 82.21 404.57 100.71 407.36 101.76 401.78Z" fill="#423F3F"/><path d="M101.76 401.78C102.2 399.43 100.68 396.77 97.49 394.69 95.45 396.75 90.89 398.04 82.72 398.45 70.05 399.09 54.82 398.13 52.09 395.08 50.81 393.65 50.31 390.93 50.14 388.43 49.79 389.4 45.99 400.17 47.66 402.83 47.66 402.83 59.88 404.58 71.05 404.58 82.21 404.57 100.71 407.36 101.76 401.78Z" fill="#B91318" opacity="0.4"/><path d="M100.81 397.86C98.25 393.91 90.92 390.4 80.03 391.14 74.76 395.74 72.79 401.16 72.79 401.16 77.15 403.42 90.85 402.82 101.72 401.9 101.73 401.86 101.75 401.81 101.76 401.77 101.96 400.66 101.61 399.29 100.81 397.86Z" fill="#FFFFFF"/><path d="M69.04 391.09C69.9 391.28 70.92 391.4 71.89 391.49 69.7 393.1 66.8 395.07 65.72 394.49 64.51 393.84 67.32 392.06 69.04 391.09ZM72.27 391.52C70.66 392.66 68.6 394.35 69.74 394.84 70.79 395.3 73.26 393.36 75.26 391.65 74.73 391.64 73.57 391.62 72.27 391.52ZM62.31 393.97C63.39 394.55 66.3 392.56 68.49 390.96 67.59 390.71 66.94 390.38 66.85 389.92 66.85 389.91 60.61 393.05 62.31 393.97Z" fill="#FFFFFF"/><path d="M100.85 397.94C100.74 397.76 100.61 397.58 100.48 397.4 100.42 397.32 100.37 397.25 100.31 397.17 100.09 396.9 99.84 396.62 99.57 396.35 99.53 396.31 99.48 396.27 99.43 396.22 99.19 395.99 98.95 395.77 98.68 395.55 98.59 395.48 98.5 395.41 98.41 395.34 98.16 395.15 97.91 394.96 97.64 394.78 97.58 394.74 97.53 394.71 97.47 394.67 95.43 396.73 90.87 398.01 82.71 398.42 79.88 398.56 76.92 398.63 74 398.6 73.15 400.12 72.78 401.14 72.78 401.14 77.14 403.4 90.84 402.8 101.71 401.88 101.72 401.84 101.74 401.79 101.75 401.75 101.96 400.69 101.62 399.34 100.85 397.94Z" fill="#7C9E38" opacity="0.2"/><path d="M72.79 401.16C57.9 400.38 50.34 398.86 47.48 398.15 47.16 400.16 47.1 401.94 47.66 402.82 47.66 402.82 59.88 404.57 71.05 404.57 82.22 404.57 100.72 407.36 101.76 401.78 101.92 400.95 101.76 399.97 101.34 398.94 95.74 400.71 86 401.86 72.79 401.16Z" fill="#FFFFFF"/><path d="M47.48 399.33C50.34 400.04 57.9 401.56 72.79 402.34 86 403.04 95.74 401.88 101.34 400.11 101.56 400.65 101.7 401.17 101.77 401.67 101.9 400.86 101.74 399.93 101.34 398.93 95.74 400.7 86 401.85 72.79 401.16 57.9 400.38 50.34 398.86 47.48 398.15 47.29 399.31 47.2 400.39 47.26 401.27 47.29 400.66 47.37 400.01 47.48 399.33Z" fill="#7C9E38" opacity="0.4"/></g><g><g><g><g><path d="M121.41 216.05C116.8 217.19 112.12 217.86 107.39 218.17 92.64 221.19 77.46 220.2 62.52 216.96 60.78 216.8 59.04 216.66 57.29 216.59 56.32 223.32 55.33 230.17 54.77 233.55 53.52 241.11 51.76 287.88 50.12 298.81 48 312.96 46.38 370.04 49.3 376.19 52.22 382.34 65.56 381.99 72.92 378.68 80.28 375.37 76.74 350.1 76.78 346.5 76.82 342.9 76.36 316.37 76.84 312.18 77.32 308 81.75 307.12 81.08 298.87 80.4 290.62 81.36 273.12 82.46 267.22 83.56 261.32 91.28 255.78 93.51 257.83 95.74 259.88 100.1 302.17 100.63 312.1 101.23 323.56 90.97 354.7 92.92 371.21 93.91 379.62 101.82 381.75 109.98 381.88 115.17 381.97 117.76 378.47 119.49 372.98 124.86 355.96 126.94 325.24 129.08 315.54 132.08 301.99 121.56 235.84 121.41 216.05Z" fill="#2C82C7"/><g><path d="M76.79 346.13C76.79 346.1 76.79 346.06 76.79 346.03 76.79 345.9 76.79 345.77 76.79 345.61 76.79 345.58 76.79 345.56 76.79 345.53 76.78 340.84 76.54 325.32 76.66 317 76.66 316.95 76.66 316.9 76.66 316.85 76.66 316.84 76.66 316.82 76.66 316.81 76.67 316 76.69 315.27 76.71 314.62 76.71 314.6 76.71 314.57 76.71 314.55 76.71 314.45 76.72 314.35 76.72 314.26 76.73 314.09 76.73 313.93 76.74 313.77 76.74 313.73 76.74 313.69 76.74 313.65 71.24 321.05 76.95 345.61 62.84 339.8 48.73 334 57.7 244.03 57.7 244.03 57.7 244.03 66.01 240.8 70.62 236.38 75.23 231.97 74.55 222.05 74.55 222.05 74.55 222.05 82.94 222.97 95.31 223.01 103.59 223.03 114.7 219.84 121.42 217.17 121.42 217.17 121.42 217.17 121.42 217.17 121.41 216.78 121.4 216.41 121.4 216.05 116.79 217.19 112.11 217.86 107.38 218.17 92.63 221.19 77.45 220.2 62.51 216.96 60.77 216.8 59.03 216.66 57.28 216.59 56.31 223.32 55.32 230.17 54.76 233.55 53.51 241.11 51.75 287.88 50.11 298.81 48.03 312.71 46.43 368.04 49.14 375.82 49.19 375.95 49.24 376.09 49.29 376.19 52.21 382.34 65.55 381.99 72.91 378.68 80.27 375.37 76.73 350.1 76.77 346.5 76.78 346.4 76.79 346.27 76.79 346.13Z" fill="#2C82C7" opacity="0.3"/><path d="M129.25 314.71C129.29 314.47 129.32 314.22 129.36 313.96 129.36 313.95 129.36 313.94 129.36 313.93 129.57 312.14 129.65 309.82 129.62 307.1 127.97 312.04 125.03 316.49 123.17 321.58 121.05 327.38 120.7 351.83 110.47 347.68 100.24 343.53 110.12 315.36 109.06 306.66 108 297.96 100.95 265.65 100.24 261.92 99.53 258.19 104.12 257.36 104.12 257.36L98.12 253.63C98.12 253.63 106.94 251.55 102 248.66 97.06 245.76 84.39 261.65 84.39 261.65 84.39 261.65 84.4 262.1 84.41 262.88 84.59 262.62 84.79 262.37 84.99 262.12 85.09 262 85.19 261.88 85.29 261.76 85.42 261.61 85.55 261.46 85.68 261.32 85.79 261.2 85.91 261.08 86.02 260.96 86.16 260.82 86.3 260.68 86.44 260.54 86.56 260.42 86.68 260.31 86.8 260.2 87.02 260 87.23 259.82 87.46 259.64 87.58 259.55 87.69 259.46 87.8 259.37 87.95 259.26 88.1 259.14 88.25 259.04 88.36 258.96 88.48 258.88 88.59 258.8 88.77 258.68 88.94 258.57 89.12 258.47 89.2 258.42 89.28 258.37 89.36 258.33 89.61 258.19 89.85 258.07 90.09 257.96 90.17 257.92 90.26 257.89 90.34 257.85 90.51 257.78 90.68 257.71 90.84 257.66 90.92 257.63 91 257.61 91.08 257.58 91.29 257.52 91.49 257.47 91.68 257.44 91.7 257.44 91.73 257.43 91.75 257.43 91.96 257.4 92.17 257.4 92.36 257.41 92.42 257.41 92.47 257.42 92.52 257.43 92.66 257.45 92.79 257.48 92.91 257.52 92.96 257.54 93.01 257.55 93.06 257.57 93.22 257.64 93.37 257.72 93.49 257.84 95.72 259.89 100.08 302.18 100.61 312.11 100.63 312.41 100.63 312.73 100.63 313.05 100.69 325.18 91 355.14 92.9 371.22 93.89 379.63 101.8 381.76 109.96 381.89 115.15 381.98 117.74 378.48 119.47 372.99 124.84 355.97 126.92 325.25 129.06 315.55 129.11 315.32 129.16 315.07 129.2 314.81 129.24 314.78 129.24 314.75 129.25 314.71Z" fill="#2C82C7" opacity="0.3"/></g><g><path d="M106.31 297.43C106.67 297.35 106.53 294.75 106.53 294.75 106.53 294.75 105.81 292.28 105.45 292.38 105.09 292.47 105.23 295.06 105.23 295.06 105.23 295.06 105.95 297.51 106.31 297.43Z" fill="#0D5382"/><path d="M107.68 307.62C108.04 307.57 108.03 304.95 108.03 304.95 108.03 304.95 107.43 302.44 107.07 302.51 106.71 302.58 106.72 305.17 106.72 305.17 106.72 305.17 107.32 307.67 107.68 307.62Z" fill="#0D5382"/><path d="M106.9 325.66C106.9 325.66 107.29 323.08 106.94 322.97 106.58 322.86 105.64 325.18 105.64 325.18 105.64 325.18 105.26 327.72 105.61 327.87 105.94 328.03 106.9 325.66 106.9 325.66Z" fill="#0D5382"/><path d="M119 233.55C118.36 233.13 117.5 232.57 116.79 231.8 116.09 231.03 115.47 230.14 115.21 229.33 114.91 228.55 114.82 227.95 114.7 227.96 114.64 227.96 114.55 228.59 114.72 229.52 114.85 230.47 115.42 231.6 116.12 232.57 116.83 233.55 117.72 234.27 118.38 234.79 119.06 235.28 119.54 235.57 119.54 235.57 119.54 235.57 121.13 236.37 122.97 236.83 122.93 236.39 122.88 235.96 122.84 235.53 121.32 234.9 120.11 234.16 120.11 234.16 120.11 234.16 119.66 233.93 119 233.55Z" fill="#0D5382"/><path d="M107.8 317.92C108.16 317.99 108.67 315.39 108.67 315.39 108.67 315.39 108.42 312.75 108.05 312.77 107.68 312.79 107.34 315.3 107.34 315.3 107.34 315.3 107.43 317.85 107.8 317.92Z" fill="#0D5382"/><path d="M102.47 274.62C102.47 274.62 101.58 272.24 101.23 272.36 100.88 272.48 101.19 275.05 101.19 275.05 101.19 275.05 102.08 277.43 102.44 277.32 102.79 277.2 102.47 274.62 102.47 274.62Z" fill="#0D5382"/><path d="M103.82 335.37C103.82 335.37 104.32 332.83 104 332.68 103.64 332.51 102.58 334.8 102.58 334.8 102.58 334.8 102.07 337.34 102.41 337.49 102.76 337.65 103.82 335.37 103.82 335.37Z" fill="#0D5382"/><path d="M128.87 291.36C128.27 288.32 127.37 285.3 126.66 282.36 126.1 280.03 125.73 278.48 125.64 278.5 125.56 278.52 125.75 280.13 126.16 282.51 126.59 284.87 127.16 288.03 127.74 291.18 128.3 294.33 128.63 297.5 128.8 299.87 128.83 301.07 128.85 302.06 128.86 302.76 128.85 303.44 128.84 303.83 128.84 303.83 128.84 303.83 128.92 305.39 128.45 307.67 128.02 309.96 126.9 312.87 125.69 315.78 124.47 318.67 123.31 321.7 122.93 324.14 122.81 324.74 122.75 325.31 122.72 325.81 122.68 326.31 122.66 326.74 122.69 327.1 122.72 327.82 122.76 328.22 122.81 328.22 122.94 328.22 122.87 326.58 123.43 324.28 123.95 321.96 125.2 319.11 126.52 316.28 128.91 311.19 130.3 305.43 129.67 299.7 129.54 298.53 129.55 297.38 129.49 296.21 129.42 294.58 129.19 292.97 128.87 291.36Z" fill="#0D5382"/><path d="M100.99 342.37C100.64 342.24 99.83 344.74 99.83 344.74 99.83 344.74 99.85 347.45 100.22 347.44 100.59 347.44 101.14 345.02 101.14 345.02 101.13 345.02 101.33 342.51 100.99 342.37Z" fill="#0D5382"/><path d="M115.79 375.59C115.73 375.5 115.23 375.81 114.51 376.23 113.76 376.58 112.75 377 111.7 376.98 110.66 376.96 109.66 376.64 108.95 376.27 108.24 375.88 107.79 375.57 107.79 375.57 107.79 375.57 107.67 375.5 107.47 375.37 107.27 375.24 106.97 375.07 106.64 374.8 105.95 374.33 105.1 373.53 104.26 372.71 102.61 371.03 101.12 369.08 100.98 369.22 100.84 369.35 102.06 371.55 103.61 373.5 104.4 374.46 105.23 375.39 105.95 375.98 106.29 376.29 106.6 376.52 106.82 376.68 107.04 376.84 107.16 376.93 107.16 376.93 107.16 376.93 107.69 377.24 108.53 377.6 109.37 377.95 110.58 378.2 111.77 378.06 112.98 377.93 114.05 377.28 114.77 376.74 115.45 376.14 115.84 375.67 115.79 375.59Z" fill="#0D5382"/><path d="M97.79 257.42C98.15 257.33 98.22 256.04 98.22 256.04 98.22 256.04 98.01 255.57 97.76 255.26 100.29 254.7 102.7 254.67 102.71 254.46 102.73 254.26 99.83 253.87 96.93 254.33 94.03 254.74 91.27 256.02 91.27 256.02 91.27 256.02 90.83 256.26 90.17 256.67 90.69 256.18 93.07 253.98 95.75 252.25 98.76 250.24 102.06 248.87 102 248.66 101.96 248.46 98.52 249.46 95.32 251.27 93.72 252.16 92.17 253.19 91.06 254.05 89.94 254.91 89.23 255.54 89.23 255.54 89.23 255.54 88.54 256.21 87.57 257.28 86.61 258.37 85.39 259.91 84.39 261.65 83.41 263.41 82.6 265.29 82.26 266.81 81.89 268.31 81.83 269.36 81.89 269.37 81.96 269.39 82.07 269.02 82.26 268.43 82.33 267.98 82.39 267.58 82.46 267.21 83.36 262.39 88.68 257.81 91.81 257.42 92.03 257.3 94.42 256.05 97.06 255.41 96.94 255.81 96.91 256.35 96.91 256.35 96.91 256.35 97.43 257.52 97.79 257.42Z" fill="#0D5382"/><path d="M114.58 217.41C113.79 217.53 112.99 217.64 112.2 217.73 110.03 218.62 107.56 219.42 105.07 220.07 103.86 220.37 102.65 220.61 101.45 220.82 101.38 220.62 101.33 220.48 101.3 220.49 101.27 220.49 101.26 220.65 101.27 220.85 98.59 221.31 96.03 221.56 93.96 221.69 90.9 221.82 88.87 221.82 88.87 221.82 88.87 221.82 88.36 221.81 87.47 221.8 86.58 221.77 85.31 221.83 83.78 221.71 80.72 221.59 76.66 221.19 72.61 220.57 68.57 219.9 64.54 219.09 61.54 218.32 59.56 217.84 58.03 217.44 57.2 217.25 57.19 217.32 57.18 217.4 57.16 217.47 57.35 217.54 57.57 217.63 57.83 217.72 58.69 218.02 59.91 218.49 61.41 218.91 64.38 219.86 68.41 220.85 72.46 221.66 73.11 221.78 73.76 221.9 74.41 222 74.35 222.51 74.31 223.65 74.16 225.15 73.97 227.19 73.36 229.85 72.48 232.36 72.26 232.94 72.02 233.5 71.77 234.06 70.92 234.95 69.81 236.05 68.59 237.01 67.96 237.51 67.27 237.93 66.66 238.36 66.06 238.81 65.45 239.15 64.92 239.41 63.88 239.97 63.18 240.35 63.18 240.35 63.18 240.35 60.39 241.81 57.44 242.94 55.91 243.52 54.37 244.08 53.25 244.51 53.22 244.71 53.2 244.91 53.17 245.12 54.35 244.88 56.01 244.47 57.7 244 60.75 243.13 63.7 241.77 63.7 241.77 63.7 241.77 64.4 241.34 65.46 240.69 66 240.38 66.6 239.98 67.21 239.47 67.82 238.97 68.5 238.48 69.13 237.9 69.64 237.37 70.14 236.86 70.62 236.35 70.14 237.24 69.66 238.06 69.2 238.72 68.7 239.54 68.15 240.12 67.83 240.57 67.49 241.01 67.3 241.26 67.3 241.26 67.3 241.26 67.09 241.5 66.73 241.91 66.35 242.3 65.89 242.97 65.2 243.58 63.9 244.94 61.96 246.43 59.87 247.63 59.1 248.04 58.32 248.38 57.55 248.69 57.5 248.32 57.4 247.87 57.19 247.81 56.84 247.7 56.3 248.84 56.3 248.84 56.3 248.84 56.3 248.97 56.32 249.14 55.41 249.44 54.53 249.68 53.76 249.82 53.32 249.9 52.91 249.95 52.55 250 52.53 250.15 52.51 250.3 52.5 250.46 52.89 250.46 53.33 250.45 53.82 250.42 54.61 250.36 55.53 250.2 56.49 249.96 56.54 250.1 56.62 250.21 56.71 250.23 56.89 250.27 57.12 250.01 57.29 249.74 58.26 249.46 59.26 249.1 60.24 248.64 62.46 247.52 64.56 246.05 65.96 244.69 66.71 244.08 67.22 243.4 67.62 243 68.01 242.58 68.24 242.34 68.24 242.34 68.24 242.34 68.44 242.07 68.78 241.6 69.11 241.11 69.65 240.48 70.16 239.59 71.25 237.88 72.45 235.4 73.33 232.76 73.34 232.72 73.35 232.69 73.36 232.66 73.41 232.56 73.43 232.49 73.41 232.47L73.41 232.47C74.16 229.88 74.61 227.22 74.66 225.18 74.7 223.66 74.62 222.53 74.55 222.01 77.89 222.57 81.14 222.95 83.7 223.12 85.24 223.28 86.53 223.24 87.43 223.3 88.33 223.32 88.85 223.34 88.85 223.34 88.85 223.34 90.92 223.3 94.02 223.08 94.42 223.04 94.85 223 95.28 222.96 95.1 223.16 95.42 226.02 95.21 228.88 95.02 230.34 94.91 231.8 94.65 232.86 94.44 233.93 94.3 234.65 94.3 234.65 94.3 234.65 93.75 237.53 92.95 240.37 92.19 243.03 91.36 245.65 91.4 246.04 90.73 246.55 90.31 246.87 90.35 246.95 90.41 247.11 93.69 245.59 96.54 243.06 97.95 241.8 99.27 240.32 100.05 239.01 100.49 238.4 100.74 237.78 100.96 237.4 101.18 237 101.27 236.75 101.27 236.75 101.27 236.75 101.36 236.5 101.51 236.08 101.59 235.86 101.68 235.6 101.79 235.3 101.87 234.99 101.96 234.64 102.05 234.25 102.28 233.5 102.37 232.57 102.53 231.59 102.59 230.61 102.69 229.55 102.63 228.51 102.62 226.42 102.27 224.38 101.99 222.87 101.91 222.53 101.84 222.22 101.77 221.94 102.93 221.7 104.1 221.42 105.26 221.09 108.66 220.14 111.98 218.84 114.58 217.41ZM101.7 228.56C101.7 229.56 101.55 230.54 101.45 231.46 101.26 232.35 101.14 233.2 100.9 233.88 100.79 234.23 100.7 234.54 100.62 234.82 100.51 235.09 100.41 235.32 100.33 235.51 100.18 235.89 100.09 236.11 100.09 236.11 100.09 236.11 100.02 236.34 99.83 236.7 99.63 237.06 99.44 237.64 99.06 238.22 98.4 239.47 97.24 240.93 95.96 242.25 94.43 243.81 92.73 245.1 91.6 245.95 92.01 245.28 92.97 243.1 93.83 240.82 94.86 238.03 95.59 235.07 95.59 235.07 95.59 235.07 95.7 234.31 95.86 233.18 96.07 232.05 96.08 230.5 96.16 228.98 96.14 225.99 95.49 223.14 95.33 223.01 97.15 222.81 99.23 222.52 101.4 222.08 101.56 223.63 101.83 226.09 101.7 228.56Z" fill="#0D5382"/><path d="M81.09 299.99C81.06 298.78 80.99 297.52 80.94 296.17 80.79 294.41 80.58 292.45 80.34 290.49 80.03 287.63 79.76 284.77 79.77 282.62 79.77 280.47 79.9 279.02 79.78 279 79.72 278.98 79.41 280.41 79.26 282.59 79.1 284.78 79.22 287.71 79.42 290.61 79.64 293.5 79.85 296.37 79.88 298.51 79.91 299.58 79.84 300.46 79.84 301.08 79.83 301.7 79.8 302.04 79.8 302.04 79.8 302.04 79.77 302.38 79.73 302.98 79.66 303.57 79.55 304.42 79.27 305.41 78.78 307.42 77.59 309.92 76.31 312.4 75.03 314.87 73.82 317.49 73.27 319.61 72.69 321.72 72.66 323.21 72.72 323.22 72.84 323.24 73.05 321.81 73.75 319.82 75.18 315.81 77.02 312.41 79.1 308.89 80.92 305.86 81.16 303.1 81.09 299.99Z" fill="#0D5382"/><path d="M104.54 287.33C104.9 287.24 104.71 284.63 104.71 284.63 104.71 284.63 103.93 282.19 103.57 282.3 103.23 282.4 103.42 284.98 103.42 284.98 103.42 284.98 104.17 287.42 104.54 287.33Z" fill="#0D5382"/><path d="M98.83 262.43C98.47 262.54 98.77 265.12 98.77 265.12 98.77 265.12 99.64 267.52 100 267.4 100.35 267.28 100.06 264.7 100.06 264.7 100.06 264.7 99.19 262.32 98.83 262.43Z" fill="#0D5382"/><path d="M50.68 350.32C51.04 350.24 51.13 347.74 51.13 347.74 51.13 347.74 50.63 345.32 50.26 345.32 49.89 345.32 49.81 347.89 49.81 347.89 49.81 347.89 50.32 350.4 50.68 350.32Z" fill="#0D5382"/><path d="M50.98 360.29C51.35 360.24 51.63 357.76 51.63 357.76 51.63 357.76 51.32 355.3 50.95 355.27 50.58 355.24 50.31 357.79 50.31 357.79 50.31 357.79 50.62 360.34 50.98 360.29Z" fill="#0D5382"/><path d="M51.83 370.78C52.19 370.7 52.29 368.2 52.29 368.2 52.29 368.2 51.79 365.78 51.43 365.78 51.06 365.78 50.97 368.35 50.97 368.35 50.97 368.35 51.46 370.86 51.83 370.78Z" fill="#0D5382"/><path d="M53.41 379.63C53.76 379.5 53.59 377.01 53.59 377.01 53.59 377.01 52.83 374.67 52.47 374.72 52.1 374.77 52.3 377.33 52.3 377.33 52.3 377.33 53.06 379.75 53.41 379.63Z" fill="#0D5382"/><path d="M99.21 356.49C99.58 356.48 100.08 354.04 100.08 354.04 100.08 354.04 99.99 351.56 99.63 351.49 99.27 351.42 98.76 353.93 98.76 353.93 98.76 353.93 98.84 356.5 99.21 356.49Z" fill="#0D5382"/><path d="M97.85 366.36C98.22 366.38 98.91 364 98.91 364 98.91 364 99.01 361.52 98.65 361.42 98.3 361.32 97.6 363.78 97.6 363.78 97.6 363.78 97.48 366.34 97.85 366.36Z" fill="#0D5382"/><path d="M96.93 376.84C97.3 376.83 97.81 374.4 97.81 374.4 97.81 374.4 97.72 371.92 97.36 371.85 97 371.78 96.48 374.29 96.48 374.29 96.48 374.29 96.56 376.84 96.93 376.84Z" fill="#0D5382"/><path d="M50.98 340.32C51.35 340.34 51.73 337.83 51.73 337.83 51.73 337.83 51.53 335.3 51.16 335.29 50.79 335.27 50.41 337.77 50.41 337.77 50.41 337.77 50.61 340.29 50.98 340.32Z" fill="#0D5382"/><path d="M71.09 373.8C70.99 373.62 69.37 374.57 67.62 374.85 65.88 375.21 64.16 374.95 64.16 374.95 64.16 374.95 63.73 374.94 63.1 374.85 62.46 374.77 61.63 374.52 60.83 374.16 60.05 373.76 59.32 373.21 58.82 372.7 58.32 372.2 58 371.81 57.92 371.87 57.85 371.92 58.03 372.43 58.44 373.11 58.86 373.78 59.58 374.55 60.41 375.14 61.25 375.69 62.17 376.09 62.87 376.26 63.57 376.46 64.06 376.51 64.06 376.51 64.06 376.51 66.01 376.6 67.83 375.93 69.68 375.32 71.2 373.97 71.09 373.8Z" fill="#0D5382"/><path d="M123.61 242.87C122.55 242.4 121.41 241.54 120.38 240.55 119.02 239.28 118 237.59 117.24 236.36 116.91 235.7 116.62 235.16 116.43 234.78 116.22 234.4 116.14 234.17 116.14 234.17 116.14 234.17 116.04 233.95 115.86 233.56 115.69 233.16 115.39 232.63 115.15 231.91 114.6 230.52 113.99 228.6 113.63 226.6 113.31 224.6 113.13 222.53 113.34 221.01 113.35 220.23 113.53 219.62 113.59 219.17 113.66 218.72 113.69 218.45 113.65 218.43 113.61 218.41 113.5 218.64 113.34 219.07 113.19 219.5 112.93 220.11 112.83 220.91 112.46 222.48 112.49 224.66 112.71 226.79 112.96 228.92 113.52 230.99 114.03 232.48 114.25 233.25 114.55 233.83 114.71 234.26 114.89 234.68 114.99 234.93 114.99 234.93 114.99 234.93 115.09 235.17 115.32 235.57 115.54 235.96 115.86 236.53 116.25 237.2 117.11 238.47 118.27 240.18 119.81 241.43 121.06 242.49 122.45 243.31 123.7 243.63 123.66 243.37 123.64 243.12 123.61 242.87Z" fill="#0D5382"/><path d="M54.79 267.67C54.79 267.67 54.77 265.14 54.41 265.08 54.05 265.02 53.47 267.46 53.47 267.46 53.47 267.46 53.49 270.01 53.85 270.06 54.22 270.11 54.79 267.67 54.79 267.67Z" fill="#0D5382"/><path d="M52.67 285.07C52.3 285.04 51.87 287.53 51.87 287.53 51.87 287.53 52.03 290.06 52.4 290.09 52.77 290.11 53.2 287.63 53.2 287.63 53.2 287.63 53.03 285.1 52.67 285.07Z" fill="#0D5382"/><path d="M51.43 325.24C51.06 325.23 50.7 327.73 50.7 327.73 50.7 327.73 50.93 330.25 51.3 330.27 51.67 330.29 52.02 327.78 52.02 327.78 52.02 327.78 51.79 325.25 51.43 325.24Z" fill="#0D5382"/><path d="M51.64 315.19C51.27 315.18 50.93 317.68 50.93 317.68 50.93 317.68 51.17 320.21 51.54 320.21 51.91 320.22 52.25 317.72 52.25 317.72 52.25 317.72 52 315.21 51.64 315.19Z" fill="#0D5382"/><path d="M53.38 275.06C53.01 275.02 52.52 277.48 52.52 277.48 52.52 277.48 52.62 280.02 52.98 280.05 53.35 280.08 53.84 277.62 53.84 277.62 53.84 277.62 53.75 275.1 53.38 275.06Z" fill="#0D5382"/><path d="M51.87 305.15C51.5 305.14 51.14 307.64 51.14 307.64 51.14 307.64 51.38 310.16 51.75 310.18 52.12 310.19 52.47 307.69 52.47 307.69 52.47 307.69 52.23 305.16 51.87 305.15Z" fill="#0D5382"/><path d="M52.18 295.1C51.81 295.08 51.43 297.57 51.43 297.57 51.43 297.57 51.64 300.1 52 300.12 52.37 300.13 52.75 297.64 52.75 297.64 52.75 297.64 52.55 295.12 52.18 295.1Z" fill="#0D5382"/><path d="M54.8 257.5C54.8 257.5 54.71 260.05 55.07 260.12 55.43 260.19 56.11 257.78 56.11 257.78 56.11 257.78 56.2 255.26 55.84 255.17 55.48 255.09 54.8 257.5 54.8 257.5Z" fill="#0D5382"/></g></g><g><g><path d="M75.57 300.18C75.14 300.25 74.7 299.52 74.58 298.55 74.46 297.58 74.72 296.74 75.15 296.67 75.58 296.6 76.02 297.33 76.13 298.3 76.25 299.26 76 300.11 75.57 300.18Z" fill="#53ADEA"/><path d="M75.69 307.7C75.01 307.7 74.45 306.44 74.45 304.88 74.45 303.32 74.99 302.05 75.67 302.05 76.35 302.04 76.9 303.3 76.91 304.87 76.91 306.42 76.37 307.69 75.69 307.7Z" fill="#53ADEA"/></g></g><g><g><path d="M125.88 299.07C125.45 299.14 125.01 298.4 124.89 297.44 124.77 296.47 125.03 295.62 125.46 295.56 125.89 295.49 126.33 296.22 126.44 297.19 126.56 298.15 126.31 299 125.88 299.07Z" fill="#53ADEA"/><path d="M126 306.59C125.32 306.59 124.76 305.33 124.76 303.77 124.75 302.21 125.3 300.94 125.98 300.94 126.66 300.94 127.22 302.19 127.22 303.76 127.22 305.31 126.68 306.59 126 306.59Z" fill="#53ADEA"/></g></g></g></g><path d="M121.56 220.35C121.52 219.64 121.49 218.97 121.47 218.33 121.47 218.3 121.47 218.27 121.47 218.24 121.33 217.76 121.18 217.34 121.06 217.03 120.96 216.75 120.86 216.48 120.76 216.2 116.37 217.25 111.91 217.88 107.4 218.18 92.65 221.2 77.47 220.21 62.53 216.97 60.79 216.81 59.05 216.67 57.3 216.6 57.11 217.9 56.92 219.21 56.74 220.5 56.42 222.67 56.12 224.78 55.83 226.71 59.2 228.69 71.41 235.08 89.01 235.08 107.71 235.08 120.18 225.77 121.49 223.26 121.59 223.07 121.65 222.87 121.71 222.67 121.71 222.63 121.71 222.59 121.7 222.55 121.64 221.79 121.59 221.06 121.56 220.35 121.56 220.35 121.56 220.35 121.56 220.35Z" fill="#2C82C7" opacity="0.3"/></g><g><g><g><path d="M146.57 231.64C146.57 231.64 161.41 232.69 165.01 222.05 166.06 218.93 155.83 204.24 154.34 201.23 148.96 190.32 142.96 181.58 139.46 169.6 138.03 164.71 136.86 159.86 136.07 154.81 135.5 151.13 135.09 147.47 134.63 143.79 132.43 126.13 129.81 108.68 107.91 107.69 107.91 107.69 108.64 167.6 113.49 182.21 118.37 196.81 132.62 213.1 146.57 231.64Z" fill="#5E5E5C"/><g><path d="M165.08 221.46C165.08 221.28 165.06 221.09 165.02 220.88 165.02 220.87 165.02 220.86 165.01 220.85 164.97 220.64 164.91 220.42 164.85 220.18 164.83 220.12 164.82 220.06 164.8 220 164.72 219.75 164.64 219.49 164.53 219.21 164.52 219.18 164.51 219.15 164.5 219.13 164.4 218.87 164.29 218.6 164.17 218.32 164.14 218.24 164.11 218.17 164.07 218.09 163.94 217.79 163.79 217.47 163.64 217.15 163.62 217.11 163.6 217.06 163.57 217.01 163.43 216.72 163.28 216.42 163.13 216.12 163.09 216.03 163.04 215.95 163 215.86 162.83 215.52 162.64 215.18 162.46 214.83 162.43 214.77 162.39 214.71 162.36 214.64 162.19 214.33 162.02 214.02 161.84 213.71 161.79 213.62 161.74 213.52 161.68 213.43 161.48 213.08 161.28 212.72 161.07 212.36 161.02 212.28 160.98 212.2 160.93 212.11 160.75 211.81 160.58 211.51 160.4 211.21 160.34 211.11 160.28 211.01 160.22 210.9 160.01 210.55 159.8 210.2 159.59 209.85 159.53 209.76 159.47 209.66 159.42 209.56 159.25 209.28 159.08 209 158.92 208.73 158.85 208.62 158.79 208.51 158.72 208.4 158.53 208.09 158.34 207.78 158.15 207.48 158.04 207.3 157.93 207.12 157.82 206.95 157.73 206.81 157.64 206.67 157.56 206.53 157.26 206.04 156.97 205.58 156.69 205.13 157.33 208.85 156.94 212.48 154.62 215.18 148.34 222.51 138.39 207.59 132.63 197.38 126.87 187.17 131.06 156.8 129.75 148.43 128.73 141.88 127.54 124.28 127.07 116.92 127.07 116.92 127.06 116.91 127.06 116.91 123.28 111.63 117.41 108.11 107.93 107.68 107.93 107.68 108.66 167.59 113.51 182.2 118.37 196.8 132.62 213.09 146.57 231.63 146.57 231.63 161.41 232.68 165.01 222.04 165.05 221.91 165.07 221.75 165.08 221.58 165.08 221.54 165.08 221.5 165.08 221.46Z" fill="#5E5E5C" opacity="0.4"/><path d="M135.76 169.65C136.23 175.25 142.93 183.34 147.35 188 144.3 182.25 141.47 176.46 139.47 169.6 138.65 166.79 137.93 163.99 137.3 161.16 136.29 164.46 135.59 167.6 135.76 169.65Z" fill="#5E5E5C" opacity="0.4"/></g><g><g><path d="M151.21 194.78C151.11 194.83 150.65 194.02 149.91 192.85 149.18 191.68 148.12 190.17 147.02 188.7 145.9 187.23 144.75 185.79 143.88 184.7 143.01 183.61 142.44 182.88 142.44 182.88 142.44 182.88 141.91 182.12 141.11 180.98 140.32 179.83 139.3 178.26 138.38 176.63 137.48 174.98 136.69 173.28 136.27 171.93 135.83 170.59 135.69 169.66 135.77 169.64 135.88 169.61 136.21 170.47 136.8 171.71 137.37 172.96 138.28 174.54 139.27 176.08 140.28 177.61 141.37 179.08 142.21 180.17 143.06 181.26 143.62 181.99 143.62 181.99 143.62 181.99 144.16 182.74 144.97 183.87 145.78 185 146.85 186.52 147.88 188.09 148.89 189.67 149.84 191.28 150.42 192.56 151.01 193.85 151.29 194.74 151.21 194.78Z" fill="#5E5E5C"/></g><g><path d="M163.77 223.05C163.81 223.07 163.61 223.49 163.2 224.2 162.82 224.93 162.14 225.88 161.23 226.96 160.73 227.46 160.26 228.08 159.61 228.57 159.3 228.83 158.98 229.1 158.65 229.37 158.31 229.62 157.92 229.84 157.55 230.09 156.82 230.62 155.94 230.93 155.09 231.34 154.64 231.49 154.18 231.61 153.72 231.75L153.03 231.95 152.32 232.05C150.46 232.43 148.35 232.28 146.66 231.42 144.95 230.57 143.8 229.23 142.9 228.14 142.01 227.02 141.35 226.08 140.86 225.44 140.37 224.81 140.09 224.45 140.09 224.45 140.09 224.45 139.83 224.08 139.32 223.48 138.81 222.85 138.07 221.96 137.2 220.88 135.46 218.71 133.14 215.82 130.98 212.79 128.83 209.76 126.77 206.67 125.46 204.2 124.75 203 124.28 201.93 123.93 201.2 123.59 200.46 123.41 200.03 123.46 200.01 123.51 199.99 123.77 200.37 124.19 201.06 124.62 201.74 125.17 202.76 125.95 203.9 127.4 206.25 129.58 209.23 131.82 212.15 134.06 215.07 136.46 217.88 138.24 219.99 139.14 221.04 139.9 221.92 140.42 222.53 140.96 223.15 141.25 223.53 141.25 223.53 141.25 223.53 141.54 223.91 142.02 224.57 142.5 225.23 143.15 226.2 143.96 227.28 144.78 228.35 145.79 229.56 147.2 230.31 148.6 231.07 150.38 231.29 152.15 230.99L152.82 230.92 153.47 230.76C153.9 230.65 154.33 230.56 154.76 230.43 155.57 230.08 156.41 229.83 157.12 229.36 157.48 229.14 157.86 228.96 158.2 228.73 158.53 228.48 158.84 228.24 159.16 228.01 159.81 227.58 160.29 227 160.81 226.55 162.72 224.6 163.65 222.97 163.77 223.05Z" fill="#5E5E5C"/></g><g><path d="M145.97 187.18C145.92 187.2 145.64 186.65 145.18 185.68 144.74 184.7 144.1 183.29 143.34 181.61 142.64 179.9 141.87 177.89 141.03 175.75 140.25 173.58 139.5 171.22 138.71 168.88 137.35 164.13 136.22 159.31 135.69 155.64 135.4 153.81 135.09 152.29 134.98 151.22 134.86 150.14 134.8 149.53 134.8 149.53 134.8 149.53 134.58 147.08 134.26 143.4 134.1 139.75 133.53 134.91 132.37 130.19 131.51 125.34 128.71 121.29 126.76 118.19 125.76 116.64 124.96 115.33 124.44 114.39 123.94 113.44 123.67 112.89 123.71 112.86 123.76 112.84 124.11 113.34 124.69 114.24 125.28 115.13 126.16 116.38 127.23 117.88 128.3 119.38 129.54 121.14 130.69 123.16 131.27 124.16 131.79 125.26 132.28 126.4 132.64 127.57 133 128.75 133.37 129.94 134.68 134.71 135.37 139.64 135.61 143.33 136 146.97 136.26 149.39 136.26 149.39 136.26 149.39 136.31 150 136.41 151.06 136.49 152.13 136.77 153.63 137.02 155.45 137.47 159.09 138.48 163.88 139.7 168.61 140.42 170.94 141.09 173.29 141.8 175.48 142.56 177.66 143.27 179.69 143.87 181.43 144.52 183.15 145.06 184.58 145.44 185.59 145.83 186.57 146.02 187.16 145.97 187.18Z" fill="#5E5E5C"/></g></g><g><path d="M136.43 181.79C136.89 181.56 137.62 182.08 138.07 182.96 138.52 183.84 138.51 184.74 138.06 184.97 137.6 185.2 136.87 184.68 136.42 183.8 135.97 182.93 135.98 182.03 136.43 181.79Z" fill="#5E5E5C"/><path d="M133.82 174.69C134.58 174.42 135.62 175.4 136.14 176.89 136.66 178.37 136.47 179.79 135.71 180.05 134.96 180.32 133.92 179.34 133.39 177.86 132.87 176.38 133.06 174.96 133.82 174.69Z" fill="#5E5E5C"/></g></g><path d="M146.66 231.42C146.65 231.5 146.66 231.57 146.66 231.65 147.8 231.71 161.56 232.25 165.02 222.05 165.06 221.92 165.08 221.76 165.09 221.59 165.09 221.55 165.09 221.5 165.09 221.46 165.09 221.28 165.07 221.09 165.03 220.88 165.03 220.87 165.03 220.86 165.02 220.85 164.98 220.64 164.92 220.42 164.86 220.18 164.84 220.12 164.83 220.06 164.81 220 164.78 219.9 164.74 219.79 164.71 219.69 152.63 219.98 146.66 231.42 146.66 231.42Z" fill="#5E5E5C"/><g><path d="M164.82 219.03C164.85 219.18 162.2 219.8 159.69 220.81 158.47 221.38 157.23 221.9 156.4 222.47 155.97 222.72 155.61 222.94 155.36 223.09 155.11 223.23 154.99 223.36 154.98 223.35 154.98 223.35 154.44 223.73 153.62 224.31 153.19 224.57 152.77 224.97 152.32 225.4 151.88 225.84 151.33 226.24 150.92 226.76 150.5 227.27 150.07 227.79 149.67 228.27 149.46 228.5 149.28 228.75 149.14 229 148.98 229.25 148.84 229.48 148.71 229.69 148.17 230.54 147.78 231.11 147.72 231.08 147.66 231.05 147.93 230.43 148.38 229.5 148.49 229.27 148.62 229.02 148.75 228.75 148.87 228.48 149.03 228.21 149.23 227.95 149.6 227.42 150.01 226.86 150.4 226.3 150.8 225.73 151.34 225.28 151.77 224.8 152.22 224.33 152.64 223.89 153.07 223.59 153.9 222.95 154.45 222.53 154.45 222.53 154.46 222.54 154.58 222.41 154.85 222.27 155.12 222.13 155.5 221.92 155.96 221.68 156.86 221.14 158.16 220.66 159.45 220.16 162.08 219.3 164.8 218.92 164.82 219.03Z" fill="#5E5E5C"/></g></g></g><g><g><path d="M47.53 112.43C48.28 111.75 65.76 102.66 81.01 101.26 96.26 99.86 109.52 105.1 119.46 110.68 123.95 141.53 125.68 141.46 123.11 176.65 121.12 203.87 121.45 209.46 121.45 209.46 121.45 209.46 123.44 213.65 122.11 216.09 120.78 218.53 108.19 227.61 89.29 227.61 68.24 227.61 54.82 218.89 54.82 218.89 54.49 216.62 55.32 214.88 56.64 211.91 57.3 209.82 51.17 160.95 51.17 160.95 51.17 160.95 40.57 118.71 47.53 112.43Z" fill="#5E5E5C"/><path d="M122.12 216.09C123.15 214.19 122.18 211.23 121.69 210.02 91.62 230.75 64.09 217.25 56.33 212.61 55.19 215.16 54.52 216.81 54.82 218.89 54.82 218.89 68.24 227.61 89.29 227.61 108.19 227.61 120.79 218.53 122.12 216.09Z" fill="#5E5E5C"/><path d="M81.01 101.26C65.76 102.66 48.28 111.75 47.53 112.43 46.57 113.29 45.95 114.83 45.59 116.84 47.04 117.44 48.5 117.49 49.85 116.62L69.74 106.85C69.74 106.85 78.36 114.59 87.64 112.78 97.5 110.86 97.5 105.1 97.5 105.1L119.66 112.1C119.54 111.19 119.46 110.68 119.46 110.68 109.52 105.1 96.26 99.86 81.01 101.26Z" fill="#5E5E5C"/><g opacity="0.4"><g><path d="M86.98 116.61C87 116.81 84.77 117.15 82.5 116.98 80.24 116.85 78.03 116.17 78.03 116.17 78.03 116.17 77.49 115.96 76.71 115.59 75.93 115.21 74.92 114.64 74 113.93 73.09 113.2 72.25 112.37 71.75 111.64 71.24 110.92 71 110.38 71.07 110.33 71.16 110.26 71.54 110.69 72.15 111.25 72.75 111.83 73.62 112.48 74.54 113.05 76.4 114.18 78.47 114.76 78.47 114.76 78.47 114.76 80.48 115.55 82.63 115.94 84.76 116.37 86.97 116.41 86.98 116.61Z" fill="#5E5E5C"/></g><g><path d="M100.24 111.03C100.37 111.15 99.14 112.85 97.62 114.31 96.08 115.73 94.28 116.83 94.28 116.83 94.28 116.83 93.8 117.03 93.08 117.34 92.73 117.5 92.3 117.67 91.83 117.79 91.36 117.92 90.87 118.08 90.37 118.2 88.35 118.63 86.31 118.55 86.31 118.37 86.3 118.14 88.27 117.85 90.11 117.19 90.57 117.02 91.01 116.81 91.44 116.64 91.87 116.48 92.25 116.29 92.57 116.1 93.21 115.75 93.64 115.52 93.64 115.52 93.64 115.52 95.38 114.65 97.01 113.49 98.61 112.3 100.08 110.88 100.24 111.03Z" fill="#5E5E5C"/></g><g><path d="M97.26 216.79C97.28 216.87 96.18 217.3 94.47 217.72 92.76 218.15 90.42 218.43 88.06 218.5 85.71 218.51 83.36 218.32 81.61 218.07 79.86 217.81 78.71 217.58 78.71 217.58 78.71 217.58 78.43 217.51 77.93 217.38 77.43 217.25 76.72 217.09 75.88 216.83 74.18 216.36 71.96 215.62 69.76 214.82 67.57 214.01 65.39 213.15 63.78 212.47 62.16 211.79 61.1 211.3 61.13 211.21 61.2 211 65.63 212.47 70.06 213.83 72.28 214.49 74.51 215.12 76.19 215.51 77.03 215.73 77.73 215.85 78.22 215.97 78.71 216.08 78.99 216.14 78.99 216.14 78.99 216.14 80.11 216.4 81.8 216.73 83.49 217.05 85.77 217.35 88.06 217.46 90.35 217.52 92.65 217.4 94.36 217.16 96.08 216.91 97.23 216.67 97.26 216.79Z" fill="#5E5E5C"/></g><g><path d="M113.83 209.11C113.88 209.2 113.26 209.62 112.29 210.21 111.34 210.85 109.97 211.45 108.58 212.05 107.89 212.35 107.16 212.53 106.49 212.76 106.15 212.87 105.82 212.97 105.52 213.07 105.2 213.14 104.91 213.21 104.63 213.27 103.53 213.51 102.79 213.67 102.79 213.67 102.79 213.67 99.81 213.98 96.86 213.96 93.91 213.94 90.98 213.85 90.97 213.65 90.96 213.44 93.9 213.16 96.82 212.92 99.74 212.67 102.6 212.21 102.6 212.21 102.6 212.21 103.32 212.1 104.39 211.94 104.66 211.9 104.95 211.86 105.26 211.81 105.56 211.74 105.88 211.66 106.21 211.58 106.87 211.41 107.59 211.29 108.28 211.06 109.66 210.6 111.06 210.17 112.06 209.69 113.08 209.27 113.78 209.02 113.83 209.11Z" fill="#5E5E5C"/></g><g><path d="M56.81 188.87C56.57 188.86 56.54 186.4 55.95 184.07 55.81 183.49 55.61 182.92 55.45 182.38 55.3 181.84 55.13 181.34 54.96 180.92 54.64 180.07 54.43 179.51 54.43 179.51 54.43 179.51 53.65 177.19 52.88 174.88 52.11 172.53 51.66 170.07 51.84 170.03 52.05 169.98 52.82 172.28 53.81 174.49 54.81 176.7 55.75 178.98 55.75 178.98 55.75 178.98 55.93 179.58 56.19 180.48 56.33 180.93 56.47 181.46 56.58 182.04 56.69 182.62 56.85 183.23 56.93 183.86 57.29 186.37 56.96 188.89 56.81 188.87Z" fill="#5E5E5C"/></g></g><path d="M54.89 218.93C54.91 218.94 54.93 218.95 54.96 218.97 54.97 218.97 54.99 218.98 55 218.99 55.05 219.02 55.1 219.05 55.16 219.09 55.18 219.1 55.19 219.11 55.21 219.12 55.26 219.15 55.32 219.19 55.38 219.22 55.42 219.24 55.45 219.26 55.49 219.28 55.52 219.29 55.54 219.31 55.57 219.33 55.6 219.35 55.63 219.36 55.66 219.38 55.71 219.41 55.77 219.44 55.83 219.48 55.91 219.52 55.99 219.57 56.08 219.62 56.14 219.65 56.19 219.68 56.26 219.72 56.28 219.73 56.32 219.75 56.34 219.76 56.54 219.87 56.77 219.99 57.01 220.12 57.08 220.15 57.14 220.19 57.21 220.22 57.28 220.26 57.36 220.3 57.43 220.33 57.55 220.39 57.68 220.46 57.81 220.52 57.91 220.57 58.02 220.63 58.13 220.68 58.18 220.7 58.23 220.73 58.27 220.75 58.31 220.77 58.35 220.79 58.39 220.81 58.53 220.88 58.68 220.95 58.83 221.02 58.91 221.06 58.99 221.1 59.07 221.13 59.23 221.21 59.39 221.28 59.56 221.36 59.58 221.37 59.6 221.38 59.62 221.38 59.7 221.42 59.77 221.45 59.84 221.48 60.01 221.55 60.17 221.63 60.35 221.71 60.36 221.71 60.37 221.72 60.37 221.72 60.44 221.75 60.51 221.78 60.58 221.81 60.9 221.95 61.24 222.09 61.58 222.23 61.61 222.24 61.64 222.26 61.67 222.27 62.03 222.42 62.41 222.57 62.8 222.72 62.84 222.74 62.88 222.75 62.93 222.77 63.17 222.86 63.41 222.95 63.65 223.04 63.67 223.05 63.69 223.05 63.72 223.06 63.79 223.09 63.86 223.11 63.94 223.14 64.15 223.22 64.37 223.3 64.59 223.38 64.72 223.43 64.85 223.47 64.98 223.52 65.21 223.6 65.45 223.68 65.69 223.77 65.83 223.81 65.97 223.86 66.11 223.91 66.35 223.99 66.58 224.07 66.83 224.14 66.96 224.18 67.08 224.22 67.21 224.26 67.48 224.34 67.75 224.43 68.02 224.51 68.06 224.52 68.1 224.53 68.13 224.54 68.16 224.55 68.19 224.56 68.22 224.57 68.72 224.72 69.24 224.87 69.77 225.01 69.8 225.02 69.83 225.02 69.86 225.03 70.38 225.17 70.9 225.31 71.45 225.44 71.55 225.46 71.65 225.49 71.76 225.52 72.05 225.59 72.35 225.66 72.65 225.73 72.77 225.76 72.88 225.78 73 225.81 73.04 225.82 73.08 225.83 73.12 225.84 73.43 225.91 73.74 225.98 74.06 226.04 74.23 226.07 74.39 226.11 74.55 226.14 74.86 226.2 75.17 226.26 75.49 226.32 75.53 226.33 75.57 226.34 75.62 226.34 75.75 226.37 75.89 226.39 76.02 226.41 76.35 226.47 76.67 226.53 77 226.58 77.16 226.61 77.33 226.63 77.5 226.66 77.85 226.71 78.19 226.77 78.54 226.82 78.67 226.84 78.8 226.85 78.93 226.87 79.81 226.99 80.7 227.1 81.62 227.2 72.66 224.55 68.69 220.94 76.63 222.1 91.05 224.19 101.49 222.36 111.93 218.44 117.02 216.52 120.27 213.93 122.27 211.77 121.94 210.46 121.46 209.45 121.46 209.45 121.46 209.45 121.46 209.4 121.45 209.29 121.45 209.27 121.45 209.25 121.45 209.23 121.45 209.19 121.45 209.14 121.45 209.09 121.45 209.08 121.45 209.07 121.45 209.05 121.45 209.04 121.45 209.03 121.45 209.02 121.45 208.85 121.44 208.62 121.44 208.32 121.44 208.31 121.44 208.3 121.44 208.28 121.44 208.27 121.44 208.25 121.44 208.24 121.44 208.15 121.44 208.05 121.44 207.94 121.44 207.92 121.44 207.9 121.44 207.88 121.44 207.76 121.44 207.63 121.44 207.5 121.44 207.48 121.44 207.46 121.44 207.44 121.46 205.56 121.54 202.11 121.86 196.15 121.87 196.04 121.87 195.91 121.88 195.8 121.9 195.44 121.92 195.07 121.94 194.69 121.96 194.38 121.98 194.06 121.99 193.74 122 193.54 122.01 193.35 122.02 193.15 122.03 193.06 122.03 192.99 122.03 192.9 115.45 209.97 103.07 215.6 83.83 211.35 74.53 209.29 69.57 198.92 66.66 190.37 64.85 185.07 65 180.17 64.26 174.78 63.38 168.39 62.5 162 61.64 155.6 60.12 144.28 59.48 132.75 59.21 121.34 59.1 117 58.42 111.24 61.81 108.32 64.48 106.02 67.95 105.15 70.77 103.12 58.85 106.25 48.12 111.87 47.54 112.4 45.48 114.26 44.96 119.27 45.24 125.4L45.25 125.41C45.89 139.06 50.53 158.25 51.12 160.66 51.13 160.68 51.13 160.7 51.14 160.72 51.15 160.76 51.16 160.79 51.17 160.82 51.18 160.88 51.19 160.91 51.19 160.91 51.19 160.91 57.32 209.77 56.66 211.87 55.33 214.84 54.5 216.58 54.84 218.85 54.82 218.88 54.85 218.89 54.89 218.93 54.88 218.92 54.89 218.92 54.89 218.93Z" fill="#5E5E5C" opacity="0.4"/></g><g opacity="0.4"><path d="M79.24 120.21C79.36 119.71 80.2 119.51 81.1 119.75 82.01 119.99 82.65 120.59 82.52 121.09 82.4 121.59 81.57 121.79 80.66 121.55 79.76 121.3 79.12 120.7 79.24 120.21Z" fill="#5E5E5C"/><path d="M72.54 117.47C72.82 116.72 74.18 116.59 75.56 117.19 76.94 117.78 77.83 118.86 77.55 119.6 77.27 120.34 75.92 120.47 74.53 119.89 73.15 119.3 72.26 118.22 72.54 117.47Z" fill="#5E5E5C"/></g><g opacity="0.4"><path d="M121.24 158.36C120.75 158.37 120.34 157.58 120.32 156.59 120.3 155.61 120.68 154.8 121.16 154.79 121.64 154.78 122.06 155.57 122.08 156.55 122.1 157.53 121.73 158.34 121.24 158.36Z" fill="#5E5E5C"/><path d="M120.54 165.88C119.78 165.79 119.3 164.45 119.47 162.89 119.63 161.33 120.38 160.14 121.14 160.23 121.9 160.32 122.37 161.65 122.21 163.22 122.05 164.78 121.3 165.97 120.54 165.88Z" fill="#5E5E5C"/></g><path d="M81.01 101.26C79.1 101.43 77.17 101.73 75.23 102.11 75.22 102.12 75.22 102.12 75.21 102.13 75.21 102.13 71.4 104.57 72.89 106.32 74.38 108.06 80.84 111.73 87.97 109.64 95.1 107.55 94.93 103.53 93.28 101.79 93.17 101.67 92.98 101.56 92.75 101.46 88.99 101 85.08 100.89 81.01 101.26Z" fill="#5E5E5C" opacity="0.4"/></g><g><linearGradient x1="84.7826" y1="63.4618" x2="81.8006" y2="75.0811" gradientUnits="userSpaceOnUse" id="SVGID_1_"><stop offset="0.2206" stop-color="#FCE8D9"/><stop offset="1" stop-color="#F4C7BD"/></linearGradient><path d="M78.42 93.79C79.02 95.99 78.53 98.46 77.14 100.26 75.75 102.07 73.48 103.16 71.2 103.14 74.67 106.62 79.62 108.57 84.53 108.4 89.44 108.23 94.24 105.94 97.46 102.22 95.33 102.3 93.18 101.28 91.9 99.56 90.62 97.85 90.25 95.5 90.93 93.48L78.42 93.79Z" fill="#F9B799"/><path d="M78.6 95.12C80.04 96.97 82.35 98.1 84.7 98.11 87.04 98.12 89.37 97.01 90.83 95.19L78.6 95.12Z" opacity="0.15"/><g><path d="M43.98 53.68C42.6 52.13 40.65 51.04 38.57 50.93 36.5 50.82 34.34 51.77 33.22 53.52 32.36 54.86 32.16 56.51 32.08 58.09 31.89 61.76 32.39 65.8 35.01 68.37 37.62 70.93 41.59 71.35 45.24 71.51L43.98 53.68Z" fill="#F9B799"/><path d="M40.62 61.07C40.62 63.01 39.62 64.59 38.39 64.59 37.16 64.59 36.16 63.01 36.16 61.07 36.16 59.13 37.16 57.55 38.39 57.55 39.62 57.55 40.62 59.13 40.62 61.07Z" fill="#F4C7BD"/></g><g><path d="M127.15 53.68C128.53 52.13 130.48 51.04 132.56 50.93 134.63 50.82 136.79 51.77 137.91 53.52 138.77 54.86 138.97 56.51 139.05 58.09 139.24 61.76 138.74 65.8 136.12 68.37 133.51 70.93 129.54 71.35 125.89 71.51L127.15 53.68Z" fill="#F9B799"/><ellipse cx="132.75" cy="61.07" rx="2.23" ry="3.52" fill="#F4C7BD"/></g><path d="M43.94 61.83C42.99 65.83 42.27 70.01 43.15 74.02 44.81 81.59 51.71 86.86 58.74 90.12 74.81 97.58 94.06 97.83 110.32 90.82 117.2 87.85 124 83.04 126.07 75.84 127.91 69.44 125.62 62.66 123.35 56.39 119.38 45.43 114.91 33.78 105.38 27.06 97.21 21.3 86.28 20.2 76.68 22.97 57.56 28.49 48.29 43.53 43.94 61.83Z" fill="#F9B799"/><g><path d="M62.73 53.78C65.5 52.14 69.26 53.04 71.59 55.26 74.02 57.57 75.08 60.96 75.75 64.25 75.79 64.44 75.82 64.65 75.73 64.83 75.62 65.04 75.36 65.12 75.12 65.17 71.02 66.11 66.69 66.03 62.63 64.94 59.65 64.14 58.26 62.61 58.03 60.87 57.71 58.44 59.66 55.6 62.73 53.78Z" fill="#FFFFFF"/><g><path d="M70.52 62.04C72.46 60.29 72.61 57.29 70.86 55.35 69.11 53.41 66.11 53.26 64.17 55.02 62.23 56.77 62.08 59.77 63.83 61.71 65.59 63.64 68.58 63.79 70.52 62.04Z" fill="#8C7257"/><path d="M68.58 59.86C69.28 59.23 69.33 58.15 68.7 57.45 68.07 56.75 66.99 56.7 66.29 57.33 65.59 57.96 65.54 59.04 66.17 59.74 66.8 60.44 67.88 60.5 68.58 59.86Z" fill="#3A3129"/><path d="M65.06 57.53C64.72 57.51 64.36 57.49 64.03 57.56 63.54 57.67 63.33 57.92 63.26 58.4 63.24 58.54 63.22 58.67 63.22 58.81 63.21 59.39 63.61 60.31 64.13 60.63 64.43 60.81 64.81 60.6 65.09 60.39 65.76 59.88 67.33 58.93 67.63 58.12 67.86 57.51 67.45 57.68 66.82 57.64 66.22 57.6 65.64 57.57 65.06 57.53Z" fill="#FFFFFF" opacity="0.2"/><path d="M65.52 61.6C65.49 61.63 65.47 61.66 65.46 61.69 65.45 61.76 65.51 61.82 65.58 61.86 65.78 61.99 66 62.1 66.24 62.13 66.48 62.17 66.73 62.12 66.92 61.98 67.1 61.84 67.2 61.63 67.28 61.42 67.38 61.18 67.94 59.43 67.29 59.75 66.98 59.9 66.65 60.41 66.41 60.66 66.11 60.98 65.81 61.29 65.52 61.6Z" fill="#FFFFFF" opacity="0.2"/></g><g><path d="M57.97 60.88C57.58 59.68 57.9 58.34 58.4 57.18 58.97 56.03 59.79 55.03 60.72 54.16 61.18 53.72 61.69 53.33 62.23 52.98 62.82 52.61 63.46 52.33 64.13 52.14 65.48 51.8 66.88 51.86 68.18 52.18 69.47 52.55 70.68 53.17 71.71 54.03 72.71 54.93 73.53 55.95 74.09 57.1 74.67 58.24 75.08 59.42 75.36 60.61 75.59 61.82 75.78 63.02 75.79 64.23L75.67 64.25C75.18 61.93 74.52 59.6 73.29 57.57 72.68 56.56 71.91 55.64 71 54.89 70.08 54.16 69 53.62 67.87 53.31 66.73 53.01 65.53 52.95 64.38 53.21 63.23 53.47 62.22 54.14 61.29 54.86 60.37 55.6 59.54 56.47 58.93 57.48 58.33 58.49 57.93 59.66 58.08 60.84L57.97 60.88Z" fill="#5E5149"/></g><path d="M105.77 53.78C103 52.14 99.24 53.04 96.91 55.26 94.48 57.57 93.42 60.96 92.75 64.25 92.71 64.44 92.68 64.65 92.77 64.83 92.88 65.04 93.14 65.12 93.38 65.17 97.48 66.11 101.81 66.03 105.87 64.94 108.85 64.14 110.24 62.61 110.47 60.87 110.79 58.44 108.84 55.6 105.77 53.78Z" fill="#FFFFFF"/><g><path d="M110.41 60.86C110.56 59.68 110.16 58.5 109.56 57.5 108.95 56.49 108.12 55.61 107.2 54.88 106.27 54.15 105.26 53.49 104.11 53.23 102.96 52.97 101.76 53.03 100.62 53.33 99.48 53.64 98.41 54.17 97.49 54.91 96.58 55.65 95.81 56.58 95.2 57.59 93.97 59.62 93.31 61.95 92.82 64.27L92.7 64.25C92.72 63.03 92.9 61.84 93.13 60.63 93.42 59.44 93.83 58.25 94.4 57.12 94.96 55.97 95.78 54.95 96.78 54.05 97.8 53.19 99.02 52.57 100.31 52.2 101.61 51.87 103.01 51.81 104.36 52.16 105.03 52.35 105.67 52.64 106.26 53 106.8 53.35 107.31 53.73 107.77 54.18 108.7 55.05 109.52 56.05 110.09 57.2 110.59 58.36 110.91 59.7 110.52 60.9L110.41 60.86Z" fill="#5E5149"/></g></g><g><path d="M104.73 62.04C106.67 60.29 106.82 57.29 105.06 55.35 103.31 53.41 100.31 53.26 98.37 55.02 96.43 56.77 96.28 59.77 98.04 61.71 99.79 63.64 102.79 63.79 104.73 62.04Z" fill="#8C7257"/><path d="M102.78 59.86C103.48 59.23 103.53 58.15 102.9 57.45 102.27 56.75 101.19 56.7 100.49 57.33 99.79 57.96 99.74 59.04 100.37 59.74 101.01 60.44 102.08 60.5 102.78 59.86Z" fill="#3A3129"/><path d="M99.27 57.53C98.93 57.51 98.57 57.49 98.24 57.56 97.75 57.67 97.54 57.92 97.47 58.4 97.45 58.54 97.43 58.67 97.43 58.81 97.42 59.39 97.82 60.31 98.34 60.63 98.64 60.81 99.02 60.6 99.3 60.39 99.97 59.88 101.54 58.93 101.84 58.12 102.07 57.51 101.66 57.68 101.03 57.64 100.43 57.6 99.85 57.57 99.27 57.53Z" fill="#FFFFFF" opacity="0.2"/><path d="M99.72 61.6C99.69 61.63 99.67 61.66 99.66 61.69 99.65 61.76 99.71 61.82 99.78 61.86 99.98 61.99 100.2 62.1 100.44 62.13 100.68 62.17 100.93 62.12 101.12 61.98 101.3 61.84 101.4 61.63 101.48 61.42 101.58 61.18 102.14 59.43 101.49 59.75 101.18 59.9 100.85 60.41 100.61 60.66 100.32 60.98 100.02 61.29 99.72 61.6Z" fill="#FFFFFF" opacity="0.2"/></g><path d="M115.88 67.96C117.77 65.84 118.74 62.93 118.5 60.1 118.2 56.53 116.16 52.51 112.32 52.65 106.69 52.86 100.83 51.51 96.38 48.36 103.95 50.27 111.84 51.17 119.62 50.56 118.95 51.42 118.11 52.14 117.16 52.69 119.39 52.95 120.63 55.47 120.8 57.71 121.1 61.66 119.09 65.63 115.88 67.96Z" opacity="0.15"/><path d="M65.76 34.84C59.95 37.48 56.67 42.3 52.67 46.88 50.63 49.21 48.91 51.57 47.83 54.51 47.4 55.67 45.36 62.02 46.57 62.95 43.99 60.42 45.85 51.19 48.17 46.05 51.15 39.45 58.52 34.69 65.76 34.84Z" opacity="0.15"/><path d="M112.63 15.08C114.59 16.7 116.44 18.77 116.72 21.3 112.76 18.07 107.98 15.86 102.96 14.93 104.81 18.49 107.8 21.45 111.38 23.27 103.75 23.17 96.2 20.03 90.75 14.7 91.57 18.27 93.76 21.51 96.76 23.6 95.21 22.52 92.03 22.38 90.19 21.49 88.07 20.47 85.73 19.11 84.12 17.36 81.14 14.12 81.66 10.62 85.93 9.33 94.81 6.64 105.57 9.25 112.63 15.08Z" fill="#FFFFFF" opacity="0.1"/><path d="M46.17 24.21C43.87 26.53 42.45 29.74 42.48 33.01 44.97 30.62 47.71 28.5 50.65 26.7 50.08 28.35 49.19 29.88 48.04 31.19 50.87 30.93 53.77 30.26 55.99 28.49 58.38 26.58 60.79 21.43 56.77 20.08 53.44 18.97 48.38 21.99 46.17 24.21Z" fill="#FFFFFF" opacity="0.1"/><g><path d="M108.65 48.77C107.54 48.08 106.41 47.51 105.22 47.17 104.04 46.81 102.85 46.61 101.68 46.56 101.09 46.55 100.5 46.62 99.94 46.73 99.37 46.82 98.83 46.89 98.26 46.85 97.69 46.84 97.11 46.79 96.57 46.74 96.02 46.72 95.48 46.65 94.74 46.87L94.46 46.68C94.43 45.81 95.05 45 95.7 44.51 96.37 43.98 97.08 43.7 97.78 43.48 99.24 43.02 100.76 43.5 102.13 43.87 103.52 44.25 104.83 44.85 105.98 45.64 107.11 46.46 108.13 47.41 108.89 48.52L108.65 48.77Z" fill="#BC5D1D"/></g><path d="M81.04 69.41C80.28 70.32 79.21 71.27 79.45 72.43 79.58 73.05 80.09 73.54 80.67 73.78 81.25 74.03 81.9 74.07 82.53 74.06 83.3 74.05 84.11 73.96 84.74 73.52 85.75 72.83 86.05 71.46 85.99 70.24 85.9 68.18 84.97 65.77 83.3 64.51 82.47 66.12 82.23 67.98 81.04 69.41Z" fill="url(#SVGID_1_)"/><path d="M84.74 73.53C84.11 73.97 83.3 74.06 82.53 74.07 81.9 74.08 81.25 74.04 80.67 73.79 80.09 73.54 79.58 73.05 79.45 72.44 80.15 72.88 81.12 73.03 81.94 73.15 82.85 73.28 83.83 73.4 84.74 73.53Z" opacity="0.07"/><g><path d="M82.73 78.91C85.7 79.07 88.7 78.73 91.56 77.92 94.43 77.17 97.19 75.94 99.67 74.3L99.77 74.44C98.87 75.78 97.65 76.82 96.32 77.66 95.66 78.1 94.95 78.42 94.24 78.77 93.51 79.07 92.77 79.32 92.01 79.56 90.48 79.95 88.91 80.18 87.33 80.11 85.76 80.06 84.18 79.78 82.72 79.09L82.73 78.91Z" fill="#E08D80"/></g><g><path d="M59.61 48.52C60.37 47.41 61.39 46.47 62.52 45.64 63.68 44.85 64.98 44.25 66.37 43.87 67.74 43.5 69.26 43.02 70.72 43.48 71.43 43.7 72.14 43.98 72.8 44.51 73.45 45 74.07 45.8 74.04 46.68L73.76 46.87C73.01 46.65 72.48 46.72 71.93 46.74 71.39 46.78 70.81 46.84 70.24 46.85 69.67 46.88 69.13 46.82 68.56 46.73 68 46.61 67.41 46.55 66.82 46.56 65.65 46.62 64.46 46.82 63.28 47.17 62.09 47.51 60.96 48.08 59.85 48.77L59.61 48.52Z" fill="#BC5D1D"/></g></g><path d="M133.13 34.47C132.74 31.22 131.05 28.46 129.56 25.56 126.49 19.57 121.69 14.67 116.18 10.88 105.27 3.35 91.24-0.58 78 0.07 71.06 0.41 61.41 0.1 57.54 5.87 53.81 6.18 45.46 13.54 42.3 17.81 38.18 23.38 36.94 30.61 37.09 37.54 37.25 44.84 37.92 57.68 43.94 61.83 44.43 56.15 48.68 48.23 50.79 43.46 51.87 41.03 53.77 40.38 55.42 38.32 55.92 37.7 58.22 36.35 59.73 34.87 59.94 37.5 61.21 36.59 62.41 38.74 62.53 38.79 62.66 38.83 62.78 38.89 64.38 39.68 66 40.43 67.63 41.15 68.09 41.01 68.56 40.91 69.05 40.91 70.17 40.92 71.28 40.97 72.4 41.1 72.84 41.16 73.29 41.22 73.73 41.28 73.92 41.31 74.07 41.33 74.18 41.35 74.13 41.34 74.73 41.34 74.79 41.34 76.82 41.3 78.77 41.51 80.57 42.5 80.65 42.54 80.7 42.6 80.78 42.65 80.9 42.64 81.02 42.62 81.15 42.62 89.97 42.58 100.91 40.97 109.28 44.3 109.35 44.33 109.42 44.36 109.49 44.39 113.93 44.66 117.97 46.14 121.07 50.59 122.46 52.59 122.09 54.54 120.9 55.92 122.71 56.67 123.8 58.49 124.05 60.54 124.43 63.63 124.98 66.7 125.62 69.74 126.56 68.67 127.57 67.64 128.44 66.5 131.98 61.87 132.92 55.79 133.28 49.98 133.6 44.87 133.74 39.56 133.13 34.47Z" fill="#110802"/></g></g><g><g><g><path d="M151.02 230.08 157.36 237.43C157.36 237.43 161.8 249.57 163.48 251.47 165.39 253.63 170.08 258.95 172.64 258.14 175.2 257.33 173.05 255.65 173.05 255.65 173.05 255.65 180.99 259.1 185.7 254.31 190.42 249.52 183.89 247.57 181.54 246.36 179.83 245.48 178.41 243.81 177.1 242.44 176.55 241.86 173.92 239.85 174.73 238.89 175.58 237.88 177.9 238.86 179.04 238.83 180.86 238.78 183.18 237.05 183.25 235.12 183.29 233.81 182.77 232.65 181.52 232.47 179.7 232.22 177.8 233.55 175.82 233.24 173.51 232.88 172.78 231.55 171.09 230.33 169.77 229.38 167.3 229.57 165.7 229.54 163.39 229.49 161.07 221.66 161.07 221.66 161.07 221.66 153.84 223.19 151.02 230.08Z" fill="#F9B799"/></g><path d="M186.26 253.69C186.32 253.61 186.39 253.53 186.45 253.45 186.46 253.44 186.47 253.43 186.48 253.42 188.25 251.07 187.15 249.48 185.45 248.34 185.64 250.2 185.32 252.82 182.53 254.41 177.85 257.08 167.92 253.88 163.87 246.93 159.81 239.98 162.02 237.48 162.83 234.84 163.61 232.27 167.74 230.98 169.85 229.89 169.56 229.84 169.27 229.8 168.99 229.76 168.5 229.7 168 229.66 167.5 229.63 167.4 229.62 167.31 229.62 167.21 229.61 166.72 229.58 166.22 229.56 165.71 229.55 163.4 229.5 161.08 221.67 161.08 221.67 161.08 221.67 154.57 225.04 152.02 228.16 151.84 228.45 151.67 228.74 151.51 229.05 151.34 229.38 151.17 229.72 151.02 230.09L154.51 234.14C155.53 235.15 156.43 236.36 157.36 237.44 157.36 237.44 161.8 249.58 163.48 251.48 165.39 253.64 170.08 258.96 172.64 258.15 175.2 257.34 173.05 255.66 173.05 255.66 173.05 255.66 180.99 259.11 185.7 254.32 185.83 254.18 185.96 254.05 186.08 253.92 186.15 253.83 186.2 253.76 186.26 253.69Z" fill="#FFBDC0" opacity="0.5"/></g><g><g><g><path d="M178.67 244C178.73 244.02 178.68 244.42 178.48 244.99 178.28 245.56 177.9 246.29 177.42 246.94 176.45 248.26 175.13 249.23 175.13 249.23 175.13 249.23 174.79 249.46 174.27 249.76 173.75 250.06 173.03 250.43 172.3 250.73 170.83 251.36 169.29 251.72 169.25 251.6 169.21 251.47 170.65 250.87 171.99 250.11 172.67 249.74 173.31 249.32 173.79 249 174.26 248.67 174.56 248.44 174.56 248.44 174.56 248.44 175.86 247.63 176.89 246.51 177.41 245.96 177.85 245.34 178.14 244.84 178.42 244.34 178.59 243.98 178.67 244Z" fill="#FF6875"/></g><g><path d="M181.15 255.65C181.16 255.57 181.65 255.59 182.36 255.51 182.54 255.5 182.73 255.47 182.92 255.43 183.12 255.4 183.31 255.34 183.5 255.26 183.88 255.11 184.22 254.86 184.29 254.52 184.46 253.81 183.85 252.98 183.42 252.51 182.96 252.01 182.58 251.74 182.58 251.74 182.58 251.74 182.5 251.66 182.35 251.53 182.21 251.4 181.99 251.23 181.7 251.04 181.13 250.66 180.26 250.26 179.38 249.82 178.51 249.38 177.63 248.82 177.17 248.18 176.7 247.55 176.65 247.02 176.7 247.02 176.78 246.99 176.95 247.45 177.46 247.93 177.95 248.42 178.79 248.84 179.67 249.19 180.56 249.54 181.49 249.89 182.16 250.26 182.5 250.45 182.77 250.63 182.95 250.78 183.12 250.92 183.23 251 183.23 251 183.23 251 183.62 251.32 184.11 251.93 184.36 252.23 184.61 252.62 184.82 253.08 185.01 253.54 185.16 254.14 184.95 254.74 184.73 255.36 184.14 255.66 183.67 255.78 183.43 255.85 183.19 255.89 182.97 255.89 182.75 255.92 182.55 255.91 182.36 255.89 181.62 255.86 181.15 255.7 181.15 255.65Z" fill="#FF6875"/></g><g><path d="M168.33 251.47C168.44 251.35 170.62 253.52 173.16 255.15 174.41 255.97 175.78 256.61 176.82 256.78 177.34 256.89 177.77 256.87 178.05 256.84 178.33 256.79 178.49 256.76 178.49 256.76 178.49 256.77 178.64 256.7 178.9 256.61 179.16 256.54 179.57 256.28 179.91 255.97 180.25 255.63 180.38 255.3 180 254.79 179.64 254.3 179.02 253.86 178.4 253.46 177.14 252.66 175.76 251.99 174.78 251.38 173.78 250.8 173.23 250.21 173.29 250.16 173.33 250.12 173.92 250.58 174.96 251.04 175.98 251.54 177.39 252.11 178.75 252.86 179.42 253.25 180.11 253.65 180.64 254.29 180.9 254.6 181.12 255.04 181.08 255.53 181.04 256.01 180.78 256.35 180.56 256.6 180.07 257.08 179.66 257.34 179.29 257.49 178.93 257.64 178.73 257.73 178.73 257.71 178.73 257.71 178.51 257.74 178.14 257.8 177.77 257.83 177.22 257.82 176.62 257.67 175.4 257.41 173.99 256.64 172.75 255.72 171.49 254.81 170.36 253.76 169.56 252.93 168.77 252.11 168.28 251.51 168.33 251.47Z" fill="#FF6875"/></g><g><path d="M173.95 256.7C173.97 256.69 174.14 256.88 174.24 257.32 174.28 257.53 174.24 257.91 173.92 258.1 173.62 258.3 173.26 258.32 172.88 258.33 172.12 258.32 171.28 258.13 170.4 257.88 169.54 257.6 168.58 257.35 167.72 256.79 166 255.76 164.66 254.3 163.68 253.22 162.72 252.12 162.14 251.32 162.14 251.32 162.14 251.32 162.02 251.11 161.8 250.73 161.6 250.34 161.23 249.83 160.96 249.15 160.33 247.81 159.73 245.96 159.23 244.1 158.73 242.24 158.25 240.4 157.76 239.06 157.27 237.72 156.85 236.86 156.93 236.81 156.96 236.79 157.09 236.99 157.31 237.36 157.51 237.73 157.86 238.24 158.12 238.91 158.73 240.23 159.32 242.07 159.9 243.9 160.48 245.72 161.13 247.5 161.78 248.75 162.06 249.4 162.42 249.85 162.61 250.21 162.82 250.56 162.94 250.75 162.94 250.75 162.94 250.75 163.47 251.52 164.37 252.63 165.28 253.71 166.53 255.17 168.08 256.2 168.81 256.74 169.74 257.04 170.56 257.36 171.4 257.65 172.2 257.89 172.89 257.95 173.23 257.98 173.55 257.97 173.76 257.85 173.98 257.75 174.04 257.53 174.03 257.34 174.02 256.95 173.91 256.71 173.95 256.7Z" fill="#FF6875"/></g></g><g><g><path d="M176.44 237.46C176.48 237.5 176.16 237.86 175.6 238.3 175.04 238.75 174.21 239.21 173.33 239.59 172.44 239.94 171.5 240.19 170.77 240.27 170.41 240.34 170.1 240.33 169.89 240.35 169.67 240.36 169.55 240.37 169.55 240.37 169.55 240.37 169.43 240.36 169.21 240.33 169 240.29 168.69 240.3 168.33 240.2 167.6 240.07 166.66 239.7 165.85 239.14 165.03 238.58 164.46 237.76 164.11 237.14 163.81 236.49 163.68 236.03 163.74 236.01 163.81 235.98 164.06 236.38 164.44 236.93 164.86 237.46 165.46 238.13 166.23 238.55 166.99 238.97 167.83 239.23 168.48 239.3 168.8 239.37 169.08 239.34 169.27 239.36 169.46 239.37 169.57 239.37 169.57 239.37 169.57 239.37 169.68 239.37 169.87 239.37 170.06 239.36 170.34 239.4 170.67 239.35 171.33 239.32 172.22 239.16 173.09 238.91 173.95 238.63 174.79 238.28 175.39 237.95 176 237.65 176.39 237.4 176.44 237.46Z" fill="#FF6875"/></g><g><path d="M178.53 233.01C178.5 232.96 178.88 232.65 179.59 232.43 180.28 232.22 181.35 232.11 182.3 232.68 182.77 232.95 183.14 233.43 183.29 233.94 183.46 234.45 183.4 234.93 183.35 235.33 183.26 235.71 183.17 236.02 183.06 236.24 182.98 236.46 182.9 236.57 182.9 236.57 182.9 236.57 182.82 236.68 182.69 236.87 182.54 237.05 182.32 237.31 181.99 237.53 181.36 238.02 180.39 238.35 179.43 238.48 177.51 238.73 175.65 238.48 175.65 238.38 175.64 238.22 177.54 238.21 179.3 237.8 180.18 237.6 180.98 237.23 181.43 236.82 181.67 236.63 181.81 236.43 181.92 236.29 182.01 236.14 182.06 236.06 182.06 236.06 182.06 236.06 182.28 235.74 182.46 235.14 182.62 234.56 182.57 233.73 181.91 233.26 181.27 232.77 180.32 232.72 179.67 232.81 179 232.89 178.57 233.08 178.53 233.01Z" fill="#FF6875"/></g><g><path d="M184.95 254.87C184.9 254.79 185.54 254.42 186.18 253.58 186.8 252.78 187.38 251.34 186.81 250.14 186.33 248.88 184.96 248.44 183.94 248.11 182.9 247.78 182.2 247.43 182.2 247.43 182.2 247.43 182.04 247.34 181.76 247.18 181.49 247.01 181.07 246.82 180.62 246.49 179.68 245.9 178.52 244.97 177.49 243.92 176.48 242.84 175.64 241.63 175.1 240.68 174.57 239.72 174.29 239.05 174.34 239.03 174.47 238.95 175.88 241.5 177.97 243.43 179.02 244.38 180.16 245.2 181.08 245.72 181.52 246.01 181.94 246.18 182.21 246.33 182.49 246.47 182.64 246.55 182.64 246.55 182.64 246.55 183.22 246.88 184.23 247.26 184.73 247.45 185.36 247.68 185.98 248.08 186.63 248.46 187.17 249.14 187.43 249.89 187.75 250.65 187.65 251.49 187.44 252.17 187.32 252.52 187.19 252.83 186.99 253.1 186.84 253.39 186.62 253.61 186.44 253.83 185.68 254.65 184.96 254.91 184.95 254.87Z" fill="#FF6875"/></g></g></g></g><g><g><path d="M12.05 228.19 9.73 237.4C9.73 237.4 1.73 247.82 1.16 250.24 0.51 252.99-0.33 262.04 1.81 263.62 3.95 265.2 3.97 260.21 3.97 260.21 3.97 260.21 5.75 268.49 12.39 269.53 19.03 270.57 18.41 264.97 18.03 262.42 17.65 259.86 19.51 251 19.51 251 19.51 251 18.49 257.85 21.5 258.26 23.85 258.59 26.03 250.36 24.94 247.27 23.84 244.18 22.67 241.98 21 239.57 19.71 237.7 24.74 231.42 24.74 231.42 24.74 231.42 15.12 226.6 12.05 228.19Z" fill="#F9B799"/><g><g><path d="M15.95 268.88C15.95 268.92 15.32 268.99 14.39 268.82 13.45 268.68 12.28 268.13 11.26 267.39 10.25 266.63 9.43 265.67 8.88 264.92 8.35 264.15 8.03 263.62 8.03 263.62 8.03 263.62 7.96 263.48 7.85 263.24 7.74 262.99 7.55 262.66 7.4 262.22 7.06 261.37 6.68 260.2 6.45 259 6.24 257.8 6.12 256.59 6.19 255.68 6.23 254.77 6.39 254.18 6.44 254.19 6.52 254.2 6.49 254.8 6.57 255.68 6.62 256.56 6.84 257.73 7.13 258.86 7.43 260 7.87 261.09 8.23 261.88 8.61 262.67 8.9 263.18 8.9 263.18 8.9 263.18 9.18 263.7 9.63 264.44 10.11 265.17 10.81 266.11 11.7 266.88 12.59 267.63 13.62 268.23 14.49 268.48 15.34 268.73 15.96 268.79 15.95 268.88Z" fill="#FF6875"/></g><g><path d="M18.64 265.42C18.67 265.45 18.32 265.94 17.49 266.37 17.08 266.58 16.49 266.71 15.88 266.58 15.27 266.45 14.72 266.07 14.28 265.64 13.4 264.75 12.88 263.66 12.52 262.86 12.17 262.05 11.99 261.49 11.99 261.49 11.99 261.49 11.82 260.93 11.63 260.08 11.44 259.23 11.23 258.09 11.11 256.95 10.98 255.8 10.94 254.65 10.98 253.78 11.01 252.91 11.18 252.34 11.24 252.36 11.31 252.37 11.28 252.94 11.36 253.78 11.43 254.62 11.58 255.75 11.79 256.86 11.99 257.97 12.26 259.07 12.5 259.88 12.73 260.69 12.92 261.22 12.92 261.22 12.92 261.22 13.07 261.76 13.36 262.55 13.66 263.32 14.09 264.38 14.79 265.19 15.14 265.6 15.56 265.93 16.01 266.08 16.47 266.23 16.95 266.19 17.33 266.05 18.13 265.75 18.59 265.35 18.64 265.42Z" fill="#FF6875"/></g><g><path d="M19.3 248.55C19.33 248.55 19.38 248.81 19.45 249.29 19.48 249.53 19.54 249.83 19.54 250.16 19.54 250.5 19.54 250.89 19.54 251.31 19.5 253 19.1 255.25 18.75 257.56 18.66 258.14 18.6 258.72 18.53 259.31 18.48 259.89 18.45 260.47 18.43 261.03 18.44 262.15 18.58 263.28 18.59 264.32 18.6 265.36 18.52 266.33 18.23 267.12 17.96 267.92 17.46 268.46 17.13 268.73 17.15 268.71 17.15 268.71 17.16 268.71 16.63 269.16 16.24 269.32 16.02 269.41 15.8 269.51 15.73 269.52 15.73 269.52 15.73 269.52 15.37 269.66 14.71 269.75 14.06 269.84 13.13 269.83 12.06 269.62 11.01 269.39 9.77 268.98 8.67 268.15 7.58 267.33 6.69 266.23 5.92 265.07 4.39 262.75 3.44 260.14 3 258.14 2.77 257.14 2.7 256.28 2.68 255.68 2.68 255.08 2.73 254.74 2.76 254.74 2.84 254.74 2.81 256.1 3.37 258.04 3.92 259.97 4.95 262.5 6.5 264.68 7.27 265.77 8.16 266.79 9.16 267.49 10.15 268.2 11.27 268.54 12.24 268.73 13.21 268.9 14.03 268.89 14.58 268.8 15.13 268.71 15.41 268.6 15.41 268.6 15.41 268.6 15.46 268.59 15.64 268.51 15.81 268.44 16.11 268.32 16.51 267.99L16.54 267.97C16.77 267.78 17.13 267.44 17.37 266.8 17.62 266.17 17.73 265.29 17.75 264.3 17.77 263.3 17.67 262.2 17.69 261 17.73 260.41 17.78 259.81 17.85 259.21 17.95 258.62 18.02 258.02 18.14 257.44 18.58 255.12 19.06 252.92 19.21 251.26 19.24 250.85 19.26 250.47 19.29 250.13 19.31 249.8 19.28 249.51 19.28 249.27 19.26 248.83 19.27 248.56 19.3 248.55Z" fill="#FF6875"/></g><g><path d="M19.12 237.52C19.15 237.48 20.02 238 21.02 239.12 22.03 240.22 23.14 241.89 23.98 243.68 24.85 245.46 25.42 247.38 25.68 248.85 25.94 250.33 25.89 251.36 25.89 251.36 25.89 251.36 25.87 251.61 25.82 252.05 25.78 252.49 25.67 253.12 25.47 253.84 25.27 254.56 24.99 255.4 24.55 256.25 24.09 257.06 23.51 258.04 22.38 258.45 21.82 258.62 21.18 258.59 20.68 258.26 20.2 257.93 19.91 257.49 19.69 257.07 19.27 256.2 19.08 255.35 18.99 254.61 18.91 253.87 18.93 253.25 19 252.82 19.08 252.39 19.2 252.16 19.23 252.18 19.27 252.19 19.21 252.43 19.2 252.84 19.2 253.26 19.23 253.85 19.37 254.55 19.51 255.25 19.75 256.06 20.17 256.82 20.39 257.19 20.67 257.54 21.01 257.75 21.33 257.95 21.77 257.94 22.14 257.82 22.91 257.52 23.43 256.68 23.81 255.91 24.19 255.12 24.42 254.32 24.59 253.64 24.75 252.95 24.84 252.38 24.86 251.97 24.89 251.57 24.9 251.34 24.9 251.34 24.9 251.34 24.97 250.41 24.77 249.01 24.57 247.61 24.09 245.74 23.33 243.97 22.59 242.19 21.61 240.51 20.71 239.37 19.84 238.2 19.07 237.58 19.12 237.52Z" fill="#FF6875"/></g><g><path d="M3.92 260.35C3.95 260.35 4.02 260.6 4.04 261.05 4.05 261.5 4.04 262.16 3.78 262.92 3.64 263.29 3.44 263.75 2.9 263.99 2.33 264.22 1.76 263.94 1.35 263.62 0.91 263.26 0.66 262.72 0.54 262.21 0.41 261.68 0.38 261.15 0.37 260.63 0.37 260.12 0.37 259.61 0.38 259.11 0.38 258.63 0.31 258.19 0.26 257.69 0.2 257.21 0.15 256.75 0.1 256.31 0.08 255.86 0.06 255.44 0.04 255.06-0.03 254.28 0.06 253.63 0.08 253.17 0.11 252.71 0.13 252.45 0.13 252.45 0.13 252.45 0.13 252.38 0.15 252.26 0.18 252.14 0.22 251.96 0.28 251.74 0.34 251.52 0.4 251.24 0.48 250.93 0.56 250.62 0.62 250.26 0.81 249.9 1.43 248.4 2.58 246.7 3.77 245.01 4.95 243.33 6.2 241.7 7.14 240.48 8.09 239.27 8.72 238.46 8.78 238.5 8.92 238.59 6.57 241.96 4.35 245.38 3.25 247.09 2.16 248.85 1.66 250.2 1.5 250.52 1.45 250.86 1.39 251.16 1.33 251.45 1.27 251.7 1.23 251.92 1.18 252.13 1.15 252.29 1.12 252.4 1.1 252.51 1.1 252.58 1.1 252.58 1.1 252.58 1.08 252.83 1.04 253.25 1.01 253.68 0.91 254.29 0.95 255.04 0.96 255.42 0.96 255.82 0.97 256.25 1 256.68 1.04 257.14 1.08 257.61 1.12 258.06 1.18 258.6 1.15 259.12 1.13 259.62 1.1 260.13 1.08 260.64 1.05 261.62 1.12 262.66 1.74 263.23 2.04 263.5 2.47 263.7 2.76 263.58 3.08 263.48 3.31 263.13 3.45 262.8 3.98 261.41 3.83 260.34 3.92 260.35Z" fill="#FF6875"/></g></g></g><path d="M20.99 239.59C20.13 238.35 22.05 235.18 23.45 233.18 23.18 231.68 22.88 230.59 22.55 230.43 22.53 230.42 22.51 230.41 22.48 230.4 21.63 230.19 15.95 230.05 11.58 230.05L9.73 237.41C9.73 237.41 1.73 247.83 1.16 250.25 0.51 253-0.33 262.05 1.81 263.63 3.95 265.21 3.97 260.22 3.97 260.22 3.97 260.22 5.75 268.5 12.39 269.54 17.35 270.32 18.26 267.39 18.24 264.79 17.29 265.96 14.42 268.86 10.46 267.07 5.57 264.85 2.43 255.13 5.75 247.97 9.07 240.81 12.38 241.15 15 240.3 16.87 239.69 20.97 241.87 23.16 243.16 22.53 241.92 21.82 240.78 20.99 239.59Z" fill="#FFBDC0" opacity="0.5"/></g><g><g><path d="M7.42 226.09C7.42 226.09 19.64 234.97 29.06 228.99 29.06 228.99 35.61 187.88 39.01 183.46 42.94 178.34 54.72 157.01 54.72 157.01 54.72 157.01 66.5 131.12 43.99 112.09 43.99 112.09 21.48 152.18 16.24 166.32 10.99 180.46 9.51 203.79 7.42 226.09Z" fill="#5E5E5C"/><path d="M48.43 116.44C52.88 125.65 55.24 144.07 52.1 150.21 48.96 156.35 42.42 158.65 38.49 165.81 34.56 172.97 25.92 214.41 17.29 215.95 12.31 216.83 10.2 210.66 9.36 205.08 8.69 211.98 8.09 219.09 7.43 226.1 7.43 226.1 19.65 234.98 29.07 229 29.07 229 35.62 187.89 39.02 183.47 42.95 178.35 54.73 157.02 54.73 157.02 54.73 157.02 64.78 134.84 48.43 116.44Z" fill="#5E5E5C" opacity="0.4"/><g><g><path d="M12.65 191.82C12.57 191.83 12.27 190.76 12.07 189.11 11.84 187.46 11.82 185.24 11.94 183.02 12.09 180.81 12.44 178.61 12.76 176.98 13.1 175.35 13.37 174.27 13.37 174.27 13.37 174.27 13.69 173.21 14.23 171.64 14.78 170.07 15.59 168.01 16.53 166 18.38 161.97 20.85 158.28 21.02 158.39 21.2 158.5 19.07 162.34 17.49 166.4 16.69 168.43 15.99 170.48 15.53 172.04 15.07 173.6 14.8 174.65 14.8 174.65 14.8 174.65 14.49 175.69 14.09 177.27 13.7 178.85 13.26 180.97 12.97 183.12 12.72 185.27 12.58 187.44 12.64 189.07 12.67 190.71 12.77 191.8 12.65 191.82Z" fill="#5E5E5C"/></g><g><path d="M25.22 226.26C25.31 226.44 23.29 227.38 21.08 227.66 18.89 228.01 16.65 227.78 16.65 227.78 16.65 227.78 16.1 227.69 15.29 227.49 14.48 227.28 13.41 226.94 12.41 226.44 11.42 225.92 10.5 225.29 9.94 224.67 9.37 224.07 9.11 223.59 9.17 223.54 9.26 223.46 9.66 223.82 10.31 224.25 10.94 224.7 11.88 225.15 12.83 225.51 13.8 225.85 14.81 226.08 15.57 226.19 16.33 226.31 16.85 226.35 16.85 226.35 16.85 226.35 18.89 226.72 21 226.64 23.09 226.64 25.14 226.08 25.22 226.26Z" fill="#5E5E5C"/></g><g><path d="M42.32 167.26C42.37 167.28 42.25 167.8 42.02 168.71 41.79 169.62 41.43 170.9 41 172.44 40.78 173.21 40.54 174.04 40.29 174.92 40.03 175.8 39.87 176.75 39.63 177.72 39.19 179.67 38.72 181.75 38.25 183.82 37.38 188 36.54 192.18 35.78 195.31 35.05 198.44 34.56 200.52 34.56 200.52 34.56 200.52 33.97 202.55 33.28 205.65 32.58 208.75 31.84 212.92 31.27 217.13 30.97 219.23 30.7 221.35 30.38 223.33 30.04 225.3 29.69 227.18 28.93 228.68 28.56 229.42 28.03 230.06 27.39 230.4 26.76 230.74 26.12 230.79 25.63 230.74 25.14 230.7 24.77 230.6 24.53 230.51 24.28 230.43 24.16 230.37 24.17 230.35 24.19 230.28 24.72 230.45 25.65 230.45 26.11 230.45 26.66 230.35 27.18 230.03 27.69 229.71 28.12 229.14 28.42 228.44 29.04 227.03 29.32 225.18 29.57 223.22 29.81 221.25 30.01 219.13 30.24 217.01 30.68 212.77 31.32 208.53 31.96 205.38 32.59 202.23 33.15 200.16 33.15 200.16 33.15 200.16 33.68 198.1 34.47 195 35.3 191.92 36.24 187.75 37.24 183.6 37.79 181.53 38.33 179.46 38.84 177.52 39.11 176.55 39.32 175.61 39.62 174.73 39.92 173.86 40.2 173.03 40.46 172.27 40.98 170.75 41.42 169.48 41.75 168.61 42.07 167.74 42.27 167.24 42.32 167.26Z" fill="#5E5E5C"/></g><g><path d="M53.49 125.31C53.53 125.28 53.85 125.74 54.38 126.56 54.93 127.37 55.58 128.6 56.28 130.13 56.6 130.9 56.99 131.73 57.25 132.65 57.39 133.11 57.56 133.57 57.7 134.06 57.82 134.55 57.94 135.05 58.06 135.56 58.48 137.61 58.75 139.86 58.67 142.1 58.6 144.34 58.3 146.57 57.84 148.62 57.34 150.66 56.79 152.55 56.18 154.11 55.6 155.69 55.05 156.97 54.64 157.86 54.24 158.75 54 159.26 54 159.26 54 159.26 53.02 161.27 51.36 164.16 49.71 167.06 47.35 170.82 44.97 174.55 42.6 178.29 40.28 182.05 38.71 184.96 37.12 187.86 36.23 189.88 36.12 189.84 36.07 189.82 36.25 189.3 36.58 188.39 36.92 187.48 37.46 186.21 38.19 184.71 39.61 181.7 41.8 177.84 44.06 174.03 46.32 170.22 48.59 166.43 50.15 163.52 51.73 160.62 52.65 158.64 52.65 158.64 52.65 158.64 52.89 158.15 53.3 157.28 53.72 156.42 54.28 155.17 54.88 153.64 55.51 152.12 56.09 150.3 56.62 148.34 57.12 146.36 57.47 144.22 57.6 142.05 57.75 139.88 57.55 137.71 57.23 135.7 57.13 135.2 57.03 134.71 56.94 134.22 56.83 133.74 56.69 133.28 56.56 132.83 56.34 131.92 56 131.09 55.73 130.32 54.55 127.27 53.36 125.38 53.49 125.31Z" fill="#5E5E5C"/></g></g><g><path d="M16.58 180.17C17.08 180.28 17.32 181.13 17.12 182.07 16.92 183.01 16.35 183.69 15.85 183.59 15.35 183.49 15.11 182.64 15.31 181.7 15.51 180.75 16.08 180.07 16.58 180.17Z" fill="#5E5E5C"/><path d="M19.01 173.17C19.77 173.43 19.96 174.82 19.43 176.26 18.91 177.71 17.87 178.67 17.11 178.4 16.36 178.14 16.17 176.76 16.69 175.31 17.22 173.87 18.26 172.91 19.01 173.17Z" fill="#5E5E5C"/></g></g></g></svg>