<svg width="277.7" height="521.72" viewBox="0 0 277.7 521.72" xmlns="http://www.w3.org/2000/svg" xmlns:xlink="http://www.w3.org/1999/xlink" xml:space="preserve" overflow="hidden"><defs></defs><g><path d="M128.01 25.06C144.32 15.59 160 8.76 179.24 13.11 191.55 15.89 205.31 21.75 212.33 32.8 220.79 46.1 221.08 67.65 236.49 75.8 247.5 81.63 257.16 73.87 267.81 72.69 280.99 71.24 278.23 84.57 275.11 92.47 270.91 103.1 261.59 115.58 252.08 121.83 244.93 126.53 238.8 121.7 233.19 117.23 225.18 110.85 220.98 116.78 213.85 121 206.75 125.2 201.9 124.37 196.12 118.62 187.29 109.83 186.07 101.09 183.27 89.33 182.06 84.21 180.97 78.04 176.34 75.09 172.3 72.51 167.44 73.71 163.03 72.68 152.48 70.22 138.98 59.42 134.58 49.57 131.38 42.41 128.3 25.18 136.16 20.28" fill="#3F1023"/><path d="M128.01 25.06C130.34 23.7 132.66 22.41 134.98 21.19 135.34 20.85 135.73 20.53 136.16 20.26L128.01 25.06Z" fill="#60253E"/><path d="M187.9 73.35C189.08 69.77 190.31 63.2 193.99 61.03 200.02 57.48 209.91 58.87 213.13 51.29 215.16 46.5 215.08 41.37 214.27 36.32 213.66 35.11 213.03 33.91 212.32 32.8 211.36 31.28 210.25 29.87 209.05 28.54 208.01 40.98 203.12 53.01 190.05 53.8 183.6 54.19 183.66 71.57 180.61 76.35 180.23 76.95 179.76 77.46 179.24 77.91 181.13 80.59 182.02 84.06 182.79 87.35 184.82 82.93 186.3 78.24 187.9 73.35Z" fill="#60253E"/><g><path d="M127.26 133.73C127.26 133.73 139.71 138.76 150.57 147.83 163.56 158.69 176.25 175.01 189.42 191 213.59 220.36 192.9 310.41 191.15 327.98 188.21 357.39 143.94 357.46 131.87 330.28 129.77 325.54 135 310.03 135.9 302.65 143.38 241.65 166.98 221.79 127.26 133.73Z" fill="#B35881"/></g><g><path d="M135.9 302.65C135 310.03 129.77 325.54 131.87 330.28 136.09 339.78 144.24 345.94 153.2 348.69 163.18 332.79 168.47 305.47 170.33 295.91 178.53 253.82 179.44 207.58 168.57 165.95 162.59 159.13 156.61 152.88 150.58 147.83 139.72 138.76 127.27 133.73 127.27 133.73 166.98 221.79 143.38 241.65 135.9 302.65Z" fill="#AB326B"/></g><g><path d="M174.46 278.48C174.46 278.48 164.1 327.4 156.04 343.51 156.04 343.51 175.03 355.02 189.99 333.15 204.96 311.28 198.63 283.66 198.63 283.66L174.46 278.48Z" fill="#CA6F99"/></g><g><path d="M151.58 16.74C152.68 16.92 153.75 17.16 154.71 17.53 154.71 17.53 147.11 13.17 151.58 16.74Z" fill="#A15030"/></g><g><g><g><g><path d="M43.87 234.77C41.22 234.65 40.45 235.03 35.26 230.49 31.2 226.94 30.46 222.88 31.74 219.63 54.72 177.64 82.13 147.94 92.98 149.83 110.76 152.92 99.54 170.96 99.54 170.96 99.54 170.96 79.08 200.01 60.8 221.47 55.51 227.68 52.25 230.51 46.97 236.34 46.99 236.35 43.87 234.77 43.87 234.77Z" fill="#F1AE9E"/></g></g><g><g><g><path d="M97.24 143.39C86.9 142.44 57.32 168.97 38.69 204.44 42.7 213.47 58.56 223.69 69.17 224.96 85.71 201.45 104.05 170.39 104.05 170.39 104.05 170.39 116.95 145.2 97.24 143.39Z" fill="#F0F0F0"/></g></g></g></g><path d="M107.55 130.66C107.55 130.66 104.31 130.51 93.06 137.45L83.81 152.09C83.81 152.09 100.56 151.99 107.47 142.3 107.47 142.3 113.71 133.33 107.55 130.66Z" fill="#EDEDED"/><g><g><path d="M100.52 410.23C100.52 410.23 102.51 416.02 187.06 455.03 198.65 460.37 198.04 444.39 198.04 444.39 198.04 444.39 132.97 389.77 121.25 383.63 109.53 377.5 100.52 410.23 100.52 410.23Z" fill="#DCA091"/></g></g><g><g><path d="M151.35 406.07C148.21 415.34 142.77 424.18 137.42 431.34 149.55 437.4 165.66 445.14 187.07 455.02 198.66 460.36 198.05 444.38 198.05 444.38 198.05 444.38 173.13 423.47 151.35 406.07Z" fill="#F4F4F4"/></g></g><g><g><path d="M155.19 409.15C153.91 408.12 152.62 407.09 151.35 406.07 148.21 415.34 142.77 424.18 137.42 431.34 138.84 432.05 140.33 432.79 141.86 433.55 147.6 425.89 152.9 418.03 155.19 409.15Z" fill="#191A3E"/><path d="M149.92 437.06C154.73 431.23 158.99 424.93 161.84 417.9 162.2 417.01 162.48 416.12 162.73 415.24 161.53 414.27 160.33 413.3 159.13 412.32 156.52 420.7 151.54 428.29 146.1 435.63 147.28 436.21 148.51 436.8 149.74 437.41 149.81 437.29 149.83 437.17 149.92 437.06Z" fill="#191A3E"/></g></g><g><g><path d="M84.43 400.19C84.43 400.19 82.14 405.62 97.37 497.49 99.46 510.07 112.34 500.59 112.34 500.59 112.34 500.59 119.6 417.13 118.09 403.99 116.58 390.85 84.43 400.19 84.43 400.19Z" fill="#F1AE9E"/></g></g><g><g><path d="M113.33 430.75C104.18 431.91 95.46 430.71 86.83 428.35 88.7 442.8 91.91 464.58 97.36 497.48 99.45 510.07 112.33 500.59 112.33 500.59 112.33 500.59 115.96 458.9 117.55 429.81 116.22 430.23 114.83 430.56 113.33 430.75Z" fill="#FFFFFF"/></g></g><g><g><path d="M117.28 434.75C117.38 433.07 117.47 431.42 117.56 429.82 116.23 430.24 114.83 430.57 113.34 430.76 104.19 431.92 95.47 430.72 86.84 428.36 87.08 430.21 87.34 432.18 87.62 434.27 97.75 436.89 107.51 437.12 117.28 434.75Z" fill="#191A3E"/><path d="M116.6 445.43C116.73 443.48 116.86 441.53 116.98 439.62 107.53 441.72 98.02 441.52 88.32 439.25 88.56 440.96 88.82 442.75 89.09 444.62 97.68 446.39 107.65 447.04 116.6 445.43Z" fill="#191A3E"/></g></g><g><path d="M85.25 412.93C85.25 412.93 75.79 322.91 77.02 294.97L134.07 296.41C134.07 296.41 135.32 311.71 132.69 334.48 129.4 363.07 120.64 402.09 118.02 418.42 118.03 418.43 98.85 432.36 85.25 412.93Z" fill="#F1AE9E"/></g><g><path d="" fill="#F1AE9E"/></g><g><path d="M121.99 97.62C113.53 92.09 97.84 101.02 97.84 101.02L97.5 146.25C97.5 146.25 127.59 152.33 127.27 145.78 126.55 130.98 127.83 101.44 121.99 97.62Z" fill="#F1AE9E"/></g><g><path d="M110.15 132.43C104.91 135.15 100.56 139.59 97.57 144.66 97.55 144.7 97.53 144.75 97.51 144.79L97.84 101.03C97.84 101.03 113.53 92.1 121.99 97.63 124.87 99.51 126.84 116.06 126.94 131.62 121.5 131.03 115.45 129.67 110.15 132.43Z" fill="#E4A191"/></g><g><path d="M81.71 19.89C85.06 13.72 80.44 13.28 87.78 11.14 95.29 8.95 103.34 8.14 111.34 8.41 119.33 8.15 121.98 16.78 129.48 18.96 133.42 20.11 136.91 21.46 139.93 23.94 143.58 26.94 143.07 29.8 144.29 33.77 145.07 36.27 146.32 38.59 147.25 41.05 148.9 45.43 150.71 50.1 151.33 54.68 152.6 64.05 151.99 73.33 150.5 82.62 148.99 92.03 148.4 94.89 141.55 102.81 132.49 113.3 127.54 125.93 105.59 125.82 96.5 125.78 81.98 126.56 78.92 117.4 74.85 105.18 74.4 99.57 72.44 96.47 70.66 93.65 64.38 92.99 63.15 90.25 62.74 89.35 68.89 80.74 69.01 75.92 69.1 72.47 67.6 60.06 67.44 56.85 66.33 35.2 75.24 31.8 81.71 19.89Z" fill="#F1AE9E"/></g><path d="M162.01 28.7C161.18 26.76 160.27 24.87 159.24 23.05 149.35 5.38 123.09-1.27 104.47 0.19 97.37 0.75 90.19 1.76 83.74 4.76 76.54 8.1 70.17 12.78 66.13 19.76 62.37 26.25 61.37 33.17 65.97 39.35 68.94 43.36 74.05 46.71 78.61 48.76 80.48 49.6 82.44 50.38 84.42 50.97 87.99 52.03 91.44 53.21 94.86 54.66 98.57 56.23 103.34 56.84 106.32 59.65 109.37 62.51 112.15 65.98 115.22 68.93 115.42 71.07 117.26 77.61 119.17 79.78 123.99 85.26 131.64 70.56 136.21 69.95 138.27 69.67 139.26 73.1 139.42 74.65 139.9 79.17 136.72 83.58 134.72 87.37 130.38 95.57 127.4 110.19 130.99 119.07 141.86 119.91 154.36 103.06 158.82 94.55 168.69 75.76 170.64 49.1 162.01 28.7Z" fill="#3F1023"/><path d="M64.64 32.77C94.74 47.2 135.04 43.66 157.82 21.09 154.87 17.3 151.32 14.04 147.36 11.28 142.46 19.93 135.38 26.75 124.59 30.41 102.98 37.73 83.44 35.36 63.95 24.52 63.03 27.22 62.7 29.94 63.11 32.61 63.59 32.51 64.11 32.52 64.64 32.77Z" fill="#60253E"/><g><g><path d="M146.66 78.22C145.09 86.84 132.82 98.53 129.56 91.23 127.57 86.76 127.62 81.53 129.19 72.91 130.77 64.29 127.41 58.57 135.27 60 143.14 61.44 148.23 69.6 146.66 78.22Z" fill="#F1AE9E"/></g><g><path d="M134.11 67.94C133.97 67.91 133.83 67.93 133.69 67.91 133.65 67.98 133.63 68.05 133.57 68.12 130.98 71.12 132.55 77.33 132.5 80.92 132.49 82.45 132.38 83.95 132.21 85.44 136.01 85.43 139.47 82.38 140.26 78.06 141.15 73.26 138.39 68.72 134.11 67.94Z" fill="#EE7379"/></g></g><g><path d="M154.34 187.66C154.34 172.38 139.33 144.42 127.29 139.6 120.38 149.67 108.6 148.03 98.92 143.77 98.1 143.41 97.78 142.8 97.74 142.15 85.2 149.04 75.29 161.8 72.9 176.71 71.17 187.5 69.45 206.49 67.72 234.99 67.55 237.72 67.55 299.18 69.45 299.73 69.45 299.73 84.72 306.42 110.45 306.64 136.19 306.86 153.62 304.48 153.62 304.48 155.54 274.4 154.34 206.07 154.34 187.66Z" fill="#FFFFFF"/></g><g><g><path d="M80.09 90.83C81.31 94.91 87.04 96.8 92.87 95.06 98.71 93.31 102.46 88.59 101.24 84.51 100.02 80.43 94.29 78.54 88.45 80.29 82.61 82.02 78.87 86.75 80.09 90.83Z" fill="#EE9592"/></g></g><g><path d="M77.1 71.84C77.1 75.13 78.83 77.8 80.96 77.8 83.09 77.8 84.82 75.13 84.82 71.84 84.82 68.55 83.09 65.88 80.96 65.88 78.83 65.88 77.1 68.55 77.1 71.84Z" fill="#3A0D00"/></g><g><path d="M87.63 98.89C88.37 109.63 77.81 114.44 77.81 114.44L74.41 101.83 87.63 98.89Z" fill="#FFFFFF"/></g><g><g><path d="M113.2 513.79 113.04 519.16C113.04 519.16 77.25 524.83 63.91 519.31 63.91 519.31 58.55 517.7 61.53 512.03 63.8 507.72 113.2 513.79 113.2 513.79Z" fill="#461603"/></g><g><path d="M113.2 499.61 113.2 515.55C113.2 515.55 81.16 521.53 63.22 515.86 63.22 515.86 54.02 511.87 73.64 506.35 93.27 500.83 97.43 497.79 97.43 497.79 97.43 497.79 106.14 505.82 113.2 499.61Z" fill="#6D3F1D"/></g><g><path d="M107.2 516.5C110.89 515.98 113.2 515.55 113.2 515.55L113.2 508.7C110.14 510.83 107.99 513.32 107.2 516.5Z" fill="#5E3516"/></g><g><path d="M77.74 511.5C82.47 511.15 86.84 509.93 90.99 507.58 94.78 505.42 98.88 503.35 102.39 500.82 99.65 499.59 97.44 497.81 97.44 497.81 97.44 497.81 93.28 500.85 73.65 506.37 71.91 506.86 70.41 507.33 69.1 507.8 68.14 511.12 75.68 511.65 77.74 511.5Z" fill="#8D5129"/></g><g><path d="M89.15 501.08C89.15 501.08 93.3 501.32 96.41 504.87" stroke="#BA6236" stroke-width="1.1819" stroke-linecap="round" stroke-linejoin="round" stroke-miterlimit="10" fill="none"/></g><g><path d="M84.42 502.93C84.42 502.93 88.57 503.17 91.68 506.71" stroke="#BA6236" stroke-width="1.1819" stroke-linecap="round" stroke-linejoin="round" stroke-miterlimit="10" fill="none"/></g><g><path d="M78.87 504.98C78.87 504.98 83.02 505.22 86.13 508.76" stroke="#BA6236" stroke-width="1.1819" stroke-linecap="round" stroke-linejoin="round" stroke-miterlimit="10" fill="none"/></g><path d="M92.01 501.38C92.01 499.66 92.14 497.72 91.64 496.07 91.33 495.06 90.79 493.61 89.77 493.09 88.03 492.19 87.66 493.77 88.1 495.17 88.66 496.93 90.05 498.77 91.26 500.16 91.76 500.73 92.02 501.16 92.26 501.88" stroke="#BA6236" stroke-width="1.1819" stroke-linecap="round" stroke-linejoin="round" stroke-miterlimit="10" fill="none"/><path d="M102.31 500.99C102.31 500.99 103.88 496.51 100.87 495.24 94.76 492.65 96.56 498.01 96.56 498.01 96.56 498.01 96.04 501.71 102.31 500.99Z" fill="#8D5129"/><path d="M91.95 501.57C93.27 499.4 95.05 495.79 98.16 496.02 99.23 496.1 99.43 497.16 98.95 498.03 98.13 499.51 96.31 500.49 94.75 500.96 94.12 501.15 92.58 501.14 92.12 501.51" stroke="#BA6236" stroke-width="1.1819" stroke-linecap="round" stroke-linejoin="round" stroke-miterlimit="10" fill="none"/></g><g><g><path d="M205.58 445.41 210.45 447.68C210.45 447.68 201.49 482.8 191.15 492.86 191.15 492.86 187.54 497.15 183.52 492.16 180.46 488.37 205.58 445.41 205.58 445.41Z" fill="#461603"/></g><g><path d="M192.56 439.8 207.2 446.11C207.2 446.11 200.01 477.9 187.7 492.12 187.7 492.12 180.4 498.99 183.09 478.78 185.79 458.58 184.65 453.55 184.65 453.55 184.65 453.55 195.47 448.74 192.56 439.8Z" fill="#6D3F1D"/></g><g><path d="M205.69 452C206.68 448.4 207.2 446.11 207.2 446.11L200.91 443.4C201.65 447.05 203.09 450.01 205.69 452Z" fill="#5E3516"/></g><g><path d="M189.44 477.07C191 472.59 191.6 468.1 191.08 463.35 190.6 459.01 190.32 454.43 189.39 450.21 187.17 452.24 184.66 453.56 184.66 453.56 184.66 453.56 185.8 458.59 183.1 478.79 182.86 480.59 182.7 482.16 182.61 483.54 185.29 485.74 188.77 479.02 189.44 477.07Z" fill="#8D5129"/></g><g><path d="M184.39 462.47C184.39 462.47 186.25 458.76 190.73 457.3" stroke="#BA6236" stroke-width="1.1819" stroke-linecap="round" stroke-linejoin="round" stroke-miterlimit="10" fill="none"/></g><g><path d="M184.21 467.55C184.21 467.55 186.07 463.83 190.56 462.38" stroke="#BA6236" stroke-width="1.1819" stroke-linecap="round" stroke-linejoin="round" stroke-miterlimit="10" fill="none"/></g><g><path d="M183.9 473.46C183.9 473.46 185.77 469.74 190.25 468.29" stroke="#BA6236" stroke-width="1.1819" stroke-linecap="round" stroke-linejoin="round" stroke-miterlimit="10" fill="none"/></g><path d="M185.8 459.96C184.22 459.28 182.49 458.39 180.78 458.21 179.73 458.09 178.19 458.02 177.31 458.74 175.79 459.98 177.1 460.95 178.56 461.09 180.4 461.27 182.64 460.73 184.4 460.17 185.12 459.94 185.62 459.87 186.38 459.94" stroke="#BA6236" stroke-width="1.1819" stroke-linecap="round" stroke-linejoin="round" stroke-miterlimit="10" fill="none"/><path d="M189.52 450.35C189.52 450.35 186.03 447.14 183.67 449.39 178.86 453.98 184.51 454.45 184.51 454.45 184.51 454.45 187.7 456.39 189.52 450.35Z" fill="#8D5129"/><path d="M185.95 460.09C184.48 458.03 181.86 454.96 183.31 452.19 183.8 451.24 184.86 451.47 185.47 452.26 186.5 453.6 186.68 455.66 186.49 457.28 186.42 457.94 185.8 459.34 185.96 459.91" stroke="#BA6236" stroke-width="1.1819" stroke-linecap="round" stroke-linejoin="round" stroke-miterlimit="10" fill="none"/></g></g><g><g><path d="M68.35 274.34C46.86 320.49 30.28 434.77 28.01 449.43 27.98 444.57 31.09 485.88 110.98 492.84 184.67 486.78 198.61 428.19 198.49 432.2 198.18 432.5 169.1 332.53 151.88 274.95 124.23 285.7 95.94 285.49 68.35 274.34Z" fill="#298ECA"/><path d="M68.35 274.34C46.86 320.49 30.28 434.77 28.01 449.43 27.98 444.57 31.09 485.88 110.98 492.84 184.67 486.78 198.61 428.19 198.49 432.2 198.18 432.5 169.1 332.53 151.88 274.95 124.23 285.7 95.94 285.49 68.35 274.34Z" fill="#298ECA"/></g><g><path d="M196.93 427.29C195.6 422.88 193.46 415.72 190.79 406.67 139.75 432.34 85.97 432.2 34.96 406.27 33.55 414.42 32.32 421.84 31.3 428.23 85.44 457.13 142.87 456.82 196.93 427.29Z" fill="none"/><path d="M158.15 295.97C155.95 288.56 153.85 281.46 151.89 274.93 124.23 285.69 95.94 285.48 68.34 274.33 65.76 279.87 63.26 286.41 60.84 293.61 93.01 304.35 125.89 305.15 158.15 295.97Z" fill="none"/><path d="M171.38 340.76C169.26 333.54 167.11 326.29 165 319.13 128.27 331.23 90.61 330.32 54.01 316.46 52.12 323.47 50.3 330.74 48.56 338.16 88.99 354.94 130.82 355.82 171.38 340.76Z" fill="none"/><path d="M29.4 452.45C33.49 461.78 49.48 487.48 110.99 492.83 146.4 489.91 167.98 474.87 180.87 460.48 130.94 482.19 78.77 479.48 29.4 452.45Z" fill="none"/><path d="M184.26 384.54C182.29 377.85 180.21 370.76 178.04 363.4 133.71 381.84 87.69 381.1 43.49 361.23 41.95 368.64 40.5 375.97 39.16 383.08 86.74 405.88 136.59 406.38 184.26 384.54Z" fill="none"/><path d="M198.43 432.04C198.45 432.1 198.49 432.2 198.49 432.19 198.5 432.03 198.48 432 198.43 432.04Z" fill="#296C92"/><path d="M28.01 449.42C28.02 449.31 28.05 449.16 28.07 449.05 28.02 448.99 28.01 449.11 28.01 449.42Z" fill="#296C92"/><path d="M180.86 460.48C193.72 446.12 197.91 432.43 198.43 432.04 198.27 431.66 197.76 430.02 196.93 427.29 142.86 456.82 85.43 457.13 31.3 428.22 29.67 438.34 28.57 445.75 28.07 449.04 28.18 449.18 28.52 450.44 29.4 452.44 78.77 479.48 130.94 482.19 180.86 460.48Z" fill="#296C92"/><path d="M190.79 406.67C188.86 400.15 186.65 392.66 184.26 384.54 136.59 406.37 86.74 405.88 39.16 383.08 37.62 391.2 36.21 399.02 34.95 406.27 85.97 432.2 139.75 432.34 190.79 406.67Z" fill="#296C92"/><path d="M178.04 363.4C175.87 356.04 173.63 348.43 171.38 340.76 130.82 355.82 88.99 354.94 48.57 338.16 46.79 345.79 45.09 353.55 43.5 361.23 87.69 381.1 133.71 381.84 178.04 363.4Z" fill="#296C92"/><path d="M165 319.13C162.66 311.21 160.36 303.43 158.14 295.97 125.88 305.15 93 304.34 60.83 293.61 58.46 300.66 56.19 308.36 54 316.46 90.62 330.33 128.27 331.23 165 319.13Z" fill="#296C92"/></g><g><path d="M68.35 274.34C67.51 276.14 66.68 278.08 65.86 280.08 64.48 341.26 56 401.23 47.4 473.24 53.7 477.7 62.03 482.07 73.06 485.63 78.3 406.17 83.11 342.93 83.84 279.31 78.65 277.99 73.48 276.42 68.35 274.34Z" fill="none"/><path d="M125.33 281.75C126.02 345.2 130.06 408.63 134.49 488.69 144.58 485.88 153.16 481.99 160.42 477.54 152.28 402.38 144.34 340.7 143.22 277.87 137.28 279.68 131.31 280.94 125.33 281.75Z" fill="none"/><path d="M28.07 449.05C28.25 449.28 29.05 452.55 31.92 457.24 39.08 411.84 46.38 370.44 50.63 329.57 38.35 379.45 29.78 437.91 28.07 449.05Z" fill="none"/><path d="M95.59 281.64C95.2 345.21 92.93 408.95 90.38 490.01 96.61 491.21 103.45 492.17 110.98 492.83 113.05 492.66 115.06 492.43 117.04 492.18 115.33 410.46 113.8 346.42 113.54 282.71 107.55 282.86 101.57 282.5 95.59 281.64Z" fill="none"/><path d="M195.86 423.74C188.87 400.46 169.38 333.73 155.28 286.29 157.45 343.67 167.12 399.89 176.56 464.98 190.45 451.44 196.15 437.33 197.87 433.21 197.21 430.04 196.53 426.88 195.86 423.74Z" fill="none"/><path d="M28.01 449.42C28.02 449.31 28.05 449.16 28.07 449.05 28.02 448.99 28.01 449.11 28.01 449.42Z" fill="none"/><path d="M50.64 329.58C46.39 370.45 39.09 411.85 31.93 457.25 34.7 461.76 39.42 467.57 47.4 473.24 56 401.24 64.48 341.26 65.86 280.08 60.37 293.4 55.24 310.87 50.64 329.58Z" fill="#296C92"/><path d="M83.83 279.3C83.1 342.92 78.3 406.15 73.05 485.62 78.22 487.29 83.96 488.78 90.38 490.01 92.93 408.95 95.2 345.22 95.59 281.64 91.66 281.08 87.74 280.29 83.83 279.3Z" fill="#296C92"/><path d="M113.54 282.71C113.81 346.42 115.33 410.47 117.04 492.18 123.31 491.38 129.11 490.19 134.49 488.69 130.06 408.62 126.02 345.2 125.33 281.75 121.4 282.29 117.48 282.61 113.54 282.71Z" fill="#296C92"/><path d="M151.89 274.94C149 276.06 146.11 276.99 143.22 277.87 144.33 340.7 152.27 402.37 160.42 477.54 166.75 473.65 172.08 469.35 176.56 464.97 167.12 399.88 157.45 343.66 155.28 286.28 154.1 282.36 152.98 278.56 151.89 274.94Z" fill="#296C92"/><path d="M198.43 432.04C198.45 432.1 198.49 432.2 198.49 432.19 198.5 432.03 198.48 432 198.43 432.04Z" fill="#296C92"/><path d="M198.43 432.04C198.21 431.51 197.31 428.57 195.86 423.74 196.53 426.89 197.2 430.04 197.87 433.21 198.17 432.5 198.35 432.1 198.43 432.04Z" fill="#296C92"/></g></g><path d="M76.46 52.75C76.46 52.75 76.81 52.71 77.67 52.75 78.53 52.74 79.57 52.92 80.87 53.09 82.11 53.44 83.61 53.64 85.06 54.27 85.8 54.55 86.56 54.84 87.33 55.14 88.06 55.52 88.8 55.91 89.54 56.3 90.26 56.72 91.04 57.04 91.69 57.52 92.35 58 93 58.46 93.63 58.91 94.25 59.36 94.86 59.8 95.43 60.21 95.96 60.67 96.43 61.15 96.88 61.56 98.66 63.24 99.84 64.36 99.84 64.36 100.08 64.59 100.09 64.98 99.86 65.22 99.64 65.45 99.29 65.47 99.04 65.28L99 65.23C99 65.23 97.75 64.26 95.88 62.81 95.41 62.45 94.92 62.04 94.37 61.65 93.79 61.31 93.17 60.95 92.54 60.58 91.91 60.21 91.26 59.83 90.59 59.44 89.93 59.05 89.18 58.82 88.48 58.5 87.76 58.21 87.05 57.91 86.36 57.62 85.64 57.43 84.91 57.23 84.22 57.04 82.86 56.58 81.52 56.56 80.43 56.35 79.32 56.32 78.37 56.24 77.83 56.32 77.29 56.33 76.84 56.41 76.84 56.41 75.83 56.59 74.87 55.92 74.69 54.91 74.51 53.9 75.19 52.94 76.2 52.76 76.25 52.75 76.29 52.75 76.33 52.74L76.46 52.75Z" fill="#3F1023"/><path d="M138.13 92.3C138.71 94.72 137.23 97.15 134.81 97.74 132.39 98.32 129.95 96.84 129.37 94.42 128.79 92 130.27 89.56 132.69 88.98 135.11 88.39 137.55 89.88 138.13 92.3Z" fill="#FFFFFF"/><path d="M78.69 179.43C78.58 178.06 78.44 176.7 78.26 175.34 76.83 175.17 75.42 174.98 74.02 174.75 82.06 167.66 89.61 157.76 93.53 147.77 95.53 148.7 96.14 150.72 98.14 151.65 93.93 162.36 87.32 171.81 78.69 179.43Z" fill="#286E94"/><path d="M90.48 187.69C89.92 186.28 89.34 184.89 88.72 183.53 87.3 184 85.89 184.43 84.47 184.83 89.81 173.61 92.8 161.41 93.26 148.98 95.48 149.06 97.69 149.14 99.9 149.22 99.42 162.56 96.21 175.65 90.48 187.69Z" fill="#298ECA"/><circle cx="98.19" cy="146.3" r="6.26" fill="#298ECA"/><path d="M99.96 140.32C100.53 143.81 99.69 147.35 96.52 149.43 95.6 150.03 94.59 150.35 93.57 150.49 94.71 151.75 96.35 152.56 98.19 152.56 101.65 152.56 104.45 149.75 104.45 146.3 104.45 143.46 102.55 141.09 99.96 140.32Z" fill="#286E94"/><path d="M126.56 128.09C126.56 128.09 107.96 135.31 99.69 138.14L105.09 156.25C105.09 156.25 125.69 152.45 132.6 142.76 132.59 142.76 132.72 130.76 126.56 128.09Z" fill="#EDEDED"/><g><path d="M156.04 314.71C155.38 314.71 154.71 314.58 154.05 314.3 151.99 313.4 103.4 291.4 98.68 207.55 96.76 173.59 102.48 152.08 115.68 143.6 128.3 135.5 142.23 142.69 142.82 143 145.26 144.29 146.19 147.31 144.91 149.75 143.63 152.18 140.62 153.11 138.18 151.85 137.98 151.75 128.64 147.09 121 152.05 114.2 156.47 106.53 169.59 108.64 207 113.02 284.75 157.57 304.95 158.02 305.15 160.55 306.24 161.71 309.19 160.61 311.72 159.8 313.59 157.96 314.71 156.04 314.71Z" fill="#CA6F99"/></g><g><g><path d="M13.85 196.07C13.68 196.07 13.54 196.15 13.46 196.3L0.05 221.95C-0.01 222.07-0.02 222.21 0.04 222.33L37.6 301.87C37.67 302.03 37.83 302.12 38.01 302.11 38.07 302.11 38.13 302.1 38.18 302.07 38.28 302.03 38.36 301.95 38.4 301.84L49.87 272.58C49.91 272.47 49.91 272.35 49.86 272.24L14.24 196.31C14.16 196.18 14.02 196.08 13.85 196.07Z" fill="#4E518B"/><path d="M30.26 190.6C30.14 190.54 30.01 190.54 29.89 190.6L29.89 190.6 15.03 197.7C14.94 197.75 14.87 197.82 14.83 197.91L3.88 220.48C3.82 220.6 3.82 220.73 3.88 220.85L38.56 294.28C38.63 294.43 38.78 294.53 38.95 294.52 39.01 294.52 39.07 294.51 39.13 294.48 39.22 294.44 39.3 294.36 39.34 294.27L48.45 273.67C48.49 273.59 48.5 273.49 48.48 273.41L30.5 190.9C30.46 190.77 30.38 190.66 30.26 190.6Z" fill="#FFFFFF"/><path d="M17.41 213.65 0.26 221.75C0.04 221.86-0.05 222.11 0.05 222.33L37.61 301.87C37.71 302.09 37.97 302.18 38.18 302.08L55.34 293.98C55.56 293.88 55.65 293.62 55.54 293.41L17.99 213.87C17.89 213.65 17.63 213.55 17.41 213.65Z" fill="#5C5DA1"/><path d="M25.99 230.82 23.97 226.53 6.03 235 8.06 239.29Z" fill="#B1B7D3"/><rect x="12.91" y="241.3" width="19.83" height="12.08" fill="#B1B7D3" transform="matrix(0.9042 -0.4271 0.4271 0.9042 -103.44 33.4363)"/><path d="M31.33 188.6C31.26 188.45 31.12 188.36 30.95 188.35 30.79 188.35 30.64 188.44 30.56 188.58L17.18 213.82C17.12 213.94 17.11 214.08 17.17 214.21L54.73 293.75C54.8 293.9 54.97 294 55.14 293.99 55.2 293.99 55.26 293.98 55.31 293.95 55.41 293.9 55.49 293.83 55.53 293.72L67.12 264.41C67.17 264.3 67.16 264.17 67.11 264.06L31.33 188.6Z" fill="#595A9C"/><path d="M46.46 220.53 37.15 200.9C32.55 209.7 27.54 218.28 23.34 227.3L33.58 248.98C37.82 239.47 42.11 229.98 46.46 220.53Z" fill="#878AB7"/></g><g><path d="M33.91 188.3C33.74 188.3 33.6 188.38 33.52 188.53L19.86 214.04C19.79 214.16 19.79 214.3 19.84 214.43L56.62 294.33C56.69 294.49 56.85 294.58 57.02 294.58 57.08 294.58 57.14 294.57 57.19 294.54 57.29 294.49 57.37 294.42 57.41 294.31L69.16 265.17C69.2 265.06 69.2 264.93 69.15 264.83L34.29 188.56C34.22 188.4 34.07 188.3 33.91 188.3Z" fill="#7E365E"/><path d="M50.37 182.99C50.25 182.93 50.11 182.93 50 182.98L50 182.98 35.08 189.93C34.99 189.97 34.92 190.05 34.88 190.13L23.71 212.6C23.65 212.72 23.65 212.85 23.71 212.96L57.66 286.73C57.72 286.88 57.88 286.98 58.05 286.98 58.11 286.98 58.17 286.96 58.23 286.94 58.32 286.9 58.4 286.82 58.44 286.73L67.75 266.22C67.79 266.14 67.8 266.04 67.78 265.95L50.6 183.28C50.57 183.15 50.48 183.04 50.37 182.99Z" fill="#FFFFFF"/><path d="M37.29 205.91 20.05 213.84C19.84 213.94 19.74 214.2 19.84 214.41L56.62 294.31C56.72 294.53 56.98 294.62 57.19 294.52L74.42 286.59C74.64 286.49 74.73 286.23 74.63 286.02L37.86 206.12C37.77 205.91 37.51 205.81 37.29 205.91Z" fill="#94416B"/><rect x="25.79" y="222.78" width="19.83" height="4.74" fill="#B894B6" transform="matrix(0.9082 -0.4186 0.4186 0.9082 -90.9626 35.6171)"/><rect x="32.46" y="233.61" width="19.83" height="12.08" fill="#B894B6" transform="matrix(0.9085 -0.4179 0.4179 0.9085 -96.2752 39.6403)"/><path d="M51.46 181C51.39 180.85 51.25 180.76 51.08 180.75 50.92 180.75 50.77 180.84 50.68 180.98L37.05 206.09C36.99 206.21 36.99 206.35 37.04 206.48L73.81 286.38C73.88 286.54 74.04 286.64 74.21 286.63 74.27 286.63 74.33 286.61 74.38 286.59 74.48 286.55 74.56 286.47 74.6 286.36L86.48 257.16C86.53 257.05 86.52 256.92 86.47 256.82L51.46 181Z" fill="#8F3E68"/><path d="M66.27 213.07 57.16 193.34C52.47 202.09 47.38 210.62 43.09 219.6L53.12 241.39C57.45 231.93 61.83 222.49 66.27 213.07Z" fill="#A16C89"/></g></g><g><g><g><path d="M108.04 263.93C108.66 258.31 106.02 258.36 100.5 251.41 95.88 245.59 91.06 242.14 91.06 242.14 70.56 254.62 41.77 269.4 24.83 270.97 5.86 272.73 26.48 283.86 26.48 283.86 50.65 282.24 77.93 276.77 108.04 263.93Z" fill="#F1AE9E"/></g></g><g><path d="M36.21 269.96C36.21 269.96 29.14 257.18 12.47 265.26 12.47 265.26 12.93 268.72 20.57 269.65 26.02 270.31 30.64 270.69 33.56 270.49 34.74 270.42 35.64 270.25 36.21 269.96Z" fill="#F1AE9E"/></g><g><path d="M32.8 282.62C32.66 283.78 27.9 284.31 26.97 284.48 23.84 285.03 20.77 284.45 17.66 283.96 16.43 283.77 15.14 283.45 13.93 283.12 13.07 282.88 12.23 282.48 11.4 282.13 9.31 281.27 7.88 279.28 6.33 277.71 4.89 276.26 3.88 273.15 5 271.27 6.11 269.4 8.08 268.47 10.11 267.93 14.57 266.74 19.25 267.21 23.8 267.23 27.51 267.25 33.13 271.03 33.4 272.06 33.68 273.07 32.8 282.61 32.8 282.62Z" fill="#F1AE9E"/></g></g><g><g><g><g><path d="M91.79 257.95C93.47 260.3 93.58 261.2 100.67 263.69 106.21 265.64 110.84 264.38 112.96 261.61 136.56 219.87 145.87 169.78 137.77 160.79 124.53 146.09 121.47 169.18 121.47 169.18 121.47 169.18 97.15 223.04 88.29 250.09 86.66 255.08 94.48 252.88 91.8 257.94 91.8 257.94 91.8 257.95 91.79 257.95Z" fill="#F1AE9E"/></g></g></g><g><g><g><path d="M141.26 158.11C148.21 165.82 142.6 207.95 125.34 244.1 115.7 246.29 98.03 239.7 90.66 231.96 99.6 204.64 113.5 171.35 113.5 171.35 113.5 171.35 128.01 143.41 141.26 158.11Z" fill="#F6F6F6"/></g></g></g></g></g></svg>