<svg width="189.46" height="190.68" viewBox="0 0 189.46 190.68" xmlns="http://www.w3.org/2000/svg" xmlns:xlink="http://www.w3.org/1999/xlink" xml:space="preserve" overflow="hidden"><defs></defs><g><g><line x1="126.77" y1="190.18" x2="63.91" y2="190.18" stroke="#505CA3" stroke-linecap="round" stroke-linejoin="round" stroke-miterlimit="10" fill="none"/><g><path d="M185.65 85.18 181.57 99.23 94.66 125.21 7.56 99.23 3.66 85.86 95.35 41.1Z" stroke="#505CA3" stroke-linecap="round" stroke-linejoin="round" stroke-miterlimit="10" fill="#FFFFFF"/><path d="M142.58 152.77 122.22 85.16 65.14 85.16 48.1 152.77 48.09 152.78 63.91 190.17 126.78 190.17 142.6 152.78 142.58 152.77Z" stroke="#505CA3" stroke-linecap="round" stroke-linejoin="round" stroke-miterlimit="10" fill="#FFFFFF"/><path d="" stroke="#505CA3" stroke-linecap="round" stroke-linejoin="round" stroke-miterlimit="10" fill="none"/><line x1="28.96" y1="73.51" x2="3.66" y2="85.86" stroke="#505CA3" stroke-linecap="round" stroke-linejoin="round" stroke-miterlimit="10" fill="none"/><line x1="164.79" y1="75" x2="185.65" y2="85.18" stroke="#505CA3" stroke-linecap="round" stroke-linejoin="round" stroke-miterlimit="10" fill="none"/><path d="M188.96 73.78 185.65 85.18 181.57 99.23 7.56 99.23 3.66 85.86 0.5 74.98 74.98 0.5 115.68 0.5Z" stroke="#505CA3" stroke-linecap="round" stroke-linejoin="round" stroke-miterlimit="10" fill="#EAA639"/></g><g><g><path d="M85.09 32.95C85.09 50.13 59.1 50.16 59.1 32.95 59.09 15.77 85.09 15.74 85.09 32.95Z" fill="#FFFFFF"/><path d="M130.36 32.95C130.36 50.13 104.37 50.16 104.37 32.95 104.37 15.77 130.36 15.74 130.36 32.95Z" fill="#FFFFFF"/></g><g><path d="M54.74 73.24C54.74 90.42 28.75 90.45 28.75 73.24 28.75 56.06 54.74 56.04 54.74 73.24Z" fill="#FFFFFF"/><path d="M160.71 73.24C160.71 90.42 134.72 90.45 134.72 73.24 134.72 56.06 160.71 56.04 160.71 73.24Z" fill="#FFFFFF"/><path d="M107.72 73.24C107.72 90.42 81.73 90.45 81.73 73.24 81.73 56.06 107.72 56.04 107.72 73.24Z" fill="#FFFFFF"/></g></g><line x1="95.34" y1="190.18" x2="95.34" y2="99.23" stroke="#505CA3" stroke-linecap="round" stroke-linejoin="round" stroke-miterlimit="10" fill="none"/></g><g opacity="0.2"><path d="M13.27 85.42C12.72 82.65 12.49 79.96 10.45 77.87 9.55 76.95 7.99 77.42 7.64 78.61 5.5 85.88 17.36 106.09 13.27 85.42Z" fill="#FFFFFF"/><path d="M48.74 33.02C33.1 42.64 13.57 66.52 18.93 64.03 24.7 61.36 46.05 40.48 50.35 35.1 51.22 34.01 50.12 32.17 48.74 33.02Z" fill="#FFFFFF"/><path d="M110.42 7.43C104.59 4.23 86.05 2.45 80.62 3.24 66.58 5.29 65.05 17.61 68.01 15.75 72.9 12.67 74.12 6.67 87.7 8.76 94.95 9.88 102.84 12.04 110.08 10.15 111.29 9.82 111.54 8.05 110.42 7.43Z" fill="#FFFFFF"/><path d="M159.37 51.48C156.74 43.67 142.68 30.07 134.95 27.02 131.56 25.68 143.64 38 145.15 39.71 149.01 44.06 152.15 49.41 156.75 53 157.86 53.86 159.93 53.12 159.37 51.48Z" fill="#FFFFFF"/><path d="M177.37 79.26C176.53 81.7 175.44 83.97 175.98 86.59 176.52 89.22 181.54 88 182.47 79.55 183.17 73.13 180.23 70.91 177.37 79.26Z" fill="#FFFFFF"/></g></g></svg>