<svg width="145.58" height="83.58" viewBox="0 0 145.58 83.58" xmlns="http://www.w3.org/2000/svg" xmlns:xlink="http://www.w3.org/1999/xlink" xml:space="preserve" overflow="hidden"><defs></defs><g><g><path d="M145.08 24.7 124.44 47.66 110.87 41.79 110.85 0.51Z" fill="#F3D5AA" fill-opacity="0.12"/></g><g><path d="M110.85 0.51 110.85 83.08 28.28 83.08 95.8 15.56Z" fill="#F3D5AA" fill-opacity="0.12"/></g><g><path d="M95.8 15.56 28.28 83.08 28.27 83.08 28.27 52.47 28.28 52.48 28.28 24.7 28.27 24.7 28.27 15.56Z" fill="#F3D5AA" fill-opacity="0.12"/></g><g><path d="M28.28 24.7 28.28 52.48 28.27 52.47 28.27 24.7Z" fill="#FFFFFF" fill-opacity="0.12"/></g><g><path d="M28.27 24.7 28.27 52.47 0.5 24.7Z" fill="#F3D5AA" fill-opacity="0.12"/></g><g><path d="M28.28 52.98C28.15 52.98 28.02 52.93 27.92 52.83L0.15 25.05C0 24.91-0.04 24.69 0.04 24.51 0.12 24.32 0.3 24.2 0.5 24.2L28.28 24.2C28.56 24.2 28.78 24.42 28.78 24.7L28.78 52.49C28.78 52.69 28.66 52.88 28.47 52.95 28.41 52.97 28.35 52.98 28.28 52.98ZM1.71 25.2 27.79 51.28 27.79 25.2 1.71 25.2Z" fill="#292764" fill-opacity="0.12"/></g><g><path d="M110.85 83.58 28.28 83.58C28.08 83.58 27.9 83.46 27.82 83.27 27.74 83.08 27.79 82.87 27.93 82.73L110.47 0.19C110.56 0.07 110.7 0 110.85 0 111.13 0 111.35 0.22 111.35 0.49 111.35 0.49 111.35 0.5 111.35 0.5 111.35 0.5 111.35 0.51 111.35 0.51L111.35 83.08C111.35 83.35 111.13 83.58 110.85 83.58ZM29.49 82.58 110.35 82.58 110.35 1.72 29.49 82.58Z" fill="#292764" fill-opacity="0.12"/></g><g><path d="M28.27 83.58C27.99 83.58 27.77 83.36 27.77 83.08L27.77 15.56C27.77 15.28 27.99 15.06 28.27 15.06L95.8 15.06C96.08 15.06 96.3 15.28 96.3 15.56 96.3 15.84 96.08 16.06 95.8 16.06L28.77 16.06 28.77 83.08C28.77 83.35 28.55 83.58 28.27 83.58Z" fill="#292764" fill-opacity="0.12"/></g><g><path d="M124.44 48.16C124.37 48.16 124.31 48.15 124.24 48.12L110.67 42.25C110.49 42.17 110.37 41.99 110.37 41.79L110.35 0.5C110.35 0.31 110.45 0.14 110.62 0.06 110.79-0.03 110.99-0.01 111.14 0.1L145.36 24.29C145.48 24.37 145.55 24.5 145.57 24.64 145.59 24.78 145.54 24.92 145.44 25.03L124.81 48C124.71 48.1 124.58 48.16 124.44 48.16ZM111.37 41.46 124.3 47.05 144.33 24.77 111.36 1.47 111.37 41.46Z" fill="#292764" fill-opacity="0.12"/></g><g><circle cx="120.99" cy="18.58" r="3.65" fill="#292764" fill-opacity="0.12"/></g><g><path d="M145.08 24.7 136.77 18.83 138.89 31.58Z" fill="#292764" fill-opacity="0.12"/></g></g></svg>