<svg width="106.46" height="106.46" viewBox="0 0 106.46 106.46" xmlns="http://www.w3.org/2000/svg" xmlns:xlink="http://www.w3.org/1999/xlink" xml:space="preserve" overflow="hidden"><defs></defs><g><path d="M106.46 53.23C106.46 54 106.44 54.76 106.41 55.52 106.3 58.25 105.97 60.93 105.46 63.54 105.37 63.99 105.28 64.43 105.18 64.87 102.08 78.77 93.55 90.62 81.92 98.07 74.31 102.95 65.37 105.95 55.77 106.4 54.93 106.44 54.08 106.46 53.23 106.46 47.44 106.46 41.86 105.53 36.64 103.82 25 100.01 15.13 92.29 8.58 82.21 6.9 79.64 5.44 76.91 4.22 74.05 1.51 67.66 0 60.62 0 53.23 0 23.83 23.83 0 53.23 0 82.63 0 106.46 23.83 106.46 53.23Z" fill="#1C88D1"/><path d="M81.92 98.07C74.31 102.95 65.37 105.95 55.77 106.4 54.93 106.44 54.08 106.46 53.23 106.46 47.44 106.46 41.86 105.53 36.64 103.82 25 100.01 15.13 92.29 8.58 82.21 6.9 79.64 5.44 76.91 4.22 74.05 18.4 70.17 33.73 70.48 47.72 75.05 51.01 76.13 54.23 77.44 57.34 78.97 57.85 79.21 58.36 79.47 58.86 79.73 59.37 79.99 59.88 80.27 60.39 80.55 68.55 85.01 75.9 90.98 81.92 98.07Z" fill="#8AA7BC"/><g><g><path d="M90.89 68.52C88.57 68.91 86.26 69.51 83.98 70.23 80.8 71.22 77.67 72.45 74.62 73.69 68.85 76.04 63.43 78.85 57.97 81.87 60.11 76.99 61.34 71.77 62.86 66.66 63.88 63.22 65.06 59.78 66.7 56.6 67.49 55.05 68.39 53.57 69.44 52.18 70.89 50.26 72.93 48.39 75.34 48.54 77.27 48.65 78.87 50.05 80.22 51.45 81.14 52.41 82.01 53.4 82.84 54.42 84.07 55.93 85.21 57.5 86.25 59.14 88.12 62.09 89.68 65.24 90.89 68.52Z" fill="#437B9B"/><path d="M106.41 55.52C106.3 58.25 105.97 60.93 105.46 63.54 105.37 63.99 105.28 64.43 105.18 64.87 97.97 66.78 90.78 68.79 83.57 70.65 83.73 70.61 83.87 70.46 83.98 70.23 84.5 69.2 84.56 66.6 84.65 65.76 84.66 65.7 84.66 65.65 84.67 65.61 84.99 63.52 85.51 61.3 86.25 59.14 86.59 58.12 86.98 57.12 87.42 56.15 87.51 55.94 87.61 55.73 87.71 55.52 88.51 53.84 89.45 52.29 90.52 50.96 92.94 47.98 96.29 47.42 99.53 49.15 101.01 49.95 102.39 51.02 103.65 52.27 104.64 53.26 105.57 54.35 106.41 55.52Z" fill="#437B9B"/><path d="M82.84 54.42C82.81 54.67 82.74 54.92 82.62 55.15 82.38 55.6 81.89 55.95 81.38 55.9 79.95 55.74 80.04 53.09 78.62 52.85 77.83 52.71 77.16 53.52 77 54.31 76.83 55.1 76.97 55.93 76.79 56.72 76.6 57.5 75.89 58.29 75.11 58.1 74.32 57.9 74.06 56.94 73.99 56.14 73.92 55.34 73.82 54.39 73.12 54 72.51 53.64 71.69 53.94 71.19 54.44 70.68 54.94 70.38 55.61 70 56.21 69.62 56.8 69.08 57.38 68.37 57.48 67.58 57.6 67.02 57.2 66.7 56.6 67.49 55.05 68.39 53.57 69.44 52.18 70.89 50.26 72.93 48.39 75.34 48.54 77.27 48.65 78.87 50.05 80.22 51.45 81.14 52.41 82.01 53.4 82.84 54.42Z" fill="#FFFFFF" opacity="0.32"/><path d="M103.65 52.27C103.41 53.23 102.42 54.03 101.44 53.81 100.85 53.68 100.38 53.23 99.86 52.92 99.34 52.6 98.62 52.43 98.16 52.82 97.76 53.16 97.74 53.76 97.85 54.27 97.97 54.77 98.19 55.26 98.19 55.78 98.19 56.54 97.64 57.27 96.91 57.48 96.18 57.7 95.33 57.38 94.92 56.74 94.62 56.26 94.53 55.63 94.07 55.31 93.39 54.84 92.46 55.38 91.97 56.04 91.48 56.7 91.13 57.53 90.4 57.9 89.21 58.51 87.72 57.45 87.42 56.15 87.51 55.94 87.61 55.73 87.71 55.52 88.51 53.84 89.45 52.29 90.52 50.96 92.94 47.98 96.29 47.42 99.53 49.15 101.01 49.95 102.39 51.02 103.65 52.27Z" fill="#FFFFFF" opacity="0.32"/></g></g><path d="M105.46 63.54C105.37 63.99 105.28 64.43 105.18 64.87 102.08 78.77 93.55 90.62 81.92 98.07 74.31 102.95 65.37 105.95 55.77 106.4 54.93 106.44 54.08 106.46 53.23 106.46 47.44 106.46 41.86 105.53 36.64 103.82 38.55 100.11 40.79 96.55 43.31 93.21 47.33 87.87 52.06 83.07 57.34 78.97 58.14 78.36 58.95 77.76 59.77 77.18 61.26 76.12 62.78 75.11 64.35 74.17 70.65 70.38 77.52 67.55 84.65 65.76 86.19 65.37 87.75 65.03 89.32 64.75L89.33 64.75C94.64 63.76 100.05 63.35 105.46 63.54Z" fill="#E0F0FC"/><path d="M37.84 64.36C37.87 60.42 39.93 56.71 42.69 53.9 45.45 51.09 48.88 49.03 52.26 47.01 46.52 47.98 41.31 50.96 37.92 55.69 36.78 48.84 39.22 41.5 44.24 36.7 40.53 37.44 37.44 40.24 36.53 43.91 34.18 39.32 29.88 35.76 24.92 34.31 27.12 35.99 29.33 37.69 31.17 39.76 33.01 41.83 34.47 44.32 34.88 47.06 35.21 49.25 34.87 51.47 34.53 53.66 33.94 57.47 33.46 61.11 32.86 64.92 30.36 61.43 27.53 58.17 24.44 55.19 23.17 53.97 21.64 52.72 19.89 52.89 22.16 53.98 24 55.81 25.45 57.86 26.86 59.85 27.93 62.07 28.98 64.28 25.53 63.95 22.09 63.61 18.64 63.28 20.43 64.11 22.3 64.76 24.22 65.24 26.91 65.91 29.51 65.9 31.06 68.52 32.9 71.64 32.92 75.62 32.59 79.12 32.43 80.83 32.11 82.53 31.88 84.22 31.73 85.28 31.21 89.41 29.96 89.82 28.93 90.16 28.39 92.14 29.15 92.92 29.8 93.59 30.86 93.56 31.79 93.54 35.97 93.42 40.17 94.19 44.04 95.79 39.68 89.02 37.62 80.8 38.25 72.77 38.44 70.38 38.93 67.85 40.61 66.14 42.02 64.7 44.05 64.07 45.99 63.49 47.88 62.93 49.77 62.36 51.66 61.8 46.85 60.32 41.88 61.38 37.84 64.36Z" fill="#77383D"/><path d="M55.77 106.4C54.93 106.44 54.08 106.46 53.23 106.46 47.44 106.46 41.86 105.53 36.64 103.82 25 100.01 15.13 92.29 8.58 82.21 18.03 81.9 27.57 84.07 35.93 88.49 38.51 89.85 40.98 91.43 43.31 93.21 48.16 96.87 52.39 101.35 55.77 106.4Z" fill="#A1C0E2"/><path d="M29.01 81.37C27.57 82.17 25.82 80.59 24.2 80.89 22.66 81.18 21.76 83.06 20.2 83.23 19.38 83.32 18.6 82.9 17.79 82.78 16.98 82.66 15.93 83.08 15.94 83.9 15.95 84.69 16.88 85.09 17.64 85.29 18.87 85.61 20.1 85.93 21.32 86.25 22.88 86.66 24.45 87.07 26.06 87.25 27.5 87.41 28.94 87.39 30.39 87.36 31.24 87.35 32.16 87.31 32.83 86.79 33.84 86.01 33.87 84.52 33.8 83.24 33.73 81.86 34.11 77.96 32.24 77.42 30.34 76.88 30.34 80.63 29.01 81.37Z" fill="#E0F0FC"/><path d="M75.32 32.19C74.18 33.49 72.51 34.31 70.64 34.31 67.19 34.31 64.4 31.52 64.4 28.07 64.4 24.62 67.19 21.82 70.64 21.82 71.48 21.82 72.29 21.99 73.02 22.29 70.63 22.71 68.81 24.79 68.81 27.31 68.81 30.12 71.09 32.4 73.9 32.4 74.39 32.4 74.87 32.33 75.32 32.19Z" fill="#FFFFFF"/><path d="M17.32 61.59C16.92 62.17 17.1 63.07 17.69 63.45 18.66 64.07 20.1 63.28 21.05 63.94 21.44 64.21 21.65 64.68 21.91 65.08 22.17 65.48 22.57 65.87 23.05 65.84 23.69 65.79 24.14 65.01 24.78 65.08 25.4 65.15 25.61 65.93 25.95 66.45 26.42 67.16 27.4 67.48 28.2 67.19 29 66.9 29.54 66.03 29.45 65.18 29.36 64.39 28.78 63.72 28.09 63.32 27.4 62.92 26.61 62.75 25.83 62.58 24.15 62.22 22.47 61.86 20.8 61.5 19.83 61.3 18.04 60.55 17.32 61.59Z" fill="#E0F0FC"/><path d="M19.05 50.97C18.01 51.55 17.45 53.07 18.22 53.99 18.9 54.81 20.15 54.74 21.19 54.95 22.58 55.23 23.79 56.1 24.72 57.17 25.65 58.24 26.33 59.49 26.99 60.74 27.36 61.44 27.74 62.16 28.37 62.64 28.99 63.12 29.93 63.3 30.57 62.82 31.52 62.11 31.17 60.62 30.66 59.56 28.96 56.11 23.91 48.25 19.05 50.97Z" fill="#E0F0FC"/><path d="M36.48 58.3C37.24 58.58 38.12 58.36 38.8 57.92 39.48 57.48 40.01 56.84 40.52 56.21 41.2 55.37 41.89 54.54 42.57 53.7 43.33 52.76 44.1 51.83 44.86 50.89 45.4 50.22 45.98 49.54 46.75 49.17 47.53 48.8 48.58 48.86 49.12 49.53 49.56 50.07 49.59 50.9 50.13 51.33 50.6 51.7 51.32 51.62 51.81 51.27 52.3 50.93 52.61 50.38 52.84 49.82 53.14 49.1 53.34 48.32 53.25 47.55 53.16 46.78 52.74 46.01 52.05 45.66 51.01 45.12 49.76 45.61 48.72 46.12 45.47 47.71 42.33 49.54 39.35 51.6 36.94 53.27 36.05 55.24 36.48 58.3Z" fill="#E0F0FC"/><path d="M36.85 68.17C37.41 68.26 37.84 67.68 38.04 67.15 38.25 66.62 38.44 65.99 38.97 65.79 39.62 65.54 40.33 66.08 41.01 65.96 41.72 65.83 42.1 65.07 42.42 64.42 42.74 63.77 43.29 63.05 44 63.16 44.75 63.27 45.05 64.18 45.2 64.93 45.35 65.68 45.68 66.59 46.44 66.66 46.95 66.71 47.4 66.31 47.7 65.89 47.99 65.46 48.21 64.97 48.6 64.64 49.61 63.77 51.46 64.22 52.2 63.12 52.74 62.32 52.26 61.17 51.46 60.65 50.65 60.13 49.64 60.09 48.68 60.1 46.64 60.12 44.6 60.3 42.59 60.64 41.03 60.9 38.71 61.08 37.42 62.08 36.45 62.8 35.35 67.92 36.85 68.17Z" fill="#E0F0FC"/><path d="M34.73 43.97C35.15 44.6 35.76 45.32 36.5 45.14 37 45.02 37.31 44.5 37.43 43.99 37.55 43.49 37.54 42.95 37.7 42.46 38.21 40.85 40.23 40.25 41.11 38.81 41.37 38.39 41.52 37.89 41.43 37.41 41.34 36.93 40.98 36.48 40.5 36.38 39.86 36.25 39.26 36.73 38.85 37.24 38.44 37.75 38.07 38.35 37.47 38.6 35.69 39.34 33.25 35.98 31.61 37.69 30.44 38.91 34 42.87 34.73 43.97Z" fill="#E0F0FC"/><path d="M36.44 79.92C36.22 81.04 36.02 82.28 36.63 83.24 37.13 84.03 38.12 84.54 38.26 85.46 38.41 86.41 37.56 87.42 37.98 88.29 38.32 88.99 39.33 89.19 39.62 89.92 39.81 90.42 39.59 90.97 39.6 91.51 39.62 92.47 40.38 93.23 41.15 93.81 42.63 94.93 44.32 95.77 45.65 97.07 47.61 98.99 48.7 101.8 51.04 103.24 52.1 103.89 53.75 104.07 54.39 103 54.82 102.29 54.58 101.36 54.2 100.63 53.18 98.65 51.19 97.1 50.94 94.89 50.77 93.41 51.44 91.88 51.03 90.45 50.74 89.44 49.88 88.61 48.86 88.35 48.14 88.17 47.35 88.24 46.7 87.89 45.46 87.21 45.44 85.49 45.5 84.08 45.52 83.74 45.52 83.38 45.38 83.08 45.25 82.81 45.01 82.61 44.77 82.43 43.87 81.77 42.8 81.32 41.97 80.55 41.12 79.76 41.16 78.75 40.51 77.89 38.83 75.64 36.79 78.16 36.44 79.92Z" fill="#E0F0FC"/></g></svg>