<svg width="77.79" height="82.5" viewBox="0 0 77.79 82.5" xmlns="http://www.w3.org/2000/svg" xmlns:xlink="http://www.w3.org/1999/xlink" xml:space="preserve" overflow="hidden"><defs></defs><g><g><path d="M46.28 0.5 31.55 0.5 4.8 26.48 39.28 81.78 39.28 81.78 39.28 82.14 77.29 82.14 77.29 30.66Z" fill="#E4CDFC"/></g><g><path d="M0.9 19.43 5.13 26.21 31.71 0.5 0.54 0.5 0.54 19.43Z" fill="#EEF3FF"/></g><g><path d="M0.9 20.24 4.81 26.51 31.71 0.5 0.54 0.5 0.54 20.38Z" fill="#EEF3FF"/></g><g><g><path d="M39.28 81.48 38.56 81.48 38.56 79.45 39.28 79.45 39.28 81.48ZM39.28 76.16 38.56 76.16 38.56 72.87 39.28 72.87 39.28 76.16ZM39.28 69.58 38.56 69.58 38.56 66.29 39.28 66.29 39.28 69.58ZM39.28 63 38.56 63 38.56 59.71 39.28 59.71 39.28 63ZM39.28 56.42 38.56 56.42 38.56 53.13 39.28 53.13 39.28 56.42ZM39.28 49.84 38.56 49.84 38.56 46.55 39.28 46.55 39.28 49.84ZM39.28 43.26 38.56 43.26 38.56 39.97 39.28 39.97 39.28 43.26ZM39.28 36.68 38.56 36.68 38.56 33.4 39.28 33.4 39.28 36.68ZM39.28 30.11 38.56 30.11 38.56 26.82 39.28 26.82 39.28 30.11ZM39.28 23.53 38.56 23.53 38.56 20.24 39.28 20.24 39.28 23.53ZM39.28 16.95 38.56 16.95 38.56 13.66 39.28 13.66 39.28 16.95ZM39.28 10.37 38.56 10.37 38.56 7.08 39.28 7.08 39.28 10.37ZM39.28 3.79 38.56 3.79 38.56 0.5 39.28 0.5 39.28 3.79Z" fill="#8796D8"/></g></g><g><g><g><g><path d="M77.29 30.64 77.29 0.5 46.13 0.5Z" fill="#E4CDFC"/></g></g><g><g><path d="M77.29 30.64 77.29 0.5 46.13 0.5Z" fill="#EEF3FF"/></g></g></g><g><g><g><path d="M77.79 31.82 44.89 0 77.79 0 77.79 31.82ZM47.36 1 76.79 29.46 76.79 1 47.36 1Z" fill="#8796D8"/></g></g><g><g><path d="M77.79 31.82 44.89 0 77.79 0 77.79 31.82ZM47.36 1 76.79 29.46 76.79 1 47.36 1Z" fill="#8796D8"/></g></g></g></g><g><rect x="31.71" y="0" width="15.08" height="1" fill="#8796D8"/></g><g><line x1="39.25" y1="81.78" x2="77.26" y2="21.88" fill="#EEF3FF"/></g><g><path d="M4.99 26.8 32.06 0.5 31.04 0.5 4.6 26.17Z" fill="#8796D8"/></g><g><path d="M4.92 27.1 0.47 20.35 0.04 20.35 0.04 0 32.94 0 4.92 27.1ZM1.04 19.41 5.09 25.55 30.47 1 1.04 1 1.04 19.41Z" fill="#8796D8"/></g><g><path d="M0.9 20.24 39.28 20.24 39.28 81.78Z" fill="#EEF3FF"/></g><path d="M46.79 0.5 45.76 0.5 76.93 30.82 76.93 81.79 39.78 81.79 39.78 19.74 0 19.74 39.13 82.5 42.37 82.5 42.37 82.5 77.65 82.5 77.65 30.51 46.79 0.5ZM38.78 80.04 1.8 20.74 38.77 20.74 38.77 80.04Z" fill="#8796D8"/></g></svg>