<svg width="80.83" height="81.35" viewBox="0 0 80.83 81.35" xmlns="http://www.w3.org/2000/svg" xmlns:xlink="http://www.w3.org/1999/xlink" xml:space="preserve" overflow="hidden"><defs></defs><g><line x1="53.99" y1="80.85" x2="27.36" y2="80.85" stroke="#505CA3" stroke-linecap="round" stroke-linejoin="round" stroke-miterlimit="10" fill="none"/><g><path d="M78.93 36.37 77.2 42.32 40.39 53.33 3.49 42.32 1.84 36.66 40.68 17.7Z" stroke="#505CA3" stroke-linecap="round" stroke-linejoin="round" stroke-miterlimit="10" fill="#FFFFFF"/><path d="M60.69 65 52.06 36.36 27.88 36.36 20.66 65 20.65 65 27.35 80.84 53.98 80.84 60.69 65 60.69 65Z" stroke="#505CA3" stroke-linecap="round" stroke-linejoin="round" stroke-miterlimit="10" fill="#FFFFFF"/><path d="" stroke="#505CA3" stroke-linecap="round" stroke-linejoin="round" stroke-miterlimit="10" fill="none"/><line x1="12.56" y1="31.43" x2="1.84" y2="36.66" stroke="#505CA3" stroke-linecap="round" stroke-linejoin="round" stroke-miterlimit="10" fill="none"/><line x1="70.1" y1="32.06" x2="78.93" y2="36.37" stroke="#505CA3" stroke-linecap="round" stroke-linejoin="round" stroke-miterlimit="10" fill="none"/><path d="M80.33 31.54 78.93 36.37 77.2 42.32 3.49 42.32 1.84 36.66 0.5 32.05 32.05 0.5 49.29 0.5Z" stroke="#505CA3" stroke-linecap="round" stroke-linejoin="round" stroke-miterlimit="10" fill="#EAA639"/></g><line x1="40.67" y1="80.85" x2="40.67" y2="42.32" stroke="#505CA3" stroke-linecap="round" stroke-linejoin="round" stroke-miterlimit="10" fill="none"/></g></svg>