<svg width="1497.43" height="1179.1" viewBox="0 0 1497.43 1179.1" xmlns="http://www.w3.org/2000/svg" xmlns:xlink="http://www.w3.org/1999/xlink" xml:space="preserve" overflow="hidden"><defs></defs><g><g><path d="M789.01 60.77C789.01 60.77 1465.47 272.18 1485.31 742.07 1505.15 1211.96 713.91 1169.79 567.57 1092.9 421.23 1016.01 789.01 60.77 789.01 60.77Z" fill="#FFFFFF"/><path d="M873.84 1151.78C735.51 1151.78 614.06 1130.58 562.12 1103.28 410.89 1023.81 740.03 155.33 778.05 56.56 780.27 50.78 786.55 47.71 792.51 49.57 799.34 51.72 1477.06 268.9 1497.04 741.57 1502.54 872.15 1448.22 974.56 1335.56 1045.91 1212.21 1124.05 1032.01 1151.78 873.84 1151.78ZM795.93 75.47C650.34 455.68 473.37 1030.14 573.03 1082.51 665.9 1131.29 1086.96 1175.59 1323.02 1026.08 1428.07 959.54 1478.74 864.15 1473.59 742.57 1455.65 318.04 881.01 104.72 795.93 75.47Z"/></g><g><path d="M493.79 54.38C700.09-11.73 803.15 14.73 838.4 29.5 847.51 33.32 854.96 40.18 859.64 48.88 890.22 105.74 1009.19 359.04 905.39 692.23 806.16 1010.73 642.17 1130.81 592.01 1161.18 582.53 1166.92 571.21 1168.72 560.38 1166.37 500.58 1153.39 293.95 1094.24 184.35 880.52 1.39 523.74 229.6 139.03 493.79 54.38Z" fill="#FFFFFF"/><path d="M569.75 1179.1C565.81 1179.1 561.84 1178.69 557.9 1177.82 496.06 1164.41 285.63 1103.69 173.91 885.88 91.42 725 84.5 543.63 154.45 375.11 220.69 215.52 349.34 88.35 490.21 43.2 700.47-24.16 806.93 3.57 842.94 18.67 854.38 23.46 863.98 32.22 869.96 43.26 907.09 112.32 1020.14 363.32 916.6 695.7 815.89 1019.02 647.35 1141.39 598.09 1171.19 589.51 1176.42 579.72 1179.1 569.75 1179.1ZM728.61 23.28C674.08 23.28 598.51 33.14 497.36 65.57L497.36 65.57C362.88 108.64 239.8 230.71 176.13 384.12 108.86 546.15 115.5 720.53 194.81 875.15 301.83 1083.82 503.57 1142.02 562.87 1154.9 570.87 1156.62 579.07 1155.27 585.95 1151.12 633.42 1122.4 795.93 1004.18 894.19 688.74 997.61 356.76 874.96 102.11 849.31 54.41 845.87 48.08 840.39 43.06 833.86 40.31 817.02 33.25 783.46 23.28 728.61 23.28ZM493.79 54.39 494.02 54.39 493.79 54.39Z"/></g><g><g><path d="M290.53 307.85C284.47 307.85 278.87 303.92 277.04 297.82 274.79 290.37 279.01 282.5 286.47 280.26 289.39 279.38 580.36 191.17 768.21 89.63 775.05 85.93 783.61 88.47 787.32 95.33 791.02 102.18 788.47 110.73 781.62 114.44 591.22 217.34 297.55 306.36 294.6 307.25 293.25 307.66 291.88 307.85 290.53 307.85Z"/></g><g><path d="M225.37 515.93C219.19 515.93 213.52 511.83 211.79 505.58 209.72 498.08 214.12 490.31 221.63 488.24 222.73 487.93 333.82 457.12 516.1 396.04 697.73 335.18 842.11 261.9 843.55 261.17 850.48 257.63 858.97 260.39 862.52 267.32 866.06 274.26 863.3 282.75 856.37 286.29 854.92 287.03 708.78 361.22 525.07 422.78 341.99 484.13 230.25 515.12 229.14 515.42 227.88 515.77 226.62 515.93 225.37 515.93Z"/></g><g><path d="M207.91 742.07C201.66 742.07 195.95 737.88 194.29 731.56 192.31 724.03 196.8 716.32 204.33 714.34 208.05 713.36 578.8 615.08 792.05 498.32 798.87 494.58 807.44 497.08 811.19 503.92 814.93 510.75 812.42 519.32 805.59 523.06 589.3 641.47 215.26 740.61 211.51 741.6 210.31 741.92 209.1 742.07 207.91 742.07Z"/></g><g><path d="M343.59 913.15C336.62 913.15 330.56 907.98 329.63 900.89 328.61 893.17 334.05 886.09 341.77 885.07 344.21 884.75 587.56 851.9 739.55 762.04 746.26 758.07 754.9 760.31 758.86 767 762.82 773.7 760.6 782.35 753.9 786.31 596.89 879.13 355.64 911.68 345.45 913.02 344.82 913.1 344.2 913.15 343.59 913.15Z"/></g><g><path d="M483.2 1060.62C476.01 1060.62 469.88 1055.15 469.19 1047.85 468.45 1040.1 474.14 1033.22 481.89 1032.48 482.9 1032.38 583.95 1022.18 670.29 966.8 676.85 962.6 685.56 964.5 689.77 971.06 693.97 977.61 692.07 986.33 685.51 990.54 593.24 1049.72 488.94 1060.14 484.55 1060.55 484.1 1060.6 483.65 1060.62 483.2 1060.62Z"/></g><g><path d="M841.09 515.93C834.17 515.93 828.14 510.84 827.15 503.8 790.56 244.13 640.44 75.43 638.93 73.76 633.71 67.98 634.16 59.07 639.93 53.85 645.7 48.63 654.61 49.07 659.83 54.84 666.24 61.92 817.22 231.26 855.07 499.87 856.15 507.58 850.79 514.71 843.08 515.8 842.41 515.88 841.74 515.93 841.09 515.93Z"/></g><g><path d="M739.85 857.1C739.55 857.1 739.24 857.09 738.94 857.07 731.17 856.57 725.27 849.87 725.77 842.1 725.84 840.91 732.48 719.56 666.64 541.12 600.41 361.63 429.77 151.02 428.05 148.91 423.13 142.87 424.04 133.99 430.07 129.08 436.11 124.16 444.99 125.07 449.9 131.1 457.03 139.84 625.21 347.41 693.08 531.36 761.17 715.9 754.23 838.76 753.9 843.9 753.43 851.37 747.22 857.1 739.85 857.1Z"/></g><g><path d="M624.79 1056.69C618.46 1056.69 612.7 1052.39 611.11 1045.97 610.54 1043.67 553.36 813.64 470.22 616.44 387.04 419.14 291.14 256.97 290.18 255.36 286.2 248.67 288.41 240.02 295.1 236.04 301.8 232.07 310.45 234.27 314.42 240.96 315.39 242.59 412.24 406.33 496.2 605.49 580.21 804.78 637.91 1036.89 638.48 1039.21 640.34 1046.77 635.73 1054.41 628.17 1056.28 627.05 1056.56 625.91 1056.69 624.79 1056.69Z"/></g><g><path d="M520.58 1129.45C514.61 1129.45 509.07 1125.63 507.15 1119.64 448.44 935.8 209.32 566.31 206.91 562.6 202.67 556.07 204.53 547.34 211.06 543.1 217.6 538.87 226.32 540.73 230.56 547.25 240.48 562.53 474.14 923.63 534.01 1111.06 536.38 1118.48 532.29 1126.41 524.87 1128.78 523.44 1129.24 522 1129.45 520.58 1129.45Z"/></g></g><g><path d="M12.77 492.49C9.32 453.85 9.97 358.86 89.6 306.61 98.65 300.67 110.55 301.31 119.01 308.07L260.54 421.06C268.7 427.58 272.02 438.46 268.8 448.39 261.41 471.16 246.07 513.57 223.46 552.24 217.65 562.18 205.66 566.72 194.63 563.41L30.58 514.21C20.78 511.27 13.68 502.69 12.77 492.49Z" fill="#FFFFFF"/><path d="M201.99 576.24C198.44 576.24 194.82 575.74 191.26 574.66L27.22 525.45C12.67 521.07 2.42 508.53 1.09 493.54L1.09 493.54C-2.55 452.95-1.82 352.56 83.17 296.81 96.42 288.08 113.79 288.86 126.35 298.9L267.86 411.9C279.8 421.44 284.66 437.55 279.96 452.03 272.63 474.56 256.86 518.36 233.59 558.15 226.9 569.62 214.78 576.24 201.99 576.24ZM103.24 314.31C100.72 314.31 98.22 315 96.07 316.42 21.67 365.22 21.21 455.09 24.47 491.44 24.47 491.46 24.47 491.46 24.47 491.46 24.95 496.87 28.66 501.38 33.98 502.99L198 552.2C203.84 553.94 210.26 551.6 213.33 546.31 235.49 508.42 250.6 466.43 257.64 444.77 259.34 439.54 257.57 433.7 253.24 430.24L111.7 317.24C109.25 315.29 106.25 314.31 103.24 314.31Z"/></g></g></svg>