<svg width="89.48" height="51.53" viewBox="0 0 89.48 51.53" xmlns="http://www.w3.org/2000/svg" xmlns:xlink="http://www.w3.org/1999/xlink" xml:space="preserve" overflow="hidden"><defs></defs><g><g><g><path d="M88.98 15.3 68.05 25.76 68.04 0.5Z" fill="#F3D5AA"/></g><g><path d="M68.05 25.76 68.05 25.77 17.51 51.03 17.51 0.5 68.04 0.5Z" fill="#F3D5AA"/></g><g><path d="M17.5 15.3 17.5 32.3 0.5 15.3Z" fill="#F3D5AA"/></g><g><path d="M17.5 47.93C17.37 47.93 17.23 47.88 17.13 47.77 16.94 47.57 16.95 47.25 17.16 47.06L19.36 45.02C19.56 44.83 19.88 44.84 20.07 45.05 20.26 45.25 20.25 45.57 20.04 45.76L17.84 47.8C17.74 47.89 17.62 47.93 17.5 47.93ZM21.9 43.85C21.77 43.85 21.63 43.8 21.53 43.69 21.34 43.49 21.35 43.17 21.56 42.98L23.76 40.94C23.96 40.75 24.28 40.76 24.47 40.97 24.66 41.17 24.65 41.49 24.44 41.68L22.24 43.72C22.14 43.8 22.02 43.85 21.9 43.85ZM26.29 39.77C26.16 39.77 26.02 39.72 25.92 39.61 25.73 39.41 25.74 39.09 25.95 38.9L28.15 36.86C28.35 36.67 28.67 36.68 28.86 36.89 29.05 37.09 29.04 37.41 28.83 37.6L26.63 39.64C26.54 39.72 26.42 39.77 26.29 39.77ZM30.69 35.68C30.56 35.68 30.42 35.63 30.32 35.52 30.13 35.32 30.14 35 30.35 34.81L32.55 32.77C32.75 32.58 33.07 32.59 33.26 32.8 33.45 33 33.44 33.32 33.23 33.51L31.03 35.55C30.93 35.64 30.81 35.68 30.69 35.68ZM35.09 31.6C34.96 31.6 34.82 31.55 34.72 31.44 34.53 31.24 34.54 30.92 34.75 30.73L36.95 28.69C37.15 28.5 37.47 28.51 37.66 28.72 37.85 28.92 37.84 29.24 37.63 29.43L35.43 31.47C35.33 31.56 35.21 31.6 35.09 31.6ZM39.48 27.52C39.35 27.52 39.21 27.47 39.11 27.36 38.92 27.16 38.93 26.84 39.14 26.65L41.34 24.61C41.54 24.42 41.86 24.43 42.05 24.64 42.24 24.84 42.23 25.16 42.02 25.35L39.82 27.39C39.73 27.47 39.61 27.52 39.48 27.52ZM43.88 23.44C43.75 23.44 43.61 23.39 43.51 23.28 43.32 23.08 43.33 22.76 43.54 22.57L45.74 20.53C45.94 20.34 46.26 20.35 46.45 20.56 46.64 20.76 46.63 21.08 46.42 21.27L44.22 23.31C44.12 23.39 44 23.44 43.88 23.44ZM48.28 19.35C48.15 19.35 48.01 19.3 47.91 19.19 47.72 18.99 47.73 18.67 47.94 18.48L50.14 16.44C50.34 16.25 50.66 16.26 50.85 16.47 51.04 16.67 51.03 16.99 50.82 17.18L48.62 19.22C48.52 19.31 48.4 19.35 48.28 19.35ZM52.67 15.27C52.54 15.27 52.4 15.22 52.3 15.11 52.11 14.91 52.12 14.59 52.33 14.4L54.53 12.36C54.73 12.17 55.05 12.18 55.24 12.39 55.43 12.59 55.42 12.91 55.21 13.1L53.01 15.14C52.92 15.23 52.8 15.27 52.67 15.27ZM57.07 11.19C56.94 11.19 56.8 11.14 56.7 11.03 56.51 10.83 56.52 10.51 56.73 10.32L58.93 8.28C59.13 8.09 59.45 8.1 59.64 8.31 59.83 8.51 59.82 8.83 59.61 9.02L57.41 11.06C57.31 11.14 57.19 11.19 57.07 11.19ZM61.47 7.1C61.34 7.1 61.2 7.05 61.1 6.94 60.91 6.74 60.92 6.42 61.13 6.23L63.33 4.19C63.53 4 63.85 4.01 64.04 4.22 64.23 4.42 64.22 4.74 64.01 4.93L61.81 6.97C61.71 7.06 61.59 7.1 61.47 7.1ZM65.86 3.02C65.73 3.02 65.59 2.97 65.49 2.86 65.3 2.66 65.31 2.34 65.52 2.15L67.7 0.13C67.9-0.06 68.22-0.05 68.41 0.16 68.6 0.36 68.59 0.68 68.38 0.87L66.2 2.89C66.11 2.98 65.99 3.02 65.86 3.02Z" fill="#7A7A9A"/></g><g><path d="M17.5 32.8C17.37 32.8 17.24 32.75 17.15 32.65L0.15 15.65C0 15.51-0.04 15.3 0.04 15.11 0.12 14.92 0.3 14.8 0.5 14.8L17.5 14.8C17.78 14.8 18 15.02 18 15.3L18 32.3C18 32.5 17.88 32.68 17.69 32.76 17.63 32.79 17.56 32.8 17.5 32.8ZM1.71 15.8 17 31.09 17 15.8 1.71 15.8Z" fill="#292764"/></g><g><path d="M68.05 26.26C67.87 26.26 67.69 26.16 67.6 25.98 67.48 25.73 67.58 25.43 67.82 25.31L88 15.22 67.75 0.91C67.52 0.75 67.47 0.44 67.63 0.21 67.79-0.01 68.1-0.07 68.33 0.09L89.27 14.89C89.41 14.99 89.49 15.16 89.48 15.34 89.47 15.51 89.36 15.67 89.21 15.75L68.27 26.21C68.2 26.24 68.13 26.26 68.05 26.26Z" fill="#292764"/></g><g><path d="M17.51 51.53C17.42 51.53 17.33 51.5 17.25 51.46 17.1 51.37 17.01 51.21 17.01 51.03L17.01 0.5C17.01 0.22 17.23 0 17.51 0L68.04 0C68.32 0 68.54 0.22 68.54 0.5L68.55 25.76 68.55 25.76 68.55 25.77C68.55 25.96 68.44 26.13 68.27 26.22L17.73 51.48C17.66 51.51 17.59 51.53 17.51 51.53ZM18.01 1 18.01 50.22 67.55 25.46 67.54 1 18.01 1ZM68.04 25.76 68.04 25.76 68.04 25.76Z" fill="#292764"/></g></g><g><g><path d="M60.09 43.73C59.9 43.73 59.71 43.66 59.56 43.51 59.27 43.22 59.27 42.74 59.56 42.45 62.74 39.27 62.74 34.09 59.56 30.91L51 22.34C50.71 22.05 50.71 21.57 51 21.28 51.29 20.99 51.77 20.99 52.06 21.28L60.62 29.85C64.39 33.62 64.39 39.75 60.62 43.51 60.48 43.66 60.28 43.73 60.09 43.73Z" fill="#292764"/></g><g><path d="M51.41 29.13C51 29.13 50.66 28.79 50.66 28.38L50.66 21.63C50.66 21.22 51 20.88 51.41 20.88L58.02 20.88C58.43 20.88 58.77 21.22 58.77 21.63 58.77 22.04 58.43 22.38 58.02 22.38L52.16 22.38 52.16 28.38C52.16 28.79 51.82 29.13 51.41 29.13Z" fill="#292764"/></g></g></g></svg>