<svg width="28.41" height="44.37" viewBox="0 0 28.41 44.37" xmlns="http://www.w3.org/2000/svg" xmlns:xlink="http://www.w3.org/1999/xlink" xml:space="preserve" overflow="hidden"><defs></defs><g><g><g><path d="M19.67 37.57C19.76 37.06 19.93 36.56 20.09 36.07 20.23 35.67 20.35 35.21 20.56 34.83 20.79 33.43 21 32.04 21.09 30.62 21.18 29.17 21.11 27.7 21.02 26.25 20.71 26.39 20.34 26.42 19.97 26.3 20.74 26.42 21.67 25.94 21.63 25.12 21.65 25.03 21.66 24.93 21.67 24.84 21.58 24.69 21.51 24.54 21.46 24.37 21.58 24.6 21.75 24.81 21.96 24.97 22.16 25.19 22.42 25.36 22.72 25.46 23.13 25.59 23.71 25.67 24.05 25.34 24.14 25.26 24.22 25.16 24.29 25.05 24.23 25.31 24.07 25.49 23.87 25.6 24.11 25.77 24.38 25.91 24.66 25.93 25.21 26.03 25.73 25.69 25.98 25.19 25.95 25.56 25.68 25.84 25.33 26.03 25.18 26.11 25.03 26.16 24.88 26.17 25.01 27.84 24.7 29.5 24.36 31.13 24.04 32.69 23.61 34.26 22.93 35.7 23.62 36.56 23.61 37.97 23.41 38.98 23.24 39.85 22.25 40.1 21.55 39.72 21.12 40 20.39 39.72 20.02 39.44 19.47 39.02 19.57 38.18 19.67 37.57Z" fill="#AF705A"/><path d="M24.8 26.18C24.42 26.18 24.08 25.98 23.79 25.66 23.78 25.66 23.78 25.65 23.78 25.65 23.51 25.77 23.18 25.78 22.85 25.71 22.43 25.61 22.04 25.35 21.78 25 21.82 25.54 21.54 25.97 21.13 26.2 21.2 26.4 21.21 26.72 21.24 26.91 21.29 27.31 21.32 27.72 21.35 28.13 21.41 28.99 21.43 29.84 21.4 30.7 21.34 32.24 21.14 33.83 20.68 35.3 20.68 35.4 20.67 35.5 20.67 35.6 20.66 35.82 21.24 36.04 21.39 36.09 21.87 36.24 22.32 36.23 22.62 35.94 23.85 32.83 24.41 29.47 24.8 26.18Z" fill="#D6735C"/><path d="M19.87 38.61C19.88 39.09 20.24 39.36 20.65 39.49 20.69 39.51 20.72 39.52 20.76 39.54 20.91 39.6 21.14 39.7 21.31 39.64 21.46 39.64 21.59 39.56 21.64 39.35 21.76 38.79 21.77 38.2 21.75 37.63 21.82 37.94 21.84 38.26 21.83 38.58 21.83 38.79 21.86 39.2 21.78 39.46 22.03 39.53 22.28 39.58 22.55 39.57 23.19 39.55 23.22 38.76 23.27 38.28 23.36 37.39 23.08 36.64 22.89 35.8 22.55 36.26 22.1 36.53 21.39 36.33 20.96 36.21 20.62 36.03 20.5 35.66 20.39 35.94 20.31 36.23 20.23 36.51 20.03 37.2 19.86 37.89 19.87 38.61Z" fill="#FFFFFF"/><path d="M19.87 38.61C19.88 39.09 20.24 39.36 20.65 39.49 20.69 39.51 20.72 39.52 20.76 39.54 20.91 39.6 21.14 39.7 21.31 39.64 21.46 39.64 21.59 39.56 21.64 39.35 21.76 38.79 21.77 38.2 21.75 37.63 21.82 37.94 21.84 38.26 21.83 38.58 21.83 38.79 21.86 39.2 21.78 39.46 22.03 39.53 22.28 39.58 22.55 39.57 23.19 39.55 23.22 38.76 23.27 38.28 23.36 37.39 23.08 36.64 22.89 35.8 22.55 36.26 22.1 36.53 21.39 36.33 20.96 36.21 20.62 36.03 20.5 35.66 20.39 35.94 20.31 36.23 20.23 36.51 20.03 37.2 19.86 37.89 19.87 38.61Z" fill="#DDC5AC" opacity="0.6"/><path d="M21.59 36.38C21.61 36.38 21.63 36.39 21.65 36.39 21.76 37.24 22 38.06 22.06 38.92 22.07 39.12 22.09 39.33 22.1 39.54 22 39.52 21.89 39.5 21.79 39.47 21.88 39.2 21.84 38.8 21.84 38.59 21.85 38.27 21.82 37.96 21.76 37.64 21.78 38.21 21.76 38.8 21.65 39.36 21.62 39.5 21.55 39.58 21.47 39.62 21.54 38.53 21.63 37.46 21.59 36.38Z" fill="#B7A697" opacity="0.5"/><path d="M22.57 38.59C22.61 38.91 22.66 39.23 22.69 39.55 22.65 39.56 22.6 39.57 22.55 39.57 22.52 39.57 22.49 39.57 22.46 39.57 22.45 39.38 22.44 39.19 22.43 39.01 22.38 38.16 22.15 37.34 22.03 36.51 22.38 37.14 22.48 37.88 22.57 38.59Z" fill="#B7A697" opacity="0.5"/><path d="M23.27 38.08C23.14 37.4 23.06 36.63 22.74 36 22.8 35.94 22.85 35.87 22.9 35.81 23.07 36.61 23.34 37.33 23.28 38.16 23.28 38.13 23.28 38.11 23.27 38.08Z" fill="#B7A697"/><path d="M19.87 38.61C19.85 37.89 20.03 37.2 20.23 36.52 20.32 36.24 20.4 35.95 20.5 35.67 20.59 35.94 20.8 36.11 21.08 36.23 20.99 37.34 20.83 38.44 20.78 39.55 20.78 39.55 20.77 39.54 20.76 39.54 20.73 39.53 20.69 39.51 20.65 39.49 20.24 39.35 19.89 39.09 19.87 38.61Z" fill="#B7A697"/></g><g><path d="M8.83 39.38C8.46 39.65 7.73 39.93 7.3 39.64 6.6 40.01 5.62 39.75 5.46 38.88 5.27 37.86 5.29 36.45 5.99 35.6 5.33 34.15 4.91 32.57 4.61 31.01 4.3 29.37 4.01 27.71 4.16 26.04 4.02 26.02 3.87 25.98 3.71 25.89 3.37 25.7 3.09 25.41 3.07 25.05 3.32 25.55 3.83 25.9 4.38 25.81 4.66 25.79 4.93 25.65 5.18 25.49 4.98 25.37 4.83 25.19 4.77 24.93 4.83 25.04 4.92 25.13 5 25.22 5.34 25.55 5.92 25.48 6.33 25.36 6.64 25.27 6.9 25.1 7.1 24.88 7.31 24.72 7.49 24.51 7.61 24.29 7.56 24.45 7.49 24.61 7.4 24.75 7.4 24.85 7.42 24.94 7.44 25.03 7.38 25.85 8.31 26.34 9.08 26.23 8.71 26.34 8.34 26.31 8.03 26.17 7.92 27.62 7.83 29.09 7.9 30.54 7.97 31.96 8.16 33.35 8.37 34.76 8.57 35.14 8.69 35.6 8.82 36.01 8.98 36.5 9.14 37.01 9.22 37.52 9.32 38.12 9.41 38.96 8.83 39.38Z" fill="#AF705A"/><path d="M6.31 35.82C6.61 36.1 7.06 36.13 7.54 35.98 7.69 35.93 8.27 35.73 8.27 35.5 8.27 35.4 8.26 35.3 8.26 35.2 7.82 33.72 7.64 32.13 7.6 30.59 7.58 29.73 7.61 28.88 7.68 28.02 7.71 27.61 7.74 27.21 7.8 26.81 7.83 26.62 7.84 26.3 7.91 26.1 7.5 25.86 7.23 25.43 7.28 24.89 7.01 25.24 6.62 25.5 6.2 25.59 5.88 25.66 5.54 25.64 5.27 25.52 5.27 25.52 5.27 25.53 5.26 25.53 4.96 25.85 4.62 26.05 4.25 26.04 4.59 29.34 5.11 32.71 6.31 35.82Z" fill="#D6735C"/><path d="M8.67 36.44C8.59 36.16 8.51 35.87 8.41 35.59 8.29 35.95 7.94 36.13 7.51 36.25 6.8 36.44 6.35 36.17 6.02 35.7 5.83 36.54 5.54 37.28 5.61 38.17 5.65 38.65 5.67 39.44 6.32 39.47 6.59 39.48 6.84 39.44 7.09 39.37 7 39.09 7.04 38.69 7.04 38.47 7.04 38.15 7.06 37.84 7.13 37.53 7.11 38.1 7.11 38.69 7.22 39.25 7.26 39.46 7.39 39.54 7.54 39.55 7.71 39.61 7.95 39.52 8.09 39.46 8.12 39.45 8.16 39.43 8.2 39.41 8.62 39.28 8.97 39.02 8.99 38.54 9.04 37.82 8.87 37.12 8.67 36.44Z" fill="#FFFFFF"/><path d="M8.67 36.44C8.59 36.16 8.51 35.87 8.41 35.59 8.29 35.95 7.94 36.13 7.51 36.25 6.8 36.44 6.35 36.17 6.02 35.7 5.83 36.54 5.54 37.28 5.61 38.17 5.65 38.65 5.67 39.44 6.32 39.47 6.59 39.48 6.84 39.44 7.09 39.37 7 39.09 7.04 38.69 7.04 38.47 7.04 38.15 7.06 37.84 7.13 37.53 7.11 38.1 7.11 38.69 7.22 39.25 7.26 39.46 7.39 39.54 7.54 39.55 7.71 39.61 7.95 39.52 8.09 39.46 8.12 39.45 8.16 39.43 8.2 39.41 8.62 39.28 8.97 39.02 8.99 38.54 9.04 37.82 8.87 37.12 8.67 36.44Z" fill="#DDC5AC" opacity="0.6"/><path d="M7.61 37.25C7.68 38.01 7.83 38.75 8.08 39.47 8.03 39.49 7.97 39.51 7.91 39.53 7.65 38.81 7.59 38.02 7.61 37.25Z" fill="#B7A697" opacity="0.5"/><path d="M6.65 39.45C6.57 38.38 6.71 37.29 7.12 36.31 7.14 36.31 7.16 36.31 7.18 36.31 6.96 37.3 6.85 38.37 7.02 39.39 6.89 39.41 6.77 39.43 6.65 39.45Z" fill="#B7A697" opacity="0.5"/><path d="M5.81 39.14C5.65 38.86 5.64 38.45 5.61 38.16 5.54 37.27 5.83 36.53 6.02 35.69 6.08 35.77 6.14 35.85 6.21 35.92 5.65 36.88 5.64 38.03 5.81 39.14Z" fill="#B7A697"/><path d="M7.93 36.09C8.16 35.98 8.33 35.82 8.41 35.59 8.51 35.87 8.59 36.16 8.67 36.44 8.87 37.12 9.03 37.82 9 38.54 8.99 38.94 8.73 39.19 8.41 39.34 8.06 38.29 7.9 37.19 7.93 36.09Z" fill="#B7A697"/></g><g><path d="M27.39 22.96C27.55 23.37 27.91 24 27.41 24.21 27.82 24.73 28.04 25.31 27.79 25.98 27.53 26.68 26.77 26.93 26.11 26.71 26.17 26.93 26.17 27.17 26.11 27.43 26 27.89 25.65 28.14 25.21 28.11 25.89 28.82 26.09 29.79 25.51 30.67 25.18 31.16 24.38 31.58 23.95 31.13 23.93 31.47 23.89 31.76 23.56 31.97 23.31 32.13 22.98 32.13 22.72 32 22.67 32.28 22.51 32.54 22.26 32.75 22.03 32.94 21.7 33 21.42 32.95 21.27 32.93 21.14 32.86 21.02 32.77 20.83 32.64 20.94 32.77 20.93 32.93 20.89 33.71 19.71 33.87 19.12 33.89 18.86 33.9 18.6 33.86 18.36 33.78 18.08 34.16 17.7 34.48 17.26 34.55 16.55 34.66 15.91 34.24 15.57 33.64 15.31 34.09 14.82 34.15 14.28 33.96 14.16 33.92 13.73 33.62 13.81 33.44 13.7 33.69 13.54 33.93 13.31 34.07 12.84 34.37 12.04 34.33 11.69 33.84 11.59 33.69 11.54 33.54 11.54 33.39 11.2 33.57 10.75 33.47 10.67 33.11 10.33 33.63 9.69 33.85 9.07 33.82 8.48 33.79 7.3 33.61 7.27 32.84 7.26 32.67 7.38 32.55 7.18 32.67 7.06 32.75 6.93 32.82 6.78 32.84 6.49 32.88 6.17 32.82 5.94 32.62 5.69 32.4 5.54 32.14 5.49 31.86 5.23 32 4.91 32 4.66 31.84 4.33 31.63 4.3 31.33 4.28 30.99 3.84 31.43 3.05 31 2.73 30.51 2.16 29.62 2.37 28.66 3.06 27.95 2.63 27.99 2.28 27.72 2.17 27.27 2.11 27.01 2.12 26.77 2.18 26.54 1.52 26.76 0.76 26.5 0.51 25.79 0.26 25.12 0.49 24.54 0.91 24.03 0.41 23.81 0.78 23.19 0.95 22.78 0.35 22.67 0.06 22 0.1 21.42 0.15 20.75 0.42 20.23 0.91 19.82 0.59 19.82 0.43 19.4 0.45 19.04 0.46 18.66 0.62 18.32 0.88 18.07 0.31 18.13 0.01 17.42 0 16.92-0.01 16.25 0.25 15.76 0.76 15.35 0.62 15.26 0.55 15.12 0.6 14.93 0.64 14.8 0.69 14.68 0.76 14.57 0.8 14.51 0.84 14.45 0.88 14.4 0.88 14.4 0.88 14.4 0.88 14.4 0.46 14.32 0.38 13.86 0.41 13.46 0.51 12.21 1.39 11.35 2.65 11.49 2.65 11.09 2.84 10.72 3.18 10.47 3.43 10.3 3.67 10.21 3.96 10.15 4.07 10.13 4.2 10.11 4.31 10.12 4.32 10.12 4.37 10.13 4.42 10.14 4.22 9.71 4.36 9.19 4.62 8.77 5.02 8.11 5.5 7.79 6.25 7.78 6.34 7.42 6.52 7.16 6.88 7.01 7.26 6.85 7.68 6.73 8.03 6.95 8.16 6.55 8.47 6.2 8.92 6.31 9.12 6.36 9.07 6.4 9.1 6.15 9.11 6.02 9.2 5.91 9.27 5.81 9.41 5.62 9.67 5.54 9.9 5.53 10.18 5.52 10.06 5.24 10.14 5.06 10.2 4.93 10.26 4.81 10.36 4.7 10.58 4.45 10.84 4.32 11.16 4.24 11.68 4.12 12.13 4.29 12.22 4.78 12.39 4.53 12.63 4.3 12.94 4.31 13.18 4.32 13.44 4.38 13.58 4.57 13.72 4.38 13.91 4.23 14.16 4.16 14.74 3.99 15.4 4.08 15.66 4.64 15.92 4.37 16.35 4.19 16.7 4.34 17.06 4.49 17.29 4.84 17.38 5.21 17.64 4.84 18.19 4.69 18.63 4.73 19.04 4.77 19.5 4.98 19.81 5.24 20.03 5.43 20.06 5.68 20.04 5.94 20.24 5.85 20.46 5.84 20.66 6 20.97 6.26 21.04 6.53 21.14 6.91 21.32 6.94 21.5 7.01 21.67 7.08 22.04 7.24 22.21 7.5 22.3 7.86 23.05 7.88 23.52 8.21 23.92 8.87 24.18 9.3 24.31 9.81 24.09 10.25 24.14 10.24 24.19 10.24 24.2 10.23 24.31 10.22 24.44 10.23 24.55 10.26 24.84 10.32 25.09 10.42 25.33 10.59 25.67 10.84 25.85 11.21 25.85 11.61 27.11 11.49 27.98 12.35 28.06 13.61 28.09 14.01 27.99 14.47 27.57 14.55 27.57 14.55 27.57 14.55 27.57 14.55 27.61 14.6 27.65 14.66 27.69 14.72 27.77 14.83 27.81 14.95 27.85 15.08 27.9 15.26 27.83 15.41 27.68 15.49 28.18 15.91 28.44 16.4 28.42 17.07 28.41 17.57 28.1 18.27 27.54 18.21 27.79 18.46 27.95 18.8 27.96 19.18 27.97 19.54 27.8 19.96 27.48 19.96 27.96 20.38 28.22 20.9 28.27 21.57 28.29 22.19 27.98 22.86 27.39 22.96Z" fill="#96816F"/><path d="M27.19 19.91C27.14 19.88 27.15 19.79 27.22 19.81 27.68 19.96 27.66 19.34 27.63 19.05 27.61 18.77 27.42 18.46 27.19 18.23 27.18 18.22 27.18 18.21 27.18 18.21 27.12 18.1 27.04 18 26.96 17.91 27.08 17.95 27.19 18 27.29 18.07 27.3 18.07 27.3 18.06 27.31 18.06 27.55 18 27.74 17.99 27.93 17.81 28.13 17.62 28.19 17.31 28.22 17.05 28.3 16.41 28.02 15.95 27.54 15.57 27.51 15.55 27.48 15.48 27.53 15.46 28.13 15.2 27.36 14.72 27.25 14.49 27.23 14.44 27.25 14.34 27.32 14.34 27.93 14.26 27.78 13.41 27.68 12.98 27.46 12.09 26.64 11.65 25.77 11.87 25.71 11.89 25.65 11.83 25.65 11.77 25.61 11.23 25.29 10.84 24.79 10.64 24.53 10.54 24.25 10.48 23.97 10.47 23.96 10.48 23.96 10.49 23.95 10.5 24.07 10.63 24.17 10.77 24.24 10.93 24.31 11.09 24.38 11.33 24.34 11.52 24.28 11.34 24.16 11.16 24.04 10.99 24.03 10.97 24.03 10.95 24.02 10.94 23.91 10.71 23.75 10.47 23.53 10.32 23.52 10.3 23.51 10.29 23.5 10.27 23.49 10.24 23.51 10.21 23.54 10.22 23.62 10.26 23.7 10.3 23.77 10.36 23.77 10.34 23.79 10.32 23.81 10.34 23.81 10.34 23.84 10.34 23.89 10.33 24.28 9.9 23.97 9.3 23.69 8.9 23.31 8.36 22.85 8.15 22.2 8.15 22.13 8.15 22.09 8.08 22.08 8.02 22.02 7.64 21.86 7.44 21.51 7.28 21.23 7.15 20.93 7.05 20.63 7.1 20.58 7.08 20.52 7.07 20.47 7.07 20.63 6.96 20.81 6.93 20.99 6.94 20.78 6.52 20.49 5.87 19.93 6.29 19.87 6.33 19.78 6.3 19.78 6.22 19.76 5.59 19.26 5.21 18.67 5.07 18.24 4.97 17.5 5.05 17.4 5.61 17.38 5.7 17.22 5.78 17.21 5.64 17.19 5.28 17.01 4.69 16.6 4.59 16.25 4.5 15.87 4.63 15.68 4.95 15.65 5 15.55 5.05 15.5 4.98 15.25 4.56 14.77 4.36 14.28 4.49 13.76 4.63 13.47 5.04 13.35 5.55 13.34 5.59 13.27 5.62 13.27 5.57 13.26 5.28 13.32 4.99 13.46 4.74 13.04 4.34 12.5 4.52 12.2 5.03 12.17 5.08 12.09 5.08 12.08 5.02 12.03 4.45 11.52 4.33 11.04 4.47 10.46 4.63 10.21 4.99 10.15 5.58 10.15 5.6 10.13 5.62 10.11 5.62 9.58 5.62 9.03 5.83 9.14 6.49 9.14 6.52 9.12 6.55 9.09 6.55 8.58 6.53 8.18 6.86 8.19 7.4 8.19 7.52 8 7.63 7.98 7.47 7.96 7.33 7.97 7.17 8.01 7.02 7.68 6.92 7.33 7.02 7.02 7.17 6.67 7.32 6.51 7.52 6.44 7.89 6.43 7.95 6.38 8.02 6.32 8.02 5.68 8.01 5.21 8.22 4.83 8.75 4.54 9.15 4.22 9.75 4.61 10.18 4.65 10.19 4.69 10.19 4.69 10.19 4.71 10.17 4.73 10.2 4.73 10.21 4.8 10.16 4.88 10.11 4.96 10.08 5.01 10.06 5.02 10.14 4.98 10.17 4.76 10.32 4.59 10.55 4.47 10.8 4.33 11.08 4.35 11.32 4.4 11.62 4.41 11.65 4.37 11.68 4.34 11.66 4.02 11.49 4.13 11.05 4.25 10.79 4.32 10.63 4.42 10.49 4.55 10.36 4.54 10.35 4.54 10.34 4.53 10.33 4.25 10.34 3.97 10.39 3.71 10.49 3.21 10.68 2.89 11.07 2.83 11.61 2.83 11.66 2.77 11.73 2.71 11.71 1.85 11.47 1.02 11.91 0.79 12.79 0.68 13.21 0.52 14.07 1.13 14.15 1.2 14.16 1.22 14.25 1.2 14.31 1.1 14.55 0.32 15.01 0.91 15.28 0.96 15.3 0.93 15.37 0.9 15.39 0.4 15.77 0.13 16.22 0.2 16.86 0.23 17.12 0.28 17.43 0.48 17.62 0.67 17.8 0.86 17.81 1.1 17.88 1.11 17.88 1.11 17.89 1.12 17.89 1.28 17.79 1.47 17.72 1.67 17.68 1.68 17.68 1.69 17.68 1.69 17.68 1.57 17.75 1.46 17.83 1.36 17.93 1.06 18.16 0.8 18.53 0.77 18.87 0.74 19.15 0.72 19.78 1.17 19.63 1.23 19.61 1.24 19.7 1.19 19.73 0.22 20.29-0.24 22.21 1.17 22.52 1.24 22.54 1.26 22.62 1.24 22.69 1.09 23.14 0.64 23.47 1.12 23.92 1.17 23.96 1.12 24.03 1.09 24.06 0.55 24.46 0.4 25.33 0.82 25.86 1.19 26.32 1.71 26.38 2.26 26.32 2.32 26.19 2.39 26.07 2.47 25.95 2.45 26.08 2.44 26.22 2.43 26.34 2.35 26.57 2.33 26.82 2.39 27.08 2.5 27.53 2.73 27.78 3.21 27.82 3.26 27.83 3.27 27.88 3.23 27.91 2.56 28.49 2.41 29.37 2.91 30.12 3.15 30.49 3.85 31.09 4.31 30.67 4.38 30.6 4.47 30.67 4.44 30.75 4.26 31.49 4.84 31.88 5.48 31.74 5.47 31.52 5.51 31.3 5.62 31.08 5.62 31.34 5.66 31.59 5.77 31.83 5.8 31.89 5.83 31.95 5.87 32 5.94 32.11 6.01 32.21 6.09 32.3 6.46 32.68 6.88 32.77 7.33 32.45 7.35 32.44 7.38 32.45 7.38 32.47 7.4 32.96 7.62 33.23 8.11 33.34 8.41 33.41 8.71 33.47 9.01 33.47 9.59 33.49 10.34 33.38 10.68 32.85 10.71 32.81 10.78 32.8 10.79 32.86 10.83 33.26 11.24 33.36 11.56 33.22 11.59 33.11 11.64 33.01 11.7 32.91 11.67 33.17 11.73 33.44 11.89 33.62 12.04 33.79 12.21 33.86 12.4 33.86 12.44 33.87 12.49 33.88 12.53 33.89 13.05 33.97 13.52 33.77 13.77 33.29 13.79 33.26 13.83 33.25 13.85 33.29 14.05 33.64 14.41 33.76 14.79 33.76 15.14 33.76 15.3 33.61 15.49 33.33 15.54 33.25 15.65 33.25 15.68 33.35 15.83 34.02 16.86 34.52 17.48 34.27 18.07 34.04 18.44 33.53 18.71 32.97 18.72 32.94 18.76 32.96 18.76 32.99 18.71 33.15 18.64 33.32 18.55 33.48 18.77 33.52 18.99 33.53 19.19 33.53 19.49 33.52 19.8 33.47 20.09 33.41 20.58 33.3 20.81 33.04 20.83 32.55 20.83 32.52 20.86 32.51 20.88 32.53 21.33 32.85 21.75 32.77 22.12 32.39 22.14 32.37 22.16 32.35 22.18 32.33 22.35 32.24 22.48 32.11 22.58 31.89 22.65 31.74 22.66 31.57 22.68 31.4 22.68 31.39 22.68 31.38 22.68 31.37 22.73 31.53 22.75 31.69 22.73 31.84 23.37 31.98 23.96 31.61 23.79 30.86 23.77 30.77 23.85 30.71 23.93 30.78 24.37 31.21 25.08 30.62 25.33 30.25 25.84 29.5 25.7 28.63 25.04 28.04 25.01 28.01 25.02 27.95 25.06 27.95 25.54 27.91 25.76 27.66 25.89 27.22 25.96 26.94 25.93 26.67 25.84 26.42 25.83 26.31 25.81 26.2 25.79 26.09 25.78 26.06 25.77 26.02 25.75 25.98 25.87 26.14 25.97 26.3 26.04 26.46 26.58 26.54 27.12 26.48 27.49 26.02 27.92 25.49 27.79 24.62 27.25 24.21 27.21 24.18 27.17 24.11 27.22 24.07 27.71 23.63 27.26 23.3 27.12 22.84 27.1 22.78 27.12 22.69 27.19 22.68 28.59 22.41 28.15 20.48 27.19 19.91Z" fill="#FFFFFF"/><path d="M27.31 18.05C27.55 17.99 27.74 17.98 27.93 17.8 28.13 17.61 28.19 17.3 28.22 17.04 28.3 16.4 28.02 15.94 27.54 15.56 27.51 15.54 27.48 15.47 27.53 15.45 28.13 15.19 27.36 14.71 27.25 14.48 27.23 14.43 27.25 14.33 27.32 14.33 27.93 14.25 27.78 13.4 27.68 12.97 27.61 12.67 27.46 12.42 27.27 12.23 27.44 12.6 27.5 13.01 27.37 13.43 27.19 14.03 26.65 14.36 26.07 14.46 26.41 14.59 26.69 14.86 26.8 15.21 26.92 15.59 26.7 15.82 26.4 15.93 26.76 16.04 27.01 16.35 26.99 16.77 26.96 17.31 26.49 17.4 26.08 17.26 26.4 17.75 26.45 18.38 26 18.83 25.97 18.87 25.93 18.89 25.89 18.92 25.83 18.47 25.37 18.04 25.05 17.81 25.02 17.78 24.97 17.83 24.99 17.87 25.21 18.18 25.65 18.66 25.55 19.08 25.42 19.6 24.68 19.77 24.24 19.65 24.19 19.64 24.15 19.7 24.19 19.74 24.68 20.18 25.53 19.87 25.82 19.35 25.85 19.29 25.87 19.23 25.88 19.18 26.09 19.36 26.25 19.6 26.36 19.84 26.57 20.32 26.51 21.01 26.08 21.35 25.7 21.64 25.15 21.5 24.76 21.32 24.75 21.31 24.73 21.3 24.72 21.3 24.64 21.46 24.52 21.6 24.38 21.7 23.79 22.15 22.9 22.09 22.17 21.99 22.35 21.45 22.19 20.92 21.84 20.47 21.8 20.42 21.73 20.48 21.76 20.53 21.99 20.93 22.04 21.53 21.81 21.94 21.58 22.34 21.15 22.49 20.7 22.48 20.65 22.48 20.62 22.56 20.67 22.58 21.22 22.84 21.85 22.72 22.12 22.11 22.14 22.07 22.15 22.03 22.17 21.99 22.44 22.17 22.76 22.28 23.03 22.43 23.29 22.57 23.66 22.79 23.71 23.11 23.8 23.68 23.27 23.93 22.81 23.81 23.15 24.26 22.95 24.88 22.5 25.26 21.9 25.77 20.92 25.4 20.28 25.08 20.52 25.6 20.52 26.18 20.07 26.61 19.61 27.05 18.91 27.11 18.33 26.95 18.35 27.37 18.28 27.81 17.97 28.13 17.71 28.4 17.34 28.49 16.98 28.47 16.11 28.43 15.4 27.74 15.19 26.92 15.02 27.22 14.78 27.47 14.42 27.53 14.05 27.59 13.67 27.39 13.4 27.15 12.8 26.61 12.57 25.69 13.07 25.04 12.57 25.16 12.06 25.13 11.6 24.88 11.41 24.77 11.25 24.63 11.12 24.47 11.15 24.81 11.11 25.16 10.97 25.48 10.76 25.98 10.31 26.35 9.8 26.51 9.35 26.66 8.83 26.63 8.43 26.37 8 26.09 7.87 25.58 7.88 25.1 7.48 25.47 6.85 25.56 6.43 25.14 5.87 24.56 6.31 24.01 6.75 23.54 6.21 23.6 5.6 23.41 5.2 23.01 4.83 22.65 4.89 22.22 5.14 21.86 5.43 22.12 5.83 22.29 6.23 22.19 6.3 22.17 6.3 22.06 6.23 22.05 5.63 21.88 4.6 21.23 5.16 20.5 5.21 20.44 5.13 20.36 5.07 20.41 4.77 20.68 4.65 21.03 4.78 21.37 4.59 21.51 4.31 22.08 4.27 22.18 4.25 22.22 4.2 22.22 4.18 22.19 3.55 21.44 3.86 20.11 4.64 19.57 3.46 19.46 2.25 20.28 2.41 21.57 2.42 21.63 2.33 21.65 2.31 21.59 2.05 20.99 1.91 20.32 2.06 19.68 2.21 19.05 2.69 18.63 3.3 18.46 2.42 16.69 6.37 18.03 5.1 18.97 5.36 19.09 5.7 19.14 5.9 19.12 6.21 19.1 6.5 18.97 6.7 18.73 6.99 18.38 6.97 17.87 6.9 17.45 6.89 17.38 6.99 17.37 7 17.44 7.18 18.39 8.05 19.46 9.06 18.79 9.1 18.76 9.16 18.81 9.14 18.86 8.72 19.84 9.17 20.78 10.1 21.18 9.45 20.08 9.99 18.78 11.08 18.18 11.1 18.17 11.13 18.17 11.15 18.19 11.2 18.16 11.26 18.13 11.31 18.1 11.75 17.91 12.17 18.12 12.44 18.46 12.77 17.79 13.82 18.06 14.18 18.65 14.09 18.8 14.03 18.97 13.99 19.15 13.98 19.21 14.06 19.23 14.09 19.18 14.37 18.7 14.92 18.42 15.46 18.46 15.79 18.48 16 18.6 16.2 18.76 16.23 18.8 16.26 18.84 16.28 18.88 16.64 19.43 16.76 20.22 16.38 20.79 16.38 20.8 16.37 20.81 16.37 20.82 16.36 20.82 16.35 20.83 16.35 20.84 16.28 20.88 16.34 20.99 16.41 20.97 16.87 20.83 17.24 20.58 17.5 20.23 17.59 20.26 17.68 20.29 17.76 20.33 18.29 20.59 18.55 21.39 18.23 21.89 18.19 21.95 18.26 22.05 18.32 21.99 18.51 21.82 18.61 21.61 18.66 21.39 18.88 21.04 18.84 20.67 18.63 20.26 18.6 20.19 18.55 20.12 18.49 20.04 18.49 20.04 18.49 20.03 18.48 20.03 18.41 19.89 18.26 19.76 18.09 19.64 18.02 19.58 17.94 19.53 17.86 19.48 17.97 19.03 17.86 18.44 17.57 18.04 17.83 18.14 18.02 18.36 18.18 18.61 18.24 18.11 18.53 17.65 19.08 17.58 19.65 17.51 20.15 17.85 20.43 18.33 20.57 18.1 20.8 17.94 21.08 18.03 21.08 18.03 21.08 18.03 21.08 18.03 21.08 18.02 21.08 18.02 21.09 18.01 21.1 18.02 21.11 18.03 21.12 18.05 21.22 18.09 21.29 18.16 21.34 18.25 21.38 18.28 21.43 18.3 21.47 18.32 21.97 18.53 22.44 18.35 22.52 17.79 22.53 17.73 22.45 17.71 22.43 17.77 22.3 18.15 21.86 18.19 21.55 18 21.42 17.92 21.3 17.81 21.26 17.66 21.22 17.51 21.27 17.38 21.28 17.23 21.28 17.18 21.22 17.16 21.18 17.18 21.11 17.21 21.05 17.27 21.01 17.34 20.98 17.31 20.95 17.29 20.93 17.26 20.78 17.1 20.67 16.86 20.79 16.66 20.88 16.51 21.05 16.44 21.23 16.42 21.03 16.33 20.88 16.18 20.87 15.93 20.86 15.59 21.11 15.28 21.35 15.05 21.02 14.98 20.74 14.8 20.8 14.41 20.85 14.05 21.13 13.72 21.37 13.44 20.78 13.19 20.53 12.62 20.83 12.04 20.28 11.74 19.97 11.04 19.72 10.5 19.44 9.9 19.21 9.28 18.99 8.66 17.52 8.85 16.03 8.64 14.58 8.38 13.82 8.24 13.06 8.09 12.29 7.97 12.09 7.94 9.92 7.64 9.92 7.77 9.84 9.86 7.22 10.96 7.54 13.13 7.55 13.17 7.51 13.19 7.48 13.19 6.56 13.16 4.88 14.12 5.85 15.14 5.87 15.17 5.88 15.22 5.83 15.23 5.57 15.32 5.26 15.45 5.31 15.78 5.35 16.01 5.53 16.22 5.67 16.41 5.91 16.73 6.09 17.01 5.9 17.41 5.75 17.74 5.32 17.76 5.02 17.66 4.61 17.52 4.27 17.21 4.09 16.82 3.85 17.4 3.2 17.45 2.69 17.1 2.43 16.92 2.25 16.63 2.23 16.31 2.21 15.96 2.44 15.67 2.7 15.45 2.27 15.43 1.83 15.26 1.99 14.74 2.11 14.32 2.48 13.95 2.87 13.72 2.62 13.74 2.34 13.7 2.17 13.51 1.99 13.31 2.02 13.04 2.15 12.83 2.36 12.5 2.73 12.34 3.1 12.27 3.22 12.25 3.18 12.1 3.19 12 3.21 11.88 3.26 11.77 3.31 11.66 3.42 11.46 3.61 11.33 3.81 11.23 3.85 11.21 3.89 11.25 3.88 11.29 3.81 11.98 4.49 12.37 5.13 12.41 5.11 12.45 5.09 12.49 5.08 12.53 4.93 12.97 5.01 13.45 5.39 13.74 5.43 13.76 5.46 13.72 5.44 13.69 5.23 13.27 5.22 12.88 5.49 12.48 5.7 12.16 5.97 11.85 6.32 11.69 6.37 11.67 6.33 11.6 6.29 11.61 5.84 11.7 5.39 11.93 5.16 12.34 5.02 12.28 4.9 12.19 4.81 12.05 4.68 11.84 4.73 11.58 4.81 11.37 5.02 10.81 5.51 10.33 5.96 9.94 5.68 9.86 5.35 9.79 5.13 9.56 4.93 9.32 4.91 9.01 4.98 8.72 5 8.63 5.03 8.55 5.06 8.47 4.98 8.55 4.9 8.64 4.82 8.75 4.53 9.15 4.21 9.75 4.6 10.18 4.64 10.19 4.68 10.19 4.68 10.19 4.7 10.17 4.72 10.2 4.72 10.21 4.79 10.16 4.87 10.11 4.95 10.08 5 10.06 5.01 10.14 4.97 10.17 4.75 10.32 4.58 10.55 4.46 10.8 4.32 11.08 4.34 11.32 4.39 11.62 4.4 11.65 4.36 11.68 4.33 11.66 4.01 11.49 4.12 11.05 4.24 10.79 4.31 10.63 4.41 10.49 4.54 10.36 4.53 10.35 4.53 10.34 4.52 10.33 4.24 10.34 3.96 10.39 3.7 10.49 3.2 10.68 2.88 11.07 2.82 11.61 2.82 11.66 2.76 11.73 2.7 11.71 1.84 11.47 1.01 11.91 0.78 12.79 0.67 13.21 0.51 14.07 1.12 14.15 1.19 14.16 1.21 14.25 1.19 14.31 1.09 14.55 0.31 15.01 0.9 15.28 0.95 15.3 0.92 15.37 0.89 15.39 0.39 15.77 0.12 16.22 0.19 16.86 0.22 17.12 0.27 17.43 0.47 17.62 0.66 17.8 0.85 17.81 1.09 17.88 1.1 17.88 1.1 17.89 1.11 17.89 1.27 17.79 1.46 17.72 1.66 17.68 1.67 17.68 1.68 17.68 1.68 17.68 1.56 17.75 1.45 17.83 1.35 17.93 1.05 18.16 0.79 18.53 0.76 18.87 0.73 19.15 0.71 19.78 1.16 19.63 1.22 19.61 1.23 19.7 1.18 19.73 0.21 20.29-0.25 22.21 1.16 22.52 1.23 22.54 1.25 22.62 1.23 22.69 1.08 23.14 0.63 23.47 1.11 23.92 1.16 23.96 1.11 24.03 1.08 24.06 0.54 24.46 0.39 25.33 0.81 25.86 1.18 26.32 1.7 26.38 2.25 26.32 2.31 26.19 2.38 26.07 2.46 25.95 2.44 26.08 2.43 26.22 2.42 26.34 2.34 26.57 2.32 26.82 2.38 27.08 2.49 27.53 2.72 27.78 3.2 27.82 3.25 27.83 3.26 27.88 3.22 27.91 2.55 28.49 2.4 29.37 2.9 30.12 3.14 30.49 3.84 31.09 4.3 30.67 4.37 30.6 4.46 30.67 4.43 30.75 4.25 31.49 4.83 31.88 5.47 31.74 5.46 31.52 5.5 31.3 5.61 31.08 5.61 31.34 5.65 31.59 5.76 31.83 5.79 31.89 5.82 31.95 5.86 32 5.93 32.11 6 32.21 6.08 32.3 6.45 32.68 6.87 32.77 7.32 32.45 7.34 32.44 7.37 32.45 7.37 32.47 7.39 32.96 7.61 33.23 8.1 33.34 8.4 33.41 8.7 33.47 9 33.47 9.58 33.49 10.33 33.38 10.67 32.85 10.7 32.81 10.77 32.8 10.78 32.86 10.82 33.26 11.23 33.36 11.55 33.22 11.58 33.11 11.63 33.01 11.69 32.91 11.66 33.17 11.72 33.44 11.88 33.62 12.03 33.79 12.2 33.86 12.39 33.86 12.43 33.87 12.48 33.88 12.52 33.89 13.04 33.97 13.51 33.77 13.76 33.29 13.78 33.26 13.82 33.25 13.84 33.29 14.04 33.64 14.4 33.76 14.78 33.76 15.13 33.76 15.29 33.61 15.48 33.33 15.53 33.25 15.64 33.25 15.67 33.35 15.82 34.02 16.85 34.52 17.47 34.27 18.06 34.04 18.43 33.53 18.7 32.97 18.71 32.94 18.75 32.96 18.75 32.99 18.7 33.15 18.63 33.32 18.54 33.48 18.76 33.52 18.98 33.53 19.18 33.53 19.48 33.52 19.79 33.47 20.08 33.41 20.57 33.3 20.8 33.04 20.82 32.55 20.82 32.52 20.85 32.51 20.87 32.53 21.32 32.85 21.74 32.77 22.11 32.39 22.13 32.37 22.15 32.35 22.17 32.33 22.34 32.24 22.47 32.11 22.57 31.89 22.64 31.74 22.65 31.57 22.67 31.4 22.67 31.39 22.67 31.38 22.67 31.37 22.72 31.53 22.74 31.69 22.72 31.84 23.36 31.98 23.95 31.61 23.78 30.86 23.76 30.77 23.84 30.71 23.92 30.78 24.36 31.21 25.07 30.62 25.32 30.25 25.83 29.5 25.69 28.63 25.03 28.04 25 28.01 25.01 27.95 25.05 27.95 25.53 27.91 25.75 27.66 25.88 27.22 25.95 26.94 25.92 26.67 25.83 26.42 25.82 26.31 25.8 26.2 25.78 26.09 25.77 26.06 25.76 26.02 25.74 25.98 25.86 26.14 25.96 26.3 26.03 26.46 26.57 26.54 27.11 26.48 27.48 26.02 27.91 25.49 27.78 24.62 27.24 24.21 27.2 24.18 27.16 24.11 27.21 24.07 27.7 23.63 27.25 23.3 27.11 22.84 27.09 22.78 27.11 22.69 27.18 22.68 28.6 22.39 28.16 20.46 27.2 19.89 27.15 19.86 27.16 19.77 27.23 19.79 27.69 19.94 27.67 19.32 27.64 19.03 27.62 18.75 27.43 18.44 27.2 18.21 27.19 18.2 27.19 18.19 27.19 18.19 27.13 18.08 27.05 17.98 26.97 17.89 27.09 17.93 27.2 17.98 27.3 18.05 27.29 18.06 27.3 18.05 27.31 18.05Z" fill="#DDC5AC" opacity="0.4"/><path d="M25.41 12.71C25.36 11.96 25.37 11.09 24.56 10.76 24.53 10.75 24.48 10.77 24.48 10.81 24.6 11.45 24.8 12.2 24.13 12.57 23.99 11.94 23.85 11.24 23.45 10.72 23.18 10.37 22.84 10.23 22.47 10.25 22.82 10.07 23.13 9.82 23.08 9.44 23 8.86 22.28 8.58 21.81 8.87 22.04 7.75 20.49 7.49 19.63 7.56 19.67 6.72 19.38 5.77 18.84 5.11 19.35 5.27 19.76 5.64 19.78 6.21 19.78 6.28 19.88 6.32 19.93 6.28 20.5 5.85 20.79 6.5 21 6.92 20.82 6.91 20.64 6.94 20.48 7.05 20.53 7.05 20.59 7.06 20.64 7.08 20.94 7.03 21.24 7.13 21.52 7.26 21.86 7.42 22.02 7.63 22.09 8 22.1 8.06 22.14 8.13 22.21 8.13 22.86 8.13 23.32 8.34 23.7 8.88 23.98 9.29 24.29 9.88 23.9 10.31 23.85 10.32 23.82 10.32 23.82 10.32 23.8 10.31 23.78 10.33 23.78 10.34 23.71 10.29 23.63 10.24 23.55 10.2 23.51 10.19 23.5 10.22 23.51 10.25 23.52 10.27 23.53 10.28 23.54 10.3 23.76 10.45 23.92 10.69 24.03 10.92 24.04 10.94 24.05 10.96 24.05 10.97 24.17 11.14 24.28 11.32 24.35 11.5 24.39 11.31 24.32 11.07 24.25 10.91 24.18 10.75 24.08 10.6 23.96 10.48 23.97 10.47 23.97 10.46 23.98 10.45 24.25 10.46 24.54 10.52 24.8 10.62 25.3 10.82 25.62 11.21 25.66 11.75 25.67 11.81 25.72 11.87 25.78 11.85 26.06 11.78 26.34 11.78 26.59 11.84 26.13 12.03 25.68 12.31 25.41 12.71Z" fill="#DDC5AC" opacity="0.4"/><path d="M8.04 11.48C7.91 11.79 7.81 12.11 7.72 12.43 7.35 13.87 7.6 15.52 8.83 16.49 9.33 16.88 9.91 17.09 10.51 17.27 11.15 17.46 11.81 17.58 12.48 17.63 13.84 17.73 15.26 17.57 16.51 17.01 17.73 16.47 18.82 15.54 19.32 14.27 19.57 13.64 19.69 12.96 19.64 12.28 19.59 11.64 19.43 11.02 19.39 10.38 19.37 10.31 19.34 10.25 19.32 10.19 18.86 9.14 18.09 8.35 16.59 8.12 14.63 7.82 12.25 8.45 10.88 9.94 9.98 10.93 9.92 7.97 8.04 11.48Z" fill="#DDC5AC" opacity="0.6"/><path d="M1.08 24.06C1.12 24.03 1.16 23.96 1.11 23.92 0.63 23.47 1.09 23.15 1.23 22.69 1.25 22.63 1.23 22.54 1.16 22.52-0.25 22.21 0.21 20.29 1.18 19.73 1.23 19.7 1.22 19.61 1.16 19.63 0.7 19.77 0.73 19.15 0.76 18.87 0.79 18.53 1.05 18.16 1.35 17.93 1.45 17.83 1.56 17.75 1.68 17.68 1.67 17.68 1.67 17.67 1.66 17.68 1.46 17.71 1.28 17.78 1.11 17.89 1.11 17.89 1.1 17.88 1.09 17.88 0.85 17.82 0.66 17.81 0.47 17.62 0.27 17.43 0.22 17.12 0.19 16.86 0.12 16.22 0.4 15.77 0.89 15.39 0.92 15.37 0.95 15.3 0.9 15.28 0.31 15.01 1.09 14.55 1.19 14.31 1.21 14.26 1.19 14.16 1.12 14.15 0.51 14.07 0.67 13.21 0.78 12.79 0.81 12.67 0.85 12.56 0.91 12.46 1.01 12.93 1.29 13.36 1.69 13.65 1.17 14.01 1.26 14.8 1.83 15.04 1.32 15.3 0.71 15.95 0.94 16.52 1.17 17.1 1.89 17.17 2.44 17.29 2 17.67 1.38 17.96 1.33 18.6 1.29 19.06 1.49 19.4 1.96 19.4 1.64 20.53 1.46 22.86 3.15 22.83 3.2 22.83 3.21 22.76 3.18 22.74 2.52 22.07 2.98 20.65 3.79 20.27 3.45 20.79 3.25 21.37 3.54 21.98 3.73 22.38 4.09 22.8 4.52 22.61 4.52 22.74 4.53 22.86 4.55 22.98 4.66 23.56 5.04 23.93 5.56 24.17 5.3 24.34 4.97 24.47 4.66 24.43 4.26 24.38 4.02 24.1 3.87 23.74 3.85 23.7 3.77 23.7 3.77 23.75 3.71 24.26 3.63 24.87 3.84 25.36 4.02 25.78 4.37 25.95 4.77 25.98 4.38 26.16 4.06 26.49 4.09 26.97 4.13 27.51 4.49 27.92 4.94 28.18 4.41 28.7 4.3 29.41 4.83 29.99 5.1 30.29 5.63 30.54 5.98 30.3 5.99 30.3 5.99 30.3 5.99 30.31 6.04 30.33 6.08 30.27 6.06 30.23 6.09 30.2 6.12 30.16 6.15 30.12 6.19 30.06 6.09 30.02 6.05 30.07 6.02 30.12 5.99 30.15 5.96 30.18 5.49 29.96 5.61 29.26 5.73 28.85 5.86 28.4 6.05 27.91 6.36 27.55 6.41 28.51 7 30.24 8.21 29.68 8.24 29.67 8.25 29.63 8.23 29.6 7.9 29.13 7.73 28.63 7.69 28.08 7.97 28.82 8.5 29.51 9.39 29.41 10.2 29.32 10.89 28.78 11.43 28.18 11.13 28.89 10.92 29.85 11.65 30.31 12.33 30.74 13.28 30.69 13.94 30.23 13.76 31.09 13.07 31.79 12.14 31.44 12.1 31.42 12.06 31.45 12.06 31.49 12.2 32.6 13.69 32.14 14.19 31.53 14.87 32.47 16.39 32.5 16.94 31.41 16.96 31.37 16.93 31.33 16.89 31.33 15.97 31.46 14.34 30.8 14.52 29.67 15.29 30.09 16.27 30.37 17.14 30.13 17.96 29.9 18.29 29.23 18.31 28.46 18.79 29.47 20.43 30.33 21.03 29.19 21.02 29.43 20.94 29.66 20.72 29.82 20.68 29.85 20.7 29.91 20.74 29.92 21.86 30.11 23.19 28.97 22.42 27.85 22.39 27.81 22.32 27.84 22.32 27.89 22.37 28.64 21.76 29 21.12 28.95L21.12 28.95C21.12 28.92 21.1 28.91 21.08 28.9 21.66 28.61 21.43 27.67 20.81 27.43 21.25 27.29 21.71 27.08 21.97 26.69 22.24 26.3 22.06 25.87 21.8 25.53 21.86 25.53 21.91 25.52 21.97 25.52 22.4 25.52 22.86 25.42 23.21 25.2 23.67 24.91 23.7 24.48 23.45 24.05 23.87 24.07 24.34 23.93 24.38 23.43 24.41 23.02 24.22 22.64 23.94 22.34 24.35 22.58 24.61 23.12 24.7 23.56 24.8 24.07 24.72 24.72 24.05 24.6 24.01 24.59 23.97 24.63 23.99 24.67 24.45 25.63 23.64 26.54 22.67 26.6 22.61 26.6 22.6 26.68 22.65 26.7 23.3 27 24.19 27.1 24.8 26.64 25.34 26.23 25.39 25.6 25.21 25.01 25.37 25.17 25.56 25.3 25.79 25.31 26.05 25.32 26.3 25.18 26.44 24.97 26.76 24.5 26.52 24.05 26.05 23.93 26.38 23.78 26.69 23.52 26.71 23.14 26.74 22.77 26.57 22.45 26.32 22.19 26.82 22.28 27.42 22.31 27.72 21.84 27.9 21.56 27.94 21.2 27.95 20.85 28.24 21.61 28.11 22.51 27.18 22.7 27.1 22.71 27.09 22.8 27.11 22.86 27.25 23.32 27.7 23.65 27.21 24.09 27.16 24.13 27.21 24.2 27.24 24.23 27.78 24.63 27.91 25.51 27.48 26.04 27.11 26.5 26.58 26.55 26.03 26.48 25.96 26.31 25.86 26.15 25.74 26 25.76 26.05 25.77 26.08 25.78 26.11 25.8 26.22 25.82 26.33 25.83 26.44 25.92 26.69 25.96 26.96 25.88 27.24 25.76 27.69 25.53 27.94 25.05 27.97 25.01 27.97 24.99 28.03 25.03 28.06 25.69 28.65 25.83 29.53 25.32 30.27 25.07 30.64 24.36 31.23 23.92 30.8 23.85 30.73 23.76 30.79 23.78 30.88 23.95 31.63 23.37 32 22.72 31.86 22.73 31.7 22.71 31.55 22.67 31.39 22.67 31.4 22.67 31.41 22.67 31.42 22.65 31.59 22.63 31.75 22.57 31.91 22.47 32.14 22.34 32.26 22.17 32.35 22.15 32.37 22.13 32.39 22.11 32.41 21.74 32.79 21.31 32.87 20.87 32.55 20.85 32.54 20.82 32.54 20.82 32.57 20.8 33.07 20.57 33.33 20.08 33.43 19.79 33.49 19.48 33.55 19.18 33.55 18.98 33.55 18.76 33.54 18.54 33.5 18.63 33.34 18.7 33.17 18.75 33.01 18.76 32.98 18.72 32.96 18.7 32.99 18.43 33.54 18.07 34.05 17.47 34.29 16.85 34.53 15.82 34.04 15.67 33.37 15.65 33.27 15.54 33.27 15.48 33.35 15.29 33.63 15.14 33.78 14.78 33.78 14.39 33.78 14.03 33.66 13.84 33.31 13.82 33.28 13.78 33.28 13.76 33.31 13.51 33.79 13.04 33.99 12.52 33.91 12.47 33.9 12.43 33.89 12.39 33.88 12.21 33.88 12.03 33.82 11.88 33.64 11.72 33.46 11.66 33.19 11.69 32.93 11.63 33.03 11.58 33.14 11.55 33.24 11.23 33.38 10.81 33.29 10.78 32.88 10.77 32.82 10.7 32.83 10.67 32.87 10.34 33.4 9.59 33.51 9 33.49 8.7 33.48 8.39 33.42 8.1 33.36 7.61 33.25 7.39 32.98 7.37 32.49 7.37 32.47 7.34 32.45 7.32 32.47 6.87 32.79 6.45 32.7 6.08 32.32 6 32.24 5.92 32.13 5.86 32.02 5.82 31.97 5.79 31.91 5.76 31.85 5.65 31.61 5.61 31.36 5.61 31.1 5.51 31.32 5.46 31.55 5.47 31.76 4.83 31.89 4.25 31.51 4.43 30.77 4.45 30.68 4.37 30.61 4.3 30.69 3.85 31.11 3.15 30.51 2.9 30.14 2.4 29.39 2.55 28.51 3.22 27.93 3.25 27.9 3.24 27.85 3.2 27.84 2.72 27.8 2.5 27.55 2.38 27.1 2.32 26.84 2.34 26.59 2.42 26.36 2.43 26.24 2.44 26.1 2.46 25.97 2.37 26.09 2.3 26.21 2.25 26.34 1.7 26.41 1.17 26.35 0.81 25.88 0.39 25.33 0.54 24.46 1.08 24.06Z" fill="#DDC5AC" opacity="0.6"/><path d="M2.84 27.03C3.09 27.31 3.42 27.55 3.76 27.67 3.51 27.86 3.31 28.1 3.21 28.42 2.91 29.35 3.71 30.11 4.57 29.84 5.25 30.65 6.59 31.15 7.12 30.24 8.2 30.86 9.54 30.98 10.45 30.13 10.85 30.5 11.31 30.75 11.81 30.74 11.69 30.91 11.62 31.11 11.64 31.33 11.68 31.75 11.94 32.12 12.26 32.38 12.72 32.75 13.53 33.03 13.89 32.55 14.29 32.87 14.76 33.06 15.28 33.02 15.83 32.97 16.49 32.7 16.76 32.19 16.89 31.94 16.94 31.68 16.95 31.42 16.95 31.42 16.95 31.42 16.95 31.42 16.96 31.4 16.96 31.39 16.95 31.38 16.95 31.26 16.93 31.13 16.92 31 17.11 30.96 17.29 30.88 17.43 30.74 17.56 31.32 17.83 31.82 18.57 31.73 19.34 31.63 19.91 30.97 20.05 30.23 20.75 30.56 21.75 30.57 22.21 29.99 22.74 30.31 23.35 30.44 23.86 30.04 24.79 29.31 24.5 28.35 24 27.5 24.72 27.64 25.51 27.52 25.92 27.12 25.92 27.16 25.91 27.2 25.9 27.24 25.78 27.69 25.55 27.94 25.07 27.97 25.03 27.97 25.01 28.03 25.05 28.06 25.71 28.65 25.85 29.53 25.34 30.27 25.09 30.64 24.38 31.23 23.94 30.8 23.87 30.73 23.78 30.79 23.8 30.88 23.97 31.63 23.39 32 22.74 31.86 22.75 31.7 22.73 31.55 22.69 31.39 22.69 31.4 22.69 31.41 22.69 31.42 22.67 31.59 22.65 31.75 22.59 31.91 22.49 32.14 22.36 32.26 22.19 32.35 22.17 32.37 22.15 32.39 22.13 32.41 21.76 32.79 21.33 32.87 20.89 32.55 20.87 32.54 20.84 32.54 20.84 32.57 20.82 33.07 20.59 33.33 20.1 33.43 19.81 33.49 19.5 33.55 19.2 33.55 19 33.55 18.78 33.54 18.56 33.5 18.65 33.34 18.72 33.17 18.77 33.01 18.78 32.98 18.74 32.96 18.72 32.99 18.45 33.54 18.09 34.05 17.49 34.29 16.87 34.53 15.84 34.04 15.69 33.37 15.67 33.27 15.56 33.27 15.5 33.35 15.31 33.63 15.16 33.78 14.8 33.78 14.41 33.78 14.05 33.66 13.86 33.31 13.84 33.28 13.8 33.28 13.78 33.31 13.53 33.79 13.06 33.99 12.54 33.91 12.49 33.9 12.45 33.89 12.41 33.88 12.23 33.88 12.05 33.82 11.9 33.64 11.74 33.46 11.68 33.19 11.71 32.93 11.65 33.03 11.6 33.14 11.57 33.24 11.25 33.38 10.83 33.29 10.8 32.88 10.79 32.82 10.72 32.83 10.69 32.87 10.36 33.4 9.61 33.51 9.02 33.49 8.72 33.48 8.41 33.42 8.12 33.36 7.63 33.25 7.41 32.98 7.39 32.49 7.39 32.47 7.36 32.45 7.34 32.47 6.89 32.79 6.47 32.7 6.1 32.32 6.02 32.24 5.94 32.13 5.88 32.02 5.84 31.97 5.81 31.91 5.78 31.85 5.67 31.61 5.63 31.36 5.63 31.1 5.53 31.32 5.48 31.55 5.49 31.76 4.85 31.89 4.27 31.51 4.45 30.77 4.47 30.68 4.39 30.61 4.32 30.69 3.87 31.11 3.17 30.51 2.92 30.14 2.42 29.39 2.57 28.51 3.24 27.93 3.27 27.9 3.26 27.85 3.22 27.84 2.74 27.8 2.52 27.55 2.4 27.1 2.34 26.85 2.36 26.6 2.44 26.37 2.51 26.59 2.65 26.83 2.84 27.03Z" fill="#DDC5AC" opacity="0.6"/><path d="M0.75 25.3C1.21 25.63 1.8 25.82 2.31 25.69 2.3 25.83 2.32 25.98 2.35 26.12 2.31 26.18 2.28 26.25 2.25 26.32 1.7 26.39 1.17 26.33 0.81 25.86 0.65 25.66 0.57 25.4 0.57 25.15 0.63 25.2 0.69 25.25 0.75 25.3Z" fill="#DDC5AC" opacity="0.6"/></g><path d="M5.48 23.84C5 23.74 4.7 23.36 4.57 22.9 4.43 22.41 4.63 22.05 4.89 21.66 4.9 21.64 4.89 21.62 4.87 21.63 4.6 21.89 4.36 22.17 4.28 22.51 3.84 22.31 3.53 22.03 3.46 21.5 3.39 20.92 3.84 20.46 4.2 20.08 4.2 20.08 4.2 20.07 4.19 20.07 3.7 20.51 3.28 20.96 3.29 21.67 3.29 22.19 3.71 22.78 4.25 22.73 4.25 22.82 4.26 22.92 4.28 23.03 4.4 23.63 4.82 24.09 5.47 23.98 5.54 23.97 5.56 23.86 5.48 23.84Z" fill="#B7A28F" opacity="0.6"/><path d="M5.88 13.72C5.4 14.23 5.34 15.29 5.96 15.71 5.96 15.71 5.96 15.71 5.97 15.71 5.83 15.95 5.74 16.31 6 16.48 6.07 16.53 6.15 16.45 6.14 16.37 6.1 16.1 6.05 15.9 6.2 15.66 6.26 15.56 6.32 15.47 6.42 15.4 6.51 15.34 6.62 15.32 6.7 15.25 6.71 15.24 6.71 15.22 6.69 15.23 6.57 15.29 6.42 15.26 6.3 15.34 6.19 15.41 6.1 15.5 6.03 15.61 5.72 15.14 5.63 14.64 5.85 14.1 5.96 13.82 6.19 13.62 6.45 13.49 6.65 13.39 7.18 13.29 7.35 13.51 7.36 13.52 7.38 13.51 7.38 13.5 7.18 12.88 6.14 13.45 5.88 13.72Z" fill="#B7A28F" opacity="0.6"/><path d="M14.12 21.06C13.38 21.21 12.12 21.2 12.19 20.13 12.19 20.11 12.16 20.12 12.16 20.13 12.11 20.32 12.1 20.52 12.14 20.7 11.66 20.66 11.22 20.53 10.93 20.1 10.62 19.66 10.49 18.9 10.8 18.43 10.81 18.43 10.8 18.42 10.79 18.43 10.36 18.87 10.35 19.62 10.58 20.16 10.86 20.81 11.54 21.06 12.2 20.88 12.2 20.88 12.21 20.88 12.21 20.87 12.28 21 12.39 21.11 12.55 21.19 13.07 21.44 13.63 21.38 14.13 21.15 14.18 21.13 14.19 21.05 14.12 21.06Z" fill="#B7A28F" opacity="0.6"/><path d="M24.57 22.97C24.45 22.31 23.78 22.1 23.19 22.24 23.18 22.24 23.17 22.27 23.19 22.27 23.68 22.27 24.19 22.44 24.35 22.94 24.53 23.47 24.19 24.02 23.81 24.35 23.73 24.16 23.58 24.06 23.4 23.93 23.38 23.92 23.36 23.94 23.37 23.96 23.62 24.29 23.65 24.66 23.47 25.04 23.28 25.44 22.87 25.57 22.45 25.55 22.4 25.55 22.36 25.62 22.42 25.64 22.84 25.79 23.46 25.63 23.7 25.22 23.82 25.01 23.91 24.74 23.85 24.49 23.84 24.47 23.84 24.45 23.83 24.43 24.36 24.15 24.68 23.59 24.57 22.97Z" fill="#B7A28F" opacity="0.6"/><path d="M23.78 15.18C23.6 15.15 23.45 15.15 23.32 15.19 23.31 14.85 22.97 14.6 22.65 14.5 22.17 14.36 21.78 14.64 21.45 14.95 21.44 14.95 21.45 14.97 21.46 14.96 21.77 14.79 22.06 14.6 22.44 14.69 22.75 14.77 22.95 15 23.06 15.28 22.83 15.41 22.64 15.61 22.4 15.81 22.38 15.83 22.39 15.87 22.42 15.85 22.76 15.68 22.98 15.46 23.4 15.5 23.87 15.55 24 15.9 24.13 16.3 24.16 16.41 24.29 16.34 24.32 16.27 24.42 15.83 24.3 15.28 23.78 15.18Z" fill="#B7A28F" opacity="0.6"/><g><path d="M12.2 43.89C11.82 44.16 11.1 44.44 10.67 44.15 9.97 44.52 8.98 44.26 8.83 43.39 8.65 42.38 8.66 40.96 9.36 40.12 8.7 38.67 8.28 37.09 7.99 35.53 7.68 33.89 7.39 32.23 7.54 30.56 7.4 30.54 7.25 30.5 7.09 30.41 6.75 30.22 6.47 29.93 6.45 29.56 6.7 30.06 7.21 30.41 7.76 30.32 8.04 30.3 8.31 30.16 8.56 30 8.36 29.88 8.21 29.7 8.15 29.44 8.21 29.55 8.3 29.65 8.38 29.73 8.72 30.07 9.3 29.99 9.71 29.87 10.02 29.78 10.27 29.61 10.48 29.39 10.69 29.23 10.87 29.02 10.99 28.8 10.94 28.96 10.87 29.12 10.78 29.26 10.78 29.36 10.8 29.45 10.82 29.55 10.76 30.37 11.69 30.86 12.46 30.75 12.09 30.87 11.72 30.83 11.41 30.69 11.3 32.14 11.21 33.61 11.28 35.06 11.35 36.48 11.54 37.88 11.75 39.28 11.95 39.66 12.07 40.12 12.2 40.53 12.36 41.02 12.52 41.53 12.6 42.04 12.68 42.62 12.77 43.47 12.2 43.89Z" fill="#AF705A"/><path d="M9.67 40.33C9.97 40.61 10.42 40.64 10.9 40.49 11.05 40.45 11.63 40.24 11.63 40.01 11.63 39.91 11.62 39.81 11.62 39.71 11.18 38.23 11.01 36.64 10.96 35.1 10.93 34.24 10.97 33.39 11.04 32.54 11.07 32.13 11.1 31.73 11.16 31.33 11.19 31.14 11.2 30.82 11.28 30.63 10.87 30.39 10.6 29.96 10.65 29.42 10.38 29.77 9.99 30.03 9.57 30.12 9.24 30.19 8.91 30.17 8.64 30.05 8.64 30.05 8.64 30.06 8.64 30.06 8.34 30.37 8 30.58 7.62 30.57 7.95 33.85 8.47 37.22 9.67 40.33Z" fill="#FFD4C5"/><path d="M8.63 30.05C8.63 30.05 8.63 30.04 8.63 30.04 8.9 30.16 9.23 30.18 9.56 30.11 9.98 30.02 10.37 29.76 10.64 29.41 10.59 29.95 10.86 30.38 11.27 30.62 11.19 30.81 11.18 31.14 11.15 31.32 11.09 31.72 11.06 32.13 11.03 32.53 10.96 33.38 10.92 34.24 10.95 35.09 11 36.63 11.17 38.22 11.61 39.7 11.61 39.8 11.62 39.9 11.62 40 11.62 40.19 11.22 40.36 11 40.44 10.95 40.15 10.88 39.86 10.8 39.58 10.51 38.49 10.05 37.42 9.85 36.31 9.67 35.27 9.53 34.26 9.52 33.21 9.51 32.51 9.58 31.56 9.09 30.98 8.82 30.65 8.56 30.77 8.46 31.16 8.28 31.85 8.32 32.6 8.34 33.3 8.38 34.33 8.52 35.36 8.74 36.37 9.05 37.79 9.47 39.24 10.15 40.54 9.96 40.51 9.79 40.44 9.66 40.31 8.46 37.2 7.94 33.83 7.6 30.54 7.99 30.56 8.33 30.36 8.63 30.05Z" fill="#FFD4C5"/><path d="M11.31 39.65C11.13 38.79 10.89 37.96 10.77 37.09 10.59 35.88 10.46 34.64 10.41 33.42 10.39 33.08 10.36 32.72 10.39 32.38 10.41 32.14 10.47 31.9 10.48 31.66 10.49 31.49 10.5 31.31 10.43 31.15 10.33 30.93 10.22 30.74 10.22 30.49 10.22 30.43 10.15 30.41 10.11 30.44 9.67 30.7 9.08 30.58 8.69 30.28 8.65 30.25 8.6 30.26 8.58 30.3 8.4 30.65 7.94 30.67 7.72 30.99 7.7 31.02 7.68 31.06 7.67 31.09 7.65 30.91 7.63 30.73 7.61 30.55 7.99 30.56 8.33 30.36 8.63 30.04 8.63 30.04 8.63 30.03 8.63 30.03 8.9 30.15 9.23 30.17 9.56 30.1 9.98 30.01 10.37 29.75 10.64 29.4 10.59 29.94 10.86 30.37 11.27 30.61 11.19 30.8 11.18 31.13 11.15 31.31 11.09 31.71 11.06 32.12 11.03 32.52 10.96 33.37 10.92 34.23 10.95 35.08 11 36.62 11.17 38.21 11.61 39.69 11.61 39.79 11.62 39.89 11.62 39.99 11.62 40.1 11.5 40.2 11.35 40.28 11.38 40.08 11.35 39.85 11.31 39.65Z" fill="#D6A79A"/><path d="M12.04 40.95C11.96 40.67 11.88 40.38 11.78 40.1 11.66 40.46 11.31 40.64 10.88 40.76 10.17 40.95 9.72 40.67 9.39 40.21 9.2 41.05 8.91 41.79 8.98 42.68 9.02 43.16 9.04 43.95 9.69 43.98 9.96 43.99 10.21 43.95 10.46 43.88 10.38 43.61 10.42 43.21 10.42 43 10.42 42.68 10.44 42.36 10.51 42.05 10.49 42.62 10.49 43.21 10.6 43.77 10.64 43.99 10.77 44.06 10.92 44.07 11.09 44.13 11.33 44.04 11.48 43.98 11.51 43.97 11.55 43.95 11.59 43.93 12.01 43.8 12.37 43.54 12.38 43.06 12.4 42.33 12.23 41.63 12.04 40.95Z" fill="#FFFFFF"/><path d="M12.04 40.95C11.96 40.67 11.88 40.38 11.78 40.1 11.66 40.46 11.31 40.64 10.88 40.76 10.17 40.95 9.72 40.67 9.39 40.21 9.2 41.05 8.91 41.79 8.98 42.68 9.02 43.16 9.04 43.95 9.69 43.98 9.96 43.99 10.21 43.95 10.46 43.88 10.38 43.61 10.42 43.21 10.42 43 10.42 42.68 10.44 42.36 10.51 42.05 10.49 42.62 10.49 43.21 10.6 43.77 10.64 43.99 10.77 44.06 10.92 44.07 11.09 44.13 11.33 44.04 11.48 43.98 11.51 43.97 11.55 43.95 11.59 43.93 12.01 43.8 12.37 43.54 12.38 43.06 12.4 42.33 12.23 41.63 12.04 40.95Z" fill="#DDC5AC" opacity="0.6"/><path d="M11.46 40.54C11.46 40.53 11.46 40.52 11.45 40.5 11.6 40.4 11.71 40.27 11.77 40.09 11.87 40.37 11.95 40.66 12.03 40.94 12.23 41.62 12.39 42.32 12.36 43.04 12.35 43.23 12.29 43.38 12.2 43.51 12.03 42.51 11.79 41.51 11.46 40.54Z" fill="#B7A697" opacity="0.5"/><path d="M10.91 44.06C10.87 44.06 10.83 44.05 10.8 44.04 10.61 43.05 10.71 41.95 10.9 40.97 10.87 41.97 10.98 43.06 11.29 44.03 11.16 44.07 11.02 44.1 10.91 44.06Z" fill="#B7A697" opacity="0.3"/><path d="M9.93 40.7C9.99 40.73 10.04 40.75 10.1 40.77 9.91 41.84 9.88 42.91 10.07 43.95 9.94 43.97 9.82 43.98 9.68 43.97 9.52 42.87 9.54 41.73 9.93 40.7Z" fill="#B7A697" opacity="0.5"/><path d="M9.09 43.46C9.01 43.2 8.99 42.9 8.97 42.67 8.9 41.78 9.18 41.04 9.38 40.2 9.41 40.24 9.44 40.28 9.47 40.32 9.11 41.32 9 42.4 9.09 43.46Z" fill="#B7A697" opacity="0.5"/></g><g><path d="M16.19 42.03C16.27 41.52 16.45 41.02 16.61 40.53 16.74 40.13 16.87 39.67 17.08 39.29 17.31 37.89 17.52 36.5 17.61 35.08 17.7 33.63 17.63 32.16 17.54 30.71 17.23 30.85 16.86 30.88 16.49 30.76 17.26 30.88 18.19 30.4 18.15 29.58 18.17 29.49 18.18 29.39 18.19 29.3 18.1 29.15 18.03 29 17.98 28.83 18.1 29.06 18.28 29.27 18.48 29.43 18.68 29.65 18.94 29.82 19.24 29.92 19.65 30.05 20.23 30.13 20.57 29.8 20.66 29.72 20.74 29.62 20.81 29.51 20.75 29.77 20.59 29.95 20.39 30.06 20.63 30.23 20.9 30.37 21.18 30.4 21.73 30.49 22.25 30.16 22.5 29.66 22.48 30.02 22.2 30.31 21.85 30.49 21.69 30.57 21.55 30.62 21.4 30.63 21.53 32.3 21.22 33.96 20.88 35.59 20.56 37.15 20.13 38.72 19.45 40.17 20.14 41.02 20.13 42.44 19.93 43.45 19.76 44.32 18.77 44.57 18.08 44.19 17.65 44.47 16.92 44.18 16.55 43.91 15.98 43.48 16.09 42.65 16.19 42.03Z" fill="#AF705A"/><path d="M21.31 30.64C20.93 30.64 20.59 30.44 20.3 30.12 20.3 30.12 20.29 30.11 20.29 30.11 20.02 30.23 19.69 30.24 19.37 30.17 18.95 30.07 18.56 29.81 18.29 29.46 18.33 30 18.06 30.43 17.64 30.66 17.72 30.86 17.72 31.18 17.75 31.37 17.8 31.77 17.83 32.18 17.86 32.59 17.92 33.45 17.94 34.3 17.91 35.16 17.84 36.69 17.65 38.29 17.19 39.76 17.19 39.86 17.18 39.96 17.17 40.06 17.16 40.28 17.74 40.5 17.89 40.55 18.37 40.7 18.82 40.68 19.12 40.41 20.37 37.3 20.93 33.94 21.31 30.64Z" fill="#FFD4C5"/><path d="M17.19 39.74C17.65 38.27 17.85 36.67 17.91 35.14 17.95 34.28 17.92 33.43 17.86 32.57 17.83 32.17 17.8 31.76 17.75 31.35 17.73 31.16 17.72 30.84 17.64 30.64 18.05 30.41 18.33 29.98 18.29 29.44 18.56 29.79 18.94 30.05 19.37 30.15 19.69 30.22 20.03 30.21 20.29 30.09 20.29 30.09 20.3 30.1 20.3 30.1 20.59 30.42 20.93 30.62 21.31 30.62 20.93 33.91 20.36 37.27 19.12 40.37 18.97 40.51 18.78 40.58 18.57 40.6 18.57 40.6 18.57 40.59 18.57 40.59 18.64 40.6 18.71 40.57 18.74 40.48 19.57 38.21 20.2 36.66 20.54 34.28 20.64 33.56 20.77 31.87 20.54 31.16 20.45 30.87 20.04 30.24 19.66 30.54 19.32 30.8 19.32 31.37 19.31 31.75 19.29 32.38 19.34 33.02 19.34 33.65 19.34 34.93 19.18 36.18 18.97 37.44 18.8 38.52 18.58 39.58 18.17 40.59 18.08 40.57 17.98 40.55 17.88 40.52 17.73 40.47 17.15 40.26 17.16 40.03 17.17 39.94 17.18 39.84 17.19 39.74Z" fill="#FFD4C5"/><path d="M17.19 39.74C17.65 38.27 17.85 36.67 17.91 35.14 17.95 34.28 17.92 33.43 17.86 32.57 17.83 32.17 17.8 31.76 17.75 31.35 17.73 31.16 17.72 30.84 17.64 30.64 18.05 30.41 18.33 29.98 18.29 29.44 18.56 29.79 18.94 30.05 19.37 30.15 19.69 30.22 20.03 30.21 20.29 30.09 20.29 30.09 20.3 30.1 20.3 30.1 20.56 30.39 20.87 30.58 21.2 30.62 20.87 30.66 20.57 30.35 20.18 30.38 19.9 30.4 19.63 30.52 19.35 30.44 19.08 30.37 18.83 30.27 18.59 30.15 18.54 30.13 18.48 30.17 18.49 30.22 18.58 30.68 18.14 31.01 18.2 31.49 18.23 31.76 18.32 32.03 18.35 32.3 18.38 32.58 18.39 32.87 18.38 33.16 18.38 33.88 18.33 34.6 18.29 35.32 18.26 35.94 18.29 36.55 18.22 37.16 18.15 37.8 17.95 38.38 17.79 39 17.71 39.29 17.66 39.59 17.69 39.9 17.71 40.15 17.78 40.36 17.9 40.52 17.89 40.52 17.88 40.52 17.88 40.52 17.73 40.47 17.15 40.26 17.16 40.03 17.17 39.94 17.18 39.84 17.19 39.74Z" fill="#D6A79A"/><path d="M16.39 43.07C16.4 43.55 16.76 43.82 17.17 43.95 17.21 43.97 17.24 43.98 17.28 44 17.42 44.06 17.66 44.16 17.83 44.1 17.98 44.1 18.11 44.02 18.15 43.81 18.27 43.25 18.28 42.66 18.26 42.09 18.33 42.4 18.35 42.72 18.34 43.04 18.34 43.25 18.37 43.66 18.29 43.92 18.53 43.99 18.78 44.04 19.05 44.03 19.7 44.01 19.73 43.22 19.77 42.74 19.86 41.85 19.58 41.1 19.4 40.26 19.06 40.72 18.61 40.99 17.9 40.79 17.47 40.67 17.12 40.49 17.01 40.12 16.9 40.4 16.82 40.69 16.74 40.97 16.55 41.66 16.37 42.35 16.39 43.07Z" fill="#FFFFFF"/><path d="M16.39 43.07C16.4 43.55 16.76 43.82 17.17 43.95 17.21 43.97 17.24 43.98 17.28 44 17.42 44.06 17.66 44.16 17.83 44.1 17.98 44.1 18.11 44.02 18.15 43.81 18.27 43.25 18.28 42.66 18.26 42.09 18.33 42.4 18.35 42.72 18.34 43.04 18.34 43.25 18.37 43.66 18.29 43.92 18.53 43.99 18.78 44.04 19.05 44.03 19.7 44.01 19.73 43.22 19.77 42.74 19.86 41.85 19.58 41.1 19.4 40.26 19.06 40.72 18.61 40.99 17.9 40.79 17.47 40.67 17.12 40.49 17.01 40.12 16.9 40.4 16.82 40.69 16.74 40.97 16.55 41.66 16.37 42.35 16.39 43.07Z" fill="#DDC5AC" opacity="0.6"/><path d="M16.53 43.52C16.45 43.4 16.39 43.25 16.39 43.07 16.37 42.35 16.55 41.66 16.75 40.98 16.84 40.7 16.92 40.41 17.02 40.13 17.06 40.27 17.14 40.38 17.25 40.47 16.85 41.43 16.58 42.48 16.53 43.52Z" fill="#B7A697"/><path d="M17.71 40.73C17.73 40.74 17.75 40.74 17.77 40.75 17.98 41.86 17.81 42.99 17.63 44.11 17.5 44.09 17.37 44.04 17.27 44 17.24 43.99 17.21 43.97 17.18 43.96 17.26 42.87 17.33 41.77 17.71 40.73Z" fill="#B7A697" opacity="0.5"/><path d="M18.64 41.22C18.76 42.15 18.84 43.09 18.78 44.02 18.74 44.01 18.7 44.01 18.65 44 18.72 43.08 18.71 42.15 18.64 41.22Z" fill="#B7A697" opacity="0.5"/><path d="M19.07 40.75C19.06 40.71 19.03 40.69 19.01 40.67 19.16 40.57 19.3 40.43 19.41 40.27 19.59 41.11 19.87 41.86 19.78 42.75 19.75 43.09 19.72 43.6 19.46 43.86 19.57 42.81 19.46 41.74 19.07 40.75Z" fill="#B7A697" opacity="0.5"/></g><path d="M10.41 18.9C10.48 18.72 10.58 18.55 10.72 18.42 10.76 18.39 10.83 18.43 10.79 18.48 10.18 19.3 10.95 21.1 12.06 20.84 11.97 20.56 12 20.23 12.1 19.92 12.12 19.87 12.19 19.87 12.19 19.93 12.17 20.5 12.32 20.95 12.92 21.09 13.43 21.21 13.96 20.92 14.34 20.61 14.42 20.55 14.51 20.62 14.47 20.71 14.45 20.75 14.43 20.79 14.41 20.83 14.38 21.47 13.73 21.92 13.16 22.07 12.65 22.2 11.89 21.98 11.75 21.43 11.2 21.51 10.73 21.26 10.41 20.75 10.14 20.29 10.06 19.37 10.41 18.9Z" fill="#DDC5AC" opacity="0.4"/><path d="M21.19 15.25C21.23 15.23 21.27 15.21 21.31 15.18 21.33 15.19 21.35 15.2 21.38 15.2 21.72 15.16 22.04 14.91 22.39 14.99 23 15.13 22.44 15.82 22.12 15.96 22.07 15.99 22.09 16.08 22.15 16.07 22.22 16.06 22.28 16.05 22.34 16.03 22.35 16.09 22.39 16.14 22.46 16.13 22.67 16.12 22.84 15.97 23.05 15.93 23.27 15.89 23.54 15.89 23.7 16.06 23.91 16.27 24.06 16.69 24.01 17.02 23.99 17.06 23.98 17.11 23.96 17.15 23.96 17.16 23.96 17.17 23.96 17.19 23.96 17.23 24.01 17.26 24.04 17.23 24.09 17.18 24.13 17.12 24.16 17.05 24.53 16.54 24.8 15.83 24.33 15.3 24.09 15.04 23.69 14.95 23.35 15.05 23.24 14.65 22.92 14.36 22.46 14.29 21.84 14.19 21.45 14.73 21.05 15.08 20.94 15.16 21.08 15.3 21.19 15.25Z" fill="#DDC5AC" opacity="0.4"/><path d="M13.51 24.04C13.53 24.18 13.59 24.3 13.69 24.4 13.89 24.75 14.21 24.96 14.68 24.93 15.06 24.9 15.4 24.68 15.52 24.35 16.4 24.89 17.92 24.5 17.48 23.37 17.48 23.36 17.48 23.35 17.47 23.33 17.47 23.32 17.46 23.31 17.46 23.31 17.44 23.26 17.42 23.22 17.39 23.17 17.36 23.12 17.29 23.15 17.3 23.21 17.33 23.31 17.34 23.4 17.35 23.48 17.18 23.84 16.85 23.97 16.44 24.01 16.16 24.03 15.78 24.01 15.69 23.71 15.79 23.65 15.87 23.58 15.94 23.49 16.05 23.39 16.14 23.27 16.2 23.12 16.22 23.07 16.14 23.02 16.1 23.07 15.7 23.6 14.99 23.57 14.44 23.32 14.41 23.3 14.36 23.34 14.39 23.37 14.45 23.47 14.54 23.55 14.63 23.61 14.75 23.78 14.97 23.84 15.18 23.84 15.03 24.09 14.76 24.28 14.49 24.34 14.16 24.4 13.94 24.33 13.72 24.15 13.68 24.09 13.65 24.03 13.62 23.96 13.59 23.9 13.5 23.95 13.52 24 13.52 24 13.52 24.01 13.52 24.02 13.51 24.02 13.5 24.03 13.51 24.04ZM14.84 24.53C14.96 24.46 15.06 24.38 15.15 24.28 15.09 24.39 14.97 24.47 14.84 24.53Z" fill="#DDC5AC" opacity="0.4"/><path d="M6.44 35.71C6.34 35.45 6.26 35.18 6.18 34.91 5.92 34.08 5.57 33.22 5.4 32.35 5.64 32.76 5.97 33.08 6.38 33.09 6.71 34.02 6.94 34.99 7.24 35.92 6.94 35.92 6.68 35.84 6.44 35.71Z" fill="#FFB098"/><path d="M21.67 35.98C21.74 35.66 21.86 35.35 21.94 35.04 22.09 34.52 22.64 32.68 22.8 32.3 22.82 32.27 22.83 32.24 22.84 32.21 23.05 32.24 23.26 32.23 23.47 32.18 23.34 32.65 22.7 35.27 22.25 36 22.05 36.05 21.86 36.04 21.67 35.98Z" fill="#FFB098"/></g><g><g><path d="M21.66 6.95C21.76 6.63 21.68 6.16 21.36 6.05 21.67 5.79 21.8 5.41 21.78 4.97 21.76 4.5 21.37 4.12 20.93 4.14 21.04 3.84 20.95 3.45 20.76 3.22 20.57 2.97 20.23 3.02 19.93 3.12 20.03 2.81 20.01 2.47 19.77 2.24 19.57 2.04 19.34 1.96 19.13 2.05 19.3 1.61 19.24 1.05 18.71 0.9 18.38 0.81 17.98 0.87 17.63 1.04 17.49 0.75 17.22 0.5 16.91 0.4 16.28 0.19 15.83 0.45 15.49 0.88 15.52 0.36 14.87-0.02 14.38 0.01 14.03 0.04 13.77 0.2 13.57 0.44 13.51 0.33 13.46 0.22 13.31 0.14 13.1 0.02 12.71 0.07 12.49 0.11 12.05 0.18 11.71 0.45 11.56 0.86 11.18 0.46 10.54 0.74 10.13 0.98 9.83 1.15 9.63 1.42 9.5 1.76 9.48 1.8 9.47 1.9 9.47 2.01 9.32 1.98 9.17 1.98 9.04 1.98 8.78 2 8.56 2.13 8.37 2.31 8.18 2.49 8.29 2.87 8.03 2.86 7.46 2.84 7.01 3.37 6.87 3.87 6.8 4.1 6.8 4.42 6.9 4.65 7.06 4.97 7.28 5.1 7.59 5.2 7.45 5.34 7.35 5.49 7.32 5.7 7.27 5.96 7.45 6.12 7.6 6.3 6.98 6.43 6.62 7.07 6.61 7.7 6.61 8.39 7.25 8.92 7.89 8.77 7.5 9.45 7.9 10.13 8.76 10.22 8.77 10.22 8.77 10.22 8.78 10.22 8.74 10.31 8.71 10.41 8.67 10.51 8.28 11.54 7.81 12.57 8.02 13.69 8.39 15.61 10.6 16.75 12.38 16.93 14.36 17.13 16.33 16.26 17.75 14.91 18.55 14.15 19.14 13.27 19.4 12.19 19.57 11.45 19.59 10.67 19.53 9.9 20.17 9.9 20.68 9.53 20.95 8.93 21.11 8.56 21.21 8.02 20.86 7.81 21.26 7.69 21.53 7.37 21.66 6.95Z" fill="#AF705A"/><path d="M21.36 6.05C21.67 5.79 21.8 5.41 21.78 4.97 21.76 4.5 21.37 4.12 20.93 4.14 21.04 3.84 20.95 3.45 20.76 3.22 20.57 2.97 20.23 3.02 19.93 3.12 20.03 2.81 20.01 2.47 19.77 2.24 19.57 2.04 19.34 1.96 19.13 2.05 19.3 1.61 19.24 1.05 18.71 0.9 18.38 0.81 17.98 0.87 17.63 1.04 17.49 0.75 17.22 0.5 16.91 0.4 16.28 0.19 15.83 0.45 15.49 0.88 15.52 0.36 14.87-0.02 14.38 0.01 14.03 0.04 13.77 0.2 13.57 0.44 13.51 0.33 13.46 0.22 13.31 0.14 13.1 0.02 12.71 0.07 12.49 0.11 12.05 0.18 11.71 0.45 11.56 0.86 11.18 0.46 10.54 0.74 10.13 0.98 9.83 1.15 9.63 1.42 9.5 1.76 9.48 1.8 9.47 1.9 9.47 2.01 9.32 1.98 9.17 1.98 9.04 1.98 8.78 2 8.56 2.13 8.37 2.31 8.18 2.49 8.29 2.87 8.03 2.86 7.46 2.84 7.01 3.37 6.87 3.87 6.8 4.1 6.8 4.42 6.9 4.65 7.06 4.97 7.28 5.1 7.59 5.2 7.45 5.34 7.35 5.49 7.32 5.7 7.27 5.96 7.45 6.12 7.6 6.3 6.98 6.43 6.62 7.07 6.61 7.7 6.61 8.39 7.25 8.92 7.89 8.77 7.5 9.45 7.9 10.13 8.76 10.22 8.77 10.22 8.77 10.22 8.78 10.22 8.87 10.06 8.83 9.85 8.84 9.66 8.85 9.43 8.87 9.21 8.9 8.98 8.95 8.62 9.03 8.27 9.14 7.92 9.31 7.37 9.55 6.85 10.1 6.59 10.38 6.46 10.6 6.67 10.84 6.8 11.19 6.99 11.53 7.21 11.88 7.41 12.15 7.56 12.42 7.7 12.71 7.79 12.72 7.79 12.72 7.79 12.72 7.79 12.88 7.86 13.11 7.79 13.28 7.76 13.45 7.73 13.62 7.69 13.79 7.66 14.21 7.58 14.64 7.57 15.06 7.5 15.59 7.41 16.12 7.31 16.65 7.22 16.86 7.19 17.06 7.15 17.27 7.16 17.5 7.16 17.69 7.22 17.92 7.26 18.22 7.31 18.48 7.24 18.77 7.18 18.9 7.15 19.04 7.1 19.17 7.14 19.23 7.15 19.27 7.22 19.29 7.27 19.34 7.45 19.37 7.64 19.43 7.82 19.5 8.06 19.59 8.28 19.68 8.51 19.76 8.69 19.85 8.9 19.85 9.11 19.85 9.3 19.78 9.44 19.69 9.61 19.63 9.71 19.6 9.8 19.59 9.89 20.21 9.87 20.71 9.51 20.97 8.93 21.13 8.56 21.23 8.02 20.88 7.81 21.28 7.69 21.55 7.37 21.68 6.95 21.76 6.63 21.68 6.16 21.36 6.05Z" fill="#96816F"/><path d="M18.21 14.11C16.93 15.69 14.79 16.83 12.74 16.76 10.89 16.7 8.71 15.55 8.18 13.66 7.86 12.51 8.57 11.26 8.95 10.2 9.39 8.99 9.84 7.79 10.2 6.55 10.39 6.5 10.57 6.4 10.74 6.27 10.76 6.34 10.8 6.42 10.85 6.5 11.12 6.87 11.7 7.01 12.09 6.76 12.23 6.67 12.53 6.45 12.53 6.27 12.53 6.37 12.64 6.45 12.72 6.47 13.12 6.56 13.46 6.32 13.66 5.99 13.72 6.49 14.25 6.74 14.75 6.74 15.29 6.73 15.67 6.47 15.97 6.05 15.99 6.42 16.25 6.67 16.7 6.84 17.06 6.97 17.43 6.98 17.75 6.83 18.04 7.13 18.41 7.32 18.83 7.19 18.88 7.16 18.96 7.16 18.96 7.24 18.97 7.34 18.98 7.44 18.98 7.54 19.29 9.77 19.74 12.22 18.21 14.11Z" fill="#FFD4C5"/><path d="M19 7.54C18.99 7.44 18.98 7.34 18.98 7.24 18.98 7.16 18.9 7.16 18.85 7.19 18.44 7.32 18.06 7.13 17.77 6.83 17.46 6.98 17.08 6.97 16.72 6.84 16.27 6.67 16.01 6.42 15.99 6.05 15.7 6.47 15.31 6.73 14.77 6.74 14.27 6.74 13.75 6.49 13.68 5.99 13.48 6.32 13.14 6.56 12.74 6.47 12.66 6.45 12.55 6.37 12.55 6.27 12.55 6.45 12.25 6.67 12.11 6.76 11.72 7.02 11.14 6.88 10.87 6.5 10.81 6.42 10.78 6.35 10.76 6.27 10.59 6.39 10.41 6.5 10.22 6.55 9.85 7.79 9.4 8.99 8.96 10.2 8.58 11.26 7.87 12.51 8.19 13.66 8.72 15.55 10.89 16.7 12.75 16.76 14.8 16.83 16.94 15.69 18.22 14.11 19.74 12.22 19.29 9.77 19 7.54ZM17.49 14.37C17.26 14.58 17.02 14.82 16.71 14.9 16.49 15.05 16.24 15.16 16.01 15.1 15.98 15.09 15.96 15.06 15.97 15.03 16.09 14.7 16.21 14.45 16.08 14.09 16.01 13.89 15.92 13.71 15.83 13.52 15.75 13.35 15.66 13.13 15.82 13.02 15.5 12.82 15.2 13.17 15.2 13.51 15.43 13.35 15.6 13.65 15.64 13.9 15.72 14.32 15.62 14.71 15.24 14.96 14.88 15.18 14.3 15.34 13.91 15.11 13.54 14.9 13.42 14.48 13.34 14.08 13.33 14.02 13.4 14 13.43 14.03 13.43 14.03 13.44 14.03 13.44 14.03 13.73 14.03 14.48 13.68 14.46 13.32 14.44 12.93 13.32 12.94 13.05 12.94 12.9 12.95 11.53 12.98 11.55 13.22 11.57 13.45 11.74 13.73 11.91 13.88 12.16 14.1 12.47 14.15 12.79 14.16 12.82 14.16 12.84 14.18 12.84 14.21 12.84 14.3 12.91 14.4 12.93 14.49 12.94 14.59 12.93 14.69 12.92 14.79 12.9 14.97 12.85 15.16 12.76 15.32 12.56 15.69 12.1 15.74 11.72 15.65 11.26 15.55 10.81 15.3 10.6 14.87 10.51 14.7 10.49 14.47 10.54 14.28 10.58 14.1 10.69 13.95 10.8 13.81 10.52 13.94 10.26 14.14 10.17 14.44 10.07 14.75 10.09 15.07 10.13 15.39 10.13 15.42 10.09 15.45 10.06 15.44 9.48 15.22 8.92 14.68 8.65 14.12 8.32 13.44 8.16 12.63 8.35 11.91 8.58 11.05 8.88 10.43 9.2 9.61 9.51 8.83 9.77 8.19 10.1 7.43 10.13 7.37 10.21 7.41 10.19 7.47 10.15 7.68 10.07 7.88 9.99 8.08 10.07 8.04 10.13 8 10.2 7.95 10.25 7.92 10.29 7.98 10.27 8.02 9.92 8.75 9.43 9.4 9.47 10.25 9.51 10.95 9.76 11.77 10.58 11.83 11.47 11.89 12.01 11.1 12.13 10.3 12.19 9.86 12.18 9.41 12.14 8.97 12.12 8.73 12.1 8.46 11.99 8.24 11.91 8.1 11.83 7.96 11.77 7.81 11.75 7.77 11.81 7.73 11.85 7.75 11.94 7.81 12.02 7.88 12.12 7.93 12.11 7.73 12.04 7.47 11.87 7.38 11.85 7.37 11.84 7.35 11.84 7.34 11.81 7.31 11.82 7.25 11.87 7.25 12.12 7.28 12.29 7.11 12.44 6.94 12.46 6.92 12.5 6.92 12.52 6.93 12.64 7 12.69 7.13 12.87 7.09 12.95 7.07 13.03 7.04 13.1 7 13.21 6.94 13.32 6.87 13.43 6.81 13.46 6.8 13.48 6.8 13.5 6.83 13.9 7.4 14.65 7.22 15.2 7 15.24 6.98 15.27 7.03 15.26 7.06 15.23 7.21 15.15 7.34 15.1 7.48 15.07 7.58 15.1 7.75 15.24 7.64 15.29 7.6 15.33 7.57 15.38 7.55 15.42 7.53 15.47 7.56 15.45 7.61 15.38 7.92 15.19 8.18 15.12 8.49 15.05 8.81 15 9.14 14.96 9.47 14.87 10.13 14.86 10.86 15.16 11.47 15.28 11.71 15.44 11.94 15.68 12.07 15.93 12.2 16.16 12.17 16.41 12.23 16.54 12.26 16.6 12.35 16.61 12.48 16.63 12.68 16.59 12.89 16.58 13.08 16.87 12.14 17.72 11.46 18.71 11.35 18.57 11.29 18.42 11.24 18.27 11.19 18.21 11.17 18.14 11.16 18.1 11.1 17.94 10.86 18.03 10.56 18.01 10.29 17.96 9.37 17.72 8.52 17.19 7.76 17.16 7.71 17.22 7.67 17.26 7.69 17.43 7.77 17.57 7.89 17.7 8.01 17.61 7.81 17.49 7.63 17.4 7.43 17.38 7.39 17.41 7.34 17.46 7.35 17.6 7.39 17.78 7.34 17.91 7.4 18.08 7.48 18.15 7.67 18.31 7.77 18.54 7.92 18.6 8.12 18.65 8.39 18.73 8.79 18.78 9.21 18.86 9.61 18.95 10.06 19.03 10.52 19.03 10.98 19.05 11.83 18.69 12.75 18.24 13.46 18.03 13.82 17.78 14.1 17.49 14.37Z" fill="#FFD4C5"/><path d="M20.63 7.89C21 8.1 20.85 8.58 20.7 8.92 20.47 9.41 20.05 9.73 19.52 9.78 19.48 9.4 19.43 9.03 19.37 8.66 19.29 8.18 19.17 7.71 19.08 7.24 19.07 7.21 19.06 7.2 19.03 7.2 19.03 7.17 19.02 7.14 19.01 7.11 19.25 6.95 19.38 6.64 19.35 6.36 19.88 6.26 20.3 5.73 20.13 5.19 20.12 5.15 20.1 5.11 20.08 5.07 19.9 4.86 19.59 4.86 19.31 4.97 19.56 4.94 19.82 5.01 19.92 5.27 20.09 5.72 19.71 6.09 19.34 6.27 19.33 6.22 19.31 6.16 19.28 6.11 19.28 6.43 19.22 6.77 18.94 6.93 18.74 7.04 18.38 7.09 18.19 6.93 18.07 6.9 17.96 6.85 17.86 6.79 18 6.71 18.12 6.59 18.22 6.43 17.79 6.74 17.27 6.9 16.75 6.64 16.36 6.45 16.1 6.13 16.01 5.75 15.99 5.83 15.98 5.9 15.98 5.97 15.98 5.97 15.97 5.97 15.97 5.98 15.72 6.28 15.49 6.43 15.13 6.48 14.98 6.53 14.82 6.56 14.64 6.56 14.11 6.55 13.83 6.21 13.68 5.77 13.62 5.98 13.49 6.14 13.3 6.25 13.17 6.34 12.66 6.52 12.61 6.17 12.61 6.13 12.56 6.15 12.54 6.17 12.44 6.32 12.32 6.45 12.18 6.54 11.97 6.71 11.73 6.81 11.47 6.73 11.07 6.61 10.8 6.15 10.86 5.76 10.76 5.89 10.71 6.03 10.72 6.18 10.51 6.26 10.31 6.34 10.08 6.33 9.98 6.33 9.89 6.3 9.79 6.26 9.49 6.19 9.21 5.98 9.1 5.67 9 5.39 9.05 5.06 9.27 4.84 9.43 4.68 9.62 4.59 9.83 4.52 9.98 4.47 10.13 4.48 10.28 4.48 9.64 4.3 8.8 4.74 8.89 5.5 8.94 5.98 9.24 6.27 9.66 6.48 9.83 6.57 9.99 6.58 10.16 6.56 9.76 7.76 9.28 8.94 8.83 10.12 8.83 10.12 8.82 10.11 8.82 10.11 8.39 10 8.02 9.71 7.94 9.36 7.92 9.32 7.91 9.28 7.91 9.23 7.86 8.95 7.97 8.73 8.13 8.53 7.62 8.63 7.08 8.54 6.9 7.99 6.77 7.59 6.79 7.13 7.03 6.78 7.21 6.51 7.55 6.4 7.86 6.34 7.86 6.32 7.85 6.3 7.84 6.29 7.56 5.95 7.25 5.54 7.81 5.23 7.86 5.2 7.87 5.11 7.81 5.07 7.63 4.97 7.43 4.92 7.27 4.78 7.05 4.58 7.02 4.25 7.04 3.98 7.08 3.38 7.65 2.9 8.24 2.98 8.28 2.98 8.3 2.95 8.31 2.92 8.4 2.36 8.98 2.1 9.48 2.22 9.49 2.35 9.52 2.48 9.56 2.57 9.46 2.07 9.76 1.5 10.12 1.2 10.56 0.82 11.14 0.82 11.66 0.99 11.7 0.86 11.77 0.75 11.85 0.66 11.95 0.52 12.08 0.4 12.24 0.31 12.51 0.16 12.84 0.13 13.13 0.21 13.3 0.26 13.44 0.39 13.56 0.52 13.84 0.29 14.18 0.16 14.58 0.27 14.98 0.37 15.35 0.64 15.44 1.03 15.5 1 15.54 0.97 15.58 0.94 15.69 0.86 15.79 0.79 15.91 0.74 16.3 0.53 16.71 0.45 17.18 0.72 17.36 0.82 17.48 0.97 17.56 1.14 17.99 0.94 18.49 0.88 18.78 1.06 19.21 1.32 19.09 1.86 18.9 2.31 18.98 2.26 19.06 2.22 19.14 2.18 19.17 2.17 19.2 2.16 19.23 2.15 19.49 2.07 19.75 2.12 19.86 2.49 19.93 2.75 19.92 3.04 19.85 3.32 19.86 3.3 19.87 3.28 19.88 3.26 20.09 3.21 20.32 3.19 20.5 3.33 20.7 3.48 20.8 4.03 20.63 4.23 20.6 4.26 20.59 4.31 20.6 4.35 20.91 4.22 21.25 4.15 21.47 4.5 21.58 4.67 21.6 4.86 21.59 5.05 21.64 5.5 21.5 6.01 21.17 6.04 21.15 6.04 21.13 6.06 21.11 6.07 21.52 6.21 21.66 6.81 21.44 7.19 21.28 7.46 20.97 7.75 20.63 7.89Z" fill="#FFFFFF"/><path d="M21.1 6.06C21.12 6.04 21.14 6.03 21.16 6.03 21.49 6 21.64 5.49 21.58 5.04 21.6 4.85 21.57 4.66 21.46 4.49 21.24 4.15 20.9 4.22 20.59 4.34 20.58 4.3 20.59 4.25 20.62 4.22 20.71 4.12 20.73 3.93 20.7 3.75 20.56 4.03 20.27 4.31 19.95 4.34 19.68 4.37 19.33 4.09 19.54 3.81 19.75 3.52 20.19 3.4 20.53 3.35 20.52 3.34 20.51 3.33 20.49 3.32 20.3 3.18 20.08 3.2 19.87 3.25 19.86 3.27 19.85 3.29 19.84 3.31 19.88 3.21 19.9 3.11 19.9 3 19.73 3.23 19.47 3.36 19.18 3.41 18.74 3.48 18.35 3.24 18.22 2.87 18.17 2.97 18.1 3.08 18.01 3.16 17.56 3.6 16.89 3.54 16.53 3.03 16.38 2.82 16.35 2.59 16.4 2.37 16.4 2.35 16.4 2.33 16.4 2.31 16.34 2.38 16.29 2.45 16.25 2.53 16.08 2.89 16.22 3.61 16.71 3.63 16.77 3.63 16.78 3.71 16.72 3.73 16.45 3.81 16.2 3.95 16.06 4.21 16.04 4.24 16 4.25 15.98 4.22 15.83 4.06 15.62 4.03 15.4 4.05L15.4 4.05C15.47 4.07 15.53 4.09 15.59 4.12 15.86 4.23 16.06 4.55 16.04 4.84 16.02 5.18 15.83 5.52 15.6 5.76 15.4 5.96 15.09 6.15 14.8 6.11 14.47 6.07 14.22 5.93 14.03 5.65 13.89 5.46 13.81 5.2 13.81 4.96 13.81 4.87 13.82 4.79 13.84 4.71 13.81 4.72 13.77 4.73 13.73 4.74 13.75 4.8 13.76 4.86 13.76 4.92 13.76 5.17 13.6 5.42 13.37 5.52 13.24 5.57 13.14 5.62 13 5.61 12.89 5.61 12.77 5.58 12.67 5.52 12.61 5.68 12.51 5.82 12.34 5.92 11.91 6.2 11.25 6.05 11.03 5.55 10.99 5.44 10.95 5.33 10.93 5.21 10.89 5.07 10.91 4.92 10.97 4.77 11.09 4.49 11.37 4.34 11.66 4.32 11.71 4.31 11.76 4.3 11.81 4.29 11.95 4.28 12.07 4.33 12.17 4.43 12.2 4.45 12.24 4.47 12.27 4.49 12.33 4.54 12.39 4.59 12.45 4.64 12.45 4.63 12.46 4.63 12.46 4.62 12.46 4.61 12.47 4.59 12.47 4.58 12.51 4.42 12.64 4.29 12.79 4.23 12.69 4.06 12.64 3.86 12.67 3.65 12.67 3.63 12.67 3.61 12.68 3.59 12.56 3.76 12.38 3.89 12.16 3.97 11.63 4.15 11.04 3.99 10.83 3.44 10.76 3.27 10.78 3.04 10.85 2.86 10.35 2.99 9.85 2.7 9.7 2.15 9.67 2.05 9.66 1.96 9.65 1.87 9.57 2.07 9.53 2.29 9.55 2.49 9.57 2.51 9.59 2.53 9.6 2.56 9.71 2.77 9.74 3.06 9.59 3.26 9.48 3.41 9.32 3.52 9.13 3.51 8.95 3.5 8.75 3.44 8.63 3.3 8.38 3.05 8.4 2.71 8.58 2.44 8.45 2.56 8.35 2.72 8.31 2.92 8.31 2.95 8.28 2.99 8.24 2.98 7.65 2.9 7.07 3.38 7.04 3.98 7.02 4.26 7.05 4.58 7.27 4.78 7.43 4.92 7.63 4.96 7.81 5.07 7.87 5.11 7.86 5.2 7.81 5.23 7.25 5.54 7.56 5.95 7.84 6.29 7.85 6.3 7.86 6.32 7.86 6.34 7.55 6.4 7.21 6.51 7.03 6.78 6.79 7.13 6.76 7.59 6.9 7.99 7.08 8.54 7.62 8.62 8.13 8.53 7.97 8.73 7.87 8.96 7.91 9.23 7.92 9.27 7.93 9.31 7.94 9.35 8.02 9.71 8.39 10 8.81 10.12 8.81 10.12 8.82 10.12 8.82 10.13 9.28 8.95 9.75 7.77 10.15 6.57 9.99 6.6 9.82 6.58 9.65 6.49 9.25 6.27 8.95 5.98 8.89 5.5 8.83 4.94 9.27 4.55 9.76 4.46 9.83 4.42 9.99 4.5 10.06 4.47 10.24 4.41 10.28 4.49 10.45 4.56 10.64 4.62 10.79 4.74 10.84 4.97 10.9 5.29 10.76 5.64 10.46 5.8 10.08 6 9.54 5.88 9.32 5.48 9.16 5.18 9.27 4.89 9.48 4.67 9.4 4.72 9.33 4.77 9.26 4.84 9.05 5.06 9 5.39 9.1 5.67 9.21 5.98 9.49 6.19 9.8 6.25 9.89 6.29 9.99 6.31 10.09 6.32 10.32 6.33 10.52 6.24 10.73 6.17 10.72 6.02 10.77 5.88 10.87 5.75 10.81 6.14 11.08 6.6 11.48 6.72 11.74 6.8 11.98 6.7 12.19 6.53 12.33 6.44 12.45 6.32 12.55 6.16 12.56 6.14 12.61 6.12 12.62 6.16 12.67 6.52 13.17 6.34 13.31 6.24 13.5 6.14 13.63 5.97 13.69 5.76 13.84 6.2 14.12 6.54 14.65 6.55 14.82 6.55 14.99 6.52 15.14 6.47 15.49 6.43 15.73 6.27 15.98 5.97 15.99 5.97 15.99 5.96 15.99 5.96 15.99 5.89 16 5.82 16.02 5.74 16.1 6.12 16.37 6.44 16.76 6.63 17.28 6.89 17.8 6.72 18.23 6.42 18.12 6.58 18 6.7 17.86 6.78 17.96 6.84 18.07 6.89 18.19 6.92 18.37 7.09 18.74 7.03 18.94 6.92 19.22 6.76 19.28 6.42 19.28 6.1 19.31 6.15 19.33 6.2 19.34 6.26 19.72 6.08 20.09 5.71 19.92 5.26 19.82 5 19.57 4.93 19.31 4.96 19.6 4.85 19.9 4.85 20.08 5.06 20.1 5.1 20.12 5.13 20.13 5.18 20.3 5.72 19.87 6.25 19.35 6.35 19.38 6.64 19.25 6.94 19.01 7.1 19.02 7.13 19.02 7.16 19.03 7.19 19.05 7.19 19.07 7.2 19.08 7.23 19.17 7.71 19.29 8.18 19.37 8.65 19.43 9.02 19.48 9.39 19.52 9.77 20.05 9.72 20.48 9.4 20.7 8.91 20.85 8.57 21 8.09 20.63 7.89 20.97 7.75 21.28 7.45 21.43 7.18 21.65 6.8 21.52 6.2 21.1 6.06ZM8.33 4.16C8.2 4.3 8.01 4.36 7.82 4.37 7.48 4.38 7.2 4.08 7.2 3.75 7.2 3.55 7.3 3.38 7.44 3.27 7.55 3.13 7.72 3.03 7.92 3.03 8.25 3.03 8.55 3.31 8.54 3.65 8.54 3.84 8.47 4.02 8.33 4.16ZM18.78 4.99C18.63 5.39 18.3 5.71 17.86 5.79 17.2 5.91 16.59 5.48 16.51 4.81 16.47 4.51 16.65 4.19 16.91 4.04 16.95 4.02 16.99 4 17.04 3.98 17.05 3.97 17.05 3.96 17.06 3.96 17.41 3.69 17.86 3.62 18.27 3.8 18.69 3.99 18.94 4.56 18.78 4.99Z" fill="#DDC5AC" opacity="0.4"/><path d="M21.1 6.06C21.12 6.04 21.14 6.03 21.16 6.03 21.49 6 21.64 5.49 21.58 5.04 21.6 4.85 21.57 4.66 21.46 4.49 21.39 4.37 21.3 4.3 21.2 4.27 21.31 4.76 21.08 5.32 20.51 5.41 20.47 5.41 20.43 5.39 20.45 5.35 20.66 4.71 19.87 4.71 19.45 4.71 19.42 4.71 19.4 4.69 19.4 4.66 19.4 4.41 19.26 4.23 19.09 4.08 19.24 4.43 19.23 4.84 18.99 5.11 19.3 5.06 19.66 5.08 19.72 5.36 19.78 5.66 19.37 5.89 19.12 5.78 19.13 6.23 18.29 6.42 18.1 5.95 17.72 6.35 16.97 6.67 16.45 6.45 16.54 6.52 16.64 6.59 16.75 6.65 17.27 6.91 17.79 6.74 18.22 6.44 18.12 6.58 18 6.7 17.86 6.78 17.96 6.84 18.07 6.89 18.19 6.92 18.37 7.09 18.74 7.03 18.94 6.92 19.22 6.76 19.28 6.42 19.28 6.1 19.31 6.15 19.33 6.2 19.34 6.26 19.72 6.08 20.09 5.71 19.92 5.26 19.82 5 19.57 4.93 19.31 4.96 19.6 4.85 19.9 4.85 20.08 5.06 20.1 5.1 20.12 5.13 20.13 5.18 20.3 5.72 19.87 6.25 19.35 6.35 19.38 6.64 19.25 6.94 19.01 7.1 19.02 7.13 19.02 7.16 19.03 7.19 19.05 7.19 19.07 7.2 19.08 7.23 19.17 7.71 19.29 8.18 19.37 8.65 19.43 9.02 19.48 9.39 19.52 9.77 20.05 9.72 20.48 9.4 20.7 8.91 20.85 8.57 21 8.09 20.63 7.89 20.97 7.75 21.28 7.45 21.43 7.18 21.65 6.8 21.52 6.2 21.1 6.06Z" fill="#DDC5AC" opacity="0.6"/><path d="M10.22 3.4C10.09 3.74 9.87 3.99 9.47 4.07 9.2 4.12 8.89 4.06 8.72 3.85 8.66 4.3 8.4 4.73 7.9 4.78 7.57 4.81 7.26 4.67 7.08 4.44 7.11 4.57 7.18 4.69 7.28 4.79 7.44 4.93 7.64 4.97 7.82 5.08 7.87 5.11 7.86 5.2 7.81 5.23 7.52 5.39 7.47 5.58 7.52 5.77 7.71 5.45 8.06 5.32 8.39 5.2 8.43 5.19 8.47 5.23 8.45 5.27 8.38 5.52 8.2 6.14 8.61 6.18 8.67 6.19 8.68 6.26 8.63 6.28 8.41 6.38 8.06 6.5 8 6.76 7.94 6.98 8.04 7.2 8.02 7.42 8 7.7 7.69 7.92 7.44 7.98 7.24 8.02 7.05 8.01 6.88 7.95 6.88 7.97 6.89 7.98 6.89 7.99 7.07 8.54 7.61 8.62 8.12 8.53 7.96 8.73 7.86 8.96 7.9 9.23 7.91 9.27 7.92 9.31 7.93 9.35 8.02 9.71 8.39 10 8.81 10.12 8.81 10.12 8.82 10.12 8.82 10.13 9.28 8.95 9.75 7.77 10.15 6.57 9.99 6.6 9.82 6.58 9.65 6.49 9.25 6.27 8.95 5.98 8.89 5.5 8.83 4.94 9.27 4.55 9.76 4.46 9.81 4.43 9.9 4.46 9.97 4.47 10.11 4.42 10.23 4.34 10.31 4.22 10.33 4.2 10.35 4.19 10.37 4.2 10.88 4.39 11.35 4.36 11.83 4.21 11.18 4.21 10.38 4.03 10.22 3.4Z" fill="#DDC5AC" opacity="0.6"/><path d="M11.74 6.66C11.34 6.5 10.92 6.1 10.89 5.65 10.65 5.92 10.31 6.16 9.94 6.16 9.58 6.16 9.25 5.95 9.09 5.63 9.09 5.65 9.1 5.66 9.1 5.68 9.21 5.99 9.49 6.2 9.8 6.26 9.89 6.3 9.99 6.32 10.09 6.33 10.32 6.34 10.52 6.25 10.73 6.18 10.72 6.03 10.77 5.89 10.87 5.76 10.81 6.15 11.08 6.61 11.48 6.73 11.62 6.78 11.76 6.77 11.89 6.72 11.84 6.69 11.79 6.67 11.74 6.66Z" fill="#DDC5AC" opacity="0.4"/></g><g><path d="M18.62 11.29C18.28 11.31 17.93 11.36 17.62 11.49 18.04 10.72 17.8 9.48 17.51 8.77 17.31 8.29 16.88 7.58 16.28 7.61 15.85 7.63 15.42 8.05 15.28 8.44 15.28 8.45 15.28 8.46 15.29 8.46 15.12 8.81 15.04 9.23 14.98 9.58 14.79 10.71 15.31 12.42 16.74 12.13 16.8 12.12 16.85 12.1 16.91 12.09 16.64 12.46 16.44 12.95 16.46 13.39 16.46 13.4 16.48 13.39 16.48 13.38 16.52 12.85 16.9 12.3 17.3 11.97 17.68 11.67 18.2 11.58 18.63 11.39 18.66 11.37 18.68 11.29 18.62 11.29Z" fill="#AF705A"/><path d="M16.74 12C15.55 12.36 15.05 10.86 15.05 9.97 15.05 9.48 15.16 8.93 15.38 8.49 15.55 8.14 15.83 7.86 16.14 7.77 16.31 7.74 16.48 7.77 16.65 7.88 17.08 8.16 17.32 8.63 17.49 9.09 17.78 9.88 17.92 11.04 17.32 11.66 17.25 11.71 17.19 11.76 17.12 11.82 17.01 11.9 16.88 11.96 16.74 12Z" fill="#FFFFFF"/></g><g><path d="M10.6 11.7C10.63 11.71 10.67 11.71 10.7 11.71 11.13 11.69 11.45 11.45 11.72 11.15 12.1 10.57 12.19 9.68 12.14 9.11 12.1 8.66 11.93 7.95 11.43 7.81 11.07 7.71 10.6 7.95 10.38 8.23 10.37 8.24 10.37 8.24 10.38 8.25 10.13 8.49 9.95 8.82 9.81 9.1 9.35 9.99 9.32 11.56 10.6 11.7Z" fill="#AF705A"/><path d="M10.63 11.59C9.54 11.57 9.52 10.18 9.76 9.44 9.89 9.03 10.13 8.6 10.43 8.29 10.67 8.04 10.98 7.88 11.26 7.89 11.41 7.91 11.54 7.98 11.66 8.12 11.95 8.46 12.03 8.93 12.04 9.36 12.07 10.1 11.88 11.11 11.21 11.46 11.14 11.48 11.07 11.51 11.01 11.55 10.89 11.58 10.77 11.59 10.63 11.59Z" fill="#FFFFFF"/></g><path d="M11.98 7.64C11.81 7.23 11.51 6.91 11.04 7.06 10.83 7.13 10.66 7.28 10.51 7.43 10.37 7.57 10.29 7.76 10.17 7.91 10.17 7.92 10.17 7.92 10.18 7.92 10.25 7.9 10.23 7.88 10.31 7.8 10.45 7.66 10.62 7.54 10.78 7.43 11.22 7.14 11.55 7.4 11.87 7.72 11.91 7.76 12.01 7.7 11.98 7.64Z" fill="#AF705A"/><g><path d="M15.45 13.11C15.46 13.11 15.46 13.1 15.47 13.1 15.49 13.09 15.52 13.1 15.54 13.09 15.56 13.09 15.58 13.08 15.6 13.07 15.68 13.03 15.66 12.88 15.56 12.9 15.45 12.92 15.4 12.96 15.33 13.05 15.27 13.14 15.24 13.24 15.18 13.33 15.17 13.34 15.18 13.36 15.19 13.35 15.25 13.3 15.3 13.24 15.35 13.19 15.36 13.18 15.37 13.17 15.38 13.16 15.63 13.53 15.82 13.9 15.77 14.37 15.72 14.82 15.13 15.21 14.76 15.37 14.26 15.57 13.74 15.36 13.37 15.01 13.27 14.91 13.21 14.77 13.17 14.62 13.17 14.36 13.12 14.1 13.07 13.87 13.1 13.87 13.12 13.86 13.15 13.86 13.48 13.82 14.78 13.35 13.95 13.02 13.44 12.82 12.84 12.81 12.3 12.97 12.07 13.02 11.85 13.1 11.66 13.21 11.5 13.3 11.73 13.55 11.8 13.59 12.15 13.82 12.58 13.9 13 13.88 13 13.88 13 13.88 13 13.88 13.02 14 13.04 14.12 13.05 14.24 13.05 14.26 13.05 14.29 13.04 14.3 13.04 14.36 13.05 14.43 13.06 14.49 13.06 14.63 13.05 14.77 13.03 14.9 12.94 15.47 12.5 15.81 11.94 15.87 11.5 15.92 11.09 15.71 10.79 15.39 10.45 15.03 10.22 14.17 10.76 13.87 10.77 13.87 10.76 13.86 10.76 13.86 10.34 14.05 10.34 14.62 10.43 15.01 10.58 15.58 11.09 15.97 11.65 16.05 12.02 16.11 12.41 15.99 12.7 15.76 12.82 15.84 12.92 16.01 13.01 16.08 13.13 16.18 13.33 16.13 13.46 16.1 13.66 16.05 13.87 15.88 14.04 15.76 14.12 15.7 14.17 15.63 14.19 15.54 14.41 15.57 14.63 15.54 14.86 15.45 15.28 15.28 15.71 14.89 15.86 14.46 16.03 14.01 15.77 13.46 15.45 13.11Z" fill="#AF705A"/><path d="M12.29 13.64C12.12 13.6 11.96 13.51 11.82 13.41 11.56 13.23 12.12 13.13 12.22 13.1 12.6 12.98 13.05 12.96 13.46 13.02 13.67 13.06 13.88 13.1 14.07 13.21 14.27 13.33 13.79 13.53 13.79 13.53 13.59 13.63 13.41 13.68 13.19 13.71 12.88 13.75 12.58 13.71 12.29 13.64Z" fill="#D85961"/><path d="M13.45 15.95C13.16 16.06 13.09 15.83 12.88 15.74 12.85 15.73 12.82 15.72 12.79 15.71 12.88 15.63 12.95 15.54 13.01 15.44 13.11 15.27 13.16 15.07 13.18 14.86 13.22 14.98 13.29 15.08 13.38 15.17 13.6 15.36 13.83 15.49 14.09 15.55 13.96 15.72 13.61 15.88 13.45 15.95Z" fill="#D85961"/><path d="M13.38 15.17C13.29 15.08 13.22 14.98 13.18 14.86 13.16 15.07 13.11 15.27 13.01 15.44 12.96 15.52 12.9 15.6 12.83 15.67 12.94 15.59 13.08 15.52 13.21 15.53 13.37 15.54 13.51 15.64 13.55 15.8 13.56 15.84 13.57 15.87 13.57 15.9 13.75 15.82 13.98 15.68 14.08 15.55 13.83 15.49 13.59 15.36 13.38 15.17Z" fill="#975961" opacity="0.6"/></g><path d="M15.27 7.37C15.41 6.95 15.66 6.6 16.15 6.7 16.36 6.75 16.55 6.88 16.72 7.02 16.87 7.15 16.97 7.33 17.1 7.47 17.11 7.47 17.1 7.48 17.09 7.48 17.02 7.46 17.03 7.44 16.95 7.37 16.8 7.25 16.61 7.15 16.44 7.05 15.97 6.8 15.67 7.09 15.39 7.44 15.35 7.48 15.25 7.42 15.27 7.37Z" fill="#AF705A"/><g><path d="M26.18 3.83C25.31 3.83 24.45 3.91 23.61 4.12 22.79 4.33 22.05 4.67 21.33 5.12 20.78 5.46 20.17 6.02 19.88 6.63 19.82 6.52 19.7 6.48 19.58 6.41 19.57 6.4 19.54 6.42 19.55 6.44 19.6 6.52 19.66 6.58 19.7 6.68 19.74 6.79 19.71 6.97 19.68 7.07 19.63 7.28 19.46 7.54 19.27 7.66 19.26 7.67 19.25 7.7 19.27 7.69 19.37 7.69 19.48 7.63 19.58 7.55 19.74 7.56 19.85 7.61 19.94 7.76 20.03 7.89 20.02 8.06 20.08 8.19 20.09 8.22 20.13 8.2 20.14 8.18 20.21 7.99 20.19 7.75 20.04 7.6 19.99 7.55 19.94 7.51 19.88 7.49 20.06 7.43 20.2 7.43 20.43 7.5 20.83 7.63 21.25 7.66 21.67 7.67 22.53 7.7 23.43 7.61 24.22 7.26 25.03 6.9 25.74 6.47 26.41 5.89 26.9 5.47 27.43 4.77 27.62 4.14 27.77 3.7 26.38 3.83 26.18 3.83Z" fill="#AF705A"/><path d="M27.24 4.66C26.83 5.23 26.32 5.65 25.75 6.04 25.4 6.28 25.04 6.51 24.65 6.68 24.31 6.83 23.96 6.92 23.61 7.06 22.85 7.35 21.99 7.49 21.17 7.48 20.81 7.47 20.48 7.35 20.12 7.32 19.98 7.31 19.88 7.41 19.76 7.45 19.73 7.45 19.71 7.45 19.68 7.45 19.76 7.36 19.84 7.27 19.88 7.2 19.97 7.06 19.95 6.88 19.91 6.73 19.9 6.71 19.9 6.69 19.89 6.67 20.66 5.48 22.32 4.79 23.6 4.39 24.27 4.18 24.92 4.07 25.62 4.01 26.02 3.97 26.41 3.97 26.82 3.97 27.01 3.97 27.19 3.99 27.38 4.01 27.71 4.05 27.28 4.61 27.24 4.66Z" fill="#FFD4C5"/><path d="M24.65 6.68C25.04 6.51 25.4 6.28 25.75 6.04 25.87 5.96 25.98 5.88 26.09 5.79 26.2 5.66 26.31 5.53 26.42 5.39 26.66 5.09 26.99 4.73 27.13 4.35 25.89 4.32 24.64 4.61 23.46 4.97 22.29 5.33 21.24 5.9 20.3 6.69 20.27 6.71 20.2 6.7 20.21 6.65 20.24 6.43 20.31 6.22 20.41 6.03 20.21 6.22 20.04 6.42 19.9 6.64 19.91 6.66 19.92 6.68 19.92 6.7 19.96 6.85 19.97 7.03 19.89 7.17 19.84 7.25 19.77 7.34 19.69 7.42 19.72 7.42 19.74 7.42 19.77 7.42 19.89 7.38 19.98 7.28 20.13 7.29 20.48 7.32 20.82 7.44 21.18 7.45 22 7.47 22.85 7.32 23.62 7.03 23.96 6.93 24.31 6.83 24.65 6.68Z" fill="#FFD4C5"/><path d="M22.68 7.18C22.24 7.24 21.5 7.38 21.15 7 21.12 6.97 21.13 6.9 21.17 6.91 22.49 7.13 23.41 6.73 24.46 6.22 25.36 5.78 26.13 5.13 26.93 4.53 25.64 4.55 24.38 4.77 23.14 5.14 22.57 5.31 22 5.51 21.51 5.85 21.15 6.11 20.78 6.47 20.32 6.53 20.29 6.53 20.26 6.49 20.27 6.46 20.31 6.31 20.36 6.17 20.42 6.04 20.22 6.23 20.05 6.43 19.91 6.65 19.92 6.67 19.93 6.69 19.93 6.71 19.97 6.86 19.98 7.04 19.9 7.18 19.85 7.26 19.78 7.35 19.7 7.43 19.73 7.43 19.75 7.43 19.78 7.43 19.9 7.39 19.99 7.29 20.14 7.3 20.49 7.33 20.83 7.45 21.19 7.46 22.01 7.48 22.86 7.33 23.63 7.04 23.82 6.97 24.01 6.91 24.19 6.84 23.69 7.02 23.19 7.11 22.68 7.18Z" fill="#D6735C"/><path d="M26.69 4.55C25.5 4.62 24.25 4.86 23.11 5.23 22.54 5.42 21.97 5.64 21.46 5.96 21.22 6.1 21.01 6.28 20.8 6.45 20.61 6.61 20.47 6.83 20.28 6.98 20.27 6.99 20.28 7.01 20.29 7 20.44 6.95 20.54 6.8 20.66 6.71 20.74 6.64 20.83 6.58 20.91 6.51 20.91 6.52 20.92 6.52 20.92 6.52 21.58 6.9 22.35 6.82 23.07 6.62 23.76 6.43 24.53 6.07 25.09 5.61 25.1 5.6 25.09 5.58 25.08 5.59 24.54 6 23.84 6.25 23.21 6.42 22.48 6.63 21.7 6.7 20.97 6.47 21.11 6.37 21.26 6.27 21.4 6.18 21.9 5.87 22.46 5.68 23.01 5.49 24.19 5.09 25.45 4.71 26.69 4.58 26.71 4.58 26.72 4.55 26.69 4.55Z" fill="#AF705A"/></g><g><path d="M1.28 3.24C1.37 3.89 1.79 4.66 2.2 5.16 2.77 5.84 3.41 6.37 4.16 6.85 4.89 7.32 5.76 7.54 6.62 7.64 7.03 7.69 7.46 7.73 7.87 7.66 8.1 7.63 8.24 7.65 8.41 7.73 8.35 7.75 8.29 7.78 8.23 7.82 8.07 7.95 8 8.18 8.05 8.38 8.05 8.4 8.09 8.43 8.11 8.4 8.2 8.28 8.21 8.1 8.32 7.99 8.44 7.86 8.56 7.83 8.71 7.84 8.8 7.94 8.89 8.02 9 8.03 9.02 8.04 9.01 8.01 9 8 8.83 7.86 8.7 7.58 8.68 7.36 8.67 7.25 8.67 7.07 8.73 6.97 8.78 6.88 8.85 6.83 8.91 6.76 8.93 6.75 8.91 6.72 8.89 6.73 8.76 6.78 8.64 6.8 8.56 6.89 8.37 6.26 7.84 5.6 7.35 5.18 6.7 4.63 6.03 4.18 5.25 3.85 4.46 3.51 3.62 3.3 2.76 3.16 2.57 3.13 1.21 2.79 1.28 3.24Z" fill="#AF705A"/><path d="M1.54 3.15C1.73 3.15 1.91 3.16 2.09 3.19 2.48 3.25 2.88 3.31 3.27 3.41 3.95 3.58 4.59 3.79 5.21 4.1 6.42 4.7 7.95 5.63 8.53 6.93 8.52 6.94 8.51 6.96 8.5 6.98 8.44 7.13 8.39 7.3 8.46 7.45 8.49 7.53 8.55 7.64 8.62 7.73 8.6 7.73 8.57 7.72 8.55 7.72 8.43 7.67 8.36 7.55 8.21 7.54 7.86 7.52 7.51 7.58 7.15 7.54 6.34 7.42 5.52 7.15 4.81 6.75 4.48 6.57 4.15 6.42 3.84 6.22 3.48 5.99 3.16 5.7 2.85 5.41 2.35 4.94 1.91 4.44 1.59 3.82 1.56 3.76 1.22 3.15 1.54 3.15Z" fill="#FFD4C5"/><path d="M8.46 7.45C8.39 7.3 8.44 7.13 8.5 6.98 8.51 6.96 8.52 6.94 8.53 6.92 8.49 6.82 8.44 6.73 8.39 6.64 8.39 6.68 8.4 6.72 8.41 6.76 8.42 6.8 8.36 6.86 8.33 6.81 7.35 5.63 6.03 5.06 4.68 4.44 4.23 4.23 3.77 4.03 3.3 3.87 3.05 3.79 2.78 3.71 2.51 3.68 2.4 3.67 2.28 3.66 2.17 3.68 2.11 3.69 1.93 3.76 1.96 3.77 1.99 3.79 1.99 3.81 1.98 3.83 2.46 4.75 3.13 5.6 3.94 6.27 4.23 6.44 4.52 6.58 4.81 6.74 5.52 7.14 6.35 7.42 7.16 7.52 7.52 7.57 7.87 7.5 8.22 7.52 8.37 7.53 8.44 7.65 8.55 7.71 8.57 7.71 8.6 7.72 8.62 7.72 8.55 7.64 8.49 7.53 8.46 7.45Z" fill="#FFD4C5"/><path d="M8.46 7.45C8.39 7.3 8.44 7.13 8.5 6.98 8.51 6.96 8.52 6.94 8.53 6.92 8.28 6.37 7.86 5.88 7.36 5.46 7.57 5.72 7.75 6 7.91 6.31 7.93 6.34 7.9 6.4 7.85 6.38 6.9 6.06 6.21 5.26 5.27 4.89 4.74 4.68 4.22 4.44 3.67 4.28 3.18 4.14 2.62 3.94 2.14 3.77 2.24 3.96 2.46 4.23 2.61 4.37 2.76 4.52 2.9 4.68 3.06 4.82 3.42 5.17 3.82 5.5 4.24 5.79 5.01 6.32 5.86 6.69 6.76 6.95 6.8 6.95 6.84 6.95 6.87 6.95 6.88 6.95 6.89 6.95 6.91 6.95 6.91 6.95 6.91 6.95 6.92 6.95 7 6.97 7.07 6.99 7.15 7.02 7.19 7.04 7.18 7.1 7.15 7.11 6.67 7.21 6.1 7.21 5.68 7.04 5.07 6.79 4.5 6.43 3.95 6.06 3.43 5.71 2.94 5.32 2.49 4.88 2.22 4.62 1.92 4.32 1.69 3.99 2 4.53 2.4 4.99 2.85 5.41 3.16 5.7 3.48 5.99 3.84 6.22 4.15 6.42 4.48 6.57 4.81 6.75 5.52 7.15 6.35 7.43 7.16 7.53 7.52 7.58 7.87 7.51 8.22 7.53 8.37 7.54 8.44 7.66 8.55 7.72 8.57 7.72 8.6 7.73 8.62 7.73 8.55 7.64 8.49 7.53 8.46 7.45Z" fill="#D6735C"/><path d="M2.15 3.8C3.32 4.05 4.52 4.48 5.58 5.02 6.12 5.29 6.64 5.6 7.1 5.99 7.31 6.17 7.5 6.37 7.68 6.58 7.84 6.77 7.95 7.01 8.11 7.18 8.12 7.19 8.11 7.21 8.1 7.2 7.96 7.14 7.88 6.98 7.78 6.86 7.71 6.78 7.63 6.7 7.56 6.63 7.56 6.63 7.55 6.64 7.55 6.64 6.83 6.91 6.08 6.71 5.41 6.41 4.75 6.12 4.05 5.64 3.56 5.11 3.55 5.1 3.56 5.07 3.58 5.09 4.05 5.55 4.7 5.91 5.3 6.18 6 6.5 6.76 6.69 7.51 6.58 7.39 6.46 7.26 6.34 7.13 6.23 6.68 5.85 6.16 5.57 5.64 5.3 4.54 4.72 3.35 4.16 2.15 3.83 2.13 3.83 2.13 3.79 2.15 3.8Z" fill="#AF705A"/></g></g><g><path d="M17.01 10.8C17.03 11.46 16.67 12 16.2 12.01 15.73 12.01 15.34 11.47 15.32 10.81 15.3 10.15 15.66 9.6 16.13 9.6 16.6 9.6 16.99 10.14 17.01 10.8Z" fill="#005688"/><path d="M16.88 10.8C16.9 11.37 16.59 11.83 16.2 11.83 15.81 11.83 15.47 11.37 15.45 10.81 15.43 10.25 15.74 9.79 16.13 9.78 16.53 9.77 16.86 10.23 16.88 10.8Z" fill="#009FBC"/><path d="M16.5 10.96C16.54 11.34 16.36 11.66 16.1 11.68 15.83 11.7 15.58 11.41 15.54 11.03 15.5 10.65 15.67 10.32 15.94 10.31 16.21 10.29 16.46 10.58 16.5 10.96Z" fill="#001D3B"/><path d="M16.44 10.39C16.51 10.55 16.49 10.71 16.38 10.74 16.27 10.78 16.12 10.69 16.05 10.53 15.97 10.37 16 10.22 16.11 10.18 16.21 10.14 16.36 10.23 16.44 10.39Z" fill="#FFFFFF"/><path d="M16.65 11.14C16.66 11.25 16.61 11.34 16.53 11.35 16.45 11.35 16.38 11.27 16.37 11.16 16.36 11.05 16.41 10.96 16.48 10.95 16.57 10.95 16.64 11.03 16.65 11.14Z" fill="#FFFFFF"/></g><g><path d="M11.37 10.51C11.29 11.14 10.86 11.62 10.41 11.57 9.96 11.52 9.66 10.97 9.74 10.33 9.82 9.7 10.25 9.22 10.7 9.27 11.15 9.32 11.45 9.88 11.37 10.51Z" fill="#005688"/><path d="M11.24 10.5C11.17 11.04 10.81 11.44 10.43 11.4 10.05 11.36 9.79 10.88 9.86 10.34 9.92 9.8 10.29 9.39 10.67 9.44 11.05 9.48 11.31 9.95 11.24 10.5Z" fill="#009FBC"/><path d="M10.86 10.69C10.85 11.06 10.63 11.34 10.37 11.33 10.11 11.32 9.92 11.01 9.93 10.64 9.95 10.27 10.17 9.98 10.42 10 10.67 10.01 10.87 10.32 10.86 10.69Z" fill="#001D3B"/><path d="M10.88 10.13C10.93 10.29 10.88 10.43 10.77 10.46 10.66 10.49 10.53 10.38 10.48 10.22 10.43 10.06 10.48 9.92 10.59 9.89 10.7 9.87 10.83 9.98 10.88 10.13Z" fill="#FFFFFF"/><path d="M10.98 10.87C10.98 10.98 10.91 11.06 10.84 11.05 10.76 11.05 10.71 10.96 10.71 10.85 10.71 10.74 10.78 10.66 10.85 10.66 10.93 10.68 10.98 10.77 10.98 10.87Z" fill="#FFFFFF"/></g><path d="M25.91 4.19C24.14 4.37 22.58 4.88 21.09 5.85 21.07 5.86 21.09 5.88 21.11 5.88 21.87 5.46 22.66 5.12 23.49 4.86 24.29 4.61 25.13 4.53 25.93 4.27 25.97 4.26 25.96 4.19 25.91 4.19Z" fill="#FFEDE9"/><path d="M7.09 5.54C6.45 4.84 5.82 4.32 4.95 3.94 3.95 3.51 2.95 3.36 1.87 3.28 1.84 3.28 1.84 3.31 1.86 3.32 2.29 3.44 2.74 3.48 3.18 3.56 3.71 3.66 4.2 3.85 4.7 4.05 5.61 4.4 6.33 4.93 7.04 5.58 7.07 5.6 7.11 5.56 7.09 5.54Z" fill="#FFEDE9"/><path d="M17.48 9.09C17.31 8.62 17.07 8.15 16.64 7.88 16.47 7.77 16.29 7.74 16.13 7.77 15.82 7.86 15.54 8.14 15.37 8.49 15.16 8.93 15.04 9.48 15.04 9.97 15.04 10.86 15.54 12.36 16.73 12 16.88 11.96 17 11.89 17.11 11.82 17.17 11.76 17.24 11.71 17.31 11.66 17.92 11.04 17.77 9.88 17.48 9.09ZM16.96 11.03C16.82 11.4 16.63 11.74 16.2 11.76 15.86 11.78 15.55 11.41 15.44 11.12 15.11 10.28 15.1 9.03 15.66 8.28 15.67 8.26 15.69 8.25 15.71 8.24 15.82 8.02 16 7.9 16.27 8.05 16.68 8.27 16.78 8.75 16.9 9.16 17.06 9.75 17.18 10.45 16.96 11.03Z" fill="#BFB6AF" opacity="0.4"/><path d="M12.04 9.36C12.02 8.93 11.94 8.47 11.66 8.12 11.55 7.98 11.41 7.91 11.26 7.89 10.98 7.88 10.67 8.04 10.43 8.29 10.13 8.6 9.89 9.03 9.76 9.44 9.52 10.18 9.54 11.57 10.63 11.59 10.77 11.59 10.89 11.58 11 11.54 11.07 11.5 11.13 11.48 11.2 11.45 11.87 11.1 12.06 10.09 12.04 9.36ZM11.35 10.22C11.19 10.6 11.01 11 10.62 11.2 10.39 11.32 10.09 11.25 9.96 11.02 9.47 10.14 10.05 8.81 10.67 8.14 10.71 8.09 10.77 8.09 10.81 8.11 10.89 8.04 10.98 8 11.08 8 11.37 7.99 11.52 8.32 11.56 8.57 11.68 9.14 11.57 9.71 11.35 10.22Z" fill="#BFB6AF" opacity="0.4"/><path d="M13.33 13.12C12.89 13 12.43 13.17 12 13.22 11.98 13.22 11.98 13.26 12 13.26 12.44 13.29 12.87 13.16 13.3 13.29 13.41 13.34 13.44 13.15 13.33 13.12Z" fill="#EB969D"/><path d="M13.75 13.19C13.73 13.18 13.71 13.17 13.69 13.17 13.67 13.17 13.65 13.17 13.63 13.15 13.55 13.09 13.45 13.2 13.53 13.27 13.59 13.33 13.67 13.33 13.74 13.31 13.8 13.29 13.81 13.21 13.75 13.19Z" fill="#EB969D"/><path d="M9.35 9.31C9.35 9.3 9.33 9.3 9.33 9.31 9.23 10.08 8.8 10.77 8.56 11.5 8.34 12.15 8.24 13.04 8.54 13.68 8.56 13.72 8.61 13.7 8.6 13.66 8.37 12.83 8.51 12.03 8.81 11.24 9.05 10.6 9.32 10 9.35 9.31Z" fill="#FFEDE9"/><path d="M18.75 11.41C18.48 11.36 18.23 11.5 17.99 11.61 17.7 11.75 17.44 11.93 17.2 12.13 16.99 12.3 16.82 12.51 16.69 12.74 16.52 13.05 16.52 13.39 16.48 13.73 16.48 13.75 16.5 13.75 16.51 13.74 16.62 13.48 16.65 13.19 16.77 12.93 16.89 12.67 17.08 12.45 17.29 12.26 17.69 11.9 18.24 11.6 18.75 11.45 18.78 11.45 18.77 11.41 18.75 11.41Z" fill="#FFEDE9"/><path d="M12.81 14.9C12.62 15.72 11.28 15.49 10.85 15.03 10.84 15.02 10.83 15.04 10.83 15.04 11.09 15.42 11.5 15.59 11.95 15.59 12.34 15.59 12.87 15.35 12.86 14.9 12.86 14.87 12.82 14.87 12.81 14.9Z" fill="#FFEDE9"/><path d="M15.56 14.25C15.31 15.12 13.95 15.41 13.57 14.48 13.57 14.47 13.54 14.47 13.54 14.49 13.64 14.97 14.01 15.23 14.5 15.19 14.98 15.16 15.58 14.78 15.6 14.26 15.61 14.23 15.57 14.22 15.56 14.25Z" fill="#FFEDE9"/><path d="M12.16 7.71C12.32 8.43 13.01 10.39 11.79 12.7 11.79 12.7 11.44 13.2 11.82 13.05 12.21 12.9 12.99 12.66 14.07 12.97 14.07 12.97 13.21 10.69 14.82 7.56 14.82 7.56 14.28 7.3 13.48 7.3 12.68 7.29 12.16 7.71 12.16 7.71Z" fill="#FFEDE9" opacity="0.7"/><path d="M9.83 11.66C10.19 12.19 10.18 12.83 9.79 13.1 9.41 13.36 8.8 13.14 8.44 12.61 8.08 12.08 8.09 11.43 8.48 11.17 8.86 10.91 9.46 11.13 9.83 11.66Z" fill="#EB969D" opacity="0.6"/><path d="M17.24 12.16C17.72 11.73 18.33 11.63 18.6 11.93 18.87 12.23 18.7 12.82 18.22 13.25 17.74 13.68 17.13 13.78 16.86 13.48 16.59 13.18 16.76 12.59 17.24 12.16Z" fill="#EB969D" opacity="0.6"/></g></svg>