<svg width="77.84" height="82.96" viewBox="0 0 77.84 82.96" xmlns="http://www.w3.org/2000/svg" xmlns:xlink="http://www.w3.org/1999/xlink" xml:space="preserve" overflow="hidden"><defs></defs><g><g><g><path d="M38.92 0.5 31.55 0.5 4.8 26.48 38.92 81.21Z" fill="#E4CDFC"/></g><g><path d="M0.9 19.43 5.13 26.21 31.71 0.5 0.54 0.5 0.54 19.43Z" fill="#EEF3FF"/></g><g><path d="M0.9 20.24 4.81 26.51 31.71 0.5 0.54 0.5 0.54 20.38Z" fill="#EEF3FF"/></g><g><g><path d="M39.28 82.14 38.56 82.14 38.56 79.45 39.28 79.45 39.28 82.14ZM39.28 76.16 38.56 76.16 38.56 72.87 39.28 72.87 39.28 76.16ZM39.28 69.58 38.56 69.58 38.56 66.29 39.28 66.29 39.28 69.58ZM39.28 63 38.56 63 38.56 59.71 39.28 59.71 39.28 63ZM39.28 56.42 38.56 56.42 38.56 53.13 39.28 53.13 39.28 56.42ZM39.28 49.84 38.56 49.84 38.56 46.55 39.28 46.55 39.28 49.84ZM39.28 43.26 38.56 43.26 38.56 39.97 39.28 39.97 39.28 43.26ZM39.28 36.68 38.56 36.68 38.56 33.4 39.28 33.4 39.28 36.68ZM39.28 30.11 38.56 30.11 38.56 26.82 39.28 26.82 39.28 30.11ZM39.28 23.53 38.56 23.53 38.56 20.24 39.28 20.24 39.28 23.53ZM39.28 16.95 38.56 16.95 38.56 13.66 39.28 13.66 39.28 16.95ZM39.28 10.37 38.56 10.37 38.56 7.08 39.28 7.08 39.28 10.37ZM39.28 3.79 38.56 3.79 38.56 0.5 39.28 0.5 39.28 3.79Z" fill="#8796D8"/></g></g><g><rect x="31.71" y="0" width="7.57" height="1" fill="#8796D8"/></g><g><path d="M4.99 26.8 32.06 0.5 31.04 0.5 4.6 26.17Z" fill="#8796D8"/></g><g><path d="M4.92 27.1 0.47 20.35 0.04 20.35 0.04 0 32.94 0 4.92 27.1ZM1.04 19.41 5.09 25.55 30.47 1 1.04 1 1.04 19.41Z" fill="#8796D8"/></g><g><path d="M0.9 20.24 39.28 20.24 39.28 81.78Z" fill="#EEF3FF"/></g><g><path d="M39.42 82.96 0 19.74 39.42 19.74 39.42 82.96ZM1.8 20.74 38.42 79.47 38.42 20.74 1.8 20.74Z" fill="#8796D8"/></g></g><g><g><path d="M38.92 0.5 46.29 0.5 73.04 26.48 38.92 81.21Z" fill="#E4CDFC"/></g><g><path d="M76.93 19.43 72.71 26.21 46.13 0.5 77.29 0.5 77.29 19.43Z" fill="#EEF3FF"/></g><g><path d="M76.93 20.24 73.02 26.51 46.13 0.5 77.29 0.5 77.29 20.38Z" fill="#EEF3FF"/></g><g><g><path d="M38.56 79.45 39.28 79.45 39.28 82.14 38.56 82.14 38.56 79.45ZM38.56 72.87 39.28 72.87 39.28 76.16 38.56 76.16 38.56 72.87ZM38.56 66.29 39.28 66.29 39.28 69.58 38.56 69.58 38.56 66.29ZM38.56 59.71 39.28 59.71 39.28 63 38.56 63 38.56 59.71ZM38.56 53.13 39.28 53.13 39.28 56.42 38.56 56.42 38.56 53.13ZM38.56 46.55 39.28 46.55 39.28 49.84 38.56 49.84 38.56 46.55ZM38.56 39.97 39.28 39.97 39.28 43.26 38.56 43.26 38.56 39.97ZM38.56 33.4 39.28 33.4 39.28 36.69 38.56 36.69 38.56 33.4ZM38.56 26.82 39.28 26.82 39.28 30.11 38.56 30.11 38.56 26.82ZM38.56 20.24 39.28 20.24 39.28 23.53 38.56 23.53 38.56 20.24ZM38.56 13.66 39.28 13.66 39.28 16.95 38.56 16.95 38.56 13.66ZM38.56 7.08 39.28 7.08 39.28 10.37 38.56 10.37 38.56 7.08ZM38.56 0.5 39.28 0.5 39.28 3.79 38.56 3.79 38.56 0.5Z" fill="#8796D8"/></g></g><g><rect x="38.56" y="0" width="7.57" height="1" fill="#8796D8"/></g><g><path d="M72.85 26.8 45.77 0.5 46.8 0.5 73.23 26.17Z" fill="#8796D8"/></g><g><path d="M72.91 27.1 44.89 0 77.79 0 77.79 20.35 77.36 20.35 72.91 27.1ZM47.37 1 72.75 25.55 76.8 19.41 76.8 1 47.37 1Z" fill="#8796D8"/></g><g><path d="M76.93 20.24 38.56 20.24 38.56 81.78Z" fill="#EEF3FF"/></g><g><path d="M38.42 82.96 38.42 19.74 77.84 19.74 38.42 82.96ZM39.42 20.74 39.42 79.47 76.04 20.74 39.42 20.74Z" fill="#8796D8"/></g></g></g></svg>