<svg width="213.72" height="412.87" viewBox="0 0 213.72 412.87" xmlns="http://www.w3.org/2000/svg" xmlns:xlink="http://www.w3.org/1999/xlink" xml:space="preserve" overflow="hidden"><defs></defs><g><g><g><g><path d="M87.85 308.88C87.85 308.88 90.92 312.98 78.19 389.78 76.45 400.3 65.67 392.37 65.67 392.37 65.67 392.37 59.6 322.59 60.86 311.61 62.12 300.62 87.85 308.88 87.85 308.88Z" fill="#F1AE9E"/></g></g><g><g><path d="M65.67 402.93 65.8 407.42C65.8 407.42 95.73 412.16 106.87 407.54 106.87 407.54 111.36 406.2 108.86 401.46 106.97 397.85 65.67 402.93 65.67 402.93Z" fill="#FFFFFF"/></g><g><path d="M65.67 391.08 65.67 404.41C65.67 404.41 92.46 409.41 107.46 404.67 107.46 404.67 115.15 401.34 98.74 396.72 82.33 392.11 78.85 389.57 78.85 389.57 78.85 389.57 71.58 396.27 65.67 391.08Z" fill="#008EB7"/></g><g><path d="M69.33 397.42C67.58 396.92 65.9 393.66 66.02 391.33 70.25 393.77 73.54 392.71 75.07 392 74.98 394.97 72.29 398.27 69.33 397.42Z" fill="#00668E"/></g><g><path d="M101.68 397.61C114.16 401.76 107.46 404.66 107.46 404.66 104.37 405.63 100.77 406.2 97.02 406.47 97.39 402.95 98.69 399.82 101.68 397.61Z" fill="#00668E"/></g></g><g><g><path d="M82.16 383.38C93.7 312.59 90.82 310.12 90.82 310.12 90.82 310.12 58.44 298.5 57.18 309.49 56.2 318.05 59.86 364.57 61.43 383.69L82.16 383.38Z" fill="#004B72"/></g></g><g><path d="M90.82 311.56C90.82 311.56 98.71 240.36 97.68 217.01L52.58 217.59C52.58 217.59 42.39 236.81 45.83 258.66 48.59 276.14 57.94 308.64 57.49 320.17 57.49 320.16 79.45 327.81 90.82 311.56Z" fill="#004B72"/></g><g><g><path d="M188.27 149.82C188.27 149.82 183.64 138.87 198.36 131.32 198.36 131.32 200.43 133.29 196.79 138.96 194.2 143 191.87 146.36 190.1 148.26 189.4 149.04 188.78 149.57 188.27 149.82Z" fill="#F1AE9E"/></g><g><path d="M195.32 157.26C198.99 155.87 202.54 153.71 205.5 151.15 209.34 147.83 214.65 142.94 213.57 137.36 213.2 135.43 212.5 133.65 211.35 132.08 210.12 130.4 208.23 128.87 206.28 129.66 203.2 130.91 200.93 133.46 198.7 135.83 196.53 138.12 193.63 139.57 191.36 141.83 189.01 144.17 187.81 150.1 188.28 150.92 188.77 151.74 195.32 157.26 195.32 157.26Z" fill="#F1AE9E"/></g><g><g><path d="M136.27 196.56C138.48 196.45 139.12 196.78 143.46 192.98 146.85 190.01 147.47 186.62 146.41 183.9 127.19 148.79 104.28 123.96 95.2 125.54 80.33 128.13 89.72 143.21 89.72 143.21 89.72 143.21 106.82 167.5 122.1 185.44 126.52 190.64 129.25 193 133.66 197.87 133.66 197.87 136.27 196.55 136.27 196.56Z" fill="#F1AE9E"/></g></g><g><g><path d="M190.43 147.25C193.91 149.01 196.61 152.33 199.61 155.04 190.96 166.18 179.85 175.43 168.38 183.53 159.71 189.66 150.88 195.34 141.41 200.14 140.52 200.59 139.57 201.05 138.58 200.95 137.88 200.89 137.24 200.55 136.65 200.18 135.15 199.25 133.78 198.03 132.74 196.6 131.56 194.96 131.63 192.91 131.68 190.93 131.73 188.88 131.91 185.07 134.12 184.06 154.03 174.95 177.47 158.97 190.43 147.25Z" fill="#F1AE9E"/></g></g><g><g><g><path d="M91.64 120.15C100.28 119.36 125.01 141.54 140.59 171.19 137.24 178.74 123.98 187.28 115.12 188.34 101.29 168.69 85.95 142.71 85.95 142.71 85.95 142.71 75.16 121.67 91.64 120.15Z" fill="#F0F0F0"/></g></g></g></g><g><g><path d="M138.58 311.7C138.58 311.7 141.65 315.8 128.91 392.6 127.17 403.12 116.39 395.19 116.39 395.19 116.39 395.19 110.32 325.41 111.58 314.43 112.86 303.45 138.58 311.7 138.58 311.7Z" fill="#F1AE9E"/></g></g><g><path d="M137.12 319.11C137.12 319.11 105.92 253.57 93.65 233.67L59.63 256.12C59.63 256.12 64.95 267.8 76.12 283.37 90.15 302.92 111.1 328.09 116.31 338.39 116.3 338.38 135.08 338.84 137.12 319.11Z" fill="#F1AE9E"/></g><g><g><path d="M132.41 387.16C143.95 316.37 141.07 313.9 141.07 313.9 141.07 313.9 108.69 302.28 107.43 313.27 106.45 321.83 110.11 368.36 111.69 387.47L132.41 387.16Z" fill="#005885"/></g></g><g><path d="M141.24 314.65C141.24 314.65 113.51 248.6 101.24 228.7L46.55 255.85C46.55 255.85 54.29 272.28 68.84 284.75 82.27 296.27 111.1 328.09 116.31 338.39 116.3 338.38 139.21 334.38 141.24 314.65Z" fill="#005885"/></g><g><path d="" fill="#F1AE9E"/></g><g><path d="M70.95 81.89C78.02 77.27 91.13 84.73 91.13 84.73L91.42 122.55C91.42 122.55 66.26 127.63 66.53 122.16 67.14 109.78 66.07 85.08 70.95 81.89Z" fill="#F1AE9E"/></g><g><path d="M80.85 110.99C85.23 113.26 88.86 116.98 91.36 121.22 91.38 121.25 91.4 121.29 91.42 121.33L91.14 84.75C91.14 84.75 78.03 77.28 70.96 81.91 68.55 83.48 66.91 97.32 66.82 110.33 71.36 109.81 76.41 108.69 80.85 110.99Z" fill="#E4A191"/></g><g><path d="M104.63 16.9C101.83 11.74 105.69 11.38 99.56 9.59 93.28 7.76 86.54 7.08 79.86 7.3 73.18 7.08 70.96 14.29 64.69 16.12 61.39 17.08 58.47 18.21 55.95 20.28 52.9 22.79 53.32 25.18 52.3 28.5 51.65 30.6 50.61 32.53 49.82 34.59 48.43 38.25 46.93 42.16 46.41 45.98 45.35 53.81 45.85 61.57 47.1 69.34 48.37 77.2 46.11 84.52 51.83 91.15 59.41 99.92 65.3 106.32 83.66 106.24 91.26 106.2 104.39 106.09 106.95 98.43 110.36 88.21 110.74 83.52 112.37 80.94 113.86 78.58 119.11 78.03 120.14 75.74 120.48 74.99 115.33 67.79 115.23 63.76 115.16 60.88 116.41 50.5 116.55 47.81 117.48 29.7 110.03 26.86 104.63 16.9Z" fill="#F1AE9E"/></g><g><path d="M37.13 24.13C44.15 9.47 49.16 14.58 50.55 10.92 51.33 8.86 51.65 30.6 52.3 28.5 53.32 25.18 52.9 22.79 55.95 20.28 58.47 18.21 61.39 17.08 64.69 16.12 70.96 14.29 73.18 7.08 79.86 7.3 81.83 7.24 83.79 7.27 85.76 7.37 86.62 12.12 86.28 17.11 85.27 22.24 85.02 23.53 86.49 24.6 86.5 26.05 86.51 28.07 85.45 30.62 84.87 32.54 83.56 36.84 81.65 40.91 79.03 44.57 77.32 46.96 75.16 49.06 73.67 51.62 71.96 54.57 69.82 57.56 68.76 60.85 68.37 62.06 68.58 63.38 67.26 63.75 66.04 64.08 64.55 62.67 63.55 62.1 62.52 61.51 59.95 58.88 59.04 58.76 57.31 58.53 56.48 61.39 56.35 62.69 55.95 66.47 58.61 70.16 60.29 73.32 64.63 81.51 61.57 90.86 56.48 96.73 43.14 92.62 38.92 77.27 36.31 69.74 29.71 50.75 29.89 39.24 37.13 24.13Z" fill="#D28404"/></g><g><g><path d="M50.32 65.67C51.64 72.88 61.89 82.65 64.61 76.55 66.28 72.82 66.24 68.44 64.92 61.23 63.6 54.02 66.41 49.24 59.84 50.44 53.27 51.64 49.01 58.46 50.32 65.67Z" fill="#F1AE9E"/></g><g><path d="M60.81 57.08C60.93 57.06 61.04 57.07 61.16 57.05 61.19 57.11 61.21 57.17 61.26 57.23 63.43 59.73 62.12 64.93 62.15 67.93 62.16 69.21 62.25 70.46 62.39 71.71 59.21 71.7 56.32 69.16 55.66 65.54 54.93 61.52 57.24 57.73 60.81 57.08Z" fill="#EE7379"/></g></g><g><path d="M43.9 157.17C43.9 144.4 56.46 121.02 66.52 116.99 72.3 125.42 82.15 124.03 90.24 120.48 90.92 120.18 91.19 119.67 91.22 119.13 101.71 124.89 109.99 135.56 111.99 148.03 113.43 157.05 114.88 172.93 116.32 196.75 116.46 199.04 116.46 250.42 114.88 250.88 114.88 250.88 102.12 256.47 80.6 256.66 59.08 256.84 44.51 254.86 44.51 254.86 42.91 229.68 43.9 172.56 43.9 157.17Z" fill="#FFFFFF"/></g><g><g><path d="M105.98 76.21C104.96 79.62 100.17 81.2 95.29 79.74 90.4 78.28 87.27 74.33 88.29 70.92 89.31 67.51 94.1 65.92 98.98 67.39 103.87 68.85 107 72.8 105.98 76.21Z" fill="#EE9592"/></g></g><g><g><path d="M91.92 52.76C91.24 52.7 90.61 52.28 90.3 51.61 89.85 50.62 90.28 49.45 91.28 48.99 102.38 43.91 109.39 46.16 109.68 46.26 110.71 46.61 111.27 47.73 110.92 48.76 110.58 49.78 109.46 50.34 108.44 50.01 108.3 49.97 102.42 48.24 92.92 52.58 92.59 52.74 92.25 52.79 91.92 52.76Z" fill="#B57303"/></g></g><g><path d="M108.47 60.33C108.47 63.08 107.03 65.31 105.25 65.31 103.47 65.31 102.03 63.08 102.03 60.33 102.03 57.58 103.47 55.35 105.25 55.35 107.03 55.35 108.47 57.58 108.47 60.33Z" fill="#3A0D00"/></g><g><path d="M99.68 82.95C99.06 91.93 107.89 95.95 107.89 95.95L110.73 85.41 99.68 82.95Z" fill="#FFFFFF"/></g><g><g><path d="M115.69 406.23 115.82 410.72C115.82 410.72 145.75 415.46 156.9 410.85 156.9 410.85 161.39 409.5 158.89 404.76 156.98 401.16 115.69 406.23 115.69 406.23Z" fill="#FFFFFF"/></g><g><path d="M115.69 394.38 115.69 407.71C115.69 407.71 142.48 412.71 157.47 407.96 157.47 407.96 165.16 404.63 148.76 400.01 132.36 395.39 128.87 392.85 128.87 392.85 128.87 392.85 121.6 399.57 115.69 394.38Z" fill="#008EB7"/></g><g><path d="M119.34 400.73C117.58 400.22 115.9 396.96 116.03 394.64 120.26 397.07 123.54 396.02 125.08 395.31 124.99 398.27 122.31 401.58 119.34 400.73Z" fill="#00668E"/></g><g><path d="M151.69 400.92C164.17 405.06 157.46 407.97 157.46 407.97 154.37 408.95 150.78 409.51 147.02 409.78 147.4 406.25 148.7 403.13 151.69 400.92Z" fill="#00668E"/></g></g></g><g><path d="M61.7 120.36C61.7 120.36 51.29 124.56 42.21 132.15 31.35 141.22 20.74 154.87 9.73 168.24-10.48 192.78 6.82 268.07 8.29 282.76 10.75 307.35 47.77 307.41 57.85 284.68 59.61 280.72 55.24 267.75 54.48 261.58 48.23 210.58 28.5 193.98 61.7 120.36Z" fill="#D16063"/></g><g><path d="M54.48 261.59C55.24 267.76 59.61 280.73 57.85 284.69 54.32 292.64 47.5 297.78 40.02 300.08 31.67 286.79 27.25 263.95 25.69 255.95 18.84 220.76 18.07 182.1 27.17 147.29 32.17 141.58 37.16 136.36 42.21 132.14 51.29 124.55 61.7 120.35 61.7 120.35 28.5 193.98 48.23 210.58 54.48 261.59Z" fill="#BC6869"/></g><g><g><g><g><path d="M48.12 216.6C45.87 217.49 45.38 218.06 39.28 216.56 34.52 215.4 31.85 212.41 31.63 209.5 34.16 169.49 50.5 130.16 60.28 127.56 76.27 123.31 67.87 140.87 67.87 140.87 67.87 140.87 60.31 189.7 54.17 212.69 53.03 216.92 48.56 211.82 48.12 216.6 48.13 216.59 48.13 216.59 48.12 216.6Z" fill="#F1AE9E"/></g></g></g><g><g><g><path d="M59.06 124.09C50.67 126.32 35.37 158.38 30.95 191.59 36.7 197.53 52.09 200.98 60.78 198.92 66.99 175.7 72.45 146.04 72.45 146.04 72.45 146.04 75.05 119.84 59.06 124.09Z" fill="#F6F6F6"/></g></g></g></g><g><path d="M37.65 269.61C38.2 269.61 38.77 269.5 39.3 269.26 41.03 268.51 81.65 250.11 85.6 180.02 87.2 151.62 82.42 133.64 71.38 126.55 60.84 119.78 49.18 125.79 48.69 126.05 46.65 127.13 45.87 129.65 46.95 131.69 48.02 133.72 50.54 134.5 52.57 133.44 52.74 133.36 60.55 129.46 66.93 133.61 72.62 137.3 79.03 148.27 77.27 179.55 73.6 244.55 36.36 261.44 35.99 261.61 33.88 262.52 32.9 264.99 33.82 267.09 34.5 268.67 36.03 269.61 37.65 269.61Z" fill="#B34247"/></g><g><g><path d="M31.51 209.82C34.52 206.17 36.03 207.78 43.4 207.05 49.58 206.43 54.46 207.3 54.46 207.29 58.93 226.85 66.86 252.72 75.79 263.78 85.8 276.18 67.11 270.3 67.11 270.3 53.99 254.89 41.36 235.36 31.51 209.82Z" fill="#F1AE9E"/></g></g><g><path d="M69.76 256.39C69.76 256.39 81.55 253.18 86.42 267.88 86.42 267.88 84.08 269.63 79.07 265.59 75.5 262.71 72.57 260.16 70.98 258.29 70.34 257.54 69.92 256.89 69.76 256.39Z" fill="#F1AE9E"/></g><g><path d="M64.16 265.81C65.43 269.25 67.44 272.59 69.81 275.38 72.89 279 77.44 284 82.66 283.03 84.46 282.69 86.14 282.05 87.62 280.99 89.2 279.85 90.65 278.1 89.92 276.27 88.77 273.38 86.39 271.24 84.2 269.14 82.08 267.1 80.73 264.37 78.63 262.23 76.46 260.01 70.92 258.86 70.14 259.29 69.37 259.71 64.16 265.81 64.16 265.81Z" fill="#F1AE9E"/></g><g><path d="M93.75 259.33C84.17 272.45 82.76 273.08 71.22 278.66 68.9 288.65 91.57 294.28 97.02 286.78 100.7 281.72 100.67 264.11 94.71 261.25" fill="#005885"/></g><g><path d="M22.24 241.38C22.24 241.38 30.9 282.28 37.64 295.75 37.64 295.75 21.76 305.37 9.25 287.08-3.26 268.8 2.03 245.7 2.03 245.7L22.24 241.38Z" fill="#E09B9B"/></g><g><g><g><path d="M35.97 26.47C33.33 24.83 31.21 22.81 32 20.36 33.2 16.64 39.88 10 43.06 7.74 52.63 0.95 61.07 11.16 60.19 20.78 59.25 31.04 52.66 31.11 44.87 30.45 39.37 29.73 38.12 27.81 35.97 26.47Z" fill="#D59000"/></g></g></g><g><path d="M52.46 19.53C51.89 17.45 51.56 15.47 51.61 13.83 51.68 11.35 53.64 8.06 53.55 6.4 53.48 5.16 65.28 1.79 66.74 1.42 71.64 0.17 76.57-0.3 81.62 0.2 92.31 1.26 102.7 5.23 112.5 9.35 121.45 13.11 126.54 10.96 126.36 12.53 124.34 30.3 102.93 37.7 96.64 39.91 90.44 42.09 83.71 42.97 77.17 42.11 70.08 41.17 63.13 37.79 58.57 32.19 56.25 29.34 53.74 24.19 52.46 19.53Z" fill="#D59000"/></g></g></svg>