<svg width="51.39" height="18.23" viewBox="0 0 51.39 18.23" xmlns="http://www.w3.org/2000/svg" xmlns:xlink="http://www.w3.org/1999/xlink" xml:space="preserve" overflow="hidden"><defs></defs><path d="M1.06 15.75C1.06 15.75-1.32 11.82 1.06 8.93 3.43 6.03 6.79 7.45 7.2 8.68 7.2 8.68 6.52 4.62 10.45 6.21 10.45 6.21 8.6 3.13 12.63 0.65 16.67-1.83 19.04 3.54 19.04 3.54 19.04 3.54 19.76 0.55 22.56 0.65 25.35 0.75 24.52 4.78 24.52 4.78 24.52 4.78 28.14 0.85 30.72 5.19 30.72 5.19 34.44 1.16 35.68 6.73 35.68 6.73 38.72 3.53 39.78 8.6 39.78 8.6 42.4 6.43 42.81 9.84 42.81 9.84 46.87 7.41 46.64 12.22 46.64 12.22 52.53 11.29 51.19 18.22L1.06 15.75Z" fill="#34A836"/></svg>