<svg width="106.46" height="106.46" viewBox="0 0 106.46 106.46" xmlns="http://www.w3.org/2000/svg" xmlns:xlink="http://www.w3.org/1999/xlink" xml:space="preserve" overflow="hidden"><defs></defs><g><path d="M106.46 53.23C106.46 54 106.44 54.76 106.41 55.52 106.3 58.25 105.97 60.93 105.46 63.54 105.37 63.99 105.28 64.43 105.18 64.87 102.08 78.77 93.55 90.62 81.92 98.07 74.31 102.95 65.37 105.95 55.77 106.4 54.93 106.44 54.08 106.46 53.23 106.46 47.44 106.46 41.86 105.53 36.64 103.82 25 100.01 15.13 92.29 8.58 82.21 6.9 79.64 5.44 76.91 4.22 74.05 1.51 67.66 0 60.62 0 53.23 0 23.83 23.83 0 53.23 0 82.63 0 106.46 23.83 106.46 53.23Z" fill="#39B8FF"/><path d="M106.46 53.23C106.46 54 106.44 54.76 106.41 55.52 106.3 58.25 105.97 60.93 105.46 63.54 105.37 63.99 105.28 64.43 105.18 64.87 102.08 78.77 93.55 90.62 81.92 98.07 74.31 102.95 65.37 105.95 55.77 106.4 54.93 106.44 54.08 106.46 53.23 106.46 47.44 106.46 41.86 105.53 36.64 103.82 25 100.01 15.13 92.29 8.58 82.21 6.9 79.64 5.44 76.91 4.22 74.05 1.51 67.66 0 60.62 0 53.23 0 23.83 23.83 0 53.23 0 82.63 0 106.46 23.83 106.46 53.23Z" fill="#C6F2F3"/><path d="M81.92 98.07C74.31 102.95 65.37 105.95 55.77 106.4 54.93 106.44 54.08 106.46 53.23 106.46 47.44 106.46 41.86 105.53 36.64 103.82 25 100.01 15.13 92.29 8.58 82.21 6.9 79.64 5.44 76.91 4.22 74.05 18.4 70.17 33.73 70.48 47.72 75.05 51.01 76.13 54.23 77.44 57.34 78.97 57.85 79.21 58.36 79.47 58.86 79.73 59.37 79.99 59.88 80.27 60.39 80.55 68.55 85.01 75.9 90.98 81.92 98.07Z" fill="#91C53F"/><g><g><path d="M90.9 68.52C88.56 62.18 84.9 56.33 80.22 51.45 78.88 50.05 77.28 48.65 75.34 48.53 72.93 48.38 70.89 50.25 69.45 52.18 66.25 56.44 64.39 61.55 62.87 66.66 61.35 71.77 60.12 76.99 57.98 81.87 63.43 78.84 68.85 76.03 74.63 73.69 79.86 71.56 85.33 69.46 90.9 68.52Z" fill="#828E5E"/><path d="M106.41 55.52C106.3 58.25 105.97 60.93 105.46 63.54 105.37 63.99 105.28 64.43 105.18 64.87 97.97 66.78 90.78 68.79 83.57 70.65 83.73 70.61 83.87 70.46 83.98 70.23 84.5 69.2 84.56 66.6 84.65 65.76 84.66 65.7 84.66 65.65 84.67 65.61 84.99 63.52 85.51 61.3 86.25 59.14 86.66 57.9 87.15 56.68 87.71 55.52 88.51 53.84 89.45 52.29 90.52 50.96 92.94 47.98 96.29 47.42 99.53 49.15 102.18 50.57 104.49 52.87 106.41 55.52Z" fill="#828E5E"/></g></g><path d="M105.46 63.54C105.37 63.99 105.28 64.43 105.18 64.87 102.08 78.77 93.55 90.62 81.92 98.07 74.31 102.95 65.37 105.95 55.77 106.4 54.93 106.44 54.08 106.46 53.23 106.46 47.44 106.46 41.86 105.53 36.64 103.82 38.55 100.11 40.79 96.55 43.31 93.21 47.33 87.87 52.06 83.07 57.34 78.97 58.14 78.36 58.95 77.76 59.77 77.18 61.26 76.12 62.78 75.11 64.35 74.17 70.65 70.38 77.52 67.55 84.65 65.76 86.19 65.37 87.75 65.03 89.32 64.75L89.33 64.75C94.64 63.76 100.05 63.35 105.46 63.54Z" fill="#AECD4B"/><path d="M50.69 101.1C51.48 100.34 51.81 99.14 51.53 98.08 51.24 97.02 50.35 96.15 49.29 95.89 50.26 95.37 50.72 94.07 50.29 93.06 49.86 92.05 48.61 91.47 47.56 91.8 49.2 91.57 50.32 89.67 49.88 88.07 49.44 86.47 47.67 85.43 46.03 85.63 44.39 85.83 42.99 87.15 42.49 88.73 43.45 87.1 42.77 84.72 41.1 83.84 39.42 82.96 37.08 83.75 36.28 85.47 37.24 84.57 37.15 82.79 36.1 81.99 35.05 81.19 33.31 81.58 32.7 82.75 33.96 81.72 34.31 79.73 33.46 78.34 32.61 76.95 30.69 76.34 29.19 76.99 27.7 77.64 26.84 79.47 27.28 81.04 26.69 79.05 23.89 78.14 22.24 79.4 20.59 80.66 20.74 83.6 22.5 84.69 31.61 90.31 41.46 95.67 50.69 101.1Z" fill="#587342"/><path d="M37.84 64.36C37.87 60.42 39.93 56.71 42.69 53.9 45.45 51.09 48.88 49.03 52.26 47.01 46.52 47.98 41.31 50.96 37.92 55.69 36.78 48.84 39.22 41.5 44.24 36.7 40.53 37.44 37.44 40.24 36.53 43.91 34.18 39.32 29.88 35.76 24.92 34.31 27.12 35.99 29.33 37.69 31.17 39.76 33.01 41.83 34.47 44.32 34.88 47.06 35.21 49.25 34.87 51.47 34.53 53.66 33.94 57.47 33.46 61.11 32.86 64.92 30.36 61.43 27.53 58.17 24.44 55.19 23.17 53.97 21.64 52.72 19.89 52.89 22.16 53.98 24 55.81 25.45 57.86 26.86 59.85 27.93 62.07 28.98 64.28 25.53 63.95 22.09 63.61 18.64 63.28 20.43 64.11 22.3 64.76 24.22 65.24 26.91 65.91 29.51 65.9 31.06 68.52 32.9 71.64 32.92 75.62 32.59 79.12 32.43 80.83 32.11 82.53 31.88 84.22 31.73 85.28 31.21 89.41 29.96 89.82 28.93 90.16 28.39 92.14 29.15 92.92 29.8 93.59 30.86 93.56 31.79 93.54 35.97 93.42 40.17 94.19 44.04 95.79 39.68 89.02 37.62 80.8 38.25 72.77 38.44 70.38 38.93 67.85 40.61 66.14 42.02 64.7 44.05 64.07 45.99 63.49 47.88 62.93 49.77 62.36 51.66 61.8 46.85 60.32 41.88 61.38 37.84 64.36Z" fill="#77383D"/><path d="M55.77 106.4C54.93 106.44 54.08 106.46 53.23 106.46 47.44 106.46 41.86 105.53 36.64 103.82 25 100.01 15.13 92.29 8.58 82.21 18.03 81.9 27.57 84.07 35.93 88.49 38.51 89.85 40.98 91.43 43.31 93.21 48.16 96.87 52.39 101.35 55.77 106.4Z" fill="#65A83F"/><circle cx="70.64" cy="28.07" r="6.25" fill="#FFFFFF"/><g><path d="M40.01 43.22C39.92 41.31 41.38 39.44 43.25 39.06 45.12 38.68 47.19 39.82 47.86 41.61 48.53 43.4 47.73 45.62 46.06 46.57 47.48 45.67 49.63 46.08 50.54 47.49 51.45 48.91 51.1 50.97 49.82 52.06 48.54 53.15 46.51 53.2 45.13 52.24 46.45 53.31 46.87 55.05 46.21 56.61 45.55 58.17 43.79 59.19 42.11 58.98 40.43 58.78 38.96 57.37 38.69 55.69 38.18 57.25 36.14 58.69 34.53 58.34 32.92 57.99 31.73 56.3 31.93 54.67 32.12 53.04 33.68 51.68 35.32 51.72 34.1 51.88 32.81 51.08 32.42 49.91 32.03 48.74 32.57 47.33 33.64 46.72 34.71 46.11 36.2 46.37 37.01 47.3 35.62 46.63 34.56 45.19 34.57 43.65 34.58 42.11 35.82 40.6 37.36 40.5 38.9 40.4 40.36 41.72 40.01 43.22Z" fill="#587342"/><path d="M27.29 66.47C27.5 68.63 26.13 70.85 24.1 71.62 22.07 72.39 19.57 71.66 18.29 69.9 17.33 70.28 16.29 70.54 15.27 70.39 14.25 70.24 13.25 69.6 12.91 68.62 12.57 67.64 13.09 66.39 14.1 66.13 12.83 66.09 11.49 65.94 10.45 65.21 9.41 64.48 8.8 62.99 9.42 61.88 9.91 61.01 10.99 60.63 11.98 60.7 12.97 60.77 13.89 61.22 14.77 61.68 13.6 60.5 13.41 58.48 14.32 57.09 15.24 55.7 17.17 55.1 18.72 55.71 20.27 56.32 21.26 58.09 20.97 59.73 21.97 57.65 25.18 57.1 26.82 58.74 28.45 60.38 27.91 63.58 25.82 64.59" fill="#778B36"/><path d="M21.59 46.57C20.2 45.51 17.93 45.89 16.97 47.35 17.28 45.78 16.68 44.04 15.39 43.09 14.1 42.14 12.18 42.11 10.93 43.12 9.69 44.12 9.33 46.11 10.24 47.43 8.92 46.3 6.54 46.95 5.97 48.59 5.4 50.23 6.87 52.21 8.61 52.14 7.01 52.36 5.83 54.08 6.08 55.68 6.33 57.27 7.87 58.52 9.48 58.57 11.09 58.62 12.65 57.56 13.33 56.1 12.83 58.22 14.93 60.51 17.08 60.19 19.24 59.88 20.59 57.09 19.51 55.2 20.52 55.68 21.86 55.28 22.43 54.32 22.84 53.63 22.68 53.02 22.55 52.3 22.38 51.33 22.34 51.48 22.52 50.51 22.79 49.03 22.95 47.61 21.59 46.57Z" fill="#9A973D"/><path d="M23.47 23.81C20.85 23.47 18.12 25.29 17.43 27.84 16.74 30.39 18.18 33.34 20.61 34.36 19.04 34.59 17.97 36.49 18.59 37.95 19.21 39.41 21.32 39.96 22.57 39 20.62 40.16 20.4 43.37 22.18 44.79 23.96 46.2 27.04 45.27 27.73 43.11 27.02 44.46 27.97 46.38 29.47 46.64 30.97 46.91 32.52 45.43 32.32 43.92 33.78 44.8 35.8 44.59 37.05 43.44 38.3 42.29 38.67 40.29 37.92 38.76 37.17 37.24 35.35 36.32 33.68 36.61 34.62 36.26 35.16 35.08 34.82 34.14 34.47 33.19 33.3 32.64 32.35 32.98 33.7 31.99 33.88 29.75 32.7 28.56 32.01 27.86 30.97 27.64 30.02 27.81 28.68 28.06 28.79 28.69 27.99 27.64 26.65 25.88 26.03 24.15 23.47 23.81Z" fill="#778B36"/><path d="M36.93 30.4C35.72 29.16 35.23 27.27 35.68 25.6 36.13 23.93 37.52 22.55 39.19 22.09 40.86 21.64 42.75 22.13 43.99 23.34 44.61 21.87 46.37 20.81 47.93 21.12 49.49 21.43 50.73 22.92 50.74 24.51 50.75 26.1 49.54 27.62 47.99 27.95 49.29 27.79 50.38 29.31 50.37 30.61 50.36 31.91 49.05 33.05 47.76 32.88 48.65 33.89 49.19 34.95 49.07 36.29 48.96 37.63 48.12 38.93 46.87 39.43 45.62 39.93 44.02 39.5 43.31 38.36 43.5 39.61 43.22 40.71 42.4 41.68 41.91 42.26 41.26 42.72 40.52 42.86 39.78 43 38.95 42.78 38.45 42.21 37.96 41.64 37.88 40.71 38.37 40.13 37.45 40.95 35.81 40.78 34.79 40.09 33.76 39.4 33.3 37.98 33.72 36.81 34.14 35.65 35.4 34.85 36.63 34.97 35.6 35.44 34.32 34.17 34.14 33.06 33.95 31.96 35.81 30.3 36.93 30.4Z" fill="#778B36"/><path d="M43.05 46.38C41.97 45.96 40.65 46.28 39.87 47.14 39.1 48 38.92 49.35 39.45 50.38 39.98 51.41 41.18 52.05 42.33 51.92 41.08 52.55 40.72 54.45 41.27 55.73 41.82 57.02 43.35 57.77 44.72 57.48 46.09 57.19 47.17 55.93 47.31 54.54 47.58 55.33 47.87 56.19 48.37 56.86 48.87 57.52 49.64 58.04 50.47 58.03 51.32 58.01 52.07 57.46 52.63 56.82 53.64 55.66 54.22 54.19 54.79 52.76 55.55 54.05 57.38 54.36 58.55 53.43 59.73 52.5 59.83 50.51 58.75 49.47 60.65 49.82 62.76 49.21 64.01 47.74 65.26 46.26 65.46 43.92 64.31 42.37 63.16 40.82 60.66 40.39 59.18 41.63 59.97 40.53 59.24 38.81 57.98 38.34 56.72 37.87 55.23 38.44 54.34 39.45 53.44 40.46 53.04 41.81 52.83 43.15 51.72 41.4 49.34 40.57 47.38 41.27 45.41 41.94 42.81 44.32 43.05 46.38Z" fill="#9BB84E"/><path d="M43.61 70.12C45.09 69.91 46.32 68.67 46.67 67.22 46.68 69.21 48.87 70.88 50.8 70.35 52.72 69.82 53.76 67.27 52.75 65.55 54.28 66.66 56.62 66.47 57.95 65.12 59.28 63.77 59.43 61.43 58.3 59.91 57.16 58.4 54.87 57.89 53.2 58.8 53.63 56.55 51.58 54.17 49.29 54.27 47 54.37 45.16 56.91 45.78 59.11 45.4 57.77 42.41 57.98 41.53 58.35 39.65 59.14 39.23 61.08 39.26 62.95 39.28 65.59 39.98 70.63 43.61 70.12Z" fill="#778B36"/><path d="M18.19 35.24C17.06 37.11 17.45 39.76 19.07 41.22 17.05 39.68 13.63 40.76 12.87 43.19 12.11 45.61 14.3 48.46 16.83 48.35 15.16 49.81 14.94 52.64 16.37 54.34 17.8 56.04 20.63 56.3 22.35 54.9 21.76 55.69 21.86 56.86 22.44 57.65 23.02 58.44 24 58.88 24.97 59 26.72 59.21 28.56 58.4 29.6 56.97 30.64 55.54 30.84 53.54 30.1 51.94 31.74 52.73 33.96 51.94 34.71 50.28 35.47 48.62 34.62 46.43 32.95 45.7 35.27 44.9 36.34 41.69 34.97 39.66 33.61 37.62 30.24 37.4 28.61 39.23 30.28 37.35 26.74 33.49 25.12 33 22.88 32.31 19.47 33.12 18.19 35.24Z" fill="#9BB84E"/><path d="M35.65 56.9C36.12 55.38 35.44 53.58 34.08 52.75 32.72 51.92 30.81 52.14 29.68 53.26 28.54 54.38 28.29 56.28 29.09 57.65 27.49 57.26 25.67 57.66 24.51 58.84 23.35 60.01 23 61.97 23.83 63.39 24.66 64.81 26.7 65.43 28.11 64.57 26.57 65.44 26.1 67.72 27.1 69.18 28.1 70.64 30.3 71.06 31.81 70.16 33.33 69.26 34.02 67.21 33.45 65.54 33.49 67.09 35.07 68.1 36.62 68.16 38.17 68.23 39.67 66.95 39.84 65.41 40.01 63.87 38.84 62.29 37.31 62.01 38.89 61.75 39.98 59.88 39.44 58.37 38.9 56.87 37.03 56.08 35.65 56.9Z" fill="#9A973D"/></g><g><path d="M36.35 93.93C37.39 93.99 39.11 94.47 40.08 94.95 41.05 95.43 41.25 95.98 41.43 97.24 39.31 98.07 37.39 96.32 36.35 93.93Z" fill="#587342"/><g><path d="M41.94 97.53C41.91 97.57 41.95 97.7 41.74 97.57 41.52 97.45 41.08 97.02 39.9 96.13 38.81 95.32 37.82 94.81 37.87 94.72 37.91 94.63 38.96 95.05 40.1 95.84 41.02 96.48 41.47 96.91 41.71 97.16 41.95 97.41 41.97 97.49 41.94 97.53Z" fill="#97B776"/></g></g><g><path d="M56.14 90.47C56.36 89.62 57.2 89.04 58.07 88.93 58.94 88.83 59.81 89.13 60.56 89.58 60.09 90.21 59.34 90.72 58.58 90.9 57.82 91.08 56.85 90.81 56.14 90.47Z" fill="#587342"/><g><path d="M55.45 90.78C55.44 90.75 55.31 90.75 55.51 90.63 55.71 90.52 56.23 90.23 57.57 89.88 58.8 89.57 59.84 89.49 59.84 89.55 59.85 89.62 58.84 89.78 57.64 90.12 56.67 90.4 56.14 90.61 55.84 90.71 55.53 90.82 55.46 90.82 55.45 90.78Z" fill="#97B776"/></g></g><g><path d="M66.3 98.82C67.18 97.27 69.08 96.36 70.84 96.64 70.48 97.47 69.83 98.31 69 98.69 68.17 99.07 67.17 99.09 66.3 98.82Z" fill="#587342"/><g><path d="M71.55 96.45C71.59 96.54 72.1 96.5 69.46 97.58 68.25 98.08 67.27 98.47 67.23 98.39 67.19 98.31 68.13 97.79 69.32 97.26 71.24 96.4 71.51 96.36 71.55 96.45Z" fill="#97B776"/></g></g><g><path d="M73.19 85.23C73.5 84.2 74.23 83.31 75.18 82.79 76.12 82.27 77.27 82.15 78.31 82.44 77.94 83.49 77.36 84.4 76.4 84.97 75.43 85.53 74.29 85.42 73.19 85.23Z" fill="#587342"/><g><path d="M72.4 85.85C72.37 85.81 72.22 85.83 72.43 85.64 72.65 85.46 73.23 85.03 74.77 84.26 76.18 83.56 77.38 83.11 77.42 83.2 77.46 83.29 76.32 83.85 74.94 84.58 72.72 85.78 72.46 85.95 72.4 85.85Z" fill="#97B776"/></g></g><g><path d="M87.78 75.07C88.61 74.56 89.63 74.37 90.58 74.54 91.54 74.71 92.43 75.24 93.03 76 92.16 76.48 91.12 76.73 90.14 76.56 89.16 76.39 88.44 75.81 87.78 75.07Z" fill="#587342"/><g><path d="M93.8 76.25C93.78 76.29 93.86 76.4 93.63 76.35 93.4 76.31 92.88 76.05 91.54 75.68 90.3 75.35 89.25 75.3 89.25 75.2 89.25 75.11 90.33 75.03 91.62 75.33 92.66 75.58 93.2 75.83 93.49 75.98 93.78 76.13 93.82 76.2 93.8 76.25Z" fill="#97B776"/></g></g><g><path d="M21.54 90.07C21.76 89.22 22.6 88.64 23.47 88.53 24.34 88.43 25.21 88.73 25.96 89.18 25.49 89.81 24.74 90.32 23.98 90.5 23.22 90.69 22.24 90.42 21.54 90.07Z" fill="#587342"/><g><path d="M20.84 90.39C20.83 90.36 20.7 90.36 20.9 90.24 21.1 90.13 21.62 89.84 22.96 89.49 24.19 89.18 25.23 89.1 25.23 89.16 25.24 89.23 24.23 89.39 23.03 89.73 22.06 90.01 21.53 90.22 21.23 90.32 20.93 90.42 20.86 90.42 20.84 90.39Z" fill="#97B776"/></g></g></g></svg>