<svg width="87.83" height="216.09" viewBox="0 0 87.83 216.09" xmlns="http://www.w3.org/2000/svg" xmlns:xlink="http://www.w3.org/1999/xlink" xml:space="preserve" overflow="hidden"><defs></defs><linearGradient x1="28.2535" y1="-331.797" x2="26.549" y2="-325.156" gradientUnits="userSpaceOnUse" id="SVGID_1_" gradientTransform="matrix(0.9616 0.2744 -0.2744 0.9616 -76.7478 345.595)"><stop offset="0.2206" stop-color="#FCE8D9"/><stop offset="1" stop-color="#F4C7BD"/></linearGradient><g><path d="M43.92 196.15C68.17 196.15 87.83 200.61 87.83 206.12 87.83 211.63 68.17 216.09 43.92 216.09 19.67 216.09 0 211.63 0 206.12 0 200.61 19.66 196.15 43.92 196.15Z" fill="#76BCDA" opacity="0.5"/><g><g><g><g><g><path d="M50.45 165.9 59.61 167.95C59.61 167.95 65.97 167.24 67.16 168.45 67.16 168.45 66.55 174.77 65.2 180.36 63.85 185.95 63.01 195.54 60.09 195.39 57.17 195.24 55.52 188.58 58.19 181.07 58.19 181.07 59.2 176.88 58.37 176.5 57.54 176.11 48.9 174.39 48.9 174.39L50.45 165.9Z" fill="#F9B799"/><path d="M50.45 165.9 59.61 167.95C59.61 167.95 65.97 167.24 67.16 168.45 67.16 168.45 66.55 174.77 65.2 180.36 63.85 185.95 63.01 195.54 60.09 195.39 57.17 195.24 55.52 188.58 58.19 181.07 58.19 181.07 59.2 176.88 58.37 176.5 57.54 176.11 48.9 174.39 48.9 174.39L50.45 165.9Z" fill="#FFBDC0" opacity="0.5"/><path d="M58.37 176.48C57.84 176.23 54.12 175.44 51.5 174.9 53.13 171.23 53 167.99 52.79 166.42L59.61 167.95C59.61 167.95 60.21 167.88 61.08 167.82 60.67 169.54 59.07 177.19 58.7 177.43L58.7 177.43C58.68 176.95 58.59 176.58 58.37 176.48Z" fill="#FFFFFF"/><path d="M55.88 172.44C56.85 169.6 54.23 168.37 52.9 168.85 52.93 167.85 52.87 167.02 52.79 166.43L59.02 167.82C58.9 170.7 58.72 174.81 58.6 176.79 58.55 176.64 58.47 176.53 58.37 176.48 58 176.31 56.12 175.88 54.13 175.45 54.77 174.75 55.43 173.77 55.88 172.44Z" fill="#7C9E38" opacity="0.2"/></g><g opacity="0.2"><path d="M57.71 186.16C57.92 186.19 58.15 185.89 58.22 185.48 58.29 185.07 58.18 184.71 57.96 184.67 57.75 184.63 57.52 184.94 57.44 185.35 57.38 185.76 57.5 186.12 57.71 186.16Z" fill="#7C9E38"/><path d="M57.55 189.36C57.89 189.37 58.19 188.84 58.21 188.18 58.24 187.52 57.98 186.97 57.64 186.96 57.3 186.95 57.01 187.47 56.98 188.14 56.95 188.8 57.21 189.34 57.55 189.36Z" fill="#7C9E38"/></g></g><path d="M60.08 195.38C57.16 195.23 54.7 189.34 58.18 181.06 58.18 181.06 59.19 176.87 58.36 176.49 58.18 176.4 56.63 176.09 55.87 175.91 57.5 172.83 57.99 169.52 57.43 167.47L59.6 167.95C59.6 167.95 65.96 167.24 67.15 168.45 67.15 168.45 66.54 174.77 65.19 180.36 63.84 185.94 63 195.53 60.08 195.38Z" fill="#423F3F"/><path d="M60.08 195.38C58.85 195.32 57.7 194.23 57.05 192.38 58.33 191.61 59.52 189.49 60.72 185.45 62.57 179.19 63.93 171.46 62.74 169.72 62.18 168.91 60.88 168.33 59.65 167.94 60.18 167.88 66.02 167.28 67.16 168.44 67.16 168.44 66.55 174.76 65.2 180.35 63.84 185.94 63 195.53 60.08 195.38Z" fill="#B91318" opacity="0.4"/><path d="M58.24 194.43C56.57 192.67 55.71 188.58 57.39 183.22 60.33 181.14 63.28 180.81 63.28 180.81 63.88 183.27 61.93 190.05 60.15 195.37 60.13 195.37 60.1 195.37 60.08 195.37 59.5 195.35 58.86 195 58.24 194.43Z" fill="#FFFFFF"/><path d="M60.8 176.47C60.96 177.08 59.62 178.29 58.55 179.19 58.63 178.7 58.69 178.17 58.7 177.72 59.39 176.97 60.62 175.78 60.8 176.47ZM58.22 180.9C59.32 180.11 60.59 179.11 60.48 178.52 60.37 177.89 59.28 178.71 58.51 179.38 58.41 180.05 58.28 180.63 58.22 180.9ZM58.37 176.48C58.59 176.58 58.68 176.95 58.69 177.43 59.76 176.53 61.1 175.31 60.94 174.7 60.7 173.74 58.37 176.48 58.37 176.48Z" fill="#FFFFFF"/><path d="M60.15 174.58C60.15 174.58 54.9 171.09 53.68 174.4 52.47 177.71 58.46 176.43 58.46 176.43L60.15 174.58Z" fill="#B93313"/><path d="M57.04 175.45C56.79 174.44 55.48 173.64 54.21 173.54 55.98 171.82 60.14 174.57 60.14 174.57L58.44 176.42C58.44 176.42 57.71 176.58 56.81 176.64 57.08 176.24 57.14 175.83 57.04 175.45Z" fill="#B91318" opacity="0.4"/><path d="M58.28 194.46C58.2 194.38 58.13 194.3 58.06 194.21 58.03 194.17 58 194.14 57.97 194.1 57.86 193.96 57.75 193.8 57.65 193.63 57.63 193.6 57.62 193.57 57.61 193.54 57.52 193.4 57.44 193.25 57.37 193.08 57.35 193.03 57.32 192.97 57.3 192.92 57.24 192.77 57.17 192.62 57.11 192.46 57.1 192.43 57.09 192.39 57.07 192.36 58.35 191.58 59.54 189.46 60.74 185.43 61.15 184.03 61.54 182.56 61.89 181.09 62.75 180.85 63.31 180.79 63.31 180.79 63.91 183.25 61.96 190.03 60.18 195.35 60.16 195.35 60.13 195.35 60.11 195.35 59.51 195.35 58.88 195.01 58.28 194.46Z" fill="#7C9E38" opacity="0.2"/><path d="M63.28 180.81C64.69 173.27 64.84 169.3 64.83 167.79 65.87 167.87 66.77 168.06 67.15 168.44 67.15 168.44 66.54 174.76 65.19 180.35 63.84 185.94 63 195.53 60.08 195.38 59.65 195.36 59.18 195.16 58.71 194.82 60.28 192.24 62.03 187.5 63.28 180.81Z" fill="#FFFFFF"/><path d="M65.43 167.93C65.44 169.45 65.28 173.41 63.88 180.95 62.63 187.64 60.88 192.37 59.31 194.96 59.55 195.13 59.8 195.27 60.04 195.36 59.62 195.32 59.17 195.13 58.72 194.81 60.28 192.23 62.04 187.49 63.29 180.8 64.7 173.26 64.85 169.29 64.84 167.78 65.44 167.83 65.99 167.91 66.43 168.05 66.12 168 65.78 167.96 65.43 167.93Z" fill="#7C9E38" opacity="0.4"/></g><g><g><g><path d="M59.34 192.48 59.7 201.86C59.7 201.86 62.01 207.83 61.15 209.28 61.15 209.28 54.88 210.31 49.14 210.43 43.39 210.55 33.91 212.18 33.31 209.32 32.71 206.46 38.73 203.17 46.67 203.83 46.67 203.83 50.98 203.74 51.14 202.84 51.3 201.94 50.76 193.15 50.76 193.15L59.34 192.48Z" fill="#F9B799"/><path d="M59.34 192.48 59.7 201.86C59.7 201.86 62.01 207.83 61.15 209.28 61.15 209.28 54.88 210.31 49.14 210.43 43.39 210.55 33.91 212.18 33.31 209.32 32.71 206.46 38.73 203.17 46.67 203.83 46.67 203.83 50.98 203.74 51.14 202.84 51.3 201.94 50.76 193.15 50.76 193.15L59.34 192.48Z" fill="#FFBDC0" opacity="0.5"/><path d="M51.13 202.84C51.23 202.26 51.05 198.46 50.9 195.79 54.86 196.43 57.96 195.48 59.43 194.87L59.7 201.85C59.7 201.85 59.92 202.42 60.2 203.24 58.43 203.28 50.62 203.68 50.3 203.38L50.3 203.38C50.75 203.26 51.08 203.08 51.13 202.84Z" fill="#FFFFFF"/><path d="M54.4 199.41C57.39 199.62 57.91 196.77 57.11 195.61 58.08 195.39 58.87 195.11 59.42 194.88L59.66 201.26C56.85 201.88 52.82 202.76 50.88 203.15 51.01 203.06 51.1 202.96 51.12 202.85 51.19 202.45 51.13 200.52 51.03 198.49 51.89 198.92 53 199.31 54.4 199.41Z" fill="#7C9E38" opacity="0.2"/></g><g opacity="0.2"><path d="M41.61 204.68C41.63 204.9 41.98 205.04 42.4 205 42.81 204.97 43.14 204.76 43.12 204.55 43.1 204.33 42.75 204.19 42.33 204.22 41.91 204.26 41.59 204.46 41.61 204.68Z" fill="#7C9E38"/><path d="M38.47 205.34C38.55 205.67 39.13 205.83 39.78 205.68 40.43 205.54 40.9 205.15 40.82 204.82 40.75 204.49 40.16 204.34 39.51 204.48 38.86 204.62 38.4 205 38.47 205.34Z" fill="#7C9E38"/></g></g><path d="M33.3 209.32C32.7 206.46 37.76 202.58 46.66 203.83 46.66 203.83 50.97 203.74 51.13 202.84 51.17 202.64 51.08 201.06 51.06 200.28 54.45 201.07 57.78 200.7 59.62 199.64L59.71 201.86C59.71 201.86 62.02 207.83 61.16 209.28 61.16 209.28 54.89 210.31 49.15 210.43 43.38 210.55 33.9 212.18 33.3 209.32Z" fill="#423F3F"/><path d="M33.3 209.32C33.05 208.11 33.8 206.73 35.42 205.62 36.49 206.66 38.85 207.27 43.06 207.4 49.58 207.6 57.41 206.94 58.78 205.34 59.42 204.59 59.65 203.18 59.71 201.89 59.9 202.39 61.97 207.89 61.14 209.27 61.14 209.27 54.87 210.3 49.13 210.42 43.38 210.55 33.9 212.18 33.3 209.32Z" fill="#B91318" opacity="0.4"/><path d="M33.74 207.3C35.02 205.24 38.75 203.36 44.36 203.62 47.12 205.93 48.19 208.7 48.19 208.7 45.97 209.91 38.91 209.74 33.31 209.39 33.31 209.37 33.29 209.35 33.29 209.32 33.18 208.75 33.34 208.04 33.74 207.3Z" fill="#FFFFFF"/><path d="M51.76 205.19C51.21 205.5 49.7 204.51 48.55 203.71 49.05 203.66 49.57 203.58 50.01 203.48 50.91 203.96 52.38 204.84 51.76 205.19ZM46.82 203.83C47.86 204.69 49.16 205.66 49.69 205.41 50.27 205.14 49.19 204.3 48.35 203.73 47.69 203.79 47.09 203.82 46.82 203.83ZM51.13 202.84C51.09 203.08 50.76 203.26 50.3 203.39 51.44 204.19 52.96 205.19 53.51 204.88 54.37 204.39 51.13 202.84 51.13 202.84Z" fill="#FFFFFF"/><path d="M53.42 204.08C53.42 204.08 55.45 198.11 51.94 197.78 48.43 197.45 51.19 202.92 51.19 202.92L53.42 204.08Z" fill="#B93313"/><path d="M51.79 201.3C52.71 200.8 53.15 199.33 52.91 198.08 55.03 199.36 53.42 204.08 53.42 204.08L51.2 202.91C51.2 202.91 50.86 202.24 50.57 201.39 51.04 201.54 51.45 201.49 51.79 201.3Z" fill="#B91318" opacity="0.4"/><path d="M33.72 207.34C33.78 207.25 33.84 207.15 33.91 207.06 33.94 207.02 33.96 206.98 33.99 206.94 34.1 206.8 34.22 206.65 34.36 206.51 34.38 206.49 34.41 206.47 34.43 206.44 34.55 206.32 34.67 206.2 34.81 206.09 34.85 206.05 34.9 206.02 34.95 205.98 35.07 205.88 35.2 205.78 35.34 205.68 35.37 205.66 35.4 205.64 35.43 205.62 36.5 206.66 38.86 207.27 43.06 207.39 44.52 207.43 46.04 207.44 47.55 207.39 48 208.16 48.2 208.68 48.2 208.68 45.98 209.89 38.92 209.72 33.32 209.37 33.32 209.35 33.3 209.33 33.3 209.3 33.18 208.76 33.34 208.07 33.72 207.34Z" fill="#7C9E38" opacity="0.2"/><path d="M48.2 208.7C55.85 208.14 59.72 207.28 61.19 206.88 61.38 207.91 61.42 208.83 61.15 209.29 61.15 209.29 54.88 210.32 49.14 210.44 43.39 210.56 33.91 212.19 33.31 209.33 33.22 208.9 33.29 208.4 33.5 207.86 36.38 208.71 41.41 209.2 48.2 208.7Z" fill="#FFFFFF"/><path d="M61.2 207.48C59.74 207.88 55.86 208.74 48.21 209.3 41.42 209.8 36.4 209.31 33.5 208.46 33.39 208.74 33.33 209.01 33.3 209.27 33.23 208.85 33.3 208.37 33.49 207.86 36.39 208.71 41.41 209.2 48.2 208.7 55.85 208.14 59.72 207.28 61.19 206.88 61.3 207.48 61.36 208.03 61.34 208.48 61.31 208.17 61.26 207.83 61.2 207.48Z" fill="#7C9E38" opacity="0.4"/></g><g><g><g><g><path d="M62.86 155.43C62.41 149.76 63.16 125.69 62.78 121.76 62.61 120.01 62.35 116.46 62.09 112.97 61.19 112.94 60.29 112.95 59.39 112.97 51.61 114.1 43.78 114.08 36.31 112 33.89 111.67 31.51 111.16 29.19 110.42 28.58 118.4 26.7 126.36 25.27 134.22 24.42 138.87 23.58 143.52 22.86 148.2 22.48 150.67 21.5 153.36 21.92 155.88 22.3 158.22 24 160.28 25.68 161.85 27.86 163.88 30.05 165.61 32.67 166.95 34.85 168.07 36.69 169.18 38.66 170.64 40.4 171.93 41.91 173.66 43.79 174.77 45.57 175.82 47.9 176.78 49.79 175.45 52.18 173.77 53.76 169.48 52.62 166.65 51.7 164.35 49.32 162.87 47.31 161.62 43.57 159.29 36.8 156.57 37.6 151.08 38.14 147.41 39.27 143.53 40.06 139.83 40.39 138.26 40.64 133.94 42.02 132.83 43.24 131.86 47 134.98 47.36 138.04 47.72 141.1 47.59 150.12 46.95 154.33 46.31 158.54 48.55 159.15 48.66 161.32 48.76 163.49 47.58 177.09 47.48 178.94 47.38 180.79 44.66 193.64 48.33 195.6 51.99 197.56 58.83 198.21 60.54 195.16 62.26 192.13 63.45 162.77 62.86 155.43Z" fill="#2C82C7"/><g><path d="M34.99 153.01C34.8 153.02 34.51 151.71 34.51 151.71 34.51 151.71 34.53 150.39 34.72 150.38 34.91 150.38 35.2 151.68 35.2 151.68 35.2 151.68 35.18 153 34.99 153.01Z" fill="#0D5382"/><path d="M29.81 119.49C30.15 119.3 30.62 119.04 31.01 118.67 31.39 118.3 31.75 117.86 31.91 117.46 32.09 117.07 32.16 116.77 32.22 116.78 32.25 116.78 32.28 117.11 32.16 117.58 32.06 118.07 31.73 118.62 31.33 119.1 30.93 119.58 30.45 119.92 30.09 120.16 29.72 120.38 29.47 120.52 29.47 120.52 29.47 120.52 28.62 120.88 27.66 121.04 27.7 120.81 27.74 120.6 27.77 120.38 28.57 120.11 29.22 119.77 29.22 119.77 29.22 119.77 29.45 119.66 29.81 119.49Z" fill="#0D5382"/><path d="M36.84 141.16C36.84 141.16 37.38 139.97 37.56 140.04 37.74 140.11 37.48 141.42 37.48 141.42 37.48 141.42 36.94 142.61 36.76 142.54 36.58 142.47 36.84 141.16 36.84 141.16Z" fill="#0D5382"/><path d="M39.85 132.5C39.67 132.44 39.68 131.78 39.68 131.78 39.68 131.78 39.81 131.54 39.94 131.39 38.66 131.01 37.43 130.91 37.43 130.8 37.43 130.7 38.93 130.6 40.4 130.94 41.88 131.25 43.25 132.01 43.25 132.01 43.25 132.01 43.47 132.15 43.79 132.38 43.54 132.11 42.4 130.89 41.08 129.92 39.61 128.78 37.96 127.96 38 127.86 38.03 127.76 39.76 128.39 41.34 129.43 42.13 129.95 42.89 130.53 43.43 131.01 43.97 131.49 44.32 131.84 44.32 131.84 44.32 131.84 44.65 132.21 45.11 132.79 45.56 133.38 46.14 134.22 46.59 135.15 47.03 136.09 47.38 137.08 47.5 137.88 47.64 138.66 47.63 139.2 47.6 139.21 47.56 139.22 47.52 139.03 47.44 138.71 47.42 138.48 47.4 138.27 47.38 138.08 47.09 135.58 44.52 133.03 42.92 132.73 42.81 132.66 41.63 131.93 40.3 131.51 40.35 131.72 40.34 132 40.34 132 40.34 132 40.03 132.56 39.85 132.5Z" fill="#0D5382"/><path d="M37.29 113.61C37.88 113.82 38.47 114.01 39.05 114.17 39 114.31 38.95 114.47 38.9 114.64 38.7 115.4 38.45 116.44 38.37 117.51 38.3 118.04 38.32 118.59 38.31 119.09 38.35 119.59 38.37 120.07 38.46 120.47 38.5 120.67 38.53 120.86 38.56 121.02 38.6 121.18 38.64 121.31 38.67 121.43 38.74 121.66 38.77 121.78 38.77 121.78 38.77 121.78 38.81 121.91 38.91 122.12 39.01 122.32 39.12 122.65 39.32 122.98 39.68 123.68 40.3 124.49 40.98 125.19 42.35 126.59 43.98 127.49 44.02 127.41 44.04 127.37 43.84 127.19 43.51 126.91 43.55 126.71 43.21 125.34 42.91 123.95 42.6 122.46 42.42 120.97 42.42 120.97 42.42 120.97 42.37 120.6 42.3 120.04 42.2 119.48 42.2 118.73 42.15 117.97 42.14 116.5 42.41 115.04 42.32 114.93 42.54 114.97 42.76 115.01 42.96 115.04 44.54 115.26 45.6 115.36 45.6 115.36 45.6 115.36 45.87 115.37 46.33 115.39 46.8 115.39 47.46 115.46 48.25 115.43 49.57 115.43 51.25 115.35 52.99 115.18 52.94 115.44 52.85 116.02 52.82 116.81 52.77 117.86 52.91 119.24 53.2 120.59L53.2 120.59C53.19 120.6 53.2 120.63 53.22 120.69 53.22 120.71 53.22 120.72 53.23 120.74 53.59 122.12 54.12 123.44 54.61 124.36 54.84 124.83 55.1 125.18 55.24 125.44 55.4 125.69 55.49 125.84 55.49 125.84 55.49 125.84 55.6 125.97 55.78 126.2 55.97 126.42 56.21 126.78 56.57 127.12 57.24 127.87 58.27 128.7 59.37 129.35 59.86 129.62 60.36 129.84 60.85 130.02 60.93 130.17 61.04 130.31 61.13 130.29 61.18 130.28 61.22 130.23 61.25 130.16 61.73 130.32 62.2 130.43 62.6 130.49 62.85 130.52 63.08 130.55 63.28 130.56 63.28 130.48 63.27 130.4 63.27 130.32 63.08 130.28 62.88 130.24 62.65 130.18 62.26 130.08 61.82 129.93 61.36 129.74 61.37 129.65 61.38 129.59 61.38 129.59 61.38 129.59 61.15 128.99 60.96 129.03 60.85 129.05 60.79 129.28 60.75 129.47 60.37 129.29 59.98 129.08 59.6 128.85 58.57 128.16 57.63 127.32 57.01 126.58 56.68 126.25 56.46 125.88 56.28 125.67 56.11 125.44 56.01 125.32 56.01 125.32 56.01 125.32 55.92 125.19 55.76 124.95 55.61 124.71 55.35 124.39 55.12 123.95 54.91 123.59 54.69 123.15 54.47 122.68 54.7 122.96 54.94 123.24 55.18 123.53 55.48 123.85 55.81 124.12 56.11 124.4 56.4 124.69 56.7 124.91 56.96 125.09 57.48 125.46 57.83 125.71 57.83 125.71 57.83 125.71 59.3 126.51 60.83 127.07 61.68 127.37 62.52 127.64 63.12 127.81 63.12 127.7 63.11 127.6 63.1 127.5 62.54 127.24 61.77 126.89 61 126.54 59.53 125.85 58.15 125 58.15 125 58.15 125 57.81 124.78 57.29 124.46 57.03 124.31 56.73 124.11 56.44 123.86 56.14 123.61 55.8 123.38 55.5 123.1 54.91 122.56 54.38 121.96 53.97 121.47 53.86 121.18 53.76 120.88 53.66 120.57 53.3 119.25 53.08 117.86 53.05 116.81 53.02 116.04 53.04 115.45 53.03 115.19 53.37 115.16 53.71 115.12 54.04 115.08 56.15 114.81 58.25 114.44 59.81 114.06 60.59 113.89 61.24 113.7 61.69 113.58 61.83 113.54 61.94 113.51 62.05 113.47 62.05 113.43 62.04 113.39 62.04 113.36 61.61 113.43 60.81 113.58 59.78 113.76 58.21 114.05 56.11 114.32 54.02 114.52 51.92 114.69 49.82 114.75 48.24 114.71 47.45 114.72 46.8 114.64 46.34 114.62 45.88 114.59 45.62 114.58 45.62 114.58 45.62 114.58 44.57 114.51 43.01 114.33 41.95 114.19 40.64 113.97 39.28 113.64 39.29 113.53 39.3 113.46 39.28 113.45 39.26 113.45 39.23 113.51 39.19 113.62 38.58 113.47 37.97 113.3 37.36 113.11 36.11 112.69 34.87 112.19 33.78 111.65 33.37 111.57 32.97 111.49 32.57 111.4 33.93 112.18 35.59 112.97 37.29 113.61ZM39.25 114.23C40.34 114.53 41.4 114.75 42.33 114.92 42.24 114.98 41.81 116.42 41.69 117.95 41.67 118.74 41.63 119.53 41.69 120.12 41.73 120.71 41.76 121.1 41.76 121.1 41.76 121.1 42.02 122.64 42.46 124.11 42.82 125.31 43.24 126.47 43.42 126.82 42.87 126.35 42.04 125.62 41.31 124.77 40.7 124.05 40.16 123.26 39.86 122.59 39.69 122.28 39.6 121.97 39.52 121.78 39.44 121.59 39.41 121.47 39.41 121.47 39.41 121.47 39.37 121.35 39.31 121.15 39.28 121.05 39.24 120.93 39.19 120.79 39.16 120.64 39.12 120.48 39.08 120.3 38.98 119.94 38.95 119.5 38.88 119.04 38.86 118.56 38.82 118.06 38.85 117.55 38.88 116.27 39.11 115.01 39.25 114.23Z" fill="#0D5382"/><path d="M46.92 154.94C46.98 154.32 47.06 153.68 47.13 152.98 47.27 152.08 47.45 151.08 47.64 150.08 47.9 148.62 48.14 147.16 48.21 146.06 48.29 144.95 48.27 144.21 48.33 144.2 48.36 144.19 48.47 144.94 48.47 146.06 48.48 147.19 48.31 148.69 48.11 150.17 47.9 151.64 47.69 153.11 47.59 154.21 47.53 154.76 47.54 155.21 47.52 155.53 47.5 155.85 47.51 156.03 47.51 156.03 47.51 156.03 47.51 156.21 47.51 156.51 47.52 156.82 47.55 157.26 47.66 157.78 47.84 158.83 48.36 160.15 48.93 161.48 49.5 162.8 50.03 164.18 50.24 165.29 50.46 166.39 50.43 167.16 50.39 167.16 50.33 167.17 50.27 166.42 49.98 165.38 49.39 163.27 48.56 161.46 47.62 159.58 46.8 157.96 46.77 156.53 46.92 154.94Z" fill="#0D5382"/><path d="M35.33 147.61C35.15 147.55 35.34 146.22 35.34 146.22 35.34 146.22 35.83 144.99 36.01 145.06 36.18 145.13 35.99 146.44 35.99 146.44 35.99 146.44 35.51 147.67 35.33 147.61Z" fill="#0D5382"/><path d="M39.14 135.03C39.32 135.1 39.07 136.41 39.07 136.41 39.07 136.41 38.54 137.61 38.36 137.54 38.19 137.47 38.43 136.15 38.43 136.15 38.43 136.15 38.96 134.96 39.14 135.03Z" fill="#0D5382"/><path d="M60.75 181.85C60.57 181.79 60.61 180.51 60.61 180.51 60.61 180.51 60.95 179.29 61.14 179.3 61.33 179.31 61.28 180.64 61.28 180.64 61.28 180.64 60.93 181.91 60.75 181.85Z" fill="#0D5382"/><path d="M60.24 186.96C60.05 186.92 60 185.64 60 185.64 60 185.64 60.25 184.39 60.44 184.39 60.63 184.39 60.68 185.71 60.68 185.71 60.68 185.71 60.43 187 60.24 186.96Z" fill="#0D5382"/><path d="M59.44 192.31C59.26 192.26 59.3 190.97 59.3 190.97 59.3 190.97 59.64 189.75 59.83 189.76 60.02 189.77 59.97 191.09 59.97 191.09 59.97 191.09 59.62 192.37 59.44 192.31Z" fill="#0D5382"/><path d="M58.31 196.8C58.13 196.72 58.31 195.45 58.31 195.45 58.31 195.45 58.78 194.27 58.97 194.31 59.16 194.35 58.97 195.66 58.97 195.66 58.97 195.66 58.49 196.88 58.31 196.8Z" fill="#0D5382"/><path d="M60.95 176.71C60.76 176.71 60.65 175.41 60.65 175.41 60.65 175.41 60.85 174.12 61.04 174.12 61.23 174.12 61.34 175.42 61.34 175.42 61.34 175.42 61.14 176.71 60.95 176.71Z" fill="#0D5382"/><path d="M49.44 193.19C49.5 193.1 50.29 193.65 51.18 193.85 52.06 194.09 52.95 194.02 52.95 194.02 52.95 194.02 53.17 194.03 53.5 194 53.83 193.98 54.27 193.88 54.69 193.72 55.11 193.54 55.5 193.29 55.78 193.04 56.05 192.8 56.23 192.61 56.27 192.65 56.3 192.68 56.19 192.94 55.96 193.27 55.72 193.6 55.33 193.97 54.88 194.24 54.43 194.49 53.94 194.66 53.58 194.73 53.21 194.81 52.96 194.82 52.96 194.82 52.96 194.82 51.96 194.8 51.04 194.39 50.11 194.02 49.38 193.27 49.44 193.19Z" fill="#0D5382"/><path d="M27.11 124.11C27.67 123.91 28.29 123.51 28.85 123.04 29.59 122.44 30.17 121.6 30.61 121 30.81 120.67 30.97 120.41 31.08 120.21 31.2 120.02 31.25 119.91 31.25 119.91 31.25 119.91 31.31 119.8 31.42 119.6 31.52 119.4 31.7 119.14 31.84 118.78 32.17 118.09 32.55 117.12 32.81 116.1 33.04 115.09 33.21 114.03 33.16 113.24 33.18 112.84 33.11 112.52 33.1 112.29 33.08 112.06 33.08 111.92 33.1 111.91 33.12 111.9 33.17 112.02 33.24 112.25 33.3 112.48 33.42 112.8 33.44 113.21 33.57 114.03 33.48 115.15 33.29 116.23 33.08 117.32 32.73 118.36 32.41 119.11 32.27 119.5 32.09 119.78 32 120 31.89 120.21 31.83 120.33 31.83 120.33 31.83 120.33 31.77 120.45 31.64 120.65 31.51 120.84 31.33 121.12 31.11 121.45 30.62 122.07 29.97 122.91 29.14 123.5 28.46 124 27.72 124.37 27.06 124.49 27.06 124.37 27.09 124.24 27.11 124.11Z" fill="#0D5382"/><path d="M61.56 139.28C61.56 139.28 61.66 137.98 61.85 137.96 62.04 137.94 62.25 139.22 62.25 139.22 62.25 139.22 62.15 140.53 61.96 140.54 61.77 140.55 61.56 139.28 61.56 139.28Z" fill="#0D5382"/><path d="M62.04 148.28C62.23 148.28 62.36 149.57 62.36 149.57 62.36 149.57 62.19 150.86 62 150.86 61.81 150.86 61.68 149.57 61.68 149.57 61.68 149.57 61.85 148.29 62.04 148.28Z" fill="#0D5382"/><path d="M61.25 168.95C61.44 168.96 61.53 170.25 61.53 170.25 61.53 170.25 61.32 171.54 61.13 171.53 60.94 171.53 60.85 170.23 60.85 170.23 60.85 170.23 61.07 168.94 61.25 168.95Z" fill="#0D5382"/><path d="M61.5 163.79C61.69 163.8 61.78 165.09 61.78 165.09 61.78 165.09 61.57 166.38 61.38 166.37 61.19 166.36 61.1 165.07 61.1 165.07 61.1 165.07 61.31 163.78 61.5 163.79Z" fill="#0D5382"/><path d="M62.03 143.12C62.22 143.11 62.38 144.4 62.38 144.4 62.38 144.4 62.24 145.7 62.05 145.7 61.86 145.7 61.7 144.42 61.7 144.42 61.7 144.42 61.84 143.13 62.03 143.12Z" fill="#0D5382"/><path d="M61.74 158.62C61.93 158.63 62.03 159.92 62.03 159.92 62.03 159.92 61.82 161.21 61.63 161.2 61.44 161.19 61.35 159.9 61.35 159.9 61.35 159.9 61.55 158.61 61.74 158.62Z" fill="#0D5382"/><path d="M61.93 153.45C62.12 153.45 62.23 154.75 62.23 154.75 62.23 154.75 62.03 156.04 61.85 156.04 61.66 156.03 61.55 154.74 61.55 154.74 61.55 154.74 61.74 153.45 61.93 153.45Z" fill="#0D5382"/><path d="M61.92 134.06C61.92 134.06 61.88 135.37 61.69 135.4 61.5 135.42 61.24 134.16 61.24 134.16 61.24 134.16 61.28 132.86 61.47 132.83 61.65 132.79 61.92 134.06 61.92 134.06Z" fill="#0D5382"/></g></g><g><g><path d="M49.75 155.23C49.97 155.28 50.22 154.92 50.31 154.43 50.4 153.94 50.3 153.49 50.09 153.44 49.87 153.39 49.62 153.75 49.53 154.24 49.43 154.74 49.53 155.18 49.75 155.23Z" fill="#53ADEA"/><path d="M49.42 159.09C49.77 159.12 50.1 158.49 50.16 157.69 50.22 156.89 49.98 156.22 49.63 156.19 49.28 156.16 48.95 156.79 48.89 157.59 48.84 158.39 49.07 159.06 49.42 159.09Z" fill="#53ADEA"/></g></g><g><g><path d="M23.96 152.89C24.18 152.94 24.43 152.58 24.52 152.09 24.61 151.59 24.51 151.15 24.3 151.1 24.08 151.05 23.83 151.41 23.74 151.9 23.64 152.39 23.74 152.83 23.96 152.89Z" fill="#53ADEA"/><path d="M23.63 156.74C23.98 156.76 24.31 156.14 24.37 155.34 24.43 154.54 24.19 153.87 23.84 153.84 23.49 153.81 23.16 154.44 23.1 155.24 23.05 156.04 23.28 156.72 23.63 156.74Z" fill="#53ADEA"/></g></g></g></g><path d="M28.96 112.62C29.01 112.26 29.04 111.91 29.08 111.59 29.08 111.58 29.08 111.56 29.09 111.54 29.18 111.3 29.27 111.09 29.34 110.93 29.4 110.79 29.46 110.65 29.53 110.51 31.75 111.2 34.01 111.69 36.32 112 43.78 114.07 51.61 114.1 59.4 112.97 60.3 112.95 61.2 112.94 62.1 112.97 62.15 113.65 62.2 114.33 62.25 114.99 62.33 116.12 62.42 117.21 62.5 118.21 60.7 119.11 54.21 121.96 45.17 121.33 35.57 120.67 29.5 115.45 28.91 114.12 28.87 114.02 28.84 113.92 28.82 113.81 28.82 113.79 28.82 113.77 28.83 113.75 28.87 113.36 28.91 112.99 28.96 112.62 28.96 112.63 28.96 112.62 28.96 112.62Z" fill="#2C82C7" opacity="0.3"/><g><path d="M31.45 165.28C31.41 165.33 30.78 164.89 29.77 164.35 28.75 163.83 27.32 163.25 25.99 162.4 24.67 161.55 23.57 160.39 22.9 159.41 22.54 158.94 22.32 158.49 22.16 158.18 21.99 157.88 21.92 157.69 21.92 157.69 21.92 157.69 21.85 157.5 21.73 157.18 21.59 156.86 21.48 156.37 21.36 155.79 21.15 154.6 21.26 153.01 21.62 151.5 21.97 149.98 22.45 148.52 22.74 147.41 23.05 146.3 23.15 145.54 23.21 145.55 23.23 145.55 23.22 145.74 23.19 146.08 23.16 146.42 23.09 146.9 22.98 147.47 22.76 148.61 22.34 150.1 22.05 151.6 21.75 153.1 21.7 154.62 21.92 155.7 22.04 156.24 22.16 156.69 22.3 156.99 22.42 157.29 22.48 157.47 22.48 157.47 22.48 157.47 22.54 157.65 22.7 157.93 22.85 158.22 23.04 158.65 23.37 159.1 23.98 160.04 24.99 161.19 26.24 162.05 27.48 162.91 28.89 163.55 29.89 164.15 30.4 164.43 30.77 164.75 31.05 164.94 31.31 165.14 31.46 165.26 31.45 165.28Z" fill="#0D5382"/></g><g><path d="M36.76 156.17C36.7 156.23 36.48 156.07 36.28 155.88 36.11 155.68 35.95 155.46 35.95 155.46 35.95 155.46 35.88 155.21 35.83 154.95 35.79 154.7 35.77 154.43 35.84 154.4 35.92 154.37 36.08 154.57 36.23 154.78 36.38 154.98 36.51 155.19 36.51 155.19 36.51 155.19 36.59 155.41 36.66 155.65 36.74 155.87 36.83 156.11 36.76 156.17Z" fill="#0D5382"/></g><g><path d="M39.76 159.78C39.66 159.92 38.89 159.4 38.89 159.4 38.89 159.4 38.3 158.67 38.42 158.56 38.54 158.44 39.29 158.94 39.29 158.94 39.29 158.94 39.86 159.64 39.76 159.78Z" fill="#0D5382"/></g><g><path d="M42.88 162.04C42.8 162.19 42.09 161.86 42.09 161.86 42.09 161.86 41.54 161.31 41.65 161.18 41.76 161.05 42.44 161.36 42.44 161.36 42.44 161.36 42.96 161.89 42.88 162.04Z" fill="#0D5382"/></g><g><path d="M46.73 164.12C46.65 164.27 45.7 163.96 45.7 163.96 45.7 163.96 44.88 163.41 44.96 163.26 45.04 163.11 45.99 163.42 45.99 163.42 45.99 163.42 46.81 163.97 46.73 164.12Z" fill="#0D5382"/></g><path d="M62.86 155.43C62.41 149.76 63.16 125.69 62.78 121.76 62.61 120.01 62.35 116.46 62.09 112.97 61.19 112.94 60.29 112.95 59.39 112.97 51.61 114.1 43.78 114.08 36.31 112 33.89 111.67 31.51 111.16 29.19 110.42 29.18 110.6 29.16 110.8 29.14 110.99L29.14 110.99C32.49 112.6 38.08 114.63 42.34 114.91 48.69 115.33 53.03 115.15 53.03 115.15 53.03 115.15 52.33 120.22 54.54 122.64 56.75 125.07 60.9 127.02 60.9 127.02 60.9 127.02 62.32 173.53 54.88 176.01 47.44 178.49 51.22 166.12 48.68 162.11 48.68 162.1 48.67 162.09 48.67 162.08 48.67 162.2 48.66 162.33 48.66 162.47 48.21 162.17 47.76 161.89 47.32 161.62 43.58 159.29 36.81 156.57 37.61 151.08 38.15 147.41 39.28 143.53 40.07 139.83 40.4 138.26 40.65 133.94 42.03 132.83 42.42 132.52 43.08 132.63 43.8 133.03 42.53 131.65 38.34 130.92 37.31 131.15 36.21 131.39 36.94 134.57 36.58 136.77 36.21 138.97 31.94 148.01 31.33 151.68 30.72 155.35 33.65 159.26 33.53 162.68 33.44 165.19 28.09 162.83 25.24 161.4 25.38 161.54 25.53 161.69 25.68 161.82 27.86 163.85 30.05 165.58 32.67 166.92 34.85 168.04 36.69 169.15 38.66 170.61 40.4 171.9 41.91 173.63 43.79 174.74 44.95 175.43 46.35 176.06 47.7 176.06 47.62 177.06 47.56 177.89 47.52 178.43 47.52 178.44 47.52 178.46 47.52 178.47 47.52 178.55 47.51 178.62 47.51 178.68 47.51 178.7 47.51 178.72 47.51 178.73 47.51 178.81 47.5 178.87 47.5 178.92 47.4 180.77 44.68 193.62 48.35 195.58 52.01 197.54 58.85 198.19 60.56 195.14 60.59 195.09 60.62 195.02 60.65 194.95 62.3 191.1 63.44 162.64 62.86 155.43Z" fill="#2C82C7" opacity="0.3"/></g></g><g><g><path d="M67.5 59.07C67.11 58.72 58.12 54.04 50.27 53.32 42.42 52.6 35.6 55.3 30.48 58.17 28.17 74.04 27.28 74.01 28.6 92.12 29.62 106.13 29.45 109 29.45 109 29.45 109 28.47 110.65 29.15 111.91 29.83 113.17 35.97 117.56 45.7 117.56 56.53 117.56 63.49 113.57 63.49 113.57 63.66 112.4 63.49 111.78 62.81 110.25 62.47 109.17 65.62 84.03 65.62 84.03 65.62 84.03 71.08 62.3 67.5 59.07Z" fill="#5E5E5C"/><path d="M50.19 53C58.04 53.72 67.03 58.4 67.42 58.75 67.91 59.19 68.23 59.99 68.42 61.02 67.68 61.33 66.92 61.35 66.23 60.9L56 55.87C56 55.87 51.56 59.85 46.79 58.92 41.72 57.93 41.72 54.97 41.72 54.97L30.32 58.57C30.38 58.1 30.42 57.84 30.42 57.84 35.52 54.98 42.34 52.28 50.19 53Z" fill="#5E5E5C"/><g opacity="0.4"><g><path d="M47.12 60.9C47.11 61 48.26 61.18 49.42 61.09 50.59 61.02 51.72 60.67 51.72 60.67 51.72 60.67 52 60.56 52.4 60.37 52.8 60.17 53.32 59.88 53.8 59.51 54.27 59.13 54.7 58.71 54.96 58.33 55.22 57.96 55.35 57.68 55.31 57.66 55.26 57.62 55.07 57.84 54.75 58.13 54.44 58.43 53.99 58.77 53.52 59.06 52.56 59.64 51.5 59.94 51.5 59.94 51.5 59.94 50.47 60.34 49.36 60.55 48.26 60.78 47.13 60.8 47.12 60.9Z" fill="#5E5E5C"/></g><g><path d="M40.3 58.03C40.23 58.09 40.86 58.97 41.65 59.72 42.44 60.45 43.37 61.02 43.37 61.02 43.37 61.02 43.62 61.13 43.99 61.28 44.17 61.36 44.39 61.45 44.63 61.51 44.87 61.58 45.12 61.66 45.38 61.72 46.42 61.94 47.47 61.9 47.47 61.81 47.47 61.69 46.46 61.54 45.51 61.2 45.27 61.11 45.05 61 44.83 60.92 44.61 60.84 44.41 60.74 44.25 60.64 43.92 60.46 43.7 60.34 43.7 60.34 43.7 60.34 42.8 59.89 41.96 59.3 41.13 58.68 40.38 57.95 40.3 58.03Z" fill="#5E5E5C"/></g><g><path d="M41.83 112.45C41.82 112.49 42.38 112.71 43.27 112.93 44.15 113.15 45.36 113.3 46.57 113.33 47.78 113.34 48.99 113.24 49.89 113.11 50.79 112.98 51.38 112.86 51.38 112.86 51.38 112.86 51.53 112.82 51.78 112.76 52.03 112.69 52.41 112.61 52.84 112.48 53.71 112.24 54.86 111.86 55.99 111.45 57.12 111.03 58.24 110.59 59.07 110.24 59.9 109.89 60.45 109.64 60.43 109.59 60.4 109.49 58.12 110.24 55.83 110.94 54.69 111.28 53.54 111.6 52.67 111.81 52.24 111.92 51.88 111.99 51.62 112.04 51.37 112.1 51.22 112.13 51.22 112.13 51.22 112.13 50.64 112.27 49.77 112.43 48.9 112.6 47.73 112.75 46.55 112.81 45.37 112.84 44.19 112.78 43.3 112.65 42.43 112.51 41.85 112.39 41.83 112.45Z" fill="#5E5E5C"/></g><g><path d="M33.3 108.5C33.28 108.55 33.59 108.76 34.09 109.07 34.58 109.4 35.29 109.71 36 110.02 36.36 110.17 36.73 110.27 37.08 110.39 37.25 110.45 37.42 110.5 37.58 110.55 37.74 110.59 37.9 110.62 38.04 110.65 38.61 110.77 38.99 110.85 38.99 110.85 38.99 110.85 40.52 111.01 42.04 111 43.56 110.99 45.07 110.94 45.07 110.84 45.07 110.73 43.56 110.59 42.06 110.46 40.56 110.33 39.09 110.1 39.09 110.1 39.09 110.1 38.72 110.04 38.17 109.96 38.03 109.94 37.88 109.92 37.72 109.89 37.56 109.85 37.4 109.82 37.23 109.77 36.89 109.68 36.52 109.62 36.16 109.51 35.45 109.27 34.73 109.05 34.21 108.8 33.69 108.58 33.33 108.45 33.3 108.5Z" fill="#5E5E5C"/></g><g><path d="M62.64 98.08C62.76 98.07 62.78 96.81 63.08 95.61 63.15 95.31 63.26 95.01 63.33 94.74 63.41 94.46 63.49 94.21 63.58 93.99 63.74 93.56 63.85 93.26 63.85 93.26 63.85 93.26 64.25 92.07 64.65 90.88 65.05 89.67 65.28 88.4 65.19 88.38 65.09 88.35 64.69 89.54 64.18 90.68 63.67 91.82 63.18 92.99 63.18 92.99 63.18 92.99 63.09 93.3 62.95 93.76 62.88 93.99 62.81 94.26 62.75 94.56 62.69 94.86 62.61 95.17 62.57 95.49 62.4 96.8 62.57 98.09 62.64 98.08Z" fill="#5E5E5C"/></g></g><g><path d="M29.04 112.09C28.51 111.11 29.01 109.59 29.26 108.97 44.73 119.64 58.9 112.69 62.89 110.3 63.47 111.61 63.82 112.46 63.67 113.53 63.67 113.53 56.76 118.02 45.93 118.02 36.2 118.02 29.72 113.35 29.04 112.09Z" fill="#5E5E5C"/><path d="M63.63 113.55C63.62 113.55 63.61 113.56 63.6 113.57 63.59 113.57 63.59 113.58 63.58 113.58 63.56 113.59 63.53 113.61 63.5 113.63 63.49 113.63 63.48 113.64 63.47 113.65 63.44 113.67 63.41 113.68 63.38 113.7 63.36 113.71 63.34 113.72 63.32 113.73 63.31 113.74 63.29 113.75 63.28 113.75 63.26 113.76 63.25 113.77 63.23 113.78 63.2 113.8 63.17 113.81 63.14 113.83 63.1 113.85 63.06 113.88 63.01 113.9 62.98 113.92 62.95 113.93 62.92 113.95 62.91 113.96 62.89 113.97 62.88 113.97 62.78 114.03 62.66 114.09 62.54 114.15 62.51 114.17 62.48 114.18 62.44 114.2 62.4 114.22 62.36 114.24 62.32 114.26 62.26 114.29 62.19 114.33 62.13 114.36 62.08 114.39 62.02 114.41 61.96 114.44 61.93 114.45 61.91 114.46 61.88 114.48 61.86 114.49 61.84 114.5 61.82 114.51 61.75 114.54 61.67 114.58 61.59 114.62 61.55 114.64 61.51 114.66 61.46 114.68 61.38 114.72 61.3 114.76 61.21 114.8 61.2 114.8 61.19 114.81 61.18 114.81 61.14 114.83 61.1 114.84 61.07 114.86 60.98 114.9 60.9 114.94 60.81 114.98 60.81 114.98 60.8 114.98 60.8 114.98 60.76 115 60.73 115.01 60.69 115.03 60.52 115.1 60.35 115.18 60.17 115.25 60.16 115.26 60.14 115.26 60.12 115.27 59.93 115.35 59.74 115.43 59.54 115.5 59.52 115.51 59.5 115.52 59.47 115.53 59.35 115.58 59.22 115.62 59.1 115.67 59.09 115.67 59.08 115.68 59.07 115.68 59.03 115.69 58.99 115.71 58.96 115.72 58.85 115.76 58.74 115.8 58.63 115.84 58.56 115.86 58.5 115.89 58.43 115.91 58.31 115.95 58.19 115.99 58.06 116.04 57.99 116.06 57.92 116.09 57.85 116.11 57.73 116.15 57.61 116.19 57.48 116.23 57.42 116.25 57.35 116.27 57.28 116.29 57.14 116.33 57 116.38 56.86 116.42 56.84 116.42 56.82 116.43 56.8 116.44 56.78 116.44 56.77 116.45 56.75 116.45 56.49 116.53 56.22 116.6 55.95 116.68 55.94 116.68 55.92 116.69 55.91 116.69 55.64 116.76 55.37 116.83 55.09 116.9 55.04 116.91 54.99 116.93 54.93 116.94 54.78 116.98 54.63 117.01 54.47 117.05 54.41 117.06 54.35 117.08 54.29 117.09 54.27 117.09 54.25 117.1 54.23 117.1 54.07 117.14 53.91 117.17 53.75 117.2 53.67 117.22 53.58 117.24 53.5 117.25 53.34 117.28 53.18 117.31 53.02 117.34 53 117.34 52.98 117.35 52.95 117.35 52.88 117.36 52.81 117.38 52.74 117.39 52.57 117.42 52.4 117.45 52.24 117.48 52.16 117.49 52.07 117.51 51.98 117.52 51.8 117.55 51.62 117.57 51.44 117.6 51.37 117.61 51.3 117.62 51.24 117.63 50.79 117.69 50.33 117.75 49.86 117.8 54.47 116.44 56.51 114.58 52.43 115.17 45.01 116.25 39.64 115.3 34.26 113.28 31.64 112.3 29.97 110.96 28.94 109.85 29.11 109.17 29.36 108.66 29.36 108.66 29.36 108.66 29.36 108.63 29.36 108.58 29.36 108.57 29.36 108.56 29.36 108.55 29.36 108.53 29.36 108.51 29.36 108.48 29.36 108.47 29.36 108.47 29.36 108.46 29.36 108.46 29.36 108.45 29.36 108.45 29.36 108.36 29.36 108.24 29.36 108.09 29.36 108.08 29.36 108.08 29.36 108.07 29.36 108.06 29.36 108.06 29.36 108.05 29.36 108 29.36 107.95 29.36 107.9 29.36 107.89 29.36 107.88 29.36 107.87 29.36 107.81 29.36 107.74 29.36 107.67 29.36 107.66 29.36 107.65 29.36 107.64 29.35 106.67 29.31 104.89 29.15 101.83 29.15 101.77 29.14 101.71 29.14 101.65 29.13 101.46 29.12 101.27 29.11 101.08 29.1 100.92 29.09 100.76 29.08 100.59 29.07 100.49 29.07 100.39 29.06 100.29 29.06 100.25 29.05 100.2 29.05 100.16 32.44 108.95 38.81 111.85 48.71 109.66 53.5 108.6 56.05 103.26 57.55 98.86 58.48 96.13 58.4 93.61 58.78 90.84 59.23 87.55 59.69 84.26 60.13 80.97 60.91 75.14 61.24 69.21 61.38 63.34 61.43 61.11 61.78 58.14 60.04 56.64 58.67 55.46 56.88 55.01 55.43 53.96 61.56 55.57 67.08 58.46 67.39 58.74 68.45 59.7 68.72 62.28 68.57 65.43L68.57 65.43C68.24 72.45 65.85 82.33 65.55 83.57 65.55 83.58 65.55 83.59 65.54 83.6 65.54 83.62 65.53 83.64 65.53 83.65 65.52 83.68 65.52 83.7 65.52 83.7 65.52 83.7 62.36 108.85 62.71 109.92 63.39 111.45 63.82 112.34 63.65 113.51 63.67 113.53 63.65 113.54 63.63 113.55 63.63 113.55 63.63 113.55 63.63 113.55Z" fill="#5E5E5C" opacity="0.4"/></g></g><g opacity="0.4"><path d="M51.1 62.75C51.04 62.5 50.61 62.39 50.14 62.52 49.67 62.64 49.34 62.95 49.41 63.21 49.47 63.46 49.9 63.57 50.37 63.44 50.83 63.31 51.16 63.01 51.1 62.75Z" fill="#5E5E5C"/><path d="M54.55 61.34C54.4 60.96 53.71 60.89 52.99 61.19 52.28 61.49 51.82 62.05 51.97 62.43 52.11 62.81 52.81 62.88 53.52 62.58 54.24 62.28 54.7 61.73 54.55 61.34Z" fill="#5E5E5C"/></g><g opacity="0.4"><path d="M29.49 82.38C29.74 82.38 29.95 81.98 29.96 81.47 29.97 80.96 29.78 80.55 29.53 80.54 29.28 80.54 29.07 80.94 29.06 81.45 29.04 81.96 29.24 82.37 29.49 82.38Z" fill="#5E5E5C"/><path d="M29.85 86.26C30.24 86.21 30.49 85.52 30.4 84.72 30.32 83.92 29.93 83.3 29.54 83.35 29.15 83.39 28.9 84.08 28.99 84.89 29.07 85.69 29.46 86.3 29.85 86.26Z" fill="#5E5E5C"/></g><path d="M50.19 53C51.17 53.09 52.17 53.24 53.16 53.44 53.16 53.44 53.17 53.45 53.17 53.45 53.17 53.45 55.13 54.71 54.36 55.61 53.59 56.51 50.27 58.39 46.6 57.32 42.93 56.24 43.02 54.18 43.87 53.28 43.93 53.22 44.02 53.16 44.14 53.11 46.08 52.86 48.1 52.81 50.19 53Z" fill="#5E5E5C" opacity="0.4"/></g><g><g><g><path d="M54.13 46.67 53.49 54.95C53.49 54.95 49.03 59.03 44.45 54.82L44.07 48.07 54.13 46.67Z" fill="#F9B799"/><path d="M53.49 54.94C53.49 54.94 49.03 59.02 44.45 54.81L44.43 54.42C51.41 58.07 52.77 49.47 51.58 49.59 50.62 49.69 46.26 49.85 44.17 49.93L44.07 48.06 54.13 46.66 53.49 54.94Z" fill="#FFBDC0" opacity="0.5"/></g></g></g><g><path d="M66.47 58.81C65.76 58.75 65.3 59.51 64.48 60.06 61.93 61.81 60.71 66.3 60.43 69.23 59.65 77.4 59.02 85.91 59.12 89.59 59.22 93.27 48.17 91.39 45.73 91.18 43.29 90.97 34.22 87.46 31.71 91.25 29.2 95.05 30.75 100.26 32.99 102.8 35.23 105.35 57.94 112.12 66.51 106.26 71.51 102.84 73.44 94.94 74.44 89.29 75.83 81.42 75.77 72.46 72.19 65.17 71.11 62.96 68.95 59.03 66.47 58.81Z" fill="#5E5E5C"/><g><g><path d="M64.64 93.86C64.59 93.89 64.45 93.65 64.2 93.36 63.95 93.06 63.54 92.75 63.09 92.51 62.64 92.28 62.14 92.14 61.77 92.05 61.39 91.98 61.14 91.93 61.14 91.93 61.14 91.93 60.13 91.72 59.08 91.65 58.03 91.57 56.97 91.55 56.97 91.46 56.97 91.38 58.02 91.24 59.09 91.21 60.16 91.17 61.24 91.32 61.24 91.32 61.24 91.32 61.51 91.38 61.91 91.49 62.3 91.62 62.83 91.81 63.3 92.12 63.77 92.43 64.18 92.83 64.38 93.2 64.6 93.58 64.67 93.85 64.64 93.86Z" fill="#5E5E5C"/></g><g><path d="M63.46 91.34C63.44 91.42 62.72 91.27 62.01 91.13 61.3 90.99 60.6 90.93 60.6 90.93 60.6 90.93 59.91 90.8 59.22 90.82 58.53 90.86 57.89 91.19 57.83 91.11 57.78 91.05 58.39 90.55 59.15 90.38 59.91 90.23 60.67 90.3 60.67 90.3 60.67 90.3 61.41 90.44 62.11 90.7 62.81 90.96 63.48 91.25 63.46 91.34Z" fill="#5E5E5C"/></g></g><path d="M66.47 58.81C66.15 58.78 65.88 58.92 65.61 59.13 66.31 60.08 67.13 61.1 67.98 62.01 70.5 64.69 70.09 80.25 66.48 86.5 64.21 90.43 61.13 88.33 59.17 86.23 59.12 87.57 59.1 88.72 59.13 89.59 59.15 90.46 58.56 91.01 57.6 91.36 59.89 92.13 63.69 93.63 64.41 95.34 65.46 97.82 67.05 102.03 50.84 99.61 39.92 97.98 38.62 92.9 38.93 89.74 35.99 89.28 33 89.32 31.72 91.25 29.21 95.05 30.76 100.26 33 102.8 35.24 105.35 57.95 112.12 66.52 106.26 71.52 102.84 73.45 94.94 74.45 89.29 75.84 81.42 75.78 72.46 72.2 65.17 71.11 62.96 68.95 59.03 66.47 58.81Z" fill="#5E5E5C" opacity="0.4"/><g opacity="0.4"><path d="M62.68 69.27C62.94 69.33 63.04 69.77 62.92 70.25 62.8 70.73 62.49 71.07 62.24 71 61.99 70.94 61.88 70.5 62 70.02 62.12 69.55 62.42 69.21 62.68 69.27Z" fill="#5E5E5C"/><path d="M64.06 65.73C64.44 65.88 64.52 66.59 64.22 67.32 63.93 68.05 63.37 68.52 62.99 68.37 62.61 68.22 62.54 67.51 62.83 66.78 63.13 66.06 63.68 65.58 64.06 65.73Z" fill="#5E5E5C"/></g></g><g><g><path d="M31.4 57.85C31.8 56.17 21.2 71.78 19.25 77.4 17.29 83.02 11.43 90.84 12.16 95.73 12.89 100.62 23.4 104.04 29.76 104.53 36.11 105.02 45.89 103.8 45.89 103.8 45.89 103.8 40.76 94.35 50.29 90.19 50.29 90.19 44.18 89.62 38.56 89.86 32.94 90.11 30.23 89.39 29.52 89.25 28.29 89.01 29.11 67.54 31.4 57.85Z" fill="#5E5E5C"/><g><g><g><path d="M27.68 88.89C27.63 88.92 27.41 88.63 27 88.29 26.61 87.93 25.99 87.56 25.35 87.25 24.06 86.64 22.64 86.38 22.64 86.38 22.64 86.38 21.25 86.02 19.81 85.93 18.37 85.8 16.94 86.03 16.92 85.95 16.89 85.87 18.34 85.47 19.82 85.49 21.3 85.47 22.77 85.78 22.77 85.78 22.77 85.78 24.24 86.11 25.54 86.86 26.19 87.24 26.79 87.68 27.16 88.12 27.54 88.53 27.71 88.88 27.68 88.89Z" fill="#5E5E5C"/></g><g><path d="M27.19 88.03C27.14 88.05 27.01 87.8 26.74 87.49 26.48 87.16 26.06 86.8 25.61 86.49 24.71 85.85 23.67 85.42 23.67 85.42 23.67 85.42 22.68 84.9 21.63 84.51 20.58 84.1 19.48 83.84 19.5 83.76 19.51 83.67 20.66 83.79 21.77 84.1 22.88 84.39 23.94 84.87 23.94 84.87 23.94 84.87 24.99 85.38 25.88 86.15 26.32 86.53 26.72 86.97 26.94 87.36 27.17 87.73 27.22 88.03 27.19 88.03Z" fill="#5E5E5C"/></g><g><path d="M42.47 100.5C42.44 100.51 42.27 100.23 42.12 99.76 41.96 99.29 41.89 98.62 41.93 97.95 41.98 97.28 42.15 96.63 42.31 96.16 42.48 95.69 42.62 95.39 42.62 95.39 42.62 95.39 43.24 94.2 44.13 93.23 45 92.24 46.1 91.51 46.14 91.58 46.19 91.65 45.21 92.48 44.46 93.51 43.68 94.52 43.17 95.66 43.17 95.66 43.17 95.66 43.03 95.94 42.84 96.37 42.66 96.8 42.46 97.39 42.36 98.01 42.27 98.62 42.27 99.25 42.35 99.72 42.42 100.17 42.52 100.48 42.47 100.5Z" fill="#5E5E5C"/></g><g><path d="M41.49 99.4C41.41 99.41 41.16 98.3 41.12 97.15 41.05 96 41.23 94.85 41.23 94.85 41.23 94.85 41.44 93.69 42.04 92.67 42.34 92.17 42.71 91.7 43.07 91.44 43.41 91.17 43.68 91.06 43.7 91.08 43.73 91.12 43.51 91.3 43.24 91.61 42.95 91.91 42.67 92.38 42.43 92.86 41.98 93.85 41.84 94.95 41.84 94.95 41.84 94.95 41.61 96.02 41.56 97.14 41.49 98.27 41.58 99.39 41.49 99.4Z" fill="#5E5E5C"/></g><g><path d="M33.83 104.37C33.83 104.38 33.7 104.4 33.46 104.44 33.22 104.47 32.86 104.51 32.4 104.53 31.48 104.58 30.17 104.58 28.61 104.45 25.49 104.18 21.29 103.49 17.45 101.7 15.56 100.8 13.72 99.56 12.63 97.81 12.09 96.94 11.85 95.95 11.75 95.03 11.74 94.56 11.68 94.1 11.77 93.67 11.83 93.24 11.87 92.81 12 92.43 12.41 90.87 13.03 89.69 13.43 88.87 13.84 88.05 14.08 87.59 14.08 87.59 14.08 87.59 14.33 87.13 14.69 86.3 15.07 85.47 15.6 84.29 16.2 82.84 16.5 82.12 16.84 81.34 17.21 80.52 17.39 80.11 17.58 79.69 17.78 79.26 18 78.84 18.22 78.41 18.45 77.97 19.35 76.21 20.39 74.42 21.37 72.57 23.33 68.88 25.45 65.25 27.36 62.75 28.35 61.53 29.17 60.51 29.86 59.89 30.19 59.57 30.44 59.32 30.62 59.14 30.8 58.97 30.89 58.88 30.9 58.89 30.91 58.9 30.82 59 30.66 59.18 30.49 59.36 30.25 59.63 29.95 59.97 29.3 60.61 28.51 61.65 27.56 62.88 25.71 65.41 23.67 69.04 21.76 72.76 20.82 74.62 19.77 76.45 18.91 78.19 18.69 78.62 18.47 79.05 18.26 79.47 18.07 79.9 17.89 80.32 17.71 80.73 17.35 81.55 17.02 82.32 16.73 83.05 16.15 84.5 15.62 85.7 15.25 86.55 14.89 87.4 14.64 87.86 14.64 87.86 14.64 87.86 14.4 88.32 13.98 89.14 13.57 89.95 12.96 91.1 12.56 92.57 12.43 92.93 12.39 93.32 12.33 93.73 12.24 94.13 12.29 94.55 12.3 94.98 12.38 95.83 12.59 96.74 13.08 97.54 14.06 99.17 15.81 100.39 17.65 101.3 21.39 103.11 25.55 103.86 28.64 104.2 30.19 104.36 31.5 104.4 32.41 104.39 32.87 104.39 33.22 104.37 33.47 104.36 33.7 104.36 33.83 104.36 33.83 104.37Z" fill="#5E5E5C"/></g></g><g><path d="M50.29 90.19C50.29 90.19 44.75 89.67 39.37 89.83 41.2 90.28 42.43 90.72 42.59 91.08 43.32 92.79 40.63 96.7 40.51 99.51 40.4 102.15 14.04 102.2 12.29 93.12 12.11 94.05 12.04 94.93 12.16 95.72 12.89 100.61 23.4 104.03 29.76 104.52 36.11 105.01 45.89 103.79 45.89 103.79 45.89 103.79 40.76 94.35 50.29 90.19Z" fill="#5E5E5C" opacity="0.4"/><path d="M24.75 83.39C21.82 85.22 17.66 86.2 17.66 86.2 17.66 86.2 23.23 86.93 29.11 87.88 28.56 82.98 29.44 66.12 31.4 57.85 31.66 56.75 27.19 63.08 23.54 69.16 25.13 69.27 26.77 69.98 27.07 72.39 27.68 77.28 27.68 81.56 24.75 83.39Z" fill="#5E5E5C" opacity="0.4"/></g></g><g opacity="0.4"><path d="M18.05 96.11C18.13 95.86 18.56 95.78 19.02 95.93 19.48 96.08 19.79 96.41 19.71 96.66 19.63 96.91 19.2 96.99 18.74 96.84 18.29 96.69 17.98 96.36 18.05 96.11Z" fill="#5E5E5C"/><path d="M14.69 94.5C14.86 94.13 15.56 94.1 16.25 94.45 16.94 94.79 17.37 95.37 17.2 95.75 17.03 96.12 16.33 96.15 15.64 95.81 14.95 95.46 14.53 94.88 14.69 94.5Z" fill="#5E5E5C"/></g></g><path d="M45.08 103.64C45.08 103.64 52.41 96.72 49.48 90.03 49.48 90.03 45.65 90.68 43.94 95.41 42.23 100.14 44.02 103.15 45.08 103.64Z" fill="#5E5E5C"/></g></g></g><g><path d="M49.84 90.53C50.52 90.16 51.2 89.84 51.86 89.6 54 88.83 56.37 88.83 58.35 90 60.81 91.45 62.65 94.87 62.09 97.64 61.41 101.03 56.9 100.3 54.82 98.46 53.76 97.52 53.25 96.95 51.77 97.34 50.51 97.67 49.62 98.59 48.45 99.09 47.12 99.66 44.53 99.31 43.93 97.87 43.47 96.77 44.42 95.64 44.93 94.7 45.28 94.04 45.66 93.59 46.22 93.09 47.22 92.19 48.52 91.26 49.84 90.53Z" fill="#F9B799"/><g><path d="M55.75 99.51C55.75 99.45 56.07 99.51 56.48 99.43 56.68 99.37 56.88 99.27 56.99 99.08 57.1 98.89 57.13 98.63 57.1 98.37 57.05 97.84 56.85 97.32 56.68 96.94 56.52 96.56 56.34 96.35 56.34 96.35 56.34 96.35 56.21 96.11 55.96 95.78 55.72 95.44 55.34 95.03 54.9 94.68 54.46 94.32 53.93 94.11 53.52 93.99 53.1 93.9 52.8 93.87 52.8 93.82 52.8 93.79 53.1 93.74 53.57 93.76 54.03 93.82 54.65 93.99 55.17 94.34 56.23 95 56.88 96.05 56.88 96.05 56.88 96.05 57.06 96.31 57.21 96.73 57.36 97.15 57.54 97.72 57.54 98.34 57.54 98.64 57.49 98.98 57.29 99.24 57.09 99.51 56.77 99.61 56.53 99.64 56.02 99.67 55.74 99.53 55.75 99.51Z" fill="#E27975"/></g><g><path d="M59.74 99.48C59.71 99.43 60.03 99.28 60.19 98.86 60.35 98.44 60.32 97.83 60.17 97.23 60.02 96.64 59.78 96.05 59.58 95.64 59.35 95.25 59.17 95.01 59.17 95.01 59.17 95.01 58.99 94.76 58.7 94.4 58.39 94.05 57.96 93.59 57.45 93.21 56.96 92.8 56.39 92.5 55.96 92.28 55.52 92.09 55.2 91.98 55.22 91.93 55.23 91.9 55.56 91.93 56.05 92.07 56.53 92.23 57.16 92.5 57.71 92.88 58.28 93.24 58.77 93.7 59.13 94.05 59.47 94.42 59.68 94.68 59.68 94.68 59.68 94.68 59.87 94.97 60.1 95.42 60.29 95.88 60.5 96.5 60.6 97.15 60.71 97.79 60.68 98.49 60.41 98.95 60.14 99.42 59.74 99.5 59.74 99.48Z" fill="#E27975"/></g><g><path d="M61.47 94.66C61.39 94.7 60.92 93.93 60.39 93.23 59.86 92.51 59.24 91.9 59.24 91.9 59.24 91.9 58.68 91.22 57.94 90.76 57.2 90.27 56.28 90.18 56.28 90.1 56.27 90.02 57.27 89.95 58.16 90.4 59.04 90.82 59.7 91.51 59.7 91.51 59.7 91.51 60.32 92.22 60.76 93.01 61.21 93.79 61.54 94.63 61.47 94.66Z" fill="#E27975"/></g><path d="M48.46 99.09C49.63 98.59 50.52 97.67 51.78 97.34 53.26 96.95 53.77 97.52 54.83 98.46 56.91 100.3 61.42 101.04 62.1 97.64 62.18 97.23 62.2 96.81 62.18 96.38 62.14 96.47 62.1 96.56 62.06 96.65 60.5 99.91 59.18 97.85 56.51 94.96 53.84 92.07 50.75 95.64 46.89 95.01 45.71 94.82 45.51 94.22 45.8 93.5 45.46 93.86 45.19 94.22 44.94 94.7 44.43 95.64 43.48 96.77 43.94 97.87 44.53 99.31 47.13 99.66 48.46 99.09Z" fill="#FFBDC0" opacity="0.5"/></g><g><g><path d="M34.88 90.03C34.88 90.03 32.05 85.4 27.16 84.57 22.27 83.74 18 86.2 18.5 88.52 19 90.84 23.76 88.86 23.76 88.86 23.76 88.86 19.13 91.94 21.7 91.8 24.27 91.67 28.41 89.45 28.41 89.45 28.41 89.45 32.31 90.65 34.88 90.03Z" fill="#F9B799"/><g><g><path d="M24.6 88.77C24.63 88.85 22.7 89.55 20.63 89.63 20.11 89.65 19.58 89.62 19.08 89.48 18.59 89.35 18.08 88.98 17.97 88.48 17.86 88.01 17.97 87.65 18.04 87.42 18.13 87.19 18.17 87.07 18.17 87.07 18.17 87.07 18.23 86.95 18.34 86.75 18.46 86.55 18.64 86.25 18.92 85.96 19.48 85.36 20.43 84.82 21.43 84.55 22.43 84.26 23.47 84.19 24.23 84.24 25 84.28 25.49 84.44 25.48 84.47 25.47 84.52 24.97 84.45 24.22 84.48 23.48 84.5 22.48 84.64 21.55 84.97 20.62 85.28 19.79 85.82 19.33 86.35 19.1 86.61 18.96 86.87 18.86 87.05 18.77 87.24 18.72 87.34 18.72 87.34 18.75 87.33 18.42 87.79 18.51 88.36 18.56 88.63 18.82 88.87 19.23 89.02 19.64 89.16 20.13 89.22 20.62 89.22 21.61 89.24 22.61 89.11 23.35 88.99 24.1 88.85 24.59 88.72 24.6 88.77Z" fill="#E27975"/></g><g><path d="M28.68 89.01C28.73 89.06 27.43 90.15 25.89 90.87 25.11 91.2 24.33 91.54 23.71 91.69 23.4 91.78 23.15 91.86 22.97 91.91 22.78 91.95 22.66 91.97 22.66 91.97 22.66 91.94 22.22 92.1 21.49 91.83 21.32 91.75 21.09 91.61 20.99 91.33 20.89 91.05 20.98 90.78 21.08 90.59 21.29 90.18 21.62 89.88 21.96 89.6 22.67 89.07 23.48 88.79 24.08 88.6 24.68 88.42 25.09 88.32 25.1 88.36 25.12 88.4 24.73 88.57 24.16 88.82 23.59 89.07 22.83 89.42 22.23 89.94 21.94 90.2 21.66 90.5 21.54 90.8 21.41 91.12 21.5 91.22 21.71 91.31 22.17 91.46 22.6 91.34 22.59 91.36 22.59 91.36 22.68 91.35 22.85 91.32 23.02 91.28 23.27 91.22 23.57 91.14 24.18 91.03 24.94 90.74 25.72 90.47 27.25 89.88 28.61 88.93 28.68 89.01Z" fill="#E27975"/></g><g><path d="M27.29 86.08C27.28 86.17 26.07 86.04 24.87 86.15 23.67 86.24 22.55 86.59 22.55 86.59 22.55 86.59 22.26 86.66 21.85 86.8 21.43 86.93 20.89 87.17 20.38 87.47 19.35 88.07 18.64 89.06 18.57 89.02 18.54 89 18.66 88.72 18.93 88.33 19.2 87.95 19.64 87.49 20.14 87.11 20.65 86.75 21.21 86.45 21.65 86.27 22.09 86.09 22.39 86 22.39 86 22.39 86 23.62 85.69 24.86 85.72 26.11 85.71 27.31 86 27.29 86.08Z" fill="#E27975"/></g></g></g><g><path d="M23.75 88.86C23.75 88.86 23.64 88.93 23.48 89.05 24.51 88.43 25.99 87.79 25.99 87.79 25.99 87.79 24.69 87.79 21.59 87.38 20.5 87.24 19.96 86.69 19.71 86.04 18.78 86.77 18.3 87.65 18.49 88.52 18.99 90.84 23.75 88.86 23.75 88.86Z" fill="#FFBDC0" opacity="0.5"/><path d="M33.24 88.68C32.18 90.55 28.68 87.54 28.68 87.54 28.68 87.54 24.69 90.39 22.89 90.15 22.43 90.09 22.41 89.9 22.64 89.65 21.46 90.55 19.97 91.89 21.68 91.8 24.25 91.67 28.39 89.45 28.39 89.45 28.39 89.45 32.31 90.65 34.87 90.03 34.87 90.03 34.36 89.21 33.42 88.19 33.38 88.37 33.32 88.53 33.24 88.68Z" fill="#FFBDC0" opacity="0.5"/></g></g><path d="M26.61 33.69C26.15 35.15 25.85 36.64 25.8 38.19 25.67 42.56 27.82 46.96 31.31 49.29 33.5 50.76 36.09 51.41 38.63 51.91 45.06 53.17 51.81 53.61 58.22 51.93 63.02 50.68 69.17 46.86 70.63 41.46 71.63 37.75 70.38 33.82 69.14 30.18 66.97 23.83 64.53 17.07 59.33 13.18 54.27 9.38 47.88 9 42.3 11.72 35.71 14.93 32.83 20.71 29.51 27.12 28.42 29.24 27.33 31.41 26.61 33.69Z" fill="#F9B799"/><g><path d="M58.1 36.13C58.13 36.37 58.57 36.51 59.07 36.43 59.57 36.35 59.95 36.09 59.91 35.85 59.88 35.61 59.44 35.47 58.94 35.55 58.44 35.63 58.07 35.89 58.1 36.13Z" fill="#F4C7BD"/><path d="M54.92 36.93C54.95 37.17 55.39 37.31 55.89 37.23 56.39 37.15 56.77 36.89 56.73 36.65 56.69 36.41 56.26 36.27 55.76 36.35 55.26 36.43 54.88 36.68 54.92 36.93Z" fill="#F4C7BD"/><path d="M57.01 38.01C57.04 38.25 57.48 38.39 57.98 38.31 58.48 38.23 58.86 37.97 58.82 37.73 58.79 37.49 58.35 37.35 57.85 37.43 57.35 37.51 56.97 37.77 57.01 38.01Z" fill="#F4C7BD"/></g><g><path d="M55.13 28.94C53.66 27.79 51.49 28.11 50.05 29.3 48.55 30.54 47.76 32.5 47.2 34.43 47.17 34.54 47.13 34.67 47.18 34.78 47.23 34.91 47.37 34.98 47.5 35.02 49.76 35.83 52.21 36.04 54.56 35.63 56.28 35.33 57.15 34.49 57.38 33.47 57.7 32.03 56.76 30.21 55.13 28.94Z" fill="#FFFFFF"/><g><path d="M50.27 33.42C49.28 32.25 49.36 30.45 50.46 29.4 51.56 28.34 53.26 28.43 54.25 29.6 55.24 30.77 55.16 32.57 54.06 33.62 52.97 34.68 51.27 34.59 50.27 33.42Z" fill="#8C7257"/><path d="M51.07 32.02C50.71 31.6 50.74 30.95 51.14 30.57 51.54 30.19 52.15 30.22 52.51 30.64 52.87 31.06 52.84 31.71 52.44 32.09 52.04 32.47 51.43 32.44 51.07 32.02Z" fill="#3A3129"/><path d="M53.32 30.63C53.51 30.59 53.71 30.55 53.9 30.57 54.19 30.6 54.32 30.73 54.4 31.01 54.42 31.09 54.44 31.17 54.45 31.25 54.5 31.6 54.34 32.18 54.07 32.41 53.91 32.54 53.68 32.45 53.51 32.34 53.1 32.09 52.15 31.64 51.92 31.18 51.75 30.83 51.99 30.9 52.34 30.83 52.68 30.76 53 30.7 53.32 30.63Z" fill="#FFFFFF" opacity="0.2"/><path d="M53.36 33.09C53.38 33.1 53.39 33.12 53.4 33.14 53.41 33.18 53.38 33.22 53.35 33.25 53.25 33.34 53.13 33.42 53 33.46 52.87 33.5 52.72 33.49 52.6 33.42 52.49 33.35 52.42 33.23 52.36 33.12 52.29 32.99 51.84 31.98 52.23 32.12 52.42 32.19 52.64 32.47 52.79 32.6 52.98 32.77 53.17 32.93 53.36 33.09Z" fill="#FFFFFF" opacity="0.2"/></g><g><path d="M57.32 33.45C57.23 32.74 56.98 32.15 56.59 31.65 56.23 31.13 55.78 30.69 55.32 30.3 55.08 30.11 54.83 29.93 54.58 29.76 54.35 29.62 54.15 29.52 53.91 29.46 53.45 29.32 52.93 29.29 52.42 29.4 51.36 29.56 50.43 30.18 49.6 31.12 48.78 32.06 48.05 33.24 47.27 34.46L47.15 34.43C47.53 33.09 48.01 31.75 48.8 30.57 49.57 29.4 50.78 28.43 52.21 28.19 52.92 28.07 53.66 28.12 54.33 28.38 55.01 28.64 55.55 29.14 56.03 29.65 56.96 30.67 57.74 32.06 57.45 33.5L57.32 33.45Z" fill="#5E5149"/></g></g><g><path d="M33.35 27.6C34.85 26.84 36.62 27.57 37.57 28.96 38.56 30.41 38.79 32.38 38.83 34.27 38.83 34.38 38.83 34.5 38.77 34.59 38.7 34.7 38.56 34.73 38.44 34.75 36.34 35.04 34.22 34.73 32.32 33.88 30.93 33.25 30.38 32.31 30.42 31.32 30.47 29.92 31.68 28.44 33.35 27.6Z" fill="#FFFFFF"/><g><path d="M30.37 31.31C30.45 29.99 31.35 28.88 32.36 28.12 32.88 27.75 33.44 27.38 34.09 27.26 34.74 27.13 35.42 27.24 36.01 27.51 37.22 28.06 38 29.25 38.37 30.47 38.76 31.7 38.85 33 38.87 34.27L38.77 34.27C38.41 33.01 38.08 31.78 37.62 30.71 37.14 29.64 36.49 28.8 35.59 28.42 35.16 28.21 34.7 28.13 34.26 28.19 34.03 28.21 33.84 28.26 33.58 28.38 33.32 28.5 33.07 28.62 32.82 28.76 32.33 29.05 31.85 29.39 31.45 29.81 31.01 30.21 30.69 30.71 30.47 31.32L30.37 31.31Z" fill="#5E5149"/></g><g><path d="M32.38 32.47C31.47 31.37 31.58 29.7 32.61 28.74 33.64 27.78 35.21 27.89 36.12 28.98 37.03 30.08 36.92 31.75 35.89 32.71 34.86 33.67 33.29 33.56 32.38 32.47Z" fill="#8C7257"/><path d="M33.14 31.18C32.81 30.78 32.85 30.18 33.22 29.84 33.59 29.49 34.16 29.53 34.49 29.93 34.82 30.33 34.78 30.93 34.41 31.27 34.03 31.61 33.47 31.57 33.14 31.18Z" fill="#3A3129"/><path d="M35.25 29.92C35.43 29.89 35.61 29.85 35.79 29.87 36.06 29.9 36.18 30.02 36.24 30.29 36.26 30.36 36.28 30.44 36.29 30.51 36.33 30.83 36.17 31.37 35.92 31.58 35.77 31.7 35.56 31.61 35.4 31.51 35.02 31.27 34.15 30.84 33.94 30.41 33.79 30.09 34.01 30.15 34.33 30.09 34.65 30.04 34.95 29.98 35.25 29.92Z" fill="#FFFFFF" opacity="0.2"/><path d="M35.25 32.21C35.27 32.22 35.28 32.24 35.29 32.26 35.3 32.3 35.27 32.34 35.24 32.36 35.14 32.44 35.03 32.52 34.91 32.55 34.79 32.58 34.65 32.58 34.54 32.51 34.44 32.45 34.37 32.33 34.32 32.22 34.26 32.09 33.86 31.16 34.21 31.29 34.38 31.36 34.58 31.62 34.73 31.74 34.9 31.9 35.08 32.05 35.25 32.21Z" fill="#FFFFFF" opacity="0.2"/></g></g><path d="M38.49 36.96C37.96 37.35 37.25 37.71 37.2 38.39 37.17 38.75 37.37 39.11 37.64 39.34 37.91 39.57 38.24 39.7 38.57 39.79 38.98 39.91 39.41 39.98 39.81 39.84 40.44 39.61 40.8 38.9 40.96 38.21 41.22 37.05 41.09 35.56 40.4 34.59 39.74 35.36 39.33 36.36 38.49 36.96Z" fill="url(#SVGID_1_)"/><path d="M39.82 39.85C39.42 39.99 38.98 39.92 38.58 39.8 38.25 39.7 37.91 39.58 37.65 39.35 37.38 39.12 37.19 38.77 37.21 38.4 37.51 38.76 38 39 38.41 39.19 38.86 39.41 39.36 39.63 39.82 39.85Z" opacity="0.07"/><path d="M49.85 26.26C51.73 27.74 53.84 28.89 56.07 29.67 59.07 30.71 62.1 31.51 62.35 35.52 62.45 37.05 61.91 38.61 60.91 39.72 62.09 38.4 63.18 36.73 63.32 34.91 63.46 33.09 62.77 31.16 61.35 30.14 60.21 29.32 58.78 29.16 57.43 28.92 54.73 28.43 52.32 27.51 49.85 26.26Z" opacity="0.15"/><path d="M37.16 17.18C37.16 17.7 34.48 19.99 34.06 20.55 33.16 21.75 32.22 23.08 31.64 24.49 30.49 27.26 29.31 30.22 28.96 33.27 28.71 29.23 28.37 24.96 29.91 21.25 30.2 20.56 30.56 19.87 31.13 19.41 31.65 18.99 32.29 18.8 32.92 18.62 34.29 18.23 35.79 17.58 37.16 17.18Z" opacity="0.15"/><g><path d="M68.26 30.4C69.01 29.5 70.08 28.87 71.21 28.81 72.34 28.74 73.52 29.3 74.13 30.31 74.6 31.09 74.71 32.04 74.75 32.96 74.85 35.09 74.58 37.43 73.15 38.92 71.72 40.4 69.56 40.65 67.56 40.74L68.26 30.4Z" fill="#F4B68C"/><path d="M70.1 34.69C70.1 35.82 70.65 36.73 71.32 36.73 71.99 36.73 72.54 35.82 72.54 34.69 72.54 33.56 71.99 32.65 71.32 32.65 70.64 32.65 70.1 33.57 70.1 34.69Z" fill="#F4C7BD"/></g><g><path d="M56.42 26.41C55.74 26.1 55.09 25.87 54.43 25.75 53.78 25.63 53.15 25.6 52.57 25.64 52.27 25.67 51.98 25.77 51.71 25.88 51.44 25.98 51.2 26.02 50.92 25.95 50.64 25.9 50.36 25.79 50.09 25.64 49.81 25.52 49.53 25.29 48.94 25.29L48.65 25.11C48.44 24.49 48.77 23.84 49.15 23.44 49.54 23 49.97 22.77 50.39 22.59 51.28 22.2 52.23 22.67 53.03 22.96 53.85 23.25 54.6 23.7 55.21 24.25 55.82 24.81 56.32 25.46 56.65 26.17L56.42 26.41Z" fill="#BC5D1D"/></g><path d="M46.5 9.33C46.32 8.2 47.48 7.25 48.56 7.27 49.64 7.29 50.59 7.96 51.48 8.61 52.97 9.7 54.47 10.79 55.96 11.89 55.95 10.53 55.79 9.16 55.47 7.84 58.62 7.57 61.45 9.75 63.94 11.81 63.86 10.02 62.8 8.39 61.42 7.35 60.04 6.31 58.38 5.78 56.72 5.43 54.15 4.89 51.5 4.74 48.89 4.98 48.03 5.06 47.15 4.97 46.64 5.76 45.98 6.78 46.33 8.24 46.5 9.33Z" fill="#FFFFFF" opacity="0.1"/><path d="M33.27 8.52C31.83 8.79 30.49 9.63 29.57 10.84 28.65 12.05 28.16 13.62 28.21 15.17 29.1 13.82 30.17 12.6 31.39 11.58 31.34 12.38 31.15 13.18 30.84 13.91 31.92 14.08 32.98 13.48 33.85 12.77 35.47 11.42 36.56 7.9 33.27 8.52Z" fill="#FFFFFF" opacity="0.1"/><g><path d="M39.36 46.67C41.4 46.79 43.47 46.56 45.4 45.9 47.35 45.3 49.15 44.27 50.74 42.97L50.85 43.1C50.47 44.24 49.74 45.15 48.87 45.88 48.01 46.61 47 47.18 45.92 47.52 44.84 47.87 43.7 48.01 42.57 47.92 41.44 47.84 40.32 47.53 39.34 46.84L39.36 46.67Z" fill="#E08D80"/></g><path d="M67.75 29.92C67.88 29.83 68.03 29.77 68.19 29.73 69.17 29.5 69.51 30.02 69.88 30.92 70.32 31.98 70.4 33.36 70.34 34.7 70.53 35.55 70.54 36.46 70.33 37.23 70.24 37.57 70.1 37.89 69.93 38.21 69.68 39.54 69.29 40.88 68.9 42.2 69.78 41.62 70.73 41.28 71.75 41.1 72.39 40.23 73.16 39.45 73.8 38.57 75.74 35.89 76.25 32.36 76.44 28.99 76.61 26.03 76.69 22.95 76.36 20 76.15 18.12 75.22 16.52 74.41 14.83 72.74 11.36 70.11 8.52 67.11 6.32 61.15 1.95 53.49-0.32 46.25 0.05 42.21 0.26 38.03 0.89 36.23 4.96 32.64 3.7 29 7.11 26.75 10.34 24.5 13.57 23.82 17.76 23.91 21.78 24 26.01 25.09 30.63 28.37 33.04 28.72 29.99 29.9 27.03 31.05 24.26 31.64 22.85 32.57 21.52 33.47 20.32 33.89 19.76 36.57 17.46 36.57 16.95 36.56 19.42 36.97 21.39 38.14 23.2 39.53 22.71 41.16 22.85 42.55 23.47 43.03 23.69 43.47 24 43.88 24.35 44.35 24.44 44.77 24.59 45.14 24.79 46.12 24.71 47.09 24.91 47.88 25.47 48.35 25.81 48.84 26.15 49.29 26.52 49.27 26.36 49.25 26.19 49.24 26.03 51.12 27.51 53.23 28.66 55.46 29.44 56 29.63 56.54 29.81 57.07 30 57.98 29.72 58.96 29.66 59.88 29.9 60.26 30 60.65 30.07 61.04 30.14 61.23 30.15 61.43 30.18 61.62 30.19 61.78 30.2 61.95 30.19 62.11 30.2 63.67 29.06 65.78 28.91 67.61 29.87 67.68 29.87 67.71 29.9 67.75 29.92Z" fill="#110802"/></svg>