<svg width="224.64" height="312.32" viewBox="0 0 224.64 312.32" xmlns="http://www.w3.org/2000/svg" xmlns:xlink="http://www.w3.org/1999/xlink" xml:space="preserve" overflow="hidden"><defs></defs><g><path d="M189.22 266.23 152.41 152.28C153.23 151.2 154.06 150.12 154.87 149.03 159 141.53 162.73 133.74 165.4 125.74 167.3 120.05 168.1 114.18 168.36 108.22 168.6 102.68 168.96 96.54 167.29 91.16 166.42 88.35 165.12 85.62 164.11 82.85 163.07 79.99 162.22 77.11 161.04 74.3 158.64 68.57 155.51 63.11 152.15 57.83 148.93 52.78 144.88 48.98 140.07 45.32 134.83 41.33 129.52 37.42 123.83 34.03 123.2 32.28 122.46 30.57 121.51 28.95 120.74 27.66 119.71 26.51 118.44 25.65 118.32 25.57 117.82 25.29 117.21 24.94 117.2 24.89 117.19 24.85 117.15 24.81 111.74 19.29 103.97 21.56 97.07 22.56 88.12 23.86 79.19 25.26 70.21 26.39 66.35 26.88 62.52 26.99 58.71 27.81 55.24 28.56 51.79 29.98 48.67 31.59 47.9 31.98 47.14 32.44 46.44 32.96L7.92 21.06 21.6 32.82 21.6 32.82 40.13 48.76C40.51 49.2 40.96 49.66 41.46 50.15L42.32 50.65 42.33 50.65 42.33 50.65 47.77 53.79C48.3 54.58 48.83 55.37 49.31 56.17 49.31 56.17 49.31 56.18 49.32 56.18 49.29 56.22 49.27 56.26 49.29 56.3 55.05 66.59 57.71 77.98 59.79 89.39 60.91 95.5 61.99 101.62 62.94 107.75 63.76 113.06 64.55 118.25 66.39 123.35 67.11 125.35 67.93 127.33 68.83 129.29L68.83 129.29C68.83 129.29 68.83 129.3 68.84 129.3 69.28 130.25 69.74 131.19 70.21 132.13 70.25 132.2 70.28 132.27 70.32 132.34 70.79 133.26 71.28 134.17 71.78 135.07 71.84 135.18 71.9 135.28 71.96 135.38 72.97 137.18 74.05 138.94 75.18 140.67 75.27 140.81 75.36 140.95 75.46 141.09 76.01 141.93 76.58 142.76 77.16 143.57 77.23 143.67 77.3 143.76 77.37 143.86 77.91 144.62 78.46 145.36 79.02 146.11 79.11 146.23 79.2 146.36 79.3 146.48 79.89 147.25 80.5 148.02 81.11 148.77 81.24 148.93 81.37 149.09 81.5 149.25 82.13 150.02 82.76 150.78 83.41 151.52 86.64 155.24 89.71 159.25 93.72 162.24 94.97 162.83 96.23 163.39 97.52 163.9L113.1 266.22 189.22 266.22ZM80.29 79.96C80.6 80.12 80.93 80.25 81.3 80.29 82.74 80.47 84.3 80.11 85.69 79.52 84.78 81.03 85.49 84.14 85.88 85.85 83.72 84.11 81.78 82.16 80.29 79.96ZM104.39 95.89C101.76 95.17 99.23 94.05 96.8 92.78 98.19 92.05 99.51 90.33 100.06 89.57 101.03 88.25 101.78 86.83 102.5 85.39L107.06 88.02C107.4 91.8 106.94 95.14 104.39 95.89Z" fill="#D9D7D4"/><g><defs><rect x="0" y="0" width="221.34" height="267.01" id="SVGID_1_"/></defs><clipPath id="SVGID_2_"><use width="100%" height="100%" xlink:href="#SVGID_1_" overflow="visible"></use></clipPath><g clip-path="url(#SVGID_2_)"><g><g><g><path d="M158.17 310.1C166.98 311.69 175.74 311.94 184.62 310.86 193.93 309.73 203.39 307.66 211.89 303.77 216.21 301.8 220.45 299.31 223.83 296.08L155.02 126.08C149.38 133.58 139.73 137.69 130.98 141.03 124.3 143.58 117.61 145.86 110.5 147.08 108.76 147.38 106.92 147.75 105.05 148.07L140.39 303.75C145.68 307.03 151.97 308.98 158.17 310.1Z" fill="#FDE2C9"/><path d="M173.87 312.32C173.87 312.32 173.87 312.32 173.87 312.32 168.61 312.32 163.29 311.84 158.03 310.89 150.86 309.6 144.78 307.42 139.97 304.42 139.79 304.31 139.66 304.12 139.61 303.91L104.27 148.23C104.22 148.01 104.26 147.79 104.39 147.6 104.51 147.42 104.71 147.29 104.93 147.25 105.91 147.08 106.88 146.9 107.83 146.73 108.7 146.57 109.55 146.41 110.38 146.27 117.71 145.01 124.48 142.63 130.71 140.26 139.29 136.99 148.91 132.88 154.4 125.58 154.57 125.35 154.86 125.23 155.15 125.26 155.44 125.3 155.68 125.49 155.79 125.76L224.6 295.76C224.72 296.07 224.65 296.42 224.41 296.65 221.32 299.6 217.34 302.16 212.24 304.49 204.6 307.98 195.6 310.32 184.73 311.65 181.1 312.1 177.45 312.32 173.87 312.32ZM141.11 303.23C145.7 306.03 151.49 308.07 158.32 309.3 163.48 310.23 168.71 310.7 173.87 310.7 173.87 310.7 173.87 310.7 173.87 310.7 177.39 310.7 180.97 310.48 184.53 310.05 195.23 308.75 204.07 306.45 211.56 303.03 216.27 300.88 219.98 298.53 222.88 295.86L154.8 127.66C148.96 134.62 139.63 138.59 131.27 141.78 124.97 144.18 118.11 146.59 110.64 147.87 109.82 148.01 108.97 148.17 108.11 148.33 107.42 148.46 106.73 148.59 106.02 148.71L141.11 303.23Z" fill="#CD8854"/></g></g></g><g><g><path d="M158.17 310.1C166.98 311.69 175.74 311.94 184.62 310.86 193.93 309.73 203.39 307.66 211.89 303.77 216.21 301.8 220.45 299.31 223.83 296.08L155.02 126.08C149.38 133.58 139.73 137.69 130.98 141.03 124.3 143.58 117.61 145.86 110.5 147.08 108.76 147.38 106.92 147.75 105.05 148.07L140.39 303.75C145.68 307.03 151.97 308.98 158.17 310.1ZM118.89 167.59C121.98 164.6 140.47 168.34 144.16 172.83 147.5 176.9 169.15 226.74 174.65 244.3 177.41 253.12 179.83 262.04 182.19 270.97 183.25 274.97 184.36 278.96 185.38 282.97 186.13 285.93 189.06 293 187.96 295.95 182.3 311.11 151.4 301.33 148.92 298.52 143.94 292.87 118.32 176.81 117.95 173.78 117.72 171.94 117.35 169.08 118.89 167.59Z" fill="#FDE2C9"/></g></g><g><g><path d="M158.66 166.4C163.32 179.8 196.82 271.32 208.69 305.13 209.77 304.7 210.84 304.25 211.9 303.76 216.22 301.79 220.46 299.3 223.84 296.07L155.03 126.07C152.71 129.16 149.7 131.66 146.36 133.79 147.37 136.62 148.45 139.41 149.5 142.23 152.5 150.3 155.83 158.27 158.66 166.4Z" fill="#FDE2C9"/></g></g><g><path d="M173.44 95.02C173.28 89.47 173.19 83.33 171.15 78.08 170.08 75.34 168.59 72.71 167.38 70.02 166.13 67.25 165.08 64.43 163.7 61.71 160.89 56.17 157.38 50.94 153.65 45.93 150.08 41.13 145.76 37.63 140.69 34.32 135.17 30.72 129.6 27.2 123.68 24.22 122.92 22.52 122.07 20.87 121 19.32 120.14 18.09 119.03 17.02 117.7 16.25 117.58 16.18 117.05 15.93 116.42 15.63 116.41 15.58 116.39 15.54 116.35 15.51 110.55 10.39 102.97 13.21 96.15 14.71 87.32 16.65 78.51 18.69 69.64 20.47 65.82 21.23 62.01 21.62 58.27 22.72 54.86 23.72 51.52 25.39 48.53 27.21 46.55 28.42 44.65 30.05 43.79 32.17 42.86 34.46 45.01 35.79 46.96 36.53 46.76 36.63 46.55 36.73 46.35 36.84 43.24 38.59 44.41 42.22 45.77 44.57 47.23 47.1 49.27 49.29 50.96 51.67 50.96 51.67 50.96 51.68 50.97 51.68 50.94 51.72 50.93 51.76 50.95 51.8 57.44 61.64 60.91 72.82 63.81 84.05 65.36 90.06 66.89 96.09 68.27 102.14 69.47 107.37 70.64 112.49 72.84 117.45 77.25 127.39 84.04 136.57 91.83 144.33 95.32 147.8 98.67 151.59 102.88 154.28 108.04 156.27 113.53 157.84 119.15 157.26 124.71 156.68 130.1 155.06 135.44 153.54 138.43 152.69 141.41 151.7 144.43 150.97 147.18 150.31 150.16 149.87 152.72 148.64 154.14 147.96 155.49 147.16 156.77 146.29 158.73 143.03 160.88 139.88 162.93 136.67 166.51 128.89 169.67 120.85 171.75 112.69 173.24 106.9 173.61 100.98 173.44 95.02ZM77.87 62.18C77.37 60.93 76.88 59.68 76.37 58.47 75.48 56.37 74.49 54.34 73.4 52.35 74.34 52.9 75.22 53.25 76.34 53.49 79.33 54.15 82.83 53.74 85.84 53.44 86 53.42 86.15 53.4 86.31 53.38 85.96 53.63 85.62 53.88 85.3 54.15 83.86 55.39 82.69 56.9 81.35 58.23 80.26 59.31 78.73 60.7 77.87 62.18ZM83.56 73.18C83.88 73.32 84.22 73.42 84.59 73.44 86.04 73.51 87.57 73.05 88.91 72.36 88.12 73.93 89.05 76.98 89.55 78.66 87.29 77.08 85.21 75.27 83.56 73.18ZM108.75 87.33C106.07 86.8 103.47 85.87 100.95 84.78 102.29 83.95 103.48 82.14 103.97 81.35 105.98 78.15 106.82 74.48 108.75 71.27 110.55 76.78 113.07 85.73 108.75 87.33Z" fill="#CD8854"/><path d="M170.36 112.28C168.25 121.48 164.26 130.08 160.56 138.76 160.45 138.84 160.35 138.94 160.27 139.08 158.75 141.56 157.59 144.18 155.6 146.37 153.59 148.56 150.9 150.49 148.31 152 143.31 154.91 137.44 156.38 131.68 157.13 125.91 157.89 120.04 157.64 114.3 156.74 111.57 156.31 108.96 155.78 106.4 154.76 105.01 154.2 103.69 153.5 102.41 152.73 98.44 149.97 95.19 145.97 91.89 142.63 84.11 134.74 77.43 124.72 73.22 114.67 71.02 109.4 70.08 103.75 68.78 98.23 67.36 92.19 65.83 86.17 64.24 80.18 62.94 75.26 61.36 70.48 59.48 65.74 58.09 62.24 56.41 59.11 54.4 56.09 52.46 52.77 50.3 49.64 48.08 46.44 46.36 43.96 43.02 39.26 47.93 37.25 50.35 36.26 53.44 36.17 55.97 36.69 60.32 37.6 63.74 41.14 66.32 44.36 69.34 48.11 71.94 52.35 73.96 56.65 76.08 61.17 77.65 65.9 79.97 70.34 82.03 74.26 84.81 77.18 88.54 79.72 92.33 82.3 96.76 84.36 101.02 86.13 105.42 87.96 109.83 89.24 114.66 88.87 115.17 88.83 115.77 87.7 115.07 87.75 113.38 87.89 111.72 87.81 110.09 87.57 112.31 85.94 112.2 80.92 111.87 78.81 111.13 74.07 109.4 69.44 108.15 64.8 106.79 59.75 105.66 54.62 104.58 49.51 104.5 49.15 104.43 48.78 104.36 48.41 104.42 48.24 104.42 48.09 104.29 48.03 103.74 44.98 103.29 41.66 101.67 39.01 99.88 36.09 95.36 37.1 92.53 37.43 82.9 38.57 73.1 40.37 63.37 39.07 58.91 35.45 53.29 33.62 47.53 36.25 46.86 35.58 45.03 34 44.95 33.87 43.37 31.5 47.89 28.7 49.41 27.79 52.09 26.18 55.1 24.89 58.09 23.93 64.07 22 70.67 21.57 76.82 20.21 83.52 18.73 90.2 17.17 96.9 15.72 100.05 15.04 103.21 14.28 106.42 13.86 109.86 13.41 112.31 14.66 115.2 16.02 120.62 19.99 123 26.93 125.69 32.67 128.89 39.52 132.25 46.45 137.23 52.32 137.38 52.49 137.79 52.06 137.66 51.89 132.69 45.01 129.02 37.64 125.94 29.83 125.43 28.53 124.93 27.21 124.4 25.91 133.72 32.46 144.52 37.33 151.63 46.3 155.26 50.89 158.59 55.88 161.34 60.99 164.05 66.03 165.93 71.41 168.48 76.52 171.2 81.99 171.54 87.85 171.83 93.82 172.12 100.01 171.75 106.22 170.36 112.28Z" fill="#FDE2C9"/><path d="M146.32 71.28C146.24 67.53 144.49 65.61 142.51 62.63 142.32 62.35 141.97 62.82 141.97 63.01 141.99 63.88 142.35 64.52 142.85 65.24 143.66 66.42 144.23 68.5 144.42 69.85 144.76 72.27 144.44 74.63 143.69 76.95 143.48 77.59 144.06 77.67 144.5 77.34 146.32 76 146.36 73.28 146.32 71.28Z" fill="#CD8854"/><path d="M163.05 67.51C163.02 67.41 162.96 67.33 162.84 67.34 162.7 67.36 162.61 67.43 162.48 67.5 162.38 67.56 162.19 67.77 162.28 67.9 162.56 68.26 162.34 70.41 162.37 71.03 162.51 73.45 162.34 75.41 161.45 77.69 161.05 78.71 162.34 78.34 162.69 77.78 164.81 74.38 164.02 71.13 163.05 67.51Z" fill="#CD8854"/><path d="M104.94 76.76C103.75 78.84 102.35 83.16 99.78 84.26 99.24 84.01 98.69 83.76 98.15 83.51 96.77 82.85 95.36 82.14 93.96 81.38 94 81.28 94 81.2 93.91 81.16 92 80.21 91.17 79.08 90.61 77.09 90.14 75.41 89.94 73.69 89.56 72.01 89.88 71.82 90.19 71.63 90.47 71.42 92.87 69.7 94.64 67.8 96.43 65.52 97.53 64.1 98.45 62.67 99.84 61.48 101.45 60.1 103.52 59.98 105.29 58.94 105.34 58.91 105.39 58.86 105.43 58.79 106.07 61.71 106.75 64.63 107.55 67.53 107.72 68.16 108.08 69.21 108.51 70.5 107.02 72.44 106.14 74.65 104.94 76.76Z" fill="#FDE2C9"/><path d="M99.43 60.71C97.51 62.32 96.07 64.31 94.5 66.22 92.48 68.68 89.38 71.54 85.95 71.95 84.26 72.15 82.65 70.07 81.17 69.53 80.1 67.59 79.22 65.53 78.38 63.46 78.41 63.42 78.43 63.38 78.45 63.34 79.23 61.31 81.55 59.44 83 57.83 84.1 56.6 85.1 55.33 86.3 54.18 86.65 53.84 87.01 53.53 87.38 53.22 90.02 52.8 92.52 52 95.02 51.05 97.63 50.05 100.59 49.77 103.31 49.12 103.99 52.12 104.62 55.14 105.28 58.15 103.2 58.97 101.18 59.24 99.43 60.71Z" fill="#FDE2C9"/><path d="M89.56 51.44C86.44 52.07 83.22 52.17 80.04 52.22 77.96 52.25 74.28 52.28 72.51 50.77 71.15 48.43 69.65 46.17 68.02 43.96 67.04 42.64 65.94 41.38 64.73 40.25 70.75 41.12 77.24 40.64 83.17 39.98 86.76 39.58 90.3 38.88 93.89 38.5 96.3 38.24 98.91 37.92 100.56 39.97 101.5 41.14 101.77 42.8 102.12 44.19 102.46 45.5 102.77 46.81 103.07 48.12 98.47 48.64 94.07 50.52 89.56 51.44Z" fill="#FDE2C9"/></g><path d="M173.44 95.02C173.28 89.47 173.19 83.33 171.15 78.08 170.08 75.34 168.59 72.71 167.38 70.02 166.13 67.25 165.08 64.43 163.7 61.71 160.89 56.17 157.38 50.94 153.65 45.93 150.08 41.13 145.76 37.63 140.69 34.32 135.17 30.72 129.6 27.2 123.68 24.22 122.92 22.52 122.07 20.87 121 19.32 120.14 18.09 119.03 17.02 117.7 16.25 117.58 16.18 117.05 15.93 116.42 15.63 116.41 15.58 116.39 15.54 116.35 15.51 110.55 10.39 102.97 13.21 96.15 14.71 87.32 16.65 78.51 18.69 69.64 20.47 65.82 21.23 62.01 21.62 58.27 22.72 54.86 23.72 51.52 25.39 48.53 27.21 46.55 28.42 44.65 30.05 43.79 32.17 42.86 34.46 45.01 35.79 46.96 36.53 46.76 36.63 46.55 36.73 46.35 36.84 43.79 38.29 44.13 41 45.09 43.23 45.54 41.37 46.96 39.94 49.64 39.91 55.2 39.84 59.71 44.82 62.58 48.84 66.47 54.29 69.18 60.39 72 66.38 74.83 72.41 77.79 78.62 82.32 83.7 87.26 89.23 93.92 93.27 100.78 96.34 104.79 98.14 113.92 102.37 118.35 102.07 130.11 101.29 126.13 85.19 123.99 80.61 122.34 77.07 121.2 73.32 120 69.63 118.82 66.02 117.38 62.52 116.08 58.95 114.73 55.23 113.58 51.44 112.16 47.75 110.79 44.18 109.27 39.96 106.57 37.06 103.64 33.91 100.11 33.77 95.97 33.96 91.71 34.15 87.45 34.49 83.18 34.6 77.72 34.74 71.55 35.09 66.19 33.9 63.61 33.33 58.64 31.37 59.69 27.94 60.52 25.22 84.39 22.58 87.16 22.22 91.45 21.66 95.83 21.31 100.07 20.52 106.89 19.25 111.88 20.73 116.29 25.92 121.08 31.57 124.67 38.53 128.5 44.79 132.78 51.79 137.58 58.73 141.14 66.1 142.62 69.17 143.79 72.23 144.28 75.59 144.68 78.3 144.93 81.17 146.25 83.64 149.1 77.43 148.54 69.25 146.66 62.95 144.55 55.87 141.03 49.09 140.72 41.63 140.7 41.2 141.21 41 141.57 41.17 143.75 42.18 144.96 44.16 146.19 46.07 147.79 48.55 149.63 50.86 151.34 53.26 155.06 58.48 160.07 76.03 161.37 80.04 162.37 83.13 161.85 88.91 162.1 92.17 162.68 99.68 162.39 107.77 160.41 115.11 157.43 126.16 150.1 136 139.45 141.46 127.28 147.7 111.77 148.71 99.28 142.6 92.44 139.25 86.7 134.09 81.31 128.94 79.38 127.09 77.48 125.2 75.68 123.23 79.93 130.96 85.55 138.12 91.82 144.37 95.31 147.84 98.66 151.63 102.87 154.32 107.96 156.28 113.36 157.83 118.9 157.32 123.15 157.71 127.44 157.7 131.68 157.14 137.44 156.39 143.31 154.92 148.31 152.01 150.17 150.93 152.08 149.62 153.76 148.17 154.81 147.61 155.81 147 156.78 146.34 158.74 143.08 160.89 139.93 162.94 136.72 166.52 128.94 169.68 120.9 171.76 112.74 173.24 106.9 173.61 100.98 173.44 95.02ZM103.98 81.34C105.99 78.14 106.83 74.47 108.76 71.26 110.56 76.78 113.08 85.73 108.76 87.33 106.08 86.8 103.48 85.87 100.96 84.78 102.29 83.95 103.48 82.14 103.98 81.34ZM89.56 78.66C87.29 77.08 85.21 75.27 83.56 73.18 83.88 73.32 84.22 73.42 84.59 73.44 86.04 73.51 87.57 73.05 88.91 72.36 88.12 73.93 89.06 76.98 89.56 78.66ZM76.35 53.49C79.34 54.15 82.84 53.74 85.85 53.44 86.01 53.42 86.16 53.4 86.32 53.38 85.97 53.63 85.63 53.88 85.31 54.15 83.87 55.39 82.7 56.9 81.36 58.23 80.26 59.31 78.73 60.7 77.88 62.18 77.38 60.93 76.89 59.68 76.38 58.47 75.49 56.37 74.5 54.34 73.41 52.35 74.34 52.89 75.23 53.24 76.35 53.49Z" fill="#FDE2C9"/><g><defs><path d="M50.13 50.57C50.13 50.57 41.89 41.89 45.29 37.89 48.69 33.89 57.37 35 60.62 37.13 63.87 39.27 70.92 47.37 75.13 55.69 79.34 64.01 78.77 65.59 81.73 71.51L139.64 98.25C139.64 98.25 155.57 107.48 165.4 101.97 175.23 96.46 173.8 85.85 165.4 80.75 157.01 75.66 53 27.87 53 27.87L1.07 16.15 37.83 48.23 50.13 50.57Z" id="SVGID_3_"/></defs><clipPath id="SVGID_4_"><use width="100%" height="100%" xlink:href="#SVGID_3_" overflow="visible"></use></clipPath><g clip-path="url(#SVGID_4_)"><g><g><g><g><g><g><g><path d="M56.59 39.83 58.12 34.22 52.34 30.12 7.14 19.65 43.58 46.69 49.89 47.45Z" fill="#F3C088"/><path d="M21.63 30.4 7.14 19.65 24.72 23.72C23.67 24.39 22.74 25.43 22.16 26.75 21.6 27.99 21.45 29.27 21.63 30.4Z" fill="#363537"/><path d="M46.1 41.36 7.14 19.65 43.58 46.69Z" fill="#F3C088"/></g><g><path d="M51.5 29.72C48.89 29.33 46.6 29.16 45.92 30.43 45.27 31.64 47.26 33.84 49.04 35.08L140.43 79.38 144.7 74.85 51.5 29.72Z" fill="#12407C"/><path d="M45.42 41.31C44.14 41.15 40.79 40.45 39.83 41.4 38.85 42.37 40.18 44.16 42.69 46.25L134.39 90.71 137.05 85.72 45.48 41.33C45.46 41.32 45.44 41.32 45.42 41.31Z" fill="#00A0DC"/><path d="M48.89 35.03C43.83 34.41 39.35 34.88 45.48 41.32L137.05 85.71 140.44 79.37 49.05 35.07C49 35.06 48.94 35.05 48.89 35.03Z" fill="#0081C5"/></g><g><linearGradient x1="-436.096" y1="-4042.87" x2="-436.093" y2="-4042.87" gradientUnits="userSpaceOnUse" id="SVGID_5_" gradientTransform="matrix(-0.388 0.9215 0.9215 0.388 3607.89 2000.25)"><stop offset="0" stop-color="#E87C00"/><stop offset="0.6571" stop-color="#E4B300"/><stop offset="1" stop-color="#E2CA00"/></linearGradient><path d="M51.59 29.76 51.59 29.76 51.59 29.76Z" fill="url(#SVGID_5_)"/></g></g></g></g></g></g><g><g><g><path d="M146.84 86.74C144.08 91.61 139.14 94.16 135.82 92.45 132.5 90.74 132.05 85.4 134.81 80.53 137.57 75.66 142.51 73.11 145.83 74.82 149.15 76.54 149.6 81.88 146.84 86.74Z" fill="#7E8082"/><path d="M148.09 87.35C145.33 92.22 140.39 94.77 137.07 93.06 133.75 91.35 133.3 86.01 136.06 81.15 138.82 76.28 143.76 73.73 147.08 75.44 150.41 77.15 150.86 82.48 148.09 87.35Z" fill="#989A9D"/><path d="M149.36 88.04C146.6 92.91 141.66 95.46 138.34 93.75 135.02 92.04 134.57 86.7 137.33 81.83 140.1 76.96 145.03 74.41 148.35 76.12 151.67 77.84 152.12 83.17 149.36 88.04Z" fill="#7E8082"/><path d="M150.8 88.67C148.04 93.54 143.1 96.09 139.78 94.38 136.46 92.67 136.01 87.33 138.77 82.46 141.53 77.59 146.47 75.04 149.79 76.75 153.12 78.47 153.57 83.8 150.8 88.67Z" fill="#989A9D"/></g><g><path d="M152.03 89.19C149.27 94.06 144.33 96.61 141.01 94.9 137.69 93.19 137.24 87.85 140 82.98 142.76 78.11 147.7 75.56 151.02 77.27 154.35 78.98 154.8 84.32 152.03 89.19Z" fill="#7E8082"/><path d="M153.48 89.82C150.72 94.69 145.78 97.24 142.46 95.53 139.14 93.82 138.69 88.48 141.45 83.61 144.21 78.74 149.15 76.19 152.47 77.9 155.79 79.61 156.25 84.95 153.48 89.82Z" fill="#989A9D"/><path d="M154.94 90.53C152.18 95.4 147.24 97.95 143.92 96.24 140.6 94.53 140.15 89.19 142.91 84.32 145.67 79.45 150.61 76.9 153.93 78.61 157.25 80.33 157.7 85.67 154.94 90.53Z" fill="#7E8082"/><path d="M156.19 91.14C153.43 96.01 148.49 98.56 145.17 96.85 141.85 95.14 141.4 89.8 144.16 84.93 146.93 80.06 151.86 77.51 155.18 79.22 158.51 80.94 158.96 86.27 156.19 91.14Z" fill="#989A9D"/></g></g><g><path d="M164.69 84.65C164.66 84.63 164.62 84.63 164.58 84.61L164.59 84.6 155.06 79.98C154.9 79.9 154.71 79.89 154.49 79.94 151.5 79.1 147.53 81.39 145.22 85.46 142.81 89.7 143.08 94.31 145.73 96.1 145.73 96.1 145.73 96.11 145.74 96.11L145.75 96.12C145.88 96.2 146 96.29 146.14 96.36 146.35 96.47 146.57 96.56 146.8 96.63L155.26 100.74 155.28 100.72C155.31 100.74 155.33 100.77 155.36 100.79 156.84 101.57 160.13 98.59 162.71 94.13 165.28 89.67 166.17 85.43 164.69 84.65Z" fill="#E7E6E6"/><path d="M165.41 95.48C162.88 99.93 158.37 102.27 155.34 100.7 152.3 99.13 151.89 94.26 154.42 89.81 156.95 85.36 161.46 83.03 164.49 84.59 167.53 86.16 167.94 91.03 165.41 95.48Z" fill="#EBEBEB"/><g><path d="M154.92 89.87C157.01 86.18 160.47 83.96 163.32 84.19 160.39 83.63 156.64 85.9 154.42 89.81 151.89 94.26 152.3 99.14 155.34 100.7 155.86 100.97 156.43 101.11 157.02 101.16 156.61 101.08 156.22 100.95 155.85 100.76 152.81 99.2 152.39 94.32 154.92 89.87Z" fill="#FFFFFF"/></g></g></g></g></g></g></g></g></g></svg>