<svg width="248.13" height="244.15" viewBox="0 0 248.13 244.15" xmlns="http://www.w3.org/2000/svg" xmlns:xlink="http://www.w3.org/1999/xlink" xml:space="preserve" overflow="hidden"><defs></defs><g><g><path d="M110.16 79.94C112.73 83.36 117.61 83.97 120.95 81.3 124.94 78.12 131.58 72.65 134.89 69.56 137.99 66.67 138.13 61.8 135.21 58.73L135.21 58.73C132.35 55.72 127.59 55.56 124.54 58.37 121.5 61.16 115.13 66.46 111.4 69.53 108.27 72.11 107.72 76.7 110.16 79.94L110.16 79.94Z" fill="#FFD54F"/></g><g><path d="M47.61 108.5C47.46 108.5 47.31 108.43 47.21 108.3L46.37 107.17C46.21 106.95 46.25 106.64 46.47 106.48 46.69 106.32 47 106.36 47.16 106.58L48 107.71C48.16 107.93 48.12 108.24 47.9 108.4 47.81 108.46 47.71 108.5 47.61 108.5Z" fill="#FFC58F"/></g><g><g><path d="M108.13 186.87 108.13 186.87C105.37 186.87 103.13 189.11 103.13 191.87L103.13 192.63 113.13 192.63 113.13 191.87C113.13 189.11 110.89 186.87 108.13 186.87Z" fill="#FFD6AD"/><path d="M113.19 192.63 103.13 192.63 82.39 199.12 115.02 199.12Z" fill="#5B7E2B"/><g><path d="M115.02 199.61 115.02 199.61 82.39 199.61C82.15 199.61 81.94 199.43 81.9 199.19 81.86 198.95 82.01 198.72 82.24 198.65L102.98 192.16C103.03 192.15 103.08 192.14 103.13 192.14L103.13 192.14 113.19 192.14C113.41 192.14 113.6 192.29 113.66 192.5L115.49 198.99C115.53 199.14 115.5 199.3 115.41 199.42 115.32 199.54 115.17 199.61 115.02 199.61ZM85.61 198.62 114.36 198.62 112.81 193.12 103.2 193.12 85.61 198.62Z" fill="#557528"/></g><path d="M115.04 199.12 82.37 199.12C82.27 199.12 82.19 199.2 82.19 199.3L82.19 202.13C82.19 202.23 82.27 202.31 82.37 202.31L115.04 202.31C115.14 202.31 115.22 202.23 115.22 202.13L115.22 199.3C115.22 199.2 115.14 199.12 115.04 199.12Z" fill="#FFFDE7"/><g><path d="M115.04 202.75 82.37 202.75C82.03 202.75 81.75 202.47 81.75 202.13L81.75 199.3C81.75 198.96 82.03 198.68 82.37 198.68L115.04 198.68C115.38 198.68 115.66 198.96 115.66 199.3L115.66 202.13C115.66 202.47 115.38 202.75 115.04 202.75ZM82.63 201.86 114.78 201.86 114.78 199.55 82.63 199.55 82.63 201.86ZM115.04 199.56 115.04 199.56 115.04 199.56Z" fill="#FFECB3"/></g></g><path d="M103.2 191.04C63.55 134.57 86.4 130.86 140.46 130.86 145.25 130.86 149.37 134.19 149.71 138.97L149.71 138.97C150.06 144.02 146.04 148.74 141 148.31 97.13 144.55 82.51 141.64 112.3 187.55L103.2 191.04Z" fill="#608535"/><g><path d="M103.2 191.53C103.04 191.53 102.89 191.45 102.8 191.32 85.31 166.42 79.59 151.32 84.25 142.35 86.92 137.22 92.98 134.01 103.33 132.26 112.65 130.69 124.9 130.36 140.42 130.36 140.43 130.36 140.44 130.36 140.45 130.36 145.66 130.36 149.84 134.04 150.19 138.92 150.38 141.67 149.33 144.46 147.37 146.39 145.6 148.14 143.32 148.99 140.95 148.78 139.35 148.64 137.8 148.51 136.28 148.38 115.36 146.56 101.55 145.36 98.08 151.13 95.07 156.15 99.3 166.62 112.7 187.27 112.78 187.39 112.8 187.55 112.76 187.69 112.71 187.83 112.61 187.94 112.47 188L103.38 191.49C103.32 191.52 103.26 191.53 103.2 191.53ZM140.41 131.35C112.45 131.35 90.63 132.2 85.12 142.8 82.92 147.03 83.24 152.78 86.09 160.37 89.03 168.2 94.69 178.03 103.37 190.43L111.53 187.3C97.98 166.34 93.96 156.04 97.22 150.62 101.01 144.32 114.31 145.48 136.35 147.4 137.87 147.53 139.42 147.67 141.02 147.8 143.09 147.98 145.1 147.23 146.66 145.69 148.42 143.96 149.36 141.45 149.19 138.99 148.88 134.63 145.12 131.34 140.44 131.34 140.44 131.35 140.43 131.35 140.41 131.35Z" fill="#5B7E2B"/></g><path d="M102.29 188.85 112.2 187.08C112.75 186.98 113.27 187.35 113.37 187.9L113.64 189.42C113.74 189.97 113.37 190.49 112.82 190.59L102.91 192.36C102.36 192.46 101.84 192.09 101.74 191.54L101.47 190.02C101.37 189.47 101.74 188.94 102.29 188.85Z" fill="#5B7E2B"/></g><g><path d="M46.23 111.03C45.7 111.02 45.26 111.51 45.2 112.15 44.94 115.03 43.66 115.48 42.65 115.48L33.15 115.48C31.36 115.48 29.92 117.23 29.92 119.39L29.92 119.39C29.92 120.12 30.41 120.72 31.02 120.72L31.02 120.72C31.63 120.72 32.12 120.13 32.12 119.39L32.12 119.07C32.12 118.25 32.67 117.58 33.35 117.58L43.12 117.58C46.72 117.58 47.19 115.12 47.25 112.31 47.25 111.62 46.8 111.04 46.23 111.03L46.23 111.03Z" fill="#546E7A"/><path d="M31 121.21C30.13 121.21 29.42 120.4 29.42 119.4 29.42 116.98 31.09 115.01 33.14 115.01L42.64 115.01C43.14 115.01 44.45 115.01 44.71 112.12 44.79 111.23 45.43 110.56 46.21 110.56 46.22 110.56 46.22 110.56 46.23 110.56L46.23 110.56C46.6 110.56 46.95 110.72 47.22 111 47.55 111.34 47.73 111.82 47.72 112.33 47.68 114.34 47.6 118.07 43.11 118.07L33.34 118.07C32.93 118.07 32.59 118.53 32.59 119.08L32.59 119.4C32.59 120.39 31.88 121.21 31 121.21ZM33.14 115.97C31.62 115.97 30.39 117.51 30.39 119.39 30.39 119.85 30.67 120.24 31.01 120.24 31.34 120.24 31.63 119.85 31.63 119.39L31.63 119.07C31.63 117.98 32.4 117.1 33.35 117.1L43.12 117.1C46.1 117.1 46.7 115.41 46.76 112.3 46.77 112.05 46.68 111.81 46.53 111.66 46.47 111.59 46.36 111.51 46.22 111.51 46.22 111.51 46.22 111.51 46.22 111.51 45.95 111.51 45.72 111.81 45.68 112.19 45.45 114.69 44.43 115.96 42.65 115.96L33.14 115.96Z" fill="#37474F"/></g><g><path d="M111.43 111.03C112.07 111.02 112.6 111.51 112.67 112.15 112.99 115.03 114.53 115.48 115.75 115.48L127.23 115.48C129.39 115.48 131.14 117.23 131.14 119.39L131.14 119.39C131.14 120.12 130.54 120.72 129.81 120.72L129.81 120.72C129.08 120.72 128.48 120.13 128.48 119.39L128.48 119.07C128.48 118.25 127.81 117.58 126.99 117.58L115.19 117.58C110.84 117.58 110.28 115.12 110.21 112.31 110.19 111.62 110.73 111.04 111.43 111.03L111.43 111.03Z" fill="#546E7A"/><path d="M129.81 121.21C128.81 121.21 128 120.4 128 119.4L128 119.08C128 118.52 127.55 118.07 126.99 118.07L115.19 118.07C110.52 118.07 109.8 115.31 109.72 112.33 109.71 111.86 109.88 111.41 110.21 111.08 110.53 110.75 110.96 110.56 111.42 110.56L111.42 110.56C111.43 110.56 111.43 110.56 111.44 110.56 112.32 110.56 113.05 111.23 113.15 112.12 113.43 114.69 114.69 115.02 115.75 115.02L127.23 115.02C129.65 115.02 131.62 116.99 131.62 119.41 131.62 120.39 130.81 121.21 129.81 121.21ZM111.43 111.51C111.23 111.51 111.04 111.59 110.9 111.74 110.76 111.89 110.68 112.09 110.68 112.3 110.76 115.41 111.5 117.1 115.18 117.1L126.98 117.1C128.07 117.1 128.95 117.99 128.95 119.07L128.95 119.39C128.95 119.86 129.33 120.24 129.8 120.24 130.27 120.24 130.65 119.86 130.65 119.39 130.65 117.5 129.11 115.97 127.23 115.97L115.75 115.97C113.66 115.97 112.46 114.7 112.19 112.21 112.15 111.81 111.83 111.52 111.43 111.51L111.43 111.51Z" fill="#37474F"/></g><g><path d="M240.3 141.75C244.95 141.75 244.95 145.14 244.95 148.52 244.95 151.9 244.78 155.7 241.48 157.31 238.19 158.91 240.3 141.75 240.3 141.75Z" fill="#B71C1C"/><path d="M241.07 157.9C240.83 157.9 240.6 157.83 240.39 157.68 238.16 156.09 239.52 144.09 239.81 141.69 239.84 141.45 240.05 141.27 240.29 141.27 245.43 141.27 245.43 145.12 245.43 148.53 245.43 151.48 245.43 155.93 241.69 157.75 241.48 157.85 241.27 157.9 241.07 157.9ZM240.73 142.25C240.06 147.94 239.71 156 240.96 156.9 241 156.93 241.07 156.98 241.27 156.88 244.22 155.44 244.47 152.11 244.47 148.53 244.47 145.27 244.47 142.44 240.73 142.25Z" fill="#5D4037"/></g><g><path d="M1.81 198.64C1.94 198.53 7.5 192.55 7.5 192.55L9.25 188.62 2.48 189.34 1.81 198.64Z" fill="#9C1234"/><path d="M1.81 199.13C1.74 199.13 1.66 199.11 1.59 199.08 1.42 198.99 1.31 198.81 1.33 198.61L2 189.32C2.02 189.09 2.2 188.9 2.43 188.87L9.2 188.15C9.37 188.13 9.54 188.21 9.64 188.35 9.74 188.49 9.76 188.67 9.69 188.83L7.94 192.76C7.92 192.81 7.89 192.85 7.85 192.89 5.3 195.63 2.24 198.91 2.12 199.01 2.03 199.09 1.92 199.13 1.81 199.13ZM2.94 189.8 2.39 197.33C3.55 196.09 5.58 193.91 7.09 192.29L8.47 189.2 2.94 189.8Z" fill="#5D4037"/></g><g><rect x="38.45" y="107.93" width="86.01" height="4.41" fill="#90A4AE"/><path d="M124.46 112.82 38.45 112.82C38.18 112.82 37.97 112.6 37.97 112.34L37.97 107.93C37.97 107.66 38.19 107.45 38.45 107.45L124.46 107.45C124.73 107.45 124.94 107.67 124.94 107.93L124.94 112.34C124.94 112.6 124.72 112.82 124.46 112.82ZM38.93 111.85 123.97 111.85 123.97 108.41 38.93 108.41 38.93 111.85Z" fill="#37474F"/></g><rect x="45.29" y="108.71" width="64.88" height="1.03" fill="#B0BEC5"/><path d="M128.25 113.39 113.1 113.39C111.3 113.39 109.84 111.93 109.84 110.13L109.84 110.13C109.84 108.33 111.3 106.87 113.1 106.87L128.25 106.87C130.05 106.87 131.51 108.33 131.51 110.13L131.51 110.13C131.51 111.93 130.05 113.39 128.25 113.39Z" fill="#546E7A"/><path d="M110.36 108.37C110.03 108.88 109.84 109.49 109.84 110.14L131.51 110.14C131.51 109.49 131.32 108.88 130.99 108.37L110.36 108.37Z" fill="#78909C"/><g><path d="M156.36 144.82C150.61 144.76 135.79 144.24 135.55 139.75L134.93 128.32C134.77 125.45 136.98 123.15 139.85 123.17L170.54 123.48C173.41 123.51 175.87 125.86 176.02 128.73L176.64 140.16C176.88 144.65 162.11 144.87 156.36 144.82Z" fill="#648A37"/></g><g><path d="M135.14 132.79C134.88 132.79 134.66 132.59 134.65 132.32L134.43 128.34C134.42 128.07 134.62 127.84 134.89 127.82 135.16 127.8 135.39 128.01 135.41 128.28L135.63 132.26C135.64 132.53 135.44 132.76 135.17 132.78 135.16 132.79 135.15 132.79 135.14 132.79Z" fill="#5B7E2B"/></g><g><path d="M176.2 132.79C175.94 132.79 175.72 132.59 175.71 132.32L175.49 128.1C175.48 127.83 175.68 127.6 175.96 127.58 176.23 127.57 176.46 127.77 176.48 128.05L176.7 132.27C176.71 132.54 176.51 132.77 176.23 132.79 176.22 132.79 176.21 132.79 176.2 132.79Z" fill="#5B7E2B"/></g><g><path d="M165.69 68.4C165.6 67.9 165.5 67.42 165.39 66.94L166.22 66.7 164.55 56.37 151.6 56.37 135.1 56.35C134.86 56.35 134.63 56.36 134.39 56.37L128.96 56.37 128.76 58.26C125.61 60.48 123.93 64.4 124.71 68.89L134.91 128.04 175.99 128.09 165.69 68.4Z" fill="#FFD54F"/><path d="M157.99 66C159.46 69.93 161.41 75.5 162.97 80.36 161.92 77.9 159.96 71.86 159.96 71.86 157.29 80.57 149.82 83.04 144.14 83.24 138.45 83.43 126.3 80.77 125.83 73.64 125.65 70.97 126.01 69.19 126.01 69.19L121.03 72.92C117.3 69.19 114.04 68.45 111.4 69.53 115.34 65.99 125.3 57.45 126.36 56.92 127.25 56.48 154.06 56.53 163.08 56.55 162.9 56.59 162.72 56.64 162.54 56.7 159.44 57.7 157.52 60.44 157.52 63.44 157.53 64.29 157.68 65.15 157.99 66Z" fill="#FFE082"/><path d="M149.44 57.76 149.24 56.54C143.57 56.55 137.55 56.57 133.11 56.64L133.47 59.37C133.92 63.78 137.85 67 142.27 66.55 146.67 66.11 149.89 62.17 149.44 57.76Z" fill="#FFCA28"/><g><path d="M175.98 128.57 175.98 128.57 134.9 128.52C134.66 128.52 134.46 128.35 134.42 128.11L125.78 78.02C124.22 79.31 122.63 80.59 121.26 81.69 119.54 83.06 117.39 83.67 115.2 83.39 113.02 83.11 111.09 81.99 109.77 80.24 107.16 76.77 107.74 71.9 111.09 69.15 113.3 67.33 120.78 61.17 124.21 58.01 125.47 56.85 127.03 56.13 128.72 55.93 128.79 55.89 128.87 55.87 128.96 55.87L133.66 55.87C133.73 55.87 133.8 55.88 133.86 55.91 134.28 55.87 134.7 55.84 135.11 55.85L151.61 55.87 164.18 55.87C168.02 55.5 171.77 57.8 173.12 61.33 174.75 65.62 176.74 71.45 178.3 76.56 178.94 78.64 178.69 80.8 177.59 82.62 176.47 84.5 174.62 85.77 172.39 86.22L172.39 86.22C171.36 86.43 170.31 86.44 169.28 86.26L176.47 127.98C176.49 128.12 176.45 128.27 176.36 128.38 176.26 128.51 176.13 128.57 175.98 128.57ZM135.32 127.54 175.4 127.59 168.18 85.72C168.15 85.56 168.21 85.39 168.33 85.27 168.45 85.16 168.63 85.11 168.79 85.16 169.92 85.45 171.07 85.49 172.2 85.27L172.3 85.75 172.2 85.27C174.15 84.88 175.77 83.77 176.74 82.13 177.69 80.54 177.9 78.67 177.35 76.86 175.79 71.77 173.82 65.96 172.19 61.69 171 58.56 167.66 56.53 164.24 56.86 164.22 56.86 164.21 56.86 164.19 56.86L151.6 56.86 135.09 56.84C135.09 56.84 135.08 56.84 135.08 56.84 134.61 56.84 134.15 56.87 133.65 56.93 133.54 56.94 133.43 56.92 133.33 56.86L129.13 56.86C129.09 56.88 129.04 56.89 128.99 56.9 127.44 57.05 126.01 57.69 124.86 58.74 121.41 61.91 113.92 68.09 111.7 69.91 108.76 72.32 108.25 76.6 110.54 79.64 111.7 81.18 113.4 82.17 115.31 82.41 117.23 82.65 119.12 82.12 120.63 80.91 122.19 79.66 124.03 78.17 125.79 76.71 125.93 76.6 126.11 76.57 126.27 76.63 126.43 76.69 126.55 76.84 126.58 77.01L135.32 127.54Z" fill="#FFCA28"/></g><g><path d="M172.29 85.75C176.56 84.9 179.07 80.8 177.82 76.71 176.26 71.6 174.28 65.78 172.65 61.51 171.15 57.56 166.6 55.4 162.55 56.71L162.55 56.71C158.58 57.99 156.55 62.12 158 66 159.47 69.93 161.41 75.5 162.97 80.36 164.19 84.18 168.29 86.55 172.29 85.75L172.29 85.75Z" fill="#FFD54F"/></g><g><path d="M173.12 72.39C166.72 71.68 163.84 75.71 162.97 80.36 161.41 75.5 159.46 69.93 157.99 66 157.67 65.15 157.52 64.29 157.52 63.45 157.52 60.45 159.43 57.71 162.54 56.71 162.72 56.65 162.9 56.6 163.08 56.56 164.91 56.57 166.01 56.57 166.01 56.57 170.28 59.06 173.12 72.39 173.12 72.39Z" fill="#FFE082"/></g><g><g><path d="M170.73 86.39C167.07 86.39 163.64 84.03 162.5 80.51L162.34 80.02C161.16 76.34 159.82 72.17 159.47 68.88 159.44 68.61 159.64 68.37 159.91 68.34 160.18 68.31 160.42 68.51 160.45 68.78 160.79 71.96 162.11 76.08 163.28 79.72L163.44 80.21C164.59 83.79 168.44 86.01 172.19 85.26 174.14 84.87 175.76 83.76 176.73 82.12 177.68 80.53 177.89 78.66 177.34 76.85 175.78 71.76 173.81 65.95 172.18 61.68 171.02 58.64 167.9 56.65 164.57 56.82L160.96 56.85C160.69 56.85 160.47 56.63 160.46 56.36 160.46 56.09 160.68 55.87 160.95 55.86L164.54 55.83C168.26 55.63 171.79 57.89 173.1 61.32 174.73 65.61 176.72 71.44 178.28 76.55 178.92 78.63 178.67 80.79 177.57 82.61 176.45 84.49 174.6 85.76 172.37 86.21 171.83 86.34 171.28 86.39 170.73 86.39Z" fill="#FFCA28"/></g></g></g><path d="M109.91 72.67C93.94 86.7 75.28 95.18 47.13 102.52 44.6 103.18 42.93 105.84 43.42 108.42L43.57 109.22C44.05 111.73 46.59 113.29 49.05 112.58 74.74 105.16 90.55 102.96 117.2 82.04 119.74 80.05 120.21 76.39 118.27 73.81L118.27 73.81C116.28 71.17 112.39 70.5 109.91 72.67Z" fill="#FFD6AD"/><path d="M118.26 73.81C116.28 71.17 112.39 70.49 109.91 72.67 109.49 73.04 109.06 73.41 108.63 73.77L108.63 73.77C113.82 72.03 115.18 76.43 115.18 76.43 95.29 91.76 78.96 101.9 43.32 107.43 43.32 107.76 43.34 108.09 43.4 108.41L43.55 109.21C44.03 111.72 46.57 113.28 49.03 112.57 74.72 105.15 90.53 102.95 117.18 82.03 119.73 80.05 120.2 76.39 118.26 73.81L118.26 73.81Z" fill="#FFCB9C"/><g><path d="M47.84 113.24C46.95 113.24 46.07 113 45.3 112.52 44.14 111.81 43.33 110.64 43.08 109.3L42.93 108.5C42.39 105.66 44.22 102.76 47 102.03 76.01 94.46 94.14 85.85 109.58 72.29 110.8 71.22 112.39 70.73 114.05 70.9 115.87 71.09 117.54 72.04 118.65 73.5 120.74 76.27 120.22 80.27 117.49 82.41 94.42 100.53 79.65 104.59 59.23 110.22 56.02 111.1 52.7 112.02 49.18 113.04 48.74 113.18 48.29 113.24 47.84 113.24ZM113.42 71.87C112.23 71.87 111.12 72.28 110.24 73.05L110.24 73.05C94.67 86.71 76.43 95.39 47.26 103 44.96 103.6 43.46 105.99 43.9 108.33L44.05 109.13C44.25 110.19 44.9 111.13 45.82 111.69 46.74 112.26 47.87 112.41 48.91 112.11 52.43 111.09 55.76 110.18 58.97 109.29 79.29 103.69 93.97 99.65 116.89 81.65 119.2 79.84 119.64 76.45 117.87 74.11 116.93 72.86 115.51 72.06 113.96 71.9 113.78 71.87 113.6 71.87 113.42 71.87ZM109.91 72.67 109.91 72.67 109.91 72.67Z" fill="#FFC58F"/></g><g><path d="M176.64 79.36C175.64 76.1 172.1 74.35 168.9 75.52L168.9 75.52C165.92 76.61 164.37 79.86 165.32 82.89 173.89 110.12 165.52 108.11 131.5 105.64 130.32 105.55 128.69 106.19 127.9 107.06 124.73 110.55 127.04 115.5 130.85 115.82 176.3 119.68 187.53 114.76 176.64 79.36Z" fill="#FFD6AD"/><path d="M130.72 108.1 126.16 110.82C126.31 113.23 128.14 115.35 130.58 115.56 176.03 119.42 187.25 114.5 176.37 79.1 175.37 75.84 171.83 74.09 168.63 75.26 165.65 76.35 164.1 79.6 165.05 82.63 165.21 83.14 165.36 83.63 165.51 84.12L165.51 84.12C165.42 79.5 170.34 78.2 171.02 78.57 172.9 84.17 177.29 98.94 175.15 102.83 173.07 106.62 168.38 111.02 152.23 110.46 136.1 109.9 130.72 108.1 130.72 108.1Z" fill="#FFCB9C"/><g><path d="M152.18 117.43C146.04 117.43 138.91 117 130.81 116.31 129.13 116.17 127.6 115.17 126.71 113.64 126.57 113.4 126.65 113.1 126.89 112.97 127.13 112.83 127.43 112.91 127.56 113.15 128.29 114.4 129.54 115.22 130.89 115.33 154.87 117.36 170.95 117.13 176.97 109.65 181.27 104.32 181.03 95.3 176.17 79.5 175.73 78.06 174.74 76.89 173.38 76.22 172.02 75.55 170.49 75.46 169.07 75.98 166.35 76.98 164.91 79.95 165.79 82.74 169.49 94.51 169.89 100.41 167.21 103.79 163.47 108.51 153.83 107.79 136.35 106.48 135.13 106.39 133.88 106.3 132.59 106.2 132.32 106.18 132.12 105.94 132.13 105.67 132.15 105.4 132.38 105.2 132.66 105.21 133.95 105.31 135.2 105.4 136.42 105.49 153.57 106.77 163.02 107.48 166.44 103.17 168.85 100.12 168.39 94.29 164.85 83.03 163.81 79.73 165.51 76.22 168.73 75.05 170.41 74.44 172.22 74.54 173.82 75.33 175.42 76.12 176.59 77.5 177.11 79.2 182.08 95.36 182.26 104.64 177.74 110.26 173.47 115.57 164.94 117.43 152.18 117.43Z" fill="#FFC58F"/></g></g><circle cx="128.25" cy="110.13" r="3.26" fill="#546E7A"/><g><path d="M128.25 113.88 113.1 113.88C111.03 113.88 109.35 112.2 109.35 110.13 109.35 108.06 111.03 106.38 113.1 106.38L128.25 106.38C130.32 106.38 132 108.06 132 110.13 132 112.2 130.31 113.88 128.25 113.88ZM113.1 107.35C111.57 107.35 110.32 108.6 110.32 110.13 110.32 111.66 111.57 112.91 113.1 112.91L128.25 112.91C129.78 112.91 131.03 111.66 131.03 110.13 131.03 108.6 129.78 107.35 128.25 107.35L113.1 107.35Z" fill="#37474F"/></g><g><path d="M133.08 105.45C130.97 103.79 128.37 102.89 125.69 102.89L120.17 102.89C117.93 102.89 114.42 104.7 114.42 109.46 114.42 112.57 116.52 116.58 121.17 116.58 123.54 116.58 125.46 116.58 127.01 116.58 127.12 116.58 127.23 116.57 127.34 116.54 128.68 116.22 128.32 114.2 126.94 114.27 126.88 114.27 127.3 114.27 127.23 114.27 122.55 114.27 121.4 106.2 127.23 106.2L130.08 106.18C130.08 106.18 135.59 108.74 136.28 107.59L133.08 105.45Z" fill="#FFD6AD"/><path d="M121.16 116.58C123.53 116.58 125.45 116.58 127 116.58 127.11 116.58 127.22 116.57 127.33 116.54 128.67 116.22 128.31 114.2 126.93 114.27 126.87 114.27 127.29 114.27 127.22 114.27 125.07 114.27 123.67 112.57 123.34 110.72L114.52 110.72C115.02 113.56 117.13 116.58 121.16 116.58Z" fill="#FFCB9C"/><g><path d="M127 117.07 121.16 117.07C116.46 117.07 113.92 113.15 113.92 109.45 113.92 104.31 117.75 102.39 120.16 102.39L125.68 102.39C128.18 102.39 130.69 103.26 133.34 105.04 133.99 105.48 135.66 105.52 136.24 105.5 136.51 105.49 136.74 105.7 136.75 105.97 136.76 106.24 136.55 106.47 136.28 106.48 136.03 106.49 133.83 106.55 132.79 105.85 130.3 104.18 127.98 103.37 125.67 103.37L120.15 103.37C118.12 103.37 114.89 105.02 114.89 109.45 114.89 112.01 116.59 116.08 121.15 116.08L127 116.08C127.07 116.08 127.14 116.07 127.21 116.05 127.71 115.93 127.68 115.49 127.66 115.36 127.63 115.15 127.47 114.8 127.08 114.76 127.05 114.76 127.02 114.76 126.99 114.76 126.98 114.76 126.97 114.76 126.95 114.76L126.95 114.76C124.33 114.61 122.77 112.22 122.77 109.91 122.77 108.78 123.15 107.75 123.85 107.01 124.64 106.16 125.81 105.71 127.22 105.71L129.45 105.69C129.45 105.69 129.45 105.69 129.45 105.69 129.72 105.69 129.94 105.91 129.94 106.18 129.94 106.45 129.72 106.67 129.45 106.68L127.22 106.7C124.66 106.7 123.75 108.36 123.75 109.92 123.75 110.89 124.09 111.86 124.69 112.58 125.12 113.1 125.86 113.71 127 113.78 127.04 113.78 127.08 113.78 127.12 113.78 127.14 113.78 127.16 113.78 127.18 113.78 127.19 113.78 127.2 113.78 127.21 113.78L127.21 113.78C127.3 113.78 127.37 113.8 127.44 113.83 128.12 114.02 128.54 114.61 128.63 115.22 128.75 116.07 128.26 116.81 127.43 117.01 127.3 117.05 127.15 117.07 127 117.07Z" fill="#FFC58F"/></g></g><g><path d="M43.89 113.39 31.6 113.39C29.8 113.39 28.34 111.93 28.34 110.13L28.34 110.13C28.34 108.33 29.8 106.87 31.6 106.87L43.89 106.87C45.69 106.87 47.15 108.33 47.15 110.13L47.15 110.13C47.15 111.93 45.69 113.39 43.89 113.39Z" fill="#546E7A"/><path d="M43.89 113.88 31.6 113.88C29.53 113.88 27.85 112.2 27.85 110.13 27.85 108.06 29.53 106.38 31.6 106.38L43.89 106.38C45.96 106.38 47.64 108.06 47.64 110.13 47.64 112.2 45.96 113.88 43.89 113.88ZM31.6 107.35C30.07 107.35 28.82 108.6 28.82 110.13 28.82 111.66 30.07 112.91 31.6 112.91L43.89 112.91C45.42 112.91 46.67 111.66 46.67 110.13 46.67 108.6 45.42 107.35 43.89 107.35L31.6 107.35Z" fill="#37474F"/></g><g><path d="M28.86 108.37C28.53 108.88 28.34 109.49 28.34 110.14L47.16 110.14C47.16 109.49 46.97 108.88 46.64 108.37L28.86 108.37Z" fill="#78909C"/></g><g><path d="M43.89 113.88 31.6 113.88C29.53 113.88 27.85 112.2 27.85 110.13 27.85 108.06 29.53 106.38 31.6 106.38L43.89 106.38C45.96 106.38 47.64 108.06 47.64 110.13 47.64 112.2 45.96 113.88 43.89 113.88ZM31.6 107.35C30.07 107.35 28.82 108.6 28.82 110.13 28.82 111.66 30.07 112.91 31.6 112.91L43.89 112.91C45.42 112.91 46.67 111.66 46.67 110.13 46.67 108.6 45.42 107.35 43.89 107.35L31.6 107.35Z" fill="#37474F"/></g><path d="M47.61 102.71C43.35 102.71 41.48 102.71 36.51 102.71 34.27 102.71 30.76 104.52 30.76 109.28 30.76 112.39 32.86 116.4 37.51 116.4 39.88 116.4 41.8 116.4 43.35 116.4 43.46 116.4 43.57 116.39 43.68 116.36 45.02 116.04 44.66 114.02 43.28 114.09 43.22 114.09 43.17 114.09 43.12 114.09 39.52 114.09 38.63 106.02 43.12 106.02L45.04 106.02 46.23 104.84 47.61 102.71Z" fill="#FFD6AD"/><g><path d="M43.34 116.9 37.5 116.9C32.8 116.9 30.26 112.98 30.26 109.28 30.26 104.14 34.09 102.22 36.5 102.22L46.16 102.22C46.88 102.22 48.76 101.63 49.42 101.41 49.68 101.32 49.96 101.46 50.05 101.72 50.14 101.98 50 102.26 49.74 102.35 49.48 102.44 47.18 103.22 46.16 103.22L36.5 103.22C34.47 103.22 31.24 104.87 31.24 109.3 31.24 111.86 32.94 115.93 37.5 115.93L43.34 115.93C43.41 115.93 43.48 115.92 43.56 115.9 44.06 115.78 44.03 115.34 44.01 115.21 43.98 114.97 43.79 114.58 43.3 114.6 43.23 114.6 43.17 114.61 43.11 114.61 40.9 114.61 39.58 112.14 39.58 109.75 39.58 108.64 39.87 107.63 40.4 106.9 41.03 106.02 41.97 105.55 43.12 105.55L44.31 105.55C44.51 105.56 46.07 105.67 46.76 106.32 46.96 106.51 46.97 106.82 46.78 107.02 46.59 107.22 46.28 107.23 46.08 107.04 45.77 106.75 44.84 106.57 44.27 106.53L43.11 106.53C41.23 106.53 40.56 108.19 40.56 109.75 40.56 111.61 41.53 113.62 43.11 113.62 43.15 113.62 43.2 113.62 43.25 113.62 44.24 113.57 44.87 114.31 44.98 115.07 45.1 115.92 44.61 116.66 43.78 116.86 43.64 116.88 43.49 116.9 43.34 116.9Z" fill="#FFC58F"/></g><path d="M37.5 116.4C39.87 116.4 41.79 116.4 43.34 116.4 43.45 116.4 43.56 116.39 43.67 116.36 45.01 116.04 44.65 114.02 43.27 114.09 43.21 114.09 43.16 114.09 43.11 114.09 41.46 114.09 40.38 112.39 40.13 110.54L30.87 110.54C31.36 113.38 33.47 116.4 37.5 116.4Z" fill="#FFCB9C"/><g><path d="M235.25 163.5 247.65 196.02 246.2 199.05C245.39 200.75 243.67 201.84 241.78 201.84L229.57 201.84 215.98 177.01 235.25 163.5Z" fill="#9C1234"/><path d="M241.78 202.33 229.57 202.33C229.39 202.33 229.23 202.23 229.15 202.08L215.56 177.25C215.44 177.03 215.5 176.76 215.71 176.62L234.98 163.11C235.1 163.02 235.26 163 235.4 163.04 235.54 163.08 235.66 163.19 235.71 163.33L248.11 195.85C248.16 195.97 248.15 196.11 248.09 196.23L246.64 199.26C245.75 201.12 243.84 202.33 241.78 202.33ZM229.85 201.36 241.78 201.36C243.47 201.36 245.04 200.37 245.76 198.85L247.12 196.01 235.01 164.26 216.6 177.17 229.85 201.36Z" fill="#5D4037"/></g><g><path d="M232.95 165.11C232.72 165.27 246.67 198.06 246.67 198.06L247.64 196.02 235.24 163.5 232.95 165.11Z" fill="#C62828"/><path d="M246.67 198.55C246.67 198.55 246.66 198.55 246.66 198.55 246.47 198.55 246.3 198.43 246.23 198.26 246.2 198.18 242.7 189.97 239.28 181.84 237.27 177.07 235.68 173.26 234.55 170.52 232.28 165 232.28 165 232.67 164.72L234.97 163.11C235.09 163.02 235.25 163 235.39 163.04 235.53 163.08 235.65 163.19 235.7 163.33L248.1 195.85C248.15 195.97 248.14 196.11 248.08 196.23L247.11 198.27C247.03 198.44 246.86 198.55 246.67 198.55ZM233.51 165.31C234.38 167.77 241.59 184.86 246.7 196.89L247.12 196 235.01 164.25 233.51 165.31ZM232.95 165.11 232.95 165.11 232.95 165.11Z" fill="#5D4037"/></g><g><path d="M229.4 211.99C229.4 200.53 222.66 190.5 215.46 184.93L215.46 180.31 203.8 180.31 203.8 180.33C190.26 180.73 179.37 194.74 179.37 211.98 179.37 229.47 190.57 243.65 204.39 243.65L215.47 243.65 215.47 239.03C222.66 233.49 229.4 223.45 229.4 211.99Z" fill="#614339"/><path d="M215.47 244.15 204.39 244.15C190.33 244.15 178.89 229.73 178.89 212 178.89 203.56 181.46 195.6 186.13 189.56 190.78 183.54 197.01 180.1 203.66 179.87 203.71 179.86 203.75 179.85 203.8 179.85L215.46 179.85C215.73 179.85 215.94 180.07 215.94 180.33L215.94 184.71C222.71 190.02 229.88 199.93 229.88 212 229.88 224.07 222.72 233.98 215.94 239.29L215.94 243.67C215.95 243.93 215.73 244.15 215.47 244.15ZM203.93 180.81C203.89 180.82 203.85 180.83 203.81 180.83 197.4 181.02 191.39 184.33 186.89 190.15 182.35 196.02 179.86 203.78 179.86 212 179.86 229.2 190.87 243.19 204.39 243.19L214.98 243.19 214.98 239.06C214.98 238.91 215.05 238.77 215.17 238.68 221.82 233.55 228.92 223.84 228.92 212.01 228.92 200.18 221.82 190.47 215.17 185.34 215.05 185.25 214.98 185.11 214.98 184.96L214.98 180.83 203.93 180.83Z" fill="#5D4037"/></g><g><ellipse cx="215.77" cy="211.99" rx="25.02" ry="31.67" fill="#5D4037"/><path d="M215.77 244.15C201.71 244.15 190.27 229.73 190.27 212 190.27 194.27 201.71 179.85 215.77 179.85 229.83 179.85 241.27 194.27 241.27 212 241.27 229.72 229.83 244.15 215.77 244.15ZM215.77 180.81C202.24 180.81 191.24 194.8 191.24 212 191.24 229.2 202.25 243.19 215.77 243.19 229.29 243.19 240.3 229.2 240.3 212 240.3 194.8 229.3 180.81 215.77 180.81Z" fill="#5D4037"/></g><ellipse cx="215.77" cy="211.99" rx="16.76" ry="21.22" fill="#90A4AE"/><path d="M215.77 190.78C206.51 190.78 199.01 200.28 199.01 212 199.01 217.49 200.66 222.5 203.36 226.26 203.63 226.21 203.77 225.93 203.72 225.36 203.08 217.27 218.22 203.32 231.14 204.6L231.46 204.55C229.08 196.51 222.96 190.78 215.77 190.78Z" fill="#78909C"/><g><path d="M215.77 233.7C206.26 233.7 198.53 223.96 198.53 212 198.53 200.03 206.26 190.3 215.77 190.3 225.28 190.3 233.01 200.04 233.01 212 233.01 223.96 225.28 233.7 215.77 233.7ZM215.77 191.26C206.8 191.26 199.49 200.56 199.49 211.99 199.49 223.42 206.79 232.72 215.77 232.72 224.75 232.72 232.05 223.42 232.05 211.99 232.05 200.56 224.74 191.26 215.77 191.26Z" fill="#37474F"/></g><ellipse cx="214.8" cy="211.99" rx="13.38" ry="16.94" fill="#78909C"/><path d="M227.36 206.14C225.48 199.67 220.57 195.06 214.8 195.06 207.41 195.06 201.42 202.64 201.42 212 201.42 215.85 202.43 219.39 204.14 222.24L204.14 222.24C209.56 222.17 224.8 212.55 227.36 206.14Z" fill="#90A4AE"/><g><path d="M214.8 229.42C207.16 229.42 200.94 221.6 200.94 212 200.94 202.39 207.16 194.58 214.8 194.58 222.44 194.58 228.66 202.4 228.66 212 228.67 221.6 222.45 229.42 214.8 229.42ZM214.8 195.54C207.69 195.54 201.9 202.92 201.9 212 201.9 221.07 207.68 228.46 214.8 228.46 221.91 228.46 227.7 221.08 227.7 212 227.7 202.92 221.91 195.54 214.8 195.54Z" fill="#37474F"/></g><g><ellipse cx="215.77" cy="211.99" rx="8.42" ry="10.66" fill="#78909C"/><path d="M215.77 223.14C210.86 223.14 206.86 218.14 206.86 211.99 206.86 205.84 210.86 200.84 215.77 200.84 220.68 200.84 224.68 205.84 224.68 211.99 224.68 218.14 220.68 223.14 215.77 223.14ZM215.77 201.81C211.39 201.81 207.83 206.38 207.83 211.99 207.83 217.6 211.39 222.17 215.77 222.17 220.15 222.17 223.71 217.6 223.71 211.99 223.71 206.38 220.15 201.81 215.77 201.81Z" fill="#37474F"/></g><g><path d="M218.52 209.25 218.52 209.25C217.55 207.81 216.04 206.83 214.33 206.52L180.52 200.46 161.93 216.82 214.49 216.82C215.39 216.82 216.28 216.57 217.04 216.1 219.4 214.65 220.07 211.54 218.52 209.25Z" fill="#455A64"/><path d="M214.5 217.31 161.94 217.31C161.74 217.31 161.56 217.19 161.49 217 161.42 216.81 161.47 216.6 161.62 216.47L180.21 200.11C180.32 200.01 180.47 199.97 180.61 200L214.42 206.06C216.24 206.39 217.88 207.45 218.92 208.99L218.92 208.99C219.74 210.21 220.02 211.67 219.72 213.1 219.41 214.53 218.55 215.75 217.31 216.52 216.46 217.03 215.49 217.31 214.5 217.31ZM163.21 216.34 214.49 216.34C215.3 216.34 216.1 216.11 216.79 215.69 217.81 215.06 218.51 214.06 218.77 212.89 219.02 211.71 218.79 210.52 218.12 209.52 217.23 208.2 215.82 207.28 214.25 207L180.67 200.98 163.21 216.34Z" fill="#37474F"/></g><g><path d="M236 186.94 231.57 193.93C231.4 194.2 231.17 194.43 230.89 194.6L229.69 195.36 222.53 183.96 223.73 183.2C224 183.03 224.31 182.92 224.63 182.88L232.85 181.93C232.85 181.93 234.62 181.62 235.83 183.55 237.05 185.48 236 186.94 236 186.94Z" fill="#546E7A"/><path d="M227.21 191.41 229.69 195.36 230.89 194.6C231.16 194.43 231.39 194.2 231.57 193.93L236 186.94C236 186.94 237.05 185.48 235.84 183.55L231.67 188.64 227.21 191.41Z" fill="#455A64"/><g><path d="M229.69 195.85C229.65 195.85 229.62 195.85 229.58 195.84 229.46 195.81 229.35 195.73 229.28 195.63L222.12 184.23C222.05 184.12 222.03 183.99 222.06 183.87 222.09 183.74 222.17 183.64 222.27 183.57L223.47 182.81C223.8 182.6 224.18 182.47 224.57 182.42L232.79 181.47C232.85 181.46 234.87 181.13 236.24 183.31 237.56 185.4 236.52 187.03 236.4 187.22L231.98 194.21C231.77 194.54 231.48 194.83 231.15 195.03L229.95 195.79C229.87 195.82 229.78 195.85 229.69 195.85ZM223.2 184.11 229.85 194.69 230.65 194.19C230.86 194.06 231.04 193.88 231.18 193.67L235.61 186.68C235.61 186.67 235.62 186.67 235.62 186.66 235.66 186.6 236.45 185.42 235.44 183.81 234.43 182.2 233.01 182.4 232.95 182.41L224.7 183.37C224.45 183.4 224.21 183.48 224 183.62L223.2 184.11Z" fill="#37474F"/></g><path d="M230.77 186.73C232.75 189.88 232.44 193.63 230.07 195.12L198.21 215.13C195.85 216.61 192.33 215.26 190.35 212.11 188.37 208.96 188.68 205.21 191.04 203.72L222.9 183.71C225.27 182.24 228.79 183.59 230.77 186.73Z" fill="#546E7A"/><path d="M231.67 188.64 199.5 208.64 195.11 215.64C196.21 215.85 197.3 215.71 198.21 215.14L230.07 195.13C231.97 193.93 232.54 191.27 231.67 188.64Z" fill="#455A64"/><g><path d="M196.06 216.22C195.39 216.22 194.68 216.08 193.97 215.81 192.39 215.2 190.96 213.98 189.95 212.37 188.94 210.76 188.46 208.94 188.6 207.26 188.74 205.52 189.52 204.12 190.8 203.32L222.66 183.31C223.94 182.51 225.54 182.41 227.17 183.04 228.75 183.65 230.18 184.87 231.19 186.48 232.2 188.09 232.68 189.91 232.54 191.6 232.4 193.34 231.61 194.74 230.34 195.54L198.48 215.55C197.75 216 196.93 216.22 196.06 216.22ZM225.07 183.6C224.37 183.6 223.72 183.78 223.16 184.13L191.3 204.14C190.29 204.77 189.67 205.91 189.55 207.34 189.43 208.82 189.86 210.43 190.76 211.86 191.66 213.29 192.92 214.38 194.31 214.91 195.65 215.42 196.94 215.36 197.95 214.72L229.81 194.71C230.82 194.07 231.44 192.94 231.56 191.51 231.68 190.03 231.25 188.42 230.35 186.99 229.45 185.56 228.19 184.47 226.8 183.94 226.22 183.71 225.63 183.6 225.07 183.6Z" fill="#37474F"/></g><g><path d="M190.93 203.82C188.63 205.27 188.42 209.03 190.36 212.12 192.3 215.21 195.78 216.65 198.08 215.21 200.39 213.76 200.59 210 198.65 206.91 196.71 203.82 193.23 202.37 190.93 203.82Z" fill="#455A64"/><path d="M196.05 216.25C193.89 216.25 191.48 214.82 189.95 212.37 187.84 209.01 188.16 204.98 190.67 203.41L190.67 203.41C191.91 202.63 193.49 202.56 195.11 203.21 196.66 203.84 198.07 205.06 199.06 206.65 200.06 208.24 200.55 210.03 200.44 211.7 200.33 213.44 199.58 214.83 198.34 215.61 197.65 216.05 196.86 216.25 196.05 216.25ZM191.18 204.23C189.15 205.5 188.96 209 190.76 211.86 192.56 214.72 195.79 216.07 197.82 214.8 198.79 214.19 199.38 213.07 199.47 211.64 199.57 210.17 199.13 208.58 198.24 207.16 197.35 205.74 196.11 204.66 194.74 204.11 193.42 203.58 192.16 203.62 191.18 204.23L191.18 204.23Z" fill="#37474F"/></g><path d="M196.17 208.47C195.39 207.23 193.99 206.65 193.07 207.23L181.89 214.25C180.25 215.28 178.36 215.83 176.42 215.83L160.36 215.83 160.36 221.64 175.92 221.64C178.77 221.64 181.56 220.84 183.97 219.32L195.94 211.8C196.87 211.22 196.95 209.71 196.17 208.47Z" fill="#546E7A"/><path d="M181.89 214.25C180.25 215.28 178.36 215.83 176.42 215.83L160.36 215.83 160.36 221.64 175.92 221.64C178.77 221.64 181.56 220.84 183.97 219.32L195.94 211.8C196.87 211.22 196.95 209.71 196.17 208.47 196.17 208.47 185.51 215.25 183.34 216.45 181.16 217.66 179.82 215.55 181.89 214.25Z" fill="#455A64"/><g><path d="M175.92 222.12 160.36 222.12C160.09 222.12 159.88 221.9 159.88 221.64L159.88 215.83C159.88 215.56 160.1 215.35 160.36 215.35L176.42 215.35C178.27 215.35 180.07 214.83 181.63 213.85L192.81 206.83C193.39 206.47 194.12 206.43 194.85 206.73 195.53 207 196.14 207.54 196.57 208.22 197.5 209.71 197.33 211.5 196.19 212.22L184.22 219.74C181.73 221.29 178.86 222.12 175.92 222.12ZM160.85 221.15 175.92 221.15C178.68 221.15 181.37 220.37 183.71 218.91L195.68 211.39C196.36 210.96 196.4 209.74 195.76 208.72 195.44 208.21 194.98 207.8 194.49 207.61 194.05 207.43 193.63 207.44 193.32 207.64L182.14 214.66C180.42 215.74 178.44 216.31 176.41 216.31L160.84 216.31 160.84 221.15Z" fill="#37474F"/></g></g><path d="M114.56 225.36 153.94 225.36C155.52 225.36 157.04 224.72 158.14 223.58 164.39 217.1 186.78 194.6 206.67 183.72 209.6 177.69 148.87 168.99 148.87 168.99L112.63 196.05 114.56 225.36Z" fill="#C62828"/><path d="M194.5 185.73 158.26 216.2C155.41 218.59 151.81 219.91 148.09 219.91L136.94 219.91C136.94 219.91 140.16 215.56 147.58 205.72 147.58 205.72 128.69 209.77 113.74 212.97L114.56 225.35 153.94 225.35C155.52 225.35 157.03 224.71 158.13 223.57 164.01 217.47 184.22 197.16 203.17 185.72L194.5 185.72Z" fill="#B71C1C"/><path d="M204.31 185.05 206.61 182.75C206.46 182.48 206.22 182.2 205.87 181.92L131.52 181.92 112.61 196.04 113.09 203.33 134.56 203.25 146.15 192.03C148.4 189.85 151.41 188.63 154.55 188.63L198.6 188.63C200.52 187.36 202.42 186.16 204.31 185.05Z" fill="#E53935"/><g><path d="M153.94 225.84 114.56 225.84C114.31 225.84 114.09 225.64 114.08 225.39L112.15 196.07C112.14 195.91 112.21 195.75 112.34 195.65L148.58 168.59C148.68 168.51 148.81 168.48 148.94 168.5 154.55 169.3 203.87 176.53 207.06 182.53 207.31 183 207.32 183.48 207.11 183.93 207.07 184.02 207 184.09 206.91 184.14 187.13 194.96 164.85 217.32 158.49 223.92 157.3 225.14 155.64 225.84 153.94 225.84ZM115.01 224.88 153.94 224.88C155.38 224.88 156.79 224.28 157.79 223.25 164.16 216.65 186.43 194.31 206.28 183.38 206.3 183.28 206.29 183.15 206.2 182.99 203.71 178.3 164.26 171.69 148.99 169.5L113.12 196.29 115.01 224.88Z" fill="#5D4037"/></g><path d="M212.7 137.29 208.64 134.14C206.73 132.66 204.38 131.85 201.96 131.85L187.93 131.85C184.21 131.85 180.7 133.61 178.48 136.59L173.56 143.2 211.62 143.2 212.7 137.29Z" fill="#6D4C41"/><path d="M202.48 131.87C202.31 131.86 202.13 131.85 201.96 131.85L187.93 131.85C184.21 131.85 180.7 133.61 178.48 136.59L173.56 143.2 196.31 143.2C196.3 143.21 199.51 132.33 202.48 131.87Z" fill="#80594C"/><g><path d="M211.61 143.69 173.55 143.69C173.37 143.69 173.2 143.59 173.12 143.42 173.04 143.26 173.05 143.06 173.16 142.91L178.08 136.3C180.38 133.21 184.06 131.36 187.92 131.36L201.95 131.36C204.46 131.36 206.94 132.21 208.93 133.75L212.99 136.9C213.13 137.01 213.2 137.19 213.17 137.37L212.08 143.29C212.04 143.52 211.84 143.69 211.61 143.69ZM174.51 142.72 211.2 142.72 212.16 137.49 208.33 134.52C206.51 133.11 204.25 132.33 201.95 132.33L187.92 132.33C184.37 132.33 180.98 134.03 178.86 136.88L174.51 142.72Z" fill="#5D4037"/></g><path d="M111.04 163.5C107.96 163.5 107.68 159.27 109.53 157.22 110.51 156.13 118.73 149.18 123.11 145.5 124.87 144.02 127.1 143.21 129.4 143.21L196.31 143.21C197.4 143.21 198.47 142.94 199.43 142.44L208.56 137.63C208.98 137.41 209.44 137.3 209.91 137.3L225.15 137.3C226.37 137.3 227.47 138.07 227.88 139.22L228.28 140.32 228.28 152.64 142.99 170.88 111.04 163.5Z" fill="#5D4037"/><path d="M199.42 142.44C198.46 142.95 197.38 143.21 196.29 143.21L129.38 143.21C127.08 143.21 124.86 144.02 123.1 145.5 118.72 149.19 110.5 156.14 109.52 157.23 109 157.81 108.66 158.56 108.49 159.34L129.86 159.34C131.73 159.34 133.52 158.53 134.74 157.1 137.6 153.75 143.26 147.82 147.42 147.82 153.22 147.82 183.5 147.82 191.88 147.82 200.26 147.82 206.85 146.94 210.57 143.22 214.29 139.5 212.02 137.3 209.92 137.3 209.45 137.3 208.98 137.41 208.57 137.63L199.42 142.44Z" fill="#6D4C41"/><g><path d="M142.99 171.36C142.95 171.36 142.92 171.36 142.88 171.35L110.98 163.99C109.72 163.97 108.75 163.34 108.25 162.19 107.52 160.56 107.92 158.29 109.17 156.9 110.16 155.8 118.13 149.05 122.8 145.13 124.64 143.58 126.99 142.73 129.4 142.73L196.31 142.73C197.32 142.73 198.32 142.48 199.21 142.01L208.34 137.2C208.82 136.94 209.37 136.81 209.92 136.81L225.16 136.81C226.58 136.81 227.86 137.71 228.34 139.05L228.74 140.15C228.76 140.2 228.77 140.26 228.77 140.31L228.77 152.63C228.77 152.86 228.61 153.05 228.39 153.1L143.1 171.34C143.05 171.35 143.02 171.36 142.99 171.36ZM129.39 143.69C127.21 143.69 125.09 144.46 123.42 145.87 115.51 152.52 110.58 156.78 109.89 157.55 108.9 158.66 108.57 160.52 109.14 161.8 109.39 162.36 109.92 163.02 111.05 163.02 111.09 163.02 111.12 163.02 111.16 163.03L143.01 170.38 227.82 152.24 227.82 140.39 227.45 139.37C227.11 138.41 226.19 137.77 225.17 137.77L209.93 137.77C209.54 137.77 209.15 137.87 208.8 138.05L199.67 142.86C198.64 143.4 197.48 143.69 196.32 143.69L129.39 143.69Z" fill="#5D4037"/></g><g><path d="M177.96 137.29 173.55 143.21 161.99 143.21C163.08 143.21 164.15 142.94 165.12 142.44L174.25 137.63C174.67 137.41 175.13 137.3 175.6 137.3L177.96 137.3Z" fill="#6D4C41"/><path d="M173.55 143.69 161.99 143.69C161.72 143.69 161.51 143.47 161.51 143.21 161.51 142.94 161.73 142.73 161.99 142.73 162.99 142.73 164 142.48 164.89 142.01L174.02 137.2C174.51 136.95 175.05 136.81 175.59 136.81L177.95 136.81C178.13 136.81 178.3 136.91 178.38 137.08 178.46 137.24 178.45 137.44 178.34 137.59L173.93 143.51C173.85 143.62 173.7 143.69 173.55 143.69ZM165.6 142.72 173.31 142.72 177 137.77 175.6 137.77C175.21 137.77 174.82 137.87 174.48 138.05L165.6 142.72Z" fill="#5D4037"/></g><g><path d="M111.04 171.84 111.04 163.5 134.57 163.5 134.57 178.24 111.04 178.24Z" fill="#EF6C00"/><path d="M134.57 178.73 111.03 178.73C110.76 178.73 110.55 178.51 110.55 178.25L110.55 163.5C110.55 163.23 110.77 163.02 111.03 163.02L134.57 163.02C134.84 163.02 135.05 163.24 135.05 163.5L135.05 178.24C135.05 178.51 134.84 178.73 134.57 178.73ZM111.52 177.76 134.09 177.76 134.09 163.99 111.52 163.99 111.52 177.76Z" fill="#5D4037"/></g><g><path d="M73.3 225.36 42.71 225.36 18.32 173.49 42.55 173.49C53.8 173.49 70.68 183.15 71.21 223.29 71.22 224.44 72.16 225.36 73.3 225.36Z" fill="#9C1234"/><path d="M73.3 225.84 42.71 225.84C42.52 225.84 42.35 225.73 42.27 225.56L17.88 173.7C17.81 173.55 17.82 173.37 17.91 173.24 18 173.1 18.15 173.02 18.32 173.02L42.55 173.02C46.68 173.02 54.59 174.32 61.28 183.06 67.95 191.77 71.45 205.31 71.69 223.3 71.7 224.18 72.42 224.89 73.3 224.89 73.57 224.89 73.78 225.11 73.78 225.37 73.78 225.63 73.57 225.84 73.3 225.84ZM43.02 224.88 71.3 224.88C70.95 224.45 70.74 223.9 70.73 223.3 70.5 205.52 67.06 192.17 60.52 183.63 54.08 175.23 46.5 173.97 42.55 173.97L19.08 173.97 43.02 224.88Z" fill="#5D4037"/></g><g><path d="M50.51 211.99C50.51 200.53 43.77 190.5 36.57 184.93L36.57 180.31 24.91 180.31 24.91 180.33C11.37 180.73 0.48 194.74 0.48 211.98 0.48 229.47 11.68 243.65 25.5 243.65L36.58 243.65 36.58 239.03C43.77 233.49 50.51 223.45 50.51 211.99Z" fill="#6D4C41"/><path d="M36.57 244.15 25.5 244.15C11.44 244.15 0 229.73 0 212 0 203.56 2.57 195.6 7.24 189.56 11.89 183.54 18.12 180.1 24.78 179.87 24.82 179.86 24.87 179.85 24.92 179.85L36.58 179.85C36.85 179.85 37.06 180.07 37.06 180.33L37.06 184.71C43.83 190.01 51 199.92 51 211.99 51 224.06 43.84 233.97 37.06 239.28L37.06 243.66C37.06 243.93 36.84 244.15 36.57 244.15ZM25.04 180.81C25 180.82 24.96 180.83 24.92 180.83 18.51 181.02 12.5 184.33 8 190.15 3.46 196.02 0.97 203.78 0.97 212 0.97 229.2 11.98 243.19 25.5 243.19L36.09 243.19 36.09 239.06C36.09 238.91 36.16 238.77 36.28 238.68 42.93 233.55 50.03 223.84 50.03 212.01 50.03 200.18 42.93 190.47 36.28 185.34 36.16 185.25 36.09 185.11 36.09 184.96L36.09 180.83 25.04 180.83Z" fill="#5D4037"/></g><g><ellipse cx="36.88" cy="211.99" rx="25.02" ry="31.67" fill="#5D4037"/><path d="M36.88 244.15C22.82 244.15 11.38 229.73 11.38 212 11.38 194.27 22.82 179.85 36.88 179.85 50.94 179.85 62.38 194.27 62.38 212 62.38 229.72 50.94 244.15 36.88 244.15ZM36.88 180.81C23.35 180.81 12.35 194.8 12.35 212 12.35 229.2 23.36 243.19 36.88 243.19 50.4 243.19 61.41 229.2 61.41 212 61.41 194.8 50.41 180.81 36.88 180.81Z" fill="#5D4037"/></g><ellipse cx="36.88" cy="211.99" rx="16.76" ry="21.22" fill="#90A4AE"/><path d="M36.88 190.78C27.62 190.78 20.12 200.28 20.12 212 20.12 217.49 21.77 222.5 24.47 226.26 24.74 226.21 24.88 225.93 24.83 225.36 24.19 217.27 39.33 203.32 52.25 204.6L52.57 204.55C50.19 196.51 44.07 190.78 36.88 190.78Z" fill="#78909C"/><g><path d="M36.88 233.7C27.37 233.7 19.64 223.96 19.64 212 19.64 200.03 27.37 190.3 36.88 190.3 46.39 190.3 54.12 200.04 54.12 212 54.12 223.96 46.39 233.7 36.88 233.7ZM36.88 191.26C27.91 191.26 20.61 200.56 20.61 211.99 20.61 223.42 27.91 232.72 36.88 232.72 45.85 232.72 53.16 223.42 53.16 211.99 53.15 200.56 45.85 191.26 36.88 191.26Z" fill="#37474F"/></g><ellipse cx="35.91" cy="211.99" rx="13.38" ry="16.94" fill="#78909C"/><path d="M48.47 206.14C46.59 199.67 41.68 195.06 35.91 195.06 28.52 195.06 22.53 202.64 22.53 212 22.53 215.85 23.54 219.39 25.25 222.24L25.25 222.24C30.66 222.17 45.91 212.55 48.47 206.14Z" fill="#90A4AE"/><g><path d="M35.91 229.42C28.27 229.42 22.05 221.6 22.05 212 22.05 202.39 28.27 194.58 35.91 194.58 43.55 194.58 49.77 202.4 49.77 212 49.78 221.6 43.56 229.42 35.91 229.42ZM35.91 195.54C28.8 195.54 23.01 202.92 23.01 212 23.01 221.07 28.8 228.46 35.91 228.46 43.02 228.46 48.81 221.08 48.81 212 48.81 202.92 43.02 195.54 35.91 195.54Z" fill="#37474F"/></g><g><ellipse cx="36.88" cy="211.99" rx="8.42" ry="10.66" fill="#78909C"/><path d="M36.88 223.14C31.97 223.14 27.97 218.14 27.97 211.99 27.97 205.84 31.97 200.84 36.88 200.84 41.79 200.84 45.79 205.84 45.79 211.99 45.79 218.14 41.79 223.14 36.88 223.14ZM36.88 201.81C32.5 201.81 28.94 206.38 28.94 211.99 28.94 217.6 32.5 222.17 36.88 222.17 41.26 222.17 44.82 217.6 44.82 211.99 44.82 206.38 41.26 201.81 36.88 201.81Z" fill="#37474F"/></g><path d="M35.69 215.26 35.69 215.26C34.11 214.54 33.41 212.68 34.12 211.1L54.58 165.9 60.3 168.49 39.84 213.69C39.13 215.27 37.27 215.97 35.69 215.26Z" fill="#90A4AE"/><path d="M48.34 179.69 48.34 179.69 34.13 211.1C33.79 211.85 33.77 212.67 34.02 213.4L34.06 213.4C35.7 213.4 37.19 212.45 37.88 210.96L52.27 179.7C52.26 179.69 50.93 178.64 48.34 179.69Z" fill="#B0BEC5"/><g><path d="M36.98 216.02C36.47 216.02 35.96 215.91 35.49 215.7L35.49 215.7C34.61 215.3 33.93 214.58 33.59 213.68 33.25 212.77 33.28 211.79 33.68 210.91L54.14 165.71C54.19 165.59 54.29 165.5 54.41 165.46 54.53 165.41 54.66 165.42 54.78 165.47L60.5 168.06C60.74 168.17 60.85 168.46 60.74 168.7L40.28 213.9C39.88 214.78 39.16 215.46 38.26 215.8 37.85 215.94 37.42 216.02 36.98 216.02ZM54.83 166.54 34.57 211.3C34.28 211.95 34.25 212.67 34.5 213.33 34.75 213.99 35.24 214.52 35.89 214.81 35.89 214.81 35.89 214.81 35.89 214.81 37.23 215.41 38.8 214.82 39.41 213.48L59.67 168.72 54.83 166.54Z" fill="#37474F"/></g><path d="M18.23 173.49C13.88 150.46 34.34 120.01 35.79 118.56 37.24 117.11 43.68 117.43 46.82 113.08 50.05 108.6 53.37 103.03 55.61 100.35 61.89 92.83 84.01 86.5 91.21 103.09 96.53 115.33 104.26 116.14 105.39 118.55 106.52 120.97 107.81 128.21 98.14 137.24 88.47 146.26 62.09 168.95 54.3 171.41 46.5 173.88 18.23 173.49 18.23 173.49Z" fill="#F57C00"/><path d="M23.04 161.49 23.04 164.26C23.04 164.26 23.62 168.49 24.71 168.49 25.8 168.49 41.87 168.49 42.83 168.49 43.79 168.49 47.88 162.95 47.88 161.49 47.89 160.03 23.04 161.49 23.04 161.49Z" fill="#FFA000"/><path d="M91.2 103.1C84 86.51 61.88 92.85 55.6 100.36 53.36 103.03 50.04 108.61 46.81 113.09 43.68 117.44 37.23 117.12 35.78 118.57 35.2 119.15 31.59 124.35 27.74 131.86L27.74 131.86C23.13 147.36 22.53 152.55 22.53 152.55 21.2 153.03 20.12 154.09 20.12 154.09L23.04 156.54C24.15 156.09 25.92 154.66 27.1 153.65 27.92 152.94 28.98 152.56 30.06 152.56L48.11 152.56C49.97 152.56 51.5 154.03 51.58 155.88L51.58 155.94C51.67 157.94 56.58 156.54 56.58 156.54 56.58 156.54 60.55 154.34 61.38 153.76 74.23 144.68 92.88 132.56 103.62 116.99 100.79 115.16 95.28 112.5 91.2 103.1Z" fill="#FFA000"/><path d="M73.3 225.36 120.06 225.36C122.23 225.36 124.33 224.61 126.01 223.25L147.57 205.73C148.54 204.94 147.98 203.38 146.73 203.38L99.9 203.38 70.1 161.09 50.52 171.85 65.43 186.87 73.31 202.5 73.3 225.36Z" fill="#F57C00"/><path d="M148.07 204.6 145.33 205.72 126.89 218.21C124.94 219.53 122.65 220.23 120.3 220.23L73.3 220.23 73.3 225.35 120.06 225.35C122.23 225.35 124.33 224.6 126.01 223.24L147.57 205.72C147.95 205.42 148.1 205 148.07 204.6Z" fill="#EF6C00"/><path d="M146.75 203.37 99.9 203.37 95.42 197.01 89.57 199.03C89.57 199.03 92.25 205.72 97.15 205.72 102.05 205.72 137.2 205.72 147.59 205.72 148.55 204.94 147.99 203.37 146.75 203.37Z" fill="#FFA000"/><g><path d="M120.06 225.84 73.3 225.84C73.03 225.84 72.82 225.62 72.82 225.36L72.82 202.6 65.03 187.15 50.17 172.18C50.06 172.07 50.01 171.92 50.03 171.77 50.05 171.62 50.14 171.49 50.28 171.42L69.86 160.66C70.08 160.54 70.35 160.6 70.49 160.81L100.15 202.89 146.75 202.89C147.53 202.89 148.19 203.36 148.45 204.09 148.71 204.82 148.49 205.61 147.89 206.1L126.33 223.62C124.56 225.05 122.34 225.84 120.06 225.84ZM73.79 224.88 120.07 224.88C122.12 224.88 124.13 224.17 125.72 222.87L147.28 205.35C147.62 205.07 147.64 204.69 147.54 204.42 147.44 204.15 147.19 203.86 146.75 203.86L99.9 203.86C99.74 203.86 99.6 203.78 99.5 203.65L69.95 161.72 51.31 171.96 65.77 186.53C65.81 186.57 65.84 186.61 65.86 186.65L73.74 202.28C73.77 202.35 73.79 202.42 73.79 202.5L73.79 224.88Z" fill="#5D4037"/></g><g><path d="M22.72 174C20.18 174 18.49 173.98 18.22 173.97 17.99 173.97 17.79 173.8 17.75 173.58 15.46 161.43 20.09 147.38 24.39 137.73 29.08 127.21 34.57 119.09 35.44 118.21 36.05 117.6 37.23 117.3 38.73 116.92 41.3 116.27 44.5 115.45 46.42 112.79 47.81 110.87 49.2 108.76 50.55 106.72 52.3 104.08 53.94 101.58 55.23 100.04 59.15 95.35 68.94 91.08 77.9 92.38 82.37 93.02 88.37 95.37 91.64 102.9 95.28 111.27 100.12 114.24 103.01 116.02 104.4 116.87 105.41 117.49 105.81 118.36 106.48 119.8 109.28 127.49 98.45 137.6 88.74 146.66 62.28 169.4 54.43 171.88 48.47 173.76 31.05 174 22.72 174ZM18.63 173.01C22.09 173.04 47.01 173.21 54.14 170.96 61.84 168.53 88.13 145.91 97.79 136.89 108.35 127.03 105.31 119.58 104.93 118.76 104.65 118.16 103.7 117.57 102.5 116.84 99.51 115.01 94.51 111.94 90.75 103.29 87.66 96.17 81.98 93.95 77.76 93.34 69.4 92.13 59.74 96.15 55.97 100.67 54.72 102.17 53.08 104.64 51.35 107.26 50 109.31 48.6 111.42 47.2 113.36 45.08 116.31 41.55 117.2 38.97 117.86 37.67 118.19 36.55 118.48 36.13 118.9 34.54 120.49 14.68 150.55 18.63 173.01Z" fill="#5D4037"/></g><path d="M22.12 93.11 33.67 93.11C35.54 93.11 37.06 95.08 37.06 97.5L37.06 100.37C37.06 101.41 37.38 102.4 37.96 103.12 40.14 105.86 45.81 112.51 49.52 112.51 50.65 112.51 51.56 114.01 51.56 115.85 51.56 117.7 50.65 119.19 49.52 119.19 44.64 119.19 37.96 108.35 35.44 104.87 34.94 104.18 34.28 103.74 33.56 103.62L24.65 102.13C22.66 101.8 21.05 99.9 20.61 97.37L20.36 95.98C20.08 94.52 20.95 93.11 22.12 93.11Z" fill="#546E7A"/><path d="M34.85 93.39C34.48 93.21 34.08 93.11 33.66 93.11L22.12 93.11C21.39 93.11 20.79 93.65 20.49 94.42 21.26 98.68 23.21 99.06 25.8 99.43 27.46 99.67 29.6 99.94 31.35 100.16 33.36 100.41 35.18 99.01 35.47 97 35.68 95.56 35.65 94.08 34.85 93.39Z" fill="#78909C"/><g><path d="M49.51 119.69C45.04 119.69 39.56 111.72 36.29 106.96 35.8 106.25 35.38 105.64 35.04 105.17 34.62 104.59 34.06 104.21 33.47 104.11L24.56 102.62C22.38 102.26 20.6 100.18 20.12 97.47L19.87 96.08C19.7 95.11 19.94 94.12 20.52 93.43 20.95 92.92 21.52 92.64 22.12 92.64L33.67 92.64C35.81 92.64 37.55 94.83 37.55 97.52L37.55 100.39C37.55 101.32 37.84 102.21 38.34 102.84 40.06 105 45.94 112.05 49.52 112.05 50.93 112.05 52.04 113.73 52.04 115.88 52.03 118.01 50.92 119.69 49.51 119.69ZM22.12 93.59C21.72 93.59 21.43 93.83 21.26 94.04 20.87 94.51 20.7 95.22 20.82 95.9L21.07 97.29C21.48 99.6 22.94 101.36 24.72 101.66L33.63 103.15C34.47 103.29 35.25 103.8 35.82 104.59 36.17 105.07 36.59 105.69 37.08 106.4 40.04 110.7 45.55 118.71 49.51 118.71 50.34 118.71 51.06 117.37 51.06 115.85 51.06 114.33 50.33 112.99 49.51 112.99 45.75 112.99 40.42 106.99 37.58 103.42 36.93 102.61 36.58 101.52 36.58 100.37L36.58 97.5C36.58 95.34 35.28 93.59 33.67 93.59L22.12 93.59Z" fill="#37474F"/></g><g><path d="M84.43 114.08C86.32 111.5 89.09 108.27 92.08 104.98 91.78 104.38 91.49 103.76 91.2 103.1 84 86.51 61.88 92.85 55.6 100.36 53.36 103.03 50.04 108.61 46.81 113.09 46.55 113.45 46.26 113.78 45.96 114.08L45.96 114.08C35.74 130.55 29.27 146.72 36.88 146.72 48.51 146.71 77.83 123.13 84.43 114.08Z" fill="#C62828"/><path d="M36.88 147.2C35.38 147.2 34.3 146.63 33.68 145.5 30.97 140.62 38.04 125.94 45.56 113.82 45.58 113.79 45.6 113.76 45.63 113.73 45.94 113.43 46.2 113.12 46.43 112.8 47.82 110.88 49.21 108.77 50.56 106.73 52.31 104.09 53.95 101.59 55.24 100.05 59.16 95.36 68.95 91.09 77.91 92.39 82.38 93.03 88.38 95.38 91.65 102.91 91.91 103.51 92.2 104.12 92.52 104.76 92.61 104.94 92.58 105.15 92.45 105.3 89.09 109 86.52 112.05 84.84 114.36L84.84 114.36C78.48 123.06 48.93 147.2 36.88 147.2ZM46.34 114.38C37.09 129.29 32.45 141.32 34.52 145.03 34.97 145.84 35.74 146.23 36.88 146.23 41.86 146.23 51.11 141.55 62.26 133.4 71.55 126.6 80.72 118.36 84.05 113.79L84.05 113.79C85.72 111.5 88.23 108.51 91.51 104.89 91.24 104.34 90.99 103.81 90.77 103.29 87.68 96.17 82 93.95 77.78 93.34 69.42 92.13 59.76 96.15 55.99 100.67 54.74 102.17 53.1 104.64 51.37 107.26 50.02 109.31 48.62 111.42 47.22 113.36 46.95 113.72 46.67 114.05 46.34 114.38Z" fill="#5D4037"/></g><g><path d="M42.55 173.49C53.8 173.49 70.69 183.15 71.21 223.29 71.22 224.43 72.16 225.36 73.3 225.36L73.3 225.36C74.47 225.36 75.41 224.4 75.4 223.23 74.99 190.39 64.76 174.72 51.55 170.32L42.55 173.49Z" fill="#EF6C00"/><path d="M73.3 225.84C71.9 225.84 70.74 224.7 70.72 223.3 70.49 205.52 67.05 192.17 60.51 183.63 54.07 175.23 46.49 173.97 42.54 173.97 42.3 173.97 42.1 173.8 42.06 173.57 42.02 173.34 42.15 173.11 42.38 173.03L51.37 169.86C51.47 169.82 51.58 169.82 51.68 169.86 58.87 172.25 64.59 177.65 68.69 185.89 73.26 195.08 75.67 207.64 75.87 223.22 75.88 223.92 75.61 224.58 75.12 225.07 74.65 225.57 74 225.84 73.3 225.84ZM44.97 173.15C49.34 173.67 55.74 175.8 61.29 183.04 67.96 191.75 71.46 205.29 71.7 223.28 71.71 224.16 72.43 224.87 73.31 224.87 73.74 224.87 74.15 224.7 74.45 224.39 74.76 224.08 74.92 223.67 74.92 223.23 74.73 207.8 72.35 195.38 67.84 186.32 63.89 178.37 58.41 173.16 51.55 170.83L44.97 173.15Z" fill="#5D4037"/></g><g><path d="M54.29 171.42C62.08 168.96 88.46 146.27 98.13 137.25 105.83 130.06 106.58 124 105.99 120.61 89.27 139.51 57.57 166.15 48.84 168.98 40.3 171.75 17.99 173.62 17.63 167.05 17.63 167.05 17.45 172.66 18.33 173.49 19.19 174.33 41.54 177.37 54.29 171.42L54.29 171.42Z" fill="#EF6C00"/><path d="M33.2 175.51C25.22 175.51 18.6 174.44 17.98 173.84 17.02 172.93 17.09 168.4 17.13 167.03 17.14 166.77 17.35 166.57 17.61 166.56 17.61 166.56 17.61 166.56 17.62 166.56 17.88 166.56 18.09 166.76 18.1 167.02 18.14 167.82 18.57 168.48 19.41 169.06 24.53 172.57 41.69 170.79 48.68 168.52 57.47 165.67 89.39 138.62 105.62 120.28 105.74 120.14 105.93 120.08 106.11 120.14 106.29 120.19 106.42 120.34 106.45 120.52 106.98 123.61 106.65 129.93 98.44 137.6 88.74 146.65 62.34 169.34 54.45 171.87 48.47 174.66 40.3 175.51 33.2 175.51ZM18.64 173.13C19.88 173.79 41.49 176.87 54.09 170.99 54.11 170.98 54.13 170.97 54.15 170.97 61.85 168.54 88.14 145.92 97.8 136.9 104.83 130.34 105.86 124.89 105.64 121.73 88.82 140.49 57.95 166.54 48.99 169.44 41.67 171.82 24.32 173.59 18.88 169.86 18.59 169.66 18.33 169.44 18.11 169.21 18.15 171.09 18.33 172.78 18.64 173.13Z" fill="#5D4037"/></g><g><path d="M54.49 119.21C55.12 119.21 55.75 119.11 56.35 118.92 86.3 109.41 91.08 102.57 94.9 97.94 98.77 93.27 108.43 78.29 107.63 70.56 106.72 61.78 89.59 58.64 79.28 69.59 72.39 76.91 59.5 93.7 57.21 97.46 55.15 100.84 49.88 110.4 49.32 117.09 49.22 118.23 50.15 119.2 51.3 119.2L54.49 119.2Z" fill="#9FA8DA"/><path d="M54.49 119.69 51.3 119.69C50.61 119.69 49.94 119.4 49.47 118.89 49.01 118.38 48.78 117.73 48.84 117.06 49.48 109.4 56.05 98.44 56.8 97.22 59.09 93.46 72.04 76.59 78.93 69.27 85.66 62.12 95.13 61.03 101.08 63.04 105.2 64.43 107.76 67.16 108.11 70.52 108.92 78.26 99.39 93.3 95.28 98.26L94.86 98.77C91.13 103.31 85.5 110.17 56.5 119.39 55.85 119.59 55.17 119.69 54.49 119.69ZM95.26 63.1C90.18 63.1 84.24 65.03 79.63 69.92 72.78 77.2 59.9 93.98 57.62 97.71 56.89 98.91 50.42 109.69 49.8 117.13 49.77 117.53 49.9 117.92 50.18 118.23 50.47 118.54 50.87 118.72 51.3 118.72L54.49 118.72C55.07 118.72 55.65 118.63 56.21 118.45 84.94 109.32 90.46 102.6 94.11 98.14L94.53 97.63C98.56 92.76 107.92 78.06 107.15 70.6 106.84 67.63 104.52 65.2 100.77 63.94 99.16 63.4 97.27 63.1 95.26 63.1Z" fill="#5D4037"/></g><g><path d="M55.6 100.36C55.54 100.43 55.48 100.51 55.42 100.58 53.01 105 49.76 111.91 49.32 117.09 49.22 118.23 50.15 119.2 51.3 119.2L54.49 119.2C55.12 119.2 55.75 119.1 56.35 118.91 77.83 112.09 86.36 106.64 90.88 102.4 83.37 86.69 61.79 92.95 55.6 100.36Z" fill="#9C1234"/><path d="M54.49 119.69 51.3 119.69C50.61 119.69 49.94 119.4 49.47 118.89 49.01 118.38 48.78 117.73 48.84 117.06 49.31 111.52 52.9 104.22 55 100.36 55.01 100.33 55.03 100.31 55.05 100.29L55.12 100.21C55.16 100.16 55.2 100.11 55.24 100.06L55.24 100.06C59.07 95.48 68.67 91.23 77.52 92.35 83.85 93.15 88.62 96.56 91.33 102.21 91.42 102.4 91.38 102.63 91.22 102.77 87.35 106.4 79.55 112.07 56.5 119.39 55.85 119.59 55.17 119.69 54.49 119.69ZM55.82 100.85C53.75 104.65 50.25 111.78 49.8 117.13 49.77 117.53 49.9 117.92 50.18 118.23 50.47 118.54 50.87 118.72 51.3 118.72L54.49 118.72C55.07 118.72 55.65 118.63 56.21 118.45 78.56 111.35 86.41 105.86 90.3 102.29 87.05 95.79 81.51 93.81 77.4 93.29 68.87 92.22 59.64 96.28 55.98 100.66L55.98 100.66C55.95 100.7 55.91 100.75 55.88 100.79L55.82 100.85ZM55.6 100.36 55.6 100.36 55.6 100.36Z" fill="#5D4037"/></g><path d="M40.68 167.05 26.68 167.05C25.91 167.05 25.22 166.59 24.92 165.89L23.57 162.72C23.25 161.96 23.35 161.09 23.86 160.43L27.14 156.14C28.17 154.79 29.77 154 31.47 154L42.22 154C44.19 154 45.93 155.28 46.52 157.15L47.48 160.21C47.73 161 47.53 161.86 46.96 162.47L44 165.61C43.15 166.53 41.94 167.05 40.68 167.05Z" fill="#B3E5FC"/><g><path d="M40.68 167.05C41.45 167.05 42.2 166.85 42.86 166.49 41.18 164.72 37.36 162.45 37.36 162.45L35.48 162.92C32.49 164.05 29.15 165.58 25.72 166.79 26.01 166.96 26.34 167.05 26.68 167.05L40.68 167.05Z" fill="#E1F5FE"/><path d="M32.05 154 31.46 154C29.76 154 28.16 154.79 27.13 156.14 30.31 156.14 36.75 161.08 36.75 161.08 36.75 161.08 34.59 156.94 32.05 154Z" fill="#E1F5FE"/><circle cx="37.36" cy="160.84" r="2.8" fill="#4DD0E1"/><path d="M38.33 160.38C38.33 159.5 37.62 158.79 36.74 158.79 35.86 158.79 35.15 159.5 35.15 160.38 35.15 161.26 35.86 161.97 36.74 161.97 37.62 161.97 38.33 161.26 38.33 160.38Z" fill="#80DEEA"/><path d="M29.62 161.08 39.76 161.08C40.72 161.08 41.64 160.69 42.3 160L46.04 156.12C45.23 154.82 43.8 154 42.21 154L31.46 154C30.06 154 28.74 154.54 27.74 155.48L27.4 158.61C27.26 159.93 28.29 161.08 29.62 161.08Z" fill="#E1E6E8"/><g><path d="M40.68 167.53 26.68 167.53C25.72 167.53 24.85 166.96 24.47 166.07L23.12 162.9C22.73 161.98 22.86 160.92 23.47 160.13L26.75 155.84C27.87 154.38 29.63 153.51 31.46 153.51L42.21 153.51C44.4 153.51 46.32 154.91 46.97 157L47.93 160.06C48.23 161.02 47.99 162.06 47.31 162.79L44.35 165.93C43.41 166.95 42.07 167.53 40.68 167.53ZM31.46 154.48C29.92 154.48 28.45 155.21 27.51 156.43L24.23 160.72C23.84 161.24 23.75 161.93 24 162.52L25.35 165.69C25.58 166.22 26.09 166.56 26.67 166.56L40.67 166.56C41.79 166.56 42.87 166.09 43.64 165.28L46.6 162.14C47.05 161.66 47.2 160.98 47.01 160.36L46.05 157.3C45.52 155.61 43.97 154.48 42.21 154.48L31.46 154.48Z" fill="#5D4037"/></g></g><path d="M0.73 190.7C3.66 182.27 13.88 173.82 23.7 170.43 28.85 170.43 37.39 170.43 40.29 170.43 43.19 170.43 44.23 171.88 45.64 173.73 46.43 174.77 46.89 177.09 47.13 178.94 47.33 180.43 46.49 181.85 45.1 182.41 39.86 184.52 27.08 190.36 21.76 199.1 21.76 195.07 19.67 189.6 19.67 189.6L4.21 189.6 0.73 190.7Z" fill="#C62828"/><path d="M40.3 170.43C37.4 170.43 28.86 170.43 23.71 170.43 14.29 173.67 4.52 181.57 1.15 189.64 1.74 189.08 3.37 187.66 5 187.66 7.04 187.66 14.09 188.12 19.24 188.12 20.41 186.98 33.46 175.65 44.07 171.84 43.35 171.43 41.47 170.43 40.3 170.43Z" fill="#E53935"/><g><path d="M21.77 199.59C21.73 199.59 21.68 199.58 21.64 199.57 21.43 199.51 21.29 199.32 21.29 199.1 21.29 195.75 19.77 191.29 19.34 190.08L4.29 190.08 0.88 191.16C0.71 191.21 0.52 191.17 0.39 191.04 0.26 190.91 0.22 190.72 0.28 190.54 3.1 182.41 13.11 173.57 23.55 169.97 23.6 169.95 23.65 169.94 23.71 169.94L40.3 169.94C43.37 169.94 44.56 171.5 45.94 173.31L46.04 173.44C46.73 174.35 47.27 176.18 47.63 178.88 47.86 180.58 46.9 182.22 45.3 182.87 40.1 184.96 27.43 190.76 22.2 199.36 22.1 199.5 21.94 199.59 21.77 199.59ZM4.21 189.12 19.67 189.12C19.87 189.12 20.05 189.24 20.12 189.43 20.2 189.63 21.79 193.83 22.17 197.61 27.95 189.45 39.88 183.99 44.92 181.97 46.11 181.49 46.82 180.27 46.66 179.01 46.33 176.55 45.83 174.78 45.26 174.03L45.16 173.9C43.79 172.1 42.88 170.91 40.29 170.91L23.79 170.91C14.02 174.3 4.68 182.34 1.54 189.93L4.07 189.13C4.12 189.12 4.16 189.12 4.21 189.12Z" fill="#5D4037"/></g><g><path d="M21.77 199.59C21.68 199.59 21.6 199.57 21.52 199.52 21.29 199.38 21.22 199.08 21.36 198.86 26.75 190.01 39.64 184.1 44.93 181.98 45.18 181.88 45.46 182 45.56 182.25 45.66 182.5 45.54 182.78 45.29 182.88 40.09 184.97 27.42 190.77 22.19 199.37 22.09 199.5 21.93 199.59 21.77 199.59Z" fill="#5D4037"/></g><path d="M0.48 192.18 0.48 199.11 0.48 199.11C1.67 199.11 2.63 198.15 2.63 196.96L2.63 192.89C2.63 191.61 3.67 190.57 4.95 190.57L17.3 190.57C18.58 190.57 19.62 191.61 19.62 192.89L19.62 196.96C19.62 198.15 20.58 199.11 21.77 199.11L21.77 199.11 21.77 192.18C21.77 189.69 19.75 187.67 17.26 187.67L4.99 187.67C2.5 187.67 0.48 189.69 0.48 192.18Z" fill="#C62828"/><g><path d="M21.77 199.59C20.32 199.59 19.14 198.41 19.14 196.96L19.14 192.89C19.14 191.88 18.31 191.05 17.3 191.05L4.95 191.05C3.94 191.05 3.11 191.87 3.11 192.89L3.11 196.96C3.11 198.41 1.93 199.59 0.48 199.59 0.21 199.59 4.44089e-16 199.37 4.44089e-16 199.11L4.44089e-16 192.18C4.44089e-16 189.43 2.24 187.19 4.99 187.19L17.26 187.19C20.01 187.19 22.25 189.43 22.25 192.18L22.25 199.11C22.26 199.37 22.04 199.59 21.77 199.59ZM4.95 190.08 17.3 190.08C18.85 190.08 20.11 191.34 20.11 192.89L20.11 196.96C20.11 197.71 20.61 198.34 21.29 198.55L21.29 192.18C21.29 189.96 19.48 188.15 17.26 188.15L4.99 188.15C2.77 188.15 0.96 189.96 0.96 192.18L0.96 198.55C1.64 198.34 2.14 197.71 2.14 196.96L2.14 192.89C2.15 191.34 3.4 190.08 4.95 190.08Z" fill="#5D4037"/></g><path d="M90.88 143.78C90.88 154.64 90.07 159.47 94.58 162.37 98.1 164.63 110.27 171.42 115.43 174.28 116.97 175.13 118.69 175.58 120.45 175.58L128.09 175.58C131.11 175.58 132.12 172.57 132.4 169.68 132.74 166.08 135.12 163 138.5 161.7 141.24 160.64 144.35 159.68 146.62 159.68 151.69 159.68 176.82 159.68 185.76 159.68 194.7 159.68 220.8 147.55 224.9 145.62 229 143.69 228.28 140.3 228.28 140.3 230.94 140.3 233.11 140.3 236.98 140.3 240.85 140.3 242.78 144.65 242.78 150.45 242.78 156.25 241.81 159.15 233.84 164.46 227.62 168.61 212.85 179.24 206.67 183.7 204.85 185.01 202.67 185.72 200.42 185.72L147.85 185.72C145.95 185.72 144.11 186.37 142.63 187.55L122.93 203.35 97.09 203.35C93.99 203.35 91.12 201.7 89.56 199.02L68.31 162.43 90.88 143.78Z" fill="#F57C00"/><path d="M242.78 150.46C242.78 149.52 242.72 148.62 242.62 147.76L242.29 147.81 241.42 150.38C240.26 153.8 238.04 156.75 235.08 158.82L205.69 179.38C203.2 181.12 200.25 182.05 197.21 182.05L148.86 182.05C145.32 182.05 141.89 183.25 139.12 185.46L123.96 197.57C122.46 198.77 120.6 199.42 118.68 199.42L99.67 199.42C96.3 199.42 93.16 197.7 91.34 194.86L85.91 186.36C82.88 181.62 83.58 175.41 87.58 171.46 90.7 168.39 94.05 165.09 95.7 163.5L95.79 163.13C95.32 162.84 94.91 162.59 94.57 162.38 90.06 159.48 90.87 154.65 90.87 143.79L68.31 162.46 89.56 199.05C91.12 201.73 93.99 203.38 97.09 203.38L122.93 203.38 142.63 187.58C144.11 186.39 145.95 185.75 147.85 185.75L200.42 185.75C202.66 185.75 204.85 185.04 206.67 183.73 212.85 179.27 227.61 168.64 233.84 164.49 241.81 159.16 242.78 156.26 242.78 150.46Z" fill="#EF6C00"/><path d="M138.27 175.88C140.35 178.19 143.62 178.93 146.55 177.86 157.44 173.86 180.75 175.01 189.86 175.01 200.49 175.01 232 155.32 236.42 151.21 240.84 147.1 239.68 140.31 232.53 140.31 236.1 143.88 233.36 144.41 228.28 147.81 223.21 151.21 199.29 162.33 193.12 162.33 186.96 162.33 150.96 162.33 145.4 162.33 142.59 162.33 140.02 163.83 138.17 165.86 135.61 168.67 135.68 173 138.22 175.82L138.27 175.88Z" fill="#FFA000"/><g><path d="M122.93 203.86 97.09 203.86C93.83 203.86 90.78 202.11 89.14 199.29L67.9 162.7C67.78 162.5 67.83 162.24 68.01 162.08L90.57 143.41C90.71 143.29 90.91 143.27 91.08 143.35 91.25 143.43 91.36 143.6 91.36 143.79 91.36 145.34 91.34 146.8 91.33 148.08 91.24 156.01 91.2 159.63 94.84 161.97 98.36 164.23 110.57 171.04 115.66 173.86 117.12 174.67 118.78 175.1 120.45 175.1L128.09 175.1C130.28 175.1 131.57 173.26 131.91 169.63 132.27 165.84 134.73 162.63 138.32 161.24 141.84 159.88 144.63 159.19 146.61 159.19L185.75 159.19C194.46 159.19 219.71 147.52 224.69 145.18 228.41 143.43 227.81 140.43 227.81 140.4 227.78 140.26 227.82 140.11 227.91 140 228 139.89 228.14 139.82 228.29 139.82L236.99 139.82C240.87 139.82 243.27 143.89 243.27 150.45 243.27 156.23 242.4 159.34 234.11 164.87 227.88 169.03 213.04 179.7 206.96 184.1 205.05 185.48 202.79 186.21 200.43 186.21L147.86 186.21C146.08 186.21 144.33 186.82 142.94 187.94L123.24 203.74C123.15 203.82 123.04 203.86 122.93 203.86ZM68.94 162.56 89.98 198.79C91.45 201.31 94.17 202.88 97.09 202.88L122.76 202.88 142.33 187.18C143.89 185.93 145.85 185.24 147.85 185.24L200.42 185.24C202.58 185.24 204.64 184.57 206.39 183.31 212.48 178.91 227.33 168.22 233.57 164.06 241.51 158.77 242.29 155.99 242.29 150.45 242.29 145.78 240.89 140.79 236.97 140.79L228.8 140.79C228.82 141.93 228.45 144.48 225.1 146.06 220.09 148.42 194.67 160.17 185.75 160.17L146.61 160.17C144.75 160.17 142.07 160.84 138.66 162.15 135.41 163.4 133.19 166.31 132.87 169.73 132.37 174.97 129.99 176.07 128.08 176.07L120.44 176.07C118.61 176.07 116.79 175.6 115.19 174.71 110.09 171.88 97.86 165.06 94.31 162.78 90.22 160.15 90.26 156.11 90.36 148.06 90.37 147.07 90.38 145.97 90.39 144.81L68.94 162.56Z" fill="#5D4037"/></g><path d="M127.71 93.11 112.76 93.11C110.33 93.11 108.37 95.08 108.37 97.5L108.37 100.37C108.37 101.41 107.95 102.4 107.21 103.12 104.39 105.86 97.04 112.51 92.25 112.51 90.79 112.51 89.61 114.01 89.61 115.85 89.61 117.7 90.79 119.19 92.25 119.19 98.57 119.19 107.22 108.35 110.48 104.87 111.12 104.18 111.98 103.74 112.92 103.62L124.46 102.13C127.03 101.8 129.12 99.9 129.7 97.37L130.02 95.98C130.34 94.52 129.22 93.11 127.71 93.11Z" fill="#546E7A"/><path d="M129.46 93.89C129.03 93.42 128.42 93.11 127.71 93.11L112.76 93.11C110.33 93.11 108.37 95.08 108.37 97.5L108.37 97.5C108.37 99.35 109.89 100.84 111.74 100.8 116.45 100.69 124.41 99.36 125.83 98.3 127.76 96.85 129.06 95.45 129.46 93.89L129.46 93.89Z" fill="#78909C"/><g><path d="M92.25 119.69C90.53 119.69 89.13 117.97 89.13 115.86 89.13 113.75 90.53 112.03 92.25 112.03 96.98 112.03 104.64 104.95 106.88 102.77 107.52 102.14 107.89 101.27 107.89 100.36L107.89 97.5C107.89 94.81 110.08 92.62 112.77 92.62L127.72 92.62C128.59 92.62 129.4 93.01 129.94 93.69 130.48 94.37 130.68 95.24 130.49 96.09L130.17 97.48C129.55 100.19 127.28 102.25 124.52 102.61L112.98 104.1C112.16 104.21 111.4 104.6 110.83 105.2 110.39 105.67 109.84 106.28 109.22 106.99 105.26 111.44 97.92 119.69 92.25 119.69ZM112.76 93.59C110.6 93.59 108.85 95.34 108.85 97.5L108.85 100.37C108.85 101.53 108.37 102.66 107.54 103.47 104.59 106.33 97.19 113 92.24 113 91.05 113 90.08 114.28 90.08 115.86 90.08 117.44 91.05 118.72 92.24 118.72 97.48 118.72 104.64 110.68 108.48 106.36 109.11 105.65 109.66 105.03 110.11 104.55 110.83 103.78 111.8 103.29 112.84 103.15L124.38 101.66C126.74 101.35 128.68 99.59 129.21 97.27L129.53 95.88C129.66 95.32 129.53 94.74 129.17 94.3 128.81 93.85 128.28 93.6 127.71 93.6L112.76 93.6Z" fill="#37474F"/></g><g><path d="M56.64 157.14C56.64 158.83 55.51 160.2 54.11 160.2 52.71 160.2 51.58 158.83 51.58 157.14 51.58 155.45 52.71 154.08 54.11 154.08 55.51 154.08 56.64 155.45 56.64 157.14Z" fill="#FFD54F"/><path d="M54.12 160.68C52.46 160.68 51.11 159.09 51.11 157.14 51.11 155.19 52.46 153.6 54.12 153.6 55.78 153.6 57.13 155.19 57.13 157.14 57.13 159.09 55.78 160.68 54.12 160.68ZM54.12 154.56C52.99 154.56 52.08 155.71 52.08 157.13 52.08 158.55 53 159.7 54.12 159.7 55.25 159.7 56.16 158.55 56.16 157.13 56.16 155.72 55.24 154.56 54.12 154.56Z" fill="#5D4037"/></g><g><path d="M23.34 157.14C23.34 158.83 22.42 160.2 21.29 160.2 20.16 160.2 19.24 158.83 19.24 157.14 19.24 155.45 20.16 154.08 21.29 154.08 22.42 154.08 23.34 155.45 23.34 157.14Z" fill="#FFD54F"/><path d="M21.29 160.68C19.87 160.68 18.75 159.13 18.75 157.14 18.75 155.16 19.86 153.6 21.29 153.6 22.71 153.6 23.83 155.15 23.83 157.14 23.83 159.12 22.71 160.68 21.29 160.68ZM21.29 154.56C20.44 154.56 19.72 155.74 19.72 157.13 19.72 158.52 20.44 159.7 21.29 159.7 22.14 159.7 22.86 158.52 22.86 157.13 22.86 155.74 22.14 154.56 21.29 154.56Z" fill="#5D4037"/></g><g><g><path d="M37.85 210.59C37.24 210.59 36.74 211.22 36.74 211.99 36.74 212.76 37.24 213.39 37.85 213.39L38.96 213.39 38.96 210.59 37.85 210.59Z" fill="#78909C"/><path d="M38.95 213.88 37.84 213.88C36.96 213.88 36.25 213.03 36.25 212 36.25 210.96 36.96 210.11 37.84 210.11L38.95 210.11C39.22 210.11 39.43 210.33 39.43 210.59L39.43 213.39C39.44 213.66 39.22 213.88 38.95 213.88ZM37.85 211.08C37.51 211.08 37.23 211.5 37.23 212 37.23 212.5 37.52 212.92 37.85 212.92L38.47 212.92 38.47 211.08 37.85 211.08Z" fill="#37474F"/></g><g><path d="M40.06 211.99C40.06 212.76 39.56 213.39 38.95 213.39 38.34 213.39 37.84 212.76 37.84 211.99 37.84 211.22 38.34 210.59 38.95 210.59 39.56 210.59 40.06 211.22 40.06 211.99Z" fill="#78909C"/><path d="M38.95 213.88C38.07 213.88 37.36 213.03 37.36 211.99 37.36 210.95 38.07 210.1 38.95 210.1 39.83 210.1 40.54 210.95 40.54 211.99 40.54 213.03 39.83 213.88 38.95 213.88ZM38.95 211.08C38.61 211.08 38.33 211.5 38.33 212 38.33 212.5 38.62 212.92 38.95 212.92 39.29 212.92 39.57 212.5 39.57 212 39.58 211.5 39.29 211.08 38.95 211.08Z" fill="#37474F"/></g></g><path d="M226.08 189.16 201.98 204.1C201.13 204.63 200.01 204.37 199.48 203.51L199.48 203.51C198.95 202.66 199.21 201.54 200.07 201.01L224.17 186.07C225.02 185.54 226.14 185.8 226.67 186.66L226.67 186.66C227.19 187.52 226.93 188.63 226.08 189.16Z" fill="#78909C"/><path d="M35.46 138.41C33.1 144.78 38.01 144.17 42.23 136.32 48.03 125.53 67.36 94.12 94.74 70.12 102.2 63.58 90.71 61.9 81.45 69.96 72.81 77.46 45.2 112.15 35.46 138.41Z" fill="#B0BEC5"/><path d="M214.8 209.51 208.46 213.55 215.02 213.55C216.14 213.55 217.04 212.65 217.04 211.53L217.04 211.53C217.04 210.41 216.14 209.51 215.02 209.51L214.8 209.51Z" fill="#546E7A"/><g><path d="M43.84 112.51C43.69 112.51 43.53 112.45 43.41 112.33 41.95 110.87 38.16 106.77 36.43 104.45 36.23 104.18 36.28 103.8 36.55 103.6 36.82 103.4 37.2 103.45 37.4 103.72 39.1 105.99 42.83 110.03 44.27 111.47 44.51 111.71 44.51 112.09 44.27 112.32 44.15 112.45 44 112.51 43.84 112.51Z" fill="#78909C"/></g><g><path d="M93.94 115.41C93.66 115.41 93.41 115.21 93.35 114.93 93.28 114.6 93.49 114.28 93.82 114.22 97.05 113.56 106.15 106.2 109.06 102.67 109.27 102.41 109.65 102.38 109.91 102.59 110.17 102.8 110.2 103.18 109.99 103.44 107.22 106.8 97.9 114.62 94.06 115.41 94.02 115.41 93.98 115.41 93.94 115.41Z" fill="#78909C"/></g><path d="M6.49 193.64 14.32 193.64C8.32 202.44 9.61 213.75 10.41 219.8 10.7 222 8.98 223.94 6.77 223.94L6.77 223.94C4.99 223.94 3.57 222.65 3.15 220.92 1.81 215.36 1.02 203.81 6.49 193.64Z" fill="#8A6356"/><path d="M142.07 65.51 142.07 65.51C138.26 65.9 134.86 63.12 134.47 59.31L133.5 49.72C133.11 45.91 135.89 42.51 139.7 42.12L139.7 42.12C143.51 41.73 146.91 44.51 147.3 48.32L148.27 57.91C148.66 61.72 145.88 65.12 142.07 65.51Z" fill="#FFC58F"/><g><g><path d="M116.64 24.9C118.13 26.97 117.75 32.79 117.75 36.32 117.75 42.92 119.56 44.5 121.25 44.5L127.36 44.5 127.36 24.9 116.64 24.9Z" fill="#C20134"/><g><path d="M127.36 45.02 121.25 45.02C119.42 45.02 117.24 43.51 117.24 36.32 117.24 35.75 117.25 35.12 117.26 34.46 117.31 31.22 117.38 26.79 116.23 25.2 116.12 25.04 116.1 24.84 116.19 24.66 116.28 24.49 116.46 24.38 116.65 24.38L127.36 24.38C127.64 24.38 127.88 24.61 127.88 24.9L127.88 44.5C127.87 44.79 127.64 45.02 127.36 45.02ZM117.5 25.42C118.39 27.57 118.33 31.36 118.28 34.48 118.27 35.14 118.26 35.76 118.26 36.32 118.26 41.26 119.32 43.98 121.24 43.98L126.83 43.98 126.83 25.42 117.5 25.42Z" fill="#C20134"/></g></g><g><path d="M136.7 6.45 136.7 6.45C127.47 6.45 120.1 14.14 120.49 23.37L121.19 39.09C121.56 47.39 128.39 53.93 136.7 53.93L136.7 53.93C145.01 53.93 151.85 47.39 152.22 39.09L152.92 23.37C153.3 14.15 145.93 6.45 136.7 6.45Z" fill="#FFD6AD"/><g><path d="M136.7 54.42C136.69 54.42 136.69 54.42 136.7 54.42 128.1 54.42 121.08 47.69 120.69 39.11L119.99 23.39C119.79 18.79 121.44 14.43 124.62 11.11 127.8 7.79 132.09 5.96 136.69 5.96 141.29 5.96 145.58 7.79 148.76 11.11 151.94 14.43 153.59 18.79 153.39 23.39L152.69 39.11C152.32 47.7 145.29 54.42 136.7 54.42ZM136.7 6.95C132.37 6.95 128.34 8.67 125.34 11.8 122.34 14.93 120.8 19.03 120.98 23.36L121.68 39.08C122.04 47.13 128.63 53.45 136.7 53.45 136.7 53.45 136.7 53.45 136.71 53.45 144.78 53.45 151.37 47.14 151.73 39.08L152.43 23.36C152.62 19.03 151.07 14.93 148.07 11.8 145.06 8.67 141.03 6.95 136.7 6.95Z" fill="#FFC58F"/></g><path d="M152.63 43.17 152.63 43.17C153.59 43.17 154.36 42.39 154.36 41.44L154.36 17.39 150.89 17.39 150.89 41.43C150.9 42.39 151.67 43.17 152.63 43.17Z" fill="#474747"/><path d="M131.69 47 130.9 47C129.05 47 127.55 45.5 127.55 43.65L127.55 43.65 135.03 43.65 135.03 43.65C135.03 45.51 133.54 47 131.69 47Z" fill="#FFFFFF"/><path d="M151.93 38.69 149.33 38.69 149.33 31.16 151.93 31.16C154.01 31.16 155.7 32.85 155.7 34.93L155.7 34.93C155.69 37.01 154.01 38.69 151.93 38.69Z" fill="#FFD6AD"/><path d="M131.29 28.47 131.29 40.21 128.07 40.21C127.01 40.21 126.31 39.11 126.76 38.15L131.29 28.47Z" fill="#FFC58F"/><g><path d="M147.84 26.45 147.84 26.45C149.75 26.45 151.31 24.9 151.31 22.98L151.31 14.42 144.38 14.42 144.38 22.98C144.37 24.9 145.92 26.45 147.84 26.45Z" fill="#474747"/><path d="M149.59 33.8 149.59 33.8C148.87 33.8 148.28 33.22 148.28 32.49L148.28 20.44 150.89 20.44 150.89 32.5C150.9 33.22 150.31 33.8 149.59 33.8Z" fill="#474747"/><rect x="149.33" y="21.96" width="5" height="9.16" fill="#474747"/></g><path d="M127.97 27.52 122.02 28.06C121.76 28.08 121.53 27.89 121.51 27.63L121.51 27.63C121.49 27.38 121.66 27.16 121.9 27.12L127.81 26.16C128.08 26.12 128.33 26.31 128.35 26.58L128.39 27C128.42 27.27 128.23 27.5 127.97 27.52Z" fill="#474747"/><path d="M134.73 27.52 140.68 28.06C140.94 28.08 141.17 27.89 141.19 27.63L141.19 27.63C141.21 27.38 141.04 27.16 140.8 27.12L134.89 26.16C134.62 26.12 134.37 26.31 134.35 26.58L134.31 27C134.28 27.27 134.47 27.5 134.73 27.52Z" fill="#474747"/><path d="M138.33 32.53C138.33 33.61 137.93 34.48 137.44 34.48 136.95 34.48 136.55 33.61 136.55 32.53 136.55 31.45 136.95 30.58 137.44 30.58 137.93 30.58 138.33 31.45 138.33 32.53Z" fill="#474747"/><path d="M126.42 32.53C126.42 33.61 126.02 34.48 125.53 34.48 125.04 34.48 124.64 33.61 124.64 32.53 124.64 31.45 125.04 30.58 125.53 30.58 126.02 30.58 126.42 31.45 126.42 32.53Z" fill="#474747"/><g><path d="M117.19 29.05 117.99 34.45C118.15 35.5 119.04 36.27 120.1 36.27L125.79 36.27C126.85 36.27 127.75 35.49 127.9 34.45L128.53 30.2C128.62 29.6 128.15 29.05 127.54 29.05L117.19 29.05ZM126.73 34.27C126.66 34.74 126.26 35.08 125.79 35.08L120.1 35.08C119.63 35.08 119.23 34.73 119.16 34.27L118.62 30.63C118.59 30.42 118.75 30.23 118.97 30.23L126.93 30.23C127.14 30.23 127.31 30.42 127.28 30.63L126.73 34.27Z" fill="#B37161"/><path d="M131.39 30.19 132.02 34.44C132.18 35.49 133.07 36.26 134.13 36.26L139.82 36.26C140.88 36.26 141.78 35.48 141.93 34.44L142.73 29.04 132.38 29.04C131.77 29.05 131.3 29.59 131.39 30.19ZM132.65 30.63C132.62 30.42 132.78 30.23 133 30.23L140.96 30.23C141.17 30.23 141.34 30.42 141.31 30.63L140.77 34.27C140.7 34.74 140.3 35.08 139.83 35.08L134.14 35.08C133.67 35.08 133.27 34.73 133.2 34.27L132.65 30.63Z" fill="#B37161"/><rect x="127.95" y="30.36" width="4.02" height="1.18" fill="#B37161"/><path d="M142.72 30.23 140.97 30.23 140.97 29.05 142.72 29.05C143.05 29.05 143.31 29.31 143.31 29.64L143.31 29.64C143.31 29.96 143.04 30.23 142.72 30.23Z" fill="#B37161"/><path d="M117.2 30.23 118.95 30.23 118.95 29.05 117.2 29.05C116.87 29.05 116.61 29.31 116.61 29.64L116.61 29.64C116.61 29.96 116.87 30.23 117.2 30.23Z" fill="#B37161"/></g></g><g><path d="M137.94 0.52C126.12 0.52 114.08 8.35 114.08 21.65 114.08 23.43 115.33 24.94 117.11 24.94L137.65 24.94C141.1 24.94 146.46 29.38 146.46 35.79 146.46 42.21 150.87 44.51 155.51 44.51L156.26 44.51C159.66 44.51 162.01 39.17 162.01 33.08L162.01 27.2C162.02 8.25 151.24 0.52 137.94 0.52Z" fill="#D7013A"/><path d="M156.06 7.93C151.65 2.8 145.17 0.52 137.94 0.52 126.12 0.52 114.08 8.35 114.08 21.65 114.08 23.43 115.33 24.94 117.11 24.94L137.65 24.94C138.59 24.94 139.73 25.27 140.89 25.87 147.47 21.42 152.74 15.21 156.06 7.93Z" fill="#ED245B"/><path d="M148.64 34.7C148.64 29.15 144.25 23.09 138.61 23.09 131.58 23.09 118 23.09 114.39 23.09 114.39 23.09 115.13 24.44 116.63 24.89 116.79 24.92 116.95 24.93 117.12 24.93L137.66 24.93C141.11 24.93 146.47 29.37 146.47 35.78 146.47 40.22 148.53 42.68 151.33 43.78 149.42 42.57 148.64 37.92 148.64 34.7Z" fill="#C20134"/><g><path d="M156.27 45.02 155.52 45.02C149.53 45.02 145.96 41.57 145.96 35.79 145.96 29.8 141.01 25.46 137.67 25.46L117.13 25.46C115.14 25.46 113.58 23.79 113.58 21.65 113.58 13.59 117.76 8.53 121.27 5.7 125.74 2.07 131.82 0 137.94 0 145.09 0 151.1 2.21 155.33 6.39 160.11 11.11 162.54 18.11 162.54 27.2L162.54 33.07C162.53 39.88 159.84 45.02 156.27 45.02ZM137.94 1.03C126.47 1.03 114.6 8.74 114.6 21.64 114.6 23.2 115.71 24.42 117.12 24.42L137.66 24.42C139.59 24.42 141.92 25.64 143.74 27.6 145.83 29.86 146.99 32.77 146.99 35.78 146.99 43.18 152.96 43.98 155.52 43.98L156.27 43.98C159.16 43.98 161.51 39.08 161.51 33.06L161.51 27.2C161.5 10.57 152.91 1.03 137.94 1.03Z" fill="#C20134"/></g></g></g><g><g><path d="M132.53 186.87 132.53 186.87C129.77 186.87 127.53 189.11 127.53 191.87L127.53 192.63 137.53 192.63 137.53 191.87C137.53 189.11 135.29 186.87 132.53 186.87Z" fill="#FFD6AD"/><path d="M137.59 192.63 127.53 192.63 106.79 199.12 139.42 199.12Z" fill="#5B7E2B"/><g><path d="M139.42 199.61 139.42 199.61 106.79 199.61C106.55 199.61 106.34 199.43 106.3 199.19 106.26 198.95 106.41 198.72 106.64 198.65L127.38 192.16C127.43 192.15 127.48 192.14 127.53 192.14L127.53 192.14 137.59 192.14C137.81 192.14 138 192.29 138.06 192.5L139.89 198.99C139.93 199.14 139.9 199.3 139.81 199.42 139.72 199.54 139.57 199.61 139.42 199.61ZM110.01 198.62 138.76 198.62 137.21 193.12 127.6 193.12 110.01 198.62Z" fill="#557528"/></g><path d="M139.44 199.11 106.77 199.11C106.67 199.11 106.59 199.19 106.59 199.29L106.59 202.16C106.59 202.26 106.67 202.34 106.77 202.34L139.44 202.34C139.54 202.34 139.62 202.26 139.62 202.16L139.62 199.29C139.62 199.19 139.54 199.11 139.44 199.11Z" fill="#FFFDE7"/><g><path d="M139.44 202.78 106.77 202.78C106.42 202.78 106.14 202.5 106.14 202.15L106.14 199.28C106.14 198.93 106.42 198.65 106.77 198.65L139.44 198.65C139.79 198.65 140.07 198.93 140.07 199.28L140.07 202.15C140.06 202.5 139.78 202.78 139.44 202.78ZM107.03 201.89 139.17 201.89 139.17 199.55 107.03 199.55 107.03 201.89ZM139.44 199.55 139.44 199.55 139.44 199.55Z" fill="#FFECB3"/></g></g><path d="M127.6 191.04C85.47 131.86 103.63 128.62 167.22 129.3 172.01 129.35 176.13 132.63 176.47 137.41L176.47 137.41C176.82 142.46 172.8 147.23 167.76 146.75 117.27 141.91 103.64 140.32 136.69 187.56L127.6 191.04Z" fill="#648A37"/><path d="M167.22 129.3C170.37 132.57 169.53 137.79 160.6 136.45 151.67 135.12 128.96 135.4 123.04 137.01 117.12 138.63 114.42 133.08 121.19 131.43 125.65 130.34 141.6 129.19 157.32 129.23 161.03 129.24 167.22 129.3 167.22 129.3Z" fill="#6A913D"/><g><path d="M127.6 191.53C127.44 191.53 127.29 191.46 127.2 191.32 117.4 177.55 110.97 166.92 107.54 158.82 104.01 150.48 103.42 144.25 105.75 139.78 110.7 130.25 127.93 128.59 160.1 128.75 160.37 128.75 160.59 128.97 160.59 129.24 160.59 129.51 160.37 129.73 160.1 129.73 160.1 129.73 160.1 129.73 160.1 129.73 129.04 129.57 111.32 131.2 106.63 140.23 102.34 148.5 108.67 163.53 127.79 190.44L135.93 187.31C120.59 165.33 115.89 154.55 119.17 148.93 123.23 141.97 139.64 143.55 166.83 146.15L167.8 146.24C169.85 146.44 171.84 145.71 173.4 144.18 175.18 142.44 176.15 139.92 175.97 137.42L175.7 132.31C175.69 132.04 175.89 131.81 176.17 131.79 176.45 131.78 176.67 131.98 176.69 132.26L176.95 137.36C177.14 140.13 176.07 142.94 174.08 144.88 172.31 146.61 170.04 147.44 167.7 147.21L166.73 147.12C139.93 144.55 123.75 143 120.01 149.41 116.98 154.61 121.92 165.58 137.09 187.24 137.18 187.36 137.2 187.52 137.16 187.67 137.12 187.82 137.01 187.93 136.87 187.99L127.78 191.48C127.72 191.52 127.66 191.53 127.6 191.53Z" fill="#5B7E2B"/></g><path d="M126.69 188.85 136.6 187.08C137.15 186.98 137.67 187.35 137.77 187.9L138.04 189.42C138.14 189.97 137.77 190.49 137.22 190.59L127.31 192.36C126.76 192.46 126.24 192.09 126.14 191.54L125.87 190.02C125.77 189.47 126.14 188.94 126.69 188.85Z" fill="#5B7E2B"/></g><g><path d="M126.12 77.6C125.88 77.6 125.66 77.42 125.63 77.17 125.14 73.39 125.71 69.22 125.88 68.38 125.93 68.11 126.19 67.94 126.46 67.99 126.73 68.04 126.9 68.3 126.85 68.57 126.69 69.37 126.15 73.39 126.62 77.04 126.65 77.31 126.46 77.56 126.19 77.59 126.17 77.6 126.14 77.6 126.12 77.6Z" fill="#FFCA28"/></g><path d="M167.22 129.3C170.37 132.57 169.3 136.84 160.36 135.51 151.43 134.18 127.26 134.14 121.35 135.76 115.43 137.38 116.66 132.21 121.19 131.44 125.71 130.67 141.6 129.2 157.32 129.24 161.03 129.24 167.22 129.3 167.22 129.3Z" fill="#6A913D"/></g></svg>