<svg width="101.88" height="89.97" viewBox="0 0 101.88 89.97" xmlns="http://www.w3.org/2000/svg" xmlns:xlink="http://www.w3.org/1999/xlink" xml:space="preserve" overflow="hidden"><defs></defs><g><g><path d="M50.94 0.5 0.5 50.94 101.38 50.94Z" stroke="#505CA3" stroke-linecap="round" stroke-linejoin="round" stroke-miterlimit="10" fill="#FFFFFF"/><path d="M52.43 56.07 50.49 57.66 48.93 56.44Z" stroke="#505CA3" stroke-linecap="round" stroke-linejoin="round" stroke-miterlimit="10" fill="#FFFFFF"/><path d="M50.49 57.66 70.95 73.63 64.25 89.47 37.62 89.47 30.92 73.63Z" stroke="#505CA3" stroke-linecap="round" stroke-linejoin="round" stroke-miterlimit="10" fill="#FFFFFF"/><path d="M101.37 50.94 52.43 56.07 53.71 55.03 0.5 50.94 50.94 26.32Z" stroke="#505CA3" stroke-linecap="round" stroke-linejoin="round" stroke-miterlimit="10" fill="#FFFFFF"/><line x1="50.94" y1="0.5" x2="50.94" y2="26.32" stroke="#505CA3" stroke-linecap="round" stroke-linejoin="round" stroke-miterlimit="10" fill="none"/><g><g><line x1="0.5" y1="50.94" x2="3.2" y2="49.62" stroke="#505CA3" stroke-linecap="round" stroke-linejoin="round" fill="none"/><line x1="8.2" y1="47.18" x2="45.74" y2="28.86" stroke="#505CA3" stroke-linecap="round" stroke-linejoin="round" stroke-dasharray="5.5696 5.5696" fill="none"/><line x1="48.24" y1="27.64" x2="50.94" y2="26.32" stroke="#505CA3" stroke-linecap="round" stroke-linejoin="round" fill="none"/></g></g><line x1="50.94" y1="26.32" x2="74.32" y2="53.77" stroke="#505CA3" stroke-linecap="round" stroke-linejoin="round" stroke-miterlimit="10" fill="none"/><line x1="53.71" y1="55.03" x2="50.94" y2="26.32" stroke="#505CA3" stroke-linecap="round" stroke-linejoin="round" stroke-miterlimit="10" fill="none"/><path d="M62.32 55.03 48.93 56.43 70.95 73.63Z" stroke="#505CA3" stroke-linecap="round" stroke-linejoin="round" stroke-miterlimit="10" fill="#FFFFFF"/><path d="M38.15 53.83 53.71 55.03 30.93 73.63Z" stroke="#505CA3" stroke-linecap="round" stroke-linejoin="round" stroke-miterlimit="10" fill="#FFFFFF"/><line x1="50.94" y1="26.32" x2="29.61" y2="53.18" stroke="#505CA3" stroke-linecap="round" stroke-linejoin="round" stroke-miterlimit="10" fill="none"/><line x1="64.25" y1="89.47" x2="37.62" y2="89.47" stroke="#505CA3" stroke-linecap="round" stroke-linejoin="round" stroke-miterlimit="10" fill="none"/><path d="M50.94 47.18 37.63 89.47 64.25 89.47Z" stroke="#505CA3" stroke-linecap="round" stroke-linejoin="round" stroke-miterlimit="10" fill="#FFFFFF"/><line x1="50.94" y1="89.47" x2="50.94" y2="47.18" stroke="#505CA3" stroke-linecap="round" stroke-linejoin="round" stroke-miterlimit="10" fill="none"/><g><g><line x1="10.76" y1="40.68" x2="11.6" y2="43.56" stroke="#505CA3" stroke-linecap="round" stroke-linejoin="round" fill="none"/><line x1="13.21" y1="49.1" x2="14.05" y2="51.98" stroke="#505CA3" stroke-linecap="round" stroke-linejoin="round" fill="none"/></g></g><g><g><line x1="90.6" y1="40.16" x2="89.77" y2="43.04" stroke="#505CA3" stroke-linecap="round" stroke-linejoin="round" fill="none"/><line x1="87.87" y1="49.56" x2="87.03" y2="52.44" stroke="#505CA3" stroke-linecap="round" stroke-linejoin="round" fill="none"/></g></g><g><g><line x1="42.32" y1="9.12" x2="45.32" y2="9.12" stroke="#505CA3" stroke-linecap="round" stroke-linejoin="round" fill="none"/><line x1="49.04" y1="9.12" x2="54.62" y2="9.12" stroke="#505CA3" stroke-linecap="round" stroke-linejoin="round" stroke-dasharray="3.7197 3.7197" fill="none"/><line x1="56.48" y1="9.12" x2="59.48" y2="9.12" stroke="#505CA3" stroke-linecap="round" stroke-linejoin="round" fill="none"/></g></g></g><g><g><path d="M15.38 49.53C17.84 46.43 21.54 44.91 25.21 45.09" stroke="#505CA3" stroke-linecap="round" stroke-linejoin="round" fill="none"/><g><path d="M22.18 49.73 31.93 47.63 25.24 40.24Z" fill="#505CA3"/></g></g></g><g><g><path d="M86.93 49.53C84.47 46.43 80.77 44.91 77.1 45.09" stroke="#505CA3" stroke-linecap="round" stroke-linejoin="round" fill="none"/><g><path d="M77.06 40.24 70.38 47.63 80.12 49.73Z" fill="#505CA3"/></g></g></g><g><g><path d="M47.6 10.41C44.59 12.97 43.19 16.73 43.5 20.39" stroke="#505CA3" stroke-linecap="round" stroke-linejoin="round" fill="none"/><g><path d="M38.65 20.59 46.27 27.02 48.03 17.21Z" fill="#505CA3"/></g></g></g></g></svg>