<svg width="1040.26" height="1989.54" viewBox="0 0 1040.26 1989.54" xmlns="http://www.w3.org/2000/svg" xmlns:xlink="http://www.w3.org/1999/xlink" xml:space="preserve" overflow="hidden"><defs></defs><g><g><defs><path d="M829.29 1175.94C886.25 1252.32 901.95 1337.5 922 1329.61 928.71 1326.97 898.17 1245.85 902.2 1244.46 912.47 1240.9 934.17 1346.06 956.52 1333.34 970.3 1325.5 925.62 1235.8 930.45 1232.82 939.29 1227.36 994.31 1328.08 1009.57 1313.38 1026.97 1296.62 950.58 1215.43 958.15 1211.2 962.88 1208.54 994.89 1246.57 1007.13 1259.95 1030.01 1284.96 1040.33 1277.43 1028.5 1253.03 1012.65 1220.34 939.09 1148.85 947.98 1146.81 977.04 1140.14 1031.73 1137.59 1038.91 1118.32 1047.41 1090.79 1013.58 1106.45 994.16 1108.8 894.66 1120.84 844.45 1053.07 815.79 1019.77 773.5 971.86 704.45 883.39 661.92 833.32L641.33 885.79C680.63 966.8 798.87 1135.14 829.29 1175.94ZM959.29 1207.96C959.28 1207.95 959.3 1207.95 959.3 1207.95 959.3 1207.95 959.3 1207.95 959.3 1207.95L959.29 1207.96Z" id="SVGID_1_"/></defs><clipPath id="SVGID_2_"><use width="100%" height="100%" xlink:href="#SVGID_1_" overflow="visible"></use></clipPath><path d="M829.29 1175.94C886.25 1252.32 901.95 1337.5 922 1329.61 928.71 1326.97 898.17 1245.85 902.2 1244.46 912.47 1240.9 934.17 1346.06 956.52 1333.34 970.3 1325.5 925.62 1235.8 930.45 1232.82 939.29 1227.36 994.31 1328.08 1009.57 1313.38 1026.97 1296.62 950.58 1215.43 958.15 1211.2 962.88 1208.54 994.89 1246.57 1007.13 1259.95 1030.01 1284.96 1040.33 1277.43 1028.5 1253.03 1012.65 1220.34 939.09 1148.85 947.98 1146.81 977.04 1140.14 1031.73 1137.59 1038.91 1118.32 1047.41 1090.79 1013.58 1106.45 994.16 1108.8 894.66 1120.84 844.45 1053.07 815.79 1019.77 773.5 971.86 704.45 883.39 661.92 833.32L641.33 885.79C680.63 966.8 798.87 1135.14 829.29 1175.94ZM959.29 1207.96C959.28 1207.95 959.3 1207.95 959.3 1207.95 959.3 1207.95 959.3 1207.95 959.3 1207.95L959.29 1207.96Z" fill="#F8BFA3" clip-path="url(#SVGID_2_)"/><g clip-path="url(#SVGID_2_)"><path d="M930.37 1150.45C916.43 1156.08 904.3 1153.88 890.4 1149.31 876.75 1144.82 859.55 1136.3 850.39 1125.02 849.88 1124.39 849.81 1121.96 851.16 1122.39 876.91 1130.57 901.26 1154.09 930.33 1150.2 930.44 1150.19 930.46 1150.42 930.37 1150.45L930.37 1150.45Z" fill="#F5A48D"/></g><g clip-path="url(#SVGID_2_)"><path d="M872.5 1151.24C885.15 1170.85 894.22 1204.09 882.67 1226.23 881.52 1228.42 879.15 1226.93 878.79 1225.03 874.42 1201.69 879.96 1179.36 868.37 1157 866.93 1154.22 869.74 1146.96 872.5 1151.24L872.5 1151.24Z" fill="#F5A48D"/></g><g clip-path="url(#SVGID_2_)"><path d="M933.75 1189.99C933.63 1187.57 933.77 1191.14 933.76 1191.31 933.61 1192.77 932.77 1193.76 931.93 1194.89 930.1 1197.38 927.59 1199.14 925.16 1201.01 922.55 1203.02 919.35 1204.53 916.41 1206.03 914.37 1207.07 911.83 1206.84 909.62 1207.29 907.5 1207.71 907.27 1203.77 907.92 1202.63 912.84 1194.13 921.45 1188.81 930.92 1186.65 931.67 1186.48 932.37 1187.15 932.8 1187.63 933.37 1188.25 933.71 1189.14 933.75 1189.99L933.75 1189.99Z" fill="#F5A48D"/></g><rect x="525.74" y="938.92" width="302.3" height="119.93" fill="#F5A48D" clip-path="url(#SVGID_2_)" transform="matrix(0.7848 -0.6198 0.6198 0.7848 -473.411 634.517)"/></g><g><defs><path d="M545.09 767.01C643.14 736.45 723.04 830.47 799.85 948.24L645.15 1049.14C568.34 931.37 496.4 782.19 545.09 767.01Z" id="SVGID_3_"/></defs><clipPath id="SVGID_4_"><use width="100%" height="100%" xlink:href="#SVGID_3_" overflow="visible"></use></clipPath><path d="M545.09 767.01C643.14 736.45 723.04 830.47 799.85 948.24L645.15 1049.14C568.34 931.37 496.4 782.19 545.09 767.01Z" fill="#0F3AEF" clip-path="url(#SVGID_4_)"/></g><g><defs><path d="M568.03 1828.2C580.17 1864.46 688.86 1858.59 675.46 1823.26 638.38 1725.45 643.61 1416.89 643.61 1416.89L549.33 1421.22C549.33 1421.22 537.91 1738.23 568.03 1828.2Z" id="SVGID_5_"/></defs><clipPath id="SVGID_6_"><use width="100%" height="100%" xlink:href="#SVGID_5_" overflow="visible"></use></clipPath><path d="M568.03 1828.2C580.17 1864.46 688.86 1858.59 675.46 1823.26 638.38 1725.45 643.61 1416.89 643.61 1416.89L549.33 1421.22C549.33 1421.22 537.91 1738.23 568.03 1828.2Z" fill="#F8BFA3" clip-path="url(#SVGID_6_)"/><rect x="496.5" y="1361.66" width="189.85" height="187.41" fill="#F5A48D" clip-path="url(#SVGID_6_)" transform="matrix(0.0906 -0.9959 0.9959 0.0906 -911.524 1912.57)"/></g><g><defs><path d="M235.09 1843.78C244.47 1880.85 353.29 1883.16 342.59 1846.92 312.96 1746.6 341.32 1439.3 341.32 1439.3L246.98 1436.54C246.99 1436.54 211.8 1751.8 235.09 1843.78Z" id="SVGID_7_"/></defs><clipPath id="SVGID_8_"><use width="100%" height="100%" xlink:href="#SVGID_7_" overflow="visible"></use></clipPath><path d="M235.09 1843.78C244.47 1880.85 353.29 1883.16 342.59 1846.92 312.96 1746.6 341.32 1439.3 341.32 1439.3L246.98 1436.54C246.99 1436.54 211.8 1751.8 235.09 1843.78Z" fill="#F8BFA3" clip-path="url(#SVGID_8_)"/><rect x="191.47" y="1380.05" width="189.85" height="187.41" fill="#F5A48D" clip-path="url(#SVGID_8_)" transform="matrix(0.165 -0.9863 0.9863 0.165 -1214.42 1512.99)"/></g><g><g><defs><path d="M489.16 1893.97C369.56 1802.37 348.81 1744.79 303.24 1768.99 225.81 1810.13 233.9 1814.29 233.9 1814.29 233.9 1814.29 173.16 1860.01 251.78 1898.76 313.85 1929.35 367.4 1981.08 439.42 1988.98 511.66 1995.54 552.57 1942.55 489.16 1893.97Z" id="SVGID_9_"/></defs><clipPath id="SVGID_10_"><use width="100%" height="100%" xlink:href="#SVGID_9_" overflow="visible"></use></clipPath><path d="M489.16 1893.97C369.56 1802.37 348.81 1744.79 303.24 1768.99 225.81 1810.13 233.9 1814.29 233.9 1814.29 233.9 1814.29 173.16 1860.01 251.78 1898.76 313.85 1929.35 367.4 1981.08 439.42 1988.98 511.66 1995.54 552.57 1942.55 489.16 1893.97Z" fill="#DADADA" clip-path="url(#SVGID_10_)"/><path d="M257.03 1814.31C259.02 1786 287.52 1760.48 282.35 1732.08 282.08 1730.38 281.28 1728.59 281.02 1726.9L283.89 1726.27C255.49 1714.91 215.56 1739.62 198.3 1760.42 174.62 1790.05 182.54 1831.58 191.81 1865.08 196.8 1884.64 205.89 1902.68 222.51 1915.38 235.27 1924.67 256.96 1933.26 270.19 1920.06 296.54 1894.17 255.31 1844.32 257.03 1814.31Z" fill="#C6C6C6" clip-path="url(#SVGID_10_)"/></g><g><defs><path d="M486.16 1870.88C366.55 1779.28 351.84 1726.62 306.27 1750.82 228.84 1791.95 227.07 1748.64 227.07 1748.64 227.07 1748.64 215.87 1790.35 212.65 1829.05 210.99 1848.99 228.55 1867.66 254.81 1880.6 316.88 1911.19 370.43 1962.91 442.46 1970.81 514.69 1977.37 549.58 1919.45 486.16 1870.88Z" id="SVGID_11_"/></defs><clipPath id="SVGID_12_"><use width="100%" height="100%" xlink:href="#SVGID_11_" overflow="visible"></use></clipPath><path d="M486.16 1870.88C366.55 1779.28 351.84 1726.62 306.27 1750.82 228.84 1791.95 227.07 1748.64 227.07 1748.64 227.07 1748.64 215.87 1790.35 212.65 1829.05 210.99 1848.99 228.55 1867.66 254.81 1880.6 316.88 1911.19 370.43 1962.91 442.46 1970.81 514.69 1977.37 549.58 1919.45 486.16 1870.88Z" fill="#1B62AD" clip-path="url(#SVGID_12_)"/><path d="M257.03 1814.31C259.02 1786 287.52 1760.48 282.35 1732.08 282.08 1730.38 281.28 1728.59 281.02 1726.9L283.89 1726.27C255.49 1714.91 215.56 1739.62 198.3 1760.42 174.62 1790.05 182.54 1831.58 191.81 1865.08 196.8 1884.64 205.89 1902.68 222.51 1915.38 235.27 1924.67 256.96 1933.26 270.19 1920.06 296.54 1894.17 255.31 1844.32 257.03 1814.31Z" fill="#1D3560" clip-path="url(#SVGID_12_)"/><g clip-path="url(#SVGID_12_)"><path d="M419.89 1778.91C409.61 1762.7 377.83 1779.6 366.55 1787.05 360.19 1791.25 323.98 1820.47 343.68 1828.56 346.3 1829.64 348.3 1827.85 349.78 1825.93 359.56 1813.24 370.01 1803.07 384.63 1796.06 390.49 1793.25 396.48 1790.71 402.62 1788.57 408.02 1786.69 414.07 1787.16 419.07 1784.46 420.97 1783.44 420.92 1780.52 419.89 1778.91L419.89 1778.91Z" fill="#FFFFFF"/></g><g clip-path="url(#SVGID_12_)"><path d="M444.61 1812.08C423.06 1796.58 381.22 1824.91 372.1 1845.15 369.37 1851.21 373.81 1865.95 382.19 1859.72 392.79 1851.83 400.57 1842.63 412.78 1836.4 423.14 1831.12 435.36 1829.49 444.87 1822.84 447.79 1820.81 447.35 1814.05 444.61 1812.08L444.61 1812.08Z" fill="#FFFFFF"/></g><g clip-path="url(#SVGID_12_)"><path d="M381.58 1751.03C369.98 1744.23 354.09 1753 342.99 1758.04 331.63 1763.2 313.33 1772.04 312.2 1785.89 312.03 1787.91 312.29 1791.52 314.75 1792.25 319.17 1793.57 320.25 1792.46 323.77 1789.44 329.69 1784.35 335.95 1780.08 342.75 1776.25 355.36 1769.15 369.33 1764.62 381.73 1757.16 383.84 1755.9 383.62 1752.23 381.58 1751.03L381.58 1751.03Z" fill="#FFFFFF"/></g><g clip-path="url(#SVGID_12_)"><path d="M473.34 1835.35C461.91 1832.6 447.74 1840.74 437.81 1845.9 427.33 1851.35 410.91 1861.3 411.25 1874.93 411.62 1889.93 423.92 1878.07 429.13 1873.5 435.37 1868.03 443.29 1864.65 450.65 1860.99 457.55 1857.57 464.65 1853.06 472.3 1851.6 478.54 1850.41 479.94 1836.94 473.34 1835.35L473.34 1835.35Z" fill="#FFFFFF"/></g></g></g><g><defs><path d="M179.64 1180.65 166.61 1718.35 478.99 1718.35 487.46 1559.67 505.07 1718.35 701.13 1718.35 688.09 1180.65Z" id="SVGID_13_"/></defs><clipPath id="SVGID_14_"><use width="100%" height="100%" xlink:href="#SVGID_13_" overflow="visible"></use></clipPath><path d="M179.64 1180.65 166.61 1718.35 541.37 1718.35 701.13 1718.35 688.09 1180.65Z" fill="#093B68" clip-path="url(#SVGID_14_)"/><path d="M306.43 1829.36 52.56 1791.42 98.03 1054.17 351.89 1092.12Z" fill="#1D3560" clip-path="url(#SVGID_14_)"/><path d="M503.99 1808 487.46 1559.67 480.62 1079 530.41 1078.15 551.78 1740.55Z" fill="#1D3560" clip-path="url(#SVGID_14_)"/><path d="M708.83 1002.05 709.94 1399.1 162.03 1402.79 160.93 1005.74Z" fill="#1D3560" clip-path="url(#SVGID_14_)"/></g><path d="M596.28 791.35C596.28 854.21 545.31 905.17 482.46 905.17L410.3 905.17C347.44 905.17 296.48 854.21 296.48 791.35L296.48 791.35C296.48 728.49 347.44 677.53 410.3 677.53L482.46 677.53C545.31 677.53 596.28 728.49 596.28 791.35L596.28 791.35Z" fill="#F5A48D"/><g><defs><path d="M535.78 715.14C535.78 715.46 535.83 715.77 535.83 716.1 535.83 772.2 538.75 791.35 480.84 808.49 426.84 824.47 331.88 772.2 331.88 716.1 331.88 715.06 332.01 714.05 332.03 713.01 160.33 779.29 142.69 1026.87 142.69 1232.22 142.69 1252.51 143.44 1271.41 144.82 1289.18L723.43 1289.18C724.45 1274.12 725.02 1258.27 725.02 1241.38 725.02 1037.59 707.71 785.62 535.78 715.14Z" id="SVGID_15_"/></defs><clipPath id="SVGID_16_"><use width="100%" height="100%" xlink:href="#SVGID_15_" overflow="visible"></use></clipPath><path d="M535.78 715.14C535.78 715.46 535.83 715.77 535.83 716.1 535.83 772.2 539.4 778.23 480.84 808.49 430.81 834.35 331.88 772.2 331.88 716.1 331.88 715.06 332.01 714.05 332.03 713.01 160.33 779.29 142.69 1026.87 142.69 1232.22 142.69 1252.51 143.44 1271.41 144.82 1289.18L723.43 1289.18C724.45 1274.12 725.02 1258.27 725.02 1241.38 725.02 1037.59 707.71 785.62 535.78 715.14Z" fill="#0C0CF4" clip-path="url(#SVGID_16_)"/><path d="M433.87 905.17 480.85 808.49 405.98 647.52 263.39 722.92Z" fill="#FFFFFF" clip-path="url(#SVGID_16_)"/><path d="M625.12 856.24 480.85 808.49 450.06 633.65 584.49 610.29Z" fill="#FFFFFF" clip-path="url(#SVGID_16_)"/><g clip-path="url(#SVGID_16_)" opacity="0.3"><path d="M393.42 728.18C298.02 812.95 318.43 937.23 321.47 1053.78 324.15 1115.65 369.38 1245.49 375.79 1306.33 379.97 1345.26 284.19 1319.81 239.14 1342.86 194.94 1364.22 158.92 1331.24 144.65 1297.79 123.76 1248.41 131.95 1194.06 135.59 1143.24 144.53 1037.43 102.99 926.41 163.46 827.36 193.68 777.43 247.02 734.31 309.33 715.15 329.76 708.24 376.41 696.53 382.7 723.1 383.84 726.3 383.12 730.42 382.38 733.73L393.42 728.18Z" fill="#242446"/></g></g><g><defs><path d="M122.77 430.73C125.79 430.73 128.73 431 131.64 431.38 131.7 431.16 131.75 430.95 131.82 430.73 191.08 231.01 302.07 114.85 480.83 136.2 705.95 163.09 700.02 387.98 733.46 432.79 758.5 466.34 770.54 517.87 758.14 581.9 733.52 709.07 591.89 778.23 457.79 778.23 323.69 778.23 178.43 686.95 135.44 564.76 131.33 565.54 127.11 565.99 122.76 565.99 85.4 565.99 55.13 535.71 55.13 498.36 55.13 461.01 85.41 430.73 122.77 430.73Z" id="SVGID_17_"/></defs><clipPath id="SVGID_18_"><use width="100%" height="100%" xlink:href="#SVGID_17_" overflow="visible"></use></clipPath><path d="M122.77 430.73C125.79 430.73 128.73 431 131.64 431.38 131.7 431.16 131.75 430.95 131.82 430.73 191.08 231.01 277.76 83.23 457.79 83.23 637.82 83.23 774.4 396.25 788.01 439.42 800.6 479.34 770.54 517.87 758.14 581.9 733.52 709.07 591.89 778.23 457.79 778.23 323.69 778.23 178.43 686.95 135.44 564.76 131.33 565.54 127.11 565.99 122.76 565.99 85.4 565.99 55.13 535.71 55.13 498.36 55.13 461.01 85.41 430.73 122.77 430.73Z" fill="#F8BFA3" clip-path="url(#SVGID_18_)"/><path d="M649.54 553.66C649.54 572.86 677.51 588.43 712.01 588.43 746.51 588.43 774.48 572.87 774.48 553.66 774.48 534.46 746.51 518.9 712.01 518.9 677.51 518.9 649.54 534.46 649.54 553.66Z" fill="#F5A48D" clip-path="url(#SVGID_18_)"/></g><path d="M377.12 553.66C377.12 572.86 405.09 588.43 439.59 588.43 474.09 588.43 502.06 572.87 502.06 553.66 502.06 534.46 474.09 518.9 439.59 518.9 405.09 518.9 377.12 534.46 377.12 553.66Z" fill="#F5A48D"/><g><defs><path d="M559.37 697.07C509.56 697.07 481.24 666.24 469.19 625.37 469.19 625.37 512.65 635.69 562.35 635.69 613.69 635.69 632.4 629.23 632.4 629.23 632.39 665.42 609.16 697.07 559.37 697.07Z" id="SVGID_19_"/></defs><clipPath id="SVGID_20_"><use width="100%" height="100%" xlink:href="#SVGID_19_" overflow="visible"></use></clipPath><path d="M555.9 723.86C488.65 723.86 446.01 667.45 434.15 597.66 434.15 597.66 492.82 615.82 559.92 615.82 629.24 615.82 677.64 597.66 677.64 597.66 638.41 667.45 623.14 723.86 555.9 723.86Z" fill="#9B1A17" clip-path="url(#SVGID_20_)"/><path d="M480.99 621.1C480.99 639.14 514.15 653.77 555.06 653.77 595.96 653.77 629.12 639.14 629.12 621.1 629.12 603.05 595.96 588.42 555.06 588.42 514.15 588.42 480.99 603.05 480.99 621.1Z" fill="#FFFFFF" clip-path="url(#SVGID_20_)"/><path d="M601.33 697.07C601.33 681.62 583.94 669.1 562.49 669.1 541.04 669.1 523.65 681.62 523.65 697.07 523.65 712.52 541.04 725.05 562.49 725.05 583.94 725.04 601.33 712.52 601.33 697.07Z" fill="#EF8581" clip-path="url(#SVGID_20_)"/></g><g><path d="M659.57 422.15C659.58 422.14 659.58 422.12 659.58 422.11 662.26 419.57 665.41 418.1 669.24 417.2 669.55 417.11 669.87 417.02 670.19 416.94 670.28 416.92 673.12 416.41 674.48 416.33 681.19 415.67 689.79 416.01 701.4 416.09 720.9 416.23 733.52 402.29 733.47 402.46 729.68 416.17 720.25 425.9 707.88 432.87 706.33 433.74 704.66 434.64 702.92 435.53 705.38 440.92 706.78 447.11 706.78 453.71 706.78 474.41 693.04 491.19 676.09 491.19 659.14 491.19 645.4 474.41 645.4 453.71 645.39 440.44 651.05 428.8 659.57 422.15Z" fill="#432918"/><path d="M658.96 439.43C658.96 444.23 662.85 448.12 667.65 448.12 672.45 448.12 676.34 444.23 676.34 439.43 676.34 434.63 672.45 430.74 667.65 430.74 662.85 430.74 658.96 434.63 658.96 439.43Z" fill="#FFFFFF"/></g><g><path d="M384.29 422.15C384.3 422.14 384.3 422.12 384.3 422.11 386.98 419.57 390.13 418.1 393.96 417.2 394.27 417.11 394.58 417.02 394.9 416.94 394.99 416.92 397.83 416.41 399.19 416.33 405.91 415.67 414.51 416.01 426.11 416.09 445.61 416.23 458.23 402.29 458.17 402.46 454.38 416.17 444.95 425.9 432.58 432.87 431.03 433.74 429.36 434.64 427.62 435.53 430.08 440.92 431.48 447.11 431.48 453.71 431.48 474.41 417.74 491.19 400.79 491.19 383.84 491.19 370.1 474.41 370.1 453.71 370.11 440.44 375.77 428.8 384.29 422.15Z" fill="#432918"/><path d="M383.68 439.43C383.68 444.23 387.58 448.12 392.38 448.12 397.18 448.12 401.07 444.23 401.07 439.43 401.07 434.63 397.18 430.74 392.38 430.74 387.57 430.74 383.68 434.63 383.68 439.43Z" fill="#FFFFFF"/></g><path d="M560.91 513.84C563.53 509.78 564.41 504.37 565.2 499.7 566.12 494.22 567.62 487.45 566.3 482.03 566.21 481.69 566.62 481.45 566.72 481.87 568.71 490.5 571.28 496.33 570.48 505.48 570.27 508 569.72 510.6 569.02 513.18 580.32 509.81 594.77 514.9 596.79 527.53 598.08 535.65 595.53 543.11 588.11 547.26 581.31 551.07 573 553.13 565.87 549.8 565.52 549.64 565.58 548.98 565.9 548.82 571.85 545.85 594.98 540.38 589.68 530.27 584.35 520.09 569.79 526.28 561.84 527.7 561.25 527.81 560.78 527.65 560.37 527.39 559.52 527.64 558.6 527.59 557.95 526.92 553.77 522.6 558.48 517.62 560.91 513.84Z" fill="#C69F7E"/><g><path d="M93.96 475.13C104.76 482.01 116.59 489.31 124.33 499.73 129.57 506.8 131.2 517.09 121.67 520.72 116.55 522.67 110.13 520.86 106.29 517.19 105.43 516.36 105.34 517.74 106.2 516 108.86 510.68 113.04 506.5 115.74 501.08 116.75 499.05 116.9 494.35 113.68 494.18 98.74 493.34 91.65 512.87 96.65 524.93 101 535.41 113.66 538.68 123.72 535.61 137.14 531.52 140.18 513.77 136.4 502.16 131.14 486.03 112.11 468.35 94.06 473.49 93.49 473.66 93.53 474.86 93.96 475.13L93.96 475.13Z" fill="#C69F7E"/></g><g><g><defs><path d="M835.8 1838.98C702.72 1768.37 672.74 1715.01 631.79 1746.41 562.21 1799.76 570.88 1802.53 570.88 1802.53 570.88 1802.53 518.51 1857.65 602.45 1882.9 668.72 1902.83 730.07 1945.01 802.41 1940.91 874.74 1935.44 906.36 1876.42 835.8 1838.98Z" id="SVGID_21_"/></defs><clipPath id="SVGID_22_"><use width="100%" height="100%" xlink:href="#SVGID_21_" overflow="visible"></use></clipPath><path d="M835.8 1838.98C702.72 1768.37 672.74 1715.01 631.79 1746.41 562.21 1799.76 570.88 1802.53 570.88 1802.53 570.88 1802.53 518.51 1857.65 602.45 1882.9 668.72 1902.83 730.07 1945.01 802.41 1940.91 874.74 1935.44 906.36 1876.42 835.8 1838.98Z" fill="#DADADA" clip-path="url(#SVGID_22_)"/><path d="M593.7 1798.72C590.99 1770.47 614.89 1740.6 605.11 1713.44 604.57 1711.81 603.48 1710.18 602.94 1708.55L605.66 1707.46C575.78 1700.94 540.47 1731.91 526.89 1755.26 508.42 1788.4 523.09 1828.05 537.76 1859.56 545.91 1878.03 557.86 1894.33 576.33 1904.1 590.45 1911.16 613.26 1916.05 624.13 1900.84 645.84 1870.97 596.95 1828.6 593.7 1798.72Z" fill="#C6C6C6" clip-path="url(#SVGID_22_)"/></g><g><defs><path d="M829.03 1816.7C695.95 1746.09 672.74 1696.58 631.79 1727.98 562.21 1781.33 553.31 1738.9 553.31 1738.9 553.31 1738.9 549.15 1781.89 552.36 1820.59 554.02 1840.53 574.41 1856.04 602.45 1864.48 668.72 1884.41 730.07 1926.58 802.41 1922.49 874.74 1917.01 899.58 1854.14 829.03 1816.7Z" id="SVGID_23_"/></defs><clipPath id="SVGID_24_"><use width="100%" height="100%" xlink:href="#SVGID_23_" overflow="visible"></use></clipPath><path d="M829.03 1816.7C695.95 1746.09 672.74 1696.58 631.79 1727.98 562.21 1781.33 553.31 1738.9 553.31 1738.9 553.31 1738.9 549.15 1781.89 552.36 1820.59 554.02 1840.53 574.41 1856.04 602.45 1864.48 668.72 1884.41 730.07 1926.58 802.41 1922.49 874.74 1917.01 899.58 1854.14 829.03 1816.7Z" fill="#1B62AD" clip-path="url(#SVGID_24_)"/><path d="M593.7 1798.72C590.99 1770.47 614.89 1740.6 605.11 1713.44 604.57 1711.81 603.48 1710.18 602.94 1708.55L605.66 1707.46C575.78 1700.94 540.47 1731.91 526.89 1755.26 508.42 1788.4 523.09 1828.05 537.76 1859.56 545.91 1878.03 557.86 1894.33 576.33 1904.1 590.45 1911.16 613.26 1916.05 624.13 1900.84 645.84 1870.97 596.95 1828.6 593.7 1798.72Z" fill="#1D3560" clip-path="url(#SVGID_24_)"/><g clip-path="url(#SVGID_24_)"><path d="M748.9 1737.14C740.97 1726.49 722.18 1736.48 713.5 1741.66 697.17 1751.4 683.35 1767.35 675.75 1784.71 674.15 1788.36 674.81 1794.78 678.02 1797.5 682.58 1801.37 701.3 1772.4 704.5 1769.07 711.34 1761.99 720.02 1756.53 728.42 1751.52 734.76 1747.73 742.8 1746.73 748.59 1742.34 750 1741.28 749.85 1738.41 748.9 1737.14L748.9 1737.14Z" fill="#FFFFFF"/></g><g clip-path="url(#SVGID_24_)"><path d="M779.42 1766.09C768 1758.25 752.21 1767.42 742.49 1774.48 729.92 1783.59 715.74 1796.12 712.4 1811.92 711.3 1817.13 716.05 1830.16 722.99 1823.72 726.56 1820.41 728.7 1816.09 731.55 1812.17 735.93 1806.14 741.94 1801.13 747.72 1796.51 757.42 1788.76 771.36 1785.33 779.68 1776.23 781.86 1773.85 782.49 1768.19 779.42 1766.09L779.42 1766.09Z" fill="#FFFFFF"/></g><g clip-path="url(#SVGID_24_)"><path d="M706.61 1715.79C694.02 1711.2 680.03 1721.86 669.97 1729.02 659.05 1736.78 641.33 1748.55 643.66 1763.8 643.86 1765.12 644.76 1766.94 646.14 1767.39 646.57 1767.53 647 1767.67 647.43 1767.8 648.86 1768.26 650.67 1768.08 651.71 1766.84 667.4 1748.13 687.73 1735.75 707.26 1721.6 708.85 1720.43 708.54 1716.49 706.61 1715.79L706.61 1715.79Z" fill="#FFFFFF"/></g><g clip-path="url(#SVGID_24_)"><path d="M812.02 1784.2C801.72 1781.36 790.1 1791.76 782.01 1797.17 771.68 1804.07 756.7 1816.12 755.99 1829.6 755.81 1832.89 755.79 1837.72 759.22 1839.55 765.22 1842.74 774.54 1826.42 777.73 1823.42 787.63 1814.12 800.29 1805.53 812.39 1799.45 817.04 1797.12 817.8 1785.79 812.02 1784.2L812.02 1784.2Z" fill="#FFFFFF"/></g></g></g><g><defs><path d="M301.15 1264.67C364.97 1343.54 356.5 1354.9 377.51 1345.66 384.53 1342.57 381.62 1334.5 381.62 1334.5 381.62 1334.5 391.2 1352.58 406.72 1338.48 414.45 1331.46 411.19 1320.94 411.19 1320.94 411.19 1320.94 418.4 1330.67 432.29 1319.32 443.48 1310.17 436.8 1298.33 436.8 1298.33 436.8 1298.33 447.55 1303.51 458.05 1291.55 471.04 1276.77 416.84 1231.23 426.22 1228.68 456.86 1220.35 492.34 1213.08 499.16 1192.28 507.04 1162.64 486.73 1177.51 466.94 1184 380.37 1212.45 321.69 1160.45 309.06 1147.69 261.21 1099.3 233.97 1041.68 220.55 952.49L162.18 951.48C136.74 1082.32 267.06 1222.54 301.15 1264.67ZM267.8 1325.51C267.8 1325.5 267.81 1325.51 267.81 1325.51 267.82 1325.5 267.82 1325.5 267.81 1325.51L267.8 1325.51Z" id="SVGID_25_"/></defs><clipPath id="SVGID_26_"><use width="100%" height="100%" xlink:href="#SVGID_25_" overflow="visible"></use></clipPath><g clip-path="url(#SVGID_26_)"><path d="M301.15 1264.67C364.97 1343.54 356.5 1354.9 377.51 1345.66 384.53 1342.57 381.62 1334.5 381.62 1334.5 381.62 1334.5 391.2 1352.58 406.72 1338.48 414.45 1331.46 411.19 1320.94 411.19 1320.94 411.19 1320.94 418.4 1330.67 432.29 1319.32 443.48 1310.17 436.8 1298.33 436.8 1298.33 436.8 1298.33 447.55 1303.51 458.05 1291.55 471.04 1276.77 416.84 1231.23 426.22 1228.68 456.86 1220.35 492.34 1213.08 499.16 1192.28 507.04 1162.64 486.73 1177.51 466.94 1184 380.37 1212.45 321.69 1160.45 309.06 1147.69 261.21 1099.3 233.97 1041.68 220.55 952.49L162.18 951.48C136.74 1082.32 267.06 1222.54 301.15 1264.67ZM267.8 1325.51C267.8 1325.5 267.81 1325.51 267.81 1325.51 267.82 1325.5 267.82 1325.5 267.81 1325.51L267.8 1325.51Z" fill="#F8BFA3"/></g><rect x="62.89" y="937.19" width="273.78" height="146.67" fill="#F5A48D" clip-path="url(#SVGID_26_)"/></g><g><defs><path d="M146.13 224.69C162.55 195.68 180.09 167.46 210.59 151.87 216.21 149.02 224.33 146.36 232.55 145.31 221.61 139.32 212.38 130.55 207.84 120.53 207.82 120.47 207.85 120.31 207.94 120.35 218.67 124.41 227.98 130.92 238.78 135.03 240.67 135.75 242.61 136.37 244.56 136.95 230.79 128.11 222.44 116.16 220.75 100.23 220.71 99.85 221.07 99.05 221.46 99.63 228.42 109.72 240.53 117.36 250.88 123.27 254.15 125.14 257.8 126.66 261.54 128.12 255.84 114.55 253.34 97.91 259.01 84.09 259.14 83.77 259.47 83.79 259.58 84.1 264.36 97.04 264.93 110.8 271.18 123.31 271.97 124.9 272.88 126.42 273.84 127.87 283.86 118.42 294.88 111.49 306.71 102.84 347.78 72.85 485.01 72.48 546.81 94.62 638.02 126.02 667.6 178.38 704.75 234.37 738.96 285.91 751.07 382 751.07 382 751.07 382 704.35 323.33 668.46 318.03 673.29 322.01 677.58 325.99 681.1 328.98 692.32 338.69 708.15 354.99 708.15 370.83L708.15 371.22C708.15 371.35 708.15 371.54 708.09 371.74 708.03 371.94 707.96 372.13 707.89 372.33 707.5 373.76 706.33 375.2 704.83 373.96 702.55 372.13 700.99 369.79 699.55 367.24 673.41 347.17 646.55 331.52 615.65 319.39 597.6 312.29 576.28 311.9 555.94 309.81 559.39 313.14 562.39 316.27 564.74 318.74 578.43 333.08 593.09 353.29 589.77 374.28 588.8 380.34 582.6 379.82 581.56 374.15L581.56 374.09C551.12 346.19 520.41 325.85 479.15 317.31 446.3 310.53 412.4 308.57 379.28 303.75 345.97 298.93 311.88 290.13 287.37 270.7 279.35 294.56 299.64 444.46 237.72 484.39 195.05 511.9 133.05 434.76 131.62 431.37 105.7 368.34 113.08 283.1 146.13 224.69Z" id="SVGID_27_"/></defs><clipPath id="SVGID_28_"><use width="100%" height="100%" xlink:href="#SVGID_27_" overflow="visible"></use></clipPath><path d="M146.13 224.69C162.55 195.68 180.09 167.46 210.59 151.87 216.21 149.02 224.33 146.36 232.55 145.31 221.61 139.32 212.38 130.55 207.84 120.53 207.82 120.47 207.85 120.31 207.94 120.35 218.67 124.41 227.98 130.92 238.78 135.03 240.67 135.75 242.61 136.37 244.56 136.95 230.79 128.11 222.44 116.16 220.75 100.23 220.71 99.85 221.07 99.05 221.46 99.63 228.42 109.72 240.53 117.36 250.88 123.27 254.15 125.14 257.8 126.66 261.54 128.12 255.84 114.55 253.34 97.91 259.01 84.09 259.14 83.77 259.47 83.79 259.58 84.1 264.36 97.04 264.93 110.8 271.18 123.31 271.97 124.9 272.88 126.42 273.84 127.87 283.86 118.42 294.88 111.49 306.71 102.84 347.78 72.85 485.01 72.48 546.81 94.62 638.02 126.02 667.6 178.38 704.75 234.37 738.96 285.91 751.07 382 751.07 382 751.07 382 704.35 323.33 668.46 318.03 673.29 322.01 677.58 325.99 681.1 328.98 692.32 338.69 708.15 354.99 708.15 370.83L708.15 371.22C708.15 371.35 708.15 371.54 708.09 371.74 708.03 371.94 707.96 372.13 707.89 372.33 707.5 373.76 706.33 375.2 704.83 373.96 702.55 372.13 700.99 369.79 699.55 367.24 673.41 347.17 646.55 331.52 615.65 319.39 597.6 312.29 576.28 311.9 555.94 309.81 559.39 313.14 562.39 316.27 564.74 318.74 578.43 333.08 593.09 353.29 589.77 374.28 588.8 380.34 582.6 379.82 581.56 374.15L581.56 374.09C551.12 346.19 520.41 325.85 479.15 317.31 446.3 310.53 412.4 308.57 379.28 303.75 345.97 298.93 311.88 290.13 287.37 270.7 279.35 294.56 299.64 444.46 237.72 484.39 195.05 511.9 133.05 434.76 131.62 431.37 105.7 368.34 113.08 283.1 146.13 224.69Z" fill="#432918" clip-path="url(#SVGID_28_)"/><g clip-path="url(#SVGID_28_)"><path d="M223.43 141.54C251 164.98 315.22 133.39 343.16 120.32 390.83 98.03 437.7 60.23 417.59 2.68 417.18 1.51 418.55-1.19 419.66 0.59 483.91 103.86 242.07 195.88 222.89 142.49 222.78 142.21 222.88 141.07 223.43 141.54L223.43 141.54Z" fill="#2C2020"/></g><g clip-path="url(#SVGID_28_)"><path d="M242.8 168.7C310.27 204.18 372.81 225.48 450.25 221.03 490.51 218.72 530.03 208.94 568.28 196.65 606.09 184.51 631.5 159.02 660.53 133.71 663.42 131.19 664.85 137.09 663.7 139.06 625.52 204.37 540.72 223.03 471.2 231.9 392.48 241.93 300.59 228.18 242.47 170.3 242.13 169.96 242.03 168.3 242.8 168.7L242.8 168.7Z" fill="#2C2020"/></g><g clip-path="url(#SVGID_28_)"><path d="M699.3 203.4C650.69 272.36 541.14 291.43 462.97 288.24 367.9 284.37 267.1 231.82 222.22 145.13 221.41 143.56 222.01 137.52 224.78 140.02 263.76 175.21 290.34 215.83 337.93 241.53 376.19 262.19 419.89 271.21 462.9 274.17 507.17 277.22 551.86 270.34 593.89 256.64 632.97 243.9 662.66 219.26 697.83 199.57 699.67 198.54 699.96 202.48 699.3 203.4L699.3 203.4Z" fill="#2C2020"/></g><g clip-path="url(#SVGID_28_)"><path d="M605.38 92.9C570.71 148.03 498.25 171.83 437.63 183.69 375.32 195.87 275.01 203.91 224.03 157.56 222.5 156.17 222.03 150.06 225.35 151.17 258.94 162.39 286.51 174.49 322.71 177.48 354.71 180.12 387.03 177.98 418.78 173.63 490.63 163.77 548.26 135.36 603.5 89.72 605.23 88.29 606.13 91.71 605.38 92.9L605.38 92.9Z" fill="#2C2020"/></g><g clip-path="url(#SVGID_28_)"><path d="M229.54 144.66C269.83 172.25 211.68 244.63 190.26 265.53 144.8 309.89 61.96 332.54 1.79 310.47-1.06 309.42-0.3 303.58 2.62 303.17 49.78 296.52 94.64 297.34 139.19 277.43 175.05 261.4 251.64 197.56 227.07 149.25 226.23 147.58 226.81 142.79 229.54 144.66L229.54 144.66Z" fill="#2C2020"/></g><g clip-path="url(#SVGID_28_)"><path d="M236.06 149.39C286.69 177.07 257.53 269.19 238.46 307.08 210.33 362.95 141.4 435.72 72.96 427.3 70.7 427.03 69.4 421.84 71.63 420.81 94.8 410.11 119.22 405.93 141.73 392.78 167.52 377.73 189.39 352.82 207.95 329.92 247.23 281.43 273.49 206.4 235.71 150.26 235.53 150.01 235.55 149.12 236.06 149.39L236.06 149.39Z" fill="#2C2020"/></g><g clip-path="url(#SVGID_28_)"><path d="M223.57 144.48C243.84 164.39 212.24 194.9 197.17 207.08 164.23 233.72 110.56 251.96 74.17 222.35 72.78 221.21 72.79 215.81 75.4 216.33 105.5 222.29 129.69 223.97 159.14 212.9 182.77 204.01 226.26 175.45 222.16 146.06 222.06 145.41 222.64 143.56 223.57 144.48L223.57 144.48Z" fill="#2C2020"/></g></g><g><defs><path d="M256.77 755.51C154.91 768.67 121.55 887.45 100.9 1026.53L283.58 1053.66C304.24 914.57 307.35 748.98 256.77 755.51Z" id="SVGID_29_"/></defs><clipPath id="SVGID_30_"><use width="100%" height="100%" xlink:href="#SVGID_29_" overflow="visible"></use></clipPath><path d="M256.77 755.51C154.91 768.67 121.55 887.45 100.9 1026.53L283.58 1053.66C304.24 914.57 307.35 748.98 256.77 755.51Z" fill="#0F3AEF" clip-path="url(#SVGID_30_)"/></g></g></svg>