<svg width="97.54" height="96.3" viewBox="0 0 97.54 96.3" xmlns="http://www.w3.org/2000/svg" xmlns:xlink="http://www.w3.org/1999/xlink" xml:space="preserve" overflow="hidden"><defs></defs><g><g><path d="M61.52 33 36.02 33 48.78 95.93Z" fill="#D88A00"/><g opacity="0.6"><g><line x1="48.77" y1="33.64" x2="48.77" y2="35.14" stroke="#666666" stroke-width="0.5" stroke-linecap="round" stroke-linejoin="round" fill="none"/><line x1="48.77" y1="37.2" x2="48.77" y2="92.86" stroke="#666666" stroke-width="0.5" stroke-linecap="round" stroke-linejoin="round" stroke-dasharray="3.0925 2.0617" fill="none"/><line x1="48.77" y1="93.89" x2="48.77" y2="95.39" stroke="#666666" stroke-width="0.5" stroke-linecap="round" stroke-linejoin="round" fill="none"/></g></g><path d="M91.93 4.13 49.03 28.33 48.78 33 48.77 33 48.77 33 48.51 28.33 5.61 4.13 42.29 49.53 48.77 44.52 55.25 49.53Z" fill="#DBDBDB"/><g><path d="M91.93 4.13 48.77 96.3 49.81 28.53Z" fill="#EFBE4C"/><path d="M47.72 28.53 5.61 4.13 48.77 96.3Z" fill="#EFBE4C"/></g><path d="M47.72 28.53 34.98 31.95 34.94 42.24 23.06 41.17 33.45 63.58 41.34 63.58 48.19 49.97Z" fill="#D88A00" opacity="0.4"/><path d="M62.41 42.24 62.57 31.95 49.81 28.53 49.34 50.06 55.6 63.58 64.09 63.58 74.48 41.17Z" fill="#D88A00" opacity="0.4"/><g><path d="M49.68 46.83 74.48 41.17 97.54 67.74 57.3 62.94Z" fill="#EFBE4C"/><path d="M47.86 46.83 23.06 41.17 0 67.74 40.24 62.94Z" fill="#EFBE4C"/></g><path d="M57.3 62.94 62.73 51.97 61.52 33 49.68 46.83Z" fill="#D88A00" opacity="0.4"/><path d="M57.3 62.94 61.52 52.46 61.52 33 49.81 28.53 49.68 46.83Z" fill="#EFBE4C"/><path d="M40.24 62.94 34.81 51.97 36.02 33 47.86 46.83Z" fill="#D88A00" opacity="0.4"/><path d="M40.24 62.94 36.02 52.46 36.02 33 47.72 28.53 47.86 46.83Z" fill="#EFBE4C"/><path d="M36.02 33 47.75 31.93 47.86 46.83Z" fill="#D88A00"/><path d="M61.52 33 49.79 31.93 49.68 46.83Z" fill="#D88A00"/><rect x="36.02" y="33" width="25.5" height="19.47" fill="#FFFFFF"/><path d="M61.52 52.47 50.92 42.73 50.91 42.73 61.52 33 48.96 42.73 36.02 33 46.96 42.73 46.95 42.73 36.02 52.47 47.99 43.13 49.89 43.13Z" fill="#DBDBDB"/></g><g><path d="M66.4 69.92C68.68 85.8 72.37 85.8 74.65 69.92 76.93 54.04 76.93 28.29 74.65 12.41 72.37-3.47 68.68-3.47 66.4 12.41" stroke="#233A3F" stroke-linecap="round" stroke-linejoin="round" stroke-miterlimit="10" fill="none"/><path d="M68.99 11.26 66.25 13.16 64.35 10.42" stroke="#233A3F" stroke-linecap="round" stroke-linejoin="round" stroke-miterlimit="10" fill="none"/></g></g></svg>