<svg width="43.3" height="83.57" viewBox="0 0 43.3 83.57" xmlns="http://www.w3.org/2000/svg" xmlns:xlink="http://www.w3.org/1999/xlink" xml:space="preserve" overflow="hidden"><defs></defs><g><g><path d="M21.49 53.26 6.54 81.55 6.54 29.52Z" fill="#EEF3FF"/></g><g><g><path d="M42.8 0.5 42.8 19.85 21.49 53.85 21.49 0.5Z" fill="#EEF3FF"/></g><g><path d="M20.99 55.58 20.99 0 43.3 0 43.3 20 43.22 20.12 20.99 55.58ZM21.99 1 21.99 52.11 42.3 19.71 42.3 1 21.99 1Z" fill="#8796D8"/></g></g><g><g><path d="M0.5 0.5 0.5 19.85 21.81 53.85 21.81 0.5Z" fill="#EEF3FF"/></g><g><path d="M22.31 55.58 0 20 0 0 22.31 0 22.31 55.58ZM1 19.71 21.31 52.11 21.31 1 1 1 1 19.71Z" fill="#8796D8"/></g></g><g><path d="M6.04 83.57 6.04 27.79 22.07 53.24 21.93 53.49 6.04 83.57ZM7.04 31.25 7.04 79.54 20.91 53.28 7.04 31.25Z" fill="#8796D8"/></g></g></svg>