<svg width="309.97" height="302.8" viewBox="0 0 309.97 302.8" xmlns="http://www.w3.org/2000/svg" xmlns:xlink="http://www.w3.org/1999/xlink" xml:space="preserve" overflow="hidden"><defs></defs><g><g><path d="M170.64 147.36C170.64 147.36 182.98 156.96 195.83 149.81 208.68 142.66 209.78 135.7 209.78 135.7 214.85 138.15 222.15 134.59 222.78 127.62 228.27 131.94 238.42 125.89 238.11 119.36 243.54 126.24 268.9 127.3 273.68 112.04 278.64 118.91 289.49 113.11 284.53 106.01 293.14 106.44 305.59 91.83 293.65 84.56 306.45 85.09 309.74 62.35 299.39 57.68 312.1 52.62 311.2 35.63 307.72 30.63 300.94 20.86 286.15 16.85 276.35 27.8 276.3 20.11 266.96 21.06 264.98 25.9 266.08 8.69 234.07-6.5 223.29 16.07 218.03 11.99 205.38 14.95 206.78 24.77 203.97 15.62 190.38 9.25 183.43 17.47 183.57 1.4 150.77-9.84 145.35 12.62 139.49 4.33 129.31 11.31 130.05 19.48 115.04 4.22 83.45 20.25 91.54 43.03 82 32.56 69.2 42.27 70.64 50.23 59.47 39.72 34.33 59.16 52.54 77.29 40.66 77.48 43.92 87.57 53.84 91.29 39.16 91.64 23.8 110.85 44.72 122.75 43.49 135.3 54.62 137.65 61 133.84 61.36 138.51 64.42 137.18 65.84 136.05 67.28 144 92.91 153.45 101.38 140.14 101.38 140.14 103.53 147.88 111.78 143.64 112.09 150.4 120.2 151.99 123.56 147.88 123.56 147.88 134.53 156.75 137.2 142.14 137.2 142.14 138.06 154.97 150.77 149.44 151.59 154.37 165.49 161.31 170.64 147.36Z" fill="#3AA010"/><path d="M168.89 142.64C168.89 142.64 180.59 152.5 191.75 147.44 204.97 141.44 205.98 133.39 205.98 133.39 210.2 135.43 220.3 130.5 220.83 124.69 225.4 128.29 229.93 127.59 229.67 122.15 234.19 127.88 250.73 125.93 254.71 113.22 258.84 118.94 267.88 114.11 263.75 108.19 270.92 108.55 281.29 96.38 271.34 90.33 282 90.77 284.74 71.83 276.12 67.94 286.71 63.73 286.66 48.99 283.06 45.41 279.46 41.83 265.1 33.93 256.93 43.05 256.89 36.65 249.11 37.44 247.46 41.47 248.38 27.14 221.71 14.49 212.74 33.29 208.36 29.89 197.83 32.36 198.99 40.53 196.65 32.91 185.33 27.6 179.54 34.45 179.66 21.07 152.34 11.7 147.83 30.41 142.95 23.51 134.47 29.32 135.09 36.12 122.59 23.41 96.28 36.76 103.02 55.73 95.08 47.01 84.41 55.1 85.62 61.72 76.32 52.97 55.38 69.16 70.55 84.25 60.65 84.41 63.37 92.81 71.63 95.91 59.4 96.21 38.56 106.75 55.98 116.66 54.96 127.11 63.75 134.34 69.06 131.16 69.36 135.05 73.79 141.17 76.92 136.14 78.12 142.76 101.81 157.19 108.86 146.11 108.86 146.11 117.08 150.9 119.88 139.52 120.14 145.15 126.89 146.47 129.69 143.05 129.69 143.05 138.83 150.44 141.05 138.27 141.05 138.27 141.77 148.95 152.35 144.35 153.03 148.47 164.6 154.25 168.89 142.64Z" fill="#358C0D"/></g><g><g><defs><path d="M253.4 274.54C253.4 274.54 238.12 260.61 235.43 254.36 232.74 248.1 227.65 221 222.97 212.54 218.29 204.08 205.04 180.56 208.05 167.88 211.06 155.2 221.44 147.93 226.74 146.16 232.04 144.39 249.32 142.2 251.94 143.03 251.94 143.03 255.76 146.82 259.32 147.35 259.32 147.35 255.19 143.86 255.38 141.54 255.38 141.54 262.3 136.38 262.9 128.63 262.9 128.63 257.45 138.32 253.25 139.17 253.25 139.17 230.4 140.95 225.41 142.41 220.42 143.88 205.31 155.88 202.47 158.47 199.63 161.06 195.25 163.16 187.64 154.49 180.03 145.82 171.31 138.53 171.88 132.48 172.45 126.44 187.36 108.37 204.69 102.15 222.03 95.93 232.59 95.49 240.72 92.53 248.84 89.57 253.72 85.61 258.39 85.23 263.05 84.84 273.28 85.72 275.77 90.19 275.77 90.19 275.13 86.67 270.27 85.31 270.27 85.31 274.25 84.11 275.98 78.08 275.98 78.08 271.69 83.83 267.73 83.99 263.77 84.15 259.14 82.44 254.7 83.3 250.26 84.16 253.38 78.85 255.77 75.17 258.16 71.49 266.77 58.36 272.89 54.74 272.89 54.74 267.01 58.13 264.4 60.65 264.4 60.65 264.7 56.7 261.94 54.55 261.94 54.55 263.72 59.47 261.33 63.16 258.94 66.84 249.12 82.66 246.28 85.18 243.44 87.7 239.37 89.56 234.08 90.64 229.38 91.59 220.53 92.97 216.09 93.82 211.65 94.67 206.99 94.59 206.34 92.02 205.69 89.45 207.16 71.78 209.81 66.23 212.47 60.69 225.44 51.13 227.08 50.69 227.08 50.69 232.42 51.48 234.78 49.66 234.78 49.66 230.35 50.05 228.03 49.54 228.03 49.54 230.69 43.76 229.19 36.52 229.19 36.52 228.08 46.98 225.95 48.57 223.83 50.16 209.67 60.86 207.76 63.62 205.85 66.38 203.16 87.14 201.46 91.07 199.76 95 198.07 98.39 193.6 101.34 189.13 104.29 169.48 122.58 167.11 124.87 164.74 127.16 157 116.78 155.03 109.53 153.06 102.28 154.19 90.89 155.05 81.59 155.91 72.29 159.72 53.96 157.51 47.17 155.3 40.38 154.5 32.45 157.15 27.84 157.15 27.84 153.54 34.53 153.69 39.66 153.69 39.66 149.17 31.66 148.77 27.7 148.77 27.7 150.23 37.27 152.27 40.57 154.31 43.87 155.38 49.24 154.89 50.86 154.89 50.86 135.58 49.83 129.06 36.21 129.06 36.21 134.91 48.19 143.25 50.66 151.59 53.13 155.05 55.29 154.01 61.09 152.98 66.89 144.29 92.28 146.5 104.74 149.22 120.01 153.25 131.87 152.01 136.27 150.77 140.67 140.8 137.94 131.87 129.17 122.94 120.4 114.47 98.36 106.92 90.55 99.38 82.72 78.06 76.76 85.8 59.9 85.8 59.9 82.71 63.57 82.18 67.06 82.18 67.06 81.59 60.76 73.22 60.15 73.22 60.15 79.7 62.59 81.21 69.6 82.72 76.61 90.75 83.27 93.29 84.71 95.83 86.15 99.94 90.41 99.94 90.41 99.94 90.41 93.93 87.74 89.04 87.89 84.15 88.04 74.37 87.87 70.75 81.52 70.75 81.52 74.13 88.33 78.77 89.11 83.41 89.89 89.69 90.46 95.03 91.49 100.37 92.52 103.83 94.2 105.43 96.33 107.02 98.45 112.22 107.86 113.32 111.14 114.43 114.42 118.29 119.84 116.87 121.21 115.45 122.58 100.72 123.68 94.62 123.85 80.82 124.24 58.3 114.22 54.87 111.13 51.43 108.04 48.57 98.68 48.57 98.68 48.57 98.68 49.35 107.54 52.31 111.55 52.31 111.55 43.68 112.56 41.27 117.18 41.27 117.18 50.2 112.44 53.44 113.66 56.68 114.88 76.64 124.99 89.23 127.01 100.07 128.75 114.84 122.64 120.61 126 126.37 129.36 135.89 140.16 142.14 142.36 148.39 144.56 156.32 143.69 157.69 152.1 156.96 153.95 138.12 154.87 125.45 151.54 117.31 149.41 107.6 151.21 103.6 153.7 99.6 156.19 90.94 158.84 85.63 155.72 85.63 155.72 92.77 160.27 104.26 155.58 115.75 150.89 128.49 156.38 136.85 156.36 147.36 156.34 157.22 158.92 160.23 159.67 163.24 160.42 177.93 173.25 183.27 187.08 188.62 200.91 190.95 214.69 191.14 224.01 191.32 233.33 190.02 254.96 186.91 259.8 183.8 264.64 165.52 271.47 162.84 278.33 160.16 285.19 183.9 286.06 183.9 286.06 183.9 286.06 196.23 286.51 200.7 284.25 200.7 284.25 210.33 288.22 220.01 285.05 229.68 281.9 267.57 285.35 253.4 274.54Z" id="SVGID_1_"/></defs><clipPath id="SVGID_2_"><use width="100%" height="100%" xlink:href="#SVGID_1_" overflow="visible"></use></clipPath><use width="100%" height="100%" xlink:href="#SVGID_1_" fill="#9B6415" overflow="visible"></use></g><path d="M204.34 262.31C204.55 253.9 207.11 252.79 211.38 245.1 213.65 241.01 218.7 229.29 211.59 214.4 204.48 199.51 195.74 190.62 202.87 194.49 210 198.36 221.38 211.81 224.7 225.87 228.03 239.93 227.5 241.67 223.85 250.1 222.54 253.13 217.26 258.34 215.74 262.99 214.4 267.12 204.17 268.82 204.34 262.31Z" fill="#BF7D26"/><path d="M194.71 254.44C194.71 254.44 201.17 252.97 204.38 244.52 207.59 236.07 206 216.69 199.35 203.96 192.7 191.24 185.4 182.93 183.99 184.19 182.58 185.45 193.1 204.84 193.83 214.1 194.56 223.36 194.77 229.96 193.41 238.35 192.34 244.95 190 258.11 194.71 254.44Z" fill="#BF7D26"/><path d="M204.29 188.35C194.71 181.7 174.74 168.81 169.78 164.79 164.82 160.77 160.39 143.09 158.81 137.41 158.81 137.41 170.44 130.43 169.77 139.66 169.1 148.89 169.44 156.23 173.98 162.27 178.52 168.31 191.52 175.19 195.83 176.75 205.54 180.3 208.4 191.2 204.29 188.35Z" fill="#BF7D26"/><path d="M193.6 163.13C187.22 156.66 180.18 149.93 177.92 147.35 175.66 144.77 173.8 145.83 174.68 153.71 175.56 161.58 186.42 167.9 191.96 168.52 197.5 169.14 196.9 166.48 193.6 163.13Z" fill="#BF7D26"/><path d="M220.38 266.52C223.33 259.41 227.6 250.17 229.35 250.21 231.1 250.25 235.39 259.4 236.99 261.83 238.58 264.25 218.53 270.96 220.38 266.52Z" fill="#BF7D26"/><g><path d="M172.59 136.95C172.71 140.02 172.67 142.94 172.76 145.88 172.8 148.81 173.12 151.74 173.82 154.57 174.16 155.99 174.59 157.38 175.14 158.73 175.7 160.07 176.32 161.41 177.12 162.55 178.76 164.87 181.17 166.65 183.71 168.16 188.82 171.18 194.46 173.43 199.57 176.62 202.14 178.17 204.58 179.98 206.69 182.12 208.82 184.24 210.51 186.78 211.73 189.52 210.52 186.77 208.79 184.27 206.65 182.17 205.59 181.11 204.44 180.15 203.22 179.28 202.01 178.4 200.74 177.6 199.44 176.86 194.22 173.91 188.53 171.97 183.17 169.13 180.51 167.7 177.87 165.98 175.9 163.47 174.91 162.2 174.21 160.81 173.58 159.41 172.96 158 172.45 156.53 172.05 155.04 171.27 152.06 170.89 148.98 170.85 145.92 170.86 142.85 171.27 139.76 172.59 136.95Z" fill="#874708"/></g><g><path d="M147.49 109.88C149.96 118.28 152.51 126.67 155.18 135.01 156.5 139.19 157.85 143.35 159.31 147.47 160.75 151.59 162.46 155.61 164.6 159.38 166.76 163.13 169.48 166.55 172.83 169.26 174.5 170.62 176.3 171.83 178.17 172.91L181.04 174.5C182 175.04 182.95 175.61 183.89 176.18 191.37 180.8 198.55 185.9 205.31 191.53 208.68 194.35 211.95 197.32 214.99 200.51 218 203.72 220.9 207.12 222.95 211.13 224.82 215.17 226.36 219.26 227.68 223.48 228.96 227.7 229.91 232.05 230.11 236.49 230.31 240.9 229.68 245.51 227.43 249.42 225.17 253.21 222.66 256.79 220.56 260.61 218.44 264.41 216.75 268.49 216.14 272.82 215.5 277.14 216.08 281.59 217.54 285.72 215.98 281.63 215.29 277.16 215.84 272.78 216.35 268.39 217.97 264.2 220.02 260.32 222.06 256.42 224.57 252.79 226.73 249.02 228.83 245.26 229.39 240.82 229.14 236.53 228.9 232.21 227.87 227.95 226.61 223.8 225.31 219.66 223.72 215.55 221.9 211.65 219.93 207.84 217.08 204.5 214.1 201.35 211.09 198.22 207.84 195.29 204.48 192.51 197.75 186.96 190.67 181.8 183.26 177.2 182.33 176.63 181.4 176.07 180.45 175.53L177.58 173.92C175.66 172.8 173.82 171.56 172.1 170.14 168.65 167.32 165.83 163.76 163.69 159.89 161.55 156.01 159.89 151.91 158.5 147.74 157.09 143.58 155.8 139.39 154.54 135.2 152.08 126.79 149.75 118.35 147.49 109.88Z" fill="#874708"/></g><g><path d="M180.92 174.55C188.75 181.45 195.62 189.39 201.27 198.22 206.89 207.04 210.72 217.22 211.4 227.77 211.6 230.4 211.53 233.05 211.29 235.68 211.03 238.31 210.54 240.93 209.67 243.46 209.22 244.71 208.68 245.98 208.04 247.13 207.4 248.28 206.74 249.4 206.07 250.51 204.73 252.73 203.37 254.93 202.07 257.16 199.45 261.61 197 266.16 195 270.91 194.02 273.29 193.14 275.72 192.61 278.24 192.33 279.5 192.15 280.77 192.12 282.06 192.08 283.34 192.18 284.64 192.54 285.89 191.71 283.42 191.77 280.72 192.21 278.16 192.63 275.58 193.41 273.08 194.3 270.63 196.11 265.74 198.49 261.09 200.97 256.53 202.21 254.25 203.5 252 204.77 249.74 205.4 248.61 206.04 247.49 206.65 246.37 207.25 245.25 207.71 244.12 208.12 242.93 208.9 240.55 209.33 238.03 209.54 235.51 209.73 232.98 209.77 230.43 209.53 227.9 209.32 225.37 208.95 222.84 208.37 220.36 207.85 217.87 207.1 215.43 206.27 213.02 204.59 208.21 202.27 203.63 199.59 199.26 196.93 194.88 193.91 190.71 190.66 186.72 187.4 182.74 183.95 178.88 180.28 175.29L180.92 174.55Z" fill="#874708"/></g><g><path d="M172.03 284.94C173.42 280.69 175.62 276.71 178.37 273.18 179.76 271.42 181.27 269.76 182.97 268.28 184.67 266.81 186.49 265.5 188.29 264.18 191.9 261.54 195.54 258.95 198.97 256.12 200.67 254.69 202.32 253.2 203.77 251.54 205.21 249.89 206.48 248.07 207.15 246.04L208.1 246.35C207.32 248.57 205.94 250.45 204.42 252.13 202.89 253.8 201.19 255.29 199.44 256.7 195.93 259.5 192.23 262.02 188.58 264.59 186.75 265.88 184.91 267.14 183.21 268.56 181.5 269.99 179.97 271.61 178.56 273.33 175.76 276.79 173.5 280.72 172.03 284.94Z" fill="#874708"/></g><path d="M178.05 152.31C175.44 155.06 186.2 168.39 191.58 164.19 194.65 161.79 180.66 149.56 178.05 152.31Z" fill="#6D3F08"/><path d="M189.12 252.29C189.12 252.29 189.01 260.34 183.77 264.42 178.53 268.5 181.18 269.34 186.12 265.92 186.12 265.92 189.17 274.03 198.22 262.91 198.22 262.91 205.72 281.72 217.44 266.79 217.44 266.79 219.23 272.08 226.39 269.85 233.55 267.61 240.01 265.58 237.76 258.11 237.76 258.11 247.73 268.39 252.95 274.13 258.17 279.87 260.66 280.42 250.78 282.91 240.9 285.41 207.3 290.76 202.81 290.58 198.31 290.4 166.62 294.71 162.92 290.02 159.22 285.33 160.03 279.16 164.07 275.11 168.11 271.06 184.55 263.26 186.22 259.96 187.89 256.66 189.12 252.29 189.12 252.29Z" fill="#683C0D" opacity="0.5"/><g><path d="M41.27 117.19C41.27 117.19 42.04 116.78 43.2 116.24 43.11 115.89 43.03 115.53 42.94 115.17 42.26 115.75 41.67 116.41 41.27 117.19Z" fill="#754910"/><path d="M85.62 155.73C85.62 155.73 92.76 160.28 104.25 155.59 105.77 154.97 107.31 154.53 108.86 154.23 106.96 154.19 105.05 154.1 103.12 153.98 98.95 156.39 90.73 158.74 85.62 155.73Z" fill="#754910"/><path d="M129.88 37.71C129.72 37.43 129.58 37.18 129.47 36.97 129.6 37.22 129.74 37.47 129.88 37.71Z" fill="#754910"/><path d="M156.69 28.75C156.71 28.71 156.73 28.68 156.74 28.64 156.72 28.68 156.7 28.71 156.69 28.75Z" fill="#754910"/><path d="M156.74 28.64C156.87 28.36 157 28.09 157.15 27.83 157.15 27.83 156.99 28.14 156.74 28.64Z" fill="#754910"/><path d="M148.92 28.59C148.82 28.02 148.77 27.68 148.77 27.68 148.8 27.97 148.85 28.27 148.92 28.59Z" fill="#754910"/><path d="M129.47 36.97C129.33 36.71 129.19 36.46 129.06 36.19 129.06 36.19 129.2 36.48 129.47 36.97Z" fill="#754910"/><path d="M152.86 145.4C149.74 143.88 145.67 143.62 142.13 142.37 135.88 140.17 126.37 129.37 120.6 126.01 114.84 122.65 100.06 128.76 89.22 127.02 76.64 125 56.67 114.89 53.43 113.67 51.14 112.81 46 114.92 43.19 116.24 43.1 115.89 43.02 115.53 42.93 115.17 46.32 112.27 52.3 111.56 52.3 111.56 49.34 107.55 48.56 98.69 48.56 98.69 48.56 98.69 51.43 108.05 54.86 111.14 58.3 114.23 80.81 124.25 94.61 123.86 100.7 123.69 115.43 122.59 116.86 121.22 118.28 119.85 114.42 114.42 113.31 111.15 112.2 107.87 107.01 98.47 105.42 96.34 103.83 94.22 100.36 92.53 95.02 91.5 89.68 90.48 83.4 89.9 78.76 89.12 74.12 88.34 70.74 81.53 70.74 81.53 74.36 87.88 84.13 88.05 89.03 87.9 93.92 87.75 99.93 90.42 99.93 90.42 99.93 90.42 95.81 86.16 93.28 84.72 90.75 83.28 82.71 76.62 81.2 69.61 79.69 62.6 73.21 60.16 73.21 60.16 81.58 60.77 82.17 67.07 82.17 67.07 82.7 63.59 85.79 59.91 85.79 59.91 78.05 76.77 99.37 82.73 106.92 90.55 114.47 98.37 122.94 120.4 131.87 129.17 140.8 137.94 150.77 140.67 152.01 136.27 153.25 131.87 149.22 120.01 146.5 104.74 144.28 92.28 152.98 66.9 154.01 61.09 155.04 55.29 151.59 53.13 143.25 50.66 136.75 48.73 131.76 41.03 129.88 37.73 137.05 49.9 154.89 50.86 154.89 50.86 155.38 49.24 154.31 43.86 152.27 40.57 150.61 37.89 149.34 31.08 148.92 28.61 149.79 32.77 153.69 39.66 153.69 39.66 153.58 35.68 155.73 30.77 156.69 28.77 154.62 33.47 155.45 40.82 157.52 47.18 159.73 53.97 155.92 72.3 155.06 81.6 154.2 90.9 153.07 102.29 155.04 109.54 157.01 116.79 164.75 127.17 167.12 124.88 169.49 122.59 189.13 104.3 193.61 101.35 198.09 98.4 199.77 95.01 201.47 91.08 203.17 87.15 205.86 66.39 207.77 63.63 209.68 60.87 223.84 50.17 225.96 48.58 228.08 46.99 229.2 36.53 229.2 36.53 230.7 43.77 228.04 49.55 228.04 49.55 230.36 50.06 234.79 49.67 234.79 49.67 232.43 51.49 227.09 50.7 227.09 50.7 225.45 51.14 212.48 60.69 209.82 66.24 207.16 71.78 205.69 89.45 206.35 92.03 207 94.6 211.66 94.68 216.1 93.83 220.54 92.98 229.38 91.6 234.09 90.65 239.39 89.58 243.46 87.71 246.29 85.19 249.13 82.68 258.95 66.86 261.34 63.17 263.73 59.49 261.95 54.56 261.95 54.56 264.71 56.7 264.41 60.66 264.41 60.66 267.02 58.14 272.9 54.75 272.9 54.75 266.78 58.37 258.17 71.49 255.78 75.18 253.39 78.86 250.27 84.17 254.71 83.31 259.15 82.46 263.78 84.17 267.74 84 271.7 83.84 275.99 78.09 275.99 78.09 274.26 84.11 270.28 85.32 270.28 85.32 275.15 86.68 275.78 90.2 275.78 90.2 273.3 85.73 263.06 84.86 258.4 85.24 253.74 85.63 248.86 89.58 240.73 92.54 232.6 95.5 222.04 95.94 204.7 102.16 187.36 108.38 172.46 126.44 171.89 132.49 171.74 134.03 172.21 135.65 173.09 137.35 171.27 136.84 170.15 136 170.15 136 170.15 136 164.99 144.95 157.41 141.78 157.39 141.77 155.18 146.01 152.86 145.4Z" fill="#683C0D" opacity="0.5"/><path d="M154.09 139.42C154.09 139.42 154.19 139.45 154.37 139.49 155.45 133.44 154.09 139.42 154.09 139.42Z" fill="#754910"/></g><path d="M176.88 282.85C176.88 282.85 183.91 276.14 190.23 276.25 196.55 276.36 194.88 283.16 194.88 283.16 194.88 283.16 197.11 279.99 200.21 280.41 203.31 280.83 202.02 283.29 202.02 283.29 202.02 283.29 212.53 274.94 221.74 283.63 230.95 292.32 214.51 292 205.81 292.27 197.11 292.55 181.09 292.78 179.54 292.87 177.99 292.96 176.88 282.85 176.88 282.85Z" fill="#6A9B00"/><path d="M224.35 284.91C224.35 284.91 226.41 273.46 228.59 272.87 230.77 272.29 252.89 268.01 260.28 271.87 260.28 271.87 263.59 278.03 264.77 281.52 264.77 281.52 263.14 286.2 256.6 287.02 250.07 287.84 230.77 290.3 224.35 284.91Z" fill="#F4DCBA"/></g><g><g><path d="M224.35 284.91C224.35 284.91 226.41 273.46 228.59 272.87 230.77 272.29 252.89 268.01 260.28 271.87 260.28 271.87 263.59 278.03 264.77 281.52 264.77 281.52 263.14 286.2 256.6 287.02 250.07 287.84 230.77 290.3 224.35 284.91Z" fill="#F4DCBA"/><path d="M227.28 279.65C227.28 279.65 228.59 273.68 230.33 273.3 232.07 272.92 251.56 270.33 257.66 272.04 257.66 272.04 259.46 272.57 260.55 276.79 260.55 276.79 258.7 278.9 253.44 279.56 248.19 280.22 232.65 282.19 227.28 279.65Z" fill="#FFF2E3"/></g><g><path d="M139.39 295.86C139.39 295.86 147.11 280.47 151.16 279.3 155.22 278.13 177.59 276.96 186.18 283.01 186.18 283.01 190.96 293.65 189.67 296.73 188.38 299.81 146.07 304.67 139.39 295.86Z" fill="#F4DCBA"/><path d="M145.4 286.86C145.4 286.86 151.4 279.57 154.59 279.03 157.78 278.49 175.4 278.06 182.2 280.99 182.2 280.99 186.03 286.09 185.02 287.55 184.01 289.01 150.71 291.09 145.4 286.86Z" fill="#FFF2E3"/><path d="M139.84 296.66C139.84 296.66 141.48 291.81 148.01 290.79 154.55 289.77 149.46 296.82 149.46 296.82 149.46 296.82 157.27 287.63 165.24 287.93 173.21 288.23 165.11 295.23 165.11 295.23 165.11 295.23 181.76 289.04 178.25 297.81 178.25 297.81 182.19 294.02 190.31 298.02 198.43 302.02 144.01 306.98 139.84 296.66Z" fill="#88CC05"/></g><g><path d="M210.27 290.71C210.27 290.71 211.97 282.21 213.84 281.62 215.71 281.03 225.67 279.96 229.67 281.89 233.67 283.82 232.93 291.1 232.93 291.1 232.93 291.1 230.09 294.01 219.83 294.45 209.58 294.9 210.27 290.71 210.27 290.71Z" fill="#F4DCBA"/><path d="M212.39 286.99C212.39 286.99 213.74 282.45 215.27 282.14 216.8 281.83 224.95 281.31 228.24 282.36 231.53 283.41 230.95 287.3 230.95 287.3 230.95 287.3 228.63 288.84 220.23 289.03 211.83 289.22 212.39 286.99 212.39 286.99Z" fill="#FFF2E3"/><path d="M209.47 297.2C209.47 297.2 209.41 291.66 212.29 290.48 215.17 289.3 214.1 293.36 214.1 293.36 214.1 293.36 219.01 288.57 224.09 289.14 229.17 289.71 225.12 292.37 225.12 292.37 225.12 292.37 233.98 289.61 232.92 293.69 232.92 293.69 239.45 292.36 237.55 296.34 235.65 300.32 211.7 298.49 209.47 297.2Z" fill="#88CC05"/><path d="M213.22 296.21C213.22 296.21 206.81 291.2 203.89 296.05 200.97 300.89 211.53 297.45 213.22 296.21Z" fill="#88CC05"/></g></g><g><path d="M189.25 192.01C186.93 184.81 180.44 183.73 176.87 190.17 171.73 184.15 163.74 193.9 167.69 197.72 165.04 204.8 177.4 207.57 181.88 201.78 185.18 206.83 191.23 204.95 193.38 201.12 197.17 203.89 198.64 189.13 189.25 192.01Z" fill="#43AA18"/><path d="M187.05 193.59C184.73 186.39 180.44 183.73 176.87 190.17 171.73 184.15 163.74 193.9 167.69 197.72 165.04 204.8 176.1 204.36 180.58 198.57 183.88 203.62 185.44 202.15 187.59 198.32 191.38 201.09 196.44 190.71 187.05 193.59Z" fill="#63C12D"/></g><g><g><path d="M218.62 145.98C213.7 144 218.58 138.02 223.14 139.74 223.14 139.74 218.56 135.42 222.07 131.15 225.59 126.89 228.48 129.75 228.48 129.75 228.48 129.75 231.61 121.44 237.75 124.38 237.75 124.38 240.95 113.51 250.47 114.86 259.99 116.21 259.83 122.72 259.83 122.72 263.72 115.67 275.75 119.37 276.23 125.28 283.7 124.52 291.34 136.5 278.9 140.56 279.18 145.22 273.76 151 269.2 147.16 265.86 157.33 252.46 159.12 249.52 152.25 246.88 158.74 231.66 159.25 230.59 151.81 224.85 158.55 214.11 152.22 218.62 145.98Z" fill="#43AA18"/><path d="M220.83 144.56C215.91 142.58 218.59 138.02 223.14 139.74 223.14 139.74 218.56 135.42 222.07 131.15 225.59 126.89 228.48 129.75 228.48 129.75 228.48 129.75 231.61 121.44 237.75 124.38 237.75 124.38 240.95 113.51 250.47 114.86 259.99 116.21 259.83 122.72 259.83 122.72 263.72 115.67 271.72 120.49 272.21 126.4 279.68 125.64 285.23 134.71 273.71 136.6 273.99 141.26 270.03 145.35 265.46 141.51 262.12 151.68 250.65 152.78 247.71 145.91 245.07 152.4 233.03 153.35 231.96 145.91 226.23 152.65 216.31 150.8 220.83 144.56Z" fill="#63C12D"/></g><g><path d="M94.4 144.11C83.92 137.02 65.1 152.99 81.99 160.85 78.06 167.01 84.08 174.38 90.85 173.27 90.23 182.88 112.78 183.96 116.24 169.17 121.51 175.9 130.01 171.97 132.12 165.99 138.57 174.38 148.96 170.06 151.88 162.72 157.06 163.35 162.27 157 156.15 153.53 156.15 153.53 150.99 142.75 143.25 149.52 141.32 140.41 128.83 136.27 126.74 146.59 126.74 146.59 124.66 136.44 116.55 137.11 108.44 137.78 106.29 144.09 106.29 144.09 106.29 144.09 99.99 132.33 94.4 144.11Z" fill="#43AA18"/><path d="M94.4 144.11C83.92 137.02 68.73 150.89 85.62 158.75 81.69 164.91 87.45 165.93 94.22 164.82 93.6 174.43 109.76 174.81 113.22 160.01 118.49 166.74 127.76 164.24 129.87 158.27 136.32 166.66 142.47 165.61 145.38 158.27 148.91 160.26 157.2 156.87 151.08 153.4 151.08 153.4 150.98 142.75 143.24 149.52 141.31 140.41 128.82 136.27 126.73 146.59 126.73 146.59 124.65 136.44 116.54 137.11 108.43 137.78 106.28 144.09 106.28 144.09 106.28 144.09 99.99 132.33 94.4 144.11Z" fill="#63C12D"/></g><g><path d="M118.68 34.01C113.76 32.03 118.64 26.05 123.2 27.77 123.2 27.77 118.62 23.45 122.14 19.18 125.66 14.92 128.55 17.78 128.55 17.78 128.55 17.78 131.68 9.47 137.82 12.41 137.82 12.41 141.02 1.54 150.54 2.89 160.06 4.24 159.9 10.75 159.9 10.75 163.79 3.7 175.82 7.4 176.3 13.31 183.77 12.55 191.41 24.53 178.97 28.59 179.25 33.25 173.83 39.03 169.27 35.19 165.93 45.36 152.53 47.15 149.59 40.28 146.95 46.77 131.73 47.28 130.66 39.84 124.91 46.58 114.16 40.25 118.68 34.01Z" fill="#43AA18"/><path d="M118.68 34.01C113.76 32.03 118.64 26.05 123.2 27.77 123.2 27.77 118.62 23.45 122.14 19.18 125.66 14.92 128.55 17.78 128.55 17.78 128.55 17.78 131.68 9.47 137.82 12.41 137.82 12.41 141.02 1.54 150.54 2.89 160.06 4.24 159.9 10.75 159.9 10.75 163.79 3.7 171.95 8.61 172.43 14.52 179.9 13.76 183.38 21.23 175.05 24.03 175.33 28.69 170.45 32.58 165.88 28.75 162.54 38.92 151.85 40.05 148.91 33.19 146.27 39.68 131.78 42.8 130.72 35.36 124.98 42.09 114.16 40.25 118.68 34.01Z" fill="#63C12D"/></g><g><path d="M50.76 78.71C45.83 77 50.7 71.91 55.26 73.4 55.26 73.4 50.66 69.69 54.17 66.06 57.67 62.43 60.58 64.88 60.58 64.88 60.58 64.88 63.68 57.79 69.83 60.32 69.83 60.32 73 51.05 82.52 52.23 92.04 53.41 91.91 58.98 91.91 58.98 95.78 52.97 107.81 56.17 108.32 61.22 115.79 60.6 123.47 70.86 111.04 74.28 111.33 78.27 105.94 83.18 101.36 79.89 98.05 88.57 84.66 90.05 81.7 84.17 79.09 89.71 63.86 90.09 62.77 83.73 57.03 89.47 46.26 84.02 50.76 78.71Z" fill="#43AA18"/><path d="M50.76 78.71C45.83 77 50.7 71.91 55.26 73.4 55.26 73.4 50.66 69.69 54.17 66.06 57.67 62.43 60.58 64.88 60.58 64.88 60.58 64.88 63.68 57.79 69.83 60.32 69.83 60.32 73 51.05 82.52 52.23 92.04 53.41 91.91 58.98 91.91 58.98 95.78 52.97 105.23 57.8 105.74 62.85 113.21 62.23 111.24 69.52 105.41 70.27 105.7 74.26 103.16 77.81 98.58 74.52 95.27 83.2 84.21 83.67 81.25 77.79 78.64 83.33 64.18 86.71 63.08 80.35 57.33 86.09 46.26 84.02 50.76 78.71Z" fill="#63C12D"/></g><g><path d="M62.39 121.87C71.91 130.2 92.56 116.7 76.79 106.8 81.46 101.18 76.4 93.11 69.54 93.38 71.35 83.92 49.11 80.05 43.83 94.29 39.44 86.96 30.52 89.81 27.68 95.47 22.32 86.35 11.47 89.34 7.67 96.26 2.61 94.99-3.35 100.64 2.29 104.85 2.29 104.85 6.08 116.19 14.59 110.43 15.37 119.71 27.26 125.37 30.61 115.39 30.61 115.39 31.42 125.72 39.54 126.06 47.66 126.4 50.58 120.4 50.58 120.4 50.58 120.4 55.38 132.87 62.39 121.87Z" fill="#43AA18"/><path d="M59.89 111.69C66.72 120.52 80.72 113.19 71.22 106.69 75.89 101.07 74.08 95.76 67.22 96.02 69.03 86.56 49.1 80.04 43.82 94.29 39.43 86.96 30.51 89.81 27.67 95.47 22.31 86.35 11.46 89.34 7.66 96.26 2.6 94.99-3.36 100.64 2.28 104.85 2.28 104.85 7.37 113.12 15.88 107.36 16.66 116.64 27.53 120.67 30.88 110.68 30.88 110.68 31.76 121.34 39.88 121.68 48 122.02 48.68 112.16 48.68 112.16 48.68 112.16 52.89 122.68 59.89 111.69Z" fill="#63C12D"/></g><g><path d="M283.34 73.59C284.87 67.86 274.79 60.34 268.76 65.67 268.76 65.67 271.09 59.58 262.58 55.12 260.13 53.83 257.83 53.68 255.8 54.11 255.95 53.59 256.08 53.05 256.17 52.52 262.29 51.98 262.97 41.28 254.72 43.53 254.72 43.53 253.72 28.59 242.99 39.44 238.53 29.42 223.12 27.72 223.25 40.12 223.25 40.12 218.36 28.94 209.19 31.71 200.02 34.47 199.09 42.27 199.09 42.27 199.09 42.27 188.93 30.25 185.39 45.19 171.58 39.6 153.82 62.61 175.2 67.52 172.18 75.58 180.92 82.59 188.45 79.65 190.1 90.87 216.34 86.59 216.69 68.7 218.08 69.87 219.51 70.6 220.93 70.99 220.75 71.85 221.05 72.81 222.1 73.74 215.75 78.1 223.74 87.67 231.42 83.26 229.92 90.63 244.44 95.27 249.1 90.04 249.57 97.5 262.78 100.31 269.35 91.86 272.36 97.01 279.4 93.39 280.71 88.9 293.8 89.24 290.63 75.39 283.34 73.59Z" fill="#43AA18"/><path d="M278.72 74.27C280.25 68.54 274.79 60.34 268.75 65.67 268.75 65.67 271.08 59.58 262.57 55.12 260.12 53.83 257.82 53.68 255.79 54.11 255.94 53.59 256.07 53.05 256.16 52.52 262.28 51.98 262.71 40.78 254.71 43.53 254.71 43.53 253.96 28.59 242.98 39.44 238.52 29.42 223.11 27.72 223.24 40.12 223.24 40.12 218.35 28.94 209.18 31.71 200.01 34.47 199.08 42.27 199.08 42.27 199.08 42.27 188.92 30.25 185.38 45.19 171.57 39.6 158.49 59.24 179.87 64.15 176.85 72.21 184.2 73.06 191.73 70.12 193.38 81.34 213.19 82.04 213.55 64.15 216.69 68.7 223.79 66.15 225.21 66.53 225.03 67.39 225.85 70.85 226.9 71.78 220.55 76.14 228.28 82.04 235.96 77.64 234.46 85.01 246.36 87.85 251.03 82.62 251.5 90.08 261.14 92.3 267.71 83.84 270.72 88.99 274.66 87.1 275.96 82.62 283.97 82.6 286.01 76.07 278.72 74.27Z" fill="#63C12D"/></g><g><path d="M120.67 105.46C112.79 103.65 107.08 113.43 108.47 119.15 109.87 124.87 116.52 129 122.72 127.4 122.72 127.4 123.77 133.07 129.37 131.98 134.96 130.89 136.99 126.34 136.99 126.34 136.99 126.34 155.89 132.37 161.13 117.94 161.13 117.94 169.43 122.21 174.73 114.42 174.73 114.42 179.22 131.53 193.58 125.11 193.58 125.11 202.45 134.17 211.49 126 214.66 129.8 224.35 125.37 219.5 118.04 223.76 109.52 216.07 99.56 208.28 104.04 209.02 92.41 196.7 81.41 185.75 91.4 184.07 83.68 176.34 85.59 173.92 89.26 171.14 78.48 151.97 81.99 150.81 91.51 145.21 81.81 120.61 88.46 120.67 105.46Z" fill="#43AA18"/><path d="M120.67 105.46C112.79 103.65 107.08 113.43 108.47 119.15 109.87 124.87 116.02 123.29 122.22 121.7 122.22 121.7 123.87 127.39 129.46 126.3 135.05 125.21 137.22 119.02 137.22 119.02 137.22 119.02 153.68 124.14 158.92 109.71 158.92 109.71 170.92 115.15 176.22 107.36 176.22 107.36 181.23 122.42 195.59 116 195.59 116 198.68 127.44 207.72 119.26 210.89 123.06 219.82 122.07 214.97 114.74 219.23 106.22 213.77 101.17 205.98 105.65 206.72 94.02 196.69 81.38 185.74 91.37 184.06 83.65 176.33 85.56 173.91 89.23 171.13 78.45 151.96 81.96 150.8 91.48 145.21 81.81 120.61 88.46 120.67 105.46Z" fill="#63C12D"/></g></g></g></svg>