<svg width="109.4" height="222.4" viewBox="0 0 109.4 222.4" xmlns="http://www.w3.org/2000/svg" xmlns:xlink="http://www.w3.org/1999/xlink" xml:space="preserve" overflow="hidden"><defs></defs><linearGradient x1="42.3768" y1="-264.999" x2="40.6723" y2="-258.357" gradientUnits="userSpaceOnUse" id="SVGID_1_" gradientTransform="matrix(0.9616 0.2744 -0.2744 0.9616 -65.4609 277.569)"><stop offset="0.2206" stop-color="#FCE8D9"/><stop offset="1" stop-color="#F4C7BD"/></linearGradient><g><path d="M62.14 202.47C88.24 202.47 109.4 206.93 109.4 212.44 109.4 217.95 88.24 222.41 62.14 222.41 36.04 222.41 14.88 217.95 14.88 212.44 14.88 206.93 36.04 202.47 62.14 202.47Z" fill="#76BCDA" opacity="0.5"/><g><g><g><path d="M28.57 74.88C27.91 76.67 27.27 78.45 26.55 80.23 25.56 82.67 24.4 84.96 23.11 87.24 22.9 87.6 22.68 87.93 22.47 88.28 20.86 84.64 19.98 80.44 18.63 76.87 18.02 75.25 16.08 66.24 14.54 65.55 9.27 63.17 4.46 69.12 4.46 69.12 6.54 80.88 7.66 91.96 11.45 98.91 12.63 101.07 14.18 103.33 16.08 104.95 17.75 106.39 20.29 107.69 22.55 107.5 27.58 107.07 32.23 100.51 34.63 96.61 38.78 89.87 46.21 59.94 46.21 59.94 35.12 57.86 31.75 66.29 28.57 74.88Z" fill="#5E5E5C"/><g><g><g><g><g><g><path d="M37.03 61.23C36.63 61.61 36.04 62.13 35.33 62.75 34.62 63.37 33.79 64.11 32.97 64.99 32.56 65.42 32.17 65.91 31.79 66.42 31.47 66.96 31.15 67.51 30.83 68.06 29.61 70.3 28.69 72.68 28.13 74.5 27.51 76.28 27.09 77.46 27.09 77.46 27.09 77.46 26.99 77.76 26.82 78.28 26.65 78.8 26.34 79.53 26 80.41 25.35 82.18 24.27 84.46 23.11 86.69 22.8 87.21 22.5 87.74 22.21 88.25 22.31 88.4 22.4 88.55 22.5 88.71 22.86 88.13 23.22 87.54 23.59 86.95 24.83 84.73 25.97 82.45 26.66 80.67 27.02 79.79 27.36 79.06 27.54 78.54 27.72 78.02 27.83 77.72 27.83 77.72 27.83 77.72 28.23 76.52 28.83 74.71 29.34 72.9 30.2 70.55 31.33 68.32 32.33 65.99 34.21 64.29 35.56 62.97 36.24 62.31 36.8 61.75 37.17 61.34 37.54 60.92 37.74 60.68 37.71 60.66 37.66 60.64 37.43 60.86 37.03 61.23Z" fill="#5E5E5C"/></g></g></g></g></g><g><g><g><g><g><path d="M19.95 80.32C19.9 80.35 20.04 80.8 20.22 81.49 20.41 82.18 20.6 83.11 20.76 84.04 20.92 84.97 21.06 85.92 21.16 86.62 21.27 87.33 21.34 87.8 21.34 87.8 21.34 87.8 21.44 88.27 21.59 88.97 21.75 89.67 21.98 90.61 22.27 91.53 22.57 92.44 22.93 93.34 23.3 93.97 23.65 94.6 23.95 94.98 23.99 94.96 24.05 94.93 23.83 94.5 23.57 93.84 23.3 93.19 23.02 92.29 22.79 91.38 22.57 90.47 22.4 89.54 22.28 88.84 22.17 88.14 22.09 87.67 22.09 87.67 22.09 87.67 22 87.2 21.86 86.5 21.72 85.8 21.52 84.86 21.29 83.93 21.05 83 20.78 82.07 20.5 81.4 20.23 80.72 19.99 80.3 19.95 80.32Z" fill="#5E5E5C"/></g><g><path d="M13.73 65.66C13.74 65.63 13.51 65.57 13.1 65.47 12.69 65.36 12.09 65.28 11.37 65.24 11.01 65.25 10.61 65.21 10.2 65.28 9.99 65.31 9.78 65.33 9.56 65.36 9.34 65.4 9.13 65.47 8.9 65.52 8.45 65.61 8.02 65.83 7.57 66.01 7.36 66.13 7.15 66.26 6.94 66.38L6.62 66.57 6.33 66.8C5.54 67.37 4.85 68.21 4.58 69.15 4.3 70.09 4.4 70.99 4.5 71.72 4.61 72.45 4.73 73.03 4.8 73.43 4.86 73.84 4.9 74.07 4.9 74.07 4.9 74.07 4.94 74.3 4.99 74.7 5.05 75.11 5.13 75.7 5.22 76.41 5.43 77.83 5.7 79.72 6.08 81.59 6.46 83.46 6.9 85.33 7.37 86.68 7.57 87.37 7.81 87.92 7.96 88.31 8.12 88.7 8.22 88.91 8.24 88.91 8.26 88.9 8.21 88.66 8.1 88.26 8 87.86 7.81 87.29 7.65 86.6 7.27 85.23 6.92 83.36 6.6 81.49 6.29 79.62 6.07 77.73 5.9 76.32 5.82 75.61 5.76 75.02 5.71 74.61 5.67 74.19 5.63 73.95 5.63 73.95 5.63 73.95 5.59 73.71 5.51 73.3 5.43 72.88 5.29 72.3 5.17 71.62 5.06 70.94 4.96 70.13 5.17 69.33 5.38 68.54 5.92 67.79 6.65 67.23L6.91 67 7.2 66.81C7.39 66.69 7.58 66.56 7.78 66.44 8.2 66.26 8.59 66.03 9.01 65.93 9.22 65.87 9.42 65.79 9.63 65.75 9.84 65.71 10.04 65.68 10.24 65.64 10.63 65.55 11.02 65.57 11.37 65.53 12.77 65.51 13.71 65.74 13.73 65.66Z" fill="#5E5E5C"/></g></g><g><path d="M13.08 97.48C13.32 97.37 13.34 96.91 13.13 96.45 12.92 95.99 12.55 95.7 12.31 95.82 12.07 95.93 12.05 96.39 12.26 96.85 12.47 97.31 12.84 97.59 13.08 97.48Z" fill="#5E5E5C"/><path d="M15.13 100.79C15.48 100.57 15.41 99.83 14.97 99.15 14.54 98.47 13.9 98.1 13.55 98.32 13.2 98.54 13.27 99.27 13.71 99.95 14.14 100.64 14.78 101.01 15.13 100.79Z" fill="#5E5E5C"/></g></g><path d="M4.57 69.16C4.54 69.14 4.51 69.11 4.48 69.08 4.86 68.63 9.48 63.26 14.53 65.54 14.6 65.57 14.66 65.62 14.73 65.68 14.75 65.69 14.76 65.71 14.78 65.72 14.85 65.78 14.91 65.85 14.98 65.95 14.98 65.95 14.99 65.96 14.99 65.96 15.06 66.05 15.12 66.15 15.19 66.25 15.21 66.28 15.22 66.3 15.24 66.33 15.27 66.37 15.29 66.43 15.32 66.47 10.97 70.93 4.57 69.16 4.57 69.16Z" fill="#5E5E5C"/><g><path d="M15.6 66.68C15.55 66.61 14.39 67.39 13.13 67.99 12.49 68.25 11.86 68.53 11.35 68.64 11.1 68.71 10.9 68.77 10.75 68.81 10.61 68.85 10.52 68.85 10.52 68.86 10.52 68.86 10.19 68.93 9.68 69.03 9.43 69.1 9.13 69.12 8.81 69.14 8.49 69.15 8.15 69.22 7.81 69.19 7.47 69.17 7.12 69.15 6.8 69.13 6.64 69.13 6.48 69.11 6.34 69.07 6.2 69.05 6.07 69.02 5.94 69 5.43 68.91 5.08 68.85 5.07 68.89 5.06 68.92 5.39 69.04 5.9 69.2 6.03 69.24 6.16 69.28 6.31 69.32 6.46 69.37 6.61 69.4 6.78 69.42 7.11 69.47 7.46 69.51 7.82 69.56 8.17 69.61 8.53 69.56 8.87 69.57 9.2 69.57 9.52 69.56 9.78 69.5 10.31 69.41 10.67 69.36 10.67 69.36 10.67 69.35 10.76 69.35 10.91 69.3 11.06 69.25 11.27 69.18 11.52 69.09 12.04 68.94 12.68 68.62 13.31 68.31 14.54 67.62 15.64 66.73 15.6 66.68Z" fill="#5E5E5C"/></g></g></g><g><path d="M25.72 95.94C25.62 95.95 25.32 94.67 24.75 93.48 24.16 92.31 23.49 91.16 23.49 91.16 23.49 91.16 22.87 89.98 22.33 88.75 21.8 87.5 21.57 86.16 21.64 86.15 21.74 86.13 22.11 87.4 22.72 88.56 23.35 89.72 24.02 90.86 24.02 90.86 24.02 90.86 24.64 92.04 25.14 93.3 25.64 94.58 25.79 95.93 25.72 95.94Z" fill="#5E5E5C"/></g></g><path d="M34.62 96.61C38 91.11 43.56 70.23 45.5 62.68L45.08 59.76C39.62 59.05 36.15 61.05 33.63 64.34 33.3 73.3 32.2 87.48 28.56 89.24 26.8 90.1 25.24 88.36 23.95 85.66 23.67 86.18 23.39 86.7 23.09 87.22 22.88 87.58 22.66 87.91 22.45 88.26 20.98 84.94 20.11 81.15 18.94 77.8 18.94 77.81 18.94 77.83 18.93 77.84 18.77 78.49 25.45 97.88 20.23 100.65 16.58 102.59 10.62 92.24 7.2 85.4 8.23 90.67 9.47 95.33 11.41 98.9 12.59 101.06 14.14 103.32 16.04 104.94 17.71 106.38 20.25 107.68 22.51 107.49 27.57 107.08 32.22 100.52 34.62 96.61Z" fill="#5E5E5C" opacity="0.4"/></g></g><g><g><g><path d="M48.04 194.13 48.2 203.51C48.2 203.51 50.39 209.52 49.49 210.96 49.49 210.96 43.2 211.86 37.46 211.86 31.71 211.86 22.19 213.3 21.65 210.42 21.11 207.55 27.2 204.38 35.12 205.21 35.12 205.21 39.43 205.21 39.61 204.31 39.79 203.41 39.43 194.61 39.43 194.61L48.04 194.13Z" fill="#F9B799"/><path d="M48.04 194.13 48.2 203.51C48.2 203.51 50.39 209.52 49.49 210.96 49.49 210.96 43.2 211.86 37.46 211.86 31.71 211.86 22.19 213.3 21.65 210.42 21.11 207.55 27.2 204.38 35.12 205.21 35.12 205.21 39.43 205.21 39.61 204.31 39.79 203.41 39.43 194.61 39.43 194.61L48.04 194.13Z" fill="#FFBDC0" opacity="0.5"/><path d="M39.62 204.32C39.74 203.75 39.63 199.94 39.54 197.27 43.49 197.99 46.61 197.1 48.09 196.52L48.21 203.51C48.21 203.51 48.42 204.08 48.68 204.91 46.91 204.91 39.1 205.16 38.78 204.85L38.78 204.85C39.24 204.72 39.57 204.55 39.62 204.32Z" fill="#FFFFFF"/><path d="M42.97 200.95C45.96 201.22 46.53 198.39 45.76 197.21 46.74 197.01 47.53 196.75 48.09 196.53L48.2 202.91C45.37 203.47 41.33 204.26 39.38 204.62 39.51 204.54 39.6 204.44 39.63 204.33 39.71 203.93 39.68 202.01 39.63 199.97 40.46 200.41 41.57 200.82 42.97 200.95Z" fill="#7C9E38" opacity="0.2"/></g><g opacity="0.2"><path d="M30.06 205.95C30.08 206.17 30.43 206.32 30.84 206.29 31.26 206.26 31.58 206.07 31.57 205.85 31.56 205.63 31.21 205.48 30.79 205.51 30.38 205.54 30.05 205.74 30.06 205.95Z" fill="#7C9E38"/><path d="M26.92 206.55C26.99 206.88 27.57 207.05 28.22 206.92 28.87 206.79 29.35 206.41 29.28 206.08 29.21 205.75 28.63 205.58 27.98 205.71 27.32 205.83 26.85 206.21 26.92 206.55Z" fill="#7C9E38"/></g></g><path d="M21.66 210.42C21.12 207.55 26.26 203.77 35.13 205.21 35.13 205.21 39.44 205.21 39.62 204.31 39.66 204.11 39.6 202.53 39.6 201.75 42.98 202.61 46.31 202.31 48.17 201.28L48.21 203.5C48.21 203.5 50.4 209.51 49.5 210.95 49.5 210.95 43.21 211.85 37.47 211.85 31.72 211.86 22.2 213.3 21.66 210.42Z" fill="#423F3F"/><path d="M21.66 210.42C21.43 209.21 22.22 207.84 23.86 206.77 24.91 207.83 27.25 208.49 31.46 208.71 37.98 209.04 45.82 208.55 47.22 206.98 47.88 206.25 48.13 204.84 48.22 203.56 48.4 204.06 50.35 209.6 49.5 210.97 49.5 210.97 43.21 211.87 37.47 211.87 31.72 211.86 22.2 213.3 21.66 210.42Z" fill="#423F3F" opacity="0.4"/><path d="M22.15 208.41C23.47 206.38 27.24 204.57 32.85 204.95 35.56 207.32 36.58 210.11 36.58 210.11 34.33 211.27 27.28 210.96 21.69 210.49 21.68 210.47 21.67 210.45 21.67 210.42 21.55 209.85 21.73 209.14 22.15 208.41Z" fill="#FFFFFF"/><path d="M40.21 206.67C39.66 206.97 38.16 205.95 37.04 205.12 37.54 205.08 38.06 205.01 38.5 204.92 39.38 205.42 40.83 206.34 40.21 206.67ZM35.29 205.21C36.32 206.09 37.59 207.09 38.13 206.85 38.72 206.6 37.66 205.73 36.83 205.14 36.16 205.19 35.57 205.21 35.29 205.21ZM39.62 204.32C39.57 204.56 39.24 204.73 38.77 204.86 39.9 205.69 41.4 206.71 41.95 206.41 42.83 205.93 39.62 204.32 39.62 204.32Z" fill="#FFFFFF"/><path d="M41.89 205.6C41.89 205.6 44.04 199.67 40.54 199.27 37.04 198.87 39.69 204.39 39.69 204.39L41.89 205.6Z" fill="#B93313"/><path d="M40.31 202.79C41.24 202.31 41.71 200.85 41.5 199.59 43.59 200.91 41.89 205.6 41.89 205.6L39.69 204.39C39.69 204.39 39.37 203.72 39.1 202.86 39.56 203.01 39.97 202.97 40.31 202.79Z" fill="#423F3F" opacity="0.4"/><path d="M22.12 208.45C22.18 208.36 22.24 208.26 22.31 208.17 22.34 208.13 22.36 208.09 22.4 208.05 22.51 207.91 22.64 207.77 22.78 207.63 22.8 207.61 22.83 207.59 22.85 207.57 22.97 207.45 23.1 207.34 23.24 207.23 23.28 207.19 23.33 207.16 23.38 207.12 23.51 207.02 23.64 206.93 23.78 206.83 23.81 206.81 23.84 206.79 23.87 206.77 24.92 207.83 27.27 208.49 31.47 208.7 32.93 208.77 34.45 208.81 35.95 208.79 36.38 209.57 36.58 210.09 36.58 210.09 34.33 211.25 27.28 210.94 21.69 210.47 21.68 210.45 21.67 210.43 21.67 210.4 21.56 209.86 21.73 209.17 22.12 208.45Z" fill="#7C9E38" opacity="0.2"/><path d="M36.57 210.11C44.23 209.71 48.12 208.93 49.59 208.56 49.76 209.6 49.78 210.51 49.5 210.96 49.5 210.96 43.21 211.86 37.47 211.86 31.72 211.86 22.2 213.3 21.66 210.42 21.58 209.99 21.66 209.49 21.88 208.96 24.76 209.87 29.77 210.47 36.57 210.11Z" fill="#FFFFFF"/><path d="M49.59 209.16C48.12 209.53 44.23 210.31 36.57 210.71 29.77 211.07 24.76 210.48 21.88 209.56 21.77 209.84 21.69 210.11 21.66 210.36 21.6 209.94 21.68 209.46 21.88 208.95 24.76 209.86 29.77 210.45 36.57 210.1 44.23 209.7 48.12 208.92 49.59 208.55 49.69 209.15 49.73 209.7 49.7 210.15 49.69 209.85 49.65 209.52 49.59 209.16Z" fill="#7C9E38" opacity="0.4"/></g><g><g><g><path d="M76.08 196.46 81.04 204.43C81.04 204.43 82.47 210.67 84 211.39 84 211.39 89.76 208.73 94.59 205.6 99.42 202.47 108.19 198.51 107.08 195.8 105.97 193.09 99.14 193.74 92.94 198.75 92.94 198.75 89.32 201.09 88.68 200.44 88.04 199.78 83.56 192.2 83.56 192.2L76.08 196.46Z" fill="#F9B799"/><path d="M76.08 196.46 81.04 204.43C81.04 204.43 82.47 210.67 84 211.39 84 211.39 89.76 208.73 94.59 205.6 99.42 202.47 108.19 198.51 107.08 195.8 105.97 193.09 99.14 193.74 92.94 198.75 92.94 198.75 89.32 201.09 88.68 200.44 88.04 199.78 83.56 192.2 83.56 192.2L76.08 196.46Z" fill="#FFBDC0" opacity="0.5"/><path d="M88.69 200.43C88.28 200.01 86.3 196.76 84.93 194.47 82.01 197.22 78.91 198.17 77.35 198.49L81.05 204.42C81.05 204.42 81.19 205.01 81.42 205.85 82.91 204.89 89.6 200.84 89.7 200.42L89.7 200.42C89.23 200.57 88.86 200.6 88.69 200.43Z" fill="#FFFFFF"/><path d="M84.05 199.42C81.69 201.27 79.67 199.2 79.67 197.8 78.74 198.16 77.93 198.37 77.34 198.49L80.72 203.9C83.4 202.84 87.22 201.3 89.05 200.54 88.89 200.54 88.76 200.51 88.69 200.43 88.41 200.14 87.38 198.51 86.32 196.77 85.86 197.61 85.15 198.56 84.05 199.42Z" fill="#7C9E38" opacity="0.2"/></g><g opacity="0.2"><path d="M97.6 196.61C97.7 196.8 97.49 197.12 97.13 197.32 96.77 197.52 96.39 197.53 96.28 197.35 96.17 197.16 96.39 196.84 96.75 196.64 97.12 196.43 97.5 196.42 97.6 196.61Z" fill="#7C9E38"/><path d="M100.57 195.4C100.69 195.72 100.29 196.17 99.67 196.41 99.05 196.66 98.45 196.6 98.33 196.28 98.2 195.97 98.6 195.51 99.22 195.26 99.84 195.02 100.44 195.08 100.57 195.4Z" fill="#7C9E38"/></g></g><path d="M107.09 195.8C105.98 193.09 99.62 192.72 92.95 198.75 92.95 198.75 89.33 201.09 88.69 200.44 88.55 200.3 87.74 198.94 87.32 198.28 84.95 200.84 81.99 202.39 79.87 202.55L81.04 204.44C81.04 204.44 82.47 210.68 84 211.4 84 211.4 89.76 208.74 94.59 205.61 99.42 202.47 108.2 198.5 107.09 195.8Z" fill="#423F3F"/><path d="M107.09 195.8C106.62 194.66 105.22 193.94 103.26 193.93 102.95 195.39 101.35 197.22 97.93 199.68 92.64 203.5 85.79 207.35 83.76 206.79 82.81 206.53 81.83 205.49 81.06 204.46 81.18 204.98 82.55 210.69 84.02 211.38 84.02 211.38 89.78 208.72 94.61 205.59 99.42 202.47 108.2 198.5 107.09 195.8Z" fill="#B91318" opacity="0.4"/><path d="M105.58 194.37C103.37 193.38 99.22 193.92 94.72 197.28 93.73 200.74 94.39 203.64 94.39 203.64 96.91 203.39 102.66 199.3 107.1 195.87 107.09 195.85 107.09 195.83 107.08 195.8 106.87 195.26 106.33 194.76 105.58 194.37Z" fill="#FFFFFF"/><path d="M89.97 200.33C90.4 200.17 90.87 199.94 91.31 199.71 90.81 201.01 90.11 202.68 89.49 202.73 88.78 202.78 89.49 201.23 89.97 200.33ZM91.48 199.61C91.1 200.55 90.69 201.86 91.32 201.75 91.9 201.65 92.43 200.13 92.81 198.83 92.58 198.98 92.07 199.29 91.48 199.61ZM87.87 203.45C88.5 203.4 89.2 201.72 89.7 200.42 89.24 200.56 88.87 200.6 88.7 200.43 88.69 200.43 86.87 203.53 87.87 203.45Z" fill="#FFFFFF"/><path d="M87.48 202.74C87.48 202.74 82.45 198.94 85.17 196.69 87.89 194.45 88.67 200.52 88.67 200.52L87.48 202.74Z" fill="#B93313"/><path d="M87.28 199.52C86.24 199.62 85.05 198.65 84.55 197.48 83.51 199.72 87.49 202.73 87.49 202.73L88.68 200.52C88.68 200.52 88.59 199.78 88.35 198.91 88.03 199.3 87.67 199.49 87.28 199.52Z" fill="#B91318" opacity="0.4"/><path d="M105.62 194.39C105.52 194.34 105.42 194.3 105.31 194.26 105.26 194.24 105.22 194.22 105.17 194.21 105 194.15 104.82 194.1 104.63 194.06 104.6 194.05 104.57 194.05 104.53 194.04 104.37 194.01 104.2 193.98 104.02 193.96 103.96 193.95 103.9 193.95 103.85 193.95 103.69 193.94 103.53 193.93 103.36 193.92 103.33 193.92 103.29 193.92 103.25 193.92 102.94 195.38 101.33 197.21 97.92 199.67 96.74 200.52 95.47 201.38 94.21 202.19 94.27 203.08 94.39 203.63 94.39 203.63 96.91 203.38 102.66 199.29 107.1 195.86 107.09 195.84 107.09 195.82 107.08 195.79 106.87 195.27 106.35 194.78 105.62 194.39Z" fill="#7C9E38" opacity="0.2"/><path d="M94.4 203.63C87.75 207.46 84.06 208.91 82.62 209.41 83.04 210.37 83.52 211.15 84 211.38 84 211.38 89.76 208.72 94.59 205.59 99.42 202.46 108.19 198.5 107.08 195.79 106.91 195.39 106.57 195.01 106.1 194.68 104.19 197.02 100.3 200.24 94.4 203.63Z" fill="#FFFFFF"/><path d="M82.96 209.92C84.39 209.43 88.08 207.97 94.73 204.14 100.63 200.75 104.52 197.52 106.44 195.19 106.69 195.36 106.89 195.55 107.06 195.74 106.89 195.36 106.56 194.99 106.11 194.68 104.19 197.01 100.3 200.23 94.4 203.63 87.75 207.46 84.06 208.91 82.62 209.41 82.87 209.97 83.13 210.46 83.4 210.82 83.25 210.55 83.1 210.24 82.96 209.92Z" fill="#7C9E38" opacity="0.4"/></g><g><path d="M83.49 180.93C82.94 179.15 78.49 166.19 78.07 164.06 77.65 161.93 79.77 160.82 78.12 156.87 76.48 152.96 75.4 148.73 74.47 144.61 73.5 140.3 73.84 136.2 72.37 131.96 71.95 130.74 70.08 115.49 69.86 115.5 68.96 115.54 68.06 115.6 67.17 115.69 59.48 117.36 51.67 117.87 44.08 116.31 41.64 116.15 39.23 115.8 36.86 115.22 36.78 125.41 31.37 159.45 32.9 166.43 34 171.42 35.07 187.23 37.83 195.99 38.72 198.81 40.05 200.61 42.73 200.57 46.93 200.5 51 199.4 51.51 195.08 52.52 186.59 47.23 170.56 47.54 164.66 47.81 159.55 50.06 137.79 51.2 136.73 54.03 134.11 57.91 143.05 58.52 144.77 59.51 147.55 59.79 150.85 60.51 153.78 61.15 156.36 61.85 158.96 62.28 161.59 63.45 168.87 71.69 197.16 74.15 199.74 76.62 202.32 83.37 200.1 86.61 197.35 89.87 194.58 84.04 182.71 83.49 180.93Z" fill="#2C82C7"/><g><g><g><g><path d="M63 125.67C65.37 127.94 69.65 129.61 69.65 129.61 69.65 129.61 69.78 130.91 69.96 133.07 70.58 132.8 71.2 132.53 71.82 132.26 71.59 128.44 71.37 125.39 71.17 124.21 70.88 122.47 70.38 118.95 69.87 115.48 68.97 115.52 68.07 115.58 67.18 115.67 59.49 117.34 51.68 117.85 44.09 116.29 41.65 116.13 39.24 115.78 36.87 115.2 36.87 115.38 36.87 115.58 36.86 115.78L36.86 115.78C40.31 117.16 46.03 118.8 50.29 118.79 56.65 118.77 60.97 118.3 60.97 118.3 60.97 118.3 60.63 123.4 63 125.67Z" fill="#2C82C7" opacity="0.3"/><path d="M53.48 137.04C53.57 137.09 53.66 137.15 53.75 137.21 53.81 137.25 53.87 137.29 53.93 137.33 54.01 137.39 54.09 137.44 54.16 137.5 54.22 137.55 54.28 137.59 54.34 137.64 54.45 137.73 54.56 137.83 54.67 137.93 54.73 137.98 54.79 138.05 54.85 138.1 54.93 138.17 55 138.24 55.07 138.31 55.13 138.37 55.19 138.43 55.25 138.5 55.32 138.57 55.38 138.65 55.45 138.73 55.5 138.79 55.55 138.85 55.61 138.92 55.66 138.99 55.71 139.05 55.76 139.12L55.91 139.12C55.91 138.84 55.92 138.68 55.92 138.68 55.92 138.68 49.4 130.5 46.86 132 44.32 133.49 48.86 134.56 48.86 134.56L45.77 136.48C45.77 136.48 48.13 136.91 47.77 138.82 47.41 140.74 43.77 157.37 43.23 161.84 42.68 166.32 47.77 180.81 42.5 182.95 37.24 185.08 37.05 172.5 35.97 169.52 35.01 166.9 33.5 164.61 32.65 162.07 32.63 163.47 32.67 164.67 32.78 165.59 32.78 165.6 32.78 165.6 32.78 165.61 32.8 165.75 32.81 165.87 32.83 166 32.83 166.02 32.84 166.04 32.84 166.05 32.86 166.18 32.89 166.31 32.91 166.43 34.01 171.42 35.08 187.23 37.84 195.99 38.73 198.81 40.06 200.61 42.74 200.57 46.94 200.5 51.01 199.4 51.52 195.08 52.5 186.81 47.51 171.39 47.54 165.15 47.54 164.98 47.54 164.82 47.55 164.67 47.82 159.56 50.07 137.8 51.21 136.74 51.27 136.68 51.35 136.64 51.43 136.6 51.45 136.59 51.48 136.58 51.5 136.57 51.57 136.55 51.63 136.53 51.7 136.53 51.73 136.53 51.75 136.52 51.78 136.52 51.88 136.51 51.98 136.52 52.09 136.53 52.1 136.53 52.12 136.53 52.13 136.54 52.23 136.55 52.33 136.58 52.44 136.61 52.48 136.62 52.52 136.64 52.56 136.65 52.64 136.68 52.73 136.71 52.82 136.75 52.86 136.77 52.91 136.79 52.95 136.81 53.07 136.87 53.2 136.93 53.33 137 53.4 136.99 53.44 137.02 53.48 137.04Z" fill="#2C82C7" opacity="0.3"/></g><g><path d="M44.64 157.09C44.45 157.05 44.52 155.71 44.52 155.71 44.52 155.71 44.89 154.44 45.08 154.49 45.27 154.54 45.2 155.87 45.2 155.87 45.2 155.87 44.83 157.13 44.64 157.09Z" fill="#0D5382"/><path d="M43.94 162.33C43.75 162.3 43.76 160.96 43.76 160.96 43.76 160.96 44.07 159.67 44.26 159.7 44.45 159.74 44.44 161.07 44.44 161.07 44.44 161.07 44.12 162.35 43.94 162.33Z" fill="#0D5382"/><path d="M44.34 171.61C44.34 171.61 44.14 170.28 44.32 170.23 44.5 170.18 44.99 171.37 44.99 171.37 44.99 171.37 45.18 172.68 45.01 172.76 44.83 172.84 44.34 171.61 44.34 171.61Z" fill="#0D5382"/><path d="M38.11 124.21C38.44 124 38.88 123.71 39.25 123.31 39.61 122.92 39.93 122.46 40.06 122.04 40.22 121.64 40.26 121.33 40.32 121.34 40.35 121.34 40.4 121.67 40.31 122.14 40.24 122.63 39.95 123.21 39.59 123.71 39.23 124.21 38.77 124.59 38.43 124.85 38.08 125.1 37.84 125.25 37.84 125.25 37.84 125.25 37.02 125.66 36.07 125.9 36.09 125.67 36.12 125.45 36.14 125.23 36.92 124.91 37.54 124.53 37.54 124.53 37.54 124.53 37.77 124.41 38.11 124.21Z" fill="#0D5382"/><path d="M43.88 167.63C43.7 167.67 43.44 166.33 43.44 166.33 43.44 166.33 43.57 164.97 43.76 164.98 43.95 164.99 44.12 166.28 44.12 166.28 44.12 166.28 44.06 167.59 43.88 167.63Z" fill="#0D5382"/><path d="M46.62 145.35C46.62 145.35 47.08 144.12 47.26 144.18 47.44 144.24 47.28 145.56 47.28 145.56 47.28 145.56 46.82 146.79 46.64 146.73 46.45 146.68 46.62 145.35 46.62 145.35Z" fill="#0D5382"/><path d="M45.92 176.61C45.92 176.61 45.66 175.31 45.83 175.23 46.01 175.14 46.56 176.32 46.56 176.32 46.56 176.32 46.82 177.62 46.65 177.71 46.47 177.78 45.92 176.61 45.92 176.61Z" fill="#0D5382"/><path d="M33.03 153.96C33.34 152.4 33.8 150.84 34.17 149.33 34.46 148.13 34.65 147.33 34.7 147.34 34.74 147.35 34.64 148.18 34.43 149.4 34.21 150.62 33.91 152.24 33.62 153.86 33.33 155.48 33.16 157.11 33.08 158.33 33.07 158.95 33.06 159.46 33.05 159.81 33.06 160.16 33.06 160.36 33.06 160.36 33.06 160.36 33.02 161.16 33.26 162.34 33.48 163.52 34.06 165.02 34.68 166.51 35.31 168 35.9 169.55 36.1 170.81 36.16 171.12 36.19 171.41 36.21 171.67 36.23 171.93 36.24 172.15 36.23 172.33 36.21 172.7 36.19 172.91 36.17 172.91 36.1 172.91 36.14 172.07 35.85 170.88 35.58 169.69 34.94 168.22 34.26 166.76 33.03 164.14 32.31 161.18 32.64 158.23 32.7 157.63 32.7 157.04 32.73 156.44 32.75 155.62 32.87 154.79 33.03 153.96Z" fill="#0D5382"/><path d="M47.38 180.21C47.56 180.14 47.98 181.43 47.98 181.43 47.98 181.43 47.97 182.82 47.78 182.82 47.59 182.82 47.31 181.58 47.31 181.57 47.31 181.58 47.2 180.28 47.38 180.21Z" fill="#0D5382"/><path d="M39.76 197.31C39.79 197.26 40.05 197.42 40.42 197.64 40.81 197.82 41.33 198.04 41.86 198.03 42.39 198.02 42.91 197.86 43.28 197.67 43.64 197.47 43.88 197.31 43.88 197.31 43.88 197.31 43.94 197.27 44.05 197.21 44.15 197.14 44.31 197.06 44.47 196.92 44.82 196.67 45.26 196.27 45.69 195.85 46.54 194.99 47.3 193.98 47.38 194.05 47.45 194.11 46.82 195.25 46.03 196.26 45.62 196.75 45.2 197.23 44.83 197.54 44.66 197.7 44.5 197.82 44.38 197.9 44.27 197.98 44.21 198.03 44.21 198.03 44.21 198.03 43.94 198.19 43.51 198.37 43.08 198.55 42.46 198.68 41.84 198.61 41.22 198.55 40.67 198.21 40.3 197.93 39.94 197.59 39.74 197.35 39.76 197.31Z" fill="#0D5382"/><path d="M55.76 139.12 56.16 139.12C56.08 138.97 56.01 138.82 55.93 138.68 55.42 137.79 54.79 136.99 54.29 136.43 53.79 135.88 53.44 135.53 53.44 135.53 53.44 135.53 53.07 135.2 52.5 134.76 51.93 134.32 51.13 133.79 50.31 133.33 48.66 132.4 46.89 131.88 46.87 131.99 46.84 132.1 48.54 132.8 50.09 133.83 51.47 134.72 52.69 135.85 52.96 136.1 52.62 135.89 52.39 135.77 52.39 135.77 52.39 135.77 50.97 135.11 49.47 134.9 47.98 134.66 46.49 134.86 46.5 134.97 46.5 135.08 47.75 135.09 49.05 135.38 48.92 135.54 48.81 135.78 48.81 135.78 48.81 135.78 48.85 136.44 49.03 136.49 49.22 136.54 49.48 135.95 49.48 135.95 49.48 135.95 49.46 135.67 49.4 135.47 50.75 135.8 51.99 136.44 52.1 136.5 53.15 136.64 54.69 137.71 55.76 139.12Z" fill="#0D5382"/><path d="M52.31 130.67C52.33 130.47 51.9 129.12 51.51 127.75 51.1 126.29 50.82 124.8 50.82 124.8 50.82 124.8 50.75 124.43 50.64 123.88 50.5 123.33 50.45 122.58 50.35 121.83 50.24 120.36 50.4 118.89 50.31 118.78 50.53 118.8 50.75 118.82 50.96 118.84 52.55 118.95 53.62 118.97 53.62 118.97 53.62 118.97 53.89 118.96 54.35 118.95 54.81 118.92 55.48 118.94 56.27 118.86 57.58 118.77 59.26 118.57 60.98 118.29 60.94 118.56 60.9 119.14 60.92 119.92 60.94 120.97 61.17 122.34 61.56 123.67L61.56 123.67C61.55 123.68 61.56 123.71 61.59 123.76 61.59 123.78 61.6 123.8 61.6 123.81 62.05 125.17 62.67 126.45 63.23 127.32 63.49 127.78 63.77 128.1 63.94 128.35 64.12 128.59 64.22 128.73 64.22 128.73 64.22 128.73 64.34 128.85 64.54 129.07 64.75 129.28 65.01 129.62 65.4 129.94 66.12 130.64 67.2 131.39 68.35 131.97 68.86 132.2 69.37 132.39 69.87 132.53 69.96 132.67 70.08 132.81 70.17 132.78 70.22 132.77 70.25 132.71 70.28 132.64 70.42 132.68 70.55 132.7 70.69 132.73 70.88 132.65 71.08 132.56 71.27 132.48 70.98 132.41 70.68 132.33 70.37 132.22 70.38 132.13 70.38 132.07 70.38 132.07 70.38 132.07 70.11 131.49 69.92 131.54 69.81 131.57 69.76 131.8 69.73 131.99 69.33 131.83 68.93 131.66 68.54 131.45 67.47 130.83 66.47 130.06 65.8 129.36 65.44 129.05 65.21 128.7 65.01 128.5 64.82 128.29 64.72 128.17 64.72 128.17 64.72 128.17 64.62 128.04 64.45 127.82 64.28 127.59 64.01 127.29 63.75 126.87 63.51 126.53 63.26 126.11 63.02 125.65 63.27 125.91 63.52 126.18 63.79 126.45 64.11 126.75 64.46 127 64.77 127.26 65.08 127.53 65.39 127.73 65.67 127.89 66.22 128.22 66.58 128.45 66.58 128.45 66.58 128.45 68.1 129.15 69.67 129.6 70.54 129.84 71.39 130.05 72 130.18 71.99 130.07 71.97 129.97 71.96 129.87 71.38 129.65 70.59 129.36 69.8 129.06 68.29 128.48 66.85 127.72 66.85 127.72 66.85 127.72 66.49 127.53 65.96 127.24 65.69 127.11 65.38 126.93 65.07 126.7 64.75 126.48 64.4 126.26 64.08 126.01 63.45 125.52 62.88 124.95 62.44 124.49 62.31 124.2 62.19 123.91 62.07 123.61 61.62 122.32 61.31 120.95 61.21 119.9 61.13 119.13 61.11 118.54 61.08 118.28 61.41 118.23 61.75 118.16 62.08 118.1 64.17 117.68 66.24 117.18 67.77 116.69 68.54 116.47 69.17 116.23 69.61 116.08 69.75 116.03 69.86 115.99 69.96 115.95 69.95 115.91 69.95 115.87 69.94 115.84 69.51 115.94 68.73 116.14 67.71 116.39 66.17 116.78 64.09 117.2 62.01 117.55 59.93 117.87 57.83 118.07 56.26 118.13 55.48 118.19 54.82 118.16 54.36 118.17 53.9 118.17 53.64 118.18 53.64 118.18 53.64 118.18 52.59 118.18 51.02 118.11 49.95 118.04 48.63 117.91 47.26 117.68 47.26 117.57 47.26 117.5 47.25 117.49 47.24 117.49 47.21 117.56 47.17 117.66 46.56 117.55 45.93 117.43 45.31 117.27 44.03 116.93 42.76 116.52 41.64 116.06 41.23 116.01 40.82 115.96 40.41 115.89 41.75 116.63 43.46 117.29 45.2 117.82 45.8 117.99 46.4 118.13 47 118.26 46.96 118.4 46.93 118.56 46.88 118.74 46.73 119.51 46.56 120.56 46.55 121.64 46.52 122.17 46.57 122.72 46.6 123.22 46.68 123.72 46.73 124.2 46.85 124.59 46.9 124.79 46.94 124.97 46.99 125.13 47.04 125.28 47.09 125.42 47.13 125.53 47.21 125.75 47.26 125.88 47.26 125.88 47.26 125.88 47.31 126.01 47.42 126.21 47.54 126.41 47.66 126.72 47.89 127.04 48.29 127.72 48.97 128.48 49.69 129.13 51.16 130.43 52.84 131.22 52.88 131.14 52.87 131.1 52.65 130.93 52.31 130.67ZM49.97 128.69C49.31 128.01 48.72 127.26 48.38 126.62 48.18 126.32 48.08 126.02 47.98 125.84 47.88 125.65 47.85 125.54 47.85 125.54 47.85 125.54 47.81 125.43 47.73 125.23 47.69 125.13 47.64 125.01 47.58 124.88 47.54 124.73 47.49 124.57 47.44 124.4 47.32 124.05 47.25 123.61 47.16 123.15 47.11 122.68 47.03 122.18 47.03 121.66 46.97 120.39 47.11 119.12 47.2 118.33 48.31 118.55 49.38 118.7 50.32 118.81 50.23 118.87 49.9 120.34 49.89 121.88 49.93 122.66 49.93 123.46 50.04 124.04 50.12 124.62 50.18 125.01 50.18 125.01 50.18 125.01 50.55 126.53 51.08 127.97 51.52 129.14 52.02 130.27 52.23 130.61 51.63 130.16 50.75 129.5 49.97 128.69Z" fill="#0D5382"/><path d="M45.56 151.89C45.38 151.84 45.47 150.5 45.47 150.5 45.47 150.5 45.87 149.24 46.06 149.3 46.24 149.35 46.14 150.68 46.14 150.68 46.14 150.68 45.74 151.94 45.56 151.89Z" fill="#0D5382"/><path d="M48.49 139.08C48.67 139.13 48.52 140.46 48.52 140.46 48.52 140.46 48.07 141.69 47.89 141.63 47.71 141.57 47.86 140.24 47.86 140.24 47.86 140.24 48.31 139.02 48.49 139.08Z" fill="#0D5382"/><path d="M48.3 187.48C48.11 187.47 47.85 186.22 47.85 186.22 47.85 186.22 47.9 184.95 48.08 184.91 48.26 184.87 48.53 186.16 48.53 186.16 48.53 186.16 48.49 187.48 48.3 187.48Z" fill="#0D5382"/><path d="M49 192.56C48.81 192.57 48.46 191.34 48.46 191.34 48.46 191.34 48.41 190.06 48.59 190.01 48.77 189.96 49.13 191.22 49.13 191.22 49.13 191.22 49.19 192.55 49 192.56Z" fill="#0D5382"/><path d="M49.47 197.95C49.28 197.95 49.02 196.69 49.02 196.69 49.02 196.69 49.06 195.42 49.25 195.38 49.44 195.34 49.7 196.63 49.7 196.63 49.7 196.63 49.66 197.95 49.47 197.95Z" fill="#0D5382"/><path d="M35.74 129.01C36.29 128.77 36.87 128.33 37.4 127.82 38.1 127.17 38.62 126.29 39.01 125.66 39.18 125.32 39.33 125.04 39.43 124.84 39.54 124.65 39.58 124.52 39.58 124.52 39.58 124.52 39.63 124.4 39.72 124.2 39.81 124 39.96 123.72 40.09 123.35 40.37 122.64 40.69 121.65 40.87 120.61 41.04 119.58 41.13 118.52 41.02 117.73 41.01 117.33 40.92 117.02 40.89 116.79 40.85 116.56 40.84 116.42 40.86 116.41 40.88 116.4 40.94 116.52 41.02 116.74 41.1 116.96 41.23 117.28 41.28 117.69 41.47 118.5 41.45 119.62 41.34 120.71 41.21 121.81 40.92 122.87 40.66 123.64 40.55 124.04 40.39 124.33 40.31 124.56 40.22 124.78 40.17 124.9 40.17 124.9 40.17 124.9 40.12 125.03 40 125.23 39.88 125.43 39.72 125.72 39.52 126.07 39.07 126.72 38.48 127.6 37.69 128.25 37.05 128.79 36.33 129.22 35.69 129.38 35.71 129.27 35.73 129.14 35.74 129.01Z" fill="#0D5382"/></g></g><g><g><path d="M34.57 157.93C34.79 157.97 35.02 157.59 35.08 157.09 35.14 156.59 35.01 156.16 34.79 156.12 34.57 156.08 34.34 156.46 34.28 156.96 34.22 157.46 34.35 157.89 34.57 157.93Z" fill="#53ADEA"/><path d="M34.51 161.8C34.86 161.8 35.15 161.15 35.15 160.35 35.15 159.55 34.87 158.89 34.52 158.89 34.17 158.89 33.88 159.53 33.88 160.34 33.88 161.15 34.16 161.8 34.51 161.8Z" fill="#53ADEA"/></g></g></g></g><g><g><g><g><g><path d="M78.3 157.42C78.09 156.83 77.86 156.22 77.62 155.57 77.26 154.73 76.84 153.8 76.41 152.87 75.8 151.51 75.21 150.15 74.87 149.09 74.53 148.03 74.36 147.3 74.3 147.31 74.27 147.31 74.34 148.06 74.6 149.16 74.86 150.26 75.39 151.68 75.96 153.08 76.53 154.46 77.09 155.84 77.45 156.89 77.64 157.41 77.74 157.85 77.84 158.16 77.94 158.47 77.97 158.64 77.97 158.64 77.97 158.64 78.01 158.81 78.08 159.11 78.14 159.41 78.22 159.85 78.23 160.38 78.3 161.44 78.09 162.85 77.83 164.27 77.57 165.68 77.37 167.15 77.42 168.28 77.46 169.41 77.68 170.14 77.71 170.14 77.77 170.13 77.65 169.4 77.7 168.31 77.79 166.12 78.19 164.17 78.69 162.12 79.15 160.33 78.84 158.94 78.3 157.42Z" fill="#0D5382"/><path d="M70.78 186.8C70.95 186.7 70.6 185.46 70.6 185.46 70.6 185.46 69.96 184.35 69.77 184.41 69.58 184.47 69.95 185.74 69.95 185.74 69.95 185.74 70.6 186.89 70.78 186.8Z" fill="#0D5382"/><path d="M72.51 191.65C72.69 191.57 72.44 190.31 72.44 190.31 72.44 190.31 71.89 189.15 71.69 189.19 71.5 189.23 71.76 190.53 71.76 190.53 71.76 190.53 72.34 191.73 72.51 191.65Z" fill="#0D5382"/><path d="M74.61 196.67C74.78 196.58 74.43 195.33 74.43 195.33 74.43 195.33 73.79 194.22 73.61 194.27 73.42 194.33 73.78 195.6 73.78 195.6 73.78 195.6 74.44 196.77 74.61 196.67Z" fill="#0D5382"/><path d="M76.82 200.78C76.98 200.66 76.49 199.47 76.49 199.47 76.49 199.47 75.73 198.43 75.55 198.51 75.37 198.59 75.88 199.82 75.88 199.82 75.88 199.82 76.66 200.9 76.82 200.78Z" fill="#0D5382"/><path d="M69.34 181.84C69.53 181.79 69.33 180.5 69.33 180.5 69.33 180.5 68.82 179.29 68.63 179.34 68.44 179.39 68.64 180.67 68.64 180.67 68.64 180.67 69.15 181.88 69.34 181.84Z" fill="#0D5382"/><path d="M84.93 195.21C84.85 195.14 84.18 195.85 83.33 196.26 82.5 196.7 81.58 196.84 81.58 196.84 81.58 196.84 81.36 196.9 81.02 196.95 80.68 197 80.22 197.01 79.75 196.95 79.29 196.87 78.83 196.71 78.49 196.54 78.16 196.37 77.93 196.22 77.9 196.27 77.87 196.31 78.04 196.53 78.36 196.8 78.68 197.07 79.17 197.34 79.69 197.5 80.21 197.64 80.74 197.7 81.12 197.67 81.51 197.66 81.77 197.61 81.77 197.61 81.77 197.61 82.78 197.36 83.6 196.75 84.45 196.18 85.01 195.28 84.93 195.21Z" fill="#0D5382"/><path d="M59.74 145.56C59.74 145.56 59.33 144.32 59.13 144.35 58.93 144.37 59.03 145.67 59.03 145.67 59.03 145.67 59.44 146.92 59.64 146.89 59.84 146.85 59.74 145.56 59.74 145.56Z" fill="#0D5382"/><path d="M61.42 154.43C61.23 154.47 61.4 155.76 61.4 155.76 61.4 155.76 61.89 156.98 62.08 156.94 62.27 156.89 62.1 155.61 62.1 155.61 62.1 155.61 61.61 154.39 61.42 154.43Z" fill="#0D5382"/><path d="M67.17 174.36C66.98 174.41 67.2 175.69 67.2 175.69 67.2 175.69 67.72 176.9 67.91 176.85 68.1 176.8 67.88 175.51 67.88 175.51 67.88 175.51 67.36 174.31 67.17 174.36Z" fill="#0D5382"/><path d="M65.68 169.39C65.49 169.44 65.71 170.72 65.71 170.72 65.71 170.72 66.23 171.92 66.42 171.87 66.61 171.82 66.39 170.54 66.39 170.54 66.39 170.54 65.87 169.34 65.68 169.39Z" fill="#0D5382"/><path d="M60.2 149.4C60.01 149.43 60.15 150.72 60.15 150.72 60.15 150.72 60.6 151.95 60.8 151.91 60.99 151.87 60.85 150.58 60.85 150.58 60.85 150.58 60.39 149.37 60.2 149.4Z" fill="#0D5382"/><path d="M64.2 164.42C64.01 164.47 64.22 165.75 64.22 165.75 64.22 165.75 64.74 166.95 64.93 166.9 65.12 166.85 64.9 165.57 64.9 165.57 64.9 165.57 64.39 164.37 64.2 164.42Z" fill="#0D5382"/><path d="M62.77 159.44C62.58 159.49 62.78 160.77 62.78 160.77 62.78 160.77 63.29 161.98 63.48 161.93 63.67 161.88 63.47 160.6 63.47 160.6 63.47 160.6 62.96 159.39 62.77 159.44Z" fill="#0D5382"/><path d="M58.13 140.56C58.13 140.56 58.49 141.83 58.68 141.81 58.87 141.79 58.84 140.5 58.84 140.5 58.84 140.5 58.49 139.25 58.29 139.26 58.09 139.27 58.13 140.56 58.13 140.56Z" fill="#0D5382"/></g></g><g><g><path d="M75.51 158.36C75.3 158.46 74.96 158.17 74.75 157.71 74.54 157.25 74.53 156.8 74.74 156.7 74.95 156.6 75.29 156.89 75.5 157.35 75.71 157.8 75.72 158.25 75.51 158.36Z" fill="#53ADEA"/><path d="M76.77 162.03C76.42 162.14 75.94 161.6 75.69 160.84 75.44 160.07 75.52 159.37 75.86 159.26 76.2 159.15 76.69 159.69 76.94 160.45 77.19 161.21 77.11 161.93 76.77 162.03Z" fill="#53ADEA"/></g></g></g></g></g><g><path d="M83.49 180.93C82.94 179.15 78.49 166.19 78.07 164.06 77.65 161.93 79.77 160.82 78.12 156.87 78.07 156.76 78.04 156.64 77.99 156.52 78.13 157.43 78.14 158.27 78.08 159.1 77.89 161.72 78.27 162.35 77.53 165.52 76.8 168.7 79.73 175.3 77.77 178.96 75.81 182.63 67.75 164.54 63.1 152.81 58.46 141.08 53.41 135.53 53.41 135.53 53.41 135.53 53.45 135.93 53.53 136.67 55.82 138.23 58.07 143.47 58.52 144.75 59.51 147.53 59.79 150.83 60.51 153.76 61.15 156.34 61.85 158.94 62.28 161.57 63.45 168.85 71.69 197.14 74.15 199.72 76.62 202.3 83.37 200.08 86.61 197.33 89.87 194.58 84.04 182.71 83.49 180.93Z" fill="#2C82C7" opacity="0.3"/><path d="M74.47 144.6C73.5 140.29 73.84 136.19 72.37 131.95 72.08 131.13 71.15 123.99 70.5 119.38 70.48 119.39 70.46 119.4 70.44 119.41 70.35 118.79 70.26 118.15 70.16 117.49 70.06 116.83 69.97 116.15 69.87 115.48 68.97 115.52 68.07 115.58 67.18 115.67 59.49 117.34 51.68 117.85 44.09 116.29 41.77 116.14 39.47 115.81 37.21 115.27 37.16 115.41 37.1 115.55 37.05 115.7 36.99 115.86 36.91 116.07 36.84 116.32 36.84 116.33 36.84 116.35 36.84 116.37 36.83 116.7 36.81 117.05 36.79 117.41 36.79 117.41 36.79 117.41 36.79 117.41 36.77 117.77 36.75 118.15 36.72 118.54 36.72 118.56 36.72 118.58 36.72 118.6 36.75 118.7 36.78 118.81 36.84 118.9 37.52 120.19 43.93 124.98 53.55 124.98 60.57 124.98 65.91 123.01 68.77 121.65 68.19 123.75 68.6 126.65 68.98 128.23 69.96 132.26 71.42 144.48 74.6 149.14 75.38 150.28 75.99 151.29 76.47 152.22 75.69 149.71 75.04 147.14 74.47 144.6Z" fill="#2C82C7" opacity="0.3"/></g></g><g><g><path d="M74.89 61.88C74.5 61.53 65.51 56.85 57.66 56.13 49.81 55.41 42.99 58.11 37.87 60.98 35.56 76.85 34.67 76.82 35.99 94.93 37.01 108.94 36.84 111.81 36.84 111.81 36.84 111.81 35.82 113.96 36.5 115.22 37.18 116.48 43.67 121.15 53.39 121.15 64.22 121.15 71.13 116.66 71.13 116.66 71.3 115.49 70.87 114.59 70.19 113.07 69.85 111.99 73 86.85 73 86.85 73 86.85 78.47 65.12 74.89 61.88Z" fill="#5E5E5C"/><path d="M36.51 115.23C35.98 114.25 36.48 112.73 36.73 112.1 52.2 122.77 66.37 115.82 70.36 113.43 70.94 114.74 71.29 115.59 71.14 116.66 71.14 116.66 64.23 121.15 53.4 121.15 43.67 121.16 37.19 116.49 36.51 115.23Z" fill="#5E5E5C"/><path d="M57.66 56.14C65.51 56.86 74.5 61.54 74.89 61.89 75.38 62.33 75.7 63.13 75.89 64.16 75.15 64.47 74.39 64.49 73.7 64.05L63.46 59.02C63.46 59.02 59.02 63 54.25 62.07 49.18 61.08 49.18 58.12 49.18 58.12L37.78 61.72C37.84 61.25 37.88 60.99 37.88 60.99 42.99 58.11 49.81 55.42 57.66 56.14Z" fill="#5E5E5C"/><g opacity="0.4"><g><path d="M54.59 64.04C54.58 64.14 55.73 64.32 56.89 64.23 58.06 64.16 59.19 63.81 59.19 63.81 59.19 63.81 59.47 63.7 59.87 63.51 60.27 63.31 60.79 63.02 61.27 62.65 61.74 62.27 62.17 61.85 62.43 61.47 62.69 61.1 62.82 60.82 62.78 60.8 62.73 60.76 62.54 60.98 62.22 61.27 61.91 61.57 61.46 61.91 60.99 62.2 60.04 62.78 58.97 63.08 58.97 63.08 58.97 63.08 57.94 63.48 56.83 63.69 55.73 63.91 54.6 63.93 54.59 64.04Z" fill="#5E5E5C"/></g><g><path d="M47.77 61.17C47.7 61.23 48.33 62.11 49.12 62.85 49.91 63.58 50.84 64.15 50.84 64.15 50.84 64.15 51.09 64.26 51.46 64.41 51.64 64.49 51.86 64.58 52.1 64.64 52.34 64.71 52.59 64.79 52.85 64.85 53.89 65.07 54.94 65.03 54.94 64.94 54.94 64.82 53.93 64.67 52.98 64.33 52.74 64.24 52.52 64.13 52.3 64.05 52.08 63.97 51.88 63.87 51.72 63.77 51.39 63.59 51.17 63.47 51.17 63.47 51.17 63.47 50.27 63.02 49.43 62.43 48.6 61.82 47.85 61.09 47.77 61.17Z" fill="#5E5E5C"/></g><g><path d="M49.3 115.59C49.29 115.63 49.85 115.85 50.74 116.07 51.62 116.29 52.83 116.44 54.04 116.47 55.25 116.48 56.46 116.38 57.36 116.25 58.26 116.12 58.85 116 58.85 116 58.85 116 59 115.96 59.25 115.9 59.5 115.83 59.88 115.75 60.31 115.62 61.18 115.38 62.33 115 63.46 114.59 64.59 114.17 65.71 113.73 66.54 113.38 67.37 113.03 67.92 112.78 67.9 112.73 67.87 112.63 65.59 113.38 63.3 114.08 62.16 114.42 61.01 114.74 60.14 114.95 59.71 115.06 59.35 115.13 59.09 115.18 58.84 115.24 58.69 115.27 58.69 115.27 58.69 115.27 58.11 115.41 57.24 115.57 56.37 115.74 55.2 115.89 54.02 115.95 52.84 115.98 51.66 115.92 50.77 115.79 49.9 115.65 49.32 115.53 49.3 115.59Z" fill="#5E5E5C"/></g><g><path d="M40.77 111.64C40.75 111.69 41.06 111.9 41.56 112.21 42.05 112.54 42.76 112.85 43.47 113.16 43.83 113.31 44.2 113.41 44.55 113.53 44.72 113.59 44.89 113.64 45.05 113.69 45.21 113.73 45.37 113.76 45.51 113.79 46.08 113.91 46.46 113.99 46.46 113.99 46.46 113.99 47.99 114.15 49.51 114.14 51.03 114.13 52.54 114.08 52.54 113.98 52.54 113.87 51.03 113.73 49.53 113.6 48.03 113.47 46.56 113.24 46.56 113.24 46.56 113.24 46.19 113.18 45.64 113.1 45.5 113.08 45.35 113.06 45.19 113.03 45.03 112.99 44.87 112.96 44.7 112.91 44.36 112.82 43.99 112.76 43.63 112.65 42.92 112.41 42.2 112.19 41.68 111.94 41.16 111.72 40.8 111.59 40.77 111.64Z" fill="#5E5E5C"/></g><g><path d="M70.11 101.22C70.23 101.21 70.25 99.95 70.55 98.75 70.62 98.45 70.73 98.16 70.8 97.88 70.88 97.6 70.97 97.35 71.05 97.13 71.21 96.7 71.32 96.4 71.32 96.4 71.32 96.4 71.72 95.21 72.12 94.02 72.52 92.81 72.75 91.54 72.66 91.52 72.56 91.49 72.16 92.68 71.65 93.82 71.14 94.96 70.65 96.13 70.65 96.13 70.65 96.13 70.56 96.44 70.42 96.9 70.35 97.13 70.27 97.4 70.22 97.7 70.16 98 70.08 98.31 70.04 98.63 69.87 99.94 70.04 101.23 70.11 101.22Z" fill="#5E5E5C"/></g></g><path d="M71.1 116.69C71.09 116.69 71.08 116.7 71.07 116.71 71.06 116.71 71.06 116.72 71.05 116.72 71.03 116.73 71 116.75 70.97 116.77 70.96 116.78 70.95 116.78 70.94 116.79 70.91 116.81 70.88 116.82 70.85 116.84 70.83 116.85 70.81 116.86 70.79 116.87 70.78 116.88 70.76 116.89 70.75 116.89 70.73 116.9 70.72 116.91 70.7 116.92 70.67 116.94 70.64 116.95 70.61 116.97 70.57 116.99 70.53 117.02 70.48 117.04 70.45 117.06 70.42 117.07 70.39 117.09 70.38 117.1 70.36 117.11 70.35 117.11 70.25 117.17 70.13 117.23 70.01 117.29 69.98 117.31 69.95 117.32 69.91 117.34 69.87 117.36 69.83 117.38 69.79 117.4 69.73 117.43 69.66 117.47 69.6 117.5 69.55 117.53 69.49 117.55 69.43 117.58 69.4 117.59 69.38 117.6 69.35 117.62 69.33 117.63 69.31 117.64 69.29 117.65 69.22 117.68 69.14 117.72 69.06 117.76 69.02 117.78 68.98 117.8 68.93 117.82 68.85 117.86 68.77 117.9 68.68 117.94 68.67 117.94 68.66 117.95 68.65 117.95 68.61 117.97 68.57 117.98 68.54 118 68.45 118.04 68.37 118.08 68.28 118.12 68.28 118.12 68.27 118.12 68.27 118.12 68.23 118.14 68.2 118.15 68.16 118.17 67.99 118.24 67.82 118.32 67.64 118.39 67.63 118.4 67.61 118.4 67.59 118.41 67.4 118.49 67.21 118.57 67.01 118.64 66.99 118.65 66.97 118.66 66.94 118.67 66.82 118.72 66.69 118.76 66.57 118.81 66.56 118.81 66.55 118.82 66.54 118.82 66.5 118.83 66.46 118.85 66.43 118.86 66.32 118.9 66.21 118.94 66.1 118.98 66.03 119 65.97 119.03 65.9 119.05 65.78 119.09 65.66 119.13 65.53 119.18 65.46 119.2 65.39 119.23 65.32 119.25 65.2 119.29 65.08 119.33 64.95 119.37 64.89 119.39 64.82 119.41 64.75 119.43 64.61 119.47 64.47 119.52 64.33 119.56 64.31 119.56 64.29 119.57 64.27 119.58 64.25 119.58 64.24 119.59 64.22 119.59 63.96 119.67 63.69 119.74 63.42 119.82 63.41 119.82 63.39 119.83 63.38 119.83 63.11 119.9 62.84 119.97 62.56 120.04 62.51 120.05 62.46 120.07 62.4 120.08 62.25 120.12 62.1 120.15 61.94 120.19 61.88 120.2 61.82 120.22 61.76 120.23 61.74 120.23 61.72 120.24 61.7 120.24 61.54 120.28 61.38 120.31 61.22 120.34 61.14 120.36 61.05 120.38 60.97 120.39 60.81 120.42 60.65 120.45 60.49 120.48 60.47 120.48 60.45 120.49 60.42 120.49 60.35 120.5 60.28 120.52 60.21 120.53 60.04 120.56 59.87 120.59 59.71 120.62 59.62 120.63 59.54 120.65 59.45 120.66 59.27 120.69 59.09 120.71 58.91 120.74 58.84 120.75 58.77 120.76 58.71 120.77 58.26 120.83 57.8 120.89 57.33 120.94 61.94 119.58 63.98 117.72 59.9 118.31 52.48 119.39 47.11 118.44 41.73 116.42 39.11 115.44 37.44 114.1 36.41 112.99 36.58 112.31 36.83 111.8 36.83 111.8 36.83 111.8 36.83 111.77 36.83 111.72 36.83 111.71 36.83 111.7 36.83 111.69 36.83 111.67 36.83 111.65 36.83 111.62 36.83 111.61 36.83 111.61 36.83 111.6 36.83 111.6 36.83 111.59 36.83 111.59 36.83 111.5 36.83 111.38 36.83 111.23 36.83 111.22 36.83 111.22 36.83 111.21 36.83 111.2 36.83 111.2 36.83 111.19 36.83 111.14 36.83 111.09 36.83 111.04 36.83 111.03 36.83 111.02 36.83 111.01 36.83 110.95 36.83 110.88 36.83 110.81 36.83 110.8 36.83 110.79 36.83 110.78 36.82 109.81 36.78 108.03 36.62 104.97 36.62 104.91 36.61 104.85 36.61 104.79 36.6 104.6 36.59 104.41 36.58 104.22 36.57 104.06 36.56 103.9 36.55 103.73 36.54 103.63 36.54 103.53 36.53 103.43 36.53 103.39 36.52 103.35 36.52 103.3 39.91 112.09 46.28 114.99 56.18 112.8 60.96 111.74 63.52 106.4 65.02 102 65.95 99.27 65.87 96.75 66.25 93.98 66.7 90.69 67.16 87.4 67.6 84.11 68.38 78.28 68.71 72.35 68.85 66.48 68.9 64.25 69.25 61.28 67.51 59.78 66.14 58.6 64.35 58.15 62.9 57.1 69.03 58.71 74.55 61.6 74.86 61.88 75.92 62.84 76.19 65.42 76.04 68.57L76.04 68.57C75.71 75.59 73.33 85.47 73.02 86.71 73.02 86.72 73.02 86.73 73.01 86.74 73.01 86.76 73 86.78 73 86.79 72.99 86.82 72.99 86.84 72.99 86.84 72.99 86.84 69.86 112 70.2 113.07 70.88 114.6 71.31 115.49 71.14 116.66 71.14 116.67 71.12 116.67 71.1 116.69 71.1 116.69 71.1 116.69 71.1 116.69Z" fill="#5E5E5C" opacity="0.4"/></g><g opacity="0.4"><path d="M58.57 65.89C58.51 65.64 58.08 65.53 57.61 65.66 57.14 65.78 56.82 66.09 56.88 66.35 56.94 66.6 57.37 66.71 57.84 66.58 58.3 66.45 58.63 66.14 58.57 65.89Z" fill="#5E5E5C"/><path d="M62.02 64.48C61.87 64.1 61.18 64.03 60.46 64.33 59.75 64.63 59.29 65.19 59.44 65.57 59.58 65.95 60.28 66.02 60.99 65.72 61.71 65.42 62.17 64.86 62.02 64.48Z" fill="#5E5E5C"/></g><g opacity="0.4"><path d="M36.96 85.52C37.21 85.52 37.42 85.12 37.43 84.61 37.44 84.1 37.25 83.69 37 83.68 36.75 83.68 36.54 84.08 36.53 84.59 36.51 85.1 36.71 85.51 36.96 85.52Z" fill="#5E5E5C"/><path d="M37.32 89.39C37.71 89.34 37.96 88.65 37.87 87.85 37.79 87.05 37.4 86.43 37.01 86.48 36.62 86.52 36.38 87.21 36.46 88.02 36.54 88.82 36.93 89.44 37.32 89.39Z" fill="#5E5E5C"/></g><path d="M57.66 56.14C58.64 56.23 59.64 56.38 60.63 56.58 60.63 56.58 60.64 56.59 60.64 56.59 60.64 56.59 62.6 57.85 61.83 58.75 61.06 59.65 57.74 61.53 54.07 60.45 50.4 59.37 50.49 57.31 51.34 56.41 51.4 56.35 51.49 56.29 51.61 56.24 53.55 56 55.57 55.95 57.66 56.14Z" fill="#5E5E5C" opacity="0.4"/></g><g><g><path d="M98.14 93.91C98.09 93.77 98.04 93.62 97.99 93.47 98 93.41 98.02 93.35 98.04 93.3 97.9 92.96 97.77 92.65 97.63 92.32 97.4 91.6 97.13 90.89 96.74 90.29 95.99 88.65 95.21 87.14 94.39 85.84 90.25 79.28 74.65 61.49 74.65 61.49 65.34 73.47 74.03 85.25 74.03 85.25 75.86 87.37 77.71 89.46 79.59 91.54 80.85 92.94 82.09 94.45 83.5 95.71 85.07 97.11 86.21 97.78 85.62 100.26 85.05 102.65 83.02 105.98 81.14 107.63 79.96 108.67 76.23 110.19 76.22 111.99 76.22 114.72 78.17 117.51 80.33 119.04 82.12 120.31 83.9 120.78 85.8 119.6 88.11 118.17 89.89 116.04 91.64 114.02 93.43 111.95 94.85 109.43 96.06 106.97 97.35 104.34 98.23 101.47 98.64 98.57 98.85 97.12 98.63 95.27 98.14 93.91Z" fill="#5E5E5C"/></g><g><g><g><g><g><g><path d="M86.1 98.55C85.87 98.22 85.6 97.85 85.29 97.44 84.26 96.08 82.74 94.36 81.2 92.69 79.66 91.01 78.11 89.34 77.02 88.05 75.92 86.76 75.24 85.86 75.24 85.86 75.24 85.86 75.07 85.64 74.77 85.25 74.47 84.86 74.05 84.29 73.59 83.59 73.11 82.89 72.63 82.04 72.15 81.1 71.69 80.16 71.28 79.11 70.98 78.04 70.67 76.96 70.54 75.85 70.49 74.8 70.49 74.54 70.48 74.28 70.48 74.03 70.48 73.78 70.51 73.53 70.52 73.29 70.53 72.81 70.62 72.35 70.67 71.93 70.94 70.26 71.34 69.18 71.27 69.16 71.25 69.15 71.13 69.41 70.96 69.88 70.77 70.35 70.57 71.04 70.38 71.88 70.3 72.3 70.19 72.76 70.16 73.26 70.14 73.51 70.1 73.76 70.09 74.02 70.08 74.28 70.08 74.55 70.07 74.81 70.08 75.89 70.18 77.05 70.46 78.17 70.73 79.29 71.12 80.38 71.58 81.37 72.05 82.34 72.53 83.24 73 83.96 73.46 84.69 73.87 85.28 74.17 85.69 74.47 86.1 74.64 86.33 74.64 86.33 74.64 86.33 75.35 87.24 76.49 88.52 77.63 89.81 79.22 91.44 80.81 93.07 82.4 94.7 83.97 96.35 85.07 97.65 85.44 98.08 85.75 98.46 86.01 98.78 86.03 98.69 86.06 98.62 86.1 98.55Z" fill="#5E5E5C"/></g></g><g><path d="M95.68 92.85C95.44 92.96 95.41 93.41 95.61 93.86 95.81 94.31 96.17 94.59 96.41 94.49 96.65 94.38 96.68 93.93 96.48 93.48 96.28 93.02 95.92 92.74 95.68 92.85Z" fill="#5E5E5C"/><path d="M93.71 89.58C93.36 89.79 93.41 90.51 93.83 91.18 94.25 91.85 94.87 92.22 95.23 92.01 95.58 91.8 95.53 91.08 95.11 90.41 94.69 89.74 94.06 89.37 93.71 89.58Z" fill="#5E5E5C"/></g></g></g><g><path d="M91.23 96.71C91.25 96.75 90.55 96.98 89.53 97.26 89.28 97.34 89.01 97.43 88.77 97.6 88.64 97.67 88.51 97.75 88.38 97.83 88.25 97.93 88.13 98.03 88 98.13 87.46 98.51 86.96 99.01 86.46 99.49 85.49 100.48 85.21 101.91 84.76 102.91 84.52 103.4 84.32 103.82 84.14 104.09 83.97 104.36 83.88 104.52 83.88 104.52 83.88 104.52 83.77 104.67 83.57 104.92 83.38 105.18 83.08 105.52 82.71 105.92 81.96 106.72 80.86 107.64 79.71 108.52 78.53 109.35 77.3 110.08 76.71 110.96 76.1 111.83 76.28 112.61 76.21 112.6 76.2 112.6 76.14 112.43 76.14 112.11 76.13 111.79 76.23 111.32 76.52 110.84 77.09 109.86 78.35 109.04 79.45 108.19 80.54 107.29 81.6 106.33 82.3 105.55 82.64 105.15 82.93 104.82 83.1 104.57 83.28 104.33 83.38 104.18 83.38 104.18 83.38 104.18 83.47 104.04 83.64 103.78 83.82 103.53 84.01 103.15 84.25 102.69 84.7 101.78 85.04 100.26 86.15 99.2 86.69 98.71 87.23 98.23 87.81 97.86 87.95 97.76 88.09 97.67 88.22 97.57 88.37 97.49 88.51 97.42 88.66 97.35 88.94 97.19 89.23 97.11 89.49 97.04 90.53 96.81 91.21 96.68 91.23 96.71Z" fill="#5E5E5C"/></g><g><path d="M90.13 95C90.17 95.08 89.46 95.54 88.8 96.07 88.14 96.6 87.57 97.19 87.57 97.19 87.57 97.19 87.43 97.33 87.21 97.55 86.97 97.75 86.74 98.08 86.48 98.41 86.01 99.08 85.83 99.91 85.73 99.9 85.66 99.9 85.69 99 86.11 98.19 86.34 97.81 86.56 97.42 86.79 97.18 87 96.93 87.15 96.76 87.15 96.76 87.15 96.76 87.82 96.17 88.56 95.72 89.3 95.27 90.09 94.93 90.13 95Z" fill="#5E5E5C"/></g></g><g><path d="M84.79 119.08C84.73 119.05 84.91 118.7 84.98 118.17 85.1 117.63 84.92 116.9 84.61 116.25 84.31 115.59 83.8 115.04 83.44 114.63 83.04 114.24 82.78 113.99 82.78 113.99 82.78 113.99 81.72 112.95 80.48 112.09 79.26 111.2 77.91 110.52 77.95 110.44 77.98 110.36 79.42 110.91 80.72 111.72 82.05 112.49 83.2 113.54 83.2 113.54 83.2 113.54 83.47 113.82 83.86 114.25 84.22 114.71 84.72 115.33 85 116.08 85.29 116.81 85.41 117.64 85.21 118.22 85.18 118.52 85.01 118.72 84.94 118.87 84.86 119.01 84.81 119.09 84.79 119.08Z" fill="#5E5E5C"/></g></g><path d="M80.01 111.62C80.01 111.62 77.05 109.54 77.29 112.48 77.53 115.41 82.67 119.81 84.26 119.08 85.85 118.35 84.81 113.82 80.01 111.62Z" fill="#5E5E5C" opacity="0.4"/><path d="M97.99 93.47C98 93.41 98.02 93.35 98.04 93.3 97.9 92.96 97.77 92.65 97.63 92.32 97.4 91.6 97.13 90.89 96.74 90.29 95.99 88.65 95.21 87.14 94.39 85.84 90.25 79.28 74.65 61.49 74.65 61.49 74.05 62.26 73.53 63.02 73.08 63.79 73.78 64.26 74.54 64.84 75.35 65.55 78.53 68.36 93.32 89.02 90.14 92.68 88.04 95.1 83.83 94.22 81.2 93.34 81.94 94.16 82.69 94.98 83.5 95.7 85.01 97.05 86.11 97.74 85.66 100.01 87.82 99.18 93.28 97.35 95.03 99.39 97.23 101.96 93.81 109.9 86.11 111.98 81.66 113.18 81.09 110.14 81.4 107.36 81.31 107.44 81.23 107.54 81.14 107.61 79.96 108.65 76.23 110.17 76.22 111.97 76.22 114.7 78.17 117.49 80.33 119.02 82.12 120.29 83.9 120.76 85.8 119.58 88.11 118.15 89.89 116.02 91.64 114 93.43 111.93 94.85 109.41 96.06 106.95 97.35 104.32 98.23 101.45 98.64 98.55 98.85 97.11 98.63 95.25 98.14 93.89 98.09 93.77 98.04 93.62 97.99 93.47Z" fill="#5E5E5C" opacity="0.4"/></g><g><g><g><path d="M61.37 50.05 60.74 58.17C60.74 58.17 56.37 62.17 51.87 58.04L51.5 51.42 61.37 50.05Z" fill="#F9B799"/><path d="M60.74 58.16C60.74 58.16 56.37 62.16 51.87 58.03L51.85 57.65C58.7 61.23 60.03 52.8 58.87 52.91 57.93 53 53.66 53.17 51.61 53.24L51.51 51.41 61.38 50.04 60.74 58.16Z" fill="#FFBDC0" opacity="0.5"/></g></g></g></g></g><g><g><g><path d="M82.31 116.52C82.28 116.48 82.26 116.45 82.24 116.41 82.21 116.38 82.19 116.36 82.15 116.32 81.89 116.03 81.63 115.75 81.36 115.48 80.82 114.95 80.26 114.45 79.68 113.96 79.37 113.73 78.54 113.11 78.16 112.83 77.7 114.18 77.04 115.93 75.68 116.44 74.81 116.77 73.9 116.6 73.06 117.04 71.96 117.61 71.1 118.32 69.83 117.64 69.1 117.25 67.62 116.52 67.2 117.82 66.82 119 67.71 120.05 68.75 120.47 69.34 120.71 70.94 120.23 71.23 120.93 71.45 121.46 70.64 122.1 70.28 122.37 69.33 123.07 68.14 123.42 67.07 123.86 64.87 124.77 63.12 126.06 65.12 128.33 67.4 130.93 71.49 129.42 71.49 129.42 71.49 129.42 69.33 130.8 70.61 131.3 71.89 131.79 75.59 128.93 76.6 127.9 77.49 126.98 79.82 120.64 79.82 120.64L82.86 117.43C82.69 117.12 82.51 116.82 82.31 116.52Z" fill="#F9B799"/><g><g><path d="M64.43 126.62C64.41 126.63 64.55 126.92 64.88 127.28 65.2 127.65 65.76 128 66.37 128.25 66.98 128.48 67.62 128.57 68.1 128.6 68.58 128.62 68.9 128.61 68.9 128.61 68.9 128.61 68.98 128.6 69.12 128.58 69.26 128.56 69.46 128.55 69.69 128.5 70.16 128.41 70.77 128.26 71.35 128.02 71.93 127.78 72.49 127.5 72.87 127.22 73.26 126.95 73.47 126.72 73.45 126.7 73.42 126.67 73.17 126.84 72.77 127.05 72.37 127.27 71.81 127.5 71.23 127.68 70.65 127.86 70.06 127.97 69.61 128.04 69.16 128.09 68.86 128.11 68.86 128.11 68.86 128.11 68.56 128.13 68.11 128.14 67.66 128.13 67.06 128.09 66.48 127.91 65.91 127.72 65.36 127.44 65.02 127.14 64.66 126.84 64.47 126.59 64.43 126.62Z" fill="#FF6875"/></g><g><path d="M65.19 124.49C65.17 124.48 65.05 124.77 65.1 125.25 65.12 125.49 65.22 125.78 65.45 126.01 65.68 126.24 65.99 126.37 66.3 126.44 66.93 126.58 67.54 126.5 67.99 126.44 68.44 126.37 68.73 126.3 68.73 126.3 68.73 126.3 69.02 126.22 69.44 126.07 69.86 125.92 70.41 125.7 70.94 125.43 71.47 125.17 71.99 124.87 72.35 124.61 72.72 124.36 72.92 124.13 72.9 124.1 72.87 124.07 72.64 124.24 72.25 124.44 71.86 124.64 71.33 124.89 70.79 125.1 70.25 125.32 69.7 125.5 69.28 125.63 68.86 125.75 68.58 125.81 68.58 125.81 68.58 125.81 68.3 125.89 67.88 125.99 67.46 126.07 66.88 126.18 66.34 126.1 66.07 126.06 65.81 125.97 65.62 125.81 65.43 125.65 65.31 125.43 65.27 125.23 65.19 124.81 65.24 124.5 65.19 124.49Z" fill="#FF6875"/></g><g><path d="M71.45 129.49C71.45 129.48 71.31 129.51 71.11 129.63 70.91 129.75 70.63 129.94 70.36 130.26 70.24 130.42 70.09 130.64 70.14 130.94 70.2 131.25 70.47 131.42 70.73 131.51 71.01 131.6 71.31 131.56 71.57 131.47 71.83 131.38 72.07 131.25 72.3 131.11 72.52 130.97 72.74 130.83 72.96 130.69 73.17 130.55 73.38 130.46 73.61 130.35 73.84 130.24 74.05 130.14 74.26 130.04 74.46 129.93 74.65 129.82 74.82 129.72 75.18 129.54 75.44 129.32 75.63 129.18 75.82 129.04 75.93 128.96 75.93 128.96 75.93 128.96 75.96 128.94 76.01 128.9 76.05 128.85 76.12 128.79 76.2 128.7 76.28 128.62 76.38 128.51 76.5 128.39 76.61 128.27 76.75 128.14 76.86 127.96 77.34 127.28 77.76 126.31 78.17 125.33 78.58 124.35 78.94 123.36 79.21 122.62 79.48 121.87 79.65 121.38 79.62 121.36 79.54 121.32 78.73 123.28 77.85 125.18 77.41 126.13 76.94 127.09 76.5 127.68 76.4 127.84 76.27 127.95 76.16 128.06 76.05 128.17 75.96 128.26 75.88 128.34 75.8 128.42 75.74 128.48 75.7 128.52 75.66 128.56 75.63 128.58 75.63 128.58 75.63 128.58 75.53 128.66 75.35 128.79 75.17 128.92 74.93 129.13 74.6 129.32 74.43 129.42 74.26 129.53 74.07 129.65 73.87 129.75 73.66 129.86 73.45 129.98 73.24 130.09 72.99 130.21 72.77 130.37 72.56 130.52 72.34 130.67 72.13 130.82 71.71 131.1 71.24 131.36 70.82 131.25 70.62 131.19 70.41 131.06 70.39 130.9 70.35 130.74 70.43 130.54 70.54 130.39 70.98 129.76 71.48 129.53 71.45 129.49Z" fill="#FF6875"/></g></g></g><path d="M79.68 113.96C79.48 113.81 79.06 113.5 78.69 113.22 78.47 113.29 78.22 113.38 77.93 113.49 77.62 114.32 77.22 115.19 76.62 115.8 76.39 116.07 76.16 116.25 75.93 116.31 75.85 116.35 75.77 116.41 75.69 116.44 75.22 116.62 74.73 116.65 74.25 116.71 75.41 117.35 76.91 118.31 77.12 119.14 77.47 120.51 78.53 121.86 76.33 125.27 74.13 128.69 69.04 130 66.73 128.49 64.98 127.34 65.28 125.49 65.53 124.65 64.46 125.35 63.88 126.25 64.53 127.48 64.54 127.51 64.56 127.53 64.57 127.56 64.62 127.65 64.68 127.74 64.74 127.84 64.77 127.88 64.79 127.91 64.82 127.95 64.91 128.08 65.01 128.2 65.13 128.34 67.41 130.94 71.5 129.43 71.5 129.43 71.5 129.43 69.34 130.81 70.62 131.31 71.9 131.8 75.6 128.94 76.61 127.91 77.5 126.99 79.83 120.65 79.83 120.65L82.52 117.82C81.86 116.77 81.07 115.58 80.44 114.66 80.18 114.42 79.94 114.18 79.68 113.96Z" fill="#FFBDC0" opacity="0.5"/></g><g><g><path d="M74.87 127.4C74.89 127.41 74.78 127.56 74.58 127.8 74.37 128.03 74.04 128.35 73.57 128.64 72.66 129.24 71.27 129.77 69.81 129.9 69.08 129.99 68.34 129.94 67.66 129.84 66.98 129.69 66.34 129.49 65.87 129.15 65.62 129.01 65.42 128.83 65.26 128.66 65.08 128.5 64.95 128.34 64.87 128.19 64.69 127.9 64.58 127.74 64.58 127.74 64.63 127.73 64.16 127.03 64.28 125.84 64.31 125.24 64.74 124.57 65.31 124.16 65.88 123.72 66.57 123.44 67.25 123.2 68.61 122.72 69.98 122.35 70.84 121.75 71.72 121.16 71.87 120.4 71.94 120.43 71.96 120.43 71.91 120.6 71.81 120.91 71.69 121.2 71.41 121.59 70.98 121.94 70.11 122.64 68.71 123.08 67.4 123.6 66.09 124.08 64.83 124.9 64.84 125.91 64.77 126.87 65.17 127.47 65.13 127.47 65.12 127.47 65.21 127.61 65.36 127.85 65.42 127.98 65.53 128.11 65.68 128.25 65.81 128.4 65.97 128.56 66.19 128.68 66.58 128.98 67.15 129.18 67.77 129.34 68.4 129.45 69.09 129.53 69.79 129.46 71.18 129.39 72.55 128.94 73.46 128.43 74.38 127.94 74.82 127.36 74.87 127.4Z" fill="#FF6875"/></g><g><path d="M77.19 117.63C77.14 117.68 76.78 117.24 76.07 116.89 75.71 116.74 75.27 116.61 74.78 116.67 74.3 116.72 73.79 116.88 73.3 117.1 72.8 117.31 72.34 117.54 71.88 117.8 71.63 117.9 71.38 118.03 71.13 118.07 70.87 118.1 70.64 118.15 70.4 118.15 69.89 118.12 69.57 117.93 69.35 117.84 69.14 117.75 69.01 117.7 69.01 117.7 69.01 117.7 68.89 117.65 68.7 117.59 68.51 117.52 68.27 117.54 67.88 117.64 67.53 117.74 67.19 117.95 67.22 118.33 67.24 118.73 67.57 119.18 67.92 119.54 68.29 119.89 68.75 120.23 69.17 120.35 69.63 120.46 70.13 120.43 70.55 120.57 70.76 120.64 70.95 120.78 71.04 120.95 71.14 121.12 71.14 121.28 71.14 121.4 71.13 121.65 71.07 121.78 71.06 121.78 71.03 121.78 71.05 121.64 71.02 121.41 71 121.18 70.87 120.87 70.48 120.8 70.11 120.71 69.63 120.77 69.09 120.68 68.52 120.55 68.06 120.22 67.62 119.85 67.21 119.46 66.79 119.01 66.71 118.36 66.67 118.05 66.79 117.67 67.02 117.48 67.23 117.27 67.48 117.17 67.69 117.09 67.91 117.03 68.09 116.98 68.3 116.96 68.52 116.94 68.69 116.97 68.83 117 69.09 117.07 69.23 117.13 69.23 117.13 69.23 117.13 69.36 117.19 69.58 117.29 69.8 117.39 70.09 117.55 70.41 117.58 70.58 117.58 70.79 117.55 71 117.54 71.21 117.52 71.42 117.41 71.64 117.34 72.08 117.12 72.61 116.88 73.13 116.69 73.64 116.49 74.21 116.35 74.75 116.33 75.3 116.3 75.79 116.48 76.17 116.68 76.53 116.91 76.8 117.14 76.95 117.33 77.12 117.5 77.21 117.61 77.19 117.63Z" fill="#FF6875"/></g></g></g><g><path d="M5.2 62.52C6.31 63.63 6.18 67.59 6.11 68.77 8.54 69 10.69 68.35 12.76 67.25 11.91 65.42 11.31 61.37 11.31 61.37 14.41 60.88 14.16 55.5 13.83 53.22 13.5 50.94 10.57 50.78 10.57 50.78 10.57 50.78 8.5 38.53 6.5 39.86 3.81 41.65 7.48 48.82 7.48 48.82 5.52 48.33 5.36 49.96 5.36 49.96 5.36 49.96 4.22 49.47 3.08 50.45 1.94 51.43 2.27 52.73 2.27 52.73 2.27 52.73-0.34 53.38 0.31 57.45 1.21 63 5.2 62.52 5.2 62.52Z" fill="#F9B799"/><g><path d="M5.2 62.52C6.31 63.63 6.18 67.59 6.11 68.77 8.54 69 10.69 68.35 12.76 67.25 12.72 67.16 12.68 67.08 12.64 66.98 11.13 67.82 8.68 67.54 8.21 65.2 7.89 63.58 9.59 62.53 11.39 61.88 11.34 61.57 11.31 61.38 11.31 61.38 14.41 60.89 14.16 55.51 13.83 53.23 13.81 53.11 13.79 53.01 13.76 52.9 13.42 54.07 12.89 55.39 12.12 56 10.57 57.22 9.35 54.53 9.35 54.53 8.13 57.38 5.85 56.65 5.85 56.65L5.04 57.63C5.04 57.63 7.81 61.38 4.14 61.13 1.59 60.96 0.9 56.67 0.71 54.06 0.31 54.77 0.05 55.84 0.31 57.46 1.21 63 5.2 62.52 5.2 62.52Z" fill="#FFBDC0" opacity="0.5"/><path d="M7.48 48.83C7.26 48.78 7.07 48.76 6.9 48.75 7.94 49.62 8.75 51.18 8.75 51.18L10.83 50.81C10.67 50.79 10.58 50.78 10.58 50.78 10.58 50.78 10.15 48.27 9.5 45.64 9.34 46.5 9.11 47.19 8.79 47.52 8.2 48.11 7.11 46.88 6.1 45.36 6.67 47.23 7.48 48.83 7.48 48.83Z" fill="#FFBDC0" opacity="0.5"/></g><g><g><path d="M12.7 56.98C12.71 57 12.59 57.07 12.37 57.19 12.16 57.32 11.82 57.44 11.39 57.51 10.97 57.59 10.43 57.55 9.92 57.26 9.7 57.07 9.46 56.88 9.34 56.59L9.23 56.4C9.24 56.41 9.22 56.37 9.22 56.35L9.19 56.24C9.18 56.23 9.15 56.31 9.14 56.34 9.11 56.4 9.14 56.37 9.06 56.47 8.9 56.72 8.7 56.93 8.49 57.12 8.07 57.5 7.53 57.72 7.03 57.72 6.52 57.72 6.14 57.48 5.92 57.29 5.82 57.18 5.74 57.1 5.69 57.04 5.65 56.97 5.63 56.94 5.63 56.94 5.64 56.94 5.53 56.8 5.44 56.54 5.35 56.28 5.27 55.89 5.3 55.44 5.32 54.99 5.41 54.49 5.62 53.97 5.84 53.46 6.16 52.98 6.52 52.54 7.25 51.67 8.23 50.96 9.1 50.82 9.53 50.73 9.9 50.79 10.14 50.86 10.37 50.96 10.5 51.02 10.49 51.04 10.48 51.11 9.94 50.81 9.16 51.06 8.38 51.26 7.51 51.97 6.86 52.82 6.54 53.25 6.26 53.71 6.09 54.17 5.93 54.61 5.86 55.09 5.86 55.47 5.84 55.86 5.93 56.16 6 56.35 6.07 56.54 6.15 56.63 6.14 56.63 6.13 56.64 6.19 56.73 6.32 56.87 6.46 56.99 6.69 57.16 7.03 57.17 7.37 57.18 7.79 57.04 8.16 56.74 8.34 56.59 8.52 56.42 8.67 56.21 8.69 56.18 8.79 56.03 8.85 55.94L9.04 55.62 9.22 55.3 9.31 55.14 9.35 55.06C9.36 55.06 9.36 55.11 9.37 55.14L9.51 55.87C9.55 56 9.56 56.09 9.6 56.24 9.63 56.32 9.66 56.36 9.68 56.42 9.76 56.66 9.94 56.81 10.1 56.98 10.49 57.23 10.96 57.31 11.36 57.27 12.17 57.2 12.67 56.91 12.7 56.98Z" fill="#FF6875"/></g><g><path d="M8.62 61.46C8.53 61.42 8.66 60.91 8.64 60.42 8.61 59.92 8.46 59.46 8.46 59.46 8.46 59.46 8.37 58.98 8.17 58.51 7.96 58.05 7.67 57.61 7.73 57.55 7.78 57.49 8.21 57.84 8.54 58.3 8.86 58.76 9.05 59.31 9.05 59.31 9.05 59.31 9.16 59.88 9.07 60.45 8.98 61.01 8.69 61.49 8.62 61.46Z" fill="#FF6875"/></g><g><path d="M6.83 61.54C6.84 61.55 6.7 61.69 6.43 61.93 6.13 62.12 5.68 62.41 5.05 62.49 3.8 62.71 2.07 61.91 1.18 60.47 0.95 60.12 0.78 59.72 0.67 59.32 0.58 58.93 0.48 58.55 0.39 58.19 0.22 57.45 0.1 56.75 0.04 56.13-0.03 55.51-0.01 54.99 0.04 54.61 0.07 54.42 0.09 54.28 0.11 54.18 0.14 54.08 0.16 54.03 0.16 54.03 0.18 54.03 0.18 53.81 0.41 53.46 0.59 53.12 1.08 52.61 1.78 52.55 2.12 52.53 2.47 52.5 2.86 52.63 3.24 52.73 3.58 52.94 3.9 53.18 4.53 53.67 5.07 54.32 5.47 55.05 5.87 55.75 6.1 56.78 5.49 57.48 4.77 58.11 3.82 57.72 3.45 57.23 3.05 56.75 2.81 56.32 2.51 56.15 2.23 55.97 2.01 55.96 2.02 55.92 2.02 55.91 2.07 55.91 2.17 55.92 2.26 55.94 2.42 55.93 2.57 56.04 2.92 56.19 3.23 56.64 3.62 57.06 3.81 57.29 4.08 57.41 4.38 57.48 4.68 57.49 5.05 57.49 5.24 57.24 5.64 56.75 5.49 55.88 5.09 55.25 4.32 53.94 2.96 52.83 1.88 53.1 1.35 53.17 1.07 53.5 0.94 53.76 0.77 54 0.76 54.2 0.75 54.19 0.75 54.19 0.74 54.23 0.71 54.31 0.69 54.39 0.67 54.52 0.64 54.68 0.59 55 0.56 55.48 0.61 56.07 0.65 56.65 0.75 57.34 0.89 58.07 0.97 58.44 1.05 58.81 1.13 59.2 1.22 59.56 1.35 59.92 1.55 60.24 2.31 61.58 3.87 62.38 5.03 62.25 6.2 62.13 6.79 61.47 6.83 61.54Z" fill="#FF6875"/></g><g><path d="M7.16 52.66C7.11 52.67 7.02 52.42 6.86 52.08 6.67 51.75 6.42 51.3 6.05 50.97 5.35 50.2 4.38 50.19 4.4 50.26 4.4 50.26 4.35 50.26 4.25 50.27 4.15 50.27 4.02 50.27 3.87 50.34 3.56 50.46 3.15 50.76 2.83 51.13 2.51 51.5 2.3 51.96 2.39 52.29 2.47 52.62 2.71 52.79 2.68 52.83 2.68 52.85 2.37 52.78 2.17 52.37 1.98 51.94 2.18 51.32 2.49 50.87 2.81 50.41 3.24 50.04 3.64 49.83 3.85 49.72 4.04 49.69 4.17 49.68 4.3 49.66 4.38 49.65 4.38 49.65 4.38 49.65 4.46 49.65 4.59 49.64 4.72 49.67 4.9 49.71 5.12 49.76 5.33 49.83 5.55 49.97 5.78 50.1 5.97 50.28 6.21 50.44 6.37 50.68 7.1 51.54 7.24 52.66 7.16 52.66Z" fill="#FF6875"/></g><g><path d="M8.62 51.68C8.57 51.67 8.58 51.48 8.51 51.21 8.44 50.94 8.29 50.6 8.08 50.29 7.88 49.98 7.63 49.71 7.44 49.53 7.24 49.35 7.09 49.27 7.09 49.27 7.1 49.3 6.52 48.74 5.92 49.07 5.61 49.19 5.38 49.5 5.22 49.72 5.09 49.96 5 50.14 4.96 50.13 4.89 50.15 4.92 49.22 5.71 48.69 6.07 48.39 6.62 48.41 6.94 48.52 7.11 48.57 7.23 48.63 7.32 48.68 7.41 48.73 7.45 48.76 7.45 48.76 7.45 48.76 7.63 48.89 7.85 49.13 8.06 49.37 8.31 49.71 8.48 50.09 8.65 50.46 8.76 50.87 8.76 51.18 8.75 51.49 8.66 51.69 8.62 51.68Z" fill="#FF6875"/></g><g><path d="M12.78 51.6C12.79 51.58 12.87 51.64 13.01 51.76 13.13 51.89 13.37 52.03 13.51 52.32 13.9 52.83 14.08 53.67 14.15 54.49 14.2 55.32 14.12 56.13 14.07 56.73 14.01 57.33 13.95 57.74 13.95 57.74 13.95 57.74 13.93 57.84 13.89 58.02 13.84 58.2 13.82 58.46 13.69 58.75 13.5 59.35 13.1 60.13 12.45 60.7 11.79 61.27 10.96 61.48 10.37 61.62 9.76 61.71 9.36 61.74 9.36 61.7 9.31 61.58 11.03 61.42 12.16 60.37 12.7 59.84 13.01 59.14 13.15 58.58 13.25 58.31 13.26 58.06 13.3 57.9 13.33 57.74 13.35 57.64 13.35 57.64 13.35 57.64 13.38 57.55 13.4 57.38 13.43 57.21 13.46 56.96 13.51 56.66 13.59 56.07 13.72 55.28 13.72 54.5 13.7 53.73 13.61 52.94 13.31 52.44 13.04 51.92 12.73 51.64 12.78 51.6Z" fill="#FF6875"/></g><g><path d="M10.58 50.54C10.54 50.56 10.27 49.88 10.08 48.84 9.86 47.8 9.56 46.42 9.2 45.06 8.84 43.7 8.41 42.36 7.95 41.44 7.72 40.98 7.49 40.63 7.3 40.44 7.11 40.24 7 40.2 7 40.2 7 40.2 6.88 40.1 6.7 40.11 6.51 40.11 6.2 40.3 6.04 40.74 5.7 41.63 5.8 43.09 6.02 44.45 6.45 47.23 7.85 49.75 7.72 49.8 7.7 49.81 7.6 49.66 7.45 49.39 7.3 49.12 7.08 48.73 6.86 48.24 6.38 47.3 5.9 45.93 5.6 44.54 5.32 43.14 5.13 41.68 5.52 40.55 5.61 40.27 5.78 40.02 5.98 39.82 6.19 39.65 6.42 39.54 6.64 39.52 7.09 39.49 7.28 39.67 7.28 39.65 7.28 39.65 7.5 39.76 7.73 40.02 7.97 40.28 8.22 40.68 8.45 41.18 8.91 42.18 9.31 43.56 9.62 44.94 9.93 46.33 10.16 47.73 10.31 48.78 10.43 49.85 10.62 50.52 10.58 50.54Z" fill="#FF6875"/></g></g></g><path d="M33.15 33.77C32.69 35.23 32.39 36.72 32.34 38.27 32.21 42.64 34.36 47.04 37.85 49.37 40.04 50.84 42.63 51.49 45.17 51.99 51.6 53.25 58.35 53.69 64.76 52.01 69.56 50.76 75.71 46.94 77.17 41.54 78.17 37.83 76.92 33.9 75.68 30.26 73.51 23.91 71.07 17.15 65.87 13.26 60.8 9.46 54.42 9.08 48.83 11.8 42.24 15.01 39.36 20.79 36.04 27.2 34.96 29.32 33.86 31.5 33.15 33.77Z" fill="#F9B799"/><g><path d="M64.64 36.21C64.67 36.45 65.11 36.59 65.61 36.51 66.11 36.43 66.49 36.17 66.45 35.93 66.42 35.69 65.98 35.55 65.48 35.63 64.98 35.71 64.6 35.97 64.64 36.21Z" fill="#F4C7BD"/><path d="M61.45 37.01C61.48 37.25 61.92 37.39 62.42 37.31 62.92 37.23 63.3 36.97 63.26 36.73 63.22 36.49 62.79 36.35 62.29 36.43 61.79 36.51 61.42 36.76 61.45 37.01Z" fill="#F4C7BD"/><path d="M63.55 38.09C63.58 38.33 64.02 38.47 64.52 38.39 65.02 38.31 65.4 38.05 65.36 37.81 65.33 37.57 64.89 37.43 64.39 37.51 63.89 37.59 63.51 37.85 63.55 38.09Z" fill="#F4C7BD"/></g><g><path d="M61.67 29.03C60.2 27.88 58.03 28.2 56.59 29.39 55.09 30.63 54.3 32.59 53.74 34.52 53.71 34.63 53.67 34.76 53.72 34.87 53.77 35 53.91 35.07 54.04 35.11 56.3 35.92 58.75 36.13 61.1 35.72 62.82 35.42 63.69 34.58 63.92 33.56 64.24 32.11 63.3 30.3 61.67 29.03Z" fill="#FFFFFF"/><g><path d="M56.81 33.5C55.82 32.33 55.9 30.53 57 29.48 58.1 28.42 59.8 28.51 60.79 29.68 61.78 30.85 61.7 32.65 60.6 33.7 59.5 34.76 57.81 34.67 56.81 33.5Z" fill="#8C7257"/><path d="M57.61 32.1C57.25 31.68 57.28 31.03 57.68 30.65 58.08 30.27 58.69 30.3 59.05 30.72 59.41 31.14 59.38 31.79 58.98 32.17 58.58 32.55 57.97 32.52 57.61 32.1Z" fill="#3A3129"/><path d="M59.86 30.71C60.05 30.67 60.25 30.63 60.44 30.65 60.73 30.68 60.86 30.81 60.94 31.09 60.96 31.17 60.98 31.25 60.99 31.33 61.04 31.68 60.88 32.26 60.61 32.49 60.45 32.62 60.22 32.53 60.05 32.42 59.64 32.17 58.69 31.72 58.46 31.26 58.29 30.91 58.53 30.98 58.88 30.91 59.21 30.85 59.54 30.78 59.86 30.71Z" fill="#FFFFFF" opacity="0.2"/><path d="M59.9 33.17C59.92 33.18 59.93 33.2 59.94 33.22 59.95 33.26 59.92 33.3 59.89 33.33 59.79 33.42 59.67 33.5 59.54 33.54 59.41 33.58 59.26 33.57 59.14 33.5 59.03 33.43 58.96 33.31 58.9 33.2 58.83 33.07 58.38 32.06 58.77 32.2 58.96 32.27 59.18 32.55 59.33 32.68 59.52 32.85 59.71 33.01 59.9 33.17Z" fill="#FFFFFF" opacity="0.2"/></g><g><path d="M63.86 33.54C63.77 32.83 63.52 32.24 63.13 31.74 62.77 31.22 62.32 30.78 61.86 30.39 61.62 30.2 61.37 30.02 61.12 29.85 60.89 29.71 60.69 29.61 60.45 29.55 59.99 29.41 59.47 29.38 58.96 29.49 57.9 29.65 56.97 30.27 56.14 31.21 55.32 32.15 54.59 33.33 53.81 34.55L53.69 34.52C54.07 33.18 54.55 31.84 55.34 30.66 56.11 29.49 57.32 28.52 58.75 28.28 59.46 28.16 60.2 28.21 60.87 28.47 61.55 28.73 62.09 29.23 62.57 29.74 63.5 30.76 64.28 32.15 63.99 33.59L63.86 33.54Z" fill="#5E5149"/></g></g><g><path d="M39.88 27.68C41.38 26.92 43.15 27.65 44.1 29.04 45.09 30.49 45.32 32.46 45.36 34.35 45.36 34.46 45.36 34.58 45.3 34.67 45.23 34.78 45.09 34.81 44.97 34.83 42.87 35.12 40.75 34.81 38.85 33.96 37.46 33.33 36.91 32.39 36.95 31.4 37.01 30.01 38.22 28.52 39.88 27.68Z" fill="#FFFFFF"/><g><path d="M36.91 31.39C36.99 30.07 37.89 28.96 38.9 28.2 39.42 27.83 39.98 27.46 40.63 27.34 41.28 27.21 41.96 27.32 42.55 27.59 43.76 28.14 44.54 29.33 44.91 30.55 45.3 31.78 45.39 33.08 45.41 34.35L45.31 34.35C44.95 33.09 44.62 31.86 44.16 30.79 43.68 29.72 43.03 28.88 42.13 28.5 41.7 28.29 41.24 28.21 40.8 28.27 40.57 28.29 40.38 28.34 40.12 28.46 39.86 28.58 39.61 28.7 39.36 28.84 38.87 29.13 38.39 29.47 37.99 29.89 37.55 30.29 37.23 30.79 37 31.4L36.91 31.39Z" fill="#5E5149"/></g><g><path d="M38.92 32.55C38.01 31.45 38.12 29.78 39.15 28.82 40.18 27.86 41.75 27.97 42.66 29.06 43.57 30.16 43.46 31.83 42.43 32.79 41.4 33.75 39.83 33.65 38.92 32.55Z" fill="#8C7257"/><path d="M39.68 31.26C39.35 30.86 39.39 30.26 39.76 29.92 40.13 29.57 40.7 29.61 41.03 30.01 41.36 30.41 41.32 31.01 40.95 31.35 40.57 31.69 40.01 31.65 39.68 31.26Z" fill="#3A3129"/><path d="M41.79 30.01C41.97 29.98 42.15 29.94 42.33 29.96 42.6 29.99 42.72 30.11 42.78 30.38 42.8 30.45 42.82 30.53 42.83 30.6 42.87 30.92 42.71 31.46 42.46 31.67 42.31 31.79 42.1 31.7 41.94 31.6 41.56 31.36 40.69 30.93 40.48 30.5 40.33 30.18 40.55 30.24 40.87 30.18 41.18 30.12 41.49 30.06 41.79 30.01Z" fill="#FFFFFF" opacity="0.2"/><path d="M41.79 32.29C41.81 32.3 41.82 32.32 41.83 32.34 41.84 32.38 41.81 32.42 41.78 32.44 41.68 32.52 41.57 32.6 41.45 32.63 41.33 32.66 41.19 32.66 41.08 32.59 40.98 32.53 40.91 32.41 40.86 32.3 40.8 32.17 40.4 31.24 40.75 31.37 40.92 31.44 41.12 31.7 41.27 31.82 41.44 31.99 41.62 32.14 41.79 32.29Z" fill="#FFFFFF" opacity="0.2"/></g></g><path d="M45.03 37.05C44.5 37.44 43.79 37.8 43.74 38.48 43.71 38.84 43.91 39.2 44.18 39.43 44.45 39.66 44.78 39.79 45.11 39.88 45.52 40 45.95 40.07 46.35 39.93 46.98 39.7 47.34 38.99 47.5 38.3 47.76 37.14 47.63 35.65 46.94 34.68 46.28 35.44 45.87 36.44 45.03 37.05Z" fill="url(#SVGID_1_)"/><path d="M46.35 39.93C45.95 40.07 45.51 40 45.11 39.88 44.78 39.78 44.44 39.66 44.18 39.43 43.91 39.2 43.72 38.85 43.74 38.48 44.04 38.84 44.53 39.08 44.94 39.27 45.4 39.49 45.9 39.72 46.35 39.93Z" opacity="0.07"/><g><path d="M50.21 42.98C51.38 43.02 52.55 42.89 53.63 42.48 54.74 42.13 55.74 41.51 56.64 40.77L56.76 40.89C56.73 41.74 56.38 42.4 55.91 42.93 55.44 43.46 54.85 43.86 54.19 44.08 53.53 44.31 52.81 44.36 52.12 44.23 51.43 44.1 50.74 43.79 50.2 43.14L50.21 42.98Z" fill="#E08D80"/></g><path d="M56.38 26.34C58.26 27.82 60.37 28.97 62.6 29.75 65.6 30.79 68.63 31.59 68.88 35.6 68.98 37.13 68.44 38.69 67.44 39.8 68.62 38.48 69.71 36.81 69.85 34.99 69.99 33.17 69.3 31.24 67.88 30.22 66.74 29.4 65.31 29.24 63.96 29 61.26 28.51 58.85 27.59 56.38 26.34Z" opacity="0.15"/><path d="M43.7 17.26C43.7 17.78 41.02 20.07 40.6 20.63 39.7 21.83 38.76 23.16 38.18 24.57 37.03 27.34 35.85 30.3 35.5 33.35 35.25 29.31 34.91 25.04 36.45 21.33 36.74 20.64 37.1 19.95 37.67 19.49 38.19 19.07 38.83 18.88 39.46 18.7 40.83 18.31 42.33 17.66 43.7 17.26Z" opacity="0.15"/><g><path d="M74.8 30.49C75.55 29.59 76.62 28.96 77.75 28.9 78.88 28.83 80.06 29.39 80.67 30.4 81.14 31.18 81.25 32.13 81.29 33.05 81.39 35.18 81.12 37.52 79.69 39.01 78.26 40.49 76.1 40.74 74.1 40.83L74.8 30.49Z" fill="#F4B68C"/><path d="M76.64 34.78C76.64 35.91 77.19 36.82 77.86 36.82 78.53 36.82 79.08 35.91 79.08 34.78 79.08 33.65 78.53 32.74 77.86 32.74 77.19 32.74 76.64 33.65 76.64 34.78Z" fill="#F4C7BD"/></g><g><path d="M62.96 26.49C62.28 26.18 61.63 25.95 60.97 25.83 60.32 25.71 59.69 25.68 59.11 25.72 58.81 25.75 58.52 25.85 58.25 25.96 57.98 26.06 57.74 26.1 57.46 26.03 57.18 25.98 56.9 25.87 56.63 25.72 56.35 25.6 56.07 25.37 55.48 25.37L55.19 25.19C54.98 24.57 55.31 23.92 55.69 23.52 56.08 23.08 56.51 22.85 56.93 22.67 57.82 22.28 58.77 22.75 59.57 23.04 60.39 23.33 61.14 23.77 61.75 24.33 62.36 24.89 62.86 25.54 63.19 26.25L62.96 26.49Z" fill="#BC5D1D"/></g><path d="M53.04 9.41C52.86 8.28 54.02 7.33 55.1 7.35 56.18 7.37 57.13 8.04 58.02 8.69 59.51 9.78 61.01 10.87 62.5 11.97 62.49 10.61 62.33 9.24 62.01 7.92 65.16 7.65 67.99 9.83 70.48 11.89 70.4 10.1 69.34 8.47 67.96 7.43 66.58 6.39 64.92 5.86 63.26 5.51 60.69 4.97 58.04 4.82 55.43 5.06 54.57 5.14 53.69 5.05 53.18 5.84 52.51 6.86 52.87 8.32 53.04 9.41Z" fill="#FFFFFF" opacity="0.1"/><path d="M39.81 8.6C38.37 8.87 37.03 9.71 36.11 10.92 35.19 12.13 34.7 13.7 34.75 15.25 35.64 13.9 36.71 12.68 37.93 11.66 37.88 12.46 37.69 13.26 37.38 13.99 38.46 14.16 39.52 13.56 40.39 12.85 42.01 11.5 43.1 7.98 39.81 8.6Z" fill="#FFFFFF" opacity="0.1"/><path d="M75.25 29.92C75.38 29.83 75.53 29.77 75.69 29.73 76.67 29.5 77.01 30.02 77.38 30.92 77.82 31.98 77.9 33.36 77.84 34.7 78.03 35.55 78.04 36.46 77.83 37.23 77.74 37.57 77.6 37.89 77.43 38.21 77.18 39.54 76.79 40.88 76.4 42.2 77.28 41.62 78.23 41.28 79.25 41.1 79.89 40.23 80.66 39.45 81.3 38.57 83.24 35.89 83.75 32.36 83.94 28.99 84.11 26.03 84.19 22.95 83.86 20 83.65 18.12 82.72 16.52 81.91 14.83 80.24 11.36 77.61 8.52 74.61 6.32 68.65 1.95 60.99-0.32 53.75 0.05 49.71 0.26 45.53 0.89 43.73 4.96 40.14 3.7 36.5 7.11 34.25 10.34 32 13.57 31.32 17.76 31.41 21.78 31.5 26.01 32.59 30.63 35.87 33.04 36.22 29.99 37.4 27.03 38.55 24.26 39.14 22.85 40.07 21.52 40.97 20.32 41.39 19.76 44.07 17.46 44.07 16.95 44.06 19.42 44.47 21.39 45.64 23.2 47.03 22.71 48.66 22.85 50.05 23.47 50.53 23.69 50.97 24 51.38 24.35 51.85 24.44 52.27 24.59 52.64 24.79 53.62 24.71 54.59 24.91 55.38 25.47 55.85 25.81 56.34 26.15 56.79 26.52 56.77 26.36 56.75 26.19 56.74 26.03 58.62 27.51 60.73 28.66 62.96 29.44 63.5 29.63 64.04 29.81 64.57 30 65.48 29.72 66.46 29.66 67.38 29.9 67.76 30 68.15 30.07 68.54 30.14 68.73 30.15 68.93 30.18 69.12 30.19 69.28 30.2 69.45 30.19 69.61 30.2 71.17 29.06 73.28 28.91 75.11 29.87 75.18 29.87 75.21 29.9 75.25 29.92Z" fill="#110802"/></svg>