<svg width="96.4" height="64.3" viewBox="0 0 96.4 64.3" xmlns="http://www.w3.org/2000/svg" xmlns:xlink="http://www.w3.org/1999/xlink" xml:space="preserve" overflow="hidden"><defs></defs><g><g><ellipse cx="57.77" cy="58.74" rx="38.63" ry="5.56" fill="#FFFFFF" opacity="0"/><ellipse cx="57.77" cy="58.74" rx="36.83" ry="5.29" fill="#F8F7F7" opacity="0.0476"/><path d="M92.81 58.74C92.81 61.52 77.12 63.77 57.77 63.77 38.42 63.77 22.73 61.52 22.73 58.74 22.73 55.96 38.42 53.71 57.77 53.71 77.12 53.71 92.81 55.96 92.81 58.74Z" fill="#F2F0F0" opacity="0.0952"/><path d="M91.01 58.74C91.01 61.37 76.13 63.51 57.77 63.51 39.41 63.51 24.53 61.38 24.53 58.74 24.53 56.11 39.41 53.97 57.77 53.97 76.13 53.97 91.01 56.11 91.01 58.74Z" fill="#EBE8E8" opacity="0.1429"/><path d="M89.21 58.74C89.21 61.23 75.13 63.24 57.77 63.24 40.41 63.24 26.33 61.22 26.33 58.74 26.33 56.25 40.41 54.24 57.77 54.24 75.14 54.24 89.21 56.25 89.21 58.74Z" fill="#E4E1E1" opacity="0.1905"/><path d="M87.42 58.74C87.42 61.08 74.15 62.98 57.78 62.98 41.41 62.98 28.14 61.08 28.14 58.74 28.14 56.4 41.41 54.5 57.78 54.5 74.14 54.5 87.42 56.4 87.42 58.74Z" fill="#DED9D9" opacity="0.2381"/><path d="M85.62 58.74C85.62 60.93 73.15 62.71 57.77 62.71 42.39 62.71 29.92 60.93 29.92 58.74 29.92 56.55 42.39 54.77 57.77 54.77 73.15 54.77 85.62 56.54 85.62 58.74Z" fill="#D7D2D2" opacity="0.2857"/><path d="M83.82 58.74C83.82 60.79 72.16 62.45 57.77 62.45 43.38 62.45 31.72 60.79 31.72 58.74 31.72 56.69 43.38 55.03 57.77 55.03 72.16 55.03 83.82 56.69 83.82 58.74Z" fill="#D0CACA" opacity="0.3333"/><path d="M82.02 58.74C82.02 60.64 71.16 62.19 57.77 62.19 44.38 62.19 33.52 60.65 33.52 58.74 33.52 56.84 44.38 55.29 57.77 55.29 71.17 55.29 82.02 56.84 82.02 58.74Z" fill="#CAC3C3" opacity="0.381"/><path d="M80.23 58.74C80.23 60.5 70.18 61.92 57.78 61.92 45.38 61.92 35.33 60.5 35.33 58.74 35.33 56.98 45.38 55.56 57.78 55.56 70.17 55.56 80.23 56.98 80.23 58.74Z" fill="#C3BBBB" opacity="0.4286"/><path d="M78.43 58.74C78.43 60.35 69.18 61.66 57.77 61.66 46.36 61.66 37.11 60.35 37.11 58.74 37.11 57.13 46.36 55.82 57.77 55.82 69.18 55.82 78.43 57.13 78.43 58.74Z" fill="#BCB4B4" opacity="0.4762"/><path d="M76.63 58.74C76.63 60.21 68.19 61.39 57.77 61.39 47.35 61.39 38.91 60.2 38.91 58.74 38.91 57.27 47.35 56.09 57.77 56.09 68.19 56.09 76.63 57.27 76.63 58.74Z" fill="#B6ACAC" opacity="0.5238"/><path d="M74.83 58.74C74.83 60.06 67.19 61.13 57.77 61.13 48.35 61.13 40.71 60.06 40.71 58.74 40.71 57.42 48.35 56.35 57.77 56.35 67.19 56.35 74.83 57.42 74.83 58.74Z" fill="#AFA5A5" opacity="0.5714"/><path d="M73.04 58.74C73.04 59.91 66.21 60.87 57.78 60.87 49.35 60.87 42.52 59.92 42.52 58.74 42.52 57.57 49.35 56.61 57.78 56.61 66.2 56.61 73.04 57.57 73.04 58.74Z" fill="#A89D9D" opacity="0.619"/><path d="M71.24 58.74C71.24 59.77 65.21 60.6 57.77 60.6 50.33 60.6 44.3 59.77 44.3 58.74 44.3 57.71 50.33 56.88 57.77 56.88 65.21 56.88 71.24 57.71 71.24 58.74Z" fill="#A29696" opacity="0.6667"/><path d="M69.44 58.74C69.44 59.62 64.22 60.34 57.77 60.34 51.33 60.34 46.1 59.62 46.1 58.74 46.1 57.86 51.32 57.14 57.77 57.14 64.22 57.14 69.44 57.86 69.44 58.74Z" fill="#9B8E8E" opacity="0.7143"/><path d="M67.64 58.74C67.64 59.48 63.22 60.07 57.77 60.07 52.32 60.07 47.9 59.47 47.9 58.74 47.9 58 52.32 57.41 57.77 57.41 63.22 57.41 67.64 58 67.64 58.74Z" fill="#948787" opacity="0.7619"/><path d="M65.85 58.74C65.85 59.33 62.24 59.81 57.78 59.81 53.32 59.81 49.71 59.33 49.71 58.74 49.71 58.15 53.32 57.67 57.78 57.67 62.23 57.67 65.85 58.15 65.85 58.74Z" fill="#8E7F7F" opacity="0.8095"/><path d="M64.05 58.74C64.05 59.19 61.24 59.55 57.77 59.55 54.3 59.55 51.49 59.19 51.49 58.74 51.49 58.29 54.3 57.93 57.77 57.93 61.24 57.93 64.05 58.29 64.05 58.74Z" fill="#877878" opacity="0.8571"/><path d="M62.25 58.74C62.25 59.04 60.24 59.28 57.77 59.28 55.3 59.28 53.29 59.04 53.29 58.74 53.29 58.44 55.29 58.2 57.77 58.2 60.24 58.2 62.25 58.44 62.25 58.74Z" fill="#807070" opacity="0.9048"/><path d="M60.45 58.74C60.45 58.89 59.25 59.02 57.77 59.02 56.29 59.02 55.09 58.9 55.09 58.74 55.09 58.58 56.29 58.46 57.77 58.46 59.25 58.46 60.45 58.59 60.45 58.74Z" fill="#7A6969" opacity="0.9524"/><path d="M58.65 58.74C58.65 58.75 58.25 58.75 57.77 58.75 57.28 58.75 56.89 58.74 56.89 58.74 56.89 58.73 57.28 58.73 57.77 58.73 58.26 58.73 58.65 58.73 58.65 58.74Z" fill="#736161"/></g><g><linearGradient x1="55.9374" y1="38.9792" x2="55.9374" y2="10.5301" gradientUnits="userSpaceOnUse" id="SVGID_1_"><stop offset="0" stop-color="#A77B4F"/><stop offset="1" stop-color="#75502A"/></linearGradient><linearGradient x1="57.7716" y1="17.6572" x2="57.7716" y2="12.5435" gradientUnits="userSpaceOnUse" id="SVGID_2_"><stop offset="0" stop-color="#A77B4F"/><stop offset="1" stop-color="#8B623A"/></linearGradient><rect x="3.26" y="7.17" width="76.61" height="3.36" fill="#BF9467"/><rect x="3.26" y="10.53" width="32.42" height="45.97" fill="#DBBA91"/><rect x="3.26" y="56.5" width="32.42" height="3.42" fill="#C4A37C"/><path d="M37.1 52.21 37.1 10.53 35.68 10.53 35.68 59.92Z" fill="#A77B4F"/><path d="M79.87 59.92 79.87 10.53 74.77 10.53 74.77 50.32Z" fill="#A77B4F"/><path d="M9.37 0 3.26 7.17 79.87 7.17 73.75 0Z" fill="#DBBA91"/><rect x="0" y="7.17" width="3.26" height="52.76" fill="#BF9467"/><path d="M0 7.17 3.26 7.17 9.37 0 6.96 0Z" fill="#BF9467"/><g><path d="M3.26 7.17 3.92 7.17 10.04 0 9.37 0Z" fill="#4C4040" opacity="0.3"/></g><g><rect x="3.26" y="7.17" width="0.67" height="52.76" fill="#4C4040" opacity="0.3"/></g><rect x="79.87" y="7.17" width="3.26" height="52.76" fill="#BF9467"/><path d="M83.13 7.17 79.87 7.17 73.75 0 76.17 0Z" fill="#BF9467"/><g><path d="M79.87 7.17 79.2 7.17 73.09 0 73.75 0Z" fill="#4C4040" opacity="0.3"/></g><g><rect x="79.2" y="7.17" width="0.67" height="3.36" fill="#4C4040" opacity="0.3"/></g><rect x="37.1" y="10.53" width="37.67" height="28.45" fill="url(#SVGID_1_)"/><rect x="35.68" y="17.66" width="44.19" height="1.68" fill="#BF9467"/><path d="M79.87 17.66 74.77 12.54 37.1 12.54 35.68 17.66Z" fill="url(#SVGID_2_)"/><rect x="3.92" y="22.96" width="31.75" height="0.57" fill="#4C4040"/><g><rect x="3.26" y="10.53" width="32.42" height="0.94" fill="#4C4040" opacity="0.3"/></g><rect x="14.45" y="15.35" width="10.7" height="2.31" fill="#FFFFFF"/><g><rect x="14.45" y="17.66" width="10.7" height="0.69" fill="#4C4040" opacity="0.3"/></g><rect x="14.45" y="26.98" width="10.7" height="2.31" fill="#FFFFFF"/><g><rect x="14.45" y="29.29" width="10.7" height="0.69" fill="#4C4040" opacity="0.3"/></g><rect x="33.87" y="56.5" width="1.8" height="3.42" fill="#BF9467"/><g><rect x="33.28" y="56.5" width="0.59" height="3.42" fill="#4C4040" opacity="0.3"/></g></g></g></svg>