<svg width="386.81" height="67.63" viewBox="0 0 386.81 67.63" xmlns="http://www.w3.org/2000/svg" xmlns:xlink="http://www.w3.org/1999/xlink" xml:space="preserve" overflow="hidden"><defs></defs><g><path d="M0 13.68 0 67.63 386.81 67.63 386.81 0C354.55 16.72 296.72 32.45 183.78 33.43 80.68 34.32 27.09 25.14 0 13.68Z" fill="#8EBE21"/><path d="M183.78 33.43C80.68 34.32 27.09 25.14 0 13.68L0 39.23C37.68 51.41 97.82 67.33 193.78 64.94 289.06 62.56 349.12 43.58 386.81 28.4L386.81 0C354.55 16.72 296.71 32.45 183.78 33.43Z" fill="#BBCE00" opacity="0.5"/><path d="M190.65 41.46C300.97 38.28 368.29 15.66 386.8 2.12L386.8 0C354.54 16.72 296.71 32.45 183.77 33.43 80.68 34.32 27.09 25.14 0 13.68L0 17.36C27.27 29.04 82.36 44.58 190.65 41.46Z" fill="#69B32D" opacity="0.5"/></g></svg>