<svg width="271" height="114.77" viewBox="0 0 271 114.77" xmlns="http://www.w3.org/2000/svg" xmlns:xlink="http://www.w3.org/1999/xlink" xml:space="preserve" overflow="hidden"><defs></defs><g><path d="M44 0C76.07 0 141.44 0 172.29 0 192.09 0 206.12 40 217.07 40 224.87 40 244.85 40 244.85 40 259.37 40 271 51.72 271 66.23 271 70.01 271 83.32 271 83.32 271 88.4 267.02 92 261.93 92L244.84 92 9.03 92C3.95 92 0 88.4 0 83.32 0 83.32 0 55.19 0 43.89 0 22.07 28.43 0 44 0Z" fill="#F2771A"/><path d="M0 59.09C0 59.09 7 58.56 7 64.82L7 68.33C7 72.34 3 73.08 0 73.08L0 73.08 0 59.09 0 59.09Z" fill="#ED1C24"/><g><path d="M261 57.82 261 47.31C261 46.65 260.81 46.01 260.94 45.39 267.2 50.19 271 57.73 271 66.23 271 67.68 271 64.21 271 67.18 271 67.22 270.57 67.29 270.21 67.29 264.98 67.29 261 63.05 261 57.82Z" fill="#FCF47E"/></g><path d="M127 12.31C127 8.83 124.18 6 120.69 6L76.31 6C72.82 6 70 8.82 70 12.31L70 35.69C70 39.17 72.82 42 76.31 42L120.69 42C124.17 42 127 39.18 127 35.69L127 12.31Z" fill="#ACD2E2"/><path d="M8.25 35.57C7.47 38.96 11.07 42 14.55 42L56.61 42C60.1 42 62 39.22 62 35.74L62 12.6C62 9.12 60.1 6 56.62 6 56.62 6 45.05 6 39.8 6 26.65 6 10.48 25.77 8.25 35.57Z" fill="#ACD2E2"/><path d="M137 35.74C137 39.22 139.36 42 142.85 42L191.22 42C194.71 42 197.53 39.38 197.53 35.57 197.53 24.92 181.4 6 170.19 6L142.85 6C139.36 6 137 9.12 137 12.6L137 35.74Z" fill="#ACD2E2"/><g><path d="M261.93 92 244.84 92 9.03 92C3.95 92 0 88.4 0 83.32 0 83.32 0 83 0 80L271 80C271 83 271 83.32 271 83.32 271 88.4 267.02 92 261.93 92Z" fill="#CC6416"/></g><g><path d="M253.59 92C253.59 76 241.64 65.3 226.89 65.3 212.14 65.3 200.19 76 200.19 92L253.59 92Z" fill="#CC6416"/><path d="M206.13 93.86C206.13 105.41 215.5 114.78 227.05 114.78 238.6 114.78 247.96 105.42 247.96 93.86 247.96 82.31 238.6 72.94 227.05 72.94 215.5 72.94 206.13 82.3 206.13 93.86Z" fill="#333333"/><path d="M213 93.86C213 101.62 219.29 107.92 227.06 107.92 234.83 107.92 241.12 101.63 241.12 93.86 241.12 86.09 234.83 79.8 227.06 79.8 219.29 79.8 213 86.09 213 93.86Z" fill="#B3B3B3"/></g><g><path d="M79.03 92C79.03 76 67.08 65.3 52.33 65.3 37.58 65.3 25.63 76 25.63 92L79.03 92Z" fill="#CC6416"/><path d="M31.57 93.86C31.57 105.41 40.94 114.78 52.49 114.78 64.04 114.78 73.41 105.42 73.41 93.86 73.41 82.31 64.05 72.94 52.49 72.94 40.94 72.94 31.57 82.3 31.57 93.86Z" fill="#333333"/><path d="M38.44 93.86C38.44 101.62 44.73 107.92 52.5 107.92 60.27 107.92 66.56 101.63 66.56 93.86 66.56 86.09 60.27 79.8 52.5 79.8 44.73 79.8 38.44 86.09 38.44 93.86Z" fill="#B3B3B3"/></g><path d="M136.82 54.5C136.82 55.75 137.76 57 138.92 57L153.71 57C154.87 57 155.81 55.75 155.81 54.5L155.81 54.5C155.81 53.25 154.87 52 153.71 52L138.92 52C137.76 52 136.82 53.25 136.82 54.5L136.82 54.5Z" fill="#333333"/><path d="M91 54.1C91 52.94 90.06 52 88.9 52L74.1 52C72.94 52 72 52.94 72 54.1L72 54.89C72 56.05 72.94 56.99 74.1 56.99L88.9 56.99C90.06 56.99 91 56.05 91 54.89L91 54.1Z" fill="#333333"/><path d="M200 35.86C200 33.44 197.55 31.54 195.13 31.54L177.92 31.44C175.5 31.44 174 33.34 174 35.76L174 41.76C174 44.18 175.32 45.63 177.74 45.63L195.21 45.73C197.63 45.73 200 44.28 200 41.86L200 35.86Z" fill="#CC6416"/></g></svg>