<svg width="77.21" height="93.98" viewBox="0 0 77.21 93.98" xmlns="http://www.w3.org/2000/svg" xmlns:xlink="http://www.w3.org/1999/xlink" xml:space="preserve" overflow="hidden"><defs></defs><g><path d="M73.28 0.58 73.28 0.63 24.19 10.63C23.81 10.71 23.53 11.05 23.53 11.44L23.53 17.9 23.53 24.45 23.53 73.31C19.94 71.53 14.46 71.85 9.29 74.54 2.11 78.27-1.71 85.13 0.74 89.85 3.2 94.57 11 95.38 18.18 91.64 24.17 88.53 28.1 83.22 28.07 78.83L28.07 24.12C28.07 23.78 28.31 23.48 28.65 23.41L72.4 14.53C72.85 14.44 73.27 14.78 73.27 15.24L73.27 60.87C69.68 59.09 64.2 59.41 59.03 62.1 51.85 65.83 48.03 72.69 50.48 77.41 52.94 82.13 60.74 82.94 67.92 79.2 73.91 76.09 77.55 70.8 77.17 66.39L77.2 66.39 77.2 0.82C77.2 0.3 76.73-0.09 76.22 0.01L73.28 0.58Z"/></g></svg>