<svg width="445.88" height="312.06" viewBox="0 0 445.88 312.06" xmlns="http://www.w3.org/2000/svg" xmlns:xlink="http://www.w3.org/1999/xlink" xml:space="preserve" overflow="hidden"><defs></defs><path d="M394.6 177.94C394.91 189.04 399.19 199.7 399.9 210.79 401.02 228.25 393.11 245.28 382.04 258.82 375.68 266.6 368.07 273.6 358.89 277.69 340.37 285.94 318.74 281.17 299.7 274.2 280.66 267.23 261.75 258.06 241.48 257.77 219.63 257.45 198.86 267.61 181.24 280.54 161.81 294.81 142.06 313.74 118.02 311.95 107.62 311.18 97.98 306.46 88.65 301.82 59.11 287.15 29.56 272.49 0.02 257.82 59.96 206.74 132.83 173.85 201.21 134.77 215.11 126.83 228.9 118.57 241.43 108.6 254.96 97.83 266.87 85.19 279.12 72.98 301 51.18 324.13 30.63 348.36 11.47 354.74 6.43 361.6 1.3 369.66 0.22 383.98-1.7 396.48 9.48 405.87 20.46 422.82 40.29 456.05 75.72 442.89 104.57 430.08 132.57 393.6 142.39 394.6 177.94Z" fill="#F3F9FF"/></svg>