<svg width="317.44" height="46.61" viewBox="0 0 317.44 46.61" xmlns="http://www.w3.org/2000/svg" xmlns:xlink="http://www.w3.org/1999/xlink" xml:space="preserve" overflow="hidden"><defs></defs><g><path d="M235.35 32.29C235.34 32.23 235.34 32.17 235.33 32.12 235.98 32.04 236.64 31.88 237.29 31.9 241.62 32.04 245.97 32.06 250.29 32.41 260.2 33.2 269.91 32.41 279.4 29.35 282.23 28.44 285.16 28.12 288.14 28.17 292.39 28.25 296.64 28.36 300.89 28.29 304.57 28.23 308.21 27.65 311.76 26.64 313.58 26.12 315.24 25.27 316.46 23.74 318 21.79 317.76 19.83 315.78 18.33 314 16.99 311.94 16.34 309.77 16.02 306.05 15.46 302.38 16.01 298.73 16.67 294.49 17.44 290.25 18.23 285.91 17.82 283.22 17.56 280.57 17.84 277.9 18.12 276.44 18.27 274.91 18.05 273.45 17.81 272.99 17.74 272.61 17.09 272.2 16.71 272.62 16.32 273.02 15.91 273.47 15.55 273.65 15.41 273.92 15.37 274.15 15.34 275.25 15.19 276.35 14.98 277.46 14.94 280.41 14.84 283.37 14.89 286.31 14.71 287.6 14.63 288.96 14.33 290.12 13.78 292.23 12.78 292.6 10.65 291.17 8.8 290.09 7.4 288.65 6.49 287 5.89 284.19 4.87 281.26 4.43 278.3 4.48 272.73 4.58 267.15 4.71 261.59 5.07 252.56 5.65 243.67 5.02 234.89 2.75 230.93 1.73 226.91 0.88 222.86 0.34 217.12-0.43 211.36 0.13 205.68 1.12 199.16 2.26 192.67 3.58 186.17 4.88 176.46 6.83 166.68 8.14 156.77 8.24 150.05 8.31 143.33 8.28 136.62 8.05 128.04 7.75 119.47 7.27 110.9 6.75 102.27 6.23 93.66 5.53 85.03 4.97 75.89 4.38 66.73 3.91 57.58 4.82 51.69 5.41 45.8 6.14 39.95 7.1 35.35 7.86 30.79 8.81 26.13 9.21 23.94 9.4 21.74 9.64 19.8 10.83 18.94 11.35 18.22 11.99 18.35 13.12 18.45 13.96 19.36 14.67 20.54 14.87 20.98 14.94 21.44 14.97 21.89 14.95 23.27 14.87 24.65 14.72 26.03 14.65 27.37 14.59 28.73 14.48 30.07 14.6 31.19 14.7 31.55 15.66 30.75 16.48 30.13 17.12 29.29 17.65 28.44 17.96 26.3 18.75 24.06 18.68 21.83 18.47 17.36 18.06 12.9 17.6 8.43 17.21 5.95 17 3.54 17.36 1.36 18.63-0.31 19.6-0.46 21.26 1.04 22.48 1.75 23.05 2.61 23.5 3.47 23.81 5.65 24.58 7.94 24.77 10.24 24.7 14.34 24.57 18.43 24.41 22.53 24.24 30.07 23.94 37.59 24.08 45.05 25.43 47.33 25.84 49.5 26.55 51.32 28.05 52.4 28.94 52.37 29.7 51.29 30.56 50.03 31.55 48.59 32.2 47 32.31 45.17 32.43 43.33 32.45 41.49 32.43 39.03 32.4 36.86 33.17 34.98 34.71 33.28 36.1 33.27 37.65 34.84 39.18 36.35 40.65 38.22 41.49 40.22 42.03 46.37 43.68 52.63 44.8 58.95 45.47 64.01 46.01 69.1 46.28 74.19 46.51 80.37 46.79 86.55 46.57 92.63 45.3 94.62 44.89 96.6 44.25 98.45 43.44 100.14 42.7 100.47 40.9 99.24 39.53 98.44 38.63 97.33 38.01 96.35 37.28 96.13 37.12 95.87 37.02 95.63 36.89 96.67 36.63 97.65 36.49 98.64 36.47 103.34 36.38 108.04 36.28 112.74 36.27 115.99 36.26 119.24 36.31 122.48 36.5 124.88 36.64 127.26 37.16 129.65 37.34 136.58 37.89 143.45 37.07 150.23 35.79 155.79 34.74 161.27 33.28 166.79 32.05 169.38 31.47 172 31.02 174.67 31.4 175.81 31.56 176.95 31.8 177.99 32.64 177.58 32.9 177.3 33.16 176.97 33.26 175.77 33.64 174.57 34.03 173.34 34.29 171.66 34.64 169.94 34.77 168.27 35.18 166.37 35.65 165.38 37.09 165.07 38.94 164.78 40.64 165.8 41.76 167.13 42.54 168.16 43.15 169.26 43.68 170.4 44.05 175.53 45.7 180.8 46.37 186.18 46.16 194.92 45.81 203.6 44.78 212.21 43.22 218.57 42.07 224.92 41.09 231.41 41.3 232.76 41.34 234.12 41.16 235.46 40.97 237.32 40.7 239.12 40.15 240.63 38.98 242.19 37.77 242.2 36.17 240.65 34.98 239.94 34.44 239.14 33.99 238.33 33.59 237.36 33.09 236.34 32.72 235.35 32.29Z" fill="#FFFFFF"/><path d="M235.35 32.29C236.34 32.71 237.36 33.09 238.33 33.57 239.14 33.97 239.93 34.42 240.65 34.96 242.21 36.15 242.19 37.75 240.63 38.96 239.11 40.14 237.32 40.68 235.46 40.95 234.12 41.14 232.76 41.33 231.41 41.28 224.92 41.08 218.57 42.05 212.21 43.2 203.61 44.76 194.93 45.79 186.18 46.14 180.81 46.35 175.53 45.69 170.4 44.03 169.26 43.66 168.16 43.13 167.13 42.52 165.8 41.73 164.78 40.62 165.07 38.92 165.39 37.07 166.37 35.62 168.27 35.16 169.93 34.75 171.66 34.62 173.34 34.27 174.57 34.01 175.77 33.62 176.97 33.24 177.3 33.14 177.57 32.88 177.99 32.62 176.94 31.78 175.81 31.54 174.67 31.38 172 31 169.38 31.46 166.79 32.03 161.26 33.26 155.78 34.72 150.23 35.77 143.44 37.05 136.58 37.87 129.65 37.32 127.25 37.13 124.87 36.62 122.48 36.48 119.24 36.29 115.99 36.24 112.74 36.25 108.04 36.26 103.34 36.36 98.64 36.45 97.66 36.47 96.68 36.61 95.63 36.87 95.87 37 96.13 37.1 96.35 37.26 97.33 37.99 98.44 38.62 99.24 39.51 100.47 40.89 100.14 42.68 98.45 43.42 96.59 44.23 94.61 44.86 92.63 45.28 86.55 46.55 80.37 46.77 74.19 46.49 69.11 46.26 64.01 45.99 58.95 45.45 52.63 44.77 46.37 43.65 40.22 42.01 38.22 41.48 36.36 40.64 34.84 39.16 33.27 37.63 33.28 36.08 34.98 34.69 36.86 33.15 39.04 32.39 41.49 32.41 43.33 32.43 45.17 32.41 47 32.29 48.6 32.18 50.03 31.53 51.29 30.54 52.38 29.69 52.4 28.92 51.32 28.03 49.5 26.53 47.33 25.82 45.05 25.41 37.6 24.06 30.08 23.92 22.53 24.22 18.44 24.38 14.34 24.54 10.24 24.68 7.94 24.75 5.65 24.56 3.47 23.79 2.61 23.48 1.74 23.04 1.04 22.46-0.46 21.24-0.31 19.58 1.36 18.61 3.54 17.35 5.95 16.98 8.43 17.19 12.9 17.58 17.36 18.04 21.83 18.45 24.06 18.66 26.31 18.73 28.44 17.94 29.28 17.63 30.12 17.11 30.75 16.46 31.54 15.64 31.19 14.68 30.07 14.58 28.74 14.46 27.38 14.56 26.03 14.63 24.65 14.7 23.27 14.85 21.89 14.93 21.44 14.96 20.98 14.93 20.54 14.85 19.36 14.66 18.45 13.95 18.35 13.1 18.22 11.97 18.94 11.33 19.8 10.81 21.74 9.62 23.94 9.38 26.13 9.19 30.78 8.79 35.35 7.84 39.95 7.08 45.79 6.12 51.68 5.39 57.58 4.8 66.72 3.89 75.88 4.36 85.03 4.95 93.66 5.51 102.27 6.2 110.9 6.73 119.47 7.25 128.04 7.74 136.62 8.03 143.33 8.26 150.06 8.29 156.77 8.22 166.68 8.12 176.46 6.81 186.17 4.86 192.66 3.55 199.15 2.23 205.68 1.1 211.36 0.11 217.12-0.44 222.86 0.32 226.91 0.86 230.93 1.71 234.89 2.73 243.68 5 252.56 5.63 261.59 5.05 267.15 4.69 272.73 4.56 278.3 4.46 281.26 4.41 284.19 4.85 287 5.87 288.65 6.47 290.09 7.38 291.17 8.78 292.6 10.63 292.23 12.76 290.12 13.76 288.96 14.31 287.6 14.61 286.31 14.69 283.36 14.87 280.41 14.81 277.46 14.92 276.35 14.96 275.25 15.17 274.15 15.32 273.91 15.35 273.64 15.4 273.47 15.53 273.02 15.89 272.62 16.3 272.2 16.69 272.61 17.07 272.99 17.72 273.45 17.79 274.92 18.02 276.44 18.25 277.9 18.1 280.57 17.82 283.22 17.54 285.91 17.8 290.25 18.21 294.49 17.42 298.73 16.65 302.38 15.99 306.05 15.44 309.77 16 311.94 16.32 314 16.97 315.78 18.31 317.76 19.8 318.01 21.77 316.46 23.72 315.25 25.25 313.58 26.1 311.76 26.62 308.21 27.63 304.57 28.2 300.89 28.27 296.64 28.34 292.39 28.22 288.14 28.15 285.16 28.1 282.24 28.42 279.4 29.33 269.91 32.38 260.2 33.18 250.29 32.39 245.97 32.04 241.63 32.02 237.29 31.88 236.64 31.86 235.98 32.02 235.33 32.1 235.33 32.18 235.34 32.24 235.35 32.29ZM79.49 37.83C79.47 37.71 79.46 37.59 79.44 37.47 79.01 37.22 78.54 37.01 78.15 36.71 77.19 35.96 76.15 35.25 75.35 34.35 74.54 33.44 74.66 32.25 75.56 31.42 76.19 30.84 76.94 30.24 77.73 30.03 79.13 29.66 80.61 29.44 82.07 29.42 84.84 29.38 87.62 29.58 90.33 28.82 93.08 28.05 95.88 27.7 98.72 27.8 101.1 27.88 103.47 28.04 105.85 28.09 108.32 28.14 110.81 28.3 113.25 28.06 118.13 27.58 122.98 26.81 127.85 26.27 130.45 25.99 133.07 25.9 135.69 25.83 137.09 25.79 138.45 26.13 139.64 26.92 140.81 27.7 140.99 28.83 140.12 29.94 139.43 30.82 138.46 31.26 137.4 31.39 136.27 31.53 135.11 31.49 133.98 31.61 133.34 31.68 132.73 31.92 132.1 32.08 132.11 32.21 132.12 32.35 132.14 32.48 132.67 32.61 133.22 32.87 133.74 32.85 135.87 32.75 138.01 32.69 140.11 32.38 142.69 32 145.22 31.24 147.81 30.9 151.39 30.42 154.99 30.07 158.59 29.87 161.74 29.7 164.91 29.79 168.07 29.81 168.87 29.81 169.67 30.05 170.46 30.01 172.76 29.91 175.05 29.85 177.23 30.73 178.1 31.08 179.18 31.37 179.22 32.57 179.26 33.7 178.26 34.06 177.45 34.52 176.44 35.11 175.37 35.63 174.46 36.35 173.45 37.14 173.65 38.27 174.84 38.76 175.52 39.03 176.29 39.1 177.03 39.2 178.34 39.36 179.74 39.21 180.95 39.64 183.56 40.57 186.21 41.13 188.96 41.31 191.1 41.45 193.24 41.5 195.28 40.68 195.77 40.48 196.19 40.13 196.65 39.85 196.24 39.52 195.93 39.43 195.62 39.36 194.1 39.01 192.55 38.74 191.07 38.28 190.15 38 189.23 37.44 189.19 36.31 189.15 35.23 190.01 34.67 190.83 34.22 193.3 32.87 195.89 32.27 198.74 32.76 201.27 33.19 203.85 33.36 206.37 32.69 209.53 31.86 212.73 31.36 215.98 31.15 218.52 30.99 221.06 30.94 223.39 32.21 225.67 33.46 225.69 35.34 223.49 36.69 223.05 36.96 222.63 37.27 222.2 37.56 222.23 37.68 222.26 37.79 222.28 37.91 223.22 37.95 224.17 38.05 225.11 38.01 227.75 37.9 230.35 37.22 233.03 37.58 234.28 37.75 235.56 37.84 236.81 37.74 238.03 37.63 239.22 37.23 240.42 36.95 240.43 36.84 240.43 36.73 240.44 36.62 240.14 36.34 239.88 35.99 239.53 35.8 238.45 35.2 237.36 34.62 236.24 34.11 235.31 33.69 234.31 33.41 233.39 32.97 233.09 32.83 232.75 32.42 232.74 32.12 232.73 31.82 233.04 31.39 233.33 31.23 233.82 30.96 234.39 30.74 234.95 30.7 237.35 30.53 239.76 30.29 242.15 30.36 246.15 30.47 250.15 30.81 254.15 31.03 260.26 31.38 266.32 31.05 272.29 29.63 276.86 28.55 281.4 27.37 285.96 26.3 287.95 25.83 289.95 25.47 291.76 24.4 292.4 24.02 293.25 23.91 294.02 23.83 297.55 23.47 301.12 23.59 304.6 22.72 305.41 22.52 306.28 22.52 307.09 22.32 307.45 22.23 307.88 21.93 308.02 21.61 308.1 21.43 307.71 20.88 307.42 20.74 306.73 20.41 305.98 20.1 305.23 20.03 302.13 19.74 299.12 20.39 296.11 21.03 293.29 21.63 290.46 21.95 287.6 21.45 286 21.17 284.44 20.66 282.84 20.4 280.17 19.96 277.48 19.69 274.81 19.25 273.88 19.1 272.92 18.79 272.1 18.34 270.79 17.61 270.78 16.09 272.03 15.24 272.54 14.89 273.15 14.61 273.75 14.49 274.81 14.27 275.89 14.11 276.97 14.08 280.22 13.98 283.48 13.97 286.73 13.87 287.5 13.85 288.3 13.69 289.02 13.43 291.14 12.66 291.55 10.93 290.05 9.26 288.97 8.06 287.6 7.33 286.09 6.84 283.16 5.89 280.14 5.56 277.08 5.65 270.97 5.84 264.86 6.21 258.75 6.35 254.93 6.44 251.1 6.38 247.28 6.14 242.15 5.82 237.17 4.57 232.22 3.27 225.12 1.41 217.95 0.74 210.64 1.61 203.99 2.4 197.43 3.65 190.91 5.1 177.54 8.09 164.03 9.63 150.32 9.55 136.96 9.47 123.64 8.75 110.32 7.85 101.28 7.24 92.24 6.5 83.2 5.89 74.75 5.32 66.29 5.08 57.83 5.71 51.82 6.16 45.84 6.85 39.93 8.02 35.03 8.99 30.17 10.12 25.17 10.5 23.46 10.63 21.74 10.91 20.27 11.91 19.92 12.15 19.74 12.63 19.48 13 19.85 13.22 20.21 13.61 20.59 13.63 21.7 13.7 22.81 13.65 23.93 13.61 25.97 13.53 28.01 13.34 30.04 13.35 30.99 13.35 31.85 13.85 32.18 14.88 32.53 15.95 32.2 16.95 31.4 17.58 30.5 18.29 29.45 18.91 28.37 19.25 25 20.32 21.56 19.68 18.15 19.37 14.7 19.06 11.26 18.63 7.82 18.33 5.84 18.15 3.91 18.51 2.13 19.43 0.79 20.13 0.76 21.09 2.08 21.83 2.78 22.22 3.56 22.59 4.34 22.69 6.39 22.97 8.47 23.28 10.53 23.26 14.84 23.22 19.14 22.97 23.45 22.82 30.79 22.57 38.09 22.85 45.33 24.17 47.82 24.62 50.18 25.43 52.16 27.08 53.8 28.45 53.81 30.22 52.12 31.5 51 32.34 49.73 32.99 48.51 33.71 47.84 34.11 47.1 34.4 46.47 34.85 45.67 35.42 45.74 36.05 46.6 36.51 47 36.72 47.42 36.93 47.86 37 49.25 37.22 50.65 37.49 52.05 37.54 54.91 37.65 57.76 37.52 60.59 38.13 63.26 38.71 65.94 39.3 68.65 39.62 71.62 39.97 74.61 39.68 77.49 38.8 78.21 38.57 78.83 38.15 79.49 37.83ZM46.65 33.72C44.53 33.72 42.48 33.67 40.44 33.74 38.63 33.8 37.06 34.58 35.69 35.73 34.67 36.58 34.63 37.35 35.66 38.21 36.55 38.95 37.54 39.68 38.6 40.08 40.39 40.76 42.26 41.29 44.14 41.69 51.68 43.32 59.29 44.48 67.01 44.91 74.51 45.32 82 45.75 89.46 44.58 92.15 44.16 94.81 43.42 97.4 42.59 99 42.08 99.09 40.97 97.88 39.77 96.78 38.68 95.38 38.14 93.95 37.62 93.51 37.46 92.9 37.04 92.85 36.67 92.75 35.94 93.53 35.89 94.07 35.75 94.42 35.66 94.78 35.58 95.14 35.56 97.66 35.42 100.18 35.25 102.71 35.17 105.42 35.09 108.13 35.16 110.84 35.06 114.75 34.92 118.66 34.7 122.57 35.21 125.29 35.56 128.01 35.97 130.74 36.09 137.15 36.37 143.5 35.58 149.78 34.35 154.18 33.48 158.52 32.33 162.89 31.31 163.7 31.12 164.52 30.98 165.33 30.81 164.98 30.64 164.65 30.63 164.32 30.65 160.5 30.85 156.69 31.02 152.87 31.27 150.71 31.41 148.54 31.54 146.41 31.9 143.12 32.45 139.88 33.3 136.59 33.79 135.18 34 133.67 33.7 132.22 33.48 131.81 33.42 131.2 32.82 131.19 32.45 131.18 32.01 131.62 31.43 132.03 31.14 132.44 30.84 133.03 30.74 133.56 30.69 134.64 30.58 135.75 30.68 136.8 30.48 137.65 30.32 138.54 29.98 139.24 29.48 140.02 28.93 139.92 28.07 139.05 27.68 138.16 27.28 137.17 26.94 136.22 26.89 130.78 26.64 125.41 27.44 120.05 28.26 114.63 29.08 109.22 29.36 103.76 28.95 99.22 28.61 94.69 28.57 90.21 29.77 88.59 30.2 86.82 30.11 85.11 30.17 83.49 30.22 81.86 30.1 80.23 30.15 78.85 30.19 77.57 30.67 76.49 31.55 75.53 32.33 75.42 33.24 76.26 34.13 76.87 34.78 77.63 35.29 78.36 35.82 78.75 36.1 79.21 36.27 79.61 36.53 80.59 37.18 80.62 38.01 79.65 38.69 79.16 39.03 78.6 39.3 78.03 39.47 74.84 40.41 71.57 40.71 68.29 40.32 65.7 40.01 63.17 39.25 60.58 38.92 57.81 38.57 55.01 38.52 52.23 38.26 50.53 38.1 48.84 37.85 47.17 37.5 46.29 37.32 45.43 36.89 45.25 35.82 45.07 34.76 45.91 34.37 46.58 33.87 46.57 33.86 46.58 33.83 46.65 33.72ZM238.33 38.91C238.31 38.87 238.29 38.83 238.27 38.78 237.1 38.78 235.92 38.91 234.77 38.75 231.9 38.36 229.08 38.56 226.23 38.92 224.94 39.08 223.59 38.93 222.28 38.77 221.88 38.72 221.32 38.22 221.24 37.85 221.16 37.47 221.5 36.89 221.82 36.56 222.23 36.14 222.81 35.88 223.3 35.54 224.33 34.83 224.38 34 223.31 33.35 222.53 32.87 221.62 32.38 220.74 32.34 218.22 32.23 215.68 32.19 213.18 32.43 210.89 32.65 208.64 33.3 206.36 33.7 203.41 34.22 200.48 33.82 197.55 33.47 194.99 33.16 192.73 33.97 190.66 35.37 189.79 35.96 189.83 36.61 190.78 37.1 191.65 37.55 192.62 37.82 193.57 38.08 194.58 38.35 195.65 38.43 196.65 38.75 197.67 39.07 197.81 39.97 196.94 40.59 196.27 41.07 195.49 41.5 194.69 41.68 190.56 42.59 186.47 42.22 182.5 40.91 180.67 40.31 178.86 39.97 176.95 39.87 176.02 39.82 175.03 39.57 174.2 39.16 172.98 38.55 172.83 37.15 173.69 36.1 173.81 35.96 173.9 35.8 174.09 35.53 172.27 35.82 170.6 36.04 168.95 36.37 167.59 36.64 166.53 37.82 166.4 39.09 166.26 40.41 167.2 41.05 168.16 41.57 169.09 42.06 170.06 42.49 171.06 42.8 175.91 44.29 180.89 44.89 185.96 44.7 195.1 44.36 204.14 43.11 213.15 41.61 217.51 40.88 221.83 39.91 226.31 40.01 229.11 40.07 231.91 39.9 234.7 39.7 235.92 39.62 237.12 39.19 238.33 38.91ZM289.07 26.69C289.12 26.71 289.19 26.77 289.27 26.77 294.8 27 300.33 27.81 305.85 26.84 308.09 26.45 310.33 25.94 312.52 25.31 313.85 24.93 315.03 24.13 315.83 22.92 316.83 21.39 316.66 20.27 315.19 19.17 313.33 17.77 311.16 17.18 308.89 16.92 305.34 16.52 301.85 17.06 298.4 17.77 293.47 18.79 288.54 19.27 283.51 18.78 282.14 18.65 280.75 18.86 279.36 18.91 279.36 19 279.36 19.1 279.36 19.19 279.61 19.22 279.86 19.24 280.1 19.28 281.67 19.51 283.27 19.64 284.82 19.99 287.47 20.59 290.11 21.17 292.85 20.72 294.36 20.47 295.86 20.11 297.38 19.92 299.91 19.6 302.45 19.31 304.99 19.12 306.17 19.03 307.32 19.39 308.25 20.21 309.41 21.23 309.22 22.43 307.78 23.01 307.5 23.12 307.21 23.2 306.91 23.24 305.99 23.38 305.04 23.4 304.14 23.63 301.55 24.31 298.91 24.37 296.26 24.53 294.84 24.61 293.4 24.87 292.02 25.26 291 25.58 290.05 26.21 289.07 26.69Z" fill="#2F4042"/><path d="M79.49 37.83C78.83 38.15 78.21 38.57 77.52 38.78 74.63 39.66 71.65 39.95 68.68 39.6 65.97 39.28 63.29 38.69 60.62 38.11 57.79 37.5 54.93 37.63 52.08 37.52 50.68 37.47 49.28 37.2 47.89 36.98 47.45 36.91 47.03 36.7 46.63 36.49 45.77 36.03 45.7 35.4 46.5 34.83 47.13 34.38 47.87 34.09 48.54 33.69 49.76 32.97 51.03 32.33 52.15 31.48 53.85 30.21 53.84 28.43 52.19 27.06 50.21 25.41 47.85 24.61 45.36 24.15 38.12 22.83 30.82 22.55 23.48 22.8 19.17 22.95 14.87 23.2 10.56 23.24 8.5 23.26 6.42 22.95 4.37 22.67 3.59 22.56 2.81 22.2 2.11 21.81 0.79 21.06 0.82 20.1 2.16 19.41 3.94 18.49 5.87 18.13 7.85 18.31 11.3 18.62 14.74 19.04 18.18 19.35 21.59 19.65 25.03 20.3 28.4 19.23 29.48 18.89 30.53 18.26 31.43 17.56 32.24 16.93 32.56 15.93 32.21 14.86 31.88 13.83 31.02 13.33 30.07 13.33 28.03 13.32 26 13.51 23.96 13.59 22.85 13.63 21.73 13.68 20.62 13.61 20.24 13.59 19.88 13.2 19.51 12.98 19.77 12.61 19.95 12.13 20.3 11.89 21.77 10.9 23.49 10.62 25.2 10.48 30.2 10.09 35.06 8.96 39.96 8 45.87 6.83 51.85 6.15 57.86 5.69 66.33 5.05 74.78 5.29 83.23 5.87 92.27 6.48 101.31 7.22 110.35 7.83 123.67 8.73 136.99 9.45 150.35 9.53 164.06 9.61 177.58 8.07 190.94 5.08 197.46 3.62 204.03 2.38 210.67 1.59 217.98 0.72 225.15 1.39 232.25 3.25 237.2 4.55 242.18 5.8 247.31 6.12 251.12 6.36 254.96 6.42 258.78 6.33 264.89 6.19 271 5.82 277.11 5.63 280.16 5.54 283.19 5.87 286.12 6.82 287.63 7.31 289.01 8.04 290.08 9.24 291.58 10.92 291.17 12.65 289.05 13.41 288.33 13.67 287.53 13.83 286.76 13.85 283.51 13.95 280.25 13.96 277 14.06 275.92 14.09 274.84 14.26 273.78 14.47 273.18 14.59 272.57 14.88 272.06 15.22 270.81 16.07 270.81 17.59 272.13 18.32 272.95 18.78 273.91 19.08 274.84 19.23 277.51 19.67 280.2 19.94 282.87 20.38 284.47 20.64 286.03 21.15 287.63 21.43 290.49 21.94 293.32 21.62 296.14 21.01 299.14 20.37 302.16 19.72 305.26 20.01 306.01 20.08 306.76 20.4 307.45 20.72 307.74 20.86 308.13 21.41 308.05 21.59 307.92 21.91 307.48 22.21 307.12 22.3 306.31 22.5 305.44 22.5 304.63 22.7 301.15 23.58 297.58 23.45 294.05 23.81 293.28 23.89 292.44 24 291.79 24.38 289.98 25.45 287.98 25.81 285.99 26.28 281.42 27.35 276.88 28.53 272.32 29.61 266.35 31.02 260.29 31.35 254.18 31.01 250.18 30.78 246.18 30.45 242.18 30.34 239.78 30.27 237.38 30.52 234.98 30.68 234.43 30.72 233.85 30.94 233.36 31.21 233.07 31.37 232.76 31.8 232.77 32.1 232.78 32.4 233.12 32.81 233.42 32.95 234.35 33.38 235.34 33.66 236.27 34.09 237.39 34.6 238.48 35.18 239.56 35.78 239.91 35.97 240.17 36.32 240.47 36.6 240.46 36.71 240.46 36.82 240.45 36.93 239.25 37.2 238.06 37.61 236.84 37.72 235.59 37.83 234.31 37.73 233.06 37.56 230.38 37.21 227.78 37.88 225.14 37.99 224.2 38.03 223.25 37.93 222.31 37.89 222.28 37.77 222.25 37.66 222.23 37.54 222.66 37.25 223.08 36.94 223.52 36.67 225.72 35.32 225.69 33.43 223.42 32.19 221.09 30.92 218.55 30.97 216.01 31.13 212.76 31.34 209.56 31.84 206.4 32.67 203.89 33.33 201.3 33.17 198.77 32.74 195.92 32.25 193.33 32.84 190.86 34.2 190.04 34.65 189.18 35.22 189.22 36.29 189.26 37.42 190.18 37.98 191.1 38.26 192.59 38.72 194.13 38.98 195.65 39.34 195.96 39.41 196.27 39.51 196.68 39.83 196.23 40.11 195.8 40.46 195.31 40.66 193.27 41.48 191.13 41.43 188.99 41.29 186.24 41.11 183.59 40.55 180.98 39.62 179.77 39.19 178.37 39.34 177.06 39.18 176.32 39.09 175.55 39.02 174.87 38.74 173.67 38.26 173.48 37.13 174.49 36.33 175.4 35.61 176.47 35.09 177.48 34.5 178.28 34.03 179.28 33.68 179.25 32.55 179.21 31.36 178.14 31.06 177.26 30.71 175.08 29.84 172.79 29.89 170.49 29.99 169.7 30.02 168.9 29.79 168.1 29.79 164.94 29.78 161.77 29.68 158.62 29.85 155.02 30.05 151.42 30.4 147.84 30.88 145.25 31.22 142.72 31.98 140.14 32.36 138.04 32.67 135.9 32.73 133.77 32.83 133.24 32.85 132.7 32.59 132.17 32.46 132.16 32.33 132.15 32.19 132.13 32.06 132.75 31.9 133.37 31.66 134.01 31.59 135.15 31.47 136.3 31.52 137.43 31.37 138.49 31.24 139.46 30.79 140.15 29.92 141.02 28.81 140.85 27.68 139.67 26.9 138.48 26.11 137.12 25.77 135.72 25.81 133.1 25.89 130.48 25.97 127.88 26.25 123 26.78 118.16 27.56 113.28 28.04 110.83 28.28 108.34 28.12 105.88 28.07 103.5 28.02 101.13 27.87 98.75 27.78 95.9 27.68 93.11 28.04 90.36 28.8 87.65 29.56 84.87 29.36 82.1 29.4 80.65 29.42 79.17 29.64 77.76 30.01 76.96 30.22 76.21 30.82 75.59 31.4 74.69 32.23 74.57 33.42 75.38 34.33 76.19 35.23 77.22 35.94 78.18 36.69 78.57 37 79.04 37.2 79.47 37.45 79.46 37.59 79.47 37.71 79.49 37.83Z" fill="#4D9BEF"/><path d="M46.65 33.72C46.58 33.83 46.57 33.86 46.55 33.88 45.88 34.38 45.05 34.78 45.22 35.83 45.4 36.9 46.27 37.33 47.14 37.51 48.81 37.86 50.51 38.11 52.2 38.27 54.98 38.53 57.79 38.57 60.55 38.93 63.14 39.26 65.67 40.03 68.26 40.33 71.54 40.72 74.82 40.42 78 39.48 78.57 39.31 79.13 39.03 79.62 38.7 80.6 38.03 80.56 37.19 79.58 36.54 79.18 36.28 78.71 36.11 78.33 35.83 77.61 35.3 76.84 34.79 76.23 34.14 75.39 33.25 75.51 32.34 76.46 31.56 77.54 30.68 78.82 30.2 80.2 30.16 81.82 30.11 83.45 30.23 85.08 30.18 86.79 30.12 88.56 30.21 90.18 29.78 94.66 28.58 99.19 28.62 103.73 28.96 109.2 29.37 114.61 29.09 120.02 28.27 125.37 27.46 130.75 26.65 136.19 26.9 137.15 26.94 138.14 27.29 139.02 27.69 139.89 28.08 139.99 28.94 139.21 29.49 138.5 29.99 137.62 30.33 136.77 30.49 135.71 30.69 134.61 30.59 133.53 30.7 133 30.75 132.41 30.86 132 31.15 131.59 31.45 131.15 32.02 131.16 32.46 131.17 32.83 131.78 33.43 132.19 33.49 133.63 33.71 135.14 34.01 136.56 33.8 139.85 33.31 143.09 32.46 146.38 31.91 148.51 31.55 150.68 31.42 152.84 31.28 156.65 31.03 160.47 30.86 164.29 30.66 164.62 30.64 164.95 30.66 165.3 30.82 164.49 30.99 163.67 31.13 162.86 31.32 158.49 32.34 154.15 33.49 149.75 34.36 143.47 35.6 137.13 36.38 130.71 36.1 127.98 35.98 125.26 35.57 122.54 35.22 118.63 34.71 114.72 34.94 110.81 35.07 108.1 35.17 105.39 35.1 102.68 35.18 100.16 35.26 97.63 35.43 95.11 35.57 94.75 35.59 94.39 35.67 94.04 35.76 93.5 35.91 92.73 35.96 92.82 36.68 92.87 37.05 93.48 37.47 93.92 37.63 95.34 38.15 96.75 38.68 97.85 39.78 99.06 40.98 98.97 42.09 97.37 42.6 94.77 43.43 92.11 44.16 89.43 44.59 82 45.75 74.51 45.31 67.01 44.9 59.28 44.48 51.68 43.31 44.14 41.68 42.26 41.28 40.4 40.75 38.6 40.07 37.53 39.66 36.55 38.94 35.66 38.2 34.63 37.34 34.67 36.57 35.69 35.72 37.06 34.57 38.63 33.79 40.44 33.73 42.48 33.66 44.52 33.72 46.65 33.72Z" fill="#4D9BEF"/><path d="M238.33 38.91C237.12 39.18 235.93 39.61 234.71 39.7 231.92 39.9 229.11 40.07 226.32 40.01 221.84 39.91 217.52 40.89 213.16 41.61 204.15 43.11 195.11 44.36 185.97 44.7 180.9 44.89 175.92 44.29 171.07 42.8 170.07 42.49 169.09 42.06 168.17 41.57 167.2 41.06 166.27 40.41 166.41 39.09 166.54 37.81 167.6 36.64 168.96 36.37 170.61 36.04 172.28 35.82 174.1 35.53 173.91 35.81 173.81 35.96 173.7 36.1 172.84 37.16 173 38.56 174.21 39.16 175.04 39.58 176.03 39.83 176.96 39.87 178.87 39.97 180.68 40.31 182.51 40.91 186.48 42.21 190.58 42.58 194.7 41.68 195.49 41.51 196.28 41.07 196.95 40.59 197.82 39.97 197.67 39.08 196.66 38.75 195.66 38.43 194.59 38.35 193.58 38.08 192.63 37.82 191.66 37.54 190.79 37.1 189.84 36.61 189.8 35.96 190.67 35.37 192.74 33.97 195 33.16 197.56 33.47 200.49 33.82 203.43 34.22 206.37 33.7 208.65 33.3 210.9 32.64 213.19 32.43 215.69 32.19 218.23 32.24 220.75 32.34 221.62 32.38 222.54 32.87 223.32 33.35 224.39 34.01 224.34 34.83 223.31 35.54 222.82 35.88 222.24 36.14 221.83 36.56 221.51 36.89 221.17 37.47 221.25 37.85 221.33 38.23 221.89 38.72 222.29 38.77 223.6 38.93 224.94 39.08 226.24 38.92 229.09 38.57 231.92 38.36 234.78 38.75 235.93 38.91 237.11 38.78 238.28 38.78 238.29 38.83 238.31 38.87 238.33 38.91Z" fill="#4D9BEF"/><path d="M289.07 26.69C290.05 26.21 291 25.58 292.04 25.29 293.41 24.9 294.85 24.65 296.28 24.56 298.93 24.4 301.57 24.34 304.16 23.66 305.06 23.43 306 23.4 306.93 23.27 307.22 23.23 307.52 23.15 307.8 23.04 309.23 22.45 309.43 21.25 308.27 20.24 307.33 19.42 306.19 19.06 305.01 19.15 302.47 19.33 299.93 19.62 297.4 19.95 295.88 20.14 294.38 20.5 292.87 20.75 290.13 21.2 287.49 20.62 284.84 20.02 283.29 19.67 281.7 19.54 280.12 19.31 279.87 19.27 279.63 19.25 279.38 19.22 279.38 19.13 279.38 19.03 279.38 18.94 280.76 18.89 282.16 18.67 283.53 18.81 288.56 19.3 293.49 18.81 298.42 17.8 301.87 17.09 305.36 16.54 308.91 16.95 311.18 17.21 313.35 17.8 315.21 19.2 316.68 20.3 316.85 21.41 315.85 22.95 315.05 24.17 313.88 24.96 312.54 25.34 310.35 25.97 308.12 26.47 305.87 26.87 300.35 27.84 294.82 27.03 289.29 26.8 289.19 26.77 289.11 26.71 289.07 26.69Z" fill="#4D9BEF"/></g></svg>