<svg width="180.45" height="116.8" viewBox="0 0 180.45 116.8" xmlns="http://www.w3.org/2000/svg" xmlns:xlink="http://www.w3.org/1999/xlink" xml:space="preserve" overflow="hidden"><defs></defs><g><linearGradient x1="91.5386" y1="4.5897" x2="91.5386" y2="1.10011e-05" gradientUnits="userSpaceOnUse" id="SVGID_1_"><stop offset="0" stop-color="#0D97D3"/><stop offset="1"/></linearGradient><linearGradient x1="91.015" y1="102.046" x2="91.015" y2="83.8932" gradientUnits="userSpaceOnUse" id="SVGID_2_"><stop offset="0" stop-color="#FFFFFF"/><stop offset="0.1102" stop-color="#DCE7EF"/><stop offset="0.3557" stop-color="#94B6CE"/><stop offset="0.5763" stop-color="#5B8EB4"/><stop offset="0.7639" stop-color="#3272A1"/><stop offset="0.9112" stop-color="#186095"/><stop offset="1" stop-color="#0F5A91"/></linearGradient><linearGradient x1="25.6745" y1="59.9266" x2="25.6745" y2="4.5901" gradientUnits="userSpaceOnUse" id="SVGID_3_"><stop offset="0" stop-color="#0D97D3"/><stop offset="1"/></linearGradient><linearGradient x1="157.438" y1="59.9668" x2="157.438" y2="4.6303" gradientUnits="userSpaceOnUse" id="SVGID_4_"><stop offset="0" stop-color="#0D97D3"/><stop offset="1"/></linearGradient><linearGradient x1="91.5389" y1="67.046" x2="91.5389" y2="47.3682" gradientUnits="userSpaceOnUse" id="SVGID_5_"><stop offset="0" stop-color="#0D97D3"/><stop offset="1"/></linearGradient><path d="M31.84 102.05 151.24 102.05 157.44 88.68 25.67 88.68Z" fill="#292A2D"/><g><path d="M154.24 22.32C154.24 30.52 147.59 37.17 139.39 37.17L46.08 37.17C37.88 37.17 31.23 30.52 31.23 22.32L31.23 22.32C31.23 14.12 37.88 7.47 46.08 7.47L139.39 7.47C147.59 7.47 154.24 14.12 154.24 22.32L154.24 22.32Z" fill="#66CCDB"/><g><path d="M100.37 13.8C107.15 13.92 122 14.25 127.89 14.85 135.63 15.64 139.97 16.12 143.17 23.27 146.38 30.42 146.38 30.42 146.38 30.42 146.38 30.42 149.21 36.93 139.97 36.93 130.72 36.93 96.9 36.93 96.9 36.93 96.9 36.93 91.88 36.93 85.44 36.93L100.37 13.8Z" fill="#FFFFFF" opacity="0.5"/><path d="M89.08 13.77C90.75 13.8 92.91 13.84 95.3 13.9L80.45 36.9C78.65 36.9 76.5 36.9 74.15 36.9L89.08 13.77Z" fill="#FFFFFF" opacity="0.5"/></g></g><path d="M36.36 105.66C36.36 115.13 31 116.8 24.38 116.8L21.09 116.8C14.47 116.8 9.11 115.12 9.11 105.66L9.11 68.13C9.11 58.66 14.47 50.99 21.09 50.99L24.38 50.99C31 50.99 36.36 58.66 36.36 68.13L36.36 105.66Z" fill="#292A2D"/><path d="M174 105.66C174 115.13 168.64 116.8 162.02 116.8L158.73 116.8C152.11 116.8 146.75 115.12 146.75 105.66L146.75 68.13C146.75 58.66 152.11 50.99 158.73 50.99L162.02 50.99C168.64 50.99 174 58.66 174 68.13L174 105.66Z" fill="#292A2D"/><path d="M17.18 62.46 166.33 62.46 160.9 39.03 21.75 39.03Z" fill="#292A2D"/><path d="M29.03 50.32C29.03 48.9 30.42 47.75 32.14 47.75L64.07 47.75C65.79 47.75 67.18 48.9 67.18 50.32L67.18 50.32C67.18 51.74 65.79 52.89 64.07 52.89L32.14 52.89C30.43 52.89 29.03 51.74 29.03 50.32L29.03 50.32Z" fill="#E30006"/><path d="M115.18 50.32C115.18 48.9 116.57 47.75 118.29 47.75L150.22 47.75C151.94 47.75 153.33 48.9 153.33 50.32L153.33 50.32C153.33 51.74 151.94 52.89 150.22 52.89L118.29 52.89C116.57 52.89 115.18 51.74 115.18 50.32L115.18 50.32Z" fill="#E30006"/><path d="M180.45 37.08C180.45 29.47 169.84 30.12 165.13 30.12 160.42 30.12 160.95 35.9 160.95 35.9L160.9 35.9C154.47 23.94 153.34 11.74 144.77 6.33 134.35-0.24 91.56 0 91.54 0 91.52 0 48.73-0.24 38.32 6.33 29.74 11.74 28.62 23.94 22.19 35.9L19.5 35.9C19.5 35.9 20.04 30.12 15.32 30.12 10.61 30.11 0 29.47 0 37.08 0 37.08-0.21 42.33 5.68 42.33 9.37 42.33 14.66 42.33 18.1 42.33 17.81 42.71 17.52 43.09 17.21 43.47 5.93 57.47 9.4 66.33 9.4 66.33 9.4 66.33 7.95 102.05 27.04 102.05 28.5 102.05 30.11 102.05 31.84 102.05L31.84 96.9C31.84 93.67 34.46 91.04 37.7 91.04 40.93 91.04 43.56 93.66 43.56 96.9L43.56 102.04C64.64 102.04 91.51 102.04 91.54 102.04L91.54 102.04C91.57 102.04 118.44 102.04 139.52 102.04L139.52 96.9C139.52 93.67 142.14 91.04 145.38 91.04 148.61 91.04 151.24 93.66 151.24 96.9L151.24 102.04C152.97 102.04 154.58 102.04 156.04 102.04 175.13 102.04 173.68 66.32 173.68 66.32 173.68 66.32 177.15 57.46 165.87 43.46 165.56 43.08 165.27 42.7 164.98 42.32 168.14 42.32 171.92 42.32 174.76 42.32 180.66 42.33 180.45 37.08 180.45 37.08ZM45.97 57.19 20.54 57.19C20.54 57.19 20.11 47.33 26.25 45.33 32.39 43.33 53.25 44.33 53.25 44.33 53.25 44.33 58.11 43.62 60.25 47.33L45.97 57.19ZM91.54 33.04C81.05 33.04 57.7 32.61 49.61 32.45 41.51 32.29 38.28 32.94 38.76 24.68 39.25 16.42 42.65 13.99 52.85 12.54 63.05 11.08 91.55 10.92 91.55 10.92 91.55 10.92 120.05 11.08 130.25 12.54 140.45 14 143.85 16.43 144.34 24.68 144.83 32.94 141.59 32.29 133.49 32.45 125.38 32.61 102.03 33.04 91.54 33.04ZM162.54 57.19 137.11 57.19 122.82 47.33C124.96 43.62 129.82 44.33 129.82 44.33 129.82 44.33 150.68 43.33 156.82 45.33 162.97 47.33 162.54 57.19 162.54 57.19Z" fill="#00519B"/><path d="M140.84 4.59C126.38-0.2 91.56 0 91.54 0 91.52 0 56.7-0.2 42.24 4.59" fill="url(#SVGID_1_)" opacity="0.5"/><path d="M53.26 44.33C53.26 44.33 32.4 43.33 26.26 45.33 20.12 47.33 20.55 57.19 20.55 57.19L45.98 57.19 60.27 47.33C58.11 43.62 53.26 44.33 53.26 44.33Z" fill="none"/><path d="M156.83 45.33C150.69 43.33 129.83 44.33 129.83 44.33 129.83 44.33 124.97 43.62 122.83 47.33L137.12 57.19 162.55 57.19C162.54 57.19 162.97 47.33 156.83 45.33Z" fill="none"/><path d="M91.54 102.05 91.54 102.05C91.57 102.05 118.44 102.05 139.52 102.05L139.52 96.9C139.52 93.67 142.14 91.04 145.38 91.04 148.61 91.04 151.24 93.66 151.24 96.9L151.24 102.04C152.97 102.04 154.58 102.04 156.04 102.04 162.47 102.04 166.56 97.99 169.17 92.62L167.59 90.19C167.59 90.19 148.47 83.89 90.22 83.89 31.97 83.89 12.85 90.19 12.85 90.19L12.85 90.19C15.36 96.72 19.67 102.04 27.04 102.04 28.5 102.04 30.11 102.04 31.84 102.04L31.84 96.9C31.84 93.67 34.46 91.04 37.7 91.04 40.93 91.04 43.56 93.66 43.56 96.9L43.56 102.04C64.64 102.05 91.51 102.05 91.54 102.05Z" fill="url(#SVGID_2_)"/><circle cx="37.72" cy="96.83" r="3.86" fill="#757F7F"/><circle cx="145.36" cy="96.83" r="3.86" fill="#757F7F"/><path d="M24.66 46.11C28.04 33 32.82 12.09 42.24 4.59 40.67 5.11 39.34 5.69 38.32 6.33 29.82 11.7 28.63 23.73 22.34 35.59L22.34 35.61 22.31 35.66C22.27 35.74 22.23 35.82 22.18 35.91L22.15 35.91 18.09 42.34C17.8 42.72 17.51 43.1 17.2 43.48 11.66 50.35 9.68 55.98 9.1 59.93 9.1 59.93 16.47 59.06 20.53 57.19 20.54 57.19 20.19 49.13 24.66 46.11Z" fill="url(#SVGID_3_)" opacity="0.5"/><path d="M158.45 46.15C155.07 33.05 150.3 12.13 140.88 4.63 142.45 5.15 143.78 5.73 144.8 6.37 153.3 11.74 154.49 23.77 160.78 35.63L160.78 35.65 160.81 35.7C160.85 35.78 160.89 35.86 160.94 35.95L160.97 35.95 165.03 42.38C165.32 42.76 165.61 43.14 165.92 43.52 171.46 50.39 173.44 56.02 174.02 59.97 174.02 59.97 166.65 59.1 162.59 57.23 162.57 57.23 162.92 49.17 158.45 46.15Z" fill="url(#SVGID_4_)" opacity="0.5"/><path d="M122.88 47.37 121.11 50.73C119.83 53.16 117.31 54.68 114.57 54.68L68.51 54.68C65.76 54.68 63.25 53.16 61.97 50.73L60.2 47.37 46 57.17C46 57.18 46.01 57.19 46.01 57.19 46.01 57.19 47.01 67.05 58.44 67.05 68.27 67.05 86.13 67.05 90.93 67.05L90.93 67.05C90.93 67.05 113.22 67.05 124.65 67.05 136.08 67.05 137.08 57.19 137.08 57.19 137.08 57.19 137.09 57.17 137.09 57.17L122.88 47.37Z" fill="url(#SVGID_5_)" opacity="0.5"/></g></svg>