<svg width="166.44" height="365.34" viewBox="0 0 166.44 365.34" xmlns="http://www.w3.org/2000/svg" xmlns:xlink="http://www.w3.org/1999/xlink" xml:space="preserve" overflow="hidden"><defs></defs><g><path d="M0 0 0 365.34 9.42 365.34 9.42 354.87 166.44 354.87 166.44 0Z" fill="#AF7743"/><path d="M9.07 203.78 9.07 343.35 94.91 343.35 94.91 203.78 9.07 203.78ZM91.42 340.21 12.56 340.21 12.56 206.92 91.42 206.92 91.42 340.21Z" fill="#93542A"/><g><rect x="9.07" y="9.58" width="157.37" height="185.12" fill="#93542A"/><path d="M166.44 9.58 9.07 9.58 9.07 194.7C9.07 194.7 37.68 38 166.44 9.58Z" fill="#844624"/><rect x="9.07" y="75.28" width="157.37" height="12.13" fill="#844624"/><rect x="9.07" y="138.61" width="157.37" height="12.13" fill="#844624"/></g><path d="M166.44 203.78 103.63 203.78 103.63 343.35 166.44 343.35 166.44 340.21 107.12 340.21 107.12 206.92 166.44 206.92 166.44 203.78Z" fill="#93542A"/><g><rect x="5.58" y="66.2" width="160.86" height="9.07" fill="#AF7743"/><rect x="5.58" y="129.01" width="160.86" height="9.07" fill="#AF7743"/></g><rect x="0" y="0" width="166.44" height="3.49" fill="#D59D69"/><g><g><rect x="29.48" y="181.71" width="55.76" height="11.17" fill="#FFFACF"/><g><rect x="27.27" y="191.32" width="57.97" height="3.12" fill="#FFCA3A"/><rect x="27.27" y="181.71" width="57.97" height="3.12" fill="#FFCA3A"/><rect x="81.65" y="183.24" width="3.58" height="11.21" fill="#FFCA3A"/><rect x="27.27" y="192.88" width="57.97" height="1.56" fill="#FFB53E"/><path d="M85.24 181.71 85.24 194.44C85.24 194.45 81.73 187.51 85.24 181.71Z" fill="#FFB53E"/></g><path d="M29.48 184.83 81.65 184.83 81.65 191.32C81.65 191.32 77.76 186.44 29.48 186.44L29.48 184.83Z" fill="#EAC9A4"/></g><g><rect x="35.2" y="172.02" width="42.08" height="8.43" fill="#FFFACF" transform="matrix(-1 -1.22465e-16 1.22465e-16 -1 112.488 352.474)"/><g><rect x="35.2" y="179.27" width="43.75" height="2.36" fill="#FF6B3E" transform="matrix(-1 -1.22465e-16 1.22465e-16 -1 114.157 360.906)"/><rect x="35.2" y="172.02" width="43.75" height="2.36" fill="#FF6B3E" transform="matrix(-1 -1.22465e-16 1.22465e-16 -1 114.157 346.4)"/><rect x="35.2" y="173.17" width="2.71" height="8.46" fill="#FF6B3E" transform="matrix(-1 -1.22465e-16 1.22465e-16 -1 73.1154 354.804)"/><rect x="35.2" y="180.45" width="43.75" height="1.18" fill="#EA5634" transform="matrix(-1 -1.22465e-16 1.22465e-16 -1 114.157 362.084)"/><path d="M35.2 172.02 35.2 181.63C35.2 181.63 37.95 176.82 35.2 172.02Z" fill="#EA5634"/></g><path d="M77.28 174.38 37.91 174.38 37.91 179.28C37.91 179.28 40.85 175.6 77.28 175.6L77.28 174.38Z" fill="#EAC9A4"/></g><g><rect x="16.36" y="119.19" width="42.08" height="8.43" fill="#FFFACF" transform="matrix(-1 -1.22465e-16 1.22465e-16 -1 74.8031 246.817)"/><g><rect x="16.36" y="126.45" width="43.75" height="2.36" fill="#FF6B3E" transform="matrix(-1 -1.22465e-16 1.22465e-16 -1 76.4724 255.249)"/><rect x="16.36" y="119.19" width="43.75" height="2.36" fill="#FF6B3E" transform="matrix(-1 -1.22465e-16 1.22465e-16 -1 76.4724 240.743)"/><rect x="16.36" y="120.34" width="2.71" height="8.46" fill="#FF6B3E" transform="matrix(-1 -1.22465e-16 1.22465e-16 -1 35.4306 249.147)"/><rect x="16.36" y="127.62" width="43.75" height="1.18" fill="#EA5634" transform="matrix(-1 -1.22465e-16 1.22465e-16 -1 76.4724 256.427)"/><path d="M16.36 119.19 16.36 128.8C16.36 128.8 19.11 123.99 16.36 119.19Z" fill="#EA5634"/></g><path d="M58.44 121.55 19.07 121.55 19.07 126.45C19.07 126.45 22.01 122.77 58.44 122.77L58.44 121.55Z" fill="#EAC9A4"/></g><g><rect x="23.9" y="18.84" width="11.86" height="47.36" fill="#FF9F38"/><rect x="26.69" y="23.55" width="6.28" height="28.09" fill="#EFE5B9"/><g><path d="M33.67 58.53C33.67 60.65 31.95 62.37 29.83 62.37 27.71 62.37 26 60.65 26 58.53 26 56.41 27.72 54.69 29.84 54.69 31.96 54.69 33.67 56.41 33.67 58.53Z" fill="#EFE5B9"/><circle cx="29.83" cy="58.53" r="3.14" fill="#E57C25"/><path d="M27.61 59.06C27.61 57.33 29.02 55.92 30.75 55.92 31.13 55.92 31.48 56 31.81 56.12 31.27 55.68 30.59 55.4 29.83 55.4 28.1 55.4 26.69 56.81 26.69 58.54 26.69 59.9 27.56 61.05 28.77 61.48 28.07 60.9 27.61 60.04 27.61 59.06Z" fill="#D66B1D"/><path d="M32.37 55.67C32.97 56.35 33.35 57.23 33.35 58.2 33.35 60.32 31.63 62.04 29.51 62.04 28.53 62.04 27.65 61.66 26.98 61.06 27.68 61.85 28.7 62.36 29.84 62.36 31.96 62.36 33.68 60.64 33.68 58.52 33.67 57.39 33.16 56.37 32.37 55.67Z" fill="#F7E99C"/></g></g><g><rect x="71.18" y="81.74" width="11.86" height="47.36" fill="#FF9F38"/><rect x="73.97" y="86.45" width="6.28" height="28.09" fill="#EFE5B9"/><g><path d="M80.95 121.43C80.95 123.55 79.23 125.27 77.11 125.27 74.99 125.27 73.27 123.55 73.27 121.43 73.27 119.31 74.99 117.59 77.11 117.59 79.23 117.59 80.95 119.31 80.95 121.43Z" fill="#EFE5B9"/><circle cx="77.11" cy="121.43" r="3.14" fill="#E57C25"/><path d="M74.89 121.95C74.89 120.22 76.3 118.81 78.03 118.81 78.41 118.81 78.76 118.89 79.09 119.01 78.55 118.57 77.87 118.29 77.11 118.29 75.38 118.29 73.97 119.7 73.97 121.43 73.97 122.79 74.84 123.94 76.05 124.37 75.35 123.8 74.89 122.93 74.89 121.95Z" fill="#D66B1D"/><path d="M79.65 118.57C80.25 119.25 80.63 120.13 80.63 121.1 80.63 123.22 78.91 124.94 76.79 124.94 75.81 124.94 74.93 124.56 74.26 123.96 74.96 124.75 75.98 125.26 77.12 125.26 79.24 125.26 80.96 123.54 80.96 121.42 80.95 120.29 80.44 119.27 79.65 118.57Z" fill="#F7E99C"/></g></g><g><rect x="143.76" y="81.74" width="11.86" height="47.36" fill="#FF9F38"/><rect x="146.55" y="86.45" width="6.28" height="28.09" fill="#EFE5B9"/><g><path d="M153.53 121.43C153.53 123.55 151.81 125.27 149.69 125.27 147.57 125.27 145.85 123.55 145.85 121.43 145.85 119.31 147.57 117.59 149.69 117.59 151.81 117.59 153.53 119.31 153.53 121.43Z" fill="#EFE5B9"/><circle cx="149.69" cy="121.43" r="3.14" fill="#E57C25"/><path d="M147.47 121.95C147.47 120.22 148.88 118.81 150.61 118.81 150.99 118.81 151.34 118.89 151.67 119.01 151.13 118.57 150.45 118.29 149.69 118.29 147.96 118.29 146.55 119.7 146.55 121.43 146.55 122.79 147.42 123.94 148.63 124.37 147.93 123.8 147.47 122.93 147.47 121.95Z" fill="#D66B1D"/><path d="M152.23 118.57C152.83 119.25 153.21 120.13 153.21 121.1 153.21 123.22 151.49 124.94 149.37 124.94 148.39 124.94 147.51 124.56 146.84 123.96 147.54 124.75 148.56 125.26 149.7 125.26 151.82 125.26 153.54 123.54 153.54 121.42 153.53 120.29 153.02 119.27 152.23 118.57Z" fill="#F7E99C"/></g></g><g><rect x="38.56" y="18.84" width="11.86" height="47.36" fill="#E3692E"/><rect x="41.35" y="23.55" width="6.28" height="28.09" fill="#EFE5B9"/><g><path d="M48.33 58.53C48.33 60.65 46.61 62.37 44.49 62.37 42.37 62.37 40.65 60.65 40.65 58.53 40.65 56.41 42.37 54.69 44.49 54.69 46.61 54.69 48.33 56.41 48.33 58.53Z" fill="#EFE5B9"/><circle cx="44.49" cy="58.53" r="3.14" fill="#C9461B"/><path d="M42.26 59.06C42.26 57.33 43.67 55.92 45.4 55.92 45.78 55.92 46.13 56 46.46 56.12 45.92 55.68 45.24 55.4 44.48 55.4 42.75 55.4 41.34 56.81 41.34 58.54 41.34 59.9 42.21 61.05 43.42 61.48 42.72 60.9 42.26 60.04 42.26 59.06Z" fill="#BA3513"/><path d="M47.02 55.67C47.62 56.35 48 57.23 48 58.2 48 60.32 46.28 62.04 44.16 62.04 43.18 62.04 42.3 61.66 41.63 61.06 42.33 61.85 43.35 62.36 44.49 62.36 46.61 62.36 48.33 60.64 48.33 58.52 48.33 57.39 47.82 56.37 47.02 55.67Z" fill="#F7E99C"/></g></g><g><rect x="106.25" y="147.6" width="11.86" height="47.36" fill="#FF9F38"/><rect x="109.04" y="152.31" width="6.28" height="28.09" fill="#EFE5B9"/><g><path d="M116.02 187.29C116.02 189.41 114.3 191.13 112.18 191.13 110.06 191.13 108.34 189.41 108.34 187.29 108.34 185.17 110.06 183.45 112.18 183.45 114.3 183.45 116.02 185.17 116.02 187.29Z" fill="#EFE5B9"/><circle cx="112.18" cy="187.29" r="3.14" fill="#E57C25"/><path d="M109.96 187.81C109.96 186.08 111.37 184.67 113.1 184.67 113.48 184.67 113.83 184.75 114.16 184.87 113.62 184.43 112.94 184.15 112.18 184.15 110.45 184.15 109.04 185.56 109.04 187.29 109.04 188.65 109.91 189.8 111.12 190.23 110.42 189.66 109.96 188.79 109.96 187.81Z" fill="#D66B1D"/><path d="M114.72 184.43C115.32 185.11 115.7 185.99 115.7 186.96 115.7 189.08 113.98 190.8 111.86 190.8 110.88 190.8 110 190.42 109.33 189.82 110.03 190.61 111.05 191.12 112.19 191.12 114.31 191.12 116.03 189.4 116.03 187.28 116.02 186.15 115.51 185.13 114.72 184.43Z" fill="#F7E99C"/></g></g><g><rect x="120.91" y="147.6" width="11.86" height="47.36" fill="#E3692E"/><rect x="123.7" y="152.31" width="6.28" height="28.09" fill="#EFE5B9"/><g><path d="M130.68 187.29C130.68 189.41 128.96 191.13 126.84 191.13 124.72 191.13 123 189.41 123 187.29 123 185.17 124.72 183.45 126.84 183.45 128.96 183.45 130.68 185.17 130.68 187.29Z" fill="#EFE5B9"/><circle cx="126.84" cy="187.29" r="3.14" fill="#C9461B"/><path d="M124.61 187.81C124.61 186.08 126.02 184.67 127.75 184.67 128.13 184.67 128.48 184.75 128.81 184.87 128.27 184.43 127.59 184.15 126.83 184.15 125.1 184.15 123.69 185.56 123.69 187.29 123.69 188.65 124.56 189.8 125.77 190.23 125.07 189.66 124.61 188.79 124.61 187.81Z" fill="#BA3513"/><path d="M129.37 184.43C129.97 185.11 130.35 185.99 130.35 186.96 130.35 189.08 128.63 190.8 126.51 190.8 125.53 190.8 124.65 190.42 123.98 189.82 124.68 190.61 125.7 191.12 126.84 191.12 128.96 191.12 130.68 189.4 130.68 187.28 130.68 186.15 130.17 185.13 129.37 184.43Z" fill="#F7E99C"/></g></g><g><rect x="122.82" y="18.84" width="11.86" height="47.36" fill="#E3692E"/><rect x="125.62" y="23.55" width="6.28" height="28.09" fill="#EFE5B9"/><g><path d="M132.59 58.53C132.59 60.65 130.87 62.37 128.75 62.37 126.63 62.37 124.91 60.65 124.91 58.53 124.91 56.41 126.63 54.69 128.75 54.69 130.88 54.7 132.59 56.41 132.59 58.53Z" fill="#EFE5B9"/><circle cx="128.76" cy="58.53" r="3.14" fill="#C9461B"/><path d="M126.53 59.06C126.53 57.33 127.94 55.92 129.67 55.92 130.05 55.92 130.4 56 130.73 56.12 130.19 55.68 129.51 55.4 128.75 55.4 127.02 55.4 125.61 56.81 125.61 58.54 125.61 59.9 126.48 61.05 127.69 61.48 126.99 60.9 126.53 60.04 126.53 59.06Z" fill="#BA3513"/><path d="M131.29 55.67C131.89 56.35 132.27 57.23 132.27 58.2 132.27 60.32 130.55 62.04 128.43 62.04 127.45 62.04 126.57 61.66 125.9 61.06 126.6 61.85 127.62 62.36 128.76 62.36 130.88 62.36 132.6 60.64 132.6 58.52 132.59 57.39 132.08 56.37 131.29 55.67Z" fill="#F7E99C"/></g></g><g><rect x="53.04" y="14.74" width="11.86" height="51.46" fill="#787B2E"/><rect x="55.83" y="23.29" width="6.28" height="28.35" fill="#EFE5B9"/><g><circle cx="58.97" cy="58.53" r="3.84" fill="#EFE5B9"/><circle cx="58.97" cy="58.53" r="3.14" fill="#5E581B"/><path d="M56.75 59.06C56.75 57.33 58.16 55.92 59.89 55.92 60.27 55.92 60.62 56 60.95 56.12 60.41 55.68 59.73 55.4 58.97 55.4 57.24 55.4 55.83 56.81 55.83 58.54 55.83 59.9 56.7 61.05 57.91 61.48 57.2 60.9 56.75 60.04 56.75 59.06Z" fill="#4F4713"/><path d="M61.5 55.67C62.1 56.35 62.48 57.23 62.48 58.2 62.48 60.32 60.76 62.04 58.64 62.04 57.66 62.04 56.78 61.66 56.11 61.06 56.81 61.85 57.83 62.36 58.97 62.36 61.09 62.36 62.81 60.64 62.81 58.52 62.81 57.39 62.3 56.37 61.5 55.67Z" fill="#F7E99C"/></g></g><g><rect x="106.42" y="77.55" width="11.86" height="51.46" fill="#787B2E"/><rect x="109.22" y="86.1" width="6.28" height="28.35" fill="#EFE5B9"/><g><ellipse cx="112.36" cy="121.34" rx="3.84" ry="3.84" fill="#EFE5B9" transform="matrix(1 -0.00850163 0.00850163 1 -1.0275 0.9596)"/><circle cx="112.36" cy="121.34" r="3.14" fill="#5E581B"/><path d="M110.13 121.86C110.13 120.13 111.54 118.72 113.27 118.72 113.65 118.72 114 118.8 114.33 118.92 113.79 118.48 113.11 118.2 112.35 118.2 110.62 118.2 109.21 119.61 109.21 121.34 109.21 122.7 110.08 123.85 111.29 124.28 110.59 123.71 110.13 122.84 110.13 121.86Z" fill="#4F4713"/><path d="M114.89 118.48C115.49 119.16 115.87 120.04 115.87 121.01 115.87 123.13 114.15 124.85 112.03 124.85 111.05 124.85 110.17 124.47 109.5 123.87 110.2 124.66 111.22 125.17 112.36 125.17 114.48 125.17 116.2 123.45 116.2 121.33 116.19 120.2 115.68 119.18 114.89 118.48Z" fill="#F7E99C"/></g></g><g><rect x="107.21" y="14.74" width="11.86" height="51.46" fill="#36806E"/><rect x="110" y="23.29" width="6.28" height="28.35" fill="#EFE5B9"/><g><circle cx="113.14" cy="58.53" r="3.84" fill="#EFE5B9"/><circle cx="113.14" cy="58.53" r="3.14" fill="#1C5D5B"/><path d="M110.92 59.06C110.92 57.33 112.33 55.92 114.06 55.92 114.44 55.92 114.79 56 115.12 56.12 114.58 55.68 113.9 55.4 113.14 55.4 111.41 55.4 110 56.81 110 58.54 110 59.9 110.87 61.05 112.08 61.48 111.38 60.9 110.92 60.04 110.92 59.06Z" fill="#0D4C53"/><path d="M115.68 55.67C116.28 56.35 116.66 57.23 116.66 58.2 116.66 60.32 114.94 62.04 112.82 62.04 111.84 62.04 110.96 61.66 110.29 61.06 110.99 61.85 112.01 62.36 113.15 62.36 115.27 62.36 116.99 60.64 116.99 58.52 116.98 57.39 116.47 56.37 115.68 55.67Z" fill="#F7E99C"/></g></g><g><rect x="138.26" y="143.15" width="11.86" height="51.46" fill="#36806E"/><rect x="141.06" y="151.7" width="6.28" height="28.35" fill="#EFE5B9"/><g><path d="M148.03 186.94C148.03 189.06 146.31 190.78 144.19 190.78 142.07 190.78 140.35 189.06 140.35 186.94 140.35 184.82 142.07 183.1 144.19 183.1 146.32 183.1 148.03 184.82 148.03 186.94Z" fill="#EFE5B9"/><circle cx="144.2" cy="186.94" r="3.14" fill="#1C5D5B"/><path d="M141.97 187.46C141.97 185.73 143.38 184.32 145.11 184.32 145.49 184.32 145.84 184.4 146.17 184.52 145.63 184.08 144.95 183.8 144.19 183.8 142.46 183.8 141.05 185.21 141.05 186.94 141.05 188.3 141.92 189.45 143.13 189.88 142.43 189.31 141.97 188.44 141.97 187.46Z" fill="#0D4C53"/><path d="M146.73 184.08C147.33 184.76 147.71 185.64 147.71 186.61 147.71 188.73 145.99 190.45 143.87 190.45 142.89 190.45 142.01 190.07 141.34 189.47 142.04 190.26 143.06 190.77 144.2 190.77 146.32 190.77 148.04 189.05 148.04 186.93 148.03 185.8 147.52 184.78 146.73 184.08Z" fill="#F7E99C"/></g></g></g><g><rect x="10.99" y="10.99" width="155.45" height="182.3" fill="#31CBDB" opacity="0.6"/><path d="M166.44 13.09 166.44 11 100.36 10.93 100.36 11.09 97.48 11.09 97.48 11.09 10.99 10.99 10.99 193.29 166.44 193.3 166.44 191.19 100.36 191.19 100.36 13.09 166.44 13.09ZM97.48 191.2 13.82 191.2 13.82 13.09 97.48 13.09 97.48 191.2Z" fill="#FFFFFF" opacity="0.4"/></g><path d="M112.01 211.98 162.78 211.98C162.78 211.98 148.65 314.57 126.67 314.57 110.6 314.56 112.01 211.98 112.01 211.98Z" fill="#BC8350"/><g><rect x="78.07" y="70.04" width="4.89" height="88.28" fill="#24A5BA" opacity="0.4"/><rect x="78.6" y="70.04" width="3.84" height="64.2" fill="#B7E0F2"/><path d="M82.44 134.24 78.6 134.24 81.13 132.29 81.13 70.04 82.44 70.04Z" fill="#7DAAD3"/><rect x="79.16" y="71.44" width="0.79" height="51.29" fill="#CAF1FF"/></g><g><rect x="114.89" y="70.04" width="4.88" height="88.28" fill="#24A5BA" opacity="0.4"/><rect x="115.37" y="70.04" width="3.84" height="64.2" fill="#B7E0F2"/><path d="M119.2 134.24 115.37 134.24 117.9 132.29 117.9 70.04 119.2 70.04Z" fill="#7DAAD3"/><rect x="115.93" y="71.44" width="0.79" height="51.29" fill="#CAF1FF"/></g><g><g><rect x="78.07" y="213.9" width="4.89" height="51.99" fill="#93542A" opacity="0.3"/><rect x="78.6" y="213.9" width="3.84" height="38.91" fill="#B7E0F2"/><path d="M82.44 252.8 78.6 252.8 81.13 250.85 81.13 213.9 82.44 213.9Z" fill="#7DAAD3"/><rect x="79.16" y="215.3" width="0.79" height="26" fill="#CAF1FF"/></g><g><rect x="114.89" y="213.9" width="4.88" height="51.99" fill="#93542A" opacity="0.3"/><rect x="115.37" y="213.9" width="3.84" height="38.91" fill="#B7E0F2"/><path d="M119.2 252.8 115.37 252.8 117.9 250.85 117.9 213.9 119.2 213.9Z" fill="#7DAAD3"/><rect x="115.93" y="215.3" width="0.79" height="26" fill="#CAF1FF"/></g></g><path d="M12.56 300.95 12.56 340.21 91.42 340.21 91.42 300.43C91.42 300.43 85.84 336.02 51.29 336.02 16.74 336.02 12.56 300.95 12.56 300.95Z" fill="#93542A" opacity="0.1"/><path d="M166.44 330.71C161.12 333.9 154.44 336.02 146.03 336.02 111.49 336.02 107.3 300.95 107.3 300.95L107.3 340.21 166.44 340.21 166.44 330.71Z" fill="#93542A" opacity="0.1"/><path d="M18.32 211.98 69.09 211.98C69.09 211.98 54.96 314.57 32.98 314.57 16.92 314.56 18.32 211.98 18.32 211.98Z" fill="#BC8350"/><path d="M7.33 352.42 7.33 365.34 9.42 365.34 9.42 354.87 166.44 354.87 166.44 352.42Z" fill="#93542A"/></g></svg>