<svg width="100.79" height="115.19" viewBox="0 0 100.79 115.19" xmlns="http://www.w3.org/2000/svg" xmlns:xlink="http://www.w3.org/1999/xlink" xml:space="preserve" overflow="hidden"><defs></defs><g><g><linearGradient x1="7.1064" y1="92.0898" x2="37.5625" y2="92.0898" gradientUnits="userSpaceOnUse" id="SVGID_1_"><stop offset="0" stop-color="#DA4576"/><stop offset="1" stop-color="#ED6A81"/></linearGradient><defs><filter id="Adobe_OpacityMaskFilter" x="8.26" y="73.04" width="13.93" height="31.78" filterUnits="userSpaceOnUse" primitiveUnits="userSpaceOnUse"><feFlood flood-color="#FFFFFF" result="back"/><feBlend in="SourceGraphic" in2="back" mode="normal"/></filter></defs><mask maskUnits="userSpaceOnUse" x="8.26" y="73.04" width="13.93" height="31.78" id="SVGID_2_"><g filter="url(#Adobe_OpacityMaskFilter)"><defs><filter id="Adobe_OpacityMaskFilter_1_" x="8.26" y="73.04" width="13.93" height="31.78" filterUnits="userSpaceOnUse" primitiveUnits="userSpaceOnUse"><feFlood flood-color="#FFFFFF" result="back"/><feBlend in="SourceGraphic" in2="back" mode="normal"/></filter></defs><mask maskUnits="userSpaceOnUse" x="8.26" y="73.04" width="13.93" height="31.78" id="SVGID_2_"><g filter="url(#Adobe_OpacityMaskFilter_1_)"></g></mask><radialGradient cx="-5.5359" cy="80.8401" r="31.9194" gradientUnits="userSpaceOnUse" id="SVGID_3_"><stop offset="0.00221549" stop-color="#FFFFFF"/><stop offset="0.1645" stop-color="#FCFCFC"/><stop offset="0.2947" stop-color="#F2F2F2"/><stop offset="0.4138" stop-color="#E1E1E1"/><stop offset="0.5262" stop-color="#C9C9C9"/><stop offset="0.6341" stop-color="#AAAAAA"/><stop offset="0.7384" stop-color="#858585"/><stop offset="0.8401" stop-color="#585858"/><stop offset="0.937" stop-color="#252525"/><stop offset="1"/></radialGradient><path d="M12.12 84.96C13.78 80.77 17.38 74.57 22.19 73.12 20.85 72.93 19.41 73.07 17.9 73.6 17.9 73.6 9.1 76.74 8.26 86.38L8.26 104.81C8.76 98.04 9.61 91.28 12.12 84.96Z" fill="url(#SVGID_3_)" mask="url(#SVGID_2_)"/></g></mask><radialGradient cx="-5.5359" cy="80.8401" r="31.9194" gradientUnits="userSpaceOnUse" id="SVGID_4_"><stop offset="0.00221549" stop-color="#FFFFFF"/><stop offset="0.9102" stop-color="#FFFFFF"/><stop offset="1" stop-color="#FFFFFF"/></radialGradient><path d="M37.56 111.04 37.56 86.92C37.56 78.51 30.74 71.69 22.33 71.69 13.92 71.69 7.1 78.51 7.1 86.92L7.1 111.22C7.44 111.88 8.05 112.32 8.75 112.49L36.03 112.49C36.71 112.14 37.3 111.73 37.56 111.04Z" fill="url(#SVGID_1_)"/><path d="M22.33 71.69C21 71.69 19.72 71.86 18.49 72.18 20.28 72.07 22.08 72.09 23.74 72.69 27.23 73.96 28.07 77.51 28.2 80.89 28.42 86.33 28.31 91.8 28.36 97.25 28.4 102.33 28.43 107.42 28.44 112.5L36.04 112.5C36.71 112.15 37.3 111.74 37.56 111.05L37.56 86.92C37.56 78.51 30.75 71.69 22.33 71.69Z" fill="#DA4576" opacity="0.5"/><g><path d="M23.73 70.36 23.73 62.26 12.13 62.26C12.13 62.26 5.56 62.12 5.42 67.22L7.73 67.22C7.73 67.22 7.45 64.01 11.64 64.01 15.01 64.01 21.49 64.01 21.49 64.01L21.49 70.37 23.73 70.37Z" fill="#C7C8C8"/><rect x="21.01" y="60.51" width="2.93" height="9.99" fill="#C7C8C8"/><rect x="21.01" y="60.51" width="2.93" height="5.66" fill="#979898"/><rect x="21.01" y="68.26" width="2.93" height="2.24" fill="#979898"/></g><rect x="16.81" y="60.09" width="10.72" height="5.27" fill="#DADADA"/><rect x="17.45" y="68.79" width="9.43" height="3.35" fill="#DADADA"/><rect x="16.81" y="60.09" width="10.72" height="5.27" fill="#DADADA"/><rect x="17.45" y="68.79" width="9.43" height="3.35" fill="#DADADA"/><rect x="22.68" y="60.09" width="4.85" height="5.27" fill="#BDBCBC"/><rect x="22.68" y="68.79" width="4.21" height="3.35" fill="#BDBCBC"/><path d="M12.12 84.96C13.78 80.77 17.38 74.57 22.19 73.12 20.85 72.93 19.41 73.07 17.9 73.6 17.9 73.6 9.1 76.74 8.26 86.38L8.26 104.81C8.76 98.04 9.61 91.28 12.12 84.96Z" fill="url(#SVGID_4_)"/></g><g><linearGradient x1="43.1279" y1="96.0061" x2="67.7392" y2="96.0061" gradientUnits="userSpaceOnUse" id="SVGID_5_"><stop offset="0" stop-color="#DA4576"/><stop offset="1" stop-color="#ED6A81"/></linearGradient><defs><filter id="Adobe_OpacityMaskFilter_2_" x="44.06" y="80.62" width="10.52" height="24.75" filterUnits="userSpaceOnUse" primitiveUnits="userSpaceOnUse"><feFlood flood-color="#FFFFFF" result="back"/><feBlend in="SourceGraphic" in2="back" mode="normal"/></filter></defs><mask maskUnits="userSpaceOnUse" x="44.06" y="80.62" width="10.52" height="24.75" id="SVGID_6_"><g filter="url(#Adobe_OpacityMaskFilter_2_)"><defs><filter id="Adobe_OpacityMaskFilter_3_" x="44.06" y="80.62" width="10.52" height="24.75" filterUnits="userSpaceOnUse" primitiveUnits="userSpaceOnUse"><feFlood flood-color="#FFFFFF" result="back"/><feBlend in="SourceGraphic" in2="back" mode="normal"/></filter></defs><mask maskUnits="userSpaceOnUse" x="44.06" y="80.62" width="10.52" height="24.75" id="SVGID_6_"><g filter="url(#Adobe_OpacityMaskFilter_3_)"></g></mask><radialGradient cx="32.9129" cy="86.9162" r="25.7921" gradientUnits="userSpaceOnUse" id="SVGID_7_"><stop offset="0.00221549" stop-color="#FFFFFF"/><stop offset="0.1645" stop-color="#FCFCFC"/><stop offset="0.2947" stop-color="#F2F2F2"/><stop offset="0.4138" stop-color="#E1E1E1"/><stop offset="0.5262" stop-color="#C9C9C9"/><stop offset="0.6341" stop-color="#AAAAAA"/><stop offset="0.7384" stop-color="#858585"/><stop offset="0.8401" stop-color="#585858"/><stop offset="0.937" stop-color="#252525"/><stop offset="1"/></radialGradient><path d="M45.92 93.47C46.77 90.24 47.81 86.86 49.99 84.25 51.27 82.72 52.82 81.47 54.58 80.62 53.71 80.6 52.79 80.73 51.85 81.07 51.85 81.07 44.74 83.61 44.06 91.4L44.06 105.37C44.34 101.35 44.89 97.36 45.92 93.47Z" fill="url(#SVGID_7_)" mask="url(#SVGID_6_)"/></g></mask><radialGradient cx="32.9129" cy="86.9162" r="25.7921" gradientUnits="userSpaceOnUse" id="SVGID_8_"><stop offset="0.00221549" stop-color="#FFFFFF"/><stop offset="0.9102" stop-color="#FFFFFF"/><stop offset="1" stop-color="#FFFFFF"/></radialGradient><path d="M67.74 111.32 67.74 91.83C67.74 85.04 62.23 79.53 55.43 79.53 48.63 79.53 43.12 85.04 43.12 91.83L43.12 111.47C43.4 112 43.89 112.36 44.46 112.5L66.5 112.5C67.05 112.21 67.53 111.87 67.74 111.32Z" fill="url(#SVGID_5_)"/><path d="M55.43 79.52C52.65 79.52 50.08 80.44 48.02 82 52.13 80.36 57.37 79.96 59.19 84.56 59.99 86.59 60.09 88.85 60.1 91 60.1 93.51 60.04 107.84 60 112.48L66.51 112.48C67.05 112.2 67.53 111.86 67.74 111.31L67.74 91.83C67.74 85.03 62.23 79.52 55.43 79.52Z" fill="#DA4576" opacity="0.5"/><g><path d="M56.56 78.45 56.56 71.9 47.19 71.9C47.19 71.9 41.89 71.79 41.77 75.91L43.63 75.91C43.63 75.91 43.41 73.31 46.79 73.31 49.51 73.31 54.75 73.31 54.75 73.31L54.75 78.45 56.56 78.45Z" fill="#C7C8C8"/><rect x="54.36" y="70.49" width="2.37" height="8.07" fill="#C7C8C8"/><rect x="54.36" y="70.49" width="2.37" height="4.58" fill="#979898"/><rect x="54.36" y="76.75" width="2.37" height="1.81" fill="#979898"/></g><rect x="50.97" y="70.15" width="8.67" height="4.26" fill="#DADADA"/><rect x="51.49" y="77.18" width="7.62" height="2.71" fill="#DADADA"/><rect x="50.97" y="70.15" width="8.67" height="4.26" fill="#DADADA"/><rect x="51.49" y="77.18" width="7.62" height="2.71" fill="#DADADA"/><rect x="55.71" y="70.15" width="3.92" height="4.26" fill="#BDBCBC"/><rect x="55.71" y="77.18" width="3.4" height="2.71" fill="#BDBCBC"/><path d="M45.92 93.47C46.77 90.24 47.81 86.86 49.99 84.25 51.27 82.72 52.82 81.47 54.58 80.62 53.71 80.6 52.79 80.73 51.85 81.07 51.85 81.07 44.74 83.61 44.06 91.4L44.06 105.37C44.34 101.35 44.89 97.36 45.92 93.47Z" fill="url(#SVGID_8_)"/></g><g><defs><filter id="Adobe_OpacityMaskFilter_4_" x="72.89" y="74.19" width="12.01" height="18.19" filterUnits="userSpaceOnUse" primitiveUnits="userSpaceOnUse"><feFlood flood-color="#FFFFFF" result="back"/><feBlend in="SourceGraphic" in2="back" mode="normal"/></filter></defs><mask maskUnits="userSpaceOnUse" x="72.89" y="74.19" width="12.01" height="18.19" id="SVGID_11_"><g filter="url(#Adobe_OpacityMaskFilter_4_)"><defs><filter id="Adobe_OpacityMaskFilter_5_" x="72.89" y="74.19" width="12.01" height="18.19" filterUnits="userSpaceOnUse" primitiveUnits="userSpaceOnUse"><feFlood flood-color="#FFFFFF" result="back"/><feBlend in="SourceGraphic" in2="back" mode="normal"/></filter></defs><mask maskUnits="userSpaceOnUse" x="72.89" y="74.19" width="12.01" height="18.19" id="SVGID_11_"><g filter="url(#Adobe_OpacityMaskFilter_5_)"></g></mask><radialGradient cx="61.7391" cy="80.4896" r="25.7954" gradientUnits="userSpaceOnUse" id="SVGID_12_"><stop offset="0.00221549" stop-color="#FFFFFF"/><stop offset="0.1645" stop-color="#FCFCFC"/><stop offset="0.2947" stop-color="#F2F2F2"/><stop offset="0.4138" stop-color="#E1E1E1"/><stop offset="0.5262" stop-color="#C9C9C9"/><stop offset="0.6341" stop-color="#AAAAAA"/><stop offset="0.7384" stop-color="#858585"/><stop offset="0.8401" stop-color="#585858"/><stop offset="0.937" stop-color="#252525"/><stop offset="1"/></radialGradient><path d="M74.04 87.05C74.95 83.83 76.29 80.57 78.59 78.09 80.33 76.22 82.49 74.99 84.89 74.4 83.6 74.06 82.18 74.11 80.67 74.65 80.67 74.65 73.56 77.19 72.88 84.98L72.88 92.38C73.17 90.58 73.54 88.8 74.04 87.05Z" fill="url(#SVGID_12_)" mask="url(#SVGID_11_)"/></g></mask><radialGradient cx="61.7391" cy="80.4896" r="25.7954" gradientUnits="userSpaceOnUse" id="SVGID_13_"><stop offset="0.00221549" stop-color="#FFFFFF"/><stop offset="0.9102" stop-color="#FFFFFF"/><stop offset="1" stop-color="#FFFFFF"/></radialGradient><g><linearGradient x1="79.9219" y1="72.2834" x2="88.5869" y2="72.2834" gradientUnits="userSpaceOnUse" id="SVGID_9_"><stop offset="0" stop-color="#DA4576"/><stop offset="1" stop-color="#ED6A81"/></linearGradient><linearGradient x1="71.9502" y1="92.6838" x2="96.5596" y2="92.6838" gradientUnits="userSpaceOnUse" id="SVGID_10_"><stop offset="0" stop-color="#DA4576"/><stop offset="1" stop-color="#ED6A81"/></linearGradient><rect x="79.92" y="70.15" width="8.66" height="4.26" fill="url(#SVGID_9_)"/><path d="M96.56 111.08 96.56 87.66C96.56 79.49 91.05 72.88 84.26 72.88 77.47 72.88 71.96 79.5 71.96 87.66L71.96 111.25C72.24 111.89 72.73 112.32 73.29 112.48L95.34 112.48C95.87 112.15 96.35 111.75 96.56 111.08Z" fill="url(#SVGID_10_)"/><path d="M84.25 72.88C82.16 72.88 80.19 73.51 78.47 74.61 78.52 74.6 78.57 74.58 78.61 74.57 80.57 74.06 82.63 73.95 84.54 74.77 86.28 75.52 87.94 76.83 88.75 78.59 89.63 80.51 89.57 106.02 89.41 108.48 89.32 109.82 89.25 111.16 89.25 112.5L95.33 112.5C95.87 112.16 96.35 111.76 96.56 111.09L96.56 87.66C96.56 79.5 91.05 72.88 84.25 72.88Z" fill="#DA4576" opacity="0.5"/><rect x="71.95" y="91.03" width="24.61" height="19.71" fill="#C6E4E2"/><rect x="88.84" y="91.03" width="7.72" height="19.71" fill="#8FA5A4"/><g><rect x="79.33" y="68.41" width="9.86" height="4.05" fill="#DADADA"/><rect x="84.72" y="68.41" width="4.46" height="4.05" fill="#BDBCBC"/><rect x="79.33" y="69.72" width="9.86" height="0.28" fill="#767777"/></g></g><path d="M74.04 87.05C74.95 83.83 76.29 80.57 78.59 78.09 80.33 76.22 82.49 74.99 84.89 74.4 83.6 74.06 82.18 74.11 80.67 74.65 80.67 74.65 73.56 77.19 72.88 84.98L72.88 92.38C73.17 90.58 73.54 88.8 74.04 87.05Z" fill="url(#SVGID_13_)"/><path d="M82.11 69.9C82.18 70.47 83.11 70.92 84.26 70.92 85.41 70.92 86.35 70.47 86.41 69.9L82.11 69.9Z" fill="#9C9C9C"/></g><g><rect x="2.99" y="111.84" width="97.8" height="3.35" fill="#7F331F"/><rect x="2.99" y="113.79" width="97.8" height="1.4" fill="#4D1E0A"/></g></g><g><g><g><linearGradient x1="34.8873" y1="35.4731" x2="53.5904" y2="35.4731" gradientUnits="userSpaceOnUse" id="SVGID_19_"><stop offset="0.212" stop-color="#FFFFFF"/><stop offset="0.3704" stop-color="#FBFBFB"/><stop offset="0.5324" stop-color="#EFEFEF"/><stop offset="0.696" stop-color="#DADADA"/><stop offset="0.8598" stop-color="#BEBEBE"/><stop offset="1" stop-color="#9F9F9F"/></linearGradient><defs><filter id="Adobe_OpacityMaskFilter_6_" x="34.46" y="20.85" width="12.82" height="27.38" filterUnits="userSpaceOnUse" primitiveUnits="userSpaceOnUse"><feFlood flood-color="#FFFFFF" result="back"/><feBlend in="SourceGraphic" in2="back" mode="normal"/></filter></defs><mask maskUnits="userSpaceOnUse" x="34.46" y="20.85" width="12.82" height="27.38" id="SVGID_20_"><g filter="url(#Adobe_OpacityMaskFilter_6_)"><defs><filter id="Adobe_OpacityMaskFilter_7_" x="34.46" y="20.85" width="12.82" height="27.38" filterUnits="userSpaceOnUse" primitiveUnits="userSpaceOnUse"><feFlood flood-color="#FFFFFF" result="back"/><feBlend in="SourceGraphic" in2="back" mode="normal"/></filter></defs><mask maskUnits="userSpaceOnUse" x="34.46" y="20.85" width="12.82" height="27.38" id="SVGID_20_"><g filter="url(#Adobe_OpacityMaskFilter_7_)"></g></mask><radialGradient cx="29.595" cy="28.3805" r="20.1457" gradientUnits="userSpaceOnUse" id="SVGID_21_"><stop offset="0.151" stop-color="#FFFFFF"/><stop offset="0.2444" stop-color="#FAFAFA"/><stop offset="0.3496" stop-color="#EDEDED"/><stop offset="0.4605" stop-color="#D6D6D6"/><stop offset="0.5755" stop-color="#B7B7B7"/><stop offset="0.6936" stop-color="#8E8E8E"/><stop offset="0.8142" stop-color="#5C5C5C"/><stop offset="0.9347" stop-color="#222222"/><stop offset="1"/></radialGradient><path d="M39.6 20.96C39.6 20.96 35.33 21.72 34.62 26.4 34.62 26.4 34.42 28.28 34.47 30.36 34.52 32.44 34.67 46.52 34.67 46.52 34.67 46.52 34.52 47.74 35.23 48.15 35.23 48.15 35.99 48.61 36.2 47.39 36.4 46.17 36.86 28.79 39.6 26.56 42.34 24.32 45.14 24.88 46.51 25.09 46.51 25.09 47.17 25.45 47.27 24.48 47.38 23.5 46.36 20.2 39.6 20.96Z" fill="url(#SVGID_21_)" mask="url(#SVGID_20_)"/></g></mask><radialGradient cx="29.595" cy="28.3805" r="20.1457" gradientUnits="userSpaceOnUse" id="SVGID_22_"><stop offset="0.151" stop-color="#F6F4D1"/><stop offset="0.253" stop-color="#F1EFCD"/><stop offset="0.368" stop-color="#E4E2C2"/><stop offset="0.4892" stop-color="#CDCCAF"/><stop offset="0.6147" stop-color="#AEAC94"/><stop offset="0.7437" stop-color="#858472"/><stop offset="0.8734" stop-color="#545449"/><stop offset="1" stop-color="#1D1D1B"/></radialGradient><g><linearGradient x1="43.3657" y1="20.7422" x2="43.3657" y2="18.0662" gradientUnits="userSpaceOnUse" id="SVGID_14_"><stop offset="0" stop-color="#F6F4D1"/><stop offset="0.1817" stop-color="#F2F0CD"/><stop offset="0.3676" stop-color="#E7E4C2"/><stop offset="0.5554" stop-color="#D5CFAF"/><stop offset="0.7446" stop-color="#BCB294"/><stop offset="0.9331" stop-color="#9B8E72"/><stop offset="1" stop-color="#8E7F64"/></linearGradient><radialGradient cx="45.5413" cy="-109.053" r="19.3496" gradientUnits="userSpaceOnUse" id="SVGID_15_" gradientTransform="matrix(1 0 0 0.8177 0 116.675)"><stop offset="0" stop-color="#FFF17A"/><stop offset="0.4433" stop-color="#F8BB19"/><stop offset="0.5111" stop-color="#F7B519"/><stop offset="0.6015" stop-color="#F3A419"/><stop offset="0.7046" stop-color="#ED8818"/><stop offset="0.8172" stop-color="#E56218"/><stop offset="0.9362" stop-color="#DB3017"/><stop offset="1" stop-color="#D51317"/></radialGradient><radialGradient cx="38.1314" cy="14.6873" r="4.0236" gradientUnits="userSpaceOnUse" id="SVGID_16_"><stop offset="0" stop-color="#FFF17A"/><stop offset="0.4433" stop-color="#F8BB19"/><stop offset="0.5111" stop-color="#F7B519"/><stop offset="0.6015" stop-color="#F3A419"/><stop offset="0.7046" stop-color="#ED8818"/><stop offset="0.8172" stop-color="#E56218"/><stop offset="0.9362" stop-color="#DB3017"/><stop offset="1" stop-color="#D51317"/></radialGradient><radialGradient cx="45.5414" cy="-109.053" r="19.3491" gradientUnits="userSpaceOnUse" id="SVGID_17_" gradientTransform="matrix(1 0 0 0.8177 0 116.675)"><stop offset="0" stop-color="#FFF17A"/><stop offset="0.4433" stop-color="#F8BB19"/><stop offset="0.5111" stop-color="#F7B519"/><stop offset="0.6015" stop-color="#F3A419"/><stop offset="0.7046" stop-color="#ED8818"/><stop offset="0.8172" stop-color="#E56218"/><stop offset="0.9362" stop-color="#DB3017"/><stop offset="1" stop-color="#D51317"/></radialGradient><linearGradient x1="31.5812" y1="35.4731" x2="63.2257" y2="35.4731" gradientUnits="userSpaceOnUse" id="SVGID_18_"><stop offset="0.7217" stop-color="#F6F4D1"/><stop offset="0.7723" stop-color="#F2F0CD"/><stop offset="0.824" stop-color="#E7E4C2"/><stop offset="0.8763" stop-color="#D5CFAF"/><stop offset="0.9289" stop-color="#BCB294"/><stop offset="0.9814" stop-color="#9B8E72"/><stop offset="1" stop-color="#8E7F64"/></linearGradient><path d="M44.07 14.92 42.65 14.92C40.92 14.92 39.51 15.9 39.51 17.11L39.51 21.71 39.51 21.73 39.51 21.75 39.51 21.75C39.54 22.23 40.93 22.61 42.64 22.61L44.06 22.61C45.77 22.61 47.17 22.22 47.2 21.75L47.2 21.75 47.2 21.73 47.2 21.71 47.2 17.11C47.21 15.9 45.81 14.92 44.07 14.92Z" fill="url(#SVGID_14_)"/><path d="M44.16 12.02 42.58 12.02C40.64 12.02 39.08 12.91 39.08 14.02L39.08 18.22 39.08 18.24 39.08 18.25 39.08 18.25C39.11 18.69 40.67 19.04 42.58 19.04L44.16 19.04C46.08 19.04 47.63 18.69 47.66 18.25L47.66 18.25 47.66 18.24 47.66 18.22 47.66 14.02C47.66 12.92 46.09 12.02 44.16 12.02Z" fill="url(#SVGID_15_)"/><path d="M41 17.49C40.99 16.53 40.95 15.53 41.04 14.58 41.11 13.82 41.34 12.95 41.91 12.53 41.44 12.49 40.96 12.53 40.52 12.64 39.82 12.98 39.37 13.51 39.37 14.1L39.37 18.08 39.37 18.08C39.39 18.36 40.06 18.61 41.03 18.73 41.02 18.32 41.01 17.91 41 17.49Z" fill="url(#SVGID_16_)"/><path d="M44.16 12.02 42.58 12.02C42.18 12.02 41.79 12.06 41.43 12.13 42.52 12.11 43.76 12.02 44.49 12.75 45.26 13.53 45.02 15.19 45.05 16.2 45.08 17.14 45.09 18.08 45.08 19.02 46.55 18.93 47.64 18.62 47.66 18.26L47.66 18.26 47.66 14.02C47.66 12.92 46.09 12.02 44.16 12.02Z" fill="url(#SVGID_17_)"/><path d="M45 19.95 41.55 19.95C37.34 19.95 33.92 23.27 33.92 27.38L33.92 37.28 33.92 39.65 33.92 48.07 33.92 48.07C33.99 49.69 37.38 51 41.55 51L45 51C49.17 51 52.55 49.69 52.63 48.07L52.63 48.07 52.63 40.13 52.63 37.28 52.63 27.38C52.62 23.28 49.21 19.95 45 19.95Z" fill="url(#SVGID_18_)"/></g><path d="M45 19.95 41.55 19.95C37.34 19.95 33.92 23.27 33.92 27.38L33.92 37.28 33.92 39.65 33.92 48.07 33.92 48.07C33.99 49.69 37.38 51 41.55 51L45 51C49.17 51 52.55 49.69 52.63 48.07L52.63 48.07 52.63 40.13 52.63 37.28 52.63 27.38C52.62 23.28 49.21 19.95 45 19.95ZM48.19 45.6C47.99 48.7 45.8 49.36 45.8 49.36 41.48 50.53 36.09 49.11 36.09 49.11 34.46 48.35 34.57 45.71 34.57 45.71L34.47 27.93C34.46 26.86 34.64 25.57 35.08 24.59 35.61 23.43 36.41 22.63 37.38 22.11 38.66 21.41 40.22 21.19 41.79 21.23 43.87 21.28 45.67 21.93 46.88 23.7 48 25.34 48.17 26.85 48.28 28.79 48.32 29.51 48.2 43.85 48.19 45.6Z" fill="url(#SVGID_19_)"/><path d="M39.6 20.96C39.6 20.96 35.33 21.72 34.62 26.4 34.62 26.4 34.42 28.28 34.47 30.36 34.52 32.44 34.67 46.52 34.67 46.52 34.67 46.52 34.52 47.74 35.23 48.15 35.23 48.15 35.99 48.61 36.2 47.39 36.4 46.17 36.86 28.79 39.6 26.56 42.34 24.32 45.14 24.88 46.51 25.09 46.51 25.09 47.17 25.45 47.27 24.48 47.38 23.5 46.36 20.2 39.6 20.96Z" fill="url(#SVGID_22_)"/></g><g><linearGradient x1="35.8533" y1="38.7961" x2="46.5784" y2="38.7961" gradientUnits="userSpaceOnUse" id="SVGID_27_"><stop offset="0.2324" stop-color="#3DB9C6"/><stop offset="0.3891" stop-color="#3AB5C3"/><stop offset="0.5495" stop-color="#32A9BC"/><stop offset="0.7115" stop-color="#2594AF"/><stop offset="0.8737" stop-color="#12789D"/><stop offset="1" stop-color="#005C8C"/></linearGradient><g><defs><filter id="Adobe_OpacityMaskFilter_8_" x="37.52" y="26.21" width="11.51" height="11.47" filterUnits="userSpaceOnUse" primitiveUnits="userSpaceOnUse"><feFlood flood-color="#FFFFFF" result="back"/><feBlend in="SourceGraphic" in2="back" mode="normal"/></filter></defs><mask maskUnits="userSpaceOnUse" x="37.52" y="26.21" width="11.51" height="11.47" id="SVGID_23_"><g filter="url(#Adobe_OpacityMaskFilter_8_)"><defs><filter id="Adobe_OpacityMaskFilter_9_" x="37.52" y="26.21" width="11.51" height="11.47" filterUnits="userSpaceOnUse" primitiveUnits="userSpaceOnUse"><feFlood flood-color="#FFFFFF" result="back"/><feBlend in="SourceGraphic" in2="back" mode="normal"/></filter></defs><mask maskUnits="userSpaceOnUse" x="37.52" y="26.21" width="11.51" height="11.47" id="SVGID_23_"><g filter="url(#Adobe_OpacityMaskFilter_9_)"></g></mask><radialGradient cx="43.2719" cy="31.9489" r="5.7458" gradientUnits="userSpaceOnUse" id="SVGID_24_"><stop offset="0.7276" stop-color="#FFFFFF"/><stop offset="1"/></radialGradient><path d="M46.67 32.23C46.67 32.3 46.93 32.37 47.84 32.59 48.3 32.7 48.88 32.83 48.95 32.9 48.94 32.9 48.9 32.91 48.82 32.91 48.61 32.91 48.19 32.87 47.78 32.83 47.38 32.79 46.96 32.75 46.75 32.75 46.61 32.75 46.58 32.77 46.58 32.79 46.56 32.86 46.81 32.97 47.67 33.33 48.11 33.52 48.66 33.74 48.72 33.82 48.72 33.82 48.71 33.82 48.7 33.82 48.55 33.82 48.06 33.69 47.58 33.56 47.08 33.42 46.61 33.3 46.46 33.3 46.43 33.3 46.41 33.3 46.4 33.32 46.37 33.39 46.6 33.54 47.38 34.04 47.79 34.3 48.29 34.61 48.34 34.69 48.23 34.69 47.74 34.46 47.26 34.24 46.76 34.01 46.29 33.79 46.17 33.79 46.15 33.79 46.14 33.8 46.13 33.81 46.09 33.87 46.29 34.06 46.98 34.68 47.34 35 47.78 35.39 47.82 35.48 47.72 35.46 47.25 35.15 46.83 34.86 46.26 34.47 45.9 34.24 45.81 34.24 45.8 34.24 45.79 34.24 45.78 34.25 45.73 34.3 45.9 34.52 46.48 35.24 46.78 35.62 47.16 36.08 47.18 36.17 47.09 36.14 46.66 35.73 46.31 35.4 45.8 34.91 45.48 34.62 45.4 34.62 45.39 34.62 45.38 34.62 45.38 34.63 45.32 34.67 45.45 34.92 45.9 35.72 46.14 36.14 46.43 36.66 46.43 36.76 46.34 36.72 45.99 36.24 45.7 35.86 45.23 35.23 45 34.94 44.92 34.94 44.91 34.94 44.91 34.94 44.9 34.94 44.84 34.97 44.92 35.23 45.23 36.1 45.39 36.55 45.6 37.12 45.59 37.21 45.51 37.15 45.24 36.63 45.02 36.2 44.64 35.48 44.47 35.16 44.4 35.16L44.39 35.16C44.32 35.18 44.36 35.45 44.53 36.36 44.62 36.84 44.72 37.42 44.7 37.51 44.63 37.44 44.45 36.88 44.3 36.42 44.02 35.56 43.92 35.29 43.85 35.29L43.84 35.29C43.77 35.3 43.76 35.57 43.78 36.5 43.79 36.99 43.8 37.58 43.75 37.67 43.69 37.59 43.61 37.01 43.54 36.53 43.4 35.61 43.35 35.34 43.28 35.34 43.21 35.34 43.16 35.61 43.02 36.53 42.95 37 42.86 37.59 42.81 37.67 42.77 37.58 42.78 36.99 42.78 36.5 42.79 35.58 42.79 35.31 42.72 35.29L42.72 35.29C42.65 35.29 42.55 35.56 42.27 36.42 42.12 36.88 41.94 37.44 41.87 37.51 41.84 37.42 41.95 36.83 42.04 36.36 42.21 35.45 42.24 35.18 42.18 35.16L42.17 35.16C42.1 35.16 41.92 35.48 41.55 36.2 41.33 36.63 41.05 37.16 40.98 37.21 40.97 37.12 41.17 36.55 41.34 36.1 41.66 35.23 41.74 34.97 41.67 34.94 41.67 34.94 41.66 34.94 41.65 34.94 41.58 34.94 41.34 35.24 40.87 35.86 40.58 36.24 40.22 36.72 40.14 36.76 40.14 36.66 40.44 36.15 40.67 35.73 41.13 34.92 41.25 34.68 41.19 34.64 41.19 34.64 41.18 34.63 41.17 34.63 41.09 34.63 40.77 34.93 40.26 35.41 39.91 35.74 39.48 36.15 39.39 36.18 39.41 36.09 39.78 35.62 40.08 35.25 40.66 34.53 40.83 34.31 40.78 34.26 40.78 34.26 40.77 34.25 40.75 34.25 40.66 34.25 40.3 34.49 39.73 34.87 39.32 35.15 38.85 35.47 38.74 35.49 38.78 35.4 39.22 35 39.58 34.69 40.27 34.07 40.47 33.88 40.43 33.82 40.42 33.81 40.41 33.8 40.39 33.8 40.27 33.8 39.8 34.02 39.3 34.25 38.83 34.47 38.33 34.69 38.22 34.7 38.27 34.62 38.77 34.3 39.18 34.04 39.97 33.54 40.19 33.39 40.16 33.32 40.15 33.3 40.12 33.3 40.1 33.3 39.95 33.3 39.48 33.43 38.98 33.56 38.5 33.69 38.01 33.82 37.86 33.82 37.85 33.82 37.84 33.82 37.84 33.82 37.9 33.75 38.45 33.52 38.89 33.33 39.75 32.97 40 32.86 39.98 32.79 39.97 32.76 39.94 32.75 39.81 32.75 39.59 32.75 39.18 32.79 38.78 32.83 38.38 32.87 37.96 32.91 37.74 32.91 37.66 32.91 37.62 32.9 37.61 32.9 37.69 32.84 38.26 32.7 38.73 32.59 39.64 32.38 39.9 32.3 39.9 32.23 39.9 32.16 39.63 32.13 38.7 32.07 38.22 32.04 37.62 32 37.54 31.95 37.62 31.9 38.22 31.86 38.7 31.83 39.62 31.77 39.89 31.74 39.9 31.67 39.9 31.6 39.64 31.53 38.73 31.31 38.27 31.2 37.69 31.07 37.61 31 37.62 31 37.66 30.99 37.74 30.99 37.96 30.99 38.37 31.03 38.78 31.07 39.18 31.11 39.6 31.15 39.81 31.15 39.95 31.15 39.98 31.13 39.98 31.11 40 31.04 39.75 30.93 38.89 30.57 38.45 30.38 37.91 30.16 37.84 30.08 37.84 30.08 37.85 30.08 37.86 30.08 38.01 30.08 38.5 30.21 38.98 30.34 39.48 30.48 39.95 30.6 40.1 30.6 40.12 30.6 40.15 30.6 40.16 30.58 40.19 30.51 39.96 30.36 39.18 29.86 38.77 29.6 38.27 29.29 38.22 29.21 38.33 29.21 38.82 29.44 39.3 29.66 39.8 29.89 40.28 30.11 40.39 30.11 40.41 30.11 40.42 30.1 40.43 30.09 40.47 30.03 40.27 29.84 39.58 29.22 39.22 28.9 38.78 28.51 38.74 28.41 38.84 28.43 39.31 28.74 39.73 29.03 40.3 29.42 40.66 29.65 40.75 29.65 40.76 29.65 40.77 29.65 40.78 29.64 40.83 29.59 40.67 29.37 40.08 28.65 39.78 28.27 39.41 27.81 39.39 27.72 39.48 27.75 39.91 28.16 40.26 28.49 40.77 28.98 41.09 29.27 41.17 29.27 41.18 29.27 41.19 29.27 41.19 29.26 41.25 29.22 41.12 28.97 40.67 28.17 40.43 27.75 40.14 27.23 40.14 27.13 40.23 27.17 40.58 27.65 40.87 28.03 41.34 28.66 41.58 28.95 41.65 28.95 41.65 28.95 41.66 28.95 41.67 28.95 41.73 28.92 41.65 28.66 41.34 27.79 41.18 27.34 40.97 26.78 40.98 26.68 41.06 26.74 41.33 27.26 41.55 27.69 41.93 28.41 42.1 28.73 42.17 28.73L42.18 28.73C42.25 28.71 42.21 28.44 42.04 27.53 41.95 27.05 41.84 26.47 41.87 26.37 41.94 26.44 42.12 27 42.27 27.46 42.55 28.32 42.65 28.59 42.72 28.59L42.72 28.59C42.79 28.58 42.8 28.31 42.78 27.38 42.77 26.9 42.76 26.3 42.81 26.21 42.87 26.29 42.95 26.87 43.02 27.35 43.16 28.28 43.21 28.54 43.28 28.54 43.35 28.54 43.4 28.27 43.54 27.35 43.61 26.88 43.7 26.29 43.75 26.21 43.79 26.3 43.78 26.9 43.78 27.38 43.77 28.3 43.77 28.57 43.84 28.59L43.85 28.59C43.92 28.59 44.02 28.32 44.3 27.46 44.45 27 44.63 26.44 44.7 26.37 44.73 26.46 44.62 27.05 44.53 27.53 44.36 28.44 44.32 28.71 44.39 28.73L44.4 28.73C44.47 28.73 44.65 28.41 45.02 27.69 45.24 27.26 45.52 26.73 45.59 26.68 45.6 26.77 45.4 27.34 45.23 27.79 44.91 28.66 44.83 28.92 44.9 28.95 44.9 28.95 44.91 28.95 44.92 28.95 44.99 28.95 45.22 28.65 45.7 28.03 45.99 27.65 46.35 27.17 46.43 27.13 46.43 27.23 46.13 27.75 45.9 28.17 45.44 28.98 45.32 29.22 45.38 29.26 45.38 29.26 45.39 29.27 45.4 29.27 45.48 29.27 45.8 28.97 46.31 28.49 46.66 28.16 47.09 27.75 47.18 27.72 47.16 27.81 46.79 28.28 46.48 28.65 45.9 29.37 45.74 29.59 45.78 29.65 45.79 29.65 45.79 29.66 45.81 29.66 45.9 29.66 46.26 29.43 46.83 29.04 47.24 28.76 47.71 28.44 47.82 28.42 47.78 28.51 47.34 28.91 46.98 29.22 46.29 29.84 46.09 30.03 46.13 30.09 46.14 30.1 46.15 30.11 46.17 30.11 46.29 30.11 46.76 29.89 47.26 29.66 47.74 29.44 48.23 29.22 48.34 29.21 48.29 29.29 47.79 29.61 47.38 29.87 46.59 30.37 46.37 30.52 46.4 30.59 46.41 30.61 46.44 30.61 46.46 30.61 46.61 30.61 47.08 30.48 47.58 30.35 48.06 30.22 48.55 30.09 48.7 30.09 48.71 30.09 48.71 30.09 48.72 30.09 48.66 30.16 48.11 30.39 47.67 30.58 46.81 30.94 46.56 31.05 46.58 31.12 46.59 31.15 46.62 31.16 46.75 31.16 46.97 31.16 47.38 31.12 47.78 31.08 48.18 31.04 48.6 31 48.82 31 48.9 31 48.94 31.01 48.95 31.01 48.87 31.07 48.3 31.21 47.84 31.32 46.93 31.53 46.67 31.61 46.67 31.68 46.67 31.75 46.94 31.78 47.87 31.84 48.36 31.87 48.95 31.91 49.04 31.96 48.96 32.01 48.36 32.05 47.87 32.08 46.94 32.13 46.67 32.16 46.67 32.23Z" fill="url(#SVGID_24_)" mask="url(#SVGID_23_)"/></g></mask><radialGradient cx="43.2719" cy="31.9489" r="5.7458" gradientUnits="userSpaceOnUse" id="SVGID_25_"><stop offset="0.7276" stop-color="#F8BB19"/><stop offset="1" stop-color="#FFF17A"/></radialGradient><path d="M46.67 32.23C46.67 32.3 46.93 32.37 47.84 32.59 48.3 32.7 48.88 32.83 48.95 32.9 48.94 32.9 48.9 32.91 48.82 32.91 48.61 32.91 48.19 32.87 47.78 32.83 47.38 32.79 46.96 32.75 46.75 32.75 46.61 32.75 46.58 32.77 46.58 32.79 46.56 32.86 46.81 32.97 47.67 33.33 48.11 33.52 48.66 33.74 48.72 33.82 48.72 33.82 48.71 33.82 48.7 33.82 48.55 33.82 48.06 33.69 47.58 33.56 47.08 33.42 46.61 33.3 46.46 33.3 46.43 33.3 46.41 33.3 46.4 33.32 46.37 33.39 46.6 33.54 47.38 34.04 47.79 34.3 48.29 34.61 48.34 34.69 48.23 34.69 47.74 34.46 47.26 34.24 46.76 34.01 46.29 33.79 46.17 33.79 46.15 33.79 46.14 33.8 46.13 33.81 46.09 33.87 46.29 34.06 46.98 34.68 47.34 35 47.78 35.39 47.82 35.48 47.72 35.46 47.25 35.15 46.83 34.86 46.26 34.47 45.9 34.24 45.81 34.24 45.8 34.24 45.79 34.24 45.78 34.25 45.73 34.3 45.9 34.52 46.48 35.24 46.78 35.62 47.16 36.08 47.18 36.17 47.09 36.14 46.66 35.73 46.31 35.4 45.8 34.91 45.48 34.62 45.4 34.62 45.39 34.62 45.38 34.62 45.38 34.63 45.32 34.67 45.45 34.92 45.9 35.72 46.14 36.14 46.43 36.66 46.43 36.76 46.34 36.72 45.99 36.24 45.7 35.86 45.23 35.23 45 34.94 44.92 34.94 44.91 34.94 44.91 34.94 44.9 34.94 44.84 34.97 44.92 35.23 45.23 36.1 45.39 36.55 45.6 37.12 45.59 37.21 45.51 37.15 45.24 36.63 45.02 36.2 44.64 35.48 44.47 35.16 44.4 35.16L44.39 35.16C44.32 35.18 44.36 35.45 44.53 36.36 44.62 36.84 44.72 37.42 44.7 37.51 44.63 37.44 44.45 36.88 44.3 36.42 44.02 35.56 43.92 35.29 43.85 35.29L43.84 35.29C43.77 35.3 43.76 35.57 43.78 36.5 43.79 36.99 43.8 37.58 43.75 37.67 43.69 37.59 43.61 37.01 43.54 36.53 43.4 35.61 43.35 35.34 43.28 35.34 43.21 35.34 43.16 35.61 43.02 36.53 42.95 37 42.86 37.59 42.81 37.67 42.77 37.58 42.78 36.99 42.78 36.5 42.79 35.58 42.79 35.31 42.72 35.29L42.72 35.29C42.65 35.29 42.55 35.56 42.27 36.42 42.12 36.88 41.94 37.44 41.87 37.51 41.84 37.42 41.95 36.83 42.04 36.36 42.21 35.45 42.24 35.18 42.18 35.16L42.17 35.16C42.1 35.16 41.92 35.48 41.55 36.2 41.33 36.63 41.05 37.16 40.98 37.21 40.97 37.12 41.17 36.55 41.34 36.1 41.66 35.23 41.74 34.97 41.67 34.94 41.67 34.94 41.66 34.94 41.65 34.94 41.58 34.94 41.34 35.24 40.87 35.86 40.58 36.24 40.22 36.72 40.14 36.76 40.14 36.66 40.44 36.15 40.67 35.73 41.13 34.92 41.25 34.68 41.19 34.64 41.19 34.64 41.18 34.63 41.17 34.63 41.09 34.63 40.77 34.93 40.26 35.41 39.91 35.74 39.48 36.15 39.39 36.18 39.41 36.09 39.78 35.62 40.08 35.25 40.66 34.53 40.83 34.31 40.78 34.26 40.78 34.26 40.77 34.25 40.75 34.25 40.66 34.25 40.3 34.49 39.73 34.87 39.32 35.15 38.85 35.47 38.74 35.49 38.78 35.4 39.22 35 39.58 34.69 40.27 34.07 40.47 33.88 40.43 33.82 40.42 33.81 40.41 33.8 40.39 33.8 40.27 33.8 39.8 34.02 39.3 34.25 38.83 34.47 38.33 34.69 38.22 34.7 38.27 34.62 38.77 34.3 39.18 34.04 39.97 33.54 40.19 33.39 40.16 33.32 40.15 33.3 40.12 33.3 40.1 33.3 39.95 33.3 39.48 33.43 38.98 33.56 38.5 33.69 38.01 33.82 37.86 33.82 37.85 33.82 37.84 33.82 37.84 33.82 37.9 33.75 38.45 33.52 38.89 33.33 39.75 32.97 40 32.86 39.98 32.79 39.97 32.76 39.94 32.75 39.81 32.75 39.59 32.75 39.18 32.79 38.78 32.83 38.38 32.87 37.96 32.91 37.74 32.91 37.66 32.91 37.62 32.9 37.61 32.9 37.69 32.84 38.26 32.7 38.73 32.59 39.64 32.38 39.9 32.3 39.9 32.23 39.9 32.16 39.63 32.13 38.7 32.07 38.22 32.04 37.62 32 37.54 31.95 37.62 31.9 38.22 31.86 38.7 31.83 39.62 31.77 39.89 31.74 39.9 31.67 39.9 31.6 39.64 31.53 38.73 31.31 38.27 31.2 37.69 31.07 37.61 31 37.62 31 37.66 30.99 37.74 30.99 37.96 30.99 38.37 31.03 38.78 31.07 39.18 31.11 39.6 31.15 39.81 31.15 39.95 31.15 39.98 31.13 39.98 31.11 40 31.04 39.75 30.93 38.89 30.57 38.45 30.38 37.91 30.16 37.84 30.08 37.84 30.08 37.85 30.08 37.86 30.08 38.01 30.08 38.5 30.21 38.98 30.34 39.48 30.48 39.95 30.6 40.1 30.6 40.12 30.6 40.15 30.6 40.16 30.58 40.19 30.51 39.96 30.36 39.18 29.86 38.77 29.6 38.27 29.29 38.22 29.21 38.33 29.21 38.82 29.44 39.3 29.66 39.8 29.89 40.28 30.11 40.39 30.11 40.41 30.11 40.42 30.1 40.43 30.09 40.47 30.03 40.27 29.84 39.58 29.22 39.22 28.9 38.78 28.51 38.74 28.41 38.84 28.43 39.31 28.74 39.73 29.03 40.3 29.42 40.66 29.65 40.75 29.65 40.76 29.65 40.77 29.65 40.78 29.64 40.83 29.59 40.67 29.37 40.08 28.65 39.78 28.27 39.41 27.81 39.39 27.72 39.48 27.75 39.91 28.16 40.26 28.49 40.77 28.98 41.09 29.27 41.17 29.27 41.18 29.27 41.19 29.27 41.19 29.26 41.25 29.22 41.12 28.97 40.67 28.17 40.43 27.75 40.14 27.23 40.14 27.13 40.23 27.17 40.58 27.65 40.87 28.03 41.34 28.66 41.58 28.95 41.65 28.95 41.65 28.95 41.66 28.95 41.67 28.95 41.73 28.92 41.65 28.66 41.34 27.79 41.18 27.34 40.97 26.78 40.98 26.68 41.06 26.74 41.33 27.26 41.55 27.69 41.93 28.41 42.1 28.73 42.17 28.73L42.18 28.73C42.25 28.71 42.21 28.44 42.04 27.53 41.95 27.05 41.84 26.47 41.87 26.37 41.94 26.44 42.12 27 42.27 27.46 42.55 28.32 42.65 28.59 42.72 28.59L42.72 28.59C42.79 28.58 42.8 28.31 42.78 27.38 42.77 26.9 42.76 26.3 42.81 26.21 42.87 26.29 42.95 26.87 43.02 27.35 43.16 28.28 43.21 28.54 43.28 28.54 43.35 28.54 43.4 28.27 43.54 27.35 43.61 26.88 43.7 26.29 43.75 26.21 43.79 26.3 43.78 26.9 43.78 27.38 43.77 28.3 43.77 28.57 43.84 28.59L43.85 28.59C43.92 28.59 44.02 28.32 44.3 27.46 44.45 27 44.63 26.44 44.7 26.37 44.73 26.46 44.62 27.05 44.53 27.53 44.36 28.44 44.32 28.71 44.39 28.73L44.4 28.73C44.47 28.73 44.65 28.41 45.02 27.69 45.24 27.26 45.52 26.73 45.59 26.68 45.6 26.77 45.4 27.34 45.23 27.79 44.91 28.66 44.83 28.92 44.9 28.95 44.9 28.95 44.91 28.95 44.92 28.95 44.99 28.95 45.22 28.65 45.7 28.03 45.99 27.65 46.35 27.17 46.43 27.13 46.43 27.23 46.13 27.75 45.9 28.17 45.44 28.98 45.32 29.22 45.38 29.26 45.38 29.26 45.39 29.27 45.4 29.27 45.48 29.27 45.8 28.97 46.31 28.49 46.66 28.16 47.09 27.75 47.18 27.72 47.16 27.81 46.79 28.28 46.48 28.65 45.9 29.37 45.74 29.59 45.78 29.65 45.79 29.65 45.79 29.66 45.81 29.66 45.9 29.66 46.26 29.43 46.83 29.04 47.24 28.76 47.71 28.44 47.82 28.42 47.78 28.51 47.34 28.91 46.98 29.22 46.29 29.84 46.09 30.03 46.13 30.09 46.14 30.1 46.15 30.11 46.17 30.11 46.29 30.11 46.76 29.89 47.26 29.66 47.74 29.44 48.23 29.22 48.34 29.21 48.29 29.29 47.79 29.61 47.38 29.87 46.59 30.37 46.37 30.52 46.4 30.59 46.41 30.61 46.44 30.61 46.46 30.61 46.61 30.61 47.08 30.48 47.58 30.35 48.06 30.22 48.55 30.09 48.7 30.09 48.71 30.09 48.71 30.09 48.72 30.09 48.66 30.16 48.11 30.39 47.67 30.58 46.81 30.94 46.56 31.05 46.58 31.12 46.59 31.15 46.62 31.16 46.75 31.16 46.97 31.16 47.38 31.12 47.78 31.08 48.18 31.04 48.6 31 48.82 31 48.9 31 48.94 31.01 48.95 31.01 48.87 31.07 48.3 31.21 47.84 31.32 46.93 31.53 46.67 31.61 46.67 31.68 46.67 31.75 46.94 31.78 47.87 31.84 48.36 31.87 48.95 31.91 49.04 31.96 48.96 32.01 48.36 32.05 47.87 32.08 46.94 32.13 46.67 32.16 46.67 32.23Z" fill="url(#SVGID_25_)"/><g><radialGradient cx="41.9783" cy="30.8485" r="6.3926" gradientUnits="userSpaceOnUse" id="SVGID_26_"><stop offset="0" stop-color="#FFF17A"/><stop offset="0.4433" stop-color="#F8BB19"/><stop offset="0.5111" stop-color="#F7B519"/><stop offset="0.6015" stop-color="#F3A419"/><stop offset="0.7046" stop-color="#ED8818"/><stop offset="0.8172" stop-color="#E56218"/><stop offset="0.9362" stop-color="#DB3017"/><stop offset="1" stop-color="#D51317"/></radialGradient><path d="M47.04 31.95C47.04 34.03 45.36 35.71 43.28 35.71 41.2 35.71 39.52 34.02 39.52 31.95 39.52 29.87 41.2 28.18 43.28 28.18 45.35 28.18 47.04 29.87 47.04 31.95Z" fill="url(#SVGID_26_)"/></g></g><rect x="37.99" y="37.83" width="10.57" height="1.93" fill="url(#SVGID_27_)"/><g><linearGradient x1="35.8738" y1="40.9245" x2="46.6086" y2="40.9245" gradientUnits="userSpaceOnUse" id="SVGID_28_"><stop offset="0.2324" stop-color="#3DB9C6"/><stop offset="0.3891" stop-color="#3AB5C3"/><stop offset="0.5495" stop-color="#32A9BC"/><stop offset="0.7115" stop-color="#2594AF"/><stop offset="0.8737" stop-color="#12789D"/><stop offset="1" stop-color="#005C8C"/></linearGradient><linearGradient x1="35.8761" y1="40.9242" x2="46.6017" y2="40.9242" gradientUnits="userSpaceOnUse" id="SVGID_29_"><stop offset="0.2324" stop-color="#3DB9C6"/><stop offset="0.3891" stop-color="#3AB5C3"/><stop offset="0.5495" stop-color="#32A9BC"/><stop offset="0.7115" stop-color="#2594AF"/><stop offset="0.8737" stop-color="#12789D"/><stop offset="1" stop-color="#005C8C"/></linearGradient><linearGradient x1="35.8788" y1="40.9242" x2="46.6005" y2="40.9242" gradientUnits="userSpaceOnUse" id="SVGID_30_"><stop offset="0.2324" stop-color="#3DB9C6"/><stop offset="0.3891" stop-color="#3AB5C3"/><stop offset="0.5495" stop-color="#32A9BC"/><stop offset="0.7115" stop-color="#2594AF"/><stop offset="0.8737" stop-color="#12789D"/><stop offset="1" stop-color="#005C8C"/></linearGradient><linearGradient x1="35.8777" y1="40.9362" x2="46.6008" y2="40.9362" gradientUnits="userSpaceOnUse" id="SVGID_31_"><stop offset="0.2324" stop-color="#3DB9C6"/><stop offset="0.3891" stop-color="#3AB5C3"/><stop offset="0.5495" stop-color="#32A9BC"/><stop offset="0.7115" stop-color="#2594AF"/><stop offset="0.8737" stop-color="#12789D"/><stop offset="1" stop-color="#005C8C"/></linearGradient><linearGradient x1="35.8936" y1="40.9248" x2="46.5925" y2="40.9248" gradientUnits="userSpaceOnUse" id="SVGID_32_"><stop offset="0.2324" stop-color="#3DB9C6"/><stop offset="0.3891" stop-color="#3AB5C3"/><stop offset="0.5495" stop-color="#32A9BC"/><stop offset="0.7115" stop-color="#2594AF"/><stop offset="0.8737" stop-color="#12789D"/><stop offset="1" stop-color="#005C8C"/></linearGradient><linearGradient x1="35.9012" y1="40.9242" x2="46.5929" y2="40.9242" gradientUnits="userSpaceOnUse" id="SVGID_33_"><stop offset="0.2324" stop-color="#3DB9C6"/><stop offset="0.3891" stop-color="#3AB5C3"/><stop offset="0.5495" stop-color="#32A9BC"/><stop offset="0.7115" stop-color="#2594AF"/><stop offset="0.8737" stop-color="#12789D"/><stop offset="1" stop-color="#005C8C"/></linearGradient><linearGradient x1="35.8786" y1="40.9242" x2="46.6012" y2="40.9242" gradientUnits="userSpaceOnUse" id="SVGID_34_"><stop offset="0.2324" stop-color="#3DB9C6"/><stop offset="0.3891" stop-color="#3AB5C3"/><stop offset="0.5495" stop-color="#32A9BC"/><stop offset="0.7115" stop-color="#2594AF"/><stop offset="0.8737" stop-color="#12789D"/><stop offset="1" stop-color="#005C8C"/></linearGradient><linearGradient x1="35.8621" y1="40.9248" x2="46.6032" y2="40.9248" gradientUnits="userSpaceOnUse" id="SVGID_35_"><stop offset="0.2324" stop-color="#3DB9C6"/><stop offset="0.3891" stop-color="#3AB5C3"/><stop offset="0.5495" stop-color="#32A9BC"/><stop offset="0.7115" stop-color="#2594AF"/><stop offset="0.8737" stop-color="#12789D"/><stop offset="1" stop-color="#005C8C"/></linearGradient><linearGradient x1="35.8757" y1="40.9248" x2="46.6016" y2="40.9248" gradientUnits="userSpaceOnUse" id="SVGID_36_"><stop offset="0.2324" stop-color="#3DB9C6"/><stop offset="0.3891" stop-color="#3AB5C3"/><stop offset="0.5495" stop-color="#32A9BC"/><stop offset="0.7115" stop-color="#2594AF"/><stop offset="0.8737" stop-color="#12789D"/><stop offset="1" stop-color="#005C8C"/></linearGradient><linearGradient x1="35.8594" y1="40.9248" x2="46.6004" y2="40.9248" gradientUnits="userSpaceOnUse" id="SVGID_37_"><stop offset="0.2324" stop-color="#3DB9C6"/><stop offset="0.3891" stop-color="#3AB5C3"/><stop offset="0.5495" stop-color="#32A9BC"/><stop offset="0.7115" stop-color="#2594AF"/><stop offset="0.8737" stop-color="#12789D"/><stop offset="1" stop-color="#005C8C"/></linearGradient><path d="M39.91 40.69 39.62 40.69 39.62 40.6C39.62 40.56 39.62 40.53 39.61 40.52 39.6 40.51 39.59 40.5 39.57 40.5 39.55 40.5 39.54 40.51 39.53 40.52 39.52 40.54 39.52 40.56 39.52 40.59 39.52 40.63 39.53 40.66 39.54 40.68 39.55 40.7 39.58 40.72 39.63 40.75 39.77 40.83 39.85 40.9 39.89 40.95 39.93 41 39.94 41.09 39.94 41.2 39.94 41.28 39.93 41.35 39.91 41.39 39.89 41.43 39.85 41.46 39.79 41.49 39.73 41.52 39.67 41.53 39.59 41.53 39.51 41.53 39.44 41.51 39.38 41.48 39.32 41.45 39.28 41.41 39.26 41.36 39.24 41.31 39.23 41.24 39.23 41.15L39.23 41.07 39.52 41.07 39.52 41.22C39.52 41.26 39.52 41.29 39.53 41.31 39.54 41.32 39.55 41.33 39.57 41.33 39.59 41.33 39.61 41.32 39.62 41.31 39.63 41.29 39.63 41.27 39.63 41.24 39.63 41.17 39.62 41.12 39.6 41.1 39.58 41.08 39.53 41.04 39.46 40.99 39.38 40.94 39.33 40.9 39.31 40.88 39.28 40.86 39.27 40.82 39.25 40.78 39.23 40.74 39.23 40.69 39.23 40.62 39.23 40.53 39.24 40.46 39.26 40.42 39.28 40.38 39.32 40.34 39.37 40.32 39.42 40.3 39.49 40.28 39.56 40.28 39.64 40.28 39.71 40.29 39.77 40.32 39.83 40.35 39.86 40.38 39.88 40.42 39.9 40.46 39.91 40.53 39.91 40.62L39.91 40.69Z" fill="url(#SVGID_28_)"/><path d="M40.04 40.33 40.35 40.33C40.43 40.33 40.5 40.34 40.54 40.35 40.58 40.36 40.62 40.38 40.64 40.41 40.66 40.44 40.68 40.47 40.69 40.5 40.7 40.54 40.7 40.59 40.7 40.67L40.7 40.77C40.7 40.85 40.69 40.9 40.68 40.94 40.66 40.97 40.64 41 40.59 41.02 40.55 41.04 40.49 41.05 40.43 41.05L40.35 41.05 40.35 41.53 40.04 41.53 40.04 40.33ZM40.34 40.53 40.34 40.83C40.35 40.83 40.36 40.83 40.36 40.83 40.39 40.83 40.41 40.82 40.42 40.81 40.43 40.8 40.44 40.77 40.44 40.72L40.44 40.62C40.44 40.58 40.43 40.55 40.42 40.54 40.41 40.54 40.38 40.53 40.34 40.53Z" fill="url(#SVGID_29_)"/><path d="M40.79 40.33 41.31 40.33 41.31 40.57 41.1 40.57 41.1 40.8 41.29 40.8 41.29 41.03 41.1 41.03 41.1 41.53 40.79 41.53 40.79 40.33Z" fill="url(#SVGID_30_)"/><path d="M42.29 40.33 42.29 40.52 41.92 40.52 41.92 40.72C41.97 40.67 42.03 40.64 42.1 40.64 42.18 40.64 42.24 40.66 42.29 40.71 42.33 40.75 42.35 40.84 42.35 40.97L42.35 41.14C42.35 41.22 42.35 41.29 42.34 41.33 42.33 41.37 42.31 41.41 42.29 41.44 42.26 41.47 42.23 41.5 42.18 41.52 42.13 41.54 42.07 41.55 42.01 41.55 41.93 41.55 41.87 41.54 41.81 41.51 41.75 41.48 41.71 41.44 41.69 41.39 41.66 41.34 41.65 41.26 41.65 41.14L41.65 41.08 41.95 41.08 41.95 41.15C41.95 41.23 41.95 41.28 41.96 41.31 41.97 41.34 41.98 41.36 42.02 41.36 42.03 41.36 42.05 41.36 42.06 41.35 42.07 41.34 42.07 41.33 42.07 41.32 42.07 41.31 42.07 41.26 42.07 41.18L42.07 40.94C42.07 40.9 42.07 40.87 42.06 40.85 42.05 40.83 42.04 40.83 42.02 40.83 42.01 40.83 41.99 40.83 41.98 40.84 41.97 40.85 41.96 40.86 41.96 40.87 41.96 40.88 41.96 40.9 41.96 40.94L41.67 40.94 41.68 40.34 42.29 40.34Z" fill="url(#SVGID_31_)"/><path d="M43.15 40.73 43.15 41.13C43.15 41.22 43.15 41.29 43.14 41.33 43.13 41.37 43.11 41.41 43.08 41.44 43.05 41.48 43.01 41.5 42.97 41.52 42.93 41.54 42.88 41.54 42.82 41.54 42.75 41.54 42.69 41.53 42.64 41.52 42.59 41.5 42.56 41.48 42.53 41.44 42.5 41.41 42.48 41.37 42.47 41.33 42.46 41.29 42.45 41.23 42.45 41.15L42.45 40.74C42.45 40.63 42.46 40.55 42.48 40.49 42.5 40.44 42.54 40.39 42.59 40.36 42.65 40.33 42.71 40.31 42.79 40.31 42.85 40.31 42.91 40.32 42.96 40.34 43.01 40.36 43.05 40.39 43.08 40.42 43.11 40.45 43.12 40.49 43.13 40.53 43.15 40.58 43.15 40.64 43.15 40.73ZM42.86 40.63C42.86 40.57 42.86 40.53 42.85 40.51 42.84 40.49 42.83 40.49 42.81 40.49 42.79 40.49 42.77 40.5 42.77 40.52 42.76 40.54 42.76 40.58 42.76 40.64L42.76 41.22C42.76 41.29 42.76 41.33 42.77 41.35 42.78 41.36 42.79 41.37 42.81 41.37 42.83 41.37 42.85 41.36 42.85 41.35 42.86 41.33 42.86 41.3 42.86 41.24L42.86 40.63Z" fill="url(#SVGID_32_)"/><path d="M43.53 40.33 43.84 40.33C43.92 40.33 43.99 40.34 44.03 40.35 44.07 40.36 44.11 40.38 44.13 40.41 44.15 40.44 44.17 40.47 44.17 40.5 44.18 40.54 44.18 40.59 44.18 40.67L44.18 40.77C44.18 40.85 44.17 40.9 44.16 40.94 44.14 40.97 44.12 41 44.08 41.02 44.04 41.04 43.98 41.05 43.91 41.05L43.83 41.05 43.83 41.53 43.52 41.53 43.52 40.33ZM43.84 40.53 43.84 40.83C43.85 40.83 43.86 40.83 43.86 40.83 43.89 40.83 43.91 40.82 43.93 40.81 43.94 40.8 43.95 40.77 43.95 40.72L43.95 40.62C43.95 40.58 43.94 40.55 43.93 40.54 43.91 40.54 43.88 40.53 43.84 40.53Z" fill="url(#SVGID_33_)"/><path d="M44.78 40.33 44.96 41.52 44.64 41.52 44.62 41.31 44.51 41.31 44.49 41.52 44.17 41.52 44.33 40.33 44.78 40.33ZM44.62 41.09C44.6 40.96 44.59 40.79 44.57 40.59 44.54 40.82 44.52 40.98 44.51 41.09L44.62 41.09Z" fill="url(#SVGID_34_)"/><path d="M45 40.84 45.26 40.84 45.26 40.58 45.44 40.58 45.44 40.84 45.71 40.84 45.71 41.02 45.44 41.02 45.44 41.28 45.26 41.28 45.26 41.02 45 41.02 45 40.84Z" fill="url(#SVGID_35_)"/><path d="M45.8 40.84 46.06 40.84 46.06 40.58 46.24 40.58 46.24 40.84 46.51 40.84 46.51 41.02 46.24 41.02 46.24 41.28 46.06 41.28 46.06 41.02 45.8 41.02 45.8 40.84Z" fill="url(#SVGID_36_)"/><path d="M46.6 40.84 46.86 40.84 46.86 40.58 47.04 40.58 47.04 40.84 47.31 40.84 47.31 41.02 47.04 41.02 47.04 41.28 46.86 41.28 46.86 41.02 46.6 41.02 46.6 40.84Z" fill="url(#SVGID_37_)"/></g></g></g><g><linearGradient x1="17.869" y1="13.7087" x2="18.936" y2="21.9398" gradientUnits="userSpaceOnUse" id="SVGID_49_"><stop offset="0.2143" stop-color="#F6F4D1"/><stop offset="0.3114" stop-color="#E8E4C2"/><stop offset="0.7818" stop-color="#A79C7F"/><stop offset="1" stop-color="#8E7F64"/></linearGradient><linearGradient x1="20.3638" y1="14.1681" x2="20.0928" y2="17.149" gradientUnits="userSpaceOnUse" id="SVGID_53_"><stop offset="0.212" stop-color="#FFFFFF"/><stop offset="0.3704" stop-color="#FBFBFB"/><stop offset="0.5324" stop-color="#EFEFEF"/><stop offset="0.696" stop-color="#DADADA"/><stop offset="0.8598" stop-color="#BEBEBE"/><stop offset="1" stop-color="#9F9F9F"/></linearGradient><g><linearGradient x1="4.5994" y1="21.0178" x2="32.4413" y2="38.8" gradientUnits="userSpaceOnUse" id="SVGID_45_" gradientTransform="matrix(1 0.0013 -0.0013 1 0.8786 0.0659)"><stop offset="0.212" stop-color="#FFFFFF"/><stop offset="0.3704" stop-color="#FBFBFB"/><stop offset="0.5324" stop-color="#EFEFEF"/><stop offset="0.696" stop-color="#DADADA"/><stop offset="0.8598" stop-color="#BEBEBE"/><stop offset="1" stop-color="#9F9F9F"/></linearGradient><defs><filter id="Adobe_OpacityMaskFilter_10_" x="7.89" y="18.32" width="7.11" height="26.67" filterUnits="userSpaceOnUse" primitiveUnits="userSpaceOnUse"><feFlood flood-color="#FFFFFF" result="back"/><feBlend in="SourceGraphic" in2="back" mode="normal"/></filter></defs><mask maskUnits="userSpaceOnUse" x="7.89" y="18.32" width="7.11" height="26.67" id="SVGID_46_"><g filter="url(#Adobe_OpacityMaskFilter_10_)"><defs><filter id="Adobe_OpacityMaskFilter_11_" x="7.89" y="18.32" width="7.11" height="26.67" filterUnits="userSpaceOnUse" primitiveUnits="userSpaceOnUse"><feFlood flood-color="#FFFFFF" result="back"/><feBlend in="SourceGraphic" in2="back" mode="normal"/></filter></defs><mask maskUnits="userSpaceOnUse" x="7.89" y="18.32" width="7.11" height="26.67" id="SVGID_46_"><g filter="url(#Adobe_OpacityMaskFilter_11_)"></g></mask><radialGradient cx="6.3654" cy="31.1236" r="17.0023" gradientUnits="userSpaceOnUse" id="SVGID_47_"><stop offset="0.151" stop-color="#FFFFFF"/><stop offset="0.2444" stop-color="#FAFAFA"/><stop offset="0.3496" stop-color="#EDEDED"/><stop offset="0.4605" stop-color="#D6D6D6"/><stop offset="0.5755" stop-color="#B7B7B7"/><stop offset="0.6936" stop-color="#8E8E8E"/><stop offset="0.8142" stop-color="#5C5C5C"/><stop offset="0.9347" stop-color="#222222"/><stop offset="1"/></radialGradient><path d="M10.17 18.57C10.17 18.57 7.48 18.82 7.94 21.11 8.4 23.4 11.34 40.67 11.34 40.67 11.34 40.67 12.2 44.58 14.54 44.94 14.54 44.94 15.25 45.24 14.9 44.28 14.54 43.31 13.68 41.94 12.77 35.64 11.85 29.34 11.45 21.92 11.45 21.92 11.45 21.92 11.45 20.4 13.53 19.63 13.53 19.63 15.36 19.02 14.8 18.56 14.24 18.12 11.45 18.37 10.17 18.57Z" fill="url(#SVGID_47_)" mask="url(#SVGID_46_)"/></g></mask><radialGradient cx="6.3654" cy="31.1236" r="17.0023" gradientUnits="userSpaceOnUse" id="SVGID_48_"><stop offset="0.151" stop-color="#F6F4D1"/><stop offset="0.253" stop-color="#F1EFCD"/><stop offset="0.368" stop-color="#E4E2C2"/><stop offset="0.4892" stop-color="#CDCCAF"/><stop offset="0.6147" stop-color="#AEAC94"/><stop offset="0.7437" stop-color="#858472"/><stop offset="0.8734" stop-color="#545449"/><stop offset="1" stop-color="#1D1D1B"/></radialGradient><g><radialGradient cx="12.8174" cy="56.2738" r="14.0916" gradientUnits="userSpaceOnUse" id="SVGID_38_"><stop offset="0" stop-color="#FFF17A"/><stop offset="0.4433" stop-color="#F8BB19"/><stop offset="0.5111" stop-color="#F7B519"/><stop offset="0.6015" stop-color="#F3A419"/><stop offset="0.7046" stop-color="#ED8818"/><stop offset="0.8172" stop-color="#E56218"/><stop offset="0.9362" stop-color="#DB3017"/><stop offset="1" stop-color="#D51317"/></radialGradient><radialGradient cx="14.8242" cy="49.1098" r="3.5585" gradientUnits="userSpaceOnUse" id="SVGID_39_"><stop offset="0" stop-color="#FFF17A"/><stop offset="0.4433" stop-color="#F8BB19"/><stop offset="0.5111" stop-color="#F7B519"/><stop offset="0.6015" stop-color="#F3A419"/><stop offset="0.7046" stop-color="#ED8818"/><stop offset="0.8172" stop-color="#E56218"/><stop offset="0.9362" stop-color="#DB3017"/><stop offset="1" stop-color="#D51317"/></radialGradient><radialGradient cx="12.8151" cy="56.2732" r="14.0939" gradientUnits="userSpaceOnUse" id="SVGID_40_"><stop offset="0" stop-color="#FFF17A"/><stop offset="0.4433" stop-color="#F8BB19"/><stop offset="0.5111" stop-color="#F7B519"/><stop offset="0.6015" stop-color="#F3A419"/><stop offset="0.7046" stop-color="#ED8818"/><stop offset="0.8172" stop-color="#E56218"/><stop offset="0.9362" stop-color="#DB3017"/><stop offset="1" stop-color="#D51317"/></radialGradient><linearGradient x1="17.7656" y1="48.7294" x2="17.7656" y2="46.0604" gradientUnits="userSpaceOnUse" id="SVGID_41_"><stop offset="0" stop-color="#FFF17A"/><stop offset="0.4433" stop-color="#F8BB19"/><stop offset="0.5111" stop-color="#F7B519"/><stop offset="0.6015" stop-color="#F3A419"/><stop offset="0.7046" stop-color="#ED8818"/><stop offset="0.8172" stop-color="#E56218"/><stop offset="0.9362" stop-color="#DB3017"/><stop offset="1" stop-color="#D51317"/></linearGradient><linearGradient x1="6.1772" y1="29.235" x2="29.7656" y2="32.5535" gradientUnits="userSpaceOnUse" id="SVGID_42_"><stop offset="0.2143" stop-color="#F6F4D1"/><stop offset="0.3571" stop-color="#F2F0CD"/><stop offset="0.5031" stop-color="#E7E4C2"/><stop offset="0.6507" stop-color="#D5CFAF"/><stop offset="0.7993" stop-color="#BCB294"/><stop offset="0.9474" stop-color="#9B8E72"/><stop offset="1" stop-color="#8E7F64"/></linearGradient><radialGradient cx="14.7356" cy="29.9041" r="23.5443" gradientUnits="userSpaceOnUse" id="SVGID_43_"><stop offset="0.2143" stop-color="#F6F4D1"/><stop offset="0.3571" stop-color="#F2F0CD"/><stop offset="0.5031" stop-color="#E7E4C2"/><stop offset="0.6507" stop-color="#D5CFAF"/><stop offset="0.7993" stop-color="#BCB294"/><stop offset="0.9474" stop-color="#9B8E72"/><stop offset="1" stop-color="#8E7F64"/></radialGradient><linearGradient x1="17.507" y1="14.3944" x2="18.5232" y2="21.3554" gradientUnits="userSpaceOnUse" id="SVGID_44_"><stop offset="0.2143" stop-color="#F6F4D1"/><stop offset="0.3114" stop-color="#E8E4C2"/><stop offset="0.7818" stop-color="#A79C7F"/><stop offset="1" stop-color="#8E7F64"/></linearGradient><path d="M18.57 50.82 16.96 50.82C14.99 50.82 13.39 50.17 13.39 49.37L13.39 46.3 13.39 46.28 13.39 46.27 13.39 46.27C13.42 45.95 15.01 45.7 16.96 45.7L18.57 45.7C20.52 45.7 22.1 45.96 22.14 46.27L22.14 46.27 22.14 46.28 22.14 46.3 22.14 49.36C22.14 50.16 20.54 50.82 18.57 50.82Z" fill="url(#SVGID_38_)"/><path d="M15.61 45.75C15.26 45.77 14.93 45.81 14.65 45.85L14.65 50.47C14.94 50.57 15.26 50.65 15.61 50.71L15.61 45.75Z" fill="url(#SVGID_39_)"/><path d="M22.14 46.28C22.11 46.01 20.93 45.78 19.35 45.72L19.35 50.78C20.95 50.64 22.14 50.06 22.14 49.36L22.14 46.28 22.14 46.28Z" fill="url(#SVGID_40_)"/><path d="M18.37 48.42C19.66 48.38 20.92 48.16 22.14 47.8L22.14 46.27 22.14 46.27C22.11 45.95 20.52 45.7 18.57 45.7L16.96 45.7C15.01 45.7 13.42 45.96 13.39 46.27L13.39 46.27 13.39 47.61C14.88 48.4 16.71 48.47 18.37 48.42Z" fill="url(#SVGID_41_)"/><path d="M20.44 14.87C15.59 14.6 10.77 15.13 6.09 16.42L10.31 41.38C10.31 41.38 10.54 47.13 15.81 47.24L19.64 47.24C24.91 47.13 25.14 41.38 25.14 41.38L29.44 15.91C29.44 15.91 29.43 15.9 29.42 15.9 26.48 15.26 23.44 15.04 20.44 14.87Z" fill="url(#SVGID_42_)"/><path d="M20.44 14.87C15.59 14.6 10.77 15.13 6.09 16.42L10.31 41.38C10.31 41.38 10.54 47.13 15.81 47.24L19.64 47.24C24.91 47.13 25.14 41.38 25.14 41.38L29.44 15.91C29.44 15.91 29.43 15.9 29.42 15.9 26.48 15.26 23.44 15.04 20.44 14.87Z" fill="url(#SVGID_43_)"/><path d="M29.1 17.93 29.44 15.91C29.44 15.91 29.43 15.9 29.42 15.9 26.47 15.27 23.43 15.04 20.44 14.87 15.59 14.6 10.77 15.13 6.09 16.42L6.39 18.18C13.81 16.37 21.76 16.49 29.1 17.93Z" fill="url(#SVGID_44_)"/></g><path d="M29.45 15.91C26.5 15.27 23.46 15.04 20.47 14.87 15.62 14.6 10.8 15.12 6.11 16.41L10.29 41.37C10.29 41.37 10.51 47.12 15.78 47.24L19.61 47.24C24.88 47.13 25.11 41.38 25.11 41.38L29.45 15.91C29.46 15.92 29.45 15.91 29.45 15.91ZM23.99 25.78C23.99 25.78 22.89 39.06 21.19 43.19 19.49 47.32 14.95 45.89 14.95 45.89 11.77 45.28 11.09 41.14 11.09 41.14 11.09 41.14 7.88 22.78 7.6 21.71 6.84 18.86 9.33 18.31 9.33 18.31 13.09 17.06 17.96 17.21 20.51 17.56 24.93 18.18 23.99 25.78 23.99 25.78Z" fill="url(#SVGID_45_)"/><path d="M10.17 18.57C10.17 18.57 7.48 18.82 7.94 21.11 8.4 23.4 11.34 40.67 11.34 40.67 11.34 40.67 12.2 44.58 14.54 44.94 14.54 44.94 15.25 45.24 14.9 44.28 14.54 43.31 13.68 41.94 12.77 35.64 11.85 29.34 11.45 21.92 11.45 21.92 11.45 21.92 11.45 20.4 13.53 19.63 13.53 19.63 15.36 19.02 14.8 18.56 14.24 18.12 11.45 18.37 10.17 18.57Z" fill="url(#SVGID_48_)"/></g><path d="M29.52 17.93 29.86 15.91C29.86 15.91 29.85 15.9 29.85 15.9 26.9 15.27 23.86 15.04 20.87 14.87 16.02 14.6 11.2 15.13 6.52 16.42L6.82 18.18C14.23 16.37 22.18 16.49 29.52 17.93Z" fill="url(#SVGID_49_)"/><g><linearGradient x1="7.321" y1="15.3633" x2="7.5242" y2="23.6935" gradientUnits="userSpaceOnUse" id="SVGID_50_"><stop offset="0.2143" stop-color="#F6F4D1"/><stop offset="0.3571" stop-color="#F2F0CD"/><stop offset="0.5031" stop-color="#E7E4C2"/><stop offset="0.6507" stop-color="#D5CFAF"/><stop offset="0.7993" stop-color="#BCB294"/><stop offset="0.9474" stop-color="#9B8E72"/><stop offset="1" stop-color="#8E7F64"/></linearGradient><linearGradient x1="18.0358" y1="15.1016" x2="18.2391" y2="23.4364" gradientUnits="userSpaceOnUse" id="SVGID_51_"><stop offset="0.2143" stop-color="#F6F4D1"/><stop offset="0.3571" stop-color="#F2F0CD"/><stop offset="0.5031" stop-color="#E7E4C2"/><stop offset="0.6507" stop-color="#D5CFAF"/><stop offset="0.7993" stop-color="#BCB294"/><stop offset="0.9474" stop-color="#9B8E72"/><stop offset="1" stop-color="#8E7F64"/></linearGradient><linearGradient x1="28.7443" y1="14.8419" x2="28.9474" y2="23.1681" gradientUnits="userSpaceOnUse" id="SVGID_52_"><stop offset="0.2143" stop-color="#F6F4D1"/><stop offset="0.3571" stop-color="#F2F0CD"/><stop offset="0.5031" stop-color="#E7E4C2"/><stop offset="0.6507" stop-color="#D5CFAF"/><stop offset="0.7993" stop-color="#BCB294"/><stop offset="0.9474" stop-color="#9B8E72"/><stop offset="1" stop-color="#8E7F64"/></linearGradient><path d="M7.24 17.53 7.02 16.75C7.02 16.75 7.19 16.7 7.53 16.62L7.72 17.41C7.4 17.48 7.24 17.52 7.24 17.53Z" fill="url(#SVGID_50_)"/><path d="M8.68 17.19 8.52 16.39C8.81 16.33 9.15 16.27 9.52 16.2L9.66 17C9.29 17.07 8.96 17.13 8.68 17.19ZM27.48 17C27.15 16.94 26.82 16.89 26.5 16.85L26.62 16.05C26.95 16.1 27.28 16.15 27.62 16.2L27.48 17ZM10.63 16.84 10.51 16.04C10.82 15.99 11.16 15.94 11.51 15.9L11.62 16.71C11.27 16.75 10.94 16.8 10.63 16.84ZM25.51 16.71C25.18 16.67 24.85 16.63 24.52 16.59L24.61 15.78C24.94 15.82 25.27 15.86 25.61 15.9L25.51 16.71ZM12.6 16.59 12.51 15.78C12.83 15.74 13.17 15.71 13.52 15.68L13.59 16.49C13.25 16.52 12.92 16.55 12.6 16.59ZM23.53 16.5C23.2 16.47 22.86 16.44 22.54 16.42L22.6 15.61C22.93 15.63 23.27 15.66 23.61 15.69L23.53 16.5ZM14.58 16.41 14.52 15.6C14.85 15.58 15.18 15.56 15.53 15.54L15.57 16.35C15.24 16.36 14.91 16.38 14.58 16.41ZM21.55 16.35C21.21 16.33 20.88 16.32 20.55 16.3L20.58 15.49C20.91 15.5 21.25 15.52 21.59 15.54L21.55 16.35ZM16.57 16.3 16.54 15.49C16.87 15.48 17.2 15.47 17.55 15.46L17.56 16.27C17.23 16.28 16.9 16.29 16.57 16.3ZM19.56 16.28C19.22 16.27 18.89 16.27 18.56 16.27L18.56 15.46C18.89 15.46 19.23 15.46 19.57 15.47L19.56 16.28Z" fill="url(#SVGID_51_)"/><path d="M28.96 17.26C28.79 17.23 28.63 17.2 28.46 17.17L28.61 16.37C28.78 16.4 28.94 16.43 29.11 16.46L28.96 17.26Z" fill="url(#SVGID_52_)"/></g><path d="M10.59 17.47C10.59 17.47 19.77 15.51 29.49 18.08 29.49 18.08 22.58 14.93 10.59 17.47Z" fill="url(#SVGID_53_)" opacity="0.6"/><g><linearGradient x1="10.3572" y1="34.4602" x2="21.0824" y2="34.4602" gradientUnits="userSpaceOnUse" id="SVGID_58_"><stop offset="0.2324" stop-color="#3DB9C6"/><stop offset="0.3891" stop-color="#3AB5C3"/><stop offset="0.5495" stop-color="#32A9BC"/><stop offset="0.7115" stop-color="#2594AF"/><stop offset="0.8737" stop-color="#12789D"/><stop offset="1" stop-color="#005C8C"/></linearGradient><g><defs><filter id="Adobe_OpacityMaskFilter_12_" x="12.02" y="21.88" width="11.51" height="11.47" filterUnits="userSpaceOnUse" primitiveUnits="userSpaceOnUse"><feFlood flood-color="#FFFFFF" result="back"/><feBlend in="SourceGraphic" in2="back" mode="normal"/></filter></defs><mask maskUnits="userSpaceOnUse" x="12.02" y="21.88" width="11.51" height="11.47" id="SVGID_54_"><g filter="url(#Adobe_OpacityMaskFilter_12_)"><defs><filter id="Adobe_OpacityMaskFilter_13_" x="12.02" y="21.88" width="11.51" height="11.47" filterUnits="userSpaceOnUse" primitiveUnits="userSpaceOnUse"><feFlood flood-color="#FFFFFF" result="back"/><feBlend in="SourceGraphic" in2="back" mode="normal"/></filter></defs><mask maskUnits="userSpaceOnUse" x="12.02" y="21.88" width="11.51" height="11.47" id="SVGID_54_"><g filter="url(#Adobe_OpacityMaskFilter_13_)"></g></mask><radialGradient cx="17.7754" cy="27.613" r="5.7461" gradientUnits="userSpaceOnUse" id="SVGID_55_"><stop offset="0.7276" stop-color="#FFFFFF"/><stop offset="1"/></radialGradient><path d="M21.17 27.9C21.17 27.97 21.43 28.04 22.34 28.26 22.8 28.37 23.38 28.5 23.46 28.56 23.45 28.56 23.41 28.57 23.33 28.57 23.11 28.57 22.7 28.53 22.29 28.49 21.89 28.45 21.47 28.41 21.26 28.41 21.12 28.41 21.09 28.43 21.09 28.45 21.07 28.52 21.32 28.63 22.18 28.99 22.62 29.17 23.17 29.4 23.23 29.48 23.23 29.48 23.22 29.48 23.21 29.48 23.06 29.48 22.57 29.35 22.09 29.22 21.59 29.08 21.12 28.96 20.97 28.96 20.95 28.96 20.92 28.96 20.91 28.98 20.88 29.05 21.11 29.2 21.89 29.7 22.3 29.96 22.8 30.27 22.85 30.36 22.74 30.36 22.25 30.13 21.77 29.91 21.27 29.68 20.79 29.46 20.68 29.46 20.66 29.46 20.65 29.47 20.64 29.48 20.6 29.54 20.8 29.73 21.49 30.35 21.85 30.67 22.29 31.06 22.33 31.16 22.23 31.14 21.76 30.83 21.34 30.54 20.77 30.15 20.41 29.92 20.32 29.92 20.31 29.92 20.3 29.92 20.29 29.93 20.24 29.98 20.4 30.2 20.99 30.93 21.29 31.3 21.66 31.77 21.69 31.86 21.6 31.83 21.17 31.42 20.82 31.09 20.31 30.6 19.99 30.31 19.91 30.31 19.9 30.31 19.89 30.31 19.89 30.32 19.83 30.36 19.96 30.61 20.41 31.41 20.65 31.83 20.94 32.35 20.95 32.45 20.86 32.41 20.51 31.93 20.22 31.55 19.75 30.92 19.52 30.63 19.44 30.63 19.44 30.63 19.43 30.63 19.42 30.63 19.36 30.66 19.44 30.92 19.76 31.79 19.92 32.24 20.13 32.8 20.12 32.9 20.04 32.84 19.77 32.32 19.55 31.89 19.17 31.17 19 30.85 18.93 30.85L18.92 30.85C18.85 30.87 18.89 31.14 19.06 32.05 19.15 32.53 19.25 33.11 19.23 33.2 19.16 33.13 18.98 32.57 18.83 32.11 18.55 31.25 18.45 30.98 18.38 30.98L18.38 30.98C18.31 30.99 18.3 31.26 18.32 32.18 18.33 32.67 18.34 33.26 18.29 33.35 18.24 33.27 18.15 32.69 18.08 32.22 17.94 31.3 17.89 31.03 17.82 31.03 17.75 31.03 17.7 31.3 17.56 32.22 17.49 32.69 17.4 33.28 17.35 33.35 17.31 33.26 17.32 32.67 17.32 32.18 17.33 31.26 17.33 30.99 17.26 30.98L17.25 30.98C17.18 30.98 17.08 31.25 16.8 32.11 16.65 32.57 16.47 33.13 16.4 33.2 16.37 33.11 16.48 32.52 16.57 32.05 16.74 31.14 16.78 30.87 16.71 30.85L16.7 30.85C16.63 30.85 16.46 31.17 16.08 31.89 15.86 32.32 15.58 32.85 15.51 32.9 15.5 32.81 15.7 32.24 15.87 31.79 16.19 30.92 16.27 30.66 16.21 30.63 16.21 30.63 16.2 30.63 16.19 30.63 16.11 30.63 15.89 30.93 15.41 31.55 15.12 31.93 14.76 32.41 14.68 32.45 14.68 32.35 14.98 31.83 15.21 31.41 15.67 30.6 15.79 30.36 15.73 30.32 15.73 30.32 15.72 30.31 15.71 30.31 15.63 30.31 15.31 30.61 14.8 31.09 14.45 31.42 14.02 31.83 13.93 31.86 13.95 31.77 14.32 31.3 14.63 30.93 15.21 30.21 15.37 29.99 15.33 29.93 15.33 29.93 15.32 29.92 15.3 29.92 15.21 29.92 14.85 30.16 14.28 30.54 13.87 30.82 13.4 31.14 13.29 31.16 13.33 31.07 13.77 30.68 14.13 30.36 14.82 29.74 15.02 29.55 14.98 29.49 14.97 29.48 14.96 29.47 14.94 29.47 14.82 29.47 14.35 29.69 13.85 29.92 13.37 30.14 12.88 30.36 12.77 30.37 12.82 30.29 13.32 29.97 13.73 29.72 14.52 29.22 14.74 29.07 14.71 29 14.7 28.98 14.67 28.98 14.65 28.98 14.5 28.98 14.03 29.11 13.53 29.24 13.05 29.37 12.56 29.5 12.41 29.5 12.4 29.5 12.39 29.5 12.39 29.5 12.46 29.43 13 29.2 13.44 29.01 14.3 28.65 14.55 28.53 14.53 28.47 14.52 28.44 14.49 28.43 14.35 28.43 14.14 28.43 13.72 28.47 13.32 28.51 12.92 28.55 12.5 28.59 12.28 28.59 12.2 28.59 12.16 28.58 12.15 28.58 12.23 28.52 12.8 28.38 13.26 28.27 14.17 28.06 14.43 27.98 14.43 27.91 14.42 27.84 14.16 27.81 13.23 27.75 12.75 27.72 12.15 27.68 12.07 27.63 12.15 27.58 12.75 27.54 13.23 27.51 14.15 27.45 14.42 27.42 14.43 27.35 14.43 27.28 14.17 27.21 13.26 26.99 12.8 26.88 12.22 26.75 12.15 26.69 12.16 26.69 12.2 26.68 12.28 26.68 12.5 26.68 12.91 26.72 13.32 26.76 13.72 26.8 14.14 26.84 14.35 26.84 14.49 26.84 14.52 26.82 14.53 26.8 14.55 26.73 14.3 26.62 13.44 26.26 13 26.07 12.45 25.85 12.39 25.77 12.4 25.77 12.4 25.77 12.41 25.77 12.56 25.77 13.05 25.9 13.53 26.03 14.03 26.17 14.5 26.29 14.65 26.29 14.67 26.29 14.71 26.29 14.71 26.26 14.74 26.19 14.51 26.04 13.73 25.54 13.32 25.28 12.82 24.97 12.77 24.88 12.88 24.88 13.37 25.11 13.84 25.33 14.34 25.56 14.82 25.78 14.93 25.78 14.95 25.78 14.96 25.77 14.97 25.76 15.01 25.7 14.81 25.51 14.12 24.89 13.76 24.57 13.32 24.18 13.28 24.08 13.38 24.1 13.85 24.41 14.27 24.7 14.84 25.09 15.2 25.32 15.29 25.32 15.3 25.32 15.31 25.32 15.32 25.31 15.37 25.26 15.21 25.04 14.62 24.32 14.32 23.94 13.94 23.48 13.92 23.39 14.01 23.42 14.44 23.83 14.79 24.16 15.3 24.65 15.62 24.94 15.7 24.94 15.71 24.94 15.72 24.94 15.72 24.93 15.77 24.89 15.65 24.64 15.2 23.84 14.96 23.42 14.67 22.9 14.67 22.8 14.76 22.84 15.11 23.32 15.4 23.7 15.87 24.33 16.1 24.62 16.18 24.62 16.19 24.62 16.19 24.62 16.2 24.62 16.26 24.59 16.18 24.33 15.86 23.46 15.7 23.01 15.49 22.45 15.5 22.35 15.58 22.41 15.85 22.93 16.07 23.36 16.45 24.08 16.62 24.4 16.69 24.4L16.7 24.4C16.77 24.38 16.73 24.11 16.56 23.2 16.47 22.72 16.36 22.14 16.39 22.04 16.46 22.11 16.64 22.67 16.79 23.13 17.07 23.99 17.17 24.26 17.24 24.26L17.25 24.26C17.32 24.25 17.33 23.98 17.31 23.05 17.3 22.57 17.29 21.97 17.34 21.88 17.39 21.96 17.48 22.54 17.55 23.02 17.69 23.94 17.74 24.21 17.81 24.21 17.88 24.21 17.93 23.94 18.07 23.02 18.14 22.55 18.23 21.96 18.28 21.88 18.32 21.97 18.31 22.57 18.31 23.05 18.29 23.97 18.3 24.24 18.37 24.25L18.37 24.25C18.44 24.25 18.54 23.98 18.82 23.12 18.97 22.66 19.15 22.1 19.22 22.03 19.25 22.12 19.14 22.71 19.05 23.19 18.88 24.1 18.84 24.37 18.91 24.39L18.92 24.39C18.99 24.39 19.17 24.07 19.54 23.35 19.76 22.92 20.04 22.39 20.11 22.34 20.12 22.43 19.92 23 19.75 23.45 19.43 24.32 19.35 24.58 19.41 24.61 19.41 24.61 19.42 24.61 19.42 24.61 19.5 24.61 19.73 24.31 20.21 23.69 20.5 23.31 20.86 22.83 20.94 22.79 20.94 22.89 20.64 23.41 20.4 23.83 19.95 24.64 19.82 24.88 19.88 24.92 19.88 24.92 19.89 24.93 19.9 24.93 19.98 24.93 20.3 24.64 20.81 24.15 21.16 23.82 21.59 23.41 21.68 23.38 21.66 23.47 21.29 23.94 20.98 24.31 20.4 25.03 20.24 25.25 20.28 25.31 20.28 25.31 20.29 25.32 20.31 25.32 20.4 25.32 20.76 25.08 21.33 24.7 21.74 24.42 22.21 24.1 22.32 24.08 22.28 24.17 21.84 24.56 21.48 24.88 20.79 25.5 20.59 25.69 20.63 25.75 20.64 25.76 20.65 25.77 20.67 25.77 20.79 25.77 21.26 25.55 21.76 25.32 22.23 25.1 22.73 24.88 22.84 24.87 22.79 24.95 22.29 25.27 21.88 25.53 21.09 26.03 20.87 26.18 20.9 26.25 20.91 26.27 20.94 26.28 20.96 26.28 21.11 26.28 21.58 26.15 22.08 26.02 22.56 25.89 23.05 25.76 23.2 25.76 23.21 25.76 23.21 25.76 23.21 25.76 23.15 25.83 22.6 26.06 22.16 26.25 21.3 26.61 21.05 26.73 21.07 26.8 21.08 26.83 21.11 26.84 21.24 26.84 21.46 26.84 21.87 26.8 22.27 26.76 22.67 26.72 23.09 26.68 23.31 26.68 23.39 26.68 23.43 26.69 23.44 26.69 23.36 26.75 22.79 26.89 22.32 26.99 21.41 27.2 21.15 27.28 21.15 27.35 21.16 27.42 21.42 27.45 22.35 27.51 22.84 27.54 23.44 27.58 23.52 27.63 23.44 27.68 22.84 27.72 22.35 27.75 21.45 27.8 21.18 27.83 21.17 27.9Z" fill="url(#SVGID_55_)" mask="url(#SVGID_54_)"/></g></mask><radialGradient cx="17.7754" cy="27.613" r="5.7461" gradientUnits="userSpaceOnUse" id="SVGID_56_"><stop offset="0.7276" stop-color="#F8BB19"/><stop offset="1" stop-color="#FFF17A"/></radialGradient><path d="M21.17 27.9C21.17 27.97 21.43 28.04 22.34 28.26 22.8 28.37 23.38 28.5 23.46 28.56 23.45 28.56 23.41 28.57 23.33 28.57 23.11 28.57 22.7 28.53 22.29 28.49 21.89 28.45 21.47 28.41 21.26 28.41 21.12 28.41 21.09 28.43 21.09 28.45 21.07 28.52 21.32 28.63 22.18 28.99 22.62 29.17 23.17 29.4 23.23 29.48 23.23 29.48 23.22 29.48 23.21 29.48 23.06 29.48 22.57 29.35 22.09 29.22 21.59 29.08 21.12 28.96 20.97 28.96 20.95 28.96 20.92 28.96 20.91 28.98 20.88 29.05 21.11 29.2 21.89 29.7 22.3 29.96 22.8 30.27 22.85 30.36 22.74 30.36 22.25 30.13 21.77 29.91 21.27 29.68 20.79 29.46 20.68 29.46 20.66 29.46 20.65 29.47 20.64 29.48 20.6 29.54 20.8 29.73 21.49 30.35 21.85 30.67 22.29 31.06 22.33 31.16 22.23 31.14 21.76 30.83 21.34 30.54 20.77 30.15 20.41 29.92 20.32 29.92 20.31 29.92 20.3 29.92 20.29 29.93 20.24 29.98 20.4 30.2 20.99 30.93 21.29 31.3 21.66 31.77 21.69 31.86 21.6 31.83 21.17 31.42 20.82 31.09 20.31 30.6 19.99 30.31 19.91 30.31 19.9 30.31 19.89 30.31 19.89 30.32 19.83 30.36 19.96 30.61 20.41 31.41 20.65 31.83 20.94 32.35 20.95 32.45 20.86 32.41 20.51 31.93 20.22 31.55 19.75 30.92 19.52 30.63 19.44 30.63 19.44 30.63 19.43 30.63 19.42 30.63 19.36 30.66 19.44 30.92 19.76 31.79 19.92 32.24 20.13 32.8 20.12 32.9 20.04 32.84 19.77 32.32 19.55 31.89 19.17 31.17 19 30.85 18.93 30.85L18.92 30.85C18.85 30.87 18.89 31.14 19.06 32.05 19.15 32.53 19.25 33.11 19.23 33.2 19.16 33.13 18.98 32.57 18.83 32.11 18.55 31.25 18.45 30.98 18.38 30.98L18.38 30.98C18.31 30.99 18.3 31.26 18.32 32.18 18.33 32.67 18.34 33.26 18.29 33.35 18.24 33.27 18.15 32.69 18.08 32.22 17.94 31.3 17.89 31.03 17.82 31.03 17.75 31.03 17.7 31.3 17.56 32.22 17.49 32.69 17.4 33.28 17.35 33.35 17.31 33.26 17.32 32.67 17.32 32.18 17.33 31.26 17.33 30.99 17.26 30.98L17.25 30.98C17.18 30.98 17.08 31.25 16.8 32.11 16.65 32.57 16.47 33.13 16.4 33.2 16.37 33.11 16.48 32.52 16.57 32.05 16.74 31.14 16.78 30.87 16.71 30.85L16.7 30.85C16.63 30.85 16.46 31.17 16.08 31.89 15.86 32.32 15.58 32.85 15.51 32.9 15.5 32.81 15.7 32.24 15.87 31.79 16.19 30.92 16.27 30.66 16.21 30.63 16.21 30.63 16.2 30.63 16.19 30.63 16.11 30.63 15.89 30.93 15.41 31.55 15.12 31.93 14.76 32.41 14.68 32.45 14.68 32.35 14.98 31.83 15.21 31.41 15.67 30.6 15.79 30.36 15.73 30.32 15.73 30.32 15.72 30.31 15.71 30.31 15.63 30.31 15.31 30.61 14.8 31.09 14.45 31.42 14.02 31.83 13.93 31.86 13.95 31.77 14.32 31.3 14.63 30.93 15.21 30.21 15.37 29.99 15.33 29.93 15.33 29.93 15.32 29.92 15.3 29.92 15.21 29.92 14.85 30.16 14.28 30.54 13.87 30.82 13.4 31.14 13.29 31.16 13.33 31.07 13.77 30.68 14.13 30.36 14.82 29.74 15.02 29.55 14.98 29.49 14.97 29.48 14.96 29.47 14.94 29.47 14.82 29.47 14.35 29.69 13.85 29.92 13.37 30.14 12.88 30.36 12.77 30.37 12.82 30.29 13.32 29.97 13.73 29.72 14.52 29.22 14.74 29.07 14.71 29 14.7 28.98 14.67 28.98 14.65 28.98 14.5 28.98 14.03 29.11 13.53 29.24 13.05 29.37 12.56 29.5 12.41 29.5 12.4 29.5 12.39 29.5 12.39 29.5 12.46 29.43 13 29.2 13.44 29.01 14.3 28.65 14.55 28.53 14.53 28.47 14.52 28.44 14.49 28.43 14.35 28.43 14.14 28.43 13.72 28.47 13.32 28.51 12.92 28.55 12.5 28.59 12.28 28.59 12.2 28.59 12.16 28.58 12.15 28.58 12.23 28.52 12.8 28.38 13.26 28.27 14.17 28.06 14.43 27.98 14.43 27.91 14.42 27.84 14.16 27.81 13.23 27.75 12.75 27.72 12.15 27.68 12.07 27.63 12.15 27.58 12.75 27.54 13.23 27.51 14.15 27.45 14.42 27.42 14.43 27.35 14.43 27.28 14.17 27.21 13.26 26.99 12.8 26.88 12.22 26.75 12.15 26.69 12.16 26.69 12.2 26.68 12.28 26.68 12.5 26.68 12.91 26.72 13.32 26.76 13.72 26.8 14.14 26.84 14.35 26.84 14.49 26.84 14.52 26.82 14.53 26.8 14.55 26.73 14.3 26.62 13.44 26.26 13 26.07 12.45 25.85 12.39 25.77 12.4 25.77 12.4 25.77 12.41 25.77 12.56 25.77 13.05 25.9 13.53 26.03 14.03 26.17 14.5 26.29 14.65 26.29 14.67 26.29 14.71 26.29 14.71 26.26 14.74 26.19 14.51 26.04 13.73 25.54 13.32 25.28 12.82 24.97 12.77 24.88 12.88 24.88 13.37 25.11 13.84 25.33 14.34 25.56 14.82 25.78 14.93 25.78 14.95 25.78 14.96 25.77 14.97 25.76 15.01 25.7 14.81 25.51 14.12 24.89 13.76 24.57 13.32 24.18 13.28 24.08 13.38 24.1 13.85 24.41 14.27 24.7 14.84 25.09 15.2 25.32 15.29 25.32 15.3 25.32 15.31 25.32 15.32 25.31 15.37 25.26 15.21 25.04 14.62 24.32 14.32 23.94 13.94 23.48 13.92 23.39 14.01 23.42 14.44 23.83 14.79 24.16 15.3 24.65 15.62 24.94 15.7 24.94 15.71 24.94 15.72 24.94 15.72 24.93 15.77 24.89 15.65 24.64 15.2 23.84 14.96 23.42 14.67 22.9 14.67 22.8 14.76 22.84 15.11 23.32 15.4 23.7 15.87 24.33 16.1 24.62 16.18 24.62 16.19 24.62 16.19 24.62 16.2 24.62 16.26 24.59 16.18 24.33 15.86 23.46 15.7 23.01 15.49 22.45 15.5 22.35 15.58 22.41 15.85 22.93 16.07 23.36 16.45 24.08 16.62 24.4 16.69 24.4L16.7 24.4C16.77 24.38 16.73 24.11 16.56 23.2 16.47 22.72 16.36 22.14 16.39 22.04 16.46 22.11 16.64 22.67 16.79 23.13 17.07 23.99 17.17 24.26 17.24 24.26L17.25 24.26C17.32 24.25 17.33 23.98 17.31 23.05 17.3 22.57 17.29 21.97 17.34 21.88 17.39 21.96 17.48 22.54 17.55 23.02 17.69 23.94 17.74 24.21 17.81 24.21 17.88 24.21 17.93 23.94 18.07 23.02 18.14 22.55 18.23 21.96 18.28 21.88 18.32 21.97 18.31 22.57 18.31 23.05 18.29 23.97 18.3 24.24 18.37 24.25L18.37 24.25C18.44 24.25 18.54 23.98 18.82 23.12 18.97 22.66 19.15 22.1 19.22 22.03 19.25 22.12 19.14 22.71 19.05 23.19 18.88 24.1 18.84 24.37 18.91 24.39L18.92 24.39C18.99 24.39 19.17 24.07 19.54 23.35 19.76 22.92 20.04 22.39 20.11 22.34 20.12 22.43 19.92 23 19.75 23.45 19.43 24.32 19.35 24.58 19.41 24.61 19.41 24.61 19.42 24.61 19.42 24.61 19.5 24.61 19.73 24.31 20.21 23.69 20.5 23.31 20.86 22.83 20.94 22.79 20.94 22.89 20.64 23.41 20.4 23.83 19.95 24.64 19.82 24.88 19.88 24.92 19.88 24.92 19.89 24.93 19.9 24.93 19.98 24.93 20.3 24.64 20.81 24.15 21.16 23.82 21.59 23.41 21.68 23.38 21.66 23.47 21.29 23.94 20.98 24.31 20.4 25.03 20.24 25.25 20.28 25.31 20.28 25.31 20.29 25.32 20.31 25.32 20.4 25.32 20.76 25.08 21.33 24.7 21.74 24.42 22.21 24.1 22.32 24.08 22.28 24.17 21.84 24.56 21.48 24.88 20.79 25.5 20.59 25.69 20.63 25.75 20.64 25.76 20.65 25.77 20.67 25.77 20.79 25.77 21.26 25.55 21.76 25.32 22.23 25.1 22.73 24.88 22.84 24.87 22.79 24.95 22.29 25.27 21.88 25.53 21.09 26.03 20.87 26.18 20.9 26.25 20.91 26.27 20.94 26.28 20.96 26.28 21.11 26.28 21.58 26.15 22.08 26.02 22.56 25.89 23.05 25.76 23.2 25.76 23.21 25.76 23.21 25.76 23.21 25.76 23.15 25.83 22.6 26.06 22.16 26.25 21.3 26.61 21.05 26.73 21.07 26.8 21.08 26.83 21.11 26.84 21.24 26.84 21.46 26.84 21.87 26.8 22.27 26.76 22.67 26.72 23.09 26.68 23.31 26.68 23.39 26.68 23.43 26.69 23.44 26.69 23.36 26.75 22.79 26.89 22.32 26.99 21.41 27.2 21.15 27.28 21.15 27.35 21.16 27.42 21.42 27.45 22.35 27.51 22.84 27.54 23.44 27.58 23.52 27.63 23.44 27.68 22.84 27.72 22.35 27.75 21.45 27.8 21.18 27.83 21.17 27.9Z" fill="url(#SVGID_56_)"/><g><radialGradient cx="16.4821" cy="26.5125" r="6.3939" gradientUnits="userSpaceOnUse" id="SVGID_57_"><stop offset="0" stop-color="#FFF17A"/><stop offset="0.4433" stop-color="#F8BB19"/><stop offset="0.5111" stop-color="#F7B519"/><stop offset="0.6015" stop-color="#F3A419"/><stop offset="0.7046" stop-color="#ED8818"/><stop offset="0.8172" stop-color="#E56218"/><stop offset="0.9362" stop-color="#DB3017"/><stop offset="1" stop-color="#D51317"/></radialGradient><path d="M21.54 27.61C21.54 29.69 19.85 31.37 17.77 31.37 15.69 31.37 14.01 29.69 14.01 27.61 14.01 25.53 15.69 23.84 17.77 23.84 19.85 23.84 21.54 25.53 21.54 27.61Z" fill="url(#SVGID_57_)"/></g></g><rect x="12.49" y="33.49" width="10.57" height="1.93" fill="url(#SVGID_58_)"/><g><linearGradient x1="10.382" y1="36.5888" x2="21.1031" y2="36.5888" gradientUnits="userSpaceOnUse" id="SVGID_59_"><stop offset="0.2324" stop-color="#3DB9C6"/><stop offset="0.3891" stop-color="#3AB5C3"/><stop offset="0.5495" stop-color="#32A9BC"/><stop offset="0.7115" stop-color="#2594AF"/><stop offset="0.8737" stop-color="#12789D"/><stop offset="1" stop-color="#005C8C"/></linearGradient><linearGradient x1="10.38" y1="36.5888" x2="21.1056" y2="36.5888" gradientUnits="userSpaceOnUse" id="SVGID_60_"><stop offset="0.2324" stop-color="#3DB9C6"/><stop offset="0.3891" stop-color="#3AB5C3"/><stop offset="0.5495" stop-color="#32A9BC"/><stop offset="0.7115" stop-color="#2594AF"/><stop offset="0.8737" stop-color="#12789D"/><stop offset="1" stop-color="#005C8C"/></linearGradient><linearGradient x1="10.3808" y1="36.5888" x2="21.1045" y2="36.5888" gradientUnits="userSpaceOnUse" id="SVGID_61_"><stop offset="0.2324" stop-color="#3DB9C6"/><stop offset="0.3891" stop-color="#3AB5C3"/><stop offset="0.5495" stop-color="#32A9BC"/><stop offset="0.7115" stop-color="#2594AF"/><stop offset="0.8737" stop-color="#12789D"/><stop offset="1" stop-color="#005C8C"/></linearGradient><linearGradient x1="10.3816" y1="36.6003" x2="21.1047" y2="36.6003" gradientUnits="userSpaceOnUse" id="SVGID_62_"><stop offset="0.2324" stop-color="#3DB9C6"/><stop offset="0.3891" stop-color="#3AB5C3"/><stop offset="0.5495" stop-color="#32A9BC"/><stop offset="0.7115" stop-color="#2594AF"/><stop offset="0.8737" stop-color="#12789D"/><stop offset="1" stop-color="#005C8C"/></linearGradient><linearGradient x1="10.3693" y1="36.5888" x2="21.1111" y2="36.5888" gradientUnits="userSpaceOnUse" id="SVGID_63_"><stop offset="0.2324" stop-color="#3DB9C6"/><stop offset="0.3891" stop-color="#3AB5C3"/><stop offset="0.5495" stop-color="#32A9BC"/><stop offset="0.7115" stop-color="#2594AF"/><stop offset="0.8737" stop-color="#12789D"/><stop offset="1" stop-color="#005C8C"/></linearGradient><linearGradient x1="10.3571" y1="36.5888" x2="21.1132" y2="36.5888" gradientUnits="userSpaceOnUse" id="SVGID_64_"><stop offset="0.2324" stop-color="#3DB9C6"/><stop offset="0.3891" stop-color="#3AB5C3"/><stop offset="0.5495" stop-color="#32A9BC"/><stop offset="0.7115" stop-color="#2594AF"/><stop offset="0.8737" stop-color="#12789D"/><stop offset="1" stop-color="#005C8C"/></linearGradient><linearGradient x1="10.3825" y1="36.5888" x2="21.1051" y2="36.5888" gradientUnits="userSpaceOnUse" id="SVGID_65_"><stop offset="0.2324" stop-color="#3DB9C6"/><stop offset="0.3891" stop-color="#3AB5C3"/><stop offset="0.5495" stop-color="#32A9BC"/><stop offset="0.7115" stop-color="#2594AF"/><stop offset="0.8737" stop-color="#12789D"/><stop offset="1" stop-color="#005C8C"/></linearGradient><linearGradient x1="10.3799" y1="36.5891" x2="21.1058" y2="36.5891" gradientUnits="userSpaceOnUse" id="SVGID_66_"><stop offset="0.2324" stop-color="#3DB9C6"/><stop offset="0.3891" stop-color="#3AB5C3"/><stop offset="0.5495" stop-color="#32A9BC"/><stop offset="0.7115" stop-color="#2594AF"/><stop offset="0.8737" stop-color="#12789D"/><stop offset="1" stop-color="#005C8C"/></linearGradient><linearGradient x1="10.3796" y1="36.5891" x2="21.1055" y2="36.5891" gradientUnits="userSpaceOnUse" id="SVGID_67_"><stop offset="0.2324" stop-color="#3DB9C6"/><stop offset="0.3891" stop-color="#3AB5C3"/><stop offset="0.5495" stop-color="#32A9BC"/><stop offset="0.7115" stop-color="#2594AF"/><stop offset="0.8737" stop-color="#12789D"/><stop offset="1" stop-color="#005C8C"/></linearGradient><linearGradient x1="10.3794" y1="36.5891" x2="21.1053" y2="36.5891" gradientUnits="userSpaceOnUse" id="SVGID_68_"><stop offset="0.2324" stop-color="#3DB9C6"/><stop offset="0.3891" stop-color="#3AB5C3"/><stop offset="0.5495" stop-color="#32A9BC"/><stop offset="0.7115" stop-color="#2594AF"/><stop offset="0.8737" stop-color="#12789D"/><stop offset="1" stop-color="#005C8C"/></linearGradient><path d="M14.42 36.35 14.13 36.35 14.13 36.26C14.13 36.22 14.13 36.19 14.12 36.18 14.11 36.17 14.1 36.16 14.08 36.16 14.06 36.16 14.05 36.17 14.04 36.18 14.03 36.2 14.03 36.22 14.03 36.25 14.03 36.29 14.03 36.32 14.05 36.34 14.06 36.36 14.09 36.38 14.14 36.41 14.28 36.49 14.36 36.56 14.4 36.61 14.44 36.66 14.45 36.75 14.45 36.86 14.45 36.94 14.44 37.01 14.42 37.05 14.4 37.09 14.36 37.12 14.3 37.15 14.24 37.18 14.18 37.19 14.1 37.19 14.02 37.19 13.95 37.17 13.89 37.14 13.83 37.11 13.79 37.07 13.78 37.02 13.76 36.97 13.75 36.9 13.75 36.81L13.75 36.73 14.04 36.73 14.04 36.87C14.04 36.91 14.04 36.94 14.05 36.96 14.06 36.97 14.07 36.98 14.09 36.98 14.11 36.98 14.13 36.97 14.14 36.96 14.15 36.94 14.15 36.92 14.15 36.89 14.15 36.82 14.14 36.77 14.12 36.75 14.1 36.73 14.05 36.69 13.98 36.64 13.9 36.59 13.85 36.55 13.83 36.53 13.81 36.51 13.79 36.47 13.77 36.43 13.75 36.39 13.74 36.34 13.74 36.27 13.74 36.18 13.75 36.11 13.78 36.07 13.8 36.03 13.84 36 13.89 35.97 13.94 35.95 14 35.93 14.08 35.93 14.16 35.93 14.23 35.94 14.28 35.97 14.34 36 14.37 36.03 14.39 36.07 14.41 36.11 14.42 36.18 14.42 36.27L14.42 36.35Z" fill="url(#SVGID_59_)"/><path d="M14.54 35.99 14.85 35.99C14.93 35.99 15 36 15.04 36.01 15.08 36.02 15.12 36.04 15.14 36.07 15.16 36.1 15.18 36.13 15.18 36.16 15.19 36.2 15.19 36.25 15.19 36.33L15.19 36.43C15.19 36.51 15.18 36.56 15.17 36.6 15.15 36.64 15.13 36.66 15.08 36.68 15.04 36.7 14.98 36.71 14.92 36.71L14.84 36.71 14.84 37.19 14.53 37.19 14.53 35.99ZM14.85 36.2 14.85 36.5C14.86 36.5 14.87 36.5 14.87 36.5 14.9 36.5 14.92 36.49 14.93 36.48 14.94 36.47 14.95 36.44 14.95 36.39L14.95 36.29C14.95 36.25 14.95 36.22 14.93 36.21 14.91 36.2 14.89 36.2 14.85 36.2Z" fill="url(#SVGID_60_)"/><path d="M15.29 35.99 15.81 35.99 15.81 36.23 15.6 36.23 15.6 36.46 15.79 36.46 15.79 36.69 15.6 36.69 15.6 37.19 15.29 37.19 15.29 35.99Z" fill="url(#SVGID_61_)"/><path d="M16.79 35.99 16.79 36.18 16.42 36.18 16.42 36.38C16.46 36.33 16.52 36.3 16.6 36.3 16.68 36.3 16.74 36.32 16.79 36.37 16.83 36.42 16.85 36.5 16.85 36.63L16.85 36.8C16.85 36.88 16.85 36.95 16.84 36.99 16.83 37.03 16.82 37.07 16.79 37.1 16.76 37.13 16.73 37.16 16.68 37.18 16.63 37.2 16.58 37.21 16.51 37.21 16.43 37.21 16.37 37.2 16.31 37.17 16.25 37.14 16.21 37.1 16.19 37.05 16.17 37 16.15 36.92 16.15 36.8L16.15 36.74 16.45 36.74 16.45 36.81C16.45 36.89 16.45 36.94 16.46 36.97 16.46 37 16.48 37.02 16.52 37.02 16.53 37.02 16.55 37.02 16.56 37.01 16.57 37 16.57 36.99 16.57 36.98 16.57 36.97 16.57 36.92 16.57 36.84L16.57 36.6C16.57 36.56 16.57 36.53 16.56 36.51 16.55 36.49 16.53 36.49 16.51 36.49 16.5 36.49 16.48 36.49 16.47 36.5 16.46 36.51 16.45 36.52 16.45 36.53 16.45 36.54 16.45 36.56 16.45 36.6L16.16 36.6 16.17 36 16.79 36Z" fill="url(#SVGID_62_)"/><path d="M17.66 36.4 17.66 36.8C17.66 36.89 17.65 36.96 17.65 37 17.64 37.04 17.62 37.08 17.59 37.11 17.56 37.15 17.52 37.17 17.48 37.19 17.44 37.21 17.39 37.21 17.33 37.21 17.26 37.21 17.2 37.2 17.15 37.19 17.1 37.17 17.06 37.15 17.04 37.11 17.01 37.08 16.99 37.04 16.98 37 16.97 36.96 16.96 36.9 16.96 36.82L16.96 36.4C16.96 36.29 16.97 36.21 16.99 36.15 17.01 36.1 17.05 36.05 17.1 36.02 17.16 35.99 17.23 35.97 17.31 35.97 17.37 35.97 17.43 35.98 17.48 36 17.53 36.02 17.57 36.05 17.6 36.08 17.63 36.11 17.64 36.15 17.65 36.19 17.65 36.24 17.66 36.31 17.66 36.4ZM17.36 36.3C17.36 36.24 17.36 36.2 17.35 36.18 17.34 36.16 17.33 36.16 17.31 36.16 17.29 36.16 17.27 36.17 17.27 36.19 17.26 36.21 17.26 36.25 17.26 36.31L17.26 36.89C17.26 36.96 17.26 37 17.27 37.02 17.28 37.03 17.29 37.04 17.31 37.04 17.33 37.04 17.35 37.03 17.35 37.02 17.36 37 17.36 36.97 17.36 36.91L17.36 36.3Z" fill="url(#SVGID_63_)"/><path d="M18.04 35.99 18.35 35.99C18.43 35.99 18.5 36 18.54 36.01 18.59 36.02 18.62 36.04 18.64 36.07 18.66 36.1 18.68 36.13 18.69 36.16 18.7 36.2 18.7 36.25 18.7 36.33L18.7 36.43C18.7 36.51 18.69 36.56 18.68 36.6 18.66 36.64 18.63 36.66 18.59 36.68 18.55 36.7 18.49 36.71 18.42 36.71L18.34 36.71 18.34 37.19 18.03 37.19 18.03 35.99ZM18.35 36.2 18.35 36.5C18.36 36.5 18.37 36.5 18.37 36.5 18.4 36.5 18.42 36.49 18.43 36.48 18.44 36.47 18.45 36.44 18.45 36.39L18.45 36.29C18.45 36.25 18.44 36.22 18.43 36.21 18.41 36.2 18.39 36.2 18.35 36.2Z" fill="url(#SVGID_64_)"/><path d="M19.29 35.99 19.47 37.18 19.16 37.18 19.14 36.97 19.03 36.97 19 37.18 18.68 37.18 18.84 35.99 19.29 35.99ZM19.12 36.76C19.1 36.63 19.09 36.46 19.07 36.26 19.04 36.49 19.02 36.65 19.01 36.76L19.12 36.76Z" fill="url(#SVGID_65_)"/><path d="M19.5 36.5 19.76 36.5 19.76 36.23 19.94 36.23 19.94 36.5 20.21 36.5 20.21 36.68 19.94 36.68 19.94 36.94 19.76 36.94 19.76 36.68 19.5 36.68 19.5 36.5Z" fill="url(#SVGID_66_)"/><path d="M20.3 36.5 20.56 36.5 20.56 36.23 20.74 36.23 20.74 36.5 21 36.5 21 36.68 20.74 36.68 20.74 36.94 20.56 36.94 20.56 36.68 20.3 36.68 20.3 36.5Z" fill="url(#SVGID_67_)"/><path d="M21.11 36.5 21.37 36.5 21.37 36.23 21.55 36.23 21.55 36.5 21.82 36.5 21.82 36.68 21.55 36.68 21.55 36.94 21.37 36.94 21.37 36.68 21.11 36.68 21.11 36.5Z" fill="url(#SVGID_68_)"/></g></g></g><g><path d="M87.49 31.34C87.49 31.34 91.73 28.83 95.39 30.55 99.05 32.27 100.42 41.76 96.9 45.78 93.38 49.8 87.49 47 87.49 47L87.49 43.73C87.49 43.73 93.13 45.92 95.14 42.47 97.15 39.02 96.36 29.65 88.5 32.95L87.49 31.34Z" fill="#C6E4E2"/><path d="M91.59 44.4C89.53 44.52 87.5 43.73 87.5 43.73L87.5 47C87.5 47 89.35 47.88 91.59 47.94L91.59 44.4Z" fill="#C6E4E2"/><path d="M91.59 32.26 91.59 30C89.31 30.26 87.5 31.34 87.5 31.34L88.5 32.96C89.68 32.45 90.71 32.25 91.59 32.26Z" fill="#C6E4E2"/><g><path d="M69.94 27.16 68.74 27.31 68.74 51.03C68.74 51.74 73.53 52.31 79.44 52.31 85.35 52.31 90.14 51.73 90.14 51.03L90.14 27.31 69.94 27.16Z" fill="#C6E4E2"/><path d="M73.26 27.18 71.23 27.16 71.23 51.85C71.82 51.94 72.5 52.01 73.26 52.07L73.26 27.18Z" fill="#C6E4E2"/><path d="M83.13 27.25 83.13 52.23C87.22 52.05 90.14 51.58 90.14 51.02L90.14 27.31 83.13 27.25Z" fill="#C6E4E2"/><path d="M90.15 27.31C90.15 28.02 85.36 28.59 79.45 28.59 73.54 28.59 68.75 28.02 68.75 27.31 68.75 26.6 73.54 26.03 79.45 26.03 85.36 26.02 90.15 26.6 90.15 27.31Z" fill="#5094A3"/></g><g><defs><path d="M87.58 26.47 88.57 16.97C88.57 16.97 92.56 15.46 92.02 6.95 91.48-1.56 85.55 1.35 81.35 0.81 77.15 0.27 66.59-1.78 65.83 3.83 65.08 9.43 64.21 17.3 67.12 17.73 69.55 18.09 70.78 24.41 71.13 26.5 69.64 26.72 68.74 27 68.74 27.31 68.74 28.02 73.53 28.59 79.44 28.59 85.35 28.59 90.14 28.02 90.14 27.31 90.15 26.99 89.18 26.7 87.58 26.47Z" id="SVGID_69_"/></defs><clipPath id="SVGID_70_"><use width="100%" height="100%" xlink:href="#SVGID_69_" overflow="visible"></use></clipPath><g clip-path="url(#SVGID_70_)"><linearGradient x1="-823.461" y1="1218.46" x2="-825.719" y2="1212.3" gradientUnits="userSpaceOnUse" id="SVGID_71_" gradientTransform="matrix(0.2432 -0.97 0.97 0.2432 -908.013 -1087.51)"><stop offset="0" stop-color="#FFFFFF"/><stop offset="0.3847" stop-color="#EAF6F6"/><stop offset="1" stop-color="#C0E5E5"/></linearGradient><radialGradient cx="-864.523" cy="1267.41" r="111.525" gradientUnits="userSpaceOnUse" id="SVGID_72_" gradientTransform="matrix(0.2432 -0.97 0.97 0.2432 -908.013 -1087.51)"><stop offset="0.1622" stop-color="#F9BA0F"/><stop offset="1" stop-color="#F49910"/></radialGradient><radialGradient cx="-864.524" cy="1267.41" r="111.526" gradientUnits="userSpaceOnUse" id="SVGID_73_" gradientTransform="matrix(0.2432 -0.97 0.97 0.2432 -908.013 -1087.51)"><stop offset="0.1622" stop-color="#F9BA0F"/><stop offset="1" stop-color="#F49910"/></radialGradient><radialGradient cx="-829.587" cy="1234.87" r="34.8154" gradientUnits="userSpaceOnUse" id="SVGID_74_" gradientTransform="matrix(0.2432 -0.97 0.97 0.2432 -908.013 -1087.51)"><stop offset="0.1622" stop-color="#F9BA0F"/><stop offset="1" stop-color="#F49910"/></radialGradient><path d="M70.76 2.44C69.87 2.41 68.95 2.23 68.07 2.22 67.96 2.22 67.94 2.29 67.96 2.38 67.96 2.44 67.99 2.51 68.08 2.59 68.34 2.83 68.64 2.99 68.96 3.09 68.75 3.08 68.53 3.08 68.32 3.1 68.18 3.11 68.27 3.27 68.32 3.33 68.76 3.78 69.4 3.97 70.05 4.06 69.43 4.09 68.82 4.05 68.18 4.04 68.03 4.04 68.13 4.24 68.18 4.29 68.46 4.53 68.78 4.68 69.11 4.79 68.75 4.86 68.39 4.95 68.05 5.08 67.88 5.15 68.13 5.39 68.22 5.41 68.54 5.48 68.85 5.52 69.17 5.54 68.74 5.63 68.31 5.74 67.9 5.88 67.67 5.96 68.01 6.3 68.13 6.32 68.34 6.36 68.54 6.38 68.75 6.39 68.49 6.47 68.25 6.58 68.06 6.73 67.91 6.86 68.21 7.09 68.31 7.12 68.53 7.2 68.76 7.24 69 7.26 68.63 7.33 68.27 7.42 68.01 7.59 67.9 7.66 68.08 7.86 68.14 7.89 67.67 7.6 68.2 7.95 68.29 8 68.59 8.15 69 8.15 69.37 8.13 68.94 8.22 68.52 8.34 68.14 8.54 67.9 8.66 68.29 8.99 68.44 9 68.6 9.01 68.77 9.02 68.93 9.02 68.59 9.1 68.25 9.18 67.92 9.28 67.72 9.34 68.02 9.65 68.12 9.67 68.29 9.7 68.45 9.71 68.62 9.73 68.38 9.83 68.16 9.95 67.96 10.09 67.86 10.17 68.06 10.35 68.13 10.36 68.33 10.39 68.53 10.4 68.72 10.41 68.58 10.44 68.43 10.47 68.29 10.51 68.1 10.56 68.39 10.85 68.48 10.86 68.66 10.9 68.85 10.93 69.04 10.95 68.79 11.03 68.57 11.14 68.4 11.3 68.29 11.4 68.52 11.6 68.61 11.62 68.79 11.66 68.98 11.68 69.17 11.7 69.02 11.79 68.86 11.87 68.73 11.98 68.6 12.09 68.88 12.29 68.97 12.29 69.08 12.3 69.18 12.29 69.29 12.29 69.05 12.44 68.87 12.62 68.8 12.88 68.77 13 68.92 13.13 69.03 13.14 69.09 13.14 69.16 13.13 69.22 13.13 69.1 13.3 69.03 13.49 69.03 13.71 69.03 13.83 69.18 13.97 69.29 13.97 69.69 13.95 70.01 13.75 70.37 13.59 70.81 13.4 71.27 13.29 71.74 13.19 72.26 13.07 72.8 13 73.33 12.95 74.02 12.88 74.74 13.07 75.07 12.29 75.4 11.52 75.22 10.62 75.17 9.81 75.11 8.88 75.05 7.94 74.96 7 74.81 5.46 75.46 2.86 73.3 2.48 72.45 2.34 71.61 2.47 70.76 2.44Z" fill="url(#SVGID_71_)"/><path d="M78.95 47.65C78.93 47.28 74.24 5.47 74.24 5.47 74.24 5.47 74.59 2.81 72.87 3.75 72.87 3.75 72.98 2.88 72.56 6.26 72.13 9.64 74.99 49.08 74.99 49.08 74.99 49.08 74.84 50.95 76.63 50.97 78.42 51.01 79.1 50.01 78.95 47.65Z" fill="url(#SVGID_72_)"/><path d="M72.87 3.75C72.84 3.96 72.76 4.6 72.56 6.26 72.46 7.05 72.54 9.81 72.72 13.57 73.32 13.59 73.97 13.7 74.21 14.28 74.83 15.79 78.12 46.05 78.04 48.29 77.99 49.52 77.58 50.5 76.85 50.97 78.47 50.91 79.1 49.91 78.95 47.65 78.93 47.28 74.24 5.47 74.24 5.47 74.24 5.47 74.59 2.81 72.87 3.75Z" fill="url(#SVGID_73_)" opacity="0.4"/><path d="M73.55 1.97C72.35 1.95 70.7 2.21 70.75 3.14 70.77 3.52 71.38 11.15 71.52 13.02 71.59 13.17 71.65 13.32 71.81 13.39 71.81 13.39 71.81 13.39 71.81 13.39L73.7 13.15C73.7 13.15 75.06 13.07 75.39 11.74 75.72 10.41 74.98 3.53 74.98 3.53 74.98 3.53 74.74 1.98 73.55 1.97Z" fill="#E79400"/><path d="M73.98 2.13C72.79 2.11 71.13 2.37 71.18 3.3 71.2 3.68 71.81 11.31 71.95 13.18 72.02 13.33 72.09 13.48 72.24 13.55 72.24 13.55 72.24 13.55 72.25 13.55L74.14 13.31C74.14 13.31 75.5 13.23 75.83 11.9 76.16 10.57 75.42 3.69 75.42 3.69 75.42 3.69 75.18 2.15 73.98 2.13Z" fill="url(#SVGID_74_)"/></g><g clip-path="url(#SVGID_70_)"><linearGradient x1="77.9077" y1="27.076" x2="89.5474" y2="27.5071" gradientUnits="userSpaceOnUse" id="SVGID_75_"><stop offset="0" stop-color="#009C8B"/><stop offset="1" stop-color="#0065B1"/></linearGradient><linearGradient x1="76.1958" y1="6.2291" x2="85.6778" y2="7.8096" gradientUnits="userSpaceOnUse" id="SVGID_76_"><stop offset="0" stop-color="#009C8B"/><stop offset="1" stop-color="#482683"/></linearGradient><linearGradient x1="77.4613" y1="7.0871" x2="91.5732" y2="8.4337" gradientUnits="userSpaceOnUse" id="SVGID_77_"><stop offset="0" stop-color="#009C8B"/><stop offset="1" stop-color="#0065B1"/></linearGradient><linearGradient x1="93.1654" y1="7.9589" x2="85.6902" y2="7.9589" gradientUnits="userSpaceOnUse" id="SVGID_78_"><stop offset="0" stop-color="#FFFFFF"/><stop offset="0.3847" stop-color="#EAF6F6"/><stop offset="1" stop-color="#C0E5E5"/></linearGradient><linearGradient x1="88.4966" y1="7.9851" x2="80.2697" y2="7.9851" gradientUnits="userSpaceOnUse" id="SVGID_79_"><stop offset="0" stop-color="#FFFFFF"/><stop offset="0.3847" stop-color="#EAF6F6"/><stop offset="1" stop-color="#C0E5E5"/></linearGradient><path d="M79.26 47.65C79.28 47.28 83.97 5.47 83.97 5.47 83.97 5.47 83.62 2.81 85.34 3.75 85.34 3.75 85.23 2.88 85.65 6.26 86.07 9.64 83.21 49.08 83.21 49.08 83.21 49.08 83.36 50.95 81.57 50.97 79.79 51.01 79.12 50.01 79.26 47.65Z" fill="url(#SVGID_75_)"/><path d="M85.34 3.75C85.37 3.96 85.44 4.6 85.65 6.26 85.75 7.05 85.67 9.81 85.49 13.57 84.89 13.59 84.24 13.7 84 14.28 83.38 15.79 80.08 46.05 80.18 48.29 80.23 49.52 80.64 50.5 81.37 50.97 79.75 50.91 79.12 49.91 79.26 47.65 79.28 47.28 83.97 5.47 83.97 5.47 83.97 5.47 83.63 2.81 85.34 3.75Z" fill="#6383C2" opacity="0.4"/><path d="M83.89 1.97C85.08 1.95 86.74 2.21 86.69 3.14 86.67 3.52 86.06 11.15 85.92 13.02 85.85 13.17 85.79 13.32 85.63 13.39 85.63 13.39 85.63 13.39 85.62 13.39L83.73 13.15C83.73 13.15 82.37 13.07 82.04 11.74 81.71 10.41 82.45 3.53 82.45 3.53 82.45 3.53 82.7 1.98 83.89 1.97Z" fill="url(#SVGID_76_)"/><path d="M84.23 2.13C85.43 2.11 87.08 2.37 87.03 3.3 87.01 3.68 86.4 11.31 86.26 13.18 86.19 13.33 86.13 13.48 85.97 13.55 85.97 13.55 85.97 13.55 85.96 13.55L84.07 13.31C84.07 13.31 82.71 13.23 82.38 11.9 82.05 10.57 82.79 3.69 82.79 3.69 82.79 3.69 83.04 2.15 84.23 2.13Z" fill="url(#SVGID_77_)"/><path d="M89.84 9.11C89.61 9.01 89.38 8.93 89.15 8.85 89.26 8.85 89.38 8.84 89.49 8.83 89.59 8.82 89.87 8.52 89.7 8.4 89.44 8.21 89.16 8.09 88.86 8 89.11 8.02 89.4 8.03 89.61 7.89 89.67 7.85 90.04 7.52 89.72 7.8 89.76 7.77 89.89 7.58 89.81 7.51 89.63 7.35 89.39 7.25 89.13 7.19 89.29 7.17 89.45 7.13 89.61 7.07 89.68 7.04 89.89 6.82 89.79 6.7 89.66 6.55 89.5 6.45 89.32 6.37 89.46 6.36 89.6 6.35 89.75 6.31 89.83 6.29 90.07 5.97 89.92 5.89 89.64 5.75 89.35 5.65 89.05 5.55 89.27 5.53 89.49 5.5 89.71 5.44 89.77 5.42 89.95 5.2 89.84 5.13 89.6 5 89.35 4.92 89.11 4.84 89.34 4.75 89.57 4.61 89.76 4.39 89.8 4.34 89.87 4.15 89.77 4.15 89.33 4.15 88.91 4.18 88.48 4.14 88.93 4.07 89.37 3.9 89.69 3.48 89.73 3.43 89.79 3.28 89.7 3.26 89.55 3.24 89.41 3.24 89.26 3.24 89.48 3.15 89.69 3 89.87 2.78 89.93 2.71 89.95 2.64 89.96 2.59 89.98 2.51 89.97 2.44 89.89 2.44 89.28 2.44 87.63 2.36 87.02 2.37 86.58 2.38 86.43 2.79 86.1 2.77 85.18 3.03 84.92 5.9 84.83 7.08 84.76 8.08 85.68 9.5 85.62 10.5 85.59 11 84.54 12.43 84.62 12.93 84.76 13.8 88.26 13.48 88.81 13.53 88.89 13.54 89 13.4 89 13.29 89 13.08 88.96 12.9 88.88 12.74 88.92 12.74 88.97 12.75 89.01 12.75 89.09 12.74 89.19 12.63 89.17 12.51 89.13 12.27 89 12.09 88.85 11.95 88.92 11.95 88.99 11.96 89.07 11.95 89.13 11.94 89.33 11.76 89.24 11.66 89.15 11.55 89.05 11.47 88.94 11.39 89.07 11.37 89.2 11.36 89.33 11.32 89.39 11.3 89.55 11.12 89.48 11.02 89.37 10.87 89.21 10.76 89.05 10.68 89.18 10.66 89.31 10.64 89.43 10.6 89.49 10.58 89.69 10.32 89.57 10.27 89.47 10.23 89.37 10.2 89.27 10.17 89.41 10.16 89.55 10.16 89.68 10.13 89.73 10.12 89.88 9.95 89.81 9.88 89.68 9.74 89.52 9.62 89.36 9.53 89.47 9.52 89.59 9.51 89.71 9.48 89.76 9.46 89.97 9.17 89.84 9.11Z" fill="url(#SVGID_78_)"/><path d="M86.82 9.11C86.59 9.01 86.36 8.93 86.13 8.85 86.24 8.85 86.36 8.84 86.47 8.83 86.57 8.82 86.85 8.52 86.68 8.4 86.42 8.21 86.14 8.09 85.84 8 86.09 8.02 86.38 8.03 86.59 7.89 86.66 7.85 87.03 7.52 86.7 7.8 86.74 7.77 86.87 7.58 86.79 7.51 86.61 7.35 86.37 7.25 86.12 7.19 86.28 7.17 86.44 7.13 86.59 7.07 86.66 7.04 86.87 6.82 86.77 6.7 86.64 6.55 86.48 6.45 86.3 6.37 86.44 6.36 86.58 6.35 86.72 6.31 86.8 6.29 87.05 5.97 86.89 5.89 86.61 5.75 86.32 5.65 86.02 5.55 86.24 5.53 86.46 5.5 86.68 5.44 86.74 5.42 86.92 5.2 86.8 5.13 86.58 5 86.34 4.92 86.09 4.84 86.32 4.75 86.55 4.61 86.74 4.39 86.78 4.34 86.86 4.15 86.75 4.15 86.31 4.15 85.89 4.18 85.46 4.14 85.91 4.07 86.35 3.9 86.67 3.48 86.71 3.43 86.77 3.28 86.68 3.26 86.54 3.24 86.39 3.24 86.24 3.24 86.46 3.15 86.67 3 86.85 2.78 86.91 2.71 86.94 2.64 86.94 2.59 86.96 2.51 86.95 2.44 86.87 2.44 86.26 2.44 85.63 2.6 85.01 2.61 84.56 2.62 84.17 2.61 83.84 2.59 82.92 2.85 82.88 6.31 82.8 7.49 82.72 8.49 82.67 9.49 82.61 10.5 82.58 11 82.51 11.55 82.59 12.04 82.73 12.91 85.24 13.47 85.79 13.52 85.87 13.53 85.98 13.39 85.98 13.28 85.98 13.07 85.94 12.89 85.86 12.73 85.9 12.73 85.95 12.74 85.99 12.74 86.07 12.73 86.17 12.62 86.15 12.5 86.11 12.26 85.98 12.08 85.83 11.94 85.9 11.94 85.97 11.95 86.05 11.94 86.11 11.93 86.31 11.75 86.22 11.65 86.13 11.54 86.03 11.46 85.92 11.38 86.05 11.36 86.18 11.35 86.31 11.31 86.37 11.29 86.53 11.11 86.46 11.01 86.35 10.86 86.19 10.75 86.03 10.67 86.16 10.65 86.29 10.63 86.41 10.59 86.47 10.57 86.67 10.31 86.55 10.26 86.45 10.22 86.35 10.19 86.25 10.16 86.39 10.15 86.53 10.15 86.66 10.12 86.71 10.11 86.86 9.94 86.79 9.87 86.65 9.73 86.5 9.61 86.34 9.52 86.46 9.51 86.57 9.5 86.69 9.47 86.74 9.46 86.96 9.17 86.82 9.11Z" fill="url(#SVGID_79_)"/></g></g></g><g><rect x="0" y="50.52" width="100.56" height="3.45" fill="#7F331F"/><rect x="0" y="52.53" width="100.56" height="1.44" fill="#4D1E0A"/></g></g></svg>