<svg width="746.98" height="613.12" viewBox="0 0 746.98 613.12" xmlns="http://www.w3.org/2000/svg" xmlns:xlink="http://www.w3.org/1999/xlink" xml:space="preserve" overflow="hidden"><defs></defs><g><path d="M595.95 307.39C594.98 301.94 589.95 295.01 583.81 297.27 584.12 298.39 584.4 299.5 584.66 300.62 584.42 300.45 584.15 300.29 583.84 300.16 581.55 299.17 578.28 299.6 577 301.63 570.3 312.21 562.8 322.45 554.53 332.26 552.46 334.71 550.35 337.14 548.19 339.54 547.07 340.79 545.93 342.03 544.78 343.26 544.51 343.54 544.25 343.83 543.98 344.11 543.92 344.18 543.88 344.22 543.85 344.25 543.82 344.28 543.77 344.34 543.69 344.41 543.11 345.02 542.53 345.63 541.94 346.24 537.42 350.91 532.73 355.47 527.86 359.91 522.71 364.6 517.37 369.13 511.85 373.53 506.6 360.33 502.11 346.93 498.39 333.39 501.59 329.79 504.68 326.13 507.65 322.4 512.6 316.18 517.21 309.77 521.48 303.22 522.71 301.33 522.14 298.68 519.69 297.62 517.37 296.62 514.16 297.07 512.85 299.09 507.62 307.13 501.85 314.94 495.59 322.47 494.54 318.14 493.54 313.8 492.64 309.44 492.04 306.51 491.48 303.58 490.95 300.64 490.67 299.11 490.41 297.58 490.15 296.05 490.13 295.96 490.1 295.75 490.08 295.61 490.02 295.26 489.97 294.91 489.91 294.56 489.78 293.76 489.66 292.97 489.54 292.17 489.22 290.05 487.47 287.97 484.54 288.08 482.11 288.17 479.19 289.9 479.54 292.17 481.56 305.39 484.28 318.54 487.69 331.56 487.53 331.74 487.37 331.92 487.2 332.1 486.65 332.7 486.09 333.31 485.53 333.9 485.36 334.08 485.19 334.27 485.01 334.45 484.99 334.47 484.93 334.54 484.87 334.6 484.82 334.66 484.77 334.71 484.76 334.72 484.54 334.95 484.32 335.18 484.11 335.41 482.89 336.69 481.65 337.96 480.4 339.22 477.9 341.74 475.33 344.22 472.71 346.66 467.47 351.54 462 356.26 456.32 360.8 454.25 362.45 452.14 364.07 450.02 365.67 454.48 344.59 457.33 323.28 458.45 301.91 453.95 301.91 449.45 301.9 444.94 301.9 443.64 340.81 431.05 378.57 415.81 415.63 412.32 404.47 408.83 393.31 405.41 382.14 404.17 378.08 403 374 402.16 369.87 402.06 369.35 401.96 368.84 401.86 368.32 401.82 368.11 401.79 367.9 401.75 367.69 401.75 367.67 401.75 367.66 401.74 367.64 401.59 366.51 401.42 365.38 401.3 364.24 401.07 362.11 400.94 359.96 400.86 357.82 400.79 355.71 400.77 353.59 400.79 351.48 404.73 344.47 408.25 337.3 411.31 330.01 414.5 322.39 417.18 314.63 419.34 306.77 419.91 304.69 418.57 302.24 415.85 301.74 413.31 301.27 410.31 302.36 409.7 304.6 407.81 311.5 405.52 318.32 402.82 325.04 402.56 325.69 402.28 326.33 402.01 326.98 402.58 318.89 403.29 310.81 404.16 302.74 404.39 300.6 401.7 298.56 399.16 298.65 396.25 298.76 394.41 300.45 394.16 302.74 393.22 311.45 392.45 320.18 391.86 328.92 391.4 335.83 390.95 342.76 390.82 349.68 384.52 360.59 377.14 371.09 368.76 381.02 367.39 382.64 366 384.25 364.58 385.84 364.38 386.07 364.17 386.29 363.97 386.52 366.58 357.49 369.12 328.46 374.61 299.72 367.13 300.06 359.53 298.58 353.04 295.51 353.75 344.95 348.33 396.62 338.8 446.09 335.24 441.16 331.85 436.15 328.7 431.04 326.1 426.83 323.65 422.56 321.33 418.24 321.07 417.75 320.8 417.25 320.54 416.76 320.4 416.49 320.25 416.21 320.11 415.94 320.08 415.87 320.01 415.74 319.95 415.63 319.41 414.57 318.87 413.51 318.35 412.45 317.25 410.24 316.2 408.01 315.18 405.77 309.98 394.38 305.77 382.68 302.55 370.81 316.49 354.4 330.06 337.61 339.61 319.15 342.5 313.57 345.05 307.89 347.09 302.06 347.81 300 346.21 297.52 343.6 297.03 340.93 296.53 338.22 297.69 337.45 299.89 335.73 304.79 333.68 309.6 331.33 314.32 331.16 314.66 330.99 314.99 330.82 315.33 330.79 315.38 330.78 315.41 330.76 315.45 330.46 316.03 330.15 316.61 329.84 317.19 329.21 318.36 328.57 319.51 327.92 320.67 326.61 322.98 325.23 325.27 323.8 327.53 318.02 336.69 311.39 345.48 304.43 354.06 302.92 355.93 301.38 357.78 299.84 359.63 299.25 356.88 298.71 354.13 298.22 351.36 298.16 351.01 298.1 350.65 298.04 350.3 298.02 350.2 297.97 349.88 297.94 349.7 297.86 349.2 297.78 348.69 297.7 348.19 297.5 346.89 297.31 345.58 297.14 344.28 296.78 341.61 296.47 338.93 296.21 336.25 295.7 330.95 295.4 325.64 295.29 320.32 295.25 318.18 293.02 316.13 290.29 316.23 287.62 316.33 285.24 318.03 285.29 320.32 285.62 336.75 287.87 353.17 291.94 369.27 291.45 370.55 291.9 372.09 292.95 373.14 293.34 374.58 293.74 376.02 294.16 377.45 296.38 385.04 299.04 392.54 302.08 399.94 294.39 392.74 286.7 385.55 279.11 378.29 276.59 375.88 274.09 373.45 271.63 371 270.4 369.77 269.18 368.54 267.98 367.29 267.4 366.69 266.82 366.09 266.25 365.49 266.19 365.43 266.13 365.36 266.07 365.3 266 365.23 265.9 365.12 265.85 365.07 265.55 364.74 265.24 364.42 264.94 364.09 260.25 359.03 255.82 353.79 251.9 348.3 249.75 345.3 247.76 342.23 245.96 339.08 245.48 338.24 245.01 337.4 244.56 336.54 244.48 336.39 244.4 336.23 244.32 336.08 244.32 336.08 244.32 336.08 244.32 336.08 244.11 335.65 243.89 335.22 243.68 334.79 243.03 333.46 242.43 332.11 241.86 330.75 242.58 328.61 243.3 326.46 243.99 324.32 244.65 322.25 243.15 319.78 240.5 319.29 237.88 318.8 235.06 319.93 234.35 322.15 233.6 324.48 232.84 326.8 232.05 329.12 231.79 329.55 231.63 330.01 231.58 330.48 226.24 346.11 220.05 361.55 213.03 376.74 210.98 381.18 208.85 385.6 206.66 389.99 206.14 391.03 205.62 392.07 205.09 393.11 204.83 393.63 204.56 394.15 204.3 394.67 204.25 394.76 204.12 395.02 204.06 395.14 203.92 395.41 203.78 395.67 203.65 395.94 203.56 396.12 203.46 396.3 203.36 396.48 202.98 395.74 202.61 394.99 202.24 394.24 200.84 391.42 199.5 388.58 198.2 385.73 195.67 380.14 193.34 374.49 191.22 368.79 190.46 366.74 189.73 364.68 189.02 362.61 196.83 352.46 204.63 342.32 212.44 332.18 217.67 325.38 222.9 318.59 228.13 311.8 229.53 309.99 228.67 307.21 226.34 306.2 223.88 305.14 220.99 305.73 219.5 307.67 210.28 319.65 201.07 331.62 191.85 343.6 189.75 346.32 187.66 349.05 185.56 351.77 183.8 345.78 182.25 339.75 180.95 333.68 180.25 330.43 179.61 327.18 179.05 323.92 178.98 323.54 178.92 323.17 178.86 322.79 178.82 322.56 178.78 322.32 178.74 322.09 178.73 322.06 178.73 322.04 178.72 322 178.6 321.25 178.48 320.49 178.37 319.74 178.1 317.98 177.85 316.21 177.62 314.45 177.34 312.33 175.52 310.25 172.62 310.36 170.15 310.45 167.32 312.17 167.62 314.45 169.69 330.28 173.22 345.95 178.24 361.31 173.56 367.39 168.88 373.47 164.21 379.55 160.76 384.03 157.31 388.51 153.87 392.99 147.45 370.96 142.22 347.59 152.5 326.76 148.01 327.27 143.52 327.77 139.03 328.28 138.69 376.68 146.47 425.63 168.64 470.5 183.36 502.62 208.52 532.94 238.93 556.45 250.96 565.75 267.03 579.23 282.78 584.13 302.48 590.26 332.05 585.51 352.85 585.37 366.25 585.28 379.84 585.17 392.76 582.25 405.25 579.43 416.63 574.1 427.86 568.81 441.38 562.44 454.97 556.02 466.94 547.83 484.41 535.88 497.87 520.57 511.14 505.44 534.68 478.59 558.5 451.31 572.53 420.33 580.58 402.56 585.24 383.91 589.88 365.35 594.59 346.23 599.38 326.67 595.95 307.39ZM181.91 371.83C183.75 376.75 185.74 381.63 187.9 386.47 190.86 393.11 194.12 399.67 197.62 406.14 197.7 406.29 197.81 406.44 197.92 406.57 193.91 413.86 189.72 421.08 185.32 428.22 181.2 434.9 176.9 441.51 172.45 448.05 166.3 433.66 161.6 418.86 157.13 404.03 165.39 393.3 173.65 382.57 181.91 371.83ZM284.24 564.85C236.58 539.61 198.77 502.13 177.52 459.07 177.35 458.73 177.2 458.4 177.03 458.06 188.07 442.3 198.17 426.1 207.23 409.51 216.91 391.8 225.5 373.68 232.87 355.24 234.45 351.29 235.96 347.31 237.42 343.33 242.08 351.37 247.91 358.94 254.38 366.12 264.19 377 275.2 387.09 286.04 397.28 292.81 403.63 299.57 409.99 306.33 416.34 307.26 417.21 308.72 417.58 310.15 417.51 312.61 422.34 315.23 427.11 318.03 431.81 323.48 440.98 329.6 449.87 336.34 458.44 335.54 462.28 334.72 466.11 333.88 469.92 326.21 504.47 310.16 536.85 284.24 564.85ZM319.75 563.61C343.82 523.3 353.68 478.32 359.2 433.68 360.54 422.84 361.64 411.97 362.65 401.1 372.64 391.23 381.63 380.68 389.42 369.57 390.18 368.49 390.91 367.4 391.64 366.32 392.3 371.21 393.34 376.06 394.74 380.89 397.19 389.34 399.94 397.74 402.56 406.16 405 414.01 407.45 421.86 409.89 429.71 406.78 436.99 403.6 444.24 400.43 451.47 389.17 477.15 377.83 502.99 361.3 526.69 351.03 541.44 338.12 555.75 319.75 563.61ZM486.89 508.57C473.95 521.3 459.49 533.31 441.94 541.54 426.33 548.86 392.76 563.4 350.2 566.57 397.62 510.21 430.61 445.82 447.04 378.74 458.02 371.14 468.36 362.92 477.95 354.15 482.31 350.16 486.51 346.06 490.56 341.86 491.96 346.64 493.45 351.41 495.04 356.16 502.1 377.14 511.08 397.66 521.75 417.59 526.71 426.86 532.08 435.97 537.81 444.94 523.45 467.52 506.75 489.02 486.89 508.57ZM565.96 393.85C559.13 408.1 551.65 422.19 543.37 435.94 539.58 429.82 535.94 423.63 532.5 417.37 531.17 414.94 529.86 412.51 528.58 410.06 528.33 409.58 528.08 409.09 527.83 408.61 527.76 408.47 527.52 408.01 527.5 407.96 527.38 407.73 527.27 407.5 527.15 407.28 526.45 405.91 525.76 404.54 525.08 403.16 522.64 398.23 520.3 393.27 518.08 388.27 517.05 385.97 516.06 383.65 515.08 381.34 516.07 381.22 517.02 380.86 517.82 380.23 528.4 371.87 538.34 362.97 547.54 353.57 556.92 344 565.6 333.98 573.43 323.51 577.77 317.72 581.84 311.8 585.66 305.76 585.67 305.74 585.68 305.72 585.69 305.7 590.62 335.33 579.42 365.74 565.96 393.85Z" fill="#916A4D"/><path d="M77.43 384.29C72.56 384.33 67.5 383.83 63.32 381.33 55.27 376.51 52.91 365.41 55.39 356.37 57.87 347.32 64.08 339.85 70.13 332.68 68.62 338.98 59.29 340.73 54.39 336.49 49.49 332.25 48.9 324.58 51.24 318.55 53.59 312.51 58.26 307.73 62.82 303.13 47.91 315.28 23.65 310.47 11.32 295.72-1.02 280.96-2.6 259.32 3.34 241.02 9.27 222.72 21.7 207.25 35.16 193.5 63.12 164.95 96.3 142.15 129.25 119.55 119.17 118.67 97.48 133.26 99.67 113.15 102.15 84.19 134.32 86.1 154.29 77.08 147.75 73.98 151.81 63.88 157.23 59.08 173.06 45.08 194.83 38.03 215.86 40.1 207.83 41.49 202.34 30.4 205.71 22.99 209.08 15.58 217.3 11.79 225.02 9.21 290.64-12.71 362.28 8.26 427.09 32.48 453.99 2.83 505.12-0.23 535.37 26 538.73 28.92 537.96 37.24 534.49 34.46 551.23 31.13 567.98 39.52 582.18 49.01 594.98 57.56 607.68 68.13 612.27 82.83 616.86 97.52 609.49 116.74 594.35 119.54 618.63 111.72 644.92 122.94 666.16 137.06 682.85 148.16 698.25 161.2 711.93 175.85 721.02 185.58 729.79 197.12 729.99 210.44 730.19 223.76 717.38 237.58 704.72 233.45 722.87 235.37 741.38 246.5 746.03 264.15 750.69 281.8 735.05 303.33 717.14 299.76 732.57 305.02 739.35 326.78 729.63 339.87 719.11 354.04 698.09 353.91 680.68 351.07 650.54 346.16 621.06 337.29 593.21 324.76 600.23 336.13 606.72 352.36 596.82 361.33 592.28 365.44 585.68 366.25 579.56 366.18 548.21 365.81 520.12 347.87 493.99 330.55 497.56 334.06 498.39 340.03 495.92 344.38 469.54 341.88 444.48 327.66 428.81 306.29 436.84 313.56 427.01 328.15 416.18 327.93 405.35 327.71 396.78 319.12 389.46 311.13 391.99 328.28 374.47 345.19 357.42 342.05 356.89 336.12 357.63 330.08 359.58 324.46 346.19 332.45 330.85 337.16 315.29 338.07 309.35 338.42 302.72 337.94 298.59 333.66 294.46 329.38 295.81 320.33 301.71 319.62 290.37 329.03 277.08 336.08 262.93 340.18 253.09 343.03 241.53 344.16 233.43 337.89 225.33 331.62 225.76 315.72 235.74 313.37 221.85 327.85 200.04 334.21 180.54 329.47 181.67 329.75 165.89 350.35 164.11 351.98 157.22 358.29 147.93 364.82 138.73 366.51 140.61 349.48 119.33 370.73 114.92 373.41 103.68 380.22 90.62 384.18 77.43 384.29Z" fill="#84B24F"/><path d="M709.7 234.19C720.58 234.03 730.28 222.04 730.1 210.44 729.9 197.12 721.13 185.58 712.04 175.85 699.57 162.51 685.67 150.51 670.67 140.08 670.49 140.78 670.29 141.47 670.04 142.16 665.77 154.16 646.48 159.25 640.28 148.12 644.46 164.28 623.05 175.97 606.54 173.53 590.03 171.09 574.72 161.35 558.04 162.06 571.14 166.24 581.39 178.25 583.48 191.84 578.15 191.72 572.82 191.6 567.49 191.48 573.93 201.69 578.83 212.86 581.98 224.51 582.75 227.35 583.4 230.44 582.31 233.17 580.07 238.79 572.44 239.39 566.44 238.69 528.8 234.3 493.19 214.45 469.65 184.74 480.31 198.89 487.31 215.76 489.78 233.3 490.38 237.53 490.65 242.11 488.49 245.79 485.68 250.57 479.71 252.35 474.24 253.23 451.74 256.86 427.98 252 408.71 239.84 409.6 253.55 392.99 263.49 379.7 259.98 366.42 256.47 357.36 243.89 352.84 230.91 355.23 243.89 336.33 252.92 325.4 245.52 314.47 238.12 312.86 221.92 317.98 209.76 313.13 217.91 307.9 226.44 299.57 230.98 291.24 235.52 278.91 234.14 274.66 225.66 272.51 221.37 272.83 216.31 273.27 211.53 275.68 185.51 280.33 159.69 287.16 134.46 265.64 182.77 238.8 228.71 207.29 271.18 202.11 278.17 195.99 285.57 187.41 287.04 178.84 288.51 168.85 279.59 172.83 271.86 165.32 281 157.56 289.94 149.55 298.64 147 301.41 144.23 304.28 140.59 305.24 132.9 307.26 125.56 299.21 125.16 291.27 124.76 283.33 129 275.98 133.1 269.17 123.6 272.49 118.08 282.06 111.15 289.35 104.22 296.65 92.01 301.85 84.58 295.06 81.65 292.39 80.27 288.45 79.19 284.64 73.52 264.5 73.49 242.81 79.11 222.66 63.61 245.44 44.54 265.78 22.81 282.71 19.16 285.55 15.17 288.4 10.56 288.78 9.15 288.9 7.78 288.75 6.47 288.41 7.87 290.98 9.52 293.42 11.42 295.7 23.76 310.46 48.01 315.27 62.92 303.11 58.36 307.71 53.69 312.49 51.34 318.53 48.99 324.57 49.59 332.24 54.49 336.47 57.63 339.18 62.58 339.43 66.14 337.6 61.56 343.3 57.41 349.36 55.5 356.35 53.02 365.4 55.38 376.49 63.43 381.31 67.61 383.81 72.67 384.31 77.54 384.27 90.73 384.15 103.79 380.2 115.04 373.37 119.45 370.69 140.72 349.44 138.85 366.47 148.05 364.78 157.33 358.25 164.23 351.94 166.01 350.31 181.79 329.71 180.66 329.43 197.2 333.46 215.41 329.49 229.03 319.34 226.54 325.21 228.14 333.67 233.55 337.86 241.65 344.13 253.21 343.01 263.05 340.15 275.3 336.6 286.9 330.85 297.14 323.26 295.69 326.46 296.14 330.96 298.71 333.63 302.84 337.91 309.47 338.38 315.41 338.04 330.98 337.13 346.31 332.42 359.7 324.43 357.75 330.05 357.01 336.09 357.54 342.02 374.59 345.15 392.1 328.24 389.58 311.1 396.9 319.09 405.47 327.67 416.3 327.9 425.95 328.1 434.8 316.53 430.93 308.87 446.69 328.79 470.75 341.96 496.05 344.35 498.52 340 497.69 334.03 494.12 330.52 520.26 347.83 548.34 365.78 579.69 366.15 585.81 366.22 592.41 365.41 596.95 361.3 606.85 352.33 600.36 336.09 593.34 324.73 621.18 337.26 650.67 346.13 680.81 351.04 698.23 353.88 719.24 354.01 729.76 339.84 739.48 326.75 732.7 304.98 717.27 299.73 735.17 303.3 750.81 281.77 746.16 264.12 741.91 248.09 726.18 237.42 709.7 234.19Z" fill="#7EA54A"/><path d="M356.58 124.98C357.54 119.63 359.74 113.61 364.89 111.87 371.97 109.48 378.35 116.68 382.38 122.97 382.53 116.15 382.87 108.81 387.07 103.45 391.28 98.09 400.9 96.65 404.45 102.47 405.71 95.84 408.84 89.58 413.38 84.6 417.7 90.6 423.34 95.64 429.79 99.25 430.1 92.42 430.43 85.43 433 79.1 435.57 72.76 440.84 67.09 447.59 65.97 456 64.57 463.84 70.35 469.8 76.44 490 97.05 501.95 125.51 502.53 154.36 497.39 134.16 485.93 115.61 470.15 101.99 466.46 98.8 460.93 95.83 457.08 98.82 455.48 100.06 454.68 102.06 454.08 103.99 451.52 112.31 451.55 121.4 454.18 129.7 452.37 125.4 450.47 120.97 447.12 117.73 443.76 114.49 438.52 112.72 434.31 114.74 430.1 116.76 428.5 123.37 432.16 126.27 429.53 120.2 423.17 112.95 417.83 116.85 415.05 118.88 414.76 122.87 414.91 126.32 415.39 137.84 417.78 149.28 421.95 160.03 416.15 150.34 407.84 142.16 398.05 136.53 396.1 135.41 393.98 134.36 391.73 134.42 387.55 134.54 384.35 138.62 383.74 142.76 383.13 146.9 384.46 151.05 385.77 155.01 383.05 147.9 377.52 141.9 370.65 138.62 365.65 148.5 366.38 160.49 370.12 170.91 373.86 181.33 380.32 190.51 386.71 199.55 379.32 189.09 367.92 183.07 361.94 170.49 355.36 156.64 353.89 139.97 356.58 124.98Z" fill="#7EA54A"/><path d="M194.11 101.4C194.61 104.25 193.85 107.16 192.98 109.92 190.52 117.72 187.15 125.24 182.95 132.25 187.55 128.28 192.39 124.17 198.3 122.73 204.21 121.29 211.48 123.45 213.79 129.07 215.48 133.17 214.17 137.88 212.36 141.94 209.13 149.18 204.33 155.72 198.39 160.97 201.78 157.83 206.15 155.77 210.72 155.15 212.77 161.37 209.9 168.08 206.6 173.73 193.92 195.45 173.61 212.62 150.09 221.53 154.53 221.89 158.67 219.51 162.98 218.37 167.29 217.23 172.96 218.01 174.54 222.18 175.65 225.09 174.2 228.32 172.55 230.97 168.98 236.69 164.28 241.71 158.81 245.65 167.82 241.12 175.89 234.71 182.33 226.94 184.53 224.28 186.66 221.06 186.12 217.65 185.59 214.24 180.84 211.73 178.55 214.31 197.22 199.73 211.92 180.79 226.41 162.05 228.85 158.9 231.42 155.25 230.79 151.32 230.16 147.39 224.15 144.86 222.15 148.31 230.5 143.02 236.57 134.26 238.58 124.58 239.19 121.65 239.43 118.55 238.46 115.72 236.33 109.5 228.82 106.5 222.29 107.33 215.77 108.16 210.02 111.87 204.53 115.48 208.29 111.11 212.12 106.62 214.18 101.24 216.25 95.86 216.25 89.32 212.71 84.77 208.23 79.01 199.82 78.23 192.59 79.18 173.5 83 154.68 92.78 145.49 110.89 153.85 105.4 189.5 75.12 194.11 101.4Z" fill="#7EA54A"/><g><path d="M530.91 203.83C529.94 204.33 529.22 205.19 528.58 206.07 524.23 212.12 523.22 220.43 525.99 227.34 526.7 229.11 527.67 230.82 529.14 232.04 530.61 233.25 532.65 233.9 534.47 233.35 536.58 232.72 537.95 230.73 539.08 228.84 539.9 227.46 540.69 226.06 541.18 224.53 541.91 222.29 541.97 219.9 541.98 217.54 541.98 215.46 541.94 213.35 541.32 211.36 540.29 208.02 535.01 201.71 530.91 203.83Z" fill="#BBDB58"/><path d="M530.53 208.23C529.58 208.98 529.12 210.18 528.72 211.33 528.03 213.33 527.41 215.39 527.48 217.5 527.55 219.61 528.42 221.8 530.18 222.97 530.3 223.05 530.44 223.13 530.58 223.12 530.84 223.1 530.98 222.82 531.08 222.58 532.31 219.54 533.54 216.5 534.56 213.38 534.93 212.25 535.27 211.03 534.97 209.88 534.5 208.15 532 207.07 530.53 208.23Z" fill="#FFFFFF" opacity="0.46"/><path d="M529.37 241.11C531.17 241.8 533.13 242.05 535.04 241.83 532.61 237.72 532.49 232.7 532.43 227.94 532.45 229.39 531.1 231.64 530.81 233.22 530.32 235.9 530.32 238.48 529.37 241.11Z" fill="#916A4D"/></g><g><path d="M512.76 177.36C511.79 177.86 511.07 178.72 510.43 179.6 506.07 185.65 505.07 193.96 507.84 200.87 508.55 202.64 509.52 204.35 510.99 205.57 512.46 206.78 514.5 207.43 516.32 206.88 518.43 206.25 519.8 204.26 520.93 202.37 521.75 200.99 522.54 199.59 523.03 198.06 523.76 195.82 523.82 193.43 523.83 191.07 523.83 188.99 523.79 186.88 523.17 184.89 522.14 181.55 516.86 175.24 512.76 177.36Z" fill="#BBDB58"/><path d="M512.38 181.76C511.43 182.51 510.97 183.71 510.57 184.86 509.88 186.86 509.26 188.92 509.33 191.03 509.4 193.14 510.27 195.33 512.03 196.5 512.15 196.58 512.29 196.66 512.43 196.65 512.69 196.63 512.83 196.35 512.93 196.11 514.16 193.07 515.39 190.03 516.41 186.91 516.78 185.78 517.12 184.56 516.82 183.41 516.35 181.68 513.85 180.6 512.38 181.76Z" fill="#FFFFFF" opacity="0.46"/><path d="M511.22 214.64C513.02 215.33 514.98 215.58 516.89 215.36 514.46 211.25 514.34 206.23 514.28 201.47 514.3 202.92 512.95 205.17 512.66 206.75 512.16 209.43 512.17 212.01 511.22 214.64Z" fill="#916A4D"/></g><g><path d="M541.55 162.45C540.58 162.95 539.85 163.81 539.22 164.69 534.87 170.74 533.86 179.05 536.63 185.96 537.34 187.73 538.31 189.44 539.78 190.66 541.25 191.87 543.29 192.52 545.11 191.97 547.22 191.34 548.59 189.35 549.72 187.46 550.54 186.08 551.33 184.68 551.82 183.15 552.55 180.91 552.61 178.52 552.62 176.16 552.62 174.08 552.58 171.97 551.96 169.98 550.93 166.64 545.65 160.33 541.55 162.45Z" fill="#BBDB58"/><path d="M541.17 166.85C540.22 167.6 539.76 168.8 539.36 169.95 538.67 171.95 538.05 174.01 538.12 176.12 538.19 178.23 539.06 180.42 540.82 181.59 540.94 181.67 541.08 181.75 541.22 181.74 541.48 181.72 541.62 181.44 541.72 181.2 542.95 178.16 544.18 175.12 545.2 172 545.57 170.87 545.91 169.65 545.61 168.5 545.14 166.78 542.64 165.69 541.17 166.85Z" fill="#FFFFFF" opacity="0.46"/><path d="M540.01 199.73C541.81 200.41 543.77 200.67 545.68 200.45 543.25 196.34 543.13 191.32 543.07 186.56 543.09 188.01 541.74 190.26 541.45 191.84 540.95 194.53 540.96 197.11 540.01 199.73Z" fill="#916A4D"/></g><g><path d="M578.47 133.08C577.5 133.58 576.77 134.44 576.14 135.32 571.79 141.37 570.78 149.68 573.55 156.59 574.26 158.36 575.23 160.07 576.7 161.29 578.17 162.5 580.21 163.15 582.03 162.6 584.14 161.97 585.51 159.98 586.64 158.09 587.46 156.71 588.25 155.31 588.74 153.78 589.47 151.54 589.53 149.15 589.54 146.79 589.54 144.71 589.5 142.6 588.88 140.61 587.86 137.27 582.58 130.96 578.47 133.08Z" fill="#BBDB58"/><path d="M578.1 137.48C577.15 138.23 576.69 139.43 576.29 140.58 575.6 142.58 574.98 144.64 575.05 146.75 575.12 148.86 575.99 151.05 577.75 152.22 577.87 152.3 578.01 152.38 578.15 152.37 578.41 152.35 578.55 152.07 578.65 151.83 579.88 148.79 581.11 145.75 582.13 142.63 582.5 141.5 582.84 140.28 582.54 139.13 582.07 137.41 579.57 136.32 578.1 137.48Z" fill="#FFFFFF" opacity="0.46"/><path d="M576.94 170.36C578.74 171.05 580.7 171.3 582.61 171.08 580.18 166.97 580.06 161.95 580 157.19 580.02 158.64 578.67 160.89 578.38 162.47 577.88 165.16 577.88 167.73 576.94 170.36Z" fill="#916A4D"/></g><g><path d="M181.22 170.38C180.25 170.88 179.53 171.74 178.89 172.62 174.53 178.67 173.53 186.98 176.3 193.89 177.01 195.66 177.98 197.37 179.45 198.59 180.92 199.8 182.96 200.45 184.78 199.9 186.89 199.27 188.26 197.28 189.39 195.39 190.21 194.01 191 192.61 191.49 191.08 192.22 188.84 192.28 186.45 192.29 184.09 192.29 182.01 192.25 179.9 191.63 177.91 190.61 174.57 185.33 168.25 181.22 170.38Z" fill="#BBDB58"/><path d="M180.85 174.77C179.9 175.52 179.44 176.72 179.04 177.87 178.35 179.87 177.73 181.93 177.8 184.04 177.87 186.15 178.74 188.34 180.5 189.51 180.62 189.59 180.76 189.67 180.9 189.66 181.16 189.64 181.3 189.36 181.4 189.12 182.63 186.08 183.86 183.04 184.88 179.92 185.25 178.79 185.59 177.57 185.29 176.42 184.82 174.7 182.32 173.62 180.85 174.77Z" fill="#FFFFFF" opacity="0.46"/><path d="M179.69 207.65C181.49 208.34 183.45 208.59 185.36 208.37 182.93 204.26 182.81 199.24 182.75 194.47 182.77 195.92 181.42 198.17 181.13 199.75 180.63 202.45 180.64 205.03 179.69 207.65Z" fill="#916A4D"/></g><g><path d="M207.84 145.35C206.87 145.85 206.15 146.71 205.51 147.59 201.16 153.64 200.15 161.95 202.92 168.86 203.63 170.63 204.6 172.34 206.07 173.56 207.54 174.77 209.58 175.42 211.4 174.87 213.51 174.24 214.88 172.25 216.01 170.36 216.83 168.98 217.62 167.58 218.11 166.05 218.84 163.81 218.9 161.42 218.91 159.06 218.91 156.98 218.87 154.87 218.25 152.88 217.23 149.54 211.95 143.23 207.84 145.35Z" fill="#BBDB58"/><path d="M207.47 149.75C206.52 150.5 206.06 151.7 205.66 152.85 204.97 154.85 204.35 156.91 204.42 159.02 204.49 161.13 205.36 163.32 207.12 164.49 207.24 164.57 207.38 164.65 207.52 164.64 207.78 164.62 207.92 164.34 208.02 164.1 209.25 161.06 210.48 158.02 211.5 154.9 211.87 153.77 212.21 152.55 211.91 151.4 211.44 149.67 208.94 148.59 207.47 149.75Z" fill="#FFFFFF" opacity="0.46"/><path d="M206.31 182.63C208.11 183.32 210.07 183.57 211.98 183.35 209.55 179.24 209.43 174.22 209.37 169.45 209.39 170.9 208.04 173.15 207.75 174.73 207.25 177.42 207.26 180 206.31 182.63Z" fill="#916A4D"/></g><g><path d="M136.67 143.98C135.7 144.48 134.98 145.34 134.34 146.22 129.99 152.27 128.98 160.58 131.75 167.49 132.46 169.26 133.43 170.97 134.9 172.19 136.37 173.4 138.41 174.05 140.23 173.5 142.34 172.87 143.71 170.88 144.84 168.99 145.66 167.61 146.45 166.21 146.94 164.68 147.67 162.44 147.73 160.05 147.74 157.69 147.74 155.61 147.7 153.5 147.08 151.51 146.05 148.17 140.78 141.86 136.67 143.98Z" fill="#BBDB58"/><path d="M136.3 148.38C135.35 149.13 134.89 150.33 134.49 151.48 133.8 153.48 133.18 155.54 133.25 157.65 133.32 159.76 134.19 161.95 135.95 163.12 136.07 163.2 136.21 163.28 136.35 163.27 136.61 163.25 136.75 162.97 136.85 162.73 138.08 159.69 139.31 156.65 140.33 153.53 140.7 152.4 141.04 151.18 140.74 150.03 140.26 148.3 137.76 147.22 136.3 148.38Z" fill="#FFFFFF" opacity="0.46"/><path d="M135.14 181.26C136.94 181.95 138.9 182.2 140.81 181.98 138.38 177.87 138.26 172.85 138.2 168.09 138.22 169.54 136.87 171.79 136.58 173.37 136.08 176.05 136.08 178.63 135.14 181.26Z" fill="#916A4D"/></g><g><path d="M61.7 253.6C60.73 254.1 60 254.96 59.37 255.84 55.02 261.89 54.01 270.2 56.78 277.11 57.49 278.88 58.46 280.6 59.93 281.81 61.4 283.02 63.44 283.67 65.26 283.12 67.37 282.49 68.74 280.5 69.87 278.61 70.69 277.23 71.48 275.83 71.97 274.3 72.7 272.06 72.76 269.67 72.77 267.31 72.77 265.23 72.73 263.12 72.11 261.13 71.08 257.78 65.81 251.47 61.7 253.6Z" fill="#BBDB58"/><path d="M61.33 257.99C60.38 258.74 59.92 259.95 59.52 261.09 58.83 263.09 58.21 265.15 58.28 267.26 58.35 269.37 59.22 271.56 60.98 272.73 61.1 272.81 61.24 272.89 61.38 272.88 61.64 272.86 61.78 272.58 61.88 272.34 63.11 269.3 64.34 266.26 65.36 263.14 65.73 262.01 66.07 260.79 65.77 259.64 65.3 257.92 62.79 256.83 61.33 257.99Z" fill="#FFFFFF" opacity="0.46"/><path d="M60.17 290.87C61.97 291.56 63.93 291.81 65.84 291.59 63.41 287.48 63.29 282.46 63.23 277.7 63.25 279.15 61.9 281.4 61.61 282.98 61.11 285.67 61.11 288.25 60.17 290.87Z" fill="#916A4D"/></g><g><path d="M75.99 296.01C75.02 296.51 74.29 297.37 73.66 298.25 69.3 304.3 68.3 312.61 71.07 319.52 71.78 321.29 72.75 323 74.22 324.22 75.69 325.43 77.73 326.08 79.55 325.53 81.66 324.9 83.03 322.91 84.16 321.02 84.98 319.64 85.77 318.24 86.26 316.71 86.99 314.47 87.05 312.08 87.06 309.72 87.06 307.64 87.02 305.53 86.4 303.54 85.37 300.2 80.09 293.88 75.99 296.01Z" fill="#BBDB58"/><path d="M75.61 300.41C74.66 301.16 74.2 302.36 73.8 303.51 73.11 305.51 72.49 307.57 72.56 309.68 72.63 311.79 73.5 313.98 75.26 315.15 75.38 315.23 75.52 315.31 75.66 315.3 75.92 315.28 76.06 315 76.16 314.76 77.39 311.72 78.62 308.68 79.64 305.56 80.01 304.43 80.35 303.21 80.05 302.06 79.58 300.33 77.08 299.25 75.61 300.41Z" fill="#FFFFFF" opacity="0.46"/><path d="M74.45 333.29C76.25 333.98 78.21 334.23 80.12 334.01 77.69 329.9 77.57 324.88 77.51 320.11 77.53 321.56 76.18 323.81 75.89 325.39 75.39 328.08 75.4 330.66 74.45 333.29Z" fill="#916A4D"/></g><g><path d="M98.71 265.86C97.74 266.36 97.01 267.22 96.38 268.1 92.02 274.15 91.02 282.46 93.79 289.37 94.5 291.14 95.47 292.85 96.94 294.07 98.41 295.28 100.45 295.93 102.27 295.38 104.38 294.75 105.75 292.76 106.88 290.87 107.7 289.49 108.49 288.09 108.98 286.56 109.71 284.32 109.77 281.93 109.78 279.57 109.78 277.49 109.74 275.38 109.12 273.39 108.09 270.05 102.82 263.74 98.71 265.86Z" fill="#BBDB58"/><path d="M98.33 270.26C97.38 271.01 96.92 272.21 96.52 273.36 95.83 275.36 95.21 277.42 95.28 279.53 95.35 281.64 96.22 283.83 97.98 285 98.1 285.08 98.24 285.16 98.38 285.15 98.64 285.13 98.78 284.85 98.88 284.61 100.11 281.57 101.34 278.53 102.36 275.41 102.73 274.28 103.07 273.06 102.77 271.91 102.3 270.19 99.8 269.1 98.33 270.26Z" fill="#FFFFFF" opacity="0.46"/><path d="M97.18 303.14C98.98 303.82 100.94 304.08 102.85 303.86 100.42 299.75 100.3 294.73 100.24 289.97 100.26 291.42 98.91 293.67 98.62 295.25 98.12 297.94 98.12 300.51 97.18 303.14Z" fill="#916A4D"/></g><g><path d="M125.59 188.26C124.62 188.76 123.9 189.62 123.26 190.5 118.9 196.55 117.9 204.86 120.67 211.77 121.38 213.54 122.35 215.26 123.82 216.47 125.29 217.68 127.33 218.33 129.15 217.78 131.26 217.15 132.63 215.16 133.76 213.27 134.58 211.89 135.37 210.49 135.86 208.96 136.59 206.72 136.65 204.33 136.66 201.97 136.66 199.89 136.62 197.78 136 195.79 134.97 192.45 129.7 186.13 125.59 188.26Z" fill="#BBDB58"/><path d="M125.22 192.66C124.27 193.41 123.81 194.61 123.41 195.76 122.72 197.76 122.1 199.82 122.17 201.93 122.24 204.04 123.11 206.23 124.87 207.4 124.99 207.48 125.13 207.56 125.27 207.55 125.53 207.53 125.67 207.25 125.77 207.01 127 203.97 128.23 200.93 129.25 197.81 129.62 196.68 129.96 195.46 129.66 194.31 129.18 192.58 126.68 191.5 125.22 192.66Z" fill="#FFFFFF" opacity="0.46"/><path d="M124.06 225.54C125.86 226.23 127.82 226.48 129.73 226.26 127.3 222.15 127.18 217.13 127.12 212.36 127.14 213.81 125.79 216.06 125.5 217.64 125 220.33 125 222.91 124.06 225.54Z" fill="#916A4D"/></g><g><path d="M190 269.25C189.03 269.75 188.3 270.61 187.67 271.49 183.31 277.54 182.3 285.85 185.08 292.76 185.79 294.53 186.76 296.24 188.23 297.46 189.7 298.67 191.74 299.32 193.56 298.77 195.67 298.14 197.04 296.15 198.17 294.26 198.99 292.88 199.78 291.48 200.27 289.95 201 287.71 201.06 285.32 201.07 282.96 201.07 280.88 201.03 278.77 200.41 276.78 199.38 273.44 194.1 267.13 190 269.25Z" fill="#BBDB58"/><path d="M189.62 273.65C188.67 274.4 188.21 275.6 187.81 276.75 187.12 278.75 186.5 280.81 186.57 282.92 186.64 285.03 187.51 287.22 189.27 288.39 189.39 288.47 189.53 288.55 189.67 288.54 189.93 288.52 190.07 288.24 190.17 288 191.4 284.96 192.63 281.92 193.65 278.8 194.02 277.67 194.36 276.45 194.06 275.3 193.59 273.58 191.09 272.49 189.62 273.65Z" fill="#FFFFFF" opacity="0.46"/><path d="M188.47 306.53C190.27 307.22 192.23 307.47 194.14 307.25 191.71 303.14 191.59 298.12 191.53 293.36 191.55 294.81 190.2 297.06 189.91 298.64 189.41 301.33 189.41 303.91 188.47 306.53Z" fill="#916A4D"/></g><g><path d="M216.62 256.97C215.65 257.47 214.92 258.33 214.29 259.21 209.93 265.26 208.93 273.57 211.7 280.48 212.41 282.25 213.38 283.96 214.85 285.18 216.32 286.39 218.36 287.04 220.18 286.49 222.29 285.86 223.66 283.87 224.79 281.98 225.61 280.6 226.4 279.2 226.89 277.67 227.62 275.43 227.68 273.04 227.69 270.68 227.69 268.6 227.65 266.49 227.03 264.5 226 261.16 220.73 254.84 216.62 256.97Z" fill="#BBDB58"/><path d="M216.24 261.37C215.29 262.12 214.83 263.32 214.43 264.47 213.74 266.47 213.12 268.53 213.19 270.64 213.26 272.75 214.13 274.94 215.89 276.11 216.01 276.19 216.15 276.27 216.29 276.26 216.55 276.24 216.69 275.96 216.79 275.72 218.02 272.68 219.25 269.64 220.27 266.52 220.64 265.39 220.98 264.17 220.68 263.02 220.21 261.29 217.71 260.21 216.24 261.37Z" fill="#FFFFFF" opacity="0.46"/><path d="M215.09 294.25C216.89 294.94 218.85 295.19 220.76 294.97 218.33 290.86 218.21 285.84 218.15 281.08 218.17 282.53 216.82 284.78 216.53 286.36 216.03 289.04 216.03 291.62 215.09 294.25Z" fill="#916A4D"/></g><g><path d="M163.6 232.27C162.63 232.77 161.91 233.63 161.27 234.51 156.91 240.56 155.91 248.87 158.68 255.78 159.39 257.55 160.36 259.26 161.83 260.48 163.3 261.69 165.34 262.34 167.16 261.79 169.27 261.16 170.64 259.17 171.77 257.28 172.59 255.9 173.38 254.5 173.87 252.97 174.6 250.73 174.66 248.34 174.67 245.98 174.67 243.9 174.63 241.79 174.01 239.8 172.98 236.46 167.71 230.15 163.6 232.27Z" fill="#BBDB58"/><path d="M163.23 236.67C162.28 237.42 161.82 238.62 161.42 239.77 160.73 241.77 160.11 243.83 160.18 245.94 160.25 248.05 161.12 250.24 162.88 251.41 163 251.49 163.14 251.57 163.28 251.56 163.54 251.54 163.68 251.26 163.78 251.02 165.01 247.98 166.24 244.94 167.26 241.82 167.63 240.69 167.97 239.47 167.67 238.32 167.2 236.59 164.69 235.51 163.23 236.67Z" fill="#FFFFFF" opacity="0.46"/><path d="M162.07 269.55C163.87 270.24 165.83 270.49 167.74 270.27 165.31 266.16 165.19 261.14 165.13 256.37 165.15 257.82 163.8 260.07 163.51 261.65 163.01 264.34 163.01 266.92 162.07 269.55Z" fill="#916A4D"/></g><g><path d="M138.53 293.79C137.56 294.29 136.83 295.15 136.2 296.03 131.85 302.08 130.84 310.39 133.61 317.3 134.32 319.07 135.29 320.79 136.76 322 138.23 323.21 140.27 323.86 142.09 323.31 144.2 322.68 145.57 320.69 146.7 318.8 147.52 317.42 148.31 316.02 148.8 314.49 149.53 312.25 149.6 309.86 149.6 307.5 149.6 305.42 149.56 303.31 148.94 301.32 147.92 297.98 142.64 291.66 138.53 293.79Z" fill="#BBDB58"/><path d="M138.16 298.19C137.21 298.94 136.75 300.14 136.35 301.29 135.66 303.29 135.04 305.35 135.11 307.46 135.18 309.57 136.05 311.76 137.81 312.93 137.93 313.01 138.07 313.09 138.21 313.08 138.47 313.06 138.61 312.78 138.71 312.54 139.94 309.5 141.17 306.46 142.19 303.34 142.56 302.21 142.9 300.99 142.6 299.84 142.13 298.11 139.63 297.03 138.16 298.19Z" fill="#FFFFFF" opacity="0.46"/><path d="M137 331.07C138.8 331.76 140.76 332.01 142.67 331.79 140.24 327.68 140.12 322.66 140.06 317.9 140.08 319.35 138.73 321.6 138.44 323.18 137.94 325.86 137.95 328.44 137 331.07Z" fill="#916A4D"/></g><g><path d="M306.7 60.02C305.73 60.52 305.01 61.38 304.37 62.26 300.01 68.31 299.01 76.62 301.78 83.53 302.49 85.3 303.46 87.02 304.93 88.23 306.4 89.44 308.44 90.09 310.26 89.54 312.37 88.91 313.74 86.92 314.87 85.03 315.69 83.65 316.48 82.25 316.97 80.72 317.7 78.48 317.76 76.09 317.77 73.73 317.77 71.65 317.73 69.54 317.11 67.55 316.08 64.21 310.8 57.89 306.7 60.02Z" fill="#BBDB58"/><path d="M306.32 64.42C305.37 65.17 304.91 66.37 304.51 67.52 303.82 69.52 303.2 71.58 303.27 73.69 303.34 75.8 304.21 77.99 305.97 79.16 306.09 79.24 306.23 79.32 306.37 79.31 306.63 79.29 306.77 79.01 306.87 78.77 308.1 75.73 309.33 72.69 310.35 69.57 310.72 68.44 311.06 67.22 310.76 66.07 310.29 64.34 307.79 63.26 306.32 64.42Z" fill="#FFFFFF" opacity="0.46"/><path d="M305.16 97.3C306.96 97.99 308.92 98.24 310.83 98.02 308.4 93.91 308.28 88.89 308.22 84.13 308.24 85.58 306.89 87.83 306.6 89.41 306.1 92.09 306.11 94.67 305.16 97.3Z" fill="#916A4D"/></g><g><path d="M324.25 79.27C323.28 79.77 322.55 80.63 321.92 81.51 317.56 87.56 316.56 95.87 319.33 102.78 320.04 104.55 321.01 106.27 322.48 107.48 323.95 108.69 325.99 109.34 327.81 108.79 329.92 108.16 331.29 106.17 332.42 104.28 333.24 102.9 334.03 101.5 334.52 99.97 335.25 97.73 335.31 95.34 335.32 92.98 335.32 90.9 335.28 88.79 334.66 86.8 333.63 83.46 328.35 77.15 324.25 79.27Z" fill="#BBDB58"/><path d="M323.87 83.67C322.92 84.42 322.46 85.63 322.06 86.77 321.37 88.77 320.75 90.83 320.82 92.94 320.89 95.05 321.76 97.24 323.52 98.41 323.64 98.49 323.78 98.57 323.92 98.56 324.18 98.54 324.32 98.26 324.42 98.02 325.65 94.98 326.88 91.94 327.9 88.82 328.27 87.69 328.61 86.47 328.31 85.32 327.84 83.59 325.34 82.51 323.87 83.67Z" fill="#FFFFFF" opacity="0.46"/><path d="M322.71 116.55C324.51 117.24 326.47 117.49 328.38 117.27 325.95 113.16 325.83 108.14 325.77 103.38 325.79 104.83 324.44 107.08 324.15 108.66 323.65 111.34 323.66 113.92 322.71 116.55Z" fill="#916A4D"/></g><g><path d="M284.81 108.78C283.84 109.28 283.11 110.14 282.48 111.02 278.12 117.07 277.12 125.38 279.89 132.29 280.6 134.06 281.57 135.78 283.04 136.99 284.51 138.2 286.55 138.85 288.37 138.3 290.48 137.67 291.85 135.68 292.98 133.79 293.8 132.41 294.59 131.01 295.08 129.48 295.81 127.24 295.87 124.85 295.88 122.49 295.88 120.41 295.84 118.3 295.22 116.31 294.19 112.97 288.91 106.66 284.81 108.78Z" fill="#BBDB58"/><path d="M284.43 113.18C283.48 113.93 283.02 115.13 282.62 116.28 281.93 118.28 281.31 120.34 281.38 122.45 281.45 124.56 282.32 126.75 284.08 127.92 284.2 128 284.34 128.08 284.48 128.07 284.74 128.05 284.88 127.77 284.98 127.53 286.21 124.49 287.44 121.45 288.46 118.33 288.83 117.2 289.17 115.98 288.87 114.83 288.4 113.11 285.9 112.02 284.43 113.18Z" fill="#FFFFFF" opacity="0.46"/><path d="M283.28 146.06C285.08 146.75 287.04 147 288.95 146.78 286.52 142.67 286.4 137.65 286.34 132.89 286.36 134.34 285.01 136.59 284.72 138.17 284.22 140.85 284.22 143.43 283.28 146.06Z" fill="#916A4D"/></g><g><path d="M391.1 46.94C390.13 47.44 389.4 48.3 388.77 49.18 384.42 55.23 383.41 63.54 386.18 70.45 386.89 72.22 387.86 73.93 389.33 75.15 390.8 76.36 392.84 77.01 394.66 76.46 396.77 75.83 398.14 73.84 399.27 71.95 400.09 70.57 400.88 69.17 401.37 67.64 402.1 65.4 402.16 63.01 402.17 60.65 402.17 58.57 402.13 56.46 401.51 54.47 400.48 51.13 395.2 44.82 391.1 46.94Z" fill="#BBDB58"/><path d="M390.72 51.34C389.77 52.09 389.31 53.29 388.91 54.44 388.22 56.44 387.6 58.5 387.67 60.61 387.74 62.72 388.61 64.91 390.37 66.08 390.49 66.16 390.63 66.24 390.77 66.23 391.03 66.21 391.17 65.93 391.27 65.7 392.5 62.66 393.73 59.62 394.75 56.5 395.12 55.37 395.46 54.15 395.16 53 394.69 51.26 392.19 50.18 390.72 51.34Z" fill="#FFFFFF" opacity="0.46"/><path d="M389.57 84.22C391.37 84.91 393.33 85.16 395.24 84.94 392.81 80.83 392.69 75.81 392.63 71.04 392.65 72.49 391.3 74.74 391.01 76.32 390.51 79.01 390.51 81.59 389.57 84.22Z" fill="#916A4D"/></g><g><path d="M254.38 8.44C253.41 8.94 252.69 9.8 252.05 10.68 247.7 16.73 246.69 25.04 249.46 31.95 250.17 33.72 251.14 35.43 252.61 36.65 254.08 37.86 256.12 38.51 257.94 37.96 260.05 37.33 261.42 35.34 262.55 33.45 263.37 32.07 264.16 30.67 264.65 29.14 265.38 26.9 265.44 24.51 265.45 22.15 265.45 20.07 265.41 17.96 264.79 15.97 263.76 12.63 258.49 6.31 254.38 8.44Z" fill="#BBDB58"/><path d="M254.01 12.84C253.06 13.59 252.6 14.79 252.2 15.94 251.51 17.94 250.89 20 250.96 22.11 251.03 24.22 251.9 26.41 253.66 27.58 253.78 27.66 253.92 27.74 254.06 27.73 254.32 27.71 254.46 27.43 254.56 27.19 255.79 24.15 257.02 21.11 258.04 17.99 258.41 16.86 258.75 15.64 258.45 14.49 257.98 12.76 255.47 11.68 254.01 12.84Z" fill="#FFFFFF" opacity="0.46"/><path d="M252.85 45.72C254.65 46.41 256.61 46.66 258.52 46.44 256.09 42.33 255.97 37.31 255.91 32.54 255.93 33.99 254.58 36.24 254.29 37.82 253.79 40.51 253.79 43.09 252.85 45.72Z" fill="#916A4D"/></g><g><path d="M330.73 236.28C329.76 236.78 329.04 237.64 328.4 238.52 324.04 244.57 323.04 252.88 325.82 259.79 326.53 261.56 327.5 263.27 328.97 264.49 330.44 265.7 332.48 266.35 334.3 265.8 336.41 265.17 337.78 263.18 338.91 261.29 339.73 259.91 340.52 258.51 341.01 256.98 341.74 254.74 341.8 252.35 341.81 249.99 341.81 247.91 341.77 245.8 341.15 243.81 340.11 240.47 334.84 234.16 330.73 236.28Z" fill="#BBDB58"/><path d="M330.36 240.68C329.41 241.43 328.95 242.63 328.55 243.78 327.86 245.78 327.24 247.84 327.31 249.95 327.38 252.06 328.25 254.25 330.01 255.42 330.13 255.5 330.27 255.58 330.41 255.57 330.67 255.55 330.81 255.27 330.91 255.03 332.14 251.99 333.37 248.95 334.39 245.83 334.76 244.7 335.1 243.48 334.8 242.33 334.32 240.61 331.82 239.52 330.36 240.68Z" fill="#FFFFFF" opacity="0.46"/><path d="M329.2 273.56C331 274.25 332.96 274.5 334.87 274.28 332.44 270.17 332.32 265.15 332.26 260.39 332.28 261.84 330.93 264.09 330.64 265.67 330.14 268.36 330.14 270.94 329.2 273.56Z" fill="#916A4D"/></g><g><path d="M305.69 217.5C304.72 218 303.99 218.86 303.36 219.74 299.01 225.79 298 234.1 300.77 241.01 301.48 242.78 302.45 244.49 303.92 245.71 305.39 246.92 307.43 247.57 309.25 247.02 311.36 246.39 312.73 244.4 313.86 242.51 314.68 241.13 315.47 239.73 315.96 238.2 316.69 235.96 316.76 233.57 316.76 231.21 316.76 229.13 316.72 227.02 316.1 225.03 315.07 221.69 309.79 215.38 305.69 217.5Z" fill="#BBDB58"/><path d="M305.31 221.9C304.36 222.65 303.9 223.85 303.5 225 302.81 227 302.19 229.06 302.26 231.17 302.33 233.28 303.2 235.47 304.96 236.64 305.08 236.72 305.22 236.8 305.36 236.79 305.62 236.77 305.76 236.49 305.86 236.25 307.09 233.21 308.32 230.17 309.34 227.05 309.71 225.92 310.05 224.7 309.75 223.55 309.28 221.82 306.78 220.74 305.31 221.9Z" fill="#FFFFFF" opacity="0.46"/><path d="M304.16 254.78C305.96 255.47 307.92 255.72 309.83 255.5 307.4 251.39 307.28 246.37 307.22 241.6 307.24 243.05 305.89 245.3 305.6 246.88 305.1 249.57 305.1 252.15 304.16 254.78Z" fill="#916A4D"/></g><g><path d="M339.51 181.71C338.54 182.21 337.81 183.07 337.18 183.95 332.82 190 331.82 198.31 334.59 205.22 335.3 206.99 336.27 208.7 337.74 209.92 339.21 211.13 341.25 211.78 343.07 211.23 345.18 210.6 346.55 208.61 347.68 206.72 348.5 205.34 349.29 203.94 349.78 202.41 350.51 200.17 350.57 197.78 350.58 195.42 350.58 193.34 350.54 191.23 349.92 189.24 348.89 185.89 343.61 179.58 339.51 181.71Z" fill="#BBDB58"/><path d="M339.13 186.1C338.18 186.85 337.72 188.05 337.32 189.2 336.63 191.2 336.01 193.26 336.08 195.37 336.15 197.48 337.02 199.67 338.78 200.84 338.9 200.92 339.04 201 339.18 200.99 339.44 200.97 339.58 200.69 339.68 200.45 340.91 197.41 342.14 194.37 343.16 191.25 343.53 190.12 343.87 188.9 343.57 187.75 343.1 186.03 340.6 184.94 339.13 186.1Z" fill="#FFFFFF" opacity="0.46"/><path d="M337.97 218.98C339.77 219.66 341.73 219.92 343.64 219.7 341.21 215.59 341.09 210.57 341.03 205.81 341.05 207.26 339.7 209.51 339.41 211.09 338.92 213.78 338.92 216.36 337.97 218.98Z" fill="#916A4D"/></g><g><path d="M284.81 158.28C283.84 158.78 283.11 159.64 282.48 160.52 278.12 166.57 277.12 174.88 279.89 181.79 280.6 183.56 281.57 185.28 283.04 186.49 284.51 187.7 286.55 188.35 288.37 187.8 290.48 187.17 291.85 185.18 292.98 183.29 293.8 181.91 294.59 180.51 295.08 178.98 295.81 176.74 295.87 174.35 295.88 171.99 295.88 169.91 295.84 167.8 295.22 165.81 294.19 162.47 288.91 156.15 284.81 158.28Z" fill="#BBDB58"/><path d="M284.43 162.67C283.48 163.42 283.02 164.62 282.62 165.77 281.93 167.77 281.31 169.83 281.38 171.94 281.45 174.05 282.32 176.24 284.08 177.41 284.2 177.49 284.34 177.57 284.48 177.56 284.74 177.54 284.88 177.26 284.98 177.02 286.21 173.98 287.44 170.94 288.46 167.82 288.83 166.69 289.17 165.47 288.87 164.32 288.4 162.6 285.9 161.52 284.43 162.67Z" fill="#FFFFFF" opacity="0.46"/><path d="M283.28 195.55C285.08 196.24 287.04 196.49 288.95 196.27 286.52 192.16 286.4 187.14 286.34 182.38 286.36 183.83 285.01 186.08 284.72 187.66 284.22 190.35 284.22 192.93 283.28 195.55Z" fill="#916A4D"/></g><g><path d="M407.58 163.16C406.61 163.66 405.89 164.52 405.25 165.4 400.89 171.45 399.89 179.76 402.66 186.67 403.37 188.44 404.34 190.15 405.81 191.37 407.28 192.58 409.32 193.23 411.14 192.68 413.25 192.05 414.62 190.06 415.75 188.17 416.57 186.79 417.36 185.39 417.85 183.86 418.58 181.62 418.64 179.23 418.65 176.87 418.65 174.79 418.61 172.68 417.99 170.69 416.96 167.35 411.69 161.03 407.58 163.16Z" fill="#BBDB58"/><path d="M407.21 167.55C406.26 168.3 405.8 169.5 405.4 170.65 404.71 172.65 404.09 174.71 404.16 176.82 404.23 178.93 405.1 181.12 406.86 182.29 406.98 182.37 407.12 182.45 407.26 182.44 407.52 182.42 407.66 182.14 407.76 181.9 408.99 178.86 410.22 175.82 411.24 172.7 411.61 171.57 411.95 170.35 411.65 169.2 411.17 167.48 408.67 166.4 407.21 167.55Z" fill="#FFFFFF" opacity="0.46"/><path d="M406.05 200.43C407.85 201.11 409.81 201.37 411.72 201.15 409.29 197.04 409.17 192.02 409.11 187.26 409.13 188.71 407.78 190.96 407.49 192.54 406.99 195.23 406.99 197.81 406.05 200.43Z" fill="#916A4D"/></g><g><path d="M371.13 192.6C370.16 193.1 369.44 193.96 368.8 194.84 364.44 200.89 363.44 209.2 366.21 216.11 366.92 217.88 367.89 219.6 369.36 220.81 370.83 222.02 372.87 222.67 374.69 222.12 376.8 221.49 378.17 219.5 379.3 217.61 380.12 216.23 380.91 214.83 381.4 213.3 382.13 211.06 382.19 208.67 382.2 206.31 382.2 204.23 382.16 202.12 381.54 200.13 380.51 196.79 375.24 190.48 371.13 192.6Z" fill="#BBDB58"/><path d="M370.76 197C369.81 197.75 369.35 198.95 368.95 200.1 368.26 202.1 367.64 204.16 367.71 206.27 367.78 208.38 368.65 210.57 370.41 211.74 370.53 211.82 370.67 211.9 370.81 211.89 371.07 211.87 371.21 211.59 371.31 211.35 372.54 208.31 373.77 205.27 374.79 202.15 375.16 201.02 375.5 199.8 375.2 198.65 374.72 196.92 372.22 195.84 370.76 197Z" fill="#FFFFFF" opacity="0.46"/><path d="M369.6 229.88C371.4 230.57 373.36 230.82 375.27 230.6 372.84 226.49 372.72 221.47 372.66 216.71 372.68 218.16 371.33 220.41 371.04 221.99 370.54 224.67 370.54 227.25 369.6 229.88Z" fill="#916A4D"/></g><g><path d="M354.04 250C353.07 250.5 352.35 251.36 351.71 252.24 347.35 258.29 346.35 266.6 349.12 273.51 349.83 275.28 350.8 276.99 352.27 278.21 353.74 279.42 355.78 280.07 357.6 279.52 359.71 278.89 361.08 276.9 362.21 275.01 363.03 273.63 363.82 272.23 364.31 270.7 365.04 268.46 365.1 266.07 365.11 263.71 365.11 261.63 365.07 259.52 364.45 257.53 363.42 254.19 358.15 247.88 354.04 250Z" fill="#BBDB58"/><path d="M353.67 254.4C352.72 255.15 352.26 256.35 351.86 257.5 351.17 259.5 350.55 261.56 350.62 263.67 350.69 265.78 351.56 267.97 353.32 269.14 353.44 269.22 353.58 269.3 353.72 269.29 353.98 269.27 354.12 268.99 354.22 268.75 355.45 265.71 356.68 262.67 357.7 259.55 358.07 258.42 358.41 257.2 358.11 256.05 357.64 254.33 355.13 253.24 353.67 254.4Z" fill="#FFFFFF" opacity="0.46"/><path d="M352.51 287.28C354.31 287.97 356.27 288.22 358.18 288 355.75 283.89 355.63 278.87 355.57 274.11 355.59 275.56 354.24 277.81 353.95 279.39 353.45 282.08 353.45 284.66 352.51 287.28Z" fill="#916A4D"/></g><g><path d="M389.16 258.08C388.19 258.58 387.47 259.44 386.83 260.32 382.48 266.37 381.47 274.68 384.24 281.59 384.95 283.36 385.92 285.08 387.39 286.29 388.86 287.5 390.9 288.15 392.72 287.6 394.83 286.97 396.2 284.98 397.33 283.09 398.15 281.71 398.94 280.31 399.43 278.78 400.16 276.54 400.22 274.15 400.23 271.79 400.23 269.71 400.19 267.6 399.57 265.61 398.54 262.26 393.27 255.95 389.16 258.08Z" fill="#BBDB58"/><path d="M388.78 262.47C387.83 263.22 387.37 264.42 386.97 265.57 386.28 267.57 385.66 269.63 385.73 271.74 385.8 273.85 386.67 276.04 388.43 277.21 388.55 277.29 388.69 277.37 388.83 277.36 389.09 277.34 389.23 277.06 389.33 276.82 390.56 273.78 391.79 270.74 392.81 267.62 393.18 266.49 393.52 265.27 393.22 264.12 392.75 262.4 390.25 261.31 388.78 262.47Z" fill="#FFFFFF" opacity="0.46"/><path d="M387.63 295.35C389.43 296.04 391.39 296.29 393.3 296.07 390.87 291.96 390.75 286.94 390.69 282.18 390.71 283.63 389.36 285.88 389.07 287.46 388.57 290.15 388.57 292.73 387.63 295.35Z" fill="#916A4D"/></g><g><path d="M476.95 98.52C475.98 99.02 475.26 99.88 474.62 100.76 470.26 106.81 469.26 115.12 472.03 122.03 472.74 123.8 473.71 125.52 475.18 126.73 476.65 127.94 478.69 128.59 480.51 128.04 482.62 127.41 483.99 125.42 485.12 123.53 485.94 122.15 486.73 120.75 487.22 119.22 487.95 116.98 488.01 114.59 488.02 112.23 488.02 110.15 487.98 108.04 487.36 106.05 486.33 102.71 481.06 96.4 476.95 98.52Z" fill="#BBDB58"/><path d="M476.58 102.92C475.63 103.67 475.17 104.87 474.77 106.02 474.08 108.02 473.46 110.08 473.53 112.19 473.6 114.3 474.47 116.49 476.23 117.66 476.35 117.74 476.49 117.82 476.63 117.81 476.89 117.79 477.03 117.51 477.13 117.27 478.36 114.23 479.59 111.19 480.61 108.07 480.98 106.94 481.32 105.72 481.02 104.57 480.55 102.84 478.04 101.76 476.58 102.92Z" fill="#FFFFFF" opacity="0.46"/><path d="M475.42 135.8C477.22 136.49 479.18 136.74 481.09 136.52 478.66 132.41 478.54 127.39 478.48 122.63 478.5 124.08 477.15 126.33 476.86 127.91 476.36 130.59 476.36 133.17 475.42 135.8Z" fill="#916A4D"/></g><g><path d="M498.3 64.36C497.33 64.86 496.61 65.72 495.97 66.6 491.61 72.65 490.61 80.96 493.38 87.87 494.09 89.64 495.06 91.36 496.53 92.57 498 93.78 500.04 94.43 501.86 93.88 503.97 93.25 505.34 91.26 506.47 89.37 507.29 87.99 508.08 86.59 508.57 85.06 509.3 82.82 509.36 80.43 509.37 78.07 509.37 75.99 509.33 73.88 508.71 71.89 507.68 68.55 502.41 62.24 498.3 64.36Z" fill="#BBDB58"/><path d="M497.93 68.76C496.98 69.51 496.52 70.71 496.12 71.86 495.43 73.86 494.81 75.92 494.88 78.03 494.95 80.14 495.82 82.33 497.58 83.5 497.7 83.58 497.84 83.66 497.98 83.65 498.24 83.63 498.38 83.35 498.48 83.11 499.71 80.07 500.94 77.03 501.96 73.91 502.33 72.78 502.67 71.56 502.37 70.41 501.9 68.69 499.39 67.6 497.93 68.76Z" fill="#FFFFFF" opacity="0.46"/><path d="M496.77 101.64C498.57 102.33 500.53 102.58 502.44 102.36 500.01 98.25 499.89 93.23 499.83 88.47 499.85 89.92 498.5 92.17 498.21 93.75 497.71 96.44 497.71 99.01 496.77 101.64Z" fill="#916A4D"/></g><g><path d="M456.47 59.21C455.5 59.71 454.77 60.57 454.14 61.45 449.78 67.5 448.78 75.81 451.55 82.72 452.26 84.49 453.23 86.2 454.7 87.42 456.17 88.63 458.21 89.28 460.03 88.73 462.14 88.1 463.51 86.11 464.64 84.22 465.46 82.84 466.25 81.44 466.74 79.91 467.47 77.67 467.53 75.28 467.54 72.92 467.54 70.84 467.5 68.73 466.88 66.74 465.86 63.4 460.58 57.08 456.47 59.21Z" fill="#BBDB58"/><path d="M456.1 63.6C455.15 64.35 454.69 65.56 454.29 66.7 453.6 68.7 452.98 70.76 453.05 72.87 453.12 74.98 453.99 77.17 455.75 78.34 455.87 78.42 456.01 78.5 456.15 78.49 456.41 78.47 456.55 78.19 456.65 77.95 457.88 74.91 459.11 71.87 460.13 68.75 460.5 67.62 460.84 66.4 460.54 65.25 460.07 63.53 457.57 62.45 456.1 63.6Z" fill="#FFFFFF" opacity="0.46"/><path d="M454.94 96.48C456.74 97.17 458.7 97.42 460.61 97.2 458.18 93.09 458.06 88.07 458 83.31 458.02 84.76 456.67 87.01 456.38 88.59 455.88 91.28 455.88 93.86 454.94 96.48Z" fill="#916A4D"/></g><g><path d="M314.46 281.99C313.49 282.49 312.76 283.35 312.13 284.23 307.77 290.28 306.77 298.59 309.54 305.5 310.25 307.27 311.22 308.99 312.69 310.2 314.16 311.41 316.2 312.06 318.02 311.51 320.13 310.88 321.5 308.89 322.63 307 323.45 305.62 324.24 304.22 324.73 302.69 325.46 300.45 325.53 298.06 325.53 295.7 325.53 293.62 325.49 291.51 324.87 289.52 323.85 286.18 318.57 279.86 314.46 281.99Z" fill="#BBDB58"/><path d="M314.09 286.39C313.14 287.14 312.68 288.34 312.28 289.49 311.59 291.49 310.97 293.55 311.04 295.66 311.11 297.77 311.98 299.96 313.74 301.13 313.86 301.21 314 301.29 314.14 301.28 314.4 301.26 314.54 300.98 314.64 300.74 315.87 297.7 317.1 294.66 318.12 291.54 318.49 290.41 318.83 289.19 318.53 288.04 318.06 286.31 315.56 285.23 314.09 286.39Z" fill="#FFFFFF" opacity="0.46"/><path d="M312.93 319.27C314.73 319.96 316.69 320.21 318.6 319.99 316.17 315.88 316.05 310.86 315.99 306.1 316.01 307.55 314.66 309.8 314.37 311.38 313.87 314.06 313.87 316.64 312.93 319.27Z" fill="#916A4D"/></g><g><path d="M599.25 246.07C598.28 246.57 597.55 247.43 596.92 248.31 592.56 254.36 591.56 262.67 594.33 269.58 595.04 271.35 596.01 273.06 597.48 274.28 598.95 275.49 600.99 276.14 602.81 275.59 604.92 274.96 606.29 272.97 607.42 271.08 608.24 269.7 609.03 268.3 609.52 266.77 610.25 264.53 610.31 262.14 610.32 259.78 610.32 257.7 610.28 255.59 609.66 253.6 608.63 250.26 603.36 243.95 599.25 246.07Z" fill="#BBDB58"/><path d="M598.87 250.47C597.92 251.22 597.46 252.42 597.06 253.57 596.37 255.57 595.75 257.63 595.82 259.74 595.89 261.85 596.76 264.04 598.52 265.21 598.64 265.29 598.78 265.37 598.92 265.36 599.18 265.34 599.32 265.06 599.42 264.82 600.65 261.78 601.88 258.74 602.9 255.62 603.27 254.49 603.61 253.27 603.31 252.12 602.84 250.4 600.34 249.31 598.87 250.47Z" fill="#FFFFFF" opacity="0.46"/><path d="M597.72 283.35C599.52 284.04 601.48 284.29 603.39 284.07 600.96 279.96 600.84 274.94 600.78 270.17 600.8 271.62 599.45 273.87 599.16 275.45 598.66 278.15 598.66 280.72 597.72 283.35Z" fill="#916A4D"/></g><g><path d="M629.11 269.25C628.14 269.75 627.42 270.61 626.78 271.49 622.42 277.54 621.42 285.85 624.19 292.76 624.9 294.53 625.87 296.24 627.34 297.46 628.81 298.67 630.85 299.32 632.67 298.77 634.78 298.14 636.15 296.15 637.28 294.26 638.1 292.88 638.89 291.48 639.38 289.95 640.11 287.71 640.17 285.32 640.18 282.96 640.18 280.88 640.14 278.77 639.52 276.78 638.49 273.44 633.21 267.13 629.11 269.25Z" fill="#BBDB58"/><path d="M628.73 273.65C627.78 274.4 627.32 275.6 626.92 276.75 626.23 278.75 625.61 280.81 625.68 282.92 625.75 285.03 626.62 287.22 628.38 288.39 628.5 288.47 628.64 288.55 628.78 288.54 629.04 288.52 629.18 288.24 629.28 288 630.51 284.96 631.74 281.92 632.76 278.8 633.13 277.67 633.47 276.45 633.17 275.3 632.7 273.58 630.2 272.49 628.73 273.65Z" fill="#FFFFFF" opacity="0.46"/><path d="M627.57 306.53C629.37 307.22 631.33 307.47 633.24 307.25 630.81 303.14 630.69 298.12 630.63 293.36 630.65 294.81 629.3 297.06 629.01 298.64 628.51 301.33 628.52 303.91 627.57 306.53Z" fill="#916A4D"/></g><g><path d="M578.47 281.52C577.5 282.02 576.77 282.88 576.14 283.76 571.79 289.81 570.78 298.12 573.55 305.03 574.26 306.8 575.23 308.51 576.7 309.73 578.17 310.94 580.21 311.59 582.03 311.04 584.14 310.41 585.51 308.42 586.64 306.53 587.46 305.15 588.25 303.75 588.74 302.22 589.47 299.98 589.53 297.59 589.54 295.23 589.54 293.15 589.5 291.04 588.88 289.05 587.86 285.71 582.58 279.4 578.47 281.52Z" fill="#BBDB58"/><path d="M578.1 285.92C577.15 286.67 576.69 287.87 576.29 289.02 575.6 291.02 574.98 293.08 575.05 295.19 575.12 297.3 575.99 299.49 577.75 300.66 577.87 300.74 578.01 300.82 578.15 300.81 578.41 300.79 578.55 300.51 578.65 300.27 579.88 297.23 581.11 294.19 582.13 291.07 582.5 289.94 582.84 288.72 582.54 287.57 582.07 285.84 579.57 284.76 578.1 285.92Z" fill="#FFFFFF" opacity="0.46"/><path d="M576.94 318.8C578.74 319.49 580.7 319.74 582.61 319.52 580.18 315.41 580.06 310.39 580 305.62 580.02 307.07 578.67 309.32 578.38 310.9 577.88 313.59 577.88 316.17 576.94 318.8Z" fill="#916A4D"/></g><g><path d="M491.47 241.9C490.5 242.4 489.77 243.26 489.14 244.14 484.78 250.19 483.78 258.5 486.55 265.41 487.26 267.18 488.23 268.89 489.7 270.11 491.17 271.32 493.21 271.97 495.03 271.42 497.14 270.79 498.51 268.8 499.64 266.91 500.46 265.53 501.25 264.13 501.74 262.6 502.47 260.36 502.53 257.97 502.54 255.61 502.54 253.53 502.5 251.42 501.88 249.43 500.85 246.08 495.57 239.77 491.47 241.9Z" fill="#BBDB58"/><path d="M491.09 246.29C490.14 247.04 489.68 248.24 489.28 249.39 488.59 251.39 487.97 253.45 488.04 255.56 488.11 257.67 488.98 259.86 490.74 261.03 490.86 261.11 491 261.19 491.14 261.18 491.4 261.16 491.54 260.88 491.64 260.64 492.87 257.6 494.1 254.56 495.12 251.44 495.49 250.31 495.83 249.09 495.53 247.94 495.06 246.22 492.56 245.13 491.09 246.29Z" fill="#FFFFFF" opacity="0.46"/><path d="M489.93 279.17C491.73 279.86 493.69 280.11 495.6 279.89 493.17 275.78 493.05 270.76 492.99 265.99 493.01 267.44 491.66 269.69 491.37 271.27 490.87 273.97 490.88 276.55 489.93 279.17Z" fill="#916A4D"/></g><g><path d="M679.75 204.3C678.78 204.8 678.05 205.66 677.42 206.54 673.06 212.59 672.05 220.9 674.83 227.81 675.54 229.58 676.51 231.29 677.98 232.51 679.45 233.72 681.49 234.37 683.31 233.82 685.42 233.19 686.79 231.2 687.92 229.31 688.74 227.93 689.53 226.53 690.02 225 690.75 222.76 690.81 220.37 690.82 218.01 690.82 215.93 690.78 213.82 690.16 211.83 689.14 208.49 683.86 202.17 679.75 204.3Z" fill="#BBDB58"/><path d="M679.38 208.7C678.43 209.45 677.97 210.65 677.57 211.8 676.88 213.8 676.26 215.86 676.33 217.97 676.4 220.08 677.27 222.27 679.03 223.44 679.15 223.52 679.29 223.6 679.43 223.59 679.69 223.57 679.83 223.29 679.93 223.05 681.16 220.01 682.39 216.97 683.41 213.85 683.78 212.72 684.12 211.5 683.82 210.35 683.35 208.62 680.85 207.54 679.38 208.7Z" fill="#FFFFFF" opacity="0.46"/><path d="M678.22 241.58C680.02 242.27 681.98 242.52 683.89 242.3 681.46 238.19 681.34 233.17 681.28 228.4 681.3 229.85 679.95 232.1 679.66 233.68 679.16 236.37 679.16 238.95 678.22 241.58Z" fill="#916A4D"/></g><g><path d="M646.66 189.63C645.69 190.13 644.96 190.99 644.33 191.87 639.97 197.92 638.97 206.23 641.74 213.14 642.45 214.91 643.42 216.62 644.89 217.84 646.36 219.05 648.4 219.7 650.22 219.15 652.33 218.52 653.7 216.53 654.83 214.64 655.65 213.26 656.44 211.86 656.93 210.33 657.66 208.09 657.72 205.7 657.73 203.34 657.73 201.26 657.69 199.15 657.07 197.16 656.04 193.82 650.76 187.5 646.66 189.63Z" fill="#BBDB58"/><path d="M646.28 194.03C645.33 194.78 644.87 195.98 644.47 197.13 643.78 199.13 643.16 201.19 643.23 203.3 643.3 205.41 644.17 207.6 645.93 208.77 646.05 208.85 646.19 208.93 646.33 208.92 646.59 208.9 646.73 208.62 646.83 208.38 648.06 205.34 649.29 202.3 650.31 199.18 650.68 198.05 651.02 196.83 650.72 195.68 650.25 193.95 647.75 192.87 646.28 194.03Z" fill="#FFFFFF" opacity="0.46"/><path d="M645.12 226.91C646.92 227.6 648.88 227.85 650.79 227.63 648.36 223.52 648.24 218.5 648.18 213.73 648.2 215.18 646.85 217.43 646.56 219.01 646.06 221.7 646.07 224.28 645.12 226.91Z" fill="#916A4D"/></g><g><path d="M667.14 167.74C666.17 168.24 665.45 169.1 664.81 169.98 660.45 176.03 659.45 184.34 662.22 191.25 662.93 193.02 663.9 194.73 665.37 195.95 666.84 197.16 668.88 197.81 670.7 197.26 672.81 196.63 674.18 194.64 675.31 192.75 676.13 191.37 676.92 189.97 677.41 188.44 678.14 186.2 678.2 183.81 678.21 181.45 678.21 179.37 678.17 177.26 677.55 175.27 676.52 171.93 671.24 165.61 667.14 167.74Z" fill="#BBDB58"/><path d="M666.76 172.13C665.81 172.88 665.35 174.08 664.95 175.23 664.26 177.23 663.64 179.29 663.71 181.4 663.78 183.51 664.65 185.7 666.41 186.87 666.53 186.95 666.67 187.03 666.81 187.02 667.07 187 667.21 186.72 667.31 186.48 668.54 183.44 669.77 180.4 670.79 177.28 671.16 176.15 671.5 174.93 671.2 173.78 670.73 172.06 668.23 170.98 666.76 172.13Z" fill="#FFFFFF" opacity="0.46"/><path d="M665.6 205.01C667.4 205.7 669.36 205.95 671.27 205.73 668.84 201.62 668.72 196.6 668.66 191.84 668.68 193.29 667.33 195.54 667.04 197.12 666.55 199.81 666.55 202.39 665.6 205.01Z" fill="#916A4D"/></g><path d="M530.68 108.68C530.99 111.81 531.53 115 533.04 117.76 534.55 120.52 537.18 122.83 540.3 123.26 540.78 123.33 541.31 123.34 541.71 123.07 542.17 122.76 542.35 122.18 542.48 121.65 544.12 114.79 542.59 107.24 538.4 101.57 540.97 104.37 543.54 107.17 546.12 109.97 548 112.01 550.03 114.15 552.71 114.86 555.39 115.56 558.83 114.1 559.15 111.34 559.42 108.93 557.35 106.96 555.47 105.43 552.41 102.93 549.34 100.43 546.28 97.93 551.56 100.14 557.52 102.37 562.85 100.27 565.83 99.1 568.41 95.78 567.17 92.83 566.12 90.34 563.05 89.5 560.37 89.16 553.04 88.21 542.53 87.63 535.61 90.8 528.49 94.05 529.95 101.28 530.68 108.68Z" fill="#779645"/><path d="M450.93 170.17C449.8 172 449.45 175.06 451.5 175.73 452.43 176.03 453.43 175.63 454.32 175.23 459.83 172.78 465.34 170.33 470.84 167.87 464.66 172.67 459.96 179.37 457.55 186.82 457.02 188.45 456.6 190.18 456.87 191.88 457.14 193.58 458.25 195.24 459.91 195.69 462.59 196.43 464.98 193.91 466.49 191.58 470.15 185.94 472.95 179.74 474.74 173.26 472.32 180.06 474.88 188.32 480.72 192.56 481.44 193.08 482.35 193.56 483.17 193.22 484.12 192.82 484.34 191.6 484.39 190.58 484.74 183.65 483.45 163.45 476.1 159.63 469.4 156.15 454.38 164.59 450.93 170.17Z" fill="#779645"/><path d="M191.91 132.73C190.78 134.56 190.43 137.62 192.48 138.29 193.41 138.59 194.41 138.19 195.3 137.79 200.81 135.34 206.31 132.89 211.82 130.43 205.63 135.23 200.94 141.93 198.53 149.38 198 151.01 197.58 152.74 197.85 154.44 198.12 156.14 199.23 157.8 200.89 158.25 203.57 158.99 205.96 156.47 207.47 154.14 211.13 148.5 213.93 142.3 215.72 135.82 213.3 142.62 215.86 150.88 221.7 155.12 222.42 155.64 223.33 156.12 224.15 155.78 225.1 155.39 225.32 154.16 225.37 153.14 225.72 146.21 224.43 126.01 217.08 122.19 210.38 118.71 195.37 127.15 191.91 132.73Z" fill="#779645"/><path d="M86.34 255.16C84.23 255.58 81.75 257.42 82.66 259.37 83.07 260.26 84.05 260.71 84.95 261.09 90.5 263.44 96.05 265.79 101.6 268.14 93.87 266.9 85.77 268.03 78.68 271.36 77.12 272.09 75.57 272.96 74.52 274.31 73.46 275.66 73.01 277.61 73.8 279.13 75.09 281.59 78.56 281.62 81.3 281.14 87.92 279.97 94.36 277.78 100.32 274.67 93.69 277.54 89.41 285.05 90.3 292.21 90.41 293.09 90.68 294.09 91.49 294.45 92.43 294.87 93.47 294.2 94.25 293.54 99.56 289.07 113.44 274.34 111.21 266.36 109.19 259.09 92.78 253.88 86.34 255.16Z" fill="#779645"/><path d="M282.88 12.93C280.77 13.35 278.29 15.19 279.2 17.14 279.62 18.03 280.59 18.48 281.49 18.86 287.04 21.21 292.59 23.56 298.14 25.92 290.41 24.68 282.31 25.81 275.22 29.14 273.66 29.87 272.11 30.74 271.06 32.09 270 33.44 269.55 35.39 270.34 36.91 271.63 39.37 275.1 39.4 277.84 38.92 284.46 37.75 290.9 35.56 296.86 32.45 290.23 35.32 285.95 42.82 286.84 49.99 286.95 50.87 287.22 51.87 288.03 52.23 288.97 52.65 290.01 51.98 290.79 51.32 296.1 46.85 309.98 32.12 307.75 24.14 305.73 16.86 289.32 11.64 282.88 12.93Z" fill="#779645"/><path d="M512.95 311.75C514.47 313.27 517.37 314.31 518.49 312.47 519 311.63 518.83 310.57 518.65 309.61 517.52 303.69 516.4 297.76 515.27 291.84 518.53 298.96 523.97 305.06 530.67 309.11 532.14 310 533.73 310.81 535.44 310.93 537.15 311.06 539.03 310.36 539.85 308.85 541.18 306.41 539.28 303.51 537.36 301.5 532.71 296.64 527.31 292.5 521.41 289.27 527.48 293.18 536.1 292.58 541.56 287.87 542.23 287.29 542.91 286.51 542.76 285.64 542.59 284.63 541.45 284.13 540.47 283.85 533.8 281.92 513.84 278.55 508.45 284.83 503.53 290.57 508.31 307.11 512.95 311.75Z" fill="#779645"/><path d="M674.91 187.35C676.91 188.16 679.99 187.98 680.29 185.85 680.43 184.88 679.86 183.97 679.32 183.15 675.97 178.14 672.62 173.13 669.26 168.12 675.04 173.4 682.44 176.89 690.19 177.99 691.89 178.23 693.67 178.36 695.29 177.8 696.92 177.25 698.37 175.87 698.53 174.16 698.8 171.4 695.91 169.46 693.36 168.37 687.18 165.72 680.59 164.02 673.9 163.35 681.02 164.58 688.71 160.66 691.9 154.18 692.29 153.39 692.61 152.4 692.13 151.65 691.58 150.78 690.34 150.78 689.32 150.9 682.43 151.73 662.74 156.43 660.23 164.33 657.95 171.54 668.82 184.9 674.91 187.35Z" fill="#779645"/><path d="M231.28 230.63C230.15 231.81 229.01 233.48 229.74 234.94 236.51 234.43 243.17 232.45 249.12 229.19 244.31 234.56 241.98 242.08 242.91 249.23 243.08 250.53 243.37 251.87 244.19 252.91 245 253.94 246.46 254.57 247.67 254.06 248.42 253.74 248.95 253.07 249.42 252.39 253.78 246.07 255.16 237.78 253.08 230.39 253.01 234.39 253.82 238.39 255.43 242.05 256.3 244.02 257.44 245.94 259.15 247.25 260.85 248.57 263.21 249.19 265.22 248.41 268.01 247.33 269.27 243.9 268.83 240.94 268.39 237.98 266.64 235.41 264.91 232.97 260.9 227.31 256.98 217.96 249.86 218.75 243.34 219.48 235.6 226.12 231.28 230.63Z" fill="#779645"/><path d="M328.97 182.85C328.01 184.23 327.29 186.06 328.04 187.56 329.25 189.98 332.85 189.44 335.32 188.34 341.47 185.58 347.04 181.54 351.57 176.54 349.74 180.73 347.89 184.97 347.07 189.47 346.25 193.97 346.55 198.83 348.81 202.8 349.91 204.74 352.2 206.59 354.18 205.57 355.47 204.9 355.95 203.33 356.26 201.92 357.83 194.9 358.52 187.67 358.29 180.48 358.83 185.03 359.54 189.69 361.81 193.67 364.08 197.65 368.24 200.86 372.82 200.74 373.46 200.72 374.13 200.63 374.65 200.26 375.22 199.86 375.53 199.18 375.7 198.51 376.43 195.61 375 192.66 373.57 190.03 368.8 181.26 362.7 171.97 353.05 169.39 351.7 169.03 343.46 173.89 340.94 174.88 336.41 176.65 331.84 178.73 328.97 182.85Z" fill="#779645"/><path d="M321.89 90.78C323.31 93.18 325.39 95.12 327.62 96.8 328.5 97.47 329.5 98.12 330.6 98.09 332.1 98.05 333.28 96.73 333.8 95.33 334.69 92.91 334.15 90.22 333.43 87.74 332.19 83.5 330.45 79.41 328.24 75.58 334.34 82.49 341.31 89.88 350.48 90.85 353.61 91.18 357.59 89.97 357.96 86.85 358.22 84.65 356.49 82.76 354.78 81.35 349.71 77.16 343.63 74.2 337.21 72.79 340.91 74 344.84 74.49 348.72 74.24 350.75 74.11 352.96 73.66 354.23 72.07 355.42 70.59 355.44 68.38 354.58 66.69 353.72 65 352.11 63.78 350.36 63.04 345.47 60.98 339.88 62.42 334.78 63.88 329.94 65.26 322.59 65.54 320.3 70.47 317.88 75.7 319.07 85.98 321.89 90.78Z" fill="#779645"/><path d="M567.41 579.3C535.49 590.78 502.95 602.4 468.8 604.35 453.13 605.25 437.4 604.08 421.7 604.25 384.77 604.65 348.28 612.44 311.35 613.08 272.29 613.75 233.65 606.43 195.37 599.14 168.31 593.99 141.26 588.83 114.21 583.68 231.4 578.18 350.23 581.23 467.82 580.18 484.59 580.03 501.37 579.88 518.14 579.73 526.53 579.65 534.91 579.58 543.3 579.51 549.63 579.46 561.55 581.43 567.41 579.3Z" fill="#A1D86C"/></g></svg>