<svg width="806.46" height="518.09" viewBox="0 0 806.46 518.09" xmlns="http://www.w3.org/2000/svg" xmlns:xlink="http://www.w3.org/1999/xlink" xml:space="preserve" overflow="hidden"><defs></defs><g><path d="M79.58 176.44C79.58 176.44 129 445.58 157.77 471.39 221.55 528.62 579.29 530.29 654.14 471.39 693.98 440.05 723.48 170.91 723.48 170.91L79.58 176.44Z" stroke="#991128" stroke-width="6.3117" stroke-linecap="round" stroke-linejoin="round" fill="#D82341"/><path d="M146.61 246.46C113.82 234.91 151.83 392.07 200.49 441.77 249.15 491.47 370.04 507.9 463.93 481.96 556.86 456.28 624.81 284.51 521.93 297.56 464.1 304.9 287.32 296.04 146.61 246.46Z" fill="#F73959"/><path d="M391.07 88.57C27.11 88.57-101.87 255.1 405.41 255.1 912.68 255.1 769.37 88.57 391.07 88.57Z" stroke="#3E627C" stroke-width="6.3117" stroke-linecap="round" stroke-linejoin="round" fill="#8FB2D1"/><path d="M393.42 91.87C88.83 91.87-74.34 233.37 407.03 233.37 888.4 233.38 712.8 91.87 393.42 91.87Z" fill="#B3E3F9"/><path d="M213.34 120.44C443.92 76.81 597.39 155.97 400.4 202.1 203.4 248.24-36.39 167.7 213.34 120.44Z" fill="#D9FCFF"/><path d="M396.04 77.13C268.87 77.13 223.57 134.04 400.82 134.04 578.05 134.04 528.22 77.13 396.04 77.13Z" stroke="#991128" stroke-width="6.3117" stroke-linecap="round" stroke-linejoin="round" fill="#D82341"/><path d="M457.96 83.66C441.73 78.13 429.19 48.63 452.06 44.33 474.93 40.03 494.1 3.16 401.91 3.16L397.48 3.16C305.28 3.16 324.46 40.03 347.33 44.33 370.2 48.63 357.66 78.13 341.43 83.66" stroke="#991128" stroke-width="6.3117" stroke-linecap="round" stroke-linejoin="round" fill="#D82341"/><path d="M346.05 18.37C352.69 26.21 375.37 28.05 401.37 28.51 427.37 28.97 405.79 46.94 367.63 42.8 329.46 38.64 334.99 19.29 346.05 18.37Z" fill="#F73959"/><path d="M324.48 92.1C307.89 90.72 287.42 105.93 320.06 117.45 352.7 128.97 414.65 128.05 415.2 118.83 415.76 109.61 400.82 104.54 400.82 104.54 400.82 104.54 347.71 109.61 324.48 92.1Z" fill="#F73959"/><path d="M269.53 126.67C269.53 126.67 148.57 152.48 150.04 172.14 151.52 191.8 191.35 209.01 214.95 205.32 238.56 201.63 309.35 142.64 309.35 142.64L269.53 126.67Z" fill="#FFFFFF"/><path d="M176.04 273.52C124.75 279.67 196.32 433.9 220.28 435.74 244.24 437.59 222.12 268 176.04 273.52Z" fill="#FFE9F2"/><path d="M682.35 256.93C673.41 262.72 671.24 297.49 679.79 305.78 685.96 311.77 757.12 310.85 779.34 307.16 792.97 304.9 799.82 285 801.13 281.81 804.54 273.51 803.69 245.86 800.27 233.88 796.85 221.9 713.97 222.82 713.97 222.82L709.69 253.24C709.7 253.25 690.9 251.4 682.35 256.93Z" stroke="#232323" stroke-width="6.3117" stroke-linecap="round" stroke-linejoin="round" fill="#444444"/><path d="M709.7 253.25 712.55 234.82C712.55 234.82 762.11 232.98 759.83 242.19 757.55 251.4 709.7 253.25 709.7 253.25Z" fill="#212223"/><path d="M699.02 255.09C688.79 256.23 672.52 266.61 704.57 271.68 736.61 276.75 765.24 268.45 775.07 266.15 784.9 263.85 800.71 238.04 794.3 231.13 787.89 224.22 735.95 223.71 732.35 226.06 716.11 236.66 768.24 229.29 769.1 242.19 769.94 255.09 711.41 253.71 699.02 255.09Z" fill="#656768"/><path d="M125.84 257.89C134.92 263.68 137.11 298.44 128.44 306.74 122.18 312.73 50.01 311.81 27.47 308.12 13.64 305.86 6.7 285.96 5.36 282.77 1.89 274.48 2.77 246.82 6.23 234.84 9.69 222.86 93.77 223.78 93.77 223.78L98.11 254.2C98.11 254.2 117.17 252.35 125.84 257.89Z" stroke="#232323" stroke-width="6.3117" stroke-linecap="round" stroke-linejoin="round" fill="#444444"/><path d="M98.11 254.2 95.21 235.77C95.21 235.77 44.94 233.93 47.25 243.14 49.57 252.35 98.11 254.2 98.11 254.2Z" fill="#212223"/><path d="M108.94 256.04C119.32 257.18 136.15 271.51 103.31 272.63 70.47 273.75 41.77 269.4 31.8 267.1 21.84 264.8 5.79 238.99 12.3 232.08 18.8 225.17 71.48 224.66 75.14 227.01 91.61 237.61 38.73 230.24 37.87 243.14 37 256.04 96.37 254.66 108.94 256.04Z" fill="#656768"/></g></svg>