<svg width="409.42" height="12.71" viewBox="0 0 409.42 12.71" xmlns="http://www.w3.org/2000/svg" xmlns:xlink="http://www.w3.org/1999/xlink" xml:space="preserve" overflow="hidden"><defs></defs><g><g><path d="M34.27 4.69 12.27 4.69C11.52 4.69 10.91 5.3 10.91 6.05L10.91 11.35C10.91 12.1 11.52 12.71 12.27 12.71L34.27 12.71C35.02 12.71 35.63 12.1 35.63 11.35L35.63 6.05C35.63 5.3 35.02 4.69 34.27 4.69Z" fill="#987A5F"/><path d="M74.59 4.69 52.59 4.69C51.84 4.69 51.23 5.3 51.23 6.05L51.23 11.35C51.23 12.1 51.84 12.71 52.59 12.71L74.59 12.71C75.34 12.71 75.95 12.1 75.95 11.35L75.95 6.05C75.95 5.3 75.34 4.69 74.59 4.69Z" fill="#987A5F"/><path d="M114.91 4.69 92.91 4.69C92.16 4.69 91.55 5.3 91.55 6.05L91.55 11.35C91.55 12.1 92.16 12.71 92.91 12.71L114.91 12.71C115.66 12.71 116.27 12.1 116.27 11.35L116.27 6.05C116.27 5.3 115.66 4.69 114.91 4.69Z" fill="#987A5F"/><path d="M155.23 4.69 133.23 4.69C132.48 4.69 131.87 5.3 131.87 6.05L131.87 11.35C131.87 12.1 132.48 12.71 133.23 12.71L155.23 12.71C155.98 12.71 156.59 12.1 156.59 11.35L156.59 6.05C156.59 5.3 155.98 4.69 155.23 4.69Z" fill="#987A5F"/><path d="M195.55 4.69 173.55 4.69C172.8 4.69 172.19 5.3 172.19 6.05L172.19 11.35C172.19 12.1 172.8 12.71 173.55 12.71L195.55 12.71C196.3 12.71 196.91 12.1 196.91 11.35L196.91 6.05C196.91 5.3 196.3 4.69 195.55 4.69Z" fill="#987A5F"/><path d="M235.87 4.69 213.87 4.69C213.12 4.69 212.51 5.3 212.51 6.05L212.51 11.35C212.51 12.1 213.12 12.71 213.87 12.71L235.87 12.71C236.62 12.71 237.23 12.1 237.23 11.35L237.23 6.05C237.23 5.3 236.62 4.69 235.87 4.69Z" fill="#987A5F"/><path d="M276.19 4.69 254.19 4.69C253.44 4.69 252.83 5.3 252.83 6.05L252.83 11.35C252.83 12.1 253.44 12.71 254.19 12.71L276.19 12.71C276.94 12.71 277.55 12.1 277.55 11.35L277.55 6.05C277.55 5.3 276.94 4.69 276.19 4.69Z" fill="#987A5F"/><path d="M316.51 4.69 294.51 4.69C293.76 4.69 293.15 5.3 293.15 6.05L293.15 11.35C293.15 12.1 293.76 12.71 294.51 12.71L316.51 12.71C317.26 12.71 317.87 12.1 317.87 11.35L317.87 6.05C317.87 5.3 317.26 4.69 316.51 4.69Z" fill="#987A5F"/><path d="M356.83 4.69 334.83 4.69C334.08 4.69 333.47 5.3 333.47 6.05L333.47 11.35C333.47 12.1 334.08 12.71 334.83 12.71L356.83 12.71C357.58 12.71 358.19 12.1 358.19 11.35L358.19 6.05C358.19 5.3 357.58 4.69 356.83 4.69Z" fill="#987A5F"/><path d="M397.15 4.69 375.15 4.69C374.4 4.69 373.79 5.3 373.79 6.05L373.79 11.35C373.79 12.1 374.4 12.71 375.15 12.71L397.15 12.71C397.9 12.71 398.51 12.1 398.51 11.35L398.51 6.05C398.51 5.3 397.9 4.69 397.15 4.69Z" fill="#987A5F"/></g><g><path d="M106.88 0 101.16 4.69 151.48 4.69 157.2 0Z" fill="#9E9E9E"/><path d="M0 0 0 4.69 88.8 4.69 94.52 0Z" fill="#9E9E9E"/><path d="M161.46 0 155.74 4.69 224.02 4.69 229.74 0Z" fill="#9E9E9E"/><path d="M94.52 0 88.8 4.69 101.16 4.69 106.88 0Z" fill="#B7B7B7"/><path d="M157.2 0 151.48 4.69 155.74 4.69 161.46 0Z" fill="#B7B7B7"/><path d="M409.42 0 254.51 0 248.79 4.69 409.42 4.69Z" fill="#9E9E9E"/><path d="M250.25 0 244.53 4.69 248.79 4.69 254.51 0Z" fill="#B7B7B7"/><path d="M229.74 0 224.02 4.69 236.38 4.69 242.1 0Z" fill="#B7B7B7"/><path d="M242.1 0 236.38 4.69 244.53 4.69 250.25 0Z" fill="#9E9E9E"/></g></g></svg>