<svg width="935.25" height="549.35" viewBox="0 0 935.25 549.35" xmlns="http://www.w3.org/2000/svg" xmlns:xlink="http://www.w3.org/1999/xlink" xml:space="preserve" overflow="hidden"><defs></defs><g><g><path d="M432.18 341.75C427.36 317.61 379.57 280.76 351.86 276.95 319.6 272.51 299.66 280.76 300.87 292.2 302.08 303.64 330.38 313.92 342.64 355.73 356.78 404.01 402.06 467.54 446.63 452.29 491.2 437.05 432.18 341.75 432.18 341.75Z" stroke="#966F4B" stroke-width="6.3117" stroke-linecap="round" stroke-linejoin="round" stroke-miterlimit="10" fill="#EDD3B7"/><path d="M319.93 282.04C330.1 294.74 350.43 320.16 363.13 356.37 375.84 392.58 412.69 443.4 462.24 414.18 511.79 384.96 455.25 340.49 431.74 339.85 408.25 339.22 389.18 261.07 319.93 282.04Z" fill="#F7E4D0"/><path d="M304.76 284.98C312.8 271.89 368.64 272.63 372.31 290.9 375.99 309.17 289.6 309.67 304.76 284.98Z" fill="#FFF4EB"/><path d="M321.75 287.28C326.93 278.86 362.84 279.34 365.2 291.09 367.57 302.84 312 303.16 321.75 287.28Z" stroke="#AA845E" stroke-width="6.3117" stroke-linecap="round" stroke-linejoin="round" stroke-miterlimit="10" fill="#C1A385"/><path d="M490.4 250.27C490.4 250.27 361.21 43.16 625.08 43.16 894.24 43.16 767.8 250.27 767.8 250.27L791.32 249C791.32 249 960.31 12.67 624.87 12.67 289.44 12.67 467.33 249 467.33 249L490.4 250.27Z" stroke="#966F4B" stroke-width="6.3117" stroke-linecap="round" stroke-linejoin="round" stroke-miterlimit="10" fill="#EDD3B7"/><path d="M754.39 217.23C864.57 258.24 896.24 442.76 751.31 496.13 751.31 496.13 756.38 506.94 744.86 519 708.56 557.03 542.68 553.43 516.15 519 507.35 507.56 511.16 496.13 511.16 496.13 370.2 433.24 396.35 257.97 506.62 217.23 576.28 191.5 680.15 189.6 754.39 217.23Z" stroke="#966F4B" stroke-width="6.3117" stroke-linecap="round" stroke-linejoin="round" stroke-miterlimit="10" fill="#EDD3B7"/><path d="M474.95 270.6C427.9 298.41 420.3 392.58 468.59 447.22 516.88 501.85 623.3 506.65 690.95 490.42 784.98 467.87 796.41 312.53 716.37 274.42 636.31 236.29 502.9 254.08 474.95 270.6Z" fill="#F7E4D0"/><path d="M625.07 204.84C455.12 204.84 381.72 291.24 632.15 291.24 882.58 291.25 802.06 204.84 625.07 204.84Z" fill="#FFF4EB"/><path d="M626.51 194.36C475.1 194.36 421.44 273.78 632.48 273.78 843.52 273.78 783.9 194.36 626.51 194.36Z" stroke="#966F4B" stroke-width="6.3117" stroke-linecap="round" stroke-linejoin="round" stroke-miterlimit="10" fill="#EDD3B7"/><path d="M627.14 200.96C497.33 200.96 451.34 262.71 632.26 262.71 813.18 262.71 762.06 200.96 627.14 200.96Z" fill="#F7E4D0"/><path d="M551.82 207.45C647.75 185.22 711.6 225.56 629.64 249.06 547.69 272.57 447.93 231.53 551.82 207.45Z" fill="#FFF4EB"/><path d="M655.06 213.26C659.41 208.12 648.93 206.57 656.02 204.2 672.45 198.72 679.37 164.18 638.39 164.18 597.41 164.18 604.32 199.2 621.72 204.2 628.88 206.26 617.59 208.82 622.67 213.26 630.28 219.93 649.82 219.46 655.06 213.26Z" stroke="#232323" stroke-width="6.3117" stroke-linecap="round" stroke-linejoin="round" fill="#444444"/><path d="M616.06 175.54C623.92 167.18 638.22 174.35 627.97 182.93 617.73 191.5 608.44 183.64 616.06 175.54Z" fill="#A5A5A5"/><path d="M543.87 505.98C524.86 501.94 521 517.89 553.4 529.81 585.8 541.72 670.13 541.72 689.67 524.57 709.22 507.41 658.23 530.28 543.87 505.98Z" fill="#F7E4D0"/><path d="M491.46 323.96C473.26 337.95 464.78 446.89 570.56 464.04 528.63 446.89 531.49 351.59 536.25 340.15 541.02 328.73 503.85 314.43 491.46 323.96Z" fill="#FFF4EB"/><path d="M546.26 10.92C536.09 15.91 539.59 54.76 558.17 56.66 576.76 58.57 679.19 56.66 694.92 54.28 710.64 51.9 708.74 11.4 698.25 7.58 687.77 3.77 571.51-1.47 546.26 10.92Z" stroke="#232323" stroke-width="6.3117" stroke-linecap="round" stroke-linejoin="round" stroke-miterlimit="10" fill="#444444"/><path d="M555.02 22.53C563.52 4.78 665.42 8.01 669.35 22.53 673.27 37.06 542.12 49.48 555.02 22.53Z" fill="#828181"/><path d="M827.89 297.58C848.99 265.54 913.49 267.92 927.57 306.15 939.58 338.8 931.67 374.02 855.15 418.37 868.34 414.68 883.3 460.96 850.76 461.4 818.22 461.85 815.57 416.54 839.31 395.28 863.06 374.02 906.16 354.51 898.24 321.21 890.34 287.95 846.36 310.22 846.36 325.01 846.36 339.8 843.73 353.68 828.76 346.28 813.8 338.87 811.56 312.56 827.89 297.58Z" stroke="#966F4B" stroke-width="6.3117" stroke-linecap="round" stroke-linejoin="round" stroke-miterlimit="10" fill="#EDD3B7"/></g><g><g><path d="M260.42 272.84C260.42 272.84 267.52 400.37 256.72 438.05 245.9 475.72 90.8 476.38 82.76 438.05 74.73 399.73 81.13 275.8 85.17 270.17" stroke="#966F4B" stroke-width="6.3117" stroke-linecap="round" stroke-linejoin="round" stroke-miterlimit="10" fill="#EDD3B7"/><path d="M241.51 305.14C246.13 324.5 242.52 433.53 236.38 439.15 221.71 452.6 153.73 455.41 147.28 447.9 140.84 440.39 142.99 313.14 142.99 313.14 170.9 319.09 218.13 313.14 241.51 305.14Z" fill="#F7E4D0"/><path d="M258.3 267.38C286.48 311.95 64.72 314.24 86.37 268.38 98.87 241.83 240.73 239.57 258.3 267.38Z" stroke="#966F4B" stroke-width="6.3117" stroke-linecap="round" stroke-linejoin="round" stroke-miterlimit="10" fill="#EDD3B7"/><path d="M239.66 269.88C261.13 292.98 87.84 296.71 105.3 272.37 115.39 258.29 226.28 255.47 239.66 269.88Z" stroke="#AA845E" stroke-width="6.3117" stroke-linecap="round" stroke-linejoin="round" stroke-miterlimit="10" fill="#C1A385"/><path d="M79.45 307.25C64 283.8 16.78 285.01 6.48 313-2.31 336.9 3.48 363.21 59.49 395.69 49.83 392.99 38.88 426.87 62.7 427.19 86.53 427.52 88.46 394.35 71.08 378.78 53.69 363.21 22.14 348.4 27.94 324.03 33.72 299.68 65.92 316.51 65.92 327.34 65.92 338.17 67.85 348.32 78.8 342.91 89.76 337.48 91.39 318.22 79.45 307.25Z" stroke="#966F4B" stroke-width="6.3117" stroke-linecap="round" stroke-linejoin="round" stroke-miterlimit="10" fill="#EDD3B7"/></g></g><g><g><path d="M209.49 311.22C209.49 311.22 202.4 438.75 213.19 476.43 224.01 514.1 379.11 514.76 387.15 476.43 395.18 438.11 388.78 314.18 384.74 308.55" stroke="#966F4B" stroke-width="6.3117" stroke-linecap="round" stroke-linejoin="round" stroke-miterlimit="10" fill="#EDD3B7"/><path d="M228.42 343.51C223.8 362.87 227.41 471.9 233.55 477.52 248.22 490.97 316.2 493.78 322.64 486.27 329.08 478.76 326.93 351.51 326.93 351.51 299.03 357.47 251.79 351.51 228.42 343.51Z" fill="#F7E4D0"/><path d="M211.62 305.75C183.44 350.32 405.2 352.61 383.55 306.74 371.05 280.2 229.19 277.94 211.62 305.75Z" stroke="#966F4B" stroke-width="6.3117" stroke-linecap="round" stroke-linejoin="round" stroke-miterlimit="10" fill="#EDD3B7"/><path d="M230.26 308.26C208.79 331.36 382.08 335.09 364.62 310.75 354.53 296.67 243.65 293.84 230.26 308.26Z" stroke="#AA845E" stroke-width="6.3117" stroke-linecap="round" stroke-linejoin="round" stroke-miterlimit="10" fill="#C1A385"/><path d="M390.47 345.62C405.92 322.17 453.13 323.38 463.44 351.37 472.23 375.27 466.44 401.58 410.42 434.05 420.08 431.35 431.03 465.23 407.21 465.55 383.39 465.88 381.45 432.71 398.83 417.14 416.22 401.58 447.77 386.76 441.97 362.39 436.19 338.04 403.99 354.87 403.99 365.7 403.99 376.53 402.06 386.68 391.11 381.27 380.16 375.85 378.53 356.59 390.47 345.62Z" stroke="#966F4B" stroke-width="6.3117" stroke-linecap="round" stroke-linejoin="round" stroke-miterlimit="10" fill="#EDD3B7"/></g></g></g></svg>