<svg width="269.87" height="173.88" viewBox="0 0 269.87 173.88" xmlns="http://www.w3.org/2000/svg" xmlns:xlink="http://www.w3.org/1999/xlink" xml:space="preserve" overflow="hidden"><defs></defs><g><g><g><g><g><g><path d="M255.84 113.29 217.99 113.29C217.03 113.29 216.24 112.45 216.24 111.41 216.24 110.37 217.02 109.53 217.99 109.53L255.84 109.53C256.81 109.53 257.59 110.37 257.59 111.41 257.59 112.45 256.8 113.29 255.84 113.29Z" fill="#E19663"/><path d="M255.84 113.66 217.99 113.66C216.82 113.66 215.87 112.65 215.87 111.4 215.87 110.16 216.82 109.15 217.99 109.15L255.84 109.15C257.01 109.15 257.97 110.16 257.97 111.4 257.96 112.65 257.01 113.66 255.84 113.66ZM217.99 109.9C217.23 109.9 216.62 110.57 216.62 111.4 216.62 112.23 217.24 112.91 217.99 112.91L255.84 112.91C256.6 112.91 257.22 112.23 257.22 111.4 257.22 110.57 256.6 109.9 255.84 109.9L217.99 109.9Z" fill="#A15920"/></g><g><g><path d="M218.8 75.98 214.03 127.36C214.03 127.36 214.26 129.3 216.41 129.04 216.41 129.04 217.79 129.04 218.05 127.1L222.2 77.05 218.8 75.98Z" fill="#B97B51"/><path d="M216.03 129.44C214.34 129.44 213.74 128.11 213.66 127.4L218.43 75.94C218.44 75.83 218.5 75.73 218.59 75.66 218.68 75.6 218.8 75.58 218.91 75.61L222.31 76.68C222.48 76.73 222.59 76.89 222.57 77.07L218.42 127.12C218.18 128.93 217 129.41 216.41 129.41 216.31 129.43 216.17 129.44 216.03 129.44ZM219.13 76.47 214.41 127.39C214.43 127.46 214.68 128.86 216.38 128.67 216.53 128.66 217.48 128.59 217.69 127.05L221.81 77.31 219.13 76.47Z" fill="#A15920"/></g><path d="M219.79 76.61C219.79 76.61 214.25 129.31 216.41 129.05 216.41 129.05 217.79 129.05 218.05 127.11L222.2 77.06 219.79 76.61Z" fill="#B97B51"/><path d="M220.93 92.38 222.2 77.05 218.8 75.98 217.39 91.15C218.48 91.68 219.68 92.08 220.93 92.38Z" fill="#B97B51"/><g><path d="M255.25 74.92 260.01 126.3C260.01 126.3 259.79 128.25 257.63 127.99 257.63 127.99 256.25 127.99 255.99 126.04L251.84 75.99 255.25 74.92Z" fill="#B97B51"/><path d="M258.02 128.39C257.89 128.39 257.74 128.38 257.59 128.36 257.59 128.36 257.59 128.36 257.59 128.36 257.04 128.36 255.87 127.88 255.63 126.09L251.48 76.02C251.47 75.85 251.57 75.68 251.74 75.63L255.15 74.56C255.26 74.53 255.38 74.54 255.47 74.61 255.56 74.67 255.63 74.77 255.63 74.89L260.39 126.27C260.31 127.05 259.71 128.39 258.02 128.39ZM252.25 76.26 256.37 126.01C256.57 127.54 257.53 127.61 257.64 127.61 257.8 127.63 257.91 127.63 258.02 127.63 259.43 127.63 259.63 126.39 259.65 126.25L254.93 75.41 252.25 76.26Z" fill="#A15920"/></g><path d="M254.34 74.92C254.34 74.92 259.79 128.25 257.63 127.99 257.63 127.99 256.25 127.99 255.99 126.04L251.84 75.99 254.34 74.92Z" fill="#B97B51"/><path d="M256.62 89.62 255.26 74.92 251.85 75.99 253.08 90.82C254.28 90.48 255.47 90.09 256.62 89.62Z" fill="#B97B51"/></g><g><g><path d="M221 82.98 216.24 134.36C216.24 134.36 216.47 136.31 218.62 136.05 218.62 136.05 220 136.05 220.26 134.11L224.41 84.06 221 82.98Z" fill="#E19663"/><path d="M218.23 136.45 218.23 136.45C216.54 136.45 215.94 135.11 215.86 134.41L220.62 82.95C220.63 82.84 220.69 82.74 220.79 82.67 220.89 82.61 221 82.59 221.11 82.62L224.51 83.69C224.68 83.74 224.79 83.9 224.77 84.08L220.62 134.13C220.38 135.94 219.2 136.42 218.61 136.42 218.51 136.44 218.37 136.45 218.23 136.45ZM221.33 83.47 216.61 134.39C216.63 134.45 216.82 135.69 218.24 135.69L218.24 135.69C218.35 135.69 218.46 135.68 218.58 135.67 218.73 135.66 219.69 135.6 219.89 134.05L224.01 84.31 221.33 83.47Z" fill="#A15920"/></g><path d="M223.68 92.87 224.41 84.05 221.01 82.98 220.16 92.18C221.28 92.49 222.47 92.71 223.68 92.87Z" fill="#E19663"/><g><path d="M253.31 82.98 258.08 134.36C258.08 134.36 257.85 136.31 255.7 136.05 255.7 136.05 254.32 136.05 254.06 134.11L249.91 84.06 253.31 82.98Z" fill="#E19663"/><path d="M256.07 136.45C255.94 136.45 255.79 136.44 255.64 136.42 255.64 136.42 255.64 136.42 255.64 136.42 255.09 136.42 253.92 135.94 253.68 134.15L249.53 84.08C249.52 83.91 249.62 83.74 249.79 83.69L253.19 82.62C253.3 82.59 253.42 82.6 253.51 82.67 253.6 82.73 253.67 82.84 253.67 82.95L258.44 134.33C258.36 135.11 257.76 136.45 256.07 136.45ZM250.3 84.32 254.43 134.08C254.64 135.66 255.68 135.68 255.69 135.68 255.85 135.7 255.97 135.7 256.07 135.7 257.48 135.7 257.68 134.46 257.7 134.32L252.98 83.48 250.3 84.32Z" fill="#A15920"/></g><g><path d="M253.31 82.98 258.08 134.36C258.08 134.36 257.85 136.31 255.7 136.05 255.7 136.05 254.32 136.05 254.06 134.11L249.91 84.06 253.31 82.98Z" fill="#E19663"/><path d="M256.07 136.45C255.94 136.45 255.79 136.44 255.64 136.42 255.64 136.42 255.64 136.42 255.64 136.42 255.09 136.42 253.92 135.94 253.68 134.15L249.53 84.08C249.52 83.91 249.62 83.74 249.79 83.69L253.19 82.62C253.3 82.59 253.42 82.6 253.51 82.67 253.6 82.73 253.67 82.84 253.67 82.95L258.44 134.33C258.36 135.11 257.76 136.45 256.07 136.45ZM250.3 84.32 254.43 134.08C254.64 135.66 255.68 135.68 255.69 135.68 255.85 135.7 255.97 135.7 256.07 135.7 257.48 135.7 257.68 134.46 257.7 134.32L252.98 83.48 250.3 84.32Z" fill="#A15920"/></g><path d="M254.01 90.54 253.31 82.97 249.91 84.04 250.53 91.47C251.68 91.2 252.85 90.9 254.01 90.54Z" fill="#E19663"/></g><g><path d="M237.42 75.98C227.38 75.98 213.28 78.81 213.28 78.81L213.28 82.09C213.28 82.09 213.28 82.23 213.28 82.3 213.28 85.79 224.09 88.62 237.42 88.62 250.75 88.62 261.55 85.79 261.55 82.3L261.55 78.81C261.55 78.81 247.45 75.98 237.42 75.98Z" fill="#E19663"/><path d="M237.42 88.99C225.37 88.99 212.91 86.49 212.91 82.3L212.91 78.81C212.91 78.63 213.04 78.48 213.21 78.44 213.35 78.41 227.46 75.6 237.42 75.6 247.38 75.6 261.49 78.41 261.63 78.44 261.8 78.48 261.93 78.63 261.93 78.81L261.93 82.3C261.93 86.48 249.46 88.99 237.42 88.99ZM213.65 79.12 213.65 82.3C213.65 85.17 223.2 88.24 237.41 88.24 251.62 88.24 261.17 85.17 261.17 82.3L261.17 79.12C259.07 78.71 246.49 76.35 237.41 76.35 228.33 76.35 215.75 78.71 213.65 79.12Z" fill="#A15920"/></g><path d="M237.42 73.32C227.38 73.32 213.28 79.43 213.28 79.43 213.28 79.43 213.28 79.57 213.28 79.64 213.28 83.13 224.09 85.96 237.42 85.96 250.75 85.96 261.55 83.13 261.55 79.64 261.55 79.63 247.45 73.32 237.42 73.32Z" fill="#E19663"/><path d="M218.8 77.82C215.5 78.36 213.27 78.8 213.27 78.8L213.27 82.08C213.27 82.08 213.27 82.22 213.27 82.29 213.27 83.82 215.35 85.22 218.8 86.31L218.8 77.82Z" fill="#E19663" opacity="0.6"/><path d="M250.59 77.02 250.59 87.59C257.18 86.46 261.55 84.51 261.55 82.3L261.55 78.81C261.55 78.81 256.66 77.83 250.59 77.02Z" fill="#E19663" opacity="0.6"/><g><path d="M261.55 78.81C261.55 82.3 250.74 85.13 237.42 85.13 224.09 85.13 213.28 82.3 213.28 78.81 213.28 75.32 224.09 72.49 237.42 72.49 250.74 72.49 261.55 75.32 261.55 78.81Z" fill="#E2AE87"/><path d="M237.42 85.5C225.37 85.5 212.91 83 212.91 78.81 212.91 74.62 225.37 72.12 237.42 72.12 249.47 72.12 261.93 74.62 261.93 78.81 261.93 83 249.46 85.5 237.42 85.5ZM237.42 72.87C223.21 72.87 213.66 75.94 213.66 78.81 213.66 81.68 223.21 84.75 237.42 84.75 251.63 84.75 261.18 81.68 261.18 78.81 261.18 75.94 251.63 72.87 237.42 72.87Z" fill="#A15920"/></g><path d="M241.36 72.58C240.07 72.52 238.76 72.49 237.41 72.49 237.39 72.49 237.37 72.49 237.35 72.49 230.59 75.68 223.99 79.22 217.15 82.24 217.89 82.54 218.72 82.82 219.64 83.08 226.9 79.63 234.18 76.18 241.36 72.58Z" fill="#E2AE87" opacity="0.6"/><path d="M257.46 75.29C254.06 77.07 250.66 78.84 247.27 80.65 244.54 82.11 241.82 83.58 239.13 85.1 251.66 84.87 261.55 82.14 261.55 78.8 261.55 77.51 260.04 76.3 257.46 75.29Z" fill="#E2AE87" opacity="0.6"/><g><path d="M253.99 122.04 220.32 122.04C219.46 122.04 218.76 121.34 218.76 120.48 218.76 119.62 219.46 118.93 220.32 118.93L253.99 118.93C254.85 118.93 255.54 119.63 255.54 120.48 255.54 121.34 254.85 122.04 253.99 122.04Z" fill="#E19663"/><path d="M253.99 122.42 220.32 122.42C219.25 122.42 218.39 121.55 218.39 120.49 218.39 119.43 219.26 118.56 220.32 118.56L253.99 118.56C255.05 118.56 255.92 119.43 255.92 120.49 255.92 121.55 255.05 122.42 253.99 122.42ZM220.32 119.31C219.67 119.31 219.14 119.84 219.14 120.49 219.14 121.14 219.67 121.67 220.32 121.67L253.99 121.67C254.64 121.67 255.17 121.14 255.17 120.49 255.17 119.84 254.64 119.31 253.99 119.31L220.32 119.31Z" fill="#A15920"/></g></g><g><g><g><g><path d="M265.69 35.54C265.34 34.9 264.99 34.26 264.65 33.62 264.64 33.66 264.62 33.7 264.61 33.74L254.35 82.05C255.03 82.44 255.94 82.4 256.69 82.1L266.58 35.68C266.32 35.91 265.91 35.94 265.69 35.54Z" fill="#E19663"/><path d="M255.52 82.72C255.02 82.72 254.56 82.6 254.17 82.39 254.03 82.31 253.96 82.15 253.99 81.99L264.25 33.68C264.25 33.66 264.29 33.56 264.29 33.54 264.34 33.4 264.47 33.29 264.62 33.28 264.77 33.26 264.91 33.33 264.98 33.46L266.02 35.37C266.08 35.49 266.15 35.49 266.17 35.49 266.22 35.49 266.29 35.46 266.34 35.42 266.46 35.32 266.64 35.31 266.77 35.39 266.91 35.47 266.98 35.63 266.94 35.79L257.05 82.21C257.02 82.33 256.94 82.43 256.82 82.48 256.41 82.63 255.96 82.72 255.52 82.72ZM254.78 81.84C255.23 82.01 255.83 82 256.37 81.82L266.08 36.21C265.78 36.18 265.52 36 265.36 35.71L264.8 34.68 254.78 81.84Z" fill="#A15920"/></g></g></g></g><g><g><g><path d="M261.12 61.33 266.58 35.69C266.32 35.91 265.91 35.93 265.69 35.53 265.34 34.89 264.99 34.25 264.65 33.61 264.64 33.65 264.62 33.69 264.61 33.73L259.07 59.83C259.71 60.4 260.4 60.89 261.12 61.33Z" fill="#E19663"/></g></g></g><g><g><g><g><path d="M260.6 27.31 250.6 74.46C251.28 74.85 252.19 74.81 252.94 74.51L262.45 29.87C261.81 29.03 261.2 28.18 260.6 27.31Z" fill="#E19663"/><path d="M251.75 75.12 251.75 75.12C251.25 75.12 250.79 75 250.41 74.79 250.27 74.71 250.2 74.55 250.23 74.39L260.24 27.24C260.27 27.09 260.39 26.98 260.53 26.95 260.68 26.92 260.83 26.98 260.91 27.11 261.47 27.93 262.07 28.76 262.74 29.66 262.81 29.75 262.83 29.86 262.81 29.96L253.3 74.6C253.27 74.72 253.19 74.82 253.07 74.87 252.65 75.03 252.19 75.12 251.75 75.12ZM251.02 74.24C251.24 74.32 251.49 74.36 251.75 74.36L251.75 74.36C252.03 74.36 252.33 74.31 252.61 74.22L262.04 29.95C261.59 29.35 261.18 28.78 260.79 28.23L251.02 74.24Z" fill="#A15920"/></g></g></g></g><g><g><g><path d="M256.63 57.14 262.44 29.87C261.81 29.03 261.19 28.17 260.6 27.31L255.07 53.33C255.4 54.71 255.86 55.95 256.63 57.14Z" fill="#E19663"/></g></g></g></g><g><path d="M268.91 35.15C268.1 32.26 261.6 22.36 260.03 23.23L257.65 23.25 258.14 26.97 255.61 44.05C255.61 44.05 255.07 45.02 255.74 46.22 256.26 47.15 260.36 54.43 262.17 57.65L262.46 59.82 263.66 59.9C263.66 59.9 263.66 59.89 263.67 59.87 263.93 59.95 264.23 59.83 264.56 59.17 265.37 57.54 269.05 42.57 269.05 42.57 269.05 42.57 270.14 39.56 268.91 35.15Z" fill="#C97553"/><path d="M263.64 60.26C263.63 60.26 263.63 60.26 263.62 60.26L262.42 60.18C262.24 60.17 262.1 60.03 262.07 59.86L261.79 57.76 261.28 56.86C259.3 53.34 255.86 47.24 255.39 46.39 254.73 45.2 255.11 44.19 255.23 43.92L257.74 26.95 257.26 23.29C257.25 23.18 257.28 23.08 257.35 22.99 257.42 22.91 257.52 22.86 257.63 22.86L259.93 22.84C260.02 22.8 260.13 22.79 260.23 22.79 262.56 22.79 268.56 32.55 269.25 35.04 270.5 39.52 269.41 42.55 269.36 42.68 269.22 43.25 265.67 57.66 264.85 59.31 264.73 59.55 264.33 60.29 263.68 60.24 263.69 60.25 263.66 60.26 263.64 60.26ZM263.65 59.48C263.69 59.48 263.73 59.49 263.76 59.5 263.84 59.5 264 59.4 264.2 58.99 264.82 57.73 267.39 47.63 268.66 42.47 268.68 42.4 269.72 39.48 268.54 35.25 267.71 32.26 261.77 23.55 260.24 23.55 260.19 23.58 260.08 23.6 260.02 23.6L258.06 23.61 258.49 26.91C258.49 26.94 258.49 26.98 258.49 27.01L255.96 44.09C255.95 44.13 255.94 44.18 255.92 44.22 255.9 44.25 255.5 45.03 256.05 46.03 256.52 46.88 259.95 52.98 261.93 56.49L262.47 57.45C262.49 57.49 262.51 57.54 262.51 57.58L262.76 59.44 263.52 59.49C263.57 59.49 263.61 59.48 263.65 59.48Z" fill="#A15920"/></g><path d="M267.42 37.8C265.18 37.91 262.93 37.99 260.69 38.11 259.28 38.18 257.87 38.27 256.45 38.35L255.61 44.04C255.61 44.04 255.07 45.01 255.74 46.21 256.26 47.14 260.36 54.42 262.17 57.64L262.46 59.81 263.66 59.89C263.66 59.89 263.66 59.88 263.67 59.86 263.93 59.94 264.23 59.82 264.56 59.16 265.37 57.53 269.05 42.56 269.05 42.56 269.05 42.56 269.76 40.65 269.41 37.63 268.69 37.7 268.01 37.77 267.42 37.8Z" fill="#E19663"/><path d="M266.85 40.2C267.72 40.13 268.59 40.07 269.46 40.02 269.5 39.33 269.49 38.53 269.39 37.63 268.68 37.7 268.01 37.77 267.41 37.8 265.17 37.91 262.92 37.99 260.68 38.11 259.27 38.18 257.86 38.27 256.44 38.35L256.01 41.26C259.64 40.97 263.23 40.5 266.85 40.2Z" fill="#E19663"/><g><path d="M255.77 26.27 253.69 44.24C253.69 44.24 253.18 45.23 253.88 46.41 254.58 47.59 261.58 59.12 261.58 59.12 261.58 59.12 262.34 60.73 263.1 59.07 263.85 57.41 267.06 42.34 267.06 42.34 267.06 42.34 268.08 39.31 266.7 34.94 265.8 32.08 258.99 22.39 257.44 23.31 255.71 24.33 255.77 26.27 255.77 26.27Z" fill="#E19663"/><path d="M262.36 60.19 262.36 60.19C261.71 60.19 261.32 59.43 261.25 59.27L261.25 59.27C261.25 59.27 254.27 47.77 253.57 46.59 252.87 45.42 253.22 44.41 253.33 44.13L255.4 26.22C255.39 26.19 255.35 24.1 257.26 22.97 257.39 22.9 257.53 22.86 257.69 22.86 259.9 22.86 266.19 32.03 267.07 34.82 268.46 39.26 267.47 42.33 267.43 42.46 267.31 43.04 264.22 57.55 263.45 59.23 263.15 59.87 262.78 60.19 262.36 60.19ZM257.69 23.61C256.11 24.52 256.15 26.24 256.15 26.26L254.07 44.29C254.07 44.33 254.05 44.38 254.03 44.42 254.02 44.45 253.63 45.25 254.21 46.22 254.91 47.4 261.9 58.93 261.9 58.93 262.04 59.21 262.25 59.45 262.36 59.45 262.4 59.45 262.56 59.35 262.76 58.92 263.34 57.64 265.59 47.47 266.7 42.27 266.72 42.2 267.67 39.25 266.35 35.06 265.43 32.12 259.23 23.61 257.69 23.61Z" fill="#A15920"/></g><path d="M255.82 26.5 255.4 30.15C255.44 33.38 256.22 36.68 257.46 39.25 259.38 43.23 262.47 44.65 265.69 44.17 266.05 42.52 266.29 41.39 266.29 41.39 266.29 41.39 267.23 38.58 265.96 34.53 265.13 31.87 258.81 22.9 257.38 23.75 255.76 24.7 255.82 26.5 255.82 26.5Z" fill="#E2AE87"/></g><g><g><g><g><path d="M14.03 113.29 51.88 113.29C52.85 113.29 53.63 112.45 53.63 111.41 53.63 110.37 52.85 109.53 51.88 109.53L14.03 109.53C13.06 109.53 12.28 110.37 12.28 111.41 12.28 112.45 13.07 113.29 14.03 113.29Z" fill="#E19663"/><path d="M51.88 113.66 14.03 113.66C12.86 113.66 11.9 112.65 11.9 111.4 11.9 110.16 12.85 109.15 14.03 109.15L51.88 109.15C53.05 109.15 54 110.16 54 111.4 54.01 112.65 53.05 113.66 51.88 113.66ZM14.03 109.9C13.27 109.9 12.65 110.57 12.65 111.4 12.65 112.23 13.27 112.91 14.03 112.91L51.88 112.91C52.64 112.91 53.25 112.23 53.25 111.4 53.25 110.57 52.63 109.9 51.88 109.9L14.03 109.9Z" fill="#A15920"/></g><g><g><path d="M51.07 75.98 55.84 127.36C55.84 127.36 55.61 129.3 53.46 129.04 53.46 129.04 52.08 129.04 51.82 127.1L47.67 77.05 51.07 75.98Z" fill="#B97B51"/><path d="M53.84 129.44C53.71 129.44 53.56 129.43 53.41 129.41 53.41 129.41 53.41 129.41 53.41 129.41 52.86 129.41 51.69 128.93 51.45 127.14L47.3 77.07C47.29 76.9 47.39 76.73 47.56 76.68L50.96 75.61C51.07 75.58 51.19 75.59 51.28 75.66 51.37 75.72 51.44 75.82 51.45 75.94L56.22 127.32C56.13 128.11 55.53 129.44 53.84 129.44ZM48.07 77.31 52.19 127.06C52.4 128.64 53.44 128.66 53.45 128.66 53.61 128.68 53.73 128.68 53.83 128.68 55.24 128.68 55.44 127.44 55.46 127.3L50.74 76.46 48.07 77.31Z" fill="#A15920"/></g><path d="M50.07 76.61C50.07 76.61 55.61 129.31 53.45 129.05 53.45 129.05 52.07 129.05 51.81 127.11L47.66 77.06 50.07 76.61Z" fill="#B97B51"/><path d="M48.94 92.38 47.67 77.05 51.07 75.98 52.48 91.15C51.39 91.68 50.19 92.08 48.94 92.38Z" fill="#B97B51"/><g><path d="M14.62 74.92 9.85 126.3C9.85 126.3 10.08 128.25 12.23 127.99 12.23 127.99 13.61 127.99 13.87 126.04L18.02 75.99 14.62 74.92Z" fill="#B97B51"/><path d="M11.85 128.39 11.85 128.39C10.16 128.39 9.56 127.06 9.48 126.35L14.24 74.89C14.25 74.78 14.31 74.68 14.41 74.61 14.5 74.55 14.62 74.53 14.73 74.56L18.13 75.63C18.3 75.68 18.41 75.84 18.39 76.02L14.24 126.07C14 127.88 12.82 128.36 12.23 128.36 12.13 128.38 11.98 128.39 11.85 128.39ZM14.95 75.42 10.23 126.34C10.25 126.4 10.45 127.64 11.86 127.64L11.86 127.64C11.97 127.64 12.08 127.63 12.2 127.62 12.35 127.61 13.3 127.54 13.51 126L17.63 76.27 14.95 75.42Z" fill="#A15920"/></g><path d="M15.53 74.92C15.53 74.92 10.08 128.25 12.24 127.99 12.24 127.99 13.62 127.99 13.88 126.04L18.03 75.99 15.53 74.92Z" fill="#B97B51"/><path d="M13.25 89.62 14.61 74.92 18.01 75.99 16.78 90.82C15.59 90.48 14.4 90.09 13.25 89.62Z" fill="#B97B51"/></g><g><g><path d="M48.87 82.98 53.64 134.36C53.64 134.36 53.41 136.31 51.26 136.05 51.26 136.05 49.88 136.05 49.62 134.11L45.47 84.06 48.87 82.98Z" fill="#E19663"/><path d="M51.63 136.45C51.5 136.45 51.35 136.44 51.2 136.42 51.2 136.42 51.2 136.42 51.2 136.42 50.65 136.42 49.48 135.94 49.24 134.15L45.09 84.08C45.08 83.91 45.18 83.74 45.35 83.69L48.75 82.62C48.86 82.59 48.98 82.6 49.07 82.67 49.16 82.73 49.23 82.84 49.24 82.95L54.01 134.33C53.92 135.11 53.32 136.45 51.63 136.45ZM45.86 84.32 49.98 134.08C50.19 135.66 51.23 135.68 51.24 135.68 51.4 135.7 51.52 135.7 51.62 135.7 53.07 135.7 53.24 134.38 53.25 134.32L48.53 83.48 45.86 84.32Z" fill="#A15920"/></g><path d="M46.19 92.87 45.46 84.05 48.86 82.98 49.71 92.18C48.58 92.49 47.4 92.71 46.19 92.87Z" fill="#E19663"/><g><path d="M16.56 82.98 11.79 134.36C11.79 134.36 12.02 136.31 14.17 136.05 14.17 136.05 15.55 136.05 15.81 134.11L19.96 84.06 16.56 82.98Z" fill="#E19663"/><path d="M13.79 136.45 13.79 136.45C12.1 136.45 11.5 135.11 11.42 134.41L16.18 82.95C16.19 82.84 16.25 82.74 16.35 82.67 16.44 82.61 16.56 82.59 16.67 82.62L20.07 83.69C20.24 83.74 20.35 83.9 20.33 84.08L16.18 134.13C15.94 135.94 14.76 136.42 14.17 136.42 14.07 136.44 13.93 136.45 13.79 136.45ZM16.89 83.47 12.17 134.39C12.19 134.45 12.39 135.69 13.8 135.69 13.8 135.69 13.8 135.69 13.8 135.69 13.91 135.69 14.02 135.68 14.14 135.67 14.29 135.66 15.24 135.6 15.45 134.05L19.57 84.31 16.89 83.47Z" fill="#A15920"/></g><g><path d="M16.56 82.98 11.79 134.36C11.79 134.36 12.02 136.31 14.17 136.05 14.17 136.05 15.55 136.05 15.81 134.11L19.96 84.06 16.56 82.98Z" fill="#E19663"/><path d="M13.79 136.45 13.79 136.45C12.1 136.45 11.5 135.11 11.42 134.41L16.18 82.95C16.19 82.84 16.25 82.74 16.35 82.67 16.44 82.61 16.56 82.59 16.67 82.62L20.07 83.69C20.24 83.74 20.35 83.9 20.33 84.08L16.18 134.13C15.94 135.94 14.76 136.42 14.17 136.42 14.07 136.44 13.93 136.45 13.79 136.45ZM16.89 83.47 12.17 134.39C12.19 134.45 12.39 135.69 13.8 135.69 13.8 135.69 13.8 135.69 13.8 135.69 13.91 135.69 14.02 135.68 14.14 135.67 14.29 135.66 15.24 135.6 15.45 134.05L19.57 84.31 16.89 83.47Z" fill="#A15920"/></g><path d="M15.86 90.54 16.56 82.97 19.96 84.04 19.34 91.47C18.19 91.2 17.02 90.9 15.86 90.54Z" fill="#E19663"/></g><g><path d="M32.45 75.98C42.49 75.98 56.59 78.81 56.59 78.81L56.59 82.09C56.59 82.09 56.59 82.23 56.59 82.3 56.59 85.79 45.78 88.62 32.45 88.62 19.12 88.62 8.32 85.78 8.32 82.29L8.32 78.8C8.32 78.81 22.41 75.98 32.45 75.98Z" fill="#E19663"/><path d="M32.45 88.99C20.4 88.99 7.94 86.49 7.94 82.3L7.94 78.81C7.94 78.63 8.07 78.48 8.24 78.44 8.38 78.41 22.49 75.6 32.45 75.6 42.41 75.6 56.52 78.41 56.66 78.44 56.84 78.48 56.96 78.63 56.96 78.81L56.96 82.3C56.96 86.48 44.5 88.99 32.45 88.99ZM8.69 79.12 8.69 82.3C8.69 85.17 18.24 88.24 32.45 88.24 46.66 88.24 56.21 85.17 56.21 82.3L56.21 79.12C54.11 78.71 41.53 76.35 32.45 76.35 23.37 76.35 10.79 78.71 8.69 79.12Z" fill="#A15920"/></g><path d="M32.45 73.32C42.49 73.32 56.59 79.43 56.59 79.43 56.59 79.43 56.59 79.57 56.59 79.64 56.59 83.13 45.78 85.96 32.45 85.96 19.12 85.96 8.32 83.12 8.32 79.63 8.32 79.63 22.41 73.32 32.45 73.32Z" fill="#E19663"/><path d="M51.06 77.82C54.36 78.36 56.59 78.8 56.59 78.8L56.59 82.08C56.59 82.08 56.59 82.22 56.59 82.29 56.59 83.82 54.52 85.22 51.06 86.31L51.06 77.82Z" fill="#E19663" opacity="0.6"/><path d="M19.27 77.02 19.27 87.59C12.68 86.46 8.31 84.51 8.31 82.3L8.31 78.81C8.32 78.81 13.21 77.83 19.27 77.02Z" fill="#E19663" opacity="0.6"/><g><ellipse cx="32.45" cy="78.81" rx="24.14" ry="6.32" fill="#E2AE87"/><path d="M32.45 85.5C20.4 85.5 7.94 83 7.94 78.81 7.94 74.62 20.4 72.12 32.45 72.12 44.5 72.12 56.96 74.62 56.96 78.81 56.96 83 44.5 85.5 32.45 85.5ZM32.45 72.87C18.24 72.87 8.69 75.94 8.69 78.81 8.69 81.68 18.24 84.75 32.45 84.75 46.66 84.75 56.21 81.68 56.21 78.81 56.21 75.94 46.67 72.87 32.45 72.87Z" fill="#A15920"/></g><path d="M28.5 72.58C29.79 72.52 31.1 72.49 32.45 72.49 32.47 72.49 32.49 72.49 32.51 72.49 39.27 75.68 45.87 79.22 52.71 82.24 51.97 82.54 51.13 82.82 50.22 83.08 42.96 79.63 35.69 76.18 28.5 72.58Z" fill="#E2AE87" opacity="0.6"/><path d="M12.41 75.29C15.81 77.07 19.21 78.84 22.59 80.65 25.32 82.11 28.03 83.58 30.73 85.1 18.2 84.87 8.31 82.14 8.31 78.8 8.32 77.51 9.83 76.3 12.41 75.29Z" fill="#E2AE87" opacity="0.6"/><g><path d="M15.88 122.04 49.55 122.04C50.41 122.04 51.11 121.34 51.11 120.48 51.11 119.62 50.41 118.93 49.55 118.93L15.88 118.93C15.02 118.93 14.32 119.63 14.32 120.48 14.32 121.34 15.02 122.04 15.88 122.04Z" fill="#E19663"/><path d="M49.55 122.42 15.88 122.42C14.82 122.42 13.95 121.55 13.95 120.49 13.95 119.43 14.82 118.56 15.88 118.56L49.55 118.56C50.61 118.56 51.48 119.43 51.48 120.49 51.48 121.55 50.61 122.42 49.55 122.42ZM15.88 119.31C15.23 119.31 14.7 119.84 14.7 120.49 14.7 121.14 15.23 121.67 15.88 121.67L49.55 121.67C50.2 121.67 50.73 121.14 50.73 120.49 50.73 119.84 50.2 119.31 49.55 119.31L15.88 119.31Z" fill="#A15920"/></g></g><g><g><g><g><path d="M4.17 35.54C4.52 34.9 4.87 34.26 5.21 33.62 5.22 33.66 5.24 33.7 5.25 33.74L15.51 82.05C14.83 82.44 13.92 82.4 13.17 82.1L3.28 35.69C3.55 35.91 3.96 35.94 4.17 35.54Z" fill="#E19663"/><path d="M14.35 82.72C13.91 82.72 13.45 82.63 13.03 82.46 12.91 82.41 12.83 82.31 12.8 82.19L2.92 35.77C2.89 35.61 2.96 35.45 3.09 35.37 3.23 35.29 3.4 35.3 3.52 35.4 3.57 35.44 3.64 35.47 3.69 35.47L3.69 35.47C3.71 35.47 3.78 35.47 3.84 35.35L4.88 33.44C4.95 33.31 5.1 33.23 5.24 33.25 5.39 33.26 5.52 33.36 5.56 33.5 5.59 33.57 5.6 33.62 5.61 33.66L15.87 81.97C15.9 82.13 15.83 82.29 15.69 82.37 15.32 82.6 14.85 82.72 14.35 82.72ZM13.5 81.83C14.04 82.01 14.63 82.01 15.09 81.85L5.07 34.67 4.5 35.72C4.34 36.01 4.08 36.2 3.78 36.22L13.5 81.83Z" fill="#A15920"/></g></g></g></g><g><g><g><path d="M8.75 61.33 3.28 35.69C3.55 35.91 3.95 35.93 4.17 35.53 4.52 34.89 4.87 34.25 5.21 33.61 5.22 33.65 5.24 33.69 5.25 33.73L10.79 59.83C10.15 60.4 9.47 60.89 8.75 61.33Z" fill="#E19663"/></g></g></g><g><g><g><g><path d="M9.26 27.31 19.27 74.46C18.59 74.85 17.68 74.81 16.93 74.51L7.42 29.87C8.06 29.03 8.67 28.18 9.26 27.31Z" fill="#E19663"/><path d="M18.12 75.12C17.68 75.12 17.22 75.03 16.8 74.86 16.68 74.81 16.6 74.71 16.57 74.59L7.06 29.95C7.04 29.84 7.06 29.73 7.13 29.65 7.81 28.74 8.41 27.91 8.96 27.1 9.04 26.98 9.19 26.91 9.34 26.94 9.49 26.97 9.6 27.08 9.63 27.23L19.64 74.38C19.67 74.54 19.6 74.7 19.46 74.78 19.08 75 18.61 75.12 18.12 75.12ZM17.26 74.23C17.8 74.4 18.39 74.41 18.85 74.25L9.08 28.24C8.69 28.79 8.28 29.36 7.83 29.96L17.26 74.23Z" fill="#A15920"/></g></g></g></g><g><g><g><path d="M13.23 57.14 7.42 29.87C8.05 29.03 8.67 28.17 9.26 27.31L14.78 53.33C14.46 54.71 14.01 55.95 13.23 57.14Z" fill="#E19663"/></g></g></g></g><g><path d="M0.96 35.15C1.77 32.26 8.27 22.36 9.84 23.23L12.22 23.25 11.73 26.97 14.26 44.05C14.26 44.05 14.8 45.02 14.14 46.22 13.62 47.15 9.52 54.43 7.71 57.65L7.42 59.8 6.22 59.88C6.22 59.88 6.22 59.87 6.21 59.85 5.96 59.93 5.65 59.81 5.32 59.15 4.51 57.52 0.83 42.55 0.83 42.55 0.83 42.55-0.27 39.56 0.96 35.15Z" fill="#C97553"/><path d="M6.23 60.26C6.21 60.26 6.18 60.26 6.16 60.25 5.51 60.31 5.12 59.56 5 59.32 4.19 57.67 0.63 43.26 0.48 42.65 0.45 42.56-0.65 39.53 0.6 35.05 1.28 32.61 7.37 22.8 9.62 22.8 9.73 22.8 9.83 22.82 9.92 22.85L12.22 22.87C12.33 22.87 12.43 22.92 12.5 23 12.57 23.08 12.6 23.19 12.59 23.3L12.11 26.96 14.62 43.93C14.75 44.2 15.12 45.2 14.46 46.4 13.95 47.33 9.9 54.52 8.07 57.77L7.79 59.87C7.77 60.05 7.62 60.18 7.44 60.2L6.24 60.28C6.24 60.26 6.23 60.26 6.23 60.26ZM9.66 23.55C8.08 23.55 2.15 32.26 1.32 35.24 0.14 39.47 1.18 42.39 1.19 42.42 2.47 47.62 5.04 57.72 5.67 58.98 5.87 59.39 6.03 59.49 6.08 59.49 6.15 59.47 6.24 59.47 6.31 59.49L7.09 59.44 7.33 57.58C7.34 57.53 7.35 57.49 7.37 57.44 9.18 54.23 13.28 46.95 13.8 46.01 14.35 45.02 13.94 44.23 13.92 44.2 13.9 44.16 13.88 44.12 13.88 44.07L11.35 26.99C11.35 26.96 11.34 26.92 11.35 26.89L11.78 23.59 9.84 23.6C9.78 23.6 9.72 23.58 9.66 23.55L9.66 23.55Z" fill="#A15920"/></g><path d="M2.45 37.8C4.69 37.91 6.94 37.99 9.18 38.11 10.59 38.18 12 38.27 13.41 38.35L14.25 44.04C14.25 44.04 14.79 45.01 14.13 46.21 13.61 47.14 9.51 54.42 7.7 57.64L7.42 59.8 6.22 59.88C6.22 59.88 6.22 59.87 6.21 59.85 5.96 59.93 5.65 59.81 5.32 59.15 4.51 57.52 0.83 42.55 0.83 42.55 0.83 42.55 0.12 40.64 0.47 37.62 1.18 37.7 1.85 37.77 2.45 37.8Z" fill="#E19663"/><path d="M3.01 40.2C2.14 40.13 1.27 40.07 0.4 40.02 0.36 39.33 0.37 38.53 0.47 37.63 1.18 37.7 1.85 37.77 2.45 37.8 4.69 37.91 6.94 37.99 9.18 38.11 10.59 38.18 12 38.27 13.41 38.35L13.84 41.26C10.23 40.97 6.63 40.5 3.01 40.2Z" fill="#E19663"/><g><path d="M14.1 26.27 16.18 44.24C16.18 44.24 16.69 45.23 15.99 46.41 15.29 47.59 8.3 59.12 8.3 59.12 8.3 59.12 7.53 60.73 6.78 59.07 6.03 57.41 2.82 42.34 2.82 42.34 2.82 42.34 1.8 39.31 3.18 34.94 4.08 32.08 10.89 22.39 12.44 23.31 14.16 24.33 14.1 26.27 14.1 26.27Z" fill="#E19663"/><path d="M7.51 60.19C7.08 60.19 6.72 59.86 6.43 59.22 5.67 57.55 2.57 43.03 2.44 42.41 2.41 42.32 1.41 39.26 2.8 34.82 3.67 32.03 9.97 22.86 12.18 22.86 12.34 22.86 12.48 22.9 12.61 22.97 14.52 24.1 14.48 26.19 14.47 26.28L16.54 44.14C16.66 44.41 17 45.43 16.3 46.6 15.61 47.77 8.67 59.2 8.61 59.31 8.55 59.43 8.16 60.19 7.51 60.19ZM12.23 23.62C10.63 23.62 4.44 32.12 3.52 35.04 2.2 39.23 3.15 42.18 3.16 42.21 4.28 47.45 6.52 57.62 7.11 58.9 7.31 59.33 7.47 59.43 7.51 59.43 7.62 59.43 7.84 59.16 7.95 58.94 8.04 58.79 14.97 47.36 15.66 46.2 16.24 45.23 15.86 44.43 15.84 44.4 15.82 44.36 15.81 44.32 15.8 44.27L13.72 26.3C13.73 26.19 13.75 24.52 12.23 23.62 12.23 23.62 12.23 23.62 12.23 23.62Z" fill="#A15920"/></g><path d="M14.05 26.5 14.47 30.15C14.43 33.38 13.65 36.68 12.41 39.25 10.49 43.23 7.4 44.65 4.18 44.17 3.82 42.52 3.58 41.39 3.58 41.39 3.58 41.39 2.64 38.58 3.91 34.53 4.74 31.87 11.06 22.9 12.49 23.75 14.1 24.7 14.05 26.5 14.05 26.5Z" fill="#E2AE87"/></g><g><g><g><path d="M194.48 97.31 156.63 97.31C155.66 97.31 154.88 96.47 154.88 95.43 154.88 94.39 155.66 93.55 156.63 93.55L194.48 93.55C195.45 93.55 196.23 94.39 196.23 95.43 196.23 96.47 195.44 97.31 194.48 97.31Z" fill="#E19663"/><path d="M194.48 97.69 156.63 97.69C155.46 97.69 154.5 96.68 154.5 95.43 154.5 94.19 155.45 93.18 156.63 93.18L194.48 93.18C195.65 93.18 196.6 94.19 196.6 95.43 196.6 96.67 195.65 97.69 194.48 97.69ZM156.63 93.92C155.87 93.92 155.25 94.59 155.25 95.42 155.25 96.25 155.87 96.93 156.63 96.93L194.48 96.93C195.24 96.93 195.85 96.25 195.85 95.42 195.85 94.59 195.23 93.92 194.48 93.92L156.63 93.92Z" fill="#A15920"/></g><g><g><path d="M157.44 60 152.68 111.38C152.68 111.38 152.91 113.33 155.06 113.07 155.06 113.07 156.44 113.07 156.7 111.12L160.85 61.07 157.44 60Z" fill="#B97B51"/><path d="M154.67 113.46C152.98 113.46 152.38 112.13 152.3 111.42L157.06 59.96C157.07 59.85 157.13 59.75 157.23 59.68 157.32 59.62 157.44 59.6 157.55 59.63L160.95 60.7C161.12 60.75 161.23 60.91 161.21 61.09L157.06 111.14C156.82 112.95 155.64 113.43 155.05 113.43 154.95 113.46 154.81 113.46 154.67 113.46ZM157.77 60.49 153.05 111.41C153.07 111.48 153.31 112.88 155.01 112.69 155.16 112.68 156.11 112.61 156.32 111.07L160.44 61.33 157.77 60.49Z" fill="#A15920"/></g><path d="M158.44 60.63C158.44 60.63 152.9 113.33 155.06 113.07 155.06 113.07 156.44 113.07 156.7 111.12L160.85 61.07 158.44 60.63Z" fill="#B97B51"/><path d="M159.57 76.4 160.84 61.07 157.44 60 156.03 75.17C157.12 75.7 158.32 76.1 159.57 76.4Z" fill="#B97B51"/><g><path d="M193.89 58.94 198.66 110.32C198.66 110.32 198.43 112.27 196.28 112.01 196.28 112.01 194.9 112.01 194.64 110.06L190.49 60.01 193.89 58.94Z" fill="#B97B51"/><path d="M196.66 112.41C196.53 112.41 196.38 112.4 196.23 112.38 196.23 112.38 196.23 112.38 196.23 112.38 195.68 112.38 194.51 111.9 194.27 110.11L190.12 60.04C190.11 59.87 190.21 59.7 190.38 59.65L193.78 58.58C193.89 58.55 194.01 58.56 194.1 58.63 194.19 58.69 194.26 58.8 194.27 58.91L199.04 110.29C198.95 111.07 198.35 112.41 196.66 112.41ZM190.89 60.28 195.01 110.03C195.22 111.56 196.17 111.63 196.28 111.63 196.44 111.65 196.55 111.65 196.66 111.65 198.07 111.65 198.27 110.41 198.29 110.27L193.57 59.43 190.89 60.28Z" fill="#A15920"/></g><path d="M192.98 58.94C192.98 58.94 198.43 112.27 196.27 112.01 196.27 112.01 194.89 112.01 194.63 110.06L190.48 60.01 192.98 58.94Z" fill="#B97B51"/><path d="M195.26 73.64 193.9 58.94 190.5 60.01 191.73 74.84C192.92 74.5 194.11 74.11 195.26 73.64Z" fill="#B97B51"/></g><g><g><path d="M159.64 67 154.87 118.38C154.87 118.38 155.1 120.33 157.25 120.07 157.25 120.07 158.63 120.07 158.89 118.12L163.04 68.07 159.64 67Z" fill="#E19663"/><path d="M156.88 120.47C155.19 120.47 154.59 119.14 154.51 118.43L159.28 66.97C159.29 66.86 159.35 66.76 159.45 66.69 159.54 66.63 159.66 66.61 159.77 66.64L163.17 67.71C163.34 67.76 163.45 67.92 163.43 68.1L159.28 118.15C159.04 119.97 157.86 120.44 157.27 120.44 157.15 120.46 157.01 120.47 156.88 120.47ZM159.97 67.5 155.25 118.42C155.27 118.49 155.51 119.9 157.21 119.7 157.36 119.69 158.31 119.62 158.52 118.08L162.64 68.34 159.97 67.5Z" fill="#A15920"/></g><path d="M162.31 76.89 163.04 68.07 159.64 67 158.79 76.2C159.92 76.51 161.11 76.73 162.31 76.89Z" fill="#E19663"/><g><path d="M191.95 67 196.71 118.38C196.71 118.38 196.48 120.33 194.33 120.07 194.33 120.07 192.95 120.07 192.69 118.12L188.54 68.07 191.95 67Z" fill="#E19663"/><path d="M194.71 120.47C194.58 120.47 194.43 120.46 194.28 120.44 194.28 120.44 194.28 120.44 194.28 120.44 193.73 120.44 192.56 119.96 192.32 118.17L188.17 68.1C188.16 67.93 188.26 67.76 188.43 67.71L191.83 66.64C191.94 66.61 192.06 66.62 192.15 66.69 192.24 66.75 192.31 66.85 192.31 66.97L197.07 118.35C197 119.13 196.4 120.47 194.71 120.47ZM188.94 68.34 193.06 118.09C193.26 119.62 194.22 119.69 194.33 119.69 194.49 119.71 194.6 119.71 194.71 119.71 196.12 119.71 196.32 118.47 196.34 118.33L191.62 67.49 188.94 68.34Z" fill="#A15920"/></g><g><path d="M191.95 67 196.71 118.38C196.71 118.38 196.48 120.33 194.33 120.07 194.33 120.07 192.95 120.07 192.69 118.12L188.54 68.07 191.95 67Z" fill="#E19663"/><path d="M194.71 120.47C194.58 120.47 194.43 120.46 194.28 120.44 194.28 120.44 194.28 120.44 194.28 120.44 193.73 120.44 192.56 119.96 192.32 118.17L188.17 68.1C188.16 67.93 188.26 67.76 188.43 67.71L191.83 66.64C191.94 66.61 192.06 66.62 192.15 66.69 192.24 66.75 192.31 66.85 192.31 66.97L197.07 118.35C197 119.13 196.4 120.47 194.71 120.47ZM188.94 68.34 193.06 118.09C193.26 119.62 194.22 119.69 194.33 119.69 194.49 119.71 194.6 119.71 194.71 119.71 196.12 119.71 196.32 118.47 196.34 118.33L191.62 67.49 188.94 68.34Z" fill="#A15920"/></g><path d="M192.65 74.56 191.95 67 188.55 68.07 189.17 75.5C190.32 75.22 191.49 74.92 192.65 74.56Z" fill="#E19663"/></g><g><path d="M176.06 60C166.02 60 151.92 62.83 151.92 62.83L151.92 66.11C151.92 66.11 151.92 66.25 151.92 66.32 151.92 69.81 162.73 72.64 176.06 72.64 189.39 72.64 200.19 69.81 200.19 66.32L200.19 62.83C200.19 62.83 186.1 60 176.06 60Z" fill="#E19663"/><path d="M176.06 73.01C164.01 73.01 151.55 70.51 151.55 66.32L151.55 62.83C151.55 62.65 151.68 62.5 151.85 62.46 151.99 62.43 166.1 59.62 176.06 59.62 186.02 59.62 200.13 62.43 200.27 62.46 200.44 62.5 200.57 62.65 200.57 62.83L200.57 66.32C200.56 70.5 188.1 73.01 176.06 73.01ZM152.29 63.14 152.29 66.32C152.29 69.19 161.84 72.26 176.05 72.26 190.26 72.26 199.81 69.19 199.81 66.32L199.81 63.14C197.71 62.73 185.13 60.38 176.05 60.38 166.97 60.37 154.39 62.73 152.29 63.14Z" fill="#A15920"/></g><path d="M176.06 57.34C166.02 57.34 151.92 63.45 151.92 63.45 151.92 63.45 151.92 63.59 151.92 63.66 151.92 67.15 162.73 69.98 176.06 69.98 189.39 69.98 200.19 67.15 200.19 63.66 200.19 63.66 186.1 57.34 176.06 57.34Z" fill="#E19663"/><path d="M157.45 61.85C154.15 62.39 151.92 62.83 151.92 62.83L151.92 66.11C151.92 66.11 151.92 66.25 151.92 66.32 151.92 67.85 153.99 69.25 157.45 70.34L157.45 61.85Z" fill="#E19663" opacity="0.6"/><path d="M189.23 61.04 189.23 71.6C195.82 70.47 200.19 68.53 200.19 66.31L200.19 62.82C200.19 62.83 195.3 61.85 189.23 61.04Z" fill="#E19663" opacity="0.6"/><g><path d="M200.19 62.83C200.19 66.32 189.39 69.15 176.06 69.15 162.73 69.15 151.92 66.32 151.92 62.83 151.92 59.34 162.73 56.51 176.06 56.51 189.39 56.51 200.19 59.34 200.19 62.83Z" fill="#E2AE87"/><path d="M176.06 69.52C164.01 69.52 151.55 67.02 151.55 62.83 151.55 58.64 164.01 56.14 176.06 56.14 188.11 56.14 200.57 58.64 200.57 62.83 200.56 67.02 188.1 69.52 176.06 69.52ZM176.06 56.89C161.85 56.89 152.3 59.96 152.3 62.83 152.3 65.7 161.85 68.77 176.06 68.77 190.27 68.77 199.82 65.7 199.82 62.83 199.81 59.96 190.27 56.89 176.06 56.89Z" fill="#A15920"/></g><path d="M180 56.6C178.72 56.55 177.4 56.51 176.05 56.51 176.03 56.51 176.01 56.51 175.99 56.51 169.23 59.7 162.63 63.24 155.79 66.26 156.53 66.56 157.37 66.84 158.28 67.1 165.55 63.65 172.82 60.2 180 56.6Z" fill="#E2AE87" opacity="0.6"/><path d="M196.1 59.31C192.7 61.08 189.3 62.86 185.92 64.67 183.19 66.13 180.48 67.6 177.78 69.12 190.3 68.89 200.19 66.16 200.19 62.82 200.19 61.53 198.68 60.32 196.1 59.31Z" fill="#E2AE87" opacity="0.6"/><g><path d="M192.63 106.06 158.96 106.06C158.1 106.06 157.4 105.36 157.4 104.5 157.4 103.64 158.1 102.95 158.96 102.95L192.63 102.95C193.49 102.95 194.19 103.65 194.19 104.5 194.19 105.37 193.49 106.06 192.63 106.06Z" fill="#E19663"/><path d="M192.63 106.44 158.96 106.44C157.9 106.44 157.03 105.57 157.03 104.51 157.03 103.45 157.9 102.58 158.96 102.58L192.63 102.58C193.7 102.58 194.56 103.45 194.56 104.51 194.56 105.57 193.69 106.44 192.63 106.44ZM158.96 103.33C158.31 103.33 157.78 103.86 157.78 104.51 157.78 105.16 158.31 105.69 158.96 105.69L192.63 105.69C193.28 105.69 193.81 105.16 193.81 104.51 193.81 103.86 193.28 103.33 192.63 103.33L158.96 103.33Z" fill="#A15920"/></g></g><g><g><g><g><path d="M161.69 58.76C161.71 58.69 161.76 58.64 161.79 58.59L156.28 9.99C156.21 9.35 155.62 8.88 154.99 8.96 154.35 9.03 153.89 9.61 153.96 10.25L159.58 59.54C160.33 59.84 161.42 59.52 161.69 58.76Z" fill="#E19663"/><path d="M160.2 60.02 160.2 60.02C159.93 60.02 159.68 59.97 159.45 59.88 159.32 59.83 159.23 59.71 159.22 59.57L153.6 10.28C153.55 9.87 153.67 9.47 153.93 9.15 154.19 8.83 154.55 8.62 154.96 8.58 155.77 8.48 156.57 9.1 156.66 9.94L162.17 58.54C162.18 58.64 162.15 58.73 162.1 58.81 161.81 59.56 161.05 60.02 160.2 60.02ZM159.94 59.25C160.02 59.27 160.11 59.27 160.2 59.27L160.2 59.27C160.65 59.27 161.19 59.05 161.34 58.63 161.36 58.57 161.38 58.53 161.41 58.49L155.91 10.03C155.87 9.63 155.52 9.33 155.13 9.33 155.13 9.33 155.03 9.34 155.03 9.34 154.82 9.36 154.63 9.47 154.5 9.63 154.37 9.8 154.31 10 154.33 10.21L159.94 59.25Z" fill="#A15920"/></g></g></g><g><g><g><path d="M195.67 8.96C195.04 8.88 194.45 9.35 194.38 9.99L188.88 58.48C189.07 58.7 189.3 58.87 189.66 58.89 190.13 58.91 190.89 58.91 191.13 58.42 191.16 58.37 191.19 58.34 191.22 58.3L196.7 10.25C196.77 9.61 196.31 9.03 195.67 8.96Z" fill="#E19663"/><path d="M189.92 59.27 189.92 59.27C189.82 59.27 189.73 59.27 189.65 59.26 189.12 59.24 188.82 58.96 188.61 58.73 188.54 58.65 188.51 58.55 188.52 58.44L194.02 9.95C194.12 9.11 194.86 8.48 195.73 8.59 196.14 8.64 196.5 8.84 196.76 9.16 197.02 9.48 197.13 9.89 197.08 10.29L191.6 58.34C191.59 58.41 191.56 58.48 191.51 58.54 191.13 59.27 190.22 59.27 189.92 59.27ZM189.27 58.35C189.4 58.46 189.51 58.51 189.67 58.52 189.74 58.52 189.83 58.53 189.91 58.53 190.4 58.53 190.7 58.44 190.78 58.26 190.81 58.21 190.83 58.18 190.85 58.15L196.32 10.22C196.34 10.01 196.29 9.8 196.16 9.64 196.03 9.47 195.84 9.37 195.63 9.35L195.53 9.34C195.14 9.34 194.79 9.65 194.75 10.04L189.27 58.35Z" fill="#A15920"/></g></g></g></g><g><path d="M155.49 10.65C155.49 10.89 155.3 11.09 155.06 11.09 154.82 11.09 154.62 10.9 154.62 10.66 154.62 10.42 154.81 10.22 155.05 10.22 155.29 10.21 155.49 10.41 155.49 10.65Z" fill="#744017"/><path d="M157.58 27.4C157.58 27.64 157.39 27.84 157.15 27.84 156.91 27.84 156.71 27.65 156.71 27.41 156.71 27.17 156.9 26.97 157.14 26.97 157.38 26.96 157.58 27.16 157.58 27.4Z" fill="#744017"/></g><g><path d="M195.07 10.65C195.07 10.89 195.26 11.09 195.5 11.09 195.74 11.09 195.94 10.9 195.94 10.66 195.94 10.42 195.75 10.22 195.51 10.22 195.28 10.21 195.08 10.41 195.07 10.65Z" fill="#744017"/><path d="M192.98 27.4C192.98 27.64 193.17 27.84 193.41 27.84 193.65 27.84 193.85 27.65 193.85 27.41 193.85 27.17 193.66 26.97 193.42 26.97 193.18 26.97 192.99 27.16 192.98 27.4Z" fill="#744017"/></g><g><g><path d="M200.16 4.29C189.67 0.13 176.82 0.34 175.08 0.39 173.34 0.34 160.49 0.13 150 4.29 150 4.29 148.71 6.35 149.04 8.48 149.36 10.62 152.68 25.46 152.68 25.46 152.68 25.46 152.83 27.53 154.88 27.02L175.08 26.55 195.28 27.02C197.34 27.54 197.49 25.46 197.49 25.46 197.49 25.46 200.73 11.16 201.13 9.04 201.61 6.41 200.16 4.29 200.16 4.29Z" fill="#C97553"/><path d="M195.9 27.47C195.9 27.47 195.9 27.47 195.9 27.47 195.68 27.47 195.44 27.44 195.19 27.38L175.07 26.92 154.88 27.39C154.71 27.44 154.47 27.47 154.25 27.47 152.81 27.47 152.34 26.17 152.29 25.48 152.16 24.93 148.98 10.66 148.66 8.53 148.32 6.28 149.62 4.17 149.67 4.08 149.71 4.01 149.78 3.96 149.85 3.93 158.83 0.38 169.48 0 173.64 0 174.34 0 174.84 0.01 175.09 0.02 175.33 0.01 175.82 0 176.52 0 180.68 0 191.32 0.38 200.3 3.94 200.37 3.97 200.43 4.02 200.47 4.08 200.53 4.17 202 6.36 201.49 9.11 201.1 11.22 197.98 24.96 197.85 25.55 197.81 26.17 197.34 27.47 195.9 27.47ZM175.07 26.17 195.29 26.64C195.56 26.7 195.74 26.72 195.9 26.72 197.01 26.72 197.11 25.48 197.11 25.43 197.15 25.23 200.36 11.06 200.75 8.96 201.15 6.82 200.16 5.01 199.9 4.59 191.07 1.12 180.61 0.75 176.51 0.75 175.82 0.75 175.33 0.76 175.08 0.77 174.81 0.76 174.31 0.75 173.63 0.75 169.53 0.75 159.08 1.13 150.25 4.59 150.01 5.02 149.14 6.71 149.4 8.43 149.72 10.53 153 25.23 153.03 25.38 153.05 25.57 153.17 26.73 154.25 26.73 154.41 26.73 154.59 26.71 154.78 26.66L175.07 26.17Z" fill="#A15920"/></g><path d="M151.86 3.61C151.24 3.82 150.61 4.05 150 4.29 150 4.29 148.71 6.35 149.04 8.48 149.19 9.44 149.93 12.94 150.71 16.52 151.06 12.21 151.41 7.91 151.86 3.61Z" fill="#E19663" opacity="0.6"/><path d="M200.16 4.29C198.81 3.76 197.42 3.29 196.02 2.89 196.4 6.24 196.77 9.57 197.57 12.89 198.06 14.92 198.54 16.93 198.94 18.97 199.86 14.89 200.9 10.18 201.11 9.03 201.61 6.41 200.16 4.29 200.16 4.29Z" fill="#E19663" opacity="0.6"/><g><path d="M200.16 6.8C189.67 2.64 176.82 2.85 175.08 2.9 173.34 2.85 160.49 2.63 150 6.8 150 6.8 148.77 7.35 149.09 9.49 149.41 11.63 152.67 27.97 152.67 27.97 152.67 27.97 152.82 30.04 154.87 29.53L175.07 29.06 195.27 29.53C197.33 30.05 197.48 27.97 197.48 27.97 197.48 27.97 200.74 11.63 201.06 9.49 201.39 7.35 200.16 6.8 200.16 6.8Z" fill="#E2AE87"/><path d="M195.9 29.98C195.9 29.98 195.9 29.98 195.9 29.98 195.68 29.98 195.44 29.95 195.19 29.89L175.07 29.43 154.88 29.9C154.71 29.95 154.47 29.98 154.25 29.98 152.81 29.98 152.34 28.68 152.29 27.99 152.16 27.37 149.03 11.67 148.71 9.54 148.35 7.14 149.77 6.48 149.83 6.45 158.82 2.89 169.45 2.5 173.61 2.5 174.31 2.5 174.81 2.51 175.07 2.52 175.31 2.51 175.81 2.5 176.51 2.5 180.67 2.5 191.31 2.88 200.28 6.44 200.36 6.47 201.78 7.14 201.42 9.54 201.1 11.66 197.97 27.37 197.84 28.03 197.81 28.68 197.34 29.98 195.9 29.98ZM175.07 28.68 195.29 29.15C195.56 29.21 195.74 29.23 195.9 29.23 197.01 29.23 197.11 27.99 197.11 27.94 197.15 27.73 200.38 11.54 200.69 9.43 200.96 7.63 200.03 7.15 199.99 7.13 191.16 3.63 180.64 3.25 176.52 3.25 175.83 3.25 175.33 3.26 175.08 3.27 174.8 3.26 174.31 3.25 173.62 3.25 169.51 3.25 158.98 3.63 150.13 7.14 150.11 7.15 149.18 7.62 149.46 9.43 149.78 11.54 153 27.73 153.04 27.89 153.06 28.07 153.18 29.23 154.26 29.23 154.42 29.23 154.6 29.21 154.79 29.16L175.07 28.68Z" fill="#A15920"/></g><path d="M172.97 17.9C164.29 17.46 155.28 15.12 149.06 9.11 149.07 9.24 149.07 9.35 149.09 9.5 149.41 11.64 152.67 27.98 152.67 27.98 152.67 27.98 152.82 30.05 154.87 29.54L175.07 29.07 195.27 29.54C197.33 30.06 197.48 27.98 197.48 27.98 197.48 27.98 200.42 13.23 200.99 9.93 193.59 16.3 182.2 18.37 172.97 17.9Z" fill="#E2AE87" opacity="0.4"/></g></g><g><g><g><path d="M115.17 97.31 77.32 97.31C76.35 97.31 75.57 96.47 75.57 95.43 75.57 94.39 76.35 93.55 77.32 93.55L115.17 93.55C116.14 93.55 116.92 94.39 116.92 95.43 116.92 96.47 116.14 97.31 115.17 97.31Z" fill="#E19663"/><path d="M115.17 97.69 77.32 97.69C76.15 97.69 75.19 96.68 75.19 95.43 75.19 94.19 76.14 93.18 77.32 93.18L115.17 93.18C116.34 93.18 117.3 94.19 117.3 95.43 117.3 96.67 116.35 97.69 115.17 97.69ZM77.32 93.92C76.56 93.92 75.94 94.59 75.94 95.42 75.94 96.25 76.56 96.93 77.32 96.93L115.17 96.93C115.93 96.93 116.55 96.25 116.55 95.42 116.55 94.59 115.93 93.92 115.17 93.92L77.32 93.92Z" fill="#A15920"/></g><g><g><path d="M78.13 60 73.36 111.38C73.36 111.38 73.59 113.33 75.74 113.07 75.74 113.07 77.12 113.07 77.38 111.12L81.53 61.07 78.13 60Z" fill="#B97B51"/><path d="M75.37 113.46C73.68 113.46 73.08 112.13 73 111.42L77.76 59.96C77.77 59.85 77.83 59.75 77.93 59.68 78.02 59.62 78.14 59.6 78.25 59.63L81.65 60.7C81.82 60.75 81.93 60.91 81.91 61.09L77.76 111.14C77.52 112.95 76.34 113.43 75.75 113.43 75.65 113.46 75.5 113.46 75.37 113.46ZM78.46 60.49 73.74 111.41C73.76 111.48 74 112.88 75.7 112.69 75.85 112.68 76.8 112.61 77.01 111.07L81.13 61.33 78.46 60.49Z" fill="#A15920"/></g><path d="M79.13 60.63C79.13 60.63 73.59 113.33 75.75 113.07 75.75 113.07 77.13 113.07 77.39 111.12L81.54 61.07 79.13 60.63Z" fill="#B97B51"/><path d="M80.27 76.4 81.54 61.07 78.13 60 76.72 75.17C77.82 75.7 79.01 76.1 80.27 76.4Z" fill="#B97B51"/><g><path d="M114.59 58.94 119.36 110.32C119.36 110.32 119.13 112.27 116.98 112.01 116.98 112.01 115.6 112.01 115.34 110.06L111.19 60.01 114.59 58.94Z" fill="#B97B51"/><path d="M117.36 112.41C117.23 112.41 117.08 112.4 116.93 112.38 116.93 112.38 116.93 112.38 116.93 112.38 116.38 112.38 115.21 111.9 114.97 110.11L110.82 60.04C110.81 59.87 110.91 59.7 111.08 59.65L114.48 58.58C114.59 58.55 114.71 58.56 114.8 58.63 114.89 58.69 114.96 58.8 114.97 58.91L119.74 110.29C119.65 111.07 119.04 112.41 117.36 112.41ZM111.58 60.28 115.7 110.03C115.91 111.56 116.86 111.63 116.97 111.63 117.13 111.65 117.24 111.65 117.35 111.65 118.8 111.65 118.97 110.33 118.98 110.27L114.26 59.43 111.58 60.28Z" fill="#A15920"/></g><path d="M113.68 58.94C113.68 58.94 119.13 112.27 116.97 112.01 116.97 112.01 115.59 112.01 115.33 110.06L111.18 60.01 113.68 58.94Z" fill="#B97B51"/><path d="M115.95 73.64 114.59 58.94 111.19 60.01 112.42 74.84C113.62 74.5 114.81 74.11 115.95 73.64Z" fill="#B97B51"/></g><g><g><path d="M80.34 67 75.57 118.38C75.57 118.38 75.8 120.33 77.95 120.07 77.95 120.07 79.33 120.07 79.59 118.12L83.74 68.07 80.34 67Z" fill="#E19663"/><path d="M77.57 120.47C75.88 120.47 75.28 119.14 75.2 118.43L79.96 66.97C79.97 66.86 80.03 66.76 80.13 66.69 80.22 66.63 80.34 66.61 80.45 66.64L83.85 67.71C84.02 67.76 84.13 67.92 84.11 68.1L79.96 118.15C79.72 119.97 78.54 120.44 77.95 120.44 77.85 120.46 77.71 120.47 77.57 120.47ZM80.67 67.5 75.95 118.42C75.97 118.49 76.21 119.9 77.91 119.7 78.06 119.69 79.01 119.62 79.22 118.08L83.34 68.34 80.67 67.5Z" fill="#A15920"/></g><path d="M83.01 76.89 83.74 68.07 80.34 67 79.49 76.2C80.62 76.51 81.81 76.73 83.01 76.89Z" fill="#E19663"/><g><path d="M112.65 67 117.42 118.38C117.42 118.38 117.19 120.33 115.04 120.07 115.04 120.07 113.66 120.07 113.4 118.12L109.25 68.07 112.65 67Z" fill="#E19663"/><path d="M115.41 120.47C115.28 120.47 115.13 120.46 114.98 120.44 114.98 120.44 114.98 120.44 114.98 120.44 114.43 120.44 113.26 119.96 113.02 118.17L108.87 68.1C108.86 67.93 108.96 67.76 109.13 67.71L112.53 66.64C112.64 66.61 112.76 66.62 112.85 66.69 112.94 66.75 113.01 66.85 113.02 66.97L117.79 118.35C117.7 119.13 117.1 120.47 115.41 120.47ZM109.64 68.34 113.76 118.09C113.97 119.62 114.92 119.69 115.03 119.69 115.19 119.71 115.3 119.71 115.41 119.71 116.82 119.71 117.02 118.47 117.04 118.33L112.32 67.49 109.64 68.34Z" fill="#A15920"/></g><g><path d="M112.65 67 117.42 118.38C117.42 118.38 117.19 120.33 115.04 120.07 115.04 120.07 113.66 120.07 113.4 118.12L109.25 68.07 112.65 67Z" fill="#E19663"/><path d="M115.41 120.47C115.28 120.47 115.13 120.46 114.98 120.44 114.98 120.44 114.98 120.44 114.98 120.44 114.43 120.44 113.26 119.96 113.02 118.17L108.87 68.1C108.86 67.93 108.96 67.76 109.13 67.71L112.53 66.64C112.64 66.61 112.76 66.62 112.85 66.69 112.94 66.75 113.01 66.85 113.02 66.97L117.79 118.35C117.7 119.13 117.1 120.47 115.41 120.47ZM109.64 68.34 113.76 118.09C113.97 119.62 114.92 119.69 115.03 119.69 115.19 119.71 115.3 119.71 115.41 119.71 116.82 119.71 117.02 118.47 117.04 118.33L112.32 67.49 109.64 68.34Z" fill="#A15920"/></g><path d="M113.35 74.56 112.65 67 109.25 68.07 109.87 75.5C111.02 75.22 112.19 74.92 113.35 74.56Z" fill="#E19663"/></g><g><path d="M96.75 60C86.71 60 72.61 62.83 72.61 62.83L72.61 66.11C72.61 66.11 72.61 66.25 72.61 66.32 72.61 69.81 83.42 72.64 96.75 72.64 110.08 72.64 120.89 69.81 120.89 66.32L120.89 62.83C120.89 62.83 106.79 60 96.75 60Z" fill="#E19663"/><path d="M96.75 73.01C84.7 73.01 72.24 70.51 72.24 66.32L72.24 62.83C72.24 62.65 72.37 62.5 72.54 62.46 72.68 62.43 86.79 59.62 96.75 59.62 106.71 59.62 120.82 62.43 120.96 62.46 121.14 62.5 121.26 62.65 121.26 62.83L121.26 66.32C121.26 70.5 108.8 73.01 96.75 73.01ZM72.99 63.14 72.99 66.32C72.99 69.19 82.54 72.26 96.75 72.26 110.96 72.26 120.51 69.19 120.51 66.32L120.51 63.14C118.41 62.73 105.83 60.38 96.75 60.38 87.67 60.37 75.09 62.73 72.99 63.14Z" fill="#A15920"/></g><path d="M96.75 57.34C86.71 57.34 72.61 63.45 72.61 63.45 72.61 63.45 72.61 63.59 72.61 63.66 72.61 67.15 83.42 69.98 96.75 69.98 110.08 69.98 120.89 67.15 120.89 63.66 120.89 63.66 106.79 57.34 96.75 57.34Z" fill="#E19663"/><path d="M78.14 61.85C74.84 62.39 72.61 62.83 72.61 62.83L72.61 66.11C72.61 66.11 72.61 66.25 72.61 66.32 72.61 67.85 74.68 69.25 78.14 70.34L78.14 61.85Z" fill="#E19663" opacity="0.6"/><path d="M109.93 61.04 109.93 71.6C116.53 70.47 120.89 68.53 120.89 66.31L120.89 62.82C120.89 62.83 116 61.85 109.93 61.04Z" fill="#E19663" opacity="0.6"/><g><path d="M120.89 62.83C120.89 66.32 110.08 69.15 96.75 69.15 83.42 69.15 72.61 66.32 72.61 62.83 72.61 59.34 83.42 56.51 96.75 56.51 110.08 56.51 120.89 59.34 120.89 62.83Z" fill="#E2AE87"/><path d="M96.75 69.52C84.7 69.52 72.24 67.02 72.24 62.83 72.24 58.64 84.7 56.14 96.75 56.14 108.8 56.14 121.26 58.64 121.26 62.83 121.26 67.02 108.8 69.52 96.75 69.52ZM96.75 56.89C82.54 56.89 72.99 59.96 72.99 62.83 72.99 65.7 82.54 68.77 96.75 68.77 110.96 68.77 120.51 65.7 120.51 62.83 120.51 59.96 110.96 56.89 96.75 56.89Z" fill="#A15920"/></g><path d="M100.7 56.6C99.41 56.55 98.09 56.51 96.75 56.51 96.73 56.51 96.71 56.51 96.69 56.51 89.93 59.7 83.33 63.24 76.49 66.26 77.23 66.56 78.07 66.84 78.98 67.1 86.24 63.65 93.52 60.2 100.7 56.6Z" fill="#E2AE87" opacity="0.6"/><path d="M116.8 59.31C113.4 61.08 110 62.86 106.62 64.67 103.89 66.13 101.18 67.6 98.48 69.12 111.01 68.89 120.9 66.16 120.9 62.82 120.89 61.53 119.38 60.32 116.8 59.31Z" fill="#E2AE87" opacity="0.6"/><g><path d="M113.33 106.06 79.66 106.06C78.8 106.06 78.1 105.36 78.1 104.5 78.1 103.64 78.8 102.95 79.66 102.95L113.33 102.95C114.19 102.95 114.89 103.65 114.89 104.5 114.88 105.37 114.18 106.06 113.33 106.06Z" fill="#E19663"/><path d="M113.33 106.44 79.66 106.44C78.59 106.44 77.73 105.57 77.73 104.51 77.73 103.45 78.6 102.58 79.66 102.58L113.33 102.58C114.39 102.58 115.26 103.45 115.26 104.51 115.26 105.57 114.39 106.44 113.33 106.44ZM79.66 103.33C79.01 103.33 78.48 103.86 78.48 104.51 78.48 105.16 79.01 105.69 79.66 105.69L113.33 105.69C113.98 105.69 114.51 105.16 114.51 104.51 114.51 103.86 113.98 103.33 113.33 103.33L79.66 103.33Z" fill="#A15920"/></g></g><g><g><g><g><path d="M82.39 58.76C82.42 58.69 82.46 58.64 82.49 58.59L76.98 9.99C76.91 9.35 76.32 8.88 75.69 8.96 75.05 9.03 74.59 9.61 74.66 10.25L80.28 59.54C81.03 59.84 82.12 59.52 82.39 58.76Z" fill="#E19663"/><path d="M80.9 60.02 80.9 60.02C80.63 60.02 80.38 59.97 80.15 59.88 80.02 59.83 79.93 59.71 79.92 59.58L74.3 10.29C74.25 9.88 74.37 9.48 74.63 9.16 74.89 8.84 75.25 8.63 75.66 8.59 76.47 8.48 77.27 9.11 77.36 9.95L82.87 58.55C82.88 58.64 82.86 58.74 82.8 58.82 82.5 59.56 81.74 60.02 80.9 60.02ZM80.63 59.25C80.71 59.27 80.8 59.27 80.89 59.27L80.89 59.27C81.34 59.27 81.88 59.05 82.03 58.63 82.05 58.57 82.07 58.53 82.1 58.49L76.6 10.03C76.56 9.63 76.21 9.33 75.82 9.33 75.82 9.33 75.73 9.34 75.72 9.34 75.51 9.36 75.32 9.47 75.19 9.63 75.06 9.8 75 10 75.02 10.21L80.63 59.25Z" fill="#A15920"/></g></g></g><g><g><g><path d="M116.37 8.96C115.74 8.88 115.15 9.35 115.08 9.99L109.58 58.48C109.77 58.7 110 58.87 110.36 58.89 110.83 58.91 111.59 58.91 111.83 58.42 111.86 58.37 111.89 58.34 111.92 58.3L117.4 10.25C117.47 9.61 117.01 9.03 116.37 8.96Z" fill="#E19663"/><path d="M110.61 59.27 110.61 59.27C110.51 59.27 110.42 59.27 110.34 59.26 109.8 59.24 109.49 58.94 109.3 58.73 109.23 58.65 109.2 58.55 109.21 58.44L114.71 9.95C114.81 9.11 115.56 8.48 116.42 8.59 116.83 8.64 117.19 8.84 117.45 9.16 117.71 9.48 117.82 9.89 117.77 10.29L112.29 58.34C112.28 58.41 112.25 58.48 112.21 58.54 111.83 59.27 110.91 59.27 110.61 59.27ZM109.97 58.35C110.1 58.46 110.22 58.51 110.37 58.52 110.44 58.52 110.53 58.53 110.61 58.53 111.09 58.53 111.4 58.44 111.48 58.26 111.5 58.21 111.53 58.18 111.55 58.15L117.02 10.22C117.04 10.01 116.98 9.8 116.85 9.64 116.72 9.47 116.53 9.37 116.32 9.35L116.22 9.34C115.83 9.34 115.48 9.65 115.44 10.04L109.97 58.35Z" fill="#A15920"/></g></g></g></g><g><path d="M76.19 10.65C76.19 10.89 76 11.09 75.76 11.09 75.52 11.09 75.32 10.9 75.32 10.66 75.32 10.42 75.51 10.22 75.75 10.22 75.99 10.21 76.19 10.41 76.19 10.65Z" fill="#744017"/><path d="M78.28 27.4C78.28 27.64 78.09 27.84 77.85 27.84 77.61 27.84 77.41 27.65 77.41 27.41 77.41 27.17 77.6 26.97 77.84 26.97 78.08 26.96 78.28 27.16 78.28 27.4Z" fill="#744017"/></g><g><path d="M115.77 10.65C115.77 10.89 115.96 11.09 116.2 11.09 116.44 11.09 116.64 10.9 116.64 10.66 116.64 10.42 116.45 10.22 116.21 10.22 115.97 10.21 115.77 10.41 115.77 10.65Z" fill="#744017"/><path d="M113.68 27.4C113.68 27.64 113.87 27.84 114.11 27.84 114.35 27.84 114.55 27.65 114.55 27.41 114.55 27.17 114.36 26.97 114.12 26.97 113.88 26.97 113.68 27.16 113.68 27.4Z" fill="#744017"/></g><g><g><path d="M120.86 4.29C110.37 0.13 97.52 0.34 95.78 0.39 94.04 0.34 81.19 0.13 70.7 4.29 70.7 4.29 69.42 6.35 69.74 8.48 70.06 10.62 73.38 25.46 73.38 25.46 73.38 25.46 73.52 27.53 75.58 27.02L95.78 26.55 115.98 27.02C118.04 27.54 118.18 25.46 118.18 25.46 118.18 25.46 121.42 11.16 121.82 9.04 122.31 6.41 120.86 4.29 120.86 4.29Z" fill="#C97553"/><path d="M116.6 27.47 116.6 27.47C116.38 27.47 116.14 27.44 115.89 27.38L95.77 26.92 75.58 27.39C75.41 27.44 75.17 27.47 74.95 27.47 73.51 27.47 73.04 26.17 72.99 25.48 72.86 24.93 69.68 10.66 69.36 8.53 69.02 6.28 70.32 4.17 70.37 4.08 70.41 4.01 70.48 3.96 70.55 3.93 79.53 0.38 90.17 0 94.33 0 95.03 0 95.53 0.01 95.78 0.02 96.02 0.01 96.52 0 97.22 0 101.38 0 112.02 0.38 121 3.94 121.07 3.97 121.13 4.02 121.17 4.08 121.23 4.17 122.7 6.36 122.19 9.11 121.8 11.22 118.68 24.96 118.55 25.55 118.51 26.17 118.04 27.47 116.6 27.47ZM95.77 26.17 115.99 26.64C116.26 26.7 116.44 26.72 116.6 26.72 117.68 26.72 117.8 25.56 117.81 25.43 117.85 25.23 121.06 11.06 121.45 8.97 121.85 6.83 120.86 5.02 120.6 4.6 111.77 1.13 101.31 0.76 97.21 0.76 96.52 0.76 96.03 0.77 95.78 0.78 95.51 0.77 95.01 0.76 94.33 0.76 90.23 0.76 79.78 1.14 70.95 4.6 70.71 5.03 69.84 6.72 70.1 8.44 70.42 10.54 73.7 25.24 73.73 25.39 73.75 25.58 73.87 26.74 74.95 26.74 75.11 26.74 75.29 26.72 75.48 26.67L95.77 26.17Z" fill="#A15920"/></g><path d="M72.55 3.61C71.93 3.82 71.3 4.05 70.69 4.29 70.69 4.29 69.41 6.35 69.73 8.48 69.88 9.44 70.62 12.94 71.4 16.52 71.75 12.21 72.11 7.91 72.55 3.61Z" fill="#E19663" opacity="0.6"/><path d="M120.86 4.29C119.51 3.76 118.12 3.29 116.72 2.89 117.1 6.24 117.47 9.57 118.27 12.89 118.76 14.92 119.24 16.93 119.64 18.97 120.55 14.89 121.6 10.18 121.81 9.03 122.31 6.41 120.86 4.29 120.86 4.29Z" fill="#E19663" opacity="0.6"/><g><path d="M120.86 6.8C110.37 2.64 97.52 2.85 95.78 2.9 94.04 2.85 81.19 2.63 70.7 6.8 70.7 6.8 69.47 7.35 69.79 9.49 70.11 11.63 73.37 27.97 73.37 27.97 73.37 27.97 73.51 30.04 75.57 29.53L95.77 29.06 115.97 29.53C118.03 30.05 118.17 27.97 118.17 27.97 118.17 27.97 121.43 11.63 121.75 9.49 122.09 7.35 120.86 6.8 120.86 6.8Z" fill="#E2AE87"/><path d="M116.6 29.98 116.6 29.98C116.38 29.98 116.14 29.95 115.89 29.89L95.77 29.43 75.58 29.9C75.41 29.95 75.17 29.98 74.95 29.98 73.51 29.98 73.04 28.68 72.99 27.99 72.86 27.37 69.73 11.67 69.41 9.54 69.05 7.14 70.47 6.48 70.53 6.45 79.52 2.89 90.15 2.5 94.31 2.5 95.01 2.5 95.52 2.51 95.77 2.52 96.01 2.51 96.51 2.5 97.21 2.5 101.37 2.5 112.01 2.88 120.98 6.44 121.06 6.47 122.48 7.14 122.12 9.54 121.8 11.66 118.67 27.37 118.54 28.03 118.51 28.68 118.04 29.98 116.6 29.98ZM95.77 28.68 115.99 29.15C116.26 29.21 116.44 29.23 116.6 29.23 117.68 29.23 117.8 28.07 117.81 27.94 117.85 27.73 121.08 11.54 121.39 9.43 121.67 7.59 120.71 7.14 120.7 7.14 111.86 3.64 101.34 3.26 97.23 3.26 96.54 3.26 96.04 3.27 95.79 3.28 95.51 3.27 95.02 3.26 94.33 3.26 90.22 3.26 79.69 3.64 70.84 7.15 70.82 7.16 69.89 7.63 70.17 9.44 70.49 11.55 73.72 27.74 73.75 27.9 73.77 28.08 73.89 29.24 74.97 29.24 75.13 29.24 75.31 29.22 75.5 29.17L95.77 28.68Z" fill="#A15920"/></g><path d="M93.67 17.9C85 17.46 75.98 15.12 69.76 9.11 69.77 9.24 69.77 9.35 69.79 9.5 70.11 11.64 73.37 27.98 73.37 27.98 73.37 27.98 73.51 30.05 75.57 29.54L95.77 29.07 115.97 29.54C118.03 30.06 118.17 27.98 118.17 27.98 118.17 27.98 121.11 13.23 121.68 9.93 114.29 16.3 102.9 18.37 93.67 17.9Z" fill="#E2AE87" opacity="0.4"/></g></g><g><g><g><g><path d="M67.65 124.82C66.65 124.82 65.81 124.06 65.72 123.05L58.46 42.95C58.36 41.88 66.82 41.53 66.91 42.6L69.59 122.7C69.69 123.77 68.9 124.72 67.83 124.81 67.77 124.82 67.71 124.82 67.65 124.82Z" fill="#E2AE87"/><path d="M67.65 125.2C66.44 125.2 65.45 124.29 65.34 123.09L58.08 42.98C58.07 42.86 58.09 42.68 58.25 42.5 58.92 41.76 62.05 41.57 63.61 41.57 67.19 41.57 67.25 42.29 67.28 42.56L69.96 122.69C70.01 123.29 69.83 123.89 69.43 124.36 69.03 124.84 68.47 125.13 67.86 125.19 67.79 125.19 67.72 125.2 67.65 125.2ZM58.83 42.98 66.09 123.01C66.17 123.87 66.92 124.52 67.79 124.43 68.21 124.39 68.59 124.19 68.86 123.87 69.13 123.55 69.26 123.14 69.22 122.72L66.54 42.67C66.33 42.52 65.41 42.31 63.62 42.31 61.1 42.32 59.16 42.71 58.83 42.98Z" fill="#A15920"/></g><path d="M67.65 124.82C66.65 124.82 63.11 42.95 63.11 42.95 63.01 41.88 66.81 41.53 66.9 42.6L69.58 122.7C69.68 123.77 68.89 124.72 67.82 124.81 67.77 124.82 67.71 124.82 67.65 124.82Z" fill="#E2AE87" opacity="0.8"/><path d="M59.52 45.95 66.36 122.2 61.3 45.95Z" fill="#E2AE87"/></g><g><g><path d="M199.17 124.82C200.16 124.82 201.01 124.06 201.1 123.05L208.36 42.95C208.46 41.88 200 41.53 199.91 42.6L197.23 122.7C197.13 123.77 197.92 124.72 198.99 124.81 199.05 124.82 199.1 124.82 199.17 124.82Z" fill="#E2AE87"/><path d="M199.17 125.2C199.1 125.2 199.03 125.2 198.95 125.19 198.34 125.13 197.78 124.84 197.38 124.36 196.98 123.88 196.8 123.28 196.85 122.67L199.53 42.59C199.56 42.3 199.62 41.58 203.2 41.58 204.76 41.58 207.89 41.77 208.56 42.51 208.72 42.69 208.74 42.87 208.73 42.99L201.47 123.1C201.36 124.29 200.37 125.2 199.17 125.2ZM200.28 42.68 197.6 122.71C197.56 123.15 197.69 123.56 197.96 123.88 198.23 124.2 198.61 124.4 199.02 124.44 199.92 124.53 200.65 123.88 200.72 123.02L207.97 42.99C207.64 42.71 205.7 42.33 203.19 42.33 201.41 42.32 200.48 42.54 200.28 42.68Z" fill="#A15920"/></g><path d="M199.17 124.82C200.16 124.82 203.71 42.95 203.71 42.95 203.81 41.88 200.01 41.53 199.92 42.6L197.24 122.7C197.14 123.77 197.93 124.72 199 124.81 199.05 124.82 199.1 124.82 199.17 124.82Z" fill="#E2AE87" opacity="0.8"/><path d="M207.3 45.95 200.46 122.2 205.52 45.95Z" fill="#E2AE87"/></g></g><g><path d="M146.29 75.46 146.29 75.13 132.99 75.3 119.69 75.13 119.69 75.46 40.85 76.44 40.85 85.44C40.83 86.32 41.1 87.08 41.86 87.53L119.69 87.53 146.29 87.53 224.12 87.53C224.88 87.07 225.14 86.31 225.13 85.44L225.13 76.44 146.29 75.46Z" fill="#BB6934"/><path d="M224.13 87.91 41.86 87.91C41.79 87.91 41.73 87.89 41.67 87.86 40.86 87.37 40.46 86.56 40.48 85.44L40.48 76.45C40.48 76.24 40.65 76.08 40.85 76.07L119.32 75.09C119.33 75 119.37 74.92 119.43 74.86 119.5 74.79 119.56 74.77 119.7 74.75L133 74.92 146.29 74.75C146.41 74.76 146.49 74.79 146.56 74.86 146.62 74.92 146.66 75 146.67 75.09L225.14 76.07C225.35 76.07 225.51 76.24 225.51 76.45L225.51 85.45C225.53 86.56 225.13 87.38 224.32 87.86 224.26 87.89 224.19 87.91 224.13 87.91ZM41.97 87.16 224.02 87.16C224.53 86.81 224.78 86.25 224.76 85.45L224.76 76.81 146.29 75.83C146.1 75.83 145.95 75.69 145.92 75.5L133 75.67 120.07 75.51C120.05 75.69 119.89 75.83 119.7 75.84L41.23 76.82 41.23 85.45C41.21 86.25 41.45 86.81 41.97 87.16Z" fill="#A15920"/></g><path d="M225.13 81.86 225.13 76.44 146.29 75.46 146.29 75.13 132.99 75.29 119.69 75.13 119.69 75.46 40.85 76.44 40.85 81.86Z" fill="#BB6934" opacity="0.3"/><g><g><g><path d="M43.17 157.76C42.18 157.76 41.33 157 41.24 155.99L33.98 75.88C33.88 74.81 42.34 74.46 42.43 75.53L45.11 155.63C45.21 156.7 44.42 157.65 43.35 157.74 43.29 157.76 43.23 157.76 43.17 157.76Z" fill="#E2AE87"/><path d="M43.17 158.14C41.96 158.14 40.97 157.23 40.86 156.03L33.6 75.92C33.59 75.8 33.61 75.62 33.77 75.44 34.44 74.7 37.57 74.51 39.13 74.51 42.7 74.51 42.77 75.23 42.79 75.5L45.47 155.63C45.58 156.88 44.64 158.01 43.37 158.13 43.3 158.13 43.23 158.14 43.17 158.14ZM34.35 75.92 41.61 155.96C41.69 156.83 42.44 157.43 43.32 157.38 44.17 157.3 44.81 156.54 44.73 155.67L42.05 75.62C41.84 75.47 40.92 75.26 39.13 75.26 36.62 75.26 34.68 75.64 34.35 75.92Z" fill="#A15920"/></g><path d="M43.17 157.76C42.18 157.76 38.63 75.88 38.63 75.88 38.53 74.81 42.33 74.46 42.42 75.53L45.1 155.63C45.2 156.7 44.41 157.65 43.34 157.74 43.29 157.76 43.23 157.76 43.17 157.76Z" fill="#E2AE87" opacity="0.8"/><path d="M35.03 78.89 41.87 155.14 36.82 78.89Z" fill="#E2AE87"/></g><g><g><path d="M222.82 157.76C223.82 157.76 224.66 157 224.76 155.99L232.02 75.88C232.12 74.81 223.66 74.46 223.57 75.53L220.89 155.63C220.79 156.7 221.58 157.65 222.65 157.74 222.7 157.76 222.76 157.76 222.82 157.76Z" fill="#E2AE87"/><path d="M222.82 158.14C222.76 158.14 222.69 158.14 222.62 158.13 221.33 158.01 220.39 156.88 220.51 155.61L223.19 75.53C223.22 75.24 223.28 74.52 226.85 74.52 228.41 74.52 231.54 74.71 232.21 75.45 232.37 75.63 232.39 75.81 232.38 75.93L225.12 156.04C225.02 157.23 224.02 158.14 222.82 158.14ZM223.93 75.62 221.25 155.65C221.17 156.53 221.81 157.3 222.67 157.38 222.72 157.38 222.76 157.39 222.81 157.39 223.63 157.39 224.3 156.78 224.37 155.96L231.63 75.92C231.3 75.64 229.36 75.26 226.85 75.26 225.06 75.26 224.14 75.47 223.93 75.62Z" fill="#A15920"/></g><path d="M222.82 157.76C223.82 157.76 227.36 75.88 227.36 75.88 227.46 74.81 223.66 74.46 223.57 75.53L220.89 155.63C220.79 156.7 221.58 157.65 222.65 157.74 222.7 157.76 222.76 157.76 222.82 157.76Z" fill="#E2AE87" opacity="0.8"/><path d="M230.95 78.89 224.11 155.14 229.17 78.89Z" fill="#E2AE87"/></g></g><g><g><path d="M241.38 76.56 241.38 73.95 240.1 73.95C239.28 72.94 238.37 72.16 238.37 72.16 238.37 72.16 212.37 42.08 209.05 39.79 205.74 37.5 199.11 37.45 199.11 37.45L152.67 37.45 113.21 37.45 66.77 37.45C66.77 37.45 60.14 37.5 56.83 39.79 53.52 42.08 27.51 72.16 27.51 72.16 27.51 72.16 26.6 72.94 25.78 73.95L24.5 73.95 24.5 76.51C24.48 77.14 24.8 77.69 25.72 78.02L240.15 78.02C241.05 77.7 241.38 77.17 241.38 76.56Z" fill="#E19663"/><path d="M240.16 78.39 25.73 78.39C25.69 78.39 25.64 78.38 25.6 78.37 24.35 77.92 24.11 77.1 24.13 76.49L24.13 73.94C24.13 73.73 24.3 73.56 24.51 73.56L25.61 73.56C26.41 72.61 27.24 71.89 27.28 71.86 28.3 70.67 53.31 41.76 56.63 39.46 60 37.13 66.51 37.05 66.78 37.05L199.13 37.05C199.41 37.05 205.92 37.12 209.29 39.46 212.61 41.75 237.62 70.67 238.68 71.9L238.68 71.9C238.69 71.9 239.51 72.61 240.3 73.56L241.4 73.56C241.61 73.56 241.78 73.73 241.78 73.94L241.78 76.55C241.78 77.13 241.52 77.92 240.31 78.36 240.25 78.39 240.2 78.39 240.16 78.39ZM25.79 77.64 240.09 77.64C240.91 77.33 241.01 76.87 241.01 76.56L241.01 74.32 240.11 74.32C240 74.32 239.89 74.27 239.82 74.18 239.03 73.21 238.14 72.44 238.13 72.43 237.83 72.09 212.08 42.32 208.84 40.08 205.66 37.88 199.17 37.81 199.11 37.81L66.77 37.81C66.71 37.81 60.22 37.88 57.04 40.08 53.8 42.33 28.05 72.1 27.79 72.4 27.74 72.45 26.85 73.22 26.06 74.18 25.99 74.27 25.88 74.32 25.77 74.32L24.87 74.32 24.87 76.5C24.87 76.85 24.95 77.32 25.79 77.64Z" fill="#A15920"/></g><g><path d="M238.97 70.16C238.97 70.16 212.37 39.52 209.05 37.23 205.74 34.94 199.11 34.89 199.11 34.89L152.67 34.89 113.21 34.89 66.77 34.89C66.77 34.89 60.14 34.94 56.83 37.23 53.52 39.52 27.51 69.6 27.51 69.6 27.51 69.6 22.16 74.19 25.73 75.46L240.16 75.46C243.73 74.19 238.97 70.16 238.97 70.16Z" fill="#E2AE87"/><path d="M240.16 75.84 25.73 75.84C25.69 75.84 25.64 75.83 25.6 75.82 24.77 75.52 24.28 75.03 24.15 74.35 23.78 72.36 26.9 69.62 27.26 69.32 28.28 68.13 53.29 39.22 56.61 36.92 59.98 34.59 66.49 34.51 66.76 34.51L199.11 34.51C199.39 34.51 205.9 34.59 209.27 36.92 212.59 39.21 238.17 68.66 239.26 69.91 239.52 70.13 242.17 72.43 241.84 74.27 241.71 74.97 241.19 75.49 240.29 75.81 240.25 75.84 240.2 75.84 240.16 75.84ZM25.79 75.09 240.09 75.09C240.69 74.86 241.02 74.55 241.09 74.14 241.31 72.94 239.46 71.06 238.73 70.44 238.42 70.09 212.08 39.77 208.84 37.53 205.66 35.33 199.17 35.26 199.11 35.25L66.77 35.25C66.71 35.25 60.22 35.32 57.04 37.52 53.8 39.76 28.05 69.53 27.79 69.83 26.87 70.62 24.64 72.87 24.89 74.2 24.96 74.6 25.26 74.89 25.79 75.09Z" fill="#A15920"/></g></g></g><g><g><g><path d="M103.32 150.73 65.47 150.73C64.5 150.73 63.72 149.89 63.72 148.85 63.72 147.81 64.5 146.97 65.47 146.97L103.32 146.97C104.29 146.97 105.07 147.81 105.07 148.85 105.07 149.89 104.28 150.73 103.32 150.73Z" fill="#E19663"/><path d="M103.32 151.1 65.47 151.1C64.3 151.1 63.35 150.09 63.35 148.84 63.35 147.6 64.3 146.59 65.47 146.59L103.32 146.59C104.49 146.59 105.45 147.6 105.45 148.84 105.44 150.09 104.49 151.1 103.32 151.1ZM65.47 147.34C64.71 147.34 64.1 148.01 64.1 148.84 64.1 149.67 64.72 150.35 65.47 150.35L103.32 150.35C104.08 150.35 104.7 149.67 104.7 148.84 104.7 148.01 104.08 147.34 103.32 147.34L65.47 147.34Z" fill="#A15920"/></g><g><g><path d="M66.28 113.41 61.51 164.79C61.51 164.79 61.74 166.74 63.89 166.48 63.89 166.48 65.27 166.48 65.53 164.53L69.68 114.48 66.28 113.41Z" fill="#B97B51"/><path d="M63.51 166.88C61.82 166.88 61.22 165.54 61.14 164.84L65.9 113.38C65.91 113.27 65.97 113.17 66.07 113.1 66.16 113.04 66.28 113.02 66.39 113.06L69.79 114.13C69.96 114.18 70.07 114.34 70.05 114.52L65.9 164.57C65.66 166.39 64.48 166.86 63.89 166.86 63.79 166.87 63.65 166.88 63.51 166.88ZM66.61 113.91 61.89 164.83C61.91 164.9 62.16 166.31 63.85 166.11 64 166.1 64.95 166.03 65.16 164.49L69.28 114.75 66.61 113.91Z" fill="#A15920"/></g><path d="M67.28 114.04C67.28 114.04 61.74 166.74 63.9 166.48 63.9 166.48 65.28 166.48 65.54 164.53L69.69 114.48 67.28 114.04Z" fill="#B97B51"/><path d="M68.41 129.81 69.68 114.48 66.28 113.41 64.87 128.58C65.96 129.12 67.16 129.52 68.41 129.81Z" fill="#B97B51"/><g><path d="M102.73 112.36 107.5 163.74C107.5 163.74 107.27 165.69 105.12 165.42 105.12 165.42 103.74 165.42 103.48 163.48L99.33 113.43 102.73 112.36Z" fill="#B97B51"/><path d="M105.5 165.82C105.37 165.82 105.22 165.81 105.07 165.79 105.07 165.79 105.07 165.79 105.07 165.79 104.52 165.79 103.35 165.31 103.11 163.52L98.96 113.45C98.95 113.28 99.05 113.11 99.22 113.06L102.62 111.99C102.73 111.95 102.85 111.97 102.94 112.03 103.03 112.09 103.1 112.2 103.11 112.31L107.88 163.69C107.79 164.49 107.19 165.82 105.5 165.82ZM99.73 113.69 103.85 163.44C104.06 165.02 105.1 165.04 105.11 165.04 105.27 165.06 105.39 165.06 105.49 165.06 106.94 165.06 107.11 163.74 107.12 163.68L102.4 112.84 99.73 113.69Z" fill="#A15920"/></g><path d="M101.82 112.36C101.82 112.36 107.27 165.69 105.11 165.43 105.11 165.43 103.73 165.43 103.47 163.49L99.32 113.44 101.82 112.36Z" fill="#B97B51"/><path d="M104.1 127.05 102.74 112.35 99.34 113.42 100.57 128.25C101.76 127.91 102.95 127.52 104.1 127.05Z" fill="#B97B51"/></g><g><g><path d="M68.48 120.42 63.71 171.8C63.71 171.8 63.94 173.75 66.09 173.49 66.09 173.49 67.47 173.49 67.73 171.54L71.88 121.49 68.48 120.42Z" fill="#E19663"/><path d="M65.72 173.88C64.03 173.88 63.43 172.55 63.35 171.84L68.11 120.38C68.12 120.27 68.18 120.17 68.28 120.1 68.37 120.04 68.49 120.02 68.6 120.06L72 121.13C72.17 121.18 72.28 121.34 72.26 121.52L68.11 171.57C67.87 173.38 66.69 173.86 66.1 173.86 65.99 173.87 65.85 173.88 65.72 173.88ZM68.81 120.91 64.09 171.83C64.11 171.9 64.35 173.31 66.05 173.11 66.2 173.1 67.15 173.03 67.36 171.49L71.48 121.75 68.81 120.91Z" fill="#A15920"/></g><path d="M71.15 130.3 71.88 121.48 68.48 120.41 67.63 129.61C68.76 129.92 69.95 130.15 71.15 130.3Z" fill="#E19663"/><g><path d="M100.79 120.42 105.56 171.8C105.56 171.8 105.33 173.75 103.18 173.49 103.18 173.49 101.8 173.49 101.54 171.54L97.39 121.49 100.79 120.42Z" fill="#E19663"/><path d="M103.55 173.88C103.42 173.88 103.27 173.87 103.12 173.85 103.12 173.85 103.12 173.85 103.12 173.85 102.57 173.85 101.4 173.37 101.16 171.58L97.01 121.51C97 121.34 97.1 121.17 97.27 121.12L100.67 120.05C100.78 120.01 100.9 120.03 100.99 120.09 101.08 120.15 101.15 120.26 101.16 120.37L105.93 171.75C105.84 172.55 105.24 173.88 103.55 173.88ZM97.78 121.75 101.9 171.51C102.11 173.09 103.15 173.11 103.16 173.11 103.32 173.13 103.44 173.13 103.54 173.13 104.95 173.13 105.15 171.89 105.17 171.75L100.45 120.91 97.78 121.75Z" fill="#A15920"/></g><g><path d="M100.79 120.42 105.56 171.8C105.56 171.8 105.33 173.75 103.18 173.49 103.18 173.49 101.8 173.49 101.54 171.54L97.39 121.49 100.79 120.42Z" fill="#E19663"/><path d="M103.55 173.88C103.42 173.88 103.27 173.87 103.12 173.85 103.12 173.85 103.12 173.85 103.12 173.85 102.57 173.85 101.4 173.37 101.16 171.58L97.01 121.51C97 121.34 97.1 121.17 97.27 121.12L100.67 120.05C100.78 120.01 100.9 120.03 100.99 120.09 101.08 120.15 101.15 120.26 101.16 120.37L105.93 171.75C105.84 172.55 105.24 173.88 103.55 173.88ZM97.78 121.75 101.9 171.51C102.11 173.09 103.15 173.11 103.16 173.11 103.32 173.13 103.44 173.13 103.54 173.13 104.95 173.13 105.15 171.89 105.17 171.75L100.45 120.91 97.78 121.75Z" fill="#A15920"/></g><path d="M101.49 127.98 100.79 120.42 97.39 121.49 98.01 128.92C99.16 128.64 100.33 128.33 101.49 127.98Z" fill="#E19663"/></g><g><path d="M84.89 113.41C74.85 113.41 60.75 116.24 60.75 116.24L60.75 119.52C60.75 119.52 60.75 119.66 60.75 119.73 60.75 123.22 71.56 126.05 84.89 126.05 98.22 126.05 109.03 123.22 109.03 119.73L109.03 116.24C109.03 116.24 94.93 113.41 84.89 113.41Z" fill="#E19663"/><path d="M84.89 126.42C72.84 126.42 60.38 123.92 60.38 119.73L60.38 116.24C60.38 116.06 60.51 115.91 60.68 115.87 60.82 115.84 74.93 113.03 84.89 113.03 94.85 113.03 108.96 115.84 109.1 115.87 109.28 115.91 109.4 116.06 109.4 116.24L109.4 119.73C109.4 123.92 96.94 126.42 84.89 126.42ZM61.13 116.55 61.13 119.73C61.13 122.6 70.68 125.67 84.89 125.67 99.1 125.67 108.65 122.6 108.65 119.73L108.65 116.55C106.55 116.14 93.97 113.79 84.89 113.79 75.81 113.79 63.23 116.15 61.13 116.55Z" fill="#A15920"/></g><path d="M84.89 110.75C74.85 110.75 60.75 116.86 60.75 116.86 60.75 116.86 60.75 117 60.75 117.07 60.75 120.56 71.56 123.39 84.89 123.39 98.22 123.39 109.03 120.56 109.03 117.07 109.03 117.07 94.93 110.75 84.89 110.75Z" fill="#E19663"/><path d="M66.28 115.26C62.98 115.8 60.75 116.24 60.75 116.24L60.75 119.52C60.75 119.52 60.75 119.66 60.75 119.73 60.75 121.26 62.82 122.66 66.28 123.75L66.28 115.26Z" fill="#E19663" opacity="0.6"/><path d="M98.07 114.46 98.07 125.03C104.67 123.9 109.03 121.96 109.03 119.74L109.03 116.25C109.03 116.24 104.14 115.26 98.07 114.46Z" fill="#E19663" opacity="0.6"/><g><path d="M109.03 116.24C109.03 119.73 98.22 122.56 84.89 122.56 71.56 122.56 60.75 119.73 60.75 116.24 60.75 112.75 71.56 109.92 84.89 109.92 98.22 109.93 109.03 112.76 109.03 116.24Z" fill="#E2AE87"/><path d="M84.89 122.94C72.84 122.94 60.38 120.44 60.38 116.25 60.38 112.06 72.84 109.56 84.89 109.56 96.94 109.56 109.4 112.06 109.4 116.25 109.4 120.43 96.94 122.94 84.89 122.94ZM84.89 110.3C70.68 110.3 61.13 113.37 61.13 116.24 61.13 119.11 70.68 122.18 84.89 122.18 99.1 122.18 108.65 119.11 108.65 116.24 108.65 113.37 99.11 110.3 84.89 110.3Z" fill="#A15920"/></g><path d="M88.84 110.01C87.55 109.96 86.23 109.92 84.89 109.92 84.87 109.92 84.85 109.92 84.83 109.92 78.07 113.11 71.47 116.65 64.63 119.67 65.37 119.97 66.21 120.25 67.12 120.51 74.38 117.06 81.66 113.61 88.84 110.01Z" fill="#E2AE87" opacity="0.6"/><path d="M104.94 112.73C101.54 114.51 98.14 116.28 94.76 118.09 92.03 119.55 89.32 121.02 86.62 122.54 99.15 122.31 109.04 119.58 109.04 116.24 109.03 114.94 107.52 113.74 104.94 112.73Z" fill="#E2AE87" opacity="0.6"/><g><path d="M101.47 159.48 67.8 159.48C66.94 159.48 66.24 158.78 66.24 157.92 66.24 157.06 66.94 156.37 67.8 156.37L101.47 156.37C102.33 156.37 103.03 157.07 103.03 157.92 103.02 158.78 102.33 159.48 101.47 159.48Z" fill="#E19663"/><path d="M101.47 159.85 67.8 159.85C66.74 159.85 65.87 158.98 65.87 157.92 65.87 156.86 66.74 155.99 67.8 155.99L101.47 155.99C102.54 155.99 103.4 156.86 103.4 157.92 103.4 158.99 102.53 159.85 101.47 159.85ZM67.8 156.74C67.15 156.74 66.62 157.27 66.62 157.92 66.62 158.57 67.15 159.1 67.8 159.1L101.47 159.1C102.12 159.1 102.65 158.57 102.65 157.92 102.65 157.27 102.12 156.74 101.47 156.74L67.8 156.74Z" fill="#A15920"/></g></g><g><g><path d="M109 63.06C98.51 58.9 85.66 59.11 83.92 59.16 82.18 59.11 69.33 58.9 58.84 63.06 58.84 63.06 57.55 65.11 57.88 67.25 58.2 69.39 61.52 84.23 61.52 84.23 61.52 84.23 61.67 86.3 63.72 85.79L83.92 85.32 104.12 85.79C106.18 86.31 106.32 84.23 106.32 84.23 106.32 84.23 109.56 69.93 109.96 67.81 110.45 65.17 109 63.06 109 63.06Z" fill="#C97553"/><path d="M104.74 86.24 104.74 86.24C104.52 86.24 104.28 86.21 104.03 86.15L83.91 85.69 63.72 86.16C63.55 86.21 63.31 86.24 63.09 86.24 61.65 86.24 61.18 84.94 61.13 84.25 61 83.7 57.82 69.43 57.5 67.3 57.16 65.05 58.46 62.94 58.51 62.85 58.55 62.78 58.62 62.73 58.69 62.7 67.66 59.14 78.3 58.76 82.46 58.76 83.16 58.76 83.66 58.77 83.92 58.78 84.16 58.77 84.66 58.76 85.36 58.76 89.52 58.76 100.16 59.14 109.13 62.7 109.2 62.73 109.26 62.78 109.3 62.84 109.36 62.93 110.83 65.12 110.32 67.86 109.93 69.97 106.81 83.71 106.68 84.3 106.65 84.94 106.18 86.24 104.74 86.24ZM83.91 84.94 104.13 85.41C104.4 85.47 104.58 85.49 104.74 85.49 105.82 85.49 105.94 84.33 105.95 84.2 105.99 84 109.2 69.83 109.59 67.74 109.99 65.59 109 63.79 108.75 63.37 99.92 59.9 89.47 59.53 85.37 59.53 84.68 59.53 84.18 59.54 83.93 59.55 83.65 59.54 83.16 59.53 82.47 59.53 78.37 59.53 67.93 59.91 59.1 63.37 58.86 63.8 57.99 65.49 58.25 67.21 58.57 69.31 61.85 84.01 61.88 84.16 61.9 84.35 62.02 85.51 63.1 85.51 63.26 85.51 63.44 85.49 63.63 85.44L83.91 84.94Z" fill="#A15920"/></g><path d="M60.7 62.37C60.07 62.58 59.45 62.81 58.84 63.05 58.84 63.05 57.55 65.1 57.88 67.24 58.03 68.2 58.77 71.7 59.55 75.28 59.9 70.98 60.25 66.67 60.7 62.37Z" fill="#E19663" opacity="0.6"/><path d="M109 63.06C107.65 62.52 106.26 62.06 104.87 61.66 105.25 65.01 105.62 68.34 106.42 71.66 106.91 73.69 107.39 75.7 107.79 77.74 108.71 73.66 109.75 68.95 109.96 67.8 110.45 65.17 109 63.06 109 63.06Z" fill="#E19663" opacity="0.6"/><g><path d="M109 65.56C98.51 61.4 85.66 61.61 83.92 61.66 82.18 61.61 69.33 61.39 58.84 65.56 58.84 65.56 57.61 66.11 57.93 68.25 58.25 70.39 61.51 86.73 61.51 86.73 61.51 86.73 61.66 88.8 63.71 88.29L83.91 87.82 104.11 88.29C106.17 88.81 106.31 86.73 106.31 86.73 106.31 86.73 109.57 70.39 109.89 68.25 110.23 66.12 109 65.56 109 65.56Z" fill="#E2AE87"/><path d="M104.74 88.75 104.74 88.75C104.52 88.75 104.28 88.72 104.03 88.66L83.91 88.2 63.72 88.67C63.55 88.72 63.32 88.75 63.09 88.75 61.65 88.75 61.18 87.45 61.13 86.76 61 86.14 57.87 70.44 57.55 68.31 57.19 65.92 58.61 65.25 58.67 65.22 67.66 61.66 78.29 61.27 82.45 61.27 83.15 61.27 83.65 61.28 83.91 61.29 84.15 61.28 84.65 61.27 85.35 61.27 89.51 61.27 100.14 61.65 109.12 65.21 109.2 65.24 110.62 65.91 110.26 68.31 109.94 70.43 106.81 86.14 106.68 86.8 106.65 87.45 106.18 88.75 104.74 88.75ZM83.91 87.44 104.13 87.91C104.4 87.97 104.58 87.99 104.74 87.99 105.82 87.99 105.94 86.83 105.95 86.7 105.99 86.49 109.22 70.3 109.53 68.19 109.8 66.39 108.87 65.91 108.83 65.89 100 62.39 89.48 62.01 85.36 62.01 84.67 62.01 84.17 62.02 83.92 62.03 83.64 62.02 83.15 62.01 82.46 62.01 78.35 62.01 67.82 62.39 58.97 65.9 58.95 65.91 58.02 66.38 58.3 68.19 58.62 70.3 61.85 86.49 61.88 86.65 61.9 86.84 62.02 88 63.1 88 63.26 88 63.44 87.98 63.63 87.93L83.91 87.44Z" fill="#A15920"/></g><path d="M81.81 76.66C73.14 76.22 64.12 73.88 57.9 67.87 57.91 68 57.91 68.11 57.93 68.25 58.25 70.39 61.51 86.73 61.51 86.73 61.51 86.73 61.66 88.8 63.71 88.29L83.91 87.82 104.11 88.29C106.17 88.81 106.31 86.73 106.31 86.73 106.31 86.73 109.25 71.98 109.82 68.68 102.43 75.06 91.04 77.13 81.81 76.66Z" fill="#E2AE87" opacity="0.4"/></g><g><g><g><g><path d="M70.96 120.18 65.13 68.76C65.06 68.12 64.47 67.65 63.84 67.73 63.2 67.8 62.74 68.38 62.81 69.02L68.6 119.73C69.34 120.05 70.15 120.28 70.96 120.18Z" fill="#E19663"/><path d="M70.55 120.58C69.92 120.58 69.25 120.42 68.44 120.08 68.32 120.03 68.23 119.91 68.21 119.78L62.42 69.07C62.32 68.23 62.93 67.46 63.78 67.36 64.6 67.26 65.39 67.88 65.49 68.72L71.32 120.14C71.34 120.34 71.2 120.53 71 120.55 70.86 120.57 70.7 120.58 70.55 120.58ZM68.94 119.47C69.55 119.71 70.06 119.83 70.54 119.83L64.75 68.8C64.71 68.4 64.36 68.1 63.97 68.1 63.97 68.1 63.88 68.11 63.87 68.11 63.44 68.16 63.12 68.55 63.17 68.99L68.94 119.47Z" fill="#A15920"/></g></g></g><g><g><g><path d="M97.39 120.18 103.22 68.76C103.29 68.12 103.88 67.65 104.51 67.73 105.15 67.8 105.61 68.38 105.54 69.02L99.75 119.73C99.01 120.05 98.2 120.28 97.39 120.18Z" fill="#E19663"/><path d="M97.79 120.58C97.64 120.58 97.49 120.57 97.34 120.55 97.14 120.52 96.99 120.34 97.02 120.14L102.85 68.72C102.94 67.88 103.7 67.26 104.56 67.36 104.97 67.41 105.33 67.61 105.59 67.93 105.85 68.25 105.96 68.66 105.92 69.07L100.13 119.78C100.11 119.91 100.03 120.03 99.9 120.08 99.1 120.42 98.43 120.58 97.79 120.58ZM104.37 68.09C103.98 68.09 103.63 68.4 103.59 68.79L97.8 119.82C98.27 119.82 98.79 119.7 99.4 119.46L105.16 68.97C105.18 68.76 105.12 68.55 104.99 68.39 104.86 68.22 104.67 68.12 104.46 68.1L104.37 68.09Z" fill="#A15920"/></g></g></g></g><g><path d="M64.33 69.41C64.33 69.65 64.14 69.85 63.9 69.85 63.66 69.85 63.46 69.66 63.46 69.42 63.46 69.18 63.65 68.98 63.89 68.98 64.13 68.98 64.33 69.17 64.33 69.41Z" fill="#744017"/><path d="M66.42 86.17C66.42 86.41 66.23 86.61 65.99 86.61 65.75 86.61 65.55 86.42 65.55 86.18 65.55 85.94 65.74 85.74 65.98 85.74 66.22 85.73 66.42 85.92 66.42 86.17Z" fill="#744017"/></g><g><path d="M103.91 69.41C103.91 69.65 104.1 69.85 104.34 69.85 104.58 69.85 104.78 69.66 104.78 69.42 104.78 69.18 104.59 68.98 104.35 68.98 104.11 68.98 103.92 69.17 103.91 69.41Z" fill="#744017"/><path d="M101.82 86.17C101.82 86.41 102.01 86.61 102.25 86.61 102.49 86.61 102.69 86.42 102.69 86.18 102.69 85.94 102.5 85.74 102.26 85.74 102.02 85.73 101.82 85.93 101.82 86.17Z" fill="#744017"/></g></g><g><g><g><path d="M197.08 150.73 159.23 150.73C158.26 150.73 157.48 149.89 157.48 148.85 157.48 147.81 158.26 146.97 159.23 146.97L197.08 146.97C198.05 146.97 198.83 147.81 198.83 148.85 198.83 149.89 198.04 150.73 197.08 150.73Z" fill="#E19663"/><path d="M197.08 151.1 159.23 151.1C158.06 151.1 157.11 150.09 157.11 148.84 157.11 147.6 158.06 146.59 159.23 146.59L197.08 146.59C198.25 146.59 199.2 147.6 199.2 148.84 199.2 150.09 198.25 151.1 197.08 151.1ZM159.23 147.34C158.47 147.34 157.86 148.01 157.86 148.84 157.86 149.67 158.48 150.35 159.23 150.35L197.08 150.35C197.84 150.35 198.45 149.67 198.45 148.84 198.45 148.01 197.83 147.34 197.08 147.34L159.23 147.34Z" fill="#A15920"/></g><g><g><path d="M160.04 113.41 155.27 164.79C155.27 164.79 155.5 166.74 157.65 166.48 157.65 166.48 159.03 166.48 159.29 164.53L163.44 114.48 160.04 113.41Z" fill="#B97B51"/><path d="M157.27 166.88C155.58 166.88 154.98 165.54 154.9 164.84L159.66 113.38C159.67 113.27 159.73 113.17 159.83 113.1 159.92 113.04 160.04 113.02 160.15 113.06L163.55 114.13C163.72 114.18 163.83 114.34 163.81 114.52L159.66 164.57C159.42 166.39 158.24 166.86 157.65 166.86 157.55 166.87 157.41 166.88 157.27 166.88ZM160.37 113.91 155.65 164.83C155.67 164.9 155.92 166.31 157.61 166.11 157.76 166.1 158.71 166.03 158.92 164.49L163.04 114.75 160.37 113.91Z" fill="#A15920"/></g><path d="M161.03 114.04C161.03 114.04 155.49 166.74 157.65 166.48 157.65 166.48 159.03 166.48 159.29 164.53L163.44 114.48 161.03 114.04Z" fill="#B97B51"/><path d="M162.17 129.81 163.44 114.48 160.04 113.41 158.63 128.58C159.72 129.12 160.92 129.52 162.17 129.81Z" fill="#B97B51"/><g><path d="M196.49 112.36 201.26 163.74C201.26 163.74 201.03 165.69 198.88 165.42 198.88 165.42 197.5 165.42 197.24 163.48L193.09 113.43 196.49 112.36Z" fill="#B97B51"/><path d="M199.26 165.82C199.13 165.82 198.98 165.81 198.83 165.79 198.83 165.79 198.83 165.79 198.83 165.79 198.28 165.79 197.11 165.31 196.87 163.52L192.72 113.45C192.71 113.28 192.81 113.11 192.98 113.06L196.38 111.99C196.49 111.96 196.61 111.97 196.7 112.03 196.79 112.09 196.86 112.2 196.86 112.31L201.63 163.69C201.55 164.49 200.95 165.82 199.26 165.82ZM193.49 113.69 197.61 163.44C197.81 164.97 198.77 165.04 198.88 165.04 199.04 165.06 199.15 165.06 199.26 165.06 200.71 165.06 200.88 163.74 200.89 163.68L196.17 112.84 193.49 113.69Z" fill="#A15920"/></g><path d="M195.58 112.36C195.58 112.36 201.03 165.69 198.87 165.43 198.87 165.43 197.49 165.43 197.23 163.49L193.08 113.44 195.58 112.36Z" fill="#B97B51"/><path d="M197.86 127.05 196.5 112.35 193.1 113.42 194.33 128.25C195.52 127.91 196.71 127.52 197.86 127.05Z" fill="#B97B51"/></g><g><g><path d="M162.24 120.42 157.47 171.8C157.47 171.8 157.7 173.75 159.85 173.49 159.85 173.49 161.23 173.49 161.49 171.54L165.64 121.49 162.24 120.42Z" fill="#E19663"/><path d="M159.48 173.88C157.79 173.88 157.19 172.55 157.11 171.84L161.87 120.38C161.88 120.27 161.94 120.17 162.04 120.1 162.13 120.04 162.25 120.02 162.36 120.06L165.76 121.13C165.93 121.18 166.04 121.34 166.02 121.52L161.87 171.57C161.63 173.38 160.45 173.86 159.86 173.86 159.75 173.87 159.61 173.88 159.48 173.88ZM162.57 120.91 157.85 171.83C157.87 171.9 158.1 173.3 159.81 173.11 159.96 173.1 160.91 173.03 161.12 171.49L165.24 121.75 162.57 120.91Z" fill="#A15920"/></g><path d="M164.91 130.3 165.64 121.48 162.24 120.41 161.39 129.61C162.52 129.92 163.71 130.15 164.91 130.3Z" fill="#E19663"/><g><path d="M194.55 120.42 199.31 171.8C199.31 171.8 199.08 173.75 196.93 173.49 196.93 173.49 195.55 173.49 195.29 171.54L191.14 121.49 194.55 120.42Z" fill="#E19663"/><path d="M197.31 173.88C197.18 173.88 197.03 173.87 196.88 173.85 196.88 173.85 196.88 173.85 196.88 173.85 196.33 173.85 195.16 173.37 194.92 171.58L190.77 121.51C190.76 121.34 190.86 121.17 191.03 121.12L194.43 120.05C194.54 120.02 194.66 120.03 194.75 120.09 194.84 120.15 194.91 120.26 194.92 120.37L199.68 171.75C199.6 172.55 199 173.88 197.31 173.88ZM191.54 121.75 195.66 171.51C195.86 173.04 196.82 173.11 196.93 173.11 197.09 173.13 197.2 173.13 197.31 173.13 198.76 173.13 198.93 171.81 198.94 171.75L194.22 120.91 191.54 121.75Z" fill="#A15920"/></g><g><path d="M194.55 120.42 199.31 171.8C199.31 171.8 199.08 173.75 196.93 173.49 196.93 173.49 195.55 173.49 195.29 171.54L191.14 121.49 194.55 120.42Z" fill="#E19663"/><path d="M197.31 173.88C197.18 173.88 197.03 173.87 196.88 173.85 196.88 173.85 196.88 173.85 196.88 173.85 196.33 173.85 195.16 173.37 194.92 171.58L190.77 121.51C190.76 121.34 190.86 121.17 191.03 121.12L194.43 120.05C194.54 120.02 194.66 120.03 194.75 120.09 194.84 120.15 194.91 120.26 194.92 120.37L199.68 171.75C199.6 172.55 199 173.88 197.31 173.88ZM191.54 121.75 195.66 171.51C195.86 173.04 196.82 173.11 196.93 173.11 197.09 173.13 197.2 173.13 197.31 173.13 198.76 173.13 198.93 171.81 198.94 171.75L194.22 120.91 191.54 121.75Z" fill="#A15920"/></g><path d="M195.25 127.98 194.55 120.42 191.15 121.49 191.76 128.92C192.92 128.64 194.09 128.33 195.25 127.98Z" fill="#E19663"/></g><g><path d="M178.65 113.41C168.61 113.41 154.52 116.24 154.52 116.24L154.52 119.52C154.52 119.52 154.52 119.66 154.52 119.73 154.52 123.22 165.33 126.05 178.65 126.05 191.98 126.05 202.79 123.22 202.79 119.73L202.79 116.24C202.79 116.24 188.69 113.41 178.65 113.41Z" fill="#E19663"/><path d="M178.65 126.42C166.6 126.42 154.14 123.92 154.14 119.73L154.14 116.24C154.14 116.06 154.27 115.91 154.44 115.87 154.58 115.84 168.69 113.03 178.65 113.03 188.61 113.03 202.72 115.84 202.86 115.87 203.03 115.91 203.16 116.06 203.16 116.24L203.16 119.73C203.16 123.92 190.7 126.42 178.65 126.42ZM154.89 116.55 154.89 119.73C154.89 122.6 164.44 125.67 178.65 125.67 192.86 125.67 202.41 122.6 202.41 119.73L202.41 116.55C200.31 116.14 187.73 113.79 178.65 113.79 169.57 113.79 156.99 116.15 154.89 116.55Z" fill="#A15920"/></g><path d="M178.65 110.75C168.61 110.75 154.52 116.86 154.52 116.86 154.52 116.86 154.52 117 154.52 117.07 154.52 120.56 165.33 123.39 178.65 123.39 191.98 123.39 202.79 120.56 202.79 117.07 202.79 117.07 188.69 110.75 178.65 110.75Z" fill="#E19663"/><path d="M160.04 115.26C156.74 115.8 154.51 116.24 154.51 116.24L154.51 119.52C154.51 119.52 154.51 119.66 154.51 119.73 154.51 121.26 156.58 122.66 160.04 123.75L160.04 115.26Z" fill="#E19663" opacity="0.6"/><path d="M191.83 114.46 191.83 125.03C198.42 123.9 202.79 121.96 202.79 119.74L202.79 116.25C202.79 116.24 197.9 115.26 191.83 114.46Z" fill="#E19663" opacity="0.6"/><g><path d="M202.79 116.24C202.79 119.73 191.98 122.56 178.65 122.56 165.32 122.56 154.52 119.73 154.52 116.24 154.52 112.75 165.33 109.92 178.65 109.92 191.98 109.93 202.79 112.76 202.79 116.24Z" fill="#E2AE87"/><path d="M178.65 122.94C166.6 122.94 154.14 120.44 154.14 116.25 154.14 112.06 166.6 109.56 178.65 109.56 190.7 109.56 203.16 112.06 203.16 116.25 203.16 120.43 190.7 122.94 178.65 122.94ZM178.65 110.3C164.44 110.3 154.89 113.37 154.89 116.24 154.89 119.11 164.44 122.18 178.65 122.18 192.86 122.18 202.41 119.11 202.41 116.24 202.41 113.37 192.87 110.3 178.65 110.3Z" fill="#A15920"/></g><path d="M182.6 110.01C181.31 109.96 179.99 109.92 178.65 109.92 178.63 109.92 178.61 109.92 178.59 109.92 171.83 113.11 165.23 116.65 158.39 119.67 159.13 119.97 159.96 120.25 160.88 120.51 168.14 117.06 175.42 113.61 182.6 110.01Z" fill="#E2AE87" opacity="0.6"/><path d="M198.7 112.73C195.3 114.51 191.9 116.28 188.52 118.09 185.8 119.55 183.08 121.02 180.38 122.54 192.91 122.31 202.8 119.58 202.8 116.24 202.79 114.94 201.28 113.74 198.7 112.73Z" fill="#E2AE87" opacity="0.6"/><g><path d="M195.23 159.48 161.56 159.48C160.7 159.48 160 158.78 160 157.92 160 157.06 160.7 156.37 161.56 156.37L195.23 156.37C196.09 156.37 196.79 157.07 196.79 157.92 196.78 158.78 196.09 159.48 195.23 159.48Z" fill="#E19663"/><path d="M195.23 159.85 161.56 159.85C160.5 159.85 159.63 158.98 159.63 157.92 159.63 156.86 160.5 155.99 161.56 155.99L195.23 155.99C196.29 155.99 197.16 156.86 197.16 157.92 197.16 158.99 196.29 159.85 195.23 159.85ZM161.56 156.74C160.91 156.74 160.38 157.27 160.38 157.92 160.38 158.57 160.91 159.1 161.56 159.1L195.23 159.1C195.88 159.1 196.41 158.57 196.41 157.92 196.41 157.27 195.88 156.74 195.23 156.74L161.56 156.74Z" fill="#A15920"/></g></g><g><g><path d="M202.76 63.06C192.26 58.9 179.42 59.11 177.68 59.16 175.94 59.11 163.09 58.9 152.6 63.06 152.6 63.06 151.32 65.11 151.64 67.25 151.96 69.39 155.28 84.23 155.28 84.23 155.28 84.23 155.42 86.3 157.48 85.79L177.68 85.32 197.88 85.79C199.94 86.31 200.08 84.23 200.08 84.23 200.08 84.23 203.32 69.93 203.72 67.81 204.21 65.17 202.76 63.06 202.76 63.06Z" fill="#C97553"/><path d="M198.5 86.24 198.5 86.24C198.28 86.24 198.04 86.21 197.79 86.15L177.67 85.69 157.49 86.16C157.32 86.21 157.08 86.24 156.86 86.24 155.42 86.24 154.95 84.94 154.9 84.25 154.77 83.7 151.59 69.43 151.27 67.3 150.93 65.05 152.23 62.94 152.28 62.85 152.32 62.78 152.39 62.73 152.46 62.7 161.43 59.14 172.07 58.76 176.23 58.76 176.93 58.76 177.43 58.77 177.69 58.78 177.93 58.77 178.43 58.76 179.13 58.76 183.29 58.76 193.93 59.14 202.9 62.7 202.97 62.73 203.03 62.78 203.07 62.84 203.13 62.93 204.6 65.12 204.09 67.86 203.7 69.97 200.58 83.71 200.45 84.3 200.41 84.94 199.94 86.24 198.5 86.24ZM177.67 84.94 197.89 85.41C198.16 85.47 198.34 85.49 198.5 85.49 199.61 85.49 199.71 84.25 199.71 84.2 199.75 84 202.96 69.83 203.35 67.73 203.75 65.59 202.76 63.78 202.51 63.36 193.68 59.89 183.23 59.52 179.13 59.52 178.44 59.52 177.94 59.53 177.69 59.54 177.41 59.53 176.92 59.52 176.23 59.52 172.13 59.52 161.68 59.9 152.86 63.36 152.62 63.79 151.75 65.48 152.01 67.2 152.33 69.3 155.61 84 155.64 84.15 155.66 84.34 155.78 85.5 156.86 85.5 157.02 85.5 157.2 85.48 157.39 85.43L177.67 84.94Z" fill="#A15920"/></g><path d="M154.45 62.37C153.83 62.58 153.21 62.81 152.59 63.05 152.59 63.05 151.31 65.1 151.63 67.24 151.77 68.2 152.52 71.7 153.3 75.28 153.66 70.98 154.01 66.67 154.45 62.37Z" fill="#E19663" opacity="0.6"/><path d="M202.76 63.06C201.41 62.52 200.02 62.06 198.62 61.66 199 65.01 199.37 68.34 200.17 71.66 200.66 73.69 201.14 75.7 201.54 77.74 202.45 73.66 203.5 68.95 203.71 67.8 204.21 65.17 202.76 63.06 202.76 63.06Z" fill="#E19663" opacity="0.6"/><g><path d="M202.76 65.56C192.26 61.4 179.42 61.61 177.68 61.66 175.94 61.61 163.09 61.39 152.6 65.56 152.6 65.56 151.37 66.11 151.69 68.25 152.01 70.39 155.27 86.73 155.27 86.73 155.27 86.73 155.41 88.8 157.47 88.29L177.67 87.82 197.87 88.29C199.93 88.81 200.07 86.73 200.07 86.73 200.07 86.73 203.33 70.39 203.65 68.25 203.99 66.12 202.76 65.56 202.76 65.56Z" fill="#E2AE87"/><path d="M198.5 88.75 198.5 88.75C198.28 88.75 198.04 88.72 197.79 88.66L177.67 88.2 157.49 88.67C157.32 88.72 157.09 88.75 156.86 88.75 155.42 88.75 154.95 87.45 154.9 86.76 154.77 86.14 151.64 70.44 151.32 68.31 150.96 65.92 152.38 65.25 152.44 65.22 161.42 61.66 172.06 61.27 176.22 61.27 176.92 61.27 177.42 61.28 177.68 61.29 177.92 61.28 178.42 61.27 179.12 61.27 183.28 61.27 193.91 61.65 202.89 65.21 202.97 65.24 204.39 65.91 204.03 68.31 203.71 70.43 200.58 86.14 200.44 86.8 200.41 87.45 199.94 88.75 198.5 88.75ZM177.67 87.44 197.89 87.91C198.16 87.97 198.34 87.99 198.5 87.99 199.61 87.99 199.71 86.75 199.71 86.7 199.75 86.49 202.98 70.3 203.3 68.19 203.57 66.39 202.64 65.91 202.61 65.89 193.78 62.39 183.25 62.01 179.14 62.01 178.45 62.01 177.95 62.02 177.7 62.03 177.42 62.02 176.93 62.01 176.24 62.01 172.13 62.01 161.6 62.39 152.75 65.9 152.73 65.91 151.8 66.38 152.08 68.19 152.4 70.3 155.63 86.49 155.66 86.65 155.68 86.83 155.8 87.99 156.88 87.99 157.04 87.99 157.22 87.97 157.41 87.92L177.67 87.44Z" fill="#A15920"/></g><path d="M175.57 76.66C166.89 76.22 157.88 73.88 151.66 67.87 151.67 68 151.67 68.11 151.69 68.25 152.01 70.39 155.27 86.73 155.27 86.73 155.27 86.73 155.41 88.8 157.47 88.29L177.67 87.82 197.87 88.29C199.93 88.81 200.07 86.73 200.07 86.73 200.07 86.73 203.01 71.98 203.58 68.68 196.19 75.06 184.8 77.13 175.57 76.66Z" fill="#E2AE87" opacity="0.4"/></g><g><g><g><g><path d="M164.72 120.18 158.89 68.76C158.82 68.12 158.23 67.65 157.6 67.73 156.96 67.8 156.5 68.38 156.57 69.02L162.36 119.73C163.1 120.05 163.91 120.28 164.72 120.18Z" fill="#E19663"/><path d="M164.31 120.58C163.68 120.58 163.01 120.42 162.2 120.08 162.08 120.03 161.99 119.91 161.97 119.78L156.18 69.07C156.08 68.23 156.69 67.46 157.54 67.36 158.35 67.26 159.15 67.88 159.25 68.72L165.08 120.14C165.1 120.34 164.96 120.53 164.76 120.55 164.61 120.57 164.46 120.58 164.31 120.58ZM162.7 119.47C163.31 119.71 163.83 119.83 164.3 119.83L158.51 68.8C158.47 68.4 158.12 68.1 157.73 68.1 157.73 68.1 157.63 68.11 157.63 68.11 157.2 68.16 156.88 68.55 156.93 68.99L162.7 119.47Z" fill="#A15920"/></g></g></g><g><g><g><path d="M191.15 120.18 196.98 68.76C197.05 68.12 197.64 67.65 198.27 67.73 198.91 67.8 199.37 68.38 199.3 69.02L193.51 119.73C192.77 120.05 191.96 120.28 191.15 120.18Z" fill="#E19663"/><path d="M191.55 120.58C191.4 120.58 191.25 120.57 191.1 120.55 190.9 120.52 190.75 120.34 190.78 120.14L196.61 68.72C196.7 67.88 197.48 67.25 198.32 67.36 199.16 67.46 199.77 68.22 199.67 69.07L193.88 119.78C193.86 119.91 193.78 120.03 193.65 120.08 192.85 120.42 192.19 120.58 191.55 120.58ZM198.13 68.09C197.74 68.09 197.4 68.4 197.35 68.79L191.56 119.82C192.03 119.82 192.55 119.7 193.16 119.46L198.92 68.97C198.97 68.54 198.66 68.14 198.22 68.09L198.13 68.09Z" fill="#A15920"/></g></g></g></g><g><path d="M158.09 69.41C158.09 69.65 157.9 69.85 157.66 69.85 157.42 69.85 157.22 69.66 157.22 69.42 157.22 69.18 157.41 68.98 157.65 68.98 157.89 68.98 158.09 69.17 158.09 69.41Z" fill="#744017"/><path d="M160.18 86.17C160.18 86.41 159.99 86.61 159.75 86.61 159.51 86.61 159.31 86.42 159.31 86.18 159.31 85.94 159.5 85.74 159.74 85.74 159.98 85.73 160.18 85.92 160.18 86.17Z" fill="#744017"/></g><g><path d="M197.67 69.41C197.67 69.65 197.86 69.85 198.1 69.85 198.34 69.85 198.54 69.66 198.54 69.42 198.54 69.18 198.35 68.98 198.11 68.98 197.87 68.98 197.67 69.17 197.67 69.41Z" fill="#744017"/><path d="M195.58 86.17C195.58 86.41 195.77 86.61 196.01 86.61 196.25 86.61 196.45 86.42 196.45 86.18 196.45 85.94 196.26 85.74 196.02 85.74 195.78 85.73 195.58 85.93 195.58 86.17Z" fill="#744017"/></g></g></g></g></svg>