<svg width="432.96" height="394.9" viewBox="0 0 432.96 394.9" xmlns="http://www.w3.org/2000/svg" xmlns:xlink="http://www.w3.org/1999/xlink" xml:space="preserve" overflow="hidden"><defs></defs><g><linearGradient x1="338.723" y1="240.995" x2="306.001" y2="267.106" gradientUnits="userSpaceOnUse" id="SVGID_45_"><stop offset="0" stop-color="#404040"/><stop offset="0.195" stop-color="#5F5F61"/><stop offset="0.3859" stop-color="#77787A"/><stop offset="0.5002" stop-color="#808184"/><stop offset="1" stop-color="#95979A"/></linearGradient><g><defs><path d="M357.15 262.58C357.15 262.95 356.86 263.24 356.49 263.24L302.28 263.24C301.91 263.24 301.62 262.94 301.62 262.58L301.62 135.66C301.62 135.29 301.91 135 302.28 135L356.49 135C356.86 135 357.15 135.3 357.15 135.66L357.15 262.58Z" id="SVGID_1_"/></defs><clipPath id="SVGID_2_"><use width="100%" height="100%" xlink:href="#SVGID_1_" overflow="visible"></use></clipPath><linearGradient x1="330.489" y1="123.793" x2="328.007" y2="292.204" gradientUnits="userSpaceOnUse" id="SVGID_3_"><stop offset="0" stop-color="#C5C7C8"/><stop offset="0.0448" stop-color="#D1D3D4"/><stop offset="0.1075" stop-color="#DBDCDD"/><stop offset="0.1898" stop-color="#DEDFE0"/><stop offset="0.7017" stop-color="#ACAEB1"/><stop offset="1" stop-color="#ACAEB1"/></linearGradient><radialGradient cx="2624.56" cy="376.462" r="15.6678" gradientUnits="userSpaceOnUse" id="SVGID_4_" gradientTransform="matrix(0.0002 0.1811 -4.9988 0.0053 2228.09 -339.64)"><stop offset="0" stop-color="#B2B2B2"/><stop offset="0.0279" stop-color="#A0A0A0"/><stop offset="0.1006" stop-color="#787878"/><stop offset="0.1754" stop-color="#565656"/><stop offset="0.2516" stop-color="#3C3C3C"/><stop offset="0.3297" stop-color="#2A2A2A"/><stop offset="0.4109" stop-color="#1F1F1F"/><stop offset="0.5" stop-color="#1B1B1B"/><stop offset="0.7247" stop-color="#0E0E0E"/><stop offset="1"/></radialGradient><radialGradient cx="3214.43" cy="376.446" r="15.6619" gradientUnits="userSpaceOnUse" id="SVGID_5_" gradientTransform="matrix(0.0002 0.1541 -4.4671 0.0048 2015.1 -236.493)"><stop offset="0" stop-color="#B2B2B2"/><stop offset="0.0279" stop-color="#A0A0A0"/><stop offset="0.1006" stop-color="#787878"/><stop offset="0.1754" stop-color="#565656"/><stop offset="0.2516" stop-color="#3C3C3C"/><stop offset="0.3297" stop-color="#2A2A2A"/><stop offset="0.4109" stop-color="#1F1F1F"/><stop offset="0.5" stop-color="#1B1B1B"/><stop offset="0.7247" stop-color="#0E0E0E"/><stop offset="1"/></radialGradient><radialGradient cx="3136.08" cy="385.789" r="15.6641" gradientUnits="userSpaceOnUse" id="SVGID_6_" gradientTransform="matrix(-0.1541 0.0002 -0.0048 -4.4671 839.074 1922.13)"><stop offset="0" stop-color="#B2B2B2"/><stop offset="0.0279" stop-color="#A0A0A0"/><stop offset="0.1006" stop-color="#787878"/><stop offset="0.1754" stop-color="#565656"/><stop offset="0.2516" stop-color="#3C3C3C"/><stop offset="0.3297" stop-color="#2A2A2A"/><stop offset="0.4109" stop-color="#1F1F1F"/><stop offset="0.5" stop-color="#1B1B1B"/><stop offset="0.7247" stop-color="#0E0E0E"/><stop offset="1"/></radialGradient><radialGradient cx="-336.204" cy="-108.659" r="11.6092" gradientUnits="userSpaceOnUse" id="SVGID_7_" gradientTransform="matrix(-1.4991 6.7002 -6.5851 -1.7746 -864.99 2331.62)"><stop offset="0" stop-color="#323133"/><stop offset="0.0241" stop-color="#3C3B3D"/><stop offset="0.1615" stop-color="#6F6E70"/><stop offset="0.3014" stop-color="#9B9B9C"/><stop offset="0.4411" stop-color="#BFBFC0"/><stop offset="0.5808" stop-color="#DBDBDB"/><stop offset="0.7204" stop-color="#EFEFEF"/><stop offset="0.86" stop-color="#FBFBFB"/><stop offset="1" stop-color="#FFFFFF"/></radialGradient><path d="M357.14 135.64 357.14 262.57C357.14 262.94 356.85 263.23 356.48 263.23L302.27 263.23C301.9 263.23 301.61 262.94 301.61 262.57L301.61 135.64C301.61 135.28 301.91 134.98 302.27 134.98L356.48 134.98C356.85 134.98 357.14 135.28 357.14 135.64Z" fill="url(#SVGID_3_)" clip-path="url(#SVGID_2_)"/><path d="M356.48 134.98 302.27 134.98C301.9 134.98 301.61 135.28 301.61 135.64L301.61 262.57C301.61 262.94 301.91 263.23 302.27 263.23L356.48 263.23C356.85 263.23 357.14 262.94 357.14 262.57L357.14 135.64C357.14 135.28 356.85 134.98 356.48 134.98ZM354.94 261.75 303.21 261.75 303.21 136.81 354.94 136.81 354.94 261.75Z" fill="#5D5D5D" clip-path="url(#SVGID_2_)" opacity="0.5"/><path d="M346.76 140.77C299.43 140.82 261.07 139.47 261.07 137.76 261.07 136.04 299.43 134.61 346.76 134.56 394.08 134.51 432.45 135.86 432.45 137.57 432.45 139.29 394.09 140.72 346.76 140.77Z" fill="url(#SVGID_4_)" clip-path="url(#SVGID_2_)"/><path d="M334.12 263.3C291.83 263.35 257.54 262.2 257.54 260.74 257.54 259.28 291.82 258.06 334.11 258.02 376.4 257.98 410.69 259.12 410.69 260.58 410.7 262.03 376.41 263.25 334.12 263.3Z" fill="url(#SVGID_5_)" clip-path="url(#SVGID_2_)"/><path d="M351.31 199.4C351.27 157.11 352.41 122.82 353.87 122.82 355.33 122.82 356.55 157.1 356.59 199.39 356.64 241.68 355.49 275.97 354.03 275.97 352.58 275.98 351.36 241.69 351.31 199.4Z" fill="url(#SVGID_6_)" clip-path="url(#SVGID_2_)"/><path d="M337.14 349.6C294.92 338.22 268.5 294.18 278.1 251.22 287.71 208.26 329.71 182.65 371.94 194.03 414.17 205.41 440.6 249.46 430.99 292.42 421.38 335.38 379.36 360.98 337.14 349.6Z" fill="url(#SVGID_7_)" clip-path="url(#SVGID_2_)" opacity="0.6"/></g><g><defs><path d="M118.44 262.46C118.44 262.85 118.74 263.17 119.11 263.17L301.11 263.17C301.48 263.17 301.78 262.85 301.78 262.46L301.78 135.58C301.78 135.19 301.48 134.87 301.11 134.87L119.11 134.87C118.74 134.87 118.44 135.19 118.44 135.58L118.44 262.46Z" id="SVGID_8_"/></defs><clipPath id="SVGID_9_"><use width="100%" height="100%" xlink:href="#SVGID_8_" overflow="visible"></use></clipPath><linearGradient x1="114.137" y1="198.115" x2="301.691" y2="199.888" gradientUnits="userSpaceOnUse" id="SVGID_10_"><stop offset="0" stop-color="#757576"/><stop offset="0.0145" stop-color="#656566"/><stop offset="0.0395" stop-color="#4E4F51"/><stop offset="0.0554" stop-color="#464749"/><stop offset="0.0884" stop-color="#5B5C5F"/><stop offset="0.1384" stop-color="#76777A"/><stop offset="0.1677" stop-color="#808184"/><stop offset="0.2104" stop-color="#848588"/><stop offset="0.2554" stop-color="#909295"/><stop offset="0.2684" stop-color="#95979A"/><stop offset="0.5633" stop-color="#ACAEB1"/><stop offset="0.6145" stop-color="#B3B5B7"/><stop offset="0.688" stop-color="#C6C7C9"/><stop offset="0.7747" stop-color="#E5E5E6"/><stop offset="0.8356" stop-color="#FFFFFF"/><stop offset="0.8735" stop-color="#FBFBFB"/><stop offset="0.9139" stop-color="#EEEEEE"/><stop offset="0.9553" stop-color="#D9D9D9"/><stop offset="0.9973" stop-color="#BBBBBB"/><stop offset="1" stop-color="#B9B9B9"/></linearGradient><radialGradient cx="-343.311" cy="-135.562" r="15.7581" gradientUnits="userSpaceOnUse" id="SVGID_11_" gradientTransform="matrix(1.4726 6.7002 6.4685 -1.7746 1487 2331.62)"><stop offset="0" stop-color="#323133"/><stop offset="0.0241" stop-color="#3C3B3D"/><stop offset="0.1615" stop-color="#6F6E70"/><stop offset="0.3014" stop-color="#9B9B9C"/><stop offset="0.4411" stop-color="#BFBFC0"/><stop offset="0.5808" stop-color="#DBDBDB"/><stop offset="0.7204" stop-color="#EFEFEF"/><stop offset="0.86" stop-color="#FBFBFB"/><stop offset="1" stop-color="#FFFFFF"/></radialGradient><radialGradient cx="-333.947" cy="-107.931" r="15.7582" gradientUnits="userSpaceOnUse" id="SVGID_12_" gradientTransform="matrix(1.4726 6.7002 6.4685 -1.7746 1487 2331.62)"><stop offset="0" stop-color="#323133"/><stop offset="0.0241" stop-color="#3C3B3D"/><stop offset="0.1615" stop-color="#6F6E70"/><stop offset="0.3014" stop-color="#9B9B9C"/><stop offset="0.4411" stop-color="#BFBFC0"/><stop offset="0.5808" stop-color="#DBDBDB"/><stop offset="0.7204" stop-color="#EFEFEF"/><stop offset="0.86" stop-color="#FBFBFB"/><stop offset="1" stop-color="#FFFFFF"/></radialGradient><radialGradient cx="2621.49" cy="345.04" r="15.6613" gradientUnits="userSpaceOnUse" id="SVGID_13_" gradientTransform="matrix(-0.0003 0.223 5.2729 0.0056 -1677.01 -449.724)"><stop offset="0" stop-color="#B2B2B2"/><stop offset="0.0279" stop-color="#A0A0A0"/><stop offset="0.1006" stop-color="#787878"/><stop offset="0.1754" stop-color="#565656"/><stop offset="0.2516" stop-color="#3C3C3C"/><stop offset="0.3297" stop-color="#2A2A2A"/><stop offset="0.4109" stop-color="#1F1F1F"/><stop offset="0.5" stop-color="#1B1B1B"/><stop offset="0.7247" stop-color="#0E0E0E"/><stop offset="1"/></radialGradient><radialGradient cx="-290.202" cy="1178.26" r="17.9222" gradientUnits="userSpaceOnUse" id="SVGID_14_" gradientTransform="matrix(-7.7916 0.0159 0.0025 0.3442 -2036.37 -140.048)"><stop offset="0" stop-color="#323133"/><stop offset="0.0241" stop-color="#3C3B3D"/><stop offset="0.1615" stop-color="#6F6E70"/><stop offset="0.3014" stop-color="#9B9B9C"/><stop offset="0.4411" stop-color="#BFBFC0"/><stop offset="0.5808" stop-color="#DBDBDB"/><stop offset="0.7204" stop-color="#EFEFEF"/><stop offset="0.86" stop-color="#FBFBFB"/><stop offset="1" stop-color="#FFFFFF"/></radialGradient><radialGradient cx="1616.65" cy="388.025" r="12.5817" gradientUnits="userSpaceOnUse" id="SVGID_15_" gradientTransform="matrix(0.1958 0.0002 0.0056 -5.368 -197.685 2239.48)"><stop offset="0" stop-color="#B2B2B2"/><stop offset="0.0279" stop-color="#A0A0A0"/><stop offset="0.1006" stop-color="#787878"/><stop offset="0.1754" stop-color="#565656"/><stop offset="0.2516" stop-color="#3C3C3C"/><stop offset="0.3297" stop-color="#2A2A2A"/><stop offset="0.4109" stop-color="#1F1F1F"/><stop offset="0.5" stop-color="#1B1B1B"/><stop offset="0.7247" stop-color="#0E0E0E"/><stop offset="1"/></radialGradient><radialGradient cx="4265.43" cy="297.485" r="12.5833" gradientUnits="userSpaceOnUse" id="SVGID_16_" gradientTransform="matrix(-0.0002 0.1993 5.2729 0.0057 -1358.85 -590.678)"><stop offset="0" stop-color="#B2B2B2"/><stop offset="0.0279" stop-color="#A0A0A0"/><stop offset="0.1006" stop-color="#787878"/><stop offset="0.1754" stop-color="#565656"/><stop offset="0.2516" stop-color="#3C3C3C"/><stop offset="0.3297" stop-color="#2A2A2A"/><stop offset="0.4109" stop-color="#1F1F1F"/><stop offset="0.5" stop-color="#1B1B1B"/><stop offset="0.7247" stop-color="#0E0E0E"/><stop offset="1"/></radialGradient><radialGradient cx="-332.809" cy="154.814" r="17.924" gradientUnits="userSpaceOnUse" id="SVGID_17_" gradientTransform="matrix(-0.0186 7.9321 0.2936 -0.001 248.804 2833.65)"><stop offset="0" stop-color="#323133"/><stop offset="0.0241" stop-color="#3C3B3D"/><stop offset="0.1615" stop-color="#6F6E70"/><stop offset="0.3014" stop-color="#9B9B9C"/><stop offset="0.4411" stop-color="#BFBFC0"/><stop offset="0.5808" stop-color="#DBDBDB"/><stop offset="0.7204" stop-color="#EFEFEF"/><stop offset="0.86" stop-color="#FBFBFB"/><stop offset="1" stop-color="#FFFFFF"/></radialGradient><radialGradient cx="-125.466" cy="469.402" r="20.9185" gradientUnits="userSpaceOnUse" id="SVGID_18_" gradientTransform="matrix(-5.1604 -0.0579 -0.1306 5.2814 -294.303 -2365.47)"><stop offset="0" stop-color="#ECECED"/><stop offset="0.0687" stop-color="#DEDFE0"/><stop offset="0.1648" stop-color="#BABBBC"/><stop offset="0.3948" stop-color="#67686A"/><stop offset="0.5" stop-color="#464749"/><stop offset="0.7247" stop-color="#323133"/><stop offset="1"/></radialGradient><radialGradient cx="-340.025" cy="-1171.88" r="17.9201" gradientUnits="userSpaceOnUse" id="SVGID_19_" gradientTransform="matrix(-0.0136 7.5633 0.1859 -0.001 332.342 2723.5)"><stop offset="0" stop-color="#323133"/><stop offset="0.0241" stop-color="#3C3B3D"/><stop offset="0.1615" stop-color="#6F6E70"/><stop offset="0.3014" stop-color="#9B9B9C"/><stop offset="0.4411" stop-color="#BFBFC0"/><stop offset="0.5808" stop-color="#DBDBDB"/><stop offset="0.7204" stop-color="#EFEFEF"/><stop offset="0.86" stop-color="#FBFBFB"/><stop offset="1" stop-color="#FFFFFF"/></radialGradient><radialGradient cx="-330.717" cy="-1172.06" r="17.9202" gradientUnits="userSpaceOnUse" id="SVGID_20_" gradientTransform="matrix(-0.0136 7.5633 0.1859 -0.001 332.342 2723.5)"><stop offset="0" stop-color="#323133"/><stop offset="0.0241" stop-color="#3C3B3D"/><stop offset="0.1615" stop-color="#6F6E70"/><stop offset="0.3014" stop-color="#9B9B9C"/><stop offset="0.4411" stop-color="#BFBFC0"/><stop offset="0.5808" stop-color="#DBDBDB"/><stop offset="0.7204" stop-color="#EFEFEF"/><stop offset="0.86" stop-color="#FBFBFB"/><stop offset="1" stop-color="#FFFFFF"/></radialGradient><radialGradient cx="3623.59" cy="305.72" r="9.3525" gradientUnits="userSpaceOnUse" id="SVGID_21_" gradientTransform="matrix(2.0513 0.5789 3.0787 -10.4341 -8104.8 1339.99)"><stop offset="0" stop-color="#B2B2B2"/><stop offset="0.0626" stop-color="#939393"/><stop offset="0.1591" stop-color="#6B6B6B"/><stop offset="0.2583" stop-color="#494949"/><stop offset="0.3593" stop-color="#2F2F2F"/><stop offset="0.4628" stop-color="#1D1D1D"/><stop offset="0.5703" stop-color="#121212"/><stop offset="0.6885" stop-color="#0E0E0E"/><stop offset="1"/></radialGradient><path d="M118.33 135.58 118.33 262.46C118.33 262.85 118.63 263.17 119 263.17L301 263.17C301.37 263.17 301.67 262.85 301.67 262.46L301.67 135.58C301.67 135.19 301.37 134.87 301 134.87L119 134.87C118.63 134.87 118.33 135.19 118.33 135.58Z" fill="url(#SVGID_10_)" clip-path="url(#SVGID_9_)"/><path d="M127.77 377.52C184.06 362.08 219.3 302.29 206.49 243.97 193.68 185.66 137.67 150.9 81.37 166.35 25.07 181.79-10.18 241.59 2.63 299.91 15.44 358.22 71.47 392.97 127.77 377.52Z" fill="url(#SVGID_11_)" clip-path="url(#SVGID_9_)" opacity="0.6"/><path d="M320.29 391.23C376.58 375.78 411.82 316 399.01 257.68 386.2 199.37 330.19 164.61 273.89 180.06 217.59 195.51 182.34 255.3 195.15 313.61 207.96 371.92 263.99 406.68 320.29 391.23Z" fill="url(#SVGID_12_)" clip-path="url(#SVGID_9_)" opacity="0.6"/><path d="M118.33 135.58 118.33 135.9 118.33 261.67 118.33 262.47C118.33 262.86 118.63 263.18 119 263.18L120.33 263.18 300.53 263.18 301 263.18C301.37 263.18 301.67 262.86 301.67 262.47L301.67 261.67 301.67 135.9 301.67 135.58C301.67 135.19 301.37 134.87 301 134.87L300.53 134.87 120.33 134.87 119 134.87C118.63 134.87 118.33 135.19 118.33 135.58ZM120.33 136.56 300.53 136.56 300.53 261.67 120.33 261.67 120.33 136.56Z" fill="#606060" clip-path="url(#SVGID_9_)" opacity="0.7"/><path d="M141.56 140.62C191.49 140.67 231.95 139 231.95 136.89 231.95 134.78 191.49 133.03 141.57 132.98 91.65 132.93 51.18 134.59 51.18 136.71 51.18 138.82 91.64 140.57 141.56 140.62Z" fill="url(#SVGID_13_)" clip-path="url(#SVGID_9_)"/><path d="M88.06 261.18C88.08 264.59 150.63 267.22 227.75 267.06 304.88 266.9 367.38 264.02 367.36 260.61 367.33 257.2 304.79 254.57 227.66 254.73 150.54 254.88 88.04 257.78 88.06 261.18Z" fill="url(#SVGID_14_)" clip-path="url(#SVGID_9_)" opacity="0.6"/><path d="M123.72 156.89C123.76 116.07 122.59 82.97 121.1 82.97 119.61 82.97 118.37 116.06 118.33 156.88 118.29 197.7 119.46 230.8 120.95 230.8 122.44 230.8 123.68 197.71 123.72 156.89Z" fill="url(#SVGID_15_)" clip-path="url(#SVGID_9_)"/><path d="M208.9 263.86C249 263.9 281.51 262.71 281.51 261.2 281.51 259.68 249.01 258.42 208.91 258.38 168.81 258.34 136.3 259.53 136.3 261.05 136.3 262.56 168.81 263.82 208.9 263.86Z" fill="url(#SVGID_16_)" clip-path="url(#SVGID_9_)"/><path d="M300.12 335.79C303.03 335.78 305.53 272.12 305.72 193.6 305.9 115.08 303.69 51.44 300.79 51.45 297.88 51.46 295.38 115.12 295.19 193.64 295 272.15 297.21 335.8 300.12 335.79Z" fill="url(#SVGID_17_)" clip-path="url(#SVGID_9_)" opacity="0.6"/><path d="M173.75 119.57C172.1 186.34 223.64 241.06 288.88 241.78 354.1 242.51 408.33 188.99 409.96 122.22 411.61 55.46 360.07 0.74 294.84 0.01 229.61-0.73 175.41 52.81 173.75 119.57Z" fill="url(#SVGID_18_)" clip-path="url(#SVGID_9_)" opacity="0.8"/><path d="M118.87 288.52C120.71 288.51 122.31 227.81 122.44 152.95 122.58 78.08 121.19 17.4 119.35 17.41 117.51 17.42 115.91 78.12 115.77 152.99 115.65 227.85 117.03 288.53 118.87 288.52Z" fill="url(#SVGID_19_)" clip-path="url(#SVGID_9_)" opacity="0.6"/><path d="M118.71 358.92C120.55 358.91 122.15 298.21 122.29 223.35 122.43 148.48 121.04 87.8 119.2 87.81 117.36 87.82 115.76 148.52 115.62 223.39 115.49 298.25 116.87 358.94 118.71 358.92Z" fill="url(#SVGID_20_)" clip-path="url(#SVGID_9_)" opacity="0.6"/><path d="M290.47 253.69C307.88 194.72 312.57 144.25 300.99 140.99 289.37 137.71 265.88 182.86 248.49 241.84 231.09 300.81 226.37 351.27 237.98 354.55 249.58 357.82 273.07 312.66 290.47 253.69Z" fill="url(#SVGID_21_)" clip-path="url(#SVGID_9_)" opacity="0.6"/></g><g><defs><path d="M140.48 154.58 140.48 243.31C140.48 243.68 140.78 243.98 141.15 243.98L301.13 243.98C301.5 243.98 301.79 243.68 301.79 243.31L301.79 154.58C301.79 154.21 301.49 153.91 301.13 153.91L141.14 153.91C140.77 153.91 140.48 154.21 140.48 154.58ZM142.13 156.87C142.13 156.42 142.43 156.06 142.8 156.06L298.8 156.06C299.17 156.06 299.47 156.42 299.47 156.87L299.47 241.19C299.47 241.64 299.17 242 298.8 242L142.8 242C142.43 242 142.13 241.64 142.13 241.19L142.13 156.87Z" id="SVGID_22_"/></defs><clipPath id="SVGID_23_"><use width="100%" height="100%" xlink:href="#SVGID_22_" overflow="visible"></use></clipPath><linearGradient x1="542.443" y1="232.125" x2="328.08" y2="164.873" gradientUnits="userSpaceOnUse" id="SVGID_24_" gradientTransform="matrix(-1 0 0 1 657.808 0)"><stop offset="0" stop-color="#ACAEB1"/><stop offset="0.2395" stop-color="#323133"/><stop offset="0.3351" stop-color="#3A3A3B"/><stop offset="0.4888" stop-color="#515151"/><stop offset="0.4983" stop-color="#535353"/><stop offset="0.5072" stop-color="#4E4E4F"/><stop offset="0.566" stop-color="#323335"/><stop offset="0.6172" stop-color="#202226"/><stop offset="0.6549" stop-color="#1A1C20"/><stop offset="0.7947" stop-color="#323133"/><stop offset="0.8619" stop-color="#2E2D2F"/><stop offset="0.9332" stop-color="#212123"/><stop offset="1" stop-color="#0E0F11"/></linearGradient><linearGradient x1="542.448" y1="232.105" x2="328.087" y2="164.854" gradientUnits="userSpaceOnUse" id="SVGID_25_" gradientTransform="matrix(-1 0 0 1 657.808 0)"><stop offset="0" stop-color="#464749"/><stop offset="0.6659" stop-color="#28282A"/><stop offset="1" stop-color="#171719"/></linearGradient><radialGradient cx="2816.92" cy="327.653" r="15.661" gradientUnits="userSpaceOnUse" id="SVGID_26_" gradientTransform="matrix(-0.0002 0.144 4.068 0.0044 -1149.99 -163.875)"><stop offset="0" stop-color="#B2B2B2"/><stop offset="0.0279" stop-color="#A0A0A0"/><stop offset="0.1006" stop-color="#787878"/><stop offset="0.1754" stop-color="#565656"/><stop offset="0.2516" stop-color="#3C3C3C"/><stop offset="0.3297" stop-color="#2A2A2A"/><stop offset="0.4109" stop-color="#1F1F1F"/><stop offset="0.5" stop-color="#1B1B1B"/><stop offset="0.7247" stop-color="#0E0E0E"/><stop offset="1"/></radialGradient><radialGradient cx="2821.79" cy="337.538" r="15.6618" gradientUnits="userSpaceOnUse" id="SVGID_27_" gradientTransform="matrix(-0.0002 0.144 4.068 0.0044 -1149.99 -163.875)"><stop offset="0" stop-color="#B2B2B2"/><stop offset="0.0279" stop-color="#A0A0A0"/><stop offset="0.1006" stop-color="#787878"/><stop offset="0.1754" stop-color="#565656"/><stop offset="0.2516" stop-color="#3C3C3C"/><stop offset="0.3297" stop-color="#2A2A2A"/><stop offset="0.4109" stop-color="#1F1F1F"/><stop offset="0.5" stop-color="#1B1B1B"/><stop offset="0.7247" stop-color="#0E0E0E"/><stop offset="1"/></radialGradient><radialGradient cx="1154.98" cy="425.56" r="15.6618" gradientUnits="userSpaceOnUse" id="SVGID_28_" gradientTransform="matrix(0.1844 -0.0015 -0.0367 -4.4382 -55.6295 2103.82)"><stop offset="0" stop-color="#B2B2B2"/><stop offset="0.0279" stop-color="#A0A0A0"/><stop offset="0.1006" stop-color="#787878"/><stop offset="0.1754" stop-color="#565656"/><stop offset="0.2516" stop-color="#3C3C3C"/><stop offset="0.3297" stop-color="#2A2A2A"/><stop offset="0.4109" stop-color="#1F1F1F"/><stop offset="0.5" stop-color="#1B1B1B"/><stop offset="0.7247" stop-color="#0E0E0E"/><stop offset="1"/></radialGradient><radialGradient cx="936.504" cy="432.118" r="15.6627" gradientUnits="userSpaceOnUse" id="SVGID_29_" gradientTransform="matrix(0.1417 -0.0018 -0.02 -4.4381 17.0392 2104.47)"><stop offset="0" stop-color="#B2B2B2"/><stop offset="0.0279" stop-color="#A0A0A0"/><stop offset="0.1006" stop-color="#787878"/><stop offset="0.1754" stop-color="#565656"/><stop offset="0.2516" stop-color="#3C3C3C"/><stop offset="0.3297" stop-color="#2A2A2A"/><stop offset="0.4109" stop-color="#1F1F1F"/><stop offset="0.5" stop-color="#1B1B1B"/><stop offset="0.7247" stop-color="#0E0E0E"/><stop offset="1"/></radialGradient><radialGradient cx="-334.438" cy="-1469.27" r="17.9232" gradientUnits="userSpaceOnUse" id="SVGID_30_" gradientTransform="matrix(-0.0115 7.5633 0.1336 -0.001 493.685 2723.92)"><stop offset="0" stop-color="#323133"/><stop offset="0.0241" stop-color="#3C3B3D"/><stop offset="0.1615" stop-color="#6F6E70"/><stop offset="0.3014" stop-color="#9B9B9C"/><stop offset="0.4411" stop-color="#BFBFC0"/><stop offset="0.5808" stop-color="#DBDBDB"/><stop offset="0.7204" stop-color="#EFEFEF"/><stop offset="0.86" stop-color="#FBFBFB"/><stop offset="1" stop-color="#FFFFFF"/></radialGradient><radialGradient cx="2003.01" cy="325.185" r="15.666" gradientUnits="userSpaceOnUse" id="SVGID_31_" gradientTransform="matrix(-0.0001 0.1182 4.068 0.0045 -1149.57 -82.7189)"><stop offset="0" stop-color="#B2B2B2"/><stop offset="0.0279" stop-color="#A0A0A0"/><stop offset="0.1006" stop-color="#787878"/><stop offset="0.1754" stop-color="#565656"/><stop offset="0.2516" stop-color="#3C3C3C"/><stop offset="0.3297" stop-color="#2A2A2A"/><stop offset="0.4109" stop-color="#1F1F1F"/><stop offset="0.5" stop-color="#1B1B1B"/><stop offset="0.7247" stop-color="#0E0E0E"/><stop offset="1"/></radialGradient><radialGradient cx="-767.231" cy="366.359" r="15.6679" gradientUnits="userSpaceOnUse" id="SVGID_32_" gradientTransform="matrix(0.1182 0.0001 0.0045 -4.068 230.608 1668.62)"><stop offset="0" stop-color="#B2B2B2"/><stop offset="0.0279" stop-color="#A0A0A0"/><stop offset="0.1006" stop-color="#787878"/><stop offset="0.1754" stop-color="#565656"/><stop offset="0.2516" stop-color="#3C3C3C"/><stop offset="0.3297" stop-color="#2A2A2A"/><stop offset="0.4109" stop-color="#1F1F1F"/><stop offset="0.5" stop-color="#1B1B1B"/><stop offset="0.7247" stop-color="#0E0E0E"/><stop offset="1"/></radialGradient><radialGradient cx="2794.85" cy="411.927" r="15.6647" gradientUnits="userSpaceOnUse" id="SVGID_33_" gradientTransform="matrix(0.0002 -0.1923 -4.9968 -0.0053 2342.73 694.858)"><stop offset="0" stop-color="#B2B2B2"/><stop offset="0.0279" stop-color="#A0A0A0"/><stop offset="0.1006" stop-color="#787878"/><stop offset="0.1754" stop-color="#565656"/><stop offset="0.2516" stop-color="#3C3C3C"/><stop offset="0.3297" stop-color="#2A2A2A"/><stop offset="0.4109" stop-color="#1F1F1F"/><stop offset="0.5" stop-color="#1B1B1B"/><stop offset="0.7247" stop-color="#0E0E0E"/><stop offset="1"/></radialGradient><radialGradient cx="2794.63" cy="419.777" r="15.6648" gradientUnits="userSpaceOnUse" id="SVGID_34_" gradientTransform="matrix(0.0002 -0.1923 -4.9968 -0.0053 2342.73 694.858)"><stop offset="0" stop-color="#B2B2B2"/><stop offset="0.0279" stop-color="#A0A0A0"/><stop offset="0.1006" stop-color="#787878"/><stop offset="0.1754" stop-color="#565656"/><stop offset="0.2516" stop-color="#3C3C3C"/><stop offset="0.3297" stop-color="#2A2A2A"/><stop offset="0.4109" stop-color="#1F1F1F"/><stop offset="0.5" stop-color="#1B1B1B"/><stop offset="0.7247" stop-color="#0E0E0E"/><stop offset="1"/></radialGradient><radialGradient cx="2440.51" cy="412.72" r="15.6658" gradientUnits="userSpaceOnUse" id="SVGID_35_" gradientTransform="matrix(0.0002 -0.1537 -4.9968 -0.0055 2343.23 620.746)"><stop offset="0" stop-color="#B2B2B2"/><stop offset="0.0279" stop-color="#A0A0A0"/><stop offset="0.1006" stop-color="#787878"/><stop offset="0.1754" stop-color="#565656"/><stop offset="0.2516" stop-color="#3C3C3C"/><stop offset="0.3297" stop-color="#2A2A2A"/><stop offset="0.4109" stop-color="#1F1F1F"/><stop offset="0.5" stop-color="#1B1B1B"/><stop offset="0.7247" stop-color="#0E0E0E"/><stop offset="1"/></radialGradient><radialGradient cx="2440.08" cy="424.583" r="15.6659" gradientUnits="userSpaceOnUse" id="SVGID_36_" gradientTransform="matrix(0.0002 -0.1537 -4.9968 -0.0055 2343.23 620.746)"><stop offset="0" stop-color="#B2B2B2"/><stop offset="0.0279" stop-color="#A0A0A0"/><stop offset="0.1006" stop-color="#787878"/><stop offset="0.1754" stop-color="#565656"/><stop offset="0.2516" stop-color="#3C3C3C"/><stop offset="0.3297" stop-color="#2A2A2A"/><stop offset="0.4109" stop-color="#1F1F1F"/><stop offset="0.5" stop-color="#1B1B1B"/><stop offset="0.7247" stop-color="#0E0E0E"/><stop offset="1"/></radialGradient><path d="M140.48 154.58 140.48 243.31C140.48 243.68 140.78 243.98 141.15 243.98L301.13 243.98C301.5 243.98 301.79 243.68 301.79 243.31L301.79 154.58C301.79 154.21 301.49 153.91 301.13 153.91L141.14 153.91C140.77 153.91 140.48 154.21 140.48 154.58ZM142.13 156.87C142.13 156.42 142.43 156.06 142.8 156.06L298.8 156.06C299.17 156.06 299.47 156.42 299.47 156.87L299.47 241.19C299.47 241.64 299.17 242 298.8 242L142.8 242C142.43 242 142.13 241.64 142.13 241.19L142.13 156.87Z" fill="url(#SVGID_24_)" clip-path="url(#SVGID_23_)"/><path d="M142.8 156.05 298.8 156.05C299.17 156.05 299.47 156.41 299.47 156.86L299.47 241.18C299.47 241.63 299.17 241.99 298.8 241.99L142.8 241.99C142.43 241.99 142.13 241.63 142.13 241.18L142.13 156.86C142.13 156.42 142.43 156.05 142.8 156.05Z" fill="url(#SVGID_25_)" clip-path="url(#SVGID_23_)"/><path d="M182.34 245.67C220.85 245.71 252.07 244.64 252.07 243.28 252.07 241.92 220.85 240.78 182.34 240.74 143.83 240.7 112.6 241.77 112.6 243.13 112.6 244.49 143.82 245.63 182.34 245.67Z" fill="url(#SVGID_26_)" clip-path="url(#SVGID_23_)"/><path d="M222.55 246.41C261.07 246.45 292.29 245.38 292.29 244.02 292.3 242.66 261.08 241.52 222.56 241.48 184.05 241.44 152.82 242.51 152.82 243.87 152.81 245.24 184.04 246.38 222.55 246.41Z" fill="url(#SVGID_27_)" clip-path="url(#SVGID_23_)"/><path d="M144.89 213.34C144.54 171.32 142.85 137.27 141.1 137.29 139.35 137.3 138.22 171.37 138.57 213.39 138.92 255.41 140.62 289.46 142.36 289.45 144.11 289.43 145.24 255.35 144.89 213.34Z" fill="url(#SVGID_28_)" clip-path="url(#SVGID_23_)" opacity="0.6"/><path d="M143.53 184.97C143.34 142.95 142.1 108.91 140.76 108.92 139.42 108.94 138.49 143.01 138.67 185.03 138.86 227.05 140.1 261.1 141.44 261.08 142.79 261.07 143.72 226.99 143.53 184.97Z" fill="url(#SVGID_29_)" clip-path="url(#SVGID_23_)" opacity="0.5"/><path d="M301.03 331.49C302.36 331.48 303.52 270.78 303.63 195.91 303.75 121.04 302.76 60.36 301.44 60.37 300.12 60.38 298.96 121.08 298.84 195.95 298.73 270.82 299.71 331.5 301.03 331.49Z" fill="url(#SVGID_30_)" clip-path="url(#SVGID_23_)" opacity="0.6"/><path d="M173.08 157.53C211.59 157.57 242.82 156.7 242.81 155.58 242.81 154.46 211.59 153.52 173.08 153.48 134.57 153.44 103.34 154.31 103.34 155.43 103.35 156.54 134.57 157.48 173.08 157.53Z" fill="url(#SVGID_31_)" clip-path="url(#SVGID_23_)" opacity="0.3"/><path d="M143.6 178.2C143.64 139.68 142.77 108.46 141.65 108.46 140.53 108.46 139.59 139.68 139.55 178.19 139.51 216.7 140.38 247.93 141.5 247.93 142.61 247.93 143.55 216.71 143.6 178.2Z" fill="url(#SVGID_32_)" clip-path="url(#SVGID_23_)" opacity="0.6"/><path d="M284.97 151.93C237.66 151.88 199.31 153.32 199.31 155.14 199.31 156.96 237.66 158.48 284.96 158.52 332.26 158.57 370.62 157.13 370.62 155.31 370.63 153.49 332.28 151.98 284.97 151.93Z" fill="url(#SVGID_33_)" clip-path="url(#SVGID_23_)" opacity="0.6"/><path d="M245.75 151.93C198.44 151.88 160.09 153.32 160.09 155.14 160.09 156.96 198.43 158.48 245.74 158.52 293.04 158.57 331.4 157.13 331.4 155.31 331.41 153.49 293.06 151.98 245.75 151.93Z" fill="url(#SVGID_34_)" clip-path="url(#SVGID_23_)" opacity="0.6"/><path d="M281.45 240.74C234.14 240.69 195.79 241.83 195.79 243.28 195.79 244.73 234.13 245.96 281.44 246.01 328.74 246.06 367.1 244.92 367.1 243.47 367.1 242.01 328.75 240.79 281.45 240.74Z" fill="url(#SVGID_35_)" clip-path="url(#SVGID_23_)" opacity="0.6"/><path d="M222.17 240.74C174.86 240.69 136.51 241.83 136.51 243.28 136.51 244.73 174.85 245.96 222.16 246.01 269.47 246.06 307.82 244.92 307.82 243.47 307.82 242.01 269.47 240.79 222.17 240.74Z" fill="url(#SVGID_36_)" clip-path="url(#SVGID_23_)" opacity="0.6"/></g><g><defs><path d="M142.22 241.15C142.22 241.6 142.52 241.96 142.89 241.96L298.78 241.96C299.15 241.96 299.45 241.6 299.45 241.15L299.45 156.72C299.45 156.27 299.15 155.91 298.78 155.91L142.89 155.91C142.52 155.91 142.22 156.27 142.22 156.72L142.22 241.15Z" id="SVGID_37_"/></defs><clipPath id="SVGID_38_"><use width="100%" height="100%" xlink:href="#SVGID_37_" overflow="visible"></use></clipPath><radialGradient cx="3003.52" cy="424.859" r="15.6658" gradientUnits="userSpaceOnUse" id="SVGID_41_" gradientTransform="matrix(0.0002 -0.1537 -4.9968 -0.0055 2343.23 620.746)"><stop offset="0" stop-color="#B2B2B2"/><stop offset="0.0279" stop-color="#A0A0A0"/><stop offset="0.1006" stop-color="#787878"/><stop offset="0.1754" stop-color="#565656"/><stop offset="0.2516" stop-color="#3C3C3C"/><stop offset="0.3297" stop-color="#2A2A2A"/><stop offset="0.4109" stop-color="#1F1F1F"/><stop offset="0.5" stop-color="#1B1B1B"/><stop offset="0.7247" stop-color="#0E0E0E"/><stop offset="1"/></radialGradient><radialGradient cx="4109.24" cy="352.218" r="15.6638" gradientUnits="userSpaceOnUse" id="SVGID_42_" gradientTransform="matrix(-0.1408 -0.0002 -0.0056 4.9968 879.679 -1555.6)"><stop offset="0" stop-color="#B2B2B2"/><stop offset="0.0279" stop-color="#A0A0A0"/><stop offset="0.1006" stop-color="#787878"/><stop offset="0.1754" stop-color="#565656"/><stop offset="0.2516" stop-color="#3C3C3C"/><stop offset="0.3297" stop-color="#2A2A2A"/><stop offset="0.4109" stop-color="#1F1F1F"/><stop offset="0.5" stop-color="#1B1B1B"/><stop offset="0.7247" stop-color="#0E0E0E"/><stop offset="1"/></radialGradient><radialGradient cx="5218.52" cy="350.807" r="15.6677" gradientUnits="userSpaceOnUse" id="SVGID_43_" gradientTransform="matrix(-0.1408 -0.0002 -0.0056 4.9968 879.679 -1555.6)"><stop offset="0" stop-color="#B2B2B2"/><stop offset="0.0279" stop-color="#A0A0A0"/><stop offset="0.1006" stop-color="#787878"/><stop offset="0.1754" stop-color="#565656"/><stop offset="0.2516" stop-color="#3C3C3C"/><stop offset="0.3297" stop-color="#2A2A2A"/><stop offset="0.4109" stop-color="#1F1F1F"/><stop offset="0.5" stop-color="#1B1B1B"/><stop offset="0.7247" stop-color="#0E0E0E"/><stop offset="1"/></radialGradient><radialGradient cx="2454.41" cy="424.672" r="15.6695" gradientUnits="userSpaceOnUse" id="SVGID_44_" gradientTransform="matrix(0.0002 -0.1537 -4.9968 -0.0055 2343.23 620.746)"><stop offset="0" stop-color="#B2B2B2"/><stop offset="0.0279" stop-color="#A0A0A0"/><stop offset="0.1006" stop-color="#787878"/><stop offset="0.1754" stop-color="#565656"/><stop offset="0.2516" stop-color="#3C3C3C"/><stop offset="0.3297" stop-color="#2A2A2A"/><stop offset="0.4109" stop-color="#1F1F1F"/><stop offset="0.5" stop-color="#1B1B1B"/><stop offset="0.7247" stop-color="#0E0E0E"/><stop offset="1"/></radialGradient><g clip-path="url(#SVGID_38_)"><linearGradient x1="539.797" y1="231.273" x2="331.469" y2="165.915" gradientUnits="userSpaceOnUse" id="SVGID_39_" gradientTransform="matrix(-1 0 0 1 657.808 0)"><stop offset="0"/><stop offset="0.2812" stop-color="#030303"/><stop offset="0.4503" stop-color="#0B0B0B"/><stop offset="0.5899" stop-color="#191919"/><stop offset="0.7133" stop-color="#2E2E2E"/><stop offset="0.8259" stop-color="#484848"/><stop offset="0.9294" stop-color="#686868"/><stop offset="1" stop-color="#828282"/></linearGradient><linearGradient x1="358.341" y1="199.026" x2="454.133" y2="199.026" gradientUnits="userSpaceOnUse" id="SVGID_40_" gradientTransform="matrix(-1 0 0 1 657.808 0)"><stop offset="0" stop-color="#1B1B1B"/><stop offset="0.2549" stop-color="#1E1E1E"/><stop offset="0.4778" stop-color="#292929"/><stop offset="0.6887" stop-color="#3B3B3B"/><stop offset="0.8911" stop-color="#545454"/><stop offset="1" stop-color="#656565"/></linearGradient><path d="M142.8 156.05 298.8 156.05C299.17 156.05 299.47 156.41 299.47 156.86L299.47 241.18C299.47 241.63 299.17 241.99 298.8 241.99L142.8 241.99C142.43 241.99 142.13 241.63 142.13 241.18L142.13 156.86C142.13 156.42 142.43 156.05 142.8 156.05Z" fill="url(#SVGID_39_)"/><path d="M203.68 156.05C213.1 165.62 227.74 181.32 239.73 197.81 251.68 214.23 260.07 231.31 264.75 242L298.8 242C299.18 242 299.48 241.64 299.48 241.19L299.48 156.87C299.48 156.42 299.18 156.06 298.8 156.06L203.68 156.06Z" fill="url(#SVGID_40_)" opacity="0.2"/></g><path d="M220.9 154.13C173.59 154.08 135.24 155.22 135.24 156.67 135.24 158.12 173.58 159.35 220.89 159.4 268.19 159.45 306.55 158.31 306.55 156.86 306.56 155.41 268.21 154.19 220.9 154.13Z" fill="url(#SVGID_41_)" clip-path="url(#SVGID_38_)" opacity="0.2"/><path d="M296.71 203.54C296.66 250.85 297.69 289.2 299.03 289.2 300.36 289.2 301.48 250.86 301.54 203.55 301.59 156.24 300.56 117.89 299.22 117.89 297.89 117.88 296.76 156.23 296.71 203.54Z" fill="url(#SVGID_42_)" clip-path="url(#SVGID_38_)" opacity="0.2"/><path d="M140.53 196.27C140.48 243.58 141.52 281.93 142.85 281.93 144.18 281.93 145.3 243.59 145.36 196.28 145.41 148.97 144.37 110.62 143.04 110.62 141.71 110.61 140.59 148.96 140.53 196.27Z" fill="url(#SVGID_43_)" clip-path="url(#SVGID_38_)" opacity="0.2"/><path d="M221.73 238.53C174.42 238.48 136.07 239.62 136.07 241.07 136.07 242.53 174.41 243.75 221.72 243.8 269.02 243.85 307.38 242.71 307.38 241.26 307.38 239.81 269.03 238.58 221.73 238.53Z" fill="url(#SVGID_44_)" clip-path="url(#SVGID_38_)" opacity="0.2"/></g><path d="M344.36 255.15C344.36 255.45 344.12 255.68 343.82 255.68L314.19 255.68C313.89 255.68 313.66 255.44 313.66 255.15L313.66 242.34C313.66 242.04 313.9 241.81 314.19 241.81L343.82 241.81C344.12 241.81 344.36 242.05 344.36 242.34L344.36 255.15Z" fill="#A0A0A0"/><path d="M343.67 254.49C343.67 254.75 343.44 254.97 343.16 254.97L314.86 254.97C314.58 254.97 314.35 254.76 314.35 254.49L314.35 243.01C314.35 242.75 314.58 242.53 314.86 242.53L343.16 242.53C343.44 242.53 343.67 242.74 343.67 243.01L343.67 254.49Z" fill="url(#SVGID_45_)"/><g><defs><path d="M343.68 254.45C343.68 254.71 343.45 254.93 343.17 254.93L314.87 254.93C314.59 254.93 314.36 254.71 314.36 254.45L314.36 242.97C314.36 242.7 314.59 242.49 314.87 242.49L343.17 242.49C343.46 242.49 343.68 242.7 343.68 242.97L343.68 254.45Z" id="SVGID_46_"/></defs><clipPath id="SVGID_47_"><use width="100%" height="100%" xlink:href="#SVGID_46_" overflow="visible"></use></clipPath><radialGradient cx="3780.73" cy="392.583" r="5.7888" gradientUnits="userSpaceOnUse" id="SVGID_48_" gradientTransform="matrix(-0.2059 0.0002 -0.0057 -5.368 1095.74 2355.27)"><stop offset="0" stop-color="#B2B2B2"/><stop offset="0.0279" stop-color="#A0A0A0"/><stop offset="0.1006" stop-color="#787878"/><stop offset="0.1754" stop-color="#565656"/><stop offset="0.2516" stop-color="#3C3C3C"/><stop offset="0.3297" stop-color="#2A2A2A"/><stop offset="0.4109" stop-color="#1F1F1F"/><stop offset="0.5" stop-color="#1B1B1B"/><stop offset="0.7247" stop-color="#0E0E0E"/><stop offset="1"/></radialGradient><path d="M313.75 248.64C313.73 229.85 314.3 214.63 315.02 214.63 315.74 214.63 316.34 229.86 316.36 248.64 316.38 267.42 315.81 282.65 315.09 282.65 314.37 282.65 313.77 267.42 313.75 248.64Z" fill="url(#SVGID_48_)" clip-path="url(#SVGID_47_)" opacity="0.6"/></g><g><g><path d="M341 213.57C341 219.99 335.8 225.2 329.38 225.2 322.96 225.2 317.75 220 317.75 213.57 317.75 207.15 322.95 201.94 329.38 201.94 335.8 201.95 341 207.15 341 213.57Z" fill="#7F7F7F"/><path d="M340.24 213.57C340.24 219.57 335.37 224.44 329.38 224.44 323.37 224.44 318.51 219.57 318.51 213.57 318.51 207.57 323.37 202.7 329.38 202.7 335.38 202.7 340.24 207.57 340.24 213.57Z" fill="#7F7F7F"/><g><linearGradient x1="321.34" y1="204.766" x2="340.087" y2="225.304" gradientUnits="userSpaceOnUse" id="SVGID_49_"><stop offset="0" stop-color="#C5C7C8"/><stop offset="0.3303" stop-color="#999A9C"/><stop offset="0.4998" stop-color="#808184"/><stop offset="0.6141" stop-color="#77787A"/><stop offset="0.805" stop-color="#5F5F61"/><stop offset="1" stop-color="#404040"/></linearGradient><linearGradient x1="320.77" y1="205.284" x2="339.52" y2="225.826" gradientUnits="userSpaceOnUse" id="SVGID_50_"><stop offset="0" stop-color="#C5C7C8"/><stop offset="0.3303" stop-color="#999A9C"/><stop offset="0.4998" stop-color="#808184"/><stop offset="0.6141" stop-color="#77787A"/><stop offset="0.805" stop-color="#5F5F61"/><stop offset="1" stop-color="#404040"/></linearGradient><path d="M339.77 213.57C339.77 214.93 339.51 216.23 339.03 217.42 338.97 217.57 338.91 217.72 338.84 217.86 337.21 221.46 333.59 223.96 329.38 223.96 323.64 223.96 318.99 219.31 318.99 213.57 318.99 207.83 323.64 203.18 329.38 203.18 335.11 203.18 339.77 207.84 339.77 213.57Z" fill="url(#SVGID_49_)"/><path d="M330.81 203.42C331.14 203.42 331.46 203.44 331.78 203.47 331.01 203.29 330.2 203.19 329.38 203.19 323.64 203.19 318.99 207.84 318.99 213.58 318.99 215.45 319.48 217.19 320.34 218.71 319.85 217.45 319.59 216.09 319.59 214.66 319.59 208.45 324.61 203.42 330.81 203.42Z" fill="url(#SVGID_50_)" opacity="0.5"/><g><g><path d="M339.03 217.42C339.02 217.45 339.01 217.49 338.99 217.52 338.95 217.63 338.9 217.75 338.84 217.86L335.39 216.54C335.26 216.49 335.2 216.35 335.25 216.23 335.26 216.2 335.28 216.17 335.31 216.14 335.37 216.08 335.47 216.06 335.56 216.09L339.03 217.42Z" fill="#C1C1C1"/></g><g opacity="0.6"><path d="M338.99 217.52C338.95 217.63 338.9 217.75 338.84 217.86L335.39 216.54C335.26 216.49 335.2 216.35 335.25 216.23 335.26 216.2 335.28 216.17 335.31 216.14 335.32 216.15 335.34 216.15 335.35 216.15L338.99 217.52Z" fill="#7A7B80"/></g></g></g></g><g><g><path d="M329.39 199.25 329.39 196.76 328.88 197.16 328.75 196.95 329.41 196.45 329.66 196.45 329.66 199.26 329.39 199.26Z"/></g><g><path d="M336.14 197.74C336.14 197.83 336.13 197.91 336.11 197.99 336.09 198.07 336.06 198.14 336.02 198.22 335.98 198.3 335.94 198.37 335.89 198.45 335.84 198.53 335.78 198.61 335.72 198.7L335.08 199.62 336.11 199.62 336.11 199.87 334.78 199.87 334.78 199.61 335.55 198.52C335.65 198.38 335.72 198.25 335.78 198.13 335.83 198.01 335.86 197.89 335.86 197.77 335.86 197.7 335.85 197.64 335.84 197.57 335.83 197.51 335.8 197.45 335.77 197.41 335.74 197.36 335.69 197.33 335.65 197.3 335.6 197.27 335.54 197.26 335.48 197.26 335.37 197.26 335.28 197.3 335.2 197.38 335.13 197.45 335.08 197.56 335.05 197.71L334.79 197.68C334.83 197.47 334.91 197.31 335.03 197.2 335.15 197.09 335.31 197.04 335.5 197.04 335.61 197.04 335.71 197.06 335.79 197.1 335.87 197.14 335.94 197.19 335.99 197.26 336.05 197.33 336.09 197.41 336.12 197.5 336.12 197.54 336.14 197.63 336.14 197.74Z"/></g><g><path d="M341.04 202.18C341.04 202.29 341.03 202.39 340.99 202.49 340.96 202.59 340.91 202.67 340.85 202.75 340.79 202.82 340.71 202.89 340.62 202.93 340.53 202.98 340.42 203 340.3 203 340.12 203 339.96 202.95 339.83 202.86 339.7 202.77 339.62 202.63 339.56 202.46L339.81 202.39C339.85 202.5 339.9 202.59 339.99 202.66 340.07 202.73 340.17 202.76 340.29 202.76 340.37 202.76 340.44 202.74 340.5 202.71 340.56 202.68 340.61 202.63 340.65 202.57 340.69 202.51 340.72 202.45 340.74 202.38 340.76 202.31 340.77 202.24 340.77 202.18 340.77 201.99 340.72 201.85 340.62 201.75 340.52 201.65 340.39 201.6 340.23 201.6L340.14 201.6 340.14 201.38 340.23 201.38C340.37 201.38 340.49 201.33 340.58 201.23 340.67 201.13 340.71 201 340.71 200.83 340.71 200.77 340.7 200.72 340.69 200.66 340.67 200.6 340.65 200.55 340.61 200.5 340.58 200.45 340.53 200.41 340.48 200.38 340.43 200.35 340.37 200.33 340.3 200.33 340.21 200.33 340.14 200.36 340.07 200.4 340 200.45 339.95 200.52 339.91 200.6L339.67 200.52C339.73 200.37 339.82 200.27 339.94 200.19 340.06 200.12 340.18 200.08 340.31 200.08 340.42 200.08 340.51 200.1 340.59 200.13 340.67 200.17 340.74 200.22 340.79 200.28 340.85 200.34 340.89 200.42 340.92 200.51 340.95 200.6 340.97 200.69 340.97 200.79 340.97 200.87 340.96 200.94 340.94 201.01 340.92 201.08 340.89 201.15 340.86 201.21 340.82 201.27 340.78 201.32 340.72 201.37 340.67 201.41 340.6 201.44 340.53 201.46L340.53 201.47C340.68 201.5 340.81 201.58 340.9 201.71 341 201.83 341.04 201.99 341.04 202.18Z"/></g><g><path d="M344.44 207.09 344.44 207.76 344.19 207.76 344.19 207.09 343.18 207.09 343.18 206.83 344.07 204.95 344.43 204.95 344.43 206.85 344.78 206.85 344.78 207.09 344.44 207.09ZM344.2 205.22 344.2 205.22 343.44 206.86 344.2 206.86 344.2 205.22Z"/></g><g><path d="M345.33 214.23C345.33 214.38 345.31 214.51 345.28 214.63 345.25 214.74 345.2 214.84 345.13 214.92 345.07 215 344.99 215.06 344.9 215.1 344.81 215.14 344.71 215.16 344.61 215.16 344.44 215.16 344.29 215.12 344.18 215.03 344.06 214.94 343.98 214.82 343.93 214.66L344.17 214.57C344.21 214.68 344.27 214.76 344.34 214.82 344.41 214.88 344.5 214.91 344.61 214.91 344.75 214.91 344.86 214.85 344.95 214.73 345.04 214.61 345.08 214.44 345.08 214.23 345.08 214.03 345.04 213.86 344.95 213.74 344.86 213.62 344.73 213.55 344.57 213.55 344.49 213.55 344.41 213.56 344.32 213.59 344.24 213.61 344.16 213.65 344.1 213.69L344.13 212.29 345.24 212.29 345.24 212.53 344.36 212.53 344.33 213.41C344.38 213.39 344.43 213.37 344.48 213.36 344.54 213.35 344.59 213.34 344.64 213.34 344.76 213.34 344.86 213.36 344.95 213.41 345.04 213.45 345.11 213.51 345.16 213.59 345.22 213.67 345.26 213.76 345.29 213.87 345.32 213.98 345.33 214.1 345.33 214.23Z"/></g><g><path d="M343.87 220.78C343.87 220.92 343.85 221.05 343.82 221.16 343.78 221.27 343.73 221.37 343.67 221.45 343.6 221.53 343.52 221.59 343.43 221.63 343.34 221.67 343.23 221.7 343.12 221.7 343.01 221.7 342.9 221.68 342.8 221.63 342.7 221.59 342.63 221.52 342.56 221.45 342.5 221.37 342.45 221.27 342.41 221.16 342.38 221.05 342.36 220.92 342.36 220.79 342.36 220.66 342.38 220.53 342.41 220.4 342.45 220.27 342.49 220.15 342.56 220.02L343.14 218.84 343.44 218.84 342.83 220.04 342.83 220.05C342.87 220 342.92 219.97 342.99 219.94 343.05 219.91 343.12 219.9 343.19 219.9 343.27 219.9 343.35 219.92 343.43 219.95 343.51 219.98 343.59 220.04 343.65 220.11 343.71 220.18 343.77 220.27 343.81 220.39 343.85 220.48 343.87 220.62 343.87 220.78ZM343.59 220.78C343.59 220.68 343.58 220.59 343.56 220.51 343.54 220.43 343.51 220.35 343.47 220.3 343.43 220.24 343.38 220.19 343.33 220.16 343.27 220.13 343.2 220.11 343.12 220.11 343.04 220.11 342.98 220.13 342.92 220.16 342.86 220.2 342.8 220.24 342.76 220.3 342.72 220.36 342.68 220.44 342.66 220.52 342.64 220.6 342.62 220.69 342.62 220.79 342.62 221 342.66 221.16 342.75 221.28 342.84 221.4 342.96 221.46 343.11 221.46 343.26 221.46 343.38 221.4 343.46 221.27 343.55 221.14 343.59 220.97 343.59 220.78Z"/></g><g><path d="M339.73 226.55 339.44 226.55 340.36 223.99 339.26 223.99 339.26 223.74 340.64 223.74 340.64 223.97 339.73 226.55Z"/></g><g><path d="M335.65 228.92C335.65 229.04 335.63 229.15 335.6 229.25 335.56 229.35 335.52 229.44 335.45 229.51 335.39 229.58 335.31 229.64 335.21 229.68 335.12 229.72 335.02 229.74 334.9 229.74 334.79 229.74 334.69 229.72 334.59 229.68 334.5 229.64 334.42 229.59 334.36 229.51 334.29 229.44 334.25 229.35 334.21 229.25 334.18 229.15 334.16 229.04 334.16 228.92 334.16 228.73 334.2 228.57 334.28 228.45 334.36 228.33 334.47 228.24 334.61 228.19L334.61 228.18C334.48 228.12 334.39 228.04 334.32 227.93 334.25 227.82 334.22 227.69 334.22 227.54 334.22 227.44 334.23 227.35 334.26 227.26 334.29 227.17 334.33 227.1 334.39 227.03 334.45 226.97 334.52 226.91 334.6 226.88 334.68 226.84 334.78 226.82 334.89 226.82 335 226.82 335.1 226.84 335.18 226.88 335.26 226.92 335.33 226.97 335.39 227.03 335.45 227.09 335.49 227.17 335.52 227.26 335.55 227.35 335.56 227.44 335.56 227.54 335.56 227.69 335.53 227.82 335.46 227.93 335.4 228.04 335.3 228.12 335.17 228.18L335.17 228.19C335.31 228.24 335.43 228.33 335.5 228.45 335.61 228.58 335.65 228.73 335.65 228.92ZM335.37 228.91C335.37 228.73 335.33 228.58 335.24 228.47 335.16 228.36 335.05 228.3 334.91 228.3 334.78 228.3 334.66 228.36 334.58 228.47 334.5 228.58 334.45 228.73 334.45 228.91 334.45 228.99 334.46 229.07 334.48 229.15 334.5 229.23 334.53 229.29 334.57 229.34 334.61 229.4 334.66 229.44 334.71 229.47 334.77 229.5 334.83 229.52 334.9 229.52 334.98 229.52 335.04 229.5 335.1 229.47 335.16 229.44 335.2 229.4 335.25 229.34 335.29 229.29 335.31 229.22 335.34 229.15 335.36 229.07 335.37 228.99 335.37 228.91ZM335.31 227.56C335.31 227.41 335.27 227.29 335.2 227.19 335.13 227.09 335.03 227.04 334.9 227.04 334.77 227.04 334.67 227.09 334.61 227.19 334.54 227.29 334.51 227.41 334.51 227.56 334.51 227.63 334.52 227.7 334.54 227.76 334.56 227.82 334.59 227.88 334.62 227.93 334.65 227.98 334.7 228.02 334.75 228.05 334.8 228.08 334.85 228.09 334.91 228.09 334.97 228.09 335.03 228.07 335.08 228.05 335.13 228.02 335.17 227.98 335.2 227.93 335.24 227.88 335.26 227.83 335.28 227.76 335.3 227.7 335.31 227.63 335.31 227.56Z"/></g><g><path d="M330.12 228.63C330.12 228.76 330.1 228.88 330.07 229.01 330.04 229.14 329.99 229.27 329.92 229.41L329.35 230.6 329.05 230.6 329.66 229.36 329.66 229.36C329.57 229.45 329.45 229.5 329.29 229.5 329.21 229.5 329.13 229.49 329.05 229.45 328.97 229.42 328.9 229.37 328.84 229.3 328.78 229.23 328.72 229.14 328.69 229.03 328.65 228.92 328.63 228.79 328.63 228.64 328.63 228.51 328.65 228.38 328.69 228.27 328.73 228.16 328.78 228.07 328.84 227.99 328.9 227.92 328.98 227.86 329.07 227.81 329.16 227.77 329.26 227.75 329.38 227.75 329.61 227.75 329.79 227.83 329.92 227.99 330.06 228.14 330.12 228.36 330.12 228.63ZM329.85 228.63C329.85 228.44 329.81 228.28 329.73 228.16 329.65 228.04 329.53 227.98 329.39 227.98 329.24 227.98 329.13 228.04 329.04 228.16 328.96 228.28 328.92 228.44 328.92 228.63 328.92 228.72 328.93 228.81 328.95 228.89 328.97 228.97 329 229.04 329.04 229.1 329.08 229.16 329.13 229.2 329.18 229.23 329.24 229.26 329.3 229.28 329.38 229.28 329.45 229.28 329.52 229.26 329.58 229.23 329.64 229.2 329.69 229.15 329.73 229.09 329.77 229.03 329.8 228.97 329.82 228.89 329.84 228.81 329.85 228.72 329.85 228.63Z"/></g><g><path d="M321.8 229.67 321.8 227.18 321.29 227.58 321.16 227.37 321.82 226.87 322.07 226.87 322.07 229.68 321.8 229.68Z"/><path d="M324.4 228.27C324.4 228.43 324.39 228.6 324.37 228.77 324.35 228.94 324.31 229.1 324.26 229.24 324.21 229.38 324.13 229.49 324.03 229.58 323.93 229.67 323.8 229.72 323.65 229.72 323.49 229.72 323.36 229.68 323.27 229.58 323.17 229.49 323.1 229.38 323.04 229.24 322.99 229.1 322.95 228.94 322.93 228.77 322.91 228.6 322.9 228.43 322.9 228.27 322.9 228.11 322.91 227.94 322.93 227.77 322.95 227.6 322.99 227.44 323.04 227.3 323.09 227.16 323.17 227.04 323.27 226.95 323.37 226.86 323.5 226.81 323.65 226.81 323.81 226.81 323.93 226.86 324.03 226.95 324.13 227.04 324.2 227.16 324.26 227.3 324.31 227.44 324.35 227.6 324.37 227.77 324.39 227.93 324.4 228.1 324.4 228.27ZM324.12 228.27C324.12 228.2 324.12 228.13 324.11 228.04 324.11 227.95 324.1 227.87 324.09 227.77 324.08 227.68 324.06 227.59 324.04 227.51 324.02 227.42 323.99 227.35 323.96 227.28 323.93 227.21 323.88 227.16 323.83 227.12 323.78 227.08 323.72 227.06 323.65 227.06 323.58 227.06 323.52 227.08 323.47 227.12 323.42 227.16 323.38 227.21 323.34 227.28 323.31 227.35 323.27 227.43 323.25 227.51 323.23 227.6 323.21 227.68 323.2 227.77 323.19 227.86 323.18 227.95 323.18 228.04 323.18 228.13 323.17 228.2 323.17 228.27 323.17 228.34 323.17 228.42 323.18 228.5 323.18 228.59 323.19 228.67 323.2 228.76 323.21 228.85 323.23 228.94 323.25 229.02 323.27 229.11 323.3 229.18 323.34 229.25 323.38 229.32 323.42 229.37 323.47 229.41 323.52 229.45 323.58 229.47 323.65 229.47 323.72 229.47 323.78 229.45 323.83 229.41 323.88 229.37 323.92 229.31 323.96 229.25 324 229.18 324.02 229.11 324.04 229.02 324.06 228.93 324.08 228.84 324.09 228.76 324.1 228.67 324.11 228.58 324.11 228.5 324.12 228.41 324.12 228.34 324.12 228.27Z"/></g><g><path d="M317.43 224.32C317.43 224.41 317.42 224.49 317.4 224.57 317.38 224.65 317.35 224.72 317.32 224.8 317.28 224.87 317.24 224.95 317.19 225.03 317.14 225.11 317.08 225.19 317.02 225.28L316.38 226.19 317.4 226.19 317.4 226.44 316.07 226.44 316.07 226.18 316.84 225.09C316.93 224.95 317.01 224.82 317.06 224.7 317.12 224.58 317.15 224.46 317.15 224.34 317.15 224.27 317.14 224.2 317.13 224.14 317.11 224.08 317.09 224.02 317.06 223.97 317.03 223.92 316.98 223.89 316.93 223.86 316.88 223.83 316.83 223.82 316.76 223.82 316.65 223.82 316.55 223.86 316.48 223.93 316.41 224 316.36 224.11 316.33 224.26L316.07 224.23C316.11 224.02 316.19 223.86 316.31 223.75 316.43 223.64 316.59 223.58 316.78 223.58 316.89 223.58 316.99 223.6 317.07 223.64 317.15 223.68 317.22 223.73 317.28 223.8 317.33 223.87 317.37 223.95 317.4 224.04 317.42 224.13 317.43 224.22 317.43 224.32Z"/><path d="M319.42 225.04C319.42 225.2 319.41 225.37 319.39 225.54 319.37 225.71 319.33 225.87 319.27 226.01 319.21 226.15 319.14 226.27 319.04 226.35 318.94 226.44 318.82 226.49 318.66 226.49 318.5 226.49 318.38 226.44 318.28 226.35 318.18 226.26 318.11 226.14 318.05 226.01 318 225.87 317.96 225.71 317.94 225.54 317.92 225.37 317.91 225.2 317.91 225.04 317.91 224.87 317.92 224.71 317.94 224.54 317.96 224.37 318 224.21 318.05 224.07 318.11 223.93 318.18 223.82 318.28 223.73 318.38 223.64 318.51 223.59 318.66 223.59 318.82 223.59 318.94 223.64 319.04 223.73 319.14 223.82 319.21 223.93 319.27 224.07 319.32 224.21 319.36 224.37 319.39 224.54 319.41 224.71 319.42 224.88 319.42 225.04ZM319.14 225.04C319.14 224.97 319.14 224.9 319.13 224.81 319.13 224.72 319.12 224.64 319.11 224.54 319.1 224.45 319.08 224.36 319.06 224.28 319.04 224.19 319.01 224.12 318.98 224.05 318.95 223.98 318.9 223.93 318.85 223.89 318.8 223.85 318.74 223.83 318.67 223.83 318.6 223.83 318.54 223.85 318.48 223.89 318.43 223.93 318.39 223.98 318.35 224.05 318.31 224.12 318.29 224.2 318.26 224.28 318.24 224.37 318.22 224.45 318.21 224.54 318.2 224.63 318.19 224.72 318.19 224.81 318.19 224.9 318.18 224.97 318.18 225.04 318.18 225.11 318.18 225.18 318.19 225.27 318.19 225.36 318.2 225.44 318.21 225.53 318.22 225.62 318.24 225.71 318.26 225.79 318.28 225.88 318.31 225.95 318.35 226.02 318.38 226.09 318.43 226.14 318.48 226.18 318.53 226.22 318.59 226.24 318.67 226.24 318.74 226.24 318.8 226.22 318.85 226.18 318.9 226.14 318.95 226.09 318.98 226.02 319.02 225.95 319.04 225.87 319.06 225.79 319.08 225.7 319.1 225.62 319.11 225.53 319.12 225.44 319.13 225.36 319.13 225.27 319.14 225.19 319.14 225.11 319.14 225.04Z"/></g><g><path d="M314.2 220.16C314.2 220.27 314.18 220.37 314.15 220.47 314.12 220.56 314.07 220.65 314.01 220.73 313.95 220.81 313.87 220.87 313.77 220.91 313.68 220.96 313.57 220.98 313.45 220.98 313.26 220.98 313.11 220.93 312.99 220.84 312.86 220.75 312.77 220.61 312.72 220.44L312.97 220.37C313.01 220.48 313.07 220.57 313.15 220.64 313.23 220.71 313.33 220.74 313.45 220.74 313.54 220.74 313.61 220.72 313.67 220.68 313.73 220.65 313.78 220.6 313.82 220.54 313.86 220.48 313.89 220.42 313.91 220.35 313.93 220.28 313.94 220.21 313.94 220.15 313.94 219.96 313.89 219.81 313.79 219.71 313.69 219.61 313.55 219.56 313.39 219.56L313.31 219.56 313.31 219.34 313.4 219.34C313.54 219.34 313.66 219.29 313.75 219.19 313.84 219.09 313.88 218.96 313.88 218.79 313.88 218.74 313.87 218.68 313.85 218.62 313.84 218.56 313.81 218.51 313.78 218.46 313.74 218.41 313.7 218.37 313.65 218.34 313.6 218.31 313.53 218.29 313.46 218.29 313.38 218.29 313.3 218.32 313.24 218.36 313.17 218.41 313.12 218.48 313.08 218.56L312.84 218.48C312.9 218.33 312.99 218.23 313.11 218.15 313.23 218.08 313.35 218.04 313.48 218.04 313.58 218.04 313.68 218.06 313.76 218.1 313.84 218.14 313.91 218.19 313.96 218.25 314.02 218.32 314.06 218.39 314.09 218.48 314.12 218.56 314.14 218.66 314.14 218.76 314.14 218.84 314.13 218.91 314.11 218.98 314.09 219.05 314.06 219.12 314.03 219.18 313.99 219.24 313.95 219.29 313.89 219.34 313.84 219.38 313.77 219.41 313.7 219.43L313.7 219.44C313.85 219.47 313.97 219.55 314.07 219.68 314.15 219.82 314.2 219.98 314.2 220.16Z"/><path d="M316.13 219.52C316.13 219.69 316.12 219.86 316.1 220.02 316.08 220.19 316.04 220.35 315.98 220.49 315.92 220.63 315.85 220.75 315.75 220.84 315.65 220.93 315.53 220.98 315.37 220.98 315.21 220.98 315.09 220.94 314.99 220.84 314.89 220.75 314.82 220.63 314.76 220.49 314.7 220.35 314.67 220.19 314.65 220.02 314.63 219.85 314.62 219.68 314.62 219.52 314.62 219.36 314.63 219.19 314.65 219.02 314.67 218.85 314.71 218.69 314.76 218.55 314.82 218.41 314.89 218.3 314.99 218.2 315.09 218.11 315.21 218.06 315.37 218.06 315.53 218.06 315.65 218.11 315.75 218.2 315.85 218.29 315.92 218.4 315.98 218.55 316.04 218.69 316.07 218.85 316.1 219.02 316.12 219.19 316.13 219.36 316.13 219.52ZM315.85 219.52C315.85 219.46 315.85 219.38 315.84 219.29 315.84 219.2 315.83 219.12 315.82 219.02 315.81 218.93 315.8 218.84 315.77 218.76 315.75 218.67 315.72 218.6 315.69 218.53 315.65 218.46 315.61 218.41 315.56 218.36 315.51 218.32 315.45 218.3 315.37 218.3 315.3 218.3 315.24 218.32 315.18 218.36 315.13 218.4 315.09 218.46 315.05 218.53 315.02 218.6 314.98 218.67 314.96 218.76 314.94 218.85 314.92 218.93 314.91 219.02 314.9 219.11 314.89 219.2 314.89 219.29 314.89 219.38 314.88 219.45 314.88 219.52 314.88 219.59 314.88 219.67 314.89 219.76 314.89 219.85 314.9 219.93 314.91 220.02 314.92 220.11 314.94 220.19 314.96 220.28 314.98 220.37 315.01 220.44 315.05 220.51 315.08 220.58 315.13 220.63 315.18 220.68 315.23 220.72 315.29 220.74 315.37 220.74 315.44 220.74 315.5 220.72 315.56 220.68 315.61 220.64 315.65 220.58 315.69 220.51 315.73 220.44 315.75 220.37 315.77 220.28 315.79 220.19 315.81 220.11 315.82 220.02 315.83 219.93 315.84 219.84 315.84 219.76 315.85 219.67 315.85 219.59 315.85 219.52Z"/></g><g><path d="M312.6 214.33 312.6 215 312.35 215 312.35 214.33 311.34 214.33 311.34 214.07 312.23 212.19 312.59 212.19 312.59 214.09 312.94 214.09 312.94 214.33 312.6 214.33ZM312.35 212.46 312.35 212.46 311.59 214.09 312.35 214.09 312.35 212.46Z"/><path d="M314.77 213.6C314.77 213.77 314.76 213.93 314.74 214.1 314.72 214.27 314.68 214.43 314.63 214.57 314.58 214.71 314.5 214.83 314.4 214.92 314.3 215.01 314.18 215.05 314.02 215.05 313.86 215.05 313.74 215.01 313.64 214.92 313.54 214.83 313.47 214.72 313.41 214.57 313.36 214.43 313.32 214.27 313.3 214.1 313.28 213.93 313.27 213.76 313.27 213.6 313.27 213.44 313.28 213.27 313.3 213.1 313.32 212.93 313.36 212.77 313.41 212.63 313.47 212.49 313.54 212.37 313.64 212.29 313.74 212.2 313.87 212.16 314.02 212.16 314.17 212.16 314.3 212.21 314.4 212.29 314.5 212.38 314.57 212.49 314.63 212.63 314.69 212.77 314.72 212.93 314.74 213.1 314.76 213.27 314.77 213.43 314.77 213.6ZM314.49 213.6C314.49 213.53 314.49 213.46 314.49 213.37 314.48 213.28 314.48 213.19 314.47 213.1 314.46 213.01 314.44 212.92 314.42 212.84 314.4 212.75 314.37 212.68 314.34 212.61 314.31 212.54 314.26 212.49 314.21 212.45 314.16 212.41 314.1 212.39 314.03 212.39 313.96 212.39 313.9 212.41 313.84 212.45 313.79 212.49 313.75 212.55 313.71 212.61 313.67 212.68 313.65 212.75 313.62 212.84 313.6 212.93 313.58 213.02 313.57 213.1 313.56 213.19 313.55 213.28 313.55 213.37 313.54 213.45 313.54 213.53 313.54 213.6 313.54 213.67 313.54 213.75 313.55 213.83 313.55 213.92 313.56 214.01 313.57 214.09 313.58 214.18 313.6 214.27 313.62 214.35 313.64 214.44 313.67 214.51 313.71 214.58 313.74 214.65 313.79 214.7 313.84 214.74 313.89 214.78 313.95 214.8 314.03 214.8 314.1 214.8 314.16 214.78 314.21 214.74 314.26 214.7 314.31 214.65 314.34 214.58 314.37 214.51 314.4 214.43 314.42 214.35 314.44 214.26 314.46 214.18 314.47 214.09 314.48 214 314.48 213.92 314.49 213.83 314.48 213.74 314.49 213.67 314.49 213.6Z"/></g><g><path d="M314.46 207.43C314.46 207.58 314.44 207.71 314.41 207.83 314.38 207.94 314.32 208.04 314.26 208.12 314.2 208.2 314.12 208.26 314.03 208.3 313.94 208.34 313.84 208.36 313.74 208.36 313.57 208.36 313.42 208.32 313.31 208.23 313.19 208.14 313.11 208.02 313.06 207.86L313.3 207.77C313.34 207.88 313.4 207.96 313.47 208.02 313.55 208.08 313.63 208.11 313.74 208.11 313.88 208.11 313.99 208.05 314.08 207.93 314.17 207.81 314.21 207.64 314.21 207.43 314.21 207.23 314.17 207.06 314.08 206.94 313.99 206.82 313.87 206.75 313.7 206.75 313.63 206.75 313.54 206.76 313.46 206.79 313.37 206.81 313.3 206.85 313.24 206.89L313.27 205.49 314.38 205.49 314.38 205.73 313.5 205.73 313.47 206.61C313.52 206.59 313.57 206.57 313.62 206.56 313.68 206.54 313.73 206.54 313.77 206.54 313.89 206.54 313.99 206.56 314.08 206.61 314.17 206.65 314.24 206.71 314.3 206.79 314.36 206.87 314.4 206.96 314.43 207.07 314.45 207.18 314.46 207.3 314.46 207.43Z"/><path d="M316.41 206.91C316.41 207.07 316.4 207.24 316.38 207.41 316.36 207.58 316.32 207.74 316.27 207.88 316.21 208.02 316.14 208.13 316.04 208.23 315.94 208.32 315.81 208.36 315.66 208.36 315.51 208.36 315.38 208.31 315.28 208.23 315.18 208.14 315.11 208.02 315.05 207.88 315 207.74 314.96 207.58 314.94 207.41 314.92 207.24 314.91 207.07 314.91 206.91 314.91 206.74 314.92 206.58 314.94 206.41 314.96 206.24 315 206.08 315.05 205.94 315.11 205.8 315.18 205.69 315.28 205.6 315.38 205.51 315.5 205.46 315.66 205.46 315.82 205.46 315.95 205.5 316.04 205.6 316.14 205.69 316.21 205.8 316.27 205.94 316.33 206.08 316.37 206.24 316.38 206.41 316.4 206.58 316.41 206.75 316.41 206.91ZM316.12 206.91C316.12 206.84 316.12 206.77 316.12 206.68 316.12 206.6 316.11 206.51 316.1 206.42 316.09 206.33 316.07 206.24 316.05 206.16 316.03 206.07 316 206 315.97 205.93 315.93 205.86 315.89 205.81 315.84 205.77 315.79 205.73 315.73 205.71 315.65 205.71 315.58 205.71 315.52 205.73 315.47 205.77 315.42 205.81 315.37 205.87 315.34 205.93 315.31 206 315.28 206.07 315.26 206.16 315.23 206.25 315.22 206.33 315.21 206.42 315.2 206.51 315.19 206.6 315.19 206.68 315.18 206.77 315.18 206.85 315.18 206.91 315.18 206.98 315.18 207.06 315.19 207.14 315.19 207.22 315.2 207.31 315.21 207.4 315.22 207.49 315.23 207.58 315.26 207.66 315.28 207.75 315.31 207.82 315.34 207.89 315.38 207.96 315.42 208.01 315.47 208.05 315.52 208.09 315.58 208.11 315.65 208.11 315.72 208.11 315.79 208.09 315.84 208.05 315.89 208.01 315.93 207.96 315.97 207.89 316 207.82 316.03 207.75 316.05 207.66 316.07 207.57 316.09 207.49 316.1 207.4 316.11 207.31 316.12 207.22 316.12 207.14 316.12 207.06 316.12 206.98 316.12 206.91Z"/></g><g><g><path d="M329.6 201.42C329.55 201.42 329.52 201.38 329.52 201.34L329.52 200.02C329.52 199.97 329.56 199.94 329.6 199.94 329.64 199.94 329.68 199.98 329.68 200.02L329.68 201.34C329.68 201.39 329.65 201.42 329.6 201.42Z"/></g><g><path d="M329.6 227.04C329.55 227.04 329.52 227 329.52 226.96L329.52 225.64C329.52 225.6 329.56 225.56 329.6 225.56 329.64 225.56 329.68 225.6 329.68 225.64L329.68 226.96C329.68 227.01 329.65 227.04 329.6 227.04Z"/></g></g><g><g><path d="M333.8 202.27C333.79 202.27 333.78 202.27 333.77 202.26 333.73 202.24 333.71 202.19 333.73 202.15L334.24 200.93C334.25 200.89 334.3 200.87 334.34 200.88 334.38 200.9 334.4 200.95 334.39 200.99L333.88 202.21C333.86 202.25 333.83 202.27 333.8 202.27Z"/></g><g><path d="M323.96 225.93C323.95 225.93 323.94 225.93 323.93 225.92 323.89 225.9 323.87 225.86 323.89 225.81L324.39 224.59C324.41 224.55 324.46 224.53 324.5 224.55 324.54 224.57 324.56 224.62 324.54 224.66L324.03 225.88C324.02 225.91 323.99 225.93 323.96 225.93Z"/></g></g><g><g><path d="M337.61 204.61C337.59 204.61 337.57 204.6 337.55 204.59 337.52 204.56 337.51 204.51 337.54 204.47L338.43 203.5C338.46 203.47 338.52 203.46 338.55 203.49 338.58 203.52 338.58 203.57 338.55 203.61L337.66 204.58C337.65 204.6 337.63 204.61 337.61 204.61Z"/></g><g><path d="M320.26 223.46C320.24 223.46 320.22 223.45 320.21 223.44 320.18 223.41 320.17 223.36 320.2 223.32L321.09 222.35C321.12 222.32 321.17 222.31 321.21 222.35 321.24 222.38 321.25 222.43 321.21 222.46L320.32 223.43C320.3 223.45 320.28 223.46 320.26 223.46Z"/></g></g><g><g><path d="M340.21 208.25C340.18 208.25 340.15 208.23 340.13 208.2 340.11 208.16 340.13 208.11 340.17 208.09L341.35 207.5C341.39 207.48 341.44 207.5 341.46 207.54 341.48 207.58 341.46 207.63 341.42 207.65L340.24 208.24C340.24 208.25 340.23 208.25 340.21 208.25Z"/></g><g><path d="M317.28 219.69C317.25 219.69 317.22 219.67 317.21 219.65 317.19 219.61 317.21 219.56 317.25 219.54L318.43 218.95C318.47 218.93 318.52 218.95 318.54 218.99 318.56 219.03 318.54 219.08 318.5 219.1L317.32 219.69C317.31 219.68 317.3 219.69 317.28 219.69Z"/></g></g><g><g><path d="M341.66 213.83C341.61 213.83 341.58 213.79 341.58 213.75 341.58 213.7 341.61 213.67 341.66 213.67L342.98 213.65 342.98 213.65C343.02 213.65 343.06 213.69 343.06 213.73 343.06 213.78 343.02 213.81 342.98 213.81L341.66 213.83 341.66 213.83Z"/></g><g><path d="M316.04 214.2C316 214.2 315.96 214.17 315.96 214.12 315.96 214.08 316 214.04 316.04 214.04L317.36 214.02C317.36 214.02 317.36 214.02 317.36 214.02 317.4 214.02 317.44 214.06 317.44 214.1 317.44 214.15 317.4 214.18 317.36 214.19L316.04 214.2C316.04 214.2 316.04 214.2 316.04 214.2Z"/></g></g><g><g><path d="M334.59 226.26C334.56 226.26 334.53 226.24 334.51 226.21L334 225C333.98 224.96 334 224.91 334.05 224.89 334.09 224.87 334.14 224.89 334.15 224.94L334.66 226.16C334.68 226.2 334.66 226.25 334.62 226.27 334.61 226.26 334.6 226.26 334.59 226.26Z"/></g></g><g><g><path d="M338.56 223.54C338.54 223.54 338.52 223.53 338.5 223.52L337.58 222.57C337.55 222.54 337.55 222.49 337.58 222.45 337.61 222.42 337.66 222.42 337.7 222.45L338.62 223.39C338.65 223.42 338.65 223.48 338.62 223.51 338.6 223.53 338.58 223.54 338.56 223.54Z"/></g></g><g><g><path d="M318.44 208.6C318.43 208.6 318.41 208.6 318.4 208.59L317.21 208.03C317.17 208.01 317.15 207.96 317.17 207.92 317.19 207.88 317.24 207.86 317.28 207.88L318.47 208.44C318.51 208.46 318.53 208.51 318.51 208.55 318.49 208.59 318.47 208.6 318.44 208.6Z"/></g><g><path d="M341.6 219.56C341.59 219.56 341.58 219.56 341.56 219.55L340.37 218.99C340.33 218.97 340.31 218.92 340.33 218.88 340.35 218.84 340.4 218.82 340.44 218.84L341.63 219.4C341.67 219.42 341.69 219.47 341.67 219.51 341.66 219.54 341.63 219.56 341.6 219.56Z"/></g></g></g></g><g><g><path d="M341.4 171.62C341.4 178.04 336.2 183.24 329.77 183.24 323.35 183.24 318.15 178.04 318.15 171.62 318.15 165.2 323.35 160 329.77 160 336.2 160 341.4 165.2 341.4 171.62Z" fill="#7F7F7F"/><path d="M340.65 171.62C340.65 177.62 335.78 182.49 329.78 182.49 323.78 182.49 318.91 177.62 318.91 171.62 318.91 165.62 323.77 160.75 329.78 160.75 335.78 160.76 340.65 165.62 340.65 171.62Z" fill="#7F7F7F"/><g><linearGradient x1="321.737" y1="162.817" x2="340.486" y2="183.357" gradientUnits="userSpaceOnUse" id="SVGID_51_"><stop offset="0" stop-color="#C5C7C8"/><stop offset="0.3303" stop-color="#999A9C"/><stop offset="0.4998" stop-color="#808184"/><stop offset="0.6141" stop-color="#77787A"/><stop offset="0.805" stop-color="#5F5F61"/><stop offset="1" stop-color="#404040"/></linearGradient><linearGradient x1="321.17" y1="163.334" x2="339.92" y2="183.876" gradientUnits="userSpaceOnUse" id="SVGID_52_"><stop offset="0" stop-color="#C5C7C8"/><stop offset="0.3303" stop-color="#999A9C"/><stop offset="0.4998" stop-color="#808184"/><stop offset="0.6141" stop-color="#77787A"/><stop offset="0.805" stop-color="#5F5F61"/><stop offset="1" stop-color="#404040"/></linearGradient><path d="M340.17 171.62C340.17 172.98 339.91 174.28 339.43 175.47 339.37 175.62 339.31 175.77 339.24 175.92 337.61 179.52 333.99 182.02 329.78 182.02 324.04 182.02 319.39 177.37 319.39 171.63 319.39 165.89 324.04 161.24 329.78 161.24 335.51 161.23 340.17 165.89 340.17 171.62Z" fill="url(#SVGID_51_)"/><path d="M331.21 161.47C331.54 161.47 331.86 161.49 332.18 161.52 331.41 161.34 330.6 161.24 329.77 161.24 324.03 161.24 319.38 165.89 319.38 171.63 319.38 173.5 319.87 175.24 320.74 176.76 320.25 175.5 319.98 174.14 319.98 172.71 319.98 166.5 325.01 161.47 331.21 161.47Z" fill="url(#SVGID_52_)" opacity="0.5"/><g><g><path d="M339.43 175.47C339.42 175.51 339.4 175.54 339.39 175.57 339.35 175.68 339.3 175.8 339.24 175.91L335.79 174.59C335.67 174.54 335.6 174.4 335.65 174.28 335.67 174.24 335.68 174.22 335.71 174.19 335.77 174.13 335.87 174.1 335.96 174.14L339.43 175.47Z" fill="#C1C1C1"/></g><g opacity="0.6"><path d="M339.38 175.57C339.34 175.68 339.29 175.8 339.23 175.91L335.78 174.59C335.66 174.54 335.59 174.4 335.64 174.28 335.66 174.24 335.67 174.22 335.7 174.19 335.71 174.19 335.73 174.2 335.74 174.2L339.38 175.57Z" fill="#7A7B80"/></g></g></g></g><g><path d="M329.64 155.86C329.64 155.99 329.62 156.12 329.59 156.24 329.55 156.37 329.51 156.5 329.44 156.64L328.87 157.83 328.57 157.83 329.18 156.59 329.17 156.59C329.08 156.68 328.96 156.73 328.8 156.73 328.72 156.73 328.64 156.71 328.56 156.68 328.48 156.65 328.41 156.6 328.35 156.53 328.28 156.46 328.23 156.37 328.19 156.26 328.15 156.15 328.13 156.02 328.13 155.87 328.13 155.74 328.15 155.61 328.18 155.5 328.22 155.39 328.27 155.3 328.33 155.22 328.39 155.14 328.47 155.08 328.56 155.04 328.65 155 328.75 154.98 328.87 154.98 329.1 154.98 329.28 155.06 329.41 155.22 329.57 155.37 329.64 155.59 329.64 155.86ZM329.36 155.85C329.36 155.66 329.32 155.5 329.24 155.38 329.16 155.26 329.04 155.2 328.89 155.2 328.74 155.2 328.63 155.26 328.55 155.39 328.47 155.51 328.43 155.67 328.43 155.86 328.43 155.95 328.44 156.04 328.46 156.12 328.48 156.2 328.51 156.27 328.55 156.32 328.59 156.38 328.64 156.42 328.69 156.45 328.75 156.48 328.81 156.5 328.89 156.5 328.96 156.5 329.03 156.48 329.09 156.45 329.15 156.42 329.2 156.37 329.24 156.32 329.28 156.26 329.31 156.2 329.33 156.12 329.35 156.03 329.36 155.94 329.36 155.85Z"/><path d="M331.51 156.42C331.51 156.58 331.5 156.75 331.48 156.92 331.46 157.09 331.42 157.25 331.37 157.39 331.32 157.53 331.24 157.65 331.14 157.74 331.04 157.83 330.91 157.87 330.76 157.87 330.61 157.87 330.48 157.83 330.38 157.74 330.28 157.65 330.21 157.54 330.15 157.39 330.1 157.25 330.05 157.09 330.03 156.92 330.01 156.75 330 156.58 330 156.42 330 156.26 330.01 156.09 330.03 155.92 330.05 155.75 330.09 155.59 330.15 155.45 330.21 155.31 330.28 155.19 330.38 155.1 330.48 155.01 330.6 154.97 330.76 154.97 330.92 154.97 331.04 155.01 331.14 155.1 331.24 155.19 331.32 155.3 331.37 155.45 331.43 155.59 331.46 155.75 331.48 155.92 331.5 156.09 331.51 156.26 331.51 156.42ZM331.23 156.42C331.23 156.35 331.23 156.28 331.22 156.19 331.22 156.11 331.21 156.02 331.2 155.93 331.19 155.84 331.17 155.75 331.15 155.67 331.13 155.58 331.1 155.51 331.07 155.44 331.04 155.37 330.99 155.32 330.94 155.28 330.89 155.24 330.83 155.22 330.75 155.22 330.68 155.22 330.62 155.24 330.57 155.28 330.52 155.32 330.47 155.38 330.44 155.44 330.4 155.51 330.38 155.58 330.35 155.67 330.33 155.75 330.31 155.84 330.3 155.93 330.29 156.02 330.28 156.11 330.28 156.19 330.27 156.28 330.27 156.35 330.27 156.42 330.27 156.49 330.27 156.57 330.28 156.65 330.28 156.74 330.29 156.82 330.3 156.91 330.31 157 330.33 157.09 330.35 157.17 330.37 157.26 330.4 157.33 330.44 157.4 330.47 157.47 330.52 157.52 330.57 157.56 330.62 157.6 330.68 157.62 330.75 157.62 330.82 157.62 330.88 157.6 330.94 157.56 330.99 157.52 331.03 157.46 331.07 157.4 331.11 157.33 331.13 157.26 331.15 157.17 331.17 157.08 331.19 157 331.2 156.91 331.21 156.82 331.22 156.73 331.22 156.65 331.23 156.57 331.23 156.49 331.23 156.42Z"/></g><g><path d="M339.82 161.29 339.82 158.8 339.3 159.2 339.17 158.99 339.83 158.49 340.08 158.49 340.08 161.3 339.82 161.3Z"/><path d="M342.42 160.53C342.42 160.65 342.4 160.76 342.37 160.86 342.34 160.96 342.29 161.05 342.22 161.12 342.15 161.19 342.07 161.25 341.98 161.29 341.89 161.33 341.78 161.35 341.67 161.35 341.55 161.35 341.45 161.33 341.36 161.29 341.27 161.25 341.19 161.2 341.13 161.12 341.07 161.05 341.02 160.96 340.98 160.86 340.94 160.76 340.93 160.65 340.93 160.53 340.93 160.34 340.97 160.18 341.05 160.06 341.13 159.94 341.24 159.85 341.38 159.8L341.38 159.79C341.25 159.74 341.16 159.66 341.09 159.54 341.03 159.43 340.99 159.3 340.99 159.15 340.99 159.05 341.01 158.96 341.04 158.87 341.07 158.78 341.11 158.71 341.17 158.64 341.23 158.57 341.3 158.52 341.38 158.49 341.46 158.45 341.56 158.43 341.68 158.43 341.79 158.43 341.89 158.45 341.97 158.49 342.05 158.53 342.12 158.58 342.18 158.64 342.23 158.7 342.28 158.78 342.31 158.87 342.34 158.96 342.35 159.05 342.35 159.15 342.35 159.3 342.32 159.43 342.26 159.54 342.2 159.65 342.1 159.73 341.97 159.79L341.97 159.8C342.11 159.85 342.22 159.94 342.3 160.06 342.38 160.18 342.42 160.34 342.42 160.53ZM342.14 160.52C342.14 160.34 342.1 160.2 342.01 160.08 341.92 159.97 341.81 159.91 341.68 159.91 341.54 159.91 341.43 159.97 341.34 160.08 341.26 160.19 341.21 160.34 341.21 160.52 341.21 160.61 341.22 160.68 341.24 160.76 341.26 160.83 341.29 160.9 341.33 160.95 341.37 161.01 341.42 161.05 341.48 161.08 341.53 161.11 341.6 161.13 341.67 161.13 341.74 161.13 341.81 161.11 341.86 161.08 341.92 161.05 341.96 161.01 342.01 160.95 342.05 160.9 342.08 160.83 342.1 160.76 342.12 160.68 342.14 160.6 342.14 160.52ZM342.07 159.17C342.07 159.02 342.03 158.9 341.97 158.8 341.9 158.7 341.8 158.65 341.68 158.65 341.55 158.65 341.45 158.7 341.38 158.8 341.31 158.9 341.28 159.02 341.28 159.17 341.28 159.24 341.29 159.31 341.31 159.37 341.33 159.43 341.36 159.49 341.39 159.54 341.43 159.59 341.47 159.63 341.51 159.66 341.56 159.69 341.62 159.7 341.68 159.7 341.74 159.7 341.79 159.69 341.84 159.66 341.89 159.63 341.93 159.59 341.97 159.54 342.01 159.49 342.03 159.44 342.05 159.37 342.07 159.31 342.07 159.24 342.07 159.17Z"/><path d="M344.29 159.89C344.29 160.05 344.28 160.22 344.26 160.39 344.24 160.56 344.21 160.72 344.15 160.86 344.1 161 344.02 161.11 343.92 161.21 343.82 161.3 343.7 161.34 343.54 161.34 343.39 161.34 343.26 161.29 343.16 161.21 343.06 161.12 342.99 161.01 342.93 160.86 342.88 160.72 342.84 160.56 342.81 160.39 342.79 160.22 342.78 160.05 342.78 159.89 342.78 159.73 342.79 159.56 342.81 159.39 342.83 159.22 342.87 159.06 342.93 158.92 342.98 158.78 343.06 158.67 343.16 158.58 343.26 158.49 343.38 158.45 343.54 158.45 343.7 158.45 343.82 158.49 343.92 158.58 344.02 158.67 344.09 158.79 344.15 158.92 344.21 159.06 344.24 159.22 344.26 159.39 344.28 159.56 344.29 159.73 344.29 159.89ZM344 159.89C344 159.82 344 159.75 344 159.66 344 159.57 343.99 159.49 343.98 159.4 343.97 159.31 343.96 159.22 343.93 159.14 343.91 159.05 343.88 158.98 343.85 158.91 343.82 158.84 343.77 158.79 343.72 158.75 343.67 158.71 343.61 158.69 343.53 158.69 343.46 158.69 343.4 158.71 343.35 158.75 343.3 158.79 343.26 158.85 343.22 158.91 343.18 158.98 343.16 159.06 343.13 159.14 343.11 159.23 343.09 159.31 343.08 159.4 343.07 159.49 343.06 159.58 343.06 159.66 343.06 159.75 343.06 159.82 343.06 159.89 343.06 159.96 343.06 160.04 343.06 160.12 343.07 160.21 343.07 160.29 343.08 160.38 343.09 160.47 343.11 160.56 343.13 160.64 343.15 160.73 343.18 160.8 343.22 160.87 343.26 160.94 343.3 160.99 343.35 161.03 343.4 161.07 343.46 161.09 343.53 161.09 343.6 161.09 343.66 161.07 343.72 161.03 343.77 160.99 343.81 160.94 343.85 160.87 343.88 160.8 343.91 160.72 343.93 160.64 343.95 160.55 343.97 160.47 343.98 160.38 343.99 160.29 344 160.2 344 160.12 344 160.04 344 159.96 344 159.89Z"/></g><g><path d="M345.23 171.74C345.23 171.85 345.21 171.95 345.18 172.05 345.15 172.15 345.1 172.23 345.04 172.31 344.98 172.38 344.9 172.44 344.81 172.49 344.72 172.53 344.61 172.56 344.49 172.56 344.3 172.56 344.15 172.52 344.03 172.42 343.9 172.33 343.82 172.19 343.76 172.02L344.01 171.95C344.05 172.06 344.11 172.15 344.19 172.22 344.27 172.29 344.37 172.32 344.49 172.32 344.57 172.32 344.64 172.3 344.7 172.27 344.76 172.23 344.81 172.19 344.85 172.13 344.89 172.07 344.92 172.01 344.94 171.94 344.96 171.87 344.97 171.81 344.97 171.74 344.97 171.55 344.92 171.41 344.82 171.31 344.72 171.21 344.59 171.16 344.42 171.16L344.34 171.16 344.34 170.94 344.43 170.94C344.57 170.94 344.69 170.89 344.77 170.79 344.86 170.69 344.9 170.56 344.9 170.39 344.9 170.33 344.9 170.27 344.88 170.21 344.86 170.15 344.84 170.1 344.8 170.05 344.77 170 344.72 169.97 344.67 169.93 344.62 169.9 344.56 169.89 344.48 169.89 344.4 169.89 344.32 169.91 344.25 169.97 344.18 170.02 344.13 170.08 344.09 170.17L343.85 170.09C343.91 169.95 344 169.84 344.12 169.77 344.24 169.7 344.36 169.66 344.49 169.66 344.59 169.66 344.68 169.68 344.77 169.71 344.85 169.74 344.92 169.79 344.98 169.86 345.03 169.92 345.08 170 345.11 170.08 345.14 170.16 345.16 170.26 345.16 170.36 345.16 170.44 345.15 170.51 345.13 170.58 345.11 170.65 345.09 170.72 345.05 170.78 345.01 170.84 344.97 170.89 344.92 170.94 344.87 170.98 344.8 171.01 344.73 171.03L344.73 171.04C344.88 171.07 345.01 171.15 345.1 171.27 345.19 171.39 345.23 171.55 345.23 171.74Z"/><path d="M347.17 171.63C347.17 171.77 347.15 171.89 347.12 172.01 347.08 172.12 347.04 172.22 346.97 172.3 346.9 172.38 346.82 172.44 346.73 172.48 346.64 172.52 346.53 172.55 346.42 172.55 346.3 172.55 346.19 172.53 346.1 172.48 346.01 172.44 345.93 172.38 345.86 172.3 345.79 172.22 345.75 172.13 345.71 172.01 345.68 171.9 345.66 171.77 345.66 171.64 345.66 171.51 345.68 171.38 345.71 171.25 345.75 171.12 345.8 171 345.86 170.87L346.44 169.69 346.74 169.69 346.13 170.89 346.14 170.89C346.18 170.85 346.24 170.81 346.3 170.78 346.36 170.75 346.43 170.74 346.5 170.74 346.58 170.74 346.66 170.76 346.74 170.79 346.82 170.83 346.89 170.88 346.96 170.95 347.02 171.02 347.07 171.11 347.12 171.23 347.15 171.34 347.17 171.47 347.17 171.63ZM346.89 171.63C346.89 171.53 346.88 171.44 346.86 171.36 346.84 171.28 346.81 171.2 346.77 171.15 346.73 171.09 346.68 171.05 346.62 171.01 346.56 170.98 346.49 170.96 346.41 170.96 346.34 170.96 346.27 170.98 346.21 171.01 346.15 171.04 346.09 171.09 346.05 171.15 346.01 171.21 345.97 171.29 345.95 171.37 345.92 171.45 345.91 171.54 345.91 171.64 345.91 171.84 345.95 172.01 346.04 172.13 346.13 172.25 346.25 172.31 346.4 172.31 346.55 172.31 346.67 172.25 346.75 172.12 346.85 171.99 346.89 171.83 346.89 171.63Z"/><path d="M349.03 171.1C349.03 171.26 349.02 171.43 349 171.6 348.98 171.77 348.94 171.93 348.89 172.07 348.83 172.21 348.76 172.32 348.66 172.41 348.56 172.5 348.44 172.54 348.28 172.54 348.13 172.54 348 172.5 347.9 172.41 347.8 172.32 347.72 172.21 347.67 172.07 347.62 171.93 347.58 171.77 347.56 171.6 347.54 171.43 347.53 171.26 347.53 171.1 347.53 170.94 347.54 170.77 347.56 170.6 347.58 170.43 347.62 170.27 347.67 170.13 347.72 169.99 347.8 169.88 347.9 169.78 348 169.69 348.12 169.65 348.28 169.65 348.44 169.65 348.56 169.7 348.66 169.78 348.76 169.87 348.83 169.98 348.89 170.13 348.95 170.27 348.98 170.43 349 170.6 349.02 170.77 349.03 170.93 349.03 171.1ZM348.74 171.1C348.74 171.03 348.74 170.96 348.74 170.87 348.73 170.78 348.73 170.69 348.72 170.61 348.71 170.52 348.69 170.43 348.67 170.34 348.65 170.25 348.62 170.18 348.59 170.11 348.56 170.04 348.51 169.99 348.46 169.95 348.41 169.91 348.35 169.89 348.27 169.89 348.2 169.89 348.14 169.91 348.09 169.95 348.04 169.99 348 170.04 347.96 170.11 347.93 170.18 347.9 170.26 347.88 170.34 347.86 170.43 347.84 170.52 347.83 170.61 347.82 170.7 347.81 170.79 347.81 170.87 347.81 170.95 347.81 171.03 347.81 171.1 347.81 171.17 347.81 171.25 347.81 171.33 347.81 171.42 347.82 171.5 347.83 171.59 347.84 171.68 347.86 171.76 347.88 171.85 347.9 171.94 347.93 172.01 347.96 172.08 348 172.15 348.04 172.2 348.09 172.24 348.14 172.28 348.2 172.3 348.27 172.3 348.34 172.3 348.4 172.28 348.46 172.24 348.51 172.2 348.56 172.14 348.59 172.08 348.62 172.01 348.65 171.94 348.67 171.85 348.69 171.76 348.71 171.67 348.72 171.59 348.73 171.5 348.74 171.41 348.74 171.33 348.74 171.24 348.74 171.17 348.74 171.1Z"/></g><g><path d="M340.61 182.48C340.61 182.62 340.59 182.75 340.56 182.86 340.52 182.97 340.47 183.07 340.41 183.15 340.34 183.23 340.26 183.29 340.17 183.34 340.08 183.38 339.97 183.4 339.86 183.4 339.74 183.4 339.63 183.38 339.54 183.34 339.45 183.3 339.37 183.24 339.3 183.15 339.23 183.07 339.18 182.98 339.15 182.86 339.11 182.75 339.1 182.62 339.1 182.49 339.1 182.36 339.12 182.23 339.15 182.1 339.19 181.97 339.24 181.85 339.3 181.72L339.88 180.54 340.18 180.54 339.57 181.74 339.58 181.75C339.62 181.7 339.68 181.67 339.74 181.64 339.8 181.61 339.87 181.6 339.94 181.6 340.02 181.6 340.1 181.62 340.18 181.65 340.26 181.68 340.34 181.73 340.4 181.81 340.46 181.88 340.52 181.97 340.56 182.09 340.59 182.18 340.61 182.32 340.61 182.48ZM340.33 182.47C340.33 182.37 340.32 182.28 340.3 182.2 340.28 182.12 340.25 182.05 340.21 181.99 340.17 181.93 340.12 181.88 340.07 181.85 340.01 181.82 339.94 181.8 339.86 181.8 339.78 181.8 339.72 181.82 339.66 181.85 339.6 181.89 339.55 181.93 339.5 181.99 339.46 182.05 339.42 182.12 339.4 182.21 339.38 182.29 339.37 182.38 339.37 182.48 339.37 182.69 339.41 182.85 339.5 182.97 339.59 183.09 339.71 183.15 339.86 183.15 340.01 183.15 340.13 183.09 340.21 182.96 340.29 182.84 340.33 182.67 340.33 182.47Z"/><path d="M342.47 181.94C342.47 182.1 342.46 182.27 342.44 182.44 342.42 182.61 342.38 182.77 342.32 182.91 342.27 183.05 342.19 183.16 342.09 183.25 341.99 183.34 341.87 183.39 341.71 183.39 341.55 183.39 341.43 183.35 341.33 183.25 341.23 183.16 341.16 183.05 341.1 182.91 341.05 182.77 341.01 182.61 340.99 182.44 340.97 182.27 340.96 182.1 340.96 181.94 340.96 181.77 340.97 181.61 340.99 181.44 341.01 181.27 341.05 181.11 341.1 180.97 341.16 180.83 341.23 180.72 341.33 180.63 341.43 180.54 341.56 180.5 341.71 180.5 341.86 180.5 341.99 180.54 342.09 180.63 342.19 180.72 342.26 180.83 342.32 180.97 342.38 181.11 342.41 181.27 342.44 181.44 342.45 181.61 342.47 181.78 342.47 181.94ZM342.19 181.94C342.19 181.87 342.19 181.8 342.18 181.71 342.18 181.62 342.17 181.53 342.16 181.44 342.15 181.35 342.13 181.26 342.11 181.18 342.09 181.09 342.06 181.02 342.03 180.95 342 180.88 341.95 180.83 341.9 180.79 341.85 180.75 341.79 180.73 341.72 180.73 341.65 180.73 341.59 180.75 341.53 180.79 341.48 180.83 341.44 180.89 341.4 180.95 341.36 181.02 341.34 181.09 341.31 181.18 341.28 181.27 341.27 181.35 341.26 181.44 341.25 181.53 341.24 181.62 341.24 181.71 341.24 181.8 341.23 181.87 341.23 181.94 341.23 182.01 341.23 182.08 341.24 182.17 341.24 182.26 341.25 182.35 341.26 182.43 341.27 182.52 341.29 182.61 341.31 182.69 341.33 182.78 341.36 182.85 341.4 182.92 341.43 182.99 341.48 183.04 341.53 183.08 341.58 183.12 341.64 183.14 341.72 183.14 341.79 183.14 341.85 183.12 341.9 183.08 341.95 183.04 342 182.99 342.03 182.92 342.07 182.85 342.09 182.77 342.11 182.69 342.13 182.6 342.15 182.52 342.16 182.43 342.17 182.34 342.18 182.26 342.18 182.17 342.18 182.09 342.19 182.01 342.19 181.94Z"/><path d="M344.33 181.94C344.33 182.1 344.32 182.27 344.3 182.44 344.28 182.61 344.25 182.77 344.19 182.91 344.13 183.05 344.06 183.16 343.96 183.25 343.86 183.34 343.74 183.39 343.58 183.39 343.43 183.39 343.3 183.35 343.2 183.25 343.1 183.16 343.03 183.05 342.97 182.91 342.92 182.77 342.88 182.61 342.86 182.44 342.84 182.27 342.83 182.1 342.83 181.94 342.83 181.77 342.84 181.61 342.86 181.44 342.88 181.27 342.92 181.11 342.97 180.97 343.03 180.83 343.1 180.72 343.2 180.63 343.3 180.54 343.43 180.5 343.58 180.5 343.74 180.5 343.86 180.54 343.96 180.63 344.06 180.72 344.13 180.83 344.19 180.97 344.25 181.11 344.28 181.27 344.3 181.44 344.32 181.61 344.33 181.78 344.33 181.94ZM344.05 181.94C344.05 181.87 344.05 181.8 344.05 181.71 344.05 181.62 344.04 181.53 344.03 181.44 344.02 181.35 344.01 181.26 343.98 181.18 343.96 181.09 343.93 181.02 343.9 180.95 343.87 180.88 343.82 180.83 343.77 180.79 343.72 180.75 343.66 180.73 343.58 180.73 343.51 180.73 343.45 180.75 343.39 180.79 343.34 180.83 343.3 180.89 343.26 180.95 343.23 181.02 343.19 181.09 343.17 181.18 343.15 181.27 343.13 181.35 343.12 181.44 343.11 181.53 343.1 181.62 343.1 181.71 343.1 181.8 343.09 181.87 343.09 181.94 343.09 182.01 343.09 182.08 343.1 182.17 343.11 182.26 343.11 182.35 343.12 182.43 343.13 182.52 343.15 182.61 343.17 182.69 343.19 182.78 343.22 182.85 343.26 182.92 343.29 182.99 343.34 183.04 343.39 183.08 343.44 183.12 343.5 183.14 343.58 183.14 343.65 183.14 343.71 183.12 343.77 183.08 343.82 183.04 343.86 182.99 343.9 182.92 343.93 182.85 343.96 182.77 343.98 182.69 344 182.6 344.02 182.52 344.03 182.43 344.04 182.34 344.05 182.26 344.05 182.17 344.05 182.09 344.05 182.01 344.05 181.94Z"/></g><g><path d="M328.8 187.54C328.8 187.66 328.78 187.77 328.75 187.87 328.71 187.97 328.66 188.06 328.6 188.13 328.53 188.2 328.46 188.26 328.36 188.3 328.27 188.34 328.16 188.36 328.05 188.36 327.94 188.36 327.83 188.34 327.74 188.3 327.65 188.26 327.57 188.2 327.51 188.13 327.45 188.06 327.4 187.97 327.36 187.87 327.33 187.77 327.31 187.66 327.31 187.54 327.31 187.35 327.35 187.19 327.43 187.07 327.51 186.95 327.62 186.86 327.77 186.81L327.77 186.8C327.64 186.75 327.55 186.66 327.48 186.55 327.41 186.44 327.38 186.31 327.38 186.15 327.38 186.05 327.39 185.96 327.42 185.87 327.45 185.78 327.49 185.71 327.55 185.64 327.6 185.57 327.68 185.52 327.76 185.49 327.84 185.45 327.94 185.43 328.05 185.43 328.16 185.43 328.26 185.45 328.34 185.49 328.42 185.52 328.5 185.58 328.55 185.64 328.6 185.7 328.65 185.78 328.68 185.87 328.71 185.96 328.72 186.05 328.72 186.15 328.72 186.3 328.69 186.43 328.63 186.55 328.57 186.66 328.47 186.74 328.35 186.8L328.35 186.81C328.49 186.86 328.6 186.95 328.68 187.07 328.76 187.19 328.8 187.35 328.8 187.54ZM328.51 187.52C328.51 187.34 328.47 187.2 328.38 187.08 328.3 186.97 328.19 186.91 328.05 186.91 327.91 186.91 327.8 186.97 327.72 187.08 327.64 187.19 327.59 187.34 327.59 187.52 327.59 187.61 327.6 187.68 327.62 187.76 327.64 187.83 327.67 187.9 327.71 187.95 327.75 188 327.8 188.05 327.85 188.07 327.91 188.1 327.97 188.12 328.04 188.12 328.11 188.12 328.18 188.11 328.24 188.07 328.3 188.04 328.35 188 328.38 187.95 328.42 187.89 328.45 187.83 328.47 187.76 328.5 187.69 328.51 187.61 328.51 187.52ZM328.45 186.18C328.45 186.03 328.42 185.9 328.35 185.81 328.28 185.71 328.18 185.66 328.06 185.66 327.93 185.66 327.83 185.71 327.76 185.81 327.69 185.91 327.66 186.03 327.66 186.18 327.66 186.25 327.67 186.32 327.69 186.38 327.71 186.44 327.73 186.5 327.77 186.55 327.8 186.6 327.85 186.64 327.9 186.66 327.95 186.69 328 186.7 328.06 186.7 328.12 186.7 328.18 186.69 328.23 186.66 328.28 186.63 328.32 186.59 328.36 186.55 328.39 186.5 328.42 186.45 328.44 186.38 328.44 186.31 328.45 186.25 328.45 186.18Z"/><path d="M330.66 186.9C330.66 187.06 330.65 187.23 330.63 187.4 330.61 187.57 330.57 187.73 330.52 187.87 330.47 188.01 330.39 188.12 330.29 188.22 330.19 188.31 330.07 188.35 329.91 188.35 329.75 188.35 329.62 188.3 329.53 188.22 329.43 188.13 329.35 188.01 329.3 187.87 329.24 187.73 329.21 187.57 329.18 187.4 329.16 187.23 329.15 187.06 329.15 186.9 329.15 186.74 329.16 186.57 329.18 186.4 329.2 186.23 329.24 186.07 329.3 185.93 329.35 185.79 329.43 185.68 329.53 185.59 329.63 185.5 329.75 185.46 329.91 185.46 330.07 185.46 330.19 185.5 330.29 185.59 330.39 185.68 330.46 185.8 330.52 185.93 330.57 186.07 330.61 186.23 330.63 186.4 330.65 186.57 330.66 186.73 330.66 186.9ZM330.38 186.9C330.38 186.83 330.38 186.76 330.38 186.67 330.37 186.59 330.37 186.5 330.36 186.41 330.35 186.32 330.33 186.23 330.31 186.15 330.29 186.06 330.26 185.99 330.23 185.92 330.2 185.85 330.15 185.8 330.1 185.76 330.05 185.72 329.99 185.7 329.92 185.7 329.85 185.7 329.79 185.72 329.73 185.76 329.68 185.8 329.64 185.86 329.6 185.92 329.57 185.99 329.54 186.07 329.51 186.15 329.49 186.24 329.47 186.32 329.46 186.41 329.45 186.5 329.44 186.59 329.44 186.67 329.43 186.76 329.43 186.83 329.43 186.9 329.43 186.97 329.43 187.05 329.44 187.13 329.44 187.21 329.45 187.3 329.46 187.39 329.47 187.48 329.49 187.57 329.51 187.65 329.54 187.74 329.56 187.81 329.6 187.88 329.63 187.95 329.68 188 329.73 188.04 329.78 188.08 329.85 188.1 329.92 188.1 329.99 188.1 330.05 188.08 330.1 188.04 330.15 188 330.19 187.95 330.23 187.88 330.27 187.81 330.29 187.73 330.31 187.65 330.33 187.56 330.35 187.48 330.36 187.39 330.37 187.3 330.38 187.21 330.38 187.13 330.38 187.04 330.38 186.97 330.38 186.9Z"/><path d="M332.53 186.9C332.53 187.06 332.52 187.23 332.5 187.4 332.48 187.57 332.44 187.73 332.39 187.87 332.34 188.01 332.26 188.12 332.16 188.22 332.06 188.31 331.93 188.35 331.78 188.35 331.62 188.35 331.49 188.3 331.4 188.22 331.3 188.13 331.23 188.01 331.17 187.87 331.11 187.73 331.08 187.57 331.05 187.4 331.03 187.23 331.02 187.06 331.02 186.9 331.02 186.74 331.03 186.57 331.05 186.4 331.07 186.23 331.11 186.07 331.17 185.93 331.22 185.79 331.3 185.68 331.4 185.59 331.5 185.5 331.62 185.46 331.78 185.46 331.94 185.46 332.06 185.5 332.16 185.59 332.26 185.68 332.33 185.8 332.39 185.93 332.45 186.07 332.48 186.23 332.5 186.4 332.52 186.57 332.53 186.73 332.53 186.9ZM332.24 186.9C332.24 186.83 332.24 186.76 332.24 186.67 332.23 186.59 332.23 186.5 332.22 186.41 332.21 186.32 332.19 186.23 332.17 186.15 332.15 186.06 332.12 185.99 332.09 185.92 332.06 185.85 332.01 185.8 331.96 185.76 331.91 185.72 331.85 185.7 331.78 185.7 331.7 185.7 331.65 185.72 331.59 185.76 331.54 185.8 331.5 185.86 331.46 185.92 331.43 185.99 331.4 186.07 331.37 186.15 331.35 186.24 331.33 186.32 331.32 186.41 331.31 186.5 331.3 186.59 331.3 186.67 331.3 186.76 331.29 186.83 331.29 186.9 331.29 186.97 331.29 187.05 331.3 187.13 331.3 187.21 331.31 187.3 331.32 187.39 331.33 187.48 331.35 187.57 331.37 187.65 331.39 187.74 331.42 187.81 331.46 187.88 331.5 187.95 331.54 188 331.59 188.04 331.64 188.08 331.7 188.1 331.78 188.1 331.85 188.1 331.91 188.08 331.96 188.04 332.01 188 332.05 187.95 332.09 187.88 332.13 187.81 332.15 187.73 332.17 187.65 332.19 187.56 332.21 187.48 332.22 187.39 332.23 187.3 332.24 187.21 332.24 187.13 332.24 187.04 332.24 186.97 332.24 186.9Z"/></g><g><g><path d="M339.18 180.9C339.16 180.9 339.14 180.89 339.12 180.87L338.2 179.93C338.17 179.9 338.17 179.84 338.2 179.81 338.23 179.78 338.29 179.78 338.32 179.81L339.24 180.75C339.27 180.78 339.27 180.84 339.24 180.87 339.22 180.9 339.2 180.9 339.18 180.9Z"/></g></g><g><g><path d="M329.83 159.69C329.78 159.69 329.75 159.65 329.75 159.61L329.74 158.29C329.74 158.24 329.78 158.21 329.82 158.21L329.82 158.21C329.87 158.21 329.9 158.25 329.9 158.29L329.91 159.61C329.92 159.65 329.88 159.69 329.83 159.69L329.83 159.69Z"/></g></g><g><g><path d="M329.83 184.97C329.78 184.97 329.75 184.93 329.75 184.89L329.74 183.57C329.74 183.53 329.78 183.49 329.82 183.49L329.82 183.49C329.87 183.49 329.9 183.53 329.9 183.57L329.91 184.89C329.92 184.94 329.88 184.97 329.83 184.97L329.83 184.97Z"/></g></g><g><g><path d="M338.36 163.08C338.34 163.08 338.32 163.07 338.31 163.06 338.28 163.03 338.27 162.98 338.3 162.94L339.16 161.94C339.19 161.9 339.24 161.9 339.28 161.93 339.32 161.96 339.32 162.01 339.29 162.05L338.43 163.05C338.41 163.07 338.39 163.08 338.36 163.08Z"/></g></g><g><g><path d="M343.21 171.35 343.21 171.35 341.89 171.34C341.84 171.34 341.81 171.3 341.81 171.26 341.81 171.21 341.85 171.18 341.89 171.18L341.89 171.18 343.21 171.19C343.26 171.19 343.29 171.23 343.29 171.27 343.29 171.31 343.26 171.35 343.21 171.35Z"/></g></g></g><g><path d="M317.26 157.55C317.26 157.86 317 158.12 316.69 158.12L311.64 158.12C311.33 158.12 311.07 157.87 311.07 157.55L311.07 152.5C311.07 152.19 311.33 151.93 311.64 151.93L316.69 151.93C317 151.93 317.26 152.18 317.26 152.5L317.26 157.55Z" stroke="#000000" stroke-width="0.25" stroke-linecap="round" stroke-linejoin="round" stroke-miterlimit="10" fill="none"/><g><path d="M311.38 153.77C311.37 153.77 311.37 153.77 311.38 153.77 311.33 153.77 311.3 153.73 311.3 153.69 311.3 153.65 311.39 152.6 312.07 152.6 312.44 152.6 312.57 152.9 312.69 153.17 312.81 153.44 312.89 153.6 313.1 153.6 313.29 153.6 313.37 153.42 313.48 153.13 313.59 152.83 313.71 152.5 314.1 152.5 314.46 152.5 314.56 152.78 314.64 153.03 314.73 153.29 314.81 153.52 315.14 153.52 315.47 153.52 315.56 153.28 315.66 153 315.76 152.74 315.86 152.44 316.22 152.43 316.23 152.43 316.24 152.43 316.25 152.43 316.96 152.43 317.02 153.52 317.02 153.57 317.02 153.61 316.99 153.65 316.95 153.65 316.91 153.65 316.87 153.62 316.87 153.58 316.87 153.57 316.82 152.58 316.24 152.58 316.23 152.58 316.23 152.58 316.22 152.58 315.96 152.59 315.88 152.81 315.79 153.05 315.68 153.34 315.56 153.67 315.13 153.67 314.69 153.67 314.58 153.34 314.49 153.08 314.4 152.81 314.33 152.65 314.08 152.65 313.8 152.65 313.7 152.91 313.6 153.18 313.51 153.44 313.4 153.74 313.09 153.74 312.77 153.74 312.65 153.46 312.55 153.22 312.44 152.96 312.35 152.74 312.07 152.74 311.52 152.74 311.45 153.68 311.45 153.69 311.45 153.74 311.42 153.77 311.38 153.77Z"/></g><g><path d="M311.38 155.58C311.37 155.58 311.37 155.58 311.38 155.58 311.33 155.58 311.3 155.54 311.3 155.5 311.3 155.46 311.39 154.41 312.07 154.41 312.44 154.41 312.57 154.71 312.69 154.98 312.81 155.25 312.89 155.41 313.1 155.41 313.29 155.41 313.37 155.23 313.48 154.95 313.59 154.65 313.71 154.32 314.1 154.32 314.46 154.32 314.56 154.6 314.64 154.85 314.73 155.11 314.81 155.34 315.14 155.34 315.47 155.34 315.56 155.1 315.66 154.82 315.76 154.56 315.86 154.26 316.22 154.25 316.23 154.25 316.24 154.25 316.25 154.25 316.96 154.25 317.02 155.34 317.02 155.39 317.02 155.43 316.99 155.47 316.95 155.47 316.91 155.47 316.87 155.44 316.87 155.4 316.87 155.39 316.82 154.4 316.24 154.4 316.23 154.4 316.23 154.4 316.22 154.4 315.96 154.41 315.88 154.63 315.79 154.87 315.68 155.16 315.56 155.49 315.13 155.49 314.69 155.49 314.58 155.16 314.49 154.9 314.4 154.63 314.33 154.47 314.08 154.47 313.8 154.47 313.7 154.73 313.6 155 313.51 155.26 313.4 155.56 313.09 155.56 312.77 155.56 312.65 155.29 312.55 155.04 312.44 154.78 312.35 154.56 312.07 154.56 311.52 154.56 311.45 155.5 311.45 155.51 311.45 155.55 311.42 155.58 311.38 155.58Z"/></g><g><path d="M311.38 157.4C311.37 157.4 311.37 157.4 311.38 157.4 311.33 157.4 311.3 157.36 311.3 157.32 311.3 157.27 311.39 156.23 312.07 156.23 312.44 156.23 312.57 156.53 312.69 156.8 312.81 157.07 312.89 157.23 313.1 157.23 313.29 157.23 313.37 157.06 313.48 156.77 313.59 156.47 313.71 156.14 314.1 156.14 314.46 156.14 314.56 156.42 314.64 156.67 314.73 156.93 314.81 157.16 315.14 157.16 315.47 157.16 315.56 156.92 315.66 156.64 315.76 156.38 315.86 156.08 316.22 156.07 316.23 156.07 316.24 156.07 316.25 156.07 316.96 156.07 317.02 157.16 317.02 157.21 317.02 157.25 316.99 157.29 316.95 157.29 316.91 157.29 316.87 157.26 316.87 157.22 316.87 157.21 316.82 156.22 316.24 156.22 316.23 156.22 316.23 156.22 316.22 156.22 315.96 156.23 315.88 156.45 315.79 156.7 315.68 156.99 315.56 157.32 315.13 157.32 314.69 157.32 314.58 156.99 314.49 156.73 314.4 156.46 314.33 156.3 314.08 156.3 313.8 156.3 313.7 156.56 313.6 156.83 313.51 157.09 313.4 157.39 313.09 157.39 312.77 157.39 312.65 157.11 312.55 156.87 312.44 156.61 312.35 156.39 312.07 156.39 311.52 156.39 311.45 157.33 311.45 157.34 311.45 157.37 311.42 157.4 311.38 157.4Z"/></g></g><g><g><path d="M312.58 190.06C312.65 190 312.73 189.96 312.83 189.96 312.88 189.96 312.93 189.97 312.97 189.99 313.01 190.01 313.05 190.03 313.07 190.07 313.1 190.1 313.12 190.14 313.13 190.18 313.15 190.22 313.16 190.27 313.17 190.31L313.17 190.31C313.18 190.27 313.2 190.22 313.22 190.18 313.24 190.14 313.27 190.1 313.31 190.07 313.34 190.03 313.38 190.01 313.43 189.99 313.47 189.97 313.52 189.96 313.58 189.96 313.66 189.96 313.73 189.98 313.78 190.01 313.83 190.04 313.87 190.09 313.89 190.15 313.92 190.21 313.94 190.27 313.94 190.34 313.95 190.41 313.95 190.48 313.95 190.55L313.95 191.54 313.75 191.54 313.75 190.55C313.75 190.5 313.75 190.46 313.74 190.41 313.74 190.36 313.72 190.32 313.71 190.28 313.7 190.24 313.67 190.21 313.64 190.18 313.61 190.15 313.57 190.14 313.51 190.14 313.46 190.14 313.42 190.15 313.37 190.18 313.33 190.21 313.3 190.25 313.27 190.29 313.24 190.34 313.22 190.39 313.21 190.46 313.2 190.53 313.19 190.59 313.19 190.66L313.19 191.54 313 191.54 313 190.55C313 190.5 313 190.46 312.99 190.41 312.99 190.36 312.97 190.32 312.96 190.28 312.94 190.24 312.92 190.21 312.89 190.18 312.86 190.15 312.82 190.14 312.77 190.14 312.72 190.14 312.67 190.15 312.63 190.18 312.59 190.21 312.56 190.25 312.53 190.29 312.5 190.34 312.48 190.39 312.47 190.46 312.46 190.53 312.45 190.59 312.45 190.66L312.45 191.54 312.24 191.54 312.24 190.4C312.24 190.37 312.24 190.33 312.24 190.29 312.24 190.25 312.24 190.22 312.24 190.18 312.24 190.14 312.24 190.11 312.24 190.08 312.24 190.05 312.24 190.03 312.24 190.01L312.44 190.01C312.45 190.05 312.45 190.1 312.45 190.15 312.45 190.21 312.45 190.26 312.45 190.31L312.45 190.31C312.47 190.21 312.51 190.13 312.58 190.06Z"/><path d="M314.67 189.54C314.67 189.58 314.65 189.62 314.63 189.65 314.6 189.68 314.57 189.69 314.53 189.69 314.49 189.69 314.46 189.68 314.43 189.65 314.41 189.62 314.39 189.59 314.39 189.54 314.39 189.5 314.4 189.46 314.43 189.44 314.46 189.41 314.49 189.4 314.53 189.4 314.57 189.4 314.6 189.42 314.63 189.44 314.65 189.47 314.67 189.5 314.67 189.54ZM314.43 191.55 314.43 190.02 314.64 190.02 314.64 191.55 314.43 191.55Z"/><path d="M315.89 191.55 315.89 190.56C315.89 190.51 315.89 190.47 315.88 190.42 315.88 190.37 315.86 190.33 315.85 190.29 315.83 190.25 315.81 190.22 315.77 190.19 315.74 190.16 315.7 190.15 315.64 190.15 315.59 190.15 315.54 190.16 315.5 190.19 315.46 190.22 315.43 190.26 315.4 190.3 315.37 190.35 315.35 190.4 315.34 190.47 315.33 190.54 315.32 190.6 315.32 190.67L315.32 191.55 315.12 191.55 315.12 190.41C315.12 190.38 315.12 190.34 315.12 190.3 315.12 190.26 315.12 190.23 315.12 190.19 315.12 190.15 315.12 190.12 315.12 190.09 315.12 190.06 315.12 190.04 315.12 190.02L315.32 190.02C315.32 190.06 315.33 190.11 315.33 190.16 315.33 190.22 315.33 190.27 315.33 190.32L315.34 190.32C315.37 190.22 315.42 190.13 315.48 190.07 315.55 190.01 315.63 189.97 315.73 189.97 315.81 189.97 315.88 189.99 315.93 190.02 315.98 190.05 316.02 190.1 316.05 190.16 316.08 190.22 316.09 190.28 316.1 190.35 316.11 190.42 316.12 190.49 316.12 190.56L316.12 191.55 315.89 191.55Z"/></g><g><g><path d="M316.69 198.87 311.64 198.87C311.29 198.87 311 198.58 311 198.23L311 193.18C311 192.83 311.29 192.54 311.64 192.54L316.69 192.54C317.04 192.54 317.33 192.83 317.33 193.18L317.33 198.23C317.33 198.58 317.04 198.87 316.69 198.87ZM311.63 192.68C311.36 192.68 311.14 192.9 311.14 193.17L311.14 198.22C311.14 198.49 311.36 198.72 311.63 198.72L316.68 198.72C316.95 198.72 317.18 198.5 317.18 198.22L317.18 193.17C317.18 192.9 316.96 192.68 316.68 192.68L311.63 192.68Z"/></g><g><path d="M316.93 196.18 313.95 196.18C313.91 196.18 313.87 196.15 313.87 196.11L313.87 193.13C313.87 193.09 313.9 193.05 313.95 193.05 313.99 193.05 314.02 193.09 314.02 193.13L314.02 196.04 316.93 196.04C316.97 196.04 317.01 196.07 317.01 196.11 317 196.15 316.97 196.18 316.93 196.18Z"/></g></g></g></g></svg>