<svg width="85.36" height="55.95" viewBox="0 0 85.36 55.95" xmlns="http://www.w3.org/2000/svg" xmlns:xlink="http://www.w3.org/1999/xlink" xml:space="preserve" overflow="hidden"><defs></defs><g><path d="M25.89 2.33C24.3 1.62 18.99 2.51 19.7 0.56 20.4-1.38 25.89 2.33 25.89 2.33Z" fill="#EFC85B"/><path d="M34.82 6.22C39.65 3.25 44.84-3.73 55.81 5.93L34.82 6.22Z" fill="#EFC85B"/><path d="M5.53 11.76C5.53 11.76 39.21 1.99 77.25 5.59 77.25 5.59 77.76 48.26 75.45 50.57 73.14 52.88 19.67 57.19 16.59 54.88 13.5 52.58 5.53 11.76 5.53 11.76Z" fill="#718389"/><path d="M5.01 10.95C6.05 16.22 13.73 52.75 16.59 54.89 16.71 54.98 16.95 55.06 17.23 55.13 17.03 53.92 16.9 52.7 16.91 51.44 17.03 37.61 30.24 26.4 46.42 26.4 62.25 26.4 75.02 37.15 75.44 50.57L75.44 50.57C77.45 48.57 77.51 14.21 77.44 5.63 51.74 2.06 5.01 10.95 5.01 10.95Z" fill="#5A6A72"/><g><path d="M17.23 48.11C15.32 42.34 14.01 35.69 13.48 28.34 13.02 21.97 13.19 15.59 13.88 9.42 8.42 10.29 5 10.94 5 10.94 6.04 16.21 13.72 52.74 16.58 54.88 16.7 54.97 16.94 55.05 17.22 55.12 17.02 53.91 16.89 52.69 16.9 51.43 16.92 50.31 17.05 49.21 17.23 48.11Z" fill="#4C5D63"/><path d="M77.45 5.64C76.41 5.5 75.32 5.38 74.22 5.27 74.66 16.43 73.26 27.49 70.44 37.29 73.46 41.09 75.29 45.65 75.44 50.58L75.44 50.58C77.45 48.57 77.52 14.22 77.45 5.64Z" fill="#4C5D63"/></g><path d="M74.03 49.41C71.82 51.68 20.72 55.91 17.77 53.64 16.31 52.52 12.85 41.93 9.71 31.48 12.13 42.3 14.63 54.11 16.21 55.31 19.29 57.64 73.48 53.04 75.79 50.71 76.66 49.83 76.74 42.33 76.95 35.1 75.88 42.59 74.8 48.61 74.03 49.41Z" fill="#879BA0"/><path d="M75.44 50.58C75.72 50.3 75.96 49.41 76.17 48.07 70.3 44.3 59.53 41.97 47.27 42.33 31.92 42.78 19.14 47.3 15.5 53.05 15.9 54 16.27 54.66 16.58 54.89 19.67 57.2 73.13 52.89 75.44 50.58Z" fill="#FFEDB8" opacity="0.2"/><path d="M8.34 18.31C3.17 19.67-0.91 21.57 0.18 24.29 1.27 27.01 10.79 25.11 10.79 25.11L8.34 18.31Z" fill="#4C5D63"/><path d="M76.53 18.46C81.81 17.64 86.06 16.16 85.26 13.34 84.46 10.52 74.79 11.44 74.79 11.44L76.53 18.46Z" fill="#4C5D63"/><path d="M85.18 13.9C85.18 12.86 83.99 12.01 82.52 12.01 81.05 12.01 79.87 12.86 79.87 13.9 79.87 14.94 81.06 15.79 82.52 15.79 83.99 15.78 85.18 14.94 85.18 13.9Z" fill="#718389"/><path d="M5.62 21.86C5.27 20.88 3.87 20.47 2.49 20.96 1.11 21.45 0.27 22.64 0.61 23.62 0.95 24.61 2.36 25.01 3.74 24.52 5.13 24.04 5.97 22.85 5.62 21.86Z" fill="#718389"/><path d="M74.14 8.82 74.14 15.55C74.14 15.55 44.41 9.41 30.01 10.24 30.02 10.24 51.73 6.58 74.14 8.82Z" fill="#718389"/></g></svg>