<svg width="24.42" height="6.88" viewBox="0 0 24.42 6.88" xmlns="http://www.w3.org/2000/svg" xmlns:xlink="http://www.w3.org/1999/xlink" xml:space="preserve" overflow="hidden"><defs></defs><g><path d="M24.42 3.44C24.42 5.34 18.96 6.88 12.21 6.88 5.46 6.88 0 5.34 0 3.44 0 1.54 5.46 0 12.21 0 18.95 0 24.42 1.54 24.42 3.44Z" fill="#4D5457"/><path d="M22.64 3.24C22.64 4.86 17.97 6.18 12.21 6.18 6.45 6.18 1.78 4.87 1.78 3.24 1.78 1.62 6.45 0.3 12.21 0.3 17.97 0.3 22.64 1.62 22.64 3.24Z" fill="#889298"/><g><g><path d="M10.24 2.19C10.38 2.11 10.46 2.01 10.46 1.91 10.46 1.54 9.4 1.24 8.09 1.24 6.78 1.24 5.72 1.54 5.72 1.91 5.72 2.01 5.8 2.1 5.94 2.19 6.3 1.96 7.13 1.8 8.08 1.8 9.04 1.8 9.86 1.96 10.24 2.19Z" fill="#4D5457"/><path d="M10.24 2.19C9.86 1.96 9.04 1.8 8.08 1.8 7.12 1.8 6.3 1.96 5.92 2.19 6.3 2.42 7.12 2.58 8.08 2.58 9.04 2.59 9.86 2.42 10.24 2.19Z" fill="#272B2C"/></g><g><path d="M18.3 2.19C18.44 2.11 18.52 2.01 18.52 1.91 18.52 1.54 17.46 1.24 16.15 1.24 14.84 1.24 13.78 1.54 13.78 1.91 13.78 2.01 13.86 2.1 14 2.19 14.38 1.96 15.2 1.8 16.15 1.8 17.11 1.8 17.93 1.96 18.3 2.19Z" fill="#4D5457"/><ellipse cx="16.15" cy="2.19" rx="2.15" ry="0.39" fill="#272B2C"/></g><g><path d="M13.66 3.59C13.76 3.53 13.82 3.46 13.82 3.39 13.82 3.12 13.04 2.9 12.09 2.9 11.13 2.9 10.36 3.12 10.36 3.39 10.36 3.46 10.42 3.53 10.52 3.59 10.79 3.42 11.39 3.3 12.09 3.3 12.78 3.31 13.38 3.42 13.66 3.59Z" fill="#4D5457"/><path d="M13.66 3.59C13.39 3.42 12.78 3.3 12.09 3.3 11.39 3.3 10.79 3.42 10.52 3.59 10.79 3.76 11.39 3.88 12.09 3.88 12.78 3.88 13.38 3.76 13.66 3.59Z" fill="#272B2C"/></g><g><path d="M10.24 4.96C10.38 4.87 10.46 4.78 10.46 4.68 10.46 4.31 9.4 4.01 8.09 4.01 6.78 4.01 5.72 4.31 5.72 4.68 5.72 4.78 5.8 4.87 5.94 4.96 6.32 4.73 7.14 4.57 8.1 4.57 9.04 4.57 9.86 4.73 10.24 4.96Z" fill="#4D5457"/><path d="M10.24 4.96C9.86 4.73 9.04 4.57 8.09 4.57 7.13 4.57 6.31 4.73 5.93 4.96 6.31 5.19 7.13 5.35 8.09 5.35 9.04 5.36 9.86 5.19 10.24 4.96Z" fill="#272B2C"/></g><g><path d="M18.3 4.96C18.44 4.87 18.52 4.78 18.52 4.68 18.52 4.31 17.46 4.01 16.15 4.01 14.84 4.01 13.78 4.31 13.78 4.68 13.78 4.78 13.86 4.87 14 4.96 14.38 4.73 15.2 4.57 16.15 4.57 17.11 4.57 17.93 4.73 18.3 4.96Z" fill="#4D5457"/><ellipse cx="16.15" cy="4.96" rx="2.15" ry="0.39" fill="#272B2C"/></g></g></g></svg>