<svg width="66.72" height="17.45" viewBox="0 0 66.72 17.45" xmlns="http://www.w3.org/2000/svg" xmlns:xlink="http://www.w3.org/1999/xlink" xml:space="preserve" overflow="hidden"><defs></defs><path d="M0.72 16.53C0.72 16.53-1.99 10.67 3.13 9.88 3.13 9.88 3.13 7.29 5.43 8.05 5.43 8.05 3.74 5.49 6.41 4.07 9.08 2.64 10.27 4.91 10.27 4.91 10.27 4.91 12 2.28 13.16 4.9 13.16 4.9 13.83 3.09 15.09 4.64 15.09 4.64 14.8 1.31 17.3 1.12 19.81 0.92 19.46 3.91 19.46 3.91 19.46 3.91 22.22 0.54 23.17 4.19 23.17 4.19 23.85 2.83 25.39 3.94 25.39 3.94 25.13 0.62 27.84 0.08 30.56-0.47 30.92 2.72 30.92 2.72 30.92 2.72 33.11 0.4 33.71 3.47 33.71 3.47 35.14 1.4 36.16 3.69 36.16 3.69 37.41 1.45 39.06 4.09 39.06 4.09 38.78 1.1 41.11 0.5 43.44-0.1 44.77 2.59 44.77 2.59 44.77 2.59 47.35-0.46 48.32 3.48 48.32 3.48 50.03 1.1 51.21 4.07 51.21 4.07 52.35 0.5 55.35 3.46 55.35 3.46 57.34 1.32 58.26 4.28 58.26 4.28 60.14 2.2 61.35 4.66 61.35 4.66 62.67 2.26 63.85 5.27 63.85 5.27 67.39 4.53 66.62 7.8L65.42 9.53 31.24 14.8 0.72 16.53Z" fill="#34A836"/><path d="M6.4 16.44C6.4 16.44 2.98 13.38 3.87 10.89 4.76 8.4 8.3 8.25 9.66 10.95 9.66 10.95 8.67 5.49 15.33 7.01 15.33 7.01 15.53 3.49 18.51 4.03 21.49 4.57 20.5 8.01 20.5 8.01 20.5 8.01 24.2 6.14 25.22 10.12 25.22 10.12 28.24 6.9 29.97 11.26 29.97 11.26 31.63 6.19 35.89 10.57 35.89 10.57 37.63 8.51 40.33 10.92 40.33 10.92 43.76 6.45 46.52 9.47 46.52 9.47 48.21 7.06 50.35 9.33 50.35 9.33 48.97 4.22 54.4 5.87 54.4 5.87 56.82 0.74 60.13 5.33 60.13 5.33 64.88 4.53 64.08 8.92L46.44 13.94 19.6 17.45 6.4 16.44Z" fill="#008438" opacity="0.8"/></svg>