<svg width="755.26" height="824.17" viewBox="0 0 755.26 824.17" xmlns="http://www.w3.org/2000/svg" xmlns:xlink="http://www.w3.org/1999/xlink" xml:space="preserve" overflow="hidden"><defs></defs><path d="M94.24 352.78C74.57 337.55 69.37 304.79 86.96 287.19 76.52 273.33 82.87 253.06 93.21 239.13 105.79 222.19 123.74 209.3 143.82 202.81 151.26 200.4 158.98 198.85 166.24 195.94 176.18 191.96 184.94 185.56 194.07 179.97 217.48 165.64 244.98 156.24 272.24 159.49 299.49 162.74 325.94 180.66 333.94 206.91 356.91 193.05 381.1 178.79 407.9 177.39 434.69 175.98 464.47 192.2 468.52 218.73 468.67 219.74 468.81 220.81 469.42 221.64 470.98 223.74 474.25 222.92 476.68 221.95 492.81 215.51 510.62 211.65 527.59 215.33 544.57 219.02 560.37 231.57 564.02 248.55 582.74 238.22 606.25 243.91 625.56 253.09 641.45 260.64 656.64 270.71 666.86 285.03 677.09 299.35 681.69 318.47 675.64 334.99 671.1 347.4 661.28 357.07 654.89 368.63 651.63 374.52 649.29 380.85 646.47 386.96 637.75 405.8 623.97 422.73 605.77 432.71 587.56 442.69 564.73 445.05 545.81 436.5 539.66 452.63 523.05 462.82 506.15 466.35 494.75 468.73 482.22 468.43 472.27 462.38 453.75 451.12 451.06 425.19 454.76 403.84 456.5 393.79 459.2 383.54 457.24 373.53 455.28 363.52 446.74 353.81 436.58 354.79 429.56 355.46 424.02 360.8 417.67 363.87 406.93 369.06 393.51 367.37 383.62 360.7 373.73 354.02 367.31 342.87 365.15 331.13 358.6 350.38 351.31 369.38 343.3 388.07 341.32 392.7 338.63 397.87 333.72 398.97 327.67 400.32 321.35 394.6 315.57 396.84 313.07 397.81 311.34 400.06 309.18 401.65 300.57 407.98 287.67 401.74 282.29 392.5 276.91 383.26 276.35 372.11 273.64 361.77 270.93 351.43 264.5 340.56 253.98 338.68 250.66 345.4 246.39 351.93 240.11 356.01 233.82 360.09 225.16 361.18 218.9 357.06 212.41 352.78 208.03 343.28 200.33 344.34 202.93 349.69 204.32 358.35 201.36 363.89 196.88 372.28 195.81 369.45 189.04 365.28 179.49 359.39 175.18 354.92 163.56 357.1 138.88 361.73 116.79 370.26 94.24 352.78Z" fill="#44703A"/><path d="M620.32 301.72C603.46 322.73 578.93 337.44 552.45 342.4 561.56 332.78 569.22 321.79 575.08 309.91 576.5 307.04 577.84 303.95 577.54 300.76 577.24 297.57 574.7 294.37 571.5 294.49 559.4 311.99 547.17 329.64 531.58 344.11 524.06 347.87 517.63 355.8 510.09 360.15 502.75 364.39 495.14 367.35 487.08 369.62 492.22 357.51 495.92 344.89 497.55 331.7 485.05 328.93 473.42 322.33 464.64 313.01 452.87 348.14 433.75 380.74 409.08 408.37 402.51 409.36 395.45 406.4 390.65 401.61 384.95 395.91 381.89 388.11 379.61 380.37 369.3 345.27 372.58 306.36 388.61 273.48 383.61 273.17 378.62 272.86 373.62 272.55 363.41 293.91 360.28 318.12 361.32 341.78 362.36 365.43 367.41 388.71 372.9 411.74 375.31 421.84 379.04 432.94 372.67 442.01 372.46 442.31 372.23 442.6 371.98 442.89 370.69 443.88 369.39 444.86 368.08 445.83 357.29 453.81 344.4 461.32 331.22 458.79 321.22 456.88 313.02 449.3 308.01 440.44 303 431.58 300.72 421.47 298.73 411.48 291.87 377.06 287.58 342.13 285.94 307.07 285.79 303.96 285.34 300.3 282.6 298.82 280.95 297.93 278.96 298.15 277.1 298.39 268.18 299.54 252.43 303.17 252.25 304.86 250.24 323.64 253.18 353.16 255.02 374.73 255.42 379.41 256.16 384.89 257.12 390.86 252.95 392.6 248.02 392.74 243.59 391.58 237.14 389.89 231.58 385.84 226.59 381.42 220.52 376.04 214.94 369.79 212.02 362.23 208.86 354.03 209.07 344.97 209.32 336.19 210.07 310.32 210.98 283.68 221.59 260.07 215.92 258.36 209.89 257.86 204.02 258.59 199.59 291.02 197.04 323.71 196.39 356.43 178.69 341.11 164.41 321.87 154.88 300.48 150.15 302.06 147.66 307.57 147.96 312.55 148.26 317.53 150.72 322.09 153.17 326.44 165.83 348.89 180.07 370.79 198.87 388.42 212.67 401.37 241.43 423.3 262.96 421.14 268.24 445.67 274.51 470.25 276.83 479.87 290.3 535.71 299.44 592.59 304.15 649.84 306.26 675.54 299.77 701.65 294.02 726.8 289.23 747.74 287.31 767.63 273.84 784.36 266.23 793.82 257.05 802.97 254.74 814.9 269.74 806.53 288.14 804.48 304.6 809.36 308.12 810.4 311.73 811.76 315.35 811.16 318.08 810.7 320.56 809.15 323.31 808.87 333.29 807.84 338.25 822.64 348.17 824.18 350.16 818.91 352.92 813.94 356.34 809.46 378.12 819.69 413.9 814.76 437.96 814.39 411.08 779.7 403.69 745.33 404.68 704.11 405.67 662.89 410.57 621.54 406.15 580.54 403.13 552.52 395.84 523.69 403.99 496.71 410.44 475.37 425.77 458.08 440.09 440.98 451.26 427.65 462.2 413.64 471.53 398.85 499.11 386.62 524.51 367.42 552.63 355.61 565.96 350.01 579.99 346.05 592.93 339.57 600.89 335.59 608.37 330.67 615.19 324.96 618.77 321.96 622.28 318.56 623.82 314.15 625.36 309.74 624.33 304.11 620.32 301.72Z" fill="#724C42"/><path d="M314.65 579.3C320.98 605.91 321.54 633.88 316.29 660.72 318.63 659.03 320.43 656.59 321.36 653.86 322.88 694.95 301.06 735.55 309.07 775.88 314.72 748.82 322.67 722.24 332.83 696.53 331.75 706.38 330.66 716.22 329.58 726.07 344.94 681.53 351.45 633.96 348.62 586.93 345.56 599.85 342.5 612.78 339.44 625.7 340.55 612.49 338.59 599.04 333.76 586.7 330.07 577.26 324.74 568.51 321.14 559.03 314.28 541 313.95 521.24 313.69 501.94 309.38 508.45 306.64 516 305.78 523.76 307.12 511.68 301.51 495.47 298.72 483.73 295.48 470.12 291.56 456.54 286.5 443.49 290.63 462.85 289.92 481.78 292.83 501.19 296.87 528.06 308.39 552.98 314.65 579.3Z" fill="#8E5E54"/><path d="M344.11 509.25C348.12 504.76 352.12 500.27 356.13 495.78 349.7 509.9 348.76 526.45 353.55 541.21 360.29 524.34 367.09 507.35 376.97 492.1 392.61 467.98 415.58 448.82 428.36 423.07 418.43 431.64 408.49 440.21 398.56 448.78 403.82 441.81 408.46 434.37 412.38 426.58 384.04 451.13 353.27 470.17 344.11 509.25Z" fill="#8E5E54"/><path d="M168.62 253.45C176.01 275.73 207.06 284.3 223.95 268.72 220.29 285.71 217.77 306.59 230.53 317.75 242.79 328.47 261.61 322.93 275.04 313.9 299.18 297.66 317.09 271.52 324.05 242.34 319.5 261.13 333.62 281.15 351.45 286.26 369.29 291.37 388.74 284.08 402.96 271.7 402.45 302.98 427.65 331.44 457.11 336.33 486.57 341.22 517.37 324.33 533.18 297.81 531.37 307 540.01 315.51 548.89 316.67 557.77 317.83 566.45 313.86 574.6 309.99 566.33 326.06 570.19 347.93 583.41 359.82 596.62 371.71 617.82 372.4 631.71 361.38 627.96 367.81 634.53 375.54 640.96 378.9 662.87 390.32 690.62 385.7 710.21 370.31 729.8 354.93 741.54 330.17 744.95 304.76 747.7 284.22 745.14 262.32 734.54 244.81 754.51 227.62 759.36 196.21 751.57 170.38 743.79 144.55 725.62 123.56 705.84 106.14 678.5 82.05 645.91 62.65 610.37 59.09 604.4 58.49 598.2 58.29 592.82 55.52 588.39 53.24 584.91 49.41 581.25 45.95 548.61 15.04 494.68 12.7 459.72 40.7 390.56-14.5 285.64-13.42 217.53 43.19 202.61 55.59 188.64 71.99 187.23 91.9 155.42 83.99 120.47 91.3 93.98 111.4 67.5 131.5 49.95 164.03 47.16 198.19 27.88 205.03 12.67 222.15 5.46 242.11-1.75 262.07-1.42 284.53 4.24 305.03 9.04 322.41 18.13 339.26 32.7 348.95 47.28 358.63 67.97 359.39 80.96 347.48 79.3 349 92.56 356.29 93.96 356.68 99.71 358.28 105.85 357.66 111.11 354.73 120.17 349.67 126.89 338.99 135.58 332.8 163.57 312.82 171.96 288.98 168.62 253.45Z" fill="#5C934E"/><g><path d="M127.99 157.49C127.04 156.78 126.07 156.1 125.06 155.46 126.01 156.19 127 156.86 127.99 157.49Z" fill="#578749"/><path d="M732.73 192.15C737.77 205.62 742.85 219.39 744.86 233.54 750.82 224.4 754.22 213.45 755.27 202.12 749.05 195.58 741.15 190.04 732.73 192.15Z" fill="#578749"/><path d="M745.47 304.76C747.29 291.19 746.77 277.04 743.16 263.94 739.55 276.21 732.16 287.18 720.96 293 713.34 296.96 699.79 293.65 702.33 285.44 684.97 293.18 665.95 301.08 647.53 296.41 629.11 291.73 615.17 267.84 627.14 253.08 617.2 257.36 604.59 254.27 597.76 245.88 590.93 237.49 590.45 224.52 596.65 215.65 584.99 233.59 558.84 240.22 540.04 230.01 537.8 228.8 535.59 227.29 534.37 225.06 531.78 220.35 534.44 214.63 536.71 209.76 549.83 181.56 549.17 147.33 534.96 119.66 520.75 91.99 493.32 71.51 462.76 65.74 462.33 55.13 459.08 44.91 453.79 35.8 441.04 26.54 404.56 41.17 390.08 35.5 406.67 51.16 440.48 50.56 443.11 73.26 443.81 79.28 443.88 85.63 441.26 91.09 435.02 104.06 417.65 105.93 403.25 106.02 426.12 113 446.52 130.23 453.65 153.05 460.78 175.87 452.32 203.67 431.71 215.79 411.1 227.91 380.2 219.68 371.11 197.56 364.18 224.17 334.22 242.41 307.4 236.35 297.58 249.6 286.33 263.8 270.19 267.17 254.05 270.54 234.37 254.87 240.86 239.71 227.49 251.72 204.31 241.98 196.5 225.79 188.69 209.6 191.53 190.53 194.54 172.81 196.94 158.66 199.35 144.51 201.75 130.36 193.26 159.61 153.35 173.67 127.98 157.51 146.17 171.1 152.93 197.21 147.15 219.39 141.07 242.72 123.43 261.7 103 274.5 89.49 282.96 66.76 286.08 61.88 270.9 67.94 289.6 54.23 312.08 34.83 315.26 23.62 317.09 12.17 312.21 4.45 303.98 4.54 304.33 4.63 304.69 4.72 305.04 9.52 322.42 18.6 339.27 33.18 348.96 47.76 358.64 68.45 359.4 81.44 347.49 79.78 349.01 93.04 356.3 94.44 356.69 100.19 358.29 106.33 357.67 111.59 354.74 120.65 349.68 127.37 339 136.06 332.81 164.06 312.85 172.45 289.01 169.11 253.48 176.5 275.76 207.55 284.33 224.44 268.75 220.78 285.74 218.26 306.62 231.02 317.78 243.28 328.5 262.1 322.96 275.53 313.93 299.67 297.69 317.58 271.55 324.54 242.37 319.99 261.16 334.11 281.18 351.94 286.29 369.78 291.4 389.23 284.11 403.45 271.73 402.94 303.01 428.14 331.47 457.6 336.36 487.06 341.25 517.86 324.36 533.67 297.84 531.86 307.03 540.5 315.54 549.38 316.7 558.26 317.86 566.94 313.89 575.09 310.02 566.82 326.09 570.68 347.96 583.9 359.85 597.11 371.74 618.31 372.43 632.2 361.41 628.45 367.84 635.02 375.57 641.45 378.93 663.36 390.35 691.11 385.73 710.7 370.34 730.31 354.93 742.06 330.17 745.47 304.76Z" fill="#578749"/></g><g><path d="M356.91 195.44C356.05 204.01 352.28 212.26 346.37 218.52 343.58 221.47 322.54 236.11 321.73 228.04 321.4 224.74 325.75 217.42 327.28 214.63 329.98 209.73 334.09 205.77 338.76 202.76 344.27 199.19 350.55 196.88 356.91 195.44Z" fill="#44703A"/><path d="M252.12 226.43C266.86 235.9 284.38 240.97 301.9 240.86 304.83 240.84 308.25 240.4 309.74 237.88 315.63 227.87 292.4 223.27 287.21 222.64 281.36 221.93 275.42 222.11 269.58 222.83 266.62 223.19 263.68 223.7 260.76 224.31 259.5 224.58 253.04 227.02 252.12 226.43Z" fill="#44703A"/><path d="M298.08 221.64C293.3 224.94 291.03 230.93 290.57 236.72 289.27 252.93 301.55 269.04 317.47 272.38 333.39 275.71 350.94 266.1 356.99 251 360.36 242.59 360.12 232.24 354.36 225.24 351.24 221.45 346.33 219.15 341.45 218.93 336.09 218.69 332.43 222.41 327.38 222.81 317.12 223.63 308.52 214.43 298.08 221.64Z" fill="#E86752"/><path d="M305.01 226.84C301.68 228.31 298.91 231.23 298.09 234.77 297.27 238.31 298.64 242.39 301.71 244.34 302.75 245.01 304.09 245.42 305.23 244.93 305.95 244.62 306.47 244 306.95 243.38 309.34 240.29 311.39 236.65 314.91 234.97 317.09 233.93 320.06 233.36 320.64 231.02 320.99 229.63 320.21 228.14 319.07 227.28 315.51 224.57 308.81 225.17 305.01 226.84Z" fill="#FFFFFF" opacity="0.38"/></g><g><path d="M400.52 43.71C399.66 52.28 395.89 60.52 389.98 66.79 387.19 69.74 366.15 84.38 365.34 76.31 365.01 73.01 369.36 65.69 370.89 62.9 373.59 58 377.7 54.04 382.37 51.03 387.87 47.46 394.15 45.15 400.52 43.71Z" fill="#44703A"/><path d="M295.73 74.7C310.47 84.17 327.99 89.24 345.51 89.13 348.44 89.11 351.86 88.67 353.35 86.15 359.24 76.14 336.01 71.54 330.82 70.91 324.97 70.2 319.03 70.38 313.19 71.1 310.23 71.46 307.29 71.97 304.37 72.58 303.11 72.85 296.65 75.29 295.73 74.7Z" fill="#44703A"/><path d="M341.68 69.91C336.9 73.21 334.63 79.2 334.17 84.99 332.87 101.2 345.15 117.31 361.07 120.65 376.99 123.98 394.54 114.37 400.59 99.27 403.96 90.86 403.72 80.51 397.96 73.51 394.84 69.72 389.93 67.42 385.05 67.2 379.69 66.96 376.03 70.68 370.98 71.08 360.72 71.9 352.12 62.7 341.68 69.91Z" fill="#E86752"/><path d="M348.61 75.12C345.28 76.59 342.51 79.51 341.69 83.05 340.87 86.59 342.24 90.67 345.31 92.62 346.35 93.29 347.69 93.7 348.83 93.21 349.55 92.9 350.07 92.27 350.55 91.66 352.94 88.57 354.99 84.93 358.51 83.25 360.69 82.21 363.66 81.64 364.24 79.3 364.59 77.91 363.81 76.42 362.67 75.56 359.11 72.84 352.42 73.44 348.61 75.12Z" fill="#FFFFFF" opacity="0.38"/></g><g><path d="M619.56 76.73C621.05 85.21 619.65 94.17 615.65 101.8 613.77 105.4 597.46 125.18 594.5 117.63 593.29 114.54 595.5 106.32 596.22 103.22 597.49 97.77 600.38 92.85 604.07 88.68 608.4 83.76 613.82 79.84 619.56 76.73Z" fill="#44703A"/><path d="M527.05 134.89C543.8 140.02 562.04 140.17 578.88 135.33 581.7 134.52 584.87 133.17 585.62 130.34 588.58 119.11 564.97 120.96 559.81 121.75 553.98 122.65 548.32 124.43 542.89 126.7 540.14 127.85 537.45 129.13 534.8 130.51 533.65 131.11 528.09 135.21 527.05 134.89Z" fill="#44703A"/><path d="M569.99 117.86C566.28 122.33 565.72 128.71 566.84 134.41 569.97 150.37 586.15 162.56 602.38 161.47 618.61 160.38 632.91 146.38 634.65 130.21 635.62 121.21 632.59 111.3 625.16 106.12 621.14 103.31 615.79 102.43 611.03 103.53 605.8 104.74 603.29 109.32 598.54 111.07 588.87 114.63 578.1 108.09 569.99 117.86Z" fill="#E86752"/><path d="M578.07 121C575.26 123.31 573.39 126.87 573.55 130.5 573.72 134.13 576.14 137.68 579.62 138.74 580.8 139.1 582.2 139.14 583.16 138.35 583.77 137.86 584.1 137.11 584.4 136.39 585.86 132.77 586.85 128.71 589.79 126.14 591.61 124.55 594.31 123.2 594.24 120.79 594.2 119.36 593.05 118.14 591.72 117.61 587.57 115.96 581.28 118.35 578.07 121Z" fill="#FFFFFF" opacity="0.38"/></g><g><path d="M655.07 273.83C651.25 281.55 644.82 287.94 637.09 291.72 633.44 293.5 608.59 299.8 610.67 291.96 611.52 288.75 618.17 283.43 620.58 281.36 624.83 277.72 630.07 275.47 635.51 274.28 641.92 272.9 648.6 272.95 655.07 273.83Z" fill="#44703A"/><path d="M546.08 265.98C556.55 280.03 571.17 290.95 587.6 297 590.35 298.01 593.71 298.81 595.99 296.96 605.02 289.66 584.9 277.18 580.27 274.77 575.04 272.05 569.42 270.13 563.7 268.75 560.8 268.05 557.87 267.49 554.93 267.04 553.64 266.84 546.73 266.86 546.08 265.98Z" fill="#44703A"/><path d="M590.78 277.66C585.15 279.07 580.91 283.88 578.45 289.14 571.53 303.86 577.36 323.26 591.09 331.98 604.82 340.7 624.63 337.88 635.61 325.87 641.72 319.18 645.13 309.41 642.21 300.84 640.63 296.19 636.84 292.32 632.35 290.39 627.42 288.28 622.68 290.47 617.82 289.07 607.9 286.23 603.09 274.59 590.78 277.66Z" fill="#E86752"/><path d="M595.44 284.97C591.81 285.17 588.19 286.93 586.18 289.96 584.16 292.99 584.02 297.28 586.2 300.2 586.94 301.19 588.05 302.05 589.28 301.99 590.06 301.95 590.77 301.55 591.44 301.14 594.76 299.09 597.96 296.4 601.85 296.07 604.26 295.86 607.23 296.38 608.61 294.39 609.42 293.21 609.22 291.55 608.46 290.33 606.07 286.54 599.59 284.74 595.44 284.97Z" fill="#FFFFFF" opacity="0.38"/></g><g><path d="M733.2 164.2C732.53 172.78 728.95 181.12 723.19 187.51 720.47 190.53 699.76 205.64 698.77 197.59 698.36 194.3 702.54 186.88 704.01 184.06 706.6 179.1 710.62 175.05 715.22 171.93 720.65 168.24 726.87 165.79 733.2 164.2Z" fill="#44703A"/><path d="M629.15 197.57C644.1 206.7 661.74 211.38 679.25 210.87 682.18 210.78 685.59 210.27 687.02 207.71 692.68 197.57 669.35 193.5 664.15 192.99 658.28 192.41 652.35 192.73 646.53 193.58 643.58 194.01 640.65 194.59 637.75 195.26 636.48 195.55 630.08 198.14 629.15 197.57Z" fill="#44703A"/><path d="M674.98 191.74C670.28 195.15 668.15 201.19 667.82 206.99 666.89 223.23 679.53 239.05 695.53 242.03 711.52 245 728.85 234.99 734.56 219.76 737.74 211.28 737.26 200.93 731.35 194.07 728.15 190.35 723.19 188.17 718.3 188.05 712.94 187.93 709.36 191.73 704.32 192.25 694.06 193.3 685.25 184.29 674.98 191.74Z" fill="#E86752"/><path d="M682.03 196.78C678.74 198.32 676.04 201.3 675.3 204.86 674.56 208.42 676.03 212.46 679.14 214.35 680.2 214.99 681.54 215.38 682.67 214.86 683.38 214.53 683.89 213.9 684.35 213.27 686.67 210.13 688.63 206.44 692.12 204.68 694.28 203.59 697.23 202.95 697.76 200.6 698.08 199.2 697.27 197.73 696.11 196.89 692.47 194.27 685.79 195.02 682.03 196.78Z" fill="#FFFFFF" opacity="0.38"/></g><path d="M263.75 126.06C272.48 116.83 285.04 111.35 297.75 111.24 296.35 123.42 290.38 135.02 281.29 143.23 286.76 139.34 293.52 137.3 300.23 137.53 294.49 141.3 290.96 147.53 286.88 153.06 281.18 160.77 274.05 167.42 265.97 172.57 267.86 167.3 269.75 162.03 271.64 156.76 262.01 165.31 254.71 176.46 250.73 188.7 252.28 183.94 250.18 175.38 250.62 170.13 251.03 165.2 250.67 160.58 250.92 155.71 251.46 144.8 256.28 133.97 263.75 126.06Z" fill="#6CA85B"/><path d="M514.07 67.57C513.08 57.87 516.05 48.26 518.98 38.96 521.36 46.34 523.74 53.72 526.11 61.1 530.61 55.64 536.99 51.77 543.91 50.28 540.01 57.37 536.12 64.46 532.22 71.55 540.49 67.75 550.12 69.37 559.06 71.06 557.53 70.77 549.04 77.01 546.82 77.79 542.14 79.43 537.17 80.28 532.21 80.26 522.26 80.24 515.25 79.02 514.07 67.57Z" fill="#6CA85B"/><path d="M506.98 230.24C516.47 232.03 526.37 229.74 535.09 225.6 543.82 221.46 551.56 215.54 559.23 209.68 553.09 223.05 554.47 239.59 562.76 251.75 570.08 236.8 577.59 220.19 573.31 204.1 576.47 205.4 579.63 206.69 582.79 207.99 583.16 208.14 580.48 200.09 579.36 198.98 575.98 195.63 571.53 194.98 566.99 195.41 560.08 196.06 552.44 199.05 545.64 200.65 529.12 204.52 514.44 214.66 506.98 230.24Z" fill="#6CA85B"/><path d="M679.53 134.9C687.85 131.6 697.72 131.45 705.45 135.96 697.3 139.42 693.29 148.45 687.02 154.7 682.26 159.46 675.98 162.68 669.33 163.76 660.14 165.26 647.89 169.49 654.69 156.97 659.87 147.46 669.47 138.89 679.53 134.9Z" fill="#6CA85B"/><path d="M278.98 74.84C275.82 68.88 271.65 63.46 266.69 58.87 272.62 58.51 278.66 60.35 283.39 63.95 282.67 56.74 277.76 50.47 271.78 46.38 265.8 42.28 258.79 40.02 251.88 37.81 254.3 44.03 257.36 50 260.99 55.59 254.79 46.03 231.33 42.8 245.62 57.87 254.37 67.07 266.87 71.96 278.98 74.84Z" fill="#6CA85B"/><path d="M431.53 239.16C429.55 246.84 430.6 254.94 431.86 262.76 432.4 266.12 433.14 269.76 435.72 271.98 438.69 261.29 448.48 253.34 450.73 242.48 461 247.39 469.84 255.26 475.9 264.89 479.73 257.03 479.95 247.5 476.48 239.48 474.43 234.73 471 230.41 466.36 228.13 461.63 225.81 456.27 226.15 451.75 228.71 447.7 213.91 433.24 232.55 431.53 239.16Z" fill="#6CA85B"/></svg>