<svg width="74.04" height="71.52" viewBox="0 0 74.04 71.52" xmlns="http://www.w3.org/2000/svg" xmlns:xlink="http://www.w3.org/1999/xlink" xml:space="preserve" overflow="hidden"><defs></defs><path d="M2.84 0C5.29 0 10.38 2.45 11.61 2.45 30.24 2.47 43.87 5.32 62.45 5.32 63.67 5.32 68.77 2.87 71.21 2.87 73.65 2.87 74.67 4.5 73.65 10 72.63 15.5 70.59 57.69 71.41 60.95 72.22 64.21 75.28 70.94 72.43 71.34 68.5 71.9 64.01 70.94 60.1 70.56 43.34 68.95 30.72 66.08 13.96 67.69 10.05 68.06 5.56 69.03 1.63 68.47-1.22 68.06 1.83 61.34 2.65 58.08 3.46 54.82 1.43 12.63 0.41 7.13-0.63 1.63 0.39 0 2.84 0Z" fill="#8A252F"/></svg>