<svg width="52.61" height="59" viewBox="0 0 52.61 59" xmlns="http://www.w3.org/2000/svg" xmlns:xlink="http://www.w3.org/1999/xlink" xml:space="preserve" overflow="hidden"><defs></defs><g><path d="M40.3 43.3 43.66 50.9C43.66 50.9 41.66 56.6 35.63 55.07L32.1 49.3 40.3 43.3Z" fill="#F9B799"/><path d="M43.66 50.9C43.66 50.9 41.66 56.6 35.63 55.07L35.43 54.74C43.31 54.65 40.43 46.43 39.44 47.1 38.64 47.64 34.88 49.85 33.07 50.91L32.09 49.31 40.29 43.31 43.66 50.9Z" fill="#FCE8D9" opacity="0.5"/></g><g><linearGradient x1="58.9421" y1="-640.283" x2="57.2178" y2="-633.564" gradientUnits="userSpaceOnUse" id="SVGID_1_" gradientTransform="matrix(0.9843 -0.1761 0.1761 0.9843 67.6734 685.508)"><stop offset="0.2206" stop-color="#FCE8D9"/><stop offset="1" stop-color="#F4C7BD"/></linearGradient><path d="M13.72 50.23C14.4 51.66 15.22 53.02 16.27 54.23 18.76 57.12 22.36 58.84 26 58.99 30.35 59.18 33.29 57.19 36.33 54.59 37.65 53.46 38.93 52.3 40.15 51.06 42.55 48.62 44.68 45.87 46.05 42.67 47.79 38.61 48.62 33.15 47.04 28.66 45.25 23.59 41.68 19.17 37.57 15.67 34.21 12.81 27.92 11.71 23.85 12.06 17.38 12.62 12.33 16.7 10.05 22.63 7.36 29.61 9.26 36.02 11.28 43.22 11.95 45.57 12.66 47.99 13.72 50.23Z" fill="#F9B799"/><g><path d="M22.33 40.12C22.53 40.28 22.95 40.09 23.27 39.69 23.59 39.29 23.69 38.83 23.49 38.66 23.29 38.5 22.87 38.69 22.55 39.09 22.24 39.49 22.14 39.95 22.33 40.12Z" fill="#F4C7BD"/><path d="M20.51 42.91C20.71 43.07 21.13 42.88 21.45 42.48 21.77 42.08 21.87 41.62 21.67 41.45 21.47 41.28 21.05 41.48 20.73 41.88 20.41 42.29 20.31 42.75 20.51 42.91Z" fill="#F4C7BD"/><path d="M22.83 42.31C23.03 42.47 23.45 42.28 23.77 41.88 24.09 41.48 24.19 41.02 23.99 40.85 23.79 40.69 23.37 40.88 23.05 41.28 22.74 41.69 22.64 42.15 22.83 42.31Z" fill="#F4C7BD"/></g><g><path d="M27.32 49.02C26.18 49.36 25.1 49.89 24.19 50.65 23.25 51.37 22.5 52.31 21.88 53.33L21.73 53.25C21.48 52.43 21.59 51.68 21.86 51.02 22.13 50.36 22.57 49.77 23.13 49.33 23.68 48.88 24.36 48.59 25.07 48.47 25.78 48.35 26.55 48.42 27.28 48.86L27.32 49.02Z" fill="#E08D80"/></g><path d="M11.39 48.6C11.08 49.18 10.59 49.82 10.87 50.47 11.02 50.82 11.37 51.06 11.72 51.15 12.08 51.25 12.45 51.22 12.8 51.17 13.23 51.1 13.68 50.99 13.98 50.68 14.46 50.2 14.46 49.39 14.28 48.69 13.97 47.51 13.15 46.2 12.04 45.6 11.78 46.6 11.88 47.69 11.39 48.6Z" fill="url(#SVGID_1_)"/><g><path d="M20.77 37.69C20.22 37.87 19.45 39.78 19.17 40.3 18.84 40.91 18.55 41.54 18.3 42.2 18.25 42.33 17.69 43.96 17.74 43.97 16.81 43.74 16.05 43.19 15.37 42.51 14.97 42.11 14.61 41.68 14.28 41.23 14.2 41.12 13.43 39.88 13.45 39.88 14.64 39.51 15.62 39.44 16.83 39.11 17.95 38.8 19.81 38.31 20.77 37.69Z" fill="#FFFFFF"/><g><defs><path d="M21.44 38.43C20.89 38.61 20.12 40.52 19.84 41.04 19.51 41.65 19.22 42.28 18.97 42.94 18.92 43.07 18.36 44.7 18.41 44.71 17.48 44.48 16.72 43.93 16.04 43.25 15.64 42.85 15.28 42.42 14.95 41.97 14.87 41.86 14.1 40.62 14.12 40.62 15.31 40.25 16.29 40.18 17.5 39.85 18.63 39.53 20.49 39.05 21.44 38.43Z" id="SVGID_2_"/></defs><clipPath id="SVGID_3_"><use width="100%" height="100%" xlink:href="#SVGID_2_" overflow="visible"></use></clipPath><g clip-path="url(#SVGID_3_)"><path d="M15.43 44.49C13.9 44.05 12.91 42.46 13.22 40.94 13.53 39.43 15.03 38.56 16.57 39 18.1 39.44 19.09 41.03 18.78 42.55 18.47 44.07 16.97 44.94 15.43 44.49Z" fill="#8C7257"/><path d="M15.29 42.85C14.74 42.69 14.38 42.12 14.49 41.57 14.6 41.02 15.14 40.71 15.7 40.87 16.25 41.03 16.61 41.6 16.5 42.15 16.38 42.7 15.84 43.01 15.29 42.85Z" fill="#3A3129"/><path d="M16.39 40.41C16.53 40.27 16.67 40.13 16.85 40.03 17.11 39.9 17.3 39.93 17.53 40.13 17.6 40.19 17.66 40.24 17.72 40.31 17.96 40.58 18.17 41.17 18.08 41.51 18.03 41.71 17.77 41.76 17.56 41.76 17.06 41.78 15.99 41.92 15.52 41.65 15.17 41.45 15.42 41.37 15.67 41.12 15.92 40.89 16.15 40.65 16.39 40.41Z" fill="#FFFFFF" opacity="0.2"/><path d="M17.87 42.49C17.89 42.49 17.92 42.5 17.93 42.51 17.97 42.54 17.96 42.59 17.95 42.63 17.92 42.77 17.86 42.9 17.78 43.01 17.69 43.12 17.56 43.19 17.42 43.2 17.29 43.2 17.15 43.14 17.03 43.08 16.89 43 15.92 42.4 16.33 42.3 16.53 42.25 16.88 42.37 17.09 42.4 17.36 42.43 17.61 42.46 17.87 42.49Z" fill="#FFFFFF" opacity="0.2"/></g></g><g><path d="M12.63 40.11C13.23 39.61 13.9 39.31 14.57 39.06 15.24 38.79 15.94 38.7 16.63 38.6 17.34 38.49 18.03 38.37 18.71 38.22 19.4 38.08 20.08 37.92 20.73 37.64L20.8 37.74C20.24 38.22 19.57 38.54 18.92 38.84 18.26 39.13 17.58 39.37 16.91 39.64 16.23 39.91 15.55 40.13 14.84 40.19 14.13 40.27 13.42 40.3 12.66 40.22L12.63 40.11Z" fill="#5E5149"/></g></g><path d="M19.55 1.8C16.04 2.98 12.69 4.6 9.73 6.79 5.8 9.7 2.58 13.69 1.04 18.35 0.07 21.29-0.23 24.51 0.2 27.69 0.66 31.06 2.49 33.96 5.46 35.97 7.79 37.55 10.75 38.23 13.26 37.43 12.07 36.6 10.96 35.63 9.98 34.55 11.15 35.83 14.44 35.88 15.96 35.93 18.31 36.01 20.64 35.66 22.85 35.04 24.04 34.7 25.29 34.29 26.5 34.6 27.43 34.84 28.21 35.48 28.84 36.21 30.01 37.58 30.74 39.44 30.34 41.18 31.37 38.68 31.34 35.74 30.25 33.23 31.67 35.12 32.43 37.5 32.36 39.84 33.21 39.03 33.09 37.65 32.9 36.47 32.71 35.25 32.51 34.03 32.32 32.81 32.26 32.44 32.21 32.05 32.35 31.71 32.47 31.43 32.7 31.21 32.95 31.03 34.39 29.92 36.41 29.43 38.09 30.18 40.03 31.04 41.01 33.21 42.5 34.73 44.99 37.27 49.22 37.86 52.23 36.08 51.34 35.53 50.54 34.83 49.86 34.03 51.33 33.92 51.68 32.67 51.89 31.38 52.53 27.4 53.16 23.19 51.73 19.38 50.85 17.04 49.26 15.04 47.61 13.16 45.8 11.09 43.64 8.98 40.93 8.7 38.45 4.09 33.86 0.29 28.67 0.03 26.76-0.06 24.87 0.31 23.03 0.78 21.86 1.07 20.7 1.41 19.55 1.8Z" fill="#111010"/><path d="M30.34 41.17C30.74 39.44 30.01 37.57 28.84 36.2 28.21 35.47 27.43 34.83 26.5 34.59 25.29 34.28 24.04 34.7 22.85 35.03 20.64 35.65 18.31 36 15.96 35.92 14.44 35.87 11.15 35.82 9.98 34.54 13.53 35.11 17.27 34.93 20.54 33.8 22.19 33.23 23.86 32.44 25.65 32.71 27.38 32.98 28.95 34.26 29.79 35.86 30.64 37.46 30.65 39.48 30.34 41.17Z" opacity="0.15"/><path d="M37.53 36.93C39.17 36.29 40.4 34.82 40.76 33.06 41.12 31.31 40.59 29.33 39.38 27.87 39.33 27.82 39.28 27.76 39.22 27.74 39.13 27.71 39.04 27.75 38.96 27.8 38.46 28.07 37.96 28.34 37.46 28.62L37.53 36.93Z" opacity="0.15"/><path d="M7.98 10.6C5.37 12.97 3.08 15.88 2.35 19.43 1.62 22.98 2.78 27.24 5.84 29.52 5.14 27.85 4.82 26.04 4.93 24.29 7.68 26.57 11.31 27.69 14.67 27.27 17.83 26.88 20.82 25.2 24.03 25.83 23.31 24.71 22.44 23.69 21.44 22.81 22.99 22.1 24.83 21.95 26.56 22.4 25.06 17.98 25.33 13.11 27.28 9.17 27.78 8.17 28.39 7.21 29.25 6.51 30.64 5.39 32.57 5.05 34.43 5.27 33.11 3.87 31.28 3.07 29.45 2.71 21.54 1.14 13.37 5.7 7.98 10.6Z" fill="#FFFFFF" opacity="0.1"/></g></svg>