<svg width="90.44" height="262.91" viewBox="0 0 90.44 262.91" xmlns="http://www.w3.org/2000/svg" xmlns:xlink="http://www.w3.org/1999/xlink" xml:space="preserve" overflow="hidden"><defs></defs><g><g><g><path d="M57.31 64.26C64.95 61.79 71.93 54.73 75.42 47.66 80.57 37.47 83.77 21.42 78.45 11.07 72.14-0.77 54.09-2.18 42.26 2.47 31.92 6.54 31.64 17.04 31.64 25.43 31.64 31.68 33.72 33.69 34.55 39.77L57.31 64.26Z" fill="#605654"/><path d="M70.11 41.71C70.07 41.67 70.05 41.62 70.01 41.57 70.04 41.06 70.07 40.55 70.11 40.05 70.21 38.54 70.79 26.9 71.08 22.61 71.25 20.12 72.06 17.15 70.81 14.83 69.47 12.35 65.7 14.71 63.69 15.42 56.52 17.96 48.34 17.47 41.11 15.42 39.22 14.88 37.12 14.08 35.22 15.13 33.67 15.99 32.83 17.58 32.42 19.25 31.83 19.46 31.65 20.21 31.62 22.22 31.58 25.35 31.78 28.45 31.91 31.6 32.11 36.36 31.75 40.61 31.67 47.77 31.61 53.04 33.06 58.34 36.14 61.36 39.18 64.34 41.82 64.86 46.34 65.63 46.32 66.87 46.56 71.72 46.55 72.2 46.52 74.31 42.93 75.03 39.57 77.01 42.77 79.24 42.84 80.92 45.95 81.08L48.32 80.98C51.64 82.9 54.63 81.15 56.7 79.12 59.72 78.43 62.14 77.06 64.34 75.4 61.08 74.62 59.33 73.98 58.36 72.73 57.88 70.23 58.28 67.02 58.25 65.11 62.26 62.81 66.31 60.59 67.86 56.01 68.16 55.13 68.4 54.23 68.61 53.31 69.25 52.38 69.68 51.9 71.79 51.53 74.97 50.93 77.83 49.57 78.9 46.02 81.21 38.32 74.05 35.42 70.11 41.71Z" fill="#F9DBCD"/></g><g><g><g><g><path d="M64.88 26.34C63.8 22.91 60.02 21 56.59 22.07L64.88 26.34Z"/></g></g></g><g><g><g><path d="M41.8 22.71C39.22 21.9 36.27 23.18 35.47 26.23L41.8 22.71Z"/></g></g></g><g><g><g><path d="M55.6 52.68C55.6 52.68 55.45 52.85 55.16 53.14 54.88 53.41 54.43 53.82 53.84 54.18 53.27 54.58 52.53 54.95 51.71 55.27 51.29 55.4 50.86 55.59 50.4 55.67 49.95 55.78 49.48 55.85 49 55.91 48.51 55.93 48.03 55.96 47.55 55.92 47.07 55.91 46.6 55.8 46.16 55.69 45.27 55.43 44.47 55.03 43.94 54.51 43.65 54.28 43.44 54.02 43.27 53.78 43.08 53.55 42.96 53.33 42.88 53.14 42.7 52.76 42.63 52.55 42.63 52.55L55.6 52.68Z" fill="#8E3030"/></g></g></g><g><g><g><path d="M41.64 39.31C41.64 40.17 40.95 40.86 40.09 40.86 39.24 40.86 38.54 40.17 38.54 39.31 38.54 38.46 39.23 37.77 40.09 37.77 40.95 37.77 41.64 38.46 41.64 39.31Z"/></g></g></g><g><g><g><path d="M59.01 39.31C59.01 40.17 58.32 40.86 57.46 40.86 56.6 40.86 55.92 40.17 55.92 39.31 55.92 38.46 56.6 37.77 57.46 37.77 58.32 37.77 59.01 38.46 59.01 39.31Z"/></g></g></g><path d="M46.82 32.86C47.22 34.55 47.02 36.3 46.82 37.99 46.6 39.69 46.26 41.37 45.79 43.03 45.67 43.44 45.53 43.86 45.37 44.27 45.23 44.67 44.97 45.16 44.79 45.46 44.61 45.8 44.55 46.05 44.64 46.31 44.74 46.58 44.99 46.82 45.31 47.03 45.95 47.44 46.75 47.66 47.56 47.68 48.37 47.72 49.2 47.53 49.89 47.02 49.35 47.71 48.46 48.05 47.58 48.17 46.69 48.27 45.76 48.14 44.92 47.7 44.52 47.49 44.06 47.17 43.83 46.64 43.57 46.1 43.73 45.44 43.94 45.04 44.17 44.59 44.31 44.33 44.45 43.93 44.59 43.55 44.71 43.15 44.82 42.75 45.3 41.15 45.67 39.5 46.05 37.86 46.23 37.04 46.4 36.21 46.55 35.38 46.71 34.55 46.84 33.72 46.82 32.86Z" fill="#E8A07D"/></g></g><g><path d="M71.69 131.26C68.57 125.41 69.35 116.85 63.7 112.39 61.46 110.62 57.83 110.91 55.15 110.96 51.16 111.05 47.17 111.5 43.18 111.37 35.27 111.11 34.27 126.47 31.72 131.26 25.18 143.51 13.89 174.32 25.44 173.52 33.19 172.99 40.64 172.96 48.38 172.96L48.39 173.03C49.68 172.99 50.85 172.96 51.82 172.96 60.74 172.96 69.15 172.91 77.96 173.52 89.51 174.32 78.22 143.51 71.69 131.26Z" fill="#3D3936"/></g><g><path d="" fill="#E094B3"/></g><g><g><path d="M32.88 245.02C32.88 245.02 19.47 164.51 27.85 155.64 30.58 152.75 35.75 149.58 39.97 150.79 42.41 151.49 44.21 154.13 45.29 156.38 48.99 164.11 48.19 174.56 47.84 182.8L45.08 244.28C45.08 244.27 34.84 246.87 32.88 245.02Z" fill="#4C4844"/></g><g><path d="M37.83 259.62C41.33 259.17 43.77 258.38 45.43 257.47L45.34 259.17C45.34 259.17 37.96 261.67 28.07 262.55 19.18 263.35 17.21 262.91 18.71 260.87 23.37 262.96 34.06 260.13 37.83 259.62Z" fill="#805640"/><g><path d="M22.42 257.57C21.08 258.56 19.96 259.46 19.34 260.12 19.09 260.39 18.89 260.63 18.71 260.86 20.97 261.88 24.65 261.73 28.27 261.26 26.63 259.5 24.43 257.95 22.42 257.57Z" fill="#DEB255"/><path d="M45.76 251.14 45.34 251.11C43.46 252.78 41.13 255.96 40.78 259.09 42.75 258.65 44.29 258.09 45.43 257.46L45.76 251.14Z" fill="#DEB255"/><path d="M32.83 250.86C32.97 250.06 32.89 247.23 32.89 245.02L32.74 250.69C32.74 250.69 28.66 253.22 24.92 255.8L25.17 256.02C27.45 255.88 32.83 250.86 32.83 250.86Z" fill="#C69A46"/><path d="M38.07 252.84C38.22 252.62 38.33 247.96 38.52 244.4 34.54 244.67 32.9 244.27 32.9 244.27L32.88 245.02C32.88 247.23 32.96 250.06 32.82 250.86 32.82 250.86 27.45 255.88 25.16 256.02L24.91 255.8C24.04 256.4 23.19 257 22.42 257.57 24.43 257.95 26.63 259.51 28.27 261.26 29.19 261.14 30.1 261 30.99 260.85 30.9 260.01 30.79 259.08 31.07 258.37 32.09 255.79 36.47 255.23 38.07 252.84Z" fill="#B68939"/><path d="M45.34 251.11 45.76 251.14 46.17 243.4C42.99 243.98 40.48 244.27 38.52 244.4 38.33 247.96 38.22 252.62 38.07 252.84 36.47 255.23 32.09 255.79 31.07 258.38 30.79 259.09 30.91 260.02 30.99 260.86 33.81 260.38 36.35 259.83 37.83 259.63 38.92 259.49 39.88 259.3 40.78 259.1 41.13 255.96 43.46 252.78 45.34 251.11Z" fill="#C69A46"/></g><g><path d="M38.15 247.52C36.5 247.06 34.73 247.33 33.11 246.73 32.69 246.58 33 245.96 33.41 246.11 34.97 246.68 36.7 246.39 38.28 246.84 38.71 246.96 38.58 247.64 38.15 247.52L38.15 247.52Z" fill="#DEB255"/></g><g><path d="M37.69 250.5C35.99 250.02 34.22 249.91 32.47 249.71 32.03 249.66 32.16 248.99 32.6 249.03 34.34 249.22 36.12 249.35 37.82 249.82 38.24 249.94 38.11 250.62 37.69 250.5L37.69 250.5Z" fill="#DEB255"/></g><g><path d="M36.74 253.77C35.17 252.95 33.38 252.85 31.69 252.4 31.26 252.29 31.39 251.61 31.82 251.73 33.57 252.19 35.41 252.3 37.03 253.16 37.43 253.36 37.13 253.98 36.74 253.77L36.74 253.77Z" fill="#DEB255"/></g><g><path d="M33.31 255.6C31.5 255.3 29.71 254.95 27.94 254.46 27.52 254.34 27.65 253.67 28.07 253.79 29.84 254.29 31.63 254.63 33.44 254.93 33.89 255 33.75 255.67 33.31 255.6L33.31 255.6Z" fill="#DEB255"/></g></g></g><g><g><path d="M73.03 245.02C73.03 245.02 86.89 164.5 78.5 155.64 75.59 152.56 71.76 149.79 67.39 151.2 63.54 152.44 60.89 155.99 59.9 159.78 57.96 167.17 58.2 175.23 58.52 182.79L59.74 243.4C59.74 243.4 71.07 246.87 73.03 245.02Z" fill="#4C4844"/></g><g><path d="M68.07 259.62C64.57 259.17 62.13 258.38 60.48 257.47L60.57 259.17C60.57 259.17 67.95 261.67 77.84 262.55 86.73 263.35 88.7 262.91 87.2 260.87 82.54 262.96 71.85 260.13 68.07 259.62Z" fill="#805640"/><g><path d="M83.49 257.57C84.83 258.56 85.95 259.46 86.57 260.12 86.82 260.39 87.02 260.63 87.19 260.86 84.93 261.88 81.25 261.73 77.63 261.26 79.28 259.5 81.48 257.95 83.49 257.57Z" fill="#DEB255"/><path d="M60.15 251.14 60.57 251.11C62.45 252.78 64.78 255.96 65.13 259.09 63.16 258.65 61.62 258.09 60.48 257.46L60.15 251.14Z" fill="#DEB255"/><path d="M73.08 250.86C72.94 250.06 73.02 247.23 73.02 245.02L73.17 250.69C73.17 250.69 77.25 253.22 80.99 255.8L80.74 256.02C78.45 255.88 73.08 250.86 73.08 250.86Z" fill="#C69A46"/><path d="M67.84 252.84C67.69 252.62 67.58 247.96 67.39 244.4 71.37 244.67 73.01 244.27 73.01 244.27L73.03 245.02C73.03 247.23 72.95 250.06 73.09 250.86 73.09 250.86 78.46 255.88 80.75 256.02L81 255.8C81.87 256.4 82.72 257 83.49 257.57 81.48 257.95 79.28 259.51 77.64 261.26 76.72 261.14 75.81 261 74.92 260.85 75.01 260.01 75.12 259.08 74.84 258.37 73.82 255.79 69.44 255.23 67.84 252.84Z" fill="#B68939"/><path d="M60.57 251.11 60.15 251.14 59.74 243.4C62.92 243.98 65.43 244.27 67.39 244.4 67.58 247.96 67.69 252.62 67.84 252.84 69.44 255.23 73.82 255.79 74.84 258.38 75.12 259.09 75 260.02 74.92 260.86 72.1 260.38 69.56 259.83 68.08 259.63 66.99 259.49 66.03 259.3 65.13 259.1 64.78 255.96 62.45 252.78 60.57 251.11Z" fill="#C69A46"/></g><g><path d="M67.76 247.52C69.41 247.06 71.18 247.33 72.8 246.73 73.22 246.58 72.91 245.96 72.5 246.11 70.94 246.68 69.21 246.39 67.63 246.84 67.2 246.96 67.33 247.64 67.76 247.52L67.76 247.52Z" fill="#DEB255"/></g><g><path d="M68.22 250.5C69.92 250.02 71.69 249.91 73.44 249.71 73.88 249.66 73.75 248.99 73.31 249.03 71.57 249.22 69.79 249.35 68.09 249.82 67.67 249.94 67.8 250.62 68.22 250.5L68.22 250.5Z" fill="#DEB255"/></g><g><path d="M69.17 253.77C70.74 252.95 72.53 252.85 74.22 252.4 74.65 252.29 74.52 251.61 74.09 251.73 72.34 252.19 70.5 252.3 68.88 253.16 68.48 253.36 68.78 253.98 69.17 253.77L69.17 253.77Z" fill="#DEB255"/></g><g><path d="M72.59 255.6C74.4 255.3 76.19 254.95 77.96 254.46 78.38 254.34 78.25 253.67 77.83 253.79 76.06 254.29 74.27 254.63 72.46 254.93 72.02 255 72.16 255.67 72.59 255.6L72.59 255.6Z" fill="#DEB255"/></g></g></g><g><g><path d="M74.19 83.81C74.19 83.81 91.12 120.58 87.7 127.76 84.28 134.94 86.39 132.65 81.4 131.26 76.4 129.87 66 89.48 66 89.48L74.19 83.81Z" fill="#F9DBCD"/><g><g><path d="M15.32 121.36C20.25 125.37 26.67 96.07 29.06 85.1 31.47 74.09 33.81 77.67 30.95 77.37 25.08 76.74 22.25 87.08 22.25 87.08 4.75 121.71 15.32 121.36 15.32 121.36" fill="#F9DBCD"/></g></g><g><g><path d="M64.37 75.05C66.98 75.94 69.92 75.43 72.6 76.04 72.89 76.11 73.14 76.19 73.4 76.28 73.44 76.28 73.48 76.28 73.52 76.29 73.52 76.29 80.1 75.62 81.92 81.83 82.88 85.11 90.45 114.2 90.45 114.2L75.56 117.55C73.51 112.8 74.24 105.44 73.97 103.78 73.97 103.78 79.19 134.44 79.37 141.95 79.48 142.47 81.35 149.85 81.41 150.23 81.48 150.62 71.01 149 70.11 148.82 61.04 147.07 53.82 152.64 45.04 151.36 41.5 150.84 38 150.74 34.46 149.83 30.41 148.79 27.44 151.46 23.52 150.89 23.61 149.65 23.61 148.39 23.63 147.14 23.64 146.72 24.66 144.49 24.76 145 24.5 143.55 23.79 143.49 24.35 142 24.88 140.6 26.06 139.91 26.36 138.3 27.07 134.55 26.71 130.18 26.98 126.32 27.27 122.24 27.56 118.15 27.84 114.07 28.2 108.71 28.2 108.71 28.01 102.12 28 101.96 24.47 114.41 24.31 114.41 14.67 114.41 10.39 107.8 10.39 107.8L22.66 80.52C25.57 76.93 28.82 76.45 30.31 76 30.91 75.64 34.99 75.18 37.12 75.02 38.54 74.91 40.32 74.92 41.85 74.53 41.85 74.53 48.54 79.65 57.62 77.74 57.62 77.74 63.36 76.84 63.94 75.52L64.37 75.05Z" fill="#F1CB30"/></g><path d="M77.21 79.87C75.33 82.54 74.06 85.56 73.36 88.69 72.66 91.83 72.41 95.05 72.42 98.28 72.4 101.51 72.64 104.75 72.84 107.99 73.05 111.23 73.31 114.49 73.26 117.76L72.07 108.06C71.69 104.82 71.42 101.56 71.41 98.28 71.43 95 71.71 91.69 72.61 88.5 72.85 87.71 73.13 86.93 73.39 86.15 73.71 85.39 74.06 84.64 74.4 83.89L75.68 81.78C76.19 81.14 76.7 80.5 77.21 79.87Z" fill="#D6B321"/><path d="M68.81 143.57C66.05 143.46 63.31 143.75 60.61 144.25 57.91 144.73 55.23 145.38 52.53 145.96 51.85 146.11 51.18 146.25 50.5 146.37 49.83 146.5 49.17 146.68 48.48 146.81 47.12 147.09 45.74 147.33 44.34 147.45 42.94 147.56 41.51 147.58 40.08 147.3 38.67 147.03 37.18 146.27 36.38 144.9L36.13 144.47 36.56 144.23C38.69 143.05 41.07 142.77 43.33 142.51 45.6 142.26 47.87 142.08 49.94 141.32L49.83 141.95C48.98 141.18 47.84 140.7 46.68 140.38 45.51 140.06 44.29 139.91 43.06 139.84 41.83 139.76 40.59 139.79 39.37 139.91 38.14 140.04 36.91 140.23 35.72 140.59 36.88 140.13 38.1 139.85 39.33 139.66 40.56 139.47 41.82 139.37 43.07 139.37 44.33 139.38 45.59 139.5 46.83 139.79 48.06 140.08 49.31 140.53 50.34 141.4L50.8 141.79 50.23 142.03C48.03 142.95 45.69 143.13 43.44 143.41 41.2 143.69 38.93 144.01 37.05 145.09L37.23 144.43C37.86 145.46 39.02 146.08 40.29 146.36 41.57 146.63 42.92 146.64 44.27 146.54 45.62 146.44 46.96 146.23 48.3 145.96 48.97 145.84 49.64 145.66 50.33 145.54L52.37 145.18C55.08 144.69 57.78 144.13 60.53 143.75 63.28 143.4 66.07 143.22 68.81 143.57Z" fill="#D6B321"/><path d="M24.62 145.2C25.6 145.2 26.47 145.23 27.38 145.38 28.28 145.54 29.19 145.75 30.04 146.29 29.07 146.53 28.15 146.51 27.22 146.37 26.76 146.28 26.3 146.18 25.85 146 25.42 145.82 24.96 145.59 24.62 145.2Z" fill="#D6B321"/><path d="M24.9 80.14C25.31 81.96 25.52 83.82 25.65 85.67 25.79 87.52 25.85 89.37 25.9 91.23 25.96 94.93 25.95 98.63 25.72 102.34 25.17 98.66 24.99 94.95 24.9 91.25 24.87 89.4 24.85 87.55 24.87 85.7 24.87 83.85 24.92 82 24.9 80.14Z" fill="#D6B321"/><path d="M63.39 76.89C62.78 77.84 61.89 78.6 60.94 79.24 59.97 79.85 58.9 80.3 57.82 80.66 55.63 81.36 53.33 81.59 51.05 81.59 48.77 81.54 46.49 81.25 44.31 80.57 43.22 80.23 42.15 79.81 41.15 79.24 40.18 78.65 39.21 77.93 38.72 76.89 39.41 77.79 40.37 78.37 41.38 78.8 42.38 79.26 43.44 79.58 44.51 79.82 46.66 80.3 48.86 80.55 51.07 80.58 53.27 80.61 55.48 80.41 57.62 79.91 58.69 79.65 59.73 79.3 60.71 78.8 61.69 78.34 62.6 77.69 63.39 76.89Z" fill="#D6B321"/></g></g><path d="M9.08 63.03C8.22 64.37 7.16 66.32 5.87 67.17 5.1 66.25 11.34 59.43 9.49 58.61 9.05 58.09 7.25 60.68 6.51 61.69 5.65 63.04 4.53 64.14 3.65 65.39 3.9 62.89 9.08 57.89 7.75 57.16 6.75 56.64 3.16 61.67 1.98 63.71 2.55 60.77 5.48 58.62 5.4 56.42 4.69 55.71 1.3 59.77 0.73 61.44 0.14 63.42-0.09 64.03 0.03 66.02 0.28 69 2.97 76.52 5.37 80.15 5.77 87.47 6.2 94.79 6.7 102.11 7.02 106.74 6.87 111.41 7.93 115.96 8.73 119.38 10.75 122.92 14.69 122.6 18.43 122.3 18.22 116.57 18.16 113.79 18.05 109.01 17.1 104.21 16.09 99.55 15.1 94.95 13.92 90.39 12.63 85.86 12.36 84.92 10.44 80.82 10.86 79.91 11.44 78.64 12.4 78.45 12.18 76.81 12.04 74.63 9.93 70.2 9.01 67.79 9.22 67.04 9.4 66.28 9.82 65.23 10.39 63.96 10.85 63.74 11.17 61.81 11.11 60.62 9.73 62.05 9.08 63.03Z" fill="#F9DBCD"/><g><g><g><rect x="43.17" y="100.74" width="13.65" height="35.8" fill="#B8DEF2"/><g><linearGradient x1="69.918" y1="133.923" x2="69.918" y2="105.862" gradientUnits="userSpaceOnUse" id="SVGID_1_" gradientTransform="matrix(-1 0 0 1 119.916 0)"><stop offset="0.00966598" stop-color="#230900"/><stop offset="0.9987" stop-color="#4F291F"/></linearGradient><path d="M55.51 105.86 55.51 133.92C55.51 133.92 53.04 133.91 49.99 133.91 46.95 133.91 44.48 133.92 44.48 133.92L44.48 105.86 55.51 105.86Z" fill="url(#SVGID_1_)"/></g><g><path d="M49.89 93.82C49.9 93.93 50.13 93.99 50.4 93.97 50.67 93.95 50.89 93.84 50.88 93.74L51.46 100.74 50.48 100.74 49.89 93.82Z" fill="#C1D669"/><path d="M51.94 106.53C51.95 106.64 51.74 106.74 51.46 106.76 51.19 106.78 50.96 106.72 50.95 106.61L50.64 102.86C50.65 102.86 50.65 102.86 50.66 102.86L50.48 100.74 51.46 100.74 51.63 102.81 51.94 106.53Z" fill="#B8DEF2"/><path d="M51.94 106.53C51.95 106.64 51.74 106.74 51.46 106.76 51.19 106.78 50.96 106.72 50.95 106.61L50.64 102.86C50.65 102.86 50.65 102.86 50.66 102.86L50.48 100.74 51.46 100.74 51.63 102.81 51.94 106.53Z" fill="#C1D669" opacity="0.6"/><path d="M50.4 93.97C50.13 93.99 49.9 93.93 49.89 93.82 49.88 93.71 50.09 93.61 50.37 93.59 50.64 93.57 50.87 93.63 50.88 93.74 50.89 93.85 50.67 93.95 50.4 93.97Z" fill="#70931B"/></g><path d="M45.41 129.46C45.22 129.64 45.14 130.02 45.48 130.04 45.69 130.05 45.98 129.93 45.96 129.69 45.95 129.51 45.77 129.33 45.58 129.37 45.52 129.38 45.46 129.41 45.41 129.46Z" fill="#4F2806"/><path d="M46 131.88C45.63 131.8 45.46 132.34 45.75 132.57 46.21 132.94 46.66 132.19 46.17 131.93L46 131.88Z" fill="#4F2806"/><path d="M52.82 121.48C52.73 121.54 52.66 121.66 52.7 121.77 52.74 121.9 52.83 121.94 52.92 121.93 53.12 121.91 53.27 121.6 53.08 121.46 53 121.41 52.9 121.42 52.82 121.48Z" fill="#4F2806"/><path d="M52.65 130.89C52.61 130.91 52.57 130.94 52.54 130.98 52.18 131.32 52.45 131.96 52.96 131.85 53.88 131.66 53.25 130.53 52.65 130.89Z" fill="#4F2806"/><path d="M50.77 128.38C50.47 128.66 50.98 129.16 51.32 128.77 51.62 128.44 51.03 128.15 50.77 128.38 50.78 128.37 50.78 128.38 50.77 128.38Z" fill="#4F2806"/><path d="M46.98 107.34C46.88 107.65 47.3 107.9 47.57 107.61 47.93 107.24 47.4 106.81 47.07 107.18 47.03 107.24 47 107.29 46.98 107.34Z" fill="#4F2806"/><path d="M53.53 122.32C53.54 122.29 53.56 122.26 53.58 122.23 53.79 121.99 54.21 122.31 54.03 122.58 53.85 122.85 53.46 122.56 53.53 122.32Z" fill="#4F2806"/><path d="M50.2 129.31C50.58 129.57 49.96 130.13 49.67 129.7 49.46 129.37 49.93 129.13 50.2 129.31Z" fill="#4F2806"/><path d="M49.59 129.06C49.96 128.97 50.14 129.51 49.86 129.74 49.41 130.12 48.94 129.38 49.42 129.12L49.59 129.06Z" fill="#5E2E0B"/><path d="M50.54 121.41C50.55 121.42 50.56 121.44 50.58 121.45 50.8 121.73 50.44 122.09 50.16 121.86 49.92 121.66 49.94 121.24 50.34 121.3 50.41 121.32 50.48 121.36 50.54 121.41Z" fill="#5E2E0B"/><path d="M45.73 123.83C45.93 124.01 46.31 124.05 46.31 123.71 46.31 123.5 46.16 123.23 45.92 123.26 45.74 123.29 45.58 123.48 45.63 123.67 45.64 123.73 45.68 123.78 45.73 123.83Z" fill="#4F2806"/><path d="M48.82 132.71C48.77 133.09 49.33 133.21 49.53 132.9 49.86 132.41 49.08 132.02 48.86 132.53L48.82 132.71Z" fill="#4F2806"/><path d="M53.94 126.37C54.03 126.48 54.19 126.55 54.32 126.49 54.48 126.42 54.52 126.31 54.5 126.2 54.45 125.95 54.05 125.79 53.9 126.04 53.84 126.15 53.86 126.27 53.94 126.37Z" fill="#4F2806"/><path d="M45.53 122.07C45.56 122.11 45.59 122.14 45.63 122.18 46 122.51 46.61 122.19 46.47 121.69 46.19 120.78 45.12 121.5 45.53 122.07Z" fill="#4F2806"/><path d="M48.18 117.52C48.49 117.79 48.94 117.26 48.53 116.94 48.17 116.67 47.93 117.28 48.18 117.52 48.18 117.52 48.18 117.52 48.18 117.52Z" fill="#4F2806"/><path d="M47.58 115.93C47.9 116 48.11 115.57 47.81 115.32 47.41 114.99 47.03 115.55 47.42 115.85 47.47 115.89 47.53 115.91 47.58 115.93Z" fill="#4F2806"/><path d="M53.5 107.39C53.46 107.38 53.42 107.36 53.39 107.34 53.07 107.1 53.43 106.54 53.78 106.74 54.13 106.94 53.81 107.46 53.5 107.39Z" fill="#4F2806"/><path d="M52.3 107.53C52.53 107.13 53.14 107.71 52.73 108.03 52.42 108.27 52.14 107.81 52.3 107.53Z" fill="#4F2806"/><path d="M52.38 124.41C52.28 124.12 52.7 123.95 52.91 124.16 53.24 124.5 52.68 124.91 52.44 124.55L52.38 124.41Z" fill="#5E2E0B"/><path d="M52.14 111.34C52.15 111.33 52.16 111.31 52.18 111.3 52.44 111.06 52.83 111.39 52.62 111.68 52.44 111.93 52.02 111.94 52.05 111.55 52.06 111.48 52.09 111.41 52.14 111.34Z" fill="#5E2E0B"/><path d="M51.16 111.82C50.9 111.76 50.55 111.9 50.71 112.2 50.81 112.38 51.07 112.55 51.27 112.41 51.42 112.3 51.46 112.05 51.33 111.91 51.29 111.86 51.23 111.83 51.16 111.82Z" fill="#4F2806"/><path d="M54.2 117.04C54.06 116.68 53.52 116.85 53.49 117.21 53.44 117.8 54.31 117.76 54.25 117.21L54.2 117.04Z" fill="#4F2806"/><path d="M52.83 116.03C52.7 115.98 52.53 115.99 52.44 116.11 52.34 116.24 52.35 116.37 52.42 116.45 52.58 116.65 53.01 116.59 53.02 116.3 53.02 116.18 52.94 116.08 52.83 116.03Z" fill="#4F2806"/><path d="M54.19 114.91C54.15 114.89 54.1 114.87 54.05 114.86 53.56 114.75 53.18 115.32 53.55 115.69 54.22 116.36 54.82 115.22 54.19 114.91Z" fill="#4F2806"/><path d="M48.11 124.45C47.71 124.36 47.57 125.05 48.08 125.12 48.52 125.19 48.44 124.54 48.12 124.45 48.12 124.45 48.12 124.45 48.11 124.45Z" fill="#4F2806"/><path d="M47.95 107.77C47.64 107.86 47.66 108.34 48.05 108.42 48.56 108.52 48.63 107.85 48.14 107.77 48.07 107.75 48 107.76 47.95 107.77Z" fill="#4F2806"/><path d="M46.4 116.89C46.44 116.88 46.48 116.88 46.53 116.88 46.93 116.94 46.87 117.6 46.47 117.59 46.07 117.59 46.1 116.98 46.4 116.89Z" fill="#4F2806"/><path d="M54.83 128.99C54.82 129.46 54.01 129.24 54.21 128.76 54.37 128.4 54.84 128.66 54.83 128.99Z" fill="#4F2806"/><path d="M48 123.83C48.28 124.09 47.92 124.54 47.57 124.43 47 124.26 47.37 123.46 47.85 123.72L48 123.83Z" fill="#5E2E0B"/><path d="M47.09 108.5C47.09 108.52 47.08 108.53 47.07 108.56 46.96 108.9 46.46 108.79 46.5 108.44 46.53 108.13 46.9 107.92 47.06 108.28 47.1 108.34 47.11 108.42 47.09 108.5Z" fill="#5E2E0B"/><g opacity="0.3"><path d="M45.85 113.39C45.24 113.73 45.04 114.53 45.4 115.17L46.33 116.82C46.69 117.46 47.48 117.71 48.09 117.37L49.96 116.32C50.57 115.98 50.77 115.18 50.41 114.54L49.48 112.89C49.12 112.25 48.33 112 47.72 112.34L45.85 113.39Z" fill="#F4F4F5" opacity="0.3"/><path d="M46.97 127.28C47.55 127.66 48.36 127.48 48.76 126.86L49.8 125.28C50.21 124.66 50.06 123.85 49.48 123.47L47.69 122.29C47.11 121.91 46.31 122.1 45.9 122.71L44.86 124.29C44.45 124.91 44.6 125.72 45.18 126.1L46.97 127.28Z" fill="#F4F4F5" opacity="0.6"/><path d="M53.39 123.53C53.1 122.9 52.32 122.64 51.65 122.95L49.93 123.75C49.26 124.06 48.96 124.83 49.25 125.46L50.15 127.41C50.44 128.04 51.22 128.31 51.89 127.99L53.61 127.19C54.28 126.88 54.58 126.11 54.29 125.48L53.39 123.53Z" fill="#F4F4F5" opacity="0.4"/><path d="M47.89 125.24C47.26 125.54 47.01 126.32 47.32 126.99L48.13 128.7C48.45 129.37 49.21 129.66 49.85 129.36L51.79 128.44C52.42 128.14 52.67 127.36 52.36 126.69L51.55 124.98C51.23 124.31 50.47 124.02 49.83 124.32L47.89 125.24Z" fill="#F4F4F5" opacity="0.7"/><path d="M49.77 131.08C49.58 131.75 50 132.46 50.71 132.66L52.53 133.17C53.24 133.37 53.97 132.99 54.16 132.32L54.74 130.25C54.93 129.58 54.51 128.87 53.8 128.67L51.98 128.16C51.27 127.96 50.54 128.34 50.35 129.01L49.77 131.08Z" fill="#F4F4F5" opacity="0.6"/><path d="M48.29 121.45C48.98 121.37 49.48 120.71 49.39 119.98L49.17 118.1C49.09 117.37 48.45 116.84 47.76 116.92L45.63 117.17C44.94 117.25 44.44 117.91 44.53 118.64L44.75 120.52C44.83 121.25 45.47 121.78 46.16 121.7L48.29 121.45Z" fill="#F4F4F5" opacity="0.5"/><path d="M46.78 132.93C47.2 133.49 48.01 133.59 48.61 133.15L50.13 132.02C50.72 131.58 50.86 130.77 50.45 130.21L49.17 128.49C48.75 127.93 47.94 127.83 47.34 128.27L45.82 129.4C45.23 129.84 45.09 130.65 45.5 131.21L46.78 132.93Z" fill="#F4F4F5" opacity="0.6"/><path d="M48.88 120.09C48.61 120.73 48.93 121.49 49.61 121.78L51.35 122.52C52.03 122.81 52.8 122.52 53.07 121.88L53.91 119.91C54.18 119.27 53.86 118.51 53.18 118.22L51.44 117.48C50.76 117.19 49.99 117.48 49.72 118.12L48.88 120.09Z" fill="#F4F4F5" opacity="0.8"/><path d="M49.48 112.86C50.06 113.24 50.87 113.05 51.27 112.44L52.31 110.86C52.72 110.24 52.57 109.43 51.99 109.05L50.2 107.87C49.62 107.49 48.81 107.68 48.41 108.29L47.37 109.87C46.97 110.49 47.11 111.3 47.69 111.68L49.48 112.86Z" fill="#F4F4F5" opacity="0.6"/><path d="M52.14 117.12C52.72 117.5 53.52 117.31 53.93 116.7L54.97 115.12C55.38 114.5 55.23 113.69 54.65 113.31L52.86 112.13C52.28 111.75 51.47 111.94 51.07 112.55L50.03 114.13C49.62 114.75 49.77 115.56 50.35 115.94L52.14 117.12Z" fill="#F4F4F5" opacity="0.5"/></g></g></g><g><g><path d="M55.19 125.37C55 125.72 72.49 132.44 73.85 132.82 76.77 133.63 80.63 135.06 83.53 133.48 85.52 132.39 88.42 128.37 87.07 126.05 84.98 122.45 73.83 122.05 70.38 121.99 66.33 121.92 62.09 120.78 58.08 120.19 58.08 120.18 55.2 125.37 55.19 125.37Z" fill="#F9DBCD"/><path d="M82.9 121.57C82.9 121.57 82.36 121.38 81.54 121.21 81.13 121.13 80.66 121.06 80.15 121.01 79.62 121.01 79.05 121.05 78.49 121.09 77.92 121.13 77.39 121.29 76.88 121.45 76.37 121.59 75.92 121.77 75.55 121.97 74.81 122.35 74.34 122.68 74.34 122.68 74.34 122.68 74.92 122.7 75.74 122.63 76.14 122.58 76.61 122.53 77.11 122.48 77.6 122.43 78.11 122.29 78.63 122.28 79.14 122.22 79.66 122.16 80.14 122.06 80.65 122.03 81.12 121.97 81.53 121.9 82.36 121.74 82.9 121.57 82.9 121.57Z" fill="#D39B8C"/></g><g><path d="M55.25 127.08C56.98 126.6 57.86 124.97 58.61 123.08 59.17 121.66 60.2 120.35 59.9 118.79 59.6 117.2 58.56 116.29 57.37 115.15 56.13 113.96 53.23 112 51.4 112.51 48.4 113.42 54.04 115.73 54.95 116.6 55.61 117.25 56.05 118.14 56.5 118.94 54.63 119.07 52.69 118.25 50.86 118.01 50.13 117.92 48.59 117.62 47.97 118.1 47.03 118.91 47.73 119.93 48.83 120.07 46.3 121.69 51.45 123.48 52.69 123.92 51.67 123.88 47.31 123.22 47.73 124.84 48.14 126.42 52.17 127.04 53.54 127.19 54.19 127.26 54.75 127.22 55.25 127.08Z" fill="#F9DBCD"/><path d="M48.82 120.07C48.82 120.07 49.24 120.05 49.83 120.12 50.43 120.18 51.21 120.32 51.97 120.53 52.73 120.73 53.48 121 54.03 121.24 54.58 121.48 54.93 121.71 54.93 121.71 54.93 121.71 54.52 121.73 53.92 121.66 53.32 121.6 52.54 121.46 51.78 121.26 51.02 121.05 50.27 120.79 49.72 120.54 49.17 120.3 48.82 120.07 48.82 120.07Z" fill="#D39B8C"/><path d="M55.19 125.37C55.19 125.37 55.26 124.93 55.47 124.32 55.52 124.16 55.57 124 55.64 123.82 55.7 123.65 55.74 123.46 55.8 123.27 55.91 122.89 56.06 122.5 56.2 122.11 56.47 121.31 56.8 120.53 57.08 119.94 57.36 119.36 57.61 118.99 57.61 118.99 57.61 118.99 57.6 119.43 57.5 120.07 57.41 120.71 57.19 121.54 56.92 122.36 56.75 122.77 56.59 123.17 56.41 123.54 56.25 123.92 56.04 124.23 55.86 124.5 55.49 125.04 55.19 125.37 55.19 125.37Z" fill="#D39B8C"/><path d="M56.87 126.15C56.87 123.77 59.78 122.44 59.52 119.53" fill="#D39B8C"/></g></g></g></g></g></svg>