<svg width="296.84" height="334.54" viewBox="0 0 296.84 334.54" xmlns="http://www.w3.org/2000/svg" xmlns:xlink="http://www.w3.org/1999/xlink" xml:space="preserve" overflow="hidden"><defs></defs><g><path d="M134.78 275.82C134.78 275.82 140.22 288.88 138.73 292.66 137.24 296.45 130.24 297.77 125.13 297.77 120.02 297.77 99.54 302.28 106.01 307.84 109.48 310.82 120.39 308.56 124.56 306.85 128.72 305.15 139.51 304.2 141.4 306.09 143.29 307.98 154.46 311.96 155.78 315.74 157.11 319.53 164.86 325.01 169.78 322.36 174.7 319.71 164.01 311.86 159.18 307.03 154.35 302.2 153.9 300.17 154.64 299.43 155.38 298.69 170.82 302.58 173.19 304.95 175.56 307.32 185.21 305.23 180.19 300.22 175.18 295.21 153.98 294.64 151.61 292.27 149.24 289.9 148.02 273.72 148.02 273.72L134.78 275.82Z" fill="#B85A3E"/><path d="M257.28 252.17C257.28 252.17 278.44 245.9 287.33 262.05 291.01 268.73 282.45 270.53 281.88 271.1 281.31 271.67 289.21 276.97 290.91 286.62 292.61 296.27 280.62 290.4 280.62 294.18 280.62 297.96 285.71 302.93 280.79 307.85 275.87 312.77 266.08 302.98 264.85 301.75 263.62 300.52 260.97 297.11 256.33 292.48 251.69 287.84 257.28 252.17 257.28 252.17Z" fill="#A62F3A"/><path d="M274.69 291.15C278.73 287.72 280.37 283.2 274.69 269.96 269.01 256.71 257.28 252.17 257.28 252.17 257.28 252.17 237.98 233.62 213.37 209.02 188.77 184.42 174.77 147.66 158.49 142.76 142.22 137.86 145.23 129.87 133.51 118.15 121.79 106.43 100.39 103.61 98.69 101.91 96.99 100.21 50.62 27.35 50.62 5.4 50.62-16.55 15.42 34.54 15.42 50.44 15.42 66.34 18.83 70.12 18.83 70.12 18.83 70.12 2.55 93.52 0.28 118.15-1.99 142.78 10.12 167.37 10.12 167.37 10.12 167.37 2.93 217.72 14.28 244.22 25.63 270.71 47.21 279.42 69.16 279.42 91.11 279.42 134.56 278.07 142.51 281.48 150.46 284.89 146.42 283.59 151.53 288.7 156.64 293.81 166.06 292.29 189.52 289.26 212.99 286.23 253.78 308.9 274.69 291.15Z" fill="#F7931E"/><path d="M229.69 295.04C203.13 279.5 179.2 281.35 167.91 281.35 156.62 281.35 153.3 268.45 153.3 268.45 153.3 268.45 84.4 276.6 48.57 254.35 12.74 232.09 30.26 157.91 30.26 157.91 5.93 133.56 18.83 70.12 18.83 70.12 18.83 70.12 2.55 93.52 0.28 118.15-1.99 142.78 10.12 167.37 10.12 167.37 10.12 167.37 2.93 217.72 14.28 244.22 25.63 270.71 47.21 279.42 69.16 279.42 91.11 279.42 134.56 278.07 142.51 281.48 150.46 284.89 146.42 283.59 151.53 288.7 156.64 293.81 166.06 292.29 189.52 289.26 200.42 287.85 215.05 291.99 229.69 295.04 229.69 295.04 229.69 295.04 229.69 295.04Z" fill="#DE841B"/><path d="M250.26 297C250.26 297 249.52 297.26 250.85 301.43 252.17 305.59 258.61 313.73 258.61 313.73 258.61 313.73 263.28 301.08 262.46 296.05 261.64 291.02 255.21 288.75 254.45 288.75 253.68 288.74 250.26 297 250.26 297Z" fill="#DCAB72"/><path d="M119.73 253.03C119.73 253.03 102.02 257.16 79.6 250.76 58.32 244.7 54.67 230.57 52.73 225.02 50.96 219.97 45.92 168.63 45.92 143.65 45.92 118.67 65.9 116.01 68.55 128.12 69.78 133.76 65.49 167.7 76.79 195.4 89.78 227.24 128.23 250.4 119.73 253.03Z" fill="#DE841B"/><path d="M119.73 253.03C119.73 253.03 111.4 253.03 89.83 248.11 68.26 243.19 64.9 227.91 62.96 222.37 61.19 217.32 56.15 165.98 56.15 141 56.15 116.02 67.13 118.67 69.78 130.78 72.43 142.89 72.81 165.98 76.97 156.52 81.13 147.06 75.46 129.65 79.24 110.34 83.02 91.04 92.49 93.62 95.14 102.74 97.79 111.86 97.21 150.63 98.55 151.96 99.88 153.29 103.47 127.35 108.01 127.35 112.55 127.35 116.72 126.1 116.72 142.82 116.72 159.54 138.29 158.62 146.24 174.41 154.19 190.2 157.22 223.51 146.24 228.8 135.25 234.11 135.63 248.11 119.73 253.03Z" fill="#F9A94B"/><path d="M85.82 285.26C85.82 285.26 91.26 298.32 89.77 302.1 88.28 305.88 81.28 307.21 76.17 307.21 71.06 307.21 52.7 309.94 57.06 317.28 61.41 324.62 71.44 318 75.61 316.29 79.77 314.59 94.11 310.09 96 311.98 97.89 313.87 105.51 321.4 106.83 325.18 108.16 328.96 115.91 334.45 120.83 331.8 125.75 329.15 115.06 321.3 110.23 316.47 105.4 311.64 104.95 309.61 105.69 308.87 106.43 308.13 121.87 312.02 124.23 314.39 126.6 316.76 136.25 314.67 131.23 309.66 126.21 304.65 105.02 304.08 102.65 301.71 100.28 299.34 99.05 283.16 99.05 283.16L85.82 285.26Z" fill="#DCAB72"/><path d="M58.62 315.92C56.85 315.01 52.58 318.89 50.98 321.96 50.98 321.96 59.93 319.41 60.24 319.1 60.68 318.66 59.61 316.42 58.62 315.92Z" fill="#E0D0C7"/><path d="M118 328.51C119.77 327.6 124.04 331.48 125.64 334.55 125.64 334.55 116.69 332 116.38 331.69 115.94 331.25 117.01 329.01 118 328.51Z" fill="#E0D0C7"/><path d="M129.7 310.77C131.47 309.86 135.74 313.74 137.34 316.81 137.34 316.81 128.39 314.25 128.08 313.95 127.65 313.51 128.72 311.28 129.7 310.77Z" fill="#E0D0C7"/><path d="M167.88 319C169.65 318.09 173.92 321.97 175.52 325.04 175.52 325.04 166.57 322.49 166.26 322.18 165.83 321.74 166.89 319.51 167.88 319Z" fill="#E0D0C7"/><path d="M179.66 301.37C181.43 300.46 185.7 304.34 187.3 307.41 187.3 307.41 178.35 304.85 178.04 304.55 177.61 304.11 178.68 301.87 179.66 301.37Z" fill="#E0D0C7"/><g opacity="0.54"><path d="M229.69 271.4C215.53 267.14 199.18 275.48 202.83 280.13 207.3 285.83 208.9 269.48 229.69 271.4Z" fill="#7F2A04"/></g><g opacity="0.54"><path d="M209 264.06C194.84 259.8 178.49 268.14 182.14 272.79 186.61 278.49 188.21 262.13 209 264.06Z" fill="#7F2A04"/></g><g opacity="0.54"><path d="M214.47 253.03C208.6 239.46 191.68 232.34 190.48 238.13 189.01 245.23 202.54 235.9 214.47 253.03Z" fill="#7F2A04"/></g><g opacity="0.54"><path d="M219.41 237.35C213.54 223.78 196.62 216.66 195.42 222.45 193.95 229.55 207.48 220.22 219.41 237.35Z" fill="#7F2A04"/></g><g opacity="0.54"><path d="M54.09 84.15C63.83 54.7 40.3 22.55 28.48 30.65 13.98 40.56 57.04 41.52 54.09 84.15Z" fill="#7F2A04"/></g><g opacity="0.54"><path d="M48.66 108.49C58.41 79.04 34.87 46.89 23.04 54.99 8.55 64.91 51.61 65.86 48.66 108.49Z" fill="#7F2A04"/></g><g><path d="M271.89 284.1C271.38 287.53 268.19 289.91 264.76 289.4 261.33 288.89 258.95 285.7 259.46 282.27 259.96 278.84 263.16 276.46 266.59 276.97 270.02 277.47 272.4 280.66 271.89 284.1Z" fill="#283038"/><path d="M266.84 283.35C266.59 285.09 265.09 286.3 263.51 286.07 261.93 285.84 260.85 284.24 261.1 282.5 261.36 280.77 262.85 279.55 264.43 279.78 266.01 280.02 267.09 281.61 266.84 283.35Z" fill="#FFFFFF"/></g><path d="M67.15 163.26C67.15 163.26 72.11 189.18 82.04 210.86 90 228.24 102.52 241.53 107.99 246.77 107.99 246.77 83.61 239.69 72.37 211.79 61.14 183.88 67.15 163.26 67.15 163.26Z" fill="#D44500"/><path d="M91.8 175.71C91.8 175.71 113.21 229.49 122.42 238.33 122.42 238.33 105.52 227.52 97.09 206.59 88.66 185.67 91.8 175.71 91.8 175.71Z" fill="#D44500"/><path d="M54.6 268.44 87.86 290.74C87.86 290.74 90.55 286.73 92 286.26 93.82 285.67 99.51 287.74 99.51 287.74L109.49 268.44 54.6 268.44Z" fill="#DE841B"/><path d="M268.1 318.87C269.26 318.83 270.23 319.74 270.27 320.9 270.31 322.06 269.4 323.03 268.24 323.07 267.08 323.11 261.06 321.21 261.06 321.21 261.06 321.21 266.94 318.91 268.1 318.87Z" fill="#CF6E24"/><path d="M294.66 323.08C295.82 323.04 296.79 323.95 296.83 325.11 296.87 326.27 295.96 327.24 294.8 327.28 293.64 327.32 287.62 325.42 287.62 325.42 287.62 325.42 293.5 323.12 294.66 323.08Z" fill="#CF6E24"/><path d="M276.18 325.18C277.34 325.14 278.31 326.05 278.35 327.21 278.39 328.37 277.48 329.34 276.32 329.38 275.16 329.42 269.14 327.52 269.14 327.52 269.14 327.52 275.02 325.22 276.18 325.18Z" fill="#CF6E24"/><path d="M244.31 322.08C245.47 322.04 246.44 322.95 246.48 324.11 246.52 325.27 245.61 326.24 244.45 326.28 243.29 326.32 237.27 324.42 237.27 324.42 237.27 324.42 243.15 322.12 244.31 322.08Z" fill="#CF6E24"/></g></svg>