<svg width="110.91" height="386.02" viewBox="0 0 110.91 386.02" xmlns="http://www.w3.org/2000/svg" xmlns:xlink="http://www.w3.org/1999/xlink" xml:space="preserve" overflow="hidden"><defs></defs><g><g><g><g><path d="M98.81 385.64 53.6 385.65C51.6 385.65 49.98 384.03 49.98 382.03L49.93 356.87 82.25 356.87 90.46 368.42 101.42 376.85C103.11 377.95 103.93 379.99 103.47 381.96 102.96 384.11 101.03 385.64 98.81 385.64" fill="#FFFFFF"/><g><path d="M69.18 367.34C69.18 367.34 77.57 364.7 87.63 366.83" stroke="#00184D" stroke-width="0.75" stroke-linecap="round" stroke-linejoin="round" stroke-miterlimit="10" fill="none"/><path d="M103.45 382.04C103.03 382.16 102.57 382.23 102.12 382.22L50.16 382.2" stroke="#00184D" stroke-width="0.75" stroke-linecap="round" stroke-linejoin="round" stroke-miterlimit="10" fill="none"/><path d="M64.85 362.7C64.85 362.7 73.24 360.06 83.3 362.19" stroke="#00184D" stroke-width="0.75" stroke-linecap="round" stroke-linejoin="round" stroke-miterlimit="10" fill="none"/></g></g><g><path d="M50.27 385.64 5.06 385.65C3.06 385.65 1.44 384.03 1.44 382.03L1.39 356.87 33.71 356.87 41.91 368.42 52.87 376.85C54.56 377.95 55.38 379.99 54.92 381.96 54.43 384.11 52.49 385.64 50.27 385.64" fill="#FFFFFF"/><g><path d="M41.92 368.41 52.88 376.84C54.57 377.94 55.39 379.98 54.93 381.95 54.42 384.12 52.49 385.65 50.27 385.65" stroke="#00184D" stroke-width="0.75" stroke-linecap="round" stroke-linejoin="round" stroke-miterlimit="10" fill="none"/><path d="M20.64 367.34C20.64 367.34 29.03 364.7 39.09 366.83" stroke="#00184D" stroke-width="0.75" stroke-linecap="round" stroke-linejoin="round" stroke-miterlimit="10" fill="none"/><path d="M54.91 382.04C54.49 382.16 54.03 382.23 53.58 382.22L1.62 382.2" stroke="#00184D" stroke-width="0.75" stroke-linecap="round" stroke-linejoin="round" stroke-miterlimit="10" fill="none"/><path d="M16.31 362.7C16.31 362.7 24.7 360.06 34.76 362.19" stroke="#00184D" stroke-width="0.75" stroke-linecap="round" stroke-linejoin="round" stroke-miterlimit="10" fill="none"/></g></g></g><g><g><path d="M48.55 358.53 38.1 154.99 76.55 154.99 87 356.77Z" fill="#00184D"/></g><g><g><path d="M38.47 358.34 0 356.96 8.42 154.99 46.89 154.99Z" fill="#00184D"/></g><g><line x1="6.56" y1="356.96" x2="14.97" y2="154.99" stroke="#FFFFFF" stroke-width="0.75" stroke-linecap="round" stroke-linejoin="round" stroke-miterlimit="10" fill="none"/><path d="M14.01 178.12C14.01 178.12 26.1 173.26 26.1 154.98" stroke="#FFFFFF" stroke-width="0.75" stroke-linecap="round" stroke-linejoin="round" stroke-miterlimit="10" fill="none"/></g><g><path d="M58.52 186.67 45.54 187.5 42.42 262.97" stroke="#FFFFFF" stroke-width="0.75" stroke-linecap="round" stroke-linejoin="round" stroke-miterlimit="10" fill="none"/></g></g></g></g><g><path d="M75.83 131.88C75.38 122.08 76.05 92.64 76.05 92.64 76.05 82.56 76.14 74.42 71.39 71.4 63.44 66.35 51.79 64.47 42.36 64.47 32.93 64.47 21.28 66.35 13.33 71.4 8.58 74.42 8.67 82.55 8.67 92.64 8.67 92.64 9.33 122.08 8.89 131.88 8.61 137.92 6.56 155.94 6.56 155.94 6.56 155.94 45.38 160.75 78.17 155.94 78.16 155.95 76.1 137.92 75.83 131.88Z" fill="#FF625C"/><path d="M55.35 65.64C53.06 68.94 49.69 70.65 44.83 70.65 39.81 70.65 33.87 68.3 30.84 65.39 34.78 64.76 38.72 64.48 42.35 64.48 46.43 64.48 50.92 64.83 55.35 65.64Z" fill="#FFADA8"/></g><g><g><defs><path d="M52.88 66.36 52.88 53.16 33.1 53.16 32.45 66.05Z" id="SVGID_1_"/></defs><clipPath id="SVGID_2_"><use width="100%" height="100%" xlink:href="#SVGID_1_" overflow="visible"></use></clipPath><use width="100%" height="100%" xlink:href="#SVGID_1_" fill="#FFADA8" overflow="visible"></use><path d="M34.4 52.75C35.34 56.1 39.06 64.08 53.12 61.85L53.12 52.75 34.4 52.75Z" fill="#00184D" clip-path="url(#SVGID_2_)"/></g><g><g><path d="M70.47 38.62C67.61 42.29 63.12 42.81 60.43 39.78 57.74 36.76 57.88 31.33 60.74 27.67 63.6 24 68.09 23.48 70.78 26.51 73.47 29.53 73.33 34.96 70.47 38.62Z" fill="#FFADA8"/><path d="M69.13 29.39C69.13 29.39 63.16 28.69 62.38 36.14" stroke="#00184D" stroke-width="0.75" stroke-linecap="round" stroke-linejoin="round" stroke-miterlimit="10" fill="none"/></g><g><path d="M44.07 0.98C32.36 0.98 22.79 10.56 22.79 22.26L22.79 37.7C22.79 49.41 35.88 57.64 46.95 57.64 55.61 57.64 65.36 49.4 65.36 37.7L65.36 22.26C65.36 10.55 55.78 0.98 44.07 0.98Z" fill="#FFADA8"/><path d="M53.72 56.06C60.01 53.13 65.35 46.36 65.35 37.7L65.35 27.92" stroke="#00184D" stroke-width="0.75" stroke-linecap="round" stroke-linejoin="round" stroke-miterlimit="10" fill="none"/></g><path d="M47.76 28.7C47.76 28.7 46.96 33.32 49.76 35.47L47.29 37.94" stroke="#00184D" stroke-width="0.75" stroke-linecap="round" stroke-linejoin="round" stroke-miterlimit="10" fill="none"/><g><path d="M52.88 41.28C52.29 44.17 49.74 46.34 46.68 46.34 43.62 46.34 41.07 44.17 40.48 41.28L52.88 41.28Z" fill="#00184D"/><path d="M41.63 41.27C42.78 42.81 44.62 43.8 46.69 43.8 48.76 43.8 50.59 42.81 51.75 41.27L41.63 41.27Z" fill="#FFFFFF"/></g><g><path d="M57.72 30.86C57.72 29.07 56.27 27.62 54.48 27.62 52.69 27.62 51.24 29.07 51.24 30.86" stroke="#00184D" stroke-width="1.5" stroke-linecap="round" stroke-linejoin="round" stroke-miterlimit="10" fill="none"/><path d="M41.56 30.86C41.56 29.07 40.11 27.62 38.32 27.62 36.53 27.62 35.08 29.07 35.08 30.86" stroke="#00184D" stroke-width="1.5" stroke-linecap="round" stroke-linejoin="round" stroke-miterlimit="10" fill="none"/></g><path d="M65.36 25.6C66.42 17.55 66.4 0.97 45.81 0.04 29.09-0.71 21.14 7.29 21.14 19.01 21.14 24.55 22.79 31.32 22.79 31.32L25.98 31.32C28.89 28.01 28.63 22.87 28.63 19.95 28.63 17.38 30.17 12.08 34.18 11.12 34.84 10.96 35.66 10.95 36.56 11.03 37.05 13.41 39.02 19.01 46.73 20.91L44.33 15.9C48.42 18.76 54.87 21.53 64.46 21.54 65.07 23.84 65.36 25.6 65.36 25.6Z" fill="#00184D"/><g><path d="M15.72 38.62C18.58 42.29 23.07 42.81 25.76 39.78 28.45 36.76 28.31 31.33 25.45 27.67 22.59 24 18.1 23.48 15.41 26.51 12.73 29.53 12.87 34.96 15.72 38.62Z" fill="#FFADA8"/><path d="M17.07 29.39C17.07 29.39 23.04 28.69 23.82 36.14" stroke="#00184D" stroke-width="0.75" stroke-linecap="round" stroke-linejoin="round" stroke-miterlimit="10" fill="none"/></g></g></g><g><g><rect x="54.76" y="72.22" width="55.78" height="72.9" fill="#FDCC59"/><rect x="54.76" y="72.22" width="55.78" height="72.9" fill="#FDCC59"/><line x1="54.76" y1="72.22" x2="110.54" y2="145.12" stroke="#FD8E26" stroke-width="0.75" stroke-linecap="round" stroke-linejoin="round" stroke-miterlimit="10" fill="none"/><line x1="110.54" y1="72.22" x2="54.76" y2="145.12" stroke="#FD8E26" stroke-width="0.75" stroke-linecap="round" stroke-linejoin="round" stroke-miterlimit="10" fill="none"/><g><path d="M75.65 72.22 75.65 90.89 77.4 88.77 79.15 90.89 80.9 88.77 82.65 90.89 84.4 88.77 86.15 90.89 87.9 88.77 89.65 90.89 89.65 72.22Z" fill="#FFFFFF"/><path d="M75.65 90.89 77.4 88.77 79.15 90.89 80.9 88.77 82.65 90.89 84.4 88.77 86.15 90.89 87.9 88.77 89.65 90.89 89.65 72.22" stroke="#00184D" stroke-width="0.5" stroke-linecap="round" stroke-linejoin="round" stroke-miterlimit="10" fill="none"/></g></g></g><g><g><path d="M60.96 121.22C54.08 119.36 47.16 118.23 40.49 117.21 38.71 116.93 36.93 116.67 35.2 116.41L34.35 105.14C34.06 101.71 33.76 98.21 33.36 94.73L1.67 97.19C1.74 100.74 3.56 115.05 4.2 118.78 6.05 129.57 8.42 142.18 21.2 143.89 30.47 145.13 41.86 142.79 51.61 140.1 53.35 139.62 55.08 139.12 56.81 138.54L59.39 137.66C60.26 137.33 61.1 137.03 61.99 136.66 64.22 135.72 66.06 133.77 66.74 131.25 67.92 126.89 65.34 122.4 60.96 121.22Z" fill="#FFADA8"/><path d="M35.54 116.32C35.54 116.32 25.45 114.55 16.96 118.93" stroke="#00184D" stroke-width="0.75" stroke-linecap="round" stroke-linejoin="round" stroke-miterlimit="10" fill="none"/></g><g><path d="M93.46 129.82C93.08 128.52 91.73 127.55 90.54 127.9 90.54 127.9 91.59 127.56 91.93 127.43 93.09 126.98 93.72 125.67 93.31 124.38 93.1 123.74 92.67 123.23 92.15 122.94 92.83 122.4 93.18 121.46 92.97 120.49 92.79 119.66 92.24 119.02 91.56 118.71 91.99 118.22 92.23 117.54 92.14 116.8 91.99 115.46 90.85 114.45 89.61 114.56L83.82 115.07C83.75 115.08 83.68 115.09 83.61 115.1L79.66 115.86C81.63 115.25 82.24 113.93 82.23 112.73 82.22 111.24 80.68 109.8 79.41 110.22 77.13 110.99 76.67 111.5 69.42 112.44 66.25 112.85 63.65 114.16 61.9 115.92 59.65 118.18 58.69 120.92 58.69 120.92L63.47 135.85C70.8 136.64 78.96 135.77 78.96 135.77 78.96 135.77 85.25 134.79 85.71 134.66 87.28 134.21 91.96 132.81 91.96 132.81 93.17 132.46 93.84 131.12 93.46 129.82Z" fill="#FFADA8"/><g><path d="M76.31 121.35C76.32 121.35 76.33 121.34 76.35 121.34L84.5 119.76 91.57 118.69" stroke="#00184D" stroke-width="0.75" stroke-linecap="round" stroke-linejoin="round" stroke-miterlimit="10" fill="none"/><path d="M92.15 122.94 85.51 124.57 77.32 126.15" stroke="#00184D" stroke-width="0.75" stroke-linecap="round" stroke-linejoin="round" stroke-miterlimit="10" fill="none"/><path d="M91.93 127.43 86.19 129.37C86.11 129.4 86.04 129.42 85.96 129.43 85.95 129.43 85.94 129.44 85.92 129.44L77.66 131.04" stroke="#00184D" stroke-width="0.75" stroke-linecap="round" stroke-linejoin="round" stroke-miterlimit="10" fill="none"/><path d="M69.82 115.46C69.82 115.46 72.33 115.94 75.76 116.72 75.76 116.72 78.57 116.07 79.67 115.86" stroke="#00184D" stroke-width="0.75" stroke-linecap="round" stroke-linejoin="round" stroke-miterlimit="10" fill="none"/><path d="M63.48 135.85C70.81 136.64 78.97 135.77 78.97 135.77 78.97 135.77 85.26 134.79 85.72 134.66 87.29 134.21 91.97 132.81 91.97 132.81" stroke="#00184D" stroke-width="0.75" stroke-linecap="round" stroke-linejoin="round" stroke-miterlimit="10" fill="none"/></g></g><g><path d="M34.16 99.79C19.57 100.03 11.52 101.05 1.24 103.26 0.03 96.43 0.12 91.19 0.12 91.19-0.35 81.55 4.49 72.94 13.33 71.42 23.08 69.74 31.71 76.06 32.96 87.53 33.6 93.31 34.16 99.79 34.16 99.79Z" fill="#FF625C"/><path d="M32.96 87.52C33.59 93.32 34.15 99.79 34.15 99.79 19.56 100.03 11.51 101.05 1.23 103.26" stroke="#00184D" stroke-width="0.75" stroke-linecap="round" stroke-linejoin="round" stroke-miterlimit="10" fill="none"/></g></g></g></svg>