<svg width="240.77" height="240.78" viewBox="0 0 240.77 240.78" xmlns="http://www.w3.org/2000/svg" xmlns:xlink="http://www.w3.org/1999/xlink" xml:space="preserve" overflow="hidden"><defs></defs><g><g><linearGradient x1="374.806" y1="-18.1389" x2="374.806" y2="-58.8034" gradientUnits="userSpaceOnUse" id="SVGID_2_" gradientTransform="matrix(0.8383 -0.5451 0.5451 0.8383 -233.783 394.796)"><stop offset="0" stop-color="#220052"/><stop offset="1" stop-color="#5647BA"/></linearGradient><linearGradient x1="517.606" y1="-18.1427" x2="517.606" y2="-58.8051" gradientUnits="userSpaceOnUse" id="SVGID_3_" gradientTransform="matrix(0.8383 -0.5451 0.5451 0.8383 -233.783 394.796)"><stop offset="0" stop-color="#220052"/><stop offset="1" stop-color="#5647BA"/></linearGradient><linearGradient x1="448.125" y1="58.7929" x2="448.125" y2="-2.38" gradientUnits="userSpaceOnUse" id="SVGID_4_" gradientTransform="matrix(0.8383 -0.5451 0.5451 0.8383 -233.783 394.796)"><stop offset="0" stop-color="#220052"/><stop offset="1" stop-color="#5647BA"/></linearGradient><g><g><linearGradient x1="120.384" y1="240.776" x2="120.384" y2="-0.00135852" gradientUnits="userSpaceOnUse" id="SVGID_1_" gradientTransform="matrix(1 -0.00296064 0.00296064 1 -0.3535 0.3577)"><stop offset="0" stop-color="#220052"/><stop offset="1" stop-color="#5647BA"/></linearGradient><path d="M179.9 15.72C170.59 10.44 160.64 6.45 150.35 3.81 118.82-4.28 84.13 0.33 54.75 19.43 28.23 36.67 10.76 62.65 3.63 91.16 2.68 94.94 1.92 98.77 1.34 102.62-0.78 116.78-0.41 131.34 2.63 145.58 5.62 159.6 11.16 173.31 19.43 186.03 33.02 206.93 52.05 222.22 73.46 231.25 109.07 246.26 151.27 243.95 186.04 221.34 215.47 202.21 233.76 172.31 239.12 140.15 240.11 134.19 240.67 128.17 240.75 122.11 241.13 98.99 234.86 75.53 221.34 54.74 210.48 38.03 196.15 24.91 179.9 15.72ZM196.59 72.44C200.02 77.88 202.79 83.55 204.92 89.37 209.69 102.38 211.29 116.08 209.92 129.43 209.24 136.06 207.84 142.6 205.73 148.92 199.51 167.57 187.19 184.32 169.46 195.85 143.68 212.61 112.43 214.45 85.95 203.52 69.67 196.82 55.21 185.29 44.91 169.45 39.52 161.17 35.67 152.3 33.3 143.22 30.58 132.82 29.79 122.11 30.82 111.63 33.41 85.32 47.47 60.39 71.3 44.89 93.02 30.77 118.63 27.24 142 33.02 150.87 35.21 159.4 38.74 167.29 43.54 178.44 50.32 188.28 59.64 195.85 71.29 196.12 71.69 196.36 72.07 196.59 72.44Z" fill="url(#SVGID_1_)"/></g><path d="M179.9 15.72 171.84 33.52 167.3 43.56C159.41 38.76 150.87 35.22 142.01 33.04 118.64 27.27 93.03 30.79 71.31 44.91 47.48 60.41 33.42 85.34 30.83 111.65 29.8 122.13 30.59 132.84 33.31 143.24L23.1 147.41 11.93 151.97 2.64 145.58C-0.4 131.34-0.77 116.78 1.35 102.62 1.93 98.76 2.69 94.94 3.64 91.16 9.79 93.46 16.95 95.35 22.8 94.68 26.27 94.29 29.27 93 31.32 90.36 41.13 77.75 41.19 61.01 69.93 42.77 98.66 24.53 132.61 34.38 137.37 25.89 138.17 24.46 138.99 22.91 139.82 21.33 143.88 13.54 148 4.82 150.35 3.8 151.23 4.02 152.11 4.26 152.99 4.51 153.85 4.75 154.7 5 155.55 5.26 155.58 5.26 155.61 5.27 155.63 5.28 156.42 5.52 157.21 5.77 158 6.03 158.19 6.09 158.38 6.16 158.56 6.22 159.24 6.44 159.92 6.67 160.58 6.91 160.72 6.96 160.87 7.01 161.01 7.06 161.75 7.33 162.5 7.6 163.24 7.88 164.3 8.28 165.35 8.7 166.4 9.13 166.94 9.35 167.47 9.58 168 9.81 168.64 10.08 169.28 10.36 169.92 10.66 170.27 10.81 170.63 10.98 170.98 11.14 171.6 11.42 172.22 11.72 172.84 12.02 173.35 12.26 173.86 12.51 174.37 12.77 174.5 12.84 174.65 12.9 174.79 12.97 175.32 13.24 175.85 13.51 176.38 13.79 177.56 14.42 178.73 15.06 179.9 15.72Z" fill="#E066FF"/><path d="M11.39 77.02C13.48 71.5 16.22 66.23 19.19 61.11 22.22 56.02 25.55 51.1 29.23 46.43 36.57 37.1 45.17 28.64 55.01 21.85 55.62 21.42 56.23 20.99 56.85 20.58L58.75 19.39C60.03 18.61 61.26 17.77 62.59 17.07L66.51 14.9 70.55 12.95C71.88 12.27 73.3 11.77 74.68 11.2 76.06 10.64 77.44 10.05 78.87 9.61L83.12 8.19 87.45 7.06C88.88 6.65 90.36 6.39 91.82 6.11L94.01 5.69C94.74 5.54 95.47 5.4 96.21 5.34 99.17 5 102.11 4.57 105.09 4.51 111.02 4.14 116.95 4.57 122.8 5.27 116.9 5.32 111.03 5.35 105.23 6.17 103.78 6.37 102.32 6.44 100.89 6.75L96.59 7.53C95.87 7.64 95.17 7.83 94.46 8L92.34 8.51C90.93 8.85 89.51 9.16 88.13 9.63 76.98 12.89 66.43 18 56.94 24.66 55.76 25.51 54.53 26.28 53.4 27.18L49.95 29.84 46.62 32.64C45.51 33.58 44.47 34.59 43.38 35.55 39.08 39.47 35.09 43.72 31.27 48.13 27.48 52.57 23.91 57.2 20.59 62.03 17.26 66.82 14.16 71.81 11.39 77.02Z" fill="#FFA6DD"/><path d="M149.81 21.63C149.81 21.63 145.13 18.33 147.07 14.65 151.4 6.44 167.93 14.58 179.32 23.8 190.71 33.03 205.6 48.75 209.44 66.31 213.42 84.53 205.61 37.58 149.81 21.63Z" fill="#FFCCEB"/><path d="M39.97 185.78C39.97 185.78 22.48 163.38 17.39 151.57 11.5 137.92 6.4 109.45 11.61 109.3 20.13 109.05 12.1 123.99 23.92 157.27 26.85 165.54 39.97 185.78 39.97 185.78Z" fill="#FFCCEB"/><path d="M88.47 216.14C95.53 218.02 102.75 219.17 110.01 219.74 117.26 220.34 124.56 220.35 131.77 219.63 135.38 219.25 138.97 218.75 142.51 218.02 144.29 217.7 146.04 217.23 147.8 216.82L150.41 216.08C151.28 215.84 152.15 215.58 153 215.28L155.57 214.42 158.1 213.44 159.36 212.95 160.6 212.4 163.07 211.3C166.3 209.69 169.5 208.01 172.49 205.99 184.42 197.91 195.09 187.67 203.33 175.75 207.49 169.81 211.09 163.47 213.93 156.78 216.8 150.11 219.06 143.13 220.13 135.9 219.85 139.55 219.13 143.15 218.21 146.69L217.5 149.35 216.67 151.97C216.16 153.73 215.46 155.43 214.83 157.15 212.14 163.98 208.65 170.49 204.59 176.61L203.04 178.89C202.53 179.65 202.02 180.42 201.44 181.13L198.02 185.46C196.88 186.9 195.58 188.21 194.36 189.59L192.51 191.64C191.9 192.33 191.2 192.93 190.55 193.58L186.58 197.41C185.24 198.67 183.78 199.79 182.38 200.99 179.59 203.38 176.68 205.67 173.55 207.65 170.46 209.69 167.17 211.39 163.86 213.01L161.32 214.12 160.05 214.67 158.76 215.16 156.17 216.14 153.54 217C152.67 217.3 151.78 217.56 150.89 217.8L148.22 218.53C146.42 218.93 144.64 219.4 142.82 219.71 139.21 220.44 135.55 220.87 131.88 221.15 117.24 222.19 102.4 220.59 88.47 216.14Z" fill="#FFCCEB"/><path d="M240.76 122.11C240.67 128.17 240.12 134.19 239.13 140.15 233.76 172.31 215.47 202.21 186.05 221.34 151.28 243.95 109.09 246.26 73.47 231.25 73.47 231.25 140.75 245.34 185.03 212.84 229.31 180.34 240.76 122.11 240.76 122.11Z" fill="#8324BA"/></g><path d="M71.39 126.23 79.24 146.82C79.24 146.82 60.13 169.39 57.28 173.86 55.19 177.12 53.65 182.37 52.77 186 52.31 187.88 50.02 188.64 48.55 187.38 42.78 182.44 38.35 176.5 35.07 171.06L35.07 171.05C32.45 166.69 30.58 162.65 29.35 159.69 28.66 158.02 30.34 156.36 32.01 157.04 34.78 158.18 38.5 159.31 42.18 159.25 47.13 159.15 59.04 143.66 66.02 133.94L66.02 133.93C69.22 129.47 71.39 126.23 71.39 126.23Z" fill="url(#SVGID_2_)"/><path d="M71.39 126.23 79.24 146.82C79.24 146.82 60.13 169.39 57.28 173.86 55.19 177.12 53.65 182.37 52.77 186 52.31 187.88 50.02 188.64 48.55 187.38 42.78 182.44 38.35 176.5 35.07 171.06 35.37 171.36 43.61 179.03 45.2 178.76 46.83 178.49 48.48 178.4 50.04 174.57 51.6 170.74 68.99 148.39 69.43 144.84 70.23 138.29 66.27 133.59 66.27 133.59L66.02 133.94 66.02 133.93C69.22 129.47 71.39 126.23 71.39 126.23Z" fill="#B82CDB"/><path d="M210.19 82.26C210.75 84.11 209.13 85.9 207.22 85.55 203.54 84.89 198.12 84.16 194.3 84.75 189.06 85.55 160.68 93.86 160.68 93.86L145.05 78.33C145.05 78.33 149.16 77.62 154.81 76.43 166.57 73.96 185 69.45 187.07 65.02 188.62 61.68 189.1 57.82 189.17 54.83 189.23 53.02 191.43 52.16 192.68 53.47 193.09 53.89 193.51 54.36 193.96 54.84 193.96 54.84 193.96 54.85 193.98 54.86 199.03 60.43 206.6 70.24 210.19 82.26Z" fill="url(#SVGID_3_)"/><path d="M148.9 209.24C145.92 195.31 142.62 185.12 139.59 177.79 134.07 164.37 129.47 160.46 129.47 160.46 129.47 160.46 146.82 138.62 152.54 145.46 156.21 149.85 157.74 155.3 167.57 163.93 173.02 168.73 181.03 174.52 193.39 181.66 197.47 184 151.02 219.14 148.9 209.24Z" fill="url(#SVGID_4_)"/><g><linearGradient x1="446.544" y1="3.911" x2="446.544" y2="-75.5204" gradientUnits="userSpaceOnUse" id="SVGID_5_" gradientTransform="matrix(0.8383 -0.5451 0.5451 0.8383 -233.783 394.796)"><stop offset="0" stop-color="#220052"/><stop offset="1" stop-color="#5647BA"/></linearGradient><linearGradient x1="398.826" y1="-36.682" x2="458.096" y2="-36.682" gradientUnits="userSpaceOnUse" id="SVGID_6_" gradientTransform="matrix(0.8383 -0.5451 0.5451 0.8383 -233.783 394.796)"><stop offset="0" stop-color="#754B64"/><stop offset="0.2357" stop-color="#915E7D"/><stop offset="0.7419" stop-color="#D88CBB"/><stop offset="1" stop-color="#FFA6DD"/></linearGradient><linearGradient x1="402.271" y1="-67.1618" x2="488.532" y2="-67.1618" gradientUnits="userSpaceOnUse" id="SVGID_7_" gradientTransform="matrix(0.8383 -0.5451 0.5451 0.8383 -233.783 394.796)"><stop offset="0" stop-color="#B82CDB"/><stop offset="1" stop-color="#EAE8FF"/></linearGradient><linearGradient x1="474.929" y1="2.9461" x2="474.929" y2="-43.4204" gradientUnits="userSpaceOnUse" id="SVGID_8_" gradientTransform="matrix(0.8383 -0.5451 0.5451 0.8383 -233.783 394.796)"><stop offset="0" stop-color="#B82CDB"/><stop offset="1" stop-color="#EAE8FF"/></linearGradient><linearGradient x1="444.279" y1="-31.872" x2="444.279" y2="-58.8078" gradientUnits="userSpaceOnUse" id="SVGID_9_" gradientTransform="matrix(0.8383 -0.5451 0.5451 0.8383 -233.783 394.796)"><stop offset="0" stop-color="#F6E4C0"/><stop offset="1" stop-color="#ADA0BC"/></linearGradient><path d="M160.92 93.7C160.92 93.7 160.46 94.5 159.75 95.96 156.28 103 146.66 125.26 152.54 145.45 152.54 145.45 151.81 146.36 150.52 147.71 149.97 148.3 149.31 148.97 148.56 149.69 144.35 153.72 137.27 159.34 129.47 160.45 129.47 160.45 115.68 145.81 79.24 146.81 79.24 146.81 69.62 135.21 71.38 126.24 71.38 126.24 71.39 126.24 71.39 126.22 71.48 125.69 71.63 125.17 71.81 124.66 75.62 114.37 83.67 98.3 98.52 88.64 109.75 81.34 123.76 77.22 133.82 76.48 135.29 76.37 136.68 76.33 137.96 76.37 139.54 76.42 140.96 76.57 142.19 76.85 142.64 76.94 143.06 77.05 143.45 77.18 148.79 78.93 154.63 84.18 158.03 88.41 159.9 90.75 161.02 92.76 160.92 93.7Z" fill="url(#SVGID_5_)"/><path d="M133.82 76.48C127.11 90.08 117.39 120.38 131.17 160.07L129.47 160.45C129.47 160.45 115.68 145.81 79.24 146.81 79.24 146.81 69.62 135.21 71.38 126.24 71.38 126.24 71.39 126.24 71.39 126.22 71.48 125.69 71.63 125.17 71.81 124.66 75.62 114.37 83.67 98.3 98.52 88.64 109.75 81.34 123.75 77.22 133.82 76.48Z" fill="url(#SVGID_6_)"/><path d="M132.87 159.69 129.47 160.46C129.47 160.46 115.68 145.82 79.24 146.82 79.24 146.82 69.62 135.22 71.38 126.25 71.38 126.25 72.33 135.8 79.66 144.35 79.66 144.35 96.52 120.74 130.09 156.57 130.79 157.33 132.25 158.98 132.87 159.69Z" fill="#B82CDB"/><path d="M142.17 76.86C141.62 77.01 123.75 81.91 103.52 94.44 85.2 105.79 71.8 125.63 71.39 126.23 71.48 125.7 71.63 125.18 71.81 124.67 75.62 114.38 83.67 98.31 98.52 88.65 111.4 80.28 127.9 76.09 137.96 76.38 139.57 76.69 140.98 76.87 142.17 76.86Z" fill="url(#SVGID_7_)"/><path d="M160.92 93.7C160.92 93.7 160.46 94.5 159.75 95.96 158.79 96.41 157.79 96.98 156.8 97.73 152.41 101.05 143.58 115.07 150.52 147.72 149.97 148.31 149.31 148.98 148.56 149.7 148.33 148.31 147.9 146.46 147.37 145.22 145.94 141.88 133.72 111.5 149.59 95.11 153.12 91.47 155.87 89.4 158.02 88.41 159.9 90.75 161.02 92.76 160.92 93.7Z" fill="url(#SVGID_8_)"/><path d="M125.23 107.28C129.28 113.52 127.52 121.85 121.29 125.91 115.05 129.96 106.71 128.2 102.66 121.96 98.61 115.73 100.37 107.38 106.61 103.33 112.84 99.27 121.17 101.04 125.23 107.28Z" fill="url(#SVGID_9_)"/><path d="M125.23 107.28C129.28 113.52 127.52 121.85 121.29 125.91 117.51 128.36 112.96 128.69 109.07 127.16 111.56 127.15 114.08 126.44 116.32 124.99 122.56 120.94 124.32 112.6 120.26 106.36 118.66 103.9 116.4 102.14 113.86 101.15 118.28 101.12 122.63 103.29 125.23 107.28Z" fill="#FFE7CF" opacity="0.7"/><g><linearGradient x1="113.954" y1="128.164" x2="113.954" y2="101.028" gradientUnits="userSpaceOnUse" id="SVGID_10_" gradientTransform="matrix(1 -0.00296064 0.00296064 1 -0.3535 0.3577)"><stop offset="0" stop-color="#696255"/><stop offset="1" stop-color="#412D59"/></linearGradient><path d="M121.34 125.99C115.07 130.07 106.64 128.28 102.56 122.01 98.48 115.74 100.27 107.31 106.54 103.23 112.81 99.15 121.23 100.94 125.31 107.21 129.39 113.49 127.61 121.92 121.34 125.99ZM106.66 103.41C100.48 107.43 98.73 115.72 102.74 121.89 106.76 128.07 115.05 129.82 121.22 125.81 127.39 121.8 129.15 113.51 125.13 107.33 121.12 101.16 112.83 99.4 106.66 103.41Z" fill="url(#SVGID_10_)"/></g></g><g><path d="M35.37 161.04C38.21 161.82 41.24 162.04 43.63 160.59 44.87 159.91 46.05 159.12 47.16 158.21 48.28 157.32 49.36 156.35 50.38 155.34 52.46 153.33 54.39 151.14 56.3 148.92 58.19 146.69 60.04 144.4 61.9 142.1 60.63 144.78 59.06 147.31 57.34 149.73 55.62 152.15 53.7 154.44 51.56 156.55 49.4 158.62 47.03 160.57 44.19 161.8 43.84 161.96 43.47 162.08 43.11 162.21 42.73 162.32 42.34 162.45 41.94 162.49 41.15 162.6 40.37 162.6 39.6 162.5 38.1 162.27 36.65 161.79 35.37 161.04Z" fill="#FFA6DD"/></g><path d="M210.19 82.26C210.75 84.11 209.13 85.9 207.22 85.55 203.54 84.89 198.12 84.16 194.3 84.75 189.06 85.55 160.68 93.86 160.68 93.86L145.05 78.33C145.05 78.33 149.16 77.62 154.81 76.43L154.82 76.43C154.82 76.43 164.37 86.1 171.77 85.2 179.17 84.3 197.06 76.04 197.95 73.44 198.85 70.83 193.96 54.85 193.96 54.85 193.96 54.85 193.96 54.86 193.98 54.87 199.03 60.43 206.6 70.24 210.19 82.26Z" fill="#B82CDB"/><g><path d="M164.16 76.36C166.49 75.61 168.79 74.81 171.09 74.04 173.38 73.25 175.66 72.46 177.89 71.57 180.13 70.71 182.32 69.74 184.4 68.6 185.42 68.01 186.43 67.38 187.32 66.61 188.22 65.85 189.01 64.95 189.49 63.82 189.38 65.06 188.71 66.22 187.91 67.2 187.09 68.17 186.13 69 185.1 69.73 183.05 71.17 180.79 72.25 178.5 73.16 176.19 74.04 173.84 74.77 171.44 75.32 169.06 75.85 166.63 76.3 164.16 76.36Z" fill="#FFA6DD"/></g><path d="M167.57 163.92C162.55 163.33 154.93 163.17 149.05 166.27 144.47 168.68 141.47 173.4 139.59 177.78 134.07 164.36 129.47 160.45 129.47 160.45 129.47 160.45 146.82 138.61 152.54 145.45 156.21 149.84 157.74 155.29 167.57 163.92Z" fill="#B82CDB"/></g></g></svg>