<svg width="78.52" height="33.77" viewBox="0 0 78.52 33.77" xmlns="http://www.w3.org/2000/svg" xmlns:xlink="http://www.w3.org/1999/xlink" xml:space="preserve" overflow="hidden"><defs></defs><g><g><linearGradient x1="38.9817" y1="45.2137" x2="38.9817" y2="-58.9887" gradientUnits="userSpaceOnUse" id="SVGID_1_"><stop offset="0" stop-color="#FFFFFF"/><stop offset="0.1101" stop-color="#F7FDFE"/><stop offset="0.2808" stop-color="#E1F6FD"/><stop offset="0.4908" stop-color="#BDEBFA"/><stop offset="0.732" stop-color="#8CDCF6"/><stop offset="0.9966" stop-color="#4DC8F1"/><stop offset="1" stop-color="#4CC8F1"/></linearGradient><path d="M78.03 18.42C76.95 16.45 74.53 16.34 72.58 16.75 72.69 16.21 72.7 15.64 72.67 15.14 72.57 13.52 71.52 12.21 70.4 11.13 67.95 8.75 64.14 7.78 60.96 9.11 61.01 7.65 60.9 6.41 59.9 5.19 58.72 3.75 56.52 2.93 54.77 2.54 52.89 2.12 50.78 2.73 49.12 3.6 48.61 3.87 48.17 4.2 47.79 4.57 47.38 2.81 46.7 1.54 44.99 0.73 42.97-0.23 40.54-0.11 38.42 0.4 34.83 1.26 31.81 3.95 31.08 7.59 30.64 7.11 30.12 6.68 29.72 6.3 28.02 4.72 25.66 4.38 23.43 4.25 19.04 3.99 15.91 6.06 13.86 9.72 12.16 8.12 9.37 7.65 7.2 8.06 6.68 8.16 6.17 8.26 5.67 8.4 3.07 9.8 0.58 11.4 0.1 14.63-0.34 17.69 0.6 20.42 2.7 22.41 4.04 23.33 5.68 23.74 7.44 23.61 7.44 23.61 7.46 23.61 7.46 23.61 7.46 23.98 7.5 24.34 7.58 24.72 7.97 26.57 9.94 27.78 11.51 28.53 14.71 30.05 20.27 30.6 23.04 27.82 23.05 27.88 23.08 27.94 23.1 27.99 23.58 29.08 24.35 29.94 25.25 30.71 27.03 32.23 29.63 32.98 31.87 33.55 36 34.6 41.15 32.22 42.47 28.12 42.82 29.3 43.97 30.35 44.96 30.94 46.71 31.99 48.64 32.22 50.63 31.8 53.1 31.28 55.7 29.37 56.32 26.94 57.59 29.38 61.54 29.24 63.81 28.26 65.14 27.68 66.64 26.48 67.3 25.06 68.06 25.96 70.1 26.3 70.96 26.32 73.14 26.37 75.35 25.62 76.91 24.09 78.39 22.6 79.04 20.27 78.03 18.42Z" fill="#26BAE2"/><path d="M75.74 23.88C74.43 24.97 72.51 25.27 70.85 25.23 70.12 25.22 69.51 25.01 68.86 24.69 68.36 24.44 68.09 23.97 67.62 23.77 67.66 23.27 67.56 22.77 67.33 22.27 67.19 22.88 66.95 23.45 66.64 23.98 66.37 25.63 65.07 26.76 63.29 27.54 62.13 28.04 60.95 28.08 59.71 27.93 58.17 27.74 57.48 27.03 56.43 26.16 56.47 25.59 56.41 25 56.2 24.4 56.2 25.06 56.04 25.74 55.86 26.25 55.68 26.72 55.42 27.13 55.12 27.51 54.93 27.9 54.68 28.29 54.36 28.67 53.33 29.86 51.78 30.55 50.28 30.87 47.62 31.44 43.64 29.94 42.72 27.12 43.01 27.03 43.29 26.91 43.54 26.76 44.05 26.46 44.69 25.97 44.85 25.35 44.47 25.67 44.04 25.94 43.59 26.16 43.47 26.22 43.34 26.29 43.2 26.35 42.89 26.57 42.51 26.76 42.13 26.87 41.85 26.99 41.56 27.11 41.26 27.21 41.56 27.28 41.87 27.28 42.19 27.24 41.38 28.92 40.64 30.26 38.94 31.29 36.96 32.49 34.48 32.65 32.26 32.24 30.55 31.92 28.74 31.17 27.21 30.35 26.28 29.86 25.49 29.18 24.8 28.41 24.16 27.7 23.91 26.97 23.81 26.16 23.47 26.56 23.09 26.92 22.68 27.26 20.8 28.75 18.25 29.25 15.91 29.13 13.79 29.02 11.61 28.41 10.12 26.87 9.71 26.58 9.34 26.22 9.05 25.79 8.16 24.49 7.76 22.84 8.01 21.3 7.78 21.82 7.61 22.35 7.54 22.9 6.82 22.69 6.07 22.66 5.32 22.54 4.07 22.34 3.14 21.52 2.3 20.63 0.6 18.86-0.37 15.03 1.32 12.9 1.97 12.08 2.74 11.34 3.5 10.62 4.59 9.59 5.73 9.25 7.18 8.99 9.25 8.62 12.13 9.11 13.6 10.82 13.67 10.91 13.79 10.92 13.9 10.9 14.62 9.07 15.87 7.49 17.44 6.5 18.94 5.4 20.9 5.09 22.7 5.09 24.32 5.08 26.04 5.33 27.53 5.9 28.21 6.15 29.15 6.73 29.96 7.45 30.84 8.04 31.49 9.03 31.84 10.1L31.85 10.09C32.2 9.21 31.81 8.42 31.21 7.72 32.13 4.24 34.93 1.78 38.39 1.01 40.12 0.62 41.94 0.73 43.6 1.26 45.7 1.94 46.24 3.34 46.8 5.26 46.84 5.39 46.9 5.47 46.98 5.53 46.67 5.96 46.41 6.44 46.15 6.93 46.16 6.92 46.16 6.92 46.16 6.92 46.91 5.89 48.03 5.09 49.25 4.65 50.62 3.86 52.2 3.48 53.99 3.68 55.55 3.86 57.08 4.7 58.36 5.59 59.81 6.61 60.09 8.03 60.09 9.7 60.29 9.6 60.49 9.52 60.67 9.45 62.02 8.89 63.56 8.86 64.94 9.34 65.38 9.49 65.79 9.68 66.16 9.9 67.99 10.43 69.66 11.5 70.65 12.93 70.78 13 70.9 13.12 71 13.31 71.79 14.84 72.18 16.58 71.91 18.2 72.17 17.93 72.35 17.6 72.47 17.23 73.99 17.22 75.43 17.34 76.64 18.39 78.45 19.96 77.27 22.6 75.74 23.88Z" fill="url(#SVGID_1_)"/><path d="M76.63 18.38C75.41 17.33 73.98 17.22 72.46 17.22 72.34 17.59 72.16 17.93 71.9 18.19 72.17 16.57 71.77 14.83 70.99 13.3 70.89 13.11 70.78 12.99 70.64 12.92 69.65 11.49 67.97 10.42 66.15 9.89 65.78 9.67 65.37 9.48 64.93 9.33 63.54 8.86 62 8.89 60.65 9.45 60.47 9.52 60.27 9.61 60.07 9.7 60.07 9.68 60.06 9.66 60.06 9.63 60.01 9.72 59.94 9.8 59.88 9.89 64.81 9.93 70.03 16.52 66.66 21.52 64.79 24.3 60.86 24.9 57.94 23.66 57.42 23.44 56.84 23 56.29 22.43 55.57 24.04 54.27 25.4 52.33 26.18 48.32 27.78 46.01 25.61 45.54 22.65 43.79 24.3 41.36 25.39 39.17 25.56 37.74 25.67 35.58 25.65 34.55 24.38 33.83 24.63 33.07 24.8 32.29 24.85 28.28 25.09 25.85 23.06 24.78 20.22 22.48 22.72 18.9 24.26 15.71 24.04 13.13 23.86 9.69 23.16 8.91 20.2 8.74 19.55 8.67 18.92 8.7 18.31 6.82 18.91 4.87 18.74 3.44 17.05 1.95 15.28 1.76 13.34 2.41 11.63 2.02 12.04 1.63 12.45 1.27 12.9-0.42 15.02 0.55 18.86 2.25 20.63 3.09 21.51 4.02 22.34 5.27 22.54 6.02 22.66 6.77 22.69 7.49 22.9 7.57 22.35 7.74 21.82 7.96 21.3 7.72 22.84 8.11 24.49 9 25.79 9.29 26.22 9.66 26.58 10.07 26.87 11.57 28.41 13.75 29.02 15.86 29.13 18.2 29.26 20.75 28.75 22.63 27.26 23.05 26.92 23.43 26.56 23.76 26.16 23.86 26.97 24.11 27.7 24.75 28.41 25.44 29.18 26.23 29.86 27.16 30.35 28.69 31.16 30.5 31.92 32.21 32.24 34.44 32.65 36.92 32.49 38.89 31.29 40.59 30.26 41.33 28.92 42.14 27.24 41.83 27.29 41.51 27.28 41.21 27.21 41.51 27.11 41.8 26.99 42.08 26.87 42.46 26.76 42.84 26.57 43.15 26.35 43.28 26.28 43.42 26.22 43.54 26.16 44 25.93 44.42 25.66 44.8 25.35 44.65 25.97 44.01 26.46 43.49 26.76 43.24 26.91 42.96 27.03 42.67 27.12 43.59 29.95 47.57 31.44 50.23 30.87 51.74 30.55 53.29 29.86 54.31 28.67 54.64 28.29 54.88 27.9 55.07 27.51 55.37 27.13 55.63 26.71 55.81 26.25 55.99 25.74 56.15 25.06 56.15 24.4 56.36 25 56.42 25.59 56.38 26.16 57.43 27.03 58.12 27.74 59.66 27.93 60.91 28.08 62.08 28.04 63.24 27.54 65.03 26.76 66.33 25.62 66.59 23.98 66.91 23.45 67.15 22.88 67.28 22.27 67.51 22.77 67.61 23.27 67.57 23.77 68.04 23.97 68.31 24.43 68.81 24.69 69.45 25.01 70.06 25.22 70.8 25.23 72.45 25.27 74.38 24.97 75.69 23.88 77.27 22.6 78.45 19.96 76.63 18.38ZM74.98 20.15C74.6 21.44 73.5 22.72 72.22 23.19 70.76 23.72 68.41 23.15 68.86 21.14 69.38 18.8 71.67 18.28 73.72 18.09 73.95 18.07 74.08 18.17 74.13 18.31 74.85 18.53 75.27 19.17 74.98 20.15Z" fill="#C1D3DD" opacity="0.5"/></g><path d="M12.06 11.6C11.94 9.7 9.73 9.41 8.28 9.73 6.82 10.04 5.2 11.08 4.5 12.5 4.14 13.09 3.97 13.76 4.18 14.4 4.51 16.58 7.44 16.46 8.97 15.56 9.08 15.5 9.19 15.42 9.3 15.34 10.82 14.67 12.16 13.38 12.06 11.6Z" fill="#FFFFFF"/><path d="M26.21 8.86C25.74 6.67 22.92 6.77 21.2 7.09 19.13 7.48 15.94 9.53 16.15 11.96 16.27 13.37 17.13 13.96 18.2 14.09 19.15 14.54 20.61 14.47 21.54 14.17 23.73 13.49 26.8 11.61 26.21 8.86Z" fill="#FFFFFF"/><path d="M41.65 3.28C41.54 3.23 41.42 3.19 41.3 3.16 40.31 2.74 39.09 2.93 38.14 3.34 37.94 3.42 37.7 3.56 37.47 3.72 36.87 4.02 36.33 4.45 35.93 4.99 35.54 5.51 34.99 6.51 35.22 7.23 35.14 7.61 35.13 7.99 35.22 8.39 35.43 9.31 36.51 9.44 37.27 9.35 38.09 9.25 38.88 8.86 39.6 8.45 40.38 8.14 41.09 7.69 41.7 7.11 42.77 6.07 43.29 4 41.65 3.28Z" fill="#FFFFFF"/></g></svg>