<svg width="242.51" height="250.97" viewBox="0 0 242.51 250.97" xmlns="http://www.w3.org/2000/svg" xmlns:xlink="http://www.w3.org/1999/xlink" xml:space="preserve" overflow="hidden"><defs></defs><g><path d="M203.24 42.24 196.16 33.57 190.12 41.86 192.03 41.86 196.1 34.72 200.82 41.86Z" fill="#FFD55F"/><path d="M121.1 212.22 127.65 203.15 134.18 211.06 132.27 211.17 127.78 204.29 123.49 211.7Z" fill="#FFD55F"/><g><linearGradient x1="-278.811" y1="74.2272" x2="-246.623" y2="74.2272" gradientUnits="userSpaceOnUse" id="SVGID_1_" gradientTransform="matrix(0.9982 -0.0595 0.0595 0.9982 385.422 127.984)"><stop offset="0" stop-color="#FF5952"/><stop offset="1" stop-color="#B50D4D"/></linearGradient><defs><filter id="Adobe_OpacityMaskFilter" x="115.57" y="210.5" width="28.17" height="13.68" filterUnits="userSpaceOnUse" primitiveUnits="userSpaceOnUse"><feFlood flood-color="#FFFFFF" result="back"/><feBlend in="SourceGraphic" in2="back" mode="normal"/></filter></defs><mask maskUnits="userSpaceOnUse" x="115.57" y="210.5" width="28.17" height="13.68" id="SVGID_2_"><g filter="url(#Adobe_OpacityMaskFilter)"><defs><filter id="Adobe_OpacityMaskFilter_1_" x="115.57" y="210.5" width="28.17" height="13.68" filterUnits="userSpaceOnUse" primitiveUnits="userSpaceOnUse"><feFlood flood-color="#FFFFFF" result="back"/><feBlend in="SourceGraphic" in2="back" mode="normal"/></filter></defs><mask maskUnits="userSpaceOnUse" x="115.57" y="210.5" width="28.17" height="13.68" id="SVGID_2_"><g filter="url(#Adobe_OpacityMaskFilter_1_)"></g></mask><linearGradient x1="-199.844" y1="91.8615" x2="-265.477" y2="71.4372" gradientUnits="userSpaceOnUse" id="SVGID_3_" gradientTransform="matrix(0.9982 -0.0595 0.0595 0.9982 385.422 127.984)"><stop offset="0"/><stop offset="1" stop-color="#FFFFFF"/></linearGradient><path d="M143.74 218.17C143.74 218.17 142.71 223.44 141.71 223.5 140.71 223.56 139.57 218.59 139.57 218.59 139.57 218.59 137.55 224.08 135.52 223.87 133.49 223.66 133.2 218.8 133.2 218.8 133.2 218.8 131.68 224.26 130.33 224.18 128.98 224.09 127.19 219.33 127.19 219.33 127.19 219.33 127.17 219.74 127.12 220.34L126.99 218.84 115.57 218.85C115.57 218.85 139 217.45 139.95 216.56 140.89 215.68 137.34 210.65 137.24 210.51L143.74 218.17Z" fill="url(#SVGID_3_)" mask="url(#SVGID_2_)"/></g></mask><linearGradient x1="-199.844" y1="91.8615" x2="-265.477" y2="71.4372" gradientUnits="userSpaceOnUse" id="SVGID_4_" gradientTransform="matrix(0.9982 -0.0595 0.0595 0.9982 385.422 127.984)"><stop offset="0" stop-color="#994FD3"/><stop offset="1" stop-color="#820C25"/></linearGradient><linearGradient x1="-268.498" y1="74.3457" x2="-271.815" y2="73.1748" gradientUnits="userSpaceOnUse" id="SVGID_5_" gradientTransform="matrix(0.9982 -0.0595 0.0595 0.9982 385.422 127.984)"><stop offset="0"/><stop offset="1" stop-color="#598D3D"/></linearGradient><path d="M132.6 234.11 133.93 219.76 134.93 219.7C134.93 219.7 134.13 231.29 136.15 231.53 138.17 231.77 138.17 231.77 138.17 231.77L133.92 236.56 132.6 234.11Z" fill="#9B1538"/><path d="M141.61 218.97 136.12 242.47 120.89 243.38 116.83 225.85 115.69 220.92 117.52 220.67C117.52 220.67 117.77 222.92 118.2 225.53 118.79 229.14 119.73 233.42 120.79 233.35 121.89 233.28 121.69 228.57 121.36 224.81 121.14 222.3 120.85 220.21 120.85 220.21L123.08 218.41 123.09 218.4C123.09 218.4 123.09 218.4 123.09 218.41 123.09 218.58 123.11 221.3 123.37 224.36 123.66 227.9 124.25 231.88 125.47 232.87 126.53 233.74 129.04 233.9 131.79 233.5 132.42 233.41 133.07 233.29 133.71 233.14 139.01 231.9 140.26 219.06 140.26 219.06L141.61 218.97Z" fill="#9ADB9A"/><path d="M117.53 220.67C117.53 220.67 117.78 222.92 118.21 225.53L116.84 225.84 115.7 220.91 117.53 220.67Z" fill="#2B748E"/><path d="M123.1 218.4C123.1 218.57 123.12 221.29 123.38 224.35L121.37 224.81C121.15 222.3 120.86 220.21 120.86 220.21L123.09 218.41 123.1 218.4Z" fill="#2B748E"/><path d="M141.61 218.97 136.12 242.47 129.18 242.88C129.94 241.06 130.67 239.02 131.09 237.06 131.3 236.08 131.54 234.85 131.79 233.49 132.42 233.4 133.07 233.28 133.71 233.13 139.01 231.89 140.26 219.05 140.26 219.05L141.61 218.97Z" fill="#2B748E"/><path d="M143.74 218.17C143.74 218.17 142.71 223.44 141.71 223.5 140.71 223.56 139.57 218.59 139.57 218.59 139.57 218.59 137.55 224.08 135.52 223.87 133.49 223.66 133.2 218.8 133.2 218.8 133.2 218.8 131.68 224.26 130.33 224.18 128.98 224.09 127.19 219.33 127.19 219.33 127.19 219.33 127.17 219.74 127.12 220.34 126.99 221.85 126.62 224.53 125.65 224.46 124.3 224.37 122.5 219.44 122.5 219.44 122.5 219.44 121.13 224.56 119.63 224.82 118.13 225.08 116.85 220.45 116.85 220.45 116.85 220.45 116.82 223.24 115.96 224.49 115.7 224.87 115.37 225.11 114.94 225.09 113.09 225.03 111.65 220.58 111.65 220.58L115.83 211.77 137.25 210.49C137.25 210.49 137.25 210.49 137.25 210.49L143.74 218.17Z" fill="url(#SVGID_1_)"/><path d="M143.74 218.17C143.74 218.17 142.71 223.44 141.71 223.5 140.71 223.56 139.57 218.59 139.57 218.59 139.57 218.59 137.55 224.08 135.52 223.87 133.49 223.66 133.2 218.8 133.2 218.8 133.2 218.8 131.68 224.26 130.33 224.18 128.98 224.09 127.19 219.33 127.19 219.33 127.19 219.33 127.17 219.74 127.12 220.34L126.99 218.84 115.57 218.85C115.57 218.85 139 217.45 139.95 216.56 140.89 215.68 137.34 210.65 137.24 210.51L143.74 218.17Z" fill="url(#SVGID_4_)" opacity="0.52"/><path d="M114.92 224.92C115.33 224.9 115.67 224.73 115.95 224.48 115.69 224.86 115.36 225.1 114.93 225.08 113.08 225.02 111.64 220.57 111.64 220.57L115.82 211.76 128.1 211.03 128.12 211.03 116.35 212.23 112.89 218.99 112.61 219.85C112.61 219.85 113.25 225.02 114.92 224.92Z" fill="url(#SVGID_5_)"/></g><g><path d="M128.81 201.66C129.92 202.64 130.16 204.17 129.36 205.07 128.56 205.97 127.02 205.9 125.91 204.92 124.8 203.94 124.56 202.41 125.36 201.51 126.16 200.61 127.71 200.68 128.81 201.66Z" fill="#F26200"/><path d="M128.79 201.64C129.9 202.62 130.14 204.15 129.34 205.05 128.8 205.65 127.93 205.82 127.08 205.57 127.82 205.69 128.54 205.5 129 204.97 129.8 204.07 129.55 202.55 128.45 201.56 128.09 201.24 127.68 201.01 127.26 200.89 127.79 200.98 128.33 201.23 128.79 201.64Z" fill="#BC4824"/><path d="M127.57 200.98C126.83 200.86 126.11 201.05 125.64 201.58 124.84 202.48 125.09 204 126.19 204.99 126.57 205.33 127 205.55 127.43 205.67 126.91 205.58 126.37 205.33 125.91 204.93 124.8 203.95 124.56 202.42 125.36 201.52 125.89 200.92 126.74 200.74 127.57 200.98Z" fill="#FFA645"/><path d="M127.31 202.34C127.13 202.38 126.98 202.47 126.85 202.6 126.49 203 126.6 203.69 127.1 204.13 127.31 204.32 127.55 204.43 127.79 204.47 127.44 204.55 127.03 204.43 126.7 204.14 126.2 203.7 126.09 203.02 126.45 202.61 126.66 202.38 126.98 202.29 127.31 202.34Z" fill="#BC4824"/><path d="M125.75 202C125.19 202.63 125.42 203.74 126.26 204.48 127.1 205.22 128.23 205.32 128.78 204.69 129.34 204.06 129.11 202.95 128.27 202.21 127.43 201.46 126.3 201.37 125.75 202ZM128.57 204.57C128.09 205.11 127.11 205.03 126.38 204.39 125.65 203.74 125.45 202.78 125.94 202.23 126.42 201.69 127.41 201.77 128.13 202.41 128.85 203.06 129.05 204.02 128.57 204.57Z" fill="#BC4824"/></g><path d="M113.22 10.7 120.24 1.99 126.34 10.23 124.43 10.24 120.3 3.14 115.64 10.3Z" fill="#FFB536"/><g><linearGradient x1="62.2259" y1="-16.8209" x2="94.4124" y2="-16.8209" gradientUnits="userSpaceOnUse" id="SVGID_6_" gradientTransform="matrix(1 -0.0071 0.0071 1 41.2213 33.9007)"><stop offset="0" stop-color="#FF5952"/><stop offset="1" stop-color="#B50D4D"/></linearGradient><defs><filter id="Adobe_OpacityMaskFilter_2_" x="107.35" y="9.83" width="28.17" height="13.3" filterUnits="userSpaceOnUse" primitiveUnits="userSpaceOnUse"><feFlood flood-color="#FFFFFF" result="back"/><feBlend in="SourceGraphic" in2="back" mode="normal"/></filter></defs><mask maskUnits="userSpaceOnUse" x="107.35" y="9.83" width="28.17" height="13.3" id="SVGID_7_"><g filter="url(#Adobe_OpacityMaskFilter_2_)"><defs><filter id="Adobe_OpacityMaskFilter_3_" x="107.35" y="9.83" width="28.17" height="13.3" filterUnits="userSpaceOnUse" primitiveUnits="userSpaceOnUse"><feFlood flood-color="#FFFFFF" result="back"/><feBlend in="SourceGraphic" in2="back" mode="normal"/></filter></defs><mask maskUnits="userSpaceOnUse" x="107.35" y="9.83" width="28.17" height="13.3" id="SVGID_7_"><g filter="url(#Adobe_OpacityMaskFilter_3_)"></g></mask><linearGradient x1="141.189" y1="0.8123" x2="75.5596" y2="-19.6108" gradientUnits="userSpaceOnUse" id="SVGID_8_" gradientTransform="matrix(1 -0.0071 0.0071 1 41.2213 33.9007)"><stop offset="0"/><stop offset="1" stop-color="#FFFFFF"/></linearGradient><path d="M135.52 17.83C135.52 17.83 134.22 23.04 133.21 23.04 132.2 23.05 131.33 18.02 131.33 18.02 131.33 18.02 129.02 23.4 127.01 23.08 125 22.76 124.96 17.9 124.96 17.9 124.96 17.9 123.15 23.28 121.81 23.12 120.47 22.96 118.92 18.11 118.92 18.11 118.92 18.11 118.88 18.52 118.8 19.11L118.75 17.61 107.35 17.02C107.35 17.02 130.82 16.85 131.82 16.01 132.81 15.18 129.52 9.97 129.43 9.83L135.52 17.83Z" fill="url(#SVGID_8_)" mask="url(#SVGID_7_)"/></g></mask><linearGradient x1="141.189" y1="0.8123" x2="75.5596" y2="-19.6108" gradientUnits="userSpaceOnUse" id="SVGID_9_" gradientTransform="matrix(1 -0.0071 0.0071 1 41.2213 33.9007)"><stop offset="0" stop-color="#994FD3"/><stop offset="1" stop-color="#820C25"/></linearGradient><linearGradient x1="72.5387" y1="-16.702" x2="69.2214" y2="-17.8728" gradientUnits="userSpaceOnUse" id="SVGID_10_" gradientTransform="matrix(1 -0.0071 0.0071 1 41.2213 33.9007)"><stop offset="0"/><stop offset="1" stop-color="#598D3D"/></linearGradient><path d="M123.56 33.17 125.64 18.91 126.65 18.9C126.65 18.9 125.25 30.43 127.25 30.77 129.25 31.12 129.25 31.12 129.25 31.12L124.76 35.68 123.56 33.17Z" fill="#9B1538"/><path d="M133.35 18.51 126.64 41.69 111.38 41.8 108.24 24.08 107.36 19.1 109.2 18.95C109.2 18.95 109.33 21.21 109.63 23.84 110.03 27.47 110.74 31.8 111.81 31.79 112.92 31.78 112.96 27.06 112.82 23.29 112.73 20.77 112.55 18.66 112.55 18.66L114.87 16.98 114.88 16.97C114.88 16.97 114.88 16.97 114.88 16.98 114.87 17.15 114.75 19.87 114.84 22.94 114.95 26.49 115.33 30.49 116.49 31.55 117.5 32.47 120 32.77 122.77 32.51 123.41 32.45 124.06 32.36 124.71 32.25 130.07 31.29 131.99 18.53 131.99 18.53L133.35 18.51Z" fill="#9ADB9A"/><path d="M109.21 18.95C109.21 18.95 109.34 21.21 109.64 23.84L108.25 24.08 107.37 19.1 109.21 18.95Z" fill="#2B748E"/><path d="M114.9 16.98C114.89 17.15 114.77 19.87 114.86 22.94L112.83 23.29C112.74 20.77 112.56 18.66 112.56 18.66L114.88 16.98 114.9 16.98Z" fill="#2B748E"/><path d="M133.35 18.51 126.64 41.69 119.69 41.74C120.54 39.97 121.38 37.96 121.91 36.02 122.17 35.05 122.48 33.83 122.79 32.49 123.43 32.43 124.08 32.34 124.73 32.23 130.09 31.27 132.01 18.51 132.01 18.51L133.35 18.51Z" fill="#2B748E"/><path d="M135.52 17.83C135.52 17.83 134.22 23.04 133.21 23.04 132.2 23.05 131.33 18.02 131.33 18.02 131.33 18.02 129.02 23.4 127.01 23.08 125 22.76 124.96 17.9 124.96 17.9 124.96 17.9 123.15 23.28 121.81 23.12 120.47 22.96 118.92 18.11 118.92 18.11 118.92 18.11 118.88 18.52 118.8 19.11 118.59 20.61 118.08 23.26 117.11 23.15 115.77 22.99 114.22 17.97 114.22 17.97 114.22 17.97 112.58 23.01 111.07 23.19 109.56 23.37 108.52 18.68 108.52 18.68 108.52 18.68 108.34 21.46 107.42 22.67 107.14 23.03 106.8 23.25 106.37 23.22 104.52 23.07 103.32 18.55 103.32 18.55L107.95 9.97 129.41 9.82C129.41 9.82 129.41 9.82 129.41 9.82L135.52 17.83Z" fill="url(#SVGID_6_)"/><path d="M135.52 17.83C135.52 17.83 134.22 23.04 133.21 23.04 132.2 23.05 131.33 18.02 131.33 18.02 131.33 18.02 129.02 23.4 127.01 23.08 125 22.76 124.96 17.9 124.96 17.9 124.96 17.9 123.15 23.28 121.81 23.12 120.47 22.96 118.92 18.11 118.92 18.11 118.92 18.11 118.88 18.52 118.8 19.11L118.75 17.61 107.35 17.02C107.35 17.02 130.82 16.85 131.82 16.01 132.81 15.18 129.52 9.97 129.43 9.83L135.52 17.83Z" fill="url(#SVGID_9_)" opacity="0.52"/><path d="M106.39 23.06C106.8 23.06 107.15 22.91 107.44 22.68 107.16 23.04 106.82 23.26 106.39 23.23 104.54 23.08 103.34 18.56 103.34 18.56L107.97 9.98 120.27 9.89 120.29 9.89 108.48 10.47 104.67 17.04 104.34 17.88C104.34 17.88 104.71 23.08 106.39 23.06Z" fill="url(#SVGID_10_)"/></g><path d="M38.89 43 45.97 34.34 52.01 42.62 50.1 42.62 46.02 35.48 41.31 42.62Z" fill="#FFD55F"/><g><path d="M120.68 189.84C108.93 189.84 97.53 187.7 86.8 183.47 76.43 179.38 67.12 173.54 59.12 166.09 51.12 158.64 44.84 149.96 40.45 140.29 35.9 130.28 33.6 119.65 33.6 108.69 33.6 97.73 35.9 87.1 40.45 77.09 44.84 67.42 51.12 58.75 59.12 51.29 67.12 43.84 76.43 37.99 86.8 33.91 97.53 29.68 108.93 27.54 120.68 27.54 132.43 27.54 143.83 29.68 154.56 33.91 164.93 38 174.24 43.84 182.24 51.29 190.24 58.74 196.52 67.42 200.91 77.09 205.46 87.1 207.76 97.73 207.76 108.69 207.76 119.65 205.46 130.28 200.91 140.29 196.52 149.96 190.24 158.63 182.24 166.09 174.24 173.54 164.93 179.39 154.56 183.47 143.84 187.7 132.44 189.84 120.68 189.84ZM120.68 30.39C73.29 30.39 36.72 65.14 36.72 109.26 36.72 153.38 77.11 186.6 120.81 186.6 168.2 186.6 206.05 152.36 206.05 108.24 206.05 67.34 168.07 30.39 120.68 30.39Z" fill="#F26200"/><path d="M181.68 82.82C178.35 75.49 173.58 68.9 167.51 63.25 161.44 57.6 154.38 53.16 146.51 50.06 138.37 46.85 129.72 45.22 120.81 45.22 111.9 45.22 103.25 46.85 95.1 50.06 87.23 53.16 80.17 57.6 74.1 63.25 68.03 68.9 63.27 75.49 59.94 82.82 56.49 90.41 54.74 98.48 54.74 106.8 54.74 115.12 56.49 123.18 59.94 130.78 63.27 138.11 68.03 144.7 74.1 150.35 80.17 156 87.23 160.44 95.1 163.54 103.24 166.75 111.89 168.38 120.81 168.38 129.72 168.38 138.37 166.75 146.51 163.54 154.38 160.44 161.44 156 167.51 150.35 173.58 144.7 178.35 138.11 181.68 130.78 185.13 123.19 186.88 115.12 186.88 106.8 186.88 98.48 185.13 90.42 181.68 82.82ZM180.88 106.83C180.88 137.78 154.5 161.62 121.26 161.62 91.68 161.62 62.46 137.78 62.46 106.83 62.46 75.88 88.01 51.92 121.26 51.92 154.5 51.92 180.88 75.87 180.88 106.83Z" fill="#FFD55F"/><path d="M177.7 85.11C174.64 78.38 170.26 72.33 164.69 67.13 159.12 61.94 152.63 57.86 145.4 55.02 137.92 52.07 129.98 50.58 121.79 50.58 113.6 50.58 105.66 52.07 98.18 55.02 90.96 57.87 84.47 61.94 78.89 67.13 73.32 72.32 68.94 78.37 65.88 85.11 62.71 92.08 61.11 99.49 61.11 107.13 61.11 114.77 62.72 122.18 65.88 129.15 68.94 135.88 73.32 141.93 78.89 147.13 84.46 152.32 90.95 156.4 98.18 159.24 105.66 162.19 113.6 163.68 121.79 163.68 129.98 163.68 137.92 162.19 145.4 159.24 152.62 156.39 159.11 152.32 164.69 147.13 170.26 141.94 174.64 135.89 177.7 129.15 180.87 122.18 182.47 114.77 182.47 107.13 182.48 99.49 180.87 92.09 177.7 85.11ZM121.25 161.62C91.67 161.62 62.45 137.78 62.45 106.83 62.45 75.88 88 51.92 121.25 51.92 154.5 51.92 180.87 75.87 180.87 106.83 180.87 137.79 154.5 161.62 121.25 161.62Z" fill="#F26200"/><path d="M34.49 112.42 206.94 108.36 207.35 106.47 34.2 110.63Z" fill="#FFD55F"/><path d="M127.07 189.35 122.2 28.04 120.27 27.49 125.73 189.61Z" fill="#FFD55F"/></g><g><ellipse cx="46.55" cy="34.34" rx="2.18" ry="2.68" fill="#F26200"/><path d="M48.72 34.31C48.72 35.79 47.74 36.99 46.54 36.99 45.73 36.99 45.03 36.45 44.65 35.65 45.05 36.28 45.67 36.69 46.37 36.69 47.57 36.69 48.55 35.49 48.55 34.01 48.55 33.53 48.44 33.07 48.26 32.68 48.56 33.13 48.72 33.69 48.72 34.31Z" fill="#BC4824"/><path d="M48.41 32.96C48.01 32.32 47.39 31.91 46.68 31.91 45.48 31.91 44.5 33.11 44.5 34.59 44.5 35.09 44.61 35.57 44.81 35.97 44.53 35.52 44.36 34.95 44.36 34.34 44.36 32.86 45.34 31.66 46.54 31.66 47.34 31.66 48.03 32.18 48.41 32.96Z" fill="#FFA645"/><path d="M47.22 33.67C47.07 33.56 46.9 33.5 46.72 33.5 46.18 33.5 45.74 34.04 45.74 34.7 45.74 34.98 45.82 35.24 45.95 35.44 45.66 35.23 45.47 34.85 45.47 34.41 45.47 33.75 45.91 33.21 46.45 33.21 46.76 33.21 47.04 33.39 47.22 33.67Z" fill="#BC4824"/><path d="M46.44 32.27C45.6 32.27 44.92 33.18 44.92 34.3 44.92 35.42 45.6 36.33 46.44 36.33 47.28 36.33 47.96 35.42 47.96 34.3 47.95 33.18 47.27 32.27 46.44 32.27ZM46.38 36.09C45.65 36.09 45.06 35.3 45.06 34.33 45.06 33.36 45.65 32.57 46.38 32.57 47.11 32.57 47.7 33.36 47.7 34.33 47.7 35.3 47.11 36.09 46.38 36.09Z" fill="#BC4824"/></g><path d="M9.75 120.61 16.61 111.77 22.86 119.91 20.95 119.95 16.7 112.92 12.16 120.17Z" fill="#FFD55F"/><g><linearGradient x1="-188.58" y1="57.9201" x2="-156.393" y2="57.9201" gradientUnits="userSpaceOnUse" id="SVGID_11_" gradientTransform="matrix(0.9997 -0.0242 0.0242 0.9997 187.075 64.2445)"><stop offset="0" stop-color="#FF5952"/><stop offset="1" stop-color="#B50D4D"/></linearGradient><defs><filter id="Adobe_OpacityMaskFilter_4_" x="3.99" y="119.45" width="28.18" height="13.43" filterUnits="userSpaceOnUse" primitiveUnits="userSpaceOnUse"><feFlood flood-color="#FFFFFF" result="back"/><feBlend in="SourceGraphic" in2="back" mode="normal"/></filter></defs><mask maskUnits="userSpaceOnUse" x="3.99" y="119.45" width="28.18" height="13.43" id="SVGID_12_"><g filter="url(#Adobe_OpacityMaskFilter_4_)"><defs><filter id="Adobe_OpacityMaskFilter_5_" x="3.99" y="119.45" width="28.18" height="13.43" filterUnits="userSpaceOnUse" primitiveUnits="userSpaceOnUse"><feFlood flood-color="#FFFFFF" result="back"/><feBlend in="SourceGraphic" in2="back" mode="normal"/></filter></defs><mask maskUnits="userSpaceOnUse" x="3.99" y="119.45" width="28.18" height="13.43" id="SVGID_12_"><g filter="url(#Adobe_OpacityMaskFilter_5_)"></g></mask><linearGradient x1="-109.614" y1="75.5539" x2="-175.246" y2="55.1301" gradientUnits="userSpaceOnUse" id="SVGID_13_" gradientTransform="matrix(0.9997 -0.0242 0.0242 0.9997 187.075 64.2445)"><stop offset="0"/><stop offset="1" stop-color="#FFFFFF"/></linearGradient><path d="M32.17 127.35C32.17 127.35 30.95 132.58 29.95 132.6 28.94 132.62 27.98 127.62 27.98 127.62 27.98 127.62 25.76 133.04 23.74 132.75 21.72 132.46 21.6 127.6 21.6 127.6 21.6 127.6 19.89 133.01 18.54 132.87 17.2 132.73 15.57 127.91 15.57 127.91 15.57 127.91 15.54 128.32 15.47 128.91L15.39 127.41 3.98 127.02C3.98 127.02 27.44 126.45 28.43 125.59 29.4 124.74 26.03 119.59 25.94 119.45L32.17 127.35Z" fill="url(#SVGID_13_)" mask="url(#SVGID_12_)"/></g></mask><linearGradient x1="-109.614" y1="75.5539" x2="-175.246" y2="55.1301" gradientUnits="userSpaceOnUse" id="SVGID_14_" gradientTransform="matrix(0.9997 -0.0242 0.0242 0.9997 187.075 64.2445)"><stop offset="0" stop-color="#994FD3"/><stop offset="1" stop-color="#820C25"/></linearGradient><linearGradient x1="-178.267" y1="58.0386" x2="-181.584" y2="56.8677" gradientUnits="userSpaceOnUse" id="SVGID_15_" gradientTransform="matrix(0.9997 -0.0242 0.0242 0.9997 187.075 64.2445)"><stop offset="0"/><stop offset="1" stop-color="#598D3D"/></linearGradient><path d="M20.47 142.89 22.3 128.59 23.31 128.57C23.31 128.57 22.1 140.12 24.11 140.43 26.12 140.74 26.12 140.74 26.12 140.74L21.7 145.37 20.47 142.89Z" fill="#9B1538"/><path d="M30 128.07 23.69 151.36 8.44 151.73 5 134.07 4.03 129.11 5.87 128.93C5.87 128.93 6.04 131.19 6.38 133.81 6.85 137.43 7.63 141.75 8.7 141.72 9.81 141.69 9.77 136.98 9.57 133.2 9.44 130.68 9.22 128.58 9.22 128.58L11.51 126.86 11.52 126.85C11.52 126.85 11.52 126.85 11.52 126.86 11.51 127.03 11.44 129.75 11.59 132.82 11.76 136.36 12.21 140.36 13.39 141.4 14.42 142.3 16.92 142.56 19.69 142.25 20.33 142.18 20.98 142.08 21.62 141.96 26.96 140.91 28.66 128.12 28.66 128.12L30 128.07Z" fill="#9ADB9A"/><path d="M5.88 128.93C5.88 128.93 6.05 131.19 6.39 133.81L5 134.07 4.03 129.11 5.88 128.93Z" fill="#2B748E"/><path d="M11.53 126.85C11.52 127.02 11.45 129.74 11.6 132.81L9.58 133.2C9.45 130.68 9.23 128.58 9.23 128.58L11.52 126.86 11.53 126.85Z" fill="#2B748E"/><path d="M30 128.07 23.69 151.36 16.74 151.53C17.56 149.74 18.36 147.72 18.86 145.78 19.11 144.8 19.39 143.58 19.68 142.24 20.32 142.17 20.97 142.07 21.61 141.95 26.95 140.9 28.65 128.11 28.65 128.11L30 128.07Z" fill="#2B748E"/><path d="M32.17 127.35C32.17 127.35 30.95 132.58 29.95 132.6 28.94 132.62 27.98 127.62 27.98 127.62 27.98 127.62 25.76 133.04 23.74 132.75 21.72 132.46 21.6 127.6 21.6 127.6 21.6 127.6 19.89 133.01 18.54 132.87 17.2 132.73 15.57 127.91 15.57 127.91 15.57 127.91 15.54 128.32 15.47 128.91 15.28 130.42 14.82 133.08 13.85 132.98 12.51 132.84 10.88 127.85 10.88 127.85 10.88 127.85 9.33 132.92 7.82 133.12 6.31 133.32 5.2 128.66 5.2 128.66 5.2 128.66 5.07 131.44 4.17 132.67 3.9 133.04 3.56 133.27 3.13 133.24 1.28 133.13 0 128.63 0 128.63L4.49 119.97 25.94 119.45C25.94 119.45 25.94 119.45 25.94 119.45L32.17 127.35Z" fill="url(#SVGID_11_)"/><path d="M32.17 127.35C32.17 127.35 30.95 132.58 29.95 132.6 28.94 132.62 27.98 127.62 27.98 127.62 27.98 127.62 25.76 133.04 23.74 132.75 21.72 132.46 21.6 127.6 21.6 127.6 21.6 127.6 19.89 133.01 18.54 132.87 17.2 132.73 15.57 127.91 15.57 127.91 15.57 127.91 15.54 128.32 15.47 128.91L15.39 127.41 3.98 127.02C3.98 127.02 27.44 126.45 28.43 125.59 29.4 124.74 26.03 119.59 25.94 119.45L32.17 127.35Z" fill="url(#SVGID_14_)" opacity="0.52"/><path d="M3.13 133.08C3.54 133.07 3.88 132.91 4.17 132.68 3.9 133.05 3.56 133.28 3.13 133.25 1.28 133.13 0 128.63 0 128.63L4.49 119.97 16.79 119.67 16.81 119.67 5 120.46 1.3 127.09 0.99 127.94C0.99 127.94 1.45 133.12 3.13 133.08Z" fill="url(#SVGID_15_)"/></g><path d="M39.82 112.29 16.14 112.09 16.11 111.01 41.72 110.52Z" fill="#FFD55F"/><g><path d="M17.83 110.32C18.9 111.34 19.09 112.87 18.26 113.74 17.43 114.61 15.89 114.49 14.82 113.47 13.75 112.45 13.56 110.92 14.39 110.05 15.22 109.18 16.76 109.3 17.83 110.32Z" fill="#F26200"/><path d="M17.81 110.3C18.88 111.32 19.07 112.85 18.24 113.72 17.68 114.31 16.8 114.44 15.96 114.16 16.69 114.31 17.42 114.14 17.9 113.63 18.73 112.76 18.54 111.23 17.47 110.21 17.12 109.88 16.72 109.64 16.31 109.5 16.83 109.61 17.36 109.88 17.81 110.3Z" fill="#BC4824"/><path d="M16.61 109.6C15.87 109.45 15.14 109.62 14.66 110.13 13.83 111 14.02 112.53 15.09 113.55 15.46 113.9 15.88 114.14 16.3 114.28 15.78 114.17 15.25 113.91 14.81 113.48 13.74 112.46 13.55 110.93 14.38 110.06 14.93 109.48 15.79 109.34 16.61 109.6Z" fill="#FFA645"/><path d="M16.3 110.95C16.12 110.98 15.96 111.06 15.84 111.2 15.47 111.59 15.55 112.28 16.03 112.74 16.23 112.93 16.47 113.05 16.71 113.1 16.36 113.16 15.95 113.04 15.63 112.73 15.15 112.27 15.06 111.58 15.44 111.19 15.65 110.97 15.97 110.89 16.3 110.95Z" fill="#BC4824"/><path d="M14.75 110.55C14.17 111.16 14.36 112.28 15.17 113.05 15.98 113.82 17.11 113.96 17.69 113.35 18.27 112.74 18.08 111.62 17.27 110.85 16.45 110.08 15.33 109.95 14.75 110.55ZM17.48 113.22C16.98 113.75 16 113.63 15.3 112.96 14.6 112.29 14.43 111.32 14.93 110.79 15.43 110.26 16.41 110.38 17.11 111.05 17.82 111.72 17.98 112.7 17.48 113.22Z" fill="#BC4824"/></g><path d="M49.88 191.07 56.43 182 62.96 189.91 61.05 190.02 56.55 183.14 52.27 190.55Z" fill="#FFD55F"/><g><linearGradient x1="-348.649" y1="48.8765" x2="-316.461" y2="48.8765" gradientUnits="userSpaceOnUse" id="SVGID_16_" gradientTransform="matrix(0.9982 -0.0595 0.0595 0.9982 385.422 127.984)"><stop offset="0" stop-color="#FF5952"/><stop offset="1" stop-color="#B50D4D"/></linearGradient><defs><filter id="Adobe_OpacityMaskFilter_6_" x="44.35" y="189.35" width="28.17" height="13.68" filterUnits="userSpaceOnUse" primitiveUnits="userSpaceOnUse"><feFlood flood-color="#FFFFFF" result="back"/><feBlend in="SourceGraphic" in2="back" mode="normal"/></filter></defs><mask maskUnits="userSpaceOnUse" x="44.35" y="189.35" width="28.17" height="13.68" id="SVGID_17_"><g filter="url(#Adobe_OpacityMaskFilter_6_)"><defs><filter id="Adobe_OpacityMaskFilter_7_" x="44.35" y="189.35" width="28.17" height="13.68" filterUnits="userSpaceOnUse" primitiveUnits="userSpaceOnUse"><feFlood flood-color="#FFFFFF" result="back"/><feBlend in="SourceGraphic" in2="back" mode="normal"/></filter></defs><mask maskUnits="userSpaceOnUse" x="44.35" y="189.35" width="28.17" height="13.68" id="SVGID_17_"><g filter="url(#Adobe_OpacityMaskFilter_7_)"></g></mask><linearGradient x1="-269.682" y1="66.5108" x2="-335.315" y2="46.0865" gradientUnits="userSpaceOnUse" id="SVGID_18_" gradientTransform="matrix(0.9982 -0.0595 0.0595 0.9982 385.422 127.984)"><stop offset="0"/><stop offset="1" stop-color="#FFFFFF"/></linearGradient><path d="M72.52 197.02C72.52 197.02 71.49 202.29 70.49 202.35 69.49 202.41 68.35 197.44 68.35 197.44 68.35 197.44 66.33 202.93 64.3 202.72 62.27 202.51 61.98 197.65 61.98 197.65 61.98 197.65 60.46 203.11 59.11 203.03 57.76 202.94 55.97 198.18 55.97 198.18 55.97 198.18 55.95 198.59 55.9 199.19L55.77 197.69 44.35 197.7C44.35 197.7 67.78 196.3 68.73 195.41 69.67 194.53 66.12 189.5 66.02 189.36L72.52 197.02Z" fill="url(#SVGID_18_)" mask="url(#SVGID_17_)"/></g></mask><linearGradient x1="-269.682" y1="66.5108" x2="-335.315" y2="46.0865" gradientUnits="userSpaceOnUse" id="SVGID_19_" gradientTransform="matrix(0.9982 -0.0595 0.0595 0.9982 385.422 127.984)"><stop offset="0" stop-color="#994FD3"/><stop offset="1" stop-color="#820C25"/></linearGradient><linearGradient x1="-338.336" y1="48.9949" x2="-341.654" y2="47.824" gradientUnits="userSpaceOnUse" id="SVGID_20_" gradientTransform="matrix(0.9982 -0.0595 0.0595 0.9982 385.422 127.984)"><stop offset="0"/><stop offset="1" stop-color="#598D3D"/></linearGradient><path d="M61.38 212.96 62.71 198.61 63.71 198.55C63.71 198.55 62.91 210.14 64.93 210.38 66.95 210.62 66.95 210.62 66.95 210.62L62.7 215.41 61.38 212.96Z" fill="#9B1538"/><path d="M70.39 197.82 64.91 221.32 49.68 222.23 45.62 204.7 44.48 199.77 46.31 199.52C46.31 199.52 46.56 201.77 46.99 204.38 47.58 207.99 48.52 212.27 49.58 212.2 50.68 212.13 50.48 207.42 50.15 203.66 49.93 201.15 49.64 199.06 49.64 199.06L51.87 197.26 51.88 197.25C51.88 197.25 51.88 197.25 51.88 197.26 51.88 197.43 51.9 200.15 52.16 203.21 52.45 206.75 53.04 210.73 54.26 211.72 55.32 212.59 57.83 212.75 60.58 212.35 61.21 212.26 61.86 212.14 62.5 211.99 67.8 210.75 69.05 197.91 69.05 197.91L70.39 197.82Z" fill="#9ADB9A"/><path d="M46.31 199.52C46.31 199.52 46.56 201.77 46.99 204.38L45.62 204.69 44.48 199.76 46.31 199.52Z" fill="#2B748E"/><path d="M51.88 197.25C51.88 197.42 51.9 200.14 52.16 203.2L50.15 203.66C49.93 201.15 49.64 199.06 49.64 199.06L51.87 197.26 51.88 197.25Z" fill="#2B748E"/><path d="M70.39 197.82 64.91 221.32 57.97 221.73C58.73 219.91 59.46 217.87 59.88 215.91 60.09 214.93 60.33 213.7 60.58 212.34 61.21 212.25 61.86 212.13 62.5 211.98 67.8 210.74 69.05 197.9 69.05 197.9L70.39 197.82Z" fill="#2B748E"/><path d="M72.52 197.02C72.52 197.02 71.49 202.29 70.49 202.35 69.49 202.41 68.35 197.44 68.35 197.44 68.35 197.44 66.33 202.93 64.3 202.72 62.27 202.51 61.98 197.65 61.98 197.65 61.98 197.65 60.46 203.11 59.11 203.03 57.76 202.94 55.97 198.18 55.97 198.18 55.97 198.18 55.95 198.59 55.9 199.19 55.77 200.7 55.4 203.38 54.43 203.31 53.08 203.22 51.28 198.29 51.28 198.29 51.28 198.29 49.91 203.41 48.41 203.67 46.91 203.93 45.63 199.3 45.63 199.3 45.63 199.3 45.6 202.09 44.74 203.34 44.48 203.72 44.15 203.96 43.72 203.94 41.87 203.88 40.43 199.43 40.43 199.43L44.61 190.62 66.03 189.34C66.03 189.34 66.03 189.34 66.03 189.34L72.52 197.02Z" fill="url(#SVGID_16_)"/><path d="M72.52 197.02C72.52 197.02 71.49 202.29 70.49 202.35 69.49 202.41 68.35 197.44 68.35 197.44 68.35 197.44 66.33 202.93 64.3 202.72 62.27 202.51 61.98 197.65 61.98 197.65 61.98 197.65 60.46 203.11 59.11 203.03 57.76 202.94 55.97 198.18 55.97 198.18 55.97 198.18 55.95 198.59 55.9 199.19L55.77 197.69 44.35 197.7C44.35 197.7 67.78 196.3 68.73 195.41 69.67 194.53 66.12 189.5 66.02 189.36L72.52 197.02Z" fill="url(#SVGID_19_)" opacity="0.52"/><path d="M43.7 203.77C44.11 203.75 44.45 203.58 44.73 203.33 44.47 203.71 44.14 203.95 43.71 203.93 41.86 203.87 40.42 199.42 40.42 199.42L44.6 190.61 56.88 189.88 56.9 189.88 45.13 191.08 41.67 197.84 41.39 198.7C41.39 198.7 42.03 203.87 43.7 203.77Z" fill="url(#SVGID_20_)"/></g><g><path d="M57.59 180.51C58.7 181.49 58.94 183.02 58.14 183.92 57.34 184.82 55.8 184.75 54.69 183.77 53.58 182.79 53.34 181.26 54.14 180.36 54.94 179.46 56.49 179.53 57.59 180.51Z" fill="#F26200"/><path d="M57.57 180.49C58.68 181.47 58.92 183 58.12 183.9 57.58 184.5 56.71 184.67 55.86 184.42 56.6 184.54 57.32 184.35 57.78 183.82 58.58 182.92 58.33 181.4 57.23 180.41 56.87 180.09 56.46 179.87 56.04 179.74 56.57 179.83 57.11 180.08 57.57 180.49Z" fill="#BC4824"/><path d="M56.35 179.83C55.61 179.71 54.89 179.9 54.42 180.43 53.62 181.33 53.87 182.86 54.97 183.84 55.35 184.18 55.78 184.4 56.21 184.52 55.69 184.43 55.15 184.18 54.69 183.78 53.58 182.8 53.34 181.27 54.14 180.37 54.67 179.77 55.52 179.6 56.35 179.83Z" fill="#FFA645"/><path d="M56.09 181.19C55.91 181.23 55.76 181.32 55.63 181.45 55.27 181.85 55.38 182.54 55.88 182.98 56.09 183.17 56.33 183.28 56.57 183.32 56.22 183.4 55.81 183.28 55.48 182.99 54.98 182.55 54.87 181.87 55.23 181.46 55.44 181.23 55.76 181.14 56.09 181.19Z" fill="#BC4824"/><path d="M54.52 180.85C53.96 181.48 54.19 182.59 55.03 183.33 55.87 184.07 57 184.17 57.55 183.54 58.11 182.91 57.88 181.8 57.04 181.06 56.21 180.31 55.08 180.22 54.52 180.85ZM57.35 183.42C56.87 183.96 55.89 183.88 55.16 183.24 54.43 182.59 54.23 181.63 54.72 181.08 55.2 180.54 56.19 180.62 56.91 181.26 57.63 181.91 57.83 182.87 57.35 183.42Z" fill="#BC4824"/></g><g><path d="M193.4 33.57C193.4 35.05 194.38 36.25 195.58 36.25 196.78 36.25 197.76 35.05 197.76 33.57 197.76 32.09 196.78 30.89 195.58 30.89 194.38 30.9 193.4 32.1 193.4 33.57Z" fill="#F26200"/><path d="M193.4 33.55C193.4 35.03 194.38 36.23 195.58 36.23 196.39 36.23 197.09 35.69 197.47 34.89 197.07 35.52 196.45 35.93 195.75 35.93 194.55 35.93 193.57 34.73 193.57 33.25 193.57 32.77 193.68 32.31 193.86 31.92 193.57 32.36 193.4 32.93 193.4 33.55Z" fill="#BC4824"/><path d="M193.72 32.19C194.12 31.55 194.74 31.14 195.45 31.14 196.65 31.14 197.63 32.34 197.63 33.82 197.63 34.32 197.52 34.8 197.32 35.2 197.6 34.75 197.77 34.18 197.77 33.57 197.77 32.09 196.79 30.89 195.59 30.89 194.79 30.9 194.1 31.42 193.72 32.19Z" fill="#FFA645"/><path d="M194.91 32.9C195.06 32.79 195.23 32.73 195.41 32.73 195.95 32.73 196.39 33.27 196.39 33.93 196.39 34.21 196.31 34.47 196.18 34.67 196.47 34.46 196.66 34.08 196.66 33.64 196.66 32.98 196.22 32.44 195.68 32.44 195.37 32.44 195.09 32.62 194.91 32.9Z" fill="#BC4824"/><path d="M194.17 33.53C194.17 34.65 194.85 35.56 195.69 35.56 196.53 35.56 197.21 34.65 197.21 33.53 197.21 32.41 196.53 31.5 195.69 31.5 194.85 31.5 194.17 32.41 194.17 33.53ZM194.42 33.56C194.42 32.59 195.01 31.8 195.74 31.8 196.47 31.8 197.06 32.59 197.06 33.56 197.06 34.53 196.47 35.32 195.74 35.32 195.01 35.32 194.42 34.53 194.42 33.56Z" fill="#BC4824"/></g><path d="M232.76 114.87 225.9 106.04 219.65 114.17 221.56 114.22 225.81 107.18 230.35 114.43Z" fill="#FFD55F"/><g><linearGradient x1="64.8782" y1="58.3183" x2="97.0657" y2="58.3183" gradientUnits="userSpaceOnUse" id="SVGID_21_" gradientTransform="matrix(0.9997 -0.0242 0.0242 0.9997 144.028 64.2445)"><stop offset="0" stop-color="#FF5952"/><stop offset="1" stop-color="#B50D4D"/></linearGradient><defs><filter id="Adobe_OpacityMaskFilter_8_" x="214.33" y="113.72" width="28.18" height="13.43" filterUnits="userSpaceOnUse" primitiveUnits="userSpaceOnUse"><feFlood flood-color="#FFFFFF" result="back"/><feBlend in="SourceGraphic" in2="back" mode="normal"/></filter></defs><mask maskUnits="userSpaceOnUse" x="214.33" y="113.72" width="28.18" height="13.43" id="SVGID_22_"><g filter="url(#Adobe_OpacityMaskFilter_8_)"><defs><filter id="Adobe_OpacityMaskFilter_9_" x="214.33" y="113.72" width="28.18" height="13.43" filterUnits="userSpaceOnUse" primitiveUnits="userSpaceOnUse"><feFlood flood-color="#FFFFFF" result="back"/><feBlend in="SourceGraphic" in2="back" mode="normal"/></filter></defs><mask maskUnits="userSpaceOnUse" x="214.33" y="113.72" width="28.18" height="13.43" id="SVGID_22_"><g filter="url(#Adobe_OpacityMaskFilter_9_)"></g></mask><linearGradient x1="143.844" y1="75.9522" x2="78.2122" y2="55.5284" gradientUnits="userSpaceOnUse" id="SVGID_23_" gradientTransform="matrix(0.9997 -0.0242 0.0242 0.9997 144.028 64.2445)"><stop offset="0"/><stop offset="1" stop-color="#FFFFFF"/></linearGradient><path d="M242.51 121.61C242.51 121.61 241.29 126.84 240.29 126.86 239.28 126.88 238.32 121.88 238.32 121.88 238.32 121.88 236.1 127.3 234.08 127.01 232.06 126.72 231.94 121.86 231.94 121.86 231.94 121.86 230.23 127.27 228.88 127.13 227.54 126.99 225.91 122.17 225.91 122.17 225.91 122.17 225.88 122.58 225.81 123.17L225.73 121.67 214.32 121.28C214.32 121.28 237.78 120.71 238.77 119.85 239.74 119 236.37 113.85 236.28 113.71L242.51 121.61Z" fill="url(#SVGID_23_)" mask="url(#SVGID_22_)"/></g></mask><linearGradient x1="143.844" y1="75.9522" x2="78.2122" y2="55.5284" gradientUnits="userSpaceOnUse" id="SVGID_24_" gradientTransform="matrix(0.9997 -0.0242 0.0242 0.9997 144.028 64.2445)"><stop offset="0" stop-color="#994FD3"/><stop offset="1" stop-color="#820C25"/></linearGradient><linearGradient x1="75.1915" y1="58.4369" x2="71.874" y2="57.266" gradientUnits="userSpaceOnUse" id="SVGID_25_" gradientTransform="matrix(0.9997 -0.0242 0.0242 0.9997 144.028 64.2445)"><stop offset="0"/><stop offset="1" stop-color="#598D3D"/></linearGradient><path d="M230.81 137.16 232.64 122.86 233.65 122.84C233.65 122.84 232.44 134.39 234.45 134.7 236.46 135.01 236.46 135.01 236.46 135.01L232.04 139.64 230.81 137.16Z" fill="#9B1538"/><path d="M240.35 122.34 234.04 145.63 218.79 146 215.35 128.33 214.38 123.37 216.22 123.19C216.22 123.19 216.39 125.45 216.73 128.07 217.2 131.69 217.98 136.01 219.05 135.98 220.16 135.95 220.12 131.24 219.92 127.46 219.79 124.94 219.57 122.84 219.57 122.84L221.86 121.12 221.87 121.11C221.87 121.11 221.87 121.11 221.87 121.12 221.86 121.29 221.79 124.01 221.94 127.08 222.11 130.62 222.56 134.62 223.74 135.66 224.77 136.56 227.27 136.82 230.04 136.51 230.68 136.44 231.33 136.34 231.97 136.21 237.31 135.16 239.01 122.37 239.01 122.37L240.35 122.34Z" fill="#9ADB9A"/><path d="M216.22 123.19C216.22 123.19 216.39 125.45 216.73 128.07L215.35 128.33 214.38 123.37 216.22 123.19Z" fill="#2B748E"/><path d="M221.87 121.12C221.86 121.29 221.79 124.01 221.94 127.08L219.92 127.47C219.79 124.95 219.57 122.85 219.57 122.85L221.86 121.13 221.87 121.12Z" fill="#2B748E"/><path d="M240.35 122.34 234.04 145.63 227.09 145.8C227.91 144.01 228.71 141.99 229.21 140.05 229.46 139.07 229.74 137.85 230.03 136.51 230.67 136.44 231.32 136.34 231.96 136.21 237.3 135.16 239 122.37 239 122.37L240.35 122.34Z" fill="#2B748E"/><path d="M242.51 121.61C242.51 121.61 241.29 126.84 240.29 126.86 239.28 126.88 238.32 121.88 238.32 121.88 238.32 121.88 236.1 127.3 234.08 127.01 232.06 126.72 231.94 121.86 231.94 121.86 231.94 121.86 230.23 127.27 228.88 127.13 227.54 126.99 225.91 122.17 225.91 122.17 225.91 122.17 225.88 122.58 225.81 123.17 225.62 124.68 225.16 127.34 224.19 127.24 222.85 127.1 221.22 122.11 221.22 122.11 221.22 122.11 219.67 127.18 218.16 127.38 216.66 127.58 215.54 122.92 215.54 122.92 215.54 122.92 215.41 125.7 214.51 126.93 214.24 127.3 213.9 127.52 213.47 127.5 211.62 127.38 210.34 122.88 210.34 122.88L214.83 114.22 236.28 113.7C236.28 113.7 236.28 113.7 236.28 113.7L242.51 121.61Z" fill="url(#SVGID_21_)"/><path d="M242.51 121.61C242.51 121.61 241.29 126.84 240.29 126.86 239.28 126.88 238.32 121.88 238.32 121.88 238.32 121.88 236.1 127.3 234.08 127.01 232.06 126.72 231.94 121.86 231.94 121.86 231.94 121.86 230.23 127.27 228.88 127.13 227.54 126.99 225.91 122.17 225.91 122.17 225.91 122.17 225.88 122.58 225.81 123.17L225.73 121.67 214.32 121.28C214.32 121.28 237.78 120.71 238.77 119.85 239.74 119 236.37 113.85 236.28 113.71L242.51 121.61Z" fill="url(#SVGID_24_)" opacity="0.52"/><path d="M213.47 127.35C213.88 127.34 214.22 127.18 214.51 126.95 214.24 127.32 213.9 127.54 213.47 127.52 211.62 127.4 210.34 122.9 210.34 122.9L214.83 114.24 227.13 113.94 227.15 113.94 215.35 114.73 211.65 121.36 211.34 122.21C211.33 122.2 211.79 127.39 213.47 127.35Z" fill="url(#SVGID_25_)"/></g><path d="M202.37 108.48 226.39 107.23 226.37 105.9 200.78 106.96Z" fill="#FFD55F"/><g><path d="M224.68 104.59C223.61 105.61 223.42 107.14 224.25 108.01 225.08 108.88 226.62 108.76 227.69 107.74 228.76 106.72 228.95 105.19 228.12 104.32 227.29 103.45 225.75 103.57 224.68 104.59Z" fill="#F26200"/><path d="M224.7 104.57C223.63 105.59 223.44 107.12 224.27 107.99 224.83 108.58 225.71 108.71 226.55 108.43 225.82 108.58 225.09 108.41 224.61 107.9 223.78 107.03 223.97 105.5 225.04 104.48 225.39 104.15 225.79 103.91 226.2 103.77 225.68 103.87 225.15 104.14 224.7 104.57Z" fill="#BC4824"/><path d="M225.9 103.86C226.64 103.71 227.37 103.88 227.85 104.39 228.68 105.26 228.49 106.79 227.42 107.81 227.05 108.16 226.63 108.4 226.21 108.54 226.73 108.43 227.26 108.17 227.7 107.74 228.77 106.72 228.96 105.19 228.13 104.32 227.58 103.75 226.72 103.6 225.9 103.86Z" fill="#FFA645"/><path d="M226.21 105.22C226.39 105.25 226.55 105.33 226.67 105.47 227.04 105.86 226.96 106.55 226.48 107.01 226.28 107.2 226.04 107.32 225.8 107.37 226.15 107.43 226.56 107.31 226.88 107 227.36 106.54 227.45 105.85 227.07 105.46 226.86 105.23 226.54 105.15 226.21 105.22Z" fill="#BC4824"/><path d="M225.25 105.12C224.44 105.89 224.25 107.01 224.83 107.62 225.41 108.23 226.53 108.09 227.34 107.32 228.15 106.55 228.34 105.43 227.76 104.82 227.18 104.21 226.06 104.34 225.25 105.12ZM225.4 105.32C226.1 104.65 227.08 104.53 227.58 105.06 228.08 105.59 227.92 106.56 227.21 107.23 226.51 107.9 225.53 108.02 225.03 107.49 224.53 106.96 224.69 105.99 225.4 105.32Z" fill="#BC4824"/></g><path d="M199.9 184.74 192.74 176.14 186.78 184.49 188.69 184.47 192.7 177.29 197.48 184.38Z" fill="#FFD55F"/><g><linearGradient x1="584.711" y1="461.205" x2="616.897" y2="461.205" gradientUnits="userSpaceOnUse" id="SVGID_26_" gradientTransform="matrix(1 0.0099 -0.0099 1 -402.398 -276.489)"><stop offset="0" stop-color="#FF5952"/><stop offset="1" stop-color="#B50D4D"/></linearGradient><defs><filter id="Adobe_OpacityMaskFilter_10_" x="181.77" y="184.14" width="28.15" height="13.28" filterUnits="userSpaceOnUse" primitiveUnits="userSpaceOnUse"><feFlood flood-color="#FFFFFF" result="back"/><feBlend in="SourceGraphic" in2="back" mode="normal"/></filter></defs><mask maskUnits="userSpaceOnUse" x="181.77" y="184.14" width="28.15" height="13.28" id="SVGID_27_"><g filter="url(#Adobe_OpacityMaskFilter_10_)"><defs><filter id="Adobe_OpacityMaskFilter_11_" x="181.77" y="184.14" width="28.15" height="13.28" filterUnits="userSpaceOnUse" primitiveUnits="userSpaceOnUse"><feFlood flood-color="#FFFFFF" result="back"/><feBlend in="SourceGraphic" in2="back" mode="normal"/></filter></defs><mask maskUnits="userSpaceOnUse" x="181.77" y="184.14" width="28.15" height="13.28" id="SVGID_27_"><g filter="url(#Adobe_OpacityMaskFilter_11_)"></g></mask><linearGradient x1="663.672" y1="478.838" x2="598.044" y2="458.415" gradientUnits="userSpaceOnUse" id="SVGID_28_" gradientTransform="matrix(1 0.0099 -0.0099 1 -402.398 -276.489)"><stop offset="0"/><stop offset="1" stop-color="#FFFFFF"/></linearGradient><path d="M209.92 192.24C209.92 192.24 208.53 197.42 207.52 197.41 206.51 197.4 205.73 192.36 205.73 192.36 205.73 192.36 203.33 197.7 201.32 197.35 199.31 196.99 199.36 192.13 199.36 192.13 199.36 192.13 197.46 197.48 196.12 197.3 194.78 197.12 193.32 192.24 193.32 192.24 193.32 192.24 193.28 192.65 193.18 193.24L193.15 191.74 181.76 190.96C181.76 190.96 205.23 191.19 206.24 190.36 207.24 189.54 204.04 184.28 203.96 184.14L209.92 192.24Z" fill="url(#SVGID_28_)" mask="url(#SVGID_27_)"/></g></mask><linearGradient x1="663.672" y1="478.838" x2="598.044" y2="458.415" gradientUnits="userSpaceOnUse" id="SVGID_29_" gradientTransform="matrix(1 0.0099 -0.0099 1 -402.398 -276.489)"><stop offset="0" stop-color="#994FD3"/><stop offset="1" stop-color="#820C25"/></linearGradient><linearGradient x1="595.024" y1="461.323" x2="591.707" y2="460.153" gradientUnits="userSpaceOnUse" id="SVGID_30_" gradientTransform="matrix(1 0.0099 -0.0099 1 -402.398 -276.489)"><stop offset="0"/><stop offset="1" stop-color="#598D3D"/></linearGradient><path d="M197.7 207.38 200.02 193.15 201.03 193.16C201.03 193.16 199.43 204.66 201.43 205.04 203.43 205.42 203.43 205.42 203.43 205.42L198.86 209.9 197.7 207.38Z" fill="#9B1538"/><path d="M207.73 192.89 200.63 215.96 185.38 215.81 182.54 198.04 181.74 193.05 183.59 192.93C183.59 192.93 183.68 195.19 183.93 197.82 184.27 201.46 184.91 205.79 185.98 205.8 187.09 205.81 187.21 201.09 187.14 197.31 187.09 194.79 186.95 192.68 186.95 192.68L189.3 191.04 189.31 191.03C189.31 191.03 189.31 191.03 189.31 191.04 189.3 191.21 189.13 193.93 189.17 197 189.22 200.55 189.53 204.56 190.67 205.64 191.67 206.58 194.16 206.92 196.93 206.71 197.57 206.66 198.22 206.59 198.87 206.48 204.24 205.61 206.38 192.89 206.38 192.89L207.73 192.89Z" fill="#8EBCB3"/><path d="M183.59 192.92C183.59 192.92 183.68 195.18 183.93 197.81L182.54 198.03 181.74 193.04 183.59 192.92Z" fill="#2B748E"/><path d="M189.31 191.04C189.3 191.21 189.13 193.93 189.17 197L187.13 197.32C187.08 194.8 186.94 192.69 186.94 192.69L189.29 191.05 189.31 191.04Z" fill="#2B748E"/><path d="M207.73 192.89 200.63 215.96 193.68 215.89C194.56 214.13 195.43 212.14 195.99 210.21 196.27 209.24 196.59 208.03 196.93 206.7 197.57 206.65 198.22 206.58 198.87 206.47 204.24 205.6 206.38 192.88 206.38 192.88L207.73 192.89Z" fill="#2B748E"/><path d="M209.92 192.24C209.92 192.24 208.53 197.42 207.52 197.41 206.51 197.4 205.73 192.36 205.73 192.36 205.73 192.36 203.33 197.7 201.32 197.35 199.31 196.99 199.36 192.13 199.36 192.13 199.36 192.13 197.46 197.48 196.12 197.3 194.78 197.12 193.32 192.24 193.32 192.24 193.32 192.24 193.28 192.65 193.18 193.24 192.94 194.74 192.39 197.38 191.42 197.25 190.08 197.07 188.62 192.03 188.62 192.03 188.62 192.03 186.89 197.04 185.38 197.2 183.87 197.35 182.91 192.65 182.91 192.65 182.91 192.65 182.68 195.43 181.74 196.62 181.46 196.98 181.11 197.19 180.69 197.15 178.85 196.96 177.72 192.43 177.72 192.43L182.5 183.93 203.96 184.14C203.96 184.14 203.96 184.14 203.96 184.14L209.92 192.24Z" fill="url(#SVGID_26_)"/><path d="M209.92 192.24C209.92 192.24 208.53 197.42 207.52 197.41 206.51 197.4 205.73 192.36 205.73 192.36 205.73 192.36 203.33 197.7 201.32 197.35 199.31 196.99 199.36 192.13 199.36 192.13 199.36 192.13 197.46 197.48 196.12 197.3 194.78 197.12 193.32 192.24 193.32 192.24 193.32 192.24 193.28 192.65 193.18 193.24L193.15 191.74 181.76 190.96C181.76 190.96 205.23 191.19 206.24 190.36 207.24 189.54 204.04 184.28 203.96 184.14L209.92 192.24Z" fill="url(#SVGID_29_)" opacity="0.52"/><path d="M180.7 196.98C181.11 196.98 181.46 196.84 181.75 196.62 181.47 196.98 181.12 197.19 180.7 197.15 178.86 196.96 177.73 192.43 177.73 192.43L182.51 183.93 194.81 184.05 194.83 184.05 183 184.43 179.08 190.93 178.74 191.76C178.74 191.76 179.02 196.96 180.7 196.98Z" fill="url(#SVGID_30_)"/></g><g><path d="M191.48 174.74C190.45 175.8 190.3 177.33 191.16 178.18 192.02 179.02 193.55 178.85 194.59 177.8 195.63 176.75 195.77 175.21 194.91 174.36 194.05 173.51 192.51 173.68 191.48 174.74Z" fill="#F26200"/><path d="M191.5 174.72C190.47 175.78 190.32 177.31 191.18 178.16 191.76 178.73 192.64 178.83 193.47 178.52 192.74 178.69 192.01 178.55 191.51 178.06 190.65 177.22 190.79 175.68 191.83 174.62 192.17 174.27 192.56 174.02 192.97 173.87 192.45 173.99 191.93 174.28 191.5 174.72Z" fill="#BC4824"/><path d="M192.67 173.97C193.4 173.79 194.13 173.94 194.64 174.43 195.5 175.27 195.36 176.81 194.32 177.87 193.97 178.23 193.55 178.49 193.13 178.64 193.65 178.52 194.16 178.23 194.59 177.79 195.62 176.73 195.77 175.2 194.91 174.35 194.34 173.8 193.48 173.68 192.67 173.97Z" fill="#FFA645"/><path d="M193.03 175.31C193.21 175.34 193.37 175.41 193.5 175.54 193.89 175.92 193.82 176.61 193.36 177.08 193.16 177.28 192.93 177.41 192.69 177.46 193.04 177.51 193.45 177.37 193.76 177.06 194.22 176.59 194.29 175.9 193.9 175.52 193.67 175.3 193.35 175.24 193.03 175.31Z" fill="#BC4824"/><path d="M192.06 175.24C191.28 176.04 191.13 177.16 191.72 177.75 192.32 178.34 193.44 178.16 194.22 177.37 195 176.57 195.15 175.45 194.56 174.86 193.97 174.27 192.84 174.45 192.06 175.24ZM192.22 175.44C192.9 174.75 193.87 174.6 194.39 175.11 194.91 175.62 194.78 176.6 194.1 177.29 193.42 177.98 192.45 178.13 191.93 177.62 191.41 177.11 191.54 176.14 192.22 175.44Z" fill="#BC4824"/></g><path d="M120.43 28.48 120.4 2.47 121.49 2.46 122.2 29.42Z" fill="#FFD55F"/><g><path d="M122.72 3.12C122.41 4.56 121.2 5.53 120.02 5.27 118.84 5.01 118.15 3.64 118.46 2.19 118.77 0.75 119.98-0.22 121.16 0.04 122.34 0.3 123.04 1.68 122.72 3.12Z" fill="#F26200"/><path d="M122.73 3.09C122.42 4.53 121.21 5.5 120.03 5.24 119.24 5.07 118.67 4.39 118.47 3.53 118.72 4.23 119.25 4.76 119.93 4.91 121.11 5.17 122.31 4.2 122.63 2.76 122.73 2.29 122.73 1.82 122.63 1.4 122.82 1.9 122.86 2.49 122.73 3.09Z" fill="#BC4824"/><path d="M122.71 1.7C122.46 0.99 121.93 0.46 121.24 0.31 120.06 0.05 118.86 1.02 118.54 2.46 118.43 2.95 118.44 3.44 118.55 3.87 118.37 3.37 118.33 2.78 118.46 2.18 118.77 0.74 119.98-0.23 121.16 0.03 121.94 0.21 122.51 0.86 122.71 1.7Z" fill="#FFA645"/><path d="M121.39 2.14C121.27 2.01 121.12 1.91 120.94 1.87 120.41 1.76 119.87 2.19 119.73 2.83 119.67 3.1 119.69 3.37 119.78 3.6 119.54 3.33 119.44 2.92 119.53 2.49 119.67 1.84 120.21 1.41 120.74 1.53 121.04 1.6 121.28 1.83 121.39 2.14Z" fill="#BC4824"/><path d="M120.93 0.61C120.11 0.43 119.25 1.17 119.02 2.27 118.78 3.36 119.25 4.4 120.07 4.57 120.89 4.75 121.75 4.01 121.99 2.91 122.22 1.82 121.75 0.79 120.93 0.61ZM120.07 4.33C119.36 4.17 118.95 3.28 119.16 2.33 119.37 1.38 120.11 0.74 120.82 0.89 121.53 1.05 121.94 1.94 121.73 2.89 121.52 3.84 120.78 4.49 120.07 4.33Z" fill="#BC4824"/></g><path d="M144.83 171.54C136.14 143.32 127.54 118.1 124.55 118.09 122.05 118.08 116.63 135.78 110.8 158.12 110.8 158.12 118.78 113.97 124.39 114.22 129.92 114.48 144.49 170.24 144.83 171.54Z" fill="#FFD55F"/><g><linearGradient x1="684.658" y1="48.1024" x2="716.846" y2="48.1024" gradientUnits="userSpaceOnUse" id="SVGID_31_" gradientTransform="translate(-503.668 0)"><stop offset="0" stop-color="#FF5952"/><stop offset="1" stop-color="#B50D4D"/></linearGradient><defs><filter id="Adobe_OpacityMaskFilter_12_" x="185.01" y="41.48" width="28.16" height="13.26" filterUnits="userSpaceOnUse" primitiveUnits="userSpaceOnUse"><feFlood flood-color="#FFFFFF" result="back"/><feBlend in="SourceGraphic" in2="back" mode="normal"/></filter></defs><mask maskUnits="userSpaceOnUse" x="185.01" y="41.48" width="28.16" height="13.26" id="SVGID_32_"><g filter="url(#Adobe_OpacityMaskFilter_12_)"><defs><filter id="Adobe_OpacityMaskFilter_13_" x="185.01" y="41.48" width="28.16" height="13.26" filterUnits="userSpaceOnUse" primitiveUnits="userSpaceOnUse"><feFlood flood-color="#FFFFFF" result="back"/><feBlend in="SourceGraphic" in2="back" mode="normal"/></filter></defs><mask maskUnits="userSpaceOnUse" x="185.01" y="41.48" width="28.16" height="13.26" id="SVGID_32_"><g filter="url(#Adobe_OpacityMaskFilter_13_)"></g></mask><linearGradient x1="763.623" y1="65.7361" x2="697.992" y2="45.3124" gradientUnits="userSpaceOnUse" id="SVGID_33_" gradientTransform="translate(-503.668 0)"><stop offset="0"/><stop offset="1" stop-color="#FFFFFF"/></linearGradient><path d="M213.18 49.52C213.18 49.52 211.84 54.72 210.83 54.72 209.82 54.72 208.99 49.69 208.99 49.69 208.99 49.69 206.64 55.05 204.63 54.72 202.62 54.39 202.62 49.52 202.62 49.52 202.62 49.52 200.78 54.88 199.43 54.72 198.09 54.55 196.58 49.69 196.58 49.69 196.58 49.69 196.54 50.1 196.45 50.69L196.41 49.19 185.01 48.52C185.01 48.52 208.48 48.52 209.49 47.68 210.48 46.85 207.23 41.62 207.14 41.48L213.18 49.52Z" fill="url(#SVGID_33_)" mask="url(#SVGID_32_)"/></g></mask><linearGradient x1="763.623" y1="65.7361" x2="697.992" y2="45.3124" gradientUnits="userSpaceOnUse" id="SVGID_34_" gradientTransform="translate(-503.668 0)"><stop offset="0" stop-color="#994FD3"/><stop offset="1" stop-color="#820C25"/></linearGradient><linearGradient x1="694.971" y1="48.221" x2="691.654" y2="47.0501" gradientUnits="userSpaceOnUse" id="SVGID_35_" gradientTransform="translate(-503.668 0)"><stop offset="0"/><stop offset="1" stop-color="#598D3D"/></linearGradient><path d="M201.11 64.78 203.29 50.53 204.3 50.53C204.3 50.53 202.81 62.05 204.81 62.41 206.81 62.77 206.81 62.77 206.81 62.77L202.28 67.3 201.11 64.78Z" fill="#9B1538"/><path d="M211 50.19 204.13 73.32 188.87 73.32 185.86 55.58 185.02 50.59 186.86 50.45C186.86 50.45 186.98 52.71 187.25 55.34 187.63 58.97 188.3 63.3 189.37 63.3 190.48 63.3 190.56 58.58 190.44 54.8 190.37 52.28 190.21 50.17 190.21 50.17L192.55 48.5 192.56 48.49C192.56 48.49 192.56 48.49 192.56 48.5 192.55 48.67 192.41 51.39 192.48 54.46 192.56 58.01 192.92 62.02 194.07 63.08 195.08 64.01 197.58 64.32 200.34 64.08 200.98 64.03 201.63 63.94 202.28 63.83 207.64 62.91 209.66 50.17 209.66 50.17L211 50.17Z" fill="#9ADB9A"/><path d="M186.86 50.46C186.86 50.46 186.98 52.72 187.25 55.35L185.86 55.58 185.02 50.59 186.86 50.46Z" fill="#2B748E"/><path d="M192.56 48.52C192.55 48.69 192.41 51.41 192.48 54.48L190.45 54.82C190.38 52.3 190.22 50.19 190.22 50.19L192.56 48.52 192.56 48.52Z" fill="#2B748E"/><path d="M211 50.19 204.13 73.32 197.18 73.32C198.04 71.55 198.89 69.55 199.44 67.62 199.71 66.65 200.02 65.44 200.35 64.1 200.99 64.05 201.64 63.96 202.29 63.85 207.65 62.93 209.67 50.19 209.67 50.19L211 50.19Z" fill="#2B748E"/><path d="M213.18 49.52C213.18 49.52 211.84 54.72 210.83 54.72 209.82 54.72 208.99 49.69 208.99 49.69 208.99 49.69 206.64 55.05 204.63 54.72 202.62 54.39 202.62 49.52 202.62 49.52 202.62 49.52 200.78 54.88 199.43 54.72 198.09 54.55 196.58 49.69 196.58 49.69 196.58 49.69 196.54 50.1 196.45 50.69 196.23 52.19 195.7 54.84 194.73 54.72 193.39 54.55 191.88 49.52 191.88 49.52 191.88 49.52 190.2 54.55 188.69 54.72 187.18 54.89 186.18 50.19 186.18 50.19 186.18 50.19 185.98 52.97 185.05 54.17 184.77 54.53 184.43 54.75 184 54.71 182.16 54.54 180.98 50.02 180.98 50.02L185.67 41.47 207.13 41.47C207.13 41.47 207.13 41.47 207.13 41.47L213.18 49.52Z" fill="url(#SVGID_31_)"/><path d="M213.18 49.52C213.18 49.52 211.84 54.72 210.83 54.72 209.82 54.72 208.99 49.69 208.99 49.69 208.99 49.69 206.64 55.05 204.63 54.72 202.62 54.39 202.62 49.52 202.62 49.52 202.62 49.52 200.78 54.88 199.43 54.72 198.09 54.55 196.58 49.69 196.58 49.69 196.58 49.69 196.54 50.1 196.45 50.69L196.41 49.19 185.01 48.52C185.01 48.52 208.48 48.52 209.49 47.68 210.48 46.85 207.23 41.62 207.14 41.48L213.18 49.52Z" fill="url(#SVGID_34_)" opacity="0.52"/><path d="M184.01 54.55C184.42 54.55 184.77 54.4 185.06 54.18 184.78 54.54 184.44 54.76 184.01 54.72 182.17 54.55 180.99 50.03 180.99 50.03L185.68 41.48 197.98 41.48 198 41.48 186.18 41.98 182.32 48.52 182 49.35C182 49.35 182.33 54.55 184.01 54.55Z" fill="url(#SVGID_35_)"/></g><path d="M126.77 179.92 127.77 203.55 126.69 203.59 125.39 177.84Z" fill="#FFD55F"/><g><linearGradient x1="28.9503" y1="48.8669" x2="61.1376" y2="48.8669" gradientUnits="userSpaceOnUse" id="SVGID_36_"><stop offset="0" stop-color="#FF5952"/><stop offset="1" stop-color="#B50D4D"/></linearGradient><defs><filter id="Adobe_OpacityMaskFilter_14_" x="32.97" y="42.24" width="28.16" height="13.26" filterUnits="userSpaceOnUse" primitiveUnits="userSpaceOnUse"><feFlood flood-color="#FFFFFF" result="back"/><feBlend in="SourceGraphic" in2="back" mode="normal"/></filter></defs><mask maskUnits="userSpaceOnUse" x="32.97" y="42.24" width="28.16" height="13.26" id="SVGID_37_"><g filter="url(#Adobe_OpacityMaskFilter_14_)"><defs><filter id="Adobe_OpacityMaskFilter_15_" x="32.97" y="42.24" width="28.16" height="13.26" filterUnits="userSpaceOnUse" primitiveUnits="userSpaceOnUse"><feFlood flood-color="#FFFFFF" result="back"/><feBlend in="SourceGraphic" in2="back" mode="normal"/></filter></defs><mask maskUnits="userSpaceOnUse" x="32.97" y="42.24" width="28.16" height="13.26" id="SVGID_37_"><g filter="url(#Adobe_OpacityMaskFilter_15_)"></g></mask><linearGradient x1="107.915" y1="66.5005" x2="42.2843" y2="46.0768" gradientUnits="userSpaceOnUse" id="SVGID_38_"><stop offset="0"/><stop offset="1" stop-color="#FFFFFF"/></linearGradient><path d="M61.14 50.28C61.14 50.28 59.8 55.48 58.79 55.48 57.78 55.48 56.95 50.45 56.95 50.45 56.95 50.45 54.6 55.81 52.59 55.48 50.58 55.14 50.58 50.28 50.58 50.28 50.58 50.28 48.74 55.64 47.39 55.48 46.05 55.31 44.54 50.45 44.54 50.45 44.54 50.45 44.5 50.86 44.41 51.45L44.37 49.95 32.97 49.28C32.97 49.28 56.44 49.28 57.45 48.44 58.44 47.61 55.19 42.38 55.1 42.24L61.14 50.28Z" fill="url(#SVGID_38_)" mask="url(#SVGID_37_)"/></g></mask><linearGradient x1="107.915" y1="66.5005" x2="42.2843" y2="46.0768" gradientUnits="userSpaceOnUse" id="SVGID_39_"><stop offset="0" stop-color="#994FD3"/><stop offset="1" stop-color="#820C25"/></linearGradient><linearGradient x1="39.2635" y1="48.9854" x2="35.9461" y2="47.8145" gradientUnits="userSpaceOnUse" id="SVGID_40_"><stop offset="0"/><stop offset="1" stop-color="#598D3D"/></linearGradient><path d="M49.07 65.54 51.25 51.29 52.26 51.29C52.26 51.29 50.77 62.81 52.77 63.17 54.77 63.53 54.77 63.53 54.77 63.53L50.24 68.06 49.07 65.54Z" fill="#9B1538"/><path d="M58.96 50.95 52.09 74.08 36.83 74.08 33.82 56.34 32.98 51.35 34.82 51.21C34.82 51.21 34.94 53.47 35.21 56.1 35.59 59.73 36.26 64.06 37.33 64.06 38.44 64.06 38.52 59.34 38.4 55.56 38.33 53.04 38.17 50.93 38.17 50.93L40.51 49.26 40.52 49.25C40.52 49.25 40.52 49.25 40.52 49.26 40.51 49.43 40.37 52.15 40.44 55.22 40.52 58.77 40.88 62.78 42.03 63.84 43.04 64.77 45.54 65.08 48.3 64.84 48.94 64.79 49.59 64.7 50.24 64.59 55.6 63.67 57.62 50.93 57.62 50.93L58.96 50.93Z" fill="#9ADB9A"/><path d="M34.82 51.22C34.82 51.22 34.94 53.48 35.21 56.11L33.82 56.34 32.98 51.35 34.82 51.22Z" fill="#2B748E"/><path d="M40.52 49.29C40.51 49.46 40.37 52.18 40.44 55.25L38.41 55.59C38.34 53.07 38.18 50.96 38.18 50.96L40.52 49.29 40.52 49.29Z" fill="#2B748E"/><path d="M58.96 50.95 52.09 74.08 45.14 74.08C46 72.31 46.85 70.31 47.4 68.38 47.67 67.41 47.98 66.2 48.31 64.86 48.95 64.81 49.6 64.72 50.25 64.61 55.61 63.69 57.63 50.95 57.63 50.95L58.96 50.95Z" fill="#2B748E"/><path d="M61.14 50.28C61.14 50.28 59.8 55.48 58.79 55.48 57.78 55.48 56.95 50.45 56.95 50.45 56.95 50.45 54.6 55.81 52.59 55.48 50.58 55.14 50.58 50.28 50.58 50.28 50.58 50.28 48.74 55.64 47.39 55.48 46.05 55.31 44.54 50.45 44.54 50.45 44.54 50.45 44.5 50.86 44.41 51.45 44.19 52.95 43.66 55.6 42.69 55.48 41.35 55.31 39.84 50.28 39.84 50.28 39.84 50.28 38.16 55.31 36.65 55.48 35.14 55.65 34.14 50.95 34.14 50.95 34.14 50.95 33.94 53.73 33.01 54.93 32.73 55.29 32.39 55.51 31.96 55.47 30.12 55.3 28.94 50.78 28.94 50.78L33.63 42.23 55.1 42.23C55.1 42.23 55.1 42.23 55.1 42.23L61.14 50.28Z" fill="url(#SVGID_36_)"/><path d="M61.14 50.28C61.14 50.28 59.8 55.48 58.79 55.48 57.78 55.48 56.95 50.45 56.95 50.45 56.95 50.45 54.6 55.81 52.59 55.48 50.58 55.14 50.58 50.28 50.58 50.28 50.58 50.28 48.74 55.64 47.39 55.48 46.05 55.31 44.54 50.45 44.54 50.45 44.54 50.45 44.5 50.86 44.41 51.45L44.37 49.95 32.97 49.28C32.97 49.28 56.44 49.28 57.45 48.44 58.44 47.61 55.19 42.38 55.1 42.24L61.14 50.28Z" fill="url(#SVGID_39_)" opacity="0.52"/><path d="M31.97 55.31C32.38 55.31 32.73 55.16 33.02 54.94 32.74 55.3 32.4 55.52 31.97 55.48 30.13 55.31 28.95 50.79 28.95 50.79L33.64 42.24 45.94 42.24 45.96 42.24 34.14 42.74 30.28 49.28 29.94 50.12C29.96 50.12 30.29 55.31 31.97 55.31Z" fill="url(#SVGID_40_)"/></g><path d="M62.46 51.23 46.28 34.34 47.04 33.57 65.07 51.77Z" fill="#FFB536"/><path d="M70.77 167.53 56.77 182.57 55.96 181.85 72.63 162.75Z" fill="#FFD55F"/><path d="M179.59 50.61 195.85 33.57 195.09 32.81 176.75 50.81Z" fill="#FFD55F"/><path d="M175.65 161.23 192.44 176.74 193.2 175.97 174.82 158.12Z" fill="#FFD55F"/><g><g><path d="M76.45 145.75C76.3 147.19 75.13 148.24 73.85 148.1 72.56 147.96 71.64 146.69 71.8 145.25 71.95 143.81 73.12 142.76 74.4 142.9 75.68 143.04 76.6 144.31 76.45 145.75Z" fill="#FFE89F"/><path d="M76.1 145.94C76.07 146.93 75.34 147.71 74.45 147.69 73.56 147.67 72.86 146.85 72.89 145.86 72.92 144.87 73.65 144.09 74.54 144.11 75.42 144.13 76.12 144.95 76.1 145.94Z" fill="#FFFFFF"/></g><g><path d="M69.19 136.96C69.04 138.4 67.87 139.45 66.59 139.31 65.3 139.17 64.38 137.9 64.54 136.46 64.69 135.02 65.86 133.97 67.14 134.11 68.42 134.25 69.34 135.52 69.19 136.96Z" fill="#FFE89F"/><path d="M68.83 137.15C68.8 138.14 68.07 138.92 67.18 138.9 66.29 138.88 65.59 138.06 65.62 137.07 65.65 136.08 66.38 135.3 67.27 135.32 68.16 135.34 68.86 136.16 68.83 137.15Z" fill="#FFFFFF"/></g><g><path d="M64.47 126.89C64.32 128.33 63.15 129.38 61.87 129.24 60.58 129.1 59.66 127.83 59.82 126.39 59.97 124.95 61.14 123.9 62.42 124.04 63.71 124.18 64.63 125.45 64.47 126.89Z" fill="#FFE89F"/><path d="M64.12 127.09C64.09 128.08 63.36 128.86 62.47 128.84 61.58 128.82 60.88 128 60.91 127.01 60.94 126.02 61.67 125.24 62.56 125.26 63.45 125.28 64.14 126.1 64.12 127.09Z" fill="#FFFFFF"/></g><g><path d="M61.16 115.42C61.01 116.86 59.84 117.91 58.56 117.77 57.27 117.63 56.35 116.36 56.51 114.92 56.66 113.48 57.83 112.43 59.11 112.57 60.39 112.71 61.31 113.99 61.16 115.42Z" fill="#FFE89F"/><path d="M60.81 115.62C60.78 116.61 60.05 117.39 59.16 117.37 58.27 117.35 57.57 116.53 57.6 115.54 57.63 114.55 58.36 113.77 59.25 113.79 60.13 113.81 60.83 114.63 60.81 115.62Z" fill="#FFFFFF"/></g><g><path d="M60.78 103.83C60.63 105.27 59.46 106.32 58.18 106.18 56.89 106.04 55.97 104.77 56.13 103.33 56.29 101.89 57.45 100.84 58.73 100.98 60.01 101.12 60.93 102.39 60.78 103.83Z" fill="#FFE89F"/><path d="M60.42 104.03C60.39 105.02 59.66 105.8 58.77 105.78 57.88 105.76 57.18 104.94 57.21 103.95 57.24 102.96 57.97 102.18 58.86 102.2 59.75 102.22 60.45 103.04 60.42 104.03Z" fill="#FFFFFF"/></g><g><path d="M62.04 93.57C60.72 94.16 59.23 93.69 58.69 92.51 58.16 91.33 58.79 89.89 60.11 89.3 61.43 88.71 62.92 89.18 63.46 90.36 63.99 91.54 63.36 92.98 62.04 93.57Z" fill="#FFE89F"/><path d="M61.69 93.37C60.82 93.85 59.77 93.61 59.34 92.83 58.91 92.05 59.27 91.04 60.13 90.56 61 90.08 62.05 90.32 62.48 91.1 62.91 91.87 62.56 92.89 61.69 93.37Z" fill="#FFFFFF"/></g><g><path d="M65.96 82.86C64.64 83.45 63.15 82.98 62.61 81.8 62.08 80.62 62.71 79.18 64.03 78.59 65.35 78 66.84 78.47 67.38 79.65 67.91 80.83 67.27 82.27 65.96 82.86Z" fill="#FFE89F"/><path d="M65.61 82.66C64.74 83.14 63.69 82.9 63.26 82.12 62.83 81.34 63.19 80.33 64.05 79.85 64.92 79.37 65.97 79.61 66.4 80.39 66.83 81.16 66.47 82.18 65.61 82.66Z" fill="#FFFFFF"/></g><g><path d="M72.26 73.71C70.94 74.3 69.45 73.83 68.91 72.65 68.38 71.47 69.01 70.03 70.33 69.44 71.65 68.85 73.14 69.32 73.68 70.5 74.21 71.68 73.58 73.12 72.26 73.71Z" fill="#FFE89F"/><path d="M71.91 73.5C71.04 73.98 69.99 73.74 69.56 72.96 69.13 72.18 69.49 71.17 70.35 70.69 71.21 70.21 72.27 70.45 72.7 71.23 73.13 72.01 72.78 73.03 71.91 73.5Z" fill="#FFFFFF"/></g><g><path d="M80.48 65.06C79.16 65.65 77.67 65.18 77.13 64 76.6 62.82 77.23 61.38 78.55 60.79 79.87 60.2 81.36 60.67 81.9 61.85 82.43 63.03 81.8 64.46 80.48 65.06Z" fill="#FFE89F"/><path d="M80.13 64.85C79.26 65.33 78.21 65.09 77.78 64.31 77.35 63.53 77.71 62.52 78.57 62.04 79.44 61.56 80.49 61.8 80.92 62.58 81.36 63.36 81 64.37 80.13 64.85Z" fill="#FFFFFF"/></g><g><path d="M90.3 58.87C88.98 59.46 87.49 58.99 86.95 57.81 86.42 56.63 87.05 55.19 88.37 54.6 89.69 54.01 91.18 54.48 91.72 55.66 92.25 56.84 91.61 58.28 90.3 58.87Z" fill="#FFE89F"/><path d="M89.95 58.67C89.08 59.15 88.03 58.91 87.6 58.13 87.17 57.35 87.53 56.34 88.39 55.86 89.26 55.38 90.31 55.62 90.74 56.4 91.17 57.17 90.81 58.19 89.95 58.67Z" fill="#FFFFFF"/></g><g><path d="M165.84 145.49C165.99 146.93 167.16 147.98 168.44 147.84 169.73 147.7 170.65 146.43 170.49 144.99 170.34 143.55 169.17 142.5 167.89 142.64 166.61 142.78 165.69 144.06 165.84 145.49Z" fill="#FFE89F"/><path d="M166.19 145.69C166.22 146.68 166.95 147.46 167.84 147.44 168.73 147.42 169.43 146.6 169.4 145.61 169.37 144.62 168.64 143.84 167.75 143.86 166.87 143.88 166.17 144.7 166.19 145.69Z" fill="#FFFFFF"/></g><g><path d="M173.1 136.7C173.25 138.14 174.42 139.19 175.7 139.05 176.99 138.91 177.91 137.64 177.75 136.2 177.6 134.76 176.43 133.71 175.15 133.85 173.87 133.99 172.95 135.27 173.1 136.7Z" fill="#FFE89F"/><path d="M173.46 136.9C173.49 137.89 174.22 138.67 175.11 138.65 176 138.63 176.7 137.81 176.67 136.82 176.64 135.83 175.91 135.05 175.02 135.07 174.13 135.09 173.43 135.91 173.46 136.9Z" fill="#FFFFFF"/></g><g><path d="M177.82 126.64C177.97 128.08 179.14 129.13 180.42 128.99 181.71 128.85 182.63 127.58 182.47 126.15 182.32 124.71 181.15 123.66 179.87 123.8 178.58 123.93 177.66 125.2 177.82 126.64Z" fill="#FFE89F"/><path d="M178.17 126.83C178.2 127.82 178.93 128.6 179.82 128.58 180.71 128.56 181.41 127.74 181.38 126.75 181.35 125.76 180.62 124.98 179.73 125 178.84 125.02 178.15 125.84 178.17 126.83Z" fill="#FFFFFF"/></g><g><path d="M181.13 115.17C181.28 116.61 182.45 117.66 183.73 117.52 185.02 117.38 185.94 116.11 185.78 114.68 185.63 113.24 184.46 112.19 183.18 112.33 181.9 112.46 180.98 113.73 181.13 115.17Z" fill="#FFE89F"/><path d="M181.48 115.37C181.51 116.36 182.24 117.14 183.13 117.12 184.02 117.1 184.72 116.28 184.69 115.29 184.66 114.3 183.93 113.52 183.04 113.54 182.16 113.56 181.46 114.38 181.48 115.37Z" fill="#FFFFFF"/></g><g><path d="M181.51 103.57C181.66 105.01 182.83 106.06 184.11 105.92 185.4 105.78 186.32 104.51 186.16 103.08 186.01 101.64 184.84 100.59 183.56 100.73 182.28 100.87 181.36 102.14 181.51 103.57Z" fill="#FFE89F"/><path d="M181.87 103.77C181.9 104.76 182.63 105.54 183.52 105.52 184.41 105.5 185.11 104.68 185.08 103.69 185.05 102.7 184.32 101.92 183.43 101.94 182.54 101.96 181.84 102.78 181.87 103.77Z" fill="#FFFFFF"/></g><g><path d="M180.25 93.32C181.57 93.91 183.06 93.44 183.6 92.26 184.13 91.08 183.5 89.64 182.18 89.05 180.86 88.46 179.37 88.93 178.83 90.11 178.3 91.29 178.93 92.72 180.25 93.32Z" fill="#FFE89F"/><path d="M180.6 93.11C181.47 93.59 182.52 93.35 182.95 92.57 183.38 91.79 183.02 90.78 182.16 90.3 181.29 89.82 180.24 90.06 179.81 90.84 179.38 91.62 179.73 92.63 180.6 93.11Z" fill="#FFFFFF"/></g><g><path d="M176.33 82.61C177.65 83.2 179.14 82.73 179.68 81.55 180.21 80.37 179.58 78.93 178.26 78.34 176.94 77.75 175.45 78.22 174.91 79.4 174.38 80.58 175.02 82.02 176.33 82.61Z" fill="#FFE89F"/><path d="M176.68 82.4C177.55 82.88 178.6 82.64 179.03 81.86 179.46 81.08 179.1 80.07 178.24 79.59 177.37 79.11 176.32 79.35 175.89 80.13 175.46 80.91 175.81 81.93 176.68 82.4Z" fill="#FFFFFF"/></g><g><path d="M170.03 73.46C171.35 74.05 172.84 73.58 173.38 72.4 173.91 71.22 173.28 69.78 171.96 69.19 170.64 68.6 169.15 69.07 168.61 70.25 168.08 71.42 168.71 72.86 170.03 73.46Z" fill="#FFE89F"/><path d="M170.38 73.25C171.25 73.73 172.3 73.49 172.73 72.71 173.16 71.93 172.8 70.92 171.94 70.44 171.07 69.96 170.02 70.2 169.59 70.98 169.15 71.75 169.51 72.77 170.38 73.25Z" fill="#FFFFFF"/></g><g><path d="M161.81 64.8C163.13 65.39 164.62 64.92 165.16 63.74 165.69 62.56 165.06 61.12 163.74 60.53 162.42 59.94 160.93 60.41 160.39 61.59 159.86 62.77 160.49 64.21 161.81 64.8Z" fill="#FFE89F"/><path d="M162.15 64.6C163.02 65.08 164.07 64.84 164.5 64.06 164.93 63.28 164.57 62.27 163.71 61.79 162.84 61.31 161.79 61.55 161.36 62.33 160.93 63.1 161.29 64.12 162.15 64.6Z" fill="#FFFFFF"/></g><g><path d="M151.99 58.62C153.31 59.21 154.8 58.74 155.34 57.56 155.87 56.38 155.24 54.94 153.92 54.35 152.6 53.76 151.11 54.23 150.57 55.41 150.04 56.59 150.68 58.02 151.99 58.62Z" fill="#FFE89F"/><path d="M152.34 58.41C153.21 58.89 154.26 58.65 154.69 57.87 155.12 57.09 154.76 56.08 153.9 55.6 153.03 55.12 151.98 55.36 151.55 56.14 151.12 56.92 151.48 57.93 152.34 58.41Z" fill="#FFFFFF"/></g><g><path d="M139.98 52.97C141.33 52.46 142.05 51.07 141.6 49.86 141.14 48.65 139.68 48.08 138.33 48.59 136.98 49.1 136.26 50.49 136.71 51.7 137.16 52.91 138.63 53.48 139.98 52.97Z" fill="#FFE89F"/><path d="M140.08 52.57C141.03 52.3 141.6 51.38 141.36 50.53 141.11 49.68 140.14 49.21 139.19 49.48 138.24 49.75 137.67 50.67 137.91 51.52 138.15 52.37 139.13 52.85 140.08 52.57Z" fill="#FFFFFF"/></g><g><path d="M127.65 50.95C129 50.44 129.72 49.05 129.27 47.84 128.81 46.63 127.35 46.06 126 46.57 124.65 47.08 123.93 48.47 124.38 49.68 124.83 50.89 126.3 51.46 127.65 50.95Z" fill="#FFE89F"/><path d="M127.75 50.56C128.7 50.29 129.27 49.37 129.03 48.52 128.78 47.67 127.81 47.2 126.86 47.47 125.91 47.74 125.34 48.66 125.58 49.51 125.83 50.36 126.8 50.83 127.75 50.56Z" fill="#FFFFFF"/></g><g><path d="M115.71 50.65C117.06 50.14 117.78 48.75 117.33 47.54 116.87 46.33 115.41 45.76 114.06 46.27 112.71 46.78 111.99 48.17 112.44 49.38 112.9 50.59 114.36 51.16 115.71 50.65Z" fill="#FFE89F"/><path d="M115.82 50.25C116.77 49.98 117.34 49.06 117.1 48.21 116.85 47.36 115.88 46.89 114.93 47.16 113.98 47.43 113.41 48.35 113.65 49.2 113.89 50.06 114.86 50.53 115.82 50.25Z" fill="#FFFFFF"/></g><g><path d="M103.38 52.96C104.73 52.45 105.45 51.06 105 49.85 104.54 48.64 103.08 48.07 101.73 48.58 100.38 49.09 99.66 50.48 100.11 51.69 100.57 52.9 102.03 53.47 103.38 52.96Z" fill="#FFE89F"/><path d="M103.48 52.56C104.43 52.29 105 51.37 104.76 50.52 104.51 49.67 103.54 49.2 102.59 49.47 101.64 49.74 101.07 50.66 101.31 51.51 101.56 52.37 102.53 52.84 103.48 52.56Z" fill="#FFFFFF"/></g><g><path d="M84.75 150.79C83.5 150.07 81.96 150.4 81.32 151.52 80.68 152.64 81.17 154.13 82.42 154.85 83.67 155.57 85.21 155.24 85.85 154.12 86.5 153 86.01 151.51 84.75 150.79Z" fill="#FFE89F"/><path d="M84.39 150.96C83.57 150.4 82.5 150.54 82 151.27 81.5 152 81.75 153.05 82.57 153.61 83.39 154.17 84.46 154.03 84.96 153.3 85.46 152.57 85.2 151.52 84.39 150.96Z" fill="#FFFFFF"/></g><g><path d="M156.33 152.65C157.7 152.18 159.14 152.8 159.56 154.02 159.98 155.24 159.21 156.61 157.84 157.08 156.47 157.55 155.03 156.93 154.61 155.71 154.2 154.48 154.97 153.11 156.33 152.65Z" fill="#FFE89F"/><path d="M156.66 152.88C157.57 152.49 158.59 152.83 158.94 153.64 159.29 154.45 158.84 155.43 157.93 155.83 157.02 156.22 156 155.88 155.65 155.07 155.3 154.26 155.75 153.28 156.66 152.88Z" fill="#FFFFFF"/></g><g><path d="M133.64 161.45C134.93 162.09 135.52 163.54 134.95 164.71 134.38 165.87 132.87 166.29 131.57 165.66 130.27 165.02 129.69 163.57 130.26 162.4 130.83 161.23 132.34 160.81 133.64 161.45Z" fill="#FFE89F"/><path d="M133.7 161.85C134.62 162.22 135.1 163.18 134.77 164 134.44 164.82 133.43 165.2 132.51 164.83 131.59 164.46 131.11 163.5 131.44 162.68 131.77 161.86 132.78 161.48 133.7 161.85Z" fill="#FFFFFF"/></g><g><path d="M121.17 162.27C122.46 162.91 123.05 164.36 122.48 165.53 121.91 166.69 120.4 167.11 119.1 166.48 117.8 165.84 117.22 164.39 117.79 163.22 118.36 162.05 119.87 161.63 121.17 162.27Z" fill="#FFE89F"/><path d="M121.23 162.67C122.15 163.03 122.63 164 122.3 164.82 121.97 165.64 120.96 166.02 120.04 165.65 119.12 165.28 118.64 164.32 118.97 163.5 119.3 162.67 120.31 162.3 121.23 162.67Z" fill="#FFFFFF"/></g><g><path d="M109.26 161.42C110.56 162.06 111.14 163.51 110.57 164.68 110 165.84 108.49 166.26 107.19 165.63 105.9 164.99 105.31 163.54 105.88 162.37 106.45 161.21 107.97 160.78 109.26 161.42Z" fill="#FFE89F"/><ellipse cx="108.73" cy="163.31" rx="1.61" ry="1.79" fill="#FFFFFF" transform="matrix(0.3688 -0.9295 0.9295 0.3688 -83.1678 204.16)"/></g><g><path d="M96.06 157.04C97.36 157.68 97.94 159.13 97.37 160.3 96.8 161.46 95.29 161.88 93.99 161.25 92.69 160.61 92.11 159.16 92.68 157.99 93.25 156.83 94.77 156.41 96.06 157.04Z" fill="#FFE89F"/><path d="M96.12 157.44C97.04 157.81 97.52 158.77 97.19 159.59 96.86 160.41 95.85 160.79 94.93 160.42 94.01 160.06 93.53 159.09 93.86 158.27 94.19 157.45 95.2 157.08 96.12 157.44Z" fill="#FFFFFF"/></g></g><g><path d="M124.16 101.94C109.29 102.19 63.22 248.12 63.22 248.12L89.6 248.12C89.6 248.12 100.81 196.33 110.79 158.12 116.63 135.77 122.04 118.08 124.54 118.08 127.53 118.09 136.14 143.32 144.83 171.54 144.83 171.54 144.83 171.54 144.83 171.55 155.88 207.42 167.06 248.11 167.06 248.11L192.66 248.11C192.67 248.12 139.03 101.69 124.16 101.94ZM83.48 246.35 69.72 246.38C69.72 246.38 112.19 127.96 114.82 128.88 117.46 129.8 83.48 246.35 83.48 246.35ZM135.97 130.03C138.55 128.89 183.88 246.6 183.88 246.6L170.15 246.3C170.15 246.3 133.39 131.17 135.97 130.03Z" fill="#F26200"/><path d="M194.45 248.38 189.35 247.49C189.35 247.49 141.16 108.11 125.03 102.38 125.34 102.27 125.65 102.2 125.94 102.2 140.81 101.95 194.45 248.38 194.45 248.38Z" fill="#FFD55F"/><path d="M125.03 102.38C109.28 108.12 65 248.38 65 248.38L63.1 248.38C63.1 248.38 109.17 102.45 124.04 102.2 124.35 102.2 124.68 102.26 125.03 102.38Z" fill="#FFD55F"/><path d="M93.16 250.68 56.34 250.68 58.64 246.98 90.49 248.06 92.4 248.13Z" fill="#F26200"/><path d="M91.27 248.13 62.07 247.62C62.07 247.62 61.86 249.37 61.71 250.68L56.33 250.68 58.62 246.99 90.47 248.07 91.27 248.13Z" fill="#FFD55F"/><path d="M201.24 250.97 170.7 250.52 164.42 250.42 165.23 247.45 167.14 247.4 193.84 246.73 193.84 246.73 199.01 246.6Z" fill="#F26200"/><path d="M193.84 246.73 170.88 247.75 170.7 250.52 164.42 250.42 165.23 247.45 167.14 247.4Z" fill="#FFD55F"/></g><g><ellipse cx="124.89" cy="109.13" rx="10.07" ry="12.36" fill="#FFD55F"/><path d="M134.95 109C134.95 115.83 130.44 121.36 124.88 121.36 121.15 121.36 117.89 118.86 116.15 115.16 117.99 118.08 120.87 119.96 124.12 119.96 129.68 119.96 134.19 114.43 134.19 107.6 134.19 105.36 133.7 103.26 132.86 101.45 134.17 103.53 134.95 106.16 134.95 109Z" fill="#F26200"/><path d="M133.51 102.75C131.67 99.81 128.78 97.91 125.52 97.91 119.96 97.91 115.45 103.44 115.45 110.27 115.45 112.6 115.98 114.78 116.89 116.64 115.59 114.56 114.81 111.95 114.81 109.12 114.81 102.29 119.32 96.76 124.88 96.76 128.55 96.77 131.75 99.17 133.51 102.75Z" fill="#FFA645"/><path d="M127.99 106.02C127.32 105.53 126.53 105.25 125.69 105.25 123.2 105.25 121.17 107.73 121.17 110.8 121.17 112.09 121.53 113.28 122.13 114.22 120.8 113.25 119.91 111.48 119.91 109.45 119.91 106.39 121.93 103.9 124.43 103.9 125.88 103.9 127.16 104.73 127.99 106.02Z" fill="#F26200"/><path d="M124.38 99.57C120.51 99.57 117.37 103.76 117.37 108.93 117.37 114.1 120.51 118.29 124.38 118.29 128.25 118.29 131.39 114.1 131.39 108.93 131.4 103.76 128.26 99.57 124.38 99.57ZM124.15 117.21C120.79 117.21 118.06 113.57 118.06 109.08 118.06 104.59 120.79 100.95 124.15 100.95 127.51 100.95 130.24 104.59 130.24 109.08 130.24 113.56 127.51 117.21 124.15 117.21Z" fill="#F26200"/></g></g></svg>