<svg width="122.73" height="210.87" viewBox="0 0 122.73 210.87" xmlns="http://www.w3.org/2000/svg" xmlns:xlink="http://www.w3.org/1999/xlink" xml:space="preserve" overflow="hidden"><defs></defs><g><g><g><g><g><path d="M20.87 122.91C20.87 122.91 13.34 124.29 10.89 119.05 10.17 117.51 14.58 109.42 15.17 107.8 17.3 101.92 19.88 97.11 20.99 90.78 21.44 88.2 21.77 85.65 21.88 83.02 21.96 81.11 21.97 79.21 21.99 77.31 22.12 68.15 22.46 59.08 33.61 57.33 33.61 57.33 36.63 88.02 34.98 95.76 33.32 103.5 26.95 112.64 20.87 122.91Z" fill="#5E5E5C"/><g><path d="M10.82 118.75C10.81 118.66 10.81 118.56 10.82 118.45 10.82 118.45 10.82 118.44 10.82 118.43 10.83 118.32 10.84 118.2 10.86 118.08 10.87 118.05 10.87 118.02 10.88 117.98 10.9 117.85 10.93 117.71 10.97 117.56 10.97 117.55 10.98 117.53 10.98 117.52 11.02 117.38 11.06 117.24 11.1 117.09 11.11 117.05 11.12 117.01 11.14 116.97 11.19 116.81 11.24 116.64 11.31 116.47 11.32 116.45 11.33 116.42 11.34 116.4 11.4 116.24 11.45 116.08 11.52 115.92 11.54 115.87 11.55 115.83 11.57 115.78 11.64 115.6 11.71 115.41 11.79 115.22 11.8 115.19 11.82 115.15 11.83 115.12 11.9 114.95 11.97 114.79 12.04 114.62 12.06 114.57 12.08 114.52 12.1 114.47 12.18 114.28 12.27 114.08 12.35 113.89 12.37 113.85 12.39 113.8 12.41 113.76 12.48 113.6 12.56 113.43 12.63 113.27 12.66 113.21 12.68 113.16 12.71 113.1 12.8 112.91 12.88 112.72 12.97 112.52 12.99 112.47 13.02 112.42 13.04 112.36 13.11 112.21 13.18 112.06 13.25 111.91 13.28 111.85 13.31 111.79 13.33 111.73 13.41 111.56 13.49 111.39 13.57 111.23 13.62 111.13 13.66 111.04 13.71 110.94 13.75 110.86 13.78 110.79 13.82 110.71 13.95 110.45 14.07 110.19 14.19 109.95 14.07 111.89 14.48 113.72 15.82 114.97 19.45 118.36 23.69 110.17 26.06 104.62 28.43 99.07 24.57 83.78 24.76 79.42 24.91 76.01 24.52 66.95 24.34 63.15 24.34 63.15 24.34 63.15 24.34 63.14 25.98 60.22 28.78 58.09 33.6 57.34 33.6 57.34 36.62 88.03 34.97 95.77 33.31 103.51 26.95 112.65 20.86 122.93 20.86 122.93 13.33 124.31 10.88 119.07 10.85 119 10.83 118.92 10.82 118.84 10.83 118.8 10.83 118.78 10.82 118.75Z" fill="#5E5E5C" opacity="0.4"/><path d="M22.88 90.59C22.96 93.48 19.99 98 17.99 100.63 19.23 97.52 20.34 94.4 20.98 90.78 21.24 89.29 21.45 87.82 21.61 86.34 22.32 87.97 22.85 89.53 22.88 90.59Z" fill="#5E5E5C" opacity="0.4"/></g><g><g><path d="M16.41 104.32C16.47 104.34 16.66 103.9 16.97 103.26 17.28 102.62 17.74 101.79 18.22 100.97 18.71 100.16 19.22 99.35 19.6 98.75 19.98 98.14 20.24 97.74 20.24 97.74 20.24 97.74 20.47 97.32 20.81 96.69 21.15 96.05 21.58 95.2 21.96 94.31 22.32 93.42 22.64 92.5 22.77 91.79 22.92 91.08 22.94 90.6 22.9 90.59 22.84 90.58 22.72 91.04 22.49 91.71 22.27 92.38 21.89 93.24 21.48 94.09 21.05 94.93 20.58 95.74 20.21 96.35 19.84 96.96 19.59 97.36 19.59 97.36 19.59 97.36 19.36 97.78 19.01 98.4 18.66 99.03 18.2 99.86 17.76 100.72 17.33 101.58 16.94 102.47 16.71 103.15 16.46 103.83 16.36 104.31 16.41 104.32Z" fill="#5E5E5C"/></g><g><path d="M11.58 119.49C11.56 119.5 11.69 119.71 11.94 120.05 12.18 120.4 12.58 120.85 13.11 121.35 13.39 121.58 13.67 121.87 14.03 122.08 14.2 122.2 14.38 122.31 14.57 122.44 14.76 122.55 14.97 122.64 15.17 122.75 15.57 122.98 16.04 123.08 16.5 123.25 16.74 123.3 16.98 123.34 17.22 123.38L17.59 123.44 17.96 123.45C18.93 123.54 20 123.34 20.82 122.81 21.65 122.28 22.16 121.53 22.56 120.92 22.95 120.3 23.24 119.78 23.45 119.42 23.66 119.07 23.79 118.87 23.79 118.87 23.79 118.87 23.91 118.67 24.13 118.33 24.36 117.98 24.68 117.48 25.07 116.88 25.84 115.67 26.86 114.06 27.79 112.39 28.72 110.72 29.6 109.02 30.13 107.69 30.43 107.04 30.6 106.46 30.74 106.07 30.87 105.67 30.94 105.44 30.91 105.43 30.89 105.42 30.77 105.63 30.6 106.01 30.42 106.38 30.19 106.93 29.86 107.56 29.25 108.85 28.31 110.49 27.33 112.12 26.35 113.74 25.28 115.31 24.49 116.5 24.09 117.09 23.75 117.58 23.52 117.92 23.28 118.27 23.15 118.48 23.15 118.48 23.15 118.48 23.02 118.69 22.82 119.06 22.61 119.43 22.34 119.96 21.98 120.56 21.62 121.15 21.17 121.83 20.49 122.29 19.82 122.76 18.92 122.97 18 122.92L17.65 122.92 17.31 122.88C17.08 122.85 16.85 122.82 16.63 122.78 16.2 122.64 15.75 122.57 15.36 122.36 15.16 122.27 14.96 122.19 14.77 122.1 14.59 121.99 14.41 121.89 14.24 121.79 13.88 121.61 13.6 121.34 13.32 121.14 12.21 120.23 11.64 119.44 11.58 119.49Z" fill="#5E5E5C"/></g><g><path d="M18.65 100.14C18.68 100.15 18.79 99.85 18.97 99.33 19.14 98.8 19.39 98.05 19.68 97.14 19.94 96.23 20.22 95.15 20.53 94.01 20.81 92.85 21.06 91.61 21.33 90.36 21.76 87.86 22.06 85.32 22.12 83.42 22.17 82.47 22.24 81.67 22.23 81.12 22.23 80.56 22.23 80.24 22.23 80.24 22.23 80.24 22.2 78.97 22.16 77.07 22.03 75.19 22.05 72.69 22.38 70.21 22.55 67.68 23.74 65.45 24.57 63.75 24.99 62.9 25.33 62.18 25.54 61.67 25.74 61.15 25.85 60.86 25.82 60.85 25.8 60.84 25.65 61.12 25.4 61.61 25.15 62.1 24.77 62.79 24.31 63.61 23.85 64.44 23.31 65.41 22.84 66.51 22.6 67.06 22.39 67.65 22.21 68.26 22.09 68.88 21.97 69.5 21.85 70.13 21.45 72.65 21.38 75.2 21.46 77.11 21.47 78.99 21.47 80.25 21.47 80.25 21.47 80.25 21.48 80.56 21.49 81.11 21.51 81.66 21.45 82.44 21.42 83.39 21.4 85.28 21.15 87.79 20.8 90.28 20.56 91.51 20.35 92.75 20.12 93.91 19.86 95.07 19.61 96.15 19.4 97.07 19.17 97.99 18.97 98.75 18.83 99.29 18.69 99.82 18.63 100.13 18.65 100.14Z" fill="#5E5E5C"/></g></g><g><path d="M23.23 96.84C22.98 96.75 22.64 97.06 22.46 97.53 22.28 98 22.33 98.46 22.58 98.56 22.83 98.65 23.17 98.35 23.35 97.87 23.53 97.4 23.48 96.94 23.23 96.84Z" fill="#5E5E5C"/><path d="M24.17 93.06C23.77 92.97 23.29 93.53 23.11 94.32 22.93 95.11 23.1 95.82 23.51 95.91 23.91 96 24.39 95.44 24.57 94.66 24.75 93.87 24.57 93.15 24.17 93.06Z" fill="#5E5E5C"/></g></g><path d="M20.81 122.8C20.82 122.84 20.82 122.88 20.82 122.92 20.24 123.02 13.23 124.07 10.89 119.05 10.86 118.98 10.84 118.9 10.83 118.82 10.83 118.8 10.82 118.78 10.82 118.75 10.81 118.66 10.81 118.56 10.82 118.45 10.82 118.45 10.82 118.44 10.82 118.43 10.83 118.32 10.84 118.2 10.86 118.08 10.87 118.05 10.87 118.02 10.88 117.98 10.89 117.93 10.9 117.87 10.92 117.82 17.11 117.3 20.81 122.8 20.81 122.8Z" fill="#5E5E5C"/><g><path d="M10.82 117.5C10.81 117.58 12.21 117.75 13.54 118.12 14.2 118.34 14.86 118.54 15.32 118.78 15.56 118.89 15.75 118.98 15.89 119.04 16.03 119.1 16.09 119.16 16.1 119.15 16.1 119.15 16.4 119.31 16.85 119.56 17.08 119.67 17.32 119.85 17.58 120.04 17.83 120.24 18.13 120.41 18.37 120.66 18.62 120.9 18.86 121.14 19.1 121.36 19.22 121.47 19.33 121.58 19.41 121.7 19.5 121.82 19.59 121.93 19.67 122.03 20 122.44 20.23 122.7 20.26 122.69 20.29 122.67 20.12 122.37 19.83 121.92 19.76 121.81 19.68 121.69 19.6 121.56 19.52 121.43 19.43 121.3 19.31 121.18 19.09 120.93 18.85 120.67 18.61 120.4 18.37 120.13 18.07 119.93 17.82 119.71 17.56 119.49 17.32 119.29 17.09 119.17 16.63 118.89 16.33 118.7 16.33 118.7 16.33 118.71 16.26 118.65 16.11 118.59 15.96 118.53 15.76 118.45 15.51 118.35 15.02 118.12 14.33 117.95 13.64 117.77 12.23 117.48 10.82 117.44 10.82 117.5Z" fill="#5E5E5C"/></g></g></g><g><g><g><path d="M45.42 193.97 44.45 203.31C44.45 203.31 45.9 209.54 44.83 210.86 44.83 210.86 38.48 210.99 32.78 210.3 27.07 209.61 17.45 209.89 17.26 206.97 17.07 204.05 23.49 201.64 31.26 203.42 31.26 203.42 35.54 203.94 35.82 203.07 36.11 202.2 36.81 193.42 36.81 193.42L45.42 193.97Z" fill="#F9B799"/><path d="M45.42 193.97 44.45 203.31C44.45 203.31 45.9 209.54 44.83 210.86 44.83 210.86 38.48 210.99 32.78 210.3 27.07 209.61 17.45 209.89 17.26 206.97 17.07 204.05 23.49 201.64 31.26 203.42 31.26 203.42 35.54 203.94 35.82 203.07 36.11 202.2 36.81 193.42 36.81 193.42L45.42 193.97Z" fill="#FFBDC0" opacity="0.5"/><path d="M35.83 203.07C36.01 202.51 36.37 198.72 36.6 196.06 40.43 197.25 43.63 196.75 45.17 196.35L44.45 203.3C44.45 203.3 44.59 203.89 44.75 204.75 42.99 204.54 35.21 203.84 34.93 203.5L34.93 203.5C35.4 203.43 35.75 203.3 35.83 203.07Z" fill="#FFFFFF"/><path d="M39.55 200.13C42.48 200.76 43.4 198.02 42.77 196.75 43.77 196.67 44.58 196.5 45.16 196.35L44.5 202.7C41.63 202.91 37.52 203.21 35.54 203.33 35.68 203.26 35.78 203.18 35.82 203.07 35.95 202.69 36.15 200.77 36.35 198.74 37.13 199.29 38.18 199.84 39.55 200.13Z" fill="#7C9E38" opacity="0.2"/></g><g opacity="0.2"><path d="M26.14 203.55C26.13 203.77 26.46 203.96 26.88 203.98 27.29 204.01 27.64 203.85 27.65 203.63 27.66 203.41 27.33 203.22 26.92 203.2 26.5 203.17 26.16 203.33 26.14 203.55Z" fill="#7C9E38"/><path d="M22.94 203.76C22.97 204.1 23.53 204.33 24.19 204.28 24.85 204.23 25.37 203.91 25.34 203.57 25.31 203.23 24.76 203 24.09 203.05 23.44 203.1 22.92 203.42 22.94 203.76Z" fill="#7C9E38"/></g></g><path d="M17.26 206.97C17.07 204.05 22.63 200.93 31.26 203.42 31.26 203.42 35.54 203.94 35.82 203.07 35.88 202.88 36.02 201.3 36.11 200.53 39.36 201.79 42.7 201.89 44.67 201.1L44.44 203.31C44.44 203.31 45.89 209.54 44.82 210.86 44.82 210.86 38.47 210.99 32.77 210.3 27.07 209.61 17.45 209.89 17.26 206.97Z" fill="#423F3F"/><path d="M17.26 206.97C17.18 205.74 18.12 204.48 19.88 203.61 20.8 204.79 23.04 205.73 27.19 206.45 33.62 207.56 41.46 208.02 43.05 206.63 43.79 205.98 44.21 204.62 44.46 203.35 44.58 203.87 45.85 209.6 44.84 210.86 44.84 210.86 38.49 210.99 32.79 210.3 27.07 209.61 17.45 209.89 17.26 206.97Z" fill="#B91318" opacity="0.4"/><path d="M17.99 205.03C19.54 203.17 23.51 201.84 29.02 202.89 31.43 205.57 32.1 208.46 32.1 208.46 29.73 209.34 22.77 208.19 17.28 207.05 17.28 207.03 17.27 207 17.27 206.98 17.22 206.39 17.49 205.71 17.99 205.03Z" fill="#FFFFFF"/><path d="M36.12 205.49C35.54 205.72 34.17 204.53 33.16 203.57 33.66 203.59 34.19 203.59 34.64 203.54 35.46 204.14 36.78 205.23 36.12 205.49ZM31.42 203.44C32.33 204.44 33.48 205.58 34.04 205.41 34.65 205.23 33.71 204.24 32.95 203.56 32.29 203.53 31.69 203.47 31.42 203.44ZM35.83 203.07C35.75 203.3 35.4 203.43 34.93 203.5 35.95 204.45 37.31 205.65 37.9 205.42 38.82 205.06 35.83 203.07 35.83 203.07Z" fill="#FFFFFF"/><path d="M37.92 204.62C37.92 204.62 40.77 199 37.35 198.17 33.92 197.35 35.89 203.15 35.89 203.15L37.92 204.62Z" fill="#B93313"/><path d="M36.7 201.64C37.68 201.27 38.32 199.88 38.26 198.61 40.18 200.17 37.92 204.62 37.92 204.62L35.88 203.15C35.88 203.15 35.64 202.44 35.47 201.56 35.92 201.77 36.33 201.78 36.7 201.64Z" fill="#B91318" opacity="0.4"/><path d="M17.96 205.07C18.03 204.99 18.1 204.9 18.18 204.82 18.21 204.79 18.24 204.75 18.28 204.71 18.41 204.58 18.55 204.46 18.7 204.33 18.73 204.31 18.75 204.3 18.78 204.28 18.91 204.18 19.05 204.08 19.21 203.99 19.26 203.96 19.31 203.93 19.36 203.9 19.5 203.82 19.64 203.74 19.79 203.66 19.82 203.64 19.85 203.63 19.88 203.61 20.8 204.79 23.04 205.73 27.19 206.44 28.63 206.69 30.14 206.9 31.63 207.07 31.97 207.9 32.09 208.44 32.09 208.44 29.72 209.32 22.76 208.17 17.27 207.03 17.27 207.01 17.26 206.98 17.26 206.96 17.22 206.4 17.48 205.74 17.96 205.07Z" fill="#7C9E38" opacity="0.2"/><path d="M32.1 208.46C39.76 208.98 43.71 208.68 45.22 208.49 45.26 209.54 45.18 210.45 44.84 210.87 44.84 210.87 38.49 211 32.79 210.31 27.08 209.62 17.46 209.9 17.27 206.98 17.24 206.55 17.38 206.06 17.66 205.56 20.4 206.8 25.31 207.99 32.1 208.46Z" fill="#FFFFFF"/><path d="M45.14 209.09C43.64 209.27 39.68 209.58 32.03 209.06 25.24 208.6 20.33 207.4 17.58 206.15 17.44 206.41 17.33 206.67 17.26 206.92 17.25 206.5 17.38 206.03 17.65 205.55 20.4 206.8 25.3 207.99 32.09 208.46 39.75 208.98 43.7 208.68 45.21 208.49 45.23 209.1 45.21 209.65 45.13 210.1 45.15 209.78 45.15 209.44 45.14 209.09Z" fill="#7C9E38" opacity="0.4"/></g><g><g><g><path d="M94.86 155.96 102.88 151.08C102.88 151.08 106.96 146.15 108.66 146.2 108.66 146.2 112.61 151.17 115.52 156.13 118.43 161.09 124.48 168.58 122.27 170.49 120.06 172.41 114.26 168.76 110.97 161.5 110.97 161.5 108.79 157.78 107.92 158.08 107.05 158.38 99.64 163.14 99.64 163.14L94.86 155.96Z" fill="#F9B799"/><path d="M94.86 155.96 102.88 151.08C102.88 151.08 106.96 146.15 108.66 146.2 108.66 146.2 112.61 151.17 115.52 156.13 118.43 161.09 124.48 168.58 122.27 170.49 120.06 172.41 114.26 168.76 110.97 161.5 110.97 161.5 108.79 157.78 107.92 158.08 107.05 158.38 99.64 163.14 99.64 163.14L94.86 155.96Z" fill="#FFBDC0" opacity="0.5"/><path d="M107.91 158.08C107.36 158.27 104.13 160.29 101.87 161.71 100.49 157.94 98.16 155.7 96.91 154.71L102.88 151.07C102.88 151.07 103.27 150.6 103.85 149.95 104.75 151.48 108.9 158.1 108.8 158.53L108.8 158.53C108.46 158.2 108.14 158 107.91 158.08Z" fill="#FFFFFF"/><path d="M103.31 156.89C102.03 154.18 99.3 155.11 98.67 156.37 98 155.63 97.38 155.08 96.9 154.71L102.35 151.39C104.26 153.55 106.99 156.63 108.28 158.14 108.14 158.07 108.01 158.04 107.9 158.08 107.52 158.21 105.87 159.21 104.14 160.28 104.11 159.33 103.91 158.16 103.31 156.89Z" fill="#7C9E38" opacity="0.2"/></g><g opacity="0.2"><path d="M114.15 165.5C114.33 165.38 114.28 165 114.05 164.65 113.82 164.31 113.48 164.12 113.3 164.24 113.12 164.36 113.17 164.74 113.4 165.09 113.64 165.43 113.97 165.61 114.15 165.5Z" fill="#7C9E38"/><path d="M116.26 167.91C116.51 167.68 116.36 167.1 115.92 166.6 115.48 166.1 114.91 165.89 114.66 166.12 114.41 166.34 114.56 166.93 115 167.43 115.44 167.92 116 168.14 116.26 167.91Z" fill="#7C9E38"/></g></g><path d="M122.26 170.49C120.05 172.41 114.2 169.88 110.96 161.5 110.96 161.5 108.78 157.78 107.91 158.08 107.72 158.15 106.39 159 105.71 159.39 104.75 156.04 102.8 153.32 100.98 152.23L102.88 151.07C102.88 151.07 106.96 146.14 108.66 146.19 108.66 146.19 112.61 151.16 115.52 156.12 118.41 161.08 124.47 168.57 122.26 170.49Z" fill="#423F3F"/><path d="M122.26 170.49C121.33 171.3 119.75 171.31 118 170.44 118.39 169 117.77 166.64 115.83 162.91 112.82 157.12 108.43 150.6 106.37 150.18 105.4 149.98 104.06 150.47 102.91 151.05 103.25 150.64 107.04 146.15 108.66 146.2 108.66 146.2 112.61 151.17 115.52 156.13 118.41 161.08 124.47 168.57 122.26 170.49Z" fill="#423F3F" opacity="0.4"/><path d="M120.27 171.09C117.85 170.98 114.39 168.64 111.88 163.61 112.55 160.07 114.45 157.78 114.45 157.78 116.59 159.13 119.89 165.37 122.3 170.43 122.28 170.45 122.27 170.47 122.25 170.48 121.82 170.87 121.12 171.07 120.27 171.09Z" fill="#FFFFFF"/><path d="M109.65 156.38C110.18 156.71 110.06 158.51 109.92 159.9 109.63 159.49 109.31 159.07 109 158.74 108.99 157.72 109.05 156.01 109.65 156.38ZM110.87 161.36C111.11 160.03 111.33 158.43 110.85 158.08 110.33 157.7 110.12 159.06 110.03 160.07 110.42 160.61 110.73 161.12 110.87 161.36ZM107.91 158.08C108.14 158 108.46 158.2 108.8 158.54 108.94 157.15 109.07 155.34 108.53 155.01 107.68 154.49 107.91 158.08 107.91 158.08Z" fill="#FFFFFF"/><path d="M107.87 155.47C107.87 155.47 101.67 156.61 103.09 159.83 104.51 163.05 107.94 157.98 107.94 157.98L107.87 155.47Z" fill="#B93313"/><path d="M106.24 158.25C105.36 157.69 103.86 158.02 102.88 158.84 102.96 156.37 107.87 155.47 107.87 155.47L107.94 157.98C107.94 157.98 107.52 158.6 106.92 159.27 106.81 158.79 106.57 158.46 106.24 158.25Z" fill="#B91318" opacity="0.4"/><path d="M120.32 171.08C120.21 171.08 120.1 171.07 119.99 171.05 119.94 171.04 119.89 171.04 119.84 171.03 119.66 171.01 119.48 170.97 119.29 170.92 119.26 170.91 119.23 170.9 119.2 170.89 119.04 170.84 118.88 170.79 118.71 170.73 118.66 170.71 118.6 170.69 118.55 170.67 118.4 170.61 118.25 170.54 118.1 170.47 118.07 170.46 118.04 170.44 118.01 170.42 118.39 168.98 117.78 166.62 115.84 162.89 115.17 161.59 114.42 160.26 113.66 158.97 114.12 158.2 114.47 157.77 114.47 157.77 116.61 159.12 119.91 165.36 122.32 170.42 122.3 170.44 122.29 170.46 122.27 170.47 121.83 170.86 121.14 171.06 120.32 171.08Z" fill="#7C9E38" opacity="0.2"/><path d="M114.45 157.78C110.23 151.37 107.59 148.41 106.53 147.33 107.34 146.66 108.12 146.18 108.65 146.19 108.65 146.19 112.6 151.16 115.51 156.12 118.42 161.08 124.47 168.57 122.26 170.48 121.93 170.76 121.46 170.95 120.89 171.03 120.22 168.09 118.2 163.47 114.45 157.78Z" fill="#FFFFFF"/><path d="M107.06 147.02C108.12 148.1 110.76 151.06 114.98 157.47 118.72 163.16 120.75 167.78 121.42 170.73 121.72 170.69 121.99 170.61 122.22 170.52 121.89 170.79 121.44 170.96 120.89 171.04 120.22 168.09 118.2 163.47 114.45 157.78 110.23 151.37 107.59 148.41 106.53 147.33 107 146.94 107.45 146.62 107.86 146.42 107.6 146.59 107.33 146.8 107.06 147.02Z" fill="#7C9E38" opacity="0.4"/></g><g><path d="M94.38 151.4C90.52 153.29 89.52 152.5 84.29 151.98 79.06 151.46 71.86 144.15 69.6 138.5 67.34 132.85 65.61 122.79 65.61 122.79L65.61 122.79C65.57 122.5 65.53 122.25 65.49 122.06 65.16 120.33 64.56 116.82 63.97 113.37 63.07 113.43 62.17 113.52 61.28 113.63 53.64 115.49 45.84 116.2 38.22 114.84 35.78 114.74 33.36 114.46 30.98 113.93 31.16 124.12 26.62 158.28 28.34 165.22 29.57 170.18 31.04 185.95 34.03 194.64 34.99 197.44 36.37 199.2 39.04 199.09 43.24 198.91 47.28 197.71 47.68 193.37 48.47 184.85 42.77 168.97 42.93 163.07 43.07 157.95 44.76 136.14 45.88 135.06 46.56 134.4 48.33 135.17 49.76 136.55 52.05 141.57 58.85 155.44 66.28 161.08 75.42 168.02 99.43 169.85 103.01 163.23 106.58 156.63 98.25 149.5 94.38 151.4Z" fill="#2C82C7"/><g><g><g><g><g><path d="M94.38 151.4C90.52 153.29 89.52 152.5 84.29 151.98 79.06 151.46 71.86 144.15 69.6 138.5 67.82 134.07 66.38 126.92 65.84 124.05 65.81 124.06 65.79 124.06 65.77 124.07 65.67 123.19 65.57 122.49 65.49 122.06 65.16 120.33 64.56 116.82 63.97 113.37 63.07 113.43 62.17 113.52 61.28 113.63 53.64 115.49 45.84 116.2 38.22 114.84 35.78 114.74 33.36 114.46 30.98 113.93 30.98 114.11 30.98 114.31 30.99 114.51 34.48 115.8 40.24 117.29 44.5 117.17 50.86 116.99 55.17 116.4 55.17 116.4 55.17 116.4 54.95 121.51 57.38 123.72 58.68 124.9 60.51 125.89 61.94 126.56 62.8 131.94 64.36 137.35 66.78 142.23 68.16 145.01 69.91 147.43 71.2 150.17 72.56 153.06 75.51 154.78 77.28 157.37 78.38 158.99 78.95 162.7 76.73 163.69 75.38 164.3 73.64 163.03 72.33 162.66 70.08 162.03 67.85 161.35 65.66 160.55 65.87 160.72 66.07 160.91 66.28 161.06 75.42 168 99.43 169.83 103.01 163.21 106.58 156.63 98.25 149.5 94.38 151.4Z" fill="#2C82C7" opacity="0.3"/><path d="M48.6 135.62C48.68 135.67 48.76 135.73 48.84 135.79 48.9 135.83 48.96 135.88 49.02 135.92 49.13 136.01 49.25 136.1 49.36 136.2 49.43 136.25 49.49 136.31 49.55 136.37 49.62 136.43 49.69 136.5 49.76 136.57L50.31 136.56C48.96 135.02 43.57 129.11 41.39 130.47 38.89 132.03 43.45 132.98 43.45 132.98L40.41 134.98C40.41 134.98 42.78 135.35 42.47 137.27 41.5 143.21 40.26 149.11 39.3 155.06 38.78 158.29 39.22 161.48 38.81 164.61 38.48 167.13 35.02 174.65 31.83 171.2 31.21 170.53 31.17 167.74 30.83 166.81 30.18 165.03 27.98 162.83 27.96 160.9 27.98 162.3 28.05 163.5 28.18 164.43 28.2 164.56 28.22 164.69 28.24 164.82 28.24 164.84 28.25 164.85 28.25 164.87 28.28 165 28.3 165.13 28.33 165.25 29.56 170.21 31.03 185.98 34.02 194.67 34.98 197.47 36.36 199.23 39.03 199.12 43.23 198.94 47.27 197.74 47.67 193.4 48.44 185.1 43.06 169.82 42.93 163.58 42.93 163.41 42.92 163.25 42.93 163.1 43.07 157.98 44.76 136.17 45.88 135.09 45.94 135.03 46.02 134.99 46.1 134.95 46.12 134.94 46.15 134.93 46.17 134.92 46.23 134.9 46.3 134.88 46.37 134.87 46.4 134.87 46.43 134.86 46.46 134.86 46.56 134.85 46.66 134.85 46.77 134.86 46.78 134.86 46.8 134.86 46.81 134.87 46.91 134.88 47.02 134.91 47.12 134.93 47.16 134.94 47.2 134.95 47.25 134.97 47.34 135 47.42 135.03 47.51 135.06 47.55 135.08 47.6 135.09 47.64 135.11 47.76 135.16 47.89 135.22 48.02 135.29 48.06 135.31 48.1 135.34 48.14 135.36 48.23 135.41 48.33 135.47 48.42 135.53 48.48 135.54 48.54 135.58 48.6 135.62Z" fill="#2C82C7" opacity="0.3"/></g><g><path d="M39.82 155.61C39.63 155.57 39.67 154.23 39.67 154.23 39.67 154.23 40.01 152.95 40.19 152.99 40.38 153.03 40.34 154.36 40.34 154.36 40.34 154.36 40 155.64 39.82 155.61Z" fill="#0D5382"/><path d="M39.25 160.87C39.06 160.85 39.03 159.5 39.03 159.5 39.03 159.5 39.31 158.2 39.49 158.23 39.68 158.26 39.7 159.59 39.7 159.59 39.7 159.59 39.44 160.89 39.25 160.87Z" fill="#0D5382"/><path d="M39.89 170.14C39.89 170.14 39.66 168.82 39.84 168.76 40.02 168.7 40.54 169.88 40.54 169.88 40.54 169.88 40.77 171.18 40.59 171.27 40.41 171.34 39.89 170.14 39.89 170.14Z" fill="#0D5382"/><path d="M32.45 122.91C32.77 122.69 33.21 122.39 33.56 121.98 33.91 121.58 34.22 121.11 34.34 120.69 34.49 120.29 34.52 119.98 34.58 119.98 34.61 119.98 34.67 120.3 34.59 120.78 34.53 121.27 34.26 121.86 33.91 122.37 33.56 122.88 33.11 123.27 32.77 123.54 32.43 123.8 32.19 123.96 32.19 123.96 32.19 123.96 31.38 124.39 30.44 124.65 30.46 124.42 30.47 124.2 30.49 123.98 31.26 123.64 31.87 123.24 31.87 123.24 31.87 123.24 32.11 123.12 32.45 122.91Z" fill="#0D5382"/><path d="M39.32 166.16C39.14 166.2 38.84 164.87 38.84 164.87 38.84 164.87 38.93 163.51 39.12 163.51 39.31 163.51 39.52 164.8 39.52 164.8 39.52 164.8 39.51 166.13 39.32 166.16Z" fill="#0D5382"/><path d="M41.49 143.82C41.49 143.82 41.92 142.58 42.1 142.64 42.28 142.7 42.15 144.02 42.15 144.02 42.15 144.02 41.72 145.26 41.54 145.2 41.36 145.15 41.49 143.82 41.49 143.82Z" fill="#0D5382"/><path d="M41.6 175.09C41.6 175.09 41.31 173.79 41.47 173.71 41.65 173.62 42.23 174.78 42.23 174.78 42.23 174.78 42.53 176.08 42.35 176.16 42.18 176.25 41.6 175.09 41.6 175.09Z" fill="#0D5382"/><path d="M28.14 152.78C28.41 151.21 28.83 149.64 29.16 148.12 29.42 146.91 29.58 146.11 29.64 146.12 29.68 146.13 29.6 146.96 29.42 148.19 29.23 149.41 28.98 151.04 28.72 152.67 28.47 154.3 28.35 155.93 28.29 157.16 28.29 157.78 28.29 158.29 28.29 158.64 28.31 158.99 28.31 159.19 28.31 159.19 28.31 159.19 28.29 159.99 28.56 161.16 28.81 162.33 29.43 163.82 30.09 165.29 30.75 166.76 31.39 168.3 31.62 169.56 31.69 169.87 31.73 170.16 31.75 170.41 31.78 170.67 31.8 170.89 31.78 171.08 31.77 171.45 31.76 171.66 31.73 171.66 31.66 171.66 31.68 170.82 31.36 169.64 31.06 168.46 30.38 167.01 29.66 165.57 28.36 162.98 27.57 160.04 27.82 157.08 27.87 156.48 27.85 155.88 27.86 155.28 27.89 154.45 27.99 153.61 28.14 152.78Z" fill="#0D5382"/><path d="M43.15 178.65C43.33 178.58 43.78 179.85 43.78 179.85 43.78 179.85 43.81 181.24 43.62 181.25 43.43 181.25 43.12 180.02 43.12 180.02 43.11 180.02 42.97 178.73 43.15 178.65Z" fill="#0D5382"/><path d="M35.97 195.94C36 195.89 36.26 196.05 36.64 196.25 37.03 196.42 37.56 196.63 38.09 196.6 38.62 196.58 39.14 196.4 39.5 196.2 39.86 195.99 40.09 195.83 40.09 195.83 40.09 195.83 40.15 195.79 40.25 195.72 40.35 195.65 40.5 195.56 40.67 195.42 41.02 195.17 41.45 194.75 41.87 194.31 42.7 193.43 43.43 192.4 43.51 192.47 43.58 192.53 42.98 193.68 42.21 194.71 41.82 195.21 41.4 195.7 41.04 196.02 40.87 196.19 40.71 196.31 40.6 196.39 40.49 196.47 40.43 196.52 40.43 196.52 40.43 196.52 40.16 196.69 39.74 196.88 39.31 197.07 38.69 197.22 38.08 197.16 37.46 197.11 36.9 196.79 36.52 196.52 36.16 196.22 35.95 195.98 35.97 195.94Z" fill="#0D5382"/><path d="M49.75 136.57 50.38 136.55C49.9 135.82 49.36 135.18 48.93 134.71 48.41 134.17 48.05 133.84 48.05 133.84 48.05 133.84 47.67 133.52 47.09 133.09 46.5 132.67 45.7 132.15 44.86 131.71 43.19 130.82 41.41 130.35 41.39 130.46 41.36 130.57 43.08 131.23 44.65 132.22 46.06 133.07 47.3 134.17 47.58 134.42 47.24 134.22 47.01 134.1 47.01 134.1 47.01 134.1 45.57 133.48 44.07 133.31 42.57 133.11 41.09 133.35 41.1 133.45 41.11 133.56 42.35 133.54 43.65 133.8 43.53 133.96 43.43 134.21 43.43 134.21 43.43 134.21 43.49 134.87 43.67 134.91 43.86 134.95 44.1 134.36 44.1 134.36 44.1 134.36 44.08 134.08 44.01 133.88 45.37 134.17 46.62 134.79 46.74 134.84 47.59 134.92 48.75 135.6 49.75 136.57Z" fill="#0D5382"/><path d="M39.34 116.35C39.95 116.51 40.55 116.63 41.15 116.74 41.12 116.89 41.08 117.05 41.05 117.22 40.92 118 40.77 119.05 40.79 120.13 40.78 120.67 40.84 121.21 40.88 121.71 40.97 122.21 41.03 122.68 41.16 123.07 41.21 123.27 41.26 123.45 41.31 123.61 41.37 123.76 41.42 123.9 41.46 124.01 41.55 124.23 41.59 124.35 41.59 124.35 41.59 124.35 41.64 124.48 41.76 124.68 41.88 124.87 42.02 125.19 42.25 125.5 42.67 126.17 43.37 126.91 44.11 127.54 45.61 128.8 47.32 129.54 47.35 129.46 47.37 129.42 47.15 129.26 46.8 129.01 46.82 128.81 46.35 127.47 45.93 126.11 45.49 124.66 45.16 123.18 45.16 123.18 45.16 123.18 45.08 122.81 44.95 122.26 44.8 121.71 44.73 120.97 44.61 120.22 44.46 118.75 44.59 117.27 44.49 117.17 44.71 117.19 44.93 117.2 45.14 117.22 46.73 117.29 47.8 117.28 47.8 117.28 47.8 117.28 48.07 117.26 48.53 117.24 48.99 117.2 49.66 117.2 50.45 117.1 51.76 116.98 53.43 116.74 55.14 116.41 55.11 116.68 55.08 117.26 55.13 118.04 55.18 119.09 55.45 120.45 55.87 121.77L55.87 121.77C55.86 121.78 55.87 121.81 55.9 121.86 55.91 121.88 55.91 121.89 55.92 121.91 56.41 123.26 57.06 124.52 57.64 125.38 57.91 125.83 58.2 126.15 58.37 126.4 58.55 126.64 58.66 126.77 58.66 126.77 58.66 126.77 58.78 126.89 58.99 127.1 59.21 127.3 59.48 127.64 59.87 127.95 60.61 128.63 61.71 129.36 62.87 129.91 63.38 130.13 63.9 130.3 64.4 130.43 64.5 130.57 64.61 130.7 64.71 130.67 64.76 130.66 64.79 130.6 64.82 130.53 65.31 130.64 65.79 130.71 66.2 130.73 66.45 130.74 66.68 130.74 66.88 130.73 66.87 130.65 66.86 130.57 66.85 130.49 66.66 130.47 66.45 130.44 66.22 130.41 65.82 130.35 65.37 130.24 64.89 130.1 64.9 130.01 64.9 129.95 64.9 129.95 64.9 129.95 64.61 129.37 64.43 129.43 64.33 129.46 64.28 129.7 64.26 129.89 63.86 129.74 63.45 129.58 63.05 129.38 61.96 128.79 60.94 128.05 60.26 127.37 59.89 127.07 59.65 126.73 59.45 126.53 59.26 126.32 59.15 126.2 59.15 126.2 59.15 126.2 59.05 126.08 58.87 125.85 58.7 125.62 58.41 125.33 58.14 124.92 57.89 124.58 57.63 124.17 57.38 123.72 57.63 123.97 57.9 124.23 58.17 124.5 58.5 124.79 58.85 125.03 59.18 125.28 59.5 125.54 59.82 125.74 60.1 125.89 60.65 126.21 61.02 126.42 61.02 126.42 61.02 126.42 62.56 127.08 64.14 127.49 65.02 127.71 65.87 127.9 66.49 128.01 66.48 127.9 66.46 127.8 66.44 127.7 65.86 127.49 65.06 127.22 64.26 126.95 62.73 126.4 61.28 125.69 61.28 125.69 61.28 125.69 60.92 125.51 60.37 125.23 60.09 125.1 59.78 124.93 59.46 124.71 59.14 124.5 58.78 124.29 58.45 124.04 57.81 123.56 57.23 123.01 56.78 122.56 56.65 122.28 56.51 121.99 56.39 121.69 55.91 120.41 55.56 119.05 55.43 118 55.33 117.23 55.29 116.65 55.26 116.39 55.59 116.33 55.93 116.26 56.26 116.19 58.34 115.72 60.39 115.16 61.91 114.63 62.67 114.39 63.3 114.14 63.74 113.97 63.87 113.92 63.99 113.87 64.08 113.83 64.07 113.79 64.07 113.76 64.06 113.72 63.64 113.83 62.86 114.05 61.84 114.33 60.31 114.76 58.24 115.23 56.17 115.63 54.09 116 52.01 116.26 50.44 116.36 49.66 116.44 49 116.42 48.55 116.45 48.09 116.47 47.83 116.48 47.83 116.48 47.83 116.48 46.78 116.51 45.21 116.48 44.14 116.44 42.82 116.34 41.44 116.14 41.44 116.03 41.44 115.96 41.42 115.95 41.41 115.95 41.38 116.02 41.35 116.12 40.73 116.03 40.1 115.92 39.48 115.78 38.19 115.48 36.91 115.1 35.78 114.67 35.37 114.63 34.96 114.59 34.55 114.54 35.86 115.25 37.59 115.88 39.34 116.35ZM41.36 116.78C42.48 116.98 43.55 117.1 44.49 117.18 44.4 117.25 44.11 118.72 44.14 120.26 44.19 121.04 44.23 121.84 44.35 122.42 44.45 123 44.51 123.39 44.51 123.39 44.51 123.39 44.92 124.9 45.49 126.32 45.96 127.48 46.49 128.59 46.7 128.93 46.11 128.51 45.22 127.87 44.41 127.09 43.74 126.43 43.12 125.69 42.76 125.06 42.55 124.76 42.45 124.47 42.34 124.29 42.24 124.11 42.2 123.99 42.2 123.99 42.2 123.99 42.15 123.88 42.07 123.68 42.03 123.58 41.98 123.46 41.91 123.33 41.86 123.19 41.81 123.03 41.75 122.85 41.62 122.5 41.54 122.07 41.43 121.61 41.37 121.14 41.28 120.64 41.26 120.13 41.18 118.85 41.29 117.58 41.36 116.78Z" fill="#0D5382"/><path d="M40.6 150.39C40.42 150.35 40.47 149.01 40.47 149.01 40.47 149.01 40.84 147.74 41.03 147.79 41.21 147.84 41.14 149.17 41.14 149.17 41.14 149.17 40.79 150.43 40.6 150.39Z" fill="#0D5382"/><path d="M43.2 137.5C43.39 137.55 43.27 138.88 43.27 138.88 43.27 138.88 42.85 140.13 42.67 140.07 42.49 140.01 42.6 138.68 42.6 138.68 42.6 138.68 43.02 137.45 43.2 137.5Z" fill="#0D5382"/><path d="M44.25 185.89C44.06 185.89 43.77 184.64 43.77 184.64 43.77 184.64 43.79 183.36 43.97 183.32 44.15 183.28 44.45 184.56 44.45 184.56 44.45 184.56 44.44 185.89 44.25 185.89Z" fill="#0D5382"/><path d="M45.08 190.95C44.89 190.96 44.5 189.75 44.5 189.75 44.5 189.75 44.42 188.48 44.6 188.42 44.78 188.37 45.17 189.62 45.17 189.62 45.17 189.62 45.27 190.94 45.08 190.95Z" fill="#0D5382"/><path d="M45.69 196.33C45.5 196.33 45.2 195.09 45.2 195.09 45.2 195.09 45.21 193.81 45.4 193.77 45.59 193.73 45.88 195.01 45.88 195.01 45.88 195.01 45.88 196.33 45.69 196.33Z" fill="#0D5382"/><path d="M30.2 127.77C30.74 127.51 31.32 127.06 31.83 126.54 32.51 125.87 33.01 124.98 33.39 124.34 33.55 124 33.69 123.71 33.78 123.51 33.88 123.31 33.92 123.19 33.92 123.19 33.92 123.19 33.97 123.07 34.06 122.87 34.14 122.66 34.29 122.38 34.41 122.02 34.67 121.3 34.96 120.3 35.12 119.27 35.26 118.24 35.32 117.17 35.2 116.39 35.18 115.99 35.08 115.68 35.05 115.45 35.01 115.22 34.99 115.08 35.01 115.07 35.03 115.06 35.09 115.18 35.18 115.39 35.26 115.61 35.41 115.92 35.47 116.33 35.68 117.13 35.69 118.25 35.61 119.35 35.51 120.45 35.25 121.52 35 122.3 34.89 122.7 34.75 123 34.67 123.23 34.59 123.45 34.54 123.57 34.54 123.57 34.54 123.57 34.49 123.7 34.38 123.9 34.27 124.11 34.11 124.4 33.92 124.75 33.49 125.41 32.92 126.31 32.15 126.98 31.52 127.54 30.82 127.98 30.18 128.17 30.18 128.02 30.19 127.9 30.2 127.77Z" fill="#0D5382"/></g></g><g><g><path d="M29.77 156.71C29.99 156.74 30.21 156.36 30.26 155.86 30.31 155.36 30.17 154.93 29.94 154.9 29.72 154.87 29.5 155.25 29.46 155.75 29.41 156.25 29.55 156.68 29.77 156.71Z" fill="#53ADEA"/><path d="M29.81 160.58C30.16 160.57 30.43 159.92 30.41 159.11 30.39 158.31 30.1 157.66 29.75 157.67 29.4 157.68 29.13 158.33 29.15 159.13 29.16 159.94 29.46 160.59 29.81 160.58Z" fill="#53ADEA"/></g></g></g></g><path d="M30.96 116.15C30.97 115.79 30.98 115.44 30.98 115.11 30.98 115.09 30.98 115.08 30.98 115.06 31.05 114.81 31.12 114.59 31.17 114.43 31.22 114.28 31.27 114.14 31.31 114 33.58 114.48 35.89 114.75 38.21 114.84 45.84 116.2 53.63 115.49 61.27 113.63 62.16 113.52 63.06 113.43 63.96 113.37 64.08 114.04 64.19 114.71 64.3 115.37 64.49 116.48 64.68 117.57 64.85 118.55 63.14 119.62 56.95 123.06 47.89 123.29 38.27 123.54 31.74 118.91 31.03 117.64 30.97 117.55 30.94 117.44 30.9 117.34 30.9 117.32 30.9 117.3 30.9 117.28 30.93 116.9 30.95 116.52 30.96 116.15 30.96 116.16 30.96 116.16 30.96 116.15Z" fill="#2C82C7" opacity="0.3"/></g><g><g><path d="M64.29 131.37C64.31 131.77 63.94 132.12 63.94 132.12 63.94 132.12 63.53 131.83 63.51 131.41 63.49 131 63.86 130.66 63.86 130.66 63.86 130.66 64.27 130.98 64.29 131.37Z" fill="#0D5382"/></g><g><path d="M65.17 136.37C65.39 137.14 65.2 137.9 65.2 137.9 65.2 137.9 64.65 137.39 64.42 136.58 64.19 135.78 64.39 135.05 64.39 135.05 64.39 135.05 64.95 135.6 65.17 136.37Z" fill="#0D5382"/></g><g><path d="M67.38 141.76C67.77 142.47 67.75 143.25 67.75 143.25 67.75 143.25 67.1 142.87 66.7 142.14 66.3 141.41 66.33 140.65 66.33 140.65 66.33 140.64 67 141.05 67.38 141.76Z" fill="#0D5382"/></g><g><path d="M70.69 146.56C71.21 147.17 71.35 147.94 71.35 147.94 71.35 147.94 70.63 147.7 70.09 147.06 69.55 146.43 69.43 145.68 69.43 145.68 69.43 145.68 70.16 145.95 70.69 146.56Z" fill="#0D5382"/></g><g><path d="M74.89 150.6C75.52 151.1 75.82 151.82 75.82 151.82 75.82 151.82 75.07 151.73 74.41 151.21 73.75 150.7 73.49 149.99 73.49 149.99 73.49 149.99 74.26 150.11 74.89 150.6Z" fill="#0D5382"/></g><g><path d="M79.83 153.7C80.55 154.05 80.99 154.7 80.99 154.7 80.99 154.7 80.24 154.77 79.49 154.4 78.74 154.04 78.33 153.4 78.33 153.4 78.33 153.4 79.11 153.35 79.83 153.7Z" fill="#0D5382"/></g><g><path d="M85.32 155.6C86.1 155.77 86.69 156.29 86.69 156.29 86.69 156.29 85.98 156.54 85.16 156.36 84.34 156.18 83.79 155.67 83.79 155.67 83.79 155.67 84.54 155.43 85.32 155.6Z" fill="#0D5382"/></g><g><path d="M91.09 156.1C91.88 156.02 92.59 156.34 92.59 156.35 92.59 156.35 91.98 156.8 91.14 156.88 90.3 156.9 89.64 156.53 89.64 156.53 89.64 156.53 90.3 156.12 91.09 156.1Z" fill="#0D5382"/></g><g><path d="M96.85 154.99C97.69 154.85 98.39 155.14 98.39 155.14 98.39 155.14 97.78 155.63 97.01 155.75 96.23 155.94 95.49 155.71 95.49 155.71 95.49 155.71 96.04 155.18 96.85 154.99Z" fill="#0D5382"/></g><g><path d="M102.14 155.42C102.54 155.6 102.65 156.08 102.65 156.08 102.65 156.08 102.17 156.29 101.82 156.13 101.48 155.97 101.31 155.47 101.31 155.47 101.31 155.47 101.75 155.24 102.14 155.42Z" fill="#0D5382"/></g></g><g><g><path d="M64.48 156.96C64.67 156.84 64.59 156.41 64.31 155.99 64.02 155.58 63.64 155.34 63.45 155.46 63.26 155.58 63.34 156.01 63.62 156.42 63.91 156.84 64.29 157.08 64.48 156.96Z" fill="#53ADEA"/><path d="M66.99 159.91C67.26 159.68 67.04 159 66.51 158.4 65.98 157.79 65.34 157.49 65.08 157.72 64.82 157.95 65.03 158.62 65.56 159.23 66.09 159.83 66.73 160.14 66.99 159.91Z" fill="#53ADEA"/></g></g><g><path d="M74.15 163.49C74.13 163.6 71.94 163.34 69.77 162.83 68.69 162.54 67.61 162.21 66.85 161.81 66.46 161.64 66.15 161.45 65.94 161.31 65.73 161.18 65.6 161.1 65.6 161.1 65.6 161.09 65.47 161.04 65.29 160.85 65.1 160.67 64.82 160.44 64.52 160.13 63.94 159.49 63.3 158.56 62.7 157.67 62.05 156.83 61.3 155.99 60.86 155.27 60.42 154.55 60.27 154 60.31 153.99 60.39 153.96 60.65 154.44 61.15 155.06 61.66 155.69 62.46 156.42 63.21 157.27 63.9 158.15 64.57 158.99 65.13 159.54 65.42 159.81 65.67 160 65.84 160.15 66 160.3 66.14 160.35 66.13 160.36 66.13 160.36 66.24 160.43 66.43 160.56 66.62 160.69 66.88 160.88 67.24 161.06 67.92 161.47 68.93 161.85 69.96 162.21 72.02 162.86 74.19 163.35 74.15 163.49Z" fill="#0D5382"/></g></g><g><g><path d="M63.08 59.25C62.66 58.95 53.25 55.28 45.37 55.32 37.49 55.36 30.96 58.61 26.15 61.87 25.39 77.42 24.5 77.48 27.58 94.84 29.96 108.28 30.07 111.07 30.07 111.07 30.07 111.07 29.26 113.25 30.06 114.4 30.86 115.55 37.77 119.45 47.44 118.54 58.22 117.52 64.66 112.53 64.66 112.53 64.72 111.39 64.2 110.56 63.38 109.15 62.93 108.14 63.63 83.55 63.63 83.55 63.63 83.55 66.96 62.04 63.08 59.25Z" fill="#5E5E5C"/><path d="M30.06 114.41C29.43 113.52 29.79 112 29.97 111.37 46.41 120.22 59.83 112.17 63.57 109.49 64.28 110.7 64.71 111.49 64.66 112.54 64.66 112.54 58.22 117.53 47.44 118.55 37.77 119.46 30.86 115.56 30.06 114.41Z" fill="#5E5E5C"/><path d="M45.37 55.33C53.25 55.28 62.65 58.96 63.08 59.26 63.61 59.64 64.01 60.38 64.29 61.36 63.58 61.73 62.83 61.82 62.09 61.46L51.42 57.56C51.42 57.56 47.39 61.83 42.55 61.38 37.4 60.9 37.12 58.04 37.12 58.04L26.12 62.6C26.14 62.14 26.15 61.88 26.15 61.88 30.96 58.62 37.49 55.37 45.37 55.33Z" fill="#5E5E5C"/><g opacity="0.4"><g><path d="M43.08 63.25C43.08 63.35 44.24 63.41 45.39 63.22 46.54 63.04 47.64 62.6 47.64 62.6 47.64 62.6 47.9 62.47 48.29 62.25 48.67 62.02 49.16 61.69 49.6 61.29 50.03 60.89 50.42 60.43 50.64 60.04 50.87 59.66 50.96 59.38 50.92 59.36 50.87 59.33 50.7 59.56 50.41 59.87 50.13 60.19 49.72 60.56 49.28 60.88 48.39 61.53 47.35 61.92 47.35 61.92 47.35 61.92 46.36 62.41 45.28 62.71 44.21 63.02 43.08 63.15 43.08 63.25Z" fill="#5E5E5C"/></g><g><path d="M36.02 61.12C35.96 61.19 36.67 61.97 37.52 62.62 38.38 63.25 39.36 63.71 39.36 63.71 39.36 63.71 39.62 63.79 40 63.91 40.19 63.97 40.42 64.03 40.66 64.07 40.9 64.11 41.16 64.17 41.43 64.2 42.49 64.32 43.53 64.18 43.52 64.09 43.51 63.97 42.49 63.93 41.51 63.69 41.27 63.63 41.03 63.54 40.8 63.48 40.58 63.42 40.37 63.34 40.2 63.26 39.85 63.12 39.62 63.02 39.62 63.02 39.62 63.02 38.68 62.67 37.79 62.18 36.91 61.67 36.09 61.04 36.02 61.12Z" fill="#5E5E5C"/></g><g><path d="M42.83 113.55C42.82 113.59 43.41 113.75 44.31 113.88 45.21 114.01 46.42 114.04 47.63 113.96 48.84 113.85 50.03 113.64 50.91 113.43 51.79 113.22 52.37 113.05 52.37 113.05 52.37 113.05 52.51 113 52.76 112.91 53.01 112.82 53.37 112.71 53.79 112.54 54.63 112.22 55.73 111.75 56.82 111.25 57.9 110.74 58.97 110.21 59.77 109.79 60.56 109.37 61.09 109.08 61.06 109.03 61.02 108.93 58.82 109.87 56.62 110.77 55.52 111.21 54.41 111.63 53.56 111.9 53.14 112.05 52.79 112.15 52.54 112.23 52.29 112.31 52.15 112.35 52.15 112.35 52.15 112.35 51.59 112.53 50.74 112.78 49.89 113.03 48.74 113.28 47.57 113.45 46.4 113.59 45.22 113.64 44.32 113.6 43.43 113.56 42.84 113.5 42.83 113.55Z" fill="#5E5E5C"/></g><g><path d="M33.96 110.54C33.94 110.59 34.28 110.77 34.8 111.01 35.32 111.28 36.05 111.51 36.79 111.75 37.16 111.86 37.54 111.92 37.9 112 38.08 112.04 38.25 112.07 38.41 112.11 38.58 112.13 38.73 112.15 38.87 112.16 39.45 112.23 39.83 112.27 39.83 112.27 39.83 112.27 41.37 112.28 42.88 112.13 44.39 111.97 45.89 111.79 45.88 111.69 45.88 111.59 44.35 111.59 42.84 111.61 41.33 111.63 39.84 111.54 39.84 111.54 39.84 111.54 39.47 111.52 38.91 111.49 38.77 111.48 38.62 111.48 38.46 111.47 38.3 111.45 38.13 111.43 37.96 111.4 37.61 111.35 37.24 111.32 36.87 111.25 36.14 111.09 35.4 110.94 34.86 110.75 34.35 110.58 33.98 110.49 33.96 110.54Z" fill="#5E5E5C"/></g><g><path d="M62.14 97.71C62.26 97.69 62.15 96.47 62.34 95.28 62.38 94.98 62.46 94.69 62.51 94.41 62.56 94.14 62.62 93.88 62.69 93.66 62.81 93.22 62.89 92.93 62.89 92.93 62.89 92.93 63.17 91.74 63.45 90.55 63.73 89.34 63.83 88.1 63.74 88.09 63.63 88.07 63.35 89.26 62.96 90.4 62.56 91.55 62.19 92.73 62.19 92.73 62.19 92.73 62.13 93.04 62.04 93.5 61.99 93.73 61.95 94 61.92 94.3 61.89 94.6 61.84 94.9 61.83 95.22 61.78 96.49 62.07 97.73 62.14 97.71Z" fill="#5E5E5C"/></g></g><path d="M64.63 112.56C64.62 112.56 64.61 112.57 64.6 112.58 64.6 112.58 64.59 112.59 64.58 112.6 64.56 112.62 64.53 112.63 64.5 112.65 64.49 112.66 64.48 112.66 64.48 112.67 64.46 112.69 64.43 112.71 64.4 112.73 64.38 112.74 64.37 112.75 64.35 112.77 64.34 112.78 64.32 112.79 64.31 112.79 64.3 112.8 64.28 112.81 64.27 112.82 64.24 112.84 64.22 112.86 64.19 112.88 64.15 112.9 64.11 112.93 64.07 112.96 64.04 112.98 64.02 113 63.98 113.02 63.97 113.03 63.95 113.04 63.94 113.05 63.84 113.11 63.73 113.18 63.62 113.26 63.59 113.28 63.56 113.3 63.53 113.32 63.49 113.34 63.46 113.37 63.42 113.39 63.36 113.43 63.3 113.46 63.24 113.5 63.19 113.53 63.13 113.56 63.08 113.59 63.06 113.6 63.03 113.62 63.01 113.63 62.99 113.64 62.97 113.65 62.95 113.66 62.88 113.7 62.81 113.74 62.74 113.79 62.7 113.81 62.66 113.83 62.62 113.86 62.54 113.9 62.46 113.95 62.38 114 62.37 114 62.36 114.01 62.35 114.02 62.31 114.04 62.28 114.06 62.24 114.08 62.16 114.13 62.08 114.17 61.99 114.22 61.98 114.22 61.98 114.22 61.98 114.22 61.94 114.24 61.91 114.26 61.87 114.28 61.71 114.37 61.55 114.45 61.38 114.54 61.37 114.55 61.35 114.56 61.34 114.56 61.16 114.65 60.98 114.74 60.78 114.84 60.76 114.85 60.74 114.86 60.72 114.87 60.6 114.93 60.49 114.98 60.37 115.04 60.36 115.04 60.35 115.05 60.34 115.06 60.3 115.08 60.27 115.09 60.23 115.11 60.13 115.16 60.02 115.21 59.91 115.26 59.84 115.29 59.78 115.32 59.72 115.35 59.6 115.4 59.49 115.45 59.37 115.51 59.3 115.54 59.23 115.57 59.16 115.6 59.04 115.65 58.92 115.7 58.8 115.75 58.74 115.78 58.67 115.8 58.61 115.83 58.48 115.89 58.34 115.94 58.21 116 58.19 116.01 58.17 116.01 58.15 116.02 58.13 116.03 58.12 116.03 58.1 116.04 57.85 116.14 57.59 116.24 57.33 116.33 57.32 116.34 57.3 116.34 57.29 116.35 57.03 116.44 56.77 116.54 56.5 116.63 56.45 116.65 56.4 116.66 56.34 116.68 56.2 116.73 56.04 116.78 55.9 116.83 55.84 116.85 55.78 116.87 55.72 116.88 55.7 116.89 55.68 116.89 55.66 116.9 55.51 116.95 55.35 117 55.19 117.05 55.11 117.08 55.03 117.1 54.94 117.12 54.78 117.17 54.63 117.21 54.47 117.26 54.45 117.27 54.43 117.27 54.41 117.28 54.34 117.3 54.28 117.32 54.21 117.34 54.05 117.38 53.88 117.43 53.72 117.47 53.64 117.49 53.55 117.51 53.47 117.54 53.3 117.58 53.12 117.63 52.95 117.67 52.88 117.69 52.82 117.7 52.75 117.72 52.31 117.82 51.85 117.92 51.39 118.01 55.84 116.26 57.7 114.27 53.69 115.23 46.41 116.97 40.97 116.57 35.43 115.12 32.73 114.42 30.93 113.28 29.8 112.31 29.9 111.64 30.1 111.12 30.1 111.12 30.1 111.12 30.1 111.1 30.1 111.04 30.1 111.03 30.1 111.02 30.1 111.01 30.1 110.99 30.1 110.97 30.1 110.94 30.1 110.93 30.1 110.93 30.1 110.92 30.1 110.92 30.1 110.91 30.1 110.91 30.09 110.83 30.08 110.71 30.07 110.56 30.07 110.55 30.07 110.55 30.07 110.54 30.07 110.53 30.07 110.53 30.07 110.52 30.07 110.48 30.06 110.43 30.05 110.37 30.05 110.36 30.05 110.35 30.05 110.34 30.04 110.28 30.04 110.22 30.03 110.15 30.03 110.14 30.03 110.13 30.03 110.12 29.93 109.19 29.71 107.47 29.25 104.53 29.24 104.47 29.23 104.41 29.22 104.36 29.19 104.18 29.16 104 29.13 103.81 29.11 103.66 29.08 103.5 29.06 103.34 29.04 103.24 29.03 103.15 29.01 103.05 29 103.01 29 102.97 28.99 102.92 33.21 111.09 39.84 113.29 49.48 110.24 54.14 108.76 56.16 103.37 57.23 98.97 57.89 96.25 57.57 93.81 57.68 91.1 57.81 87.89 57.94 84.66 58.06 81.44 58.27 75.74 58.02 69.97 57.6 64.28 57.44 62.12 57.5 59.22 55.62 57.93 54.14 56.92 52.32 56.66 50.77 55.78 57.03 56.76 62.81 59.03 63.14 59.27 64.29 60.09 64.81 62.56 64.96 65.62L64.96 65.62C65.31 72.43 63.9 82.2 63.71 83.43 63.71 83.44 63.71 83.45 63.71 83.46 63.71 83.48 63.7 83.5 63.7 83.51 63.7 83.54 63.69 83.55 63.69 83.55 63.69 83.55 62.99 108.14 63.44 109.15 64.27 110.56 64.78 111.39 64.72 112.53 64.66 112.54 64.65 112.55 64.63 112.56 64.63 112.56 64.63 112.56 64.63 112.56Z" fill="#5E5E5C" opacity="0.4"/></g><g opacity="0.4"><path d="M47.23 64.66C47.14 64.42 46.7 64.36 46.25 64.53 45.8 64.69 45.5 65.02 45.59 65.26 45.68 65.5 46.11 65.56 46.56 65.4 47.02 65.23 47.31 64.9 47.23 64.66Z" fill="#5E5E5C"/><path d="M50.52 62.98C50.34 62.62 49.64 62.63 48.96 62.99 48.28 63.35 47.88 63.93 48.07 64.29 48.25 64.64 48.95 64.64 49.63 64.29 50.3 63.91 50.71 63.33 50.52 62.98Z" fill="#5E5E5C"/></g><g opacity="0.4"><path d="M27.62 85.67C27.87 85.65 28.04 85.24 28 84.75 27.96 84.26 27.73 83.87 27.48 83.89 27.23 83.91 27.06 84.32 27.1 84.81 27.14 85.3 27.37 85.68 27.62 85.67Z" fill="#5E5E5C"/><path d="M28.36 89.38C28.74 89.3 28.92 88.61 28.76 87.84 28.6 87.07 28.15 86.52 27.77 86.6 27.39 86.68 27.21 87.37 27.37 88.14 27.53 88.9 27.98 89.46 28.36 89.38Z" fill="#5E5E5C"/></g><path d="M45.37 55.33C46.35 55.32 47.36 55.38 48.37 55.47 48.37 55.47 48.38 55.48 48.38 55.48 48.38 55.48 50.45 56.51 49.78 57.45 49.1 58.39 45.98 60.52 42.22 59.83 38.47 59.13 38.35 57.13 39.11 56.18 39.16 56.12 39.25 56.05 39.36 55.99 41.27 55.58 43.27 55.34 45.37 55.33Z" fill="#5E5E5C" opacity="0.4"/></g><g><path d="M48.31 46.35 48.48 54.66C48.48 54.66 44.44 59.15 39.46 55.41L38.42 48.73 48.31 46.35Z" fill="#F9B799"/><path d="M48.49 54.65C48.49 54.65 44.45 59.14 39.47 55.4L39.41 55.01C46.72 57.97 47.23 49.27 46.06 49.51 45.11 49.7 40.79 50.29 38.72 50.57L38.43 48.72 48.31 46.35 48.49 54.65Z" fill="#FCE8D9" opacity="0.5"/></g><g><g><g><path d="M67.39 89.68C67.44 85.84 67.02 82.01 66.59 78.19 66.32 75.79 66.28 73.34 66.05 70.92 65.77 67.91 65.31 64.95 65.11 61.94 65.04 60.95 65.2 59.88 64.38 59.14 63.05 57.93 60.9 59.37 59.73 60.18 59.03 60.66 58.44 61.23 57.83 61.85 56.6 63.09 55.37 64.05 54.42 65.53 53.21 67.41 52.2 69.29 51.55 71.45 50.95 73.45 50.33 75.98 50.62 78.1 50.62 78.1 51.68 85.78 52.58 90.61 52.45 90.62 52.33 90.64 52.22 90.65 49.37 91.01 29.4 83.26 29.4 83.26 24.29 85.9 25.07 93.63 25.07 93.63 35.53 98.48 46.28 103.87 53.92 105.21 55.86 105.55 57.63 105.46 59.56 105.13 61.35 104.82 62.8 103.24 63.86 101.85 64.6 100.88 65.1 99.72 65.57 98.61 66.76 95.91 67.35 92.59 67.39 89.68Z" stroke="#84847B" stroke-miterlimit="10" fill="#5E5E5C"/><g><g><path d="M61.54 104.7C61.57 104.73 62 104.36 62.56 103.71 63.13 103.07 63.78 102.13 64.36 101.15 64.93 100.16 65.41 99.12 65.74 98.33 66.06 97.54 66.26 97 66.26 97 66.26 97 66.43 96.46 66.64 95.63 66.86 94.8 67.1 93.69 67.28 92.56 67.64 90.31 67.65 88.02 67.54 88.02 67.43 88.02 67.24 90.27 66.75 92.46 66.51 93.55 66.22 94.63 65.97 95.43 65.72 96.23 65.54 96.75 65.53 96.75 65.53 96.75 65.36 97.28 65.08 98.07 64.8 98.86 64.38 99.89 63.88 100.89 63.37 101.88 62.81 102.85 62.31 103.53 61.85 104.22 61.49 104.66 61.54 104.7Z" stroke="#84847B" stroke-miterlimit="10" fill="#5E5E5C"/></g><g><path d="M53.06 91.26C52.92 90.28 52.76 89.26 52.59 88.23 52.21 85.98 51.82 83.74 51.61 82.06 51.39 80.38 51.32 79.25 51.32 79.25 51.32 79.25 51.3 78.97 51.26 78.48 51.22 77.99 51.18 77.28 51.18 76.45 51.16 75.6 51.22 74.62 51.32 73.58 51.45 72.54 51.68 71.44 52.01 70.38 52.34 69.31 52.84 68.31 53.37 67.4 53.51 67.18 53.65 66.96 53.78 66.74 53.92 66.53 54.08 66.34 54.22 66.14 54.5 65.74 54.81 65.41 55.09 65.09 56.23 63.84 57.16 63.15 57.1 63.09 57.09 63.07 56.85 63.23 56.44 63.53 56.03 63.82 55.49 64.29 54.87 64.89 54.58 65.21 54.23 65.53 53.94 65.92 53.78 66.11 53.62 66.3 53.47 66.52 53.32 66.73 53.17 66.95 53.02 67.17 52.44 68.08 51.89 69.1 51.52 70.2 51.14 71.29 50.87 72.41 50.71 73.48 50.57 74.55 50.49 75.56 50.49 76.43 50.47 77.29 50.5 78.01 50.53 78.52 50.56 79.03 50.58 79.31 50.58 79.31 50.58 79.31 50.68 80.46 50.94 82.15 51.19 83.85 51.64 86.09 52.08 88.32 52.29 89.35 52.49 90.38 52.66 91.36 52.78 91.31 52.92 91.28 53.06 91.26Z" stroke="#84847B" stroke-miterlimit="10" fill="#5E5E5C"/></g></g><g><path d="M62.57 76.26C62.31 76.22 62.04 76.58 61.96 77.07 61.88 77.56 62.03 77.99 62.29 78.03 62.55 78.07 62.82 77.71 62.9 77.22 62.98 76.73 62.83 76.3 62.57 76.26Z" stroke="#84847B" stroke-miterlimit="10" fill="#5E5E5C"/><path d="M62.57 72.06C62.16 72.05 61.81 72.68 61.8 73.47 61.78 74.26 62.11 74.91 62.52 74.93 62.93 74.94 63.28 74.31 63.29 73.52 63.3 72.73 62.98 72.08 62.57 72.06Z" stroke="#84847B" stroke-miterlimit="10" fill="#5E5E5C"/></g></g></g><g><path d="M60.29 93.36C60.29 93.34 60.03 93.25 59.57 93.12 59.11 92.99 58.45 92.81 57.65 92.61 57.25 92.51 56.82 92.4 56.36 92.28 55.9 92.17 55.44 91.99 54.94 91.85 53.96 91.54 52.91 91.21 51.87 90.88 49.79 90.19 47.71 89.47 46.12 89 44.54 88.51 43.48 88.19 43.48 88.19 43.48 88.19 42.42 87.93 40.87 87.43 39.31 86.94 37.26 86.18 35.24 85.35 34.23 84.93 33.22 84.51 32.26 84.14 31.3 83.78 30.37 83.45 29.51 83.39 29.09 83.37 28.66 83.43 28.35 83.63 28.04 83.82 27.85 84.1 27.74 84.32 27.63 84.55 27.58 84.74 27.55 84.87 27.52 85 27.52 85.07 27.53 85.07 27.57 85.08 27.63 84.8 27.87 84.39 27.99 84.19 28.18 83.97 28.45 83.82 28.73 83.68 29.09 83.63 29.48 83.68 30.27 83.77 31.16 84.13 32.1 84.52 33.04 84.92 34.03 85.39 35.03 85.83 37.03 86.73 39.08 87.55 40.64 88.08 42.2 88.62 43.27 88.91 43.27 88.91 43.27 88.91 44.33 89.21 45.91 89.66 47.5 90.09 49.59 90.75 51.7 91.38 52.76 91.67 53.82 91.97 54.82 92.25 55.32 92.38 55.79 92.54 56.26 92.63 56.72 92.72 57.17 92.81 57.57 92.89 58.38 93.05 59.06 93.18 59.53 93.27 60.02 93.35 60.29 93.39 60.29 93.36Z" stroke="#84847B" stroke-miterlimit="10" fill="#5E5E5C"/></g><g><g><g><path d="M29.63 85.66C29.57 85.57 28.63 86.23 27.93 87.14 27.21 88.02 26.73 89.08 26.73 89.08 26.73 89.08 26.63 89.35 26.51 89.76 26.39 90.17 26.27 90.74 26.23 91.31 26.2 91.89 26.24 92.46 26.37 92.87 26.49 93.28 26.64 93.52 26.67 93.5 26.73 93.48 26.68 93.21 26.65 92.81 26.61 92.41 26.66 91.88 26.74 91.36 26.84 90.84 27 90.34 27.15 89.96 27.3 89.59 27.41 89.35 27.41 89.35 27.41 89.35 27.78 88.35 28.35 87.43 28.91 86.51 29.69 85.74 29.63 85.66Z" stroke="#84847B" stroke-miterlimit="10" fill="#5E5E5C"/></g></g><g><path d="M56.79 102.95C56.82 102.69 56.44 102.44 55.94 102.39 55.45 102.34 55.02 102.51 55 102.77 54.97 103.03 55.35 103.28 55.84 103.33 56.34 103.38 56.76 103.21 56.79 102.95Z" stroke="#84847B" stroke-miterlimit="10" fill="#5E5E5C"/><path d="M60.6 102.86C60.59 102.45 59.94 102.13 59.15 102.17 58.36 102.2 57.72 102.55 57.74 102.97 57.75 103.38 58.4 103.69 59.19 103.66 59.98 103.63 60.61 103.27 60.6 102.86Z" stroke="#84847B" stroke-miterlimit="10" fill="#5E5E5C"/></g></g><g><path d="M58.81 91.24C58.63 91.19 58.38 91.07 58.05 91.01 57.39 90.86 56.45 90.8 55.43 90.93 54.42 91.08 53.54 91.32 52.9 91.5 52.87 91.51 52.86 91.51 52.83 91.52 52.94 91.56 53.04 91.61 53.15 91.66 53.78 91.57 54.59 91.45 55.49 91.32 56.48 91.19 57.37 91.15 58.03 91.2 58.36 91.21 58.61 91.28 58.8 91.3 58.99 91.33 59.09 91.34 59.09 91.34 59.09 91.34 58.98 91.3 58.81 91.24Z" stroke="#84847B" stroke-miterlimit="10" fill="#5E5E5C"/></g><path d="M66.59 78.19C66.32 75.79 66.28 73.34 66.05 70.92 65.77 67.91 65.31 64.95 65.11 61.94 65.04 60.95 65.2 59.88 64.38 59.14 63.05 57.93 60.9 59.37 59.73 60.18 59.03 60.66 58.44 61.23 57.83 61.85 57.43 62.25 57.04 62.63 56.65 63 58.92 61.99 62.49 60.99 63.56 63.96 65.16 68.43 63.92 82.64 60.44 87.66 58.61 90.3 55.03 89.19 52.06 87.54 52.24 88.62 52.42 89.67 52.6 90.6 52.47 90.61 52.35 90.63 52.24 90.64 51.86 90.69 51.17 90.59 50.27 90.39 50.82 90.87 51.46 91.28 52.21 91.55 56.49 93.06 63.27 95.62 61.08 99.59 58.89 103.56 43.33 98.8 34.42 93.79 28.18 90.28 27.62 86.41 27.84 84.41 24.5 87.64 25.1 93.63 25.1 93.63 35.56 98.48 46.31 103.87 53.95 105.21 55.89 105.55 57.66 105.46 59.59 105.13 61.38 104.82 62.83 103.24 63.89 101.85 64.63 100.88 65.13 99.72 65.6 98.61 66.76 95.92 67.35 92.6 67.39 89.69 67.44 85.84 67.02 82.01 66.59 78.19Z" stroke="#84847B" stroke-miterlimit="10" fill="#5E5E5C" opacity="0.4"/></g><g><linearGradient x1="-61.1209" y1="-514.783" x2="-62.8452" y2="-508.064" gradientUnits="userSpaceOnUse" id="SVGID_1_" gradientTransform="matrix(0.8452 0.5344 -0.5344 0.8452 -200.439 498.184)"><stop offset="0.2206" stop-color="#FCE8D9"/><stop offset="1" stop-color="#F4C7BD"/></linearGradient><path d="M19.95 34.9C19.48 36.42 19.18 37.97 19.13 39.58 19.02 43.4 20.52 47.09 23.1 49.66 26.18 52.73 29.7 53.26 33.69 53.38 35.42 53.43 37.16 53.45 38.89 53.35 42.31 53.17 45.74 52.57 48.91 51.14 52.93 49.32 57.23 45.85 59.09 41.47 61.19 36.52 61.54 30.85 60.87 25.49 60.32 21.11 56.43 16.05 53.19 13.57 48.04 9.62 41.56 9.22 35.88 12.06 29.19 15.4 26.26 21.41 22.89 28.08 21.78 30.27 20.67 32.53 19.95 34.9Z" fill="#F9B799"/><g><path d="M33.13 33.25C33.16 33.5 33.6 33.65 34.11 33.57 34.62 33.49 35 33.22 34.97 32.96 34.94 32.71 34.5 32.56 33.99 32.64 33.48 32.73 33.09 33 33.13 33.25Z" fill="#F4C7BD"/><path d="M29.89 34.08C29.92 34.33 30.36 34.48 30.87 34.4 31.38 34.32 31.76 34.05 31.73 33.79 31.7 33.54 31.26 33.39 30.75 33.47 30.24 33.55 29.86 33.82 29.89 34.08Z" fill="#F4C7BD"/><path d="M32.02 35.21C32.05 35.46 32.49 35.61 33 35.53 33.51 35.45 33.89 35.18 33.86 34.92 33.83 34.67 33.39 34.52 32.88 34.6 32.37 34.68 31.98 34.95 32.02 35.21Z" fill="#F4C7BD"/></g><g><path d="M24.06 39.9C25.25 39.95 26.44 39.81 27.55 39.38 28.68 39.01 29.69 38.37 30.6 37.6L30.72 37.72C30.69 38.58 30.34 39.25 29.87 39.79 29.4 40.33 28.79 40.75 28.12 40.98 27.45 41.22 26.72 41.28 26.01 41.16 25.3 41.04 24.6 40.73 24.05 40.07L24.06 39.9Z" fill="#E08D80"/></g><path d="M19.32 32.12C18.69 32.34 17.91 32.48 17.68 33.15 17.56 33.51 17.65 33.92 17.85 34.23 18.05 34.54 18.34 34.77 18.64 34.97 19 35.21 19.41 35.42 19.84 35.41 20.52 35.38 21.06 34.78 21.4 34.14 21.97 33.06 22.25 31.53 21.84 30.35 20.97 30.91 20.3 31.78 19.32 32.12Z" fill="url(#SVGID_1_)"/><g><path d="M33.61 30.4C33.08 30.16 31.22 31.05 30.67 31.24 30.01 31.46 29.37 31.74 28.75 32.05 28.63 32.11 27.11 32.93 27.14 32.98 26.61 32.19 26.42 31.27 26.38 30.3 26.35 29.74 26.37 29.18 26.44 28.62 26.46 28.49 26.72 27.05 26.74 27.06 27.87 27.59 28.64 28.2 29.75 28.78 30.79 29.32 32.48 30.22 33.61 30.4Z" fill="#FFFFFF"/><g><defs><path d="M33.61 30.4C33.08 30.16 31.22 31.05 30.67 31.24 30.01 31.46 29.37 31.74 28.75 32.05 28.63 32.11 27.11 32.93 27.14 32.98 26.61 32.19 26.42 31.27 26.38 30.3 26.35 29.74 26.37 29.18 26.44 28.62 26.46 28.49 26.72 27.05 26.74 27.06 27.87 27.59 28.64 28.2 29.75 28.78 30.79 29.32 32.48 30.22 33.61 30.4Z" id="SVGID_2_"/></defs><clipPath id="SVGID_3_"><use width="100%" height="100%" xlink:href="#SVGID_2_" overflow="visible"></use></clipPath><g clip-path="url(#SVGID_3_)"><path d="M25.08 30.82C24.25 29.46 24.59 27.62 25.84 26.71 27.09 25.8 28.79 26.18 29.62 27.54 30.45 28.9 30.11 30.74 28.86 31.65 27.61 32.56 25.91 32.18 25.08 30.82Z" fill="#8C7257"/><path d="M26.08 29.51C25.78 29.02 25.9 28.36 26.35 28.03 26.8 27.7 27.41 27.84 27.71 28.33 28.01 28.82 27.89 29.48 27.44 29.81 26.99 30.13 26.38 30 26.08 29.51Z" fill="#3A3129"/><path d="M28.54 28.45C28.74 28.44 28.94 28.43 29.13 28.48 29.41 28.56 29.53 28.71 29.57 29.02 29.58 29.11 29.59 29.19 29.59 29.28 29.59 29.64 29.35 30.22 29.05 30.41 28.87 30.52 28.66 30.38 28.5 30.25 28.12 29.92 27.23 29.3 27.07 28.79 26.95 28.41 27.18 28.52 27.54 28.5 27.87 28.49 28.21 28.47 28.54 28.45Z" fill="#FFFFFF" opacity="0.2"/><path d="M28.23 30.99C28.24 31.01 28.26 31.03 28.26 31.05 28.27 31.1 28.23 31.13 28.19 31.15 28.07 31.23 27.94 31.29 27.81 31.31 27.67 31.33 27.53 31.3 27.42 31.2 27.32 31.11 27.26 30.98 27.22 30.85 27.17 30.7 26.86 29.6 27.23 29.8 27.41 29.9 27.59 30.22 27.73 30.38 27.89 30.6 28.06 30.79 28.23 30.99Z" fill="#FFFFFF" opacity="0.2"/></g></g><g><path d="M25.97 26.69C26.75 26.73 27.45 26.96 28.11 27.22 28.79 27.47 29.37 27.88 29.95 28.27 30.54 28.67 31.14 29.04 31.74 29.4 32.34 29.76 32.95 30.11 33.62 30.34L33.6 30.46C32.87 30.43 32.16 30.22 31.47 30 30.78 29.77 30.12 29.49 29.45 29.23 28.77 28.97 28.12 28.68 27.55 28.24 26.97 27.82 26.43 27.37 25.92 26.79L25.97 26.69Z" fill="#5E5149"/></g></g><path d="M56.93 3.09C53.54 1.6 49.98 0.52 46.31 0.15 41.44-0.35 36.38 0.41 32.09 2.81 29.4 4.32 27 6.5 25.18 9.14 23.24 11.94 22.64 15.31 23.47 18.8 24.12 21.54 25.85 24.03 28.24 25.15 27.92 23.73 27.76 22.27 27.76 20.81 27.76 22.55 30.16 24.8 31.24 25.87 32.92 27.52 34.87 28.83 36.93 29.86 38.04 30.42 39.24 30.95 39.92 32 40.45 32.8 40.59 33.8 40.56 34.77 40.5 36.57 39.78 38.44 38.32 39.45 40.77 38.3 42.73 36.11 43.62 33.52 43.4 35.88 42.35 38.14 40.72 39.82 41.9 39.8 42.74 38.69 43.39 37.7 44.07 36.67 44.75 35.64 45.43 34.61 45.64 34.3 45.86 33.97 46.19 33.82 46.47 33.69 46.79 33.69 47.09 33.72 48.9 33.87 50.72 34.88 51.46 36.57 52.31 38.52 51.57 40.77 51.65 42.9 51.78 46.46 54.5 49.75 57.92 50.47 57.64 49.46 57.52 48.41 57.55 47.36 58.71 48.28 59.81 47.58 60.83 46.77 63.99 44.26 67.29 41.58 68.81 37.8 69.74 35.48 69.92 32.93 69.97 30.43 70.03 27.68 69.86 24.67 68.05 22.63 69.33 17.55 68.51 11.65 64.86 7.96 63.52 6.6 61.87 5.6 60.19 4.71 59.14 4.12 58.04 3.58 56.93 3.09Z" fill="#111010"/><path d="M38.32 39.43C39.78 38.42 40.5 36.55 40.56 34.75 40.59 33.79 40.44 32.78 39.92 31.98 39.23 30.94 38.03 30.4 36.93 29.84 34.88 28.81 32.93 27.5 31.24 25.85 30.15 24.79 27.76 22.53 27.76 20.79 29.99 23.6 32.88 26 36.06 27.37 37.66 28.06 39.43 28.61 40.57 30.02 41.67 31.38 41.96 33.39 41.5 35.14 41.05 36.9 39.69 38.39 38.32 39.43Z" opacity="0.15"/><path d="M46.5 41.16C48.14 41.79 50.05 41.54 51.49 40.49 52.94 39.44 53.88 37.62 53.97 35.73 53.97 35.66 53.97 35.58 53.94 35.52 53.89 35.44 53.8 35.41 53.71 35.39 53.16 35.25 52.61 35.12 52.06 34.98L46.5 41.16Z" opacity="0.15"/><path d="M42.46 1.78C38.94 1.77 35.28 2.37 32.35 4.5 29.42 6.63 27.39 10.55 28.12 14.3 28.73 12.59 29.72 11.04 30.98 9.83 31.47 13.37 33.4 16.65 36.15 18.6 38.75 20.44 42.08 21.22 44.02 23.86 44.24 22.55 44.29 21.21 44.15 19.88 45.77 20.4 47.23 21.53 48.2 23.04 50.08 18.76 53.56 15.35 57.66 13.76 58.7 13.36 59.8 13.06 60.91 13.13 62.69 13.24 64.35 14.29 65.57 15.71 65.54 13.79 64.73 11.96 63.62 10.46 58.85 3.95 49.74 1.81 42.46 1.78Z" fill="#FFFFFF" opacity="0.1"/></g></g></g><g><g><path d="M26.44 91.06 21.75 89.7C21.75 89.7 15.04 90.55 13.82 90.18 12.43 89.76 8.19 87.78 8.04 86.42 7.89 85.06 10.11 86.34 10.11 86.34 10.11 86.34 6.89 83.4 8.15 80.18 9.41 76.96 11.73 78.69 12.77 79.52 13.81 80.35 18.23 81.82 18.23 81.82 18.23 81.82 14.92 80.5 15.52 79.05 15.98 77.92 20.21 79.09 21.29 80.37 22.38 81.66 23.05 82.75 23.69 84.12 24.18 85.18 28.28 84.57 28.28 84.57 28.28 84.57 27.94 90.11 26.44 91.06Z" fill="#F9B799"/><g><g><path d="M9.36 78.78C9.34 78.77 9.15 79.03 8.98 79.49 8.8 79.95 8.74 80.61 8.8 81.25 8.88 81.9 9.09 82.51 9.28 82.95 9.49 83.38 9.64 83.66 9.64 83.66 9.64 83.66 9.68 83.73 9.76 83.84 9.84 83.95 9.94 84.12 10.09 84.31 10.38 84.68 10.8 85.15 11.28 85.57 11.76 85.98 12.27 86.34 12.69 86.55 13.1 86.77 13.41 86.85 13.42 86.83 13.44 86.79 13.17 86.65 12.79 86.38 12.41 86.13 11.95 85.73 11.52 85.3 11.09 84.87 10.72 84.39 10.46 84.03 10.21 83.66 10.06 83.4 10.06 83.4 10.06 83.4 9.9 83.14 9.69 82.75 9.49 82.35 9.25 81.79 9.14 81.2 9.04 80.61 9.04 80 9.15 79.55 9.27 79.09 9.4 78.8 9.36 78.78Z" fill="#FF6875"/></g><g><path d="M11.6 78.48C11.6 78.46 11.29 78.49 10.88 78.75 10.68 78.87 10.47 79.1 10.37 79.41 10.27 79.71 10.3 80.06 10.38 80.37 10.54 80.99 10.9 81.5 11.16 81.87 11.43 82.24 11.63 82.46 11.63 82.46 11.63 82.46 11.83 82.68 12.16 82.99 12.49 83.29 12.94 83.68 13.42 84.03 13.9 84.38 14.4 84.7 14.8 84.91 15.19 85.12 15.49 85.19 15.5 85.16 15.51 85.13 15.25 85 14.9 84.74 14.54 84.49 14.08 84.13 13.64 83.75 13.2 83.37 12.78 82.96 12.48 82.65 12.18 82.34 11.99 82.12 11.99 82.12 11.99 82.12 11.79 81.91 11.51 81.58 11.24 81.25 10.89 80.78 10.71 80.26 10.62 80 10.58 79.73 10.63 79.49 10.68 79.25 10.82 79.05 10.99 78.91 11.32 78.62 11.62 78.52 11.6 78.48Z" fill="#FF6875"/></g><g><path d="M19.27 82.56C19.28 82.55 19.17 82.46 18.98 82.3 18.88 82.23 18.77 82.12 18.62 82.03 18.47 81.94 18.3 81.84 18.11 81.73 17.35 81.31 16.24 80.9 15.13 80.46 14.85 80.35 14.58 80.22 14.3 80.11 14.03 79.98 13.76 79.84 13.51 79.71 13.02 79.42 12.55 79.06 12.09 78.79 11.63 78.52 11.18 78.3 10.75 78.22 10.32 78.14 9.95 78.21 9.74 78.29 9.75 78.29 9.76 78.28 9.76 78.28 9.43 78.4 9.25 78.53 9.15 78.61 9.05 78.68 9.03 78.71 9.03 78.71 9.03 78.71 8.87 78.84 8.66 79.11 8.45 79.37 8.22 79.79 8.03 80.32 7.86 80.85 7.72 81.5 7.8 82.21 7.88 82.91 8.14 83.59 8.46 84.23 9.09 85.51 10.01 86.61 10.79 87.33 11.17 87.69 11.54 87.94 11.8 88.11 12.07 88.26 12.23 88.33 12.24 88.32 12.26 88.28 11.64 87.94 10.93 87.19 10.21 86.45 9.36 85.33 8.79 84.08 8.51 83.46 8.29 82.8 8.23 82.17 8.17 81.55 8.31 80.96 8.48 80.48 8.66 80.01 8.88 79.64 9.06 79.42 9.24 79.2 9.36 79.1 9.36 79.1 9.36 79.1 9.38 79.08 9.46 79.02 9.54 78.96 9.67 78.86 9.92 78.77L9.93 78.77C10.07 78.71 10.32 78.64 10.67 78.7 11.02 78.75 11.43 78.93 11.88 79.19 12.33 79.44 12.79 79.77 13.33 80.07 13.61 80.2 13.88 80.34 14.17 80.46 14.45 80.57 14.74 80.69 15.03 80.79 16.18 81.2 17.28 81.56 18.06 81.92 18.25 82.02 18.42 82.1 18.58 82.18 18.73 82.26 18.85 82.35 18.96 82.41 19.13 82.51 19.26 82.58 19.27 82.56Z" fill="#FF6875"/></g><g><path d="M24.13 85.5C24.15 85.5 24.15 84.97 23.91 84.24 23.68 83.51 23.23 82.58 22.65 81.74 22.08 80.89 21.38 80.14 20.79 79.64 20.2 79.14 19.73 78.89 19.73 78.89 19.73 78.89 19.61 78.84 19.4 78.74 19.19 78.64 18.89 78.53 18.51 78.43 18.14 78.33 17.69 78.24 17.2 78.22 16.72 78.21 16.14 78.22 15.66 78.61 15.44 78.82 15.28 79.11 15.3 79.42 15.32 79.72 15.44 79.96 15.57 80.17 15.85 80.58 16.18 80.89 16.48 81.12 16.78 81.35 17.07 81.5 17.28 81.58 17.49 81.66 17.62 81.66 17.63 81.65 17.63 81.63 17.51 81.59 17.33 81.49 17.14 81.38 16.89 81.21 16.61 80.97 16.34 80.73 16.04 80.41 15.81 80.02 15.7 79.83 15.62 79.61 15.61 79.41 15.61 79.22 15.72 79.02 15.88 78.89 16.21 78.63 16.72 78.61 17.16 78.64 17.61 78.68 18.02 78.78 18.37 78.88 18.72 78.99 19 79.1 19.18 79.19 19.37 79.28 19.47 79.33 19.47 79.33 19.47 79.33 19.9 79.54 20.48 79.99 21.05 80.44 21.75 81.14 22.34 81.94 22.94 82.73 23.43 83.6 23.71 84.3 24.01 85.01 24.08 85.51 24.13 85.5Z" fill="#FF6875"/></g><g><path d="M10.04 86.34C10.05 86.33 9.96 86.23 9.76 86.11 9.56 85.98 9.27 85.82 8.86 85.74 8.66 85.7 8.4 85.68 8.16 85.85 7.91 86.04 7.89 86.37 7.92 86.64 7.97 86.93 8.14 87.18 8.34 87.37 8.54 87.56 8.77 87.72 9 87.86 9.23 87.99 9.46 88.12 9.68 88.25 9.89 88.37 10.07 88.52 10.28 88.67 10.48 88.82 10.67 88.96 10.85 89.1 11.04 89.23 11.22 89.35 11.39 89.45 11.71 89.69 12.03 89.81 12.24 89.93 12.45 90.04 12.57 90.1 12.57 90.1 12.57 90.1 12.6 90.12 12.66 90.14 12.72 90.16 12.81 90.19 12.93 90.22 13.05 90.26 13.18 90.3 13.34 90.34 13.5 90.38 13.67 90.45 13.88 90.46 14.71 90.57 15.76 90.5 16.82 90.41 17.88 90.32 18.92 90.19 19.71 90.08 20.5 89.97 21.02 89.9 21.02 89.86 21.01 89.77 18.91 89.94 16.81 90.05 15.77 90.09 14.7 90.12 13.97 89.99 13.78 89.98 13.62 89.91 13.48 89.86 13.33 89.81 13.2 89.77 13.1 89.74 13 89.7 12.92 89.68 12.86 89.66 12.81 89.64 12.78 89.62 12.78 89.62 12.78 89.62 12.67 89.56 12.46 89.47 12.26 89.37 11.96 89.26 11.64 89.05 11.47 88.95 11.3 88.84 11.1 88.73 10.92 88.6 10.72 88.47 10.53 88.33 10.34 88.2 10.11 88.03 9.88 87.9 9.65 87.78 9.42 87.66 9.18 87.54 8.74 87.3 8.3 87 8.2 86.57 8.16 86.37 8.18 86.13 8.31 86.03 8.44 85.92 8.65 85.9 8.83 85.92 9.58 86.03 10.02 86.38 10.04 86.34Z" fill="#FF6875"/></g></g></g><path d="M23.69 84.13C24.02 84.83 25.92 84.8 27.17 84.7 27.77 85.21 28.17 85.63 28.16 85.82 28.16 85.83 28.16 85.84 28.15 85.86 28.02 86.29 26.62 88.85 25.48 90.79L21.73 89.7C21.73 89.7 15.02 90.55 13.8 90.18 12.41 89.76 8.17 87.78 8.02 86.42 7.87 85.06 10.09 86.34 10.09 86.34 10.09 86.34 6.87 83.4 8.13 80.18 9.07 77.77 10.61 78.13 11.76 78.81 10.99 78.93 8.96 79.45 8.73 81.68 8.45 84.43 11.95 88.35 16 88.73 20.04 89.11 20.75 87.55 21.81 86.61 22.57 85.93 22.66 83.55 22.65 82.24 23.05 82.85 23.37 83.46 23.69 84.13Z" fill="#FFBDC0" opacity="0.5"/></g><g><g><g><path d="M17.57 122.72 14.74 126.84C14.74 126.84 13.16 133.3 12.4 134.37 11.54 135.58 9.45 138.57 8.09 138.3 6.73 138.03 7.74 137.05 7.74 137.05 7.74 137.05 3.88 139.27 1.19 137.08-1.49 134.9 1.73 133.53 2.87 132.78 3.7 132.24 4.33 131.3 4.92 130.53 5.17 130.21 6.4 129.03 5.93 128.58 5.44 128.11 4.31 128.74 3.72 128.79 2.78 128.87 1.5 128.11 1.36 127.13 1.27 126.46 1.47 125.84 2.1 125.68 3.01 125.45 4.06 126.02 5.06 125.75 6.22 125.43 6.52 124.71 7.31 123.99 7.93 123.43 9.2 123.39 10.02 123.28 11.2 123.12 11.94 118.99 11.94 118.99 11.94 118.99 15.74 119.35 17.57 122.72Z" fill="#F9B799"/></g><path d="M0.88 136.79C0.84 136.75 0.8 136.72 0.77 136.68 0.77 136.68 0.76 136.67 0.76 136.67-0.28 135.57 0.2 134.69 1 134.01 1.01 134.97 1.32 136.29 2.84 136.95 5.38 138.05 10.28 135.85 11.96 132.07 13.64 128.29 12.37 127.13 11.81 125.83 11.26 124.56 9.08 124.13 7.94 123.7 8.08 123.66 8.23 123.62 8.38 123.58 8.63 123.52 8.88 123.47 9.13 123.43 9.18 123.42 9.23 123.41 9.28 123.4 9.53 123.36 9.78 123.32 10.04 123.28 11.22 123.12 11.96 118.99 11.96 118.99 11.96 118.99 15.48 120.34 16.96 121.79 17.07 121.93 17.17 122.07 17.27 122.22 17.38 122.38 17.48 122.55 17.58 122.72L16.02 124.99C15.56 125.57 15.17 126.24 14.75 126.84 14.75 126.84 13.17 133.3 12.41 134.37 11.55 135.58 9.46 138.57 8.1 138.3 6.74 138.03 7.75 137.05 7.75 137.05 7.75 137.05 3.89 139.27 1.2 137.08 1.12 137.02 1.05 136.95 0.98 136.9 0.95 136.85 0.92 136.82 0.88 136.79Z" fill="#FFBDC0" opacity="0.5"/></g><g><g><g><path d="M4.22 131.4C4.19 131.41 4.24 131.61 4.37 131.9 4.51 132.18 4.74 132.53 5.03 132.84 5.6 133.46 6.33 133.88 6.33 133.88 6.33 133.88 6.51 133.98 6.8 134.1 7.09 134.22 7.47 134.37 7.87 134.48 8.66 134.72 9.46 134.81 9.48 134.75 9.5 134.68 8.72 134.46 7.99 134.14 7.61 134 7.26 133.82 7 133.68 6.74 133.54 6.58 133.44 6.58 133.44 6.58 133.44 5.87 133.1 5.28 132.58 4.98 132.33 4.72 132.03 4.54 131.8 4.36 131.56 4.25 131.39 4.22 131.4Z" fill="#FF6875"/></g><g><path d="M3.61 137.5C3.6 137.46 3.35 137.5 2.98 137.5 2.89 137.5 2.79 137.5 2.69 137.49 2.59 137.49 2.48 137.47 2.38 137.44 2.18 137.39 1.99 137.27 1.93 137.11 1.8 136.76 2.07 136.3 2.26 136.03 2.47 135.75 2.64 135.59 2.64 135.59 2.64 135.59 2.68 135.55 2.75 135.47 2.82 135.4 2.92 135.3 3.06 135.18 3.33 134.96 3.75 134.7 4.18 134.42 4.6 134.14 5.02 133.81 5.22 133.46 5.43 133.11 5.42 132.84 5.39 132.84 5.35 132.83 5.28 133.08 5.05 133.35 4.83 133.63 4.42 133.89 3.99 134.12 3.56 134.35 3.1 134.58 2.78 134.81 2.62 134.93 2.49 135.04 2.4 135.12 2.32 135.2 2.27 135.25 2.27 135.25 2.27 135.25 2.09 135.44 1.87 135.78 1.76 135.95 1.65 136.16 1.57 136.41 1.5 136.66 1.45 136.97 1.6 137.27 1.75 137.57 2.07 137.7 2.31 137.73 2.44 137.75 2.56 137.76 2.67 137.75 2.79 137.75 2.89 137.74 2.98 137.72 3.38 137.63 3.61 137.53 3.61 137.5Z" fill="#FF6875"/></g><g><path d="M9.93 134.63C9.87 134.58 8.87 135.81 7.67 136.79 7.07 137.28 6.41 137.69 5.89 137.83 5.63 137.91 5.41 137.93 5.26 137.93 5.11 137.92 5.03 137.92 5.03 137.92 5.03 137.93 4.95 137.9 4.81 137.87 4.67 137.85 4.45 137.74 4.26 137.6 4.06 137.45 3.99 137.28 4.15 137 4.31 136.73 4.6 136.47 4.89 136.23 5.49 135.75 6.16 135.33 6.62 134.96 7.1 134.61 7.35 134.28 7.31 134.25 7.29 134.23 7.01 134.5 6.51 134.8 6.01 135.11 5.33 135.49 4.67 135.95 4.35 136.19 4.02 136.43 3.78 136.79 3.67 136.96 3.57 137.2 3.62 137.45 3.67 137.69 3.82 137.85 3.95 137.97 4.23 138.19 4.45 138.3 4.65 138.35 4.84 138.4 4.95 138.44 4.95 138.43 4.95 138.43 5.06 138.43 5.26 138.44 5.45 138.43 5.73 138.4 6.03 138.29 6.64 138.09 7.32 137.62 7.9 137.08 8.49 136.54 9.01 135.94 9.37 135.47 9.74 134.99 9.95 134.65 9.93 134.63Z" fill="#FF6875"/></g><g><path d="M7.35 137.63C7.34 137.63 7.26 137.73 7.24 137.97 7.23 138.08 7.27 138.27 7.45 138.35 7.61 138.43 7.8 138.43 8 138.41 8.39 138.36 8.8 138.22 9.24 138.04 9.67 137.85 10.14 137.66 10.55 137.33 11.37 136.7 11.97 135.88 12.41 135.27 12.84 134.65 13.09 134.21 13.09 134.21 13.09 134.21 13.14 134.09 13.23 133.89 13.31 133.68 13.47 133.4 13.57 133.03 13.82 132.31 14.02 131.33 14.17 130.35 14.32 129.37 14.46 128.4 14.63 127.69 14.8 126.98 14.97 126.51 14.93 126.49 14.91 126.48 14.86 126.59 14.77 126.79 14.69 126.99 14.54 127.27 14.44 127.63 14.2 128.34 14.01 129.32 13.81 130.28 13.62 131.24 13.38 132.19 13.13 132.87 13.02 133.22 12.86 133.47 12.79 133.66 12.7 133.85 12.65 133.96 12.65 133.96 12.65 133.96 12.42 134.38 12.03 135 11.63 135.6 11.07 136.42 10.33 137.04 9.99 137.36 9.53 137.56 9.13 137.77 8.72 137.97 8.32 138.13 7.97 138.2 7.8 138.23 7.63 138.25 7.52 138.2 7.4 138.16 7.36 138.05 7.35 137.95 7.33 137.76 7.37 137.64 7.35 137.63Z" fill="#FF6875"/></g></g><g><g><path d="M4.98 127.93C4.96 127.95 5.15 128.12 5.46 128.31 5.77 128.5 6.22 128.7 6.7 128.84 7.18 128.97 7.67 129.04 8.05 129.05 8.24 129.07 8.4 129.04 8.51 129.04 8.62 129.03 8.68 129.03 8.68 129.03 8.68 129.03 8.74 129.02 8.85 128.99 8.96 128.96 9.12 128.94 9.29 128.87 9.65 128.76 10.11 128.52 10.5 128.19 10.89 127.86 11.13 127.41 11.28 127.07 11.4 126.72 11.44 126.48 11.41 126.47 11.37 126.46 11.27 126.68 11.1 126.98 10.91 127.27 10.65 127.65 10.27 127.91 9.9 128.17 9.49 128.35 9.16 128.42 9 128.47 8.86 128.48 8.76 128.5 8.66 128.52 8.61 128.53 8.61 128.53 8.61 128.53 8.56 128.54 8.46 128.55 8.36 128.56 8.22 128.59 8.05 128.59 7.71 128.61 7.25 128.58 6.79 128.5 6.33 128.41 5.88 128.28 5.56 128.14 5.22 128 5.01 127.9 4.98 127.93Z" fill="#FF6875"/></g><g><path d="M3.66 125.77C3.67 125.75 3.46 125.61 3.09 125.53 2.73 125.46 2.17 125.47 1.72 125.81 1.5 125.98 1.33 126.24 1.29 126.51 1.23 126.78 1.29 127.02 1.34 127.22 1.41 127.41 1.47 127.57 1.54 127.67 1.6 127.78 1.64 127.83 1.64 127.83 1.64 127.83 1.69 127.88 1.77 127.97 1.86 128.05 1.99 128.17 2.16 128.27 2.51 128.48 3.03 128.6 3.52 128.61 4.52 128.63 5.45 128.4 5.45 128.34 5.45 128.26 4.47 128.36 3.55 128.25 3.09 128.2 2.66 128.05 2.4 127.87 2.27 127.79 2.18 127.69 2.12 127.63 2.07 127.56 2.03 127.52 2.03 127.52 2.03 127.52 1.9 127.37 1.77 127.07 1.66 126.78 1.63 126.36 1.94 126.08 2.24 125.79 2.72 125.71 3.06 125.72 3.41 125.74 3.65 125.81 3.66 125.77Z" fill="#FF6875"/></g><g><path d="M1.62 137.32C1.64 137.28 1.29 137.12 0.92 136.73 0.56 136.35 0.18 135.65 0.4 135.01 0.57 134.34 1.25 134.04 1.75 133.81 2.26 133.58 2.6 133.36 2.6 133.36 2.6 133.36 2.68 133.31 2.81 133.21 2.94 133.11 3.14 132.98 3.36 132.79 3.8 132.44 4.35 131.9 4.81 131.3 5.26 130.69 5.63 130.03 5.85 129.51 6.07 128.99 6.17 128.63 6.14 128.62 6.07 128.59 5.49 129.97 4.53 131.08 4.05 131.63 3.51 132.11 3.07 132.43 2.86 132.6 2.66 132.71 2.53 132.81 2.4 132.9 2.32 132.95 2.32 132.95 2.32 132.95 2.04 133.15 1.55 133.4 1.3 133.53 1 133.68 0.7 133.92 0.39 134.15 0.15 134.53 0.06 134.93-0.06 135.33 0.04 135.76 0.18 136.1 0.26 136.27 0.35 136.42 0.46 136.55 0.55 136.69 0.68 136.79 0.79 136.89 1.23 137.25 1.62 137.34 1.62 137.32Z" fill="#FF6875"/></g></g></g></g></svg>