<svg width="114.86" height="257.37" viewBox="0 0 114.86 257.37" xmlns="http://www.w3.org/2000/svg" xmlns:xlink="http://www.w3.org/1999/xlink" xml:space="preserve" overflow="hidden"><defs></defs><g><g><g><path d="M0 167.14C0 167.14 1.36 169.09 4.95 169.09 0.16 187.75-0.06 206.48 12.06 206.48 20.31 206.48 27.3 194.43 30.46 205.85 33.63 217.28 38.71 221.71 46.33 221.71 53.94 221.71 48.24 259.8 69.17 257.26 90.11 254.72 79.32 221.73 74.25 212.84 69.17 203.95 55.2 179.84 72.34 178.58 89.47 177.31 114.86 167.79 114.86 167.79L0 167.14Z" fill="#ABADAD" opacity="0.5"/><g><g><g><path d="M6.39 194.2C1.93 186.13 9.64 161.44 9.64 156.46 9.64 154.32 10.06 152.31 10.54 150.7 9.42 151.66 8.88 153.1 8.62 155.31 8.05 160.11 6.23 169.04 4.05 180.13 1.88 191.22 4.39 198.08 9.77 200.71 12.68 202.13 16.27 202.27 19.58 200.74 14.74 202.04 9.75 199.8 6.39 194.2Z" fill="#F7DE00"/><path d="M14.67 202.19C12.91 202.19 11.17 201.78 9.61 201.02 3.72 198.14 1.62 190.7 3.71 180.07L4.72 174.91C6.43 166.19 7.79 159.31 8.28 155.28 8.56 152.87 9.18 151.44 10.32 150.45L11.2 149.69 10.86 150.81C10.29 152.78 10 154.68 10 156.46 10 157.95 9.35 161.07 8.51 165.02 6.56 174.35 3.6 188.43 6.7 194.04 9.3 198.37 12.92 200.76 16.9 200.76 17.76 200.76 18.63 200.64 19.49 200.42L19.73 201.07C18.11 201.81 16.41 202.19 14.67 202.19ZM9.79 152.19C9.38 152.98 9.12 154.01 8.95 155.35 8.47 159.4 7.11 166.29 5.4 175.01L4.38 180.18C2.36 190.49 4.33 197.65 9.91 200.39 11.8 201.3 13.97 201.65 16.05 201.4 12.16 201.09 8.65 198.62 6.1 194.36 2.87 188.52 5.85 174.28 7.84 164.86 8.66 160.96 9.31 157.86 9.31 156.44 9.3 155.1 9.46 153.67 9.79 152.19Z" fill="#BF7310"/></g><g><path d="M26.68 193.05C30.57 184.47 28.51 183.11 24.05 180.7 24.05 180.7 19.02 178.19 8.39 177.97 8.51 174.42 12.39 162.41 11.82 157.15 10.44 150.67 15.07 149.55 17.41 149.38 17.33 149.19 17.27 148.98 17.2 148.81 13.88 149.11 11.82 149.6 10.54 150.7 10.06 152.31 9.64 154.32 9.64 156.46 9.64 161.43 1.93 186.13 6.39 194.2 9.76 199.8 14.74 202.04 19.57 200.75 22.34 199.46 24.9 196.97 26.68 193.05Z" fill="#F7DE00"/><path d="M16.89 201.44 16.89 201.44C12.66 201.44 8.83 198.93 6.1 194.37 2.87 188.53 5.85 174.29 7.84 164.87 8.66 160.97 9.31 157.87 9.31 156.45 9.31 154.6 9.61 152.63 10.21 150.6L10.24 150.51 10.33 150.44C11.76 149.18 14.1 148.73 17.17 148.45L17.43 148.43 17.89 149.68 17.43 149.71C15.98 149.82 13.99 150.26 12.84 151.79 11.9 153.04 11.67 154.81 12.16 157.07 12.52 160.39 11.16 166.29 10.07 171.02 9.44 173.79 8.89 176.21 8.76 177.61 19.09 177.9 24 180.3 24.2 180.4 28.87 182.91 30.93 184.5 26.99 193.19 25.31 196.9 22.79 199.62 19.71 201.06 18.74 201.32 17.81 201.44 16.89 201.44ZM10.84 150.9C10.26 152.84 9.99 154.71 9.99 156.46 9.99 157.95 9.34 161.07 8.5 165.02 6.55 174.35 3.59 188.43 6.69 194.04 9.29 198.37 12.91 200.76 16.89 200.76L16.89 200.76C17.75 200.76 18.62 200.64 19.48 200.42 22.36 199.07 24.76 196.46 26.37 192.91 30.22 184.41 28.11 183.28 23.89 181.01 23.84 180.99 18.8 178.54 8.39 178.31L8.04 178.3 8.05 177.96C8.1 176.57 8.7 173.94 9.4 170.89 10.48 166.2 11.82 160.37 11.48 157.2 10.95 154.77 11.22 152.81 12.28 151.4 13.14 150.26 14.37 149.65 15.57 149.33 13.17 149.65 11.78 150.12 10.84 150.9Z" fill="#BF7310"/></g></g><g><path d="M11.82 157.15C12.4 162.41 8.51 174.42 8.39 177.97 19.02 178.19 24.05 180.7 24.05 180.7 24.39 179.1 26.92 174.3 26.92 174.3 26.92 174.3 20.48 157.73 17.41 149.38 15.06 149.55 10.44 150.67 11.82 157.15Z" fill="#FBD0B4"/><path d="M24.25 181.12 23.93 180.95C23.88 180.94 18.81 178.46 8.38 178.24L8.09 178.23 8.11 177.93C8.14 176.54 8.76 173.91 9.46 170.88 10.54 166.19 11.88 160.34 11.53 157.16 11.02 154.75 11.29 152.79 12.33 151.4 13.62 149.68 15.79 149.18 17.38 149.08L17.59 149.06 17.66 149.26C20.7 157.48 27.11 174.01 27.18 174.17L27.23 174.28 27.17 174.41C27.14 174.46 24.67 179.19 24.33 180.73L24.25 181.12ZM8.69 177.68C17.73 177.91 22.62 179.76 23.86 180.3 24.38 178.6 26.24 174.99 26.6 174.28 26.01 172.77 20.14 157.62 17.21 149.69 15.77 149.81 13.91 150.3 12.79 151.77 11.84 153.02 11.6 154.82 12.1 157.1 12.46 160.4 11.11 166.3 10.02 171.03 9.37 173.82 8.8 176.27 8.69 177.68Z" fill="#B56A4D"/></g><g><path d="M17.41 149.38C15.07 149.55 10.44 150.67 11.82 157.15 12.06 159.3 11.55 162.58 10.85 165.96L11.01 165.92C11.01 165.92 13.45 163.35 13.06 158.84 12.72 154.92 12.46 153.11 14.08 152.86 15.71 152.61 17.41 157.14 17.57 159.44 17.75 161.75 21.16 167.63 22.7 171.82 24.24 176.01 22.44 178.32 17.15 177.21 11.85 176.09 9.04 176.87 10.06 170.03 10.03 170.04 9.99 170.04 9.94 170.04 9.16 173.44 8.44 176.47 8.38 177.98 19.01 178.2 24.04 180.71 24.04 180.71 24.38 179.11 26.91 174.31 26.91 174.31 26.91 174.31 20.47 157.72 17.41 149.38Z" fill="#EDB89A" opacity="0.8"/></g><g><path d="M10.23 188.28C10.97 180.97 15.19 179.24 23.12 182.34 27.86 184.19 28.44 187.19 28.15 189.29 29.8 183.99 27.76 182.69 24.05 180.7 24.05 180.7 19.02 178.19 8.39 177.97 8.51 174.42 12.39 162.41 11.82 157.15 10.44 150.67 15.07 149.55 17.41 149.38 17.33 149.19 17.27 148.98 17.2 148.81 13.88 149.11 11.82 149.6 10.54 150.7 10.06 152.31 9.64 154.32 9.64 156.46 9.64 161.43 1.93 186.13 6.39 194.2 9.76 199.8 14.74 202.04 19.57 200.75 21.03 200.08 22.42 199.05 23.68 197.66 23.67 197.65 23.65 197.62 23.63 197.59 16.93 203.8 9.5 195.6 10.23 188.28Z" fill="#F7DE00"/></g><g><g><path d="M77.06 237.34C76.83 231.1 74.83 222.29 73.18 218.18 71.54 214.06 69.18 212.3 68.24 213.24 68.24 213.24 72.01 217.36 74.59 229.11 77.17 240.86 75.77 247.21 68.6 250.26 64.62 251.85 60.67 251.45 57.35 250.38 59.31 251.9 61.69 252.87 64.49 252.73 74.6 252.26 77.29 243.56 77.06 237.34Z" fill="#F7DE00"/><path d="M63.98 253.09 63.98 253.09C61.52 253.09 59.22 252.26 57.14 250.65L55.6 249.45 57.46 250.04C61.35 251.31 65.13 251.28 68.48 249.95 75.29 247.04 76.92 241.22 74.27 229.18 71.74 217.68 68.04 213.51 68 213.46L67.78 213.22 68.02 212.99C68.25 212.77 68.54 212.65 68.87 212.65 70.33 212.65 72.24 214.86 73.51 218.04 75.17 222.19 77.18 231.13 77.41 237.32 77.67 244.3 74.45 252.62 64.51 253.09 64.33 253.09 64.16 253.09 63.98 253.09ZM59.37 251.27C60.83 252.02 62.37 252.4 63.98 252.4L63.98 252.4C64.14 252.4 64.3 252.4 64.46 252.38 73.91 251.95 76.97 244.01 76.72 237.35 76.49 231.23 74.5 222.39 72.86 218.3 71.54 214.98 69.72 213.2 68.78 213.33 69.7 214.53 72.73 219 74.92 229.03 77.63 241.3 75.83 247.55 68.73 250.58 65.85 251.74 62.67 251.97 59.37 251.27Z" fill="#BF7310"/></g><g><g><path d="M74.84 230.29C74.76 229.89 74.68 229.52 74.6 229.11 72.01 217.35 68.25 213.24 68.25 213.24 66.5 211.24 65.54 211.01 65.54 211.01 65.54 211.01 61.42 215.18 52.38 217.21 52.38 217.21 53.16 220.36 52.9 223.76 52.64 227.16 52.38 231.08 52.38 231.08 52.38 231.08 64.65 220.77 74.84 230.29Z" fill="#FBD0B4"/><path d="M52.04 231.73 52.08 231.06C52.08 231.06 52.35 227.12 52.6 223.73 52.85 220.41 52.09 217.31 52.08 217.27L52.02 216.99 52.31 216.93C61.18 214.94 65.29 210.85 65.34 210.81L65.45 210.69 65.61 210.74C65.71 210.77 66.69 211.04 68.46 213.05 68.62 213.22 72.3 217.35 74.88 229.05 74.93 229.35 75 229.62 75.05 229.89L75.29 231.1 74.64 230.5C71.83 227.87 68.59 226.55 65.02 226.55 58.3 226.55 52.62 231.25 52.55 231.31L52.04 231.73ZM52.72 217.42C52.9 218.27 53.4 220.91 53.18 223.76 52.98 226.34 52.78 229.2 52.69 230.46 54.27 229.29 59.27 225.96 65.01 225.96 68.46 225.96 71.6 227.14 74.38 229.5 74.35 229.38 74.33 229.28 74.31 229.16 71.77 217.64 68.07 213.46 68.03 213.42 66.75 211.96 65.91 211.48 65.6 211.32 64.82 212.08 60.76 215.55 52.72 217.42Z" fill="#B56A4D"/></g></g><g><path d="M74.6 229.11C72.01 217.35 68.25 213.24 68.25 213.24 66.5 211.24 65.54 211.01 65.54 211.01 65.54 211.01 61.42 215.18 52.38 217.21 52.38 217.21 53.16 220.36 52.9 223.76 52.84 224.49 52.79 225.26 52.73 226L52.92 225.98C52.92 225.98 53.15 221.43 57.12 219.62 61.08 217.81 63.13 218.48 65.05 216.56 66.98 214.63 67.66 217.7 66.53 218.6 65.39 219.5 68.24 221.67 69.24 223.82 70.28 225.98 67.1 224.62 63.23 224.49 59.58 224.4 52.87 230.29 52.56 228.21 52.44 229.87 52.37 231.08 52.37 231.08 52.37 231.08 64.65 220.78 74.83 230.29 74.75 229.89 74.68 229.52 74.6 229.11Z" fill="#EDB89A" opacity="0.8"/></g></g><g><g><path d="M51.73 214.02C49.34 216.23 48.57 215.81 48.57 215.81 48.92 218.55 50.8 219.92 57.67 217.53 64.54 215.13 68.48 212.39 66.76 207.75 65.61 208.88 62.2 210.96 59.56 210.96 56.93 210.95 54.11 211.8 51.73 214.02Z" fill="#747889"/><path d="M52.04 219.1C49.75 219.1 48.51 218.04 48.23 215.85L48.15 215.19 48.74 215.52C48.96 215.51 49.76 215.38 51.49 213.77 54.3 211.16 57.42 210.62 59.55 210.62 62.07 210.62 65.37 208.63 66.5 207.51L66.89 207.14 67.07 207.64C67.64 209.19 67.62 210.6 67.03 211.88 65.96 214.14 63.11 216 57.77 217.85 55.36 218.69 53.49 219.1 52.04 219.1ZM48.99 216.15C49.3 217.73 50.23 218.41 52.04 218.41 53.38 218.41 55.24 218.01 57.54 217.19 62.69 215.4 65.43 213.66 66.41 211.57 66.86 210.58 66.93 209.53 66.58 208.35 65.17 209.52 62.11 211.29 59.55 211.29 57.56 211.29 54.6 211.81 51.96 214.26 50.46 215.66 49.53 216.09 48.99 216.15Z" fill="#41485E"/></g><g><path d="M105.59 149.63C105.42 150.65 104.98 151.45 104.24 152.95 102.86 155.7 103.72 158.27 102.43 158.45 101.14 158.61 100.45 157.41 100.03 155.27 94.7 160.93 93.34 159.21 93.34 159.21 93.34 159.21 92.06 161.27 90.59 161.01 89.13 160.76 89.73 158.45 89.73 158.45 89.73 158.45 87.67 160.76 86.22 160.33 84.75 159.9 85.87 156.04 87.41 153.39 88.95 150.72 88.81 143.67 88.01 143.15 87.22 142.64 86.41 143.95 85.56 145.66 83.67 149.26 81.01 150.51 79.42 149.4 77.83 148.29 79.28 146.86 82.36 143.09 76.53 141.38 58.86 144.3 48.92 143.6 42.75 127.48 34.17 126.95 31.3 126.33 31.3 126.33 17.53 124.22 14.95 143.09 14.1 150.3 24.56 170.71 31.24 185.46 36.56 197.12 36.9 198.67 36.05 200.72 35.2 202.78 37.77 203.8 39.31 205.86 40.86 207.92 41.37 208.96 39.99 211.01 38.62 213.06 40.35 215.81 48.57 215.81 48.57 215.81 49.34 216.23 51.73 214.02 54.11 211.8 56.92 210.96 59.56 210.96 62.19 210.96 65.6 208.88 66.76 207.75 70.01 205.7 68.99 203.3 65.56 199.53 62.12 195.76 62.58 190.1 59.39 181.4 56.18 172.71 56.18 171.56 56.18 171.56 56.18 171.56 83.39 172.71 94.15 167.9 97.57 166.08 98.04 166.08 99.64 166.75 101.23 167.44 109.44 160.36 105.59 149.63Z" fill="#2C82C7"/><path d="M48.78 216.15C48.66 216.15 48.58 216.13 48.52 216.11 43.67 216.11 40.48 215.12 39.54 213.35 39.11 212.56 39.19 211.65 39.74 210.82 40.99 208.93 40.58 208.06 39.06 206.04 38.59 205.41 38.01 204.87 37.45 204.35 36.24 203.25 35.1 202.19 35.77 200.6 36.57 198.66 36.25 197.16 30.97 185.58 29.77 182.92 28.47 180.13 27.09 177.17 20.92 163.98 13.94 149.04 14.65 143.04 15.57 136.32 17.99 131.47 21.85 128.62 25.03 126.28 28.38 125.93 30.1 125.93 30.87 125.93 31.34 126.01 31.35 126.01 31.57 126.05 31.8 126.1 32.04 126.14 35.42 126.8 43.33 128.32 49.13 143.3 50.11 143.37 51.18 143.4 52.41 143.4 56.24 143.4 60.74 143.08 65.06 142.78 69.28 142.5 73.26 142.23 76.57 142.23 79.23 142.23 81.16 142.4 82.44 142.78 82.54 142.81 82.62 142.89 82.64 142.99 82.67 143.1 82.65 143.19 82.59 143.28L81.74 144.31C80.08 146.33 78.97 147.67 79.08 148.44 79.1 148.6 79.17 148.85 79.6 149.13 79.91 149.36 80.29 149.47 80.7 149.47 81.91 149.47 83.76 148.43 85.28 145.51 86.16 143.73 86.84 142.71 87.66 142.71 87.84 142.71 88.01 142.77 88.18 142.87 89.31 143.58 89.2 150.91 87.69 153.52 86.31 155.88 85.53 158.63 85.95 159.66 86.05 159.92 86.2 159.99 86.3 160.02 87.3 160.32 89 158.79 89.49 158.22 89.59 158.12 89.74 158.09 89.87 158.15 90 158.22 90.06 158.36 90.02 158.51 89.93 158.84 89.78 159.84 90.11 160.37 90.23 160.54 90.4 160.65 90.63 160.69 91.86 160.91 93.04 159.05 93.06 159.03 93.11 158.94 93.2 158.89 93.31 158.89 93.42 158.89 93.5 158.92 93.56 159L93.56 159C93.56 159 93.69 159.14 94.05 159.14 94.76 159.14 96.44 158.59 99.78 155.04 99.87 154.95 99.99 154.92 100.1 154.95 100.21 154.98 100.3 155.07 100.32 155.18 100.84 157.81 101.64 158.13 102.19 158.13 102.24 158.13 102.31 158.13 102.37 158.13 102.78 158.07 102.86 157.63 102.99 156.46 103.11 155.5 103.26 154.16 103.95 152.8L104.13 152.41C104.75 151.18 105.12 150.44 105.26 149.57 105.28 149.43 105.4 149.34 105.53 149.31 105.67 149.3 105.8 149.38 105.86 149.51 108.31 156.33 105.92 161.27 104.27 163.61 102.68 165.87 100.81 167.09 99.86 167.09L99.86 167.09C99.72 167.09 99.6 167.07 99.49 167.02 98.87 166.76 98.48 166.62 98.05 166.62 97.28 166.62 96.21 167.12 94.27 168.16 86.84 171.47 71.61 171.97 63.2 171.97 59.91 171.97 57.44 171.88 56.53 171.86 56.69 172.6 57.3 174.88 59.65 181.26 60.96 184.82 61.65 187.82 62.26 190.48 63.14 194.33 63.78 197.1 65.76 199.29 68.27 202.02 69.2 203.77 68.99 205.27 68.87 206.29 68.16 207.18 66.9 207.98 65.75 209.12 62.25 211.25 59.54 211.25 57.52 211.25 54.57 211.75 51.92 214.23 50.25 215.82 49.28 216.15 48.78 216.15ZM30.11 126.55C26.32 126.55 17.31 128.17 15.28 143.13 14.59 148.94 21.52 163.8 27.64 176.92 29.03 179.88 30.33 182.67 31.53 185.32 36.95 197.2 37.24 198.66 36.33 200.83 35.86 201.97 36.57 202.7 37.86 203.9 38.42 204.41 39.05 204.98 39.54 205.67 41.16 207.82 41.72 208.98 40.25 211.17 39.95 211.62 39.68 212.31 40.08 213.06 40.46 213.8 42.07 215.49 48.56 215.49 48.61 215.49 48.66 215.5 48.71 215.52L48.76 215.52C48.97 215.52 49.76 215.39 51.5 213.78 54.3 211.19 57.42 210.62 59.54 210.62 62.07 210.62 65.38 208.63 66.51 207.51 67.67 206.76 68.27 206.03 68.38 205.2 68.56 203.92 67.64 202.27 65.3 199.71 63.21 197.41 62.52 194.41 61.66 190.63 61.05 188 60.36 185.01 59.06 181.5 55.93 172.99 55.84 171.68 55.84 171.55 55.84 171.47 55.87 171.39 55.94 171.33 56 171.28 56.09 171.25 56.16 171.24 56.19 171.24 59.04 171.36 63.18 171.36 71.55 171.36 86.68 170.87 93.97 167.6 96.03 166.51 97.12 166.02 98.03 166.02 98.63 166.02 99.11 166.21 99.71 166.47 99.73 166.47 99.78 166.48 99.84 166.48L99.84 166.48C100.5 166.48 102.19 165.45 103.73 163.26 105.22 161.12 107.37 156.76 105.57 150.7 105.35 151.28 105.06 151.89 104.66 152.69L104.46 153.07C103.83 154.33 103.68 155.56 103.57 156.55 103.45 157.65 103.33 158.62 102.42 158.73 100.82 158.93 100.15 157.34 99.8 155.89 95.82 160.01 94.03 159.93 93.36 159.62 92.93 160.2 91.8 161.54 90.48 161.3 90.08 161.23 89.77 161.02 89.55 160.7 89.29 160.3 89.23 159.75 89.25 159.29 88.59 159.89 87.52 160.67 86.54 160.67 86.37 160.67 86.22 160.66 86.08 160.61 85.73 160.51 85.47 160.26 85.32 159.9 84.77 158.5 85.82 155.4 87.1 153.21 88.58 150.66 88.38 143.9 87.79 143.4 87.73 143.35 87.67 143.33 87.61 143.33 87.02 143.33 86.16 145.06 85.79 145.79 84.39 148.44 82.43 150.1 80.65 150.1 80.1 150.1 79.62 149.95 79.19 149.64 78.73 149.32 78.47 148.95 78.41 148.53 78.27 147.48 79.31 146.22 81.21 143.92L81.77 143.26C80.55 142.99 78.83 142.85 76.52 142.85 73.23 142.85 69.27 143.11 65.05 143.41 60.7 143.71 56.2 144.02 52.36 144.02 51.04 144.02 49.89 143.98 48.85 143.92 48.73 143.9 48.62 143.83 48.57 143.72 42.89 128.88 35.18 127.39 31.87 126.77 31.62 126.72 31.39 126.66 31.19 126.62L31.19 126.62C31.25 126.62 30.81 126.55 30.11 126.55Z" fill="#41485E"/></g></g><g><g><path d="M82.36 135.19C68.2 141.05 52.27 140.36 47.36 139.97 47.89 141.09 48.42 142.28 48.92 143.59 58.86 144.28 76.53 141.37 82.36 143.08 84.53 140.34 84.14 136.94 85.93 135.79 86.06 135.7 86.2 135.61 86.31 135.53 84.74 135.26 83.28 135.08 82.36 135.19Z" fill="#9CBBFF"/><path d="M52.42 144.02C51.1 144.02 49.95 143.98 48.91 143.92 48.79 143.9 48.68 143.83 48.63 143.72 48.16 142.48 47.66 141.3 47.09 140.11 47.04 140.02 47.05 139.89 47.11 139.8 47.17 139.71 47.27 139.65 47.39 139.67 48.81 139.79 51.12 139.92 54.02 139.92 61.38 139.92 72.26 139.05 82.24 134.92 82.26 134.91 82.3 134.91 82.32 134.91 83.18 134.78 84.52 134.91 86.36 135.24 86.48 135.26 86.58 135.36 86.6 135.47 86.63 135.59 86.57 135.72 86.48 135.8 86.36 135.89 86.23 135.97 86.08 136.06 85.28 136.59 84.96 137.7 84.57 138.99 84.16 140.34 83.71 141.89 82.6 143.28 82.52 143.38 82.39 143.41 82.28 143.39 81.05 143.03 79.18 142.85 76.58 142.85 73.29 142.85 69.33 143.11 65.11 143.41 60.76 143.71 56.26 144.02 52.42 144.02ZM49.14 143.3C50.11 143.37 51.21 143.4 52.42 143.4 56.25 143.4 60.75 143.08 65.07 142.78 69.29 142.5 73.27 142.23 76.58 142.23 79.11 142.23 80.97 142.39 82.25 142.74 83.2 141.47 83.62 140.05 83.99 138.8 84.38 137.52 84.7 136.38 85.53 135.7 84.16 135.48 83.15 135.41 82.45 135.49 72.38 139.64 61.43 140.52 54.03 140.52 51.44 140.52 49.33 140.42 47.88 140.31 48.33 141.3 48.74 142.28 49.14 143.3Z" fill="#4672C1"/></g><g><path d="M103.97 131.34C104.58 129.87 101.6 110.38 96.28 98.56 91.1 88.99 85.79 81.42 82.74 77.31 79.69 73.19 75.7 72.13 72.91 71.07 70.13 70.02 64.02 70.67 60.7 70.67 57.39 70.67 56.32 70.67 56.32 70.67 56.32 70.67 55.53 68.15 52.2 68.68 52 68.71 51.78 68.75 51.55 68.79 51.73 69.79 52 71.18 52.44 73.03 50.38 74.67 45.75 76.21 41.54 74.58 41.49 73.69 40.95 71.45 40.61 70.12 40.12 70.18 39.83 70.21 39.83 70.21 39.83 70.21 37.69 70.63 37.51 72.52 32.2 73.98 30.11 74.61 24.98 75.99 19.82 77.36 16.51 82.05 13.77 96.11 11.03 110.18 10.91 125.27 17.54 126.99 23.37 128.01 31.03 123.78 31.03 123.78L31.31 126.34C33.95 126.91 41.39 127.42 47.37 139.99 52.28 140.38 68.21 141.07 82.37 135.21 83.28 135.1 84.74 135.27 86.32 135.55 87.72 134.55 87.82 133.95 88.25 132.11 92.79 129.73 97.96 129.58 102.13 134.32 102.05 134.13 102.01 134.01 102.01 134.01 102.01 134.01 103.9 136.33 104.58 135.3 105.26 134.25 103.38 132.8 103.97 131.34Z" fill="#474746"/><path d="M54.02 140.57C51.09 140.57 48.78 140.43 47.34 140.31L47.14 140.3 47.05 140.12C41.6 128.65 35.07 127.39 31.92 126.79 31.68 126.74 31.44 126.7 31.25 126.65L31 126.6 30.75 124.3C29.22 125.08 24.18 127.47 19.49 127.47 18.78 127.47 18.1 127.41 17.48 127.3 10.34 125.45 10.84 109.3 13.42 96.04 16.03 82.7 19.13 77.18 24.88 75.64 27.96 74.82 29.95 74.26 32.2 73.64 33.64 73.23 35.19 72.8 37.2 72.25 37.48 70.73 38.97 70.02 39.77 69.87L40.86 69.74 40.94 70.04C41.31 71.49 41.75 73.38 41.85 74.33 42.95 74.73 44.13 74.94 45.37 74.94 48.09 74.94 50.63 73.94 52.05 72.9 51.69 71.39 51.4 70.02 51.2 68.85L51.14 68.51 52.14 68.36C52.46 68.31 52.78 68.28 53.08 68.28 55.33 68.28 56.26 69.76 56.54 70.35L60.69 70.35C61.53 70.35 62.57 70.3 63.67 70.25 64.95 70.2 66.39 70.14 67.76 70.14 70.24 70.14 71.91 70.34 73.04 70.76 73.35 70.88 73.69 71 74.02 71.13 76.79 72.14 80.24 73.39 83.01 77.12 86.46 81.78 91.61 89.24 96.58 98.41 101.78 109.98 104.97 129.82 104.28 131.47 104.03 132.1 104.33 132.75 104.64 133.38 104.97 134.08 105.3 134.82 104.86 135.48 104.67 135.76 104.41 135.89 104.1 135.89L104.1 135.89C103.72 135.89 103.28 135.67 102.91 135.38L103.15 135.99 101.87 134.54C99.7 132.07 97.14 130.82 94.25 130.82 92.42 130.82 90.49 131.31 88.55 132.32L88.55 132.33C88.15 134.07 87.98 134.78 86.52 135.83L86.41 135.91 86.27 135.89C84.55 135.59 83.29 135.46 82.47 135.55 72.38 139.69 61.42 140.57 54.02 140.57ZM47.6 139.65C49.02 139.75 51.25 139.88 54.02 139.88 61.38 139.88 72.25 139.02 82.24 134.89L82.33 134.86C83.17 134.76 84.46 134.87 86.23 135.17 87.37 134.33 87.49 133.8 87.87 132.17L87.94 131.84 88.08 131.77C90.17 130.67 92.26 130.13 94.24 130.13 96.81 130.13 99.13 131.04 101.18 132.85L100.84 132.02 102.28 133.77C102.76 134.35 103.65 135.19 104.11 135.19L104.11 135.19C104.18 135.19 104.23 135.17 104.29 135.08 104.5 134.76 104.33 134.32 104.03 133.65 103.68 132.92 103.29 132.08 103.67 131.2 104.21 129.87 101.19 110.29 95.99 98.7 91.05 89.59 85.91 82.14 82.47 77.51 79.83 73.94 76.48 72.72 73.8 71.75 73.44 71.63 73.11 71.51 72.79 71.38 71.77 70.99 70.12 70.8 67.77 70.8 66.42 70.8 64.98 70.86 63.71 70.92 62.6 70.96 61.56 71 60.7 71L56.08 71 56 70.77C55.98 70.69 55.39 68.93 53.09 68.93 52.83 68.93 52.56 68.96 52.26 69L51.95 69.05C52.16 70.18 52.44 71.48 52.78 72.93L52.83 73.15 52.66 73.28C51.31 74.34 48.61 75.59 45.39 75.59 43.99 75.59 42.66 75.34 41.43 74.88L41.23 74.8 41.2 74.6C41.15 73.81 40.68 71.8 40.36 70.49L39.88 70.54C39.83 70.55 38.01 70.94 37.86 72.55L37.84 72.79 37.61 72.85C35.49 73.43 33.88 73.88 32.38 74.3 30.14 74.93 28.15 75.49 25.06 76.31 19.62 77.75 16.64 83.14 14.1 96.17 10.04 116.94 13.46 125.56 17.62 126.64 18.19 126.74 18.81 126.79 19.49 126.79 24.79 126.79 30.8 123.51 30.87 123.48L31.31 123.23 31.64 126.05C31.76 126.07 31.92 126.1 32.06 126.13 35.04 126.69 42 128.02 47.6 139.65Z" fill="#4672C1"/></g><path d="M103.97 131.34C104.3 130.54 103.56 124.39 101.96 117.05L101.74 117.01C101.74 117.01 102.94 125.08 101.05 129.54 103.45 131.42 102.58 132.11 98.99 130.06 95.05 127.47 90.07 129.54 90.07 128.85 90.41 127.65 91.45 126.98 95.9 127.31 92.3 125.08 89.72 127.82 89.39 126.11 89.05 124.4 90.42 119.42 88.01 111.87 85.61 104.33 83.56 99.02 84.93 97.13 86.31 95.24 88.88 91.64 84.93 94.21 80.99 96.96 80.81 81.87 83.91 83.24 87.14 84.47 96.55 100.84 98.47 104.24 97.8 102.22 97.05 100.32 96.27 98.57 91.09 89 85.78 81.43 82.73 77.32 79.68 73.2 75.69 72.14 72.9 71.08 70.12 70.03 64.01 70.68 60.69 70.68 57.38 70.68 56.31 70.68 56.31 70.68 56.31 70.68 55.52 68.16 52.19 68.69 51.99 68.72 51.77 68.76 51.54 68.8 51.72 69.8 51.99 71.19 52.43 73.04 50.37 74.68 45.74 76.22 41.53 74.59 41.48 73.7 40.94 71.46 40.6 70.13 40.11 70.19 39.82 70.22 39.82 70.22 39.82 70.22 37.68 70.64 37.5 72.53 32.19 73.99 30.1 74.62 24.97 76 19.81 77.37 16.5 82.06 13.76 96.12 13.57 97.09 13.39 98.07 13.23 99.04L13.26 99.04C13.26 99.04 18.4 81.54 22 80.86 25.61 80.17 22 93.9 21.84 100.58 21.32 105.2 18.23 108.12 18.05 113.44 21.14 107.09 21.84 107.09 21.48 109.32 21.14 111.55 21.48 113.61 21.48 113.61 21.48 113.61 20.96 109.15 26.12 106.58 31.25 104 35.37 101.27 35.37 104 35.37 106.75 37.08 111.67 38.46 115.5 39.14 117.39 34.34 119.61 28.35 122.02 22.35 124.42 13.08 130.93 12.06 110.03 11.7 118.78 13.13 125.85 17.54 127 23.37 128.02 31.03 123.79 31.03 123.79L31.31 126.35C33.95 126.92 41.39 127.43 47.37 140 52.28 140.39 68.21 141.08 82.37 135.22 83.28 135.11 84.74 135.28 86.32 135.56 87.72 134.56 87.82 133.96 88.25 132.12 92.79 129.74 97.96 129.59 102.13 134.33 102.05 134.14 102.01 134.02 102.01 134.02 102.01 134.02 103.9 136.34 104.58 135.31 105.26 134.25 103.38 132.8 103.97 131.34ZM67.16 76.43C58.92 76.89 56.41 78.49 51.84 78.49 47.27 78.49 44.53 79.62 40.63 79.62 36.74 79.62 33.2 79.11 34.47 87.41 35.61 94.96 36.16 96.55 32.74 98.79 28.81 101.36 26.92 100.44 27.15 93.34 27.38 86.25 25.32 81.23 28.52 78.71 28.52 78.71 37.68 73.67 38.13 75.97 38.59 78.26 44.54 78.71 52.31 75.97 56.66 74.37 57.34 74.37 65.13 73.92 72.88 73.46 75.39 75.97 67.16 76.43Z" fill="#5E5E5C" opacity="0.5"/><g><path d="M31.03 123.77 37.03 120.83 43.05 117.94 42.94 118.03C43.06 117.79 43.05 117.32 43.01 116.94 42.96 116.53 42.9 116.13 42.82 115.72 42.66 114.9 42.44 114.09 42.23 113.29 41.79 111.67 41.27 110.08 40.7 108.51 40.16 106.93 39.55 105.37 38.9 103.83 38.24 102.3 37.56 100.75 36.7 99.36L37.11 99.48C36.08 99.91 35.05 100.4 34.03 100.85L32.52 101.61C32.03 101.87 31.5 102.09 31.05 102.4L29.64 103.27C29.15 103.57 28.74 103.95 28.22 104.24 27.74 104.55 27.25 104.84 26.72 105.09 26.21 105.35 25.66 105.56 25.1 105.72 24.83 105.8 24.53 105.88 24.24 105.9 24.07 105.9 23.98 105.94 23.75 105.9 23.72 105.92 23.5 105.81 23.45 105.74 23.38 105.65 23.33 105.58 23.3 105.5 23.06 104.89 23.06 104.32 23.04 103.74 23.01 102.6 23.07 101.47 23.15 100.34 23.3 98.08 23.55 95.84 23.62 93.58 23.65 95.84 23.5 98.1 23.44 100.35 23.42 101.49 23.38 102.61 23.43 103.72 23.47 104.26 23.51 104.87 23.69 105.3 23.73 105.36 23.75 105.39 23.77 105.42 23.82 105.44 23.72 105.44 23.83 105.45 23.87 105.46 24.07 105.44 24.18 105.42 24.44 105.39 24.71 105.32 24.97 105.25 25.49 105.08 26 104.88 26.49 104.6 26.98 104.34 27.46 104.06 27.91 103.76 28.37 103.47 28.81 103.08 29.28 102.79L30.74 101.87C31.23 101.55 31.75 101.32 32.24 101.06L33.76 100.29C34.8 99.81 35.82 99.32 36.86 98.88L37.12 98.77 37.25 99C38.17 100.47 38.86 102.02 39.51 103.58 40.16 105.14 40.75 106.72 41.3 108.31 41.85 109.9 42.36 111.51 42.79 113.15 43.01 113.97 43.21 114.8 43.36 115.64 43.43 116.07 43.5 116.48 43.53 116.91 43.54 117.35 43.61 117.78 43.35 118.3L43.32 118.35 43.25 118.38 37.15 121.1 31.03 123.77Z" fill="#4672C1"/><path d="M23.36 104.67C23.36 104.67 22.89 105.24 22.25 106.14 21.61 107.04 20.79 108.23 20.12 109.51 19.78 110.14 19.47 110.79 19.22 111.42 19.1 111.73 18.97 112.03 18.88 112.33 18.79 112.63 18.67 112.91 18.62 113.18 18.56 113.43 18.49 113.68 18.43 113.89 18.39 114.11 18.36 114.3 18.33 114.46 18.26 114.77 18.22 114.95 18.22 114.95 18.22 114.95 18.21 114.77 18.19 114.45 18.18 114.12 18.17 113.65 18.25 113.09 18.27 112.81 18.34 112.51 18.4 112.19 18.46 111.88 18.55 111.55 18.66 111.22 18.86 110.54 19.19 109.85 19.52 109.19 19.88 108.53 20.29 107.89 20.71 107.33 21.13 106.77 21.57 106.29 21.96 105.89 22.74 105.09 23.36 104.67 23.36 104.67Z" fill="#4672C1"/><path d="M23.48 105.13C23.48 105.13 23.39 105.56 23.23 106.17 23.06 106.79 22.83 107.6 22.56 108.41 22.44 108.8 22.34 109.21 22.2 109.58 22.1 109.95 22 110.31 21.9 110.61 21.78 111.22 21.64 111.65 21.64 111.65 21.64 111.65 21.61 111.54 21.59 111.36 21.57 111.17 21.51 110.9 21.5 110.57 21.51 110.23 21.54 109.86 21.6 109.45 21.68 109.04 21.78 108.62 21.9 108.2 22.17 107.37 22.52 106.58 22.85 106.02 23.2 105.47 23.48 105.13 23.48 105.13Z" fill="#4672C1"/><path d="M84.25 95.92C83.4 97.11 82.6 98.34 82.13 99.7 81.92 100.37 81.77 101.11 82.04 101.69 82.35 102.35 82.68 103 82.97 103.67 83.29 104.34 83.56 105.02 83.82 105.72 84.03 106.41 84.27 107.12 84.42 107.83 84.6 108.55 84.73 109.28 84.83 110.01 84.96 110.72 84.98 111.47 85.05 112.2 85.11 112.94 85.12 113.66 85.16 114.39L85.27 116.56C85.34 118.01 85.43 119.46 85.55 120.91 85.61 121.63 85.66 122.36 85.74 123.08 85.84 123.8 85.87 124.52 85.97 125.24 86.08 125.96 86.13 126.68 86.28 127.39L86.5 128.44 86.82 129.44 86.86 129.6 86.76 129.67C86.38 129.96 85.99 130.24 85.68 130.59 85.35 130.94 85.06 131.32 84.94 131.76 84.8 132.2 84.92 132.7 85.17 133.1 85.42 133.5 85.77 133.85 86.14 134.16 85.75 133.88 85.36 133.56 85.07 133.15 84.78 132.75 84.62 132.22 84.74 131.72 84.84 131.21 85.14 130.78 85.46 130.4 85.8 130.01 86.17 129.7 86.55 129.38L86.49 129.61 86.11 128.55 85.85 127.47C85.67 126.76 85.59 126.04 85.46 125.31 85.24 123.87 85.08 122.42 84.94 120.96 84.8 119.5 84.7 118.04 84.61 116.6 84.56 115.86 84.51 115.13 84.49 114.4 84.46 113.67 84.46 112.94 84.41 112.23 84.34 111.5 84.34 110.79 84.22 110.07 84.14 109.36 84.02 108.65 83.85 107.96 83.72 107.25 83.48 106.57 83.3 105.88 83.07 105.2 82.83 104.52 82.54 103.86 82.28 103.18 81.97 102.52 81.68 101.85 81.37 101.06 81.6 100.26 81.86 99.59 82.44 98.23 83.3 97.02 84.25 95.92Z" fill="#4672C1"/></g><path d="M48.23 135.19C48.23 135.19 50.98 133.99 52.7 135.54 54.41 137.08 60.08 134.68 66.59 134.51 73.11 134.35 78.77 132.29 79.1 133.14 79.45 134 72.07 137.43 61.44 138.29 50.81 139.15 44.29 137.77 48.23 135.19Z" fill="#9CBBFF"/><path d="M18.64 88.85C18.64 88.85 15.34 96.27 14.68 107.49 14.01 114.59 11.21 101.38 18.64 88.85Z" fill="#9CBBFF"/><path d="M92.77 97.81C92.77 97.81 100.55 110.27 100.55 122.73 100.32 127.31 104.43 111.41 92.77 97.81Z" fill="#9CBBFF"/></g><g><path d="M52.44 73.02C52 71.17 51.73 69.78 51.55 68.78 48.52 69.22 42.71 69.87 40.61 70.1 40.95 71.43 41.49 73.67 41.54 74.56 45.74 76.2 50.38 74.66 52.44 73.02Z" fill="#FBD0B4"/><path d="M45.38 75.55 45.38 75.55C43.98 75.55 42.67 75.31 41.44 74.84L41.27 74.76 41.26 74.6C41.19 73.72 40.65 71.46 40.33 70.18L40.24 69.86 40.57 69.83C42.34 69.63 48.38 68.96 51.49 68.5L51.77 68.46 51.82 68.75C52.02 69.95 52.33 71.37 52.71 72.97L52.75 73.14 52.61 73.25C51.28 74.31 48.57 75.55 45.38 75.55ZM41.81 74.36C42.92 74.76 44.11 74.97 45.38 74.97 48.14 74.97 50.71 73.95 52.12 72.91 51.79 71.49 51.51 70.21 51.32 69.1 48.3 69.54 43.01 70.13 40.98 70.36 41.32 71.79 41.73 73.49 41.81 74.36Z" fill="#B56A4D"/></g><path d="M43.43 75.08C44.68 73.67 46.03 72.41 48.07 72.16 49.48 72.01 50.88 72.04 52.26 72.23 51.93 70.78 51.7 69.63 51.55 68.78 48.52 69.22 42.71 69.87 40.61 70.1 40.95 71.43 41.49 73.67 41.54 74.56 42.16 74.82 42.79 74.97 43.43 75.08Z" fill="#EDB89A" opacity="0.8"/><g><path d="M102.12 134.3C97.95 129.56 92.78 129.71 88.24 132.09 87.78 134.1 87.71 134.63 85.93 135.79 84.15 136.95 84.54 140.35 82.36 143.08 79.28 146.85 77.83 148.29 79.42 149.39 81.02 150.5 83.68 149.25 85.56 145.65 86.42 143.94 87.22 142.62 88.01 143.14 88.81 143.66 88.96 150.71 87.41 153.38 85.87 156.03 84.75 159.89 86.22 160.32 87.67 160.75 89.73 158.44 89.73 158.44 89.73 158.44 89.13 160.75 90.59 161 92.06 161.26 93.34 159.2 93.34 159.2 93.34 159.2 94.7 160.93 100.03 155.26 100.45 157.4 101.14 158.6 102.43 158.44 103.72 158.26 102.86 155.69 104.24 152.94 104.97 151.44 105.42 150.64 105.59 149.62 105.59 149.62 105.58 149.6 105.58 149.59 105.17 142.53 102.7 135.79 102.12 134.3Z" fill="#FBD0B4"/><path d="M90.84 161.31C90.74 161.31 90.64 161.31 90.54 161.28 90.15 161.23 89.84 161.01 89.63 160.69 89.36 160.27 89.31 159.7 89.33 159.24 88.68 159.84 87.59 160.67 86.6 160.67 86.43 160.67 86.28 160.64 86.14 160.6 85.81 160.49 85.56 160.26 85.41 159.9 84.86 158.5 85.9 155.42 87.16 153.24 88.68 150.63 88.46 143.87 87.86 143.39 87.8 143.34 87.73 143.32 87.66 143.32 87.05 143.32 86.19 145.06 85.82 145.79 84.43 148.44 82.47 150.08 80.71 150.08 80.18 150.08 79.69 149.93 79.27 149.63 78.82 149.31 78.55 148.96 78.5 148.53 78.36 147.5 79.41 146.24 81.3 143.94L82.15 142.91C83.19 141.6 83.62 140.13 84.01 138.83 84.43 137.42 84.78 136.2 85.78 135.55 87.4 134.5 87.5 134.06 87.93 132.22L88 131.9 88.12 131.84C90.21 130.74 92.27 130.19 94.25 130.19 97.32 130.19 100.04 131.52 102.34 134.12L102.39 134.19C102.91 135.51 105.46 142.43 105.86 149.59L105.9 149.67 105.88 149.69C105.73 150.65 105.34 151.42 104.69 152.7L104.5 153.09C103.86 154.35 103.72 155.57 103.61 156.55 103.48 157.71 103.37 158.61 102.47 158.72 100.89 158.96 100.21 157.31 99.87 155.85 95.85 160.02 94.07 159.92 93.42 159.61 93.04 160.13 92.04 161.31 90.84 161.31ZM90.32 157.37 90.02 158.51C89.93 158.85 89.78 159.86 90.12 160.39 90.24 160.57 90.42 160.68 90.65 160.73 91.71 160.91 92.78 159.56 93.1 159.05L93.31 158.7 93.56 159.03 93.56 159.03C93.56 159.03 93.71 159.17 94.07 159.17 94.78 159.17 96.47 158.64 99.82 155.07L100.2 154.66 100.31 155.22C100.75 157.37 101.39 158.28 102.38 158.16 102.8 158.1 102.89 157.66 103.03 156.49 103.14 155.51 103.3 154.18 103.97 152.82L104.17 152.44C104.77 151.23 105.14 150.5 105.29 149.64L105.29 149.61C104.89 142.62 102.41 135.86 101.86 134.45 99.7 132 97.13 130.74 94.24 130.74 92.38 130.74 90.46 131.25 88.5 132.27L88.48 132.32C88.06 134.2 87.9 134.83 86.09 136.01 85.27 136.55 84.94 137.67 84.57 138.97 84.16 140.32 83.71 141.85 82.6 143.24L81.76 144.28C80.02 146.37 78.98 147.64 79.09 148.43 79.11 148.69 79.29 148.92 79.61 149.14 79.93 149.37 80.31 149.49 80.72 149.49 81.93 149.49 83.78 148.43 85.32 145.51 86.21 143.75 86.87 142.72 87.68 142.72 87.86 142.72 88.03 142.76 88.2 142.88 89.28 143.57 89.14 150.99 87.69 153.5 86.32 155.85 85.55 158.63 85.96 159.66 86.04 159.87 86.16 159.98 86.33 160.03 86.41 160.06 86.52 160.07 86.62 160.07 87.68 160.07 89.09 158.74 89.54 158.22L90.32 157.37Z" fill="#B56A4D"/></g><g><path d="M92.87 143.13C92.87 143.13 92.96 143.36 93.07 143.78 93.11 144 93.18 144.26 93.23 144.56 93.26 144.86 93.35 145.2 93.36 145.58 93.39 145.96 93.43 146.37 93.41 146.8 93.41 147.23 93.41 147.7 93.34 148.17 93.31 148.4 93.28 148.65 93.24 148.88 93.18 149.12 93.13 149.36 93.07 149.61 92.96 150.11 92.8 150.59 92.63 151.05 91.98 152.92 91.27 154.77 90.7 156.17 90.15 157.54 89.72 158.46 89.72 158.46 89.72 158.46 89.96 157.48 90.39 156.05 90.82 154.62 91.42 152.73 92.09 150.85 92.26 150.39 92.42 149.92 92.53 149.46 92.6 149.23 92.66 149.01 92.72 148.77 92.76 148.55 92.79 148.31 92.83 148.09 92.98 147.18 93.04 146.33 93.04 145.59 93.05 144.12 92.87 143.13 92.87 143.13Z" fill="#B56A4D"/><path d="M97.43 142.97C97.43 142.97 97.56 144.04 97.62 145.65 97.63 146.45 97.67 147.4 97.62 148.4 97.61 148.91 97.56 149.43 97.52 149.98 97.48 150.5 97.42 151.04 97.32 151.58L97.18 152.39C97.1 152.65 97 152.92 96.93 153.17 96.78 153.71 96.51 154.17 96.3 154.62 95.86 155.52 95.34 156.32 94.91 157.01 94.49 157.7 94.06 158.23 93.81 158.63 93.53 158.99 93.36 159.2 93.36 159.2 93.36 159.2 93.89 158.27 94.64 156.85 94.83 156.49 95.03 156.11 95.25 155.71 95.45 155.29 95.65 154.85 95.86 154.4 96.07 153.93 96.33 153.49 96.45 152.99 96.52 152.75 96.59 152.5 96.66 152.26L96.78 151.47C96.89 150.95 96.96 150.43 97.01 149.91 97.07 149.38 97.12 148.88 97.15 148.38 97.22 147.38 97.28 146.45 97.32 145.65 97.38 144.05 97.43 142.97 97.43 142.97Z" fill="#B56A4D"/><path d="M101.37 142.82C101.37 142.82 101.55 143.6 101.71 144.8 101.78 145.39 101.86 146.1 101.91 146.84 101.96 147.6 101.96 148.4 101.95 149.21 101.9 150.02 101.84 150.82 101.69 151.58 101.63 151.95 101.55 152.31 101.45 152.64 101.36 152.98 101.26 153.29 101.14 153.57 101.04 153.87 100.92 154.12 100.77 154.33 100.64 154.54 100.55 154.73 100.41 154.86 100.17 155.11 100.04 155.27 100.04 155.27 100.04 155.27 100.14 155.1 100.32 154.79 100.43 154.66 100.48 154.46 100.58 154.23 100.67 154.01 100.75 153.75 100.83 153.47 101.01 152.9 101.11 152.22 101.18 151.48 101.27 150.75 101.32 149.98 101.37 149.18 101.4 148.39 101.4 147.6 101.4 146.85 101.4 146.1 101.43 145.4 101.4 144.82 101.39 143.61 101.37 142.82 101.37 142.82Z" fill="#B56A4D"/></g><g><path d="M36.97 99.18C36.97 99.18 35.84 106.84 43.14 118.16 43.49 114.27 39.31 102.54 36.97 99.18Z" fill="#FF9AC3"/><path d="M43.4 119.2 42.85 118.35C35.55 107.05 36.58 99.46 36.63 99.14L36.76 98.28 37.25 98.98C39.57 102.31 43.84 114.08 43.48 118.19L43.4 119.2ZM37.26 100.29C37.24 102.65 37.78 108.79 42.8 116.96 42.47 112.68 39.34 103.98 37.26 100.29Z" fill="#4672C1"/></g><path d="M38.6 132.39C38.6 132.39 38.72 132.5 38.95 132.72 39.16 132.95 39.47 133.31 39.87 133.73 40.29 134.17 40.69 134.77 41.2 135.41 41.45 135.74 41.72 136.1 42 136.46 42.25 136.85 42.51 137.26 42.78 137.69 43.3 138.56 43.94 139.47 44.49 140.49 45.04 141.53 45.61 142.61 46.21 143.73 46.49 144.29 46.81 144.86 47.09 145.45 47.36 146.05 47.62 146.65 47.89 147.26 48.43 148.48 48.97 149.71 49.52 150.96 50.1 152.19 50.48 153.49 50.97 154.74 51.41 155.98 51.86 157.22 52.28 158.41 52.72 159.62 53.15 160.75 53.44 161.88 53.77 163 54.07 164.05 54.34 165.03 55.47 168.93 56.17 171.53 56.17 171.53 56.17 171.53 55.29 168.98 54.02 165.12 53.7 164.17 53.36 163.13 53.01 162.01 52.67 160.9 52.2 159.77 51.77 158.58 51.32 157.39 50.87 156.19 50.41 154.94 49.92 153.7 49.52 152.42 48.93 151.19 48.42 149.95 47.88 148.72 47.35 147.49 47.09 146.88 46.83 146.28 46.58 145.68 46.32 145.09 46.01 144.53 45.73 143.95 45.16 142.83 44.62 141.74 44.11 140.69 43.58 139.66 42.97 138.74 42.49 137.86 42.23 137.42 41.98 137.01 41.76 136.61 41.5 136.22 41.25 135.86 41.02 135.51 40.55 134.86 40.19 134.22 39.81 133.79 39.44 133.32 39.15 132.96 38.95 132.72 38.72 132.52 38.6 132.39 38.6 132.39Z" fill="#41485E"/><path d="M68.24 213.24C68.24 213.24 68.39 213.36 68.56 213.64 68.66 213.77 68.75 213.96 68.84 214.17 68.89 214.29 68.92 214.39 68.96 214.53 68.97 214.65 68.98 214.8 69 214.95 69 215.23 69 215.58 68.86 215.87 68.81 216.02 68.71 216.25 68.69 216.34 68.64 216.5 68.58 216.66 68.52 216.83 68.53 216.97 68.53 217.11 68.53 217.25 68.53 217.4 68.6 217.56 68.63 217.72 68.7 218.06 68.89 218.38 69.02 218.71 69.33 219.38 69.63 220.04 69.92 220.67 70.2 221.31 70.43 221.93 70.63 222.44 70.99 223.49 71.19 224.21 71.19 224.21 71.19 224.21 70.82 223.56 70.34 222.57 69.83 221.58 69.13 220.3 68.49 218.95 68.37 218.58 68.18 218.26 68.1 217.86 68.07 217.67 68 217.5 68.01 217.28 68.01 217.07 68.03 216.84 68.04 216.65 68.12 216.49 68.17 216.34 68.25 216.18 68.32 216.03 68.39 215.87 68.47 215.73 68.63 215.47 68.64 215.19 68.68 214.93 68.69 214.67 68.68 214.43 68.64 214.22 68.59 214 68.53 213.82 68.47 213.68 68.36 213.39 68.24 213.24 68.24 213.24Z" fill="#B56A4D"/><g><path d="M50.12 104.84C50.12 104.84 50.68 104.75 51.51 104.75 51.93 104.75 52.41 104.77 52.94 104.84 53.47 104.91 54.02 105.02 54.58 105.24 54.84 105.33 55.16 105.54 55.37 105.78 55.55 105.98 55.73 106.17 55.89 106.37 56.23 106.77 56.54 107.14 56.79 107.47 57.28 108.13 57.57 108.62 57.57 108.62 57.57 108.62 57.12 108.29 56.49 107.75 56.17 107.47 55.82 107.15 55.45 106.79 55.27 106.61 55.06 106.43 54.88 106.23 54.71 106.07 54.56 105.97 54.31 105.89 53.85 105.69 53.31 105.57 52.82 105.44 52.33 105.33 51.85 105.24 51.47 105.15 50.67 104.96 50.12 104.84 50.12 104.84Z" fill="#B56A4D"/><path d="M49.26 98.83C49.26 98.83 49.79 98.85 50.55 99 50.94 99.08 51.38 99.17 51.85 99.31 52.32 99.44 52.81 99.63 53.3 99.81 53.77 100.03 54.26 100.25 54.68 100.51 54.9 100.63 55.1 100.76 55.28 100.91 55.46 101.04 55.63 101.18 55.77 101.31 55.92 101.44 56.05 101.57 56.15 101.71 56.26 101.83 56.34 101.93 56.39 102.05 56.51 102.25 56.56 102.37 56.56 102.37 56.56 102.37 56.46 102.28 56.29 102.14 56.22 102.06 56.1 102 55.97 101.91 55.85 101.82 55.7 101.72 55.54 101.63 55.22 101.44 54.82 101.25 54.4 101.04 54.18 100.94 53.96 100.85 53.73 100.74 53.5 100.64 53.26 100.56 53.02 100.45 52.56 100.26 52.09 100.07 51.65 99.88 51.2 99.7 50.78 99.53 50.43 99.37 49.73 99.08 49.26 98.83 49.26 98.83Z" fill="#B56A4D"/><path d="M49 95.16C49 95.16 49.4 95.13 50.01 95.22 50.6 95.29 51.38 95.5 52.12 95.79 52.49 95.96 52.85 96.11 53.18 96.3 53.51 96.5 53.79 96.68 54.04 96.88 54.51 97.26 54.77 97.57 54.77 97.57 54.77 97.57 54.37 97.46 53.83 97.21 53.7 97.16 53.55 97.12 53.4 97.05 53.24 96.99 53.08 96.93 52.92 96.85 52.76 96.77 52.58 96.72 52.4 96.65 52.23 96.58 52.05 96.5 51.87 96.43 51.69 96.36 51.51 96.3 51.34 96.22 51.16 96.14 51 96.06 50.82 96 50.48 95.87 50.18 95.72 49.91 95.6 49.36 95.35 49 95.16 49 95.16Z" fill="#B56A4D"/></g><g opacity="0.5"><path d="M105.59 149.63C105.42 150.65 104.98 151.45 104.24 152.95 102.86 155.7 103.72 158.27 102.43 158.45 101.14 158.61 100.45 157.41 100.03 155.27 94.7 160.93 93.34 159.21 93.34 159.21 93.34 159.21 92.06 161.27 90.59 161.01 89.13 160.76 89.73 158.45 89.73 158.45 89.73 158.45 87.67 160.76 86.22 160.33 84.75 159.9 85.87 156.04 87.41 153.39 88.95 150.72 88.81 143.67 88.01 143.15 87.22 142.64 86.41 143.95 85.56 145.66 83.67 149.26 81.01 150.51 79.42 149.4 77.83 148.29 79.28 146.86 82.36 143.09 76.53 141.38 58.86 144.3 48.92 143.6 42.75 127.48 34.17 126.95 31.3 126.33 31.3 126.33 17.53 124.22 14.95 143.09 14.44 147.4 17.98 156.43 22.33 166.15 19.86 159.31 15.36 144.76 19.09 138.26 24.06 129.62 30.63 132.98 35.59 140.18 40.57 147.39 43.49 150.28 43.44 161.98 43.42 168.64 45.96 172.4 50.08 181.33 54.2 190.24 59.37 196.77 58 202.61 56.63 208.44 50.28 206.03 49.08 209.63 47.88 213.24 41.53 213.91 43.08 208.43 44.44 203.58 38.82 207.04 35.96 202.08 36.39 203.34 38.13 204.3 39.29 205.86 40.84 207.92 41.35 208.96 39.97 211.01 38.6 213.06 40.33 215.81 48.55 215.81 48.55 215.81 49.32 216.23 51.71 214.02 54.09 211.8 56.9 210.96 59.54 210.96 62.17 210.96 65.58 208.88 66.74 207.75 69.99 205.7 68.97 203.3 65.54 199.53 62.1 195.76 62.56 190.1 59.37 181.4 56.16 172.71 56.16 171.56 56.16 171.56 56.16 171.56 83.37 172.71 94.13 167.9 97.55 166.08 98.02 166.08 99.62 166.75 101.23 167.44 109.44 160.36 105.59 149.63Z" fill="#2C82C7"/></g><g opacity="0.5"><path d="M105.59 149.63C105.42 150.65 104.98 151.45 104.24 152.95 102.86 155.7 103.72 158.27 102.43 158.45 101.14 158.61 100.45 157.41 100.03 155.27 94.7 160.93 93.34 159.21 93.34 159.21 93.34 159.21 92.06 161.27 90.59 161.01 89.13 160.76 89.73 158.45 89.73 158.45 89.73 158.45 87.67 160.76 86.22 160.33 84.75 159.9 85.87 156.04 87.41 153.39 88.95 150.72 88.81 143.67 88.01 143.15 87.22 142.64 86.41 143.95 85.56 145.66 83.67 149.26 81.01 150.51 79.42 149.4 77.83 148.29 79.28 146.86 82.36 143.09 78.3 141.9 68.54 142.94 59.62 143.46 60.25 143.59 60.93 143.66 61.66 143.66 71.27 143.66 79.27 142.51 76.99 146.4 74.69 150.3 75.15 151.9 78.81 151.2 82.47 150.52 84.53 149.83 84.31 155.78 84.07 161.72 73.33 166.07 64.41 164.92 55.49 163.77 53.89 155.09 45.19 142.74 50.68 154.4 52.52 166.52 54.11 175.44 55.71 184.36 59.37 194.2 62.35 199.91 65.31 205.63 61.89 208.37 56.85 209.06 53.24 209.55 52.7 211.92 52.68 213.22 54.82 211.6 57.25 210.95 59.55 210.95 62.18 210.95 65.59 208.87 66.75 207.74 70 205.69 68.98 203.29 65.55 199.52 62.11 195.75 62.57 190.09 59.38 181.39 56.17 172.7 56.17 171.55 56.17 171.55 56.17 171.55 83.38 172.7 94.14 167.89 97.56 166.07 98.03 166.07 99.63 166.74 101.23 167.44 109.44 160.36 105.59 149.63Z" fill="#747889"/></g><path d="M21.21 140.4C21.21 140.4 19.86 149.5 27.6 167.7 30.32 174.49 15.6 151.44 21.21 140.4Z" fill="#747889"/><path d="M30.97 178.08C30.97 178.08 32.5 182.17 35.73 189.15 38.96 196.13 35.04 182 30.97 178.08Z" fill="#747889"/><g opacity="0.3"><path d="M66.76 207.74C65.61 208.87 62.2 210.95 59.56 210.95 56.92 210.95 54.11 211.8 51.73 214.01 49.34 216.22 48.57 215.8 48.57 215.8 48.64 216.3 48.75 216.76 48.93 217.16 50.49 215.98 52.91 214.24 55 213.36 58.36 211.95 61.81 212.21 62.08 213.45 62.33 214.61 56.47 217.71 50.3 218.46 51.64 219.01 53.89 218.84 57.66 217.53 64.54 215.12 68.48 212.38 66.76 207.74Z" fill="#747889"/></g><g opacity="0.5"><path d="M82.36 135.19C68.2 141.05 52.27 140.36 47.36 139.97 47.89 141.09 48.42 142.28 48.92 143.59 58.86 144.28 76.53 141.37 82.36 143.08 84.53 140.34 84.14 136.94 85.93 135.79 86.06 135.7 86.2 135.61 86.31 135.53 84.74 135.26 83.28 135.08 82.36 135.19ZM82.01 140.01C81.34 141.94 75.05 141.49 72.06 141.49 69.09 141.49 50.23 143.43 54 141.49 54 141.49 66.69 142.06 75.72 139.09 82.25 136.91 82.7 138.05 82.01 140.01Z" fill="#9CBBFF"/></g><g><path d="M105.58 149.6C105.17 142.53 102.7 135.79 102.12 134.3 97.95 129.56 92.78 129.71 88.24 132.09 87.78 134.1 87.71 134.63 85.93 135.79 84.46 136.74 84.46 139.21 83.3 141.58L83.47 141.57C83.47 141.57 85.57 137.68 87.51 136.93 89.46 136.18 88.42 133.33 92.3 132.58 96.19 131.83 100.99 133.32 102.78 138.72 104.58 144.12 105.93 149.66 104.28 149.66 102.64 149.66 102.78 148.16 102.04 144.27 101.28 141.57 101.28 141.57 101.28 141.57 101.28 141.57 102.03 149.96 99.93 150.41 97.84 150.86 98.28 144.57 97.54 141.87 96.95 148.31 96.34 151.31 94.99 151.31 93.64 151.31 94.54 144.12 93.04 141.87 93.5 146.37 91.55 151.01 90.05 150.87 88.55 150.71 90.5 146.22 90.05 142.18 89.6 138.73 86.75 141.88 85.26 144.28 84.28 145.82 82.93 148.65 80.46 149.78 82.03 149.93 84.04 148.56 85.56 145.66 86.42 143.95 87.22 142.63 88.01 143.15 88.81 143.67 88.96 150.72 87.41 153.39 85.87 156.04 84.75 159.9 86.22 160.33 87.67 160.76 89.73 158.45 89.73 158.45 89.73 158.45 89.13 160.76 90.59 161.01 92.06 161.27 93.34 159.21 93.34 159.21 93.34 159.21 94.7 160.94 100.03 155.27 100.45 157.41 101.14 158.61 102.43 158.45 103.72 158.27 102.86 155.7 104.24 152.95 104.97 151.45 105.42 150.65 105.59 149.63 105.59 149.63 105.58 149.61 105.58 149.6Z" fill="#EDB89A" opacity="0.8"/></g><g><path d="M60.65 96.45C60.43 97.39 59.81 98.06 58.24 97.13 54.93 95.18 52.75 94.5 48.06 94.73 52.74 96.1 54.46 97.47 54.46 98.5 54.46 99.54 50.69 97.93 48.28 98.26 54.69 100.66 55.61 102.27 55.61 103.3 55.61 104.33 52.74 103.76 49.09 104.1 54.58 104.79 54.46 105.59 54.34 106.73 54.23 107.87 50.23 107.3 48.85 107.53 47.37 107.76 46.11 110.39 43.13 111.65 40.16 112.9 36.84 105.81 40.05 99.3 40.03 99.19 40.01 99.09 40 99 39 100.62 38.57 101.97 38.57 101.97L37.18 102.71C37.03 105.12 38.18 108.96 40.77 113.76 44.54 115.14 47.62 112.22 49.68 109.48 51.73 109.3 54.14 108.69 54.14 108.69 54.14 108.69 55.26 111.27 56.8 111.79 58.33 112.31 59.02 110.67 57.56 108.62 58.6 106.39 56.55 102.37 56.55 102.37 56.55 102.37 57.05 99.91 54.75 97.55 58.51 98.94 60.31 99.76 60.95 98.77 61.37 98.2 61.29 97.39 60.65 96.45Z" fill="#EDB89A" opacity="0.8"/></g><path d="M21.66 114.65C21.66 114.65 24.97 109.41 33.44 106.01 35.6 104.7 33.34 103.95 27.6 107.53 21.86 111.1 19.39 117.06 21.66 114.65Z" fill="#FF9AC3"/><g><path d="M74.84 230.29C64.65 220.77 52.38 231.08 52.38 231.08 52.38 231.08 49.09 232.98 49.56 236.28 49.67 237.1 50.04 238.55 50.64 240.26L50.66 240.26C50.66 240.26 48.64 233.97 56.71 230.62 64.78 227.27 69.71 229.73 70.49 238.35 71.28 246.98 61.75 254.25 53.68 246.3 53.68 246.31 53.68 246.31 53.67 246.32 54.69 247.85 55.91 249.27 57.35 250.39 60.67 251.46 64.63 251.86 68.6 250.27 75.52 247.32 77.06 241.28 74.84 230.29Z" fill="#F7DE00"/></g><path d="M51.76 236.55C51.76 236.55 52.13 241.77 56.99 247.14 58.97 249.2 55.15 247.95 52.79 242.8 50.44 237.65 51.25 235.3 51.76 236.55Z" fill="#F7DE00"/><path d="M26.39 186.67C26.39 186.67 24.23 194.51 20.31 197.84 18.73 199.22 22.08 199.22 25.02 194.3 27.96 189.42 27.76 184.3 26.39 186.67Z" fill="#F7DE00"/><g><g><rect x="42.57" y="84.49" width="21.33" height="38.09" fill="#A6DEF2"/><g><linearGradient x1="-138.445" y1="119.79" x2="-138.445" y2="89.9334" gradientUnits="userSpaceOnUse" id="SVGID_1_" gradientTransform="matrix(-1 0 0 1 -85.2118 0)"><stop offset="0.00966598" stop-color="#240200"/><stop offset="0.9987" stop-color="#592418"/></linearGradient><path d="M61.85 89.93 61.85 119.79C61.85 119.79 57.99 119.78 53.23 119.78 48.47 119.78 44.61 119.79 44.61 119.79L44.61 89.93 61.85 89.93Z" fill="url(#SVGID_1_)"/></g><g><path d="M53.07 77.12C53.08 77.23 53.44 77.3 53.87 77.28 54.29 77.26 54.63 77.15 54.62 77.03L55.53 84.48 54 84.48 53.07 77.12Z" fill="#B8D661"/><path d="M56.27 90.65C56.28 90.76 55.95 90.87 55.52 90.9 55.09 90.92 54.74 90.85 54.72 90.74L54.23 86.75C54.24 86.75 54.25 86.75 54.26 86.75L53.98 84.49 55.51 84.49 55.78 86.69 56.27 90.65Z" fill="#A6DEF2"/><path d="M56.27 90.65C56.28 90.76 55.95 90.87 55.52 90.9 55.09 90.92 54.74 90.85 54.72 90.74L54.23 86.75C54.24 86.75 54.25 86.75 54.26 86.75L53.98 84.49 55.51 84.49 55.78 86.69 56.27 90.65Z" fill="#B8D661" opacity="0.6"/><path d="M53.86 77.28C53.43 77.3 53.08 77.23 53.06 77.12 53.04 77.01 53.38 76.9 53.81 76.87 54.24 76.85 54.59 76.92 54.61 77.03 54.62 77.15 54.29 77.26 53.86 77.28Z" fill="#5D9300"/></g><path d="M46.07 115.04C45.77 115.23 45.65 115.64 46.18 115.66 46.5 115.68 46.95 115.54 46.93 115.28 46.91 115.08 46.63 114.9 46.33 114.94 46.23 114.95 46.14 114.99 46.07 115.04Z" fill="#592300"/><path d="M46.99 117.62C46.41 117.53 46.15 118.11 46.6 118.36 47.32 118.75 48.02 117.95 47.26 117.68L46.99 117.62Z" fill="#592300"/><path d="M57.64 106.55C57.49 106.62 57.4 106.75 57.45 106.86 57.51 107 57.65 107.04 57.79 107.03 58.1 107.01 58.34 106.68 58.04 106.53 57.92 106.47 57.76 106.49 57.64 106.55Z" fill="#592300"/><path d="M57.38 116.56C57.32 116.58 57.26 116.62 57.2 116.65 56.64 117.02 57.06 117.69 57.86 117.58 59.3 117.38 58.31 116.18 57.38 116.56Z" fill="#592300"/><path d="M54.44 113.89C53.98 114.19 54.76 114.72 55.3 114.31 55.77 113.95 54.85 113.65 54.46 113.88 54.45 113.89 54.45 113.89 54.44 113.89Z" fill="#592300"/><path d="M48.52 91.51C48.37 91.84 49.02 92.1 49.45 91.8 50.01 91.41 49.19 90.95 48.68 91.34 48.59 91.4 48.54 91.45 48.52 91.51Z" fill="#592300"/><path d="M58.76 107.44C58.77 107.41 58.8 107.38 58.84 107.35 59.17 107.1 59.83 107.44 59.55 107.72 59.26 108.01 58.65 107.7 58.76 107.44Z" fill="#592300"/><path d="M53.55 114.88C54.15 115.16 53.17 115.75 52.72 115.3 52.39 114.95 53.13 114.69 53.55 114.88Z" fill="#592300"/><path d="M52.59 114.61C53.17 114.51 53.45 115.09 53.01 115.34 52.3 115.74 51.57 114.96 52.33 114.68L52.59 114.61Z" fill="#6B2A00"/><path d="M54.07 106.48C54.09 106.49 54.11 106.51 54.13 106.53 54.48 106.83 53.91 107.21 53.48 106.97 53.11 106.76 53.14 106.31 53.75 106.38 53.87 106.38 53.98 106.42 54.07 106.48Z" fill="#6B2A00"/><path d="M46.57 109.05C46.88 109.24 47.47 109.29 47.47 108.93 47.47 108.71 47.24 108.41 46.86 108.45 46.58 108.48 46.33 108.69 46.41 108.88 46.43 108.95 46.49 109 46.57 109.05Z" fill="#592300"/><path d="M51.39 118.5C51.31 118.9 52.18 119.03 52.5 118.71 53.01 118.19 51.79 117.78 51.46 118.32L51.39 118.5Z" fill="#592300"/><path d="M59.39 111.75C59.53 111.87 59.77 111.94 59.99 111.88 60.23 111.81 60.31 111.69 60.28 111.57 60.21 111.3 59.58 111.14 59.34 111.4 59.23 111.52 59.27 111.65 59.39 111.75Z" fill="#592300"/><path d="M46.25 107.18C46.29 107.22 46.34 107.26 46.4 107.29 46.98 107.64 47.94 107.3 47.71 106.77 47.29 105.81 45.61 106.57 46.25 107.18Z" fill="#592300"/><path d="M50.39 102.34C50.87 102.63 51.58 102.06 50.93 101.73 50.37 101.44 49.99 102.09 50.37 102.34 50.39 102.33 50.39 102.34 50.39 102.34Z" fill="#592300"/><path d="M49.46 100.64C49.95 100.72 50.28 100.25 49.82 99.99 49.2 99.64 48.6 100.23 49.2 100.55 49.29 100.6 49.37 100.63 49.46 100.64Z" fill="#592300"/><path d="M58.7 91.56C58.64 91.55 58.58 91.53 58.52 91.5 58.02 91.24 58.59 90.65 59.13 90.86 59.69 91.08 59.19 91.63 58.7 91.56Z" fill="#592300"/><path d="M56.83 91.71C57.19 91.28 58.14 91.9 57.5 92.24 57.02 92.49 56.58 92.01 56.83 91.71Z" fill="#592300"/><path d="M56.96 109.67C56.81 109.36 57.47 109.18 57.78 109.4 58.3 109.76 57.42 110.2 57.05 109.81L56.96 109.67Z" fill="#6B2A00"/><path d="M56.58 95.77C56.6 95.76 56.62 95.74 56.64 95.72 57.05 95.46 57.66 95.82 57.33 96.13 57.05 96.4 56.4 96.41 56.44 95.99 56.46 95.91 56.5 95.84 56.58 95.77Z" fill="#6B2A00"/><path d="M55.06 96.27C54.66 96.2 54.1 96.36 54.36 96.67 54.52 96.86 54.93 97.05 55.23 96.89 55.46 96.77 55.53 96.51 55.32 96.36 55.25 96.32 55.16 96.28 55.06 96.27Z" fill="#592300"/><path d="M59.79 101.82C59.58 101.44 58.72 101.61 58.68 102 58.6 102.63 59.96 102.59 59.87 102L59.79 101.82Z" fill="#592300"/><path d="M57.65 100.76C57.44 100.7 57.18 100.72 57.04 100.84 56.88 100.98 56.9 101.11 57 101.2 57.25 101.41 57.92 101.35 57.94 101.04 57.96 100.91 57.82 100.8 57.65 100.76Z" fill="#592300"/><path d="M59.78 99.56C59.72 99.54 59.65 99.52 59.57 99.51 58.81 99.39 58.21 100 58.79 100.39 59.84 101.11 60.76 99.89 59.78 99.56Z" fill="#592300"/><path d="M50.29 109.71C49.67 109.61 49.45 110.35 50.25 110.43 50.94 110.5 50.82 109.81 50.31 109.72 50.3 109.71 50.3 109.71 50.29 109.71Z" fill="#592300"/><path d="M50.04 91.97C49.55 92.06 49.59 92.58 50.19 92.66 50.98 92.77 51.09 92.05 50.33 91.97 50.21 91.95 50.12 91.95 50.04 91.97Z" fill="#592300"/><path d="M47.61 101.66C47.67 101.65 47.73 101.64 47.81 101.65 48.43 101.71 48.35 102.42 47.72 102.41 47.09 102.41 47.14 101.76 47.61 101.66Z" fill="#592300"/><path d="M60.79 114.54C60.77 115.04 59.51 114.8 59.83 114.3 60.07 113.91 60.8 114.19 60.79 114.54Z" fill="#592300"/><path d="M50.11 109.05C50.55 109.33 49.99 109.8 49.44 109.68 48.56 109.5 49.12 108.65 49.88 108.93L50.11 109.05Z" fill="#6B2A00"/><path d="M48.7 92.74C48.69 92.76 48.69 92.78 48.68 92.8 48.5 93.16 47.72 93.05 47.78 92.67 47.83 92.34 48.4 92.12 48.66 92.5 48.7 92.57 48.72 92.65 48.7 92.74Z" fill="#6B2A00"/><g opacity="0.3"><path d="M46.76 97.94C45.81 98.3 45.5 99.15 46.06 99.84L47.51 101.59C48.08 102.27 49.3 102.53 50.25 102.17L53.17 101.05C54.12 100.68 54.43 99.84 53.87 99.15L52.42 97.4C51.85 96.72 50.63 96.46 49.67 96.82L46.76 97.94Z" fill="#F3F3F4" opacity="0.3"/><path d="M48.51 112.72C49.42 113.13 50.67 112.93 51.31 112.27L52.94 110.59C53.57 109.94 53.35 109.07 52.44 108.66L49.64 107.4C48.73 106.99 47.48 107.19 46.84 107.85L45.22 109.53C44.59 110.19 44.81 111.05 45.72 111.45L48.51 112.72Z" fill="#F3F3F4" opacity="0.6"/><path d="M58.53 108.73C58.07 108.06 56.85 107.78 55.81 108.11L53.13 108.96C52.09 109.29 51.61 110.1 52.07 110.78L53.48 112.85C53.94 113.52 55.16 113.8 56.2 113.47L58.88 112.62C59.92 112.29 60.4 111.48 59.94 110.8L58.53 108.73Z" fill="#F3F3F4" opacity="0.4"/><path d="M49.94 110.56C48.95 110.88 48.56 111.71 49.05 112.42L50.32 114.24C50.82 114.95 52.01 115.26 53 114.95L56.03 113.97C57.01 113.65 57.41 112.82 56.92 112.11L55.65 110.29C55.16 109.58 53.96 109.26 52.97 109.58L49.94 110.56Z" fill="#F3F3F4" opacity="0.7"/><path d="M52.87 116.76C52.58 117.47 53.24 118.23 54.34 118.44L57.19 118.99C58.3 119.2 59.44 118.8 59.73 118.08L60.64 115.88C60.94 115.17 60.28 114.41 59.17 114.2L56.32 113.65C55.21 113.44 54.07 113.84 53.78 114.56L52.87 116.76Z" fill="#F3F3F4" opacity="0.6"/><path d="M50.57 106.51C51.65 106.42 52.43 105.72 52.29 104.94L51.95 102.94C51.82 102.16 50.83 101.6 49.75 101.68L46.42 101.94C45.34 102.03 44.57 102.73 44.7 103.51L45.04 105.51C45.17 106.29 46.16 106.85 47.24 106.77L50.57 106.51Z" fill="#F3F3F4" opacity="0.5"/><path d="M48.21 118.73C48.86 119.33 50.14 119.43 51.06 118.96L53.43 117.76C54.35 117.29 54.58 116.43 53.93 115.83L51.93 114C51.28 113.4 50 113.3 49.08 113.77L46.71 114.97C45.79 115.44 45.56 116.3 46.21 116.9L48.21 118.73Z" fill="#F3F3F4" opacity="0.6"/><path d="M51.49 105.07C51.06 105.75 51.58 106.56 52.64 106.86L55.36 107.65C56.42 107.96 57.63 107.65 58.05 106.97L59.37 104.87C59.8 104.19 59.29 103.38 58.22 103.08L55.5 102.29C54.44 101.98 53.23 102.29 52.81 102.97L51.49 105.07Z" fill="#F3F3F4" opacity="0.8"/><path d="M52.43 97.38C53.34 97.79 54.59 97.59 55.23 96.93L56.85 95.25C57.48 94.6 57.26 93.73 56.35 93.33L53.55 92.07C52.64 91.66 51.39 91.86 50.75 92.52L49.12 94.2C48.49 94.85 48.71 95.72 49.62 96.13L52.43 97.38Z" fill="#F3F3F4" opacity="0.6"/><path d="M56.58 101.92C57.49 102.33 58.74 102.13 59.37 101.47L61 99.79C61.63 99.13 61.41 98.27 60.5 97.86L57.7 96.6C56.79 96.19 55.54 96.39 54.9 97.05L53.28 98.73C52.65 99.39 52.87 100.25 53.78 100.66L56.58 101.92Z" fill="#F3F3F4" opacity="0.5"/></g></g></g><g><path d="M36.77 105.02 38.16 104.28C38.16 104.28 40.61 96.59 47.56 95.54 54.01 94.96 55.49 94.72 58.03 96.6 60.55 98.49 61.21 100.12 60.55 101.1 59.9 102.09 58.1 101.27 54.35 99.88 56.64 102.24 56.15 104.7 56.15 104.7 56.15 104.7 58.2 108.72 57.16 110.95 58.62 113 57.93 114.64 56.4 114.12 54.85 113.6 53.74 111.02 53.74 111.02 53.74 111.02 51.34 111.63 49.28 111.81 47.21 114.55 44.14 117.47 40.37 116.09 37.77 111.27 36.62 107.43 36.77 105.02Z" fill="#FBD0B4"/><path d="M42.28 116.71C41.61 116.71 40.92 116.59 40.25 116.35L40.15 116.31 40.09 116.22C37.59 111.56 36.3 107.57 36.47 105L36.48 104.85 37.91 104.08C38.27 103.13 40.93 96.26 47.51 95.25L48.48 95.16C54.17 94.66 55.7 94.53 58.18 96.37 60.64 98.19 61.6 100.02 60.79 101.25 60.13 102.24 58.6 101.77 55.36 100.56L55.25 100.52C56.63 102.43 56.49 104.2 56.43 104.64 56.73 105.25 58.34 108.71 57.47 110.89 58.21 112 58.43 113.08 58.05 113.81 57.75 114.4 57.06 114.63 56.28 114.37 54.89 113.91 53.87 112 53.56 111.35 52.92 111.51 51.07 111.91 49.42 112.06 47.08 115.16 44.68 116.71 42.28 116.71ZM40.55 115.85C43.37 116.81 46.21 115.39 49.03 111.62L49.11 111.52 49.23 111.51C51.24 111.34 53.63 110.75 53.63 110.75L53.89 110.69 53.99 110.9C53.99 110.93 55.07 113.37 56.46 113.84 56.97 114.01 57.36 113.91 57.55 113.56 57.77 113.15 57.73 112.26 56.92 111.11L56.82 110.98 56.88 110.82C57.84 108.74 55.89 104.88 55.87 104.84L55.82 104.75 55.85 104.66C55.86 104.56 56.27 102.32 54.13 100.09L53.25 99.19 55.55 100.04C57.51 100.77 58.81 101.26 59.6 101.26 60.05 101.26 60.21 101.09 60.3 100.96 60.93 100.02 59.99 98.44 57.84 96.86 55.48 95.11 54.04 95.28 48.51 95.77L47.57 95.85C40.89 96.87 38.44 104.32 38.42 104.4L38.38 104.51 37.03 105.23C36.95 107.64 38.19 111.42 40.55 115.85Z" fill="#B56A4D"/></g></g></g></g><g><linearGradient x1="48.0121" y1="44.1386" x2="45.9381" y2="52.22" gradientUnits="userSpaceOnUse" id="SVGID_2_"><stop offset="0.2206" stop-color="#FCE8D9"/><stop offset="1" stop-color="#F4C7BD"/></linearGradient><path d="M43.59 65.23C44.01 66.76 43.67 68.48 42.7 69.73 41.73 70.99 40.15 71.75 38.57 71.73 40.98 74.15 44.43 75.51 47.84 75.39 51.26 75.27 54.6 73.68 56.83 71.09 55.35 71.15 53.85 70.43 52.97 69.24 52.08 68.05 51.82 66.42 52.3 65.01L43.59 65.23Z" fill="#F9B799"/><path d="M43.72 66.16C44.72 67.44 46.33 68.23 47.96 68.24 49.59 68.25 51.21 67.48 52.22 66.21L43.72 66.16Z" opacity="0.15"/><g><path d="M19.63 37.33C18.67 36.25 17.31 35.5 15.87 35.42 14.43 35.34 12.93 36 12.15 37.22 11.55 38.15 11.41 39.3 11.36 40.4 11.23 42.95 11.58 45.76 13.4 47.55 15.22 49.33 17.98 49.62 20.52 49.74L19.63 37.33Z" fill="#F9B799"/><path d="M17.29 42.48C17.29 43.83 16.59 44.93 15.74 44.93 14.88 44.93 14.19 43.83 14.19 42.48 14.19 41.13 14.89 40.03 15.74 40.03 16.6 40.03 17.29 41.13 17.29 42.48Z" fill="#F4C7BD"/></g><g><path d="M77.48 37.33C78.44 36.25 79.8 35.5 81.24 35.42 82.68 35.34 84.18 36 84.96 37.22 85.56 38.15 85.7 39.3 85.75 40.4 85.88 42.95 85.53 45.76 83.71 47.55 81.89 49.33 79.13 49.62 76.59 49.74L77.48 37.33Z" fill="#F9B799"/><ellipse cx="81.37" cy="42.48" rx="1.55" ry="2.45" fill="#F4C7BD"/></g><path d="M19.61 43C18.95 45.78 18.45 48.69 19.06 51.48 20.21 56.74 25.02 60.41 29.9 62.68 41.08 67.87 54.46 68.05 65.77 63.16 70.55 61.1 75.29 57.75 76.73 52.74 78.01 48.29 76.42 43.57 74.84 39.21 72.08 31.59 68.97 23.49 62.34 18.81 56.66 14.8 49.06 14.04 42.38 15.96 29.08 19.81 22.63 30.27 19.61 43Z" fill="#F9B799"/><g><path d="M32.67 37.41C34.59 36.27 37.21 36.9 38.83 38.44 40.52 40.05 41.26 42.4 41.72 44.69 41.75 44.82 41.77 44.97 41.71 45.09 41.63 45.24 41.45 45.29 41.29 45.33 38.44 45.99 35.43 45.93 32.6 45.17 30.53 44.61 29.56 43.55 29.4 42.34 29.18 40.64 30.54 38.67 32.67 37.41Z" fill="#FFFFFF"/><g><path d="M38.09 43.15C39.44 41.93 39.54 39.85 38.32 38.5 37.1 37.15 35.02 37.05 33.67 38.27 32.32 39.49 32.22 41.57 33.44 42.92 34.66 44.26 36.74 44.37 38.09 43.15Z" fill="#8C7257"/><path d="M36.74 41.64C37.23 41.2 37.26 40.45 36.82 39.96 36.38 39.47 35.63 39.44 35.14 39.88 34.65 40.32 34.62 41.07 35.06 41.56 35.5 42.04 36.25 42.08 36.74 41.64Z" fill="#3A3129"/><path d="M34.29 40.01C34.05 39.99 33.81 39.98 33.57 40.03 33.23 40.11 33.08 40.28 33.03 40.62 33.02 40.71 33 40.81 33 40.9 32.99 41.31 33.27 41.95 33.63 42.17 33.84 42.3 34.1 42.15 34.3 42 34.77 41.65 35.85 40.98 36.06 40.42 36.22 40 35.93 40.11 35.5 40.09 35.1 40.06 34.7 40.04 34.29 40.01Z" fill="#FFFFFF" opacity="0.2"/><path d="M34.61 42.84C34.59 42.86 34.57 42.88 34.57 42.9 34.56 42.95 34.61 42.99 34.65 43.02 34.79 43.11 34.94 43.19 35.11 43.21 35.28 43.23 35.45 43.21 35.59 43.1 35.71 43 35.79 42.86 35.84 42.71 35.91 42.54 36.3 41.33 35.85 41.55 35.63 41.66 35.41 42.01 35.24 42.19 35.03 42.41 34.82 42.62 34.61 42.84Z" fill="#FFFFFF" opacity="0.2"/></g><g><path d="M29.35 42.34C29.01 41.51 29.21 40.53 29.52 39.68 29.89 38.83 30.45 38.08 31.11 37.46 31.44 37.14 31.8 36.86 32.18 36.6 32.61 36.32 33.08 36.11 33.57 35.96 34.56 35.7 35.59 35.74 36.54 35.98 37.48 36.26 38.36 36.71 39.1 37.34 39.82 38 40.4 38.75 40.79 39.58 41.61 41.22 41.82 42.98 41.77 44.68L41.65 44.7C41.31 43.09 40.85 41.47 39.99 40.06 39.15 38.65 37.82 37.52 36.23 37.12 35.45 36.91 34.61 36.87 33.82 37.05 33.03 37.23 32.33 37.69 31.68 38.19 31.04 38.7 30.46 39.3 30.04 40 29.62 40.7 29.34 41.51 29.44 42.32L29.35 42.34Z" fill="#5E5149"/></g><path d="M62.61 37.41C60.69 36.27 58.07 36.9 56.45 38.44 54.76 40.05 54.02 42.4 53.56 44.69 53.53 44.82 53.51 44.97 53.57 45.09 53.65 45.24 53.83 45.29 53.99 45.33 56.84 45.99 59.85 45.93 62.68 45.17 64.75 44.61 65.72 43.55 65.88 42.34 66.1 40.64 64.74 38.67 62.61 37.41Z" fill="#FFFFFF"/><g><path d="M65.82 42.33C65.92 41.52 65.64 40.7 65.22 40.01 64.79 39.31 64.22 38.7 63.58 38.2 62.93 37.7 62.23 37.24 61.44 37.06 60.65 36.88 59.82 36.92 59.03 37.13 57.44 37.53 56.1 38.66 55.27 40.07 54.41 41.48 53.95 43.09 53.61 44.71L53.49 44.69C53.44 42.99 53.64 41.23 54.47 39.59 54.86 38.76 55.44 38.02 56.16 37.35 56.9 36.71 57.78 36.26 58.72 35.99 59.67 35.76 60.7 35.71 61.69 35.97 62.18 36.12 62.65 36.33 63.08 36.61 63.46 36.87 63.82 37.15 64.15 37.47 64.82 38.09 65.38 38.85 65.74 39.69 66.06 40.54 66.26 41.52 65.91 42.35L65.82 42.33Z" fill="#5E5149"/></g></g><g><path d="M61.88 43.15C63.23 41.93 63.33 39.85 62.11 38.5 60.89 37.15 58.81 37.05 57.46 38.27 56.11 39.49 56.01 41.57 57.23 42.92 58.45 44.26 60.54 44.37 61.88 43.15Z" fill="#8C7257"/><path d="M60.53 41.64C61.02 41.2 61.05 40.45 60.61 39.96 60.17 39.47 59.42 39.44 58.93 39.88 58.44 40.32 58.41 41.07 58.85 41.56 59.3 42.04 60.05 42.08 60.53 41.64Z" fill="#3A3129"/><path d="M58.09 40.01C57.85 39.99 57.61 39.98 57.37 40.03 57.03 40.11 56.88 40.28 56.83 40.62 56.82 40.71 56.8 40.81 56.8 40.9 56.79 41.31 57.07 41.95 57.43 42.17 57.64 42.3 57.9 42.15 58.1 42 58.57 41.65 59.65 40.98 59.86 40.42 60.02 40 59.73 40.11 59.3 40.09 58.89 40.06 58.49 40.04 58.09 40.01Z" fill="#FFFFFF" opacity="0.2"/><path d="M58.4 42.84C58.38 42.86 58.36 42.88 58.36 42.9 58.35 42.95 58.4 42.99 58.44 43.02 58.58 43.11 58.73 43.19 58.9 43.21 59.07 43.23 59.24 43.21 59.38 43.1 59.5 43 59.58 42.86 59.63 42.71 59.7 42.54 60.09 41.33 59.64 41.55 59.42 41.66 59.2 42.01 59.03 42.19 58.82 42.41 58.61 42.62 58.4 42.84Z" fill="#FFFFFF" opacity="0.2"/></g><path d="M69.64 47.26C70.95 45.78 71.63 43.76 71.46 41.79 71.25 39.31 69.83 36.51 67.17 36.61 63.25 36.76 59.18 35.82 56.08 33.63 61.34 34.96 66.83 35.59 72.25 35.16 71.78 35.76 71.2 36.26 70.54 36.64 72.09 36.82 72.95 38.58 73.07 40.13 73.27 42.88 71.87 45.64 69.64 47.26Z" opacity="0.15"/><path d="M34.78 24.23C30.74 26.07 28.46 29.42 25.67 32.61 24.25 34.23 23.06 35.87 22.3 37.92 22 38.73 20.58 43.14 21.42 43.79 19.62 42.03 20.92 35.61 22.53 32.03 24.62 27.44 29.75 24.13 34.78 24.23Z" opacity="0.15"/><path d="M67.38 10.49C68.75 11.62 70.03 13.06 70.22 14.82 67.46 12.58 64.14 11.04 60.65 10.39 61.94 12.87 64.02 14.93 66.51 16.19 61.2 16.12 55.95 13.94 52.16 10.23 52.73 12.71 54.25 14.97 56.34 16.42 55.26 15.67 53.05 15.57 51.77 14.95 50.29 14.24 48.67 13.29 47.55 12.08 45.48 9.83 45.84 7.4 48.81 6.5 54.99 4.62 62.47 6.43 67.38 10.49Z" fill="#FFFFFF" opacity="0.1"/><path d="M21.16 16.84C19.56 18.45 18.57 20.69 18.59 22.96 20.32 21.3 22.23 19.82 24.27 18.57 23.88 19.72 23.26 20.78 22.45 21.69 24.42 21.51 26.43 21.04 27.98 19.81 29.65 18.48 31.32 14.9 28.52 13.96 26.21 13.19 22.69 15.3 21.16 16.84Z" fill="#FFFFFF" opacity="0.1"/><g><path d="M64.57 33.95C63.75 33.53 62.93 33.21 62.11 33.03 61.29 32.85 60.47 32.77 59.69 32.78 59.3 32.8 58.91 32.89 58.54 33 58.17 33.1 57.83 33.14 57.45 33.08 57.07 33.04 56.69 32.95 56.33 32.83 55.96 32.74 55.6 32.56 54.97 32.61L54.69 32.42C54.55 31.71 55 31.02 55.46 30.6 55.94 30.14 56.46 29.9 56.97 29.71 58.03 29.3 59.16 29.78 60.14 30.08 61.14 30.39 62.07 30.88 62.87 31.49 63.66 32.12 64.34 32.85 64.82 33.69L64.57 33.95Z" fill="#BC5D1D"/></g><path d="M45.41 48.28C44.88 48.91 44.14 49.58 44.3 50.38 44.39 50.81 44.74 51.15 45.15 51.32 45.55 51.49 46 51.52 46.44 51.51 46.98 51.5 47.54 51.44 47.98 51.13 48.68 50.65 48.89 49.7 48.85 48.85 48.79 47.42 48.14 45.74 46.98 44.86 46.41 45.99 46.24 47.28 45.41 48.28Z" fill="url(#SVGID_2_)"/><path d="M47.98 51.14C47.54 51.44 46.98 51.51 46.44 51.52 46 51.53 45.55 51.5 45.15 51.33 44.75 51.16 44.39 50.82 44.3 50.39 44.79 50.7 45.46 50.8 46.03 50.88 46.67 50.96 47.35 51.05 47.98 51.14Z" opacity="0.07"/><g><path d="M46.59 54.86C48.66 54.92 50.73 54.72 52.71 54.15 54.71 53.64 56.6 52.76 58.35 51.66L58.45 51.8C57.92 52.88 57.11 53.71 56.19 54.36 55.27 55.01 54.25 55.5 53.16 55.79 52.08 56.09 50.94 56.19 49.82 56.09 48.7 55.99 47.58 55.7 46.58 55.04L46.59 54.86Z" fill="#E08D80"/></g><g><path d="M30.47 33.71C30.95 32.88 31.63 32.14 32.42 31.51 33.22 30.9 34.14 30.42 35.15 30.1 36.13 29.79 37.25 29.32 38.32 29.73 38.83 29.92 39.35 30.16 39.83 30.62 40.3 31.04 40.74 31.73 40.6 32.44L40.32 32.63C39.68 32.58 39.33 32.76 38.96 32.85 38.6 32.97 38.22 33.06 37.84 33.1 37.47 33.16 37.12 33.11 36.75 33.02 36.38 32.9 35.99 32.81 35.6 32.8 34.82 32.79 34.01 32.87 33.18 33.05 32.36 33.23 31.54 33.55 30.72 33.97L30.47 33.71Z" fill="#BC5D1D"/></g></g><path d="M81.64 23.98C81.37 21.72 80.19 19.8 79.16 17.78 77.03 13.62 73.68 10.21 69.86 7.57 62.26 2.33 52.51-0.4 43.3 0.05 38.47 0.29 31.76 0.07 29.07 4.08 26.47 4.29 20.67 9.42 18.47 12.38 15.6 16.25 14.74 21.29 14.85 26.1 14.96 31.18 15.43 40.11 19.62 42.99 19.96 39.04 22.92 33.53 24.38 30.22 25.13 28.53 26.45 28.08 27.6 26.64 27.95 26.21 29.55 25.27 30.6 24.24 30.75 26.07 31.63 25.44 32.47 26.93 32.56 26.97 32.64 26.99 32.73 27.03 33.84 27.58 34.97 28.1 36.1 28.6 36.42 28.5 36.75 28.43 37.09 28.44 37.87 28.45 38.64 28.48 39.42 28.57 39.73 28.61 40.04 28.65 40.34 28.69 40.47 28.71 40.58 28.72 40.65 28.74 40.61 28.73 41.03 28.73 41.07 28.73 42.48 28.71 43.84 28.85 45.09 29.54 45.14 29.57 45.18 29.61 45.23 29.64 45.32 29.63 45.4 29.62 45.49 29.62 51.63 29.6 59.23 28.47 65.05 30.79 65.1 30.81 65.15 30.83 65.19 30.86 68.28 31.05 71.09 32.08 73.24 35.17 74.21 36.56 73.95 37.92 73.12 38.88 74.38 39.4 75.14 40.66 75.31 42.09 75.57 44.24 75.95 46.37 76.4 48.49 77.06 47.74 77.75 47.03 78.36 46.24 80.82 43.02 81.48 38.79 81.73 34.75 81.96 31.21 82.06 27.51 81.64 23.98Z" fill="#110802"/></g></svg>