<svg width="726.22" height="105.26" viewBox="0 0 726.22 105.26" xmlns="http://www.w3.org/2000/svg" xmlns:xlink="http://www.w3.org/1999/xlink" xml:space="preserve" overflow="hidden"><defs></defs><g><g><path d="M587.4 24.61C532.36 23.97 453.76 26.55 366.09 26.55 275.53 26.55 193.83 23.79 137.83 24.69 137.83 24.69 137.83 24.69 137.81 24.69 89.93 32 61.06 38.85 61.06 38.85 61.06 60.58 198.4 105.26 366.09 105.26 533.76 105.26 668.28 60.59 668.28 38.85L587.4 24.61Z" fill="#FF9082"/><path d="M668.29 38.85C668.29 38.85 532.35 64.9 364.68 64.9 196.99 64.9 61.07 38.85 61.07 38.85 61.07 38.85 89.93 32 137.82 24.69 137.84 24.69 137.84 24.69 137.84 24.69 192.37 16.39 271.51 7.51 360.77 7.51 449.72 7.51 530.84 16.34 587.41 24.61 637.47 31.95 668.29 38.85 668.29 38.85Z" fill="#FF9082"/><path d="M440.89 62.53C336 68.36 171.6 56.37 61.5 38.75 61.22 38.82 61.06 38.85 61.06 38.85L61.06 38.85C61.06 38.91 61.08 38.97 61.08 39.03 237.97 74.99 503.05 73.23 668.27 39.03 668.27 38.97 668.29 38.91 668.29 38.85 668.29 38.85 668.13 38.81 667.83 38.75 592.08 50.6 484.92 60.62 440.89 62.53Z" fill="#2B080E"/></g><g><path d="M90.03 2.12C64.26 7.35 9.53 22.42 1.53 48.54-7.84 79.13 27.16 84.27 70.44 100.96 73.49 102.14 74.81 97.23 71.79 96.07 15.72 74.44 11.17 74.11 7.06 65.8-8.61 34.07 56.93 14.01 91.38 7.01 94.57 6.36 93.22 1.47 90.03 2.12L90.03 2.12Z" fill="#410C14"/></g><g><path d="M636.19 0.06C661.96 5.3 716.69 20.36 724.69 46.48 734.06 77.08 699.06 82.21 655.78 98.9 652.73 100.08 651.41 95.17 654.43 94.01 710.5 72.38 715.05 72.05 719.15 63.74 734.83 32.01 669.29 11.95 634.84 4.95 631.64 4.3 633-0.59 636.19 0.06L636.19 0.06Z" fill="#410C14"/></g></g></svg>