<svg width="122.75" height="90.87" viewBox="0 0 122.75 90.87" xmlns="http://www.w3.org/2000/svg" xmlns:xlink="http://www.w3.org/1999/xlink" xml:space="preserve" overflow="hidden"><defs></defs><g><path d="M91.92 26.68 91.92 11.34C91.96 10.56 91.96 7.47 89.76 5.09 88.67 3.91 86.65 2.51 83.17 2.51L27.24 2.51C26.38 2.48 21.16 2.45 17.36 6.02 14.77 8.46 13.45 11.89 13.45 16.24L13.45 85.75C13.45 87.31 14.72 88.58 16.28 88.58 17.84 88.58 19.11 87.31 19.11 85.75L19.11 16.24C19.11 13.54 19.82 11.5 21.21 10.17 23.47 8.01 26.99 8.16 27.01 8.16 27.07 8.16 27.13 8.17 27.18 8.17L83.16 8.17C84.3 8.17 85.11 8.42 85.58 8.91 86.31 9.68 86.27 11.04 86.27 11.04 86.26 11.12 86.26 11.19 86.26 11.27L86.26 26.67C68.72 27.34 54.9 34.69 54.9 37.25L54.9 40.35C54.9 43.03 70.09 45.2 88.82 45.2 107.55 45.2 122.74 43.03 122.74 40.35L122.74 37.25C122.75 34.71 109.21 27.47 91.92 26.68Z" fill="#B6D8E1"/><g><g><defs><filter id="Adobe_OpacityMaskFilter" x="53.99" y="24.64" width="32.71" height="14.2" filterUnits="userSpaceOnUse" primitiveUnits="userSpaceOnUse"><feFlood flood-color="#FFFFFF" result="back"/><feBlend in="SourceGraphic" in2="back" mode="normal"/></filter></defs><mask maskUnits="userSpaceOnUse" x="53.99" y="24.64" width="32.71" height="14.2" id="SVGID_1_"><g filter="url(#Adobe_OpacityMaskFilter)"><defs><filter id="Adobe_OpacityMaskFilter_1_" x="53.99" y="24.64" width="32.71" height="14.2" filterUnits="userSpaceOnUse" primitiveUnits="userSpaceOnUse"><feFlood flood-color="#FFFFFF" result="back"/><feBlend in="SourceGraphic" in2="back" mode="normal"/></filter></defs><mask maskUnits="userSpaceOnUse" x="53.99" y="24.64" width="32.71" height="14.2" id="SVGID_1_"><g filter="url(#Adobe_OpacityMaskFilter_1_)"></g></mask><radialGradient cx="50.0825" cy="23.6971" r="34.7673" gradientUnits="userSpaceOnUse" id="SVGID_2_"><stop offset="0.00221549" stop-color="#FFFFFF"/><stop offset="0.1645" stop-color="#FCFCFC"/><stop offset="0.2947" stop-color="#F2F2F2"/><stop offset="0.4138" stop-color="#E1E1E1"/><stop offset="0.5262" stop-color="#C9C9C9"/><stop offset="0.6341" stop-color="#AAAAAA"/><stop offset="0.7384" stop-color="#858585"/><stop offset="0.8401" stop-color="#585858"/><stop offset="0.937" stop-color="#252525"/><stop offset="1"/></radialGradient><path d="M53.99 34.74C53.99 34.74 61.53 26.8 83.34 24.65 83.34 24.65 83.47 27.48 86.71 27.88L86.71 38.5C86.7 38.5 68.93 40.52 53.99 34.74Z" fill="url(#SVGID_2_)" mask="url(#SVGID_1_)"/></g></mask><radialGradient cx="50.0825" cy="23.6971" r="34.7673" gradientUnits="userSpaceOnUse" id="SVGID_3_"><stop offset="0.00221549" stop-color="#FFFFFF"/><stop offset="0.9102" stop-color="#FFFFFF"/><stop offset="1" stop-color="#FFFFFF"/></radialGradient><g><path d="M90.14 25.37 90.14 25.31 88.72 25.31 84.95 25.31 83.53 25.31 83.53 25.37C57.35 26.43 52.92 34.74 52.92 34.74L52.92 37.84C52.92 40.52 68.11 42.69 86.84 42.69 105.57 42.69 120.76 40.52 120.76 37.84L120.76 34.74C120.75 34.73 116.32 26.43 90.14 25.37Z" fill="#798388"/><path d="M90.14 25.37 90.14 25.31 85.81 25.31 85.81 42.67C86.15 42.67 86.49 42.67 86.84 42.67 105.57 42.67 120.76 40.5 120.76 37.82L120.76 34.72C120.75 34.73 116.32 26.43 90.14 25.37Z" fill="#636C70"/><path d="M120.75 34.73C120.75 37.41 105.56 39.58 86.83 39.58 68.1 39.58 52.91 37.41 52.91 34.73 52.91 32.05 68.1 24.1 86.83 24.1 105.56 24.1 120.75 32.06 120.75 34.73Z" fill="#9BA6AD"/></g><path d="M53.99 34.74C53.99 34.74 61.53 26.8 83.34 24.65 83.34 24.65 83.47 27.48 86.71 27.88L86.71 38.5C86.7 38.5 68.93 40.52 53.99 34.74Z" fill="url(#SVGID_3_)"/></g><g><defs><filter id="Adobe_OpacityMaskFilter_2_" x="12.13" y="1.29" width="9.49" height="82.78" filterUnits="userSpaceOnUse" primitiveUnits="userSpaceOnUse"><feFlood flood-color="#FFFFFF" result="back"/><feBlend in="SourceGraphic" in2="back" mode="normal"/></filter></defs><mask maskUnits="userSpaceOnUse" x="12.13" y="1.29" width="9.49" height="82.78" id="SVGID_4_"><g filter="url(#Adobe_OpacityMaskFilter_2_)"><defs><filter id="Adobe_OpacityMaskFilter_3_" x="12.13" y="1.29" width="9.49" height="82.78" filterUnits="userSpaceOnUse" primitiveUnits="userSpaceOnUse"><feFlood flood-color="#FFFFFF" result="back"/><feBlend in="SourceGraphic" in2="back" mode="normal"/></filter></defs><mask maskUnits="userSpaceOnUse" x="12.13" y="1.29" width="9.49" height="82.78" id="SVGID_4_"><g filter="url(#Adobe_OpacityMaskFilter_3_)"></g></mask><radialGradient cx="-0.1903" cy="11.7847" r="46.9388" gradientUnits="userSpaceOnUse" id="SVGID_5_"><stop offset="0.00221549" stop-color="#FFFFFF"/><stop offset="0.1645" stop-color="#FCFCFC"/><stop offset="0.2947" stop-color="#F2F2F2"/><stop offset="0.4138" stop-color="#E1E1E1"/><stop offset="0.5262" stop-color="#C9C9C9"/><stop offset="0.6341" stop-color="#AAAAAA"/><stop offset="0.7384" stop-color="#858585"/><stop offset="0.8401" stop-color="#585858"/><stop offset="0.937" stop-color="#252525"/><stop offset="1"/></radialGradient><path d="M21.61 1.29C21.61 1.29 21.29 1.39 20.71 1.65 20.13 1.9 19.3 2.33 18.32 3 17.35 3.67 16.24 4.6 15.25 5.9 14.26 7.2 13.43 8.88 13.05 10.85 12.65 12.8 12.83 15.02 12.83 17.36 12.85 19.69 12.87 22.15 12.88 24.7 12.9 29.79 12.92 35.22 12.93 40.65 12.91 46.08 12.89 51.51 12.88 56.6 12.83 61.69 12.79 66.44 12.76 70.51 12.7 74.58 12.65 77.97 12.61 80.35 12.56 82.73 12.53 84.08 12.53 84.08 12.53 84.08 12.5 82.72 12.45 80.35 12.41 77.97 12.36 74.58 12.3 70.51 12.26 66.44 12.22 61.69 12.18 56.6 12.16 51.51 12.14 46.08 12.13 40.65 12.15 35.22 12.17 29.79 12.18 24.7 12.2 22.15 12.22 19.7 12.24 17.36 12.25 16.19 12.26 15.06 12.28 13.96 12.32 12.86 12.37 11.77 12.61 10.76 13.04 8.73 13.96 7.01 15.02 5.72 16.08 4.42 17.24 3.52 18.24 2.87 19.25 2.23 20.11 1.84 20.7 1.61 21.29 1.37 21.61 1.29 21.61 1.29Z" fill="url(#SVGID_5_)" mask="url(#SVGID_4_)"/></g></mask><radialGradient cx="-0.1903" cy="11.7847" r="46.9388" gradientUnits="userSpaceOnUse" id="SVGID_6_"><stop offset="0.00221549" stop-color="#FFFFFF"/><stop offset="0.9102" stop-color="#FFFFFF"/><stop offset="1" stop-color="#FFFFFF"/></radialGradient><path d="M14.28 86.07C12.72 86.07 11.45 84.8 11.45 83.24L11.45 13.74C11.45 9.4 12.76 5.96 15.36 3.52 19.16-0.06 24.38-0.03 25.24 0.01L81.17 0.01C84.65 0.01 86.68 1.42 87.76 2.59 89.96 4.97 89.96 8.07 89.92 8.84L89.92 24.23C89.92 25.79 88.65 27.06 87.09 27.06 85.53 27.06 84.26 25.79 84.26 24.23L84.26 8.76C84.26 8.68 84.26 8.61 84.27 8.53L84.27 8.53C84.27 8.53 84.31 7.18 83.58 6.4 83.11 5.91 82.3 5.66 81.16 5.66L25.18 5.66C25.12 5.66 25.06 5.66 25.01 5.65 24.99 5.65 21.47 5.51 19.21 7.66 17.82 8.99 17.11 11.03 17.11 13.73L17.11 83.24C17.11 84.81 15.84 86.07 14.28 86.07Z" fill="#636C70"/><path d="M21.61 1.29C21.61 1.29 21.29 1.39 20.71 1.65 20.13 1.9 19.3 2.33 18.32 3 17.35 3.67 16.24 4.6 15.25 5.9 14.26 7.2 13.43 8.88 13.05 10.85 12.65 12.8 12.83 15.02 12.83 17.36 12.85 19.69 12.87 22.15 12.88 24.7 12.9 29.79 12.92 35.22 12.93 40.65 12.91 46.08 12.89 51.51 12.88 56.6 12.83 61.69 12.79 66.44 12.76 70.51 12.7 74.58 12.65 77.97 12.61 80.35 12.56 82.73 12.53 84.08 12.53 84.08 12.53 84.08 12.5 82.72 12.45 80.35 12.41 77.97 12.36 74.58 12.3 70.51 12.26 66.44 12.22 61.69 12.18 56.6 12.16 51.51 12.14 46.08 12.13 40.65 12.15 35.22 12.17 29.79 12.18 24.7 12.2 22.15 12.22 19.7 12.24 17.36 12.25 16.19 12.26 15.06 12.28 13.96 12.32 12.86 12.37 11.77 12.61 10.76 13.04 8.73 13.96 7.01 15.02 5.72 16.08 4.42 17.24 3.52 18.24 2.87 19.25 2.23 20.11 1.84 20.7 1.61 21.29 1.37 21.61 1.29 21.61 1.29Z" fill="url(#SVGID_6_)"/></g></g><g><defs><filter id="Adobe_OpacityMaskFilter_4_" x="0.39" y="76.28" width="7.12" height="12.82" filterUnits="userSpaceOnUse" primitiveUnits="userSpaceOnUse"><feFlood flood-color="#FFFFFF" result="back"/><feBlend in="SourceGraphic" in2="back" mode="normal"/></filter></defs><mask maskUnits="userSpaceOnUse" x="0.39" y="76.28" width="7.12" height="12.82" id="SVGID_7_"><g filter="url(#Adobe_OpacityMaskFilter_4_)"><defs><filter id="Adobe_OpacityMaskFilter_5_" x="0.39" y="76.28" width="7.12" height="12.82" filterUnits="userSpaceOnUse" primitiveUnits="userSpaceOnUse"><feFlood flood-color="#FFFFFF" result="back"/><feBlend in="SourceGraphic" in2="back" mode="normal"/></filter></defs><mask maskUnits="userSpaceOnUse" x="0.39" y="76.28" width="7.12" height="12.82" id="SVGID_7_"><g filter="url(#Adobe_OpacityMaskFilter_5_)"></g></mask><linearGradient x1="-5.9516" y1="77.8447" x2="4.7134" y2="82.73" gradientUnits="userSpaceOnUse" id="SVGID_8_"><stop offset="0.00221549" stop-color="#FFFFFF"/><stop offset="0.1645" stop-color="#FCFCFC"/><stop offset="0.2947" stop-color="#F2F2F2"/><stop offset="0.4138" stop-color="#E1E1E1"/><stop offset="0.5262" stop-color="#C9C9C9"/><stop offset="0.6341" stop-color="#AAAAAA"/><stop offset="0.7384" stop-color="#858585"/><stop offset="0.8401" stop-color="#585858"/><stop offset="0.937" stop-color="#252525"/><stop offset="1"/></linearGradient><path d="M5.37 76.28C5.37 76.28 2.62 76.28 1.1 79.45-0.41 82.62 0.48 88.46 3.64 89.08 6.81 89.7 9.57 76.28 5.37 76.28Z" fill="url(#SVGID_8_)" mask="url(#SVGID_7_)"/></g></mask><linearGradient x1="-5.9516" y1="77.8447" x2="4.7134" y2="82.73" gradientUnits="userSpaceOnUse" id="SVGID_9_"><stop offset="0.00221549" stop-color="#FFFFFF"/><stop offset="0.9102" stop-color="#FFFFFF"/><stop offset="1" stop-color="#FFFFFF"/></linearGradient><path d="M13.92 77C10.96 76.03 6.13 75.73 6.13 75.73L6.13 90.8C7.65 90.73 13.7 88.39 13.7 88.39 16.02 88.39 17.9 85.83 17.9 82.68 17.9 79.63 16.13 77.16 13.92 77Z" fill="#4F5659"/><path d="M6.13 84.17 6.13 90.8C7.65 90.73 13.7 88.39 13.7 88.39 16.02 88.39 17.9 85.83 17.9 82.68 17.9 82.53 17.88 82.4 17.87 82.25 13.9 82.75 9.91 83.1 6.13 84.17Z" fill="#33383A"/><path d="M11.15 83.3C11.15 87.48 8.66 90.87 5.58 90.87 2.5 90.87 0 87.48 0 83.3 0 79.12 2.5 75.73 5.58 75.73 8.65 75.73 11.15 79.12 11.15 83.3Z" fill="#9BA6AD"/><path d="M9.08 83.02C9.08 85.99 7.31 88.39 5.13 88.39 2.94 88.39 1.17 85.98 1.17 83.02 1.17 80.05 2.94 77.64 5.13 77.64 7.31 77.65 9.08 80.06 9.08 83.02Z" fill="#626A6E"/><path d="M8.81 83.02C8.81 85.63 7.26 87.74 5.34 87.74 3.42 87.74 1.86 85.63 1.86 83.02 1.86 80.41 3.41 78.3 5.34 78.3 7.26 78.3 8.81 80.42 8.81 83.02Z" fill="#3A3F41"/><path d="M5.37 76.28C5.37 76.28 2.62 76.28 1.1 79.45-0.41 82.62 0.48 88.46 3.64 89.08 6.81 89.7 9.57 76.28 5.37 76.28Z" fill="url(#SVGID_9_)"/></g></g></svg>