<svg width="346.62" height="134.63" viewBox="0 0 346.62 134.63" xmlns="http://www.w3.org/2000/svg" xmlns:xlink="http://www.w3.org/1999/xlink" xml:space="preserve" overflow="hidden"><defs></defs><g><g><g><g><path d="M47.27 98.34C47.27 98.93 46.93 99.42 46.51 99.42L42.86 99.42C42.44 99.42 42.1 98.94 42.1 98.34L42.1 98.34C42.1 97.75 42.44 97.26 42.86 97.26L46.51 97.26C46.93 97.27 47.27 97.75 47.27 98.34L47.27 98.34Z" fill="#18120D"/></g><g><path d="M49.5 95.76C49.5 97.18 48.34 98.34 46.92 98.34L42.6 98.34C41.18 98.34 40.02 97.19 40.02 95.76L40.02 37.37C40.02 35.95 41.17 34.79 42.6 34.79L52.08 33.5C53.5 33.5 54.66 35.94 54.66 37.37L49.5 95.76Z" fill="#18120D"/></g></g><g><g><path d="M300.76 98.34C300.76 98.93 301.1 99.42 301.52 99.42L305.17 99.42C305.59 99.42 305.93 98.94 305.93 98.34L305.93 98.34C305.93 97.75 305.59 97.26 305.17 97.26L301.52 97.26C301.1 97.27 300.76 97.75 300.76 98.34L300.76 98.34Z" fill="#18120D"/></g><g><path d="M298.53 95.76C298.53 97.18 299.68 98.34 301.11 98.34L305.43 98.34C306.85 98.34 308.01 97.19 308.01 95.76L308.01 37.37C308.01 35.95 306.86 34.79 305.43 34.79L295.95 33.5C294.52 33.5 293.37 35.94 293.37 37.37L298.53 95.76Z" fill="#18120D"/></g></g><path d="M306.12 26.96 271.46 26.96 73.41 26.96 40.51 26.96 0 55.95 3.14 63.77 34.33 63.77 312.29 63.77 343.48 63.77 346.62 55.95Z" fill="#5C4732"/><rect x="21.71" y="83.48" width="309.97" height="4.92" fill="#2E231B"/><g><g><path d="M18.93 133.56C18.93 134.15 18.59 134.64 18.17 134.64L14.52 134.64C14.1 134.64 13.76 134.16 13.76 133.56L13.76 133.56C13.76 132.97 14.1 132.48 14.52 132.48L18.17 132.48C18.59 132.48 18.93 132.96 18.93 133.56L18.93 133.56Z" fill="#241B13"/></g><g><path d="M21.17 130.98C21.17 132.4 20.01 133.56 18.59 133.56L14.27 133.56C12.85 133.56 11.69 132.41 11.69 130.98L11.69 72.58C11.69 71.16 12.84 70 14.27 70L23.75 68.71C25.17 68.71 26.33 71.15 26.33 72.58L21.17 130.98Z" fill="#241B13"/></g></g><g><g><path d="M329.09 133.56C329.09 134.15 329.43 134.64 329.85 134.64L333.5 134.64C333.92 134.64 334.26 134.16 334.26 133.56L334.26 133.56C334.26 132.97 333.92 132.48 333.5 132.48L329.85 132.48C329.44 132.48 329.09 132.96 329.09 133.56L329.09 133.56Z" fill="#241B13"/></g><g><path d="M326.86 130.98C326.86 132.4 328.01 133.56 329.44 133.56L333.76 133.56C335.18 133.56 336.34 132.41 336.34 130.98L336.34 72.58C336.34 71.16 335.19 70 333.76 70L324.28 68.71C322.85 68.71 321.7 71.15 321.7 72.58L326.86 130.98Z" fill="#241B13"/></g></g><g><rect x="5.65" y="65.45" width="336.66" height="7.12" fill="#2E231B"/></g><rect x="0" y="55.95" width="346.62" height="12.23" fill="#423224"/></g><g><g><g><path d="M36.59 15.34C35.9 15.26 35.25 15.55 34.61 15.9 33.04 16.76 31.81 18.24 31.24 19.88 30.74 21.27 30.3 23.44 31.43 24.71 32.38 25.86 34.27 26.28 35.72 26.28 38.94 26.28 41.52 24.17 41.71 21.03 41.78 19.82 41.39 18.44 40.73 17.41 40.4 16.89 39.9 16.31 39.27 16.11 38.52 15.87 37.69 15.63 36.92 15.41 36.81 15.38 36.7 15.36 36.59 15.34Z" fill="#627F44"/><g><path d="M36.61 18.13C42.69 19.88 48.31 23.76 52.18 28.76 52.53 29.21 53.14 28.58 52.8 28.14 48.85 23.03 43.05 19.07 36.84 17.28 36.3 17.13 36.06 17.98 36.61 18.13L36.61 18.13Z" fill="#85A317"/></g></g><g><path d="M49.41 8.76C47.83 8.15 45.93 9.31 45.8 11.07 45.67 12.88 46.68 14.27 48.76 14.21 51.2 14.15 51.75 10.85 50.33 9.38 50.05 9.09 49.74 8.88 49.41 8.76Z" fill="#627F44"/><g><path d="M48.08 10.23C49.64 12.13 50.27 14.67 51.23 16.9 52.55 19.98 53.83 23.07 55.2 26.13 55.43 26.65 56.19 26.2 55.96 25.69 54.46 22.34 53 18.96 51.62 15.56 50.79 13.52 50.13 11.34 48.71 9.61 48.34 9.17 47.72 9.8 48.08 10.23L48.08 10.23Z" fill="#85A317"/></g></g><g><path d="M74.13 22.01C73.65 21.03 73.45 19.88 73.61 18.73 73.86 17.22 75 16.19 76.32 15.53 78.78 14.32 81.68 14.87 83.57 16.8 84.41 17.66 84.88 18.84 84.72 20.02 84.39 22.53 81.72 24.48 79.22 24.78 76.87 25.07 75.02 23.82 74.13 22.01Z" fill="#627F44"/><g><path d="M78.03 16.01C77.3 16.94 76.29 17.61 75.44 18.43 74.3 19.52 73.22 20.69 72.14 21.84 69.98 24.15 67.83 26.45 65.42 28.5 64.99 28.87 65.61 29.49 66.04 29.12 68.45 27.07 70.6 24.77 72.76 22.46 73.84 21.3 74.94 20.16 76.06 19.05 76.9 18.22 77.91 17.57 78.65 16.63 79 16.19 78.38 15.56 78.03 16.01L78.03 16.01Z" fill="#5C7209"/></g></g><g><g><path d="M81.31 7.74C75.79 12.25 73.07 19.07 70.21 25.39 69.98 25.9 70.74 26.35 70.97 25.83 73.8 19.58 76.48 12.82 81.94 8.36 82.37 8 81.74 7.39 81.31 7.74L81.31 7.74Z" fill="#5C7209"/></g><g><path d="M82.85 11.07C82.5 10.81 82.16 10.52 81.84 10.25 81.14 9.64 80.41 8.86 80.11 7.99 79.79 6.84 79.67 5.09 81.18 4.97 83.32 4.79 90.07 11.31 86.85 12.15 85.32 12.56 84 11.92 82.85 11.07Z" fill="#83A436"/><path d="M81.58 8.07C81.32 8.22 81.3 8.69 81.57 8.86 81.64 8.9 81.72 8.92 81.82 8.92 82.42 8.89 82.24 8.02 81.76 8.03 81.68 8.03 81.63 8.05 81.58 8.07Z" fill="#C9E286"/></g></g><g><g><path d="M68.5 22.05C68.57 21.25 68.35 20.46 68.21 19.68 67.87 17.87 67.68 16.04 67.53 14.21 67.3 11.28 67.33 8.33 67.43 5.39 67.45 4.82 66.57 4.82 66.55 5.39 66.45 8.33 66.45 11.27 66.65 14.21 66.72 15.31 66.84 16.41 66.99 17.51 67.19 18.96 67.76 20.59 67.62 22.05 67.57 22.62 68.45 22.61 68.5 22.05L68.5 22.05Z" fill="#6A8913"/></g><path d="M67.31 3.29C66.93 3.13 66.57 2.9 66.23 2.58 65.74 2.11 64.91 1.07 65.91 0.64 66.81 0.25 68.39 1.41 69.36 1.5 70.97 1.66 72.46 1.05 73.85 0.34 74.26 0.13 74.74-0.06 75.23 0.04 75.88 0.17 75.71 0.8 75.38 1.23 74.96 1.78 73.97 2.03 73.34 2.27 71.51 3.08 69.19 4.07 67.31 3.29Z" fill="#627F44"/></g><g><g><path d="M69.57 7.37C70.64 9.58 69.94 13.06 69.83 15.44 69.71 18.14 69.71 20.8 70.34 23.44 70.47 23.99 71.32 23.76 71.19 23.21 70.39 19.86 70.68 16.47 70.81 13.06 70.88 11.03 71.24 8.81 70.33 6.93 70.09 6.42 69.33 6.86 69.57 7.37L69.57 7.37Z" fill="#5C7209"/></g><g><path d="M70.76 3.35C69.41 2.29 67.74 1.6 65.98 2.02 63.71 2.56 64.09 5.34 64.47 7.09 64.91 8.9 65.1 11.01 67.31 11.56 69.27 12.04 71.46 11.09 72.86 9.87 74.25 8.67 72.92 5.54 71.95 4.47 71.58 4.07 71.19 3.69 70.76 3.35Z" fill="#83A436"/><path d="M68.87 6.02C68.6 5.86 68.22 5.84 68.12 6.19 67.99 6.68 68.78 7 69.09 6.62 69.27 6.41 69.11 6.16 68.87 6.02Z" fill="#C9E286"/></g></g><g><g><path d="M54.88 8.51C58.83 13.67 60.61 20.19 64.21 25.53 64.53 26 65.29 25.56 64.97 25.09 61.37 19.75 59.59 13.23 55.64 8.07 55.3 7.63 54.54 8.06 54.88 8.51L54.88 8.51Z" fill="#5C7209"/></g><g><path d="M49.57 3.18C48.74 4.3 48.34 5.68 48.45 7.08 48.64 8.89 49.46 11 51.04 12.09 53.75 14.02 57.85 14.38 60.24 11.91 62.95 9.26 61.88 4 59.48 1.53 58.34 0.38 56.39-0.1 54.82 0.02 52.82 0.18 50.71 1.65 49.57 3.18Z" fill="#8DB431"/><path d="M54.24 4.56C54.02 4.63 53.84 4.8 53.94 5.04 54.12 5.46 54.91 5.21 54.85 4.8 54.82 4.53 54.49 4.48 54.24 4.56Z" fill="#C9E286"/></g></g><g><g><path d="M74.36 14.23C72.68 17.42 70.62 21.87 71.09 25.56 71.16 26.11 72.04 26.12 71.97 25.56 71.53 22.09 73.55 17.67 75.12 14.68 75.39 14.17 74.63 13.72 74.36 14.23L74.36 14.23Z" fill="#6A8913"/></g><g><path d="M74.5 12.13C73.5 11.98 72.78 12.88 72.67 13.79 72.48 15.42 73.17 16.87 74.44 17.89 75.87 19.06 76.99 17.29 77.23 16.07 77.38 15.3 77.36 14.42 76.98 13.7 76.62 13.02 75.45 12.38 74.71 12.17 74.63 12.15 74.56 12.14 74.5 12.13Z" fill="#83A436"/><path d="M75.19 13.59C75.62 13.99 74.58 14.68 74.48 13.98 74.42 13.6 74.9 13.32 75.19 13.59Z" fill="#C9E286"/></g></g><g><g><path d="M70.64 25.43C70.67 25.42 70.7 25.41 70.73 25.4 70.62 25.13 70.5 24.86 70.39 24.6 70.5 24.62 70.61 24.64 70.71 24.66 70.74 24.89 70.77 25.12 70.8 25.35 73.04 23.6 75.06 21.67 77.41 20.06 79.92 18.34 82.56 16.81 85.3 15.5 85.81 15.26 85.37 14.5 84.86 14.74 82.11 16.06 79.5 17.6 76.97 19.3 74.55 20.93 72.48 22.94 70.18 24.73 69.94 24.91 70.06 25.28 70.27 25.42 70.28 25.42 70.28 25.43 70.29 25.43 70.41 25.51 70.61 25.51 70.73 25.43 70.76 25.41 70.8 25.39 70.83 25.36 71.23 25.1 70.99 24.4 70.49 24.56 70.46 24.57 70.43 24.58 70.4 24.59 69.86 24.76 70.1 25.61 70.64 25.43L70.64 25.43Z" fill="#85A317"/></g><g><path d="M85.33 11.84C85.2 11.89 85.07 11.94 84.94 11.99 84.25 12.21 83.54 12.38 83.06 12.96 82.48 13.68 82.58 14.59 82.86 15.41 83.55 17.36 85.12 18.95 86.4 20.55 87.22 21.58 88.92 23.87 90.62 23.63 91.88 23.45 92.45 20.01 92.64 18.92 93.08 16.81 92.64 14.27 91.13 12.64 89.98 11.47 88.71 10.71 87.01 11.14 86.41 11.29 85.9 11.61 85.33 11.84Z" fill="#9DC347"/><path d="M86.17 14.34C85.86 14.57 85.76 15.15 86.22 15.35 86.83 15.62 87.23 14.79 86.79 14.4 86.56 14.2 86.33 14.22 86.17 14.34Z" fill="#C9E286"/></g></g><g><path d="M39 4.67C35.09 5.27 33.83 9.08 34.02 12.45 34.15 15.23 36.73 18.12 39.38 15.71 41.52 13.72 42.34 11.36 42.03 8.53 41.9 7.51 41.58 4.67 40 4.73L39 4.67Z" fill="#627F44"/><g><path d="M37.3 7.52C40.02 10.29 42.61 13.18 45.25 16.03 48.18 19.19 51.66 22.37 53.88 26.08 54.17 26.57 54.93 26.12 54.64 25.64 52.51 22.08 49.23 19.03 46.42 16 43.59 12.96 40.84 9.86 37.92 6.9 37.52 6.49 36.9 7.11 37.3 7.52L37.3 7.52Z" fill="#5C7209"/></g></g><g><g><path d="M36.42 4.86C37.7 6.18 38.72 7.96 39.78 9.45 41.41 11.73 42.98 14.05 44.48 16.42 47.28 20.84 49.95 25.34 53.12 29.52 53.46 29.97 54.22 29.53 53.88 29.08 50.55 24.69 47.74 19.93 44.79 15.27 43.29 12.9 41.68 10.6 40.05 8.32 39.1 6.99 38.19 5.42 37.04 4.24 36.64 3.83 36.02 4.46 36.42 4.86L36.42 4.86Z" fill="#5C7209"/></g><g><path d="M34.01 0.93C33.17 0.9 32.32 1.02 31.56 1.29 30.32 1.74 29.21 2.54 28.53 3.64 27.21 5.81 28.15 9.01 28.59 11.37 28.78 12.76 29.54 15.17 31.55 14.39 32.62 13.97 33.63 12.7 34.51 11.98 35.52 11.14 36.65 10.23 37.47 9.14 38.72 7.49 39.16 5.08 38.17 3.22 37.39 1.73 35.72 1.01 34.01 0.93Z" fill="#8DB431"/><path d="M35.21 5.84C34.93 5.82 34.61 5.96 34.58 6.25 34.51 6.94 35.52 6.82 35.62 6.31 35.68 6 35.46 5.85 35.21 5.84Z" fill="#C9E286"/></g></g><g><g><path d="M43.47 13.28C46.52 17.88 48.65 22.98 50.55 28.14 50.74 28.67 51.59 28.44 51.4 27.91 49.48 22.68 47.32 17.5 44.23 12.84 43.92 12.37 43.16 12.81 43.47 13.28L43.47 13.28Z" fill="#6A8913"/></g><g><path d="M46.43 13.6C46.19 12.65 45.41 11.73 44.56 11.21 44.15 10.96 43.91 10.88 43.59 10.47 43.33 10.14 43.15 9.78 42.79 9.53 42.24 9.16 41.54 9.12 40.9 9.22 39.58 9.43 38.31 10.26 37.48 11.25 35.78 13.3 35.65 16.86 37.73 18.79 41.27 22.11 47.44 17.83 46.43 13.6Z" fill="#9DC347"/><path d="M42.84 12.7C42.52 12.7 42.02 13 42.21 13.36 42.59 14.08 43.85 13.12 42.9 12.7L42.84 12.7Z" fill="#C9E286"/></g></g><g><path d="M79.43 23.63 75.69 24.83C75.36 24.79 68.65 25.85 59.58 25.92 50.52 25.85 43.8 24.79 43.47 24.83L39.73 23.63C39.73 23.63 31.27 33.31 38.15 38.77 49.48 47.76 69.59 47.82 81 38.77 87.89 33.31 79.43 23.63 79.43 23.63Z" fill="#B2BA9F"/><g opacity="0.5"><path d="M47.29 30.65C47.29 30.65 47.31 30.71 47.35 30.81 47.39 30.91 47.46 31.07 47.52 31.26 47.58 31.45 47.66 31.68 47.71 31.94 47.75 32.21 47.9 32.47 47.99 32.73 48.09 32.99 48.18 33.25 48.27 33.53 48.39 33.83 48.51 34.14 48.6 34.46 48.68 34.78 48.81 35.1 48.92 35.44 49.04 35.77 49.09 36.11 49.22 36.45 49.33 36.79 49.43 37.13 49.5 37.48 49.58 37.83 49.7 38.16 49.77 38.5 49.85 38.84 49.89 39.18 49.98 39.5 50.05 39.82 50.11 40.13 50.15 40.44 50.22 41.05 50.33 41.55 50.35 41.96 50.37 42.15 50.36 42.33 50.37 42.44 50.37 42.55 50.38 42.62 50.38 42.62 50.38 42.62 50.33 42.6 50.22 42.56 50.12 42.52 49.96 42.47 49.78 42.37 49.6 42.28 49.37 42.17 49.14 42.02 48.9 41.88 48.63 41.71 48.39 41.48 48.14 41.26 47.88 41.01 47.62 40.73 47.35 40.46 47.13 40.13 46.91 39.78 46.7 39.43 46.45 39.08 46.29 38.67 46.12 38.27 45.97 37.86 45.83 37.44 45.68 37.03 45.64 36.57 45.57 36.14 45.5 35.71 45.46 35.28 45.5 34.85 45.52 34.42 45.57 34.02 45.62 33.64 45.71 33.23 45.84 32.84 45.96 32.51 46.09 32.18 46.21 31.88 46.38 31.68 46.53 31.46 46.69 31.28 46.82 31.13 46.94 30.98 47.08 30.87 47.15 30.79 47.25 30.7 47.29 30.65 47.29 30.65Z" fill="#959979"/></g><g opacity="0.5"><path d="M53 31.83C53 31.83 53.04 31.88 53.1 31.97 53.16 32.06 53.28 32.19 53.38 32.35 53.6 32.68 53.88 33.16 54.14 33.74 54.27 34.03 54.39 34.35 54.51 34.67 54.66 34.98 54.8 35.3 54.92 35.62 55.05 35.95 55.16 36.29 55.25 36.63 55.36 36.98 55.4 37.32 55.51 37.68 55.61 38.04 55.69 38.41 55.76 38.77 55.83 39.13 55.87 39.5 55.91 39.86 55.95 40.22 55.94 40.58 55.98 40.91 56.01 41.24 56.02 41.57 56.02 41.87 56.01 42.48 55.96 43.03 55.89 43.43 55.87 43.62 55.82 43.79 55.8 43.9 55.78 44.01 55.76 44.07 55.76 44.07 55.76 44.07 55.71 44.04 55.62 43.98 55.53 43.92 55.39 43.83 55.24 43.7 54.93 43.45 54.53 43.07 54.1 42.58 53.89 42.33 53.67 42.05 53.46 41.75 53.24 41.45 53.08 41.11 52.91 40.76 52.75 40.41 52.59 40.04 52.45 39.65 52.31 39.27 52.18 38.87 52.07 38.47 51.95 38.08 51.93 37.63 51.88 37.21 51.84 36.79 51.82 36.37 51.81 35.97 51.8 35.57 51.82 35.18 51.85 34.82 51.91 34.47 52 34.15 52.08 33.84 52.26 33.24 52.47 32.73 52.65 32.37 52.73 32.19 52.82 32.05 52.87 31.95 52.97 31.89 53 31.83 53 31.83Z" fill="#959979"/></g><g opacity="0.5"><path d="M59.95 28.88C59.95 28.88 60.14 29.09 60.41 29.48 60.54 29.67 60.71 29.9 60.87 30.18 61.04 30.44 61.18 30.78 61.33 31.15 61.48 31.51 61.63 31.93 61.76 32.35 61.88 32.77 61.99 33.22 62.08 33.68 62.27 34.61 62.35 35.59 62.39 36.58 62.39 37.07 62.39 37.56 62.36 38.04 62.34 38.52 62.28 38.99 62.22 39.45 62.1 40.37 61.91 41.21 61.7 41.94 61.49 42.67 61.26 43.27 61.06 43.7 60.87 44.13 60.72 44.38 60.72 44.38 60.72 44.38 60.11 43.43 59.66 41.96 59.19 40.5 58.91 38.56 58.87 36.64 58.88 36.16 58.86 35.69 58.88 35.22 58.89 34.75 58.94 34.29 58.97 33.84 59.01 33.4 59.06 32.96 59.13 32.55 59.19 32.15 59.25 31.78 59.32 31.42 59.39 31.06 59.49 30.73 59.54 30.41 59.6 30.1 59.67 29.82 59.73 29.6 59.84 29.15 59.95 28.88 59.95 28.88Z" fill="#959979"/></g><g opacity="0.5"><path d="M67.18 30.95C67.18 30.95 67.22 31 67.29 31.09 67.36 31.18 67.48 31.31 67.59 31.47 67.7 31.64 67.86 31.84 67.99 32.08 68.14 32.3 68.26 32.61 68.38 32.93 68.5 33.25 68.62 33.62 68.71 34.01 68.79 34.38 68.86 34.77 68.9 35.18 68.96 35.59 68.98 36.01 68.96 36.44 68.95 36.87 68.95 37.3 68.89 37.73 68.83 38.16 68.76 38.58 68.66 38.99 68.58 39.41 68.44 39.8 68.31 40.19 68.05 40.96 67.69 41.65 67.32 42.21 66.97 42.78 66.56 43.21 66.28 43.5 66.14 43.65 66 43.75 65.92 43.83 65.83 43.9 65.79 43.94 65.79 43.94 65.79 43.94 65.77 43.88 65.74 43.77 65.71 43.66 65.65 43.49 65.61 43.3 65.51 42.9 65.44 42.36 65.35 41.72 65.28 41.08 65.25 40.37 65.25 39.62 65.25 39.24 65.28 38.86 65.3 38.47 65.32 38.08 65.36 37.69 65.41 37.3 65.46 36.91 65.5 36.53 65.58 36.15 65.65 35.77 65.73 35.4 65.8 35.04 65.88 34.68 65.97 34.33 66.07 33.99 66.16 33.67 66.25 33.37 66.35 33.08 66.44 32.79 66.58 32.52 66.65 32.25 66.72 31.99 66.82 31.76 66.89 31.57 66.96 31.38 67.05 31.23 67.09 31.12 67.16 31 67.18 30.95 67.18 30.95Z" fill="#959979"/></g><g opacity="0.5"><path d="M75.2 26.82C75.33 26.85 75.44 26.97 75.55 27.04 75.57 27.06 75.6 27.08 75.62 27.09L75.65 27.1C75.65 27.09 75.67 27.12 75.65 27.08 75.62 27.04 75.56 27 75.5 27 75.39 27.01 75.31 27.02 75.24 27.12 75.19 27.25 75.21 27.15 75.2 27.17L75.16 27.12 75.86 27.07C76.23 27.68 76.52 28.31 76.79 28.96 77.02 29.61 77.19 30.28 77.35 30.95 77.46 31.63 77.53 32.32 77.57 33.01 77.57 33.7 77.53 34.4 77.47 35.09 77.35 35.78 77.22 36.47 77.03 37.14 76.81 37.81 76.54 38.46 76.24 39.09 75.88 39.7 75.51 40.3 75.08 40.85 74.6 41.38 74.1 41.89 73.51 42.32 73.45 41.56 73.48 40.89 73.54 40.23 73.55 39.56 73.59 38.93 73.66 38.31 73.7 37.69 73.73 37.07 73.82 36.48 73.85 35.87 73.9 35.27 73.99 34.68 74.02 34.08 74.09 33.48 74.18 32.88 74.22 32.27 74.31 31.66 74.4 31.04 74.47 30.42 74.57 29.79 74.71 29.14 74.82 28.5 74.95 27.84 75.17 27.16L75.87 27.11 75.82 27.24 75.77 27.37C75.69 27.49 75.6 27.57 75.46 27.54 75.39 27.53 75.31 27.48 75.27 27.43 75.23 27.38 75.25 27.4 75.24 27.38L75.22 27.31C75.21 27.27 75.22 27.24 75.21 27.2 75.21 27.07 75.23 26.96 75.2 26.82Z" fill="#959979"/></g><g opacity="0.5"><path d="M81.06 28.74C81.06 28.74 81.1 28.77 81.18 28.83 81.25 28.89 81.38 28.98 81.49 29.1 81.61 29.22 81.77 29.36 81.9 29.53 82.06 29.68 82.18 29.93 82.31 30.19 82.43 30.45 82.56 30.77 82.65 31.09 82.72 31.39 82.79 31.71 82.83 32.05 82.89 32.39 82.89 32.73 82.86 33.08 82.84 33.43 82.82 33.79 82.74 34.13 82.66 34.47 82.56 34.81 82.45 35.13 82.36 35.46 82.17 35.76 82.02 36.05 81.85 36.34 81.7 36.61 81.49 36.85 81.29 37.09 81.08 37.31 80.88 37.5 80.69 37.69 80.47 37.85 80.27 37.97 80.08 38.1 79.88 38.2 79.73 38.27 79.58 38.35 79.44 38.39 79.35 38.43 79.26 38.46 79.21 38.48 79.21 38.48 79.21 38.48 79.2 38.43 79.18 38.33 79.17 38.24 79.13 38.09 79.12 37.92 79.07 37.57 79.07 37.16 79.02 36.65 79.01 36.4 79.01 36.15 79.02 35.89 79.04 35.63 79.02 35.35 79.05 35.08 79.07 34.8 79.12 34.53 79.15 34.25 79.18 33.97 79.23 33.69 79.3 33.41 79.37 33.14 79.41 32.86 79.49 32.59 79.56 32.32 79.66 32.06 79.73 31.8 79.81 31.54 79.91 31.29 80.01 31.05 80.1 30.83 80.19 30.63 80.29 30.41 80.38 30.2 80.53 30.01 80.59 29.78 80.65 29.57 80.74 29.38 80.81 29.23 80.87 29.08 80.96 28.95 81 28.86 81.04 28.78 81.06 28.74 81.06 28.74Z" fill="#959979"/></g><g opacity="0.5"><path d="M40.66 29.18C40.66 29.18 40.69 29.23 40.75 29.31 40.8 29.4 40.9 29.53 40.98 29.69 41.16 30.01 41.38 30.48 41.58 31.02 41.98 32.1 42.25 33.44 42.44 34.62 42.53 35.19 42.62 35.77 42.71 36.31 42.81 36.83 42.89 37.35 43.02 37.83 43.07 38.08 43.15 38.3 43.21 38.52 43.27 38.74 43.34 38.94 43.4 39.1 43.47 39.26 43.5 39.42 43.54 39.51 43.57 39.61 43.59 39.67 43.59 39.67 43.59 39.67 43.53 39.67 43.43 39.67 43.33 39.67 43.17 39.68 42.98 39.65 42.79 39.63 42.54 39.61 42.3 39.51 42.05 39.42 41.74 39.33 41.47 39.15 41.18 38.98 40.88 38.77 40.61 38.49 40.32 38.23 40.08 37.9 39.85 37.55 39.72 37.38 39.65 37.19 39.55 37 39.45 36.81 39.36 36.62 39.3 36.42 39.15 36.02 39.04 35.61 38.98 35.2 38.72 33.55 39.06 31.99 39.56 30.93 39.81 30.39 40.08 29.96 40.29 29.66 40.39 29.51 40.5 29.39 40.56 29.31 40.63 29.22 40.66 29.18 40.66 29.18Z" fill="#959979"/></g></g><g><path d="M62.08 29.2C60.75 29.13 59.46 28.66 58.46 27.71 57.36 26.67 56.52 25.36 55.95 23.99 55.26 22.48 55.26 20.67 55.63 19.1 56.07 17.23 57.77 16.2 59.48 15.3 62.51 13.79 67.49 15 68.87 18.2 70.07 20.98 69 25.26 66.92 27.43 65.64 28.65 63.83 29.28 62.08 29.2Z" fill="#83A436"/><path d="M62.46 18.75C62.01 18.94 62.16 19.65 62.72 19.51 63.3 19.37 63.06 18.53 62.49 18.73 62.48 18.74 62.47 18.75 62.46 18.75Z" fill="#C9E286"/></g><g><g><path d="M70.14 25.81C71.67 25.89 73.24 25.35 74.76 25.17 77.24 24.88 79.76 25 82.25 25.15 82.82 25.18 82.81 24.31 82.25 24.27 79.75 24.12 77.26 24.08 74.76 24.29 73.23 24.42 71.68 25.01 70.14 24.93 69.58 24.9 69.58 25.78 70.14 25.81L70.14 25.81Z" fill="#6A8913"/></g><g><path d="M79.75 31.26C79.09 29.63 79.55 27.41 80.23 25.91 81.05 24.1 82.37 22.89 84.52 22.77 88.18 22.59 90.7 26.21 91.08 29.47 91.4 32.25 88.94 33.57 86.54 34.42 84.1 35.22 81.28 33.81 80.01 31.77 79.91 31.61 79.82 31.44 79.75 31.26Z" fill="#8DB431"/><path d="M84.93 25.86C84.59 25.79 84.19 25.93 84.26 26.4 84.34 26.87 85.32 26.81 85.4 26.38 85.45 26.11 85.21 25.91 84.93 25.86Z" fill="#C9E286"/></g></g><g><path d="M71.66 22.9C64.66 20.37 64.22 33.28 71.53 32.07 73.86 31.65 75 29.72 74.87 27.67 74.81 26.28 74.24 23.93 72.79 23.26L71.66 22.9Z" fill="#9DC347"/><path d="M70.62 24.62C70.36 24.71 70.11 24.91 70.11 25.11 70.11 25.41 70.4 25.57 70.68 25.56 71.15 25.53 71.56 24.86 71.05 24.61 70.94 24.56 70.78 24.57 70.62 24.62Z" fill="#C9E286"/></g><g><g><path d="M37.61 26.34C37.65 26.63 37.66 26.43 37.98 26.24 38.39 26 38.84 25.8 39.27 25.59 40.25 25.12 41.25 24.7 42.26 24.29 45.09 23.15 48.42 22.88 51.43 23.22 51.99 23.28 51.99 22.4 51.43 22.34 48.04 21.95 44.47 22.43 41.31 23.73 40.56 24.04 36.6 25.23 36.74 26.34 36.8 26.89 37.68 26.9 37.61 26.34L37.61 26.34Z" fill="#5C7209"/></g><g><path d="M40.36 25.11C40.05 24.91 39.72 24.73 39.36 24.59 37.05 23.66 34.19 23.73 31.93 24.77 27.01 27.06 28.84 34.06 33.19 35.87 37.29 37.56 42.65 36.11 43.09 31.34 43.25 28.92 42.42 26.45 40.36 25.11Z" fill="#83A436"/><path d="M36.45 27.01C36.25 26.93 35.97 27.04 35.91 27.36 35.8 27.98 36.31 28.16 36.58 27.58 36.71 27.27 36.61 27.08 36.45 27.01Z" fill="#C9E286"/></g></g><g><path d="M51.32 21.07C50.85 21.01 50.4 21.01 50.06 21.13 49.45 21.34 48.73 21.73 48.27 22.18 45.81 24.41 46 28.28 48.77 30.14 51.04 31.71 55.52 31.71 56.65 28.87 57.34 27.06 57.03 24.95 55.77 23.44 55.11 22.58 54.12 21.85 53.06 21.49 52.61 21.34 51.95 21.15 51.32 21.07Z" fill="#8DB431"/><path d="M51.23 23.73C51.15 23.82 51.13 23.97 51.26 24.14 51.56 24.51 52.09 24.24 51.79 23.82 51.78 23.81 51.78 23.81 51.77 23.8 51.61 23.58 51.35 23.6 51.23 23.73Z" fill="#C9E286"/></g></g></g><g><g><g><path d="M149.53 22.11C149.42 21.85 149.35 21.58 149.35 21.28 149.33 20.08 150.04 20.31 150.94 20.21 151.95 20.11 152.27 19.03 153.1 18.52 154.12 17.94 154.68 18.43 155.53 19.01 156.46 19.62 157.06 19.29 158.04 19.12 159.02 18.95 159.84 18.96 160.74 19.35 161.67 19.74 162.27 19.75 163.25 19.57 164.19 19.4 164.9 19.78 165.26 20.72 165.98 22.72 163.93 24.3 162.27 24.91 159.9 25.78 157.6 26.12 155.1 25.82 153.68 25.65 152.52 25.11 151.49 24.19 150.86 23.66 150.15 23.35 149.64 22.74L149.53 22.11Z" fill="#B7D442"/></g><path d="M152.21 22.03C152.21 22.12 151.88 22.19 151.47 22.19 151.07 22.18 150.74 22.1 150.74 22.01 150.74 21.92 151.07 21.85 151.47 21.85 151.89 21.86 152.21 21.93 152.21 22.03Z" fill="#99B032"/><g><g><path d="M158.8 22.64C158.65 22.57 158.51 22.45 158.4 22.27 158.02 21.68 157.92 20.71 157.84 20.02 157.53 17.83 156.81 15.59 156.26 13.45 156.03 12.51 155.71 11.47 156.94 11.27 157.37 11.18 157.92 11.28 158.37 11.24 158.89 11.18 159.4 11.08 159.93 11.06 160.38 11.05 160.83 11.25 161.35 11.19 161.92 11.16 162.48 10.89 163.04 10.82 163.6 10.75 164.05 10.95 164.59 11.01 165.05 11.08 165.51 10.91 165.9 11 167.14 11.29 166.9 12.36 166.46 13.23 165.87 14.41 165.76 15.5 164.94 16.56 163.51 18.48 161.89 20.19 160.44 22.03 160.06 22.5 159.35 22.9 158.8 22.64Z" fill="#DCBF36"/></g><g><path d="M158.58 22.69C158.43 22.62 158.29 22.5 158.18 22.32 157.8 21.73 157.7 20.76 157.62 20.07 157.31 17.88 156.59 15.64 156.05 13.5 155.82 12.56 155.5 11.52 156.73 11.32 157.17 11.23 157.72 11.33 158.16 11.28 158.68 11.22 159.19 11.12 159.72 11.1 160.17 11.09 160.62 11.29 161.14 11.23 161.71 11.2 162.27 10.93 162.83 10.86 163.39 10.79 163.84 10.99 164.38 11.05 164.84 11.12 165.3 10.95 165.69 11.04 166.93 11.33 166.69 12.4 166.25 13.26 165.66 14.44 165.55 15.53 164.73 16.59 163.3 18.51 161.67 20.22 160.23 22.06 159.84 22.54 159.13 22.94 158.58 22.69Z" fill="#F1D449"/></g><g><path d="M157.66 12.65C157.7 12.84 157.52 13.03 157.25 13.08 156.99 13.13 156.75 13.02 156.71 12.84 156.67 12.65 156.86 12.46 157.12 12.41 157.38 12.36 157.62 12.47 157.66 12.65Z" fill="#DCBF36"/></g><g><path d="M158.78 12.92C158.79 13 158.65 13.09 158.45 13.13 158.25 13.17 158.08 13.14 158.07 13.06 158.06 12.98 158.2 12.89 158.4 12.85 158.59 12.82 158.76 12.85 158.78 12.92Z" fill="#DCBF36"/></g><g><path d="M158.55 13.66C158.57 13.78 158.38 13.92 158.12 13.97 157.86 14.02 157.63 13.97 157.6 13.85 157.58 13.73 157.77 13.59 158.03 13.54 158.3 13.49 158.53 13.54 158.55 13.66Z" fill="#DCBF36"/></g><g><path d="M158.23 14.5C158.25 14.6 158.01 14.73 157.69 14.79 157.37 14.85 157.1 14.82 157.08 14.72 157.06 14.62 157.3 14.49 157.62 14.43 157.93 14.38 158.21 14.41 158.23 14.5Z" fill="#DCBF36"/></g><g><path d="M157.26 13.6C157.27 13.65 157.19 13.7 157.09 13.72 156.98 13.74 156.89 13.72 156.88 13.67 156.87 13.62 156.95 13.57 157.06 13.55 157.16 13.54 157.25 13.56 157.26 13.6Z" fill="#DCBF36"/></g><g><path d="M159.93 12.15C159.96 12.3 159.7 12.49 159.35 12.55 159 12.62 158.69 12.55 158.67 12.39 158.64 12.24 158.9 12.05 159.25 11.99 159.59 11.92 159.9 11.99 159.93 12.15Z" fill="#DCBF36"/></g><g><path d="M159.45 13.01C159.46 13.05 159.37 13.1 159.26 13.12 159.15 13.14 159.04 13.13 159.04 13.09 159.03 13.05 159.12 13 159.23 12.98 159.34 12.95 159.44 12.97 159.45 13.01Z" fill="#DCBF36"/></g><g><path d="M160.33 13.56C160.37 13.74 160.11 13.95 159.75 14.02 159.39 14.09 159.08 14 159.04 13.82 159 13.64 159.26 13.43 159.62 13.36 159.97 13.29 160.29 13.38 160.33 13.56Z" fill="#DCBF36"/></g><g><path d="M159.64 14.54C159.65 14.57 159.55 14.62 159.43 14.64 159.31 14.66 159.2 14.66 159.2 14.63 159.19 14.6 159.29 14.55 159.41 14.53 159.53 14.5 159.63 14.5 159.64 14.54Z" fill="#DCBF36"/></g><g><path d="M159.69 15.33C159.71 15.44 159.48 15.58 159.16 15.64 158.85 15.7 158.58 15.66 158.55 15.55 158.53 15.44 158.76 15.3 159.08 15.24 159.39 15.18 159.66 15.22 159.69 15.33Z" fill="#DCBF36"/></g><g><path d="M158.74 16.51C158.75 16.54 158.68 16.58 158.59 16.6 158.5 16.62 158.43 16.61 158.42 16.58 158.41 16.55 158.48 16.51 158.57 16.49 158.66 16.47 158.74 16.48 158.74 16.51Z" fill="#DCBF36"/></g><g><path d="M161.06 15.37C161.07 15.42 160.97 15.48 160.84 15.51 160.71 15.54 160.59 15.52 160.58 15.47 160.57 15.42 160.67 15.36 160.8 15.33 160.94 15.3 161.05 15.32 161.06 15.37Z" fill="#DCBF36"/></g><g><path d="M162.87 12.98C162.9 13.12 162.7 13.27 162.43 13.32 162.16 13.37 161.92 13.3 161.89 13.17 161.86 13.03 162.06 12.88 162.33 12.83 162.6 12.77 162.84 12.84 162.87 12.98Z" fill="#DCBF36"/></g><g><path d="M163.78 12.44C163.79 12.49 163.71 12.55 163.61 12.57 163.51 12.59 163.41 12.57 163.4 12.51 163.39 12.46 163.47 12.4 163.57 12.38 163.68 12.37 163.77 12.39 163.78 12.44Z" fill="#DCBF36"/></g><g><path d="M163.61 14.63C163.62 14.71 163.44 14.81 163.19 14.86 162.94 14.91 162.73 14.89 162.72 14.81 162.7 14.73 162.89 14.63 163.14 14.59 163.38 14.53 163.6 14.55 163.61 14.63Z" fill="#DCBF36"/></g><g><path d="M161.86 16.98C161.88 17.06 161.7 17.17 161.48 17.21 161.25 17.25 161.05 17.22 161.04 17.14 161.02 17.06 161.19 16.95 161.42 16.91 161.64 16.87 161.84 16.9 161.86 16.98Z" fill="#DCBF36"/></g><g><path d="M161.63 18.25C161.64 18.32 161.52 18.4 161.35 18.43 161.18 18.46 161.04 18.44 161.02 18.37 161.01 18.3 161.13 18.22 161.3 18.19 161.47 18.15 161.61 18.18 161.63 18.25Z" fill="#DCBF36"/></g><g><path d="M160.62 16.31C160.63 16.37 160.55 16.43 160.44 16.46 160.33 16.48 160.23 16.45 160.22 16.39 160.21 16.33 160.29 16.26 160.4 16.24 160.5 16.22 160.61 16.25 160.62 16.31Z" fill="#DCBF36"/></g><g><path d="M163.4 16.96C163.42 17.08 163.3 17.2 163.13 17.23 162.96 17.26 162.8 17.2 162.78 17.08 162.76 16.96 162.88 16.84 163.05 16.81 163.22 16.78 163.38 16.85 163.4 16.96Z" fill="#DCBF36"/></g><g><path d="M159.95 18.46C159.96 18.52 159.84 18.59 159.69 18.62 159.53 18.65 159.4 18.63 159.38 18.57 159.37 18.51 159.49 18.44 159.64 18.41 159.8 18.39 159.94 18.41 159.95 18.46Z" fill="#DCBF36"/></g><g><path d="M159.72 17.28C159.72 17.3 159.68 17.33 159.61 17.34 159.55 17.35 159.49 17.35 159.49 17.33 159.49 17.31 159.53 17.28 159.6 17.27 159.66 17.26 159.71 17.26 159.72 17.28Z" fill="#DCBF36"/></g><g><path d="M159.26 17.25C159.28 17.34 159.14 17.43 158.95 17.47 158.77 17.51 158.6 17.47 158.59 17.38 158.57 17.29 158.71 17.2 158.9 17.16 159.08 17.13 159.24 17.17 159.26 17.25Z" fill="#DCBF36"/></g><g><path d="M160.95 17.35C160.96 17.4 160.89 17.45 160.8 17.47 160.71 17.49 160.63 17.46 160.62 17.41 160.61 17.36 160.68 17.31 160.77 17.29 160.86 17.28 160.95 17.3 160.95 17.35Z" fill="#DCBF36"/></g><g><path d="M161.54 16.07C161.56 16.16 161.5 16.25 161.41 16.26 161.32 16.28 161.23 16.22 161.21 16.13 161.19 16.04 161.25 15.95 161.34 15.93 161.44 15.92 161.53 15.98 161.54 16.07Z" fill="#DCBF36"/></g><g><path d="M162.4 15.74C162.42 15.83 162.29 15.92 162.12 15.96 161.95 15.99 161.79 15.95 161.78 15.87 161.76 15.78 161.89 15.69 162.06 15.65 162.23 15.62 162.38 15.66 162.4 15.74Z" fill="#DCBF36"/></g><g><path d="M159.42 19.45C159.45 19.58 159.21 19.74 158.88 19.8 158.56 19.86 158.28 19.81 158.25 19.67 158.22 19.54 158.46 19.38 158.79 19.32 159.11 19.27 159.39 19.32 159.42 19.45Z" fill="#DCBF36"/></g><g><path d="M158.58 18.79C158.59 18.82 158.53 18.86 158.45 18.87 158.37 18.89 158.3 18.87 158.29 18.85 158.28 18.82 158.34 18.78 158.42 18.77 158.5 18.75 158.57 18.76 158.58 18.79Z" fill="#DCBF36"/></g><g><path d="M158.44 18.11C158.46 18.2 158.39 18.3 158.28 18.32 158.17 18.34 158.07 18.28 158.06 18.19 158.05 18.1 158.11 18 158.22 17.98 158.32 17.96 158.42 18.02 158.44 18.11Z" fill="#DCBF36"/></g><g><path d="M157.89 16.36C157.9 16.42 157.8 16.48 157.67 16.51 157.54 16.54 157.43 16.51 157.41 16.46 157.4 16.4 157.5 16.34 157.63 16.31 157.77 16.28 157.88 16.31 157.89 16.36Z" fill="#DCBF36"/></g><g><path d="M158.27 15.8C158.28 15.86 158.15 15.94 157.96 15.98 157.78 16.02 157.62 15.99 157.61 15.93 157.6 15.87 157.73 15.79 157.92 15.75 158.1 15.71 158.26 15.73 158.27 15.8Z" fill="#DCBF36"/></g><g><path d="M158.22 15.08C158.23 15.11 158.17 15.14 158.1 15.15 158.03 15.16 157.97 15.15 157.96 15.13 157.95 15.1 158.01 15.07 158.08 15.06 158.15 15.04 158.21 15.05 158.22 15.08Z" fill="#DCBF36"/></g><g><path d="M160.03 16.54C160.05 16.66 159.87 16.79 159.63 16.84 159.39 16.89 159.17 16.83 159.15 16.71 159.13 16.59 159.31 16.46 159.55 16.41 159.79 16.36 160.01 16.42 160.03 16.54Z" fill="#DCBF36"/></g><g><path d="M160.98 19.23C161.02 19.41 160.83 19.59 160.56 19.65 160.29 19.7 160.05 19.6 160.02 19.42 159.99 19.24 160.17 19.06 160.44 19 160.7 18.95 160.95 19.06 160.98 19.23Z" fill="#DCBF36"/></g><g><path d="M160.26 20.05C160.26 20.07 160.2 20.1 160.12 20.12 160.04 20.14 159.97 20.13 159.97 20.11 159.97 20.09 160.03 20.06 160.11 20.04 160.19 20.03 160.26 20.03 160.26 20.05Z" fill="#DCBF36"/></g><g><path d="M160.16 20.75C160.17 20.8 160.1 20.85 160 20.87 159.91 20.89 159.82 20.87 159.81 20.82 159.8 20.77 159.87 20.72 159.96 20.7 160.07 20.68 160.15 20.7 160.16 20.75Z" fill="#DCBF36"/></g><g><path d="M159.7 20.22C159.72 20.32 159.49 20.45 159.19 20.51 158.88 20.57 158.62 20.54 158.6 20.43 158.58 20.33 158.81 20.2 159.12 20.14 159.42 20.08 159.68 20.12 159.7 20.22Z" fill="#DCBF36"/></g><g><path d="M158.56 20.22C158.56 20.24 158.48 20.27 158.38 20.29 158.27 20.31 158.19 20.31 158.18 20.29 158.18 20.27 158.26 20.24 158.36 20.22 158.46 20.2 158.55 20.19 158.56 20.22Z" fill="#DCBF36"/></g><g><path d="M159.62 19.79C159.63 19.82 159.55 19.85 159.46 19.87 159.37 19.89 159.29 19.88 159.28 19.86 159.27 19.83 159.35 19.8 159.44 19.78 159.53 19.76 159.61 19.76 159.62 19.79Z" fill="#DCBF36"/></g><g><path d="M158.06 19.72C158.06 19.72 158.04 19.72 158.02 19.73 158 19.73 157.98 19.74 157.98 19.74 157.98 19.74 158 19.74 158.02 19.73 158.04 19.72 158.06 19.72 158.06 19.72Z" fill="#DCBF36"/></g><g><path d="M158.71 20.99C158.72 21.01 158.62 21.05 158.49 21.08 158.36 21.1 158.26 21.11 158.25 21.08 158.24 21.06 158.34 21.02 158.47 20.99 158.6 20.97 158.7 20.97 158.71 20.99Z" fill="#DCBF36"/></g><g><path d="M159.75 21.16C159.76 21.21 159.64 21.27 159.47 21.3 159.31 21.33 159.17 21.32 159.16 21.27 159.15 21.22 159.27 21.16 159.43 21.13 159.61 21.1 159.74 21.11 159.75 21.16Z" fill="#DCBF36"/></g><g><path d="M159.59 21.86C159.6 21.89 159.54 21.93 159.45 21.94 159.37 21.96 159.3 21.94 159.29 21.91 159.28 21.88 159.34 21.84 159.42 21.83 159.51 21.82 159.58 21.83 159.59 21.86Z" fill="#DCBF36"/></g><g><path d="M159.22 22.38C159.23 22.41 159.16 22.45 159.07 22.47 158.98 22.49 158.9 22.48 158.89 22.45 158.88 22.42 158.95 22.38 159.04 22.36 159.14 22.34 159.22 22.35 159.22 22.38Z" fill="#DCBF36"/></g><g><path d="M158.98 21.6C158.98 21.62 158.91 21.65 158.82 21.67 158.73 21.69 158.65 21.69 158.65 21.67 158.65 21.65 158.72 21.62 158.81 21.6 158.9 21.58 158.97 21.58 158.98 21.6Z" fill="#DCBF36"/></g><g><path d="M160.38 21.42C160.39 21.45 160.25 21.5 160.07 21.54 159.89 21.57 159.74 21.58 159.73 21.55 159.72 21.52 159.86 21.47 160.04 21.43 160.23 21.4 160.38 21.39 160.38 21.42Z" fill="#DCBF36"/></g><g><path d="M158.98 21.98C158.99 22.01 158.89 22.06 158.76 22.08 158.63 22.1 158.53 22.1 158.52 22.07 158.51 22.04 158.61 22 158.74 21.97 158.87 21.95 158.97 21.95 158.98 21.98Z" fill="#DCBF36"/></g><g><path d="M161.78 19.03C161.79 19.1 161.7 19.18 161.57 19.21 161.44 19.24 161.32 19.2 161.31 19.13 161.3 19.06 161.39 18.98 161.52 18.95 161.65 18.92 161.77 18.96 161.78 19.03Z" fill="#DCBF36"/></g><g><path d="M162.3 18.55C162.31 18.6 162.22 18.65 162.1 18.67 161.98 18.69 161.88 18.67 161.87 18.63 161.86 18.58 161.95 18.53 162.07 18.51 162.19 18.49 162.29 18.51 162.3 18.55Z" fill="#DCBF36"/></g><g><path d="M162.55 17.67C162.56 17.71 162.47 17.76 162.36 17.78 162.25 17.8 162.15 17.79 162.14 17.74 162.13 17.7 162.22 17.65 162.33 17.63 162.44 17.62 162.54 17.63 162.55 17.67Z" fill="#DCBF36"/></g><g><path d="M161.32 20.09C161.32 20.09 161.24 20.11 161.14 20.13 161.04 20.15 160.96 20.17 160.96 20.17 160.96 20.17 161.04 20.15 161.14 20.13 161.24 20.11 161.32 20.09 161.32 20.09Z" fill="#DCBF36"/></g><g><path d="M160.84 20.66C160.85 20.68 160.8 20.71 160.74 20.72 160.68 20.73 160.63 20.72 160.62 20.7 160.62 20.68 160.66 20.65 160.72 20.64 160.78 20.63 160.84 20.64 160.84 20.66Z" fill="#DCBF36"/></g><g><path d="M164.63 15.56C164.65 15.64 164.46 15.75 164.21 15.8 163.96 15.85 163.74 15.82 163.73 15.74 163.71 15.66 163.9 15.55 164.15 15.5 164.4 15.46 164.62 15.48 164.63 15.56Z" fill="#DCBF36"/></g><g><path d="M161.53 14.62C161.55 14.7 161.46 14.78 161.35 14.8 161.23 14.82 161.13 14.78 161.11 14.7 161.1 14.62 161.18 14.54 161.29 14.52 161.4 14.5 161.51 14.54 161.53 14.62Z" fill="#DCBF36"/></g><g><path d="M162.19 14.11C162.2 14.18 162.08 14.27 161.92 14.3 161.76 14.33 161.61 14.3 161.6 14.23 161.59 14.16 161.71 14.07 161.87 14.04 162.03 14 162.18 14.04 162.19 14.11Z" fill="#DCBF36"/></g><g><path d="M161.32 13.59C161.32 13.62 161.23 13.66 161.12 13.68 161 13.7 160.91 13.7 160.9 13.67 160.9 13.64 160.99 13.61 161.1 13.58 161.22 13.56 161.32 13.56 161.32 13.59Z" fill="#DCBF36"/></g><g><path d="M160.89 14.48C160.9 14.54 160.8 14.61 160.67 14.64 160.54 14.67 160.42 14.64 160.41 14.58 160.4 14.52 160.49 14.45 160.63 14.42 160.76 14.39 160.88 14.42 160.89 14.48Z" fill="#DCBF36"/></g><g><path d="M161.69 12.15C161.71 12.25 161.46 12.39 161.12 12.46 160.78 12.52 160.5 12.49 160.48 12.39 160.46 12.28 160.72 12.15 161.05 12.08 161.38 12.02 161.67 12.05 161.69 12.15Z" fill="#DCBF36"/></g><g><path d="M162.37 11.7C162.37 11.72 162.32 11.74 162.25 11.75 162.18 11.76 162.12 11.76 162.12 11.75 162.12 11.73 162.17 11.71 162.24 11.7 162.31 11.68 162.36 11.68 162.37 11.7Z" fill="#DCBF36"/></g><g><path d="M161.65 12.91C161.66 12.93 161.56 12.97 161.45 13 161.33 13.02 161.23 13.02 161.23 13 161.22 12.97 161.32 12.94 161.43 12.91 161.55 12.88 161.65 12.89 161.65 12.91Z" fill="#DCBF36"/></g><g><path d="M164.14 11.41C164.16 11.52 163.97 11.64 163.72 11.69 163.47 11.74 163.24 11.69 163.22 11.59 163.2 11.48 163.39 11.36 163.64 11.31 163.9 11.26 164.12 11.3 164.14 11.41Z" fill="#DCBF36"/></g><g><path d="M165.55 12.06C165.58 12.21 165.44 12.36 165.24 12.4 165.04 12.44 164.86 12.35 164.83 12.2 164.8 12.05 164.94 11.9 165.14 11.86 165.34 11.82 165.52 11.91 165.55 12.06Z" fill="#DCBF36"/></g><g><path d="M165.2 12.72C165.21 12.78 165.14 12.84 165.04 12.86 164.94 12.88 164.85 12.85 164.83 12.79 164.82 12.73 164.89 12.67 164.99 12.65 165.1 12.63 165.19 12.66 165.2 12.72Z" fill="#DCBF36"/></g><g><path d="M164.85 13.48C164.85 13.5 164.79 13.52 164.71 13.54 164.63 13.56 164.56 13.56 164.56 13.54 164.56 13.52 164.62 13.5 164.7 13.48 164.78 13.46 164.85 13.46 164.85 13.48Z" fill="#DCBF36"/></g><g><path d="M164.44 13.23C164.46 13.32 164.28 13.43 164.04 13.48 163.8 13.53 163.59 13.49 163.58 13.4 163.56 13.31 163.74 13.2 163.98 13.15 164.22 13.1 164.42 13.13 164.44 13.23Z" fill="#DCBF36"/></g><g><path d="M163.58 13.91C163.59 13.95 163.51 13.99 163.41 14.01 163.31 14.03 163.22 14.02 163.21 13.98 163.2 13.94 163.28 13.9 163.38 13.88 163.49 13.86 163.58 13.87 163.58 13.91Z" fill="#DCBF36"/></g><g><path d="M165.06 14.07C165.07 14.14 164.93 14.23 164.74 14.27 164.55 14.31 164.38 14.28 164.37 14.21 164.36 14.14 164.5 14.05 164.69 14.01 164.88 13.97 165.04 14 165.06 14.07Z" fill="#DCBF36"/></g><g><path d="M164.84 14.95C164.84 14.98 164.75 15.02 164.62 15.05 164.49 15.07 164.39 15.07 164.38 15.04 164.38 15.01 164.47 14.97 164.6 14.95 164.72 14.91 164.83 14.92 164.84 14.95Z" fill="#DCBF36"/></g></g><path d="M163.47 14.96C163.21 14.51 163.12 13.46 162.43 14.01 161.86 14.49 161.39 15.94 161.19 16.65 160.76 17.96 160.16 20.41 160.55 21.8 161.22 21.19 161.89 19.96 162.31 19.44L163.47 14.96Z" fill="#DCBF36" opacity="0.5"/><g><g><path d="M161.16 23.36C161.05 23.24 160.97 23.08 160.93 22.86 160.81 22.17 161.09 21.24 161.28 20.57 161.84 18.43 162.02 16.09 162.35 13.9 162.5 12.95 162.6 11.86 163.81 12.15 164.24 12.24 164.72 12.54 165.14 12.67 165.64 12.81 166.16 12.92 166.65 13.1 167.07 13.27 167.41 13.62 167.91 13.76 168.44 13.95 169.07 13.91 169.61 14.06 170.15 14.21 170.49 14.57 170.97 14.83 171.37 15.08 171.86 15.09 172.18 15.32 173.22 16.06 172.59 16.96 171.84 17.59 170.84 18.45 170.32 19.41 169.16 20.08 167.11 21.3 164.94 22.26 162.91 23.4 162.38 23.71 161.57 23.8 161.16 23.36Z" fill="#DCBF36"/></g><g><path d="M160.94 23.31C160.83 23.19 160.75 23.03 160.71 22.81 160.59 22.12 160.87 21.19 161.06 20.52 161.62 18.38 161.8 16.04 162.13 13.85 162.28 12.9 162.38 11.81 163.59 12.1 164.02 12.19 164.5 12.49 164.92 12.62 165.42 12.76 165.94 12.87 166.43 13.05 166.85 13.22 167.19 13.57 167.69 13.72 168.23 13.91 168.85 13.87 169.39 14.02 169.93 14.17 170.27 14.53 170.75 14.79 171.15 15.04 171.64 15.05 171.96 15.28 173 16.02 172.36 16.92 171.62 17.55 170.62 18.41 170.1 19.37 168.94 20.04 166.89 21.26 164.72 22.22 162.69 23.37 162.16 23.66 161.35 23.76 160.94 23.31Z" fill="#F1D449"/></g><g><path d="M163.94 13.69C163.9 13.87 163.66 13.98 163.4 13.93 163.14 13.88 162.96 13.68 163 13.5 163.04 13.32 163.28 13.21 163.54 13.26 163.8 13.31 163.98 13.51 163.94 13.69Z" fill="#DCBF36"/></g><g><path d="M164.87 14.37C164.85 14.44 164.68 14.47 164.49 14.43 164.29 14.39 164.15 14.3 164.16 14.22 164.17 14.14 164.35 14.11 164.54 14.15 164.74 14.2 164.89 14.3 164.87 14.37Z" fill="#DCBF36"/></g><g><path d="M164.38 14.97C164.36 15.09 164.12 15.14 163.86 15.09 163.6 15.04 163.41 14.9 163.43 14.78 163.46 14.66 163.69 14.61 163.95 14.66 164.21 14.71 164.41 14.85 164.38 14.97Z" fill="#DCBF36"/></g><g><path d="M163.76 15.62C163.74 15.72 163.47 15.75 163.15 15.68 162.83 15.62 162.59 15.48 162.61 15.39 162.63 15.29 162.9 15.27 163.22 15.33 163.54 15.39 163.78 15.52 163.76 15.62Z" fill="#DCBF36"/></g><g><path d="M163.21 14.42C163.2 14.47 163.11 14.49 163 14.46 162.89 14.44 162.82 14.38 162.83 14.34 162.84 14.29 162.93 14.27 163.04 14.3 163.14 14.32 163.22 14.37 163.21 14.42Z" fill="#DCBF36"/></g><g><path d="M166.24 14.1C166.21 14.25 165.9 14.32 165.55 14.25 165.2 14.18 164.95 14 164.98 13.84 165.01 13.69 165.32 13.62 165.67 13.69 166.01 13.76 166.27 13.95 166.24 14.1Z" fill="#DCBF36"/></g><g><path d="M165.46 14.71C165.45 14.75 165.35 14.76 165.23 14.74 165.12 14.72 165.03 14.67 165.04 14.62 165.05 14.58 165.15 14.57 165.26 14.59 165.38 14.62 165.47 14.67 165.46 14.71Z" fill="#DCBF36"/></g><g><path d="M166.06 15.56C166.02 15.74 165.71 15.83 165.35 15.76 164.99 15.69 164.74 15.48 164.77 15.3 164.81 15.12 165.12 15.03 165.48 15.1 165.84 15.17 166.09 15.38 166.06 15.56Z" fill="#DCBF36"/></g><g><path d="M165.05 16.19C165.04 16.22 164.94 16.23 164.82 16.2 164.7 16.18 164.61 16.13 164.61 16.1 164.62 16.07 164.72 16.06 164.84 16.09 164.96 16.11 165.06 16.16 165.05 16.19Z" fill="#DCBF36"/></g><g><path d="M164.79 16.95C164.77 17.06 164.5 17.1 164.18 17.04 163.87 16.98 163.63 16.83 163.66 16.72 163.68 16.61 163.95 16.57 164.27 16.63 164.57 16.69 164.81 16.83 164.79 16.95Z" fill="#DCBF36"/></g><g><path d="M163.46 17.67C163.45 17.7 163.38 17.71 163.29 17.69 163.2 17.67 163.14 17.63 163.14 17.6 163.15 17.57 163.22 17.56 163.31 17.58 163.4 17.6 163.47 17.64 163.46 17.67Z" fill="#DCBF36"/></g><g><path d="M166.04 17.51C166.03 17.56 165.91 17.58 165.78 17.55 165.65 17.52 165.55 17.46 165.56 17.41 165.57 17.36 165.69 17.34 165.82 17.37 165.96 17.39 166.06 17.46 166.04 17.51Z" fill="#DCBF36"/></g><g><path d="M168.63 15.99C168.6 16.13 168.36 16.19 168.09 16.14 167.82 16.09 167.63 15.93 167.65 15.79 167.68 15.65 167.92 15.59 168.19 15.64 168.46 15.7 168.65 15.86 168.63 15.99Z" fill="#DCBF36"/></g><g><path d="M169.68 15.85C169.67 15.9 169.58 15.92 169.47 15.9 169.37 15.88 169.29 15.82 169.3 15.77 169.31 15.72 169.4 15.69 169.51 15.72 169.61 15.74 169.69 15.8 169.68 15.85Z" fill="#DCBF36"/></g><g><path d="M168.68 17.8C168.67 17.88 168.45 17.9 168.21 17.85 167.96 17.8 167.78 17.7 167.79 17.62 167.81 17.54 168.02 17.52 168.26 17.57 168.51 17.62 168.7 17.73 168.68 17.8Z" fill="#DCBF36"/></g><g><path d="M166.16 19.3C166.14 19.38 165.94 19.41 165.72 19.37 165.49 19.32 165.32 19.22 165.34 19.13 165.36 19.05 165.56 19.02 165.78 19.06 166 19.12 166.18 19.22 166.16 19.3Z" fill="#DCBF36"/></g><g><path d="M165.46 20.38C165.45 20.45 165.3 20.47 165.13 20.44 164.96 20.41 164.84 20.33 164.85 20.26 164.86 20.19 165.01 20.17 165.18 20.2 165.35 20.24 165.47 20.32 165.46 20.38Z" fill="#DCBF36"/></g><g><path d="M165.27 18.21C165.26 18.27 165.16 18.3 165.05 18.28 164.94 18.26 164.86 18.19 164.87 18.13 164.88 18.07 164.98 18.04 165.09 18.06 165.2 18.08 165.28 18.15 165.27 18.21Z" fill="#DCBF36"/></g><g><path d="M167.59 19.88C167.57 20 167.41 20.06 167.23 20.03 167.06 20 166.94 19.87 166.96 19.76 166.98 19.64 167.14 19.58 167.32 19.61 167.49 19.64 167.61 19.76 167.59 19.88Z" fill="#DCBF36"/></g><g><path d="M163.83 19.94C163.82 20 163.68 20.02 163.52 19.99 163.36 19.96 163.24 19.89 163.26 19.83 163.27 19.77 163.41 19.75 163.57 19.78 163.72 19.81 163.84 19.88 163.83 19.94Z" fill="#DCBF36"/></g><g><path d="M164.07 18.76C164.07 18.78 164.01 18.79 163.95 18.77 163.89 18.76 163.84 18.73 163.84 18.71 163.84 18.69 163.9 18.68 163.96 18.7 164.02 18.72 164.07 18.74 164.07 18.76Z" fill="#DCBF36"/></g><g><path d="M163.65 18.55C163.63 18.64 163.47 18.67 163.28 18.64 163.1 18.6 162.96 18.5 162.98 18.42 163 18.34 163.16 18.3 163.35 18.33 163.53 18.37 163.67 18.47 163.65 18.55Z" fill="#DCBF36"/></g><g><path d="M165.18 19.3C165.17 19.35 165.09 19.37 165 19.35 164.91 19.33 164.84 19.28 164.85 19.23 164.86 19.18 164.94 19.16 165.03 19.18 165.13 19.2 165.19 19.25 165.18 19.3Z" fill="#DCBF36"/></g><g><path d="M166.22 18.34C166.2 18.43 166.11 18.49 166.02 18.47 165.93 18.45 165.87 18.36 165.89 18.27 165.91 18.18 166 18.12 166.09 18.14 166.18 18.17 166.24 18.25 166.22 18.34Z" fill="#DCBF36"/></g><g><path d="M167.13 18.37C167.11 18.45 166.96 18.5 166.79 18.46 166.62 18.42 166.49 18.33 166.51 18.24 166.53 18.15 166.68 18.11 166.85 18.15 167.02 18.18 167.15 18.28 167.13 18.37Z" fill="#DCBF36"/></g><g><path d="M162.96 20.65C162.93 20.78 162.65 20.84 162.33 20.77 162.01 20.7 161.77 20.54 161.8 20.41 161.83 20.28 162.11 20.22 162.43 20.29 162.75 20.36 162.99 20.52 162.96 20.65Z" fill="#DCBF36"/></g><g><path d="M162.43 19.71C162.42 19.74 162.35 19.75 162.28 19.73 162.2 19.72 162.14 19.68 162.15 19.65 162.16 19.62 162.22 19.61 162.3 19.63 162.38 19.65 162.44 19.68 162.43 19.71Z" fill="#DCBF36"/></g><g><path d="M162.57 19.04C162.55 19.13 162.45 19.19 162.35 19.17 162.24 19.15 162.17 19.06 162.19 18.96 162.21 18.87 162.31 18.81 162.41 18.83 162.52 18.85 162.59 18.94 162.57 19.04Z" fill="#DCBF36"/></g><g><path d="M162.74 17.21C162.73 17.27 162.61 17.29 162.48 17.26 162.35 17.23 162.25 17.17 162.26 17.11 162.27 17.05 162.39 17.03 162.52 17.06 162.65 17.09 162.75 17.15 162.74 17.21Z" fill="#DCBF36"/></g><g><path d="M163.31 16.83C163.3 16.89 163.14 16.91 162.96 16.88 162.78 16.84 162.64 16.76 162.66 16.7 162.67 16.64 162.83 16.62 163.01 16.65 163.18 16.69 163.32 16.77 163.31 16.83Z" fill="#DCBF36"/></g><g><path d="M163.53 16.15C163.52 16.18 163.47 16.19 163.39 16.17 163.32 16.15 163.27 16.12 163.27 16.1 163.28 16.07 163.34 16.07 163.4 16.08 163.48 16.09 163.53 16.12 163.53 16.15Z" fill="#DCBF36"/></g><g><path d="M164.64 18.19C164.62 18.31 164.4 18.36 164.16 18.31 163.92 18.26 163.74 18.13 163.76 18.01 163.78 17.89 164 17.84 164.24 17.89 164.49 17.94 164.67 18.07 164.64 18.19Z" fill="#DCBF36"/></g><g><path d="M164.48 21.04C164.44 21.22 164.2 21.32 163.94 21.27 163.67 21.22 163.49 21.03 163.53 20.85 163.57 20.67 163.81 20.57 164.07 20.63 164.34 20.68 164.52 20.87 164.48 21.04Z" fill="#DCBF36"/></g><g><path d="M163.51 21.53C163.51 21.55 163.44 21.56 163.36 21.54 163.28 21.52 163.22 21.49 163.23 21.47 163.23 21.45 163.3 21.44 163.38 21.46 163.45 21.48 163.51 21.51 163.51 21.53Z" fill="#DCBF36"/></g><g><path d="M163.15 22.13C163.14 22.18 163.06 22.2 162.96 22.18 162.87 22.16 162.8 22.11 162.81 22.06 162.82 22.01 162.9 21.99 163 22.01 163.09 22.03 163.16 22.09 163.15 22.13Z" fill="#DCBF36"/></g><g><path d="M162.93 21.46C162.91 21.56 162.65 21.59 162.34 21.53 162.04 21.47 161.81 21.34 161.83 21.23 161.85 21.13 162.12 21.1 162.42 21.16 162.72 21.23 162.95 21.36 162.93 21.46Z" fill="#DCBF36"/></g><g><path d="M161.87 21.02C161.87 21.04 161.78 21.04 161.67 21.02 161.56 21 161.48 20.97 161.49 20.95 161.49 20.93 161.58 20.93 161.69 20.95 161.79 20.97 161.87 21 161.87 21.02Z" fill="#DCBF36"/></g><g><path d="M163.01 21.03C163 21.06 162.92 21.06 162.83 21.04 162.74 21.02 162.66 20.98 162.67 20.96 162.68 20.93 162.76 20.93 162.85 20.95 162.95 20.97 163.02 21.01 163.01 21.03Z" fill="#DCBF36"/></g><g><path d="M161.6 20.37C161.6 20.37 161.58 20.37 161.56 20.36 161.54 20.36 161.52 20.35 161.52 20.35 161.52 20.35 161.54 20.35 161.56 20.36 161.59 20.37 161.6 20.37 161.6 20.37Z" fill="#DCBF36"/></g><g><path d="M161.71 21.8C161.71 21.82 161.6 21.82 161.47 21.79 161.34 21.76 161.24 21.72 161.25 21.7 161.25 21.68 161.36 21.68 161.49 21.71 161.62 21.74 161.72 21.77 161.71 21.8Z" fill="#DCBF36"/></g><g><path d="M162.61 22.35C162.6 22.4 162.46 22.41 162.3 22.37 162.14 22.34 162.02 22.27 162.02 22.23 162.03 22.18 162.17 22.17 162.33 22.21 162.5 22.24 162.62 22.3 162.61 22.35Z" fill="#DCBF36"/></g><g><path d="M162.19 22.94C162.18 22.97 162.11 22.98 162.03 22.97 161.95 22.95 161.89 22.92 161.9 22.88 161.91 22.85 161.98 22.84 162.06 22.85 162.14 22.87 162.2 22.91 162.19 22.94Z" fill="#DCBF36"/></g><g><path d="M161.66 23.27C161.65 23.3 161.58 23.31 161.49 23.29 161.4 23.27 161.33 23.23 161.34 23.2 161.35 23.17 161.43 23.16 161.52 23.18 161.6 23.2 161.66 23.24 161.66 23.27Z" fill="#DCBF36"/></g><g><path d="M161.73 22.46C161.73 22.48 161.65 22.48 161.56 22.46 161.47 22.44 161.39 22.41 161.4 22.39 161.4 22.37 161.48 22.37 161.57 22.39 161.66 22.41 161.73 22.44 161.73 22.46Z" fill="#DCBF36"/></g><g><path d="M163.09 22.84C163.08 22.87 162.93 22.87 162.75 22.83 162.57 22.79 162.43 22.74 162.44 22.71 162.45 22.68 162.6 22.69 162.78 22.72 162.96 22.75 163.1 22.81 163.09 22.84Z" fill="#DCBF36"/></g><g><path d="M161.58 22.82C161.57 22.85 161.47 22.85 161.34 22.83 161.22 22.8 161.12 22.76 161.13 22.73 161.14 22.7 161.24 22.7 161.37 22.72 161.49 22.74 161.59 22.79 161.58 22.82Z" fill="#DCBF36"/></g><g><path d="M165.3 21.16C165.29 21.23 165.17 21.27 165.03 21.24 164.9 21.21 164.8 21.13 164.82 21.06 164.83 20.99 164.95 20.95 165.08 20.98 165.22 21.01 165.32 21.09 165.3 21.16Z" fill="#DCBF36"/></g><g><path d="M165.96 20.92C165.95 20.97 165.85 20.98 165.73 20.96 165.61 20.94 165.53 20.88 165.54 20.84 165.55 20.79 165.65 20.78 165.77 20.8 165.88 20.82 165.97 20.88 165.96 20.92Z" fill="#DCBF36"/></g><g><path d="M166.53 20.21C166.52 20.25 166.42 20.27 166.31 20.24 166.2 20.22 166.12 20.17 166.12 20.13 166.13 20.09 166.22 20.07 166.34 20.1 166.45 20.11 166.54 20.16 166.53 20.21Z" fill="#DCBF36"/></g><g><path d="M164.47 21.97C164.47 21.97 164.39 21.95 164.29 21.93 164.19 21.91 164.11 21.89 164.11 21.89 164.11 21.89 164.19 21.91 164.29 21.93 164.39 21.95 164.47 21.97 164.47 21.97Z" fill="#DCBF36"/></g><g><path d="M163.81 22.31C163.8 22.33 163.75 22.34 163.69 22.33 163.63 22.32 163.58 22.29 163.59 22.27 163.59 22.25 163.65 22.24 163.71 22.25 163.77 22.26 163.81 22.29 163.81 22.31Z" fill="#DCBF36"/></g><g><path d="M169.27 19.06C169.25 19.14 169.04 19.17 168.79 19.11 168.54 19.06 168.35 18.95 168.37 18.87 168.39 18.79 168.6 18.76 168.85 18.82 169.09 18.87 169.28 18.98 169.27 19.06Z" fill="#DCBF36"/></g><g><path d="M166.76 16.99C166.74 17.07 166.64 17.11 166.52 17.09 166.4 17.07 166.32 16.98 166.34 16.91 166.35 16.83 166.46 16.79 166.58 16.82 166.69 16.84 166.78 16.92 166.76 16.99Z" fill="#DCBF36"/></g><g><path d="M167.57 16.78C167.56 16.85 167.41 16.89 167.25 16.85 167.09 16.82 166.97 16.73 166.98 16.66 167 16.59 167.14 16.55 167.3 16.59 167.46 16.62 167.58 16.71 167.57 16.78Z" fill="#DCBF36"/></g><g><path d="M166.97 15.96C166.96 15.99 166.87 15.99 166.75 15.96 166.63 15.94 166.54 15.9 166.55 15.87 166.55 15.84 166.65 15.84 166.77 15.87 166.88 15.9 166.98 15.94 166.97 15.96Z" fill="#DCBF36"/></g><g><path d="M166.22 16.62C166.21 16.68 166.09 16.71 165.96 16.68 165.83 16.65 165.73 16.58 165.74 16.52 165.75 16.46 165.87 16.43 166 16.46 166.14 16.49 166.24 16.56 166.22 16.62Z" fill="#DCBF36"/></g><g><path d="M167.86 14.78C167.84 14.89 167.55 14.91 167.22 14.85 166.88 14.78 166.63 14.64 166.65 14.54 166.67 14.44 166.96 14.41 167.29 14.47 167.63 14.54 167.88 14.68 167.86 14.78Z" fill="#DCBF36"/></g><g><path d="M168.66 14.62C168.66 14.63 168.6 14.64 168.53 14.62 168.46 14.6 168.41 14.58 168.41 14.57 168.41 14.55 168.47 14.55 168.54 14.57 168.61 14.58 168.66 14.6 168.66 14.62Z" fill="#DCBF36"/></g><g><path d="M167.53 15.47C167.52 15.5 167.43 15.5 167.31 15.47 167.19 15.45 167.1 15.41 167.11 15.38 167.12 15.35 167.21 15.35 167.33 15.38 167.44 15.4 167.53 15.44 167.53 15.47Z" fill="#DCBF36"/></g><g><path d="M170.41 15.04C170.39 15.15 170.17 15.19 169.91 15.14 169.66 15.09 169.47 14.96 169.49 14.85 169.51 14.74 169.74 14.7 169.99 14.75 170.24 14.8 170.43 14.93 170.41 15.04Z" fill="#DCBF36"/></g><g><path d="M171.46 16.17C171.43 16.32 171.25 16.4 171.05 16.36 170.85 16.32 170.72 16.17 170.75 16.02 170.78 15.87 170.96 15.79 171.16 15.83 171.35 15.88 171.49 16.03 171.46 16.17Z" fill="#DCBF36"/></g><g><path d="M170.88 16.65C170.87 16.71 170.78 16.74 170.68 16.72 170.58 16.7 170.51 16.64 170.52 16.58 170.53 16.52 170.62 16.49 170.73 16.51 170.83 16.53 170.9 16.59 170.88 16.65Z" fill="#DCBF36"/></g><g><path d="M170.27 17.22C170.27 17.24 170.2 17.24 170.12 17.22 170.04 17.2 169.98 17.18 169.98 17.16 169.98 17.14 170.05 17.14 170.13 17.16 170.21 17.18 170.28 17.2 170.27 17.22Z" fill="#DCBF36"/></g><g><path d="M169.99 16.83C169.97 16.92 169.76 16.96 169.53 16.91 169.29 16.86 169.11 16.75 169.13 16.66 169.15 16.57 169.36 16.53 169.59 16.58 169.83 16.62 170.01 16.74 169.99 16.83Z" fill="#DCBF36"/></g><g><path d="M168.93 17.13C168.92 17.17 168.83 17.18 168.73 17.16 168.63 17.14 168.55 17.09 168.56 17.06 168.57 17.02 168.65 17.01 168.76 17.03 168.86 17.04 168.94 17.09 168.93 17.13Z" fill="#DCBF36"/></g><g><path d="M170.23 17.84C170.21 17.91 170.05 17.94 169.86 17.9 169.67 17.86 169.53 17.77 169.54 17.7 169.55 17.63 169.72 17.6 169.91 17.64 170.1 17.68 170.25 17.77 170.23 17.84Z" fill="#DCBF36"/></g><g><path d="M169.69 18.57C169.68 18.6 169.58 18.6 169.45 18.57 169.32 18.55 169.22 18.5 169.23 18.47 169.24 18.44 169.34 18.44 169.47 18.47 169.6 18.5 169.7 18.54 169.69 18.57Z" fill="#DCBF36"/></g></g><path d="M155.82 20.32C155.82 20.48 155.57 20.6 155.27 20.59 154.97 20.59 154.73 20.46 154.73 20.3 154.73 20.15 154.98 20.02 155.28 20.03 155.58 20.04 155.82 20.16 155.82 20.32Z" fill="#99B032"/><path d="M157.32 20.25C157.32 20.35 157.14 20.43 156.92 20.43 156.7 20.43 156.52 20.34 156.53 20.24 156.53 20.14 156.71 20.06 156.93 20.06 157.15 20.06 157.32 20.14 157.32 20.25Z" fill="#99B032"/><path d="M154.33 23.39C154.33 23.49 154.15 23.57 153.93 23.57 153.71 23.57 153.54 23.48 153.54 23.38 153.54 23.28 153.72 23.2 153.94 23.2 154.15 23.2 154.33 23.28 154.33 23.39Z" fill="#99B032"/><path d="M157.47 21.31C157.47 21.4 157.19 21.47 156.86 21.46 156.52 21.46 156.25 21.38 156.25 21.29 156.25 21.2 156.52 21.13 156.86 21.14 157.2 21.14 157.47 21.22 157.47 21.31Z" fill="#99B032"/><path d="M156.49 22.63C156.49 22.66 156.37 22.68 156.23 22.68 156.09 22.68 155.97 22.65 155.97 22.62 155.97 22.59 156.09 22.56 156.23 22.57 156.38 22.58 156.49 22.6 156.49 22.63Z" fill="#99B032"/><path d="M153.96 21.86C153.96 21.89 153.84 21.91 153.7 21.91 153.56 21.91 153.44 21.88 153.44 21.85 153.44 21.82 153.56 21.8 153.7 21.8 153.84 21.81 153.96 21.83 153.96 21.86Z" fill="#99B032"/><path d="M155.24 21.28C155.24 21.31 155.12 21.33 154.98 21.33 154.84 21.33 154.72 21.3 154.72 21.27 154.72 21.24 154.84 21.21 154.98 21.22 155.12 21.22 155.24 21.24 155.24 21.28Z" fill="#99B032"/><path d="M154.24 20.01C154.24 20.04 154.12 20.07 153.98 20.06 153.84 20.06 153.72 20.03 153.72 20 153.72 19.97 153.84 19.95 153.98 19.95 154.13 19.96 154.24 19.98 154.24 20.01Z" fill="#99B032"/><path d="M159.56 23.86C159.56 23.89 159.44 23.91 159.3 23.91 159.16 23.91 159.04 23.88 159.04 23.85 159.04 23.82 159.16 23.8 159.3 23.8 159.45 23.81 159.56 23.83 159.56 23.86Z" fill="#99B032"/><path d="M153.71 20.95C153.71 21.06 153.36 21.13 152.92 21.13 152.49 21.12 152.13 21.03 152.14 20.93 152.14 20.83 152.5 20.75 152.93 20.75 153.36 20.75 153.71 20.84 153.71 20.95Z" fill="#99B032"/><path d="M158.06 23.25C158.06 23.35 157.7 23.43 157.27 23.43 156.84 23.42 156.48 23.33 156.49 23.23 156.49 23.13 156.85 23.04 157.28 23.05 157.71 23.06 158.06 23.15 158.06 23.25Z" fill="#99B032"/><path d="M159.45 22.81C159.45 22.9 159.18 22.97 158.84 22.96 158.5 22.95 158.23 22.88 158.23 22.79 158.23 22.7 158.51 22.64 158.84 22.64 159.18 22.64 159.45 22.72 159.45 22.81Z" fill="#99B032"/></g><path d="M148.68 21.63 151.48 37.25 162.93 37.25 166.25 21.59Z" fill="#D9A652"/><g><defs><path d="M148.68 21.63 151.48 37.25C151.48 37.25 153.87 37.6 157.23 37.65 160.59 37.7 162.93 37.25 162.93 37.25L166.25 21.59 148.68 21.63Z" id="SVGID_1_"/></defs><clipPath id="SVGID_2_"><use width="100%" height="100%" xlink:href="#SVGID_1_" overflow="visible"></use></clipPath><g clip-path="url(#SVGID_2_)"><g><path d="M161.48 34.02 160.84 33.56C160.32 33.19 159.8 32.81 159.28 32.42 158.95 32.8 158.61 33.17 158.27 33.54L157.76 34.09 157.15 33.59C156.71 33.23 156.27 32.86 155.83 32.49 155.44 32.88 155.04 33.26 154.64 33.63L154.09 34.14 153.51 33.6C152.95 33.08 152.39 32.55 151.84 32.01 151.43 32.36 151.02 32.69 150.6 33.02L150.02 33.48 149.49 32.91C148.92 32.3 148.34 31.67 147.77 31.03 147.3 31.36 146.83 31.67 146.37 31.97L145.42 30.67C146.06 30.25 146.72 29.81 147.36 29.34L147.96 28.91 148.47 29.49C149.01 30.11 149.57 30.73 150.12 31.33 150.52 31.01 150.91 30.68 151.3 30.35L151.87 29.86 152.43 30.41C152.95 30.93 153.49 31.45 154.03 31.96 154.41 31.6 154.79 31.22 155.16 30.85L155.69 30.32 156.28 30.84C156.7 31.2 157.12 31.57 157.54 31.92 157.86 31.56 158.18 31.2 158.5 30.83L158.99 30.26 159.62 30.74C160.11 31.12 160.61 31.49 161.11 31.85 161.5 31.36 161.88 30.86 162.25 30.36L162.69 29.77 163.35 30.2C163.65 30.4 163.95 30.59 164.25 30.78 164.7 30.12 165.14 29.46 165.57 28.78L165.96 28.16 166.64 28.54C167.19 28.85 167.75 29.15 168.29 29.43L167.58 30.79C167.24 30.61 166.9 30.43 166.55 30.24 166.1 30.93 165.64 31.62 165.17 32.28L164.75 32.89 164.08 32.48C163.76 32.29 163.44 32.08 163.12 31.88 162.73 32.4 162.33 32.91 161.93 33.41L161.48 34.02Z" fill="#71A82C"/></g></g><line x1="148.96" y1="25.35" x2="166.05" y2="25.35" stroke="#C14444" stroke-width="0.5" stroke-miterlimit="10" fill="none" clip-path="url(#SVGID_2_)"/><line x1="165.61" y1="26.12" x2="149.35" y2="26.12" stroke="#FFFFFF" stroke-width="0.5" stroke-miterlimit="10" fill="none" clip-path="url(#SVGID_2_)"/></g></g></g></svg>