<svg width="238.77" height="245.66" viewBox="0 0 238.77 245.66" xmlns="http://www.w3.org/2000/svg" xmlns:xlink="http://www.w3.org/1999/xlink" xml:space="preserve" overflow="hidden"><defs></defs><g><rect x="18.98" y="0" width="48.72" height="8.94" fill="#4F3C2F"/><rect x="84.37" y="0" width="48.73" height="8.94" fill="#4F3C2F"/><rect x="147.65" y="0" width="48.73" height="8.94" fill="#4F3C2F"/><rect x="7.17" y="4.99" width="204.6" height="10.39" fill="#7A5E4E"/><path d="M18.56 224.88 8.44 224.88 8.44 245.66 14.34 245.66Z" fill="#7A5E4E"/><path d="M89.86 224.88 79.73 224.88 79.73 245.66 85.64 245.66Z" fill="#7A5E4E"/><path d="M224.43 224.88 234.55 224.88 234.55 245.66 228.65 245.66Z" fill="#7A5E4E"/><path d="M124.03 224.88 134.15 224.88 134.15 245.66 128.25 245.66Z" fill="#7A5E4E"/><rect x="9.7" y="219.89" width="224.85" height="11.23" fill="#7A5E4E"/><path d="M238.77 226.95 216.8 9.56 0 9.56 7.81 226.95Z" fill="#FFE6D2"/><path d="M0 9.56 7.81 226.95 83.01 226.95 75.2 9.56Z" fill="#E2BFA8"/><path d="M216.84 191.62 202.47 36.06 91.12 36.06 102.73 191.62Z" fill="#4F3C2F"/><path d="M152.93 53.62 165.06 191.62 216.84 191.62 202.47 36.06 91.12 36.06 92.81 53.62Z" fill="#724A2F"/><path d="M200 37.93 91.54 37.93 92.07 45.01 192.82 45.01 206.59 191.62 213.99 191.62Z" fill="#FFBD5C"/><path d="M202.47 36.06 91.12 36.06 91.66 43.23 195.1 43.23 209.24 191.62 216.84 191.62Z" fill="#564235"/><rect x="98.15" y="105.58" width="101.81" height="2.49" fill="#FFBD5C"/><rect x="98.15" y="108.31" width="101.81" height="4.83" fill="#EA8039"/><path d="M193.95 44.4 92.14 44.4 93.44 62.25 153.87 62.25Z" fill="#EF9F6A"/><path d="M159.25 39.49 110.53 189.13 168.75 188.5 184.56 40.11Z" fill="#E9FFFA" opacity="0.5"/><path d="M146.39 40.32 105.04 138 102.51 118.88 130.78 40.32Z" fill="#E9FFFA" opacity="0.5"/><path d="M97.86 171.22 218.52 169.59 216.43 163.4 96.18 164.19Z" fill="#FFE6D2"/><rect x="74.25" y="213.24" width="163.26" height="2.91" fill="#E2BFA8"/><g><path d="M206.2 20.27C204.96 15.71 200.36 12.6 195.92 13.32 191.48 14.03 188.89 18.31 190.13 22.87 191.37 27.43 195.97 30.54 200.41 29.82 204.85 29.1 207.45 24.82 206.2 20.27Z" fill="#C49A83"/><path d="M205.98 18.85C204.87 14.78 200.76 12 196.8 12.64 192.84 13.28 190.52 17.1 191.63 21.17 192.74 25.24 196.85 28.02 200.81 27.38 204.77 26.74 207.09 22.92 205.98 18.85Z" fill="#E2BFA8"/><path d="M205.29 18.1C204.51 15.23 201.61 13.27 198.81 13.72 196.01 14.17 194.38 16.87 195.16 19.74 195.94 22.61 198.84 24.57 201.64 24.12 204.44 23.66 206.07 20.97 205.29 18.1Z" fill="#FFDEC7"/></g><g><path d="M181.1 20.27C179.86 15.71 175.26 12.6 170.82 13.32 166.38 14.03 163.79 18.31 165.03 22.87 166.27 27.43 170.87 30.54 175.31 29.82 179.75 29.1 182.34 24.82 181.1 20.27Z" fill="#C49A83"/><path d="M180.88 18.85C179.77 14.78 175.66 12 171.7 12.64 167.74 13.28 165.42 17.1 166.53 21.17 167.64 25.24 171.75 28.02 175.71 27.38 179.67 26.74 181.99 22.92 180.88 18.85Z" fill="#E2BFA8"/><path d="M180.19 18.1C179.41 15.23 176.51 13.27 173.71 13.72 170.91 14.17 169.28 16.87 170.06 19.74 170.84 22.61 173.74 24.57 176.54 24.12 179.34 23.66 180.97 20.97 180.19 18.1Z" fill="#FFDEC7"/></g><g><path d="M131.96 20.27C130.72 15.71 126.12 12.6 121.68 13.32 117.24 14.03 114.65 18.31 115.89 22.87 117.13 27.43 121.73 30.54 126.17 29.82 130.6 29.1 133.2 24.82 131.96 20.27Z" fill="#C49A83"/><path d="M131.73 18.85C130.62 14.78 126.51 12 122.55 12.64 118.58 13.28 116.27 17.1 117.38 21.17 118.49 25.24 122.6 28.02 126.56 27.38 130.52 26.74 132.84 22.92 131.73 18.85Z" fill="#E2BFA8"/><path d="M131.04 18.1C130.26 15.23 127.36 13.27 124.56 13.72 121.76 14.17 120.13 16.87 120.91 19.74 121.69 22.61 124.59 24.57 127.39 24.12 130.19 23.66 131.82 20.97 131.04 18.1Z" fill="#FFDEC7"/></g><g><path d="M107.7 20.27C106.46 15.71 101.86 12.6 97.42 13.32 92.98 14.03 90.39 18.31 91.63 22.87 92.87 27.43 97.47 30.54 101.91 29.82 106.35 29.1 108.94 24.82 107.7 20.27Z" fill="#C49A83"/><path d="M107.47 18.85C106.36 14.78 102.25 12 98.29 12.64 94.33 13.28 92.01 17.1 93.12 21.17 94.23 25.24 98.34 28.02 102.3 27.38 106.26 26.74 108.58 22.92 107.47 18.85Z" fill="#E2BFA8"/><path d="M106.78 18.1C106 15.23 103.1 13.27 100.3 13.72 97.5 14.17 95.87 16.87 96.65 19.74 97.43 22.61 100.33 24.57 103.13 24.12 105.93 23.66 107.57 20.97 106.78 18.1Z" fill="#FFDEC7"/></g><path d="M160.31 14.13 137.53 14.13 139 26.81 161.78 26.81Z" fill="#C49A83"/><path d="M158.31 14.95 138.45 14.95 139.74 26 159.59 26Z" fill="#564235"/><path d="M149.34 16.83 146.32 24.58 155.74 24 155.54 15.88Z" fill="#E9FFFA" opacity="0.5"/></g></svg>