<svg width="520.66" height="871.33" viewBox="0 0 520.66 871.33" xmlns="http://www.w3.org/2000/svg" xmlns:xlink="http://www.w3.org/1999/xlink" xml:space="preserve" overflow="hidden"><defs></defs><g><path d="M38.44 800.52C24.6 728.58 82.26 590.57 122.64 555.97L316.43 555.97C356.8 590.57 413.82 728.45 400.63 800.52 383.92 891.85 55.57 889.58 38.44 800.52Z" stroke="#9B0B2A" stroke-width="6.3117" stroke-linecap="round" stroke-linejoin="round" stroke-miterlimit="10" fill="#E22948"/><path d="M131.29 594.04C88.03 609.61 37.85 728.13 56.02 784.37 74.19 840.6 224.72 837.14 258.47 815.51 292.21 793.88 279.23 639.89 255.01 615.66 184.93 621.72 131.29 594.04 131.29 594.04Z" fill="#F94E6B"/><path d="M125.24 502.33C117.45 509.25 115.72 564.62 115.72 564.62 152.92 593.17 291.34 593.17 322.49 564.62 322.49 564.62 318.16 504.06 310.38 501.46 302.59 498.87 125.24 502.33 125.24 502.33Z" stroke="#B5590D" stroke-width="6.3117" stroke-linecap="round" stroke-linejoin="round" stroke-miterlimit="10" fill="#FF9E1E"/><path d="M145.13 626.05C218.55 643.77 187.22 776.29 104.47 758.42 28.34 741.98 69.87 607.88 145.13 626.05Z" stroke="#9B0B2A" stroke-width="6.3117" stroke-linecap="round" stroke-linejoin="round" stroke-miterlimit="10" fill="#E22948"/><path d="M127.23 632.63C185.67 646.74 160.73 752.22 94.86 738 34.26 724.9 67.32 618.17 127.23 632.63Z" stroke="#7C7776" stroke-width="6.3117" stroke-linecap="round" stroke-linejoin="round" fill="#E2E2E2"/><path d="M381.03 125.71C381.03 125.71 483.69 114.17 507.91 139.55 548.34 181.9 452.5 425.95 378.71 457.92 344.11 472.92 319.88 433.7 319.88 433.7L352.18 365.64C352.18 365.64 368.32 391.02 379.86 391.02 391.4 391.02 435.22 348.34 460.6 279.12 485.98 209.91 482.52 168.39 440.99 162.62 399.46 156.85 384.47 193.77 384.47 193.77L381.03 125.71Z" stroke="#303233" stroke-width="6.3117" stroke-linecap="round" stroke-linejoin="round" stroke-miterlimit="10" fill="#717475"/><path d="M390.26 84.19 391.41 137.25C391.41 137.25 399.49 364.49 314.13 459.08 314.13 459.08 315.28 487.92 315.28 509.84 315.28 531.76 126.1 531.76 122.64 509.84 119.18 487.92 122.64 459.08 122.64 459.08 37.27 364.49 45.36 137.25 45.36 137.25 45.36 137.25-3.09 103.79 3.83 94.57 10.75 85.34 39.58 84.19 39.58 84.19" stroke="#328E87" stroke-width="6.3117" stroke-linecap="round" stroke-linejoin="round" stroke-miterlimit="10" fill="#61DBD5"/><path d="M142.54 467.73C132.24 465.96 128.7 504.93 145.13 511.85 161.57 518.77 233.37 526.55 242.03 516.17 250.68 505.79 242.9 473.78 242.9 473.78 242.9 473.78 172.82 472.92 142.54 467.73Z" fill="#8CEDE6"/><path d="M219.01 43.81C460.53 43.81 457.75 139.83 219.01 139.83-19.73 139.84-29.44 43.81 219.01 43.81Z" stroke="#303233" stroke-width="6.3117" stroke-linecap="round" stroke-linejoin="round" stroke-miterlimit="10" fill="#717475"/><path d="M187.61 50.73C363.86 50.73 361.83 120.8 187.61 120.8 13.4 120.81 6.31 50.73 187.61 50.73Z" fill="#94999B"/><path d="M100.15 76.69C175.46 61.63 216.95 93.13 169.36 106.97 121.77 120.81 17.96 93.13 100.15 76.69Z" fill="#AEB5B7"/><path d="M432.94 125.14C415.15 126.93 400.65 141.28 435.82 145.32 471 149.36 490.77 159.13 491.19 178.2 492.35 230.68 476.76 296.44 425.44 370.84 374.11 445.24 414.47 427.51 461.77 345.46 509.08 263.42 519.45 151.67 503.3 141.29 487.15 130.9 457.85 122.63 432.94 125.14Z" fill="#94999B"/><path d="M17.96 102.64C30.07 126.87 64.68 150.22 84.58 155.41 84.58 155.41 93.23 368.23 149.46 443.5 161.58 453.88 220.4 458.21 239.43 449.55 258.47 440.9 281.82 198.66 268.85 154.54 197.91 158.87 71.6 139.84 17.96 102.64Z" fill="#8CEDE6"/><path d="M120.91 194.35C100.81 212.62 141.67 382.09 153.78 398.52 165.89 414.96 186.65 400.25 186.65 400.25 186.65 400.25 186.65 218.57 179.73 203 172.82 187.42 130.43 185.69 120.91 194.35Z" fill="#B6FFF8"/><path d="M127.08 642.84C126.86 641.92 114.99 632.96 114.23 632.25 106.07 624.59 69.34 629.45 59.05 656.76 49.21 682.88 62.7 712.07 72.89 715.77 74.35 716.3 91.12 724.84 92.36 724.24 102.31 719.49 127.08 642.84 127.08 642.84Z" stroke="#87817F" stroke-width="6.3117" stroke-linecap="round" stroke-linejoin="round" fill="#F4F4F4"/><path d="M126.97 644.65C125.34 635.54 89.34 637.73 77.66 666.27 65.98 694.82 85.45 721.64 92.37 724.24 99.28 726.84 129.13 656.76 126.97 644.65Z" stroke="#636B6A" stroke-width="6.3117" stroke-linecap="round" stroke-linejoin="round" fill="#B8C1C0"/><path d="M219.11 42.75C300.56 42.75 299.63 76.16 219.11 76.16 138.59 76.17 135.31 42.75 219.11 42.75Z" stroke="#303233" stroke-width="6.3117" stroke-linecap="round" stroke-linejoin="round" stroke-miterlimit="10" fill="#717475"/><path d="M170.98 59.56C168.08 52.78 171.06 19.52 176.79 13.08 188.41 0.01 244.49-0.31 260.55 13.08 269.27 20.34 269.27 54.24 267.82 59.08" stroke="#303233" stroke-width="6.3117" stroke-linecap="round" stroke-linejoin="round" stroke-miterlimit="10" fill="#717475"/><path d="M178.32 62.42C176.8 56.93 179.52 22.2 182.5 16.99 188.56 6.41 217.81 6.16 226.19 16.99 230.73 22.86 229.91 63.79 229.15 67.7" fill="#94999B"/></g></svg>