<svg width="184.78" height="297" viewBox="0 0 184.78 297" xmlns="http://www.w3.org/2000/svg" xmlns:xlink="http://www.w3.org/1999/xlink" xml:space="preserve" overflow="hidden"><defs></defs><g><g><defs><filter id="Adobe_OpacityMaskFilter" x="48.07" y="15.5" width="75.79" height="82.6" filterUnits="userSpaceOnUse" primitiveUnits="userSpaceOnUse"><feFlood flood-color="#FFFFFF" result="back"/><feBlend in="SourceGraphic" in2="back" mode="normal"/></filter></defs><mask maskUnits="userSpaceOnUse" x="48.07" y="15.5" width="75.79" height="82.6" id="SVGID_1_"><g filter="url(#Adobe_OpacityMaskFilter)"><defs><filter id="Adobe_OpacityMaskFilter_1_" x="48.07" y="15.5" width="75.79" height="82.6" filterUnits="userSpaceOnUse" primitiveUnits="userSpaceOnUse"><feFlood flood-color="#FFFFFF" result="back"/><feBlend in="SourceGraphic" in2="back" mode="normal"/></filter></defs><mask maskUnits="userSpaceOnUse" x="48.07" y="15.5" width="75.79" height="82.6" id="SVGID_1_"><g filter="url(#Adobe_OpacityMaskFilter_1_)"></g></mask><linearGradient x1="58.3571" y1="27.7631" x2="90.3576" y2="64.7637" gradientUnits="userSpaceOnUse" id="SVGID_2_"><stop offset="0.00221549" stop-color="#FFFFFF"/><stop offset="0.1645" stop-color="#FCFCFC"/><stop offset="0.2947" stop-color="#F2F2F2"/><stop offset="0.4138" stop-color="#E1E1E1"/><stop offset="0.5262" stop-color="#C9C9C9"/><stop offset="0.6341" stop-color="#AAAAAA"/><stop offset="0.7384" stop-color="#858585"/><stop offset="0.8401" stop-color="#585858"/><stop offset="0.937" stop-color="#252525"/><stop offset="1"/></linearGradient><path d="M123.86 29.88C115.81 20.97 105 15.5 93.1 15.5 68.23 15.5 48.07 39.35 48.07 68.78 48.07 79.62 50.81 89.69 55.51 98.1 78.3 75.37 101.1 52.64 123.86 29.88Z" fill="url(#SVGID_2_)" mask="url(#SVGID_1_)"/></g></mask><linearGradient x1="58.3571" y1="27.7631" x2="90.3576" y2="64.7637" gradientUnits="userSpaceOnUse" id="SVGID_3_"><stop offset="0.00221549" stop-color="#FFFFFF"/><stop offset="0.9102" stop-color="#FFFFFF"/><stop offset="1" stop-color="#FFFFFF"/></linearGradient><ellipse cx="93.54" cy="66.25" rx="56" ry="66.25" fill="#84A1A7"/><ellipse cx="93.54" cy="67" rx="49.45" ry="58.5" fill="#294650"/><ellipse cx="93.54" cy="67" rx="47.76" ry="56.5" fill="#E2F3FE"/><path d="M123.86 29.88C115.81 20.97 105 15.5 93.1 15.5 68.23 15.5 48.07 39.35 48.07 68.78 48.07 79.62 50.81 89.69 55.51 98.1 78.3 75.37 101.1 52.64 123.86 29.88Z" fill="url(#SVGID_3_)"/><path d="M92.37 1.33C92.37 1.33 90.25 1.71 86.69 2.87 85.8 3.15 84.82 3.49 83.77 3.9 82.71 4.28 81.59 4.76 80.4 5.28 79.19 5.76 77.98 6.43 76.67 7.06 75.37 7.72 74.05 8.49 72.65 9.26 71.32 10.14 69.88 10.97 68.49 11.97 67.13 13.01 65.62 13.96 64.27 15.19 63.57 15.78 62.87 16.37 62.15 16.97 61.44 17.58 60.8 18.28 60.11 18.94 59.44 19.62 58.73 20.27 58.06 20.98 57.42 21.72 56.77 22.46 56.12 23.2 53.51 26.18 51.23 29.6 49.12 33.19L48.71 33.86C48.65 33.95 48.55 34.12 48.53 34.16L48.35 34.52 47.65 35.95C47.18 36.9 46.71 37.86 46.24 38.82 45.99 39.3 45.79 39.78 45.61 40.27L45.05 41.74 43.93 44.67 43.04 47.71C42.77 48.73 42.4 49.72 42.21 50.76 42 51.79 41.8 52.82 41.59 53.85L41.28 55.39C41.19 55.9 41.15 56.42 41.09 56.94 40.86 59.01 40.55 61.05 40.53 63.1 40.49 64.12 40.44 65.13 40.4 66.14 40.43 67.15 40.46 68.15 40.5 69.14 40.55 70.13 40.52 71.12 40.65 72.09 40.75 73.06 40.85 74.02 40.95 74.97 41 75.45 41.05 75.92 41.09 76.39 41.16 76.86 41.25 77.32 41.32 77.78 41.48 78.7 41.64 79.61 41.79 80.51 42.1 82.31 42.62 84.01 42.99 85.69 43.44 87.35 43.98 88.92 44.44 90.44 44.98 91.94 45.57 93.35 46.08 94.71 46.65 96.05 47.26 97.29 47.8 98.47 49.01 100.76 50.09 102.77 51.17 104.29 51.7 105.06 52.13 105.78 52.58 106.35 53.03 106.92 53.41 107.41 53.72 107.8 54.34 108.59 54.67 109.01 54.67 109.01 54.67 109.01 54.31 108.61 53.63 107.87 53.29 107.5 52.87 107.04 52.38 106.49 51.88 105.95 51.42 105.25 50.84 104.5 49.67 103.02 48.47 101.06 47.13 98.8 46.52 97.64 45.84 96.41 45.19 95.09 44.6 93.74 43.96 92.32 43.35 90.82 42.82 89.29 42.21 87.71 41.69 86.04 41.46 85.2 41.22 84.34 40.98 83.47 40.75 82.6 40.47 81.72 40.32 80.8 40.14 79.89 39.95 78.96 39.76 78.03 39.67 77.56 39.56 77.09 39.48 76.61 39.42 76.13 39.35 75.65 39.29 75.16 39.03 73.22 38.76 71.24 38.72 69.2 38.67 68.18 38.62 67.16 38.57 66.13 38.6 65.1 38.62 64.05 38.65 63.01 38.63 60.91 38.92 58.8 39.15 56.68 39.21 56.15 39.25 55.61 39.34 55.08L39.65 53.5C39.86 52.44 40.06 51.38 40.27 50.32 40.46 49.25 40.83 48.23 41.11 47.17 41.41 46.13 41.69 45.07 42.02 44.03L43.21 40.96 43.81 39.43C44 38.91 44.21 38.41 44.46 37.94 44.94 36.98 45.41 36.03 45.89 35.08L46.6 33.66 46.78 33.3C46.88 33.1 46.93 33.05 47 32.92L47.42 32.24C49.59 28.55 52.04 25.1 54.76 22.07 55.44 21.31 56.12 20.56 56.79 19.82 57.48 19.1 58.23 18.44 58.94 17.77 59.67 17.11 60.34 16.42 61.09 15.81 61.84 15.21 62.57 14.62 63.3 14.04 64.02 13.45 64.74 12.88 65.5 12.39 66.25 11.88 66.98 11.38 67.71 10.88 69.17 9.91 70.67 9.11 72.05 8.28 73.5 7.56 74.86 6.81 76.22 6.21 77.59 5.64 78.84 5.03 80.09 4.61 81.32 4.15 82.47 3.72 83.56 3.4 84.64 3.04 85.64 2.75 86.55 2.52 88.36 2.02 89.82 1.76 90.81 1.58 91.84 1.39 92.37 1.33 92.37 1.33Z" fill="#FFFFFF"/><path d="M94.61 131.67C94.61 131.67 96.73 131.29 100.29 130.13 101.18 129.85 102.16 129.51 103.21 129.1 104.27 128.72 105.39 128.24 106.58 127.72 107.79 127.24 109 126.57 110.32 125.94 111.62 125.28 112.94 124.51 114.34 123.74 115.67 122.86 117.11 122.03 118.5 121.03 119.86 119.99 121.37 119.04 122.72 117.81 123.42 117.22 124.12 116.63 124.84 116.03 125.55 115.42 126.19 114.72 126.88 114.06 127.55 113.38 128.26 112.73 128.93 112.02 129.57 111.28 130.21 110.54 130.86 109.8 133.47 106.82 135.75 103.4 137.86 99.81L138.27 99.14C138.33 99.05 138.43 98.88 138.45 98.84L138.62 98.48 139.32 97.05C139.79 96.1 140.26 95.14 140.73 94.18 140.98 93.7 141.18 93.22 141.36 92.73L141.92 91.26 143.04 88.33 143.93 85.29C144.2 84.27 144.57 83.28 144.76 82.24 144.97 81.21 145.17 80.18 145.38 79.15L145.69 77.61C145.78 77.1 145.82 76.58 145.88 76.06 146.11 73.99 146.42 71.95 146.43 69.9 146.47 68.88 146.52 67.87 146.56 66.86 146.53 65.85 146.5 64.85 146.46 63.86 146.4 62.87 146.44 61.88 146.31 60.91 146.21 59.94 146.11 58.98 146.01 58.03 145.96 57.55 145.91 57.08 145.87 56.61 145.8 56.14 145.71 55.68 145.64 55.22 145.48 54.3 145.32 53.39 145.17 52.49 144.86 50.69 144.35 48.99 143.97 47.31 143.52 45.65 142.98 44.08 142.52 42.56 141.98 41.06 141.39 39.65 140.88 38.29 140.31 36.95 139.7 35.71 139.16 34.53 137.95 32.23 136.87 30.23 135.79 28.71 135.26 27.94 134.84 27.22 134.39 26.65 133.94 26.08 133.56 25.59 133.25 25.2 132.63 24.41 132.3 23.99 132.3 23.99 132.3 23.99 132.66 24.39 133.34 25.13 133.68 25.5 134.1 25.96 134.59 26.51 135.09 27.05 135.55 27.75 136.13 28.5 137.31 29.98 138.5 31.94 139.84 34.2 140.45 35.36 141.13 36.59 141.79 37.91 142.38 39.26 143.02 40.68 143.63 42.18 144.16 43.71 144.77 45.29 145.29 46.96 145.52 47.8 145.76 48.66 146 49.53 146.23 50.4 146.51 51.28 146.66 52.2 146.84 53.11 147.03 54.04 147.22 54.97 147.31 55.44 147.42 55.91 147.5 56.39 147.56 56.87 147.62 57.35 147.69 57.84 147.95 59.78 148.22 61.76 148.26 63.8 148.31 64.82 148.36 65.84 148.41 66.87 148.38 67.9 148.36 68.95 148.33 69.99 148.35 72.09 148.06 74.2 147.83 76.32 147.77 76.85 147.72 77.39 147.64 77.92L147.33 79.5C147.12 80.56 146.92 81.62 146.71 82.68 146.52 83.75 146.15 84.77 145.87 85.83 145.57 86.87 145.29 87.93 144.96 88.97L143.77 92.04 143.17 93.57C142.98 94.09 142.77 94.59 142.52 95.06 142.04 96.02 141.57 96.97 141.1 97.92L140.39 99.34 140.21 99.7C140.11 99.9 140.06 99.95 139.98 100.08L139.56 100.76C137.39 104.45 134.94 107.9 132.22 110.93 131.54 111.69 130.86 112.44 130.19 113.18 129.5 113.9 128.75 114.56 128.04 115.23 127.32 115.89 126.64 116.58 125.9 117.19 125.15 117.79 124.41 118.38 123.69 118.96 122.97 119.55 122.25 120.12 121.49 120.61 120.74 121.12 120.01 121.62 119.28 122.12 117.82 123.09 116.32 123.89 114.94 124.72 113.48 125.44 112.12 126.19 110.77 126.79 109.4 127.36 108.14 127.97 106.9 128.39 105.67 128.85 104.52 129.28 103.43 129.6 102.35 129.96 101.35 130.25 100.44 130.48 98.63 130.98 97.17 131.24 96.18 131.42 95.15 131.61 94.61 131.67 94.61 131.67Z" fill="#758E93"/></g><g><path d="M160.66 271 27.16 271C22.47 271 18.66 273.8 18.66 277.25 18.66 280.7 22.47 283.5 27.16 283.5L55.45 283.5C54.78 284.3 54.41 285.14 54.41 286 54.41 292.08 72.1 297 93.91 297 115.73 297 133.41 292.08 133.41 286 133.41 285.14 133.04 284.3 132.37 283.5L160.66 283.5C165.36 283.5 169.16 280.7 169.16 277.25 169.16 273.8 165.36 271 160.66 271Z" fill="#B6D8E1"/><g><path d="M184.76 173.33C184.76 173.31 184.75 173.28 184.75 173.26 184.72 172.89 184.68 172.55 184.61 172.23 184.6 172.19 184.6 172.15 184.59 172.1 184.06 169.53 182.58 168.5 182.58 168.5 182.58 168.5 152.41 146.7 148.86 144.65 145.3 142.6 143.25 142.98 143.25 142.98L99.93 142.98 99.93 290.62C101.56 290.63 103.28 290.59 105.03 290.48L107.49 289.98C123.99 286.48 122.49 273.48 122.49 273.48L116.34 201.32 166.24 201.32C166.71 201.3 167.16 201.28 167.59 201.25 167.83 201.28 168.06 201.31 168.24 201.32 170.41 201.45 173.57 200.68 175.24 199.01 176.91 197.34 183.57 181.83 184.57 176.18 184.66 175.69 184.7 175.23 184.74 174.79 184.75 174.69 184.75 174.6 184.76 174.51 184.79 174.11 184.79 173.71 184.76 173.33Z" fill="#B6D8E1"/><g><defs><filter id="Adobe_OpacityMaskFilter_4_" x="71.97" y="208.72" width="16.07" height="79.29" filterUnits="userSpaceOnUse" primitiveUnits="userSpaceOnUse"><feFlood flood-color="#FFFFFF" result="back"/><feBlend in="SourceGraphic" in2="back" mode="normal"/></filter></defs><mask maskUnits="userSpaceOnUse" x="71.97" y="208.72" width="16.07" height="79.29" id="SVGID_7_"><g filter="url(#Adobe_OpacityMaskFilter_4_)"><defs><filter id="Adobe_OpacityMaskFilter_5_" x="71.97" y="208.72" width="16.07" height="79.29" filterUnits="userSpaceOnUse" primitiveUnits="userSpaceOnUse"><feFlood flood-color="#FFFFFF" result="back"/><feBlend in="SourceGraphic" in2="back" mode="normal"/></filter></defs><mask maskUnits="userSpaceOnUse" x="71.97" y="208.72" width="16.07" height="79.29" id="SVGID_7_"><g filter="url(#Adobe_OpacityMaskFilter_5_)"></g></mask><linearGradient x1="62.2113" y1="247.747" x2="82.2123" y2="248.414" gradientUnits="userSpaceOnUse" id="SVGID_8_"><stop offset="0.00221549" stop-color="#FFFFFF"/><stop offset="0.1645" stop-color="#FCFCFC"/><stop offset="0.2947" stop-color="#F2F2F2"/><stop offset="0.4138" stop-color="#E1E1E1"/><stop offset="0.5262" stop-color="#C9C9C9"/><stop offset="0.6341" stop-color="#AAAAAA"/><stop offset="0.7384" stop-color="#858585"/><stop offset="0.8401" stop-color="#585858"/><stop offset="0.937" stop-color="#252525"/><stop offset="1"/></linearGradient><path d="M77.43 208.72 72.04 271.33C72.04 271.33 71.04 279 76.71 283.66 76.71 283.66 80.04 286.99 84.04 287.99 88.04 288.99 88.04 209.66 88.04 209.66L77.43 208.72Z" fill="url(#SVGID_8_)" mask="url(#SVGID_7_)"/></g></mask><linearGradient x1="62.2113" y1="247.747" x2="82.2123" y2="248.414" gradientUnits="userSpaceOnUse" id="SVGID_9_"><stop offset="0.00221549" stop-color="#FFFFFF"/><stop offset="0.9102" stop-color="#FFFFFF"/><stop offset="1" stop-color="#FFFFFF"/></linearGradient><path d="M118.5 273.5 111 185.5 78.04 185.5 70.54 273.5C70.54 273.5 69.04 286.5 85.54 290L88 290.5C90.27 290.64 92.49 290.66 94.52 290.62 96.55 290.66 98.77 290.64 101.04 290.5L103.5 290C120 286.5 118.5 273.5 118.5 273.5Z" fill="#E2F3FE"/><path d="M118.5 273.5 111 185.5 94.33 185.5 94.33 290.62C94.39 290.62 94.46 290.62 94.52 290.62 96.55 290.66 98.77 290.64 101.04 290.5L103.5 290C120 286.5 118.5 273.5 118.5 273.5Z" fill="#C9E8FB"/><path d="M112.72 205.7 111 185.5 78.04 185.5 76.32 205.7Z" fill="#C9E8FB"/><g><defs><filter id="Adobe_OpacityMaskFilter_2_" x="31.16" y="147.14" width="129.41" height="24.38" filterUnits="userSpaceOnUse" primitiveUnits="userSpaceOnUse"><feFlood flood-color="#FFFFFF" result="back"/><feBlend in="SourceGraphic" in2="back" mode="normal"/></filter></defs><mask maskUnits="userSpaceOnUse" x="31.16" y="147.14" width="129.41" height="24.38" id="SVGID_4_"><g filter="url(#Adobe_OpacityMaskFilter_2_)"><defs><filter id="Adobe_OpacityMaskFilter_3_" x="31.16" y="147.14" width="129.41" height="24.38" filterUnits="userSpaceOnUse" primitiveUnits="userSpaceOnUse"><feFlood flood-color="#FFFFFF" result="back"/><feBlend in="SourceGraphic" in2="back" mode="normal"/></filter></defs><mask maskUnits="userSpaceOnUse" x="31.16" y="147.14" width="129.41" height="24.38" id="SVGID_4_"><g filter="url(#Adobe_OpacityMaskFilter_3_)"></g></mask><linearGradient x1="95.8668" y1="134.501" x2="95.8668" y2="183.083" gradientUnits="userSpaceOnUse" id="SVGID_5_"><stop offset="0.00221549" stop-color="#FFFFFF"/><stop offset="0.1645" stop-color="#FCFCFC"/><stop offset="0.2947" stop-color="#F2F2F2"/><stop offset="0.4138" stop-color="#E1E1E1"/><stop offset="0.5262" stop-color="#C9C9C9"/><stop offset="0.6341" stop-color="#AAAAAA"/><stop offset="0.7384" stop-color="#858585"/><stop offset="0.8401" stop-color="#585858"/><stop offset="0.937" stop-color="#252525"/><stop offset="1"/></linearGradient><path d="M33.29 155.5C33.29 155.5 40.79 150.5 42.04 152.5 43.29 154.5 48.54 170.25 48.54 170.25 48.54 170.25 50.54 172.75 50.79 170.75 51.04 168.75 46.54 151.25 46.54 151.25 46.54 151.25 47.29 149 50.79 148.75 54.29 148.5 125.21 148.75 125.21 148.75 125.21 148.75 133.04 149 132.54 152.33 132.04 155.66 130.21 170.16 130.21 170.16 130.21 170.16 130.71 172.33 131.71 170.83 132.71 169.33 136.64 153.32 136.64 153.32 136.64 153.32 136.88 151.84 139.21 153 141.54 154.17 158.71 164.33 158.71 164.33 158.71 164.33 160.88 165.66 160.54 164.5 160.21 163.33 139.04 149.83 139.04 149.83 139.04 149.83 134.04 146.83 125.37 147.16 116.7 147.49 48.37 147.16 48.37 147.16 48.37 147.16 43.7 146.99 39.37 149.83 35.04 152.66 28.04 156.5 32.7 155.66 37.37 154.83 33.29 155.5 33.29 155.5Z" fill="url(#SVGID_5_)" mask="url(#SVGID_4_)"/></g></mask><linearGradient x1="95.8668" y1="134.501" x2="95.8668" y2="183.083" gradientUnits="userSpaceOnUse" id="SVGID_6_"><stop offset="0.00221549" stop-color="#FFFFFF"/><stop offset="0.9102" stop-color="#FFFFFF"/><stop offset="1" stop-color="#FFFFFF"/></linearGradient><path d="M178.58 168.51C178.58 168.51 148.41 146.71 144.86 144.66 141.3 142.61 139.25 142.99 139.25 142.99L93.29 142.99 87.5 142.99 41.54 142.99C41.54 142.99 39.48 142.6 35.93 144.66 32.37 146.71 2.21 168.51 2.21 168.51 2.21 168.51-0.79 170.56 0.21 176.2 1.21 181.84 7.88 197.36 9.54 199.03 11.21 200.7 14.37 201.47 16.54 201.34 16.72 201.33 16.94 201.3 17.17 201.27 17.59 201.3 18.02 201.32 18.48 201.34L85.8 201.34 94.93 201.34 162.25 201.34C162.72 201.32 163.17 201.3 163.6 201.27 163.84 201.3 164.07 201.33 164.25 201.34 166.42 201.47 169.58 200.7 171.25 199.03 172.92 197.36 179.58 181.85 180.58 176.2 181.58 170.56 178.58 168.51 178.58 168.51Z" fill="#E2F3FE"/><g><path d="M180.35 171.17C179.95 177.03 175.79 183.81 173.91 188.15 172.32 191.83 170.09 195.94 165.99 197.27 165.09 197.56 164.16 197.74 163.23 197.87 161.83 198.28 160.79 198.24 160.79 198.24 160.79 198.24 37.04 198.24 24.54 198.24 12.04 198.24 8.34 192.47 8.34 192.47L2.29 183.13C4.7 189.77 8.37 197.85 9.55 199.03 11.22 200.7 14.38 201.47 16.55 201.34 16.73 201.33 16.95 201.3 17.18 201.27 17.6 201.3 18.03 201.32 18.49 201.34L162.25 201.34C162.72 201.32 163.17 201.3 163.6 201.27 163.84 201.3 164.07 201.33 164.25 201.34 166.42 201.47 169.58 200.7 171.25 199.03 172.92 197.36 179.58 181.85 180.58 176.2 180.97 174.01 180.75 172.37 180.35 171.17Z" fill="#CFDDE6"/></g><path d="M165.25 164.75 142.99 149.27C137.93 145.63 130.85 146.08 130.85 146.08L92.06 146.08 88.68 146.08 49.89 146.08C49.89 146.08 42.81 145.62 37.75 149.27L15.49 164.75C15.49 164.75 5.71 171.58 21.22 172.03L85.98 172.03 94.76 172.03 159.52 172.03C175.03 171.58 165.25 164.75 165.25 164.75Z" fill="#C9E8FB"/><path d="M2.04 170.88C2.04 170.88-0.46 175.88 9.29 177.61L140.54 177.61 17.29 176.26C17.29 176.27 2.79 177.04 2.04 170.88Z" fill="#FFFFFF"/><path d="M33.29 155.5C33.29 155.5 40.79 150.5 42.04 152.5 43.29 154.5 48.54 170.25 48.54 170.25 48.54 170.25 50.54 172.75 50.79 170.75 51.04 168.75 46.54 151.25 46.54 151.25 46.54 151.25 47.29 149 50.79 148.75 54.29 148.5 125.21 148.75 125.21 148.75 125.21 148.75 133.04 149 132.54 152.33 132.04 155.66 130.21 170.16 130.21 170.16 130.21 170.16 130.71 172.33 131.71 170.83 132.71 169.33 136.64 153.32 136.64 153.32 136.64 153.32 136.88 151.84 139.21 153 141.54 154.17 158.71 164.33 158.71 164.33 158.71 164.33 160.88 165.66 160.54 164.5 160.21 163.33 139.04 149.83 139.04 149.83 139.04 149.83 134.04 146.83 125.37 147.16 116.7 147.49 48.37 147.16 48.37 147.16 48.37 147.16 43.7 146.99 39.37 149.83 35.04 152.66 28.04 156.5 32.7 155.66 37.37 154.83 33.29 155.5 33.29 155.5Z" fill="url(#SVGID_6_)"/></g><path d="M77.43 208.72 72.04 271.33C72.04 271.33 71.04 279 76.71 283.66 76.71 283.66 80.04 286.99 84.04 287.99 88.04 288.99 88.04 209.66 88.04 209.66L77.43 208.72Z" fill="url(#SVGID_9_)"/></g><g><defs><filter id="Adobe_OpacityMaskFilter_8_" x="31.79" y="138.75" width="3.63" height="6.54" filterUnits="userSpaceOnUse" primitiveUnits="userSpaceOnUse"><feFlood flood-color="#FFFFFF" result="back"/><feBlend in="SourceGraphic" in2="back" mode="normal"/></filter></defs><mask maskUnits="userSpaceOnUse" x="31.79" y="138.75" width="3.63" height="6.54" id="SVGID_13_"><g filter="url(#Adobe_OpacityMaskFilter_8_)"><defs><filter id="Adobe_OpacityMaskFilter_9_" x="31.79" y="138.75" width="3.63" height="6.54" filterUnits="userSpaceOnUse" primitiveUnits="userSpaceOnUse"><feFlood flood-color="#FFFFFF" result="back"/><feBlend in="SourceGraphic" in2="back" mode="normal"/></filter></defs><mask maskUnits="userSpaceOnUse" x="31.79" y="138.75" width="3.63" height="6.54" id="SVGID_13_"><g filter="url(#Adobe_OpacityMaskFilter_9_)"></g></mask><linearGradient x1="28.5545" y1="139.548" x2="33.9948" y2="142.04" gradientUnits="userSpaceOnUse" id="SVGID_14_"><stop offset="0.00221549" stop-color="#FFFFFF"/><stop offset="0.1645" stop-color="#FCFCFC"/><stop offset="0.2947" stop-color="#F2F2F2"/><stop offset="0.4138" stop-color="#E1E1E1"/><stop offset="0.5262" stop-color="#C9C9C9"/><stop offset="0.6341" stop-color="#AAAAAA"/><stop offset="0.7384" stop-color="#858585"/><stop offset="0.8401" stop-color="#585858"/><stop offset="0.937" stop-color="#252525"/><stop offset="1"/></linearGradient><path d="M34.33 138.75C34.33 138.75 32.93 138.75 32.15 140.36 31.38 141.97 31.83 144.96 33.45 145.27 35.07 145.59 36.47 138.75 34.33 138.75Z" fill="url(#SVGID_14_)" mask="url(#SVGID_13_)"/></g></mask><linearGradient x1="28.5545" y1="139.548" x2="33.9948" y2="142.04" gradientUnits="userSpaceOnUse" id="SVGID_15_"><stop offset="0.00221549" stop-color="#FFFFFF"/><stop offset="0.9102" stop-color="#FFFFFF"/><stop offset="1" stop-color="#FFFFFF"/></linearGradient><g><path d="M46.29 144.69C45.47 144.23 43.8 143.92 41.86 143.92 39.92 143.92 38.25 144.24 37.43 144.69L36.88 144.69 36.88 145.32C36.88 146.1 39.11 146.72 41.86 146.72 44.61 146.72 46.84 146.09 46.84 145.32L46.84 144.69 46.29 144.69Z" fill="#3A3F41"/><g><defs><filter id="Adobe_OpacityMaskFilter_6_" x="39.64" y="112.98" width="21.62" height="31.54" filterUnits="userSpaceOnUse" primitiveUnits="userSpaceOnUse"><feFlood flood-color="#FFFFFF" result="back"/><feBlend in="SourceGraphic" in2="back" mode="normal"/></filter></defs><mask maskUnits="userSpaceOnUse" x="39.64" y="112.98" width="21.62" height="31.54" id="SVGID_10_"><g filter="url(#Adobe_OpacityMaskFilter_6_)"><defs><filter id="Adobe_OpacityMaskFilter_7_" x="39.64" y="112.98" width="21.62" height="31.54" filterUnits="userSpaceOnUse" primitiveUnits="userSpaceOnUse"><feFlood flood-color="#FFFFFF" result="back"/><feBlend in="SourceGraphic" in2="back" mode="normal"/></filter></defs><mask maskUnits="userSpaceOnUse" x="39.64" y="112.98" width="21.62" height="31.54" id="SVGID_10_"><g filter="url(#Adobe_OpacityMaskFilter_7_)"></g></mask><linearGradient x1="30.789" y1="120.417" x2="51.5656" y2="129.214" gradientUnits="userSpaceOnUse" id="SVGID_11_"><stop offset="0.00221549" stop-color="#FFFFFF"/><stop offset="0.1645" stop-color="#FCFCFC"/><stop offset="0.2947" stop-color="#F2F2F2"/><stop offset="0.4138" stop-color="#E1E1E1"/><stop offset="0.5262" stop-color="#C9C9C9"/><stop offset="0.6341" stop-color="#AAAAAA"/><stop offset="0.7384" stop-color="#858585"/><stop offset="0.8401" stop-color="#585858"/><stop offset="0.937" stop-color="#252525"/><stop offset="1"/></linearGradient><path d="M39.64 143.85 39.64 132.71C39.64 132.71 39.17 118.39 49.84 114.65 49.84 114.65 55.74 111.94 61.26 113.43 61.26 113.43 49.47 112.78 45.26 119.7 45.26 119.7 42.27 122.41 42.08 128.5 41.89 134.58 42.08 144.5 42.08 144.5 42.08 144.5 40.2 144.69 39.64 143.85Z" fill="url(#SVGID_11_)" mask="url(#SVGID_10_)"/></g></mask><linearGradient x1="30.789" y1="120.417" x2="51.5656" y2="129.214" gradientUnits="userSpaceOnUse" id="SVGID_12_"><stop offset="0.00221549" stop-color="#FFFFFF"/><stop offset="0.9102" stop-color="#FFFFFF"/><stop offset="1" stop-color="#FFFFFF"/></linearGradient><path d="M46.85 144.69C46.85 145.47 44.62 146.09 41.87 146.09 39.12 146.09 36.89 145.46 36.89 144.69 36.89 143.91 39.12 143.29 41.87 143.29 44.62 143.29 46.85 143.92 46.85 144.69Z" fill="#889298"/><path d="M45.35 144.68C45.35 145.28 43.79 145.77 41.86 145.77 39.93 145.77 38.37 145.28 38.37 144.68 38.37 144.08 39.93 143.59 41.86 143.59 43.79 143.59 45.35 144.08 45.35 144.68Z" fill="#626A6E"/><path d="M60.73 112.66C60.6 112.63 60.47 112.61 60.33 112.6 53.49 112.09 48.1 113.68 44.32 117.35 38.87 122.63 38.92 130.27 38.94 131.17L38.94 144.46C40.32 145.47 42.86 145.78 44.56 144.69L44.56 131.12C44.56 131.08 44.56 131.04 44.56 131 44.56 130.94 44.41 125.08 48.23 121.38 50.77 118.92 54.6 117.85 59.64 118.18 60.45 118.46 65.2 119.47 66.02 129.02 67.71 129.85 69.88 129.59 71.65 128.73 70.04 114.92 61.16 112.76 60.73 112.66Z" fill="#9BA6AD"/><path d="M39.64 143.85 39.64 132.71C39.64 132.71 39.17 118.39 49.84 114.65 49.84 114.65 55.74 111.94 61.26 113.43 61.26 113.43 49.47 112.78 45.26 119.7 45.26 119.7 42.27 122.41 42.08 128.5 41.89 134.58 42.08 144.5 42.08 144.5 42.08 144.5 40.2 144.69 39.64 143.85Z" fill="url(#SVGID_12_)"/></g></g><path d="M38.69 139.12C37.18 138.62 34.72 138.47 34.72 138.47L34.72 146.16C35.49 146.12 38.58 144.93 38.58 144.93 39.77 144.93 40.73 143.63 40.73 142.02 40.72 140.46 39.82 139.2 38.69 139.12Z" fill="#747D82"/><path d="M34.72 142.77 34.72 146.15C35.49 146.11 38.58 144.92 38.58 144.92 39.77 144.92 40.73 143.62 40.73 142.01 40.73 141.94 40.72 141.87 40.71 141.79 38.68 142.05 36.65 142.23 34.72 142.77Z" fill="#626A6E"/><path d="M37.28 142.33C37.28 144.46 36.01 146.19 34.44 146.19 32.87 146.19 31.6 144.46 31.6 142.33 31.6 140.2 32.87 138.47 34.44 138.47 36.01 138.47 37.28 140.2 37.28 142.33Z" fill="#9BA6AD"/><path d="M36.22 142.19C36.22 143.7 35.32 144.93 34.2 144.93 33.09 144.93 32.18 143.7 32.18 142.19 32.18 140.68 33.08 139.45 34.2 139.45 35.32 139.45 36.22 140.68 36.22 142.19Z" fill="#626A6E"/><path d="M36.08 142.19C36.08 143.52 35.29 144.6 34.31 144.6 33.33 144.6 32.54 143.52 32.54 142.19 32.54 140.86 33.33 139.78 34.31 139.78 35.29 139.78 36.08 140.86 36.08 142.19Z" fill="#3A3F41"/><path d="M34.33 138.75C34.33 138.75 32.93 138.75 32.15 140.36 31.38 141.97 31.83 144.96 33.45 145.27 35.07 145.59 36.47 138.75 34.33 138.75Z" fill="url(#SVGID_15_)"/></g></g></g></g></svg>