<svg width="136.65" height="97.05" viewBox="0 0 136.65 97.05" xmlns="http://www.w3.org/2000/svg" xmlns:xlink="http://www.w3.org/1999/xlink" xml:space="preserve" overflow="hidden"><defs></defs><g><rect x="2.65" y="5.1" width="130.67" height="89.84" fill="#D4F9F4"/><path d="M11.63 10.82 11.63 50.43 67.37 50.43 67.37 55.13C67.37 55.13 11.63 53.09 11.63 55.13 11.63 57.17 11.46 93.43 11.63 93.59 11.8 93.76 2.44 93.59 2.44 93.59L2.44 3.27 67.37 3.27C67.37 3.27 69.07 11.03 67.37 11.03 65.67 11.03 11.63 10.82 11.63 10.82Z" fill="#69C9C0"/><path d="M78.19 10.82 78.19 50.43 133.93 50.43 133.93 55.13C133.93 55.13 78.19 53.09 78.19 55.13 78.19 57.17 78.02 93.43 78.19 93.59 78.36 93.76 69 93.59 69 93.59L69 3.27 133.93 3.27C133.93 3.27 135.63 11.03 133.93 11.03 132.22 11.03 78.19 10.82 78.19 10.82Z" fill="#69C9C0"/><path d="M0 0 0 97.05 136.65 97.05 136.65 0 0 0ZM130.12 44.48 73.56 44.48 73.56 6.26 130.12 6.26 130.12 44.48ZM65.67 6.26 65.67 44.48 6.54 44.48 6.54 6.26 65.67 6.26ZM6.54 52.38 65.67 52.38 65.67 90.8 6.54 90.8 6.54 52.38ZM73.56 90.79 73.56 52.38 130.12 52.38 130.12 90.8 73.56 90.8Z" fill="#499E92"/></g></svg>