<svg width="231.41" height="253.42" viewBox="0 0 231.41 253.42" xmlns="http://www.w3.org/2000/svg" xmlns:xlink="http://www.w3.org/1999/xlink" xml:space="preserve" overflow="hidden"><defs></defs><g><linearGradient x1="128.906" y1="132.911" x2="85.3953" y2="186.134" gradientUnits="userSpaceOnUse" id="SVGID_1_"><stop offset="0" stop-color="#009574"/><stop offset="1" stop-color="#9FDBBE"/></linearGradient><linearGradient x1="102.819" y1="28.3325" x2="-6.5522" y2="40.7611" gradientUnits="userSpaceOnUse" id="SVGID_3_"><stop offset="0"/><stop offset="1" stop-color="#59C23D"/></linearGradient><linearGradient x1="15.0523" y1="160.124" x2="130.681" y2="133.51" gradientUnits="userSpaceOnUse" id="SVGID_4_"><stop offset="0" stop-color="#80D27C"/><stop offset="0.1092" stop-color="#6FB66C"/><stop offset="0.4316" stop-color="#40693E"/><stop offset="0.6978" stop-color="#1D301C"/><stop offset="0.8944" stop-color="#080D08"/><stop offset="1"/></linearGradient><g><ellipse cx="50.51" cy="239.68" rx="6.43" ry="11.94" fill="#562E4C"/><path d="M56.93 239.68C56.93 246.27 54.05 251.62 50.5 251.62 49.02 251.62 47.66 250.7 46.58 249.14 47.23 249.56 47.93 249.78 48.66 249.78 52.21 249.78 55.09 244.44 55.09 237.84 55.09 233.99 54.11 230.56 52.58 228.38 55.12 229.99 56.93 234.44 56.93 239.68Z" fill="#820C25" opacity="0.29"/><path d="M53.26 237.42C53.26 241.19 51.62 244.24 49.59 244.24 47.56 244.24 45.92 241.19 45.92 237.42 45.92 233.65 47.56 230.6 49.59 230.6 51.62 230.6 53.26 233.65 53.26 237.42Z" fill="#527C74"/></g><g><path d="M82.35 245.17C82.35 249.73 80.36 253.42 77.91 253.42 75.46 253.42 73.47 249.73 73.47 245.17 73.47 240.61 75.46 236.92 77.91 236.92 80.36 236.92 82.35 240.61 82.35 245.17Z" fill="#562E4C"/><path d="M82.35 245.17C82.35 249.73 80.36 253.42 77.91 253.42 76.89 253.42 75.95 252.78 75.2 251.71 75.65 252 76.14 252.15 76.64 252.15 79.09 252.15 81.08 248.46 81.08 243.9 81.08 241.24 80.4 238.87 79.35 237.36 81.09 238.47 82.35 241.55 82.35 245.17Z" fill="#820C25" opacity="0.29"/><path d="M79.81 243.61C79.81 246.21 78.67 248.32 77.27 248.32 75.87 248.32 74.73 246.21 74.73 243.61 74.73 241.01 75.87 238.9 77.27 238.9 78.67 238.9 79.81 241.01 79.81 243.61Z" fill="#527C74"/></g><g><ellipse cx="157.03" cy="230.49" rx="6.43" ry="11.94" fill="#3F2239"/><path d="M163.46 230.49C163.46 237.08 160.58 242.43 157.03 242.43 155.55 242.43 154.19 241.51 153.11 239.95 153.76 240.37 154.46 240.59 155.19 240.59 158.74 240.59 161.62 235.25 161.62 228.65 161.62 224.8 160.64 221.37 159.11 219.19 161.64 220.8 163.46 225.25 163.46 230.49Z" fill="#3F2239" opacity="0.29"/><path d="M159.78 228.23C159.78 232 158.14 235.05 156.11 235.05 154.08 235.05 152.44 232 152.44 228.23 152.44 224.46 154.08 221.41 156.11 221.41 158.14 221.41 159.78 224.47 159.78 228.23Z" fill="#3F2239"/></g><g><path d="M188.87 235.99C188.87 240.55 186.88 244.24 184.43 244.24 181.98 244.24 179.99 240.55 179.99 235.99 179.99 231.43 181.98 227.74 184.43 227.74 186.88 227.74 188.87 231.43 188.87 235.99Z" fill="#3F2239"/><path d="M188.87 235.99C188.87 240.55 186.88 244.24 184.43 244.24 183.41 244.24 182.47 243.6 181.72 242.53 182.17 242.82 182.66 242.97 183.16 242.97 185.61 242.97 187.6 239.28 187.6 234.72 187.6 232.06 186.92 229.69 185.87 228.18 187.62 229.29 188.87 232.37 188.87 235.99Z" fill="#3F2239" opacity="0.29"/><path d="M186.33 234.43C186.33 237.03 185.19 239.14 183.79 239.14 182.39 239.14 181.25 237.03 181.25 234.43 181.25 231.83 182.39 229.72 183.79 229.72 185.2 229.71 186.33 231.82 186.33 234.43Z" fill="#3F2239"/></g><path d="M34.9 130.4 31.22 128.56 17.24 52.31 13.01 29.23 11.02 18.37 16.53 20.2 17.32 24.92 21.99 52.99Z" fill="#3C756B"/><path d="M21.99 52.99 17.24 52.31 13.01 29.23 17.32 24.92Z" fill="#820C25" opacity="0.29"/><path d="M159.78 124.89 157.95 124.89 155.78 84.48 155.24 74.32 153.67 45.01 153.15 35.43 152.44 22.04 156.11 23.88 156.59 37.11 156.88 44.98 157.95 74.51 158.31 84.48Z" fill="#2B544C"/><g><g><path d="M58.36 77.14 51.02 112.03 43.84 90.51 41.83 84.48Z" fill="#FFD55F"/><path d="M51.02 112.03 51.02 86.32C51.02 86.32 51.02 88.16 49.18 89.99 48.07 91.1 45.61 90.87 43.84 90.51L41.83 84.48 58.36 77.13 51.02 112.03Z" fill="#820C8D" opacity="0.34"/><g><ellipse cx="42.24" cy="81.31" rx="7.5" ry="5.36" fill="#FFECBB" transform="matrix(0.2744 -0.9616 0.9616 0.2744 -47.5411 99.6257)"/><path d="M47.4 82.78C46.26 86.76 43.04 89.34 40.19 88.52 38.61 88.07 37.49 86.68 36.99 84.85 37.48 85.33 38.06 85.68 38.72 85.87 41.57 86.68 44.79 84.11 45.93 80.13 46.44 78.35 46.44 76.59 46.04 75.12 47.65 76.72 48.27 79.72 47.4 82.78Z" fill="#820C25" opacity="0.3"/></g><g><ellipse cx="53.58" cy="76.75" rx="8.57" ry="6.43" fill="#EAADCE" transform="matrix(0.2744 -0.9616 0.9616 0.2744 -34.9255 107.21)"/><path d="M59.76 78.51C58.46 83.06 54.64 85.96 51.22 84.99 48.4 84.19 46.74 81 46.98 77.35 47.71 78.79 48.87 79.86 50.34 80.28 53.75 81.25 57.58 78.35 58.88 73.8 59.11 73 59.24 72.21 59.29 71.43 60.26 73.34 60.5 75.92 59.76 78.51Z" fill="#820C25" opacity="0.3"/></g><g><ellipse cx="46.84" cy="70.88" rx="6.7" ry="5.36" fill="#ADF2E7" transform="matrix(0.1946 -0.9809 0.9809 0.1946 -31.8039 103.035)"/><path d="M52.09 71.93C51.37 75.56 48.43 78.03 45.53 77.46 43.8 77.12 42.47 75.77 41.83 73.96 42.41 74.45 43.09 74.79 43.84 74.94 46.74 75.52 49.68 73.04 50.4 69.41 50.69 67.95 50.58 66.52 50.14 65.29 51.8 66.68 52.63 69.24 52.09 71.93Z" fill="#820C25" opacity="0.18"/></g></g><path d="M56.61 93.46 45.51 97.34 52.85 132.24 54.69 132.24 46.77 98.38 54.69 97.34Z" fill="#3C756B"/></g><path d="M214.88 150.6 212.78 157.73 203.47 189.24 198.65 205.54 191.01 231.41 83 238.22 38.57 231.41 34.14 180.05 33.84 176.57 29.38 124.89 96.79 124 168.97 123.05Z" fill="#7AC4B8"/><path d="M211.21 148.76 143.4 154.84 141.32 155.02 88.16 159.78 33.06 126.73 168.97 123.05Z" fill="#FFECBB"/><path d="M200.2 149.73 191.67 150.37 153.35 153.23 146.52 153.74 144.55 153.88 140.4 154.19 90.87 157.89 90.1 157.95 45.91 130.4 110.24 128.37 111 128.35 162.4 126.73 164.36 127.92Z" fill="url(#SVGID_1_)"/><path d="M126.25 136.58 146.52 153.74 90.1 157.95 58.33 138.23 86.81 138.23 90.1 143.16 101.6 143.16 96.67 136.58Z" fill="#13608B" opacity="0.52"/><path d="M153.35 153.23 154.19 153.02 131.18 136.58 142.69 133.3 150.9 134.94 150.9 130.01 164.05 130.01 191.67 150.37Z" fill="#13608B" opacity="0.52"/><g><linearGradient x1="97.9201" y1="21.0554" x2="166.191" y2="101.74" gradientUnits="userSpaceOnUse" id="SVGID_2_"><stop offset="0" stop-color="#FF5956"/><stop offset="1" stop-color="#7F0D43"/></linearGradient><path d="M231.41 44.08 220.39 73.46 203.86 74.13 203.86 44.08 203.82 44.41 202.6 54.48 200.19 74.27 174.48 75.3 170.09 56.28 168.97 51.42 168.97 75.3 157.95 74.51 155.24 74.32 143.25 73.46 143.25 51.42 137.74 73.46 112.03 73.46 108.36 45.91 106.52 73.46 79.48 75.27 78.97 75.3 77.14 74.63 58.77 67.95 58.77 42.24 55.1 66.12 51.71 64.76 30.29 56.2 27.55 55.1 26.1 36.29 25.71 31.22 25.49 33.4 23.88 49.59 21.01 48.63 3.44 42.77 1.84 42.24 0 0 20.99 1.25 68 4.05 92.06 5.48 132.59 7.89 154.27 9.18Z" fill="url(#SVGID_2_)"/><path d="M108.36 44.08 108.36 56.93 106.52 73.46 79.48 75.27 80.81 45.91 80.77 45.89 0 0 20.99 1.25Z" fill="#FFE094"/><path d="M170.8 44.08 170.76 44.81 170.09 56.28 168.97 75.3 157.95 74.51 155.24 74.32 143.25 73.46 143.25 44.08 68 4.05 92.06 5.48 153.15 35.43 156.59 37.11Z" fill="#FFE094"/><path d="M231.41 44.08 220.39 73.46 203.86 73.46 202.6 54.48 202.03 45.91 199.38 44.46 132.59 7.89 154.27 9.18Z" fill="#FFE094"/></g><path d="M203.47 189.24 198.65 205.54 84.48 200.19 34.14 180.05 33.84 176.56 84.48 192.84Z" fill="#FFE094"/><path d="M214.88 150.6 212.78 157.73 212.75 157.73 191 231.36 82.99 238.17 86.31 163.41 33.05 128.51 88.15 161.57 136.42 157.37 96.79 124 168.97 123.05Z" fill="#820C25" opacity="0.43"/><path d="M231.41 44.08 220.39 73.46 203.86 74.13 203.86 73.46 202.6 54.48 200.19 74.27 174.48 75.3 170.09 56.28 168.97 75.3 157.95 74.51 158.31 84.48 155.78 84.48 155.24 74.32 143.25 73.46 143.25 51.42 137.74 73.46 112.03 73.46 108.36 45.91 108.36 56.93 106.52 73.46 79.48 75.27 78.97 75.3 77.14 74.63 77.14 49.59 1.84 5.51 78.97 45.91 80.77 45.89 108.36 45.56 143.25 45.14 153.67 45.01 156.88 44.98 170.76 44.81 199.38 44.46 203.82 44.41 203.86 44.41Z" fill="#820C25" opacity="0.43"/><path d="M56.93 40.41 51.71 64.76 30.29 56.2 25.71 27.55 21.01 48.63 3.44 42.77 1.84 9.18Z" fill="url(#SVGID_3_)" opacity="0.55"/><path d="M53.54 132.38 90.87 157.89 90.1 157.95 45.91 130.4 111 128.35 111.87 130.1Z" fill="#13608B" opacity="0.52"/><path d="M116.43 130.1 144.55 153.88 140.4 154.19 110.24 128.37 111 128.35 162.4 126.73 164.36 127.92Z" fill="#13608B" opacity="0.52"/><path d="M143.4 154.84 141.32 155.02 105.02 125.53 109.59 125.53Z" fill="#FFECBB"/><path d="M59.38 134.66 91.33 134.66 102.74 155.2 91.33 155.2Z" fill="url(#SVGID_4_)" opacity="0.56"/></g></svg>