<svg width="620.9" height="812.93" viewBox="0 0 620.9 812.93" xmlns="http://www.w3.org/2000/svg" xmlns:xlink="http://www.w3.org/1999/xlink" xml:space="preserve" overflow="hidden"><defs></defs><g><g><path d="M277.58 623.11C270.65 561.87 257.96 500.11 267.05 439.15 268.57 428.96 270.67 418.39 267.73 408.52 266.29 403.71 263.72 399.33 261.18 395.01 247.45 371.72 215.1 326.23 201.38 302.93 204.12 301.06 206.5 296.94 209.24 295.07 234.66 325.82 275.91 383.62 294.58 418.89 323.78 384.96 353.88 349.31 364.72 305.88 368.09 306.87 376.58 289.28 379.94 290.27 382.07 318.64 361.88 363.95 345.03 386.88 328.18 409.8 308.65 431.65 299.42 458.56 294.25 473.64 292.57 489.67 291.34 505.57 289.08 534.89 306.58 640.04 311.56 663.66 317.54 692.05 318.3 721.65 312.65 750.11 311 758.4 313.7 763.18 317.83 770.55 325.33 783.94 348.36 783.93 363.36 792.5 318.37 790.91 251.12 792.56 211.07 790.65 250.88 778.05 265.66 772.03 274.59 735.86 283.64 699.09 281.79 660.41 277.58 623.11Z" fill="#724C42"/><path d="M297.93 315.47C292.9 297.87 291.82 279.35 292.39 261.05 295.14 261.68 298.05 261.56 300.74 260.73 294.82 288.13 302.13 318.09 320.01 339.68 329.63 351.3 344.37 361.05 359.04 357.5 352.31 359.13 347.07 375.68 339.52 374.98 335.62 374.62 326.01 362.08 322.98 359.07 310.86 346.99 302.61 331.87 297.93 315.47Z" fill="#724C42"/><path d="M325.13 267.17C327.27 268.11 329.42 269.04 331.56 269.98 309.43 300.6 279.5 325.55 245.4 341.81 244.39 342.29 243.27 342.78 242.19 342.51 241.09 342.24 240.31 341.28 239.63 340.37 238.14 338.41 230.41 335.15 229.28 332.98 244.17 326.78 269.91 316.98 284.41 306.3 288.52 303.27 325.37 267.27 325.13 267.17Z" fill="#724C42"/><path d="M403.46 278.09C405.89 278.1 408.33 278.11 410.76 278.12 409.15 298.49 400.05 317.72 387.87 334.13 375.69 350.54 360.49 364.44 345.15 377.94 352.8 371.2 356.05 357.88 362.12 349.63 367.14 342.8 373.91 338 379.63 331.63 392.89 316.86 401.52 297.88 403.46 278.09Z" fill="#724C42"/><path d="M228.21 360.96C210.23 356.38 191.09 342.26 184.45 335.37 174.28 324.84 166.06 310.05 158.07 297.78 157.07 298.95 155.51 299.61 153.98 299.53 167.64 339.6 212.86 379.86 257.56 376.59 244.98 351.33 246.72 365.67 228.21 360.96Z" fill="#724C42"/><path d="M79.16 391.54C79.17 378.86 81.98 366.18 87.33 354.68 62.08 359.39 35.61 357.39 11.36 348.92 27.75 322.94 51.59 301.73 79.31 288.48 54.21 284.53 29.64 277.27 6.43 266.93 12.01 255.42 23.91 247.22 36.65 246.11 14.34 221.68 1.1 189.16 0 156.09 21.75 142.25 49.4 138.05 74.27 144.82 67.53 135.17 60.79 125.53 54.05 115.88 62.34 112.99 71.36 112.22 80.02 113.64 80.3 87.7 88.75 61.92 103.87 40.84 124.84 40.58 145.73 50.06 159.34 66.01 166.59 51.74 177.25 39.22 190.18 29.78 193.36 36.38 197.82 42.37 203.24 47.3 238.44 13.18 289.15-4.3 337.91 0.9 335.79 14.11 333.66 27.32 331.54 40.52 341.16 32.15 353.69 27.21 366.43 26.75 366.37 34.05 366.32 41.36 366.26 48.66 395.28 41.33 426.14 41.47 455.1 49.05 447.45 51.86 440.4 56.31 434.57 62.02 465.38 63.34 495.7 74.37 520.15 93.15 515.8 94.99 511.44 96.83 507.09 98.67 550.11 107.05 587.87 138.69 603.66 179.58 593.48 176.42 582.46 176.01 572.07 178.4 591.93 196.87 608.54 218.83 620.9 242.98 606.67 241.64 592.44 240.29 578.21 238.95 597.04 269.01 588.02 307.97 578.41 342.12 546.25 325.2 516.93 302.9 492.03 276.42 492.88 296.96 493.74 317.5 494.59 338.04 488.03 327.09 481.48 316.14 474.92 305.2 464.14 328.15 448.5 348.81 429.33 365.42 427.18 347.51 421.28 330.07 412.13 314.53 412.23 327.75 405.87 340.86 395.42 348.95 390.99 333.64 383.55 319.21 373.65 306.72 364.26 322.53 350.6 335.77 334.5 344.67 335.86 331.76 337.23 318.86 338.59 305.95 335.09 316.96 326.46 326.23 315.72 330.49 303.38 313.59 291.03 296.69 278.69 279.8 276.26 302.98 276.63 326.46 279.8 349.55 264.61 329.8 245.61 312.99 224.16 300.33 211.88 328.44 205.77 359.22 206.39 389.88 206.3 385.58 183.32 364.79 179.89 358.57 172.84 345.79 174.38 333.56 158.65 340.12 145.95 345.41 133.12 360.84 121.57 368.89 108.37 378.1 94.52 386.51 79.16 391.54Z" fill="#698445"/><path d="M572.08 178.27C582.47 175.88 593.49 176.29 603.67 179.45 592.25 149.88 569.35 125.16 541.28 110.57 545.31 131.04 547.17 151.94 546.77 172.8 540.95 158.84 528.85 147.65 514.48 142.94 535.32 168.97 544.28 204.15 538.41 236.97 534.79 231.74 531.16 226.5 527.54 221.27 526.8 229.14 526.06 237.01 525.32 244.87 517.87 226.19 500.09 212.03 480.22 208.93 487.93 218.13 493.69 228.95 497.03 240.48 467.93 222.62 432.65 215.06 398.79 219.41 418.71 242.63 427.94 274.67 423.44 304.93 396.49 286.24 372.84 262.81 353.9 236.03 346.11 256 338.31 275.97 330.52 295.95 321.6 272.66 321.67 246.06 330.7 222.81 323.51 231.96 316.32 241.11 309.13 250.26 310.29 230.46 312.66 210.72 316.23 191.21 287.5 192.84 258.69 192.93 229.95 191.48 243.4 211.77 251.14 235.79 252.06 260.12 234.75 243.26 212.15 231.93 188.28 228.14 187.87 261.21 177.06 294.08 157.76 320.94 147.15 303.73 143.91 282.14 148.99 262.57 131.65 279.91 116.5 299.44 104.02 320.56 100.56 292.4 106.85 263.12 121.59 238.87 95.74 238.63 70.3 232.13 47.17 220.71 34.95 214.67 22.92 206.5 9.79 202.71 16.05 218.59 25.14 233.36 36.65 245.97 23.9 247.08 12.01 255.28 6.43 266.79 29.64 277.13 54.21 284.39 79.31 288.34 51.6 301.59 27.75 322.8 11.36 348.78 35.61 357.25 62.08 359.26 87.33 354.54 81.98 366.04 79.18 378.71 79.16 391.4 94.52 386.37 108.37 377.96 121.56 368.76 133.11 360.71 145.94 345.28 158.64 339.99 174.37 333.44 172.82 345.66 179.88 358.44 183.31 364.66 206.3 385.45 206.38 389.75 205.76 359.09 211.87 328.3 224.15 300.2 245.61 312.86 264.61 329.67 279.79 349.42 276.62 326.33 276.25 302.85 278.68 279.67 291.02 296.57 303.37 313.47 315.71 330.36 326.45 326.09 335.08 316.83 338.58 305.82 337.22 318.73 335.85 331.63 334.49 344.54 350.59 335.65 364.25 322.4 373.64 306.59 383.54 319.08 390.98 333.51 395.41 348.82 405.86 340.73 412.23 327.61 412.12 314.4 421.27 329.94 427.17 347.39 429.32 365.29 448.49 348.68 464.13 328.03 474.91 305.07 481.47 316.02 488.02 326.96 494.58 337.91 493.73 317.37 492.88 296.83 492.02 276.29 516.92 302.76 546.24 325.06 578.4 341.99 588.02 307.84 597.04 268.88 578.2 238.82 592.43 240.16 606.66 241.51 620.89 242.85 608.54 218.7 591.94 196.74 572.08 178.27Z" fill="#5D723D"/><g><path d="M143.09 136.03C138.16 141.77 135.22 149.03 133.74 156.45 132.94 160.46 132.53 164.58 133.03 168.64 134.61 181.71 145.85 192.44 158.68 195.38 169.32 197.81 180.97 195.36 189.72 188.86 198.48 182.36 204.19 171.91 204.94 161.03 205.22 156.95 204.83 152.79 203.45 148.94 201.38 143.17 197.17 138.34 192.23 134.73 178.01 124.33 155.38 121.72 143.09 136.03Z" fill="#F49E21"/><path d="M203.44 148.64C201.37 142.87 197.16 138.04 192.22 134.43 186.73 130.41 179.98 127.57 173.05 126.41 174.72 127.32 176.32 128.33 177.82 129.43 182.77 133.05 186.97 137.88 189.04 143.64 190.42 147.49 190.81 151.65 190.53 155.73 189.78 166.61 184.07 177.06 175.31 183.56 167.62 189.27 157.69 191.85 148.18 190.75 151.42 192.75 154.97 194.25 158.66 195.09 169.3 197.52 180.95 195.07 189.7 188.57 198.46 182.07 204.17 171.62 204.92 160.74 205.21 156.65 204.82 152.49 203.44 148.64Z" fill="#ED8514"/><g><path d="M146.12 146.27C145.24 149.82 145.35 153.59 146.5 157.06 146.77 157.88 147.65 158.5 148.53 158.21 149.35 157.95 149.98 157.06 149.68 156.18 148.68 153.18 148.55 150.13 149.3 147.15 149.51 146.31 149.03 145.32 148.15 145.12 147.29 144.92 146.34 145.38 146.12 146.27L146.12 146.27Z" fill="#FFB727"/></g><g><path d="M141.26 162.25C143.39 162.25 143.39 158.95 141.26 158.95 139.13 158.95 139.13 162.25 141.26 162.25L141.26 162.25Z" fill="#FFB727"/></g><g><path d="M139.64 160.6C139.51 164.33 140.64 168.12 142.85 171.13 143.36 171.83 144.31 172.24 145.11 171.72 145.8 171.28 146.25 170.21 145.7 169.46 145.21 168.8 144.78 168.1 144.4 167.37 143.99 166.57 143.84 166.19 143.55 165.26 143.43 164.87 143.32 164.47 143.24 164.07 143.19 163.86 143.15 163.64 143.11 163.43 143.09 163.32 143.07 163.21 143.06 163.11 143.03 162.93 143.03 162.89 143.04 163 143.05 163.11 143.05 163.08 143.03 162.89 143.02 162.78 143.01 162.67 143 162.56 142.98 162.34 142.96 162.12 142.95 161.91 142.93 161.47 142.93 161.03 142.95 160.6 142.98 159.74 142.17 158.91 141.3 158.95 140.37 158.99 139.67 159.67 139.64 160.6L139.64 160.6Z" fill="#FFB727"/></g><g><path d="M150.88 174.45C151.96 176.02 153.41 177.35 155.14 178.16 155.55 178.35 155.96 178.45 156.41 178.33 156.79 178.22 157.21 177.93 157.4 177.57 157.6 177.19 157.7 176.72 157.57 176.3 157.44 175.91 157.19 175.49 156.81 175.31 156.2 175.02 155.62 174.67 155.09 174.26 155.2 174.35 155.31 174.43 155.42 174.52 154.81 174.04 154.26 173.5 153.78 172.88 153.87 172.99 153.95 173.1 154.04 173.21 153.93 173.07 153.83 172.92 153.73 172.78 153.48 172.42 153.17 172.14 152.74 172.02 152.34 171.91 151.82 171.96 151.47 172.19 151.12 172.42 150.81 172.76 150.71 173.18 150.62 173.59 150.63 174.08 150.88 174.45L150.88 174.45Z" fill="#FFB727"/></g><g><path d="M157.51 158.49C158.08 160.19 158.8 161.84 159.64 163.42 160.05 164.18 161.17 164.48 161.9 164.01 162.67 163.51 162.93 162.56 162.49 161.75 162.06 160.95 161.66 160.13 161.31 159.29 161.37 159.42 161.42 159.55 161.48 159.69 161.19 159.01 160.93 158.32 160.69 157.61 160.55 157.2 160.31 156.84 159.93 156.62 159.58 156.41 159.05 156.33 158.66 156.45 157.85 156.72 157.21 157.61 157.51 158.49L157.51 158.49Z" fill="#FFB727"/></g><g><path d="M160.16 143.45C160.13 143.3 160.1 143.15 160.08 143.01 160.1 143.16 160.12 143.3 160.14 143.45 160.08 142.96 160.07 142.46 160.14 141.97 160.12 142.12 160.1 142.26 160.08 142.41 160.15 141.9 160.28 141.4 160.48 140.92 160.42 141.05 160.37 141.18 160.31 141.31 160.35 141.21 160.4 141.11 160.45 141.02 160.65 140.62 160.74 140.19 160.62 139.75 160.51 139.37 160.22 138.95 159.86 138.76 159.48 138.56 159.01 138.46 158.59 138.59 158.2 138.72 157.79 138.97 157.6 139.35 157.4 139.77 157.21 140.2 157.08 140.64 156.95 141.07 156.89 141.52 156.84 141.96 156.74 142.75 156.82 143.55 156.98 144.32 157.06 144.71 157.4 145.11 157.74 145.31 158.09 145.52 158.62 145.6 159.01 145.48 159.9 145.19 160.36 144.35 160.16 143.45L160.16 143.45Z" fill="#FFB727"/></g><g><path d="M175.71 160.89C175.61 159.95 175.52 159 175.42 158.06 175.43 157.83 175.38 157.62 175.28 157.42 175.21 157.21 175.1 157.04 174.94 156.89 174.65 156.6 174.18 156.39 173.77 156.41 173.34 156.43 172.9 156.57 172.6 156.89 172.32 157.19 172.07 157.63 172.12 158.06 172.22 159 172.31 159.95 172.41 160.89 172.4 161.12 172.45 161.33 172.55 161.53 172.62 161.73 172.73 161.91 172.89 162.06 173.18 162.35 173.65 162.56 174.06 162.54 174.49 162.52 174.93 162.38 175.23 162.06 175.5 161.75 175.75 161.31 175.71 160.89L175.71 160.89Z" fill="#FFB727"/></g></g><g><path d="M93.19 261.9C85.72 263.11 78.8 266.76 72.87 271.47 69.67 274.01 66.7 276.91 64.46 280.32 57.24 291.33 58.91 306.78 66.82 317.3 73.38 326.02 83.86 331.66 94.75 332.34 105.64 333.02 116.74 328.72 124.33 320.88 127.18 317.94 129.56 314.51 130.98 310.68 133.12 304.94 133.02 298.53 131.57 292.58 127.43 275.48 111.81 258.89 93.19 261.9Z" fill="#F49E21"/><path d="M131.19 310.45C133.33 304.71 133.23 298.3 131.78 292.35 130.17 285.74 126.85 279.21 122.31 273.86 122.99 275.63 123.57 277.43 124.01 279.24 125.46 285.19 125.56 291.6 123.42 297.34 121.99 301.17 119.61 304.61 116.77 307.54 109.18 315.38 98.08 319.68 87.19 319 77.63 318.4 68.38 313.98 61.82 307 63 310.62 64.76 314.05 67.03 317.08 73.59 325.8 84.07 331.44 94.96 332.12 105.85 332.8 116.95 328.5 124.54 320.66 127.38 317.72 129.76 314.28 131.19 310.45Z" fill="#ED8514"/><g><path d="M89.01 271.61C85.9 273.85 83.57 276.86 82.15 280.42 81.83 281.23 82.5 282.27 83.3 282.45 84.25 282.67 84.99 282.16 85.33 281.3 85.35 281.25 85.48 280.92 85.39 281.15 85.3 281.38 85.45 281.01 85.46 281 85.54 280.83 85.62 280.66 85.7 280.49 85.87 280.13 86.06 279.78 86.26 279.43 86.47 279.07 86.69 278.71 86.92 278.36 87.03 278.2 87.13 278.05 87.24 277.9 87.3 277.82 87.36 277.73 87.43 277.65 87.61 277.4 87.31 277.79 87.44 277.64 87.94 277.02 88.46 276.42 89.04 275.87 89.33 275.59 89.62 275.33 89.92 275.07 90.06 274.95 90.24 274.76 90.41 274.67 90.31 274.72 90.22 274.82 90.37 274.7 90.47 274.63 90.57 274.55 90.67 274.48 91.37 273.98 91.78 273.02 91.26 272.22 90.82 271.51 89.75 271.07 89.01 271.61L89.01 271.61Z" fill="#FFB727"/></g><g><path d="M75.95 281.15C78.08 281.15 78.08 277.85 75.95 277.85 73.83 277.84 73.82 281.15 75.95 281.15L75.95 281.15Z" fill="#FFB727"/></g><g><path d="M74.81 278.34C72.17 281.25 70.62 284.93 70.35 288.85 70.29 289.71 71.15 290.54 72 290.5 72.95 290.46 73.59 289.77 73.65 288.85 73.66 288.64 73.68 288.44 73.7 288.23 73.71 288.13 73.72 288.03 73.74 287.92 73.72 288.1 73.72 288.1 73.75 287.9 73.82 287.49 73.89 287.09 73.99 286.69 74.09 286.29 74.2 285.89 74.33 285.5 74.39 285.3 74.46 285.11 74.53 284.92 74.55 284.87 74.78 284.29 74.65 284.6 74.97 283.84 75.36 283.11 75.81 282.42 76.03 282.07 76.27 281.73 76.52 281.41 76.33 281.66 76.71 281.18 76.74 281.14 76.87 280.98 77.01 280.83 77.15 280.68 77.73 280.04 77.83 278.97 77.15 278.34 76.51 277.76 75.43 277.66 74.81 278.34L74.81 278.34Z" fill="#FFB727"/></g><g><path d="M74.35 296.57C74.16 298.5 74.57 300.41 75.37 302.16 75.53 302.51 76 302.82 76.36 302.92 76.76 303.03 77.28 302.98 77.63 302.75 77.98 302.52 78.29 302.18 78.39 301.76 78.49 301.3 78.42 300.91 78.22 300.49 78.17 300.39 78.13 300.28 78.08 300.18 78.14 300.31 78.19 300.44 78.25 300.57 77.94 299.83 77.74 299.06 77.63 298.26 77.65 298.41 77.67 298.55 77.69 298.7 77.6 297.99 77.59 297.28 77.66 296.57 77.7 296.17 77.45 295.67 77.18 295.4 76.89 295.11 76.42 294.9 76.01 294.92 75.58 294.94 75.14 295.08 74.84 295.4 74.52 295.74 74.4 296.11 74.35 296.57L74.35 296.57Z" fill="#FFB727"/></g><g><path d="M89.64 288.61C89.03 290.15 88.56 291.73 88.22 293.35 88.13 293.79 88.16 294.23 88.39 294.62 88.59 294.96 88.98 295.29 89.38 295.38 90.21 295.57 91.22 295.13 91.41 294.23 91.75 292.61 92.22 291.03 92.83 289.49 92.98 289.12 92.86 288.55 92.66 288.22 92.46 287.88 92.07 287.55 91.67 287.46 91.25 287.36 90.77 287.38 90.4 287.63 90.02 287.87 89.81 288.19 89.64 288.61L89.64 288.61Z" fill="#FFB727"/></g><g><path d="M101.39 278.72C101.54 278.43 101.72 278.15 101.92 277.89 101.83 278 101.75 278.11 101.66 278.22 101.95 277.85 102.28 277.52 102.66 277.22 102.55 277.31 102.44 277.39 102.33 277.48 102.7 277.19 103.11 276.95 103.54 276.76 103.73 276.66 103.89 276.51 104 276.33 104.15 276.17 104.24 275.98 104.3 275.77 104.41 275.37 104.36 274.85 104.13 274.5 103.9 274.15 103.56 273.84 103.14 273.74 102.99 273.72 102.85 273.7 102.7 273.68 102.4 273.68 102.12 273.76 101.87 273.91 101.16 274.22 100.51 274.68 99.95 275.2 99.39 275.72 98.9 276.36 98.54 277.04 98.33 277.43 98.25 277.88 98.37 278.31 98.48 278.69 98.77 279.11 99.13 279.3 99.51 279.5 99.98 279.6 100.4 279.47 100.8 279.35 101.18 279.1 101.39 278.72L101.39 278.72Z" fill="#FFB727"/></g><g><path d="M102.26 301.7C102.79 300.92 103.33 300.13 103.86 299.35 103.98 299.16 104.05 298.96 104.06 298.74 104.11 298.52 104.1 298.3 104.03 298.08 103.92 297.7 103.63 297.28 103.27 297.09 102.89 296.89 102.42 296.79 102 296.92 101.87 296.98 101.74 297.03 101.61 297.09 101.36 297.24 101.16 297.43 101.02 297.68 100.48 298.46 99.95 299.25 99.42 300.03 99.3 300.22 99.23 300.42 99.22 300.64 99.17 300.86 99.18 301.08 99.25 301.3 99.36 301.68 99.65 302.1 100.01 302.29 100.39 302.49 100.86 302.59 101.28 302.46 101.41 302.4 101.54 302.35 101.68 302.29 101.92 302.14 102.11 301.95 102.26 301.7L102.26 301.7Z" fill="#FFB727"/></g></g><g><path d="M458.21 223.65C450.74 224.86 443.82 228.51 437.89 233.22 434.69 235.76 431.72 238.66 429.48 242.07 422.26 253.08 423.93 268.53 431.84 279.05 438.4 287.77 448.88 293.41 459.77 294.09 470.66 294.77 481.76 290.47 489.35 282.63 492.2 279.69 494.58 276.26 496 272.43 498.14 266.69 498.04 260.28 496.59 254.33 492.44 237.23 476.83 220.64 458.21 223.65Z" fill="#F49E21"/><path d="M496.2 272.2C498.34 266.46 498.24 260.05 496.79 254.1 495.18 247.49 491.86 240.96 487.32 235.61 488.01 237.38 488.58 239.18 489.02 240.99 490.47 246.94 490.57 253.35 488.43 259.09 487 262.92 484.62 266.36 481.78 269.29 474.19 277.13 463.09 281.43 452.2 280.75 442.64 280.15 433.39 275.73 426.83 268.75 428.01 272.37 429.77 275.8 432.04 278.83 438.6 287.55 449.08 293.19 459.97 293.87 470.86 294.55 481.96 290.25 489.55 282.41 492.39 279.47 494.77 276.04 496.2 272.2Z" fill="#ED8514"/><g><path d="M454.02 233.36C450.91 235.6 448.58 238.61 447.16 242.17 446.84 242.97 447.51 244.02 448.31 244.2 449.26 244.42 450 243.91 450.34 243.05 450.36 243 450.49 242.67 450.4 242.9 450.31 243.13 450.46 242.76 450.47 242.75 450.55 242.58 450.63 242.41 450.71 242.24 450.88 241.88 451.07 241.53 451.27 241.18 451.48 240.82 451.7 240.46 451.93 240.11 452.04 239.95 452.14 239.8 452.25 239.65 452.31 239.57 452.37 239.48 452.44 239.4 452.62 239.15 452.32 239.54 452.45 239.38 452.95 238.76 453.47 238.16 454.05 237.61 454.34 237.33 454.63 237.07 454.93 236.81 455.07 236.69 455.25 236.5 455.42 236.41 455.32 236.46 455.23 236.56 455.38 236.44 455.48 236.37 455.58 236.29 455.68 236.22 456.38 235.72 456.79 234.76 456.27 233.96 455.83 233.26 454.77 232.82 454.02 233.36L454.02 233.36Z" fill="#FFB727"/></g><g><path d="M440.97 242.9C443.1 242.9 443.1 239.6 440.97 239.6 438.84 239.59 438.84 242.9 440.97 242.9L440.97 242.9Z" fill="#FFB727"/></g><g><path d="M439.82 240.1C437.18 243.01 435.63 246.69 435.36 250.61 435.3 251.47 436.16 252.3 437.01 252.26 437.96 252.22 438.6 251.53 438.66 250.61 438.67 250.4 438.69 250.2 438.71 249.99 438.72 249.89 438.73 249.79 438.75 249.68 438.73 249.86 438.73 249.86 438.76 249.66 438.83 249.25 438.91 248.85 439 248.45 439.1 248.05 439.21 247.65 439.34 247.26 439.4 247.06 439.47 246.87 439.55 246.68 439.57 246.63 439.8 246.05 439.67 246.36 439.99 245.6 440.38 244.87 440.83 244.18 441.05 243.83 441.29 243.49 441.54 243.17 441.35 243.42 441.73 242.94 441.76 242.9 441.89 242.74 442.03 242.59 442.17 242.44 442.75 241.8 442.85 240.73 442.17 240.1 441.52 239.51 440.44 239.41 439.82 240.1L439.82 240.1Z" fill="#FFB727"/></g><g><path d="M439.36 258.32C439.17 260.25 439.58 262.16 440.38 263.91 440.54 264.26 441.01 264.57 441.37 264.67 441.77 264.78 442.29 264.73 442.64 264.5 442.99 264.27 443.3 263.93 443.4 263.51 443.5 263.05 443.43 262.66 443.23 262.24 443.18 262.14 443.14 262.03 443.09 261.93 443.15 262.06 443.2 262.19 443.26 262.32 442.96 261.58 442.75 260.81 442.64 260.01 442.66 260.16 442.68 260.3 442.7 260.45 442.61 259.74 442.6 259.03 442.67 258.32 442.71 257.92 442.46 257.42 442.19 257.15 441.9 256.86 441.43 256.65 441.02 256.67 440.59 256.69 440.15 256.83 439.85 257.15 439.53 257.49 439.41 257.86 439.36 258.32L439.36 258.32Z" fill="#FFB727"/></g><g><path d="M454.65 250.36C454.04 251.9 453.57 253.48 453.23 255.1 453.14 255.54 453.17 255.98 453.4 256.37 453.6 256.71 453.99 257.04 454.39 257.13 455.22 257.32 456.23 256.88 456.42 255.98 456.76 254.36 457.23 252.78 457.84 251.24 457.99 250.87 457.87 250.3 457.67 249.97 457.47 249.63 457.08 249.3 456.68 249.21 456.26 249.11 455.78 249.13 455.41 249.38 455.03 249.62 454.82 249.94 454.65 250.36L454.65 250.36Z" fill="#FFB727"/></g><g><path d="M466.4 240.47C466.55 240.18 466.73 239.9 466.93 239.64 466.84 239.75 466.76 239.86 466.67 239.97 466.96 239.6 467.29 239.27 467.67 238.97 467.56 239.06 467.45 239.14 467.34 239.23 467.71 238.94 468.12 238.7 468.55 238.51 468.74 238.41 468.9 238.26 469.01 238.08 469.16 237.92 469.25 237.73 469.31 237.52 469.42 237.12 469.37 236.6 469.14 236.25 468.91 235.9 468.57 235.59 468.15 235.49 468 235.47 467.86 235.45 467.71 235.43 467.41 235.43 467.13 235.51 466.88 235.66 466.17 235.97 465.52 236.43 464.96 236.95 464.4 237.47 463.91 238.11 463.55 238.79 463.34 239.18 463.26 239.63 463.38 240.06 463.49 240.44 463.78 240.86 464.14 241.05 464.52 241.25 464.99 241.35 465.41 241.22 465.81 241.1 466.2 240.85 466.4 240.47L466.4 240.47Z" fill="#FFB727"/></g><g><path d="M467.27 263.45C467.8 262.67 468.34 261.88 468.87 261.1 468.99 260.91 469.06 260.71 469.07 260.49 469.12 260.27 469.11 260.05 469.04 259.83 468.93 259.45 468.64 259.03 468.28 258.84 467.9 258.64 467.43 258.54 467.01 258.67 466.88 258.73 466.75 258.78 466.61 258.84 466.36 258.99 466.16 259.18 466.02 259.43 465.49 260.21 464.95 261 464.42 261.78 464.3 261.97 464.23 262.17 464.22 262.39 464.17 262.61 464.18 262.83 464.25 263.05 464.36 263.43 464.65 263.85 465.01 264.04 465.39 264.24 465.86 264.34 466.28 264.21 466.41 264.15 466.54 264.1 466.68 264.04 466.93 263.89 467.13 263.7 467.27 263.45L467.27 263.45Z" fill="#FFB727"/></g></g><g><path d="M293.68 178.03C286.21 179.24 279.29 182.89 273.36 187.6 270.16 190.14 267.19 193.04 264.95 196.45 257.73 207.46 259.4 222.91 267.31 233.43 273.87 242.15 284.35 247.79 295.24 248.47 306.13 249.15 317.23 244.85 324.82 237.01 327.67 234.07 330.05 230.64 331.47 226.81 333.61 221.07 333.51 214.66 332.06 208.71 327.91 191.61 312.3 175.02 293.68 178.03Z" fill="#F49E21"/><path d="M331.67 226.59C333.81 220.85 333.71 214.44 332.26 208.49 330.65 201.88 327.33 195.35 322.79 190 323.48 191.77 324.05 193.57 324.49 195.38 325.94 201.33 326.04 207.74 323.9 213.48 322.47 217.31 320.09 220.75 317.25 223.68 309.66 231.52 298.56 235.82 287.67 235.14 278.11 234.54 268.86 230.12 262.3 223.14 263.48 226.76 265.24 230.19 267.51 233.22 274.07 241.94 284.55 247.58 295.44 248.26 306.33 248.94 317.43 244.64 325.02 236.8 327.86 233.85 330.24 230.42 331.67 226.59Z" fill="#ED8514"/><g><path d="M289.49 187.75C286.38 189.99 284.05 193 282.63 196.56 282.31 197.37 282.98 198.41 283.78 198.59 284.73 198.81 285.47 198.3 285.81 197.44 285.83 197.4 285.96 197.06 285.87 197.29 285.78 197.52 285.93 197.15 285.94 197.14 286.02 196.97 286.1 196.8 286.18 196.63 286.35 196.27 286.54 195.92 286.74 195.57 286.95 195.21 287.17 194.85 287.4 194.5 287.51 194.34 287.61 194.19 287.72 194.04 287.78 193.95 287.84 193.87 287.91 193.79 288.09 193.54 287.79 193.93 287.92 193.78 288.42 193.16 288.94 192.56 289.52 192.01 289.81 191.73 290.1 191.47 290.4 191.21 290.54 191.09 290.72 190.9 290.89 190.81 290.79 190.86 290.7 190.96 290.85 190.84 290.95 190.77 291.05 190.69 291.15 190.62 291.85 190.12 292.26 189.16 291.74 188.36 291.3 187.65 290.24 187.21 289.49 187.75L289.49 187.75Z" fill="#FFB727"/></g><g><path d="M276.44 197.28C278.57 197.28 278.57 193.98 276.44 193.98 274.31 193.98 274.31 197.28 276.44 197.28L276.44 197.28Z" fill="#FFB727"/></g><g><path d="M275.29 194.48C272.65 197.39 271.1 201.07 270.83 204.99 270.77 205.85 271.63 206.68 272.48 206.64 273.43 206.6 274.07 205.91 274.13 204.99 274.14 204.78 274.16 204.58 274.18 204.37 274.19 204.27 274.2 204.17 274.22 204.06 274.2 204.24 274.2 204.24 274.23 204.04 274.3 203.63 274.37 203.23 274.47 202.83 274.57 202.43 274.68 202.03 274.81 201.64 274.87 201.44 274.94 201.25 275.01 201.06 275.03 201.01 275.26 200.43 275.13 200.74 275.45 199.98 275.84 199.25 276.29 198.56 276.51 198.21 276.75 197.87 277 197.55 276.81 197.8 277.19 197.32 277.22 197.28 277.35 197.12 277.49 196.97 277.63 196.82 278.21 196.18 278.31 195.11 277.63 194.48 276.99 193.9 275.91 193.79 275.29 194.48L275.29 194.48Z" fill="#FFB727"/></g><g><path d="M274.83 212.7C274.64 214.63 275.05 216.54 275.85 218.29 276.01 218.64 276.48 218.95 276.84 219.05 277.24 219.16 277.76 219.11 278.11 218.88 278.46 218.65 278.77 218.31 278.87 217.89 278.97 217.43 278.9 217.04 278.7 216.62 278.65 216.52 278.61 216.41 278.56 216.31 278.62 216.44 278.67 216.57 278.73 216.7 278.42 215.96 278.22 215.19 278.11 214.39 278.13 214.54 278.15 214.68 278.17 214.83 278.08 214.12 278.07 213.41 278.14 212.7 278.18 212.3 277.93 211.8 277.66 211.53 277.37 211.24 276.9 211.03 276.49 211.05 276.06 211.07 275.62 211.21 275.32 211.53 275.01 211.87 274.88 212.24 274.83 212.7L274.83 212.7Z" fill="#FFB727"/></g><g><path d="M290.12 204.75C289.51 206.29 289.04 207.87 288.7 209.49 288.61 209.93 288.64 210.37 288.87 210.76 289.07 211.1 289.46 211.43 289.86 211.52 290.69 211.71 291.7 211.27 291.89 210.37 292.23 208.75 292.7 207.17 293.31 205.63 293.46 205.26 293.34 204.69 293.14 204.36 292.94 204.02 292.55 203.69 292.15 203.6 291.73 203.5 291.25 203.52 290.88 203.77 290.5 204.01 290.29 204.32 290.12 204.75L290.12 204.75Z" fill="#FFB727"/></g><g><path d="M301.87 194.85C302.02 194.56 302.2 194.28 302.4 194.02 302.31 194.13 302.23 194.24 302.14 194.35 302.43 193.98 302.76 193.65 303.14 193.35 303.03 193.44 302.92 193.52 302.81 193.61 303.18 193.32 303.59 193.08 304.02 192.89 304.21 192.79 304.37 192.64 304.48 192.46 304.63 192.3 304.72 192.11 304.78 191.9 304.89 191.5 304.84 190.98 304.61 190.63 304.38 190.28 304.04 189.97 303.62 189.87 303.47 189.85 303.33 189.83 303.18 189.81 302.88 189.81 302.6 189.89 302.35 190.04 301.64 190.35 300.99 190.81 300.43 191.33 299.87 191.85 299.38 192.49 299.02 193.17 298.81 193.56 298.73 194.01 298.85 194.44 298.96 194.82 299.25 195.24 299.61 195.43 299.99 195.63 300.46 195.73 300.88 195.6 301.28 195.48 301.67 195.23 301.87 194.85L301.87 194.85Z" fill="#FFB727"/></g><g><path d="M302.74 217.83C303.27 217.05 303.81 216.26 304.34 215.48 304.46 215.29 304.53 215.09 304.54 214.87 304.59 214.65 304.58 214.43 304.51 214.21 304.4 213.83 304.11 213.41 303.75 213.22 303.37 213.02 302.9 212.92 302.48 213.05 302.35 213.11 302.22 213.16 302.09 213.22 301.84 213.37 301.64 213.56 301.5 213.81 300.96 214.59 300.43 215.38 299.9 216.16 299.78 216.35 299.71 216.55 299.7 216.77 299.65 216.99 299.66 217.21 299.73 217.43 299.84 217.81 300.13 218.23 300.49 218.42 300.87 218.62 301.34 218.72 301.76 218.59 301.89 218.53 302.02 218.48 302.16 218.42 302.4 218.28 302.6 218.08 302.74 217.83L302.74 217.83Z" fill="#FFB727"/></g></g><g><path d="M314.28 51.45C308.13 52.44 302.44 55.45 297.57 59.32 294.94 61.41 292.5 63.79 290.65 66.6 284.71 75.65 286.08 88.37 292.6 97.02 298 104.19 306.62 108.83 315.58 109.39 324.54 109.95 333.67 106.41 339.91 99.96 342.25 97.54 344.21 94.72 345.38 91.57 347.14 86.85 347.05 81.58 345.86 76.68 342.44 62.62 329.6 48.97 314.28 51.45Z" fill="#F49E21"/><path d="M345.54 91.39C347.3 86.67 347.21 81.4 346.02 76.5 344.7 71.06 341.96 65.69 338.23 61.29 338.79 62.75 339.27 64.23 339.63 65.71 340.82 70.61 340.9 75.88 339.15 80.6 337.98 83.75 336.02 86.58 333.68 88.99 327.44 95.44 318.3 98.97 309.35 98.42 301.48 97.93 293.87 94.29 288.48 88.55 289.45 91.53 290.89 94.35 292.77 96.84 298.17 104.01 306.79 108.65 315.75 109.21 324.71 109.77 333.84 106.23 340.08 99.78 342.4 97.37 344.36 94.55 345.54 91.39Z" fill="#ED8514"/><g><path d="M310.83 59.44C308.27 61.29 306.35 63.76 305.19 66.69 304.93 67.35 305.48 68.21 306.14 68.36 306.92 68.54 307.53 68.12 307.81 67.41 307.83 67.37 307.93 67.1 307.86 67.28 307.78 67.47 307.91 67.17 307.91 67.16 307.97 67.02 308.04 66.88 308.11 66.74 308.25 66.45 308.41 66.16 308.57 65.87 308.74 65.57 308.92 65.28 309.11 64.99 309.2 64.86 309.29 64.73 309.38 64.61 309.43 64.54 309.48 64.47 309.53 64.4 309.68 64.19 309.43 64.52 309.54 64.39 309.95 63.88 310.38 63.39 310.85 62.93 311.08 62.7 311.33 62.48 311.58 62.27 311.7 62.17 311.84 62.01 311.98 61.94 311.89 61.98 311.82 62.06 311.95 61.96 312.03 61.9 312.12 61.84 312.2 61.78 312.78 61.37 313.11 60.58 312.69 59.92 312.32 59.36 311.45 58.99 310.83 59.44L310.83 59.44Z" fill="#FFB727"/></g><g><path d="M300.09 67.28C301.84 67.28 301.84 64.56 300.09 64.56 298.35 64.56 298.34 67.28 300.09 67.28L300.09 67.28Z" fill="#FFB727"/></g><g><path d="M299.15 64.98C296.98 67.37 295.7 70.4 295.48 73.62 295.43 74.33 296.14 75.01 296.84 74.98 297.62 74.95 298.15 74.38 298.2 73.62 298.21 73.45 298.22 73.28 298.24 73.11 298.25 73.03 298.26 72.94 298.27 72.86 298.25 73.01 298.25 73.01 298.28 72.84 298.34 72.51 298.4 72.17 298.48 71.84 298.56 71.51 298.65 71.19 298.76 70.86 298.81 70.7 298.87 70.54 298.93 70.38 298.95 70.34 299.14 69.87 299.03 70.12 299.3 69.5 299.62 68.9 299.98 68.33 300.16 68.04 300.36 67.77 300.56 67.5 300.4 67.71 300.71 67.31 300.74 67.28 300.85 67.15 300.96 67.02 301.07 66.9 301.55 66.37 301.63 65.49 301.07 64.98 300.55 64.5 299.66 64.41 299.15 64.98L299.15 64.98Z" fill="#FFB727"/></g><g><path d="M298.78 79.97C298.62 81.55 298.96 83.13 299.62 84.57 299.75 84.86 300.14 85.11 300.43 85.19 300.76 85.28 301.19 85.24 301.48 85.05 301.77 84.86 302.03 84.58 302.1 84.24 302.19 83.86 302.12 83.54 301.96 83.19 301.92 83.1 301.88 83.02 301.85 82.93 301.9 83.04 301.94 83.15 301.99 83.25 301.74 82.64 301.57 82.01 301.48 81.35 301.5 81.47 301.51 81.59 301.53 81.71 301.45 81.13 301.45 80.54 301.5 79.95 301.53 79.62 301.33 79.21 301.1 78.99 300.86 78.75 300.48 78.58 300.14 78.59 299.79 78.61 299.42 78.72 299.18 78.99 298.92 79.29 298.81 79.59 298.78 79.97L298.78 79.97Z" fill="#FFB727"/></g><g><path d="M311.35 73.42C310.85 74.68 310.46 75.99 310.18 77.32 310.1 77.68 310.13 78.04 310.32 78.37 310.49 78.65 310.81 78.92 311.13 78.99 311.81 79.15 312.65 78.78 312.8 78.04 313.08 76.71 313.47 75.41 313.97 74.14 314.09 73.83 313.99 73.37 313.83 73.09 313.66 72.81 313.34 72.54 313.02 72.47 312.67 72.39 312.28 72.41 311.97 72.61 311.66 72.81 311.49 73.08 311.35 73.42L311.35 73.42Z" fill="#FFB727"/></g><g><path d="M321.02 65.28C321.15 65.04 321.29 64.81 321.46 64.6 321.39 64.69 321.32 64.78 321.25 64.87 321.49 64.56 321.76 64.29 322.07 64.05 321.98 64.12 321.89 64.19 321.8 64.26 322.11 64.02 322.44 63.82 322.8 63.67 322.96 63.58 323.09 63.47 323.18 63.32 323.3 63.19 323.38 63.03 323.42 62.86 323.51 62.53 323.47 62.1 323.28 61.81 323.09 61.52 322.81 61.26 322.47 61.18 322.35 61.16 322.23 61.15 322.11 61.13 321.86 61.13 321.64 61.19 321.42 61.32 320.84 61.57 320.3 61.95 319.84 62.38 319.38 62.81 318.97 63.33 318.68 63.89 318.51 64.21 318.45 64.58 318.54 64.94 318.63 65.26 318.87 65.6 319.16 65.75 319.48 65.92 319.86 66 320.21 65.89 320.53 65.8 320.85 65.6 321.02 65.28L321.02 65.28Z" fill="#FFB727"/></g><g><path d="M321.74 84.19C322.18 83.55 322.62 82.9 323.06 82.26 323.16 82.1 323.21 81.94 323.22 81.75 323.26 81.57 323.25 81.39 323.2 81.21 323.11 80.89 322.87 80.55 322.58 80.4 322.26 80.23 321.88 80.15 321.53 80.26 321.42 80.31 321.31 80.35 321.2 80.4 321 80.52 320.83 80.68 320.71 80.89 320.27 81.53 319.83 82.18 319.39 82.82 319.29 82.98 319.24 83.14 319.23 83.33 319.19 83.51 319.2 83.69 319.25 83.87 319.34 84.18 319.58 84.53 319.88 84.68 320.2 84.85 320.58 84.93 320.93 84.82 321.04 84.77 321.15 84.73 321.25 84.68 321.45 84.56 321.62 84.39 321.74 84.19L321.74 84.19Z" fill="#FFB727"/></g></g><g><path d="M460.28 108.55C455.44 112.46 451.98 117.9 449.68 123.68 448.43 126.8 447.5 130.08 447.29 133.44 446.63 144.25 454.13 154.61 464.08 158.89 472.32 162.44 482.12 162.19 490.17 158.22 498.22 154.26 504.4 146.65 506.62 137.96 507.45 134.7 507.75 131.28 507.21 127.96 506.39 122.99 503.7 118.45 500.24 114.79 490.28 104.27 472.35 98.8 460.28 108.55Z" fill="#F49E21"/><path d="M507.24 127.72C506.42 122.75 503.73 118.21 500.27 114.55 496.42 110.49 491.38 107.18 485.95 105.21 487.16 106.2 488.31 107.25 489.36 108.36 492.82 112.02 495.51 116.55 496.33 121.53 496.88 124.85 496.58 128.27 495.74 131.53 493.52 140.23 487.35 147.83 479.29 151.79 472.22 155.27 463.8 155.88 456.27 153.58 458.59 155.68 461.25 157.42 464.11 158.65 472.36 162.2 482.15 161.95 490.2 157.98 498.25 154.02 504.43 146.41 506.65 137.72 507.49 134.46 507.79 131.04 507.24 127.72Z" fill="#ED8514"/><g><path d="M461.26 117.2C459.95 120.09 459.52 123.18 459.96 126.32 460.06 127.03 461 127.48 461.63 127.27 462.41 127.02 462.69 126.35 462.58 125.6 462.6 125.72 462.59 125.7 462.57 125.53 462.56 125.43 462.55 125.34 462.54 125.24 462.53 125.1 462.52 124.95 462.51 124.81 462.49 124.47 462.48 124.13 462.48 123.79 462.48 123.5 462.49 123.21 462.51 122.92 462.52 122.73 462.54 122.53 462.56 122.34 462.56 122.3 462.62 121.9 462.59 122.13 462.77 120.92 463.18 119.5 463.6 118.57 463.89 117.92 463.81 117.08 463.11 116.71 462.52 116.39 461.57 116.5 461.26 117.2L461.26 117.2Z" fill="#FFB727"/></g><g><path d="M455.15 129.52C456.9 129.52 456.9 126.8 455.15 126.8 453.4 126.8 453.4 129.52 455.15 129.52L455.15 129.52Z" fill="#FFB727"/></g><g><path d="M453.86 127.8C453.16 130.97 453.56 134.22 454.97 137.14 455.28 137.78 456.25 138 456.83 137.63 457.49 137.21 457.65 136.46 457.32 135.77 457.24 135.6 457.15 135.42 457.08 135.25 457.16 135.43 457 135.03 457 135.04 456.88 134.73 456.77 134.41 456.68 134.08 456.59 133.76 456.51 133.43 456.44 133.1 456.41 132.94 456.38 132.77 456.35 132.6 456.34 132.53 456.33 132.46 456.32 132.39 456.34 132.51 456.33 132.49 456.31 132.32 456.24 131.65 456.21 130.98 456.25 130.3 456.29 129.58 456.33 129.27 456.49 128.52 456.64 127.83 456.28 127.02 455.54 126.85 454.85 126.7 454.03 127.06 453.86 127.8L453.86 127.8Z" fill="#FFB727"/></g><g><path d="M460.98 141.02C461.62 142.46 462.7 143.66 463.98 144.58 464.25 144.77 464.72 144.8 465.03 144.72 465.35 144.63 465.69 144.39 465.84 144.1 466.01 143.78 466.09 143.4 465.98 143.05 465.93 142.94 465.89 142.83 465.84 142.73 465.72 142.53 465.56 142.36 465.35 142.24 465.27 142.18 465.19 142.12 465.11 142.06 465.2 142.13 465.29 142.2 465.39 142.27 464.88 141.87 464.43 141.42 464.03 140.91 464.1 141 464.17 141.09 464.24 141.19 463.88 140.72 463.57 140.21 463.33 139.66 463.2 139.37 462.81 139.12 462.52 139.04 462.19 138.95 461.76 138.99 461.47 139.18 461.18 139.37 460.93 139.65 460.85 139.99 460.83 140.11 460.82 140.23 460.8 140.35 460.8 140.58 460.86 140.81 460.98 141.02L460.98 141.02Z" fill="#FFB727"/></g><g><path d="M468.66 129.11C468.85 130.45 469.16 131.78 469.58 133.07 469.69 133.4 469.9 133.7 470.21 133.88 470.5 134.05 470.93 134.12 471.26 134.02 471.94 133.8 472.44 133.07 472.21 132.35 471.79 131.06 471.49 129.73 471.29 128.39 471.24 128.08 470.92 127.73 470.66 127.58 470.37 127.41 469.94 127.34 469.61 127.44 469.28 127.55 468.96 127.75 468.8 128.06 468.76 128.17 468.71 128.28 468.66 128.38 468.59 128.63 468.59 128.87 468.66 129.11L468.66 129.11Z" fill="#FFB727"/></g><g><path d="M473 117.21C472.99 116.94 473.01 116.68 473.04 116.42 473.02 116.54 473.01 116.66 472.99 116.78 473.05 116.38 473.15 116 473.3 115.63 473.26 115.74 473.21 115.85 473.16 115.95 473.31 115.6 473.5 115.27 473.72 114.96 473.92 114.69 473.94 114.22 473.86 113.91 473.77 113.59 473.53 113.25 473.23 113.1 472.91 112.93 472.53 112.85 472.18 112.96 472.07 113.01 471.96 113.05 471.85 113.1 471.65 113.22 471.48 113.38 471.36 113.59 470.98 114.1 470.7 114.7 470.51 115.3 470.32 115.91 470.23 116.57 470.25 117.21 470.26 117.57 470.39 117.92 470.65 118.17 470.89 118.41 471.27 118.58 471.61 118.57 471.96 118.55 472.33 118.44 472.57 118.17 472.84 117.91 473.01 117.57 473 117.21L473 117.21Z" fill="#FFB727"/></g><g><path d="M483.01 133.26C483.07 132.48 483.13 131.7 483.2 130.93 483.23 130.6 483.03 130.2 482.8 129.97 482.56 129.73 482.18 129.56 481.84 129.57 481.49 129.59 481.12 129.7 480.88 129.97 480.81 130.06 480.74 130.15 480.67 130.25 480.55 130.46 480.49 130.69 480.48 130.94 480.42 131.72 480.36 132.5 480.29 133.27 480.26 133.6 480.46 134 480.69 134.23 480.93 134.47 481.31 134.64 481.65 134.63 482 134.61 482.37 134.5 482.61 134.23 482.68 134.14 482.75 134.05 482.82 133.95 482.94 133.74 483.01 133.51 483.01 133.26L483.01 133.26Z" fill="#FFB727"/></g></g><path d="M104.89 137.25C96.55 146.15 92 157.89 88.31 169.51 114.98 175.02 144.35 164.33 161.24 142.97 165.09 138.1 168.44 132.29 168.05 126.1 166.19 97.05 113.93 127.61 104.89 137.25Z" fill="#7F9B53"/><path d="M239.27 64.64C229.29 59.8 221.36 51.35 215.85 41.72 210.34 32.1 207.13 21.32 204.96 10.45 223.04 14.09 241.91 20.25 253.4 34.68 250.18 24.64 246.15 14.86 241.37 5.47 248.02 4.07 254.45 8.54 259.23 13.38 264.17 18.38 268.43 24.06 271.84 30.21 274.32 34.67 276.39 39.59 276.21 44.69 275.53 63.35 254.26 71.92 239.27 64.64Z" fill="#7F9B53"/><path d="M359.85 135.66C359.61 145.97 365.2 155.74 372.78 162.74 380.35 169.73 389.77 174.36 399.16 178.63 398.96 176.11 399.86 173.65 400.75 171.28 402.32 167.09 403.89 162.9 405.46 158.71 407.61 152.98 409.79 147.1 409.84 140.98 409.91 132.67 405.84 124.51 399.42 119.25 383.84 106.48 360.36 114 359.85 135.66Z" fill="#7F9B53"/><path d="M430.13 44.97C443.89 39.52 459.45 39.93 473.77 43.66 472.35 43.73 471.57 45.29 471.04 46.61 463.81 64.73 448.4 79.4 429.95 85.73 420.04 89.13 401.63 88.1 402.98 73.61 404.18 60.69 419.17 49.31 430.13 44.97Z" fill="#7F9B53"/><path d="M451.32 240.31C456.29 249.92 465.69 257.12 468.71 267.51 478.12 255.96 484.23 241.75 486.12 226.98 486.84 221.4 486.75 215.12 482.99 210.94 477.85 205.23 461.55 198.32 454.63 203.84 445.11 211.42 446.44 230.86 451.32 240.31Z" fill="#7F9B53"/><path d="M546.28 302.12C556.94 303.97 568.36 300.83 578.46 304.71 574.95 290.23 567.32 276.78 556.69 266.34 552.68 262.4 547.63 258.67 542.02 259.14 534.36 259.79 519.01 268.6 519.22 277.44 519.51 289.62 535.81 300.3 546.28 302.12Z" fill="#7F9B53"/><path d="M56.31 209.92C38.09 222.26 23.21 241.29 20.9 263.18 26.75 262.17 32.61 261.16 38.46 260.15 47.79 258.54 57.21 256.9 65.98 253.3 74.74 249.7 82.91 243.93 87.66 235.74 92.41 227.55 93.19 216.71 88.1 208.73 89.41 217.39 90.84 226.13 94.22 234.21 97.61 242.29 103.18 249.75 110.97 253.75 113.7 242.51 114.74 230.32 110.29 219.65 100.71 196.63 73.96 197.97 56.31 209.92Z" fill="#7F9B53"/><path d="M515.27 188.53C515.63 195.13 520.43 200.77 526.05 204.26 531.66 207.75 538.12 209.57 544.26 212.03 552.24 215.22 559.76 219.52 566.56 224.78 567.34 224.15 567.41 223.01 567.41 222.01 567.4 215.56 566.85 209.11 565.75 202.75 565.18 199.46 564.46 196.16 563.04 193.14 561.53 189.93 559.26 187.11 556.7 184.66 546.83 175.23 513.91 163.57 515.27 188.53Z" fill="#7F9B53"/><path d="M112.55 89.17C120.05 94.57 127.7 99.73 135.51 104.67 143.43 109.67 151.58 114.47 160.46 117.45 169.34 120.43 179.08 121.52 188.1 119.02 192.08 117.92 196.12 115.91 198.09 112.28 201.15 106.66 198.11 99.67 194.3 94.53 184.24 80.97 175.67 84.62 161.64 83.9 153.28 83.47 145.16 83 136.8 83.9 133.5 84.24 114.16 90.32 112.55 89.17Z" fill="#8CA85B"/><path d="M236.28 56.88C222.22 59.35 209.11 66.1 198.03 75.1 211.26 87.77 230.54 92.8 248.81 91.48 259.52 90.7 285.68 82.67 278.61 66.46 273.22 54.1 246.86 55.03 236.28 56.88Z" fill="#8CA85B"/><path d="M356.32 128.92C338.11 132.77 323.91 150.63 324.26 169.24 324.4 176.31 326.38 183.21 328.62 189.92 346.32 185.32 362.61 175.4 374.82 161.78 378.19 158.02 381.32 153.88 382.88 149.08 384.45 144.28 384.26 138.68 381.36 134.54 376.61 127.7 363.6 127.39 356.32 128.92Z" fill="#8CA85B"/><path d="M174.38 227.47C172.13 234.86 177.04 242.72 183.28 247.27 189.52 251.83 197.07 254.24 203.59 258.38 210.64 262.86 216.39 269.38 219.96 276.93 224.07 264.32 225.42 250.83 223.9 237.66 223.18 231.46 221.72 225.08 217.78 220.23 206.31 206.13 179.91 209.32 174.38 227.47Z" fill="#8CA85B"/><path d="M352.56 230C349.92 231.86 348.05 234.61 346.35 237.36 341.8 244.72 338.01 252.7 336.6 261.23 335.19 269.76 336.33 278.93 341 286.21 347.27 280.21 355.84 277.4 364.07 274.65 372.3 271.9 380.83 268.82 386.77 262.48 392.71 256.15 395.04 245.56 389.6 238.79 386.92 235.45 382.87 233.57 378.97 231.8 370.7 228.04 361.16 223.92 352.56 230Z" fill="#8CA85B"/><path d="M27.07 164.73C35.74 163.68 44.42 166.03 52.84 168.37 40.95 173.55 32.8 186.31 33.1 199.27 41 192.8 45.96 182.41 55.49 178.75 53.07 180.62 52.15 184.21 53.38 187.01 57.78 181.28 58.91 173.5 63.5 167.92 67.47 163.1 73.49 160.55 79.3 158.28 71.17 158.12 62.74 157.88 54.56 158.63 45.08 159.49 36.25 163.62 27.07 164.73Z" fill="#8CA85B"/><path d="M244.85 124.53C252.39 129.03 257.87 136.85 259.52 145.48 263.19 144.32 267.02 146.76 269.67 149.54 274.22 154.32 277.23 160.55 278.14 167.09 280.83 162.09 280.81 155.74 278.1 150.76 275.39 145.78 270.06 142.32 264.4 141.87 268.76 139.56 270.59 133.81 269.21 129.07 267.83 124.34 263.77 120.7 259.18 118.89 251.51 115.85 238.46 116 231.18 120.08 235.98 121.06 240.52 121.95 244.85 124.53Z" fill="#8CA85B"/></g><path d="M480.23 783.35C452.31 793.39 423.85 803.55 393.98 805.26 380.27 806.04 366.52 805.02 352.78 805.17 320.47 805.52 288.56 812.33 256.26 812.89 222.1 813.48 188.3 807.07 154.82 800.7 131.16 796.19 107.49 791.69 83.83 787.18 186.34 782.37 290.27 785.04 393.12 784.12 407.79 783.99 422.46 783.86 437.13 783.73 444.46 783.66 451.8 783.6 459.14 783.53 464.69 783.48 475.11 785.2 480.23 783.35Z" fill="#A1D86C"/></g></svg>