<svg width="628.08" height="285.97" viewBox="0 0 628.08 285.97" xmlns="http://www.w3.org/2000/svg" xmlns:xlink="http://www.w3.org/1999/xlink" xml:space="preserve" overflow="hidden"><defs></defs><g><path d="M575.54 4.11 562.29 4.11 565.96 285.97 571.87 285.97Z" fill="#7A5E4E"/><path d="M568.58 4.11 562.7 4.11 564.32 285.97 566.95 285.97Z" fill="#7A5E4E"/><rect x="4.44" y="15.54" width="615.67" height="7.99" fill="#E2BFA8"/><path d="M13.49 4.11 0.25 4.11 4.08 285.97 9.67 285.97Z" fill="#A39F9B"/><path d="M11.4 158.52 13.49 4.11 0.25 4.11 2.35 158.52Z" fill="#BAB7B5"/><path d="M5.47 4.11 0 4.11 1.33 285.97 4.14 285.97Z" fill="#A39F9B"/><path d="M627.24 4.11 614 4.11 617.72 285.97 623.53 285.97Z" fill="#FFD3B6"/><path d="M609.06 32.81 596.19 32.81 612.2 285.97 617.85 285.97Z" fill="#7A5E4E"/><rect x="0.25" y="0" width="627.83" height="18.8" fill="#FFD3B6"/><g><path d="M628.08 0 230.82 0C264.06 7.17 302.21 13.59 343.53 18.8L628.08 18.8 628.08 0Z" fill="#FFE6D2"/></g><path d="M75.31 0 0.25 0 0.25 21.21 75.31 30.58Z" fill="#A39F9B"/><rect x="0.25" y="0" width="627.83" height="3.71" fill="#FFF4DC"/><g><g><rect x="74.4" y="21.76" width="543.48" height="228.95" fill="#FFD3B6"/><rect x="433.03" y="21.76" width="74.04" height="227.65" fill="#BAB7B5"/><path d="M507.07 21.76 433.03 21.76 433.03 244.77 507.07 49.31Z" fill="#A39F9B"/></g><rect x="513.59" y="26.26" width="100.16" height="219.59" fill="#E2BFA8"/><rect x="518.47" y="29.5" width="94.3" height="213.11" fill="#FFE6D2"/><rect x="540.95" y="41.91" width="55.7" height="20.5" fill="#E2BFA8"/><path d="M603.49 45.96C603.49 39.55 588.51 34.36 570.02 34.36 551.53 34.36 536.55 39.55 536.55 45.96 536.55 52.36 551.54 57.56 570.02 57.56 588.5 57.56 603.49 52.36 603.49 45.96Z" fill="#FFE6D2"/></g><g><g><rect x="323.09" y="21.76" width="184.85" height="228.95" fill="#FFD3B6"/><rect x="323.09" y="21.76" width="74.04" height="227.65" fill="#BAB7B5"/><path d="M397.13 21.76 323.09 21.76 323.09 244.77 397.13 49.31Z" fill="#A39F9B"/></g><rect x="403.65" y="26.26" width="100.16" height="219.59" fill="#E2BFA8"/><rect x="408.54" y="29.5" width="94.3" height="213.11" fill="#FFE6D2"/><rect x="431.01" y="41.91" width="55.7" height="20.5" fill="#E2BFA8"/><path d="M493.56 45.96C493.56 39.55 478.57 34.36 460.09 34.36 441.6 34.36 426.62 39.55 426.62 45.96 426.62 52.36 441.6 57.56 460.09 57.56 478.57 57.56 493.56 52.36 493.56 45.96Z" fill="#FFE6D2"/></g><g><g><rect x="214.63" y="21.76" width="184.85" height="228.95" fill="#FFD3B6"/><rect x="214.63" y="21.76" width="74.04" height="227.65" fill="#BAB7B5"/><path d="M288.66 21.76 214.63 21.76 214.63 244.77 288.66 49.31Z" fill="#A39F9B"/></g><rect x="295.18" y="26.26" width="100.16" height="219.59" fill="#E2BFA8"/><rect x="300.07" y="29.5" width="94.3" height="213.11" fill="#FFE6D2"/><rect x="322.55" y="41.91" width="55.7" height="20.5" fill="#E2BFA8"/><path d="M385.09 45.96C385.09 39.55 370.11 34.36 351.62 34.36 333.13 34.36 318.15 39.55 318.15 45.96 318.15 52.36 333.13 57.56 351.62 57.56 370.1 57.56 385.09 52.36 385.09 45.96Z" fill="#FFE6D2"/></g><g><g><rect x="106.16" y="21.76" width="184.85" height="228.95" fill="#FFD3B6"/><rect x="106.16" y="21.76" width="74.04" height="227.65" fill="#BAB7B5"/><path d="M180.19 21.76 106.16 21.76 106.16 244.77 180.19 49.31Z" fill="#A39F9B"/></g><rect x="186.71" y="26.26" width="100.16" height="219.59" fill="#E2BFA8"/><rect x="191.6" y="29.5" width="94.3" height="213.11" fill="#FFE6D2"/><rect x="214.08" y="41.91" width="55.7" height="20.5" fill="#E2BFA8"/><path d="M276.62 45.96C276.62 39.55 261.64 34.36 243.15 34.36 224.66 34.36 209.68 39.55 209.68 45.96 209.68 52.36 224.66 57.56 243.15 57.56 261.63 57.56 276.62 52.36 276.62 45.96Z" fill="#FFE6D2"/></g><g><g><rect x="0.62" y="21.76" width="184.85" height="228.95" fill="#FFD3B6"/><path d="M74.66 14.93 0.62 21.76 0.62 255.02 74.66 249.4Z" fill="#A39F9B"/></g><rect x="81.18" y="26.26" width="100.16" height="219.59" fill="#E2BFA8"/><rect x="86.06" y="29.5" width="94.3" height="213.11" fill="#FFE6D2"/><rect x="108.54" y="41.91" width="55.7" height="20.5" fill="#E2BFA8"/><path d="M171.08 45.96C171.08 39.55 156.1 34.36 137.61 34.36 119.12 34.36 104.14 39.55 104.14 45.96 104.14 52.36 119.12 57.56 137.61 57.56 156.09 57.56 171.08 52.36 171.08 45.96Z" fill="#FFE6D2"/></g><path d="M82.71 4.11 69.46 4.11 72.69 285.97 79.49 285.97Z" fill="#D1D1D1"/><path d="M74.93 4.11 63.6 4.11 70.79 285.97 73.6 285.97Z" fill="#A39F9B"/><rect x="187.46" y="101.33" width="98.44" height="3.64" fill="#E2BFA8"/><rect x="84.4" y="101.33" width="95.96" height="3.64" fill="#E2BFA8"/></g></svg>