<svg width="149.56" height="170.97" viewBox="0 0 149.56 170.97" xmlns="http://www.w3.org/2000/svg" xmlns:xlink="http://www.w3.org/1999/xlink" xml:space="preserve" overflow="hidden"><defs></defs><g><g><g><path d="M50.3 158.84C51.42 158.73 52.34 158.49 53.36 158.01 53.64 157.88 53.91 157.77 54.19 157.68 54.85 157.33 55.57 157.23 56.43 157.43 56.85 157.53 57.3 157.28 57.48 156.9 57.76 156.33 57.26 155.42 57.08 154.9 57.02 154.73 56.96 154.56 56.9 154.4 56.85 154.41 56.8 154.4 56.78 154.33 56.67 154 56.57 153.67 56.48 153.35 56.28 152.82 56.15 152.28 56.17 151.59 56.1 150.66 56.19 149.72 56.51 148.71 56.94 147.36 57.28 145.95 57.92 144.68 58.31 143.16 58.75 141.67 59.06 140.12 59.23 139.25 59.5 138.35 59.73 137.45 59.86 137.01 59.98 136.56 60.08 136.12 60.42 134.61 61.16 132.74 59.42 131.86 58.29 131.29 56.34 131.11 55.26 131.88 54.04 132.74 55.1 134.02 55.57 135.26 55.59 135.73 55.6 136.2 55.63 136.61 55.76 138.42 55.08 140.17 54.49 141.85 53.44 144.85 52.62 147.91 52.22 151.06 51.36 151.3 49.16 150.31 48.7 150.12 47.53 149.64 46.56 148.76 45.4 148.25 42.95 147.17 40.18 146.7 37.51 146.57 37.15 146.55 33.37 146.63 34.01 147.67 34.47 148.4 35.67 148.68 36.4 149.03 36.46 149.06 36.53 149.09 36.59 149.12 35.24 149.07 33.86 149.16 32.52 149.29 31.16 149.42 29.71 149.56 28.5 150.25 27.95 150.57 27.15 150.91 27.36 151.68 27.52 152.28 29.28 152.06 29.64 152.09 31.55 152.23 33.44 152.43 35.32 152.85 35.73 152.94 36.15 153.06 36.58 153.16 34.61 153.4 32.72 153.94 30.94 154.81 30.51 155.02 28.74 155.9 29.74 156.57 30.16 156.85 31.08 156.59 31.56 156.58 32.76 156.55 33.95 156.67 35.14 156.81 37.71 157.09 40.27 157.18 42.82 157.71 43.86 157.92 44.88 158.47 45.93 158.82 47.37 158.94 48.85 158.97 50.3 158.84Z"/></g><g><path d="M38.07 156.12C35.94 156.08 33.81 155.87 31.68 155.99 31.36 156.01 29.49 156.2 30.61 155.6 31.37 155.2 32.22 154.89 33.03 154.65 35.05 154.04 37.26 153.85 39.36 153.85 41.5 153.85 43.58 154.32 45.71 154.41 46.64 154.45 47.57 154.37 48.48 154.22 48.89 154.15 49.23 154.31 49.57 154.04 49.59 154.02 49.59 153.97 49.55 153.98 49.13 154.11 48.12 153.85 47.66 153.86 46.24 153.89 44.82 153.63 43.42 153.41 41.96 153.17 40.53 153.03 39.09 153.03 37.92 152.86 36.78 152.45 35.63 152.18 34.49 151.91 33.38 151.71 32.22 151.58 31.07 151.44 29.79 151.2 28.63 151.28 27.98 151.33 28.86 150.92 29.01 150.84 29.66 150.47 30.51 150.37 31.24 150.26 33.96 149.82 36.88 149.76 39.58 150.38 40.77 150.66 41.94 151.01 43.12 151.34 44.16 151.63 45.25 152.18 46.35 152.13 46.4 152.13 46.43 152.05 46.37 152.04 44.8 151.87 43.17 150.76 41.68 150.25 40.58 149.88 39.47 149.54 38.33 149.34 37.79 149.11 37.25 148.88 36.72 148.63 36.2 148.38 35.67 148.13 35.16 147.87 34.62 147.59 34.11 147.48 35.22 147.29 37.88 146.83 40.86 147.36 43.42 148.13 45.72 148.82 47.51 150.47 49.81 151.15 50.02 151.21 50.46 151.35 50.93 151.44 51.09 151.49 51.24 151.54 51.39 151.61 51.65 151.74 51.84 151.89 52.08 151.96L52.08 151.96C52.08 152.02 52.09 152.07 52.11 152.1 52.29 151.47 52.61 150.88 52.93 150.3 53.28 148.91 53.63 147.53 54 146.15 54.49 144.31 55.27 142.56 55.74 140.72 56.16 139.07 56.45 137.8 56.15 136.08 55.96 135.01 55.89 133.77 55.24 132.85 55.28 132.54 55.5 132.28 56.05 132.15 56.89 131.96 57.82 132.24 58.59 132.55 59.82 133.05 59.53 134.18 59.25 135.22 58.78 137.01 58.42 138.79 57.85 140.56 57.2 142.61 56.67 144.69 56.2 146.79 55.83 148.44 55.36 150.12 55.23 151.81 55.11 153.45 55.86 154.64 56.34 156.15 56.39 156.32 56.44 156.42 56.48 156.47 56.44 156.44 56.37 156.4 56.25 156.37 55.97 156.31 55.69 156.35 55.41 156.37 54.8 156.42 54.27 156.55 53.72 156.81 52.97 157.17 52.67 157.87 51.8 158.02 51.21 158.12 50.63 158.19 50.06 158.22 49.01 158.16 47.99 158.19 46.96 157.97 45.85 157.72 44.77 157.29 43.71 156.87 42.02 156.2 39.91 156.16 38.07 156.12Z" fill="#C46A2F"/></g><g><g opacity="0.5"><path d="M36.76 151.74C34 151.24 31.6 150.78 30.29 150.4 29.84 150.49 29.4 150.61 29.03 150.82 28.88 150.9 28 151.31 28.65 151.26 29.81 151.17 31.09 151.42 32.24 151.56 33.4 151.7 34.51 151.89 35.65 152.16 36.8 152.43 37.94 152.85 39.11 153.01 40.55 153.01 41.98 153.15 43.44 153.39 44.84 153.61 46.25 153.87 47.68 153.84 48.13 153.83 49.15 154.09 49.57 153.96 49.6 153.95 49.61 153.99 49.59 154.01 52.01 153.72 41.94 152.68 36.76 151.74Z" fill="#C46A2F"/></g><g opacity="0.5"><path d="M47.02 151.92C45.19 151.47 43.65 150.07 38.46 148.3 37.22 147.88 36.3 147.52 35.67 147.21 35.52 147.23 35.37 147.24 35.23 147.27 34.12 147.46 34.63 147.57 35.17 147.85 35.69 148.12 36.21 148.37 36.73 148.61 37.26 148.87 37.8 149.09 38.34 149.32 39.48 149.52 40.59 149.86 41.69 150.23 43.19 150.73 44.81 151.85 46.38 152.02 46.42 152.03 46.42 152.06 46.4 152.08 47.56 152.25 48.26 152.22 47.02 151.92Z" fill="#C46A2F"/></g><g opacity="0.5"><path d="M58.62 132.55C57.85 132.24 56.92 131.95 56.08 132.15 55.53 132.28 55.31 132.53 55.27 132.85 55.91 133.76 55.99 135 56.18 136.08 56.48 137.8 56.19 139.06 55.77 140.72 55.33 142.44 54.63 144.08 54.14 145.79 54.92 145.3 55.72 146.31 55.12 149.08 54.22 153.23 55.25 154.21 54.76 155.06 54.27 155.91 53.12 156.78 47.28 156.03 41.43 155.27 42.24 155.28 35.96 155.5 33.62 155.58 32.05 155.5 31.17 155.34 30.98 155.42 30.8 155.51 30.63 155.6 29.51 156.2 31.38 156.01 31.7 155.99 33.83 155.87 35.96 156.08 38.09 156.12 39.93 156.16 42.04 156.2 43.77 156.88 44.82 157.3 45.9 157.74 47.02 157.98 48.05 158.21 49.08 158.17 50.12 158.23 50.69 158.2 51.26 158.14 51.86 158.03 52.73 157.87 53.03 157.17 53.78 156.82 54.33 156.56 54.86 156.43 55.47 156.38 55.75 156.36 56.03 156.32 56.31 156.38 56.43 156.41 56.5 156.45 56.54 156.48 56.51 156.43 56.46 156.34 56.4 156.16 55.91 154.65 55.16 153.46 55.29 151.82 55.42 150.13 55.89 148.45 56.26 146.8 56.73 144.7 57.26 142.62 57.91 140.57 58.47 138.8 58.84 137.02 59.31 135.23 59.56 134.18 59.85 133.06 58.62 132.55Z" fill="#C46A2F"/></g></g></g><g><g><path d="M58.29 170.87C59.62 170.74 60.71 170.45 61.91 169.89 62.24 169.74 62.56 169.6 62.89 169.51 63.67 169.1 64.52 168.97 65.55 169.21 66.05 169.33 66.57 169.03 66.79 168.58 67.12 167.91 66.53 166.83 66.32 166.21 66.25 166.01 66.17 165.81 66.1 165.62 66.04 165.63 65.98 165.61 65.95 165.54 65.82 165.14 65.7 164.76 65.59 164.38 65.36 163.75 65.2 163.11 65.22 162.29 65.14 161.19 65.25 160.08 65.63 158.88 66.14 157.29 66.54 155.61 67.3 154.11 67.76 152.31 68.29 150.54 68.65 148.71 68.85 147.68 69.17 146.61 69.45 145.54 69.6 145.02 69.75 144.49 69.87 143.96 70.27 142.17 71.14 139.95 69.08 138.91 67.74 138.24 65.43 138.02 64.15 138.93 62.7 139.95 63.96 141.47 64.52 142.94 64.55 143.5 64.56 144.05 64.59 144.54 64.74 146.69 63.94 148.76 63.24 150.76 61.99 154.31 61.02 157.94 60.54 161.68 59.53 161.97 56.91 160.79 56.37 160.57 54.98 160 53.83 158.96 52.46 158.35 49.55 157.07 46.27 156.51 43.11 156.36 42.68 156.34 38.2 156.44 38.97 157.66 39.51 158.52 40.93 158.86 41.81 159.27 41.88 159.31 41.96 159.34 42.03 159.38 40.43 159.31 38.8 159.42 37.21 159.58 35.6 159.74 33.88 159.9 32.45 160.72 31.79 161.1 30.85 161.5 31.09 162.41 31.28 163.12 33.37 162.87 33.79 162.9 36.06 163.07 38.3 163.3 40.52 163.8 41.01 163.91 41.5 164.04 42.01 164.17 39.68 164.46 37.44 165.1 35.33 166.13 34.82 166.38 32.73 167.43 33.91 168.21 34.42 168.54 35.5 168.24 36.07 168.22 37.49 168.18 38.9 168.33 40.32 168.49 43.37 168.83 46.4 168.93 49.42 169.55 50.66 169.8 51.87 170.45 53.1 170.87 54.82 170.99 56.57 171.03 58.29 170.87Z"/></g><g><path d="M43.79 167.64C41.27 167.59 38.74 167.34 36.21 167.48 35.83 167.5 33.62 167.72 34.95 167.02 35.85 166.54 36.85 166.18 37.82 165.89 40.21 165.17 42.84 164.94 45.32 164.93 47.85 164.93 50.33 165.49 52.85 165.6 53.95 165.64 55.05 165.55 56.14 165.37 56.63 165.29 57.03 165.48 57.43 165.16 57.46 165.14 57.45 165.08 57.41 165.1 56.91 165.25 55.71 164.95 55.18 164.96 53.49 165 51.81 164.69 50.16 164.42 48.43 164.14 46.74 163.98 45.03 163.97 43.64 163.77 42.29 163.28 40.93 162.96 39.58 162.64 38.26 162.41 36.89 162.24 35.53 162.08 34.01 161.79 32.63 161.89 31.86 161.95 32.91 161.47 33.08 161.37 33.85 160.93 34.86 160.82 35.73 160.67 38.96 160.15 42.42 160.07 45.61 160.82 47.02 161.15 48.41 161.57 49.8 161.95 51.04 162.29 52.33 162.95 53.63 162.89 53.69 162.89 53.73 162.8 53.65 162.79 51.79 162.59 49.86 161.27 48.09 160.67 46.79 160.23 45.47 159.83 44.12 159.59 43.48 159.32 42.84 159.05 42.21 158.75 41.59 158.45 40.97 158.16 40.36 157.84 39.71 157.51 39.11 157.38 40.43 157.15 43.58 156.61 47.12 157.23 50.15 158.14 52.87 158.96 54.99 160.92 57.72 161.73 57.97 161.8 58.5 161.96 59.05 162.07 59.24 162.13 59.42 162.2 59.59 162.28 59.9 162.43 60.12 162.61 60.41 162.7L60.41 162.7C60.4 162.77 60.42 162.83 60.45 162.87 60.66 162.12 61.04 161.43 61.42 160.74 61.83 159.1 62.25 157.45 62.69 155.82 63.28 153.64 64.2 151.57 64.76 149.39 65.26 147.43 65.6 145.93 65.24 143.89 65.02 142.62 64.93 141.15 64.17 140.07 64.22 139.7 64.48 139.4 65.13 139.25 66.12 139.02 67.23 139.36 68.14 139.73 69.6 140.32 69.25 141.66 68.93 142.9 68.37 145.02 67.94 147.13 67.27 149.23 66.49 151.67 65.87 154.13 65.31 156.62 64.87 158.58 64.32 160.56 64.17 162.57 64.02 164.51 64.91 165.92 65.49 167.71 65.56 167.91 65.61 168.03 65.65 168.09 65.6 168.05 65.52 168 65.38 167.97 65.05 167.9 64.72 167.94 64.38 167.97 63.66 168.03 63.03 168.18 62.38 168.5 61.49 168.92 61.13 169.75 60.1 169.94 59.4 170.06 58.72 170.14 58.04 170.17 56.8 170.1 55.58 170.15 54.36 169.87 53.04 169.58 51.76 169.06 50.51 168.57 48.48 167.74 45.97 167.69 43.79 167.64Z" fill="#C46A2F"/></g><g><g opacity="0.5"><path d="M45.17 158.92C42.95 158.07 41.82 157.45 41.5 157.02 41.14 157.05 40.79 157.09 40.44 157.15 39.13 157.38 39.73 157.5 40.37 157.84 40.98 158.16 41.6 158.45 42.22 158.75 42.85 159.05 43.49 159.32 44.13 159.59 45.48 159.83 46.8 160.23 48.1 160.67 49.88 161.27 51.8 162.59 53.66 162.79 53.7 162.79 53.71 162.82 53.7 162.84 53.81 162.85 53.91 162.87 54.03 162.88 56.26 163.17 51.69 161.43 45.17 158.92Z" fill="#C46A2F"/></g><g opacity="0.5"><path d="M50.18 163.27C43.94 162.4 37.19 161.33 36.45 160.57 36.2 160.61 35.96 160.64 35.72 160.68 34.85 160.82 33.85 160.94 33.07 161.38 32.9 161.48 31.85 161.96 32.62 161.9 33.99 161.8 35.51 162.09 36.88 162.25 38.25 162.42 39.57 162.65 40.92 162.97 42.28 163.29 43.63 163.78 45.02 163.98 46.73 163.99 48.42 164.15 50.15 164.43 51.81 164.7 53.48 165 55.17 164.97 55.7 164.96 56.91 165.26 57.4 165.11 57.43 165.1 57.44 165.12 57.43 165.15 58.97 164.85 56.39 164.13 50.18 163.27Z" fill="#C46A2F"/></g><g opacity="0.5"><path d="M68.15 139.72C67.24 139.35 66.13 139.01 65.14 139.24 64.49 139.39 64.23 139.69 64.18 140.06 64.94 141.14 65.03 142.61 65.25 143.88 65.6 145.88 65.28 147.36 64.8 149.26 65.48 148.86 66.19 149.72 65.34 153.2 64.03 158.55 62.47 161.74 62.83 163.64 63.19 165.53 64.42 166.64 58.97 167.86 53.52 169.09 48.27 166.43 43.39 166.55 39.72 166.65 39.04 165.91 40.44 165.28 39.55 165.42 38.68 165.62 37.83 165.87 36.86 166.16 35.86 166.52 34.96 167 33.63 167.71 35.84 167.49 36.22 167.46 38.74 167.32 41.27 167.57 43.8 167.62 45.98 167.67 48.49 167.72 50.53 168.52 51.78 169.01 53.06 169.53 54.38 169.82 55.6 170.09 56.82 170.05 58.06 170.12 58.74 170.08 59.42 170.01 60.12 169.89 61.15 169.71 61.51 168.88 62.4 168.45 63.06 168.14 63.68 167.98 64.4 167.92 64.73 167.89 65.07 167.85 65.4 167.92 65.54 167.95 65.62 168 65.67 168.04 65.63 167.98 65.57 167.87 65.51 167.66 64.93 165.86 64.04 164.46 64.19 162.52 64.34 160.51 64.9 158.53 65.33 156.57 65.89 154.08 66.52 151.62 67.29 149.18 67.96 147.08 68.39 144.98 68.95 142.85 69.26 141.65 69.61 140.31 68.15 139.72Z" fill="#C46A2F"/></g></g></g><g><g><path d="M147.6 78.41C147.47 78.21 147.22 78.21 147.01 78.23 146.85 78.25 146.7 78.29 146.56 78.34 146.98 77.63 147.4 76.91 147.76 76.18 148.6 74.49 149.53 72.2 149.55 70.3 149.57 68.92 149.13 68.25 148.47 68.04 148.99 67.2 149.41 66.2 149.08 65.3 148.4 63.46 146.32 63.33 144.61 63.35 139.61 63.41 134.48 64.46 129.68 65.79 124.53 67.21 119.43 69.1 114.52 71.21 111.9 72.34 109.39 73.84 106.87 75.14 105.74 75.73 104.64 76.38 103.55 77.05 102.95 77.43 101.79 78.5 100.79 78.86 96.56 76.02 91.94 73.68 87.36 71.56 83.81 69.92 80.22 68.73 76.39 67.96 74.76 67.64 73.12 67.41 71.47 67.25 70.75 67.18 69.91 67.04 69.09 66.99 69.22 66.67 69.19 66.28 68.98 65.83 68.71 65.26 67.99 64.76 67.52 64.37 66.83 63.8 66.26 63.07 65.73 62.33 64.34 56.7 63.66 50.96 63.15 45.19 62.61 39.11 61.19 32.68 58.9 27.02 58.27 25.48 57.52 23.94 56.65 22.46 59.29 20.95 60.79 17.57 60.47 14.63 60.21 12.21 57.22 10.38 54.93 11.02 55.08 10.02 55.03 9.07 54.39 8.2 53.51 7.01 51.87 7.04 50.6 7.38 49.87 7.58 49.34 7.93 48.81 8.44 47.94 9.26 48.29 7.77 48.23 7.09 48.1 5.39 48.04 3.53 47.06 2.05 46.21 0.77 45.04-0.26 43.38 0.05 41.84 0.35 39.9 1.32 39.15 2.79 38.17 4.7 37.94 6.72 38.17 8.84 38.26 9.68 38.49 11.08 39.06 11.98 38.28 12.29 37.57 12.74 36.9 13.3 36.61 13.37 36.31 13.46 36.01 13.57 33.23 14.57 30.54 16.9 28.72 19.62 28.15 18.21 26.66 17.34 25.31 16.66 23.97 15.99 22.73 15.12 21.35 14.49 19.67 13.71 17.86 13.21 16.05 12.84 13.16 12.26 10.11 12.24 7.2 12.69 6.58 12.79 3.15 13.5 4.74 14.68 5.96 15.59 7.44 16.25 8.74 17.04 10.14 17.88 11.45 18.83 12.75 19.82 15.57 21.95 18.13 23.97 20.39 26.7 21.12 27.59 21.82 28.52 22.49 29.46 21.54 29.24 20.59 29.32 19.48 29.37 17.47 29.46 15.43 29.88 13.53 30.54 11.44 31.26 9.5 32.61 7.75 33.93 7.19 34.35 5.27 35.29 5.64 36.31 6 37.28 8.51 36.73 9.2 36.69 11.65 36.53 14.12 36.43 16.56 36.16 18.95 35.9 21.49 35.53 23.84 34.72 22.89 35.61 21.94 36.5 21.02 37.42 18.26 40.19 16.04 43.56 14.12 46.95 12.05 50.6 10.22 54.3 8.97 58.32 8.22 60.7 6.71 65.41 8.4 67.73 8.46 67.81 8.55 67.81 8.64 67.81 8.96 67.77 9.19 67.64 9.4 67.45 9.25 68.13 9.11 68.82 8.93 69.52 8.71 70.34 8.37 71.79 9.46 72.17 6.03 76.54 3.16 81.82 1.9 87.18 1.19 90.2 0.24 93.25 0.04 96.36-0.15 99.22 0.44 102.22 1.29 104.94 3.1 110.69 6.92 116.12 11.14 120.36 15.52 124.77 21.88 127.43 27.61 129.55 27.67 129.57 27.74 129.55 27.79 129.51 28.26 130.22 28.81 130.89 29.43 131.48 31.79 133.72 34.47 135.78 37.17 137.6 43.36 141.78 50.41 144.67 57.75 145.93 58.33 146.39 58.98 146.81 59.73 147.17 63.01 148.72 66.77 149.7 70.26 148.34 70.89 148.43 71.57 148.43 72.11 148.55 73.41 148.86 74.91 148.95 76.24 148.82 79.86 148.47 83.51 148.36 87.12 147.98 94.3 147.23 101.46 144.41 107.98 141.42 111.24 139.93 114.05 137.96 116.82 135.71 119.78 133.32 121.78 130.47 123.72 127.24 125.77 123.84 127.3 120.46 128.17 116.57 128.46 115.25 128.67 113.92 128.79 112.59 131.93 109.36 134.67 105.52 136.46 101.39 137.26 99.53 137.77 97.66 138.07 95.69 140.94 93.02 143.4 89.9 145.38 86.53 146.36 84.86 147.08 83.05 147.6 81.2 147.87 80.28 148.14 79.24 147.6 78.41Z"/></g><g><path d="M39.26 10.29C39.09 9.38 39.04 8.46 39.07 7.54 39.15 4.9 40.27 2.71 42.64 1.49 45.23 0.16 46.7 2.74 47.24 4.81 47.63 6.31 47.33 8 47.76 9.46 47.8 9.58 47.96 9.65 48.07 9.61 49.23 9.25 49.86 8.22 51.14 7.9 53.79 7.25 54.42 9.74 53.94 11.69 53.85 12.03 54.24 12.24 54.52 12.08 56.8 10.78 58.99 13.37 59.09 15.46 59.21 17.93 57.71 19.82 56.01 21.4 54.06 18.34 51.61 15.58 48.72 13.53 46.57 12.01 43.94 11.33 41.32 11.49 40.69 11.53 40.12 11.64 39.58 11.8 39.43 11.24 39.32 10.55 39.26 10.29Z" fill="#851016"/></g><g><path d="M28.91 20.75C28.94 20.73 28.97 20.7 28.97 20.66L28.97 20.65C30.12 18.84 31.77 17.22 33.18 16.03 33.98 15.35 35.01 14.63 36.1 14.18 36.12 14.18 36.14 14.18 36.16 14.17 36.17 14.16 36.19 14.15 36.2 14.15 37.06 13.81 37.96 13.64 38.83 13.8 42.14 14.42 40.45 19.58 39.48 21.49 38.04 24.34 33.71 31.05 29.65 29.01 28.47 28.42 27.53 26.43 27.5 25.15 27.47 23.63 28.05 22.14 28.91 20.75Z" fill="#FFFFFF"/></g><g><path d="M38.82 13.79C37.95 13.63 37.05 13.8 36.19 14.14 36.18 14.15 36.16 14.15 36.15 14.16 36.13 14.17 36.11 14.18 36.09 14.17 35.83 14.28 35.57 14.4 35.32 14.54 35.98 14.3 36.66 14.19 37.31 14.31 40.04 14.82 38.64 19.06 37.85 20.64 36.67 22.98 33.1 28.5 29.77 26.83 28.8 26.34 28.03 24.71 28.01 23.65 28 23.05 28.1 22.44 28.3 21.85 27.79 22.91 27.48 24.02 27.5 25.14 27.53 26.42 28.47 28.41 29.65 29 33.7 31.04 38.04 24.32 39.48 21.48 40.44 19.58 42.13 14.41 38.82 13.79Z" fill="#E2E2E2"/></g><g><path d="M20.07 24.68C17.02 21.14 12.79 18.35 8.76 16.06 7.68 15.44 6.58 14.85 5.51 14.22 4.68 13.73 7.49 13.39 7.85 13.34 10.62 12.93 13.57 13.17 16.3 13.72 18.91 14.25 21.42 15.3 23.75 16.58 25.33 17.45 27.59 18.3 28.5 19.98 27.64 21.33 27 22.77 26.67 24.18 26.22 26.14 26.73 28.34 28.45 29.48 28.73 29.67 29.01 29.79 29.3 29.88 29.25 29.96 29.2 30.04 29.16 30.12 28.61 30.5 28.02 30.81 27.51 31.28 27.34 31.44 27.17 31.6 26.99 31.75 26.05 31.84 25.06 31.4 24.42 30.52 22.99 28.56 21.68 26.55 20.07 24.68Z" fill="#FDC94C"/></g><g><path d="M19.02 34.83C17.19 35.12 15.36 35.32 13.51 35.4 11.65 35.48 9.65 35.9 7.8 35.73 7.46 35.7 6.59 35.99 6.94 35.68 7.34 35.32 7.92 35.01 8.35 34.67 9.87 33.46 11.53 32.4 13.29 31.59 15 30.81 17.02 30.44 18.87 30.16 20.11 29.96 21.45 29.66 22.72 29.75 22.93 30.04 23.13 30.34 23.33 30.63 23.96 31.55 24.63 32.37 25.8 32.53 25.91 32.55 26.03 32.56 26.15 32.56 26.07 32.64 25.98 32.72 25.9 32.8 25.52 32.99 25.15 33.18 24.76 33.35 22.91 34.16 20.99 34.52 19.02 34.83Z" fill="#FDC94C"/></g><g><path d="M12.36 60.97C11.72 61.79 11.14 62.64 10.66 63.53 10.12 64.55 9.82 65.58 9.58 66.62 8.06 67.43 8.55 64 8.65 63.24 8.93 61.18 9.64 59.16 10.38 57.24 11.77 53.58 13.74 50.16 15.68 46.78 17.59 43.47 19.82 40.42 22.37 37.58 23.51 36.31 24.73 35.1 25.91 33.86 26.96 33.34 27.95 32.71 28.83 31.93 28.95 31.83 28.97 31.68 28.93 31.58 29.35 31.1 29.61 30.54 29.99 30.03 30.46 30.07 30.94 30.03 31.41 29.93 31.26 30.03 31.12 30.12 30.97 30.22 30.18 30.79 29.68 31.5 29.15 32.21 30.72 30.74 32.97 29.86 34.93 29.31 37.48 28.59 40.08 28.26 42.68 28.41 42.92 28.26 43.07 27.88 42.72 27.77 40.25 27 37.65 27.27 35.21 28.06 36.76 26.78 38.07 24.9 39.08 23.36 40.07 21.86 40.65 20.44 40.93 18.86 41.43 17.44 41.5 15.81 40.68 14.56 39.95 13.45 39 13.09 37.95 13.14 38.53 12.9 39.12 12.74 39.71 12.65 39.74 12.67 39.77 12.69 39.81 12.71 39.86 12.74 39.94 12.68 39.92 12.62 43.94 12.14 47.95 15 50.87 17.93 54.68 21.75 56.94 26.84 58.65 31.87 60.51 37.32 61.89 42.86 62.73 48.55 63.35 52.81 63.93 57.14 65.02 61.32 63.63 59.34 62.44 56.95 61.75 54.65 61.72 54.56 61.58 54.62 61.59 54.7 62.01 57.1 62.99 59.3 63.95 61.52 64.42 62.6 65.02 63.65 65.73 64.59 66.27 65.3 67.31 65.87 67.74 66.7 66.87 67.09 64.99 66.2 64.06 66.13 64.29 67.43 64.41 68.77 63.69 69.74 62.63 71.18 61.44 69.18 60.83 67.76 60.82 68.35 60.8 68.95 60.73 69.53 60.58 70.9 60.32 72.65 59.22 73.64 57.26 75.38 55.7 74.11 54.63 72.32 52.89 70.94 51.53 68.88 50.26 67.2 50.21 67.14 50.1 67.21 50.13 67.28 50.46 67.93 50.8 68.57 51.14 69.2 51.12 69.23 51.11 69.26 51.1 69.29 50.77 70.66 50.64 76.4 48.24 75 46.99 74.28 46.29 73.3 45.63 72.04 45.39 71.6 45.39 71.08 45.02 70.72 44.94 70.65 44.86 70.61 44.78 70.6 44.65 70.85 44.52 71.1 44.37 71.35 43.66 72.58 42.73 74.13 41.33 74.67 39.84 75.25 38.45 74.27 37.89 72.87 37.51 71.91 37.34 70.89 37.17 69.87 37.12 69.6 37.08 69.31 37.02 69.02 37.01 69.03 37 69.04 37 69.05 36.78 69.89 36.79 71.26 37.05 72.62 36.07 73.79 35.11 75.04 33.83 75.82 30.83 77.65 32.6 72.24 32.68 71.38 32.7 71.17 32.53 71.07 32.34 71.15 32.28 71.18 32.21 71.21 32.14 71.24 31.47 71.73 30.74 72.17 30.02 72.54 29.8 72.67 29.58 72.8 29.34 72.91 29.16 73 28.98 73.06 28.8 73.11 27.33 73.74 25.22 74.41 23.96 73.27 22.57 72.02 22.51 69.75 22.67 68.02 22.71 67.62 22.76 67.2 22.82 66.78 22.39 67.67 22.04 68.64 21.86 69.61 21.2 69.94 20.55 70.29 19.92 70.68 19.76 70.78 17.71 72.37 17.6 71.52 17.41 70.01 18.87 68.78 18.71 67.39 18.7 67.25 18.58 67.19 18.45 67.21 17.16 67.4 16.18 68.74 15.02 69.29 14.15 69.71 13.22 70 12.31 70.33 11.65 70.57 9.83 71.33 10.15 69.87 10.28 69.25 10.39 68.64 10.49 68.03 10.51 65.64 11.17 63.15 12.36 60.97Z" fill="#985614"/></g><g><path d="M145.59 83.37C145 84.87 144.18 86.26 143.31 87.61 141.78 89.97 140 92.12 138.26 94.32 138.37 93.27 138.43 92.23 138.47 91.18 138.49 90.59 138.35 89.97 138.32 89.37 137.87 91.12 137.48 92.89 136.94 94.62 136.55 96.36 136.11 98.07 135.43 99.74 133.8 103.73 131.18 107.13 128.9 110.74 128.91 108.96 128.7 107.18 128.86 105.42 128.87 105.31 128.73 105.33 128.7 105.41 128.27 106.85 128.16 108.35 127.85 109.82 127.51 111.44 127.11 113.06 126.67 114.66 125.67 118.29 124.2 122.01 122.13 125.16 120.18 128.13 118.8 131.31 116.17 133.79 113.51 136.3 110.74 138.32 107.43 139.88 101.41 142.74 94.81 145.18 88.2 146.18 84.92 146.68 81.53 146.6 78.22 146.93 77.55 147 76.83 147.31 76.15 147.43 75.34 147.58 74.44 147.55 73.61 147.54 72.91 147.53 72.24 147.39 71.55 147.31 70.95 147.24 70.05 147.5 69.5 147.23 69.26 147.11 68.96 147.27 68.87 147.49 66.17 147.61 63.66 147.16 61.07 146.15 59.45 145.52 58.05 144.73 56.72 143.62 55.54 142.63 53.12 141.15 52.95 139.44 52.95 139.39 52.88 139.42 52.88 139.46 52.79 140.73 54.05 142.21 54.86 143.08 55.42 143.68 55.95 144.25 56.49 144.79 50.44 142.83 44.68 140.34 39.24 136.97 36.55 135.31 34.23 133.22 31.68 131.37 30.35 130.4 29.11 129.5 28.09 128.18 27.05 126.83 26.18 125.32 25.45 123.79 25.42 123.72 25.31 123.78 25.33 123.85 25.85 125.64 26.52 127.44 27.49 129.04 22.06 126.45 16.91 123.43 12.51 119.27 8.42 115.39 5 109.98 3.11 104.69 2.18 102.08 1.78 99.35 1.7 96.59 1.61 93.49 2.79 90.22 3.46 87.23 4.67 81.87 7.37 77.09 9.87 72.26 10.99 72.34 12.2 71.38 13.14 70.97 15.01 70.15 16.3 69.19 17.89 67.98 17.73 68.1 17.32 69.65 17.23 69.88 17.02 70.44 16.76 71.15 16.75 71.76 16.74 72.57 17.15 73.52 18.15 73.14 19.34 72.68 20.63 71.87 21.73 70.98 21.71 72.51 22.24 73.94 23.71 74.91 25.07 75.82 27.13 75.59 28.56 75.03 29.99 74.47 30.98 73.34 31.98 72.24 31.56 73.85 30.65 76.27 32.51 76.86 34.1 77.36 35.95 75.24 37.24 73.52 37.66 75.02 38.42 76.34 39.56 76.69 40.82 77.07 41.72 76.55 42.56 75.6 43.37 74.69 44.44 72.84 44.66 71.65 44.49 72.58 46.25 74.49 46.79 75.02 47.38 75.61 48.5 76.37 49.41 76.17 51.34 75.76 51.7 72.19 51.63 70.14 52.12 71.01 52.63 71.85 53.18 72.68 53.96 73.85 55.53 75.52 57.07 75.52 60.34 75.52 60.98 72.61 61.29 69.94 61.85 70.88 62.61 71.73 63.59 71.19 64.73 70.57 64.69 69.05 64.48 67.74 64.62 67.63 64.71 67.46 64.63 67.28 65.68 67.57 66.66 68.13 67.81 67.89 68.19 67.81 68.51 67.67 68.74 67.48 69.76 67.66 70.87 68.01 71.74 68.19 73.3 68.52 74.85 68.93 76.4 69.34 80.08 70.34 83.57 71.69 86.98 73.38 92.26 75.98 97.49 78.81 102.48 81.96 101.19 81.74 99.88 81.57 98.59 81.52 98.14 81.5 96.5 81.53 95.16 81.35 95.55 81.59 95.96 81.8 96.38 81.99 97 82.06 97.52 82.09 97.75 82.13 100.57 82.64 103.27 83.29 105.97 84.23L105.97 84.23C106.04 84.27 106.11 84.3 106.19 84.3 106.36 84.36 106.52 84.41 106.68 84.48 109.44 85.5 112.19 86.56 114.94 87.61 115.98 88 117.2 88.31 118.17 88.86 118.1 88.82 116.67 89.71 115.66 90.32 115.38 90.3 115.1 90.28 114.82 90.26 112.99 90.16 111.16 90.29 109.33 90.27 108.56 90.26 107.8 90.22 107.04 90.16 107.69 90.49 108.49 90.7 108.92 90.83 109.29 90.94 109.67 91.04 110.05 91.13 110.93 91.26 111.82 91.37 112.7 91.49 115.62 91.89 118.44 92.57 121.26 93.41 122.42 93.75 123.52 94.18 124.65 94.62 125.18 94.83 125.68 95.01 126.17 95.31 127.05 95.84 126.16 96.74 125.79 97.22 125.12 98.09 124.33 98.87 123.57 99.67 123.59 99.54 123.62 99.41 123.63 99.28 123.96 96.69 122.77 95.81 121.13 95.72 122.9 97.09 121.9 100.84 120.93 102.53 119.06 105.82 115.65 108.68 111.91 109.84 112.02 109.93 112.18 109.97 112.4 109.92 114.24 109.47 116.04 108.78 117.65 107.83 116.54 109.53 115.29 111.1 113.5 112.36 111.78 113.57 109.73 114.43 107.81 115.23 106.94 115.59 105.8 116.17 104.65 116.54 103.88 116.82 103.11 117.09 102.32 117.32 103.41 117.6 104.62 117.27 105.7 117.07 106.4 116.94 107.1 116.75 107.8 116.54 104.12 120.17 99.16 122.85 94.49 124.6 92.24 125.44 90.09 125.88 87.84 126.01 85.08 126.5 82.17 126.4 79.48 125.72 78.28 125.42 76.78 125.02 75.5 124.36 76.84 125.81 79.87 126.33 81.36 126.65 82.4 126.87 83.45 127.05 84.49 127.18 82.82 127.67 81.09 127.97 79.37 128.2 76.11 128.63 72.97 128.91 69.69 128.55 66.42 128.18 63.19 127.34 60.32 125.7 58.31 124.55 56.26 123.28 54.72 121.55 54.51 121.37 54.31 121.18 54.12 120.98 53.95 120.8 53.78 120.6 53.63 120.41 54.87 122.8 56.99 124.6 59.13 126.19 61.56 128 64.11 129.2 66.96 129.91 63.55 130.68 60.22 130.72 56.77 129.89 53.36 129.08 50.45 127.14 47.59 125.19 45 123.43 42.91 120.38 41.53 117.59 40.88 116.29 40.19 114.94 39.63 113.56 39.08 112.25 38.61 110.9 38.27 109.52 38.14 112.31 39.16 115.01 39.99 117.7 40.09 118.03 40.2 118.35 40.32 118.67 39.24 117.61 38.22 116.52 37.61 115.12 37.53 114.89 37.45 114.67 37.36 114.46 37.21 113.97 36.5 114.4 36.58 114.82 36.67 115.29 36.76 116.1 36.61 116.74 34.43 114.25 32.77 111.23 32.02 108.01 31.49 105.76 31.23 103.44 31.29 101.13 31.35 98.67 31.14 96.24 32.47 94.04 32.51 93.96 32.39 93.92 32.35 93.99 31.03 95.76 30.72 97.78 30.52 99.94 30.38 101.51 30.24 103.03 30.21 104.56 28.46 101.31 27.36 97.41 27.68 93.86 27.88 91.62 28.76 89.35 29.69 87.32 30.26 86.08 31 84.78 32.17 84.03 32.21 84.01 32.24 83.98 32.28 83.96 32.62 83.54 32.98 83.12 33.35 82.72 33.31 82.71 33.27 82.73 33.24 82.77 32.69 83.65 31.4 83.75 30.67 84.49 29.78 85.41 29.08 86.49 28.44 87.58 27.1 89.86 26.25 92.35 26.02 94.99 25.8 97.41 26.64 99.74 27.28 102.03 27.82 103.94 28.84 105.73 30.27 107.11 30.27 107.17 30.27 107.24 30.28 107.3 30.6 111.34 32.8 116.32 36.06 118.85 36.44 119.15 37.02 118.89 37.29 118.57 37.68 118.12 37.85 117.56 37.88 116.98 38.71 118.11 39.71 119.09 40.84 119.91 41.23 120.74 41.68 121.54 42.21 122.33 43.2 123.79 44.37 125.38 45.82 126.41 49.11 128.74 52.49 130.97 56.51 131.79 60.46 132.6 64.31 132.34 67.89 130.39 67.99 130.34 68.05 130.25 68.09 130.16 68.41 130.23 68.74 130.29 69.07 130.34 72.53 130.91 76.03 130.73 79.48 130.14 82.19 129.68 84.98 129.22 87.06 127.39 89.06 127.45 91.05 127.26 93.03 126.67 94.78 126.15 96.56 125.5 98.24 124.76 99.99 123.98 101.55 122.78 103.24 121.87 105.68 120.56 108.45 118.41 109.82 115.85 111.04 115.38 112.22 114.83 113.34 114.27 116.81 112.51 120.19 108.91 121.13 104.96 122.11 103.81 122.86 102.47 123.3 100.93 124.86 99.75 126.46 98.55 127.64 97 129.34 94.76 127.22 93.22 125.21 92.44 123.25 91.68 121.2 91.13 119.12 90.76 120.11 90.28 120.84 89.59 120.79 88.67 120.73 87.49 119.54 86.89 118.59 86.52 117.22 85.97 115.7 85.52 114.27 85.11 111.4 84.3 108.62 83.35 105.74 82.64 104.33 81.43 102.85 80.3 101.31 79.25 102.01 79.02 102.72 78.52 103.29 78.25 105.41 77.24 107.52 76.2 109.64 75.19 114.32 72.98 118.95 70.91 123.91 69.37 128.21 68.04 132.38 66.66 136.83 65.9 139.08 65.52 141.36 65.31 143.63 65.13 144.78 65.04 146.78 64.86 147.34 66.12 147.59 66.68 147.38 67.43 147.16 68.07 145.29 68.52 142.82 70.39 141.77 71.13 141.67 71.2 141.7 71.33 141.77 71.37 143.04 70.47 144.35 69.23 145.8 69.29 145.8 69.29 145.81 69.29 145.82 69.28 146.28 69.09 146.65 68.99 146.95 68.97 147.05 69.18 147.39 69.22 147.64 69.11 148.58 69.75 147.57 72.29 147.27 73.41 146.48 76.38 144.26 78.65 143.31 81.49 143.08 82.19 144.02 82.35 144.44 82.02 145.07 81.52 145.82 80.15 146.61 79.66 146.84 80.72 145.84 82.72 145.59 83.37Z" fill="#FADCA3"/></g><g opacity="0.5"><path d="M75.72 86.14C80.22 87.16 94.76 89.68 93.84 91.52 92.92 93.36 89.54 93.21 89.54 93.21 92 93.82 111.96 96.28 108.93 100.14 105.91 104 99.2 103.52 99.2 103.52 99.2 103.52 106.58 105.64 101.51 108.78 96.44 111.91 84.77 109.94 84.77 109.94 84.77 109.94 96.59 114.54 88.73 115.85 80.87 117.15 75.6 114.74 75.6 114.74 75.6 114.74 78.01 117.92 71.72 116.62 65.43 115.31 60.87 112.44 60.87 112.44 60.87 112.44 65.58 120.08 55 114.7 44.41 109.33 43.83 99.58 43.83 99.58 41.87 103.8 37.99 92.63 40.78 84.61 42.88 78.57 60.33 87.37 60.33 87.37 60.33 87.37 61.16 82.82 75.72 86.14Z" fill="#FADCA3"/></g><g><path d="M48.63 109.97C47.33 107.85 45.55 106.08 44.36 103.88 44.14 103.47 43.96 103.05 43.8 102.62 43.8 102.53 43.78 102.45 43.72 102.36 43.71 102.36 43.71 102.35 43.71 102.35 43.52 101.8 43.36 101.23 43.19 100.67 42.7 99.02 43.09 97.85 43.43 96.27 43.45 96.18 43.31 96.17 43.28 96.24 42.93 97.19 42.27 98.1 42.2 99.12 42.19 99.31 42.18 99.5 42.17 99.69 41.44 98.04 40.96 96.24 40.54 94.56 40.09 92.77 39.99 90.89 40.2 89.06 40.32 88.04 41.07 87.2 40.94 86.14 40.93 86.09 40.87 86.12 40.87 86.15 40.83 86.92 40.15 87.7 39.83 88.4 39.49 89.15 39.34 90 39.18 90.81 38.84 92.63 38.91 94.38 39.25 96.19 39.66 98.38 40.24 101.74 42.44 102.88 42.52 103.26 42.61 103.65 42.71 104.02 43.5 106.81 45.41 109.22 47.93 110.62 48.35 110.89 48.89 110.39 48.63 109.97Z"/></g><g><path d="M63.76 113.02C62.24 112.14 60.79 111.51 59.6 110.16 58.53 108.95 57.89 107.44 56.82 106.26 56.79 106.23 56.74 106.27 56.76 106.31 57.25 106.99 57.61 107.95 57.95 108.7 58.32 109.5 58.92 110.25 59.43 110.96 60.35 112.26 61.82 113.28 63.36 113.64 63.67 113.71 64.13 113.23 63.76 113.02Z"/></g><g><path d="M82.38 114.27C76.41 113.46 69.1 111.72 65.98 105.96 65.94 105.89 65.83 105.95 65.86 106.02 68.15 112.05 75.93 116.56 82.29 115.23 82.81 115.12 82.99 114.36 82.38 114.27Z"/></g><g><path d="M91.7 109.73C90.54 109.95 89.4 109.83 88.24 109.63 87.36 109.47 86.15 109.62 85.59 108.8 85.56 108.75 85.47 108.81 85.49 108.86 85.86 109.7 86.78 109.82 87.58 110.05 89.01 110.47 90.36 110.77 91.8 110.26 92.1 110.15 92.05 109.67 91.7 109.73Z"/></g><g><path d="M105.43 102.74C102.7 103.52 99.54 103.59 96.73 103.49 95.13 103.43 93.63 103.34 92.1 102.86 90.77 102.44 89.5 101.71 88.16 101.62 88.21 101.62 88.25 101.54 88.2 101.52 88.14 101.49 88.07 101.46 88.01 101.44 87.92 101.38 87.78 101.54 87.88 101.6 89.26 102.41 90.57 103.32 91.96 104.08 93.33 104.83 94.83 105.01 96.35 105.25 99.36 105.71 103.32 105.63 105.7 103.47 105.97 103.21 105.93 102.59 105.43 102.74Z"/></g><g><path d="M108.93 100.14C108.09 100.32 107.26 100.6 106.47 100.11 106.29 100 106.05 100.27 106.22 100.42 107.03 101.14 108.1 101.09 109.02 100.61 109.26 100.47 109.26 100.07 108.93 100.14Z"/></g><g><path d="M20.89 53.64C19.76 54.82 18.91 56.19 18.01 57.54 17.52 58.26 17 59.39 17.88 60.01 18.12 60.18 18.55 59.92 18.51 59.62 18.35 58.62 18.67 57.91 19.17 57.07 19.82 55.96 20.28 54.78 21 53.7 21.05 53.63 20.95 53.58 20.89 53.64Z"/></g><g><path d="M20.99 57.98C20.55 58.74 19.99 59.51 19.9 60.4 19.87 60.65 20.22 60.68 20.3 60.46 20.62 59.65 20.92 58.85 21.28 58.06 21.38 57.85 21.09 57.81 20.99 57.98Z"/></g><g><path d="M27.37 64.35C26.79 62.98 27.34 61.29 27.6 59.94 27.66 59.63 27.24 59.7 27.16 59.93 26.8 61 26.43 62 26.22 63.12 26.11 63.72 26.01 64.57 26.59 64.96 26.94 65.19 27.54 64.76 27.37 64.35Z"/></g><g><path d="M30.83 63.15C30.99 62.36 31.29 61.61 31.44 60.82 31.5 60.51 31.08 60.58 31 60.81 30.5 62.35 29.4 63.9 30.06 65.56 30.19 65.9 30.71 65.72 30.75 65.41 30.87 64.65 30.68 63.92 30.83 63.15Z"/></g><g><path d="M50.86 52.32C50.73 51.26 50.39 50.22 50.19 49.17 49.98 48.12 49.9 47.1 49.45 46.12 49.42 46.05 49.31 46.11 49.33 46.18 50 48.24 49.48 50.47 50.3 52.51 50.42 52.8 50.89 52.6 50.86 52.32Z"/></g><g><path d="M48.13 59.82C48.16 59.16 48.01 58.49 47.92 57.84 47.83 57.21 47.87 56.57 47.79 55.94 47.76 55.69 47.41 55.81 47.41 56.02 47.44 57.26 47.05 58.83 47.68 59.97 47.81 60.22 48.12 60.06 48.13 59.82Z"/></g><g><path d="M54.57 60.57C54.23 59.52 54.12 58.41 53.82 57.35 53.79 57.23 53.59 57.32 53.61 57.42 53.8 58.54 53.69 59.7 54.23 60.74 54.33 60.93 54.63 60.77 54.57 60.57Z"/></g><g><path d="M58.14 48.66C57.56 46.57 57.48 44.23 56.55 42.25 56.51 42.17 56.39 42.24 56.41 42.32 57.12 44.44 56.46 46.96 57.54 48.94 57.72 49.28 58.23 49.01 58.14 48.66Z"/></g><g><path d="M53.98 27.77C53.89 27.6 53.61 27.75 53.67 27.92 54.05 28.92 54.38 29.92 54.58 30.97 54.62 31.19 54.97 31.15 54.99 30.93 55.09 29.79 54.48 28.76 53.98 27.77Z"/></g><g><path d="M52.5 23.86C52.01 22.81 50.95 21.75 51.11 20.52 51.13 20.35 50.9 20.38 50.86 20.52 50.57 21.8 51.43 23.1 52.21 24.04 52.31 24.16 52.57 24.01 52.5 23.86Z"/></g><g><path d="M51.79 36.59C51.65 35.44 50.95 34.44 50.85 33.29 50.83 33.04 50.47 33.16 50.47 33.37 50.5 34.54 51.1 35.62 51.36 36.74 51.42 36.96 51.81 36.79 51.79 36.59Z"/></g></g><g><g><path d="M34.64 21.08C32.84 23.34 30.56 24.5 29.54 23.69 28.52 22.88 29.15 20.39 30.95 18.13 32.75 15.88 35.03 14.71 36.05 15.52 37.08 16.33 36.44 18.82 34.64 21.08Z"/></g><g><path d="M34.63 19.04C34.08 19.73 33.39 20.08 33.08 19.83 32.77 19.58 32.96 18.83 33.51 18.14 34.06 17.45 34.75 17.1 35.06 17.34 35.37 17.59 35.18 18.35 34.63 19.04Z" fill="#FFFFFF"/></g></g><g><path d="M28.45 29.49C27.19 28.65 26.58 27.23 26.52 25.76 22.89 25.92 19.34 20.22 13.76 17.27 9.8 15.17 8.48 13.88 9.24 13.2 8.77 13.23 8.29 13.28 7.83 13.35 7.47 13.4 4.66 13.75 5.49 14.23 6.57 14.86 7.66 15.45 8.74 16.07 12.78 18.36 17 21.15 20.05 24.69 21.66 26.56 22.96 28.56 24.41 30.55 25.05 31.43 26.04 31.87 26.98 31.78 27.15 31.62 27.33 31.46 27.5 31.31 28.01 30.84 28.6 30.53 29.15 30.15 29.2 30.07 29.25 29.99 29.29 29.91 29.02 29.8 28.73 29.67 28.45 29.49Z" fill="#EAB43B"/></g><g opacity="0.6"><path d="M67.74 66.72C67.31 65.89 66.27 65.32 65.73 64.61 65.02 63.67 64.42 62.62 63.95 61.54 62.99 59.32 62.01 57.12 61.59 54.72 61.58 54.64 61.72 54.58 61.75 54.67 62.44 56.97 63.64 59.36 65.02 61.34 63.92 57.16 63.35 52.83 62.73 48.57 61.89 42.88 60.51 37.34 58.65 31.89 56.94 26.86 54.67 21.76 50.87 17.95 47.95 15.02 43.95 12.16 39.92 12.64 39.94 12.69 39.86 12.75 39.81 12.73 39.78 12.71 39.75 12.69 39.71 12.67 39.12 12.76 38.54 12.92 37.95 13.16 39 13.12 39.95 13.48 40.68 14.58 41.51 15.83 41.43 17.46 40.93 18.88 40.65 20.46 40.06 21.88 39.08 23.38 38.07 24.91 36.76 26.79 35.21 28.08 37.65 27.29 40.24 27.02 42.72 27.79 43.07 27.9 42.93 28.27 42.68 28.43 40.07 28.28 37.47 28.6 34.93 29.33 32.97 29.89 30.72 30.76 29.15 32.23 29.67 31.52 30.17 30.81 30.97 30.24 31.12 30.14 31.26 30.04 31.41 29.95 30.94 30.05 30.46 30.1 29.99 30.05 29.61 30.56 29.36 31.12 28.93 31.6 28.98 31.7 28.95 31.85 28.83 31.95 27.95 32.73 26.96 33.36 25.91 33.88 24.73 35.12 23.51 36.33 22.37 37.6 19.81 40.44 17.58 43.49 15.68 46.8 13.73 50.18 11.77 53.6 10.38 57.26 9.65 59.18 8.93 61.21 8.65 63.26 8.55 64.02 8.05 67.45 9.58 66.64 9.82 65.59 10.12 64.56 10.66 63.55 11.14 62.66 11.72 61.8 12.36 60.99 11.18 63.17 10.51 65.65 10.52 68.09 10.41 68.7 10.31 69.31 10.18 69.93 9.86 71.4 11.69 70.63 12.34 70.39 13.25 70.06 14.18 69.76 15.05 69.35 16.21 68.8 17.19 67.45 18.48 67.27 18.61 67.25 18.73 67.31 18.74 67.45 18.89 68.83 17.43 70.06 17.63 71.58 17.74 72.43 19.79 70.84 19.95 70.74 20.58 70.35 21.24 70 21.89 69.67 22.07 68.7 22.43 67.73 22.85 66.84 22.79 67.26 22.73 67.68 22.7 68.08 22.54 69.81 22.59 72.07 23.99 73.33 25.25 74.47 27.36 73.81 28.83 73.17 29.01 73.12 29.19 73.05 29.37 72.97 29.6 72.86 29.83 72.73 30.05 72.6 30.77 72.23 31.49 71.79 32.17 71.3 32.24 71.27 32.3 71.23 32.37 71.21 32.56 71.13 32.74 71.24 32.71 71.44 32.63 72.3 30.86 77.71 33.86 75.88 35.15 75.09 36.1 73.85 37.08 72.68 36.82 71.32 36.81 69.95 37.03 69.11 37.03 69.1 37.04 69.09 37.05 69.08 37.1 69.37 37.15 69.66 37.2 69.93 37.38 70.95 37.54 71.97 37.92 72.93 38.47 74.33 39.87 75.3 41.36 74.73 42.76 74.19 43.68 72.64 44.4 71.41 44.54 71.17 44.68 70.92 44.81 70.66 44.89 70.67 44.98 70.7 45.05 70.78 45.42 71.14 45.42 71.66 45.66 72.1 46.32 73.35 47.03 74.33 48.27 75.06 50.67 76.45 50.8 70.72 51.13 69.35 51.14 69.32 51.15 69.29 51.17 69.26 50.83 68.63 50.49 67.99 50.16 67.34 50.13 67.28 50.24 67.2 50.29 67.26 51.56 68.94 52.92 71 54.66 72.38 55.73 74.17 57.29 75.45 59.25 73.7 60.35 72.72 60.6 70.97 60.76 69.59 60.83 69 60.85 68.41 60.86 67.82 61.47 69.24 62.66 71.24 63.72 69.8 64.44 68.83 64.32 67.49 64.09 66.19 64.99 66.22 66.87 67.1 67.74 66.72ZM61.29 60.4C59.81 59.12 57.81 56.15 59.09 58.76 60.37 61.37 60.42 63.73 58.68 62.81 56.94 61.89 54.74 57.39 55.71 60.62 56.68 63.85 57.81 68.7 54.09 67.52 50.37 66.34 47.57 59.76 48.13 63.48 48.7 67.2 48.85 71.98 46.29 65.75 43.73 59.52 45.27 68.91 41.02 69.42 36.77 69.93 38.1 60.92 36.77 64.35 35.44 67.78 32.96 69.88 32.92 67.34 32.89 64.81 32.95 61.2 32.11 64.27 31.27 67.34 27.81 70.03 26.13 67.03 24.45 64.04 27.43 56.82 26.13 59.73 24.84 62.64 20.98 67.57 21 65.02 21.02 62.48 23.66 57.13 22.2 59.73 20.74 62.33 17.13 67.11 16.48 65.74 15.83 64.37 18.47 58.74 16.98 60.82 15.48 62.9 14.98 61.57 15.37 57.87 15.75 54.17 17.21 52.05 14.76 54.97 12.3 57.89 11.38 56.05 15.53 48.52 24.79 31.72 37.84 29.28 41.78 29.38 45.72 29.48 47.51 28.72 44.54 27.69 41.57 26.67 45.51 25.28 42.75 25.85 39.98 26.41 39.27 25.64 40.29 24.57 42.9 21.85 42.2 17.36 42.03 15.25 41.67 10.73 52.31 16.66 56.97 31.12 61.19 44.18 62.45 54.05 61.37 52.11 60.3 50.17 59.58 50.06 60.5 53.62 61.44 57.17 62.77 61.68 61.29 60.4Z" fill="#985614"/></g><g><path d="M25.79 32.53C24.78 32.39 24.14 31.76 23.58 31 22.62 31.79 20.54 32.67 16.1 33.1 13.33 33.37 11.52 33.35 10.46 33.15 9.73 33.62 9.02 34.13 8.34 34.67 7.91 35.01 7.33 35.32 6.93 35.68 6.58 35.99 7.45 35.7 7.79 35.73 9.65 35.9 11.64 35.48 13.5 35.4 15.35 35.32 17.18 35.12 19.01 34.83 20.97 34.52 22.9 34.16 24.74 33.35 25.13 33.18 25.51 32.99 25.88 32.8 25.96 32.72 26.05 32.64 26.13 32.56 26.02 32.55 25.91 32.54 25.79 32.53Z" fill="#EAB43B"/></g><g opacity="0.3"><path d="M32.93 32.31C27.54 35 19.69 42.59 17.33 48.42 14.98 54.25 18.35 50.98 19.68 50.32 21.01 49.65 19.78 51.91 19.47 52.98 19.16 54.06 20.49 53.54 21.77 51.91 23.05 50.27 20.08 55.9 21.56 56.85 23.05 57.8 25.71 53.04 24.84 56.16 23.97 59.28 27.14 57.59 28.01 55.08 28.88 52.57 28.11 56.79 29.03 57.96 29.95 59.13 31.95 56.52 32.2 54.67 32.45 52.83 32.35 60 34.35 60.1 36.35 60.2 37.01 54.21 37.58 55.18 38.14 56.15 39.93 59.47 41.01 55.81 42.08 52.16 41.52 59.52 44.8 59.24 48.08 58.95 46.13 52.35 46.74 53.61 47.36 54.87 49.2 56.62 48.79 52.65 48.38 48.68 49.4 54.51 51.12 54.41 52.83 54.31 52.32 49.07 50.85 43.87 50.27 41.82 51.86 46.2 53.19 46.08 54.52 45.96 52.34 38.95 50.08 34.99 47.83 31.03 41.99 27.79 32.93 32.31Z" fill="#985614"/></g><g opacity="0.6"><g><path d="M40.35 30.14C40.35 30.14 40.24 30.15 40.03 30.19 39.82 30.22 39.52 30.29 39.15 30.37 38.96 30.42 38.75 30.47 38.53 30.53 38.31 30.6 38.06 30.68 37.81 30.76 37.55 30.84 37.28 30.95 37 31.05 36.72 31.16 36.41 31.26 36.11 31.4 35.81 31.53 35.49 31.67 35.16 31.81 34.84 31.97 34.51 32.14 34.17 32.31 33.83 32.48 33.49 32.67 33.14 32.88 32.79 33.08 32.44 33.28 32.08 33.49 31.4 33.96 30.65 34.39 29.96 34.92 29.26 35.45 28.54 35.95 27.88 36.55L26.85 37.39C26.51 37.67 26.2 37.98 25.87 38.27 25.23 38.87 24.59 39.44 24.03 40.05 23.46 40.66 22.88 41.21 22.36 41.78 21.85 42.35 21.38 42.9 20.94 43.39 20.49 43.89 20.1 44.36 19.76 44.78 19.42 45.2 19.12 45.57 18.87 45.87 18.37 46.47 18.08 46.82 18.08 46.82 18.08 46.82 18.33 46.45 18.77 45.8 18.99 45.48 19.26 45.09 19.57 44.64 19.73 44.42 19.89 44.18 20.07 43.93 20.25 43.68 20.46 43.44 20.66 43.17 21.08 42.65 21.54 42.08 22.02 41.48 22.51 40.88 23.07 40.29 23.64 39.68 24.19 39.05 24.84 38.46 25.47 37.85 26.09 37.22 26.78 36.64 27.47 36.07 28.15 35.48 28.9 34.97 29.61 34.45 30.32 33.92 31.09 33.5 31.79 33.03 32.53 32.63 33.24 32.21 33.95 31.91 34.3 31.75 34.65 31.6 34.98 31.45 35.32 31.32 35.65 31.2 35.96 31.08 36.59 30.84 37.19 30.67 37.72 30.54 37.99 30.48 38.23 30.42 38.47 30.37 38.7 30.33 38.92 30.29 39.11 30.26 39.9 30.13 40.35 30.14 40.35 30.14Z" fill="#985614"/></g></g><g opacity="0.7"><path d="M50.8 14.04C44.97 9.18 43.27 12.2 41.94 8.82 41.07 6.62 41.31 3.67 42.17 1.78 40.13 3.04 39.14 5.1 39.07 7.55 39.04 8.48 39.09 9.39 39.26 10.3 39.31 10.56 39.42 11.24 39.58 11.81 40.12 11.64 40.69 11.54 41.32 11.5 43.93 11.34 46.57 12.01 48.72 13.54 51.61 15.59 54.07 18.35 56.01 21.41 57.48 20.03 58.81 18.42 59.05 16.4 57.58 17.97 54.57 17.17 50.8 14.04Z" fill="#851016"/></g><g opacity="0.6"><path d="M147.29 73.39C147.59 72.27 148.6 69.73 147.66 69.09 147.41 69.2 147.07 69.16 146.97 68.95 146.67 68.97 146.3 69.07 145.84 69.26 145.83 69.27 145.83 69.27 145.82 69.27 144.37 69.21 143.07 70.45 141.79 71.35 141.71 71.31 141.69 71.18 141.79 71.11 142.84 70.37 145.31 68.49 147.18 68.05 147.4 67.41 147.61 66.65 147.36 66.1 146.81 64.84 144.8 65.02 143.65 65.11 141.37 65.29 139.1 65.5 136.85 65.88 132.39 66.64 128.23 68.02 123.93 69.35 118.97 70.89 114.34 72.95 109.66 75.17 107.53 76.18 105.43 77.22 103.31 78.23 102.74 78.5 102.03 79 101.33 79.23 102.87 80.29 104.35 81.42 105.76 82.62 108.64 83.33 111.42 84.28 114.29 85.09 115.72 85.5 117.23 85.95 118.61 86.5 119.56 86.88 120.75 87.47 120.81 88.65 120.86 89.57 120.13 90.25 119.14 90.74 121.22 91.11 123.26 91.66 125.23 92.42 127.24 93.2 129.36 94.74 127.66 96.98 126.48 98.53 124.88 99.74 123.32 100.91 122.88 102.45 122.12 103.79 121.15 104.94 120.21 108.89 116.84 112.49 113.36 114.25 112.24 114.81 111.06 115.36 109.84 115.83 108.47 118.39 105.7 120.54 103.26 121.85 101.57 122.76 100.02 123.96 98.26 124.74 96.59 125.47 94.81 126.12 93.05 126.65 91.06 127.24 89.07 127.43 87.08 127.37 84.99 129.2 82.21 129.66 79.5 130.12 76.05 130.71 72.55 130.89 69.09 130.32 68.76 130.27 68.44 130.21 68.11 130.14 68.07 130.24 68 130.32 67.91 130.37 64.33 132.31 60.49 132.57 56.53 131.77 52.52 130.95 49.14 128.72 45.84 126.39 44.39 125.36 43.22 123.77 42.23 122.31 41.7 121.53 41.25 120.73 40.86 119.89 39.73 119.08 38.73 118.09 37.9 116.96 37.86 117.54 37.7 118.09 37.31 118.55 37.04 118.87 36.46 119.13 36.08 118.83 32.82 116.3 30.62 111.32 30.3 107.28 30.3 107.22 30.29 107.16 30.29 107.09 28.86 105.71 27.84 103.92 27.3 102.01 26.66 99.72 25.82 97.39 26.04 94.97 26.28 92.34 27.13 89.85 28.46 87.56 29.1 86.47 29.8 85.38 30.69 84.47 31.41 83.72 32.7 83.63 33.26 82.75 33.29 82.71 33.33 82.69 33.37 82.7 33 83.1 32.64 83.51 32.3 83.94 32.26 83.96 32.23 83.99 32.19 84.01 31.01 84.76 30.27 86.06 29.71 87.3 28.78 89.33 27.9 91.61 27.7 93.84 27.38 97.39 28.48 101.3 30.23 104.54 30.26 103.01 30.4 101.49 30.54 99.92 30.73 97.76 31.05 95.74 32.37 93.97 32.41 93.91 32.53 93.95 32.49 94.02 31.16 96.22 31.37 98.64 31.31 101.11 31.25 103.42 31.51 105.74 32.04 107.99 32.8 111.2 34.45 114.23 36.63 116.72 36.78 116.08 36.69 115.26 36.6 114.8 36.51 114.38 37.22 113.95 37.38 114.44 37.47 114.65 37.55 114.87 37.63 115.1 38.24 116.5 39.26 117.59 40.34 118.65 40.22 118.33 40.11 118.01 40.01 117.68 39.18 114.99 38.15 112.29 38.29 109.5 38.63 110.88 39.1 112.23 39.65 113.54 40.21 114.92 40.9 116.26 41.55 117.57 42.93 120.36 45.02 123.41 47.61 125.17 50.47 127.12 53.38 129.06 56.79 129.87 60.24 130.7 63.57 130.66 66.98 129.89 64.14 129.17 61.59 127.98 59.15 126.17 57.02 124.58 54.89 122.78 53.65 120.39 53.81 120.58 53.97 120.78 54.14 120.96 54.33 121.16 54.53 121.35 54.74 121.53 56.28 123.26 58.33 124.53 60.34 125.68 63.21 127.32 66.44 128.17 69.71 128.53 73 128.89 76.13 128.61 79.39 128.18 81.11 127.95 82.84 127.65 84.51 127.16 83.47 127.03 82.42 126.85 81.38 126.63 79.89 126.32 76.86 125.79 75.52 124.34 76.81 125 78.3 125.4 79.5 125.7 82.19 126.38 85.1 126.48 87.86 125.99 90.12 125.86 92.26 125.42 94.51 124.58 99.19 122.83 104.14 120.15 107.82 116.52 107.12 116.73 106.42 116.92 105.72 117.05 104.63 117.26 103.42 117.58 102.34 117.3 103.13 117.07 103.9 116.8 104.67 116.52 105.82 116.15 106.96 115.57 107.83 115.21 109.76 114.41 111.8 113.54 113.52 112.34 115.31 111.08 116.56 109.51 117.67 107.81 116.06 108.77 114.26 109.46 112.42 109.9 112.2 109.95 112.03 109.92 111.93 109.82 115.67 108.66 119.08 105.8 120.95 102.51 121.92 100.81 122.92 97.07 121.15 95.7 122.79 95.79 123.99 96.67 123.65 99.26 123.64 99.39 123.61 99.52 123.59 99.65 124.35 98.85 125.14 98.07 125.81 97.2 126.18 96.72 127.06 95.82 126.19 95.29 125.7 94.99 125.2 94.81 124.67 94.6 123.54 94.16 122.44 93.73 121.28 93.39 118.46 92.55 115.63 91.86 112.72 91.47 111.84 91.35 110.95 91.23 110.07 91.11 109.69 91.01 109.32 90.92 108.94 90.81 108.51 90.68 107.7 90.48 107.06 90.14 107.82 90.2 108.58 90.24 109.35 90.25 111.18 90.26 113.01 90.14 114.84 90.24 115.12 90.25 115.4 90.28 115.68 90.3 116.69 89.69 118.12 88.8 118.19 88.84 117.22 88.29 116.01 87.99 114.96 87.59 112.21 86.55 109.46 85.48 106.7 84.46 106.54 84.4 106.37 84.34 106.21 84.28 106.14 84.28 106.06 84.25 105.99 84.21L105.99 84.21C103.3 83.27 100.59 82.62 97.77 82.11 97.53 82.07 97.01 82.03 96.4 81.97 95.98 81.77 95.57 81.56 95.18 81.33 96.52 81.51 98.16 81.48 98.61 81.5 99.91 81.55 101.21 81.72 102.5 81.94 97.5 78.79 92.27 75.96 87 73.36 83.58 71.68 80.09 70.32 76.42 69.32 74.88 68.9 73.33 68.5 71.76 68.17 70.89 67.99 69.78 67.64 68.76 67.46 68.53 67.65 68.21 67.79 67.83 67.87 66.67 68.11 65.69 67.56 64.65 67.26 64.73 67.43 64.65 67.61 64.5 67.72 64.71 69.03 64.75 70.55 63.61 71.17 62.63 71.71 61.87 70.86 61.31 69.92 61 72.59 60.37 75.5 57.09 75.5 55.55 75.5 53.98 73.83 53.2 72.66 52.65 71.83 52.13 70.98 51.65 70.12 51.72 72.17 51.35 75.74 49.43 76.15 48.53 76.34 47.41 75.58 46.81 75 46.27 74.46 44.51 72.55 44.68 71.63 44.46 72.82 43.39 74.67 42.58 75.58 41.74 76.53 40.85 77.05 39.58 76.67 38.44 76.33 37.68 75 37.26 73.5 35.97 75.22 34.12 77.34 32.53 76.84 30.67 76.26 31.58 73.83 32 72.22 31 73.32 30.01 74.45 28.58 75.01 27.15 75.57 25.09 75.8 23.73 74.89 22.27 73.92 21.74 72.49 21.75 70.96 20.65 71.85 19.35 72.65 18.17 73.12 17.17 73.51 16.76 72.56 16.77 71.74 16.78 71.13 17.03 70.43 17.25 69.86 17.34 69.62 17.75 68.07 17.91 67.96 16.31 69.17 15.02 70.13 13.16 70.95 12.22 71.36 11.01 72.32 9.89 72.24 7.39 77.07 4.69 81.85 3.48 87.21 2.81 90.21 1.63 93.48 1.72 96.57 1.8 99.33 2.19 102.06 3.13 104.67 5.02 109.96 8.44 115.38 12.53 119.25 16.93 123.41 22.08 126.43 27.51 129.02 26.54 127.42 25.87 125.62 25.35 123.83 25.33 123.76 25.44 123.7 25.47 123.77 26.2 125.3 27.07 126.82 28.11 128.16 29.13 129.48 30.37 130.38 31.7 131.35 34.25 133.2 36.57 135.29 39.26 136.95 44.7 140.32 50.47 142.8 56.51 144.77 55.97 144.23 55.45 143.66 54.88 143.06 54.06 142.19 52.81 140.71 52.9 139.44 52.9 139.4 52.97 139.38 52.97 139.42 53.13 141.13 55.56 142.61 56.74 143.6 58.07 144.71 59.47 145.5 61.09 146.13 63.68 147.14 66.2 147.59 68.89 147.47 68.98 147.25 69.28 147.09 69.52 147.21 70.07 147.48 70.97 147.22 71.57 147.29 72.27 147.37 72.93 147.51 73.63 147.52 74.46 147.53 75.36 147.56 76.17 147.41 76.85 147.29 77.56 146.98 78.24 146.91 81.55 146.58 84.94 146.66 88.22 146.16 94.83 145.15 101.43 142.72 107.45 139.86 110.75 138.29 113.53 136.27 116.19 133.77 118.82 131.29 120.2 128.12 122.15 125.14 124.21 121.99 125.69 118.26 126.69 114.64 127.13 113.04 127.53 111.43 127.87 109.8 128.18 108.33 128.29 106.84 128.72 105.39 128.75 105.3 128.89 105.28 128.88 105.4 128.72 107.16 128.93 108.94 128.92 110.72 131.2 107.1 133.82 103.71 135.45 99.72 136.13 98.05 136.57 96.33 136.96 94.6 137.5 92.87 137.89 91.1 138.34 89.35 138.37 89.95 138.51 90.57 138.49 91.16 138.45 92.21 138.39 93.25 138.28 94.3 140.01 92.1 141.8 89.95 143.33 87.59 144.2 86.24 145.02 84.85 145.61 83.35 145.87 82.7 146.87 80.7 146.65 79.63 145.86 80.13 145.11 81.5 144.48 81.99 144.07 82.32 143.12 82.16 143.35 81.46 144.28 78.63 146.49 76.36 147.29 73.39ZM8.13 105.87C8.13 105.87 6.52 108.94 5.15 105.47 2.41 98.54 7.3 87.83 5.86 90.09 4.43 92.34 2.76 90.03 7.4 79.83 10.82 72.28 15.64 70.77 14.98 76.23 14.77 77.91 21.08 69.01 21.3 76.35 21.53 83.69 26.85 77.19 28.69 75.96 30.53 74.73 28.79 79.59 32.32 79.24 35.85 78.88 36.37 73.86 38.95 78.27 41.53 82.67 42.89 78.48 43.82 76.58 44.75 74.69 44.65 76.32 48.13 77.5 51.61 78.68 51.66 72.67 54.32 76.54 56.98 80.41 61.33 77.55 61.79 74.07 62.25 70.59 64.66 74.48 66.96 72.48 69.26 70.48 69.67 67.07 83.46 72.94 97.26 78.81 95.14 80.23 88.73 79.31 82.31 78.39 94.01 82.73 104.04 84.99 114.07 87.25 111.95 89.36 103.2 88.83 94.45 88.29 102.17 91.48 111.72 92.44 121.27 93.4 120.89 95.16 117.63 96.74 116.05 97.51 116.59 97.45 119.27 97.2 121.95 96.95 119.53 105.76 107.67 107.24 104.46 107.64 103.77 108.58 108.64 108.78 113.52 108.98 109.64 110.94 105.11 110.98 100.58 111.02 102.27 111.9 106.91 111.86 111.55 111.82 106.24 114.8 96.23 115.46 91.62 115.77 92.44 116.93 98.58 116.85 102.32 116.8 91.89 125.82 73.3 120.59 67.85 119.05 69.97 120.38 73.35 122.22 76.73 124.07 63.79 128.34 53.65 119.41 50.22 116.39 51.14 120.08 54.78 123.76 58.41 127.44 42.95 121.27 39.48 106.56 38.4 102.01 37.53 105.31 37.33 108.78 37.12 112.24 31.87 104.44 33.24 93.2 33.75 89 32.47 91.41 31.55 93.87 30.63 96.33 29.81 88.66 33.8 82.76 35.08 80.87 24.59 82.87 24.03 91.46 22.98 107.51 27.82 110.7 25.36 110.52 22.9 110.34 22.44 103.95 22.44 110.52 22.44 118.79 18.44 123.23 12.77 116.92 8.67 112.36 8.13 105.87 8.13 105.87Z" fill="#E5C798"/></g><g><g opacity="0.8"><path d="M147.29 73.39C147.59 72.27 148.6 69.73 147.66 69.09 147.41 69.2 147.07 69.16 146.97 68.95 146.67 68.97 146.3 69.07 145.84 69.26 145.83 69.27 145.83 69.27 145.82 69.27 144.37 69.21 143.07 70.45 141.79 71.35 141.71 71.31 141.69 71.18 141.79 71.11 142.84 70.37 145.31 68.49 147.18 68.05 147.4 67.41 147.61 66.65 147.36 66.1 146.81 64.84 144.8 65.02 143.65 65.11 141.37 65.29 139.1 65.5 136.85 65.88 132.39 66.64 128.23 68.02 123.93 69.35 123.51 69.48 123.1 69.62 122.69 69.75 135.37 66.28 144.84 67.32 142.34 69.87 139.27 72.99 137.63 76.21 140.7 73.55 143.77 70.89 146.64 69.51 145 75.14 143.36 80.77 139.98 86.76 138.4 87.22 136.81 87.68 137.58 83.69 136.81 88.29 135.55 95.85 128.84 105.42 127.96 103.8 127.08 102.19 127.81 98.12 125.81 105.47 121.83 120.13 109.74 137.16 86.2 141.87 62.66 146.58 51.71 136.34 51.71 136.34 52.12 138.29 50.89 142.76 38.4 134.7 26.76 127.19 24.82 119.36 24.61 118.34 24.79 119.32 26.03 126.42 23.15 125.49 20.07 124.49 12.51 119.24 12.51 119.24 16.91 123.4 22.06 126.42 27.49 129.01 26.52 127.41 25.85 125.61 25.33 123.82 25.31 123.75 25.42 123.69 25.45 123.76 26.18 125.29 27.05 126.81 28.09 128.15 29.11 129.47 30.35 130.37 31.68 131.34 34.23 133.19 36.55 135.28 39.24 136.94 44.68 140.31 50.45 142.79 56.49 144.76 55.95 144.22 55.43 143.65 54.86 143.05 54.04 142.18 52.79 140.7 52.88 139.43 52.88 139.39 52.95 139.37 52.95 139.41 53.11 141.12 55.54 142.6 56.72 143.59 58.05 144.7 59.45 145.49 61.07 146.12 63.66 147.13 66.18 147.58 68.87 147.46 68.96 147.24 69.26 147.08 69.5 147.2 70.05 147.47 70.95 147.21 71.55 147.28 72.25 147.36 72.91 147.5 73.61 147.51 74.44 147.52 75.34 147.55 76.15 147.4 76.83 147.28 77.54 146.97 78.22 146.9 81.53 146.57 84.92 146.65 88.2 146.15 94.81 145.14 101.41 142.71 107.43 139.85 110.73 138.28 113.51 136.26 116.17 133.76 118.8 131.28 120.18 128.11 122.13 125.13 124.19 121.98 125.67 118.25 126.67 114.63 127.11 113.03 127.51 111.42 127.85 109.79 128.16 108.32 128.27 106.83 128.7 105.38 128.73 105.29 128.87 105.27 128.86 105.39 128.7 107.15 128.91 108.93 128.9 110.71 131.18 107.09 133.8 103.7 135.43 99.71 136.11 98.04 136.55 96.32 136.94 94.59 137.48 92.86 137.87 91.09 138.32 89.34 138.35 89.94 138.49 90.56 138.47 91.15 138.43 92.2 138.37 93.24 138.26 94.29 139.99 92.09 141.78 89.94 143.31 87.58 144.18 86.23 145 84.84 145.59 83.34 145.85 82.69 146.85 80.69 146.63 79.62 145.84 80.12 145.09 81.49 144.46 81.98 144.05 82.31 143.1 82.15 143.33 81.45 144.28 78.63 146.49 76.36 147.29 73.39Z" fill="#E5C798"/></g><g><path d="M24.62 118.35C24.61 118.28 24.6 118.23 24.6 118.23 24.6 118.23 24.6 118.27 24.62 118.35Z" fill="#FADCA3"/></g></g><g opacity="0.8"><path d="M26.5 103.49C27.95 107.25 29.51 107.89 29.51 107.89 29.51 107.89 29.4 114.23 32.93 118.34 36.46 122.45 37.88 121.1 38.03 119.87 38.18 118.64 40.45 128.42 51.58 132.07 62.71 135.72 68.35 132.07 68.35 132.07 68.35 132.07 80.38 136.08 87.54 129.37 87.54 129.37 97.43 129.19 103.78 124.27 110.13 119.36 110.47 116.21 110.47 116.21 110.47 116.21 120.43 114.82 121.93 105.91 121.93 105.91 124.44 104.64 124.44 101.4 124.44 101.4 128.74 99.12 129.43 95.95 129.8 94.25 128.15 93.42 126.53 93.01 127.99 93.88 128.98 95.2 127.66 96.95 126.48 98.5 124.88 99.71 123.32 100.88 122.88 102.42 122.12 103.76 121.15 104.91 120.21 108.86 116.84 112.46 113.36 114.22 112.24 114.78 111.06 115.33 109.84 115.8 108.47 118.36 105.7 120.51 103.26 121.82 101.57 122.73 100.02 123.93 98.26 124.71 96.59 125.44 94.81 126.09 93.05 126.62 91.06 127.21 89.07 127.4 87.08 127.34 84.99 129.17 82.21 129.63 79.5 130.09 76.05 130.68 72.55 130.86 69.09 130.29 68.76 130.24 68.44 130.18 68.11 130.11 68.07 130.21 68 130.29 67.91 130.34 64.33 132.28 60.49 132.54 56.53 131.74 52.52 130.92 49.14 128.69 45.84 126.36 44.39 125.33 43.22 123.74 42.23 122.28 41.7 121.5 41.25 120.7 40.86 119.86 39.73 119.05 38.73 118.06 37.9 116.93 37.86 117.51 37.7 118.06 37.31 118.52 37.04 118.84 36.46 119.1 36.08 118.8 32.82 116.27 30.62 111.29 30.3 107.25 30.3 107.19 30.29 107.13 30.29 107.06 28.86 105.68 27.84 103.89 27.3 101.98 26.66 99.69 25.82 97.36 26.04 94.94 26.12 94.03 26.28 93.14 26.5 92.27L26.49 92.29C26.5 92.32 24.1 97.29 26.5 103.49Z" fill="#E5C798"/></g><g><path d="M107.12 78.39C107.12 78.39 110.73 75.86 116.18 73.4 121.63 70.94 118.48 74.48 118.48 74.48 118.48 74.48 123.62 71.1 128.38 69.87 133.14 68.64 129.84 72.02 129.84 72.02 129.84 72.02 133.07 70.18 136.29 69.6 139.51 69.02 137.46 72.63 134.11 75.86 134.11 75.86 136.45 74.17 137.9 75.09 139.36 76.01 134.59 80 131.83 81.85 131.83 81.85 136.21 81.62 133.06 85.53 129.91 89.45 120.52 90.6 122.64 87.83 124.77 85.06 122.62 86.6 118.16 84.91 113.71 83.22 115.63 81.48 115.63 81.48 115.63 81.48 111.32 82.79 107.67 82 104.03 81.19 107.12 78.39 107.12 78.39Z" fill="#FADCA3"/></g><g opacity="0.9"><g><path d="M42.56 87.53C42.56 87.53 42.52 88.02 42.48 88.68 42.46 89.01 42.45 89.39 42.45 89.78 42.46 90.17 42.45 90.58 42.5 90.98 42.5 91.19 42.55 91.39 42.57 91.59 42.59 91.79 42.64 91.98 42.67 92.18 42.69 92.37 42.75 92.56 42.78 92.74 42.81 92.92 42.86 93.09 42.9 93.25 42.95 93.41 42.96 93.57 43.01 93.7 43.05 93.83 43.08 93.95 43.11 94.05 43.16 94.25 43.18 94.38 43.18 94.38 43.18 94.38 43.08 94.32 42.91 94.19 42.83 94.13 42.72 94.05 42.62 93.95 42.5 93.85 42.4 93.72 42.29 93.58 42.17 93.44 42.04 93.29 41.94 93.1 41.84 92.92 41.72 92.72 41.64 92.51 41.56 92.29 41.46 92.07 41.42 91.83 41.37 91.59 41.31 91.35 41.3 91.1 41.28 90.85 41.27 90.6 41.29 90.36 41.29 90.12 41.34 89.88 41.38 89.66 41.48 89.21 41.63 88.81 41.82 88.49 41.99 88.17 42.18 87.93 42.33 87.77 42.46 87.6 42.56 87.53 42.56 87.53Z" fill="#FADCA3"/></g></g><g opacity="0.9"><g><path d="M45.4 98.43C45.4 98.43 45.7 99.77 46.4 101.65 46.58 102.12 46.79 102.62 47.02 103.14 47.25 103.66 47.53 104.2 47.8 104.75 47.95 105.02 48.11 105.29 48.26 105.57 48.43 105.84 48.6 106.11 48.77 106.38 49.13 106.92 49.5 107.46 49.93 107.96L50.23 108.34 50.56 108.7 50.89 109.06 51.04 109.23 51.22 109.4C51.46 109.63 51.69 109.86 51.93 110.09 52.16 110.3 52.39 110.51 52.62 110.71 52.85 110.91 53.1 111.09 53.32 111.28 53.56 111.45 53.79 111.62 54.01 111.79 54.48 112.08 54.93 112.36 55.37 112.51 55.8 112.67 56.24 112.75 56.53 112.65 56.82 112.55 56.96 112.25 56.94 111.97 56.94 111.7 56.89 111.46 56.83 111.32 56.78 111.17 56.75 111.09 56.75 111.09 56.75 111.09 56.8 111.16 56.89 111.3 56.98 111.43 57.11 111.64 57.19 111.96 57.2 112.04 57.21 112.13 57.23 112.22 57.22 112.32 57.2 112.42 57.19 112.52 57.16 112.62 57.09 112.73 57.03 112.83 56.95 112.92 56.85 113 56.75 113.08 56.28 113.35 55.73 113.31 55.19 113.2 54.64 113.1 54.1 112.87 53.55 112.59 53.29 112.44 53.01 112.28 52.74 112.12 52.47 111.95 52.21 111.76 51.94 111.56 51.68 111.35 51.42 111.14 51.15 110.93 50.89 110.71 50.65 110.49 50.41 110.26L50.22 110.09 50.03 109.89 49.67 109.51C49.42 109.26 49.19 109 48.97 108.72 48.52 108.17 48.14 107.59 47.77 107 47.6 106.71 47.42 106.41 47.27 106.11 47.12 105.8 46.98 105.5 46.84 105.21 46.31 104.01 45.95 102.85 45.74 101.83 45.52 100.82 45.43 99.96 45.4 99.36 45.37 98.77 45.4 98.43 45.4 98.43Z" fill="#FADCA3"/></g></g><g opacity="0.9"><g><path d="M57.91 105.94C57.91 105.94 58.07 106.18 58.38 106.57 58.69 106.96 59.15 107.5 59.72 108.12 60.01 108.42 60.34 108.74 60.68 109.07 61.04 109.39 61.42 109.72 61.82 110.04 62.21 110.38 62.66 110.67 63.1 110.99 63.33 111.14 63.55 111.29 63.78 111.45L64.5 111.87C64.97 112.16 65.46 112.4 65.95 112.64 66.46 112.85 66.91 113.1 67.42 113.3 67.9 113.49 68.37 113.69 68.82 113.84 69.26 113.99 69.7 114.12 70.02 114.13 70.09 114.13 70.15 114.12 70.16 114.12 70.17 114.13 70.16 114.16 70.18 114.12 70.2 114.04 70.15 113.86 70.08 113.72 69.95 113.43 69.78 113.17 69.65 112.96 69.37 112.55 69.2 112.32 69.2 112.32 69.2 112.32 69.45 112.47 69.84 112.8 70.03 112.97 70.27 113.17 70.5 113.48 70.61 113.64 70.74 113.8 70.78 114.11 70.8 114.26 70.73 114.51 70.56 114.63 70.4 114.76 70.25 114.8 70.11 114.82 69.57 114.9 69.09 114.82 68.59 114.72 68.09 114.62 67.57 114.48 67.05 114.3 66.55 114.14 65.99 113.93 65.47 113.71 64.94 113.47 64.41 113.22 63.9 112.92L63.15 112.46C62.91 112.29 62.67 112.12 62.44 111.95 62.19 111.79 61.98 111.59 61.76 111.41 61.54 111.23 61.33 111.04 61.13 110.85 60.72 110.48 60.37 110.07 60.04 109.69 59.71 109.3 59.43 108.92 59.19 108.55 58.7 107.82 58.38 107.16 58.19 106.69 57.98 106.22 57.91 105.94 57.91 105.94Z" fill="#FADCA3"/></g></g><g opacity="0.9"><g><path d="M68.58 106.29C68.58 106.29 68.78 106.5 69.13 106.85 69.32 107.02 69.53 107.22 69.79 107.44 70.05 107.67 70.36 107.9 70.68 108.16 71.02 108.41 71.38 108.68 71.78 108.94 71.98 109.07 72.18 109.2 72.39 109.34 72.6 109.47 72.82 109.6 73.05 109.73 73.48 110.02 73.98 110.22 74.45 110.49 74.94 110.73 75.44 110.96 75.94 111.18 76.46 111.38 76.96 111.61 77.47 111.78 77.99 111.93 78.49 112.15 78.99 112.29 79.49 112.42 79.98 112.57 80.44 112.7 80.91 112.81 81.35 112.92 81.76 113.02 82.17 113.12 82.55 113.22 82.89 113.28 83.23 113.34 83.52 113.41 83.77 113.46 84.26 113.57 84.54 113.64 84.54 113.64 84.54 113.64 84.25 113.67 83.75 113.7 83.5 113.71 83.19 113.73 82.84 113.74 82.49 113.76 82.09 113.75 81.66 113.71 81.23 113.68 80.76 113.66 80.27 113.6 79.78 113.52 79.26 113.44 78.72 113.33 78.19 113.22 77.64 113.07 77.09 112.9 76.54 112.73 76 112.5 75.45 112.3 74.92 112.05 74.39 111.8 73.88 111.53 73.38 111.24 72.89 110.96 72.45 110.63 72.23 110.47 72 110.32 71.79 110.16 71.59 109.99 71.39 109.82 71.2 109.66 70.81 109.34 70.49 108.99 70.19 108.68 69.9 108.35 69.64 108.05 69.43 107.76 69.21 107.48 69.05 107.21 68.92 107 68.69 106.56 68.58 106.29 68.58 106.29Z" fill="#FADCA3"/></g></g><g opacity="0.9"><g><path d="M78.18 104.11C78.18 104.11 78.51 104.3 79.1 104.6 79.68 104.9 80.52 105.32 81.55 105.76 82.06 105.98 82.62 106.21 83.22 106.43 83.81 106.66 84.45 106.85 85.11 107.08 85.77 107.27 86.46 107.46 87.17 107.62 87.52 107.71 87.88 107.79 88.24 107.85 88.6 107.91 88.96 107.99 89.32 108.03L90.41 108.17C90.77 108.21 91.13 108.22 91.49 108.24 92.21 108.3 92.92 108.26 93.6 108.27 94.28 108.22 94.99 108.22 95.61 108.16 96.24 108.12 96.84 108.06 97.4 108 97.67 107.96 97.93 107.92 98.18 107.89 98.42 107.84 98.66 107.8 98.87 107.75 99.29 107.63 99.66 107.5 99.83 107.29 100.01 107.08 99.89 106.82 99.78 106.69 99.67 106.56 99.59 106.5 99.59 106.5 99.59 106.5 99.68 106.53 99.82 106.65 99.89 106.71 99.98 106.78 100.04 106.91 100.11 107.03 100.13 107.24 100.03 107.42 99.84 107.77 99.45 107.99 99.02 108.19 98.8 108.28 98.56 108.38 98.31 108.47 98.06 108.54 97.79 108.62 97.51 108.7 96.95 108.83 96.34 108.98 95.69 109.07 95.03 109.19 94.38 109.26 93.65 109.34 93.29 109.36 92.92 109.39 92.55 109.41 92.36 109.42 92.17 109.43 91.99 109.44L91.42 109.42C91.04 109.4 90.65 109.4 90.27 109.36L89.12 109.24C88.74 109.19 88.36 109.1 87.98 109.03 87.6 108.97 87.23 108.88 86.86 108.77 86.12 108.6 85.42 108.33 84.74 108.1 84.07 107.84 83.43 107.57 82.84 107.27 82.25 106.99 81.7 106.68 81.21 106.39 80.71 106.11 80.28 105.81 79.9 105.54 79.52 105.27 79.2 105.03 78.94 104.81 78.44 104.38 78.18 104.11 78.18 104.11Z" fill="#FADCA3"/></g></g><g opacity="0.9"><g><path d="M87.84 99.71C87.84 99.71 88.16 99.8 88.73 99.95 89.01 100.04 89.36 100.1 89.75 100.21 90.14 100.32 90.58 100.41 91.07 100.52 91.55 100.63 92.07 100.75 92.63 100.85 93.19 100.94 93.76 101.08 94.37 101.16 94.97 101.24 95.61 101.32 96.24 101.42 96.88 101.48 97.53 101.51 98.18 101.56 98.83 101.65 99.47 101.6 100.11 101.61 100.76 101.59 101.36 101.65 101.99 101.59 102.58 101.54 103.16 101.49 103.69 101.38 104.21 101.27 104.7 101.13 105.04 100.9 105.38 100.67 105.51 100.37 105.45 100.02 105.39 99.68 105.22 99.37 105.07 99.13 104.75 98.65 104.51 98.41 104.51 98.41 104.51 98.41 104.59 98.46 104.72 98.54 104.85 98.63 105.04 98.76 105.26 98.97 105.47 99.18 105.74 99.45 105.91 99.89 105.99 100.11 106.04 100.39 105.97 100.68 105.9 100.97 105.72 101.23 105.5 101.43 105.06 101.84 104.51 102.08 103.93 102.26 103.35 102.44 102.74 102.57 102.09 102.65 101.48 102.74 100.79 102.76 100.13 102.78 99.46 102.79 98.78 102.85 98.1 102.77 97.43 102.71 96.75 102.65 96.08 102.57 95.42 102.46 94.78 102.31 94.16 102.19 93.54 102.07 92.95 101.86 92.4 101.71 91.84 101.56 91.33 101.35 90.86 101.17 90.39 101 89.96 100.81 89.59 100.63 89.22 100.46 88.9 100.3 88.64 100.15 88.11 99.9 87.84 99.71 87.84 99.71Z" fill="#FADCA3"/></g></g><g opacity="0.9"><g><path d="M9.86 77.47C9.86 77.47 9.62 78.37 9.17 79.65 8.95 80.29 8.68 81.04 8.38 81.82 8.08 82.61 7.76 83.45 7.44 84.28L7.19 84.9C7.12 85.11 7.05 85.32 6.98 85.52 6.85 85.93 6.65 86.33 6.58 86.72 6.53 86.91 6.49 87.1 6.43 87.29 6.37 87.48 6.32 87.65 6.3 87.84 6.28 88 6.27 88.17 6.27 88.31 6.27 88.46 6.31 88.51 6.26 88.49 6.21 88.5 6.33 88.52 6.45 88.47 6.57 88.43 6.69 88.37 6.8 88.3 7.02 88.16 7.22 88.02 7.38 87.9 7.7 87.66 7.88 87.51 7.88 87.51 7.88 87.51 7.78 87.72 7.56 88.06 7.45 88.23 7.31 88.44 7.11 88.65 7.01 88.76 6.89 88.87 6.74 88.98 6.59 89.07 6.38 89.23 6 89.12 5.82 89.05 5.69 88.91 5.62 88.78 5.55 88.66 5.51 88.54 5.48 88.42 5.43 88.19 5.42 87.98 5.41 87.75 5.39 87.34 5.49 86.91 5.55 86.46 5.61 86 5.74 85.58 5.87 85.14 5.94 84.92 6 84.7 6.07 84.47L6.32 83.83C6.49 83.4 6.65 82.97 6.84 82.56 7.03 82.15 7.23 81.75 7.41 81.36 7.59 80.97 7.81 80.62 8 80.27 8.19 79.93 8.38 79.61 8.56 79.32 9.25 78.18 9.86 77.47 9.86 77.47Z" fill="#FADCA3"/></g></g><g opacity="0.9"><g><path d="M7.85 90.6C7.58 91.92 7.35 93.25 7.17 94.58 7.08 95.24 7 95.91 6.96 96.57 6.93 96.9 6.91 97.24 6.91 97.57 6.9 97.9 6.89 98.23 6.89 98.56 6.88 98.89 6.9 99.22 6.93 99.54 6.94 99.87 7 100.18 7.05 100.5 7.09 100.82 7.2 101.11 7.26 101.41L7.43 101.82 7.49 102 7.62 102.22C7.79 102.54 7.94 102.76 8.11 102.94L8.23 103.07C8.26 103.08 8.29 103.1 8.32 103.12 8.35 103.13 8.33 103.1 8.33 103.13 8.32 103.11 8.3 103.14 8.31 103.12 8.34 103.11 8.53 102.87 8.63 102.61 8.74 102.35 8.83 102.04 8.89 101.77 8.96 101.44 9.28 101.24 9.6 101.31 9.87 101.37 10.05 101.59 10.07 101.85L10.07 101.86C10.14 102.69 10.26 103.56 10.4 104.4 10.53 105.25 10.71 106.09 10.92 106.92 11.03 107.33 11.13 107.75 11.27 108.15 11.39 108.56 11.52 108.97 11.67 109.36 11.8 109.77 11.98 110.15 12.15 110.54 12.31 110.93 12.53 111.29 12.71 111.67 12.92 112.03 13.14 112.39 13.37 112.74 13.63 113.06 13.86 113.43 14.16 113.7L14.59 114.15C14.71 114.27 14.92 114.42 15.08 114.55 15.25 114.7 15.42 114.83 15.59 114.92 15.76 115.02 15.92 115.15 16.11 115.22 16.47 115.38 16.86 115.52 17.24 115.51 17.63 115.54 18 115.38 18.33 115.15 18.66 114.92 18.92 114.57 19.14 114.21 19.36 113.84 19.54 113.44 19.67 113.02 19.61 113.45 19.5 113.89 19.33 114.3 19.16 114.71 18.93 115.12 18.58 115.44 18.24 115.75 17.78 116.01 17.28 116.03 16.79 116.09 16.31 115.98 15.86 115.82 15.63 115.75 15.43 115.62 15.21 115.52 14.99 115.42 14.8 115.3 14.63 115.17 14.44 115.04 14.28 114.95 14.07 114.78L13.55 114.32C13.18 114.03 12.92 113.65 12.61 113.31 12.33 112.95 12.07 112.57 11.82 112.2 11.6 111.8 11.35 111.42 11.17 111.01 10.98 110.6 10.77 110.19 10.62 109.77 10.45 109.35 10.28 108.93 10.15 108.51 10 108.09 9.89 107.65 9.77 107.22 9.54 106.36 9.35 105.48 9.19 104.6 9.04 103.72 8.94 102.85 8.87 101.93L10.05 102.01C9.97 102.4 9.86 102.73 9.7 103.09 9.62 103.27 9.53 103.45 9.4 103.64 9.28 103.82 9.11 104.02 8.82 104.17 8.69 104.24 8.48 104.28 8.31 104.29 8.15 104.27 7.96 104.24 7.83 104.17 7.71 104.1 7.6 104.03 7.49 103.95L7.26 103.71C6.98 103.38 6.78 103.03 6.64 102.75L6.52 102.52C6.46 102.39 6.44 102.33 6.41 102.23L6.22 101.7C6.15 101.35 6.05 100.99 6.02 100.63 5.99 100.28 5.94 99.92 5.96 99.57 5.96 99.22 5.95 98.87 5.98 98.53 6 98.19 6.02 97.84 6.07 97.5 6.11 97.16 6.15 96.82 6.22 96.48 6.33 95.8 6.46 95.14 6.63 94.47 6.96 93.16 7.36 91.86 7.85 90.6Z" fill="#FADCA3"/></g></g><g opacity="0.6"><path d="M27.5 19.02C24.94 16.97 19.48 14.32 14.87 13.73 10.27 13.14 17.48 15.97 21.06 18.79 24.65 21.6 29.28 20.44 27.5 19.02Z" fill="#FDC94C"/></g><g><g><path d="M48.83 151.01C48.83 151.01 48.09 150.63 46.94 150.12 46.37 149.86 45.69 149.59 44.97 149.3 44.25 149.01 43.46 148.73 42.67 148.49 42.27 148.37 41.88 148.23 41.48 148.13 41.09 148.02 40.7 147.91 40.32 147.83 39.94 147.75 39.57 147.65 39.22 147.59 38.87 147.53 38.54 147.45 38.23 147.42 37.92 147.38 37.64 147.34 37.38 147.3 37.13 147.27 36.91 147.26 36.72 147.24 36.36 147.21 36.15 147.19 36.15 147.19 36.15 147.19 36.36 147.19 36.73 147.18 37.1 147.17 37.62 147.18 38.25 147.24 38.57 147.25 38.9 147.32 39.26 147.36 39.62 147.4 39.99 147.47 40.38 147.56 40.77 147.63 41.16 147.74 41.56 147.84 41.96 147.93 42.36 148.07 42.77 148.18 43.57 148.44 44.36 148.74 45.08 149.04 45.81 149.34 46.47 149.66 47.03 149.95 48.14 150.55 48.83 151.01 48.83 151.01Z" fill="#BF744B"/></g></g><g><g><path d="M31.41 150.4C31.41 150.4 32.25 150.25 33.52 150.18 33.84 150.16 34.18 150.17 34.55 150.16 34.91 150.17 35.3 150.14 35.7 150.17 36.1 150.19 36.51 150.22 36.93 150.25 37.35 150.27 37.77 150.32 38.19 150.38 38.61 150.44 39.03 150.5 39.45 150.56 39.86 150.61 40.26 150.73 40.65 150.81 41.04 150.9 41.41 150.99 41.77 151.07 42.13 151.14 42.46 151.25 42.75 151.36 43.96 151.76 44.75 152.06 44.75 152.06 44.75 152.06 43.92 151.86 42.7 151.53 42.39 151.45 42.07 151.35 41.71 151.29 41.35 151.22 40.98 151.15 40.59 151.08 40.2 151.01 39.81 150.9 39.39 150.86 38.98 150.81 38.56 150.75 38.14 150.7 37.72 150.64 37.31 150.57 36.89 150.55 36.48 150.52 36.07 150.49 35.68 150.45 35.29 150.42 34.9 150.42 34.54 150.4 34.18 150.39 33.83 150.36 33.52 150.37 32.89 150.38 32.36 150.36 31.99 150.39 31.62 150.38 31.41 150.4 31.41 150.4Z" fill="#BF744B"/></g></g><g><g><path d="M31.87 155.2C31.87 155.2 32.64 154.9 33.84 154.61 34.14 154.53 34.47 154.48 34.82 154.41 35.17 154.35 35.53 154.26 35.92 154.23 36.3 154.19 36.7 154.14 37.11 154.1 37.51 154.04 37.93 154.04 38.34 154.02 38.75 154.01 39.17 154 39.57 153.99 39.98 153.98 40.38 154.03 40.76 154.04 41.15 154.06 41.52 154.09 41.87 154.11 42.22 154.12 42.56 154.19 42.86 154.24 44.08 154.44 44.89 154.59 44.89 154.59 44.89 154.59 44.07 154.53 42.84 154.41 42.53 154.38 42.21 154.33 41.85 154.33 41.5 154.32 41.13 154.31 40.74 154.3 40.36 154.29 39.96 154.26 39.56 154.27 39.16 154.29 38.75 154.31 38.34 154.32 37.93 154.33 37.52 154.33 37.12 154.38 36.72 154.42 36.33 154.45 35.94 154.49 35.56 154.52 35.19 154.59 34.84 154.63 34.49 154.68 34.16 154.71 33.86 154.78 33.56 154.83 33.28 154.89 33.03 154.93 32.78 154.97 32.57 155.03 32.4 155.07 32.07 155.14 31.87 155.2 31.87 155.2Z" fill="#BF744B"/></g></g><g><g><path d="M56.15 161.49C56.15 161.49 55.38 161.03 54.18 160.44 53.88 160.29 53.55 160.13 53.21 159.97 52.86 159.8 52.49 159.66 52.11 159.48 51.34 159.15 50.51 158.83 49.66 158.56 49.24 158.42 48.82 158.27 48.39 158.16 47.97 158.03 47.55 157.92 47.14 157.84 46.73 157.74 46.34 157.65 45.96 157.59 45.58 157.52 45.23 157.44 44.9 157.41 44.57 157.37 44.26 157.33 44 157.29 43.73 157.27 43.49 157.25 43.29 157.24 42.9 157.21 42.68 157.19 42.68 157.19 42.68 157.19 42.9 157.19 43.3 157.18 43.5 157.18 43.74 157.17 44.01 157.17 44.28 157.19 44.59 157.21 44.93 157.23 45.27 157.25 45.63 157.31 46.01 157.36 46.39 157.41 46.8 157.47 47.21 157.57 47.62 157.65 48.05 157.76 48.47 157.88 48.9 157.99 49.33 158.13 49.76 158.26 50.61 158.55 51.44 158.89 52.22 159.23 52.99 159.58 53.69 159.94 54.27 160.27 55.43 160.95 56.15 161.49 56.15 161.49Z" fill="#BF744B"/></g></g><g><g><path d="M36.84 160.8C36.84 160.8 37.07 160.74 37.47 160.67 37.88 160.59 38.46 160.53 39.17 160.46 39.52 160.44 39.9 160.44 40.31 160.42 40.72 160.41 41.14 160.4 41.58 160.44 42.02 160.47 42.48 160.5 42.94 160.53 43.4 160.56 43.87 160.66 44.33 160.71 44.8 160.79 45.26 160.87 45.72 160.94 46.17 161.06 46.61 161.17 47.04 161.28 47.47 161.39 47.88 161.5 48.27 161.61 48.66 161.71 49.01 161.88 49.35 161.99 50.67 162.5 51.54 162.85 51.54 162.85 51.54 162.85 50.63 162.58 49.3 162.15 48.96 162.05 48.61 161.9 48.22 161.82 47.83 161.73 47.42 161.63 46.99 161.54 46.56 161.44 46.12 161.33 45.68 161.22 45.22 161.15 44.76 161.08 44.3 161.01 43.84 160.95 43.38 160.84 42.92 160.81 42.46 160.77 42.01 160.73 41.58 160.7 41.14 160.65 40.72 160.64 40.32 160.64 39.92 160.63 39.54 160.62 39.19 160.62 38.84 160.63 38.52 160.65 38.24 160.66 37.95 160.66 37.71 160.7 37.5 160.71 37.07 160.76 36.84 160.8 36.84 160.8Z" fill="#BF744B"/></g></g><g><g><path d="M40.23 165.57C40.23 165.57 40.41 165.51 40.73 165.44 40.89 165.4 41.09 165.37 41.31 165.33 41.54 165.29 41.79 165.24 42.07 165.22 42.63 165.16 43.28 165.09 43.99 165.08 44.69 165.04 45.44 165.08 46.19 165.09 46.94 165.1 47.68 165.2 48.38 165.25 49.08 165.3 49.73 165.41 50.28 165.49 51.39 165.66 52.12 165.8 52.12 165.8 52.12 165.8 51.37 165.76 50.26 165.66 49.98 165.63 49.68 165.6 49.36 165.58 49.04 165.55 48.7 165.55 48.35 165.52 47.65 165.49 46.91 165.4 46.17 165.4 45.43 165.38 44.68 165.33 43.98 165.35 43.63 165.35 43.29 165.35 42.97 165.35 42.65 165.37 42.35 165.38 42.07 165.39 41.51 165.42 41.05 165.46 40.73 165.5 40.42 165.54 40.23 165.57 40.23 165.57Z" fill="#BF744B"/></g></g></g></svg>