<svg width="410.4" height="540.67" viewBox="0 0 410.4 540.67" xmlns="http://www.w3.org/2000/svg" xmlns:xlink="http://www.w3.org/1999/xlink" xml:space="preserve" overflow="hidden"><defs></defs><g><path d="M158.22 339.74C160.28 340.5 162.62 339.44 163.41 337.39L175.82 305C176.61 302.95 175.56 300.64 173.5 299.88L162.28 295.75C160.22 294.99 157.88 296.05 157.09 298.1L144.67 330.49C143.88 332.54 144.93 334.85 146.99 335.61L158.22 339.74Z" fill="#5C5F63"/></g><g><path d="M250.28 339.74 261.5 335.61C263.56 334.85 264.61 332.55 263.82 330.49L251.4 298.1C250.61 296.05 248.28 294.99 246.21 295.75L234.99 299.88C232.93 300.64 231.88 302.94 232.67 305L245.09 337.39C245.88 339.45 248.21 340.5 250.28 339.74Z" fill="#5C5F63"/></g><g><path d="M189.28 291.03C189.28 281.29 181.38 273.39 171.64 273.39 161.9 273.39 154 281.29 154 291.03 154 300.77 161.9 308.67 171.64 308.67 181.38 308.67 189.28 300.77 189.28 291.03Z" fill="#2294C6"/></g><g><ellipse cx="155.38" cy="343.97" rx="21.37" ry="21.37" fill="#808285" transform="matrix(0.9947 -0.1027 0.1027 0.9947 -34.5196 17.7851)"/></g><g><path d="M255.28 291.03C255.28 281.29 247.38 273.39 237.64 273.39 227.9 273.39 220 281.29 220 291.03 220 300.77 227.9 308.67 237.64 308.67 247.39 308.67 255.28 300.77 255.28 291.03Z" fill="#2294C6"/></g><g><ellipse cx="253.92" cy="343.97" rx="21.37" ry="21.37" fill="#808285" transform="matrix(0.9975 -0.0707 0.0707 0.9975 -23.6745 18.8053)"/></g><g><g><rect x="138.72" y="107.34" width="134.21" height="27" fill="#2294C6"/></g><g><rect x="127.73" y="480.2" width="41.97" height="43.38" fill="#A7A9AC"/></g><g><path d="M127.07 345.07 120.51 412.62 176.91 412.62 183.47 345.07C183.47 345.07 185.66 332.39 173.25 332.39L173.25 345.07 137.28 345.07 137.28 332.39C127.33 332.39 127.07 345.07 127.07 345.07Z" fill="#FFFFFF"/></g><g><rect x="135.04" y="412.62" width="29.27" height="6.12" fill="#808285"/></g><g><rect x="246.71" y="412.62" width="29.27" height="6.12" fill="#808285"/></g><g><rect x="239.52" y="480.2" width="41.97" height="43.38" fill="#A7A9AC"/></g><g><path d="M171.42 510.52C164.33 510.52 157.83 516.56 149.72 516.56 140.96 516.56 132.97 510.22 125.12 510.22 115.68 510.22 108.04 519.41 108.04 519.41L108.04 531.01 189.38 531.01 189.38 518.48C189.38 518.49 181.9 510.52 171.42 510.52Z" fill="#FFFFFF"/></g><g><path d="M301.17 518.49C301.17 518.49 293.68 510.52 283.21 510.52 276.12 510.52 269.62 516.56 261.51 516.56 252.75 516.56 244.76 510.22 236.91 510.22 227.47 510.22 219.83 519.41 219.83 519.41L219.83 531.01 301.17 531.01 301.17 518.49Z" fill="#FFFFFF"/></g><g><rect x="108.04" y="531.03" width="81.34" height="9.65" fill="#3B99CC"/></g><g><rect x="219.84" y="531.03" width="81.34" height="9.65" fill="#3B99CC"/></g><g><path d="M175.43 275.7 234.73 275.7C234.73 275.7 235.54 258.11 241.29 252.37 246.28 247.38 253.76 243.19 253.76 243.19 253.76 243.19 295.06 115.03 262.94 115.03 239.23 115.03 169.5 115.03 147.22 115.03 115.1 115.03 156.4 243.19 156.4 243.19 156.4 243.19 163.89 247.38 168.87 252.37 174.62 258.12 175.43 275.7 175.43 275.7Z" fill="#FFFFFF"/></g><g><path d="M202.67 130.08C204.36 130.08 205.95 130.08 207.49 130.08 211.22 130.08 235.46 130.08 240.85 130.08 255.69 130.08 255.85 124.2 255.85 121.42 255.85 120.79 255.85 118.38 255.85 115.03 231.02 115.03 181.73 115.03 156.29 115.03 156.29 118.25 156.29 120.62 156.29 121.42 156.29 125.13 156.45 130.08 171.29 130.08 176.7 130.08 198.93 130.08 202.67 130.08Z" fill="#CBCFD3"/></g><g><path d="M203.13 123.35C204.49 123.35 205.79 123.35 207.03 123.35 210.05 123.35 213.47 123.35 217.83 123.35 229.83 123.35 229.96 118.6 229.96 116.35 229.96 114.1 229.96 85.42 229.96 85.42L180.2 85.42C180.2 85.42 180.2 113.35 180.2 116.35 180.2 119.35 180.33 123.35 192.33 123.35 196.69 123.35 200.11 123.35 203.13 123.35Z" fill="#5C5F63"/></g><g opacity="0.3"><path d="M205.08 145.63C228.55 145.63 251.33 143.48 262.89 160.61 256.6 142.59 233.12 139.2 205.08 139.2 177.05 139.2 153.56 142.59 147.27 160.61 159.33 143.47 181.61 145.63 205.08 145.63Z" fill="#A7A9AC"/></g><g><g><path d="M228.59 193.51C228.59 180.23 217.82 169.46 204.54 169.46 191.26 169.46 180.49 180.23 180.49 193.51 180.49 206.79 191.26 217.56 204.54 217.56 217.82 217.56 228.59 206.79 228.59 193.51Z" fill="#3BBAEB"/></g><g><path d="M215 193.51C215 187.74 210.32 183.05 204.54 183.05 198.77 183.05 194.08 187.73 194.08 193.51 194.08 199.29 198.76 203.97 204.54 203.97 210.31 203.97 215 199.29 215 193.51Z" fill="#FFFFFF"/></g><g><g><path d="M207.06 176.06C207.06 174.67 205.93 173.55 204.54 173.55 203.15 173.55 202.03 174.68 202.03 176.06 202.03 177.45 203.16 178.57 204.54 178.57 205.93 178.58 207.06 177.45 207.06 176.06Z" fill="#FFFFFF"/></g><g><path d="M207.06 210.96C207.06 209.57 205.93 208.45 204.54 208.45 203.15 208.45 202.03 209.58 202.03 210.96 202.03 212.35 203.16 213.48 204.54 213.48 205.93 213.47 207.06 212.35 207.06 210.96Z" fill="#FFFFFF"/></g></g><g><g><path d="M224.5 193.51C224.5 192.12 223.37 191 221.99 191 220.6 191 219.47 192.13 219.47 193.51 219.47 194.89 220.6 196.02 221.99 196.02 223.38 196.03 224.5 194.9 224.5 193.51Z" fill="#FFFFFF"/></g><g><path d="M189.61 193.51C189.61 192.12 188.48 191 187.1 191 185.71 191 184.59 192.13 184.59 193.51 184.59 194.89 185.72 196.02 187.1 196.02 188.48 196.03 189.61 194.9 189.61 193.51Z" fill="#FFFFFF"/></g></g><g><g><path d="M218.66 182.95C219.64 181.97 219.64 180.38 218.66 179.39 217.68 178.41 216.08 178.41 215.1 179.39 214.12 180.37 214.12 181.96 215.1 182.95 216.08 183.93 217.67 183.93 218.66 182.95Z" fill="#FFFFFF"/></g><g><path d="M193.98 207.63C194.96 206.65 194.96 205.06 193.98 204.07 193 203.09 191.41 203.09 190.42 204.07 189.44 205.05 189.44 206.64 190.42 207.63 191.41 208.61 193 208.61 193.98 207.63Z" fill="#FFFFFF"/></g></g><g><g><path d="M218.66 207.63C219.64 206.65 219.64 205.06 218.66 204.07 217.68 203.09 216.08 203.09 215.1 204.07 214.12 205.05 214.12 206.65 215.1 207.63 216.08 208.61 217.67 208.61 218.66 207.63Z" fill="#FFFFFF"/></g><g><path d="M193.98 182.95C194.96 181.97 194.96 180.38 193.98 179.39 193 178.41 191.41 178.41 190.42 179.39 189.44 180.37 189.44 181.96 190.42 182.95 191.41 183.93 193 183.93 193.98 182.95Z" fill="#FFFFFF"/></g></g></g><g><g><path d="M175.43 275.7 234.73 275.7C234.73 275.7 235.54 258.11 241.29 252.37 246.28 247.38 253.76 243.19 253.76 243.19 253.76 243.19 253.77 243.17 253.77 243.16 253.77 243.16 232.3 247.91 205.08 247.91 179.66 247.91 156.39 243.16 156.39 243.16 156.39 243.17 156.4 243.19 156.4 243.19 156.4 243.19 163.89 247.38 168.87 252.37 174.62 258.12 175.43 275.7 175.43 275.7Z" fill="#2294C6"/></g></g><g><path d="M180.51 531.03C180.51 526.51 176.84 522.84 172.32 522.84 167.8 522.84 164.13 526.51 164.13 531.03 164.13 535.55 167.8 539.22 172.32 539.22 176.84 539.21 180.51 535.55 180.51 531.03Z" fill="#3B99CC"/></g><g><path d="M133.29 531.03C133.29 526.51 129.62 522.84 125.1 522.84 120.58 522.84 116.91 526.51 116.91 531.03 116.91 535.55 120.58 539.22 125.1 539.22 129.63 539.21 133.29 535.55 133.29 531.03Z" fill="#3B99CC"/></g><g><path d="M292.3 531.03C292.3 526.51 288.63 522.84 284.11 522.84 279.59 522.84 275.92 526.51 275.92 531.03 275.92 535.55 279.59 539.22 284.11 539.22 288.63 539.21 292.3 535.55 292.3 531.03Z" fill="#3B99CC"/></g><g><path d="M245.08 531.03C245.08 526.51 241.41 522.84 236.89 522.84 232.37 522.84 228.7 526.51 228.7 531.03 228.7 535.55 232.37 539.22 236.89 539.22 241.42 539.21 245.08 535.55 245.08 531.03Z" fill="#3B99CC"/></g><g opacity="0.6"><rect x="239.52" y="485.8" width="41.97" height="8.18" fill="#A7A9AC"/></g><g><path d="M120.51 418.75 120.51 486.3C120.51 486.3 120.45 498.98 127.73 498.98L127.73 497.6C127.73 497.6 127.24 492.3 132.25 492.3 137.25 492.3 158.75 492.3 164.25 492.3 171 492.3 169.7 497.1 169.7 497.1L169.7 498.98C177.51 498.98 176.92 486.3 176.92 486.3L176.92 418.75 120.51 418.75Z" fill="#FFFFFF"/></g><g><path d="M232.3 418.75 232.3 486.3C232.3 486.3 232.24 498.98 239.52 498.98L239.52 486.3 281.49 486.3 281.49 498.98C289.3 498.98 288.71 486.3 288.71 486.3L288.71 418.75 232.3 418.75Z" fill="#FFFFFF"/></g><g><path d="M112.33 418.75C112.33 418.75 110.87 477.47 120.51 477.47L120.51 446.2 176.92 446.2 176.92 477.33C186.56 477.33 185.1 418.74 185.1 418.74L176.92 418.74 176.92 430.74 120.51 430.74 120.51 418.74 112.33 418.74Z" fill="#3BBAEB"/></g><g><path d="M224.17 418.76C224.17 418.76 222.69 477.6 232.33 477.6L232.33 446.34 288.74 446.34 288.74 477.47C298.38 477.47 296.92 418.75 296.92 418.75L288.74 418.75 288.74 430.88 232.33 430.88 232.35 418.76 224.17 418.76Z" fill="#3BBAEB"/></g><g><path d="M56.07 295.15C58.94 293.92 60.27 290.6 59.04 287.75L53.01 273.76C51.78 270.9 48.46 269.59 45.59 270.82 42.72 272.05 41.39 275.37 42.62 278.22L48.65 292.21C49.88 295.06 53.2 296.38 56.07 295.15Z" fill="#FFFFFF"/></g><g><path d="M225.66 345.07 232.22 412.62 288.62 412.62 282.06 345.07C282.06 345.07 281.8 332.39 271.84 332.39L271.84 345.07 235.87 345.07 235.87 332.39C223.47 332.39 225.66 345.07 225.66 345.07Z" fill="#FFFFFF"/></g></g><g><path d="M173.93 287.14C178.65 287.14 178.79 298.49 181.11 304.01 183.83 310.48 190.16 309.96 190.16 309.96L200.62 309.96 209.2 309.96 219.66 309.96C219.66 309.96 225.99 310.48 228.71 304.01 231.03 298.49 231.17 287.14 235.89 287.14 241.65 287.14 253.34 287.18 256.42 287.14 259.69 287.1 262 283.41 262 280.25 262 278.06 262 270.84 262 265.22 262 260.59 260.94 258.74 255.29 258.74 254.02 258.74 248.94 258.74 241.82 258.74 241.82 258.74 192.67 258.74 168 258.74 160.88 258.74 155.79 258.74 154.53 258.74 148.88 258.74 147.82 260.58 147.82 265.22 147.82 270.83 147.82 278.05 147.82 280.25 147.82 283.41 150.13 287.1 153.4 287.14 156.48 287.18 168.17 287.14 173.93 287.14Z" fill="#FFFFFF"/></g><g opacity="0.6"><g><path d="M229.89 104.49 229.89 85.42 180.13 85.42 180.13 103.98C188.37 105.53 197.22 106.39 206.45 106.39 214.6 106.39 222.47 105.72 229.89 104.49Z" fill="#A7A9AC"/></g></g><g><g><path d="M164.1 4.91C161.33 6.01 162 11.34 162.83 14.84 163.66 18.34 169.66 19.17 170.83 18.84 172 18.51 174.33 16.84 174.83 16.01 175.33 15.18 176.33 15.18 176.16 13.34 175.99 11.51 178.33 8.34 178.33 8.34 172.33 5.51 166.87 3.81 164.1 4.91Z" fill="#3B99CC"/></g><g><path d="M235.18 15.26C235.68 16.09 238.01 17.76 239.18 18.09 240.35 18.42 246.35 17.59 247.18 14.09 248.01 10.59 248.68 5.26 245.91 4.16 243.14 3.06 237.68 4.76 231.68 7.59 231.68 7.59 234.01 10.76 233.85 12.59 233.68 14.43 234.68 14.43 235.18 15.26Z" fill="#3B99CC"/></g><g><path d="M262.86 82.18 262.86 22.01C262.86 9.34 228.51 2.69 206.44 2.69 182.85 2.69 147.14 9.01 147.14 23.65L147.14 82.17C147.14 94.31 182.85 100.33 206.44 100.33 228.52 100.35 262.86 91.01 262.86 82.18Z" fill="#FFFFFF"/></g><g><g><path d="M215.15 31.17C230.96 31.17 244.01 19.35 245.96 4.06 234.21 0.64 220.76 2.63 206.45 2.63 190.95 2.63 176.46 0.98 164.06 4.95 166.39 19.81 179.24 31.18 194.75 31.18L215.15 31.18Z" fill="#3B99CC"/></g></g><g><g><path d="M215.92 22.98C228.93 22.98 240.2 15.57 245.78 4.75 245.81 4.52 245.87 4.29 245.9 4.05 234.16 0.64 220.71 0 206.4 0 190.94 0 176.48 0.96 164.1 4.91 169.71 15.64 180.92 22.98 193.87 22.98L215.92 22.98Z" fill="#3BBAEB"/></g></g><g><g><g><path d="M185.15 53.21C185.15 49 181.74 45.59 177.54 45.59 173.33 45.59 169.92 49 169.92 53.21 169.92 57.41 173.33 60.82 177.54 60.82 181.75 60.83 185.15 57.42 185.15 53.21Z" fill="#D1D3D4"/></g><g><path d="M181.12 53.21C181.12 51.23 179.52 49.63 177.54 49.63 175.56 49.63 173.96 51.23 173.96 53.21 173.96 55.19 175.56 56.79 177.54 56.79 179.52 56.79 181.12 55.19 181.12 53.21Z" fill="#231F20"/></g></g><g><g><path d="M240.08 53.21C240.08 49 236.67 45.59 232.47 45.59 228.26 45.59 224.85 49 224.85 53.21 224.85 57.41 228.26 60.82 232.47 60.82 236.67 60.83 240.08 57.42 240.08 53.21Z" fill="#D1D3D4"/></g><g><path d="M236.04 53.21C236.04 51.23 234.44 49.63 232.46 49.63 230.48 49.63 228.88 51.23 228.88 53.21 228.88 55.19 230.48 56.79 232.46 56.79 234.44 56.79 236.04 55.19 236.04 53.21Z" fill="#231F20"/></g></g></g><g><g><path d="M205 89.97C207.04 89.97 208.69 88.32 208.69 86.29 208.69 84.25 207.04 82.6 205 82.6 202.96 82.6 201.31 84.25 201.31 86.29 201.32 88.32 202.97 89.97 205 89.97Z" fill="#D1D3D4"/></g><g><path d="M220.28 82.35C220.28 80.31 218.63 78.66 216.59 78.66 214.55 78.66 212.9 80.31 212.9 82.35 212.9 84.39 214.55 86.04 216.59 86.04 218.63 86.04 220.28 84.39 220.28 82.35Z" fill="#D1D3D4"/></g><g><path d="M197.1 82.35C197.1 80.31 195.45 78.66 193.42 78.66 191.38 78.66 189.73 80.31 189.73 82.35 189.73 84.39 191.38 86.04 193.42 86.04 195.45 86.04 197.1 84.39 197.1 82.35Z" fill="#D1D3D4"/></g></g></g><g><path d="M107.81 178.1C120.6 164.86 129.99 150.95 134.55 139.58L133.6 128.28 113.07 118.84C101.86 123.79 88.29 133.65 75.49 146.89 63.52 159.28 54.53 172.26 49.68 183.2L72.4 205.15C83.17 199.93 95.84 190.49 107.81 178.1Z" fill="#FFFFFF"/></g><g opacity="0.3"><g><path d="M83.49 188.35 54.24 175.1 72.41 205.15C83.17 199.93 95.84 190.5 107.81 178.11 120.6 164.87 129.99 150.96 134.55 139.59L132.75 135.61C130.7 139.36 108.75 120.61 108.75 120.61 108.75 120.61 116.78 155.23 116.5 155.61 102.74 174.1 83.49 188.35 83.49 188.35Z" fill="#A7A9AC"/></g></g><g><path d="M13.45 251.93 41.48 266.51C54.5 259.85 84.5 224.1 90.27 198.89 91.32 194.31 50 169.1 46.7 173.56 43.41 178.02 46.39 174.24 46.17 174.55 30.49 196.85 12.99 235.35 13.45 251.93Z" fill="#FFFFFF"/></g><g opacity="0.5"><path d="M90.27 198.89C90.51 197.82 88.46 195.63 85.12 192.96 76.31 218.18 49.13 249.92 36.79 256.23L14.14 244.46C13.64 247.26 13.39 249.78 13.45 251.93L41.48 266.51C54.49 259.85 84.49 224.1 90.27 198.89Z" fill="#A7A9AC"/></g><g><path d="M137.33 163.18 147.33 109.68C147.33 109.68 141.33 103.18 126.83 103.18 119.29 103.18 111.66 105.85 107.37 107.77 103.8 109.37 105.77 112.97 105.77 112.97L124.83 163.18 137.33 163.18Z" fill="#2294C6"/></g><g><path d="M123.59 130.82C125.04 130.53 126.9 130.25 129.04 130.16 130.94 130.08 132.56 130.15 133.86 130.27 136.14 130.49 137.38 129.72 138.04 127.48 138.52 125.85 139.9 118.01 140.62 113.87 140.89 112.32 140.75 111.35 138.84 110.15 136.53 108.7 132.55 108.01 127.29 108.01 122.57 108.01 117.79 109.36 114.6 110.51 113.78 110.8 112.81 112.23 113.32 113.62 114.91 117.97 118.27 127.1 119.06 128.65 120.1 130.71 121.47 131.25 123.59 130.82Z" fill="#3BBAEB"/></g><g><path d="M37.42 288.66C43.99 291.68 54.25 276.55 63.99 259.85 67.49 253.85 12.99 222.68 9.59 230.53 2.99 245.78-3.35 266.02 1.99 270.02L37.42 288.66Z" fill="#2294C6"/></g><g><g><path d="M361.76 292.21 367.79 278.22C369.02 275.36 367.69 272.05 364.82 270.82 361.95 269.59 358.63 270.9 357.4 273.76L351.37 287.75C350.14 290.6 351.47 293.92 354.34 295.15 357.2 296.38 360.53 295.06 361.76 292.21Z" fill="#FFFFFF"/></g><g><path d="M337.99 205.14 360.71 183.19C355.87 172.25 346.87 159.27 334.9 146.88 322.11 133.64 308.53 123.78 297.32 118.83L276.79 128.27 275.84 139.57C280.4 150.94 289.79 164.85 302.58 178.09 314.57 190.49 327.23 199.93 337.99 205.14Z" fill="#FFFFFF"/></g><g opacity="0.3"><g><path d="M277.66 135.6 275.86 139.58C280.42 150.95 289.81 164.86 302.6 178.1 314.57 190.49 327.23 199.93 338 205.14L356.17 175.09 326.92 188.34C326.92 188.34 307.67 174.09 293.92 155.59 293.64 155.21 301.67 120.59 301.67 120.59 301.67 120.59 279.71 139.34 277.66 135.6Z" fill="#A7A9AC"/></g></g><g><path d="M363.7 173.56C360.41 169.1 319.08 194.3 320.13 198.89 325.9 224.1 355.9 259.85 368.92 266.51L396.95 251.93C397.4 235.35 379.9 196.85 364.22 174.55 364.01 174.24 366.99 178.02 363.7 173.56Z" fill="#FFFFFF"/></g><g opacity="0.5"><path d="M396.95 251.93C397.01 249.78 396.76 247.26 396.26 244.46L373.61 256.23C361.27 249.92 334.09 218.18 325.28 192.96 321.94 195.63 319.88 197.82 320.13 198.89 325.9 224.1 355.9 259.85 368.92 266.51L396.95 251.93Z" fill="#A7A9AC"/></g><g><path d="M304.64 112.97C304.64 112.97 306.61 109.37 303.04 107.77 298.75 105.84 291.12 103.18 283.58 103.18 269.08 103.18 263.08 109.68 263.08 109.68L273.08 163.18 285.58 163.18 304.64 112.97Z" fill="#2294C6"/></g><g><path d="M276.55 130.27C277.84 130.15 279.46 130.08 281.37 130.16 283.51 130.25 285.37 130.53 286.82 130.82 288.94 131.25 290.31 130.71 291.36 128.65 292.16 127.09 295.52 117.96 297.1 113.62 297.61 112.22 296.64 110.8 295.82 110.51 292.62 109.36 287.85 108.01 283.13 108.01 277.87 108.01 273.89 108.7 271.58 110.15 269.67 111.35 269.53 112.32 269.8 113.87 270.52 118.01 271.9 125.85 272.38 127.48 273.03 129.72 274.27 130.49 276.55 130.27Z" fill="#3BBAEB"/></g><g><path d="M372.98 288.66 408.41 270.02C413.74 266.02 407.41 245.78 400.81 230.53 397.41 222.68 342.91 253.85 346.41 259.85 356.15 276.54 366.41 291.68 372.98 288.66Z" fill="#2294C6"/></g><g><path d="M381.04 270.81 403.58 259.03C406.98 256.5 402.99 243.63 398.83 233.93 396.69 228.94 361.26 248.04 363.37 251.71 370.31 263.73 376.86 272.71 381.04 270.81Z" fill="#3BBAEB"/></g></g><g><path d="M399.78 298.43C402.48 297.15 403.66 293.92 402.4 291.22L396.24 277.96C394.98 275.25 391.77 274.1 389.07 275.37 386.36 276.65 385.19 279.88 386.45 282.58L392.61 295.84C393.86 298.55 397.07 299.71 399.78 298.43Z" fill="#FFFFFF"/></g><g><path d="M384.83 302.63C387.54 301.35 388.71 298.12 387.45 295.42L381.29 282.16C380.03 279.45 376.82 278.29 374.12 279.57 371.42 280.85 370.24 284.08 371.5 286.78L377.66 300.04C378.92 302.75 382.13 303.9 384.83 302.63Z" fill="#FFFFFF"/></g></svg>