<svg width="448.7" height="189.7" viewBox="0 0 448.7 189.7" xmlns="http://www.w3.org/2000/svg" xmlns:xlink="http://www.w3.org/1999/xlink" xml:space="preserve" overflow="hidden"><defs></defs><g><path d="M368.3 92.7C368.3 99.48 369.27 104.98 362.49 104.98L82.87 104.98C76.09 104.98 70.59 99.49 70.59 92.7L70.59 12.28C70.59 5.5 76.09 0 82.87 0L359.32 0C366.1 0 366.07 11.22 366.07 18L368.3 92.7Z" fill="#2E495C"/><path d="M79.48 0.48C26.7 22.95 10.02 34.29 10.02 34.29L26.81 126.26 80.01 133.63 80.01 8.8 79.48 0.48Z" fill="#385873"/><path d="M359.32 0C405.83 21.6 431.45 30.9 431.45 30.9L419.28 126.26 359.74 133.63 359.74 8.8 359.32 0Z" fill="#385873"/><path d="M399.23 93.76C399.23 105.72 393.73 115.42 386.95 115.42L60.16 115.42C53.38 115.42 47.88 105.72 47.88 93.76L47.88 89.8C47.88 77.84 102.49 55.87 109.27 55.87L337.84 55.87C344.62 55.87 399.23 77.84 399.23 89.8L399.23 93.76Z" fill="#48708D"/><g><path d="M82.78 161.55 74.93 161.55 74.43 127.91 85.81 127.91Z" fill="#7F532B"/><path d="M77.54 161.55 71.44 161.55 69.38 127.91 78.23 127.91Z" fill="#996633"/></g><g><path d="M354.01 161.55 361.86 161.55 362.35 127.91 350.98 127.91Z" fill="#7F532B"/><path d="M359.25 161.55 365.35 161.55 367.41 127.91 358.56 127.91Z" fill="#996633"/></g><g><path d="M63.54 189.7 54.01 189.7 53.42 148.87 67.23 148.87Z" fill="#7F532B"/><path d="M57.19 189.7 49.78 189.7 47.28 148.87 58.02 148.87Z" fill="#996633"/></g><g><path d="M385.19 189.7 394.73 189.7 395.33 148.87 381.51 148.87Z" fill="#7F532B"/><path d="M391.55 189.7 398.96 189.7 401.46 148.87 390.72 148.87Z" fill="#996633"/></g><path d="M413.35 139.77C413.35 146.55 407.85 152.05 401.07 152.05L49.72 152.05C42.94 152.05 37.44 146.55 37.44 139.77L37.44 118.49C37.44 111.71 42.93 106.21 49.72 106.21L401.07 106.21C407.85 106.21 413.35 111.7 413.35 118.49L413.35 139.77Z" fill="#48708D"/><path d="M71.39 148.22C75.71 142.98 76.23 134.09 73.48 128.6 67.7 117.06 54.85 111.37 50.24 99.4 45.98 88.34 44.11 76.29 44.53 64.62 44.82 56.59 43.66 41.99 37.98 35.18 31.12 26.97 17.93 29.03 10.02 34.15-1.06 41.85-0.53 55.18 0.52 67.49 2.1 79.8 7.38 92.63 12.13 103.4 17.41 114.17 22.68 126.48 29.54 136.23 34.88 143.82 40.64 150.71 50.28 152.47 55.11 153.35 63.19 153.48 67.67 151.22 69.13 150.5 70.36 149.46 71.39 148.22Z" fill="#48708D"/><path d="M377.31 148.22C372.99 142.98 372.47 134.09 375.22 128.6 381 117.06 393.85 111.37 398.46 99.4 402.72 88.34 404.59 76.29 404.17 64.62 403.88 56.59 405.04 41.99 410.73 35.18 417.59 26.97 430.78 29.03 438.69 34.15 449.77 41.85 449.24 55.18 448.19 67.49 446.61 79.8 441.33 92.63 436.58 103.4 431.31 114.17 426.03 126.48 419.17 136.23 413.83 143.82 411.24 150.71 401.6 152.47 396.77 153.35 385.52 153.48 381.04 151.22 379.57 150.5 378.34 149.46 377.31 148.22Z" fill="#48708D"/><path d="M399.23 103.14C399.23 109.92 393.73 115.42 386.95 115.42L60.16 115.42C53.38 115.42 47.88 109.92 47.88 103.14L47.88 93.93C47.88 87.15 53.38 81.65 60.16 81.65L386.95 81.65C393.74 81.65 399.23 87.15 399.23 93.93L399.23 103.14Z" fill="#385873"/></g></svg>