<svg width="195.25" height="100.12" viewBox="0 0 195.25 100.12" xmlns="http://www.w3.org/2000/svg" xmlns:xlink="http://www.w3.org/1999/xlink" xml:space="preserve" overflow="hidden"><defs></defs><g><path d="M185.82 96.16 7.92 98.43 159.73 90.82 195.25 93.17Z" fill="#623691" opacity="0.6"/><g><linearGradient x1="70.3199" y1="62.0952" x2="71.9448" y2="62.0952" gradientUnits="userSpaceOnUse" id="SVGID_2_"><stop offset="0.0189" stop-color="#C94A0B"/><stop offset="1" stop-color="#A81A1C"/></linearGradient><linearGradient x1="72.2146" y1="67.3489" x2="63.1633" y2="11.3169" gradientUnits="userSpaceOnUse" id="SVGID_10_"><stop offset="0.2356" stop-color="#AC5A9D"/><stop offset="0.3828" stop-color="#A5569E"/><stop offset="0.5957" stop-color="#924AA2"/><stop offset="0.8473" stop-color="#7336A8"/><stop offset="1" stop-color="#5C28AC"/></linearGradient><linearGradient x1="68.1734" y1="24.3525" x2="132.174" y2="24.3525" gradientUnits="userSpaceOnUse" id="SVGID_23_"><stop offset="0.0189" stop-color="#C94A0B"/><stop offset="1" stop-color="#A81A1C"/></linearGradient><linearGradient x1="126.176" y1="58.4062" x2="129.344" y2="58.4062" gradientUnits="userSpaceOnUse" id="SVGID_24_"><stop offset="0.0189" stop-color="#C94A0B"/><stop offset="1" stop-color="#A81A1C"/></linearGradient><linearGradient x1="39.8889" y1="116.218" x2="20.4739" y2="85.4538" gradientUnits="userSpaceOnUse" id="SVGID_32_"><stop offset="0.0189" stop-color="#C94A0B"/><stop offset="1" stop-color="#A81A1C"/></linearGradient><linearGradient x1="9.2677" y1="75.9716" x2="57.9215" y2="75.9716" gradientUnits="userSpaceOnUse" id="SVGID_40_"><stop offset="0.0189" stop-color="#C94A0B"/><stop offset="1" stop-color="#A81A1C"/></linearGradient><linearGradient x1="114.981" y1="73.3267" x2="128.846" y2="94.5924" gradientUnits="userSpaceOnUse" id="SVGID_41_"><stop offset="0.0189" stop-color="#C94A0B"/><stop offset="1" stop-color="#A81A1C"/></linearGradient><g><linearGradient x1="39.4333" y1="65.1246" x2="41.0656" y2="65.1246" gradientUnits="userSpaceOnUse" id="SVGID_1_"><stop offset="0.0189" stop-color="#C94A0B"/><stop offset="1" stop-color="#A81A1C"/></linearGradient><path d="M44.98 72.89 35.5 73.67 35.49 73.65 32.99 64.59 34.26 64.47 35.51 64.35 36.11 66.71 39.83 66.41 39.44 63.98 40.68 63.86 41.42 63.79 42.55 63.68Z" fill="#E2B3BF"/><path d="M43.84 72.96 35.49 73.65 34.39 73.74 31.89 64.68 34.25 64.45 35.5 64.33 35.51 64.35 36.11 66.71 39.83 66.41 39.44 63.98 39.43 63.96 40.68 63.84 41.41 63.77 41.42 63.79Z" fill="#BA8390"/><path d="M39.88 66.76 34.95 67.15 34.26 64.47 34.25 64.45 34.25 64.42 35.5 64.3 35.5 64.33 35.51 64.35 36.11 66.71 39.83 66.41Z" fill="#E2B3BF"/><path d="M41.07 66.32 39.83 66.41 39.44 63.98 39.43 63.96 40.68 63.84 40.68 63.86Z" fill="url(#SVGID_1_)"/><path d="M39.25 63.97 41.32 72.92 43.8 72.79 41.41 63.77Z" fill="#BA8390"/><path d="M39.33 66.76 38.62 72.14 37.2 72.13 38.41 67.04Z" fill="#A8006D" opacity="0.3"/><path d="M37.65 66.91 36.46 72.3 33.96 72.35 36.03 67.22Z" fill="#A8006D" opacity="0.3"/><g><path d="M32.34 41.1C32.07 43.88 37.08 48.93 37.36 55.63 37.64 62.3 32.43 67.3 32.07 70.38 31.72 73.45 32.02 73.8 32.41 73.78 32.8 73.76 31.91 71.31 32.7 70.06 33.49 68.81 38.78 60.42 38.71 55.42 38.64 50.4 33.36 44.36 33.04 42.26 32.72 40.15 32.89 39.18 32.66 39.11 32.41 39.05 32.34 41.1 32.34 41.1Z" fill="#E25B20"/><path d="M32.59 69.44 33.03 42.27 33.11 42.55 32.75 70.34Z" fill="#FFB357"/><path d="M37.86 54.26C37.4 56.37 37.84 57.62 37.84 57.62 37.84 57.62 38.14 56.59 38.17 55.87 38.2 55.14 37.86 54.26 37.86 54.26Z" fill="#A8006D" opacity="0.61"/><path d="M32.27 69.29 32.76 70.46 32.85 70.1 32.43 69.07Z" fill="#FFB357"/><path d="M32.51 42.68 33.05 42.15 33.08 42.26 32.53 42.76Z" fill="#FFB357"/></g><g><path d="M34.57 41.12C34.52 43.9 40 48.29 40.84 54.9 41.67 61.48 36.8 67.09 36.69 70.19 36.58 73.29 36.92 73.6 37.31 73.54 37.7 73.47 36.6 71.14 37.3 69.81 38 68.47 42.67 59.5 42.19 54.54 41.71 49.57 35.87 44.24 35.37 42.2 34.87 40.16 34.97 39.18 34.73 39.14 34.48 39.09 34.57 41.12 34.57 41.12Z" fill="#E25B20"/><path d="M37.13 69.19 35.36 42.2 35.46 42.46 37.36 70.07Z" fill="#FFB357"/><path d="M41.23 53.49C40.94 55.64 41.49 56.83 41.49 56.83 41.49 56.83 41.71 55.78 41.68 55.05 41.64 54.32 41.23 53.49 41.23 53.49Z" fill="#A8006D" opacity="0.61"/><path d="M36.79 69.08 37.39 70.19 37.45 69.82 36.94 68.84Z" fill="#FFB357"/><path d="M34.87 42.67 35.37 42.08 35.41 42.18 34.89 42.75Z" fill="#FFB357"/></g></g><g><path d="M62.99 40.8C62.96 40.8 62.94 40.8 62.92 40.8 59.92 40.87 57.95 25.82 57.74 24.15 57.17 24.74 53.8 28.18 49.2 31.18 44.63 34.16 37.92 37.28 31.59 35.48 24.61 33.49 19.4 26.01 16 13.2L16.11 13.13C19.49 25.9 24.68 33.35 31.62 35.32 37.92 37.11 44.6 34 49.15 31.03 54.16 27.76 57.71 23.97 57.74 23.93L57.82 23.84 57.84 23.97C57.86 24.14 59.91 40.7 62.92 40.63 65.95 40.56 69.35 26.11 69.38 25.97L69.51 26C69.37 26.61 66.1 40.51 62.99 40.8Z" fill="#CE9BA5"/><path d="M19.58 23.11C19.58 23.62 19.27 24.06 18.89 24.11 18.52 24.16 18.22 23.78 18.22 23.28 18.22 22.77 18.53 22.33 18.91 22.28 19.28 22.24 19.59 22.61 19.58 23.11Z" fill="#FFEA92"/><path d="M22.02 28.86C22.34 28.55 22.76 28.62 22.96 29.01 23.16 29.41 23.07 29.99 22.75 30.3 22.43 30.61 22.01 30.54 21.81 30.14 21.6 29.75 21.7 29.17 22.02 28.86Z" fill="#F594FF"/><path d="M27.57 33.84C27.89 33.53 28.32 33.6 28.53 34 28.73 34.4 28.64 34.98 28.31 35.29 27.99 35.6 27.56 35.53 27.36 35.13 27.15 34.73 27.25 34.15 27.57 33.84Z" fill="#F594FF"/><path d="M31.36 35.27C31.69 34.96 32.12 35.03 32.32 35.43 32.53 35.83 32.43 36.41 32.1 36.73 31.77 37.04 31.34 36.97 31.14 36.56 30.94 36.17 31.04 35.59 31.36 35.27Z" fill="#FFEA92"/><path d="M37.3 35.92C37.63 35.6 38.07 35.68 38.28 36.09 38.49 36.5 38.39 37.08 38.05 37.4 37.72 37.71 37.28 37.64 37.07 37.23 36.86 36.82 36.96 36.24 37.3 35.92Z" fill="#F594FF"/><path d="M45.95 32.79C46.29 32.47 46.74 32.54 46.95 32.95 47.16 33.36 47.06 33.95 46.71 34.27 46.37 34.59 45.92 34.52 45.71 34.1 45.5 33.7 45.61 33.11 45.95 32.79Z" fill="#FFEA92"/><path d="M52.31 28.54C52.66 28.21 53.11 28.29 53.33 28.7 53.54 29.12 53.44 29.72 53.09 30.04 52.74 30.37 52.29 30.29 52.07 29.88 51.85 29.47 51.96 28.87 52.31 28.54Z" fill="#F594FF"/><path d="M57.6 27.57C57.95 27.24 58.42 27.31 58.63 27.73 58.85 28.15 58.73 28.75 58.38 29.08 58.03 29.41 57.56 29.34 57.35 28.92 57.13 28.51 57.25 27.9 57.6 27.57Z" fill="#F594FF"/><path d="M58.95 34.74C59.3 34.42 59.77 34.49 59.98 34.91 60.2 35.33 60.08 35.93 59.73 36.25 59.38 36.57 58.91 36.5 58.7 36.08 58.49 35.66 58.6 35.06 58.95 34.74Z" fill="#FFEA92"/><path d="M61.97 40.42C62.33 40.1 62.79 40.18 63.01 40.6 63.23 41.02 63.11 41.62 62.76 41.94 62.4 42.26 61.94 42.18 61.72 41.76 61.51 41.34 61.62 40.74 61.97 40.42Z" fill="#F594FF"/><path d="M65.1 38.49C65.46 38.17 65.93 38.24 66.15 38.66 66.37 39.08 66.25 39.69 65.89 40.01 65.53 40.33 65.06 40.25 64.84 39.83 64.62 39.42 64.74 38.82 65.1 38.49Z" fill="#FFEA92"/><path d="M67.83 31.47C68.19 31.14 68.67 31.21 68.89 31.64 69.11 32.06 68.99 32.67 68.63 33 68.27 33.33 67.79 33.25 67.57 32.83 67.35 32.41 67.47 31.8 67.83 31.47Z" fill="#F594FF"/></g><path d="M70.32 95.43 70.69 28.57 71.55 28.48 71.94 95.71Z" fill="url(#SVGID_2_)"/><g><linearGradient x1="-6.093" y1="226.165" x2="-2.2624" y2="207.098" gradientUnits="userSpaceOnUse" id="SVGID_3_" gradientTransform="matrix(0.9934 -0.1147 0.1147 0.9934 -4.0372 -154.185)"><stop offset="0.0307" stop-color="#A5556A"/><stop offset="1" stop-color="#4B1754"/></linearGradient><linearGradient x1="19.0278" y1="21.8431" x2="22.9141" y2="2.4991" gradientUnits="userSpaceOnUse" id="SVGID_4_" gradientTransform="matrix(0.9994 0.0356 -0.0356 0.9994 -1.9879 47.7624)"><stop offset="0.0307" stop-color="#A5556A"/><stop offset="1" stop-color="#4B1754"/></linearGradient><linearGradient x1="20.265" y1="22.091" x2="24.1654" y2="2.6768" gradientUnits="userSpaceOnUse" id="SVGID_5_" gradientTransform="matrix(0.9994 0.0356 -0.0356 0.9994 -1.9879 47.7624)"><stop offset="0.0307" stop-color="#A5556A"/><stop offset="1" stop-color="#4B1754"/></linearGradient><linearGradient x1="19.764" y1="21.9869" x2="23.6495" y2="2.6468" gradientUnits="userSpaceOnUse" id="SVGID_6_" gradientTransform="matrix(0.9994 0.0356 -0.0356 0.9994 -1.9879 47.7624)"><stop offset="0.0307" stop-color="#A5556A"/><stop offset="1" stop-color="#4B1754"/></linearGradient><linearGradient x1="16.4241" y1="72.1281" x2="21.055" y2="72.1281" gradientUnits="userSpaceOnUse" id="SVGID_7_"><stop offset="0.2356" stop-color="#CF74ED"/><stop offset="0.3402" stop-color="#C870ED"/><stop offset="0.4916" stop-color="#B566ED"/><stop offset="0.6714" stop-color="#9556ED"/><stop offset="0.8714" stop-color="#6A40ED"/><stop offset="1" stop-color="#4A2FED"/></linearGradient><linearGradient x1="18.4287" y1="71.5977" x2="22.2515" y2="72.6618" gradientUnits="userSpaceOnUse" id="SVGID_8_"><stop offset="0.0189" stop-color="#EAB8AE"/><stop offset="1" stop-color="#A81A68"/></linearGradient><linearGradient x1="18.4912" y1="70.662" x2="16.6855" y2="66.9811" gradientUnits="userSpaceOnUse" id="SVGID_9_"><stop offset="0.2301"/><stop offset="1" stop-color="#FFD055"/></linearGradient><path d="M18.21 71.95 14.64 55.48 14.74 55.44 18.31 71.91Z" fill="url(#SVGID_3_)"/><path d="M18.53 71.22 17.59 53.7 17.69 53.68 18.64 71.2Z" fill="url(#SVGID_4_)"/><path d="M19.17 71.07 19.07 71.07 19.82 53.13 19.92 53.12Z" fill="url(#SVGID_5_)"/><path d="M18.76 71.82 18.26 55.83 18.36 55.81 18.86 71.81Z" fill="url(#SVGID_6_)"/><path d="M21.06 77.58 16.43 77.89 16.46 72.35 16.46 71.66 16.47 70.13 16.47 68.8 16.48 67.16C16.75 67 17.01 66.86 17.26 66.76 17.3 66.74 17.33 66.73 17.36 66.72 17.87 66.51 18.32 66.41 18.7 66.37 18.74 66.36 18.77 66.36 18.8 66.36 18.89 66.35 18.97 66.35 19.05 66.35 19.09 66.35 19.13 66.35 19.16 66.35 19.44 66.36 19.67 66.4 19.85 66.44 19.89 66.45 19.93 66.46 19.96 66.47 20.19 66.54 20.32 66.61 20.32 66.61L20.42 68.39 20.51 69.96 20.59 71.43 20.63 72.23 21.06 77.58Z" fill="url(#SVGID_7_)"/><path d="M14.73 55.74 13.13 54.93 15.1 57.16 15.53 53.55Z" fill="#CE557A"/><path d="M17.7 55.3 16.36 51.04C16.36 51.04 17.7 53.8 17.7 53.69 17.7 53.58 18.52 51.19 18.52 51.19L17.7 55.3Z" fill="#CE557A"/><path d="M19.72 55.37C19.7 55.3 18.88 52.36 18.88 52.36 18.88 52.36 19.85 53.46 19.88 53.3 19.92 53.13 20.98 51.37 20.98 51.37L19.72 55.37Z" fill="#CE557A"/><path d="M18.31 55.96C18.33 55.88 19.11 53.76 19.11 53.76 19.11 53.76 18.41 58.06 18.39 57.98 18.37 57.91 17.76 54.76 17.76 54.76L18.31 55.96Z" fill="#CE557A"/><path d="M19.3 66.48 19.85 77.38C19.85 77.38 21.25 77.61 21.12 77.4 21 77.2 20.3 66.73 20.3 66.73L19.3 66.48Z" fill="url(#SVGID_8_)" opacity="0.5"/><path d="M16.59 67.23C16.72 72.22 17.63 66.86 17.63 66.86L16.59 67.23Z" fill="url(#SVGID_9_)" opacity="0.5"/></g><path d="M127.7 20.51 72.84 27.22 12.89 14.32 0.16 11.58C0.16 11.58 7.41 11.58 18.21 10.1 28.79 8.65 43 5.75 57.31 0 57.31 0 91.32 19.93 127.7 20.51Z" fill="url(#SVGID_10_)"/><path d="M127.7 20.51 122.86 63.91 119.38 95.12 73.16 95.79 73 61.15 72.84 27.22Z" fill="#F7A441"/><g><linearGradient x1="101.288" y1="21.661" x2="96.4533" y2="50.445" gradientUnits="userSpaceOnUse" id="SVGID_11_"><stop offset="0.0189" stop-color="#C94A0B"/><stop offset="1" stop-color="#A81A1C"/></linearGradient><linearGradient x1="88.1493" y1="73.6484" x2="99.9617" y2="34.9133" gradientUnits="userSpaceOnUse" id="SVGID_12_"><stop offset="0.2143" stop-color="#FC2125"/><stop offset="1" stop-color="#923665"/></linearGradient><linearGradient x1="84.6894" y1="85.5267" x2="103.412" y2="24.1324" gradientUnits="userSpaceOnUse" id="SVGID_13_"><stop offset="0.2143" stop-color="#FC2125"/><stop offset="1" stop-color="#923665"/></linearGradient><linearGradient x1="88.1235" y1="74.9078" x2="100.569" y2="34.0978" gradientUnits="userSpaceOnUse" id="SVGID_14_"><stop offset="0.2143" stop-color="#FC2125"/><stop offset="1" stop-color="#923665"/></linearGradient><linearGradient x1="90.5861" y1="61.9366" x2="97.817" y2="44.1826" gradientUnits="userSpaceOnUse" id="SVGID_15_"><stop offset="0.0189" stop-color="#C94A0B"/><stop offset="1" stop-color="#A81A1C"/></linearGradient><linearGradient x1="91.0584" y1="62.081" x2="98.2631" y2="44.3916" gradientUnits="userSpaceOnUse" id="SVGID_16_"><stop offset="0.0189" stop-color="#C94A0B"/><stop offset="1" stop-color="#A81A1C"/></linearGradient><linearGradient x1="178.336" y1="-13.7217" x2="188.821" y2="-48.1061" gradientUnits="userSpaceOnUse" id="SVGID_17_" gradientTransform="matrix(0.9936 0.1126 -0.1126 0.9936 -99.573 64.2029)"><stop offset="0.0307" stop-color="#A5556A"/><stop offset="1" stop-color="#4B1754"/></linearGradient><path d="M106.77 52C106.42 59.35 101.28 65.56 95.36 65.9 89.53 66.24 85.09 60.74 85.36 53.59 85.63 46.39 90.58 40.09 96.49 39.55 102.49 39.02 107.12 44.6 106.77 52Z" fill="url(#SVGID_11_)"/><path d="M105.82 52.08C105.47 59.42 100.35 65.62 94.44 65.97 88.62 66.31 84.19 60.82 84.46 53.67 84.73 46.48 89.67 40.19 95.56 39.65 101.54 39.1 106.17 44.68 105.82 52.08Z" fill="#F77616"/><path d="M94.62 46.35C91.52 46.61 88.9 49.9 88.75 53.71 88.6 57.5 90.96 60.4 94.03 60.2 97.13 60 99.8 56.73 99.97 52.88 100.15 49.02 97.74 46.09 94.62 46.35ZM94.17 59.54C91.4 59.72 89.28 57.2 89.41 53.9 89.54 50.59 91.89 47.72 94.68 47.49 97.48 47.26 99.65 49.8 99.5 53.16 99.34 56.5 96.95 59.36 94.17 59.54Z" fill="url(#SVGID_12_)"/><path d="M94.9 42.26C89.99 42.69 85.86 47.93 85.63 53.94 85.4 59.91 89.11 64.5 93.97 64.2 98.89 63.9 103.14 58.73 103.43 52.62 103.72 46.47 99.88 41.82 94.9 42.26ZM94.19 63.17C89.82 63.44 86.47 59.45 86.68 54.24 86.88 49.01 90.59 44.45 95 44.07 99.46 43.69 102.91 47.72 102.67 53.07 102.42 58.39 98.61 62.9 94.19 63.17Z" fill="url(#SVGID_13_)"/><path d="M97.12 53.21C97.05 54.82 95.9 56.2 94.55 56.3 93.21 56.39 92.18 55.17 92.24 53.57 92.31 51.97 93.45 50.58 94.79 50.48 96.15 50.38 97.19 51.6 97.12 53.21Z" fill="url(#SVGID_14_)"/><path d="M95.14 51.48C95.13 51.67 94.99 51.84 94.82 51.85 94.65 51.86 94.52 51.72 94.53 51.53 94.54 51.34 94.68 51.17 94.85 51.16 95.02 51.14 95.15 51.29 95.14 51.48Z" fill="url(#SVGID_15_)"/><path d="M94.58 53.92C94.57 54.05 94.48 54.16 94.37 54.16 94.26 54.17 94.17 54.07 94.17 53.95 94.18 53.82 94.27 53.71 94.38 53.71 94.5 53.7 94.59 53.79 94.58 53.92Z" fill="url(#SVGID_16_)"/><path d="M95.56 39.64C95.5 43.57 95.68 53.74 95.43 54.75 95.18 55.76 94.12 66.28 94.12 66.28L98.48 39.77 95.56 39.64Z" fill="#A8006D" opacity="0.2"/><path d="M105.2 46.7 102.26 61.92 105.76 48.21Z" fill="#A8006D" opacity="0.2"/><path d="M79.18 52.71 94.29 53.97 94.3 53.84 79.12 52.52Z" fill="url(#SVGID_17_)"/><path d="M77.61 53.49 79.37 52.72 81.22 52.83Z" fill="#CE557A"/><path d="M79.47 52.53 77.65 50.86 81.31 52.81Z" fill="#CE557A"/></g><path d="M127.7 20.51 122.86 63.9 73 61.15 72.84 27.22 12.89 14.32 18.2 10.1C28.79 8.65 43 5.75 57.31 0 57.31 0 91.32 19.93 127.7 20.51Z" fill="#A8006D" opacity="0.5"/><g><linearGradient x1="11.8024" y1="48.5384" x2="26.5341" y2="48.5384" gradientUnits="userSpaceOnUse" id="SVGID_18_"><stop offset="0.0189" stop-color="#C94A0B"/><stop offset="1" stop-color="#A81A1C"/></linearGradient><path d="M25.46 19.82 25.3 31.11 25.24 35.32 24.52 85.79 23.42 85.83 23.09 35.91 23.06 31.14 22.99 20.38 16.67 17.35 8.13 13.27 11.8 12.03 19.82 16.6Z" fill="#F77616"/><path d="M26.53 19.63 26.5 21.25 26.44 24.47 26.4 26.55 26.34 29.76 26.32 31.11 26.24 35.1 26.24 35.1 25.3 85.06 24.56 85.44 25.25 35.32 25.31 31.11 25.46 19.82 19.82 16.6 11.8 12.03 13.73 11.64 21.17 16.28Z" fill="url(#SVGID_18_)"/></g><g><linearGradient x1="41.2987" y1="6.6523" x2="70.3965" y2="6.6523" gradientUnits="userSpaceOnUse" id="SVGID_19_"><stop offset="0.0189" stop-color="#C94A0B"/><stop offset="1" stop-color="#A81A1C"/></linearGradient><linearGradient x1="62.0256" y1="51.6655" x2="64.4081" y2="51.6655" gradientUnits="userSpaceOnUse" id="SVGID_20_"><stop offset="0.0189" stop-color="#C94A0B"/><stop offset="1" stop-color="#A81A1C"/></linearGradient><linearGradient x1="59.6107" y1="6.4611" x2="64.8211" y2="6.4611" gradientUnits="userSpaceOnUse" id="SVGID_21_"><stop offset="0.0189" stop-color="#C94A0B"/><stop offset="1" stop-color="#A81A1C"/></linearGradient><path d="M70.4 2.44 70.3 5.53 64.39 6.7 64.18 6.74 63.21 6.93 60.49 7.48 58.66 7.84 46.15 10.33 46.08 10.35 41.3 11.3 43.66 10.46 43.67 10.46 58.83 5.08 67.52 2Z" fill="url(#SVGID_19_)"/><path d="M61.99 97.51 60.79 97.53 60.68 50.31 60.59 30.68 60.57 25.52 60.57 25.51 60.5 10.61 60.5 9.52 60.5 7.47 60.5 6.97 60.5 6.92 60.5 6.77 60.5 6.61C61.3 6.44 62.26 6.25 63.23 6.05L63.23 6.19 63.23 6.51 63.23 6.57 63.23 6.93 62.98 30.66 62.95 33.6 62.95 34.2 62.95 34.21 62.75 52.93 61.99 97.51Z" fill="#F77616"/><path d="M62.84 97.49 62.03 97.51 62.74 52.96 63.23 6.06C63.63 5.99 64.02 5.9 64.42 5.83L63.72 54.32 62.84 97.49Z" fill="url(#SVGID_20_)"/><path d="M67.57 5.22 58.69 7.17 43.67 10.46 43.66 10.46 25.81 14.38 25.21 14.51 25.2 14.48 24.15 12.26 58.89 4.04 67.52 2Z" fill="#F77616"/><path d="M59.7 7.09C59.79 7.08 64.82 6.33 64.82 6.33L64.76 5.83 59.61 7.04 59.7 7.09Z" fill="url(#SVGID_21_)"/><path d="M58.89 4.04 58.83 5.08 58.69 7.17 58.68 7.35 58.66 7.84 46.15 10.33 46.08 10.35 41.3 11.3 43.66 10.46 25.81 14.38 25.2 14.48 24.15 12.26Z" fill="#A8006D" opacity="0.5"/></g><path d="M60.57 25.51 60.57 25.53 60.37 25.55 26.34 29.76 26 29.8 26.04 26.58 26.35 26.56 26.4 26.55 60.37 24.49 60.48 24.48Z" fill="#F77616"/><g><linearGradient x1="37.9157" y1="70.2661" x2="62.0914" y2="92.3182" gradientUnits="userSpaceOnUse" id="SVGID_22_"><stop offset="0.0189" stop-color="#C94A0B"/><stop offset="1" stop-color="#A81A1C"/></linearGradient><path d="M59.57 97.54 49.16 97.71 7.04 98.39 8.28 86.45 9.1 78.66 9.59 73.87 13.06 73.67 13.84 73.62 25.07 72.96 25.66 72.93 33.63 72.46 38.57 72.18 41.74 71.99 42.73 71.94 57.86 71.05Z" fill="#E86E0A"/><path d="M59.57 97.53 49.17 97.94 48.33 86.25 47.77 78.41 47.29 71.76 57.86 71.05Z" fill="url(#SVGID_22_)"/></g><path d="M23.15 43.92C25.34 50.11 25.06 53.36 25.06 53.36L25.84 60.24 25.93 52.53 23.11 43.07 23.15 43.92Z" fill="#A8006D" opacity="0.3"/><path d="M60.75 61.52C62.93 65.21 63.22 77.16 63.22 77.16L63.54 63.23 60.67 54.94 60.75 61.52Z" fill="#A8006D" opacity="0.3"/><path d="M60.74 28.59C61.93 29.82 64.23 38.98 64.23 38.98L60.89 25.22 60.74 28.59Z" fill="#A8006D" opacity="0.3"/><path d="M58.26 76.87C58.9 82.17 56.18 89.58 55.83 91.24 55.48 92.9 54.95 97.62 54.95 97.62L55.51 97.67C55.51 97.67 54.94 94.1 56.22 91.88 57.51 89.65 58.81 85.1 58.81 85.1L58.26 76.87Z" fill="#A8006D" opacity="0.2"/><path d="M53.17 71.2C53.91 82.9 51.22 89.32 51.58 90.89 51.95 92.47 51.47 97.57 51.47 97.57L51.01 71.43 53.17 71.2Z" fill="#A8006D" opacity="0.2"/><path d="M57.8 72.39C57.67 75.28 56.64 77.43 56.64 77.43L58.05 74.79 57.8 72.39Z" fill="#A8006D" opacity="0.2"/><path d="M68.17 28.17 132.17 19.42 131.72 21.46 68.71 29.28Z" fill="url(#SVGID_23_)"/><path d="M126.18 94.97 128.35 21.64 129.34 21.53 128.03 95.28Z" fill="url(#SVGID_24_)"/><g><path d="M80.98 80.79 81.02 82.05 77.18 82.2 77.22 80.83 77.24 80.23 77.28 78.88 77.31 77.71 77.36 76.27C77.6 76.13 77.84 76.02 78.07 75.93 78.1 75.92 78.13 75.91 78.16 75.9 78.62 75.72 79.03 75.64 79.38 75.6L79.7 75.59C79.73 75.6 79.77 75.6 79.81 75.59 80.06 75.61 80.26 75.64 80.42 75.68 80.45 75.69 80.49 75.7 80.52 75.71 80.73 75.77 80.84 75.84 80.84 75.84L80.88 77.4 80.93 78.79 80.97 80.09 80.98 80.79Z" fill="#A8006D" opacity="0.5"/><path d="M87.9 81.53 82.86 81.73C82.99 81.5 82.81 71.06 83.12 70.93 83.42 70.79 84.81 70.31 85.06 68.9 85.24 67.87 85.32 65.59 85.35 64.42L85.2 64.44 85.18 63.25 86.78 63.03 86.63 64.25 86.48 64.27C86.44 65.38 86.37 67.85 86.49 68.91 86.64 70.29 88.02 70.58 88.33 70.67 88.63 70.75 87.79 81.32 87.9 81.53Z" fill="#A8006D" opacity="0.5"/><path d="M98.71 79.89 98.74 81.17 94.73 81.33 94.78 79.93 94.81 79.32 94.86 77.94 94.9 76.75 94.96 75.27C95.22 75.13 95.47 75 95.71 74.92 95.74 74.91 95.77 74.89 95.81 74.89 96.3 74.7 96.72 74.61 97.09 74.59L97.42 74.57C97.45 74.57 97.49 74.57 97.52 74.57 97.78 74.58 98 74.61 98.17 74.66 98.2 74.67 98.24 74.68 98.27 74.68 98.49 74.74 98.6 74.81 98.6 74.81L98.64 76.42 98.68 77.83 98.71 79.17 98.71 79.89Z" fill="#A8006D" opacity="0.5"/><path d="M104.16 79.66 104.19 80.95 100.12 81.11 100.18 79.71 100.21 79.09 100.26 77.7 100.31 76.5 100.37 75.01C100.64 74.87 100.89 74.74 101.12 74.66 101.16 74.65 101.19 74.63 101.22 74.63 101.71 74.44 102.15 74.35 102.51 74.32L102.85 74.3C102.88 74.3 102.92 74.3 102.95 74.3 103.21 74.31 103.44 74.34 103.61 74.39 103.64 74.4 103.68 74.41 103.71 74.41 103.93 74.48 104.04 74.55 104.04 74.55L104.08 76.17 104.11 77.59 104.14 78.93 104.16 79.66Z" fill="#A8006D" opacity="0.5"/><path d="M119.24 80.38 113.8 80.59C113.93 80.35 113.88 69.5 114.21 69.36 114.55 69.23 116.05 68.72 116.34 67.26 116.54 66.19 116.67 63.81 116.72 62.59L116.55 62.61 116.54 61.38 118.27 61.15 118.1 62.41 117.92 62.43C117.87 63.58 117.76 66.16 117.88 67.25 118.03 68.69 119.51 68.99 119.84 69.08 120.17 69.17 119.12 80.15 119.24 80.38Z" fill="#A8006D" opacity="0.5"/><g><linearGradient x1="75.741" y1="72.647" x2="78.0612" y2="78.9783" gradientUnits="userSpaceOnUse" id="SVGID_25_"><stop offset="0.0189" stop-color="#EAB8AE"/><stop offset="1" stop-color="#A81A68"/></linearGradient><path d="M78.09 79.92 74.28 80.08 74.32 78.71 74.34 78.11 74.38 76.76 74.41 75.59 74.46 74.15C74.7 74.01 74.94 73.9 75.16 73.81 75.19 73.8 75.22 73.79 75.25 73.78 75.71 73.6 76.12 73.52 76.46 73.48L76.77 73.46C76.8 73.47 76.84 73.47 76.87 73.46 77.12 73.48 77.32 73.51 77.48 73.55 77.51 73.56 77.55 73.56 77.58 73.58 77.79 73.64 77.9 73.71 77.9 73.71L77.94 75.27 77.99 76.66 78.03 77.95 78.05 78.65 78.09 79.92Z" fill="#CE9BA5"/><path d="M77.99 76.67C77.94 76.66 77.88 76.66 77.83 76.66 77.68 76.64 77.52 76.63 77.36 76.63 77.32 76.62 77.29 76.62 77.26 76.63 77.16 76.62 77.04 76.62 76.92 76.62 76.91 76.62 76.88 76.62 76.86 76.61L76.82 76.61C76.78 76.61 76.73 76.61 76.69 76.61L76.59 76.61C76.38 76.61 76.16 76.61 75.94 76.62L75.84 76.62C75.39 76.65 74.91 76.69 74.38 76.76L74.41 75.59C74.8 75.5 75.17 75.43 75.54 75.37 75.57 75.37 75.61 75.36 75.64 75.36 75.95 75.33 76.25 75.29 76.54 75.28L76.91 75.26C77.07 75.25 77.22 75.25 77.37 75.26 77.4 75.26 77.44 75.27 77.47 75.26 77.58 75.26 77.69 75.26 77.79 75.27 77.85 75.27 77.9 75.26 77.95 75.27L77.99 76.67Z" fill="#A8006D" opacity="0.2"/><path d="M78.05 78.66C78 78.65 77.95 78.66 77.89 78.65 77.63 78.63 77.31 78.62 76.94 78.62L76.84 78.62C76.83 78.62 76.83 78.62 76.83 78.62 76.7 78.62 76.55 78.61 76.4 78.62 76.36 78.61 76.33 78.61 76.3 78.62 75.73 78.64 75.06 78.66 74.31 78.71L74.33 78.11C74.98 78.03 75.59 77.99 76.14 77.97 76.18 77.97 76.21 77.97 76.24 77.97L76.83 77.94C76.87 77.95 76.9 77.95 76.93 77.94 77 77.94 77.07 77.93 77.15 77.94L77.25 77.94C77.47 77.95 77.68 77.95 77.86 77.95 77.92 77.96 77.97 77.96 78.02 77.96L78.05 78.66Z" fill="#A8006D" opacity="0.2"/><path d="M76.87 73.47 76.82 79.96 77.93 79.92 77.73 73.69Z" fill="url(#SVGID_25_)" opacity="0.5"/></g><g><linearGradient x1="93.3026" y1="71.5641" x2="95.6722" y2="78.0303" gradientUnits="userSpaceOnUse" id="SVGID_26_"><stop offset="0.0189" stop-color="#EAB8AE"/><stop offset="1" stop-color="#A81A68"/></linearGradient><path d="M95.69 78.99 91.7 79.16 91.75 77.77 91.78 77.16 91.83 75.78 91.87 74.59 91.92 73.12C92.18 72.98 92.43 72.85 92.67 72.77 92.7 72.76 92.73 72.74 92.76 72.74 93.24 72.55 93.67 72.46 94.03 72.43L94.36 72.41C94.39 72.41 94.43 72.41 94.46 72.41 94.72 72.42 94.94 72.45 95.11 72.5 95.14 72.51 95.18 72.52 95.21 72.52 95.43 72.58 95.53 72.65 95.53 72.65L95.57 74.26 95.61 75.67 95.65 77 95.67 77.72 95.69 78.99Z" fill="#CE9BA5"/><path d="M95.62 75.66C95.57 75.65 95.51 75.66 95.45 75.65 95.29 75.64 95.13 75.62 94.95 75.62L94.85 75.62C94.74 75.61 94.62 75.6 94.49 75.6L94.39 75.6C94.35 75.59 94.3 75.6 94.25 75.6 94.22 75.6 94.19 75.59 94.15 75.6 93.93 75.6 93.7 75.61 93.47 75.62L93.36 75.63C92.89 75.65 92.38 75.7 91.84 75.77L91.88 74.58C92.29 74.48 92.68 74.41 93.06 74.36 93.1 74.36 93.14 74.35 93.17 74.35 93.5 74.31 93.81 74.28 94.11 74.26L94.2 74.26C94.26 74.26 94.33 74.25 94.39 74.26 94.41 74.25 94.43 74.25 94.45 74.25 94.46 74.25 94.47 74.25 94.49 74.26 94.65 74.25 94.82 74.25 94.98 74.26L95.08 74.26C95.2 74.26 95.31 74.27 95.42 74.28 95.48 74.28 95.54 74.27 95.59 74.28L95.62 75.66Z" fill="#A8006D" opacity="0.2"/><path d="M95.66 77.71C95.61 77.7 95.55 77.71 95.5 77.7 95.23 77.68 94.9 77.67 94.51 77.67 94.47 77.67 94.44 77.66 94.41 77.67 94.4 77.67 94.4 77.67 94.39 77.67 94.25 77.68 94.09 77.67 93.94 77.68 93.9 77.67 93.87 77.67 93.83 77.68 93.24 77.69 92.54 77.72 91.75 77.77L91.78 77.16C92.46 77.07 93.1 77.04 93.68 77.01L93.78 77.01C93.92 77 94.06 77 94.19 77L94.4 76.99C94.44 77 94.46 77 94.49 77 94.58 77 94.65 76.99 94.72 77L94.82 77C95.05 77.01 95.27 77.01 95.46 77.01 95.51 77.02 95.58 77.02 95.63 77.02L95.66 77.71Z" fill="#A8006D" opacity="0.2"/><path d="M95.53 78.99 94.37 79.04 94.39 77.67 94.4 76.98 94.4 76.98 94.42 75.61 94.44 74.23 94.46 72.4 95.36 72.62 95.4 74.25 95.44 75.65 95.47 76.98 95.5 77.7Z" fill="url(#SVGID_26_)" opacity="0.5"/></g><g><linearGradient x1="98.6988" y1="71.29" x2="101.084" y2="77.7974" gradientUnits="userSpaceOnUse" id="SVGID_27_"><stop offset="0.0189" stop-color="#EAB8AE"/><stop offset="1" stop-color="#A81A68"/></linearGradient><path d="M101.11 78.76 97.07 78.93 97.12 77.53 97.15 76.91 97.2 75.52 97.24 74.32 97.3 72.84C97.57 72.7 97.82 72.57 98.05 72.48 98.09 72.47 98.12 72.45 98.15 72.45 98.64 72.26 99.07 72.17 99.44 72.14L99.77 72.12C99.8 72.12 99.84 72.12 99.87 72.12 100.13 72.13 100.35 72.16 100.52 72.21 100.55 72.22 100.59 72.23 100.62 72.23 100.84 72.29 100.95 72.36 100.95 72.36L101 74 101.03 75.42 101.06 76.76 101.07 77.48 101.11 78.76Z" fill="#CE9BA5"/><path d="M101.03 75.41C100.97 75.4 100.92 75.41 100.86 75.4 100.71 75.39 100.54 75.37 100.35 75.37L100.25 75.37C100.13 75.36 100.01 75.35 99.89 75.35L99.79 75.35C99.74 75.34 99.7 75.35 99.65 75.35 99.61 75.35 99.58 75.34 99.55 75.35 99.33 75.35 99.1 75.36 98.85 75.37L98.75 75.37C98.28 75.39 97.76 75.44 97.21 75.52L97.25 74.32C97.66 74.22 98.06 74.15 98.44 74.09 98.48 74.09 98.51 74.08 98.54 74.08 98.87 74.04 99.2 74.01 99.5 73.99L99.6 73.99C99.66 73.99 99.73 73.98 99.79 73.99 99.81 73.98 99.83 73.98 99.85 73.98 99.87 73.98 99.87 73.98 99.9 73.99 100.07 73.98 100.23 73.98 100.39 73.99L100.49 73.99C100.61 73.99 100.72 74 100.83 74.01 100.89 74.01 100.95 74 101 74.01L101.03 75.41Z" fill="#A8006D" opacity="0.2"/><path d="M101.08 77.48C101.02 77.47 100.97 77.48 100.91 77.47 100.63 77.45 100.3 77.44 99.91 77.44 99.87 77.44 99.84 77.43 99.81 77.44L99.79 77.44C99.65 77.45 99.5 77.44 99.35 77.45 99.31 77.44 99.28 77.44 99.24 77.45 98.63 77.46 97.93 77.49 97.13 77.54L97.16 76.92C97.84 76.83 98.5 76.8 99.08 76.77L99.18 76.77C99.32 76.76 99.46 76.76 99.6 76.76L99.81 76.75C99.85 76.76 99.88 76.76 99.91 76.75 100 76.75 100.07 76.74 100.15 76.75L100.25 76.75C100.49 76.76 100.71 76.76 100.9 76.76 100.96 76.77 101.02 76.77 101.07 76.77L101.08 77.48Z" fill="#A8006D" opacity="0.2"/><path d="M100.94 78.77 99.76 78.82 99.78 77.43 99.8 76.74 99.82 75.36 99.84 73.98 99.88 72.13 100.79 72.35 100.82 73.99 100.86 75.4 100.89 76.74 100.91 77.47Z" fill="url(#SVGID_27_)" opacity="0.5"/></g><g><linearGradient x1="113.178" y1="71.8891" x2="117.067" y2="72.9136" gradientUnits="userSpaceOnUse" id="SVGID_28_"><stop offset="0.0189" stop-color="#EAB8AE"/><stop offset="1" stop-color="#A81A68"/></linearGradient><linearGradient x1="114.389" y1="78.8568" x2="109.762" y2="67.0156" gradientUnits="userSpaceOnUse" id="SVGID_29_"><stop offset="0.2301"/><stop offset="1" stop-color="#FFD055"/></linearGradient><path d="M116.06 78.15 110.66 78.38C110.79 78.14 110.72 67.31 111.06 67.17 111.39 67.04 112.89 66.53 113.17 65.07 113.37 64 113.49 61.62 113.54 60.41 113.56 59.96 113.57 59.67 113.57 59.67L114.27 59.62 114.26 59.73 114.76 59.68C114.76 59.68 114.75 59.9 114.73 60.25 114.68 61.4 114.57 63.97 114.7 65.06 114.85 66.49 116.32 66.79 116.65 66.88 116.96 66.96 115.94 77.92 116.06 78.15Z" fill="#2C775C"/><path d="M114.46 77.79C114.49 77.7 114.7 67.49 114.7 67.49L116.59 67.23 115.82 77.94 114.46 77.79Z" fill="url(#SVGID_28_)" opacity="0.5"/><path d="M111.19 67.52C111.36 68.74 112.37 67.51 112.37 67.51L111.19 67.52Z" fill="#FFFFFF"/><path d="M115.06 58.96 114.9 60.22 114.72 60.24 113.53 60.4 113.35 60.42 113.34 59.2Z" fill="#2C775C"/><path d="M112.47 67.62C112.47 67.62 111.79 77.73 111.36 77.39 110.92 77.05 111.14 67.39 111.14 67.39L112.47 67.62Z" fill="url(#SVGID_29_)" opacity="0.5"/></g><g><linearGradient x1="82.0793" y1="73.3545" x2="85.9023" y2="74.3619" gradientUnits="userSpaceOnUse" id="SVGID_30_"><stop offset="0.0189" stop-color="#EAB8AE"/><stop offset="1" stop-color="#A81A68"/></linearGradient><linearGradient x1="83.4191" y1="80.0948" x2="78.9487" y2="68.6534" gradientUnits="userSpaceOnUse" id="SVGID_31_"><stop offset="0.2301"/><stop offset="1" stop-color="#FFD055"/></linearGradient><path d="M84.93 79.38 79.92 79.59C80.05 79.36 79.86 68.94 80.17 68.81 80.47 68.67 81.85 68.19 82.09 66.78 82.27 65.75 82.35 63.48 82.38 62.31 82.4 61.87 82.4 61.59 82.4 61.59L83.05 61.55 83.05 61.64 83.52 61.59C83.52 61.59 83.51 61.8 83.5 62.15 83.46 63.26 83.4 65.72 83.52 66.78 83.67 68.16 85.05 68.44 85.35 68.53 85.64 68.62 84.82 79.17 84.93 79.38Z" fill="#2C775C"/><path d="M83.45 79.04C83.48 78.95 83.55 69.13 83.55 69.13L85.3 68.89 84.72 79.19 83.45 79.04Z" fill="url(#SVGID_30_)" opacity="0.5"/><path d="M80.3 69.15C80.47 70.33 81.39 69.14 81.39 69.14L80.3 69.15Z" fill="#FFFFFF"/><path d="M83.79 60.92 83.64 62.14 83.49 62.16 82.38 62.31 82.22 62.33 82.2 61.15Z" fill="#2C775C"/><path d="M81.49 69.25C81.49 69.25 80.98 78.98 80.57 78.64 80.16 78.31 80.25 69.02 80.25 69.02L81.49 69.25Z" fill="url(#SVGID_31_)" opacity="0.5"/></g></g><path d="M7.92 98.43 8.83 95.65 47.08 94.73 48.01 97.74Z" fill="url(#SVGID_32_)"/><path d="M63.92 30.65 62.97 30.66 62.96 30.67 62.21 30.67 61.77 30.68 60.59 30.69 60.57 25.53 60.37 25.55 26.34 29.76 26.32 31.11 25.31 31.11 25.3 31.11 23.06 31.14 22.99 20.38 16.67 17.35 19.82 16.6 21.17 16.28 26.53 19.63 26.5 21.25 26.44 24.47 26.4 26.55 60.37 24.49 60.48 24.48 60.57 25.51 60.49 10.61 60.5 9.52 60.49 7.48 58.66 7.84 46.15 10.33 58.68 7.35 59.88 7.07 59.92 7.06 60.39 6.95 60.49 6.92 62.82 6.42 63.22 6.51 63.36 6.55 63.38 6.55 64.18 6.74 64.35 6.79Z" fill="#A8006D" opacity="0.5"/><g><path d="M99.17 39.02C101.06 39.42 102.89 39.47 104.65 39.17 111.29 38.05 117.07 31.96 121.81 20.93L121.65 20.87C116.94 31.82 111.22 37.87 104.65 38.98 94.61 40.68 84.13 30.47 77.16 21.71 69.67 12.32 64.4 2.39 64.35 2.29L64.21 2.41C64.26 2.51 69.54 12.44 77.03 21.85 81.47 27.43 85.82 31.75 89.97 34.69 93.16 36.96 96.24 38.41 99.17 39.02Z" fill="#CE9BA5"/><path d="M114.63 32.95C114.45 33.59 114.75 34.2 115.31 34.31 115.87 34.42 116.47 34 116.66 33.35 116.84 32.71 116.54 32.1 115.98 31.99 115.42 31.88 114.82 32.31 114.63 32.95Z" fill="#FFEA92"/><path d="M107.77 38.5C107.59 39.13 107.89 39.73 108.44 39.85 108.99 39.96 109.58 39.55 109.76 38.91 109.94 38.28 109.64 37.67 109.09 37.56 108.54 37.45 107.95 37.87 107.77 38.5Z" fill="#F594FF"/><path d="M95.62 39.11C95.45 39.73 95.75 40.33 96.28 40.44 96.81 40.55 97.39 40.14 97.56 39.52 97.73 38.9 97.44 38.3 96.9 38.19 96.36 38.08 95.79 38.49 95.62 39.11Z" fill="#FFEA92"/><path d="M85.06 32.24C84.9 32.86 85.19 33.45 85.71 33.55 86.23 33.66 86.79 33.25 86.96 32.63 87.12 32.01 86.83 31.42 86.31 31.31 85.78 31.21 85.22 31.63 85.06 32.24Z" fill="#F594FF"/><path d="M76.06 22.83C75.9 23.45 76.19 24.03 76.7 24.13 77.21 24.23 77.76 23.81 77.92 23.2 78.08 22.58 77.79 22 77.28 21.9 76.77 21.79 76.22 22.21 76.06 22.83Z" fill="#FFEA92"/><path d="M70.65 15.95C70.49 16.57 70.78 17.15 71.29 17.25 71.8 17.35 72.34 16.93 72.5 16.31 72.66 15.69 72.37 15.11 71.86 15.01 71.35 14.9 70.81 15.33 70.65 15.95Z" fill="#F594FF"/></g><g><linearGradient x1="17.8872" y1="14.8366" x2="0.6266" y2="4.5867" gradientUnits="userSpaceOnUse" id="SVGID_37_"><stop offset="0.0189" stop-color="#EAB8AE"/><stop offset="1" stop-color="#A81A68"/></linearGradient><linearGradient x1="50.1358" y1="7.9637" x2="55.9586" y2="-2.9905" gradientUnits="userSpaceOnUse" id="SVGID_38_"><stop offset="0.0189" stop-color="#EAB8AE"/><stop offset="1" stop-color="#A81A68"/></linearGradient><linearGradient x1="27.2302" y1="0.6943" x2="28.9897" y2="10.3712" gradientUnits="userSpaceOnUse" id="SVGID_39_"><stop offset="0.2301"/><stop offset="1" stop-color="#FFD055"/></linearGradient><g><linearGradient x1="43.0453" y1="43.2944" x2="17.5982" y2="-15.1089" gradientUnits="userSpaceOnUse" id="SVGID_33_"><stop offset="0.2356" stop-color="#CF74ED"/><stop offset="0.3402" stop-color="#C870ED"/><stop offset="0.4916" stop-color="#B566ED"/><stop offset="0.6714" stop-color="#9556ED"/><stop offset="0.8714" stop-color="#6A40ED"/><stop offset="1" stop-color="#4A2FED"/></linearGradient><linearGradient x1="14.2871" y1="28.0093" x2="3.7298" y2="3.7795" gradientUnits="userSpaceOnUse" id="SVGID_34_"><stop offset="0" stop-color="#FFB79B"/><stop offset="0.9946" stop-color="#FFDBAC"/></linearGradient><linearGradient x1="26.8422" y1="27.3902" x2="15.7345" y2="1.8972" gradientUnits="userSpaceOnUse" id="SVGID_35_"><stop offset="0" stop-color="#FFB79B"/><stop offset="0.9946" stop-color="#FFDBAC"/></linearGradient><linearGradient x1="45.1045" y1="27.8762" x2="31.7266" y2="-2.8271" gradientUnits="userSpaceOnUse" id="SVGID_36_"><stop offset="0" stop-color="#FFB79B"/><stop offset="0.9946" stop-color="#FFDBAC"/></linearGradient><path d="M57.31 0 56.65 17.77 42.27 18.8 33.34 19.45 23.85 20.14 17.84 20.58 11.65 21.03 6.24 21.42 0.56 21.84 0 10.56 0.3 10.5C1.98 10.55 3.8 10.49 5.73 10.37 7.57 10.25 9.51 10.07 11.53 9.82 13.48 9.58 15.51 9.28 17.57 8.95 19.78 8.6 22.04 8.19 24.31 7.75 27.45 7.14 30.61 6.46 33.73 5.76 36.77 5.06 39.77 4.34 42.63 3.63 46.89 2.56 50.84 1.5 54.22 0.58L55.87 0.27 57.31 0Z" fill="url(#SVGID_33_)"/><path d="M11.66 21.03 6.25 21.42 5.73 10.38C7.57 10.26 9.51 10.07 11.53 9.83L11.66 21.03Z" fill="url(#SVGID_34_)"/><path d="M24.31 7.75 23.85 20.14 17.84 20.58 17.57 8.95C19.78 8.6 22.04 8.19 24.31 7.75Z" fill="url(#SVGID_35_)"/><path d="M42.63 3.63 42.28 18.81 33.34 19.46 33.73 5.77C36.78 5.06 39.77 4.34 42.63 3.63Z" fill="url(#SVGID_36_)"/></g><path d="M0.98 10.93C15.64 13.17 22.66 11.12 22.66 11.12 22.66 11.12 18.01 12.22 10.17 13.12 2.49 13.99 0.98 10.93 0.98 10.93Z" fill="url(#SVGID_37_)" opacity="0.5"/><path d="M56.45 0.75C51.99 3.81 49.45 4.62 49.45 4.62L53.97 1.35 56.45 0.75Z" fill="url(#SVGID_38_)" opacity="0.5"/><path d="M55.87 0.27C50.12 2.96 20.41 16.15 0.3 10.5 1.98 10.55 3.8 10.49 5.73 10.37 7.57 10.25 9.51 10.07 11.53 9.82 13.48 9.58 15.51 9.28 17.57 8.95 19.78 8.6 22.04 8.19 24.31 7.75 27.45 7.14 30.61 6.46 33.73 5.76 36.77 5.06 39.77 4.34 42.63 3.63 46.89 2.56 50.84 1.5 54.22 0.58L55.87 0.27Z" fill="url(#SVGID_39_)" opacity="0.5"/></g><path d="M11.85 93.88 14.18 88.68C14.18 88.68 15.99 93.92 15.82 93.77 15.65 93.63 11.85 93.88 11.85 93.88Z" fill="#DB83FF"/><path d="M15.05 88.7 17.18 93.84 19.28 88.41Z" fill="#FFA748"/><path d="M8.83 89.06 10.93 94.15 12.99 88.77Z" fill="#FFA748"/><path d="M18.24 93.76 20.63 88.51C20.63 88.51 22.46 93.8 22.29 93.65 22.11 93.51 18.24 93.76 18.24 93.76Z" fill="#DB83FF"/><path d="M21.51 88.54 23.66 93.72 25.82 88.24Z" fill="#FFA748"/><path d="M25.14 93.68 27.59 88.38C27.59 88.38 29.44 93.72 29.26 93.57 29.09 93.43 25.14 93.68 25.14 93.68Z" fill="#DB83FF"/><path d="M28.49 88.41 30.67 93.64 32.88 88.11Z" fill="#FFA748"/><path d="M32.1 93.55 34.61 88.2C34.61 88.2 36.48 93.59 36.3 93.44 36.11 93.29 32.1 93.55 32.1 93.55Z" fill="#DB83FF"/><path d="M35.52 88.23 37.72 93.51 40 87.92Z" fill="#FFA748"/><path d="M39.18 93.42 41.76 88.02C41.76 88.02 43.65 93.46 43.46 93.31 43.27 93.16 39.18 93.42 39.18 93.42Z" fill="#DB83FF"/><path d="M42.69 88.04 44.91 93.38 47.25 87.74Z" fill="#FFA748"/><path d="M9.5 75.64 57.89 74.65 57.92 75.79 9.27 77.29Z" fill="url(#SVGID_40_)"/><path d="M127.25 94.95 67.28 96.24 67.7 79.32 119.27 77.2 127.76 76.85Z" fill="#F77616"/><path d="M127.25 94.95 118.72 95.14 119.27 77.2 127.76 76.85Z" fill="url(#SVGID_41_)"/><path d="M127.4 83 67.7 82.48 67.71 82.32 127.41 82.83Z" fill="#A8006D" opacity="0.3"/><path d="M127.64 89.93 67.38 89.89 67.39 89.74 127.66 89.77Z" fill="#A8006D" opacity="0.3"/><path d="M106.01 89.89 106.05 82.68 106.2 82.67 106.16 89.88Z" fill="#A8006D" opacity="0.3"/><path d="M72.56 96.23 72.42 96.23 72.63 89.98 72.76 89.98Z" fill="#A8006D" opacity="0.3"/><path d="M90.95 82.47 91.07 78.36 91.21 78.36 91.09 82.47Z" fill="#A8006D" opacity="0.3"/><path d="M98.96 82.56 98.75 78.1 98.9 78.07 99.1 82.54Z" fill="#A8006D" opacity="0.3"/><path d="M67.71 82.32 106.05 82.68 106.16 89.88 67.39 89.74Z" fill="#A8006D" opacity="0.14"/><path d="M13.06 73.67 13.84 73.62 9.46 95.63C9.46 95.63 8.61 84.31 13.06 73.67Z" fill="#A8006D" opacity="0.2"/><path d="M38.57 72.18C38.4 72.33 37.73 72.92 36.95 74.17 36.04 75.63 33.79 94.94 33.79 94.94L27.64 95.32C27.64 95.32 27.86 92.58 27.91 88.7 27.96 84.91 25.21 73.59 25.06 72.98L25.65 72.95C28.09 89.24 30.1 92.44 30.44 92.64 30.82 92.86 31.98 92.25 31.98 92.25L33.61 72.48 38.57 72.18Z" fill="#A8006D" opacity="0.2"/><path d="M42.73 71.94 42.46 81.54 41.74 71.99Z" fill="#A8006D" opacity="0.2"/></g><g><linearGradient x1="146.859" y1="94.8627" x2="139.179" y2="62.6698" gradientUnits="userSpaceOnUse" id="SVGID_42_"><stop offset="0" stop-color="#4A4486"/><stop offset="1" stop-color="#FFFFFF"/></linearGradient><linearGradient x1="164.644" y1="109.882" x2="145.819" y2="65.4657" gradientUnits="userSpaceOnUse" id="SVGID_43_"><stop offset="0" stop-color="#906C0B"/><stop offset="1" stop-color="#B5CB10"/></linearGradient><linearGradient x1="132.652" y1="119.438" x2="123.708" y2="80.19" gradientUnits="userSpaceOnUse" id="SVGID_44_"><stop offset="0" stop-color="#906C0B"/><stop offset="1" stop-color="#B5CB10"/></linearGradient><linearGradient x1="144.52" y1="63.1158" x2="164.898" y2="110.154" gradientUnits="userSpaceOnUse" id="SVGID_45_"><stop offset="0" stop-color="#FFFFFF"/><stop offset="1" stop-color="#552A9E"/></linearGradient><linearGradient x1="139.675" y1="119.59" x2="129.852" y2="76.4846" gradientUnits="userSpaceOnUse" id="SVGID_46_"><stop offset="0" stop-color="#906C0B"/><stop offset="1" stop-color="#B5CB10"/></linearGradient><linearGradient x1="154.606" y1="113.829" x2="136.169" y2="70.3269" gradientUnits="userSpaceOnUse" id="SVGID_47_"><stop offset="0" stop-color="#906C0B"/><stop offset="1" stop-color="#B5CB10"/></linearGradient><linearGradient x1="158.822" y1="92.3832" x2="150.209" y2="71.9578" gradientUnits="userSpaceOnUse" id="SVGID_48_"><stop offset="0" stop-color="#906C0B"/><stop offset="1" stop-color="#B5CB10"/></linearGradient><linearGradient x1="174.35" y1="105.658" x2="155.409" y2="60.9668" gradientUnits="userSpaceOnUse" id="SVGID_49_"><stop offset="0" stop-color="#906C0B"/><stop offset="1" stop-color="#B5CB10"/></linearGradient><linearGradient x1="180.454" y1="104.427" x2="160.947" y2="58.4003" gradientUnits="userSpaceOnUse" id="SVGID_50_"><stop offset="0" stop-color="#906C0B"/><stop offset="1" stop-color="#B5CB10"/></linearGradient><linearGradient x1="136.965" y1="120.41" x2="127.388" y2="78.3845" gradientUnits="userSpaceOnUse" id="SVGID_51_"><stop offset="0" stop-color="#906C0B"/><stop offset="1" stop-color="#B5CB10"/></linearGradient><linearGradient x1="121.205" y1="82.5225" x2="142.121" y2="100.34" gradientUnits="userSpaceOnUse" id="SVGID_52_"><stop offset="0" stop-color="#FFFFFF"/><stop offset="1" stop-color="#552A9E"/></linearGradient><linearGradient x1="128.553" y1="81.452" x2="148.77" y2="107.686" gradientUnits="userSpaceOnUse" id="SVGID_53_"><stop offset="0" stop-color="#FFFFFF"/><stop offset="1" stop-color="#552A9E"/></linearGradient><linearGradient x1="161.548" y1="74.4857" x2="177.5" y2="105.059" gradientUnits="userSpaceOnUse" id="SVGID_54_"><stop offset="0" stop-color="#FFFFFF"/><stop offset="1" stop-color="#552A9E"/></linearGradient><linearGradient x1="142.817" y1="103.185" x2="119.86" y2="76.8523" gradientUnits="userSpaceOnUse" id="SVGID_55_"><stop offset="0" stop-color="#906C0B"/><stop offset="1" stop-color="#B5CB10"/></linearGradient><linearGradient x1="167.741" y1="108.735" x2="148.824" y2="64.1012" gradientUnits="userSpaceOnUse" id="SVGID_56_"><stop offset="0" stop-color="#906C0B"/><stop offset="1" stop-color="#B5CB10"/></linearGradient><linearGradient x1="174.232" y1="102.186" x2="164.706" y2="79.5987" gradientUnits="userSpaceOnUse" id="SVGID_57_"><stop offset="0" stop-color="#906C0B"/><stop offset="1" stop-color="#B5CB10"/></linearGradient><linearGradient x1="141.396" y1="107.968" x2="135.966" y2="91.5363" gradientUnits="userSpaceOnUse" id="SVGID_58_"><stop offset="0" stop-color="#906C0B"/><stop offset="1" stop-color="#B5CB10"/></linearGradient><linearGradient x1="139.189" y1="111.365" x2="133.132" y2="93.0371" gradientUnits="userSpaceOnUse" id="SVGID_59_"><stop offset="0" stop-color="#906C0B"/><stop offset="1" stop-color="#B5CB10"/></linearGradient><linearGradient x1="146.447" y1="106.789" x2="140.799" y2="89.698" gradientUnits="userSpaceOnUse" id="SVGID_60_"><stop offset="0" stop-color="#906C0B"/><stop offset="1" stop-color="#B5CB10"/></linearGradient><path d="M109.31 99.2C120.46 101.43 142.42 98.92 142.42 98.92L152.07 99.63 165.83 99.12 186.25 98.2 177.19 96.46 148.72 96.99 130.37 96.57 109.31 99.2Z" fill="url(#SVGID_42_)" fill-rule="evenodd" clip-rule="evenodd" opacity="0.6"/><path d="M163.18 86.97C162.92 89.98 161.28 93.17 158.29 95.64 157.85 96 157.39 96.35 156.9 96.67 155.85 97.37 154.67 97.97 153.38 98.46 152.91 98.64 152.45 98.75 152 98.81 150.78 98.97 149.62 98.73 148.57 98.21 145.28 96.58 142.97 92.16 143.1 88.26 143.24 84 144.57 80.22 146.53 75.86 147.02 74.76 147.56 73.63 148.13 72.44 148.24 72.2 148.36 71.95 148.48 71.71 149.18 70.25 150.19 68.97 151.33 67.93 154.27 65.23 158.09 64.06 159.22 65.51 159.86 66.33 160.67 69.13 161.39 72.52 162.5 77.73 163.41 84.31 163.18 86.97Z" fill="url(#SVGID_43_)" fill-rule="evenodd" clip-rule="evenodd"/><path d="M131.98 98.48C131.79 98.85 131.26 99.12 130.53 99.31 129.79 99.5 128.85 99.61 127.85 99.66 127.54 99.68 127.23 99.69 126.91 99.69 124.02 99.74 121.06 99.33 121.05 98.92 121.04 98.36 121.9 91.07 122.28 87.8 122.4 86.85 122.47 86.24 122.47 86.24 123.84 82.56 126.1 81.35 128.05 81.48 128.24 81.5 128.42 81.52 128.61 81.55 128.83 81.6 129.04 81.66 129.24 81.73 129.7 81.9 130.11 82.14 130.46 82.44 131.03 82.93 131.44 83.55 131.57 84.24 131.58 84.26 131.58 84.28 131.58 84.3 131.74 85.18 131.91 86.51 132.06 88 132.07 88.12 132.08 88.23 132.09 88.36 132.23 89.78 132.34 91.34 132.39 92.81 132.39 92.9 132.4 92.99 132.4 93.08 132.49 95.52 132.4 97.65 131.98 98.48Z" fill="url(#SVGID_44_)" fill-rule="evenodd" clip-rule="evenodd"/><path d="M160.99 73.62C160.01 76.95 157.42 86.04 157.26 89.96 157.16 92.23 157.69 94.19 158.29 95.64 158.97 97.31 159.74 98.32 159.74 98.32 159.74 98.32 159.73 98.32 159.72 98.33 159.72 98.33 159.72 98.33 159.72 98.33 158.89 98.23 158.37 98.15 158.37 98.15 157.58 97.87 157.14 97.35 156.9 96.67 155.85 97.37 154.67 97.97 153.38 98.46 152.91 98.64 152.45 98.75 152 98.81 151.96 98.83 151.92 98.85 151.87 98.87 151.29 99.07 149.49 99.18 147.34 99.16 147.66 98.93 148.1 98.6 148.57 98.22 149.71 97.3 151.06 96.05 151.4 95.07 152.02 93.29 152.57 85.05 147.65 76.82 147.6 76.74 147.55 76.66 147.5 76.58 147.52 76.61 147.65 76.78 147.86 77.04 147.86 77.05 147.87 77.05 147.87 77.05 148.18 77.44 148.67 78.04 149.25 78.69 149.25 78.69 149.25 78.7 149.26 78.7 150.92 80.58 153.39 83.02 154.64 82.57 156.7 81.82 161.24 72.66 161.37 72.4 161.33 72.47 161.2 72.92 160.99 73.62Z" fill="url(#SVGID_45_)" fill-rule="evenodd" clip-rule="evenodd" opacity="0.9"/><path d="M132.89 79.26C132.87 79.74 132.78 80.26 132.67 80.8 132.41 81.97 131.98 83.23 131.57 84.26 131.03 85.59 130.52 86.55 130.43 86.49 130.39 86.46 130.24 86.29 130.05 85.99 129.58 85.26 128.83 83.8 128.64 81.89 128.63 81.78 128.62 81.67 128.61 81.56 128.57 81 128.59 80.4 128.67 79.77L128.67 79.77C128.7 79.51 128.75 79.25 128.8 78.98 129.46 75.84 133.04 76.43 132.89 79.26Z" fill="url(#SVGID_46_)" fill-rule="evenodd" clip-rule="evenodd"/><path d="M151.99 98.82C151.95 98.84 151.9 98.86 151.86 98.88 151.27 99.08 149.47 99.19 147.33 99.17L147.33 99.17C146.48 99.16 145.59 99.12 144.69 99.06 142.89 98.94 141.08 98.71 139.68 98.34 138.6 98.06 137.75 97.69 137.3 97.22 137.19 97.1 137.1 96.97 137.04 96.84 136.57 95.8 136.29 94.56 136.13 93.48 136.11 93.32 136.09 93.16 136.07 93.01 135.91 91.77 135.9 90.82 135.9 90.82 136.05 90.32 136.2 89.82 136.35 89.32 136.4 89.15 136.45 88.99 136.5 88.82 136.59 88.53 136.68 88.23 136.77 87.94 137.16 86.68 137.55 85.4 137.97 84.18 139.02 81.13 140.22 78.34 141.78 76.59 142.16 76.16 142.56 75.79 142.99 75.49 144.08 74.74 145.31 75 146.53 75.88 146.9 76.15 147.27 76.46 147.64 76.83 147.71 76.9 147.78 76.97 147.85 77.05 147.86 77.06 147.86 77.06 147.87 77.06 148.34 77.55 148.8 78.11 149.24 78.7 149.24 78.7 149.25 78.71 149.25 78.71 151.02 81.1 152.54 84.16 153.25 86.29 154.79 90.9 153.72 97.92 151.99 98.82Z" fill="url(#SVGID_47_)" fill-rule="evenodd" clip-rule="evenodd"/><path d="M148.25 67.04C146.98 69.04 148.48 73.84 148.76 75.19 149.04 76.55 151.11 75.73 151.68 72.31 152.27 68.86 150.38 63.67 148.25 67.04Z" fill="url(#SVGID_48_)" fill-rule="evenodd" clip-rule="evenodd"/><path d="M172.24 97.39C171.16 99.22 164.53 98.83 160.9 98.46 160.9 98.46 160.9 98.46 160.9 98.46 160.46 98.42 160.05 98.37 159.71 98.33 159.71 98.33 159.71 98.33 159.71 98.33 158.88 98.23 158.36 98.15 158.36 98.15 157.57 97.87 157.13 97.35 156.89 96.67 156.34 95.13 156.8 92.74 156.69 90.48 156.58 88.3 158.85 79.65 160.99 73.61 161.12 73.23 161.26 72.86 161.39 72.51 162.29 70.07 163.15 68.21 163.74 67.69 165.11 66.48 169.04 68.25 172.13 71.28L172.13 71.28C173.84 72.95 175.27 75 175.8 77.08 177.36 83.16 173.81 94.75 172.24 97.39Z" fill="url(#SVGID_49_)" fill-rule="evenodd" clip-rule="evenodd"/><path d="M164.13 61.36C163.17 62.65 162.53 65.59 162.49 66.63 162.45 67.67 163.92 65.77 164.58 64.3 165.24 62.82 164.13 61.36 164.13 61.36Z" fill="url(#SVGID_50_)" fill-rule="evenodd" clip-rule="evenodd"/><path d="M127.59 80.98C127.24 80.08 127.07 78.85 127.07 78.33 127.07 77.81 127.38 77.01 127.51 76.9 127.63 76.81 127.59 80.98 127.59 80.98Z" fill="url(#SVGID_51_)" fill-rule="evenodd" clip-rule="evenodd"/><path d="M132.59 99.82C131.69 99.92 130.92 99.79 130.53 99.31 129.79 99.5 128.85 99.61 127.85 99.66 128.44 99.09 128.95 98.48 129.22 97.85 129.64 96.91 130.06 94.22 130.19 91.26 130.27 89.49 130.25 87.62 130.04 85.99 129.81 84.16 129.37 82.65 128.63 81.89 128.45 81.71 128.26 81.57 128.05 81.49 128.24 81.51 128.42 81.53 128.61 81.56 128.57 81 128.58 80.4 128.67 79.77 128.8 80.68 129 81.32 129.24 81.74 129.58 82.34 130.02 82.51 130.46 82.45 131.4 82.33 132.39 81.16 132.67 80.79 132.42 81.96 131.98 83.22 131.57 84.25 131.58 84.27 131.58 84.29 131.58 84.31 131.74 85.19 131.91 86.52 132.06 88.01 132.07 88.13 132.08 88.24 132.09 88.37 132.29 88.03 132.49 87.73 132.69 87.45 132.67 89.06 132.66 90.8 132.64 92.47 132.64 92.58 132.64 92.69 132.64 92.8 132.61 95.72 132.59 98.39 132.59 99.82Z" fill="url(#SVGID_52_)" fill-rule="evenodd" clip-rule="evenodd" opacity="0.9"/><path d="M139.68 98.34C138.6 98.06 137.75 97.69 137.3 97.22 136.98 97.93 136.01 98.65 134.89 99.16 135.22 97.84 135.65 95.87 135.96 93.7 135.99 93.47 136.02 93.24 136.06 93.01 136.22 91.8 136.32 90.54 136.34 89.33 136.34 89.27 136.34 89.2 136.34 89.14L136.34 89.13C136.36 87.69 136.25 86.31 135.96 85.13 136.24 85.26 136.52 86.4 136.76 87.94 137.15 86.68 137.54 85.4 137.96 84.18 136.45 91.94 139.47 97.95 139.68 98.34Z" fill="url(#SVGID_53_)" fill-rule="evenodd" clip-rule="evenodd" opacity="0.9"/><path d="M172.24 97.39C171.16 99.22 164.53 98.83 160.9 98.46 162.82 97.53 165.99 95.84 167.65 94.07 170.25 91.3 175.21 76.1 172.05 71.29L172.12 71.29 172.12 71.29C173.83 72.96 175.26 75.01 175.79 77.09 177.36 83.16 173.81 94.75 172.24 97.39Z" fill="url(#SVGID_54_)" fill-rule="evenodd" clip-rule="evenodd" opacity="0.9"/><path d="M137.4 96.83C137.39 96.96 137.36 97.09 137.3 97.22 136.98 97.93 136.01 98.65 134.89 99.16 134.14 99.49 133.32 99.74 132.59 99.82 131.69 99.92 130.92 99.79 130.53 99.31 130.37 99.11 130.28 98.85 130.26 98.53 130.15 95.71 130.19 92.42 130.19 92.42 130.83 90.74 131.48 89.42 132.1 88.38 132.3 88.04 132.5 87.74 132.7 87.46 134.18 85.35 135.44 84.88 135.98 85.12 136.26 85.25 136.54 86.39 136.78 87.93 137.22 90.93 137.52 95.4 137.4 96.83Z" fill="url(#SVGID_55_)" fill-rule="evenodd" clip-rule="evenodd"/><path d="M158.08 80.93C158.08 80.93 157.18 86.42 156.52 86.63 155.86 86.85 155.49 83.82 155.95 82.53 156.4 81.24 158.08 80.93 158.08 80.93Z" fill="url(#SVGID_56_)" fill-rule="evenodd" clip-rule="evenodd"/><path d="M168.48 97.6C168.48 97.6 168.05 94.11 169.22 92.85 170.39 91.58 173.35 90.47 173.44 91.26 173.53 92.05 172.87 96.59 171.22 97.26 169.56 97.93 168.48 97.6 168.48 97.6Z" fill="url(#SVGID_57_)" fill-rule="evenodd" clip-rule="evenodd"/><path d="M136.48 88.7C136.8 91.06 136.77 93.2 135.64 94.02 134.5 94.82 136.48 88.7 136.48 88.7Z" fill="url(#SVGID_58_)" fill-rule="evenodd" clip-rule="evenodd"/><path d="M134.05 90.48C133.27 92.43 131.65 93.89 131.65 93.89L134.05 90.48Z" fill="url(#SVGID_59_)" fill-rule="evenodd" clip-rule="evenodd"/><path d="M140.67 82.29C138.48 85.69 138.38 88.86 138.31 89.15 138.24 89.44 140.76 84.17 140.76 84.17L140.67 82.29Z" fill="url(#SVGID_60_)" fill-rule="evenodd" clip-rule="evenodd"/></g></g></svg>