<svg width="1077.34" height="273.83" viewBox="0 0 1077.34 273.83" xmlns="http://www.w3.org/2000/svg" xmlns:xlink="http://www.w3.org/1999/xlink" xml:space="preserve" overflow="hidden"><defs></defs><g><path d="M609.3 145.25C671.48 147.19 784.19 125.82 840.54 92.79L834.71 153.03C769.84 186.06 663.4 195.78 591.81 193.84L609.3 145.25Z" stroke="#2D2F30" stroke-width="6.3117" stroke-linecap="round" stroke-linejoin="round" fill="#5F6466"/><path d="M807.51 104.44C800.43 114.67 811.39 158.85 817.22 164.68 823.05 170.51 908.56 166.62 968.79 145.25 1029.03 123.87 1069.83 77.24 1073.72 63.64 1077.61 50.04 1056.23 18.95 1038.74 18.95 1021.25 18.94 824.99 79.18 807.51 104.44Z" stroke="#7A3D27" stroke-width="6.3117" stroke-linecap="round" stroke-linejoin="round" fill="#CE875F"/><path d="M824.99 101.6C813.99 107.42 828.87 122.97 842.48 122.97 867.19 122.97 1015.98 80.22 1036.8 51.08 1046.51 37.48 1046.51 27.76 1023.19 29.7 999.88 31.65 858.02 84.11 824.99 101.6Z" fill="#E2B07A"/><path d="M569.29 235.77C473.34 286.19 85.03 287.33 33.94 203.59 14.75 172.15 6.24 115.7 6.24 115.7 85.82 169.37 191.38 156.11 328.98 161.53 466.59 166.95 601.31 152.3 626.25 120 626.73 152 591.8 223.94 569.29 235.77Z" stroke="#2D2F30" stroke-width="6.3117" stroke-linecap="round" stroke-linejoin="round" fill="#5F6466"/><path d="M39.67 141.63C25.49 138.39 49.18 215.01 138.4 240.67 227.63 266.33 377.6 260.58 441.57 234.98 505.54 209.38 518.74 159.27 518.74 159.27 518.74 159.27 241.77 187.8 39.67 141.63Z" fill="#818384"/><path d="M4.39 112.17C0.38 40.74 627.88 40.7 626.26 115.32 624.81 182.37 8.76 190.24 4.39 112.17Z" stroke="#4F5156" stroke-width="6.3117" stroke-linecap="round" stroke-linejoin="round" fill="#B0B1B3"/><path d="M38.5 110.55C37.94 55.3 594.85 54.89 590.29 112.62 586.18 164.5 39.11 170.94 38.5 110.55Z" stroke="#303233" stroke-width="6.3117" stroke-linecap="round" stroke-linejoin="round" stroke-miterlimit="10" fill="#717475"/><path d="M383.92 94.86C387.92 75.31 543.88 84.65 530.42 121.12 523.62 139.51 375.33 136.93 383.92 94.86Z" fill="#818384"/><path d="M306.75 24.86C-37.54 24.86-159.54 177.31 320.32 177.31 800.16 177.31 664.6 24.86 306.75 24.86Z" stroke="#3E627C" stroke-width="6.3117" stroke-linecap="round" stroke-linejoin="round" fill="#8FB2D1"/><path d="M306.89 28.66C18.76 28.66-135.59 157.53 319.77 157.53 775.1 157.53 609 28.66 306.89 28.66Z" fill="#B3E3F9"/><path d="M137.85 52.86C355.97 13.12 501.13 85.22 314.8 127.24 128.45 169.25-98.38 95.9 137.85 52.86Z" fill="#D9FCFF"/><path d="M191 60.34C191 60.34 76.58 83.85 77.97 101.76 79.36 119.67 117.03 135.34 139.37 131.98 161.7 128.62 228.67 74.9 228.67 74.9L191 60.34Z" fill="#FFFFFF"/><path d="M289.94 39.35C289.94 39.35 288.97 13.12 295.77 7.29 302.57 1.46 331.72 2.43 337.55 6.32 343.38 10.2 343.38 41.3 343.38 41.3" stroke="#3E627C" stroke-width="6.3117" stroke-linecap="round" stroke-linejoin="round" fill="#B3E3F9"/><path d="M297.21 43.23C297.21 43.23 296.79 17 299.73 11.17 302.68 5.34 315.27 6.32 317.8 10.2 320.32 14.08 320.32 45.18 320.32 45.18" fill="#D9FCFF"/></g></svg>