<svg width="58.99" height="321.32" viewBox="0 0 58.99 321.32" xmlns="http://www.w3.org/2000/svg" xmlns:xlink="http://www.w3.org/1999/xlink" xml:space="preserve" overflow="hidden"><defs></defs><g><path d="M0 13.31 47.41 13.31 47.41 270.95C57.72 255.31 58.98 239.57 58.98 239.57L58.98 4.53 0 4.53 0 13.31Z" fill="#FFFACF"/><path d="M45.35 273.91 45.35 41.58C45.35 41.58 33.45 26.68 0 22.37L0 300.44C22.7 296.68 36.72 285.61 45.35 273.91ZM35.14 166.85C35.04 167.34 34.91 167.83 34.75 168.33 34.68 168.67 34.48 168.97 34.15 169.1 33.3 169.44 13.57 169.1 13.57 169.1L13.57 166.94C13.57 166.94 23.36 166.73 29.52 166.76 28.25 166.1 27.27 165.02 26.76 163.73 20.77 163.68 13.57 163.45 13.57 163.45L13.57 159.21C13.57 159.21 13.63 159.21 13.72 159.2 14.75 159.16 21.61 158.9 27.21 158.86 28.17 157.3 29.87 156.21 31.86 156.04 32.05 156.02 32.24 156.01 32.43 156.01 32.62 156.01 32.82 156.02 33 156.04 36.07 156.31 38.48 158.76 38.48 161.75 38.47 163.97 37.11 165.91 35.14 166.85Z" fill="#FFFACF"/><path d="M45.35 41.58 45.35 273.91C46.08 272.93 46.76 271.94 47.42 270.95L47.42 13.31 0 13.31 0 16.16 45.35 16.16 45.35 41.58Z" fill="#BF8356"/><path d="M31.85 156.03C29.86 156.21 28.16 157.3 27.2 158.85 27.28 158.85 27.37 158.85 27.45 158.85 28.31 157.31 29.94 156.21 31.85 156.03Z" fill="#B57C48"/><path d="M33 156.03C35.83 156.3 38.04 158.57 38.04 161.32 38.04 163.26 36.94 164.95 35.31 165.88 35.27 166.2 35.21 166.52 35.14 166.85 37.12 165.91 38.48 163.97 38.48 161.73 38.47 158.75 36.07 156.3 33 156.03Z" fill="#B57C48"/><path d="M30.62 166.35C29.23 165.9 28.09 164.95 27.43 163.73 27.21 163.73 26.99 163.73 26.76 163.73 27.27 165.03 28.25 166.11 29.52 166.76 29.87 166.76 30.21 166.76 30.54 166.77 30.54 166.77 30.57 166.62 30.62 166.35Z" fill="#B57C48"/><path d="M30.74 163.72C29.74 163.73 28.62 163.73 27.42 163.73 28.08 164.96 29.22 165.91 30.61 166.35 30.7 165.85 30.81 164.91 30.74 163.72Z" fill="#CE9761"/><path d="M27.45 158.85C29.44 158.84 31.25 158.85 32.56 158.91 31.88 158.29 31.36 157.5 31.12 156.6 31.54 156.5 31.97 156.42 32.43 156.42 34.84 156.42 36.84 157.99 37.42 160.1 37 160.2 36.57 160.28 36.11 160.28 35.78 160.28 35.45 160.24 35.14 160.19 35.24 160.59 35.29 161.05 35.28 161.5 35.45 162.64 35.55 164.18 35.32 165.88 36.95 164.95 38.05 163.26 38.05 161.32 38.05 158.56 35.84 156.3 33.01 156.03 32.82 156.01 32.63 156 32.44 156 32.25 156 32.05 156.01 31.87 156.03 29.94 156.21 28.31 157.31 27.45 158.85Z" fill="#CE9761"/><path d="M37.41 160.1C36.83 157.99 34.83 156.42 32.42 156.42 31.97 156.42 31.53 156.49 31.11 156.6 31.35 157.5 31.87 158.29 32.55 158.91 33.7 158.96 34.48 159.06 34.63 159.2 34.86 159.41 35.02 159.77 35.12 160.18 35.44 160.24 35.76 160.27 36.09 160.27 36.56 160.28 36.99 160.2 37.41 160.1Z" fill="#DBA065"/><path d="M29.52 166.76C23.35 166.73 13.57 166.94 13.57 166.94L13.57 169.1C13.57 169.1 33.3 169.44 34.15 169.1 34.48 168.97 34.68 168.67 34.75 168.33 34.92 167.83 35.04 167.34 35.14 166.85 34.32 167.24 33.4 167.46 32.43 167.46 31.37 167.47 30.38 167.21 29.52 166.76Z" fill="#FFFACF"/><path d="M29.52 166.76C23.35 166.73 13.57 166.94 13.57 166.94L13.57 169.1C13.57 169.1 33.3 169.44 34.15 169.1 34.48 168.97 34.68 168.67 34.75 168.33 34.92 167.83 35.04 167.34 35.14 166.85 34.32 167.24 33.4 167.46 32.43 167.46 31.37 167.47 30.38 167.21 29.52 166.76Z" fill="#A56434" opacity="0.4"/><path d="M32.42 166.64C31.79 166.64 31.18 166.54 30.61 166.35 30.57 166.61 30.53 166.76 30.53 166.76 30.2 166.76 29.86 166.75 29.51 166.75 30.37 167.2 31.36 167.46 32.42 167.46 33.4 167.46 34.32 167.24 35.13 166.85 35.2 166.52 35.26 166.2 35.3 165.88 34.46 166.36 33.48 166.64 32.42 166.64Z" fill="#B57C48"/><path d="M32.42 166.64C31.79 166.64 31.18 166.54 30.61 166.35 30.57 166.61 30.53 166.76 30.53 166.76 30.2 166.76 29.86 166.75 29.51 166.75 30.37 167.2 31.36 167.46 32.42 167.46 33.4 167.46 34.32 167.24 35.13 166.85 35.2 166.52 35.26 166.2 35.3 165.88 34.46 166.36 33.48 166.64 32.42 166.64Z" fill="#A56434" opacity="0.4"/><path d="M35.27 161.5C35.26 162.13 35.13 162.74 34.9 163.13 34.83 163.26 34.74 163.37 34.64 163.44 34.42 163.61 32.89 163.69 30.74 163.72 30.81 164.91 30.7 165.85 30.61 166.35 31.18 166.53 31.78 166.64 32.42 166.64 33.48 166.64 34.46 166.36 35.3 165.88 35.54 164.18 35.43 162.64 35.27 161.5Z" fill="#CE9761"/><path d="M35.27 161.5C35.26 162.13 35.13 162.74 34.9 163.13 34.83 163.26 34.74 163.37 34.64 163.44 34.42 163.61 32.89 163.69 30.74 163.72 30.81 164.91 30.7 165.85 30.61 166.35 31.18 166.53 31.78 166.64 32.42 166.64 33.48 166.64 34.46 166.36 35.3 165.88 35.54 164.18 35.43 162.64 35.27 161.5Z" fill="#A56434" opacity="0.4"/><path d="M13.92 162.81C13.92 162.81 34.14 163.47 34.99 162.81 35.02 162.78 35.05 162.73 35.08 162.7 35.03 162.86 34.97 163.01 34.89 163.13 35.13 162.73 35.25 162.13 35.26 161.5 35.27 161.05 35.23 160.59 35.12 160.19 35.01 159.77 34.85 159.42 34.63 159.21 34.48 159.07 33.71 158.98 32.55 158.92 31.24 158.86 29.43 158.84 27.44 158.86 27.36 158.86 27.27 158.86 27.19 158.86 21.59 158.91 14.73 159.16 13.7 159.2 13.76 159.2 13.82 159.2 13.91 159.19L13.91 162.81ZM18.82 159.55C18.82 159.55 33.35 159.26 33.96 159.55 34.57 159.84 34.57 160.83 33.96 161.07 33.35 161.31 18.82 161.07 18.82 161.07L18.82 159.55Z" fill="#B57C48"/><path d="M30.74 163.72C32.88 163.69 34.42 163.61 34.64 163.44 34.74 163.36 34.82 163.26 34.9 163.13 34.97 163 35.03 162.86 35.09 162.7 35.06 162.73 35.03 162.78 35 162.81 34.15 163.47 13.93 162.81 13.93 162.81L13.93 159.19C13.84 159.19 13.78 159.2 13.72 159.2 13.63 159.2 13.57 159.21 13.57 159.21L13.57 163.45C13.57 163.45 20.77 163.68 26.76 163.73 26.98 163.73 27.21 163.73 27.43 163.73 28.62 163.74 29.74 163.74 30.74 163.72Z" fill="#A56434"/><path d="M33.95 161.07C34.56 160.83 34.56 159.84 33.95 159.55 33.34 159.26 18.81 159.55 18.81 159.55L18.81 161.07C18.82 161.07 33.34 161.31 33.95 161.07Z" fill="#CE9761"/><path d="M47.41 308.01 0 308.01 0 321.32 58.99 321.32 58.99 239.58C58.99 239.58 57.73 255.31 47.42 270.96L47.42 308.01Z" fill="#FFFACF"/><path d="M47.41 308.01 0 308.01 0 321.32 58.99 321.32 58.99 239.58C58.99 239.58 57.73 255.31 47.42 270.96L47.42 308.01Z" fill="#C67FA5" opacity="0.1"/><path d="M45.35 273.91C36.72 285.61 22.7 296.68 0 300.44L0 305.16 45.35 305.16 45.35 273.91Z" fill="#FFFACF"/><path d="M45.35 273.91C36.72 285.61 22.7 296.68 0 300.44L0 305.16 45.35 305.16 45.35 273.91Z" fill="#C67FA5" opacity="0.1"/><path d="M47.41 270.95C46.76 271.94 46.07 272.93 45.34 273.91L45.34 305.16 0 305.16 0 308.01 47.41 308.01 47.41 270.95Z" fill="#BF8356"/><path d="M47.41 270.95C46.76 271.94 46.07 272.93 45.34 273.91L45.34 305.16 0 305.16 0 308.01 47.41 308.01 47.41 270.95Z" fill="#C67FA5" opacity="0.1"/><rect x="0" y="0" width="58.99" height="4.53" fill="#FFFDEB"/><path d="M45.35 41.58 45.35 16.16 0 16.16 0 22.37C33.44 26.68 45.35 41.58 45.35 41.58Z" fill="#FFFACF"/><path d="M45.35 41.58 45.35 16.16 0 16.16 0 22.37C33.44 26.68 45.35 41.58 45.35 41.58Z" fill="#C67FA5" opacity="0.1"/></g></svg>