<svg width="107.03" height="103.05" viewBox="0 0 107.03 103.05" xmlns="http://www.w3.org/2000/svg" xmlns:xlink="http://www.w3.org/1999/xlink" xml:space="preserve" overflow="hidden"><defs></defs><g><g><g><path d="M46.38 88.42C46.98 90.62 46.49 93.09 45.1 94.89 43.71 96.7 41.44 97.79 39.16 97.77 42.63 101.25 47.58 103.2 52.49 103.03 57.4 102.86 62.2 100.57 65.42 96.85 63.29 96.93 61.14 95.91 59.86 94.19 58.58 92.48 58.21 90.13 58.89 88.11L46.38 88.42Z" fill="#F9B799"/><path d="M46.56 89.75C48 91.6 50.31 92.73 52.66 92.74 55 92.75 57.33 91.64 58.79 89.82L46.56 89.75Z" opacity="0.15"/><g><path d="M11.93 48.31C10.55 46.76 8.6 45.67 6.52 45.56 4.45 45.45 2.29 46.4 1.17 48.15 0.31 49.49 0.11 51.14 0.03 52.72-0.16 56.39 0.34 60.43 2.96 63 5.57 65.56 9.54 65.98 13.19 66.14L11.93 48.31Z" fill="#F9B799"/><path d="M8.57 55.7C8.57 57.64 7.57 59.22 6.34 59.22 5.11 59.22 4.11 57.64 4.11 55.7 4.11 53.76 5.11 52.18 6.34 52.18 7.57 52.18 8.57 53.76 8.57 55.7Z" fill="#F4C7BD"/></g><g><path d="M95.1 48.31C96.48 46.76 98.43 45.67 100.51 45.56 102.58 45.45 104.74 46.4 105.86 48.15 106.72 49.49 106.92 51.14 107 52.72 107.19 56.39 106.69 60.43 104.07 63 101.46 65.56 97.49 65.98 93.84 66.14L95.1 48.31Z" fill="#F9B799"/><ellipse cx="100.7" cy="55.7" rx="2.23" ry="3.52" fill="#F4C7BD"/></g><path d="M89.5 74.1C89.44 72.85 90.1 71.43 90.96 70.56 91.65 69.87 92.49 69.46 93.41 69.25L93.3 69.26C93.55 69.22 93.79 69.15 94.03 69.07 94.14 69.03 94.25 69.02 94.36 68.99 95.5 63.03 93.39 56.8 91.3 51.01 87.33 40.05 82.86 28.4 73.33 21.68 65.16 15.92 54.23 14.82 44.63 17.59 25.51 23.11 16.24 38.15 11.89 56.45 10.94 60.45 10.22 64.63 11.1 68.64 12.76 76.21 19.66 81.48 26.69 84.74 42.76 92.2 62.01 92.45 78.27 85.44 82.8 83.48 87.3 80.72 90.43 77.01 89.83 76.17 89.54 75.12 89.5 74.1Z" fill="#F9B799"/><path d="M52.69 68.16C52.06 68.6 51.25 68.69 50.48 68.7 49.85 68.71 49.2 68.67 48.62 68.42 48.04 68.17 47.53 67.68 47.4 67.07 48.1 67.51 49.07 67.66 49.89 67.78 50.8 67.91 51.78 68.03 52.69 68.16Z" opacity="0.07"/></g></g></g><path d="M100.1 34.47C99.71 31.22 98.02 28.46 96.53 25.56 93.46 19.57 88.66 14.67 83.15 10.88 72.24 3.35 58.21-0.58 44.97 0.07 38.03 0.41 28.38 0.1 24.51 5.87 20.78 6.18 12.43 13.54 9.27 17.81 5.15 23.38 3.91 30.61 4.06 37.54 4.22 44.84 4.89 57.68 10.91 61.83 11.4 56.15 15.65 48.23 17.76 43.46 18.84 41.03 20.74 40.38 22.39 38.32 22.89 37.7 25.19 36.35 26.7 34.87 26.91 37.5 28.18 36.59 29.38 38.74 29.5 38.79 29.63 38.83 29.75 38.89 31.35 39.68 32.97 40.43 34.6 41.15 35.06 41.01 35.53 40.91 36.02 40.91 37.14 40.92 38.25 40.97 39.37 41.1 39.81 41.16 40.26 41.22 40.7 41.28 40.89 41.31 41.04 41.33 41.15 41.35 41.1 41.34 41.7 41.34 41.76 41.34 43.79 41.3 45.74 41.51 47.54 42.5 47.62 42.54 47.67 42.6 47.75 42.65 47.87 42.64 48.03 42.53 48.12 42.62 57.15 52.16 69.29 108.3 76.25 44.3 76.26 44.22 76.39 44.36 76.46 44.39 80.9 44.66 84.94 46.14 88.04 50.59 89.43 52.59 89.06 54.54 87.87 55.92 89.68 56.67 90.77 58.49 91.02 60.54 91.4 63.63 99.89 55.8 100.25 49.98 100.57 44.87 100.71 39.56 100.1 34.47Z" fill="#110802"/><path d="M89.5 74.1C89.44 72.85 90.1 71.43 90.96 70.56 91.65 69.87 92.49 69.46 93.41 69.25L93.3 69.26C93.42 69.24 93.53 69.22 93.64 69.19L91.02 60.52 91.3 51.01 50.05 31.71 21.24 34.27 11.9 56.46 16.73 78.15 46.57 89.75 73.83 87.81 89.54 74.33C89.52 74.25 89.5 74.18 89.5 74.1Z" fill="#110802"/><path d="M70.42 55.7 84.4 38.18 91.81 42.9 81.99 57.43" fill="#110802"/></svg>