<svg width="364.57" height="108.33" viewBox="0 0 364.57 108.33" xmlns="http://www.w3.org/2000/svg" xmlns:xlink="http://www.w3.org/1999/xlink" xml:space="preserve" overflow="hidden"><defs></defs><g><path d="M39.01 95.13 93.15 94.12 182.29 86.87 255.37 91.1 312.23 90.04C312.23 90.04 324.65 60.68 317.41 56.33 310.17 51.98 275.61 46.45 262.27 49.47 248.92 52.49 101.42 47.95 75.67 49.47 49.92 50.99 28.92 63.26 26.42 71.87 23.92 80.48 39.01 95.13 39.01 95.13Z" fill="#101111"/><g><linearGradient x1="178.953" y1="68.8741" x2="178.953" y2="30.0558" gradientUnits="userSpaceOnUse" id="SVGID_1_"><stop offset="0" stop-color="#0D97D3"/><stop offset="1"/></linearGradient><linearGradient x1="176.624" y1="94.1232" x2="176.624" y2="65.8028" gradientUnits="userSpaceOnUse" id="SVGID_2_"><stop offset="0" stop-color="#FFFFFF"/><stop offset="0.1102" stop-color="#DCE7EF"/><stop offset="0.3557" stop-color="#94B6CE"/><stop offset="0.5763" stop-color="#5B8EB4"/><stop offset="0.7639" stop-color="#3272A1"/><stop offset="0.9112" stop-color="#186095"/><stop offset="1" stop-color="#0F5A91"/></linearGradient><linearGradient x1="338.402" y1="90.0401" x2="338.402" y2="62.4929" gradientUnits="userSpaceOnUse" id="SVGID_3_"><stop offset="0" stop-color="#FFFFFF"/><stop offset="0.1102" stop-color="#DCE7EF"/><stop offset="0.3557" stop-color="#94B6CE"/><stop offset="0.5763" stop-color="#5B8EB4"/><stop offset="0.7639" stop-color="#3272A1"/><stop offset="0.9112" stop-color="#186095"/><stop offset="1" stop-color="#0F5A91"/></linearGradient><linearGradient x1="19.508" y1="95.1739" x2="19.508" y2="80.4776" gradientUnits="userSpaceOnUse" id="SVGID_4_"><stop offset="0" stop-color="#FFFFFF"/><stop offset="0.1102" stop-color="#DCE7EF"/><stop offset="0.3557" stop-color="#94B6CE"/><stop offset="0.5763" stop-color="#5B8EB4"/><stop offset="0.7639" stop-color="#3272A1"/><stop offset="0.9112" stop-color="#186095"/><stop offset="1" stop-color="#0F5A91"/></linearGradient><linearGradient x1="181.942" y1="72.295" x2="181.942" y2="62.3585" gradientUnits="userSpaceOnUse" id="SVGID_5_"><stop offset="0" stop-color="#0D97D3"/><stop offset="1"/></linearGradient><linearGradient x1="181.736" y1="47.587" x2="181.736" y2="45.4103" gradientUnits="userSpaceOnUse" id="SVGID_6_"><stop offset="0" stop-color="#0D97D3"/><stop offset="1"/></linearGradient><linearGradient x1="253.389" y1="45.1603" x2="253.389" y2="42.9835" gradientUnits="userSpaceOnUse" id="SVGID_7_"><stop offset="0" stop-color="#0D97D3"/><stop offset="1"/></linearGradient><path d="M283.21 58.26C269.38 58.26 258.17 69.47 258.17 83.3 258.17 97.13 269.38 108.34 283.21 108.34 297.04 108.34 308.25 97.13 308.25 83.3 308.24 69.47 297.03 58.26 283.21 58.26Z" fill="#292A2D"/><ellipse cx="65.87" cy="83.3" rx="25.04" ry="25.04" fill="#292A2D" transform="matrix(0.9997 -0.0249 0.0249 0.9997 -2.0574 1.669)"/><path d="M65.87 63.49C54.93 63.49 46.06 72.36 46.06 83.3 46.06 94.24 54.93 103.11 65.87 103.11 76.81 103.11 85.68 94.24 85.68 83.3 85.68 72.36 76.81 63.49 65.87 63.49Z" fill="#101111"/><path d="M32.61 51.06C32.61 51.06 30.54 82.33 24.21 88.25 17.87 94.17 2.06 86.87 2.06 86.87 2.06 86.87 0.93 59.67 13.19 52.75 25.45 45.83 32.61 51.06 32.61 51.06Z" fill="#292A2D"/><path d="M283.23 63.49C272.29 63.49 263.42 72.36 263.42 83.3 263.42 94.24 272.29 103.11 283.23 103.11 294.17 103.11 303.04 94.24 303.04 83.3 303.04 72.36 294.17 63.49 283.23 63.49Z" fill="#101111"/><path d="M35.45 51.12C35.45 51.12 22.44 52.29 19.48 55.34 16.52 58.39 16.54 62.3 16.54 62.3L27.44 62.74C27.43 62.75 37.64 56.89 35.45 51.12Z" fill="#F0AD1C"/><path d="M115.1 55.1 258.17 55.1 299.36 21.56C299.36 21.56 277.48 7.01 253.39 6.51 229.31 6.02 171.59 6.51 171.59 6.51 171.59 6.51 130.87 14.24 108.18 32.74 85.48 51.24 93.15 55.1 93.15 55.1L115.1 55.1Z" fill="#66CCDB"/><g><path d="M155.26 53.95 149.04 53.95 174.04 5.24 180.26 5.24Z" fill="#FFFFFF" opacity="0.5"/><path d="M144.33 53.95 141.22 53.95 166.98 4.32 170.09 4.32Z" fill="#FFFFFF" opacity="0.5"/><path d="M211.36 53.95 205.14 53.95 230.14 5.55 236.36 5.55Z" fill="#FFFFFF" opacity="0.5"/><path d="M303.04 53.95 217.31 53.95 243.51 3.32 281.02 10.32Z" fill="#FFFFFF" opacity="0.5"/><path d="M200.44 53.95 197.32 53.95 223.44 3.32 226.55 3.32Z" fill="#FFFFFF" opacity="0.5"/></g><g><path d="M63.68 65.8 63.68 76.86C62.62 77.22 61.69 77.83 60.93 78.62L50.8 74.13C53.53 69.64 58.22 66.48 63.68 65.8Z" fill="#D1E2E2"/><path d="M59.78 86.32 51.97 94.14C49.63 91.14 48.23 87.38 48.23 83.29 48.23 81.49 48.5 79.75 49.01 78.12L59.1 82.59C59.08 82.82 59.06 83.06 59.06 83.29 59.06 84.38 59.33 85.41 59.78 86.32Z" fill="#D1E2E2"/><path d="M83.5 83.3C83.5 87.37 82.12 91.12 79.8 94.1L71.97 86.28C72.41 85.38 72.67 84.37 72.67 83.3 72.67 83.06 72.65 82.83 72.63 82.6L82.72 78.13C83.23 79.76 83.5 81.5 83.5 83.3Z" fill="#D1E2E2"/><path d="M80.94 74.13 70.8 78.62C70.05 77.83 69.11 77.22 68.05 76.86L68.05 65.8C73.51 66.48 78.2 69.64 80.94 74.13Z" fill="#D1E2E2"/><path d="M76.71 97.2C73.72 99.54 69.95 100.94 65.87 100.94 61.79 100.94 58.05 99.56 55.07 97.23L62.89 89.41C63.79 89.85 64.8 90.11 65.87 90.11 66.96 90.11 67.98 89.84 68.9 89.39L76.71 97.2Z" fill="#D1E2E2"/></g><path d="M281.02 65.8 281.02 76.86C279.96 77.22 279.02 77.83 278.27 78.62L268.13 74.13C270.87 69.64 275.56 66.48 281.02 65.8Z" fill="#D1E2E2"/><path d="M277.12 86.32 269.31 94.14C266.97 91.14 265.57 87.38 265.57 83.29 265.57 81.49 265.84 79.75 266.35 78.12L276.44 82.59C276.42 82.82 276.4 83.06 276.4 83.29 276.4 84.38 276.67 85.41 277.12 86.32Z" fill="#D1E2E2"/><path d="M298.27 74.13 288.13 78.62C287.38 77.83 286.44 77.22 285.38 76.86L285.38 65.8C290.85 66.48 295.54 69.64 298.27 74.13Z" fill="#D1E2E2"/><path d="M294.05 97.2C291.06 99.54 287.29 100.94 283.21 100.94 279.13 100.94 275.39 99.56 272.41 97.23L280.23 89.41C281.13 89.85 282.14 90.11 283.21 90.11 284.3 90.11 285.32 89.84 286.24 89.39L294.05 97.2Z" fill="#D1E2E2"/><path d="M300.84 83.3C300.84 87.37 299.46 91.12 297.14 94.1L289.31 86.28C289.75 85.38 290.01 84.37 290.01 83.3 290.01 83.06 290 82.83 289.97 82.6L300.06 78.13C300.57 79.76 300.84 81.5 300.84 83.3Z" fill="#D1E2E2"/><path d="M19.87 79.63C19.87 81.83 18.09 83.61 15.89 83.61 13.69 83.61 11.91 81.83 11.91 79.63 11.91 77.43 13.69 75.65 15.89 75.65 18.09 75.66 19.87 77.44 19.87 79.63Z" fill="#FFFFFF"/><path d="M364.57 64.59C364.57 57.44 359.64 57.19 359.64 57.19 354.46 57.19 354.21 47.59 354.21 47.59 356.92 43.91 355.44 38.2 355.44 38.2L355.44 30.06C355.44 30.06 332.75 26.36 295.25 12.3 257.77-1.76 198.08-1.1 174.15 1.44 150.22 3.98 121.61 22.65 109.28 27.34 96.95 32.03 92.01 32.52 92.01 32.52 92.01 32.52 23.2 42.14 13.58 47.82 8.83 50.62 3.93 56.94 3.27 64.38 2.82 65.87 2.41 67.38 2.06 68.88-0.26 69.49 0.01 80.73 0.01 84.82 0.01 94.93 14.81 95.18 14.81 95.18L36.76 95.18 39 95.14C37.4 91.52 36.51 87.52 36.51 83.31 36.51 67.1 49.65 53.96 65.86 53.96 82.07 53.96 95.21 67.1 95.21 83.31 95.21 87.13 94.47 90.78 93.14 94.14L255.36 91.12C254.68 88.63 254.3 86.02 254.3 83.32 254.3 67.11 267.44 53.97 283.65 53.97 299.86 53.97 313 67.11 313 83.32 313 85.64 312.72 87.9 312.21 90.06L314.72 90.01C314.72 90.01 332.23 88.53 348.51 84.83 364.82 81.11 364.57 71.74 364.57 64.59ZM21.16 83.7C20.24 86.29 17 86.94 17 86.94 17 86.94 8.68 87.4 6.64 86.94 4.61 86.48 3.87 85.28 3.31 83.3 2.76 81.32 2.76 77.32 2.76 77.32L22.83 75.47C22.83 75.47 22.09 81.11 21.16 83.7ZM6.55 64.22C6.55 64.22 8.28 57.07 11.48 55.34 14.69 53.61 27.88 52.75 27.88 52.75 27.88 52.75 23.94 62.62 6.55 64.22ZM108.92 35.24C134.67 22.36 153.17 6.29 210.67 6.29 268.17 6.29 287.98 23.52 287.98 23.52 286.18 36.64 108.92 35.24 108.92 35.24Z" fill="#00519B"/><path d="M221.66 37.95C221.66 37.95 85.5 42.52 63.68 45.41 41.86 48.3 34.69 52.75 34.69 52.75 19.07 66.4 2.82 65.86 2.82 65.86 2.37 67.35 2.42 67.37 2.06 68.88L41.33 67.2C46.58 59.22 55.6 53.95 65.87 53.95 75.23 53.95 83.56 58.34 88.94 65.16L250.28 58.26C290.24 41.44 305.53 55.34 326.74 58.26 347.95 61.17 354.22 47.59 354.22 47.59 356.93 43.91 355.45 38.2 355.45 38.2L355.45 30.06 221.66 37.95ZM183.96 50.01 179.52 50.01C177.58 50.01 176.01 48.44 176.01 46.5 176.01 44.56 177.58 42.98 179.52 42.98L183.96 42.98C185.9 42.98 187.48 44.55 187.48 46.5 187.47 48.44 185.9 50.01 183.96 50.01ZM255.61 47.59 251.17 47.59C249.23 47.59 247.65 46.02 247.65 44.07 247.65 42.13 249.22 40.56 251.17 40.56L255.61 40.56C257.55 40.56 259.12 42.13 259.12 44.07 259.12 46.01 257.55 47.59 255.61 47.59Z" fill="url(#SVGID_1_)" opacity="0.5"/><path d="M354.21 47.59C356.92 43.91 355.44 38.2 355.44 38.2L355.44 37.95C354.32 37.95 354.27 37.95 346.67 37.95 337.69 37.95 340.15 41.41 340.15 41.41 340.15 41.41 343.02 48.12 346.25 48.12L353.92 48.12C354.12 47.78 354.21 47.59 354.21 47.59Z" fill="#292A2D"/><path d="M346.92 42.05 346.92 42.08C346.92 42.95 347.62 43.65 348.49 43.65L355.71 43.65C355.87 42.5 355.86 41.4 355.79 40.48L348.49 40.48C347.63 40.49 346.92 41.19 346.92 42.05Z" fill="#E30006"/><path d="M69.44 83.3C69.44 85.28 67.84 86.88 65.86 86.88 63.88 86.88 62.28 85.28 62.28 83.3 62.28 81.32 63.88 79.72 65.86 79.72 67.84 79.72 69.44 81.32 69.44 83.3Z" fill="#D1E2E2"/><path d="M67.81 83.3C67.81 84.37 66.94 85.24 65.87 85.24 64.8 85.24 63.93 84.37 63.93 83.3 63.93 82.23 64.8 81.36 65.87 81.36 66.94 81.36 67.81 82.22 67.81 83.3Z" fill="#C3D1D1"/><g><path d="M63.68 76.86 63.68 71.85C60.66 72.42 58.05 74.16 56.34 76.58L60.93 78.62C61.69 77.83 62.62 77.22 63.68 76.86Z" fill="#C3D1D1"/><path d="M59.06 83.3C59.06 83.06 59.07 82.83 59.1 82.6L54.54 80.58C54.33 81.45 54.21 82.36 54.21 83.3 54.21 85.74 54.96 88 56.24 89.87L59.78 86.32C59.33 85.41 59.06 84.38 59.06 83.3Z" fill="#C3D1D1"/><path d="M72.67 83.3C72.67 84.37 72.42 85.38 71.97 86.28L75.52 89.83C76.78 87.97 77.52 85.72 77.52 83.3 77.52 82.36 77.4 81.45 77.19 80.58L72.63 82.6C72.66 82.82 72.67 83.06 72.67 83.3Z" fill="#C3D1D1"/><path d="M70.8 78.62 75.39 76.58C73.68 74.16 71.07 72.42 68.05 71.85L68.05 76.86C69.11 77.22 70.05 77.83 70.8 78.62Z" fill="#C3D1D1"/><path d="M65.87 90.1C64.8 90.1 63.79 89.84 62.89 89.4L59.34 92.95C61.2 94.21 63.45 94.95 65.87 94.95 68.31 94.95 70.57 94.2 72.44 92.92L68.9 89.38C67.98 89.84 66.96 90.1 65.87 90.1Z" fill="#C3D1D1"/></g><path d="M286.8 83.3C286.8 85.28 285.2 86.88 283.22 86.88 281.25 86.88 279.64 85.28 279.64 83.3 279.64 81.32 281.24 79.72 283.22 79.72 285.2 79.72 286.8 81.32 286.8 83.3Z" fill="#D1E2E2"/><path d="M260.1 65.8C242.02 83.88 226.93 82.99 226.93 82.99L95.22 83.3C95.22 87.12 94.48 90.77 93.15 94.13L255.37 91.11C254.69 88.62 254.31 86.01 254.31 83.31 254.31 76.74 256.47 70.69 260.1 65.8L260.1 65.8Z" fill="url(#SVGID_2_)"/><path d="M364.57 64.59C364.57 57.44 355.52 70.57 346.67 74.57 335.5 79.4 314.46 81.36 314.46 81.36 314.54 85.36 313.56 88.72 312.23 90.04L314.74 89.99C314.74 89.99 332.25 88.51 348.53 84.81 364.82 81.11 364.57 71.74 364.57 64.59Z" fill="url(#SVGID_3_)"/><path d="M36.76 95.17 39 95.13C37.86 92.55 37.09 89.78 36.73 86.87 36.73 86.87 36.73 86.87 36.73 86.87-0.4 93.67 0.8 85.15 0.2 80.47 0.07 82.06-4.27436e-15 83.52-4.27436e-15 84.81-4.27436e-15 94.92 14.8 95.17 14.8 95.17L36.76 95.17Z" fill="url(#SVGID_4_)"/><path d="M237.05 70.07 116.37 72.3 247.51 62.36Z" fill="url(#SVGID_5_)" opacity="0.5"/><path d="M196.45 36.4 189.54 36.4 197.37 2.9 201.71 2.9Z" fill="#00519B"/><path d="M272.72 32.79 267.81 32.79 273.37 14.17 276.45 14.17Z" fill="#00519B"/><path d="M190.62 46.5C190.62 47.1 190.13 47.59 189.53 47.59L173.95 47.59C173.35 47.59 172.86 47.1 172.86 46.5L172.86 46.5C172.86 45.9 173.35 45.41 173.95 45.41L189.53 45.41C190.13 45.41 190.62 45.9 190.62 46.5L190.62 46.5Z" fill="url(#SVGID_6_)" opacity="0.5"/><path d="M262.27 44.07C262.27 44.67 261.78 45.16 261.18 45.16L245.6 45.16C245 45.16 244.51 44.67 244.51 44.07L244.51 44.07C244.51 43.47 245 42.98 245.6 42.98L261.18 42.98C261.78 42.98 262.27 43.47 262.27 44.07L262.27 44.07Z" fill="url(#SVGID_7_)" opacity="0.5"/><path d="M285.15 83.3C285.15 84.37 284.28 85.24 283.21 85.24 282.14 85.24 281.27 84.37 281.27 83.3 281.27 82.23 282.14 81.36 283.21 81.36 284.28 81.35 285.15 82.22 285.15 83.3Z" fill="#C3D1D1"/><g><path d="M281.02 76.86 281.02 71.85C278 72.42 275.39 74.16 273.68 76.58L278.27 78.62C279.03 77.83 279.96 77.22 281.02 76.86Z" fill="#C3D1D1"/><path d="M276.4 83.3C276.4 83.06 276.41 82.83 276.44 82.6L271.88 80.58C271.67 81.45 271.55 82.36 271.55 83.3 271.55 85.74 272.3 88 273.58 89.87L277.12 86.32C276.67 85.41 276.4 84.38 276.4 83.3Z" fill="#C3D1D1"/><path d="M290.01 83.3C290.01 84.37 289.76 85.38 289.31 86.28L292.86 89.83C294.12 87.97 294.86 85.72 294.86 83.3 294.86 82.36 294.74 81.45 294.53 80.58L289.97 82.6C289.99 82.82 290.01 83.06 290.01 83.3Z" fill="#C3D1D1"/><path d="M288.14 78.62 292.73 76.58C291.02 74.16 288.41 72.42 285.39 71.85L285.39 76.86C286.45 77.22 287.39 77.83 288.14 78.62Z" fill="#C3D1D1"/><path d="M283.21 90.1C282.14 90.1 281.13 89.84 280.23 89.4L276.68 92.95C278.54 94.21 280.79 94.95 283.21 94.95 285.65 94.95 287.91 94.2 289.78 92.92L286.24 89.38C285.32 89.84 284.29 90.1 283.21 90.1Z" fill="#C3D1D1"/></g></g></g></svg>