<svg width="122.73" height="211.62" viewBox="0 0 122.73 211.62" xmlns="http://www.w3.org/2000/svg" xmlns:xlink="http://www.w3.org/1999/xlink" xml:space="preserve" overflow="hidden"><defs></defs><g><g><path d="M14.55 67.18 2.84 73.44C2.28 73.74 2.04 74.5 2.3 75.15L10.76 96.1C11.02 96.74 11.68 97.02 12.24 96.72L23.95 90.46C24.51 90.16 24.75 89.4 24.49 88.75L16.04 67.8C15.78 67.16 15.11 66.88 14.55 67.18Z" fill="#38303B"/></g><g><path d="M13.59 70.34 5.57 74.63C5 74.94 4.75 75.72 5.02 76.37L7.14 81.62C7.41 82.28 8.08 82.56 8.65 82.26L16.67 77.97C17.24 77.66 17.49 76.88 17.22 76.23L15.1 70.98C14.84 70.32 14.16 70.04 13.59 70.34Z" fill="#4F85B5"/></g><g><path d="M10.09 83.72 9.06 84.27C8.53 84.55 8.3 85.28 8.54 85.9 8.79 86.51 9.42 86.78 9.95 86.49L10.98 85.94C11.51 85.66 11.74 84.93 11.5 84.32 11.25 83.7 10.62 83.43 10.09 83.72Z" fill="#399E2E"/></g><g><path d="M13.92 81.67 12.89 82.22C12.36 82.5 12.13 83.23 12.37 83.84 12.62 84.45 13.25 84.72 13.78 84.43L14.81 83.88C15.34 83.6 15.57 82.87 15.33 82.26 15.08 81.65 14.45 81.38 13.92 81.67Z" fill="#399E2E"/></g><g><path d="M17.72 79.64 16.69 80.19C16.16 80.47 15.93 81.2 16.17 81.81 16.42 82.42 17.05 82.69 17.58 82.4L18.61 81.85C19.14 81.57 19.37 80.84 19.13 80.23 18.88 79.62 18.25 79.35 17.72 79.64Z" fill="#399E2E"/></g><g><path d="M11.55 87.35 10.52 87.9C9.99 88.18 9.76 88.91 10 89.53 10.25 90.14 10.88 90.41 11.41 90.12L12.44 89.57C12.97 89.29 13.2 88.56 12.96 87.95 12.72 87.33 12.09 87.06 11.55 87.35Z" fill="#2873AF"/></g><g><path d="M15.38 85.3 14.35 85.85C13.82 86.13 13.59 86.86 13.83 87.47 14.08 88.08 14.71 88.35 15.24 88.06L16.27 87.51C16.8 87.23 17.03 86.5 16.79 85.89 16.55 85.28 15.92 85.02 15.38 85.3Z" fill="#399E2E"/></g><g><path d="M19.19 83.27 18.16 83.82C17.63 84.1 17.4 84.83 17.64 85.44 17.89 86.05 18.52 86.32 19.05 86.03L20.08 85.48C20.61 85.2 20.84 84.47 20.6 83.86 20.35 83.25 19.72 82.98 19.19 83.27Z" fill="#2873AF"/></g><g><path d="M12.97 90.85 11.94 91.4C11.41 91.68 11.18 92.41 11.42 93.03 11.67 93.64 12.3 93.91 12.83 93.62L13.86 93.07C14.39 92.79 14.62 92.06 14.38 91.45 14.13 90.83 13.5 90.57 12.97 90.85Z" fill="#2873AF"/></g><g><path d="M16.8 88.8 15.77 89.35C15.24 89.64 15.01 90.36 15.25 90.98 15.5 91.59 16.13 91.86 16.66 91.57L17.69 91.02C18.22 90.74 18.45 90.01 18.21 89.4 17.96 88.78 17.33 88.52 16.8 88.8Z" fill="#2873AF"/></g><g><path d="M20.6 86.77 19.57 87.32C19.04 87.6 18.81 88.33 19.05 88.94 19.3 89.55 19.93 89.82 20.46 89.53L21.49 88.98C22.02 88.7 22.25 87.97 22.01 87.35 21.77 86.75 21.13 86.48 20.6 86.77Z" fill="#EF2E3C"/></g><g><path d="M11.91 66.39 9.4 67.73C8.84 68.03 8.6 68.79 8.86 69.44L9.36 70.69C9.62 71.33 10.28 71.61 10.84 71.31L13.35 69.97C13.91 69.67 14.15 68.91 13.89 68.26L13.38 67.01C13.14 66.37 12.47 66.09 11.91 66.39Z" fill="#38303B"/></g><g><path d="M3.37 49.02C2.96 49.24 2.78 49.8 2.97 50.27L10.45 68.8C10.64 69.27 11.13 69.48 11.54 69.26 11.95 69.04 12.13 68.48 11.94 68.01L4.46 49.48C4.27 49 3.78 48.8 3.37 49.02Z" fill="#38303B"/></g><g opacity="0.4"><path d="M9.18 81.98 11.41 80.78 10.33 72.08 8.1 73.28Z" fill="#FFFFFF"/></g><g opacity="0.4"><path d="M12.87 80.01 13.61 79.61 12.53 70.91 11.79 71.31Z" fill="#FFFFFF"/></g></g><g><g><g><g><g><path d="M20.87 123.66C20.87 123.66 13.34 125.04 10.89 119.8 10.17 118.26 14.58 110.17 15.17 108.55 17.3 102.67 19.88 97.86 20.99 91.53 21.44 88.95 21.77 86.4 21.88 83.77 21.96 81.86 21.97 79.96 21.99 78.06 22.12 68.9 22.46 59.83 33.61 58.08 33.61 58.08 36.63 88.77 34.98 96.51 33.32 104.25 26.95 113.39 20.87 123.66Z" fill="#5E5E5C"/><g><path d="M10.82 119.5C10.81 119.41 10.81 119.31 10.82 119.2 10.82 119.2 10.82 119.19 10.82 119.18 10.83 119.07 10.84 118.95 10.86 118.83 10.87 118.8 10.87 118.77 10.88 118.73 10.9 118.6 10.93 118.46 10.97 118.31 10.97 118.3 10.98 118.28 10.98 118.27 11.02 118.13 11.06 117.99 11.1 117.84 11.11 117.8 11.12 117.76 11.14 117.72 11.19 117.56 11.24 117.39 11.31 117.22 11.32 117.2 11.33 117.17 11.34 117.15 11.4 116.99 11.45 116.83 11.52 116.67 11.54 116.62 11.55 116.58 11.57 116.53 11.64 116.35 11.71 116.16 11.79 115.97 11.8 115.94 11.82 115.9 11.83 115.87 11.9 115.7 11.97 115.54 12.04 115.37 12.06 115.32 12.08 115.27 12.1 115.22 12.18 115.03 12.27 114.83 12.35 114.64 12.37 114.6 12.39 114.55 12.41 114.51 12.48 114.35 12.56 114.18 12.63 114.02 12.66 113.96 12.68 113.91 12.71 113.85 12.8 113.66 12.88 113.47 12.97 113.27 12.99 113.22 13.02 113.17 13.04 113.11 13.11 112.96 13.18 112.81 13.25 112.66 13.28 112.6 13.31 112.54 13.33 112.48 13.41 112.31 13.49 112.14 13.57 111.98 13.62 111.88 13.66 111.79 13.71 111.69 13.75 111.61 13.78 111.54 13.82 111.46 13.95 111.2 14.07 110.94 14.19 110.7 14.07 112.64 14.48 114.47 15.82 115.72 19.45 119.11 23.69 110.92 26.06 105.37 28.43 99.82 24.57 84.53 24.76 80.17 24.91 76.76 24.52 67.7 24.34 63.9 24.34 63.9 24.34 63.9 24.34 63.89 25.98 60.97 28.78 58.84 33.6 58.09 33.6 58.09 36.62 88.78 34.97 96.52 33.31 104.26 26.95 113.4 20.86 123.68 20.86 123.68 13.33 125.06 10.88 119.82 10.85 119.75 10.83 119.67 10.82 119.59 10.83 119.55 10.83 119.52 10.82 119.5Z" fill="#5E5E5C" opacity="0.4"/><path d="M22.88 91.34C22.96 94.23 19.99 98.75 17.99 101.38 19.23 98.27 20.34 95.15 20.98 91.53 21.24 90.04 21.45 88.57 21.61 87.09 22.32 88.72 22.85 90.28 22.88 91.34Z" fill="#5E5E5C" opacity="0.4"/></g><g><g><path d="M16.41 105.07C16.47 105.09 16.66 104.65 16.97 104.01 17.28 103.37 17.74 102.54 18.22 101.72 18.71 100.91 19.22 100.1 19.6 99.5 19.98 98.89 20.24 98.49 20.24 98.49 20.24 98.49 20.47 98.07 20.81 97.44 21.15 96.8 21.58 95.95 21.96 95.06 22.32 94.17 22.64 93.25 22.77 92.54 22.92 91.83 22.94 91.35 22.9 91.34 22.84 91.33 22.72 91.79 22.49 92.46 22.27 93.13 21.89 93.99 21.48 94.84 21.05 95.68 20.58 96.49 20.21 97.1 19.84 97.71 19.59 98.11 19.59 98.11 19.59 98.11 19.36 98.53 19.01 99.15 18.66 99.78 18.2 100.61 17.76 101.47 17.33 102.33 16.94 103.22 16.71 103.9 16.46 104.58 16.36 105.06 16.41 105.07Z" fill="#5E5E5C"/></g><g><path d="M11.58 120.24C11.56 120.25 11.69 120.46 11.94 120.8 12.18 121.15 12.58 121.6 13.11 122.1 13.39 122.33 13.67 122.62 14.03 122.83 14.2 122.95 14.38 123.06 14.57 123.19 14.76 123.3 14.97 123.39 15.17 123.5 15.57 123.73 16.04 123.83 16.5 124 16.74 124.05 16.98 124.09 17.22 124.13L17.59 124.19 17.96 124.2C18.93 124.29 20 124.09 20.82 123.56 21.65 123.03 22.16 122.28 22.56 121.67 22.95 121.05 23.24 120.53 23.45 120.17 23.66 119.82 23.79 119.62 23.79 119.62 23.79 119.62 23.91 119.42 24.13 119.08 24.36 118.73 24.68 118.23 25.07 117.63 25.84 116.42 26.86 114.81 27.79 113.14 28.72 111.47 29.6 109.77 30.13 108.44 30.43 107.79 30.6 107.21 30.74 106.82 30.87 106.42 30.94 106.19 30.91 106.18 30.89 106.17 30.77 106.38 30.6 106.76 30.42 107.13 30.19 107.68 29.86 108.31 29.25 109.6 28.31 111.24 27.33 112.87 26.35 114.49 25.28 116.06 24.49 117.25 24.09 117.84 23.75 118.33 23.52 118.67 23.28 119.02 23.15 119.23 23.15 119.23 23.15 119.23 23.02 119.44 22.82 119.81 22.61 120.18 22.34 120.71 21.98 121.31 21.62 121.9 21.17 122.58 20.49 123.04 19.82 123.51 18.92 123.72 18 123.67L17.65 123.67 17.31 123.63C17.08 123.6 16.85 123.57 16.63 123.53 16.2 123.39 15.75 123.32 15.36 123.11 15.16 123.02 14.96 122.94 14.77 122.85 14.59 122.74 14.41 122.64 14.24 122.54 13.88 122.36 13.6 122.09 13.32 121.89 12.21 120.98 11.64 120.19 11.58 120.24Z" fill="#5E5E5C"/></g><g><path d="M18.65 100.89C18.68 100.9 18.79 100.6 18.97 100.08 19.14 99.55 19.39 98.8 19.68 97.89 19.94 96.98 20.22 95.9 20.53 94.76 20.81 93.6 21.06 92.36 21.33 91.11 21.76 88.61 22.06 86.07 22.12 84.17 22.17 83.22 22.24 82.42 22.23 81.87 22.23 81.31 22.23 80.99 22.23 80.99 22.23 80.99 22.2 79.72 22.16 77.82 22.03 75.94 22.05 73.44 22.38 70.96 22.55 68.43 23.74 66.2 24.57 64.5 24.99 63.65 25.33 62.93 25.54 62.42 25.74 61.9 25.85 61.61 25.82 61.6 25.8 61.59 25.65 61.87 25.4 62.36 25.15 62.85 24.77 63.54 24.31 64.36 23.85 65.19 23.31 66.16 22.84 67.26 22.6 67.81 22.39 68.4 22.21 69.01 22.09 69.63 21.97 70.25 21.85 70.88 21.45 73.4 21.38 75.95 21.46 77.86 21.47 79.74 21.47 81 21.47 81 21.47 81 21.48 81.31 21.49 81.86 21.51 82.41 21.45 83.19 21.42 84.14 21.4 86.03 21.15 88.54 20.8 91.03 20.56 92.26 20.35 93.5 20.12 94.66 19.86 95.82 19.61 96.9 19.4 97.82 19.17 98.74 18.97 99.5 18.83 100.04 18.69 100.57 18.63 100.88 18.65 100.89Z" fill="#5E5E5C"/></g></g><g><path d="M23.23 97.59C22.98 97.5 22.64 97.81 22.46 98.28 22.28 98.75 22.33 99.21 22.58 99.31 22.83 99.4 23.17 99.1 23.35 98.62 23.53 98.14 23.48 97.68 23.23 97.59Z" fill="#5E5E5C"/><path d="M24.17 93.81C23.77 93.72 23.29 94.28 23.11 95.07 22.93 95.86 23.1 96.57 23.51 96.66 23.91 96.75 24.39 96.19 24.57 95.41 24.75 94.62 24.57 93.9 24.17 93.81Z" fill="#5E5E5C"/></g></g><path d="M20.81 123.55C20.82 123.59 20.82 123.63 20.82 123.67 20.24 123.77 13.23 124.82 10.89 119.8 10.86 119.73 10.84 119.65 10.83 119.57 10.83 119.55 10.82 119.53 10.82 119.5 10.81 119.41 10.81 119.31 10.82 119.2 10.82 119.2 10.82 119.19 10.82 119.18 10.83 119.07 10.84 118.95 10.86 118.83 10.87 118.8 10.87 118.77 10.88 118.73 10.89 118.68 10.9 118.62 10.92 118.57 17.11 118.04 20.81 123.55 20.81 123.55Z" fill="#5E5E5C"/><g><path d="M10.82 118.25C10.81 118.33 12.21 118.5 13.54 118.87 14.2 119.09 14.86 119.29 15.32 119.53 15.56 119.64 15.75 119.73 15.89 119.79 16.03 119.85 16.09 119.91 16.1 119.9 16.1 119.9 16.4 120.06 16.85 120.31 17.08 120.42 17.32 120.6 17.58 120.79 17.83 120.99 18.13 121.16 18.37 121.41 18.62 121.65 18.86 121.89 19.1 122.11 19.22 122.22 19.33 122.33 19.41 122.45 19.5 122.57 19.59 122.68 19.67 122.78 20 123.19 20.23 123.45 20.26 123.44 20.29 123.42 20.12 123.12 19.83 122.67 19.76 122.56 19.68 122.44 19.6 122.31 19.52 122.18 19.43 122.05 19.31 121.93 19.09 121.68 18.85 121.42 18.61 121.15 18.37 120.88 18.07 120.68 17.82 120.46 17.56 120.24 17.32 120.04 17.09 119.92 16.63 119.64 16.33 119.45 16.33 119.45 16.33 119.46 16.26 119.4 16.11 119.34 15.96 119.28 15.76 119.2 15.51 119.1 15.02 118.87 14.33 118.7 13.64 118.52 12.23 118.23 10.82 118.19 10.82 118.25Z" fill="#5E5E5C"/></g></g></g><g><g><g><path d="M45.42 194.72 44.45 204.06C44.45 204.06 45.9 210.29 44.83 211.61 44.83 211.61 38.48 211.74 32.78 211.05 27.07 210.36 17.45 210.64 17.26 207.72 17.07 204.8 23.49 202.39 31.26 204.17 31.26 204.17 35.54 204.69 35.82 203.82 36.11 202.95 36.81 194.17 36.81 194.17L45.42 194.72Z" fill="#F9B799"/><path d="M45.42 194.72 44.45 204.06C44.45 204.06 45.9 210.29 44.83 211.61 44.83 211.61 38.48 211.74 32.78 211.05 27.07 210.36 17.45 210.64 17.26 207.72 17.07 204.8 23.49 202.39 31.26 204.17 31.26 204.17 35.54 204.69 35.82 203.82 36.11 202.95 36.81 194.17 36.81 194.17L45.42 194.72Z" fill="#FFBDC0" opacity="0.5"/><path d="M35.83 203.82C36.01 203.26 36.37 199.47 36.6 196.81 40.43 198 43.63 197.5 45.17 197.1L44.45 204.05C44.45 204.05 44.59 204.64 44.75 205.5 42.99 205.29 35.21 204.59 34.93 204.25L34.93 204.25C35.4 204.18 35.75 204.05 35.83 203.82Z" fill="#FFFFFF"/><path d="M39.55 200.88C42.48 201.51 43.4 198.77 42.77 197.5 43.77 197.42 44.58 197.25 45.16 197.1L44.5 203.45C41.63 203.66 37.52 203.96 35.54 204.08 35.68 204.01 35.78 203.93 35.82 203.82 35.95 203.44 36.15 201.52 36.35 199.49 37.13 200.04 38.18 200.59 39.55 200.88Z" fill="#7C9E38" opacity="0.2"/></g><g opacity="0.2"><path d="M26.14 204.29C26.13 204.51 26.46 204.7 26.88 204.72 27.29 204.75 27.64 204.59 27.65 204.37 27.66 204.15 27.33 203.96 26.92 203.94 26.5 203.92 26.16 204.08 26.14 204.29Z" fill="#7C9E38"/><path d="M22.94 204.5C22.97 204.84 23.53 205.07 24.19 205.02 24.85 204.97 25.37 204.65 25.34 204.31 25.31 203.97 24.76 203.74 24.09 203.79 23.44 203.85 22.92 204.17 22.94 204.5Z" fill="#7C9E38"/></g></g><path d="M17.26 207.72C17.07 204.8 22.63 201.68 31.26 204.17 31.26 204.17 35.54 204.69 35.82 203.82 35.88 203.63 36.02 202.05 36.11 201.28 39.36 202.54 42.7 202.64 44.67 201.85L44.44 204.06C44.44 204.06 45.89 210.29 44.82 211.61 44.82 211.61 38.47 211.74 32.77 211.05 27.07 210.36 17.45 210.64 17.26 207.72Z" fill="#423F3F"/><path d="M17.26 207.72C17.18 206.49 18.12 205.23 19.88 204.36 20.8 205.54 23.04 206.48 27.19 207.2 33.62 208.31 41.46 208.77 43.05 207.38 43.79 206.73 44.21 205.37 44.46 204.1 44.58 204.62 45.85 210.35 44.84 211.61 44.84 211.61 38.49 211.74 32.79 211.05 27.07 210.36 17.45 210.64 17.26 207.72Z" fill="#B91318" opacity="0.4"/><path d="M17.99 205.78C19.54 203.92 23.51 202.59 29.02 203.64 31.43 206.32 32.1 209.21 32.1 209.21 29.73 210.09 22.77 208.94 17.28 207.8 17.28 207.78 17.27 207.75 17.27 207.73 17.22 207.14 17.49 206.46 17.99 205.78Z" fill="#FFFFFF"/><path d="M36.12 206.23C35.54 206.46 34.17 205.27 33.16 204.31 33.66 204.33 34.19 204.33 34.64 204.28 35.46 204.89 36.78 205.97 36.12 206.23ZM31.42 204.19C32.33 205.19 33.48 206.33 34.04 206.16 34.65 205.98 33.71 204.99 32.95 204.31 32.29 204.28 31.69 204.22 31.42 204.19ZM35.83 203.82C35.75 204.05 35.4 204.18 34.93 204.25 35.95 205.2 37.31 206.4 37.9 206.17 38.82 205.81 35.83 203.82 35.83 203.82Z" fill="#FFFFFF"/><path d="M37.92 205.37C37.92 205.37 40.77 199.75 37.35 198.92 33.92 198.1 35.89 203.9 35.89 203.9L37.92 205.37Z" fill="#B93313"/><path d="M36.7 202.39C37.68 202.02 38.32 200.63 38.26 199.36 40.18 200.92 37.92 205.37 37.92 205.37L35.88 203.9C35.88 203.9 35.64 203.19 35.47 202.31 35.92 202.51 36.33 202.52 36.7 202.39Z" fill="#B91318" opacity="0.4"/><path d="M17.96 205.82C18.03 205.74 18.1 205.65 18.18 205.57 18.21 205.54 18.24 205.5 18.28 205.46 18.41 205.33 18.55 205.21 18.7 205.08 18.73 205.06 18.75 205.05 18.78 205.03 18.91 204.93 19.05 204.83 19.21 204.74 19.26 204.71 19.31 204.68 19.36 204.65 19.5 204.57 19.64 204.49 19.79 204.41 19.82 204.39 19.85 204.38 19.88 204.36 20.8 205.54 23.04 206.48 27.19 207.19 28.63 207.44 30.14 207.65 31.63 207.82 31.97 208.65 32.09 209.19 32.09 209.19 29.72 210.07 22.76 208.92 17.27 207.78 17.27 207.76 17.26 207.73 17.26 207.71 17.22 207.15 17.48 206.49 17.96 205.82Z" fill="#7C9E38" opacity="0.2"/><path d="M32.1 209.2C39.76 209.72 43.71 209.42 45.22 209.23 45.26 210.28 45.18 211.19 44.84 211.61 44.84 211.61 38.49 211.74 32.79 211.05 27.08 210.36 17.46 210.64 17.27 207.72 17.24 207.29 17.38 206.8 17.66 206.3 20.4 207.55 25.31 208.74 32.1 209.2Z" fill="#FFFFFF"/><path d="M45.14 209.84C43.64 210.02 39.68 210.33 32.03 209.81 25.24 209.35 20.33 208.15 17.58 206.9 17.44 207.16 17.33 207.42 17.26 207.67 17.25 207.25 17.38 206.78 17.65 206.3 20.4 207.55 25.3 208.74 32.09 209.21 39.75 209.73 43.7 209.43 45.21 209.24 45.23 209.85 45.21 210.4 45.13 210.85 45.15 210.53 45.15 210.19 45.14 209.84Z" fill="#7C9E38" opacity="0.4"/></g><g><g><g><path d="M94.86 156.71 102.88 151.83C102.88 151.83 106.96 146.9 108.66 146.95 108.66 146.95 112.61 151.92 115.52 156.88 118.43 161.84 124.48 169.33 122.27 171.24 120.06 173.16 114.26 169.51 110.97 162.25 110.97 162.25 108.79 158.53 107.92 158.83 107.05 159.13 99.64 163.89 99.64 163.89L94.86 156.71Z" fill="#F9B799"/><path d="M94.86 156.71 102.88 151.83C102.88 151.83 106.96 146.9 108.66 146.95 108.66 146.95 112.61 151.92 115.52 156.88 118.43 161.84 124.48 169.33 122.27 171.24 120.06 173.16 114.26 169.51 110.97 162.25 110.97 162.25 108.79 158.53 107.92 158.83 107.05 159.13 99.64 163.89 99.64 163.89L94.86 156.71Z" fill="#FFBDC0" opacity="0.5"/><path d="M107.91 158.82C107.36 159.01 104.13 161.03 101.87 162.45 100.49 158.68 98.16 156.44 96.91 155.45L102.88 151.81C102.88 151.81 103.27 151.34 103.85 150.69 104.75 152.22 108.9 158.84 108.8 159.27L108.8 159.27C108.46 158.95 108.14 158.74 107.91 158.82Z" fill="#FFFFFF"/><path d="M103.31 157.64C102.03 154.93 99.3 155.86 98.67 157.12 98 156.38 97.38 155.83 96.9 155.46L102.35 152.14C104.26 154.3 106.99 157.38 108.28 158.89 108.14 158.82 108.01 158.79 107.9 158.83 107.52 158.96 105.87 159.96 104.14 161.03 104.11 160.07 103.91 158.91 103.31 157.64Z" fill="#7C9E38" opacity="0.2"/></g><g opacity="0.2"><path d="M114.15 166.24C114.33 166.12 114.28 165.74 114.05 165.39 113.82 165.05 113.48 164.86 113.3 164.98 113.12 165.1 113.17 165.48 113.4 165.83 113.64 166.18 113.97 166.36 114.15 166.24Z" fill="#7C9E38"/><path d="M116.26 168.66C116.51 168.43 116.36 167.85 115.92 167.35 115.48 166.85 114.91 166.64 114.66 166.87 114.41 167.09 114.56 167.68 115 168.18 115.44 168.67 116 168.89 116.26 168.66Z" fill="#7C9E38"/></g></g><path d="M122.26 171.24C120.05 173.16 114.2 170.63 110.96 162.25 110.96 162.25 108.78 158.53 107.91 158.83 107.72 158.9 106.39 159.75 105.71 160.14 104.75 156.79 102.8 154.07 100.98 152.98L102.88 151.82C102.88 151.82 106.96 146.89 108.66 146.94 108.66 146.94 112.61 151.91 115.52 156.87 118.41 161.83 124.47 169.32 122.26 171.24Z" fill="#423F3F"/><path d="M122.26 171.24C121.33 172.05 119.75 172.06 118 171.19 118.39 169.75 117.77 167.39 115.83 163.66 112.82 157.87 108.43 151.35 106.37 150.93 105.4 150.73 104.06 151.22 102.91 151.8 103.25 151.39 107.04 146.9 108.66 146.95 108.66 146.95 112.61 151.92 115.52 156.88 118.41 161.83 124.47 169.32 122.26 171.24Z" fill="#423F3F" opacity="0.4"/><path d="M120.27 171.83C117.85 171.72 114.39 169.38 111.88 164.35 112.55 160.81 114.45 158.52 114.45 158.52 116.59 159.87 119.89 166.11 122.3 171.17 122.28 171.19 122.27 171.21 122.25 171.22 121.82 171.62 121.12 171.82 120.27 171.83Z" fill="#FFFFFF"/><path d="M109.65 157.13C110.18 157.46 110.06 159.26 109.92 160.65 109.63 160.24 109.31 159.82 109 159.49 108.99 158.47 109.05 156.76 109.65 157.13ZM110.87 162.1C111.11 160.77 111.33 159.17 110.85 158.82 110.33 158.44 110.12 159.8 110.03 160.81 110.42 161.36 110.73 161.87 110.87 162.1ZM107.91 158.82C108.14 158.74 108.46 158.94 108.8 159.28 108.94 157.89 109.07 156.08 108.53 155.75 107.68 155.24 107.91 158.82 107.91 158.82Z" fill="#FFFFFF"/><path d="M107.87 156.22C107.87 156.22 101.67 157.36 103.09 160.58 104.51 163.8 107.94 158.73 107.94 158.73L107.87 156.22Z" fill="#B93313"/><path d="M106.24 159C105.36 158.44 103.86 158.77 102.88 159.59 102.96 157.12 107.87 156.22 107.87 156.22L107.94 158.73C107.94 158.73 107.52 159.35 106.92 160.02 106.81 159.54 106.57 159.21 106.24 159Z" fill="#B91318" opacity="0.4"/><path d="M120.32 171.83C120.21 171.83 120.1 171.82 119.99 171.8 119.94 171.79 119.89 171.79 119.84 171.78 119.66 171.76 119.48 171.72 119.29 171.67 119.26 171.66 119.23 171.65 119.2 171.64 119.04 171.59 118.88 171.54 118.71 171.48 118.66 171.46 118.6 171.44 118.55 171.42 118.4 171.36 118.25 171.29 118.1 171.22 118.07 171.21 118.04 171.19 118.01 171.17 118.39 169.73 117.78 167.37 115.84 163.64 115.17 162.34 114.42 161.01 113.66 159.72 114.12 158.95 114.47 158.52 114.47 158.52 116.61 159.87 119.91 166.11 122.32 171.17 122.3 171.19 122.29 171.21 122.27 171.22 121.83 171.61 121.14 171.81 120.32 171.83Z" fill="#7C9E38" opacity="0.2"/><path d="M114.45 158.53C110.23 152.12 107.59 149.16 106.53 148.08 107.34 147.41 108.12 146.93 108.65 146.94 108.65 146.94 112.6 151.91 115.51 156.87 118.42 161.83 124.47 169.32 122.26 171.23 121.93 171.51 121.46 171.7 120.89 171.78 120.22 168.84 118.2 164.22 114.45 158.53Z" fill="#FFFFFF"/><path d="M107.06 147.77C108.12 148.85 110.76 151.81 114.98 158.22 118.72 163.91 120.75 168.53 121.42 171.48 121.72 171.44 121.99 171.36 122.22 171.27 121.89 171.54 121.44 171.71 120.89 171.79 120.22 168.84 118.2 164.22 114.45 158.53 110.23 152.12 107.59 149.16 106.53 148.08 107 147.69 107.45 147.37 107.86 147.17 107.6 147.34 107.33 147.54 107.06 147.77Z" fill="#7C9E38" opacity="0.4"/></g><g><path d="M94.38 152.15C90.52 154.04 89.52 153.25 84.29 152.73 79.06 152.21 71.86 144.9 69.6 139.25 67.34 133.6 65.61 123.54 65.61 123.54L65.61 123.54C65.57 123.25 65.53 123 65.49 122.81 65.16 121.08 64.56 117.57 63.97 114.12 63.07 114.18 62.17 114.27 61.28 114.38 53.64 116.24 45.84 116.95 38.22 115.59 35.78 115.49 33.36 115.21 30.98 114.68 31.16 124.87 26.62 159.03 28.34 165.97 29.57 170.93 31.04 186.7 34.03 195.39 34.99 198.19 36.37 199.95 39.04 199.84 43.24 199.66 47.28 198.46 47.68 194.12 48.47 185.6 42.77 169.72 42.93 163.82 43.07 158.7 44.76 136.89 45.88 135.81 46.56 135.15 48.33 135.92 49.76 137.3 52.05 142.32 58.85 156.19 66.28 161.83 75.42 168.77 99.43 170.6 103.01 163.98 106.58 157.37 98.25 150.25 94.38 152.15Z" fill="#2C82C7"/><g><g><g><g><g><path d="M94.38 152.15C90.52 154.04 89.52 153.25 84.29 152.73 79.06 152.21 71.86 144.9 69.6 139.25 67.82 134.82 66.38 127.67 65.84 124.8 65.81 124.81 65.79 124.81 65.77 124.82 65.67 123.94 65.57 123.24 65.49 122.81 65.16 121.08 64.56 117.57 63.97 114.12 63.07 114.18 62.17 114.27 61.28 114.38 53.64 116.24 45.84 116.95 38.22 115.59 35.78 115.49 33.36 115.21 30.98 114.68 30.98 114.86 30.98 115.06 30.99 115.26 34.48 116.55 40.24 118.04 44.5 117.92 50.86 117.74 55.17 117.15 55.17 117.15 55.17 117.15 54.95 122.26 57.38 124.47 58.68 125.65 60.51 126.64 61.94 127.31 62.8 132.69 64.36 138.1 66.78 142.98 68.16 145.76 69.91 148.18 71.2 150.92 72.56 153.81 75.51 155.53 77.28 158.12 78.38 159.74 78.95 163.45 76.73 164.44 75.38 165.05 73.64 163.78 72.33 163.41 70.08 162.78 67.85 162.1 65.66 161.3 65.87 161.47 66.07 161.66 66.28 161.81 75.42 168.75 99.43 170.58 103.01 163.96 106.58 157.37 98.25 150.25 94.38 152.15Z" fill="#2C82C7" opacity="0.3"/><path d="M48.6 136.37C48.68 136.42 48.76 136.48 48.84 136.53 48.9 136.57 48.96 136.62 49.02 136.66 49.13 136.75 49.25 136.84 49.36 136.94 49.43 136.99 49.49 137.05 49.55 137.11 49.62 137.17 49.69 137.24 49.76 137.31L50.31 137.3C48.96 135.76 43.57 129.85 41.39 131.21 38.89 132.77 43.45 133.72 43.45 133.72L40.41 135.72C40.41 135.72 42.78 136.09 42.47 138.01 41.5 143.95 40.26 149.85 39.3 155.8 38.78 159.03 39.22 162.22 38.81 165.35 38.48 167.87 35.02 175.39 31.83 171.94 31.21 171.27 31.17 168.48 30.83 167.55 30.18 165.77 27.98 163.57 27.96 161.64 27.98 163.04 28.05 164.24 28.18 165.17 28.2 165.3 28.22 165.43 28.24 165.56 28.24 165.58 28.25 165.59 28.25 165.61 28.28 165.74 28.3 165.87 28.33 165.99 29.56 170.95 31.03 186.72 34.02 195.41 34.98 198.21 36.36 199.97 39.03 199.86 43.23 199.68 47.27 198.48 47.67 194.14 48.44 185.84 43.06 170.56 42.93 164.32 42.93 164.15 42.92 163.99 42.93 163.84 43.07 158.72 44.76 136.91 45.88 135.83 45.94 135.77 46.02 135.73 46.1 135.69 46.12 135.68 46.15 135.67 46.17 135.66 46.23 135.64 46.3 135.62 46.37 135.61 46.4 135.61 46.43 135.6 46.46 135.6 46.56 135.59 46.66 135.59 46.77 135.6 46.78 135.6 46.8 135.6 46.81 135.61 46.91 135.62 47.02 135.65 47.12 135.67 47.16 135.68 47.2 135.69 47.25 135.71 47.34 135.74 47.42 135.77 47.51 135.8 47.55 135.82 47.6 135.83 47.64 135.85 47.76 135.9 47.89 135.96 48.02 136.03 48.06 136.05 48.1 136.08 48.14 136.1 48.23 136.15 48.33 136.21 48.42 136.27 48.48 136.29 48.54 136.33 48.6 136.37Z" fill="#2C82C7" opacity="0.3"/></g><g><path d="M39.82 156.36C39.63 156.32 39.67 154.98 39.67 154.98 39.67 154.98 40.01 153.7 40.19 153.74 40.38 153.78 40.34 155.11 40.34 155.11 40.34 155.11 40 156.39 39.82 156.36Z" fill="#0D5382"/><path d="M39.25 161.61C39.06 161.59 39.03 160.24 39.03 160.24 39.03 160.24 39.31 158.94 39.49 158.97 39.68 159 39.7 160.33 39.7 160.33 39.7 160.33 39.44 161.63 39.25 161.61Z" fill="#0D5382"/><path d="M39.89 170.88C39.89 170.88 39.66 169.56 39.84 169.5 40.02 169.44 40.54 170.62 40.54 170.62 40.54 170.62 40.77 171.92 40.59 172.01 40.41 172.09 39.89 170.88 39.89 170.88Z" fill="#0D5382"/><path d="M32.45 123.66C32.77 123.44 33.21 123.14 33.56 122.73 33.91 122.33 34.22 121.86 34.34 121.44 34.49 121.04 34.52 120.73 34.58 120.73 34.61 120.73 34.67 121.05 34.59 121.53 34.53 122.02 34.26 122.61 33.91 123.12 33.56 123.63 33.11 124.02 32.77 124.29 32.43 124.55 32.19 124.71 32.19 124.71 32.19 124.71 31.38 125.14 30.44 125.4 30.46 125.17 30.47 124.95 30.49 124.73 31.26 124.39 31.87 123.99 31.87 123.99 31.87 123.99 32.11 123.86 32.45 123.66Z" fill="#0D5382"/><path d="M39.32 166.91C39.14 166.95 38.84 165.62 38.84 165.62 38.84 165.62 38.93 164.26 39.12 164.26 39.31 164.26 39.52 165.55 39.52 165.55 39.52 165.55 39.51 166.87 39.32 166.91Z" fill="#0D5382"/><path d="M41.49 144.57C41.49 144.57 41.92 143.33 42.1 143.39 42.28 143.45 42.15 144.77 42.15 144.77 42.15 144.77 41.72 146.01 41.54 145.95 41.36 145.9 41.49 144.57 41.49 144.57Z" fill="#0D5382"/><path d="M41.6 175.84C41.6 175.84 41.31 174.54 41.47 174.46 41.65 174.37 42.23 175.53 42.23 175.53 42.23 175.53 42.53 176.83 42.35 176.91 42.18 177 41.6 175.84 41.6 175.84Z" fill="#0D5382"/><path d="M28.14 153.53C28.41 151.96 28.83 150.39 29.16 148.87 29.42 147.66 29.58 146.86 29.64 146.87 29.68 146.88 29.6 147.71 29.42 148.94 29.23 150.16 28.98 151.79 28.72 153.42 28.47 155.05 28.35 156.68 28.29 157.91 28.29 158.53 28.29 159.04 28.29 159.39 28.31 159.74 28.31 159.94 28.31 159.94 28.31 159.94 28.29 160.74 28.56 161.91 28.81 163.08 29.43 164.57 30.09 166.04 30.75 167.51 31.39 169.05 31.62 170.31 31.69 170.62 31.73 170.91 31.75 171.16 31.78 171.42 31.8 171.64 31.78 171.83 31.77 172.2 31.76 172.41 31.73 172.41 31.66 172.41 31.68 171.57 31.36 170.39 31.06 169.21 30.38 167.76 29.66 166.32 28.36 163.73 27.57 160.79 27.82 157.83 27.87 157.23 27.85 156.63 27.86 156.03 27.89 155.2 27.99 154.36 28.14 153.53Z" fill="#0D5382"/><path d="M43.15 179.4C43.33 179.33 43.78 180.6 43.78 180.6 43.78 180.6 43.81 181.99 43.62 182 43.43 182 43.12 180.77 43.12 180.77 43.11 180.77 42.97 179.48 43.15 179.4Z" fill="#0D5382"/><path d="M35.97 196.69C36 196.64 36.26 196.8 36.64 197 37.03 197.17 37.56 197.38 38.09 197.35 38.62 197.33 39.14 197.15 39.5 196.95 39.86 196.74 40.09 196.58 40.09 196.58 40.09 196.58 40.15 196.54 40.25 196.47 40.35 196.4 40.5 196.31 40.67 196.17 41.02 195.92 41.45 195.5 41.87 195.06 42.7 194.18 43.43 193.15 43.51 193.22 43.58 193.28 42.98 194.43 42.21 195.46 41.82 195.96 41.4 196.45 41.04 196.77 40.87 196.94 40.71 197.06 40.6 197.14 40.49 197.22 40.43 197.27 40.43 197.27 40.43 197.27 40.16 197.44 39.74 197.63 39.31 197.82 38.69 197.97 38.08 197.91 37.46 197.86 36.9 197.54 36.52 197.27 36.16 196.97 35.95 196.73 35.97 196.69Z" fill="#0D5382"/><path d="M49.75 137.31 50.38 137.29C49.9 136.56 49.36 135.92 48.93 135.45 48.41 134.91 48.05 134.58 48.05 134.58 48.05 134.58 47.67 134.26 47.09 133.83 46.5 133.41 45.7 132.89 44.86 132.45 43.19 131.56 41.41 131.09 41.39 131.2 41.36 131.31 43.08 131.97 44.65 132.96 46.06 133.81 47.3 134.91 47.58 135.16 47.24 134.96 47.01 134.84 47.01 134.84 47.01 134.84 45.57 134.22 44.07 134.05 42.57 133.85 41.09 134.09 41.1 134.19 41.11 134.3 42.35 134.28 43.65 134.54 43.53 134.7 43.43 134.95 43.43 134.95 43.43 134.95 43.49 135.61 43.67 135.65 43.86 135.69 44.1 135.1 44.1 135.1 44.1 135.1 44.08 134.82 44.01 134.62 45.37 134.91 46.62 135.53 46.74 135.58 47.59 135.67 48.75 136.34 49.75 137.31Z" fill="#0D5382"/><path d="M39.34 117.1C39.95 117.26 40.55 117.38 41.15 117.49 41.12 117.64 41.08 117.8 41.05 117.97 40.92 118.75 40.77 119.8 40.79 120.88 40.78 121.42 40.84 121.96 40.88 122.46 40.97 122.96 41.03 123.43 41.16 123.82 41.21 124.02 41.26 124.2 41.31 124.36 41.37 124.51 41.42 124.65 41.46 124.76 41.55 124.98 41.59 125.1 41.59 125.1 41.59 125.1 41.64 125.23 41.76 125.43 41.88 125.62 42.02 125.94 42.25 126.25 42.67 126.92 43.37 127.66 44.11 128.29 45.61 129.55 47.32 130.29 47.35 130.21 47.37 130.17 47.15 130.01 46.8 129.76 46.82 129.56 46.35 128.22 45.93 126.86 45.49 125.41 45.16 123.93 45.16 123.93 45.16 123.93 45.08 123.56 44.95 123.01 44.8 122.46 44.73 121.72 44.61 120.97 44.46 119.5 44.59 118.02 44.49 117.92 44.71 117.94 44.93 117.95 45.14 117.97 46.73 118.04 47.8 118.03 47.8 118.03 47.8 118.03 48.07 118.01 48.53 117.99 48.99 117.95 49.66 117.95 50.45 117.85 51.76 117.73 53.43 117.49 55.14 117.16 55.11 117.43 55.08 118.01 55.13 118.79 55.18 119.84 55.45 121.2 55.87 122.52L55.87 122.52C55.86 122.53 55.87 122.56 55.9 122.61 55.91 122.63 55.91 122.64 55.92 122.66 56.41 124.01 57.06 125.27 57.64 126.13 57.91 126.58 58.2 126.9 58.37 127.15 58.55 127.39 58.66 127.52 58.66 127.52 58.66 127.52 58.78 127.64 58.99 127.85 59.21 128.05 59.48 128.39 59.87 128.7 60.61 129.38 61.71 130.11 62.87 130.66 63.38 130.88 63.9 131.05 64.4 131.18 64.5 131.32 64.61 131.45 64.71 131.42 64.76 131.41 64.79 131.35 64.82 131.28 65.31 131.39 65.79 131.46 66.2 131.48 66.45 131.49 66.68 131.49 66.88 131.48 66.87 131.4 66.86 131.32 66.85 131.24 66.66 131.22 66.45 131.19 66.22 131.16 65.82 131.1 65.37 130.99 64.89 130.85 64.9 130.76 64.9 130.7 64.9 130.7 64.9 130.7 64.61 130.12 64.43 130.18 64.33 130.21 64.28 130.45 64.26 130.64 63.86 130.49 63.45 130.33 63.05 130.13 61.96 129.54 60.94 128.8 60.26 128.12 59.89 127.82 59.65 127.48 59.45 127.28 59.26 127.07 59.15 126.95 59.15 126.95 59.15 126.95 59.05 126.83 58.87 126.6 58.7 126.37 58.41 126.08 58.14 125.67 57.89 125.33 57.63 124.92 57.38 124.47 57.63 124.72 57.9 124.98 58.17 125.25 58.5 125.54 58.85 125.78 59.18 126.03 59.5 126.29 59.82 126.49 60.1 126.64 60.65 126.96 61.02 127.17 61.02 127.17 61.02 127.17 62.56 127.83 64.14 128.24 65.02 128.46 65.87 128.65 66.49 128.76 66.48 128.65 66.46 128.55 66.44 128.45 65.86 128.24 65.06 127.97 64.26 127.7 62.73 127.15 61.28 126.44 61.28 126.44 61.28 126.44 60.92 126.26 60.37 125.98 60.09 125.85 59.78 125.68 59.46 125.46 59.14 125.25 58.78 125.04 58.45 124.79 57.81 124.31 57.23 123.76 56.78 123.31 56.65 123.03 56.51 122.74 56.39 122.44 55.91 121.16 55.56 119.8 55.43 118.75 55.33 117.98 55.29 117.4 55.26 117.14 55.59 117.08 55.93 117.01 56.26 116.94 58.34 116.47 60.39 115.91 61.91 115.38 62.67 115.14 63.3 114.89 63.74 114.72 63.87 114.67 63.99 114.62 64.08 114.58 64.07 114.54 64.07 114.51 64.06 114.47 63.64 114.58 62.86 114.8 61.84 115.08 60.31 115.51 58.24 115.98 56.17 116.38 54.09 116.75 52.01 117.01 50.44 117.11 49.66 117.19 49 117.17 48.55 117.2 48.09 117.22 47.83 117.23 47.83 117.23 47.83 117.23 46.78 117.26 45.21 117.23 44.14 117.19 42.82 117.09 41.44 116.89 41.44 116.78 41.44 116.71 41.42 116.7 41.41 116.7 41.38 116.77 41.35 116.87 40.73 116.78 40.1 116.67 39.48 116.53 38.19 116.23 36.91 115.85 35.78 115.42 35.37 115.38 34.96 115.34 34.55 115.29 35.86 116 37.59 116.62 39.34 117.1ZM41.36 117.53C42.48 117.73 43.55 117.85 44.49 117.93 44.4 118 44.11 119.47 44.14 121.01 44.19 121.79 44.23 122.59 44.35 123.17 44.45 123.75 44.51 124.14 44.51 124.14 44.51 124.14 44.92 125.65 45.49 127.07 45.96 128.23 46.49 129.34 46.7 129.68 46.11 129.26 45.22 128.62 44.41 127.84 43.74 127.18 43.12 126.44 42.76 125.81 42.55 125.51 42.45 125.22 42.34 125.04 42.24 124.86 42.2 124.74 42.2 124.74 42.2 124.74 42.15 124.63 42.07 124.43 42.03 124.33 41.98 124.21 41.91 124.08 41.86 123.94 41.81 123.78 41.75 123.6 41.62 123.25 41.54 122.82 41.43 122.36 41.37 121.89 41.28 121.39 41.26 120.88 41.18 119.6 41.29 118.32 41.36 117.53Z" fill="#0D5382"/><path d="M40.6 151.14C40.42 151.1 40.47 149.76 40.47 149.76 40.47 149.76 40.84 148.49 41.03 148.54 41.21 148.59 41.14 149.92 41.14 149.92 41.14 149.92 40.79 151.18 40.6 151.14Z" fill="#0D5382"/><path d="M43.2 138.25C43.39 138.3 43.27 139.63 43.27 139.63 43.27 139.63 42.85 140.88 42.67 140.82 42.49 140.76 42.6 139.43 42.6 139.43 42.6 139.43 43.02 138.2 43.2 138.25Z" fill="#0D5382"/><path d="M44.25 186.64C44.06 186.64 43.77 185.39 43.77 185.39 43.77 185.39 43.79 184.11 43.97 184.07 44.15 184.03 44.45 185.31 44.45 185.31 44.45 185.31 44.44 186.64 44.25 186.64Z" fill="#0D5382"/><path d="M45.08 191.7C44.89 191.71 44.5 190.5 44.5 190.5 44.5 190.5 44.42 189.23 44.6 189.17 44.78 189.12 45.17 190.37 45.17 190.37 45.17 190.37 45.27 191.69 45.08 191.7Z" fill="#0D5382"/><path d="M45.69 197.08C45.5 197.08 45.2 195.84 45.2 195.84 45.2 195.84 45.21 194.56 45.4 194.52 45.59 194.48 45.88 195.76 45.88 195.76 45.88 195.76 45.88 197.08 45.69 197.08Z" fill="#0D5382"/><path d="M30.2 128.52C30.74 128.26 31.32 127.81 31.83 127.29 32.51 126.62 33.01 125.73 33.39 125.09 33.55 124.75 33.69 124.46 33.78 124.26 33.88 124.06 33.92 123.94 33.92 123.94 33.92 123.94 33.97 123.82 34.06 123.62 34.14 123.41 34.29 123.13 34.41 122.77 34.67 122.05 34.96 121.05 35.12 120.02 35.26 118.99 35.32 117.92 35.2 117.14 35.18 116.74 35.08 116.43 35.05 116.2 35.01 115.97 34.99 115.83 35.01 115.82 35.03 115.81 35.09 115.93 35.18 116.14 35.26 116.36 35.41 116.67 35.47 117.08 35.68 117.88 35.69 119 35.61 120.1 35.51 121.2 35.25 122.27 35 123.05 34.89 123.45 34.75 123.75 34.67 123.98 34.59 124.2 34.54 124.32 34.54 124.32 34.54 124.32 34.49 124.45 34.38 124.65 34.27 124.86 34.11 125.15 33.92 125.5 33.49 126.16 32.92 127.06 32.15 127.73 31.52 128.29 30.82 128.73 30.18 128.92 30.18 128.77 30.19 128.65 30.2 128.52Z" fill="#0D5382"/></g></g><g><g><path d="M29.77 157.46C29.99 157.49 30.21 157.11 30.26 156.61 30.31 156.11 30.17 155.68 29.94 155.65 29.72 155.62 29.5 156 29.46 156.5 29.41 156.99 29.55 157.42 29.77 157.46Z" fill="#53ADEA"/><path d="M29.81 161.33C30.16 161.32 30.43 160.66 30.41 159.86 30.39 159.06 30.1 158.41 29.75 158.42 29.4 158.43 29.13 159.08 29.15 159.88 29.16 160.69 29.46 161.33 29.81 161.33Z" fill="#53ADEA"/></g></g></g></g><path d="M30.96 116.9C30.97 116.54 30.98 116.19 30.98 115.86 30.98 115.84 30.98 115.83 30.98 115.81 31.05 115.56 31.12 115.34 31.17 115.18 31.22 115.03 31.27 114.89 31.31 114.75 33.58 115.23 35.89 115.5 38.21 115.59 45.84 116.95 53.63 116.24 61.27 114.38 62.16 114.27 63.06 114.18 63.96 114.12 64.08 114.79 64.19 115.46 64.3 116.12 64.49 117.23 64.68 118.32 64.85 119.3 63.14 120.37 56.95 123.81 47.89 124.04 38.27 124.29 31.74 119.66 31.03 118.39 30.97 118.3 30.94 118.19 30.9 118.09 30.9 118.07 30.9 118.05 30.9 118.03 30.93 117.65 30.95 117.27 30.96 116.9 30.96 116.91 30.96 116.9 30.96 116.9Z" fill="#2C82C7" opacity="0.3"/></g><g><g><path d="M64.29 132.12C64.31 132.52 63.94 132.87 63.94 132.87 63.94 132.87 63.53 132.58 63.51 132.16 63.49 131.74 63.86 131.41 63.86 131.41 63.86 131.41 64.27 131.73 64.29 132.12Z" fill="#0D5382"/></g><g><path d="M65.17 137.12C65.39 137.89 65.2 138.65 65.2 138.65 65.2 138.65 64.65 138.14 64.42 137.33 64.19 136.53 64.39 135.8 64.39 135.8 64.39 135.8 64.95 136.35 65.17 137.12Z" fill="#0D5382"/></g><g><path d="M67.38 142.51C67.77 143.22 67.75 144 67.75 144 67.75 144 67.1 143.62 66.7 142.89 66.3 142.16 66.33 141.4 66.33 141.4 66.33 141.39 67 141.8 67.38 142.51Z" fill="#0D5382"/></g><g><path d="M70.69 147.31C71.21 147.92 71.35 148.69 71.35 148.69 71.35 148.69 70.63 148.45 70.09 147.81 69.55 147.18 69.43 146.43 69.43 146.43 69.43 146.43 70.16 146.7 70.69 147.31Z" fill="#0D5382"/></g><g><path d="M74.89 151.35C75.52 151.85 75.82 152.57 75.82 152.57 75.82 152.57 75.07 152.48 74.41 151.96 73.75 151.45 73.49 150.74 73.49 150.74 73.49 150.74 74.26 150.86 74.89 151.35Z" fill="#0D5382"/></g><g><path d="M79.83 154.45C80.55 154.8 80.99 155.45 80.99 155.45 80.99 155.45 80.24 155.52 79.49 155.15 78.74 154.79 78.33 154.15 78.33 154.15 78.33 154.15 79.11 154.1 79.83 154.45Z" fill="#0D5382"/></g><g><path d="M85.32 156.35C86.1 156.52 86.69 157.04 86.69 157.04 86.69 157.04 85.98 157.29 85.16 157.11 84.34 156.93 83.79 156.42 83.79 156.42 83.79 156.42 84.54 156.18 85.32 156.35Z" fill="#0D5382"/></g><g><path d="M91.09 156.85C91.88 156.77 92.59 157.09 92.59 157.1 92.59 157.1 91.98 157.55 91.14 157.63 90.3 157.65 89.64 157.28 89.64 157.28 89.64 157.28 90.3 156.87 91.09 156.85Z" fill="#0D5382"/></g><g><path d="M96.85 155.74C97.69 155.6 98.39 155.89 98.39 155.89 98.39 155.89 97.78 156.38 97.01 156.5 96.23 156.69 95.49 156.46 95.49 156.46 95.49 156.46 96.04 155.93 96.85 155.74Z" fill="#0D5382"/></g><g><path d="M102.14 156.16C102.54 156.34 102.65 156.82 102.65 156.82 102.65 156.82 102.17 157.03 101.82 156.87 101.48 156.71 101.31 156.21 101.31 156.21 101.31 156.22 101.75 155.99 102.14 156.16Z" fill="#0D5382"/></g></g><g><g><path d="M64.48 157.71C64.67 157.59 64.59 157.16 64.31 156.74 64.02 156.33 63.64 156.09 63.45 156.21 63.26 156.33 63.34 156.76 63.62 157.17 63.91 157.58 64.29 157.82 64.48 157.71Z" fill="#53ADEA"/><path d="M66.99 160.66C67.26 160.43 67.04 159.75 66.51 159.15 65.98 158.54 65.34 158.24 65.08 158.47 64.82 158.7 65.03 159.37 65.56 159.98 66.09 160.58 66.73 160.88 66.99 160.66Z" fill="#53ADEA"/></g></g><g><path d="M74.15 164.24C74.13 164.35 71.94 164.09 69.77 163.58 68.69 163.29 67.61 162.96 66.85 162.56 66.46 162.39 66.15 162.2 65.94 162.06 65.73 161.93 65.6 161.85 65.6 161.85 65.6 161.84 65.47 161.79 65.29 161.6 65.1 161.42 64.82 161.19 64.52 160.88 63.94 160.24 63.3 159.31 62.7 158.42 62.05 157.58 61.3 156.74 60.86 156.02 60.42 155.3 60.27 154.75 60.31 154.74 60.39 154.71 60.65 155.19 61.15 155.81 61.66 156.44 62.46 157.17 63.21 158.02 63.9 158.9 64.57 159.74 65.13 160.29 65.42 160.56 65.67 160.75 65.84 160.9 66 161.05 66.14 161.1 66.13 161.11 66.13 161.11 66.24 161.18 66.43 161.31 66.62 161.44 66.88 161.63 67.24 161.81 67.92 162.22 68.93 162.6 69.96 162.96 72.02 163.6 74.19 164.1 74.15 164.24Z" fill="#0D5382"/></g></g><g><g><path d="M63.08 60C62.66 59.7 53.25 56.03 45.37 56.07 37.49 56.11 30.96 59.36 26.15 62.62 25.39 78.17 24.5 78.23 27.58 95.59 29.96 109.03 30.07 111.82 30.07 111.82 30.07 111.82 29.26 114 30.06 115.15 30.86 116.3 37.77 120.2 47.44 119.29 58.22 118.27 64.66 113.28 64.66 113.28 64.72 112.14 64.2 111.31 63.38 109.9 62.93 108.89 63.63 84.3 63.63 84.3 63.63 84.3 66.96 62.79 63.08 60Z" fill="#5E5E5C"/><path d="M30.06 115.16C29.43 114.27 29.79 112.75 29.97 112.12 46.41 120.97 59.83 112.92 63.57 110.24 64.28 111.45 64.71 112.24 64.66 113.29 64.66 113.29 58.22 118.28 47.44 119.3 37.77 120.21 30.86 116.31 30.06 115.16Z" fill="#5E5E5C"/><path d="M45.37 56.08C53.25 56.03 62.65 59.71 63.08 60.01 63.61 60.39 64.01 61.13 64.29 62.11 63.58 62.48 62.83 62.57 62.09 62.21L51.42 58.31C51.42 58.31 47.39 62.58 42.55 62.13 37.4 61.65 37.12 58.79 37.12 58.79L26.12 63.35C26.14 62.89 26.15 62.63 26.15 62.63 30.96 59.37 37.49 56.12 45.37 56.08Z" fill="#5E5E5C"/><g opacity="0.4"><g><path d="M43.08 64C43.08 64.1 44.24 64.16 45.39 63.97 46.54 63.79 47.64 63.35 47.64 63.35 47.64 63.35 47.9 63.22 48.29 63 48.67 62.77 49.16 62.44 49.6 62.04 50.03 61.64 50.42 61.18 50.64 60.79 50.87 60.41 50.96 60.13 50.92 60.11 50.87 60.08 50.7 60.31 50.41 60.62 50.13 60.94 49.72 61.31 49.28 61.63 48.39 62.28 47.35 62.67 47.35 62.67 47.35 62.67 46.36 63.16 45.28 63.46 44.21 63.77 43.08 63.9 43.08 64Z" fill="#5E5E5C"/></g><g><path d="M36.02 61.87C35.96 61.94 36.67 62.72 37.52 63.37 38.38 64 39.36 64.46 39.36 64.46 39.36 64.46 39.62 64.54 40 64.66 40.19 64.72 40.42 64.78 40.66 64.82 40.9 64.86 41.16 64.92 41.43 64.95 42.49 65.07 43.53 64.93 43.52 64.84 43.51 64.72 42.49 64.68 41.51 64.44 41.27 64.38 41.03 64.29 40.8 64.23 40.58 64.17 40.37 64.09 40.2 64.01 39.85 63.87 39.62 63.77 39.62 63.77 39.62 63.77 38.68 63.42 37.79 62.93 36.91 62.42 36.09 61.79 36.02 61.87Z" fill="#5E5E5C"/></g><g><path d="M42.83 114.3C42.82 114.34 43.41 114.5 44.31 114.63 45.21 114.76 46.42 114.79 47.63 114.71 48.84 114.6 50.03 114.39 50.91 114.18 51.79 113.97 52.37 113.8 52.37 113.8 52.37 113.8 52.51 113.75 52.76 113.66 53.01 113.57 53.37 113.46 53.79 113.29 54.63 112.97 55.73 112.5 56.82 112 57.9 111.49 58.97 110.96 59.77 110.54 60.56 110.12 61.09 109.83 61.06 109.78 61.02 109.68 58.82 110.62 56.62 111.52 55.52 111.96 54.41 112.38 53.56 112.65 53.14 112.8 52.79 112.9 52.54 112.98 52.29 113.06 52.15 113.1 52.15 113.1 52.15 113.1 51.59 113.28 50.74 113.53 49.89 113.78 48.74 114.03 47.57 114.2 46.4 114.34 45.22 114.39 44.32 114.35 43.43 114.31 42.84 114.24 42.83 114.3Z" fill="#5E5E5C"/></g><g><path d="M33.96 111.29C33.94 111.34 34.28 111.52 34.8 111.76 35.32 112.03 36.05 112.26 36.79 112.5 37.16 112.61 37.54 112.67 37.9 112.75 38.08 112.79 38.25 112.82 38.41 112.86 38.58 112.88 38.73 112.9 38.87 112.91 39.45 112.98 39.83 113.02 39.83 113.02 39.83 113.02 41.37 113.03 42.88 112.88 44.39 112.72 45.89 112.54 45.88 112.44 45.88 112.34 44.35 112.34 42.84 112.36 41.33 112.38 39.84 112.29 39.84 112.29 39.84 112.29 39.47 112.27 38.91 112.24 38.77 112.23 38.62 112.23 38.46 112.22 38.3 112.2 38.13 112.18 37.96 112.15 37.61 112.1 37.24 112.07 36.87 112 36.14 111.84 35.4 111.69 34.86 111.5 34.35 111.33 33.98 111.24 33.96 111.29Z" fill="#5E5E5C"/></g><g><path d="M62.14 98.46C62.26 98.44 62.15 97.22 62.34 96.03 62.38 95.73 62.46 95.44 62.51 95.16 62.56 94.89 62.62 94.63 62.69 94.41 62.81 93.97 62.89 93.68 62.89 93.68 62.89 93.68 63.17 92.49 63.45 91.3 63.73 90.09 63.83 88.85 63.74 88.84 63.63 88.82 63.35 90.01 62.96 91.15 62.56 92.3 62.19 93.48 62.19 93.48 62.19 93.48 62.13 93.79 62.04 94.25 61.99 94.48 61.95 94.75 61.92 95.05 61.89 95.35 61.84 95.65 61.83 95.97 61.78 97.24 62.07 98.48 62.14 98.46Z" fill="#5E5E5C"/></g></g><path d="M64.63 113.31C64.62 113.31 64.61 113.32 64.6 113.33 64.6 113.33 64.59 113.34 64.58 113.35 64.56 113.37 64.53 113.38 64.5 113.4 64.49 113.41 64.48 113.41 64.48 113.42 64.46 113.44 64.43 113.46 64.4 113.48 64.38 113.49 64.37 113.5 64.35 113.52 64.34 113.53 64.32 113.54 64.31 113.54 64.3 113.55 64.28 113.56 64.27 113.57 64.24 113.59 64.22 113.61 64.19 113.63 64.15 113.65 64.11 113.68 64.07 113.71 64.04 113.73 64.02 113.75 63.98 113.77 63.97 113.78 63.95 113.79 63.94 113.8 63.84 113.86 63.73 113.93 63.62 114.01 63.59 114.03 63.56 114.05 63.53 114.07 63.49 114.09 63.46 114.12 63.42 114.14 63.36 114.18 63.3 114.21 63.24 114.25 63.19 114.28 63.13 114.31 63.08 114.34 63.06 114.35 63.03 114.37 63.01 114.38 62.99 114.39 62.97 114.4 62.95 114.41 62.88 114.45 62.81 114.49 62.74 114.54 62.7 114.56 62.66 114.58 62.62 114.61 62.54 114.65 62.46 114.7 62.38 114.75 62.37 114.75 62.36 114.76 62.35 114.77 62.31 114.79 62.28 114.81 62.24 114.83 62.16 114.88 62.08 114.92 61.99 114.97 61.98 114.97 61.98 114.97 61.98 114.97 61.94 114.99 61.91 115.01 61.87 115.03 61.71 115.12 61.55 115.2 61.38 115.29 61.37 115.3 61.35 115.31 61.34 115.31 61.16 115.4 60.98 115.49 60.78 115.59 60.76 115.6 60.74 115.61 60.72 115.62 60.6 115.68 60.49 115.73 60.37 115.79 60.36 115.79 60.35 115.8 60.34 115.81 60.3 115.83 60.27 115.84 60.23 115.86 60.13 115.91 60.02 115.96 59.91 116.01 59.84 116.04 59.78 116.07 59.72 116.1 59.6 116.15 59.49 116.2 59.37 116.26 59.3 116.29 59.23 116.32 59.16 116.35 59.04 116.4 58.92 116.45 58.8 116.5 58.74 116.53 58.67 116.55 58.61 116.58 58.48 116.64 58.34 116.69 58.21 116.75 58.19 116.76 58.17 116.76 58.15 116.77 58.13 116.78 58.12 116.78 58.1 116.79 57.85 116.89 57.59 116.99 57.33 117.08 57.32 117.09 57.3 117.09 57.29 117.1 57.03 117.19 56.77 117.29 56.5 117.38 56.45 117.4 56.4 117.41 56.34 117.43 56.2 117.48 56.04 117.53 55.9 117.58 55.84 117.6 55.78 117.62 55.72 117.63 55.7 117.64 55.68 117.64 55.66 117.65 55.51 117.7 55.35 117.75 55.19 117.8 55.11 117.83 55.03 117.85 54.94 117.87 54.78 117.92 54.63 117.96 54.47 118.01 54.45 118.02 54.43 118.02 54.41 118.03 54.34 118.05 54.28 118.07 54.21 118.09 54.05 118.13 53.88 118.18 53.72 118.22 53.64 118.24 53.55 118.26 53.47 118.29 53.3 118.33 53.12 118.38 52.95 118.42 52.88 118.44 52.82 118.45 52.75 118.47 52.31 118.57 51.85 118.67 51.39 118.76 55.84 117.01 57.7 115.02 53.69 115.98 46.41 117.72 40.97 117.32 35.43 115.87 32.73 115.17 30.93 114.03 29.8 113.06 29.9 112.39 30.1 111.87 30.1 111.87 30.1 111.87 30.1 111.85 30.1 111.79 30.1 111.78 30.1 111.77 30.1 111.76 30.1 111.74 30.1 111.72 30.1 111.69 30.1 111.68 30.1 111.68 30.1 111.67 30.1 111.67 30.1 111.66 30.1 111.66 30.09 111.58 30.08 111.46 30.07 111.31 30.07 111.3 30.07 111.3 30.07 111.29 30.07 111.28 30.07 111.28 30.07 111.27 30.07 111.23 30.06 111.18 30.05 111.12 30.05 111.11 30.05 111.1 30.05 111.09 30.04 111.03 30.04 110.97 30.03 110.9 30.03 110.89 30.03 110.88 30.03 110.87 29.93 109.94 29.71 108.22 29.25 105.28 29.24 105.22 29.23 105.16 29.22 105.11 29.19 104.93 29.16 104.75 29.13 104.56 29.11 104.41 29.08 104.25 29.06 104.09 29.04 103.99 29.03 103.9 29.01 103.8 29 103.76 29 103.72 28.99 103.67 33.21 111.84 39.84 114.04 49.48 110.99 54.14 109.51 56.16 104.12 57.23 99.72 57.89 97 57.57 94.56 57.68 91.85 57.81 88.64 57.94 85.41 58.06 82.19 58.27 76.49 58.02 70.72 57.6 65.03 57.44 62.87 57.5 59.97 55.62 58.68 54.14 57.67 52.32 57.41 50.77 56.53 57.03 57.51 62.81 59.78 63.14 60.02 64.29 60.84 64.81 63.31 64.96 66.37L64.96 66.37C65.31 73.18 63.9 82.95 63.71 84.18 63.71 84.19 63.71 84.2 63.71 84.21 63.71 84.23 63.7 84.25 63.7 84.26 63.7 84.29 63.69 84.3 63.69 84.3 63.69 84.3 62.99 108.89 63.44 109.9 64.27 111.31 64.78 112.14 64.72 113.28 64.66 113.29 64.65 113.29 64.63 113.31 64.63 113.31 64.63 113.31 64.63 113.31Z" fill="#5E5E5C" opacity="0.4"/></g><g opacity="0.4"><path d="M47.23 65.41C47.14 65.17 46.7 65.11 46.25 65.28 45.8 65.44 45.5 65.77 45.59 66.01 45.68 66.25 46.11 66.31 46.56 66.15 47.02 65.98 47.31 65.65 47.23 65.41Z" fill="#5E5E5C"/><path d="M50.52 63.72C50.34 63.36 49.64 63.37 48.96 63.73 48.28 64.09 47.88 64.67 48.07 65.03 48.25 65.38 48.95 65.38 49.63 65.03 50.3 64.66 50.71 64.08 50.52 63.72Z" fill="#5E5E5C"/></g><g opacity="0.4"><path d="M27.62 86.41C27.87 86.39 28.04 85.98 28 85.49 27.96 85 27.73 84.61 27.48 84.63 27.23 84.65 27.06 85.06 27.1 85.55 27.14 86.05 27.37 86.43 27.62 86.41Z" fill="#5E5E5C"/><path d="M28.36 90.12C28.74 90.04 28.92 89.35 28.76 88.58 28.6 87.81 28.15 87.26 27.77 87.34 27.39 87.42 27.21 88.11 27.37 88.88 27.53 89.65 27.98 90.21 28.36 90.12Z" fill="#5E5E5C"/></g><path d="M45.37 56.08C46.35 56.07 47.36 56.13 48.37 56.22 48.37 56.22 48.38 56.23 48.38 56.23 48.38 56.23 50.45 57.26 49.78 58.2 49.1 59.14 45.98 61.27 42.22 60.58 38.47 59.88 38.35 57.88 39.11 56.93 39.16 56.87 39.25 56.8 39.36 56.74 41.27 56.33 43.27 56.09 45.37 56.08Z" fill="#5E5E5C" opacity="0.4"/></g><g><path d="M53.7 43.3 57.06 50.9C57.06 50.9 55.06 56.6 49.03 55.07L45.5 49.3 53.7 43.3Z" fill="#F9B799"/><path d="M57.06 50.9C57.06 50.9 55.06 56.6 49.03 55.07L48.83 54.74C56.71 54.65 53.83 46.43 52.84 47.1 52.04 47.64 48.28 49.85 46.47 50.91L45.49 49.31 53.69 43.31 57.06 50.9Z" fill="#FCE8D9" opacity="0.5"/></g><g><g><g><path d="M67.39 90.43C67.44 86.59 67.02 82.76 66.59 78.94 66.32 76.54 66.28 74.09 66.05 71.67 65.77 68.66 65.31 65.7 65.11 62.69 65.04 61.7 65.2 60.63 64.38 59.89 63.05 58.68 60.9 60.12 59.73 60.93 59.03 61.41 58.44 61.98 57.83 62.6 56.6 63.84 55.37 64.8 54.42 66.28 53.21 68.16 52.2 70.04 51.55 72.2 50.95 74.2 50.33 76.73 50.62 78.85 50.62 78.85 51.68 86.53 52.58 91.36 52.45 91.37 52.33 91.39 52.22 91.4 49.37 91.76 29.4 84.01 29.4 84.01 24.29 86.65 25.07 94.38 25.07 94.38 35.53 99.23 46.28 104.62 53.92 105.97 55.86 106.31 57.63 106.22 59.56 105.89 61.35 105.58 62.8 104 63.86 102.61 64.6 101.64 65.1 100.48 65.57 99.37 66.76 96.66 67.35 93.34 67.39 90.43Z" stroke="#84847B" stroke-miterlimit="10" fill="#5E5E5C"/><g><g><path d="M61.54 105.45C61.57 105.48 62 105.11 62.56 104.46 63.13 103.82 63.78 102.88 64.36 101.9 64.93 100.91 65.41 99.87 65.74 99.08 66.06 98.29 66.26 97.75 66.26 97.75 66.26 97.75 66.43 97.21 66.64 96.38 66.86 95.55 67.1 94.44 67.28 93.31 67.64 91.06 67.65 88.77 67.54 88.77 67.43 88.77 67.24 91.02 66.75 93.21 66.51 94.3 66.22 95.38 65.97 96.18 65.72 96.98 65.54 97.5 65.53 97.5 65.53 97.5 65.36 98.03 65.08 98.82 64.8 99.61 64.38 100.64 63.88 101.64 63.37 102.63 62.81 103.6 62.31 104.28 61.85 104.97 61.49 105.41 61.54 105.45Z" stroke="#84847B" stroke-miterlimit="10" fill="#5E5E5C"/></g><g><path d="M53.06 92.01C52.92 91.03 52.76 90.01 52.59 88.98 52.21 86.73 51.82 84.49 51.61 82.81 51.39 81.12 51.31 80 51.31 80 51.31 80 51.29 79.72 51.25 79.23 51.21 78.74 51.17 78.03 51.17 77.2 51.15 76.35 51.21 75.37 51.31 74.33 51.44 73.29 51.67 72.19 52 71.13 52.33 70.06 52.83 69.06 53.36 68.15 53.5 67.93 53.64 67.71 53.77 67.49 53.91 67.28 54.07 67.09 54.21 66.89 54.49 66.49 54.8 66.16 55.08 65.84 56.22 64.59 57.15 63.9 57.09 63.84 57.08 63.82 56.84 63.98 56.43 64.28 56.02 64.57 55.48 65.04 54.86 65.64 54.57 65.96 54.22 66.28 53.93 66.67 53.77 66.86 53.61 67.05 53.46 67.27 53.31 67.48 53.16 67.7 53.01 67.92 52.43 68.83 51.88 69.85 51.51 70.95 51.13 72.04 50.86 73.16 50.7 74.23 50.56 75.3 50.48 76.31 50.48 77.18 50.46 78.04 50.49 78.76 50.52 79.27 50.55 79.78 50.57 80.06 50.57 80.06 50.57 80.06 50.67 81.21 50.93 82.9 51.18 84.6 51.63 86.84 52.07 89.07 52.28 90.1 52.48 91.13 52.65 92.11 52.78 92.06 52.92 92.03 53.06 92.01Z" stroke="#84847B" stroke-miterlimit="10" fill="#5E5E5C"/></g></g><g><path d="M62.57 77C62.31 76.96 62.04 77.32 61.96 77.81 61.88 78.3 62.03 78.73 62.29 78.77 62.55 78.81 62.82 78.45 62.9 77.96 62.98 77.48 62.83 77.05 62.57 77Z" stroke="#84847B" stroke-miterlimit="10" fill="#5E5E5C"/><path d="M62.57 72.81C62.16 72.8 61.81 73.43 61.8 74.22 61.78 75.01 62.11 75.66 62.52 75.68 62.93 75.69 63.28 75.06 63.29 74.27 63.3 73.48 62.98 72.82 62.57 72.81Z" stroke="#84847B" stroke-miterlimit="10" fill="#5E5E5C"/></g></g></g><g><path d="M60.29 94.11C60.29 94.09 60.03 94 59.57 93.87 59.11 93.74 58.45 93.56 57.65 93.36 57.25 93.26 56.82 93.15 56.36 93.03 55.9 92.92 55.44 92.74 54.94 92.6 53.96 92.29 52.91 91.96 51.87 91.63 49.79 90.94 47.71 90.22 46.12 89.75 44.54 89.26 43.48 88.94 43.48 88.94 43.48 88.94 42.42 88.68 40.87 88.18 39.31 87.69 37.26 86.93 35.24 86.1 34.23 85.68 33.22 85.26 32.26 84.89 31.3 84.53 30.37 84.2 29.51 84.14 29.09 84.12 28.66 84.18 28.35 84.38 28.04 84.57 27.85 84.85 27.74 85.07 27.63 85.3 27.58 85.49 27.55 85.62 27.52 85.75 27.52 85.82 27.53 85.82 27.57 85.83 27.63 85.55 27.87 85.14 27.99 84.94 28.18 84.72 28.45 84.57 28.73 84.43 29.09 84.38 29.48 84.43 30.27 84.52 31.16 84.88 32.1 85.27 33.04 85.67 34.03 86.14 35.03 86.58 37.03 87.48 39.08 88.3 40.64 88.83 42.2 89.37 43.27 89.66 43.27 89.66 43.27 89.66 44.33 89.96 45.91 90.41 47.5 90.84 49.59 91.5 51.7 92.13 52.76 92.42 53.82 92.72 54.82 93 55.32 93.13 55.79 93.29 56.26 93.38 56.72 93.47 57.17 93.56 57.57 93.64 58.38 93.8 59.06 93.93 59.53 94.02 60.02 94.1 60.29 94.14 60.29 94.11Z" stroke="#84847B" stroke-miterlimit="10" fill="#5E5E5C"/></g><g><g><g><path d="M29.63 86.41C29.57 86.32 28.63 86.98 27.93 87.89 27.21 88.77 26.73 89.83 26.73 89.83 26.73 89.83 26.63 90.1 26.51 90.51 26.39 90.92 26.27 91.49 26.23 92.06 26.2 92.64 26.24 93.21 26.37 93.62 26.49 94.03 26.64 94.27 26.67 94.25 26.73 94.23 26.68 93.96 26.65 93.56 26.61 93.16 26.66 92.63 26.74 92.11 26.84 91.59 27 91.09 27.15 90.71 27.3 90.34 27.41 90.1 27.41 90.1 27.41 90.1 27.78 89.1 28.35 88.18 28.91 87.26 29.69 86.49 29.63 86.41Z" stroke="#84847B" stroke-miterlimit="10" fill="#5E5E5C"/></g></g><g><path d="M56.79 103.7C56.82 103.44 56.44 103.19 55.94 103.14 55.45 103.09 55.02 103.26 55 103.52 54.97 103.78 55.35 104.03 55.84 104.08 56.34 104.13 56.76 103.96 56.79 103.7Z" stroke="#84847B" stroke-miterlimit="10" fill="#5E5E5C"/><path d="M60.6 103.61C60.59 103.2 59.94 102.88 59.15 102.92 58.36 102.95 57.72 103.3 57.74 103.72 57.75 104.13 58.4 104.44 59.19 104.41 59.98 104.38 60.61 104.02 60.6 103.61Z" stroke="#84847B" stroke-miterlimit="10" fill="#5E5E5C"/></g></g><g><path d="M58.81 91.99C58.63 91.94 58.38 91.82 58.05 91.76 57.39 91.61 56.45 91.55 55.43 91.68 54.42 91.83 53.54 92.07 52.9 92.25 52.87 92.26 52.86 92.26 52.83 92.27 52.94 92.31 53.04 92.36 53.15 92.41 53.78 92.32 54.59 92.2 55.49 92.07 56.48 91.94 57.37 91.9 58.03 91.95 58.36 91.96 58.61 92.03 58.8 92.05 58.99 92.08 59.09 92.09 59.09 92.09 59.09 92.09 58.98 92.05 58.81 91.99Z" stroke="#84847B" stroke-miterlimit="10" fill="#5E5E5C"/></g><path d="M66.59 78.94C66.32 76.54 66.28 74.09 66.05 71.67 65.77 68.66 65.31 65.7 65.11 62.69 65.04 61.7 65.2 60.63 64.38 59.89 63.05 58.68 60.9 60.12 59.73 60.93 59.03 61.41 58.44 61.98 57.83 62.6 57.43 63 57.04 63.38 56.65 63.75 58.92 62.74 62.49 61.74 63.56 64.71 65.16 69.18 63.92 83.39 60.44 88.41 58.61 91.05 55.03 89.94 52.06 88.29 52.24 89.37 52.42 90.42 52.6 91.35 52.47 91.36 52.35 91.38 52.24 91.39 51.86 91.44 51.17 91.34 50.27 91.14 50.82 91.62 51.46 92.03 52.21 92.3 56.49 93.81 63.27 96.37 61.08 100.34 58.89 104.31 43.33 99.55 34.42 94.54 28.18 91.03 27.62 87.16 27.84 85.16 24.5 88.39 25.1 94.38 25.1 94.38 35.56 99.23 46.31 104.62 53.95 105.97 55.89 106.31 57.66 106.22 59.59 105.89 61.38 105.58 62.83 104 63.89 102.61 64.63 101.64 65.13 100.48 65.6 99.37 66.76 96.68 67.35 93.36 67.39 90.45 67.44 86.58 67.02 82.75 66.59 78.94Z" stroke="#84847B" stroke-miterlimit="10" fill="#5E5E5C" opacity="0.4"/></g><g><linearGradient x1="30.1463" y1="-649.539" x2="28.422" y2="-642.821" gradientUnits="userSpaceOnUse" id="SVGID_1_" gradientTransform="matrix(0.9843 -0.1761 0.1761 0.9843 111.049 689.55)"><stop offset="0.2206" stop-color="#FCE8D9"/><stop offset="1" stop-color="#F4C7BD"/></linearGradient><path d="M27.12 50.23C27.8 51.66 28.62 53.02 29.67 54.23 32.16 57.12 35.76 58.84 39.4 58.99 43.75 59.18 46.69 57.19 49.73 54.59 51.05 53.46 52.33 52.3 53.55 51.06 55.95 48.62 58.08 45.87 59.45 42.67 61.19 38.61 62.02 33.15 60.44 28.66 58.65 23.59 55.08 19.17 50.97 15.67 47.61 12.81 41.32 11.71 37.25 12.06 30.78 12.62 25.73 16.7 23.45 22.63 20.76 29.61 22.66 36.02 24.68 43.22 25.35 45.57 26.06 47.99 27.12 50.23Z" fill="#F9B799"/><g><path d="M35.73 40.12C35.93 40.28 36.35 40.09 36.67 39.69 36.99 39.29 37.09 38.83 36.89 38.66 36.69 38.5 36.27 38.69 35.95 39.09 35.64 39.49 35.54 39.95 35.73 40.12Z" fill="#F4C7BD"/><path d="M33.91 42.91C34.11 43.07 34.53 42.88 34.85 42.48 35.17 42.08 35.27 41.62 35.07 41.45 34.87 41.29 34.45 41.48 34.13 41.88 33.81 42.29 33.71 42.75 33.91 42.91Z" fill="#F4C7BD"/><path d="M36.24 42.31C36.44 42.47 36.86 42.28 37.18 41.88 37.5 41.48 37.6 41.02 37.4 40.85 37.2 40.69 36.78 40.88 36.46 41.28 36.14 41.69 36.04 42.15 36.24 42.31Z" fill="#F4C7BD"/></g><g><path d="M40.72 49.02C39.58 49.36 38.5 49.89 37.59 50.65 36.65 51.37 35.9 52.31 35.28 53.33L35.13 53.25C34.88 52.43 34.99 51.68 35.26 51.02 35.53 50.36 35.97 49.77 36.53 49.33 37.08 48.88 37.76 48.59 38.47 48.47 39.18 48.35 39.95 48.42 40.68 48.86L40.72 49.02Z" fill="#E08D80"/></g><path d="M24.79 48.6C24.48 49.18 23.99 49.82 24.27 50.47 24.42 50.82 24.77 51.06 25.12 51.15 25.48 51.25 25.85 51.22 26.2 51.17 26.63 51.1 27.08 50.99 27.38 50.68 27.86 50.2 27.86 49.39 27.68 48.69 27.37 47.51 26.55 46.2 25.44 45.6 25.18 46.6 25.28 47.69 24.79 48.6Z" fill="url(#SVGID_1_)"/><g><path d="M34.17 37.69C33.62 37.87 32.85 39.78 32.57 40.3 32.24 40.91 31.95 41.54 31.7 42.2 31.65 42.33 31.09 43.96 31.14 43.97 30.21 43.74 29.45 43.19 28.77 42.51 28.37 42.11 28.01 41.68 27.68 41.23 27.6 41.12 26.83 39.88 26.85 39.88 28.04 39.51 29.02 39.44 30.23 39.11 31.35 38.8 33.21 38.31 34.17 37.69Z" fill="#FFFFFF"/><g><defs><path d="M34.84 38.43C34.29 38.61 33.52 40.52 33.24 41.04 32.91 41.65 32.62 42.28 32.37 42.94 32.32 43.07 31.76 44.7 31.81 44.71 30.88 44.48 30.12 43.93 29.44 43.25 29.04 42.85 28.68 42.42 28.35 41.97 28.27 41.86 27.5 40.62 27.52 40.62 28.71 40.25 29.69 40.18 30.9 39.85 32.03 39.53 33.89 39.05 34.84 38.43Z" id="SVGID_2_"/></defs><clipPath id="SVGID_3_"><use width="100%" height="100%" xlink:href="#SVGID_2_" overflow="visible"></use></clipPath><g clip-path="url(#SVGID_3_)"><path d="M28.83 44.49C27.3 44.05 26.31 42.46 26.62 40.94 26.93 39.43 28.43 38.56 29.97 39 31.5 39.44 32.49 41.03 32.18 42.55 31.87 44.07 30.37 44.94 28.83 44.49Z" fill="#8C7257"/><path d="M28.69 42.85C28.14 42.69 27.78 42.12 27.89 41.57 28 41.02 28.54 40.71 29.1 40.87 29.65 41.03 30.01 41.6 29.9 42.15 29.78 42.7 29.24 43.01 28.69 42.85Z" fill="#3A3129"/><path d="M29.79 40.41C29.93 40.27 30.07 40.13 30.25 40.03 30.51 39.9 30.7 39.93 30.93 40.13 31 40.19 31.06 40.24 31.12 40.31 31.36 40.58 31.57 41.17 31.48 41.51 31.43 41.71 31.17 41.76 30.96 41.76 30.46 41.78 29.39 41.92 28.92 41.65 28.57 41.45 28.82 41.37 29.07 41.12 29.32 40.89 29.55 40.65 29.79 40.41Z" fill="#FFFFFF" opacity="0.2"/><path d="M31.27 42.49C31.29 42.49 31.32 42.5 31.33 42.51 31.37 42.54 31.36 42.59 31.35 42.63 31.32 42.77 31.26 42.9 31.18 43.01 31.09 43.12 30.96 43.19 30.82 43.2 30.69 43.2 30.55 43.14 30.43 43.08 30.29 43 29.32 42.4 29.73 42.3 29.93 42.25 30.28 42.37 30.49 42.4 30.76 42.43 31.01 42.46 31.27 42.49Z" fill="#FFFFFF" opacity="0.2"/></g></g><g><path d="M26.03 40.11C26.63 39.61 27.3 39.31 27.97 39.06 28.64 38.79 29.34 38.7 30.03 38.6 30.74 38.49 31.43 38.37 32.11 38.22 32.8 38.08 33.48 37.92 34.13 37.64L34.2 37.74C33.64 38.22 32.97 38.54 32.32 38.84 31.66 39.13 30.98 39.37 30.31 39.64 29.63 39.91 28.95 40.13 28.24 40.19 27.53 40.27 26.82 40.3 26.06 40.22L26.03 40.11Z" fill="#5E5149"/></g></g><path d="M32.95 1.8C29.44 2.98 26.09 4.6 23.13 6.79 19.2 9.7 15.98 13.69 14.44 18.35 13.47 21.29 13.17 24.51 13.6 27.69 14.06 31.06 15.89 33.96 18.86 35.97 21.19 37.55 24.15 38.23 26.66 37.43 25.47 36.6 24.36 35.63 23.38 34.55 24.55 35.83 27.84 35.88 29.36 35.93 31.71 36.01 34.04 35.66 36.25 35.04 37.44 34.7 38.69 34.29 39.9 34.6 40.83 34.84 41.61 35.48 42.24 36.21 43.41 37.58 44.14 39.44 43.74 41.18 44.77 38.68 44.74 35.74 43.65 33.23 45.07 35.12 45.83 37.5 45.76 39.84 46.61 39.03 46.49 37.65 46.3 36.47 46.11 35.25 45.91 34.03 45.72 32.81 45.66 32.44 45.61 32.05 45.75 31.71 45.87 31.43 46.1 31.21 46.35 31.03 47.79 29.92 49.81 29.43 51.49 30.18 53.43 31.04 54.41 33.21 55.9 34.73 58.39 37.27 62.62 37.86 65.63 36.08 64.74 35.53 63.94 34.83 63.26 34.03 64.73 33.92 65.08 32.67 65.29 31.38 65.93 27.4 66.56 23.19 65.13 19.38 64.25 17.04 62.66 15.04 61.01 13.16 59.2 11.09 57.04 8.98 54.33 8.7 51.85 4.09 47.26 0.29 42.07 0.03 40.16-0.06 38.27 0.31 36.43 0.78 35.27 1.07 34.1 1.41 32.95 1.8Z" fill="#111010"/><path d="M43.74 41.17C44.14 39.44 43.41 37.57 42.24 36.2 41.61 35.47 40.83 34.83 39.9 34.59 38.69 34.28 37.44 34.7 36.25 35.03 34.04 35.65 31.71 36 29.36 35.92 27.84 35.87 24.55 35.82 23.38 34.54 26.93 35.11 30.67 34.93 33.94 33.8 35.59 33.23 37.26 32.44 39.05 32.71 40.78 32.98 42.35 34.26 43.19 35.86 44.04 37.46 44.05 39.48 43.74 41.17Z" opacity="0.15"/><path d="M50.93 36.93C52.57 36.29 53.8 34.82 54.16 33.06 54.52 31.31 53.99 29.33 52.78 27.87 52.73 27.82 52.68 27.76 52.62 27.74 52.53 27.71 52.44 27.75 52.36 27.8 51.86 28.07 51.36 28.34 50.86 28.62L50.93 36.93Z" opacity="0.15"/><path d="M21.38 10.6C18.77 12.97 16.48 15.88 15.75 19.43 15.02 22.98 16.18 27.24 19.24 29.52 18.54 27.85 18.22 26.04 18.33 24.29 21.08 26.57 24.71 27.69 28.07 27.27 31.23 26.88 34.22 25.2 37.43 25.83 36.71 24.71 35.84 23.69 34.84 22.81 36.39 22.1 38.23 21.95 39.96 22.4 38.46 17.98 38.73 13.11 40.68 9.17 41.18 8.17 41.79 7.21 42.65 6.51 44.04 5.39 45.97 5.05 47.83 5.27 46.51 3.87 44.68 3.07 42.85 2.71 34.94 1.14 26.77 5.7 21.38 10.6Z" fill="#FFFFFF" opacity="0.1"/></g></g></g><g><g><g><path d="M17.57 123.46 14.74 127.58C14.74 127.58 13.16 134.04 12.4 135.11 11.54 136.32 9.45 139.31 8.09 139.04 6.73 138.77 7.74 137.79 7.74 137.79 7.74 137.79 3.88 140 1.2 137.82-1.48 135.64 1.74 134.27 2.88 133.52 3.71 132.98 4.34 132.04 4.93 131.27 5.18 130.95 6.41 129.77 5.94 129.32 5.45 128.85 4.32 129.48 3.73 129.53 2.79 129.61 1.51 128.85 1.37 127.87 1.28 127.2 1.48 126.58 2.11 126.42 3.02 126.19 4.07 126.76 5.07 126.49 6.23 126.17 6.53 125.45 7.32 124.73 7.94 124.17 9.21 124.13 10.03 124.02 11.21 123.86 11.95 119.73 11.95 119.73 11.95 119.73 15.74 120.1 17.57 123.46Z" fill="#F9B799"/></g><path d="M0.88 137.54C0.84 137.5 0.8 137.47 0.77 137.43 0.77 137.43 0.76 137.42 0.76 137.42-0.28 136.32 0.2 135.44 1 134.76 1.01 135.72 1.32 137.04 2.84 137.7 5.38 138.8 10.28 136.6 11.96 132.82 13.64 129.04 12.37 127.88 11.81 126.58 11.26 125.31 9.08 124.88 7.94 124.45 8.08 124.41 8.23 124.37 8.38 124.33 8.63 124.27 8.88 124.22 9.13 124.18 9.18 124.17 9.23 124.16 9.28 124.15 9.53 124.11 9.78 124.07 10.04 124.03 11.22 123.87 11.96 119.74 11.96 119.74 11.96 119.74 15.48 121.09 16.96 122.54 17.07 122.68 17.17 122.82 17.27 122.97 17.38 123.13 17.48 123.3 17.58 123.47L16.02 125.74C15.56 126.32 15.17 126.99 14.75 127.59 14.75 127.59 13.17 134.05 12.41 135.12 11.55 136.33 9.46 139.32 8.1 139.05 6.74 138.78 7.75 137.8 7.75 137.8 7.75 137.8 3.88 140 1.2 137.82 1.12 137.76 1.05 137.69 0.98 137.64 0.95 137.6 0.92 137.57 0.88 137.54Z" fill="#FFBDC0" opacity="0.5"/></g><g><g><g><path d="M4.22 132.15C4.19 132.16 4.24 132.36 4.37 132.65 4.51 132.93 4.74 133.28 5.03 133.59 5.6 134.21 6.33 134.63 6.33 134.63 6.33 134.63 6.51 134.73 6.8 134.85 7.09 134.97 7.47 135.12 7.87 135.23 8.66 135.47 9.46 135.56 9.48 135.5 9.5 135.43 8.72 135.21 7.99 134.89 7.62 134.74 7.27 134.56 7.01 134.43 6.75 134.29 6.59 134.19 6.59 134.19 6.59 134.19 5.88 133.85 5.29 133.33 4.99 133.08 4.73 132.78 4.55 132.55 4.36 132.31 4.25 132.14 4.22 132.15Z" fill="#FF6875"/></g><g><path d="M3.61 138.25C3.6 138.21 3.35 138.25 2.98 138.25 2.89 138.25 2.79 138.25 2.69 138.24 2.59 138.24 2.48 138.22 2.38 138.19 2.18 138.14 1.99 138.02 1.93 137.86 1.8 137.51 2.07 137.05 2.26 136.78 2.47 136.5 2.64 136.34 2.64 136.34 2.64 136.34 2.68 136.3 2.75 136.22 2.82 136.15 2.92 136.05 3.06 135.93 3.33 135.71 3.75 135.45 4.18 135.17 4.6 134.89 5.02 134.56 5.22 134.21 5.43 133.86 5.42 133.59 5.39 133.59 5.35 133.58 5.28 133.83 5.05 134.1 4.83 134.38 4.42 134.64 3.99 134.87 3.56 135.1 3.1 135.33 2.78 135.56 2.62 135.68 2.49 135.79 2.4 135.87 2.32 135.95 2.27 136 2.27 136 2.27 136 2.09 136.19 1.87 136.53 1.76 136.7 1.65 136.91 1.57 137.16 1.5 137.41 1.45 137.72 1.6 138.02 1.75 138.32 2.07 138.45 2.31 138.48 2.44 138.5 2.56 138.51 2.67 138.5 2.79 138.5 2.89 138.49 2.98 138.47 3.38 138.38 3.61 138.28 3.61 138.25Z" fill="#FF6875"/></g><g><path d="M9.93 135.38C9.87 135.33 8.87 136.56 7.67 137.54 7.07 138.03 6.41 138.44 5.89 138.58 5.63 138.66 5.41 138.68 5.26 138.68 5.11 138.67 5.03 138.67 5.03 138.67 5.03 138.68 4.95 138.65 4.81 138.62 4.67 138.6 4.45 138.49 4.26 138.35 4.06 138.2 3.99 138.03 4.15 137.75 4.31 137.48 4.6 137.22 4.89 136.98 5.49 136.5 6.16 136.08 6.62 135.71 7.1 135.36 7.35 135.03 7.31 135 7.29 134.98 7.01 135.25 6.51 135.55 6.01 135.86 5.33 136.24 4.67 136.7 4.35 136.94 4.02 137.18 3.78 137.54 3.67 137.71 3.57 137.95 3.62 138.2 3.67 138.44 3.82 138.6 3.95 138.72 4.23 138.94 4.45 139.05 4.65 139.1 4.84 139.15 4.95 139.19 4.95 139.18 4.95 139.18 5.06 139.18 5.26 139.19 5.45 139.18 5.73 139.15 6.03 139.04 6.64 138.84 7.32 138.37 7.9 137.83 8.49 137.29 9.01 136.69 9.37 136.22 9.74 135.74 9.95 135.4 9.93 135.38Z" fill="#FF6875"/></g><g><path d="M7.35 138.38C7.34 138.38 7.26 138.48 7.24 138.72 7.23 138.83 7.27 139.02 7.45 139.1 7.61 139.18 7.8 139.18 8 139.16 8.39 139.11 8.8 138.97 9.24 138.79 9.67 138.6 10.14 138.41 10.55 138.08 11.37 137.45 11.97 136.63 12.41 136.02 12.84 135.4 13.09 134.96 13.09 134.96 13.09 134.96 13.14 134.84 13.23 134.64 13.31 134.43 13.47 134.15 13.57 133.78 13.82 133.06 14.02 132.08 14.17 131.1 14.32 130.12 14.46 129.15 14.63 128.44 14.8 127.73 14.97 127.26 14.93 127.24 14.91 127.23 14.86 127.34 14.77 127.54 14.69 127.74 14.54 128.02 14.44 128.38 14.2 129.09 14.01 130.07 13.81 131.03 13.62 131.99 13.38 132.94 13.13 133.62 13.02 133.97 12.86 134.22 12.79 134.41 12.7 134.6 12.65 134.71 12.65 134.71 12.65 134.71 12.42 135.13 12.03 135.75 11.63 136.35 11.07 137.17 10.33 137.79 9.99 138.11 9.53 138.31 9.13 138.52 8.72 138.72 8.32 138.88 7.97 138.95 7.8 138.98 7.63 139 7.52 138.95 7.4 138.91 7.36 138.8 7.35 138.7 7.33 138.51 7.37 138.38 7.35 138.38Z" fill="#FF6875"/></g></g><g><g><path d="M4.98 128.68C4.96 128.7 5.15 128.87 5.46 129.06 5.77 129.25 6.22 129.45 6.7 129.59 7.18 129.72 7.67 129.79 8.05 129.8 8.24 129.82 8.4 129.79 8.51 129.79 8.62 129.78 8.68 129.78 8.68 129.78 8.68 129.78 8.74 129.77 8.85 129.74 8.96 129.71 9.12 129.69 9.29 129.62 9.65 129.51 10.11 129.27 10.5 128.94 10.89 128.61 11.13 128.16 11.28 127.82 11.4 127.47 11.44 127.23 11.41 127.22 11.37 127.21 11.27 127.43 11.1 127.73 10.91 128.02 10.65 128.4 10.27 128.66 9.9 128.92 9.49 129.1 9.16 129.17 9 129.22 8.86 129.23 8.76 129.25 8.66 129.27 8.61 129.28 8.61 129.28 8.61 129.28 8.56 129.29 8.46 129.3 8.36 129.31 8.22 129.34 8.05 129.34 7.71 129.36 7.25 129.33 6.79 129.25 6.33 129.16 5.88 129.03 5.56 128.89 5.22 128.75 5.01 128.65 4.98 128.68Z" fill="#FF6875"/></g><g><path d="M3.66 126.52C3.67 126.5 3.46 126.36 3.09 126.28 2.73 126.21 2.17 126.22 1.72 126.56 1.5 126.73 1.33 126.99 1.29 127.26 1.23 127.53 1.29 127.77 1.34 127.97 1.41 128.16 1.47 128.32 1.54 128.42 1.6 128.53 1.64 128.58 1.64 128.58 1.64 128.58 1.69 128.63 1.77 128.72 1.86 128.8 1.99 128.92 2.16 129.02 2.51 129.23 3.03 129.35 3.52 129.36 4.52 129.38 5.45 129.15 5.45 129.09 5.45 129.01 4.47 129.11 3.55 129 3.09 128.95 2.66 128.8 2.4 128.62 2.27 128.54 2.18 128.44 2.12 128.38 2.07 128.31 2.03 128.27 2.03 128.27 2.03 128.27 1.9 128.12 1.77 127.82 1.66 127.53 1.63 127.11 1.94 126.83 2.24 126.54 2.72 126.46 3.06 126.47 3.41 126.49 3.65 126.56 3.66 126.52Z" fill="#FF6875"/></g><g><path d="M1.62 138.06C1.64 138.02 1.29 137.86 0.92 137.47 0.56 137.09 0.18 136.39 0.4 135.75 0.57 135.08 1.25 134.78 1.75 134.55 2.26 134.32 2.6 134.1 2.6 134.1 2.6 134.1 2.68 134.05 2.81 133.95 2.94 133.85 3.14 133.72 3.36 133.53 3.8 133.18 4.35 132.64 4.81 132.04 5.26 131.43 5.63 130.77 5.85 130.25 6.07 129.73 6.17 129.37 6.14 129.36 6.07 129.33 5.49 130.71 4.53 131.82 4.05 132.37 3.51 132.85 3.07 133.17 2.86 133.34 2.66 133.45 2.53 133.55 2.4 133.64 2.32 133.69 2.32 133.69 2.32 133.69 2.04 133.89 1.55 134.14 1.3 134.27 1 134.42 0.7 134.66 0.39 134.89 0.15 135.27 0.06 135.67-0.06 136.07 0.04 136.5 0.18 136.84 0.26 137.01 0.35 137.16 0.46 137.29 0.55 137.43 0.68 137.53 0.79 137.63 1.23 137.99 1.62 138.09 1.62 138.06Z" fill="#FF6875"/></g></g></g></g><g><g><path d="M32.33 93.19 27.64 91.83C27.64 91.83 20.94 92.68 19.71 92.31 18.32 91.89 14.08 89.91 13.93 88.55 13.78 87.19 16 88.47 16 88.47 16 88.47 12.78 85.53 14.04 82.31 15.3 79.09 17.62 80.82 18.66 81.65 19.7 82.48 24.12 83.95 24.12 83.95 24.12 83.95 20.81 82.63 21.41 81.18 21.87 80.05 26.1 81.22 27.18 82.5 28.27 83.79 28.94 84.88 29.58 86.25 30.07 87.31 34.17 86.7 34.17 86.7 34.17 86.7 33.84 92.24 32.33 93.19Z" fill="#F9B799"/><g><g><path d="M15.26 80.9C15.24 80.89 15.05 81.15 14.88 81.61 14.7 82.07 14.64 82.73 14.7 83.37 14.78 84.02 14.99 84.63 15.18 85.07 15.39 85.5 15.54 85.78 15.54 85.78 15.54 85.78 15.58 85.85 15.66 85.96 15.74 86.07 15.84 86.24 15.99 86.43 16.28 86.8 16.7 87.27 17.18 87.69 17.66 88.1 18.17 88.46 18.59 88.67 19 88.89 19.31 88.97 19.32 88.95 19.34 88.91 19.07 88.77 18.69 88.5 18.31 88.25 17.85 87.85 17.42 87.42 16.99 86.99 16.62 86.51 16.36 86.15 16.11 85.78 15.96 85.52 15.96 85.52 15.96 85.52 15.8 85.26 15.59 84.87 15.39 84.47 15.15 83.91 15.04 83.32 14.94 82.73 14.94 82.12 15.05 81.67 15.17 81.21 15.3 80.92 15.26 80.9Z" fill="#FF6875"/></g><g><path d="M17.5 80.61C17.5 80.59 17.19 80.62 16.78 80.88 16.58 81 16.37 81.23 16.27 81.54 16.17 81.84 16.2 82.19 16.28 82.5 16.44 83.12 16.8 83.63 17.06 84 17.33 84.37 17.53 84.59 17.53 84.59 17.53 84.59 17.73 84.81 18.06 85.12 18.39 85.42 18.84 85.81 19.32 86.16 19.8 86.51 20.3 86.83 20.7 87.04 21.09 87.25 21.39 87.32 21.4 87.29 21.41 87.26 21.15 87.13 20.8 86.87 20.44 86.62 19.98 86.26 19.54 85.88 19.1 85.5 18.68 85.09 18.38 84.78 18.08 84.47 17.89 84.25 17.89 84.25 17.89 84.25 17.69 84.04 17.41 83.71 17.14 83.38 16.79 82.91 16.61 82.39 16.52 82.13 16.48 81.86 16.53 81.62 16.58 81.38 16.72 81.18 16.89 81.04 17.22 80.75 17.51 80.65 17.5 80.61Z" fill="#FF6875"/></g><g><path d="M25.16 84.69C25.17 84.68 25.06 84.59 24.87 84.43 24.77 84.36 24.66 84.25 24.51 84.16 24.36 84.07 24.19 83.97 24 83.86 23.24 83.44 22.13 83.03 21.02 82.59 20.74 82.48 20.47 82.35 20.19 82.24 19.92 82.11 19.65 81.97 19.4 81.84 18.91 81.55 18.44 81.19 17.98 80.92 17.52 80.65 17.07 80.43 16.64 80.35 16.21 80.27 15.84 80.34 15.63 80.42 15.64 80.42 15.65 80.41 15.65 80.41 15.32 80.53 15.14 80.66 15.04 80.74 14.94 80.81 14.92 80.84 14.92 80.84 14.92 80.84 14.76 80.97 14.55 81.24 14.34 81.5 14.11 81.92 13.92 82.45 13.75 82.98 13.61 83.63 13.69 84.34 13.77 85.04 14.03 85.72 14.35 86.36 14.98 87.64 15.9 88.74 16.68 89.46 17.06 89.82 17.43 90.07 17.69 90.24 17.96 90.39 18.12 90.46 18.13 90.45 18.15 90.41 17.53 90.07 16.82 89.32 16.1 88.58 15.25 87.46 14.68 86.21 14.4 85.59 14.18 84.93 14.12 84.3 14.06 83.68 14.2 83.09 14.37 82.61 14.55 82.14 14.77 81.77 14.95 81.55 15.13 81.33 15.25 81.23 15.25 81.23 15.25 81.23 15.27 81.21 15.35 81.15 15.43 81.09 15.56 80.99 15.81 80.9L15.82 80.9C15.96 80.84 16.21 80.77 16.56 80.83 16.91 80.88 17.32 81.06 17.77 81.32 18.22 81.57 18.68 81.9 19.22 82.2 19.5 82.33 19.77 82.47 20.06 82.59 20.34 82.7 20.63 82.82 20.92 82.92 22.07 83.33 23.17 83.69 23.95 84.05 24.14 84.15 24.31 84.23 24.47 84.31 24.62 84.39 24.74 84.48 24.85 84.54 25.03 84.63 25.15 84.7 25.16 84.69Z" fill="#FF6875"/></g><g><path d="M30.02 87.63C30.04 87.63 30.04 87.1 29.8 86.37 29.57 85.64 29.12 84.71 28.54 83.87 27.97 83.02 27.27 82.27 26.68 81.77 26.09 81.27 25.62 81.02 25.62 81.02 25.62 81.02 25.5 80.97 25.29 80.87 25.08 80.77 24.78 80.66 24.4 80.56 24.03 80.46 23.58 80.37 23.09 80.35 22.61 80.34 22.03 80.35 21.55 80.74 21.33 80.95 21.17 81.24 21.19 81.55 21.21 81.85 21.33 82.09 21.46 82.3 21.74 82.71 22.07 83.02 22.37 83.25 22.67 83.48 22.96 83.63 23.17 83.71 23.38 83.79 23.51 83.79 23.52 83.78 23.52 83.76 23.4 83.72 23.22 83.62 23.03 83.51 22.78 83.34 22.5 83.1 22.23 82.86 21.93 82.54 21.7 82.15 21.59 81.96 21.51 81.74 21.5 81.54 21.5 81.35 21.61 81.15 21.77 81.02 22.1 80.76 22.61 80.74 23.05 80.77 23.5 80.81 23.91 80.91 24.26 81.01 24.61 81.12 24.89 81.23 25.07 81.32 25.26 81.41 25.36 81.46 25.36 81.46 25.36 81.46 25.79 81.67 26.37 82.12 26.94 82.57 27.64 83.27 28.23 84.07 28.83 84.86 29.32 85.73 29.6 86.43 29.91 87.13 29.98 87.63 30.02 87.63Z" fill="#FF6875"/></g><g><path d="M15.93 88.46C15.94 88.45 15.85 88.35 15.65 88.23 15.45 88.1 15.16 87.94 14.75 87.86 14.55 87.82 14.29 87.8 14.05 87.97 13.8 88.16 13.78 88.49 13.81 88.76 13.86 89.05 14.03 89.3 14.23 89.49 14.43 89.68 14.66 89.84 14.89 89.98 15.12 90.11 15.35 90.24 15.57 90.37 15.78 90.49 15.96 90.64 16.17 90.79 16.37 90.94 16.56 91.08 16.74 91.22 16.93 91.35 17.11 91.47 17.28 91.57 17.6 91.81 17.92 91.93 18.13 92.05 18.34 92.16 18.46 92.22 18.46 92.22 18.46 92.22 18.49 92.24 18.55 92.26 18.61 92.28 18.7 92.3 18.82 92.34 18.94 92.38 19.07 92.42 19.23 92.46 19.39 92.5 19.56 92.57 19.77 92.58 20.6 92.69 21.65 92.62 22.71 92.53 23.77 92.44 24.81 92.31 25.6 92.2 26.39 92.09 26.91 92.02 26.91 91.98 26.9 91.89 24.8 92.06 22.7 92.17 21.66 92.21 20.59 92.24 19.86 92.11 19.67 92.1 19.51 92.03 19.37 91.98 19.22 91.93 19.09 91.89 18.99 91.86 18.89 91.82 18.81 91.8 18.75 91.78 18.7 91.76 18.67 91.74 18.67 91.74 18.67 91.74 18.56 91.68 18.35 91.59 18.15 91.49 17.85 91.38 17.53 91.17 17.36 91.07 17.19 90.96 16.99 90.85 16.81 90.72 16.61 90.59 16.42 90.45 16.23 90.32 16 90.15 15.77 90.02 15.54 89.9 15.31 89.78 15.07 89.66 14.63 89.42 14.19 89.12 14.09 88.69 14.05 88.49 14.07 88.25 14.2 88.15 14.33 88.04 14.54 88.02 14.72 88.04 15.48 88.16 15.92 88.51 15.93 88.46Z" fill="#FF6875"/></g></g></g><path d="M29.59 86.26C29.92 86.96 31.82 86.93 33.07 86.83 33.67 87.34 34.07 87.76 34.06 87.95 34.06 87.96 34.06 87.97 34.05 87.99 33.92 88.42 32.52 90.98 31.38 92.92L27.63 91.83C27.63 91.83 20.93 92.68 19.7 92.31 18.31 91.89 14.07 89.91 13.92 88.55 13.77 87.19 15.99 88.47 15.99 88.47 15.99 88.47 12.77 85.53 14.03 82.31 14.97 79.9 16.51 80.26 17.66 80.94 16.89 81.06 14.86 81.58 14.63 83.81 14.35 86.56 17.85 90.48 21.9 90.86 25.94 91.24 26.65 89.68 27.71 88.74 28.47 88.06 28.56 85.68 28.55 84.37 28.95 84.97 29.27 85.58 29.59 86.26Z" fill="#FFBDC0" opacity="0.5"/></g></svg>