<svg width="500" height="524.7" viewBox="0 0 500 524.7" xmlns="http://www.w3.org/2000/svg" xmlns:xlink="http://www.w3.org/1999/xlink" xml:space="preserve" overflow="hidden"><defs></defs><g><defs><rect x="0" y="0" width="500" height="500" id="SVGID_1_"/></defs><clipPath id="SVGID_2_"><use width="100%" height="100%" xlink:href="#SVGID_1_" overflow="visible"></use></clipPath></g><g><defs><rect x="0" y="0" width="500" height="500" id="SVGID_3_"/></defs><clipPath id="SVGID_4_"><use width="100%" height="100%" xlink:href="#SVGID_3_" overflow="visible"></use></clipPath><g clip-path="url(#SVGID_4_)"><g><path d="M145.18 456.85C145.18 456.85 134.67 484.72 139.79 520.6L242.97 520.6 233.87 467.24 145.18 456.85Z" fill="#897ABF"/><g><g><path d="M252.4 347.44 250.35 377.05 242.98 483.14C185.35 511.1 138.91 469.55 138.91 469.55 143.7 446.39 148.77 424.12 154.82 404.9 160.71 386.16 167.54 370.31 175.93 359.34L252.4 347.44Z" fill="#FFA13D"/><path d="M250.34 377.05 242.97 483.14C185.34 511.1 138.9 469.55 138.9 469.55 143.69 446.39 148.76 424.12 154.81 404.9 161.77 427.88 178.59 460.37 218.03 460.03 223.94 459.98 229.33 456.54 231.72 451.13 239.55 433.4 244.54 399.45 248.95 362.2L250.34 377.05Z" fill="#FC8D3A"/></g><g><path d="M184.41 366.45C184.41 366.45 217.22 390.42 225.97 387.28 234.72 384.13 237.54 361.62 237.54 361.62L191.24 357.49 184.41 366.45Z" fill="#FFC36C"/><path d="M192.91 366.25C192.91 366.25 219.25 388.34 227.63 381.72 236.01 375.1 228.56 353.91 228.56 353.91L192.91 366.25Z" fill="#F4A19F"/></g></g><g><g><path d="M137.43 471.11C137.43 471.11 127.41 471.81 126.54 479.31 125.67 486.81 145.52 500.61 150.8 495.88 156.08 491.15 149.11 483.74 149.11 483.74L137.43 471.11Z" fill="#FEBBB4"/><path d="M147.07 433.53C147.07 433.53 132.78 428.33 130.35 435.89 127.91 443.45 152.75 466.17 158.11 457.85 163.47 449.53 145.93 438.67 145.93 438.67L147.07 433.53Z" fill="#FEBBB4"/><path d="M135.13 442.61C135.13 442.61 123.89 443.31 122.92 450.81 121.95 458.31 144.21 472.11 150.12 467.38 156.04 462.65 148.23 455.24 148.23 455.24L135.13 442.61Z" fill="#FEBBB4"/><path d="M135.72 456.64C135.72 456.64 124.48 457.34 123.51 464.84 122.54 472.34 144.8 486.14 150.71 481.41 156.63 476.68 148.82 469.27 148.82 469.27L135.72 456.64Z" fill="#FEBBB4"/></g><g><path d="M133.42 444.03C138.27 449.63 144.01 454.45 150.36 458.26" stroke="#E07582" stroke-width="2" stroke-linecap="round" stroke-miterlimit="10" fill="none"/><path d="M128.4 460.34C133.41 465.1 139.89 468.3 146.71 469.38" stroke="#E07582" stroke-width="2" stroke-linecap="round" stroke-miterlimit="10" fill="none"/><path d="M130.18 474.63C134.9 478.45 140.5 481.19 146.42 482.55" stroke="#E07582" stroke-width="2" stroke-linecap="round" stroke-miterlimit="10" fill="none"/></g></g></g><g><g><path d="M404.16 470.77 387.8 438.46C387.8 438.46 429.67 385.02 430.32 382.85 430.34 382.79 430.34 382.72 430.32 382.64 429.75 379.85 407.35 364.66 407.35 364.66L449.79 319.32C449.79 319.32 456.54 326.08 465.11 335.46 478.71 350.39 496.88 371.97 499.64 383.6 502.65 396.39 404.16 470.77 404.16 470.77Z" fill="#FEBBB4"/><path d="M465.11 335.46C458.82 348.37 447.08 368.75 430.32 382.64 429.75 379.85 407.35 364.66 407.35 364.66L449.79 319.32C449.79 319.32 456.54 326.08 465.11 335.46Z" fill="#F4A19F"/></g><path d="M361.67 458.23 373.41 519.81 207.71 524.7 203.73 463.61Z" fill="#55382C"/><g><path d="M378.55 471.46C377.41 453.52 370.67 429.1 370.67 419.94 370.67 413.19 379.03 377.34 382.14 358.52 393.47 363.75 400.91 373.6 412.24 378.83 436.18 367.77 458.06 343.08 467.31 318.34 442.33 290.91 413.73 258.99 378.99 246.07 358.32 238.38 337.12 232.11 315.6 227.32 281.27 219.68 244.55 227.8 210.1 234.88 209.26 314.04 205.13 400.08 199.69 479.05 208.26 487.75 215.4 496.39 223.97 505.08 236.4 496.2 250.05 479.64 262.49 470.76 267.46 481.94 272.74 493.99 280.24 503.66 312.36 500.24 347.99 489.78 378.55 471.46Z" fill="#EF6B54"/><g><g><path d="M333.45 209.35C332.75 219.66 331.82 233.77 331.84 236.66 331.84 236.89 331.85 237.04 331.86 237.12 332.16 238.9 285.29 268.94 285.29 268.94 285.29 268.94 273.6 238.38 273.59 235.6 273.59 234.12 276.01 229.7 278.03 224.62 279.82 220.12 281.31 215.1 280.49 211.19L334.23 198.16C334.23 198.16 333.89 203.04 333.45 209.35Z" fill="#FEBBB4"/><path d="M334.23 198.16C334.23 198.16 333.89 203.04 333.45 209.35 332.75 219.66 331.82 233.77 331.84 236.66 305.19 238.35 287.8 230.96 278.03 224.62 279.82 220.12 281.31 215.1 280.49 211.19L334.23 198.16Z" fill="#F4A19F"/></g><path d="M285.29 268.95C279.67 249.69 275.02 232.67 281.71 216.3L269.01 213.25C247.28 222.23 238.08 248.62 229.09 277.35 229.09 277.35 251.47 262.88 260.05 262.96 268.63 263.05 285.29 268.95 285.29 268.95Z" fill="#FC906B"/><path d="M285.29 268.95C308.09 255.18 328.79 235.65 332.88 217.9 337.98 219.72 342.67 222.6 346.43 227.87 351.52 240.31 349.33 267.59 348.29 292.55 348.29 292.55 327.82 271.17 319.78 268.78 311.74 266.39 285.29 268.95 285.29 268.95Z" fill="#FC906B"/></g><g><g><path d="M285.29 268.95C285.29 268.95 265.77 368.45 262.48 470.77" stroke="#D34E4A" stroke-width="2" stroke-miterlimit="10" fill="none"/><g><path d="M270.9 282.92C272.23 281.81 274.21 281.99 275.32 283.32 276.43 284.65 276.25 286.63 274.92 287.74 273.59 288.85 271.61 288.67 270.5 287.34 269.38 286.02 269.56 284.03 270.9 282.92Z" fill="#FFFEFD"/><path d="M258.04 381.19C259.37 380.08 261.35 380.26 262.46 381.59 263.57 382.92 263.39 384.9 262.06 386.01 260.73 387.12 258.75 386.94 257.64 385.61 256.53 384.28 256.71 382.3 258.04 381.19Z" fill="#FFFEFD"/><path d="M263.61 327.09C264.94 325.98 266.92 326.16 268.03 327.49 269.14 328.82 268.96 330.8 267.63 331.91 266.3 333.02 264.32 332.84 263.21 331.51 262.1 330.18 262.28 328.2 263.61 327.09Z" fill="#FFFEFD"/><path d="M252.51 436.04C253.84 434.93 255.82 435.11 256.93 436.44 258.04 437.77 257.86 439.75 256.53 440.86 255.2 441.97 253.22 441.79 252.11 440.46 251 439.14 251.18 437.15 252.51 436.04Z" fill="#FFFEFD"/></g></g><g><path d="M355.65 333.87C355.43 346.43 354.73 365.84 352.43 367.51 349.02 369.98 326.02 378.82 324.04 378.82 322.04 378.82 301.15 367.51 299.47 364.09 298.31 361.73 299.38 341.96 300.15 330.04 300.49 324.77 300.77 321.03 300.77 321.03L355.74 323.24C355.75 323.25 355.76 327.75 355.65 333.87Z" fill="#F27B64"/><path d="M355.65 333.87 300.15 330.05C300.49 324.78 300.77 321.04 300.77 321.04L355.74 323.25C355.75 323.25 355.76 327.75 355.65 333.87Z" fill="#FC906B"/></g><g><path d="M381.83 355.8C382.45 327.63 387.54 299.56 396.87 272.97 380.95 297.14 374.31 327.85 381.83 355.8Z" fill="#D34E4A"/><path d="M381.12 351.71C373.45 327.89 372.11 302.07 377.25 277.58 368.39 302.42 369.03 328.28 381.12 351.71Z" fill="#D34E4A"/></g></g></g><g><path d="M389.49 429.94 365.18 410.46C365.18 410.46 353.68 400.8 345.86 399.9 338.04 399 316.26 410.46 317.05 416.18 318.04 423.4 340.7 411.19 343 412.8 345.3 414.41 353.04 417.75 353.04 417.75 353.04 417.75 329.52 423.8 327.29 427.7 325.06 431.61 313.72 442.91 316.79 448.27 319.85 453.64 332.11 439.77 334.02 438.87 335.93 437.98 350.49 432.11 350.49 432.11 350.49 432.11 322.15 451.39 324.07 456.31 325.98 461.23 334.79 456.31 334.79 456.31 334.79 456.31 332.49 464.53 337.47 464.89 342.45 465.25 361.98 457.2 366.57 456.75 366.57 456.75 380.35 484.49 399.31 475.09 418.26 465.73 389.49 429.94 389.49 429.94Z" fill="#FEBBB4"/><path d="M336.52 455.45C344.37 448.46 354.37 443.93 364.8 442.64" stroke="#E07582" stroke-width="2" stroke-linecap="round" stroke-miterlimit="10" fill="none"/></g><g><g><ellipse cx="240.67" cy="163.82" rx="19.42" ry="24.02" fill="#F4A19F" transform="matrix(0.9844 -0.1761 0.1761 0.9844 -25.0851 44.9371)"/><g><path d="M227.79 156.59C226.5 153.84 228.38 150.3 231.22 149.24 234.06 148.18 237.38 149.22 239.65 151.24 241.92 153.25 243.3 156.09 244.3 158.96 245.79 163.22 246.55 167.73 246.57 172.24" stroke="#E07582" stroke-width="2" stroke-linecap="round" stroke-miterlimit="10" fill="none"/><path d="M231.02 167.15C233.54 162.53 238.17 159.13 243.32 158.11" stroke="#E07582" stroke-width="2" stroke-linecap="round" stroke-miterlimit="10" fill="none"/></g></g><g><path d="M250.6 92.85C241.92 122.48 238.65 153.69 241.02 184.48 242.9 208.94 275.36 220.21 299.78 222.06 327.93 224.19 360.14 206.71 376.07 183.35 387.35 166.82 388.69 145.61 389.72 125.61 390.38 112.85 384.94 95.72 380.98 83.57 377.03 71.43 369.77 59.9 358.83 53.35 350.3 48.24 340.17 46.49 330.24 46.12 314.39 45.53 298.25 48.31 284.13 55.54 270 62.77 255.07 77.6 250.6 92.85Z" fill="#FEBBB4"/><path d="M381.47 146.24C382.32 136.09 376.25 126.79 370.21 118.6 364.17 110.41 357.6 101.69 357.22 91.51 333.79 104.79 303.6 106.18 278.46 96.56 280.61 96.14 281.79 94.34 283.35 92.79 275.88 96.74 266.55 98.39 258.13 99.02 250.93 109.54 244.88 120.58 240.71 132.63 239.9 114.58 243.74 96.35 251.75 80.17 290.78 69.3 330.84 57.9 371.29 60.04 382.31 83.69 388.37 110.59 387.06 136.66" fill="#F4A19F"/></g><g><path d="M413.17 80.36C411.55 106.9 404.03 133.06 391.3 156.4 388.97 160.66 386.74 161.92 383.03 165.07 383.52 150.23 376.82 136.26 370.84 122.67 364.87 109.09 358.88 94.56 361.97 80.05 340.61 94.71 312.32 99.25 287.16 93.09 292.75 91.29 297.45 86.87 299.6 81.38 285.54 88.34 269.24 92.08 253.73 94.34 248.4 112.96 243.54 131.6 241.2 150.83 234.39 136.7 229.86 121.02 227.64 105.1 226.22 95.04 225.72 84.88 226.12 74.96 221.63 73.12 219.34 67.9 218.45 63.13 224.19 60.25 230.18 56.96 235.35 53.15 231.31 51.92 228.33 49.71 225.25 46.81 249.2 27.72 282.6 19.15 312.66 24.9 310.88 21.5 308.32 19.55 305.36 17.12 320.13 14.27 336.47 14.2 350.43 19.82 361.46 24.26 371.22 32.6 376.42 43.15 377.82 45.96 378.89 48.93 379.57 52.02 390.88 50.02 404.54 53.99 412.24 62.54 409.63 65.16 404.75 67.45 401.33 68.86 405.7 71.79 410.26 75.97 413.17 80.36Z" fill="#863906"/><path d="M335.99 32.99C306.53 33.24 276.31 33.63 248.84 44.32 252.88 46.1 256.91 48.13 261.32 48.49 252.96 53.83 244.52 58.68 235.18 62.01 237.35 64.21 240.11 65.98 243.19 65.68 235.37 77.74 229.77 91.14 227.65 105.11 226.23 95.05 225.73 84.89 226.13 74.97 221.64 73.13 219.35 67.91 218.46 63.14 224.2 60.26 230.19 56.97 235.36 53.16 231.32 51.93 228.34 49.72 225.26 46.82 249.21 27.73 282.61 19.16 312.67 24.91 310.89 21.51 308.33 19.56 305.37 17.13 320.14 14.28 336.48 14.21 350.44 19.83 361.47 24.27 371.23 32.61 376.43 43.16 363.52 31.37 346.48 24.19 329.02 23.35 331.13 26.52 333.88 29.81 335.99 32.99Z" fill="#9E5716"/></g><g><path d="M358.42 127.34C356.15 119.92 349.98 113.89 342.74 112 335.5 110.11 327.45 112.44 322.26 117.91 332.66 114.23 350.25 119.48 358.42 127.34Z" fill="#863906"/><path d="M250.35 118.39C253.85 111.75 260.11 107.07 266.58 106.27 273.05 105.47 279.56 108.56 283.44 114.29 273.38 110.64 259.65 111.28 250.35 118.39Z" fill="#863906"/><path d="M321.68 151.16C323.42 145.82 328.91 141.96 334.52 142.13 340.12 142.3 345.37 146.48 346.8 151.91" stroke="#172E47" stroke-width="3" stroke-linecap="round" stroke-miterlimit="10" fill="none"/><path d="M255.72 146.8C258.34 141.14 263.88 137.56 269.32 138.03 274.76 138.49 279.81 142.97 281.72 149.02" stroke="#172E47" stroke-width="3" stroke-linecap="round" stroke-miterlimit="10" fill="none"/><path d="M293.73 151.17C292.52 156.31 292.41 161.71 293.4 166.9" stroke="#E07582" stroke-width="2" stroke-linecap="round" stroke-miterlimit="10" fill="none"/><path d="M323.81 169.62C311.44 175.54 298.07 179.34 284.45 180.82 284.68 185.91 287.93 191.5 292.31 194.08 296.7 196.65 302.03 197.29 307.07 196.59 313.14 195.74 319.08 192.87 322.81 188 326.55 183.13 326.53 175.13 323.81 169.62Z" fill="#FFFFFF"/></g><g><path d="M407.75 174.91C402.73 187.19 390.62 193.84 380.69 189.77 370.76 185.7 366.78 172.44 371.8 160.16 376.82 147.88 388.93 141.23 398.86 145.3 408.78 149.37 412.76 162.63 407.75 174.91Z" fill="#FEBBB4"/><g><path d="M403.95 164.9C404.53 159.91 399.92 155.22 394.91 154.94 389.9 154.66 385.15 158.12 383 162.66 380.85 167.2 381 172.58 382.44 177.39" stroke="#E07582" stroke-width="2" stroke-linecap="round" stroke-miterlimit="10" fill="none"/><path d="M394.52 171.22C391.97 166.01 387.52 162.7 382.99 162.66" stroke="#E07582" stroke-width="2" stroke-linecap="round" stroke-miterlimit="10" fill="none"/></g></g></g></g><g><g><path d="M302.44 427.71C314.27 427.48 326.07 425.86 337.52 422.89 339.28 422.43 341.32 421.68 341.8 419.92 342.28 418.17 340.81 416.39 339.1 415.78 337.39 415.17 330.95 415.56 328.33 415.33 332.4 414.18 337.34 412.71 341.11 411.13 342.4 410.59 343.49 409.53 344.09 408.27 344.69 407.01 344.54 405.29 343.41 404.46 342.43 403.73 341.09 403.86 339.88 404.01 335.64 404.56 331.75 404.55 327.51 405.1 330.56 403.53 333.64 401.93 336.22 399.67 338.8 397.41 340.86 394.37 341.26 390.96 341.45 389.3 340.99 387.26 339.4 386.73 338.26 386.35 337.04 386.94 335.99 387.52 331.42 390.05 326.46 392.35 322.18 395.34 325.59 392.22 329.12 388.92 330.69 384.58 331.07 383.53 331.33 382.38 331.09 381.29 330.85 380.2 330 379.18 328.89 379.04 327.94 378.92 327.04 379.42 326.22 379.91 318.59 384.45 309.9 388.64 302.27 393.17 303.55 390.63 304.78 388.06 305.95 385.47 306.38 384.51 306.81 383.53 306.9 382.48 306.99 381.43 306.68 380.29 305.85 379.64 304.62 378.67 302.82 379.1 301.38 379.72 292.49 383.57 287.09 397.25 290.57 407.79 296.19 414.49 298.93 419.72 302.44 427.71Z" fill="#FEBBB4"/><path d="M203.77 390.04C203.77 390.04 244.04 403.12 252.42 402.59 260.81 402.06 292.21 402.59 292.21 402.59L302.44 427.71C302.44 427.71 258.23 440.43 240.22 439.25 222.2 438.07 188.1 432.29 188.1 432.29L203.77 390.04Z" fill="#FEBBB4"/><path d="M223.26 393.6C223.26 393.6 195.55 374.47 180.9 374.83 166.25 375.19 161.1 389.35 161.72 405.06 162.34 420.78 186.43 437.65 207.35 444.21L223.26 393.6Z" fill="#FFB140"/></g></g></g></g><g><linearGradient x1="206.558" y1="300.505" x2="201.662" y2="319.58" gradientUnits="userSpaceOnUse" id="SVGID_5_"><stop offset="0.2206" stop-color="#FCE8D9"/><stop offset="1" stop-color="#F4C7BD"/></linearGradient><path d="M196.26 350.35C197.22 353.97 196.44 358.03 194.19 360.99 191.95 363.96 188.3 365.76 184.63 365.72 190.21 371.44 198.18 374.65 206.08 374.37 213.98 374.09 221.71 370.32 226.89 364.22 223.46 364.35 220 362.67 217.95 359.85 215.89 357.04 215.29 353.18 216.39 349.85L196.26 350.35Z" fill="#F9B799"/><path d="M196.55 352.53C198.87 355.56 202.59 357.43 206.36 357.45 210.13 357.47 213.87 355.65 216.23 352.64L196.55 352.53Z" opacity="0.15"/><g><path d="M140.83 284.41C138.61 281.87 135.47 280.07 132.13 279.89 128.8 279.7 125.33 281.27 123.53 284.14 122.15 286.34 121.82 289.05 121.69 291.66 121.39 297.69 122.19 304.33 126.41 308.55 130.61 312.75 137 313.44 142.88 313.72L140.83 284.41Z" fill="#F9B799"/><path d="M135.42 296.57C135.42 299.77 133.81 302.36 131.83 302.36 129.85 302.36 128.24 299.77 128.24 296.57 128.24 293.37 129.85 290.78 131.83 290.78 133.81 290.79 135.42 293.38 135.42 296.57Z" fill="#F4C7BD"/></g><g><path d="M274.67 284.41C276.89 281.87 280.03 280.07 283.37 279.89 286.7 279.7 290.17 281.27 291.97 284.14 293.35 286.34 293.68 289.05 293.81 291.66 294.11 297.69 293.31 304.33 289.09 308.55 284.89 312.75 278.5 313.44 272.62 313.72L274.67 284.41Z" fill="#F9B799"/><ellipse cx="283.67" cy="296.57" rx="3.59" ry="5.79" fill="#F4C7BD"/></g><path d="M140.77 297.81C139.24 304.38 138.09 311.25 139.5 317.85 142.17 330.29 153.28 338.95 164.59 344.31 190.45 356.56 221.42 356.99 247.59 345.45 258.66 340.57 269.61 332.67 272.94 320.84 275.9 310.32 272.21 299.17 268.56 288.88 262.18 270.87 254.97 251.73 239.65 240.68 226.51 231.21 208.92 229.4 193.46 233.95 162.68 243.01 147.77 267.74 140.77 297.81Z" fill="#F9B799"/><g><path d="M171 284.59C175.45 281.9 181.52 283.37 185.26 287.02 189.17 290.82 190.87 296.39 191.95 301.79 192.01 302.11 192.07 302.45 191.92 302.74 191.74 303.09 191.32 303.21 190.94 303.3 184.34 304.85 177.37 304.72 170.84 302.92 166.05 301.6 163.81 299.09 163.44 296.24 162.92 292.24 166.07 287.57 171 284.59Z" fill="#FFFFFF"/><g><path d="M183.54 298.16C186.66 295.28 186.9 290.36 184.08 287.17 181.26 283.98 176.44 283.74 173.32 286.62 170.2 289.5 169.96 294.42 172.78 297.61 175.6 300.79 180.42 301.04 183.54 298.16Z" fill="#8C7257"/><path d="M180.41 294.58C181.53 293.54 181.62 291.77 180.6 290.62 179.58 289.47 177.85 289.38 176.72 290.42 175.6 291.46 175.51 293.23 176.53 294.38 177.55 295.53 179.28 295.62 180.41 294.58Z" fill="#3A3129"/><path d="M174.75 290.74C174.19 290.7 173.63 290.67 173.09 290.79 172.29 290.98 171.96 291.37 171.84 292.18 171.81 292.4 171.77 292.63 171.77 292.85 171.76 293.81 172.4 295.32 173.23 295.84 173.71 296.14 174.33 295.8 174.78 295.45 175.86 294.62 178.38 293.04 178.86 291.71 179.22 290.71 178.57 290.99 177.56 290.92 176.62 290.87 175.69 290.81 174.75 290.74Z" fill="#FFFFFF" opacity="0.2"/><path d="M175.48 297.43C175.44 297.47 175.4 297.52 175.38 297.58 175.36 297.7 175.47 297.79 175.57 297.86 175.9 298.07 176.25 298.25 176.63 298.31 177.01 298.37 177.42 298.3 177.73 298.06 178.02 297.84 178.18 297.49 178.32 297.15 178.47 296.76 179.38 293.88 178.34 294.41 177.84 294.66 177.31 295.5 176.92 295.91 176.44 296.41 175.96 296.92 175.48 297.43Z" fill="#FFFFFF" opacity="0.2"/></g><g><path d="M163.38 296.24C162.9 294.29 163.45 292.21 164.3 290.39 165.23 288.59 166.55 287.01 168.05 285.65 168.79 284.96 169.61 284.35 170.47 283.81 171.38 283.26 172.37 282.82 173.4 282.54 174.44 282.28 175.5 282.17 176.56 282.18 177.62 282.21 178.66 282.36 179.68 282.62 181.69 283.22 183.55 284.23 185.14 285.58 186.7 286.97 188 288.57 188.91 290.38 189.85 292.17 190.54 294.05 191.04 295.96 191.49 297.88 191.84 299.81 192 301.76L191.88 301.78C191.11 297.99 190.06 294.2 188.1 290.85 187.12 289.18 185.9 287.66 184.43 286.41 183.68 285.8 182.88 285.27 182.03 284.81 181.17 284.38 180.27 284.02 179.35 283.76 178.42 283.51 177.47 283.35 176.51 283.31 175.55 283.29 174.59 283.38 173.65 283.59 171.77 284.04 170.13 285.15 168.63 286.36 167.14 287.59 165.82 289.03 164.84 290.7 163.88 292.36 163.25 294.29 163.49 296.22L163.38 296.24Z" fill="#5E5149"/></g><path d="M240.26 284.59C235.81 281.9 229.74 283.37 226 287.02 222.09 290.82 220.39 296.39 219.31 301.79 219.25 302.11 219.19 302.45 219.34 302.74 219.52 303.09 219.94 303.21 220.32 303.3 226.92 304.85 233.89 304.72 240.42 302.92 245.21 301.6 247.45 299.09 247.82 296.24 248.34 292.24 245.19 287.57 240.26 284.59Z" fill="#FFFFFF"/><g><path d="M247.76 296.23C248 294.3 247.37 292.37 246.41 290.71 245.43 289.04 244.11 287.6 242.62 286.37 241.12 285.16 239.48 284.05 237.6 283.6 236.66 283.39 235.7 283.3 234.74 283.32 233.78 283.36 232.83 283.52 231.9 283.77 230.97 284.03 230.08 284.39 229.22 284.82 228.37 285.28 227.57 285.81 226.82 286.42 225.35 287.67 224.13 289.19 223.15 290.86 221.19 294.21 220.15 298 219.37 301.79L219.25 301.77C219.41 299.82 219.76 297.89 220.21 295.97 220.71 294.06 221.41 292.18 222.34 290.39 223.26 288.58 224.56 286.97 226.11 285.59 227.7 284.24 229.56 283.22 231.57 282.63 232.59 282.37 233.63 282.22 234.69 282.19 235.75 282.18 236.81 282.3 237.85 282.55 238.88 282.83 239.87 283.26 240.78 283.82 241.64 284.36 242.45 284.97 243.2 285.66 244.7 287.02 246.01 288.6 246.95 290.4 247.8 292.21 248.35 294.3 247.87 296.25L247.76 296.23Z" fill="#5E5149"/></g></g><g><path d="M238.58 298.16C241.7 295.28 241.94 290.36 239.12 287.17 236.3 283.98 231.48 283.74 228.36 286.62 225.24 289.5 225 294.42 227.82 297.61 230.64 300.79 235.46 301.04 238.58 298.16Z" fill="#8C7257"/><path d="M235.45 294.58C236.57 293.54 236.66 291.77 235.64 290.62 234.62 289.47 232.89 289.38 231.76 290.42 230.64 291.46 230.55 293.23 231.57 294.38 232.59 295.53 234.33 295.62 235.45 294.58Z" fill="#3A3129"/><path d="M229.79 290.74C229.23 290.7 228.67 290.67 228.13 290.79 227.33 290.98 227 291.37 226.88 292.18 226.85 292.4 226.81 292.63 226.81 292.85 226.8 293.81 227.44 295.32 228.27 295.84 228.75 296.14 229.37 295.8 229.82 295.45 230.9 294.62 233.42 293.04 233.9 291.71 234.26 290.71 233.61 290.99 232.6 290.92 231.67 290.87 230.73 290.81 229.79 290.74Z" fill="#FFFFFF" opacity="0.2"/><path d="M230.53 297.43C230.49 297.47 230.45 297.52 230.43 297.58 230.41 297.7 230.52 297.79 230.62 297.86 230.95 298.07 231.3 298.25 231.68 298.31 232.06 298.37 232.47 298.3 232.78 298.06 233.07 297.84 233.23 297.49 233.37 297.15 233.52 296.76 234.43 293.88 233.39 294.41 232.89 294.66 232.36 295.5 231.97 295.91 231.48 296.41 231 296.92 230.53 297.43Z" fill="#FFFFFF" opacity="0.2"/></g><path d="M256.52 307.88C259.55 304.39 261.11 299.61 260.74 294.96 260.27 289.1 256.98 282.48 250.8 282.72 241.74 283.07 232.31 280.84 225.14 275.67 237.32 278.82 250.02 280.29 262.54 279.28 261.45 280.69 260.11 281.88 258.59 282.77 262.17 283.2 264.17 287.34 264.44 291.02 264.93 297.53 261.69 304.06 256.52 307.88Z" opacity="0.15"/><path d="M175.87 253.45C166.52 257.79 161.25 265.71 154.8 273.24 151.52 277.08 148.76 280.95 147.01 285.78 146.32 287.69 143.03 298.12 144.98 299.65 140.82 295.5 143.82 280.32 147.56 271.87 152.37 261.03 164.23 253.21 175.87 253.45Z" opacity="0.15"/><path d="M251.29 220.97C254.45 223.63 257.43 227.04 257.87 231.2 251.5 225.9 243.8 222.26 235.72 220.73 238.7 226.58 243.51 231.45 249.27 234.44 236.99 234.27 224.85 229.11 216.07 220.35 217.39 226.22 220.91 231.54 225.74 234.98 223.25 233.21 218.13 232.97 215.17 231.52 211.76 229.84 208 227.6 205.41 224.73 200.61 219.41 201.46 213.66 208.33 211.53 222.62 207.11 239.94 211.39 251.29 220.97Z" fill="#FFFFFF" opacity="0.1"/><path d="M144.35 235.99C140.65 239.8 138.36 245.09 138.41 250.45 142.41 246.52 146.83 243.04 151.56 240.08 150.65 242.79 149.21 245.31 147.36 247.46 151.91 247.03 156.58 245.93 160.15 243.02 164 239.89 167.88 231.42 161.41 229.2 156.05 227.37 147.9 232.34 144.35 235.99Z" fill="#FFFFFF" opacity="0.1"/><g><path d="M244.96 276.26C243.29 274.99 241.51 273.95 239.61 273.22 237.72 272.49 235.77 272.03 233.81 271.83 232.83 271.75 231.85 271.78 230.88 271.89 229.92 271.97 228.98 272.07 228.02 272.09 227.06 272.16 226.08 272.15 225.17 272.28 224.25 272.41 223.37 272.58 222.41 273.15L222.12 272.97C222.3 271.76 223.26 270.72 224.27 270.07 225.31 269.39 226.41 269.02 227.51 268.74 228.63 268.5 229.78 268.4 230.92 268.54 232.06 268.66 233.16 268.92 234.26 269.16 236.44 269.69 238.51 270.55 240.37 271.71 242.2 272.91 243.87 274.34 245.19 276.02L244.96 276.26Z" fill="#BC5D1D"/></g><path d="M200.47 310.27C199.25 311.77 197.52 313.33 197.91 315.24 198.12 316.25 198.93 317.06 199.87 317.47 200.8 317.88 201.84 317.94 202.86 317.93 204.1 317.91 205.4 317.76 206.42 317.04 208.04 315.9 208.52 313.66 208.44 311.65 208.3 308.26 206.8 304.31 204.11 302.23 202.77 304.87 202.38 307.92 200.47 310.27Z" fill="url(#SVGID_5_)"/><path d="M206.41 317.04C205.39 317.76 204.09 317.91 202.85 317.93 201.84 317.94 200.79 317.88 199.86 317.47 198.93 317.06 198.11 316.26 197.9 315.24 199.03 315.97 200.59 316.22 201.91 316.41 203.38 316.63 204.96 316.83 206.41 317.04Z" opacity="0.07"/><g><path d="M203.18 325.94C207.98 326.23 212.82 325.67 217.43 324.35 222.06 323.09 226.49 321.06 230.45 318.34L230.55 318.48C228.91 320.35 226.91 321.86 224.76 323.1 223.69 323.74 222.55 324.24 221.42 324.76 220.26 325.22 219.08 325.62 217.89 325.98 215.48 326.62 213.01 327.03 210.52 327.07 208.04 327.12 205.54 326.86 203.17 326.11L203.18 325.94Z" fill="#E08D80"/></g><g><path d="M166.05 276.02C167.37 274.34 169.03 272.91 170.87 271.71 172.73 270.55 174.8 269.69 176.98 269.16 178.07 268.92 179.18 268.66 180.32 268.54 181.46 268.4 182.61 268.5 183.73 268.74 184.83 269.03 185.94 269.39 186.97 270.07 187.99 270.71 188.94 271.76 189.12 272.97L188.83 273.15C187.87 272.58 186.99 272.41 186.07 272.28 185.16 272.15 184.18 272.16 183.22 272.09 182.26 272.07 181.32 271.97 180.36 271.89 179.4 271.77 178.41 271.75 177.43 271.83 175.48 272.03 173.52 272.49 171.63 273.22 169.74 273.94 167.95 274.99 166.28 276.26L166.05 276.02Z" fill="#BC5D1D"/></g></g><path d="M284.29 252.85C283.66 247.51 280.94 242.97 278.55 238.2 273.62 228.36 265.88 220.3 257.02 214.07 239.45 201.7 216.87 195.24 195.56 196.31 184.4 196.87 168.87 196.36 162.63 205.84 156.62 206.34 143.19 218.45 138.1 225.46 131.47 234.61 129.48 246.5 129.72 257.89 129.97 269.89 131.06 290.99 140.75 297.81 141.55 288.48 148.38 275.46 151.77 267.62 153.5 263.62 156.56 262.56 159.22 259.17 160.02 258.15 163.73 255.93 166.15 253.5 166.49 257.83 168.53 256.33 170.47 259.85 170.67 259.93 170.87 259.99 171.06 260.09 173.64 261.39 176.24 262.62 178.86 263.81 179.59 263.58 180.36 263.42 181.15 263.42 182.95 263.44 184.75 263.52 186.54 263.73 187.25 263.83 187.97 263.93 188.68 264.02 188.99 264.07 189.22 264.1 189.41 264.13 189.33 264.11 190.3 264.11 190.39 264.11 193.65 264.05 196.79 264.39 199.7 266.02 199.82 266.09 199.92 266.19 200.03 266.26 200.23 266.25 200.42 266.21 200.62 266.21 214.82 266.15 232.42 263.5 245.88 268.97 246 269.02 246.1 269.07 246.21 269.13 253.36 269.57 259.86 272.01 264.84 279.33 267.07 282.61 266.49 285.82 264.57 288.09 267.48 289.32 269.24 292.31 269.64 295.68 270.25 300.76 271.13 305.8 272.17 310.81 273.69 309.05 275.3 307.35 276.7 305.49 282.4 297.89 283.92 287.89 284.49 278.33 285.04 269.94 285.27 261.21 284.29 252.85Z" fill="#110802"/></svg>