<svg width="456.28" height="313.63" viewBox="0 0 456.28 313.63" xmlns="http://www.w3.org/2000/svg" xmlns:xlink="http://www.w3.org/1999/xlink" xml:space="preserve" overflow="hidden"><defs></defs><g><path d="M453.44 80.81C463.18 109.27 447.96 157.2 407.46 199.7 367.64 241.89 302.55 278.65 228.14 277.73 153.73 278.65 88.64 241.9 48.82 199.7 8.33 157.21-6.89 109.27 2.85 80.81 25.23 23.15 122.85 41.75 228.14 39.05 333.44 41.75 431.05 23.15 453.44 80.81Z" fill="#2B080E"/><g><path d="M339.15 210.57C339.15 210.57 106.57 210.57 106.3 210.57 105.74 210.57 101.98 186.1 101.34 183.67 97.32 168.42 94.3 150.06 103.11 136.26 109.6 126.07 119.54 118.38 129.89 112.42 158.01 96.22 192.09 90.58 224.15 90.58 264.39 90.58 363.64 106.35 349.19 167.05 345.73 181.59 342.4 195.98 339.15 210.57Z" fill="#8F4550" opacity="0.54"/><path d="M312.97 210.57 135.33 210.57 139.12 154.17C141.52 118.52 178.87 90.57 224.15 90.57L224.15 90.57C269.42 90.57 306.78 118.51 309.17 154.17L312.97 210.57Z" fill="#56101B"/><path d="M246.44 121.78C245.48 118.98 243.84 116.25 242.08 113.94 239.66 110.77 236.84 107.45 236.28 103.66 235.42 97.83 241.3 91.43 241.17 85.55L214.06 85.55C213.94 91.42 221.69 97.29 220.84 103.11 220.33 106.58 217.51 109.63 215.09 112.39 213.43 114.28 211.61 116.09 210.26 118.13 206.92 123.2 206.83 130.47 212.38 134.52 216.24 137.33 221.59 138.59 226.69 138.79 231.82 138.99 237.31 138.15 241.57 135.73 247.69 132.24 248.19 126.89 246.44 121.78Z" fill="#731624"/><path d="M216.6 114.82C211.51 124.98 215.57 129.94 224.38 130.47 225.71 130.55 226.72 131.69 226.65 133.03 226.49 135.75 223.41 135.26 223.61 135.22 212.98 132.41 208.75 125.01 216.6 114.82Z" fill="#C7A2A7"/></g><path d="M356.04 213.47C344.22 204.72 331.03 197.27 318.1 190.34 279.89 169.87 264.48 170.47 225.42 179.25 223.45 179.69 186.53 163.96 137.07 185.02 124.66 190.31 89.2 200.08 91.26 218.31 95.55 256.35 232.4 277.74 232.4 277.74 232.4 277.74 364.95 235.07 356.04 213.47Z" fill="#ED1C24"/><path d="M407.46 199.7C413.65 193.21 419.24 186.59 424.25 179.93 387.86 166.92 316.7 173.03 241.17 171.86 150.3 173.26 65.74 164.13 40.47 190.45 43.12 193.56 45.91 196.64 48.82 199.7 76.16 228.68 115.43 255.09 161.44 268.49 186.83 268.03 213.99 267.27 241.67 267.98 260.3 267.5 278.7 267.69 296.48 268.01 341.79 254.46 380.44 228.33 407.46 199.7Z" fill="#F4ECED"/><path d="M296.49 268.01C331.47 257.55 362.48 239.59 387.24 218.77 346.73 226.13 295.46 226.32 242.11 227.69 169.09 225.82 99.56 226.15 56.33 207.3 83.14 233.24 119.49 256.28 161.45 268.5L296.49 268.01Z" fill="#CFB7B4"/><path d="M237.92 176.57 241.68 233.89 233.13 233.89Z" fill="#CFB7B4"/><path d="M161.16 233.89 164.92 179.58 151.48 233.89Z" fill="#CFB7B4"/><path d="M312 233.89 304.47 181.99 320.07 233.89Z" fill="#CFB7B4"/><path d="M431.62 112.44C440.44 96.95 426.65 70.86 389.99 47.74 385.68 44.99 381.03 42.29 376.09 39.66 335.07 36.15 282.63 40.45 228.14 39.06 173.11 40.47 120.17 36.06 78.97 39.77 74.1 42.37 69.53 45.04 65.27 47.75 28.61 70.88 14.83 96.97 23.64 112.45 43.91 143.83 132.29 133.71 227.63 135.18 322.97 133.7 411.36 143.82 431.62 112.44Z" fill="#F4ECED"/><path d="M432.55 110.59C439.34 94.93 425.24 69.97 390 47.73 385.69 44.98 381.04 42.28 376.1 39.65 335.08 36.14 282.64 40.44 228.15 39.05 173.12 40.46 120.18 36.05 78.98 39.76 74.11 42.36 69.54 45.03 65.28 47.74 29.57 70.26 15.57 95.6 23.01 111.21 62.31 80.71 143.05 81.54 228.57 79.35 313.5 81.52 393.17 80.73 432.55 110.59Z" fill="#CFB7B4"/><path d="M224.38 130.46 228.14 73.14 219.6 73.14Z" fill="#CFB7B4"/><path d="M147.62 73.14 151.38 127.45 137.94 73.14Z" fill="#CFB7B4"/><path d="M298.46 73.14 290.94 125.04 306.53 73.14Z" fill="#CFB7B4"/><path d="M228.57 63.22C333.81 65.92 430.96 64.05 453.41 121.6 457.24 106.02 457.25 91.93 453.44 80.82 431.05 23.15 331.02 2.7 225.72 0 120.43 2.7 25.23 23.15 2.85 80.81-0.95 91.93-0.95 106.02 2.88 121.59 25.33 64.04 123.33 65.91 228.57 63.22Z" fill="#FF9082"/><path d="M453.4 121.6C445.68 146.49 435.27 169.22 407.46 191.72 367.15 224.32 311.81 242.26 237.41 241.34 163 242.25 88.64 241.9 48.82 199.7 24.15 173.8 8.86 145.89 2.88 121.59 2.87 121.62 2.86 121.65 2.85 121.68-6.89 150.14 8.33 198.07 48.83 240.57 88.65 282.76 158.74 314.53 233.14 313.6 307.55 314.52 367.65 282.76 407.46 240.57 447.95 198.07 463.17 150.14 453.44 121.68 453.42 121.65 453.41 121.62 453.4 121.6Z" fill="#FF9082"/></g></svg>