<svg width="147.23" height="239.8" viewBox="0 0 147.23 239.8" xmlns="http://www.w3.org/2000/svg" xmlns:xlink="http://www.w3.org/1999/xlink" xml:space="preserve" overflow="hidden"><defs></defs><g><g><path d="M15.41 174.35 15.41 228.02C15.41 231.25 12.53 233.71 9.34 233.21L4.69 232.47 7.1 187.29 7.8 174.35 15.41 174.35Z" fill="#C92039"/><path d="M93.03 176.3 93.03 234.15C93.03 237.62 89.92 240.27 86.49 239.73L81.47 238.95 83.89 193.6 84.82 176.3 93.03 176.3Z" fill="#C92039"/><path d="M113.88 223.63 109.36 223.3 108.28 188.08 107.65 167.39 114.94 166.78 116.48 185.04 119.28 218.17C119.53 221.27 116.98 223.85 113.88 223.63Z" fill="#C92039"/><path d="M50.2 167.06 49.18 195.23 48.33 218.6C48.22 221.71 45.36 223.97 42.32 223.37L37.88 222.5 40.39 194.58 42.89 166.79 50.2 167.06Z" fill="#C92039"/><path d="M7.93 174.49 15.54 174.49 15.54 190.05C12.43 189.19 9.65 188.29 7.23 187.43L7.93 174.49Z" fill="#A00D30"/><path d="M43.02 166.94 50.34 167.21 49.32 195.38C46.28 195.25 43.34 195.03 40.52 194.74L43.02 166.94Z" fill="#A00D30"/><path d="M84.96 176.16 93.17 176.16 93.17 191.89C90.32 192.45 87.28 193 84.03 193.46L84.96 176.16Z" fill="#A00D30"/><path d="M116.62 184.9C114.29 185.88 111.56 186.92 108.42 187.94L107.79 167.25 115.08 166.64 116.62 184.9Z" fill="#A00D30"/></g><g><path d="M47.15 118.61C46.9 119.3 44.93 120.04 42.13 120.85 36.95 122.38 28.92 124.14 23.77 126.22 16.59 129.13 17.85 156.95 18.13 162 18.16 162.51 18.19 162.78 18.19 162.78 18.19 162.78 5.91 164.5 2.96 162.78 0.02 161.07 1.25 133.81 6.15 124.24 11.06 114.67 46.17 115.16 46.17 115.16 46.17 115.16 47.89 116.66 47.15 118.61Z" fill="#AA112F"/><path d="M42.14 120.86C36.96 122.39 28.93 124.15 23.78 126.23 16.6 129.14 17.86 156.96 18.14 162.01 15.84 161.86 14.01 160.9 13.29 158.58 10.65 150.11 14.42 130.93 15.73 126.61 17.05 122.28 40.65 117.96 40.65 117.96L42.14 120.86Z" fill="#A00D30"/></g><path d="M126.32 111.56C121.08 133.29 125.31 166.86 118.83 171.38 112.33 175.89 94.27 184.92 52.8 181.81 11.32 178.72 0.88 178.77 0.04 167.18-0.13 164.96 0.37 162.74 1.38 160.59L1.4 160.55C5.69 151.54 19.23 143.94 32.2 143.34 37.59 143.34 41.26 142.79 42.7 142.53 43.14 142.45 43.37 142.4 43.37 142.4 41.51 141.75 37.56 140.33 36.99 132.72 36.43 125.11 34.74 20.63 34.74 20.63 34.74 20.63 33.61 2.93 48.28 1.52 50.04 1.35 52.31 1.16 55.01 0.96L55.08 0.96C74.85-0.48 116.68-1.8 138.01 8.85 143.15 11.42 145.82 16.53 146.78 23.19 146.8 23.33 146.82 23.48 146.85 23.61 146.85 23.67 146.86 23.73 146.87 23.79 146.94 24.29 146.99 24.78 147.04 25.29 147.05 25.36 147.06 25.43 147.06 25.51 149.21 50.81 130.32 94.95 126.32 111.56Z" fill="#E23042"/><path d="M126.32 111.56C121.08 133.29 125.31 166.86 118.83 171.38 112.33 175.89 94.27 184.92 52.8 181.81 11.32 178.72 0.88 178.77 0.04 167.18-0.13 164.96 0.37 162.74 1.38 160.59L1.4 160.55C3.41 156.34 7.43 152.43 12.5 149.4 18.25 145.96 25.3 143.66 32.2 143.34 37.59 143.34 41.26 142.79 42.7 142.53L42.77 142.53C42.96 142.54 43.15 142.54 43.33 142.55 43.35 142.55 43.39 142.55 43.42 142.56 49.6 142.8 55.73 143.36 61.63 144.07 79.6 146.26 95.38 149.93 103.35 150.92 106.26 151.28 108.12 151.28 108.68 150.73 112.34 147.04 110.93 130.73 116.57 99.72 122.22 68.72 142.25 33.95 137.73 18.49 133.27 3.24 57.73 0.96 55.08 0.96 74.85-0.48 116.68-1.8 138.01 8.85 143.15 11.42 145.82 16.53 146.78 23.19 146.8 23.33 146.82 23.48 146.85 23.61 146.85 23.67 146.86 23.73 146.87 23.79 146.94 24.29 146.99 24.78 147.04 25.29 147.05 25.36 147.06 25.43 147.06 25.51 149.21 50.81 130.32 94.95 126.32 111.56Z" fill="#C92039"/><path d="M126.32 111.56C121.08 133.29 125.31 166.86 118.83 171.38 112.33 175.89 93.47 189.03 52.05 185.3 20.45 182.45 0.88 178.78 0.04 167.18-0.13 164.96 0.37 162.74 1.38 160.59L1.4 160.55C1.4 160.55 7.28 165.24 37.37 167.18 67.47 169.12 119.02 171.62 120.14 149.11 121.27 126.61 122.77 115.69 128.04 96.88 133.09 78.81 147.91 40.41 147.06 25.51 149.21 50.81 130.32 94.95 126.32 111.56Z" fill="#AA112F"/><path d="M44.98 16.34C50.37 13.1 52.11 13.03 74.17 12.15 96.23 11.27 118.18 12.79 125.31 20.63 129.75 25.52 124.89 61.35 119.95 63.59 112.61 66.91 53.3 61.25 45.62 61.55 37.98 61.85 40.29 19.15 44.98 16.34Z" fill="#F33D49" opacity="0.4"/><path d="M44.58 71.29C49.07 68.6 50.55 66.41 68.87 67.8 91.16 69.49 105.49 68.33 111.43 74.86 115.13 78.93 111.08 108.75 106.97 110.61 100.87 113.37 51.51 108.66 45.11 108.92 38.76 109.17 40.68 73.64 44.58 71.29Z" fill="#F33D49" opacity="0.4"/><path d="M47.29 116.01C50.98 114.23 59.46 114.4 74.42 115.18 92.63 116.13 100.14 114.7 104.94 118.9 107.93 121.52 106.39 143.81 103.02 145.05 98.01 146.88 52.69 140.23 47.46 140.44 42.28 140.64 44.09 117.56 47.29 116.01Z" fill="#F33D49" opacity="0.4"/><g><path d="M63.65 38.5C62.91 38.21 61.97 38.23 61.18 38.16 60.3 38.08 59.41 38.01 58.53 37.94 58.31 37.92 58.08 37.91 57.86 37.89 58.01 36.7 58.16 35.51 58.27 34.31 58.3 33.92 57.73 33.82 57.66 34.22 57.47 35.42 57.32 36.63 57.16 37.84 55.9 37.75 54.64 37.65 53.38 37.56 53.05 37.54 53 38.03 53.33 38.07 54.58 38.21 55.83 38.35 57.08 38.48 57.06 38.64 57.04 38.8 57.02 38.97 56.92 39.76 56.82 40.54 56.71 41.33 56.61 42.14 56.38 43.07 56.51 43.88 56.55 44.12 56.88 44.17 56.98 43.94 57.28 43.26 57.3 42.4 57.39 41.67 57.48 40.89 57.58 40.11 57.67 39.33 57.7 39.08 57.73 38.82 57.77 38.57 58.03 38.6 58.29 38.63 58.55 38.66 59.39 38.75 60.22 38.83 61.06 38.91 61.85 38.99 62.8 39.18 63.58 39.03 63.83 38.98 63.88 38.59 63.65 38.5Z" fill="#C92039"/><path d="M102.87 41.35C102.3 41.07 101.7 40.91 101.09 40.73 100.53 40.57 99.98 40.44 99.41 40.35 99.73 38.79 100.19 37.26 100.77 35.78 100.95 35.33 100.27 35.04 100.07 35.49 99.39 37.02 98.86 38.6 98.5 40.23 97.58 40.12 96.66 40.04 95.73 40.04 95.24 40.04 95.14 40.79 95.64 40.8 96.54 40.82 97.44 40.9 98.33 41.02 98.17 41.88 98.05 42.75 97.98 43.62 97.9 44.54 97.83 45.58 98.11 46.47 98.2 46.77 98.61 46.7 98.68 46.43 98.9 45.6 98.86 44.68 98.92 43.82 98.98 42.98 99.07 42.14 99.21 41.31 99.22 41.26 99.23 41.2 99.24 41.15 99.83 41.25 100.43 41.36 101.01 41.49 101.56 41.61 102.1 41.78 102.65 41.88 102.97 41.93 103.17 41.5 102.87 41.35Z" fill="#C92039"/><path d="M57.99 92.38C57.22 92.04 56.35 91.88 55.49 91.79 55.54 91.46 55.58 91.14 55.61 90.82 55.76 89.47 55.8 88.11 55.7 86.75 55.67 86.24 54.87 86.19 54.9 86.71 54.96 88.03 54.92 89.36 54.74 90.67 54.69 91.02 54.63 91.37 54.56 91.72 54.55 91.72 54.54 91.72 54.53 91.72 53.36 91.67 52.19 91.76 51.04 91.99 50.56 92.08 50.66 92.84 51.15 92.75 52.22 92.55 53.31 92.47 54.4 92.51 54.25 93.24 54.11 93.96 54.09 94.69 54.09 94.89 54.4 94.98 54.51 94.82 54.94 94.16 55.18 93.38 55.34 92.59 56.17 92.69 56.99 92.86 57.82 92.98 58.18 93.02 58.31 92.52 57.99 92.38Z" fill="#C92039"/><path d="M92.94 97.48C92.08 97.21 91.18 97.06 90.29 96.9 90.31 96.73 90.34 96.57 90.36 96.4 90.54 95.08 90.7 93.75 90.86 92.42 90.91 91.96 90.21 91.82 90.14 92.29 89.93 93.57 89.73 94.85 89.54 96.14 89.51 96.34 89.48 96.54 89.46 96.74 88.72 96.6 87.98 96.47 87.25 96.33 86.92 96.27 86.89 96.78 87.21 96.85 87.94 96.99 88.66 97.13 89.39 97.27 89.36 97.51 89.32 97.76 89.29 98 89.25 98.32 89.22 98.64 89.2 98.97 89.18 99.4 89.08 99.83 89.13 100.26 89.17 100.58 89.55 100.64 89.67 100.34 89.92 99.74 89.99 98.99 90.1 98.35 90.15 98.05 90.19 97.74 90.23 97.44 91.1 97.61 91.99 97.8 92.88 97.87 93.08 97.88 93.15 97.55 92.94 97.48Z" fill="#C92039"/></g><path d="M44.2 155.58C30.67 154.94 16.13 151.98 12.48 149.4 18.23 145.96 25.28 143.66 32.18 143.34 37.57 143.34 41.24 142.79 42.68 142.53L42.75 142.53C42.85 142.53 43.04 142.54 43.31 142.55 43.33 142.55 43.37 142.55 43.4 142.56 45.65 142.68 52.89 143.25 61.61 144.07 78.68 145.71 101.43 148.38 103.33 150.92 106.4 155.02 73.61 156.97 44.2 155.58Z" fill="#E23042"/><path d="M78.19 147.66C78.15 148.76 67.8 149.32 55.05 148.92 42.31 148.51 32 147.29 32.04 146.2 32.08 145.11 42.43 144.54 55.18 144.94 67.92 145.34 78.23 146.56 78.19 147.66Z" fill="#F33D49" opacity="0.4"/><path d="M129.54 115.83C128.69 118.26 111.76 121.32 102.67 125.29 95.23 128.53 95.65 156.84 96.05 167.05 96.15 169.33 96.24 170.71 96.24 170.71 96.24 170.71 82.14 172.85 78.75 170.71 75.37 168.58 76.77 134.74 82.42 122.85 88.07 110.97 128.42 111.57 128.42 111.57 128.42 111.57 129.45 112.53 129.7 113.97 129.8 114.51 129.77 115.15 129.54 115.83Z" fill="#AA112F"/><path d="M129.54 115.83C128.69 118.26 111.76 121.32 102.67 125.29 95.23 128.53 95.65 156.84 96.05 167.05L91.54 167.05C91.54 167.05 90.78 133 96.42 126.43 101.58 120.41 125.58 117.1 129.68 113.96 129.8 114.51 129.77 115.15 129.54 115.83Z" fill="#A00D30"/></g></svg>