<svg width="238.72" height="234.01" viewBox="0 0 238.72 234.01" xmlns="http://www.w3.org/2000/svg" xmlns:xlink="http://www.w3.org/1999/xlink" xml:space="preserve" overflow="hidden"><defs></defs><g><g><g><g><path d="M10.03 84.57 10.03 149.43C10.03 159.52 12.06 169.32 16.07 178.55 19.94 187.46 25.47 195.46 32.52 202.32 39.57 209.18 47.78 214.58 56.93 218.34 66.41 222.25 76.47 224.22 86.83 224.22L151.89 224.22C162.25 224.22 172.31 222.24 181.79 218.34 190.94 214.57 199.15 209.18 206.2 202.31 213.25 195.45 218.78 187.45 222.65 178.54 224.62 174 226.12 169.32 227.12 164.53 228.16 159.59 228.69 154.54 228.69 149.42L228.69 84.57C228.69 74.48 226.66 64.68 222.65 55.45 218.78 46.54 213.25 38.54 206.2 31.68 199.15 24.82 190.94 19.42 181.79 15.66 172.31 11.75 162.25 9.78 151.89 9.78L86.83 9.78C76.47 9.78 66.41 11.76 56.93 15.66 53.04 17.26 49.33 19.15 45.8 21.33 41.02 24.27 36.58 27.74 32.53 31.68 25.97 38.07 20.72 45.44 16.91 53.62 16.63 54.23 16.35 54.84 16.08 55.45 12.07 64.68 10.03 74.48 10.03 84.57Z" fill="#D58900"/></g><g><path d="M231.89 51.65C227.52 41.58 221.26 32.53 213.29 24.77 205.32 17.01 196.04 10.92 185.7 6.65 174.98 2.24 163.6 0 151.89 0L86.83 0C75.12 0 63.75 2.24 53.02 6.66 52.29 6.96 51.56 7.27 50.84 7.6 41.37 11.8 32.83 17.57 25.43 24.78 19.1 30.94 13.84 37.92 9.76 45.59 8.71 47.56 7.73 49.58 6.83 51.65 6.81 51.69 6.8 51.72 6.78 51.76 6.52 52.35 6.28 52.94 6.04 53.53 5.14 55.74 4.34 57.98 3.64 60.25 1.79 66.28 0.63 72.49 0.2 78.82 0.07 80.72 0 82.64 0 84.57L0 149.43C0 160.84 2.3 171.92 6.83 182.36 11.2 192.43 17.46 201.48 25.43 209.24 33.4 217 42.68 223.09 53.02 227.36 63.74 231.78 75.12 234.02 86.83 234.02L151.89 234.02C157.04 234.02 162.12 233.59 167.12 232.73 169.91 232.25 172.67 231.64 175.39 230.89 178.88 229.93 182.32 228.76 185.7 227.37 186.15 227.19 186.59 227 187.03 226.81 196.84 222.58 205.67 216.68 213.29 209.26 220.21 202.52 225.84 194.81 230.07 186.3 230.71 185.01 231.32 183.71 231.89 182.39 236.42 171.95 238.72 160.87 238.72 149.46L238.72 84.57C238.72 73.17 236.42 62.09 231.89 51.65ZM213.4 174.75C210.04 182.49 205.22 189.45 199.09 195.42 192.96 201.39 185.82 206.08 177.87 209.35 176.79 209.79 175.71 210.21 174.62 210.59 171.94 211.54 169.22 212.31 166.45 212.91 164.23 213.39 161.98 213.77 159.7 214.02 157.12 214.31 154.51 214.46 151.88 214.46L86.83 214.46C77.82 214.46 69.08 212.74 60.84 209.35 52.89 206.07 45.75 201.39 39.62 195.42 33.49 189.45 28.68 182.49 25.31 174.75 21.83 166.73 20.06 158.21 20.06 149.44L20.06 84.57C20.06 80.49 20.44 76.47 21.2 72.52 21.59 70.47 22.09 68.45 22.68 66.45 22.96 65.5 23.27 64.55 23.6 63.61 24.11 62.14 24.68 60.69 25.3 59.26 25.58 58.61 25.88 57.96 26.18 57.32 29.48 50.35 33.99 44.05 39.61 38.59 45.74 32.62 52.88 27.93 60.83 24.65 62.32 24.04 63.82 23.48 65.34 22.98 72.23 20.7 79.43 19.54 86.82 19.54L151.88 19.54C160.89 19.54 169.63 21.26 177.87 24.65 185.82 27.93 192.96 32.61 199.09 38.59 205.22 44.56 210.03 51.51 213.4 59.26 216.88 67.28 218.65 75.8 218.65 84.57L218.65 149.43C218.65 158.2 216.89 166.7 213.41 174.71 213.41 174.73 213.41 174.74 213.4 174.75Z" fill="#D58900"/></g><g><path d="M65.35 22.98C63.83 23.48 62.33 24.04 60.84 24.65 52.89 27.93 45.75 32.61 39.62 38.59 34.01 44.06 29.5 50.36 26.2 57.33 19.15 54.21 13.49 49.39 9.76 45.59 13.84 37.92 19.1 30.94 25.43 24.77 32.83 17.56 41.37 11.79 50.84 7.59 59.22 12.6 63.52 19.37 65.35 22.98Z" fill="#D58900"/></g><g opacity="0.33"><path d="M23.8 53.43C26.84 53.35 29.83 53.31 32.77 53.31 159.83 53.43 202.55 130.08 214.05 158.6 216.68 165.12 217.68 169.13 217.68 169.13 217.68 169.13 218.49 168.76 219.94 168.08 221.68 162.05 222.56 155.81 222.56 149.44L222.56 84.57C222.56 75.28 220.69 66.27 217 57.78 213.44 49.58 208.35 42.22 201.86 35.9 195.37 29.58 187.82 24.62 179.4 21.15 170.68 17.56 161.43 15.74 151.89 15.74L86.83 15.74C77.29 15.74 68.04 17.56 59.32 21.15 50.9 24.62 43.35 29.58 36.86 35.9 31.55 41.09 27.16 46.96 23.8 53.43Z" fill="#D58900"/></g><g><path d="M142.98 30.41C142.98 30.41 167.79 29.05 185.76 41.4 203.74 53.75 193.56 57.28 170.15 49.41 146.74 41.54 120.96 32.03 142.98 30.41Z" fill="#D58900"/></g><g><path d="M122.64 29.86C114.81 29.38 105.78 29.45 104.66 33.39 103.55 37.33 118.04 36.78 123.47 35.56 128.91 34.34 127.09 30.13 122.64 29.86Z" fill="#D58900"/></g><g><path d="M22.69 66.46C22.09 68.46 21.6 70.48 21.21 72.53 15.79 69.05 9 64.48 3.65 60.24 4.35 57.98 5.15 55.74 6.05 53.52 10.5 57.21 17.12 62.54 22.69 66.46Z" fill="#D58900"/></g><g><path d="M16.17 84.57 16.17 149.43C16.17 158.72 18.04 167.73 21.73 176.22 25.29 184.42 30.38 191.78 36.87 198.1 43.36 204.42 50.91 209.38 59.33 212.85 68.05 216.44 77.3 218.26 86.84 218.26L151.9 218.26C161.44 218.26 170.69 216.44 179.41 212.85 187.83 209.38 195.38 204.42 201.87 198.1 208.36 191.78 213.45 184.42 217.01 176.22 218.17 173.55 219.15 170.83 219.95 168.06 221.69 162.03 222.57 155.79 222.57 149.42L222.57 84.57C222.57 75.28 220.7 66.27 217.01 57.78 213.45 49.58 208.36 42.22 201.87 35.9 195.38 29.58 187.83 24.62 179.41 21.15 170.69 17.56 161.44 15.74 151.9 15.74L86.83 15.74C77.29 15.74 68.04 17.56 59.32 21.15 50.9 24.62 43.35 29.58 36.86 35.9 31.54 41.08 27.16 46.96 23.79 53.42 23.05 54.84 22.36 56.29 21.71 57.77 18.03 66.27 16.17 75.29 16.17 84.57ZM23.97 84.57C23.97 73.15 27.18 62.46 32.77 53.31 43.73 35.37 63.84 23.34 86.83 23.34L151.89 23.34C186.61 23.34 214.75 50.75 214.75 84.57L214.75 149.43C214.75 152.54 214.51 155.6 214.05 158.59 209.51 188.06 183.41 210.65 151.89 210.65L86.83 210.65C52.11 210.65 23.97 183.24 23.97 149.42L23.97 84.57Z" fill="#D58900"/></g></g><g><g><g><defs><path d="M17.37 81 17.37 143.13C17.37 152.8 19.27 162.18 23.01 171.02 26.62 179.55 31.78 187.21 38.36 193.79 44.94 200.36 52.6 205.53 61.13 209.14 69.97 212.88 79.35 214.78 89.02 214.78L149.72 214.78C159.39 214.78 168.77 212.88 177.61 209.14 186.14 205.53 193.8 200.37 200.38 193.79 206.95 187.22 212.12 179.55 215.73 171.02 217.57 166.67 218.96 162.19 219.9 157.6 220.87 152.87 221.36 148.04 221.36 143.13L221.36 81C221.36 71.33 219.46 61.95 215.72 53.11 212.11 44.58 206.95 36.92 200.37 30.34 193.79 23.77 186.13 18.6 177.6 14.99 168.76 11.25 159.38 9.35 149.71 9.35L89.01 9.35C79.34 9.35 69.96 11.25 61.12 14.99 57.5 16.52 54.03 18.34 50.73 20.42 46.27 23.24 42.13 26.56 38.35 30.34 32.23 36.46 27.33 43.52 23.77 51.35 23.5 51.93 23.25 52.52 23 53.11 19.26 61.95 17.37 71.34 17.37 81Z" id="SVGID_1_"/></defs><clipPath id="SVGID_2_"><use width="100%" height="100%" xlink:href="#SVGID_1_" overflow="visible"></use></clipPath><path d="M221.35 149.43 17.37 145.74 17.37 37.25 17.87 9.36 221.35 9.36Z" fill="#FEE581" clip-path="url(#SVGID_2_)"/><path d="M221.35 150.06 17.37 146.36 17.37 145.74 221.35 149.43Z" fill="#FEE581" clip-path="url(#SVGID_2_)"/><path d="M221.35 150.68 17.37 146.99 17.37 146.36 221.35 150.06Z" fill="#FEE581" clip-path="url(#SVGID_2_)"/><path d="M221.35 151.31 17.37 147.61 17.37 146.99 221.35 150.68Z" fill="#FEE581" clip-path="url(#SVGID_2_)"/><path d="M221.35 151.93 17.37 148.24 17.37 147.61 221.35 151.31Z" fill="#FEE581" clip-path="url(#SVGID_2_)"/><path d="M221.35 152.56 17.37 148.86 17.37 148.24 221.35 151.93Z" fill="#FEE581" clip-path="url(#SVGID_2_)"/><path d="M221.35 153.18 17.37 149.49 17.37 148.86 221.35 152.56Z" fill="#FEE580" clip-path="url(#SVGID_2_)"/><path d="M221.35 153.81 17.37 150.11 17.37 149.49 221.35 153.18Z" fill="#FEE580" clip-path="url(#SVGID_2_)"/><path d="M221.35 154.43 17.37 150.74 17.37 150.11 221.35 153.81Z" fill="#FEE480" clip-path="url(#SVGID_2_)"/><path d="M221.35 155.06 17.37 151.36 17.37 150.74 221.35 154.43Z" fill="#FEE480" clip-path="url(#SVGID_2_)"/><path d="M221.35 155.68 17.37 151.99 17.37 151.36 221.35 155.06Z" fill="#FEE47F" clip-path="url(#SVGID_2_)"/><path d="M221.35 156.31 17.37 152.61 17.37 151.99 221.35 155.68Z" fill="#FEE47F" clip-path="url(#SVGID_2_)"/><path d="M221.35 156.93 17.37 153.24 17.37 152.61 221.35 156.31Z" fill="#FDE47F" clip-path="url(#SVGID_2_)"/><path d="M221.35 157.55 17.37 153.86 17.37 153.24 221.35 156.93Z" fill="#FDE47E" clip-path="url(#SVGID_2_)"/><path d="M221.35 158.18 17.37 154.49 17.37 153.86 221.35 157.55Z" fill="#FDE37E" clip-path="url(#SVGID_2_)"/><path d="M221.35 158.8 17.37 155.11 17.37 154.49 221.35 158.18Z" fill="#FDE37D" clip-path="url(#SVGID_2_)"/><path d="M221.35 159.43 17.37 155.73 17.37 155.11 221.35 158.8Z" fill="#FDE37D" clip-path="url(#SVGID_2_)"/><path d="M221.35 160.05 17.37 156.36 17.37 155.73 221.35 159.43Z" fill="#FDE37C" clip-path="url(#SVGID_2_)"/><path d="M221.35 160.68 17.37 156.98 17.37 156.36 221.35 160.05Z" fill="#FDE27C" clip-path="url(#SVGID_2_)"/><path d="M221.35 161.3 17.37 157.61 17.37 156.98 221.35 160.68Z" fill="#FDE27B" clip-path="url(#SVGID_2_)"/><path d="M221.35 161.93 17.37 158.23 17.37 157.61 221.35 161.3Z" fill="#FDE27A" clip-path="url(#SVGID_2_)"/><path d="M221.35 162.55 17.37 158.86 17.37 158.23 221.35 161.93Z" fill="#FDE27A" clip-path="url(#SVGID_2_)"/><path d="M221.35 163.18 17.37 159.48 17.37 158.86 221.35 162.55Z" fill="#FCE179" clip-path="url(#SVGID_2_)"/><path d="M221.35 163.8 17.37 160.11 17.37 159.48 221.35 163.18Z" fill="#FCE179" clip-path="url(#SVGID_2_)"/><path d="M221.35 164.43 17.37 160.73 17.37 160.11 221.35 163.8Z" fill="#FCE178" clip-path="url(#SVGID_2_)"/><path d="M221.35 165.05 17.37 161.36 17.37 160.73 221.35 164.43Z" fill="#FCE077" clip-path="url(#SVGID_2_)"/><path d="M221.35 165.68 17.37 161.98 17.37 161.36 221.35 165.05Z" fill="#FCE076" clip-path="url(#SVGID_2_)"/><path d="M221.35 166.3 17.37 162.61 17.37 161.98 221.35 165.68Z" fill="#FCE076" clip-path="url(#SVGID_2_)"/><path d="M221.35 166.93 17.37 163.23 17.37 162.61 221.35 166.3Z" fill="#FBDF75" clip-path="url(#SVGID_2_)"/><path d="M221.35 167.55 17.37 163.86 17.37 163.23 221.35 166.93Z" fill="#FBDF74" clip-path="url(#SVGID_2_)"/><path d="M221.35 168.17 17.37 164.48 17.37 163.86 221.35 167.55Z" fill="#FBDF73" clip-path="url(#SVGID_2_)"/><path d="M221.35 168.8 17.37 165.11 17.37 164.48 221.35 168.17Z" fill="#FBDE72" clip-path="url(#SVGID_2_)"/><path d="M221.35 169.42 17.37 165.73 17.37 165.11 221.35 168.8Z" fill="#FBDE71" clip-path="url(#SVGID_2_)"/><path d="M221.35 170.05 17.37 166.35 17.37 165.73 221.35 169.42Z" fill="#FBDD70" clip-path="url(#SVGID_2_)"/><path d="M221.35 170.67 17.37 166.98 17.37 166.35 221.35 170.05Z" fill="#FADD70" clip-path="url(#SVGID_2_)"/><path d="M221.35 171.3 17.37 167.6 17.37 166.98 221.35 170.67Z" fill="#FADC6F" clip-path="url(#SVGID_2_)"/><path d="M221.35 171.92 17.37 168.23 17.37 167.6 221.35 171.3Z" fill="#FADC6E" clip-path="url(#SVGID_2_)"/><path d="M221.35 172.55 17.37 168.85 17.37 168.23 221.35 171.92Z" fill="#FADB6D" clip-path="url(#SVGID_2_)"/><path d="M221.35 173.17 17.37 169.48 17.37 168.85 221.35 172.55Z" fill="#FADB6C" clip-path="url(#SVGID_2_)"/><path d="M221.35 173.8 17.37 170.1 17.37 169.48 221.35 173.17Z" fill="#F9DB6B" clip-path="url(#SVGID_2_)"/><path d="M221.35 174.42 17.37 170.73 17.37 170.1 221.35 173.8Z" fill="#F9DA6A" clip-path="url(#SVGID_2_)"/><path d="M221.35 175.05 17.37 171.35 17.37 170.73 221.35 174.42Z" fill="#F9DA68" clip-path="url(#SVGID_2_)"/><path d="M221.35 175.67 17.37 171.98 17.37 171.35 221.35 175.05Z" fill="#F9D967" clip-path="url(#SVGID_2_)"/><path d="M221.35 176.3 17.37 172.6 17.37 171.98 221.35 175.67Z" fill="#F8D866" clip-path="url(#SVGID_2_)"/><path d="M221.35 176.92 17.37 173.23 17.37 172.6 221.35 176.3Z" fill="#F8D865" clip-path="url(#SVGID_2_)"/><path d="M221.35 177.55 17.37 173.85 17.37 173.23 221.35 176.92Z" fill="#F8D764" clip-path="url(#SVGID_2_)"/><path d="M221.35 178.17 17.37 174.48 17.37 173.85 221.35 177.55Z" fill="#F8D763" clip-path="url(#SVGID_2_)"/><path d="M221.35 178.8 17.37 175.1 17.37 174.48 221.35 178.17Z" fill="#F7D661" clip-path="url(#SVGID_2_)"/><path d="M221.35 179.42 17.37 175.73 17.37 175.1 221.35 178.8Z" fill="#F7D660" clip-path="url(#SVGID_2_)"/><path d="M221.35 180.04 17.37 176.35 17.37 175.73 221.35 179.42Z" fill="#F7D55F" clip-path="url(#SVGID_2_)"/><path d="M221.35 180.67 17.37 176.98 17.37 176.35 221.35 180.04Z" fill="#F7D55E" clip-path="url(#SVGID_2_)"/><path d="M221.35 181.29 17.37 177.6 17.37 176.98 221.35 180.67Z" fill="#F6D45C" clip-path="url(#SVGID_2_)"/><path d="M221.35 181.92 17.37 178.22 17.37 177.6 221.35 181.29Z" fill="#F6D35B" clip-path="url(#SVGID_2_)"/><path d="M221.35 182.12 221.34 182.54 17.37 178.85 17.37 178.22 221.35 181.92Z" fill="#F6D35A" clip-path="url(#SVGID_2_)"/><path d="M221.34 182.54 221.33 183.17 17.37 179.47 17.37 178.85Z" fill="#F6D258" clip-path="url(#SVGID_2_)"/><path d="M221.33 183.17 221.32 183.79 17.37 180.1 17.37 179.47Z" fill="#F5D157" clip-path="url(#SVGID_2_)"/><path d="M221.32 183.79 221.31 184.42 17.37 180.72 17.37 180.1Z" fill="#F5D156" clip-path="url(#SVGID_2_)"/><path d="M221.31 184.42 221.3 185.04 17.37 181.35 17.37 180.72Z" fill="#F5D054" clip-path="url(#SVGID_2_)"/><path d="M221.3 185.04 221.29 185.67 17.37 181.97 17.37 181.35Z" fill="#F4CF53" clip-path="url(#SVGID_2_)"/><path d="M221.29 185.67 221.28 186.29 17.37 182.6 17.37 181.97Z" fill="#F4CF51" clip-path="url(#SVGID_2_)"/><path d="M221.28 186.29 221.26 186.91 17.37 183.22 17.37 182.6Z" fill="#F4CE50" clip-path="url(#SVGID_2_)"/><path d="M221.26 186.91 221.25 187.54 17.37 183.85 17.37 183.22Z" fill="#F3CD4E" clip-path="url(#SVGID_2_)"/><path d="M221.25 187.54 221.24 188.16 17.37 184.47 17.37 183.85Z" fill="#F3CD4D" clip-path="url(#SVGID_2_)"/><path d="M221.24 188.16 221.23 188.79 17.37 185.1 17.37 184.47Z" fill="#F3CC4B" clip-path="url(#SVGID_2_)"/><path d="M221.23 188.79 221.22 189.41 17.37 185.72 17.37 185.1Z" fill="#F3CB4A" clip-path="url(#SVGID_2_)"/><path d="M221.22 189.41 221.21 190.04 17.37 186.35 17.37 185.72Z" fill="#F2CA48" clip-path="url(#SVGID_2_)"/><path d="M221.21 190.04 221.2 190.66 17.37 186.97 17.37 186.35Z" fill="#F2CA47" clip-path="url(#SVGID_2_)"/><path d="M221.2 190.66 221.19 191.29 17.37 187.6 17.37 186.97Z" fill="#F2C945" clip-path="url(#SVGID_2_)"/><path d="M221.19 191.29 221.17 191.91 17.37 188.22 17.37 187.6Z" fill="#F1C843" clip-path="url(#SVGID_2_)"/><path d="M221.17 191.91 221.16 192.54 17.37 188.84 17.37 188.22Z" fill="#F1C742" clip-path="url(#SVGID_2_)"/><path d="M221.16 192.54 221.15 193.16 17.37 189.47 17.37 188.84Z" fill="#F1C740" clip-path="url(#SVGID_2_)"/><path d="M221.15 193.16 221.14 193.78 17.37 190.09 17.37 189.47Z" fill="#F0C63E" clip-path="url(#SVGID_2_)"/><path d="M221.14 193.78 221.13 194.41 17.37 190.72 17.37 190.09Z" fill="#F0C53D" clip-path="url(#SVGID_2_)"/><path d="M221.13 194.41 221.12 195.03 17.37 191.34 17.37 190.72Z" fill="#EFC43B" clip-path="url(#SVGID_2_)"/><path d="M221.12 195.03 221.11 195.66 17.37 191.97 17.37 191.34Z" fill="#EFC339" clip-path="url(#SVGID_2_)"/><path d="M221.11 195.66 221.09 196.28 17.37 192.59 17.37 191.97Z" fill="#EFC338" clip-path="url(#SVGID_2_)"/><path d="M221.09 196.28 221.08 196.91 17.37 193.22 17.37 192.59Z" fill="#EEC236" clip-path="url(#SVGID_2_)"/><path d="M221.08 196.91 221.07 197.53 17.37 193.84 17.37 193.22Z" fill="#EEC134" clip-path="url(#SVGID_2_)"/><path d="M221.07 197.53 220.76 214.77 17.37 214.77 17.37 193.84Z" fill="#EEC134" clip-path="url(#SVGID_2_)"/></g></g><g><path d="M224.34 49.47C220.26 39.82 214.42 31.16 206.99 23.73 199.56 16.3 190.9 10.46 181.25 6.38 171.24 2.15 160.63 0 149.71 0L89.01 0C78.09 0 67.48 2.15 57.48 6.37 56.8 6.66 56.12 6.96 55.45 7.27 46.61 11.29 38.65 16.82 31.74 23.72 25.83 29.63 20.93 36.32 17.12 43.66 16.14 45.55 15.23 47.48 14.39 49.46 14.38 49.49 14.36 49.53 14.35 49.56 14.11 50.12 13.88 50.69 13.66 51.26 12.82 53.38 12.08 55.52 11.43 57.69 9.68 63.48 8.6 69.43 8.19 75.49 8.07 77.32 8.01 79.15 8.01 81L8.01 143.13C8.01 154.06 10.16 164.67 14.38 174.67 18.46 184.32 24.3 192.98 31.73 200.41 39.16 207.84 47.82 213.68 57.47 217.76 67.47 221.99 78.08 224.13 89.01 224.13L149.71 224.13C154.51 224.13 159.26 223.72 163.91 222.89 166.51 222.43 169.09 221.84 171.63 221.13 174.89 220.21 178.1 219.09 181.25 217.76 181.67 217.58 182.08 217.4 182.5 217.22 191.65 213.17 199.88 207.52 207 200.41 213.46 193.95 218.71 186.57 222.65 178.42 223.25 177.19 223.81 175.94 224.35 174.67 228.58 164.67 230.72 154.06 230.72 143.13L230.72 81C230.71 70.08 228.57 59.47 224.34 49.47ZM207.09 167.37C203.95 174.79 199.46 181.45 193.74 187.17 188.02 192.89 181.36 197.38 173.94 200.52 172.94 200.95 171.93 201.34 170.91 201.71 168.41 202.62 165.87 203.36 163.29 203.93 161.22 204.39 159.12 204.75 157 204.99 154.59 205.27 152.16 205.41 149.7 205.41L89 205.41C80.59 205.41 72.44 203.76 64.76 200.51 57.34 197.37 50.68 192.88 44.96 187.16 39.24 181.44 34.75 174.78 31.61 167.36 28.36 159.68 26.71 151.52 26.71 143.12L26.71 81C26.71 77.09 27.07 73.24 27.77 69.46 28.14 67.5 28.6 65.56 29.15 63.65 29.41 62.74 29.7 61.83 30.01 60.93 30.49 59.52 31.02 58.13 31.6 56.76 31.86 56.14 32.14 55.52 32.42 54.91 35.5 48.23 39.71 42.2 44.95 36.97 50.67 31.25 57.33 26.76 64.75 23.62 66.14 23.03 67.54 22.5 68.96 22.02 75.39 19.83 82.11 18.73 89 18.73L149.7 18.73C158.11 18.73 166.26 20.38 173.94 23.63 181.36 26.77 188.02 31.26 193.74 36.98 199.46 42.7 203.95 49.36 207.09 56.78 210.34 64.46 211.99 72.62 211.99 81.02L211.99 143.15C211.99 151.55 210.35 159.69 207.11 167.37 207.1 167.35 207.1 167.36 207.09 167.37Z" fill="#F2D847"/></g><g><path d="M68.98 22.01C67.56 22.49 66.16 23.03 64.77 23.61 57.35 26.75 50.69 31.24 44.97 36.96 39.73 42.2 35.52 48.23 32.44 54.9 25.86 51.91 20.59 47.3 17.11 43.66 20.92 36.32 25.82 29.63 31.73 23.72 38.64 16.82 46.6 11.29 55.44 7.27 63.25 12.07 67.27 18.55 68.98 22.01Z" fill="#FFEFA1"/></g><g opacity="0.33"><path d="M30.21 51.17C33.04 51.09 35.83 51.06 38.58 51.06 157.12 51.18 196.97 124.58 207.69 151.9 210.14 158.15 211.07 161.98 211.07 161.98 211.07 161.98 211.82 161.63 213.18 160.97 214.81 155.2 215.62 149.22 215.62 143.12L215.62 81C215.62 72.1 213.88 63.47 210.44 55.34 207.12 47.49 202.37 40.44 196.31 34.39 190.26 28.34 183.21 23.59 175.36 20.26 167.23 16.82 158.59 15.08 149.7 15.08L89 15.08C80.1 15.08 71.47 16.82 63.34 20.26 55.49 23.58 48.44 28.33 42.39 34.39 37.44 39.35 33.35 44.98 30.21 51.17Z" fill="#FFFFFF"/></g><g><path d="M141.4 29.12C141.4 29.12 164.54 27.82 181.31 39.65 198.08 51.48 188.59 54.86 166.75 47.32 144.91 39.78 120.86 30.68 141.4 29.12Z" fill="#FFFFFF"/></g><g><path d="M122.42 28.6C115.11 28.14 106.69 28.21 105.65 31.98 104.61 35.75 118.13 35.23 123.2 34.06 128.27 32.89 126.58 28.86 122.42 28.6Z" fill="#FFFFFF"/></g><g><path d="M29.18 63.65C28.62 65.57 28.16 67.5 27.8 69.46 22.74 66.13 16.41 61.75 11.42 57.69 12.07 55.52 12.82 53.38 13.65 51.26 17.81 54.79 23.98 59.9 29.18 63.65Z" fill="#FFEFA1"/></g><g><path d="M23.09 81 23.09 143.13C23.09 152.03 24.83 160.66 28.27 168.79 31.59 176.64 36.34 183.69 42.4 189.74 48.45 195.79 55.5 200.54 63.35 203.87 71.48 207.31 80.12 209.05 89.01 209.05L149.71 209.05C158.61 209.05 167.24 207.31 175.37 203.87 183.22 200.55 190.27 195.8 196.32 189.74 202.37 183.69 207.12 176.64 210.45 168.79 211.53 166.23 212.45 163.63 213.19 160.98 214.82 155.21 215.63 149.23 215.63 143.13L215.63 81C215.63 72.1 213.89 63.47 210.45 55.34 207.13 47.49 202.38 40.44 196.32 34.39 190.27 28.34 183.22 23.59 175.37 20.26 167.24 16.82 158.6 15.08 149.71 15.08L89.01 15.08C80.11 15.08 71.48 16.82 63.35 20.26 55.5 23.58 48.45 28.33 42.4 34.39 37.44 39.35 33.35 44.98 30.21 51.17 29.52 52.53 28.87 53.92 28.27 55.34 24.83 63.47 23.09 72.11 23.09 81ZM30.37 81C30.37 70.06 33.37 59.82 38.58 51.06 48.8 33.87 67.56 22.36 89.01 22.36L149.71 22.36C182.1 22.36 208.35 48.61 208.35 81L208.35 143.13C208.35 146.11 208.13 149.04 207.7 151.91 203.47 180.13 179.12 201.78 149.71 201.78L89.01 201.78C56.62 201.78 30.37 175.53 30.37 143.14L30.37 81Z" fill="#D58900"/></g></g></g><g><path d="M103.54 64.86C105.49 64.86 107.47 65.15 109.42 65.75 110.83 66.17 112.23 66.75 113.6 67.5L163.27 94.67C168.94 97.77 172.26 102.79 173.24 108.14 173.3 108.45 173.34 108.76 173.38 109.07 173.68 110.03 173.92 111.01 174.09 111.99 175.5 120.27 172.14 129.27 164.03 134.06L113.89 163.65C110.55 165.62 107 166.52 103.54 166.52 92.7 166.52 82.75 157.66 82.75 145.28L82.75 138.7 82.75 86.11 82.75 84.37C82.75 75.93 88.18 69.27 95.37 66.4 97.86 65.4 100.57 64.87 103.33 64.86 103.39 64.86 103.47 64.86 103.54 64.86M103.54 53.14C103.45 53.14 103.35 53.14 103.26 53.14 99.05 53.15 94.94 53.95 91.02 55.51 78.88 60.36 71.03 71.69 71.03 84.37L71.03 86.11 71.03 138.7 71.03 145.28C71.03 154.3 74.53 162.7 80.88 168.92 83.88 171.85 87.35 174.16 91.21 175.77 95.16 177.42 99.31 178.25 103.54 178.25 109.22 178.25 114.86 176.69 119.85 173.75L169.99 144.16C176.01 140.61 180.65 135.36 183.4 128.98 185.97 123.02 186.75 116.47 185.65 110.02 185.45 108.85 185.19 107.67 184.86 106.52 184.83 106.35 184.8 106.18 184.77 106.02 183.09 96.87 177.3 88.98 168.89 84.38L119.22 57.22C117.19 56.11 115.04 55.21 112.83 54.54 109.81 53.61 106.68 53.14 103.54 53.14L103.54 53.14Z" fill="#FFFFFF"/></g><g><path d="M164.03 134.07 113.89 163.66C100.05 171.83 82.75 161.62 82.75 145.29L82.75 86.11C82.75 76.92 88.23 69.67 95.48 66.54 101.12 64.11 107.83 64.17 113.88 67.74L164.02 97.33C169.74 100.7 173.09 106.17 174.08 112 175.5 120.27 172.15 129.28 164.03 134.07Z" fill="#A86700"/></g><g><path d="M163.27 128.41 113.6 155.58C99.89 163.08 82.76 153.71 82.76 138.71L82.76 84.37C82.76 75.93 88.19 69.27 95.38 66.4 100.97 64.17 107.61 64.22 113.61 67.5L163.28 94.67C168.95 97.77 172.27 102.79 173.25 108.14 174.63 115.74 171.31 124.01 163.27 128.41Z" fill="#A86700"/></g><g><path d="M164.03 134.07 113.89 163.66C100.05 171.83 82.76 161.62 82.76 145.29L82.76 86.11C82.76 76.92 88.24 69.67 95.49 66.54 98.01 65.45 100.75 64.86 103.54 64.86 103.6 64.86 103.67 64.86 103.73 64.86 104.03 64.86 104.33 64.87 104.63 64.89 104.71 64.89 104.78 64.9 104.86 64.9 104.96 64.9 105.06 64.91 105.17 64.92 108.1 65.16 111.07 66.06 113.89 67.73L164.03 97.32C168.57 100 171.63 104 173.18 108.46 173.58 109.61 173.89 110.79 174.09 111.99 175.5 120.27 172.15 129.28 164.03 134.07Z" fill="#A86700"/></g><g><path d="M173.18 110.16C172.13 114.49 168.83 118.53 163.27 121.05L113.6 143.49C99.89 149.68 82.76 141.94 82.76 129.56L82.76 84.67C82.76 77.7 88.19 72.2 95.37 69.82 97.77 69.03 100.36 68.59 103.02 68.56 103.2 68.56 103.37 68.55 103.55 68.55 103.61 68.55 103.68 68.55 103.74 68.55 104.04 68.55 104.34 68.56 104.64 68.58 104.72 68.58 104.79 68.59 104.87 68.59 104.97 68.59 105.07 68.6 105.18 68.61 108.11 68.84 111.08 69.7 113.9 71.29L164.04 99.53C168.57 102.09 171.62 105.91 173.18 110.16Z" fill="#D58900"/></g></g></svg>