<svg width="42.6" height="22.96" viewBox="0 0 42.6 22.96" xmlns="http://www.w3.org/2000/svg" xmlns:xlink="http://www.w3.org/1999/xlink" xml:space="preserve" overflow="hidden"><defs></defs><g><g><path d="M0.02 16.8C0.02 23.17 7.38 23.32 17.69 22.73 33.98 20.62 46.56 16.96 41.46 14.09 40.35 12.45 35.77 11 17.83 12.01-1.24 13.08 0.02 13.55 0.02 16.8Z" fill="#D6D6D4" opacity="0"/><path d="M0.12 16.83C0.05 22.91 7.53 23.11 17.4 22.55 32.95 20.56 46.38 16.94 41.3 14.17 40.16 12.6 34.89 11.24 17.75 12.2-0.78 13.25 0.1 13.69 0.12 16.83Z" fill="#D2D1CF" opacity="0.0476"/><path d="M0.23 16.85C0.08 22.63 7.7 22.89 17.12 22.36 31.92 20.48 46.22 16.92 41.15 14.25 39.98 12.74 34.02 11.48 17.69 12.38-0.31 13.41 0.18 13.82 0.23 16.85Z" fill="#CECCC9" opacity="0.0952"/><path d="M0.33 16.87C0.11 22.35 7.85 22.67 16.83 22.17 30.88 20.41 46.05 16.9 40.99 14.32 39.8 12.88 33.14 11.7 17.61 12.56 0.15 13.57 0.27 13.96 0.33 16.87Z" fill="#CAC7C4" opacity="0.1429"/><path d="M0.44 16.9C0.15 22.08 8.02 22.46 16.55 21.99 29.86 20.35 45.89 16.88 40.84 14.41 39.62 13.04 32.27 11.95 17.55 12.76 0.62 13.73 0.35 14.1 0.44 16.9Z" fill="#C6C3BE" opacity="0.1905"/><path d="M0.54 16.92C0.17 21.8 8.17 22.24 16.26 21.8 28.82 20.28 45.72 16.86 40.68 14.48 39.43 13.18 31.39 12.18 17.47 12.94 1.09 13.9 0.44 14.23 0.54 16.92Z" fill="#C2BEB9" opacity="0.2381"/><path d="M0.65 16.94C0.21 21.52 8.34 22.02 15.98 21.61 27.79 20.2 45.55 16.83 40.53 14.56 39.26 13.33 30.52 12.42 17.41 13.12 1.55 14.06 0.52 14.37 0.65 16.94Z" fill="#BFB9B3" opacity="0.2857"/><path d="M0.75 16.97C0.24 21.26 8.5 21.82 15.7 21.42 26.77 20.13 45.39 16.81 40.38 14.63 39.08 13.46 29.65 12.65 17.34 13.3 2.02 14.22 0.6 14.5 0.75 16.97Z" fill="#BBB4AE" opacity="0.3333"/><path d="M0.85 16.99C0.26 20.98 8.65 21.6 15.41 21.23 25.73 20.06 45.22 16.79 40.22 14.71 38.89 13.61 28.77 12.88 17.27 13.49 2.49 14.38 0.69 14.64 0.85 16.99Z" fill="#B7AFA9" opacity="0.381"/><path d="M0.96 17.01C0.3 20.7 8.82 21.38 15.13 21.04 24.7 19.99 45.06 16.76 40.07 14.78 38.72 13.75 27.9 13.11 17.2 13.67 2.95 14.55 0.77 14.78 0.96 17.01Z" fill="#B3AAA3" opacity="0.4286"/><path d="M1.06 17.03C0.33 20.42 8.97 21.16 14.84 20.85 23.67 19.91 44.88 16.74 39.91 14.86 38.53 13.9 27.02 13.35 17.13 13.85 3.42 14.71 0.85 14.91 1.06 17.03Z" fill="#AFA59E" opacity="0.4762"/><path d="M1.17 17.06C0.36 20.15 9.14 20.95 14.56 20.67 22.64 19.85 44.72 16.72 39.76 14.94 38.35 14.04 26.15 13.59 17.06 14.04 3.88 14.87 0.94 15.05 1.17 17.06Z" fill="#ABA198" opacity="0.5238"/><path d="M1.27 17.08C0.39 19.88 9.3 20.73 14.27 20.48 21.6 19.78 44.55 16.7 39.6 15.02 38.17 14.19 25.27 13.83 16.99 14.23 4.35 15.03 1.02 15.18 1.27 17.08Z" fill="#A79C93" opacity="0.5714"/><path d="M1.38 17.1C0.43 19.6 9.46 20.51 13.99 20.29 20.58 19.7 44.39 16.68 39.45 15.09 37.99 14.33 24.4 14.05 16.92 14.41 4.82 15.2 1.11 15.32 1.38 17.1Z" fill="#A3978D" opacity="0.619"/><path d="M1.48 17.13C0.45 19.33 9.62 20.3 13.7 20.1 19.54 19.63 44.22 16.65 39.29 15.17 37.81 14.48 23.52 14.29 16.85 14.59 5.28 15.36 1.19 15.46 1.48 17.13Z" fill="#9F9288" opacity="0.6667"/><path d="M1.59 17.15C0.49 19.05 9.78 20.08 13.42 19.91 18.52 19.56 44.05 16.63 39.14 15.24 37.63 14.61 22.65 14.52 16.78 14.77 5.75 15.52 1.27 15.59 1.59 17.15Z" fill="#9B8D83" opacity="0.7143"/><path d="M1.69 17.17C0.52 18.77 9.94 19.86 13.13 19.72 17.48 19.49 43.88 16.6 38.98 15.32 37.44 14.76 21.77 14.76 16.71 14.96 6.21 15.68 1.36 15.73 1.69 17.17Z" fill="#98887D" opacity="0.7619"/><path d="M1.8 17.2C0.55 18.51 10.1 19.65 12.85 19.54 16.45 19.42 43.72 16.59 38.83 15.4 37.27 14.91 20.9 15 16.64 15.15 6.68 15.85 1.44 15.86 1.8 17.2Z" fill="#948378" opacity="0.8095"/><path d="M1.9 17.22C0.58 18.23 10.26 19.43 12.56 19.35 15.42 19.35 43.55 16.57 38.67 15.48 37.08 15.06 20.02 15.23 16.57 15.33 7.15 16.01 1.52 16 1.9 17.22Z" fill="#907F72" opacity="0.8571"/><path d="M2.01 17.24C0.62 17.95 10.43 19.21 12.28 19.16 14.39 19.28 43.39 16.54 38.53 15.55 36.91 15.19 19.16 15.46 16.51 15.51 7.61 16.17 1.61 16.14 2.01 17.24Z" fill="#8C7A6D" opacity="0.9048"/><path d="M2.11 17.27C0.64 17.68 10.58 19 11.99 18.98 13.35 19.21 43.21 16.53 38.37 15.64 36.73 15.35 18.28 15.71 16.44 15.71 8.08 16.33 1.69 16.27 2.11 17.27Z" fill="#887567" opacity="0.9524"/><path d="M2.22 17.29C0.68 17.4 10.75 18.78 11.71 18.78 12.33 19.13 43.05 16.49 38.22 15.7 36.55 15.48 17.41 15.93 16.37 15.88 8.54 16.5 1.78 16.41 2.22 17.29Z" fill="#847062"/></g><g><linearGradient x1="-1596.52" y1="4.1671" x2="-1596.22" y2="9.8697" gradientUnits="userSpaceOnUse" id="SVGID_26_" gradientTransform="matrix(-1 0 0 1 -1571.72 0)"><stop offset="0" stop-color="#FFFFFF"/><stop offset="0.3201" stop-color="#FEFEF3"/><stop offset="0.8352" stop-color="#FDFBD6"/><stop offset="1" stop-color="#EBE3B6"/></linearGradient><g><linearGradient x1="-1606.65" y1="-0.3704" x2="-1604.33" y2="14.6155" gradientUnits="userSpaceOnUse" id="SVGID_1_" gradientTransform="matrix(-1 0 0 1 -1571.72 0)"><stop offset="0" stop-color="#F7EBBE"/><stop offset="0.0145" stop-color="#F1E6BD"/><stop offset="0.072" stop-color="#DFD8BA"/><stop offset="0.1319" stop-color="#D4D0B9"/><stop offset="0.1978" stop-color="#D0CDB8"/><stop offset="0.4978" stop-color="#D7D3B8"/><stop offset="0.7912" stop-color="#E4DDB7"/></linearGradient><linearGradient x1="-1608.89" y1="14.5897" x2="-1609.34" y2="2.4036" gradientUnits="userSpaceOnUse" id="SVGID_2_" gradientTransform="matrix(-1 0 0 1 -1571.72 0)"><stop offset="0" stop-color="#FBF4DA"/><stop offset="0.5165" stop-color="#FDFBD6"/><stop offset="1" stop-color="#EBE3B6"/></linearGradient><path d="M30.63 5.08C31.03 4.88 33.81 4.79 34.58 4.72 35.34 4.65 38.65 4.74 38.48 5.12 38.31 5.5 35.34 5.72 34.87 5.73 34.4 5.73 30.63 5.08 30.63 5.08Z" fill="#FFFFFF"/><path d="M30.63 5.08C31.27 4.99 35.82 4.93 35.98 5.35 36.14 5.77 35.2 11.17 36.45 12.23L30.95 11.19C30.95 11.19 30.63 10.6 30.63 10.35 30.62 10.09 30.63 5.08 30.63 5.08Z" fill="url(#SVGID_1_)"/><path d="M39.1 8.3C39.04 7.74 38.93 5.36 38.47 5.12 38.02 4.89 35.91 4.97 35.74 5.24 35.56 5.51 35.56 10.05 35.97 11.11 36.38 12.17 36.44 12.23 36.44 12.23L39.1 11.99 39.1 8.3Z" fill="url(#SVGID_2_)"/></g><path d="M38.49 14.06C39.01 14.5 39.27 15.28 39.12 15.74 38.96 16.2 38.96 16.2 38.96 16.2L37.7 16.25C37.7 16.25 37.44 15.63 37.65 15.51 37.86 15.39 37.86 15.39 37.86 15.39 37.86 15.39 37.97 14.42 37.39 14.21 37.92 14.13 38.49 14.06 38.49 14.06Z" fill="#3F251A"/><path d="M12.74 16.55C13.32 17.01 13.61 17.84 13.43 18.33 13.25 18.82 13.25 18.82 13.25 18.82L11.84 18.88C11.84 18.88 11.55 18.23 11.78 18.1 12.02 17.97 12.02 17.97 12.02 17.97 12.02 17.97 12.14 16.94 11.5 16.72 12.1 16.64 12.74 16.55 12.74 16.55Z" fill="#3F251A"/><path d="M3.01 15.42C3.62 15.89 3.92 16.74 3.73 17.23 3.54 17.73 3.54 17.73 3.54 17.73L2.07 17.78C2.07 17.78 1.77 17.11 2.01 16.98 2.26 16.85 2.26 16.85 2.26 16.85 2.26 16.85 2.39 15.8 1.72 15.58 2.33 15.51 3.01 15.42 3.01 15.42Z" fill="#3F251A"/><g><radialGradient cx="-2092.72" cy="450.879" r="61.73" gradientUnits="userSpaceOnUse" id="SVGID_4_" gradientTransform="matrix(-0.1125 0 0 0.1125 -224.197 -48.0226)"><stop offset="0" stop-color="#FFFFFF"/><stop offset="0.2597" stop-color="#FCFBFB"/><stop offset="0.5326" stop-color="#F1EEEE"/><stop offset="0.8108" stop-color="#E0DAD9"/><stop offset="0.9286" stop-color="#D7CFCE"/><stop offset="0.9581" stop-color="#DAD2CA"/><stop offset="0.9905" stop-color="#E1DABC"/><stop offset="1" stop-color="#E4DDB7"/></radialGradient><g><linearGradient x1="-1583.04" y1="0.0788" x2="-1583.04" y2="8.5481" gradientUnits="userSpaceOnUse" id="SVGID_3_" gradientTransform="matrix(-1 0 0 1 -1571.72 0)"><stop offset="0.1813" stop-color="#E0884B"/><stop offset="0.2881" stop-color="#D47F44"/><stop offset="0.4826" stop-color="#B36730"/><stop offset="0.6044" stop-color="#9B5522"/><stop offset="0.8496" stop-color="#9F5821"/><stop offset="0.9396" stop-color="#A35B21"/></linearGradient><path d="M16.75 7.15C16.6 6.43 15.78 1.65 15.72 1.17 15.65 0.7 15.3 0.32 14.92 0.37 14.54 0.43 12.13 0.57 10.78 0.53 9.08 0.49 7.43-0.25 6.99 0.25 6.04 0.76 6.02 4.75 5.93 5.86 5.84 7 5.75 8.28 6.63 8.47 6.97 8.73 15.99 8.24 16.26 8.15 16.89 8 16.75 7.15 16.75 7.15Z" fill="url(#SVGID_3_)"/></g><path d="M15.9 6.43C15.84 6.13 15.93 5.23 15.65 4.07 15.32 2.72 15.23 1.74 15.2 1.55 15.12 0.93 14.68 0.84 14.36 0.88 14.04 0.93 12.01 1.05 10.88 1.03 9.48 1 8.11 0.41 7.75 0.82 7.38 1.23 7.63 2.52 7.54 3.4 7.33 5.48 7.24 7.18 7.52 7.39 7.8 7.59 15.47 7.14 15.7 7.13 15.94 7.12 15.9 6.43 15.9 6.43Z" fill="url(#SVGID_4_)"/><g><radialGradient cx="-2087.64" cy="439.098" r="65.0421" gradientUnits="userSpaceOnUse" id="SVGID_5_" gradientTransform="matrix(-0.1125 0 0 0.1125 -224.197 -48.0226)"><stop offset="0.2143" stop-color="#FFFFFF"/><stop offset="0.5604" stop-color="#FBFFFA"/><stop offset="1" stop-color="#EBE3B6"/></radialGradient><radialGradient cx="-2087.33" cy="439.125" r="65.2662" gradientUnits="userSpaceOnUse" id="SVGID_6_" gradientTransform="matrix(-0.1125 0 0 0.1125 -224.197 -48.0226)"><stop offset="0.2143" stop-color="#FFFFFF"/><stop offset="0.5604" stop-color="#FBFFFA"/><stop offset="1" stop-color="#EBE3B6"/></radialGradient><radialGradient cx="-2087.64" cy="439.151" r="65.4831" gradientUnits="userSpaceOnUse" id="SVGID_7_" gradientTransform="matrix(-0.1125 0 0 0.1125 -224.197 -48.0226)"><stop offset="0.2143" stop-color="#FFFFFF"/><stop offset="0.5604" stop-color="#FBFFFA"/><stop offset="1" stop-color="#EBE3B6"/></radialGradient><radialGradient cx="-2087.92" cy="439.178" r="65.7398" gradientUnits="userSpaceOnUse" id="SVGID_8_" gradientTransform="matrix(-0.1125 0 0 0.1125 -224.197 -48.0226)"><stop offset="0.2143" stop-color="#FFFFFF"/><stop offset="0.5604" stop-color="#FBFFFA"/><stop offset="1" stop-color="#EBE3B6"/></radialGradient><radialGradient cx="-2088.21" cy="439.2" r="65.9488" gradientUnits="userSpaceOnUse" id="SVGID_9_" gradientTransform="matrix(-0.1125 0 0 0.1125 -224.197 -48.0226)"><stop offset="0.2143" stop-color="#FFFFFF"/><stop offset="0.5604" stop-color="#FBFFFA"/><stop offset="1" stop-color="#EBE3B6"/></radialGradient><radialGradient cx="-2087.74" cy="439.075" r="64.7338" gradientUnits="userSpaceOnUse" id="SVGID_10_" gradientTransform="matrix(-0.1125 0 0 0.1125 -224.197 -48.0226)"><stop offset="0.2143" stop-color="#FFFFFF"/><stop offset="0.5604" stop-color="#FBFFFA"/><stop offset="1" stop-color="#EBE3B6"/></radialGradient><radialGradient cx="-2087.86" cy="439.05" r="64.3958" gradientUnits="userSpaceOnUse" id="SVGID_11_" gradientTransform="matrix(-0.1125 0 0 0.1125 -224.197 -48.0226)"><stop offset="0.2143" stop-color="#FFFFFF"/><stop offset="0.5604" stop-color="#FBFFFA"/><stop offset="1" stop-color="#EBE3B6"/></radialGradient><radialGradient cx="-2088.05" cy="439.026" r="63.9707" gradientUnits="userSpaceOnUse" id="SVGID_12_" gradientTransform="matrix(-0.1125 0 0 0.1125 -224.197 -48.0226)"><stop offset="0.2143" stop-color="#FFFFFF"/><stop offset="0.5604" stop-color="#FBFFFA"/><stop offset="1" stop-color="#EBE3B6"/></radialGradient><path d="M12.32 7.29C12.16 7.3 12 7.3 11.84 7.31 11.78 6.41 11.71 5.2 11.66 4.28 11.6 3.07 11.53 1.71 11.5 1.02 11.58 1.02 11.67 1.02 11.76 1.02 11.79 1.41 11.84 2.04 11.91 2.91 11.99 3.89 12.19 5.95 12.32 7.29Z" fill="url(#SVGID_5_)"/><path d="M11.12 7.34C11 7.34 10.88 7.35 10.76 7.36 10.76 6.35 10.76 4.96 10.73 4.23 10.69 3.38 10.73 1.81 10.75 1.02 10.77 1.02 10.78 1.02 10.8 1.02 10.87 1.02 10.95 1.02 11.04 1.02 11.02 1.59 11 2.59 10.99 3.58 10.98 4.57 11.06 6.21 11.12 7.34Z" fill="url(#SVGID_6_)"/><path d="M10 7.39C9.89 7.39 9.79 7.4 9.68 7.4 9.7 6.68 9.72 5.75 9.72 4.89 9.73 3.69 9.86 1.79 9.93 0.93 10.01 0.94 10.09 0.95 10.17 0.96 10.13 1.32 10.09 1.88 10.07 2.71 10.06 3.8 10.02 6 10 7.39Z" fill="url(#SVGID_7_)"/><path d="M8.98 7.43C8.83 7.43 8.69 7.44 8.56 7.44 8.62 6.4 8.72 4.89 8.79 3.77 8.86 2.58 8.99 1.41 9.07 0.79 9.15 0.8 9.23 0.82 9.31 0.84 9.29 0.99 9.27 1.17 9.26 1.39 9.09 3.51 9.01 5.99 8.98 7.43Z" fill="url(#SVGID_8_)"/><path d="M7.83 7.47C7.61 7.47 7.47 7.45 7.42 7.43 7.45 7.05 7.48 6.58 7.51 6.02 7.58 4.63 7.94 1.83 8.09 0.7 8.18 0.7 8.28 0.71 8.38 0.72 8.29 1.34 8.13 2.47 8.04 3.4 7.96 4.35 7.88 6.24 7.83 7.47Z" fill="url(#SVGID_9_)"/><path d="M13.5 7.24C13.35 7.25 13.19 7.26 13.03 7.26 12.84 5.72 12.54 3.27 12.45 2.49 12.38 1.89 12.31 1.36 12.26 0.99 12.37 0.99 12.48 0.98 12.58 0.98 12.73 2.09 13.13 4.91 13.31 6.1 13.39 6.55 13.45 6.92 13.5 7.24Z" fill="url(#SVGID_10_)"/><path d="M14.57 7.2C14.47 7.21 14.37 7.21 14.26 7.22 14.1 6.27 13.87 4.99 13.65 4.04 13.39 2.92 13.12 1.65 12.98 0.99 13.09 0.98 13.2 0.98 13.3 0.97 13.38 1.29 13.5 1.78 13.65 2.47 13.92 3.62 14.32 5.79 14.57 7.2Z" fill="url(#SVGID_11_)"/><path d="M15.7 7.1C15.67 7.13 15.65 7.15 15.61 7.15 15.59 7.15 15.5 7.16 15.36 7.16 15.25 6.59 15.11 5.82 14.91 4.81 14.56 3.01 14.17 1.61 13.95 0.93 14.04 0.92 14.11 0.92 14.17 0.91 14.25 1.18 14.37 1.59 14.55 2.23 14.86 3.31 15.37 5.62 15.7 7.1Z" fill="url(#SVGID_12_)"/></g></g><g><linearGradient x1="-1600.53" y1="0.9668" x2="-1600.53" y2="7.9051" gradientUnits="userSpaceOnUse" id="SVGID_13_" gradientTransform="matrix(-1 0 0 1 -1571.72 0)"><stop offset="0" stop-color="#F7EBBE"/><stop offset="0.3787" stop-color="#EBE1BB"/><stop offset="0.7692" stop-color="#D9D4B7"/><stop offset="0.8741" stop-color="#DDD8B7"/><stop offset="0.9396" stop-color="#E4DDB7"/></linearGradient><radialGradient cx="-2245.62" cy="453.454" r="65.8443" gradientUnits="userSpaceOnUse" id="SVGID_15_" gradientTransform="matrix(-0.1125 0 0 0.1125 -224.197 -48.0226)"><stop offset="0" stop-color="#FFFFFF"/><stop offset="0.2597" stop-color="#FCFBFB"/><stop offset="0.5326" stop-color="#F1EEEE"/><stop offset="0.8108" stop-color="#E0DAD9"/><stop offset="0.9286" stop-color="#D7CFCE"/><stop offset="0.9581" stop-color="#DAD2CA"/><stop offset="0.9905" stop-color="#E1DABC"/><stop offset="1" stop-color="#E4DDB7"/></radialGradient><path d="M33.1 6.76C32.98 6.17 32.32 2.1 32.27 1.71 32.22 1.32 31.94 1.15 31.64 1.2 31.34 1.25 29.43 1.36 28.36 1.34 27.02 1.31 25.72 0.71 25.37 1.11 24.83 1.62 24.73 3.08 24.66 3.98 24.6 5.05 24.18 7.8 25.1 7.84 25.37 8.05 32.35 7.69 32.56 7.61 33.22 7.59 33.1 6.76 33.1 6.76Z" fill="url(#SVGID_13_)"/><g><linearGradient x1="-1600.53" y1="0.9668" x2="-1600.53" y2="7.9016" gradientUnits="userSpaceOnUse" id="SVGID_14_" gradientTransform="matrix(-1 0 0 1 -1571.72 0)"><stop offset="0.1813" stop-color="#E0884B"/><stop offset="0.2881" stop-color="#D47F44"/><stop offset="0.4826" stop-color="#B36730"/><stop offset="0.6044" stop-color="#9B5522"/><stop offset="0.8496" stop-color="#9F5821"/><stop offset="0.9396" stop-color="#A35B21"/></linearGradient><path d="M33.1 6.76C32.98 6.17 32.33 2.17 32.27 1.78 32.22 1.39 31.93 1.15 31.63 1.2 31.33 1.25 29.42 1.36 28.35 1.34 27.01 1.31 25.71 0.71 25.36 1.11 24.61 1.53 24.61 4.8 24.54 5.7 24.47 6.63 24.4 7.68 25.09 7.84 25.36 8.05 32.48 7.66 32.69 7.59 33.21 7.46 33.1 6.76 33.1 6.76Z" fill="url(#SVGID_14_)"/></g><path d="M32.43 6.17C32.38 5.93 32.45 5.18 32.23 4.23 31.97 3.12 31.89 2.31 31.87 2.16 31.81 1.65 31.46 1.57 31.21 1.61 30.95 1.65 29.35 1.75 28.46 1.74 27.34 1.72 26.27 1.23 25.98 1.57 25.69 1.91 25.89 2.97 25.82 3.69 25.66 5.4 25.59 6.79 25.81 6.95 26.03 7.12 32.09 6.75 32.27 6.74 32.45 6.74 32.43 6.17 32.43 6.17Z" fill="url(#SVGID_15_)"/><g><radialGradient cx="-2244.19" cy="451.368" r="43.7136" gradientUnits="userSpaceOnUse" id="SVGID_16_" gradientTransform="matrix(-0.1125 0 0 0.1125 -224.197 -48.0226)"><stop offset="0.2143" stop-color="#FFFFFF"/><stop offset="0.5604" stop-color="#FBFFFA"/><stop offset="1" stop-color="#EBE3B6"/></radialGradient><radialGradient cx="-2244.07" cy="451.41" r="43.8864" gradientUnits="userSpaceOnUse" id="SVGID_17_" gradientTransform="matrix(-0.1125 0 0 0.1125 -224.197 -48.0226)"><stop offset="0.2143" stop-color="#FFFFFF"/><stop offset="0.5604" stop-color="#FBFFFA"/><stop offset="1" stop-color="#EBE3B6"/></radialGradient><radialGradient cx="-2244.19" cy="451.454" r="43.9297" gradientUnits="userSpaceOnUse" id="SVGID_18_" gradientTransform="matrix(-0.1125 0 0 0.1125 -224.197 -48.0226)"><stop offset="0.2143" stop-color="#FFFFFF"/><stop offset="0.5604" stop-color="#FBFFFA"/><stop offset="1" stop-color="#EBE3B6"/></radialGradient><radialGradient cx="-2244.31" cy="451.499" r="43.8374" gradientUnits="userSpaceOnUse" id="SVGID_19_" gradientTransform="matrix(-0.1125 0 0 0.1125 -224.197 -48.0226)"><stop offset="0.2143" stop-color="#FFFFFF"/><stop offset="0.5604" stop-color="#FBFFFA"/><stop offset="1" stop-color="#EBE3B6"/></radialGradient><radialGradient cx="-2244.46" cy="451.534" r="43.6636" gradientUnits="userSpaceOnUse" id="SVGID_20_" gradientTransform="matrix(-0.1125 0 0 0.1125 -224.197 -48.0226)"><stop offset="0.2143" stop-color="#FFFFFF"/><stop offset="0.5604" stop-color="#FBFFFA"/><stop offset="1" stop-color="#EBE3B6"/></radialGradient><radialGradient cx="-2244.24" cy="451.325" r="43.4198" gradientUnits="userSpaceOnUse" id="SVGID_21_" gradientTransform="matrix(-0.1125 0 0 0.1125 -224.197 -48.0226)"><stop offset="0.2143" stop-color="#FFFFFF"/><stop offset="0.5604" stop-color="#FBFFFA"/><stop offset="1" stop-color="#EBE3B6"/></radialGradient><radialGradient cx="-2244.3" cy="451.282" r="43.0687" gradientUnits="userSpaceOnUse" id="SVGID_22_" gradientTransform="matrix(-0.1125 0 0 0.1125 -224.197 -48.0226)"><stop offset="0.2143" stop-color="#FFFFFF"/><stop offset="0.5604" stop-color="#FBFFFA"/><stop offset="1" stop-color="#EBE3B6"/></radialGradient><radialGradient cx="-2244.4" cy="451.241" r="42.6077" gradientUnits="userSpaceOnUse" id="SVGID_23_" gradientTransform="matrix(-0.1125 0 0 0.1125 -224.197 -48.0226)"><stop offset="0.2143" stop-color="#FFFFFF"/><stop offset="0.5604" stop-color="#FBFFFA"/><stop offset="1" stop-color="#EBE3B6"/></radialGradient><path d="M29.59 6.87C29.47 6.88 29.34 6.88 29.22 6.89 29.17 6.16 29.11 5.16 29.08 4.4 29.03 3.4 28.97 2.29 28.94 1.72 29.01 1.72 29.07 1.72 29.14 1.72 29.17 2.04 29.21 2.56 29.27 3.27 29.33 4.08 29.49 5.77 29.59 6.87Z" fill="url(#SVGID_16_)"/><path d="M28.64 6.91C28.55 6.91 28.45 6.92 28.36 6.92 28.36 6.09 28.36 4.95 28.33 4.35 28.3 3.65 28.32 2.36 28.34 1.71 28.35 1.71 28.36 1.71 28.38 1.71 28.44 1.71 28.5 1.71 28.57 1.71 28.56 2.18 28.55 3 28.54 3.82 28.53 4.65 28.59 5.99 28.64 6.91Z" fill="url(#SVGID_17_)"/><path d="M27.76 6.95C27.67 6.95 27.59 6.96 27.51 6.96 27.52 6.38 27.53 5.61 27.54 4.91 27.55 3.93 27.65 2.37 27.7 1.67 27.76 1.68 27.83 1.69 27.89 1.7 27.86 1.99 27.83 2.46 27.82 3.13 27.8 4.02 27.78 5.82 27.76 6.95Z" fill="url(#SVGID_18_)"/><path d="M26.95 6.98C26.83 6.98 26.72 6.98 26.62 6.99 26.67 6.14 26.75 4.9 26.8 3.99 26.86 3.01 26.95 2.06 27.01 1.55 27.07 1.56 27.14 1.57 27.2 1.59 27.19 1.71 27.17 1.86 27.16 2.04 27.04 3.77 26.98 5.81 26.95 6.98Z" fill="url(#SVGID_19_)"/><path d="M26.05 7.02C25.88 7.01 25.77 7 25.73 6.99 25.75 6.68 25.78 6.29 25.8 5.83 25.85 4.69 26.13 2.4 26.24 1.47 26.31 1.47 26.39 1.48 26.47 1.49 26.4 2 26.27 2.92 26.21 3.69 26.15 4.46 26.08 6.01 26.05 7.02Z" fill="url(#SVGID_20_)"/><path d="M30.52 6.83C30.4 6.84 30.28 6.84 30.15 6.85 30 5.59 29.76 3.58 29.69 2.94 29.63 2.45 29.58 2.01 29.54 1.71 29.63 1.71 29.71 1.7 29.79 1.7 29.91 2.61 30.23 4.92 30.38 5.9 30.44 6.26 30.48 6.57 30.52 6.83Z" fill="url(#SVGID_21_)"/><path d="M31.37 6.8C31.29 6.8 31.21 6.81 31.13 6.81 31 6.03 30.82 4.98 30.64 4.2 30.43 3.28 30.22 2.24 30.11 1.69 30.2 1.69 30.28 1.68 30.36 1.67 30.42 1.93 30.52 2.33 30.64 2.9 30.85 3.87 31.17 5.65 31.37 6.8Z" fill="url(#SVGID_22_)"/><path d="M32.27 6.72C32.25 6.74 32.23 6.76 32.2 6.76 32.18 6.76 32.11 6.76 32 6.77 31.92 6.31 31.8 5.67 31.64 4.84 31.36 3.36 31.05 2.21 30.87 1.65 30.94 1.64 31 1.64 31.04 1.63 31.1 1.85 31.2 2.19 31.34 2.72 31.59 3.61 32.01 5.51 32.27 6.72Z" fill="url(#SVGID_23_)"/></g></g><path d="M10.16 17.32 0.85 15.96 0.69 13.06 10.18 13.56Z" fill="#120301"/><g><linearGradient x1="-1578.41" y1="-1.7788" x2="-1575.38" y2="17.8824" gradientUnits="userSpaceOnUse" id="SVGID_24_" gradientTransform="matrix(-1 0 0 1 -1571.72 0)"><stop offset="0" stop-color="#F7EBBE"/><stop offset="0.0145" stop-color="#F1E6BD"/><stop offset="0.072" stop-color="#DFD8BA"/><stop offset="0.1319" stop-color="#D4D0B9"/><stop offset="0.1978" stop-color="#D0CDB8"/><stop offset="0.4978" stop-color="#D7D3B8"/><stop offset="0.7912" stop-color="#E4DDB7"/></linearGradient><linearGradient x1="-1580.77" y1="17.4829" x2="-1581.34" y2="1.8879" gradientUnits="userSpaceOnUse" id="SVGID_25_" gradientTransform="matrix(-1 0 0 1 -1571.72 0)"><stop offset="0" stop-color="#FBF4DA"/><stop offset="0.5165" stop-color="#FDFBD6"/><stop offset="1" stop-color="#EBE3B6"/></linearGradient><path d="M0.02 5.35C0.59 5.09 4.56 4.96 5.65 4.87 6.73 4.77 11.48 5 11.23 5.5 10.99 6 6.73 6.2 6.06 6.21 5.4 6.21 0.02 5.35 0.02 5.35Z" fill="#FFFFFF"/><path d="M0.02 5.35C0.93 5.23 6.42 4.94 6.64 5.5 6.86 6.06 7.96 13.28 9.71 14.68L0.74 13.53C0.74 13.53 0.4 13.45 0.31 12.89 0.22 12.24 0.02 5.35 0.02 5.35Z" fill="url(#SVGID_24_)"/><path d="M12.05 9.62C11.97 8.87 11.83 5.71 11.17 5.39 10.53 5.08 6.9 5.13 6.65 5.5 6.4 5.87 7.33 11.56 7.9 12.97 8.47 14.38 9.21 14.5 9.21 14.5L12.03 14.53 12.05 9.62Z" fill="url(#SVGID_25_)"/></g><path d="M40.85 11.74 40.99 14.39 9.87 17.33 9.88 13.57Z" fill="#3F251A"/><path d="M41.78 7.95C41.45 7.75 33.5 7.57 32.51 7.59 31.52 7.61 12.81 8.03 12.11 8.18 11.91 8.23 11.84 8.77 11.84 8.77L8.34 9.11C8.34 9.11 7.27 9.37 7.29 10.28 7.34 12.83 8.31 15.15 10.75 14.65 12.05 14.38 41.78 7.95 41.78 7.95Z" fill="url(#SVGID_26_)"/><path d="M9.98 9.69C9.98 9.69 9.63 14.72 10.07 14.7 10.51 14.69 41.62 12.9 42.02 12.51 42.27 12.27 42.43 8.33 41.97 8 41.29 7.5 11.23 9.05 10.75 9.12 9.89 9.25 9.98 9.69 9.98 9.69Z" fill="#E7DBA9"/><g><linearGradient x1="-1592.51" y1="0.0645" x2="-1592.51" y2="8.1412" gradientUnits="userSpaceOnUse" id="SVGID_27_" gradientTransform="matrix(-1 0 0 1 -1571.72 0)"><stop offset="0" stop-color="#F7EBBE"/><stop offset="0.3787" stop-color="#EBE1BB"/><stop offset="0.7692" stop-color="#D9D4B7"/><stop offset="0.8741" stop-color="#DDD8B7"/><stop offset="0.9396" stop-color="#E4DDB7"/></linearGradient><radialGradient cx="-2176.23" cy="431.83" r="68.5646" gradientUnits="userSpaceOnUse" id="SVGID_29_" gradientTransform="matrix(-0.1125 0 0 0.1125 -224.197 -48.0226)"><stop offset="0.1813" stop-color="#F39D72"/><stop offset="0.2907" stop-color="#EB9566"/><stop offset="0.4906" stop-color="#D68145"/><stop offset="0.7569" stop-color="#B46010"/><stop offset="0.7692" stop-color="#B25E0D"/><stop offset="0.8721" stop-color="#AF5D11"/><stop offset="0.9852" stop-color="#A55B1F"/><stop offset="1" stop-color="#A35B21"/></radialGradient><path d="M25.83 6.81C25.69 6.13 24.94 1.58 24.87 1.12 24.81 0.67 24.46 0.29 24.11 0.35 23.75 0.4 21.5 0.54 20.24 0.5 18.65 0.46 17.11-0.24 16.7 0.23 16.06 0.83 16.06 2.53 15.97 3.58 15.88 4.83 15.27 8.02 16.37 8.07 16.69 8.31 24.95 7.89 25.2 7.8 25.97 7.77 25.83 6.81 25.83 6.81Z" fill="url(#SVGID_27_)"/><g opacity="0.95"><linearGradient x1="-1592.47" y1="0" x2="-1592.47" y2="8.1534" gradientUnits="userSpaceOnUse" id="SVGID_28_" gradientTransform="matrix(-1 0 0 1 -1571.72 0)"><stop offset="0.1813" stop-color="#E0884B"/><stop offset="0.2881" stop-color="#D47F44"/><stop offset="0.4826" stop-color="#B36730"/><stop offset="0.6044" stop-color="#9B5522"/><stop offset="0.8496" stop-color="#9F5821"/><stop offset="0.9396" stop-color="#A35B21"/></linearGradient><path d="M25.83 6.81C25.69 6.13 24.92 1.48 24.86 1.02 24.8 0.57 24.46 0.29 24.11 0.34 23.75 0.39 21.54 0.47 20.27 0.44 18.68 0.4 17.11-0.31 16.7 0.15 15.81 0.64 15.8 4.51 15.71 5.56 15.62 6.65 15.49 7.89 16.31 8.07 16.63 8.31 25.1 7.84 25.36 7.76 25.96 7.62 25.83 6.81 25.83 6.81ZM25.35 7.23C25.11 7.24 17.02 7.77 16.73 7.54 16.43 7.32 16.63 4.17 16.7 3.17 16.77 2.2 16.61 0.76 17 0.31 17.38-0.13 18.81 0.52 20.28 0.56 21.46 0.59 23.56 0.47 23.89 0.42 24.22 0.37 24.53 0.56 24.58 0.98 24.64 1.41 25.39 6.01 25.51 6.65 25.52 6.65 25.6 7.22 25.35 7.23Z" fill="url(#SVGID_28_)"/></g><path d="M25.04 6.13C24.99 5.85 25.07 4.98 24.8 3.88 24.49 2.59 24.4 1.66 24.38 1.47 24.3 0.87 23.9 0.79 23.6 0.84 23.29 0.88 21.4 1 20.34 0.97 19.02 0.94 17.74 0.38 17.41 0.76 17.07 1.15 17.3 2.39 17.22 3.23 17.03 5.21 16.95 6.84 17.21 7.03 17.47 7.22 24.64 6.8 24.86 6.79 25.07 6.79 25.04 6.13 25.04 6.13Z" fill="url(#SVGID_29_)"/><g opacity="0.76"><radialGradient cx="-2179.66" cy="437.811" r="38.2682" gradientUnits="userSpaceOnUse" id="SVGID_30_" gradientTransform="matrix(-0.1125 0 0 0.1125 -224.197 -48.0226)"><stop offset="0.1813" stop-color="#F4A180"/><stop offset="0.3678" stop-color="#EE9576"/><stop offset="0.6099" stop-color="#E47E63"/><stop offset="0.6832" stop-color="#E27C5F"/><stop offset="0.7638" stop-color="#DB7451"/><stop offset="0.848" stop-color="#D0683B"/><stop offset="0.934" stop-color="#C1581D"/><stop offset="1" stop-color="#B24800"/></radialGradient><radialGradient cx="-2179.41" cy="437.833" r="38.2977" gradientUnits="userSpaceOnUse" id="SVGID_31_" gradientTransform="matrix(-0.1125 0 0 0.1125 -224.197 -48.0226)"><stop offset="0.1813" stop-color="#F4A180"/><stop offset="0.3678" stop-color="#EE9576"/><stop offset="0.6099" stop-color="#E47E63"/><stop offset="0.6832" stop-color="#E27C5F"/><stop offset="0.7638" stop-color="#DB7451"/><stop offset="0.848" stop-color="#D0683B"/><stop offset="0.934" stop-color="#C1581D"/><stop offset="1" stop-color="#B24800"/></radialGradient><radialGradient cx="-2180.26" cy="437.854" r="38.4548" gradientUnits="userSpaceOnUse" id="SVGID_32_" gradientTransform="matrix(-0.1125 0 0 0.1125 -224.197 -48.0226)"><stop offset="0.1813" stop-color="#F4A180"/><stop offset="0.3678" stop-color="#EE9576"/><stop offset="0.6099" stop-color="#E47E63"/><stop offset="0.6832" stop-color="#E27C5F"/><stop offset="0.7638" stop-color="#DB7451"/><stop offset="0.848" stop-color="#D0683B"/><stop offset="0.934" stop-color="#C1581D"/><stop offset="1" stop-color="#B24800"/></radialGradient><radialGradient cx="-2180.39" cy="437.879" r="38.4656" gradientUnits="userSpaceOnUse" id="SVGID_33_" gradientTransform="matrix(-0.1125 0 0 0.1125 -224.197 -48.0226)"><stop offset="0.1813" stop-color="#F4A180"/><stop offset="0.3678" stop-color="#EE9576"/><stop offset="0.6099" stop-color="#E47E63"/><stop offset="0.6832" stop-color="#E27C5F"/><stop offset="0.7638" stop-color="#DB7451"/><stop offset="0.848" stop-color="#D0683B"/><stop offset="0.934" stop-color="#C1581D"/><stop offset="1" stop-color="#B24800"/></radialGradient><radialGradient cx="-2180.59" cy="437.896" r="38.453" gradientUnits="userSpaceOnUse" id="SVGID_34_" gradientTransform="matrix(-0.1125 0 0 0.1125 -224.197 -48.0226)"><stop offset="0.1813" stop-color="#F4A180"/><stop offset="0.3678" stop-color="#EE9576"/><stop offset="0.6099" stop-color="#E47E63"/><stop offset="0.6832" stop-color="#E27C5F"/><stop offset="0.7638" stop-color="#DB7451"/><stop offset="0.848" stop-color="#D0683B"/><stop offset="0.934" stop-color="#C1581D"/><stop offset="1" stop-color="#B24800"/></radialGradient><radialGradient cx="-2179.77" cy="437.79" r="38.1472" gradientUnits="userSpaceOnUse" id="SVGID_35_" gradientTransform="matrix(-0.1125 0 0 0.1125 -224.197 -48.0226)"><stop offset="0.1813" stop-color="#F4A180"/><stop offset="0.3678" stop-color="#EE9576"/><stop offset="0.6099" stop-color="#E47E63"/><stop offset="0.6832" stop-color="#E27C5F"/><stop offset="0.7638" stop-color="#DB7451"/><stop offset="0.848" stop-color="#D0683B"/><stop offset="0.934" stop-color="#C1581D"/><stop offset="1" stop-color="#B24800"/></radialGradient><radialGradient cx="-2179.86" cy="437.771" r="37.9629" gradientUnits="userSpaceOnUse" id="SVGID_36_" gradientTransform="matrix(-0.1125 0 0 0.1125 -224.197 -48.0226)"><stop offset="0.1813" stop-color="#F4A180"/><stop offset="0.3678" stop-color="#EE9576"/><stop offset="0.6099" stop-color="#E47E63"/><stop offset="0.6832" stop-color="#E27C5F"/><stop offset="0.7638" stop-color="#DB7451"/><stop offset="0.848" stop-color="#D0683B"/><stop offset="0.934" stop-color="#C1581D"/><stop offset="1" stop-color="#B24800"/></radialGradient><radialGradient cx="-2180" cy="437.75" r="37.7229" gradientUnits="userSpaceOnUse" id="SVGID_37_" gradientTransform="matrix(-0.1125 0 0 0.1125 -224.197 -48.0226)"><stop offset="0.1813" stop-color="#F4A180"/><stop offset="0.3678" stop-color="#EE9576"/><stop offset="0.6099" stop-color="#E47E63"/><stop offset="0.6832" stop-color="#E27C5F"/><stop offset="0.7638" stop-color="#DB7451"/><stop offset="0.848" stop-color="#D0683B"/><stop offset="0.934" stop-color="#C1581D"/><stop offset="1" stop-color="#B24800"/></radialGradient><path d="M21.69 6.94C21.54 6.95 21.4 6.95 21.25 6.96 21.19 6.11 21.12 4.95 21.08 4.07 21.02 2.91 20.96 1.62 20.92 0.96 21 0.96 21.08 0.96 21.16 0.96 21.19 1.33 21.24 1.94 21.31 2.76 21.38 3.7 21.56 5.66 21.69 6.94Z" fill="url(#SVGID_30_)"/><path d="M20.57 6.99C20.45 6.99 20.34 7 20.23 7 20.23 6.03 20.23 4.71 20.2 4.01 20.16 3.2 20.19 1.7 20.21 0.95 20.22 0.95 20.24 0.95 20.25 0.95 20.32 0.95 20.39 0.95 20.47 0.95 20.46 1.5 20.44 2.45 20.44 3.4 20.43 4.35 20.51 5.91 20.57 6.99Z" fill="url(#SVGID_31_)"/><path d="M19.52 7.03C19.42 7.03 19.32 7.04 19.22 7.04 19.23 6.36 19.25 5.47 19.25 4.65 19.26 3.51 19.38 1.7 19.44 0.88 19.51 0.89 19.59 0.9 19.66 0.91 19.62 1.25 19.58 1.79 19.57 2.58 19.57 3.62 19.54 5.71 19.52 7.03Z" fill="url(#SVGID_32_)"/><path d="M18.57 7.07C18.43 7.07 18.3 7.08 18.18 7.08 18.24 6.1 18.33 4.65 18.4 3.59 18.47 2.46 18.59 1.34 18.65 0.75 18.72 0.76 18.8 0.78 18.88 0.79 18.86 0.93 18.85 1.1 18.83 1.31 18.67 3.33 18.6 5.7 18.57 7.07Z" fill="url(#SVGID_33_)"/><path d="M17.49 7.11C17.29 7.1 17.15 7.09 17.11 7.07 17.14 6.71 17.17 6.26 17.19 5.72 17.25 4.39 17.58 1.72 17.72 0.65 17.8 0.65 17.9 0.66 17.99 0.67 17.9 1.26 17.75 2.34 17.68 3.23 17.61 4.13 17.54 5.94 17.49 7.11Z" fill="url(#SVGID_34_)"/><path d="M22.79 6.89C22.65 6.9 22.5 6.9 22.35 6.91 22.17 5.44 21.89 3.1 21.8 2.36 21.73 1.79 21.67 1.28 21.63 0.93 21.73 0.93 21.83 0.92 21.93 0.92 22.08 1.98 22.44 4.67 22.62 5.8 22.69 6.23 22.74 6.59 22.79 6.89Z" fill="url(#SVGID_35_)"/><path d="M23.79 6.85C23.7 6.86 23.6 6.86 23.5 6.87 23.35 5.97 23.13 4.74 22.93 3.84 22.69 2.77 22.43 1.56 22.3 0.93 22.4 0.92 22.5 0.92 22.6 0.91 22.67 1.21 22.78 1.68 22.93 2.34 23.18 3.44 23.56 5.51 23.79 6.85Z" fill="url(#SVGID_36_)"/><path d="M24.85 6.77C24.83 6.8 24.8 6.82 24.77 6.82 24.75 6.82 24.67 6.83 24.54 6.83 24.44 6.29 24.3 5.55 24.12 4.59 23.79 2.87 23.42 1.54 23.21 0.88 23.29 0.87 23.36 0.87 23.42 0.86 23.5 1.11 23.61 1.51 23.78 2.12 24.05 3.14 24.54 5.35 24.85 6.77Z" fill="url(#SVGID_37_)"/></g></g></g></g></svg>