<svg width="952.44" height="3085.65" viewBox="0 0 952.44 3085.65" xmlns="http://www.w3.org/2000/svg" xmlns:xlink="http://www.w3.org/1999/xlink" xml:space="preserve" overflow="hidden"><defs></defs><g><g><g><g><path d="M758.56 3044.55C742.61 3044.97 583.03 3041.29 580.07 3041.86 524.72 3052.57 469.05 2994.41 458.66 3020.82 454.64 3031.05 461.5 3037.73 465.46 3040.06 489.64 3054.31 511.57 3062.89 550.55 3064.68 566.52 3065.42 588.85 3059.6 603.79 3061.99 662.35 3071.36 683.48 3085.74 701.38 3085.62 753.24 3085.28 765.29 3079.98 771.7 3066.33 775.64 3057.98 775.75 3044.1 758.56 3044.55Z" fill="#0F0905"/></g></g><path d="M774.82 2997.79C772.91 2981.95 767.35 2966.86 762.45 2953.53 759.82 2946.37 757.32 2939.6 755.77 2933.66 755.97 2932.67 755.75 2931.65 755.14 2930.76 750.36 2923.82 716.36 2923.29 706.05 2923.29 691.17 2923.29 666.29 2924.1 664.28 2929.49 643.85 2972.75 599.12 2938.52 560.37 2933.09 552.02 2931.92 529.08 2932.52 526.12 2933.09 470.77 2943.8 459.26 2974.47 458.66 3004.72 458.47 3014.3 460.77 3020.02 463.99 3022.88 464.5 3023.32 464.99 3023.68 465.47 3023.96 489.65 3038.21 511.58 3046.79 550.56 3048.58 566.53 3049.31 588.86 3048.87 603.8 3051.27 662.36 3060.64 688.86 3069.65 706.77 3069.53 758.63 3069.19 762.64 3062.29 771.72 3050.24 775.75 3044.89 776.47 3011.36 774.82 2997.79Z" fill="#2C1A0F"/><g><path d="M560.37 2933.08C552.02 2931.91 529.08 2932.51 526.12 2933.08 489.54 2940.16 472.11 2955.96 464.32 2974.59 477.09 2989.38 511.59 2995.39 530.55 2971.91 546.49 2952.16 565.74 2943.66 577.68 2936.99 571.85 2935.29 566.04 2933.88 560.37 2933.08Z" fill="#3B2314"/><path d="M771.71 3050.24C775.75 3044.88 776.47 3011.36 774.83 2997.78 772.92 2981.94 767.36 2966.85 762.46 2953.52 761.1 2949.83 759.78 2946.24 758.61 2942.82 749.25 2935.98 738.37 2932.05 726.74 2932.05 691.8 2932.05 663.48 2967.44 663.48 3011.11 663.48 3032.53 670.31 3051.96 681.38 3066.19 691.93 3068.29 699.97 3069.57 706.77 3069.52 758.62 3069.19 762.63 3062.28 771.71 3050.24Z" fill="#3B2314"/><g><path d="M592.37 2941.65C588.54 2947.79 585.83 2954.93 583.54 2961.03 581.57 2966.29 590.09 2968.83 592.04 2963.62 594.25 2957.74 596.99 2950.29 601.17 2944.56 598.27 2943.62 595.32 2942.64 592.37 2941.65Z" fill="#0F0905"/><path d="M614.75 2969.32C615.45 2962.43 615.79 2955.5 617.75 2949.23 614.95 2948.61 612.09 2947.86 609.2 2947.03 607.23 2953.86 606.68 2961.27 605.91 2968.84 605.33 2974.45 614.17 2974.88 614.75 2969.32Z" fill="#0F0905"/><path d="M626.1 2967.96C627.78 2973.45 636.07 2970.7 634.39 2965.25 632.89 2960.37 632.17 2955.68 632.04 2951.06 629.18 2951.03 626.24 2950.75 623.23 2950.28 623.34 2956.06 624.24 2961.9 626.1 2967.96Z" fill="#0F0905"/><path d="M645.18 2963.9C649 2968.2 656.04 2963.1 652.2 2958.79 649.4 2955.64 647.34 2952.23 645.9 2948.65 643.17 2949.76 640.3 2950.45 637.32 2950.79 639.06 2955.48 641.63 2959.91 645.18 2963.9Z" fill="#0F0905"/><path d="M669.55 2950.97C674.81 2953.41 678.34 2945.5 673.14 2943.07 668.74 2941.02 664.64 2938.46 661.02 2935.41 659.34 2938.05 657.53 2940.3 655.61 2942.2 659.78 2945.67 664.47 2948.6 669.55 2950.97Z" fill="#0F0905"/></g></g></g><g><g><g><path d="M496.44 3044.55C480.49 3044.97 320.91 3041.29 317.95 3041.86 262.6 3052.57 206.93 2994.41 196.54 3020.82 192.52 3031.05 199.38 3037.73 203.34 3040.06 227.52 3054.31 249.45 3062.89 288.43 3064.68 304.4 3065.42 326.73 3059.6 341.67 3061.99 400.23 3071.36 421.36 3085.74 439.26 3085.62 491.12 3085.28 503.17 3079.98 509.58 3066.33 513.52 3057.98 513.63 3044.1 496.44 3044.55Z" fill="#0F0905"/></g></g><path d="M512.7 2997.79C510.79 2981.95 505.23 2966.86 500.33 2953.53 497.7 2946.37 495.2 2939.6 493.65 2933.66 493.85 2932.67 493.63 2931.65 493.02 2930.76 488.24 2923.82 454.24 2923.29 443.93 2923.29 429.05 2923.29 404.17 2924.1 402.16 2929.49 381.73 2972.75 337 2938.52 298.25 2933.09 289.9 2931.92 266.96 2932.52 264 2933.09 208.65 2943.8 197.14 2974.47 196.54 3004.72 196.35 3014.3 198.65 3020.02 201.87 3022.88 202.38 3023.32 202.87 3023.68 203.35 3023.96 227.53 3038.21 249.46 3046.79 288.44 3048.58 304.41 3049.31 326.74 3048.87 341.68 3051.27 400.24 3060.64 426.74 3069.65 444.65 3069.53 496.51 3069.19 500.52 3062.29 509.6 3050.24 513.63 3044.89 514.34 3011.36 512.7 2997.79Z" fill="#2C1A0F"/><g><path d="M298.25 2933.08C289.9 2931.91 266.96 2932.51 264 2933.08 227.42 2940.16 209.99 2955.96 202.2 2974.59 214.97 2989.38 249.47 2995.39 268.43 2971.91 284.37 2952.16 303.62 2943.66 315.56 2936.99 309.73 2935.29 303.92 2933.88 298.25 2933.08Z" fill="#3B2314"/><path d="M509.59 3050.24C513.63 3044.88 514.35 3011.36 512.71 2997.78 510.8 2981.94 505.24 2966.85 500.34 2953.52 498.98 2949.83 497.66 2946.24 496.49 2942.82 487.13 2935.98 476.25 2932.05 464.62 2932.05 429.68 2932.05 401.36 2967.44 401.36 3011.11 401.36 3032.53 408.19 3051.96 419.26 3066.19 429.81 3068.29 437.85 3069.57 444.65 3069.52 496.5 3069.19 500.51 3062.28 509.59 3050.24Z" fill="#3B2314"/><g><path d="M330.25 2941.65C326.42 2947.79 323.71 2954.93 321.42 2961.03 319.45 2966.29 327.97 2968.83 329.92 2963.62 332.13 2957.74 334.87 2950.29 339.05 2944.56 336.14 2943.62 333.2 2942.64 330.25 2941.65Z" fill="#0F0905"/><path d="M352.63 2969.32C353.33 2962.43 353.67 2955.5 355.63 2949.23 352.83 2948.61 349.97 2947.86 347.08 2947.03 345.11 2953.86 344.56 2961.27 343.79 2968.84 343.21 2974.45 352.05 2974.88 352.63 2969.32Z" fill="#0F0905"/><path d="M363.98 2967.96C365.66 2973.45 373.95 2970.7 372.27 2965.25 370.77 2960.37 370.05 2955.68 369.92 2951.06 367.06 2951.03 364.12 2950.75 361.11 2950.28 361.22 2956.06 362.12 2961.9 363.98 2967.96Z" fill="#0F0905"/><path d="M383.06 2963.9C386.88 2968.2 393.92 2963.1 390.08 2958.79 387.28 2955.64 385.22 2952.23 383.78 2948.65 381.05 2949.76 378.18 2950.45 375.2 2950.79 376.94 2955.48 379.51 2959.91 383.06 2963.9Z" fill="#0F0905"/><path d="M407.43 2950.97C412.69 2953.41 416.22 2945.5 411.02 2943.07 406.62 2941.02 402.52 2938.46 398.9 2935.41 397.22 2938.05 395.41 2940.3 393.49 2942.2 397.66 2945.67 402.35 2948.6 407.43 2950.97Z" fill="#0F0905"/></g></g></g><g><g><g><path d="M367.6 714.25C438.46 644.87 415.69 499.13 415.69 499.13L491.03 503.05 490.98 501.55 587.69 499.13C587.69 499.13 564.92 644.87 635.78 714.25 671.24 748.96 540.63 833.28 508.62 853.12L508.62 862.18C508.63 862.18 327.28 753.72 367.6 714.25Z" fill="#EFD3A5"/></g></g></g><g><g><g><path d="M311.28 277.16C270.2 400.02 375.9 553.32 418.89 562.85 471.94 574.6 537.73 553.17 567.32 533.21 622.9 495.73 676.81 427.68 677.57 352.71L692.35 198C693.33 101.25 606.46 84.31 507.5 83.3L495.56 86.96C396.6 85.96 314.5 89.13 313.52 185.88 313.52 185.88 321.05 247.93 311.28 277.16Z" fill="#EFD3A5"/></g></g></g><path d="M305.52 299.15C305.52 299.15 318.86 309.77 318.7 322.18 318.53 334.6 302.11 344.07 302.11 344.07 301.62 329.01 302.64 313.94 305.52 299.15Z" fill="#FFB593"/><path d="M304.71 244.94C311.86 263.5 353.76 331.35 353.76 307.57 353.76 291.71 380.93 263.58 384.9 251.35 397.31 259.8 400.9 433.22 470 499.12 491.33 519.47 520.29 480.43 549.66 478.74 564.43 477.89 563.52 497.97 582.98 499.12 682.44 504.98 739.86 176.37 711.7 108.9 692.08 61.9 645.37 35.14 616.55 50.99 615.65 47.34 606.97 34.79 603.88 31.92 595.49 24.13 583.37 21.08 572.39 19.24 536.52 13.24 499.08 16.39 463.06 19.47 449.7 20.6 436.35 22.13 422.95 22.98 416.92 23.36 411.04 22.91 405.02 22.23 390.37 20.57 374.33 17.55 363.28 7 361.59 5.39 359.38 6.27 358.46 7.82 357.18 8.6 356.36 10.21 357.27 11.92 362.96 22.67 369.93 32.49 378.03 41.1 366.03 40.62 352.84 39.44 343.77 31.39 341.23 29.15 337.67 32.05 338.65 34.57 338.61 34.89 338.6 35.22 338.68 35.57 340.47 44.97 345.31 53.36 351.78 60.69 337.56 60.75 325.74 71.89 314.78 80.58 275.15 111.96 289.92 206.52 304.71 244.94ZM394.2 47.8C394.6 47.82 395.02 47.85 395.42 47.87 395.15 47.97 394.89 48.07 394.63 48.16 394.48 48.04 394.35 47.92 394.2 47.8Z" fill="#040515"/><g><path d="M643.57 658.62C643.57 658.62 622.95 626.48 617.13 616.11 594.56 575.88 580.77 574.21 567.9 574.21L433.26 574.21C414.83 574.21 407.1 584.69 397.26 600.7L361.55 655.09 410.53 755.73 447.17 698.25C447.41 698.25 447.64 698.29 447.88 698.29L475.95 698.29 507.74 772.71 643.57 658.62Z" fill="#D1D5E8"/></g><g><g><path d="M384.9 251.36C377.89 248.03 369.35 246.82 359.1 248.53 334.74 252.59 330.27 276.92 333.3 301.43 336.6 328.1 364.34 364.74 384.9 367.41L384.9 251.36Z" fill="#CE9A57"/></g></g><g><g><g><g><g><path d="M21.8 1678.97C21.8 1678.97 3.19 1772.7 29.68 1816.8 63.97 1873.9 84.35 1888.11 84.35 1888.11 84.35 1888.11 89.01 1890.9 94.15 1886.01 99.29 1881.13 63.14 1831.99 61.26 1814.96 58.39 1788.88 62.23 1755.7 69.9 1753.64 77.56 1751.58 81.85 1789.43 81.86 1799.56 81.88 1809.7 82.35 1829.61 91.64 1833.37 100.93 1837.15 114.06 1810.09 104.56 1768.02 95.06 1725.96 98.3 1697.94 98.3 1697.94L91.48 1639.91 21.8 1678.97Z" fill="#EFD3A5"/></g></g></g><g><g><path d="M6.23 1637.4 10.52 1686.1C10.52 1686.1 29.45 1700.23 58.92 1701.16 77.16 1701.74 104.14 1699.38 104.14 1699.38L109.71 1643.15 6.23 1637.4Z" fill="#D1D5E8"/></g></g><g><path d="M227.6 1003.67C227.6 1003.67 227 895.96 204.06 814 180.16 728.61 154.86 714.7 154.86 714.7 154.86 714.7 99.71 764.12 48.95 1048.51 17.09 1227.01 0 1651.17 0 1651.17 0 1651.17 17.03 1661.51 48.14 1662.79 92.08 1664.58 115.63 1651.33 115.63 1651.33 115.63 1651.33 135.39 1429.09 175.79 1212.4 185.92 1158.11 227.6 1003.67 227.6 1003.67Z" fill="#04193C"/></g></g></g><path d="M643.73 2931.95C643.73 2931.95 663.38 2945.11 688.15 2944.01 754.99 2941.03 760.36 2931.07 760.36 2931.07 760.36 2931.07 746.82 2403.48 737.98 2287.73 728.76 2167.21 722.29 1647.4 722.29 1647.4L484.42 1658.18C493.85 1769.56 573.73 2217.05 583.17 2295.63 599.08 2428.21 643.73 2931.95 643.73 2931.95Z" fill="#04172D"/><path d="M737.65 2283.39C730.98 2188.95 725.79 1888.14 723.52 1736.53 715.23 1702.84 705.64 1673.2 694.47 1648.65L506.57 1657.16C500.23 1670.52 494.44 1685.21 489.23 1701.07 509.15 1855.53 574.67 2224.91 583.16 2295.62 586.65 2324.72 591.53 2371.71 597.02 2427.33 604.43 2429.18 612.21 2429.79 620.41 2429.07 671.25 2424.62 712.57 2368.96 737.65 2283.39Z" fill="#04193C"/><path d="M388.07 2932.3C388.07 2932.3 407.18 2946.23 431.97 2946.11 498.87 2945.78 504.63 2936.04 504.63 2936.04 504.63 2936.04 511.98 2408.33 507.72 2292.32 503.28 2171.53 517.38 1651.87 517.38 1651.87L279.27 1653.23C284.29 1764.9 346.4 2215.19 352.72 2294.1 363.39 2427.18 388.07 2932.3 388.07 2932.3Z" fill="#04172D"/><path d="M507.58 2287.96C504.65 2193.33 511.37 1892.54 515.11 1740.97 508.16 1706.98 499.75 1676.98 489.56 1652.01L301.47 1653.08C294.61 1666.18 288.24 1680.63 282.4 1696.26 296.19 1851.39 347.05 2223.07 352.73 2294.07 355.07 2323.29 358.09 2370.43 361.37 2426.23 368.7 2428.37 376.45 2429.29 384.67 2428.9 435.65 2426.45 479.14 2372.47 507.58 2287.96Z" fill="#04193C"/><g><path d="M289.89 1770.41C284.02 1705.54 279.28 1653.21 279.28 1653.21 279.28 1653.21 333.29 1430.93 543.59 1443.67 753.88 1456.4 730.29 1637.84 730.29 1637.84 730.29 1637.84 727.96 1695.93 724.16 1778.05 662.31 1802.53 584.96 1799.74 521.3 1799.74 451.97 1799.75 348.78 1802.41 289.89 1770.41Z" fill="#04172D"/></g><g><g><g><g><g><path d="M930.64 1660.8C930.64 1660.8 949.25 1754.53 922.76 1798.63 888.47 1855.72 868.09 1869.93 868.09 1869.93 868.09 1869.93 863.43 1872.72 858.29 1867.83 853.15 1862.95 889.3 1813.8 891.18 1796.78 894.05 1770.7 890.21 1737.52 882.54 1735.46 874.88 1733.4 870.59 1771.25 870.57 1781.38 870.55 1791.52 870.08 1811.43 860.8 1815.2 851.51 1818.98 838.38 1791.92 847.88 1749.85 857.38 1707.79 854.14 1679.77 854.14 1679.77L860.95 1621.74 930.64 1660.8Z" fill="#EFD3A5"/></g></g></g><g><g><path d="M946.21 1619.23 941.92 1667.93C941.92 1667.93 923 1682.06 893.53 1682.99 875.29 1683.57 848.3 1681.21 848.3 1681.21L842.73 1624.98 946.21 1619.23Z" fill="#D1D5E8"/></g></g><g><path d="M724.84 985.5C724.84 985.5 725.44 877.79 748.38 795.83 772.28 710.44 797.58 696.53 797.58 696.53 797.58 696.53 852.73 745.95 903.49 1030.34 935.35 1208.84 952.44 1633 952.44 1633 952.44 1633 935.41 1643.34 904.3 1644.61 860.36 1646.4 836.8 1633.15 836.8 1633.15 836.8 1633.15 817.04 1410.91 776.63 1194.22 766.52 1139.94 724.84 985.5 724.84 985.5Z" fill="#04172D"/></g></g><g><path d="M908.82 1614.27C908.82 1622.05 915.13 1628.36 922.91 1628.36 930.69 1628.36 937 1622.05 937 1614.27 937 1606.49 930.69 1600.18 922.91 1600.18 915.13 1600.18 908.82 1606.49 908.82 1614.27Z" fill="#485378"/></g></g><g><path d="M797.58 696.52 600.34 651.06C600.34 651.06 569.42 639.69 497.39 639.69 435.71 639.69 384.75 651.06 384.75 651.06L154.86 714.7C154.86 714.7 159.86 877.37 202.11 968.45 250.73 1073.29 245.51 1188.82 245.51 1188.82L280.88 1740.96C280.88 1740.96 351.11 1767.7 487.13 1767.7 547.23 1767.7 735.56 1745.05 735.56 1745.05L777.07 1193.06C777.07 1193.06 779.3 1153.75 801.82 1017.78 818.23 918.73 797.58 696.52 797.58 696.52Z" fill="#04193C"/></g><g><path d="M293.46 676.33C293.46 676.33 394.32 628.16 519.61 629.6 644.9 631.03 682.44 669.98 682.44 669.98 682.44 669.98 606.29 708.03 526.4 707.62 446.52 707.21 293.46 676.33 293.46 676.33Z" fill="#04172D"/></g><g><path d="M294.08 676.16C294.08 676.16 401.94 605.86 527.23 607.29 652.52 608.72 682.44 669.98 682.44 669.98 682.44 669.98 607.46 689.48 527.57 689.06 447.69 688.66 294.08 676.16 294.08 676.16Z" fill="#04193C"/></g><g><defs><path d="M304.71 244.94C311.86 263.5 353.76 331.35 353.76 307.57 353.76 291.71 380.93 263.58 384.9 251.35 397.31 259.8 400.9 433.22 470 499.12 491.33 519.47 520.29 480.43 549.66 478.74 564.43 477.89 563.52 497.97 582.98 499.12 682.44 504.98 739.86 176.37 711.7 108.9 692.08 61.9 645.37 35.14 616.55 50.99 615.65 47.34 606.97 34.79 603.88 31.92 595.49 24.13 583.37 21.08 572.39 19.24 536.52 13.24 499.08 16.39 463.06 19.47 449.7 20.6 436.35 22.13 422.95 22.98 416.92 23.36 411.04 22.91 405.02 22.23 390.37 20.57 374.33 17.55 363.28 7 361.59 5.39 359.38 6.27 358.46 7.82 357.18 8.6 356.36 10.21 357.27 11.92 362.96 22.67 369.93 32.49 378.03 41.1 366.03 40.62 352.84 39.44 343.77 31.39 341.23 29.15 337.67 32.05 338.65 34.57 338.61 34.89 338.6 35.22 338.68 35.57 340.47 44.97 345.31 53.36 351.78 60.69 337.56 60.75 325.74 71.89 314.78 80.58 275.15 111.96 289.92 206.52 304.71 244.94ZM394.2 47.8C394.6 47.82 395.02 47.85 395.42 47.87 395.15 47.97 394.89 48.07 394.63 48.16 394.48 48.04 394.35 47.92 394.2 47.8Z" id="SVGID_1_"/></defs><clipPath id="SVGID_2_"><use width="100%" height="100%" xlink:href="#SVGID_1_" overflow="visible"></use></clipPath><g clip-path="url(#SVGID_2_)"><g><path d="M617.86 39.06C617.97 56.42 638.42 67.03 651.31 74.1 667.15 82.79 680.92 90.91 692.27 105.56 720.77 142.37 722.03 193.55 723.9 238 724.04 241.36 721.59 243.09 720.79 239.02 718.39 226.87 718.91 214.08 718.27 201.75 717.6 188.82 715.66 175.89 712.83 163.27 707.55 139.72 697.36 116.87 679.67 100.19 659.61 81.28 614.64 73.54 617.19 38.85 617.24 37.94 617.85 38.36 617.86 39.06L617.86 39.06Z" fill="#14162C"/></g><g><path d="M619.6 31.21C619.13 50.85 629.36 68.61 639.39 84.79 649.75 101.49 661.28 117.44 671.3 134.34 680.56 149.96 688.37 166.97 690.97 185.08 693.54 202.91 692.39 223.35 688.63 240.95 688.24 242.79 686.93 242.72 686.84 240.82 686.41 231.88 687.76 222.76 688.25 213.84 688.83 203.46 688.65 193.04 686.68 182.81 682.78 162.51 671.26 143.89 660.22 126.78 649.81 110.63 638.7 94.93 629.55 78 621.95 63.94 614.95 46.93 618.3 30.7 618.67 28.9 619.64 29.88 619.6 31.21L619.6 31.21Z" fill="#14162C"/></g><g><path d="M621.73 41.43C617.35 55.41 623.08 73.37 628.16 89.73 632.97 105.22 638.12 120.59 639.15 135.39 640.18 150.06 636.5 162.69 629.8 174.37 626.37 180.36 622.33 186.04 617.82 191.43 613.39 196.72 608.44 202.27 601.51 205.85 599.96 206.65 600.18 204.18 600.52 203.76 604.97 198.44 610.43 193.72 615.01 188.47 619.98 182.77 624.12 176.59 627.77 170.17 634.71 157.95 636.48 144.1 634.24 128.59 630.02 99.37 610.55 66.81 620.77 41.35 620.96 40.82 622 40.59 621.73 41.43L621.73 41.43Z" fill="#14162C"/></g><g><path d="M618.69 48.24C614.63 104.78 565.67 141.59 513.36 151.78 477.5 158.77 440.42 152.18 405.97 141.69 388.22 136.29 370.98 129.38 353.96 122.05 337.47 114.95 321.47 106.43 303.28 104.95 287.79 103.68 273.81 109.7 259.41 114.39 258.16 114.8 258.21 111.57 258.97 111.01 272.42 101.25 288.48 96.71 305.04 98.04 321.87 99.39 337.47 107.2 352.79 113.63 387.32 128.12 423.21 140.74 460.62 144.86 518.73 151.25 588.14 132.23 611.36 72.87 614.52 64.79 616.39 56.16 617.64 47.59 617.88 45.86 618.77 47.15 618.69 48.24L618.69 48.24Z" fill="#14162C"/></g><g><path d="M619.12 47.04C621.57 68.52 597.22 87.64 580.51 96.49 553.6 110.74 519.7 111.63 490 110.63 455.32 109.46 420.88 102.74 387.13 95.1 370.89 91.42 354.81 86.93 338.31 84.52 322.01 82.14 306.8 84.4 290.57 85.55 289.09 85.65 288.99 80.98 290.23 80.54 318.74 70.42 350.25 79.61 378.4 86.24 409.99 93.68 441.94 99.98 474.3 102.85 504.05 105.48 534.97 105.98 563.84 97.33 576.1 93.66 586.85 88.03 596.72 79.94 606.84 71.64 616.8 60.56 618.39 47.05 618.47 46.29 619.03 46.26 619.12 47.04L619.12 47.04Z" fill="#14162C"/></g><g><path d="M619.52 47.98C620.79 55.69 613.86 62.03 608.54 66.53 600.46 73.37 590.6 79 580.38 81.84 566.49 85.69 552.26 86.29 537.93 86.49 524.2 86.68 510.93 86.07 497.54 82.71 473.03 76.55 451.98 61.98 432.67 46.22 422.36 37.8 412 29.46 400.73 22.33 388.74 14.73 375.36 11.05 362.94 4.49 361.92 3.95 361.85 5.32907e-15 363.27 5.32907e-15 375.16 0.06 386.96 6.4 397.08 12.13 407.9 18.26 417.8 25.93 427.49 33.68 446.44 48.81 465.25 63.58 488.29 71.97 512.42 80.75 539.2 79.73 564.42 77.71 576.31 76.76 587.45 73.85 597.87 68.05 605.86 63.6 616.25 57.16 618.94 47.8 619.12 47.19 619.45 47.55 619.52 47.98L619.52 47.98Z" fill="#14162C"/></g><g><path d="M619.27 48.65C598.28 76.85 558.03 65.34 531.69 53.1 516.8 46.18 502.78 37.62 488.55 29.46 479.97 24.54 471.09 20.52 461.54 17.87 451.82 15.17 441.52 14.39 431.57 12.9 430.28 12.71 430.36 8.98 431.64 8.78 467.31 3.4 496.65 27.86 526.38 43.41 541.19 51.16 556.93 57.83 573.63 59.88 581.33 60.83 589.21 60.32 596.73 58.46 605.24 56.36 611.65 51.21 618.95 46.76 619.6 46.37 619.5 48.34 619.27 48.65L619.27 48.65Z" fill="#14162C"/></g><g><path d="M618.15 45.96C615.21 69.72 606.85 92.53 592.35 111.68 577.06 131.86 555.24 146.68 532.85 157.97 483.23 183 427.58 180.78 373.77 176 348.17 173.73 323.13 172.55 298.67 181.89 275.14 190.87 255.87 208.77 242.02 229.45 241.58 230.11 241.84 233.3 242.81 232.24 258.08 215.37 273.94 199.2 294.97 189.7 315.92 180.25 339.4 179.09 361.98 181.1 415.16 185.84 469.3 190.49 520.07 170.19 546.96 159.44 572.85 142.42 591.29 119.89 608.43 98.95 616.72 73.31 619.36 46.68 619.47 45.44 618.38 44.06 618.15 45.96L618.15 45.96Z" fill="#14162C"/></g><g><path d="M617.02 60.4C612.94 98.44 594.26 131.51 563.73 154.49 534.05 176.83 497.97 189.15 462.56 199 428.61 208.44 393.98 215.27 360.16 225.16 350.92 227.86 341.86 231.03 332.81 234.34 321.21 238.57 309.77 243.63 300.56 252.04 282.75 268.29 276.53 293.62 272.26 316.41 272.13 317.13 272.97 320.42 273.56 318.58 281.46 293.5 286.33 267.04 309.84 251.47 320.59 244.35 333.24 240.45 345.28 236.15 353.83 233.1 362.59 230.64 371.34 228.26 407.54 218.41 444.42 211.21 480.32 200.21 513.56 190.02 547.06 176.57 573.48 153.36 600.7 129.43 614.91 96.71 617.88 60.94 617.95 60.03 617.17 59.04 617.02 60.4L617.02 60.4Z" fill="#14162C"/></g><g><path d="M597.37 179.91C585.66 205.23 574.45 231.8 555.06 252.35 534.65 273.99 511.88 293.35 490.46 313.97 470.23 333.45 448.98 354.25 435.47 379.13 423.44 401.28 418.9 426.52 417.3 451.44 416.89 457.84 416.72 464.23 416.78 470.65 416.8 473.06 418.84 474.43 419.13 471.31 421.6 444.76 422.96 418.53 433.65 393.69 445.21 366.81 467.23 344.73 487.65 324.37 508.23 303.84 530.12 284.65 550.28 263.68 570.04 243.12 582.99 218.59 593.19 192.14 594.65 188.37 596.21 184.67 597.85 180.97 598.02 180.59 597.71 179.17 597.37 179.91L597.37 179.91Z" fill="#14162C"/></g><g><path d="M561.64 187.31C557.41 199.46 548.95 210.36 540.55 219.93 531.63 230.09 521.54 239.22 511.41 248.15 491.74 265.5 469.79 279.87 449.24 296.1 428.34 312.6 410.52 331.78 397.42 355.09 384.64 377.82 377.19 403.11 372.39 428.62 371.29 434.48 370.31 440.39 369.62 446.31 369.42 448 371.12 451.81 371.94 448.45 378.36 422.3 383.08 396.3 394.74 371.77 406.63 346.74 424.27 325.41 445.34 307.6 465.65 290.43 488.16 276.01 508.08 258.36 526.94 241.66 547.17 223.02 557.87 199.75 559.6 195.98 560.89 192.03 562.09 188.06 562.18 187.78 561.85 186.71 561.64 187.31L561.64 187.31Z" fill="#14162C"/></g><g><path d="M590.81 243.58C584.26 255.79 579 268.73 571.77 280.57 564.47 292.52 555.01 303.14 545.91 313.71 527.82 334.72 510.44 356.68 494.06 379.06 478.49 400.34 463.89 423.64 456.27 449.08 447.8 477.34 445.52 507.51 452.73 536.26 453.56 539.57 455.11 535.66 454.9 534.06 450.95 504.33 451.85 474.65 462.37 446.28 471.56 421.48 486.51 399.24 502.23 378.17 518.01 357.02 534.32 336.13 550.99 315.68 559.69 305 568.19 294.11 574.82 281.99 581.25 270.23 585.4 257.43 591.52 245.53 591.79 244.99 591.24 242.76 590.81 243.58L590.81 243.58Z" fill="#14162C"/></g><g><path d="M589.24 299.61C585.48 320.5 572.57 339.11 560.15 355.8 547.01 373.45 533.3 390.53 522.02 409.48 499.56 447.21 486.87 493.07 500.7 536.24 501.73 539.45 503.08 535.68 502.84 534.07 501.13 522.69 499.24 511.36 498.95 499.83 498.64 487.63 500.4 475.44 503.39 463.63 508.81 442.21 519.13 422.28 530.98 403.77 552.26 370.54 584.49 340.92 589.75 300.08 589.8 299.7 589.37 298.88 589.24 299.61L589.24 299.61Z" fill="#14162C"/></g><g><path d="M612.6 281.47C603.43 324.69 611.54 367.63 615.68 410.93 617.9 434.13 618 457.26 613.4 480.19 611.13 491.49 607.41 502.44 603.32 513.18 599.12 524.19 593.63 534.89 590.77 546.36 590.58 547.14 591.12 552.44 592.64 550.38 598.74 542.09 602.13 531.32 605.84 521.81 610.07 510.99 613.72 499.94 616.38 488.63 621.49 466.95 622.23 444.52 620.7 422.37 617.5 376.09 604.2 328.98 613.5 282.61 613.65 281.89 612.92 279.99 612.6 281.47L612.6 281.47Z" fill="#14162C"/></g><g><path d="M634.53 248.11C623.99 292.33 638.58 336.24 645.52 379.69 649.32 403.52 651.43 427.59 652.86 451.67 653.58 463.85 653.95 476 652.92 488.17 651.83 500.94 648.15 512.9 645.3 525.31 645.14 526.01 645.76 531.14 647.07 529.12 652.59 520.61 654.85 509.63 656.37 499.74 658.17 488.05 658.59 476.27 658.25 464.46 657.53 440.03 655.17 415.43 651.82 391.22 645.26 343.95 627.71 297.64 635.49 249.32 635.59 248.6 634.9 246.53 634.53 248.11L634.53 248.11Z" fill="#14162C"/></g><g><path d="M658.84 208.56C656.58 229.62 657.6 250.35 661.63 271.15 665.8 292.68 672.19 313.72 678.27 334.77 684.6 356.67 690.86 378.73 691.43 401.66 692.05 426.41 686.18 450.41 682.43 474.69 682.25 475.87 683.75 480.63 684.78 477.67 692.43 455.87 695.81 432.22 696.32 409.17 696.83 385.87 691.68 363.49 685.45 341.19 673.43 298.22 656.46 254.65 659.93 209.2 660.02 208.09 659.03 206.82 658.84 208.56L658.84 208.56Z" fill="#14162C"/></g></g></g></g></svg>