<svg width="477.68" height="451.11" viewBox="0 0 477.68 451.11" xmlns="http://www.w3.org/2000/svg" xmlns:xlink="http://www.w3.org/1999/xlink" xml:space="preserve" overflow="hidden"><defs></defs><g><g><path d="M385.22 427.61 384.81 433.06C389.1 431.9 393.62 431.86 398.06 433.12 394.31 430.24 389.94 428.32 385.22 427.61Z" fill="#E0D0C7"/><path d="M381.46 423.66 381.05 429.11C385.34 427.95 389.86 427.91 394.3 429.17 390.54 426.29 386.18 424.37 381.46 423.66Z" fill="#E0D0C7"/><path d="M340.32 420.52C340.32 420.52 353.81 421.46 358.02 420.37 362.23 419.29 380.44 419.98 383.52 423.53 386.6 427.07 388.16 432.81 376.46 429.24 364.77 425.67 359.84 430.38 354.59 430.01 349.33 429.65 340.32 420.52 340.32 420.52Z" fill="#F7931E"/><path d="M297.86 358.26C297.86 358.26 315.6 389.68 319.68 402.19 323.76 414.7 324.79 418.52 317.94 421.72 311.09 424.92 301.6 414.22 298.73 422.14 295.86 430.06 298.78 435.95 308.74 431.29 318.7 426.63 336.23 426.7 342.48 428.96 348.73 431.22 388.13 439.64 389.2 429.18 389.74 423.94 375.93 424.83 362.42 423.67 350.83 422.68 339.58 419.59 336.54 416.57 329.94 410.04 317.17 349.24 317.17 349.24 317.17 349.24 308.48 344.6 307.67 346.86 306.84 349.11 297.86 358.26 297.86 358.26Z" fill="#F5BF3B"/><path d="M353.8 428.68 353.43 433.51C357.23 432.48 361.44 432.96 365.38 434.07 362.06 431.51 357.98 429.3 353.8 428.68Z" fill="#E0D0C7"/><path d="M304.96 420.75C304.96 420.75 324.1 425.68 328.31 424.6 332.52 423.52 350.73 424.21 353.81 427.76 356.89 431.3 358.45 437.04 346.75 433.47 335.05 429.9 330.13 434.61 324.88 434.24 319.62 433.87 304.96 420.75 304.96 420.75Z" fill="#F7931E"/><path d="M356.38 442.2 355.72 450.82C362.5 448.98 369.65 448.93 376.68 450.91 370.75 446.35 363.85 443.31 356.38 442.2Z" fill="#E0D0C7"/><path d="M270.04 434.59 270.41 439.42C266.61 438.39 262.61 438.36 258.66 439.47 261.99 436.92 265.86 435.21 270.04 434.59Z" fill="#E0D0C7"/><path d="M308.64 422.78C302.04 416.25 289.27 355.44 289.27 355.44 289.27 355.44 280.58 350.8 279.77 353.06 278.95 355.32 269.97 364.47 269.97 364.47 269.97 364.47 287.71 395.88 291.79 408.4 295.87 420.91 296.9 424.73 290.05 427.93 283.2 431.14 272.68 425.94 269.81 433.86 266.94 441.78 270.89 443.73 280.85 439.07 290.81 434.41 295.54 430.21 301.86 435.6 308.18 440.99 311.19 435.75 317.43 438.02 323.67 440.28 357.76 460.45 362.66 445.85 366.21 435.27 315.24 429.3 308.64 422.78Z" fill="#F5BF3B"/><path d="M224.91 211.51C224.91 211.51 198.33 154.64 162.13 128.77 125.93 102.9 51.28 115.73 26.49 134.52-0.86 155.25-10.17 185.29 13.66 189.69 37.49 194.09 43.45 140.48 80.11 132.23 116.77 123.98 213 195.93 216.9 214.26 220.79 232.59 224.91 211.51 224.91 211.51Z" fill="#0A0B0C"/><path d="M209.33 213.35C209.33 213.35 208.49 212.22 206.89 210.27 200.24 202.18 180.49 180.05 153.88 167.51 120.89 151.95 53.98 173.94 67.27 193.65 80.56 213.36 122.72 190.44 155.71 193.65 188.7 196.86 210.7 221.76 210.7 221.76L209.33 213.35Z" fill="#0A0B0C"/><path d="M202.46 219.56C202.46 219.56 170.49 207.85 138.13 212.43 105.77 217.01 95.69 224.34 95.69 233.05 95.69 241.76 134.64 221.75 158.01 221.75 181.38 221.75 202.46 219.56 202.46 219.56Z" fill="#293B4C"/><path d="M213.42 252.96C213.42 252.96 179.89 208.02 150.55 202.05 121.21 196.08 99.65 203.35 90.56 222.83 81.47 242.31 89.26 271.66 79.39 281.53 69.52 291.4 61.86 284.78 58.35 288.28 54.84 291.79 62.98 302.05 81.71 298.93 100.43 295.81 110.3 278.41 110.3 262.82 110.3 247.24 114.18 223.6 135.49 224.64 156.8 225.68 208.75 255.55 211.87 255.55 214.98 255.56 213.42 252.96 213.42 252.96Z" fill="#0A0B0C"/><path d="M363.3 150.06C363.3 150.06 350.36 158.47 302.93 185.27 255.5 212.08 216.89 229.15 216.89 251.15 216.89 273.15 213.4 304.08 214.31 304.08 215.22 304.08 243.99 314.39 241.24 324.24 238.49 334.09 260.84 357.02 263.82 363.89 266.8 370.76 275.09 360.67 277.61 360.67 280.13 360.67 280.08 367.21 281.22 367.21 282.37 367.21 319.79 353.29 323.68 345.27 327.57 337.25 369.36 343.88 395.83 317.41 422.29 290.94 444.91 254.57 436.66 205.54 428.42 156.51 363.3 150.06 363.3 150.06Z" fill="#CECBCD"/><path d="M436.67 205.55C428.42 156.52 363.3 150.06 363.3 150.06 363.3 150.06 356.13 154.72 332.89 168.16 351.16 202.13 363.98 237.32 356.02 258.64 326.91 336.62 265.41 313.44 218.6 273.23 212.9 291.95 219.91 297.93 218.49 305.53 226.59 308.7 243.37 316.61 241.24 324.25 238.49 334.1 260.84 357.03 263.82 363.9 266.8 370.77 275.09 360.68 277.61 360.68 280.13 360.68 280.08 367.22 281.22 367.22 282.37 367.22 319.79 353.3 323.68 345.28 327.57 337.26 369.36 343.89 395.83 317.42 422.3 290.95 444.91 254.58 436.67 205.55Z" fill="#CECBCD"/><path d="M219.24 221.75C219.24 221.75 217.1 201.43 204.5 148.27 191.9 95.11 146.54 60.29 106.22 70.37 65.9 80.45 78.27 94.2 80.1 94.2 81.93 94.2 95.68 69.91 141.05 97.41 186.42 124.91 200.62 156.44 207.5 191.99 214.38 227.54 219.24 221.75 219.24 221.75Z" fill="#0A0B0C"/><path d="M78.09 81.03C61.05 92.54 64.37 120.87 64.37 133.04 64.37 145.21 74.63 189.7 84.07 189.7 93.51 189.7 96.46 176.86 93.59 157.39 90.71 137.91 79.25 123.09 86.77 102.73 94.29 82.37 108.45 68.92 133.09 69.95 133.09 69.94 105.67 62.4 78.09 81.03Z" fill="#0A0B0C"/><path d="M279.44 200.97C275.32 196.85 244.84 187.64 216.89 200.01 188.94 212.38 177.71 244.5 180 254.58 180 254.58 190.54 245.65 190.54 249.08 190.54 252.52 181.6 266.49 182.75 285.97 183.9 305.45 191.46 316.9 195.81 310.49 200.16 304.07 197.64 289.18 200.16 282.77 202.68 276.35 206.12 272.92 207.03 278.42 207.95 283.92 207.78 341.37 219.24 341.37 230.7 341.37 216.16 310.23 223.54 287.55 230.91 264.87 225.02 290.22 226.97 292.17 228.92 294.12 232.47 267.65 244.38 262.84 256.3 258.03 279.44 200.97 279.44 200.97Z" fill="#0A0B0C"/><path d="M326.26 169.39C326.26 169.39 316.06 172.83 291.31 179.47 266.56 186.11 243.23 207.86 243.23 215.09 243.23 222.32 256.26 215.9 253.28 220.94 250.3 225.98 226.01 250.73 223.27 272.26 220.52 293.8 253.51 343.29 260.39 339.39 267.26 335.5 261.99 326.33 265.2 299.06 268.41 271.79 268.52 273.74 276.66 265.61 284.78 257.49 303.93 181.3 326.26 169.39Z" fill="#0A0B0C"/><g><path d="M397.29 60.95C397.29 60.95 382.67 70.03 369.45 56.81 356.23 43.59 369.56 27.04 380.56 29.33 391.56 31.62 390.41 37.58 392.25 33.22 394.08 28.87 384.02 29.89 381.92 20.6 376.41-3.76 404.2-3.72 408.78 6.36 413.36 16.44 411.8 30.63 418.44 28.8 425.08 26.97 418.03 22.11 422.72 17.41 427.42 12.71 433.95 12.37 433.95 20.39 433.95 28.41 436.53 25.37 439.72 22.18 442.91 18.99 456.58 22.4 450.62 52.7L397.29 60.95Z" fill="#A62F3A"/><path d="M458.22 55.01C454.57 50.05 447.52 44.76 434.01 44.76 408.58 44.76 404.54 53.19 392.17 82.06 379.8 110.93 342.26 151.39 319 158.74 295.74 166.09 320.34 178.98 325.15 178.98 329.96 178.98 331.57 182.19 331.57 182.19 331.57 182.19 333.15 186.2 328.64 206.82 324.12 227.44 340.27 240.31 340.27 235.25 340.27 230.19 344.05 208.14 349.89 208.14 355.73 208.14 343.7 240.84 346.45 248.75 349.2 256.65 353.67 233.28 360.88 226.07 368.1 218.85 362.26 265.94 365.35 274.87 368.44 283.8 376.35 245.31 381.5 250.47 386.66 255.63 369.81 279.63 376.35 282.58 382.88 285.53 398 261.81 398 251.16 398 240.51 401.78 263.41 400.06 276.7 398.34 289.99 412.43 269.67 415.18 256.97 417.93 244.28 423.28 294.02 430.84 294.02 438.4 294.02 455.39 232.6 457.11 195.14 458.83 157.68 449.21 95.47 449.21 93.75 449.21 92.43 456.78 87.44 460.27 75.8 460.63 74.64 461.44 59.38 458.22 55.01Z" fill="#E7E1DB"/><path d="M441.64 48.19C441.64 48.19 461.07 55.85 458.84 68.27 456.61 80.69 455.77 79.28 448.97 84.63 442.17 89.97 433.15 95.44 421.49 88.38 394.23 71.83 431.26 43.84 441.64 48.19Z" fill="#ECE0D0"/><g><path d="M445.14 58.81C445.14 64.22 440.75 68.61 435.34 68.61 429.93 68.61 425.54 64.22 425.54 58.81 425.54 53.4 429.93 49.01 435.34 49.01 440.76 49.02 445.14 53.4 445.14 58.81Z" fill="#283038"/><path d="M443.22 57.48C443.22 60.21 441.19 62.43 438.7 62.43 436.2 62.43 434.18 60.21 434.18 57.48 434.18 54.74 436.2 52.53 438.7 52.53 441.19 52.53 443.22 54.75 443.22 57.48Z" fill="#FFFFFF"/></g><path d="M446.42 63.43C444.18 63.47 421.28 90.37 433.98 123.42 439.76 138.48 460.39 137.91 463.14 131.03 465.89 124.16 458.67 121.06 460.22 117.45 461.77 113.84 461.94 126.73 469.67 122.61 477.4 118.48 483.14 98.08 469.22 91.72 455.3 85.36 459.9 82.27 459.9 78.72 459.9 75.17 454.29 63.28 446.42 63.43Z" fill="#A62F3A"/><path d="M459.02 66.23C459.02 66.23 469.01 71.75 477.57 71.75L465.44 76.18 455.33 73.28 452.7 69.72 459.02 66.23Z" fill="#58332E"/><path d="M456.65 77.2C456.65 77.2 459.72 79.06 466.02 78.68 472.33 78.29 475.92 74.14 477.56 71.76 477.56 71.76 463.66 76.86 455.75 70.96 455.75 70.95 454.3 75.2 456.65 77.2Z" fill="#CB964E"/><path d="M446.42 63.43C446.42 63.43 448.19 58.62 455.59 53.44 462.98 48.26 470.7 49.7 474.66 50.9 474.66 50.9 473.58 51.87 471.95 53.48 467.05 58.29 457.6 70.24 456.66 77.21 456.65 77.2 445.56 67.76 446.42 63.43Z" fill="#CB964E"/></g><path d="M232.83 204.99C208.05 206.64 202.12 235.69 196.79 232.62 195.83 232.07 195.5 230.85 196.05 229.9 196.12 229.78 195.5 230.68 199.46 225 208.05 214.67 219.4 204.7 232.83 204.99Z" fill="#255C61"/><path d="M398.38 107.17C377.23 156.24 339.65 168.46 338.27 159.48 337.65 155.4 342.67 155.57 341.38 155.66 365.75 153.94 387.11 128.3 398.38 107.17Z" fill="#E7E1DB"/><path d="M401.03 135.67C388.01 148 354.56 182.69 355.22 200.51 351.85 208.95 341.39 202.64 357.12 180.07 367.75 164.75 386.73 147.19 401.03 135.67Z" fill="#E7E1DB"/></g></g></svg>