<svg width="289.81" height="481.42" viewBox="0 0 289.81 481.42" xmlns="http://www.w3.org/2000/svg" xmlns:xlink="http://www.w3.org/1999/xlink" xml:space="preserve" overflow="hidden"><defs></defs><g><g><g><path d="M289.3 237.15C289.3 340.88 224.63 424.98 144.85 424.98 80.44 424.98 25.88 370.17 7.25 294.46 2.8 276.39 0.4 257.13 0.4 237.15 0.4 168.91 28.39 109.17 70.25 76.27 92.02 59.16 199.31 59.81 221.53 77.94 262.24 111.16 289.3 170.05 289.3 237.15Z" fill="#56101B"/><path d="M144.85 59.23C65.07 59.23 0.4 139.35 0.4 238.19 0.4 245.23 0.73 252.18 1.37 259.02 22.23 263.63 46.2 166.24 140.69 166.82 233.12 164.92 267.11 259.92 288.32 259.22 288.97 252.32 289.31 245.3 289.31 238.19 289.3 139.35 224.63 59.23 144.85 59.23Z" fill="#F4ECED"/><path d="M170.92 62.14C154.94 64.22 142.89 66.66 142.89 66.66 142.89 66.66 131.71 64.38 117.09 62.54 50.6 78.56 0.4 151.11 0.4 238.19 0.4 245.23 0.73 252.18 1.37 259.01 1.59 259.06 1.81 259.1 2.04 259.13 7.11 259.73 12.4 254.47 18.87 246.2 39.62 207.07 72.31 137.45 141.16 137.9 207.81 136.46 245.39 203.12 267.93 243.22 276.07 252.74 282.51 259.22 288.07 259.23L288.08 259.23C288.14 259.23 288.21 259.23 288.27 259.23 288.29 259.23 288.31 259.23 288.32 259.23 288.97 252.33 289.31 245.32 289.31 238.2 289.3 150.38 238.25 77.35 170.92 62.14Z" fill="#CFB7B4"/><path d="M63.3 48.46C88.17 40.67 144.85 52.21 144.85 52.21 144.85 52.21 210.12 37.64 235.43 49.32 295.58 77.09 290.91 260.51 288.31 259.22 270.16 250.19 234.92 121.46 143.11 123.44 54.55 122.86 21.69 243.25 1.46 260.67-2.87 264.4-1.55 68.78 63.3 48.46Z" fill="#FF9082"/><path d="M158.6 420.14C174.82 420.14 193.7 407.42 209.47 390.48 223.45 372.25 268.03 379.72 275.59 351.98 274.15 345.06 213.63 304.52 203.7 293.7 171.3 258.39 173.36 224.04 157.27 217.91 122.13 204.51 125.45 250.38 94.95 294.45 71.56 328.25 30.57 357.69 21.79 344.87 26.83 375.47 132.81 420.14 158.6 420.14Z" fill="#ED1C24"/><path d="M144.9 360.42C111.45 360.64 96.68 328.44 93.86 296 70.31 329.14 30.44 357.49 21.79 344.86 26.82 375.48 132.8 420.14 158.6 420.14 174.82 420.14 193.7 407.42 209.47 390.48 223.45 372.25 268.03 379.72 275.59 351.98 274.15 345.06 213.63 304.52 203.7 293.7 198.7 329.53 176.89 361.28 144.9 360.42Z" fill="#780207"/><path d="M144.9 243.15C144.9 243.15 118.16 350.43 149.98 427.35 149.98 427.35 141.44 371.98 139.97 352.95 138.22 330.15 144.9 243.15 144.9 243.15Z" fill="#780207"/><path d="M287.88 258.33C266.67 268.67 234.92 394.67 143.11 392.69 54.12 393.26 21.91 276.29 1.46 260.03-2.21 257.11 10.83 384.44 33.55 420.14 59.3 460.59 71.73 481.43 152.23 481.43 226.2 481.43 242.12 462.38 263.25 429.3 294.53 380.31 290.91 256.85 287.88 258.33Z" fill="#FF9082"/></g><g opacity="0.33"><path d="M237.89 73.27C237.89 73.27 255.75 112.49 214.67 133.3 214.67 133.3 235.06 119.96 237.89 73.27Z" fill="#FF9082"/><path d="M195.83 61.6C195.83 61.6 219.83 97.39 182.69 124.61 182.69 124.61 200.63 108.13 195.83 61.6Z" fill="#FF9082"/><path d="M66.03 68.93C66.03 68.93 48.17 108.15 89.25 128.96 89.25 128.96 68.86 115.61 66.03 68.93Z" fill="#FF9082"/><path d="M108.09 57.26C108.09 57.26 84.09 93.05 121.23 120.27 121.23 120.27 103.29 103.78 108.09 57.26Z" fill="#FF9082"/><path d="M129.77 408.37 129.77 473.49C129.77 473.49 139.5 448.12 129.77 408.37Z" fill="#FF9082"/><path d="M161.91 407.03C161.91 407.03 166.77 454.68 160.64 470.96 160.64 470.96 173.33 443.74 161.91 407.03Z" fill="#FF9082"/></g></g><g><path d="M110.86 3.75C124.52 25.41 157.98 28.39 174.99 9.06 177.14 6.62 173.56 3.01 171.4 5.47 156.61 22.27 127.26 20.25 115.24 1.19 113.5-1.57 109.11 0.97 110.86 3.75L110.86 3.75Z" fill="#410C14"/></g></g></svg>