<svg width="536.65" height="536.65" viewBox="0 0 536.65 536.65" xmlns="http://www.w3.org/2000/svg" xmlns:xlink="http://www.w3.org/1999/xlink" xml:space="preserve" overflow="hidden"><defs></defs><g id="water_x5F_block_1_"><linearGradient x1="268.327" y1="524.035" x2="268.327" y2="12.6191" gradientUnits="userSpaceOnUse" id="SVGID_1_"><stop offset="0" stop-color="#0091B4"/><stop offset="0.1385" stop-color="#1299BB"/><stop offset="0.4178" stop-color="#43AECD"/><stop offset="0.809" stop-color="#8FD0E9"/><stop offset="1" stop-color="#B7E2F8"/></linearGradient><circle cx="268.33" cy="268.33" r="255.71" fill="url(#SVGID_1_)"/><path d="M268.33 12.62C409.55 12.62 524.04 127.1 524.04 268.33 524.04 409.56 409.55 524.04 268.33 524.04 127.11 524.04 12.62 409.55 12.62 268.33 12.62 127.11 127.1 12.62 268.33 12.62M268.33 0C232.11 0 196.97 7.1 163.88 21.09 131.93 34.61 103.23 53.95 78.59 78.59 53.95 103.23 34.61 131.92 21.09 163.88 7.1 196.97 0 232.11 0 268.33 0 304.55 7.1 339.69 21.09 372.78 34.61 404.73 53.95 433.43 78.59 458.07 103.23 482.71 131.92 502.05 163.88 515.57 196.97 529.57 232.11 536.66 268.33 536.66 304.55 536.66 339.69 529.56 372.78 515.57 404.73 502.05 433.43 482.71 458.07 458.07 482.71 433.43 502.05 404.74 515.57 372.78 529.57 339.69 536.66 304.55 536.66 268.33 536.66 232.11 529.56 196.97 515.57 163.88 502.05 131.93 482.71 103.23 458.07 78.59 433.43 53.95 404.74 34.61 372.78 21.09 339.69 7.1 304.55 0 268.33 0L268.33 0Z" fill="#1A1A1A"/><path d="M268.33 412.92C149.56 412.92 49.14 334.41 16.09 226.46 13.84 240.09 12.62 254.06 12.62 268.33 12.62 409.55 127.11 524.04 268.33 524.04 409.55 524.04 524.04 409.56 524.04 268.33 524.04 254.06 522.82 240.09 520.57 226.46 487.51 334.4 387.1 412.92 268.33 412.92Z" fill="#1A1A1A" opacity="0.3"/><g><defs><filter id="Adobe_OpacityMaskFilter" x="10.62" y="13.82" width="511.42" height="511.42" filterUnits="userSpaceOnUse" primitiveUnits="userSpaceOnUse"><feFlood flood-color="#FFFFFF" result="back"/><feBlend in="SourceGraphic" in2="back" mode="normal"/></filter></defs><mask maskUnits="userSpaceOnUse" x="10.62" y="13.82" width="511.42" height="511.42" id="SVGID_2_"><g filter="url(#Adobe_OpacityMaskFilter)"><defs><filter id="Adobe_OpacityMaskFilter_1_" x="10.62" y="13.82" width="511.42" height="511.42" filterUnits="userSpaceOnUse" primitiveUnits="userSpaceOnUse"><feFlood flood-color="#FFFFFF" result="back"/><feBlend in="SourceGraphic" in2="back" mode="normal"/></filter></defs><mask maskUnits="userSpaceOnUse" x="10.62" y="13.82" width="511.42" height="511.42" id="SVGID_2_"><g filter="url(#Adobe_OpacityMaskFilter_1_)"></g></mask><radialGradient cx="266.327" cy="269.526" r="255.708" gradientUnits="userSpaceOnUse" id="SVGID_3_"><stop offset="0.5893"/><stop offset="0.6558" stop-color="#030303"/><stop offset="0.7094" stop-color="#0D0D0D"/><stop offset="0.7584" stop-color="#1E1E1E"/><stop offset="0.8048" stop-color="#363636"/><stop offset="0.8493" stop-color="#555555"/><stop offset="0.8924" stop-color="#7B7B7B"/><stop offset="0.9343" stop-color="#A8A8A8"/><stop offset="0.9743" stop-color="#DADADA"/><stop offset="1" stop-color="#FFFFFF"/></radialGradient><circle cx="266.33" cy="269.53" r="255.71" fill="url(#SVGID_3_)" mask="url(#SVGID_2_)"/></g></mask><radialGradient cx="266.327" cy="269.526" r="255.708" gradientUnits="userSpaceOnUse" id="SVGID_4_"><stop offset="0.5893" stop-color="#FFFFFF"/><stop offset="0.9634" stop-color="#FFFFFF"/><stop offset="1" stop-color="#FFFFFF"/></radialGradient><circle cx="266.33" cy="269.53" r="255.71" fill="url(#SVGID_4_)" opacity="0.5"/><path d="M266.33 22.5C406.1 22.5 519.6 134.65 521.93 273.87 521.95 272.42 522.04 270.98 522.04 269.53 522.04 128.31 407.56 13.82 266.33 13.82 125.1 13.82 10.62 128.3 10.62 269.53 10.62 270.99 10.7 272.42 10.73 273.87 13.06 134.66 126.56 22.5 266.33 22.5Z" fill="#FFFFFF" opacity="0.5"/><path d="M266.33 510.18C127.63 510.18 14.8 399.73 10.81 262 10.74 264.51 10.62 267 10.62 269.53 10.62 410.75 125.1 525.24 266.33 525.24 407.56 525.24 522.04 410.76 522.04 269.53 522.04 267.01 521.92 264.51 521.85 262 517.85 399.73 405.03 510.18 266.33 510.18Z" fill="#BEFFFC" opacity="0.5"/><ellipse cx="137.82" cy="140.18" rx="68.66" ry="29.31" fill="#FFFFFF" transform="matrix(0.7071 -0.7071 0.7071 0.7071 -58.758 138.514)"/><ellipse cx="220.05" cy="83.6" rx="14.25" ry="14.25" fill="#FFFFFF" transform="matrix(0.5369 -0.8436 0.8436 0.5369 31.3754 224.362)"/><ellipse cx="373.26" cy="423.37" rx="14.25" ry="14.25" fill="#FFFFFF" transform="matrix(0.7071 -0.7071 0.7071 0.7071 -190.042 387.933)"/><ellipse cx="401.09" cy="402.27" rx="8.66" ry="8.66" fill="#FFFFFF" transform="matrix(0.7071 -0.7071 0.7071 0.7071 -166.974 401.434)"/></g></g></svg>