<svg width="71.71" height="57.17" viewBox="0 0 71.71 57.17" xmlns="http://www.w3.org/2000/svg" xmlns:xlink="http://www.w3.org/1999/xlink" xml:space="preserve" overflow="hidden"><defs></defs><g><path d="M0 6.92 32.48 5.01 32.48 55.26 0 57.17Z" fill="#634E42"/><path d="M71.71 6.92 39.23 5.01 39.23 55.26 71.71 57.17Z" fill="#634E42"/><path d="M39.54 55.26C37.22 56.49 34.76 56.48 32.17 55.26L32.17 3.76 39.54 3.76 39.54 55.26Z" fill="#936037"/><path d="M35.85 55.68C24.82 51.45 12.53 51.45 1.5 55.68 1.5 38.8 1.5 21.93 1.5 5.05 12.53 0.82 24.82 0.82 35.85 5.05 35.85 21.93 35.85 38.8 35.85 55.68Z" fill="#A8A8A8"/><path d="M70.21 55.68C59.18 51.45 46.89 51.45 35.86 55.68 35.86 38.8 35.86 21.93 35.86 5.05 46.89 0.82 59.18 0.82 70.21 5.05 70.21 21.93 70.21 38.8 70.21 55.68Z" fill="#BBBBBB"/><path d="M35.85 54.8C24.99 50.57 12.91 50.57 2.05 54.8 2.05 37.92 2.05 21.05 2.05 4.17 12.91-0.06 24.99-0.06 35.85 4.17 35.85 21.05 35.85 37.93 35.85 54.8Z" fill="#C2C2C2"/><path d="M69.65 54.8C58.79 50.57 46.71 50.57 35.85 54.8 35.85 37.92 35.85 21.05 35.85 4.17 46.71-0.06 58.79-0.06 69.65 4.17 69.65 21.05 69.65 37.93 69.65 54.8Z" fill="#D5D5D5"/><g><g><path d="M35.85 53.8C25.16 49.57 13.25 49.57 2.55 53.8 2.55 36.92 2.55 20.05 2.55 3.17 13.25-1.06 25.15-1.06 35.85 3.17 35.85 20.05 35.85 36.93 35.85 53.8Z" fill="#DADADA"/><path d="M32.47 8.49C24.07 5.91 15.09 5.84 6.66 8.28 6.66 7.84 6.66 7.39 6.66 6.95 15.1 4.51 24.07 4.58 32.47 7.16 32.47 7.6 32.47 8.04 32.47 8.49Z" fill="#485678"/><path d="M18.97 11.44C14.82 11.46 10.68 12.05 6.65 13.21 6.65 12.77 6.65 12.32 6.65 11.88 10.67 10.72 14.82 10.13 18.97 10.11 18.97 10.55 18.97 11 18.97 11.44Z" fill="#485678"/><path d="M32.47 13.43C29.27 12.45 25.99 11.83 22.69 11.58 22.69 11.14 22.69 10.69 22.69 10.25 25.99 10.51 29.27 11.12 32.47 12.1 32.47 12.54 32.47 12.99 32.47 13.43Z" fill="#485678"/><path d="M25.64 16.84C19.31 15.93 12.84 16.37 6.66 18.16 6.66 17.72 6.66 17.27 6.66 16.83 12.84 15.04 19.32 14.61 25.64 15.51 25.64 15.96 25.64 16.4 25.64 16.84Z" fill="#485678"/><path d="M29.16 22.44C21.74 20.77 14 20.99 6.66 23.11 6.66 22.67 6.66 22.22 6.66 21.78 14 19.66 21.74 19.44 29.16 21.11 29.16 21.55 29.16 21.99 29.16 22.44Z" fill="#485678"/><path d="M32.47 28.26C24.07 25.68 15.09 25.61 6.66 28.05 6.66 27.61 6.66 27.16 6.66 26.72 15.1 24.28 24.07 24.35 32.47 26.93 32.47 27.37 32.47 27.81 32.47 28.26Z" fill="#485678"/><path d="M16.09 31.32C12.91 31.54 9.74 32.1 6.65 32.99 6.65 32.55 6.65 32.1 6.65 31.66 9.74 30.77 12.91 30.21 16.09 29.99 16.09 30.43 16.09 30.87 16.09 31.32Z" fill="#485678"/><path d="M32.47 38.14C24.07 35.56 15.09 35.49 6.66 37.93 6.66 37.49 6.66 37.04 6.66 36.6 15.1 34.16 24.07 34.23 32.47 36.81 32.47 37.25 32.47 37.7 32.47 38.14Z" fill="#485678"/><path d="M32.47 43.09C24.07 40.51 15.09 40.44 6.66 42.88 6.66 42.44 6.66 41.99 6.66 41.55 15.1 39.11 24.07 39.18 32.47 41.76 32.47 42.2 32.47 42.64 32.47 43.09Z" fill="#485678"/><path d="M32.47 48.03C24.07 45.45 15.09 45.38 6.66 47.82 6.66 47.38 6.66 46.93 6.66 46.49 15.1 44.05 24.07 44.12 32.47 46.7 32.47 47.14 32.47 47.58 32.47 48.03Z" fill="#485678"/></g><g><path d="M69.15 53.8C58.46 49.57 46.55 49.57 35.85 53.8 35.85 36.92 35.85 20.05 35.85 3.17 46.55-1.06 58.45-1.06 69.15 3.17 69.15 20.05 69.15 36.93 69.15 53.8Z" fill="#EDEDED"/><path d="M65.77 8.49C57.37 5.91 48.39 5.84 39.96 8.28 39.96 7.84 39.96 7.39 39.96 6.95 48.4 4.51 57.37 4.58 65.77 7.16 65.77 7.6 65.77 8.04 65.77 8.49Z" fill="#485678"/><path d="M58.93 11.9C52.6 10.99 46.13 11.43 39.95 13.22 39.95 12.78 39.95 12.33 39.95 11.89 46.13 10.1 52.61 9.67 58.93 10.57 58.93 11.01 58.93 11.46 58.93 11.9Z" fill="#485678"/><path d="M65.77 13.43C62.57 12.45 59.29 11.83 55.99 11.58 55.99 11.14 55.99 10.69 55.99 10.25 59.29 10.51 62.57 11.12 65.77 12.1 65.77 12.54 65.77 12.99 65.77 13.43Z" fill="#485678"/><path d="M65.77 18.37C57.37 15.79 48.39 15.72 39.96 18.16 39.96 17.72 39.96 17.27 39.96 16.83 48.4 14.39 57.37 14.46 65.77 17.04 65.77 17.48 65.77 17.93 65.77 18.37Z" fill="#485678"/><path d="M58.93 21.79C54.75 21.19 50.5 21.18 46.31 21.76 46.31 21.32 46.31 20.87 46.31 20.43 50.5 19.85 54.75 19.86 58.93 20.46 58.93 20.9 58.93 21.34 58.93 21.79Z" fill="#485678"/><path d="M65.77 28.26C57.37 25.68 48.39 25.61 39.96 28.05 39.96 27.61 39.96 27.16 39.96 26.72 48.4 24.28 57.37 24.35 65.77 26.93 65.77 27.37 65.77 27.81 65.77 28.26Z" fill="#485678"/><path d="M65.77 33.2C57.37 30.62 48.39 30.55 39.96 32.99 39.96 32.55 39.96 32.1 39.96 31.66 48.4 29.22 57.37 29.29 65.77 31.87 65.77 32.31 65.77 32.76 65.77 33.2Z" fill="#485678"/><path d="M58.04 36.49C52 35.74 45.85 36.22 39.95 37.92 39.95 37.48 39.95 37.03 39.95 36.59 45.84 34.89 52 34.41 58.04 35.16 58.04 35.61 58.04 36.05 58.04 36.49Z" fill="#485678"/><path d="M65.77 43.09C57.37 40.51 48.39 40.44 39.96 42.88 39.96 42.44 39.96 41.99 39.96 41.55 48.4 39.11 57.37 39.18 65.77 41.76 65.77 42.2 65.77 42.64 65.77 43.09Z" fill="#485678"/><path d="M52.5 46.04C48.28 46.04 44.05 46.63 39.95 47.82 39.95 47.38 39.95 46.93 39.95 46.49 44.05 45.31 48.27 44.71 52.5 44.71 52.5 45.15 52.5 45.59 52.5 46.04Z" fill="#485678"/></g></g></g></svg>