<svg width="521.31" height="355.6" viewBox="0 0 521.31 355.6" xmlns="http://www.w3.org/2000/svg" xmlns:xlink="http://www.w3.org/1999/xlink" xml:space="preserve" overflow="hidden"><defs></defs><g><path d="M474.52 79.62C483.76 112.65 469.31 168.28 430.88 217.6 393.08 266.57 331.29 309.22 260.66 308.15 190.03 309.22 128.24 266.56 90.44 217.6 52 168.28 37.55 112.65 46.8 79.62 68.05 12.7 160.71 34.28 260.66 31.15 360.61 34.29 453.27 12.71 474.52 79.62Z" fill="#731624"/><g><path d="M377.05 225.14C377.05 225.14 133.21 225.14 132.92 225.14 132.34 225.14 128.39 199.48 127.72 196.94 123.51 180.95 120.35 161.71 129.57 147.23 136.38 136.55 146.79 128.48 157.64 122.23 187.12 105.25 222.85 99.33 256.47 99.33 298.66 99.33 402.71 115.86 387.56 179.51 383.94 194.76 380.44 209.85 377.05 225.14Z" fill="#8F4550" opacity="0.54"/><path d="M349.59 225.14 163.36 225.14 167.34 166.01C169.85 128.63 209.02 99.33 256.48 99.33L256.48 99.33C303.94 99.33 343.11 128.62 345.62 166.01L349.59 225.14Z" fill="#56101B"/><path d="M279.84 132.06C278.83 129.12 277.12 126.26 275.27 123.84 272.74 120.52 269.78 117.03 269.19 113.06 268.29 106.95 274.45 100.23 274.32 94.08L245.9 94.08C245.77 100.24 253.9 106.38 253 112.49 252.46 116.13 249.51 119.32 246.97 122.22 245.23 124.2 243.33 126.09 241.91 128.24 238.41 133.56 238.31 141.18 244.13 145.42 248.17 148.36 253.79 149.69 259.13 149.9 264.51 150.11 270.26 149.23 274.73 146.69 281.15 143.03 281.68 137.42 279.84 132.06Z" fill="#731624"/><path d="M248.56 124.76C243.28 135.31 247.23 140.59 256.71 141.16 260.05 141.36 259.75 146.42 256.41 146.21 256.09 146.19 255.73 146.08 255.9 146.13 247.69 143.98 242.12 138.81 245.22 130.44 246.04 128.34 247.24 126.48 248.56 124.76Z" fill="#C7A2A7"/></g><path d="M474.52 79.62C453.27 12.7 360.61 34.28 260.66 31.15 160.71 34.29 68.04 12.71 46.8 79.62 43.99 89.65 43.37 101.76 44.94 115.15 101.91 86.11 134.38 95.71 190.21 88.48 190.21 88.48 254.75 92.53 256.45 81.02L256.46 81.02C256.67 81.3 259.86 85.29 269.92 85.97 280.32 86.67 313.2 84.22 313.38 84.2 313.63 84.24 313.89 84.27 314.14 84.31 379.6 93.76 419.89 89.16 477.11 105.98 477.54 96.22 476.67 87.31 474.52 79.62Z" fill="#F4ECED"/><path d="M448.35 98.93C457.57 100.75 467.08 103.04 477.12 105.99 477.54 96.22 476.67 87.31 474.52 79.62 453.27 12.7 360.61 34.28 260.66 31.15 160.71 34.29 68.04 12.71 46.8 79.62 44.16 89.05 43.45 100.33 44.69 112.77 45.75 113.12 46.75 113.46 47.69 113.77 53.95 110.67 59.91 108.04 65.65 105.81 102.85 66.68 179.67 67.74 261.06 64.94 337.37 67.56 409.19 66.79 448.35 98.93Z" fill="#CFB7B4"/><path d="M394.74 228.18C382.35 219.01 368.52 211.19 354.97 203.93 314.91 182.47 298.75 183.1 257.81 192.31 255.74 192.78 217.03 176.28 165.18 198.36 152.17 203.9 115 214.15 117.15 233.26 121.65 273.15 265.13 295.57 265.13 295.57 265.13 295.57 404.09 250.84 394.74 228.18Z" fill="#ED1C24"/><path d="M256.67 257.94C163.39 260.57 112.61 176.06 60.08 167.44 67.56 184.15 77.68 201.22 90.44 217.59 128.24 266.56 190.03 309.22 260.66 308.15 331.29 309.22 393.08 266.56 430.88 217.6 443.28 201.69 453.18 185.13 460.59 168.88 392.39 175.69 354.01 260.69 256.67 257.94Z" fill="#F4ECED"/><path d="M442.85 193.08C402.49 242.05 335.75 292.42 260.33 291.35 184.91 292.42 119.67 242.05 79.31 193.08 72.34 184.7 66.1 176.14 60.61 167.54 60.43 167.51 60.25 167.48 60.08 167.45 67.56 184.16 77.68 201.23 90.44 217.6 128.24 266.57 190.03 309.23 260.66 308.16 331.29 309.23 393.08 266.57 430.88 217.61 443.14 201.88 452.96 185.5 460.35 169.42 455.15 177.38 449.32 185.31 442.85 193.08Z" fill="#CFB7B4"/><path d="M257.24 260.17 252.68 301.92 260.66 301.92Z" fill="#CFB7B4"/><path d="M309.95 249.91 322.64 290.93 328.98 288.39Z" fill="#CFB7B4"/><path d="M200.43 249.91 185.63 281.62 189.86 281.62Z" fill="#CFB7B4"/><path d="M174.21 51.59 189.01 84.99 181.61 48.21Z" fill="#CFB7B4"/><path d="M252.68 45.25 256.13 76.54 260.21 43.55Z" fill="#CFB7B4"/><path d="M321.42 56.22 314.44 83.71 328.82 56.22Z" fill="#CFB7B4"/><path d="M261.06 59.2C360.96 62.33 453.18 60.16 474.49 126.95 478.13 108.87 478.13 92.52 474.52 79.62 453.27 12.71 358.31 3.13 258.36 0 158.41 3.13 68.04 12.71 46.8 79.62 43.19 92.52 43.19 108.87 46.83 126.95 68.13 60.16 161.16 62.33 261.06 59.2Z" fill="#FF9082"/><path d="M474.49 126.95C468.82 155.15 454.3 187.54 430.88 217.6 393.08 266.57 327.3 299.61 256.67 298.54 186.04 299.61 128.24 266.57 90.44 217.6 67.02 187.55 52.5 155.15 46.83 126.95 46.82 126.98 46.81 127.02 46.8 127.05 37.56 160.08 52.01 215.71 90.44 265.03 128.24 314 190.03 356.65 260.66 355.58 331.29 356.65 393.08 313.99 430.88 265.03 469.32 215.71 483.77 160.08 474.52 127.05 474.51 127.02 474.5 126.99 474.49 126.95Z" fill="#FF9082"/></g><g><path d="M23.91 37.3C18.02 30.49 11.04 54.24 9.56 58.93-2.57 97.26-3.76 140.69 9.46 183.43 10.42 186.54 15.32 185.21 14.35 182.08-8.89 106.91 20.2 45.74 21.67 43.08 23.53 39.72 24.93 38.47 23.91 37.3Z" fill="#410C14"/></g><g><path d="M501.09 59.58C512.88 95 517.84 132.03 515.78 169.31 515.6 172.57 520.67 172.56 520.85 169.31 522.93 131.61 517.9 94.05 505.97 58.23 504.95 55.14 500.05 56.47 501.09 59.58L501.09 59.58Z" fill="#410C14"/></g></svg>