<svg width="160.36" height="132.83" viewBox="0 0 160.36 132.83" xmlns="http://www.w3.org/2000/svg" xmlns:xlink="http://www.w3.org/1999/xlink" xml:space="preserve" overflow="hidden"><defs></defs><g><g id="XMLID_1_"><g><path d="M157.14 45.97C157.14 45.97 155.96 45.59 153.24 44.74L153.22 44.74 126.34 119.42 123.4 127.61C123.4 127.61 109.58 122.95 97.17 115.45 84.74 107.95 65.2 108.08 65.2 108.08 65.2 108.08 60.41 99.23 39.28 96.5 22.1 94.3 5.18 86.94 5.18 86.94L28.33 4.98C25.84 4.2 23.2 5.61 22.5 8.11L0.18 86.62C-0.51 89.01 0.81 91.49 3.16 92.26L63.81 112.34 122.08 131.62 125.02 132.6C127.37 133.39 129.91 132.17 130.78 129.84L160.06 52C160.99 49.53 159.66 46.78 157.14 45.97Z" fill="#518E88"/><path d="M28.33 4.98C28.33 4.98 29.75 5.43 33.3 6.57L10.96 82.78C10.96 82.78 27.34 87.47 44.03 88.17 58.47 88.78 69.03 99.62 69.03 99.62 69.03 99.62 86.83 96.93 99.08 105.39 114.38 115.98 126.35 119.4 126.35 119.4L123.41 127.59C123.41 127.59 109.59 122.93 97.18 115.43 84.75 107.93 65.21 108.06 65.21 108.06 65.21 108.06 60.42 99.21 39.29 96.48 22.11 94.28 5.19 86.92 5.19 86.92L28.33 4.98Z" fill="#C9DBF0"/><path d="M64.53 2.98C83.23 2.62 96.67 16.13 96.67 16.13L69.03 99.62C69.03 99.62 58.46 88.77 44.03 88.17 27.33 87.46 10.96 82.78 10.96 82.78L33.3 6.57 35.22 0C35.22 0 49.08 3.27 64.53 2.98Z" fill="#F0F5F7"/><path d="M156.2 36.51 153.23 44.73 126.35 119.41C126.35 119.41 114.37 115.98 99.08 105.4 86.82 96.94 69.03 99.63 69.03 99.63L96.67 16.14C96.67 16.14 113.43 15.28 124.27 24.03 139.45 36.32 156.2 36.51 156.2 36.51Z" fill="#FFFFFF"/></g></g><g><line x1="105.62" y1="36.3" x2="134.6" y2="52.08" stroke="#C9DBF0" stroke-width="1.7113" stroke-linecap="round" stroke-linejoin="round" stroke-miterlimit="10" fill="none"/><line x1="103.82" y1="41.63" x2="132.92" y2="57.01" stroke="#C9DBF0" stroke-width="1.7113" stroke-linecap="round" stroke-linejoin="round" stroke-miterlimit="10" fill="none"/><line x1="102.44" y1="45.69" x2="131.41" y2="61.46" stroke="#C9DBF0" stroke-width="1.7113" stroke-linecap="round" stroke-linejoin="round" stroke-miterlimit="10" fill="none"/><line x1="100.63" y1="51.01" x2="129.74" y2="66.39" stroke="#C9DBF0" stroke-width="1.7113" stroke-linecap="round" stroke-linejoin="round" stroke-miterlimit="10" fill="none"/><line x1="97.4" y1="60.55" x2="126.37" y2="76.33" stroke="#C9DBF0" stroke-width="1.7113" stroke-linecap="round" stroke-linejoin="round" stroke-miterlimit="10" fill="none"/><line x1="95.59" y1="65.88" x2="124.7" y2="81.26" stroke="#C9DBF0" stroke-width="1.7113" stroke-linecap="round" stroke-linejoin="round" stroke-miterlimit="10" fill="none"/><line x1="46.17" y1="23.18" x2="77.72" y2="27.8" stroke="#C9DBF0" stroke-width="1.7113" stroke-linecap="round" stroke-linejoin="round" stroke-miterlimit="10" fill="none"/><line x1="44.32" y1="28.71" x2="76" y2="32.92" stroke="#C9DBF0" stroke-width="1.7113" stroke-linecap="round" stroke-linejoin="round" stroke-miterlimit="10" fill="none"/><line x1="42.91" y1="32.91" x2="74.45" y2="37.53" stroke="#C9DBF0" stroke-width="1.7113" stroke-linecap="round" stroke-linejoin="round" stroke-miterlimit="10" fill="none"/><line x1="41.05" y1="38.44" x2="72.74" y2="42.65" stroke="#C9DBF0" stroke-width="1.7113" stroke-linecap="round" stroke-linejoin="round" stroke-miterlimit="10" fill="none"/><line x1="37.73" y1="48.33" x2="69.28" y2="52.95" stroke="#C9DBF0" stroke-width="1.7113" stroke-linecap="round" stroke-linejoin="round" stroke-miterlimit="10" fill="none"/><line x1="35.88" y1="53.86" x2="67.56" y2="58.07" stroke="#C9DBF0" stroke-width="1.7113" stroke-linecap="round" stroke-linejoin="round" stroke-miterlimit="10" fill="none"/></g><path d="M31.22 25.65 35.95 9.51 37.6 3.86C37.6 3.86 49.53 6.67 62.83 6.43" stroke="#B4E2E7" stroke-width="0.8927" stroke-linecap="round" stroke-miterlimit="10" fill="none"/></g></svg>