<svg width="478.37" height="375.09" viewBox="0 0 478.37 375.09" xmlns="http://www.w3.org/2000/svg" xmlns:xlink="http://www.w3.org/1999/xlink" xml:space="preserve" overflow="hidden"><defs></defs><g><g><path d="M2.89 246.05C-5.6 221.23 25.54 191.46 51.59 164.48 93.62 120.52 162.12 82.43 240.12 83.9 318.13 83.44 386.12 122.42 427.58 166.93 453.27 194.25 482.13 223.82 475.21 249.13 470.73 265.54 348.89 332.03 238.48 334.13 128.12 330.58 8.55 262.57 2.89 246.05Z" fill="#2B080E"/><g><path d="M363.85 286.2C363.85 286.2 120.01 284.61 119.72 284.61 119.14 284.61 115.39 254.01 114.74 250.98 110.65 231.9 107.64 208.96 116.98 191.77 123.87 179.09 134.35 169.55 145.25 162.17 174.86 142.13 210.63 135.31 244.25 135.53 286.44 135.81 390.36 156.18 374.72 231.9 370.98 250.06 367.37 268 363.85 286.2Z" fill="#8F4550" opacity="0.54"/><path d="M336.4 286.02 150.17 284.81 154.61 214.39C157.42 169.87 196.81 135.23 244.27 135.54L244.27 135.54C291.73 135.85 330.67 171 332.89 215.56L336.4 286.02Z" fill="#56101B"/><path d="M267.37 174.67C266.39 171.17 264.69 167.74 262.87 164.84 260.37 160.86 257.43 156.69 256.88 151.95 256.03 144.67 262.24 136.7 262.16 129.37L233.74 129.18C233.56 136.52 241.65 143.89 240.7 151.16 240.14 155.49 237.16 159.28 234.59 162.71 232.84 165.05 230.92 167.3 229.48 169.85 225.93 176.16 225.78 185.24 231.57 190.33 235.59 193.86 241.2 195.48 246.54 195.76 251.91 196.05 257.68 195.03 262.17 192.04 268.6 187.75 269.17 181.07 267.37 174.67Z" fill="#731624"/><path d="M236.15 165.77C230.73 178.42 234.94 184.64 244.18 185.37 245.58 185.48 246.63 186.92 246.53 188.58 246.34 191.98 243.11 191.35 243.32 191.29 232.21 187.73 227.83 178.45 236.15 165.77Z" fill="#C7A2A7"/></g><path d="M105.6 150.4C117.93 159.65 131.71 167.56 145.22 174.91 185.14 196.63 201.3 196.11 242.31 187.17 244.38 186.72 282.98 203.47 334.97 181.72 348.02 176.26 385.25 166.26 383.22 147.13 378.98 107.21 235.65 83.85 235.65 83.85 235.65 83.85 96.4 127.68 105.6 150.4Z" fill="#ED1C24"/><path d="M51.6 164.48C45.07 171.25 39.16 178.15 33.86 185.1 71.92 198.99 146.57 193.07 225.75 194.81 321.03 193.96 409.62 204.11 436.29 176.7 433.53 173.43 430.63 170.17 427.6 166.94 399.13 136.38 358.15 108.42 310 94.05 283.37 94.36 254.9 94.97 225.88 94.04 206.34 94.41 187.05 94.09 168.42 93.64 120.82 107.52 80.12 134.65 51.6 164.48Z" fill="#F4ECED"/><path d="M223.77 94.07C223.34 94.08 222.92 94.08 222.49 94.09 222.35 94.09 222.2 94.09 222.06 94.1 221.52 94.11 220.99 94.12 220.45 94.12 220.35 94.12 220.24 94.12 220.14 94.12 219.69 94.13 219.24 94.13 218.79 94.14 218.63 94.14 218.47 94.14 218.32 94.14 217.88 94.14 217.45 94.15 217.01 94.15 216.88 94.15 216.75 94.15 216.63 94.15 216.1 94.15 215.57 94.16 215.04 94.16 214.9 94.16 214.77 94.16 214.63 94.16 214.18 94.16 213.73 94.16 213.28 94.17 213.17 94.17 213.07 94.17 212.96 94.17 212.44 94.17 211.92 94.17 211.41 94.18 211.36 94.18 211.3 94.18 211.25 94.18 210.71 94.18 210.16 94.18 209.62 94.18 209.49 94.18 209.35 94.18 209.22 94.18 208.78 94.18 208.33 94.18 207.89 94.18 207.77 94.18 207.65 94.18 207.53 94.18 206.99 94.18 206.44 94.18 205.9 94.18 205.8 94.18 205.71 94.18 205.61 94.18 205.17 94.18 204.72 94.18 204.28 94.18 204.1 94.18 203.91 94.18 203.73 94.18 203.34 94.18 202.96 94.18 202.58 94.18 202.41 94.18 202.25 94.18 202.08 94.18 201.53 94.18 200.98 94.17 200.43 94.17L200.41 94.17C199.88 94.17 199.35 94.16 198.82 94.16 198.68 94.16 198.55 94.16 198.41 94.16 198 94.16 197.59 94.15 197.18 94.15 197.02 94.15 196.86 94.15 196.7 94.15 196.2 94.15 195.71 94.14 195.21 94.14 194.99 94.14 194.78 94.14 194.56 94.13 194.25 94.13 193.94 94.12 193.62 94.12 193.4 94.12 193.19 94.12 192.97 94.11 192.48 94.1 191.99 94.1 191.51 94.09 191.48 94.09 191.45 94.09 191.42 94.09 190.86 94.08 190.31 94.08 189.75 94.07 189.64 94.07 189.53 94.07 189.41 94.07 189 94.06 188.6 94.06 188.19 94.05 188.02 94.05 187.85 94.05 187.68 94.04 187.25 94.03 186.81 94.03 186.38 94.02 186.13 94.02 185.89 94.01 185.65 94.01 185.26 94 184.87 94 184.48 93.99 184.34 93.99 184.2 93.99 184.06 93.98 183.69 93.97 183.32 93.97 182.95 93.96 182.74 93.96 182.53 93.95 182.31 93.95 181.82 93.94 181.33 93.93 180.83 93.92 180.71 93.92 180.59 93.92 180.47 93.91 180.03 93.9 179.6 93.89 179.16 93.88 179.04 93.88 178.91 93.88 178.79 93.87 178.4 93.86 178 93.85 177.61 93.85 177.34 93.84 177.07 93.84 176.8 93.83 176.42 93.82 176.03 93.81 175.65 93.81 175.45 93.81 175.25 93.8 175.05 93.8 174.71 93.79 174.37 93.78 174.04 93.78 173.83 93.78 173.62 93.77 173.41 93.77 173.04 93.76 172.68 93.75 172.31 93.75 171.84 93.74 171.37 93.73 170.91 93.72 170.82 93.72 170.73 93.72 170.64 93.71 170.3 93.7 169.97 93.69 169.63 93.68 169.3 93.67 168.96 93.66 168.63 93.66 168.56 93.66 168.49 93.66 168.41 93.65 131.67 104.38 99.03 123 72.93 144.65 115.45 137.22 169.21 137.36 225.15 136.29 301.69 138.75 374.58 138.88 419.78 158.94 391.85 131.56 353.9 107.16 309.99 94.06 309.95 94.06 309.91 94.06 309.86 94.06 309.08 94.07 308.3 94.08 307.51 94.09 307.49 94.09 307.47 94.09 307.45 94.09 306.76 94.1 306.06 94.11 305.37 94.12 305.15 94.12 304.93 94.12 304.7 94.13 303.45 94.15 302.2 94.16 300.94 94.18 299.98 94.19 299.01 94.21 298.04 94.22 297.51 94.23 296.98 94.23 296.45 94.24 296.03 94.25 295.61 94.25 295.2 94.26 294.95 94.26 294.7 94.27 294.46 94.27 293.89 94.28 293.33 94.29 292.76 94.29 292.43 94.29 292.09 94.3 291.75 94.3 290.29 94.32 288.83 94.34 287.36 94.36 287.2 94.36 287.04 94.36 286.88 94.37 286.13 94.38 285.39 94.39 284.64 94.4 284.58 94.4 284.51 94.4 284.45 94.4 283.67 94.41 282.88 94.42 282.09 94.43 282 94.43 281.91 94.43 281.82 94.43 281.03 94.44 280.24 94.45 279.45 94.45 279.38 94.45 279.31 94.45 279.24 94.45 278.52 94.46 277.79 94.46 277.07 94.47 276.88 94.47 276.69 94.47 276.5 94.47 275.74 94.48 274.97 94.48 274.21 94.49 274.15 94.49 274.1 94.49 274.04 94.49 273.18 94.5 272.33 94.5 271.47 94.51 271.47 94.51 271.46 94.51 271.46 94.51 270.63 94.52 269.8 94.52 268.96 94.53 268.89 94.53 268.82 94.53 268.75 94.53 267.95 94.53 267.14 94.54 266.34 94.54 266.26 94.54 266.19 94.54 266.11 94.54 265.29 94.54 264.48 94.55 263.66 94.55 263.6 94.55 263.53 94.55 263.47 94.55 262.62 94.55 261.76 94.55 260.91 94.55 260.9 94.55 260.89 94.55 260.87 94.55 260.02 94.55 259.18 94.55 258.33 94.55L258.17 94.55C257.33 94.55 256.49 94.55 255.64 94.54 255.6 94.54 255.55 94.54 255.51 94.54 254.68 94.54 253.84 94.53 253.01 94.53 252.95 94.53 252.88 94.53 252.82 94.53 251.98 94.53 251.13 94.52 250.29 94.51 250.25 94.51 250.2 94.51 250.16 94.51 249.31 94.5 248.46 94.5 247.61 94.49 247.56 94.49 247.51 94.49 247.46 94.49 246.6 94.48 245.74 94.47 244.88 94.46 244.85 94.46 244.81 94.46 244.78 94.46 243.04 94.44 241.3 94.41 239.55 94.38 239.48 94.38 239.42 94.38 239.35 94.38 237.59 94.35 235.83 94.31 234.07 94.27 234.04 94.27 234 94.27 233.97 94.27 233.08 94.25 232.19 94.23 231.3 94.21 231.29 94.21 231.28 94.21 231.28 94.21 229.47 94.16 227.66 94.11 225.85 94.05 225.3 94.06 224.75 94.07 224.2 94.08 224.07 94.06 223.92 94.06 223.77 94.07Z" fill="#CFB7B4"/><path d="M229.18 189.89 225.63 129.76 234.59 129.82Z" fill="#CFB7B4"/><path d="M310.05 130.32 305.74 187.23 320.2 130.38Z" fill="#CFB7B4"/><path d="M151.91 129.28 159.44 183.75 143.45 129.23Z" fill="#CFB7B4"/><path d="M25.66 255.8C16.31 271.98 30.58 299.42 68.86 323.92 73.36 326.83 78.21 329.7 83.38 332.49 126.36 336.45 181.37 332.3 238.49 334.13 296.2 333.03 351.67 338.01 394.88 334.41 400 331.72 404.82 328.95 409.29 326.14 447.89 302.14 462.51 274.89 453.38 258.59 432.35 225.55 339.62 235.56 239.68 233.37 139.72 234.25 47.13 223.04 25.66 255.8Z" fill="#F4ECED"/><path d="M24.68 257.73C17.45 274.1 32.06 300.37 68.86 323.92 73.36 326.83 78.21 329.7 83.38 332.49 126.36 336.45 181.37 332.3 238.49 334.13 296.2 333.03 351.67 338.01 394.88 334.41 400 331.72 404.82 328.95 409.29 326.14 446.89 302.76 461.74 276.3 454.04 259.88 412.63 291.58 327.99 290.17 238.32 291.88 149.29 289.02 65.76 289.31 24.68 257.73Z" fill="#CFB7B4"/><path d="M243.06 238.32 238.72 298.39 247.68 298.45Z" fill="#CFB7B4"/><path d="M323.14 298.95 319.57 241.98 333.29 299.01Z" fill="#CFB7B4"/><path d="M165 297.91 173.25 243.55 156.54 297.86Z" fill="#CFB7B4"/><path d="M475.43 248.53C404.73 301.09 348.56 306.69 238.21 308.79 127.89 305.25 93.95 296.16 2.7 245.47 5.39 262.56 66.23 375.08 240.76 375.08 414.67 369.24 473.48 268.04 475.43 248.53Z" fill="#FF9082"/><path d="M2.89 246.05C9.33 220.62 152.16 120.52 230.16 122 308.17 121.54 469.11 223.62 475.21 249.14 475.22 249.11 475.23 249.08 475.25 249.05 485.65 219.28 470.02 168.92 427.86 124.09 386.41 79.58 313.15 45.8 235.13 46.25 157.13 44.77 93.9 77.66 51.87 121.63 9.13 165.91-7.15 216.06 2.86 245.96 2.87 245.99 2.88 246.02 2.89 246.05Z" fill="#FF9082"/></g><g><path d="M197.4 5.07C214.83 18.68 236 12.27 254.71 5.07 257.73 3.91 256.42-1 253.36 0.18 236.82 6.55 216.71 13.76 200.99 1.49 198.44-0.5 194.83 3.07 197.4 5.07L197.4 5.07Z" fill="#410C14"/></g></g></svg>