<svg width="676.5" height="492.73" viewBox="0 0 676.5 492.73" xmlns="http://www.w3.org/2000/svg" xmlns:xlink="http://www.w3.org/1999/xlink" xml:space="preserve" overflow="hidden"><defs></defs><g><path d="M275.91 492.73C401.57 492.73 503.87 475.42 503.87 454 503.87 433.4 401.57 416.09 275.91 416.09 150.25 416.09 47.49 433.4 47.49 454 47.49 475.42 150.25 492.73 275.91 492.73L275.91 492.73Z" fill="#CCCCCC" fill-rule="evenodd" clip-rule="evenodd"/><path d="M1.51 352.1C0.74 347.12 0.36 341.75 0.74 335.62 3.81 306.88 6.49 277.76 9.17 248.64L9.17 248.64C11.85 260.52 22.58 271.25 43.27 278.53 109.56 301.14 178.92 324.13 241.38 347.12 254.03 351.72 265.14 357.47 272.8 364.36 273.18 364.74 273.95 365.51 274.33 365.89 294.64 382.75 308.43 447.13 277.01 458.62 265.9 462.45 242.52 454.4 226.43 448.66 173.93 431.8 112.62 411.11 58.59 390.8 40.59 383.9 5.34 372.79 1.51 352.1L1.51 352.1Z" fill="#DCDCDD" fill-rule="evenodd" clip-rule="evenodd"/><path d="M1.51 352.1C1.13 349.42 0.74 346.74 0.74 344.05 8.79 352.86 20.28 357.46 34.46 362.44 95.39 385.05 171.64 411.87 232.57 434.48 243.68 439.08 252.11 442.53 263.23 447.51 190.81 422.6 105.74 393.86 33.32 368.96 21.06 364.74 10.33 360.91 2.28 355.17 2.27 354.01 1.89 352.87 1.51 352.1L1.51 352.1ZM1.12 333.71 1.89 324.51C9.94 334.47 22.2 339.45 37.53 345.2 98.46 367.42 159.38 389.65 219.93 412.26 231.04 416.86 259.4 425.67 270.51 430.65 196.17 409.19 108.04 377.39 36.38 351.33 21.81 346.35 9.17 341.75 1.12 333.71L1.12 333.71ZM3.04 314.93 3.81 305.73C11.86 314.93 23.35 319.52 37.91 324.89 98.84 347.12 159.76 369.72 220.69 391.95 231.42 396.55 268.21 411.49 279.32 416.09 206.9 391.18 109.18 356.31 36.76 331.41 22.96 326.43 11.09 322.21 3.04 314.93L3.04 314.93ZM4.57 297.69 5.34 288.49C13.77 298.84 26.03 303.43 42.13 309.18 103.44 330.26 164.37 351.71 225.68 372.79 236.79 377.39 253.27 383.52 264.38 387.73 191.57 364.36 113.79 339.07 40.98 315.31 26.03 310.71 13 306.12 4.57 297.69L4.57 297.69ZM6.49 277.76 7.26 268.18C15.69 281.59 29.1 286.57 47.11 293.09 108.42 314.17 169.73 335.24 230.66 356.32 242.16 360.92 253.27 365.13 264.38 369.73 191.57 346.36 118.77 322.6 45.96 299.22 28.71 293.85 14.15 288.87 6.49 277.76L6.49 277.76Z" fill="#595757" fill-rule="evenodd" clip-rule="evenodd"/><path d="M588.55 201.89C610.39 222.2 620.74 284.66 583.95 307.27 496.97 360.53 407.68 403.45 320.7 456.71 285.83 478.17 262.46 473.95 225.29 461.31 157.08 438.32 76.23 409.96 14.54 389.27 2.28 385.06-6.15 370.88 5.73 361.3 14.93 374.71 33.7 381.23 49.41 386.59 93.48 402.3 202.69 443.68 252.88 455.56 316.87 470.89 292.35 383.14 274.34 365.89L280.09 363.21 588.55 201.89Z" fill="#005C34" fill-rule="evenodd" clip-rule="evenodd"/><path d="M588.55 201.89C610.39 222.2 620.74 284.66 583.95 307.27 529.15 340.99 473.59 370.11 418.03 400.77 452.9 372.03 501.18 331.8 531.07 296.93 575.52 244.82 550.23 235.62 519.19 238.3L588.55 201.89Z" fill="#005483" fill-rule="evenodd" clip-rule="evenodd"/><path d="M53.24 194.23C123.75 165.49 195.79 136.37 263.99 107.25 295.79 94.22 331.05 96.14 362.85 108.78 434.12 136.75 512.29 170.86 580.12 196.15 582.8 197.3 585.87 199.22 588.55 201.51L588.55 201.89 280.08 363.21 274.33 365.89C273.95 365.51 273.18 364.74 272.8 364.36 265.14 357.46 254.02 351.71 241.38 347.12 178.92 324.13 109.56 301.14 43.27 278.53-11.14 259.75 3.42 214.92 53.24 194.23L53.24 194.23Z" fill="#077A3C" fill-rule="evenodd" clip-rule="evenodd"/><path d="M116.85 168.17C166.66 147.86 216.48 127.55 263.99 107.24 295.79 94.21 331.05 96.13 362.85 108.77 434.12 136.74 512.29 170.85 580.12 196.14 582.8 197.29 585.87 199.21 588.55 201.5L588.55 201.88 280.08 363.21 274.33 365.89C273.95 365.51 273.18 364.74 272.8 364.36 265.14 357.46 254.02 351.71 241.38 347.12 232.57 343.67 223.37 340.61 214.17 337.16L116.85 168.17Z" fill="#005C34" fill-rule="evenodd" clip-rule="evenodd" opacity="0.69"/><path d="M310.36 98.43C328.37 98.43 346 101.88 362.86 108.78 434.13 136.75 512.3 170.86 580.13 196.15 582.81 197.3 585.88 199.22 588.56 201.51L588.56 201.89 384.69 308.42C405 281.21 428.37 233.32 416.88 206.49 396.96 161.27 355.57 123.72 310.36 98.43L310.36 98.43Z" fill="#0070B3" fill-rule="evenodd" clip-rule="evenodd"/><path d="M532.22 231.39C450.22 274.31 368.22 317.22 286.21 360.14 341.01 326.42 481.25 244.42 576.67 208.01 561.73 215.68 546.78 223.73 532.22 231.39L532.22 231.39Z" fill="#FEFEFE" fill-rule="evenodd" clip-rule="evenodd"/><path d="M135.24 90.38C137.92 85.78 140.99 81.57 145.59 77.73 166.67 57.8 187.74 37.5 208.82 17.57L208.82 17.57C203.07 28.3 204.22 43.24 214.95 62.02 250.2 122.95 287.37 185.79 319.18 244.03 325.69 255.91 330.29 267.4 331.44 277.75 331.82 278.52 331.82 279.28 331.82 280.05 336.04 306.11 303.85 363.59 272.81 351.71 262.08 347.5 249.44 325.65 241.39 311.09 212.65 263.57 180.08 208.01 152.87 157.05 143.67 140.2 124.51 108.39 135.24 90.38L135.24 90.38Z" fill="#DCDCDD" fill-rule="evenodd" clip-rule="evenodd"/><path d="M135.24 90.38C136.77 88.08 137.92 85.78 139.84 83.87 140.22 95.75 145.59 106.48 153.25 119.89 184.29 176.99 223.76 247.49 255.18 304.2 260.54 314.93 264.38 323.36 269.74 334.09 231.8 267.8 186.2 190.39 147.88 124.1 141.75 112.99 136 102.64 134.09 93.06 134.47 92.3 134.86 91.15 135.24 90.38L135.24 90.38ZM147.12 76.2 153.63 69.69C153.25 82.72 158.99 94.21 167.04 108.78 198.08 165.49 229.12 222.2 260.54 279.3 265.52 290.03 280.85 315.32 286.21 326.05 244.44 261.29 198.84 179.29 161.67 112.61 154.4 99.19 147.88 87.7 147.12 76.2L147.12 76.2ZM160.53 63.18 167.04 57.05C167.42 69.31 173.17 80.04 180.45 93.84 211.49 150.55 242.91 207.65 273.95 264.36 279.31 275.09 297.32 310.34 302.31 321.07 264.37 254.78 213.41 163.96 175.47 97.67 168.19 85.4 162.06 74.29 160.53 63.18L160.53 63.18ZM173.17 51.3 180.07 44.79C179.3 58.2 185.43 70.08 193.86 84.64 226.05 140.97 258.24 196.91 290.42 253.24 295.78 263.97 304.21 279.3 309.58 290.03 270.49 224.5 228.34 154.38 188.88 88.47 180.84 75.05 173.94 63.18 173.17 51.3L173.17 51.3ZM187.74 37.5 194.64 30.99C191.96 46.32 198.85 59.35 208.43 75.82 240.62 131.77 272.81 188.09 304.99 244.42 310.74 254.77 316.1 265.5 321.47 276.22 282.38 210.69 242.92 145.17 203.45 79.64 193.87 64.32 186.2 51.3 187.74 37.5L187.74 37.5Z" fill="#595757" fill-rule="evenodd" clip-rule="evenodd"/><path d="M676.3 362.83C679.37 392.72 646.03 446.36 603.49 439.47 502.71 422.61 407.3 395.79 306.9 378.93 266.67 372.42 251.72 353.64 231.8 319.54 195.78 257.85 153.25 182.74 120.29 126.8 113.78 115.69 117.22 99.59 132.17 99.98 130.64 116.07 140.22 133.32 148.65 147.88 171.64 188.5 226.44 291.58 256.33 333.34 294.65 387.37 334.12 304.6 331.82 280.08L337.57 282 676.3 362.83Z" fill="#0070B3" fill-rule="evenodd" clip-rule="evenodd"/><path d="M676.3 362.83C679.37 392.72 646.03 446.36 603.49 439.47 540.26 428.74 478.95 414.18 416.88 400.77 462.48 402.3 524.94 403.45 570.54 396.94 638.36 386.59 625.34 363.22 600.43 344.83L676.3 362.83Z" fill="#005483" fill-rule="evenodd" clip-rule="evenodd"/><path d="M277.78 5.7C349.82 29.84 423.4 55.51 493.9 78.5 526.47 89.23 551.76 114.14 567.47 144.41 602.72 212.23 639.13 289.26 673.61 353.25 675.14 355.93 675.91 359 676.29 362.83L676.29 362.83 337.55 281.98 331.8 280.06C331.8 279.29 331.8 278.53 331.42 277.76 330.27 267.41 325.67 255.92 319.16 244.04 287.36 185.8 250.19 122.95 214.93 62.03 186.2 12.59 226.44-11.93 277.78 5.7L277.78 5.7Z" fill="#039BE6" fill-rule="evenodd" clip-rule="evenodd"/><g opacity="0.68"><path d="M534.9 102.26C548.31 113.76 559.04 128.32 567.47 144.41 602.72 212.23 639.13 289.26 673.61 353.25 675.14 355.93 675.91 359 676.29 362.83L676.29 362.83 452.51 309.57C485.85 302.29 535.28 281.21 543.71 253.62 558.66 206.49 552.15 150.93 534.9 102.26L534.9 102.26Z" fill="#1665C1" fill-rule="evenodd" clip-rule="evenodd"/></g><path d="M614.22 348.27C524.55 326.43 434.51 304.97 344.46 283.51 408.07 293.86 567.48 324.51 663.27 359.76 646.79 355.93 630.7 352.1 614.22 348.27L614.22 348.27Z" fill="#FEFEFE" fill-rule="evenodd" clip-rule="evenodd"/><path d="M323 224.11C314.95 211.08 307.29 197.67 299.24 184.64 278.55 148.24 258.24 111.83 237.55 75.43 221.46 42.09 207.28 15.65 251.34 4.54 213.41 37.89 306.14 181.96 323 224.11L323 224.11Z" fill="#FEFEFE" fill-rule="evenodd" clip-rule="evenodd" opacity="0.74"/><path d="M71.25 268.18 183.14 306.12C185.44 306.89 186.97 309.57 186.21 312.25L186.21 312.25C185.06 314.93 182.38 316.08 179.7 315.32L68.18 277.38C65.5 276.61 63.96 273.55 65.11 271.25L65.11 271.25C65.88 268.56 68.56 267.41 71.25 268.18L71.25 268.18Z" fill="#FEFEFE" fill-rule="evenodd" clip-rule="evenodd" opacity="0.76"/><path d="M50.17 257.07C56.68 258.99 60.52 263.58 59.37 267.42 58.22 270.87 52.09 271.64 45.58 269.72 39.45 267.42 35.23 262.82 36.38 259.37 37.53 255.54 43.66 254.77 50.17 257.07L50.17 257.07Z" fill="#FEFEFE" fill-rule="evenodd" clip-rule="evenodd" opacity="0.76"/></g></svg>