<svg width="54.12" height="30.7" viewBox="0 0 54.12 30.7" xmlns="http://www.w3.org/2000/svg" xmlns:xlink="http://www.w3.org/1999/xlink" xml:space="preserve" overflow="hidden"><defs></defs><g><g><g><path d="M34.49 6.4 33.11 8.32 29.25 4.68 29.81 3.89Z" fill="#D20001"/><path d="M31.07 2.14 27.99 6.43C27.86 6.61 27.62 6.65 27.44 6.52L27.22 6.36C27.03 6.23 27 5.99 27.12 5.81L30.2 1.52C30.32 1.34 30.57 1.3 30.75 1.43L30.97 1.6C31.15 1.72 31.19 1.97 31.07 2.14Z" fill="#20B9E0"/></g><path d="M18.48 1.43 19.96 9.31C20.11 10.1 20.81 10.74 21.54 10.74L27.19 10.74C27.91 10.74 28.64 11.37 28.81 12.15L30.35 16.33 41.68 16.33 41.68 19.77 14.76 19.77 14.76 1.81C14.76 0.81 15.24 0 15.83 0L16.91 0C17.63 0 18.33 0.64 18.48 1.43Z" fill="#752D17"/><path d="M40.62 17.62 32.28 8.52 34.46 5.71 41.09 8.59 45.43 16.08Z" fill="#3E1406"/><path d="M54.12 20.47C54.12 21.34 53.85 22.16 53.35 22.89 53.11 23.26 52.82 23.6 52.48 23.92 51.82 24.56 51.01 25.08 50.07 25.5 48.64 26.13 46.91 26.51 45.06 26.51L0.86 26.51C0.34 24.44 0.09 22.48 0.02 20.66-0.07 18.44 0.12 16.43 0.41 14.66 0.49 14.2 0.58 13.77 0.66 13.35 0.77 12.89 0.87 12.45 0.99 12.04 1.11 11.57 1.25 11.14 1.36 10.73 1.52 10.24 1.66 9.8 1.8 9.42 1.97 8.93 2.13 8.53 2.24 8.22 2.27 8.17 2.27 8.16 2.3 8.11 2.83 6.73 3.91 5.09 5.23 5.09L14.77 5.09C14.77 5.09 14.94 5.78 15.22 6.84 15.4 7.57 15.63 8.48 15.89 9.47 16.5 11.89 19.03 13.85 21.53 13.84L27.39 13.81C29.89 13.8 32.6 12.11 33.43 10.04L34.94 6.28C35.23 5.62 36.06 5.08 36.78 5.08L38.1 5.09C41.34 5.91 44.44 7.06 47.1 8.8 49.89 10.61 51.58 12.3 52.58 13.9 52.84 14.31 53.05 14.71 53.23 15.09 54.12 17.02 54.12 18.81 54.12 20.47Z" fill="#F6AA40"/><path d="M53.23 15.08C53.05 14.69 52.84 14.3 52.58 13.89 51.58 12.29 49.89 10.6 47.1 8.79 44.44 7.05 41.34 5.9 38.1 5.08L36.78 5.07C36.06 5.07 35.23 5.61 34.94 6.27L34.92 6.3C35.24 6.09 35.61 5.96 35.97 5.96L37.28 5.97C40.5 6.79 43.58 7.94 46.24 9.66 49.01 11.46 50.69 13.15 51.68 14.73 51.94 15.13 52.15 15.54 52.33 15.92 53.21 17.85 53.21 19.63 53.21 21.29 53.21 22.15 52.94 22.97 52.44 23.7 52.27 23.97 52.05 24.23 51.81 24.48 52.05 24.31 52.27 24.12 52.47 23.92 52.81 23.6 53.1 23.26 53.34 22.89 53.84 22.16 54.11 21.33 54.11 20.47 54.12 18.81 54.12 17.02 53.23 15.08Z" fill="#FFFFFF" opacity="0.3"/><path d="M4.59 5.99 14.08 5.99C14.08 5.99 14.25 6.67 14.53 7.73 14.71 8.46 14.93 9.36 15.2 10.34 15.81 12.74 18.32 14.69 20.81 14.68L26.64 14.65C28.71 14.64 30.91 13.47 32.07 11.89 30.83 13.02 29.08 13.79 27.4 13.8L21.54 13.83C19.03 13.84 16.51 11.88 15.9 9.46 15.64 8.48 15.41 7.57 15.23 6.83 14.95 5.77 14.78 5.08 14.78 5.08L5.22 5.08C4.26 5.08 3.43 5.96 2.84 6.97 3.34 6.4 3.94 5.99 4.59 5.99Z" fill="#FFFFFF" opacity="0.3"/><path d="M50.07 23.65 50.07 25.51C48.64 26.14 46.91 26.52 45.06 26.52L34.35 26.52 34.35 23.66C34.35 19.33 37.88 15.8 42.22 15.8 46.56 15.79 50.07 19.32 50.07 23.65Z" opacity="0.5"/><path d="M32.57 21.48C32.57 21.83 32.28 22.14 31.91 22.14L15.36 22.14C15.19 21.7 14.97 21.3 14.71 20.92 14.82 20.87 14.93 20.83 15.06 20.83L31.91 20.83C32.28 20.82 32.57 21.11 32.57 21.48Z" fill="#D20001"/><g><g><path d="M35.16 23.65C35.16 27.54 38.32 30.7 42.21 30.7 46.1 30.7 49.26 27.54 49.26 23.65 49.26 19.75 46.11 16.6 42.21 16.6 38.32 16.6 35.16 19.75 35.16 23.65Z" fill="#3E1406"/></g><g><path d="M37.03 23.65C37.03 26.51 39.35 28.83 42.21 28.83 45.07 28.83 47.39 26.51 47.39 23.65 47.39 20.78 45.07 18.47 42.21 18.47 39.35 18.47 37.03 20.79 37.03 23.65Z" fill="#FFFFFF"/></g><g><path d="M38.33 23.65C38.33 25.79 40.08 27.53 42.21 27.53 44.35 27.53 46.09 25.79 46.09 23.65 46.09 21.51 44.35 19.77 42.21 19.77 40.07 19.77 38.33 21.51 38.33 23.65Z" fill="#752D17"/></g></g><path d="M19.96 23.65 19.96 26.51 4.23 26.51 4.23 23.65C4.23 19.31 7.76 15.79 12.09 15.79 16.45 15.79 19.96 19.31 19.96 23.65Z" opacity="0.5"/><g><g><path d="M5.05 23.65C5.05 27.54 8.21 30.7 12.11 30.7 16 30.7 19.15 27.54 19.15 23.65 19.15 19.75 16 16.6 12.11 16.6 8.21 16.6 5.05 19.75 5.05 23.65Z" fill="#3E1406"/></g><g><path d="M6.92 23.65C6.92 26.51 9.24 28.83 12.1 28.83 14.96 28.83 17.27 26.51 17.27 23.65 17.27 20.78 14.95 18.47 12.1 18.47 9.24 18.47 6.92 20.79 6.92 23.65Z" fill="#FFFFFF"/></g><g><path d="M8.22 23.65C8.22 25.79 9.96 27.53 12.1 27.53 14.24 27.53 15.97 25.79 15.97 23.65 15.97 21.51 14.23 19.77 12.1 19.77 9.96 19.77 8.22 21.51 8.22 23.65Z" fill="#752D17"/></g></g><path d="M5.53 8.77C5.53 9.14 5.23 9.43 4.87 9.43L1.8 9.43C1.97 8.94 2.13 8.54 2.25 8.23 2.26 8.19 2.28 8.16 2.29 8.12L4.87 8.12C5.22 8.11 5.53 8.4 5.53 8.77Z" fill="#D20001"/><path d="M5.53 11.39C5.53 11.76 5.23 12.04 4.87 12.04L0.99 12.04C1.11 11.57 1.25 11.14 1.36 10.73L4.87 10.73C5.22 10.73 5.53 11.02 5.53 11.39Z" fill="#D20001"/><path d="M5.53 14.01C5.53 14.38 5.23 14.67 4.87 14.67L0.41 14.67C0.49 14.21 0.58 13.78 0.66 13.36L4.86 13.36C5.22 13.35 5.53 13.64 5.53 14.01Z" fill="#D20001"/></g></g></svg>