<svg width="52.03" height="312.57" viewBox="0 0 52.03 312.57" xmlns="http://www.w3.org/2000/svg" xmlns:xlink="http://www.w3.org/1999/xlink" xml:space="preserve" overflow="hidden"><defs></defs><g><linearGradient x1="25.0036" y1="64.9889" x2="25.0036" y2="33.5795" gradientUnits="userSpaceOnUse" id="SVGID_1_"><stop offset="0" stop-color="#E5D9C8"/><stop offset="1" stop-color="#F5E8D5"/></linearGradient><radialGradient cx="22.9671" cy="23.6069" r="21.2364" gradientUnits="userSpaceOnUse" id="SVGID_2_"><stop offset="0" stop-color="#FFF2DE"/><stop offset="1" stop-color="#F5E8D5"/></radialGradient><radialGradient cx="24.3449" cy="14.4778" r="6.2339" gradientUnits="userSpaceOnUse" id="SVGID_12_"><stop offset="0" stop-color="#FFF2DE"/><stop offset="1" stop-color="#F5E8D5"/></radialGradient><radialGradient cx="24.5354" cy="10.5534" r="3.7404" gradientUnits="userSpaceOnUse" id="SVGID_13_"><stop offset="0" stop-color="#FFF2DE"/><stop offset="1" stop-color="#F5E8D5"/></radialGradient><radialGradient cx="24.6306" cy="4.237" r="7.882" gradientUnits="userSpaceOnUse" id="SVGID_14_"><stop offset="0" stop-color="#FFF2DE"/><stop offset="1" stop-color="#F5E8D5"/></radialGradient><rect x="10.07" y="30.85" width="29.86" height="38" fill="url(#SVGID_1_)"/><rect x="9.89" y="30.85" width="14.93" height="38" fill="#FFF2DE"/><rect x="12.69" y="40.48" width="9.34" height="31.64" fill="#A1998C" opacity="0.15"/><rect x="28.03" y="40.38" width="9.34" height="31.64" fill="#A1998C" opacity="0.25"/><path d="M15.09 30.85 15.09 27.12C15.09 21.77 19.47 17.39 24.82 17.39L24.82 17.39C30.17 17.39 34.55 21.77 34.55 27.12L34.55 30.85 15.09 30.85Z" fill="url(#SVGID_2_)"/><g><linearGradient x1="26.0759" y1="101.199" x2="26.0759" y2="137.866" gradientUnits="userSpaceOnUse" id="SVGID_3_" gradientTransform="matrix(1 -0.0031 0.0031 1 -0.6463 0.2165)"><stop offset="0" stop-color="#E5D9C8"/><stop offset="1" stop-color="#F5E8D5"/></linearGradient><path d="M51.27 68.74 0.01 68.9 0.77 312.57 52.03 312.41Z" fill="url(#SVGID_3_)"/><g><linearGradient x1="26.8188" y1="101.333" x2="26.8188" y2="138" gradientUnits="userSpaceOnUse" id="SVGID_4_"><stop offset="0" stop-color="#E5D9C8"/><stop offset="1" stop-color="#F5E8D5"/></linearGradient><linearGradient x1="29.8627" y1="101.333" x2="29.8627" y2="138" gradientUnits="userSpaceOnUse" id="SVGID_5_"><stop offset="0" stop-color="#E5D9C8"/><stop offset="1" stop-color="#F5E8D5"/></linearGradient><linearGradient x1="33.3265" y1="101.333" x2="33.3265" y2="138" gradientUnits="userSpaceOnUse" id="SVGID_6_"><stop offset="0" stop-color="#E5D9C8"/><stop offset="1" stop-color="#F5E8D5"/></linearGradient><linearGradient x1="36.7902" y1="101.333" x2="36.7902" y2="138" gradientUnits="userSpaceOnUse" id="SVGID_7_"><stop offset="0" stop-color="#E5D9C8"/><stop offset="1" stop-color="#F5E8D5"/></linearGradient><linearGradient x1="40.254" y1="101.333" x2="40.254" y2="138" gradientUnits="userSpaceOnUse" id="SVGID_8_"><stop offset="0" stop-color="#E5D9C8"/><stop offset="1" stop-color="#F5E8D5"/></linearGradient><linearGradient x1="43.7178" y1="101.333" x2="43.7178" y2="138" gradientUnits="userSpaceOnUse" id="SVGID_9_"><stop offset="0" stop-color="#E5D9C8"/><stop offset="1" stop-color="#F5E8D5"/></linearGradient><linearGradient x1="47.1815" y1="101.333" x2="47.1815" y2="138" gradientUnits="userSpaceOnUse" id="SVGID_10_"><stop offset="0" stop-color="#E5D9C8"/><stop offset="1" stop-color="#F5E8D5"/></linearGradient><linearGradient x1="50.0924" y1="101.333" x2="50.0924" y2="138" gradientUnits="userSpaceOnUse" id="SVGID_11_"><stop offset="0" stop-color="#E5D9C8"/><stop offset="1" stop-color="#F5E8D5"/></linearGradient><path d="M28 69.03 25.64 69.03 25.64 63.51 26.89 63.51Z" fill="url(#SVGID_4_)"/><path d="M31.59 69.03 28.13 69.03 29.24 63.51 30.49 63.51Z" fill="url(#SVGID_5_)"/><path d="M35.06 69.03 31.59 69.03 32.7 63.51 33.95 63.51Z" fill="url(#SVGID_6_)"/><path d="M38.52 69.03 35.06 69.03 36.16 63.51 37.42 63.51Z" fill="url(#SVGID_7_)"/><path d="M41.99 69.03 38.52 69.03 39.63 63.51 40.88 63.51Z" fill="url(#SVGID_8_)"/><path d="M45.45 69.03 41.99 69.03 43.09 63.51 44.34 63.51Z" fill="url(#SVGID_9_)"/><path d="M48.91 69.03 45.45 69.03 46.56 63.51 47.81 63.51Z" fill="url(#SVGID_10_)"/><path d="M51.27 69.03 48.91 69.03 50.02 63.51 51.27 63.51Z" fill="url(#SVGID_11_)"/></g></g><path d="M24.39 63.51 23.35 68.67 23.21 68.67 22.18 63.51 20.92 63.51 19.89 68.67 19.74 68.67 18.71 63.51 17.46 63.51 16.43 68.67 16.28 68.67 15.25 63.51 14 63.51 12.96 68.67 12.82 68.67 11.78 63.51 10.53 63.51 9.5 68.67 9.35 68.67 8.32 63.51 7.07 63.51 6.04 68.67 5.89 68.67 4.86 63.51 3.6 63.51 2.57 68.67 2.29 68.67 1.26 63.51 0.01 63.51 0.01 68.67 0.01 69.03 0.01 312.49 25.64 312.49 25.64 69.03 25.64 68.67 25.64 63.51Z" fill="#FFF2DE"/><g><rect x="7.92" y="140.57" width="9.8" height="171.92" fill="#A1998C" opacity="0.15"/><rect x="19.34" y="131.57" width="4.31" height="180.92" fill="#A1998C" opacity="0.15"/><rect x="2" y="131.57" width="4.31" height="180.92" fill="#A1998C" opacity="0.15"/></g><g><rect x="33.52" y="140.57" width="9.8" height="171.92" fill="#A1998C" opacity="0.2"/><rect x="44.93" y="131.57" width="4.31" height="180.92" fill="#A1998C" opacity="0.2"/><rect x="27.6" y="131.57" width="4.31" height="180.92" fill="#A1998C" opacity="0.2"/></g><rect x="25.72" y="72.12" width="25.65" height="25.33" fill="#569C91"/><rect x="0" y="72.12" width="25.72" height="25.33" fill="#80C2B8"/><g><g><path d="M48.55 113.31 48.55 104.74 40.96 104.74C41.18 106.55 47.07 110.92 48.55 113.31Z" fill="#569C91"/><path d="M37.73 104.73 28.6 104.73 28.6 115.63C30.32 110.67 37.88 106.7 37.73 104.73Z" fill="#569C91"/></g><path d="M39.4 107.66C38.1 110.4 26.69 114.75 33.26 122.16 33.85 122.82 34.48 123.34 35.14 123.76 35.02 123.33 34.93 122.89 34.93 122.42 34.93 119.84 36.94 117.75 39.43 117.75 41.92 117.75 43.93 119.84 43.93 122.42 43.93 122.87 43.85 123.29 43.74 123.71 44.43 123.28 45.06 122.76 45.59 122.16 51.13 115.86 41.04 110.19 39.4 107.66Z" fill="#569C91"/></g><g><g><path d="M2.85 113.31 2.85 104.74 10.44 104.74C10.22 106.55 4.33 110.92 2.85 113.31Z" fill="#80C2B8"/><path d="M13.67 104.73 22.79 104.73 22.79 115.63C21.08 110.67 13.52 106.7 13.67 104.73Z" fill="#80C2B8"/></g><path d="M12 107.66C13.3 110.4 24.71 114.75 18.14 122.16 17.55 122.82 16.92 123.34 16.26 123.76 16.38 123.33 16.47 122.89 16.47 122.42 16.47 119.84 14.46 117.75 11.97 117.75 9.48 117.75 7.47 119.84 7.47 122.42 7.47 122.87 7.55 123.29 7.66 123.71 6.97 123.28 6.34 122.76 5.81 122.16 0.27 115.86 10.36 110.19 12 107.66Z" fill="#80C2B8"/></g><rect x="9.89" y="34.09" width="14.93" height="4.08" fill="#80C2B8"/><rect x="24.82" y="34.09" width="14.93" height="4.08" fill="#569C91"/><rect x="0" y="97.44" width="25.72" height="2.31" fill="#A1998C" opacity="0.5"/><rect x="25.72" y="97.44" width="25.65" height="2.31" fill="#A1998C"/><circle cx="24.82" cy="14.67" r="2.5" fill="url(#SVGID_12_)"/><circle cx="24.82" cy="10.67" r="1.5" fill="url(#SVGID_13_)"/><path d="M25.82 8.17C25.82 8.72 25.37 9.17 24.82 9.17 24.27 9.17 23.82 8.72 23.82 8.17 23.82 7.62 24.82 0 24.82 0 24.82 0 25.82 7.61 25.82 8.17Z" fill="url(#SVGID_14_)"/></g></svg>