<svg width="502.73" height="162.34" viewBox="0 0 502.73 162.34" xmlns="http://www.w3.org/2000/svg" xmlns:xlink="http://www.w3.org/1999/xlink" xml:space="preserve" overflow="hidden"><defs></defs><g><g><path d="M465.96 89.48C469.28 100.3 465.85 127.68 465.85 127.68 465.85 127.68 333.6 148.92 262.97 147.95 192.34 148.92 41.83 131.66 41.83 131.66 41.83 131.66 38.64 100.25 42.25 88.47 63.5 27.41 154.68 47.1 254.63 44.24 354.58 47.1 444.72 28.42 465.96 89.48Z" fill="#CFB7B4"/><path d="M469.94 123.78C357.97 121.28 170.47 120.59 40.52 130.35 42.34 146.93 120.31 162.34 267.19 162.34 410.01 150.95 467.58 142.79 469.94 123.78Z" fill="#FF9082"/><path d="M40.52 130.35C68.76 124.49 169.06 115.05 169.06 115.05 169.06 115.05 175.59 117.58 177.58 117.49 221.45 115.52 271.23 114.52 318.46 115.05 320.92 115.08 324.73 111.4 324.73 111.4 324.73 111.4 441.94 118.91 469.93 123.78 441.18 124.64 296.25 118.45 251.36 119.23 132.94 121.26 80.86 129.65 40.52 130.35Z" fill="#731624"/><path d="M468.49 88.47C447.24 27.41 354.58 47.1 254.63 44.24 154.68 47.1 62.01 27.41 40.76 88.47 37.24 99.93 37.16 114.38 40.51 130.35 81.12 124.51 122.89 116.8 172.19 112.31L172.19 112.31C172.19 112.31 173.66 118.69 199.31 115.66 224.96 112.63 245.54 115.96 247.52 113.99 248.6 112.91 249.44 110.54 249.97 108.62 250.04 108.62 250.1 108.62 250.17 108.62 250.87 110.35 251.83 112.27 252.89 113.15 255.04 114.93 275.55 113.23 301.38 113.79 313.64 114.05 320.2 111.92 323.7 109.6 378.74 112.02 426.26 118.42 469.93 123.79 472 110.42 471.52 98.33 468.49 88.47Z" fill="#F4ECED"/><path d="M468.49 88.47C447.24 27.41 354.58 47.1 254.63 44.24 154.68 47.1 62.01 27.41 40.76 88.47 38.56 95.66 37.7 104.02 38.2 113.2 68.31 89.92 112.3 81.73 162.49 78.02L172.2 112.31 169.79 77.52C194.05 75.94 219.63 75.27 245.7 74.35L250.46 108.62 252.72 74.1C253.08 74.09 253.44 74.07 253.8 74.06 278.48 74.99 302.77 75.59 325.96 76.83L323.07 108.56 332 77.17C388.72 80.53 438.46 88.3 470.93 115.06 471.66 105.14 470.84 96.13 468.49 88.47Z" fill="#CFB7B4"/><path d="M255.03 69.83C350.47 72.56 444.61 79.21 467.51 123.86 468.77 126.32 469.54 126.36 469.94 123.78 472.01 110.41 471.52 98.33 468.49 88.46 447.24 27.41 352.28 18.67 252.33 15.81 152.38 18.67 62.01 27.41 40.76 88.46 37.15 100.23 37.05 114.77 40.69 131.26 62.01 70.33 155.13 72.69 255.03 69.83Z" fill="#FF9082"/></g></g><g><path d="M78.6 0.47C39.13 28.87 11.06 70.77 0.07 118.17-0.67 121.35 4.23 122.7 4.96 119.52 15.65 73.46 42.76 32.49 81.16 4.85 83.79 2.96 81.26-1.44 78.6 0.47L78.6 0.47Z" fill="#410C14"/></g><g><path d="M440.52 26.2C466.27 57.54 485.62 93.46 497.71 132.17 498.68 135.28 503.58 133.95 502.6 130.82 490.24 91.24 470.43 54.65 444.11 22.61 442.04 20.09 438.47 23.7 440.52 26.2L440.52 26.2Z" fill="#410C14"/></g></svg>