<svg width="364.05" height="308.94" viewBox="0 0 364.05 308.94" xmlns="http://www.w3.org/2000/svg" xmlns:xlink="http://www.w3.org/1999/xlink" xml:space="preserve" overflow="hidden"><defs></defs><g><path d="M363.55 248.62 363.55 248.62C363.56 251.44 363.38 253.94 362.97 256.05 362.72 257.34 362.35 258.53 361.88 259.64 360.78 262.21 359.13 264.34 357.17 266.14L357.16 266.15C355.65 267.55 353.97 268.74 352.19 269.82 347.56 272.65 342.35 274.65 338.4 276.9 336.32 278.08 334.58 279.32 333.45 280.8 331.95 282.77 330.2 284.73 328.15 286.65 324.95 289.65 321.02 292.53 316.18 295.1 312.51 297.05 308.31 298.83 303.5 300.34 302.64 300.61 301.77 300.85 300.9 301.05 294.12 302.67 287.13 302.44 278.91 301.91 277.95 301.84 276.97 301.78 275.97 301.71L275.96 301.71C269.65 301.29 262.61 300.79 254.42 300.87 251.4 300.89 248.23 301 244.89 301.2 244.35 301.23 243.81 301.27 243.25 301.31L243.24 301.31C240.1 301.54 236.73 301.87 233.15 302.27L233.14 302.27C227.07 302.95 220.41 303.82 213.19 304.68 208.38 305.26 203.34 305.84 198.06 306.36L198.05 306.36C196.37 306.53 194.66 306.7 192.93 306.85 186.15 307.46 179.03 307.95 171.61 308.21L171.6 308.21C167.7 308.36 163.73 308.44 159.67 308.44 156.02 308.44 152.31 308.38 148.53 308.24L148.52 308.24C142.32 308.03 135.98 307.6 129.48 306.93 127.21 306.69 124.92 306.43 122.61 306.12L122.6 306.12C120.26 305.82 117.9 305.49 115.52 305.11 111.65 304.5 107.97 303.85 104.46 303.15L104.45 303.15C99.98 302.28 95.8 301.35 91.89 300.37L91.88 300.37C88.66 299.57 85.64 298.75 82.78 297.91 75.47 295.75 69.31 293.5 64.17 291.33 57.23 288.4 52.15 285.61 48.64 283.39 44.1 280.53 42.15 278.63 42.15 278.63 42.15 278.63 41.61 278.78 40.4 278.86L40.39 278.86C38.37 278.99 34.45 278.94 28.03 277.69L28.02 277.69C26.87 277.46 25.66 277.2 24.35 276.89 18.36 275.49 13.66 273 10.33 270.71L10.32 270.71C6.41 268.02 4.38 265.61 4.38 265.61L6.03 257.85 6.96 253.52 9.5 241.59 10.17 238.43 12.96 225.35 13.39 223.34 13.39 223.33 16.42 209.1 16.6 208.25 16.6 208.24 19.82 193.16 19.88 192.84 19.89 192.84 23.03 178.07 23.03 178.06 23.34 176.6 23.35 176.6 26.25 162.98 26.81 160.35 29.46 147.89 29.46 147.88 30.27 144.09 32.68 132.8 33.73 127.84 35.89 117.71 37.2 111.59 39.11 102.62 40.66 95.34 42.32 87.52 44.12 79.08 45.54 72.43 47.58 62.84 48.75 57.34 51.05 46.59 51.97 42.25 54.51 30.33 55.19 27.16 58.4 12.07 59.5 6.91C61.46 3.81 64.44 1.96 67.05 1.1 71.35-0.32 74.66 0.91 70.87 3.59 70.78 3.65 70.71 3.72 70.64 3.82 69.53 5.42 71.96 11.64 77.17 20.41 79.24 23.87 81.73 27.74 84.61 31.88 84.64 31.92 84.67 31.96 84.7 32.01 87.15 35.51 89.87 39.21 92.83 43.02L92.84 43.02C95.58 46.56 98.55 50.2 101.7 53.87 104.7 57.38 107.88 60.92 111.22 64.44 114.48 67.9 117.9 71.33 121.44 74.7L121.45 74.7C125.01 78.09 128.7 81.4 132.49 84.59 136.41 87.89 140.45 91.05 144.58 94.03 148.99 97.21 153.51 100.17 158.1 102.85 163.26 105.85 168.51 108.5 173.83 110.69L173.84 110.69C180.5 113.43 187.25 115.46 194.03 116.58L194.04 116.58C194.96 116.73 195.88 116.86 196.8 116.98 199.8 117.37 202.81 117.57 205.82 117.57 210.59 117.57 215.29 117.36 219.89 116.95 223.07 116.68 226.2 116.32 229.29 115.87 232.68 115.39 236.01 114.8 239.28 114.13 245.28 112.92 251.06 111.41 256.58 109.71 262.09 108.02 267.34 106.12 272.31 104.11 277.46 102.02 282.3 99.81 286.79 97.55 291.66 95.1 296.13 92.59 300.14 90.15 304.89 87.25 309 84.43 312.37 81.89 314.85 80.01 316.93 78.29 318.58 76.77L318.6 76.76C320.71 74.83 322.1 73.26 322.72 72.21 322.91 71.88 323.03 71.59 323.06 71.37 323.89 65.81 328.24 61.56 331.28 63.3 332.39 63.94 333.52 66.63 334.51 69.79 336.24 75.27 337.53 82.17 337.53 82.17 337.53 82.17 337.53 82.52 337.54 83.19 337.55 83.27 337.55 83.36 337.55 83.45 337.59 85.72 337.71 90.85 338.01 97.72 338.06 98.91 338.11 100.15 338.17 101.44L338.18 101.45C338.33 104.74 338.53 108.33 338.78 112.12L338.78 112.13C338.94 114.63 339.12 117.21 339.33 119.85 339.49 121.99 339.67 124.17 339.86 126.38 340.23 130.45 340.65 134.61 341.13 138.75L341.14 138.75C341.2 139.32 341.26 139.9 341.34 140.47 341.9 145.18 342.56 149.85 343.32 154.34 343.55 155.74 343.79 157.12 344.04 158.48 344.65 161.76 345.32 164.9 346.05 167.87 346.46 169.54 346.89 171.16 347.34 172.7 348.05 175.15 348.77 177.63 349.48 180.13 349.57 180.42 349.65 180.71 349.73 181 350.97 185.34 352.19 189.75 353.37 194.14 354.1 196.84 354.8 199.53 355.49 202.21 355.93 203.95 356.36 205.68 356.77 207.39 357.9 211.97 358.93 216.46 359.83 220.78 360.02 221.68 360.2 222.56 360.37 223.44 361.14 227.28 361.79 230.97 362.29 234.44 362.75 237.54 363.1 240.47 363.3 243.19 363.46 245.11 363.54 246.92 363.55 248.62Z" stroke="#263238" stroke-linecap="round" stroke-linejoin="round" stroke-miterlimit="10" fill="none"/><g><g><path d="M54.51 30.33 57.59 28.98 72.24 22.57 72.25 22.57 77.17 20.41" stroke="#263238" stroke-width="0.5" stroke-linecap="round" stroke-linejoin="round" stroke-miterlimit="10" fill="none"/><path d="M51.05 46.59 55.26 44.74 69.91 38.32 84.57 31.91 84.61 31.88" stroke="#263238" stroke-width="0.5" stroke-linecap="round" stroke-linejoin="round" stroke-miterlimit="10" fill="none"/><path d="M47.58 62.84 52.93 60.5 67.58 54.08 82.24 47.67 92.83 43.02 92.84 43.02" stroke="#263238" stroke-width="0.5" stroke-linecap="round" stroke-linejoin="round" stroke-miterlimit="10" fill="none"/><path d="M101.7 53.87 94.55 57 79.89 63.42 65.24 69.84 50.58 76.25 44.12 79.08" stroke="#263238" stroke-width="0.5" stroke-linecap="round" stroke-linejoin="round" stroke-miterlimit="10" fill="none"/><path d="M40.66 95.34 48.25 92.01 62.91 85.6 77.56 79.18 92.22 72.76 106.87 66.34 111.22 64.44" stroke="#263238" stroke-width="0.5" stroke-linecap="round" stroke-linejoin="round" stroke-miterlimit="10" fill="none"/><path d="M121.45 74.7 121.44 74.7 119.19 75.68 104.54 82.1 89.88 88.52 75.23 94.94 60.57 101.35 45.91 107.77 37.2 111.59" stroke="#263238" stroke-width="0.5" stroke-linecap="round" stroke-linejoin="round" stroke-miterlimit="10" fill="none"/><path d="M33.73 127.84 43.57 123.53 58.23 117.11 72.89 110.69 87.55 104.27 102.2 97.85 116.86 91.44 131.51 85.02 132.49 84.59" stroke="#263238" stroke-width="0.5" stroke-linecap="round" stroke-linejoin="round" stroke-miterlimit="10" fill="none"/><path d="M144.58 94.03 143.83 94.36 129.18 100.77 129.17 100.77 114.52 107.19 99.87 113.61 85.21 120.03 70.55 126.45 55.9 132.87 41.24 139.29 30.27 144.09" stroke="#263238" stroke-width="0.5" stroke-linecap="round" stroke-linejoin="round" stroke-miterlimit="10" fill="none"/><line x1="24.26" y1="161.47" x2="24.25" y2="161.47" stroke="#263238" stroke-width="0.5" stroke-linecap="round" stroke-linejoin="round" stroke-miterlimit="10" fill="none"/><path d="M26.81 160.35 38.91 155.05 53.57 148.63 68.22 142.21 82.88 135.79 97.54 129.37 112.19 122.95 126.84 116.53 126.85 116.53 141.5 110.12 156.16 103.7 158.1 102.85" stroke="#263238" stroke-width="0.5" stroke-linecap="round" stroke-linejoin="round" stroke-miterlimit="10" fill="none"/><path d="M173.84 110.69 173.83 110.69 168.47 113.03 153.82 119.45 139.16 125.87 124.51 132.29 109.85 138.71 95.19 145.13 80.54 151.55 65.89 157.97 65.88 157.97 51.23 164.38 36.57 170.8 23.35 176.6 23.34 176.6 23.34 176.6" stroke="#263238" stroke-width="0.5" stroke-linecap="round" stroke-linejoin="round" stroke-miterlimit="10" fill="none"/><line x1="4.93" y1="199.39" x2="4.92" y2="199.39" stroke="#263238" stroke-width="0.5" stroke-linecap="round" stroke-linejoin="round" stroke-miterlimit="10" fill="none"/><path d="M19.58 192.98 19.88 192.84 19.89 192.84 34.24 186.56 48.89 180.14 63.55 173.72 78.2 167.3 92.86 160.89 107.51 154.47 122.17 148.05 122.18 148.05 136.83 141.63 151.48 135.21 166.14 128.79 180.79 122.37 194.03 116.58 194.04 116.58 194.03 116.58" stroke="#263238" stroke-width="0.5" stroke-linecap="round" stroke-linejoin="round" stroke-miterlimit="10" fill="none"/><path d="M16.42 209.1 17.25 208.73 31.9 202.32 46.56 195.9 61.21 189.48 75.87 183.06 90.52 176.64 105.18 170.22 119.83 163.81 119.84 163.81 134.5 157.39 149.15 150.97 163.81 144.55 178.46 138.13 193.11 131.71 207.77 125.3 222.43 118.88 229.29 115.87" stroke="#263238" stroke-width="0.5" stroke-linecap="round" stroke-linejoin="round" stroke-miterlimit="10" fill="none"/><path d="M334.51 69.79 325.01 73.95 318.6 76.76 318.58 76.77" stroke="#263238" stroke-width="0.5" stroke-linecap="round" stroke-linejoin="round" stroke-miterlimit="10" fill="none"/><line x1="0.26" y1="230.92" x2="0.25" y2="230.92" stroke="#263238" stroke-width="0.5" stroke-linecap="round" stroke-linejoin="round" stroke-miterlimit="10" fill="none"/><path d="M337.54 83.19 337.33 83.29 322.67 89.7 308.02 96.12 293.37 102.54 278.71 108.96 264.05 115.38 249.4 121.8 234.75 128.21 234.74 128.21 220.09 134.63 205.43 141.05 190.78 147.47 176.13 153.89 161.47 160.31 146.82 166.73 146.81 166.73 132.16 173.15 117.5 179.56 102.85 185.98 88.19 192.4 73.54 198.82 58.88 205.24 44.23 211.66 29.57 218.08 14.92 224.49 12.96 225.35" stroke="#263238" stroke-width="0.5" stroke-linecap="round" stroke-linejoin="round" stroke-miterlimit="10" fill="none"/><path d="M9.5 241.59 12.57 240.25 27.23 233.83 41.89 227.41 56.54 220.99 71.19 214.57 71.2 214.57 85.85 208.16 100.51 201.74 115.16 195.32 129.82 188.9 144.47 182.48 159.13 176.06 173.79 169.64 188.44 163.23 188.45 163.23 203.1 156.81 217.75 150.39 232.41 143.97 247.06 137.55 261.72 131.13 276.37 124.72 291.03 118.3 305.69 111.88 320.34 105.46 335 99.04 338.01 97.72" stroke="#263238" stroke-width="0.5" stroke-linecap="round" stroke-linejoin="round" stroke-miterlimit="10" fill="none"/><path d="M338.78 112.12 338.78 112.13 332.67 114.8 318.01 121.22 303.36 127.64 288.7 134.06 274.04 140.48 259.39 146.89 244.73 153.31 230.08 159.73 215.42 166.15 200.77 172.57 186.12 178.99 186.11 178.99 171.46 185.4 156.8 191.82 142.14 198.24 127.49 204.66 112.83 211.08 98.17 217.5 83.52 223.92 68.87 230.33 68.86 230.33 54.21 236.75 39.56 243.17 24.89 249.59 10.25 256.01 10.24 256.01 6.03 257.85" stroke="#263238" stroke-width="0.5" stroke-linecap="round" stroke-linejoin="round" stroke-miterlimit="10" fill="none"/><path d="M339.86 126.38 330.32 130.56 315.67 136.97 301.01 143.39 286.36 149.81 271.7 156.23 257.05 162.65 242.39 169.07 227.74 175.48 227.73 175.48 213.08 181.9 198.43 188.32 183.77 194.74 169.12 201.16 154.46 207.58 139.81 214 125.15 220.42 110.5 226.84 110.49 226.84 95.84 233.25 81.18 239.67 66.53 246.09 51.88 252.51 37.21 258.93 22.57 265.35 22.56 265.35 10.33 270.71 10.32 270.71" stroke="#263238" stroke-width="0.5" stroke-linecap="round" stroke-linejoin="round" stroke-miterlimit="10" fill="none"/><path d="M341.34 140.47 341.34 140.47 327.99 146.32 313.34 152.73 298.68 159.15 284.03 165.57 269.37 171.99 254.71 178.41 240.06 184.83 225.41 191.24 225.4 191.24 210.75 197.66 196.1 204.08 181.44 210.5 166.78 216.92 152.13 223.34 137.47 229.75 122.81 236.17 108.16 242.59 93.5 249.01 78.85 255.43 64.2 261.85 64.19 261.85 49.53 268.27 34.88 274.68 28.03 277.69 28.02 277.69" stroke="#263238" stroke-width="0.5" stroke-linecap="round" stroke-linejoin="round" stroke-miterlimit="10" fill="none"/><path d="M48.64 283.39 48.64 283.39 61.85 277.61 61.86 277.61 76.51 271.19 76.52 271.19 91.17 264.77 105.82 258.35 120.48 251.93 135.13 245.51 149.79 239.09 164.44 232.67 164.45 232.67 179.1 226.26 193.76 219.84 208.42 213.42 223.07 207 237.73 200.58 252.38 194.16 267.04 187.75 281.69 181.33 296.35 174.91 311 168.49 325.66 162.07 340.31 155.65 340.32 155.65 343.32 154.34" stroke="#263238" stroke-width="0.5" stroke-linecap="round" stroke-linejoin="round" stroke-miterlimit="10" fill="none"/><path d="M64.17 291.33 74.18 286.95 88.84 280.53 103.49 274.11 118.15 267.69 132.8 261.27 147.45 254.85 147.46 254.85 162.11 248.43 176.77 242.01 191.42 235.6 191.43 235.6 206.08 229.18 220.74 222.76 235.39 216.34 250.05 209.92 264.7 203.5 279.35 197.08 294.01 190.66 308.67 184.25 323.32 177.83 337.97 171.41 346.05 167.87" stroke="#263238" stroke-width="0.5" stroke-linecap="round" stroke-linejoin="round" stroke-miterlimit="10" fill="none"/><path d="M82.78 297.91 86.49 296.28 101.15 289.86 115.81 283.44 130.46 277.02 145.12 270.61 159.77 264.19 174.43 257.77 189.09 251.35 203.74 244.93 218.39 238.51 218.4 238.51 233.05 232.09 247.71 225.68 262.36 219.26 277.02 212.84 291.67 206.42 306.33 200 320.98 193.59 335.64 187.17 349.73 181 349.73 181" stroke="#263238" stroke-width="0.5" stroke-linecap="round" stroke-linejoin="round" stroke-miterlimit="10" fill="none"/><path d="M104.45 303.15 104.46 303.15 113.48 299.2 128.13 292.78 142.79 286.37 157.44 279.95 172.1 273.53 186.76 267.11 201.41 260.69 216.06 254.27 216.07 254.27 230.72 247.86 245.38 241.44 260.03 235.02 274.69 228.6 289.34 222.18 304 215.76 318.65 209.35 333.31 202.93 347.96 196.51 353.37 194.14" stroke="#263238" stroke-width="0.5" stroke-linecap="round" stroke-linejoin="round" stroke-miterlimit="10" fill="none"/><path d="M129.48 306.93 140.45 302.12 155.11 295.71 169.76 289.29 184.42 282.87 199.08 276.45 213.73 270.03 228.39 263.61 243.04 257.2 243.05 257.2 257.7 250.78 272.35 244.36 287.01 237.94 301.66 231.52 316.32 225.1 330.98 218.68 345.63 212.27 356.77 207.39" stroke="#263238" stroke-width="0.5" stroke-linecap="round" stroke-linejoin="round" stroke-miterlimit="10" fill="none"/><path d="M159.67 308.44 167.42 305.04 182.08 298.62 196.73 292.21 196.74 292.21 211.39 285.79 211.4 285.79 226.05 279.37 240.7 272.95 255.36 266.53 270.02 260.11 284.67 253.69 299.33 247.28 313.98 240.86 328.64 234.44 343.29 228.02 357.95 221.6 359.83 220.78" stroke="#263238" stroke-width="0.5" stroke-linecap="round" stroke-linejoin="round" stroke-miterlimit="10" fill="none"/><path d="M198.05 306.36 198.06 306.36 209.05 301.55 209.06 301.55 223.71 295.12 223.72 295.12 238.37 288.71 253.03 282.29 267.68 275.87 282.34 269.45 296.99 263.03 311.65 256.62 326.3 250.2 340.96 243.78 355.61 237.36 362.29 234.44" stroke="#263238" stroke-width="0.5" stroke-linecap="round" stroke-linejoin="round" stroke-miterlimit="10" fill="none"/><path d="M363.55 248.62 363.55 248.63 353.28 253.12 338.63 259.54 323.97 265.96 309.32 272.38 294.66 278.79 280.01 285.21 265.35 291.63 250.7 298.05 243.25 301.31 243.24 301.31" stroke="#263238" stroke-width="0.5" stroke-linecap="round" stroke-linejoin="round" stroke-miterlimit="10" fill="none"/><path d="M275.96 301.71 275.97 301.71 277.66 300.96 292.32 294.55 306.98 288.13 321.63 281.71 336.28 275.29 350.94 268.87 357.16 266.15 357.17 266.14" stroke="#263238" stroke-width="0.5" stroke-linecap="round" stroke-linejoin="round" stroke-miterlimit="10" fill="none"/></g><g><path d="M337.55 83.45 337.33 83.29 325.01 73.95 322.72 72.21" stroke="#263238" stroke-width="0.5" stroke-linecap="round" stroke-linejoin="round" stroke-miterlimit="10" fill="none"/><path d="M312.37 81.89 322.67 89.7 335 99.04 338.17 101.44 338.18 101.45" stroke="#263238" stroke-width="0.5" stroke-linecap="round" stroke-linejoin="round" stroke-miterlimit="10" fill="none"/><path d="M300.14 90.15 308.02 96.12 320.34 105.46 332.67 114.8 339.33 119.85" stroke="#263238" stroke-width="0.5" stroke-linecap="round" stroke-linejoin="round" stroke-miterlimit="10" fill="none"/><path d="M341.47 139.04 341.14 138.75 341.13 138.75 330.32 130.56 318.01 121.22 305.69 111.88 293.37 102.54 286.79 97.55" stroke="#263238" stroke-width="0.5" stroke-linecap="round" stroke-linejoin="round" stroke-miterlimit="10" fill="none"/><path d="M344.04 158.48 340.32 155.65 340.31 155.65 327.99 146.32 315.67 136.97 303.36 127.64 291.03 118.3 278.71 108.96 272.31 104.11" stroke="#263238" stroke-width="0.5" stroke-linecap="round" stroke-linejoin="round" stroke-miterlimit="10" fill="none"/><path d="M349.48 180.13 349.48 180.13 337.97 171.41 325.66 162.07 313.34 152.73 301.01 143.39 288.7 134.06 276.37 124.72 264.05 115.38 256.58 109.71" stroke="#263238" stroke-width="0.5" stroke-linecap="round" stroke-linejoin="round" stroke-miterlimit="10" fill="none"/><path d="M239.28 114.13 249.4 121.8 261.72 131.13 274.04 140.48 286.36 149.81 298.68 159.15 311 168.49 323.32 177.83 335.64 187.17 347.96 196.51 355.49 202.21" stroke="#263238" stroke-width="0.5" stroke-linecap="round" stroke-linejoin="round" stroke-miterlimit="10" fill="none"/><line x1="70.64" y1="3.82" x2="67.05" y2="1.1" stroke="#263238" stroke-width="0.5" stroke-linecap="round" stroke-linejoin="round" stroke-miterlimit="10" fill="none"/><path d="M360.37 223.44 357.95 221.6 345.63 212.27 333.31 202.93 320.98 193.59 308.67 184.25 296.35 174.91 284.03 165.57 271.7 156.23 259.39 146.89 247.06 137.55 234.75 128.21 234.74 128.21 222.43 118.88 219.89 116.95" stroke="#263238" stroke-width="0.5" stroke-linecap="round" stroke-linejoin="round" stroke-miterlimit="10" fill="none"/><path d="M58.4 12.07 72.24 22.57 72.25 22.57 84.57 31.91 84.7 32.01" stroke="#263238" stroke-width="0.5" stroke-linecap="round" stroke-linejoin="round" stroke-miterlimit="10" fill="none"/><path d="M363.3 243.19 355.61 237.36 343.29 228.02 330.98 218.68 318.65 209.35 306.33 200 294.01 190.66 281.69 181.33 269.37 171.99 257.05 162.65 244.73 153.31 232.41 143.97 220.09 134.63 207.77 125.3 196.8 116.98 196.8 116.98" stroke="#263238" stroke-width="0.5" stroke-linecap="round" stroke-linejoin="round" stroke-miterlimit="10" fill="none"/><path d="M361.88 259.64 353.28 253.12 340.96 243.78 328.64 234.44 316.32 225.1 304 215.76 291.67 206.42 279.35 197.08 267.04 187.75 254.71 178.41 242.39 169.07 230.08 159.73 217.75 150.39 205.43 141.05 193.11 131.71 180.79 122.37 168.47 113.03 156.16 103.7 143.83 94.36 131.51 85.02 119.19 75.68 106.87 66.34 94.55 57 82.24 47.67 69.91 38.32 57.59 28.98 55.19 27.16" stroke="#263238" stroke-width="0.5" stroke-linecap="round" stroke-linejoin="round" stroke-miterlimit="10" fill="none"/><path d="M51.97 42.25 55.26 44.74 67.58 54.08 79.89 63.42 92.22 72.76 104.54 82.1 116.86 91.44 129.17 100.77 129.18 100.77 141.5 110.12 153.82 119.45 166.14 128.79 178.46 138.13 190.78 147.47 203.1 156.81 215.42 166.15 227.73 175.48 227.74 175.48 240.06 184.83 252.38 194.16 264.7 203.5 277.02 212.84 289.34 222.18 301.66 231.52 313.98 240.86 326.3 250.2 338.63 259.54 350.94 268.87 352.19 269.82" stroke="#263238" stroke-width="0.5" stroke-linecap="round" stroke-linejoin="round" stroke-miterlimit="10" fill="none"/><path d="M48.75 57.34 52.93 60.5 65.24 69.84 77.56 79.18 89.88 88.52 102.2 97.85 114.52 107.19 126.84 116.53 126.85 116.53 139.16 125.87 151.48 135.21 163.81 144.55 176.13 153.89 188.44 163.23 188.45 163.23 200.77 172.57 213.08 181.9 225.4 191.24 225.41 191.24 237.73 200.58 250.05 209.92 262.36 219.26 274.69 228.6 287.01 237.94 299.33 247.28 311.65 256.62 323.97 265.96 336.28 275.29 338.4 276.9" stroke="#263238" stroke-width="0.5" stroke-linecap="round" stroke-linejoin="round" stroke-miterlimit="10" fill="none"/><path d="M45.54 72.43 50.58 76.25 62.91 85.6 75.23 94.94 87.55 104.27 99.87 113.61 112.19 122.95 124.51 132.29 136.83 141.63 149.15 150.97 161.47 160.31 173.79 169.64 186.11 178.99 186.12 178.99 198.43 188.32 210.75 197.66 223.07 207 235.39 216.34 247.71 225.68 260.03 235.02 272.35 244.36 284.67 253.69 296.99 263.03 309.32 272.38 321.63 281.71 328.15 286.65" stroke="#263238" stroke-width="0.5" stroke-linecap="round" stroke-linejoin="round" stroke-miterlimit="10" fill="none"/><path d="M42.32 87.52 48.25 92.01 60.57 101.35 72.89 110.69 85.21 120.03 97.54 129.37 109.85 138.71 122.17 148.05 122.18 148.05 134.5 157.39 146.81 166.73 146.82 166.73 159.13 176.06 171.46 185.4 183.77 194.74 196.1 204.08 208.42 213.42 220.74 222.76 233.05 232.09 245.38 241.44 257.7 250.78 270.02 260.11 282.34 269.45 294.66 278.79 306.98 288.13 316.18 295.1" stroke="#263238" stroke-width="0.5" stroke-linecap="round" stroke-linejoin="round" stroke-miterlimit="10" fill="none"/><path d="M300.9 301.05 292.32 294.55 280.01 285.21 267.68 275.87 255.36 266.53 243.05 257.2 243.04 257.2 230.72 247.86 218.4 238.51 218.39 238.51 206.08 229.18 193.76 219.84 181.44 210.5 169.12 201.16 156.8 191.82 144.47 182.48 132.16 173.15 119.84 163.81 119.83 163.81 107.51 154.47 95.19 145.13 82.88 135.79 70.55 126.45 58.23 117.11 45.91 107.77 39.11 102.62" stroke="#263238" stroke-width="0.5" stroke-linecap="round" stroke-linejoin="round" stroke-miterlimit="10" fill="none"/><path d="M278.91 301.91 277.66 300.96 265.35 291.63 253.03 282.29 240.7 272.95 228.39 263.61 216.07 254.27 216.06 254.27 203.74 244.93 191.43 235.6 191.42 235.6 179.1 226.26 166.78 216.92 154.46 207.58 142.14 198.24 129.82 188.9 117.5 179.56 105.18 170.22 92.86 160.89 80.54 151.55 68.22 142.21 55.9 132.87 43.57 123.53 35.89 117.71" stroke="#263238" stroke-width="0.5" stroke-linecap="round" stroke-linejoin="round" stroke-miterlimit="10" fill="none"/><path d="M254.42 300.87 250.7 298.05 238.37 288.71 226.05 279.37 213.73 270.03 201.41 260.69 189.09 251.35 176.77 242.01 164.45 232.67 164.44 232.67 152.13 223.34 139.81 214 127.49 204.66 115.16 195.32 102.85 185.98 90.52 176.64 78.2 167.3 65.89 157.97 65.88 157.97 53.57 148.63 41.24 139.29 32.68 132.8" stroke="#263238" stroke-width="0.5" stroke-linecap="round" stroke-linejoin="round" stroke-miterlimit="10" fill="none"/><path d="M29.46 147.88 29.46 147.89 38.91 155.05 51.23 164.38 63.55 173.72 75.87 183.06 88.19 192.4 100.51 201.74 112.83 211.08 125.15 220.42 137.47 229.75 149.79 239.09 162.11 248.43 174.43 257.77 186.76 267.11 199.08 276.45 211.39 285.79 211.4 285.79 223.71 295.12 223.72 295.12 233.14 302.27 233.15 302.27" stroke="#263238" stroke-width="0.5" stroke-linecap="round" stroke-linejoin="round" stroke-miterlimit="10" fill="none"/><line x1="24.26" y1="161.47" x2="24.25" y2="161.47" stroke="#263238" stroke-width="0.5" stroke-linecap="round" stroke-linejoin="round" stroke-miterlimit="10" fill="none"/><path d="M26.25 162.98 36.57 170.8 48.89 180.14 61.21 189.48 73.54 198.82 85.85 208.16 98.17 217.5 110.49 226.84 110.5 226.84 122.81 236.17 135.13 245.51 147.45 254.85 147.46 254.85 159.77 264.19 172.1 273.53 184.42 282.87 196.73 292.21 196.74 292.21 209.05 301.55 209.06 301.55 213.19 304.68" stroke="#263238" stroke-width="0.5" stroke-linecap="round" stroke-linejoin="round" stroke-miterlimit="10" fill="none"/><path d="M192.93 306.85 182.08 298.62 169.76 289.29 157.44 279.95 145.12 270.61 132.8 261.27 120.48 251.93 108.16 242.59 95.84 233.25 83.52 223.92 71.2 214.57 71.19 214.57 58.88 205.24 46.56 195.9 34.24 186.56 23.03 178.07 23.03 178.06 23.03 178.07" stroke="#263238" stroke-width="0.5" stroke-linecap="round" stroke-linejoin="round" stroke-miterlimit="10" fill="none"/><path d="M19.58 192.98 19.82 193.16 31.9 202.32 44.23 211.66 56.54 220.99 68.86 230.33 68.87 230.33 81.18 239.67 93.5 249.01 105.82 258.35 118.15 267.69 130.46 277.02 142.79 286.37 155.11 295.71 167.42 305.04 171.6 308.21 171.61 308.21" stroke="#263238" stroke-width="0.5" stroke-linecap="round" stroke-linejoin="round" stroke-miterlimit="10" fill="none"/><line x1="4.93" y1="199.39" x2="4.92" y2="199.39" stroke="#263238" stroke-width="0.5" stroke-linecap="round" stroke-linejoin="round" stroke-miterlimit="10" fill="none"/><path d="M148.53 308.24 148.52 308.24 140.45 302.12 128.13 292.78 115.81 283.44 103.49 274.11 91.17 264.77 78.85 255.43 66.53 246.09 54.21 236.75 41.89 227.41 29.57 218.08 17.25 208.73 16.6 208.25 16.6 208.24" stroke="#263238" stroke-width="0.5" stroke-linecap="round" stroke-linejoin="round" stroke-miterlimit="10" fill="none"/><path d="M13.39 223.33 13.39 223.34 14.92 224.49 27.23 233.83 39.56 243.17 51.88 252.51 64.19 261.85 64.2 261.85 76.51 271.19 76.52 271.19 88.84 280.53 101.15 289.86 113.48 299.2 122.6 306.12 122.61 306.12" stroke="#263238" stroke-width="0.5" stroke-linecap="round" stroke-linejoin="round" stroke-miterlimit="10" fill="none"/><line x1="0.26" y1="230.92" x2="0.25" y2="230.92" stroke="#263238" stroke-width="0.5" stroke-linecap="round" stroke-linejoin="round" stroke-miterlimit="10" fill="none"/><path d="M91.89 300.37 91.88 300.37 86.49 296.28 74.18 286.95 61.86 277.61 61.85 277.61 49.53 268.27 37.21 258.93 24.89 249.59 12.57 240.25 10.17 238.43" stroke="#263238" stroke-width="0.5" stroke-linecap="round" stroke-linejoin="round" stroke-miterlimit="10" fill="none"/><path d="M6.96 253.52 10.24 256.01 10.25 256.01 22.56 265.35 22.57 265.35 34.88 274.68 40.39 278.86 40.4 278.86" stroke="#263238" stroke-width="0.5" stroke-linecap="round" stroke-linejoin="round" stroke-miterlimit="10" fill="none"/></g></g></g></svg>