<svg width="255.91" height="264.6" viewBox="0 0 255.91 264.6" xmlns="http://www.w3.org/2000/svg" xmlns:xlink="http://www.w3.org/1999/xlink" xml:space="preserve" overflow="hidden"><defs></defs><g><linearGradient x1="20.4346" y1="195.962" x2="115.439" y2="178.192" gradientUnits="userSpaceOnUse" id="SVGID_1_"><stop offset="0" stop-color="#FFFFFF" stop-opacity="0"/><stop offset="0.0346" stop-color="#F8F8F8" stop-opacity="0.0346"/><stop offset="0.2305" stop-color="#D3D3D3" stop-opacity="0.2305"/><stop offset="0.4267" stop-color="#B6B6B6" stop-opacity="0.4267"/><stop offset="0.6213" stop-color="#A1A1A1" stop-opacity="0.6213"/><stop offset="0.8133" stop-color="#959595" stop-opacity="0.8133"/><stop offset="1" stop-color="#919191"/></linearGradient><radialGradient cx="199.733" cy="16.5717" r="12.1543" gradientUnits="userSpaceOnUse" id="SVGID_2_" gradientTransform="matrix(0.9008 -0.4343 0.3378 0.7006 14.2189 91.6978)"><stop offset="0.3447" stop-color="#FFFFFF" stop-opacity="0"/><stop offset="0.3673" stop-color="#F8F8F8" stop-opacity="0.0346"/><stop offset="0.4957" stop-color="#D3D3D3" stop-opacity="0.2305"/><stop offset="0.6243" stop-color="#B6B6B6" stop-opacity="0.4267"/><stop offset="0.7518" stop-color="#A1A1A1" stop-opacity="0.6213"/><stop offset="0.8777" stop-color="#959595" stop-opacity="0.8133"/><stop offset="1" stop-color="#919191"/></radialGradient><linearGradient x1="214.541" y1="33.9469" x2="205.947" y2="26.8876" gradientUnits="userSpaceOnUse" id="SVGID_3_"><stop offset="0" stop-color="#FFFFFF" stop-opacity="0"/><stop offset="0.0346" stop-color="#F8F8F8" stop-opacity="0.0346"/><stop offset="0.2305" stop-color="#D3D3D3" stop-opacity="0.2305"/><stop offset="0.4267" stop-color="#B6B6B6" stop-opacity="0.4267"/><stop offset="0.6213" stop-color="#A1A1A1" stop-opacity="0.6213"/><stop offset="0.8133" stop-color="#959595" stop-opacity="0.8133"/><stop offset="1" stop-color="#919191"/></linearGradient><radialGradient cx="192.66" cy="87.9321" r="27.5851" gradientUnits="userSpaceOnUse" id="SVGID_4_" gradientTransform="matrix(1 0 0 0.7334 0 23.4386)"><stop offset="0.2182" stop-color="#FFFFFF" stop-opacity="0"/><stop offset="0.2453" stop-color="#F8F8F8" stop-opacity="0.0346"/><stop offset="0.3984" stop-color="#D3D3D3" stop-opacity="0.2305"/><stop offset="0.5518" stop-color="#B6B6B6" stop-opacity="0.4267"/><stop offset="0.7039" stop-color="#A1A1A1" stop-opacity="0.6213"/><stop offset="0.854" stop-color="#959595" stop-opacity="0.8133"/><stop offset="1" stop-color="#919191"/></radialGradient><linearGradient x1="212.073" y1="124.727" x2="203.892" y2="109.108" gradientUnits="userSpaceOnUse" id="SVGID_5_"><stop offset="0" stop-color="#FFFFFF" stop-opacity="0"/><stop offset="0.0346" stop-color="#F8F8F8" stop-opacity="0.0346"/><stop offset="0.2305" stop-color="#D3D3D3" stop-opacity="0.2305"/><stop offset="0.4267" stop-color="#B6B6B6" stop-opacity="0.4267"/><stop offset="0.6213" stop-color="#A1A1A1" stop-opacity="0.6213"/><stop offset="0.8133" stop-color="#959595" stop-opacity="0.8133"/><stop offset="1" stop-color="#919191"/></linearGradient><linearGradient x1="184.839" y1="160.285" x2="133.895" y2="149.953" gradientUnits="userSpaceOnUse" id="SVGID_6_"><stop offset="0" stop-color="#FFFFFF" stop-opacity="0"/><stop offset="0.0346" stop-color="#F8F8F8" stop-opacity="0.0346"/><stop offset="0.2305" stop-color="#D3D3D3" stop-opacity="0.2305"/><stop offset="0.4267" stop-color="#B6B6B6" stop-opacity="0.4267"/><stop offset="0.6213" stop-color="#A1A1A1" stop-opacity="0.6213"/><stop offset="0.8133" stop-color="#959595" stop-opacity="0.8133"/><stop offset="1" stop-color="#919191"/></linearGradient><linearGradient x1="192.524" y1="207.484" x2="204.28" y2="159.389" gradientUnits="userSpaceOnUse" id="SVGID_7_"><stop offset="0" stop-color="#FFFFFF" stop-opacity="0"/><stop offset="0.0346" stop-color="#F8F8F8" stop-opacity="0.0346"/><stop offset="0.2305" stop-color="#D3D3D3" stop-opacity="0.2305"/><stop offset="0.4267" stop-color="#B6B6B6" stop-opacity="0.4267"/><stop offset="0.6213" stop-color="#A1A1A1" stop-opacity="0.6213"/><stop offset="0.8133" stop-color="#959595" stop-opacity="0.8133"/><stop offset="1" stop-color="#919191"/></linearGradient><linearGradient x1="118.479" y1="189.771" x2="158.804" y2="212.326" gradientUnits="userSpaceOnUse" id="SVGID_8_"><stop offset="0" stop-color="#FFFFFF" stop-opacity="0"/><stop offset="0.0346" stop-color="#F8F8F8" stop-opacity="0.0346"/><stop offset="0.2305" stop-color="#D3D3D3" stop-opacity="0.2305"/><stop offset="0.4267" stop-color="#B6B6B6" stop-opacity="0.4267"/><stop offset="0.6213" stop-color="#A1A1A1" stop-opacity="0.6213"/><stop offset="0.8133" stop-color="#959595" stop-opacity="0.8133"/><stop offset="1" stop-color="#919191"/></linearGradient><linearGradient x1="30.1052" y1="115.345" x2="8.2382" y2="90.3542" gradientUnits="userSpaceOnUse" id="SVGID_9_"><stop offset="0" stop-color="#FFFFFF" stop-opacity="0"/><stop offset="0.0346" stop-color="#F8F8F8" stop-opacity="0.0346"/><stop offset="0.2305" stop-color="#D3D3D3" stop-opacity="0.2305"/><stop offset="0.4267" stop-color="#B6B6B6" stop-opacity="0.4267"/><stop offset="0.6213" stop-color="#A1A1A1" stop-opacity="0.6213"/><stop offset="0.8133" stop-color="#959595" stop-opacity="0.8133"/><stop offset="1" stop-color="#919191"/></linearGradient><linearGradient x1="120.102" y1="93.8293" x2="143.879" y2="92.3821" gradientUnits="userSpaceOnUse" id="SVGID_10_"><stop offset="0" stop-color="#FFFFFF" stop-opacity="0"/><stop offset="0.0346" stop-color="#F8F8F8" stop-opacity="0.0346"/><stop offset="0.2305" stop-color="#D3D3D3" stop-opacity="0.2305"/><stop offset="0.4267" stop-color="#B6B6B6" stop-opacity="0.4267"/><stop offset="0.6213" stop-color="#A1A1A1" stop-opacity="0.6213"/><stop offset="0.8133" stop-color="#959595" stop-opacity="0.8133"/><stop offset="1" stop-color="#919191"/></linearGradient><linearGradient x1="85.2716" y1="250.095" x2="98.7104" y2="250.922" gradientUnits="userSpaceOnUse" id="SVGID_11_"><stop offset="0" stop-color="#FFFFFF" stop-opacity="0"/><stop offset="0.0346" stop-color="#F8F8F8" stop-opacity="0.0346"/><stop offset="0.2305" stop-color="#D3D3D3" stop-opacity="0.2305"/><stop offset="0.4267" stop-color="#B6B6B6" stop-opacity="0.4267"/><stop offset="0.6213" stop-color="#A1A1A1" stop-opacity="0.6213"/><stop offset="0.8133" stop-color="#959595" stop-opacity="0.8133"/><stop offset="1" stop-color="#919191"/></linearGradient><linearGradient x1="233.85" y1="219.92" x2="211.815" y2="213.333" gradientUnits="userSpaceOnUse" id="SVGID_12_"><stop offset="0" stop-color="#FFFFFF" stop-opacity="0"/><stop offset="0.0346" stop-color="#F8F8F8" stop-opacity="0.0346"/><stop offset="0.2305" stop-color="#D3D3D3" stop-opacity="0.2305"/><stop offset="0.4267" stop-color="#B6B6B6" stop-opacity="0.4267"/><stop offset="0.6213" stop-color="#A1A1A1" stop-opacity="0.6213"/><stop offset="0.8133" stop-color="#959595" stop-opacity="0.8133"/><stop offset="1" stop-color="#919191"/></linearGradient><path d="M104.95 176.41C103.42 175.79 96.04 184.97 81.26 194.14 67.34 202.78 46.18 211.4 38.94 211.8 25.29 212.55 18.55 209.42 15.82 194.95 13.52 182.75 15.22 159.85 25.61 151.9 26.1 151.52 30.02 147.19 28.91 147.07 23.48 146.48 16.56 157.29 14.2 160.96 7.72 171.1 4.07 183.03 1.79 194.75-2.31 215.85-1.2 239.28 24.98 241.12 43.48 242.42 56.54 232.16 72.67 223.01 81.16 218.2 102.63 202.5 107.74 194.14 109.89 190.63 113.24 179.8 104.95 176.41Z" fill="#396285"/><path d="M104.95 176.41C103.42 175.79 96.04 184.97 81.26 194.14 67.34 202.78 46.18 211.4 38.94 211.8 25.29 212.55 18.55 209.42 15.82 194.95 13.52 182.75 15.22 159.85 25.61 151.9 26.1 151.52 30.02 147.19 28.91 147.07 23.48 146.48 16.56 157.29 14.2 160.96 7.72 171.1 4.07 183.03 1.79 194.75-2.31 215.85-1.2 239.28 24.98 241.12 43.48 242.42 56.54 232.16 72.67 223.01 81.16 218.2 102.63 202.5 107.74 194.14 109.89 190.63 113.24 179.8 104.95 176.41Z" fill="url(#SVGID_1_)"/><path d="M255.56 153.19C240.38 152.81 225.2 152.53 210.02 152.09 202.98 151.89 195.92 151.66 188.88 151.37 179.38 150.98 169.89 150.5 160.39 149.85 157.23 149.63 154.07 149.41 150.92 149.16 150.92 149.16 165.03 131.7 198.71 115.56 199.24 116.19 199.79 116.86 200.36 117.57 201.79 119.34 203.29 121.28 204.61 123.08 205.84 124.75 206.92 126.29 207.66 127.49 207.86 127.81 217.95 119.54 217.3 118.34 216.62 117.09 215.9 115.86 215.14 114.64 213.97 112.76 212.72 110.92 211.44 109.08 215.36 107.52 222.6 103.4 227.85 99.48 229.27 98.42 230.54 97.38 231.56 96.41 239.77 88.63 243.33 81.22 239.9 78.16 232.88 71.9 218.01 59.56 196.24 61.24 189.82 61.74 185.06 64.18 182 69.99 181.41 71.11 181.1 72.48 181.01 74.03 180.44 83.05 187.31 98.18 192.03 104.88 180.59 109.71 174.07 113.65 163.53 119.65 149.45 127.69 127.65 146.03 130.89 164.79 130.89 164.8 130.89 164.8 130.89 164.81 130.85 165.37 131.05 165.66 131.48 165.69 131.59 165.69 131.71 165.68 131.86 165.65 136.02 165.29 140.07 165.21 144.05 165.29 157.73 165.6 170.68 168 185 168.9 192.38 169.36 199.77 169.79 207.16 170.22L207.14 170.23C202.99 172.12 198.88 174.06 194.82 176.12 180.8 183.22 165.86 190.39 154.35 201.29 153.99 201.64 153.63 201.98 153.27 202.34 150.81 204.78 147.9 207.77 145.35 211.07 134.2 202.58 122.13 187.12 117.16 172.3 115 165.85 113.11 159.39 111.33 152.87 103.58 124.39 98.1 94.72 82.81 59.68 82.25 58.39 75.24 81.3 75.93 84.24 84.55 121.18 87.72 141.88 92.91 161.88 95.82 173.15 99.36 184.2 104.89 197.82 113.17 218.22 126.72 229.15 145.38 236.75 145.49 236.81 145.6 236.84 145.71 236.89 154.69 243.94 169.1 245.16 179.36 248.65 183.4 250.08 193.64 234.36 192.37 233.76 184.14 229.91 175.93 227.12 168.37 221.97 164.92 219.61 161.07 217.33 158.87 213.61 158.55 213.08 157.94 210.38 157.5 208.47 183.31 192.58 211.55 180.5 240.67 172.26 243.66 171.42 250.57 163.07 253.96 157.69 255.6 155.13 256.42 153.21 255.56 153.19ZM193.78 74.94C195.08 71.99 197.78 71.1 201.06 71.46 201.21 71.48 201.35 71.5 201.48 71.52 201.71 71.55 201.94 71.59 202.17 71.63 202.31 71.65 202.44 71.67 202.58 71.71 202.6 71.71 202.62 71.72 202.63 71.72 202.67 71.73 202.68 71.73 202.68 71.73 211.57 73.6 223.56 82.87 225.08 85.81 223.68 88.97 214.71 94.38 204.35 98.81 204.14 98.5 203.91 98.13 203.66 97.73 200.13 92.16 192.22 78.49 193.78 74.94Z" fill="#396285"/><path d="M139.39 0C139.39 0 137.67 2.51 131.76 6.43 129.85 7.7 125.88 9.21 123.76 10.09 118.29 12.36 112.79 14.57 107.31 16.82 96.97 21.05 86.61 25.25 76.19 29.28 61.69 34.87 47.64 39.5 41.98 49.99 40.14 53.39 39.44 57.59 42.65 54.75 57.54 41.54 75.56 36.37 93.85 29.41 103.08 25.9 112.24 21.95 121.65 18.95 127.82 16.98 132.18 14.89 136.09 10.68 138.98 7.54 140.6 1.9 139.39 0Z" fill="#396285"/><path d="M177.26 10.66C177.26 10.66 173.87 15.33 168.05 17.98 165.96 18.93 143.42 28.04 133 32.06 118.5 37.65 104.45 42.28 98.79 52.77 96.95 56.17 96.71 57.55 99.98 54.77 108.54 47.5 113.26 45.44 131.66 38.78 146.84 33.29 167.48 26.57 172.07 21.88 173.05 20.88 178.47 12.56 177.26 10.66Z" fill="#396285"/><path d="M41.47 115.92C39.57 117.82 34.02 120.68 35.25 118.69 36.69 116.35 39.16 115.59 40.42 113.51 43.58 108.28 47.92 97.62 43.51 92.33 39.31 87.28 23.56 95.46 17.61 98.52 22.01 102.25 24.97 103.68 30.38 105.82 31.37 106.2 27.28 112.07 26.26 111.75 20.01 109.73 16.36 108.04 11.34 103.79 10.81 103.34 11.7 101.87 12.26 101.03 12.27 101.03 12.27 101.03 12.28 101.02 12.45 100.78 12.59 100.58 12.65 100.49 19.19 91.3 33.53 78.18 46.06 82.12 60.94 86.81 50.16 107.18 41.47 115.92Z" fill="#396285"/><path d="M107.8 240.18C104.4 239.2 100.88 242.44 99.77 247.62 99.28 249.86 98.63 255.03 98.15 257.28 97.9 258.45 97.29 259.61 96.53 260.68 95.53 262.1 94.26 263.39 93.2 264.47 92.83 264.84 89.18 264.43 88.95 262.58 88.69 260.36 82.83 235.83 78.11 240.8 75.59 243.45 77 240.4 78.26 239.06 81.92 235.18 84.07 234.58 88.13 238.95 90.39 241.37 92.21 247.26 93.75 250.19 94.43 246.38 99.36 238.77 99.99 238.02 104.09 233.07 106.37 232.93 111.93 232.95 113.23 232.96 108.6 240.41 107.8 240.18Z" fill="#396285"/><path d="M153.22 92.05C151.82 95.24 148.44 99.92 144.84 100.85 141.01 101.83 138.21 98.66 136.21 94.27 135.05 97.27 132.93 99.8 129.09 101.43 122.23 104.33 118.07 99.17 117.74 92.85 117.7 92.18 117.76 91.12 117.82 89.85 118.12 84.37 118.69 75 113.72 76.77 113.74 76.76 114.77 74.91 115.36 74.53 123.32 69.38 123.38 78.66 123.55 84.86 123.6 86.6 123.64 88.11 123.89 88.98 125.72 95.57 132.23 93.91 134.25 90.05 134.23 90.02 134.22 90 134.22 89.97 133.98 89.18 131.8 82.09 132.18 74.32 132.31 71.69 136.96 69.23 137.96 68.42L138.03 71.69C137.41 78.53 138.46 87.24 143.07 92.6 143.94 93.61 145.63 95.51 147.23 94.87 149.65 93.9 149 89.19 148.55 87.41 147.32 82.66 145.58 79.84 145.18 74.91 145.03 73.11 146.96 71.39 148.06 70.3 148.28 70.08 151.61 66.85 151.63 68.31 151.74 76.42 156.76 83.95 153.22 92.05Z" fill="#396285"/><g><path d="M214.05 204.84C214.05 204.84 214.04 204.85 214.04 204.85 214.03 204.88 214.04 204.88 214.05 204.84Z" fill="#396285"/><path d="M241.31 216.51C239.42 218.78 236.85 220.63 234.29 222.09 229.66 224.73 220.2 227.11 214.98 223.69 214.37 223.29 213.83 222.82 213.35 222.25 207.96 215.92 219.66 205.79 223.43 200.16 221.56 200.11 219.68 200.02 217.81 200.13 217.23 200.17 215.28 200.18 214.62 200.55 215.06 200.55 214.09 204.57 214.04 204.84 213.85 205.37 211.15 207.48 211.07 207.13 209.93 202.39 212.81 199.45 216.59 196.97 221.14 194.01 226.25 194.4 231.48 194.14 231.76 194.13 231.86 194.26 231.8 194.52 231.17 196.07 229.48 198.26 227.63 200.72 227.6 200.76 227.53 200.86 227.4 201.02 227.33 201.1 227.27 201.19 227.2 201.27 227.2 201.28 227.19 201.29 227.18 201.3 225.82 203.11 224.4 205.04 223.28 206.95 221.11 210.63 220.01 214.22 222.35 216.7 226.2 220.79 236.95 215.76 241.53 214 243.98 213.08 241.83 215.88 241.31 216.51Z" fill="#396285"/></g><path d="M201.1 3.67C199.4 4.68 197.5 6.42 196.15 8.33 195.42 9.36 194.86 10.45 194.57 11.5 193.2 16.63 198.04 21.96 201.07 25.61 196.86 30.46 188.14 34.32 181.61 36.14 179.25 36.8 176.97 39.88 175.67 41.73 175.36 42.17 171.53 48.68 174.09 47.74 184.86 43.78 197.22 37.34 203.92 31.86 204.59 31.32 205.21 30.79 205.81 30.27 205.87 30.22 205.91 30.18 205.95 30.14 206.83 31.29 209.04 34 211.45 35.67 211.45 35.67 213.71 34.45 215.11 30.11 215.11 30.11 212.31 28.5 209.72 26.5 213.34 22.57 215.69 18.54 217.57 13.36 220.44 5.47 207.99-0.45 201.1 3.67ZM205.13 21.93C203.19 19.24 200.81 16.11 199.73 12.93 198.93 10.59 198.19 9.01 200.04 7.94 200.43 7.71 200.89 7.6 201.42 7.56L201.45 7.56C202.86 7.47 204.55 7.98 205.62 8.51 211.22 11.3 210.08 17.09 206.31 20.93 205.79 21.45 205.13 21.93 205.13 21.93Z" fill="#396285"/><path d="M205.13 21.93 201.08 25.61C198.05 21.96 193.21 16.63 194.58 11.5 194.86 10.45 195.42 9.36 196.16 8.33 197.78 7.82 199.57 7.48 201.3 7.55 201.34 7.55 201.38 7.55 201.42 7.56 200.89 7.6 200.44 7.71 200.04 7.94 198.19 9.01 198.93 10.59 199.73 12.93 200.8 16.1 203.19 19.24 205.13 21.93Z" fill="#396285"/><path d="M205.13 21.93 201.08 25.61C198.05 21.96 193.21 16.63 194.58 11.5 194.86 10.45 195.42 9.36 196.16 8.33 197.78 7.82 199.57 7.48 201.3 7.55 201.34 7.55 201.38 7.55 201.42 7.56 200.89 7.6 200.44 7.71 200.04 7.94 198.19 9.01 198.93 10.59 199.73 12.93 200.8 16.1 203.19 19.24 205.13 21.93Z" fill="url(#SVGID_2_)"/><path d="M215.12 30.11C213.72 34.45 211.46 35.67 211.46 35.67 209.05 33.99 206.85 31.29 205.96 30.14 207.12 29.14 209.72 26.5 209.72 26.5 212.31 28.49 215.12 30.11 215.12 30.11Z" fill="url(#SVGID_3_)"/><path d="M204.35 98.8C201.5 100.06 192.03 104.88 192.03 104.88 187.31 98.18 180.44 83.05 181.01 74.03 187.36 70.04 197.22 70.92 201.06 71.46 197.78 71.1 195.09 71.99 193.78 74.94 192.1 78.74 201.33 94.2 204.35 98.8Z" fill="url(#SVGID_4_)"/><path d="M207.65 127.49C205.78 124.48 201.83 119.31 198.7 115.57L211.43 109.08C213.54 112.11 215.58 115.16 217.29 118.34 217.94 119.53 207.85 127.81 207.65 127.49Z" fill="url(#SVGID_5_)"/><path d="M210.02 152.1 207.17 170.24C199.78 169.81 192.39 169.38 185.01 168.92 170.69 168.02 157.73 165.62 144.06 165.31 145.23 156.3 150.93 149.17 150.93 149.17 154.08 149.42 157.24 149.65 160.4 149.86 169.89 150.51 179.38 150.99 188.89 151.38 195.92 151.67 202.97 151.9 210.02 152.1Z" fill="url(#SVGID_6_)"/><path d="M240.66 172.3C211.55 180.54 183.3 192.62 157.49 208.51L154.35 201.32C165.86 190.41 180.8 183.25 194.82 176.15 198.88 174.09 203 172.14 207.14 170.26L207.16 170.25C207.16 170.24 243.65 171.46 240.66 172.3Z" fill="url(#SVGID_7_)"/><path d="M145.37 236.78C126.7 229.18 113.16 218.26 104.88 197.85 99.36 184.23 95.81 173.18 92.9 161.91L111.33 152.9C113.11 159.43 115.01 165.88 117.16 172.33 122.12 187.15 134.19 202.61 145.35 211.1 141.26 216.61 138.07 227.82 145.37 236.78Z" fill="url(#SVGID_8_)"/><path d="M26.27 111.75C20.02 109.73 16.37 108.04 11.35 103.79 10.82 103.34 11.71 101.87 12.27 101.03 12.28 101.03 12.28 101.03 12.29 101.02 14.57 99.36 17.62 98.53 17.62 98.53 22.02 102.26 24.98 103.69 30.39 105.83 31.38 106.2 27.28 112.07 26.27 111.75Z" fill="url(#SVGID_9_)"/><path d="M136.22 94.27C135.06 97.27 132.94 99.8 129.1 101.43 122.24 104.33 118.08 99.17 117.75 92.85 117.71 92.18 117.77 91.12 117.83 89.85 119.58 88.21 121.6 86.4 123.56 84.86 123.61 86.6 123.65 88.11 123.9 88.98 125.73 95.57 132.24 93.91 134.26 90.05 135.12 91.99 135.91 93.22 136.22 94.27Z" fill="url(#SVGID_10_)"/><path d="M96.52 260.68C95.52 262.1 94.25 263.39 93.19 264.47 92.82 264.84 89.17 264.43 88.94 262.58 88.68 260.36 82.82 235.83 78.1 240.8 75.58 243.45 76.99 240.4 78.25 239.06 81.91 235.18 84.06 234.58 88.12 238.95 90.38 241.37 92.2 247.26 93.74 250.19 94.49 252.69 95.81 256.71 96.52 260.68Z" fill="url(#SVGID_11_)"/><path d="M241.31 216.51C239.42 218.78 236.85 220.63 234.29 222.09 229.66 224.73 220.2 227.11 214.98 223.69 210.02 218.64 220.33 211.51 223.28 206.96 221.11 210.64 220.01 214.23 222.35 216.71 226.2 220.8 236.95 215.77 241.53 214.01 243.98 213.08 241.83 215.88 241.31 216.51Z" fill="url(#SVGID_12_)"/></g></svg>