<svg width="258.26" height="536.68" viewBox="0 0 258.26 536.68" xmlns="http://www.w3.org/2000/svg" xmlns:xlink="http://www.w3.org/1999/xlink" xml:space="preserve" overflow="hidden"><defs></defs><g><g><path d="M249.95 247.94C249.95 354.74 195.78 441.32 128.96 441.32 75.02 441.32 29.32 384.89 13.71 306.94 11.44 295.58 7.31 270.04 7.31 270.04 7.31 270.04 7.97 255.95 7.97 247.94 7.97 177.68 31.41 116.17 66.48 82.31 84.72 64.7 174.57 65.36 193.19 84.03 227.28 118.23 249.95 178.86 249.95 247.94Z" fill="#56101B"/><path d="M128.96 64.76C62.14 64.76 7.97 147.25 7.97 249.01 7.97 256.26 8.25 263.42 8.78 270.45 26.25 275.2 46.33 174.92 125.47 175.52 202.89 173.56 231.35 271.38 249.12 270.66 249.66 263.56 249.95 256.33 249.95 249.01 249.95 147.26 195.78 64.76 128.96 64.76Z" fill="#F4ECED"/><path d="M150.8 67.76C137.42 69.9 127.33 72.41 127.33 72.41 127.33 72.41 117.96 70.07 105.73 68.16 50.03 84.67 7.99 159.36 7.99 249.01 7.99 256.26 8.27 263.41 8.8 270.44 8.99 270.49 9.17 270.54 9.36 270.57 13.61 271.19 18.04 265.77 23.46 257.26 40.84 216.97 68.22 145.29 125.88 145.75 181.7 144.27 213.18 212.9 232.05 254.19 238.87 263.99 244.26 270.66 248.92 270.68L248.93 270.68C248.98 270.68 249.04 270.68 249.09 270.68 249.1 270.68 249.12 270.68 249.13 270.68 249.67 263.58 249.96 256.35 249.96 249.03 249.95 158.61 207.19 83.42 150.8 67.76Z" fill="#CFB7B4"/><path d="M248.39 279.07C230.62 282.45 203.89 377.08 127.95 376.86 50.29 379.19 27.37 283.05 10.13 284.39 11.05 292.08 12.25 299.61 13.72 306.94 29.33 384.89 75.03 441.32 128.97 441.32 189.15 441.32 239.07 371.07 248.39 279.07Z" fill="#F4ECED"/><path d="M249 272.21C244.94 274.08 184.34 398 128.51 396.52 70.85 396.98 7.75 271.29 7.57 271.34 7.15 276.87 10.76 282.97 10.67 288.64 11.5 294.86 12.52 300.96 13.72 306.94 29.33 384.89 75.03 441.32 128.97 441.32 190.64 441.32 241.53 367.56 249 272.21Z" fill="#CFB7B4"/><path d="M4.36 268.24C3.48 266.59 3.05 264.73 2.9 262.87-6.8 142.62 6.65 74.48 60.66 53.68 81.49 45.66 128.96 57.54 128.96 57.54 128.96 57.54 183.63 42.54 204.83 54.57 255.2 83.16 264.31 187.22 255.07 257.07 253.95 265.5 250.27 271.91 248.1 270.58 232.9 261.29 204.42 128.84 127.52 130.87 53.34 130.28 29.6 251.62 12.65 269.55 9.69 272.67 6.49 272.21 4.36 268.24Z" fill="#FF9082"/><path d="M249.95 269.75C232.19 280.39 204.41 410.12 127.51 408.08 52.98 408.68 22.73 284.98 5.6 268.23 6.97 269.56 9.19 292.16 9.41 294.99 10.87 313.73 13.01 332.44 15.63 351.05 21.15 390.23 27.24 435.5 53.11 467.17 74.89 493.83 102.16 499.43 135.15 499.43 183.78 499.43 218.3 477.13 234.46 430.6 248.23 390.95 250.02 345.98 250.36 304.36 250.38 301.82 249.13 270.24 249.95 269.75Z" fill="#FF9082"/></g><g opacity="0.33"><path d="M83.49 416.16C83.49 416.16 54.31 447.87 86.87 480.43 86.88 480.44 71.65 461.41 83.49 416.16Z" fill="#FF9082"/><path d="M55.58 397.98C55.58 397.98 26.4 429.69 58.96 462.25 58.97 462.25 43.74 443.23 55.58 397.98Z" fill="#FF9082"/><path d="M217.85 389.44C217.85 389.44 247.03 421.15 214.47 453.71 214.47 453.72 229.69 434.69 217.85 389.44Z" fill="#FF9082"/><path d="M220.37 87.83C220.37 87.83 238.23 127.05 197.15 147.86 197.15 147.85 217.54 134.51 220.37 87.83Z" fill="#FF9082"/><path d="M178.31 76.16C178.31 76.16 202.31 111.95 165.17 139.17 165.16 139.17 183.11 122.68 178.31 76.16Z" fill="#FF9082"/><path d="M48.5 83.48C48.5 83.48 30.64 122.7 71.72 143.51 71.72 143.51 51.33 130.17 48.5 83.48Z" fill="#FF9082"/><path d="M90.56 71.82C90.56 71.82 66.56 107.61 103.7 134.83 103.71 134.82 85.76 118.34 90.56 71.82Z" fill="#FF9082"/><path d="M179.91 412.56C179.91 412.56 209.09 444.27 176.53 476.83 176.52 476.84 191.75 457.81 179.91 412.56Z" fill="#FF9082"/><path d="M112.25 422.93 112.25 488.05C112.25 488.05 121.97 462.68 112.25 422.93Z" fill="#FF9082"/><path d="M144.38 421.58C144.38 421.58 149.24 469.23 143.11 485.51 143.12 485.51 155.8 458.29 144.38 421.58Z" fill="#FF9082"/></g></g><g><path d="M84.56 7.07C112.62 28.7 153.77 27.22 180.55 4.23 183.03 2.1 179.43-1.47 176.96 0.64 151.77 22.26 113.29 22.86 87.12 2.69 84.53 0.7 82.01 5.11 84.56 7.07L84.56 7.07Z" fill="#410C14"/></g><path d="M155.56 529.66C131.19 519.36 101.41 524.76 101.97 533.01 102.27 537.4 109.42 538.39 109.83 532.98 109.88 532.27 109.68 531.73 109.33 531.33 116.99 530.37 131.53 524.97 153 534.04 155.97 535.3 158.56 530.93 155.56 529.66Z" fill="#410C14"/></svg>