<svg width="456.28" height="338.46" viewBox="0 0 456.28 338.46" xmlns="http://www.w3.org/2000/svg" xmlns:xlink="http://www.w3.org/1999/xlink" xml:space="preserve" overflow="hidden"><defs></defs><g><path d="M453.44 105.64C463.18 134.1 447.96 182.03 407.46 224.53 367.64 266.72 302.55 303.48 228.14 302.56 153.73 303.48 88.64 266.73 48.82 224.53 8.33 182.04-6.89 134.1 2.85 105.64 25.23 47.98 122.85 66.58 228.14 63.88 333.44 66.58 431.05 47.99 453.44 105.64Z" fill="#2B080E"/><g><path d="M339.15 235.4C339.15 235.4 106.57 235.4 106.3 235.4 105.74 235.4 101.98 210.93 101.34 208.5 97.32 193.25 94.3 174.89 103.11 161.09 109.6 150.9 119.54 143.21 129.89 137.25 158.01 121.05 192.09 115.41 224.15 115.41 264.39 115.41 363.64 131.18 349.19 191.88 345.73 206.42 342.4 220.81 339.15 235.4Z" fill="#8F4550" opacity="0.54"/><path d="M312.97 235.4 135.33 235.4 139.12 179C141.52 143.35 178.87 115.4 224.15 115.4L224.15 115.4C269.42 115.4 306.78 143.34 309.17 179L312.97 235.4Z" fill="#56101B"/><path d="M246.44 146.61C245.48 143.81 243.84 141.08 242.08 138.77 239.66 135.6 236.84 132.28 236.28 128.49 235.42 122.66 241.3 116.26 241.17 110.38L214.06 110.38C213.94 116.25 221.69 122.12 220.84 127.94 220.33 131.41 217.51 134.46 215.09 137.22 213.43 139.11 211.61 140.92 210.26 142.96 206.92 148.03 206.83 155.3 212.38 159.35 216.24 162.16 221.59 163.42 226.69 163.62 231.82 163.82 237.31 162.98 241.57 160.56 247.69 157.07 248.19 151.72 246.44 146.61Z" fill="#731624"/><path d="M216.6 139.65C211.51 149.81 215.57 154.77 224.38 155.3 225.71 155.38 226.72 156.52 226.65 157.86 226.49 160.58 223.41 160.09 223.61 160.05 212.98 157.25 208.75 149.84 216.6 139.65Z" fill="#C7A2A7"/></g><path d="M356.04 238.3C344.22 229.55 331.03 222.1 318.1 215.17 279.89 194.7 264.48 195.3 225.42 204.08 223.45 204.52 186.53 188.79 137.07 209.85 124.66 215.14 89.2 224.91 91.26 243.14 95.55 281.18 232.4 302.57 232.4 302.57 232.4 302.57 364.95 259.91 356.04 238.3Z" fill="#ED1C24"/><path d="M407.46 224.53C413.65 218.04 419.24 211.42 424.25 204.76 387.86 191.75 316.7 197.86 241.17 196.69 150.3 198.09 65.74 188.96 40.47 215.28 43.12 218.39 45.91 221.47 48.82 224.53 76.16 253.51 115.43 279.92 161.44 293.32 186.83 292.86 213.99 292.1 241.67 292.81 260.3 292.33 278.7 292.52 296.48 292.84 341.79 279.29 380.44 253.16 407.46 224.53Z" fill="#F4ECED"/><path d="M296.49 292.84C331.47 282.38 362.48 264.42 387.24 243.6 346.73 250.96 295.46 251.15 242.11 252.52 169.09 250.65 99.56 250.98 56.33 232.13 83.14 258.07 119.49 281.11 161.45 293.33L296.49 292.84Z" fill="#CFB7B4"/><path d="M237.92 201.4 241.68 258.72 233.13 258.72Z" fill="#CFB7B4"/><path d="M161.16 258.72 164.92 204.41 151.48 258.72Z" fill="#CFB7B4"/><path d="M312 258.72 304.47 206.82 320.07 258.72Z" fill="#CFB7B4"/><path d="M431.62 137.27C440.44 121.78 426.65 95.69 389.99 72.57 385.68 69.82 381.03 67.12 376.09 64.49 335.07 60.98 282.63 65.28 228.14 63.89 173.11 65.3 120.17 60.89 78.97 64.6 74.1 67.2 69.53 69.87 65.27 72.58 28.61 95.71 14.83 121.8 23.64 137.28 43.92 168.65 132.3 158.53 227.64 160 322.97 158.53 411.36 168.65 431.62 137.27Z" fill="#F4ECED"/><path d="M432.55 135.42C439.34 119.76 425.24 94.8 390 72.56 385.69 69.81 381.04 67.11 376.1 64.48 335.08 60.97 282.64 65.27 228.15 63.88 173.12 65.29 120.18 60.88 78.98 64.59 74.11 67.19 69.54 69.86 65.28 72.57 29.57 95.1 15.57 120.43 23.01 136.05 62.31 105.55 143.05 106.38 228.57 104.19 313.5 106.36 393.17 105.56 432.55 135.42Z" fill="#CFB7B4"/><path d="M224.38 155.29 228.14 97.97 219.6 97.97Z" fill="#CFB7B4"/><path d="M147.62 97.97 151.38 152.28 137.94 97.97Z" fill="#CFB7B4"/><path d="M298.46 97.97 290.94 149.87 306.53 97.97Z" fill="#CFB7B4"/><path d="M228.57 88.05C333.81 90.75 430.96 88.88 453.41 146.43 457.24 130.85 457.25 116.76 453.44 105.65 431.06 47.99 331.02 27.53 225.73 24.84 120.43 27.53 25.23 47.99 2.85 105.64-0.95 116.76-0.95 130.85 2.88 146.42 25.33 88.87 123.33 90.74 228.57 88.05Z" fill="#FF9082"/><path d="M453.4 146.43C445.68 171.32 435.27 194.05 407.46 216.55 367.15 249.15 311.81 267.09 237.41 266.17 163 267.09 88.65 266.73 48.83 224.54 24.16 198.64 8.87 170.73 2.89 146.43 2.88 146.46 2.87 146.49 2.86 146.52-6.88 174.98 8.34 222.91 48.84 265.41 88.66 307.6 158.75 339.37 233.15 338.44 307.56 339.36 367.66 307.6 407.47 265.41 447.96 222.91 463.18 174.98 453.45 146.52 453.42 146.49 453.41 146.46 453.4 146.43Z" fill="#FF9082"/></g><g><path d="M4.59 67.7C30.02 40.5 60.66 19.13 94.95 4.61 97.95 3.34 95.36-1.03 92.39 0.23 57.73 14.9 26.7 36.62 1 64.11-1.23 66.5 2.35 70.09 4.59 67.7L4.59 67.7Z" fill="#410C14"/></g><g><path d="M371.42 15.71C398.01 20.38 422.09 32.82 441.19 51.91 443.5 54.22 447.09 50.63 444.78 48.32 425.11 28.66 400.17 15.62 372.77 10.81 369.58 10.25 368.21 15.14 371.42 15.71L371.42 15.71Z" fill="#410C14"/></g></svg>