<svg width="590.04" height="261.28" viewBox="0 0 590.04 261.28" xmlns="http://www.w3.org/2000/svg" xmlns:xlink="http://www.w3.org/1999/xlink" xml:space="preserve" overflow="hidden"><defs></defs><g><g><path d="M234.17 178.28 562.07 29.29 562.69 38.72 241.57 184.96Z" fill="#E8A04B"/><path d="M579.74 0.04C576.69 0.52 549.85 32.34 542.45 50.67 535.06 68.99 540.84 75.74 543.74 70.28 546.63 64.82 558.6 44.23 567.37 32.91 576.77 20.78 590.51 11.29 590.03 7.44 589.55 3.58 582.8-0.44 579.74 0.04Z" fill="#FFFFFF"/></g></g><g><path d="M232.93 172.73C232.93 172.73 196.76 170.7 173.91 164.81 151.3 158.98 129.47 146.07 129.47 146.07L131.43 140.18C131.43 140.18 160.17 153.57 177.49 157.5 194.81 161.43 238.01 170 238.01 170L232.93 172.73Z" fill="#AA7D3C"/><path d="M241.04 170.34C241.04 170.34 192.75 140.71 176.42 133.75 160.09 126.79 136.97 118.75 119.05 139.15L129.47 146.07C141.1 129.75 168.3 144.46 184.36 151.16 200.43 157.85 241.39 176.6 241.39 176.6L241.04 170.34Z" fill="#E8A04B"/><ellipse cx="244.49" cy="176.55" rx="12.18" ry="12.18" fill="#5E442A" transform="matrix(0.7071 -0.7071 0.7071 0.7071 -53.23 224.595)"/><path d="M121.67 103.49C128.48 125.75 138.55 166.13 168.94 231.46L168.72 230.41C168.72 230.41 141.3 201.87 127.17 164.99 119.97 146.2 110.74 117.65 108.48 110.67 101.22 88.21 91 49.9 80.81 46.17 70.62 42.44 4.11 62.28 4.11 62.28L0.28 52.93C0.28 52.93 35.25 40.05 52.59 35.75 69.94 31.44 81.71 26.62 90.26 29.86 98.81 33.09 111.58 70.54 121.67 103.49Z" fill="#E8A04B"/><circle cx="125.4" cy="137.22" r="9.17" fill="#5E442A"/><path d="M38.31 39.14C38.31 39.14 0.42 51.19 0.02 52.39-0.38 53.59 4.71 63.9 5.64 63.9 6.57 63.9 42.73 53.41 43.13 52.34 43.53 51.28 39.65 39.32 38.31 39.14Z" fill="#302C2D"/><path d="M147.74 171.95 129.35 178.02C129.35 178.02 162.76 236.4 180.7 246.84L182.84 246.84C172.71 229.68 155.67 194.59 147.74 171.95Z" fill="#302C2D"/><g><path d="M131.53 259.94C129.43 254.55 128.93 248.41 130.92 242.98 132.8 237.83 137.01 233.72 142.18 231.87 144.91 230.89 154.52 230.78 154.86 235.7 154.39 228.77 160.19 223.02 166.16 219.47 173.46 215.14 182.31 212.47 190.46 214.82 198.61 217.17 205.21 225.84 203.05 234.04 206.32 228.55 213.38 225.64 219.56 227.22 225.74 228.8 230.53 234.75 230.76 241.13L131.53 259.94Z" fill="#775537"/><path d="M131.53 261.28C130.99 261.28 130.49 260.96 130.28 260.42 127.89 254.31 127.67 247.95 129.66 242.51 131.66 237.04 136.17 232.58 141.73 230.59 144 229.78 150.32 229.44 153.8 231.71 153.82 231.73 153.84 231.74 153.87 231.75 155.54 224.92 162.28 220.2 165.48 218.3 174.33 213.05 183.33 211.35 190.84 213.51 197.83 215.52 204.29 222.25 204.79 229.83 208.8 226.21 214.66 224.56 219.9 225.9 226.61 227.62 231.86 234.14 232.11 241.07 232.14 241.81 231.56 242.43 230.82 242.46 230.09 242.49 229.45 241.91 229.43 241.16 229.22 235.38 224.84 229.93 219.24 228.5 213.64 227.06 207.18 229.73 204.22 234.7 203.88 235.27 203.16 235.51 202.55 235.25 201.93 234.99 201.6 234.32 201.77 233.67 203.41 227.42 199.03 218.66 190.1 216.08 180.95 213.44 171.61 217.78 166.86 220.6 163.49 222.6 155.7 228.07 156.21 235.58L156.21 235.58C156.26 236.32 155.7 236.96 154.96 237.01 154.2 237.06 153.58 236.5 153.53 235.76 153.53 235.76 153.53 235.76 153.53 235.76 153.5 235.29 153.34 234.6 152.34 233.95 149.88 232.34 144.5 232.44 142.64 233.11 137.83 234.83 133.92 238.68 132.19 243.42 130.43 248.24 130.64 253.93 132.79 259.43 133.06 260.12 132.72 260.9 132.03 261.17 131.86 261.25 131.69 261.28 131.53 261.28Z" fill="#66482C"/></g><g><path d="M183.18 254.78C187.95 250.17 195 248.04 201.52 249.23 209.03 250.6 215.78 256.05 223.39 255.42L183.18 254.78Z" fill="#775537"/><path d="M222.17 256.81C217.83 256.81 213.79 255.11 209.87 253.47 207.07 252.3 204.18 251.08 201.28 250.55 195.16 249.43 188.58 251.42 184.12 255.74 183.58 256.26 182.74 256.24 182.22 255.71 181.7 255.18 181.72 254.33 182.25 253.81 187.33 248.9 194.81 246.63 201.77 247.91 204.96 248.49 207.99 249.77 210.92 251 215.12 252.77 219.09 254.43 223.29 254.09 224.03 254.03 224.68 254.58 224.74 255.32 224.8 256.06 224.25 256.71 223.51 256.77 223.06 256.79 222.61 256.81 222.17 256.81Z" fill="#66482C"/></g></g></svg>