<svg width="356.11" height="337.61" viewBox="0 0 356.11 337.61" xmlns="http://www.w3.org/2000/svg" xmlns:xlink="http://www.w3.org/1999/xlink" xml:space="preserve" overflow="hidden"><defs></defs><g><g><path d="M300.07 242.89 56.25 242.89 31.51 256.78 324.6 256.78Z" fill="#80C2B8"/><rect x="37.87" y="256.78" width="278.65" height="2.22" fill="#5E5A53"/></g><g><path d="M238.89 226.78 116.42 226.78 102.41 240.67 253.7 240.67Z" fill="#80C2B8"/><rect x="110" y="240.67" width="135.28" height="2.22" fill="#5E5A53"/></g><g><linearGradient x1="207.115" y1="289.827" x2="329.892" y2="208.161" gradientUnits="userSpaceOnUse" id="SVGID_1_"><stop offset="0" stop-color="#E5D9C8"/><stop offset="1" stop-color="#F5E8D5"/></linearGradient><rect x="0" y="280.82" width="356.11" height="56.67" fill="url(#SVGID_1_)"/><rect x="0" y="280.95" width="179.28" height="56.67" fill="#FFF2DE"/><g><g><path d="M42.45 308.76C42.45 301.67 32.94 294.43 29.61 294.43 25.25 294.43 16.77 301.67 16.77 308.76 16.77 311.48 17.62 313.4 19.06 314.75L19.06 337.33 40.15 337.33 40.15 314.75C41.6 313.4 42.45 311.48 42.45 308.76Z" fill="#A1998C" opacity="0.2"/><g><path d="M21.59 337.33 21.59 313.33C21.59 312.42 22.34 311.67 23.25 311.67L23.25 311.67C24.16 311.67 24.91 312.42 24.91 313.33L24.91 337.33 21.59 337.33Z" fill="#A1998C"/><path d="M34.31 337.33 34.31 313.33C34.31 312.42 35.06 311.67 35.97 311.67L35.97 311.67C36.88 311.67 37.63 312.42 37.63 313.33L37.63 337.33 34.31 337.33Z" fill="#A1998C"/><path d="M26.18 337.33 26.18 308.97C26.18 307.08 27.73 305.53 29.62 305.53L29.62 305.53C31.51 305.53 33.06 307.08 33.06 308.97L33.06 337.33 26.18 337.33Z" fill="#A1998C"/></g><g><path d="M32.45 329.39C32.44 329.12 32.42 328.83 32.42 328.53 32.42 326.47 29.61 325.72 29.61 325.72 29.61 325.72 26.8 326.69 26.8 328.53 26.8 328.83 26.78 329.12 26.77 329.39L26.17 329.39 26.17 337.34 33.05 337.34 33.05 329.39 32.45 329.39Z" fill="#5E5A53"/><rect x="21.59" y="329.39" width="3.32" height="7.95" fill="#5E5A53"/><rect x="34.31" y="329.39" width="3.32" height="7.95" fill="#5E5A53"/></g></g><g><path d="M80.21 308.76C80.21 301.67 70.7 294.43 67.37 294.43 63.01 294.43 54.53 301.67 54.53 308.76 54.53 311.48 55.38 313.4 56.82 314.75L56.82 337.33 77.91 337.33 77.91 314.75C79.36 313.4 80.21 311.48 80.21 308.76Z" fill="#A1998C" opacity="0.2"/><g><path d="M59.35 337.33 59.35 313.33C59.35 312.42 60.1 311.67 61.01 311.67L61.01 311.67C61.92 311.67 62.67 312.42 62.67 313.33L62.67 337.33 59.35 337.33Z" fill="#A1998C"/><path d="M72.07 337.33 72.07 313.33C72.07 312.42 72.82 311.67 73.73 311.67L73.73 311.67C74.64 311.67 75.39 312.42 75.39 313.33L75.39 337.33 72.07 337.33Z" fill="#A1998C"/><path d="M63.93 337.33 63.93 308.97C63.93 307.08 65.48 305.53 67.37 305.53L67.37 305.53C69.26 305.53 70.81 307.08 70.81 308.97L70.81 337.33 63.93 337.33Z" fill="#A1998C"/></g><g><path d="M70.21 329.39C70.2 329.12 70.18 328.83 70.18 328.53 70.18 326.47 67.37 325.72 67.37 325.72 67.37 325.72 64.56 326.69 64.56 328.53 64.56 328.83 64.54 329.12 64.53 329.39L63.93 329.39 63.93 337.34 70.81 337.34 70.81 329.39 70.21 329.39Z" fill="#5E5A53"/><rect x="59.35" y="329.39" width="3.32" height="7.95" fill="#5E5A53"/><rect x="72.07" y="329.39" width="3.32" height="7.95" fill="#5E5A53"/></g></g><g><path d="M133.12 302.25C133.12 293.55 121.44 284.66 117.36 284.66 112.01 284.66 101.6 293.54 101.6 302.25 101.6 305.59 102.64 307.95 104.41 309.61L104.41 337.33 130.3 337.33 130.3 309.61C132.08 307.95 133.12 305.59 133.12 302.25Z" fill="#A1998C" opacity="0.2"/><g><path d="M107.52 337.33 107.52 307.87C107.52 306.75 108.44 305.83 109.56 305.83L109.56 305.83C110.68 305.83 111.6 306.75 111.6 307.87L111.6 337.33 107.52 337.33Z" fill="#A1998C"/><path d="M123.14 337.33 123.14 307.87C123.14 306.75 124.06 305.83 125.18 305.83L125.18 305.83C126.3 305.83 127.22 306.75 127.22 307.87L127.22 337.33 123.14 337.33Z" fill="#A1998C"/><path d="M113.15 337.33 113.15 302.52C113.15 300.2 115.05 298.3 117.37 298.3L117.37 298.3C119.69 298.3 121.59 300.2 121.59 302.52L121.59 337.33 113.15 337.33Z" fill="#A1998C"/></g><g><path d="M120.85 327.58C120.84 327.25 120.81 326.89 120.81 326.52 120.81 323.99 117.36 323.07 117.36 323.07 117.36 323.07 113.91 324.27 113.91 326.52 113.91 326.89 113.88 327.24 113.87 327.58L113.13 327.58 113.13 337.33 121.57 337.33 121.57 327.58 120.85 327.58Z" fill="#5E5A53"/><rect x="107.52" y="327.58" width="4.08" height="9.75" fill="#5E5A53"/><rect x="123.14" y="327.58" width="4.08" height="9.75" fill="#5E5A53"/></g></g><g><path d="M255.2 302.25C255.2 293.55 243.52 284.66 239.44 284.66 234.09 284.66 223.68 293.54 223.68 302.25 223.68 305.59 224.72 307.95 226.49 309.61L226.49 337.33 252.38 337.33 252.38 309.61C254.16 307.95 255.2 305.59 255.2 302.25Z" fill="#A1998C" opacity="0.2"/><g><path d="M229.6 337.33 229.6 307.87C229.6 306.75 230.52 305.83 231.64 305.83L231.64 305.83C232.76 305.83 233.68 306.75 233.68 307.87L233.68 337.33 229.6 337.33Z" fill="#A1998C"/><path d="M245.21 337.33 245.21 307.87C245.21 306.75 246.13 305.83 247.25 305.83L247.25 305.83C248.37 305.83 249.29 306.75 249.29 307.87L249.29 337.33 245.21 337.33Z" fill="#A1998C"/><path d="M235.22 337.33 235.22 302.52C235.22 300.2 237.12 298.3 239.44 298.3L239.44 298.3C241.76 298.3 243.66 300.2 243.66 302.52L243.66 337.33 235.22 337.33Z" fill="#A1998C"/></g><g><path d="M242.93 327.58C242.92 327.25 242.89 326.89 242.89 326.52 242.89 323.99 239.44 323.07 239.44 323.07 239.44 323.07 235.99 324.27 235.99 326.52 235.99 326.89 235.96 327.24 235.95 327.58L235.21 327.58 235.21 337.33 243.65 337.33 243.65 327.58 242.93 327.58Z" fill="#5E5A53"/><rect x="229.6" y="327.58" width="4.08" height="9.75" fill="#5E5A53"/><rect x="245.21" y="327.58" width="4.08" height="9.75" fill="#5E5A53"/></g></g></g><g><g><path d="M302.63 308.97C302.63 301.93 293.19 294.75 289.89 294.75 285.57 294.75 277.15 301.93 277.15 308.97 277.15 311.67 277.99 313.58 279.43 314.92L279.43 337.34 300.36 337.34 300.36 314.92C301.78 313.58 302.63 311.67 302.63 308.97Z" fill="#A1998C" opacity="0.2"/><g><path d="M281.92 337.33 281.92 313.51C281.92 312.6 282.66 311.86 283.57 311.86L283.57 311.86C284.48 311.86 285.22 312.6 285.22 313.51L285.22 337.33 281.92 337.33Z" fill="#A1998C"/><path d="M294.55 337.33 294.55 313.51C294.55 312.6 295.29 311.86 296.2 311.86L296.2 311.86C297.11 311.86 297.85 312.6 297.85 313.51L297.85 337.33 294.55 337.33Z" fill="#A1998C"/><path d="M286.47 337.33 286.47 309.18C286.47 307.3 288.01 305.77 289.88 305.77L289.88 305.77C291.76 305.77 293.29 307.31 293.29 309.18L293.29 337.33 286.47 337.33Z" fill="#A1998C"/></g><g><path d="M292.7 329.45C292.69 329.18 292.67 328.89 292.67 328.6 292.67 326.55 289.88 325.81 289.88 325.81 289.88 325.81 287.09 326.78 287.09 328.6 287.09 328.9 287.07 329.18 287.06 329.45L286.47 329.45 286.47 337.34 293.3 337.34 293.3 329.45 292.7 329.45Z" fill="#5E5A53"/><rect x="281.92" y="329.45" width="3.3" height="7.89" fill="#5E5A53"/><rect x="294.55" y="329.45" width="3.3" height="7.89" fill="#5E5A53"/></g></g><g><path d="M340.1 308.97C340.1 301.93 330.66 294.75 327.36 294.75 323.04 294.75 314.62 301.93 314.62 308.97 314.62 311.67 315.46 313.58 316.9 314.92L316.9 337.34 337.83 337.34 337.83 314.92C339.26 313.58 340.1 311.67 340.1 308.97Z" fill="#A1998C" opacity="0.2"/><g><path d="M319.4 337.33 319.4 313.51C319.4 312.6 320.14 311.86 321.05 311.86L321.05 311.86C321.96 311.86 322.7 312.6 322.7 313.51L322.7 337.33 319.4 337.33Z" fill="#A1998C"/><path d="M332.03 337.33 332.03 313.51C332.03 312.6 332.77 311.86 333.68 311.86L333.68 311.86C334.59 311.86 335.33 312.6 335.33 313.51L335.33 337.33 332.03 337.33Z" fill="#A1998C"/><path d="M323.95 337.33 323.95 309.18C323.95 307.3 325.49 305.77 327.36 305.77L327.36 305.77C329.24 305.77 330.77 307.31 330.77 309.18L330.77 337.33 323.95 337.33Z" fill="#A1998C"/></g><g><path d="M330.18 329.45C330.17 329.18 330.15 328.89 330.15 328.6 330.15 326.55 327.36 325.81 327.36 325.81 327.36 325.81 324.57 326.78 324.57 328.6 324.57 328.9 324.55 329.18 324.54 329.45L323.95 329.45 323.95 337.34 330.78 337.34 330.78 329.45 330.18 329.45Z" fill="#5E5A53"/><rect x="319.4" y="329.45" width="3.3" height="7.89" fill="#5E5A53"/><rect x="332.03" y="329.45" width="3.3" height="7.89" fill="#5E5A53"/></g></g></g></g><rect x="24.32" y="259" width="307.48" height="21.82" fill="#F2E6D2"/><g><linearGradient x1="177.488" y1="64.9889" x2="177.488" y2="33.5795" gradientUnits="userSpaceOnUse" id="SVGID_2_"><stop offset="0" stop-color="#E5D9C8"/><stop offset="1" stop-color="#F5E8D5"/></linearGradient><radialGradient cx="175.451" cy="23.6069" r="21.2364" gradientUnits="userSpaceOnUse" id="SVGID_3_"><stop offset="0" stop-color="#FFF2DE"/><stop offset="1" stop-color="#F5E8D5"/></radialGradient><radialGradient cx="176.829" cy="14.4778" r="6.2339" gradientUnits="userSpaceOnUse" id="SVGID_13_"><stop offset="0" stop-color="#FFF2DE"/><stop offset="1" stop-color="#F5E8D5"/></radialGradient><radialGradient cx="177.02" cy="10.5534" r="3.7404" gradientUnits="userSpaceOnUse" id="SVGID_14_"><stop offset="0" stop-color="#FFF2DE"/><stop offset="1" stop-color="#F5E8D5"/></radialGradient><radialGradient cx="177.115" cy="4.237" r="7.882" gradientUnits="userSpaceOnUse" id="SVGID_15_"><stop offset="0" stop-color="#FFF2DE"/><stop offset="1" stop-color="#F5E8D5"/></radialGradient><rect x="162.56" y="30.85" width="29.86" height="38" fill="url(#SVGID_2_)"/><rect x="162.38" y="30.85" width="14.93" height="38" fill="#FFF2DE"/><rect x="165.17" y="40.48" width="9.34" height="31.64" fill="#A1998C" opacity="0.15"/><rect x="180.51" y="40.38" width="9.34" height="31.64" fill="#A1998C" opacity="0.25"/><path d="M167.57 30.85 167.57 27.12C167.57 21.77 171.95 17.39 177.3 17.39L177.3 17.39C182.65 17.39 187.03 21.77 187.03 27.12L187.03 30.85 167.57 30.85Z" fill="url(#SVGID_3_)"/><g><linearGradient x1="178.725" y1="101.266" x2="178.725" y2="137.933" gradientUnits="userSpaceOnUse" id="SVGID_4_" gradientTransform="matrix(1 -0.0031 0.0031 1 -0.8109 0.6227)"><stop offset="0" stop-color="#E5D9C8"/><stop offset="1" stop-color="#F5E8D5"/></linearGradient><path d="M203.76 68.74 152.49 68.9 153.25 312.57 204.52 312.41Z" fill="url(#SVGID_4_)"/><g><linearGradient x1="179.303" y1="101.333" x2="179.303" y2="138" gradientUnits="userSpaceOnUse" id="SVGID_5_"><stop offset="0" stop-color="#E5D9C8"/><stop offset="1" stop-color="#F5E8D5"/></linearGradient><linearGradient x1="182.347" y1="101.333" x2="182.347" y2="138" gradientUnits="userSpaceOnUse" id="SVGID_6_"><stop offset="0" stop-color="#E5D9C8"/><stop offset="1" stop-color="#F5E8D5"/></linearGradient><linearGradient x1="185.811" y1="101.333" x2="185.811" y2="138" gradientUnits="userSpaceOnUse" id="SVGID_7_"><stop offset="0" stop-color="#E5D9C8"/><stop offset="1" stop-color="#F5E8D5"/></linearGradient><linearGradient x1="189.275" y1="101.333" x2="189.275" y2="138" gradientUnits="userSpaceOnUse" id="SVGID_8_"><stop offset="0" stop-color="#E5D9C8"/><stop offset="1" stop-color="#F5E8D5"/></linearGradient><linearGradient x1="192.738" y1="101.333" x2="192.738" y2="138" gradientUnits="userSpaceOnUse" id="SVGID_9_"><stop offset="0" stop-color="#E5D9C8"/><stop offset="1" stop-color="#F5E8D5"/></linearGradient><linearGradient x1="196.202" y1="101.333" x2="196.202" y2="138" gradientUnits="userSpaceOnUse" id="SVGID_10_"><stop offset="0" stop-color="#E5D9C8"/><stop offset="1" stop-color="#F5E8D5"/></linearGradient><linearGradient x1="199.666" y1="101.333" x2="199.666" y2="138" gradientUnits="userSpaceOnUse" id="SVGID_11_"><stop offset="0" stop-color="#E5D9C8"/><stop offset="1" stop-color="#F5E8D5"/></linearGradient><linearGradient x1="202.577" y1="101.333" x2="202.577" y2="138" gradientUnits="userSpaceOnUse" id="SVGID_12_"><stop offset="0" stop-color="#E5D9C8"/><stop offset="1" stop-color="#F5E8D5"/></linearGradient><path d="M180.48 69.03 178.12 69.03 178.12 63.51 179.38 63.51Z" fill="url(#SVGID_5_)"/><path d="M184.08 69.03 180.62 69.03 181.72 63.51 182.97 63.51Z" fill="url(#SVGID_6_)"/><path d="M187.54 69.03 184.08 69.03 185.18 63.51 186.44 63.51Z" fill="url(#SVGID_7_)"/><path d="M191.01 69.03 187.54 69.03 188.65 63.51 189.9 63.51Z" fill="url(#SVGID_8_)"/><path d="M194.47 69.03 191.01 69.03 192.11 63.51 193.36 63.51Z" fill="url(#SVGID_9_)"/><path d="M197.93 69.03 194.47 69.03 195.58 63.51 196.83 63.51Z" fill="url(#SVGID_10_)"/><path d="M201.4 69.03 197.93 69.03 199.04 63.51 200.29 63.51Z" fill="url(#SVGID_11_)"/><path d="M203.76 69.03 201.4 69.03 202.5 63.51 203.76 63.51Z" fill="url(#SVGID_12_)"/></g></g><path d="M176.87 63.51 175.84 68.67 175.69 68.67 174.66 63.51 173.41 63.51 172.37 68.67 172.23 68.67 171.2 63.51 169.94 63.51 168.91 68.67 168.77 68.67 167.73 63.51 166.48 63.51 165.45 68.67 165.3 68.67 164.27 63.51 163.02 63.51 161.98 68.67 161.84 68.67 160.81 63.51 159.55 63.51 158.52 68.67 158.37 68.67 157.34 63.51 156.09 63.51 155.06 68.67 154.78 68.67 153.74 63.51 152.49 63.51 152.49 68.67 152.49 69.03 152.49 312.49 178.12 312.49 178.12 69.03 178.12 68.67 178.12 63.51Z" fill="#FFF2DE"/><g><rect x="160.41" y="140.57" width="9.8" height="171.92" fill="#A1998C" opacity="0.15"/><rect x="171.82" y="131.57" width="4.31" height="180.92" fill="#A1998C" opacity="0.15"/><rect x="154.49" y="131.57" width="4.31" height="180.92" fill="#A1998C" opacity="0.15"/></g><g><rect x="186.01" y="140.57" width="9.8" height="171.92" fill="#A1998C" opacity="0.2"/><rect x="197.42" y="131.57" width="4.31" height="180.92" fill="#A1998C" opacity="0.2"/><rect x="180.08" y="131.57" width="4.31" height="180.92" fill="#A1998C" opacity="0.2"/></g><rect x="178.2" y="72.12" width="25.65" height="25.33" fill="#569C91"/><rect x="152.48" y="72.12" width="25.72" height="25.33" fill="#80C2B8"/><g><g><path d="M201.03 113.31 201.03 104.74 193.44 104.74C193.66 106.55 199.56 110.92 201.03 113.31Z" fill="#569C91"/><path d="M190.21 104.73 181.09 104.73 181.09 115.63C182.8 110.67 190.37 106.7 190.21 104.73Z" fill="#569C91"/></g><path d="M191.88 107.66C190.58 110.4 179.17 114.75 185.74 122.16 186.33 122.82 186.96 123.34 187.62 123.76 187.5 123.33 187.41 122.89 187.41 122.42 187.41 119.84 189.42 117.75 191.91 117.75 194.4 117.75 196.41 119.84 196.41 122.42 196.41 122.87 196.33 123.29 196.22 123.71 196.91 123.28 197.54 122.76 198.07 122.16 203.61 115.86 193.53 110.19 191.88 107.66Z" fill="#569C91"/></g><g><g><path d="M155.34 113.31 155.34 104.74 162.93 104.74C162.71 106.55 156.81 110.92 155.34 113.31Z" fill="#80C2B8"/><path d="M166.16 104.73 175.28 104.73 175.28 115.63C173.57 110.67 166 106.7 166.16 104.73Z" fill="#80C2B8"/></g><path d="M164.49 107.66C165.79 110.4 177.2 114.75 170.63 122.16 170.04 122.82 169.41 123.34 168.75 123.76 168.87 123.33 168.96 122.89 168.96 122.42 168.96 119.84 166.95 117.75 164.46 117.75 161.97 117.75 159.96 119.84 159.96 122.42 159.96 122.87 160.04 123.29 160.15 123.71 159.46 123.28 158.83 122.76 158.3 122.16 152.76 115.86 162.84 110.19 164.49 107.66Z" fill="#80C2B8"/></g><rect x="162.38" y="34.09" width="14.93" height="4.08" fill="#80C2B8"/><rect x="177.31" y="34.09" width="14.93" height="4.08" fill="#569C91"/><rect x="152.48" y="97.44" width="25.72" height="2.31" fill="#A1998C" opacity="0.5"/><rect x="178.2" y="97.44" width="25.65" height="2.31" fill="#A1998C"/><circle cx="177.31" cy="14.67" r="2.5" fill="url(#SVGID_13_)"/><circle cx="177.31" cy="10.67" r="1.5" fill="url(#SVGID_14_)"/><path d="M178.31 8.17C178.31 8.72 177.86 9.17 177.31 9.17 176.76 9.17 176.31 8.72 176.31 8.17 176.31 7.62 177.31 0 177.31 0 177.31 0 178.31 7.61 178.31 8.17Z" fill="url(#SVGID_15_)"/></g><g><linearGradient x1="231.511" y1="369.958" x2="240.047" y2="317.963" gradientUnits="userSpaceOnUse" id="SVGID_16_"><stop offset="0" stop-color="#E5D9C8"/><stop offset="1" stop-color="#F5E8D5"/></linearGradient><linearGradient x1="109.102" y1="369.705" x2="117.591" y2="318.003" gradientUnits="userSpaceOnUse" id="SVGID_17_"><stop offset="0" stop-color="#F5E8D5"/><stop offset="1" stop-color="#FFF2DE"/></linearGradient><rect x="177.36" y="312.49" width="123.06" height="25" fill="url(#SVGID_16_)"/><rect x="55.69" y="312.49" width="121.51" height="25" fill="url(#SVGID_17_)"/><g><path d="M72.35 324.29C72.35 320.74 67.67 317.87 67.67 317.87 67.67 317.87 62.99 320.75 62.99 324.29 62.99 325.63 63.29 326.27 63.8 326.55L63.8 337.49 71.53 337.49 71.53 326.55C72.05 326.27 72.35 325.63 72.35 324.29Z" fill="#5E5A53"/><path d="M86.28 324.29C86.28 320.74 81.6 317.87 81.6 317.87 81.6 317.87 76.92 320.75 76.92 324.29 76.92 325.63 77.22 326.27 77.73 326.55L77.73 337.49 85.46 337.49 85.46 326.55C85.98 326.27 86.28 325.63 86.28 324.29Z" fill="#5E5A53"/><path d="M100.22 324.29C100.22 320.74 95.54 317.87 95.54 317.87 95.54 317.87 90.86 320.75 90.86 324.29 90.86 325.63 91.16 326.27 91.67 326.55L91.67 337.49 99.4 337.49 99.4 326.55C99.92 326.27 100.22 325.63 100.22 324.29Z" fill="#5E5A53"/><path d="M114.15 324.29C114.15 320.74 109.47 317.87 109.47 317.87 109.47 317.87 104.79 320.75 104.79 324.29 104.79 325.63 105.09 326.27 105.6 326.55L105.6 337.49 113.33 337.49 113.33 326.55C113.85 326.27 114.15 325.63 114.15 324.29Z" fill="#5E5A53"/><path d="M128.09 324.29C128.09 320.74 123.41 317.87 123.41 317.87 123.41 317.87 118.73 320.75 118.73 324.29 118.73 325.63 119.03 326.27 119.54 326.55L119.54 337.49 127.27 337.49 127.27 326.55C127.79 326.27 128.09 325.63 128.09 324.29Z" fill="#5E5A53"/><path d="M142.02 324.29C142.02 320.74 137.34 317.87 137.34 317.87 137.34 317.87 132.66 320.75 132.66 324.29 132.66 325.63 132.96 326.27 133.47 326.55L133.47 337.49 141.2 337.49 141.2 326.55C141.72 326.27 142.02 325.63 142.02 324.29Z" fill="#5E5A53"/><path d="M155.96 324.29C155.96 320.74 151.28 317.87 151.28 317.87 151.28 317.87 146.6 320.75 146.6 324.29 146.6 325.63 146.9 326.27 147.41 326.55L147.41 337.49 155.14 337.49 155.14 326.55C155.66 326.27 155.96 325.63 155.96 324.29Z" fill="#5E5A53"/><path d="M169.89 324.29C169.89 320.74 165.21 317.87 165.21 317.87 165.21 317.87 160.53 320.75 160.53 324.29 160.53 325.63 160.83 326.27 161.34 326.55L161.34 337.49 169.07 337.49 169.07 326.55C169.59 326.27 169.89 325.63 169.89 324.29Z" fill="#5E5A53"/></g><g><path d="M193.8 324.29C193.8 320.74 189.12 317.87 189.12 317.87 189.12 317.87 184.44 320.75 184.44 324.29 184.44 325.63 184.74 326.27 185.25 326.55L185.25 337.49 192.98 337.49 192.98 326.55C193.5 326.27 193.8 325.63 193.8 324.29Z" fill="#5E5A53"/><path d="M207.74 324.29C207.74 320.74 203.06 317.87 203.06 317.87 203.06 317.87 198.38 320.75 198.38 324.29 198.38 325.63 198.68 326.27 199.19 326.55L199.19 337.49 206.92 337.49 206.92 326.55C207.44 326.27 207.74 325.63 207.74 324.29Z" fill="#5E5A53"/><path d="M221.67 324.29C221.67 320.74 216.99 317.87 216.99 317.87 216.99 317.87 212.31 320.75 212.31 324.29 212.31 325.63 212.61 326.27 213.12 326.55L213.12 337.49 220.85 337.49 220.85 326.55C221.37 326.27 221.67 325.63 221.67 324.29Z" fill="#5E5A53"/><path d="M235.61 324.29C235.61 320.74 230.93 317.87 230.93 317.87 230.93 317.87 226.25 320.75 226.25 324.29 226.25 325.63 226.55 326.27 227.06 326.55L227.06 337.49 234.79 337.49 234.79 326.55C235.31 326.27 235.61 325.63 235.61 324.29Z" fill="#5E5A53"/><path d="M249.54 324.29C249.54 320.74 244.86 317.87 244.86 317.87 244.86 317.87 240.18 320.75 240.18 324.29 240.18 325.63 240.48 326.27 240.99 326.55L240.99 337.49 248.72 337.49 248.72 326.55C249.24 326.27 249.54 325.63 249.54 324.29Z" fill="#5E5A53"/><path d="M263.48 324.29C263.48 320.74 258.8 317.87 258.8 317.87 258.8 317.87 254.12 320.75 254.12 324.29 254.12 325.63 254.42 326.27 254.93 326.55L254.93 337.49 262.66 337.49 262.66 326.55C263.18 326.27 263.48 325.63 263.48 324.29Z" fill="#5E5A53"/><path d="M277.41 324.29C277.41 320.74 272.73 317.87 272.73 317.87 272.73 317.87 268.05 320.75 268.05 324.29 268.05 325.63 268.35 326.27 268.86 326.55L268.86 337.49 276.59 337.49 276.59 326.55C277.11 326.27 277.41 325.63 277.41 324.29Z" fill="#5E5A53"/><path d="M291.35 324.29C291.35 320.74 286.67 317.87 286.67 317.87 286.67 317.87 281.99 320.75 281.99 324.29 281.99 325.63 282.29 326.27 282.8 326.55L282.8 337.49 290.53 337.49 290.53 326.55C291.05 326.27 291.35 325.63 291.35 324.29Z" fill="#5E5A53"/></g></g><g><g><g><path d="M48.63 280.82 48.64 277.49C46.26 276.37 44.62 273.96 44.62 271.16 44.62 267.3 47.75 264.17 51.61 264.17 55.47 264.17 58.6 267.3 58.6 271.16 58.6 274.05 56.85 276.53 54.35 277.59L54.35 280.82" stroke="#A1998C" stroke-width="1.0363" stroke-miterlimit="10" fill="none" opacity="0.4"/><g><path d="M61.96 268.15 61.96 268.15C61.21 268.15 60.6 267.54 60.6 266.79L60.6 263.26C60.6 262.51 61.21 261.9 61.96 261.9L61.96 261.9C62.71 261.9 63.32 262.51 63.32 263.26L63.32 266.79C63.32 267.54 62.71 268.15 61.96 268.15Z" fill="#A1998C" opacity="0.2"/><path d="M41.25 268.15 41.25 268.15C40.5 268.15 39.89 267.54 39.89 266.79L39.89 263.26C39.89 262.51 40.5 261.9 41.25 261.9L41.25 261.9C42 261.9 42.61 262.51 42.61 263.26L42.61 266.79C42.6 267.54 41.99 268.15 41.25 268.15Z" fill="#A1998C" opacity="0.2"/></g><path d="M54.14 273.36C54.14 271.91 51.51 270.55 51.51 270.55 51.51 270.55 48.88 271.9 48.88 273.36 48.88 274.31 49.39 274.94 50.15 275.26L50.15 280.95 52.86 280.95 52.86 275.26C53.62 274.94 54.14 274.31 54.14 273.36Z" fill="#A1998C" opacity="0.2"/></g><g><path d="M88.27 280.82 88.28 277.49C85.9 276.37 84.26 273.96 84.26 271.16 84.26 267.3 87.39 264.17 91.25 264.17 95.11 264.17 98.24 267.3 98.24 271.16 98.24 274.05 96.49 276.53 93.99 277.59L93.99 280.82" stroke="#A1998C" stroke-width="1.0363" stroke-miterlimit="10" fill="none" opacity="0.4"/><g><path d="M101.6 268.15 101.6 268.15C100.85 268.15 100.24 267.54 100.24 266.79L100.24 263.26C100.24 262.51 100.85 261.9 101.6 261.9L101.6 261.9C102.35 261.9 102.96 262.51 102.96 263.26L102.96 266.79C102.96 267.54 102.35 268.15 101.6 268.15Z" fill="#A1998C" opacity="0.2"/><path d="M80.89 268.15 80.89 268.15C80.14 268.15 79.53 267.54 79.53 266.79L79.53 263.26C79.53 262.51 80.14 261.9 80.89 261.9L80.89 261.9C81.64 261.9 82.25 262.51 82.25 263.26L82.25 266.79C82.25 267.54 81.64 268.15 80.89 268.15Z" fill="#A1998C" opacity="0.2"/></g><path d="M93.78 273.36C93.78 271.91 91.15 270.55 91.15 270.55 91.15 270.55 88.52 271.9 88.52 273.36 88.52 274.31 89.03 274.94 89.79 275.26L89.79 280.95 92.5 280.95 92.5 275.26C93.27 274.94 93.78 274.31 93.78 273.36Z" fill="#A1998C" opacity="0.2"/></g><g><path d="M127.92 280.82 127.93 277.49C125.55 276.37 123.91 273.96 123.91 271.16 123.91 267.3 127.04 264.17 130.9 264.17 134.76 264.17 137.89 267.3 137.89 271.16 137.89 274.05 136.14 276.53 133.64 277.59L133.64 280.82" stroke="#A1998C" stroke-width="1.0363" stroke-miterlimit="10" fill="none" opacity="0.4"/><g><path d="M141.25 268.15 141.25 268.15C140.5 268.15 139.89 267.54 139.89 266.79L139.89 263.26C139.89 262.51 140.5 261.9 141.25 261.9L141.25 261.9C142 261.9 142.61 262.51 142.61 263.26L142.61 266.79C142.6 267.54 141.99 268.15 141.25 268.15Z" fill="#A1998C" opacity="0.2"/><path d="M120.53 268.15 120.53 268.15C119.78 268.15 119.17 267.54 119.17 266.79L119.17 263.26C119.17 262.51 119.78 261.9 120.53 261.9L120.53 261.9C121.28 261.9 121.89 262.51 121.89 263.26L121.89 266.79C121.89 267.54 121.28 268.15 120.53 268.15Z" fill="#A1998C" opacity="0.2"/></g><path d="M133.42 273.36C133.42 271.91 130.79 270.55 130.79 270.55 130.79 270.55 128.16 271.9 128.16 273.36 128.16 274.31 128.67 274.94 129.43 275.26L129.43 280.95 132.14 280.95 132.14 275.26C132.91 274.94 133.42 274.31 133.42 273.36Z" fill="#A1998C" opacity="0.2"/></g></g><g><g><path d="M222.25 280.82 222.26 277.49C219.88 276.37 218.24 273.96 218.24 271.16 218.24 267.3 221.37 264.17 225.23 264.17 229.09 264.17 232.22 267.3 232.22 271.16 232.22 274.05 230.47 276.53 227.97 277.59L227.97 280.82" stroke="#A1998C" stroke-width="1.0363" stroke-miterlimit="10" fill="none" opacity="0.4"/><g><path d="M235.58 268.15 235.58 268.15C234.83 268.15 234.22 267.54 234.22 266.79L234.22 263.26C234.22 262.51 234.83 261.9 235.58 261.9L235.58 261.9C236.33 261.9 236.94 262.51 236.94 263.26L236.94 266.79C236.93 267.54 236.32 268.15 235.58 268.15Z" fill="#A1998C" opacity="0.2"/><path d="M214.86 268.15 214.86 268.15C214.11 268.15 213.5 267.54 213.5 266.79L213.5 263.26C213.5 262.51 214.11 261.9 214.86 261.9L214.86 261.9C215.61 261.9 216.22 262.51 216.22 263.26L216.22 266.79C216.22 267.54 215.61 268.15 214.86 268.15Z" fill="#A1998C" opacity="0.2"/></g><path d="M227.75 273.36C227.75 271.91 225.12 270.55 225.12 270.55 225.12 270.55 222.49 271.9 222.49 273.36 222.49 274.31 223 274.94 223.76 275.26L223.76 280.95 226.47 280.95 226.47 275.26C227.24 274.94 227.75 274.31 227.75 273.36Z" fill="#A1998C" opacity="0.2"/></g><g><path d="M261.89 280.82 261.9 277.49C259.52 276.37 257.88 273.96 257.88 271.16 257.88 267.3 261.01 264.17 264.87 264.17 268.73 264.17 271.86 267.3 271.86 271.16 271.86 274.05 270.11 276.53 267.61 277.59L267.61 280.82" stroke="#A1998C" stroke-width="1.0363" stroke-miterlimit="10" fill="none" opacity="0.4"/><g><path d="M275.22 268.15 275.22 268.15C274.47 268.15 273.86 267.54 273.86 266.79L273.86 263.26C273.86 262.51 274.47 261.9 275.22 261.9L275.22 261.9C275.97 261.9 276.58 262.51 276.58 263.26L276.58 266.79C276.58 267.54 275.97 268.15 275.22 268.15Z" fill="#A1998C" opacity="0.2"/><path d="M254.51 268.15 254.51 268.15C253.76 268.15 253.15 267.54 253.15 266.79L253.15 263.26C253.15 262.51 253.76 261.9 254.51 261.9L254.51 261.9C255.26 261.9 255.87 262.51 255.87 263.26L255.87 266.79C255.86 267.54 255.25 268.15 254.51 268.15Z" fill="#A1998C" opacity="0.2"/></g><path d="M267.39 273.36C267.39 271.91 264.76 270.55 264.76 270.55 264.76 270.55 262.13 271.9 262.13 273.36 262.13 274.31 262.64 274.94 263.4 275.26L263.4 280.95 266.11 280.95 266.11 275.26C266.88 274.94 267.39 274.31 267.39 273.36Z" fill="#A1998C" opacity="0.2"/></g><g><path d="M301.53 280.82 301.54 277.49C299.16 276.37 297.52 273.96 297.52 271.16 297.52 267.3 300.65 264.17 304.51 264.17 308.37 264.17 311.5 267.3 311.5 271.16 311.5 274.05 309.75 276.53 307.25 277.59L307.25 280.82" stroke="#A1998C" stroke-width="1.0363" stroke-miterlimit="10" fill="none" opacity="0.4"/><g><path d="M314.86 268.15 314.86 268.15C314.11 268.15 313.5 267.54 313.5 266.79L313.5 263.26C313.5 262.51 314.11 261.9 314.86 261.9L314.86 261.9C315.61 261.9 316.22 262.51 316.22 263.26L316.22 266.79C316.22 267.54 315.61 268.15 314.86 268.15Z" fill="#A1998C" opacity="0.2"/><path d="M294.15 268.15 294.15 268.15C293.4 268.15 292.79 267.54 292.79 266.79L292.79 263.26C292.79 262.51 293.4 261.9 294.15 261.9L294.15 261.9C294.9 261.9 295.51 262.51 295.51 263.26L295.51 266.79C295.5 267.54 294.89 268.15 294.15 268.15Z" fill="#A1998C" opacity="0.2"/></g><path d="M307.04 273.36C307.04 271.91 304.41 270.55 304.41 270.55 304.41 270.55 301.78 271.9 301.78 273.36 301.78 274.31 302.29 274.94 303.05 275.26L303.05 280.95 305.76 280.95 305.76 275.26C306.52 274.94 307.04 274.31 307.04 273.36Z" fill="#A1998C" opacity="0.2"/></g></g></g></g></svg>