<svg width="471.45" height="225.68" viewBox="0 0 471.45 225.68" xmlns="http://www.w3.org/2000/svg" xmlns:xlink="http://www.w3.org/1999/xlink" xml:space="preserve" overflow="hidden"><defs></defs><path d="M101.95 62.33C108.04 53.04 110.62 41.85 116.37 32.35 125.42 17.38 141.65 7.92 158.47 3.13 168.13 0.38 178.38-1.02 188.25 0.87 208.17 4.68 223.19 20.95 234.84 37.55 246.49 54.15 256.77 72.47 273.24 84.3 290.99 97.05 313.84 100.58 335.69 100.03 359.79 99.42 386.81 95.17 405.52 110.37 413.61 116.94 418.83 126.33 423.84 135.47 439.71 164.39 455.58 193.3 471.45 222.22 393.07 229.9 314.47 215.26 236.03 208.27 220.08 206.85 204.05 205.74 188.07 206.77 170.81 207.88 153.82 211.45 136.79 214.47 106.38 219.87 75.65 223.52 44.82 225.4 36.7 225.9 28.15 226.18 20.92 222.46 8.07 215.86 4.2 199.53 2.76 185.16 0.17 159.2-6.85 111.13 20.43 94.98 46.91 79.29 82.47 92.07 101.95 62.33Z" fill="#98DDFC"/></svg>