<svg width="505.05" height="213.79" viewBox="0 0 505.05 213.79" xmlns="http://www.w3.org/2000/svg" xmlns:xlink="http://www.w3.org/1999/xlink" xml:space="preserve" overflow="hidden"><defs></defs><path d="M467.75 72.65C471.07 83.47 471.05 96.88 468.25 111.8 463.25 138.43 332.87 190.15 262.24 189.18 191.61 190.16 45.74 141.57 40.06 115.84 36.42 99.35 36.42 84.43 40.03 72.65 61.27 11.6 153.94 31.29 253.89 28.43 353.84 31.29 446.5 11.6 467.75 72.65Z" fill="#731624"/><path d="M259.95 152.05 118.4 123.79 132.8 104.59 259.95 111.07 363.97 99.24 401.18 108.38 411.59 121.21Z" fill="#940A0E"/><path d="M174.24 117.84C184.77 125.77 326.06 127.46 339.66 116.73 361.85 99.23 398.81 111.25 411.59 121.2 406.82 108.21 397.97 100.54 384.42 94.39 344.36 76.21 303.5 85.36 262.56 93.16 260.49 93.55 192.71 68.2 140.86 86.92 130.68 90.59 121.23 109.29 118.4 123.79 122.15 119.37 157.4 105.16 174.24 117.84Z" fill="#ED1C24"/><path d="M466.16 73.59C444.91 12.53 353.84 31.29 253.88 28.43 153.94 31.29 61.27 11.6 40.02 72.65 36.5 84.11 36.42 98.56 39.77 114.53 80.38 108.69 122.15 100.98 171.45 96.49L171.45 96.49C171.45 96.49 172.92 102.86 198.57 99.84 224.22 96.81 244.8 100.14 246.78 98.17 247.86 97.09 248.7 94.72 249.23 92.8 249.3 92.8 249.36 92.8 249.43 92.8 250.13 94.53 251.09 96.45 252.15 97.33 254.3 99.1 274.81 97.41 300.64 97.96 312.9 98.22 319.46 96.09 322.96 93.77 378 96.19 425.24 102.59 468.91 107.96 470.98 94.6 469.19 83.46 466.16 73.59Z" fill="#F4ECED"/><path d="M253.93 195.17C399.67 180.67 471.35 124.9 467.98 108.92 407.26 123.53 382.29 123.38 322.6 123.72 296.77 123.87 262.95 123.45 260.98 125.42 259.9 126.5 259.06 128.88 258.53 130.79 258.46 130.79 258.4 130.79 258.33 130.79 257.63 129.06 256.67 127.14 255.6 126.26 253.45 124.49 232.94 126.19 207.11 125.66 194.85 125.41 103.56 127.63 39.97 114.53 37.93 127.9 153.98 192.38 253.93 195.17Z" fill="#F4ECED"/><path d="M466.16 73.59C444.91 12.53 353.84 31.29 253.88 28.43 153.94 31.29 61.27 11.6 40.02 72.65 37.82 79.84 36.96 88.2 37.46 97.38 67.57 74.1 111.56 65.91 161.75 62.2L171.46 96.49 169.05 61.7C193.31 60.12 218.89 59.45 244.96 58.53L249.72 92.8 251.98 58.28C252.34 58.27 252.7 58.25 253.06 58.24 277.74 59.17 302.03 59.77 325.22 61.01L322.33 92.74 331.26 61.35C387.98 64.71 437.72 72.48 470.19 99.24 470.92 89.33 468.51 81.26 466.16 73.59Z" fill="#CFB7B4"/><path d="M254.29 54.02C354.19 56.88 446.6 53.63 467.9 114.58 471.54 98.08 471.36 84.43 467.74 72.66 446.5 11.6 351.54 2.86 251.59 0 151.64 2.86 61.27 11.6 40.02 72.65 36.41 84.42 35.16 102.7 40.05 117.25 61.36 56.31 154.39 56.87 254.29 54.02Z" fill="#FF9082"/><path d="M39.87 113.99C36.33 130.32 117.12 213.79 264 213.79 406.83 202.4 466.64 139.72 468.93 109.4 422.37 155.97 105.43 155.97 39.87 113.99Z" fill="#FF9082"/><path d="M173.06 116.09C179.8 127.56 235.96 136.81 258.78 136.41 280.38 136.02 335.63 123.84 341.86 114.54 352.69 105.86 170.12 111.09 173.06 116.09Z" fill="#ED1C24"/><path d="M187.4 112.92C187.4 112.92 238.99 129.93 256.41 129.93 273.83 129.93 319.97 115.2 322.03 113.87 324.09 112.54 303.02 109.19 287.18 112.45 271.34 115.71 278.94 116.53 260.57 113.87 242.2 111.22 245.05 110.74 228.57 112.92 212.11 115.1 189.62 108.5 187.4 112.92Z" fill="#F1575D"/><path d="M298.43 114.53C289.72 120.3 275.59 127.24 263.03 127.87 261.46 127.95 260.08 127.19 259.96 126.17 259.72 124.17 263.22 124.14 263.03 124.19 274.37 124.67 289.61 118.93 298.43 114.53Z" fill="#F79296"/><g><path d="M2.22 61.09C-1.56 85.39-0.53 109.75 5.4 133.63 6.19 136.8 11.08 135.46 10.29 132.28 4.59 109.33 3.48 85.81 7.11 62.44 7.61 59.25 2.72 57.87 2.22 61.09L2.22 61.09Z" fill="#410C14"/></g><g><path d="M500 89.05C492.73 110.3 485.45 131.56 478.17 152.82 477.11 155.92 482.01 157.25 483.06 154.17 490.34 132.91 497.61 111.66 504.89 90.4 505.96 87.3 501.06 85.97 500 89.05L500 89.05Z" fill="#410C14"/></g></svg>