<svg width="37.89" height="104.96" viewBox="0 0 37.89 104.96" xmlns="http://www.w3.org/2000/svg" xmlns:xlink="http://www.w3.org/1999/xlink" xml:space="preserve" overflow="hidden"><defs></defs><linearGradient x1="28.6686" y1="31.7376" x2="13.7199" y2="14.4456" gradientUnits="userSpaceOnUse" id="SVGID_2_" gradientTransform="matrix(0.9928 0.1199 -0.1199 0.9928 2.1035 -1.3502)"><stop offset="0" stop-color="#F2C8A5"/><stop offset="1" stop-color="#F1AB8C"/></linearGradient><linearGradient x1="18.4386" y1="106.548" x2="18.1155" y2="61.7902" gradientUnits="userSpaceOnUse" id="SVGID_3_"><stop offset="0" stop-color="#003E17"/><stop offset="1" stop-color="#0B3531"/></linearGradient><linearGradient x1="19.5721" y1="-0.611" x2="6.485" y2="21.4161" gradientUnits="userSpaceOnUse" id="SVGID_4_" gradientTransform="matrix(0.9928 0.1199 -0.1199 0.9928 2.1035 -1.3502)"><stop offset="0.00498047" stop-color="#C98727"/><stop offset="1" stop-color="#C97E17"/></linearGradient><linearGradient x1="16.0842" y1="4.0214" x2="14.7275" y2="6.3049" gradientUnits="userSpaceOnUse" id="SVGID_6_" gradientTransform="matrix(0.9928 0.1199 -0.1199 0.9928 2.1035 -1.3502)"><stop offset="0.00498047" stop-color="#C98727"/><stop offset="1" stop-color="#C97E17"/></linearGradient><linearGradient x1="15.5343" y1="9.3133" x2="14.9489" y2="10.2985" gradientUnits="userSpaceOnUse" id="SVGID_7_" gradientTransform="matrix(0.9928 0.1199 -0.1199 0.9928 2.1035 -1.3502)"><stop offset="0.00498047" stop-color="#C98727"/><stop offset="1" stop-color="#C97E17"/></linearGradient><linearGradient x1="21.173" y1="4.7148" x2="20.2147" y2="6.3277" gradientUnits="userSpaceOnUse" id="SVGID_8_" gradientTransform="matrix(0.9928 0.1199 -0.1199 0.9928 2.1035 -1.3502)"><stop offset="0.00498047" stop-color="#C98727"/><stop offset="1" stop-color="#C97E17"/></linearGradient><linearGradient x1="12.876" y1="14.3573" x2="12.6855" y2="14.678" gradientUnits="userSpaceOnUse" id="SVGID_9_" gradientTransform="matrix(0.9928 0.1199 -0.1199 0.9928 2.1035 -1.3502)"><stop offset="0.00498047" stop-color="#C98727"/><stop offset="1" stop-color="#C97E17"/></linearGradient><linearGradient x1="13.8486" y1="0.8093" x2="12.8819" y2="2.4363" gradientUnits="userSpaceOnUse" id="SVGID_10_" gradientTransform="matrix(0.9928 0.1199 -0.1199 0.9928 2.1035 -1.3502)"><stop offset="0.00498047" stop-color="#C98727"/><stop offset="1" stop-color="#C97E17"/></linearGradient><g><linearGradient x1="33.027" y1="39.1276" x2="26.374" y2="31.4317" gradientUnits="userSpaceOnUse" id="SVGID_1_"><stop offset="0" stop-color="#F2C8A5"/><stop offset="1" stop-color="#F1AB8C"/></linearGradient><path d="M37.79 28.59C37.55 29.32 35.45 30.53 35.45 30.53L35.05 32.15 32.54 33.69C32.54 33.69 31.17 36.75 29.88 38.61 28.59 40.47 27.7 42.41 25.43 42.98 23.17 43.54 21.15 42.57 21.15 42.57L20.18 40.48C20.17 40.44 20.17 40.38 20.17 40.33 20.15 39.41 20.6 37.27 20.98 36.2 20.98 36.2 26.32 33.85 27.04 33.13 27.76 32.41 30.35 29.01 31.08 27.96 31.81 26.91 35 25.58 35 25.58L35.04 28.69C35.04 28.69 35.93 28.13 36.9 27.48 37.51 27.07 37.8 27.34 37.87 27.77 37.92 28.01 37.88 28.32 37.79 28.59Z" fill="url(#SVGID_1_)"/><path d="M37.79 28.59C37.55 29.32 35.45 30.53 35.45 30.53L35.05 32.15 32.54 33.69C32.54 33.69 31.17 36.75 29.88 38.61 28.59 40.47 27.7 42.41 25.43 42.98 23.17 43.54 21.15 42.57 21.15 42.57L20.18 40.48C20.17 40.44 20.17 40.38 20.17 40.33L22.3 41.1 25.74 40.62C25.74 40.62 29.94 36.53 30.86 35.07 31.77 33.62 32.48 31.25 32.48 31.25 32.48 31.25 33.82 30.76 35.11 29.96 36.15 29.31 37.23 28.55 37.86 27.77 37.92 28.01 37.88 28.32 37.79 28.59Z" fill="#DE7553" opacity="0.2"/></g><g><g><path d="M26.97 63.89C26.97 63.89 26.31 64.24 25.17 64.64 23.55 65.22 20.93 65.91 17.75 65.91 16.82 65.91 15.96 65.85 15.18 65.75 11.43 65.27 9.43 63.89 9.43 63.89 9.43 63.89 9.43 63.86 9.44 63.81 9.46 63.44 9.51 61.85 8.87 60.5 8.14 58.96 5.47 50.72 5.31 44.34 5.14 37.96 8.7 33.11 9.83 31.57 9.83 31.57 11.87 32.63 13.63 33.57 14.52 34.04 15.34 34.49 15.79 34.75L15.94 34.28C15.95 34.25 15.95 34.21 15.96 34.18L16.02 34C16.03 33.97 16.04 33.94 16.05 33.91L16.12 33.68C16.12 33.68 16.14 33.69 16.16 33.7 16.2 33.71 16.24 33.73 16.29 33.76 16.55 33.89 17.08 34.17 17.65 34.57 17.7 34.6 17.75 34.63 17.8 34.67 18.73 35.25 20.99 36.14 20.99 36.14L20.74 37.41 20.25 39.96C20.51 40.49 20.78 41.07 21.06 41.68 22.7 45.2 24.68 49.82 25.72 52.75 27.53 57.75 26.97 63.89 26.97 63.89Z" fill="#57D9D8"/><path d="M15.18 65.75C11.43 65.27 9.43 63.89 9.43 63.89 9.43 63.89 9.43 63.86 9.44 63.81 9.46 63.44 9.51 61.85 8.87 60.5 8.14 58.96 5.47 50.72 5.31 44.34 5.14 37.96 8.7 33.11 9.83 31.57 9.83 31.57 11.87 32.63 13.63 33.57 12.39 34.63 11.98 35.13 11.85 35.58 11.69 36.13 11.58 39.52 11.37 40.16 11.16 40.8 10.77 44.68 11.8 46.46 12.82 48.24 14.97 50.71 14.97 50.71 14.97 50.71 15.84 54.16 15.89 56.58 15.94 58.52 15.41 63.7 15.18 65.75Z" fill="#57D9D8" opacity="0.4"/></g><path d="M21.09 41.68 21.07 41.84C21.07 41.84 19.51 39.9 18.27 37.8 17.03 35.7 15.9 34.57 15.9 34.57 15.9 34.57 15.91 34.45 15.95 34.29 15.96 34.26 15.96 34.22 15.97 34.19L16.03 34.01C16.04 33.98 16.05 33.95 16.06 33.92 16.09 33.84 16.13 33.77 16.18 33.71 16.22 33.72 16.26 33.74 16.31 33.77 16.57 33.9 17.1 34.18 17.67 34.58 17.72 34.61 17.77 34.64 17.82 34.68 18.2 35.27 18.66 35.95 18.91 36.2 19.19 36.48 20.07 37.02 20.77 37.42L20.28 39.97C20.54 40.49 20.81 41.07 21.09 41.68Z" fill="#57D9D8" opacity="0.4"/></g><path d="M28.28 24.37C28.09 25.24 25.97 25.96 25.97 25.96 25.95 26.63 25.87 27.22 25.75 27.77 25.73 27.89 25.7 28 25.67 28.11 25.04 30.52 23.55 31.73 22.12 32.33 22.03 32.37 21.92 32.41 21.82 32.44 20.11 32.99 18.36 32.13 17.67 32.12 17.26 32.12 16.77 33.43 16.42 34.59 16.36 34.78 16.31 34.96 16.26 35.13 16.16 35.07 16.1 35.03 16.1 35.03L15.63 36.05C15.34 35.83 14.87 35.5 14.33 35.11 12.6 33.89 10.1 32.18 10.1 32.18 10.1 32.18 10.17 31.62 10.28 30.66 10.33 30.27 10.47 29.44 10.57 28.59 11.6 28.61 12.03 27.99 12.28 27.56 12.58 27.03 12.08 25.83 12.08 25.83 12.08 25.83 10.82 26.17 9.88 25.89 8.93 25.62 8.05 22.82 8.88 20.72 9.57 18.96 10.79 18.47 11.44 18.54 11.58 18.58 11.71 18.64 11.83 18.7 12.3 19.17 13.08 20.99 13.08 20.99 13.08 20.99 17.1 15.29 18.18 13.79 19.25 12.29 22.19 9.55 22.39 9.82 22.6 10.09 21.88 12.04 21.88 12.04 21.88 12.04 22.48 12.44 22.95 11.92 23.42 11.41 24.29 9.56 24.47 10.07 24.65 10.58 23.96 12.29 24.31 12.08 24.66 11.88 26.49 9.58 26.52 9.91 26.56 10.21 26.32 12.33 27.14 12.34 27.12 12.48 27.11 12.65 27.08 12.85 26.9 14.52 26.49 18.12 26.03 20.02 25.51 22.21 25.6 22.9 27.14 23 28.67 23.12 28.47 23.5 28.28 24.37Z" fill="url(#SVGID_2_)"/><path d="M26.97 63.89C26.72 65.91 25.27 74.4 23.57 80.37 21.88 86.36 18.16 101.46 18.16 101.46 18.16 101.46 17.27 102.59 16.06 103.07 15.55 103.28 14.99 103.35 14.5 103.37 13.98 103.38 13.56 103.35 13.4 103.32 13.35 103.31 13.31 103.31 13.31 103.31 13.31 103.31 12.99 100.57 12.42 98.71 11.85 96.85 10.8 92 11.04 89.66 11.28 87.32 12.42 84.65 12.42 84.65 12.42 84.65 11.13 79.72 10.16 74.55 9.22 69.55 9.19 65.01 9.41 63.91 9.42 63.87 9.42 63.84 9.43 63.81L9.44 63.81C9.43 63.86 9.43 63.89 9.43 63.89 9.43 63.89 9.45 63.9 9.48 63.93 9.81 64.14 11.8 65.35 15.27 65.76 16.03 65.85 16.85 65.91 17.74 65.91 20.92 65.91 23.54 65.21 25.16 64.64 26.36 64.27 26.97 63.89 26.97 63.89Z" fill="url(#SVGID_3_)"/><path d="M27.38 12.3C27.29 12.33 27.21 12.34 27.14 12.34 26.32 12.33 26.56 10.21 26.52 9.91 26.48 9.58 24.66 11.88 24.31 12.08 23.96 12.28 24.66 10.58 24.47 10.07 24.29 9.56 23.41 11.41 22.95 11.92 22.48 12.44 21.88 12.04 21.88 12.04 21.88 12.04 22.6 10.1 22.39 9.82 22.18 9.55 19.25 12.29 18.18 13.79 17.51 14.71 15.72 17.24 14.45 19.04 13.66 20.16 13.08 20.99 13.08 20.99 13.08 20.99 12.29 19.18 11.83 18.7 11.79 18.67 11.76 18.64 11.74 18.62 11.66 18.57 11.56 18.54 11.44 18.53 10.79 18.47 9.57 18.96 8.88 20.71 8.05 22.81 8.94 25.6 9.88 25.88 10.82 26.16 12.08 25.82 12.08 25.82 12.08 25.82 12.58 27.02 12.28 27.55 12.03 27.98 11.6 28.6 10.57 28.58 10.33 28.58 10.07 28.55 9.76 28.47 8.1 28.02 7.09 26.03 6.37 24.64 5.65 23.25 3.84 21.32 1.93 19.63 0.02 17.93-0.39 14.19 0.38 10.46 0.91 7.88 3.26 6.3 4.65 5.57 5.26 5.25 5.68 5.1 5.68 5.1 5.22 4.87 3.81 3.35 4.6 2.79 5.4 2.24 6.39 4.72 6.31 4.14 6.01 1.91 7.89-0.14 8.34 0.15 8.79 0.45 7.86 4.16 7.86 4.16 7.86 4.16 11.42 0.93 13.62 0.3 15.81-0.34 18.78 0.02 22.03 1.39 25.28 2.76 29 5.66 29.2 7.39 29.39 9.12 28.49 11.86 27.38 12.3Z" fill="url(#SVGID_4_)"/><path d="M12.07 25.83C12.07 25.83 12.57 27.03 12.27 27.56 12.02 27.99 11.59 28.61 10.56 28.59 10.32 28.59 10.06 28.56 9.75 28.48 8.09 28.03 7.08 26.04 6.36 24.65 5.64 23.26 3.83 21.33 1.92 19.64 0.01 17.94-0.4 14.2 0.37 10.47 0.91 7.88 3.26 6.3 4.65 5.57 4.57 6.63 5.25 8.44 5.96 10.07 6.72 11.84 7.97 13.62 7.97 13.62 7.97 13.62 8.53 15.2 10.06 15.55 11.59 15.9 13.68 17.94 14.15 18.54 14.23 18.65 14.34 18.82 14.45 19.04 13.66 20.16 13.08 20.99 13.08 20.99 13.08 20.99 12.29 19.18 11.83 18.7 11.79 18.67 11.76 18.64 11.74 18.62 11.66 18.57 11.56 18.54 11.44 18.53 10.79 18.47 9.57 18.96 8.88 20.71 8.05 22.81 8.94 25.6 9.88 25.88 10.82 26.17 12.07 25.83 12.07 25.83Z" fill="#C98727" opacity="0.5"/><path d="M27.08 12.86C26.56 12.41 26.04 11.24 26.04 11.24 26.04 11.24 24.44 13.27 24 13.27 23.6 13.27 23.88 11.88 23.92 11.66 23.81 11.89 22.9 13.83 22.02 13.52 21.08 13.19 21.63 11.36 21.63 11.36 21.63 11.36 18.03 15.16 16.34 17.45 14.65 19.74 13.74 21.85 13.78 24.25 13.81 26.16 16.89 32.23 21.81 32.44 20.1 32.99 18.35 32.13 17.66 32.12 17.25 32.12 16.76 33.43 16.41 34.59 15.73 34.73 14.98 34.92 14.32 35.11 12.59 33.89 10.09 32.18 10.09 32.18 10.09 32.18 10.16 31.62 10.27 30.66 10.32 30.27 10.46 29.44 10.56 28.59 11.59 28.61 12.02 27.99 12.27 27.56 12.57 27.03 12.07 25.83 12.07 25.83 12.07 25.83 10.81 26.17 9.87 25.89 8.92 25.62 8.04 22.82 8.87 20.72 9.56 18.96 10.78 18.47 11.43 18.54 11.57 18.58 11.7 18.64 11.82 18.7 12.29 19.17 13.07 20.99 13.07 20.99 13.07 20.99 17.09 15.29 18.17 13.79 19.24 12.29 22.18 9.55 22.38 9.82 22.59 10.09 21.87 12.04 21.87 12.04 21.87 12.04 22.47 12.44 22.94 11.92 23.41 11.41 24.28 9.56 24.46 10.07 24.64 10.58 23.95 12.29 24.3 12.08 24.65 11.88 26.48 9.58 26.51 9.91 26.55 10.21 26.31 12.33 27.13 12.34 27.12 12.49 27.11 12.66 27.08 12.86Z" fill="#DE7553" opacity="0.2"/><g><linearGradient x1="32.2021" y1="54.9061" x2="22.4952" y2="43.6775" gradientUnits="userSpaceOnUse" id="SVGID_5_"><stop offset="0" stop-color="#F2C8A5"/><stop offset="1" stop-color="#F1AB8C"/></linearGradient><path d="M37.39 44.59C37.17 45.39 35.63 44.34 35.34 44.14 35.66 44.39 37.52 45.87 37.15 46.53 36.86 47.06 36.11 46.65 35.7 46.39 36.13 46.71 36.98 47.39 36.96 47.71 36.95 47.75 36.93 47.79 36.9 47.82 36.49 48.14 34.23 47.01 34.23 47.01 33.75 47.82 31.64 47.74 31.64 47.74 31.64 47.74 31.32 48.96 28.9 51.54 26.47 54.12 23 55.74 20 55.58 17.02 55.42 15.8 52.43 15.32 51.7L14.67 50.57 16.34 49.89 19.84 48.46C19.84 48.46 21.13 48.22 23.87 47.33 26.62 46.44 30.25 43.7 30.25 43.7 30.25 43.7 31.22 40.71 32.44 40.79 33.65 40.87 35.18 42.08 35.18 42.08 35.18 42.08 37.63 43.7 37.39 44.59Z" fill="url(#SVGID_5_)"/><path d="M36.96 47.71C36.95 47.75 36.93 47.79 36.9 47.82 36.49 48.14 34.23 47.01 34.23 47.01 33.75 47.82 31.64 47.74 31.64 47.74 31.64 47.74 31.32 48.96 28.9 51.54 26.47 54.12 23 55.74 20 55.58 17.02 55.42 15.8 52.43 15.32 51.7L14.67 50.57 16.34 49.89C17.32 50.97 19.13 52.81 20.08 52.88 21.43 52.99 23.58 52.62 25.3 52.07 27.03 51.53 30.42 46.74 30.42 46.74 30.9 47.12 33.81 46.26 33.81 46.26 33.81 46.26 35.76 47.2 36.96 47.71Z" fill="#DE7553" opacity="0.2"/></g><path d="M16.76 49.7C15.09 47.97 13.91 45.98 13.37 43.94 12.83 41.89 12.99 39.69 13.96 39.15 13.96 39.15 12.18 38.18 11.43 39.47 10.67 40.78 10.08 43.35 11.81 46.47 13.54 49.59 14.72 50.56 14.72 50.56L16.76 49.7Z" fill="#57D9D8" opacity="0.4"/><path d="M14.39 98.55C14.39 98.74 14.49 101.58 14.5 103.37 13.98 103.38 13.56 103.35 13.4 103.32 13.35 103.31 13.31 103.31 13.31 103.31 13.31 103.31 12.99 100.57 12.42 98.71 11.85 96.85 10.8 92 11.04 89.66 11.28 87.32 12.42 84.65 12.42 84.65 12.42 84.65 11.13 79.72 10.16 74.55 9.22 69.55 9.19 65.01 9.41 63.91L9.48 63.92C9.81 64.13 11.8 65.34 15.27 65.75 14.94 68.4 14.47 70.42 14.87 74.63 15.3 79.2 15.68 84.32 15.68 84.32 15.68 84.32 14.22 88.09 14.12 90.57 14.01 93.06 14.39 98.28 14.39 98.55Z" fill="#0B3531" opacity="0.4"/><g><path d="M23.39 103.63C23.22 104.12 22.74 104.58 21.88 104.85 20.16 105.4 14.28 103.73 13.4 103.33 13.73 103.38 15.01 103.5 16.06 103.08 16.43 102.93 16.76 102.72 17.06 102.51 17.73 102.01 18.16 101.47 18.16 101.47 19.29 101.06 22.33 101.35 23.06 102.17 23.44 102.57 23.59 103.12 23.39 103.63Z" fill="#ECBDAC"/><path d="M23.39 103.63C23.22 104.12 22.74 104.58 21.88 104.85 20.16 105.4 14.28 103.73 13.4 103.33 13.73 103.38 15.01 103.5 16.06 103.08 16.43 102.93 16.76 102.72 17.06 102.51 17.72 102.87 18.64 103.39 19.13 103.73 19.76 104.16 21.93 103.86 23.39 103.63Z" fill="#ECBDAC"/></g><path d="M23.75 20.65C23.7 20.68 23.65 20.7 23.6 20.72 22.3 21.16 20.37 20.49 19.83 19.61 19.32 18.79 21.06 17.48 22.55 16.85 22.6 16.83 22.64 16.81 22.69 16.8 24.06 16.27 24.49 17 24.46 17.63 24.44 18.24 24.86 20.11 23.75 20.65Z" fill="#FFFFFF"/><path d="M19.8 16.24C19.4 15.98 20.39 14.52 21.76 13.93 23.13 13.34 24.63 14.01 24.57 14.49 24.51 14.97 24.53 15.24 23.58 15.02 22.63 14.8 21.42 14.98 20.75 15.55 20.08 16.11 19.8 16.24 19.8 16.24Z" fill="#C98727"/><path d="M23.75 20.65C22.96 20.66 22.27 19.73 22.2 18.56 22.16 17.85 22.36 17.2 22.69 16.79 24.06 16.26 24.49 16.99 24.46 17.62 24.44 18.24 24.86 20.11 23.75 20.65Z" fill="#63462F"/><path d="M19.68 19.43C19.67 18.86 20.07 17.93 21.57 16.89 23.08 15.85 24.34 16.21 24.49 17.28 24.49 17.28 23.51 16.53 22.33 17.2 21.16 17.87 19.68 19.43 19.68 19.43Z" fill="#B76F58"/><path d="M19.67 19.39C19.86 19.2 21.85 17.75 22.61 17.5 23.38 17.25 24.42 17.77 24.48 17.97 24.48 17.97 24.85 16.82 23.72 16.56 22.58 16.3 21.77 17.14 21.22 17.58 20.66 18.03 19.67 19.39 19.67 19.39Z" fill="#AFA9A7" opacity="0.4"/><path d="M22.93 19.21C22.97 18.87 23.28 18.63 23.62 18.67 23.96 18.71 24.2 19.02 24.16 19.36 24.12 19.7 23.81 19.94 23.47 19.9 23.14 19.86 22.89 19.55 22.93 19.21Z" fill="#FFFFFF"/><g><path d="M24.86 25.32C24.85 25.44 24.84 25.55 24.82 25.67 23.96 25.91 23.36 25.94 22.69 25.95L22.63 25.95C21.8 25.95 21 25.35 20.97 25.32 20.9 25.26 20.89 25.17 20.94 25.09 20.99 25.02 21.09 25.01 21.16 25.06 21.17 25.07 21.94 25.65 22.67 25.62 23.37 25.61 23.97 25.59 24.86 25.32Z" fill="#DE7553"/></g><path d="M15.21 6.62C15.21 6.62 16.26 4.69 18.12 4.97 18.12 4.97 16.07 6.68 15.21 6.62Z" fill="url(#SVGID_6_)" opacity="0.4"/><path d="M14.78 10.16C14.58 10.18 16.47 11.01 17.24 10.4 17.25 10.4 15.28 10.11 14.78 10.16Z" fill="url(#SVGID_7_)" opacity="0.4"/><path d="M20.53 7.05C20.53 7.05 22.69 7.1 23.27 6.4 23.26 6.41 21.13 6.58 20.53 7.05Z" fill="url(#SVGID_8_)" opacity="0.4"/><path d="M12.15 13.96C11.93 13.91 12.98 15.15 13.95 15.26 13.95 15.26 13.26 14.2 12.15 13.96Z" fill="url(#SVGID_9_)" opacity="0.4"/><path d="M14.56 2.97C14.56 2.97 14.47 1.44 15.66 1.04 15.67 1.04 15.6 2.5 14.56 2.97Z" fill="url(#SVGID_10_)" opacity="0.4"/></svg>