<svg width="112.37" height="96.09" viewBox="0 0 112.37 96.09" xmlns="http://www.w3.org/2000/svg" xmlns:xlink="http://www.w3.org/1999/xlink" xml:space="preserve" overflow="hidden"><defs></defs><g><g><path d="M111.51 14.66 110.43 14.81 68.07 23.7 69.08 26.02 112.25 16.59Z" fill="#9C6035"/><g><path d="M111.44 14.6C109.95 14.81 108.48 15.15 107 15.46 103.68 16.16 100.36 16.85 97.04 17.55 92.87 18.42 88.71 19.3 84.54 20.17 80.85 20.94 77.17 21.72 73.48 22.49 72.25 22.75 71.02 23.01 69.79 23.26 69.41 23.34 69.03 23.42 68.65 23.5 68.5 23.53 68.17 23.53 68.05 23.63 68.03 23.64 67.99 23.64 67.97 23.65 67.96 23.65 67.94 23.67 67.95 23.68 68.29 24.45 68.63 25.23 68.96 26 68.99 26.07 69.11 26.09 69.17 26.07 70.6 25.76 72.02 25.45 73.45 25.13 76.88 24.38 80.31 23.63 83.73 22.88 87.9 21.97 92.07 21.06 96.24 20.15 99.83 19.37 103.42 18.58 107.01 17.8 108.2 17.54 109.39 17.28 110.58 17.02 110.94 16.94 111.31 16.86 111.67 16.78 111.81 16.75 112.14 16.74 112.26 16.65 112.28 16.64 112.32 16.64 112.34 16.63 112.35 16.63 112.37 16.61 112.36 16.6 112.11 15.96 111.87 15.31 111.62 14.67 111.59 14.6 111.36 14.57 111.39 14.63 111.53 14.99 111.66 15.35 111.8 15.71 111.84 15.81 112.14 16.53 112.14 16.53 112.1 16.58 111.81 16.6 111.75 16.62 110.91 16.8 110.06 16.99 109.22 17.17 105.9 17.9 102.57 18.62 99.25 19.35 94.92 20.3 90.6 21.24 86.27 22.19 82.44 23.03 78.61 23.86 74.78 24.7 73.49 24.98 72.2 25.26 70.91 25.55 70.51 25.64 70.11 25.72 69.71 25.81 69.55 25.84 69.21 25.85 69.08 25.95 69.06 25.96 69.02 25.96 69 25.97 69.07 25.99 69.14 26.02 69.21 26.04 69.07 25.71 68.92 25.38 68.78 25.05 68.68 24.81 68.57 24.58 68.47 24.34 68.41 24.2 68.24 23.96 68.24 23.8 68.24 23.65 68.15 23.81 68.24 23.74 68.28 23.71 68.42 23.7 68.47 23.69 69.28 23.52 70.08 23.35 70.89 23.18 74.27 22.47 77.65 21.76 81.02 21.05 85.4 20.13 89.78 19.21 94.16 18.3 97.98 17.5 101.8 16.7 105.63 15.9 107.26 15.56 108.92 15.15 110.55 14.87 110.89 14.81 111.26 14.77 111.61 14.72 111.71 14.7 111.5 14.59 111.44 14.6Z" fill="#58331F"/></g></g><g><path d="M111.03 13.79 110.43 13.48 110.62 13.02 109.54 12.87 109.73 12.44 108.96 12.44 109.17 12.07 108.22 11.94 108.64 11.57 107.79 11.34 108.02 10.88 107.34 10.73 107.61 10.4 107.09 10.11C107.09 10.11 92.96 11.74 82.9 14.28 68.85 17.83 65.05 20.54 65.05 20.54L65.67 20.54 65.32 21.08 66.32 21.08 65.9 21.62 66.75 21.62 66.6 22.16 67.06 22.16 66.87 22.62 67.53 22.62 67.22 23.16 68.06 23.28 68.06 23.7 110.42 14.82 111.5 14.67 110.83 14.32 111.03 13.79Z" fill="#F4ECE0"/><g><path d="M111.1 13.76C110.99 13.7 110.6 13.58 110.55 13.48 110.55 13.49 110.7 13.16 110.74 13.05 110.76 13 110.62 12.97 110.6 12.97 110.24 12.92 109.88 12.87 109.52 12.82 109.57 12.85 109.61 12.88 109.66 12.9 109.72 12.76 109.79 12.62 109.85 12.47 109.87 12.41 109.71 12.38 109.68 12.38 109.42 12.38 109.17 12.38 108.91 12.38 108.97 12.41 109.02 12.44 109.08 12.47 109.15 12.35 109.22 12.23 109.29 12.1 109.32 12.06 109.17 12.02 109.15 12.02 108.83 11.98 108.52 11.93 108.2 11.89 108.24 11.92 108.29 11.95 108.33 11.98 108.47 11.86 108.61 11.73 108.75 11.61 108.8 11.57 108.67 11.53 108.65 11.52 108.42 11.46 108.13 11.42 107.91 11.32 107.8 11.27 107.86 11.36 107.97 11.23 108.04 11.14 108.08 11.01 108.13 10.9 108.15 10.86 108.04 10.83 108.02 10.82 107.79 10.77 107.57 10.72 107.34 10.67 107.37 10.7 107.41 10.73 107.44 10.76 107.53 10.65 107.62 10.54 107.71 10.43 107.73 10.4 107.69 10.37 107.67 10.36 107.09 10.04 106.96 10.05 106.33 10.12 105.19 10.26 104.06 10.41 102.93 10.56 99 11.1 95.08 11.7 91.17 12.42 86.51 13.28 81.9 14.36 77.35 15.69 74.13 16.63 70.93 17.66 67.85 18.99 66.86 19.42 65.8 19.85 64.92 20.48 64.86 20.52 65.06 20.58 65.08 20.58 65.29 20.58 65.49 20.58 65.7 20.58 65.65 20.55 65.59 20.52 65.54 20.48 65.42 20.66 65.31 20.84 65.19 21.02 65.15 21.08 65.31 21.12 65.35 21.12 65.68 21.12 66.02 21.12 66.35 21.12 66.3 21.09 66.24 21.06 66.19 21.02 66.05 21.2 65.91 21.38 65.77 21.56 65.72 21.62 65.9 21.66 65.93 21.66 66.21 21.66 66.5 21.66 66.78 21.66 66.72 21.63 66.67 21.6 66.61 21.57 66.56 21.75 66.51 21.93 66.46 22.11 66.44 22.17 66.6 22.2 66.63 22.2 66.78 22.2 66.94 22.2 67.09 22.2 67.03 22.17 66.98 22.14 66.92 22.11 66.86 22.26 66.79 22.42 66.73 22.57 66.71 22.63 66.87 22.66 66.9 22.66 67.12 22.66 67.34 22.66 67.56 22.66 67.5 22.63 67.45 22.6 67.39 22.57 67.29 22.75 67.18 22.93 67.08 23.11 67.05 23.15 67.2 23.19 67.22 23.19 67.5 23.23 67.78 23.27 68.06 23.31 68.01 23.28 67.97 23.25 67.92 23.23 67.92 23.37 67.92 23.51 67.92 23.65 67.92 23.72 68.06 23.74 68.11 23.73 69.58 23.42 71.05 23.11 72.52 22.81 76.04 22.07 79.56 21.33 83.08 20.59 87.26 19.71 91.44 18.84 95.62 17.96 99.13 17.22 102.64 16.49 106.15 15.75 107.59 15.45 109.04 15.09 110.49 14.84 110.84 14.78 111.2 14.74 111.56 14.69 111.63 14.68 111.6 14.63 111.55 14.61 111.41 14.54 111.02 14.43 110.95 14.3 110.92 14.25 110.95 14.27 111 14.11 111.04 14 111.08 13.9 111.12 13.79 111.14 13.73 110.91 13.66 110.88 13.73 110.82 13.9 110.75 14.08 110.69 14.25 110.68 14.27 110.72 14.3 110.74 14.31 110.9 14.39 111.06 14.5 111.22 14.56 111.49 14.65 111.38 14.58 111.14 14.62 110.87 14.66 110.59 14.69 110.32 14.74 110.19 14.76 110.05 14.8 109.92 14.82 109.09 14.99 108.26 15.17 107.43 15.34 104.15 16.03 100.88 16.71 97.6 17.4 93.36 18.29 89.13 19.18 84.89 20.07 81.13 20.86 77.36 21.65 73.6 22.44 72.34 22.7 71.09 22.97 69.83 23.23 69.44 23.31 69.04 23.39 68.65 23.48 68.5 23.51 68.15 23.52 68.03 23.61 68.02 23.62 67.97 23.62 67.95 23.63 68.01 23.66 68.08 23.69 68.14 23.71 68.14 23.57 68.14 23.43 68.14 23.29 68.14 23.23 68.04 23.21 68 23.21 67.72 23.17 67.44 23.13 67.16 23.09 67.21 23.12 67.25 23.15 67.3 23.17 67.4 22.99 67.51 22.81 67.61 22.63 67.64 22.58 67.46 22.54 67.44 22.54 67.22 22.54 67 22.54 66.78 22.54 66.84 22.57 66.89 22.6 66.95 22.63 67.01 22.48 67.08 22.32 67.14 22.17 67.16 22.11 67 22.08 66.97 22.08 66.82 22.08 66.66 22.08 66.51 22.08 66.57 22.11 66.62 22.14 66.68 22.17 66.73 21.99 66.78 21.81 66.83 21.63 66.85 21.57 66.69 21.54 66.66 21.54 66.38 21.54 66.09 21.54 65.81 21.54 65.86 21.57 65.92 21.6 65.97 21.64 66.11 21.46 66.25 21.28 66.39 21.1 66.44 21.04 66.26 21 66.23 21 65.9 21 65.56 21 65.23 21 65.28 21.03 65.34 21.06 65.39 21.1 65.51 20.92 65.62 20.74 65.74 20.56 65.78 20.5 65.62 20.46 65.58 20.46 65.37 20.46 65.17 20.46 64.96 20.46 65.01 20.49 65.07 20.52 65.12 20.56 65.83 20.06 66.66 19.7 67.44 19.34 70.18 18.09 73.06 17.13 75.93 16.25 84.41 13.66 93.12 12.05 101.89 10.82 103.3 10.62 104.71 10.43 106.12 10.26 106.42 10.22 106.73 10.18 107.03 10.15 107.22 10.13 106.91 10.04 107.14 10.2 107.21 10.25 107.45 10.36 107.45 10.37 107.45 10.36 107.22 10.61 107.18 10.66 107.14 10.71 107.25 10.74 107.28 10.75 107.4 10.78 107.84 10.8 107.9 10.89 107.82 10.78 107.69 11.14 107.62 11.29 107.6 11.33 107.71 11.36 107.73 11.37 108.01 11.45 108.3 11.52 108.58 11.6 108.55 11.57 108.51 11.54 108.48 11.51 108.34 11.63 108.2 11.76 108.06 11.88 108.01 11.93 108.17 11.97 108.19 11.97 108.51 12.01 108.82 12.06 109.14 12.1 109.09 12.07 109.05 12.04 109 12.02 108.93 12.14 108.86 12.26 108.79 12.39 108.76 12.44 108.94 12.48 108.96 12.48 109.22 12.48 109.47 12.48 109.73 12.48 109.67 12.45 109.62 12.42 109.56 12.39 109.5 12.53 109.43 12.67 109.37 12.82 109.35 12.87 109.49 12.9 109.51 12.9 109.87 12.95 110.23 13 110.59 13.05 110.54 13.02 110.5 12.99 110.45 12.97 110.39 13.12 110.32 13.28 110.26 13.43 110.25 13.45 110.29 13.48 110.31 13.49 110.51 13.59 110.71 13.7 110.91 13.8 111.03 13.85 111.24 13.84 111.1 13.76Z" fill="#AF9D84"/></g></g><g><g><g><path d="M64.83 18.37C64.83 18.37 62.51 8.86 53.08 0.13 53.08 0.13 43.65 1.42 33.8 3.69 23.95 5.95 20.68 5.17 7.64 8.71 7.64 8.71 14.91 12.73 21.32 26.64 27.74 40.55 27.92 47.43 27.92 47.43 27.92 47.43 30.17 32.94 50.55 24.59L50.55 24.59 64.83 18.37Z" fill="#F4ECE0"/><g><path d="M64.95 18.35C64.36 15.96 63.25 13.64 62.08 11.5 60.8 9.15 59.31 6.92 57.62 4.84 56.6 3.59 55.52 2.39 54.38 1.25 54.1 0.97 53.82 0.7 53.54 0.43 53.42 0.31 53.29 0.12 53.12 0.08 53.06 0.07 52.95 0.1 52.89 0.11 43.19 1.27 33.77 4.01 24.11 5.36 18.53 6.14 13.04 7.2 7.6 8.67 7.57 8.67 7.48 8.72 7.54 8.75 8.56 9.32 9.48 10.13 10.35 10.91 12.84 13.17 14.95 15.84 16.8 18.64 19.72 23.08 21.94 27.96 23.88 32.9 25.21 36.31 26.39 39.8 27.18 43.38 27.47 44.7 27.78 46.08 27.81 47.44 27.81 47.5 28.04 47.47 28.05 47.41 28.25 46.12 28.74 44.85 29.25 43.66 30.6 40.5 32.57 37.61 34.9 35.09 38.64 31.05 43.3 27.95 48.27 25.64 50.82 24.46 53.52 23.35 56.23 22.17 59.12 20.91 62.02 19.65 64.91 18.39 65.05 18.33 64.84 18.3 64.77 18.33 59.81 20.49 54.86 22.7 49.88 24.8 41.41 28.38 33.42 34.29 29.41 42.78 28.72 44.23 28.06 45.82 27.81 47.42 27.89 47.41 27.97 47.4 28.05 47.39 28.01 46.08 27.73 44.75 27.45 43.48 26.57 39.44 25.21 35.51 23.66 31.69 21.56 26.51 19.14 21.44 15.88 16.88 14.02 14.29 11.91 11.82 9.41 9.82 8.93 9.43 8.38 9.12 7.9 8.73 7.86 8.73 7.78 8.71 7.76 8.68 7.8 8.75 8.7 8.47 8.85 8.43 10.24 8.06 11.64 7.72 13.05 7.39 17.04 6.48 21.07 5.88 25.12 5.31 29.82 4.64 34.4 3.54 39.04 2.6 43.46 1.71 47.9 0.92 52.37 0.27 52.53 0.25 52.72 0.19 52.89 0.2 52.93 0.2 52.99 0.17 53.03 0.18 53.23 0.22 52.78 0.05 53.15 0.32 53.73 0.74 54.23 1.36 54.73 1.87 55.27 2.43 55.8 3 56.31 3.59 58.01 5.54 59.55 7.64 60.89 9.86 62.42 12.39 63.76 15.12 64.6 17.97 64.64 18.11 64.68 18.25 64.72 18.39 64.73 18.46 64.97 18.41 64.95 18.35Z" fill="#AF9D84"/></g></g><g><path d="M68.23 17.07C68.23 17.07 66.14 17.75 64.83 18.36L50.55 24.57 50.55 24.57C54.64 22.9 59.44 21.48 65.07 20.52 65.07 20.52 68.88 17.81 82.92 14.26 92.98 11.72 107.11 10.09 107.11 10.09 88.33 10.33 68.23 17.07 68.23 17.07Z" fill="#F4ECE0"/><g><path d="M68.19 17.03C65.91 17.77 63.74 18.78 61.54 19.74 58.52 21.05 55.5 22.37 52.48 23.68 51.97 23.9 51.45 24.13 50.94 24.35 50.84 24.39 50.49 24.48 50.43 24.59 50.4 24.66 50.6 24.62 50.62 24.62 53.22 23.56 55.9 22.68 58.62 21.97 60.14 21.57 61.67 21.23 63.21 20.92 63.84 20.8 64.62 20.79 65.2 20.53 65.56 20.36 65.91 20.11 66.26 19.93 67.23 19.43 68.23 19 69.23 18.59 73.64 16.81 78.24 15.51 82.84 14.34 87.84 13.07 92.94 12.18 98.04 11.39 101.06 10.92 104.09 10.49 107.12 10.14 107.23 10.13 107.28 10.04 107.14 10.04 100 10.14 92.89 11.09 85.89 12.48 80.85 13.48 75.85 14.71 70.92 16.17 70.01 16.46 69.1 16.73 68.19 17.03 68.03 17.08 68.17 17.15 68.27 17.11 72.55 15.67 76.96 14.55 81.37 13.55 85.77 12.55 90.2 11.72 94.67 11.11 97.1 10.78 99.54 10.52 101.98 10.36 103.24 10.27 104.49 10.21 105.75 10.18 105.87 10.18 107.12 10.12 107.09 10.05 107.08 10.04 106.94 10.07 106.93 10.07 106.18 10.09 105.4 10.26 104.65 10.35 103.2 10.54 101.75 10.74 100.3 10.95 96.32 11.53 92.35 12.18 88.41 12.98 84.11 13.85 79.86 14.94 75.68 16.22 72.96 17.06 70.24 17.97 67.63 19.13 67 19.41 66.37 19.71 65.76 20.03 65.51 20.16 65.26 20.36 65 20.47 64.51 20.68 63.82 20.69 63.29 20.79 62.12 21.02 60.96 21.27 59.8 21.55 57.62 22.08 55.46 22.71 53.34 23.45 52.37 23.79 51.42 24.15 50.47 24.54 50.53 24.55 50.59 24.56 50.66 24.57 50.63 24.64 50.63 24.58 50.73 24.55 50.86 24.51 50.99 24.44 51.11 24.38 51.56 24.19 52 23.99 52.45 23.8 53.82 23.2 55.19 22.61 56.56 22.01 59.17 20.87 61.79 19.74 64.4 18.6 65.67 18.05 66.95 17.53 68.27 17.1 68.43 17.06 68.29 17 68.19 17.03Z" fill="#AF9D84"/></g></g><g opacity="0.4"><path d="M68.23 17.07C68.23 17.07 66.14 17.75 64.83 18.36L50.55 24.57 50.55 24.57C54.64 22.9 59.44 21.48 65.07 20.52 65.07 20.52 68.88 17.81 82.92 14.26 92.98 11.72 107.11 10.09 107.11 10.09 88.33 10.33 68.23 17.07 68.23 17.07Z" fill="#DAC4A7"/></g></g><g><g><path d="M28.82 53.42 74.84 42.64 112.25 16.59 69.08 26.02Z" fill="#5E321F"/><g><path d="M28.85 53.46C30.33 53.11 31.81 52.77 33.28 52.42 36.85 51.58 40.41 50.75 43.98 49.91 48.33 48.89 52.69 47.87 57.04 46.85 60.88 45.95 64.72 45.05 68.56 44.15 70.59 43.68 72.62 43.21 74.64 42.73 74.89 42.67 75.02 42.59 75.23 42.44 75.92 41.96 76.6 41.48 77.29 41.01 80.06 39.08 82.83 37.15 85.6 35.22 89.26 32.67 92.92 30.12 96.58 27.57 99.91 25.25 103.24 22.93 106.57 20.61 108.4 19.33 110.23 18.06 112.06 16.78 112.14 16.72 112.23 16.66 112.31 16.6 112.41 16.53 112.22 16.53 112.18 16.54 110.61 16.88 109.04 17.23 107.47 17.57 103.74 18.39 100 19.2 96.27 20.02 91.91 20.97 87.54 21.93 83.18 22.88 79.66 23.65 76.15 24.42 72.63 25.18 71.66 25.39 70.69 25.6 69.71 25.82 69.44 25.88 69.15 25.91 68.91 26.03 68.42 26.28 67.96 26.68 67.5 26.99 66.48 27.68 65.46 28.38 64.44 29.07 61.32 31.19 58.2 33.31 55.09 35.43 51.41 37.96 47.7 40.48 44 43 40.75 45.21 37.5 47.42 34.24 49.64 32.48 50.84 30.72 52.03 28.96 53.23 28.88 53.28 28.8 53.34 28.72 53.39 28.61 53.46 28.85 53.47 28.9 53.43 30.12 52.6 31.35 51.76 32.57 50.93 35.53 48.91 38.49 46.9 41.46 44.88 45.15 42.37 48.84 39.86 52.53 37.35 55.88 35.07 59.23 32.79 62.58 30.51 64.59 29.14 66.59 27.78 68.6 26.41 68.76 26.3 68.93 26.17 69.1 26.07 69.23 25.99 69.05 26.07 69.2 26.02 69.81 25.83 70.46 25.74 71.08 25.61 74.17 24.93 77.26 24.26 80.36 23.58 84.64 22.65 88.91 21.71 93.19 20.78 97.2 19.9 101.22 19.03 105.23 18.15 107.47 17.66 109.7 17.17 111.94 16.68 112.01 16.67 112.13 16.66 112.19 16.63 112.21 16.62 112.43 16.48 112.15 16.55 112.06 16.57 111.94 16.7 111.87 16.75 111.2 17.22 110.53 17.68 109.86 18.15 107.13 20.05 104.39 21.96 101.66 23.86 98.02 26.39 94.38 28.93 90.74 31.46 87.4 33.78 84.06 36.11 80.73 38.43 78.84 39.74 76.95 41.06 75.06 42.37 74.75 42.58 74.84 42.56 74.52 42.63 73.79 42.8 73.05 42.97 72.32 43.15 69.18 43.88 66.04 44.62 62.91 45.35 58.64 46.35 54.37 47.35 50.09 48.35 46 49.31 41.91 50.27 37.82 51.22 35.17 51.84 32.53 52.46 29.88 53.08 29.51 53.17 29.14 53.25 28.77 53.34 28.61 53.41 28.75 53.48 28.85 53.46Z" fill="#3B2418"/></g></g><g><path d="M2.7 77.09 17.54 71.62C17.54 71.62 21.02 65.13 27.28 62.81 29.99 61.8 30.52 64.25 29.82 66.57L31.72 67.06 32.84 66.6 26.15 55 2.7 77.09Z" fill="#5E321F"/><g><path d="M2.76 77.13C6.55 75.73 10.35 74.33 14.14 72.93 15.02 72.61 15.9 72.28 16.78 71.96 17.03 71.87 17.45 71.8 17.65 71.61 17.78 71.49 17.87 71.23 17.96 71.09 18.19 70.71 18.44 70.34 18.7 69.97 19.55 68.76 20.52 67.62 21.58 66.59 23.15 65.08 24.96 63.79 26.99 62.98 28.06 62.55 29.32 62.42 29.79 63.68 30.13 64.59 29.96 65.66 29.7 66.57 29.69 66.6 29.71 66.61 29.74 66.61 30.33 66.76 30.99 67.05 31.6 67.09 32.03 67.12 32.52 66.79 32.91 66.63 32.93 66.62 32.98 66.6 32.96 66.57 31.01 63.18 29.06 59.8 27.11 56.41 26.83 55.93 26.56 55.45 26.28 54.97 26.25 54.91 26.09 54.95 26.06 54.98 23.42 57.47 20.78 59.96 18.14 62.45 13.93 66.42 9.72 70.38 5.51 74.35 4.54 75.26 3.58 76.17 2.61 77.08 2.54 77.14 2.78 77.15 2.83 77.11 5.47 74.62 8.11 72.13 10.75 69.64 14.96 65.67 19.17 61.71 23.38 57.74 24.35 56.83 25.31 55.92 26.28 55.01 26.21 55.01 26.13 55.02 26.06 55.02 27.71 57.89 29.37 60.76 31.02 63.63 31.43 64.35 31.85 65.06 32.26 65.78 32.38 65.99 32.48 66.21 32.62 66.4 32.7 66.51 32.71 66.64 32.76 66.57 32.7 66.67 32.28 66.77 32.18 66.81 32.08 66.85 31.97 66.89 31.87 66.94 31.74 67 31.56 67 31.79 67.01 31.41 66.98 30.99 66.8 30.61 66.71 30.47 66.67 30.12 66.65 30.01 66.55 29.89 66.44 29.99 66.59 29.98 66.41 29.98 66.28 30.05 66.13 30.08 66 30.22 65.35 30.28 64.67 30.14 64.02 29.51 61.08 25.75 63.32 24.31 64.23 22.13 65.62 20.28 67.5 18.75 69.57 18.32 70.15 17.91 70.75 17.55 71.38 17.39 71.66 17.51 71.57 17.19 71.69 15.8 72.2 14.41 72.71 13.02 73.23 9.63 74.48 6.23 75.72 2.85 76.98 2.77 77 2.7 77.03 2.63 77.06 2.48 77.11 2.69 77.15 2.76 77.13Z" fill="#3B2418"/></g></g><g><path d="M74.84 42.64 28.82 53.42 51.89 93.65 63.14 89.48C63.14 89.48 60.36 83.61 57.96 78.58 55.94 74.34 56.44 68.06 60.55 65.23L60.55 65.23 60.55 65.23 60.55 65.23C66.77 60.85 72.72 63.74 76.2 69.23 79.68 74.72 82.31 80.51 82.31 80.51L92.99 76.09 88.87 69.08 74.84 42.64Z" fill="#9C6035"/><g><path d="M74.8 42.59C73.27 42.95 71.74 43.31 70.21 43.66 66.56 44.52 62.91 45.37 59.26 46.23 54.82 47.27 50.39 48.31 45.95 49.35 42.11 50.25 38.28 51.15 34.44 52.05 33.18 52.35 31.91 52.64 30.65 52.94 30.11 53.07 29.36 53.11 28.86 53.36 28.84 53.37 28.8 53.37 28.78 53.38 28.75 53.39 28.68 53.41 28.7 53.45 29.46 54.78 30.22 56.11 30.99 57.43 32.83 60.64 34.67 63.85 36.51 67.06 38.73 70.93 40.94 74.79 43.16 78.66 45.09 82.02 47.01 85.38 48.94 88.73 49.57 89.83 50.2 90.92 50.83 92.02 51.03 92.37 51.23 92.72 51.43 93.07 51.52 93.22 51.61 93.49 51.74 93.61 51.76 93.63 51.77 93.66 51.78 93.68 51.81 93.73 51.93 93.71 51.96 93.69 55.24 92.47 58.51 91.26 61.79 90.04 62.26 89.86 62.74 89.69 63.21 89.51 63.24 89.5 63.28 89.48 63.26 89.45 61.86 86.5 60.46 83.56 59.06 80.61 58.17 78.74 57.29 76.96 57.03 74.89 56.79 73.01 56.96 71.04 57.62 69.26 59 65.57 62.92 63.06 66.86 63.15 71.45 63.26 74.62 66.82 76.83 70.45 78.8 73.69 80.62 77.07 82.19 80.53 82.22 80.59 82.36 80.55 82.4 80.53 85.51 79.24 88.62 77.96 91.73 76.67 92.18 76.48 92.63 76.3 93.09 76.11 93.11 76.1 93.13 76.08 93.12 76.06 91.09 72.61 89.07 69.17 87.19 65.63 84.01 59.63 80.83 53.64 77.64 47.64 76.75 45.96 75.86 44.29 74.97 42.61 74.94 42.55 74.7 42.59 74.74 42.66 75.89 44.83 77.04 47 78.2 49.17 80.38 53.28 82.56 57.38 84.74 61.49 86.07 64 87.37 66.53 88.73 69.02 89.35 70.16 90.04 71.27 90.7 72.38 91.25 73.32 91.8 74.26 92.35 75.2 92.5 75.46 92.7 75.72 92.82 76 92.89 76.16 92.93 76.01 92.8 76.09 92.3 76.43 91.55 76.61 90.99 76.84 89.96 77.27 88.93 77.69 87.91 78.12 86.12 78.86 84.33 79.6 82.55 80.34 82.44 80.38 82.33 80.43 82.23 80.47 82.3 80.47 82.37 80.47 82.44 80.47 81.66 78.75 80.8 77.06 79.91 75.39 79.05 73.77 78.15 72.17 77.2 70.6 76.32 69.15 75.41 67.73 74.22 66.51 72.33 64.57 69.85 63.17 67.1 63.05 64.56 62.94 62.01 63.96 60.06 65.5 57.99 67.13 56.95 69.71 56.74 72.28 56.63 73.64 56.74 75.02 57.06 76.35 57.41 77.77 58.07 79.05 58.69 80.36 59.99 83.09 61.28 85.82 62.58 88.55 62.7 88.81 62.81 89.12 62.96 89.36 63.06 89.52 63.07 89.41 63 89.47 62.66 89.72 62.05 89.82 61.66 89.97 58.38 91.19 55.11 92.4 51.83 93.62 51.89 93.62 51.95 93.63 52.01 93.63 51.23 92.27 50.45 90.91 49.67 89.54 47.81 86.3 45.95 83.05 44.09 79.81 41.85 75.91 39.61 72.01 37.38 68.1 35.46 64.75 33.54 61.4 31.62 58.05 30.74 56.52 29.76 55.01 28.97 53.43 28.98 53.45 28.79 53.46 29.04 53.43 29.29 53.4 29.54 53.31 29.78 53.26 30.79 53.02 31.81 52.78 32.82 52.55 36.32 51.73 39.82 50.91 43.31 50.09 47.69 49.06 52.08 48.04 56.46 47.01 60.37 46.09 64.28 45.18 68.18 44.26 70.31 43.76 72.44 43.26 74.57 42.76 74.67 42.74 74.77 42.71 74.87 42.69 75.04 42.65 74.91 42.57 74.8 42.59Z" fill="#58331F"/></g></g><g><path d="M14.98 30.06C8.53 19.38 5.51 10.87 5.51 10.87L2.07 11.74 26.61 52.09 27.75 51.31 27.75 51.31C26.98 51.38 21.24 40.42 14.98 30.06Z" fill="#9C6035"/><g><path d="M15.1 30.08C11.63 24.33 8.52 18.32 6.07 12.06 5.92 11.67 5.77 11.28 5.63 10.89 5.61 10.82 5.48 10.81 5.42 10.82 4.27 11.11 3.13 11.4 1.98 11.69 1.97 11.69 1.95 11.71 1.96 11.72 2.77 13.05 3.58 14.39 4.39 15.72 6.35 18.94 8.31 22.16 10.27 25.38 12.63 29.26 14.99 33.14 17.35 37.02 19.39 40.38 21.43 43.73 23.47 47.09 24.15 48.2 24.82 49.31 25.5 50.42 25.8 50.91 26.07 51.56 26.46 51.99 26.48 52.01 26.49 52.04 26.5 52.06 26.54 52.12 26.67 52.16 26.73 52.12 27.11 51.86 27.49 51.6 27.87 51.34 27.93 51.3 27.73 51.24 27.71 51.24 27.47 51.24 26.81 50.06 26.65 49.83 25.94 48.74 25.28 47.61 24.63 46.48 22.72 43.19 20.85 39.88 18.95 36.59 17.68 34.41 16.4 32.24 15.1 30.08 15.06 30.02 14.84 30 14.87 30.04 17.3 34.06 19.63 38.14 21.97 42.22 23.5 44.9 24.97 47.65 26.7 50.21 26.92 50.53 27.33 51.35 27.81 51.35 27.76 51.32 27.7 51.28 27.65 51.25 27.27 51.51 26.89 51.77 26.51 52.03 26.59 52.05 26.66 52.07 26.74 52.09 25.81 50.56 24.88 49.03 23.95 47.5 21.77 43.91 19.58 40.32 17.4 36.73 14.88 32.59 12.36 28.44 9.84 24.3 7.87 21.05 5.89 17.81 3.92 14.56 3.42 13.75 2.93 12.93 2.43 12.12 2.4 12.07 2.19 11.82 2.21 11.75 2.2 11.77 2.88 11.61 2.99 11.58 3.55 11.44 4.1 11.3 4.66 11.16 4.98 11.08 5.3 11 5.62 10.92 5.55 10.9 5.48 10.87 5.41 10.85 6.94 15.16 8.99 19.33 11.11 23.37 12.3 25.63 13.56 27.85 14.88 30.04 14.9 30.11 15.13 30.12 15.1 30.08Z" fill="#58331F"/></g></g><g><path d="M49.92 95.97 61.97 91.33 63.13 89.47 51.89 93.65Z" fill="#5E321F"/><g><path d="M50 96C53.95 94.48 57.93 93.03 61.85 91.44 62.07 91.35 62.09 91.32 62.23 91.11 62.57 90.57 62.91 90.03 63.24 89.49 63.28 89.42 63.06 89.44 63.03 89.45 61.18 90.14 59.32 90.83 57.47 91.52 56.19 91.99 54.91 92.47 53.63 92.94 53.19 93.1 52.76 93.26 52.32 93.43 52.16 93.49 51.93 93.53 51.79 93.63 51.46 93.85 51.19 94.32 50.93 94.63 50.55 95.08 50.17 95.53 49.79 95.98 49.75 96.02 49.98 96.06 50.03 96 50.34 95.63 50.66 95.26 50.97 94.89 51.28 94.52 51.6 94 51.98 93.7 52.26 93.48 53.12 93.27 53.55 93.11 56.06 92.18 58.58 91.24 61.09 90.31 61.8 90.05 62.5 89.79 63.21 89.52 63.14 89.51 63.07 89.49 63 89.48 62.71 89.94 62.43 90.4 62.14 90.86 61.98 91.12 61.94 91.26 61.74 91.37 61.04 91.75 60.18 91.97 59.44 92.26 56.89 93.24 54.34 94.22 51.79 95.2 51.13 95.45 50.48 95.71 49.82 95.96 49.71 95.98 49.94 96.02 50 96Z" fill="#3B2418"/></g></g><g><path d="M28.82 53.42 69.08 26.02 68.07 23.7 26.61 51.91 2.07 11.57 0.12 13.58 24.29 53.13 0.7 75.39 2.7 77.09 26.15 55 32.84 66.6 49.92 95.97 51.89 93.65Z" fill="#884C2C"/><g><path d="M28.92 53.44C30.25 52.53 31.58 51.63 32.91 50.72 36.12 48.53 39.34 46.35 42.55 44.16 46.42 41.53 50.29 38.89 54.16 36.26 57.51 33.98 60.86 31.7 64.21 29.42 65.32 28.66 66.44 27.91 67.55 27.15 67.89 26.92 68.23 26.69 68.56 26.46 68.71 26.36 69.01 26.23 69.11 26.08 69.12 26.06 69.16 26.05 69.18 26.03 69.2 26.02 69.2 26.01 69.19 25.99 68.85 25.22 68.51 24.44 68.18 23.67 68.15 23.61 68 23.64 67.96 23.67 66.59 24.61 65.21 25.54 63.84 26.48 60.54 28.73 57.24 30.97 53.94 33.22 49.95 35.94 45.96 38.65 41.96 41.37 38.51 43.72 35.06 46.07 31.61 48.42 30.48 49.19 29.34 49.96 28.21 50.74 27.85 50.98 27.5 51.23 27.14 51.47 27 51.57 26.67 51.7 26.58 51.85 26.57 51.87 26.53 51.89 26.51 51.9 26.58 51.9 26.66 51.9 26.73 51.9 25.92 50.57 25.11 49.23 24.3 47.9 22.34 44.68 20.38 41.46 18.42 38.24 16.06 34.36 13.7 30.48 11.34 26.6 9.3 23.24 7.26 19.89 5.22 16.53 4.54 15.42 3.87 14.31 3.19 13.2 2.98 12.86 2.77 12.51 2.56 12.17 2.46 12.01 2.37 11.75 2.23 11.63 2.21 11.61 2.2 11.58 2.19 11.56 2.15 11.49 2 11.52 1.96 11.56 1.3 12.23 0.65 12.9 0 13.57 0 13.58 0 13.59 0.01 13.6 2.09 17 4.16 20.39 6.24 23.79 10.11 30.12 13.97 36.44 17.84 42.77 19.33 45.21 20.82 47.65 22.31 50.09 22.76 50.82 23.2 51.55 23.65 52.28 23.75 52.45 24.19 52.94 24.18 53.14 24.18 53.08 24.05 53.24 24 53.29 23.79 53.49 23.58 53.69 23.36 53.89 22.56 54.64 21.77 55.39 20.97 56.14 18.47 58.49 15.98 60.85 13.48 63.2 9.26 67.18 5.05 71.15 0.83 75.13 0.75 75.2 0.67 75.28 0.59 75.35 0.57 75.37 0.57 75.38 0.59 75.4 1.25 75.97 1.92 76.54 2.58 77.1 2.62 77.14 2.75 77.13 2.79 77.09 5.43 74.6 8.07 72.11 10.71 69.62 14.92 65.65 19.13 61.69 23.34 57.72 24.31 56.81 25.27 55.9 26.24 54.99 26.17 54.99 26.09 54.99 26.02 54.99 27.74 57.97 29.45 60.95 31.17 63.93 32.02 65.41 32.88 66.89 33.74 68.36 35.58 71.52 37.42 74.68 39.26 77.85 41.5 81.69 43.73 85.54 45.97 89.38 46.81 90.82 47.64 92.26 48.48 93.69 48.75 94.16 49.03 94.63 49.3 95.11 49.43 95.34 49.55 95.66 49.74 95.86 49.76 95.89 49.78 95.93 49.8 95.96 49.84 96.02 50 95.99 50.04 95.95 50.7 95.18 51.35 94.4 52.01 93.63 52.02 93.62 52.02 93.61 52.01 93.6 51.25 92.27 50.49 90.94 49.72 89.62 47.88 86.41 46.04 83.2 44.2 79.99 41.98 76.12 39.77 72.26 37.55 68.39 35.62 65.03 33.7 61.67 31.77 58.32 31.14 57.22 30.51 56.13 29.88 55.03 29.68 54.68 29.48 54.33 29.28 53.98 29.19 53.83 29.1 53.57 28.97 53.44 28.95 53.42 28.94 53.39 28.93 53.37 28.9 53.31 28.66 53.34 28.7 53.41 29.56 54.91 30.42 56.42 31.28 57.92 33.3 61.44 35.32 64.96 37.34 68.48 39.69 72.58 42.05 76.69 44.4 80.79 46.27 84.05 48.14 87.32 50.02 90.58 50.51 91.44 51 92.29 51.49 93.15 51.55 93.25 51.76 93.5 51.75 93.61 51.75 93.65 51.6 93.8 51.52 93.88 51.17 94.3 50.81 94.71 50.46 95.13 50.24 95.39 50.01 95.66 49.79 95.92 49.87 95.92 49.95 95.91 50.03 95.91 49 94.13 47.96 92.35 46.93 90.57 44.74 86.81 42.55 83.05 40.37 79.28 38.41 75.9 36.44 72.52 34.48 69.15 33.69 67.79 32.89 66.42 32.11 65.06 30.21 61.77 28.32 58.48 26.42 55.19 26.37 55.11 26.32 55.02 26.28 54.94 26.25 54.89 26.1 54.9 26.06 54.94 23.21 57.62 20.37 60.3 17.52 62.98 13.26 66.99 9 71.01 4.74 75.02 4.19 75.54 3.63 76.07 3.08 76.59 2.98 76.69 2.75 76.83 2.69 76.96 2.68 76.98 2.62 77.01 2.62 77.03 2.62 77.07 2.79 77.06 2.79 76.99 2.79 76.95 2.54 76.78 2.51 76.75 2.23 76.52 1.96 76.28 1.68 76.05 1.44 75.85 1.1 75.64 0.91 75.39 0.83 75.29 0.81 75.41 0.94 75.26 1.31 74.86 1.75 74.5 2.14 74.12 6.17 70.31 10.21 66.51 14.24 62.7 17.57 59.56 20.91 56.42 24.24 53.27 24.3 53.22 24.35 53.16 24.41 53.11 24.42 53.1 24.43 53.09 24.42 53.07 23.53 51.62 22.64 50.16 21.75 48.71 19.64 45.26 17.53 41.81 15.42 38.36 12.96 34.34 10.51 30.32 8.05 26.3 6.09 23.09 4.13 19.88 2.17 16.67 1.64 15.8 1.11 14.94 0.58 14.07 0.51 14 0.27 13.73 0.26 13.6 0.25 13.36 1.2 12.6 1.43 12.36 1.68 12.1 1.94 11.84 2.19 11.57 2.11 11.57 2.03 11.58 1.95 11.58 2.76 12.91 3.57 14.25 4.38 15.58 6.34 18.8 8.3 22.02 10.26 25.24 12.62 29.12 14.98 33 17.34 36.88 19.38 40.24 21.42 43.59 23.46 46.95 24.14 48.06 24.81 49.17 25.49 50.28 25.7 50.62 25.91 50.97 26.12 51.31 26.22 51.47 26.31 51.73 26.45 51.85 26.47 51.87 26.48 51.9 26.49 51.92 26.53 51.98 26.67 51.95 26.71 51.92 28.08 50.98 29.46 50.05 30.83 49.11 34.13 46.86 37.43 44.62 40.73 42.37 44.72 39.65 48.71 36.94 52.71 34.22 56.16 31.87 59.61 29.52 63.06 27.17 64.19 26.4 65.33 25.63 66.46 24.85 66.82 24.61 67.17 24.36 67.53 24.12 67.67 24.02 68 23.89 68.09 23.74 68.1 23.72 68.14 23.7 68.16 23.69 68.09 23.69 68.01 23.69 67.94 23.69 68.1 24.06 68.26 24.43 68.42 24.8 68.53 25.06 68.65 25.33 68.76 25.59 68.79 25.66 68.97 25.94 68.94 26.01 68.95 25.96 68.7 26.15 68.65 26.19 67.9 26.7 67.14 27.21 66.39 27.73 63.3 29.83 60.21 31.94 57.11 34.04 53.06 36.79 49.01 39.55 44.97 42.3 41.36 44.76 37.74 47.22 34.13 49.67 32.92 50.49 31.71 51.32 30.5 52.14 30.12 52.4 29.74 52.66 29.36 52.91 29.2 53.02 28.88 53.16 28.76 53.32 28.74 53.34 28.7 53.36 28.68 53.37 28.64 53.45 28.87 53.48 28.92 53.44Z" fill="#492A1A"/></g></g></g><g><path d="M7.64 8.71C7.64 8.71 14.91 12.73 21.32 26.64 27.74 40.55 27.92 47.43 27.92 47.43 27.92 47.43 31.37 26.33 65.07 20.54L65.69 20.54 65.34 21.08 66.34 21.08 65.92 21.62 66.77 21.62 66.62 22.16 67.08 22.16 66.89 22.62 67.55 22.62 67.24 23.16 68.08 23.28 68.08 23.7 27.75 51.13C26.98 51.21 21.24 40.25 14.98 29.89 8.53 19.21 5.51 10.7 5.51 10.7L5.24 9.86 5.67 9.91 5.75 9.45 6.14 9.66 6.2 9.36 6.6 9.44 6.54 9.06 6.99 9.23 7.02 8.94 7.41 9.1 7.35 8.79 7.63 8.95 7.63 8.71Z" fill="#F4ECE0"/><g><path d="M7.53 8.74C8.55 9.31 9.47 10.12 10.34 10.9 12.83 13.16 14.94 15.83 16.79 18.63 19.71 23.07 21.93 27.95 23.87 32.89 25.2 36.3 26.38 39.79 27.17 43.37 27.46 44.69 27.77 46.07 27.8 47.43 27.8 47.5 28.03 47.48 28.04 47.41 28.49 44.67 29.93 41.95 31.4 39.64 35.44 33.3 41.67 28.65 48.44 25.54 51.24 24.25 54.15 23.21 57.11 22.37 58.86 21.87 60.63 21.44 62.42 21.08 63.28 20.9 64.19 20.65 65.06 20.58 65.15 20.57 65.25 20.58 65.34 20.58 65.41 20.58 65.48 20.58 65.55 20.58 65.65 20.59 65.64 20.58 65.54 20.55 65.52 20.71 65.29 20.93 65.21 21.07 65.18 21.11 65.28 21.12 65.3 21.12 65.55 21.12 65.98 21.03 66.2 21.12 66.33 21.17 66.22 21.03 66.2 21.09 66.17 21.15 66.11 21.21 66.07 21.25 65.96 21.35 65.88 21.49 65.79 21.61 65.76 21.65 65.87 21.66 65.88 21.66 66.11 21.66 66.39 21.61 66.62 21.66 66.74 21.68 66.66 21.6 66.6 21.77 66.55 21.89 66.53 22.03 66.49 22.15 66.48 22.2 66.55 22.2 66.58 22.2 66.66 22.2 66.74 22.2 66.81 22.2 67.01 22.19 66.95 22.23 66.94 22.17 66.96 22.28 66.8 22.5 66.76 22.61 66.74 22.65 66.83 22.66 66.85 22.66 66.99 22.66 67.45 22.67 67.44 22.65 67.44 22.63 67.15 23.08 67.11 23.15 67.09 23.18 67.15 23.2 67.17 23.2 67.33 23.22 67.49 23.24 67.65 23.27 67.76 23.29 67.96 23.34 67.95 23.31 67.98 23.37 67.97 23.65 67.94 23.69 67.89 23.76 67.72 23.84 67.65 23.88 67.16 24.21 66.68 24.54 66.19 24.87 64.25 26.19 62.31 27.51 60.37 28.83 54.57 32.77 48.78 36.72 42.98 40.66 38.38 43.79 33.78 46.92 29.17 50.05 28.73 50.35 28.28 50.65 27.84 50.96 27.78 51 27.7 51.08 27.63 51.1 27.83 51.04 27.67 51.01 27.55 50.88 27.39 50.71 27.25 50.51 27.11 50.32 26.01 48.78 25.09 47.1 24.15 45.47 22.67 42.9 21.21 40.32 19.73 37.75 14.7 29 9.1 20.4 5.68 10.82 5.56 10.5 5.46 10.17 5.36 9.84 5.3 9.86 5.24 9.88 5.18 9.9 5.32 9.92 5.46 9.93 5.61 9.95 5.66 9.96 5.78 9.96 5.79 9.9 5.82 9.75 5.84 9.59 5.87 9.44 5.79 9.45 5.72 9.46 5.64 9.48 5.77 9.55 5.9 9.62 6.03 9.69 6.08 9.72 6.24 9.72 6.26 9.65 6.28 9.55 6.3 9.45 6.32 9.35 6.26 9.36 6.2 9.38 6.14 9.4 6.28 9.43 6.41 9.46 6.55 9.49 6.58 9.5 6.74 9.49 6.73 9.43 6.7 9.3 6.68 9.18 6.66 9.05 6.6 9.07 6.53 9.09 6.46 9.1 6.61 9.16 6.76 9.22 6.91 9.27 6.95 9.29 7.11 9.29 7.12 9.22 7.13 9.12 7.14 9.03 7.15 8.93 7.07 8.95 7.01 8.97 6.94 8.99 7.07 9.04 7.2 9.09 7.33 9.15 7.36 9.16 7.55 9.16 7.54 9.1 7.51 8.99 7.49 8.88 7.48 8.77 7.4 8.79 7.33 8.8 7.25 8.82 7.34 8.87 7.44 8.93 7.53 8.98 7.58 9 7.76 9.01 7.76 8.93 7.76 8.85 7.76 8.77 7.76 8.69 7.76 8.63 7.52 8.64 7.52 8.71 7.52 8.79 7.52 8.87 7.52 8.95 7.6 8.94 7.67 8.92 7.75 8.91 7.65 8.86 7.55 8.8 7.46 8.75 7.42 8.73 7.22 8.72 7.23 8.8 7.25 8.9 7.27 9.01 7.29 9.11 7.36 9.1 7.43 9.08 7.49 9.06 7.36 9.01 7.23 8.96 7.1 8.9 7.06 8.88 6.91 8.89 6.9 8.95 6.89 9.05 6.88 9.14 6.87 9.24 6.94 9.22 7.01 9.21 7.08 9.19 6.93 9.13 6.78 9.07 6.63 9.02 6.59 9.01 6.41 9.01 6.42 9.07 6.44 9.2 6.46 9.32 6.48 9.45 6.54 9.43 6.6 9.41 6.66 9.39 6.52 9.36 6.39 9.33 6.25 9.3 6.2 9.29 6.08 9.3 6.07 9.36 6.05 9.46 6.03 9.56 6.01 9.66 6.09 9.65 6.16 9.63 6.24 9.62 6.11 9.55 5.98 9.48 5.85 9.41 5.8 9.38 5.63 9.38 5.62 9.45 5.6 9.61 5.57 9.76 5.55 9.92 5.61 9.9 5.67 9.88 5.73 9.86 5.58 9.84 5.44 9.83 5.3 9.81 5.28 9.81 5.1 9.81 5.12 9.87 5.88 12.22 6.88 14.49 7.9 16.74 10.53 22.51 13.73 27.94 16.94 33.4 19.91 38.45 22.7 43.62 25.76 48.63 26.14 49.26 26.53 49.89 26.96 50.48 27.11 50.69 27.35 51.11 27.63 51.18 27.87 51.24 28.1 51 28.28 50.88 32.21 48.21 36.14 45.53 40.07 42.86 46.03 38.81 51.99 34.75 57.95 30.7 60.26 29.13 62.58 27.55 64.89 25.98 65.61 25.49 66.33 25 67.05 24.51 67.36 24.3 67.88 24.07 68.13 23.78 68.25 23.63 68.21 23.51 68.21 23.29 68.21 23.26 68.16 23.26 68.15 23.25 67.99 23.23 67.5 23.25 67.38 23.14 67.36 23.12 67.37 23.14 67.47 23.01 67.55 22.89 67.61 22.76 67.68 22.64 67.7 22.6 67.61 22.59 67.59 22.59 67.51 22.59 67.02 22.65 66.96 22.59 67.06 22.7 67.18 22.25 67.22 22.18 67.24 22.14 67.15 22.13 67.13 22.13 67.05 22.13 66.97 22.13 66.9 22.13 66.72 22.14 66.75 22.1 66.77 22.15 66.73 22.05 66.88 21.75 66.92 21.64 66.93 21.59 66.86 21.59 66.83 21.59 66.65 21.59 66.17 21.68 66.03 21.59 66.12 21.65 66.38 21.25 66.5 21.1 66.53 21.06 66.42 21.05 66.41 21.05 66.12 21.05 65.83 21.08 65.54 21.05 65.37 21.03 65.47 21.09 65.58 20.97 65.68 20.85 65.76 20.69 65.85 20.56 65.88 20.52 65.78 20.51 65.76 20.51 64.52 20.51 63.3 20.83 62.09 21.08 60.6 21.39 59.13 21.75 57.66 22.15 54.97 22.89 52.33 23.78 49.76 24.87 45.68 26.6 41.79 28.83 38.37 31.66 34.17 35.13 30.6 39.56 28.66 44.69 28.32 45.58 27.99 46.52 27.84 47.47 27.92 47.46 28 47.46 28.08 47.45 28.05 46.36 27.83 45.26 27.62 44.19 26.94 40.81 25.89 37.51 24.68 34.29 21.6 26.05 17.64 17.6 11.2 11.43 10.13 10.41 9 9.37 7.74 8.67 7.68 8.64 7.46 8.7 7.53 8.74Z" fill="#AF9D84"/></g></g><g><g><path d="M76.19 69.22C72.71 63.74 66.76 60.84 60.54 65.22 61.3 64.69 62.19 64.29 63.2 64.04 70.08 62.34 77.23 73.2 81.17 82.86L82.29 80.5C82.3 80.51 79.67 74.71 76.19 69.22Z" fill="#884C2C"/><g><path d="M76.31 69.22C74.64 66.61 72.26 64.29 69.22 63.41 66.13 62.52 63.03 63.39 60.44 65.19 60.36 65.24 60.59 65.3 60.65 65.26 68.14 60.24 74.89 70.75 77.91 76.24 79.09 78.38 80.13 80.6 81.06 82.86 81.08 82.91 81.27 82.94 81.29 82.88 81.46 82.52 81.63 82.17 81.8 81.81 81.97 81.44 82.32 80.98 82.39 80.58 82.45 80.18 81.96 79.52 81.79 79.16 80.14 75.76 78.33 72.42 76.31 69.22 76.27 69.16 76.04 69.17 76.07 69.22 78.06 72.37 79.84 75.65 81.47 79.01 81.66 79.39 82.19 80.2 82.14 80.56 82.09 80.95 81.71 81.47 81.54 81.82 81.38 82.16 81.22 82.5 81.06 82.83 81.14 82.84 81.22 82.85 81.29 82.85 79.49 78.45 77.26 74.14 74.36 70.37 72.27 67.64 69.49 64.64 65.96 63.94 64.02 63.56 62.06 64.09 60.44 65.18 60.51 65.2 60.58 65.23 60.65 65.25 63.28 63.42 66.46 62.55 69.58 63.63 72.36 64.6 74.52 66.78 76.08 69.21 76.11 69.29 76.34 69.28 76.31 69.22Z" fill="#58331F"/></g></g><g><path d="M82.3 80.51 81.18 82.87 91.94 78.35 92.98 76.08Z" fill="#5E321F"/><g><path d="M82.18 80.47C81.81 81.26 81.43 82.04 81.06 82.83 81.03 82.89 81.23 82.94 81.27 82.92 82.96 82.21 84.64 81.5 86.33 80.8 87.54 80.29 88.75 79.79 89.95 79.28 90.4 79.09 90.84 78.91 91.29 78.72 91.5 78.63 91.8 78.57 91.98 78.43 92.18 78.28 92.26 77.96 92.37 77.72 92.62 77.19 92.86 76.66 93.11 76.13 93.14 76.07 92.94 76.02 92.9 76.04 89.78 77.33 86.67 78.62 83.55 79.91 83.1 80.09 82.66 80.28 82.21 80.46 82.12 80.5 82.34 80.6 82.4 80.57 85.52 79.28 88.63 77.99 91.75 76.7 92.2 76.52 92.64 76.33 93.09 76.15 93.02 76.12 92.95 76.09 92.88 76.06 92.67 76.51 92.47 76.95 92.26 77.4 92.15 77.63 91.97 78.19 91.84 78.31 91.7 78.43 91.4 78.5 91.23 78.57 90.83 78.74 90.44 78.9 90.04 79.07 87.7 80.05 85.36 81.04 83.01 82.02 82.37 82.29 81.74 82.55 81.1 82.82 81.17 82.85 81.24 82.88 81.31 82.91 81.68 82.12 82.06 81.34 82.43 80.55 82.44 80.49 82.21 80.4 82.18 80.47Z" fill="#3B2418"/></g></g></g><g><g><path d="M5.44 9.89C12.26 23.65 19.62 37.15 27.25 50.48 27.32 50.6 27.58 50.64 27.69 50.57 37.79 43.64 47.89 36.7 57.98 29.76 61.13 27.59 64.3 25.43 67.43 23.24 67.52 23.18 67.12 23.02 67 23.1 56.06 30.74 45.01 38.24 34.01 45.79 31.76 47.34 29.51 48.88 27.25 50.43 27.4 50.46 27.54 50.49 27.69 50.52 20.07 37.19 12.71 23.69 5.89 9.93 5.83 9.8 5.39 9.78 5.44 9.89L5.44 9.89Z" fill="#AF9D84"/></g><g><path d="M5.97 9.38C13.97 22.52 21.53 36.17 27.53 50.34 27.58 50.45 27.89 50.41 27.95 50.35 32.1 46.51 36.47 42.88 40.91 39.38 48.97 33.01 57.55 26.72 67.05 22.68 67.27 22.59 66.82 22.52 66.72 22.56 57.37 26.53 48.93 32.69 40.98 38.93 36.37 42.54 31.85 46.29 27.56 50.27 27.7 50.27 27.84 50.28 27.98 50.28 21.98 36.11 14.43 22.46 6.42 9.32 6.35 9.2 5.9 9.27 5.97 9.38L5.97 9.38Z" fill="#AF9D84"/></g><g><path d="M6.77 9.3C9.74 13.09 12.36 17.18 14.84 21.29 20.19 30.16 24.72 39.64 27.52 49.63 27.56 49.78 27.91 49.66 27.97 49.58 31.03 45.54 34.73 41.9 38.51 38.54 46.65 31.28 56.15 25.27 66.68 22.23 66.98 22.14 66.72 22.02 66.53 22.07 56.32 25.02 47.13 30.71 39.12 37.61 34.95 41.21 30.92 45.17 27.56 49.55 27.55 49.57 27.53 49.59 27.52 49.6 27.67 49.58 27.82 49.57 27.97 49.56 25.19 39.64 20.7 30.26 15.43 21.43 12.91 17.22 10.23 13.04 7.2 9.17 7.12 9.07 6.69 9.19 6.77 9.3L6.77 9.3Z" fill="#AF9D84"/></g><g><path d="M66.02 21.31C61.88 22.18 57.82 23.76 53.98 25.48 45.73 29.19 38.09 34.49 32.33 41.51 30.5 43.75 28.9 46.17 27.53 48.71 27.68 48.71 27.83 48.7 27.99 48.7 26.83 43.65 25.17 38.68 23.33 33.85 20.11 25.39 15.95 16.61 9.33 10.26 8.76 9.73 8.18 9.23 7.58 8.74 7.46 8.65 7.05 8.77 7.13 8.83 14.37 14.69 18.77 23.69 22.18 32.16 24.33 37.51 26.17 43.04 27.5 48.65 27.51 48.68 27.52 48.71 27.52 48.75 27.55 48.88 27.92 48.83 27.98 48.74 32.79 39.81 40.52 32.96 49.33 28.09 54.42 25.28 59.94 23 65.6 21.62 65.78 21.58 65.97 21.53 66.16 21.49 66.46 21.42 66.21 21.27 66.02 21.31L66.02 21.31Z" fill="#AF9D84"/></g></g><g><g><path d="M65.53 21.18C69.43 19.45 73.54 18.13 77.62 16.91 87.56 13.92 97.82 11.93 108.16 11 108.4 10.98 108.02 10.75 107.9 10.76 97.52 11.69 87.26 13.7 77.28 16.68 73.18 17.9 69.05 19.24 65.13 20.98 65.04 21.02 65.41 21.23 65.53 21.18L65.53 21.18Z" fill="#AF9D84"/></g><g><path d="M66.95 21.7C71.1 20.05 75.39 18.69 79.68 17.43 89 14.7 98.61 12.62 108.33 12.04 108.63 12.02 108.28 11.83 108.13 11.84 98.68 12.41 89.35 14.39 80.25 16.99 75.64 18.31 71.03 19.76 66.57 21.53 66.42 21.59 66.84 21.75 66.95 21.7L66.95 21.7Z" fill="#AF9D84"/></g><g><path d="M67.19 22.23C71.67 20.65 76.24 19.33 80.82 18.09 90.2 15.56 99.82 13.5 109.54 12.96 109.81 12.95 109.8 12.76 109.53 12.78 100.05 13.31 90.66 15.29 81.5 17.71 76.61 19 71.72 20.41 66.95 22.1 66.67 22.18 67.06 22.28 67.19 22.23L67.19 22.23Z" fill="#AF9D84"/></g><g><path d="M67.65 22.7C72.45 21.19 77.33 19.88 82.21 18.65 91.46 16.32 100.9 14.24 110.43 13.58 110.7 13.56 110.7 13.38 110.42 13.39 101.01 14.04 91.7 16.07 82.56 18.34 77.48 19.61 72.41 20.97 67.41 22.54 67.13 22.63 67.52 22.74 67.65 22.7L67.65 22.7Z" fill="#AF9D84"/></g><g><path d="M67.68 23.3C81.98 19.41 96.54 16.2 111.17 13.89 111.41 13.85 110.99 13.68 110.87 13.7 96.24 16.01 81.67 19.23 67.37 23.11 67.15 23.17 67.57 23.33 67.68 23.3L67.68 23.3Z" fill="#AF9D84"/></g><g><path d="M68.22 23.52C73.51 22.22 78.82 21 84.13 19.81 93.12 17.8 102.18 15.79 111.32 14.6 111.62 14.56 111.25 14.39 111.11 14.41 102.12 15.57 93.22 17.54 84.38 19.51 78.88 20.73 73.38 22 67.91 23.34 67.68 23.4 68.11 23.55 68.22 23.52L68.22 23.52Z" fill="#AF9D84"/></g></g><g opacity="0.9"><path d="M111.03 13.79 110.43 13.48 110.62 13.02 109.54 12.87 109.73 12.44 108.96 12.44 109.17 12.07 108.22 11.94 108.64 11.57 107.79 11.34 108.02 10.88 107.34 10.73 107.61 10.4 107.09 10.11C107.09 10.11 92.96 11.74 82.9 14.28 68.85 17.83 65.05 20.54 65.05 20.54L65.67 20.54 65.32 21.08 66.32 21.08 65.9 21.62 66.75 21.62 66.6 22.16 67.06 22.16 66.87 22.62 67.53 22.62 67.22 23.16 68.06 23.28 68.06 23.7 110.42 14.82 111.5 14.67 110.83 14.32 111.03 13.79Z" fill="#DAC4A7"/></g><g opacity="0.9"><path d="M7.64 8.71C7.64 8.71 14.91 12.73 21.32 26.64 27.74 40.55 27.92 47.43 27.92 47.43 27.92 47.43 31.37 26.33 65.07 20.54L65.69 20.54 65.34 21.08 66.34 21.08 65.92 21.62 66.77 21.62 66.62 22.16 67.08 22.16 66.89 22.62 67.55 22.62 67.24 23.16 68.08 23.28 68.08 23.7 27.75 51.13C26.98 51.21 21.24 40.25 14.98 29.89 8.53 19.21 5.51 10.7 5.51 10.7L5.24 9.86 5.67 9.91 5.75 9.45 6.14 9.66 6.2 9.36 6.6 9.44 6.54 9.06 6.99 9.23 7.02 8.94 7.41 9.1 7.35 8.79 7.63 8.95 7.63 8.71Z" fill="#DAC4A7"/></g></g><g><g><path d="M14.69 10.76C17.03 12.05 18.64 14.12 20.2 16.22 21.87 18.48 23.59 20.72 25.04 23.12 26.52 25.57 27.49 28.34 28.55 30.98 29.08 32.29 29.64 33.59 29.96 34.97 30.32 36.47 30.51 37.98 31.06 39.43 31.11 39.56 31.55 39.61 31.51 39.5 31.01 38.19 30.78 36.82 30.5 35.45 30.19 33.92 29.58 32.51 29 31.06 27.88 28.27 26.85 25.37 25.26 22.82 23.72 20.34 21.93 18.01 20.19 15.66 18.73 13.7 17.13 11.86 14.97 10.67 14.84 10.6 14.43 10.62 14.69 10.76L14.69 10.76Z" fill="#AF9D84"/></g><g><path d="M20.16 12.37C20.6 13.93 21.73 15.08 22.76 16.28 24.15 17.9 25.21 19.87 26.28 21.71 28.61 25.75 30.28 30.18 31.91 34.55 31.96 34.69 32.41 34.6 32.37 34.5 30.88 30.5 29.3 26.53 27.33 22.73 26.31 20.75 25.09 18.8 23.82 16.97 22.73 15.4 21.16 14.23 20.62 12.31 20.58 12.18 20.13 12.26 20.16 12.37L20.16 12.37Z" fill="#AF9D84"/></g><g><path d="M24.8 12.42C25.76 14.95 27.4 17.11 28.85 19.37 30.33 21.68 31.69 24.13 32.61 26.72 32.65 26.84 33.11 26.84 33.06 26.71 32.14 24.11 30.77 21.68 29.3 19.35 27.87 17.08 26.22 14.94 25.25 12.41 25.21 12.29 24.75 12.29 24.8 12.42L24.8 12.42Z" fill="#AF9D84"/></g><g><path d="M41.18 28.39C40.83 24.66 38.28 21.73 36.66 18.5 35.76 16.71 34.42 15.19 33.44 13.45 32.47 11.72 30.84 10.52 29.42 9.2 29.32 9.1 28.9 9.22 28.98 9.3 30.24 10.47 31.6 11.53 32.62 12.93 33.15 13.65 33.55 14.49 34.05 15.23 34.65 16.12 35.27 16.98 35.83 17.89 36.82 19.51 37.74 21.2 38.68 22.84 39.67 24.58 40.53 26.41 40.72 28.43 40.73 28.57 41.19 28.52 41.18 28.39L41.18 28.39Z" fill="#AF9D84"/></g><g><path d="M32.91 8.27C33.4 9.53 34.26 10.55 35.15 11.55 36.27 12.81 37.28 14.06 38.13 15.52 39.06 17.12 39.78 18.87 40.61 20.53 41.53 22.38 42.45 24.23 43.27 26.13 43.33 26.27 43.77 26.17 43.73 26.08 42.33 22.84 40.72 19.68 39.15 16.52 38.39 14.99 37.45 13.57 36.32 12.28 35.22 11.02 33.99 9.82 33.37 8.23 33.32 8.08 32.87 8.17 32.91 8.27L32.91 8.27Z" fill="#AF9D84"/></g><g><path d="M45.73 24.28C43.24 20.73 41.83 16.57 39.39 12.99 39.31 12.88 38.87 12.97 38.95 13.08 41.39 16.66 42.8 20.82 45.29 24.36 45.37 24.48 45.81 24.38 45.73 24.28L45.73 24.28Z" fill="#AF9D84"/></g><g><path d="M41.27 8.38C42.9 11.05 44.7 13.62 46.21 16.36 47.66 19 48.22 21.93 49.39 24.68 49.44 24.81 49.89 24.84 49.84 24.72 48.67 21.96 48.09 19.05 46.66 16.4 45.18 13.64 43.35 11.08 41.72 8.42 41.64 8.3 41.21 8.29 41.27 8.38L41.27 8.38Z" fill="#AF9D84"/></g><g><path d="M50.06 20.81C48.78 17.57 47.47 14.33 45.18 11.66 45.1 11.57 44.66 11.5 44.77 11.63 47.05 14.28 48.35 17.51 49.62 20.72 49.67 20.85 50.1 20.92 50.06 20.81L50.06 20.81Z" fill="#AF9D84"/></g><g><path d="M45.31 4.98C46.63 5.89 47.63 6.99 48.45 8.36 49.3 9.79 50.39 11.05 51.28 12.45 52.35 14.12 52.97 16.11 53.68 17.95 54.19 19.26 54.52 20.8 55.33 21.97 55.41 22.08 55.85 21.99 55.77 21.88 54.91 20.63 54.53 18.91 53.98 17.5 53.31 15.77 52.68 13.96 51.72 12.37 50.8 10.85 49.62 9.5 48.71 7.98 47.95 6.71 46.91 5.7 45.7 4.87 45.6 4.79 45.17 4.88 45.31 4.98L45.31 4.98Z" fill="#AF9D84"/></g><g><path d="M49.09 5.32C49.87 6.34 50.82 7.19 51.69 8.12 52.68 9.18 53.31 10.46 53.86 11.78 54.92 14.36 55.77 17.02 56.88 19.58 56.94 19.71 57.38 19.73 57.33 19.61 56.17 16.93 55.27 14.14 54.16 11.44 53.7 10.33 53.12 9.3 52.36 8.38 51.46 7.3 50.36 6.42 49.5 5.3 49.43 5.2 48.98 5.17 49.09 5.32L49.09 5.32Z" fill="#AF9D84"/></g><g><path d="M52.4 5.48C56.09 9.26 57.48 14.41 59.97 18.93 60.04 19.05 60.48 19.01 60.42 18.89 57.93 14.37 56.53 9.22 52.85 5.44 52.74 5.34 52.33 5.41 52.4 5.48L52.4 5.48Z" fill="#AF9D84"/></g><g><path d="M31.14 19.5C32.94 22.32 34.7 25.2 35.78 28.39 35.82 28.52 36.27 28.57 36.23 28.44 35.15 25.25 33.39 22.37 31.59 19.55 31.51 19.44 31.09 19.42 31.14 19.5L31.14 19.5Z" fill="#AF9D84"/></g></g><g opacity="0.4"><path d="M91.51 76.7 92.99 76.09 88.87 69.08 74.84 42.64 28.82 53.42 33.8 62.11C41.49 52.09 77.5 51.13 91.51 76.7Z" fill="#9C6035"/></g><g opacity="0.4"><path d="M65.33 40.13C54.46 38.47 69.08 26.02 69.08 26.02L28.81 53.42 74.84 42.64 111.98 16.78C111.92 16.82 75.18 41.63 65.33 40.13Z" fill="#5E321F"/></g><g opacity="0.4"><path d="M27.75 51.3C26.98 51.38 21.24 40.41 14.98 30.06 8.53 19.38 5.51 10.87 5.51 10.87L4.34 11.17C4.34 11.17 8.06 20.77 18.3 38.25L18.23 38.3 26.61 52.09 27.75 51.3Z" fill="#9C6035"/></g><g opacity="0.4"><path d="M26.15 55 21.78 59.12C24.4 58.51 25.43 60.56 22.02 64.51 17.15 70.15 12.15 73.61 12.15 73.61L12.15 73.61 17.54 71.62C17.54 71.62 21.02 65.13 27.28 62.81 29.99 61.8 30.52 64.25 29.82 66.57L31.72 67.06 32.84 66.6 26.15 55Z" fill="#5E321F"/></g><g opacity="0.6"><path d="M0.88 12.8 0.12 13.58 24.29 53.13 0.7 75.39 1.5 76.07 25.8 53.13Z" fill="#884C2C"/></g><g opacity="0.6"><path d="M68.51 24.71 27.25 53.13 50.9 94.81 51.89 93.65 28.82 53.42 69.08 26.02Z" fill="#884C2C"/></g><g opacity="0.6"><path d="M2.11 76.59 2.7 77.09 26.15 55 32.84 66.6 49.92 95.97 50.5 95.28 26.38 53.77Z" fill="#884C2C"/></g><g opacity="0.6"><path d="M68.34 24.32 68.07 23.7 26.61 51.91 2.07 11.57 1.27 12.39 26.3 52.65Z" fill="#884C2C"/></g><g opacity="0.4"><path d="M111.51 14.66 110.43 14.81 110.1 14.88C110.67 15.4 107.99 16.65 93.78 19.68 71.45 24.43 69.33 23.43 69.33 23.43L68.07 23.69 69.08 26.01 112.25 16.58 111.51 14.66Z" fill="#9C6035"/></g><g opacity="0.7"><path d="M45.55 36.44C46.57 35.17 47.41 34.26 47.41 34.26 47.41 34.26 40.82 37.31 42.73 35.69 44.64 34.07 49.61 29.93 49.61 29.93 49.61 29.93 42.04 34.82 44.35 32.44 46.67 30.06 51.25 26.82 50.53 27.3 49.82 27.78 37.51 33.37 41.49 30.21 45.32 27.16 52.63 23.83 53.16 23.58 30.51 31.58 27.91 47.44 27.91 47.44 27.91 47.44 27.73 40.56 21.31 26.65 18.81 21.23 16.18 17.31 13.9 14.55 13.98 14.68 16.52 19 17.86 21.24 18.14 21.66 18.38 22.03 18.54 22.32 18.87 22.92 18.5 22.32 17.86 21.24 16.35 19 13.5 15.4 13.5 15.4 15.78 19.18 19.76 28.2 18.18 25.42 16.6 22.64 13.58 18.85 13.58 18.85 13.58 18.85 19.07 30.21 17.79 28.16 16.51 26.11 13.19 21.42 13.19 21.42 13.19 21.42 15.67 28.2 14.62 26.42 13.58 24.64 10.85 20.15 10.85 20.15 10.85 20.15 14.62 28.62 13.69 27.04 12.77 25.46 7.38 15.31 7.34 15.24 8.88 18.75 11.39 23.99 14.97 29.9 21.23 40.26 26.96 51.22 27.74 51.14L59.21 29.73 58.72 29.04C58.73 29.03 44.52 37.71 45.55 36.44Z" fill="#DAC4A7"/></g><g opacity="0.4"><path d="M53.08 0.13C53.08 0.13 43.65 1.42 33.8 3.69 23.95 5.95 20.68 5.17 7.64 8.71 7.64 8.71 7.93 8.87 8.44 9.24L8.44 9.24C8.44 9.24 33.23 3.8 47.4 3.6 61.57 3.39 56.4 17.06 47.4 23.44 40.59 28.26 29.58 32.65 24.6 34.52 27.8 43.15 27.91 47.44 27.91 47.44 27.91 47.44 30.16 32.95 50.54 24.6L50.54 24.6 64.82 18.39C64.83 18.37 62.51 8.86 53.08 0.13Z" fill="#DAC4A7"/></g><g><g><path d="M10.71 9.89C10.71 9.89 11.07 10.11 11.67 10.57 11.96 10.8 12.33 11.08 12.72 11.43 13.12 11.76 13.55 12.17 14.02 12.61 14.47 13.07 14.97 13.56 15.46 14.11 15.71 14.39 15.96 14.67 16.22 14.96 16.47 15.25 16.71 15.57 16.97 15.88 17.49 16.5 17.96 17.19 18.46 17.87 18.95 18.56 19.4 19.29 19.88 20.01 20.3 20.76 20.74 21.5 21.14 22.24 21.52 23 21.89 23.74 22.25 24.46 22.58 25.2 22.88 25.92 23.17 26.59 23.46 27.27 23.67 27.94 23.9 28.54 24.12 29.15 24.32 29.7 24.46 30.2 24.6 30.7 24.73 31.14 24.84 31.5 25.04 32.22 25.16 32.63 25.16 32.63 25.16 32.63 25.01 32.23 24.76 31.52 24.63 31.16 24.48 30.74 24.31 30.25 24.15 29.76 23.91 29.22 23.67 28.62 23.42 28.03 23.19 27.38 22.88 26.71 22.57 26.05 22.24 25.35 21.91 24.62 21.54 23.91 21.16 23.18 20.78 22.43 20.37 21.7 19.93 20.97 19.5 20.23 19.04 19.52 18.6 18.78 18.12 18.1 17.63 17.42 17.17 16.73 16.67 16.11 16.42 15.79 16.18 15.49 15.95 15.18 15.71 14.88 15.47 14.59 15.23 14.31 14.77 13.75 14.29 13.25 13.86 12.77 13.41 12.32 13.01 11.89 12.63 11.53 12.26 11.16 11.92 10.87 11.64 10.62 11.06 10.14 10.71 9.89 10.71 9.89Z" fill="#F4ECE0"/></g><g><path d="M64.83 19.68C64.83 19.68 66.07 18.97 68.03 18.1 68.51 17.87 69.06 17.66 69.62 17.43 70.19 17.2 70.78 16.93 71.41 16.71 72.04 16.49 72.69 16.26 73.36 16.02 73.69 15.9 74.03 15.78 74.36 15.67 74.7 15.57 75.04 15.46 75.38 15.36 76.07 15.16 76.75 14.96 77.43 14.77 78.1 14.56 78.78 14.44 79.43 14.27 80.08 14.11 80.71 13.98 81.31 13.84 81.61 13.78 81.9 13.71 82.18 13.66 82.47 13.62 82.74 13.57 83.01 13.53 84.07 13.36 84.95 13.25 85.57 13.15 86.19 13.07 86.54 13.02 86.54 13.02 86.54 13.02 86.19 13.1 85.58 13.24 84.97 13.37 84.1 13.57 83.06 13.78 82.8 13.83 82.53 13.89 82.25 13.95 81.97 14.01 81.68 14.1 81.39 14.17 80.8 14.33 80.18 14.49 79.53 14.65 78.89 14.82 78.21 14.95 77.55 15.17 76.88 15.37 76.2 15.58 75.52 15.79 75.18 15.89 74.84 15.99 74.5 16.09 74.16 16.19 73.83 16.31 73.5 16.42 72.84 16.64 72.18 16.86 71.56 17.08 70.93 17.29 70.33 17.53 69.75 17.73 69.18 17.94 68.63 18.12 68.14 18.33 67.65 18.53 67.19 18.71 66.78 18.86 66.37 19.01 66.03 19.17 65.74 19.29 65.16 19.54 64.83 19.68 64.83 19.68Z" fill="#F4ECE0"/></g><g><path d="M35.11 63.1 37.33 66.72 39.53 70.35C40.99 72.77 42.44 75.21 43.87 77.65L46.03 81.31 48.17 84.98C49.59 87.43 51.02 89.87 52.41 92.34L52.22 92.26 56.92 90.85 61.63 89.48 56.98 91.05 52.32 92.58C52.25 92.6 52.17 92.57 52.13 92.51L52.13 92.51C50.66 90.09 49.24 87.64 47.8 85.21L45.65 81.55 43.52 77.88C42.1 75.43 40.68 72.98 39.29 70.52L37.2 66.82 35.11 63.1Z" fill="#9C6035"/></g></g></g></svg>