<svg width="217.11" height="34.4" viewBox="0 0 217.11 34.4" xmlns="http://www.w3.org/2000/svg" xmlns:xlink="http://www.w3.org/1999/xlink" xml:space="preserve" overflow="hidden"><defs></defs><g><g><g><path d="M0 22.52 0 30.14C0.03 30.87 0.06 31.72 0.33 32.4L98.36 32.4 98.36 22.52 0 22.52Z" fill="#48484B"/><path d="M0 24.59 0 30.14C0.01 30.29 0.01 30.45 0.02 30.62L98.35 30.62 98.35 24.6 0 24.6Z" fill="#2B2B2C"/><g><path d="M15.95 31.22C15.95 32.98 14.53 34.4 12.78 34.4 11.03 34.4 9.6 32.98 9.6 31.22 9.6 29.47 11.02 28.05 12.78 28.05 14.53 28.05 15.95 29.47 15.95 31.22Z" fill="#363635"/><path d="M15.95 31.22C15.95 32.98 14.53 34.4 12.78 34.4 11.03 34.4 9.6 32.98 9.6 31.22 9.6 29.47 11.02 28.05 12.78 28.05 14.53 28.05 15.95 29.47 15.95 31.22Z" fill="#222222"/><path d="M14.93 31.22C14.93 32.41 13.97 33.37 12.78 33.37 11.59 33.37 10.62 32.41 10.62 31.22 10.62 30.03 11.58 29.06 12.78 29.06 13.97 29.07 14.93 30.03 14.93 31.22Z"/><path d="M14.07 31.15C14.07 31.86 13.49 32.44 12.78 32.44 12.07 32.44 11.49 31.86 11.49 31.15 11.49 30.44 12.07 29.86 12.78 29.86 13.49 29.85 14.07 30.43 14.07 31.15Z" fill="#222222"/><path d="M13.61 30.51C13.61 30.6 13.54 30.67 13.45 30.67 13.36 30.67 13.29 30.6 13.29 30.51 13.29 30.42 13.36 30.35 13.45 30.35 13.54 30.35 13.61 30.42 13.61 30.51Z" fill="#4C4C49"/><path d="M12.94 30.28C12.94 30.37 12.87 30.44 12.78 30.44 12.69 30.44 12.62 30.37 12.62 30.28 12.62 30.19 12.69 30.12 12.78 30.12 12.87 30.12 12.94 30.19 12.94 30.28Z" fill="#4C4C49"/><path d="M12.26 30.54C12.26 30.63 12.19 30.7 12.1 30.7 12.01 30.7 11.94 30.63 11.94 30.54 11.94 30.45 12.01 30.38 12.1 30.38 12.19 30.37 12.26 30.45 12.26 30.54Z" fill="#4C4C49"/><path d="M13.61 31.92C13.61 31.83 13.54 31.76 13.45 31.76 13.36 31.76 13.29 31.83 13.29 31.92 13.29 32.01 13.36 32.08 13.45 32.08 13.54 32.08 13.61 32.01 13.61 31.92Z" fill="#4C4C49"/><path d="M13.93 31.25C13.93 31.16 13.86 31.09 13.77 31.09 13.68 31.09 13.61 31.16 13.61 31.25 13.61 31.34 13.68 31.41 13.77 31.41 13.86 31.41 13.93 31.33 13.93 31.25Z" fill="#4C4C49"/><path d="M11.95 31.25C11.95 31.16 11.88 31.09 11.79 31.09 11.7 31.09 11.63 31.16 11.63 31.25 11.63 31.34 11.7 31.41 11.79 31.41 11.87 31.41 11.95 31.33 11.95 31.25Z" fill="#4C4C49"/><path d="M12.94 32.15C12.94 32.06 12.87 31.99 12.78 31.99 12.69 31.99 12.62 32.06 12.62 32.15 12.62 32.24 12.69 32.31 12.78 32.31 12.87 32.31 12.94 32.23 12.94 32.15Z" fill="#4C4C49"/><path d="M12.26 31.89C12.26 31.8 12.19 31.73 12.1 31.73 12.01 31.73 11.94 31.8 11.94 31.89 11.94 31.98 12.01 32.05 12.1 32.05 12.19 32.05 12.26 31.98 12.26 31.89Z" fill="#4C4C49"/></g><g><path d="M27.55 31.22C27.55 32.98 26.13 34.4 24.37 34.4 22.62 34.4 21.19 32.98 21.19 31.22 21.19 29.47 22.61 28.05 24.37 28.05 26.13 28.05 27.55 29.47 27.55 31.22Z" fill="#363635"/><path d="M27.55 31.22C27.55 32.98 26.13 34.4 24.37 34.4 22.62 34.4 21.19 32.98 21.19 31.22 21.19 29.47 22.61 28.05 24.37 28.05 26.13 28.05 27.55 29.47 27.55 31.22Z" fill="#222222"/><path d="M26.53 31.22C26.53 32.41 25.57 33.37 24.37 33.37 23.17 33.37 22.21 32.41 22.21 31.22 22.21 30.03 23.17 29.06 24.37 29.06 25.57 29.06 26.53 30.03 26.53 31.22Z"/><path d="M25.67 31.15C25.67 31.86 25.09 32.44 24.38 32.44 23.67 32.44 23.09 31.86 23.09 31.15 23.09 30.44 23.67 29.86 24.38 29.86 25.09 29.85 25.67 30.43 25.67 31.15Z" fill="#222222"/><path d="M25.21 30.51C25.21 30.6 25.14 30.67 25.05 30.67 24.96 30.67 24.89 30.6 24.89 30.51 24.89 30.42 24.96 30.35 25.05 30.35 25.14 30.35 25.21 30.42 25.21 30.51Z" fill="#4C4C49"/><path d="M24.54 30.28C24.54 30.37 24.47 30.44 24.38 30.44 24.29 30.44 24.22 30.37 24.22 30.28 24.22 30.19 24.29 30.12 24.38 30.12 24.47 30.12 24.54 30.19 24.54 30.28Z" fill="#4C4C49"/><path d="M23.86 30.54C23.86 30.63 23.79 30.7 23.7 30.7 23.61 30.7 23.54 30.63 23.54 30.54 23.54 30.45 23.61 30.38 23.7 30.38 23.79 30.37 23.86 30.45 23.86 30.54Z" fill="#4C4C49"/><path d="M25.21 31.92C25.21 31.83 25.14 31.76 25.05 31.76 24.96 31.76 24.89 31.83 24.89 31.92 24.89 32.01 24.96 32.08 25.05 32.08 25.14 32.08 25.21 32.01 25.21 31.92Z" fill="#4C4C49"/><path d="M25.52 31.25C25.52 31.16 25.45 31.09 25.36 31.09 25.27 31.09 25.2 31.16 25.2 31.25 25.2 31.34 25.27 31.41 25.36 31.41 25.45 31.41 25.52 31.33 25.52 31.25Z" fill="#4C4C49"/><path d="M23.54 31.25C23.54 31.16 23.47 31.09 23.38 31.09 23.29 31.09 23.22 31.16 23.22 31.25 23.22 31.34 23.29 31.41 23.38 31.41 23.47 31.41 23.54 31.33 23.54 31.25Z" fill="#4C4C49"/><path d="M24.54 32.15C24.54 32.06 24.47 31.99 24.38 31.99 24.29 31.99 24.22 32.06 24.22 32.15 24.22 32.24 24.29 32.31 24.38 32.31 24.47 32.31 24.54 32.23 24.54 32.15Z" fill="#4C4C49"/><path d="M23.86 31.89C23.86 31.8 23.79 31.73 23.7 31.73 23.61 31.73 23.54 31.8 23.54 31.89 23.54 31.98 23.61 32.05 23.7 32.05 23.79 32.05 23.86 31.98 23.86 31.89Z" fill="#4C4C49"/></g><g><path d="M82.55 31.22C82.55 32.98 81.13 34.4 79.37 34.4 77.62 34.4 76.19 32.98 76.19 31.22 76.19 29.47 77.61 28.05 79.37 28.05 81.13 28.05 82.55 29.47 82.55 31.22Z" fill="#363635"/><path d="M82.55 31.22C82.55 32.98 81.13 34.4 79.37 34.4 77.62 34.4 76.19 32.98 76.19 31.22 76.19 29.47 77.61 28.05 79.37 28.05 81.13 28.05 82.55 29.47 82.55 31.22Z" fill="#222222"/><path d="M81.53 31.22C81.53 32.41 80.57 33.37 79.37 33.37 78.18 33.37 77.22 32.41 77.22 31.22 77.22 30.03 78.18 29.06 79.37 29.06 80.56 29.07 81.53 30.03 81.53 31.22Z"/><path d="M80.67 31.15C80.67 31.86 80.09 32.44 79.38 32.44 78.67 32.44 78.09 31.86 78.09 31.15 78.09 30.44 78.67 29.86 79.38 29.86 80.09 29.85 80.67 30.43 80.67 31.15Z" fill="#222222"/><path d="M80.21 30.51C80.21 30.6 80.14 30.67 80.05 30.67 79.96 30.67 79.89 30.6 79.89 30.51 79.89 30.42 79.96 30.35 80.05 30.35 80.14 30.35 80.21 30.42 80.21 30.51Z" fill="#4C4C49"/><path d="M79.54 30.28C79.54 30.37 79.47 30.44 79.38 30.44 79.29 30.44 79.22 30.37 79.22 30.28 79.22 30.19 79.29 30.12 79.38 30.12 79.47 30.12 79.54 30.19 79.54 30.28Z" fill="#4C4C49"/><path d="M78.86 30.54C78.86 30.63 78.79 30.7 78.7 30.7 78.61 30.7 78.54 30.63 78.54 30.54 78.54 30.45 78.61 30.38 78.7 30.38 78.79 30.37 78.86 30.45 78.86 30.54Z" fill="#4C4C49"/><path d="M80.21 31.92C80.21 31.83 80.14 31.76 80.05 31.76 79.96 31.76 79.89 31.83 79.89 31.92 79.89 32.01 79.96 32.08 80.05 32.08 80.14 32.08 80.21 32.01 80.21 31.92Z" fill="#4C4C49"/><path d="M80.53 31.25C80.53 31.16 80.46 31.09 80.37 31.09 80.28 31.09 80.21 31.16 80.21 31.25 80.21 31.34 80.28 31.41 80.37 31.41 80.45 31.41 80.53 31.33 80.53 31.25Z" fill="#4C4C49"/><path d="M78.54 31.25C78.54 31.16 78.47 31.09 78.38 31.09 78.29 31.09 78.22 31.16 78.22 31.25 78.22 31.34 78.29 31.41 78.38 31.41 78.47 31.41 78.54 31.33 78.54 31.25Z" fill="#4C4C49"/><path d="M79.54 32.15C79.54 32.06 79.47 31.99 79.38 31.99 79.29 31.99 79.22 32.06 79.22 32.15 79.22 32.24 79.29 32.31 79.38 32.31 79.47 32.31 79.54 32.23 79.54 32.15Z" fill="#4C4C49"/><path d="M78.86 31.89C78.86 31.8 78.79 31.73 78.7 31.73 78.61 31.73 78.54 31.8 78.54 31.89 78.54 31.98 78.61 32.05 78.7 32.05 78.79 32.05 78.86 31.98 78.86 31.89Z" fill="#4C4C49"/></g><g><path d="M94.14 31.22C94.14 32.98 92.72 34.4 90.97 34.4 89.21 34.4 87.79 32.98 87.79 31.22 87.79 29.47 89.21 28.05 90.97 28.05 92.72 28.05 94.14 29.47 94.14 31.22Z" fill="#363635"/><path d="M94.14 31.22C94.14 32.98 92.72 34.4 90.97 34.4 89.21 34.4 87.79 32.98 87.79 31.22 87.79 29.47 89.21 28.05 90.97 28.05 92.72 28.05 94.14 29.47 94.14 31.22Z" fill="#222222"/><path d="M93.12 31.22C93.12 32.41 92.16 33.37 90.97 33.37 89.78 33.37 88.81 32.41 88.81 31.22 88.81 30.03 89.78 29.06 90.97 29.06 92.16 29.07 93.12 30.03 93.12 31.22Z"/><path d="M92.26 31.15C92.26 31.86 91.68 32.44 90.97 32.44 90.25 32.44 89.68 31.86 89.68 31.15 89.68 30.44 90.26 29.86 90.97 29.86 91.68 29.85 92.26 30.43 92.26 31.15Z" fill="#222222"/><path d="M91.8 30.51C91.8 30.6 91.73 30.67 91.64 30.67 91.55 30.67 91.48 30.6 91.48 30.51 91.48 30.42 91.55 30.35 91.64 30.35 91.73 30.35 91.8 30.42 91.8 30.51Z" fill="#4C4C49"/><path d="M91.14 30.28C91.14 30.37 91.07 30.44 90.98 30.44 90.89 30.44 90.82 30.37 90.82 30.28 90.82 30.19 90.89 30.12 90.98 30.12 91.06 30.12 91.14 30.19 91.14 30.28Z" fill="#4C4C49"/><path d="M90.45 30.54C90.45 30.63 90.38 30.7 90.29 30.7 90.2 30.7 90.13 30.63 90.13 30.54 90.13 30.45 90.2 30.38 90.29 30.38 90.38 30.37 90.45 30.45 90.45 30.54Z" fill="#4C4C49"/><path d="M91.8 31.92C91.8 31.83 91.73 31.76 91.64 31.76 91.55 31.76 91.48 31.83 91.48 31.92 91.48 32.01 91.55 32.08 91.64 32.08 91.73 32.08 91.8 32.01 91.8 31.92Z" fill="#4C4C49"/><path d="M92.12 31.25C92.12 31.16 92.05 31.09 91.96 31.09 91.87 31.09 91.8 31.16 91.8 31.25 91.8 31.34 91.87 31.41 91.96 31.41 92.05 31.41 92.12 31.33 92.12 31.25Z" fill="#4C4C49"/><path d="M90.14 31.25C90.14 31.16 90.07 31.09 89.98 31.09 89.89 31.09 89.82 31.16 89.82 31.25 89.82 31.34 89.89 31.41 89.98 31.41 90.07 31.41 90.14 31.33 90.14 31.25Z" fill="#4C4C49"/><path d="M91.14 32.15C91.14 32.06 91.07 31.99 90.98 31.99 90.89 31.99 90.82 32.06 90.82 32.15 90.82 32.24 90.89 32.31 90.98 32.31 91.06 32.31 91.14 32.23 91.14 32.15Z" fill="#4C4C49"/><path d="M90.45 31.89C90.45 31.8 90.38 31.73 90.29 31.73 90.2 31.73 90.13 31.8 90.13 31.89 90.13 31.98 90.2 32.05 90.29 32.05 90.38 32.05 90.45 31.98 90.45 31.89Z" fill="#4C4C49"/></g><g><path d="M92.43 0 6.75 0.37C4.71 0.53 2.63 0.82 1.28 2.4 0.59 3.21 0.18 4.12 0 5.11L0 30.14C0.04 31.17 0.08 32.44 0.78 33.1 1.2 33.5 1.71 33.68 2.26 33.77L5.01 33.77 5.86 29.03 95.75 29.03 96.38 33.77 98.14 33.77C98.14 33.77 100.31 33.57 100.51 31.8L100.51 4.54C100.53 4.54 100.53 0 92.43 0Z" fill="#FFFDEE"/></g><g><path d="M92.43 0 6.75 0.37C4.71 0.53 2.63 0.82 1.28 2.4 0.59 3.21 0.18 4.12 0 5.11L0 7.61 100.53 7.61 100.53 4.54C100.53 4.54 100.53 0 92.43 0Z" fill="#EEEDE0"/><path d="M0 17.27 0 30.13C0.04 31.16 0.08 32.43 0.78 33.09 1.2 33.49 1.71 33.67 2.26 33.76L5.01 33.76 5.86 29.02 95.75 29.02 96.38 33.76 98.14 33.76C98.14 33.76 100.31 33.56 100.51 31.79L100.51 17.27 0 17.27Z" fill="#EEEDE0"/></g><g><path d="M0 23.59 0 30.13C0.04 31.16 0.08 32.43 0.78 33.09 1.2 33.49 1.71 33.67 2.26 33.76L5.01 33.76 5.86 29.02 95.75 29.02 96.38 33.76 98.14 33.76C98.14 33.76 100.31 33.56 100.51 31.79L100.51 23.59 0 23.59Z" fill="#EF3A25"/></g><g><path d="M0 28.33 0 30.13C0.04 31.16 0.08 32.43 0.78 33.09 1.2 33.49 1.71 33.67 2.26 33.76L5.01 33.76 5.86 29.02 95.75 29.02 96.38 33.76 98.14 33.76C98.14 33.76 100.31 33.56 100.51 31.79L100.51 28.33 0 28.33Z" fill="#1D355C"/></g><g><g><g><path d="M8.79 17.83C8.79 18.18 8.56 18.47 8.27 18.47L4.06 18.47C3.77 18.47 3.54 18.18 3.54 17.83L3.54 12.66C3.54 12.31 3.77 12.02 4.06 12.02L8.27 12.02C8.56 12.02 8.79 12.31 8.79 12.66L8.79 17.83Z" fill="#343432"/><path d="M8.54 17.6C8.54 17.92 8.33 18.18 8.06 18.18L4.22 18.18C3.96 18.18 3.75 17.92 3.75 17.6L3.75 12.88C3.75 12.56 3.96 12.29 4.22 12.29L8.06 12.29C8.32 12.29 8.54 12.55 8.54 12.88L8.54 17.6Z" fill="#444342"/><path d="M8.79 15.1 8.79 12.65C8.79 12.3 8.56 12.01 8.27 12.01L4.06 12.01C3.77 12.01 3.54 12.3 3.54 12.65L3.54 15.51C5.15 14.68 6.94 14.67 8.79 15.1Z" fill="#343432" opacity="0.6"/></g><g><path d="M14.6 17.83C14.6 18.18 14.37 18.47 14.08 18.47L9.88 18.47C9.59 18.47 9.36 18.18 9.36 17.83L9.36 12.66C9.36 12.31 9.59 12.02 9.88 12.02L14.08 12.02C14.37 12.02 14.6 12.31 14.6 12.66L14.6 17.83Z" fill="#343432"/><path d="M14.35 17.6C14.35 17.92 14.14 18.18 13.87 18.18L10.03 18.18C9.77 18.18 9.56 17.92 9.56 17.6L9.56 12.88C9.56 12.56 9.77 12.29 10.03 12.29L13.87 12.29C14.13 12.29 14.35 12.55 14.35 12.88L14.35 17.6Z" fill="#444342"/><path d="M14.6 15.1 14.6 12.65C14.6 12.3 14.37 12.01 14.08 12.01L9.88 12.01C9.59 12.01 9.36 12.3 9.36 12.65L9.36 15.51C10.97 14.68 12.76 14.67 14.6 15.1Z" fill="#343432" opacity="0.6"/></g><g><path d="M20.41 17.83C20.41 18.18 20.18 18.47 19.89 18.47L15.68 18.47C15.39 18.47 15.16 18.18 15.16 17.83L15.16 12.66C15.16 12.31 15.39 12.02 15.68 12.02L19.89 12.02C20.18 12.02 20.41 12.31 20.41 12.66L20.41 17.83Z" fill="#343432"/><path d="M20.17 17.6C20.17 17.92 19.96 18.18 19.69 18.18L15.85 18.18C15.59 18.18 15.37 17.92 15.37 17.6L15.37 12.88C15.37 12.56 15.58 12.29 15.85 12.29L19.69 12.29C19.95 12.29 20.17 12.55 20.17 12.88L20.17 17.6Z" fill="#444342"/><path d="M20.41 15.1 20.41 12.65C20.41 12.3 20.18 12.01 19.89 12.01L15.68 12.01C15.39 12.01 15.16 12.3 15.16 12.65L15.16 15.51C16.78 14.68 18.57 14.67 20.41 15.1Z" fill="#343432" opacity="0.6"/></g><g><path d="M26.23 17.83C26.23 18.18 26 18.47 25.71 18.47L21.5 18.47C21.21 18.47 20.98 18.18 20.98 17.83L20.98 12.66C20.98 12.31 21.21 12.02 21.5 12.02L25.71 12.02C26 12.02 26.23 12.31 26.23 12.66L26.23 17.83Z" fill="#343432"/><path d="M25.98 17.6C25.98 17.92 25.77 18.18 25.5 18.18L21.66 18.18C21.4 18.18 21.18 17.92 21.18 17.6L21.18 12.88C21.18 12.56 21.39 12.29 21.66 12.29L25.5 12.29C25.76 12.29 25.98 12.55 25.98 12.88L25.98 17.6Z" fill="#444342"/><path d="M26.23 15.1 26.23 12.65C26.23 12.3 26 12.01 25.71 12.01L21.5 12.01C21.21 12.01 20.98 12.3 20.98 12.65L20.98 15.51C22.6 14.68 24.39 14.67 26.23 15.1Z" fill="#343432" opacity="0.6"/></g><g><path d="M32.04 17.83C32.04 18.18 31.81 18.47 31.52 18.47L27.31 18.47C27.02 18.47 26.79 18.18 26.79 17.83L26.79 12.66C26.79 12.31 27.02 12.02 27.31 12.02L31.52 12.02C31.81 12.02 32.04 12.31 32.04 12.66L32.04 17.83Z" fill="#343432"/><path d="M31.8 17.6C31.8 17.92 31.59 18.18 31.32 18.18L27.48 18.18C27.22 18.18 27 17.92 27 17.6L27 12.88C27 12.56 27.21 12.29 27.48 12.29L31.32 12.29C31.58 12.29 31.8 12.55 31.8 12.88L31.8 17.6Z" fill="#444342"/><path d="M32.04 15.1 32.04 12.65C32.04 12.3 31.81 12.01 31.52 12.01L27.31 12.01C27.02 12.01 26.79 12.3 26.79 12.65L26.79 15.51C28.41 14.68 30.2 14.67 32.04 15.1Z" fill="#343432" opacity="0.6"/></g><g><path d="M37.86 17.83C37.86 18.18 37.63 18.47 37.34 18.47L33.14 18.47C32.85 18.47 32.62 18.18 32.62 17.83L32.62 12.66C32.62 12.31 32.85 12.02 33.14 12.02L37.34 12.02C37.63 12.02 37.86 12.31 37.86 12.66L37.86 17.83Z" fill="#343432"/><path d="M37.61 17.6C37.61 17.92 37.4 18.18 37.13 18.18L33.29 18.18C33.03 18.18 32.82 17.92 32.82 17.6L32.82 12.88C32.82 12.56 33.03 12.29 33.29 12.29L37.13 12.29C37.4 12.29 37.61 12.55 37.61 12.88L37.61 17.6Z" fill="#444342"/><path d="M37.86 15.1 37.86 12.65C37.86 12.3 37.63 12.01 37.34 12.01L33.14 12.01C32.85 12.01 32.62 12.3 32.62 12.65L32.62 15.51C34.22 14.68 36.01 14.67 37.86 15.1Z" fill="#343432" opacity="0.6"/></g></g><g><g><path d="M49.52 17.83C49.52 18.18 49.29 18.47 49 18.47L44.79 18.47C44.5 18.47 44.27 18.18 44.27 17.83L44.27 12.66C44.27 12.31 44.51 12.02 44.79 12.02L49 12.02C49.29 12.02 49.52 12.31 49.52 12.66L49.52 17.83Z" fill="#343432"/><path d="M49.28 17.6C49.28 17.92 49.07 18.18 48.8 18.18L44.96 18.18C44.7 18.18 44.48 17.92 44.48 17.6L44.48 12.88C44.48 12.56 44.69 12.29 44.96 12.29L48.8 12.29C49.06 12.29 49.28 12.55 49.28 12.88L49.28 17.6Z" fill="#444342"/><path d="M49.52 15.1 49.52 12.65C49.52 12.3 49.29 12.01 49 12.01L44.79 12.01C44.5 12.01 44.27 12.3 44.27 12.65L44.27 15.51C45.89 14.68 47.68 14.67 49.52 15.1Z" fill="#343432" opacity="0.6"/></g><g><path d="M55.33 17.83C55.33 18.18 55.1 18.47 54.81 18.47L50.6 18.47C50.31 18.47 50.08 18.18 50.08 17.83L50.08 12.66C50.08 12.31 50.32 12.02 50.6 12.02L54.81 12.02C55.1 12.02 55.33 12.31 55.33 12.66L55.33 17.83Z" fill="#343432"/><path d="M55.09 17.6C55.09 17.92 54.88 18.18 54.61 18.18L50.77 18.18C50.51 18.18 50.29 17.92 50.29 17.6L50.29 12.88C50.29 12.56 50.5 12.29 50.77 12.29L54.61 12.29C54.87 12.29 55.09 12.55 55.09 12.88L55.09 17.6Z" fill="#444342"/><path d="M55.33 15.1 55.33 12.65C55.33 12.3 55.1 12.01 54.81 12.01L50.6 12.01C50.31 12.01 50.08 12.3 50.08 12.65L50.08 15.51C51.7 14.68 53.49 14.67 55.33 15.1Z" fill="#343432" opacity="0.6"/></g><g><path d="M66.96 17.83C66.96 18.18 66.73 18.47 66.44 18.47L62.24 18.47C61.95 18.47 61.72 18.18 61.72 17.83L61.72 12.66C61.72 12.31 61.95 12.02 62.24 12.02L66.44 12.02C66.73 12.02 66.96 12.31 66.96 12.66L66.96 17.83Z" fill="#343432"/><path d="M66.72 17.6C66.72 17.92 66.51 18.18 66.24 18.18L62.4 18.18C62.14 18.18 61.92 17.92 61.92 17.6L61.92 12.88C61.92 12.56 62.13 12.29 62.4 12.29L66.24 12.29C66.5 12.29 66.72 12.55 66.72 12.88L66.72 17.6Z" fill="#444342"/><path d="M66.96 15.1 66.96 12.65C66.96 12.3 66.73 12.01 66.44 12.01L62.24 12.01C61.95 12.01 61.72 12.3 61.72 12.65L61.72 15.51C63.33 14.68 65.12 14.67 66.96 15.1Z" fill="#343432" opacity="0.6"/></g><g><path d="M72.78 17.83C72.78 18.18 72.55 18.47 72.26 18.47L68.05 18.47C67.76 18.47 67.53 18.18 67.53 17.83L67.53 12.66C67.53 12.31 67.76 12.02 68.05 12.02L72.26 12.02C72.55 12.02 72.78 12.31 72.78 12.66L72.78 17.83Z" fill="#343432"/><path d="M72.53 17.6C72.53 17.92 72.32 18.18 72.05 18.18L68.21 18.18C67.95 18.18 67.74 17.92 67.74 17.6L67.74 12.88C67.74 12.56 67.95 12.29 68.21 12.29L72.05 12.29C72.31 12.29 72.53 12.55 72.53 12.88L72.53 17.6Z" fill="#444342"/><path d="M72.78 15.1 72.78 12.65C72.78 12.3 72.55 12.01 72.26 12.01L68.05 12.01C67.76 12.01 67.53 12.3 67.53 12.65L67.53 15.51C69.15 14.68 70.93 14.67 72.78 15.1Z" fill="#343432" opacity="0.6"/></g><g><path d="M78.59 17.83C78.59 18.18 78.36 18.47 78.07 18.47L73.86 18.47C73.57 18.47 73.34 18.18 73.34 17.83L73.34 12.66C73.34 12.31 73.57 12.02 73.86 12.02L78.07 12.02C78.36 12.02 78.59 12.31 78.59 12.66L78.59 17.83Z" fill="#343432"/><path d="M78.34 17.6C78.34 17.92 78.13 18.18 77.86 18.18L74.02 18.18C73.76 18.18 73.54 17.92 73.54 17.6L73.54 12.88C73.54 12.56 73.75 12.29 74.02 12.29L77.86 12.29C78.12 12.29 78.34 12.55 78.34 12.88L78.34 17.6Z" fill="#444342"/><path d="M78.59 15.1 78.59 12.65C78.59 12.3 78.36 12.01 78.07 12.01L73.86 12.01C73.57 12.01 73.34 12.3 73.34 12.65L73.34 15.51C74.96 14.68 76.75 14.67 78.59 15.1Z" fill="#343432" opacity="0.6"/></g><g><path d="M84.41 17.83C84.41 18.18 84.18 18.47 83.89 18.47L79.69 18.47C79.4 18.47 79.17 18.18 79.17 17.83L79.17 12.66C79.17 12.31 79.41 12.02 79.69 12.02L83.89 12.02C84.18 12.02 84.41 12.31 84.41 12.66L84.41 17.83Z" fill="#343432"/><path d="M84.16 17.6C84.16 17.92 83.95 18.18 83.68 18.18L79.84 18.18C79.58 18.18 79.36 17.92 79.36 17.6L79.36 12.88C79.36 12.56 79.57 12.29 79.84 12.29L83.68 12.29C83.94 12.29 84.16 12.55 84.16 12.88L84.16 17.6Z" fill="#444342"/><path d="M84.41 15.1 84.41 12.65C84.41 12.3 84.18 12.01 83.89 12.01L79.69 12.01C79.4 12.01 79.17 12.3 79.17 12.65L79.17 15.51C80.77 14.68 82.56 14.67 84.41 15.1Z" fill="#343432" opacity="0.6"/></g><g><path d="M90.29 17.83C90.29 18.18 90.06 18.47 89.77 18.47L85.56 18.47C85.27 18.47 85.04 18.18 85.04 17.83L85.04 12.66C85.04 12.31 85.27 12.02 85.56 12.02L89.77 12.02C90.06 12.02 90.29 12.31 90.29 12.66L90.29 17.83Z" fill="#343432"/><path d="M90.05 17.6C90.05 17.92 89.84 18.18 89.57 18.18L85.73 18.18C85.47 18.18 85.26 17.92 85.26 17.6L85.26 12.88C85.26 12.56 85.47 12.29 85.73 12.29L89.57 12.29C89.83 12.29 90.05 12.55 90.05 12.88L90.05 17.6Z" fill="#444342"/><path d="M90.29 15.1 90.29 12.65C90.29 12.3 90.06 12.01 89.77 12.01L85.56 12.01C85.27 12.01 85.04 12.3 85.04 12.65L85.04 15.51C86.66 14.68 88.45 14.67 90.29 15.1Z" fill="#343432" opacity="0.6"/></g><g><path d="M96.11 17.83C96.11 18.18 95.88 18.47 95.59 18.47L91.39 18.47C91.1 18.47 90.87 18.18 90.87 17.83L90.87 12.66C90.87 12.31 91.1 12.02 91.39 12.02L95.59 12.02C95.88 12.02 96.11 12.31 96.11 12.66L96.11 17.83Z" fill="#343432"/><path d="M95.86 17.6C95.86 17.92 95.65 18.18 95.38 18.18L91.54 18.18C91.28 18.18 91.07 17.92 91.07 17.6L91.07 12.88C91.07 12.56 91.28 12.29 91.54 12.29L95.38 12.29C95.65 12.29 95.86 12.55 95.86 12.88L95.86 17.6Z" fill="#444342"/><path d="M96.11 15.1 96.11 12.65C96.11 12.3 95.88 12.01 95.59 12.01L91.39 12.01C91.1 12.01 90.87 12.3 90.87 12.65L90.87 15.51C92.48 14.68 94.26 14.67 96.11 15.1Z" fill="#343432" opacity="0.6"/></g></g></g><g><path d="M2.54 24.37 5.58 24.37C5.58 24.37 5.52 24.7 5.2 24.96 4.87 25.23 3.4 25.09 3.4 25.09 3.4 25.09 2.73 25.09 2.53 24.88 2.31 24.65 2.29 24.37 2.54 24.37Z" fill="#E86408"/><path d="M2.59 24.5 4.61 24.5C4.61 24.5 4.57 24.72 4.35 24.89 4.13 25.07 3.15 24.98 3.15 24.98 3.15 24.98 2.7 24.98 2.57 24.84 2.44 24.69 2.43 24.5 2.59 24.5Z" fill="#E86408" opacity="0.5"/></g><path d="M5.24 1.68 96.82 1.24C96.82 1.24 34.21 3.31 5.24 1.68Z" fill="#FFFFFF"/><g><path d="M95.76 24.37 98.8 24.37C98.8 24.37 98.74 24.7 98.41 24.96 98.08 25.23 96.61 25.09 96.61 25.09 96.61 25.09 95.94 25.09 95.74 24.88 95.54 24.65 95.51 24.37 95.76 24.37Z" fill="#E86408"/><path d="M95.81 24.5 97.83 24.5C97.83 24.5 97.79 24.72 97.58 24.89 97.36 25.07 96.38 24.98 96.38 24.98 96.38 24.98 95.94 24.98 95.8 24.84 95.67 24.69 95.65 24.5 95.81 24.5Z" fill="#E86408" opacity="0.5"/></g></g></g><g><rect x="42.41" y="11.36" width="15.7" height="20.96" fill="#2B528B"/><rect x="42.81" y="11.57" width="7.41" height="20.76" fill="#E0DECE"/><rect x="50.38" y="11.57" width="7.24" height="20.76" fill="#E0DECE"/><rect x="42.81" y="22.89" width="7.41" height="9.43" fill="#CFCDC0"/><rect x="50.38" y="22.89" width="7.24" height="9.43" fill="#CFCDC0"/><rect x="42.81" y="28.08" width="7.41" height="4.24" fill="#CFCDC0"/><rect x="50.38" y="28.08" width="7.24" height="4.24" fill="#CFCDC0"/><g><g><path d="M49.27 18.42C49.27 18.77 49.04 19.06 48.75 19.06L44.54 19.06C44.25 19.06 44.02 18.78 44.02 18.42L44.02 13.25C44.02 12.9 44.26 12.61 44.54 12.61L48.75 12.61C49.04 12.61 49.27 12.9 49.27 13.25L49.27 18.42Z" fill="#343432"/><path d="M49.03 18.19C49.03 18.51 48.82 18.77 48.55 18.77L44.71 18.77C44.45 18.77 44.24 18.51 44.24 18.19L44.24 13.47C44.24 13.15 44.45 12.89 44.71 12.89L48.55 12.89C48.81 12.89 49.03 13.15 49.03 13.47L49.03 18.19Z" fill="#444342"/><path d="M49.27 15.7 49.27 13.25C49.27 12.9 49.04 12.61 48.75 12.61L44.54 12.61C44.25 12.61 44.02 12.9 44.02 13.25L44.02 16.11C45.64 15.27 47.43 15.26 49.27 15.7Z" fill="#343432" opacity="0.6"/></g><g><path d="M56.48 18.42C56.48 18.77 56.25 19.06 55.96 19.06L51.76 19.06C51.47 19.06 51.24 18.78 51.24 18.42L51.24 13.25C51.24 12.9 51.47 12.61 51.76 12.61L55.96 12.61C56.25 12.61 56.48 12.9 56.48 13.25L56.48 18.42Z" fill="#343432"/><path d="M56.24 18.19C56.24 18.51 56.03 18.77 55.77 18.77L51.93 18.77C51.67 18.77 51.46 18.51 51.46 18.19L51.46 13.47C51.46 13.15 51.67 12.89 51.93 12.89L55.77 12.89C56.03 12.89 56.24 13.15 56.24 13.47L56.24 18.19Z" fill="#444342"/><path d="M56.48 15.7 56.48 13.25C56.48 12.9 56.25 12.61 55.96 12.61L51.76 12.61C51.47 12.61 51.24 12.9 51.24 13.25L51.24 16.11C52.85 15.27 54.64 15.26 56.48 15.7Z" fill="#343432" opacity="0.6"/></g></g></g></g><g><g><path d="M101.58 32.29C100.66 32.04 100.46 31.28 100.45 30.42L100.45 22.44 189.35 22.44 189.35 32.31 101.71 32.31C101.67 32.31 101.63 32.31 101.58 32.29Z" fill="#48484B"/><path d="M100.45 30.42 100.45 24.52 189.35 24.52 189.35 30.54 100.45 30.54C100.45 30.5 100.45 30.47 100.45 30.42Z" fill="#2B2B2C"/><g><path d="M176.36 31.15C176.36 32.9 177.79 34.33 179.54 34.33 181.29 34.33 182.72 32.91 182.72 31.15 182.72 29.39 181.3 27.97 179.54 27.97 177.78 27.98 176.36 29.4 176.36 31.15Z" fill="#363635"/><path d="M176.36 31.15C176.36 32.9 177.79 34.33 179.54 34.33 181.29 34.33 182.72 32.91 182.72 31.15 182.72 29.39 181.3 27.97 179.54 27.97 177.78 27.98 176.36 29.4 176.36 31.15Z" fill="#222222"/><path d="M177.38 31.15C177.38 32.34 178.34 33.3 179.53 33.3 180.72 33.3 181.69 32.34 181.69 31.15 181.69 29.96 180.73 28.99 179.53 28.99 178.34 29 177.38 29.96 177.38 31.15Z"/><path d="M178.24 31.08C178.24 31.79 178.82 32.37 179.53 32.37 180.24 32.37 180.82 31.79 180.82 31.08 180.82 30.37 180.24 29.79 179.53 29.79 178.82 29.78 178.24 30.36 178.24 31.08Z" fill="#222222"/><path d="M178.7 30.44C178.7 30.53 178.77 30.6 178.86 30.6 178.95 30.6 179.02 30.53 179.02 30.44 179.02 30.35 178.95 30.28 178.86 30.28 178.77 30.28 178.7 30.35 178.7 30.44Z" fill="#4C4C49"/><path d="M179.37 30.21C179.37 30.3 179.44 30.37 179.53 30.37 179.62 30.37 179.69 30.3 179.69 30.21 179.69 30.12 179.62 30.05 179.53 30.05 179.44 30.05 179.37 30.12 179.37 30.21Z" fill="#4C4C49"/><path d="M180.05 30.47C180.05 30.56 180.12 30.63 180.21 30.63 180.3 30.63 180.37 30.56 180.37 30.47 180.37 30.38 180.3 30.31 180.21 30.31 180.12 30.3 180.05 30.38 180.05 30.47Z" fill="#4C4C49"/><path d="M178.7 31.85C178.7 31.76 178.77 31.69 178.86 31.69 178.95 31.69 179.02 31.76 179.02 31.85 179.02 31.94 178.95 32.01 178.86 32.01 178.77 32.01 178.7 31.94 178.7 31.85Z" fill="#4C4C49"/><path d="M178.38 31.17C178.38 31.08 178.45 31.01 178.54 31.01 178.63 31.01 178.7 31.08 178.7 31.17 178.7 31.26 178.63 31.33 178.54 31.33 178.45 31.33 178.38 31.27 178.38 31.17Z" fill="#4C4C49"/><path d="M180.37 31.17C180.37 31.08 180.44 31.01 180.53 31.01 180.62 31.01 180.69 31.08 180.69 31.17 180.69 31.26 180.62 31.33 180.53 31.33 180.44 31.33 180.37 31.27 180.37 31.17Z" fill="#4C4C49"/><path d="M179.37 32.08C179.37 31.99 179.44 31.92 179.53 31.92 179.62 31.92 179.69 31.99 179.69 32.08 179.69 32.17 179.62 32.24 179.53 32.24 179.44 32.24 179.37 32.16 179.37 32.08Z" fill="#4C4C49"/><path d="M180.05 31.82C180.05 31.73 180.12 31.66 180.21 31.66 180.3 31.66 180.37 31.73 180.37 31.82 180.37 31.91 180.3 31.98 180.21 31.98 180.12 31.98 180.05 31.91 180.05 31.82Z" fill="#4C4C49"/></g><g><path d="M164.76 31.15C164.76 32.9 166.18 34.33 167.94 34.33 169.69 34.33 171.12 32.91 171.12 31.15 171.12 29.39 169.7 27.97 167.94 27.97 166.19 27.98 164.76 29.4 164.76 31.15Z" fill="#363635"/><path d="M164.76 31.15C164.76 32.9 166.18 34.33 167.94 34.33 169.69 34.33 171.12 32.91 171.12 31.15 171.12 29.39 169.7 27.97 167.94 27.97 166.19 27.98 164.76 29.4 164.76 31.15Z" fill="#222222"/><path d="M165.79 31.15C165.79 32.34 166.76 33.3 167.95 33.3 169.14 33.3 170.1 32.34 170.1 31.15 170.1 29.96 169.14 28.99 167.95 28.99 166.75 29 165.79 29.96 165.79 31.15Z"/><path d="M166.65 31.08C166.65 31.79 167.23 32.37 167.94 32.37 168.65 32.37 169.23 31.79 169.23 31.08 169.23 30.37 168.65 29.79 167.94 29.79 167.23 29.78 166.65 30.36 166.65 31.08Z" fill="#222222"/><path d="M167.1 30.44C167.1 30.53 167.17 30.6 167.26 30.6 167.35 30.6 167.42 30.53 167.42 30.44 167.42 30.35 167.35 30.28 167.26 30.28 167.18 30.28 167.1 30.35 167.1 30.44Z" fill="#4C4C49"/><path d="M167.77 30.21C167.77 30.3 167.84 30.37 167.93 30.37 168.02 30.37 168.09 30.3 168.09 30.21 168.09 30.12 168.02 30.05 167.93 30.05 167.85 30.05 167.77 30.12 167.77 30.21Z" fill="#4C4C49"/><path d="M168.46 30.47C168.46 30.56 168.53 30.63 168.62 30.63 168.71 30.63 168.78 30.56 168.78 30.47 168.78 30.38 168.71 30.31 168.62 30.31 168.53 30.3 168.46 30.38 168.46 30.47Z" fill="#4C4C49"/><path d="M167.1 31.85C167.1 31.76 167.17 31.69 167.26 31.69 167.35 31.69 167.42 31.76 167.42 31.85 167.42 31.94 167.35 32.01 167.26 32.01 167.18 32.01 167.1 31.94 167.1 31.85Z" fill="#4C4C49"/><path d="M166.79 31.17C166.79 31.08 166.86 31.01 166.95 31.01 167.04 31.01 167.11 31.08 167.11 31.17 167.11 31.26 167.04 31.33 166.95 31.33 166.86 31.33 166.79 31.27 166.79 31.17Z" fill="#4C4C49"/><path d="M168.77 31.17C168.77 31.08 168.84 31.01 168.93 31.01 169.02 31.01 169.09 31.08 169.09 31.17 169.09 31.26 169.02 31.33 168.93 31.33 168.84 31.33 168.77 31.27 168.77 31.17Z" fill="#4C4C49"/><path d="M167.77 32.08C167.77 31.99 167.84 31.92 167.93 31.92 168.02 31.92 168.09 31.99 168.09 32.08 168.09 32.17 168.02 32.24 167.93 32.24 167.85 32.24 167.77 32.16 167.77 32.08Z" fill="#4C4C49"/><path d="M168.46 31.82C168.46 31.73 168.53 31.66 168.62 31.66 168.71 31.66 168.78 31.73 168.78 31.82 168.78 31.91 168.71 31.98 168.62 31.98 168.53 31.98 168.46 31.91 168.46 31.82Z" fill="#4C4C49"/></g><g><path d="M118.97 31.15C118.97 32.9 120.39 34.33 122.15 34.33 123.91 34.33 125.33 32.91 125.33 31.15 125.33 29.39 123.91 27.97 122.15 27.97 120.39 27.97 118.97 29.4 118.97 31.15Z" fill="#363635"/><path d="M118.97 31.15C118.97 32.9 120.39 34.33 122.15 34.33 123.91 34.33 125.33 32.91 125.33 31.15 125.33 29.39 123.91 27.97 122.15 27.97 120.39 27.97 118.97 29.4 118.97 31.15Z" fill="#222222"/><path d="M119.99 31.15C119.99 32.34 120.96 33.3 122.15 33.3 123.34 33.3 124.31 32.34 124.31 31.15 124.31 29.96 123.34 28.99 122.15 28.99 120.96 29 119.99 29.96 119.99 31.15Z"/><path d="M120.85 31.08C120.85 31.79 121.43 32.37 122.14 32.37 122.85 32.37 123.43 31.79 123.43 31.08 123.43 30.37 122.85 29.79 122.14 29.79 121.43 29.78 120.85 30.36 120.85 31.08Z" fill="#222222"/><path d="M121.31 30.44C121.31 30.53 121.38 30.6 121.47 30.6 121.56 30.6 121.63 30.53 121.63 30.44 121.63 30.35 121.56 30.28 121.47 30.28 121.38 30.28 121.31 30.35 121.31 30.44Z" fill="#4C4C49"/><path d="M121.98 30.21C121.98 30.3 122.05 30.37 122.14 30.37 122.23 30.37 122.3 30.3 122.3 30.21 122.3 30.12 122.23 30.05 122.14 30.05 122.05 30.05 121.98 30.12 121.98 30.21Z" fill="#4C4C49"/><path d="M122.66 30.47C122.66 30.56 122.73 30.63 122.82 30.63 122.91 30.63 122.98 30.56 122.98 30.47 122.98 30.38 122.91 30.31 122.82 30.31 122.73 30.3 122.66 30.38 122.66 30.47Z" fill="#4C4C49"/><path d="M121.31 31.85C121.31 31.76 121.38 31.69 121.47 31.69 121.56 31.69 121.63 31.76 121.63 31.85 121.63 31.94 121.56 32.01 121.47 32.01 121.38 32.01 121.31 31.94 121.31 31.85Z" fill="#4C4C49"/><path d="M120.99 31.17C120.99 31.08 121.06 31.01 121.15 31.01 121.24 31.01 121.31 31.08 121.31 31.17 121.31 31.26 121.24 31.33 121.15 31.33 121.07 31.33 120.99 31.27 120.99 31.17Z" fill="#4C4C49"/><path d="M122.98 31.17C122.98 31.08 123.05 31.01 123.14 31.01 123.23 31.01 123.3 31.08 123.3 31.17 123.3 31.26 123.23 31.33 123.14 31.33 123.05 31.33 122.98 31.27 122.98 31.17Z" fill="#4C4C49"/><path d="M121.98 32.08C121.98 31.99 122.05 31.92 122.14 31.92 122.23 31.92 122.3 31.99 122.3 32.08 122.3 32.17 122.23 32.24 122.14 32.24 122.05 32.24 121.98 32.16 121.98 32.08Z" fill="#4C4C49"/><path d="M122.66 31.82C122.66 31.73 122.73 31.66 122.82 31.66 122.91 31.66 122.98 31.73 122.98 31.82 122.98 31.91 122.91 31.98 122.82 31.98 122.73 31.98 122.66 31.91 122.66 31.82Z" fill="#4C4C49"/></g><g><path d="M107.37 31.15C107.37 32.9 108.79 34.33 110.55 34.33 112.31 34.33 113.73 32.91 113.73 31.15 113.73 29.39 112.31 27.97 110.55 27.97 108.8 27.98 107.37 29.4 107.37 31.15Z" fill="#363635"/><path d="M107.37 31.15C107.37 32.9 108.79 34.33 110.55 34.33 112.31 34.33 113.73 32.91 113.73 31.15 113.73 29.39 112.31 27.97 110.55 27.97 108.8 27.98 107.37 29.4 107.37 31.15Z" fill="#222222"/><path d="M108.4 31.15C108.4 32.34 109.37 33.3 110.55 33.3 111.74 33.3 112.71 32.34 112.71 31.15 112.71 29.96 111.74 28.99 110.55 28.99 109.36 29 108.4 29.96 108.4 31.15Z"/><path d="M109.26 31.08C109.26 31.79 109.84 32.37 110.55 32.37 111.26 32.37 111.84 31.79 111.84 31.08 111.84 30.37 111.26 29.79 110.55 29.79 109.84 29.78 109.26 30.36 109.26 31.08Z" fill="#222222"/><path d="M109.71 30.44C109.71 30.53 109.78 30.6 109.87 30.6 109.96 30.6 110.03 30.53 110.03 30.44 110.03 30.35 109.96 30.28 109.87 30.28 109.78 30.28 109.71 30.35 109.71 30.44Z" fill="#4C4C49"/><path d="M110.38 30.21C110.38 30.3 110.45 30.37 110.54 30.37 110.63 30.37 110.7 30.3 110.7 30.21 110.7 30.12 110.63 30.05 110.54 30.05 110.45 30.05 110.38 30.12 110.38 30.21Z" fill="#4C4C49"/><path d="M111.06 30.47C111.06 30.56 111.13 30.63 111.22 30.63 111.31 30.63 111.38 30.56 111.38 30.47 111.38 30.38 111.31 30.31 111.22 30.31 111.14 30.3 111.06 30.38 111.06 30.47Z" fill="#4C4C49"/><path d="M109.71 31.85C109.71 31.76 109.78 31.69 109.87 31.69 109.96 31.69 110.03 31.76 110.03 31.85 110.03 31.94 109.96 32.01 109.87 32.01 109.78 32.01 109.71 31.94 109.71 31.85Z" fill="#4C4C49"/><path d="M109.4 31.17C109.4 31.08 109.47 31.01 109.56 31.01 109.65 31.01 109.72 31.08 109.72 31.17 109.72 31.26 109.65 31.33 109.56 31.33 109.47 31.33 109.4 31.27 109.4 31.17Z" fill="#4C4C49"/><path d="M111.38 31.17C111.38 31.08 111.45 31.01 111.54 31.01 111.63 31.01 111.7 31.08 111.7 31.17 111.7 31.26 111.63 31.33 111.54 31.33 111.45 31.33 111.38 31.27 111.38 31.17Z" fill="#4C4C49"/><path d="M110.38 32.08C110.38 31.99 110.45 31.92 110.54 31.92 110.63 31.92 110.7 31.99 110.7 32.08 110.7 32.17 110.63 32.24 110.54 32.24 110.45 32.24 110.38 32.16 110.38 32.08Z" fill="#4C4C49"/><path d="M111.06 31.82C111.06 31.73 111.13 31.66 111.22 31.66 111.31 31.66 111.38 31.73 111.38 31.82 111.38 31.91 111.31 31.98 111.22 31.98 111.14 31.98 111.06 31.91 111.06 31.82Z" fill="#4C4C49"/></g><g><path d="M102.15 2.11C103.15 1.25 104.39 0.85 105.68 0.66L166.24 0.92 180.66 0.92C180.66 0.92 195.47 1.31 202.58 9.22 209.69 17.12 216.8 29.37 216.8 29.37 216.8 29.37 218.97 33.71 211.66 33.71L187.11 33.71 185.66 28.97 100.45 28.97 100.45 6.01C100.5 5.45 100.55 4.88 100.66 4.33 101.01 3.48 101.48 2.69 102.15 2.11Z" fill="#FFFDEE"/></g><g><path d="M102.15 2.11C103.15 1.25 104.39 0.85 105.68 0.66L166.24 0.92 180.66 0.92C180.66 0.92 193.3 1.26 200.83 7.55L100.45 7.55 100.45 6.01C100.5 5.45 100.55 4.88 100.66 4.33 101.01 3.48 101.48 2.69 102.15 2.11Z" fill="#EEEDE0"/><path d="M100.45 17.21 208.9 17.21C213.38 23.46 216.8 29.36 216.8 29.36 216.8 29.36 218.97 33.7 211.66 33.7L187.11 33.7 185.66 28.96 100.45 28.96 100.45 17.21Z" fill="#EEEDE0"/></g><g><path d="M100.45 23.52 213.2 23.52C215.4 26.92 216.81 29.36 216.81 29.36 216.81 29.36 218.98 33.7 211.67 33.7L187.12 33.7 185.67 28.96 100.46 28.96 100.46 23.52Z" fill="#EF3A25"/></g><g><path d="M100.45 28.26 216.15 28.26C216.57 28.95 216.8 29.36 216.8 29.36 216.8 29.36 218.97 33.7 211.66 33.7L187.11 33.7 185.66 28.96 100.45 28.96 100.45 28.26Z" fill="#1D355C"/></g><path d="M194.69 10.7 203.93 10.7C206.74 14.11 208.37 16.38 210.66 19.59L196.86 19.59C194.88 19.39 194.69 18.21 194.69 18.21L192.91 11.49C193.01 10.5 194.69 10.7 194.69 10.7Z" fill="#343432"/><path d="M195.13 10.82 204.11 10.82C206.84 14.13 208.43 16.34 210.65 19.46L197.24 19.46C195.32 19.27 195.13 18.12 195.13 18.12L193.4 11.59C193.5 10.63 195.13 10.82 195.13 10.82Z" fill="#444342"/><path d="M193.97 13.75 193.4 11.59C193.5 10.63 195.13 10.82 195.13 10.82L204.11 10.82C206.72 13.98 208.28 16.14 210.36 19.05 206.13 17.48 195.18 14.01 193.97 13.75Z" fill="#343432" opacity="0.6"/><g><path d="M210.19 26.52C210.55 27.31 211.25 27.76 211.75 27.53 212.24 27.3 212.35 26.48 211.98 25.69 211.62 24.9 210.92 24.45 210.42 24.68 209.92 24.91 209.82 25.73 210.19 26.52Z" fill="#E3EDEE" opacity="0.6"/><path d="M212.97 26.78C213.14 27.28 213.53 27.59 213.84 27.49 214.15 27.38 214.27 26.89 214.1 26.4 213.93 25.9 213.54 25.59 213.23 25.69 212.92 25.79 212.8 26.28 212.97 26.78Z" fill="#E3D8C3"/></g><g><path d="M191.28 24.29 188.24 24.29C188.24 24.29 188.3 24.62 188.62 24.88 188.94 25.15 190.42 25.01 190.42 25.01 190.42 25.01 191.09 25.01 191.29 24.8 191.5 24.58 191.53 24.29 191.28 24.29Z" fill="#E86408"/><path d="M191.22 24.43 189.2 24.43C189.2 24.43 189.24 24.65 189.46 24.83 189.68 25.01 190.66 24.92 190.66 24.92 190.66 24.92 191.11 24.92 191.24 24.77 191.37 24.62 191.39 24.42 191.22 24.43Z" fill="#E86408" opacity="0.5"/></g><g><path d="M105.19 24.29 102.15 24.29C102.15 24.29 102.21 24.62 102.53 24.88 102.86 25.15 104.34 25.01 104.34 25.01 104.34 25.01 105.01 25.01 105.21 24.8 105.42 24.58 105.44 24.29 105.19 24.29Z" fill="#E86408"/><path d="M105.13 24.43 103.11 24.43C103.11 24.43 103.15 24.65 103.37 24.83 103.59 25.01 104.57 24.92 104.57 24.92 104.57 24.92 105.01 24.92 105.15 24.77 105.28 24.62 105.3 24.42 105.13 24.43Z" fill="#E86408" opacity="0.5"/></g><path d="M196.96 5.76C196.96 5.76 189.65 1.51 175.23 1.32L138 1.51 174.93 2.2C174.94 2.2 189.16 2.4 196.96 5.76Z" fill="#FFFFFF"/><path d="M102.15 2.11C102.45 1.85 102.77 1.65 103.1 1.47L135.13 1.61C126.19 2.05 114.42 2.22 102.02 2.23 102.07 2.19 102.11 2.15 102.15 2.11Z" fill="#FFFFFF"/><g><rect x="137.62" y="11.25" width="15.7" height="20.96" fill="#2B528B"/><rect x="145.52" y="11.46" width="7.41" height="20.76" fill="#E0DECE"/><rect x="138.12" y="11.46" width="7.23" height="20.76" fill="#E0DECE"/><rect x="145.52" y="22.79" width="7.41" height="9.43" fill="#CFCDC0"/><rect x="138.12" y="22.79" width="7.23" height="9.43" fill="#CFCDC0"/><rect x="145.52" y="27.97" width="7.41" height="4.25" fill="#CFCDC0"/><rect x="138.12" y="27.97" width="7.23" height="4.25" fill="#CFCDC0"/><g><g><path d="M146.46 18.31C146.46 18.66 146.69 18.95 146.98 18.95L151.19 18.95C151.48 18.95 151.71 18.66 151.71 18.31L151.71 13.14C151.71 12.79 151.48 12.5 151.19 12.5L146.98 12.5C146.69 12.5 146.46 12.79 146.46 13.14L146.46 18.31Z" fill="#343432"/><path d="M146.71 18.09C146.71 18.41 146.92 18.67 147.19 18.67L151.03 18.67C151.29 18.67 151.5 18.41 151.5 18.09L151.5 13.37C151.5 13.05 151.29 12.79 151.03 12.79L147.19 12.79C146.93 12.79 146.71 13.05 146.71 13.37L146.71 18.09Z" fill="#444342"/><path d="M146.46 15.59 146.46 13.14C146.46 12.79 146.69 12.5 146.98 12.5L151.19 12.5C151.48 12.5 151.71 12.79 151.71 13.14L151.71 16C150.09 15.16 148.3 15.15 146.46 15.59Z" fill="#343432" opacity="0.6"/></g><g><path d="M139.25 18.31C139.25 18.66 139.48 18.95 139.77 18.95L143.97 18.95C144.26 18.95 144.49 18.66 144.49 18.31L144.49 13.14C144.49 12.79 144.26 12.5 143.97 12.5L139.77 12.5C139.48 12.5 139.25 12.79 139.25 13.14L139.25 18.31Z" fill="#343432"/><path d="M139.5 18.09C139.5 18.41 139.71 18.67 139.98 18.67L143.82 18.67C144.08 18.67 144.29 18.41 144.29 18.09L144.29 13.37C144.29 13.05 144.08 12.79 143.82 12.79L139.98 12.79C139.72 12.79 139.5 13.05 139.5 13.37L139.5 18.09Z" fill="#444342"/><path d="M139.25 15.59 139.25 13.14C139.25 12.79 139.48 12.5 139.77 12.5L143.97 12.5C144.26 12.5 144.49 12.79 144.49 13.14L144.49 16C142.88 15.16 141.09 15.15 139.25 15.59Z" fill="#343432" opacity="0.6"/></g></g></g><path d="M101.58 33.64C100.66 33.29 100.46 32.22 100.45 31.01 100.45 31.01 100.45 31.01 100.45 31L100.45 28.97 105.73 28.97 105.05 33.68 101.71 33.68C101.67 33.67 101.63 33.66 101.58 33.64Z" fill="#2B528B"/><path d="M101.58 33.64C100.66 33.29 100.46 32.22 100.45 31.01 100.45 31.01 100.45 31.01 100.45 31L100.45 28.97 105.73 28.97 105.05 33.68 101.71 33.68C101.67 33.67 101.63 33.66 101.58 33.64Z" fill="#1D355C"/></g><g><g><g><path d="M128.01 17.81C128.01 18.16 128.24 18.45 128.53 18.45L132.74 18.45C133.03 18.45 133.26 18.16 133.26 17.81L133.26 12.64C133.26 12.29 133.03 12 132.74 12L128.53 12C128.24 12 128.01 12.29 128.01 12.64L128.01 17.81Z" fill="#343432"/><path d="M128.25 17.58C128.25 17.9 128.46 18.16 128.73 18.16L132.57 18.16C132.83 18.16 133.05 17.9 133.05 17.58L133.05 12.86C133.05 12.54 132.84 12.27 132.57 12.27L128.73 12.27C128.47 12.27 128.25 12.53 128.25 12.86L128.25 17.58Z" fill="#444342"/><path d="M128.01 15.09 128.01 12.64C128.01 12.29 128.24 12 128.53 12L132.74 12C133.03 12 133.26 12.29 133.26 12.64L133.26 15.5C131.64 14.66 129.85 14.65 128.01 15.09Z" fill="#343432" opacity="0.6"/></g><g><path d="M122.19 17.81C122.19 18.16 122.42 18.45 122.71 18.45L126.91 18.45C127.2 18.45 127.43 18.16 127.43 17.81L127.43 12.64C127.43 12.29 127.2 12 126.91 12L122.71 12C122.42 12 122.19 12.29 122.19 12.64L122.19 17.81Z" fill="#343432"/><path d="M122.44 17.58C122.44 17.9 122.65 18.16 122.92 18.16L126.76 18.16C127.02 18.16 127.24 17.9 127.24 17.58L127.24 12.86C127.24 12.54 127.03 12.27 126.76 12.27L122.92 12.27C122.66 12.27 122.44 12.53 122.44 12.86L122.44 17.58Z" fill="#444342"/><path d="M122.19 15.09 122.19 12.64C122.19 12.29 122.42 12 122.71 12L126.91 12C127.2 12 127.43 12.29 127.43 12.64L127.43 15.5C125.83 14.66 124.04 14.65 122.19 15.09Z" fill="#343432" opacity="0.6"/></g><g><path d="M116.38 17.81C116.38 18.16 116.61 18.45 116.9 18.45L121.1 18.45C121.39 18.45 121.62 18.16 121.62 17.81L121.62 12.64C121.62 12.29 121.38 12 121.1 12L116.9 12C116.61 12 116.38 12.29 116.38 12.64L116.38 17.81Z" fill="#343432"/><path d="M116.63 17.58C116.63 17.9 116.84 18.16 117.11 18.16L120.95 18.16C121.21 18.16 121.43 17.9 121.43 17.58L121.43 12.86C121.43 12.54 121.22 12.27 120.95 12.27L117.11 12.27C116.85 12.27 116.63 12.53 116.63 12.86L116.63 17.58Z" fill="#444342"/><path d="M116.38 15.09 116.38 12.64C116.38 12.29 116.61 12 116.9 12L121.1 12C121.39 12 121.62 12.29 121.62 12.64L121.62 15.5C120.01 14.66 118.22 14.65 116.38 15.09Z" fill="#343432" opacity="0.6"/></g><g><path d="M110.57 17.81C110.57 18.16 110.8 18.45 111.09 18.45L115.3 18.45C115.59 18.45 115.82 18.16 115.82 17.81L115.82 12.64C115.82 12.29 115.58 12 115.3 12L111.09 12C110.8 12 110.57 12.29 110.57 12.64L110.57 17.81Z" fill="#343432"/><path d="M110.81 17.58C110.81 17.9 111.02 18.16 111.29 18.16L115.13 18.16C115.39 18.16 115.61 17.9 115.61 17.58L115.61 12.86C115.61 12.54 115.4 12.27 115.13 12.27L111.29 12.27C111.03 12.27 110.81 12.53 110.81 12.86L110.81 17.58Z" fill="#444342"/><path d="M110.57 15.09 110.57 12.64C110.57 12.29 110.8 12 111.09 12L115.3 12C115.59 12 115.82 12.29 115.82 12.64L115.82 15.5C114.2 14.66 112.41 14.65 110.57 15.09Z" fill="#343432" opacity="0.6"/></g><g><path d="M104.75 17.81C104.75 18.16 104.98 18.45 105.27 18.45L109.48 18.45C109.77 18.45 110 18.16 110 17.81L110 12.64C110 12.29 109.77 12 109.48 12L105.27 12C104.98 12 104.75 12.29 104.75 12.64L104.75 17.81Z" fill="#343432"/><path d="M105 17.58C105 17.9 105.21 18.16 105.47 18.16L109.31 18.16C109.57 18.16 109.79 17.9 109.79 17.58L109.79 12.86C109.79 12.54 109.58 12.27 109.31 12.27L105.47 12.27C105.21 12.27 105 12.53 105 12.86L105 17.58Z" fill="#444342"/><path d="M104.75 15.09 104.75 12.64C104.75 12.29 104.98 12 105.27 12L109.48 12C109.77 12 110 12.29 110 12.64L110 15.5C108.38 14.66 106.59 14.65 104.75 15.09Z" fill="#343432" opacity="0.6"/></g></g><g><g><path d="M180.02 17.81C180.02 18.16 180.25 18.45 180.54 18.45L184.74 18.45C185.03 18.45 185.26 18.16 185.26 17.81L185.26 12.64C185.26 12.29 185.03 12 184.74 12L180.54 12C180.25 12 180.02 12.29 180.02 12.64L180.02 17.81Z" fill="#343432"/><path d="M180.27 17.58C180.27 17.9 180.48 18.16 180.75 18.16L184.59 18.16C184.85 18.16 185.07 17.9 185.07 17.58L185.07 12.86C185.07 12.54 184.86 12.27 184.59 12.27L180.75 12.27C180.49 12.27 180.27 12.53 180.27 12.86L180.27 17.58Z" fill="#444342"/><path d="M180.02 15.09 180.02 12.64C180.02 12.29 180.25 12 180.54 12L184.74 12C185.03 12 185.26 12.29 185.26 12.64L185.26 15.5C183.65 14.66 181.87 14.65 180.02 15.09Z" fill="#343432" opacity="0.6"/></g><g><path d="M174.21 17.81C174.21 18.16 174.44 18.45 174.73 18.45L178.93 18.45C179.22 18.45 179.45 18.16 179.45 17.81L179.45 12.64C179.45 12.29 179.22 12 178.93 12L174.73 12C174.44 12 174.21 12.29 174.21 12.64L174.21 17.81Z" fill="#343432"/><path d="M174.45 17.58C174.45 17.9 174.66 18.16 174.93 18.16L178.77 18.16C179.03 18.16 179.25 17.9 179.25 17.58L179.25 12.86C179.25 12.54 179.04 12.27 178.77 12.27L174.93 12.27C174.67 12.27 174.45 12.53 174.45 12.86L174.45 17.58Z" fill="#444342"/><path d="M174.21 15.09 174.21 12.64C174.21 12.29 174.44 12 174.73 12L178.93 12C179.22 12 179.45 12.29 179.45 12.64L179.45 15.5C177.84 14.66 176.05 14.65 174.21 15.09Z" fill="#343432" opacity="0.6"/></g><g><path d="M168.39 17.81C168.39 18.16 168.63 18.45 168.91 18.45L173.12 18.45C173.41 18.45 173.64 18.16 173.64 17.81L173.64 12.64C173.64 12.29 173.4 12 173.12 12L168.91 12C168.62 12 168.39 12.29 168.39 12.64L168.39 17.81Z" fill="#343432"/><path d="M168.64 17.58C168.64 17.9 168.85 18.16 169.12 18.16L172.96 18.16C173.22 18.16 173.43 17.9 173.43 17.58L173.43 12.86C173.43 12.54 173.22 12.27 172.96 12.27L169.12 12.27C168.86 12.27 168.64 12.53 168.64 12.86L168.64 17.58Z" fill="#444342"/><path d="M168.39 15.09 168.39 12.64C168.39 12.29 168.63 12 168.91 12L173.12 12C173.41 12 173.64 12.29 173.64 12.64L173.64 15.5C172.02 14.66 170.24 14.65 168.39 15.09Z" fill="#343432" opacity="0.6"/></g><g><path d="M162.58 17.81C162.58 18.16 162.81 18.45 163.1 18.45L167.31 18.45C167.6 18.45 167.83 18.16 167.83 17.81L167.83 12.64C167.83 12.29 167.59 12 167.31 12L163.1 12C162.81 12 162.58 12.29 162.58 12.64L162.58 17.81Z" fill="#343432"/><path d="M162.83 17.58C162.83 17.9 163.04 18.16 163.31 18.16L167.15 18.16C167.41 18.16 167.63 17.9 167.63 17.58L167.63 12.86C167.63 12.54 167.42 12.27 167.15 12.27L163.31 12.27C163.05 12.27 162.83 12.53 162.83 12.86L162.83 17.58Z" fill="#444342"/><path d="M162.58 15.09 162.58 12.64C162.58 12.29 162.81 12 163.1 12L167.31 12C167.6 12 167.83 12.29 167.83 12.64L167.83 15.5C166.21 14.66 164.42 14.65 162.58 15.09Z" fill="#343432" opacity="0.6"/></g><g><path d="M156.77 17.81C156.77 18.16 157 18.45 157.29 18.45L161.5 18.45C161.79 18.45 162.02 18.16 162.02 17.81L162.02 12.64C162.02 12.29 161.79 12 161.5 12L157.29 12C157 12 156.77 12.29 156.77 12.64L156.77 17.81Z" fill="#343432"/><path d="M157.01 17.58C157.01 17.9 157.22 18.16 157.49 18.16L161.33 18.16C161.59 18.16 161.81 17.9 161.81 17.58L161.81 12.86C161.81 12.54 161.6 12.27 161.33 12.27L157.49 12.27C157.23 12.27 157.01 12.53 157.01 12.86L157.01 17.58Z" fill="#444342"/><path d="M156.77 15.09 156.77 12.64C156.77 12.29 157 12 157.29 12L161.5 12C161.79 12 162.02 12.29 162.02 12.64L162.02 15.5C160.4 14.66 158.61 14.65 156.77 15.09Z" fill="#343432" opacity="0.6"/></g></g></g></g></svg>