<svg width="575.79" height="634.01" viewBox="0 0 575.79 634.01" xmlns="http://www.w3.org/2000/svg" xmlns:xlink="http://www.w3.org/1999/xlink" xml:space="preserve" overflow="hidden"><defs></defs><g><path d="M239.74 634.01C341.71 634.01 424.73 626.05 424.73 616.19 424.73 606.33 341.71 598.37 239.74 598.37 137.39 598.37 54.37 606.33 54.37 616.19 54.37 626.05 137.38 634.01 239.74 634.01L239.74 634.01Z" fill="#CCCCCC" fill-rule="evenodd" clip-rule="evenodd"/><path d="M530.12 199.58C543.01 231.42 550.59 256.06 550.97 289.8 553.24 291.7 555.52 293.21 557.79 295.11 555.51 257.96 547.93 228.77 530.12 199.58L530.12 199.58Z" fill="#B4B5B5" fill-rule="evenodd" clip-rule="evenodd"/><path d="M506.23 61.59C592.66 139.68 599.48 273.12 521.39 359.55 443.3 445.98 310.24 452.43 223.81 374.71 137.38 296.62 130.56 163.18 208.65 76.75 286.74-9.68 419.8-16.12 506.23 61.59L506.23 61.59ZM471.74 99.88C536.94 159.02 542.25 259.47 483.11 324.68 424.35 390.26 323.52 395.19 258.31 336.43 193.11 277.29 187.8 176.84 246.94 111.25 305.7 46.05 406.53 41.12 471.74 99.88L471.74 99.88Z" fill="#005483" fill-rule="evenodd" clip-rule="evenodd"/><path d="M243.15 389.88 203.35 433.85 185.15 417.55 166.57 400.87 206.37 356.9C211.68 362.97 217.36 369.03 223.81 374.72 229.88 380.02 236.33 385.33 243.15 389.88L243.15 389.88Z" fill="#595757" fill-rule="evenodd" clip-rule="evenodd"/><path d="M243.15 389.88 203.35 433.85 188.19 420.2 226.86 377.36C232.16 381.92 237.46 386.09 243.15 389.88L243.15 389.88Z" fill="#3E3938" fill-rule="evenodd" clip-rule="evenodd"/><path d="M185.15 417.55 157.1 392.15C151.03 386.46 145.73 393.29 140.42 398.22 99.86 436.51 59.3 474.42 18.73 512.7-41.17 568.43 57.4 657.89 107.06 592.69 141.18 548.34 174.92 503.98 208.65 460.01 213.2 453.94 219.26 448.26 213.2 442.57L185.15 417.55Z" fill="#DBB634" fill-rule="evenodd" clip-rule="evenodd"/><g opacity="0.68"><path d="M2.43 568.05C14.56 608.61 72.56 637.8 107.06 592.69 141.18 548.34 174.92 503.98 208.65 460.01 213.2 453.94 219.26 448.26 213.2 442.57L201.83 432.71C192.73 458.87 145.35 512.32 137.01 522.17 97.2 571.84 49.82 612.78 2.43 568.05L2.43 568.05Z" fill="#CB792D" fill-rule="evenodd" clip-rule="evenodd"/></g><path d="M140.8 409.97C107.44 441.81 73.7 472.9 40.72 505.12 2.43 542.27 38.82 579.42 73.32 532.41 100.23 495.64 127.53 458.87 154.44 422.1 161.65 412.62 149.14 402.01 140.8 409.97L140.8 409.97Z" fill="#FEFEFE" fill-rule="evenodd" clip-rule="evenodd"/><path d="M207.89 365.24 212.82 369.03 181.74 403.15 177.95 400.11Z" fill="#FEFEFE" fill-rule="evenodd" clip-rule="evenodd"/><path d="M411.08 370.55 407.67 368.65 407.67 368.65C408.81 369.41 409.94 369.79 411.46 370.55L411.08 370.55Z" fill="#9E9F9F" fill-rule="evenodd" clip-rule="evenodd"/><g><path d="M499.03 54.39C585.46 132.48 592.28 265.54 514.19 351.97 436.1 438.4 302.66 445.22 216.23 367.13 130.18 289.04 123.35 155.98 201.07 69.55 279.16-16.88 412.6-23.7 499.03 54.39L499.03 54.39ZM464.53 92.68C529.73 151.44 534.66 252.27 475.9 317.48 416.76 382.68 316.31 387.99 251.1 328.85 185.52 270.09 180.59 169.26 239.35 104.05 298.5 38.85 398.95 33.54 464.53 92.68L464.53 92.68Z" fill="#039BE6" fill-rule="evenodd" clip-rule="evenodd"/></g><path d="M499.03 54.39C585.46 132.48 592.28 265.54 514.19 351.97 436.1 438.4 302.66 445.22 216.23 367.13 188.56 342.11 169.22 311.4 158.23 278.42 193.48 316.33 233.67 337.94 273.85 346.28 338.29 386.08 423.59 375.47 475.9 317.47 510.02 279.94 522.53 230.28 514.57 183.65 521.01 146.12 516.47 104.04 497.13 60.45 495.23 55.52 493.34 51.35 491.82 48.32 494.1 50.22 496.76 52.12 499.03 54.39L499.03 54.39Z" fill="#1665C1" fill-rule="evenodd" clip-rule="evenodd"/><path d="M336.78 45.67C240.11 52.49 184.01 133.24 189.7 220.43 198.04 130.59 238.6 64.62 336.78 45.67L336.78 45.67Z" fill="#FEFEFE" fill-rule="evenodd" clip-rule="evenodd"/><path d="M303.42 408.45C438.75 415.65 555.89 348.55 558.92 179.86 574.09 342.49 441.41 433.85 303.42 408.45L303.42 408.45Z" fill="#FEFEFE" fill-rule="evenodd" clip-rule="evenodd"/><path d="M329.58 6.63C346.64 3.6 361.04 6.63 362.56 13.45 363.7 20.27 351.19 28.61 334.51 32.03 317.83 35.06 303.05 32.03 301.53 25.21 300.39 18.38 312.9 10.04 329.58 6.63L329.58 6.63Z" fill="#FEFEFE" fill-rule="evenodd" clip-rule="evenodd"/><path d="M276.51 27.1C285.61 24.07 293.95 24.83 295.09 28.62 296.23 32.41 289.78 37.72 280.68 40.75 271.58 43.4 263.24 42.65 261.73 38.85 260.59 35.06 267.03 29.75 276.51 27.1L276.51 27.1Z" fill="#FEFEFE" fill-rule="evenodd" clip-rule="evenodd"/></g></svg>