<svg width="137.34" height="137.34" viewBox="0 0 137.34 137.34" xmlns="http://www.w3.org/2000/svg" xmlns:xlink="http://www.w3.org/1999/xlink" xml:space="preserve" overflow="hidden"><defs></defs><g><g><rect x="29.31" y="80.88" width="44.74" height="9.56" fill="#18203D" transform="matrix(0.7071 -0.7071 0.7071 0.7071 -45.4357 61.6345)"/></g><g><g><g><ellipse cx="95.39" cy="41.96" rx="27.62" ry="27.62" fill="#C9DBF0" transform="matrix(0.8507 -0.5257 0.5257 0.8507 -7.812 56.4141)"/></g><g opacity="0.45"><path d="M88.22 27.79C85.72 25.29 85.72 21.24 88.22 18.75 90.72 16.25 94.77 16.25 97.26 18.75 99.76 21.25 99.76 25.3 97.26 27.79 94.77 30.29 90.72 30.29 88.22 27.79Z" fill="#F0F5F7"/></g><g><path d="M53.14 91.45 45.69 84C43.68 81.99 40.42 81.99 38.42 84L1.3 121.31C-1.22 123.83 0.03 129.18 4.09 133.24L4.09 133.24C8.16 137.31 13.5 138.56 16.02 136.03L53.13 98.71C55.15 96.71 55.15 93.46 53.14 91.45Z" fill="#5986C3"/></g><g><path d="M125.05 12.29C108.67-4.1 82.1-4.1 65.72 12.29 49.34 28.68 49.33 55.24 65.72 71.63 82.11 88.02 108.67 88.02 125.06 71.63 141.44 55.24 141.44 28.67 125.05 12.29ZM74 63.35C62.19 51.54 62.19 32.38 74 20.57 85.81 8.76 104.97 8.76 116.78 20.57 128.59 32.38 128.59 51.54 116.78 63.35 104.96 75.16 85.81 75.16 74 63.35Z" fill="#E7B932"/></g></g></g><g opacity="0.4"><path d="M69.3 15.87C83.71 1.46 107.06 1.46 121.47 15.87" stroke="#F0F5F7" stroke-width="1.393" stroke-miterlimit="10" fill="none"/></g><line x1="29.82" y1="102.19" x2="7.93" y2="123.82" stroke="#F0F5F7" stroke-width="1.393" stroke-linecap="round" stroke-linejoin="round" stroke-miterlimit="10" fill="none"/></g></svg>