<svg width="70.85" height="69.45" viewBox="0 0 70.85 69.45" xmlns="http://www.w3.org/2000/svg" xmlns:xlink="http://www.w3.org/1999/xlink" xml:space="preserve" overflow="hidden"><defs></defs><g><g><g><path d="M56.06 37.65C55.65 38.77 55.22 39.87 54.74 40.96 51.42 48.53 45.26 55.7 37.05 56.7 25.54 58.1 14.43 46.2 16.3 34.84 16.97 30.76 19.05 26.97 21.85 23.95 25.68 19.84 30.76 17.08 36.01 15.07 38.86 13.98 41.79 13.06 44.55 11.75 46.51 10.83 48.33 9.54 50.46 9.02 54.37 8.06 57.49 11.18 59.85 13.89 60.92 15.12 62.59 16.7 62.21 18.49 61.7 20.91 60.48 23.31 59.76 25.68 58.55 29.68 57.49 33.73 56.06 37.65Z" fill="#FDB03F"/></g><g><g><g><path d="M57.79 14.09C54.32 21.7 50.85 29.31 47.37 36.92 47.06 37.59 48.06 38.18 48.37 37.5 51.84 29.89 55.31 22.28 58.79 14.67 59.09 14.01 58.1 13.42 57.79 14.09L57.79 14.09Z" fill="#FFFFFF"/></g></g><g><g><path d="M33.94 26.01C40.74 21.14 47.54 16.27 54.34 11.4 54.94 10.97 54.36 9.97 53.76 10.4 46.96 15.27 40.16 20.14 33.36 25.01 32.76 25.44 33.34 26.44 33.94 26.01L33.94 26.01Z" fill="#FFFFFF"/></g></g><g><g><path d="M48.33 37.5C48.73 35.37 49.89 33.24 49.06 31.06 48.31 29.1 46.21 28.56 44.36 29.29 42.59 29.99 41.21 31.63 40.86 33.52 40.72 34.26 40.72 35.29 41.65 35.44 42.54 35.59 43.44 34.73 43.92 34.08 44.5 33.3 44.9 32.34 45.22 31.42 45.6 30.33 45.44 29.42 44.7 28.54 43.27 26.84 41.49 25.56 39.21 26.45 38.01 26.92 34.79 28.64 36.25 30.35 36.75 30.94 37.62 31.08 38.32 30.81 39.26 30.44 39.82 29.45 40.22 28.58 40.73 27.48 41.04 26.23 40.61 25.06 40.28 24.15 39.53 23.34 38.55 23.18 37.69 23.04 36.76 23.39 35.98 23.69 35.09 24.03 34.24 24.46 33.36 24.82 32.68 25.09 32.98 26.21 33.67 25.93 34.62 25.55 35.52 25.09 36.48 24.73 37.51 24.35 38.7 23.91 39.38 25.11 40.11 26.4 39.35 28.38 38.39 29.38 38.18 29.6 37.91 29.81 37.58 29.79 37.21 29.76 37.01 29.54 37.17 29.18 37.43 28.59 38.44 28.12 38.97 27.84 39.64 27.48 40.42 27.17 41.19 27.3 41.98 27.44 42.61 28 43.15 28.55 43.63 29.04 44.35 29.63 44.31 30.38 44.27 31.11 43.84 31.92 43.51 32.56 43.23 33.1 42.9 33.65 42.4 34.02 42.32 34.08 42.11 34.23 42.04 34.23 41.86 34.24 42.08 34.42 41.95 34.1 41.86 33.87 42.1 33.3 42.18 33.08 42.62 31.83 43.63 30.77 44.88 30.32 46.54 29.72 47.97 30.51 48.19 32.27 48.4 33.94 47.53 35.57 47.23 37.18 47.08 37.92 48.19 38.23 48.33 37.5L48.33 37.5Z" fill="#FFFFFF"/></g></g></g><path d="M68.38 2.33 68.38 2.33C71.62 5.49 71.68 10.68 68.51 13.92L62.68 20.01 50.94 8.56 56.77 2.47C59.94-0.77 65.14-0.83 68.38 2.33Z" fill="#A6EDDC"/></g><g><g><g><path d="M35.46 68.56C35.47 66.52 35.48 64.48 35.49 62.44 35.49 61.96 35.08 61.55 34.6 61.55 34.12 61.55 33.71 61.96 33.71 62.44 33.7 64.48 33.69 66.52 33.68 68.56 33.68 69.04 34.09 69.45 34.57 69.45 35.05 69.45 35.46 69.04 35.46 68.56L35.46 68.56Z" fill="#FDB03F"/></g></g><g><g><path d="M13.48 59.42C15.22 57.64 16.97 55.85 18.71 54.07 19.04 53.74 19.07 53.14 18.71 52.81 18.36 52.49 17.8 52.46 17.45 52.81 15.71 54.59 13.96 56.38 12.22 58.16 11.89 58.49 11.86 59.09 12.22 59.42 12.57 59.75 13.13 59.78 13.48 59.42L13.48 59.42Z" fill="#FDB03F"/></g></g><g><g><path d="M8.7 35.1C6.1 34.94 3.5 34.79 0.89 34.63 0.41 34.6 0 35.06 0 35.52 0 36.02 0.41 36.38 0.89 36.41 3.49 36.57 6.09 36.72 8.7 36.88 9.18 36.91 9.59 36.45 9.59 35.99 9.58 35.48 9.18 35.13 8.7 35.1L8.7 35.1Z" fill="#FDB03F"/></g></g></g></g></svg>