<svg width="388.12" height="246.12" viewBox="0 0 388.12 246.12" xmlns="http://www.w3.org/2000/svg" xmlns:xlink="http://www.w3.org/1999/xlink" xml:space="preserve" overflow="hidden"><defs></defs><path d="M1.18 199.9C-2.36 181.51 2.2 161.71 13.42 146.72 24.64 131.73 42.36 121.79 61 120.01 75.71 118.61 90.4 122.05 105.1 123.57 140.62 127.23 180.11 117.49 201.34 88.79 214.92 70.43 219.66 46.38 234.7 29.19 247.24 14.85 265.67 6.91 284.22 2.59 296.83-0.35 310.55-1.71 322.31 3.69 336.28 10.11 344.53 24.62 350.81 38.65 366.16 72.93 375.35 109.59 384.46 146.03 387.53 158.29 390.5 171.7 385.18 183.17 376.8 201.22 353.26 204.95 333.42 206.49 258.56 212.3 183.66 221.28 110.98 240.15 98.53 243.38 85.85 246.93 73.02 245.96 51.23 244.31 32.73 230.07 15.66 216.42" fill="#98DDFC"/></svg>