<svg width="76.18" height="119.12" viewBox="0 0 76.18 119.12" xmlns="http://www.w3.org/2000/svg" xmlns:xlink="http://www.w3.org/1999/xlink" xml:space="preserve" overflow="hidden"><defs></defs><g><g><radialGradient cx="-0.0445" cy="93.4354" r="7.1626" gradientUnits="userSpaceOnUse" id="SVGID_63_"><stop offset="0.0127" stop-color="#29ACE3"/><stop offset="0.346" stop-color="#209FDC"/><stop offset="0.9633" stop-color="#077CCA"/><stop offset="1" stop-color="#057AC9"/></radialGradient><radialGradient cx="0.4228" cy="107.939" r="8.5513" gradientUnits="userSpaceOnUse" id="SVGID_64_"><stop offset="0.0127" stop-color="#29ACE3"/><stop offset="0.346" stop-color="#209FDC"/><stop offset="0.9633" stop-color="#077CCA"/><stop offset="1" stop-color="#057AC9"/></radialGradient><g><radialGradient cx="48.0868" cy="74.3303" r="1.3662" gradientUnits="userSpaceOnUse" id="SVGID_36_"><stop offset="0" stop-color="#6B6B6A"/><stop offset="0.00230044" stop-color="#6B6B6A"/><stop offset="0.1869" stop-color="#4E4E49"/><stop offset="0.3756" stop-color="#38372F"/><stop offset="0.5708" stop-color="#28271D"/><stop offset="0.7744" stop-color="#1E1D12"/><stop offset="1" stop-color="#1B1A0E"/></radialGradient><radialGradient cx="33.3334" cy="90.1452" r="13.3011" gradientUnits="userSpaceOnUse" id="SVGID_39_"><stop offset="0" stop-color="#F4CBBF"/><stop offset="0.541" stop-color="#E8BBAA"/><stop offset="0.6253" stop-color="#E6B8A6"/><stop offset="0.7233" stop-color="#E4B2A0"/><stop offset="0.856" stop-color="#DEA18F"/><stop offset="1" stop-color="#D48774"/></radialGradient><radialGradient cx="67.1249" cy="81.2157" r="13.3924" gradientUnits="userSpaceOnUse" id="SVGID_40_"><stop offset="0" stop-color="#F4CBBF"/><stop offset="0.541" stop-color="#E8BBAA"/><stop offset="0.6253" stop-color="#E6B8A6"/><stop offset="0.7233" stop-color="#E4B2A0"/><stop offset="0.856" stop-color="#DEA18F"/><stop offset="1" stop-color="#D48774"/></radialGradient><radialGradient cx="52.0652" cy="56.3517" r="17.6387" gradientUnits="userSpaceOnUse" id="SVGID_47_"><stop offset="0.0127" stop-color="#29ACE3"/><stop offset="0.346" stop-color="#209FDC"/><stop offset="0.9633" stop-color="#077CCA"/><stop offset="1" stop-color="#057AC9"/></radialGradient><g><radialGradient cx="52.2843" cy="47.1385" r="7.4507" gradientUnits="userSpaceOnUse" id="SVGID_1_"><stop offset="0.0127" stop-color="#29ACE3"/><stop offset="0.346" stop-color="#209FDC"/><stop offset="0.9633" stop-color="#077CCA"/><stop offset="1" stop-color="#057AC9"/></radialGradient><radialGradient cx="51.7706" cy="47.1512" r="7.317" gradientUnits="userSpaceOnUse" id="SVGID_2_"><stop offset="0.0127" stop-color="#29ACE3"/><stop offset="0.346" stop-color="#209FDC"/><stop offset="0.9633" stop-color="#077CCA"/><stop offset="1" stop-color="#057AC9"/></radialGradient><radialGradient cx="59.2468" cy="52.7518" r="4.0778" gradientUnits="userSpaceOnUse" id="SVGID_3_"><stop offset="0.2066" stop-color="#29ACE3"/><stop offset="0.4178" stop-color="#229FDB"/><stop offset="0.8088" stop-color="#0F7CC7"/><stop offset="1" stop-color="#0569BB"/></radialGradient><path d="M55.47 52.26C55.67 50.63 56.4 49.82 56.66 49.58 56.64 49.53 56.62 49.5 56.62 49.5 50.94 47.96 46.17 48.5 46.17 48.5 44.46 48.59 44.44 50.62 48.78 52.55 53.12 54.49 55.83 54.91 55.83 54.91 55.83 54.91 55.24 54.13 55.47 52.26Z" fill="url(#SVGID_1_)"/><path d="M55.42 52.9C54.43 53.37 53.11 52.92 50.64 51.3 48.84 50.11 47.61 49.07 47.58 48.42 46.69 48.44 46.17 48.5 46.17 48.5 44.46 48.59 44.44 50.62 48.78 52.55 53.12 54.49 55.83 54.91 55.83 54.91 55.83 54.91 55.38 54.31 55.42 52.9Z" fill="url(#SVGID_2_)" opacity="0.5"/><path d="M56.43 49.58C56.17 49.82 55.44 50.63 55.24 52.26 55.01 54.13 55.6 54.92 55.6 54.92 57.35 52.03 56.61 50 56.43 49.58Z" fill="url(#SVGID_3_)"/></g><g><g><radialGradient cx="-692.719" cy="77.7466" r="19.2267" gradientUnits="userSpaceOnUse" id="SVGID_4_" gradientTransform="matrix(-0.9966 -0.0826 -0.0826 0.9966 -635.144 -103.068)"><stop offset="0" stop-color="#F4CBBF"/><stop offset="0.541" stop-color="#E8BBAA"/><stop offset="0.6253" stop-color="#E6B8A6"/><stop offset="0.7233" stop-color="#E4B2A0"/><stop offset="0.856" stop-color="#DEA18F"/><stop offset="1" stop-color="#D48774"/></radialGradient><radialGradient cx="-691.539" cy="91.3712" r="29.5841" gradientUnits="userSpaceOnUse" id="SVGID_5_" gradientTransform="matrix(-0.9966 -0.0826 -0.0826 0.9966 -635.144 -103.068)"><stop offset="0" stop-color="#FFFFFF"/><stop offset="0.3131" stop-color="#FEFDFD"/><stop offset="0.4763" stop-color="#FCF6F5"/><stop offset="0.605" stop-color="#F8EBE7"/><stop offset="0.7156" stop-color="#F2DAD4"/><stop offset="0.8147" stop-color="#EAC5BC"/><stop offset="0.9053" stop-color="#E1AB9D"/><stop offset="0.988" stop-color="#D68C7A"/><stop offset="1" stop-color="#D48774"/></radialGradient><radialGradient cx="-691.249" cy="89.3675" r="37.1744" gradientUnits="userSpaceOnUse" id="SVGID_6_" gradientTransform="matrix(-0.9966 -0.0826 -0.0826 0.9966 -635.144 -103.068)"><stop offset="0.4271" stop-color="#650B1E"/><stop offset="0.5388" stop-color="#740F1F"/><stop offset="0.7524" stop-color="#9A1921"/><stop offset="1" stop-color="#CE2623"/></radialGradient><radialGradient cx="-723.365" cy="291.721" r="19.5685" gradientUnits="userSpaceOnUse" id="SVGID_12_" gradientTransform="matrix(-0.8903 -0.4891 -0.4976 0.8723 -446.599 -591.723)"><stop offset="0.4271" stop-color="#650B1E"/><stop offset="0.5388" stop-color="#740F1F"/><stop offset="0.7524" stop-color="#9A1921"/><stop offset="1" stop-color="#CE2623"/></radialGradient><path d="M63.02 21.49C63.02 21.49 74.77 47.59 48.04 48.64 39.42 48.51 31.71 43.26 31.53 38.15 31.36 33.28 32.31 19.54 38.09 13.66 43.88 7.79 58.13 11.44 63.02 21.49Z" fill="url(#SVGID_4_)"/><path d="M63.02 21.49C63.02 21.49 64.79 25.41 65.39 30.28 64.98 28.8 64.48 27.25 63.95 26.16 63.55 28.08 61.71 26.65 59.33 22.97 59.55 25.43 58.04 26.04 54.2 20.77 53.23 25.09 51.14 25.95 48.85 19.04 46.4 23.48 44.29 22.45 44.25 20 41.87 24.38 40.12 22.71 40.39 20.9 39.03 24.82 35.35 27.2 34.9 25.27 33.84 27.36 32.74 29.4 32.02 32.24 32.94 26.56 35.2 19.22 39.28 15.08 45.06 9.21 58.13 11.44 63.02 21.49Z" fill="url(#SVGID_5_)"/><path d="M64.03 40.48C64.03 40.48 67.97 32.31 63.22 23.41 63.75 26.55 63.95 29.03 58.22 20.45 59.7 24.63 59.01 26.24 53.5 18.95 53.5 18.95 53.45 23.4 52.02 23.36 50.59 23.32 48.89 17.06 48.89 17.06 48.89 17.06 46.52 21.6 45.52 21.31 44.36 20.97 44.86 16.8 44.86 16.8 44.86 16.8 43.06 22.21 41.63 22.17 40.2 22.13 41.41 17.23 41.41 17.23 41.41 17.23 38.14 24.11 35.57 25.33 35.33 25.39 34.69 23.43 34.84 21.69 34.84 21.69 29.9 34.23 32.23 40.7 26.65 39.05 22.59 33.96 23.94 31.05 22.62 32.61 22.62 34.33 22.62 34.33 22.62 34.33 20.29 31.87 21.33 27.98 19.92 29.69 19.54 30.38 19.54 30.38 19.54 30.38 18.49 26.72 20.77 22.22 19.07 24.46 18.71 24.99 18.25 24.87 17.78 24.75 19.65 7.41 36.83 3.43 36.83 3.43 35.31 2.18 35.55 1.7 35.79 1.23 37.84 2.02 39.36 3.28 40.39 0.12 40.8-0.05 41.16 0.02 41.52 0.08 41.44 3.06 41.44 3.06 41.44 3.06 46.94-0.57 58.73 5.81 69.71 12.28 72.56 20.15 69.43 17.66 71.75 20.39 73.58 28.01 70.75 24.76 72.01 27.73 71.98 31.93 70.73 29.84 70.73 32.53 69.96 38.03 64.03 40.48Z" fill="url(#SVGID_6_)"/><g opacity="0.5"><radialGradient cx="-667.379" cy="86.5417" r="13.0344" gradientUnits="userSpaceOnUse" id="SVGID_7_" gradientTransform="matrix(-0.9966 -0.0826 -0.0826 0.9966 -635.144 -103.068)"><stop offset="0.4271" stop-color="#650B1E"/><stop offset="0.5388" stop-color="#740F1F"/><stop offset="0.7524" stop-color="#9A1921"/><stop offset="1" stop-color="#CE2623"/></radialGradient><path d="M27.83 37.14C25.18 34.6 26.13 30.52 29.35 30.38 30.5 30.33 31.39 30.92 32.07 31.7 31.52 34.9 31.36 38.24 32.24 40.7 27.78 39.38 24 36.42 23.68 33.18 23.71 33.13 23.73 33.07 23.76 33.02 24.01 37.34 29.02 38.47 27.83 37.14Z" fill="url(#SVGID_7_)"/></g><g><linearGradient x1="-484.373" y1="529.635" x2="-481.113" y2="526.183" gradientUnits="userSpaceOnUse" id="SVGID_9_" gradientTransform="matrix(-0.9484 -0.3174 -0.3174 0.9484 -223.482 -612.206)"><stop offset="0" stop-color="#F4CBBF"/><stop offset="0.2813" stop-color="#E7B6AA"/><stop offset="0.8611" stop-color="#C48173"/><stop offset="1" stop-color="#BB7365"/></linearGradient><g><radialGradient cx="-564.925" cy="558.86" r="6.2305" gradientUnits="userSpaceOnUse" id="SVGID_8_" gradientTransform="matrix(-0.8917 -0.4524 -0.4524 0.8917 -181.624 -710.297)"><stop offset="0" stop-color="#F4CBBF"/><stop offset="0.4886" stop-color="#E8BBAA"/><stop offset="0.5648" stop-color="#E6B8A6"/><stop offset="0.6785" stop-color="#E4B2A0"/><stop offset="0.8327" stop-color="#DEA18F"/><stop offset="1" stop-color="#D48774"/></radialGradient><path d="M64.92 37.94C64.92 37.94 66.34 36.44 67.81 38.12 69.28 39.8 67.23 43.54 63.46 41.74 63.46 41.74 65 37.94 64.92 37.94Z" fill="url(#SVGID_8_)"/></g><path d="M66.41 38.75C67.37 38.72 67.34 39.76 67.34 39.76 67.23 39.43 66.93 38.98 66.1 39.21 65.81 39.29 65.59 39.57 65.43 39.9 65.47 41.05 66.45 40.49 66.45 40.49 66.45 40.49 66.09 41.14 65.48 40.91 65.31 40.84 65.21 40.74 65.17 40.62 65.07 40.99 65.03 41.29 65.03 41.29 64.7 40.63 65.45 38.78 66.41 38.75Z" fill="url(#SVGID_9_)"/></g><g><linearGradient x1="815.833" y1="683.999" x2="820.108" y2="679.473" gradientUnits="userSpaceOnUse" id="SVGID_11_" gradientTransform="matrix(0.9965 0.0842 -0.0842 0.9965 -730.031 -712.207)"><stop offset="0" stop-color="#F4CBBF"/><stop offset="0.2813" stop-color="#E7B6AA"/><stop offset="0.8611" stop-color="#C48173"/><stop offset="1" stop-color="#BB7365"/></linearGradient><g><radialGradient cx="697.094" cy="899.111" r="8.1722" gradientUnits="userSpaceOnUse" id="SVGID_10_" gradientTransform="matrix(0.9981 -0.0622 0.0622 0.9981 -728.031 -817.003)"><stop offset="0" stop-color="#F4CBBF"/><stop offset="0.4886" stop-color="#E8BBAA"/><stop offset="0.5648" stop-color="#E6B8A6"/><stop offset="0.6785" stop-color="#E4B2A0"/><stop offset="0.8327" stop-color="#DEA18F"/><stop offset="1" stop-color="#D48774"/></radialGradient><path d="M31.88 32.48C31.88 32.48 30.95 29.94 28.3 31.19 25.66 32.44 26.18 38.03 31.66 37.82 31.66 37.82 31.77 32.44 31.88 32.48Z" fill="url(#SVGID_10_)"/></g><path d="M29.66 32.68C28.52 32.15 28.01 33.41 28.01 33.41 28.31 33.07 28.91 32.69 29.79 33.39 30.1 33.64 30.22 34.09 30.23 34.57 29.59 35.94 28.69 34.76 28.69 34.76 28.69 34.76 28.79 35.72 29.65 35.76 29.89 35.77 30.06 35.7 30.17 35.58 30.1 36.08 29.98 36.47 29.98 36.47 30.75 35.83 30.8 33.21 29.66 32.68Z" fill="url(#SVGID_11_)"/></g><path d="M68.67 16.56C68.67 16.56 66.5 10.34 58.97 6.21 51.45 2.08 44.03 1.93 40.7 4.25 40.7 4.25 48.6 1.46 57.87 6.84 66.86 12.06 68.67 16.56 68.67 16.56Z" fill="url(#SVGID_12_)"/></g><g><radialGradient cx="43.7317" cy="23.0832" r="10.4204" gradientUnits="userSpaceOnUse" id="SVGID_27_"><stop offset="0.3175" stop-color="#650B1E"/><stop offset="0.7249" stop-color="#680C1E"/><stop offset="1" stop-color="#700E1F"/></radialGradient><radialGradient cx="57.7216" cy="23.4849" r="11.458" gradientUnits="userSpaceOnUse" id="SVGID_28_"><stop offset="0.3175" stop-color="#650B1E"/><stop offset="0.7249" stop-color="#680C1E"/><stop offset="1" stop-color="#700E1F"/></radialGradient><g><radialGradient cx="56.0807" cy="36.6431" r="4.246" gradientUnits="userSpaceOnUse" id="SVGID_13_"><stop offset="0" stop-color="#E6B8A6"/><stop offset="0.2614" stop-color="#E4B2A0"/><stop offset="0.6157" stop-color="#DEA18F"/><stop offset="1" stop-color="#D48774"/></radialGradient><path d="M59.04 37.11C59.83 34.65 59.18 32.24 57.59 31.74 56 31.24 54.07 32.83 53.27 35.29 52.48 37.75 53.13 40.16 54.73 40.66 54.91 40.71 55.08 40.74 55.27 40.75 55.23 40.78 55.19 40.8 55.15 40.83 55.05 40.9 54.96 40.97 54.89 41.04 54.73 41.18 54.62 41.31 54.54 41.4 54.47 41.49 54.43 41.56 54.43 41.56 54.43 41.56 54.48 41.51 54.57 41.44 54.66 41.37 54.8 41.27 54.97 41.16 55.14 41.06 55.34 40.94 55.57 40.84 55.68 40.78 55.8 40.74 55.92 40.69 56.04 40.64 56.17 40.6 56.29 40.56 56.42 40.52 56.54 40.48 56.67 40.45 56.8 40.42 56.92 40.39 57.05 40.36 57.17 40.34 57.29 40.32 57.4 40.29 57.51 40.27 57.62 40.26 57.72 40.25 57.92 40.22 58.09 40.2 58.21 40.19 58.33 40.18 58.4 40.16 58.4 40.16 58.4 40.16 58.33 40.15 58.21 40.13 58.09 40.12 57.92 40.09 57.71 40.09 57.61 40.09 57.5 40.08 57.38 40.09 57.27 40.1 57.15 40.11 57.02 40.12 57.87 39.49 58.62 38.43 59.04 37.11Z" fill="url(#SVGID_13_)" opacity="0.8"/><g><g><linearGradient x1="81.4698" y1="8.6916" x2="85.0564" y2="0.0986" gradientUnits="userSpaceOnUse" id="SVGID_14_" gradientTransform="matrix(0.9712 0.2382 -0.2382 0.9712 -23.402 11.8162)"><stop offset="0" stop-color="#FFFFFF"/><stop offset="0.8358" stop-color="#EAEAEA"/><stop offset="1" stop-color="#E5E5E5"/></linearGradient><path d="M57.47 32.15C55.99 31.68 54.2 33.16 53.46 35.44 52.73 37.72 53.33 39.95 54.81 40.42 56.29 40.89 58.08 39.41 58.81 37.13 59.55 34.85 58.95 32.61 57.47 32.15Z" fill="url(#SVGID_14_)"/><g><linearGradient x1="68.7541" y1="21.3811" x2="70.2295" y2="27.1606" gradientUnits="userSpaceOnUse" id="SVGID_15_" gradientTransform="matrix(0.9936 0.1125 -0.1125 0.9936 -10.5153 5.6006)"><stop offset="0.2679" stop-color="#215673"/><stop offset="1" stop-color="#0B2E43"/></linearGradient><linearGradient x1="-768.135" y1="-49.2672" x2="-765.934" y2="-49.2672" gradientUnits="userSpaceOnUse" id="SVGID_16_" gradientTransform="matrix(-0.9274 -0.374 -0.374 0.9274 -674.229 -202.812)"><stop offset="0.2679" stop-color="#215673"/><stop offset="1" stop-color="#0B2E43"/></linearGradient><linearGradient x1="-861.823" y1="422.263" x2="-864.066" y2="422.441" gradientUnits="userSpaceOnUse" id="SVGID_17_" gradientTransform="matrix(-0.8976 -0.4408 -0.4408 0.8976 -533.338 -722.963)"><stop offset="0" stop-color="#FFFFFF"/><stop offset="0.8358" stop-color="#EAEAEA"/><stop offset="1" stop-color="#E5E5E5"/></linearGradient><path d="M56.6 34.56C55.6 34.32 54.44 35.43 53.99 37.04 53.54 38.65 53.99 40.16 54.98 40.4 55.97 40.65 57.14 39.53 57.58 37.92 58.04 36.32 57.6 34.81 56.6 34.56Z" fill="url(#SVGID_15_)"/><path d="M54.5 38.1C54.23 39.12 54.48 40.07 55.06 40.22 55.64 40.37 56.33 39.66 56.6 38.64 56.87 37.62 56.62 36.67 56.04 36.52 55.45 36.37 54.76 37.08 54.5 38.1Z" fill="url(#SVGID_16_)"/><path d="M54.61 36.3C54.31 36.86 54.33 37.44 54.65 37.6 54.97 37.76 55.47 37.45 55.77 36.89 56.07 36.33 56.05 35.75 55.73 35.59 55.41 35.43 54.91 35.75 54.61 36.3Z" fill="url(#SVGID_17_)"/></g></g></g></g><g><radialGradient cx="42.3957" cy="35.0449" r="4.6943" gradientUnits="userSpaceOnUse" id="SVGID_18_"><stop offset="0" stop-color="#E6B8A6"/><stop offset="0.2614" stop-color="#E4B2A0"/><stop offset="0.6157" stop-color="#DEA18F"/><stop offset="1" stop-color="#D48774"/></radialGradient><path d="M44.53 30.31C42.97 29.65 40.88 31.07 39.85 33.48 39.15 35.11 39.13 36.76 39.66 37.87 39.61 37.84 39.56 37.82 39.52 37.79 39.42 37.73 39.32 37.68 39.23 37.64 39.04 37.56 38.89 37.5 38.77 37.46 38.66 37.42 38.59 37.41 38.59 37.41 38.59 37.41 38.65 37.45 38.75 37.51 38.85 37.57 38.99 37.67 39.15 37.78 39.23 37.83 39.32 37.9 39.41 37.97 39.5 38.04 39.6 38.1 39.7 38.18 39.79 38.25 39.89 38.33 39.99 38.4 40.17 38.62 40.38 38.81 40.63 38.94 40.71 39.02 40.8 39.1 40.88 39.17 40.97 39.26 41.06 39.34 41.14 39.41 41.23 39.48 41.29 39.57 41.36 39.64 41.5 39.79 41.62 39.9 41.7 39.98 41.78 40.06 41.83 40.11 41.83 40.11 41.83 40.11 41.8 40.05 41.74 39.95 41.68 39.85 41.59 39.71 41.47 39.54 41.41 39.46 41.35 39.36 41.27 39.28 41.23 39.23 41.18 39.18 41.14 39.13 42.65 39.47 44.52 38.09 45.48 35.85 46.53 33.45 46.1 30.96 44.53 30.31Z" fill="url(#SVGID_18_)" opacity="0.8"/><g><linearGradient x1="74.5239" y1="-6.803" x2="78.1099" y2="-15.3945" gradientUnits="userSpaceOnUse" id="SVGID_19_" gradientTransform="matrix(0.945 0.3272 -0.3272 0.945 -32.8135 19.9314)"><stop offset="0" stop-color="#FFFFFF"/><stop offset="0.8358" stop-color="#EAEAEA"/><stop offset="1" stop-color="#E5E5E5"/></linearGradient><path d="M44.34 30.76C42.91 30.16 40.99 31.46 40.05 33.67 39.11 35.88 39.5 38.15 40.93 38.75 42.36 39.35 44.28 38.05 45.22 35.84 46.16 33.64 45.77 31.36 44.34 30.76Z" fill="url(#SVGID_19_)"/><g><linearGradient x1="64.9163" y1="4.6741" x2="66.3918" y2="10.4542" gradientUnits="userSpaceOnUse" id="SVGID_20_" gradientTransform="matrix(0.9789 0.2042 -0.2042 0.9789 -20.5484 15.1552)"><stop offset="0.2679" stop-color="#215673"/><stop offset="1" stop-color="#0B2E43"/></linearGradient><linearGradient x1="-760.088" y1="-63.0373" x2="-757.889" y2="-63.0373" gradientUnits="userSpaceOnUse" id="SVGID_21_" gradientTransform="matrix(-0.8887 -0.4584 -0.4584 0.8887 -661.568 -255.126)"><stop offset="0.2679" stop-color="#215673"/><stop offset="1" stop-color="#0B2E43"/></linearGradient><linearGradient x1="-852.381" y1="408.302" x2="-854.625" y2="408.48" gradientUnits="userSpaceOnUse" id="SVGID_22_" gradientTransform="matrix(-0.8529 -0.5221 -0.5221 0.8529 -473.192 -759.037)"><stop offset="0" stop-color="#FFFFFF"/><stop offset="0.8358" stop-color="#EAEAEA"/><stop offset="1" stop-color="#E5E5E5"/></linearGradient><path d="M43.25 33.08C42.28 32.74 41.02 33.74 40.43 35.31 39.84 36.88 40.14 38.42 41.11 38.75 42.08 39.08 43.34 38.09 43.93 36.52 44.52 34.96 44.21 33.42 43.25 33.08Z" fill="url(#SVGID_20_)"/><path d="M40.82 36.41C40.45 37.4 40.62 38.37 41.18 38.57 41.75 38.77 42.49 38.13 42.86 37.14 43.22 36.15 43.06 35.18 42.5 34.98 41.94 34.77 41.18 35.41 40.82 36.41Z" fill="url(#SVGID_21_)"/><path d="M41.11 34.63C40.76 35.16 40.73 35.74 41.03 35.93 41.33 36.12 41.86 35.85 42.21 35.32 42.56 34.79 42.59 34.21 42.29 34.02 41.98 33.83 41.45 34.1 41.11 34.63Z" fill="url(#SVGID_22_)"/></g></g></g><g><radialGradient cx="-742.127" cy="370.729" r="5.8126" gradientUnits="userSpaceOnUse" id="SVGID_23_" gradientTransform="matrix(-0.9329 -0.3598 -0.3598 0.9329 -511.269 -572.148)"><stop offset="0" stop-color="#E6B8A6"/><stop offset="0.2614" stop-color="#E4B2A0"/><stop offset="0.6157" stop-color="#DEA18F"/><stop offset="1" stop-color="#D48774"/></radialGradient><defs><filter id="Adobe_OpacityMaskFilter" x="49.62" y="39.32" width="1.22" height="1.22" filterUnits="userSpaceOnUse" primitiveUnits="userSpaceOnUse"><feFlood flood-color="#FFFFFF" result="back"/><feBlend in="SourceGraphic" in2="back" mode="normal"/></filter></defs><mask maskUnits="userSpaceOnUse" x="49.62" y="39.32" width="1.22" height="1.22" id="SVGID_24_"><g filter="url(#Adobe_OpacityMaskFilter)"><defs><filter id="Adobe_OpacityMaskFilter_1_" x="49.62" y="39.32" width="1.22" height="1.22" filterUnits="userSpaceOnUse" primitiveUnits="userSpaceOnUse"><feFlood flood-color="#FFFFFF" result="back"/><feBlend in="SourceGraphic" in2="back" mode="normal"/></filter></defs><mask maskUnits="userSpaceOnUse" x="49.62" y="39.32" width="1.22" height="1.22" id="SVGID_24_"><g filter="url(#Adobe_OpacityMaskFilter_1_)"></g></mask><radialGradient cx="-563.961" cy="592.798" r="2.6511" gradientUnits="userSpaceOnUse" id="SVGID_25_" gradientTransform="matrix(-0.9566 0.2914 0.2914 0.9566 -661.618 -363.392)"><stop offset="0" stop-color="#FFFFFF"/><stop offset="0.0858" stop-color="#F4F4F4"/><stop offset="0.2353" stop-color="#D8D8D8"/><stop offset="0.4306" stop-color="#A9A9A9"/><stop offset="0.6642" stop-color="#696969"/><stop offset="0.9275" stop-color="#181818"/><stop offset="1"/></radialGradient><path d="M49.65 40.11C49.75 40.43 50.09 40.62 50.41 40.52 50.73 40.42 50.91 40.08 50.82 39.76 50.72 39.44 50.38 39.25 50.06 39.35 49.73 39.45 49.55 39.79 49.65 40.11Z" fill="url(#SVGID_25_)" mask="url(#SVGID_24_)"/></g></mask><radialGradient cx="-563.961" cy="592.798" r="2.6511" gradientUnits="userSpaceOnUse" id="SVGID_26_" gradientTransform="matrix(-0.9566 0.2914 0.2914 0.9566 -661.618 -363.392)"><stop offset="0" stop-color="#FFFFFF"/><stop offset="1" stop-color="#FFFFFF"/></radialGradient><path d="M48.87 41.92C51.3 42.66 52.29 40.15 51 39.22 49.77 38.34 48.96 39.56 48.96 39.56 49.02 39.47 49.25 39.4 49.34 39.36 49.61 39.24 49.89 39.15 50.19 39.17 51.36 39.27 51.5 40.63 50.82 41.36 50.59 41.6 50.25 41.75 49.93 41.79 48.88 41.94 48.87 41.92 48.87 41.92Z" fill="url(#SVGID_23_)" opacity="0.8"/><path d="M49.65 40.11C49.75 40.43 50.09 40.62 50.41 40.52 50.73 40.42 50.91 40.08 50.82 39.76 50.72 39.44 50.38 39.25 50.06 39.35 49.73 39.45 49.55 39.79 49.65 40.11Z" fill="url(#SVGID_26_)" opacity="0.7"/></g><path d="M42.33 28.75C43.25 28.45 44.64 27.88 45.23 30 45.38 30.55 45.47 29.14 44.99 28.14 44.23 26.56 41.46 29.04 42.33 28.75Z" fill="url(#SVGID_27_)"/><path d="M55.96 29.9C57.23 27.76 58.89 27.94 59.65 30.48 59.96 31.51 59.62 31.18 59.34 30.68 59.13 30.31 57.87 28.44 56.14 30.35 55.59 30.96 55.66 30.41 55.96 29.9Z" fill="url(#SVGID_28_)"/><g><linearGradient x1="44.4617" y1="47.7728" x2="45.7938" y2="44.1097" gradientUnits="userSpaceOnUse" id="SVGID_29_"><stop offset="0.1146" stop-color="#E75667"/><stop offset="1" stop-color="#420D00"/></linearGradient><path d="M40.85 42.69C40.85 42.69 45.21 45.51 51.03 44.7 51.03 44.7 48.17 46.35 44.92 45.81 41.67 45.28 40.85 42.69 40.85 42.69Z" fill="url(#SVGID_29_)"/><g opacity="0.8"><radialGradient cx="40.8639" cy="42.6667" r="0.4289" gradientUnits="userSpaceOnUse" id="SVGID_30_"><stop offset="0" stop-color="#E6B8A6"/><stop offset="0.2614" stop-color="#E4B2A0"/><stop offset="0.6157" stop-color="#DEA18F"/><stop offset="1" stop-color="#D48774"/></radialGradient><path d="M41.2 42.3C41.2 42.3 41.23 42.38 41.2 42.49 41.19 42.54 41.17 42.61 41.13 42.66 41.09 42.72 41.04 42.77 40.99 42.82 40.93 42.86 40.87 42.9 40.8 42.92 40.74 42.95 40.68 42.96 40.62 42.96 40.51 42.97 40.44 42.94 40.44 42.94 40.44 42.94 40.49 42.87 40.57 42.82 40.59 42.8 40.61 42.79 40.63 42.78 40.65 42.76 40.67 42.74 40.69 42.72 40.73 42.68 40.78 42.66 40.82 42.62 40.87 42.59 40.91 42.55 40.95 42.52 40.99 42.49 41.03 42.45 41.07 42.42 41.14 42.35 41.2 42.3 41.2 42.3Z" fill="url(#SVGID_30_)"/></g></g></g></g><g><radialGradient cx="46.5722" cy="50.5852" r="5.3658" gradientUnits="userSpaceOnUse" id="SVGID_31_"><stop offset="0" stop-color="#F4CBBF"/><stop offset="0.541" stop-color="#E8BBAA"/><stop offset="0.6253" stop-color="#E6B8A6"/><stop offset="0.7233" stop-color="#E4B2A0"/><stop offset="0.856" stop-color="#DEA18F"/><stop offset="1" stop-color="#D48774"/></radialGradient><radialGradient cx="52.0651" cy="56.3517" r="17.6387" gradientUnits="userSpaceOnUse" id="SVGID_32_"><stop offset="0.0127" stop-color="#29ACE3"/><stop offset="0.346" stop-color="#209FDC"/><stop offset="0.9633" stop-color="#077CCA"/><stop offset="1" stop-color="#057AC9"/></radialGradient><path d="M43.71 51.27C45.54 51.5 46.06 49.79 46.2 48.56 46.18 48.55 46.16 48.53 46.14 48.52 44.71 48.37 43.32 48.09 42.01 47.7 41.83 48.89 41.77 51.02 43.71 51.27Z" fill="url(#SVGID_31_)"/><path d="M46.2 48.56C46.06 49.79 45.54 51.51 43.71 51.27 41.77 51.02 41.82 48.88 42.01 47.7 41.8 47.64 41.6 47.57 41.39 47.51 41.39 47.51 35.84 52.23 36.52 68.47 36.52 68.47 47.16 73 54.38 67.55 54.39 67.56 54.4 53.59 46.2 48.56Z" fill="url(#SVGID_32_)"/></g><g><radialGradient cx="32.0186" cy="50.7485" r="7.5719" gradientUnits="userSpaceOnUse" id="SVGID_33_"><stop offset="0.2066" stop-color="#29ACE3"/><stop offset="0.4745" stop-color="#209FDC"/><stop offset="0.9705" stop-color="#077CCA"/><stop offset="1" stop-color="#057AC9"/></radialGradient><radialGradient cx="32.1936" cy="60.598" r="4.7764" gradientUnits="userSpaceOnUse" id="SVGID_34_"><stop offset="0.2066" stop-color="#29ACE3"/><stop offset="0.4178" stop-color="#229FDB"/><stop offset="0.8088" stop-color="#0F7CC7"/><stop offset="1" stop-color="#0569BB"/></radialGradient><radialGradient cx="32.0186" cy="50.749" r="7.5717" gradientUnits="userSpaceOnUse" id="SVGID_35_"><stop offset="0.0127" stop-color="#29ACE3"/><stop offset="0.346" stop-color="#209FDC"/><stop offset="0.9633" stop-color="#077CCA"/><stop offset="1" stop-color="#057AC9"/></radialGradient><path d="M34.36 50.85C32.39 53.87 32.06 56.17 32.06 56.17 32.06 56.17 34.91 54.74 37.1 57.75 38.18 51.48 40.34 48.64 41.11 47.8 39.78 47.7 36.36 47.78 34.36 50.85Z" fill="url(#SVGID_33_)"/><path d="M32.06 56.17C32.06 56.17 33.19 58.03 37.1 57.75 34.92 54.73 32.06 56.17 32.06 56.17Z" fill="url(#SVGID_34_)"/><path d="M39.12 47.88C39.15 48.36 38.9 49.2 38.32 50.49 36.69 54.1 35.97 56.47 32.21 55.5 32.1 55.92 32.06 56.17 32.06 56.17 32.06 56.17 34.91 54.74 37.1 57.75 38.18 51.48 40.34 48.64 41.11 47.8 40.65 47.76 39.94 47.75 39.12 47.88Z" fill="url(#SVGID_35_)" opacity="0.5"/></g><path d="M46.97 75.8C46.97 75.8 46.96 75.74 46.95 75.63 46.95 75.52 46.94 75.36 46.97 75.17 46.99 74.98 47.05 74.76 47.14 74.54 47.19 74.43 47.24 74.31 47.31 74.21L47.41 74.05 47.53 73.9C47.61 73.8 47.71 73.71 47.8 73.62 47.89 73.53 48 73.47 48.1 73.39 48.2 73.32 48.31 73.28 48.4 73.22 48.5 73.17 48.6 73.14 48.69 73.11 48.78 73.08 48.86 73.05 48.94 73.04 49.02 73.03 49.08 73.02 49.14 73.01 49.25 72.99 49.31 72.99 49.31 72.99 49.31 72.99 49.25 73.02 49.15 73.06 49.1 73.08 49.04 73.11 48.97 73.14 48.9 73.17 48.83 73.21 48.75 73.26 48.67 73.31 48.58 73.34 48.5 73.4 48.41 73.46 48.32 73.52 48.23 73.58 48.14 73.65 48.05 73.72 47.97 73.8 47.89 73.89 47.8 73.96 47.73 74.06L47.62 74.2 47.52 74.35C47.45 74.45 47.4 74.55 47.35 74.64 47.31 74.74 47.25 74.84 47.22 74.93 47.18 75.03 47.15 75.12 47.12 75.2 47.06 75.37 47.02 75.52 47 75.63 46.98 75.74 46.97 75.8 46.97 75.8Z" fill="url(#SVGID_36_)"/><g><radialGradient cx="59.5059" cy="82.9881" r="9.056" gradientUnits="userSpaceOnUse" id="SVGID_37_"><stop offset="0.2033" stop-color="#6B6B6A"/><stop offset="1" stop-color="#1B1A0E"/></radialGradient><radialGradient cx="56.0043" cy="70.9729" r="22.0076" gradientUnits="userSpaceOnUse" id="SVGID_38_"><stop offset="0.2033" stop-color="#6B6B6A"/><stop offset="1" stop-color="#1B1A0E"/></radialGradient><path d="M50.18 79.51C50.38 79.81 56.52 79.05 58.85 74.29 53.01 75.24 50.18 79.51 50.18 79.51Z" fill="url(#SVGID_37_)"/><path d="M37.02 68.67C36.94 69.84 36.81 72.09 36.79 75.37 36.76 80.39 37.1 81.54 37.1 81.54 37.1 81.54 43.12 82.75 46.97 80.98 46.97 80.98 46.84 77.17 46.97 75.79 47.1 74.41 47.53 74.25 47.53 74.25 47.53 74.25 49.99 79.21 50.19 79.5 50.19 79.5 53.01 75.23 58.86 74.28 58.86 74.28 54.88 68.68 54.2 67.7 47.9 72.25 39.17 69.47 37.02 68.67Z" fill="url(#SVGID_38_)"/></g><path d="M44.5 95.04C44.5 95.04 45.67 94.7 45.67 94.26 44.38 89.69 43.78 84.14 43.57 81.85 42.14 82 40.71 81.96 39.56 81.87 39.77 86.68 41.73 93.83 41.73 93.83 41.73 93.83 43.68 93.07 44.5 95.04Z" fill="url(#SVGID_39_)"/><path d="M62.07 87.98C62.07 87.98 59.78 80 55.94 75.1 54.39 75.73 53.15 76.56 52.23 77.34 53.6 79.04 57.18 83.88 59.69 90.45 59.69 90.45 60.3 90.12 60.76 89.99 60.76 89.99 60.45 88.26 62.07 87.98Z" fill="url(#SVGID_40_)"/><g><radialGradient cx="39.8093" cy="95.1794" r="6.8456" gradientUnits="userSpaceOnUse" id="SVGID_41_"><stop offset="0" stop-color="#FF0024"/><stop offset="0.2065" stop-color="#F90024"/><stop offset="0.4691" stop-color="#EA0025"/><stop offset="0.7609" stop-color="#D00025"/><stop offset="1" stop-color="#B50026"/></radialGradient><radialGradient cx="36.2633" cy="99.8186" r="6.1193" gradientUnits="userSpaceOnUse" id="SVGID_42_"><stop offset="0" stop-color="#FF0024"/><stop offset="0.2065" stop-color="#F90024"/><stop offset="0.4691" stop-color="#EA0025"/><stop offset="0.7609" stop-color="#D00025"/><stop offset="1" stop-color="#B50026"/></radialGradient><path d="M42.52 99.36C45.19 98.78 46.43 97.78 47 96.98 47.02 94.52 45.67 94.27 45.67 94.27 45.67 94.71 44.5 95.05 44.5 95.05 43.68 93.08 41.73 93.84 41.73 93.84 40.46 94.28 40.76 95.24 39.1 95.76 36.76 96.5 35.64 97.04 35.52 98.75 36.34 99.65 39 100.12 42.52 99.36Z" fill="url(#SVGID_41_)"/><path d="M42.52 99.36C38.99 100.13 36.34 99.65 35.53 98.74 35.52 98.81 35.52 98.87 35.52 98.94 35.48 100.82 37.75 100.56 41.6 100.34 45.45 100.12 46.96 97.71 46.96 97.71 46.99 97.44 47 97.19 47 96.97 46.43 97.78 45.19 98.78 42.52 99.36Z" fill="url(#SVGID_42_)"/></g><g><radialGradient cx="64.279" cy="86.9055" r="6.9659" gradientUnits="userSpaceOnUse" id="SVGID_43_"><stop offset="0" stop-color="#FF0024"/><stop offset="0.2065" stop-color="#F90024"/><stop offset="0.4691" stop-color="#EA0025"/><stop offset="0.7609" stop-color="#D00025"/><stop offset="1" stop-color="#B50026"/></radialGradient><radialGradient cx="74.9148" cy="88.7879" r="11.3386" gradientUnits="userSpaceOnUse" id="SVGID_44_"><stop offset="0" stop-color="#FF0024"/><stop offset="0.2065" stop-color="#F90024"/><stop offset="0.4691" stop-color="#EA0025"/><stop offset="0.7609" stop-color="#D00025"/><stop offset="1" stop-color="#B50026"/></radialGradient><radialGradient cx="72.2012" cy="102.534" r="11.8809" gradientUnits="userSpaceOnUse" id="SVGID_45_"><stop offset="0" stop-color="#FF0024"/><stop offset="0.2065" stop-color="#F90024"/><stop offset="0.4691" stop-color="#EA0025"/><stop offset="0.7609" stop-color="#D00025"/><stop offset="1" stop-color="#B50026"/></radialGradient><path d="M71.05 87.4C70.64 86.76 69.67 86.52 68.37 86.79 65.71 87.35 64.36 88.4 63.77 88.23 63.18 88.07 62.06 87.97 62.06 87.97 60.44 88.26 60.75 89.98 60.75 89.98 60.29 90.11 59.68 90.44 59.68 90.44 59.68 90.44 58.84 91.38 59.68 93.19 59.86 93.58 60.01 93.89 60.14 94.14 60.56 93.94 61.06 93.59 61.64 92.99 63.37 91.24 68.43 86.15 71.05 87.4Z" fill="url(#SVGID_43_)"/><path d="M61.65 92.99C61.06 93.59 60.56 93.94 60.15 94.14 60.38 94.57 60.56 94.81 60.76 94.92 61.15 94.33 62.04 93.55 63.3 92.61 65.92 90.65 69.08 86.6 71.27 88.06 71.25 87.81 71.18 87.59 71.06 87.4 68.43 86.15 63.37 91.24 61.65 92.99Z" fill="url(#SVGID_44_)"/><path d="M63.29 92.62C62.03 93.56 61.14 94.33 60.75 94.93 60.95 95.05 61.16 95.06 61.47 95.04 62.26 95.01 68 93.3 70.17 90.58 70.97 89.57 71.29 88.72 71.25 88.07 69.07 86.61 65.92 90.66 63.29 92.62Z" fill="url(#SVGID_45_)"/></g><g><radialGradient cx="71.4134" cy="49.8739" r="16.1947" gradientUnits="userSpaceOnUse" id="SVGID_46_"><stop offset="0" stop-color="#F4CBBF"/><stop offset="0.541" stop-color="#E8BBAA"/><stop offset="0.6253" stop-color="#E6B8A6"/><stop offset="0.7233" stop-color="#E4B2A0"/><stop offset="0.856" stop-color="#DEA18F"/><stop offset="1" stop-color="#D48774"/></radialGradient><path d="M64.73 45.93C64.73 45.93 64.07 49.83 62.17 50.06 60.26 50.29 56.43 49.58 56.43 49.58 56.17 49.82 55.44 50.63 55.24 52.26 55.18 52.78 55.18 53.21 55.21 53.57 57.51 53.76 61.92 53.92 64.24 52.63 67.46 50.82 67.2 45.24 67.2 45.24 67.2 45.24 66.5 46.23 64.73 45.93Z" fill="url(#SVGID_46_)"/></g><g><g><g><path d="M17.52 95.9C17.52 95.9 17.37 96.24 17.09 96.72 16.95 96.96 16.77 97.23 16.58 97.53 16.48 97.67 16.38 97.82 16.27 97.97 16.16 98.12 16.05 98.27 15.93 98.41 15.81 98.55 15.69 98.7 15.58 98.84 15.46 98.98 15.34 99.12 15.22 99.24 15.1 99.37 14.98 99.49 14.87 99.6 14.76 99.71 14.65 99.82 14.54 99.91 14.33 100.09 14.15 100.24 14.02 100.34 13.89 100.44 13.82 100.5 13.82 100.5 13.82 100.5 13.88 100.43 13.99 100.3 14.1 100.18 14.25 100 14.43 99.8 14.62 99.6 14.81 99.34 15.04 99.08 15.16 98.95 15.26 98.81 15.38 98.67 15.49 98.53 15.61 98.38 15.72 98.24 15.84 98.1 15.95 97.95 16.06 97.81 16.17 97.67 16.28 97.53 16.39 97.39 16.6 97.11 16.79 96.86 16.96 96.64 17.29 96.2 17.52 95.9 17.52 95.9Z" fill="#7A4315"/></g></g><g><g><path d="M8.05 104.76C8.05 104.76 8.19 104.71 8.44 104.61 8.56 104.56 8.71 104.51 8.88 104.43 9.05 104.35 9.24 104.27 9.45 104.18 9.66 104.1 9.88 103.98 10.11 103.87 10.34 103.75 10.59 103.65 10.84 103.51 11.09 103.38 11.35 103.25 11.61 103.11 11.88 102.98 12.14 102.83 12.4 102.67 12.66 102.52 12.92 102.37 13.18 102.22 13.44 102.08 13.68 101.9 13.91 101.75 14.15 101.6 14.38 101.45 14.6 101.31 14.82 101.18 15.02 101.03 15.2 100.89 15.56 100.62 15.87 100.4 16.08 100.24 16.3 100.09 16.42 100 16.42 100 16.42 100 16.31 100.1 16.11 100.28 15.91 100.45 15.63 100.71 15.28 101.01 15.11 101.16 14.92 101.32 14.71 101.47 14.5 101.62 14.27 101.78 14.04 101.95 13.92 102.03 13.81 102.12 13.68 102.2 13.56 102.29 13.44 102.37 13.31 102.44 13.05 102.59 12.79 102.75 12.53 102.9 12.27 103.06 12 103.21 11.73 103.34 11.46 103.47 11.19 103.6 10.94 103.72 10.69 103.85 10.42 103.94 10.18 104.04 9.94 104.14 9.71 104.24 9.5 104.31 9.29 104.39 9.09 104.45 8.91 104.51 8.74 104.57 8.58 104.61 8.45 104.65 8.2 104.73 8.05 104.76 8.05 104.76Z" fill="#7A4315"/></g></g><g><g><path d="M9.25 105.2C9.25 105.2 9.41 105.16 9.7 105.08 9.98 105 10.38 104.87 10.86 104.72 11.1 104.64 11.35 104.55 11.62 104.45 11.89 104.35 12.17 104.24 12.47 104.13 12.76 104.01 13.06 103.89 13.36 103.75 13.66 103.62 13.97 103.48 14.26 103.33L14.71 103.11C14.86 103.03 15 102.95 15.15 102.88 15.44 102.73 15.72 102.57 15.99 102.41 16.26 102.26 16.52 102.09 16.76 101.94 16.88 101.86 17 101.79 17.11 101.72 17.22 101.64 17.33 101.57 17.43 101.5 17.64 101.36 17.82 101.22 17.99 101.11 18.15 100.98 18.29 100.88 18.41 100.79 18.64 100.61 18.78 100.51 18.78 100.51 18.78 100.51 18.66 100.63 18.44 100.83 18.33 100.93 18.2 101.05 18.05 101.19 17.89 101.32 17.71 101.47 17.51 101.62 17.41 101.7 17.31 101.78 17.2 101.87 17.09 101.95 16.97 102.03 16.86 102.11 16.63 102.28 16.38 102.46 16.1 102.62 15.83 102.79 15.56 102.96 15.26 103.12 15.11 103.2 14.97 103.28 14.82 103.36L14.37 103.59C14.07 103.74 13.76 103.87 13.45 104.01 13.15 104.15 12.84 104.25 12.54 104.37 11.94 104.58 11.38 104.76 10.89 104.89 10.4 105.02 9.99 105.1 9.7 105.16 9.42 105.18 9.25 105.2 9.25 105.2Z" fill="#7A4315"/></g></g><g><g><path d="M14.14 105.27C14.14 105.27 14.26 105.23 14.46 105.15 14.66 105.08 14.95 104.96 15.3 104.83 15.65 104.71 16.05 104.53 16.48 104.37 16.69 104.28 16.91 104.19 17.14 104.09 17.36 104 17.6 103.91 17.82 103.8 18.05 103.7 18.27 103.6 18.49 103.5 18.6 103.45 18.71 103.4 18.82 103.36 18.93 103.31 19.03 103.26 19.14 103.21 19.55 103 19.96 102.84 20.28 102.66 20.61 102.48 20.89 102.35 21.08 102.25 21.28 102.16 21.39 102.1 21.39 102.1 21.39 102.1 21.29 102.17 21.11 102.29 20.93 102.41 20.68 102.59 20.36 102.79 20.2 102.89 20.03 102.99 19.84 103.09 19.65 103.19 19.46 103.3 19.25 103.41 19.04 103.52 18.83 103.63 18.61 103.73 18.39 103.83 18.16 103.93 17.93 104.04 17.7 104.15 17.47 104.23 17.24 104.32 17.01 104.41 16.78 104.49 16.57 104.58 16.13 104.73 15.72 104.87 15.36 104.97 15 105.08 14.7 105.15 14.49 105.2 14.27 105.25 14.14 105.27 14.14 105.27Z" fill="#7A4315"/></g></g><g><g><path d="M12.84 107.1C12.84 107.1 12.96 107.06 13.15 106.98 13.35 106.91 13.62 106.78 13.96 106.64 14.13 106.57 14.31 106.49 14.5 106.4 14.69 106.32 14.89 106.22 15.09 106.12 15.29 106.02 15.51 105.92 15.72 105.82 15.93 105.71 16.15 105.6 16.36 105.49 16.58 105.38 16.8 105.28 17 105.16 17.21 105.05 17.42 104.94 17.62 104.83 17.82 104.72 18.02 104.62 18.2 104.53 18.38 104.43 18.55 104.33 18.71 104.24 19.02 104.06 19.3 103.92 19.49 103.82 19.68 103.72 19.79 103.67 19.79 103.67 19.79 103.67 19.69 103.74 19.52 103.87 19.34 103.99 19.1 104.17 18.79 104.37 18.64 104.47 18.47 104.58 18.3 104.7 18.12 104.81 17.93 104.92 17.73 105.04 17.53 105.15 17.33 105.27 17.12 105.39 16.91 105.51 16.69 105.61 16.47 105.72 16.25 105.83 16.03 105.94 15.82 106.04 15.6 106.14 15.38 106.23 15.17 106.32 14.75 106.51 14.34 106.63 14 106.76 13.65 106.87 13.36 106.96 13.15 107.01 12.96 107.08 12.84 107.1 12.84 107.1Z" fill="#7A4315"/></g></g><g><g><path d="M13.23 95.9C13.23 95.9 13.29 95.82 13.42 95.69 13.54 95.56 13.71 95.36 13.93 95.15 14.15 94.93 14.4 94.68 14.69 94.42 14.97 94.15 15.29 93.89 15.6 93.62 15.92 93.36 16.25 93.11 16.55 92.88 16.7 92.76 16.86 92.67 17.01 92.57 17.16 92.47 17.3 92.38 17.43 92.3 17.56 92.22 17.69 92.16 17.8 92.1 17.91 92.04 18.01 91.99 18.09 91.95 18.25 91.87 18.35 91.83 18.35 91.83 18.35 91.83 18.26 91.9 18.11 92 18.04 92.05 17.95 92.11 17.85 92.18 17.75 92.25 17.63 92.33 17.51 92.42 17.27 92.61 16.98 92.82 16.68 93.06 16.39 93.31 16.06 93.55 15.75 93.82 15.12 94.34 14.49 94.86 14.02 95.26 13.55 95.64 13.23 95.9 13.23 95.9Z" fill="#7A4315"/></g></g></g><path d="M40.01 62.12C37.44 57.13 40.3 50.05 41.47 47.53 41.44 47.52 41.42 47.52 41.4 47.51 41.4 47.51 35.85 52.23 36.53 68.47 36.53 68.47 47.17 73 54.39 67.55 54.39 67.55 54.39 66.94 54.32 65.94 50.4 68.11 43.85 69.6 40.01 62.12Z" fill="url(#SVGID_47_)" opacity="0.5"/><g><linearGradient x1="51.8697" y1="56.0178" x2="54.1022" y2="57.7907" gradientUnits="userSpaceOnUse" id="SVGID_48_"><stop offset="0" stop-color="#965F17"/><stop offset="1" stop-color="#724320"/></linearGradient><linearGradient x1="15.6328" y1="84.3433" x2="29.018" y2="98.7637" gradientUnits="userSpaceOnUse" id="SVGID_49_"><stop offset="0" stop-color="#E6A000"/><stop offset="1" stop-color="#965710"/></linearGradient><linearGradient x1="16.3431" y1="84.7741" x2="29.2119" y2="98.6384" gradientUnits="userSpaceOnUse" id="SVGID_50_"><stop offset="0" stop-color="#E6A000"/><stop offset="1" stop-color="#965710"/></linearGradient><linearGradient x1="26.368" y1="75.4598" x2="39.2466" y2="89.3346" gradientUnits="userSpaceOnUse" id="SVGID_51_"><stop offset="0" stop-color="#E6A000"/><stop offset="1" stop-color="#965710"/></linearGradient><path d="M31.54 85.32C31.28 85.32 31.02 85.23 30.8 85.06 30.29 84.65 30.21 83.91 30.62 83.4L74.08 29.38C74.49 28.87 75.23 28.79 75.74 29.2 76.25 29.61 76.33 30.35 75.92 30.86L32.46 84.88C32.23 85.17 31.88 85.32 31.54 85.32Z" fill="url(#SVGID_48_)"/><path d="M29.57 82.78 32.98 76.14C33.11 75.87 33.74 76.1 33.7 76.33 33.67 76.56 30.83 82.06 30.83 82.06 30.83 82.06 33.51 77.58 34.57 76.4 34.72 76.24 35.34 76.51 35.24 76.94 35.14 77.37 32.01 81.96 32.01 81.96 32.01 81.96 34.77 78.1 35.98 77.06 36.21 76.86 36.9 77.6 36.78 77.93 36.66 78.26 32.43 83.49 32.43 83.49 32.43 83.49 36.84 78.72 37.47 78.43 37.68 78.33 38.29 78.97 38.16 79.33 38.03 79.69 33.27 84.42 33.27 84.42 33.27 84.42 38.3 80 38.5 79.87 38.7 79.74 38.96 80.41 38.79 80.79 38.63 81.17 33.59 85.68 33.59 85.68L31.47 88.44C31.47 88.44 31.7 93.53 29.17 96.71 26.64 99.9 26.02 101.37 26.25 102.75 26.25 102.75 25.73 102.85 25.1 102.39 25.1 102.39 25.35 100.72 26.27 98.91 26.27 98.91 23.96 103.64 19.95 105.67 15.94 107.7 13.97 108.26 13.48 106.89 13.48 106.89 12.4 107.48 11.35 106.82 10.3 106.16 13.06 106.59 16.31 104.46 16.31 104.46 13.64 105.97 9.77 105.64 9 105.57 10.03 105.09 10.03 105.09 10.03 105.09 6.9 105.64 8.43 104.72L7.84 104.78C7.84 104.78 7.39 104.6 7.28 104.29 7.16 103.98 12.43 103.13 15.6 98.4 15.6 98.4 12.44 102.08 6.51 103.83 6.07 103.96 5.62 103.21 5.85 103.13 6.08 103.05 11.32 100.75 13.88 97.27 13.88 97.27 10.53 100.96 6.51 102.49 6.51 102.49 5.64 102.36 5.79 102.1 5.93 101.84 8.34 101.16 11.06 98.18 13.77 95.2 14.89 94.44 14.89 94.44 14.89 94.44 12.5 95.73 12.33 95.84 12.15 95.95 11.48 95.14 11.87 94.92 12.26 94.7 13.91 94.52 17.06 91.26 20.21 88 22.29 85.71 27.25 85.52L29.57 82.78Z" fill="url(#SVGID_49_)"/><g><g><g><path d="M27.55 85.8C27.55 85.8 27.44 85.84 27.26 85.92 27.08 86 26.82 86.12 26.52 86.27 26.22 86.42 25.87 86.61 25.51 86.82 25.33 86.92 25.14 87.04 24.96 87.16 24.77 87.28 24.59 87.41 24.4 87.53 24.21 87.65 24.03 87.79 23.85 87.92 23.67 88.05 23.5 88.19 23.34 88.32 23.18 88.45 23.02 88.58 22.87 88.71 22.72 88.83 22.59 88.96 22.46 89.07 22.34 89.19 22.22 89.28 22.12 89.38 22.02 89.48 21.94 89.56 21.86 89.63 21.72 89.77 21.63 89.84 21.63 89.84 21.63 89.84 21.7 89.75 21.82 89.59 21.88 89.51 21.96 89.42 22.04 89.31 22.12 89.2 22.23 89.09 22.35 88.96 22.47 88.84 22.59 88.7 22.73 88.56 22.87 88.43 23.02 88.27 23.18 88.14 23.34 88 23.51 87.85 23.69 87.72 23.87 87.59 24.05 87.44 24.24 87.31 24.43 87.18 24.62 87.05 24.81 86.94 25 86.82 25.2 86.72 25.38 86.62 25.57 86.51 25.76 86.43 25.93 86.35 26.11 86.27 26.28 86.2 26.44 86.14 26.76 86.01 27.03 85.93 27.22 85.88 27.44 85.82 27.55 85.8 27.55 85.8Z" fill="#7A4315"/></g></g><g><g><path d="M28.26 86.44C28.26 86.44 28.16 86.5 28.01 86.6 27.93 86.65 27.83 86.71 27.73 86.79 27.62 86.87 27.5 86.96 27.37 87.05 27.24 87.15 27.1 87.26 26.96 87.37 26.81 87.48 26.66 87.61 26.52 87.75 26.37 87.88 26.21 88.02 26.05 88.16 25.89 88.3 25.75 88.46 25.59 88.61 25.44 88.76 25.29 88.91 25.14 89.07 25 89.23 24.86 89.39 24.73 89.54 24.6 89.69 24.47 89.84 24.34 89.97 24.21 90.11 24.12 90.26 24.02 90.38 23.82 90.64 23.65 90.85 23.53 91 23.41 91.15 23.34 91.23 23.34 91.23 23.34 91.23 23.39 91.13 23.49 90.97 23.59 90.81 23.72 90.57 23.9 90.29 23.99 90.15 24.07 90 24.19 89.85 24.3 89.7 24.42 89.54 24.55 89.38 24.68 89.22 24.81 89.06 24.95 88.89 25.1 88.74 25.25 88.58 25.41 88.42 25.57 88.27 25.71 88.11 25.88 87.96 26.05 87.82 26.21 87.69 26.37 87.56 26.45 87.5 26.53 87.43 26.61 87.37 26.69 87.31 26.77 87.26 26.85 87.21 27.01 87.11 27.15 87 27.29 86.92 27.58 86.76 27.82 86.63 27.99 86.55 28.15 86.47 28.26 86.44 28.26 86.44Z" fill="#7A4315"/></g></g><g><g><path d="M29.43 87.52C29.43 87.52 29.29 87.82 29.03 88.25 28.9 88.47 28.74 88.71 28.56 88.97 28.37 89.22 28.18 89.49 27.97 89.75 27.86 89.88 27.76 90.01 27.65 90.13 27.55 90.26 27.44 90.37 27.33 90.49 27.11 90.72 26.91 90.93 26.73 91.1 26.54 91.27 26.38 91.4 26.27 91.5 26.16 91.59 26.09 91.64 26.09 91.64 26.09 91.64 26.14 91.57 26.23 91.46 26.33 91.35 26.45 91.18 26.62 91 26.78 90.81 26.96 90.58 27.16 90.35 27.26 90.23 27.36 90.11 27.46 89.98 27.56 89.85 27.67 89.73 27.77 89.6 27.98 89.35 28.18 89.08 28.38 88.84 28.57 88.59 28.76 88.37 28.91 88.18 29.22 87.77 29.43 87.52 29.43 87.52Z" fill="#7A4315"/></g></g><g><g><path d="M30.45 88.44C30.45 88.44 30.35 88.72 30.14 89.13 30.09 89.23 30.03 89.34 29.97 89.45 29.91 89.56 29.85 89.69 29.77 89.8 29.62 90.04 29.46 90.29 29.29 90.54 29.21 90.67 29.12 90.79 29.04 90.91 28.96 91.03 28.86 91.14 28.77 91.25 28.59 91.47 28.42 91.67 28.27 91.84 28.12 92.01 27.99 92.14 27.9 92.24 27.81 92.34 27.76 92.39 27.76 92.39 27.76 92.39 27.8 92.32 27.86 92.21 27.93 92.1 28.02 91.94 28.15 91.75 28.27 91.56 28.42 91.35 28.58 91.12 28.75 90.9 28.91 90.65 29.07 90.4 29.24 90.15 29.4 89.91 29.57 89.68 29.73 89.45 29.87 89.23 30 89.05 30.13 88.87 30.24 88.72 30.32 88.61 30.4 88.5 30.45 88.44 30.45 88.44Z" fill="#7A4315"/></g></g><g><g><path d="M30.95 88.91C30.95 88.91 30.97 89.03 30.98 89.24 30.98 89.35 30.98 89.48 30.97 89.62 30.97 89.77 30.94 89.94 30.92 90.12 30.89 90.3 30.86 90.5 30.8 90.7 30.76 90.91 30.69 91.12 30.61 91.33 30.54 91.55 30.44 91.77 30.35 91.99 30.24 92.2 30.14 92.43 30.02 92.64 29.89 92.85 29.78 93.07 29.64 93.27 29.51 93.47 29.38 93.67 29.24 93.85 29.1 94.03 28.96 94.2 28.83 94.36 28.69 94.51 28.55 94.66 28.43 94.8 28.31 94.94 28.19 95.05 28.08 95.15 27.97 95.25 27.88 95.34 27.8 95.41 27.64 95.55 27.55 95.63 27.55 95.63 27.55 95.63 27.63 95.54 27.76 95.37 27.83 95.29 27.91 95.19 28.01 95.08 28.11 94.97 28.21 94.84 28.32 94.7 28.43 94.56 28.55 94.41 28.68 94.24 28.8 94.07 28.92 93.89 29.05 93.71 29.18 93.53 29.3 93.33 29.43 93.13 29.56 92.93 29.67 92.72 29.79 92.51 29.91 92.3 30.01 92.08 30.12 91.88 30.21 91.66 30.32 91.46 30.39 91.25 30.47 91.04 30.55 90.84 30.61 90.64 30.68 90.44 30.72 90.26 30.77 90.08 30.81 89.9 30.85 89.74 30.87 89.6 30.9 89.46 30.91 89.33 30.93 89.22 30.95 89.03 30.95 88.91 30.95 88.91Z" fill="#7A4315"/></g></g></g><path d="M36 82.75C35.19 83.43 34.47 84.38 33.56 84.92 33.28 85.08 33 84.71 33.22 84.48 33.25 84.45 33.28 84.42 33.32 84.39 33.3 84.41 33.28 84.42 33.28 84.42 33.28 84.42 38.04 79.69 38.17 79.33 38.24 79.13 38.09 78.84 37.89 78.64 36.64 79.32 36.08 80.55 35.19 81.59 34.81 82.03 34.32 82.32 33.96 82.77 33.62 83.19 33.31 83.58 32.82 83.83 32.5 83.99 32.21 83.51 32.53 83.35 32.55 83.34 32.56 83.33 32.58 83.32 33.3 82.42 36.69 78.22 36.79 77.93 36.86 77.74 36.64 77.4 36.41 77.2 35.04 78.9 33.89 80.76 32.44 82.39 32.2 82.66 31.8 82.26 32.04 81.99 32.49 81.48 32.85 80.92 33.21 80.35 32.53 81.25 32.02 81.96 32.02 81.96 32.02 81.96 35.16 77.37 35.25 76.94 35.3 76.71 35.15 76.53 34.97 76.43 34.35 77.65 33.45 78.73 32.75 79.9 32.3 80.64 32.01 81.98 31.24 82.43 31.04 82.55 30.73 82.35 30.83 82.11 30.85 82.05 30.88 81.99 30.91 81.93 30.86 82.01 30.83 82.06 30.83 82.06 30.83 82.06 30.89 81.95 30.98 81.76 31.14 81.41 31.31 81.07 31.51 80.73 31.51 80.73 31.51 80.73 31.52 80.72 32.36 79.08 33.68 76.48 33.71 76.33 33.73 76.21 33.56 76.09 33.38 76.04 32.57 78.36 30.87 80.3 30.02 82.61 29.98 82.72 29.88 82.83 29.75 82.82 29.74 82.82 29.73 82.82 29.73 82.82 29.67 82.81 29.63 82.79 29.59 82.76L29.58 82.78 27.25 85.52C24.53 85.63 22.67 86.37 21.03 87.56 21.55 87.3 22.36 86.93 22.99 86.82 23.97 86.64 22 88.75 21.05 90.06 20.1 91.37 22.95 89.24 24 88.29 25.05 87.34 22.95 91.43 22.98 91.65 23.01 91.87 25.31 89.11 26.39 88.73 27.47 88.35 25.47 92.41 25.47 92.41 25.47 92.41 26.92 91.49 27.77 90.46 28.62 89.43 28.59 91.01 27.31 92.85 27.31 92.85 28.35 92.39 29.11 91.47 29.87 90.55 28.53 93.8 27.21 96.1 24.88 100.17 20.8 103.59 22.31 101.09 22.31 101.09 21.3 101.81 18.35 102.99 15.39 104.17 17.23 101.91 19.14 100.17 19.14 100.17 15.63 102.37 13.46 103.32 11.29 104.27 17.17 99.31 17.17 99.31 17.17 99.31 10.4 103.42 7.36 104.43 7.53 104.66 7.85 104.79 7.85 104.79L8.44 104.73C6.91 105.65 10.04 105.1 10.04 105.1 10.04 105.1 9.01 105.58 9.78 105.65 13.66 105.98 16.32 104.47 16.32 104.47 13.07 106.6 10.31 106.18 11.36 106.83 12.41 107.49 13.49 106.9 13.49 106.9 13.98 108.28 15.95 107.72 19.96 105.68 23.97 103.64 26.28 98.92 26.28 98.92 25.36 100.73 25.11 102.4 25.11 102.4 25.74 102.86 26.26 102.76 26.26 102.76 26.03 101.38 26.66 99.9 29.18 96.72 31.71 93.54 31.48 88.45 31.48 88.45L33.6 85.69C33.6 85.69 38.64 81.18 38.8 80.8 38.89 80.59 38.85 80.28 38.76 80.07 37.9 81.04 37 81.91 36 82.75Z" fill="url(#SVGID_50_)" opacity="0.6"/><path d="M33.63 82.21C33.19 82.67 32.83 83.06 32.63 83.28 33.07 83.02 33.32 82.6 33.64 82.23 33.63 82.22 33.63 82.22 33.63 82.21Z" fill="url(#SVGID_51_)" opacity="0.6"/><g><linearGradient x1="30.0712" y1="86.3085" x2="29.2342" y2="87.3752" gradientUnits="userSpaceOnUse" id="SVGID_52_"><stop offset="0" stop-color="#965F17"/><stop offset="1" stop-color="#724320"/></linearGradient><linearGradient x1="30.5856" y1="85.3913" x2="29.9945" y2="86.3437" gradientUnits="userSpaceOnUse" id="SVGID_53_"><stop offset="0" stop-color="#965F17"/><stop offset="1" stop-color="#724320"/></linearGradient><linearGradient x1="31.5533" y1="84.0017" x2="30.6347" y2="85.1007" gradientUnits="userSpaceOnUse" id="SVGID_54_"><stop offset="0" stop-color="#965F17"/><stop offset="1" stop-color="#724320"/></linearGradient><path d="M27.23 85.52C27.86 86.08 31.32 89.25 31.32 89.25 31.32 89.25 31.68 89.6 32.08 88.9 32.47 88.2 32.1 88.05 32.1 88.05 29.65 85.98 27.53 84.61 27.53 84.61 27.53 84.61 26.61 84.96 27.23 85.52Z" fill="url(#SVGID_52_)"/><path d="M32.89 87.67C33.12 87.39 33.05 87.15 33 87.04 31.57 85.64 28.28 83.51 28.28 83.51 27.58 83.77 27.54 84.6 27.54 84.6 27.54 84.6 29.66 85.97 32.11 88.04 32.11 88.04 32.57 88.07 32.89 87.67Z" fill="url(#SVGID_53_)"/><path d="M32.95 86.96C32.95 86.96 33.87 86.86 33.77 86.17 33.67 85.48 29.18 82.14 28.88 82.26 28.06 82.59 28.28 83.51 28.28 83.51 28.28 83.51 31.57 85.64 33 87.04 32.97 86.99 32.95 86.96 32.95 86.96Z" fill="url(#SVGID_54_)"/></g></g><g><radialGradient cx="47.6013" cy="51.8869" r="15.6295" gradientUnits="userSpaceOnUse" id="SVGID_55_"><stop offset="0" stop-color="#F4CBBF"/><stop offset="0.541" stop-color="#E8BBAA"/><stop offset="0.6253" stop-color="#E6B8A6"/><stop offset="0.7233" stop-color="#E4B2A0"/><stop offset="0.856" stop-color="#DEA18F"/><stop offset="1" stop-color="#D48774"/></radialGradient><radialGradient cx="50.2911" cy="62.087" r="1.2843" gradientUnits="userSpaceOnUse" id="SVGID_56_"><stop offset="0" stop-color="#E6B8A6"/><stop offset="0.2614" stop-color="#E4B2A0"/><stop offset="0.6157" stop-color="#DEA18F"/><stop offset="1" stop-color="#D48774"/></radialGradient><radialGradient cx="51.2038" cy="61.1393" r="1.3082" gradientUnits="userSpaceOnUse" id="SVGID_57_"><stop offset="0" stop-color="#E6B8A6"/><stop offset="0.2614" stop-color="#E4B2A0"/><stop offset="0.6157" stop-color="#DEA18F"/><stop offset="1" stop-color="#D48774"/></radialGradient><radialGradient cx="51.4938" cy="58.9832" r="0.756" gradientUnits="userSpaceOnUse" id="SVGID_58_"><stop offset="0" stop-color="#E6B8A6"/><stop offset="0.2614" stop-color="#E4B2A0"/><stop offset="0.6157" stop-color="#DEA18F"/><stop offset="1" stop-color="#D48774"/></radialGradient><path d="M52.99 57.75C51.38 56.56 47.2 55.58 45.14 59.68 44.97 60.01 40.74 61.29 38.29 60.71 36.41 60.27 36.26 58.46 36.52 57.07 35.16 55.69 33.66 55.72 32.79 55.92 32.58 57.53 32.44 60.34 33.82 61.6 35.82 63.42 41.21 64.5 45.7 62.01 45.7 62.01 45.86 63.13 47.34 62.83 48.82 62.54 49.64 62.34 50.13 63.29 50.62 64.24 51.08 63.95 51.25 63.13 51.25 63.13 52.07 63.38 52.05 61.98 52.05 61.98 52.52 61.68 52.48 60.6 52.43 59.52 51.72 58.93 51.72 58.93 51.72 58.93 52.34 59.16 53.05 59.7 53.78 60.24 54.6 58.94 52.99 57.75Z" fill="url(#SVGID_55_)"/><path d="M49.22 60.77C49.22 60.77 49.24 60.77 49.26 60.76 49.29 60.75 49.33 60.74 49.38 60.74 49.49 60.73 49.65 60.75 49.83 60.8 49.92 60.83 50.02 60.86 50.12 60.91 50.22 60.95 50.32 61.01 50.42 61.07 50.52 61.13 50.62 61.21 50.71 61.29 50.8 61.38 50.89 61.47 50.97 61.57 51.05 61.67 51.1 61.79 51.17 61.9 51.21 62.02 51.27 62.13 51.29 62.25 51.32 62.37 51.34 62.48 51.33 62.59 51.33 62.7 51.34 62.8 51.32 62.9 51.31 62.99 51.29 63.08 51.28 63.15 51.26 63.22 51.24 63.28 51.22 63.33 51.18 63.43 51.16 63.49 51.16 63.49 51.16 63.49 51.16 63.43 51.17 63.32 51.17 63.27 51.18 63.2 51.18 63.13 51.18 63.06 51.18 62.98 51.17 62.89 51.18 62.8 51.15 62.71 51.14 62.61 51.13 62.51 51.09 62.41 51.07 62.31 51.05 62.2 50.98 62.11 50.95 62.01 50.89 61.92 50.84 61.81 50.77 61.73 50.71 61.64 50.63 61.55 50.55 61.47 50.47 61.39 50.39 61.31 50.3 61.25 50.21 61.19 50.13 61.12 50.04 61.07 49.96 61.01 49.87 60.98 49.79 60.93 49.71 60.9 49.64 60.86 49.57 60.84 49.5 60.81 49.44 60.79 49.39 60.79 49.28 60.77 49.22 60.78 49.22 60.77Z" fill="url(#SVGID_56_)" opacity="0.8"/><path d="M50.24 59.7C50.24 59.7 50.3 59.69 50.41 59.68 50.46 59.68 50.53 59.69 50.61 59.7 50.68 59.72 50.77 59.74 50.86 59.78 50.95 59.82 51.04 59.86 51.13 59.93 51.23 59.99 51.31 60.07 51.4 60.15 51.48 60.24 51.57 60.32 51.64 60.43 51.72 60.53 51.78 60.64 51.84 60.75 51.89 60.86 51.95 60.98 51.99 61.1 52.03 61.22 52.06 61.34 52.09 61.45 52.12 61.56 52.12 61.68 52.13 61.79 52.14 61.9 52.13 62 52.13 62.09 52.13 62.18 52.1 62.27 52.09 62.34 52.08 62.41 52.06 62.48 52.04 62.53 52 62.63 51.98 62.69 51.98 62.69 51.98 62.69 51.98 62.63 51.99 62.52 51.99 62.47 52 62.4 51.99 62.33 51.98 62.26 51.99 62.18 51.98 62.09 51.96 62 51.96 61.91 51.94 61.81 51.92 61.71 51.9 61.61 51.87 61.5 51.84 61.39 51.8 61.29 51.76 61.18 51.72 61.07 51.67 60.97 51.62 60.87 51.56 60.77 51.51 60.67 51.44 60.58 51.38 60.48 51.31 60.4 51.24 60.31 51.16 60.24 51.1 60.15 51.02 60.09 50.95 60.02 50.87 59.97 50.8 59.92 50.73 59.87 50.66 59.84 50.59 59.8 50.52 59.78 50.47 59.75 50.42 59.74 50.3 59.71 50.24 59.7 50.24 59.7Z" fill="url(#SVGID_57_)" opacity="0.8"/><path d="M50.65 58.47C50.65 58.47 50.78 58.42 50.98 58.42 51.08 58.42 51.2 58.44 51.32 58.48 51.45 58.52 51.57 58.58 51.69 58.66 51.75 58.7 51.8 58.75 51.85 58.79 51.9 58.83 51.94 58.89 51.98 58.94 52.02 58.99 52.05 59.05 52.08 59.1 52.11 59.15 52.13 59.2 52.15 59.25 52.19 59.34 52.2 59.43 52.21 59.48 52.22 59.54 52.22 59.57 52.22 59.57 52.22 59.57 52.2 59.55 52.16 59.5 52.12 59.46 52.08 59.39 52.01 59.32 51.98 59.29 51.95 59.24 51.91 59.21 51.87 59.17 51.84 59.13 51.8 59.09 51.76 59.05 51.71 59.01 51.67 58.98 51.62 58.95 51.58 58.9 51.53 58.87 51.44 58.8 51.33 58.74 51.23 58.69 51.13 58.64 51.03 58.6 50.94 58.56 50.78 58.51 50.65 58.47 50.65 58.47Z" fill="url(#SVGID_58_)" opacity="0.8"/></g><g><radialGradient cx="71.4136" cy="49.8727" r="16.1939" gradientUnits="userSpaceOnUse" id="SVGID_59_"><stop offset="0" stop-color="#F4CBBF"/><stop offset="0.541" stop-color="#E8BBAA"/><stop offset="0.6253" stop-color="#E6B8A6"/><stop offset="0.7233" stop-color="#E4B2A0"/><stop offset="0.856" stop-color="#DEA18F"/><stop offset="1" stop-color="#D48774"/></radialGradient><path d="M67.19 45.23C67.19 45.23 68.8 42.72 68.65 40.32 68.5 37.92 66.29 37.55 65.48 37.64 64.68 37.74 64.02 39.2 64.02 39.2 64.02 39.2 63.61 39.26 63.31 39.81 63.01 40.35 63.34 40.75 63.34 40.75 62.14 40.93 62.49 41.95 62.49 41.95 60.7 42.29 61.93 44.25 62.36 43.66 62.79 43.07 63.48 43.1 63.48 44.48 63.48 45.86 64.73 45.93 64.73 45.93 66.5 46.23 67.19 45.23 67.19 45.23Z" fill="url(#SVGID_59_)"/><g><radialGradient cx="63.3722" cy="42.0026" r="1.1657" gradientUnits="userSpaceOnUse" id="SVGID_60_"><stop offset="0" stop-color="#E6B8A6"/><stop offset="0.2614" stop-color="#E4B2A0"/><stop offset="0.6157" stop-color="#DEA18F"/><stop offset="1" stop-color="#D48774"/></radialGradient><radialGradient cx="64.3793" cy="40.9352" r="1.046" gradientUnits="userSpaceOnUse" id="SVGID_61_"><stop offset="0" stop-color="#E6B8A6"/><stop offset="0.2614" stop-color="#E4B2A0"/><stop offset="0.6157" stop-color="#DEA18F"/><stop offset="1" stop-color="#D48774"/></radialGradient><radialGradient cx="65.3113" cy="39.6458" r="1.2715" gradientUnits="userSpaceOnUse" id="SVGID_62_"><stop offset="0" stop-color="#E6B8A6"/><stop offset="0.2614" stop-color="#E4B2A0"/><stop offset="0.6157" stop-color="#DEA18F"/><stop offset="1" stop-color="#D48774"/></radialGradient><path d="M61.84 42.23C61.84 42.23 61.87 42.19 61.94 42.13 62.01 42.07 62.12 42 62.25 41.92 62.32 41.89 62.4 41.86 62.48 41.82 62.56 41.78 62.65 41.76 62.75 41.74 62.85 41.72 62.95 41.7 63.05 41.68 63.15 41.68 63.26 41.67 63.36 41.67 63.46 41.68 63.57 41.66 63.67 41.68 63.77 41.69 63.87 41.72 63.96 41.73 64.06 41.75 64.15 41.77 64.23 41.79 64.31 41.82 64.39 41.85 64.46 41.88 64.75 42 64.92 42.1 64.92 42.1 64.92 42.1 64.71 42.08 64.42 42.03 64.35 42.02 64.27 42 64.18 41.98 64.1 41.97 64.01 41.97 63.91 41.96 63.82 41.95 63.72 41.94 63.63 41.93 63.54 41.91 63.44 41.93 63.34 41.93 63.24 41.93 63.15 41.93 63.05 41.93 62.96 41.94 62.86 41.95 62.77 41.96 62.68 41.97 62.59 41.98 62.51 42 62.43 42.02 62.35 42.03 62.28 42.05 62.14 42.1 62.02 42.13 61.94 42.16 61.89 42.21 61.84 42.23 61.84 42.23Z" fill="url(#SVGID_60_)" opacity="0.8"/><path d="M63 40.84C63 40.84 63.04 40.81 63.11 40.78 63.15 40.76 63.19 40.74 63.24 40.73 63.29 40.71 63.36 40.69 63.42 40.68 63.49 40.67 63.56 40.65 63.64 40.64 63.72 40.64 63.8 40.63 63.89 40.63 63.98 40.63 64.06 40.63 64.15 40.64 64.24 40.65 64.33 40.66 64.42 40.67 64.6 40.69 64.77 40.75 64.94 40.79 65.11 40.83 65.25 40.89 65.37 40.95 65.62 41.06 65.77 41.15 65.77 41.15 65.77 41.15 65.59 41.14 65.32 41.09 65.26 41.08 65.19 41.07 65.11 41.05 65.04 41.03 64.96 41.03 64.88 41.01 64.72 40.99 64.55 40.94 64.38 40.92 64.29 40.91 64.21 40.9 64.12 40.88 64.03 40.86 63.95 40.85 63.87 40.85 63.79 40.85 63.71 40.83 63.64 40.83 63.57 40.83 63.5 40.83 63.43 40.82 63.36 40.81 63.31 40.82 63.25 40.82 63.2 40.82 63.15 40.82 63.11 40.83 63.04 40.83 63 40.84 63 40.84Z" fill="url(#SVGID_61_)" opacity="0.8"/><path d="M63.7 39.37C63.7 39.37 63.74 39.33 63.82 39.28 63.86 39.25 63.92 39.22 63.98 39.2 64.04 39.17 64.12 39.14 64.2 39.13 64.28 39.11 64.38 39.1 64.47 39.09 64.57 39.08 64.67 39.08 64.78 39.09 64.99 39.1 65.22 39.15 65.43 39.22 65.64 39.29 65.85 39.38 66.03 39.48 66.21 39.58 66.37 39.69 66.51 39.79 66.64 39.89 66.74 39.99 66.82 40.05 66.89 40.12 66.93 40.16 66.93 40.16 66.93 40.16 66.88 40.14 66.79 40.1 66.7 40.06 66.58 39.99 66.44 39.92 66.37 39.89 66.29 39.85 66.2 39.81 66.12 39.77 66.03 39.73 65.94 39.69 65.85 39.65 65.75 39.61 65.66 39.57 65.56 39.53 65.46 39.49 65.36 39.46 65.26 39.42 65.16 39.39 65.06 39.37 64.96 39.34 64.86 39.33 64.76 39.31 64.57 39.28 64.38 39.27 64.23 39.28 63.9 39.28 63.7 39.37 63.7 39.37Z" fill="url(#SVGID_62_)" opacity="0.8"/></g></g></g><path d="M2.42 93.59C2.09 92.01 2.85 91.03 4.49 91.03 6.13 91.03 6.76 93.26 6.76 93.26 6.76 93.26 7.35 92.67 8.27 93.11 9.12 93.52 8.52 94.67 8.52 94.67 8.52 94.67 9.34 94.67 9.23 95.61 9.12 96.54 8.39 97.36 7.51 97.61 6.62 97.86 6.07 97.33 6.07 97.33 6.07 97.33 5.72 99.09 4.15 99.09 2.43 99.09 2.23 97.3 2.23 97.3 2.23 97.3 0.62 97.8 0.11 95.9-0.42 94 1.46 93.17 2.42 93.59Z" fill="url(#SVGID_63_)"/><path d="M3.24 108.96C3.24 108.96 2.06 107.68 3.24 106.2 4.42 104.72 6.13 106.49 6.13 106.49 6.13 106.49 6.49 105.51 7.51 105.87 8.53 106.23 8.05 107.81 8.05 107.81 8.05 107.81 9.18 106.11 11.35 107.65 13.06 108.86 11.58 110.99 11.58 110.99 11.58 110.99 12.6 112.76 10.79 113.32 8.99 113.88 8.72 111.74 8.72 111.74 8.72 111.74 8.49 112.73 6.68 112.53 4.88 112.33 5.23 110.73 5.23 110.73 5.23 110.73 3.46 113.13 1.78 112.5 0.1 111.87-0.48 107.94 3.24 108.96Z" fill="url(#SVGID_64_)"/><g><radialGradient cx="21.5639" cy="108.698" r="3.6717" gradientUnits="userSpaceOnUse" id="SVGID_65_"><stop offset="0.0127" stop-color="#29AC0C"/><stop offset="0.3167" stop-color="#219F09"/><stop offset="0.8796" stop-color="#0A7C02"/><stop offset="1" stop-color="#057400"/></radialGradient><radialGradient cx="25.1422" cy="112.632" r="3.7414" gradientUnits="userSpaceOnUse" id="SVGID_66_"><stop offset="0.0127" stop-color="#29AC0C"/><stop offset="0.3167" stop-color="#219F09"/><stop offset="0.8796" stop-color="#0A7C02"/><stop offset="1" stop-color="#057400"/></radialGradient><radialGradient cx="26.1912" cy="104.351" r="3.8478" gradientUnits="userSpaceOnUse" id="SVGID_67_"><stop offset="0.0127" stop-color="#29AC0C"/><stop offset="0.3167" stop-color="#219F09"/><stop offset="0.8796" stop-color="#0A7C02"/><stop offset="1" stop-color="#057400"/></radialGradient><radialGradient cx="29.6664" cy="108.052" r="4.4349" gradientUnits="userSpaceOnUse" id="SVGID_68_"><stop offset="0.0127" stop-color="#29AC0C"/><stop offset="0.3167" stop-color="#219F09"/><stop offset="0.8796" stop-color="#0A7C02"/><stop offset="1" stop-color="#057400"/></radialGradient><radialGradient cx="35.2491" cy="105.242" r="4.1703" gradientUnits="userSpaceOnUse" id="SVGID_69_"><stop offset="0.0127" stop-color="#29AC0C"/><stop offset="0.3167" stop-color="#219F09"/><stop offset="0.8796" stop-color="#0A7C02"/><stop offset="1" stop-color="#057400"/></radialGradient><radialGradient cx="33.6063" cy="111.025" r="4.6123" gradientUnits="userSpaceOnUse" id="SVGID_70_"><stop offset="0.0127" stop-color="#29AC0C"/><stop offset="0.3167" stop-color="#219F09"/><stop offset="0.8796" stop-color="#0A7C02"/><stop offset="1" stop-color="#057400"/></radialGradient><radialGradient cx="42.5015" cy="107.132" r="5.2046" gradientUnits="userSpaceOnUse" id="SVGID_71_"><stop offset="0.0127" stop-color="#29AC0C"/><stop offset="0.3167" stop-color="#219F09"/><stop offset="0.8796" stop-color="#0A7C02"/><stop offset="1" stop-color="#057400"/></radialGradient><radialGradient cx="39.4588" cy="113.54" r="3.6122" gradientUnits="userSpaceOnUse" id="SVGID_72_"><stop offset="0.0127" stop-color="#29AC0C"/><stop offset="0.3167" stop-color="#219F09"/><stop offset="0.8796" stop-color="#0A7C02"/><stop offset="1" stop-color="#057400"/></radialGradient><radialGradient cx="33.364" cy="116.454" r="3.4824" gradientUnits="userSpaceOnUse" id="SVGID_73_"><stop offset="0.0127" stop-color="#29AC0C"/><stop offset="0.3167" stop-color="#219F09"/><stop offset="0.8796" stop-color="#0A7C02"/><stop offset="1" stop-color="#057400"/></radialGradient><path d="M24.61 110.5C24.61 110.5 22.67 108.04 19.36 109.88 19.36 109.88 22.05 113.55 24.61 110.5Z" fill="url(#SVGID_65_)"/><path d="M23.39 115.82C23.39 115.82 24.44 113.26 28.58 112.73 28.58 112.73 27.79 116.57 23.39 115.82Z" fill="url(#SVGID_66_)"/><path d="M23.99 107.1C23.99 107.1 27.37 108.94 29.5 105.21 29.5 105.2 26.78 103.95 23.99 107.1Z" fill="url(#SVGID_67_)"/><path d="M27.46 109.51C27.46 109.51 27.69 111.58 30.55 111.25 33.41 110.92 33.83 109.35 33.83 109.35 33.83 109.35 30.49 107.02 27.46 109.51Z" fill="url(#SVGID_68_)"/><path d="M33.83 107.1C33.83 107.1 34.52 108.17 37.02 107.88 39.51 107.59 39.88 105.91 39.88 105.91 39.88 105.91 36.72 104.22 33.83 107.1Z" fill="url(#SVGID_69_)"/><path d="M31.34 113.68C31.34 113.68 32.75 115.06 35.41 113.94 38.07 112.82 37.78 110.89 37.78 110.89 37.78 110.89 33.54 109.35 31.34 113.68Z" fill="url(#SVGID_70_)"/><path d="M40.77 109.32C40.77 109.32 41.19 110.69 44.87 110.63 48.54 110.57 48.38 108.7 48.38 108.7 48.38 108.7 43.66 106.53 40.77 109.32Z" fill="url(#SVGID_71_)"/><path d="M42.3 113.55C42.3 113.55 41.61 117.69 37.57 117.36 37.58 117.36 37.74 112.96 42.3 113.55Z" fill="url(#SVGID_72_)"/><path d="M31.01 116.67C31.01 116.67 30.22 118.43 31.91 118.95 33.6 119.47 35.73 118.56 35.73 118.56 35.73 118.56 34.7 115.62 31.01 116.67Z" fill="url(#SVGID_73_)"/><g><g><g opacity="0.5"><path d="M23.99 107.1C23.99 107.1 24.08 107.07 24.23 107.02 24.38 106.97 24.6 106.9 24.87 106.83 25.13 106.75 25.44 106.67 25.78 106.59 26.1 106.48 26.45 106.38 26.8 106.28 26.98 106.24 27.14 106.15 27.3 106.09 27.46 106.02 27.63 105.96 27.79 105.9 28.11 105.78 28.4 105.64 28.65 105.54 28.9 105.43 29.12 105.35 29.27 105.29 29.42 105.23 29.51 105.2 29.51 105.2 29.51 105.2 29.43 105.25 29.3 105.33 29.16 105.41 28.97 105.53 28.73 105.66 28.61 105.73 28.48 105.8 28.34 105.87 28.2 105.94 28.06 106.03 27.9 106.09 27.74 106.16 27.58 106.24 27.41 106.3 27.24 106.37 27.08 106.46 26.9 106.5 26.54 106.6 26.19 106.7 25.85 106.78 25.51 106.85 25.2 106.9 24.93 106.95 24.66 106.99 24.43 107.02 24.27 107.04 24.08 107.09 23.99 107.1 23.99 107.1Z" fill="#044900"/></g></g><g><g opacity="0.5"><path d="M19.36 109.88C19.36 109.88 19.44 109.9 19.58 109.93 19.72 109.97 19.93 110 20.17 110.05 20.41 110.1 20.7 110.15 21.01 110.21 21.16 110.24 21.32 110.26 21.48 110.29 21.64 110.31 21.8 110.35 21.97 110.37 22.13 110.39 22.3 110.41 22.46 110.43 22.62 110.45 22.78 110.48 22.93 110.48 23.08 110.49 23.23 110.5 23.38 110.51 23.52 110.51 23.66 110.54 23.78 110.53 24.03 110.52 24.23 110.53 24.38 110.52 24.53 110.52 24.61 110.52 24.61 110.52 24.61 110.52 24.53 110.54 24.39 110.57 24.24 110.59 24.04 110.64 23.79 110.68 23.67 110.71 23.53 110.7 23.39 110.71 23.24 110.71 23.09 110.71 22.93 110.72 22.61 110.73 22.28 110.67 21.94 110.65 21.77 110.63 21.61 110.59 21.45 110.56 21.29 110.53 21.13 110.5 20.97 110.46 20.67 110.38 20.38 110.31 20.14 110.22 19.9 110.14 19.71 110.06 19.57 110 19.43 109.92 19.36 109.88 19.36 109.88Z" fill="#044900"/></g></g><g><g opacity="0.5"><path d="M27.46 109.51C27.46 109.51 27.85 109.65 28.45 109.76 28.6 109.79 28.76 109.81 28.93 109.84 29.1 109.86 29.28 109.89 29.47 109.9 29.56 109.91 29.66 109.92 29.76 109.92 29.86 109.92 29.96 109.93 30.06 109.93 30.26 109.94 30.46 109.93 30.66 109.93 30.86 109.93 31.06 109.9 31.26 109.89 31.46 109.87 31.65 109.84 31.84 109.82 32.03 109.79 32.21 109.75 32.38 109.72 32.55 109.69 32.71 109.64 32.86 109.61 33.01 109.57 33.15 109.55 33.26 109.51 33.38 109.47 33.48 109.44 33.57 109.42 33.74 109.37 33.84 109.34 33.84 109.34 33.84 109.34 33.75 109.39 33.59 109.47 33.51 109.51 33.41 109.55 33.3 109.61 33.19 109.67 33.05 109.71 32.91 109.76 32.76 109.81 32.61 109.88 32.44 109.92 32.27 109.96 32.09 110.02 31.9 110.05 31.71 110.08 31.51 110.12 31.31 110.15 31.1 110.17 30.9 110.19 30.69 110.2 30.48 110.2 30.27 110.21 30.07 110.19 29.86 110.18 29.67 110.16 29.47 110.13 29.28 110.11 29.09 110.07 28.92 110.03 28.75 109.99 28.58 109.95 28.44 109.9 28.14 109.81 27.91 109.7 27.74 109.63 27.55 109.57 27.46 109.51 27.46 109.51Z" fill="#044900"/></g></g><g><g opacity="0.5"><path d="M33.83 107.1C33.83 107.1 33.93 107.1 34.1 107.1 34.18 107.09 34.29 107.1 34.41 107.09 34.53 107.08 34.66 107.07 34.8 107.06 34.94 107.05 35.1 107.03 35.26 107.01 35.43 106.99 35.6 106.98 35.78 106.95 35.96 106.92 36.14 106.9 36.33 106.87 36.52 106.85 36.71 106.8 36.89 106.76 37.08 106.72 37.27 106.68 37.45 106.64 37.63 106.6 37.81 106.54 37.99 106.49 38.16 106.44 38.33 106.4 38.49 106.35 38.65 106.31 38.8 106.25 38.94 106.21 39.21 106.11 39.45 106.04 39.61 105.98 39.77 105.93 39.87 105.9 39.87 105.9 39.87 105.9 39.79 105.95 39.63 106.03 39.48 106.11 39.26 106.22 39 106.35 38.87 106.41 38.73 106.49 38.56 106.54 38.4 106.59 38.23 106.65 38.06 106.71 37.89 106.76 37.71 106.84 37.52 106.88 37.33 106.92 37.14 106.96 36.95 107.01 36.76 107.05 36.57 107.1 36.37 107.11 36.18 107.13 35.99 107.15 35.81 107.17 35.63 107.2 35.45 107.19 35.28 107.2 35.11 107.2 34.95 107.21 34.81 107.2 34.66 107.19 34.53 107.18 34.41 107.17 34.29 107.16 34.19 107.14 34.1 107.13 33.93 107.12 33.83 107.1 33.83 107.1Z" fill="#044900"/></g></g><g><g opacity="0.5"><path d="M40.03 108.84C40.29 108.98 40.54 109.13 40.8 109.28L40.79 109.28C41.4 109.45 42.05 109.51 42.68 109.54 42.84 109.55 43 109.55 43.16 109.55 43.32 109.55 43.48 109.55 43.64 109.54 43.8 109.54 43.96 109.53 44.12 109.51 44.28 109.5 44.44 109.49 44.6 109.47L45.08 109.41C45.24 109.39 45.4 109.36 45.55 109.34 45.71 109.31 45.87 109.3 46.02 109.26L46.49 109.17C46.81 109.11 47.12 109.02 47.43 108.95 47.74 108.87 48.05 108.77 48.37 108.7 48.22 108.76 48.07 108.83 47.92 108.89 47.77 108.95 47.62 109.01 47.46 109.07 47.31 109.12 47.15 109.17 47 109.22 46.85 109.27 46.69 109.32 46.53 109.36L46.06 109.48C45.9 109.52 45.74 109.54 45.58 109.58 45.42 109.61 45.26 109.65 45.1 109.67L44.61 109.73C44.45 109.75 44.28 109.76 44.12 109.77 43.96 109.78 43.79 109.79 43.63 109.79 43.47 109.79 43.3 109.8 43.14 109.79 42.98 109.78 42.81 109.78 42.65 109.77 42.49 109.75 42.32 109.75 42.16 109.72 42 109.7 41.84 109.67 41.68 109.64 41.52 109.61 41.36 109.57 41.2 109.53 41.04 109.49 40.89 109.44 40.73 109.38L40.72 109.38 40.72 109.38C40.5 109.19 40.26 109.02 40.03 108.84Z" fill="#044900"/></g></g><g><g opacity="0.5"><path d="M31.34 113.68C31.34 113.68 31.45 113.67 31.64 113.65 31.84 113.63 32.11 113.58 32.44 113.51 32.77 113.45 33.14 113.35 33.54 113.22 33.64 113.19 33.74 113.16 33.84 113.12 33.94 113.08 34.04 113.04 34.14 113.01 34.35 112.94 34.55 112.84 34.75 112.76 34.95 112.68 35.15 112.57 35.35 112.48 35.54 112.37 35.73 112.27 35.91 112.17 36.09 112.06 36.26 111.96 36.42 111.86 36.59 111.77 36.73 111.65 36.87 111.56 37 111.46 37.14 111.38 37.24 111.3 37.35 111.22 37.44 111.14 37.52 111.08 37.68 110.96 37.77 110.89 37.77 110.89 37.77 110.89 37.69 110.97 37.56 111.11 37.49 111.18 37.41 111.27 37.31 111.36 37.22 111.46 37.09 111.56 36.96 111.67 36.83 111.78 36.69 111.9 36.53 112.01 36.37 112.12 36.21 112.25 36.03 112.36 35.85 112.47 35.66 112.59 35.46 112.69 35.26 112.79 35.06 112.9 34.85 112.99 34.64 113.07 34.43 113.17 34.22 113.24 34.01 113.32 33.8 113.38 33.59 113.43 33.39 113.49 33.18 113.52 32.99 113.56 32.8 113.59 32.62 113.62 32.45 113.64 32.11 113.68 31.83 113.68 31.63 113.68 31.45 113.7 31.34 113.68 31.34 113.68Z" fill="#044900"/></g></g><g><g opacity="0.5"><path d="M23.39 115.82C23.39 115.82 23.48 115.78 23.62 115.7 23.77 115.63 23.98 115.52 24.24 115.39 24.37 115.33 24.5 115.25 24.64 115.18 24.78 115.1 24.93 115.02 25.09 114.94 25.24 114.85 25.4 114.76 25.56 114.67 25.73 114.58 25.89 114.49 26.04 114.39 26.2 114.29 26.36 114.2 26.52 114.1 26.68 114.01 26.83 113.9 26.98 113.81 27.13 113.71 27.27 113.62 27.41 113.53 27.55 113.45 27.68 113.36 27.79 113.27 28.02 113.1 28.22 112.97 28.35 112.88 28.49 112.78 28.57 112.73 28.57 112.73 28.57 112.73 28.51 112.8 28.38 112.91 28.26 113.02 28.09 113.19 27.88 113.39 27.83 113.44 27.77 113.49 27.72 113.54 27.66 113.59 27.59 113.64 27.53 113.68 27.4 113.78 27.26 113.88 27.12 113.99 26.98 114.09 26.83 114.21 26.67 114.31 26.51 114.41 26.35 114.51 26.19 114.61 26.03 114.71 25.86 114.81 25.69 114.89 25.52 114.97 25.36 115.06 25.2 115.14 25.04 115.22 24.88 115.28 24.73 115.35 24.58 115.42 24.44 115.48 24.3 115.52 23.77 115.73 23.39 115.82 23.39 115.82Z" fill="#044900"/></g></g><g><g opacity="0.5"><path d="M31.01 116.67C31.01 116.67 31.22 116.92 31.62 117.19 31.72 117.26 31.83 117.33 31.94 117.4 32.06 117.47 32.19 117.53 32.32 117.61 32.45 117.67 32.59 117.74 32.74 117.8 32.88 117.86 33.03 117.92 33.18 117.97 33.33 118.03 33.48 118.08 33.63 118.12 33.78 118.16 33.93 118.21 34.07 118.25 34.22 118.28 34.35 118.33 34.49 118.35 34.62 118.38 34.75 118.41 34.87 118.43 35.11 118.48 35.31 118.52 35.44 118.55 35.58 118.58 35.66 118.6 35.66 118.6 35.66 118.6 35.58 118.6 35.44 118.6 35.3 118.59 35.09 118.61 34.85 118.58 34.61 118.56 34.32 118.53 34.02 118.47 33.87 118.44 33.71 118.41 33.56 118.36 33.4 118.32 33.25 118.27 33.09 118.21 32.93 118.16 32.78 118.09 32.63 118.02 32.48 117.96 32.34 117.87 32.2 117.8 32.07 117.72 31.94 117.64 31.83 117.55 31.71 117.47 31.61 117.38 31.52 117.3 31.43 117.22 31.35 117.13 31.28 117.06 31.22 116.98 31.16 116.92 31.12 116.86 31.04 116.75 31.01 116.67 31.01 116.67Z" fill="#044900"/></g></g><g><g opacity="0.5"><path d="M37.58 117.36C37.58 117.36 37.64 117.29 37.77 117.18 37.89 117.07 38.06 116.9 38.27 116.71 38.69 116.33 39.27 115.83 39.86 115.36 40.45 114.89 41.06 114.43 41.52 114.09 41.75 113.92 41.95 113.79 42.09 113.7 42.23 113.61 42.31 113.56 42.31 113.56 42.31 113.56 42.24 113.63 42.12 113.74 42 113.85 41.83 114.02 41.62 114.21 41.2 114.59 40.62 115.09 40.03 115.56 39.44 116.04 38.83 116.49 38.37 116.82 38.14 116.99 37.94 117.12 37.81 117.21 37.66 117.31 37.58 117.36 37.58 117.36Z" fill="#044900"/></g></g></g></g></g><g><g><g><path d="M22.3 55.3C22.3 55.3 22.24 55.6 22.17 56.13 22.09 56.66 22.01 57.42 21.95 58.34 21.89 59.26 21.87 60.33 21.91 61.48 21.93 62.05 21.97 62.65 22.02 63.24 22.08 63.84 22.16 64.45 22.27 65.05 22.32 65.35 22.37 65.65 22.44 65.95 22.5 66.25 22.57 66.54 22.64 66.83 22.78 67.41 22.96 67.98 23.14 68.52 23.33 69.06 23.53 69.58 23.74 70.06 23.96 70.54 24.17 70.99 24.4 71.39 24.61 71.8 24.85 72.15 25.03 72.47 25.24 72.78 25.42 73.05 25.57 73.27 25.9 73.7 26.08 73.94 26.08 73.94 26.08 73.94 25.88 73.71 25.53 73.3 25.36 73.09 25.17 72.83 24.94 72.53 24.73 72.22 24.48 71.87 24.26 71.47 24.02 71.07 23.79 70.63 23.56 70.15 23.45 69.91 23.33 69.66 23.22 69.4 23.12 69.14 23.01 68.88 22.92 68.6 22.73 68.05 22.55 67.48 22.4 66.89 22.32 66.6 22.25 66.3 22.19 66 22.12 65.7 22.06 65.4 22.02 65.09 21.91 64.48 21.85 63.87 21.79 63.26 21.74 62.65 21.7 62.06 21.69 61.48 21.67 60.9 21.69 60.34 21.71 59.81 21.74 59.28 21.77 58.78 21.81 58.32 21.99 56.49 22.3 55.3 22.3 55.3Z" fill="#6B6B6B"/></g></g><g><g><path d="M19.59 57.75C19.59 57.75 19.52 58.06 19.45 58.62 19.37 59.17 19.29 59.96 19.25 60.92 19.23 61.4 19.22 61.91 19.23 62.46 19.24 63.01 19.27 63.58 19.32 64.17 19.37 64.76 19.45 65.37 19.55 65.99 19.6 66.3 19.66 66.61 19.73 66.92 19.79 67.23 19.87 67.54 19.95 67.84 20.02 68.15 20.12 68.45 20.21 68.75 20.31 69.05 20.41 69.35 20.51 69.64 20.73 70.22 20.97 70.79 21.23 71.32 21.49 71.85 21.77 72.36 22.05 72.82 22.2 73.05 22.34 73.27 22.48 73.49 22.63 73.7 22.77 73.9 22.91 74.09 23.04 74.29 23.2 74.46 23.33 74.63 23.46 74.8 23.59 74.97 23.72 75.11 23.98 75.4 24.19 75.66 24.39 75.86 24.78 76.26 25.01 76.49 25.01 76.49 25.01 76.49 24.77 76.28 24.36 75.9 24.15 75.71 23.92 75.46 23.65 75.18 23.51 75.04 23.38 74.88 23.24 74.72 23.1 74.55 22.94 74.38 22.8 74.19 22.65 74 22.5 73.8 22.34 73.59 22.2 73.38 22.04 73.15 21.89 72.93 21.59 72.47 21.29 71.97 21.03 71.43 20.76 70.89 20.51 70.32 20.28 69.73 20.17 69.43 20.07 69.13 19.97 68.83 19.88 68.52 19.77 68.22 19.7 67.91 19.62 67.6 19.54 67.29 19.48 66.97 19.41 66.66 19.36 66.34 19.31 66.03 19.21 65.41 19.14 64.79 19.09 64.19 19.04 63.59 19.03 63.01 19.03 62.46 19.04 61.91 19.06 61.39 19.09 60.91 19.16 59.95 19.29 59.16 19.39 58.61 19.5 58.06 19.59 57.75 19.59 57.75Z" fill="#6B6B6B"/></g></g></g><g><g><g><path d="M71.5 45.98C71.5 45.98 71.54 46.15 71.59 46.47 71.61 46.63 71.64 46.82 71.66 47.03 71.68 47.25 71.7 47.49 71.7 47.76 71.71 48.03 71.7 48.32 71.7 48.64 71.68 48.95 71.67 49.28 71.63 49.61 71.59 49.95 71.55 50.29 71.48 50.64 71.44 50.82 71.42 50.99 71.38 51.17 71.34 51.34 71.29 51.52 71.25 51.7 71.17 52.05 71.04 52.39 70.94 52.73 70.89 52.9 70.82 53.06 70.75 53.22 70.68 53.38 70.62 53.54 70.55 53.7 70.43 54.02 70.26 54.3 70.12 54.58 69.99 54.86 69.83 55.11 69.69 55.34 69.55 55.57 69.43 55.79 69.29 55.96 69.16 56.14 69.04 56.29 68.95 56.42 68.76 56.67 68.65 56.81 68.65 56.81 68.65 56.81 68.74 56.66 68.91 56.39 68.99 56.26 69.09 56.1 69.21 55.91 69.33 55.73 69.43 55.5 69.56 55.27 69.69 55.03 69.83 54.78 69.95 54.5 70.01 54.36 70.08 54.22 70.14 54.07 70.2 53.92 70.27 53.78 70.33 53.62 70.44 53.31 70.58 52.99 70.68 52.66 70.78 52.33 70.9 51.99 70.98 51.64 71.02 51.47 71.07 51.3 71.11 51.12 71.15 50.95 71.18 50.77 71.22 50.6 71.29 50.26 71.34 49.92 71.39 49.59 71.44 49.26 71.47 48.94 71.5 48.63 71.52 48.32 71.54 48.04 71.54 47.77 71.56 47.24 71.54 46.79 71.53 46.48 71.52 46.16 71.5 45.98 71.5 45.98Z" fill="#6B6B6B"/></g></g><g><g><path d="M72.73 45.23C72.73 45.23 72.76 45.28 72.8 45.37 72.84 45.47 72.91 45.61 72.97 45.8 73.04 45.99 73.1 46.22 73.17 46.49 73.22 46.76 73.3 47.07 73.33 47.41 73.35 47.58 73.38 47.75 73.38 47.94 73.39 48.12 73.4 48.31 73.41 48.51 73.43 48.71 73.41 48.91 73.41 49.11 73.4 49.32 73.41 49.53 73.38 49.74 73.33 50.16 73.3 50.6 73.22 51.04 73.18 51.26 73.14 51.48 73.1 51.7 73.05 51.92 73 52.14 72.95 52.36 72.89 52.58 72.84 52.8 72.78 53.02 72.71 53.23 72.64 53.45 72.57 53.66 72.5 53.87 72.44 54.08 72.37 54.29 72.3 54.5 72.22 54.7 72.14 54.89 71.98 55.28 71.85 55.67 71.68 56.02 71.51 56.37 71.36 56.7 71.21 57.01 71.08 57.32 70.92 57.59 70.78 57.83 70.65 58.07 70.53 58.28 70.44 58.46 70.25 58.8 70.14 59 70.14 59 70.14 59 70.23 58.79 70.4 58.44 70.48 58.26 70.59 58.04 70.7 57.8 70.82 57.55 70.95 57.27 71.08 56.96 71.21 56.65 71.35 56.31 71.5 55.96 71.58 55.78 71.64 55.6 71.71 55.41 71.78 55.22 71.85 55.02 71.92 54.83 71.99 54.63 72.07 54.43 72.14 54.23 72.2 54.02 72.27 53.81 72.33 53.6 72.39 53.39 72.46 53.18 72.52 52.96 72.57 52.74 72.63 52.53 72.68 52.31 72.73 52.09 72.79 51.88 72.84 51.66 72.88 51.44 72.92 51.22 72.96 51.01 73.05 50.58 73.09 50.14 73.14 49.73 73.17 49.52 73.17 49.32 73.18 49.11 73.19 48.91 73.22 48.71 73.21 48.52 73.21 48.33 73.21 48.14 73.21 47.96 73.21 47.78 73.19 47.61 73.18 47.44 73.17 47.27 73.15 47.11 73.13 46.96 73.11 46.81 73.09 46.66 73.07 46.53 73.02 46.26 72.97 46.03 72.91 45.84 72.86 45.65 72.81 45.5 72.77 45.4 72.75 45.28 72.73 45.23 72.73 45.23Z" fill="#6B6B6B"/></g></g></g></g></svg>