<svg width="79.66" height="63.58" viewBox="0 0 79.66 63.58" xmlns="http://www.w3.org/2000/svg" xmlns:xlink="http://www.w3.org/1999/xlink" xml:space="preserve" overflow="hidden"><defs></defs><g><rect x="1.24" y="1.24" width="77.19" height="61.11" fill="#FFFFFF"/><path d="M79.66 63.58 0 63.58 0 0 79.66 0 79.66 63.58ZM2.47 61.11 77.19 61.11 77.19 2.47 2.47 2.47 2.47 61.11Z" fill="#E9A73D"/></g><g><path d="M55.76 52.72C53.91 53.94 51.55 54.3 49.37 53.91 48.72 53.79 48.06 53.59 47.47 53.3 45.75 52.44 43.85 52.01 41.95 51.78 41.87 51.77 41.79 51.76 41.71 51.75 37.12 51.17 32.71 49.08 29.39 45.87 27.99 44.51 26.76 42.93 26.15 41.08 25.52 39.25 25.56 37.12 26.58 35.46 27.48 33.98 29.01 33.03 30.43 32.04 35.73 28.33 40.06 23.25 42.89 17.45 43.22 16.77 43.55 16.06 43.86 15.36 44.73 13.46 45.61 11.58 46.93 9.98 48.65 7.92 51.37 6.41 53.96 6.92 53.97 6.92 53.97 6.92 53.98 6.93 56.57 7.98 58.32 10.59 59 13.31 59.7 16.12 59.42 19.08 59.03 21.95 58.3 27.28 57.17 32.59 56.78 37.93 56.61 40.39 57.25 42.81 58.29 45.05 58.59 45.7 58.75 46.4 58.79 47.11 58.86 49.33 57.6 51.49 55.76 52.72Z" fill="#ECB7A7"/><path d="M44.55 51.06C44.55 51.06 50.99 49.11 54.05 50.79 57.1 52.47 52.03 53.87 48.6 52.85 45.17 51.83 44.55 51.06 44.55 51.06Z" fill="#501E17"/><path d="M57.8 43.89C56.86 43.17 55.99 42.58 55.08 42.03 54.2 41.75 53.31 41.58 52.36 41.43 51.66 41.32 50.94 41.27 50.05 41.17 50.57 40.43 51.37 39.97 52.21 39.73 53.55 39.38 55.09 39.51 56.26 40.34 57.25 41.27 57.95 42.48 57.8 43.89L57.8 43.89Z" fill="#E69484"/><path d="M40 39.89C39.24 39.08 38.49 38.25 37.88 37.33 37.04 36.41 36.12 35.57 35.05 34.99 32.56 33.65 29.16 33.58 26.78 35.16 26.71 35.26 26.63 35.36 26.57 35.47 25.56 37.12 25.51 39.26 26.14 41.09 26.75 42.94 27.99 44.52 29.38 45.88 32.7 49.1 37.1 51.19 41.7 51.76 41.96 51.56 42.22 51.33 42.46 51.08 44.41 49.1 44.45 46.44 43.3 44.11 42.2 42.7 41.12 41.28 40 39.89Z" opacity="0.2"/></g><g><path d="M22.66 36.5C18.9 36.93 15.09 37.59 11.34 37.59 10.08 37.43 8.82 37.17 7.57 36.5L7.57 36.26C10.03 34.97 12.52 35 15.12 35.42 17.64 35.62 20.16 35.91 22.67 36.26L22.67 36.5 22.66 36.5Z" fill="#501E17"/><path d="M22.58 29.22C20.16 27.76 17.54 26.45 15.37 24.65 14.75 23.92 14.19 23.12 13.89 22.01L14.04 21.82C16.24 22 17.66 23.17 18.92 24.78 20.25 26.14 21.51 27.57 22.72 29.04L22.58 29.22 22.58 29.22Z" fill="#501E17"/><path d="M22.73 43.73C20.85 45.85 19.08 48.18 16.91 49.98 16.08 50.46 15.19 50.86 14.04 50.95L13.89 50.76C14.47 48.63 15.88 47.45 17.69 46.5 19.27 45.45 20.91 44.47 22.57 43.54L22.73 43.73 22.73 43.73Z" fill="#501E17"/></g></svg>