<svg width="79.66" height="63.58" viewBox="0 0 79.66 63.58" xmlns="http://www.w3.org/2000/svg" xmlns:xlink="http://www.w3.org/1999/xlink" xml:space="preserve" overflow="hidden"><defs></defs><g><rect x="1.24" y="1.24" width="77.19" height="61.11" fill="#FFFFFF" transform="matrix(-1 -1.22465e-16 1.22465e-16 -1 79.6626 63.5768)"/><path d="M0 0 79.66 0 79.66 63.58 0 63.58 0 0ZM77.19 2.47 2.47 2.47 2.47 61.1 77.19 61.1 77.19 2.47Z" fill="#82CCB2"/></g><g><path d="M58.28 34.53C56.12 43.3 50.72 51.49 42 52.78 41.68 52.84 41.35 52.87 41.01 52.88 40.67 52.89 40.34 52.87 40.02 52.83 28.87 51.81 22.45 39.42 21.3 28.48 20.65 22.34 21.66 16.65 24.41 13.7 29.07 8.73 33.6 9.67 36.55 11.3 38.71 12.48 41.11 12.41 43.18 11.09 46.05 9.32 50.51 8.13 55.42 12.83 59.41 16.69 60.41 25.9 58.28 34.53Z" fill="#DE5871"/><path d="M58.28 34.53C57.15 32.1 55.74 29.88 54.15 27.97 48.73 21.52 41.95 19.94 35.1 20.38 31.5 20.6 27.76 21.55 24.66 24.22 23.38 25.32 22.18 26.75 21.29 28.48 20.64 22.34 21.65 16.65 24.4 13.7 29.06 8.73 33.59 9.67 36.54 11.3 38.7 12.48 41.1 12.41 43.17 11.09 46.04 9.32 50.5 8.13 55.41 12.83 59.41 16.69 60.41 25.9 58.28 34.53Z" opacity="0.2"/><path d="M40.42 16.26C39.4 26.7 38.99 36.52 39.1 47.09 36.53 37.14 37.03 25.56 40.42 16.26L40.42 16.26Z" fill="#CF254E"/></g></svg>