<svg width="79.66" height="63.58" viewBox="0 0 79.66 63.58" xmlns="http://www.w3.org/2000/svg" xmlns:xlink="http://www.w3.org/1999/xlink" xml:space="preserve" overflow="hidden"><defs></defs><g><rect x="1.24" y="1.24" width="77.19" height="61.11" fill="#FFFFFF"/><path d="M79.66 63.58 0 63.58 0 0 79.66 0 79.66 63.58ZM2.47 61.1 77.19 61.1 77.19 2.47 2.47 2.47 2.47 61.1Z" fill="#985FC9"/></g><g><path d="M58.24 38.55C58.27 48.54 50.19 53.6 40.2 53.63 30.21 53.66 22.09 48.66 22.06 38.67 22.03 28.68 30.1 20.55 40.09 20.51 50.08 20.48 58.2 28.55 58.24 38.55Z" fill="#FFFFFF"/><path d="M55.87 46.78C49.97 57.59 29.91 57.58 24.24 46.55 31.85 54.97 48.09 54.97 55.87 46.78L55.87 46.78Z" fill="#501E17"/><ellipse cx="41.04" cy="37.68" rx="13.64" ry="13.64" fill="#93473D" transform="matrix(0.5319 -0.8468 0.8468 0.5319 -12.6988 52.3854)"/><path d="M21.93 38.67C20.19 21.26 41.66 13.3 53.3 25.36 56.68 28.9 58.54 33.77 58.35 38.55L58.12 38.55C57.9 29.09 49.53 21.02 40.08 21.44 33.32 21.67 27.13 26.06 24.15 32.05 23.14 34.08 22.49 36.32 22.16 38.67L21.93 38.67 21.93 38.67Z" fill="#501E17"/><path d="M49.41 37.65C49.43 42.28 45.69 46.04 41.06 46.06 36.43 46.08 32.67 42.34 32.65 37.71 32.63 33.08 36.37 29.32 41 29.3 45.64 29.29 49.4 33.03 49.41 37.65Z" fill="#501E17"/><path d="M47.46 29.36C45.01 29.56 43.18 31.71 43.38 34.16 43.58 36.61 45.73 38.44 48.18 38.24 50.63 38.04 52.46 35.89 52.26 33.44 52.06 30.99 49.91 29.16 47.46 29.36Z" fill="#FFFFFF"/><path d="M26.06 15.62C31.15 5.12 47.17 5.36 54.6 13.16 49.46 13.37 44.86 12.79 39.97 13.01 35.11 13.2 30.91 13.98 26.06 15.62L26.06 15.62Z" fill="#501E17"/></g></svg>