<svg width="20.77" height="21.55" viewBox="0 0 20.77 21.55" xmlns="http://www.w3.org/2000/svg" xmlns:xlink="http://www.w3.org/1999/xlink" xml:space="preserve" overflow="hidden"><defs></defs><g><linearGradient x1="15.7571" y1="-0.0359" x2="7.7638" y2="16.8802" gradientUnits="userSpaceOnUse" id="SVGID_1_"><stop offset="0" stop-color="#28BC89"/><stop offset="0.8744" stop-color="#20A66E"/><stop offset="0.9951" stop-color="#1FA36A"/></linearGradient><path d="M4.44 21.55C4.3 21.55 4.16 21.52 4.04 21.45 3.75 21.28 3.61 20.94 3.7 20.62L5.96 11.91 0.35 8.35C0.08 8.18-0.05 7.86 0.02 7.55 0.09 7.24 0.36 7.01 0.67 6.98L7.41 6.34 8.91 0.55C8.99 0.25 9.25 0.03 9.56 0 9.87-0.03 10.17 0.14 10.3 0.42L12.87 5.82 19.95 5.15C20.26 5.12 20.56 5.29 20.7 5.58 20.83 5.87 20.77 6.21 20.54 6.43L15.46 11.28 18.88 18.47C19.02 18.77 18.95 19.13 18.7 19.35 18.45 19.57 18.09 19.6 17.81 19.42L11.28 15.28 4.93 21.35C4.8 21.48 4.62 21.55 4.44 21.55ZM7.28 12.75 5.8 18.47 9.99 14.46 7.28 12.75ZM12.39 14.22 16.43 16.78 14.33 12.36 12.39 14.22ZM7.68 11.23 11.1 13.4 13.66 10.95 11.98 7.41 8.59 7.73 7.68 11.23ZM2.98 8.26 6.36 10.4 7.02 7.88 2.98 8.26ZM13.55 7.26 14.79 9.87 17.96 6.84 13.55 7.26ZM9.84 2.91 8.98 6.2 11.29 5.98 9.84 2.91Z" fill="#FF0000"/></g></svg>