<svg width="79.66" height="63.58" viewBox="0 0 79.66 63.58" xmlns="http://www.w3.org/2000/svg" xmlns:xlink="http://www.w3.org/1999/xlink" xml:space="preserve" overflow="hidden"><defs></defs><g><rect x="1.24" y="1.24" width="77.19" height="61.11" fill="#FFFFFF"/><path d="M79.66 63.58 0 63.58 0 0 79.66 0 79.66 63.58ZM2.47 61.11 77.19 61.11 77.19 2.47 2.47 2.47 2.47 61.11Z" fill="#6A95E9"/></g><g><path d="M57.69 19.25C56 14.19 52.04 9.63 46.83 8.45 41.31 7.2 35.37 10.05 32.03 14.62 28.69 19.19 27.68 25.15 28.21 30.78 28.48 33.57 29.1 36.32 30.05 38.95 31.97 44.26 34.64 46.59 38.66 50.56 39.95 51.84 41.34 53.05 42.94 53.92 46.13 55.66 50.09 55.9 53.46 54.56 56.83 53.22 59.55 50.33 60.67 46.88L57.69 19.25Z" fill="#ECB7A7"/><path d="M56.7 44.71C54.26 48.13 49.01 47.95 45.57 46.44 41.8 44.8 38.86 41.43 37.06 37.8 36.06 35.81 35.4 33.66 35.1 31.47 34.84 30.51 34.63 29.53 34.52 28.54 34.03 24.24 35.47 20.01 38.08 16.6 39.25 15.08 40.66 13.64 42.48 12.93 44.2 12.25 46.08 12.46 47.66 13.39 49.22 14.3 50.41 15.79 51.04 17.46 51.83 19.55 51.79 21.85 51.43 24.01 51.04 26.23 50.17 28.32 49.8 30.54 49.61 31.65 49.58 32.81 49.93 33.89 50.23 34.85 50.67 36.32 51.4 37.01 52.83 38.32 54.61 39.23 55.94 40.66 57.23 42.01 57.82 43.13 56.7 44.71Z" opacity="0.2"/><path d="M42.39 42.83C39.31 41.68 37.43 38.59 35.94 35.8 33 29.77 33.35 22.27 37.23 16.69 41.27 10.79 49.2 9.22 52.38 16.83 53.92 20.9 52.55 25.31 51.26 29.18 50.87 30.53 50.19 32.14 50.27 33.48 50.47 34.75 51.28 36.3 52.27 37.21 53.34 38.21 54.93 38.88 56.03 40.2 57.16 41.37 57.38 43.77 55.75 44.58 56.44 44.13 56.67 43.28 56.58 42.55 56.17 40 53.45 39.56 51.53 38.09 50.13 36.94 49.22 35.52 48.75 33.72 48.56 32.74 48.77 31.82 48.93 31.04 49.43 28.72 50.18 26.38 50.6 24.11 52.48 15.08 45.14 9.97 38.99 17.99 35.38 22.87 34.77 29.69 36.96 35.36 38.16 38.15 39.63 41.27 42.39 42.83L42.39 42.83Z" fill="#E69484"/><path d="M41.15 36.13C39.86 30.39 45.22 23.15 51.41 24.95 50.04 25.44 48.89 26.05 47.86 26.78 44.56 29.08 42.91 32.56 41.15 36.13L41.15 36.13Z" fill="#E69484"/></g><g><path d="M26.09 29.35C22.33 29.78 18.52 30.44 14.77 30.44 13.51 30.28 12.25 30.02 11 29.35L11 29.11C13.46 27.82 15.95 27.85 18.55 28.27 21.07 28.47 23.59 28.76 26.1 29.11L26.1 29.35 26.09 29.35Z" fill="#501E17"/><path d="M26.01 22.06C23.59 20.6 20.97 19.29 18.8 17.49 18.18 16.76 17.62 15.96 17.32 14.85L17.47 14.66C19.67 14.84 21.09 16.01 22.35 17.62 23.68 18.98 24.94 20.41 26.15 21.88L26.01 22.06 26.01 22.06Z" fill="#501E17"/><path d="M26.17 36.58C24.29 38.7 22.52 41.03 20.35 42.83 19.52 43.31 18.63 43.71 17.48 43.8L17.33 43.61C17.91 41.48 19.32 40.3 21.13 39.35 22.71 38.3 24.35 37.32 26.01 36.39L26.17 36.58 26.17 36.58Z" fill="#501E17"/></g></svg>