<svg width="123.9" height="123.89" viewBox="0 0 123.9 123.89" xmlns="http://www.w3.org/2000/svg" xmlns:xlink="http://www.w3.org/1999/xlink" xml:space="preserve" overflow="hidden"><defs></defs><g><g><path d="M122.2 47.87C129.97 81.14 109.31 114.42 76.03 122.19 42.76 129.96 9.48 109.29 1.71 76.02-6.07 42.74 14.6 9.47 47.87 1.7 81.15-6.08 114.42 14.59 122.2 47.87Z" fill="#FDDF00"/><path d="M61.9 123.89C48.16 123.89 34.61 119.2 23.73 110.68 18.3 106.42 13.65 101.34 9.92 95.57 6.06 89.6 3.28 83.03 1.65 76.04-0.25 67.9-0.5 59.63 0.9 51.46 2.26 43.57 5.1 36.1 9.35 29.27 13.6 22.44 19.03 16.58 25.5 11.87 32.2 6.99 39.72 3.55 47.87 1.65 52.51 0.55 57.27 0 62.01 0 75.75 0 89.3 4.69 100.18 13.21 105.61 17.47 110.26 22.55 113.98 28.32 117.84 34.29 120.62 40.86 122.25 47.85 124.15 55.99 124.4 64.26 123 72.43 121.64 80.32 118.8 87.79 114.55 94.62 110.31 101.45 104.87 107.31 98.4 112.02 91.7 116.9 84.17 120.34 76.03 122.24 71.39 123.33 66.63 123.89 61.9 123.89ZM62.01 0.12C57.29 0.12 52.53 0.67 47.89 1.75 39.76 3.65 32.25 7.08 25.57 11.95 19.11 16.66 13.69 22.5 9.45 29.32 5.21 36.15 2.37 43.6 1.02 51.47-0.38 59.62-0.14 67.88 1.76 76.01 3.39 82.98 6.17 89.54 10.02 95.5 13.74 101.26 18.38 106.33 23.8 110.58 34.66 119.08 48.19 123.77 61.9 123.77 66.62 123.77 71.37 123.22 76.02 122.14 84.15 120.24 91.66 116.81 98.35 111.94 104.81 107.23 110.23 101.39 114.47 94.57 118.71 87.75 121.54 80.3 122.9 72.43 124.31 64.28 124.05 56.02 122.16 47.9 120.53 40.93 117.75 34.37 113.9 28.41 110.18 22.65 105.54 17.57 100.12 13.33 89.25 4.8 75.72 0.12 62.01 0.12Z" fill="#E79823"/></g><path d="M5.32 78.02C5.32 78.02 4.24 75.48 3.3 70.74 2.83 68.38 2.43 65.47 2.29 62.11 2.14 58.75 2.3 54.93 2.95 50.83 3.61 46.73 4.83 42.35 6.77 38 8.69 33.64 11.41 29.36 14.76 25.42 18.11 21.48 22.03 17.83 26.31 14.54 27.38 13.72 28.46 12.87 29.6 12.14 30.73 11.39 31.83 10.59 33.04 9.93 34.21 9.24 35.38 8.49 36.62 7.9L38.46 6.96C39.06 6.64 39.72 6.4 40.35 6.11L42.24 5.28 44.19 4.57C44.84 4.34 45.48 4.08 46.14 3.89L48.13 3.32C50.78 2.58 53.5 2.13 56.2 1.79 61.63 1.22 67.06 1.54 72.17 2.48 77.29 3.42 82.08 5.06 86.38 7.11 90.7 9.14 94.52 11.55 97.82 14.06 101.13 16.57 103.93 19.17 106.16 21.67 108.4 24.19 110.18 26.53 111.44 28.59 112.08 29.61 112.59 30.56 113.04 31.38 113.45 32.22 113.82 32.92 114.07 33.52 114.55 34.71 114.8 35.35 114.8 35.35L114.67 35.4C114.67 35.4 114.37 34.79 113.81 33.63 113.53 33.06 113.12 32.38 112.67 31.57 112.19 30.78 111.63 29.88 110.93 28.91 108.22 25 103.63 19.88 97.03 15.1 93.73 12.73 89.92 10.47 85.71 8.52 83.6 7.54 81.37 6.7 79.07 5.89 77.91 5.55 76.73 5.16 75.53 4.84 74.32 4.57 73.12 4.19 71.86 3.99 66.9 2.99 61.63 2.62 56.33 3.08 51.02 3.56 45.7 4.83 40.64 6.83 40.02 7.09 39.37 7.31 38.76 7.61L36.92 8.49C35.67 9.04 34.5 9.73 33.32 10.39 32.12 11.02 31 11.81 29.87 12.55 28.71 13.27 27.66 14.08 26.58 14.89 22.29 18.14 18.49 21.87 15.37 25.9 14.96 26.39 14.59 26.91 14.23 27.42 13.87 27.94 13.5 28.45 13.14 28.96 12.44 29.99 11.81 31.06 11.16 32.09 9.98 34.23 8.86 36.35 7.97 38.5 6.14 42.78 4.88 47.01 4.2 51.01 3.49 55.01 3.27 58.75 3.27 62.06 3.27 65.37 3.6 68.26 3.92 70.61 4.24 72.97 4.65 74.81 4.95 76.05 5.25 77.3 5.46 77.95 5.46 77.95L5.32 78.02Z" fill="#FFFFFF"/><g opacity="0.5"><path d="M103.87 16.43C114.24 26.48 117.58 36.49 120.15 46.28 121.78 52.46 121.79 58.64 121.17 63.63 120.08 72.57 118.38 66.97 118.51 64.57 119.27 50.71 116.07 43.67 114.51 39.85 101.99 9.05 65.97 3.41 50.97 6.65 35.98 9.9 21.04 16.75 10.53 38.06 0.01 59.37 8.85 79.52 10.41 85.09 11.97 90.66 7.1 89.74 2.97 76.49 0.89 69.8 0.42 61.55 0.46 55.02-0.31 61.86 0.04 68.93 1.7 76.02 9.47 109.29 42.75 129.96 76.02 122.19 109.3 114.42 129.97 81.14 122.19 47.87 119.26 35.31 112.69 24.55 103.87 16.43Z" fill="#ECAA20"/></g><g><path d="M115.22 49.5C122.09 78.91 103.81 108.34 74.4 115.21 44.98 122.08 15.56 103.8 8.69 74.38 1.81 44.97 20.09 15.55 49.5 8.68 78.92 1.8 108.35 20.08 115.22 49.5Z" fill="#F8F6EC"/><path d="M61.91 116.72C49.76 116.72 37.77 112.57 28.15 105.03 23.35 101.27 19.24 96.77 15.94 91.67 12.53 86.39 10.07 80.58 8.62 74.4 6.94 67.2 6.71 59.89 7.96 52.66 9.16 45.68 11.67 39.08 15.43 33.04 19.18 27 23.99 21.82 29.71 17.65 35.63 13.33 42.29 10.29 49.49 8.61 53.6 7.66 57.81 7.17 62 7.17 74.15 7.17 86.13 11.32 95.75 18.85 100.55 22.61 104.66 27.11 107.96 32.21 111.37 37.49 113.83 43.3 115.28 49.48 116.96 56.68 117.18 63.99 115.94 71.21 114.74 78.19 112.22 84.79 108.47 90.83 104.72 96.87 99.91 102.05 94.19 106.22 88.27 110.54 81.61 113.58 74.41 115.26 70.3 116.23 66.09 116.72 61.91 116.72ZM62 7.29C57.82 7.29 53.63 7.78 49.52 8.73 42.34 10.41 35.7 13.44 29.79 17.75 24.08 21.91 19.29 27.08 15.54 33.11 11.79 39.14 9.29 45.73 8.09 52.69 6.85 59.9 7.07 67.19 8.75 74.38 10.19 80.54 12.65 86.34 16.05 91.61 19.34 96.7 23.44 101.19 28.23 104.94 37.83 112.46 49.79 116.6 61.91 116.6 66.08 116.6 70.28 116.11 74.38 115.15 81.56 113.47 88.2 110.44 94.11 106.13 99.82 101.97 104.61 96.8 108.36 90.77 112.11 84.74 114.61 78.15 115.81 71.19 117.05 63.98 116.83 56.69 115.15 49.5 113.71 43.33 111.25 37.54 107.85 32.27 104.56 27.18 100.46 22.69 95.67 18.94 86.08 11.43 74.12 7.29 62 7.29Z" fill="#E79823"/></g><path d="M96.57 65.15C81.07 76.74 63.85 84.29 44.2 83.71 35.38 83.45 25.76 82.69 17.49 79.44 14.52 78.27 11.68 76.91 8.95 75.4 16.25 104.21 45.32 122 74.4 115.21 103.82 108.34 122.1 78.91 115.22 49.5 115.07 48.86 114.9 48.24 114.73 47.62 109.21 54.01 103.37 60.07 96.57 65.15Z" fill="#EFCF7B" opacity="0.3"/><g><path d="M49.5 8.68C20.09 15.55 1.81 44.97 8.68 74.39 15.55 103.8 44.98 122.09 74.39 115.22 103.81 108.35 122.09 78.92 115.21 49.51 108.35 20.08 78.92 1.8 49.5 8.68ZM73.37 110.8C45.71 117.26 18.04 100.07 11.58 72.42 5.12 44.76 22.3 17.1 49.96 10.64 77.63 4.18 105.28 21.36 111.75 49.02 118.21 76.67 101.03 104.34 73.37 110.8Z" fill="#EFCF7B" opacity="0.5"/></g><g><g><g><path d="M61.85 60.02C61.86 60 61.88 59.99 61.9 59.98 63.18 59.52 64.52 59.24 65.85 58.9 67.23 58.55 68.6 58.16 69.98 57.8 71.4 57.43 72.81 57.1 74.25 56.82 74.95 56.69 75.66 56.57 76.36 56.42 76.69 56.35 77.06 56.32 77.42 56.28 77.41 56.18 77.31 55.9 77.31 55.87 77.31 55.86 77.07 54.7 77.04 54.53 77.01 54.33 76.96 54.1 76.95 53.87 77.24 53.97 77.55 54.06 77.86 54.12 79.03 54.46 80.14 54.87 81.21 55.5 81.96 55.92 82.74 56.4 83.48 56.91 83.42 57.02 83.34 57.13 83.26 57.24 83.26 57.24 83.25 57.24 83.25 57.23 83.19 57.33 83.12 57.42 83.06 57.52 82.82 57.84 82.56 58.16 82.31 58.46 81.78 59.11 81.23 59.75 80.66 60.35 80.02 61.05 79.34 61.72 78.61 62.33 78.56 62.37 78.52 62.39 78.46 62.42 78.44 62.43 78.42 62.44 78.4 62.44 78.4 62.46 78.4 62.48 78.4 62.5 78.29 62.59 78.18 62.67 78.08 62.76 78.04 62.51 78.02 62.26 77.99 62.07 77.95 61.64 77.85 61.23 77.8 60.8 76.19 61.38 74.4 61.62 72.76 61.93 70.49 62.37 68.2 62.75 65.89 62.96 65 63.25 64.1 63.54 63.21 63.79 62.19 64.07 61.15 64.27 60.6 63.14 60.23 62.39 60.44 61.37 60.88 60.69 61.08 60.39 61.44 60.17 61.85 60.02Z" fill="#EFCF7B"/><path d="M60.15 31.37C59.4 30.49 58.61 29.71 57.65 29.03 56.99 28.56 56.28 28.07 55.55 27.64 55.47 27.75 55.41 27.86 55.34 27.97 55.35 27.97 55.35 27.97 55.35 27.98 55.28 28.07 55.22 28.17 55.17 28.26 54.98 28.59 54.82 28.93 54.65 29.27 54.31 29.99 53.97 30.71 53.68 31.44 53.33 32.28 53.03 33.12 52.78 33.98 52.77 34.04 52.77 34.09 52.76 34.14 52.75 34.16 52.76 34.19 52.76 34.21 52.74 34.21 52.73 34.22 52.7 34.23 52.67 34.36 52.64 34.48 52.61 34.6 52.84 34.55 53.06 34.47 53.24 34.41 53.63 34.28 54.02 34.2 54.41 34.07 54.55 35.68 55.96 41.24 56.35 42.78 56.81 44.65 60.47 58.27 61.44 61.42 61.44 61.49 61.46 61.56 61.47 61.63 61.47 61.69 61.48 61.75 61.52 61.81 61.55 61.88 61.61 62.02 61.55 61.85 61.62 62.04 61.82 62.07 62 62.06 62.2 62.04 62.4 61.99 62.6 61.95 62.92 61.87 63.31 61.98 63.59 61.78 63.82 61.61 64.22 61.56 64.34 61.3 64.35 61.29 64.35 61.28 64.36 61.26 64.4 61.25 64.43 61.24 64.48 61.22 64.23 59.93 61.25 44.83 61.02 43.54 60.78 42.18 60.5 40.83 60.18 39.49 60.01 38.83 58.92 34.25 58.77 33.58 58.7 33.27 58.57 32.95 58.47 32.61 58.56 32.58 58.84 32.56 58.85 32.55 58.86 32.54 59.96 32.29 60.1 32.25 60.29 32.21 60.51 32.15 60.72 32.07 60.53 31.83 60.33 31.61 60.15 31.37Z" fill="#EFCF7B"/><path d="M67.79 61.82C68.39 64.37 66.79 66.92 64.25 67.51 61.7 68.1 59.15 66.52 58.56 63.97 57.96 61.42 59.55 58.87 62.1 58.28 64.63 57.69 67.19 59.27 67.79 61.82Z" fill="#EFCF7B"/></g></g><g><g><path d="M47.46 23.34 47.33 22.8 48.55 22.38C48.68 22.33 48.77 22.27 48.81 22.19 48.86 22.12 48.88 21.99 48.87 21.79 48.84 21.43 48.69 20.66 48.41 19.47L48.04 17.87C47.91 17.32 47.77 16.74 47.61 16.1L47.46 15.53C47.43 15.39 47.39 15.3 47.36 15.26 47.32 15.23 47.28 15.21 47.24 15.22 47.21 15.23 47.13 15.29 46.98 15.4 46.2 15.98 45.71 16.36 45.5 16.55L45.41 16.52C45.37 16.43 45.31 16.3 45.25 16.11 45.2 15.97 45.13 15.84 45.08 15.72L45.08 15.68C45.82 15.26 46.4 14.92 46.83 14.66 47.25 14.4 47.93 13.97 48.83 13.36L49 13.43C49.02 13.5 49.05 13.71 49.11 14.06 49.16 14.41 49.19 14.64 49.22 14.74 49.3 15.13 49.51 16.11 49.87 17.7L50.1 18.68C50.32 19.64 50.48 20.3 50.58 20.67 50.72 21.23 50.83 21.56 50.9 21.65 50.94 21.7 51 21.73 51.06 21.75 51.19 21.78 51.51 21.75 52.05 21.65 52.2 21.61 52.34 21.6 52.49 21.59L52.62 22.13C51.65 22.31 50.87 22.47 50.27 22.61 49.85 22.71 48.92 22.95 47.46 23.34Z" fill="#EFCF7B"/><path d="M53.58 21.91 53.42 21.22 54.37 19.71C54.85 18.92 55.21 18.31 55.43 17.87 55.66 17.44 55.82 17.05 55.92 16.71 56.02 16.37 56.07 16.06 56.09 15.8 56.11 15.54 56.08 15.28 56.02 15.03 55.9 14.52 55.68 14.17 55.36 13.96 55.04 13.76 54.65 13.7 54.2 13.81 53.95 13.87 53.72 13.98 53.52 14.13 53.32 14.28 53.16 14.48 53.05 14.72 53.04 15.01 53.03 15.38 53.03 15.83L52.52 15.95 52.33 14.39C52.3 14.15 52.28 13.9 52.24 13.63 52.46 13.28 52.75 13 53.09 12.78 53.44 12.55 53.85 12.38 54.31 12.27 54.96 12.12 55.52 12.1 55.97 12.22 56.43 12.34 56.79 12.57 57.08 12.91 57.36 13.25 57.56 13.61 57.66 14.01 57.72 14.27 57.74 14.54 57.72 14.8 57.71 15.07 57.64 15.37 57.52 15.71 57.39 16.05 57.26 16.36 57.11 16.64L56.54 17.58 56 18.43C55.71 18.88 55.41 19.34 55.07 19.83L55.11 19.91 56.28 19.64C56.45 19.6 57.04 19.45 58.04 19.2 58.35 19.12 58.74 19 59.19 18.87L59.26 18.94C59.31 19.34 59.36 19.65 59.41 19.87 59.44 20.01 59.51 20.19 59.6 20.41L59.6 20.5 57.62 20.91C57.18 21 56.85 21.07 56.66 21.11L53.58 21.91Z" fill="#EFCF7B"/></g><path d="M77.37 24.01 77.24 23.47 78.46 23.05C78.59 23 78.68 22.94 78.72 22.87 78.77 22.79 78.79 22.67 78.78 22.47 78.76 22.12 78.61 21.34 78.33 20.14L77.96 18.55C77.83 18 77.69 17.41 77.53 16.77L77.38 16.2C77.35 16.06 77.31 15.98 77.27 15.94 77.23 15.91 77.19 15.9 77.16 15.91 77.14 15.91 77.04 15.98 76.9 16.09 76.12 16.68 75.63 17.05 75.42 17.23L75.33 17.2C75.29 17.12 75.24 16.98 75.17 16.79 75.11 16.65 75.05 16.52 75 16.4L75 16.35C75.73 15.94 76.32 15.6 76.75 15.33 77.18 15.07 77.85 14.64 78.75 14.03L78.92 14.1C78.94 14.17 78.97 14.38 79.03 14.73 79.08 15.08 79.12 15.31 79.14 15.41 79.22 15.79 79.43 16.79 79.78 18.37L80 19.36C80.22 20.32 80.38 20.99 80.48 21.35 80.63 21.91 80.73 22.23 80.8 22.32 80.84 22.37 80.89 22.4 80.96 22.42 81.08 22.45 81.41 22.42 81.94 22.32 82.09 22.29 82.24 22.27 82.38 22.26L82.51 22.8C81.54 22.98 80.76 23.14 80.16 23.28 79.75 23.38 78.82 23.62 77.37 24.01Z" fill="#EFCF7B"/><path d="M96.21 37 96.05 36.31 96.99 34.81C97.48 34.01 97.83 33.4 98.06 32.97 98.28 32.54 98.44 32.15 98.55 31.8 98.66 31.46 98.71 31.15 98.72 30.89 98.73 30.63 98.71 30.37 98.65 30.11 98.53 29.61 98.32 29.24 97.98 29.04 97.66 28.83 97.27 28.78 96.83 28.89 96.57 28.95 96.35 29.06 96.15 29.21 95.95 29.37 95.8 29.56 95.69 29.8 95.67 30.09 95.66 30.46 95.66 30.91L95.15 31.03 94.97 29.48C94.94 29.24 94.91 28.99 94.88 28.73 95.1 28.38 95.38 28.1 95.73 27.87 96.07 27.65 96.48 27.48 96.94 27.37 97.6 27.22 98.15 27.2 98.6 27.32 99.06 27.44 99.43 27.67 99.72 28.01 100.01 28.34 100.2 28.71 100.29 29.12 100.35 29.38 100.38 29.65 100.36 29.91 100.34 30.18 100.28 30.48 100.16 30.82 100.03 31.16 99.9 31.47 99.74 31.75L99.17 32.69 98.63 33.54C98.35 33.99 98.04 34.45 97.71 34.94L97.75 35.03 98.91 34.76C99.09 34.72 99.67 34.57 100.66 34.31 100.98 34.22 101.36 34.12 101.81 33.98L101.88 34.06C101.93 34.46 101.97 34.77 102.03 34.99 102.06 35.13 102.13 35.31 102.23 35.52L102.22 35.6 100.25 36C99.8 36.09 99.48 36.16 99.29 36.2L96.21 37Z" fill="#EFCF7B"/><path d="M107.15 57.97C107.09 57.79 106.96 57.48 106.76 57 106.57 56.52 106.43 56.21 106.35 56.04L106.76 55.8C107.03 56.16 107.29 56.45 107.55 56.65 107.81 56.86 108.09 56.99 108.39 57.04 108.69 57.1 108.99 57.09 109.29 57.02 109.79 56.9 110.15 56.65 110.37 56.26 110.61 55.87 110.65 55.41 110.53 54.87 110.4 54.29 110.14 53.9 109.73 53.7 109.33 53.5 108.87 53.45 108.36 53.57 108.11 53.63 107.86 53.73 107.61 53.86L107.51 53.8 107.5 53.71 107.53 53.29 107.53 52.74 107.59 52.72 108.07 52.61C108.31 52.55 108.53 52.44 108.74 52.26 108.94 52.08 109.09 51.86 109.16 51.61 109.24 51.36 109.25 51.11 109.2 50.86 109.12 50.51 108.93 50.25 108.62 50.08 108.32 49.9 107.97 49.86 107.56 49.95 107.3 50.01 107.07 50.11 106.88 50.24 106.68 50.38 106.55 50.51 106.47 50.66 106.4 50.81 106.35 51.05 106.32 51.38 106.3 51.52 106.29 51.61 106.28 51.69L105.79 51.77 105.77 50.35C105.76 50.15 105.74 49.91 105.71 49.64 105.95 49.36 106.24 49.12 106.57 48.93 106.9 48.74 107.29 48.6 107.72 48.5 108.5 48.32 109.14 48.36 109.62 48.63 110.12 48.9 110.43 49.3 110.56 49.84 110.65 50.25 110.61 50.64 110.45 51.02 110.28 51.4 109.98 51.78 109.54 52.16 109.64 52.14 109.79 52.13 109.96 52.12 110.19 52.12 110.42 52.15 110.66 52.21 110.89 52.27 111.1 52.38 111.28 52.51 111.47 52.64 111.63 52.8 111.75 52.99 111.87 53.18 111.96 53.43 112.03 53.73 112.23 54.58 112.06 55.4 111.52 56.17 110.87 57.09 109.99 57.68 108.87 57.94 108.55 58.01 108.27 58.06 108.02 58.06 107.76 58.06 107.48 58.03 107.15 57.97Z" fill="#EFCF7B"/><path d="M108.38 78.77 108.25 78.23C108.94 78.02 109.34 77.89 109.44 77.84 109.53 77.8 109.59 77.74 109.63 77.69 109.67 77.61 109.67 77.48 109.65 77.27 109.64 77.19 109.56 76.8 109.42 76.1L108.55 76.3C107.75 76.49 106.96 76.69 106.18 76.9L105.95 76.38C106 76.02 106.13 75.36 106.37 74.39 106.71 73.06 107.02 72 107.28 71.22 107.54 70.44 107.75 69.91 107.88 69.64L108.63 69.3C109.11 69.08 109.4 68.95 109.47 68.92L109.62 69C109.66 69.32 109.74 69.79 109.87 70.42 109.95 70.83 110.15 71.74 110.46 73.14L110.81 74.64 111.05 74.59 111.98 74.33 112.04 74.4 112.16 74.97C112.18 75.07 112.23 75.22 112.29 75.44L111.88 75.53 111.07 75.72C111.22 76.39 111.33 76.83 111.41 77.04 111.45 77.13 111.5 77.2 111.57 77.24 111.64 77.28 111.74 77.3 111.87 77.3L112.74 77.19 112.87 77.73C112.66 77.78 112.49 77.82 112.35 77.85L110.65 78.21 108.38 78.77ZM106.81 75.56 109.18 75.01 108.65 72.59 108.46 71.73 108.21 70.48C107.82 71.62 107.55 72.47 107.4 73.03 107.23 73.58 107.03 74.42 106.81 75.56Z" fill="#EFCF7B"/><path d="M94.53 96.08 94.24 96.01C94.21 95.76 94.15 95.43 94.06 94.99L93.85 93.92 93.65 93.05 93.44 92.33C93.36 92 93.31 91.81 93.29 91.75 93.26 91.64 93.23 91.53 93.19 91.42 93.15 91.31 93.11 91.19 93.06 91.05L93.13 90.96C94.2 90.76 95.12 90.57 95.9 90.39 96.2 90.32 96.43 90.26 96.6 90.21L97.84 89.86 97.92 89.96C97.98 90.45 98.03 90.77 98.06 90.92 98.09 91.03 98.13 91.19 98.19 91.37L98.14 91.47C97.97 91.5 97.76 91.54 97.55 91.58 96.84 91.73 96.38 91.83 96.17 91.88 95.23 92.1 94.59 92.26 94.22 92.39L94.66 94.5C94.99 94.24 95.28 94.04 95.53 93.92 95.77 93.8 96.04 93.7 96.35 93.63 97.17 93.44 97.87 93.52 98.44 93.86 99.01 94.2 99.39 94.74 99.57 95.47 99.71 96.06 99.66 96.67 99.46 97.3 99.25 97.93 98.84 98.5 98.22 99.01 97.74 99.4 97.18 99.67 96.47 99.83 96.17 99.9 95.92 99.94 95.71 99.94 95.49 99.95 95.22 99.93 94.88 99.88 94.8 99.69 94.73 99.5 94.63 99.32 94.53 99.13 94.33 98.72 93.99 98.08L94.39 97.82C94.62 98.12 94.85 98.36 95.11 98.54 95.36 98.72 95.63 98.83 95.96 98.9 96.28 98.96 96.59 98.96 96.9 98.89 97.39 98.77 97.75 98.51 97.99 98.11 98.22 97.71 98.28 97.22 98.14 96.65 98 96.06 97.73 95.63 97.33 95.38 96.93 95.12 96.45 95.06 95.9 95.19 95.68 95.24 95.49 95.31 95.33 95.4 95.16 95.48 95.03 95.57 94.93 95.67 94.88 95.71 94.74 95.85 94.53 96.08Z" fill="#EFCF7B"/><path d="M76.63 101.72 77.25 102.01 77.1 102.27C76.92 102.29 76.77 102.31 76.65 102.34 76.22 102.44 75.85 102.63 75.52 102.93 75.18 103.23 74.93 103.58 74.76 103.99 74.59 104.4 74.5 104.84 74.47 105.32 74.46 105.67 74.49 106.2 74.59 106.92 75.02 106.29 75.28 105.94 75.36 105.85 75.42 105.79 75.56 105.7 75.77 105.6 75.98 105.49 76.19 105.42 76.41 105.37 76.91 105.25 77.42 105.34 77.93 105.66 78.44 105.97 78.79 106.55 79 107.42 79.23 108.41 79.14 109.27 78.72 109.99 78.3 110.71 77.66 111.17 76.82 111.36 76.15 111.52 75.56 111.48 75.06 111.25 74.55 111.02 74.15 110.66 73.81 110.19 73.48 109.72 73.22 109.09 73.03 108.29 72.81 107.35 72.76 106.52 72.89 105.81 73.01 105.1 73.26 104.46 73.62 103.89 73.98 103.32 74.42 102.85 74.92 102.48 75.41 102.13 75.99 101.87 76.63 101.72ZM74.92 108.59C75.1 109.34 75.35 109.9 75.67 110.27 75.99 110.64 76.37 110.77 76.81 110.66 77.15 110.58 77.41 110.37 77.56 110.04 77.72 109.71 77.71 109.2 77.55 108.53 77.44 108.04 77.29 107.66 77.09 107.38 76.9 107.1 76.68 106.93 76.43 106.84 76.19 106.75 75.95 106.73 75.72 106.79 75.5 106.84 75.31 106.94 75.14 107.11 74.98 107.27 74.87 107.46 74.84 107.69 74.81 107.89 74.83 108.2 74.92 108.59Z" fill="#EFCF7B"/><path d="M50.27 112.75 50.17 112.61C50.81 110.56 51.17 109.34 51.3 108.96 51.76 107.53 52.01 106.73 52.05 106.58L52.57 104.67 52.5 104.56 50.82 104.95 49.78 105.21C49.33 105.32 49.06 105.4 48.96 105.45 48.9 105.48 48.86 105.52 48.84 105.56 48.8 105.62 48.78 105.7 48.79 105.8 48.78 105.97 48.81 106.39 48.88 107.08L48.33 107.19C48.21 106.61 48.12 106.11 48.02 105.72 47.92 105.3 47.78 104.75 47.6 104.05L47.67 103.96 49.42 103.61C49.83 103.52 50.29 103.41 50.78 103.3 51.11 103.22 52.06 103 53.62 102.6L53.76 103.2C53.38 104.55 53.15 105.4 53.05 105.76 52.81 106.76 52.61 107.58 52.47 108.24 52.34 108.89 52.18 109.67 52.03 110.58 51.92 111.29 51.83 111.89 51.77 112.39 51.49 112.43 51.24 112.48 51.04 112.52 50.86 112.58 50.6 112.65 50.27 112.75Z" fill="#EFCF7B"/><path d="M30.32 97.82C29.91 97.69 29.6 97.57 29.4 97.43 29.19 97.3 29.01 97.12 28.85 96.87 28.69 96.63 28.57 96.35 28.5 96.04 28.38 95.53 28.4 95.05 28.57 94.61 28.73 94.16 28.99 93.79 29.36 93.49 29.71 93.2 30.2 92.98 30.8 92.83 31.54 92.66 32.16 92.71 32.65 92.99 33.14 93.27 33.46 93.69 33.58 94.23 33.65 94.52 33.65 94.81 33.59 95.08 33.54 95.36 33.42 95.62 33.25 95.88 33.16 96.02 33 96.21 32.76 96.46 33.18 96.53 33.49 96.62 33.72 96.73 33.95 96.83 34.15 96.97 34.31 97.12 34.47 97.28 34.6 97.46 34.71 97.67 34.82 97.88 34.9 98.12 34.96 98.37 35.11 99.01 35.08 99.6 34.88 100.15 34.68 100.71 34.33 101.18 33.81 101.56 33.46 101.83 33.01 102.02 32.47 102.15 31.95 102.27 31.51 102.29 31.13 102.21 30.87 102.16 30.6 102.06 30.34 101.9 30.08 101.75 29.85 101.55 29.66 101.31 29.47 101.07 29.33 100.76 29.24 100.38 29.17 100.08 29.15 99.81 29.18 99.55 29.21 99.29 29.28 99.05 29.39 98.84 29.5 98.62 29.63 98.44 29.76 98.3 29.81 98.27 29.99 98.11 30.32 97.82ZM30.95 97.94C30.69 98.26 30.52 98.58 30.43 98.91 30.34 99.25 30.34 99.59 30.43 99.94 30.56 100.48 30.82 100.89 31.23 101.15 31.64 101.42 32.07 101.5 32.55 101.39 32.98 101.29 33.3 101.06 33.51 100.7 33.72 100.35 33.78 99.95 33.68 99.51 33.6 99.19 33.49 98.94 33.32 98.75 33.16 98.57 32.93 98.42 32.63 98.31 32.33 98.2 31.83 98.09 31.16 97.97L30.95 97.94ZM32.04 96.38C32.25 96.15 32.4 95.89 32.48 95.6 32.56 95.3 32.56 95.01 32.49 94.7 32.39 94.27 32.18 93.95 31.86 93.76 31.54 93.56 31.16 93.51 30.73 93.62 30.35 93.71 30.07 93.9 29.89 94.18 29.71 94.47 29.66 94.78 29.74 95.12 29.77 95.26 29.83 95.38 29.89 95.49 29.96 95.6 30.05 95.7 30.17 95.79 30.29 95.89 30.42 95.96 30.57 96.03 30.72 96.1 30.9 96.15 31.13 96.2L31.66 96.32 32.04 96.38Z" fill="#EFCF7B"/><path d="M17.01 81.29 16.39 80.99 16.49 80.7C16.66 80.71 16.82 80.7 16.99 80.66 17.44 80.56 17.82 80.35 18.15 80.04 18.48 79.74 18.73 79.38 18.89 78.98 19.05 78.57 19.15 78.13 19.18 77.67 19.19 77.32 19.15 76.79 19.07 76.08 18.73 76.58 18.5 76.9 18.37 77.05 18.32 77.12 18.26 77.18 18.18 77.24 17.89 77.42 17.58 77.55 17.26 77.62 16.69 77.75 16.16 77.65 15.66 77.31 15.17 76.96 14.82 76.39 14.63 75.58 14.4 74.59 14.49 73.74 14.91 73.01 15.33 72.29 15.97 71.83 16.82 71.63 17.49 71.47 18.07 71.51 18.58 71.74 19.08 71.97 19.5 72.33 19.83 72.79 20.16 73.26 20.41 73.9 20.6 74.7 20.82 75.65 20.87 76.47 20.75 77.18 20.63 77.89 20.38 78.53 20.02 79.09 19.66 79.66 19.22 80.13 18.73 80.5 18.23 80.88 17.66 81.14 17.01 81.29ZM18.71 74.42C18.53 73.67 18.29 73.12 17.96 72.75 17.64 72.38 17.25 72.25 16.82 72.35 16.48 72.43 16.23 72.64 16.08 72.98 15.92 73.31 15.92 73.81 16.08 74.49 16.19 74.98 16.35 75.36 16.54 75.64 16.74 75.91 16.95 76.1 17.2 76.18 17.44 76.27 17.68 76.29 17.92 76.24 18.14 76.19 18.33 76.09 18.5 75.92 18.66 75.76 18.76 75.56 18.8 75.34 18.83 75.11 18.8 74.8 18.71 74.42Z" fill="#EFCF7B"/><g><path d="M14.18 57.93 14.05 57.39 15.27 56.96C15.4 56.91 15.48 56.85 15.53 56.78 15.58 56.7 15.6 56.57 15.58 56.38 15.56 56.02 15.41 55.25 15.14 54.06L14.77 52.46C14.64 51.91 14.5 51.32 14.34 50.69L14.19 50.13C14.15 49.98 14.12 49.9 14.08 49.86 14.04 49.83 14 49.82 13.97 49.83 13.95 49.84 13.85 49.9 13.7 50.01 12.93 50.6 12.43 50.97 12.23 51.15L12.14 51.13C12.1 51.04 12.05 50.91 11.97 50.72 11.91 50.58 11.86 50.45 11.8 50.33L11.8 50.28C12.53 49.86 13.12 49.53 13.55 49.26 13.98 49 14.64 48.56 15.54 47.96L15.71 48.03C15.73 48.1 15.76 48.31 15.82 48.67 15.87 49.02 15.91 49.24 15.93 49.34 16.01 49.73 16.22 50.72 16.57 52.31L16.8 53.29C17.02 54.25 17.19 54.92 17.28 55.28 17.42 55.85 17.53 56.17 17.6 56.25 17.64 56.3 17.69 56.34 17.76 56.36 17.88 56.39 18.21 56.35 18.75 56.25 18.9 56.22 19.05 56.2 19.2 56.19L19.33 56.73C18.35 56.91 17.57 57.07 16.97 57.21 16.57 57.31 15.64 57.54 14.18 57.93Z" fill="#EFCF7B"/><path d="M19.43 52.28C19.25 51.51 19.14 50.8 19.1 50.13 19.07 49.7 19.12 49.3 19.22 48.91 19.33 48.52 19.47 48.19 19.66 47.92 19.85 47.64 20.08 47.41 20.38 47.22 20.67 47.04 21 46.9 21.36 46.81 22.09 46.64 22.7 46.67 23.18 46.88 23.66 47.11 24.06 47.48 24.38 48.02 24.69 48.56 24.97 49.34 25.21 50.38 25.38 51.11 25.49 51.75 25.55 52.32 25.61 52.89 25.58 53.38 25.48 53.82 25.38 54.25 25.24 54.61 25.05 54.9 24.86 55.18 24.63 55.42 24.37 55.6 24.09 55.79 23.74 55.93 23.32 56.03 22.81 56.15 22.35 56.15 21.93 56.05 21.51 55.95 21.14 55.73 20.81 55.41 20.49 55.09 20.22 54.66 20 54.12 19.78 53.6 19.59 52.98 19.43 52.28ZM20.82 50.98C21.05 51.98 21.31 52.86 21.61 53.64 21.9 54.42 22.19 54.91 22.47 55.12 22.76 55.33 23.05 55.4 23.34 55.33 23.7 55.25 23.95 55 24.09 54.57 24.24 54.15 24.15 53.23 23.82 51.81 23.6 50.89 23.33 49.98 23 49.09 22.82 48.61 22.65 48.27 22.48 48.04 22.31 47.82 22.14 47.67 21.96 47.59 21.77 47.52 21.57 47.5 21.35 47.55 21.12 47.6 20.92 47.73 20.77 47.92 20.63 48.11 20.54 48.38 20.52 48.75 20.5 49.26 20.59 50.01 20.82 50.98Z" fill="#EFCF7B"/></g><g><path d="M25.96 36.02 25.83 35.48 27.05 35.06C27.18 35.01 27.27 34.95 27.31 34.87 27.36 34.8 27.39 34.67 27.37 34.47 27.35 34.12 27.2 33.34 26.92 32.14L26.55 30.55C26.42 30 26.28 29.41 26.12 28.78L25.97 28.21C25.94 28.07 25.91 27.98 25.87 27.94 25.83 27.91 25.79 27.9 25.75 27.91 25.72 27.92 25.64 27.98 25.49 28.09 24.71 28.68 24.22 29.05 24.01 29.23L23.92 29.2C23.89 29.12 23.83 28.98 23.76 28.79 23.7 28.65 23.65 28.52 23.59 28.4L23.58 28.35C24.32 27.94 24.9 27.59 25.33 27.33 25.76 27.07 26.43 26.64 27.33 26.03L27.5 26.1C27.52 26.17 27.55 26.38 27.61 26.73 27.66 27.08 27.7 27.31 27.73 27.41 27.8 27.8 28.02 28.79 28.36 30.37L28.59 31.36C28.81 32.32 28.97 32.98 29.07 33.35 29.21 33.91 29.32 34.23 29.39 34.32 29.43 34.37 29.48 34.4 29.55 34.42 29.67 34.45 29.99 34.42 30.53 34.32 30.68 34.29 30.83 34.27 30.97 34.26L31.1 34.8C30.14 34.98 29.35 35.14 28.76 35.28 28.35 35.39 27.41 35.63 25.96 36.02Z" fill="#EFCF7B"/><path d="M32.25 34.54 32.12 34 33.34 33.58C33.47 33.53 33.55 33.47 33.6 33.4 33.65 33.32 33.67 33.2 33.65 33 33.63 32.64 33.48 31.87 33.2 30.67L32.83 29.08C32.7 28.53 32.56 27.94 32.4 27.3L32.24 26.73C32.21 26.59 32.18 26.5 32.14 26.46 32.11 26.43 32.07 26.42 32.03 26.42 32 26.43 31.91 26.49 31.76 26.6 30.98 27.18 30.49 27.56 30.29 27.74L30.2 27.71C30.16 27.63 30.11 27.49 30.03 27.3 29.97 27.16 29.92 27.03 29.86 26.91L29.86 26.86C30.6 26.45 31.18 26.1 31.61 25.84 32.04 25.58 32.7 25.15 33.61 24.54L33.78 24.61C33.79 24.68 33.83 24.89 33.88 25.24 33.94 25.59 33.98 25.81 34 25.91 34.07 26.29 34.29 27.29 34.64 28.87L34.87 29.85C35.09 30.81 35.25 31.48 35.35 31.85 35.49 32.41 35.6 32.73 35.67 32.82 35.71 32.87 35.76 32.9 35.83 32.92 35.95 32.95 36.28 32.92 36.82 32.82 36.97 32.79 37.11 32.77 37.26 32.76L37.39 33.3C36.42 33.48 35.64 33.64 35.04 33.78 34.65 33.92 33.71 34.16 32.25 34.54Z" fill="#EFCF7B"/></g></g><g><g><path d="M47.28 22.56 47.15 22.02 48.37 21.6C48.5 21.55 48.59 21.49 48.64 21.42 48.69 21.34 48.71 21.21 48.7 21.02 48.67 20.67 48.52 19.89 48.24 18.7L47.87 17.11C47.74 16.56 47.6 15.97 47.44 15.34L47.29 14.78C47.26 14.63 47.22 14.55 47.19 14.51 47.15 14.48 47.11 14.46 47.07 14.47 47.04 14.48 46.96 14.54 46.81 14.65 46.03 15.24 45.54 15.62 45.33 15.79L45.24 15.77C45.2 15.69 45.15 15.55 45.08 15.36 45.03 15.22 44.96 15.09 44.91 14.97L44.91 14.92C45.65 14.51 46.23 14.17 46.66 13.9 47.09 13.64 47.76 13.2 48.66 12.61L48.83 12.67C48.85 12.74 48.89 12.96 48.94 13.31 48.99 13.66 49.02 13.89 49.05 13.98 49.13 14.37 49.34 15.36 49.7 16.94L49.93 17.92C50.15 18.88 50.31 19.55 50.41 19.92 50.55 20.49 50.66 20.81 50.73 20.9 50.77 20.95 50.83 20.99 50.89 21.01 51.02 21.04 51.34 21 51.88 20.91 52.03 20.87 52.17 20.86 52.31 20.84L52.44 21.38C51.47 21.56 50.69 21.72 50.09 21.86 49.67 21.94 48.74 22.18 47.28 22.56Z"/><path d="M53.4 21.13 53.24 20.45 54.19 18.94C54.67 18.15 55.03 17.53 55.25 17.1 55.48 16.66 55.64 16.28 55.75 15.94 55.85 15.59 55.9 15.29 55.91 15.03 55.93 14.77 55.9 14.51 55.84 14.26 55.72 13.75 55.5 13.39 55.18 13.19 54.86 12.98 54.47 12.93 54.02 13.04 53.77 13.1 53.54 13.21 53.35 13.37 53.15 13.52 52.99 13.72 52.88 13.96 52.87 14.25 52.86 14.62 52.86 15.07L52.35 15.19 52.17 13.63C52.15 13.39 52.12 13.14 52.08 12.87 52.3 12.53 52.59 12.24 52.93 12.01 53.28 11.78 53.69 11.61 54.15 11.5 54.8 11.35 55.36 11.33 55.81 11.45 56.27 11.57 56.63 11.8 56.92 12.14 57.2 12.47 57.4 12.85 57.5 13.24 57.56 13.5 57.58 13.77 57.56 14.04 57.55 14.3 57.48 14.61 57.36 14.95 57.24 15.29 57.1 15.6 56.95 15.88L56.39 16.82 55.85 17.67C55.56 18.12 55.26 18.58 54.92 19.07L54.96 19.15 56.13 18.88C56.3 18.84 56.89 18.69 57.88 18.44 58.19 18.35 58.58 18.25 59.03 18.11L59.1 18.19C59.15 18.59 59.2 18.9 59.25 19.12 59.28 19.26 59.35 19.44 59.44 19.66L59.43 19.74 57.45 20.15C57.01 20.24 56.68 20.31 56.49 20.35L53.4 21.13Z"/></g><path d="M77.19 23.23 77.06 22.69 78.29 22.27C78.42 22.23 78.51 22.16 78.55 22.09 78.61 22.02 78.62 21.88 78.61 21.7 78.59 21.34 78.43 20.57 78.16 19.37L77.79 17.78C77.66 17.23 77.52 16.64 77.36 16L77.21 15.44C77.18 15.29 77.14 15.21 77.1 15.18 77.06 15.15 77.02 15.14 76.99 15.15 76.97 15.15 76.87 15.21 76.73 15.33 75.95 15.91 75.46 16.3 75.25 16.47L75.16 16.44C75.12 16.36 75.07 16.22 75 16.03 74.94 15.89 74.88 15.77 74.83 15.65L74.83 15.6C75.56 15.19 76.15 14.85 76.58 14.58 77.01 14.31 77.67 13.88 78.58 13.28L78.75 13.35C78.76 13.41 78.8 13.63 78.86 13.98 78.91 14.33 78.95 14.55 78.97 14.65 79.05 15.04 79.26 16.02 79.61 17.61L79.84 18.59C80.06 19.55 80.22 20.21 80.32 20.58 80.47 21.14 80.58 21.47 80.65 21.55 80.69 21.6 80.74 21.63 80.81 21.65 80.93 21.68 81.25 21.65 81.79 21.54 81.94 21.51 82.09 21.49 82.23 21.48L82.36 22.02C81.39 22.2 80.61 22.36 80.01 22.5 79.57 22.6 78.64 22.84 77.19 23.23Z"/><path d="M96.03 36.23 95.87 35.55 96.81 34.04C97.3 33.25 97.65 32.64 97.88 32.2 98.1 31.77 98.27 31.38 98.37 31.04 98.47 30.69 98.53 30.39 98.54 30.13 98.55 29.87 98.53 29.61 98.47 29.35 98.35 28.84 98.13 28.48 97.8 28.28 97.48 28.07 97.09 28.03 96.65 28.13 96.39 28.19 96.17 28.3 95.97 28.44 95.77 28.59 95.62 28.79 95.51 29.03 95.49 29.32 95.48 29.69 95.48 30.14L94.97 30.26 94.79 28.7C94.76 28.46 94.73 28.21 94.7 27.95 94.92 27.6 95.2 27.32 95.55 27.09 95.89 26.86 96.3 26.7 96.76 26.59 97.42 26.44 97.97 26.42 98.42 26.54 98.88 26.66 99.25 26.89 99.54 27.22 99.83 27.56 100.02 27.93 100.11 28.33 100.17 28.59 100.19 28.85 100.18 29.12 100.16 29.39 100.1 29.69 99.98 30.03 99.86 30.38 99.72 30.68 99.57 30.96L99 31.9 98.46 32.75C98.18 33.2 97.87 33.66 97.53 34.15L97.57 34.23 98.73 33.96C98.91 33.92 99.49 33.77 100.48 33.51 100.8 33.42 101.18 33.32 101.64 33.19L101.71 33.26C101.75 33.66 101.8 33.97 101.85 34.19 101.88 34.33 101.95 34.51 102.05 34.72L102.04 34.8 100.07 35.21C99.61 35.3 99.3 35.36 99.11 35.41L96.03 36.23Z"/><path d="M106.97 57.2C106.91 57.03 106.78 56.71 106.58 56.24 106.39 55.77 106.25 55.44 106.17 55.27L106.58 55.04C106.85 55.4 107.1 55.68 107.37 55.89 107.63 56.09 107.91 56.22 108.22 56.28 108.52 56.33 108.82 56.32 109.12 56.25 109.62 56.13 109.98 55.89 110.21 55.5 110.44 55.11 110.49 54.64 110.37 54.1 110.24 53.53 109.98 53.14 109.57 52.93 109.17 52.72 108.71 52.68 108.2 52.79 107.96 52.85 107.7 52.95 107.45 53.09L107.35 53.03 107.34 52.94 107.37 52.52 107.37 51.97 107.43 51.95 107.92 51.84C108.16 51.78 108.38 51.67 108.58 51.49 108.78 51.31 108.93 51.09 109 50.84 109.07 50.59 109.09 50.34 109.04 50.09 108.96 49.75 108.77 49.48 108.46 49.3 108.16 49.13 107.81 49.09 107.4 49.18 107.14 49.24 106.91 49.34 106.72 49.47 106.52 49.61 106.39 49.75 106.31 49.89 106.24 50.03 106.19 50.28 106.16 50.61 106.14 50.75 106.13 50.85 106.12 50.91L105.63 51 105.61 49.58C105.6 49.38 105.58 49.14 105.55 48.87 105.79 48.58 106.08 48.35 106.41 48.15 106.74 47.96 107.13 47.82 107.56 47.72 108.34 47.54 108.98 47.58 109.46 47.85 109.96 48.12 110.27 48.52 110.4 49.06 110.5 49.47 110.46 49.87 110.29 50.24 110.12 50.62 109.82 50.99 109.38 51.38 109.48 51.36 109.62 51.34 109.8 51.34 110.03 51.34 110.26 51.36 110.5 51.43 110.73 51.49 110.93 51.59 111.12 51.72 111.31 51.84 111.47 52.01 111.59 52.2 111.71 52.39 111.8 52.63 111.87 52.93 112.07 53.79 111.9 54.6 111.36 55.37 110.71 56.29 109.83 56.88 108.71 57.14 108.39 57.21 108.1 57.25 107.86 57.25 107.58 57.28 107.3 57.26 106.97 57.2Z"/><path d="M108.2 77.99 108.07 77.45C108.76 77.24 109.16 77.1 109.26 77.06 109.34 77.02 109.41 76.97 109.45 76.91 109.49 76.84 109.49 76.69 109.47 76.49 109.46 76.41 109.39 76.03 109.24 75.32L108.37 75.52C107.57 75.71 106.78 75.9 106 76.11L105.77 75.59C105.82 75.23 105.95 74.57 106.2 73.6 106.54 72.27 106.85 71.21 107.11 70.43 107.37 69.65 107.57 69.12 107.71 68.85L108.46 68.51C108.94 68.28 109.23 68.16 109.3 68.13L109.44 68.21C109.48 68.52 109.56 69 109.69 69.63 109.77 70.04 109.97 70.95 110.28 72.35L110.63 73.85 110.87 73.8 111.8 73.54 111.86 73.6 111.98 74.18C112 74.28 112.05 74.43 112.11 74.65L111.7 74.74 110.89 74.93C111.04 75.59 111.15 76.03 111.23 76.25 111.27 76.34 111.32 76.41 111.39 76.45 111.46 76.49 111.56 76.51 111.69 76.5L112.56 76.39 112.69 76.93C112.48 76.98 112.31 77.01 112.17 77.05L110.46 77.4 108.2 77.99ZM106.62 74.79 108.99 74.24 108.46 71.82 108.27 70.95 108.02 69.7C107.63 70.85 107.36 71.69 107.21 72.24 107.05 72.8 106.85 73.65 106.62 74.79Z"/><path d="M94.35 95.31 94.05 95.23C94.02 94.99 93.96 94.65 93.87 94.22L93.66 93.15 93.46 92.28 93.25 91.56C93.17 91.23 93.12 91.05 93.1 90.99 93.07 90.87 93.04 90.76 93 90.65 92.96 90.55 92.92 90.42 92.87 90.28L92.94 90.19C94.01 89.99 94.93 89.8 95.71 89.61 96.01 89.54 96.24 89.49 96.41 89.44L97.65 89.08 97.73 89.18C97.79 89.68 97.84 89.99 97.87 90.13 97.9 90.25 97.95 90.4 98 90.58L97.95 90.68C97.78 90.7 97.57 90.75 97.36 90.79 96.65 90.95 96.19 91.04 95.98 91.09 95.04 91.31 94.4 91.47 94.03 91.6L94.47 93.71C94.8 93.44 95.09 93.25 95.34 93.13 95.58 93.01 95.85 92.91 96.16 92.84 96.98 92.65 97.67 92.72 98.25 93.06 98.82 93.4 99.2 93.94 99.38 94.68 99.52 95.27 99.47 95.88 99.27 96.51 99.06 97.14 98.65 97.71 98.03 98.21 97.55 98.6 96.99 98.87 96.28 99.03 95.98 99.1 95.73 99.14 95.52 99.15 95.3 99.16 95.03 99.13 94.69 99.09 94.62 98.9 94.54 98.71 94.44 98.52 94.34 98.34 94.14 97.93 93.8 97.29L94.2 97.04C94.43 97.34 94.66 97.58 94.92 97.76 95.17 97.93 95.45 98.06 95.77 98.12 96.09 98.18 96.4 98.18 96.71 98.11 97.2 98 97.56 97.74 97.8 97.34 98.03 96.94 98.08 96.45 97.95 95.88 97.81 95.29 97.54 94.86 97.14 94.61 96.74 94.35 96.26 94.29 95.71 94.42 95.49 94.47 95.3 94.54 95.14 94.63 94.97 94.72 94.84 94.81 94.74 94.89 94.7 94.94 94.56 95.08 94.35 95.31Z"/><path d="M76.45 100.94 77.07 101.24 76.92 101.5C76.74 101.52 76.59 101.54 76.47 101.57 76.04 101.67 75.67 101.87 75.34 102.17 75 102.47 74.75 102.82 74.58 103.23 74.41 103.64 74.32 104.08 74.29 104.56 74.28 104.91 74.31 105.44 74.4 106.16 74.83 105.54 75.09 105.18 75.17 105.09 75.23 105.04 75.37 104.96 75.58 104.85 75.79 104.75 76 104.67 76.22 104.62 76.72 104.5 77.23 104.6 77.74 104.91 78.25 105.22 78.61 105.81 78.81 106.68 79.04 107.67 78.95 108.53 78.53 109.24 78.11 109.96 77.48 110.43 76.63 110.62 75.96 110.78 75.37 110.73 74.87 110.51 74.36 110.28 73.96 109.93 73.62 109.46 73.29 108.99 73.03 108.35 72.85 107.56 72.63 106.61 72.58 105.79 72.71 105.08 72.83 104.37 73.08 103.72 73.44 103.16 73.8 102.59 74.24 102.12 74.74 101.75 75.23 101.36 75.81 101.09 76.45 100.94ZM74.74 107.82C74.92 108.57 75.17 109.13 75.49 109.49 75.81 109.86 76.19 109.99 76.63 109.88 76.97 109.8 77.23 109.59 77.38 109.26 77.54 108.92 77.53 108.42 77.37 107.75 77.25 107.26 77.11 106.88 76.91 106.6 76.71 106.33 76.5 106.14 76.25 106.05 76.01 105.96 75.77 105.94 75.54 105.99 75.32 106.04 75.13 106.15 74.96 106.31 74.8 106.47 74.69 106.67 74.65 106.88 74.63 107.12 74.65 107.43 74.74 107.82Z"/><path d="M50.09 111.97 49.99 111.85C50.62 109.79 50.99 108.57 51.12 108.2 51.58 106.76 51.83 105.97 51.87 105.82L52.39 103.91 52.31 103.8 50.64 104.19 49.6 104.46C49.15 104.57 48.88 104.65 48.78 104.7 48.72 104.74 48.68 104.77 48.66 104.81 48.62 104.87 48.6 104.95 48.61 105.05 48.6 105.22 48.63 105.64 48.7 106.33L48.15 106.44C48.04 105.86 47.94 105.37 47.84 104.96 47.74 104.54 47.6 103.98 47.42 103.29L47.49 103.2 49.24 102.85C49.65 102.76 50.11 102.66 50.6 102.54 50.93 102.46 51.87 102.23 53.44 101.84L53.58 102.44C53.2 103.79 52.97 104.64 52.87 105.01 52.63 106 52.43 106.83 52.29 107.49 52.15 108.14 52.01 108.92 51.85 109.82 51.74 110.53 51.65 111.14 51.59 111.63 51.31 111.68 51.06 111.72 50.86 111.77 50.67 111.81 50.42 111.88 50.09 111.97Z"/><path d="M30.14 97.04C29.73 96.92 29.42 96.79 29.22 96.66 29.01 96.52 28.83 96.34 28.66 96.1 28.5 95.86 28.39 95.59 28.31 95.27 28.19 94.76 28.21 94.29 28.38 93.84 28.54 93.39 28.8 93.02 29.17 92.73 29.53 92.44 30.01 92.21 30.61 92.07 31.35 91.9 31.97 91.96 32.46 92.24 32.95 92.52 33.26 92.93 33.39 93.48 33.46 93.77 33.46 94.05 33.4 94.33 33.35 94.6 33.23 94.87 33.06 95.12 32.97 95.26 32.81 95.45 32.57 95.69 32.98 95.76 33.31 95.85 33.53 95.96 33.77 96.07 33.96 96.2 34.12 96.35 34.28 96.51 34.41 96.7 34.52 96.91 34.63 97.12 34.71 97.35 34.77 97.61 34.92 98.24 34.89 98.84 34.69 99.39 34.49 99.94 34.14 100.42 33.62 100.8 33.27 101.06 32.82 101.26 32.28 101.38 31.76 101.5 31.32 101.52 30.94 101.44 30.67 101.39 30.41 101.28 30.15 101.13 29.88 100.97 29.66 100.78 29.47 100.54 29.28 100.3 29.14 99.99 29.05 99.61 28.98 99.31 28.96 99.04 28.99 98.78 29.02 98.52 29.09 98.28 29.2 98.07 29.31 97.85 29.44 97.67 29.57 97.53 29.63 97.5 29.81 97.33 30.14 97.04ZM30.77 97.17C30.51 97.48 30.34 97.81 30.25 98.14 30.17 98.47 30.16 98.82 30.25 99.18 30.38 99.72 30.64 100.12 31.05 100.39 31.46 100.65 31.89 100.74 32.37 100.63 32.8 100.53 33.12 100.3 33.33 99.94 33.54 99.59 33.6 99.19 33.5 98.75 33.43 98.43 33.31 98.18 33.14 98 32.98 97.81 32.75 97.67 32.45 97.56 32.15 97.45 31.65 97.34 30.98 97.22L30.77 97.17ZM31.86 95.61C32.06 95.38 32.21 95.12 32.3 94.83 32.38 94.53 32.38 94.23 32.31 93.93 32.21 93.5 32 93.18 31.67 92.98 31.35 92.78 30.97 92.74 30.54 92.84 30.16 92.93 29.88 93.12 29.7 93.4 29.52 93.68 29.47 94 29.55 94.34 29.58 94.48 29.64 94.61 29.7 94.71 29.77 94.82 29.86 94.93 29.98 95.02 30.1 95.12 30.23 95.19 30.38 95.26 30.53 95.32 30.71 95.38 30.94 95.43L31.47 95.54 31.86 95.61Z"/><path d="M16.83 80.51 16.21 80.21 16.31 79.92C16.47 79.93 16.64 79.92 16.81 79.88 17.26 79.78 17.64 79.57 17.97 79.27 18.3 78.97 18.54 78.61 18.71 78.2 18.87 77.79 18.97 77.35 19 76.88 19.02 76.53 18.97 76 18.89 75.29 18.55 75.78 18.32 76.11 18.19 76.26 18.14 76.32 18.08 76.39 18 76.45 17.71 76.63 17.4 76.76 17.08 76.83 16.51 76.96 15.98 76.85 15.48 76.51 14.99 76.17 14.64 75.59 14.45 74.78 14.22 73.79 14.32 72.94 14.73 72.22 15.15 71.5 15.78 71.04 16.64 70.84 17.31 70.68 17.89 70.72 18.4 70.95 18.9 71.18 19.32 71.53 19.65 72.01 19.98 72.48 20.23 73.12 20.42 73.92 20.64 74.87 20.69 75.69 20.57 76.4 20.45 77.11 20.2 77.75 19.84 78.32 19.47 78.88 19.04 79.36 18.54 79.72 18.05 80.1 17.48 80.36 16.83 80.51ZM18.53 73.64C18.36 72.89 18.11 72.33 17.78 71.97 17.46 71.61 17.08 71.48 16.64 71.58 16.3 71.66 16.05 71.86 15.9 72.2 15.74 72.53 15.74 73.04 15.9 73.7 16.01 74.19 16.17 74.58 16.36 74.85 16.56 75.12 16.78 75.31 17.02 75.4 17.26 75.49 17.5 75.51 17.74 75.45 17.96 75.4 18.15 75.29 18.31 75.13 18.47 74.97 18.58 74.78 18.62 74.56 18.65 74.34 18.62 74.03 18.53 73.64Z"/><g><path d="M14 57.16 13.87 56.62 15.09 56.19C15.22 56.14 15.3 56.07 15.36 56 15.41 55.92 15.43 55.79 15.41 55.6 15.39 55.24 15.24 54.47 14.96 53.28L14.6 51.7C14.47 51.15 14.33 50.56 14.17 49.93L14.02 49.36C13.99 49.22 13.95 49.13 13.92 49.1 13.88 49.07 13.84 49.06 13.8 49.07 13.78 49.07 13.68 49.13 13.54 49.25 12.77 49.83 12.27 50.21 12.07 50.39L11.98 50.36C11.94 50.28 11.88 50.14 11.81 49.95 11.75 49.81 11.7 49.68 11.64 49.57L11.64 49.52C12.37 49.1 12.96 48.76 13.39 48.5 13.81 48.23 14.48 47.8 15.38 47.2L15.55 47.27C15.57 47.34 15.6 47.55 15.66 47.91 15.71 48.26 15.75 48.48 15.77 48.58 15.85 48.97 16.06 49.95 16.41 51.54L16.64 52.52C16.86 53.48 17.03 54.14 17.12 54.51 17.26 55.07 17.37 55.4 17.44 55.49 17.48 55.54 17.53 55.57 17.6 55.59 17.72 55.62 18.05 55.59 18.58 55.48 18.73 55.45 18.88 55.43 19.03 55.43L19.16 55.97C18.18 56.15 17.4 56.31 16.8 56.45 16.39 56.53 15.46 56.77 14 57.16Z"/><path d="M19.25 51.51C19.07 50.74 18.96 50.02 18.92 49.36 18.89 48.94 18.94 48.53 19.04 48.14 19.15 47.75 19.29 47.42 19.48 47.14 19.67 46.87 19.91 46.64 20.2 46.45 20.49 46.26 20.82 46.13 21.18 46.05 21.91 45.88 22.52 45.9 22.99 46.12 23.47 46.34 23.87 46.73 24.19 47.26 24.5 47.8 24.78 48.59 25.02 49.62 25.19 50.35 25.3 51 25.36 51.56 25.41 52.12 25.39 52.62 25.29 53.05 25.19 53.48 25.05 53.84 24.86 54.13 24.68 54.42 24.45 54.66 24.18 54.84 23.91 55.03 23.55 55.17 23.13 55.27 22.62 55.39 22.16 55.39 21.74 55.29 21.32 55.18 20.95 54.97 20.62 54.66 20.3 54.34 20.03 53.91 19.81 53.37 19.6 52.83 19.41 52.21 19.25 51.51ZM20.64 50.21C20.87 51.2 21.13 52.09 21.43 52.87 21.72 53.65 22.01 54.14 22.29 54.35 22.58 54.56 22.86 54.63 23.16 54.56 23.52 54.48 23.77 54.22 23.92 53.8 24.07 53.38 23.98 52.46 23.65 51.04 23.44 50.12 23.16 49.21 22.83 48.32 22.65 47.84 22.48 47.49 22.31 47.27 22.14 47.05 21.97 46.9 21.78 46.82 21.59 46.75 21.39 46.73 21.17 46.78 20.94 46.83 20.74 46.96 20.59 47.15 20.45 47.33 20.36 47.61 20.34 47.97 20.32 48.49 20.41 49.23 20.64 50.21Z"/></g><g><path d="M25.78 35.24 25.65 34.7 26.87 34.28C27 34.24 27.09 34.17 27.13 34.1 27.18 34.03 27.2 33.89 27.19 33.71 27.17 33.35 27.02 32.58 26.74 31.38L26.37 29.79C26.24 29.24 26.1 28.65 25.94 28.01L25.79 27.45C25.76 27.31 25.72 27.22 25.69 27.18 25.65 27.15 25.61 27.14 25.57 27.15 25.54 27.16 25.46 27.21 25.31 27.33 24.53 27.91 24.04 28.29 23.83 28.47L23.74 28.44C23.7 28.35 23.65 28.22 23.58 28.03 23.52 27.89 23.47 27.76 23.41 27.65L23.4 27.6C24.14 27.18 24.72 26.85 25.15 26.58 25.58 26.31 26.25 25.88 27.15 25.28L27.32 25.35C27.33 25.41 27.37 25.63 27.43 25.98 27.48 26.33 27.52 26.55 27.55 26.65 27.62 27.04 27.84 28.02 28.18 29.61L28.41 30.59C28.63 31.55 28.79 32.21 28.89 32.58 29.03 33.14 29.14 33.47 29.21 33.56 29.25 33.61 29.3 33.65 29.37 33.66 29.49 33.69 29.82 33.66 30.35 33.56 30.51 33.53 30.65 33.51 30.79 33.5L30.92 34.04C29.96 34.22 29.17 34.38 28.58 34.52 28.17 34.61 27.23 34.85 25.78 35.24Z"/><path d="M32.07 33.77 31.94 33.23 33.16 32.81C33.29 32.77 33.38 32.7 33.42 32.63 33.47 32.56 33.49 32.42 33.47 32.24 33.45 31.88 33.3 31.11 33.02 29.91L32.65 28.32C32.52 27.77 32.38 27.17 32.22 26.54L32.07 25.98C32.04 25.84 32 25.75 31.97 25.71 31.94 25.68 31.91 25.67 31.87 25.67 31.84 25.68 31.75 25.74 31.6 25.85 30.82 26.43 30.33 26.81 30.13 26.99L30.04 26.96C30 26.87 29.95 26.74 29.87 26.55 29.81 26.41 29.76 26.29 29.7 26.17L29.7 26.12C30.44 25.7 31.02 25.37 31.45 25.1 31.88 24.83 32.54 24.4 33.45 23.8L33.62 23.87C33.64 23.93 33.67 24.15 33.72 24.5 33.78 24.85 33.82 25.07 33.84 25.17 33.91 25.56 34.13 26.54 34.48 28.13L34.71 29.11C34.93 30.07 35.09 30.73 35.19 31.1 35.33 31.66 35.44 31.99 35.51 32.08 35.55 32.13 35.6 32.17 35.67 32.18 35.79 32.21 36.12 32.18 36.66 32.07 36.81 32.04 36.96 32.02 37.1 32.01L37.23 32.55C36.26 32.73 35.48 32.89 34.88 33.03 34.47 33.14 33.53 33.38 32.07 33.77Z"/></g></g><g><path d="M62.66 59.34C62.67 59.33 62.68 59.31 62.71 59.3 63.99 58.84 65.34 58.56 66.65 58.22 68.03 57.88 69.4 57.48 70.78 57.12 72.19 56.75 73.61 56.42 75.05 56.15 75.75 56.01 76.46 55.9 77.16 55.75 77.49 55.68 77.86 55.65 78.22 55.61 78.21 55.51 78.12 55.23 78.11 55.2 78.11 55.2 77.87 54.03 77.85 53.87 77.81 53.67 77.77 53.44 77.75 53.2 78.06 53.3 78.35 53.38 78.66 53.46 79.84 53.79 80.94 54.21 82.03 54.83 82.77 55.26 83.55 55.73 84.29 56.24 84.21 56.35 84.14 56.47 84.07 56.57 84.07 56.57 84.06 56.57 84.06 56.56 83.99 56.66 83.93 56.76 83.86 56.86 83.62 57.19 83.36 57.49 83.11 57.81 82.57 58.45 82.03 59.09 81.46 59.7 80.81 60.4 80.13 61.07 79.41 61.68 79.37 61.71 79.31 61.73 79.26 61.77 79.23 61.79 79.22 61.79 79.2 61.79 79.2 61.81 79.2 61.84 79.2 61.86 79.09 61.94 78.98 62.03 78.88 62.12 78.83 61.87 78.81 61.63 78.79 61.43 78.74 61 78.65 60.58 78.6 60.16 76.99 60.74 75.21 60.97 73.56 61.29 71.28 61.72 68.99 62.11 66.68 62.32 65.8 62.61 64.91 62.89 64.01 63.14 62.99 63.42 61.94 63.62 61.39 62.49 61.02 61.74 61.24 60.71 61.68 60.04 61.88 59.71 62.25 59.49 62.66 59.34Z"/><path d="M61.97 61.25C61.93 61.8 62 62.34 62.62 62.53 63.02 62.64 63.54 62.44 63.94 62.36 64.38 62.28 64.86 62.24 65.31 62.19 65.71 62.14 66.11 62.09 66.51 62.03 66.54 62 66.56 61.99 66.59 61.98 68.79 61.5 71 61.07 73.22 60.71 74.31 60.53 75.4 60.35 76.49 60.22 76.99 60.16 77.5 60.06 77.99 59.97 78.14 59.94 78.36 59.89 78.56 59.86 78.56 59.85 78.56 59.85 78.56 59.84 78.71 59.82 78.84 59.79 78.98 59.76 79.01 59.99 79.05 60.22 79.11 60.45 79.14 60.75 79.16 61.04 79.17 61.34 79.17 61.35 79.17 61.35 79.17 61.35 79.82 60.44 80.79 59.71 81.59 58.93 82.05 58.48 82.49 58.03 82.92 57.58 83.19 57.29 83.56 56.79 83.89 56.49 83.26 56.23 82.67 55.78 82.07 55.46 80.9 54.82 79.6 54.46 78.44 53.8 78.45 53.88 78.45 53.96 78.46 54.03 78.47 54.32 78.51 54.63 78.51 54.95 78.49 55.19 78.48 55.44 78.45 55.67 78.03 55.76 77.6 55.93 77.2 56.11 76.77 56.25 76.34 56.39 75.91 56.52 74.41 56.95 72.88 57.3 71.36 57.72 69.9 58.13 68.45 58.55 66.97 58.95 65.64 59.3 64.26 59.66 62.86 59.69 62.71 59.74 62.55 59.79 62.4 59.86 61.93 60.04 62.01 60.85 61.97 61.25Z" fill="#337ABE"/><g><path d="M62.41 59.85C62.56 59.79 62.72 59.74 62.87 59.68 64.27 59.65 65.66 59.29 66.98 58.94 67.19 58.88 67.41 58.82 67.63 58.75 67.86 59.59 67.9 60.66 67.9 60.66L79.34 58.05 79.56 59.51 83.69 56.38C83.76 56.42 83.83 56.45 83.9 56.48 83.57 56.78 83.2 57.28 82.93 57.57 82.5 58.02 82.05 58.47 81.6 58.92 80.8 59.7 79.83 60.43 79.18 61.34 79.17 61.34 79.17 61.34 79.18 61.33 79.17 61.03 79.15 60.74 79.12 60.44 79.07 60.21 79.03 59.98 78.99 59.75 78.85 59.77 78.72 59.8 78.57 59.83 78.57 59.84 78.57 59.85 78.57 59.85 78.36 59.89 78.14 59.93 78 59.96 77.51 60.05 77 60.16 76.5 60.21 75.4 60.34 74.32 60.52 73.23 60.7 71.01 61.06 68.8 61.49 66.6 61.97 66.56 61.98 66.54 62 66.52 62.02 66.12 62.08 65.72 62.13 65.32 62.18 64.87 62.23 64.39 62.27 63.95 62.35 63.55 62.43 63.03 62.63 62.63 62.52 62.01 62.32 61.94 61.79 61.98 61.24 62.01 60.85 61.93 60.04 62.41 59.85Z" fill="#337ABE"/></g><path d="M59.91 30.34C59.16 29.46 58.36 28.67 57.41 28 56.75 27.53 56.04 27.04 55.31 26.61 55.23 26.71 55.17 26.82 55.11 26.94 55.12 26.94 55.12 26.94 55.12 26.94 55.05 27.03 54.99 27.13 54.94 27.22 54.75 27.56 54.59 27.9 54.42 28.24 54.08 28.95 53.74 29.67 53.45 30.4 53.1 31.24 52.8 32.09 52.56 32.95 52.55 33 52.55 33.06 52.54 33.11 52.53 33.13 52.54 33.15 52.54 33.17 52.52 33.18 52.51 33.18 52.49 33.19 52.46 33.32 52.43 33.44 52.4 33.57 52.63 33.5 52.84 33.44 53.03 33.38 53.42 33.25 53.81 33.16 54.2 33.04 54.33 34.65 55.75 40.21 56.14 41.75 56.6 43.62 60.26 57.23 61.23 60.39 61.23 60.46 61.25 60.53 61.26 60.59 61.26 60.65 61.28 60.72 61.31 60.76 61.34 60.84 61.4 60.99 61.34 60.8 61.41 60.98 61.62 61.02 61.79 61.01 61.99 60.99 62.19 60.94 62.39 60.89 62.72 60.81 63.1 60.93 63.38 60.72 63.61 60.55 64.01 60.51 64.13 60.24 64.14 60.23 64.14 60.22 64.14 60.2 64.18 60.18 64.21 60.17 64.26 60.16 64.01 58.88 61.03 43.76 60.8 42.47 60.56 41.11 59.36 35.84 59.04 34.49 58.88 33.83 58.7 33.18 58.55 32.51 58.48 32.2 58.35 31.88 58.25 31.55 58.34 31.52 58.62 31.49 58.63 31.49 58.63 31.48 59.74 31.23 59.88 31.19 60.07 31.14 60.29 31.08 60.49 31 60.29 30.79 60.09 30.57 59.91 30.34Z"/><path d="M59.49 30.74C59.23 30.84 58.95 30.93 58.68 31.05 58.48 31.16 58.28 31.26 58.09 31.38 58.17 31.79 58.19 32.21 58.21 32.64 58.25 33.07 58.29 33.49 58.36 33.9 58.57 35.27 63.23 56.37 63.91 59.75 63.9 59.88 63.89 60.12 63.91 60.1 63.91 60.1 63.37 60.05 63.3 60.07 62.9 60.23 62.48 60.27 62.08 60.39 61.82 60.47 61.69 60.47 61.6 60.36 61.11 58.22 57.26 43.66 56.75 41.8 56.47 40.8 55.28 35.86 54.96 34.86 54.81 34.4 54.7 33.94 54.58 33.48 54.55 33.34 54.5 33.14 54.45 32.94 54.46 32.94 54.47 32.94 54.47 32.94 54.44 32.8 54.41 32.67 54.38 32.53 54.16 32.6 53.96 32.66 53.74 32.71 53.47 32.79 53.21 32.89 52.94 33L52.94 33C53.46 32.07 53.71 30.96 54.06 29.96 54.27 29.4 54.47 28.84 54.7 28.28 54.84 27.94 55.12 27.42 55.25 27.03 55.72 27.46 56.34 27.8 56.85 28.18 57.85 28.93 58.68 29.92 59.7 30.64 59.62 30.68 59.56 30.71 59.49 30.74Z" fill="#337ABE"/><g><path d="M56.08 31.37 54.41 31.76 55.46 27.23C55.38 27.17 55.31 27.11 55.24 27.04 55.11 27.43 54.83 27.95 54.69 28.29 54.46 28.84 54.26 29.41 54.05 29.97 53.7 30.97 53.46 32.08 52.93 33.01L52.93 33.01C53.2 32.9 53.46 32.8 53.73 32.72 53.95 32.67 54.15 32.61 54.37 32.54 54.4 32.67 54.43 32.81 54.46 32.95 54.46 32.95 54.45 32.95 54.44 32.95 54.49 33.15 54.54 33.35 54.57 33.49 54.69 33.95 54.8 34.42 54.95 34.87 55.27 35.87 56.46 40.8 56.74 41.81 57.25 43.67 61.1 58.23 61.59 60.37 61.69 60.48 61.81 60.48 62.07 60.4 62.47 60.28 62.9 60.23 63.29 60.08 63.36 60.06 63.9 60.1 63.9 60.1 63.89 60.12 63.9 59.88 63.9 59.75 63.75 58.97 63.42 57.46 63.02 55.57 62.23 55.37 61.69 55.45 61.69 55.45L56.08 31.37Z" fill="#337ABE"/></g></g><g><path d="M67.57 60.89C68.17 63.44 66.57 65.99 64.03 66.59 61.48 67.19 58.93 65.6 58.34 63.05 57.75 60.51 59.33 57.95 61.88 57.36 64.41 56.76 66.98 58.34 67.57 60.89Z" fill="#855121"/><path d="M67.1 61C67.64 63.29 66.21 65.59 63.92 66.13 61.63 66.67 59.34 65.23 58.8 62.94 58.26 60.65 59.68 58.36 61.98 57.82 64.27 57.29 66.56 58.72 67.1 61Z" fill="#F0AC1E"/><path d="M65.63 60.31C66 61.9 65.02 63.48 63.43 63.85 61.84 64.22 60.25 63.24 59.88 61.65 59.51 60.07 60.5 58.48 62.09 58.11 63.67 57.74 65.26 58.73 65.63 60.31Z" fill="#FDDF00"/><g opacity="0.5"><path d="M61.98 57.82C59.69 58.36 58.27 60.65 58.8 62.94 59.34 65.23 61.62 66.66 63.92 66.13 66.21 65.59 67.63 63.3 67.1 61 66.56 58.72 64.27 57.29 61.98 57.82ZM63.56 64.8C61.69 65.24 59.82 64.08 59.39 62.21 58.95 60.34 60.12 58.47 61.98 58.04 63.85 57.6 65.71 58.77 66.15 60.63 66.58 62.5 65.43 64.37 63.56 64.8Z" fill="#D79728"/></g></g></g><path d="M20.9 102.92C20.9 102.92 21.13 103.16 21.59 103.59 22.04 104.03 22.73 104.63 23.61 105.39 24.49 106.16 25.61 107.03 26.91 108 28.23 108.95 29.74 109.99 31.43 111.03 33.13 112.07 35 113.14 37.06 114.13 38.07 114.65 39.15 115.09 40.24 115.57 41.36 116 42.48 116.49 43.65 116.87 45.98 117.72 48.47 118.33 51 118.89 53.55 119.36 56.17 119.75 58.8 119.84 59.46 119.86 60.11 119.93 60.77 119.93L62.74 119.9 63.73 119.89 64.71 119.82C65.37 119.77 66.02 119.72 66.67 119.67 67.32 119.64 67.94 119.52 68.59 119.43 69.23 119.34 69.87 119.26 70.5 119.17 71.75 118.95 72.99 118.67 74.2 118.43 75.4 118.14 76.57 117.79 77.73 117.49 78.88 117.17 79.98 116.75 81.05 116.4 82.15 116.07 83.15 115.6 84.15 115.2 85.14 114.79 86.12 114.43 87.01 113.98 88.81 113.12 90.48 112.36 91.9 111.56 93.33 110.79 94.59 110.13 95.56 109.49 97.56 108.28 98.71 107.59 98.71 107.59 98.71 107.59 97.62 108.37 95.73 109.74 94.78 110.45 93.57 111.19 92.18 112.05 91.48 112.46 90.77 112.97 89.95 113.4 89.14 113.83 88.29 114.29 87.39 114.76 86.52 115.26 85.55 115.67 84.56 116.13 83.56 116.57 82.55 117.07 81.46 117.45 80.37 117.84 79.27 118.31 78.11 118.67 76.94 119.02 75.75 119.39 74.52 119.72 73.28 119.99 72.02 120.29 70.75 120.55 69.46 120.74 68.16 120.99 66.82 121.11 66.16 121.17 65.49 121.22 64.82 121.28L63.82 121.36 62.81 121.38 60.78 121.42C60.1 121.42 59.42 121.37 58.75 121.34 56.04 121.24 53.35 120.81 50.73 120.31 49.43 119.99 48.14 119.74 46.89 119.33 46.27 119.14 45.64 118.95 45.03 118.76 44.43 118.55 43.82 118.33 43.22 118.11 42.62 117.91 42.04 117.67 41.46 117.43 40.89 117.18 40.32 116.96 39.76 116.7 38.66 116.17 37.57 115.68 36.56 115.12 34.49 114.06 32.64 112.88 30.97 111.75 29.29 110.62 27.84 109.47 26.58 108.43 25.33 107.37 24.27 106.42 23.43 105.59 22.59 104.78 21.97 104.09 21.55 103.63 21.11 103.17 20.9 102.92 20.9 102.92Z" fill="#FAF3A1" opacity="0.6"/></g></svg>