<svg width="79.66" height="63.58" viewBox="0 0 79.66 63.58" xmlns="http://www.w3.org/2000/svg" xmlns:xlink="http://www.w3.org/1999/xlink" xml:space="preserve" overflow="hidden"><defs></defs><g><rect x="1.24" y="1.24" width="77.19" height="61.11" fill="#FFFFFF"/><path d="M79.66 63.58 0 63.58 0 0 79.66 0 79.66 63.58ZM2.47 61.11 77.19 61.11 77.19 2.47 2.47 2.47 2.47 61.11Z" fill="#DE5871"/></g><g><path d="M61.06 15.7C61.12 15.96 61.05 16.23 60.98 16.48 59.82 20.66 57.66 24.24 57.27 28.55 57.17 29.67 57.25 30.81 57.15 31.93 57.05 33.08 56.76 34.2 56.46 35.31 56.04 36.89 55.63 38.47 55.22 40.06L55.28 40.08 60.44 44.32C60.44 44.32 60.59 48.03 55.2 54.03 50.86 58.85 47.25 59.24 45.99 59.21 44.68 56.99 43.39 54.78 42.08 52.57 35.15 46.71 27.11 41.63 18.11 40.51 15.83 40.23 13.45 40.18 11.38 39.16 10.8 38.23 10.95 36.91 11.71 36.13 12.84 34.97 14.73 35.18 16.34 35.39 19.56 35.82 22.82 35.91 26.06 35.66 26.52 35.63 27.1 35.5 27.22 35.05 27.32 34.68 27.04 34.32 26.78 34.05 25.76 33.04 24.57 32.22 23.42 31.38 20.54 29.26 17.9 26.82 15.26 24.4 14.5 23.69 13.7 22.97 13.28 22.02 12.84 21.08 12.85 19.85 13.57 19.11 14.24 18.4 15.35 18.3 16.28 18.59 17.2 18.88 17.99 19.5 18.74 20.11 22.58 23.18 26.41 26.27 30.25 29.34 30.46 28.68 29.9 28.05 29.4 27.57 26.14 24.49 22.87 21.4 19.6 18.32 18.58 17.35 17.52 16.35 16.97 15.05 16.41 13.76 16.47 12.08 17.5 11.12 17.7 10.93 17.94 10.76 18.2 10.7 18.99 10.5 19.73 11.11 20.32 11.68 24.67 15.9 29.02 20.14 33.38 24.37 33.67 24.66 34.02 24.96 34.42 24.96 34.69 24.96 34.95 24.74 35.01 24.5 32.77 19.23 29.44 14.52 26.68 9.51 26.4 9 26.12 8.43 26.27 7.87 26.45 7.24 27.15 6.87 27.8 6.88 28.45 6.9 29.06 7.23 29.59 7.61 30.56 8.3 31.4 9.16 32.19 10.04 37.11 15.53 40.81 22.13 46.36 26.98 46.84 27.4 47.38 27.82 48.02 27.88 49.01 27.97 49.84 27.18 50.43 26.38 51.06 25.52 51.58 24.58 51.97 23.58 52.7 21.72 52.98 19.71 53.73 17.87 54.49 16.02 55.9 14.26 57.86 13.88 59.09 13.63 60.99 15.41 61.06 15.7Z" fill="#ECB7A7"/><path d="M27.61 37.08C28.1 30.57 33.51 24.65 39.72 22.96 34.38 26.35 29.91 31.13 27.61 37.08L27.61 37.08Z" fill="#E69484"/><path d="M32.49 37.82C37.2 34.17 44.29 33.68 49.45 36.65 43.75 35.49 37.97 35.88 32.49 37.82L32.49 37.82Z" fill="#E69484"/></g></svg>