<svg width="83.56" height="57.06" viewBox="0 0 83.56 57.06" xmlns="http://www.w3.org/2000/svg" xmlns:xlink="http://www.w3.org/1999/xlink" xml:space="preserve" overflow="hidden"><defs></defs><linearGradient x1="70.952" y1="9.7047" x2="-0.2441" y2="50.9725" gradientUnits="userSpaceOnUse" id="SVGID_1_"><stop offset="0" stop-color="#D13637"/><stop offset="1" stop-color="#C12F37"/></linearGradient><path d="M83.56 48.86C83.56 48.86 81.21 47.35 77.05 45.93 76.88 45.87 76.7 45.81 76.51 45.75 76.31 45.68 76.1 45.62 75.89 45.55 75.77 45.51 75.65 45.48 75.53 45.44 73.97 44.97 72.21 44.53 70.26 44.19 70.1 44.16 69.94 44.13 69.78 44.11 69.42 44.05 69.05 43.99 68.67 43.94 68.63 43.93 68.59 43.93 68.55 43.93 67.69 43.81 66.8 43.71 65.87 43.63 65.66 43.62 65.45 43.6 65.23 43.59 64.42 43.53 63.59 43.5 62.73 43.49L62.66 43.49C62.46 43.49 62.27 43.49 62.07 43.49 60.07 43.5 58.2 43.68 56.43 43.99 56.31 44.01 56.2 44.03 56.08 44.05 55.25 44.21 54.44 44.39 53.64 44.6 53.47 44.64 53.29 44.69 53.12 44.74 50.86 45.38 48.73 46.21 46.65 47.17L46.65 47.17C46.59 47.2 46.52 47.23 46.46 47.26 46.25 47.36 46.04 47.45 45.84 47.55 45.67 47.63 45.5 47.71 45.33 47.79 43.59 48.63 41.87 49.54 40.11 50.47 39.77 50.65 39.42 50.84 39.08 51.02 38.54 51.31 37.99 51.59 37.44 51.88 37.23 51.99 37.02 52.1 36.82 52.2 36.56 52.33 36.3 52.46 36.03 52.6 35.88 52.67 35.74 52.75 35.59 52.82 34.6 53.31 33.58 53.8 32.53 54.28 32.37 54.35 32.21 54.42 32.05 54.5 31.87 54.58 31.69 54.66 31.51 54.73 30.01 55.38 28.57 55.87 27.19 56.23 27.04 56.27 26.89 56.31 26.73 56.34 25.61 56.62 24.54 56.8 23.5 56.92 23.34 56.94 23.18 56.96 23.02 56.97 20.49 57.2 18.2 57.02 16.15 56.63 15.94 56.59 15.73 56.55 15.52 56.5 13.55 56.08 11.8 55.47 10.27 54.89 10.14 54.85 10.02 54.8 9.9 54.75L9.9 54.75C9.23 54.49 8.61 54.24 8.03 54.01 8.02 54 8 54 7.99 53.99 7.92 53.96 7.84 53.93 7.77 53.91 3.15 52.17 0 53.98 0 53.98L0 4.44C0 4.44 1.67 2.86 6.41 2.49 11.15 2.12 19.05 4.26 23.33 5.65 27.61 7.04 33.81 8.82 39.41 7.89 45.01 6.96 49.36 1.2 56.05 0.23 64.6-1.01 68.88 3.33 68.88 3.33L79.76 37.07 79.83 37.29 80.38 38.99 80.58 39.63 80.8 40.32 80.9 40.64 81.03 41.05 81.22 41.64 81.51 42.54 82.19 44.67 82.61 45.97 83.56 48.86Z" fill="url(#SVGID_1_)"/></svg>