<svg width="107.93" height="174.38" viewBox="0 0 107.93 174.38" xmlns="http://www.w3.org/2000/svg" xmlns:xlink="http://www.w3.org/1999/xlink" xml:space="preserve" overflow="hidden"><defs></defs><g><path d="M100.82 174.38 103.08 174.38C104.1 174.38 104.87 173.45 104.68 172.45L100.76 157.22 95.19 157.22 99.22 173.05C99.36 173.82 100.03 174.38 100.82 174.38Z" fill="#603913"/><path d="M6.74 174.38 4.48 174.38C3.46 174.38 2.69 173.45 2.88 172.45L6.8 157.22 12.37 157.22 8.34 173.05C8.2 173.82 7.52 174.38 6.74 174.38Z" fill="#603913"/><path d="M4.94 165.8 102.98 165.8C105.71 165.8 107.92 163.59 107.92 160.86L107.92 4.94C107.92 2.21 105.71 0 102.98 0L4.94 0C2.21 0 0 2.21 0 4.94L0 160.85C0 163.59 2.21 165.8 4.94 165.8Z" fill="#8B5E3C"/><rect x="56.77" y="7.66" width="45.66" height="150.47" fill="#603913" transform="matrix(-1 -1.22465e-16 1.22465e-16 -1 159.203 165.78)"/><rect x="5.51" y="7.66" width="45.88" height="150.46" fill="#A97C50"/><rect x="43.59" y="68.25" width="3.47" height="28.22" fill="#603913" transform="matrix(-1 -1.22465e-16 1.22465e-16 -1 90.6562 164.715)"/><rect x="56.65" y="40.93" width="48.06" height="3.55" fill="#8B5E3C"/><rect x="56.65" y="80.15" width="48.06" height="3.55" fill="#8B5E3C"/><rect x="56.65" y="119.37" width="48.06" height="3.55" fill="#8B5E3C"/><g><g><path d="M96.04 38.91C96.04 39.11 96 39.3 95.93 39.47 95.85 39.67 95.73 39.86 95.58 40.01 95.3 40.29 94.9 40.47 94.47 40.47L64.51 40.47C63.64 40.47 62.94 39.77 62.94 38.9 62.94 38.47 63.11 38.08 63.4 37.79 63.69 37.5 64.08 37.33 64.51 37.33L94.48 37.33C95.15 37.33 95.72 37.75 95.94 38.33 96.01 38.53 96.04 38.72 96.04 38.91Z" fill="#F2C34C"/><path d="M96.04 38.91C96.04 39.11 96 39.3 95.93 39.47L65.51 39.47C65.2 39.47 64.95 39.22 64.95 38.91 64.95 38.75 65.01 38.61 65.12 38.51 65.22 38.41 65.36 38.34 65.52 38.34L95.95 38.34C96.01 38.53 96.04 38.72 96.04 38.91Z" fill="#EAB02F"/><path d="M96.04 31.43C96.04 31.63 96 31.82 95.93 31.99 95.85 32.19 95.73 32.38 95.58 32.53 95.3 32.81 94.9 32.99 94.47 32.99L64.51 32.99C63.64 32.99 62.94 32.29 62.94 31.42 62.94 30.99 63.11 30.6 63.4 30.31 63.68 30.03 64.08 29.85 64.51 29.85L94.48 29.85C95.15 29.85 95.72 30.27 95.94 30.85 96.01 31.04 96.04 31.23 96.04 31.43Z" fill="#662D91"/><path d="M96.04 31.43C96.04 31.63 96 31.82 95.93 31.99L65.51 31.99C65.2 31.99 64.95 31.74 64.95 31.43 64.95 31.27 65.01 31.13 65.12 31.03 65.22 30.93 65.36 30.86 65.52 30.86L95.95 30.86C96.01 31.04 96.04 31.23 96.04 31.43Z" fill="#4A1975"/><path d="M62.94 20.05C62.94 19.85 62.98 19.66 63.05 19.49 63.13 19.29 63.25 19.1 63.4 18.95 63.68 18.67 64.08 18.49 64.51 18.49L94.48 18.49C95.35 18.49 96.05 19.19 96.05 20.06 96.05 20.49 95.88 20.88 95.59 21.17 95.31 21.45 94.91 21.63 94.48 21.63L64.51 21.63C63.84 21.63 63.27 21.21 63.05 20.63 62.98 20.44 62.94 20.25 62.94 20.05Z" fill="#F1F2F2"/><path d="M62.94 20.05C62.94 19.85 62.98 19.66 63.05 19.49L93.48 19.49C93.79 19.49 94.04 19.74 94.04 20.05 94.04 20.21 93.98 20.35 93.87 20.45 93.77 20.55 93.63 20.62 93.47 20.62L63.05 20.62C62.98 20.44 62.94 20.25 62.94 20.05Z" fill="#E6E7E8"/><path d="M96.04 16.91C96.04 17.11 96 17.3 95.93 17.47 95.85 17.67 95.73 17.86 95.58 18.01 95.3 18.29 94.9 18.47 94.47 18.47L64.51 18.47C63.64 18.47 62.94 17.77 62.94 16.9 62.94 16.47 63.11 16.08 63.4 15.79 63.68 15.51 64.08 15.33 64.51 15.33L94.48 15.33C95.15 15.33 95.72 15.75 95.94 16.33 96.01 16.53 96.04 16.72 96.04 16.91Z" fill="#27AAE1"/><path d="M96.04 16.91C96.04 17.11 96 17.3 95.93 17.47L65.51 17.47C65.2 17.47 64.95 17.22 64.95 16.91 64.95 16.75 65.01 16.61 65.12 16.51 65.22 16.41 65.36 16.34 65.52 16.34L95.95 16.34C96.01 16.53 96.04 16.72 96.04 16.91Z" fill="#1695C1"/><path d="M62.94 28.29C62.94 28.09 62.98 27.9 63.05 27.73 63.13 27.53 63.25 27.34 63.4 27.19 63.68 26.91 64.08 26.73 64.51 26.73L94.48 26.73C95.35 26.73 96.05 27.43 96.05 28.3 96.05 28.73 95.88 29.12 95.59 29.41 95.31 29.69 94.91 29.87 94.48 29.87L64.51 29.87C63.84 29.87 63.27 29.45 63.05 28.87 62.98 28.68 62.94 28.49 62.94 28.29Z" fill="#F2C34C"/><path d="M62.94 28.29C62.94 28.09 62.98 27.9 63.05 27.73L93.48 27.73C93.79 27.73 94.04 27.98 94.04 28.29 94.04 28.45 93.98 28.59 93.87 28.69 93.77 28.79 93.63 28.86 93.47 28.86L63.05 28.86C62.98 28.68 62.94 28.49 62.94 28.29Z" fill="#EAB02F"/><path d="M96.04 24.2C96.04 24.52 96 24.83 95.93 25.11 95.85 25.44 95.73 25.74 95.58 25.99 95.3 26.45 94.9 26.73 94.47 26.73L64.51 26.73C63.64 26.73 62.94 25.6 62.94 24.2 62.94 23.5 63.11 22.87 63.4 22.41 63.68 21.95 64.08 21.67 64.51 21.67L94.48 21.67C95.15 21.67 95.72 22.34 95.94 23.29 96.01 23.57 96.04 23.88 96.04 24.2Z" fill="#E6E7E8"/><path d="M96.04 24.2C96.04 24.52 96 24.83 95.93 25.11L65.51 25.11C65.2 25.11 64.95 24.7 64.95 24.2 64.95 23.95 65.01 23.72 65.12 23.56 65.22 23.4 65.36 23.29 65.52 23.29L95.95 23.29C96.01 23.57 96.04 23.88 96.04 24.2Z" fill="#D1D3D4"/><path d="M62.94 35.17C62.94 34.89 62.98 34.63 63.05 34.39 63.13 34.11 63.25 33.85 63.4 33.63 63.68 33.24 64.08 32.99 64.51 32.99L94.48 32.99C95.35 32.99 96.05 33.96 96.05 35.17 96.05 35.77 95.88 36.31 95.59 36.71 95.31 37.1 94.91 37.35 94.48 37.35L64.51 37.35C63.84 37.35 63.27 36.77 63.05 35.96 62.98 35.71 62.94 35.45 62.94 35.17Z" fill="#F1F2F2"/><path d="M62.94 35.17C62.94 34.89 62.98 34.63 63.05 34.39L93.48 34.39C93.79 34.39 94.04 34.74 94.04 35.17 94.04 35.39 93.98 35.58 93.87 35.72 93.77 35.86 93.63 35.95 93.47 35.95L63.05 35.95C62.98 35.71 62.94 35.45 62.94 35.17Z" fill="#E6E7E8"/></g><g><path d="M62.94 134.52C62.94 134.32 62.98 134.13 63.05 133.96 63.13 133.76 63.25 133.57 63.4 133.42 63.68 133.14 64.08 132.96 64.51 132.96L94.48 132.96C95.35 132.96 96.05 133.66 96.05 134.53 96.05 134.96 95.88 135.35 95.59 135.64 95.31 135.92 94.91 136.1 94.48 136.1L64.51 136.1C63.84 136.1 63.27 135.68 63.05 135.1 62.98 134.91 62.94 134.72 62.94 134.52Z" fill="#F2C34C"/><path d="M62.94 134.52C62.94 134.32 62.98 134.13 63.05 133.96L93.48 133.96C93.79 133.96 94.04 134.21 94.04 134.52 94.04 134.68 93.98 134.82 93.87 134.92 93.77 135.02 93.63 135.09 93.47 135.09L63.05 135.09C62.98 134.91 62.94 134.72 62.94 134.52Z" fill="#EAB02F"/><path d="M62.94 142.01C62.94 141.81 62.98 141.62 63.05 141.45 63.13 141.24 63.25 141.06 63.4 140.91 63.68 140.63 64.08 140.45 64.51 140.45L94.48 140.45C95.35 140.45 96.05 141.15 96.05 142.02 96.05 142.45 95.88 142.84 95.59 143.13 95.31 143.41 94.91 143.59 94.48 143.59L64.51 143.59C63.84 143.59 63.27 143.17 63.05 142.59 62.98 142.4 62.94 142.21 62.94 142.01Z" fill="#662D91"/><path d="M62.94 142.01C62.94 141.81 62.98 141.62 63.05 141.45L93.48 141.45C93.79 141.45 94.04 141.7 94.04 142.01 94.04 142.17 93.98 142.31 93.87 142.41 93.77 142.51 93.63 142.58 93.47 142.58L63.05 142.58C62.98 142.4 62.94 142.21 62.94 142.01Z" fill="#4A1975"/><path d="M96.04 153.39C96.04 153.59 96 153.78 95.93 153.95 95.85 154.15 95.73 154.34 95.58 154.49 95.3 154.77 94.9 154.95 94.47 154.95L64.51 154.95C63.64 154.95 62.94 154.25 62.94 153.38 62.94 152.95 63.11 152.56 63.4 152.27 63.68 151.99 64.08 151.81 64.51 151.81L94.48 151.81C95.15 151.81 95.72 152.23 95.94 152.81 96.01 153 96.04 153.19 96.04 153.39Z" fill="#F1F2F2"/><path d="M96.04 153.39C96.04 153.59 96 153.78 95.93 153.95L65.51 153.95C65.2 153.95 64.95 153.7 64.95 153.39 64.95 153.23 65.01 153.09 65.12 152.99 65.22 152.89 65.36 152.82 65.52 152.82L95.95 152.82C96.01 153 96.04 153.19 96.04 153.39Z" fill="#E6E7E8"/><path d="M62.94 156.52C62.94 156.32 62.98 156.13 63.05 155.96 63.13 155.75 63.25 155.57 63.4 155.42 63.68 155.14 64.08 154.96 64.51 154.96L94.48 154.96C95.35 154.96 96.05 155.66 96.05 156.53 96.05 156.96 95.88 157.35 95.59 157.64 95.31 157.92 94.91 158.1 94.48 158.1L64.51 158.1C63.84 158.1 63.27 157.68 63.05 157.1 62.98 156.91 62.94 156.72 62.94 156.52Z" fill="#27AAE1"/><path d="M62.94 156.52C62.94 156.32 62.98 156.13 63.05 155.96L93.48 155.96C93.79 155.96 94.04 156.21 94.04 156.52 94.04 156.68 93.98 156.82 93.87 156.92 93.77 157.02 93.63 157.09 93.47 157.09L63.05 157.09C62.98 156.91 62.94 156.72 62.94 156.52Z" fill="#1695C1"/><path d="M96.04 145.14C96.04 145.34 96 145.53 95.93 145.7 95.85 145.91 95.73 146.09 95.58 146.24 95.3 146.52 94.9 146.7 94.47 146.7L64.51 146.7C63.64 146.7 62.94 146 62.94 145.13 62.94 144.7 63.11 144.31 63.4 144.02 63.68 143.74 64.08 143.56 64.51 143.56L94.48 143.56C95.15 143.56 95.72 143.98 95.94 144.56 96.01 144.75 96.04 144.94 96.04 145.14Z" fill="#F2C34C"/><path d="M96.04 145.14C96.04 145.34 96 145.53 95.93 145.7L65.51 145.7C65.2 145.7 64.95 145.45 64.95 145.14 64.95 144.98 65.01 144.84 65.12 144.74 65.22 144.64 65.36 144.57 65.52 144.57L95.95 144.57C96.01 144.75 96.04 144.94 96.04 145.14Z" fill="#EAB02F"/><path d="M62.94 149.24C62.94 148.92 62.98 148.61 63.05 148.33 63.13 148 63.25 147.7 63.4 147.45 63.68 146.99 64.08 146.71 64.51 146.71L94.48 146.71C95.35 146.71 96.05 147.84 96.05 149.24 96.05 149.94 95.88 150.57 95.59 151.03 95.31 151.49 94.91 151.77 94.48 151.77L64.51 151.77C63.84 151.77 63.27 151.1 63.05 150.15 62.98 149.86 62.94 149.56 62.94 149.24Z" fill="#E6E7E8"/><path d="M62.94 149.24C62.94 148.92 62.98 148.61 63.05 148.33L93.48 148.33C93.79 148.33 94.04 148.74 94.04 149.24 94.04 149.49 93.98 149.72 93.87 149.88 93.77 150.04 93.63 150.15 93.47 150.15L63.05 150.15C62.98 149.86 62.94 149.56 62.94 149.24Z" fill="#D1D3D4"/><path d="M96.04 138.27C96.04 138.55 96 138.81 95.93 139.05 95.85 139.33 95.73 139.59 95.58 139.81 95.3 140.2 94.9 140.45 94.47 140.45L64.51 140.45C63.64 140.45 62.94 139.48 62.94 138.27 62.94 137.67 63.11 137.13 63.4 136.73 63.68 136.34 64.08 136.09 64.51 136.09L94.48 136.09C95.15 136.09 95.72 136.67 95.94 137.48 96.01 137.72 96.04 137.99 96.04 138.27Z" fill="#F1F2F2"/><path d="M96.04 138.27C96.04 138.55 96 138.81 95.93 139.05L65.51 139.05C65.2 139.05 64.95 138.7 64.95 138.27 64.95 138.05 65.01 137.86 65.12 137.72 65.22 137.58 65.36 137.49 65.52 137.49L95.95 137.49C96.01 137.72 96.04 137.99 96.04 138.27Z" fill="#E6E7E8"/></g><g><path d="M62.94 109.31C62.94 109.11 62.98 108.92 63.05 108.75 63.13 108.55 63.25 108.36 63.4 108.21 63.68 107.93 64.08 107.75 64.51 107.75L94.48 107.75C95.35 107.75 96.05 108.45 96.05 109.32 96.05 109.75 95.88 110.14 95.59 110.43 95.31 110.71 94.91 110.89 94.48 110.89L64.51 110.89C63.84 110.89 63.27 110.47 63.05 109.89 62.98 109.7 62.94 109.51 62.94 109.31Z" fill="#F1F2F2"/><path d="M62.94 109.31C62.94 109.11 62.98 108.92 63.05 108.75L93.48 108.75C93.79 108.75 94.04 109 94.04 109.31 94.04 109.47 93.98 109.61 93.87 109.71 93.77 109.81 93.63 109.88 93.47 109.88L63.05 109.88C62.98 109.7 62.94 109.51 62.94 109.31Z" fill="#E6E7E8"/><path d="M96.04 106.17C96.04 106.37 96 106.56 95.93 106.73 95.85 106.94 95.73 107.12 95.58 107.27 95.3 107.55 94.9 107.73 94.47 107.73L64.51 107.73C63.64 107.73 62.94 107.03 62.94 106.16 62.94 105.73 63.11 105.34 63.4 105.05 63.68 104.77 64.08 104.59 64.51 104.59L94.48 104.59C95.15 104.59 95.72 105.01 95.94 105.59 96.01 105.79 96.04 105.98 96.04 106.17Z" fill="#27AAE1"/><path d="M96.04 106.17C96.04 106.37 96 106.56 95.93 106.73L65.51 106.73C65.2 106.73 64.95 106.48 64.95 106.17 64.95 106.01 65.01 105.87 65.12 105.77 65.22 105.67 65.36 105.6 65.52 105.6L95.95 105.6C96.01 105.79 96.04 105.98 96.04 106.17Z" fill="#1695C1"/><path d="M62.94 117.55C62.94 117.35 62.98 117.16 63.05 116.99 63.13 116.78 63.25 116.6 63.4 116.45 63.68 116.17 64.08 115.99 64.51 115.99L94.48 115.99C95.35 115.99 96.05 116.69 96.05 117.56 96.05 117.99 95.88 118.38 95.59 118.67 95.31 118.95 94.91 119.13 94.48 119.13L64.51 119.13C63.84 119.13 63.27 118.71 63.05 118.13 62.98 117.94 62.94 117.75 62.94 117.55Z" fill="#F2C34C"/><path d="M62.94 117.55C62.94 117.35 62.98 117.16 63.05 116.99L93.48 116.99C93.79 116.99 94.04 117.24 94.04 117.55 94.04 117.71 93.98 117.85 93.87 117.95 93.77 118.05 93.63 118.12 93.47 118.12L63.05 118.12C62.98 117.94 62.94 117.75 62.94 117.55Z" fill="#EAB02F"/><path d="M96.04 113.46C96.04 113.78 96 114.09 95.93 114.37 95.85 114.7 95.73 115 95.58 115.25 95.3 115.71 94.9 115.99 94.47 115.99L64.51 115.99C63.64 115.99 62.94 114.86 62.94 113.46 62.94 112.76 63.11 112.13 63.4 111.67 63.68 111.21 64.08 110.93 64.51 110.93L94.48 110.93C95.15 110.93 95.72 111.6 95.94 112.55 96.01 112.83 96.04 113.14 96.04 113.46Z" fill="#E6E7E8"/><path d="M96.04 113.46C96.04 113.78 96 114.09 95.93 114.37L65.51 114.37C65.2 114.37 64.95 113.96 64.95 113.46 64.95 113.21 65.01 112.98 65.12 112.82 65.22 112.66 65.36 112.55 65.52 112.55L95.95 112.55C96.01 112.83 96.04 113.14 96.04 113.46Z" fill="#D1D3D4"/></g></g><g><path d="M36.47 128.16C36.46 127.96 36.47 127.77 36.5 127.59 36.54 127.38 36.6 127.19 36.69 127.03 36.86 126.73 37.1 126.54 37.39 126.52L57.24 125.07C57.81 125.03 58.33 125.69 58.39 126.56 58.42 126.99 58.33 127.39 58.17 127.69 58 127.99 57.76 128.18 57.47 128.2L37.62 129.65C37.18 129.68 36.77 129.3 36.58 128.72 36.52 128.55 36.48 128.36 36.47 128.16Z" fill="#F1F2F2"/><path d="M36.47 128.16C36.46 127.96 36.47 127.77 36.5 127.59L56.65 126.11C56.86 126.09 57.04 126.33 57.07 126.65 57.08 126.81 57.05 126.95 56.99 127.06 56.93 127.17 56.84 127.24 56.74 127.24L36.59 128.72C36.52 128.55 36.48 128.36 36.47 128.16Z" fill="#E6E7E8"/><path d="M58.16 123.43C58.17 123.63 58.16 123.82 58.13 124 58.09 124.21 58.03 124.4 57.94 124.56 57.77 124.86 57.53 125.05 57.24 125.07L37.39 126.52C36.82 126.56 36.3 125.9 36.24 125.03 36.21 124.6 36.3 124.2 36.46 123.9 36.63 123.6 36.87 123.41 37.16 123.39L57.01 121.94C57.45 121.91 57.86 122.29 58.05 122.87 58.11 123.05 58.15 123.23 58.16 123.43Z" fill="#27AAE1"/><path d="M58.16 123.43C58.17 123.63 58.16 123.82 58.13 124L37.98 125.48C37.77 125.5 37.59 125.26 37.57 124.94 37.56 124.78 37.59 124.64 37.65 124.53 37.71 124.42 37.8 124.35 37.9 124.35L58.05 122.87C58.11 123.05 58.15 123.23 58.16 123.43Z" fill="#1695C1"/><path d="M37.07 136.39C37.06 136.19 37.07 136 37.1 135.82 37.14 135.61 37.2 135.42 37.29 135.26 37.46 134.96 37.7 134.77 37.99 134.75L57.84 133.3C58.41 133.26 58.93 133.92 58.99 134.79 59.02 135.22 58.93 135.62 58.77 135.92 58.6 136.22 58.36 136.41 58.07 136.43L38.22 137.88C37.78 137.91 37.37 137.53 37.18 136.95 37.12 136.77 37.08 136.59 37.07 136.39Z" fill="#8DC63F"/><path d="M37.07 136.39C37.06 136.19 37.07 136 37.1 135.82L57.25 134.34C57.46 134.32 57.64 134.56 57.66 134.88 57.67 135.04 57.64 135.18 57.58 135.29 57.52 135.4 57.43 135.47 57.33 135.47L37.18 136.95C37.12 136.77 37.08 136.59 37.07 136.39Z" fill="#7FB22F"/><path d="M58.7 130.7C58.72 131.02 58.72 131.33 58.7 131.61 58.67 131.94 58.61 132.25 58.53 132.5 58.38 132.97 58.14 133.27 57.85 133.29L38 134.74C37.43 134.78 36.88 133.69 36.78 132.3 36.73 131.6 36.8 130.97 36.95 130.5 37.1 130.03 37.34 129.73 37.63 129.71L57.48 128.26C57.92 128.23 58.35 128.87 58.57 129.8 58.63 130.07 58.67 130.38 58.7 130.7Z" fill="#E6E7E8"/><path d="M58.7 130.7C58.72 131.02 58.72 131.33 58.7 131.61L38.55 133.09C38.34 133.11 38.15 132.71 38.11 132.21 38.09 131.96 38.12 131.73 38.17 131.56 38.23 131.39 38.31 131.28 38.41 131.27L58.56 129.79C58.63 130.07 58.67 130.38 58.7 130.7Z" fill="#D1D3D4"/></g></g></svg>