<svg width="269.9" height="833.74" viewBox="0 0 269.9 833.74" xmlns="http://www.w3.org/2000/svg" xmlns:xlink="http://www.w3.org/1999/xlink" xml:space="preserve" overflow="hidden"><defs></defs><g id="g74869_1_" transform="matrix(1.06711 0 0 1.06711 -361.479 34.5764)"><linearGradient x1="1707.56" y1="-21.9632" x2="1699.21" y2="10.5825" gradientUnits="userSpaceOnUse" id="SVGID_1_" gradientTransform="matrix(-0.9944 0.1055 0.1055 0.9944 2172.15 -23.4389)"><stop offset="0.2206" stop-color="#FCE8D9"/><stop offset="1" stop-color="#F4C7BD"/></linearGradient><g id="path44290_1_"><path d="M488.1 692.03C488.1 692.03 485.75 733.67 486.25 740.64 486.75 747.61 489.54 748.39 501.24 748.39L559.29 748.39C571.43 748.39 567.44 734.7 564.75 729.51 562.06 724.32 536.46 717.05 532.52 713.43 528.59 709.8 527.63 691 527.63 691L488.1 692.03Z" fill="#FBB383"/></g><g id="path74661_1_"><path d="M527.63 691 493.09 691.9C490.12 715.3 517.75 702.59 528.16 697.3 527.77 693.73 527.63 691 527.63 691Z" fill="#FB8D52"/></g><g id="path65381_1_"><path d="M508.49 691.33 488.1 692.02C485.08 766.93 475.29 744.97 550.44 748.38 557.37 727.46 515.98 726.85 509.1 716.66 507.66 708.49 505.35 696.39 508.49 691.33Z" fill="#FB8D52"/></g><g id="path40542_1_"><path d="M371.53 692.03C368.6 765.46 358.52 745.55 432.12 748.39 444.26 748.39 441.58 731.81 438.89 726.62 421.41 710.67 410.22 723.45 414.12 691.71L371.53 692.03Z" fill="#FBB383"/></g><g id="path74339_1_"><path d="M414.1 691.74C406.66 691.79 378.41 691.97 371.52 692.03 371.52 692.03 371.23 697.28 370.87 704.23 391.57 710.22 405.11 709.4 413.76 706.67 413.14 700.21 414.09 691.86 414.1 691.74Z" fill="#FB8D52"/></g><g id="path64956_1_"><path d="M371.52 692.05C371.52 692.11 369.17 733.67 369.67 740.64 368.6 751.45 386.68 747.76 395.76 748.39 408.73 734.71 384.31 730.75 380.59 718.61 379.04 712.29 380.99 697.3 381.31 694.18 381.31 694.18 376.84 692.51 371.52 692.05L371.52 692.05Z" fill="#FB8D52"/></g><g id="path29188_1_"><path d="M367.2 415.72 363.17 691.49C363.17 691.49 382.91 711.14 416.96 697.47 420.34 645.93 449.12 485.42 449.12 485.42L482.28 693.95C482.28 693.95 508.19 701.89 532.85 691.67 532.65 658.76 527.69 423.95 527.69 423.95L367.2 415.72Z" fill="#39525B"/></g><g id="path74951_1_"><path d="M450.57 488C447.39 488.78 445.14 484.76 449.04 484.33 456.38 485.15 464.87 479.48 469.64 476.8 480.54 477.58 455.16 489.19 450.57 488Z" fill="#27383E"/></g><g id="path27049_1_"><path d="M544.81 287.29C517.33 246.77 472.3 182.05 408.36 227.71 356.12 254.62 367.23 394.61 361.53 425.97 384.52 436.64 507.49 441.51 535.54 430.87L533.05 338.18C593.79 381.87 548.74 302.87 544.81 287.29L544.81 287.29Z" fill="#83BACE"/></g><g id="path52931_1_"><path d="M454.86 211.51C449.46 211.53 441.12 212.8 431.94 215.87 427.23 223.44 428.91 235.59 453.42 242.48L467.89 255.6 475 240.12C475 240.12 487.4 236.39 485.74 222.37 472.18 215.67 463.54 211.86 454.86 211.51Z" fill="#567A88"/></g><g id="g27014_1_" transform="matrix(-0.997007 -0.0773091 -0.0773091 0.997007 260.423 7.22793)"><g id="path27008_1_"><path d="M-314.58 190.98-317.43 187.85C-317.43 187.85-322.81 169.16-320.73 157.41-318.65 145.67-309.22 129.8-302.1 127.5-270.82 119.72-278.73 139.77-280.64 155.79-267.5 145.99-271.9 180.07-275.95 185.29-279.21 192.12-289.29 200.82-289.29 200.82L-314.58 190.98Z" fill="#FB8D52"/></g><g id="path27010_1_"><path d="M-320.3 185.7C-316.45 185.45-296.95 188.27-286.19 199.62-290.44 232.89-301.52 287.36-305.77 302.72-310.02 318.09-324.1 321.79-338.33 318.89-383.68 305.55-320.52 198.98-320.3 185.7L-320.3 185.7Z" fill="#83BACE"/></g><g id="path27012_1_"><path d="M-282.35 175.25C-281.29 175.34-280.37 174.46-280.43 173.39-280.73 166.44-278.92 156.2-278.9 156.1-278.46 153.83-282.03 153.18-282.41 155.47-281.77 154.06-286.65 174.61-282.35 175.25Z" fill="#FB9762"/></g><g id="path45708_1_"><path d="M-301.7 286.81C-299.26 291.46-277.79 182.02-287.95 199.39-291.15 224.4-298.15 261.12-303.3 284.65-303.54 285.7-302.77 286.74-301.7 286.81Z" fill="#567A88"/></g></g><g id="path24012_1_"><path d="M440.35 201.1 440.09 222.78C444.45 227.49 470.16 243.37 476.38 226.1 476.38 226.1 473.72 207.02 473.72 207.02L440.35 201.1Z" fill="#FB8D52"/></g><g id="path44785_1_"><path d="M533.45 344.27C532.51 344.27 531.72 343.53 531.67 342.58 530.54 320.49 522.2 288.86 522.12 288.54 525.95 276.14 533.51 321.17 535.24 342.4 535.29 343.41 534.47 344.27 533.45 344.27Z" fill="#567A88"/></g><g id="rect59643_1_"><path d="M504.66 376.32C501.92 376.11 500.33 379.59 499.05 381.5 497.75 383.52 498.33 386.19 500.34 387.49 500.39 387.52 534.91 409.81 534.97 409.82L534.56 394.74C533.63 394.38 505.17 375.02 504.66 376.32L504.66 376.32ZM430.99 376.83C430.16 376.81 429.31 377.04 428.55 377.53L393.98 399.83C390.24 402.16 392.76 406.42 394.75 409.01 396.05 411.03 398.72 411.6 400.74 410.3L435.31 388C437.33 386.7 437.9 384.03 436.6 382.01 435.29 380.11 433.76 376.61 430.99 376.83Z" fill="#567A88"/></g><path d="M532.37 141.82C532.98 148.97 532.95 156.21 531.86 163.48 528.8 184.11 516.76 203.26 501.15 211.83 491.33 217.23 480.64 218.51 470.21 219.11 443.89 220.62 417 218.05 393.18 205.82 375.33 196.65 354.28 174.54 352.95 148.19 352.03 130.07 360.17 112.47 368 96.26 381.71 67.91 396.84 37.87 420.47 23.14 443.5 8.78 468.91 11.36 488.66 27.97 511.94 47.54 518.56 76.64 526.35 109.04 528.9 119.69 531.42 130.67 532.37 141.82Z" fill="#F9B799"/><g><path d="M424.11 107.54C430.82 103.16 439.12 106.12 443.79 112.69 448.67 119.54 450.17 129.3 450.8 138.74 450.84 139.29 450.86 139.9 450.6 140.38 450.29 140.97 449.68 141.16 449.13 141.29 439.59 143.55 429.79 142.87 420.88 139.31 414.35 136.71 411.61 132.21 411.55 127.24 411.49 120.27 416.68 112.38 424.11 107.54Z" fill="#FFFFFF"/><g><path d="M439.05 141.33C442.75 137.61 443.39 130.77 440.48 126.06 437.57 121.34 432.21 120.54 428.5 124.26 424.8 127.98 424.16 134.82 427.07 139.54 429.98 144.24 435.34 145.05 439.05 141.33Z" fill="#8C7257"/><path d="M436.66 139.94C437.99 138.6 438.23 136.14 437.18 134.44 436.13 132.74 434.2 132.45 432.86 133.79 431.53 135.13 431.29 137.59 432.34 139.29 433.39 140.99 435.33 141.29 436.66 139.94Z" fill="#3A3129"/><path d="M429.53 138.01C429.47 138.05 429.41 138.1 429.38 138.17 429.32 138.32 429.41 138.49 429.49 138.62 429.77 139.04 430.09 139.43 430.48 139.66 430.87 139.9 431.33 139.98 431.74 139.78 432.12 139.6 432.41 139.2 432.66 138.8 432.95 138.34 434.85 134.87 433.56 135.14 432.94 135.27 432.11 136.17 431.56 136.56 430.89 137.05 430.21 137.53 429.53 138.01Z" fill="#FFFFFF" opacity="0.2"/></g><g><path d="M411.51 127.24C411.39 125.69 411.56 124.11 411.92 122.58 412.27 121.05 412.81 119.55 413.5 118.14 414.9 115.31 416.82 112.75 419.06 110.51 419.61 109.94 420.21 109.42 420.79 108.88 421.41 108.38 422.02 107.87 422.67 107.42 423.91 106.47 425.43 105.63 427 105.13 430.17 104.05 433.7 104.37 436.74 105.63 438.26 106.27 439.66 107.16 440.91 108.19 442.17 109.22 443.31 110.4 444.25 111.72 445.2 113.02 446.03 114.39 446.71 115.83 447.08 116.54 447.37 117.28 447.68 118.01 447.94 118.76 448.23 119.5 448.44 120.25 449.38 123.26 449.96 126.34 450.35 129.43 450.68 132.53 450.87 135.62 450.86 138.72L450.74 138.73C450.29 132.59 449.58 126.39 447.59 120.54 447.1 119.08 446.51 117.65 445.82 116.28 445.15 114.9 444.33 113.58 443.41 112.35 442.5 111.11 441.41 110.01 440.22 109.05 439.03 108.09 437.71 107.27 436.29 106.69 433.48 105.5 430.24 105.17 427.32 106.13 425.86 106.59 424.49 107.31 423.25 108.23 421.99 109.11 420.79 110.08 419.68 111.15 417.44 113.26 415.5 115.7 414.04 118.42 412.57 121.12 411.63 124.15 411.63 127.23L411.51 127.24Z" fill="#5E5149"/></g></g><g><path d="M510.87 110.52C505.58 105.93 498.02 108.15 493.15 114.02 488.07 120.14 485.58 129.24 483.87 138.09 483.77 138.61 483.67 139.18 483.84 139.65 484.04 140.23 484.55 140.45 485 140.61 493.01 143.4 501.6 143.42 509.77 140.69 515.76 138.69 518.69 134.63 519.35 129.95 520.27 123.39 516.72 115.6 510.87 110.52Z" fill="#FFFFFF"/><g><path d="M519.3 129.94C519.66 127.12 519.26 124.24 518.32 121.56 517.4 118.88 515.98 116.37 514.22 114.15 513.34 113.04 512.38 111.99 511.33 111.04 510.29 110.09 509.13 109.23 507.79 108.77 505.13 107.77 502.12 108.09 499.54 109.21 496.95 110.36 494.7 112.2 492.94 114.42 491.16 116.63 489.77 119.14 488.63 121.73 486.35 126.95 485.02 132.52 483.92 138.09L483.83 138.07C484.2 135.24 484.73 132.44 485.35 129.64 486.04 126.86 486.86 124.11 487.96 121.43 489.03 118.75 490.47 116.19 492.27 113.88 494.08 111.55 496.42 109.59 499.16 108.34 501.92 107.17 505.18 106.84 508.08 107.96 509.53 108.48 510.81 109.44 511.87 110.44 512.96 111.42 513.92 112.53 514.79 113.7 516.54 116.03 517.92 118.64 518.78 121.41 519.62 124.18 519.93 127.14 519.38 129.96L519.3 129.94Z" fill="#5E5149"/></g><g><path d="M508.57 140.5C512.39 136.64 513.26 129.93 510.51 125.53 507.76 121.12 502.44 120.68 498.62 124.55 494.8 128.41 493.93 135.12 496.68 139.52 499.42 143.92 504.75 144.36 508.57 140.5Z" fill="#8C7257"/><path d="M506.12 139.64C507.5 138.25 507.81 135.83 506.82 134.24 505.83 132.65 503.91 132.49 502.54 133.89 501.16 135.28 500.85 137.7 501.84 139.29 502.82 140.87 504.74 141.03 506.12 139.64Z" fill="#3A3129"/><path d="M499.19 137.88C499.13 137.92 499.07 137.97 499.03 138.05 498.96 138.2 499.04 138.36 499.12 138.48 499.39 138.87 499.7 139.23 500.08 139.43 500.46 139.64 500.92 139.68 501.33 139.47 501.71 139.27 502.01 138.87 502.28 138.46 502.58 137.99 504.59 134.49 503.3 134.83 502.68 134.99 501.82 135.92 501.25 136.34 500.57 136.86 499.88 137.37 499.19 137.88Z" fill="#FFFFFF" opacity="0.2"/></g></g><path d="M482.98 149.09C484.76 151.27 487.25 153.45 486.88 156.7 486.68 158.43 485.63 159.95 484.39 160.85 483.15 161.75 481.74 162.11 480.35 162.33 478.66 162.6 476.88 162.66 475.43 161.71 473.13 160.21 472.29 156.61 472.24 153.27 472.16 147.63 473.88 140.72 477.39 136.63 479.4 140.71 480.18 145.67 482.98 149.09Z" fill="url(#SVGID_1_)"/><path d="M483.35 155.92C484.9 156.69 486.66 156.43 488.31 155.97 489.66 155.59 491.02 155.07 492.15 154.03 493.28 152.99 494.14 151.36 494.14 149.62 492.83 151.26 490.84 152.28 489.13 153.12 487.26 154.04 485.23 155 483.35 155.92Z" opacity="0.07"/><path d="M447.09 91.04C438.47 96.69 429.24 100.67 419.85 102.78 407.22 105.62 394.65 107.29 390.36 125.94 388.72 133.06 389.55 140.77 392.59 146.65 389.02 139.64 386.13 131.05 387.05 122.43 387.97 113.81 392.29 105.2 398.71 101.37 403.85 98.3 409.6 98.51 415.13 98.31 426.14 97.89 436.36 95.23 447.09 91.04Z" opacity="0.15"/><path d="M504.38 57.09C503.97 59.52 512.6 72.13 513.81 75.06 516.39 81.3 518.96 88.2 520.12 95.22 522.39 109.02 524.6 123.72 523.5 138.29 527.8 119.48 532.61 99.66 529.59 81.2 529.02 77.74 528.15 74.27 526.29 71.73 524.59 69.42 522.22 68.09 519.91 66.8 514.82 63.98 509.44 59.91 504.38 57.09Z" opacity="0.15"/><g><path d="M420.65 86.49C422.73 84.34 425.21 82.54 427.93 81.14 430.65 79.74 433.68 78.88 436.8 78.58 439.89 78.27 443.21 78.39 446.15 79.7 446.86 80.08 447.58 80.39 448.27 80.83 448.95 81.28 449.63 81.76 450.2 82.37 451.39 83.54 452.22 85.16 452.23 86.76L451.93 86.86C450.19 84.35 447.72 83.51 445.04 82.68 443.71 82.33 442.41 81.92 441.06 81.64 440.39 81.45 439.7 81.38 439.02 81.26 438.33 81.2 437.63 81.13 436.93 81.12 435.53 81.12 434.11 81.24 432.72 81.5 432.01 81.6 431.33 81.8 430.63 81.95 429.95 82.17 429.25 82.34 428.58 82.6 425.85 83.55 423.28 84.99 420.89 86.73L420.65 86.49Z" fill="#BC5D1D"/></g><path d="M474.07 13.85C475.68 8.68 471.91 3.42 467.67 2.78 463.43 2.14 459.12 4.64 455.11 7.08 448.35 11.18 441.58 15.29 434.82 19.39 435.97 12.99 437.73 6.71 440.04 0.71 427.86-2.7 414.98 5.57 403.48 13.55 405.26 5.18 410.77-1.73 417.04-5.68 423.31-9.62 430.28-10.96 437.08-11.46 447.64-12.24 458.17-11.14 468.24-8.22 471.54-7.26 475.09-7.09 476.46-3.03 478.22 2.24 475.64 8.84 474.07 13.85Z" fill="#FFFFFF" opacity="0.1"/><path d="M526.74 19.1C532.19 21.36 536.77 26.22 539.4 32.53 542.03 38.84 542.69 46.53 541.21 53.79 538.82 46.84 535.59 40.4 531.66 34.74 531.22 38.55 531.3 42.41 531.92 46.08 527.52 46.15 523.84 42.61 521.03 38.67 515.73 31.22 514.33 13.95 526.74 19.1Z" fill="#FFFFFF" opacity="0.1"/><path d="M373.69 96.01C373.24 95.52 372.73 95.11 372.13 94.82 368.49 93.05 366.69 95.27 364.51 99.23 361.93 103.93 360.48 110.33 359.6 116.65 358.14 120.49 357.36 124.79 357.57 128.52 357.66 130.17 357.95 131.8 358.35 133.38 358.26 139.79 358.71 146.34 359.12 152.8 356.11 149.48 352.69 147.22 348.82 145.66 347 141.12 344.62 136.96 342.83 132.38 337.41 118.46 338.28 101.56 340.26 85.59 342.01 71.58 344.21 57.08 347.92 43.46 350.29 34.76 355.23 27.88 359.8 20.53 369.22 5.38 381.86-6.17 395.48-14.45 422.49-30.87 454.47-36.33 482.6-29.6 498.29-25.85 514.23-20.03 517.97 0.3 533.12-3.14 544.64 15.34 550.85 32.04 557.06 48.74 556.28 68.9 552.68 87.7 548.89 107.49 540.79 128.44 525.95 137.5 527.05 122.93 524.85 108.23 522.57 94.43 521.41 87.41 518.84 80.51 516.26 74.27 515.05 71.34 506.42 58.73 506.83 56.3 504.86 67.9 501.63 76.87 495.54 84.55 490.47 81.31 483.94 80.85 477.97 82.82 475.9 83.5 473.92 84.68 472.02 86.06 470.12 86.16 468.34 86.58 466.69 87.24 462.91 86.22 458.92 86.45 455.37 88.56 453.25 89.82 451.05 91.07 448.96 92.51 449.17 91.76 449.38 91.01 449.55 90.24 440.93 95.89 431.7 99.87 422.31 101.98 420.03 102.49 417.76 102.97 415.54 103.51 412.19 101.56 408.37 100.64 404.55 101.14 402.96 101.35 401.39 101.4 399.8 101.5 399.03 101.44 398.25 101.4 397.49 101.32 396.84 101.25 396.19 101.11 395.55 101.01 390.36 94.59 382.16 92.44 374.2 95.72 374.02 95.79 373.87 95.93 373.69 96.01Z" fill="#110802"/><g id="path8693_1_"><path d="M468.59 188.73C463.36 188.18 453.33 189.71 453.45 185.21 453.75 184.27 454.75 183.75 455.69 184.05 461.27 185.84 477.61 185.1 484.21 184.49 485.18 184.4 486.06 185.12 486.15 186.1 485.99 189.86 475.21 188.06 468.59 188.73Z" fill="#FB8D52"/></g><g id="g1648_1_" transform="translate(0.112941 0)"><g id="path1066_1_"><path d="M384.86 225.38 382.01 222.25C382.01 222.25 376.63 203.56 378.71 191.81 380.79 180.07 390.22 164.2 397.34 161.9 428.62 154.12 420.71 174.17 418.8 190.19 431.94 180.39 427.54 214.47 423.49 219.69 420.23 226.52 410.15 235.22 410.15 235.22L384.86 225.38Z" fill="#FBB383"/></g><g id="path62393_1_"><path d="M410.14 237C409.52 237.14 384.83 227.15 384.21 227.04 383.58 227.06 381.18 223.76 380.69 223.45 373.45 205.7 374.73 172.37 396.78 160.2 422.44 154.8 425.41 162.14 421.18 186.69 435.24 186.59 428.32 214 425.09 220.45 420.87 228.28 412.04 236.59 410.14 237ZM385.9 223.87 409.78 233.16C412.18 230.99 419.33 224.25 421.88 218.92 424.75 212.21 429.31 196.29 422.83 190.1 421.78 189.89 420.39 191.1 420.1 191.41 418.96 192.72 416.67 191.57 417.04 189.87 419.65 170.23 425.08 157.3 397.89 163.6 391.76 165.59 382.48 180.78 380.47 192.13 379.23 204.19 381.7 220.26 385.9 223.87Z" fill="#FB8D52"/></g><g id="path867_1_"><path d="M379.15 220.09C383 219.84 402.5 222.66 413.26 234.01 409.01 267.28 397.93 321.75 393.68 337.12 389.43 352.49 375.35 356.19 361.12 353.29 315.76 339.95 378.92 233.37 379.15 220.09Z" fill="#83BACE"/></g><g id="path1412_1_"><path d="M417.23 209.65C412.71 209.45 417.64 188.62 417.03 189.87 417.2 188.9 418.14 188.26 419.1 188.43 422.58 189.24 418.08 199.01 419.01 207.79 419.06 208.8 418.24 209.66 417.23 209.65Z" fill="#FB8D52"/></g><g id="path45092_1_"><path d="M369.88 356C365.6 356 350.8 354.66 352.12 348.44 352.75 347.68 353.88 347.58 354.63 348.21 368.52 357.58 389.09 351.08 391.95 336.64 395.91 322.32 407.14 267.8 411.48 233.78 411.72 231.53 415.36 231.91 415.02 234.23 410.93 266.27 399.89 321.31 395.39 337.58 392.1 349.48 382.83 356 369.88 356Z" fill="#567A88"/></g></g></g></svg>