<svg width="64.61" height="69.48" viewBox="0 0 64.61 69.48" xmlns="http://www.w3.org/2000/svg" xmlns:xlink="http://www.w3.org/1999/xlink" xml:space="preserve" overflow="hidden"><defs></defs><g><g><g><path d="M0 9.8 6.01 0 57.66 0.19 64.61 10.01Z" fill="#FFCC00"/></g><g><g><path d="M64.61 10.01 62.17 69.48 1.81 69.41 0 9.8Z" fill="#FF9900"/></g></g></g></g><g><g><g><linearGradient x1="31.7656" y1="57.1728" x2="31.7656" y2="24.2851" gradientUnits="userSpaceOnUse" id="SVGID_1_"><stop offset="0" stop-color="#666666"/><stop offset="0.272" stop-color="#626262"/><stop offset="0.5626" stop-color="#555555"/><stop offset="0.861" stop-color="#404040"/><stop offset="1" stop-color="#333333"/></linearGradient><path d="M35.2 24.29 18.45 24.29 18.49 30.88 32.73 30.88C33.22 30.88 33.65 30.94 34.02 31.06 34.39 31.18 34.69 31.35 34.94 31.59 35.19 31.82 35.37 32.12 35.49 32.47 35.61 32.82 35.67 33.23 35.67 33.7L35.67 34.64C35.67 35.11 35.61 35.52 35.49 35.87 35.37 36.22 35.18 36.51 34.94 36.75 34.69 36.98 34.39 37.16 34.02 37.28 33.65 37.4 33.22 37.45 32.73 37.45L23.43 37.45 23.45 43.96 33.7 43.96C34.19 43.96 34.61 44.01 34.98 44.13 35.35 44.24 35.65 44.4 35.9 44.62 36.14 44.84 36.33 45.11 36.45 45.44 36.57 45.77 36.63 46.15 36.63 46.59L36.63 48.34C36.63 48.51 36.62 48.67 36.59 48.82 36.56 48.97 36.52 49.11 36.47 49.25 36.42 49.38 36.35 49.51 36.26 49.62 36.18 49.74 36.08 49.84 35.97 49.94 35.86 50.04 35.74 50.12 35.61 50.2 35.48 50.27 35.34 50.33 35.19 50.38 35.04 50.43 34.88 50.46 34.71 50.49 34.54 50.51 34.36 50.53 34.18 50.53 33.79 50.53 33.39 50.53 32.99 50.53 32.58 50.53 32.17 50.53 31.74 50.53 31.32 50.53 30.88 50.53 30.44 50.53 30 50.53 29.55 50.53 29.09 50.53 28.63 50.53 28.18 50.53 27.73 50.53 27.28 50.53 26.84 50.53 26.4 50.53 25.96 50.53 25.53 50.53 25.11 50.53 24.68 50.53 24.26 50.53 23.85 50.53 23.37 50.53 22.89 50.53 22.41 50.53 21.93 50.53 21.45 50.53 20.97 50.53 20.49 50.53 20.01 50.53 19.54 50.53 19.06 50.53 18.58 50.53 18.1 50.53L18.13 56.42C18.62 56.48 19.12 56.54 19.62 56.58 20.12 56.63 20.62 56.66 21.13 56.7 21.64 56.73 22.14 56.75 22.66 56.77 23.17 56.79 23.69 56.79 24.21 56.79 24.65 56.86 25.1 56.92 25.56 56.97 26.02 57.02 26.49 57.06 26.98 57.1 27.46 57.13 27.96 57.16 28.46 57.18 28.97 57.2 29.48 57.21 30.01 57.21 30.54 57.21 31.07 57.21 31.59 57.21 32.11 57.21 32.62 57.21 33.13 57.21 33.64 57.21 34.14 57.21 34.64 57.21 35.14 57.21 35.63 57.21 36.12 57.21 36.91 57.21 37.65 57.17 38.34 57.08 39.03 56.99 39.66 56.86 40.25 56.69 40.83 56.52 41.37 56.3 41.84 56.04 42.32 55.78 42.74 55.47 43.12 55.12 43.5 54.77 43.82 54.37 44.11 53.92 44.39 53.47 44.63 52.97 44.82 52.42 45.01 51.87 45.15 51.27 45.25 50.63 45.35 49.98 45.4 49.28 45.4 48.54L45.4 48.08C45.4 47.77 45.39 47.46 45.37 47.17 45.35 46.87 45.32 46.59 45.28 46.31 45.24 46.03 45.18 45.76 45.12 45.5 45.06 45.24 44.98 44.99 44.9 44.75 44.82 44.51 44.73 44.28 44.63 44.05 44.53 43.83 44.43 43.61 44.32 43.41 44.21 43.2 44.1 43.01 43.98 42.82 43.86 42.63 43.73 42.45 43.6 42.29 43.47 42.12 43.33 41.96 43.18 41.81 43.04 41.66 42.88 41.52 42.73 41.38 42.57 41.25 42.41 41.12 42.24 41 42.07 40.88 41.9 40.77 41.72 40.67 41.54 40.57 41.36 40.48 41.19 40.39 41.01 40.3 40.83 40.22 40.65 40.15 40.47 40.08 40.29 40.01 40.11 39.95 39.93 39.89 39.75 39.84 39.57 39.79 39.94 39.67 40.29 39.53 40.62 39.37 40.95 39.21 41.27 39.03 41.56 38.82 41.86 38.62 42.14 38.39 42.4 38.14 42.66 37.89 42.9 37.62 43.13 37.33 43.36 37.04 43.56 36.72 43.73 36.39 43.9 36.05 44.04 35.7 44.16 35.32 44.27 34.94 44.36 34.54 44.42 34.11 44.48 33.69 44.51 33.24 44.51 32.77 44.51 32.06 44.47 31.4 44.38 30.78 44.29 30.16 44.15 29.58 43.96 29.05 43.77 28.52 43.54 28.03 43.26 27.59 42.98 27.15 42.65 26.76 42.28 26.41 41.9 26.06 41.47 25.76 40.99 25.49 40.51 25.23 39.97 25.01 39.38 24.83 38.79 24.65 38.14 24.52 37.45 24.44 36.76 24.33 36.01 24.29 35.2 24.29" fill="url(#SVGID_1_)"/></g></g></g></svg>