<svg width="46.17" height="118.61" viewBox="0 0 46.17 118.61" xmlns="http://www.w3.org/2000/svg" xmlns:xlink="http://www.w3.org/1999/xlink" xml:space="preserve" overflow="hidden"><defs></defs><linearGradient x1="23.0872" y1="117.612" x2="23.0872" y2="0" gradientUnits="userSpaceOnUse" id="SVGID_1_"><stop offset="0" stop-color="#BC2A33"/><stop offset="0.3605" stop-color="#D57251"/><stop offset="0.7992" stop-color="#F2C573"/><stop offset="1" stop-color="#FDE681"/></linearGradient><g><path d="M46.17 118.61 0 118.61 2.81 1 43.37 1Z" fill="#E4C4AD"/><rect x="5.87" y="69.34" width="33.88" height="49.22" fill="#A84333" opacity="0.1"/><path d="M17.16 82.96C14.76 82.96 12.81 85.69 12.81 89.07L12.81 118.56 21.51 118.56 21.51 89.07C21.51 85.69 19.56 82.96 17.16 82.96Z" fill="#A84333" opacity="0.3"/><path d="M15.05 90.76C15.05 87.39 17 84.65 19.4 84.65 19.69 84.65 19.97 84.69 20.24 84.77 19.45 83.65 18.36 82.96 17.15 82.96 14.75 82.96 12.8 85.69 12.8 89.07L12.8 118.56 15.05 118.56 15.05 90.76Z" opacity="0.1"/><path d="M28.67 82.96C26.27 82.96 24.32 85.69 24.32 89.07L24.32 118.56 33.02 118.56 33.02 89.07C33.02 85.69 31.07 82.96 28.67 82.96Z" fill="#A84333" opacity="0.3"/><path d="M26.56 90.76C26.56 87.39 28.51 84.65 30.91 84.65 31.2 84.65 31.48 84.69 31.75 84.77 30.96 83.65 29.87 82.96 28.66 82.96 26.26 82.96 24.31 85.69 24.31 89.07L24.31 118.56 26.56 118.56 26.56 90.76Z" opacity="0.1"/><path d="M24.08 52.78 25.32 54.02C26.01 54.91 25.74 55.73 25.08 56.39L25.08 56.39C23.75 57.72 21.56 57.7 20.26 56.33 19.29 52.44 20.12 51.23 23.38 52.35 23.64 52.43 23.88 52.58 24.08 52.78Z" fill="#020100" opacity="0.15"/><path d="M20.45 67.04C20.38 67.96 20.38 68.81 21.09 69.4 21.34 69.6 22.58 70.24 23.22 69.77 23.85 69.31 24.33 68.49 24.26 67.5 24.19 66.51 24.36 58.78 23.02 58.55 21.88 58.34 20.66 64.03 20.45 67.04Z" fill="#020100" opacity="0.07"/><path d="M9.38 58.02 8.67 58.02C8.47 58.02 8.27 58 8.09 57.95 7.23 57.7 6.92 57 6.92 56.17L6.92 56.17C6.92 56.01 6.93 55.86 6.95 55.71 7.27 53.39 10.08 52.38 11.91 53.85 13.46 55.1 13.56 56.13 12.15 57.15 11.35 57.73 10.37 58.02 9.38 58.02Z" fill="#020100" opacity="0.15"/><path d="M39.01 58.47 39.51 57.97C39.65 57.83 39.8 57.7 39.97 57.61 40.75 57.18 41.46 57.46 42.04 58.04L42.04 58.04C42.15 58.15 42.25 58.27 42.34 58.39 43.75 60.26 42.48 62.96 40.15 63.21 38.17 63.42 37.37 62.76 37.65 61.05 37.82 60.06 38.31 59.17 39.01 58.47Z" fill="#020100" opacity="0.15"/><path d="M17.06 67.27 17.56 67.77C17.7 67.91 17.83 68.06 17.92 68.23 18.35 69.01 18.07 69.72 17.49 70.3L17.49 70.3C17.38 70.41 17.26 70.51 17.14 70.6 15.27 72.01 12.57 70.74 12.32 68.41 12.11 66.43 12.77 65.63 14.48 65.91 15.46 66.08 16.36 66.57 17.06 67.27Z" fill="#020100" opacity="0.15"/><path d="M35.86 71.62 37.1 72.86C37.79 73.75 37.52 74.57 36.86 75.23L36.86 75.23C35.53 76.56 33.34 76.54 32.04 75.17 31.07 71.28 31.9 70.07 35.16 71.19 35.42 71.28 35.66 71.43 35.86 71.62Z" fill="#020100" opacity="0.15"/><path d="M30.23 56.52 29.17 55.46C29.02 55.31 28.88 55.14 28.77 54.95 28.35 54.2 28.59 53.54 29.12 53.01L29.12 53.01C29.17 52.96 29.22 52.91 29.28 52.86 30.98 51.4 33.83 52.7 34.16 55.05 34.49 57.37 33.52 57.95 30.92 56.96 30.66 56.86 30.43 56.71 30.23 56.52Z" fill="#020100" opacity="0.1"/><path d="M3.74 52.25 3.48 50.64C3.47 50.56 3.46 50.48 3.46 50.41 3.45 49.36 4.08 48.9 4.89 48.77L4.89 48.77C4.96 48.76 5.03 48.75 5.1 48.74 7.34 48.55 8.88 51.27 7.78 53.37 6.7 55.44 5.57 55.35 4.03 53.02 3.89 52.78 3.79 52.52 3.74 52.25Z" fill="#020100" opacity="0.1"/><path d="M17.5 72.7 18.35 71.31C18.39 71.24 18.44 71.18 18.49 71.12 19.17 70.33 19.94 70.38 20.65 70.81L20.65 70.81C20.71 70.85 20.77 70.89 20.83 70.93 22.65 72.24 22.05 75.31 19.85 76.19 17.68 77.06 16.88 76.24 17.24 73.48 17.26 73.2 17.36 72.93 17.5 72.7Z" fill="#020100" opacity="0.1"/><path d="M11.41 48.6C10.49 48.6 9.6 49.02 9.06 49.77 8.87 50.03 8.74 50.3 8.77 50.55 8.84 51.32 10.24 52.59 11.23 52.44 12.21 52.3 19.93 51.91 20.07 50.56 20.19 49.4 14.43 48.6 11.41 48.6Z" fill="#020100" opacity="0.07"/><path d="M14.88 63.03C14.63 63.54 14.76 64.21 15.28 64.84 15.46 65.06 15.67 65.25 15.89 65.35 16.6 65.65 18.12 65.44 18.26 64.84 18.4 64.24 20.86 60.01 18.54 59.08 17.47 58.65 15.71 61.37 14.88 63.03Z" fill="#020100" opacity="0.07"/><path d="M40.03 69.03C40.12 69.55 40.6 69.98 41.34 70.16 41.6 70.22 41.86 70.25 42.08 70.19 42.78 70.02 43.8 69.02 43.57 68.48 43.34 67.95 42.81 63.4 40.55 64.01 39.52 64.3 39.72 67.33 40.03 69.03Z" fill="#020100" opacity="0.07"/><path d="M33.96 48.92C33.71 48.61 33.27 48.46 32.78 48.56 32.61 48.59 32.44 48.65 32.34 48.75 32 49.06 31.78 50.02 32.12 50.3 32.45 50.58 34.46 53.4 35.54 52.35 36.03 51.86 34.78 49.94 33.96 48.92Z" fill="#020100" opacity="0.07"/><path d="M42.42 51.5C42.74 50.85 42.58 49.98 41.9 49.17 41.66 48.89 41.39 48.64 41.11 48.52 40.19 48.13 38.24 48.4 38.06 49.18 37.88 49.96 34.71 55.41 37.7 56.61 39.08 57.16 41.36 53.64 42.42 51.5Z" fill="#020100" opacity="0.07"/><path d="M27.81 78.03C28.46 78.35 29.33 78.18 30.14 77.51 30.42 77.27 30.67 77 30.79 76.72 31.18 75.8 30.91 73.85 30.13 73.67 29.35 73.49 23.89 70.33 22.7 73.33 22.15 74.71 25.67 76.97 27.81 78.03Z" fill="#020100" opacity="0.07"/><path d="M29.45 62.94C28.53 62.94 27.64 63.36 27.1 64.11 26.91 64.37 26.78 64.64 26.81 64.89 26.88 65.66 28.28 66.93 29.27 66.78 30.25 66.64 37.97 66.25 38.11 64.9 38.23 63.74 32.47 62.94 29.45 62.94Z" fill="#020100" opacity="0.07"/><path d="M5.44 74.19C5.88 75 6.33 75.72 7.25 75.84 7.57 75.88 8.95 75.75 9.25 75.02 9.53 74.3 9.5 73.34 8.91 72.54 8.32 71.74 4.32 65.13 3.07 65.64 1.99 66.08 4.01 71.53 5.44 74.19Z" fill="#020100" opacity="0.07"/><path d="M25.4 52.04 25.4 52.04C24.79 51.17 25 49.95 25.87 49.34L26.93 48.6C27.8 47.99 29.02 48.2 29.63 49.07L29.63 49.07C30.24 49.94 30.03 51.16 29.16 51.77L28.1 52.51C27.23 53.13 26.01 52.92 25.4 52.04Z" fill="#020100" opacity="0.07"/><path d="M11.4 58.86 11.4 58.86C12 58.21 13.02 58.17 13.67 58.77L14.46 59.5C15.11 60.1 15.15 61.12 14.55 61.77L14.55 61.77C13.95 62.42 12.93 62.46 12.28 61.86L11.49 61.13C10.84 60.53 10.8 59.51 11.4 58.86Z" fill="#020100" opacity="0.07"/><path d="M21.47 47.18 21.47 47.18C22.28 46.82 23.23 47.18 23.59 47.99L24.03 48.97C24.39 49.77 24.02 50.73 23.22 51.09L23.22 51.09C22.41 51.45 21.46 51.09 21.1 50.28L20.66 49.3C20.3 48.49 20.66 47.54 21.47 47.18Z" fill="#020100" opacity="0.07"/><path d="M33.7 58.63 33.7 58.63C34.51 58.27 35.46 58.63 35.82 59.44L36.26 60.42C36.62 61.23 36.26 62.18 35.45 62.54L35.45 62.54C34.64 62.9 33.69 62.54 33.33 61.73L32.89 60.75C32.53 59.95 32.9 58.99 33.7 58.63Z" fill="#020100" opacity="0.07"/><path d="M40.96 71.37 40.96 71.37C41.84 71.44 42.5 72.23 42.42 73.11L42.33 74.18C42.25 75.06 41.47 75.72 40.59 75.64L40.59 75.64C39.71 75.56 39.05 74.78 39.13 73.9L39.22 72.83C39.29 71.95 40.08 71.29 40.96 71.37Z" fill="#020100" opacity="0.07"/><path d="M35.34 107.12 35.34 107.12C36.05 106.59 37.06 106.73 37.59 107.43L38.24 108.28C38.77 108.99 38.63 110 37.93 110.53L37.93 110.53C37.22 111.06 36.21 110.92 35.68 110.22L35.03 109.37C34.5 108.66 34.64 107.65 35.34 107.12Z" fill="#020100" opacity="0.07"/><path d="M35.86 97.44 35.86 97.44C36.97 97.12 38.14 97.77 38.45 98.87L38.84 100.21C39.16 101.32 38.51 102.48 37.41 102.8L37.41 102.8C36.3 103.12 35.14 102.47 34.82 101.36L34.43 100.02C34.11 98.92 34.76 97.76 35.86 97.44Z" fill="#020100" opacity="0.07"/><path d="M3.85 60.7 3.85 60.7C2.81 60.49 2.12 59.47 2.33 58.42L2.58 57.15C2.79 56.1 3.81 55.42 4.86 55.63L4.86 55.63C5.91 55.84 6.59 56.86 6.38 57.91L6.13 59.18C5.92 60.22 4.9 60.91 3.85 60.7Z" fill="#020100" opacity="0.07"/><path d="M34.23 68.47 34.23 68.47C34.26 67.4 35.15 66.55 36.22 66.58L37.51 66.62C38.58 66.65 39.43 67.55 39.4 68.61L39.4 68.61C39.37 69.68 38.47 70.52 37.41 70.49L36.12 70.45C35.05 70.43 34.2 69.53 34.23 68.47Z" fill="#020100" opacity="0.07"/><path d="M10.43 73.59 10.43 73.59C10.64 72.54 11.66 71.86 12.71 72.07L13.98 72.32C15.03 72.53 15.71 73.55 15.5 74.6L15.5 74.6C15.29 75.65 14.27 76.33 13.22 76.12L11.95 75.87C10.91 75.67 10.23 74.64 10.43 73.59Z" fill="#020100" opacity="0.07"/><path d="M30.15 71.77 30.15 71.77C29.4 72.52 28.16 72.52 27.41 71.77L26.5 70.86C25.75 70.11 25.75 68.87 26.5 68.12L26.5 68.12C27.25 67.37 28.49 67.37 29.24 68.12L30.15 69.03C30.9 69.78 30.9 71.02 30.15 71.77Z" fill="#020100" opacity="0.07"/><path d="M5.04 64.62C5.04 64.62 4.96 66.18 6.29 66.51 7.62 66.85 10.64 67.65 11.31 66.97 11.97 66.29 12.16 63.52 11.09 62.35 10.02 61.18 8.68 58.88 7.96 59.27 7.23 59.66 4.91 63.79 5.04 64.62Z" fill="#020100" opacity="0.07"/><path d="M18.67 58.04C18.67 58.04 19.84 57.58 19.64 56.49 19.44 55.4 19.03 52.91 18.31 52.65 17.59 52.39 15.49 53.17 14.99 54.35 14.49 55.53 13.24 57.28 13.77 57.68 14.3 58.08 18.11 58.4 18.67 58.04Z" fill="#020100" opacity="0.07"/><path d="M26.1 61.26C26.1 61.26 26.56 62.43 27.65 62.23 28.74 62.03 31.23 61.62 31.49 60.9 31.75 60.18 30.97 58.08 29.79 57.58 28.61 57.08 26.86 55.84 26.46 56.36 26.06 56.89 25.73 60.7 26.1 61.26Z" fill="#020100" opacity="0.07"/><path d="M21.75 80.54 20.44 81.85C19.7 82.8 19.99 83.66 20.69 84.36L20.69 84.36C22.1 85.77 24.41 85.75 25.8 84.3 26.83 80.17 25.95 78.89 22.49 80.08 22.22 80.18 21.96 80.34 21.75 80.54Z" fill="#020100" opacity="0.15"/><path d="M37.33 86.09 38.08 86.09C38.29 86.09 38.5 86.07 38.7 86.02 39.61 85.76 39.93 85.02 39.93 84.14L39.93 84.14C39.93 83.97 39.92 83.81 39.9 83.65 39.56 81.19 36.58 80.12 34.65 81.68 33.01 83.01 32.9 84.1 34.39 85.17 35.24 85.79 36.28 86.09 37.33 86.09Z" fill="#020100" opacity="0.15"/><path d="M5.93 86.57 5.4 86.04C5.25 85.89 5.09 85.75 4.91 85.65 4.08 85.19 3.33 85.49 2.71 86.11L2.71 86.11C2.59 86.23 2.49 86.35 2.39 86.48 0.89 88.46 2.24 91.32 4.71 91.58 6.81 91.8 7.65 91.11 7.36 89.29 7.19 88.26 6.68 87.31 5.93 86.57Z" fill="#020100" opacity="0.15"/><path d="M8.15 101.45 6.84 102.76C6.1 103.71 6.39 104.57 7.09 105.27L7.09 105.27C8.5 106.68 10.81 106.66 12.2 105.21 13.23 101.09 12.35 99.8 8.9 100.99 8.61 101.08 8.36 101.24 8.15 101.45Z" fill="#020100" opacity="0.15"/><path d="M13.33 84.51 14.45 83.39C14.61 83.23 14.76 83.05 14.87 82.86 15.31 82.07 15.06 81.37 14.5 80.81L14.5 80.81C14.44 80.76 14.39 80.71 14.33 80.66 12.52 79.11 9.51 80.49 9.16 82.98 8.81 85.44 9.84 86.05 12.6 85 12.87 84.87 13.12 84.71 13.33 84.51Z" fill="#020100" opacity="0.1"/><path d="M43.3 79.98 43.58 78.27C43.59 78.19 43.6 78.1 43.6 78.02 43.6 76.91 42.95 76.42 42.08 76.28L42.08 76.28C42.01 76.27 41.93 76.26 41.85 76.25 39.48 76.04 37.85 78.93 39.01 81.15 40.16 83.35 41.35 83.24 42.98 80.78 43.14 80.55 43.25 80.27 43.3 79.98Z" fill="#020100" opacity="0.1"/><path d="M35.18 76.12C36.15 76.12 37.1 76.56 37.66 77.35 37.86 77.63 37.99 77.92 37.97 78.17 37.9 78.99 36.41 80.33 35.37 80.18 34.33 80.03 26.15 79.62 26 78.19 25.88 76.97 31.98 76.12 35.18 76.12Z" fill="#020100" opacity="0.07"/><path d="M4.86 97.76C4.76 98.31 4.26 98.77 3.47 98.96 3.19 99.02 2.91 99.05 2.68 99 1.93 98.82 0.86 97.75 1.1 97.19 1.34 96.63 1.91 91.81 4.3 92.46 5.4 92.75 5.19 95.96 4.86 97.76Z" fill="#020100" opacity="0.07"/><path d="M39.98 117.71C39.42 117.64 38.94 117.16 38.71 116.39 38.63 116.12 38.59 115.84 38.63 115.6 38.77 114.85 39.77 113.71 40.35 113.93 40.93 114.14 45.76 114.43 45.26 116.85 45.02 117.98 41.8 117.94 39.98 117.71Z" fill="#020100" opacity="0.07"/><path d="M10.69 114.27C11.25 114.34 11.73 114.82 11.96 115.59 12.04 115.86 12.09 116.14 12.04 116.38 11.9 117.13 10.9 118.27 10.32 118.05 9.74 117.84 4.91 117.55 5.41 115.13 5.66 114.01 8.87 114.04 10.69 114.27Z" fill="#020100" opacity="0.07"/><path d="M11.29 76.46C11.56 76.13 12.02 75.98 12.54 76.08 12.72 76.12 12.9 76.18 13.01 76.28 13.37 76.61 13.6 77.62 13.25 77.92 12.9 78.22 10.77 81.2 9.62 80.09 9.09 79.57 10.42 77.54 11.29 76.46Z" fill="#020100" opacity="0.07"/><path d="M2.33 79.19C1.99 78.5 2.17 77.58 2.88 76.72 3.13 76.42 3.42 76.16 3.72 76.03 4.69 75.61 6.76 75.9 6.95 76.72 7.14 77.54 10.5 83.32 7.33 84.59 5.86 85.18 3.45 81.46 2.33 79.19Z" fill="#020100" opacity="0.07"/><path d="M40.97 103.23C40.51 104.09 40.02 104.85 39.05 104.98 38.71 105.02 37.24 104.88 36.94 104.11 36.64 103.35 36.67 102.33 37.3 101.48 37.92 100.63 42.16 93.63 43.49 94.17 44.63 94.64 42.48 100.41 40.97 103.23Z" fill="#020100" opacity="0.07"/><path d="M20.36 79.77 20.36 79.77C21.01 78.85 20.79 77.56 19.86 76.91L18.74 76.12C17.82 75.47 16.53 75.69 15.88 76.62L15.88 76.62C15.23 77.54 15.45 78.83 16.38 79.48L17.5 80.27C18.42 80.91 19.71 80.69 20.36 79.77Z" fill="#020100" opacity="0.07"/><path d="M24.52 74.61 24.52 74.61C23.66 74.23 22.65 74.61 22.27 75.47L21.81 76.51C21.43 77.36 21.81 78.38 22.67 78.76L22.67 78.76C23.52 79.14 24.54 78.76 24.92 77.9L25.38 76.86C25.76 76 25.38 74.99 24.52 74.61Z" fill="#020100" opacity="0.07"/><path d="M11.56 86.75 11.56 86.75C10.71 86.37 9.69 86.76 9.31 87.61L8.85 88.64C8.47 89.5 8.86 90.51 9.71 90.89L9.71 90.89C10.56 91.27 11.57 90.89 11.96 90.03L12.42 89C12.8 88.14 12.41 87.13 11.56 86.75Z" fill="#020100" opacity="0.07"/><path d="M3.32 101.18 3.32 101.18C2.39 101.26 1.69 102.09 1.77 103.02L1.87 104.15C1.95 105.08 2.78 105.78 3.71 105.7L3.71 105.7C4.64 105.62 5.34 104.79 5.26 103.86L5.16 102.73C5.09 101.79 4.26 101.09 3.32 101.18Z" fill="#020100" opacity="0.07"/><path d="M43.38 89.91 43.38 89.91C44.49 89.69 45.21 88.6 44.99 87.49L44.72 86.15C44.5 85.04 43.41 84.32 42.3 84.54L42.3 84.54C41.19 84.76 40.47 85.85 40.69 86.95L40.96 88.29C41.18 89.41 42.27 90.13 43.38 89.91Z" fill="#020100" opacity="0.07"/><path d="M11 97.16 11 97.16C10.97 96.03 10.02 95.13 8.89 95.16L7.53 95.2C6.4 95.23 5.5 96.18 5.53 97.31L5.53 97.31C5.56 98.44 6.51 99.34 7.64 99.31L9.01 99.27C10.14 99.24 11.04 98.29 11 97.16Z" fill="#020100" opacity="0.07"/><path d="M15.32 100.66 15.32 100.66C16.12 101.46 17.43 101.46 18.23 100.66L19.2 99.69C20 98.89 20 97.58 19.2 96.78L19.2 96.78C18.4 95.98 17.09 95.98 16.29 96.78L15.32 97.75C14.52 98.56 14.52 99.87 15.32 100.66Z" fill="#020100" opacity="0.07"/><path d="M41.58 92.94C41.58 92.94 41.67 94.59 40.25 94.94 38.84 95.3 35.64 96.15 34.93 95.43 34.23 94.71 34.03 91.78 35.17 90.54 36.31 89.3 37.72 86.86 38.49 87.27 39.26 87.68 41.71 92.06 41.58 92.94Z" fill="#020100" opacity="0.07"/><path d="M37.33 117.81 38.08 117.81C38.29 117.81 38.5 117.79 38.7 117.74 39.61 117.48 39.93 116.74 39.93 115.86L39.93 115.86C39.93 115.7 39.92 115.53 39.9 115.37 39.56 112.91 36.58 111.84 34.65 113.4 33.01 114.73 32.9 115.82 34.39 116.89 35.24 117.51 36.28 117.81 37.33 117.81Z" fill="#020100" opacity="0.15"/><path d="M44.76 109.93 45.04 108.22C45.05 108.14 45.06 108.06 45.06 107.97 45.06 106.86 44.4 106.37 43.54 106.23L43.54 106.23C43.46 106.22 43.39 106.21 43.31 106.2 40.94 106 39.31 108.88 40.47 111.1 41.62 113.3 42.81 113.19 44.44 110.73 44.6 110.5 44.71 110.23 44.76 109.93Z" fill="#020100" opacity="0.1"/><path d="M10.05 107.71C10.32 107.38 10.78 107.23 11.31 107.33 11.49 107.37 11.67 107.43 11.78 107.53 12.14 107.86 12.37 108.87 12.02 109.17 11.67 109.47 9.54 112.45 8.39 111.34 7.86 110.82 9.18 108.79 10.05 107.71Z" fill="#020100" opacity="0.07"/><path d="M1.21 110.91C0.87 110.22 1.04 109.3 1.76 108.44 2.01 108.14 2.3 107.88 2.6 107.75 3.57 107.33 5.64 107.62 5.83 108.44 6.02 109.26 9.38 115.04 6.21 116.31 4.74 116.9 2.33 113.18 1.21 110.91Z" fill="#020100" opacity="0.07"/><rect x="2.66" y="5.17" width="40.9" height="2.98" fill="#C65842"/><rect x="2.52" y="11.06" width="41.19" height="2.98" fill="#C65842"/><path d="M44.81 61.57 1.36 61.57 1.56 53.37 44.62 53.37Z" fill="#C65842"/><path d="M24.61 25.22C24.72 24.98 24.78 24.71 24.78 24.42 24.78 23.31 23.88 22.42 22.78 22.42 21.67 22.42 20.77 23.32 20.77 24.42 20.77 24.71 20.83 24.97 20.94 25.22L20.45 25.22 20.45 39.4 25.11 39.4 25.11 25.22 24.61 25.22Z" fill="#A84333"/><path d="M21.86 26 22.35 26C22.24 25.75 22.18 25.49 22.18 25.2 22.18 24.09 23.08 23.19 24.18 23.19 24.23 23.19 24.28 23.22 24.33 23.22 23.96 22.74 23.41 22.42 22.77 22.42 21.66 22.42 20.76 23.32 20.76 24.42 20.76 24.71 20.82 24.97 20.93 25.22L20.44 25.22 20.44 39.4 21.85 39.4 21.85 26Z" fill="#020100" opacity="0.25"/><path d="M18.99 94.55C19.1 94.31 19.16 94.04 19.16 93.75 19.16 92.65 18.26 91.75 17.15 91.75 16.04 91.75 15.15 92.65 15.15 93.75 15.15 94.04 15.21 94.3 15.32 94.55L14.83 94.55 14.83 108.73 19.49 108.73 19.49 94.55 18.99 94.55Z" fill="#A84333"/><path d="M16.24 95.33 16.73 95.33C16.62 95.08 16.56 94.82 16.56 94.53 16.56 93.42 17.46 92.53 18.57 92.53 18.62 92.53 18.67 92.56 18.72 92.56 18.35 92.08 17.8 91.76 17.16 91.76 16.05 91.76 15.16 92.66 15.16 93.76 15.16 94.05 15.22 94.31 15.33 94.56L14.84 94.56 14.84 108.74 16.25 108.74 16.25 95.33Z" fill="#020100" opacity="0.25"/><path d="M30.5 94.55C30.61 94.31 30.67 94.04 30.67 93.75 30.67 92.65 29.77 91.75 28.66 91.75 27.55 91.75 26.66 92.65 26.66 93.75 26.66 94.04 26.72 94.3 26.83 94.55L26.34 94.55 26.34 108.73 31 108.73 31 94.55 30.5 94.55Z" fill="#A84333"/><path d="M27.75 95.33 28.24 95.33C28.13 95.08 28.07 94.82 28.07 94.53 28.07 93.42 28.97 92.53 30.08 92.53 30.13 92.53 30.18 92.56 30.23 92.56 29.86 92.08 29.31 91.76 28.67 91.76 27.56 91.76 26.67 92.66 26.67 93.76 26.67 94.05 26.73 94.31 26.84 94.56L26.35 94.56 26.35 108.74 27.77 108.74 27.77 95.33Z" fill="#020100" opacity="0.25"/><path d="M39.75 69.34 8.58 69.34 5.87 69.34 5.87 72.06 5.87 118.56 8.58 118.56 8.58 72.06 39.75 72.06Z" opacity="0.2"/><path d="M9.3 27.95 8.59 27.95C8.39 27.95 8.19 27.94 8 27.88 7.14 27.64 6.84 26.93 6.84 26.11L6.84 26.11C6.84 25.95 6.85 25.8 6.87 25.65 7.19 23.33 10.01 22.32 11.83 23.79 13.38 25.04 13.48 26.07 12.07 27.08 11.27 27.66 10.29 27.95 9.3 27.95Z" fill="#020100" opacity="0.15"/><path d="M38.94 28.4 39.44 27.9C39.58 27.76 39.73 27.63 39.9 27.54 40.68 27.11 41.39 27.39 41.98 27.97L41.98 27.97C42.09 28.08 42.19 28.2 42.28 28.32 43.69 30.19 42.42 32.89 40.09 33.14 38.11 33.35 37.31 32.69 37.59 30.98 37.75 29.99 38.24 29.1 38.94 28.4Z" fill="#020100" opacity="0.15"/><path d="M16.98 37.2 17.48 37.7C17.62 37.84 17.75 37.99 17.84 38.16 18.27 38.94 17.99 39.65 17.41 40.23L17.41 40.23C17.3 40.34 17.18 40.44 17.06 40.54 15.19 41.95 12.49 40.68 12.24 38.35 12.03 36.37 12.69 35.57 14.4 35.85 15.39 36.01 16.28 36.5 16.98 37.2Z" fill="#020100" opacity="0.15"/><path d="M35.78 41.55 37.02 42.79C37.71 43.68 37.44 44.5 36.78 45.16L36.78 45.16C35.45 46.49 33.26 46.47 31.96 45.1 30.99 41.21 31.82 40 35.08 41.12 35.34 41.21 35.59 41.36 35.78 41.55Z" fill="#020100" opacity="0.15"/><path d="M30.16 26.45 29.1 25.39C28.95 25.24 28.81 25.07 28.7 24.88 28.28 24.13 28.52 23.47 29.05 22.94L29.05 22.94C29.1 22.89 29.15 22.84 29.21 22.79 30.91 21.32 33.76 22.63 34.09 24.98 34.42 27.3 33.45 27.87 30.85 26.89 30.59 26.8 30.35 26.64 30.16 26.45Z" fill="#020100" opacity="0.1"/><path d="M3.67 22.18 3.41 20.57C3.4 20.49 3.39 20.41 3.39 20.34 3.39 19.29 4.01 18.83 4.82 18.7L4.82 18.7C4.89 18.69 4.96 18.68 5.03 18.67 7.27 18.48 8.81 21.2 7.71 23.3 6.63 25.37 5.5 25.27 3.96 22.95 3.82 22.71 3.71 22.45 3.67 22.18Z" fill="#020100" opacity="0.1"/><path d="M17.43 42.63 18.28 41.24C18.32 41.17 18.36 41.11 18.42 41.05 19.1 40.25 19.87 40.31 20.58 40.74L20.58 40.74C20.64 40.78 20.7 40.82 20.76 40.86 22.58 42.17 21.98 45.24 19.78 46.12 17.61 46.99 16.82 46.18 17.17 43.41 17.19 43.13 17.28 42.86 17.43 42.63Z" fill="#020100" opacity="0.1"/><path d="M11.34 18.53C10.42 18.53 9.53 18.95 8.99 19.7 8.8 19.96 8.67 20.24 8.69 20.48 8.76 21.25 10.16 22.51 11.15 22.37 12.13 22.23 19.85 21.84 19.99 20.49 20.12 19.33 14.35 18.53 11.34 18.53Z" fill="#020100" opacity="0.07"/><path d="M14.81 32.96C14.56 33.47 14.69 34.14 15.21 34.77 15.39 34.99 15.6 35.18 15.83 35.28 16.54 35.58 18.06 35.37 18.2 34.77 18.34 34.17 20.8 29.93 18.48 29.01 17.4 28.58 15.63 31.3 14.81 32.96Z" fill="#020100" opacity="0.07"/><path d="M39.96 38.96C40.06 39.48 40.53 39.91 41.28 40.09 41.54 40.15 41.8 40.18 42.02 40.13 42.72 39.96 43.74 38.96 43.51 38.42 43.28 37.89 42.75 33.34 40.49 33.95 39.44 34.23 39.65 37.26 39.96 38.96Z" fill="#020100" opacity="0.07"/><path d="M33.89 18.85C33.64 18.54 33.2 18.39 32.71 18.49 32.54 18.53 32.37 18.58 32.27 18.68 31.93 18.99 31.71 19.95 32.05 20.23 32.38 20.51 34.39 23.33 35.47 22.28 35.96 21.79 34.71 19.87 33.89 18.85Z" fill="#020100" opacity="0.07"/><path d="M42.34 21.44C42.66 20.79 42.5 19.92 41.82 19.11 41.58 18.83 41.31 18.58 41.03 18.46 40.11 18.07 38.16 18.34 37.98 19.12 37.8 19.9 34.63 25.35 37.62 26.55 39.01 27.09 41.28 23.57 42.34 21.44Z" fill="#020100" opacity="0.07"/><path d="M27.74 47.96C28.39 48.28 29.26 48.11 30.07 47.44 30.35 47.2 30.6 46.93 30.72 46.65 31.11 45.73 30.84 43.78 30.06 43.6 29.28 43.42 23.82 40.26 22.63 43.26 22.08 44.64 25.59 46.9 27.74 47.96Z" fill="#020100" opacity="0.07"/><path d="M29.38 32.87C28.46 32.87 27.57 33.29 27.03 34.03 26.84 34.29 26.71 34.57 26.74 34.81 26.81 35.58 28.21 36.85 29.2 36.71 30.18 36.57 37.9 36.18 38.04 34.83 38.16 33.67 32.39 32.87 29.38 32.87Z" fill="#020100" opacity="0.07"/><path d="M5.37 44.12C5.81 44.93 6.26 45.65 7.18 45.77 7.5 45.81 8.89 45.68 9.18 44.95 9.46 44.23 9.43 43.27 8.84 42.47 8.25 41.67 4.25 35.06 2.99 35.57 1.91 36.01 3.94 41.46 5.37 44.12Z" fill="#020100" opacity="0.07"/><path d="M25.32 21.97 25.32 21.97C24.71 21.1 24.92 19.88 25.79 19.27L26.85 18.53C27.72 17.92 28.94 18.13 29.55 19L29.55 19C30.16 19.87 29.95 21.09 29.08 21.7L28.02 22.44C27.15 23.06 25.94 22.85 25.32 21.97Z" fill="#020100" opacity="0.07"/><path d="M11.32 28.79 11.32 28.79C11.92 28.14 12.94 28.1 13.59 28.7L14.38 29.43C15.03 30.03 15.07 31.05 14.47 31.7L14.47 31.7C13.87 32.35 12.85 32.39 12.2 31.79L11.41 31.06C10.76 30.46 10.72 29.44 11.32 28.79Z" fill="#020100" opacity="0.07"/><path d="M21.39 17.11 21.39 17.11C22.2 16.75 23.15 17.11 23.51 17.92L23.95 18.9C24.31 19.71 23.95 20.66 23.14 21.02L23.14 21.02C22.33 21.38 21.38 21.02 21.02 20.21L20.58 19.23C20.22 18.42 20.59 17.47 21.39 17.11Z" fill="#020100" opacity="0.07"/><path d="M33.63 28.56 33.63 28.56C34.44 28.2 35.39 28.56 35.75 29.37L36.19 30.35C36.55 31.16 36.19 32.11 35.38 32.47L35.38 32.47C34.57 32.83 33.62 32.46 33.26 31.66L32.82 30.68C32.46 29.88 32.82 28.93 33.63 28.56Z" fill="#020100" opacity="0.07"/><path d="M40.88 41.87 40.88 41.87C41.76 41.94 42.42 42.73 42.34 43.61L42.25 44.68C42.18 45.56 41.39 46.22 40.51 46.14L40.51 46.14C39.63 46.07 38.97 45.28 39.05 44.4L39.14 43.33C39.22 42.45 40 41.79 40.88 41.87Z" fill="#020100" opacity="0.07"/><path d="M3.78 30.63 3.78 30.63C2.73 30.42 2.05 29.4 2.26 28.35L2.51 27.08C2.72 26.03 3.74 25.35 4.79 25.56L4.79 25.56C5.84 25.77 6.52 26.79 6.31 27.84L6.06 29.11C5.85 30.15 4.82 30.84 3.78 30.63Z" fill="#020100" opacity="0.07"/><path d="M34.15 38.4 34.15 38.4C34.18 37.33 35.08 36.49 36.14 36.52L37.43 36.55C38.5 36.58 39.34 37.47 39.31 38.54L39.31 38.54C39.28 39.61 38.39 40.46 37.32 40.43L36.03 40.4C34.97 40.36 34.12 39.46 34.15 38.4Z" fill="#020100" opacity="0.07"/><path d="M10.36 43.52 10.36 43.52C10.57 42.47 11.59 41.79 12.64 42L13.91 42.25C14.96 42.46 15.64 43.48 15.43 44.53L15.43 44.53C15.22 45.58 14.2 46.26 13.15 46.05L11.88 45.8C10.84 45.6 10.15 44.57 10.36 43.52Z" fill="#020100" opacity="0.07"/><path d="M30.08 41.7 30.08 41.7C29.33 42.45 28.09 42.45 27.34 41.7L26.43 40.79C25.68 40.03 25.68 38.8 26.43 38.05L26.43 38.05C27.18 37.3 28.42 37.3 29.17 38.05L30.09 38.96C30.83 39.71 30.83 40.95 30.08 41.7Z" fill="#020100" opacity="0.07"/><path d="M4.96 34.55C4.96 34.55 4.88 36.11 6.21 36.44 7.54 36.78 10.56 37.58 11.23 36.9 11.89 36.22 12.08 33.45 11.01 32.28 9.94 31.11 8.6 28.81 7.88 29.2 7.15 29.59 4.84 33.73 4.96 34.55Z" fill="#020100" opacity="0.07"/><path d="M18.59 27.97C18.59 27.97 19.76 27.51 19.57 26.42 19.37 25.33 18.96 22.84 18.24 22.58 17.52 22.32 15.43 23.1 14.92 24.28 14.42 25.46 13.17 27.21 13.7 27.61 14.22 28.01 18.03 28.34 18.59 27.97Z" fill="#020100" opacity="0.07"/><path d="M26.03 31.19C26.03 31.19 26.49 32.36 27.58 32.16 28.67 31.96 31.16 31.55 31.42 30.83 31.68 30.11 30.9 28.01 29.72 27.51 28.54 27.01 26.79 25.77 26.39 26.29 25.98 26.82 25.66 30.63 26.03 31.19Z" fill="#020100" opacity="0.07"/><path d="M0.57 116.24C0.57 115.43 1.58 115.03 2.39 115.03 3.2 115.03 3.51 115.43 3.51 116.24 3.51 117.05 2.85 117.71 2.04 117.71 1.23 117.72 0.57 117.06 0.57 116.24Z" fill="#020100" opacity="0.07"/><path d="M42.33 102.91C42.33 102.1 43.34 101.7 44.16 101.7 44.97 101.7 45.28 102.1 45.28 102.91 45.28 103.72 44.62 104.38 43.81 104.38 42.99 104.38 42.33 103.72 42.33 102.91Z" fill="#020100" opacity="0.07"/></g><path d="M46.17 117.61 44.81 60.57 44.81 60.57 44.62 52.37 44.62 52.37 43.68 13.05 43.7 13.05 43.7 10.06 43.61 10.06 43.54 7.15 43.56 7.15 43.56 4.17 43.47 4.17 43.37 0 2.81 0 2.71 4.17 2.66 4.17 2.66 6.2 2.57 10.06 2.52 10.06 2.52 12.11 0 117.61Z" fill="url(#SVGID_1_)" opacity="0.7"/></svg>