<svg width="350.32" height="616.38" viewBox="0 0 350.32 616.38" xmlns="http://www.w3.org/2000/svg" xmlns:xlink="http://www.w3.org/1999/xlink" xml:space="preserve" overflow="hidden"><defs></defs><g id="g20991_1_" transform="matrix(1.06711 0 0 1.06711 -24.656 135.308)"><linearGradient x1="-609.263" y1="-6.7387" x2="-617.615" y2="25.8071" gradientUnits="userSpaceOnUse" id="SVGID_1_" gradientTransform="matrix(-0.9944 0.1055 0.1055 0.9944 -377.666 111.397)"><stop offset="0.2206" stop-color="#FCE8D9"/><stop offset="1" stop-color="#F4C7BD"/></linearGradient><g id="path997_1_"><path d="M72.17 381.25C72.17 381.25 38.27 372.79 33.64 374.59 20.99 382.36 19.92 438.94 29.46 448.54 35.27 452.42 53.51 451.08 58.75 446.53 63.99 441.98 59.52 414.25 59.52 414.25L66.53 415.44 72.17 381.25Z" fill="#FBB383"/></g><g id="path999_1_"><path d="M39.7 400.99C39.7 400.99 40.12 412.17 52.76 413.8 53.77 420.16 55.18 428.99 54.78 435.32 39.58 440.25 30.86 438.86 23.45 421.7 23.69 433.23 25.15 445.66 29.46 448.54 34.94 452.2 51.47 451.21 57.73 447.28L57.73 447.28C64.72 440.58 60.06 423.1 59.52 414.26L66.53 415.45 68.03 406.33 39.7 400.99Z" fill="#FB8D52"/></g><g id="path9171_1_"><path d="M252.57 439.28C257.57 443.13 353.89 453.06 351.06 421.72 352.26 410.15 350.85 387.09 336.79 378.15 317.32 365.78 269.73 322.31 269.73 322.31L180.76 335.1C180.76 335.1 201.45 384.99 203.73 387.89 206.01 390.78 252.57 439.28 252.57 439.28L252.57 439.28Z" fill="#39525B"/></g><g id="path9056_1_"><path d="M114.88 395.43C88.55 310.19 133.32 306.34 200.36 318.01L182.37 338.98C182.37 338.98 230.21 387.91 229.51 389.6 228.81 391.29 194.76 420.5 194.76 420.5L114.88 395.43Z" fill="#39525B"/></g><g id="path1414_1_"><path d="M196.95 401.52C196.95 401.52 82.03 378.88 74.33 378.12 66.63 377.36 63.05 418.14 69.9 429.97 75.95 441.06 259.18 464.79 266.54 429.3 275.14 412.24 276.09 393.96 259.61 384.57 243.13 375.18 200.8 348.25 200.8 348.25L158.69 347.6 196.95 401.52Z" fill="#39525B"/></g><g id="path9700_1_"><path d="M224.63 448.84C213.38 441.19 256.9 451.23 264.94 428.49 269.52 419.42 278.07 397.14 258.72 386.12 245.34 378.5 215.49 359.68 203.28 351.94 201.32 350.76 203.24 347.63 205.19 348.93 214.7 354.96 246.81 375.23 260.49 383.02 275.76 391.72 278.62 409.32 268.13 430.1 260.55 445.16 248.01 448.15 224.63 448.84Z" fill="#27383E"/></g><g id="path11212_1_"><path d="M196.95 403.3C196.36 401.52 113.78 390.33 85.79 380.07 115.04 380.21 196.81 401.41 197.29 399.77 199.35 400.12 199.05 403.36 196.95 403.3Z" fill="#27383E"/></g><g id="path1011_1_"><path d="M265.86 336.08C265.86 336.08 259.78 354.62 262.83 364.11 265.88 373.59 281.28 382.4 285.18 380.27 289.08 378.14 277.74 361.2 277.74 361.2L281.09 338.54 265.86 336.08Z" fill="#FBB383"/></g><g id="path1015_1_"><path d="M198.64 114.98C88.6 122.5 115.15 268.02 105.31 329.44 128.3 340.11 251.27 344.99 279.32 334.34 278.32 275.48 277.88 223.83 262.21 155.21 247.83 133.26 217.64 116.34 198.64 114.98L198.64 114.98Z" fill="#83BACE"/></g><g id="path1017_1_"><path d="M277.3 368.79C277.3 368.79 285.78 377.88 293.21 380.58 307.19 383.94 329.9 385.81 327.02 367.3 326.37 364.25 299.41 343.12 294.62 340.85 289.83 338.58 273.12 342.99 273.12 342.99L277.3 368.79Z" fill="#FBB383"/></g><g id="path1019_1_"><path d="M198.64 114.98C193.24 114.99 184.9 116.27 175.72 119.34 171.01 126.91 172.69 139.06 197.2 145.95L211.67 159.07 218.78 143.59C218.78 143.59 231.18 139.86 229.52 125.84 215.96 119.14 207.33 115.33 198.64 114.98L198.64 114.98Z" fill="#567A88"/></g><g id="path1021_1_"><path d="M184.14 104.57 183.88 126.25C188.24 130.96 213.95 146.84 220.17 129.57 220.17 129.57 217.51 110.49 217.51 110.49L184.14 104.57Z" fill="#FB8D52"/></g><g id="path1053_1_"><path d="M248.45 279.79C245.71 279.58 244.12 283.06 242.84 284.97 241.54 286.99 242.12 289.66 244.13 290.96 244.18 290.99 278.7 313.27 278.76 313.29L278.35 298.21C277.41 297.85 248.96 278.49 248.45 279.79L248.45 279.79ZM174.78 280.3C173.95 280.28 173.1 280.51 172.34 281L137.77 303.3C134.03 305.63 136.55 309.89 138.54 312.48 139.84 314.5 142.51 315.07 144.53 313.77L179.1 291.47C181.12 290.17 181.69 287.5 180.39 285.48 179.08 283.58 177.54 280.08 174.78 280.3L174.78 280.3Z" fill="#567A88"/></g><g id="path16390_1_"><path d="M167.77 354.28C177.63 390.94 187.43 403.39 228.94 393.61 232.73 391.74 235.62 380.41 231.41 373.66 227.2 366.91 189.7 339.66 189.7 339.66L167.77 354.28Z" fill="#FBB383"/></g><g id="path1059_1_"><path d="M144.94 137.11C104.78 159.47 89.37 217.82 89.11 263.6 88.99 284.21 89.85 286.76 101.73 301.46 113.61 316.16 166.92 361.77 166.92 361.77 166.92 361.77 191.27 345.26 195.41 335.86 180.17 319.74 133.21 267.55 133.21 267.55 133.9 250.4 176.64 151.31 144.94 137.11L144.94 137.11Z" fill="#83BACE"/></g><g id="path1061_1_"><path d="M283.64 382.37C256.42 375.88 257.82 355.01 264.02 335.97 264.68 333.76 268.15 334.83 267.42 337.03 266.84 338.88 261.87 355.3 264.52 363.55 266.69 370.08 277.09 378.63 284.2 378.74 284.68 376.95 281.04 369.34 276.25 362.18 275.7 361.36 275.92 360.25 276.74 359.7 277.56 359.15 278.67 359.37 279.21 360.19 281.39 364.13 294.21 381.23 283.64 382.37Z" fill="#FB8D52"/></g><g id="path1063_1_"><path d="M260.87 153.53C267.26 170.05 267.92 189.87 271.6 207.44 273.12 216.88 275.8 234.48 276.84 241.65 276.84 241.65 278.1 288.59 278.1 288.59L277.31 288.87C277.65 289.13 260.43 336.61 260.48 336.88 264.14 339.23 282 350.88 301.52 343.13 300.85 294.35 297.94 184.32 260.87 153.53L260.87 153.53Z" fill="#83BACE"/></g><g id="path1065_1_"><path d="M166.92 363.56C163 361.79 113.42 317.84 100.34 302.59 99.43 301.68 98.43 300.08 99.78 299.05 101.09 297.98 102.4 299.24 103.11 300.35 113.84 313.63 159.52 353.07 167.03 359.53 171.6 356.34 188.79 344 193.25 336.18 177.33 319.26 132.34 269.27 131.88 268.75 130.25 265.82 149.16 203.26 151.81 188.74 163.23 175.05 133.05 269.44 135.18 267.08 140.88 273.41 182.62 319.74 196.71 334.64 197.2 335.16 197.34 335.93 197.05 336.59 192.09 346.72 168.88 363.14 166.92 363.56Z" fill="#567A88"/></g><g id="path1067_1_"><path d="M287.92 347.56C273.47 347.39 262.98 340.64 259.49 338.37 258.81 337.92 258.52 337.06 258.79 336.29L275.52 288.98C275.48 288.36 275.77 287.77 276.27 287.42L275.04 241.81C272.93 227.41 269.66 206.27 267.03 190.65 266.61 188.39 270.2 187.75 270.55 190.06 273.13 205.39 276.61 227.73 278.6 241.61 278.6 241.61 279.86 288.55 279.86 288.55 279.88 289.25 279.49 289.89 278.87 290.2L262.62 336.17C267.04 338.99 283.73 348.4 300.64 341.58 301.76 340.89 303.34 341.77 303.3 343.11 301.19 347.36 291.75 347.17 287.92 347.56Z" fill="#567A88"/></g><g id="path12742_1_"><path d="M103.24 426.97C97.61 414.56 84.38 413.98 72.36 417.26 60.34 420.55 42.58 425.95 44.51 433.32 51.86 446.25 104.19 454.14 103.24 426.97L103.24 426.97Z" fill="#FBB383"/></g><g id="path15671_1_"><path d="M78.99 447.09C42.41 445.53 23.9 426.6 71.89 415.54 88.02 411.12 99.73 414.92 104.86 426.23 106.18 442.06 91.26 446.29 78.99 447.09ZM83.88 417.36C70.7 417.34 42.32 428.6 46.23 432.87 47.75 438.69 73.75 445.62 84.33 443.02 108.98 439.03 104.63 417.25 83.88 417.36Z" fill="#FB8D52"/></g><g id="path20327_1_"><path d="M221.03 389.08C221.03 389.08 236.62 398.17 241.84 401.33 247.06 404.49 253.35 400.64 248.23 394 243.1 387.36 225.44 373.38 225.44 373.38L221.03 389.08Z" fill="#FBB383"/></g><g id="path20409_1_"><path d="M245.68 404.25C239.29 403.61 221.8 390.81 220.13 390.63 218.12 389.49 219.94 386.35 221.93 387.55 222.09 387.64 237.6 396.68 242.77 399.82 262.91 404.42 222.01 372.89 224.34 374.79 219.99 363.53 244.78 387.13 249.65 392.92 254.66 400.18 250.67 403.9 245.68 404.25Z" fill="#FB8D52"/></g><path d="M288.03 47.43C288.64 54.58 288.61 61.82 287.52 69.09 284.46 89.72 272.42 108.87 256.81 117.44 246.99 122.84 236.3 124.12 225.87 124.72 199.55 126.23 172.66 123.66 148.84 111.43 130.99 102.26 109.94 80.15 108.61 53.8 107.69 35.68 115.83 18.08 123.66 1.87 137.37-26.48 152.5-56.52 176.13-71.25 199.16-85.61 224.57-83.03 244.32-66.42 267.6-46.85 274.22-17.75 282.01 14.65 284.56 25.3 287.08 36.27 288.03 47.43Z" fill="#F9B799"/><g><path d="M179.77 13.14C186.48 8.76 194.78 11.72 199.45 18.29 204.33 25.14 205.83 34.9 206.46 44.34 206.5 44.89 206.52 45.5 206.26 45.98 205.95 46.57 205.34 46.76 204.79 46.89 195.25 49.15 185.45 48.47 176.54 44.91 170.01 42.31 167.27 37.81 167.21 32.84 167.15 25.88 172.35 17.99 179.77 13.14Z" fill="#FFFFFF"/><g><path d="M194.71 46.93C198.41 43.21 199.05 36.37 196.14 31.66 193.23 26.94 187.87 26.14 184.16 29.86 180.46 33.58 179.82 40.42 182.73 45.14 185.64 49.84 191.01 50.65 194.71 46.93Z" fill="#8C7257"/><path d="M192.32 45.55C193.65 44.21 193.89 41.75 192.84 40.05 191.79 38.35 189.86 38.06 188.52 39.4 187.19 40.74 186.95 43.2 188 44.9 189.06 46.6 190.99 46.89 192.32 45.55Z" fill="#3A3129"/><path d="M185.2 43.61C185.14 43.65 185.08 43.7 185.05 43.77 184.99 43.92 185.08 44.09 185.16 44.22 185.44 44.64 185.76 45.03 186.15 45.26 186.54 45.5 187 45.58 187.41 45.38 187.79 45.2 188.08 44.8 188.33 44.4 188.62 43.94 190.52 40.47 189.23 40.74 188.61 40.87 187.78 41.77 187.23 42.16 186.55 42.65 185.87 43.13 185.2 43.61Z" fill="#FFFFFF" opacity="0.2"/></g><g><path d="M167.17 32.85C167.05 31.3 167.22 29.72 167.58 28.19 167.93 26.66 168.47 25.16 169.16 23.75 170.56 20.92 172.48 18.36 174.72 16.12 175.27 15.55 175.87 15.03 176.45 14.49 177.07 13.99 177.68 13.48 178.33 13.03 179.57 12.08 181.09 11.24 182.66 10.74 185.83 9.66 189.36 9.98 192.4 11.24 193.92 11.88 195.32 12.77 196.57 13.8 197.83 14.83 198.97 16.01 199.91 17.33 200.86 18.63 201.69 20 202.37 21.44 202.74 22.15 203.03 22.89 203.34 23.62 203.6 24.37 203.89 25.11 204.1 25.86 205.04 28.87 205.62 31.95 206.01 35.04 206.34 38.14 206.53 41.23 206.52 44.33L206.4 44.34C205.95 38.2 205.24 32 203.25 26.15 202.76 24.69 202.17 23.26 201.48 21.89 200.81 20.51 199.99 19.19 199.07 17.96 198.16 16.72 197.07 15.62 195.88 14.66 194.69 13.7 193.37 12.88 191.95 12.3 189.14 11.11 185.9 10.78 182.98 11.74 181.52 12.2 180.15 12.92 178.91 13.84 177.65 14.72 176.45 15.69 175.34 16.76 173.1 18.87 171.16 21.31 169.7 24.03 168.23 26.73 167.29 29.76 167.29 32.84L167.17 32.85Z" fill="#5E5149"/></g></g><g><path d="M266.53 16.12C261.24 11.53 253.68 13.75 248.81 19.62 243.73 25.74 241.24 34.84 239.53 43.69 239.43 44.21 239.33 44.78 239.5 45.25 239.7 45.83 240.21 46.05 240.66 46.21 248.67 49 257.26 49.02 265.43 46.29 271.42 44.29 274.35 40.23 275.01 35.55 275.93 28.99 272.39 21.2 266.53 16.12Z" fill="#FFFFFF"/><g><path d="M274.96 35.55C275.32 32.73 274.92 29.85 273.98 27.17 273.06 24.49 271.64 21.98 269.88 19.76 269 18.65 268.04 17.6 266.99 16.65 265.95 15.7 264.79 14.84 263.45 14.38 260.79 13.38 257.78 13.7 255.2 14.82 252.61 15.97 250.36 17.81 248.6 20.03 246.82 22.24 245.43 24.75 244.29 27.34 242.01 32.56 240.68 38.13 239.58 43.7L239.49 43.68C239.86 40.85 240.39 38.05 241.01 35.25 241.7 32.47 242.52 29.72 243.62 27.04 244.69 24.36 246.13 21.8 247.93 19.49 249.74 17.16 252.08 15.2 254.82 13.95 257.58 12.78 260.84 12.45 263.74 13.57 265.19 14.09 266.47 15.05 267.53 16.05 268.62 17.03 269.58 18.14 270.45 19.31 272.2 21.64 273.58 24.25 274.44 27.02 275.28 29.79 275.59 32.75 275.04 35.57L274.96 35.55Z" fill="#5E5149"/></g><g><path d="M264.23 46.1C268.05 42.24 268.92 35.53 266.17 31.13 263.42 26.72 258.1 26.28 254.28 30.15 250.46 34.01 249.59 40.72 252.34 45.12 255.09 49.53 260.41 49.97 264.23 46.1Z" fill="#8C7257"/><path d="M261.78 45.24C263.16 43.85 263.47 41.43 262.48 39.84 261.49 38.25 259.57 38.09 258.2 39.49 256.82 40.88 256.51 43.3 257.5 44.89 258.49 46.48 260.4 46.64 261.78 45.24Z" fill="#3A3129"/><path d="M254.85 43.49C254.79 43.53 254.73 43.58 254.69 43.66 254.62 43.81 254.7 43.97 254.78 44.09 255.05 44.48 255.36 44.84 255.74 45.04 256.12 45.25 256.58 45.29 256.99 45.08 257.37 44.88 257.67 44.48 257.94 44.07 258.24 43.6 260.25 40.1 258.96 40.44 258.34 40.6 257.48 41.53 256.91 41.95 256.23 42.46 255.54 42.97 254.85 43.49Z" fill="#FFFFFF" opacity="0.2"/></g></g><path d="M238.64 54.7C240.42 56.88 242.91 59.06 242.54 62.31 242.34 64.04 241.29 65.56 240.05 66.46 238.81 67.36 237.4 67.72 236.01 67.94 234.32 68.21 232.54 68.27 231.09 67.32 228.79 65.82 227.95 62.22 227.9 58.88 227.82 53.24 229.54 46.33 233.05 42.24 235.06 46.31 235.84 51.27 238.64 54.7Z" fill="url(#SVGID_1_)"/><path d="M239.01 61.53C240.56 62.3 242.32 62.04 243.97 61.58 245.32 61.2 246.68 60.68 247.81 59.64 248.94 58.6 249.8 56.97 249.8 55.23 248.49 56.87 246.5 57.89 244.79 58.73 242.93 59.65 240.89 60.6 239.01 61.53Z" opacity="0.07"/><path d="M202.75-3.36C194.13 2.29 184.9 6.27 175.51 8.38 162.88 11.22 150.31 12.89 146.02 31.54 144.38 38.66 145.21 46.37 148.25 52.25 144.68 45.24 141.79 36.65 142.71 28.03 143.63 19.41 147.95 10.8 154.37 6.97 159.51 3.9 165.26 4.11 170.79 3.91 181.8 3.5 192.02 0.83 202.75-3.36Z" opacity="0.15"/><path d="M260.04-37.31C259.63-34.88 268.26-22.27 269.47-19.34 272.05-13.1 274.62-6.2 275.78 0.82 278.05 14.62 280.26 29.32 279.16 43.89 283.46 25.08 288.27 5.26 285.25-13.2 284.68-16.66 283.81-20.13 281.95-22.67 280.25-24.98 277.88-26.31 275.57-27.6 270.49-30.41 265.11-34.49 260.04-37.31Z" opacity="0.15"/><g><path d="M176.31-7.9C178.39-10.05 180.87-11.85 183.59-13.25 186.31-14.65 189.34-15.51 192.46-15.81 195.55-16.12 198.87-16 201.81-14.69 202.52-14.31 203.24-14 203.93-13.56 204.61-13.11 205.29-12.63 205.86-12.02 207.05-10.85 207.88-9.23 207.89-7.63L207.59-7.53C205.85-10.04 203.38-10.88 200.7-11.71 199.37-12.06 198.07-12.47 196.72-12.75 196.05-12.94 195.36-13.01 194.68-13.13 193.99-13.19 193.29-13.26 192.59-13.27 191.19-13.27 189.77-13.15 188.38-12.89 187.67-12.79 186.99-12.59 186.29-12.44 185.61-12.22 184.91-12.05 184.24-11.79 181.51-10.84 178.94-9.4 176.55-7.66L176.31-7.9Z" fill="#BC5D1D"/></g><path d="M229.74-80.55C231.35-85.72 227.58-90.98 223.34-91.62 219.1-92.26 214.79-89.76 210.78-87.32 204.02-83.22 197.25-79.11 190.49-75.01 191.64-81.41 193.4-87.69 195.71-93.69 183.53-97.1 170.65-88.83 159.15-80.85 160.93-89.22 166.44-96.13 172.71-100.08 178.98-104.02 185.95-105.36 192.75-105.86 203.31-106.64 213.84-105.54 223.91-102.62 227.21-101.66 230.76-101.49 232.13-97.43 233.89-92.16 231.3-85.56 229.74-80.55Z" fill="#FFFFFF" opacity="0.1"/><path d="M282.4-75.3C287.85-73.04 292.43-68.18 295.06-61.87 297.69-55.56 298.35-47.87 296.87-40.61 294.48-47.56 291.25-54 287.32-59.66 286.88-55.85 286.96-51.99 287.58-48.32 283.18-48.25 279.5-51.79 276.69-55.73 271.39-63.18 270-80.45 282.4-75.3Z" fill="#FFFFFF" opacity="0.1"/><path d="M129.35 1.61C128.9 1.12 128.39 0.71 127.79 0.42 124.15-1.35 122.35 0.87 120.17 4.83 117.59 9.53 116.14 15.93 115.26 22.25 113.8 26.09 113.02 30.39 113.23 34.12 113.32 35.77 113.61 37.4 114.01 38.98 113.92 45.39 114.37 51.94 114.78 58.4 111.77 55.08 108.35 52.82 104.48 51.26 102.66 46.72 100.28 42.56 98.49 37.98 93.09 24.07 93.95 7.17 95.94-8.8 97.69-22.81 99.89-37.31 103.6-50.93 105.97-59.63 110.91-66.51 115.48-73.86 124.9-89.01 137.54-100.56 151.16-108.84 178.17-125.26 210.15-130.72 238.28-123.99 253.97-120.24 269.91-114.42 273.65-94.09 288.8-97.53 300.32-79.05 306.53-62.35 312.74-45.65 311.96-25.49 308.36-6.69 304.57 13.1 296.47 34.05 281.63 43.11 282.73 28.54 280.53 13.84 278.25 0.04 277.09-6.98 274.52-13.88 271.94-20.12 270.73-23.05 262.1-35.66 262.51-38.09 260.54-26.49 257.31-17.52 251.22-9.84 246.15-13.08 239.62-13.54 233.65-11.57 231.58-10.89 229.6-9.71 227.7-8.33 225.8-8.23 224.02-7.81 222.37-7.15 218.59-8.17 214.6-7.94 211.05-5.83 208.93-4.57 206.73-3.32 204.64-1.88 204.85-2.63 205.06-3.38 205.23-4.15 196.61 1.5 187.38 5.48 177.99 7.59 175.71 8.1 173.44 8.58 171.22 9.12 167.87 7.17 164.05 6.25 160.23 6.75 158.64 6.96 157.07 7.01 155.48 7.11 154.71 7.05 153.93 7.01 153.17 6.93 152.52 6.86 151.87 6.72 151.23 6.62 146.04 0.2 137.84-1.95 129.88 1.33 129.69 1.39 129.53 1.53 129.35 1.61Z" fill="#110802"/><g id="path8693_1_"><path d="M224.25 94.33C219.02 93.78 208.99 95.31 209.11 90.81 209.41 89.87 210.41 89.35 211.35 89.65 216.93 91.44 233.27 90.7 239.87 90.09 240.84 90 241.72 90.72 241.81 91.7 241.65 95.46 230.88 93.66 224.25 94.33Z" fill="#FB8D52"/></g></g></svg>