<svg width="101.38" height="70.95" viewBox="0 0 101.38 70.95" xmlns="http://www.w3.org/2000/svg" xmlns:xlink="http://www.w3.org/1999/xlink" xml:space="preserve" overflow="hidden"><defs></defs><g><path d="M75.31 42.37C75.4 43.09 75.51 43.86 75.5 44.59 75.48 45.62 74.98 46.38 74.56 47.28 74.12 48.24 72.6 49.22 72.08 50.15 71.89 50.48 71.57 50.56 71.29 50.48 71.18 50.45 71.08 50.4 70.99 50.33 70.94 50.47 70.89 50.6 70.84 50.74 70.6 51.46 69.64 51.36 69.43 50.82 69.34 51.1 69.27 51.38 69.25 51.66 69.24 51.9 69.13 52.08 68.98 52.2 68.62 52.65 67.68 52.5 67.66 51.75 67.64 50.86 69.04 47.79 69.12 47.14 69.08 47.49 68.57 51.16 67.76 51.14 67.29 51.13 67.12 51.4 66.95 50.81 66.8 50.28 67.13 49.37 67.24 48.86 67.49 47.74 67.74 46.75 68.29 45.73 68.58 45.18 68.87 44.61 68.93 43.98 68.95 43.83 69 42.47 69.06 42.48 68.74 42.41 68.38 42.38 68.05 42.31 67.72 42.24 67.16 43.8 66.61 43.88 66.1 43.96 65.63 43.52 65.79 43 65.9 42.64 66.1 42.35 66.33 42.06 66.5 41.84 66.67 41.58 66.86 41.39 67.4 40.84 68.23 40.8 68.93 40.58 69.75 40.32 70.57 40.06 71.39 39.8 71.65 39.72 71.96 39.55 72.26 39.47 72.42 39.43 72.57 39.4 72.72 39.42 73.1 39.47 73.67 39.77 74.04 39.92 74.08 39.94 74.12 39.95 74.16 39.97 74.28 40.03 74.39 40.1 74.49 40.18 74.73 40.38 74.88 40.64 75 40.93 75.19 41.38 75.25 41.9 75.31 42.37Z" fill="#FFDCC0"/><path d="M92.76 52.19 95.54 47.59C95.42 47.84 95.3 48.09 95.18 48.34 95.12 48.53 95.06 48.72 94.99 48.89 94.79 49.42 94.56 49.94 94.33 50.45 94.1 50.95 93.93 51.64 93.48 52.03 93.33 52.17 93.35 52.21 93.15 52.25 93.11 52.26 92.76 52.2 92.76 52.19Z" fill="#F4C7A8"/><path d="M93.13 47.13C92.44 48.32 91.28 49.91 90.5 51.1 90.86 49.92 91.86 48.36 92.19 47.78 92.55 47.1 92.91 46.42 93.26 45.74 93.4 45.47 93.49 45.18 93.44 45.02 93.45 45.02 94.15 45.37 93.13 47.13Z" fill="#F4C7A8"/><path d="M91.2 53.3C91.17 53.26 91.14 53.21 91.12 53.15 91.09 53.07 91.05 52.61 91.04 52.52L93.97 48.86C93.97 48.85 92.07 52.14 91.2 53.3Z" fill="#F4C7A8"/><g><g><path d="M48.84 46.45 78.47 47.97 101.38 47.97 64.42 45.65Z" fill="#D39416"/><g><g><path d="M79 54.44C78.8 54.62 78.6 54.8 78.34 54.86 78.08 54.92 77.77 54.83 77.67 54.58 77.56 54.31 77.75 54.02 77.93 53.8 78.74 52.78 79.59 51.8 80.48 50.85 81.18 50.1 83.1 49.18 82.45 50.88 81.96 52.13 79.98 53.55 79 54.44Z" fill="#F7B177"/><path d="M71.99 50.15C69.58 51.39 67.39 53.04 65.55 55.03 64.77 55.87 64.01 56.84 63.89 57.99 63.88 58.09 63.88 58.21 63.97 58.27 64.03 58.31 64.12 58.3 64.2 58.29 64.86 58.15 65.41 57.72 65.94 57.3 67.15 56.34 68.36 55.38 69.58 54.42 70.67 53.56 71.76 52.69 72.63 51.61 72.96 51.19 73.24 50.53 72.85 50.17 72.71 50.05 72.52 49.99 72.34 49.99 71.95 49.99 71.56 50.19 71.35 50.52L71.99 50.15Z" fill="#F7B177"/><path d="M74.1 52.16C71.75 54.65 68.5 56.08 65.83 58.23 65.48 58.51 65.1 58.99 65.36 59.36 65.55 59.63 65.95 59.62 66.27 59.55 67.01 59.4 67.7 59.09 68.38 58.78 70.99 57.61 73.75 56.32 75.26 53.89 75.47 53.55 75.65 53.18 75.65 52.79 75.64 52.39 75.39 51.98 75 51.91 74.37 51.79 73.97 52.53 73.48 52.96L74.1 52.16Z" fill="#F7B177"/><path d="M82.28 42.35C81.25 42.23 80.21 41.98 79.17 42.03 78.27 42.07 76.71 42.42 76.41 43.42 76.31 43.74 76.74 44.89 77.05 45.01 77.23 45.08 77.76 45.37 77.95 45.34 79.32 45.11 80.8 44.1 82.03 43.48 83.58 42.71 83.51 42.5 82.28 42.35Z" fill="#1695C1"/><path d="M82.12 49.01C81.94 49.36 80.68 49.57 80.67 49.97 80.66 50.36 81.95 50.94 82.32 51.05 82.87 51.22 83.36 50.66 83.65 50.16 84.29 49.07 84.82 47.93 85.24 46.74 85.38 46.35 85.51 45.94 85.47 45.52 85.42 45.03 85.04 44.46 84.48 44.55 83.88 44.65 84.1 45.05 83.88 45.45 83.24 46.59 82.71 47.84 82.12 49.01Z" fill="#1695C1"/><path d="M83.26 43.08C80.54 42.69 78.32 43.71 76.32 44.81 74.08 46.03 71.94 47.38 69.81 48.72 71.14 51.58 73.49 54.29 76.28 56.2 77.31 55.88 77.99 55.11 78.64 54.36 80.58 52.13 82.52 49.89 84.01 47.31 84.33 46.75 84.64 46.15 84.66 45.44 84.68 44.72 84.37 43.86 83.69 43.26L83.26 43.08Z" fill="#27AAE1"/><path d="M92.02 40.09C91.81 37.98 90.04 36.37 87.92 36.5 87.6 36.44 87.25 36.47 86.87 36.62 86.45 36.78 86.05 36.98 85.67 37.22 84.17 38.1 82.99 39.65 82.62 41.25 81.93 44.27 84.81 46.59 87.66 45.77 88.49 45.53 89.29 45.05 89.97 44.42 91.29 43.39 92.19 41.88 92.02 40.09Z" fill="#F7B177"/><path d="M88.09 43.53C87.99 43.26 87.73 43.07 87.27 43.19 86.96 43.27 86.73 43.57 86.73 43.89 86.73 44.21 86.97 44.51 87.29 44.57 87.96 44.69 88.26 43.99 88.09 43.53Z" fill="#DD6E58"/><path d="M84.89 39.77C84.88 39.76 84.86 39.75 84.85 39.74 84.61 39.59 84.24 39.65 84 39.78 83.82 39.88 83.69 40.07 83.7 40.27 83.71 40.38 83.76 40.48 83.81 40.57 83.96 40.8 84.18 41 84.45 41.06 85.28 41.24 85.47 40.18 84.89 39.77Z" fill="#DD6E58"/><g><path d="M86.58 39.18C86.46 38.99 86.21 38.7 85.98 38.64 85.77 38.59 85.71 38.92 85.92 38.97 85.91 38.97 85.91 38.97 85.9 38.97 85.92 38.98 85.94 39 85.95 39.01 86 39.05 86.05 39.1 86.1 39.14 86.12 39.16 86.13 39.18 86.15 39.2 86.11 39.21 86.08 39.24 86.04 39.27 85.97 39.34 85.94 39.43 85.95 39.51 85.94 39.57 85.96 39.63 86 39.67 86.08 39.79 86.23 39.87 86.4 39.82 86.73 39.73 86.73 39.42 86.58 39.18Z" fill="#231F20"/><path d="M85.9 38.97 85.9 38.97 85.9 38.97Z" fill="#231F20"/><path d="M85.9 38.97C85.87 38.97 85.92 38.98 85.9 38.97L85.9 38.97Z" fill="#231F20"/></g><path d="M89.23 42.33C89.29 42.1 89.22 41.82 89.04 41.66 88.86 41.49 88.52 41.47 88.34 41.67 88.18 41.85 88.3 42.11 88.52 42.15 88.66 42.17 88.81 42.14 88.86 42 88.86 41.99 88.86 41.99 88.86 41.98 88.91 42.07 88.91 42.19 88.89 42.28 88.85 42.48 89.18 42.54 89.23 42.33Z" fill="#231F20"/><path d="M87.12 43.54C86.11 43 85.19 42.13 84.92 40.97 84.87 40.76 84.56 40.87 84.6 41.08 84.88 42.32 85.88 43.26 86.97 43.84 87.17 43.94 87.31 43.64 87.12 43.54Z" fill="#603913"/></g><path d="M90.34 43.84C89.99 43.97 89.61 43.96 89.24 44.02 88.87 44.08 88.48 44.24 88.31 44.57 88.14 44.9 88.34 45.41 88.71 45.42 88.24 45.11 87.58 44.97 87.11 45.29 86.65 45.62 86.67 46.5 87.21 46.65 86.8 46.64 86.56 47.17 86.69 47.56 86.83 47.95 87.19 48.2 87.55 48.4 87.88 48.59 88.24 48.78 88.62 48.75 89 48.73 89.38 48.4 89.34 48.03 89.58 48.89 90.84 49.2 91.5 48.6 92.16 48 92.02 46.79 91.29 46.29 91.79 46.59 92.44 45.94 92.35 45.36 92.26 44.78 91.75 44.37 91.25 44.07 92.02 43.69 92.76 43.2 93.29 42.52 93.82 41.84 94.11 40.94 93.92 40.1 93.71 39.16 92.94 38.44 92.17 37.86 90.59 36.69 89.95 38.4 89.72 39.73 89.65 40.09 89.78 44.05 90.34 43.84Z" fill="#F15A29"/><path d="M88.96 37.98C88 37.82 87.14 37.32 86.3 36.84 86.15 37.21 85.99 37.6 85.68 37.86 85.37 38.12 84.86 38.18 84.59 37.89 84.55 38.34 84.41 38.8 84.08 39.12 83.75 39.43 83.21 39.54 82.84 39.28 83.23 39.65 82.92 40.4 82.39 40.54 81.87 40.68 81.32 40.37 80.97 39.96 80.63 39.56 80.42 39.01 80.55 38.5 80.67 37.99 81.2 37.57 81.71 37.67 81.19 37.5 80.77 37.03 80.7 36.49 80.63 35.95 80.96 35.37 81.48 35.18 82 35 82.64 35.28 82.82 35.8 82.5 35.05 83.11 34.08 83.92 34.04 84.38 34.02 84.83 34.25 85.16 34.58 85.58 35 85.83 35.58 85.86 36.17 86.59 35.24 87.83 34.74 89 34.91 89.8 35.03 91.58 35.89 91.57 36.9 91.55 37.97 89.74 38.11 88.96 37.98Z" fill="#F15A29"/><path d="M76.41 43.43C76.42 43.39 76.44 43.36 76.45 43.32 74.71 43.9 72.95 44.56 71.64 45.83 71.38 46.08 71.16 46.55 71.46 46.75 71.62 46.85 71.83 46.8 72.01 46.74 73.64 46.18 75.22 45.46 76.71 44.59 76.51 44.19 76.35 43.64 76.41 43.43Z" fill="#F7B177"/></g><path d="M48.84 46.45 78.47 47.97 78.03 70.51 50 68.55Z" fill="#FCD975"/><path d="M78.47 47.97 101.38 47.97 98.31 68.71 78.03 70.51Z" fill="#EFAF18"/><path d="M86.47 69.76 85.95 60.69 91.67 60.69 91.34 69.33Z" fill="#D39416"/></g><path d="M52.59 60.01 74.4 62.04 73.68 52.59Z" fill="#D39416"/></g></g><g><path d="M17.26 0.05C16.41 0.61 15.56 1.16 14.7 1.72 15.27 1.86 15.79 2.16 16.19 2.59 14.96 1.53 12.68 5.46 12.26 7.03 15.27 9.47 18.24 8.85 21.38 11.12 22.46 9.39 21.97 7.08 21.26 5.24 21.03 4.61 18.15-0.54 17.26 0.05Z" fill="#4F290A"/><g><path d="M55.73 36.41C55.72 36.46 55.69 36.5 55.67 36.54 55.68 36.68 55.65 36.84 55.51 37.04 55.37 37.23 53.58 38.65 52.25 38.36 52.16 38.34 52.07 38.31 51.99 38.27 46.73 39.54 44.74 42.6 38.14 41.4 37.82 41.34 37.48 41.37 37.14 41.35 35.81 41.29 31.61 40.36 30.42 39.47 30.37 39.44 30.32 39.4 30.28 39.36 30.01 39.14 29.77 38.9 29.6 38.58 29.55 38.48 29.27 37.63 29.26 37.62 30.21 37.68 33.82 37.72 34.77 37.77 34.85 37.79 34.94 37.79 35.04 37.79 35.49 37.81 35.93 37.84 36.36 37.86 41.33 38.1 46.38 37.96 50.88 35.33 51.48 34.98 52.03 34.52 52.68 34.35 52.81 34.32 52.96 34.31 53.09 34.29 53.13 34.29 53.17 34.28 53.21 34.3 53.39 34.23 53.59 34.17 53.77 34.18 53.89 34.13 54.03 34.09 54.18 34.08 54.57 34.04 54.72 34.48 54.6 34.78 54.8 34.82 54.99 34.88 55.14 35.03 55.36 35.25 55.42 35.52 55.37 35.79 55.6 35.89 55.78 36.06 55.73 36.41Z" fill="#FFDCC0"/><path d="M52.24 38.36C52.15 38.34 52.06 38.31 51.98 38.27 46.72 39.54 44.73 42.6 38.13 41.4 37.81 41.34 37.47 41.37 37.13 41.35 35.8 41.29 31.6 40.36 30.41 39.47 30.36 39.44 30.31 39.4 30.27 39.36 30.34 39.28 30.43 39.23 30.58 39.2 31.53 39.04 35.86 39.81 36.83 39.99 39.2 40.44 41.64 40.68 44.03 40.27 46.78 39.81 49.35 38.53 52.12 38.21 52.16 38.27 52.2 38.31 52.24 38.36Z" fill="#F4C7A8"/></g><path d="M14.62 63.78C14.5 64.05 14.51 64.36 14.53 64.65 14.59 65.69 14.65 66.73 14.71 67.77 14.77 68.81 14.93 70.02 15.82 70.56 16.28 70.84 16.85 70.87 17.39 70.89 17.82 70.91 18.26 70.93 18.69 70.95 18.77 70.95 18.87 70.96 18.94 70.91 19.01 70.86 19.04 70.77 19.05 70.68 19.12 70.11 18.53 69.72 18.06 69.41 17.05 68.74 16.22 67.77 15.83 66.62 15.52 65.71 15.52 64.74 15.79 63.82 15.92 63.38 16.18 63.12 15.64 63.09 15.26 63.07 14.76 63.47 14.62 63.78Z" fill="#EAB02F"/><path d="M24.98 68.55C25.21 68.76 25.44 68.99 25.58 69.26 25.71 69.55 25.72 69.91 25.51 70.14 23.84 72.06 20.52 68.64 18.77 66.55 18.69 66.46 18.61 66.36 18.54 66.28 18.53 66.41 19.08 68.27 19.06 68.4 18.95 69.12 17.35 69.33 16.85 68.94 16.13 68.36 15.83 65.64 15.91 64.71 15.92 64.49 16 64.3 16.1 64.14 16.13 63.51 16.65 63.03 17.31 63.04 17.89 63.04 18.48 63.23 18.99 63.5 19.07 63.54 19.15 63.59 19.23 63.63 19.28 63.67 19.33 63.72 19.38 63.77 20.17 63.88 21.55 64.23 22.83 64.61 24.33 65.06 25.73 65.56 25.99 65.79 26.88 66.62 25.68 66.98 25.02 67.46 24.67 67.73 24.47 68.06 24.98 68.55Z" fill="#F4C7A8"/><path d="M34.77 62.68C34.65 64.53 34.34 66.34 33.77 68.16 33.39 69.35 33.05 70.41 31.78 70.67 30.67 70.9 29.31 70.22 29.01 69.07 28.95 68.81 28.89 68.56 28.85 68.3 28.65 67.12 28.69 65.96 28.58 64.74 28.43 63.11 28.32 61.48 28.08 59.86 28.04 59.57 27.87 59.56 27.66 59.57 27.48 59.59 27.29 59.64 27.11 59.55 27.24 59.81 27.12 60.01 27.15 60.35 27.4 62.67 27.69 64.98 27.9 67.3 28.05 68.98 28.07 70.02 26.37 70.75 23.05 72.17 21.31 64.9 20.38 62.54 19 59.04 18.93 58.45 19.55 54.72 19.61 54.35 19.74 54.02 19.91 53.71 20.61 52.45 22.11 51.54 23.67 51.22 25.62 50.81 27.65 51.12 29.6 51.5 31.96 51.96 34.12 52.28 34.45 54.54 34.7 56.28 34.75 58.05 34.8 59.81 34.85 60.77 34.83 61.73 34.77 62.68Z" fill="#662D91"/><path d="M32.96 56.07C33.02 56.03 33.06 55.98 33.12 55.94 33.63 55.66 33.99 55.44 34.38 54.99 34.42 54.94 34.47 54.92 34.51 54.88 34.5 54.77 34.49 54.65 34.47 54.54 34.15 52.27 31.99 51.95 29.62 51.5 27.67 51.12 25.64 50.81 23.69 51.22 22.13 51.54 20.62 52.45 19.93 53.71 21.21 54.53 22.34 55.2 22.63 55.35 25.49 56.75 29.03 57.11 32.16 56.17 32.43 56.09 32.7 56.01 32.96 56.07Z" fill="#4E1F77"/><path d="M27.5 36.36C27.59 34.65 27.76 32.93 27.75 31.21 27.94 30.9 28.21 30.65 28.54 30.49 28.94 30.21 29.46 30.09 29.95 30.16 29.95 30.16 29.96 30.16 29.96 30.16 30.96 30.12 31.81 30.8 31.92 31.8 32.04 32.86 32.16 36.31 32.19 36.7 32.15 36.79 32.11 36.88 32.06 36.96 32.03 37.02 31.94 37.11 31.91 37.18 31.91 37.18 31.91 37.18 31.91 37.18 31.79 37.33 31.67 37.47 31.54 37.61 31.52 37.63 31.45 37.7 31.39 37.75 31.36 37.77 31.33 37.8 31.32 37.81 31.16 37.93 31 38.04 30.83 38.14 30.75 38.18 30.67 38.22 30.59 38.27 30.61 38.26 30.63 38.24 30.65 38.23 30.77 38.18 30.9 38.07 30.65 38.23 30.65 38.23 30.64 38.23 30.64 38.24 30.48 38.31 30.31 38.36 30.14 38.41 30.12 38.42 30.03 38.43 29.97 38.45 29.95 38.45 29.93 38.46 29.92 38.46 29.75 38.48 29.58 38.49 29.4 38.49 29.19 38.43 29.17 38.45 29.23 38.47 29.22 38.47 29.2 38.47 29.19 38.46 29.11 38.45 29.02 38.43 28.94 38.41 28.91 38.4 28.78 38.36 28.72 38.34 28.72 38.34 28.72 38.34 28.71 38.34 28.62 38.3 28.53 38.25 28.44 38.2 28.42 38.19 28.4 38.17 28.38 38.16 28.37 38.15 28.32 38.1 28.25 38.08 28.15 38 27.97 37.74 27.86 37.71 27.79 37.62 27.72 37.52 27.66 37.43 27.6 37.34 27.55 37.25 27.5 37.16 27.49 37.15 27.49 37.14 27.48 37.13 27.48 37.12 27.47 37.11 27.46 37.09 27.48 36.84 27.49 36.6 27.5 36.36Z" fill="#F4C7A8"/><path d="M14.02 18.38C14.02 19.48 14.08 20.61 14.23 21.73 14.46 23.43 14.91 25.1 15.69 26.59 16.01 27.2 16.47 27.91 17.03 28.62 17.57 29.29 18.2 29.96 18.88 30.52 19.51 31.04 20.19 31.47 20.87 31.73 20.89 31.72 20.9 31.71 20.92 31.7 21.04 31.58 21.17 31.48 21.29 31.36 21.43 31.21 21.61 31.1 21.81 31.02 21.83 31.01 21.86 31 21.88 30.99 21.9 30.89 21.91 30.78 21.9 30.68 21.89 30.62 21.9 30.56 21.93 30.51 21.67 29.49 21.36 28.49 21.13 27.47 20.97 26.77 20.87 26.16 20.85 25.48 20.84 25.12 20.85 24.77 20.88 24.41 20.89 24.26 20.91 24.1 20.93 23.95 20.93 23.93 20.94 23.91 20.94 23.91 20.94 23.89 20.95 23.88 20.95 23.86 20.95 23.86 20.95 23.86 20.95 23.86 20.96 23.79 20.97 23.73 20.98 23.66 21.07 23.14 21.2 22.62 21.35 22.12 21.43 21.86 21.52 21.6 21.61 21.34 21.65 21.23 21.7 21.12 21.74 21 21.76 20.94 21.79 20.89 21.81 20.83 21.81 20.83 21.81 20.82 21.81 20.82 21.81 20.82 21.81 20.81 21.81 20.81 21.82 20.8 21.82 20.78 21.83 20.76 21.94 20.52 22.05 20.28 22.17 20.05 22.53 19.33 22.95 18.64 23.42 17.99 23.94 17.26 24.67 16.43 25.43 15.72 25.81 15.37 26.2 15.03 26.61 14.72 26.63 14.7 26.69 14.66 26.71 14.65 26.73 14.63 26.75 14.62 26.78 14.6 26.86 14.54 26.94 14.48 27.02 14.42 27.2 14.29 27.38 14.16 27.57 14.04 28.38 13.49 29.22 13 30.1 12.56 30.33 12.45 30.57 12.34 30.8 12.23 30.9 12.18 31.01 12.14 31.11 12.09 31.12 12.09 31.13 12.08 31.13 12.08 31.19 12.06 31.25 12.03 31.31 12.01 31.75 11.84 32.2 11.69 32.66 11.56 32.69 11.55 32.71 11.55 32.74 11.54 33.22 11.41 33.7 11.31 34.19 11.24 34.21 11.24 34.31 11.23 34.33 11.22 34.37 11.22 34.4 11.21 34.44 11.21 34.55 11.2 34.66 11.19 34.77 11.19 35 11.18 35.23 11.17 35.47 11.18 35.72 11.18 35.96 11.2 36.2 11.23 36.24 11.23 36.28 11.24 36.32 11.25 36.33 11.25 36.33 11.25 36.34 11.25 36.46 11.27 36.58 11.29 36.7 11.32 36.85 11.35 37 11.39 37.15 11.44 37.3 11.54 37.47 11.6 37.65 11.61 37.67 11.62 37.69 11.62 37.71 11.63 37.72 11.63 37.73 11.64 37.74 11.64 37.79 11.66 37.85 11.69 37.9 11.71 38.21 11.86 38.56 11.88 38.85 11.75 39.02 11.95 39.26 12.09 39.57 12.09 40.02 12.1 40.53 11.73 40.59 11.26 40.6 11.21 40.6 11.15 40.59 11.09 40.53 10.42 40.18 9.89 39.71 9.47 39.57 9.21 39.39 8.99 39.19 8.8 39.06 8.58 38.85 8.4 38.59 8.33 38.58 8.33 38.56 8.32 38.55 8.32 38.25 8.13 37.91 7.97 37.57 7.84 37.49 7.81 37.42 7.78 37.34 7.75 37.31 7.74 37.29 7.72 37.26 7.71 36.87 7.5 36.48 7.3 36.07 7.12 35.88 7.04 35.7 6.96 35.51 6.89 34.25 6.41 33 5.87 31.66 5.64 29.38 5.2 27 5.37 24.78 6.02 22.51 6.68 20.48 7.89 18.71 9.44 16.97 10.98 15.43 12.87 14.64 15.07 14.26 16.11 14.02 17.27 14.02 18.38Z" fill="#603913"/><path d="M16.46 22.59C16.51 23.02 16.59 23.45 16.69 23.87 17.14 25.84 18.05 27.71 19.3 29.3 20.17 30.4 21.21 31.37 22.39 32.14 22.53 32.23 22.68 32.33 22.83 32.41 25.52 34.02 28.89 34.29 31.95 34.09 34.27 33.94 36.79 33.76 38.87 32.61 41.13 31.37 42.44 28.4 42.98 25.99 43.23 24.89 43.4 23.81 43.53 22.91 43.54 22.82 43.56 22.72 43.57 22.63 43.71 21.66 43.76 20.68 43.72 19.7 43.71 19.52 43.7 19.34 43.69 19.16 43.64 18.45 43.56 17.74 43.43 17.03 43.34 16.5 43.23 15.97 43.1 15.44 42.93 14.74 42.71 14.01 42.37 13.34 42.12 12.84 41.8 12.39 41.39 12.02 41.18 11.83 40.91 11.73 40.65 11.73 40.54 11.63 40.41 11.56 40.26 11.52 38.71 11.16 37.24 10.56 35.66 10.34 33.92 10.1 32.19 10.49 30.45 10.41 30.13 10.4 29.83 10.56 29.64 10.81 28.71 10.94 27.76 11.13 26.83 11.4 26.54 11.48 26.25 11.57 25.96 11.67 23.49 12.49 21.17 13.81 19.43 15.62 18.96 16.12 18.48 16.71 18.05 17.37 17.01 18.95 16.25 20.88 16.46 22.59Z" fill="#FFDCC0"/><g><path d="M36.39 15.61C36.38 15.61 36.37 15.61 36.36 15.62 36.36 15.62 36.37 15.62 36.37 15.61 36.38 15.62 36.38 15.62 36.39 15.61Z" fill="#F4C7A8"/><path d="M36.43 15.61C36.46 15.61 36.49 15.61 36.52 15.61 36.49 15.61 36.45 15.61 36.39 15.62 36.4 15.62 36.4 15.62 36.41 15.62 36.41 15.61 36.42 15.61 36.43 15.61Z" fill="#F4C7A8"/><path d="M36.37 15.62C36.34 15.62 36.31 15.62 36.27 15.62 36.27 15.62 36.27 15.62 36.27 15.62 36.31 15.61 36.34 15.61 36.37 15.62 36.37 15.61 36.37 15.61 36.37 15.62Z" fill="#F4C7A8"/><path d="M36.36 15.62C36.34 15.63 36.29 15.65 36.23 15.66 36.23 15.66 36.23 15.65 36.24 15.65 36.28 15.64 36.32 15.63 36.36 15.62Z" fill="#F4C7A8"/><path d="M19.57 25.79C19.82 24.37 20.5 23 21.65 22.09 22.76 21.2 24.09 20.77 25.44 20.38 25.71 20.3 25.99 20.22 26.26 20.13 26.41 20.08 26.56 20.03 26.71 19.98 26.81 19.95 26.9 19.92 27 19.88 27 19.88 27 19.88 27 19.88 27 19.88 27 19.88 27 19.88 27.05 19.86 27.13 19.82 27.17 19.8 27.43 19.69 27.72 19.6 27.98 19.49 28.34 19.33 28.7 19.17 29.05 18.98 29.37 18.81 29.68 18.64 29.98 18.44 30.04 18.4 30.1 18.36 30.16 18.32 30.33 18.19 30.5 18.07 30.66 17.93 30.93 17.71 31.17 17.47 31.41 17.22 31.47 17.15 31.55 17.04 31.56 17.03 31.69 16.85 31.82 16.66 31.93 16.47 32.03 16.31 32.12 16.14 32.2 15.98 32.24 15.91 32.27 15.85 32.3 15.78 32.32 15.75 32.34 15.71 32.37 15.67 32.44 15.54 32.49 15.39 32.55 15.26 32.69 14.97 32.83 14.69 32.97 14.4 33.33 13.69 33.8 13.1 34.47 12.67 35.13 12.24 35.95 12.15 36.72 12.16 37.65 12.16 38.57 12.32 39.48 12.54 40.32 12.74 41.14 13 41.97 13.23 42.1 13.27 42.22 13.3 42.35 13.33 42.69 14 42.91 14.73 43.08 15.43 43.12 15.61 43.16 15.78 43.2 15.96 42.97 15.87 42.73 15.78 42.5 15.7 40.77 15.13 38.22 14.77 36.53 15.75 36.53 15.75 36.53 15.75 36.53 15.75 35.63 16.27 35.34 17.44 34.77 18.27 34.12 19.21 33.33 20.07 32.45 20.8 30.26 22.62 27.81 23.13 25.19 24 25.17 24.01 25.14 24.02 25.12 24.02 25 24.07 24.87 24.12 24.75 24.17 23.42 24.76 22.84 26.18 22.69 27.54 22.64 27.97 22.43 32.15 22.38 32.11 21.21 31.34 20.16 30.37 19.29 29.27 19.31 29.02 19.32 28.78 19.33 28.53 19.39 27.64 19.41 26.71 19.57 25.79Z" fill="#F4C7A8"/><path d="M26.99 19.89C27.21 19.78 27.22 19.78 27.16 19.81 27.11 19.83 27.05 19.86 26.99 19.89 26.99 19.89 26.99 19.89 26.99 19.89Z" fill="#F4C7A8"/></g><g><path d="M40.83 13.61C40.82 13.61 40.81 13.61 40.8 13.6 40.8 13.6 40.8 13.6 40.8 13.6 40.81 13.61 40.82 13.61 40.83 13.61Z" fill="#603913"/><path d="M16.04 24.11C16.12 24.96 16.4 25.77 16.8 26.52 16.88 26.68 16.97 26.83 17.06 26.99 17.14 27.12 17.22 27.24 17.3 27.37 17.62 28.48 18.11 29.64 18.88 30.53 19.18 30.88 19.53 31.18 19.92 31.43 20.84 32 21.71 31.92 21.8 31.02 21.82 30.85 21.81 30.65 21.76 30.42 21.61 29.61 21.25 28.85 21.07 28.04 21.05 27.93 21.08 27.85 21.14 27.78 20.96 27.47 20.81 27.15 20.71 26.81 20.5 26.05 20.49 24.84 20.8 24.11 20.84 24.02 20.88 23.94 20.93 23.86 21.8 22.47 24.62 22.05 25.98 21.58 28.05 20.86 30.19 20.05 31.82 18.53 33.07 17.36 34.14 15.88 34.7 14.23 36.33 14.08 37.88 13.54 39.55 13.57 41.3 13.61 42.93 14.27 43.93 15.7 44.48 15.38 44.71 14.87 44.73 14.28 44.78 12.94 43.74 11.22 43.04 10.49 41.71 9.1 39.88 8.11 38.06 7.52 37.45 7.32 36.76 7.15 36.07 7.09 34.82 6.99 33.59 7.26 32.96 8.44 32.78 8.37 32.58 8.35 32.36 8.39 32.18 8.23 31.94 8.16 31.69 8.18 31.48 8.09 31.24 8.07 31.02 8.11 30.94 8.13 30.87 8.15 30.8 8.19 30.74 8.19 30.68 8.2 30.63 8.21 30.53 8.23 30.44 8.27 30.36 8.32 30.36 8.26 30.37 8.2 30.37 8.14 30.39 7.59 29.92 7.12 29.38 7.11 28.83 7.1 28.37 7.56 28.35 8.1 28.35 8.27 28.33 8.44 28.31 8.6 28.3 8.7 28.28 8.81 28.27 8.91 28.26 8.97 28.25 9.03 28.24 9.09 28.23 9.12 28.23 9.16 28.22 9.19 27.99 9.69 27.72 10.17 27.43 10.63 26.3 10.87 25.2 11.19 24.12 11.62 22.79 12.16 21.65 12.97 20.65 13.99 19.52 15.13 18.46 16.37 17.69 17.78 17.46 17.86 17.26 18.01 17.12 18.22 16.59 19.06 16.33 20.09 16.17 21.06 16.03 22.08 15.94 23.1 16.04 24.11Z" fill="#603913"/></g><g><path d="M16.8 26.52C16.81 27.22 16.9 27.93 17.04 28.62 17.58 29.29 18.21 29.96 18.89 30.52 19.19 30.87 19.54 31.17 19.93 31.42 20.85 31.99 21.72 31.91 21.81 31.01 21.83 31 21.86 30.99 21.88 30.98 21.9 30.88 21.91 30.77 21.9 30.67 21.89 30.61 21.9 30.55 21.93 30.5 21.67 29.48 21.36 28.48 21.13 27.46 20.97 26.76 20.87 26.15 20.85 25.47 20.84 25.11 20.85 24.76 20.88 24.4 20.89 24.25 20.91 24.09 20.93 23.94 20.93 23.92 20.94 23.9 20.94 23.9 20.94 23.88 20.95 23.87 20.95 23.85 21.82 22.46 24.64 22.04 26 21.57 28.07 20.85 30.21 20.04 31.84 18.52 33.09 17.35 34.16 15.87 34.72 14.22 36.35 14.07 37.9 13.53 39.57 13.56 41.32 13.6 42.95 14.26 43.95 15.69 44.5 15.37 44.73 14.86 44.75 14.27 44.51 13.93 44.25 13.62 43.96 13.33 42.99 12.35 41.84 11.67 40.59 11.24 38.42 10.48 35.96 10.46 33.71 10.92 33.35 10.99 32.94 11.23 32.66 11.54 32.5 11.72 32.38 11.93 32.34 12.15 32.1 13.36 31.91 14.6 31.47 15.76 31.43 15.87 31.39 15.97 31.34 16.08 31.35 16.06 31.36 16.05 31.36 16.05 31.36 16.06 31.33 16.13 31.3 16.18 31.29 16.19 31.29 16.2 31.28 16.22 31.25 16.28 31.23 16.34 31.2 16.39 31.22 16.33 31.24 16.29 31.26 16.25 31.13 16.48 31 16.7 30.85 16.91 30.76 17.03 30.67 17.14 30.58 17.25 30.7 17.08 30.75 17.02 30.76 17.01 30.75 17.02 30.61 17.21 30.53 17.28 30.31 17.5 30.07 17.69 29.83 17.88 29.78 17.91 29.73 17.95 29.68 17.98 29.55 18.06 29.43 18.13 29.3 18.2 28.97 18.38 28.63 18.55 28.28 18.7 28.09 18.78 27.89 18.86 27.7 18.94 27.68 18.95 27.67 18.95 27.65 18.96 27.62 18.97 27.58 18.98 27.56 18.98 27.23 19.09 26.89 19.19 26.54 19.28 25.21 19.63 23.85 19.79 22.49 19.98 22.38 19.99 22.28 20.01 22.17 20.03 21.27 20.17 20.35 20.38 19.55 20.83 18.44 21.45 17.67 22.42 17.24 23.61 16.91 24.53 16.78 25.52 16.8 26.52Z" fill="#4F290A"/><path d="M31.28 16.23C31.27 16.24 31.27 16.25 31.26 16.26 31.3 16.18 31.32 16.12 31.34 16.09 31.33 16.12 31.32 16.14 31.31 16.17 31.3 16.19 31.29 16.21 31.28 16.23Z" fill="#4F290A"/></g><path d="M17.07 23.54C18.12 22.18 19.83 22.91 21.15 23.32 21.24 23.35 21.33 23.39 21.41 23.43 21.29 24.34 21.41 25.28 21.62 26.16 21.73 26.62 21.86 27.08 22.03 27.53 21.34 27.7 20.56 27.71 19.86 27.63 18.96 27.53 18 27.33 17.33 26.66 16.53 25.85 16.36 24.46 17.07 23.54Z" fill="#F4C7A8"/><path d="M20.68 25.02C20.68 25.02 17.88 24.68 18.26 25.33 18.64 25.98 20.89 26.64 20.99 26.2 21.08 25.76 20.68 25.02 20.68 25.02Z" fill="#E5A980"/><path d="M20.14 22.23C22.8 21.23 25.65 21.35 28.38 20.68 30.54 20.15 32.5 18.84 33.66 16.91 34.27 15.9 34.54 14.73 34.17 13.59 34.01 13.1 34.8 12.93 34.96 13.42 35.71 15.7 34.24 17.98 32.57 19.42 31.74 20.14 30.79 20.74 29.76 21.11 28.39 21.6 26.94 21.8 25.5 21.97 23.82 22.17 22.11 22.34 20.52 22.95 20.03 23.13 19.65 22.41 20.14 22.23Z" fill="#4F290A"/><path d="M17.78 10.66C18.65 9.43 19.23 8.03 20.41 7.04 21.61 6.04 23.04 5.33 24.5 4.8 27.2 3.83 30.11 3.65 32.83 4.66 34.25 5.18 35.53 6 36.6 7.08 38.63 6.68 40.73 6.53 42.52 7.81 44.15 8.98 45.25 10.78 45.26 12.81 45.26 13.31 45.18 13.92 44.89 14.34 44.82 14.33 44.76 14.32 44.69 14.3 44.65 14.3 44.62 14.3 44.58 14.3 44.56 14.21 44.54 14.13 44.52 14.04 44.5 13.93 44.48 13.83 44.46 13.72 44.46 13.71 44.46 13.7 44.46 13.69 44.46 13.63 44.46 13.57 44.46 13.51 44.46 13.42 44.46 13.34 44.44 13.26 44.46 13.05 44.46 12.84 44.45 12.69 44.44 12.04 44.31 11.38 44.02 10.79 43.58 9.89 42.89 9.07 42.07 8.49 41.18 7.85 40.13 7.58 39.04 7.58 38.25 7.58 37.46 7.71 36.68 7.88 36.6 7.93 36.5 7.96 36.4 7.94 36.1 8 35.79 8.08 35.49 8.15 34.98 8.27 34.81 7.48 35.32 7.36 35.43 7.33 35.54 7.31 35.65 7.28 33.87 5.68 31.53 4.82 29.13 4.77 27.8 4.74 26.51 4.98 25.24 5.39 23.86 5.84 22.49 6.46 21.32 7.33 20.67 7.82 20.14 8.39 19.69 9.07 19.26 9.74 18.9 10.45 18.44 11.1 18.15 11.52 17.47 11.08 17.78 10.66Z" fill="#603913"/><path d="M31.45 22.39C31.43 22.81 31.75 23.18 32.18 23.2 32.6 23.22 32.97 22.9 32.99 22.47 33.01 22.05 32.69 21.68 32.26 21.66 31.83 21.65 31.47 21.97 31.45 22.39Z" fill="#231F20"/><path d="M27.2 24.95C27.15 25.9 28.29 26.74 29.74 26.82 31.2 26.9 32.42 26.19 32.47 25.23 32.52 24.28 31.38 23.44 29.93 23.36 28.48 23.29 27.25 24 27.2 24.95Z" fill="#FFB0B0"/><path d="M41.79 25.22C41.99 25.58 42.41 25.84 42.97 26 43.22 24.9 43.39 23.82 43.52 22.92 42.11 23.49 41.36 24.45 41.79 25.22Z" fill="#FFB0B0"/><path d="M42.02 19.48C42.51 19.37 43.18 19.46 43.72 19.71 43.71 19.53 43.7 19.35 43.69 19.17 43.58 19.13 43.47 19.1 43.36 19.07 42.88 18.94 42.36 18.88 41.87 18.99 41.54 19.06 41.7 19.55 42.02 19.48Z" fill="#603913"/><path d="M30.49 22.02C30.54 22.18 30.89 22.25 31.02 22.27 31.04 22.27 31.07 22.28 31.11 22.28 30.8 22.07 30.59 21.65 30.51 21.26 30.46 20.96 30.92 20.86 30.97 21.16 31.02 21.45 31.31 22.19 31.72 21.9 31.96 21.73 32.28 22.07 32.04 22.25 32.05 22.29 32.05 22.34 32.02 22.39 31.69 23.08 30.24 22.78 30.03 22.12 29.93 21.83 30.4 21.73 30.49 22.02Z" fill="#231F20"/><path d="M42.96 21.57C42.94 21.99 42.58 22.32 42.15 22.3 41.73 22.28 41.4 21.92 41.42 21.49 41.44 21.07 41.8 20.74 42.23 20.76 42.66 20.78 42.98 21.14 42.96 21.57Z" fill="#231F20"/><path d="M44.01 20.68C44 20.84 43.68 21 43.56 21.06 43.54 21.07 43.51 21.08 43.48 21.09 43.72 20.81 43.83 20.35 43.81 19.96 43.79 19.66 43.32 19.67 43.34 19.98 43.36 20.27 43.26 21.06 42.8 20.89 42.52 20.78 42.3 21.19 42.58 21.3 42.58 21.34 42.6 21.38 42.63 21.43 43.12 22.02 44.45 21.36 44.49 20.67 44.5 20.36 44.03 20.38 44.01 20.68Z" fill="#231F20"/><path d="M38.62 22.28C38.62 22.28 41.11 24.14 39.14 24.68L38.62 22.28Z" fill="#F4C7A8"/><path d="M41.35 25.46 32.79 26.08C32.79 26.08 34.25 30.54 37.65 30.03 41.05 29.52 41.35 25.46 41.35 25.46Z" fill="#FFFFFF"/><path d="M19.86 53.33C19.76 53.4 23.13 55.33 23.52 55.46 24.91 55.93 26.4 56.11 27.87 55.99 29.34 55.87 33.17 55.22 34.48 54.53 35.94 53.76 34.43 53.42 34.47 51.73 34.57 47.17 34.01 45.43 35.26 40.48 35.67 38.85 33.82 37.14 32.2 36.7 32.01 36.65 31.85 38.06 29.81 38.23 28.87 38.31 27.94 37.7 27.54 36.84 26.8 37.23 25.99 37.31 25.15 37.27 23.71 37.21 22.48 38.32 22.35 39.76 21.92 44.2 20.98 52.58 19.86 53.33Z" fill="#662D91"/><path d="M28.02 64C28.03 63.93 28.03 63.86 28.04 63.79L28.05 64.01C28.04 64 28.03 64 28.02 64Z" fill="#4E1F77"/><path d="M19.06 68.4C18.75 68.48 18.41 68.5 18.1 68.52 17.64 68.55 17.1 68.31 16.86 67.89 16.59 67.42 16.48 67.01 16.35 66.48 15.92 64.71 16.69 62.72 18.18 63.16 17.18 62.78 15.69 62.82 15.16 63.75 14.86 64.28 14.84 64.93 14.86 65.54 14.9 66.52 15.04 67.49 15.27 68.44 15.4 68.98 15.58 69.53 15.95 69.93 16.52 70.54 17.43 70.68 18.26 70.78 18.7 70.83 19.27 70.8 19.42 70.38 19.48 70.21 19.44 70.02 19.39 69.84 19.29 69.37 19.18 68.89 19.06 68.4Z" fill="#EAB02F"/><path d="M28.86 68.29C28.66 67.11 28.7 65.95 28.59 64.73 28.44 63.1 28.33 61.47 28.09 59.85 28.05 59.56 27.88 59.55 27.68 59.56 27.87 59.45 28.12 59.36 28.38 59.04 28.66 58.67 28.82 58.21 28.95 57.78 29.53 61.26 29.49 64.83 28.86 68.29Z" fill="#4E1F77"/><path d="M10.89 13.49C8.98 13.07 6.99 12.89 5.07 13.27 3.15 13.65 1.31 14.63 0.14 16.2 0.08 16.3 0 16.41 0 16.53 0 16.66 0.07 16.78 0.14 16.89 1.33 18.7 2.53 20.5 3.72 22.31 4.19 21.15 5.03 20.14 6.07 19.46 5.42 20.35 4.77 21.23 4.12 22.12 5.62 22.46 6.87 23.68 7.24 25.17 7.91 24.93 8.27 24.22 8.59 23.58 9.92 20.98 11.85 19.35 13.76 17.25 16.11 14.69 13.86 14.14 10.89 13.49Z" fill="#603913"/><path d="M13.4 13.46C12.99 14.92 12.93 16.49 13.24 17.98 13.75 18.29 14.45 18.1 14.87 17.68 15.29 17.26 15.5 16.67 15.64 16.09 15.84 15.27 15.92 14.35 15.46 13.64 15 12.93 13.81 12.7 13.34 13.4L13.4 13.46Z" fill="#FFBE08"/><path d="M30.82 64.49C30.79 64.27 30.7 64.05 30.59 63.83 30.59 63.78 30.58 63.73 30.57 63.69 30.54 63.53 30.49 63.35 30.44 63.2 30.13 62.45 29.52 61.83 29.03 61.17 25.29 56.11 24.22 50 23.59 43.94 23.54 43.39 23.49 42.86 23.44 42.32 23.42 42.21 23.41 42.1 23.41 42 23.3 40.82 23.2 39.64 23.09 38.47 23.08 38.48 22.18 38.96 22.08 39.03 21.7 39.34 21.45 39.73 21.24 40.16 20.46 41.74 19.68 43.78 19.86 45.41 19.9 45.83 20 46.23 19.99 46.63 19.83 54.83 23.6 56.78 25.97 62.96 25.58 64.69 27.73 66.91 27.98 67.05 28.22 67.19 28.41 67.21 28.56 67.17 28.62 67.18 28.66 67.22 28.72 67.22 29.12 67.23 29.27 66.99 29.33 66.69 29.63 66.7 29.93 66.59 30.13 66.29 30.27 66.09 30.3 65.84 30.31 65.59 30.67 65.69 31.12 65.44 31.01 64.97 30.97 64.8 30.9 64.64 30.82 64.49Z" fill="#FFDCC0"/><path d="M30.58 63.68C29.82 63.08 29.25 62.31 28.75 61.54 27.89 60.26 27.15 58.92 26.49 57.56 25.29 55.03 24.44 52.37 23.94 49.65 23.59 47.75 23.63 45.82 23.59 43.93 24.22 49.99 25.29 56.1 29.03 61.16 29.52 61.82 30.13 62.44 30.44 63.19 30.5 63.35 30.54 63.52 30.58 63.68Z" fill="#F4C7A8"/></g><g><path d="M70.62 34.81C70.62 40.01 66.4 44.23 61.2 44.23 57.69 44.23 54.63 42.31 53.01 39.47 52.23 38.1 51.78 36.51 51.78 34.81 51.78 29.61 56 25.39 61.2 25.39 62.89 25.39 64.48 25.84 65.86 26.62 68.7 28.24 70.62 31.3 70.62 34.81Z" fill="#F15A29"/><path d="M67.08 31.27C67.08 36.47 62.86 40.69 57.66 40.69 55.96 40.69 54.38 40.24 53 39.46 52.82 39.15 52.66 38.83 52.52 38.5 52.04 37.37 51.77 36.12 51.77 34.81 51.77 29.61 55.99 25.39 61.19 25.39 62.5 25.39 63.75 25.66 64.88 26.14 65.21 26.28 65.53 26.44 65.84 26.62 66.64 27.99 67.08 29.58 67.08 31.27Z" fill="#F2C34C"/><path d="M65.64 29.83C65.64 35.03 61.42 39.25 56.22 39.25 54.91 39.25 53.66 38.98 52.53 38.5 52.05 37.37 51.78 36.12 51.78 34.81 51.78 29.61 56 25.39 61.2 25.39 62.51 25.39 63.76 25.66 64.89 26.14 65.37 27.27 65.64 28.52 65.64 29.83Z" fill="#C63D18"/></g></svg>