<svg width="104.58" height="166.87" viewBox="0 0 104.58 166.87" xmlns="http://www.w3.org/2000/svg" xmlns:xlink="http://www.w3.org/1999/xlink" xml:space="preserve" overflow="hidden"><defs></defs><g><path d="M52.32 144.26C75.94 144.26 96.25 153.59 104.58 166.88L0 166.88C8.38 153.59 28.64 144.26 52.32 144.26L52.32 144.26Z" fill="#87B83B" fill-rule="evenodd" clip-rule="evenodd"/><path d="M43.64 18.48 88.87 23.44 75.23 148.27 31.18 148.27 29.52 148.09Z" fill="#9D6B4A" fill-rule="evenodd" clip-rule="evenodd"/><path d="M42.22 18.36 90.29 23.56 89.99 26.51 41.92 21.26Z" fill="#6A3F2F" fill-rule="evenodd" clip-rule="evenodd"/><path d="M40.21 36.61 88.28 41.87 87.98 44.82 39.92 39.56Z" fill="#6A3F2F" fill-rule="evenodd" clip-rule="evenodd"/><path d="M38.26 54.92 86.33 60.17 85.98 63.06 37.91 57.87Z" fill="#6A3F2F" fill-rule="evenodd" clip-rule="evenodd"/><path d="M36.26 73.16 84.32 78.42 83.97 81.37 35.9 76.11Z" fill="#6A3F2F" fill-rule="evenodd" clip-rule="evenodd"/><path d="M34.25 91.47 82.31 96.72 82.02 99.67 33.95 94.42Z" fill="#6A3F2F" fill-rule="evenodd" clip-rule="evenodd"/><path d="M32.24 109.77 80.31 115.03 80.01 117.92 31.94 112.66Z" fill="#6A3F2F" fill-rule="evenodd" clip-rule="evenodd"/><path d="M43.52 122.29 40.92 146.32 32.42 145.38 35.02 121.4C35.26 119.39 37.32 118.04 39.69 118.27 41.98 118.51 43.76 120.34 43.52 122.29L43.52 122.29Z" fill="#6A3F2F" fill-rule="evenodd" clip-rule="evenodd"/><path d="M54.21 123.47 51.55 147.5 43.11 146.56 45.71 122.53C45.95 120.58 48.01 119.22 50.38 119.46 52.67 119.69 54.38 121.52 54.21 123.47L54.21 123.47Z" fill="#6A3F2F" fill-rule="evenodd" clip-rule="evenodd"/><path d="M64.89 124.65 62.29 148.27 58.39 148.27 53.73 147.73 56.39 123.7C56.57 121.75 58.69 120.33 61 120.63 63.36 120.88 65.07 122.64 64.89 124.65L64.89 124.65Z" fill="#6A3F2F" fill-rule="evenodd" clip-rule="evenodd"/><path d="M75.58 125.77 73.1 148.27 64.54 148.27 67.08 124.89C67.26 122.88 69.32 121.52 71.69 121.76 74.05 122.05 75.76 123.82 75.58 125.77L75.58 125.77Z" fill="#6A3F2F" fill-rule="evenodd" clip-rule="evenodd"/><path d="M47.83 25.75 46.89 34.19 43.94 33.83 44.82 25.45C44.94 24.74 45.65 24.27 46.47 24.33 47.3 24.45 47.89 25.04 47.83 25.75L47.83 25.75ZM77 103.69 76.05 112.14 73.1 111.79 74.04 103.34C74.1 102.69 74.81 102.16 75.63 102.28 76.47 102.39 77.06 102.98 77 103.69L77 103.69ZM72.87 103.22 71.92 111.67 68.97 111.37 69.85 102.93C69.97 102.22 70.68 101.75 71.5 101.81 72.33 101.92 72.93 102.57 72.87 103.22L72.87 103.22ZM68.73 102.81 67.78 111.19 64.83 110.89 65.72 102.45C65.84 101.74 66.55 101.27 67.37 101.39 68.2 101.45 68.79 102.09 68.73 102.81L68.73 102.81ZM64.6 102.33 63.66 110.78 60.71 110.43 61.6 101.98C61.72 101.33 62.43 100.86 63.25 100.92 64.07 101.03 64.66 101.62 64.6 102.33L64.6 102.33ZM60.47 101.86 59.53 110.31 56.58 110.01 57.47 101.57C57.59 100.86 58.3 100.39 59.12 100.45 59.94 100.56 60.53 101.21 60.47 101.86L60.47 101.86ZM56.33 101.45 55.39 109.83 52.44 109.53 53.33 101.09C53.39 100.38 54.16 99.91 54.98 100.02 55.8 100.09 56.39 100.74 56.33 101.45L56.33 101.45ZM52.2 100.97 51.26 109.41 48.25 109.06 49.19 100.68C49.25 99.97 50.02 99.5 50.84 99.56 51.67 99.67 52.26 100.27 52.2 100.97L52.2 100.97ZM48.01 100.5 47.13 108.94 44.12 108.64 45.07 100.2C45.13 99.49 45.9 99.02 46.72 99.08 47.47 99.2 48.12 99.85 48.01 100.5L48.01 100.5ZM43.87 100.09 42.98 108.53 39.97 108.18 40.91 99.74C40.97 99.09 41.74 98.56 42.5 98.68 43.34 98.73 43.99 99.38 43.87 100.09L43.87 100.09ZM39.74 99.62 38.85 108.06 35.84 107.71 36.78 99.32C36.84 98.61 37.55 98.14 38.37 98.2 39.21 98.32 39.86 98.91 39.74 99.62L39.74 99.62ZM79.01 85.21 78.12 93.65 75.11 93.3 76.05 84.92C76.11 84.21 76.82 83.74 77.64 83.8 78.48 83.91 79.07 84.5 79.01 85.21L79.01 85.21ZM74.88 84.79 73.93 93.17 70.98 92.87 71.92 84.43C71.98 83.72 72.69 83.25 73.51 83.37 74.34 83.44 74.93 84.08 74.88 84.79L74.88 84.79ZM70.74 84.32 69.79 92.76 66.84 92.41 67.78 83.97C67.84 83.32 68.55 82.79 69.37 82.91 70.21 82.96 70.8 83.61 70.74 84.32L70.74 84.32ZM66.61 83.85 65.66 92.29 62.71 92 63.6 83.55C63.72 82.84 64.43 82.37 65.25 82.43 66.08 82.55 66.67 83.2 66.61 83.85L66.61 83.85ZM62.47 83.44 61.53 91.82 58.58 91.53 59.47 83.08C59.59 82.37 60.3 81.9 61.12 82.02 61.94 82.08 62.53 82.73 62.47 83.44L62.47 83.44ZM58.34 82.96 57.4 91.41 54.45 91.05 55.34 82.61C55.46 81.96 56.17 81.49 56.99 81.55 57.81 81.66 58.4 82.25 58.34 82.96L58.34 82.96ZM54.21 82.49 53.27 90.93 50.32 90.64 51.21 82.19C51.27 81.48 52.04 81.01 52.86 81.07 53.67 81.19 54.26 81.84 54.21 82.49L54.21 82.49ZM50.07 82.08 49.13 90.46 46.18 90.17 47.06 81.72C47.12 81.01 47.89 80.54 48.71 80.66 49.54 80.72 50.13 81.37 50.07 82.08L50.07 82.08ZM45.88 81.61 45 90.05 41.99 89.7 42.93 81.25C42.99 80.6 43.76 80.13 44.58 80.19 45.35 80.31 46 80.9 45.88 81.61L45.88 81.61ZM41.75 81.13 40.86 89.58 37.85 89.28 38.79 80.84C38.85 80.13 39.62 79.66 40.38 79.72 41.21 79.83 41.87 80.48 41.75 81.13L41.75 81.13ZM81.01 66.72 80.13 75.17 77.12 74.87 78.06 66.43C78.12 65.72 78.83 65.25 79.65 65.37 80.48 65.43 81.13 66.07 81.01 66.72L81.01 66.72ZM76.88 66.31 76 74.76 72.99 74.41 73.93 65.96C73.99 65.31 74.7 64.78 75.52 64.9 76.35 64.96 76.94 65.6 76.88 66.31L76.88 66.31ZM72.75 65.84 71.86 74.28 68.85 73.93 69.79 65.55C69.85 64.84 70.56 64.37 71.38 64.43 72.22 64.54 72.81 65.13 72.75 65.84L72.75 65.84ZM68.62 65.37 67.67 73.82 64.72 73.52 65.66 65.08C65.72 64.37 66.43 63.9 67.26 64.02 68.08 64.07 68.67 64.72 68.62 65.37L68.62 65.37ZM64.48 64.96 63.53 73.4 60.58 73.05 61.47 64.6C61.59 63.95 62.3 63.42 63.12 63.54 63.95 63.6 64.54 64.24 64.48 64.96L64.48 64.96ZM60.35 64.48 59.41 72.92 56.46 72.57 57.35 64.19C57.47 63.48 58.18 63.01 59 63.07 59.82 63.18 60.41 63.83 60.35 64.48L60.35 64.48ZM56.21 64.07 55.27 72.46 52.32 72.17 53.21 63.72C53.33 63.01 54.04 62.54 54.86 62.66 55.68 62.71 56.27 63.36 56.21 64.07L56.21 64.07ZM52.08 63.6 51.14 72.04 48.19 71.69 49.07 63.25C49.13 62.6 49.9 62.07 50.72 62.19 51.55 62.29 52.14 62.89 52.08 63.6L52.08 63.6ZM47.95 63.12 47 71.57 44.05 71.27 44.93 62.83C44.99 62.12 45.76 61.65 46.58 61.71 47.42 61.82 48.01 62.47 47.95 63.12L47.95 63.12ZM43.81 62.71 42.86 71.09 39.85 70.79 40.79 62.35C40.85 61.64 41.62 61.17 42.44 61.29 43.28 61.35 43.87 62 43.81 62.71L43.81 62.71ZM83.02 48.3 82.13 56.68 79.12 56.39 80.06 47.94C80.12 47.23 80.89 46.76 81.66 46.88 82.49 46.94 83.14 47.59 83.02 48.3L83.02 48.3ZM78.89 47.83 78 56.27 74.99 55.91 75.93 47.53C75.99 46.82 76.7 46.35 77.52 46.41 78.36 46.53 79.01 47.12 78.89 47.83L78.89 47.83ZM74.76 47.36 73.87 55.8 70.86 55.51 71.8 47.06C71.86 46.35 72.57 45.88 73.39 46 74.22 46.06 74.82 46.71 74.76 47.36L74.76 47.36ZM70.62 46.94 69.73 55.38 66.72 55.03 67.66 46.59C67.72 45.94 68.43 45.41 69.26 45.53 70.09 45.59 70.68 46.23 70.62 46.94L70.62 46.94ZM66.49 46.47 65.54 54.92 62.59 54.56 63.53 46.18C63.59 45.47 64.3 45 65.13 45.06 65.96 45.17 66.55 45.76 66.49 46.47L66.49 46.47ZM62.36 46 61.42 54.45 58.47 54.15 59.36 45.7C59.48 44.99 60.19 44.52 61.01 44.64 61.82 44.7 62.41 45.35 62.36 46L62.36 46ZM58.22 45.59 57.28 54.04 54.33 53.68 55.22 45.24C55.34 44.59 56.05 44.06 56.87 44.18 57.69 44.23 58.28 44.88 58.22 45.59L58.22 45.59ZM54.09 45.11 53.15 53.55 50.2 53.2 51.09 44.81C51.21 44.1 51.92 43.63 52.74 43.69 53.56 43.81 54.15 44.4 54.09 45.11L54.09 45.11ZM49.95 44.7 49.01 53.08 46.06 52.79 46.94 44.35C47.06 43.64 47.77 43.17 48.59 43.29 49.42 43.34 50.01 43.99 49.95 44.7L49.95 44.7ZM45.82 44.23 44.88 52.68 41.93 52.32 42.81 43.88C42.87 43.23 43.64 42.7 44.46 42.82 45.29 42.93 45.88 43.52 45.82 44.23L45.82 44.23ZM85.03 29.82 84.15 38.26 81.14 37.91 82.09 29.47C82.15 28.82 82.92 28.35 83.75 28.41 84.56 28.52 85.15 29.11 85.03 29.82L85.03 29.82ZM80.9 29.35 80.02 37.79 77 37.5 77.94 29.06C78 28.35 78.77 27.88 79.53 27.94 80.37 28.05 81.01 28.7 80.9 29.35L80.9 29.35ZM76.76 28.93 75.88 37.31 72.87 37.01 73.81 28.57C73.87 27.86 74.58 27.39 75.4 27.51 76.23 27.58 76.88 28.22 76.76 28.93L76.76 28.93ZM72.63 28.46 71.74 36.9 68.73 36.54 69.67 28.16C69.73 27.45 70.44 26.98 71.26 27.03 72.1 27.16 72.75 27.75 72.63 28.46L72.63 28.46ZM68.5 27.99 67.61 36.43 64.6 36.14 65.54 27.7C65.6 26.99 66.31 26.52 67.13 26.58 67.96 26.69 68.56 27.34 68.5 27.99L68.5 27.99ZM64.36 27.58 63.41 36.02 60.46 35.66 61.41 27.22C61.47 26.57 62.18 26.04 63 26.16 63.83 26.22 64.42 26.87 64.36 27.58L64.36 27.58ZM60.23 27.1 59.28 35.55 56.33 35.2 57.28 26.81C57.34 26.1 58.05 25.63 58.87 25.69 59.7 25.8 60.29 26.39 60.23 27.1L60.23 27.1ZM56.1 26.63 55.16 35.07 52.21 34.78 53.1 26.34C53.22 25.63 53.93 25.16 54.75 25.28 55.57 25.33 56.16 25.98 56.1 26.63L56.1 26.63ZM51.96 26.22 51.02 34.66 48.07 34.31 48.96 25.86C49.08 25.21 49.79 24.68 50.61 24.8 51.43 24.86 52.02 25.51 51.96 26.22L51.96 26.22Z" fill="#693F31" fill-rule="evenodd" clip-rule="evenodd"/><path d="M51.73 19.37 80.78 22.56 82.85 3.43 53.85 0.29Z" fill="#9D6B4A" fill-rule="evenodd" clip-rule="evenodd"/><path d="M50.78 2.48 85.38 6.26 85.62 3.72 51.08 0Z" fill="#6A3F2F" fill-rule="evenodd" clip-rule="evenodd"/><path d="M61.12 11.16 60.59 16.36 55.57 15.83 56.1 10.58C56.28 9.16 57.52 8.1 58.93 8.28 60.29 8.38 61.29 9.69 61.12 11.16L61.12 11.16Z" fill="#693F31" fill-rule="evenodd" clip-rule="evenodd"/><path d="M69.79 12.11 69.2 17.31 64.18 16.78 64.77 11.52C64.89 10.1 66.13 9.04 67.55 9.22 68.91 9.33 69.91 10.63 69.79 12.11L69.79 12.11Z" fill="#693F31" fill-rule="evenodd" clip-rule="evenodd"/><path d="M78.42 13.05 77.83 18.25 72.81 17.72 73.4 12.46C73.52 11.04 74.82 9.98 76.18 10.16 77.59 10.28 78.54 11.57 78.42 13.05L78.42 13.05Z" fill="#693F31" fill-rule="evenodd" clip-rule="evenodd"/></g></svg>