<svg width="661.29" height="369.95" viewBox="0 0 661.29 369.95" xmlns="http://www.w3.org/2000/svg" xmlns:xlink="http://www.w3.org/1999/xlink" xml:space="preserve" overflow="hidden"><defs></defs><g><path d="M661.29 340.38C650.28 340.87 639.27 341.36 628.25 341.86 584.14 343.83 540.05 345.8 495.94 347.78 462.71 349.27 429.49 350.75 396.27 352.24 264.18 358.14 132.09 364.05 0 369.95 26.33 340.06 52.65 310.18 78.98 280.29 92.39 265.07 105.8 249.84 119.21 234.62 123.63 229.6 128.05 224.58 132.47 219.56 146.97 203.1 161.47 186.64 175.96 170.19 178.84 169.95 181.73 169.71 184.61 169.47 208.89 138.46 233.17 107.45 257.45 76.44 261.15 72.43 264.86 68.43 268.56 64.42 272.12 60.56 275.69 56.71 279.25 52.86 284.92 46.73 290.59 40.59 296.26 34.46 306.88 22.97 317.5 11.49 328.12 0 328.22 0.1 328.33 0.2 328.43 0.3 344.32 15.42 360.21 30.54 376.1 45.67 380.59 49.94 385.08 54.22 389.57 58.49 394.55 63.23 399.54 67.98 404.52 72.72 408.86 76.85 413.19 80.97 417.53 85.1 417.77 88.71 418.01 92.31 418.25 95.92 438.68 116.47 459.12 137.03 479.55 157.58 481.1 157.79 482.65 157.99 484.2 158.2L484.2 158.2C484.45 158.23 484.7 158.27 484.96 158.3 485.68 161.18 486.4 164.07 487.12 166.95 487.63 167.45 488.14 167.96 488.65 168.46 508.18 187.71 527.72 207.06 547.28 226.5 548.45 227.67 549.62 228.83 550.79 230 551.34 230.55 551.89 231.09 552.44 231.64 555.86 235.04 559.28 238.45 562.71 241.86 565.88 245.01 569.04 248.17 572.21 251.33 572.85 251.97 573.48 252.6 574.12 253.24 582.36 261.46 590.58 269.67 598.79 277.89 599.55 278.65 600.3 279.4 601.05 280.15 605.02 284.13 608.99 288.11 612.96 292.08L619.81 292.08C620.29 295.21 620.77 298.33 621.25 301.46 634.61 314.42 647.95 327.4 661.29 340.38Z" fill="#CC804C"/><path d="M286.72 224.3 284.11 234.74C243.1 236.18 202.09 237.62 161.08 239.06 160.73 237.09 160.38 235.12 160.04 233.14 146.43 233.63 132.82 234.13 119.21 234.63 123.63 229.61 128.05 224.59 132.47 219.57L167.35 219.57C167.43 220.89 167.5 222.2 167.58 223.51 190.31 222.5 213.05 221.5 235.79 220.5 235.54 222.29 235.3 224.08 235.05 225.87 252.27 225.35 269.49 224.82 286.72 224.3Z" fill="#CC784A" opacity="0.32"/><path d="M284.87 235.13C303.2 235.13 321.53 235.13 339.85 235.13 339.93 236.44 340 237.76 340.08 239.07 362.82 238.06 385.55 237.06 408.29 236.05 408.04 237.84 407.8 239.63 407.55 241.42 424.78 240.9 442 240.38 459.23 239.85 458.36 243.33 457.49 246.81 456.62 250.29 415.61 251.73 374.6 253.17 333.59 254.6 333.24 252.63 332.89 250.66 332.55 248.68 313.41 249.38 294.27 250.07 275.13 250.77 278.37 245.57 281.62 240.35 284.87 235.13Z" fill="#CC784A" opacity="0.32"/><path d="M562.73 241.86C534.02 242.87 505.32 243.87 476.61 244.88 476.26 242.91 475.91 240.93 475.57 238.96L418.15 241.05C421.4 235.83 424.65 230.61 427.89 225.39L482.87 225.39C482.95 226.71 483.02 228.02 483.1 229.33 504.5 228.38 525.89 227.44 547.29 226.49 548.46 227.66 549.63 228.82 550.8 229.99 550.72 230.56 550.64 231.12 550.57 231.69 551.2 231.67 551.83 231.65 552.46 231.63 555.88 235.04 559.31 238.44 562.73 241.86Z" fill="#CC784A" opacity="0.32"/><path d="M601.07 280.13C600.59 281.06 600.12 282 599.64 282.93 558.63 283.64 517.62 284.34 476.61 285.04 476.26 284.08 475.91 283.11 475.57 282.14 456.43 282.48 437.29 282.82 418.15 283.16 421.4 280.6 424.65 278.05 427.89 275.49L482.87 275.49C482.95 276.13 483.02 276.78 483.1 277.42 505.83 276.93 528.57 276.44 551.31 275.94 551.06 276.82 550.82 277.69 550.57 278.57 566.65 278.33 582.73 278.09 598.8 277.86 599.56 278.63 600.31 279.38 601.07 280.13Z" fill="#CC784A" opacity="0.32"/><path d="M260.15 285.04C278.48 285.04 296.81 285.04 315.13 285.04 315.21 285.68 315.28 286.33 315.36 286.97 338.1 286.48 360.83 285.99 383.57 285.49 383.32 286.37 383.08 287.24 382.83 288.12 400.06 287.86 417.28 287.61 434.51 287.35 433.64 289.05 432.77 290.76 431.9 292.46 390.89 293.16 349.88 293.87 308.87 294.57 308.52 293.6 308.17 292.64 307.83 291.67 288.69 292.01 269.55 292.35 250.41 292.69 253.65 290.15 256.9 287.6 260.15 285.04Z" fill="#CC784A" opacity="0.32"/><path d="M488.67 168.46C450.32 169.8 411.96 171.15 373.61 172.5 373.26 170.53 372.91 168.55 372.57 166.58L315.15 168.67C318.4 163.45 321.65 158.23 324.89 153.01L379.87 153.01C379.95 154.33 380.02 155.64 380.1 156.95 402.83 155.94 425.57 154.94 448.31 153.93 448.06 155.72 447.82 157.51 447.57 159.3 459.78 158.93 472 158.56 484.21 158.19L484.21 158.19C484.46 158.22 484.71 158.26 484.97 158.29 485.69 161.17 486.41 164.06 487.13 166.94 487.65 167.45 488.15 167.95 488.67 168.46Z" fill="#CC784A" opacity="0.12"/><path d="M404.54 72.72C397.17 73.92 389.79 75.11 382.41 76.31 380.78 79.79 379.16 83.27 377.54 86.75 367.91 86.4 358.29 86.05 348.66 85.71 345.84 84.61 342.2 83.51 337.87 82.93 331.08 82.02 325.36 82.78 321.51 83.63L282.88 79.45C284.04 74.35 285.2 69.24 286.36 64.14 280.43 64.24 274.49 64.34 268.56 64.44 277.79 54.45 287.03 44.46 296.26 34.48 319.82 27.62 351.94 32.82 376.11 45.69 385.58 54.68 395.06 63.7 404.54 72.72Z" fill="#CC784A" opacity="0.32"/><path d="M381.71 62.16C380.49 62.29 379.26 62.41 378.03 62.54 378.27 63.32 378.49 64.36 378.54 65.58 378.57 66.45 378.51 67.22 378.41 67.86 368.26 67.9 358.11 67.94 347.97 67.99 346.4 69.72 344.84 71.46 343.28 73.19 338.6 72.62 333.16 72.45 327.17 73.19 325.75 73.36 324.39 73.58 323.08 73.83 311.28 73.26 299.49 72.69 287.69 72.12 289.21 65.84 290.73 59.56 292.26 53.28 287.93 53.14 283.59 52.99 279.27 52.85 284.94 46.72 290.61 40.58 296.28 34.45 306.88 22.97 317.5 11.49 328.12 0 344.11 15.22 360.11 30.44 376.11 45.66 380.6 49.93 385.09 54.21 389.58 58.48 389.75 58.65 389.91 58.82 390.08 58.98 387.29 60.05 384.5 61.11 381.71 62.16Z" fill="#DBA05E"/><path d="M496.55 333.97C524.16 333.27 551.77 332.58 579.37 331.88 577.74 321.9 576.12 311.93 574.5 301.95 533.9 302.65 493.3 303.34 452.7 304.04 452.47 308.91 452.24 313.78 452 318.66L392.84 318.66C393.98 329.86 395.13 341.04 396.27 352.24 264.18 358.14 132.09 364.05 0 369.95 26.33 340.06 52.65 310.18 78.98 280.29 96.61 279.62 114.23 278.95 131.86 278.28 132.56 273.87 133.25 269.47 133.95 265.06 185.45 264.13 236.96 263.21 288.46 262.28 288.69 250.21 288.92 238.15 289.16 226.09 307.02 226.32 324.89 226.55 342.75 226.79 342.52 222.38 342.29 217.98 342.05 213.57 371.28 213.34 400.51 213.11 429.75 212.87L429.75 228.88C456.43 229.11 483.11 229.34 509.79 229.58 510.25 237.47 510.72 245.35 511.18 253.24L574.15 253.24C582.39 261.46 590.61 269.67 598.82 277.89 599.58 278.65 600.33 279.4 601.08 280.15 605.05 284.13 609.02 288.11 612.99 292.08L619.84 292.08C620.32 295.21 620.8 298.33 621.28 301.46 634.62 314.44 647.96 327.42 661.3 340.4 606.18 342.86 551.07 345.33 495.96 347.79 496.15 343.17 496.35 338.57 496.55 333.97Z" fill="#CC784A" opacity="0.32"/><path d="M628.26 341.86C628.67 332.73 629.08 323.61 629.49 314.48 626.24 314.02 622.99 313.55 619.75 313.09L615.57 302.65C611.28 302.3 606.98 301.95 602.69 301.61 601.41 299.41 600.14 297.2 598.86 295 602.57 294.77 606.28 294.54 610 294.3 575.31 259.96 540.63 225.63 505.95 191.29 503.98 190.71 502.01 190.13 500.03 189.55 499.8 187.7 499.57 185.84 499.33 183.98L480.2 183.98 480.2 176.32 488.55 176.32C488.32 174.35 488.09 172.38 487.85 170.4 481.82 170.29 475.78 170.17 469.75 170.05L468.71 159.61C472.54 159.15 476.37 158.68 480.19 158.22 476.6 155.44 473 152.65 469.4 149.87 455.02 138.39 440.63 126.9 426.25 115.42 425.79 111.94 425.32 108.46 424.86 104.98 421.84 104.4 418.83 103.82 415.81 103.24L415.81 95.93C409.89 96.39 403.98 96.86 398.06 97.32 397.95 93.95 397.83 90.59 397.71 87.23 402.23 87.12 406.76 87 411.28 86.88 405.02 79.69 398.75 72.5 392.49 65.3 387.85 64.14 383.21 62.98 378.57 61.82 380.66 60.19 382.75 58.57 384.83 56.95 335.84 20.23 325.65 5.77 328.44 0.3 344.33 15.42 360.22 30.54 376.11 45.67 380.6 49.94 385.09 54.22 389.58 58.49 394.56 63.23 399.55 67.98 404.53 72.72 408.87 76.85 413.2 80.97 417.54 85.1 417.78 88.71 418.02 92.31 418.26 95.92 438.69 116.47 459.13 137.03 479.56 157.58 481.11 157.79 482.66 157.99 484.21 158.2L484.21 158.2C484.46 158.23 484.71 158.27 484.97 158.3 485.69 161.18 486.41 164.07 487.13 166.95 487.64 167.45 488.15 167.96 488.66 168.46 508.19 187.71 527.73 207.06 547.29 226.5 548.46 227.67 549.63 228.83 550.8 230 551.35 230.55 551.9 231.09 552.45 231.64 555.87 235.04 559.29 238.45 562.72 241.86 565.89 245.01 569.05 248.17 572.22 251.33 572.86 251.97 573.49 252.6 574.13 253.24 582.37 261.46 590.59 269.67 598.8 277.89 599.56 278.65 600.31 279.4 601.06 280.15 605.03 284.13 609 288.11 612.97 292.08L619.82 292.08C620.3 295.21 620.78 298.33 621.26 301.46 634.6 314.44 647.94 327.42 661.28 340.4 650.28 340.87 639.27 341.37 628.26 341.86Z" fill="#CC784A" opacity="0.34"/></g></svg>