<svg width="82.66" height="78.82" viewBox="0 0 82.66 78.82" xmlns="http://www.w3.org/2000/svg" xmlns:xlink="http://www.w3.org/1999/xlink" xml:space="preserve" overflow="hidden"><defs></defs><radialGradient cx="21.8341" cy="-486.499" r="40.9836" gradientUnits="userSpaceOnUse" id="SVGID_1_" gradientTransform="matrix(0.3478 0.2831 -0.0142 0.0648 0.7045 91.9746)"><stop offset="0" stop-color="#333333"/><stop offset="0.1983" stop-color="#6E6E6E"/><stop offset="0.3965" stop-color="#A2A2A2"/><stop offset="0.5814" stop-color="#CACACA"/><stop offset="0.7492" stop-color="#E7E7E7"/><stop offset="0.8942" stop-color="#F9F9F9"/><stop offset="1" stop-color="#FFFFFF"/></radialGradient><radialGradient cx="400.983" cy="-1594.53" r="40.9868" gradientUnits="userSpaceOnUse" id="SVGID_2_" gradientTransform="matrix(0.6342 -0.1342 0.0484 0.0506 -122.925 207.435)"><stop offset="0" stop-color="#333333"/><stop offset="0.1983" stop-color="#6E6E6E"/><stop offset="0.3965" stop-color="#A2A2A2"/><stop offset="0.5814" stop-color="#CACACA"/><stop offset="0.7492" stop-color="#E7E7E7"/><stop offset="0.8942" stop-color="#F9F9F9"/><stop offset="1" stop-color="#FFFFFF"/></radialGradient><path d="M29.46 78.23C29.14 79.7 22.5 75.69 14.63 69.29 6.75 62.88 0.63 56.5 0.95 55.03 1.27 53.56 7.91 57.57 15.78 63.97 23.66 70.38 29.78 76.76 29.46 78.23Z" fill="url(#SVGID_1_)"/><path d="M80.19 67.44C81.29 68.59 70.53 71.98 56.18 75.02 41.82 78.06 29.3 79.59 28.2 78.45 27.1 77.31 37.85 73.91 52.21 70.87 66.58 67.83 79.1 66.29 80.19 67.44Z" fill="url(#SVGID_2_)"/><g><g><g><path d="M28.09 78.52 1.64 56.26 0 4.31 27.59 17.38Z" fill="#11A9BD"/></g><g><path d="M27.59 17.38 0 4.31 48.36 0 82.66 11.21Z" fill="#5EECFF"/></g><g><path d="M82.66 11.21 80.45 67.97 28.09 78.52 27.59 17.38Z" fill="#46CEE0"/></g></g></g><g><g><g><linearGradient x1="50.4983" y1="61.4571" x2="50.4983" y2="25.8702" gradientUnits="userSpaceOnUse" id="SVGID_3_"><stop offset="0" stop-color="#666666"/><stop offset="0.272" stop-color="#626262"/><stop offset="0.5626" stop-color="#555555"/><stop offset="0.861" stop-color="#404040"/><stop offset="1" stop-color="#333333"/></linearGradient><path d="M58.48 25.87 51.15 26.74 42.51 31.85 44.88 37.36 50.21 34.66 50.17 61.46 58.23 60.16 58.48 25.87" fill="url(#SVGID_3_)"/></g></g></g></svg>