<svg width="109.26" height="94.84" viewBox="0 0 109.26 94.84" xmlns="http://www.w3.org/2000/svg" xmlns:xlink="http://www.w3.org/1999/xlink" xml:space="preserve" overflow="hidden"><defs></defs><g><ellipse cx="54.71" cy="90.41" rx="48.52" ry="4.43" fill="#F1F2F2"/><g><path d="M25.91 56.62C25.76 55.69 25.84 54.53 25.75 53.63 25.57 51.61 25.46 49.58 25.08 47.58 24.89 46.56 24.65 45.55 24.49 44.52 24.28 43.2 24.23 41.76 24.09 40.35 23.68 39.41 23.29 38.41 22.69 37.58 22.11 36.76 21.29 36.21 20.44 35.71 20.37 35.67 20.31 35.62 20.26 35.57 20.08 35.79 19.95 36.09 19.92 36.5 19.89 36.86 19.9 37.22 19.93 37.57 20.09 39.68 21.04 41.71 20.7 43.85 20.26 46.61 20.97 47.86 21.99 50.41 22.65 52.07 23.72 56.21 24.11 57.52 24.11 57.53 24.11 57.54 24.12 57.54 24.72 57.57 25.31 57.5 25.9 57.37 25.9 57.13 25.9 56.87 25.91 56.62Z" fill="#FFDCC0"/><path d="M19.93 37.57C20.09 39.68 21.04 41.71 20.7 43.85 20.26 46.61 20.97 47.86 21.99 50.41 22.65 52.07 23.72 56.21 24.11 57.52 24.28 56.28 23.95 54.95 23.7 53.76 23.41 52.36 23.01 50.98 22.64 49.6 22.27 48.22 21.86 46.89 21.76 45.46 21.66 44.06 21.69 42.66 21.58 41.26 21.54 40.7 21.46 40.15 21.22 39.64 21.12 39.42 21 39.21 20.9 38.98 20.89 38.96 20.88 38.94 20.87 38.91 21.13 38.27 20.55 37.61 19.93 37.57Z" fill="#F4C7A8"/><path d="M10.01 87.22C10.06 87.61 10.1 88.01 10.26 88.37 10.41 88.73 10.69 89.06 11.06 89.19 11.4 89.31 11.78 89.24 12.13 89.34 12.61 89.48 12.95 89.92 13.4 90.15 14.1 90.53 14.96 90.37 15.72 90.13 16.07 90.02 16.42 89.89 16.76 89.75 17.06 89.62 17.37 89.48 17.58 89.23 17.8 88.99 17.91 88.62 17.78 88.32 17.61 87.93 17.12 87.81 16.69 87.76 14.92 87.58 13.05 87.9 11.39 87.25 11.09 87.13 10.8 86.99 10.48 86.94 10.37 86.92 10.23 86.93 10.16 87.02 10.09 87.11 10.18 87.29 10.28 87.24L10.01 87.22Z" fill="#19194F"/><path d="M22.87 84.92C21.88 85.03 20.87 84.95 19.91 84.69 19.82 82.63 19.86 80.56 20.01 78.49 20 78.64 22.63 78.74 22.91 78.77 23.13 80.77 22.85 82.91 22.87 84.92Z" fill="#FFDCC0"/><path d="M14.15 84.92C13.16 85.03 12.15 84.95 11.19 84.69 11.1 82.63 11.14 80.56 11.29 78.49 11.28 78.64 13.91 78.74 14.19 78.77 14.4 80.77 14.12 82.91 14.15 84.92Z" fill="#FFDCC0"/><path d="M23.68 77.64C22.86 78.81 20.64 78.69 18.74 78.55 18.76 78.18 18.77 77.82 18.79 77.45 18.99 70.87 18.26 66.5 17.97 59.65L17.96 59.65C17.41 59.81 17.72 59.82 17.15 59.72 16.49 66.44 16.65 70.43 16.8 77.18 16.81 77.71 16.78 78.35 16.33 78.65 16.13 78.79 15.88 78.81 15.63 78.84 13.85 78.99 12.03 78.61 10.45 77.75 10.36 77.7 10.28 77.66 10.19 77.61 9.96 77.47 9.73 77.32 9.62 77.08 9.51 76.87 9.52 76.63 9.53 76.4 9.69 70.13 10.19 63.83 10.72 57.58 10.79 56.71 10.58 54.57 11.24 53.92 11.33 53.84 11.43 53.78 11.56 53.73 12.2 53.49 13.26 53.71 13.85 53.68 14.64 53.62 23.28 53.06 23.28 52.95 23.18 61.88 23.33 67.19 23.95 76.09 23.96 76.63 23.98 77.21 23.68 77.64Z" fill="#27AAE1"/><path d="M15.47 33.32C15.39 33.71 15.18 34.07 15.14 34.46 15.17 34.51 15.21 34.57 15.23 34.63 15.32 34.84 15.43 35.05 15.55 35.25 15.59 35.31 15.68 35.4 15.7 35.47 15.7 35.47 15.7 35.47 15.7 35.47 15.82 35.62 15.95 35.76 16.08 35.89 16.1 35.91 16.17 35.98 16.23 36.02 16.26 36.04 16.29 36.07 16.3 36.07 16.46 36.19 16.62 36.29 16.8 36.39 16.88 36.43 16.96 36.47 17.04 36.51 17.02 36.5 17 36.48 16.98 36.47 16.86 36.42 16.73 36.31 16.98 36.47 16.98 36.47 16.99 36.47 16.99 36.48 17.15 36.54 17.32 36.6 17.49 36.64 17.51 36.65 17.6 36.66 17.66 36.68 17.68 36.68 17.7 36.69 17.71 36.69 17.88 36.71 18.05 36.72 18.23 36.71 18.44 36.65 18.46 36.67 18.4 36.69 18.41 36.69 18.43 36.69 18.44 36.68 18.52 36.66 18.61 36.65 18.69 36.62 18.72 36.61 18.85 36.56 18.9 36.55 18.9 36.55 18.9 36.55 18.91 36.55 19 36.51 19.09 36.46 19.18 36.41 19.2 36.4 19.22 36.38 19.24 36.37 19.25 36.36 19.3 36.31 19.36 36.29 19.46 36.21 19.64 35.95 19.75 35.91 19.82 35.82 19.88 35.72 19.94 35.63 20 35.54 20.04 35.45 20.1 35.36 20.11 35.35 20.11 35.34 20.12 35.33 20.12 35.32 20.13 35.31 20.13 35.29 20.12 35.05 20.1 34.8 20.09 34.56 19.98 32.85 19.78 31.14 19.76 29.42 19.57 29.11 19.29 28.86 18.96 28.71 18.56 28.43 18.04 28.33 17.55 28.4 17.55 28.4 17.54 28.4 17.54 28.4 16.54 28.37 15.7 29.06 15.6 30.07 15.51 31.15 15.68 32.28 15.47 33.32Z" fill="#F4C7A8"/><path d="M28.35 21.94C28.41 21.41 28.71 20.93 29.16 20.68 29.16 20.12 29.46 19.58 30 19.29 31.22 18.64 32.76 17.6 34.05 18.74 34.92 19.51 35.02 20.91 34.38 21.85 33.85 22.63 32.94 23.01 32.08 23.28 31.37 23.5 30.54 23.65 29.8 23.58 28.99 23.51 28.26 22.79 28.35 21.94Z" fill="#F4C7A8"/><path d="M30.78 20.88C30.78 20.88 33.47 20.01 33.22 20.72 32.97 21.43 30.88 22.51 30.7 22.09 30.52 21.68 30.78 20.88 30.78 20.88Z" fill="#E5A980"/><path d="M33.24 20.86C32.63 26.74 26.78 30.66 21.33 31.52 20.89 31.58 20.42 31.64 19.94 31.66 17.8 31.77 15.42 31.41 13.14 30.65 13.14 30.65 13.13 30.65 13.12 30.64 11.73 30.19 10.39 29.58 9.15 28.85 4.7 26.2 1.61 21.89 3.17 16.58 3.38 15.86 3.65 15.21 3.98 14.61 5.08 12.55 6.84 11.06 8.92 10.07 14.02 7.63 21.11 8.08 25.8 10.03 28.71 11.25 31.18 13.25 32.43 15.9 32.59 16.25 32.74 16.61 32.86 16.98 33.24 18.15 33.38 19.46 33.24 20.86Z" fill="#FFDCC0"/><path d="M13.02 20.35C12.96 21.3 11.73 22 10.28 21.91 8.83 21.82 7.7 20.97 7.76 20.02 7.82 19.07 9.05 18.37 10.5 18.46 11.95 18.55 13.08 19.39 13.02 20.35Z" fill="#FFB0B0"/><path d="M32.11 21.56C32.05 22.51 30.82 23.21 29.37 23.12 27.92 23.03 26.79 22.18 26.85 21.23 26.91 20.28 28.14 19.58 29.59 19.67 31.04 19.76 32.17 20.61 32.11 21.56Z" fill="#FFB0B0"/><path d="M18.45 20.84C18.45 20.84 20.13 18.57 21.77 21.05L18.45 20.84Z" fill="#F4C7A8"/><path d="M17.94 28.87C17.94 28.87 20.03 28.5 21.92 29.12 19.92 29.5 17.94 28.87 17.94 28.87Z" fill="#F4C7A8"/><path d="M13.59 14.78C13.07 14.7 12.53 14.81 12.03 14.98 11.55 15.14 11.04 15.38 10.72 15.78 10.51 16.05 10.89 16.43 11.11 16.15 11.59 15.55 12.72 15.19 13.47 15.3 13.8 15.35 13.93 14.83 13.59 14.78Z" fill="#603913"/><path d="M26.85 15.86C27.37 15.76 27.91 15.84 28.42 15.99 28.9 16.13 29.43 16.35 29.76 16.74 29.98 17 29.61 17.39 29.39 17.13 28.89 16.55 27.74 16.24 27 16.38 26.66 16.44 26.51 15.92 26.85 15.86Z" fill="#603913"/><path d="M11.97 55.86C12.01 58.03 12.04 60.21 11.76 62.37 11.62 63.47 11.4 64.54 11.24 65.64 11.09 66.79 11.01 67.96 10.94 69.13 10.85 70.69 10.75 72.25 10.66 73.81 10.58 75.12 10.5 76.44 10.42 77.77 10.33 77.72 10.25 77.68 10.16 77.63 9.93 77.49 9.7 77.34 9.59 77.1 9.48 76.89 9.49 76.65 9.5 76.42 9.66 70.15 10.16 63.85 10.69 57.6 10.76 56.73 10.55 54.59 11.21 53.94 11.3 53.86 11.4 53.8 11.53 53.75 14.22 54.47 17.04 54.66 19.81 54.36 20.84 54.25 21.91 54.07 22.9 54.39 24.92 54.91 15.62 56.85 11.97 55.86Z" fill="#1695C1"/><path d="M14.92 17.68C14.7 17.36 14.34 17.1 14.01 17.01 13.59 16.88 13.11 17.07 12.78 17.33 12.53 17.53 12.04 18.22 12.34 18.55 12.46 18.68 12.69 18.68 12.73 18.49 12.84 17.98 13.25 17.52 13.81 17.58 14.56 17.65 14.46 18.27 14.73 18.76 14.9 19.08 15.09 18.71 15.13 18.52 15.19 18.23 15.09 17.93 14.92 17.68Z" fill="#231F20"/><path d="M34.45 16.77C33.98 16.61 33.58 16.3 33.15 16.06 32.63 15.76 32.08 15.48 31.54 15.22 30.55 14.73 29.49 14.46 28.47 14.04 27.38 13.6 26.36 12.61 25.94 11.46 25.96 10.91 25.87 10.38 25.66 9.89 25.34 9.16 24.16 9.41 24.13 10.2 24.12 10.67 24.18 11.14 24.3 11.59 24.29 11.69 24.28 11.78 24.27 11.88 24.26 11.94 24.25 12 24.24 12.06 24.24 12.07 24.24 12.08 24.24 12.08 24.24 12.09 24.24 12.09 24.24 12.1 24.18 12.34 24.12 12.57 24.03 12.8 24.02 12.84 23.91 13.07 23.93 13.04 23.88 13.13 23.83 13.21 23.78 13.3 23.76 13.34 23.73 13.37 23.7 13.41 23.7 13.41 23.67 13.45 23.64 13.48 23.62 13.5 23.59 13.53 23.58 13.54 23.53 13.58 23.49 13.62 23.44 13.65 23.56 13.55 23.45 13.62 23.37 13.67 23.42 13.63 23.15 13.7 23.31 13.7 22.92 13.71 22.53 13.66 22.14 13.6 21.3 13.48 20.48 13.28 19.65 13.15 18.79 13.02 17.93 13.01 17.07 13.04 16.2 13.06 15.33 13.1 14.46 13.05 14.23 13.04 14 13.02 13.77 13 13.73 12.99 13.46 12.94 13.54 12.97 13.42 12.94 13.31 12.91 13.19 12.86 13.17 12.85 13.15 12.83 13.14 12.83 13.12 12.82 13.11 12.81 13.1 12.8 13.09 12.79 13.08 12.78 13.07 12.77 13.06 12.76 13.06 12.74 13.04 12.72 13.04 12.73 13.04 12.73 13.04 12.74 13.04 12.74 13.04 12.74 13.04 12.74 13.04 12.74 13.04 12.74 13.04 12.75 13.03 12.84 13.03 12.66 13.02 12.62 13.04 12.73 13.02 12.59 13.02 12.57 13.02 12.46 13.03 12.36 13.05 12.25 13.06 12.19 13.12 11.99 13.17 11.85 13.42 11.14 13.81 10.52 14.13 9.84 14.3 9.48 14.05 9.02 13.72 8.86 13.35 8.68 12.94 8.8 12.69 9.13 12.16 9.84 11.82 10.66 11.34 11.41 10.89 12.11 10.37 12.57 9.54 12.73 8.75 12.88 7.92 12.8 7.09 12.87 6.26 12.93 5.45 13.09 4.67 13.41 3.78 13.77 3 14.41 2.5 15.23 2.28 15.6 2.34 16.1 2.72 16.35 3.07 16.58 3.62 16.51 3.84 16.13 4.23 15.48 4.71 15.13 5.43 14.83 5.54 14.79 5.46 14.81 5.57 14.78 5.66 14.75 5.74 14.73 5.83 14.7 6.04 14.64 6.24 14.6 6.45 14.56 6.82 14.49 7.23 14.45 7.51 14.44 8.38 14.4 9.25 14.47 10.1 14.25 10.67 14.1 11.17 13.85 11.61 13.51 11.65 13.59 11.7 13.67 11.75 13.74 12.18 14.33 12.91 14.53 13.59 14.62 14.39 14.72 15.21 14.71 16.02 14.69 17.02 14.66 18.02 14.61 19.02 14.71 19.99 14.81 20.93 15.06 21.89 15.21 22.61 15.32 23.43 15.46 24.11 15.11 24.63 14.85 25.02 14.37 25.28 13.86 25.31 13.81 25.33 13.76 25.35 13.71 25.88 14.37 26.55 14.92 27.29 15.3 28.39 15.86 29.63 16.11 30.74 16.65 31.25 16.9 31.77 17.16 32.26 17.45 32.79 17.76 33.3 18.12 33.88 18.32 34.91 18.64 35.44 17.11 34.45 16.77Z" fill="#F4C7A8"/><path d="M27.88 19.1C27.87 19.07 27.87 19.05 27.86 19.03 27.69 18.34 27.15 17.68 26.38 17.8 26.04 17.86 25.65 18.06 25.39 18.35 25.18 18.58 25.06 18.86 25.09 19.16 25.11 19.35 25.25 19.74 25.46 19.45 25.78 18.99 25.76 18.37 26.52 18.39 27.08 18.41 27.44 18.91 27.48 19.43 27.49 19.61 27.7 19.66 27.83 19.57 27.96 19.47 27.92 19.26 27.88 19.1Z" fill="#231F20"/><path d="M25.49 42.64C25.45 42.8 24.87 43.69 24.2 43.84 23.95 43.9 23.7 43.94 23.44 43.96 23.44 44.08 23.77 51.62 23.92 54.77 20.05 55.54 15.17 55.66 11.27 55.2 10.62 55.13 9.97 55.03 9.32 54.92 9.37 50.37 10.33 44.96 10.39 40.42 10.4 39.22 10.42 38.01 10.43 36.81 10.44 36.44 10.44 36.06 10.61 35.73 10.9 35.16 11.57 34.93 12.17 34.74 13.06 34.47 15.17 34.22 15.17 34.22 15.49 35.38 16.34 36.29 17.54 36.42 18.74 36.56 19.57 35.79 20.15 34.74 20.6 35.1 21.7 35.03 22.24 35.27 22.66 35.46 22.91 35.9 23.13 36.3 24.17 38.23 24.31 40.16 25.34 42.08 25.44 42.26 25.55 42.45 25.49 42.64Z" fill="#F15A29"/><path d="M23.44 43.96C23.44 44.08 23.45 44.19 23.45 44.3 23.35 43.51 23.36 41.71 23.18 40.58 23.61 41.21 23.73 43.23 24.2 43.83 23.95 43.9 23.7 43.94 23.44 43.96Z" fill="#C63D18"/><path d="M11.27 55.21C10.62 55.14 9.97 55.04 9.32 54.93 9.37 50.38 10.33 44.97 10.39 40.43 11.31 39.54 12.22 38.77 12.64 38.92 13.62 39.29 14.38 43.98 15.05 44 13.86 44.38 12.62 44.62 11.37 44.72 11.29 47.28 10.3 50.72 10.22 53.29 10.21 53.53 10.2 53.77 10.25 54.01 10.39 54.55 10.79 54.93 11.27 55.21Z" fill="#C63D18"/><path d="M20.37 26.92C19.64 26.92 18.87 26.79 18.13 26.52 16.54 25.94 15.52 24.89 15.32 23.64 15.29 23.47 15.41 23.3 15.58 23.28 15.75 23.26 15.91 23.37 15.94 23.54 16.1 24.56 16.97 25.42 18.34 25.92 19.99 26.52 21.8 26.37 22.72 25.56 22.85 25.45 23.05 25.46 23.17 25.59 23.29 25.72 23.27 25.92 23.14 26.04 22.48 26.62 21.47 26.92 20.37 26.92Z" fill="#231F20"/><path d="M15.68 35.09C16.11 35.54 16.65 35.89 17.25 36.07 17.57 36.17 17.91 36.21 18.24 36.2 18.3 36.49 18.35 36.81 18.19 37.06 18.12 37.17 18.01 37.26 17.89 37.33 17.12 37.79 16.06 37.51 15.45 36.85 15.23 36.61 15.06 36.33 14.94 36.03 14.82 35.72 14.77 35.39 14.74 35.06 14.72 34.84 14.71 34.61 14.77 34.39 14.82 34.2 14.92 34.02 15.1 33.95 15.2 34.4 15.35 34.75 15.68 35.09Z" fill="#C63D18"/><path d="M19.27 37.13C19.78 37.24 20.3 36.83 20.56 36.38 20.87 35.84 20.85 35.12 20.5 34.59 20.47 34.54 20.43 34.49 20.38 34.45 20.29 34.38 20.16 34.36 20.07 34.29 20.2 34.39 19.76 35.12 19.69 35.22 19.48 35.52 19.19 35.78 18.86 35.95 18.54 36.11 18.62 36.09 18.22 36.2 18.3 36.65 18.59 36.97 19.27 37.13Z" fill="#C63D18"/><path d="M13.12 30.64C11.73 30.19 10.39 29.58 9.15 28.85 4.7 26.2 1.61 21.89 3.17 16.58 3.38 15.86 3.65 15.21 3.98 14.61 4.14 14.63 4.27 14.68 4.36 14.77 4.69 15.11 4.4 16.13 4.38 16.55 4.24 19.51 5.01 22.51 6.59 25.02 8.13 27.5 10.46 29.47 13.12 30.64Z" fill="#F4C7A8"/><path d="M33.69 9.4C33.39 8.76 33.07 8.14 32.77 7.55 32.23 6.51 31.43 5.61 30.5 4.91 28.25 3.2 25.25 2.93 22.51 2.95 21.18 2.96 19.87 3.22 18.55 3.3 18.34 3.28 18.13 3.27 17.92 3.25 18.22 2.88 18.54 2.52 18.99 2.39 19.4 2.27 19.27 1.61 18.85 1.73 18.3 1.89 17.93 2.25 17.58 2.65 17.68 2.05 17.8 1.46 17.76 0.85 17.74 0.46 17.28 0.37 17.11 0.72 16.91 1.13 16.86 1.58 16.83 2.04 16.82 2.27 16.82 2.52 16.8 2.76 16.39 2.3 15.89 1.93 15.4 1.55 15.06 1.28 14.68 1.84 15.02 2.11 15.44 2.43 15.88 2.75 16.25 3.15 15.95 3.13 15.65 3.12 15.35 3.1 15.3 3.09 15.26 3.08 15.21 3.07 14.69 2.94 14.18 2.84 13.65 2.8 12.59 2.7 11.52 2.69 10.45 2.73 8.98 2.79 7.6 3.04 6.35 3.87 4.12 5.35 2.93 7.95 2.43 10.5 2.34 10.98 2.27 11.46 2.22 11.95 1.85 13.27 1.6 14.76 2.12 16.05 2.26 16.4 2.71 16.61 3.06 16.58 3.31 16.56 3.5 16.47 3.65 16.32 3.75 16.22 3.83 16.1 3.9 15.96 3.9 15.96 3.9 15.97 3.9 15.97 3.91 15.95 4 15.79 4.02 15.76 4.08 15.66 4.15 15.56 4.21 15.46 4.39 15.21 4.42 15.17 4.6 15 4.77 14.83 4.94 14.68 5.13 14.54 5.34 14.38 5.36 14.36 5.64 14.21 5.84 14.09 6.06 13.99 6.27 13.9 6.36 13.86 6.46 13.82 6.55 13.79 6.62 13.76 6.65 13.75 6.66 13.75 6.65 13.75 6.63 13.76 6.61 13.77 6.68 13.75 6.76 13.73 6.84 13.71 7.33 13.6 7.86 13.68 8.41 13.67 8.99 13.65 9.57 13.58 10.07 13.27 10.5 12.99 10.84 12.61 11.12 12.18 11.36 11.81 11.57 11.41 11.82 11.05 11.88 10.96 11.95 10.87 12.02 10.78 12.03 10.77 12.03 10.76 12.04 10.76 12.08 10.72 12.11 10.68 12.15 10.65 12.34 10.47 12.54 10.29 12.76 10.14 12.8 10.11 12.83 10.09 12.87 10.06 12.95 10 13.04 9.94 13.13 9.89 13.13 9.9 13.12 9.91 13.12 9.93 12.89 11.01 12.75 12.12 12.73 13.23 12.72 13.89 13.26 14.34 13.9 14.25 14.09 14.22 14.28 14.2 14.47 14.18 17.39 13.88 20.35 14.53 23.28 14.77 23.68 14.8 24.16 14.52 24.27 14.11 24.29 14.05 24.3 14 24.31 13.94 24.52 13.14 24.66 12.34 24.75 11.53 24.8 11.04 24.84 10.55 24.85 10.06 25.02 10.28 25.19 10.5 25.35 10.72 25.38 10.76 25.48 10.9 25.48 10.9 25.52 10.96 25.56 11.03 25.6 11.1 25.71 11.29 25.8 11.48 25.9 11.67 26.1 12.09 26.29 12.52 26.5 12.94 26.92 13.76 27.42 14.47 28.26 14.9 28.73 15.14 29.22 15.33 29.72 15.51 29.94 15.59 30.16 15.67 30.37 15.76 30.41 15.78 30.46 15.8 30.5 15.82 30.5 15.82 30.53 15.83 30.56 15.85 30.59 15.87 30.64 15.89 30.65 15.9 30.7 15.93 30.76 15.96 30.81 16 31.05 16.15 31.28 16.31 31.5 16.48 31.76 16.68 31.74 16.66 31.97 16.88 32.42 17.33 32.66 18.34 33.18 18.69 33.68 19.03 34.07 18.9 34.36 18.54 34.45 18.43 34.53 18.29 34.61 18.14 34.98 17.38 35.13 16.24 35.18 15.77 35.39 13.57 34.63 11.39 33.69 9.4ZM7.86 4.28C6.44 5.02 5.21 6.12 4.26 7.4 4.17 7.52 4.09 7.65 4 7.78 4.06 7.66 4.11 7.54 4.18 7.42 4.73 6.33 5.49 5.34 6.47 4.61 7.54 3.82 8.79 3.47 10.11 3.41 10.19 3.41 10.28 3.4 10.36 3.4 9.49 3.59 8.65 3.88 7.86 4.28ZM28.17 5.3C26.18 4.42 24.05 3.93 21.89 3.64 23.21 3.57 24.57 3.64 25.88 3.82 28.32 4.15 30.68 5.32 31.97 7.49 32.06 7.64 32.14 7.79 32.21 7.94 31.06 6.79 29.65 5.96 28.17 5.3Z" fill="#231F20"/><path d="M33.83 16.9C33.22 16.06 32.33 15.46 31.43 14.96 30.63 14.51 29.79 14.11 29.03 13.58 28.88 13.48 28.74 13.37 28.6 13.25 28.58 13.23 28.51 13.16 28.48 13.14 28.39 13.06 28.31 12.97 28.23 12.88 27.9 12.51 27.79 12.33 27.56 11.92 27 10.94 26.42 10.01 25.3 9.62 25.09 9.55 24.9 9.55 24.74 9.59 24.77 9.65 24.79 9.71 24.81 9.78 24.83 9.87 24.85 9.95 24.87 10.04 25.03 10.25 25.2 10.47 25.36 10.68 25.39 10.72 25.49 10.86 25.49 10.86 25.53 10.92 25.57 10.99 25.61 11.06 25.72 11.25 25.81 11.44 25.91 11.63 26.11 12.05 26.3 12.48 26.51 12.9 26.93 13.72 27.43 14.43 28.27 14.86 28.74 15.1 29.23 15.29 29.73 15.47 29.95 15.55 30.17 15.63 30.38 15.72 30.42 15.74 30.47 15.76 30.51 15.78 30.51 15.78 30.54 15.79 30.57 15.81 30.6 15.83 30.65 15.85 30.66 15.86 30.71 15.89 30.77 15.92 30.82 15.96 31.06 16.11 31.29 16.27 31.51 16.44 31.77 16.64 31.75 16.62 31.98 16.84 32.43 17.29 32.67 18.3 33.19 18.65 33.69 18.99 34.08 18.86 34.37 18.5 34.46 18.39 34.54 18.25 34.62 18.1 34.37 17.69 34.11 17.28 33.83 16.9Z"/><path d="M16.51 13.54C15.7 13.29 14.96 12.88 14.49 12.11 14.12 11.51 13.93 10.82 13.84 10.13 13.81 9.88 13.9 9.44 13.57 9.43 13.4 9.42 13.16 9.74 13.13 9.89 12.9 10.97 12.76 12.08 12.74 13.19 12.73 13.85 13.27 14.3 13.91 14.21 14.1 14.18 14.29 14.16 14.48 14.14 17.35 13.85 20.26 14.47 23.14 14.72 21.54 14.2 19.84 14.13 18.19 13.89 17.62 13.8 17.05 13.71 16.51 13.54Z"/><path d="M4.08 17.09C3.13 16.44 2.07 15.9 0.98 16.64 0.02 17.29-0.26 18.67 0.26 19.69 0.69 20.53 1.54 21.02 2.36 21.4 2.99 21.69 3.73 21.92 4.43 21.97 4.08 20.38 4.05 18.73 4.08 17.09Z" fill="#F4C7A8"/><path d="M3.95 19.17C3.95 19.17 1.4 17.97 1.55 18.7 1.71 19.43 3.64 20.77 3.87 20.38 4.1 19.99 3.95 19.17 3.95 19.17Z" fill="#E5A980"/><path d="M9.36 77.4C9.36 77.58 9.36 77.77 9.45 77.93 9.53 78.07 9.66 78.16 9.8 78.25 11.51 79.37 13.65 79.88 15.72 79.67 16.01 79.64 16.31 79.59 16.56 79.44 17.1 79.11 17.21 78.41 17.16 77.81 17.11 77.21 16.95 76.58 17.14 76 15.76 76.28 14.31 76.33 12.94 76.01 11.55 75.68 10.57 74.94 9.52 74.09 9.11 74.95 9.36 76.42 9.36 77.4Z" fill="#4BC1EA"/><path d="M19.49 75.58C19.47 76.28 19.35 77.11 18.77 77.45 18.97 70.87 18.24 66.5 17.95 59.65L17.94 59.65C18.21 59.16 18.46 58.73 18.46 58.06 19.35 63.85 19.69 69.72 19.49 75.58Z" fill="#1695C1"/><path d="M18.49 78.62C18.5 78.7 18.5 78.78 18.54 78.85 18.59 78.92 18.67 78.97 18.75 79 20.26 79.7 22.06 79.73 23.6 79.09 23.72 79.04 23.84 78.98 23.91 78.88 23.99 78.77 23.99 78.63 23.99 78.49 24.01 77.58 24.03 76.68 24.05 75.77 24.04 76.28 22.24 76.48 21.93 76.49 20.64 76.51 19.71 76.11 18.58 75.67 18.52 76.91 18.42 77.63 18.49 78.62Z" fill="#4BC1EA"/><path d="M28.28 87.73C28.21 87.92 28.11 88.09 27.97 88.24 27.25 89.05 25.99 89.01 24.92 88.9 23.03 88.71 22.04 88.53 20.15 88.33 19.78 88.3 19.37 88.24 19.12 87.98 18.78 87.63 18.84 87.16 18.93 86.67 19 86.37 19.07 86.09 19.09 85.81L19.09 85.74C19.1 85.64 19.09 85.53 19.07 85.41 18.99 84.47 18.53 83.14 19.59 83.04 20.32 82.96 20.8 83.64 21.45 83.87 21.84 84.01 22.28 83.99 22.67 83.85 22.79 83.81 22.9 83.75 23 83.69 23.18 83.58 23.94 82.67 24.06 83.13 24.22 83.73 24.27 84.37 24.2 84.99 24.23 84.97 24.54 85.36 25.09 85.34 25.87 85.31 26.38 84.62 27.12 84.48 28.27 84.27 28.45 85.2 28.49 86.14 28.53 86.67 28.5 87.25 28.28 87.73Z" fill="#F7941E"/><path d="M28.28 87.73C28.21 87.92 28.11 88.09 27.97 88.24 27.25 89.05 25.99 89.01 24.92 88.9 23.03 88.71 22.04 88.53 20.15 88.33 19.78 88.3 19.37 88.24 19.12 87.98 18.78 87.63 18.84 87.16 18.93 86.67 19.02 86.84 19.15 87.01 19.3 87.14 19.65 87.41 20.08 87.56 20.5 87.68 23.34 88.46 25.54 88.72 28.28 87.73Z" fill="#19194F"/><path d="M24.32 84.93C24.1 85.4 23.65 85.77 23.15 85.9 22.34 86.1 21.5 85.71 20.67 85.7 20.23 85.69 19.8 85.78 19.36 85.77 19.27 85.77 19.2 85.76 19.11 85.74 19.12 85.64 19.11 85.53 19.09 85.41 19.39 85.5 19.69 85.53 20 85.5 20.4 85.47 20.81 85.34 21.21 85.36 21.46 85.37 21.7 85.44 21.93 85.49 22.78 85.67 23.8 85.62 24.32 84.93Z" fill="#D6760D"/><path d="M17.53 88.7C17.07 89.24 16.36 89.51 15.67 89.7 15.14 89.85 14.56 89.97 14.01 89.82 13.47 89.67 13.02 89.25 12.48 89.09 12.03 88.95 11.52 88.98 11.09 88.78 10.23 88.4 9.98 87.3 10.03 86.36 10.06 85.96 10.13 85.57 10.17 85.17 10.17 85.12 10.18 85.07 10.18 85.02 10.2 84.89 10.21 84.78 10.21 84.65 10.21 84.32 9.85 83.12 10.03 82.88 10.48 82.3 11.53 83.85 12.22 83.91 13.17 83.99 14.07 83.04 14.96 83.36 15.13 83.93 14.74 84.52 14.72 85.11 14.72 85.15 14.72 85.19 14.73 85.23 14.72 85.25 14.72 85.28 14.74 85.29 14.81 86.14 15.75 86.83 16.59 86.59 16.76 86.54 16.92 86.46 17.09 86.46 17.3 86.46 17.5 86.58 17.64 86.73 18.13 87.27 18 88.15 17.53 88.7Z" fill="#F7941E"/><path d="M14.74 85.29C14.23 85.56 13.8 85.96 13.35 86.33 13.11 86.53 12.84 86.73 12.54 86.73 12.28 86.73 12.03 86.58 11.82 86.43 11.26 86.04 10.71 85.62 10.18 85.17 10.18 85.12 10.19 85.07 10.19 85.02 10.59 85.26 10.99 85.51 11.38 85.75 11.72 85.96 12.06 86.18 12.45 86.21 13.29 86.3 13.97 85.59 14.74 85.22 14.72 85.25 14.72 85.27 14.74 85.29Z" fill="#D6760D"/><path d="M18.9 58.06C18.61 58.61 16.93 58.09 16.64 58.63 16.61 58.57 16.59 58.51 16.57 58.45 16.27 57.69 15.85 57.01 15.37 56.35 14.74 55.47 14.02 54.63 13.45 53.71 12.47 52.14 11.91 50.35 11.37 48.59 10.98 47.33 10.31 45.93 10.11 44.62 10.1 44.56 10.09 44.5 10.08 44.44 10 43.8 10.03 43.79 10.6 43.34 10.74 43.22 13.1 41.66 13.1 41.59 14.44 46.6 18.69 57.52 18.9 58.06Z" fill="#FFDCC0"/><path d="M15.36 56.35C14.73 55.47 14.01 54.63 13.44 53.71 12.46 52.14 11.9 50.35 11.36 48.59 10.97 47.33 10.3 45.93 10.1 44.62 10.56 44.12 12.58 43.02 12.73 43.81 12.77 43.97 10.82 45.03 10.81 45.23 10.81 45.56 14.44 53.52 15.34 56.26 15.35 56.28 15.36 56.31 15.36 56.35Z" fill="#F4C7A8"/><path d="M10.97 35.25C10.17 35.56 9.41 36.44 9.06 37.04 8.39 38.18 8.3 39.56 8.37 40.86 8.45 42.33 8.8 43.79 9.14 45.23 10.91 44.81 12.48 44.13 14.17 43.52 13.85 42.17 13.78 40.75 13.52 39.39 13.32 38.35 13.17 37.28 12.75 36.3 12.58 35.91 12.28 35.29 11.82 35.17 11.54 35.1 11.25 35.14 10.97 35.25Z" fill="#F15A29"/><path d="M39.27 87.62C39.13 87.62 39 87.56 38.91 87.44L5.84 44.61C5.69 44.41 5.72 44.13 5.92 43.97 6.12 43.82 6.4 43.85 6.56 44.05L39.64 86.89C39.79 87.09 39.76 87.37 39.56 87.53 39.47 87.59 39.37 87.62 39.27 87.62Z" fill="#603913"/><path d="M16 59.24C16 59.49 16.11 60.55 16.87 61.23 17.05 61.39 17.26 61.58 17.46 61.46 17.49 61.96 18.05 62.33 18.48 62.15 18.55 62.42 18.62 62.71 18.79 62.93 18.96 63.15 19.26 63.28 19.5 63.15 19.73 63.02 19.81 62.7 19.77 62.42 19.73 62.14 19.61 61.88 19.55 61.61 19.48 61.31 19.32 61.23 19.55 61.02 19.83 60.77 20.28 61.9 20.34 61.56 20.44 60.89 20.54 59.72 20.11 59.2 19.8 58.83 19.39 57.95 18.99 57.7 18.61 57.47 18.23 57.85 17.85 57.62 16.12 56.57 15.99 58.26 16 59.24Z" fill="#FFDCC0"/><path d="M39.92 93.12 47.07 87.41 40.08 82.7 31.75 87.1Z" fill="#603913"/><path d="M40.06 79.53C40.06 80.58 40.07 80.43 40.07 81.48 40.07 81.91 40.95 81.97 40.75 82.34 40.51 82.77 39.17 83.4 38.73 83.62 36.39 84.82 33.99 86.39 31.52 87.26 31.07 84.91 30.96 85.02 30.85 83 31.68 82.45 37.87 80.23 40.06 79.53Z" fill="#8B5E3C"/><path d="M35.14 85.24C37.76 86.85 38.87 90.23 39.92 93.12 37.31 91.3 33.85 88.92 31.24 87.1 31.09 85.22 30.96 84.42 30.85 83 32.09 83.71 33.91 84.48 35.14 85.24Z" fill="#A97C50"/><path d="M47.07 87.41C44.34 85.99 42.5 84.33 40.15 82.9 39.94 82.78 39.82 79.67 40.07 79.52 41.7 80.03 42.96 81.18 44.18 82.32 45.19 83.27 45.96 84.33 46.47 85.63 46.69 86.22 46.88 86.82 47.07 87.41Z" fill="#754C29"/><path d="M25.94 59.66C25.95 60.3 25.29 59.84 25.3 60.48 25.3 60.63 25.28 60.83 25.13 60.87 25.06 60.89 24.99 60.87 24.92 60.86 24.71 60.84 24.5 60.96 24.29 60.98 24.08 61 23.81 60.81 23.91 60.61 23.69 60.55 23.44 60.9 23.29 60.73 23.25 60.69 23.24 60.64 23.24 60.58 23.15 59.8 24.19 60.08 23.92 59.35 23.84 59.65 23.77 59.95 23.69 60.24 23.68 60.3 23.66 60.36 23.6 60.38 23.48 60.44 23.39 60.26 23.38 60.13 23.34 59.71 23.29 59.29 23.25 58.86 23.21 58.47 23.17 58.08 23.23 57.7 23.29 57.32 23.45 56.93 23.75 56.69 24.27 56.27 25.57 56.13 25.92 56.71 26.16 57.12 26.16 57.97 26.23 58.43 26.25 58.68 26.06 59.85 25.94 59.66Z" fill="#FFDCC0"/></g><g><path d="M89.77 91.52C89.9 92.21 90.74 92.55 91.43 92.61 92.15 92.67 93.16 92.53 93.69 91.99 94.41 91.26 94 89.6 93.65 88.79 93.58 89.2 93.26 89.52 92.88 89.7 92.51 89.88 92.09 89.94 91.68 89.99 90.59 90.13 89.14 88.18 89.77 91.52Z" fill="#FFA10B"/><path d="M81.02 91C81.22 91.69 81.58 92.3 82.13 92.58 82.98 93.02 84.58 92.74 85.31 92.12 86.15 91.41 85.53 89.67 85.42 88.78 85.46 89.08 83.21 89.55 83.02 89.49 82.24 89.21 81.73 88.47 81.05 88.18 80.79 88.92 80.75 90.04 81.02 91Z" fill="#FFA10B"/><path d="M86.43 63.06C86.1 62.91 85.72 62.92 85.39 63.05 85.22 62.85 84.98 62.7 84.67 62.64 84.33 62.58 83.92 62.69 83.63 62.92 83.57 62.89 83.51 62.86 83.45 62.84 83.08 62.13 81.9 61.96 81.37 62.6 81.32 62.66 81.28 62.73 81.25 62.8 80.64 63.01 80.39 63.63 80.48 64.24 80.47 64.17 80.51 64.48 80.51 64.47 80.52 64.56 80.52 64.64 80.53 64.73 80.54 64.93 80.54 65.13 80.54 65.32 80.53 65.73 80.51 66.13 80.48 66.53 80.43 67.33 80.4 68.11 80.49 68.91 80.65 70.31 80.95 71.69 81.23 73.07 81.23 73.12 81.23 73.17 81.23 73.22 81.2 74.38 81 75.48 80.88 76.61 80.81 77.25 80.77 77.9 80.81 78.58 80.93 80.78 81.33 82.78 81.69 84.94 81.83 85.8 81.42 86.53 81.12 87.3 80.97 87.69 80.94 88.45 81.2 88.92 82.5 89.31 84.21 89.59 84.75 88.16 84.33 86.26 83.71 85.91 83.96 84.31 84.29 82.3 85.54 78.17 85.61 76.17 85.65 75.1 85.52 74.05 85.5 72.99 85.49 72.69 85.55 72.44 85.63 72.19 85.73 71.88 85.87 71.59 85.96 71.26 86.15 70.61 86.14 69.89 86.19 69.21 86.31 67.77 86.45 66.3 86.98 64.94 87.01 64.86 87.04 64.79 87.07 64.71 87.33 64.1 87.06 63.35 86.43 63.06Z" fill="#FFDCC0"/><path d="M84.58 73.63C84.58 73.63 83.36 74.04 82.53 73.94 83.11 75.56 84.58 73.63 84.58 73.63Z" fill="#F4C7A8"/><path d="M89.43 73.35C89.46 74.51 89.3 75.62 89.24 76.75 89.2 77.39 89.19 78.05 89.26 78.72 89.48 80.91 89.97 82.89 90.44 85.03 90.62 85.88 90.12 86.92 90.11 87.86 90.1 88.32 89.85 88.7 90.21 89.14 90.28 89.15 90.34 89.15 90.41 89.17 91.19 89.37 91.96 89.34 92.74 89.21 93.04 88.77 93.31 88.29 93.59 87.85 93.09 86.18 92.52 85.83 92.69 84.29 92.92 82.26 93.98 78.09 93.95 76.08 93.94 75.01 93.76 73.97 93.69 72.91 93.67 72.61 93.72 72.35 93.78 72.1 93.87 71.79 93.99 71.49 94.07 71.15 94.23 70.49 94.18 69.77 94.2 69.09 94.25 67.65 94.33 66.17 94.79 64.79 94.82 64.71 94.84 64.63 94.87 64.56 95.11 63.93 94.8 63.19 94.16 62.92 93.82 62.78 93.44 62.81 93.13 62.96 92.95 62.76 92.71 62.63 92.39 62.58 92.04 62.54 91.64 62.67 91.36 62.91 91.3 62.88 91.24 62.86 91.17 62.84 90.76 62.15 89.58 62.03 89.08 62.7 89.03 62.76 89 62.83 88.97 62.9 88.37 63.14 88.15 63.77 88.27 64.38 88.25 64.31 88.31 64.61 88.31 64.61 88.32 64.7 88.33 64.78 88.34 64.87 88.36 65.07 88.37 65.27 88.38 65.46 88.39 65.87 88.39 66.27 88.38 66.68 88.37 67.48 88.37 68.27 88.5 69.06 88.72 70.46 89.09 71.82 89.43 73.18 89.43 73.26 89.43 73.3 89.43 73.35Z" fill="#FFDCC0"/><path d="M92.82 73.58C92.82 73.58 91.62 74.05 90.78 73.98 91.43 75.58 92.82 73.58 92.82 73.58Z" fill="#F4C7A8"/><path d="M100.27 47.27 100.27 47.32C100.27 48.13 98.59 48.85 97.9 48.55 96.71 48.01 95.57 47.29 94.55 46.42 93.64 45.64 93.19 44.6 92.13 44.11 92.15 43.7 92.16 43.3 92.17 42.9 92.22 41.74 92.22 40.59 92.2 39.44 92.17 38.07 92.5 36.78 93.51 38.43 94.27 39.68 95.02 40.95 95.75 42.22 96.11 42.86 96.47 43.51 96.83 44.16 97.03 44.52 97.83 45.56 97.83 46.02 97.88 45.21 97.94 44.42 97.97 43.62 97.98 43.41 97.99 43.2 98 43 98.01 42.85 98.01 42.69 98.04 42.54 98.05 42.42 98.07 42.31 98.09 42.2 98.14 41.99 98.22 41.8 98.33 41.62 98.42 41.45 98.52 41.29 98.65 41.14 98.65 41.13 98.66 41.13 98.66 41.12 98.99 40.69 99.42 40.31 99.8 40.02 99.82 40.58 99.85 41.14 99.9 41.72 99.93 42.05 99.95 42.39 99.98 42.72 100.11 44.24 100.28 45.79 100.27 47.27Z" fill="#FFDCC0"/><path d="M100.27 47.27 100.27 47.32C100.27 48.14 98.59 48.86 97.9 48.56 96.71 48.02 95.57 47.3 94.55 46.43 93.63 45.65 93.19 44.62 92.13 44.13 92.15 43.72 92.16 43.32 92.17 42.91 92.4 42.57 92.71 42.29 93.06 42.12 92.99 42.21 92.91 42.3 92.84 42.39L93.2 42.19C94.05 43.43 94.89 44.65 95.72 45.9 96.21 46.64 96.9 47.56 97.76 47.84 98.59 48.1 99.5 47.7 100.27 47.27Z" fill="#F4C7A8"/><path d="M48.99 85.44C48.6 84.93 48.42 84.28 48.37 83.65 48.32 83.09 48.45 82.4 48.97 82.18 49.51 81.95 50.1 82.37 50.53 82.77 50.13 81.82 50.13 80.72 50.54 79.77 50.81 79.14 51.31 78.54 51.99 78.45 52.67 78.35 53.42 79 53.22 79.66 53.34 78.76 54.02 77.94 54.9 77.7 55.78 77.46 56.8 77.84 57.27 78.63 57.73 79.41 57.55 80.53 56.82 81.09 57.54 80.72 58.49 81.16 58.83 81.89 59.17 82.62 58.96 83.52 58.48 84.17 58 84.81 57.27 85.24 56.52 85.54 56.75 85.47 56.99 85.4 57.22 85.33 57.52 85.87 57.22 86.59 56.71 86.95 56.21 87.31 55.56 87.4 54.95 87.49 54.53 87.55 54.1 87.6 53.69 87.51 53.28 87.41 52.88 87.14 52.78 86.73 53.11 87.94 51.08 87.19 50.83 87.06 50.34 86.8 49.33 85.89 48.99 85.44Z" fill="#DDDDDD"/><path d="M79.08 65.04C79.02 65.78 79.05 66.53 79.17 67.27 79.56 67.46 80.09 67.22 80.21 66.81 80.19 67.2 80.3 67.63 80.62 67.85 80.94 68.07 81.48 67.96 81.58 67.58 81.46 68.05 81.89 68.54 82.37 68.58 82.85 68.62 83.31 68.28 83.53 67.84 83.5 68.26 83.85 68.67 84.27 68.7 84.69 68.73 85.1 68.39 85.14 67.97 85.52 68.7 86.82 68.61 87.09 67.83 87.4 68.05 87.73 68.29 88.11 68.33 88.49 68.38 88.93 68.16 89 67.78 89.35 68.31 90.3 68.23 90.55 67.65 91 68.25 92.13 67.99 92.28 67.27 92.65 67.57 93.23 67.59 93.63 67.32 93.86 67.17 94.03 66.93 94.28 66.82 94.62 66.68 95 66.81 95.37 66.8 95.74 66.79 96.17 66.47 96.03 66.14 96.38 66.27 96.82 66.15 97.04 65.85 97.3 65.18 96.75 64.41 96.07 64.17 95.39 63.93 94.64 64.06 93.93 64.18 89.11 64.97 84.19 64.96 79.31 64.94 79.49 64.85 79.67 64.76 79.85 64.66L79.08 65.04Z" fill="#80AF35"/><path d="M78.62 80.95C78.62 81.48 78.62 82.03 78.76 82.51 78.92 83.02 79.22 83.37 79.53 83.65 80.51 84.5 81.59 85.02 82.7 85.24 87.77 86.25 93.01 84.9 97.64 81.42 95.32 68.5 94.2 54.77 93.29 41.4 93.2 40.08 93.08 38.61 92.43 37.78 92.06 37.3 91.57 37.14 91.1 37 88.48 36.26 86.43 36.89 84.15 37.09 83.09 37.18 81.05 37.71 81 40.61 80.79 50.8 78.65 74.47 78.62 80.95Z" fill="#8DC63F"/><path d="M89.41 36.37C89.2 34.67 88.9 32.97 88.79 31.26 88.58 30.97 88.29 30.73 87.96 30.59 87.54 30.34 87.02 30.26 86.53 30.36 86.53 30.36 86.52 30.36 86.52 30.36 85.52 30.39 84.72 31.13 84.68 32.14 84.64 33.21 84.76 36.66 84.76 37.05 84.81 37.13 84.85 37.22 84.91 37.3 84.95 37.36 85.04 37.45 85.07 37.51 85.07 37.51 85.07 37.51 85.07 37.51 85.2 37.65 85.33 37.78 85.47 37.91 85.49 37.93 85.57 37.99 85.63 38.04 85.66 38.06 85.69 38.08 85.7 38.09 85.86 38.2 86.04 38.29 86.21 38.38 86.29 38.42 86.38 38.45 86.46 38.49 86.44 38.48 86.42 38.47 86.4 38.46 86.27 38.41 86.14 38.31 86.4 38.46 86.4 38.46 86.41 38.46 86.41 38.47 86.58 38.53 86.75 38.57 86.92 38.61 86.94 38.62 87.03 38.63 87.09 38.64 87.11 38.64 87.13 38.64 87.14 38.64 87.31 38.65 87.49 38.65 87.66 38.63 87.86 38.56 87.89 38.58 87.83 38.6 87.84 38.6 87.86 38.6 87.87 38.59 87.95 38.57 88.03 38.55 88.12 38.52 88.15 38.51 88.28 38.46 88.33 38.44 88.33 38.44 88.33 38.44 88.34 38.44 88.43 38.39 88.52 38.34 88.6 38.29 88.62 38.28 88.64 38.26 88.66 38.25 88.67 38.23 88.72 38.19 88.78 38.16 88.87 38.07 89.04 37.8 89.14 37.76 89.2 37.66 89.26 37.57 89.32 37.46 89.37 37.37 89.41 37.27 89.46 37.18 89.47 37.17 89.47 37.16 89.48 37.15 89.48 37.14 89.49 37.13 89.49 37.11 89.47 36.85 89.44 36.61 89.41 36.37Z" fill="#F4C7A8"/><path d="M99.91 41.71C99.73 41.94 99.51 42.14 99.26 42.29 99.03 42.43 98.47 42.59 98.05 42.53 98.06 42.41 98.08 42.3 98.1 42.19 98.15 41.98 98.23 41.79 98.34 41.61 98.43 41.44 98.53 41.28 98.66 41.13 98.66 41.12 98.67 41.12 98.67 41.11 99 40.68 99.43 40.3 99.81 40.01 99.82 40.57 99.86 41.13 99.91 41.71Z" fill="#F4C7A8"/><path d="M97.42 7.23C95.87 6.05 96.11 3.99 96.1 2.26 96.1 1.74 95.3 1.85 95.3 2.36 95.3 4.35 95.16 6.53 96.92 7.87 97.34 8.18 97.83 7.55 97.42 7.23Z" fill="#F15A29"/><path d="M109.25 6.2C109.33 4.42 107.86 2.79 106.34 2.05 105.12 1.46 103.69 1.42 102.42 1.87 102.77 1.66 102.93 1.16 102.85 0.79 102.74 0.31 102.3-0.04 101.78 -2.22045e-16 100.92 0.07 100.07 0.03 99.23 0.26 98.32 0.51 97.55 1.18 97.09 2 96.79 2.54 96.61 3.17 96.45 3.76 96.26 4.46 96.14 5.19 96.15 5.93 96.16 6.7 96.46 7.65 97.26 7.94 97.45 8.01 97.67 8.03 97.87 8.01 98.21 8.62 98.68 9.15 99.2 9.6 99.55 9.9 99.92 10.16 100.27 10.45 100.44 10.59 100.61 10.74 100.77 10.89 100.85 10.96 100.93 11.04 101 11.12 101.03 11.15 101.06 11.19 101.1 11.22 101.11 11.23 101.12 11.24 101.13 11.25 101.13 11.25 101.14 11.26 101.14 11.27 101.3 11.46 101.45 11.65 101.58 11.85 101.65 11.95 101.71 12.06 101.77 12.16 101.77 12.17 101.78 12.17 101.78 12.17 101.81 12.23 101.83 12.28 101.86 12.34 101.91 12.45 101.95 12.57 101.99 12.69 102 12.73 102.02 12.78 102.03 12.82 102.03 12.82 102.06 12.95 102.08 12.98 102.08 13 102.09 13.03 102.09 13.03 102.1 13.11 102.12 13.19 102.13 13.27 102.15 13.42 102.16 13.58 102.16 13.73 102.17 14.13 102.5 14.48 102.85 14.59 103.27 14.73 103.61 14.58 103.93 14.3 103.86 14.37 103.95 14.28 103.97 14.26 104.02 14.22 104.07 14.17 104.12 14.13 104.26 14.01 104.39 13.89 104.52 13.76 104.73 13.56 104.91 13.34 105.07 13.1 105.43 12.55 105.62 11.91 105.66 11.25 105.68 10.93 105.67 10.62 105.64 10.3 106.18 10.3 106.72 9.85 106.68 9.21 106.61 8.1 106.36 7.04 105.88 6.08 105.9 6.09 105.93 6.09 105.95 6.1 105.97 6.11 106 6.12 106.02 6.12 106.1 6.15 106.19 6.19 106.27 6.22 106.42 6.29 106.57 6.36 106.72 6.44 107.03 6.61 107.24 6.77 107.55 7.04 107.86 7.3 108.31 7.36 108.67 7.17 109.09 6.97 109.23 6.62 109.25 6.2ZM101.83 2.13C101.85 2.11 101.88 2.09 101.89 2.08 101.91 2.07 101.92 2.06 101.94 2.05 101.94 2.05 101.95 2.05 101.95 2.04 102.02 2.02 102.09 2 102.16 1.98 102.05 2.02 101.94 2.07 101.83 2.13Z" fill="#F15A29"/><path d="M99.99 9.6C99.45 8.61 98.47 7.94 97.67 7.16 97.25 6.75 96.63 6.91 96.25 7.27 95.89 7.6 95.6 7.95 95.34 8.37 95.07 8.82 95.34 9.52 95.81 9.72 95.99 9.8 96.16 9.82 96.33 9.81 96.38 9.9 96.45 9.98 96.53 10.06 96.53 10.06 96.54 10.06 96.54 10.07 96.54 10.08 96.55 10.08 96.55 10.09 96.57 10.12 96.58 10.13 96.58 10.14 96.58 10.14 96.58 10.14 96.58 10.15 96.61 10.22 96.63 10.29 96.65 10.35 96.63 10.31 96.65 10.55 96.66 10.39 96.61 11.16 97.21 11.77 98 11.52 98.54 11.35 98.94 11.33 99.5 11.12 100.16 10.88 100.3 10.16 99.99 9.6Z" fill="#8DC63F"/><path d="M101.58 17.48C101.66 18.57 101.68 19.71 101.61 20.83 101.5 22.54 101.18 24.24 100.51 25.78 100.24 26.41 99.82 27.16 99.31 27.9 98.82 28.61 98.24 29.32 97.6 29.93 97.01 30.5 96.36 30.97 95.7 31.28 95.68 31.27 95.67 31.26 95.65 31.25 95.52 31.14 95.39 31.05 95.26 30.93 95.1 30.79 94.92 30.69 94.72 30.63 94.7 30.62 94.67 30.62 94.64 30.61 94.61 30.51 94.59 30.4 94.6 30.3 94.6 30.24 94.59 30.18 94.56 30.13 94.75 29.1 94.98 28.07 95.14 27.04 95.25 26.33 95.31 25.72 95.28 25.04 95.27 24.68 95.23 24.33 95.17 23.98 95.14 23.83 95.12 23.68 95.09 23.53 95.09 23.51 95.08 23.49 95.08 23.49 95.08 23.47 95.07 23.46 95.07 23.44 95.07 23.44 95.07 23.44 95.07 23.44 95.05 23.37 95.04 23.31 95.02 23.24 94.89 22.73 94.73 22.22 94.54 21.73 94.44 21.48 94.34 21.22 94.22 20.97 94.17 20.86 94.12 20.75 94.07 20.64 94.04 20.58 94.02 20.53 93.99 20.47 93.99 20.47 93.99 20.46 93.98 20.46 93.98 20.46 93.98 20.45 93.98 20.45 93.97 20.44 93.97 20.42 93.96 20.41 93.84 20.18 93.71 19.95 93.57 19.73 93.16 19.04 92.69 18.38 92.18 17.76 91.61 17.07 90.82 16.29 90.02 15.64 89.62 15.31 89.2 15.01 88.78 14.72 88.76 14.71 88.7 14.67 88.68 14.65 88.66 14.64 88.63 14.62 88.61 14.61 88.52 14.56 88.44 14.5 88.35 14.45 88.16 14.33 87.97 14.22 87.78 14.11 86.94 13.62 86.06 13.19 85.16 12.82 84.92 12.72 84.68 12.63 84.43 12.54 84.32 12.5 84.22 12.46 84.11 12.43 84.1 12.43 84.09 12.42 84.09 12.42 84.03 12.4 83.97 12.38 83.9 12.36 83.45 12.22 82.99 12.1 82.52 12.01 82.49 12 82.47 12 82.44 11.99 81.96 11.89 81.47 11.83 80.97 11.79 80.95 11.79 80.85 11.78 80.83 11.78 80.79 11.78 80.76 11.78 80.72 11.78 80.61 11.78 80.5 11.78 80.39 11.78 80.16 11.78 79.93 11.8 79.7 11.82 79.46 11.84 79.21 11.88 78.97 11.92 78.93 11.93 78.89 11.94 78.85 11.94 78.84 11.94 78.84 11.94 78.83 11.95 78.71 11.98 78.59 12.01 78.48 12.05 78.33 12.1 78.18 12.15 78.04 12.2 77.9 12.31 77.73 12.38 77.56 12.4 77.54 12.41 77.52 12.42 77.5 12.43 77.49 12.43 77.48 12.44 77.47 12.44 77.42 12.47 77.37 12.5 77.32 12.52 77.02 12.69 76.68 12.73 76.38 12.62 76.23 12.83 75.99 12.98 75.68 13.01 75.23 13.05 74.7 12.72 74.6 12.26 74.59 12.21 74.58 12.15 74.58 12.09 74.59 11.41 74.9 10.87 75.34 10.41 75.46 10.15 75.62 9.91 75.81 9.7 75.92 9.47 76.12 9.28 76.37 9.19 76.38 9.18 76.4 9.18 76.41 9.17 76.7 8.96 77.02 8.78 77.35 8.62 77.42 8.58 77.5 8.55 77.58 8.51 77.61 8.49 77.63 8.48 77.65 8.46 78.02 8.22 78.4 7.99 78.79 7.79 78.97 7.69 79.15 7.6 79.33 7.52 80.55 6.95 81.76 6.32 83.08 5.99 85.33 5.43 87.71 5.43 89.98 5.91 92.29 6.4 94.4 7.47 96.27 8.89 98.12 10.3 99.79 12.08 100.74 14.22 101.18 15.23 101.5 16.37 101.58 17.48Z" fill="#F15A29"/><path d="M99.45 21.85C99.43 22.28 99.38 22.71 99.32 23.14 99.01 25.14 98.24 27.07 97.1 28.74 96.31 29.9 95.34 30.94 94.22 31.79 94.08 31.89 93.95 32 93.8 32.09 91.23 33.89 87.89 34.39 84.82 34.42 82.5 34.44 79.97 34.43 77.82 33.44 75.48 32.36 73.96 29.49 73.25 27.13 72.92 26.05 72.68 24.99 72.48 24.09 72.46 24 72.44 23.91 72.42 23.82 72.21 22.87 72.1 21.89 72.06 20.91 72.05 20.73 72.05 20.55 72.05 20.37 72.05 19.66 72.08 18.94 72.15 18.23 72.2 17.69 72.28 17.16 72.37 16.62 72.49 15.91 72.66 15.16 72.95 14.47 73.17 13.96 73.45 13.48 73.83 13.08 74.02 12.88 74.28 12.76 74.55 12.74 74.65 12.63 74.78 12.55 74.92 12.5 76.44 12.03 77.87 11.33 79.43 11 81.15 10.64 82.9 10.9 84.63 10.7 84.95 10.66 85.26 10.81 85.47 11.04 86.41 11.1 87.36 11.23 88.31 11.43 88.61 11.49 88.9 11.56 89.2 11.64 91.72 12.28 94.13 13.43 95.99 15.12 96.5 15.58 97.02 16.14 97.49 16.77 98.65 18.26 99.54 20.13 99.45 21.85Z" fill="#FFDCC0"/><g><path d="M79.08 16.31C79.09 16.31 79.1 16.31 79.11 16.31 79.11 16.31 79.1 16.31 79.1 16.31 79.09 16.31 79.08 16.31 79.08 16.31Z" fill="#F4C7A8"/><path d="M79.04 16.31C79.01 16.31 78.98 16.31 78.95 16.32 78.98 16.32 79.02 16.32 79.08 16.32 79.07 16.32 79.07 16.32 79.06 16.32 79.05 16.31 79.05 16.31 79.04 16.31Z" fill="#F4C7A8"/><path d="M79.1 16.31C79.13 16.31 79.16 16.31 79.2 16.3 79.2 16.3 79.2 16.3 79.2 16.3 79.16 16.3 79.12 16.3 79.1 16.31 79.09 16.31 79.09 16.31 79.1 16.31Z" fill="#F4C7A8"/><path d="M79.1 16.31C79.13 16.32 79.17 16.33 79.24 16.34 79.24 16.34 79.24 16.33 79.23 16.33 79.19 16.33 79.15 16.32 79.1 16.31Z" fill="#F4C7A8"/><path d="M96.58 25.27C96.23 23.87 95.45 22.56 94.24 21.72 93.07 20.91 91.72 20.58 90.34 20.28 90.06 20.22 89.78 20.16 89.5 20.09 89.35 20.05 89.19 20.02 89.04 19.98 88.94 19.95 88.84 19.93 88.74 19.9 88.74 19.9 88.74 19.9 88.74 19.9 88.74 19.9 88.74 19.9 88.74 19.9 88.69 19.89 88.61 19.85 88.57 19.83 88.3 19.74 88.01 19.67 87.74 19.58 87.37 19.45 87 19.31 86.63 19.15 86.3 19.01 85.98 18.85 85.66 18.68 85.6 18.65 85.54 18.61 85.47 18.58 85.29 18.47 85.12 18.35 84.94 18.23 84.66 18.03 84.4 17.8 84.14 17.57 84.08 17.5 83.98 17.4 83.97 17.39 83.82 17.22 83.69 17.04 83.56 16.86 83.45 16.71 83.35 16.55 83.25 16.39 83.21 16.33 83.17 16.26 83.13 16.2 83.11 16.17 83.08 16.13 83.05 16.09 82.97 15.97 82.91 15.82 82.84 15.7 82.68 15.42 82.52 15.15 82.36 14.88 81.95 14.2 81.44 13.65 80.74 13.26 80.05 12.87 79.23 12.85 78.46 12.91 77.53 12.98 76.63 13.2 75.74 13.48 74.92 13.74 74.12 14.06 73.31 14.35 73.19 14.4 73.06 14.44 72.94 14.48 72.65 15.17 72.48 15.92 72.36 16.63 72.33 16.81 72.3 16.99 72.27 17.17 72.49 17.06 72.72 16.96 72.95 16.86 74.63 16.17 77.16 15.63 78.91 16.48 78.91 16.48 78.91 16.48 78.91 16.48 79.84 16.94 80.22 18.09 80.85 18.87 81.57 19.77 82.41 20.56 83.34 21.23 85.65 22.89 88.14 23.23 90.81 23.9 90.83 23.91 90.86 23.91 90.88 23.92 91.01 23.96 91.13 24 91.26 24.04 92.63 24.53 93.31 25.91 93.55 27.26 93.63 27.69 94.14 31.84 94.19 31.8 95.31 30.95 96.28 29.91 97.07 28.75 97.04 28.51 97.01 28.26 96.97 28.02 96.88 27.1 96.8 26.17 96.58 25.27Z" fill="#F4C7A8"/><path d="M88.75 19.9C88.52 19.8 88.51 19.8 88.57 19.83 88.63 19.86 88.69 19.88 88.75 19.9 88.75 19.9 88.75 19.9 88.75 19.9Z" fill="#F4C7A8"/></g><g><path d="M74.51 14.63C74.52 14.63 74.53 14.63 74.54 14.62 74.54 14.62 74.54 14.62 74.54 14.62 74.53 14.62 74.52 14.63 74.51 14.63Z" fill="#F15A29"/><path d="M99.98 23.34C99.96 24.19 99.73 25.02 99.39 25.8 99.32 25.96 99.24 26.12 99.16 26.28 99.09 26.41 99.02 26.54 98.95 26.67 98.71 27.8 98.3 28.99 97.59 29.93 97.31 30.3 96.99 30.63 96.61 30.9 95.73 31.54 94.86 31.52 94.71 30.62 94.68 30.45 94.68 30.25 94.71 30.02 94.81 29.2 95.11 28.42 95.23 27.6 95.25 27.49 95.21 27.41 95.15 27.35 95.31 27.03 95.44 26.7 95.51 26.35 95.66 25.58 95.59 24.37 95.23 23.66 95.19 23.58 95.14 23.5 95.08 23.42 94.11 22.1 91.27 21.88 89.89 21.51 87.77 20.94 85.58 20.29 83.85 18.88 82.52 17.81 81.35 16.4 80.67 14.8 79.04 14.77 77.45 14.34 75.78 14.49 74.04 14.65 72.46 15.43 71.57 16.93 70.99 16.65 70.73 16.15 70.67 15.57 70.52 14.24 71.44 12.45 72.09 11.67 73.32 10.19 75.07 9.07 76.84 8.35 77.43 8.11 78.11 7.89 78.8 7.78 80.04 7.59 81.29 7.78 82 8.9 82.17 8.82 82.38 8.78 82.6 8.81 82.76 8.63 83.01 8.55 83.25 8.55 83.45 8.45 83.69 8.4 83.91 8.44 83.99 8.45 84.06 8.47 84.13 8.5 84.19 8.5 84.25 8.5 84.3 8.51 84.4 8.52 84.49 8.56 84.58 8.6 84.57 8.54 84.57 8.48 84.56 8.42 84.5 7.88 84.94 7.37 85.48 7.33 86.03 7.28 86.52 7.71 86.57 8.25 86.59 8.42 86.61 8.58 86.64 8.75 86.66 8.85 86.68 8.95 86.7 9.06 86.71 9.12 86.73 9.18 86.74 9.24 86.75 9.27 86.76 9.31 86.77 9.34 87.04 9.82 87.34 10.28 87.66 10.72 88.8 10.88 89.93 11.12 91.03 11.47 92.4 11.91 93.59 12.65 94.66 13.59 95.87 14.65 97.01 15.81 97.88 17.16 98.11 17.22 98.33 17.36 98.48 17.56 99.07 18.36 99.4 19.37 99.63 20.33 99.84 21.31 100.01 22.32 99.98 23.34Z" fill="#F15A29"/></g><g><path d="M99.39 25.79C99.43 26.49 99.39 27.21 99.3 27.9 98.81 28.61 98.23 29.32 97.59 29.93 97.31 30.3 96.99 30.63 96.61 30.9 95.73 31.54 94.86 31.52 94.71 30.62 94.69 30.61 94.66 30.61 94.63 30.6 94.6 30.5 94.58 30.39 94.59 30.29 94.59 30.23 94.58 30.17 94.55 30.12 94.74 29.09 94.97 28.06 95.13 27.03 95.24 26.32 95.3 25.71 95.27 25.03 95.26 24.67 95.22 24.32 95.16 23.97 95.13 23.82 95.11 23.67 95.08 23.52 95.08 23.5 95.07 23.48 95.07 23.48 95.07 23.46 95.06 23.45 95.06 23.43 94.09 22.11 91.25 21.89 89.87 21.52 87.75 20.95 85.56 20.3 83.83 18.89 82.5 17.82 81.33 16.41 80.65 14.81 79.02 14.78 77.43 14.35 75.76 14.5 74.02 14.66 72.44 15.44 71.55 16.94 70.97 16.66 70.71 16.16 70.65 15.58 70.86 15.23 71.1 14.89 71.37 14.58 72.27 13.54 73.37 12.78 74.58 12.25 76.69 11.34 79.14 11.14 81.42 11.44 81.79 11.49 82.21 11.69 82.51 11.99 82.68 12.16 82.82 12.36 82.88 12.58 83.2 13.77 83.49 14.99 84 16.12 84.05 16.22 84.1 16.33 84.15 16.43 84.14 16.41 84.13 16.4 84.13 16.4 84.13 16.41 84.16 16.48 84.2 16.53 84.21 16.54 84.21 16.55 84.22 16.56 84.25 16.62 84.28 16.67 84.31 16.73 84.28 16.68 84.26 16.63 84.24 16.59 84.38 16.81 84.53 17.02 84.69 17.22 84.78 17.33 84.89 17.43 84.98 17.54 84.85 17.38 84.79 17.32 84.79 17.31 84.8 17.32 84.96 17.5 85.04 17.57 85.27 17.77 85.53 17.95 85.78 18.12 85.83 18.15 85.89 18.18 85.94 18.21 86.07 18.28 86.2 18.34 86.34 18.4 86.68 18.56 87.04 18.7 87.39 18.82 87.59 18.89 87.79 18.95 87.99 19.02 88.01 19.03 88.02 19.03 88.04 19.04 88.07 19.05 88.11 19.05 88.13 19.06 88.47 19.15 88.82 19.22 89.16 19.29 90.51 19.55 91.88 19.61 93.25 19.7 93.36 19.71 93.46 19.71 93.57 19.72 94.48 19.79 95.41 19.94 96.24 20.33 97.39 20.87 98.23 21.78 98.74 22.94 99.14 23.82 99.34 24.8 99.39 25.79Z" fill="#E5461C"/><path d="M84.22 16.56C84.23 16.57 84.23 16.58 84.24 16.59 84.2 16.51 84.17 16.46 84.15 16.43 84.16 16.46 84.18 16.48 84.19 16.51 84.2 16.52 84.21 16.54 84.22 16.56Z" fill="#E5461C"/></g><path d="M98.91 22.84C97.76 21.56 96.11 22.4 94.82 22.91 94.73 22.95 94.64 22.99 94.56 23.04 94.75 23.94 94.69 24.89 94.55 25.78 94.47 26.25 94.37 26.72 94.24 27.18 94.94 27.3 95.72 27.25 96.41 27.12 97.3 26.95 98.25 26.69 98.86 25.98 99.62 25.11 99.68 23.71 98.91 22.84Z" fill="#F4C7A8"/><path d="M95.41 24.58C95.41 24.58 98.18 24.04 97.85 24.71 97.52 25.38 95.31 26.21 95.19 25.77 95.06 25.34 95.41 24.58 95.41 24.58Z" fill="#E5A980"/><path d="M95.76 21.75C93.04 20.94 90.2 21.27 87.43 20.79 85.24 20.41 83.19 19.24 81.9 17.4 81.22 16.43 80.86 15.29 81.16 14.12 81.29 13.62 80.49 13.5 80.36 14 79.77 16.33 81.41 18.5 83.17 19.82 84.05 20.48 85.04 21.01 86.1 21.31 87.5 21.7 88.96 21.8 90.41 21.86 92.1 21.94 93.81 21.99 95.45 22.48 95.93 22.64 96.25 21.9 95.76 21.75Z" fill="#E5461C"/><path d="M97.29 10.04C96.33 8.87 95.66 7.52 94.41 6.61 93.14 5.69 91.67 5.09 90.17 4.67 87.41 3.89 84.49 3.92 81.85 5.12 80.47 5.75 79.24 6.66 78.26 7.81 76.2 7.55 74.1 7.55 72.4 8.96 70.85 10.24 69.89 12.12 70.02 14.14 70.05 14.64 70.17 15.24 70.5 15.64 70.56 15.62 70.63 15.61 70.69 15.59 70.73 15.58 70.76 15.58 70.8 15.58 70.82 15.49 70.83 15.4 70.84 15.31 70.86 15.2 70.86 15.1 70.88 14.99 70.88 14.98 70.88 14.97 70.88 14.96 70.88 14.9 70.87 14.84 70.87 14.78 70.86 14.7 70.86 14.61 70.87 14.53 70.83 14.32 70.82 14.11 70.82 13.96 70.79 13.31 70.87 12.64 71.11 12.03 71.49 11.1 72.12 10.24 72.89 9.6 73.74 8.9 74.76 8.55 75.85 8.48 76.64 8.43 77.43 8.5 78.22 8.61 78.31 8.66 78.41 8.67 78.51 8.65 78.82 8.7 79.14 8.75 79.45 8.8 79.96 8.88 80.08 8.08 79.57 8 79.46 7.98 79.34 7.97 79.23 7.95 80.89 6.23 83.16 5.2 85.55 4.98 86.87 4.86 88.18 5 89.47 5.32 90.88 5.67 92.29 6.19 93.51 6.98 94.2 7.42 94.77 7.95 95.25 8.6 95.73 9.24 96.14 9.92 96.65 10.53 96.98 10.93 97.62 10.44 97.29 10.04Z" fill="#F15A29"/><path d="M84.49 22.72C84.54 23.14 84.24 23.52 83.82 23.58 83.4 23.63 83.02 23.33 82.96 22.91 82.91 22.49 83.21 22.11 83.63 22.05 84.05 22 84.43 22.3 84.49 22.72Z" fill="#231F20"/><path d="M88.9 24.97C89.02 25.92 87.94 26.83 86.5 27.01 85.05 27.19 83.79 26.57 83.67 25.62 83.55 24.67 84.63 23.76 86.07 23.58 87.52 23.4 88.78 24.02 88.9 24.97Z" fill="#FFB0B0"/><path d="M74.37 26.28C74.2 26.65 73.79 26.94 73.25 27.14 72.92 26.06 72.68 25 72.48 24.1 73.93 24.57 74.75 25.48 74.37 26.28Z" fill="#FFB0B0"/><path d="M73.74 20.56C73.25 20.49 72.58 20.63 72.07 20.91 72.06 20.73 72.06 20.55 72.06 20.37 72.17 20.32 72.28 20.28 72.38 20.25 72.85 20.09 73.37 19.99 73.86 20.06 74.19 20.11 74.06 20.61 73.74 20.56Z" fill="#603913"/><path d="M85.42 22.28C85.38 22.44 85.04 22.54 84.91 22.57 84.89 22.57 84.86 22.58 84.82 22.59 85.11 22.35 85.3 21.93 85.34 21.54 85.37 21.24 84.91 21.17 84.87 21.47 84.84 21.76 84.6 22.52 84.18 22.27 83.93 22.12 83.64 22.48 83.89 22.64 83.88 22.68 83.89 22.73 83.92 22.77 84.3 23.44 85.72 23.03 85.89 22.36 85.96 22.05 85.49 21.99 85.42 22.28Z" fill="#231F20"/><path d="M72.94 22.71C72.99 23.13 73.38 23.43 73.8 23.38 74.22 23.33 74.52 22.94 74.47 22.52 74.42 22.1 74.03 21.8 73.61 21.85 73.19 21.91 72.89 22.29 72.94 22.71Z" fill="#231F20"/><path d="M71.84 21.9C71.86 22.06 72.19 22.2 72.32 22.24 72.34 22.25 72.37 22.26 72.4 22.27 72.14 22 72 21.56 71.99 21.16 71.99 20.86 72.46 20.84 72.46 21.14 72.46 21.44 72.61 22.21 73.06 22.01 73.33 21.88 73.58 22.28 73.31 22.41 73.31 22.45 73.3 22.49 73.27 22.54 72.82 23.16 71.45 22.6 71.36 21.92 71.32 21.62 71.8 21.61 71.84 21.9Z" fill="#231F20"/><path d="M77.33 23.11C77.33 23.11 74.97 25.14 76.98 25.54L77.33 23.11Z" fill="#F4C7A8"/><path d="M74.83 26.48 83.41 26.49C83.41 26.49 82.27 31.04 78.84 30.78 75.42 30.52 74.83 26.48 74.83 26.48Z" fill="#FFFFFF"/><path d="M68.28 77.12C68.18 77.12 68.07 77.08 67.99 77.01 67.8 76.85 67.78 76.56 67.94 76.37L102.9 35.05C103.06 34.86 103.35 34.84 103.54 35 103.73 35.16 103.75 35.45 103.59 35.64L68.62 76.96C68.53 77.06 68.4 77.12 68.28 77.12Z" fill="#603913"/><path d="M84.27 59.34C84.28 59.16 84.25 58.97 84.19 58.77 84.2 58.73 84.2 58.69 84.2 58.65 84.2 58.51 84.19 58.37 84.17 58.23 84.04 57.58 83.65 56.99 83.36 56.38 81.18 51.74 81.3 46.69 81.76 41.75 81.81 41.31 81.85 40.87 81.9 40.43 81.9 40.34 81.91 40.25 81.93 40.17 82.03 39.21 82.14 38.25 82.24 37.3 82.23 37.31 81.43 37.54 81.34 37.59 80.99 37.78 80.72 38.05 80.49 38.36 79.61 39.5 78.67 41 78.55 42.33 78.51 42.67 78.53 43.01 78.46 43.33 77.03 49.86 79.73 52.01 80.63 57.33 80.05 58.65 81.4 60.77 81.59 60.92 81.76 61.07 81.9 61.12 82.03 61.11 82.07 61.13 82.11 61.16 82.15 61.17 82.47 61.24 82.63 61.07 82.72 60.84 82.96 60.9 83.21 60.86 83.43 60.65 83.57 60.51 83.64 60.32 83.68 60.12 83.95 60.25 84.35 60.13 84.34 59.74 84.34 59.61 84.31 59.47 84.27 59.34Z" fill="#FFDCC0"/><path d="M97.76 42.44C97.85 42.13 98.55 42.22 98 41.44 97.94 41.7 98.09 42.58 98.55 42.22 98.64 42.15 98.68 42.02 98.71 41.91 98.78 41.64 98.84 41.37 98.91 41.1 98.9 41.24 98.9 41.39 98.97 41.52 99.04 41.64 99.21 41.73 99.33 41.65 99.41 41.6 99.45 41.51 99.47 41.42 99.6 41.02 99.69 40.61 99.76 40.19 99.73 40.39 99.81 40.69 100 40.64 100.12 40.61 100.16 40.46 100.17 40.34 100.3 38.85 100.05 37.34 98.23 38.47 97.67 38.82 96.96 39.33 96.89 39.94 96.77 40.78 97.33 41.76 97.76 42.44Z" fill="#FFDCC0"/><path d="M83.79 37.31C84.01 37.41 84.48 37.79 84.73 37.76 84.66 38.09 84.67 38.46 84.89 38.71 85.11 38.96 85.59 38.98 85.74 38.68 85.81 39.05 85.96 39.44 86.29 39.61 86.62 39.78 87.14 39.47 87.01 39.11 87.39 39.63 88.37 39.42 88.51 38.8 88.71 39.1 89.18 39.17 89.46 38.96 89.75 38.75 89.81 38.28 89.59 38 89.85 37.98 90.13 37.95 90.31 37.77 90.49 37.59 90.45 37.2 90.2 37.15 90.45 37.17 90.67 36.87 90.57 36.63 90.35 36.72 90.13 36.52 89.9 36.48 89.63 36.43 89.37 36.61 89.21 36.83 89.05 37.05 88.96 37.31 88.8 37.54 88.36 38.2 87.45 38.45 86.67 38.29 85.87 38.12 85.32 37.03 84.67 36.75 84.17 36.54 82.84 36.87 83.79 37.31Z" fill="#80AF35"/><path d="M66.84 77.07C66.81 77.11 66.79 77.13 66.77 77.17L66.63 77.05C66.71 77.04 66.78 77.05 66.84 77.07Z" fill="#FFD503"/><path d="M70.92 76.19C70.09 76.76 69.25 77.33 68.42 77.9 68.36 77.95 68.28 77.99 68.22 78.04 68.17 78.08 68.13 78.11 68.08 78.13 68 78.18 67.91 78.22 67.81 78.21 67.3 78.2 67.23 77.28 66.85 77.08 66.95 76.94 67.05 76.81 67.14 76.67 67.75 75.84 68.34 75 68.95 74.17 69.19 74.66 69.53 75.1 69.93 75.46 70.22 75.75 70.55 75.99 70.92 76.19Z" fill="#FFD503"/><path d="M68.85 81.57C68.46 83.04 68.01 84.48 67.35 85.83 66.93 86.69 66.52 87.55 66.1 88.41 65.88 88.86 65.65 89.33 65.27 89.67 64.7 90.17 63.8 90.28 63.12 89.91 63.32 89.67 63.42 89.36 63.4 89.05 63.21 89.22 63.01 89.39 62.82 89.56 62.51 89.52 62.2 89.43 61.92 89.29 61.68 89.18 61.46 89.04 61.26 88.86 61.46 88.25 61.67 87.65 61.87 87.04 61.51 87.57 61.02 88.17 60.38 88.13 60.11 88.11 59.86 87.98 59.63 87.84 59.09 87.5 58.57 87.09 58.12 86.63 58.56 86 59.01 85.35 59.46 84.72 58.98 85.13 58.47 85.56 57.85 85.65 57.23 85.74 56.49 85.33 56.47 84.7 56.45 84.24 56.8 83.87 57.13 83.54 58.94 81.74 60.76 79.94 62.58 78.13 63.26 77.46 63.97 76.76 64.89 76.48 65.72 76.24 66.49 76.33 67.14 76.66 67.47 76.82 67.76 77.06 68.03 77.35 68.17 77.51 68.31 77.69 68.43 77.89 69.01 78.86 69.22 80.2 68.85 81.57Z" fill="#FFD503"/><path d="M68.42 77.9C69.02 78.87 69.23 80.2 68.85 81.58 68.46 83.05 68.01 84.49 67.35 85.84 66.93 86.7 66.52 87.56 66.1 88.42 65.88 88.87 65.65 89.34 65.27 89.68 64.7 90.18 63.8 90.29 63.12 89.92 63.32 89.68 63.42 89.37 63.4 89.06 63.21 89.23 63.01 89.4 62.82 89.57 62.51 89.53 62.2 89.44 61.92 89.3 63.74 86.94 65.43 84.48 67 81.95 67.72 80.79 68.43 79.43 68.07 78.13 68.06 78.1 68.05 78.07 68.04 78.04 67.98 77.85 67.9 77.64 67.97 77.45 67.98 77.42 68 77.39 68.02 77.36 68.07 77.29 68.14 77.22 68.2 77.17 68.65 76.75 69.3 75.91 69.92 75.47 70.22 75.76 70.55 76 70.92 76.19 70.08 76.76 69.25 77.33 68.42 77.9Z" fill="#FFBE08"/><path d="M84.2 58.66C83.68 58.06 83.36 57.36 83.08 56.66 82.6 55.5 82.22 54.32 81.91 53.12 81.36 50.91 81.1 48.65 81.13 46.39 81.16 44.81 81.49 43.28 81.76 41.76 81.3 46.7 81.18 51.75 83.36 56.39 83.65 57 84.04 57.59 84.17 58.24 84.19 58.38 84.2 58.52 84.2 58.66Z" fill="#F4C7A8"/><path d="M66.86 76.43C66.93 77.06 67.57 78.34 68.21 78.44 68.49 78.49 68.87 78.31 68.8 78.03 68.78 77.95 68.72 77.88 68.67 77.82 68.23 77.31 67.78 76.79 67.34 76.28 67.26 76.19 67.17 76.09 67.04 76.07 66.89 76.06 66.84 76.21 66.86 76.43Z" fill="#F15A29"/><path d="M62.72 90.66C62.52 89.46 63.79 88.44 65 88.36 65.47 88.33 65.97 88.4 66.34 88.7 66.7 89 66.87 89.57 66.6 89.96 66.46 88.25 67.57 86.52 69.19 85.94 69.34 85.89 69.5 85.84 69.65 85.87 69.82 85.9 69.95 86.02 70.07 86.14 70.57 86.63 71.02 87.24 71.06 87.94 71.1 88.64 70.58 89.4 69.88 89.4 70.28 89.24 70.77 89.49 70.96 89.88 71.15 90.27 71.07 90.75 70.85 91.12 70.28 92.08 68.74 92.26 67.96 91.46 67.71 92.38 66.93 93.13 66 93.35 65.07 93.57 64.04 93.25 63.4 92.55 62.82 92.84 61.67 93.23 61.19 92.8 61.02 92.65 60.92 92.43 60.87 92.2 60.76 91.73 60.86 91.2 61.2 90.86 61.53 90.53 62.34 90.36 62.72 90.66Z" fill="#DDDDDD"/><path d="M59.43 84.01C59.78 84.03 60.11 83.87 60.42 83.7 62.01 82.8 63.14 81.23 63.58 79.47 62.47 81.25 61.01 82.64 59.43 84.01Z" fill="#FFBE08"/><path d="M81.13 87.16C80.72 88.47 80.78 90.62 81.79 91.56 82.8 92.49 84.68 92.43 85.38 91.25 85.88 90.42 85.69 89.34 85.28 88.46 84.87 87.58 84.33 86.72 83.95 85.83 84.15 86.35 84.28 86.97 84.28 87.53 84.28 88.08 84.04 88.67 83.55 88.93 82.84 89.31 81.91 88.81 81.58 88.08 81.3 87.47 81.42 86.45 81.64 85.83 81.25 86.51 81.3 86.62 81.13 87.16Z" fill="#FFBE08"/><path d="M90.31 86.18C90.21 86.7 90.11 87.21 90.01 87.73 89.75 89.07 89.1 90.68 90.45 91.68 91.49 92.45 93.23 92.11 93.67 90.84 94.22 89.26 93.68 87.5 92.88 86.03 92.83 86.14 92.86 85.59 92.74 85.58 92.82 86.02 92.74 87.08 92.69 87.53 92.64 87.97 92.44 88.42 92.07 88.67 91.7 88.92 91.14 88.9 90.85 88.57 90.68 88.38 90.62 88.11 90.57 87.86 90.47 87.31 90.39 86.76 90.35 86.2L90.31 86.18Z" fill="#FFBE08"/><path d="M91.55 86.25C92.01 86.16 92.45 85.97 92.88 85.78 92.85 85.55 92.82 85.32 92.79 85.09 91.99 85.2 91.17 85.18 90.37 85.03 90.32 85.31 90.07 85.96 90.3 86.18 90.55 86.42 91.24 86.31 91.55 86.25Z" fill="#FFBE08"/><path d="M82.88 86.45C83.35 86.39 83.79 86.19 84.2 85.95 84.07 85.62 84.06 85.25 84.05 84.89 83.36 85.42 82.31 85.43 81.61 84.91 81.53 85.25 81.29 85.91 81.56 86.19 81.84 86.48 82.51 86.5 82.88 86.45Z" fill="#FFBE08"/><path d="M53.92 79.87C53.99 79.82 54.07 79.78 54.15 79.81 54.21 79.83 54.25 79.88 54.29 79.93 54.4 80.08 54.52 80.23 54.63 80.38 54.73 80.14 54.83 79.9 55.01 79.72 55.19 79.54 55.46 79.42 55.7 79.5 56.02 79.61 56.15 79.97 56.2 80.3 56.22 80.44 56.2 80.62 56.07 80.65 56.02 80.41 55.97 80.16 55.81 79.96 55.66 79.77 55.37 79.65 55.16 79.77 54.94 79.89 54.88 80.17 54.79 80.41 54.77 80.46 54.75 80.51 54.71 80.54 54.59 80.64 54.4 80.52 54.31 80.39 54.22 80.26 54.11 80.09 53.95 80.1 53.66 80.12 53.52 80.67 53.42 80.87 53.31 80.5 53.62 80.08 53.92 79.87Z" fill="#CCCCCC"/><path d="M50.93 84.78C51.27 85.02 51.81 84.95 52.03 84.59 52.08 84.77 52.14 84.95 52.25 85.1 52.36 85.25 52.53 85.37 52.72 85.36 52.82 85.36 52.91 85.32 52.99 85.28 53.28 85.13 53.53 84.88 53.68 84.59 53.41 84.8 53.08 84.96 52.74 84.91 52.4 84.87 52.09 84.56 52.14 84.22 51.95 84.41 51.75 84.61 51.49 84.69 50.93 84.87 50.85 84.4 50.58 84.11 50.58 84.38 50.71 84.63 50.93 84.78Z" fill="#CCCCCC"/><path d="M65.53 91.61C66.13 91.7 66.83 91.33 66.9 90.72 67.26 90.94 67.78 90.89 68.08 90.59 68.39 90.29 68.47 89.79 68.26 89.41 68.31 89.72 68.17 90.04 67.93 90.23 67.69 90.43 67.37 90.51 67.06 90.48 66.98 90.47 66.89 90.46 66.81 90.5 66.75 90.53 66.7 90.6 66.66 90.66 66.25 91.24 65.54 91.34 64.9 91.22 65.02 91.46 65.27 91.57 65.53 91.61Z" fill="#CCCCCC"/></g></g></svg>