<svg width="99.65" height="146.64" viewBox="0 0 99.65 146.64" xmlns="http://www.w3.org/2000/svg" xmlns:xlink="http://www.w3.org/1999/xlink" xml:space="preserve" overflow="hidden"><defs></defs><path d="M11.95 127.58C19.65 129.26 40.02 127.62 51.89 123.04L39.5 109.93 24.58 113 15.12 117 11.95 127.58Z" fill="#459BB5"/><g><path d="M83.69 130.76C82.39 130 80.66 131.21 80.66 131.21 80.66 131.21 80.95 129.24 79.36 128.94 77.77 128.64 76.18 130.15 76.18 130.15 76.18 130.15 77.34 128.49 75.6 128.03 73.87 127.58 72.28 129.24 72.28 129.24 72.28 129.24 73 127.58 71.56 126.97 70.12 126.36 68.38 128.18 68.38 128.18 68.38 128.18 68.67 126.51 67.23 125.91 65.79 125.31 64.49 129.24 64.49 129.24 64.49 129.24 64.35 127.27 62.32 127.58 60.3 127.88 60.59 130.91 60.59 130.91 59 130.91 58.71 133.63 59.15 135.3L85 135.6C85.43 133.93 84.99 131.51 83.69 130.76Z" fill="#996047"/><path d="M63.1 129.77C63.52 128.93 63.37 128 62.76 127.7 62.15 127.4 61.32 127.83 60.9 128.67 60.48 129.51 60.64 130.44 61.24 130.74 61.85 131.05 62.68 130.61 63.1 129.77Z" fill="#BA7056"/><path d="M67.44 127.76C67.77 127.09 67.64 126.35 67.16 126.11 66.68 125.87 66.02 126.22 65.69 126.89 65.36 127.56 65.49 128.3 65.97 128.54 66.45 128.78 67.11 128.43 67.44 127.76Z" fill="#BA7056"/><path d="M70.92 128.77C71.61 128.49 72.02 127.86 71.82 127.36 71.62 126.86 70.9 126.67 70.2 126.95 69.51 127.23 69.1 127.86 69.3 128.36 69.5 128.86 70.22 129.04 70.92 128.77Z" fill="#BA7056"/><path d="M74.92 129.83C75.62 129.55 76.02 128.92 75.82 128.42 75.62 127.92 74.9 127.73 74.2 128.01 73.51 128.29 73.1 128.92 73.3 129.42 73.5 129.93 74.22 130.11 74.92 129.83Z" fill="#BA7056"/><path d="M71.52 131.57C72.21 131.29 72.62 130.66 72.42 130.16 72.22 129.66 71.5 129.47 70.8 129.75 70.11 130.03 69.7 130.66 69.9 131.16 70.1 131.66 70.82 131.84 71.52 131.57Z" fill="#BA7056"/><path d="M67.12 131.43C67.81 131.15 68.22 130.52 68.02 130.02 67.82 129.52 67.1 129.33 66.4 129.61 65.7 129.89 65.3 130.52 65.5 131.02 65.7 131.53 66.43 131.71 67.12 131.43Z" fill="#BA7056"/><path d="M60.92 133.03C61.61 132.75 62.02 132.12 61.82 131.62 61.62 131.12 60.9 130.93 60.2 131.21 59.51 131.49 59.1 132.12 59.3 132.62 59.51 133.13 60.23 133.31 60.92 133.03Z" fill="#BA7056"/><path d="M79.05 130.77C79.74 130.49 80.15 129.86 79.95 129.36 79.75 128.86 79.03 128.67 78.33 128.95 77.63 129.23 77.23 129.86 77.43 130.36 77.63 130.86 78.35 131.04 79.05 130.77Z" fill="#BA7056"/><path d="M82.92 132.7C83.62 132.42 84.02 131.79 83.82 131.29 83.62 130.79 82.9 130.6 82.21 130.88 81.52 131.16 81.11 131.79 81.31 132.29 81.5 132.79 82.22 132.98 82.92 132.7Z" fill="#BA7056"/><path d="M78.45 133.77C79.15 133.49 79.55 132.86 79.35 132.36 79.15 131.86 78.43 131.67 77.73 131.95 77.03 132.23 76.63 132.86 76.83 133.36 77.03 133.86 77.76 134.04 78.45 133.77Z" fill="#BA7056"/><path d="M74.72 132.5C75.42 132.22 75.82 131.59 75.62 131.09 75.42 130.59 74.7 130.4 74 130.68 73.31 130.96 72.9 131.59 73.1 132.09 73.3 132.59 74.02 132.78 74.72 132.5Z" fill="#BA7056"/><path d="M71.79 134.1C72.48 133.82 72.89 133.19 72.69 132.69 72.49 132.19 71.77 132 71.07 132.28 70.37 132.56 69.97 133.19 70.17 133.69 70.37 134.19 71.09 134.38 71.79 134.1Z" fill="#BA7056"/><path d="M65.19 133.7C65.89 133.42 66.29 132.79 66.09 132.29 65.89 131.79 65.17 131.6 64.47 131.88 63.78 132.16 63.37 132.79 63.57 133.29 63.77 133.79 64.49 133.98 65.19 133.7Z" fill="#BA7056"/></g><path d="M69.36 135.99C69.36 135.29 66.61 134.72 63.23 134.72 59.84 134.72 57.1 135.29 57.1 135.99 57.1 136.69 59.85 137.26 63.23 137.26 66.62 137.25 69.36 136.69 69.36 135.99Z" fill="#FFD880"/><path d="M77.76 136.19C77.76 135.6 76.82 135.12 75.66 135.12 74.5 135.12 73.56 135.6 73.56 136.19 73.56 136.78 74.5 137.26 75.66 137.26 76.82 137.25 77.76 136.78 77.76 136.19Z" fill="#FFD880"/><path d="M22.66 56.03C23.64 43.94 22.04 30.46 29.79 13.72 38.66-5.42 56.5-1.15 60.65 6.29 60.65 6.29 72.81 7.43 75.53 16.82 82.36 40.42 57.58 53.69 58.36 72.02 22.66 86.65 22.22 61.49 22.66 56.03Z" fill="#C17459"/><path d="M76.65 23.08C71.13 26.33 63.7 26.58 54.83 23.13 44.15 18.98 34.95 13.99 34.12 6.85 32.54 8.7 31.06 10.96 29.79 13.72 22.03 30.46 23.63 43.94 22.66 56.03 22.22 61.49 22.66 86.66 58.36 72.03 57.7 56.4 77.85 43.87 76.65 23.08Z" fill="#B25B40"/><path d="M76.65 23.08C71.13 26.33 63.7 26.58 54.83 23.13 44.15 18.98 34.95 13.99 34.12 6.85 32.54 8.7 31.06 10.96 29.79 13.72 22.03 30.46 23.63 43.94 22.66 56.03 22.22 61.49 22.66 86.66 58.36 72.03 57.7 56.4 77.85 43.87 76.65 23.08Z" fill="#B25B40"/><path d="M50.44 25.03C36.29 19.15 26.13 40.35 22.67 56.03 22.23 61.46 22.67 86.29 57.62 72.32 57.62 71.9 57.63 71.47 57.6 71.03 56.44 52.22 74.03 34.82 50.44 25.03Z" fill="#99432B"/><path d="M16.89 145.33 18.51 145.94 26.73 85.01 17.36 88.23Z" fill="#FFCD9C"/><path d="M18.15 132.49C18.88 132.49 19.58 132.75 20.22 133.23L26.73 85.01 17.36 88.23 17 132.71C17.37 132.57 17.75 132.49 18.15 132.49Z" fill="#EF8F6F"/><path d="M45.08 146.04 46.55 145.53 47.78 82.77 38.8 86.09Z" fill="#FFCD9C"/><path d="M46.79 130.49C46.81 130.49 46.83 130.49 46.85 130.49L47.79 82.77 38.81 86.08 43.58 131.6C44.54 130.9 45.63 130.49 46.79 130.49Z" fill="#EF8F6F"/><path d="M11.95 127.58C22.84 124.86 29.99 122.57 51.89 123.04 51.89 123.04 48.56 81.89 57.03 50.11 58.06 46.23 39.55 39.79 35.24 42.62 15.88 55.33 11.37 105.5 11.95 127.58Z" fill="#6EBFE0"/><path d="M34.04 41.64C14.67 54.35 11.37 105.5 11.95 127.58 12.84 127.36 13.7 127.14 14.55 126.92 14.6 118.47 16.18 108.73 19.11 104.2 20.59 101.91 47.9 88.87 51.27 99.83 51.44 85.38 52.67 66.5 57.04 50.11 58.07 46.23 38.36 38.81 34.04 41.64Z" fill="#51B1CE"/><path d="M23.65 63.81 26.65 52.95 21.72 58.78 19.8 63.97Z" fill="#3B9FB7"/><path d="M56.62 71.59C52.24 83.74 42.84 89.51 44.04 91.14 45.74 93.44 58.54 83.86 59.44 72.25 59.43 72.24 57.05 70.4 56.62 71.59Z" fill="#FFAE85"/><path d="M54.82 47.89C58.48 46.67 63.29 62.21 60.47 74.72L51.19 73.31C51.19 73.31 53 48.5 54.82 47.89Z" fill="#6EBFE0"/><path d="M53.09 70.08C54.06 63.43 57.62 58.56 60.78 59.75 60.33 52.31 57.33 46.22 53.73 47.52 51.93 48.17 51.18 73.31 51.18 73.31L52.85 73.56C52.84 72.45 52.92 71.28 53.09 70.08Z" fill="#51B1CE"/><path d="M48.11 74.94 61 75.89 61.58 72.2 49.1 72.11Z" fill="#95E2F9"/><path d="M35.86 42.04C33.22 38.44 17.16 45.66 9.25 56.52L19.42 61.4C19.42 61.41 37.17 43.83 35.86 42.04Z" fill="#6EBFE0"/><path d="M35.86 42.04C34.26 39.86 27.76 41.65 21.12 45.79 22.77 45.4 24.19 45.57 25.12 46.42 27.53 48.61 25.78 54.46 21.21 59.48 20.59 60.16 19.96 60.78 19.31 61.36L20.18 61.35C20.18 61.35 37.17 43.83 35.86 42.04Z" fill="#51B1CE"/><path d="M41.4 53.54C33.43 51.52 29.19 42.85 32.42 41.23 38.44 38.22 52.56 45.03 53.8 46.27 55.42 47.89 50.4 55.82 41.4 53.54Z" fill="#95E2F9"/><path d="M42.28 52.21C35.36 50.46 31.67 42.92 34.48 41.52 39.71 38.91 51.98 44.82 53.06 45.9 54.46 47.3 50.1 54.19 42.28 52.21Z" fill="#FFAE85"/><path d="M40.17 61.55C47.18 62.64 54.94 56.14 59.15 51.92 58.2 49.55 56.91 47.9 55.44 47.47 54.99 47.1 54.46 46.73 53.86 46.36 53.84 46.34 53.82 46.31 53.8 46.29 52.57 45.06 38.76 38.4 32.63 41.16 32.52 41.17 32.4 41.18 32.28 41.19 32.22 41.2 32.16 41.21 32.1 41.22 31.88 41.25 31.66 41.28 31.43 41.33 31.36 41.34 31.29 41.36 31.22 41.37 30.98 41.42 30.73 41.48 30.48 41.54 30.42 41.55 30.37 41.57 30.31 41.58 29.44 41.81 28.51 42.13 27.53 42.52 26.34 51.93 31.32 60.17 40.17 61.55Z" fill="#BC5642" opacity="0.5"/><path d="M9.95 100C6.83 91.24 7.74 86.89 6.35 84.71 4.96 82.53-0.26 73.07 0.01 71.06 0.27 69.05 35.68 53.78 50.41 55.45 50.41 55.45 58.9 73.27 60.07 85.32 34.97 89.42 31.79 97.45 9.95 100Z" fill="#FFE8C2"/><path d="M32.84 85.33C19.78 81.06 12.2 72.21 13.78 64.15 5.92 67.29 0.12 70.25 0.01 71.06-0.26 73.07 4.96 82.52 6.35 84.71 7.74 86.89 6.83 91.24 9.95 100 28.12 97.88 33.38 91.97 49.09 87.67 43.84 87.84 38.23 87.09 32.84 85.33Z" fill="#FCDCAE"/><g><path d="M0.56 73.25C0.82 71.24 28.44 55.81 50.91 56.53 50.45 55.5 50.24 55.11 50.24 55.11 35.51 53.45 0.27 69.05 0.01 71.06-0.05 71.51 0.18 72.35 0.56 73.38 0.57 73.34 0.56 73.29 0.56 73.25Z" fill="#F7CB92"/></g><path d="M10.81 98.59C7.69 89.83 8.48 84.96 7.08 82.78 5.88 80.9 2.24 73.2 1.45 69.86 0.55 70.41 0.04 70.82 0.01 71.06-0.25 73.07 4.4 83 5.79 85.18 7.18 87.36 6.39 92.23 9.52 100.99 31.36 98.44 34.97 89.42 60.07 85.31 60 84.62 59.91 83.91 59.8 83.18 36.12 87.41 32.19 96.1 10.81 98.59Z" fill="#F7CB92"/><path d="M21.33 88.49C22.12 89.34 23.09 89.97 23.25 89.59 23.4 89.26 22.67 88.79 22.15 88.11 21.69 87.51 21.53 87.31 21.61 87.19 21.66 87.11 22.32 87.74 23.06 88.43 24.02 89.31 24.72 89.71 24.88 89.31 25.02 88.92 24.33 88.54 23.5 87.64 22.79 86.88 22.46 86.59 22.6 86.2 22.66 86.02 23.16 86.46 24 86.97 24.97 87.56 25.62 87.65 25.67 87.27 25.72 86.73 25.21 86.83 24.14 85.99 22.75 84.9 22.34 84.88 21.85 83.74 21.41 82.69 25.39 84.18 25.07 83.19 24.74 82.18 21.52 81.75 19.89 82.13 17.48 78.46 11.67 69.22 11.98 66.04 12.02 65.6 12.16 65.14 12.38 64.66 10.52 65.37 8.78 66.08 7.21 66.75 7.9 71.9 14 79.5 18.96 84.94 19.26 85.94 19.99 87.06 21.33 88.49Z" fill="#BC5642" opacity="0.5"/><path d="M13.01 64.94C13.2 63.03 14.98 60.65 17.13 58.41L12.38 56.79C10.5 59 8.94 61.34 8.47 63.43 7.26 68.77 14.52 78.71 19.91 85.21L21.33 83.4C21.33 83.4 12.59 69.17 13.01 64.94Z" fill="#FFCD9C"/><path d="M13.04 56.05C10.88 58.46 9.02 61.08 8.48 63.39 8.56 63.33 8.63 63.25 8.71 63.2 9.99 62.32 11.73 62.33 13.61 63.05 14.35 61.55 15.68 59.92 17.18 58.36L13.04 56.05Z" fill="#FFAE85"/><path d="M22.25 59.31 10.64 52.94 7.92 56.47 20.95 62.41Z" fill="#95E2F9"/><path d="M56.51 72C54.49 75.83 54.87 83.15 55.37 85.47L59.1 84.8C59.3 79.96 56.51 72 56.51 72Z" fill="#685547"/><path d="M56.34 81.69C56.88 80.36 57.55 79.18 58.27 78.19 57.51 74.86 56.51 72 56.51 72 54.54 75.74 54.85 82.79 55.34 85.28 55.51 84.14 55.84 82.92 56.34 81.69Z" fill="#5B4036"/><path d="M44.33 146.64 52.9 146.64C52.9 146.64 48.76 142.3 46.04 143.31 44.1 144.04 44.33 146.64 44.33 146.64Z" fill="#FFEBD9"/><path d="M20.52 146.64 11.63 146.64C11.63 146.64 15.38 142.3 17.84 143.31 19.62 144.04 20.52 146.64 20.52 146.64Z" fill="#FFEBD9"/><path d="M62.35 46.88C66.13 47.71 70.16 46.55 70.51 42.26 70.87 37.97 66.98 40.1 65.65 40.9 61.94 43.14 60.28 46.42 62.35 46.88Z" fill="#FFCD9C"/><path d="M63.48 45.7C66.03 46.26 68.75 45.49 68.99 42.59 69.23 39.69 66.6 41.13 65.71 41.67 63.2 43.18 62.08 45.4 63.48 45.7Z" fill="#FFAE85"/><path d="M63.3 45.46C64.93 45.82 66.66 45.32 66.82 43.48 66.98 41.64 65.3 42.55 64.72 42.89 63.13 43.84 62.41 45.26 63.3 45.46Z" fill="#FFCD9C"/><path d="M43.44 51.62C34.86 47.75 29.54 39.53 34.24 25.7 39.3 10.8 49.7 7.25 59.26 11.45 68.81 15.64 75.77 24.14 66.56 41.64 62.03 50.22 51.08 55.07 43.44 51.62Z" fill="#FFCD9C"/><path d="M31.99 41.29C33.07 26.96 38.14 21.49 41.93 20.48 47.1 19.1 57.31 28.33 58.43 13.02 59.55-2.29 47.17 5.75 42.32 9.29 28.07 19.69 31.99 41.29 31.99 41.29Z" fill="#C17459"/><path d="M61.94 48.05C67.6 38.42 66.89 31.41 65 28.06 62.42 23.5 52.06 21.87 58.13 11.61 64.2 1.35 71.1 11.45 72.53 17.12 76.72 33.79 61.94 48.05 61.94 48.05Z" fill="#C17459"/><path d="M41.52 90.44C40.74 90.03 40.08 89.41 40.34 89.16 40.56 88.95 41.05 89.41 41.66 89.65 42.2 89.86 42.38 89.93 42.46 89.84 42.52 89.77 41.92 89.41 41.26 88.99 40.42 88.45 39.99 87.98 40.27 87.73 40.54 87.5 40.96 87.96 41.79 88.39 42.5 88.76 42.77 88.96 43.05 88.73 43.18 88.63 42.75 88.34 42.22 87.78 41.59 87.14 41.41 86.61 41.7 86.46 42.11 86.25 42.12 86.72 42.96 87.37 44.04 88.22 44.13 88.56 45.09 88.64 45.98 88.71 44.63 86.78 45.47 86.76 46.57 86.73 47.23 90.09 46.4 90.73 45.19 91.66 43.9 91.69 41.52 90.44Z" fill="#FFAE85"/><path d="M21.59 88.23C22.32 89.11 23.24 89.79 23.41 89.43 23.56 89.12 22.87 88.62 22.39 87.91 21.97 87.3 21.82 87.09 21.9 86.97 21.95 86.89 22.57 87.55 23.27 88.27 24.17 89.19 24.84 89.63 25.01 89.24 25.16 88.87 24.5 88.45 23.73 87.51 23.06 86.72 22.75 86.41 22.9 86.03 22.97 85.86 23.44 86.32 24.24 86.87 25.17 87.51 25.81 87.63 25.88 87.26 25.96 86.72 25.45 86.8 24.42 85.9 23.09 84.74 22.69 84.7 22.25 83.53 21.85 82.45 25.73 84.15 25.45 83.13 25.08 81.78 19.89 81.2 19.48 82.34 18.92 83.98 19.35 85.56 21.59 88.23Z" fill="#FFCD9C"/><path d="M8.85 94.1C8.85 94.1 8.95 81.8 9.25 79.51L6.25 82.11 8.85 94.1Z" fill="#F7CB92"/><path d="M11.91 125.48C11.92 126.2 11.93 126.9 11.95 127.57 22.84 124.85 29.99 122.56 51.89 123.03 51.89 123.03 51.83 122.32 51.75 121.03 30.32 120.64 22.48 122.81 11.91 125.48Z" fill="#81D7F2"/><path d="M18.95 98.2C21.27 95.96 24.35 91.1 26.85 90.3 29.35 89.5 28.15 92.9 30.65 93.7 32.46 94.28 18.95 98.2 18.95 98.2Z" fill="#F7CB92"/><path d="M54.05 71.61C52.23 71.85 45.84 62.11 40.34 59.02 37.9 57.65 48.44 56.32 49.74 57.72 51.04 59.11 55.55 71.41 54.05 71.61Z" fill="#FFF0D9"/><path d="M53.77 75.14C54.1 76.87 53.44 80.41 52.64 80.27 51.84 80.14 51.77 74.57 52.7 73.37 53.63 72.18 53.57 74.08 53.77 75.14Z" fill="#FFF0D9"/><path d="M57.2 19.22C56.81 18.5 56.51 17.75 56.26 16.98 56.03 22.67 62.25 25.19 64.29 28.8 66.18 32.14 67.59 38.41 61.93 48.04 61.93 48.04 73.73 38.45 73.32 24.85 69.4 27.45 59.85 24.15 57.2 19.22Z" fill="#B25B40"/><path d="M51.71 20.68C46.84 20.68 37.58 17.9 35.52 13.54 26.13 24.64 32 41.29 32 41.29 33.08 26.96 38.07 21.96 41.86 20.95 46.02 19.84 53.54 25.13 56.86 19.43 55.3 20.22 53.55 20.68 51.71 20.68Z" fill="#B25B40"/><path d="M31.93 34.29C28.71 32.61 26.53 29.2 28.92 25.57 31.31 21.94 32.79 26.04 33.25 27.49 34.53 31.57 33.7 35.21 31.93 34.29Z" fill="#FFCD9C"/><path d="M31.54 32.46C29.78 31.54 28.58 29.67 29.89 27.68 31.2 25.69 32.01 27.93 32.26 28.73 32.96 30.96 32.51 32.96 31.54 32.46Z" fill="#EF8F6F"/><path d="M32.19 33.6C30.85 32.9 29.95 31.49 30.94 29.98 31.93 28.47 32.54 30.17 32.73 30.78 33.27 32.46 32.93 33.98 32.19 33.6Z" fill="#FFCD9C"/><path d="M73.26 19.23C73.73 22.36 72.86 26.83 72.19 28.16L74.39 27.16C75.73 22.69 73.26 19.23 73.26 19.23Z" fill="#B25B40"/><path d="M72.36 28.16C67.1 27.49 61.16 23.03 59.83 17.36 59.83 17.36 67.63 24.42 74.36 25.16L72.36 28.16Z" fill="#B25B40"/><path d="M64.59 107.79C64.68 107.12 64.2 106.58 63.52 106.58 62.84 106.58 62.21 107.12 62.13 107.79 62.04 108.46 62.52 109 63.2 109 63.88 109.01 64.51 108.46 64.59 107.79Z" fill="#BA7056"/><path d="M66.32 116.84C66.41 116.17 65.93 115.63 65.25 115.63 64.57 115.63 63.94 116.17 63.86 116.84 63.77 117.51 64.25 118.05 64.93 118.05 65.61 118.05 66.24 117.51 66.32 116.84Z" fill="#BA7056"/><path d="M61.57 126.69C61.57 126.01 61.02 125.46 60.34 125.46 59.66 125.46 59.11 126.01 59.11 126.69 59.11 127.37 59.66 127.92 60.34 127.92 61.02 127.92 61.57 127.37 61.57 126.69Z" fill="#BA7056"/><path d="M67.18 121.43C67.27 120.76 66.79 120.22 66.11 120.22 65.43 120.22 64.81 120.76 64.72 121.43 64.63 122.1 65.11 122.64 65.79 122.64 66.47 122.64 67.09 122.1 67.18 121.43Z" fill="#BA7056"/><path d="M71.71 123.97C71.83 123.09 71.2 122.38 70.3 122.38 69.41 122.38 68.59 123.09 68.47 123.97 68.35 124.85 68.98 125.56 69.88 125.56 70.77 125.56 71.59 124.85 71.71 123.97Z" fill="#BA7056"/><path d="M64.04 122.09C64.14 121.34 63.6 120.73 62.84 120.73 62.08 120.73 61.38 121.34 61.28 122.09 61.18 122.84 61.72 123.45 62.48 123.45 63.24 123.44 63.94 122.84 64.04 122.09Z" fill="#BA7056"/><path d="M64.9 125.89C64.9 125.21 64.35 124.66 63.67 124.66 62.99 124.66 62.44 125.21 62.44 125.89 62.44 126.57 62.99 127.12 63.67 127.12 64.35 127.12 64.9 126.57 64.9 125.89Z" fill="#BA7056"/><path d="M60.85 118.94C60.94 118.27 60.46 117.73 59.78 117.73 59.1 117.73 58.47 118.27 58.39 118.94 58.3 119.61 58.78 120.15 59.46 120.15 60.13 120.15 60.76 119.61 60.85 118.94Z" fill="#BA7056"/><path d="M61.94 102.68C62.03 102.01 61.55 101.47 60.87 101.47 60.19 101.47 59.56 102.01 59.47 102.68 59.38 103.35 59.86 103.89 60.54 103.89 61.23 103.89 61.85 103.35 61.94 102.68Z" fill="#BA7056"/><path d="M64.87 94.68C64.96 94.01 64.48 93.47 63.8 93.47 63.12 93.47 62.5 94.01 62.41 94.68 62.32 95.35 62.8 95.89 63.48 95.89 64.16 95.89 64.78 95.35 64.87 94.68Z" fill="#BA7056"/><path d="M60.7 90.34C60.7 89.66 60.15 89.11 59.47 89.11 58.79 89.11 58.24 89.66 58.24 90.34 58.24 91.02 58.79 91.57 59.47 91.57 60.15 91.57 60.7 91.02 60.7 90.34Z" fill="#BA7056"/><path d="M57.44 83.11C57.44 82.65 57.07 82.28 56.61 82.28 56.15 82.28 55.78 82.65 55.78 83.11 55.78 83.57 56.15 83.94 56.61 83.94 57.06 83.94 57.44 83.57 57.44 83.11Z" fill="#BA7056"/><g><path d="M46.85 35.84C48.12 33.46 47.54 30.72 45.56 29.73 43.58 28.74 40.96 29.86 39.69 32.25 38.43 34.63 39.86 35.75 41.84 36.74 43.82 37.73 45.59 38.22 46.85 35.84Z" fill="#AF6345"/><path d="M58.27 41.58C59.54 39.2 59.05 36.51 57.18 35.57 55.31 34.63 52.77 35.8 51.51 38.18 50.25 40.56 51.59 41.63 53.46 42.57 55.32 43.51 57 43.96 58.27 41.58Z" fill="#AF6345"/><g><path d="M53.98 35.76 53.62 34.52 54.73 33.93 54.84 35.51Z" fill="#AF6345"/><path d="M55.88 35.8 56.18 34.5 57.4 34.53 56.73 36Z" fill="#AF6345"/><path d="M58.01 36.74 58.96 35.77 59.93 36.47 58.6 37.39Z" fill="#AF6345"/></g><g><path d="M42.78 29.77 42.54 28.48 43.7 28.01 43.66 29.6Z" fill="#AF6345"/><path d="M44.65 29.99 45.08 28.72 46.29 28.88 45.47 30.29Z" fill="#AF6345"/><path d="M46.67 31.15 47.7 30.29 48.59 31.08 47.18 31.86Z" fill="#AF6345"/></g><path d="M46.58 36.15C47.68 34.07 47.01 31.6 45.08 30.64 43.15 29.67 40.69 30.57 39.59 32.64 38.49 34.71 39.91 35.77 41.84 36.74 43.77 37.71 45.48 38.22 46.58 36.15Z" fill="#FFF9E9"/><path d="M58.22 41.99C59.32 39.92 58.65 37.45 56.72 36.48 54.79 35.51 52.34 36.41 51.23 38.48 50.13 40.55 51.55 41.61 53.48 42.58 55.41 43.56 57.12 44.07 58.22 41.99Z" fill="#FFF9E9"/><path d="M40.98 43.52C41.03 43.22 41.23 42.96 41.51 42.82 41.79 42.69 42.1 42.7 42.36 42.85L47.43 45.94C47.75 46.13 47.93 46.49 47.92 46.87 47.9 47.26 47.68 47.62 47.34 47.81 46.32 48.4 44.77 48.79 42.95 47.64 40.92 46.36 40.78 44.66 40.98 43.52Z" fill="#542C23"/><path d="M46.94 47.44C47.2 47.31 47.36 47.06 47.35 46.77 47.34 46.48 47.16 46.21 46.89 46.04L42.54 43.4C42.33 43.27 42.06 43.24 41.85 43.32 41.63 43.4 41.49 43.58 41.47 43.8 41.44 44.11 41.45 44.48 41.56 44.88L46.16 47.68C46.45 47.63 46.71 47.54 46.94 47.44Z" fill="#FFF5E9"/><path d="M46.01 36.39C46.51 35.46 46.21 34.36 45.35 33.93 44.49 33.5 43.4 33.9 42.9 34.84 42.41 35.77 42.7 36.87 43.56 37.3 44.43 37.73 45.52 37.32 46.01 36.39Z" fill="#5795AA"/><path d="M57.09 42.06C57.58 41.13 57.29 40.03 56.43 39.6 55.58 39.17 54.48 39.57 53.98 40.5 53.49 41.43 53.78 42.53 54.64 42.96 55.5 43.4 56.6 42.99 57.09 42.06Z" fill="#5795AA"/><path d="M56.21 41.62C56.42 41.22 56.3 40.74 55.92 40.56 55.55 40.37 55.08 40.55 54.87 40.95 54.66 41.35 54.78 41.83 55.15 42.01 55.53 42.2 56 42.02 56.21 41.62Z" fill="#7DC5D8"/><path d="M45.13 35.95C45.34 35.55 45.22 35.07 44.84 34.88 44.47 34.69 44 34.87 43.79 35.27 43.58 35.67 43.7 36.15 44.07 36.33 44.45 36.53 44.92 36.35 45.13 35.95Z" fill="#7DC5D8"/><g><path d="M61.88 37.06C61.34 34.66 59.15 33.4 58.56 33.35L58.83 32.19C59.9 32.28 62.31 33.91 62.9 36.58L61.88 37.06Z" fill="#AF6345"/></g><g><path d="M46.55 27.47C44.39 26.01 41.37 26.46 40.75 26.81L40.23 25.76C41.35 25.15 44.84 24.83 47.24 26.46L46.55 27.47Z" fill="#AF6345"/></g><path d="M46.97 39.91C46.93 39.95 46.89 39.99 46.86 40.03 46.51 40.61 46.98 41.54 47.92 42.12 48.4 42.41 48.9 42.55 49.33 42.55 48.91 42.99 47.96 42.96 47.1 42.43 46.16 41.86 45.69 40.92 46.05 40.34 46.21 40.06 46.56 39.92 46.97 39.91Z" fill="#F7A27C"/></g><g><path d="M96.31 135.16C93.34 133.72 89.39 136.02 89.39 136.02 89.39 136.02 90.05 132.28 86.43 131.7 82.8 131.13 79.18 134 79.18 134 79.18 134 81.82 130.83 77.86 129.97 73.9 129.1 70.28 132.27 70.28 132.27 70.28 132.27 71.93 129.1 68.63 127.95 65.33 126.79 61.38 130.25 61.38 130.25 61.38 130.25 62.04 127.08 58.74 125.92 55.44 124.77 52.48 132.26 52.48 132.26 52.48 132.26 52.15 128.51 47.54 129.09 42.92 129.67 43.58 135.43 43.58 135.43 39.95 135.43 39.29 140.62 40.28 143.78L99.28 144.36C100.27 141.21 99.28 136.6 96.31 135.16Z" fill="#996047"/><path d="M49.31 133.29C50.27 131.69 49.92 129.92 48.53 129.34 47.14 128.76 45.24 129.59 44.28 131.19 43.32 132.79 43.68 134.56 45.07 135.13 46.45 135.71 48.35 134.89 49.31 133.29Z" fill="#BA7056"/><path d="M59.21 129.45C59.96 128.17 59.67 126.76 58.57 126.3 57.47 125.84 55.96 126.51 55.21 127.79 54.46 129.07 54.75 130.48 55.85 130.94 56.96 131.39 58.46 130.73 59.21 129.45Z" fill="#BA7056"/><path d="M67.16 131.37C68.75 130.84 69.67 129.64 69.22 128.68 68.77 127.72 67.12 127.37 65.53 127.9 63.94 128.42 63.02 129.63 63.47 130.59 63.92 131.55 65.57 131.9 67.16 131.37Z" fill="#BA7056"/><path d="M76.28 133.4C77.87 132.87 78.79 131.67 78.34 130.71 77.89 129.76 76.24 129.4 74.65 129.93 73.06 130.46 72.14 131.66 72.59 132.62 73.04 133.58 74.69 133.93 76.28 133.4Z" fill="#BA7056"/><path d="M68.53 136.7C70.12 136.18 71.04 134.97 70.59 134.01 70.14 133.05 68.49 132.7 66.9 133.23 65.31 133.76 64.39 134.96 64.84 135.92 65.29 136.88 66.94 137.23 68.53 136.7Z" fill="#BA7056"/><path d="M58.48 136.45C60.07 135.92 60.99 134.72 60.54 133.76 60.09 132.8 58.44 132.45 56.85 132.98 55.26 133.5 54.34 134.71 54.79 135.67 55.25 136.63 56.9 136.98 58.48 136.45Z" fill="#BA7056"/><path d="M44.34 139.49C45.93 138.97 46.85 137.76 46.4 136.8 45.95 135.84 44.3 135.49 42.71 136.02 41.12 136.55 40.2 137.75 40.65 138.71 41.1 139.67 42.75 140.02 44.34 139.49Z" fill="#BA7056"/><path d="M85.71 135.18C87.3 134.65 88.22 133.45 87.77 132.49 87.32 131.54 85.67 131.18 84.08 131.71 82.49 132.24 81.57 133.44 82.02 134.4 82.47 135.36 84.12 135.71 85.71 135.18Z" fill="#BA7056"/><path d="M94.53 138.86C96.12 138.33 97.04 137.13 96.59 136.17 96.14 135.22 94.49 134.86 92.9 135.39 91.31 135.92 90.39 137.12 90.84 138.08 91.3 139.04 92.95 139.39 94.53 138.86Z" fill="#BA7056"/><path d="M84.34 140.89C85.93 140.36 86.85 139.16 86.4 138.2 85.95 137.24 84.3 136.89 82.71 137.42 81.12 137.94 80.2 139.15 80.65 140.11 81.1 141.07 82.76 141.42 84.34 140.89Z" fill="#BA7056"/><path d="M75.82 138.48C77.41 137.95 78.33 136.75 77.88 135.79 77.43 134.83 75.78 134.48 74.19 135.01 72.6 135.54 71.69 136.74 72.13 137.7 72.59 138.66 74.24 139.01 75.82 138.48Z" fill="#BA7056"/><path d="M69.13 141.53C70.72 141 71.64 139.8 71.19 138.84 70.74 137.88 69.09 137.53 67.5 138.06 65.91 138.59 64.99 139.79 65.44 140.75 65.89 141.7 67.54 142.05 69.13 141.53Z" fill="#BA7056"/><path d="M54.07 140.77C55.66 140.24 56.58 139.04 56.13 138.08 55.68 137.12 54.03 136.77 52.44 137.3 50.85 137.83 49.94 139.03 50.38 139.99 50.83 140.94 52.48 141.29 54.07 140.77Z" fill="#BA7056"/></g></svg>