<svg width="91.54" height="95.32" viewBox="0 0 91.54 95.32" xmlns="http://www.w3.org/2000/svg" xmlns:xlink="http://www.w3.org/1999/xlink" xml:space="preserve" overflow="hidden"><defs></defs><g><path d="M6.53 60.34C6.75 59.43 6.78 58.26 6.94 57.37 7.29 55.37 7.58 53.36 8.12 51.4 8.4 50.4 8.72 49.41 8.97 48.4 9.29 47.1 9.58 43.4 9.84 42 10.33 41.1 10.69 42.42 11.36 41.63 12.01 40.87 12.87 40.39 13.76 39.96 13.83 39.92 13.9 39.88 13.96 39.84 14.12 40.08 14.22 40.39 14.21 40.79 14.21 41.15 14.17 41.51 14.11 41.86 13.77 43.94 12.65 45.89 12.81 48.05 13.01 50.84 12.2 52.03 10.96 54.48 10.16 56.07 8.74 60.12 8.24 61.38 8.24 61.39 8.23 61.4 8.23 61.4 7.63 61.38 7.05 61.26 6.48 61.08 6.5 60.85 6.52 60.59 6.53 60.34Z" fill="#FFDCC0"/><path d="M14.12 41.87C13.78 43.95 12.66 45.9 12.82 48.06 13.02 50.85 12.21 52.04 10.97 54.49 10.17 56.08 8.75 60.13 8.25 61.39 8.19 60.14 8.63 58.84 8.98 57.68 9.39 56.31 9.9 54.97 10.39 53.63 10.87 52.29 11.4 50.99 11.62 49.58 11.84 48.2 11.93 46.8 12.16 45.41 12.25 44.86 12.37 44.31 12.66 43.83 12.78 43.62 12.92 43.42 13.03 43.2 13.04 43.18 13.05 43.16 13.06 43.14 12.86 42.46 13.5 41.86 14.12 41.87Z" fill="#F4C7A8"/><path d="M5.71 64.08C5.63 64.84 6.47 64.36 6.39 65.13 6.37 65.31 6.38 65.55 6.56 65.62 6.64 65.65 6.73 65.63 6.82 65.63 7.08 65.63 7.31 65.79 7.57 65.84 7.83 65.88 8.16 65.68 8.07 65.44 8.34 65.39 8.6 65.84 8.8 65.65 8.85 65.61 8.87 65.54 8.88 65.48 9.07 64.56 7.79 64.78 8.19 63.93 8.25 64.3 8.31 64.66 8.38 65.03 8.39 65.1 8.41 65.18 8.47 65.21 8.6 65.29 8.73 65.09 8.76 64.94 8.86 64.44 8.95 63.94 9.05 63.43 9.14 62.97 9.23 62.51 9.2 62.04 9.16 61.57 9 61.1 8.66 60.77 8.08 60.21 6.53 59.91 6.05 60.57 5.72 61.03 5.63 62.05 5.5 62.61 5.44 62.87 5.54 64.3 5.71 64.08Z" fill="#FFDCC0"/><path d="M41 92.6C41 91.1 33.22 89.88 23.62 89.88 14.02 89.88 6.24 91.1 6.24 92.6 6.24 94.1 14.02 95.32 23.62 95.32 33.22 95.32 41 94.1 41 92.6Z" fill="#F1F2F2"/><g><path d="M83.19 90.2C83.19 91.92 76.9 93.31 69.15 93.31 61.4 93.31 55.11 91.92 55.11 90.2 55.11 88.48 61.4 87.09 69.15 87.09 76.9 87.09 83.19 88.48 83.19 90.2Z" fill="#F1F2F2"/><g><path d="M88.62 53.72 88.47 56.23 88.28 59.42 86.57 87.48 86.48 88.88C86.38 88.95 86.27 89.02 86.15 89.08 85.6 89.38 84.81 89.66 83.82 89.92 83.6 89.98 83.37 90.03 83.13 90.08 82.77 90.16 82.39 90.24 82 90.31 81.66 90.37 81.3 90.43 80.93 90.49 80.74 90.52 80.56 90.55 80.37 90.57 80.18 90.6 79.98 90.62 79.79 90.65 79.14 90.73 78.46 90.81 77.75 90.87 77.52 90.89 77.28 90.91 77.04 90.93 75.91 91.02 74.71 91.08 73.48 91.11 72.26 91.14 71.08 91.11 69.96 91.04L69.96 91.04 69.96 91.04C69.24 91 68.54 90.94 67.88 90.86 67.66 90.83 67.44 90.81 67.22 90.78 66.84 90.73 66.48 90.68 66.12 90.62 65.76 90.56 65.42 90.5 65.09 90.43 64.74 90.36 64.4 90.28 64.07 90.2 62.41 89.79 61.16 89.29 60.49 88.78L60.4 87.35 58.7 59.66 58.5 56.45 58.36 54.19 60.79 54.15 64.34 54.1 64.34 54.1 67.19 54.06 73.53 53.96 79.77 53.86 82.65 53.82 88.62 53.72Z" fill="#8DC63F"/><path d="M88.47 56.23 88.27 59.42C86.77 59.77 84.82 60.08 82.54 60.3 81.66 60.39 80.74 60.46 79.78 60.53 77.84 60.66 75.73 60.74 73.53 60.76 73.51 60.76 73.48 60.76 73.46 60.76 71.26 60.78 69.14 60.73 67.19 60.63 66.24 60.58 65.33 60.52 64.46 60.45 62.16 60.26 60.19 59.98 58.68 59.65L58.48 56.44C59.99 56.07 62.01 55.75 64.36 55.52 65.25 55.43 66.2 55.35 67.18 55.29 69.13 55.16 71.24 55.08 73.45 55.06 73.47 55.06 73.5 55.06 73.52 55.06 75.72 55.04 77.82 55.09 79.77 55.19 80.76 55.24 81.72 55.31 82.62 55.38 84.97 55.6 86.97 55.88 88.47 56.23Z" fill="#80AF35"/><path d="M64.05 90.2C62.39 89.79 61.14 89.29 60.47 88.78L60.38 87.35 58.68 59.66 58.48 56.45 58.34 54.19 63.43 54.04C62.56 60.6 61.89 67.64 62.45 73.67 62.87 78.24 62.01 82.97 63.13 87.42 63.23 87.82 63.41 88.34 63.61 88.93 63.76 89.33 63.9 89.76 64.05 90.2Z" fill="#80AF35"/><path d="M83.51 53.09C80.63 52.92 77.17 52.91 73.46 53.08 69.74 53.26 66.3 53.6 63.44 54.04L55.5 54.42 55.59 56.78C55.65 58.35 63.75 59.24 73.68 58.77 83.61 58.3 91.61 56.64 91.54 55.07L91.45 52.71 83.51 53.09Z" fill="#8DC63F"/><path d="M91.45 52.71C91.51 54.28 83.52 55.94 73.59 56.41 63.66 56.88 55.56 56 55.5 54.42 55.44 52.84 63.43 51.19 73.36 50.72 83.29 50.25 91.39 51.14 91.45 52.71Z" fill="#B4E26A"/><path d="M78.12 52.53 77.08 52.58 77.02 50.98C77 50.48 76.09 49.96 74.89 50.02L71.08 50.21C69.89 50.27 69.02 50.88 69.04 51.38L69.1 52.98 68.06 53.03 68 51.43C67.95 50.23 69.29 49.23 71.04 49.14L74.85 48.95C76.6 48.86 78.01 49.73 78.06 50.93L78.12 52.53Z" fill="#80AF35"/></g><g><path d="M72.61 78.88 68.65 78.74 66.57 74.98 72.73 75.19Z" fill="#FFFFFF"/><path d="M71.77 73.01 70.81 74.51 66.59 74.37 68.75 70.84Z" fill="#FFFFFF"/><path d="M75.01 78.95 78.97 79.08 81.29 75.47 75.13 75.27Z" fill="#FFFFFF"/><path d="M76.23 73.16 77.1 74.71 81.31 74.85 79.39 71.19Z" fill="#FFFFFF"/><path d="M78.69 69.12 76.72 65.56 72.43 65.43 75.55 71.03Z" fill="#FFFFFF"/><path d="M72.76 71.22 74 69.38 71.95 65.7 69.8 69.12Z" fill="#FFFFFF"/><path d="M79.01 68.83 75 71.1 77.64 71.01Z" fill="#FFFFFF"/><path d="M72.05 73.38 68.28 70.73 70.9 71.08Z" fill="#FFFFFF"/><path d="M75.08 79.42 75.31 74.82 73.97 77.1Z" fill="#FFFFFF"/></g></g><path d="M25.43 71.49C25.34 71.95 25.16 72.39 25.02 72.84 24.56 74.35 24.65 75.96 24.68 77.54 24.73 80.8 24.5 84.07 23.99 87.31 23.1 87.75 21.98 87.08 21.57 86.21 21.17 85.35 21.25 84.36 21.21 83.42 21.19 82.93 21.13 82.44 21.05 81.95 20.82 80.42 20.43 78.89 20.49 77.35 20.58 75.39 21.38 73.49 21.29 71.54 21.21 69.85 20.44 68.23 20.47 66.55 20.47 66.45 20.47 66.36 20.48 66.28 20.51 65.82 20.61 65.36 20.9 64.99 21.64 64.07 23.14 64.25 24.34 64.53 24.51 64.56 24.69 64.63 24.76 64.76L25.09 64.64C25.2 66.42 25.31 68.2 25.42 69.98 25.49 70.48 25.52 70.99 25.43 71.49Z" fill="#FFDCC0"/><path d="M22.22 72.49C22.1 73.6 21.78 74.68 21.58 75.77 21.23 77.8 21.36 79.92 21.05 81.95 20.82 80.42 20.43 78.89 20.49 77.35 20.58 75.39 21.38 73.49 21.29 71.54 21.21 69.85 20.44 68.23 20.47 66.55 22.37 66.48 22.33 71.49 22.22 72.49Z" fill="#F4C7A8"/><path d="M18.16 70.86C18.17 71.39 18.18 71.91 18.05 72.42 17.92 72.89 17.7 73.33 17.52 73.78 16.91 75.3 16.92 76.97 16.86 78.6 16.73 81.97 16.29 85.33 15.54 88.61 14.53 89 13.3 88.22 12.91 87.3 12.5 86.38 12.65 85.37 12.66 84.39 12.67 82.93 12.34 81.47 12.23 80.01 12.17 79.36 12.15 78.72 12.21 78.07 12.41 76.06 13.42 74.17 13.43 72.15 13.43 70.31 12.59 68.48 12.82 66.66 12.87 66.34 12.94 66.04 13.08 65.75 13.16 65.61 13.25 65.48 13.37 65.36 14.25 64.46 15.92 64.77 17.25 65.15 17.43 65.2 17.64 65.29 17.71 65.42L18.09 65.32C18.11 67.16 18.13 69.01 18.16 70.86Z" fill="#FFDCC0"/><path d="M14.27 66.36C13.82 68.72 14.89 71.19 14.45 73.55 14.26 74.59 13.79 75.55 13.38 76.53 12.91 77.66 12.52 78.82 12.21 80.01 12.15 79.36 12.13 78.72 12.19 78.07 12.39 76.06 13.4 74.17 13.41 72.15 13.41 70.31 12.57 68.48 12.8 66.66 12.85 66.34 12.92 66.04 13.06 65.75 13.42 65.56 13.82 65.45 14.24 65.46 14.63 65.82 14.77 66.42 14.59 66.92L14.27 66.36Z" fill="#F4C7A8"/><path d="M42.6 43.23C40.95 42.62 37.7 41.46 36.31 40.77 34.43 39.83 33.29 39.14 31.62 38.96 29.81 38.33 27.92 37.95 26.07 37.46 25.35 37.27 24.63 37.1 23.89 37 23.23 36.91 22.48 36.85 21.84 37.1 21.03 37.42 20.87 38.2 21.1 38.95 21.1 39.07 21.11 39.2 21.14 39.32 21.2 39.63 21.34 39.93 21.53 40.18 21.65 40.34 21.8 40.48 21.97 40.59 24.33 42.14 27.55 42.13 30.22 42.79 31.23 43.04 32.22 43.36 33.22 43.63 35.37 44.22 37.63 44.31 39.76 44.88 40.5 45.08 41.19 45.45 41.92 45.68 42.08 45.73 42.23 45.78 42.39 45.83 42.79 45.96 43.19 46.11 43.59 46.25 43.23 45.24 42.91 44.24 42.6 43.23Z" fill="#FFDCC0"/><path d="M42.39 45.83C42.23 45.78 42.08 45.73 41.92 45.68 41.19 45.44 40.5 45.07 39.76 44.88 37.62 44.31 35.36 44.22 33.22 43.63 32.22 43.36 31.23 43.04 30.22 42.79 27.54 42.14 24.33 42.14 21.97 40.59 21.8 40.48 21.65 40.34 21.53 40.18 21.68 39.96 21.93 39.8 22.21 39.73 22.85 39.57 23.54 39.73 24.16 39.89 24.81 40.06 25.45 40.29 26.08 40.52 26.62 40.72 27.16 40.94 27.71 41.12 28.42 41.35 29.15 41.51 29.87 41.72 31.4 42.16 33.01 42.81 34.49 43.17 37 43.78 40.15 43.91 42.27 45.7 42.31 45.74 42.35 45.78 42.39 45.83Z" fill="#F4C7A8"/><path d="M27.45 37.03C27.15 38.75 26.85 40.46 26.55 42.18 26.48 42.57 26.41 42.96 26.34 43.35 25.99 43.13 25.64 42.92 25.29 42.69 24.24 42.04 23.18 41.38 22.12 40.72 22.03 40.67 21.94 40.6 21.88 40.51 21.83 40.41 21.84 40.3 21.85 40.2 21.91 39.49 21.77 35.42 22.23 35.62 23.94 36.36 26.6 36.76 27.45 37.03Z" fill="#662D91"/><path d="M18.75 67.98C18.81 65.97 18.94 63.86 19.19 61.38 19.76 61.48 19.45 61.47 20 61.31L20.01 61.31C20.11 63.78 20.28 65.93 20.43 67.98 22.09 67.94 23.75 67.76 25.41 67.45 25.27 63.46 25.25 59.6 25.3 54.61 25.3 54.72 16.65 55.28 15.87 55.34 15.28 55.38 14.22 55.15 13.58 55.39 13.45 55.44 13.35 55.5 13.26 55.58 12.6 56.22 12.82 58.37 12.74 59.24 12.52 61.86 12.31 64.49 12.12 67.12 14.36 67.62 16.56 67.92 18.75 67.98Z" fill="#F2C34C"/><path d="M24.96 56.03C23.97 55.71 22.9 55.89 21.87 56 19.1 56.31 16.27 56.11 13.59 55.39 13.46 55.44 13.36 55.5 13.27 55.58 12.61 56.22 12.83 58.37 12.75 59.24 12.53 61.86 12.32 64.49 12.13 67.12 12.52 67.21 12.91 67.29 13.29 67.36 13.29 67.34 13.29 67.31 13.3 67.29 13.45 66.19 13.88 63.35 13.91 63.01 13.76 62.8 13.72 59.61 14.06 58.33 14.3 57.44 26.56 56.45 24.96 56.03Z" fill="#EAB02F"/><path d="M20.44 67.98C20.76 67.97 21.08 67.96 21.41 67.94 21.23 65.19 20.95 62.44 20.53 59.71 20.53 60.38 20.29 60.81 20.01 61.3L20.02 61.3C20.12 63.78 20.28 65.93 20.44 67.98Z" fill="#EAB02F"/><path d="M20.82 34.56C20.4 32.9 19.89 31.25 19.57 29.56 19.32 29.29 19 29.1 18.66 29 18.21 28.8 17.68 28.79 17.22 28.95 17.22 28.95 17.21 28.95 17.21 28.95 16.22 29.1 15.52 29.93 15.61 30.95 15.7 32.02 16.26 35.42 16.31 35.81 16.37 35.89 16.42 35.97 16.49 36.04 16.54 36.09 16.64 36.17 16.68 36.23 16.68 36.23 16.68 36.23 16.68 36.23 16.82 36.35 16.97 36.47 17.13 36.57 17.15 36.58 17.24 36.64 17.3 36.67 17.33 36.69 17.37 36.7 17.38 36.71 17.56 36.8 17.74 36.87 17.93 36.93 18.01 36.96 18.11 36.98 18.19 37.01 18.17 37 18.14 36.99 18.12 36.98 17.99 36.95 17.84 36.87 18.12 36.98 18.13 36.98 18.13 36.98 18.14 36.98 18.31 37.01 18.49 37.04 18.66 37.05 18.69 37.05 18.77 37.05 18.83 37.06 18.85 37.06 18.87 37.06 18.88 37.06 19.05 37.05 19.22 37.02 19.39 36.99 19.58 36.89 19.61 36.91 19.55 36.94 19.56 36.94 19.58 36.93 19.59 36.93 19.67 36.9 19.75 36.87 19.83 36.83 19.86 36.82 19.98 36.75 20.03 36.72 20.03 36.72 20.03 36.72 20.04 36.72 20.12 36.66 20.2 36.6 20.28 36.53 20.3 36.52 20.32 36.5 20.33 36.48 20.34 36.46 20.38 36.41 20.44 36.37 20.52 36.27 20.65 35.98 20.75 35.93 20.8 35.83 20.85 35.72 20.89 35.61 20.93 35.51 20.96 35.41 21 35.32 21 35.31 21.01 35.3 21.01 35.29 21.01 35.28 21.01 35.27 21.02 35.25 20.94 35.03 20.88 34.8 20.82 34.56Z" fill="#F4C7A8"/><g><path d="M36.35 16.31C36.48 17.29 36.53 18.27 36.47 19.24 36.46 19.33 36.46 19.42 36.45 19.52 36.39 20.43 36.31 21.52 36.15 22.64 35.79 25.09 34.67 28.17 32.34 29.62 30.2 30.95 27.5 31.38 25 31.75 21.71 32.24 18.03 32.29 14.97 30.94 14.8 30.87 14.64 30.79 14.47 30.71 13.89 30.43 13.34 30.11 12.81 29.75 12.14 29.3 11.52 28.8 10.94 28.25 10.91 28.22 10.88 28.2 10.86 28.17 9.35 26.71 8.19 24.93 7.51 23.01 7.36 22.6 7.24 22.18 7.14 21.76 6.75 20.08 7.38 18.09 8.35 16.42 8.75 15.73 9.21 15.09 9.67 14.55 11.37 12.58 13.76 11.05 16.35 10 16.65 9.88 16.96 9.76 17.27 9.65 18.25 9.3 19.25 9.02 20.25 8.8 20.43 8.54 20.74 8.34 21.09 8.33 22.98 8.24 24.82 7.7 26.72 7.77 28.45 7.84 30.1 8.29 31.81 8.51 31.97 8.53 32.12 8.59 32.25 8.68 32.54 8.65 32.83 8.73 33.08 8.9 33.56 9.23 33.94 9.65 34.26 10.12 34.28 10.15 34.3 10.18 34.32 10.21 34.48 10.46 34.63 10.72 34.76 10.98 34.95 11.37 35.11 11.76 35.26 12.14 35.45 12.65 35.62 13.17 35.77 13.69 35.78 13.72 35.78 13.74 35.79 13.77 35.83 13.92 35.88 14.08 35.92 14.24 36.05 14.76 36.16 15.28 36.25 15.8 36.3 15.95 36.33 16.13 36.35 16.31Z" fill="#FFDCC0"/><g><path d="M15.69 22.1C15.68 22.11 15.68 22.13 15.67 22.16 15.67 22.2 15.72 22.15 15.78 21.94 15.78 21.95 15.77 21.95 15.77 21.96 15.74 22.02 15.71 22.07 15.69 22.1Z" fill="#F4C7A8"/><path d="M28.49 13.53C28.48 13.53 28.46 13.54 28.45 13.55 28.47 13.56 28.57 13.56 28.67 13.49 28.65 13.49 28.63 13.5 28.62 13.5 28.56 13.51 28.5 13.53 28.49 13.53Z" fill="#F4C7A8"/><path d="M35.81 13.75C34.41 14.38 32.8 14.66 31.31 14.35 30.47 14.17 29.7 13.82 28.9 13.51 28.9 13.51 28.89 13.51 28.89 13.51 28.88 13.51 28.88 13.51 28.88 13.51 28.85 13.51 28.76 13.5 28.7 13.49 28.69 13.49 28.68 13.49 28.67 13.49 28.67 13.49 28.68 13.49 28.68 13.48 28.68 13.48 28.67 13.48 28.67 13.48 28.65 13.49 28.64 13.49 28.62 13.5 28.6 13.5 28.57 13.51 28.55 13.51 28.46 13.52 28.44 13.54 28.46 13.55 28.32 13.6 28.19 13.66 28.06 13.72 27.42 14.02 26.83 14.39 26.18 14.66 25.31 15.02 24.43 15.16 23.5 15.15 22.62 15.15 21.81 15.04 20.97 14.79 20.9 14.77 20.83 14.75 20.77 14.72 20.54 15.04 20.29 15.34 20.02 15.63 19.48 16.21 18.91 16.69 18.28 17.11 18.16 18.49 17.44 19.73 16.59 20.86 16.39 21.13 16.18 21.4 15.98 21.67 15.92 21.76 15.86 21.85 15.8 21.94 15.8 21.93 15.81 21.92 15.81 21.9 15.8 21.92 15.8 21.94 15.78 21.96 15.77 21.98 15.75 22 15.74 22.02 15.7 22.09 15.68 22.14 15.68 22.16 15.66 22.23 15.63 22.32 15.61 22.38 15.59 22.51 15.57 22.64 15.56 22.77 15.56 22.81 15.56 22.85 15.55 22.89 15.59 22.99 15.56 23.35 15.56 23.45 15.6 24.3 15.69 25.17 15.55 26.01 15.47 26.52 15.32 27.03 15.16 27.53 15.02 27.68 14.87 27.83 14.73 27.98 14.59 28.13 14.44 28.28 14.3 28.42 14.28 28.44 14.25 28.47 14.22 28.5 14.14 28.58 14.06 28.65 13.99 28.73 13.62 29.09 13.23 29.42 12.82 29.74 12.15 29.29 11.53 28.79 10.95 28.24 11.04 27.76 11.19 27.29 11.33 26.82 11.39 26.62 11.46 26.42 11.52 26.22 11.54 26.14 11.57 26.06 11.59 25.98 11.67 25.62 11.72 25.28 11.75 24.91 11.75 24.83 11.75 24.74 11.74 24.66 11.73 24.47 11.72 24.28 11.71 24.09 11.65 23.03 11.65 22.02 11.97 21 12.21 20.23 12.72 19.54 13.19 18.9 13.4 18.61 13.62 18.33 13.83 18.04 13.92 17.92 14 17.79 14.08 17.67 14.11 17.62 14.15 17.55 14.16 17.53 14.23 17.39 14.28 17.25 14.34 17.1 14.35 17.06 14.36 17.02 14.37 16.98 14.38 16.93 14.38 16.89 14.39 16.84 14.35 16.69 14.36 16.44 14.34 16.32 14.17 15.45 14.78 14.66 15.5 14.28 15.62 14.22 15.74 14.15 15.86 14.09 15.86 14.09 15.87 14.09 15.87 14.08 16.06 13.95 16.26 13.82 16.44 13.68 16.61 13.55 16.77 13.41 16.93 13.27 16.97 13.23 17.01 13.18 17.05 13.14 17.65 12.47 18.14 11.71 18.65 10.97 19 10.47 19.6 10.23 20.19 10.23 20.83 10.23 21.26 10.5 21.69 10.94 21.33 10.57 21.72 10.88 21.86 11.01 21.9 11.03 21.94 11.05 21.98 11.07 22.07 11.11 22.16 11.14 22.24 11.17 22.3 11.18 22.38 11.21 22.41 11.21 22.49 11.23 22.57 11.24 22.65 11.25 22.81 11.27 22.97 11.29 23.13 11.3 23.23 11.31 23.33 11.31 23.43 11.32 23.48 11.32 23.53 11.32 23.56 11.32 23.63 11.32 23.71 11.31 23.78 11.31 23.96 11.3 24.13 11.26 24.3 11.23 24.3 11.23 24.31 11.23 24.31 11.22 24.39 11.19 24.47 11.16 24.56 11.13 24.7 11.07 24.84 11.01 24.98 10.95 25.27 10.81 25.55 10.66 25.84 10.51 26.52 10.15 27.19 9.86 27.95 9.69 28.85 9.49 29.78 9.72 30.62 10.04 30.96 10.17 31.28 10.32 31.62 10.45 31.7 10.48 31.78 10.51 31.86 10.54 31.9 10.56 31.92 10.57 31.94 10.58 32.06 10.59 32.19 10.59 32.26 10.6 32.32 10.61 32.4 10.63 32.48 10.63 32.5 10.62 32.52 10.62 32.55 10.62 32.74 10.6 32.94 10.59 33.13 10.56 33.3 10.53 33.47 10.49 33.64 10.46L33.64 10.46C33.69 10.45 33.73 10.43 33.78 10.42 33.96 10.36 34.13 10.29 34.3 10.21 34.46 10.46 34.61 10.72 34.74 10.98 34.93 11.37 35.09 11.76 35.24 12.14 35.43 12.65 35.6 13.17 35.75 13.69 35.8 13.7 35.8 13.73 35.81 13.75Z" fill="#F4C7A8"/></g><path d="M38.16 11.39C37.15 12.14 35.78 12.5 34.53 12.38 34.23 12.35 33.93 12.27 33.65 12.16 32.87 12.38 32.03 12.42 31.24 12.35 30.37 12.27 29.5 12 28.76 11.54 28.62 11.67 28.47 11.79 28.31 11.9 27.23 12.67 26 12.97 24.68 12.97 23.57 12.97 22.46 12.66 21.59 11.95 21.46 11.84 21.34 11.73 21.22 11.61 20.9 11.72 20.56 11.78 20.21 11.75 20.21 11.87 20.21 11.99 20.2 12.11 20.11 13.14 19.48 14 18.76 14.69 18.18 15.24 17.46 15.71 16.68 16.03 16.77 16.8 16.73 17.58 16.54 18.33 16.47 18.62 16.37 18.91 16.24 19.18 16.19 19.3 16.13 19.42 16.07 19.54 15.8 20.05 15.46 20.5 15.05 20.87 14.9 21.3 14.69 21.71 14.43 22.08 14.09 22.56 13.62 22.97 13.09 23.23 12.93 23.64 12.73 24.02 12.52 24.37 12.6 24.44 12.67 24.52 12.73 24.61 13.15 25.16 13.29 25.83 13.23 26.48 13.33 27.01 13.23 27.58 12.87 28.01 12.3 28.7 11.59 29.23 10.77 29.47 10.38 29.58 9.97 29.63 9.53 29.59 8.7 29.52 7.91 29.11 7.32 28.52 6.71 28.44 6.15 28.24 5.59 27.9 4.58 27.28 3.94 26.2 3.61 25.03 3.58 25.03 3.56 25.01 3.54 25 2.48 24.28 1.86 23.03 1.55 21.83 1.32 20.93 1.35 19.95 1.66 19.08 1.23 18.39 0.95 17.59 0.89 16.81 0.79 15.61 1.21 14.35 1.99 13.43 1.88 12.82 1.92 12.19 2.14 11.61 2.55 10.53 3.58 9.81 4.66 9.48 4.85 9.42 5.05 9.37 5.25 9.32 5.53 8.89 5.87 8.51 6.28 8.22 6.34 7.95 6.42 7.69 6.52 7.44 7.04 6.2 8.03 5.13 9.07 4.3 10.21 3.39 11.47 2.83 12.95 2.99 13.92 3.09 14.83 3.56 15.43 4.28 15.55 4.09 15.68 3.9 15.82 3.71 17.07 2.02 19.36 0.19 21.61 0.72 22.39 0.9 23.07 1.26 23.63 1.77 23.8 1.66 23.98 1.56 24.17 1.47 25.03 1.07 26.09 1.05 26.94 1.48 27.12 1.57 27.29 1.68 27.46 1.8 28.52 1.41 29.74 1.81 30.47 2.65 31.75 2.09 33.17 1.97 34.45 2.71 35.28 3.19 35.82 3.89 36.1 4.7 36.23 4.73 36.35 4.77 36.48 4.81 37.28 5.06 38.02 5.63 38.42 6.38 38.52 6.44 38.62 6.52 38.71 6.59 38.99 6.82 39.22 7.12 39.38 7.47 39.99 8.79 39.3 10.55 38.16 11.39Z" fill="#F15A29"/><g><g><path d="M39.38 7.46C39.22 7.11 38.99 6.81 38.71 6.58 38.71 6.6 38.7 6.62 38.7 6.64 38.67 6.71 38.66 6.79 38.64 6.86 38.55 7.13 38.45 7.39 38.33 7.65 38.27 7.77 38.22 7.89 38.15 8.01 38.13 8.05 38.11 8.09 38.08 8.13 37.93 8.36 37.78 8.59 37.61 8.8 37.53 8.91 37.44 9.01 37.35 9.11 37.32 9.14 37.29 9.17 37.26 9.2 37.08 9.35 36.91 9.5 36.72 9.64 36.71 9.65 36.67 9.68 36.62 9.71 36.62 9.71 36.62 9.71 36.61 9.71 36.56 9.74 36.51 9.77 36.47 9.8 36.5 9.78 36.52 9.76 36.54 9.74 36.44 9.79 36.33 9.84 36.23 9.88 36.21 9.89 36.17 9.9 36.13 9.91 36.04 9.92 35.94 9.94 35.85 9.95 35.84 9.95 35.83 9.95 35.82 9.95 35.72 9.82 35.61 9.69 35.51 9.56 34.52 8.26 33.02 7.39 31.35 7.59 30.54 7.69 29.84 8.01 29.25 8.49 27.77 7.81 25.78 7.98 24.21 8.79 23.85 8.55 23.47 8.35 23.09 8.19 22.23 7.84 21.2 7.63 20.29 7.84 19.78 7.95 19.29 8.18 18.88 8.51 18.43 8.51 17.98 8.59 17.53 8.76 16.19 9.27 15.26 10.61 15.38 12.05 15.39 12.15 15.38 12.37 15.41 12.51 15.4 12.56 15.38 12.62 15.37 12.67 15.36 12.69 15.36 12.7 15.35 12.72 15.33 12.78 15.3 12.84 15.27 12.9 15.28 12.89 15.28 12.89 15.28 12.88 15.27 12.89 15.27 12.89 15.26 12.9 15.25 12.92 15.24 12.95 15.23 12.97 15.12 13.22 15.17 13.04 15.24 12.93 15.19 13 15.13 13.1 15.11 13.13 15.08 13.17 14.99 13.25 14.97 13.28 14.91 13.33 14.84 13.39 14.77 13.43 14.77 13.43 14.77 13.43 14.77 13.43 14.79 13.42 14.82 13.41 14.84 13.4 14.81 13.41 14.78 13.42 14.75 13.43 14.69 13.47 14.63 13.5 14.6 13.5 14.51 13.55 14.43 13.6 14.34 13.63 14.23 13.67 14.13 13.71 14.02 13.75 13.99 13.76 13.95 13.77 13.9 13.79 13.94 13.78 13.98 13.77 14.03 13.76 13.43 13.92 12.98 14.15 12.66 14.71 12.35 15.25 12.31 15.84 12.54 16.43 12.56 16.48 12.58 16.53 12.6 16.59 12.62 16.71 12.66 16.83 12.68 16.94 12.69 17.02 12.68 17.12 12.69 17.2 12.69 17.22 12.69 17.24 12.69 17.25 12.68 17.41 12.64 17.57 12.6 17.73 12.59 17.76 12.59 17.8 12.58 17.84 12.57 17.87 12.57 17.91 12.56 17.94 12.56 17.92 12.57 17.9 12.57 17.88 12.57 17.9 12.56 17.92 12.55 17.94 12.52 18.03 12.49 18.13 12.45 18.22 12.07 19.26 11.59 20.26 11.41 21.37 11.21 22.65 11.61 23.8 11.73 25.05 11.73 25.06 11.73 25.07 11.73 25.08 11.7 25.28 11.69 25.48 11.65 25.68 11.62 25.85 11.58 26.03 11.54 26.2 11.53 26.23 11.52 26.3 11.5 26.38 11.5 26.38 11.5 26.37 11.5 26.37 11.35 27.09 11.05 27.79 10.86 28.49 10.77 28.83 10.7 29.14 10.73 29.46 11.55 29.22 12.26 28.69 12.83 28 13.18 27.57 13.29 27 13.19 26.47 13.26 25.82 13.11 25.15 12.69 24.6 12.62 24.51 12.55 24.43 12.48 24.36 12.7 24.01 12.9 23.62 13.05 23.22 13.58 22.95 14.05 22.55 14.39 22.07 14.47 21.96 14.54 21.84 14.61 21.72 14.61 21.71 14.61 21.71 14.62 21.7 14.65 21.65 14.68 21.59 14.71 21.54 14.83 21.32 14.93 21.09 15.01 20.86 15.42 20.49 15.76 20.04 16.03 19.53 16.09 19.41 16.15 19.29 16.2 19.17 16.29 18.87 16.36 18.56 16.42 18.26 16.42 18.26 16.42 18.27 16.43 18.27 16.45 18.29 16.48 18.3 16.5 18.32 16.69 17.57 16.73 16.79 16.64 16.02 17.42 15.7 18.14 15.24 18.72 14.68 19.44 13.99 20.07 13.13 20.16 12.1 20.17 11.98 20.17 11.86 20.17 11.74 20.52 11.76 20.86 11.71 21.18 11.6 21.3 11.72 21.42 11.83 21.55 11.94 22.42 12.65 23.53 12.96 24.64 12.96 25.95 12.96 27.18 12.66 28.27 11.89 28.43 11.78 28.58 11.66 28.72 11.53 29.47 11.98 30.34 12.26 31.2 12.34 31.99 12.41 32.83 12.37 33.61 12.15 33.89 12.27 34.19 12.34 34.49 12.37 35.74 12.49 37.11 12.13 38.12 11.38 39.3 10.55 39.99 8.79 39.38 7.46Z" fill="#E5461C"/></g><path d="M13.88 13.83C13.73 13.87 13.79 13.85 13.88 13.83L13.88 13.83Z" fill="#E5461C"/><path d="M12.62 17.75C12.64 17.63 12.63 17.58 12.59 17.9 12.59 17.89 12.6 17.88 12.6 17.87 12.61 17.82 12.61 17.79 12.62 17.75Z" fill="#E5461C"/><path d="M36.66 9.7C36.68 9.69 36.7 9.67 36.72 9.65 36.74 9.63 36.69 9.64 36.54 9.75 36.56 9.74 36.59 9.73 36.61 9.72 36.64 9.71 36.65 9.7 36.66 9.7Z" fill="#E5461C"/><path d="M14.78 13.45C14.61 13.51 14.58 13.54 14.62 13.53 14.67 13.5 14.72 13.48 14.77 13.46 14.78 13.45 14.78 13.45 14.78 13.45Z" fill="#E5461C"/><path d="M15.28 12.92C15.28 12.91 15.28 12.91 15.28 12.92 15.27 12.93 15.27 12.94 15.26 12.95 15.27 12.93 15.27 12.92 15.28 12.92Z" fill="#E5461C"/></g><path d="M10.18 22.55C11.1 21.1 12.87 21.67 14.22 21.96 14.32 21.98 14.41 22.01 14.49 22.04 14.45 22.95 14.66 23.89 14.94 24.74 15.09 25.19 15.27 25.64 15.47 26.07 14.8 26.3 14.02 26.38 13.32 26.36 12.42 26.34 11.44 26.23 10.71 25.63 9.85 24.91 9.56 23.53 10.18 22.55Z" fill="#F4C7A8"/><path d="M13.91 23.7C13.91 23.7 11.09 23.61 11.52 24.23 11.95 24.84 14.26 25.3 14.32 24.85 14.38 24.4 13.91 23.7 13.91 23.7Z" fill="#E5A980"/><path d="M20.4 23.03C20.44 23.98 21.65 24.71 23.1 24.66 24.56 24.6 25.71 23.79 25.67 22.83 25.63 21.88 24.42 21.15 22.97 21.2 21.52 21.25 20.36 22.08 20.4 23.03Z" fill="#FFB0B0"/><path d="M34.95 21.97C35.18 22.31 35.63 22.53 36.19 22.63 36.34 21.51 36.41 20.42 36.46 19.51 35.11 20.22 34.45 21.24 34.95 21.97Z" fill="#FFB0B0"/><path d="M34.65 16.23C35.12 16.08 35.81 16.11 36.36 16.3 36.34 16.12 36.31 15.94 36.28 15.77 36.17 15.74 36.05 15.72 35.94 15.7 35.45 15.62 34.92 15.6 34.45 15.76 34.14 15.86 34.34 16.33 34.65 16.23Z" fill="#603913"/><path d="M31.52 19.33C31.52 19.33 34.17 20.95 32.26 21.67L31.52 19.33Z" fill="#F4C7A8"/><path d="M25.61 17.42C25.08 17.4 24.55 17.56 24.08 17.78 23.62 17.99 23.13 18.28 22.86 18.71 22.68 19 23.1 19.33 23.28 19.04 23.69 18.39 24.78 17.92 25.54 17.95 25.88 17.97 25.96 17.44 25.61 17.42Z" fill="#603913"/><path d="M35.37 23.94C35.43 23.8 35.38 23.63 35.3 23.55 35.23 23.48 35.14 23.45 35.07 23.59 34.81 24.2 34.23 24.4 33.8 24.55 33.28 24.74 32.74 24.84 32.24 24.92 30.64 25.18 29.03 24.98 27.39 24.75 27.38 24.75 27.36 24.75 27.35 24.75 27.25 24.76 27.2 24.89 27.2 25.02 27.2 25.13 27.24 25.26 27.36 25.27 29.1 25.52 30.81 25.72 32.48 25.42 33 25.33 33.55 25.21 34.08 25 34.58 24.82 35.11 24.54 35.37 23.94Z" fill="#603913"/><path d="M26.46 19.72C26.18 19.45 25.78 19.27 25.43 19.24 24.99 19.2 24.55 19.47 24.28 19.8 24.07 20.05 23.72 20.82 24.08 21.09 24.22 21.19 24.45 21.15 24.45 20.95 24.45 20.42 24.77 19.9 25.33 19.84 26.08 19.77 26.11 20.39 26.46 20.82 26.69 21.1 26.8 20.7 26.81 20.51 26.83 20.2 26.68 19.93 26.46 19.72Z" fill="#231F20"/><path d="M36.35 18.89C36.34 18.87 36.33 18.84 36.33 18.82 36.12 18.15 35.59 17.55 34.95 17.75 34.66 17.84 34.35 18.08 34.16 18.4 34.01 18.65 33.93 18.94 33.98 19.24 34.02 19.43 34.18 19.8 34.32 19.49 34.55 19 34.47 18.38 35.12 18.33 35.6 18.29 35.95 18.75 36.04 19.27 36.07 19.45 36.25 19.47 36.35 19.37 36.46 19.25 36.4 19.04 36.35 18.89Z" fill="#231F20"/><path d="M17.88 0.28C16.84 0.68 16.06 1.52 15.4 2.39 14.93 3.02 14.13 4.05 14.49 4.89 14.64 5.24 15.18 5.01 15.03 4.66 14.9 4.35 15.11 3.96 15.25 3.69 15.44 3.33 15.68 2.99 15.92 2.67 16.48 1.94 17.13 1.23 17.99 0.87 19.52 0.21 22.46 0.62 22.46 2.74 22.46 3.12 23.04 3.04 23.04 2.66 23.05 0.17 19.73-0.44 17.88 0.28Z" fill="#F15A29"/><path d="M4.78 23.52C4.07 25.14 1.96 23.82 1.3 22.84 0.36 21.43 1.57 19.45 3.06 18.9 3.31 18.87 3.56 18.81 3.79 18.75 4.15 18.65 4.1 18.16 3.71 18.17 3.44 18.18 3.18 18.23 2.92 18.32 1.96 18.41 1 18.16 0.68 17.08 0.4 16.12 0.71 14.88 1.41 14.17 1.78 13.8 2.29 13.6 2.81 13.75 3.17 13.86 3.4 13.31 3.04 13.21 0.29 12.41-1.12 17.16 1.05 18.55 1.31 18.72 1.6 18.82 1.89 18.88 0.9 19.65 0.22 20.94 0.38 22.11 0.57 23.5 2.1 24.74 3.46 24.85 4.29 24.92 4.97 24.51 5.31 23.74 5.47 23.4 4.93 23.18 4.78 23.52Z" fill="#F15A29"/><path d="M35.16 1.45C34.23 0.89 33.25 0.75 32.28 1.28 31.39 1.77 30.68 2.55 29.71 2.89 29.35 3.02 29.58 3.56 29.94 3.43 30.75 3.14 31.39 2.57 32.09 2.09 32.9 1.53 33.69 1.33 34.6 1.8 35.41 2.22 36.09 2.86 35.91 3.84 35.75 4.71 35.21 5.51 34.83 6.29 34.66 6.63 35.21 6.86 35.37 6.52 35.8 5.64 36.42 4.73 36.52 3.74 36.62 2.71 35.99 1.96 35.16 1.45Z" fill="#F15A29"/></g><g><path d="M22.06 40.4C22.06 40.39 22.06 40.38 22.06 40.37 22.06 40.38 22.06 40.39 22.06 40.4Z" fill="#662D91"/><path d="M24.99 56.65C20.32 58.53 16.23 55.96 13.18 56.36 13.03 56.36 12.94 54.33 12.94 51.56 12.94 49.5 12.97 47.03 13.03 44.69 13.05 44.18 13.07 43.68 13.08 43.19 13.15 41.12 13.26 39.23 13.4 37.94 13.45 37.58 13.65 37.33 13.93 37.21 13.93 37.08 14.66 36.76 15.7 36.43 17.85 35.72 21.31 34.98 22.29 35.85 24.09 37.46 25.17 39.38 25.56 41.8 25.91 43.95 25.79 46.2 25.74 48.36 25.68 50.19 26.23 54.26 24.99 56.65Z" fill="#662D91"/><path d="M22.06 40.37C22.06 40.37 22.06 40.37 22.06 40.37 22.06 40.37 22.06 40.37 22.06 40.37Z" fill="#662D91"/></g><path d="M20.67 33.66C21.61 34.11 22.09 34.95 22.94 35.38 22.35 35.95 21.88 36.63 21.54 37.38 20.89 36.69 20.13 36.09 19.3 35.62 19.31 35.62 20.58 35.26 20.67 33.66Z" fill="#4E1F77"/><path d="M15.56 40.29C15.08 41.56 14.79 42.89 14.27 44.14 14.19 44.36 14.09 44.56 13.99 44.76 13.94 44.86 13.86 44.98 13.75 45 13.68 45.01 13.6 44.97 13.53 44.95 13.36 44.87 13.19 44.78 13.02 44.7 12.79 44.59 12.57 44.47 12.34 44.37 11.14 43.75 9.98 43.11 8.81 42.44 8.75 42.4 8.67 42.36 8.66 42.29 8.64 42.21 8.7 42.15 8.74 42.08 10.21 40.12 10.77 38.21 12.24 36.26 12.33 36.13 13.32 35.98 13.46 35.91 13.59 35.84 13.72 35.82 13.87 35.81 14.52 35.78 15.18 36.01 15.68 36.43L15.69 36.44C17.32 37.83 16.19 38.67 15.56 40.29Z" fill="#662D91"/><path d="M13.69 35.7C15.02 36.51 16.77 37.27 18.28 37.66 18.34 37.68 18.42 37.69 18.48 37.66 18.54 37.63 18.58 37.57 18.6 37.51 18.97 36.77 19.15 36.28 19.52 35.53 18.13 35.99 17.08 34.61 15.96 33.66 15.97 33.66 14.23 35.19 13.69 35.7Z" fill="#4E1F77"/><path d="M26.55 42.18C26.48 42.57 26.41 42.96 26.34 43.35 25.99 43.13 25.64 42.92 25.29 42.69 25 41.52 24.72 40.29 24.34 39.94 25.11 40.65 25.85 41.4 26.55 42.18Z" fill="#4E1F77"/><path d="M14.37 41.62C14.37 42.46 14.34 43.3 14.27 44.15 14.1 46.67 13.65 49.16 12.93 51.57 12.93 49.51 12.96 47.04 13.02 44.7 12.79 44.59 12.57 44.47 12.34 44.37 12.36 44.33 12.37 44.31 12.39 44.27 12.56 43.89 12.82 43.54 13.08 43.2 13.5 42.67 13.99 42.17 14.37 41.62Z" fill="#4E1F77"/><path d="M27.52 88.76C26.61 88.79 25.44 88.16 24.8 87.5 24.05 86.72 23.92 85.35 23.74 84.33 23.54 83.18 21.79 83.67 21.99 84.81 22.01 84.91 22.03 85.01 22.04 85.11 21.87 85 21.69 84.91 21.51 84.84 21.23 85.81 21.21 86.88 20.86 87.87 20.78 88.09 20.7 88.32 20.73 88.55 20.75 88.68 20.81 88.8 20.89 88.9 20.78 89.25 20.86 89.65 21.28 89.88 23.09 90.86 25.8 91.21 27.74 90.52 28.67 90.21 28.59 88.73 27.52 88.76Z" fill="#FFDCC0"/><path d="M29.75 88.65C29.41 88.45 28.85 88.38 28.35 88.43 28.21 88.37 27.19 87.9 26.78 87.91 26.33 87.92 25.94 88.21 25.82 88.64 25.75 88.9 25.53 89.78 25.51 89.97 24.9 90.02 24.27 89.98 23.68 89.86 22.43 89.59 21.32 88.98 20.44 88.22 19.93 89.02 19.71 90.11 20.53 90.72 20.95 91.03 21.54 91.13 22.11 91.21L24.99 91.63C25.91 91.77 26.85 91.9 27.79 91.81 28.72 91.72 29.66 91.36 30.15 90.71 30.62 90.06 30.51 89.09 29.75 88.65Z" fill="#47280E"/><path d="M19.88 89.44C18.79 89.47 17.39 88.84 16.63 88.18 15.73 87.4 15.58 86.03 15.36 85.01 15.12 83.86 13.03 84.35 13.27 85.49 13.29 85.59 13.31 85.69 13.34 85.79 13.14 85.68 12.93 85.59 12.71 85.52 12.38 86.49 12.35 87.56 11.94 88.55 11.85 88.77 11.74 89 11.79 89.23 11.81 89.36 11.89 89.48 11.98 89.58 11.85 89.93 11.94 90.33 12.45 90.56 14.61 91.54 17.85 91.89 20.17 91.2 21.26 90.89 21.16 89.41 19.88 89.44Z" fill="#FFDCC0"/><path d="M22.54 89.33C22.13 89.13 21.46 89.06 20.86 89.11 20.69 89.05 19.47 88.58 18.99 88.59 18.46 88.6 17.99 88.89 17.84 89.32 17.75 89.58 17.49 90.46 17.47 90.65 16.74 90.7 15.99 90.66 15.28 90.54 13.79 90.27 12.47 89.66 11.4 88.9 10.8 89.7 10.53 90.79 11.51 91.4 12.01 91.71 12.72 91.81 13.39 91.89L16.83 92.31C17.93 92.45 19.06 92.58 20.17 92.49 21.28 92.4 22.41 92.04 22.99 91.39 23.58 90.74 23.46 89.77 22.54 89.33Z" fill="#603913"/><path d="M41.44 44.72C41.48 44.33 41.59 43.89 41.51 43.63 41.44 43.41 40.49 43 41.38 42.78 41.74 42.69 42.59 43.16 42.93 43.3 44.29 43.88 45.6 44.78 46.58 45.89 46.63 45.94 46.65 46 46.66 46.05 46.72 46.14 46.78 46.24 46.83 46.34 47.08 46.84 47.07 47.37 46.83 47.72 47.1 48.17 47.21 48.69 46.69 48.98 46.4 49.15 46.11 49.05 45.84 48.87 45.6 49.05 45.26 49.13 44.86 49.08 44.05 48.97 43.34 48.42 42.86 47.75 42.28 46.95 41.64 46.2 41.44 45.16 41.42 45.04 41.42 44.88 41.44 44.72Z" fill="#FFDCC0"/><path d="M38.33 76.09C39.42 78.18 40.77 79.1 42.43 80.37 42.94 80.76 43.46 81.11 44 81.41 45.03 81.98 46.11 82.35 47.22 82.44 47.23 82.44 47.23 82.44 47.24 82.44 47.78 82.48 48.32 82.46 48.85 82.34 48.91 82.33 48.97 82.31 49.03 82.29 49.11 82.27 49.19 82.24 49.26 82.22 50.61 81.76 51.73 80.73 53.03 80.14 54.55 79.45 55.89 78.72 56.53 76.82 57.2 74.82 57.18 72.42 56.93 70.23 56.48 66.27 55.41 61.83 53.16 58.65 51.13 55.79 48.53 53.61 46.48 50.78 45.66 49.64 44.56 47.48 45.41 46.25 46.17 45.15 47.58 45.01 48.41 44.03 48.55 43.87 48.54 43.5 48.33 43.37 47.69 42.97 47.11 43.04 46.45 43.12 45.63 43.21 45.26 42.97 44.79 42.14 44.46 41.55 44.14 40.77 43.61 40.39 43.2 40.1 42.74 40.03 42.55 40.33 42.46 40.47 42.43 40.7 42.5 41.03 42.26 41.01 42.03 41.16 42.02 41.43 42.09 41.57 42.16 41.71 42.22 41.86 42.26 41.96 42.31 42.05 42.35 42.15 42.4 42.26 42.45 42.37 42.5 42.48 43.04 43.69 43.49 44.97 43.53 46.24 43.53 46.33 43.53 46.42 43.53 46.51 43.53 46.69 43.52 46.87 43.49 47.06 43.49 47.07 43.49 47.08 43.49 47.09 43.44 47.52 43.32 47.95 43.14 48.37 42.92 48.87 40.59 54.38 39.52 57.14 39.45 57.31 39.39 57.48 39.32 57.65 37.91 61.41 36.42 64.91 36.58 69.32 36.68 71.63 37.26 74.03 38.33 76.09Z" fill="#282828"/><path d="M42.97 44.86C43.29 45.2 43.77 45.33 44.22 45.41 44.57 45.47 44.54 46.07 44.19 46.11 43.62 46.18 44.07 47.22 44.29 47.5 44.58 47.87 44.05 48.37 43.76 48 43.39 47.53 43.04 46.52 43.3 45.9 42.98 45.78 42.78 45.56 42.68 45.23 42.51 44.69 42.65 44.52 42.97 44.86Z" fill="#F4C7A8"/><path d="M44.83 48.44C44.84 48.43 44.84 48.43 44.85 48.42 44.87 48.39 44.91 48.39 44.93 48.41 44.96 48.35 45.08 48.23 45.14 48.24 45.28 48.28 45.33 48.74 45.37 48.86 45.42 49.01 45.94 50.52 46.03 50.49 45.4 50.65 44.98 49.36 44.82 48.79 44.81 48.74 44.79 48.69 44.78 48.65 44.77 48.6 44.75 48.55 44.74 48.5 44.74 48.45 44.79 48.42 44.83 48.44Z" fill="#131D1E"/><path d="M38.33 76.09C39.42 78.18 40.77 79.1 42.43 80.37 42.94 80.76 43.46 81.11 44 81.41 45.03 81.98 46.11 82.35 47.22 82.44 47.23 82.44 47.23 82.44 47.24 82.44 47.78 82.48 48.32 82.46 48.85 82.34 48.91 82.33 48.97 82.31 49.03 82.29 49.11 82.27 49.19 82.24 49.26 82.22 48.28 81.71 47.32 81.16 46.42 80.37 44.22 78.44 42.37 75.91 41.22 72.96 39.25 67.92 39.62 62.88 41.11 58.13 41.18 57.9 41.26 57.67 41.33 57.43 41.35 57.38 41.36 57.33 41.37 57.3 41.38 57.27 41.4 57.23 41.41 57.18 41.55 56.8 41.69 56.42 41.83 56.04 42.5 54.29 43.19 52.53 43.67 50.68 44.2 48.66 44.43 46.5 44.1 44.32 43.88 42.82 43.31 41.47 42.52 40.32 42.43 40.46 42.4 40.69 42.47 41.02 42.23 41 42 41.15 41.99 41.42 42.06 41.56 42.13 41.7 42.19 41.85 42.23 41.95 42.28 42.04 42.32 42.14 42.37 42.25 42.42 42.36 42.47 42.47 43 43.66 43.46 44.94 43.5 46.23 43.5 46.32 43.5 46.41 43.5 46.5 43.5 46.68 43.49 46.86 43.46 47.05 43.46 47.06 43.46 47.07 43.46 47.08 43.41 47.51 43.29 47.94 43.11 48.36 42.89 48.86 40.56 54.37 39.49 57.13 39.42 57.3 39.36 57.47 39.29 57.64 37.88 61.4 36.39 64.9 36.55 69.31 36.68 71.63 37.26 74.03 38.33 76.09Z" fill="#131D1E"/><path d="M42.55 44.2C42.55 44.05 42.65 43.9 42.84 43.9 43.32 43.9 43.66 44.19 44.08 44.39 44.63 44.64 45.25 44.67 45.81 44.9 46.05 45 46.07 45.29 45.86 45.43 45.58 45.62 45.27 45.68 44.94 45.66 45.53 45.8 46.07 46.12 46.61 46.41 46.84 46.53 46.76 46.81 46.58 46.9 46.58 47 46.53 47.09 46.45 47.15 46.46 47.16 46.47 47.16 46.48 47.17 46.63 47.27 46.63 47.47 46.55 47.6 46.72 47.69 46.72 47.94 46.6 48.07 46.64 48.1 46.67 48.14 46.68 48.19 46.9 48.17 47.12 48.4 46.96 48.62 46.49 49.26 45.33 49.55 44.58 49.44 44.39 49.41 44.2 49.18 44.35 48.99 44.49 48.81 44.66 48.67 44.83 48.56 44.34 48.4 43.93 48.07 43.75 47.54 43.71 47.42 43.8 47.25 43.92 47.2 43.81 47.07 43.72 46.93 43.66 46.76 43.58 46.56 43.69 46.32 43.93 46.33 44 46.33 44.06 46.34 44.13 46.34 44.05 46.24 43.96 46.14 43.89 46.04 43.78 45.89 43.91 45.64 44.08 45.62 44.24 45.6 44.39 45.59 44.55 45.6 43.82 45.44 43.06 44.98 42.52 44.71 42.27 44.57 42.36 44.29 42.55 44.2Z" fill="#FFDCC0"/></g></svg>