<svg width="335.13" height="604.04" viewBox="0 0 335.13 604.04" xmlns="http://www.w3.org/2000/svg" xmlns:xlink="http://www.w3.org/1999/xlink" xml:space="preserve" overflow="hidden"><defs></defs><linearGradient x1="269.025" y1="78.1137" x2="260.672" y2="110.659" gradientUnits="userSpaceOnUse" id="SVGID_1_" gradientTransform="matrix(-0.9944 0.1055 0.1055 0.9944 475.719 72.4016)"><stop offset="0.2206" stop-color="#FCE8D9"/><stop offset="1" stop-color="#F4C7BD"/></linearGradient><g id="g217485_1_" transform="matrix(1.06711 0 0 1.06711 -428.251 394.463)"><g id="path203509_1_"><path d="M656.11 76 572.11 83.84C572.11 83.84 577.11 106.8 577.11 112.71 577.11 115.01 579.36 119.39 582.29 123.98L568.21 126.87 521.1 116.57C489.03 195.38 560.75 187.49 627.05 194.04 656.5 194.37 684.78 197.61 702.87 183.41 725.57 162 714.99 131.36 690.11 124.77L656.11 76Z" fill="#39525B"/></g><g id="path203739_1_"><path d="M450.38 119.06C450.38 119.06 416.48 110.6 411.85 112.4 399.2 120.17 398.13 176.75 407.67 186.35 413.48 190.23 431.72 188.89 436.96 184.34 442.2 179.79 437.73 152.06 437.73 152.06L444.74 153.25 450.38 119.06Z" fill="#FBB383"/></g><g id="path210510_1_"><path d="M417.91 138.8C417.91 138.8 418.33 149.98 430.97 151.61 431.98 157.97 433.39 166.8 432.99 173.13 417.79 178.06 409.07 176.67 401.66 159.51 401.9 171.04 403.36 183.47 407.67 186.35 413.15 190.01 429.68 189.02 435.94 185.09L435.94 185.09C442.93 178.39 438.27 160.91 437.73 152.07L444.74 153.26 446.24 144.14 417.91 138.8Z" fill="#FB8D52"/></g><g id="path201204_1_"><path d="M492.94 76.6C471.99 140.65 511.89 156.94 570.88 164.51 586.18 165.28 618.37 132.09 614.54 126.95 610.71 121.81 577.58 108.34 577.58 108.34L562.35 79.56 492.94 76.6Z" fill="#39525B"/></g><g id="path203427_1_"><path d="M495.69 126.88 448.58 116.58C416.51 195.38 488.23 187.5 554.53 194.05 583.98 194.38 612.26 197.62 630.35 183.42 648.44 169.22 643.93 141.41 632.57 132.61 621.22 123.81 576.81 110.26 576.81 110.26L495.69 126.88Z" fill="#39525B"/></g><g id="path208502_1_"><path d="M583.25 196.37C581.67 196.33 578.98 196.85 578.92 194.56 578.93 193.57 579.7 192.78 580.72 192.79 609.87 194.79 641.77 184.89 640.74 157.01 640.71 147.52 636.99 138.28 631.48 134.01 626.26 129.96 612.07 123.89 591.53 116.91 589.34 116.22 590.49 112.74 592.68 113.53 607.47 118.56 626.58 125.7 633.66 131.19 640.09 136.18 644.27 146.31 644.3 157 643.45 189.46 613.92 196.86 583.25 196.37Z" fill="#27383E"/></g><g id="path205987_1_"><path d="M563.15 165.46C498.15 155.27 473.4 133.99 491.25 76.06 490.13 73.21 523.82 76.74 524.52 76.16 526.83 76.24 526.68 79.85 524.37 79.73 524.37 79.73 494.27 78.45 494.27 78.45 477.91 134.35 501.74 151.61 563.41 161.92 565.53 162.17 565.3 165.52 563.15 165.46Z" fill="#27383E"/></g><g id="path198754_1_"><path d="M647.08 86.38C647.08 86.38 641 104.92 644.05 114.41 647.1 123.89 662.5 132.7 666.4 130.57 670.3 128.44 658.96 111.5 658.96 111.5L662.31 88.84 647.08 86.38Z" fill="#FBB383"/></g><g id="path74951-75_1_"><path d="M575.57 141.78C572.39 142.56 570.14 138.54 574.04 138.11 581.38 138.94 589.87 133.25 594.64 130.59 605.54 131.36 580.16 142.96 575.57 141.78Z" fill="#27383E"/></g><g id="path27049-3_1_"><path d="M579.86-134.71C469.82-127.19 496.37 18.33 486.53 79.75 509.52 90.42 632.49 95.3 660.54 84.65 659.53 25.77 659.11-25.85 643.43-94.48 629.05-116.43 598.85-133.36 579.86-134.71Z" fill="#83BACE"/></g><g id="path201012_1_"><path d="M658.52 119.1C658.52 119.1 667 128.19 674.43 130.89 685.05 134.76 705.66 137.21 699.72 122.39 699.06 119.34 680.63 93.43 675.84 91.16 671.05 88.89 654.34 93.3 654.34 93.3L658.52 119.1Z" fill="#FBB383"/></g><g id="path52931-5_1_"><path d="M579.86-134.71C574.46-134.69 566.12-133.42 556.94-130.35 552.23-122.78 553.91-110.63 578.42-103.74L592.89-90.62 600-106.1C600-106.1 612.4-109.83 610.74-123.85 597.18-130.55 588.55-134.37 579.86-134.71Z" fill="#567A88"/></g><g id="path24012-6_1_"><path d="M565.35-145.12 565.09-123.44C569.45-118.73 595.16-102.85 601.38-120.12 601.38-120.12 598.72-139.2 598.72-139.2L565.35-145.12Z" fill="#FB8D52"/></g><g id="rect59643-7_1_"><path d="M629.66 30.09C626.92 29.88 625.33 33.36 624.05 35.27 622.75 37.29 623.33 39.96 625.34 41.26 625.39 41.29 659.91 63.57 659.97 63.59L659.56 48.51C658.63 48.15 630.18 28.79 629.66 30.09L629.66 30.09ZM556 30.61C555.17 30.59 554.32 30.82 553.56 31.31L518.99 53.61C515.25 55.94 517.77 60.2 519.76 62.79 521.06 64.81 523.73 65.38 525.75 64.08L560.32 41.78C562.34 40.48 562.91 37.81 561.61 35.79 560.3 33.89 558.76 30.38 556 30.61L556 30.61Z" fill="#567A88"/></g><g id="path192259_1_"><path d="M571.59 87.7C579.06 95.01 641.38 129.3 607.96 142.22 603.86 144.14 579.38 136.72 571.36 132.79 563.34 128.86 551.81 104.21 551.81 104.21L571.59 87.7Z" fill="#FBB383"/></g><g id="path210307_1_"><path d="M605.85 144.28C596.8 143.71 560.83 135.67 563.65 124.99 564.43 124.39 565.55 124.54 566.15 125.33 569.08 129.17 571.03 130.63 572.14 131.18 580.72 135.39 604.18 142.01 607.2 140.6 638.27 129.95 576.29 95.12 570.53 89.14 568.66 87.8 570.82 84.86 572.66 86.28 572.82 86.4 588.62 98.19 595.6 102.7 609.62 113.22 635.94 136.98 605.85 144.28Z" fill="#FB8D52"/></g><g id="path190043_1_"><path d="M526.15-112.58C486-90.23 470.58-31.88 470.32 13.91 470.2 34.52 471.06 37.07 482.94 51.77 494.82 66.47 548.13 112.08 548.13 112.08 548.13 112.08 572.48 95.57 576.62 86.17 561.38 70.05 514.42 17.86 514.42 17.86 515.11 0.71 557.85-98.38 526.15-112.58L526.15-112.58Z" fill="#83BACE"/></g><g id="path209880_1_"><path d="M664.86 132.68C637.64 126.19 639.04 105.32 645.24 86.28 645.9 84.08 649.37 85.13 648.65 87.34 648.07 89.19 643.1 105.62 645.75 113.86 647.92 120.39 658.32 128.93 665.43 129.05 665.91 127.25 662.27 119.65 657.48 112.49 656.93 111.67 657.15 110.56 657.97 110.01 658.79 109.46 659.9 109.68 660.45 110.5 662.61 114.44 675.43 131.54 664.86 132.68Z" fill="#FB8D52"/></g><g id="path195022_1_"><path d="M642.08-96.17C648.47-79.65 649.13-59.83 652.81-42.26 654.33-32.82 657.01-15.22 658.05-8.05 658.05-8.05 659.31 38.89 659.31 38.89L658.52 39.17C658.86 39.43 641.64 86.91 641.69 87.18 645.35 89.53 663.21 101.18 682.73 93.43 682.06 44.65 679.16-65.37 642.08-96.17L642.08-96.17Z" fill="#83BACE"/></g><g id="path209161_1_"><path d="M548.13 113.86C544.21 112.09 494.63 68.14 481.55 52.89 480.64 51.98 479.64 50.38 480.99 49.35 482.3 48.28 483.61 49.54 484.32 50.65 495.05 63.93 540.73 103.37 548.24 109.83 552.81 106.64 570 94.3 574.46 86.48 558.54 69.56 513.55 19.57 513.09 19.05 511.47 16.12 530.37-46.44 533.02-60.96 544.44-74.64 514.26 19.74 516.39 17.38 522.09 23.71 563.83 70.04 577.92 84.94 578.41 85.46 578.55 86.23 578.26 86.89 573.31 97.03 550.1 113.45 548.13 113.86Z" fill="#567A88"/></g><g id="path209520_1_"><path d="M669.14 97.86C654.69 97.7 644.2 90.94 640.71 88.67 640.03 88.22 639.74 87.36 640.01 86.59L656.74 39.28C656.7 38.66 656.99 38.07 657.49 37.72L656.26-7.89C654.15-22.29 650.88-43.43 648.25-59.05 647.84-61.31 651.42-61.95 651.77-59.64 654.34-44.32 657.83-21.97 659.82-8.09 659.82-8.09 661.08 38.85 661.08 38.85 661.1 39.55 660.71 40.19 660.09 40.5L643.83 86.47C648.27 89.31 665.08 98.77 682.05 91.8L682.71 93.41C682.72 93.41 684.5 93.41 684.51 93.41 682.44 97.66 672.95 97.48 669.14 97.86ZM680.96 93.33 682.29 93.41 680.96 93.33Z" fill="#567A88"/></g></g><path d="M281.05 185.92C281.7 193.55 281.66 201.27 280.51 209.03 277.24 231.04 264.4 251.48 247.74 260.63 237.26 266.39 225.86 267.76 214.73 268.4 186.64 270.01 157.95 267.27 132.53 254.21 113.48 244.42 91.02 220.83 89.6 192.71 88.62 173.38 97.3 154.59 105.66 137.3 120.29 107.05 136.43 75 161.65 59.27 186.23 43.94 213.34 46.7 234.41 64.42 259.25 85.31 266.32 116.36 274.63 150.93 277.35 162.3 280.04 174.01 281.05 185.92Z" fill="#F9B799"/><g><path d="M165.53 149.33C172.69 144.66 181.54 147.81 186.54 154.82 191.75 162.13 193.35 172.55 194.02 182.61 194.06 183.2 194.09 183.85 193.81 184.36 193.48 184.99 192.82 185.2 192.24 185.33 182.06 187.74 171.6 187.01 162.1 183.22 155.13 180.44 152.21 175.64 152.15 170.34 152.06 162.92 157.61 154.5 165.53 149.33Z" fill="#FFFFFF"/><g><path d="M181.47 185.39C185.42 181.42 186.11 174.12 183 169.09 179.89 164.06 174.17 163.2 170.22 167.17 166.27 171.14 165.58 178.44 168.69 183.47 171.8 188.5 177.52 189.36 181.47 185.39Z" fill="#8C7257"/><path d="M178.92 183.91C180.34 182.48 180.59 179.85 179.47 178.04 178.35 176.23 176.29 175.92 174.87 177.35 173.45 178.78 173.2 181.41 174.32 183.22 175.44 185.03 177.5 185.34 178.92 183.91Z" fill="#3A3129"/><path d="M171.32 181.85C171.26 181.89 171.19 181.94 171.16 182.02 171.1 182.18 171.19 182.36 171.28 182.5 171.58 182.95 171.92 183.36 172.34 183.61 172.76 183.86 173.25 183.95 173.68 183.74 174.08 183.55 174.39 183.12 174.66 182.7 174.97 182.21 176.99 178.51 175.62 178.79 174.96 178.93 174.07 179.88 173.48 180.3 172.76 180.82 172.04 181.33 171.32 181.85Z" fill="#FFFFFF" opacity="0.2"/></g><g><path d="M152.09 170.36C151.97 168.7 152.14 167.02 152.53 165.39 152.91 163.76 153.48 162.16 154.22 160.65 155.72 157.63 157.76 154.89 160.15 152.51 160.73 151.9 161.37 151.34 162 150.77 162.66 150.24 163.31 149.69 164.01 149.22 165.33 148.21 166.96 147.31 168.63 146.78 172.01 145.63 175.78 145.97 179.02 147.31 180.64 147.99 182.13 148.94 183.47 150.05 184.81 151.15 186.03 152.41 187.04 153.81 188.05 155.2 188.94 156.66 189.67 158.2 190.06 158.95 190.37 159.74 190.7 160.52 190.98 161.32 191.28 162.1 191.51 162.91 192.51 166.12 193.13 169.41 193.55 172.7 193.9 176 194.1 179.31 194.1 182.61L193.98 182.62C193.5 176.06 192.74 169.46 190.62 163.21 190.09 161.65 189.47 160.13 188.73 158.66 188.01 157.18 187.14 155.78 186.16 154.47 185.19 153.15 184.03 151.97 182.75 150.95 181.48 149.93 180.07 149.05 178.56 148.43 175.56 147.16 172.11 146.81 168.98 147.84 167.42 148.33 165.96 149.1 164.64 150.08 163.3 151.02 162.01 152.06 160.83 153.19 158.44 155.44 156.37 158.05 154.81 160.94 153.24 163.82 152.24 167.05 152.23 170.34L152.09 170.36Z" fill="#5E5149"/></g></g><g><path d="M258.11 152.51C252.47 147.62 244.39 149.98 239.2 156.25 233.78 162.78 231.12 172.49 229.3 181.93 229.19 182.48 229.09 183.09 229.27 183.6 229.48 184.22 230.02 184.46 230.51 184.63 239.06 187.6 248.22 187.63 256.94 184.71 263.33 182.57 266.46 178.25 267.16 173.25 268.14 166.24 264.36 157.93 258.11 152.51Z" fill="#FFFFFF"/><g><path d="M267.11 173.24C267.49 170.23 267.07 167.15 266.06 164.3 265.08 161.44 263.56 158.76 261.69 156.39 260.75 155.2 259.73 154.08 258.6 153.07 257.49 152.05 256.25 151.14 254.82 150.64 251.98 149.57 248.77 149.92 246.02 151.11 243.26 152.34 240.85 154.3 238.98 156.67 237.08 159.03 235.6 161.7 234.38 164.47 231.95 170.04 230.53 175.98 229.36 181.93L229.26 181.91C229.65 178.89 230.22 175.9 230.89 172.92 231.63 169.96 232.51 167.02 233.67 164.16 234.82 161.3 236.34 158.56 238.27 156.1 240.2 153.62 242.7 151.52 245.62 150.19 248.56 148.94 252.05 148.59 255.14 149.78 256.69 150.33 258.05 151.36 259.18 152.42 260.34 153.47 261.37 154.65 262.3 155.9 264.16 158.39 265.64 161.17 266.56 164.12 267.45 167.07 267.79 170.24 267.21 173.24L267.11 173.24Z" fill="#5E5149"/></g><g><path d="M255.66 184.5C259.74 180.38 260.66 173.22 257.73 168.52 254.8 163.82 249.12 163.35 245.04 167.47 240.96 171.59 240.04 178.75 242.97 183.45 245.9 188.16 251.58 188.63 255.66 184.5Z" fill="#8C7257"/><path d="M253.04 183.59C254.51 182.1 254.84 179.53 253.79 177.83 252.73 176.14 250.69 175.97 249.22 177.45 247.75 178.94 247.42 181.51 248.47 183.21 249.53 184.9 251.57 185.07 253.04 183.59Z" fill="#3A3129"/><path d="M245.65 181.71C245.59 181.76 245.52 181.81 245.48 181.89 245.41 182.05 245.5 182.22 245.58 182.35 245.86 182.77 246.19 183.15 246.6 183.37 247.01 183.59 247.5 183.64 247.94 183.41 248.35 183.19 248.67 182.76 248.95 182.33 249.28 181.83 251.42 178.1 250.04 178.46 249.37 178.64 248.46 179.63 247.86 180.07 247.12 180.62 246.38 181.16 245.65 181.71Z" fill="#FFFFFF" opacity="0.2"/></g></g><path d="M228.35 193.67C230.25 196 232.91 198.32 232.51 201.79 232.3 203.64 231.18 205.26 229.86 206.22 228.54 207.18 227.03 207.57 225.55 207.8 223.74 208.09 221.84 208.15 220.3 207.14 217.84 205.54 216.95 201.7 216.9 198.13 216.82 192.11 218.65 184.74 222.39 180.38 224.53 184.72 225.36 190.02 228.35 193.67Z" fill="url(#SVGID_1_)"/><path d="M228.75 200.96C230.4 201.78 232.29 201.5 234.05 201.01 235.49 200.61 236.94 200.05 238.15 198.94 239.35 197.83 240.28 196.09 240.28 194.23 238.89 195.98 236.76 197.07 234.94 197.97 232.92 198.96 230.75 199.98 228.75 200.96Z" opacity="0.07"/><path d="M190.05 131.73C180.85 137.76 171 142 160.98 144.25 147.51 147.28 134.09 149.07 129.51 168.97 127.76 176.57 128.65 184.8 131.89 191.07 128.08 183.59 124.99 174.43 125.98 165.23 126.97 156.03 131.57 146.84 138.42 142.75 143.91 139.48 150.05 139.7 155.94 139.48 167.69 139.04 178.61 136.2 190.05 131.73Z" opacity="0.15"/><path d="M251.18 95.5C250.74 98.09 259.95 111.55 261.24 114.67 263.99 121.33 266.73 128.69 267.97 136.19 270.4 150.92 272.75 166.61 271.58 182.15 276.17 162.08 281.3 140.93 278.07 121.23 277.47 117.54 276.54 113.83 274.55 111.12 272.74 108.66 270.21 107.23 267.74 105.86 262.33 102.85 256.59 98.51 251.18 95.5Z" opacity="0.15"/><g><path d="M161.83 126.87C164.05 124.58 166.7 122.66 169.59 121.16 172.5 119.66 175.73 118.75 179.05 118.43 182.35 118.1 185.89 118.22 189.03 119.63 189.79 120.04 190.55 120.37 191.29 120.84 192.01 121.33 192.74 121.83 193.35 122.49 194.62 123.74 195.5 125.47 195.51 127.17L195.19 127.27C193.33 124.6 190.7 123.7 187.84 122.81 186.42 122.44 185.04 121.99 183.59 121.7 182.88 121.5 182.14 121.42 181.41 121.29 180.67 121.23 179.93 121.15 179.18 121.14 177.68 121.14 176.17 121.27 174.68 121.55 173.93 121.66 173.19 121.87 172.45 122.03 171.73 122.26 170.97 122.44 170.26 122.73 167.35 123.74 164.6 125.28 162.05 127.14L161.83 126.87Z" fill="#BC5D1D"/></g><path d="M218.85 49.35C220.57 43.84 216.55 38.22 212.02 37.54 207.49 36.86 202.9 39.53 198.62 42.13 191.4 46.51 184.18 50.89 176.97 55.27 178.2 48.44 180.08 41.74 182.54 35.33 169.54 31.69 155.8 40.52 143.52 49.04 145.42 40.11 151.3 32.73 157.99 28.52 164.68 24.31 172.12 22.89 179.38 22.35 190.65 21.52 201.88 22.7 212.64 25.81 216.17 26.83 219.95 27.01 221.41 31.35 223.28 36.97 220.52 44.01 218.85 49.35Z" fill="#FFFFFF" opacity="0.1"/><path d="M275.05 54.96C280.86 57.37 285.75 62.56 288.56 69.29 291.37 76.02 292.07 84.23 290.5 91.98 287.95 84.56 284.5 77.69 280.31 71.66 279.84 75.73 279.93 79.84 280.59 83.76 275.9 83.83 271.97 80.06 268.97 75.85 263.3 67.89 261.81 49.46 275.05 54.96Z" fill="#FFFFFF" opacity="0.1"/><path d="M111.73 137.03C111.25 136.51 110.71 136.07 110.07 135.76 106.18 133.87 104.26 136.24 101.94 140.47 99.18 145.48 97.64 152.32 96.7 159.06 95.15 163.16 94.31 167.74 94.53 171.73 94.63 173.49 94.94 175.23 95.37 176.92 95.28 183.76 95.75 190.75 96.2 197.64 92.99 194.1 89.34 191.69 85.21 190.02 83.27 185.17 80.73 180.74 78.82 175.85 73.04 161 73.96 142.96 76.08 125.92 77.94 110.97 80.29 95.49 84.26 80.96 86.79 71.67 92.06 64.33 96.94 56.49 106.98 40.32 120.47 28 135 19.17 163.82 1.65 197.95-4.18 227.96 3 244.71 7 261.71 13.21 265.7 34.91 281.87 31.24 294.16 50.96 300.78 68.78 307.41 86.6 306.58 108.11 302.74 128.17 298.69 149.29 290.05 171.64 274.21 181.31 275.39 165.76 273.03 150.07 270.6 135.35 269.37 127.86 266.62 120.49 263.87 113.83 262.58 110.71 253.37 97.25 253.81 94.66 251.71 107.04 248.27 116.61 241.76 124.81 236.35 121.36 229.39 120.86 223.01 122.96 220.8 123.69 218.69 124.95 216.66 126.42 214.63 126.53 212.74 126.97 210.97 127.68 206.93 126.59 202.68 126.84 198.89 129.09 196.63 130.44 194.28 131.77 192.05 133.31 192.27 132.51 192.5 131.71 192.68 130.89 183.48 136.92 173.63 141.16 163.61 143.41 161.18 143.96 158.75 144.46 156.38 145.05 152.81 142.97 148.73 141.99 144.65 142.52 142.96 142.74 141.27 142.79 139.59 142.9 138.77 142.83 137.94 142.8 137.12 142.7 136.43 142.62 135.74 142.48 135.05 142.37 129.51 135.52 120.76 133.23 112.26 136.73 112.08 136.79 111.92 136.94 111.73 137.03Z" fill="#110802"/><g id="path8693_1_"><path d="M212.99 235.97C207.41 235.38 196.71 237.02 196.83 232.21 197.15 231.21 198.22 230.66 199.22 230.98 205.18 232.89 222.61 232.1 229.65 231.45 230.69 231.36 231.62 232.12 231.72 233.17 231.56 237.17 220.06 235.25 212.99 235.97Z" fill="#FB8D52"/></g></svg>