<svg width="64.61" height="71.62" viewBox="0 0 64.61 71.62" xmlns="http://www.w3.org/2000/svg" xmlns:xlink="http://www.w3.org/1999/xlink" xml:space="preserve" overflow="hidden"><defs></defs><radialGradient cx="373.68" cy="-1551.01" r="40.9661" gradientUnits="userSpaceOnUse" id="SVGID_1_" gradientTransform="matrix(0.7339 -0.0086 0.0424 0.0591 -176.733 164.05)"><stop offset="0" stop-color="#333333"/><stop offset="0.1983" stop-color="#6E6E6E"/><stop offset="0.3965" stop-color="#A2A2A2"/><stop offset="0.5814" stop-color="#CACACA"/><stop offset="0.7492" stop-color="#E7E7E7"/><stop offset="0.8942" stop-color="#F9F9F9"/><stop offset="1" stop-color="#FFFFFF"/></radialGradient><path d="M61.82 68.82C62.78 70.16 50.09 71.4 33.49 71.59 16.88 71.78 2.64 70.86 1.68 69.52 0.72 68.18 13.4 66.94 30.02 66.75 46.62 66.56 60.86 67.48 61.82 68.82Z" fill="url(#SVGID_1_)"/><g><g><g><path d="M0 9.8 6.01 0 57.66 0.19 64.61 10.01Z" fill="#7FED2D"/></g><g><path d="M64.61 10.01 62.17 69.48 1.81 69.41 0 9.8Z" fill="#6AC726"/></g></g></g><g><g><g><linearGradient x1="32.1335" y1="56.3711" x2="32.1335" y2="23.331" gradientUnits="userSpaceOnUse" id="SVGID_2_"><stop offset="0" stop-color="#666666"/><stop offset="0.272" stop-color="#626262"/><stop offset="0.5626" stop-color="#555555"/><stop offset="0.861" stop-color="#404040"/><stop offset="1" stop-color="#333333"/></linearGradient><path d="M35.57 23.41 19.82 23.33 19.84 29.98 33.58 30.05C34.07 30.05 34.5 30.11 34.87 30.23 35.24 30.35 35.54 30.53 35.79 30.77 36.03 31.01 36.22 31.31 36.34 31.66 36.46 32.02 36.52 32.43 36.52 32.9L36.51 35.26 18.92 47.36 18.95 56.2 45.18 56.35 45.23 49.84 28.9 49.77 39.41 42.59C39.62 42.44 39.83 42.3 40.03 42.15 40.23 42 40.43 41.85 40.63 41.71 40.83 41.56 41.02 41.41 41.21 41.27 41.4 41.12 41.58 40.97 41.76 40.83 41.94 40.68 42.12 40.53 42.28 40.38 42.45 40.23 42.61 40.07 42.77 39.91 42.93 39.75 43.08 39.59 43.22 39.42 43.36 39.25 43.5 39.08 43.63 38.91 43.76 38.74 43.89 38.57 44 38.39 44.12 38.21 44.23 38.03 44.33 37.84 44.43 37.65 44.53 37.46 44.62 37.26 44.71 37.06 44.79 36.86 44.87 36.66 44.95 36.46 45.01 36.25 45.07 36.03 45.13 35.81 45.17 35.59 45.21 35.36 45.25 35.13 45.28 34.9 45.3 34.66 45.32 34.42 45.33 34.17 45.33 33.92L45.34 32.97C45.35 32.14 45.3 31.37 45.21 30.66 45.12 29.94 44.98 29.28 44.79 28.68 44.6 28.08 44.36 27.53 44.07 27.04 43.78 26.55 43.44 26.11 43.06 25.73 42.67 25.35 42.23 25.02 41.72 24.73 41.21 24.44 40.65 24.21 40.02 24.02 39.39 23.83 38.71 23.68 37.97 23.59 37.23 23.47 36.43 23.42 35.57 23.41" fill="url(#SVGID_2_)"/></g></g></g></svg>