<svg width="180.45" height="104.75" viewBox="0 0 180.45 104.75" xmlns="http://www.w3.org/2000/svg" xmlns:xlink="http://www.w3.org/1999/xlink" xml:space="preserve" overflow="hidden"><defs></defs><g><path d="M44.82 58.52 56.98 56.04 70.62 56.04 70.62 94.3 44.82 94.3Z" fill="#D9D9DB" fill-rule="evenodd" clip-rule="evenodd"/><path d="M109.77 55.45 124.06 55.45 135.46 58.69 135.46 94.3 109.77 94.3Z" fill="#D9D9DB" fill-rule="evenodd" clip-rule="evenodd"/><path d="M73.04 43.22C75.28 39.09 57.51 33.65 90.04 14.05 121.57 33.47 104.33 39.5 107.93 43.22 96.31 43.11 84.62 43.34 73.04 43.22L73.04 43.22Z" fill="#EEEFF1" fill-rule="evenodd" clip-rule="evenodd"/><rect x="89.58" y="5.02" width="1.01" height="9.04" fill="#EEEFF1" fill-rule="evenodd" clip-rule="evenodd"/><path d="M91.11 0C91.7 0.59 92.11 1.42 92.11 2.3 92.11 4.07 90.63 5.55 88.86 5.55 87.5 5.55 86.32 4.66 85.85 3.42 86.44 3.95 87.21 4.25 88.03 4.25 89.8 4.25 91.28 2.83 91.28 1.06 91.29 0.71 91.23 0.29 91.11 0L91.11 0Z" fill="#EEEFF1" fill-rule="evenodd" clip-rule="evenodd"/><path d="M59.76 48.71C60.53 47.41 54.86 45.82 65.13 39.62 75.11 45.76 69.68 47.59 70.8 48.77 67.14 48.71 63.42 48.77 59.76 48.71L59.76 48.71Z" fill="#EEEFF1" fill-rule="evenodd" clip-rule="evenodd"/><rect x="64.66" y="39.15" width="1" height="0.47" fill="#EEEFF1" fill-rule="evenodd" clip-rule="evenodd"/><rect x="64.95" y="36.73" width="0.35" height="2.89" fill="#EEEFF1" fill-rule="evenodd" clip-rule="evenodd"/><path d="M65.37 35.31C65.55 35.49 65.72 35.72 65.72 36.02 65.72 36.61 65.25 37.08 64.66 37.08 64.25 37.08 63.89 36.79 63.72 36.37 63.9 36.55 64.13 36.66 64.43 36.66 64.96 36.66 65.43 36.19 65.43 35.65 65.43 35.55 65.43 35.43 65.37 35.31L65.37 35.31Z" fill="#EEEFF1" fill-rule="evenodd" clip-rule="evenodd"/><path d="M110.13 48.71C110.84 47.41 105.23 45.82 115.5 39.62 125.48 45.76 119.99 47.59 121.17 48.77 117.51 48.71 113.79 48.77 110.13 48.71L110.13 48.71Z" fill="#EEEFF1" fill-rule="evenodd" clip-rule="evenodd"/><rect x="114.97" y="39.15" width="1" height="0.47" fill="#EEEFF1" fill-rule="evenodd" clip-rule="evenodd"/><rect x="115.32" y="36.73" width="0.35" height="2.89" fill="#EEEFF1" fill-rule="evenodd" clip-rule="evenodd"/><path d="M115.74 35.31C115.92 35.49 116.03 35.72 116.03 36.02 116.03 36.61 115.62 37.08 115.03 37.08 114.62 37.08 114.2 36.79 114.08 36.37 114.26 36.55 114.5 36.66 114.79 36.66 115.32 36.66 115.79 36.19 115.79 35.65 115.79 35.55 115.79 35.43 115.74 35.31L115.74 35.31Z" fill="#EEEFF1" fill-rule="evenodd" clip-rule="evenodd"/><rect x="71.92" y="43.22" width="36.49" height="6.61" fill="#DADADC" fill-rule="evenodd" clip-rule="evenodd"/><path d="M56.8 49.84 123.59 49.84 123.59 94.3 56.8 94.3 56.8 49.84ZM60.23 52.2 62.36 52.2 62.36 55.27 60.23 55.27 60.23 52.2ZM118.69 52.2 120.82 52.2 120.82 55.27 118.69 55.27 118.69 52.2ZM115.09 52.2 117.22 52.2 117.22 55.27 115.09 55.27 115.09 52.2ZM111.54 52.2 113.61 52.2 113.61 55.27 111.54 55.27 111.54 52.2ZM67.43 52.2 69.56 52.2 69.56 55.27 67.43 55.27 67.43 52.2ZM63.83 52.2 65.96 52.2 65.96 55.27 63.83 55.27 63.83 52.2Z" fill="#EEEFF1" fill-rule="evenodd" clip-rule="evenodd"/><rect x="0" y="94.3" width="180.45" height="3.07" fill="#EDEFEE" fill-rule="evenodd" clip-rule="evenodd"/><rect x="0" y="97.37" width="180.45" height="7.38" fill="#9C9BA9" fill-rule="evenodd" clip-rule="evenodd"/><rect x="77.77" y="55.27" width="24.92" height="35.61" fill="#E9E9EB" fill-rule="evenodd" clip-rule="evenodd"/><path d="M74.16 51.85 106.28 51.85 106.28 94.3 74.16 94.3 74.16 51.85ZM77.77 55.27 102.69 55.27 102.69 90.88 77.77 90.88 77.77 55.27Z" fill="#9C9BAB" fill-rule="evenodd" clip-rule="evenodd"/><rect x="58.34" y="48.71" width="13.99" height="2.19" fill="#DADADC" fill-rule="evenodd" clip-rule="evenodd"/><rect x="108.35" y="48.71" width="13.99" height="2.19" fill="#DADADC" fill-rule="evenodd" clip-rule="evenodd"/><path d="M99.91 69.26 99.91 90.87 80.54 90.87 80.54 69.26C80.54 65.24 89.75 59.93 90.23 59.93 90.7 59.94 99.91 65.25 99.91 69.26L99.91 69.26Z" fill="#C0C0C8" fill-rule="evenodd" clip-rule="evenodd"/><path d="M93.18 69.5 93.18 76.12 87.22 76.12 87.22 69.5C87.22 68.26 90.05 66.66 90.23 66.66 90.35 66.67 93.18 68.26 93.18 69.5L93.18 69.5Z" fill="#9B9AA8" fill-rule="evenodd" clip-rule="evenodd"/><path d="M93.18 84.26 93.18 90.88 87.22 90.88 87.22 84.26C87.22 83.02 90.05 81.37 90.23 81.37 90.35 81.37 93.18 83.02 93.18 84.26L93.18 84.26Z" fill="#9C9BAB" fill-rule="evenodd" clip-rule="evenodd"/><rect x="80.54" y="76.12" width="19.37" height="2.36" fill="#D7D8DC" fill-rule="evenodd" clip-rule="evenodd"/><path d="M53.14 67.55 53.14 76.11 47.17 76.82 47.17 68.25C47.17 66.66 50 64.18 50.12 64.18 50.31 64.13 53.14 65.9 53.14 67.55L53.14 67.55Z" fill="#9C9BAB" fill-rule="evenodd" clip-rule="evenodd"/><path d="M53.14 82.14 53.14 90.76 47.17 90.88 47.17 82.85C47.17 81.25 50 78.83 50.12 78.83 50.31 78.77 53.14 80.54 53.14 82.14L53.14 82.14Z" fill="#9C9BAB" fill-rule="evenodd" clip-rule="evenodd"/><path d="M127.61 67.55 127.61 76.11 133.57 76.82 133.57 68.25C133.57 66.66 130.74 64.18 130.56 64.18 130.44 64.13 127.61 65.9 127.61 67.55L127.61 67.55Z" fill="#9C9BAB" fill-rule="evenodd" clip-rule="evenodd"/><path d="M127.61 82.14 127.61 90.76 133.57 90.88 133.57 82.85C133.57 81.25 130.74 78.83 130.56 78.83 130.44 78.77 127.61 80.54 127.61 82.14L127.61 82.14Z" fill="#9A9CAB" fill-rule="evenodd" clip-rule="evenodd"/><path d="M121.17 66.49 121.17 75.4 113.14 75.4 113.14 66.49C113.14 64.84 116.92 62.59 117.16 62.59 117.33 62.59 121.17 64.84 121.17 66.49L121.17 66.49Z" fill="#D9DADC" fill-rule="evenodd" clip-rule="evenodd"/><path d="M121.17 81.96 121.17 90.88 113.14 90.88 113.14 81.96C113.14 80.25 116.92 78.07 117.16 78.07 117.33 78.07 121.17 80.25 121.17 81.96L121.17 81.96Z" fill="#D9DBDA" fill-rule="evenodd" clip-rule="evenodd"/><path d="M67.43 66.49 67.43 75.4 59.4 75.4 59.4 66.49C59.4 64.84 63.24 62.59 63.41 62.59 63.65 62.59 67.43 64.84 67.43 66.49L67.43 66.49Z" fill="#D8D9DB" fill-rule="evenodd" clip-rule="evenodd"/><path d="M67.43 81.96 67.43 90.88 59.4 90.88 59.4 81.96C59.4 80.25 63.24 78.07 63.41 78.07 63.65 78.07 67.43 80.25 67.43 81.96L67.43 81.96Z" fill="#D9DBDA" fill-rule="evenodd" clip-rule="evenodd"/><rect x="62.35" y="70.98" width="2.3" height="4.43" fill="#9B9AA8" fill-rule="evenodd" clip-rule="evenodd"/><rect x="62.35" y="86.45" width="2.3" height="4.43" fill="#9C9BA9" fill-rule="evenodd" clip-rule="evenodd"/><rect x="115.97" y="70.98" width="2.36" height="4.43" fill="#9C9BA9" fill-rule="evenodd" clip-rule="evenodd"/><rect x="115.97" y="86.45" width="2.36" height="4.43" fill="#9C9BA9" fill-rule="evenodd" clip-rule="evenodd"/><rect x="59.05" y="77.18" width="8.86" height="0.89" fill="#B0B0BA" fill-rule="evenodd" clip-rule="evenodd"/><rect x="59.05" y="61.29" width="8.86" height="0.94" fill="#B0B0BA" fill-rule="evenodd" clip-rule="evenodd"/><rect x="112.55" y="61.29" width="8.8" height="0.94" fill="#B0B0BA" fill-rule="evenodd" clip-rule="evenodd"/><rect x="112.84" y="77.18" width="8.86" height="0.89" fill="#B0B0BA" fill-rule="evenodd" clip-rule="evenodd"/><rect x="71.92" y="43.22" width="36.49" height="2.07" fill="#9C9BAB" fill-rule="evenodd" clip-rule="evenodd"/><rect x="58.34" y="48.71" width="13.99" height="0.65" fill="#9C9BAB" fill-rule="evenodd" clip-rule="evenodd"/><rect x="108.35" y="48.71" width="13.99" height="0.65" fill="#9C9BAB" fill-rule="evenodd" clip-rule="evenodd"/><rect x="88.46" y="13.35" width="3.19" height="1.48" fill="#DADADC" fill-rule="evenodd" clip-rule="evenodd"/><rect x="159.2" y="34.9" width="9.39" height="59.4" fill="#FBFBFB" fill-rule="evenodd" clip-rule="evenodd"/><rect x="158.07" y="33.36" width="11.63" height="1.54" fill="#9C9BA9" fill-rule="evenodd" clip-rule="evenodd"/><rect x="158.07" y="58.34" width="11.63" height="1.53" fill="#9C9BA9" fill-rule="evenodd" clip-rule="evenodd"/><rect x="158.07" y="80.13" width="11.63" height="1.59" fill="#9C9BA9" fill-rule="evenodd" clip-rule="evenodd"/><rect x="158.07" y="31.89" width="11.63" height="1.53" fill="#D8D9DD" fill-rule="evenodd" clip-rule="evenodd"/><rect x="158.07" y="23.74" width="11.63" height="1.54" fill="#EBEDEC" fill-rule="evenodd" clip-rule="evenodd"/><rect x="158.07" y="25.51" width="11.63" height="1.53" fill="#CFCCD5" fill-rule="evenodd" clip-rule="evenodd"/><path d="M159.37 31.89 168.4 31.89 168.4 27.05 159.37 27.05 159.37 31.89ZM161.09 30.88 162.62 30.88 162.62 28.05 161.09 28.05 161.09 30.88ZM165.16 30.88 166.75 30.88 166.75 28.05 165.16 28.05 165.16 30.88ZM163.15 30.88 164.68 30.88 164.68 28.05 163.15 28.05 163.15 30.88Z" fill="#E3F5FF" fill-rule="evenodd" clip-rule="evenodd"/><path d="M159.61 23.15C160.2 22.15 155.59 20.79 163.98 15.77 172.01 20.73 167.64 22.27 168.53 23.21 165.57 23.15 162.56 23.21 159.61 23.15L159.61 23.15Z" fill="#EDEEF0" fill-rule="evenodd" clip-rule="evenodd"/><rect x="143.02" y="57.69" width="5.79" height="36.61" fill="#FBFBFB" fill-rule="evenodd" clip-rule="evenodd"/><rect x="142.37" y="56.75" width="7.14" height="0.94" fill="#9C9BA9" fill-rule="evenodd" clip-rule="evenodd"/><rect x="142.37" y="72.16" width="7.14" height="0.94" fill="#9C9BA9" fill-rule="evenodd" clip-rule="evenodd"/><rect x="142.37" y="85.56" width="7.14" height="0.94" fill="#9C9BA9" fill-rule="evenodd" clip-rule="evenodd"/><rect x="142.37" y="55.86" width="7.14" height="0.94" fill="#D8D9DD" fill-rule="evenodd" clip-rule="evenodd"/><rect x="142.37" y="50.84" width="7.14" height="0.95" fill="#EBEDEC" fill-rule="evenodd" clip-rule="evenodd"/><rect x="142.37" y="51.91" width="7.14" height="0.94" fill="#CFCCD5" fill-rule="evenodd" clip-rule="evenodd"/><path d="M148.74 55.86 143.13 55.86 143.13 52.85 148.74 52.85 148.74 55.86ZM147.68 55.21 146.73 55.21 146.73 53.5 147.68 53.5 147.68 55.21ZM145.14 55.21 144.2 55.21 144.2 53.5 145.14 53.5 145.14 55.21ZM146.38 55.21 145.44 55.21 145.44 53.5 146.38 53.5 146.38 55.21Z" fill="#E3F5FF" fill-rule="evenodd" clip-rule="evenodd"/><path d="M148.57 50.49C148.22 49.84 151.05 49.01 145.91 45.88 140.89 48.95 143.67 49.9 143.08 50.49 144.91 50.49 146.74 50.49 148.57 50.49L148.57 50.49Z" fill="#EDEEF0" fill-rule="evenodd" clip-rule="evenodd"/><rect x="12.28" y="34.9" width="9.45" height="59.4" fill="#FBFBFB" fill-rule="evenodd" clip-rule="evenodd"/><rect x="11.16" y="33.36" width="11.69" height="1.54" fill="#9C9BA9" fill-rule="evenodd" clip-rule="evenodd"/><rect x="11.16" y="58.34" width="11.69" height="1.53" fill="#9C9BA9" fill-rule="evenodd" clip-rule="evenodd"/><rect x="11.16" y="80.13" width="11.69" height="1.59" fill="#9C9BA9" fill-rule="evenodd" clip-rule="evenodd"/><rect x="11.16" y="31.89" width="11.69" height="1.53" fill="#D8D9DD" fill-rule="evenodd" clip-rule="evenodd"/><rect x="11.16" y="23.74" width="11.69" height="1.54" fill="#EBEDEC" fill-rule="evenodd" clip-rule="evenodd"/><rect x="11.16" y="25.51" width="11.69" height="1.53" fill="#CFCCD5" fill-rule="evenodd" clip-rule="evenodd"/><path d="M21.55 31.89 12.46 31.89 12.46 27.05 21.55 27.05 21.55 31.89ZM19.84 30.88 18.3 30.88 18.3 28.05 19.84 28.05 19.84 30.88ZM15.71 30.88 14.17 30.88 14.17 28.05 15.71 28.05 15.71 30.88ZM17.77 30.88 16.23 30.88 16.23 28.05 17.77 28.05 17.77 30.88Z" fill="#E3F5FF" fill-rule="evenodd" clip-rule="evenodd"/><path d="M21.32 23.15C20.73 22.15 25.28 20.79 16.95 15.77 8.86 20.73 13.29 22.27 12.4 23.21 15.35 23.15 18.3 23.21 21.32 23.15L21.32 23.15Z" fill="#EDEEF0" fill-rule="evenodd" clip-rule="evenodd"/><rect x="32.06" y="57.69" width="5.85" height="36.61" fill="#FBFBFB" fill-rule="evenodd" clip-rule="evenodd"/><rect x="31.41" y="56.75" width="7.14" height="0.94" fill="#9C9BA9" fill-rule="evenodd" clip-rule="evenodd"/><rect x="31.41" y="72.16" width="7.14" height="0.94" fill="#9C9BA9" fill-rule="evenodd" clip-rule="evenodd"/><rect x="31.41" y="85.56" width="7.14" height="0.94" fill="#9C9BA9" fill-rule="evenodd" clip-rule="evenodd"/><rect x="31.41" y="55.86" width="7.14" height="0.94" fill="#D8D9DD" fill-rule="evenodd" clip-rule="evenodd"/><rect x="31.41" y="50.84" width="7.14" height="0.95" fill="#EBEDEC" fill-rule="evenodd" clip-rule="evenodd"/><rect x="31.41" y="51.91" width="7.14" height="0.94" fill="#CFCCD5" fill-rule="evenodd" clip-rule="evenodd"/><path d="M32.18 55.86 37.79 55.86 37.79 52.85 32.18 52.85 32.18 55.86ZM33.24 55.21 34.18 55.21 34.18 53.5 33.24 53.5 33.24 55.21ZM35.78 55.21 36.72 55.21 36.72 53.5 35.78 53.5 35.78 55.21ZM34.48 55.21 35.43 55.21 35.43 53.5 34.48 53.5 34.48 55.21Z" fill="#E3F5FF" fill-rule="evenodd" clip-rule="evenodd"/><path d="M32.36 50.49C32.71 49.84 29.88 49.01 35.02 45.88 39.98 48.95 37.26 49.9 37.85 50.49 36.02 50.49 34.19 50.49 32.36 50.49L32.36 50.49Z" fill="#EDEEF0" fill-rule="evenodd" clip-rule="evenodd"/></g></svg>