<svg width="32.06" height="171.3" viewBox="0 0 32.06 171.3" xmlns="http://www.w3.org/2000/svg" xmlns:xlink="http://www.w3.org/1999/xlink" xml:space="preserve" overflow="hidden"><defs></defs><g><rect x="2.6" y="32.48" width="0.47" height="6.5" fill="#A24F0D" fill-rule="evenodd" clip-rule="evenodd"/><rect x="28.99" y="32.48" width="0.47" height="6.5" fill="#A24F0D" fill-rule="evenodd" clip-rule="evenodd"/><rect x="0.71" y="38.97" width="0.41" height="6.5" fill="#A24F0D" fill-rule="evenodd" clip-rule="evenodd"/><rect x="30.94" y="38.97" width="0.42" height="6.5" fill="#A24F0D" fill-rule="evenodd" clip-rule="evenodd"/><path d="M0 40.39 0.95 39.5 1.83 40.39 0.95 41.33Z" fill="#70482F" fill-rule="evenodd" clip-rule="evenodd"/><path d="M30.23 40.39 31.12 39.5 32.06 40.39 31.12 41.33Z" fill="#70482F" fill-rule="evenodd" clip-rule="evenodd"/><path d="M28.28 33.83 29.23 32.95 30.17 33.83 29.23 34.78Z" fill="#70482F" fill-rule="evenodd" clip-rule="evenodd"/><path d="M1.89 33.83 2.84 32.95 3.72 33.83 2.84 34.78Z" fill="#70482F" fill-rule="evenodd" clip-rule="evenodd"/><rect x="2.18" y="76.11" width="27.69" height="74.34" fill="#A24F0D" fill-rule="evenodd" clip-rule="evenodd"/><rect x="0.71" y="45.47" width="30.65" height="30.65" fill="#E68B38" fill-rule="evenodd" clip-rule="evenodd"/><rect x="3.9" y="48.6" width="24.27" height="24.33" fill="#763A0A" fill-rule="evenodd" clip-rule="evenodd"/><rect x="2.6" y="38.97" width="26.87" height="6.55" fill="#E68B38" fill-rule="evenodd" clip-rule="evenodd"/><rect x="4.25" y="49.01" width="23.56" height="23.56" fill="#A24F0D" fill-rule="evenodd" clip-rule="evenodd"/><path d="M9.63 27.69 22.38 27.69 26.99 38.97 5.08 38.97Z" fill="#70482F" fill-rule="evenodd" clip-rule="evenodd"/><rect x="8.21" y="21.2" width="15.65" height="6.5" fill="#E68B38" fill-rule="evenodd" clip-rule="evenodd"/><path d="M16 0C16.35 7.73 20.25 14.11 22.38 21.2 18.13 21.2 13.88 21.2 9.63 21.2 11.75 14.11 15.94 7.79 16 0L16 0Z" fill="#70482F" fill-rule="evenodd" clip-rule="evenodd"/><rect x="4.66" y="49.36" width="22.74" height="22.79" fill="#E68B38" fill-rule="evenodd" clip-rule="evenodd"/><path d="M16 72.16C22.32 72.16 27.4 67.08 27.4 60.76 27.4 54.5 22.32 49.36 16 49.36 9.74 49.36 4.66 54.5 4.66 60.76 4.66 67.08 9.74 72.16 16 72.16L16 72.16Z" fill="#A24F0D" fill-rule="evenodd" clip-rule="evenodd"/><path d="M16 71.57C21.96 71.57 26.81 66.73 26.81 60.76 26.81 54.86 21.97 50.01 16 50.01 10.09 50.01 5.25 54.85 5.25 60.76 5.26 66.73 10.1 71.57 16 71.57L16 71.57Z" fill="#E68B38" fill-rule="evenodd" clip-rule="evenodd"/><path d="M16 70.68C21.49 70.68 25.92 66.25 25.92 60.76 25.92 55.33 21.49 50.9 16 50.9 10.57 50.9 6.14 55.33 6.14 60.76 6.14 66.25 10.57 70.68 16 70.68L16 70.68Z" fill="#FFFFC0" fill-rule="evenodd" clip-rule="evenodd"/><path d="M25.51 52.14C25.98 52.14 26.34 51.73 26.34 51.25 26.34 50.78 25.99 50.42 25.51 50.42 24.98 50.42 24.63 50.77 24.63 51.25 24.63 51.73 24.98 52.14 25.51 52.14L25.51 52.14Z" fill="#A24F0D" fill-rule="evenodd" clip-rule="evenodd"/><path d="M6.44 52.14C6.91 52.14 7.27 51.73 7.27 51.25 7.27 50.78 6.91 50.42 6.44 50.42 5.97 50.42 5.55 50.77 5.55 51.25 5.55 51.73 5.96 52.14 6.44 52.14L6.44 52.14Z" fill="#A24F0D" fill-rule="evenodd" clip-rule="evenodd"/><path d="M25.51 70.92C25.98 70.92 26.34 70.57 26.34 70.03 26.34 69.56 25.99 69.2 25.51 69.2 24.98 69.2 24.63 69.55 24.63 70.03 24.63 70.56 24.98 70.92 25.51 70.92L25.51 70.92Z" fill="#A24F0D" fill-rule="evenodd" clip-rule="evenodd"/><path d="M6.44 70.92C6.91 70.92 7.27 70.57 7.27 70.03 7.27 69.56 6.91 69.2 6.44 69.2 5.97 69.2 5.55 69.55 5.55 70.03 5.55 70.56 5.96 70.92 6.44 70.92L6.44 70.92Z" fill="#A24F0D" fill-rule="evenodd" clip-rule="evenodd"/><path d="M16 55.74C17.42 55.74 18.66 56.33 19.54 57.22L19.54 57.22 19.54 57.22C20.49 58.16 21.02 59.4 21.02 60.76 21.02 62.18 20.49 63.42 19.54 64.3L19.54 64.3 19.54 64.3C18.65 65.24 17.41 65.78 16 65.78 14.64 65.78 13.4 65.25 12.46 64.3L12.46 64.3 12.46 64.3C11.57 63.41 11.04 62.17 11.04 60.76 11.04 59.4 11.57 58.16 12.46 57.22L12.46 57.22 12.46 57.22C13.4 56.33 14.64 55.74 16 55.74L16 55.74ZM19.43 57.4C18.55 56.51 17.36 55.98 16.01 55.98 14.71 55.98 13.53 56.51 12.64 57.4L12.64 57.4C11.75 58.23 11.22 59.47 11.22 60.76 11.22 62.12 11.75 63.3 12.64 64.19L12.64 64.19C13.52 65.08 14.71 65.61 16.01 65.61 17.37 65.61 18.55 65.08 19.43 64.19L19.43 64.19C20.32 63.3 20.85 62.12 20.85 60.76 20.85 59.46 20.31 58.22 19.43 57.4L19.43 57.4ZM13.34 51.14 13.58 51.08 13.64 51.08 13.7 51.2 14 52.38 14.06 52.44 13.94 52.5 13.7 52.56 13.58 52.56 13.58 52.5 13.22 51.32 13.22 51.2 13.34 51.14ZM13.52 51.31 13.46 51.31 13.76 52.31 13.76 52.31 13.52 51.31ZM10.92 52.2 11.16 52.08 11.22 52.02 11.28 52.08 11.87 53.14 11.93 53.26 11.87 53.32 11.63 53.44 11.57 53.5 11.51 53.38 10.86 52.32 10.86 52.26 10.92 52.2ZM11.16 52.32 11.1 52.32 11.63 53.21 11.69 53.21 11.16 52.32ZM8.86 53.79 9.04 53.61 9.16 53.55 9.22 53.61 10.05 54.49 10.17 54.55 10.05 54.61 9.92 54.8 9.8 54.92 9.74 54.8 8.85 53.97 8.8 53.85 8.86 53.79ZM9.15 53.85 9.09 53.85 9.8 54.62 9.86 54.56 9.15 53.85ZM7.32 55.92 7.44 55.68 7.5 55.56 7.56 55.62 8.62 56.27 8.74 56.33 8.68 56.39 8.56 56.63 8.5 56.69 8.44 56.63 7.38 56.04 7.26 55.98 7.32 55.92ZM7.56 55.86 7.56 55.92 8.45 56.39 8.45 56.39 7.56 55.86ZM6.38 58.34 6.44 58.1 6.44 57.98 6.56 57.98 7.74 58.33 7.8 58.33 7.8 58.45 7.74 58.69 7.74 58.75 7.62 58.75 6.44 58.46 6.32 58.4 6.38 58.34ZM6.61 58.22 6.55 58.28 7.55 58.52 7.55 58.52 6.61 58.22ZM6.02 60.88 6.02 60.64 6.02 60.52 6.14 60.52 7.38 60.52 7.5 60.52 7.5 60.64 7.5 60.88 7.5 61 7.38 61 6.14 61 6.02 61 6.02 60.88ZM6.26 60.76 6.26 60.82 7.27 60.82 7.27 60.76 6.26 60.76ZM6.44 63.48 6.38 63.24 6.32 63.12 6.44 63.12 7.62 62.82 7.74 62.76 7.74 62.88 7.8 63.12 7.8 63.18 7.74 63.24 6.56 63.54 6.44 63.6 6.44 63.48ZM6.55 63.3 6.61 63.3 7.56 63.06 7.56 63 6.55 63.3ZM7.44 65.9 7.32 65.66 7.26 65.6 7.38 65.54 8.44 64.89 8.5 64.83 8.56 64.95 8.68 65.13 8.74 65.25 8.62 65.31 7.56 65.9 7.5 65.96 7.44 65.9ZM7.56 65.66 7.56 65.66 8.45 65.19 8.45 65.13 7.56 65.66ZM9.03 67.9 8.85 67.72 8.8 67.67 8.86 67.61 9.75 66.73 9.81 66.67 9.93 66.73 10.05 66.91 10.17 66.97 10.05 67.09 9.21 67.9 9.15 68.02 9.03 67.9ZM9.09 67.67 9.15 67.73 9.86 66.96 9.8 66.96 9.09 67.67ZM11.16 69.5 10.92 69.38 10.86 69.32 10.86 69.2 11.51 68.14 11.57 68.08 11.63 68.14 11.87 68.26 11.93 68.32 11.87 68.38 11.28 69.44 11.22 69.56 11.16 69.5ZM11.1 69.26 11.16 69.26 11.69 68.38 11.63 68.38 11.1 69.26ZM13.58 70.45 13.34 70.39 13.22 70.39 13.22 70.27 13.58 69.09 13.58 68.97 13.7 69.03 13.94 69.09 14.06 69.09 14 69.21 13.71 70.39 13.65 70.51 13.58 70.45ZM13.46 70.21 13.52 70.21 13.76 69.26 13.76 69.2 13.46 70.21ZM16.12 70.74 15.88 70.74 15.82 70.74 15.82 70.68 15.82 69.44 15.82 69.32 15.88 69.32 16.12 69.32 16.24 69.32 16.24 69.44 16.24 70.68 16.24 70.74 16.12 70.74ZM16 70.56 16.06 70.56 16.06 69.56 16 69.56 16 70.56ZM18.72 70.39 18.48 70.45 18.42 70.51 18.36 70.39 18.07 69.21 18.01 69.09 18.13 69.09 18.37 69.03 18.49 68.97 18.49 69.09 18.78 70.27 18.84 70.39 18.72 70.39ZM18.54 70.21 18.6 70.21 18.31 69.21 18.31 69.27 18.54 70.21ZM21.14 69.38 20.9 69.5 20.84 69.56 20.78 69.44 20.13 68.38 20.13 68.32 20.19 68.26 20.43 68.14 20.49 68.08 20.55 68.14 21.14 69.2 21.2 69.32 21.14 69.38ZM20.9 69.26 20.96 69.26 20.43 68.38 20.37 68.38 20.9 69.26ZM23.15 67.73 23.03 67.91 22.91 68.03 22.85 67.91 21.96 67.08 21.9 66.96 21.96 66.9 22.14 66.72 22.26 66.66 22.32 66.72 23.15 67.6 23.27 67.66 23.15 67.73ZM22.91 67.73 22.97 67.67 22.26 66.96 22.2 66.96 22.91 67.73ZM24.74 65.66 24.62 65.9 24.56 65.96 24.44 65.9 23.38 65.31 23.32 65.25 23.38 65.19 23.5 64.95 23.56 64.83 23.62 64.89 24.68 65.54 24.8 65.6 24.74 65.66ZM24.51 65.66 24.51 65.66 23.62 65.13 23.62 65.19 24.51 65.66ZM25.69 63.24 25.63 63.48 25.63 63.6 25.51 63.54 24.33 63.24 24.21 63.18 24.27 63.12 24.33 62.88 24.33 62.76 24.45 62.82 25.63 63.12 25.75 63.12 25.69 63.24ZM25.45 63.3 25.45 63.3 24.51 63 24.51 63.06 25.45 63.3ZM26.04 60.64 26.04 60.88 26.04 61 25.92 61 24.68 61 24.56 61 24.56 60.88 24.56 60.64 24.56 60.52 24.68 60.52 25.92 60.52 26.04 60.52 26.04 60.64ZM25.81 60.82 25.81 60.76 24.81 60.76 24.81 60.82 25.81 60.82ZM25.63 58.1 25.69 58.34 25.75 58.4 25.63 58.46 24.45 58.75 24.33 58.75 24.33 58.69 24.27 58.45 24.21 58.33 24.33 58.33 25.51 57.98 25.63 57.98 25.63 58.1ZM25.45 58.28 25.45 58.22 24.5 58.52 24.5 58.52 25.45 58.28ZM24.63 55.68 24.75 55.92 24.81 55.98 24.69 56.04 23.63 56.63 23.57 56.69 23.51 56.63 23.39 56.39 23.33 56.33 23.45 56.27 24.45 55.62 24.57 55.56 24.63 55.68ZM24.51 55.92 24.51 55.86 23.62 56.39 23.62 56.39 24.51 55.92ZM23.03 53.62 23.15 53.8 23.27 53.86 23.15 53.98 22.32 54.81 22.26 54.93 22.14 54.81 21.96 54.63 21.9 54.57 21.96 54.51 22.85 53.63 22.91 53.57 23.03 53.62ZM22.97 53.85 22.91 53.85 22.2 54.56 22.26 54.62 22.97 53.85ZM20.9 52.08 21.14 52.2 21.2 52.26 21.14 52.32 20.55 53.38 20.49 53.5 20.43 53.44 20.19 53.32 20.13 53.26 20.13 53.14 20.78 52.08 20.84 52.02 20.9 52.08ZM20.96 52.32 20.9 52.32 20.37 53.21 20.43 53.21 20.96 52.32ZM18.48 51.08 18.72 51.14 18.84 51.2 18.78 51.32 18.49 52.5 18.49 52.56 18.37 52.56 18.13 52.5 18.01 52.44 18.07 52.38 18.36 51.2 18.42 51.08 18.48 51.08ZM18.6 51.31 18.54 51.31 18.3 52.31 18.3 52.31 18.6 51.31ZM11.99 51.67 12.23 51.55 12.29 51.49 12.35 51.61 12.82 52.73 12.88 52.85 12.76 52.85 12.52 52.97 12.46 53.03 12.4 52.91 11.93 51.79 11.87 51.67 11.99 51.67ZM12.16 51.79 12.16 51.79 12.57 52.74 12.57 52.74 12.16 51.79ZM9.74 53.03 9.92 52.85 10.04 52.79 10.1 52.85 10.87 53.85 10.93 53.91 10.81 53.97 10.63 54.15 10.57 54.21 10.51 54.09 9.74 53.15 9.68 53.09 9.74 53.03ZM9.98 53.09 9.98 53.09 10.57 53.92 10.63 53.92 9.98 53.09ZM7.97 54.92 8.09 54.68 8.15 54.62 8.27 54.68 9.22 55.39 9.34 55.45 9.28 55.57 9.1 55.75 9.04 55.87 8.98 55.8 7.98 55.03 7.92 54.97 7.97 54.92ZM8.21 54.92 8.21 54.92 8.98 55.57 9.04 55.51 8.21 54.92ZM6.73 57.16 6.79 56.98 6.85 56.86 6.91 56.92 8.09 57.33 8.15 57.39 8.15 57.51 8.03 57.69 8.03 57.81 7.91 57.75 6.79 57.34 6.67 57.28 6.73 57.16ZM6.97 57.1 6.97 57.16 7.91 57.51 7.91 57.51 6.97 57.1ZM6.08 59.7 6.14 59.46 6.14 59.34 6.26 59.4 7.44 59.52 7.56 59.52 7.56 59.64 7.5 59.88 7.5 60 7.38 60 6.2 59.82 6.08 59.82 6.08 59.7ZM6.32 59.58 6.32 59.64 7.33 59.76 7.33 59.7 6.32 59.58ZM6.14 62.3 6.14 62.06 6.14 62 6.2 61.94 7.44 61.76 7.56 61.76 7.56 61.88 7.56 62.12 7.62 62.24 7.5 62.24 6.26 62.42 6.2 62.42 6.14 62.3ZM6.32 62.18 6.38 62.18 7.38 62.06 7.38 62 6.32 62.18ZM6.91 64.83 6.79 64.6 6.79 64.48 6.85 64.48 7.97 64.01 8.09 63.95 8.09 64.01 8.21 64.25 8.27 64.37 8.15 64.43 7.03 64.9 6.97 64.9 6.91 64.83ZM7.03 64.6 7.03 64.66 7.97 64.25 7.97 64.19 7.03 64.6ZM8.27 67.02 8.09 66.84 8.03 66.78 8.15 66.72 9.09 65.95 9.15 65.89 9.21 65.95 9.39 66.13 9.45 66.25 9.39 66.31 8.39 67.08 8.33 67.14 8.27 67.02ZM8.33 66.78 8.33 66.84 9.16 66.19 9.16 66.19 8.33 66.78ZM10.16 68.85 9.92 68.67 9.86 68.61 9.92 68.55 10.69 67.55 10.75 67.49 10.81 67.55 10.99 67.73 11.11 67.79 11.05 67.85 10.28 68.85 10.22 68.91 10.16 68.85ZM10.16 68.62 10.16 68.62 10.81 67.79 10.75 67.79 10.16 68.62ZM12.46 70.09 12.22 70.03 12.1 69.97 12.16 69.85 12.57 68.73 12.63 68.61 12.75 68.67 12.99 68.79 13.05 68.79 13.05 68.91 12.58 70.03 12.52 70.15 12.46 70.09ZM12.4 69.85 12.4 69.85 12.81 68.91 12.75 68.91 12.4 69.85ZM14.94 70.68 14.7 70.68 14.64 70.68 14.64 70.56 14.76 69.32 14.82 69.26 14.88 69.26 15.12 69.26 15.24 69.32 15.24 69.38 15.06 70.62 15.06 70.74 14.94 70.68ZM14.88 70.5 14.88 70.5 15 69.5 15 69.5 14.88 70.5ZM17.6 70.62 17.36 70.68 17.24 70.68 17.24 70.56 17.06 69.38 17 69.26 17.12 69.26 17.36 69.2 17.48 69.2 17.48 69.32 17.66 70.5 17.66 70.62 17.6 70.62ZM17.42 70.45 17.42 70.45 17.3 69.45 17.24 69.45 17.42 70.45ZM20.08 69.91 19.84 70.03 19.78 70.03 19.72 69.97 19.25 68.85 19.19 68.73 19.31 68.67 19.49 68.61 19.61 68.55 19.67 68.67 20.14 69.79 20.2 69.85 20.08 69.91ZM19.84 69.79 19.9 69.73 19.49 68.85 19.49 68.85 19.84 69.79ZM22.32 68.56 22.08 68.68 22.02 68.8 21.96 68.68 21.19 67.73 21.13 67.61 21.19 67.55 21.43 67.43 21.49 67.37 21.55 67.43 22.32 68.38 22.38 68.5 22.32 68.56ZM22.08 68.5 22.08 68.44 21.43 67.67 21.43 67.67 22.08 68.5ZM24.09 66.67 23.97 66.85 23.91 66.97 23.8 66.9 22.86 66.13 22.74 66.07 22.8 66.01 22.98 65.77 23.04 65.71 23.1 65.77 24.1 66.48 24.16 66.6 24.09 66.67ZM23.86 66.67 23.86 66.61 23.03 66.02 23.03 66.02 23.86 66.67ZM25.33 64.36 25.27 64.6 25.21 64.72 25.09 64.66 23.97 64.19 23.91 64.19 23.91 64.07 24.03 63.83 24.03 63.77 24.15 63.77 25.27 64.24 25.39 64.3 25.33 64.36ZM25.1 64.42 25.1 64.36 24.15 64.01 24.15 64.07 25.1 64.42ZM25.98 61.82 25.92 62.06 25.92 62.18 25.8 62.18 24.63 62 24.51 62 24.51 61.88 24.57 61.64 24.57 61.58 24.63 61.58 25.87 61.7 25.99 61.76 25.99 61.82ZM25.75 61.94 25.75 61.94 24.75 61.82 24.75 61.82 25.75 61.94ZM25.92 59.23 25.92 59.47 25.92 59.59 25.86 59.59 24.62 59.77 24.5 59.77 24.5 59.7 24.5 59.46 24.44 59.34 24.56 59.34 25.8 59.16 25.86 59.1 25.92 59.23ZM25.69 59.4 25.69 59.34 24.69 59.52 24.69 59.52 25.69 59.4ZM25.16 56.74 25.28 56.98 25.28 57.04 25.22 57.1 24.1 57.57 23.98 57.63 23.92 57.51 23.86 57.27 23.8 57.21 23.92 57.15 25.04 56.68 25.1 56.62 25.16 56.74ZM25.04 56.92 25.04 56.92 24.09 57.33 24.09 57.33 25.04 56.92ZM23.8 54.5 23.98 54.68 24.04 54.8 23.92 54.86 22.98 55.63 22.92 55.69 22.86 55.57 22.68 55.39 22.62 55.33 22.68 55.27 23.68 54.5 23.74 54.44 23.8 54.5ZM23.74 54.74 23.68 54.74 22.91 55.33 22.91 55.39 23.74 54.74ZM21.91 52.73 22.09 52.85 22.21 52.91 22.15 53.03 21.38 53.97 21.32 54.09 21.26 54.03 21.08 53.85 20.96 53.79 21.02 53.73 21.79 52.73 21.85 52.67 21.91 52.73ZM21.91 52.97 21.85 52.91 21.26 53.74 21.32 53.8 21.91 52.97ZM19.6 51.49 19.84 51.55 19.96 51.61 19.9 51.67 19.43 52.85 19.43 52.91 19.31 52.91 19.07 52.79 19.01 52.73 19.01 52.67 19.48 51.49 19.54 51.43 19.6 51.49ZM19.66 51.73 19.66 51.67 19.25 52.62 19.31 52.68 19.66 51.73ZM17.07 50.84 17.31 50.9 17.43 50.9 17.43 51.02 17.3 52.2 17.24 52.32 17.18 52.32 16.94 52.26 16.82 52.26 16.82 52.14 16.94 50.96 17 50.84 17.07 50.84ZM17.18 51.08 17.18 51.08 17.06 52.08 17.06 52.08 17.18 51.08ZM14.47 50.9 14.71 50.9 14.83 50.84 14.83 50.96 15 52.2 15.06 52.26 14.94 52.32 14.7 52.32 14.58 52.32 14.58 52.26 14.4 51.02 14.4 50.9 14.47 50.9ZM14.64 51.08 14.64 51.08 14.76 52.14 14.82 52.08 14.64 51.08ZM15.89 50.78 16.13 50.78 16.25 50.78 16.25 50.9 16.25 52.14 16.25 52.2 16.13 52.2 15.89 52.2 15.83 52.2 15.83 52.14 15.83 50.9 15.83 50.78 15.89 50.78ZM16.06 51.02 16 51.02 16 52.02 16.06 52.02 16.06 51.02Z" fill="#713F28"/><path d="M16 52.02C18.42 52.02 20.61 53.02 22.2 54.56 23.8 56.16 24.8 58.34 24.8 60.76 24.8 63.18 23.8 65.37 22.2 66.96 20.61 68.56 18.42 69.56 16 69.56 13.58 69.56 11.39 68.56 9.86 66.96 8.26 65.37 7.26 63.18 7.26 60.76 7.26 58.34 8.26 56.16 9.86 54.56 11.4 53.03 13.58 52.02 16 52.02L16 52.02ZM22.08 54.74C20.55 53.2 18.37 52.2 16 52.2 13.63 52.2 11.51 53.21 9.98 54.74 8.44 56.27 7.5 58.4 7.5 60.76 7.5 63.12 8.44 65.31 9.98 66.84 11.52 68.38 13.64 69.32 16 69.32 18.36 69.32 20.55 68.38 22.08 66.84 23.62 65.3 24.56 63.12 24.56 60.76 24.56 58.4 23.62 56.27 22.08 54.74L22.08 54.74Z" fill="#713F28"/><path d="M3.37 37.79 3.72 38.38 4.07 38.97 4.49 38.38 4.84 37.79 5.26 38.38 5.61 38.97 5.96 38.38 6.32 37.79 6.73 38.38 7.09 38.97 7.44 38.38 7.85 37.79 8.21 38.38 8.56 38.97 8.92 38.38 9.33 37.79 9.69 38.38 10.04 38.97 10.45 38.38 10.81 37.79 11.16 38.38 11.58 38.97 11.93 38.38 12.28 37.79 12.7 38.38 13.05 38.97 13.4 38.38 13.82 37.79 14.17 38.38 14.53 38.97 14.88 38.38 15.29 37.79 15.65 38.38 16 38.97 16.42 38.38 16.77 37.79 17.12 38.38 17.54 38.97 17.89 38.38 18.25 37.79 18.66 38.38 19.01 38.97 19.37 38.38 19.78 37.79 20.14 38.38 20.49 38.97 20.85 38.38 21.26 37.79 21.61 38.38 21.97 38.97 22.38 38.38 22.73 37.79 23.09 38.38 23.5 38.97 23.86 38.38 24.21 37.79 24.63 38.38 24.98 38.97 25.33 38.38 25.75 37.79 26.1 38.38 26.45 38.97 26.81 38.38 27.22 37.79 27.58 38.38 27.93 38.97 28.34 38.38 28.7 37.79 29.05 38.38 29.47 38.97 28.7 38.97 27.99 38.97 27.93 38.97 27.22 38.97 26.45 38.97 26.45 38.97 25.75 38.97 24.98 38.97 24.98 38.97 24.21 38.97 23.5 38.97 23.44 38.97 22.73 38.97 22.02 38.97 21.97 38.97 21.26 38.97 20.49 38.97 20.49 38.97 19.78 38.97 19.01 38.97 19.01 38.97 18.25 38.97 17.54 38.97 17.48 38.97 16.77 38.97 16.06 38.97 16 38.97 15.29 38.97 14.53 38.97 14.53 38.97 13.82 38.97 13.05 38.97 13.05 38.97 12.28 38.97 11.58 38.97 11.58 38.97 10.81 38.97 10.1 38.97 10.04 38.97 9.33 38.97 8.56 38.97 8.56 38.97 7.85 38.97 7.09 38.97 7.09 38.97 6.32 38.97 5.61 38.97 5.61 38.97 4.84 38.97 4.13 38.97 4.07 38.97 3.37 38.97 2.6 38.97 2.95 38.38Z" fill="#E68B38" fill-rule="evenodd" clip-rule="evenodd"/><path d="M8.92 19.84 9.27 20.55 9.63 21.26 9.98 20.55 10.33 19.84 10.75 20.55 11.04 21.26 11.4 20.55 11.75 19.84 12.16 20.55 12.46 21.26 12.81 20.55 13.17 19.84 13.58 20.55 13.88 21.26 14.23 20.55 14.59 19.84 15 20.55 15.29 21.26 15.65 20.55 16 19.84 16.42 20.55 16.71 21.26 17.07 20.55 17.42 19.84 17.83 20.55 18.13 21.26 18.48 20.55 18.84 19.84 19.25 20.55 19.55 21.26 19.9 20.55 20.31 19.84 20.67 20.55 21.02 21.26 21.32 20.55 21.73 19.84 22.08 20.55 22.44 21.26 22.73 20.55 23.15 19.84 23.5 20.55 23.86 21.26 23.15 21.26 22.44 21.26 22.38 21.26 21.73 21.26 21.02 21.26 20.96 21.26 20.31 21.26 19.6 21.26 19.55 21.26 18.84 21.26 18.19 21.26 18.13 21.26 17.42 21.26 16.77 21.26 16.71 21.26 16 21.26 15.35 21.26 15.29 21.26 14.59 21.26 13.94 21.26 13.88 21.26 13.17 21.26 12.52 21.26 12.46 21.26 11.75 21.26 11.1 21.26 11.04 21.26 10.33 21.26 9.69 21.26 9.63 21.26 8.92 21.26 8.21 21.26 8.56 20.55Z" fill="#E68B38" fill-rule="evenodd" clip-rule="evenodd"/><rect x="8.21" y="14.7" width="0.47" height="6.5" fill="#A24F0D" fill-rule="evenodd" clip-rule="evenodd"/><rect x="23.38" y="14.7" width="0.47" height="6.5" fill="#A24F0D" fill-rule="evenodd" clip-rule="evenodd"/><path d="M7.5 16.3 8.44 15.35 9.33 16.3 8.44 17.18Z" fill="#70482F" fill-rule="evenodd" clip-rule="evenodd"/><path d="M22.68 16.3 23.62 15.35 24.56 16.3 23.62 17.18Z" fill="#70482F" fill-rule="evenodd" clip-rule="evenodd"/><path d="M14.94 10.92 15.83 9.51 15.83 9.51 16 9.09 17.07 10.92 16.77 11.16 16 9.86 15.29 11.16Z" fill="#190000" fill-rule="evenodd" clip-rule="evenodd"/><path d="M13.11 14.64 14 13.17 14 13.17 14.17 12.81 15.23 14.64 14.94 14.82 14.17 13.52 13.46 14.82Z" fill="#190000" fill-rule="evenodd" clip-rule="evenodd"/><path d="M16.83 14.64 17.66 13.17 17.66 13.17 17.89 12.81 18.96 14.64 18.6 14.82 17.89 13.52 17.12 14.82Z" fill="#190000" fill-rule="evenodd" clip-rule="evenodd"/><path d="M11.81 18.07 12.64 16.59 12.64 16.59 12.87 16.24 13.94 18.07 13.58 18.25 12.87 16.95 12.11 18.25Z" fill="#190000" fill-rule="evenodd" clip-rule="evenodd"/><path d="M14.94 18.07 15.83 16.59 15.83 16.59 16 16.24 17.07 18.07 16.77 18.25 16 16.95 15.29 18.25Z" fill="#190000" fill-rule="evenodd" clip-rule="evenodd"/><path d="M18.13 18.07 18.96 16.59 18.96 16.59 19.19 16.24 20.26 18.07 19.9 18.25 19.19 16.95 18.48 18.25Z" fill="#190000" fill-rule="evenodd" clip-rule="evenodd"/><path d="M10.81 31.59 11.69 30.11 11.69 30.11 11.87 29.76 12.93 31.59 12.64 31.77 11.87 30.53 11.16 31.77Z" fill="#190000" fill-rule="evenodd" clip-rule="evenodd"/><path d="M14.94 31.59 15.83 30.11 15.83 30.11 16 29.76 17.07 31.59 16.77 31.77 16 30.53 15.29 31.77Z" fill="#190000" fill-rule="evenodd" clip-rule="evenodd"/><path d="M18.72 31.59 19.55 30.11 19.55 30.11 19.78 29.76 20.85 31.59 20.55 31.77 19.78 30.53 19.07 31.77Z" fill="#190000" fill-rule="evenodd" clip-rule="evenodd"/><path d="M8.68 35.02 9.57 33.54 9.57 33.54 9.74 33.19 10.81 35.02 10.51 35.19 9.74 33.89 9.03 35.19Z" fill="#190000" fill-rule="evenodd" clip-rule="evenodd"/><path d="M12.93 35.02 13.76 33.54 13.76 33.54 14 33.19 15.06 35.02 14.7 35.19 14 33.89 13.23 35.19Z" fill="#190000" fill-rule="evenodd" clip-rule="evenodd"/><path d="M17.12 35.02 17.95 33.54 17.95 33.54 18.19 33.19 19.25 35.02 18.9 35.19 18.19 33.89 17.48 35.19Z" fill="#190000" fill-rule="evenodd" clip-rule="evenodd"/><path d="M21.32 35.02 22.14 33.54 22.14 33.54 22.38 33.19 23.44 35.02 23.15 35.19 22.38 33.89 21.67 35.19Z" fill="#190000" fill-rule="evenodd" clip-rule="evenodd"/><rect x="4.19" y="40.45" width="3.01" height="4.13" fill="#A24F0D" fill-rule="evenodd" clip-rule="evenodd"/><rect x="8.39" y="40.45" width="3.07" height="4.13" fill="#A24F0D" fill-rule="evenodd" clip-rule="evenodd"/><rect x="12.58" y="40.45" width="3.07" height="4.13" fill="#A24F0D" fill-rule="evenodd" clip-rule="evenodd"/><rect x="16.77" y="40.45" width="3.07" height="4.13" fill="#A24F0D" fill-rule="evenodd" clip-rule="evenodd"/><rect x="21.02" y="40.45" width="3.01" height="4.13" fill="#A24F0D" fill-rule="evenodd" clip-rule="evenodd"/><rect x="25.21" y="40.45" width="3.07" height="4.13" fill="#A24F0D" fill-rule="evenodd" clip-rule="evenodd"/><rect x="0.12" y="150.46" width="31.83" height="20.84" fill="#A24F0D" fill-rule="evenodd" clip-rule="evenodd"/><rect x="2.18" y="77.71" width="27.69" height="72.75" fill="#E68B38" fill-rule="evenodd" clip-rule="evenodd"/><rect x="2.18" y="96.9" width="27.69" height="53.56" fill="#A24F0D" fill-rule="evenodd" clip-rule="evenodd"/><rect x="2.18" y="97.96" width="27.69" height="52.5" fill="#E68B38" fill-rule="evenodd" clip-rule="evenodd"/><rect x="2.18" y="113.31" width="27.69" height="37.14" fill="#A24F0D" fill-rule="evenodd" clip-rule="evenodd"/><rect x="2.18" y="114.79" width="27.69" height="35.67" fill="#E68B38" fill-rule="evenodd" clip-rule="evenodd"/><rect x="2.18" y="132.56" width="27.69" height="17.89" fill="#A24F0D" fill-rule="evenodd" clip-rule="evenodd"/><rect x="2.18" y="133.98" width="27.69" height="16.48" fill="#E68B38" fill-rule="evenodd" clip-rule="evenodd"/><path d="M15.83 50.9 16.24 50.9 16.24 55.86 15.83 55.86 15.83 50.9ZM20.79 52.14 21.14 52.32 18.66 56.63 18.31 56.39 20.79 52.14ZM24.51 55.62 24.69 56.03 20.44 58.51 20.2 58.1 24.51 55.62ZM25.92 60.58 25.92 61 20.96 61 20.96 60.59 25.92 60.59ZM24.68 65.54 24.5 65.9 20.19 63.42 20.43 63.07 24.68 65.54ZM21.14 69.21 20.79 69.45 18.31 65.2 18.66 64.96 21.14 69.21ZM16.24 70.68 15.83 70.68 15.83 65.72 16.24 65.72 16.24 70.68ZM11.28 69.44 10.93 69.2 13.35 64.95 13.76 65.19 11.28 69.44ZM7.56 65.9 7.38 65.54 11.63 63.06 11.87 63.41 7.56 65.9ZM6.14 61 6.14 60.59 11.1 60.59 11.1 61 6.14 61ZM7.38 56.04 7.56 55.63 11.87 58.11 11.63 58.52 7.38 56.04ZM10.92 52.32 11.27 52.14 13.75 56.39 13.34 56.63 10.92 52.32Z" fill="#713F28" fill-rule="evenodd" clip-rule="evenodd"/><rect x="8.98" y="22.5" width="2.36" height="4.13" fill="#A24F0D" fill-rule="evenodd" clip-rule="evenodd"/><rect x="11.93" y="22.5" width="2.36" height="4.13" fill="#A24F0D" fill-rule="evenodd" clip-rule="evenodd"/><rect x="14.82" y="22.5" width="2.36" height="4.13" fill="#A24F0D" fill-rule="evenodd" clip-rule="evenodd"/><rect x="17.77" y="22.5" width="2.36" height="4.13" fill="#A24F0D" fill-rule="evenodd" clip-rule="evenodd"/><rect x="20.73" y="22.5" width="2.3" height="4.13" fill="#A24F0D" fill-rule="evenodd" clip-rule="evenodd"/><rect x="28.46" y="46.53" width="0.41" height="28.46" fill="#A24F0D" fill-rule="evenodd" clip-rule="evenodd"/><rect x="29.29" y="46.53" width="0.41" height="28.46" fill="#A24F0D" fill-rule="evenodd" clip-rule="evenodd"/><rect x="30.06" y="46.53" width="0.47" height="28.46" fill="#A24F0D" fill-rule="evenodd" clip-rule="evenodd"/><rect x="1.48" y="46.53" width="0.41" height="28.46" fill="#A24F0D" fill-rule="evenodd" clip-rule="evenodd"/><rect x="2.3" y="46.53" width="0.41" height="28.46" fill="#A24F0D" fill-rule="evenodd" clip-rule="evenodd"/><rect x="3.07" y="46.53" width="0.47" height="28.46" fill="#A24F0D" fill-rule="evenodd" clip-rule="evenodd"/><rect x="4.25" y="46.53" width="1.6" height="1.65" fill="#A24F0D" fill-rule="evenodd" clip-rule="evenodd"/><rect x="6.26" y="46.53" width="1.59" height="1.65" fill="#A24F0D" fill-rule="evenodd" clip-rule="evenodd"/><rect x="8.27" y="46.53" width="1.6" height="1.65" fill="#A24F0D" fill-rule="evenodd" clip-rule="evenodd"/><rect x="10.27" y="46.53" width="1.6" height="1.65" fill="#A24F0D" fill-rule="evenodd" clip-rule="evenodd"/><rect x="12.28" y="46.53" width="1.59" height="1.65" fill="#A24F0D" fill-rule="evenodd" clip-rule="evenodd"/><rect x="14.29" y="46.53" width="1.6" height="1.65" fill="#A24F0D" fill-rule="evenodd" clip-rule="evenodd"/><rect x="16.3" y="46.53" width="1.59" height="1.65" fill="#A24F0D" fill-rule="evenodd" clip-rule="evenodd"/><rect x="18.31" y="46.53" width="1.59" height="1.65" fill="#A24F0D" fill-rule="evenodd" clip-rule="evenodd"/><rect x="20.31" y="46.53" width="1.59" height="1.65" fill="#A24F0D" fill-rule="evenodd" clip-rule="evenodd"/><rect x="22.32" y="46.53" width="1.6" height="1.65" fill="#A24F0D" fill-rule="evenodd" clip-rule="evenodd"/><rect x="24.33" y="46.53" width="1.6" height="1.65" fill="#A24F0D" fill-rule="evenodd" clip-rule="evenodd"/><rect x="26.34" y="46.53" width="1.6" height="1.65" fill="#A24F0D" fill-rule="evenodd" clip-rule="evenodd"/><rect x="4.25" y="73.52" width="1.6" height="1.6" fill="#A24F0D" fill-rule="evenodd" clip-rule="evenodd"/><rect x="6.26" y="73.52" width="1.59" height="1.6" fill="#A24F0D" fill-rule="evenodd" clip-rule="evenodd"/><rect x="8.27" y="73.52" width="1.6" height="1.6" fill="#A24F0D" fill-rule="evenodd" clip-rule="evenodd"/><rect x="10.27" y="73.52" width="1.6" height="1.6" fill="#A24F0D" fill-rule="evenodd" clip-rule="evenodd"/><rect x="12.28" y="73.52" width="1.59" height="1.6" fill="#A24F0D" fill-rule="evenodd" clip-rule="evenodd"/><rect x="14.29" y="73.52" width="1.6" height="1.6" fill="#A24F0D" fill-rule="evenodd" clip-rule="evenodd"/><rect x="16.3" y="73.52" width="1.59" height="1.6" fill="#A24F0D" fill-rule="evenodd" clip-rule="evenodd"/><rect x="18.31" y="73.52" width="1.59" height="1.6" fill="#A24F0D" fill-rule="evenodd" clip-rule="evenodd"/><rect x="20.31" y="73.52" width="1.59" height="1.6" fill="#A24F0D" fill-rule="evenodd" clip-rule="evenodd"/><rect x="22.32" y="73.52" width="1.6" height="1.6" fill="#A24F0D" fill-rule="evenodd" clip-rule="evenodd"/><rect x="24.33" y="73.52" width="1.6" height="1.6" fill="#A24F0D" fill-rule="evenodd" clip-rule="evenodd"/><rect x="26.34" y="73.52" width="1.6" height="1.6" fill="#A24F0D" fill-rule="evenodd" clip-rule="evenodd"/><rect x="3.25" y="78.48" width="1.36" height="19.49" fill="#A24F0D" fill-rule="evenodd" clip-rule="evenodd"/><rect x="5.67" y="78.48" width="1.36" height="19.49" fill="#A24F0D" fill-rule="evenodd" clip-rule="evenodd"/><rect x="8.09" y="78.48" width="1.36" height="19.49" fill="#A24F0D" fill-rule="evenodd" clip-rule="evenodd"/><rect x="10.51" y="78.48" width="1.36" height="19.49" fill="#A24F0D" fill-rule="evenodd" clip-rule="evenodd"/><rect x="12.93" y="78.48" width="1.36" height="19.49" fill="#A24F0D" fill-rule="evenodd" clip-rule="evenodd"/><rect x="15.35" y="78.48" width="1.36" height="19.49" fill="#A24F0D" fill-rule="evenodd" clip-rule="evenodd"/><rect x="17.77" y="78.48" width="1.36" height="19.49" fill="#A24F0D" fill-rule="evenodd" clip-rule="evenodd"/><rect x="20.2" y="78.48" width="1.36" height="19.49" fill="#A24F0D" fill-rule="evenodd" clip-rule="evenodd"/><rect x="22.62" y="78.48" width="1.36" height="19.49" fill="#A24F0D" fill-rule="evenodd" clip-rule="evenodd"/><rect x="25.04" y="78.48" width="1.36" height="19.49" fill="#A24F0D" fill-rule="evenodd" clip-rule="evenodd"/><rect x="27.46" y="78.48" width="1.36" height="19.49" fill="#A24F0D" fill-rule="evenodd" clip-rule="evenodd"/><rect x="3.25" y="99.62" width="1.36" height="15.18" fill="#A24F0D" fill-rule="evenodd" clip-rule="evenodd"/><rect x="5.67" y="99.62" width="1.36" height="15.18" fill="#A24F0D" fill-rule="evenodd" clip-rule="evenodd"/><rect x="8.09" y="99.62" width="1.36" height="15.18" fill="#A24F0D" fill-rule="evenodd" clip-rule="evenodd"/><rect x="10.51" y="99.62" width="1.36" height="15.18" fill="#A24F0D" fill-rule="evenodd" clip-rule="evenodd"/><rect x="12.93" y="99.62" width="1.36" height="15.18" fill="#A24F0D" fill-rule="evenodd" clip-rule="evenodd"/><rect x="15.35" y="99.62" width="1.36" height="15.18" fill="#A24F0D" fill-rule="evenodd" clip-rule="evenodd"/><rect x="17.77" y="99.62" width="1.36" height="15.18" fill="#A24F0D" fill-rule="evenodd" clip-rule="evenodd"/><rect x="20.2" y="99.62" width="1.36" height="15.18" fill="#A24F0D" fill-rule="evenodd" clip-rule="evenodd"/><rect x="22.62" y="99.62" width="1.36" height="15.18" fill="#A24F0D" fill-rule="evenodd" clip-rule="evenodd"/><rect x="25.04" y="99.62" width="1.36" height="15.18" fill="#A24F0D" fill-rule="evenodd" clip-rule="evenodd"/><rect x="27.46" y="99.62" width="1.36" height="15.18" fill="#A24F0D" fill-rule="evenodd" clip-rule="evenodd"/><rect x="3.25" y="117.09" width="1.36" height="16.89" fill="#A24F0D" fill-rule="evenodd" clip-rule="evenodd"/><rect x="5.67" y="117.09" width="1.36" height="16.89" fill="#A24F0D" fill-rule="evenodd" clip-rule="evenodd"/><rect x="8.09" y="117.09" width="1.36" height="16.89" fill="#A24F0D" fill-rule="evenodd" clip-rule="evenodd"/><rect x="10.51" y="117.09" width="1.36" height="16.89" fill="#A24F0D" fill-rule="evenodd" clip-rule="evenodd"/><rect x="12.93" y="117.09" width="1.36" height="16.89" fill="#A24F0D" fill-rule="evenodd" clip-rule="evenodd"/><rect x="15.35" y="117.09" width="1.36" height="16.89" fill="#A24F0D" fill-rule="evenodd" clip-rule="evenodd"/><rect x="17.77" y="117.09" width="1.36" height="16.89" fill="#A24F0D" fill-rule="evenodd" clip-rule="evenodd"/><rect x="20.2" y="117.09" width="1.36" height="16.89" fill="#A24F0D" fill-rule="evenodd" clip-rule="evenodd"/><rect x="22.62" y="117.09" width="1.36" height="16.89" fill="#A24F0D" fill-rule="evenodd" clip-rule="evenodd"/><rect x="25.04" y="117.09" width="1.36" height="16.89" fill="#A24F0D" fill-rule="evenodd" clip-rule="evenodd"/><rect x="27.46" y="117.09" width="1.36" height="16.89" fill="#A24F0D" fill-rule="evenodd" clip-rule="evenodd"/><rect x="3.25" y="134.99" width="1.36" height="16.89" fill="#A24F0D" fill-rule="evenodd" clip-rule="evenodd"/><rect x="5.67" y="134.99" width="1.36" height="16.89" fill="#A24F0D" fill-rule="evenodd" clip-rule="evenodd"/><rect x="8.09" y="134.99" width="1.36" height="16.89" fill="#A24F0D" fill-rule="evenodd" clip-rule="evenodd"/><rect x="10.51" y="134.99" width="1.36" height="16.89" fill="#A24F0D" fill-rule="evenodd" clip-rule="evenodd"/><rect x="12.93" y="134.99" width="1.36" height="16.89" fill="#A24F0D" fill-rule="evenodd" clip-rule="evenodd"/><rect x="15.35" y="134.99" width="1.36" height="16.89" fill="#A24F0D" fill-rule="evenodd" clip-rule="evenodd"/><rect x="17.77" y="134.99" width="1.36" height="16.89" fill="#A24F0D" fill-rule="evenodd" clip-rule="evenodd"/><rect x="20.2" y="134.99" width="1.36" height="16.89" fill="#A24F0D" fill-rule="evenodd" clip-rule="evenodd"/><rect x="22.62" y="134.99" width="1.36" height="16.89" fill="#A24F0D" fill-rule="evenodd" clip-rule="evenodd"/><rect x="25.04" y="134.99" width="1.36" height="16.89" fill="#A24F0D" fill-rule="evenodd" clip-rule="evenodd"/><rect x="27.46" y="134.99" width="1.36" height="16.89" fill="#A24F0D" fill-rule="evenodd" clip-rule="evenodd"/><rect x="14.82" y="1" width="2.42" height="1.71" fill="#A24F0D" fill-rule="evenodd" clip-rule="evenodd"/><path d="M16 61.77C16.59 61.77 17 61.36 17 60.77 17 60.24 16.59 59.77 16 59.77 15.47 59.77 15 60.24 15 60.77 15 61.35 15.47 61.77 16 61.77L16 61.77Z" fill-rule="evenodd" clip-rule="evenodd"/><path d="M22.91 53.85 22.91 53.85 23.03 53.91C23.03 53.97 23.03 54.03 23.03 54.09L15.83 61.71C15.36 62.12 15 62.42 14.83 63.01 14.77 63.07 14.71 63.13 14.65 63.07 14.65 63.07 14.59 63.07 14.59 63.01 14.53 62.95 14.47 62.89 14.41 62.83L14.41 62.83C14.35 62.77 14.29 62.77 14.17 62.77 14.11 62.77 14.05 62.71 14.05 62.65L14.05 62.65 14.05 62.65C14.05 62.53 14.05 62.47 13.99 62.41 13.99 62.35 13.93 62.29 13.81 62.23 13.75 62.23 13.75 62.17 13.75 62.11 13.75 62.05 13.81 62.05 13.81 62.05L13.81 62.05 13.81 62.05C14.34 61.81 14.81 61.52 15.11 61.05L15.11 61.05 15.11 61.05 22.79 53.85C22.79 53.79 22.91 53.79 22.91 53.85L22.91 53.85Z" fill-rule="evenodd" clip-rule="evenodd"/><path d="M13.34 57.99 13.52 58.17C13.94 58.17 14.35 58.23 14.52 58.41 14.7 58.53 14.7 58.76 14.52 58.88 14.52 58.94 14.46 59 14.4 59L17.47 61.89C17.76 61.89 18 61.95 18.18 62.13 18.3 62.25 18.3 62.42 18.18 62.54 17.94 62.78 17.94 62.78 17.71 63.01 17.59 63.13 17.42 63.13 17.3 63.01 17.12 62.83 17.12 62.6 17.06 62.3L14.17 59.23C14.17 59.23 14.11 59.29 14.05 59.35 13.93 59.47 13.75 59.47 13.58 59.35 13.4 59.17 13.4 58.76 13.34 58.34L13.16 58.1 12.75 58.1 12.75 57.57 13.34 57.57 13.34 57.99Z" fill-rule="evenodd" clip-rule="evenodd"/><path d="M13.4 57.93 13.58 58.11C13.76 58.11 13.99 58.11 14.17 58.11 14.35 58.17 14.52 58.23 14.64 58.35 14.7 58.41 14.76 58.53 14.76 58.64 14.76 58.76 14.7 58.88 14.64 58.93 14.58 58.99 14.58 58.99 14.58 58.99L17.53 61.77C17.65 61.83 17.77 61.83 17.88 61.83 18.06 61.89 18.18 61.95 18.24 62.07L18.24 62.07C18.36 62.13 18.36 62.25 18.36 62.31 18.36 62.43 18.36 62.55 18.24 62.6L18.24 62.6 17.83 63.07 17.83 63.07C17.71 63.13 17.59 63.19 17.54 63.19 17.42 63.19 17.3 63.13 17.24 63.07L17.24 63.07 17.24 63.07 17.24 63.07C17.12 62.95 17.06 62.83 17.06 62.72 17 62.6 17 62.48 17 62.37L14.17 59.42 14.17 59.42C14.05 59.54 13.93 59.6 13.82 59.6 13.76 59.6 13.64 59.54 13.52 59.42L13.52 59.42C13.4 59.3 13.34 59.18 13.28 58.95 13.28 58.77 13.28 58.6 13.28 58.42L13.1 58.24 12.75 58.24 12.63 58.24 12.63 58.1 12.63 57.57 12.63 57.45 12.75 57.45 13.34 57.45 13.4 57.45 13.4 57.57 13.4 57.93ZM13.46 58.28 13.22 58.04 13.22 57.98 13.22 57.98 13.22 57.68 12.87 57.68 12.87 58.03 13.16 58.03 13.22 58.03 13.22 58.03 13.46 58.28 13.46 58.34C13.46 58.58 13.46 58.75 13.52 58.93 13.52 59.05 13.58 59.17 13.7 59.29L13.7 59.29C13.7 59.35 13.76 59.35 13.82 59.35 13.88 59.35 13.94 59.35 14 59.29L14.06 59.23 14.06 59.17 14.12 58.99 14.24 59.11 17.19 62.24 17.19 62.3C17.19 62.42 17.19 62.54 17.25 62.65 17.25 62.77 17.31 62.83 17.37 62.89L17.37 62.95C17.43 62.95 17.49 63.01 17.55 63.01 17.61 63.01 17.67 62.95 17.67 62.95L17.67 62.89 18.14 62.48 18.14 62.48C18.14 62.42 18.2 62.36 18.2 62.3 18.2 62.3 18.14 62.24 18.14 62.18L18.14 62.18 18.14 62.18C18.08 62.12 17.96 62.06 17.9 62.06 17.77 62 17.66 62 17.48 62L17.42 61.94 14.35 59.05 14.17 58.93 14.35 58.87C14.41 58.87 14.47 58.87 14.47 58.81 14.53 58.75 14.53 58.69 14.53 58.63 14.53 58.57 14.53 58.51 14.47 58.45L14.47 58.45C14.41 58.39 14.23 58.33 14.12 58.33 13.94 58.27 13.77 58.27 13.53 58.27L13.46 58.27Z"/></g></svg>