<svg width="248.71" height="838.62" viewBox="0 0 248.71 838.62" xmlns="http://www.w3.org/2000/svg" xmlns:xlink="http://www.w3.org/1999/xlink" xml:space="preserve" overflow="hidden"><defs></defs><linearGradient x1="372.312" y1="69.6223" x2="363.96" y2="102.168" gradientUnits="userSpaceOnUse" id="SVGID_1_" gradientTransform="matrix(-0.9944 0.1055 0.1055 0.9944 522.328 69.951)"><stop offset="0.2206" stop-color="#FCE8D9"/><stop offset="1" stop-color="#F4C7BD"/></linearGradient><g id="g110131_1_" transform="matrix(1.06711 0 0 1.06711 -369.67 34.5764)"><g id="path85839_1_"><path d="M494.94 696.6C494.94 696.6 492.59 738.24 493.09 745.21 493.59 752.18 496.38 752.96 508.08 752.96L566.13 752.96C578.27 752.96 574.28 739.27 571.59 734.08 568.9 728.89 543.3 721.62 539.36 718 535.43 714.37 534.47 695.57 534.47 695.57L494.94 696.6Z" fill="#FBB383"/></g><g id="path85841_1_"><path d="M534.47 695.57 499.93 696.47C496.96 719.87 524.59 707.16 535 701.87 534.61 698.3 534.47 695.57 534.47 695.57L534.47 695.57Z" fill="#FB8D52"/></g><g id="path85843_1_"><path d="M515.33 695.9 494.94 696.59C491.92 771.5 482.13 749.54 557.28 752.95 564.21 732.03 522.82 731.42 515.94 721.23 514.49 713.06 512.19 700.96 515.33 695.9Z" fill="#FB8D52"/></g><g id="path85845_1_"><path d="M378.37 696.6C375.44 770.03 365.36 750.12 438.96 752.96 451.1 752.96 448.42 736.38 445.73 731.19 428.25 715.24 417.06 728.02 420.96 696.28L378.37 696.6Z" fill="#FBB383"/></g><g id="path85847_1_"><path d="M420.94 696.31C413.5 696.36 385.25 696.54 378.36 696.6 378.36 696.6 378.07 701.85 377.71 708.8 398.41 714.79 411.95 713.97 420.6 711.24 419.98 704.77 420.93 696.43 420.94 696.31L420.94 696.31Z" fill="#FB8D52"/></g><g id="path85849_1_"><path d="M378.36 696.61C378.36 696.67 376.01 738.23 376.51 745.2 375.44 756.01 393.52 752.32 402.6 752.95 415.57 739.27 391.15 735.31 387.43 723.17 385.88 716.85 387.83 701.86 388.15 698.74 388.15 698.75 383.68 697.08 378.36 696.61L378.36 696.61Z" fill="#FB8D52"/></g><g id="path85851_1_"><path d="M374.04 420.29 370.01 696.06C370.01 696.06 389.75 715.71 423.8 702.04 427.19 650.5 455.96 490 455.96 490L489.12 698.53C489.12 698.53 515.03 706.47 539.69 696.25 539.49 663.34 534.53 428.53 534.53 428.53L374.04 420.29Z" fill="#39525B"/></g><g id="path74951-7_1_"><path d="M456.96 493.18C453.78 493.96 451.54 489.94 455.43 489.51 462.76 490.33 471.26 484.65 476.03 481.98 486.93 482.77 461.55 494.37 456.96 493.18Z" fill="#27383E"/></g><g id="path85853_1_"><path d="M461.7 216.08C351.66 223.59 378.21 369.12 368.38 430.54 391.37 441.21 514.34 446.08 542.39 435.44 542.71 392.18 537.51 305.32 530.39 262.87 522.69 252.84 514.62 242.94 509.38 238.22 494.2 225.6 472.9 216.63 461.7 216.08Z" fill="#83BACE"/></g><g id="path107555_1_"><path d="M490.84 344.04C475.74 330.64 466.28 335.31 450.68 339.71 450.68 339.71 447.73 356.28 449.11 357.33 450.48 358.38 479.63 359.43 480.69 358.94 481.74 358.46 490.84 344.04 490.84 344.04L490.84 344.04Z" fill="#FBB383"/></g><g id="path105299_1_"><path d="M516.42 339.83C501.65 334.52 483.23 332.79 469.19 353.11 450.84 378.18 476.43 390.15 497.63 383.55 525.4 377.44 533.4 359.5 516.42 339.83L516.42 339.83Z" fill="#FBB383"/></g><g id="path107218_1_"><path d="M462.77 371.38C457.6 368.99 463.7 358.71 467.68 352.17 474.12 341.98 490.05 332.58 492.37 336.58 493.83 339.77 477.58 341.55 470.7 354.07 466.42 360.86 464.18 365.32 464.55 369.43 464.65 370.47 463.82 371.38 462.77 371.38Z" fill="#FB8D52"/></g><g id="path92092_1_"><path d="M453.26 340.76C453.26 340.76 471.43 348.39 483.19 351.34 507.57 356.67 525.24 356.2 505.69 381.23 491.61 395.87 457.3 382.33 445.14 370.82 438.12 364.69 453.26 340.76 453.26 340.76Z" fill="#FBB383"/></g><g id="path109847_1_"><path d="M493.08 388.97C490.97 389.01 490.67 385.74 492.78 385.43 503.76 385.25 515.25 368.42 511.07 360.96 507.02 356.83 490.6 355.34 482.75 353.08 481.85 352.31 464.54 349.4 465.85 345.72 466.19 344.79 467.21 344.32 468.14 344.65 482.33 351.56 503.43 350.71 513.79 358.64 520.37 369.48 506.4 388.36 493.08 388.97Z" fill="#FB8D52"/></g><g id="path85855_1_"><path d="M461.7 216.08C456.3 216.09 447.96 217.37 438.78 220.44 434.07 228.01 435.75 240.16 460.26 247.05L474.73 260.17 481.84 244.69C481.84 244.69 494.24 240.96 492.58 226.94 479.01 220.24 470.38 216.42 461.7 216.08L461.7 216.08Z" fill="#567A88"/></g><g id="path85867_1_"><path d="M447.19 205.67 446.93 227.35C451.29 232.06 477 247.94 483.22 230.67 483.22 230.67 480.56 211.59 480.56 211.59L447.19 205.67Z" fill="#FB8D52"/></g><g id="path85913_1_"><path d="M511.5 380.89C508.76 380.68 507.17 384.16 505.89 386.07 504.59 388.09 505.17 390.76 507.18 392.06 507.23 392.09 541.75 414.37 541.81 414.39L541.4 399.31C540.47 398.95 512.01 379.59 511.5 380.89L511.5 380.89ZM437.83 381.4C437 381.38 436.15 381.61 435.39 382.1L400.82 404.4C397.08 406.73 399.6 410.99 401.59 413.58 402.89 415.6 405.56 416.17 407.58 414.87L442.15 392.57C444.17 391.27 444.74 388.6 443.44 386.58 442.13 384.68 440.6 381.18 437.83 381.4L437.83 381.4Z" fill="#567A88"/></g><g id="path86418_1_"><path d="M454.97 334.6C455.58 342.89 453.76 366.08 444.34 374.46 431.12 375.92 358.76 387.85 348.48 357.26 341.09 342.51 355.53 306.68 361.05 293.75 375.48 259.92 413.72 233.09 413.72 233.09 435.6 262.23 409.05 310.46 405.94 331.74L454.97 334.6Z" fill="#83BACE"/></g><g id="path91698_1_"><path d="M395.75 380.02C383.98 380.51 355.61 375.52 355.46 366.53 356.08 365.76 357.21 365.65 357.97 366.27 373.61 382.43 429.5 374.46 443.44 372.76 451.21 365.44 453.7 346.29 453.18 336.27L405.83 333.5C405.3 333.47 404.81 333.2 404.5 332.78 403.31 331.3 410.51 306.91 418.74 280.62 419.13 277.19 423.84 278.71 422.13 281.74 415.27 302.54 409.84 323.52 408.18 330.07L455.07 332.81C458.59 332.53 456.37 352.24 453.84 361.43 449.9 371.14 446.61 375.32 444.56 376.22 443.24 376.39 414.52 380.02 395.75 380.02Z" fill="#567A88"/></g><g id="path102320_1_"><path d="M510.73 336.18C510.73 336.18 517.2 367.52 524.54 373.9 587.5 371.38 561.85 303.53 547.06 272.49 541.91 262.48 512.66 238.38 506.41 235.84 500.16 233.3 512.51 270.86 515.14 277.8 517.77 284.74 529.11 330.71 529.11 330.71L510.73 336.18Z" fill="#83BACE"/></g><g id="path104939_1_"><path d="M524.54 375.68C515.45 370.75 510.02 339.73 508.98 336.54 508.79 335.63 509.33 334.73 510.22 334.47L526.97 329.48C524.92 321.21 515.75 284.45 513.47 278.43 512.89 277.35 512.73 275.66 514.18 275.18 519.62 274.52 529.8 330.76 530.84 330.28 531.07 331.2 530.53 332.15 529.62 332.42L512.82 337.43C514.84 346.68 520.05 366.63 525.21 372.08 539.9 371.12 549.54 366.84 556.42 358.27 557.04 357.5 558.16 357.38 558.93 357.99 559.7 358.61 559.82 359.73 559.21 360.5 551.52 370.08 540.76 374.79 524.54 375.68Z" fill="#567A88"/></g></g><path d="M224.06 185.92C224.71 193.55 224.67 201.27 223.52 209.03 220.25 231.04 207.41 251.48 190.75 260.63 180.27 266.39 168.87 267.76 157.74 268.4 129.65 270.01 100.96 267.27 75.54 254.21 56.49 244.42 34.03 220.83 32.61 192.71 31.63 173.38 40.31 154.59 48.67 137.3 63.3 107.05 79.44 75 104.66 59.27 129.24 43.94 156.35 46.7 177.42 64.42 202.26 85.31 209.33 116.36 217.64 150.93 220.36 162.3 223.04 174.01 224.06 185.92Z" fill="#F9B799"/><g><path d="M89.82 175.18C89.47 176.38 87.53 176.75 85.5 175.99 83.47 175.24 82.11 173.65 82.47 172.45 82.82 171.25 84.76 170.88 86.79 171.63 88.82 172.4 90.18 173.98 89.82 175.18Z" fill="#F4C7BD"/><path d="M102.49 181.49C102.14 182.69 100.2 183.06 98.17 182.31 96.14 181.56 94.78 179.97 95.14 178.77 95.49 177.57 97.43 177.2 99.46 177.96 101.49 178.72 102.84 180.29 102.49 181.49Z" fill="#F4C7BD"/><path d="M92.76 185.4C92.41 186.6 90.47 186.97 88.44 186.22 86.41 185.47 85.05 183.88 85.41 182.68 85.76 181.48 87.7 181.11 89.73 181.86 91.76 182.61 93.12 184.2 92.76 185.4Z" fill="#F4C7BD"/></g><g><path d="M108.54 149.33C115.7 144.66 124.55 147.81 129.55 154.82 134.76 162.13 136.36 172.55 137.03 182.61 137.07 183.2 137.1 183.85 136.82 184.36 136.49 184.99 135.83 185.2 135.25 185.33 125.07 187.74 114.61 187.01 105.11 183.22 98.14 180.44 95.22 175.64 95.16 170.34 95.06 162.92 100.61 154.5 108.54 149.33Z" fill="#FFFFFF"/><g><path d="M124.47 185.39C128.42 181.42 129.11 174.12 126 169.09 122.89 164.06 117.17 163.2 113.22 167.17 109.27 171.14 108.58 178.44 111.69 183.47 114.8 188.5 120.52 189.36 124.47 185.39Z" fill="#8C7257"/><path d="M121.93 183.91C123.35 182.48 123.6 179.85 122.48 178.04 121.36 176.23 119.3 175.92 117.88 177.35 116.46 178.78 116.21 181.41 117.33 183.22 118.44 185.03 120.5 185.34 121.93 183.91Z" fill="#3A3129"/><path d="M114.32 181.85C114.26 181.89 114.19 181.94 114.16 182.02 114.1 182.18 114.19 182.36 114.28 182.5 114.58 182.95 114.92 183.36 115.34 183.61 115.76 183.86 116.25 183.95 116.68 183.74 117.08 183.55 117.39 183.12 117.66 182.7 117.97 182.21 119.99 178.51 118.62 178.79 117.96 178.93 117.07 179.88 116.48 180.3 115.77 180.82 115.04 181.33 114.32 181.85Z" fill="#FFFFFF" opacity="0.2"/></g><g><path d="M95.09 170.36C94.97 168.7 95.14 167.02 95.53 165.39 95.91 163.76 96.48 162.16 97.22 160.65 98.72 157.63 100.76 154.89 103.15 152.51 103.73 151.9 104.37 151.34 105 150.77 105.66 150.24 106.31 149.69 107.01 149.22 108.33 148.21 109.96 147.31 111.63 146.78 115.01 145.63 118.78 145.97 122.02 147.31 123.64 147.99 125.13 148.94 126.47 150.05 127.81 151.15 129.03 152.41 130.04 153.81 131.05 155.2 131.94 156.66 132.67 158.2 133.06 158.95 133.37 159.74 133.7 160.52 133.98 161.32 134.28 162.1 134.51 162.91 135.51 166.12 136.13 169.41 136.55 172.7 136.9 176 137.1 179.31 137.1 182.61L136.98 182.62C136.5 176.06 135.74 169.46 133.62 163.21 133.09 161.65 132.47 160.13 131.73 158.66 131.01 157.18 130.14 155.78 129.16 154.47 128.19 153.15 127.03 151.97 125.75 150.95 124.48 149.93 123.07 149.05 121.56 148.43 118.56 147.16 115.11 146.81 111.98 147.84 110.42 148.33 108.96 149.1 107.64 150.08 106.3 151.02 105.01 152.06 103.83 153.19 101.44 155.44 99.37 158.05 97.81 160.94 96.24 163.82 95.24 167.05 95.23 170.34L95.09 170.36Z" fill="#5E5149"/></g></g><g><path d="M201.11 152.51C195.47 147.62 187.39 149.98 182.2 156.25 176.78 162.78 174.12 172.49 172.3 181.93 172.19 182.48 172.09 183.09 172.27 183.6 172.48 184.22 173.02 184.46 173.51 184.63 182.06 187.6 191.22 187.63 199.94 184.71 206.33 182.57 209.46 178.25 210.16 173.25 211.15 166.24 207.36 157.93 201.11 152.51Z" fill="#FFFFFF"/><g><path d="M210.11 173.24C210.49 170.23 210.07 167.15 209.06 164.3 208.08 161.44 206.56 158.76 204.69 156.39 203.75 155.2 202.73 154.08 201.6 153.07 200.49 152.05 199.25 151.14 197.82 150.64 194.98 149.57 191.77 149.92 189.02 151.11 186.26 152.34 183.85 154.3 181.98 156.67 180.08 159.03 178.6 161.7 177.38 164.47 174.95 170.04 173.53 175.98 172.36 181.93L172.26 181.91C172.65 178.89 173.22 175.9 173.89 172.92 174.63 169.96 175.51 167.02 176.67 164.16 177.82 161.3 179.34 158.56 181.27 156.1 183.2 153.62 185.7 151.52 188.62 150.19 191.56 148.94 195.05 148.59 198.14 149.78 199.68 150.33 201.05 151.36 202.18 152.42 203.34 153.47 204.37 154.65 205.3 155.9 207.16 158.39 208.64 161.17 209.56 164.12 210.45 167.07 210.79 170.24 210.21 173.24L210.11 173.24Z" fill="#5E5149"/></g><g><path d="M198.66 184.5C202.74 180.38 203.66 173.22 200.73 168.52 197.8 163.82 192.12 163.35 188.04 167.47 183.96 171.59 183.04 178.75 185.97 183.45 188.9 188.16 194.58 188.63 198.66 184.5Z" fill="#8C7257"/><path d="M196.05 183.59C197.52 182.1 197.85 179.53 196.8 177.83 195.74 176.14 193.7 175.97 192.23 177.45 190.76 178.94 190.43 181.51 191.48 183.21 192.53 184.9 194.58 185.07 196.05 183.59Z" fill="#3A3129"/><path d="M188.65 181.71C188.59 181.76 188.52 181.81 188.48 181.89 188.41 182.05 188.5 182.22 188.58 182.35 188.86 182.77 189.19 183.15 189.6 183.37 190.01 183.59 190.5 183.64 190.94 183.41 191.35 183.19 191.67 182.76 191.95 182.33 192.28 181.83 194.42 178.1 193.04 178.46 192.37 178.64 191.46 179.63 190.86 180.07 190.12 180.62 189.39 181.16 188.65 181.71Z" fill="#FFFFFF" opacity="0.2"/></g></g><path d="M171.35 193.67C173.25 196 175.91 198.32 175.51 201.79 175.3 203.64 174.18 205.26 172.86 206.22 171.54 207.18 170.03 207.57 168.55 207.8 166.74 208.09 164.84 208.15 163.3 207.14 160.84 205.54 159.95 201.7 159.9 198.13 159.82 192.11 161.65 184.74 165.39 180.38 167.53 184.72 168.36 190.02 171.35 193.67Z" fill="url(#SVGID_1_)"/><path d="M171.75 200.96C173.4 201.78 175.29 201.5 177.05 201.01 178.49 200.61 179.94 200.05 181.15 198.94 182.35 197.83 183.28 196.09 183.28 194.23 181.89 195.98 179.76 197.07 177.94 197.97 175.93 198.96 173.75 199.98 171.75 200.96Z" opacity="0.07"/><path d="M133.06 131.73C123.86 137.76 114.01 142 103.99 144.25 90.52 147.28 77.1 149.07 72.52 168.97 70.77 176.57 71.66 184.8 74.9 191.07 71.09 183.59 68 174.43 68.99 165.23 69.98 156.03 74.58 146.84 81.43 142.75 86.92 139.48 93.06 139.7 98.95 139.48 110.7 139.04 121.61 136.2 133.06 131.73Z" opacity="0.15"/><path d="M194.19 95.5C193.75 98.09 202.96 111.55 204.25 114.67 207 121.33 209.74 128.69 210.98 136.19 213.41 150.92 215.76 166.61 214.59 182.15 219.18 162.08 224.31 140.93 221.08 121.23 220.48 117.54 219.55 113.83 217.56 111.12 215.75 108.66 213.22 107.23 210.75 105.86 205.33 102.85 199.59 98.51 194.19 95.5Z" opacity="0.15"/><g><path d="M54.38 150.59C51.17 146.03 46.63 142.81 41.81 142.48 36.99 142.15 31.98 144.96 29.38 150.11 27.39 154.06 26.91 158.92 26.72 163.6 26.28 174.42 27.44 186.32 33.54 193.9 39.61 201.44 48.85 202.68 57.33 203.17L54.38 150.59Z" fill="#F4B68C"/><path d="M46.56 172.4C46.56 178.13 44.24 182.78 41.37 182.78 38.5 182.78 36.18 178.13 36.18 172.4 36.18 166.67 38.5 162.02 41.37 162.02 44.24 162.02 46.56 166.66 46.56 172.4Z" fill="#F4C7BD"/></g><g><path d="M104.84 126.87C107.06 124.58 109.71 122.66 112.6 121.16 115.51 119.66 118.74 118.75 122.06 118.43 125.36 118.1 128.9 118.22 132.04 119.63 132.8 120.04 133.56 120.37 134.3 120.84 135.02 121.33 135.75 121.83 136.36 122.49 137.63 123.74 138.51 125.47 138.52 127.17L138.2 127.27C136.34 124.6 133.71 123.7 130.85 122.81 129.43 122.44 128.05 121.99 126.6 121.7 125.89 121.5 125.15 121.42 124.42 121.29 123.68 121.23 122.94 121.15 122.19 121.14 120.69 121.14 119.18 121.27 117.69 121.55 116.94 121.66 116.2 121.87 115.46 122.03 114.74 122.26 113.98 122.44 113.27 122.73 110.36 123.74 107.61 125.28 105.06 127.14L104.84 126.87Z" fill="#BC5D1D"/></g><path d="M161.85 49.35C163.57 43.84 159.55 38.22 155.02 37.54 150.49 36.86 145.9 39.53 141.62 42.13 134.4 46.51 127.18 50.89 119.97 55.27 121.2 48.44 123.08 41.74 125.54 35.33 112.54 31.69 98.8 40.52 86.52 49.04 88.42 40.11 94.3 32.73 100.99 28.52 107.68 24.31 115.12 22.89 122.38 22.35 133.65 21.52 144.88 22.7 155.64 25.81 159.17 26.83 162.95 27.01 164.41 31.35 166.28 36.97 163.52 44.01 161.85 49.35Z" fill="#FFFFFF" opacity="0.1"/><path d="M218.05 54.96C223.86 57.37 228.75 62.56 231.56 69.29 234.37 76.02 235.07 84.23 233.5 91.98 230.95 84.56 227.5 77.69 223.31 71.66 222.84 75.73 222.93 79.84 223.59 83.76 218.9 83.83 214.97 80.06 211.97 75.85 206.3 67.89 204.81 49.46 218.05 54.96Z" fill="#FFFFFF" opacity="0.1"/><path d="M54.73 137.03C54.25 136.51 53.71 136.07 53.07 135.76 49.18 133.87 47.26 136.24 44.94 140.47 42.18 145.48 40.64 152.32 39.7 159.06 38.15 163.16 37.31 167.74 37.53 171.73 37.63 173.49 37.94 175.23 38.37 176.92 38.28 183.76 38.75 190.75 39.2 197.64 35.99 194.1 32.34 191.69 28.21 190.02 26.27 185.17 23.73 180.74 21.82 175.85 16.04 161 16.96 142.96 19.08 125.92 20.94 110.97 23.29 95.49 27.26 80.96 29.79 71.67 35.06 64.33 39.94 56.49 49.98 40.32 63.47 28 78 19.17 106.83 1.65 140.95-4.18 170.96 3 187.71 7 204.71 13.21 208.7 34.91 224.87 31.24 237.16 50.96 243.78 68.78 250.41 86.6 249.58 108.11 245.74 128.17 241.69 149.29 233.05 171.64 217.21 181.31 218.39 165.76 216.03 150.07 213.6 135.35 212.37 127.86 209.62 120.49 206.87 113.83 205.58 110.71 196.37 97.25 196.81 94.66 194.71 107.04 191.27 116.61 184.76 124.81 179.35 121.36 172.39 120.86 166.01 122.96 163.8 123.69 161.69 124.95 159.66 126.42 157.63 126.53 155.74 126.97 153.97 127.68 149.93 126.59 145.68 126.84 141.89 129.09 139.63 130.44 137.28 131.77 135.05 133.31 135.27 132.51 135.5 131.71 135.68 130.89 126.48 136.92 116.63 141.16 106.61 143.41 104.18 143.96 101.75 144.46 99.38 145.05 95.81 142.97 91.73 141.99 87.65 142.52 85.96 142.74 84.27 142.79 82.59 142.9 81.77 142.83 80.94 142.8 80.12 142.7 79.43 142.62 78.74 142.48 78.05 142.37 72.51 135.52 63.76 133.23 55.26 136.73 55.09 136.79 54.92 136.94 54.73 137.03Z" fill="#110802"/><g id="path8693_1_"><path d="M154.41 242.25C148.83 241.66 138.13 243.3 138.25 238.49 138.57 237.49 139.64 236.94 140.64 237.26 146.6 239.17 164.03 238.38 171.07 237.73 172.11 237.64 173.04 238.4 173.14 239.45 172.97 243.45 161.48 241.53 154.41 242.25Z" fill="#FB8D52"/></g></svg>