<svg width="84.95" height="49.05" viewBox="0 0 84.95 49.05" xmlns="http://www.w3.org/2000/svg" xmlns:xlink="http://www.w3.org/1999/xlink" xml:space="preserve" overflow="hidden"><defs></defs><g><path d="M84.95 28.55 49.44 49.05 0 20.5 35.5 0Z" fill="#EBEEFC"/><path d="M75.63 24.89C74.6 24.78 74 25.15 73.24 25.52 71.69 26.28 70.16 27.07 68.64 27.86 65.43 29.53 62.29 31.25 59.29 33.04 56.38 34.78 53.58 36.59 50.99 38.49 48.76 40.13 46.29 41.85 44.98 43.81 46.55 41.79 49.25 39.98 51.63 38.27 53.88 36.66 56.28 35.11 58.77 33.61 61.43 32.01 64.21 30.48 67.04 28.98 68.28 28.32 69.53 27.67 70.79 27.03 71.51 26.66 72.23 26.3 72.96 25.93 73.32 25.75 73.69 25.57 74.05 25.39 75.15 25.1 75.32 25.14 74.55 25.52 74.3 25.74 73.98 25.95 73.6 26.15 72.77 26.45 71.98 26.82 71.23 27.22 70.84 27.38 70.47 27.54 70.15 27.7 68.84 28.34 67.53 28.99 66.24 29.65 63.29 31.15 60.42 32.7 57.72 34.35 52.98 37.25 48.82 40.45 45.78 44.04 45.68 44.16 45.92 44.25 46.09 44.17 47.48 43.52 48.62 42.72 49.7 41.88 48.65 43.02 47.8 44.22 47.27 45.5 47.2 45.66 47.54 45.77 47.75 45.66 48.6 45.2 49.38 44.69 50.12 44.15 50.07 44.29 50.03 44.44 50.01 44.58 49.98 44.89 50.82 44.89 50.85 44.58 50.88 44.32 50.99 44.07 51.15 43.83 55.74 41.3 60.27 38.73 64.29 35.89 65.52 35.02 66.73 34.14 67.97 33.28 71.26 31.57 74.54 29.86 77.78 28.11 78.13 27.92 77.68 27.59 77.28 27.73 75.96 28.19 74.74 28.7 73.59 29.27L76.35 27.52C76.57 27.38 76.29 27.16 76 27.26 73.24 28.16 71.06 29.65 68.85 30.94 66.22 32.48 63.66 34.07 61.17 35.69 59.78 36.59 58.42 37.51 57.07 38.44 55.9 39.14 54.78 39.87 53.75 40.64 52.75 41.38 51.5 42.25 50.72 43.18 49.89 43.82 49.04 44.45 48.11 45.01 50.04 41.17 54.72 38.03 59.4 35.17 62.06 33.55 64.86 32 67.7 30.48 70.46 29.01 73.42 27.62 75.75 25.91 75.91 25.8 75.78 25.58 75.48 25.63 75.16 25.69 74.84 25.77 74.53 25.86 74.95 25.61 75.34 25.35 75.71 25.07 75.8 25.01 75.79 24.9 75.63 24.89ZM59.57 37.69C58.07 38.65 56.58 39.6 55.04 40.54 54.9 40.63 54.75 40.71 54.6 40.8 55.16 40.4 55.74 40 56.33 39.62 57.37 38.95 58.46 38.31 59.57 37.69ZM64.26 35.31C60.51 38.04 56.32 40.5 51.99 42.92 52.17 42.75 52.36 42.59 52.55 42.43 53 42.16 53.5 41.91 53.97 41.65 54.99 41.08 55.94 40.48 56.89 39.87 59.06 38.5 61.21 37.13 63.38 35.75 63.63 35.59 63.88 35.43 64.13 35.27 64.32 35.17 64.51 35.07 64.7 34.98 64.56 35.09 64.41 35.2 64.26 35.31ZM68.26 31.78C70.16 30.65 72.09 29.34 74.3 28.34 71.44 30.16 68.57 31.98 65.71 33.79 64.31 34.52 62.91 35.24 61.52 35.98 63.7 34.55 65.95 33.15 68.26 31.78ZM46.58 43.64C49.78 40.02 54.12 36.8 59.02 33.89 61.59 32.37 64.3 30.92 67.07 29.52 67.27 29.42 67.48 29.31 67.69 29.21 65.11 30.65 62.64 32.15 60.27 33.71 57.88 35.28 55.6 36.91 53.39 38.57 51.2 40.24 49.27 42.21 46.58 43.64ZM66.78 30.53C64.49 31.76 62.24 33 60.06 34.3 62.31 32.82 64.64 31.38 67.07 30 68.27 29.32 69.49 28.66 70.74 28.01 71.93 27.39 73.15 26.66 74.59 26.21 72.24 27.78 69.41 29.12 66.78 30.53Z" fill="#ACBF00"/><path d="M50.09 21.64C49.24 22.07 49.44 23.47 49.43 24.03 49.41 25.14 49.63 26.25 50.05 27.33 50.69 28.98 51.79 30.57 53.18 32.07 49.22 30.1 45.6 27.9 42.44 25.51 42.26 25.38 41.86 25.55 42.03 25.69 44.89 28.1 48.13 30.27 51.79 32.21 47.25 31.7 42.75 31.1 38.29 30.4 37.93 30.34 37.5 30.61 37.75 30.8 39.52 32.16 42.07 34.2 45.19 34.51 48.83 34.87 52.44 33.93 56.07 34.64 56.27 34.68 56.47 34.62 56.59 34.54 56.93 34.69 57.28 34.84 57.63 34.99 58.18 35.22 58.66 34.78 58.46 34.51 57.38 32.99 56.83 31.3 56.09 29.72 55.43 28.32 54.78 26.91 54.12 25.51 53.86 24.99 52.21 20.55 50.09 21.64ZM48.16 33.96C46.03 34.05 44.42 33.96 42.73 33.14 41.51 32.54 40.41 31.86 39.4 31.15 44.01 31.85 48.65 32.48 53.33 33.02 53.86 33.28 54.39 33.54 54.93 33.79 54.99 33.84 55.04 33.89 55.1 33.94 52.79 33.71 50.52 33.85 48.16 33.96ZM51.42 22.71C51.65 22.97 51.81 23.26 51.98 23.53 52.27 23.99 52.52 24.47 52.76 24.94 53.28 25.96 53.76 26.99 54.25 28.02 55.17 29.94 56.38 31.9 57.06 33.87 56.53 33.64 56.02 33.41 55.5 33.17 53.94 31.69 52.57 30.16 51.66 28.49 51.14 27.54 50.76 26.55 50.59 25.55 50.51 25.1 50.47 24.64 50.47 24.19 50.47 23.84 50.34 22.58 50.71 22.4 50.67 22.2 50.76 22.18 50.97 22.32 51.24 22.39 51.39 22.52 51.42 22.71Z" fill="#ACBF00"/><path d="M40.58 21.97C38.95 21.18 35.88 21.06 35.82 22.68 35.81 22.81 35.84 22.95 35.89 23.08 35.19 23.61 35.27 24.41 36.12 25.08 37.47 26.14 39.96 26.64 41.57 25.45 42.98 24.4 42.23 22.77 40.58 21.97ZM38.33 24.85C37.28 24.76 36.85 24.34 36.87 23.93 37 23.98 37.15 24.02 37.3 24.04 37.62 24.1 37.95 24.1 38.26 24.06 38.24 24.31 38.4 24.6 38.67 24.84 38.56 24.86 38.44 24.86 38.33 24.85ZM39.98 24.25C39.69 24.39 39.41 24.54 39.12 24.69 38.75 24.51 38.6 24.27 38.66 24 39.03 23.89 39.31 23.71 39.4 23.45 39.71 23.61 40.05 23.85 40.14 24.04 40.1 24.1 40.05 24.18 39.98 24.25ZM37.29 23.34C37.65 23.12 38.23 23.04 38.94 23.25 38.65 23.41 37.87 23.46 37.29 23.34ZM41.35 23.61C41.98 25.11 39.44 26.25 37.42 25.17 38.01 25.31 38.67 25.31 39.26 25.18 39.65 25.31 40.09 25.31 40.51 25.06 40.95 24.79 41.04 24.47 40.92 24.14 41.43 23.05 39.3 22.38 37.6 22.53 37.23 22.56 36.91 22.63 36.63 22.71 37.21 22.4 37.77 22.13 38.34 21.87 38.59 21.9 38.82 21.94 39.05 22.01 40.23 22.3 41.05 22.9 41.35 23.61Z" fill="#FF79A2"/><path d="M39.39 13.8C37.08 14.1 36.79 16.03 36.57 17.1 36.43 17.8 35.94 19.36 36.64 20.24 34.69 20.17 33.42 19.09 31.32 19.22 29.88 19.31 28.63 19.86 28.1 20.64 26.86 22.47 29.33 23.55 31.98 24.12 30.55 24.27 29.2 24.6 28.26 25.29 27.18 26.09 26.87 27.38 27.47 28.33 29.06 30.86 34.63 29.18 36.99 27.78 38.18 29.49 41.71 30.56 44.52 29.22 47.38 27.86 45.67 25.75 43.59 24.32 45.2 24.52 46.92 24.48 48.39 24.06 50.48 23.46 49.97 22 49.05 20.96 47.32 19 43.26 18.89 40.83 20.12 41.88 17.64 43.24 13.31 39.39 13.8ZM41 15.54C41.26 17.51 40.11 19.63 39.24 21.52 39.08 21.87 39.97 21.99 40.17 21.66 41.36 19.65 46.15 19.16 48.1 21.1 48.46 21.46 48.66 21.88 48.78 22.29 49.01 23.07 48.29 23.48 47.04 23.74 45.52 24.05 43.6 23.83 42.18 23.48 41.71 23.36 41.14 23.7 41.58 23.93 43.44 24.9 46.36 26.93 44.51 28.43 42.33 30.21 38.39 28.9 37.68 27.16 37.57 26.9 37.02 26.91 36.79 27.09 35.88 27.78 34.75 28.34 33.37 28.7 31.57 29.17 28.75 29.29 28.24 27.86 27.36 25.39 31.26 24.5 34.76 24.54 35.28 24.55 35.4 24.07 34.88 24.01 33.45 23.85 31.91 23.69 30.67 23.22 28.67 22.45 27.95 20.77 30.37 20 32.79 19.23 34.42 20.75 36.76 20.8 36.99 20.8 37.14 20.73 37.2 20.64 37.35 20.71 37.53 20.77 37.73 20.8 37.95 20.84 38.09 20.64 37.88 20.58 36.34 20.18 37.19 17.66 37.38 16.96 37.51 16.5 37.65 16.03 37.89 15.58 38.05 15.19 38.36 14.85 38.81 14.56 40.39 14.48 41.13 14.8 41 15.54Z" fill="#FF79A2"/><path d="M16.19 18.57C15.55 18.56 14.98 18.68 14.51 18.89 14.28 18.93 14.06 19 13.87 19.08 12.66 19.59 12.46 20.63 13.05 21.37 13.26 21.63 13.52 21.84 13.81 22 14.61 22.78 16.26 23.24 17.77 22.59 19.02 22.05 19.22 21.1 18.8 20.29 18.6 19.5 17.68 18.6 16.19 18.57ZM15.37 19.19C15.56 19.18 15.75 19.19 15.93 19.23 15.48 19.3 15.04 19.45 14.66 19.62 14.79 19.47 14.98 19.33 15.26 19.23 15.29 19.21 15.33 19.2 15.37 19.19ZM16.64 20.75C16.51 20.75 16.36 20.75 16.19 20.75 16.06 20.5 16.11 20.35 16.19 20.24 16.33 20.23 16.46 20.21 16.59 20.2 16.69 20.24 16.78 20.27 16.86 20.31 16.84 20.46 16.76 20.61 16.64 20.75ZM16.86 21.66C16.46 21.72 16.11 21.68 15.81 21.58 15.93 21.56 16.06 21.53 16.2 21.48 16.7 21.59 17.21 21.52 17.6 21.34 17.31 21.55 17.1 21.62 16.86 21.66ZM15.47 22.01C15.22 21.98 14.98 21.9 14.75 21.78 14.51 21.66 14.35 21.48 14.24 21.29 14.55 21.6 14.97 21.86 15.47 22.01Z" fill="#FFE229"/><path d="M24.03 15.14C23.29 15.24 22.62 15.65 22.06 15.91 21.13 16.34 20.22 16.79 19.34 17.26 18.95 17.47 19.53 17.8 19.92 17.59 20.7 17.19 21.49 16.79 22.31 16.42 22.59 16.29 23.26 15.93 23.65 15.84 24.43 15.65 24.44 15.87 24.46 16.25 24.47 16.37 24.76 16.42 24.87 16.31 25.37 15.8 25.53 14.94 24.03 15.14Z" fill="#FFE229"/><path d="M27.67 22.42C25.62 21.53 23.44 20.74 21.17 20.05 20.89 19.97 20.54 20.2 20.82 20.32 22.63 21.12 24.46 21.91 26.3 22.68 26.12 22.72 26.16 22.89 26.33 22.9 26.58 22.91 26.82 22.94 27.05 22.99 27.91 23.2 28.15 22.63 27.67 22.42Z" fill="#FFE229"/><path d="M18.96 23.42C18.78 23.38 18.53 23.41 18.49 23.54 18.08 24.62 18.16 25.79 18.43 26.92 18.31 26.95 18.22 27.02 18.25 27.1 18.35 27.45 18.56 27.81 18.78 28.14 19.03 28.51 19.98 28.38 19.83 27.98 19.31 26.58 19.3 25.22 19.15 23.81 19.32 23.78 19.44 23.64 19.28 23.55 19.15 23.47 19.13 23.46 18.96 23.42Z" fill="#FFE229"/><path d="M13.65 22.29C12.86 22.17 12.05 22.17 11.24 22.22 10.84 22.24 10.45 22.27 10.05 22.28 9.63 22.3 8.99 22.4 8.94 22.07 8.92 21.98 8.76 21.94 8.64 22 8.37 22.12 8.2 22.31 8.35 22.5 8.54 22.74 9.06 22.74 9.46 22.74 10.82 22.72 12.15 22.45 13.51 22.58 13.85 22.63 13.99 22.34 13.65 22.29Z" fill="#FFE229"/><path d="M10.53 17.84C10.49 18.59 10.73 19.43 12.09 19.73 12.32 19.78 12.47 19.56 12.25 19.5 11.34 19.23 11.26 18.67 11.27 18.15 11.44 18.2 11.6 18.14 11.56 18.05 11.49 17.89 11.37 17.8 11.17 17.68 10.94 17.56 10.54 17.65 10.53 17.84Z" fill="#FFE229"/><path d="M16.89 14.84C16.38 15.49 15.97 16.17 15.54 16.83 15.21 17.34 14.89 17.83 14.95 18.38 14.97 18.57 15.46 18.57 15.47 18.38 15.48 17.75 16.04 17.19 16.48 16.63 16.77 16.26 17.07 15.89 17.35 15.51 17.56 15.28 17.59 15.23 17.7 15.02 17.84 14.76 17.1 14.57 16.89 14.84Z" fill="#FFE229"/><path d="M41.72 8.44C40.35 8.85 38.98 9.26 37.6 9.63 38.49 8.97 39.38 8.35 40.07 7.8 40.46 7.49 39.96 6.96 39.57 7.15 37.97 7.93 36.49 8.89 35.03 9.89 36.08 9.09 37.14 8.31 38.24 7.57 38.55 7.36 38.37 6.79 37.97 6.93 37.05 7.27 36.16 7.67 35.29 8.11 35.21 8.1 35.12 8.1 35.04 8.13 34.45 8.39 33.87 8.67 33.29 8.94 33.41 8.21 35.1 6.91 35.55 6.42 35.85 6.09 35.45 5.49 35.05 5.77 34.93 5.86 34.81 5.95 34.69 6.04 32.17 7.39 29.79 8.79 27.44 10.24 26.8 10.64 25.73 10.91 25.71 11.76 25.71 11.86 25.86 11.86 25.86 11.76 25.92 10.71 30.03 9.05 30.93 8.56 30.98 8.53 31.09 8.48 31.22 8.42 29.13 10.04 27.21 11.85 25.42 13.82 25.2 14.06 25.47 14.41 25.77 14.27 27.54 13.39 29.23 12.36 30.92 11.34 30.52 11.64 30.11 11.93 29.71 12.22 29.04 12.65 28.37 13.11 27.71 13.6 27.3 13.9 27.68 14.59 28.12 14.3 28.85 13.81 29.56 13.32 30.28 12.81 29.91 13.13 29.54 13.44 29.17 13.77 28.84 14.07 29.26 14.58 29.64 14.37 31.36 13.42 32.97 12.3 34.58 11.19 34.71 11.16 34.84 11.14 34.97 11.11 34.33 11.7 33.69 12.3 33.07 12.91 32.87 13.11 32.94 13.41 33.15 13.56 34.13 14.21 35.28 13.37 36.22 12.93 38.35 11.92 40.29 10.62 42.12 9.13 42.44 8.86 42.09 8.33 41.72 8.44ZM30.61 10.29C30.97 9.98 31.33 9.66 31.7 9.36 31.6 9.53 31.52 9.69 31.46 9.85 31.18 9.99 30.9 10.14 30.61 10.29ZM26.84 13.12C27.03 12.9 27.23 12.68 27.44 12.47 27.48 12.54 27.54 12.6 27.61 12.64 27.01 13.04 26.06 14.03 26.84 13.12ZM35.8 12.21C34.07 13.06 33.55 13.27 34.24 12.84 34.64 12.17 35.28 11.51 36 10.88 37.27 10.58 38.53 10.23 39.78 9.87 39.06 10.38 38.33 10.86 37.55 11.3 36.99 11.63 36.4 11.93 35.8 12.21Z" fill="#51ADE2"/></g></svg>