<svg width="1041.49" height="456.49" viewBox="0 0 1041.49 456.49" xmlns="http://www.w3.org/2000/svg" xmlns:xlink="http://www.w3.org/1999/xlink" xml:space="preserve" overflow="hidden"><defs></defs><g><g><rect x="406.32" y="34.15" width="223.31" height="422.35" fill="#B58558"/><g><path d="M447.74 37.52 433.89 37.52 433.89 22.68C433.89 18.85 436.99 15.75 440.82 15.75L440.82 15.75C444.65 15.75 447.75 18.85 447.75 22.68L447.75 37.52Z" fill="#B58558"/><path d="M479.15 37.52 465.3 37.52 465.3 22.68C465.3 18.85 468.4 15.75 472.23 15.75L472.23 15.75C476.06 15.75 479.16 18.85 479.16 22.68L479.16 37.52Z" fill="#B58558"/><path d="M510.56 37.52 496.71 37.52 496.71 22.68C496.71 18.85 499.81 15.75 503.64 15.75L503.64 15.75C507.47 15.75 510.57 18.85 510.57 22.68L510.57 37.52Z" fill="#B58558"/><path d="M541.97 37.52 528.12 37.52 528.12 22.68C528.12 18.85 531.22 15.75 535.05 15.75L535.05 15.75C538.88 15.75 541.98 18.85 541.98 22.68L541.98 37.52Z" fill="#B58558"/><path d="M573.38 37.52 559.53 37.52 559.53 22.68C559.53 18.85 562.63 15.75 566.46 15.75L566.46 15.75C570.29 15.75 573.39 18.85 573.39 22.68L573.39 37.52Z" fill="#B58558"/><path d="M604.79 37.52 590.94 37.52 590.94 22.68C590.94 18.85 594.04 15.75 597.87 15.75L597.87 15.75C601.7 15.75 604.8 18.85 604.8 22.68L604.8 37.52Z" fill="#B58558"/></g><rect x="420.88" y="34.28" width="196.91" height="6" fill="#A07448"/><g><rect x="440.66" y="50.37" width="157.35" height="9.47" fill="#A07448"/><g><rect x="450.29" y="50.37" width="4.6" height="9.47" fill="#B58558"/><rect x="465.12" y="50.37" width="4.6" height="9.47" fill="#B58558"/><rect x="479.95" y="50.37" width="4.6" height="9.47" fill="#B58558"/><rect x="494.79" y="50.37" width="4.6" height="9.47" fill="#B58558"/><rect x="509.62" y="50.37" width="4.6" height="9.47" fill="#B58558"/><rect x="524.45" y="50.37" width="4.6" height="9.47" fill="#B58558"/><rect x="539.29" y="50.37" width="4.6" height="9.47" fill="#B58558"/><rect x="554.12" y="50.37" width="4.6" height="9.47" fill="#B58558"/><rect x="568.95" y="50.37" width="4.6" height="9.47" fill="#B58558"/><rect x="583.79" y="50.37" width="4.6" height="9.47" fill="#B58558"/></g></g><g><rect x="535.89" y="91.91" width="65.91" height="3.97" fill="#A07448"/><g><rect x="539.92" y="91.91" width="1.93" height="3.97" fill="#B58558"/><rect x="546.14" y="91.91" width="1.93" height="3.97" fill="#B58558"/><rect x="552.35" y="91.91" width="1.93" height="3.97" fill="#B58558"/><rect x="558.56" y="91.91" width="1.93" height="3.97" fill="#B58558"/><rect x="564.78" y="91.91" width="1.93" height="3.97" fill="#B58558"/><rect x="570.99" y="91.91" width="1.93" height="3.97" fill="#B58558"/><rect x="577.2" y="91.91" width="1.93" height="3.97" fill="#B58558"/><rect x="583.42" y="91.91" width="1.93" height="3.97" fill="#B58558"/><rect x="589.63" y="91.91" width="1.93" height="3.97" fill="#B58558"/><rect x="595.84" y="91.91" width="1.93" height="3.97" fill="#B58558"/></g></g><g><rect x="379.19" y="91.91" width="65.91" height="3.97" fill="#A07448"/><g><rect x="383.23" y="91.91" width="1.93" height="3.97" fill="#B58558"/><rect x="389.44" y="91.91" width="1.93" height="3.97" fill="#B58558"/><rect x="395.65" y="91.91" width="1.93" height="3.97" fill="#B58558"/><rect x="401.87" y="91.91" width="1.93" height="3.97" fill="#B58558"/><rect x="408.08" y="91.91" width="1.93" height="3.97" fill="#B58558"/><rect x="414.29" y="91.91" width="1.93" height="3.97" fill="#B58558"/><rect x="420.51" y="91.91" width="1.93" height="3.97" fill="#B58558"/><rect x="426.72" y="91.91" width="1.93" height="3.97" fill="#B58558"/><rect x="432.93" y="91.91" width="1.93" height="3.97" fill="#B58558"/><rect x="439.14" y="91.91" width="1.93" height="3.97" fill="#B58558"/></g></g><g><path d="M458.19 131.74 450.81 126.05 443.44 131.74 443.44 150.67 458.19 150.67Z" fill="#A07448"/><path d="M477.77 131.74 470.4 126.05 463.03 131.74 463.03 150.67 477.77 150.67Z" fill="#A07448"/></g><g><path d="M499.85 131.74 492.47 126.05 485.1 131.74 485.1 150.67 499.85 150.67Z" fill="#A07448"/><path d="M519.43 131.74 512.06 126.05 504.69 131.74 504.69 150.67 519.43 150.67Z" fill="#A07448"/></g><g><path d="M541.51 131.74 534.13 126.05 526.76 131.74 526.76 150.67 541.51 150.67Z" fill="#A07448"/><path d="M561.09 131.74 553.72 126.05 546.34 131.74 546.34 150.67 561.09 150.67Z" fill="#A07448"/></g><rect x="451.63" y="87.24" width="21.78" height="25.56" fill="#594D4D"/><rect x="477.19" y="171.75" width="18.94" height="22.23" fill="#594D4D"/><rect x="531.16" y="171.75" width="18.94" height="28.16" fill="#594D4D"/><rect x="506.54" y="87.24" width="21.78" height="25.56" fill="#594D4D"/><g><path d="M467.79 173.46C467.79 174.51 466.94 175.35 465.9 175.35 464.85 175.35 464.01 174.5 464.01 173.46 464.01 172.41 464.86 171.57 465.9 171.57 466.94 171.56 467.79 172.41 467.79 173.46Z" fill="#594D4D"/><path d="M467.72 181.34C467.72 182.71 467.4 194.68 465.89 194.68 464.38 194.68 464.06 182.71 464.06 181.34 464.06 179.97 464.7 178.33 465.89 178.33 467.09 178.33 467.72 179.98 467.72 181.34Z" fill="#594D4D"/></g><g><path d="M523.18 173.46C523.18 174.51 522.33 175.35 521.29 175.35 520.25 175.35 519.4 174.5 519.4 173.46 519.4 172.41 520.25 171.57 521.29 171.57 522.33 171.57 523.18 172.41 523.18 173.46Z" fill="#594D4D"/><path d="M523.11 181.34C523.11 182.71 522.79 194.68 521.28 194.68 519.77 194.68 519.45 182.71 519.45 181.34 519.45 179.97 520.09 178.33 521.28 178.33 522.48 178.33 523.11 179.98 523.11 181.34Z" fill="#594D4D"/></g><g><path d="M457.77 233.85 455.29 233.85C454.85 233.85 454.49 233.49 454.49 233.05L454.49 230.06C454.49 229.62 454.85 229.26 455.29 229.26L457.77 229.26C458.21 229.26 458.57 229.62 458.57 230.06L458.57 233.05C458.57 233.49 458.21 233.85 457.77 233.85Z" fill="#594D4D"/><path d="M527.33 233.85 524.85 233.85C524.41 233.85 524.05 233.49 524.05 233.05L524.05 230.06C524.05 229.62 524.41 229.26 524.85 229.26L527.33 229.26C527.77 229.26 528.13 229.62 528.13 230.06L528.13 233.05C528.13 233.49 527.77 233.85 527.33 233.85Z" fill="#594D4D"/></g></g><g><rect x="791.43" y="92.4" width="209.35" height="364.09" fill="#B58558"/><g><path d="M808.97 181.21 815.7 181.21C815.96 181.21 816.09 180.9 815.91 180.71L812.35 176.95C812.23 176.82 812.02 176.83 811.91 176.96L808.74 180.72C808.58 180.91 808.72 181.21 808.97 181.21Z" fill="#594D4D"/><path d="M820.33 181.21 827.06 181.21C827.32 181.21 827.45 180.9 827.27 180.71L823.71 176.95C823.59 176.82 823.38 176.83 823.27 176.96L820.1 180.72C819.95 180.91 820.08 181.21 820.33 181.21Z" fill="#594D4D"/><path d="M831.69 181.21 838.42 181.21C838.68 181.21 838.81 180.9 838.63 180.71L835.07 176.95C834.95 176.82 834.74 176.83 834.63 176.96L831.46 180.72C831.31 180.91 831.44 181.21 831.69 181.21Z" fill="#594D4D"/><path d="M843.06 181.21 849.79 181.21C850.05 181.21 850.18 180.9 850 180.71L846.44 176.95C846.32 176.82 846.11 176.83 846 176.96L842.83 180.72C842.67 180.91 842.8 181.21 843.06 181.21Z" fill="#594D4D"/><path d="M854.42 181.21 861.15 181.21C861.41 181.21 861.54 180.9 861.36 180.71L857.8 176.95C857.68 176.82 857.47 176.83 857.36 176.96L854.19 180.72C854.03 180.91 854.17 181.21 854.42 181.21Z" fill="#594D4D"/><path d="M865.78 181.21 872.51 181.21C872.77 181.21 872.9 180.9 872.72 180.71L869.16 176.95C869.04 176.82 868.83 176.83 868.72 176.96L865.55 180.72C865.39 180.91 865.53 181.21 865.78 181.21Z" fill="#594D4D"/><path d="M877.14 181.21 883.87 181.21C884.13 181.21 884.26 180.9 884.08 180.71L880.52 176.95C880.4 176.82 880.19 176.83 880.08 176.96L876.91 180.72C876.75 180.91 876.89 181.21 877.14 181.21Z" fill="#594D4D"/><path d="M888.5 181.21 895.23 181.21C895.49 181.21 895.62 180.9 895.44 180.71L891.88 176.95C891.76 176.82 891.55 176.83 891.44 176.96L888.27 180.72C888.12 180.91 888.25 181.21 888.5 181.21Z" fill="#594D4D"/><path d="M899.86 181.21 906.59 181.21C906.85 181.21 906.98 180.9 906.8 180.71L903.24 176.95C903.12 176.82 902.91 176.83 902.8 176.96L899.63 180.72C899.48 180.91 899.61 181.21 899.86 181.21Z" fill="#594D4D"/><path d="M911.23 181.21 917.96 181.21C918.22 181.21 918.35 180.9 918.17 180.71L914.61 176.95C914.49 176.82 914.28 176.83 914.17 176.96L911 180.72C910.84 180.91 910.97 181.21 911.23 181.21Z" fill="#594D4D"/></g><g><path d="M819.18 94.33 805.24 94.33 805.24 79.4C805.24 75.55 808.36 72.43 812.21 72.43L812.21 72.43C816.06 72.43 819.18 75.55 819.18 79.4L819.18 94.33Z" fill="#B58558"/><path d="M850.78 94.33 836.84 94.33 836.84 79.4C836.84 75.55 839.96 72.43 843.81 72.43L843.81 72.43C847.66 72.43 850.78 75.55 850.78 79.4L850.78 94.33Z" fill="#B58558"/><path d="M882.38 94.33 868.44 94.33 868.44 79.4C868.44 75.55 871.56 72.43 875.41 72.43L875.41 72.43C879.26 72.43 882.38 75.55 882.38 79.4L882.38 94.33Z" fill="#B58558"/><path d="M913.98 94.33 900.04 94.33 900.04 79.4C900.04 75.55 903.16 72.43 907.01 72.43L907.01 72.43C910.86 72.43 913.98 75.55 913.98 79.4L913.98 94.33Z" fill="#B58558"/></g><rect x="794.37" y="91.02" width="133.97" height="6" fill="#A07448"/><g><path d="M851.4 197.44C851.4 198.49 850.55 199.33 849.51 199.33 848.47 199.33 847.62 198.48 847.62 197.44 847.62 196.39 848.47 195.55 849.51 195.55 850.55 195.55 851.4 196.4 851.4 197.44Z" fill="#594D4D"/><path d="M851.34 205.33C851.34 206.7 851.02 218.67 849.51 218.67 848 218.67 847.68 206.7 847.68 205.33 847.68 203.96 848.32 202.32 849.51 202.32 850.7 202.32 851.34 203.96 851.34 205.33Z" fill="#594D4D"/></g><g><path d="M894.95 197.44C894.95 198.49 894.1 199.33 893.06 199.33 892.01 199.33 891.17 198.48 891.17 197.44 891.17 196.39 892.02 195.55 893.06 195.55 894.11 195.55 894.95 196.4 894.95 197.44Z" fill="#594D4D"/><path d="M894.89 205.33C894.89 206.7 894.57 218.67 893.06 218.67 891.55 218.67 891.23 206.7 891.23 205.33 891.23 203.96 891.87 202.32 893.06 202.32 894.26 202.32 894.89 203.96 894.89 205.33Z" fill="#594D4D"/></g></g><path d="M423.85 34.35 443.99 34.35 466.91 342.75 429.4 342.75Z" fill="#A07448" opacity="0.3"/><path d="M794.76 91.13 814.9 91.13 837.83 342.75 800.32 342.75Z" fill="#A07448" opacity="0.3"/><g><path d="M1041.49 456.49 912.22 456.49 918.92 81.09 1034.8 81.09Z" fill="#CF9D6E"/><g><path d="M935.44 170.76C935.44 171.81 934.59 172.65 933.55 172.65 932.5 172.65 931.66 171.8 931.66 170.76 931.66 169.71 932.51 168.87 933.55 168.87 934.6 168.87 935.44 169.71 935.44 170.76Z" fill="#594D4D"/><path d="M935.38 178.65C935.38 180.02 935.06 191.99 933.55 191.99 932.04 191.99 931.72 180.02 931.72 178.65 931.72 177.28 932.36 175.64 933.55 175.64 934.74 175.63 935.38 177.28 935.38 178.65Z" fill="#594D4D"/></g><g><path d="M999.83 233.25C999.83 234.3 998.98 235.14 997.94 235.14 996.89 235.14 996.05 234.29 996.05 233.25 996.05 232.2 996.9 231.36 997.94 231.36 998.98 231.36 999.83 232.2 999.83 233.25Z" fill="#594D4D"/><path d="M999.76 241.13C999.76 242.5 999.44 254.47 997.93 254.47 996.42 254.47 996.1 242.5 996.1 241.13 996.1 239.76 996.74 238.12 997.93 238.12 999.13 238.12 999.76 239.77 999.76 241.13Z" fill="#594D4D"/></g><g><path d="M935.44 289.11C935.44 290.16 934.59 291 933.55 291 932.5 291 931.66 290.15 931.66 289.11 931.66 288.07 932.51 287.22 933.55 287.22 934.6 287.22 935.44 288.07 935.44 289.11Z" fill="#594D4D"/><path d="M935.38 297C935.38 298.37 935.06 310.34 933.55 310.34 932.04 310.34 931.72 298.37 931.72 297 931.72 295.63 932.36 293.99 933.55 293.99 934.74 293.98 935.38 295.63 935.38 297Z" fill="#594D4D"/></g><g><path d="M937.74 81.55 923.2 81.55 923.2 65.97C923.2 61.95 926.46 58.7 930.47 58.7L930.47 58.7C934.49 58.7 937.74 61.96 937.74 65.97L937.74 81.55Z" fill="#CF9D6E"/><path d="M984.44 81.55 969.9 81.55 969.9 65.97C969.9 61.95 973.16 58.7 977.17 58.7L977.17 58.7C981.19 58.7 984.44 61.96 984.44 65.97L984.44 81.55Z" fill="#CF9D6E"/><path d="M1030.2 81.55 1015.66 81.55 1015.66 65.97C1015.66 61.95 1018.92 58.7 1022.93 58.7L1022.93 58.7C1026.95 58.7 1030.2 61.96 1030.2 65.97L1030.2 81.55Z" fill="#CF9D6E"/></g><rect x="916.64" y="77.77" width="121.06" height="6" fill="#B0804F"/><rect x="976.07" y="120.49" width="19.12" height="22.31" fill="#594D4D"/><rect x="1003.62" y="172.04" width="11.36" height="17.67" fill="#594D4D"/><rect x="945.86" y="172.04" width="11.36" height="17.67" fill="#594D4D"/></g><rect x="6.63" y="246.13" width="125.93" height="210.36" fill="#B58558"/><rect x="129.61" y="92.4" width="118.13" height="364.09" fill="#B58558"/><g><path d="M145.98 91.02 131.44 91.02 131.44 75.44C131.44 71.42 134.7 68.17 138.71 68.17L138.71 68.17C142.73 68.17 145.98 71.43 145.98 75.44L145.98 91.02Z" fill="#B58558"/><path d="M178.95 91.02 164.41 91.02 164.41 75.44C164.41 71.42 167.67 68.17 171.68 68.17L171.68 68.17C175.7 68.17 178.95 71.43 178.95 75.44L178.95 91.02Z" fill="#B58558"/><path d="M211.93 91.02 197.39 91.02 197.39 75.44C197.39 71.42 200.65 68.17 204.66 68.17L204.66 68.17C208.68 68.17 211.93 71.43 211.93 75.44L211.93 91.02Z" fill="#B58558"/><path d="M244.9 91.02 230.36 91.02 230.36 75.44C230.36 71.42 233.62 68.17 237.63 68.17L237.63 68.17C241.65 68.17 244.9 71.43 244.9 75.44L244.9 91.02Z" fill="#B58558"/><path d="M277.88 91.02 263.34 91.02 263.34 75.44C263.34 71.42 266.6 68.17 270.61 68.17L270.61 68.17C274.63 68.17 277.88 71.43 277.88 75.44L277.88 91.02Z" fill="#B58558"/><path d="M310.86 91.02 296.32 91.02 296.32 75.44C296.32 71.42 299.58 68.17 303.59 68.17L303.59 68.17C307.61 68.17 310.86 71.43 310.86 75.44L310.86 91.02Z" fill="#B58558"/></g><g><path d="M237.6 151.62 231.45 145.94 225.3 151.62 225.3 170.55 237.6 170.55Z" fill="#A07448"/><path d="M253.95 151.62 247.8 145.94 241.64 151.62 241.64 170.55 253.95 170.55Z" fill="#A07448"/></g><rect x="127.32" y="87.24" width="187.65" height="6" fill="#A07448"/><g><rect x="142.47" y="103.33" width="157.35" height="9.47" fill="#A07448"/><g><rect x="152.09" y="103.33" width="4.6" height="9.47" fill="#B58558"/><rect x="166.93" y="103.33" width="4.6" height="9.47" fill="#B58558"/><rect x="181.76" y="103.33" width="4.6" height="9.47" fill="#B58558"/><rect x="196.59" y="103.33" width="4.6" height="9.47" fill="#B58558"/><rect x="211.43" y="103.33" width="4.6" height="9.47" fill="#B58558"/><rect x="226.26" y="103.33" width="4.6" height="9.47" fill="#B58558"/><rect x="241.09" y="103.33" width="4.6" height="9.47" fill="#B58558"/><rect x="255.93" y="103.33" width="4.6" height="9.47" fill="#B58558"/><rect x="270.76" y="103.33" width="4.6" height="9.47" fill="#B58558"/><rect x="285.59" y="103.33" width="4.6" height="9.47" fill="#B58558"/></g></g><g><g><path d="M258.33 22.85 243.79 22.85 243.79 7.27C243.79 3.25 247.05 0 251.06 0L251.06 0C255.08 0 258.33 3.26 258.33 7.27L258.33 22.85Z" fill="#CF9D6E"/><path d="M291.31 22.85 276.77 22.85 276.77 7.27C276.77 3.25 280.03 0 284.04 0L284.04 0C288.06 0 291.31 3.26 291.31 7.27L291.31 22.85Z" fill="#CF9D6E"/><path d="M324.28 22.85 309.74 22.85 309.74 7.27C309.74 3.25 313 0 317.01 0L317.01 0C321.03 0 324.28 3.26 324.28 7.27L324.28 22.85Z" fill="#CF9D6E"/><path d="M357.26 22.85 342.72 22.85 342.72 7.27C342.72 3.25 345.98 0 349.99 0L349.99 0C354.01 0 357.26 3.26 357.26 7.27L357.26 22.85Z" fill="#CF9D6E"/><path d="M390.23 22.85 375.69 22.85 375.69 7.27C375.69 3.25 378.95 0 382.96 0L382.96 0C386.98 0 390.23 3.26 390.23 7.27L390.23 22.85Z" fill="#CF9D6E"/><path d="M423.21 22.85 408.67 22.85 408.67 7.27C408.67 3.25 411.93 0 415.94 0L415.94 0C419.96 0 423.21 3.26 423.21 7.27L423.21 22.85Z" fill="#CF9D6E"/></g><path d="M434.58 456.49 232.42 456.49 242.88 24.44 424.12 24.44Z" fill="#CF9D6E"/><rect x="239.67" y="19.07" width="187.65" height="6" fill="#B0804F"/><g><rect x="259.56" y="200.11" width="19.12" height="22.31" fill="#594D4D"/><rect x="387.38" y="200.11" width="19.12" height="22.31" fill="#594D4D"/></g><rect x="296.26" y="249.14" width="74.48" height="17.04" fill="#B0804F"/><g><rect x="296.26" y="240.46" width="6.72" height="59.8" fill="#E8B588"/><rect x="364.02" y="240.46" width="6.72" height="59.8" fill="#E8B588"/><g><rect x="296.26" y="240.46" width="6.72" height="25.72" fill="#B7966F"/><rect x="364.02" y="240.46" width="6.72" height="25.72" fill="#B7966F"/></g></g><rect x="296.26" y="173.4" width="74.48" height="75.74" fill="#E8B588"/><path d="M375.88 175.29 291.12 175.29 333.5 144.99Z" fill="#E8B588"/><rect x="316.46" y="191.38" width="34.09" height="39.77" fill="#594D4D"/><rect x="313.14" y="290.56" width="8.77" height="11.85" fill="#594D4D"/><rect x="386.05" y="286.77" width="10.66" height="15.63" fill="#594D4D"/><path d="M374.94 176.47 292.07 176.47C291.02 176.47 290.18 175.62 290.18 174.58L290.18 174.58C290.18 173.53 291.03 172.69 292.07 172.69L374.94 172.69C375.99 172.69 376.83 173.54 376.83 174.58L376.83 174.58C376.83 175.62 375.98 176.47 374.94 176.47Z" fill="#B0804F"/><g><rect x="254.82" y="35.16" width="157.35" height="9.47" fill="#B0804F"/><g><rect x="264.45" y="35.16" width="4.6" height="9.47" fill="#CF9D6E"/><rect x="279.28" y="35.16" width="4.6" height="9.47" fill="#CF9D6E"/><rect x="294.12" y="35.16" width="4.6" height="9.47" fill="#CF9D6E"/><rect x="308.95" y="35.16" width="4.6" height="9.47" fill="#CF9D6E"/><rect x="323.78" y="35.16" width="4.6" height="9.47" fill="#CF9D6E"/><rect x="338.62" y="35.16" width="4.6" height="9.47" fill="#CF9D6E"/><rect x="353.45" y="35.16" width="4.6" height="9.47" fill="#CF9D6E"/><rect x="368.28" y="35.16" width="4.6" height="9.47" fill="#CF9D6E"/><rect x="383.12" y="35.16" width="4.6" height="9.47" fill="#CF9D6E"/><rect x="397.95" y="35.16" width="4.6" height="9.47" fill="#CF9D6E"/></g></g><g><g><path d="M264.06 59.37C264.06 60.42 263.21 61.26 262.17 61.26 261.12 61.26 260.28 60.41 260.28 59.37 260.28 58.32 261.13 57.48 262.17 57.48 263.22 57.47 264.06 58.32 264.06 59.37Z" fill="#594D4D"/><path d="M264 67.25C264 68.62 263.68 80.59 262.17 80.59 260.66 80.59 260.34 68.62 260.34 67.25 260.34 65.88 260.98 64.24 262.17 64.24 263.37 64.24 264 65.89 264 67.25Z" fill="#594D4D"/></g><g><path d="M299.73 59.37C299.73 60.42 298.88 61.26 297.84 61.26 296.79 61.26 295.95 60.41 295.95 59.37 295.95 58.32 296.8 57.48 297.84 57.48 298.88 57.47 299.73 58.32 299.73 59.37Z" fill="#594D4D"/><path d="M299.67 67.25C299.67 68.62 299.35 80.59 297.84 80.59 296.33 80.59 296.01 68.62 296.01 67.25 296.01 65.88 296.65 64.24 297.84 64.24 299.03 64.24 299.67 65.89 299.67 67.25Z" fill="#594D4D"/></g><g><path d="M335.39 59.37C335.39 60.42 334.54 61.26 333.5 61.26 332.45 61.26 331.61 60.41 331.61 59.37 331.61 58.32 332.46 57.48 333.5 57.48 334.55 57.47 335.39 58.32 335.39 59.37Z" fill="#594D4D"/><path d="M335.33 67.25C335.33 68.62 335.01 80.59 333.5 80.59 331.99 80.59 331.67 68.62 331.67 67.25 331.67 65.88 332.31 64.24 333.5 64.24 334.69 64.24 335.33 65.89 335.33 67.25Z" fill="#594D4D"/></g><g><path d="M371.06 59.37C371.06 60.42 370.21 61.26 369.17 61.26 368.12 61.26 367.28 60.41 367.28 59.37 367.28 58.32 368.13 57.48 369.17 57.48 370.21 57.47 371.06 58.32 371.06 59.37Z" fill="#594D4D"/><path d="M370.99 67.25C370.99 68.62 370.67 80.59 369.16 80.59 367.65 80.59 367.33 68.62 367.33 67.25 367.33 65.88 367.97 64.24 369.16 64.24 370.36 64.24 370.99 65.89 370.99 67.25Z" fill="#594D4D"/></g><g><path d="M406.72 59.37C406.72 60.42 405.87 61.26 404.83 61.26 403.78 61.26 402.94 60.41 402.94 59.37 402.94 58.32 403.79 57.48 404.83 57.48 405.87 57.47 406.72 58.32 406.72 59.37Z" fill="#594D4D"/><path d="M406.66 67.25C406.66 68.62 406.34 80.59 404.83 80.59 403.32 80.59 403 68.62 403 67.25 403 65.88 403.64 64.24 404.83 64.24 406.02 64.24 406.66 65.89 406.66 67.25Z" fill="#594D4D"/></g></g><g><g><path d="M253.34 206.12C253.34 207.17 252.49 208.01 251.45 208.01 250.4 208.01 249.56 207.16 249.56 206.12 249.56 205.07 250.41 204.23 251.45 204.23 252.49 204.23 253.34 205.08 253.34 206.12Z" fill="#B0804F"/><path d="M253.27 214.01C253.27 215.38 252.95 227.35 251.44 227.35 249.93 227.35 249.61 215.38 249.61 214.01 249.61 212.64 250.25 211 251.44 211 252.64 211 253.27 212.64 253.27 214.01Z" fill="#B0804F"/></g><g><path d="M289.31 206.12C289.31 207.17 288.46 208.01 287.42 208.01 286.37 208.01 285.53 207.16 285.53 206.12 285.53 205.07 286.38 204.23 287.42 204.23 288.47 204.23 289.31 205.08 289.31 206.12Z" fill="#B0804F"/><path d="M289.25 214.01C289.25 215.38 288.93 227.35 287.42 227.35 285.91 227.35 285.59 215.38 285.59 214.01 285.59 212.64 286.23 211 287.42 211 288.61 211 289.25 212.64 289.25 214.01Z" fill="#B0804F"/></g><g><path d="M381.63 206.12C381.63 207.17 380.78 208.01 379.74 208.01 378.69 208.01 377.85 207.16 377.85 206.12 377.85 205.07 378.7 204.23 379.74 204.23 380.78 204.23 381.63 205.08 381.63 206.12Z" fill="#B0804F"/><path d="M381.56 214.01C381.56 215.38 381.24 227.35 379.73 227.35 378.22 227.35 377.9 215.38 377.9 214.01 377.9 212.64 378.54 211 379.73 211 380.93 211 381.56 212.64 381.56 214.01Z" fill="#B0804F"/></g><g><path d="M417.61 206.12C417.61 207.17 416.76 208.01 415.72 208.01 414.67 208.01 413.83 207.16 413.83 206.12 413.83 205.07 414.68 204.23 415.72 204.23 416.76 204.23 417.61 205.08 417.61 206.12Z" fill="#B0804F"/><path d="M417.54 214.01C417.54 215.38 417.22 227.35 415.71 227.35 414.2 227.35 413.88 215.38 413.88 214.01 413.88 212.64 414.52 211 415.71 211 416.9 211 417.54 212.64 417.54 214.01Z" fill="#B0804F"/></g></g><g><path d="M245.3 141.1C251.06 138.69 255.47 131.72 259.01 126.12 259.54 125.29 260.04 124.49 260.53 123.73 265.68 115.82 270.36 112.14 274.42 112.79 277.55 113.29 280.83 118.14 284.29 123.26 288.87 130.04 294.06 137.72 301.11 138.93 310.7 140.59 317.08 130.05 321.29 123.08 326.45 114.54 332.43 105.43 338.26 105.8 344.4 106.16 352.94 118.65 358.05 126.12 359.73 128.57 366.94 137.72 371.02 139.26 378.02 141.9 384.13 131.71 387.42 126.23 387.75 125.67 388.1 125.08 388.46 124.46 391.45 119.34 395.56 112.32 400.97 112.32 404.96 112.32 410.93 120.95 414.78 128.97 417.81 135.26 421.44 141.89 427.02 144.48L426.97 142.31C422.39 139.67 419.19 133.76 416.49 128.14 415.62 126.33 407.77 110.41 400.97 110.41 394.47 110.41 390.05 117.97 386.83 123.48 386.48 124.09 386.13 124.68 385.8 125.23 381.34 132.66 376.53 139.29 371.69 137.46 368.58 136.29 362.08 128.63 359.62 125.02 352.45 114.53 344.9 104.27 338.38 103.88 331.49 103.43 325.37 112.65 319.67 122.08 315.73 128.61 309.78 138.45 301.44 137.04 295.19 135.97 290.24 128.64 285.87 122.18 282.01 116.46 278.67 111.53 274.73 110.9 269.79 110.1 264.63 113.96 258.95 122.68 258.46 123.44 257.94 124.25 257.41 125.09 254.01 130.46 249.79 137.15 244.57 139.33 243.22 139.89 241.65 140.04 240.08 139.85L240.03 141.76C241.87 141.96 243.7 141.77 245.3 141.1Z" fill="#B0804F"/><path d="M245.3 147.72C251.57 145.09 256.84 137.95 261.16 131.3L261.79 130.33C265.14 125.14 269.75 118.05 274.3 119.39 276.16 119.94 278.95 123.88 281.91 128.05 287.03 135.26 293.39 144.23 301.11 145.56 310.72 147.23 321.1 133.62 325.26 126.2 328.67 120.12 333.73 112.08 338.24 112.43 343.3 112.82 352.5 126.28 355.52 130.69 357.04 132.91 365.85 144.47 371.1 145.91 376.58 147.41 382.42 143.25 388.97 133.2 389.86 131.84 390.66 130.28 391.52 128.63 393.99 123.87 396.54 118.95 400.96 118.95 405.64 118.95 410.53 129.14 412.89 134.04 415.53 139.53 420.54 148.09 427.18 151.13L427.13 148.97C421.16 145.66 416.56 137.27 414.6 133.21 410.84 125.39 406.38 117.05 400.96 117.05 395.39 117.05 392.44 122.74 389.84 127.75 389.01 129.36 388.22 130.88 387.38 132.15 381.33 141.42 376.18 145.32 371.59 144.07 367.54 142.96 359.68 133.41 357.08 129.61 348.15 116.56 342.56 110.85 338.38 110.53 332.85 110.08 327.81 117.74 323.6 125.27 319.21 133.11 309.32 145.04 301.43 143.68 294.48 142.49 288.37 133.87 283.45 126.94 280.02 122.11 277.32 118.29 274.83 117.56 268.91 115.81 264.08 123.29 260.2 129.29L259.57 130.26C255.4 136.66 250.36 143.54 244.56 145.96 243.17 146.54 241.54 146.67 239.91 146.45L239.86 148.36C241.76 148.6 243.65 148.42 245.3 147.72Z" fill="#B0804F"/></g></g><g><rect x="148.87" y="180.02" width="26.98" height="39.77" fill="#CF9D6E"/><rect x="153.12" y="185.7" width="18.49" height="34.08" fill="#594D4D"/></g><g><rect x="165.43" y="266.76" width="18.49" height="27.25" fill="#CF9D6E"/><rect x="168.34" y="270.65" width="12.67" height="23.35" fill="#594D4D"/></g><g><g><rect x="26.73" y="300.9" width="19.41" height="35.03" fill="#FFF2D4"/><rect x="29.32" y="304.03" width="14.23" height="29.61" fill="#594D4D"/></g><g><rect x="55.15" y="300.9" width="19.41" height="35.03" fill="#FFF2D4"/><rect x="57.74" y="304.03" width="14.23" height="29.61" fill="#594D4D"/></g><g><rect x="83.57" y="300.9" width="19.41" height="35.03" fill="#FFF2D4"/><rect x="86.16" y="304.03" width="14.23" height="29.61" fill="#594D4D"/></g></g><g><rect x="187.95" y="180.02" width="26.98" height="39.77" fill="#CF9D6E"/><rect x="192.19" y="185.7" width="18.49" height="34.08" fill="#594D4D"/></g><rect x="167.58" y="122.27" width="7.57" height="13.26" fill="#A07448"/><rect x="214.93" y="122.27" width="7.57" height="13.26" fill="#A07448"/><g><path d="M160.34 151.62 154.19 145.94 148.04 151.62 148.04 170.55 160.34 170.55Z" fill="#A07448"/><path d="M176.69 151.62 170.54 145.94 164.38 151.62 164.38 170.55 176.69 170.55Z" fill="#A07448"/></g><g><path d="M199.42 151.62 193.26 145.94 187.11 151.62 187.11 170.55 199.42 170.55Z" fill="#A07448"/><path d="M215.76 151.62 209.61 145.94 203.45 151.62 203.45 170.55 215.76 170.55Z" fill="#A07448"/></g><rect x="0" y="246.13" width="139.18" height="12.48" fill="#A07448"/><rect x="6.63" y="342.87" width="304.87" height="113.62" fill="#C59160"/><rect x="302.03" y="342.87" width="102.89" height="113.62" fill="#C59160"/><rect x="325.7" y="366.57" width="55.55" height="89.92" fill="#FFF2D4"/><rect x="6.63" y="340.03" width="287.83" height="7.57" fill="#E8B588"/><rect x="408.07" y="376.96" width="195.99" height="79.53" fill="#C59160"/><g><g><path d="M630.43 22.85 615.89 22.85 615.89 7.27C615.89 3.25 619.15 0 623.16 0L623.16 0C627.18 0 630.43 3.26 630.43 7.27L630.43 22.85Z" fill="#CF9D6E"/><path d="M663.4 22.85 648.86 22.85 648.86 7.27C648.86 3.25 652.12 0 656.13 0L656.13 0C660.15 0 663.4 3.26 663.4 7.27L663.4 22.85Z" fill="#CF9D6E"/><path d="M696.38 22.85 681.84 22.85 681.84 7.27C681.84 3.25 685.1 0 689.11 0L689.11 0C693.13 0 696.38 3.26 696.38 7.27L696.38 22.85Z" fill="#CF9D6E"/><path d="M729.35 22.85 714.81 22.85 714.81 7.27C714.81 3.25 718.07 0 722.08 0L722.08 0C726.1 0 729.35 3.26 729.35 7.27L729.35 22.85Z" fill="#CF9D6E"/><path d="M762.33 22.85 747.79 22.85 747.79 7.27C747.79 3.25 751.05 0 755.06 0L755.06 0C759.08 0 762.33 3.26 762.33 7.27L762.33 22.85Z" fill="#CF9D6E"/><path d="M795.31 22.85 780.77 22.85 780.77 7.27C780.77 3.25 784.03 0 788.04 0L788.04 0C792.06 0 795.31 3.26 795.31 7.27L795.31 22.85Z" fill="#CF9D6E"/></g><path d="M806.68 456.49 604.51 456.49 614.98 24.44 796.21 24.44Z" fill="#CF9D6E"/><rect x="611.77" y="19.07" width="187.65" height="6" fill="#B0804F"/><rect x="633.23" y="194.77" width="15.96" height="19.57" fill="#594D4D"/><rect x="671.19" y="193.4" width="19.12" height="22.31" fill="#594D4D"/><rect x="723.36" y="194.89" width="13.26" height="19.33" fill="#594D4D"/><rect x="759.47" y="193.4" width="19.12" height="22.31" fill="#594D4D"/><rect x="765.72" y="286.77" width="10.66" height="15.63" fill="#594D4D"/><rect x="725.6" y="286.77" width="10.66" height="15.63" fill="#594D4D"/><g><rect x="626.92" y="35.16" width="157.35" height="9.47" fill="#B0804F"/><g><rect x="636.54" y="35.16" width="4.6" height="9.47" fill="#CF9D6E"/><rect x="651.38" y="35.16" width="4.6" height="9.47" fill="#CF9D6E"/><rect x="666.21" y="35.16" width="4.6" height="9.47" fill="#CF9D6E"/><rect x="681.04" y="35.16" width="4.6" height="9.47" fill="#CF9D6E"/><rect x="695.88" y="35.16" width="4.6" height="9.47" fill="#CF9D6E"/><rect x="710.71" y="35.16" width="4.6" height="9.47" fill="#CF9D6E"/><rect x="725.54" y="35.16" width="4.6" height="9.47" fill="#CF9D6E"/><rect x="740.38" y="35.16" width="4.6" height="9.47" fill="#CF9D6E"/><rect x="755.21" y="35.16" width="4.6" height="9.47" fill="#CF9D6E"/><rect x="770.04" y="35.16" width="4.6" height="9.47" fill="#CF9D6E"/></g></g><g><path d="M625.43 199.41C625.43 200.46 624.58 201.3 623.54 201.3 622.5 201.3 621.65 200.45 621.65 199.41 621.65 198.37 622.5 197.52 623.54 197.52 624.58 197.52 625.43 198.36 625.43 199.41Z" fill="#B0804F"/><path d="M625.37 207.29C625.37 208.66 625.05 220.63 623.54 220.63 622.03 220.63 621.71 208.66 621.71 207.29 621.71 205.92 622.35 204.28 623.54 204.28 624.73 204.28 625.37 205.92 625.37 207.29Z" fill="#B0804F"/></g><g><path d="M661.41 199.41C661.41 200.46 660.56 201.3 659.52 201.3 658.48 201.3 657.63 200.45 657.63 199.41 657.63 198.37 658.48 197.52 659.52 197.52 660.56 197.52 661.41 198.36 661.41 199.41Z" fill="#B0804F"/><path d="M661.35 207.29C661.35 208.66 661.03 220.63 659.52 220.63 658.01 220.63 657.69 208.66 657.69 207.29 657.69 205.92 658.33 204.28 659.52 204.28 660.71 204.28 661.35 205.92 661.35 207.29Z" fill="#B0804F"/></g><g><path d="M753.72 199.41C753.72 200.46 752.87 201.3 751.83 201.3 750.78 201.3 749.94 200.45 749.94 199.41 749.94 198.37 750.79 197.52 751.83 197.52 752.87 197.51 753.72 198.36 753.72 199.41Z" fill="#B0804F"/><path d="M753.66 207.29C753.66 208.66 753.34 220.63 751.83 220.63 750.32 220.63 750 208.66 750 207.29 750 205.92 750.64 204.28 751.83 204.28 753.02 204.28 753.66 205.92 753.66 207.29Z" fill="#B0804F"/></g><g><path d="M789.7 199.41C789.7 200.46 788.85 201.3 787.81 201.3 786.76 201.3 785.92 200.45 785.92 199.41 785.92 198.37 786.77 197.52 787.81 197.52 788.85 197.51 789.7 198.36 789.7 199.41Z" fill="#B0804F"/><path d="M789.64 207.29C789.64 208.66 789.32 220.63 787.81 220.63 786.3 220.63 785.98 208.66 785.98 207.29 785.98 205.92 786.62 204.28 787.81 204.28 789 204.28 789.64 205.92 789.64 207.29Z" fill="#B0804F"/></g><g><g><path d="M640.61 131.95 633.75 126.66 626.89 131.95 626.89 157.21 640.61 157.21Z" fill="#B0804F"/><path d="M658.84 131.95 651.98 126.66 645.11 131.95 645.11 157.21 658.84 157.21Z" fill="#B0804F"/></g><g><path d="M677.62 131.95 670.76 126.66 663.9 131.95 663.9 157.21 677.62 157.21Z" fill="#B0804F"/><path d="M695.85 131.95 688.99 126.66 682.13 131.95 682.13 157.21 695.85 157.21Z" fill="#B0804F"/></g><g><path d="M729.06 131.95 722.2 126.66 715.34 131.95 715.34 157.21 729.06 157.21Z" fill="#B0804F"/><path d="M747.29 131.95 740.43 126.66 733.57 131.95 733.57 157.21 747.29 157.21Z" fill="#B0804F"/></g><g><path d="M766.08 131.95 759.21 126.66 752.35 131.95 752.35 157.21 766.08 157.21Z" fill="#B0804F"/><path d="M784.31 131.95 777.44 126.66 770.58 131.95 770.58 157.21 784.31 157.21Z" fill="#B0804F"/></g></g><g><rect x="620.34" y="172.27" width="168.98" height="3.97" fill="#B0804F"/><g><g><rect x="622.61" y="172.27" width="1.93" height="3.97" fill="#CF9D6E"/><rect x="628.82" y="172.27" width="1.93" height="3.97" fill="#CF9D6E"/><rect x="635.04" y="172.27" width="1.93" height="3.97" fill="#CF9D6E"/><rect x="641.25" y="172.27" width="1.93" height="3.97" fill="#CF9D6E"/><rect x="647.46" y="172.27" width="1.93" height="3.97" fill="#CF9D6E"/><rect x="653.68" y="172.27" width="1.93" height="3.97" fill="#CF9D6E"/><rect x="659.89" y="172.27" width="1.93" height="3.97" fill="#CF9D6E"/><rect x="666.1" y="172.27" width="1.93" height="3.97" fill="#CF9D6E"/><rect x="672.32" y="172.27" width="1.93" height="3.97" fill="#CF9D6E"/><rect x="678.53" y="172.27" width="1.93" height="3.97" fill="#CF9D6E"/></g><g><rect x="685.23" y="172.27" width="1.93" height="3.97" fill="#CF9D6E"/><rect x="691.44" y="172.27" width="1.93" height="3.97" fill="#CF9D6E"/><rect x="697.66" y="172.27" width="1.93" height="3.97" fill="#CF9D6E"/><rect x="703.87" y="172.27" width="1.93" height="3.97" fill="#CF9D6E"/><rect x="710.08" y="172.27" width="1.93" height="3.97" fill="#CF9D6E"/><rect x="716.29" y="172.27" width="1.93" height="3.97" fill="#CF9D6E"/><rect x="722.51" y="172.27" width="1.93" height="3.97" fill="#CF9D6E"/><rect x="728.72" y="172.27" width="1.93" height="3.97" fill="#CF9D6E"/><rect x="734.93" y="172.27" width="1.93" height="3.97" fill="#CF9D6E"/><rect x="741.15" y="172.27" width="1.93" height="3.97" fill="#CF9D6E"/></g><g><rect x="747.85" y="172.27" width="1.93" height="3.97" fill="#CF9D6E"/><rect x="754.06" y="172.27" width="1.93" height="3.97" fill="#CF9D6E"/><rect x="760.27" y="172.27" width="1.93" height="3.97" fill="#CF9D6E"/><rect x="766.49" y="172.27" width="1.93" height="3.97" fill="#CF9D6E"/><rect x="772.7" y="172.27" width="1.93" height="3.97" fill="#CF9D6E"/><rect x="778.91" y="172.27" width="1.93" height="3.97" fill="#CF9D6E"/><rect x="785.13" y="172.27" width="1.93" height="3.97" fill="#CF9D6E"/></g></g></g><rect x="655.19" y="95.76" width="8.52" height="14.2" fill="#594D4D"/><rect x="706.32" y="96.7" width="7.57" height="8.52" fill="#594D4D"/><rect x="748.92" y="96.7" width="7.57" height="8.52" fill="#594D4D"/><g><g><path d="M644.72 61.26 642.24 61.26C641.8 61.26 641.44 60.9 641.44 60.46L641.44 57.47C641.44 57.03 641.8 56.67 642.24 56.67L644.72 56.67C645.16 56.67 645.52 57.03 645.52 57.47L645.52 60.46C645.53 60.9 645.17 61.26 644.72 61.26Z" fill="#594D4D"/><path d="M669.85 61.26 667.37 61.26C666.93 61.26 666.57 60.9 666.57 60.46L666.57 57.47C666.57 57.03 666.93 56.67 667.37 56.67L669.85 56.67C670.29 56.67 670.65 57.03 670.65 57.47L670.65 60.46C670.65 60.9 670.29 61.26 669.85 61.26Z" fill="#594D4D"/><path d="M694.97 61.26 692.49 61.26C692.05 61.26 691.69 60.9 691.69 60.46L691.69 57.47C691.69 57.03 692.05 56.67 692.49 56.67L694.97 56.67C695.41 56.67 695.77 57.03 695.77 57.47L695.77 60.46C695.78 60.9 695.42 61.26 694.97 61.26Z" fill="#594D4D"/><path d="M720.1 61.26 717.62 61.26C717.18 61.26 716.82 60.9 716.82 60.46L716.82 57.47C716.82 57.03 717.18 56.67 717.62 56.67L720.1 56.67C720.54 56.67 720.9 57.03 720.9 57.47L720.9 60.46C720.9 60.9 720.54 61.26 720.1 61.26Z" fill="#594D4D"/><path d="M745.22 61.26 742.74 61.26C742.3 61.26 741.94 60.9 741.94 60.46L741.94 57.47C741.94 57.03 742.3 56.67 742.74 56.67L745.22 56.67C745.66 56.67 746.02 57.03 746.02 57.47L746.02 60.46C746.03 60.9 745.67 61.26 745.22 61.26Z" fill="#594D4D"/><path d="M770.35 61.26 767.87 61.26C767.43 61.26 767.07 60.9 767.07 60.46L767.07 57.47C767.07 57.03 767.43 56.67 767.87 56.67L770.35 56.67C770.79 56.67 771.15 57.03 771.15 57.47L771.15 60.46C771.15 60.9 770.79 61.26 770.35 61.26Z" fill="#594D4D"/></g><g><path d="M632.5 80.25 630.02 80.25C629.58 80.25 629.22 79.89 629.22 79.45L629.22 76.46C629.22 76.02 629.58 75.66 630.02 75.66L632.5 75.66C632.94 75.66 633.3 76.02 633.3 76.46L633.3 79.45C633.3 79.89 632.94 80.25 632.5 80.25Z" fill="#594D4D"/><path d="M657.62 80.25 655.14 80.25C654.7 80.25 654.34 79.89 654.34 79.45L654.34 76.46C654.34 76.02 654.7 75.66 655.14 75.66L657.62 75.66C658.06 75.66 658.42 76.02 658.42 76.46L658.42 79.45C658.43 79.89 658.07 80.25 657.62 80.25Z" fill="#594D4D"/><path d="M682.75 80.25 680.27 80.25C679.83 80.25 679.47 79.89 679.47 79.45L679.47 76.46C679.47 76.02 679.83 75.66 680.27 75.66L682.75 75.66C683.19 75.66 683.55 76.02 683.55 76.46L683.55 79.45C683.55 79.89 683.19 80.25 682.75 80.25Z" fill="#594D4D"/><path d="M707.87 80.25 705.39 80.25C704.95 80.25 704.59 79.89 704.59 79.45L704.59 76.46C704.59 76.02 704.95 75.66 705.39 75.66L707.87 75.66C708.31 75.66 708.67 76.02 708.67 76.46L708.67 79.45C708.68 79.89 708.32 80.25 707.87 80.25Z" fill="#594D4D"/><path d="M733 80.25 730.52 80.25C730.08 80.25 729.72 79.89 729.72 79.45L729.72 76.46C729.72 76.02 730.08 75.66 730.52 75.66L733 75.66C733.44 75.66 733.8 76.02 733.8 76.46L733.8 79.45C733.8 79.89 733.44 80.25 733 80.25Z" fill="#594D4D"/><path d="M758.12 80.25 755.64 80.25C755.2 80.25 754.84 79.89 754.84 79.45L754.84 76.46C754.84 76.02 755.2 75.66 755.64 75.66L758.12 75.66C758.56 75.66 758.92 76.02 758.92 76.46L758.92 79.45C758.93 79.89 758.57 80.25 758.12 80.25Z" fill="#594D4D"/><path d="M782.01 80.25 779.53 80.25C779.09 80.25 778.73 79.89 778.73 79.45L778.73 76.46C778.73 76.02 779.09 75.66 779.53 75.66L782.01 75.66C782.45 75.66 782.81 76.02 782.81 76.46L782.81 79.45C782.81 79.89 782.45 80.25 782.01 80.25Z" fill="#594D4D"/></g></g></g><rect x="408.07" y="340.98" width="467.09" height="115.51" fill="#C59160"/><rect x="408.07" y="374.12" width="192.2" height="7.57" fill="#E8B588"/><rect x="681.7" y="376.96" width="358.84" height="79.53" fill="#C59160"/><rect x="681.7" y="374.12" width="358.84" height="7.57" fill="#E8B588"/><rect x="315.76" y="340.03" width="89.16" height="7.57" fill="#E8B588"/><path d="M402.14 340.93 422.29 340.93 436.87 456.49 407.7 456.49Z" fill="#A07448" opacity="0.3"/><rect x="294.46" y="329.62" width="24.62" height="126.87" fill="#D5A272"/><rect x="290.67" y="327.72" width="32.19" height="7.57" fill="#E8B588"/><rect x="387.24" y="329.62" width="24.62" height="126.87" fill="#D5A272"/><rect x="383.46" y="327.72" width="32.19" height="7.57" fill="#E8B588"/><g><rect x="391.66" y="320.47" width="23.99" height="7.57" fill="#E8B588"/><rect x="399.87" y="312.89" width="15.78" height="7.57" fill="#E8B588"/><rect x="406.81" y="305.32" width="8.84" height="7.57" fill="#E8B588"/></g><g><rect x="290.67" y="320.47" width="23.99" height="7.57" fill="#E8B588" transform="matrix(-1 -1.22465e-16 1.22465e-16 -1 605.326 648.506)"/><rect x="290.67" y="312.89" width="15.78" height="7.57" fill="#E8B588" transform="matrix(-1 -1.22465e-16 1.22465e-16 -1 597.12 633.357)"/><rect x="290.67" y="305.32" width="8.84" height="7.57" fill="#E8B588" transform="matrix(-1 -1.22465e-16 1.22465e-16 -1 590.177 618.208)"/></g><g><rect x="590.81" y="289.85" width="23.99" height="7.57" fill="#E8B588" transform="matrix(-1 -1.22465e-16 1.22465e-16 -1 1205.6 587.279)"/><rect x="590.81" y="282.28" width="15.78" height="7.57" fill="#E8B588" transform="matrix(-1 -1.22465e-16 1.22465e-16 -1 1197.4 572.13)"/><rect x="590.81" y="274.7" width="8.84" height="7.57" fill="#E8B588" transform="matrix(-1 -1.22465e-16 1.22465e-16 -1 1190.45 556.982)"/></g><g><g><rect x="496.13" y="333.28" width="23.99" height="7.57" fill="#E8B588" transform="matrix(-1 -1.22465e-16 1.22465e-16 -1 1016.24 674.133)"/><rect x="496.13" y="325.7" width="15.78" height="7.57" fill="#E8B588" transform="matrix(-1 -1.22465e-16 1.22465e-16 -1 1008.03 658.984)"/><rect x="496.13" y="318.13" width="8.84" height="7.57" fill="#E8B588" transform="matrix(-1 -1.22465e-16 1.22465e-16 -1 1001.09 643.835)"/></g><g><rect x="480.66" y="333.28" width="23.99" height="7.57" fill="#E8B588"/><rect x="488.87" y="325.7" width="15.78" height="7.57" fill="#E8B588"/><rect x="495.81" y="318.13" width="8.84" height="7.57" fill="#E8B588"/></g></g><g><g><rect x="726.2" y="333.28" width="23.99" height="7.57" fill="#E8B588" transform="matrix(-1 -1.22465e-16 1.22465e-16 -1 1476.39 674.133)"/><rect x="726.2" y="325.7" width="15.78" height="7.57" fill="#E8B588" transform="matrix(-1 -1.22465e-16 1.22465e-16 -1 1468.18 658.984)"/><rect x="726.2" y="318.13" width="8.84" height="7.57" fill="#E8B588" transform="matrix(-1 -1.22465e-16 1.22465e-16 -1 1461.24 643.835)"/></g><g><rect x="710.74" y="333.28" width="23.99" height="7.57" fill="#E8B588"/><rect x="718.94" y="325.7" width="15.78" height="7.57" fill="#E8B588"/><rect x="725.89" y="318.13" width="8.84" height="7.57" fill="#E8B588"/></g></g><g><g><rect x="837.29" y="333.28" width="23.99" height="7.57" fill="#E8B588" transform="matrix(-1 -1.22465e-16 1.22465e-16 -1 1698.57 674.133)"/><rect x="837.29" y="325.7" width="15.78" height="7.57" fill="#E8B588" transform="matrix(-1 -1.22465e-16 1.22465e-16 -1 1690.37 658.984)"/><rect x="837.29" y="318.13" width="8.84" height="7.57" fill="#E8B588" transform="matrix(-1 -1.22465e-16 1.22465e-16 -1 1683.42 643.835)"/></g><g><rect x="821.83" y="333.28" width="23.99" height="7.57" fill="#E8B588"/><rect x="830.03" y="325.7" width="15.78" height="7.57" fill="#E8B588"/><rect x="836.98" y="318.13" width="8.84" height="7.57" fill="#E8B588"/></g></g><g><rect x="667.18" y="289.85" width="23.99" height="7.57" fill="#E8B588"/><rect x="675.39" y="282.28" width="15.78" height="7.57" fill="#E8B588"/><rect x="682.33" y="274.7" width="8.84" height="7.57" fill="#E8B588"/></g><rect x="590.81" y="297.43" width="100.36" height="7.57" fill="#E8B588"/><path d="M685.02 340.93 700.99 340.93 719.75 456.49 690.57 456.49Z" fill="#A07448" opacity="0.3"/><path d="M693.06 456.49 588.91 456.49 594.99 305 686.99 305Z" fill="#D5A272"/><path d="M372.1 456.49 334.86 456.49 334.86 395.58C334.86 385.3 343.2 376.96 353.48 376.96L353.48 376.96C363.76 376.96 372.1 385.3 372.1 395.58L372.1 456.49Z" fill="#594D4D"/><rect x="112.67" y="387.72" width="61.54" height="68.77" fill="#FFF2D4"/><path d="M163.18 456.49 123.7 456.49 123.7 417.47C123.7 406.79 132.36 398.14 143.03 398.14L143.84 398.14C154.52 398.14 163.17 406.8 163.17 417.47L163.17 456.49Z" fill="#594D4D"/><rect x="633.86" y="345.5" width="16.59" height="19.36" fill="#594D4D"/><rect x="662.27" y="349.92" width="9.02" height="10.52" fill="#594D4D"/><path d="M644.72 61.26 642.24 61.26C641.8 61.26 641.44 60.9 641.44 60.46L641.44 57.47C641.44 57.03 641.8 56.67 642.24 56.67L644.72 56.67C645.16 56.67 645.52 57.03 645.52 57.47L645.52 60.46C645.53 60.9 645.17 61.26 644.72 61.26Z" fill="#594D4D"/><g><rect x="515.53" y="398.84" width="6.95" height="56.96" fill="#A07448"/><rect x="515.53" y="398.84" width="6.95" height="7.64" fill="#594D4D"/></g><g><rect x="244.64" y="364.46" width="6.95" height="91.34" fill="#A07448"/><rect x="244.64" y="364.46" width="6.95" height="7.64" fill="#594D4D"/></g><g><rect x="61.27" y="364.46" width="6.95" height="91.34" fill="#A07448"/><rect x="61.27" y="364.46" width="6.95" height="7.64" fill="#594D4D"/></g><g opacity="0.3"><path d="M31.48 371.36 18.9 371.36C18.35 371.36 17.9 370.91 17.9 370.36 17.9 369.81 18.35 369.36 18.9 369.36L31.48 369.36C32.03 369.36 32.48 369.81 32.48 370.36 32.48 370.91 32.03 371.36 31.48 371.36Z" fill="#A07448"/><path d="M48.09 387.34 29.32 387.34C28.77 387.34 28.32 386.89 28.32 386.34 28.32 385.79 28.77 385.34 29.32 385.34L48.09 385.34C48.64 385.34 49.09 385.79 49.09 386.34 49.08 386.89 48.64 387.34 48.09 387.34Z" fill="#A07448"/><path d="M158.52 361.64 107.81 361.64C107.26 361.64 106.81 361.19 106.81 360.64 106.81 360.09 107.26 359.64 107.81 359.64L158.52 359.64C159.07 359.64 159.52 360.09 159.52 360.64 159.52 361.19 159.07 361.64 158.52 361.64Z" fill="#A07448"/><path d="M185.6 373.44 169.62 373.44C169.07 373.44 168.62 372.99 168.62 372.44 168.62 371.89 169.07 371.44 169.62 371.44L185.6 371.44C186.15 371.44 186.6 371.89 186.6 372.44 186.6 373 186.15 373.44 185.6 373.44Z" fill="#A07448"/><path d="M214.08 414.42 191.85 414.42C191.3 414.42 190.85 413.97 190.85 413.42 190.85 412.87 191.3 412.42 191.85 412.42L214.08 412.42C214.63 412.42 215.08 412.87 215.08 413.42 215.08 413.98 214.63 414.42 214.08 414.42Z" fill="#A07448"/><path d="M223.8 437.35 213.38 437.35C212.83 437.35 212.38 436.9 212.38 436.35 212.38 435.8 212.83 435.35 213.38 435.35L223.8 435.35C224.35 435.35 224.8 435.8 224.8 436.35 224.8 436.9 224.36 437.35 223.8 437.35Z" fill="#A07448"/><path d="M281.48 369.97 269.65 369.97C269.1 369.97 268.65 369.52 268.65 368.97 268.65 368.42 269.1 367.97 269.65 367.97L281.48 367.97C282.03 367.97 282.48 368.42 282.48 368.97 282.48 369.52 282.03 369.97 281.48 369.97Z" fill="#A07448"/><path d="M269.8 404.01 263.4 404.01C262.85 404.01 262.4 403.56 262.4 403.01 262.4 402.46 262.85 402.01 263.4 402.01L269.8 402.01C270.35 402.01 270.8 402.46 270.8 403.01 270.8 403.56 270.35 404.01 269.8 404.01Z" fill="#A07448"/><path d="M43.25 441.51 19.59 441.51C19.04 441.51 18.59 441.06 18.59 440.51 18.59 439.96 19.04 439.51 19.59 439.51L43.25 439.51C43.8 439.51 44.25 439.96 44.25 440.51 44.25 441.07 43.8 441.51 43.25 441.51Z" fill="#A07448"/><path d="M96 417.9 84.19 417.9C83.64 417.9 83.19 417.45 83.19 416.9 83.19 416.35 83.64 415.9 84.19 415.9L96 415.9C96.55 415.9 97 416.35 97 416.9 97 417.45 96.55 417.9 96 417.9Z" fill="#A07448"/><path d="M467.61 357.47 437.05 357.47C436.5 357.47 436.05 357.02 436.05 356.47 436.05 355.92 436.5 355.47 437.05 355.47L467.61 355.47C468.16 355.47 468.61 355.92 468.61 356.47 468.61 357.02 468.16 357.47 467.61 357.47Z" fill="#A07448"/><path d="M516.29 365.8 500.95 365.8C500.4 365.8 499.95 365.35 499.95 364.8 499.95 364.25 500.4 363.8 500.95 363.8L516.29 363.8C516.84 363.8 517.29 364.25 517.29 364.8 517.29 365.36 516.84 365.8 516.29 365.8Z" fill="#A07448"/><path d="M569.73 353.3 550.27 353.3C549.72 353.3 549.27 352.85 549.27 352.3 549.27 351.75 549.72 351.3 550.27 351.3L569.73 351.3C570.28 351.3 570.73 351.75 570.73 352.3 570.72 352.85 570.28 353.3 569.73 353.3Z" fill="#A07448"/><path d="M444.69 417.2 428.02 417.2C427.47 417.2 427.02 416.75 427.02 416.2 427.02 415.65 427.47 415.2 428.02 415.2L444.69 415.2C445.24 415.2 445.69 415.65 445.69 416.2 445.68 416.76 445.24 417.2 444.69 417.2Z" fill="#A07448"/><path d="M459.99 403.31 450.93 403.31C450.38 403.31 449.93 402.86 449.93 402.31 449.93 401.76 450.38 401.31 450.93 401.31L459.99 401.31C460.54 401.31 460.99 401.76 460.99 402.31 460.99 402.86 460.55 403.31 459.99 403.31Z" fill="#A07448"/><path d="M485.94 444.29 454.41 444.29C453.86 444.29 453.41 443.84 453.41 443.29 453.41 442.74 453.86 442.29 454.41 442.29L485.94 442.29C486.49 442.29 486.94 442.74 486.94 443.29 486.94 443.85 486.5 444.29 485.94 444.29Z" fill="#A07448"/><path d="M495.39 429.71 489.83 429.71C489.28 429.71 488.83 429.26 488.83 428.71 488.83 428.16 489.28 427.71 489.83 427.71L495.39 427.71C495.94 427.71 496.39 428.16 496.39 428.71 496.39 429.26 495.94 429.71 495.39 429.71Z" fill="#A07448"/><path d="M566.93 435.96 541.23 435.96C540.68 435.96 540.23 435.51 540.23 434.96 540.23 434.41 540.68 433.96 541.23 433.96L566.93 433.96C567.48 433.96 567.93 434.41 567.93 434.96 567.93 435.51 567.49 435.96 566.93 435.96Z" fill="#A07448"/><path d="M571.8 400.53 562.08 400.53C561.53 400.53 561.08 400.08 561.08 399.53 561.08 398.98 561.53 398.53 562.08 398.53L571.8 398.53C572.35 398.53 572.8 398.98 572.8 399.53 572.8 400.09 572.35 400.53 571.8 400.53Z" fill="#A07448"/><path d="M760.73 408.87 714.88 408.87C714.33 408.87 713.88 408.42 713.88 407.87 713.88 407.32 714.33 406.87 714.88 406.87L760.73 406.87C761.28 406.87 761.73 407.32 761.73 407.87 761.73 408.42 761.28 408.87 760.73 408.87Z" fill="#A07448"/><path d="M769.78 424.84 758.64 424.84C758.09 424.84 757.64 424.39 757.64 423.84 757.64 423.29 758.09 422.84 758.64 422.84L769.78 422.84C770.33 422.84 770.78 423.29 770.78 423.84 770.78 424.4 770.33 424.84 769.78 424.84Z" fill="#A07448"/><path d="M841.34 399.84 814.9 399.84C814.35 399.84 813.9 399.39 813.9 398.84 813.9 398.29 814.35 397.84 814.9 397.84L841.33 397.84C841.88 397.84 842.33 398.29 842.33 398.84 842.33 399.39 841.89 399.84 841.34 399.84Z" fill="#A07448"/><path d="M886.07 440.13 836.44 440.13C835.89 440.13 835.44 439.68 835.44 439.13 835.44 438.58 835.89 438.13 836.44 438.13L886.07 438.13C886.62 438.13 887.07 438.58 887.07 439.13 887.06 439.68 886.62 440.13 886.07 440.13Z" fill="#A07448"/><path d="M896.19 422.76 882.97 422.76C882.42 422.76 881.97 422.31 881.97 421.76 881.97 421.21 882.42 420.76 882.97 420.76L896.19 420.76C896.74 420.76 897.19 421.21 897.19 421.76 897.19 422.31 896.74 422.76 896.19 422.76Z" fill="#A07448"/><path d="M965.69 403.31 929.51 403.31C928.96 403.31 928.51 402.86 928.51 402.31 928.51 401.76 928.96 401.31 929.51 401.31L965.69 401.31C966.24 401.31 966.69 401.76 966.69 402.31 966.69 402.86 966.24 403.31 965.69 403.31Z" fill="#A07448"/><path d="M982.31 435.26 962.85 435.26C962.3 435.26 961.85 434.81 961.85 434.26 961.85 433.71 962.3 433.26 962.85 433.26L982.31 433.26C982.86 433.26 983.31 433.71 983.31 434.26 983.31 434.82 982.87 435.26 982.31 435.26Z" fill="#A07448"/><path d="M1023.34 444.99 983.69 444.99C983.14 444.99 982.69 444.54 982.69 443.99 982.69 443.44 983.14 442.99 983.69 442.99L1023.34 442.99C1023.89 442.99 1024.34 443.44 1024.34 443.99 1024.34 444.54 1023.89 444.99 1023.34 444.99Z" fill="#A07448"/><path d="M1026.12 399.84 1010.78 399.84C1010.23 399.84 1009.78 399.39 1009.78 398.84 1009.78 398.29 1010.23 397.84 1010.78 397.84L1026.12 397.84C1026.67 397.84 1027.12 398.29 1027.12 398.84 1027.12 399.39 1026.68 399.84 1026.12 399.84Z" fill="#A07448"/><path d="M724.67 442.21 708.63 442.21C708.08 442.21 707.63 441.76 707.63 441.21 707.63 440.66 708.08 440.21 708.63 440.21L724.67 440.21C725.22 440.21 725.67 440.66 725.67 441.21 725.67 441.76 725.22 442.21 724.67 442.21Z" fill="#A07448"/><path d="M733.64 363.02 709.33 363.02C708.78 363.02 708.33 362.57 708.33 362.02 708.33 361.47 708.78 361.02 709.33 361.02L733.64 361.02C734.19 361.02 734.64 361.47 734.64 362.02 734.64 362.58 734.19 363.02 733.64 363.02Z" fill="#A07448"/><path d="M754.49 351.22 741.97 351.22C741.42 351.22 740.97 350.77 740.97 350.22 740.97 349.67 741.42 349.22 741.97 349.22L754.49 349.22C755.04 349.22 755.49 349.67 755.49 350.22 755.49 350.77 755.05 351.22 754.49 351.22Z" fill="#A07448"/><path d="M803.11 365.8 786.43 365.8C785.88 365.8 785.43 365.35 785.43 364.8 785.43 364.25 785.88 363.8 786.43 363.8L803.11 363.8C803.66 363.8 804.11 364.25 804.11 364.8 804.11 365.36 803.66 365.8 803.11 365.8Z" fill="#A07448"/><path d="M851.73 352.61 828.8 352.61C828.25 352.61 827.8 352.16 827.8 351.61 827.8 351.06 828.25 350.61 828.8 350.61L851.73 350.61C852.28 350.61 852.73 351.06 852.73 351.61 852.73 352.16 852.28 352.61 851.73 352.61Z" fill="#A07448"/><path d="M863.56 363.72 857.27 363.72C856.72 363.72 856.27 363.27 856.27 362.72 856.27 362.17 856.72 361.72 857.27 361.72L863.56 361.72C864.11 361.72 864.56 362.17 864.56 362.72 864.56 363.27 864.12 363.72 863.56 363.72Z" fill="#A07448"/><path d="M309.3 448.11 300.38 448.11C299.83 448.11 299.38 447.66 299.38 447.11 299.38 446.56 299.83 446.11 300.38 446.11L309.3 446.11C309.85 446.11 310.3 446.56 310.3 447.11 310.3 447.67 309.85 448.11 309.3 448.11Z" fill="#A07448"/><path d="M311.85 420.5 301.95 420.5C301.4 420.5 300.95 420.05 300.95 419.5 300.95 418.95 301.4 418.5 301.95 418.5L311.85 418.5C312.4 418.5 312.85 418.95 312.85 419.5 312.84 420.06 312.4 420.5 311.85 420.5Z" fill="#A07448"/><path d="M302.99 387.16 299.86 387.16C299.31 387.16 298.86 386.71 298.86 386.16 298.86 385.61 299.31 385.16 299.86 385.16L302.99 385.16C303.54 385.16 303.99 385.61 303.99 386.16 303.99 386.71 303.54 387.16 302.99 387.16Z" fill="#A07448"/><path d="M311.32 358.51 302.99 358.51C302.44 358.51 301.99 358.06 301.99 357.51 301.99 356.96 302.44 356.51 302.99 356.51L311.32 356.51C311.87 356.51 312.32 356.96 312.32 357.51 312.32 358.06 311.88 358.51 311.32 358.51Z" fill="#A07448"/><path d="M400.93 434.57 395.2 434.57C394.65 434.57 394.2 434.12 394.2 433.57 394.2 433.02 394.65 432.57 395.2 432.57L400.93 432.57C401.48 432.57 401.93 433.02 401.93 433.57 401.93 434.12 401.48 434.57 400.93 434.57Z" fill="#A07448"/><path d="M404.07 403.83 397.28 403.83C396.73 403.83 396.28 403.38 396.28 402.83 396.28 402.28 396.73 401.83 397.28 401.83L404.07 401.83C404.62 401.83 405.07 402.28 405.07 402.83 405.07 403.38 404.62 403.83 404.07 403.83Z" fill="#A07448"/><path d="M397.28 363.2 393.63 363.2C393.08 363.2 392.63 362.75 392.63 362.2 392.63 361.65 393.08 361.2 393.63 361.2L397.28 361.2C397.83 361.2 398.28 361.65 398.28 362.2 398.28 362.75 397.83 363.2 397.28 363.2Z" fill="#A07448"/><path d="M403.53 345.49 400.4 345.49C399.85 345.49 399.4 345.04 399.4 344.49 399.4 343.94 399.85 343.49 400.4 343.49L403.53 343.49C404.08 343.49 404.53 343.94 404.53 344.49 404.53 345.04 404.08 345.49 403.53 345.49Z" fill="#A07448"/><path d="M405.09 448.11 401.44 448.11C400.89 448.11 400.44 447.66 400.44 447.11 400.44 446.56 400.89 446.11 401.44 446.11L405.09 446.11C405.64 446.11 406.09 446.56 406.09 447.11 406.09 447.67 405.65 448.11 405.09 448.11Z" fill="#A07448"/><path d="M621.83 446.03 600.97 446.03C600.42 446.03 599.97 445.58 599.97 445.03 599.97 444.48 600.42 444.03 600.97 444.03L621.83 444.03C622.38 444.03 622.83 444.48 622.83 445.03 622.83 445.58 622.39 446.03 621.83 446.03Z" fill="#A07448"/><path d="M627.08 435.61 618.68 435.61C618.13 435.61 617.68 435.16 617.68 434.61 617.68 434.06 618.13 433.61 618.68 433.61L627.08 433.61C627.63 433.61 628.08 434.06 628.08 434.61 628.08 435.16 627.63 435.61 627.08 435.61Z" fill="#A07448"/><path d="M680.67 412.69 659.31 412.69C658.76 412.69 658.31 412.24 658.31 411.69 658.31 411.14 658.76 410.69 659.31 410.69L680.67 410.69C681.22 410.69 681.67 411.14 681.67 411.69 681.67 412.24 681.23 412.69 680.67 412.69Z" fill="#A07448"/><path d="M633.29 393.93 625.98 393.93C625.43 393.93 624.98 393.48 624.98 392.93 624.98 392.38 625.43 391.93 625.98 391.93L633.29 391.93C633.84 391.93 634.29 392.38 634.29 392.93 634.29 393.49 633.84 393.93 633.29 393.93Z" fill="#A07448"/><path d="M616.61 361.64 602.53 361.64C601.98 361.64 601.53 361.19 601.53 360.64 601.53 360.09 601.98 359.64 602.53 359.64L616.61 359.64C617.16 359.64 617.61 360.09 617.61 360.64 617.61 361.19 617.16 361.64 616.61 361.64Z" fill="#A07448"/><path d="M635.87 329.34 615.55 329.34C615 329.34 614.55 328.89 614.55 328.34 614.55 327.79 615 327.34 615.55 327.34L635.87 327.34C636.42 327.34 636.87 327.79 636.87 328.34 636.87 328.89 636.42 329.34 635.87 329.34Z" fill="#A07448"/><path d="M640.56 319.44 635.35 319.44C634.8 319.44 634.35 318.99 634.35 318.44 634.35 317.89 634.8 317.44 635.35 317.44L640.56 317.44C641.11 317.44 641.56 317.89 641.56 318.44 641.56 318.99 641.11 319.44 640.56 319.44Z" fill="#A07448"/><path d="M671.35 330.9 660.36 330.9C659.81 330.9 659.36 330.45 659.36 329.9 659.36 329.35 659.81 328.9 660.36 328.9L671.35 328.9C671.9 328.9 672.35 329.35 672.35 329.9 672.35 330.45 671.9 330.9 671.35 330.9Z" fill="#A07448"/></g><g opacity="0.3"><path d="M33.15 275.68 21.16 275.68C20.61 275.68 20.16 275.23 20.16 274.68 20.16 274.13 20.61 273.68 21.16 273.68L33.15 273.68C33.7 273.68 34.15 274.13 34.15 274.68 34.15 275.23 33.7 275.68 33.15 275.68Z" fill="#A07448"/><path d="M46.16 283.49 35.74 283.49C35.19 283.49 34.74 283.04 34.74 282.49 34.74 281.94 35.19 281.49 35.74 281.49L46.16 281.49C46.71 281.49 47.16 281.94 47.16 282.49 47.16 283.05 46.71 283.49 46.16 283.49Z" fill="#A07448"/><path d="M125.87 274.64 99.82 274.64C99.27 274.64 98.82 274.19 98.82 273.64 98.82 273.09 99.27 272.64 99.82 272.64L125.87 272.64C126.42 272.64 126.87 273.09 126.87 273.64 126.87 274.19 126.42 274.64 125.87 274.64Z" fill="#A07448"/><path d="M137.33 290.27 128.99 290.27C128.44 290.27 127.99 289.82 127.99 289.27 127.99 288.72 128.44 288.27 128.99 288.27L137.33 288.27C137.88 288.27 138.33 288.72 138.33 289.27 138.33 289.82 137.88 290.27 137.33 290.27Z" fill="#A07448"/><path d="M179 323.09 125.34 323.09C124.79 323.09 124.34 322.64 124.34 322.09 124.34 321.54 124.79 321.09 125.34 321.09L179 321.09C179.55 321.09 180 321.54 180 322.09 180 322.64 179.56 323.09 179 323.09Z" fill="#A07448"/><path d="M208.36 309.54 196.71 309.54C196.16 309.54 195.71 309.09 195.71 308.54 195.71 307.99 196.16 307.54 196.71 307.54L208.36 307.54C208.91 307.54 209.36 307.99 209.36 308.54 209.36 309.09 208.92 309.54 208.36 309.54Z" fill="#A07448"/><path d="M218.14 270.99 210.26 270.99C209.71 270.99 209.26 270.54 209.26 269.99 209.26 269.44 209.71 268.99 210.26 268.99L218.14 268.99C218.69 268.99 219.14 269.44 219.14 269.99 219.14 270.54 218.7 270.99 218.14 270.99Z" fill="#A07448"/><path d="M204.06 253.8 177.97 253.8C177.42 253.8 176.97 253.35 176.97 252.8 176.97 252.25 177.42 251.8 177.97 251.8L204.06 251.8C204.61 251.8 205.06 252.25 205.06 252.8 205.05 253.35 204.61 253.8 204.06 253.8Z" fill="#A07448"/><path d="M222.76 232.44 214.95 232.44C214.4 232.44 213.95 231.99 213.95 231.44 213.95 230.89 214.4 230.44 214.95 230.44L222.76 230.44C223.31 230.44 223.76 230.89 223.76 231.44 223.76 231.99 223.32 232.44 222.76 232.44Z" fill="#A07448"/><path d="M153.49 135.02 145.14 135.02C144.59 135.02 144.14 134.57 144.14 134.02 144.14 133.47 144.59 133.02 145.14 133.02L153.49 133.02C154.04 133.02 154.49 133.47 154.49 134.02 154.49 134.58 154.05 135.02 153.49 135.02Z" fill="#A07448"/><path d="M201.97 121.48 188.39 121.48C187.84 121.48 187.39 121.03 187.39 120.48 187.39 119.93 187.84 119.48 188.39 119.48L201.97 119.48C202.52 119.48 202.97 119.93 202.97 120.48 202.96 121.03 202.52 121.48 201.97 121.48Z" fill="#A07448"/><path d="M228.49 188.68 223.28 188.68C222.73 188.68 222.28 188.23 222.28 187.68 222.28 187.13 222.73 186.68 223.28 186.68L228.49 186.68C229.04 186.68 229.49 187.13 229.49 187.68 229.49 188.23 229.05 188.68 228.49 188.68Z" fill="#A07448"/><path d="M268.64 327.77 251.42 327.77C250.87 327.77 250.42 327.32 250.42 326.77 250.42 326.22 250.87 325.77 251.42 325.77L268.64 325.77C269.19 325.77 269.64 326.22 269.64 326.77 269.64 327.33 269.19 327.77 268.64 327.77Z" fill="#A07448"/><path d="M272.27 305.37 264.96 305.37C264.41 305.37 263.96 304.92 263.96 304.37 263.96 303.82 264.41 303.37 264.96 303.37L272.27 303.37C272.82 303.37 273.27 303.82 273.27 304.37 273.27 304.93 272.82 305.37 272.27 305.37Z" fill="#A07448"/><path d="M268.09 255.88 248.81 255.88C248.26 255.88 247.81 255.43 247.81 254.88 247.81 254.33 248.26 253.88 248.81 253.88L268.09 253.88C268.64 253.88 269.09 254.33 269.09 254.88 269.08 255.44 268.64 255.88 268.09 255.88Z" fill="#A07448"/><path d="M278.52 243.9 271.73 243.9C271.18 243.9 270.73 243.45 270.73 242.9 270.73 242.35 271.18 241.9 271.73 241.9L278.52 241.9C279.07 241.9 279.52 242.35 279.52 242.9 279.52 243.45 279.08 243.9 278.52 243.9Z" fill="#A07448"/><path d="M276.98 162.63 261.32 162.63C260.77 162.63 260.32 162.18 260.32 161.63 260.32 161.08 260.77 160.63 261.32 160.63L276.98 160.63C277.53 160.63 277.98 161.08 277.98 161.63 277.98 162.19 277.53 162.63 276.98 162.63Z" fill="#A07448"/><path d="M342.16 130.34 336.85 130.34C336.3 130.34 335.85 129.89 335.85 129.34 335.85 128.79 336.3 128.34 336.85 128.34L342.16 128.34C342.71 128.34 343.16 128.79 343.16 129.34 343.16 129.89 342.71 130.34 342.16 130.34Z" fill="#A07448"/><path d="M410.3 163.68 389.98 163.68C389.43 163.68 388.98 163.23 388.98 162.68 388.98 162.13 389.43 161.68 389.98 161.68L410.3 161.68C410.85 161.68 411.3 162.13 411.3 162.68 411.3 163.23 410.86 163.68 410.3 163.68Z" fill="#A07448"/><path d="M402.01 250.67 389.46 250.67C388.91 250.67 388.46 250.22 388.46 249.67 388.46 249.12 388.91 248.67 389.46 248.67L402.01 248.67C402.56 248.67 403.01 249.12 403.01 249.67 403.01 250.23 402.56 250.67 402.01 250.67Z" fill="#A07448"/><path d="M411.43 270.47 397.28 270.47C396.73 270.47 396.28 270.02 396.28 269.47 396.28 268.92 396.73 268.47 397.28 268.47L411.43 268.47C411.98 268.47 412.43 268.92 412.43 269.47 412.43 270.02 411.98 270.47 411.43 270.47Z" fill="#A07448"/><path d="M356.14 319.44 347.27 319.44C346.72 319.44 346.27 318.99 346.27 318.44 346.27 317.89 346.72 317.44 347.27 317.44L356.14 317.44C356.69 317.44 357.14 317.89 357.14 318.44 357.14 318.99 356.69 319.44 356.14 319.44Z" fill="#A07448"/><path d="M394.17 90.22 382.18 90.22C381.63 90.22 381.18 89.77 381.18 89.22 381.18 88.67 381.63 88.22 382.18 88.22L394.17 88.22C394.72 88.22 395.17 88.67 395.17 89.22 395.16 89.78 394.72 90.22 394.17 90.22Z" fill="#A07448"/><path d="M317.75 60.01 310.8 60.01C310.25 60.01 309.8 59.56 309.8 59.01 309.8 58.46 310.25 58.01 310.8 58.01L317.75 58.01C318.3 58.01 318.75 58.46 318.75 59.01 318.75 59.56 318.3 60.01 317.75 60.01Z" fill="#A07448"/><path d="M291.58 93.87 268.09 93.87C267.54 93.87 267.09 93.42 267.09 92.87 267.09 92.32 267.54 91.87 268.09 91.87L291.58 91.87C292.13 91.87 292.58 92.32 292.58 92.87 292.58 93.42 292.13 93.87 291.58 93.87Z" fill="#A07448"/><path d="M480.68 75.64 457.19 75.64C456.64 75.64 456.19 75.19 456.19 74.64 456.19 74.09 456.64 73.64 457.19 73.64L480.68 73.64C481.23 73.64 481.68 74.09 481.68 74.64 481.68 75.19 481.24 75.64 480.68 75.64Z" fill="#A07448"/><path d="M509.3 69.39 500.95 69.39C500.4 69.39 499.95 68.94 499.95 68.39 499.95 67.84 500.4 67.39 500.95 67.39L509.3 67.39C509.85 67.39 510.3 67.84 510.3 68.39 510.3 68.94 509.85 69.39 509.3 69.39Z" fill="#A07448"/><path d="M595.24 80.85 569.71 80.85C569.16 80.85 568.71 80.4 568.71 79.85 568.71 79.3 569.16 78.85 569.71 78.85L595.24 78.85C595.79 78.85 596.24 79.3 596.24 79.85 596.24 80.4 595.8 80.85 595.24 80.85Z" fill="#A07448"/><path d="M585.34 125.13 578.05 125.13C577.5 125.13 577.05 124.68 577.05 124.13 577.05 123.58 577.5 123.13 578.05 123.13L585.34 123.13C585.89 123.13 586.34 123.58 586.34 124.13 586.34 124.68 585.89 125.13 585.34 125.13Z" fill="#A07448"/><path d="M595.24 179.83 568.67 179.83C568.12 179.83 567.67 179.38 567.67 178.83 567.67 178.28 568.12 177.83 568.67 177.83L595.24 177.83C595.79 177.83 596.24 178.28 596.24 178.83 596.24 179.38 595.8 179.83 595.24 179.83Z" fill="#A07448"/><path d="M595.76 195.45 588.99 195.45C588.44 195.45 587.99 195 587.99 194.45 587.99 193.9 588.44 193.45 588.99 193.45L595.76 193.45C596.31 193.45 596.76 193.9 596.76 194.45 596.76 195 596.31 195.45 595.76 195.45Z" fill="#A07448"/><path d="M558.8 217.85 538.98 217.85C538.43 217.85 537.98 217.4 537.98 216.85 537.98 216.3 538.43 215.85 538.98 215.85L558.8 215.85C559.35 215.85 559.8 216.3 559.8 216.85 559.8 217.41 559.35 217.85 558.8 217.85Z" fill="#A07448"/><path d="M467.09 216.29 449.37 216.29C448.82 216.29 448.37 215.84 448.37 215.29 448.37 214.74 448.82 214.29 449.37 214.29L467.09 214.29C467.64 214.29 468.09 214.74 468.09 215.29 468.09 215.84 467.65 216.29 467.09 216.29Z" fill="#A07448"/><path d="M595.83 256.4 575.51 256.4C574.96 256.4 574.51 255.95 574.51 255.4 574.51 254.85 574.96 254.4 575.51 254.4L595.83 254.4C596.38 254.4 596.83 254.85 596.83 255.4 596.83 255.96 596.38 256.4 595.83 256.4Z" fill="#A07448"/><path d="M574.99 331.94 557.21 331.94C556.66 331.94 556.21 331.49 556.21 330.94 556.21 330.39 556.66 329.94 557.21 329.94L574.99 329.94C575.54 329.94 575.99 330.39 575.99 330.94 575.99 331.49 575.54 331.94 574.99 331.94Z" fill="#A07448"/><path d="M636.97 107.94 626.5 107.94C625.95 107.94 625.5 107.49 625.5 106.94 625.5 106.39 625.95 105.94 626.5 105.94L636.97 105.94C637.52 105.94 637.97 106.39 637.97 106.94 637.97 107.49 637.52 107.94 636.97 107.94Z" fill="#A07448"/><path d="M689.53 116.79 675.99 116.79C675.44 116.79 674.99 116.34 674.99 115.79 674.99 115.24 675.44 114.79 675.99 114.79L689.53 114.79C690.08 114.79 690.53 115.24 690.53 115.79 690.53 116.34 690.08 116.79 689.53 116.79Z" fill="#A07448"/><path d="M733.81 106.89 726 106.89C725.45 106.89 725 106.44 725 105.89 725 105.34 725.45 104.89 726 104.89L733.81 104.89C734.36 104.89 734.81 105.34 734.81 105.89 734.81 106.45 734.36 106.89 733.81 106.89Z" fill="#A07448"/><path d="M788.02 91.79 769.24 91.79C768.69 91.79 768.24 91.34 768.24 90.79 768.24 90.24 768.69 89.79 769.24 89.79L788.02 89.79C788.57 89.79 789.02 90.24 789.02 90.79 789.02 91.34 788.57 91.79 788.02 91.79Z" fill="#A07448"/><path d="M710.91 240.26 703.08 240.26C702.53 240.26 702.08 239.81 702.08 239.26 702.08 238.71 702.53 238.26 703.08 238.26L710.91 238.26C711.46 238.26 711.91 238.71 711.91 239.26 711.91 239.81 711.46 240.26 710.91 240.26Z" fill="#A07448"/><path d="M677.03 261.09 644.21 261.09C643.66 261.09 643.21 260.64 643.21 260.09 643.21 259.54 643.66 259.09 644.21 259.09L677.03 259.09C677.58 259.09 678.03 259.54 678.03 260.09 678.03 260.65 677.58 261.09 677.03 261.09Z" fill="#A07448"/><path d="M715.07 268.39 705.68 268.39C705.13 268.39 704.68 267.94 704.68 267.39 704.68 266.84 705.13 266.39 705.68 266.39L715.07 266.39C715.62 266.39 716.07 266.84 716.07 267.39 716.07 267.94 715.62 268.39 715.07 268.39Z" fill="#A07448"/><path d="M778.64 249.63 761.42 249.63C760.87 249.63 760.42 249.18 760.42 248.63 760.42 248.08 760.87 247.63 761.42 247.63L778.64 247.63C779.19 247.63 779.64 248.08 779.64 248.63 779.64 249.19 779.2 249.63 778.64 249.63Z" fill="#A07448"/><path d="M782.91 318.92 757.77 318.92C757.22 318.92 756.77 318.47 756.77 317.92 756.77 317.37 757.22 316.92 757.77 316.92L782.91 316.92C783.46 316.92 783.91 317.37 783.91 317.92 783.91 318.47 783.47 318.92 782.91 318.92Z" fill="#A07448"/><path d="M791.11 331.42 783.3 331.42C782.75 331.42 782.3 330.97 782.3 330.42 782.3 329.87 782.75 329.42 783.3 329.42L791.11 329.42C791.66 329.42 792.11 329.87 792.11 330.42 792.11 330.97 791.67 331.42 791.11 331.42Z" fill="#A07448"/><path d="M705.79 318.92 700.99 318.92C700.44 318.92 699.99 318.47 699.99 317.92 699.99 317.37 700.44 316.92 700.99 316.92L705.79 316.92C706.34 316.92 706.79 317.37 706.79 317.92 706.79 318.47 706.35 318.92 705.79 318.92Z" fill="#A07448"/><path d="M839.06 112.1 809.35 112.1C808.8 112.1 808.35 111.65 808.35 111.1 808.35 110.55 808.8 110.1 809.35 110.1L839.06 110.1C839.61 110.1 840.06 110.55 840.06 111.1 840.06 111.66 839.61 112.1 839.06 112.1Z" fill="#A07448"/><path d="M844.25 120.44 836.44 120.44C835.89 120.44 835.44 119.99 835.44 119.44 835.44 118.89 835.89 118.44 836.44 118.44L844.25 118.44C844.8 118.44 845.25 118.89 845.25 119.44 845.25 119.99 844.8 120.44 844.25 120.44Z" fill="#A07448"/><path d="M907.82 132.42 894.27 132.42C893.72 132.42 893.27 131.97 893.27 131.42 893.27 130.87 893.72 130.42 894.27 130.42L907.82 130.42C908.37 130.42 908.82 130.87 908.82 131.42 908.82 131.97 908.37 132.42 907.82 132.42Z" fill="#A07448"/><path d="M894.28 158.99 858.32 158.99C857.77 158.99 857.32 158.54 857.32 157.99 857.32 157.44 857.77 156.99 858.32 156.99L894.28 156.99C894.83 156.99 895.28 157.44 895.28 157.99 895.28 158.54 894.83 158.99 894.28 158.99Z" fill="#A07448"/><path d="M822.91 201.71 816.12 201.71C815.57 201.71 815.12 201.26 815.12 200.71 815.12 200.16 815.57 199.71 816.12 199.71L822.91 199.71C823.46 199.71 823.91 200.16 823.91 200.71 823.91 201.26 823.46 201.71 822.91 201.71Z" fill="#A07448"/><path d="M861.61 238.69 822.89 238.69C822.34 238.69 821.89 238.24 821.89 237.69 821.89 237.14 822.34 236.69 822.89 236.69L861.61 236.69C862.16 236.69 862.61 237.14 862.61 237.69 862.61 238.25 862.17 238.69 861.61 238.69Z" fill="#A07448"/><path d="M873.42 229.32 865.09 229.32C864.54 229.32 864.09 228.87 864.09 228.32 864.09 227.77 864.54 227.32 865.09 227.32L873.42 227.32C873.97 227.32 874.42 227.77 874.42 228.32 874.42 228.87 873.98 229.32 873.42 229.32Z" fill="#A07448"/><path d="M876.08 288.18 864.57 288.18C864.02 288.18 863.57 287.73 863.57 287.18 863.57 286.63 864.02 286.18 864.57 286.18L876.08 286.18C876.63 286.18 877.08 286.63 877.08 287.18 877.08 287.73 876.63 288.18 876.08 288.18Z" fill="#A07448"/><path d="M892.75 317.88 882.8 317.88C882.25 317.88 881.8 317.43 881.8 316.88 881.8 316.33 882.25 315.88 882.8 315.88L892.75 315.88C893.3 315.88 893.75 316.33 893.75 316.88 893.75 317.43 893.31 317.88 892.75 317.88Z" fill="#A07448"/><path d="M899.52 360.07 896.86 360.07C896.31 360.07 895.86 359.62 895.86 359.07 895.86 358.52 896.31 358.07 896.86 358.07L899.52 358.07C900.07 358.07 900.52 358.52 900.52 359.07 900.52 359.63 900.07 360.07 899.52 360.07Z" fill="#A07448"/><path d="M819.82 309.02 817.16 309.02C816.61 309.02 816.16 308.57 816.16 308.02 816.16 307.47 816.61 307.02 817.16 307.02L819.82 307.02C820.37 307.02 820.82 307.47 820.82 308.02 820.82 308.57 820.37 309.02 819.82 309.02Z" fill="#A07448"/><path d="M938.56 244.42 931.77 244.42C931.22 244.42 930.77 243.97 930.77 243.42 930.77 242.87 931.22 242.42 931.77 242.42L938.56 242.42C939.11 242.42 939.56 242.87 939.56 243.42 939.56 243.98 939.11 244.42 938.56 244.42Z" fill="#A07448"/><path d="M834.87 272.55 828.62 272.55C828.07 272.55 827.62 272.1 827.62 271.55 827.62 271 828.07 270.55 828.62 270.55L834.87 270.55C835.42 270.55 835.87 271 835.87 271.55 835.87 272.11 835.43 272.55 834.87 272.55Z" fill="#A07448"/><path d="M957.89 357.99 940.63 357.99C940.08 357.99 939.63 357.54 939.63 356.99 939.63 356.44 940.08 355.99 940.63 355.99L957.89 355.99C958.44 355.99 958.89 356.44 958.89 356.99 958.89 357.54 958.44 357.99 957.89 357.99Z" fill="#A07448"/><path d="M989.59 332.98 969.27 332.98C968.72 332.98 968.27 332.53 968.27 331.98 968.27 331.43 968.72 330.98 969.27 330.98L989.59 330.98C990.14 330.98 990.59 331.43 990.59 331.98 990.59 332.53 990.15 332.98 989.59 332.98Z" fill="#A07448"/><path d="M1009.41 357.47 1001.58 357.47C1001.03 357.47 1000.58 357.02 1000.58 356.47 1000.58 355.92 1001.03 355.47 1001.58 355.47L1009.41 355.47C1009.96 355.47 1010.41 355.92 1010.41 356.47 1010.41 357.02 1009.96 357.47 1009.41 357.47Z" fill="#A07448"/><path d="M1022.49 284.01 991.68 284.01C991.13 284.01 990.68 283.56 990.68 283.01 990.68 282.46 991.13 282.01 991.68 282.01L1022.49 282.01C1023.04 282.01 1023.49 282.46 1023.49 283.01 1023.48 283.57 1023.04 284.01 1022.49 284.01Z" fill="#A07448"/><path d="M1027.12 273.07 1020.33 273.07C1019.78 273.07 1019.33 272.62 1019.33 272.07 1019.33 271.52 1019.78 271.07 1020.33 271.07L1027.12 271.07C1027.67 271.07 1028.12 271.52 1028.12 272.07 1028.12 272.63 1027.67 273.07 1027.12 273.07Z" fill="#A07448"/><path d="M1007.83 205.35 978.65 205.35C978.1 205.35 977.65 204.9 977.65 204.35 977.65 203.8 978.1 203.35 978.65 203.35L1007.83 203.35C1008.38 203.35 1008.83 203.8 1008.83 204.35 1008.83 204.9 1008.38 205.35 1007.83 205.35Z" fill="#A07448"/><path d="M976.59 186.6 969.8 186.6C969.25 186.6 968.8 186.15 968.8 185.6 968.8 185.05 969.25 184.6 969.8 184.6L976.59 184.6C977.14 184.6 977.59 185.05 977.59 185.6 977.59 186.15 977.14 186.6 976.59 186.6Z" fill="#A07448"/><path d="M1019.29 149.09 1008.87 149.09C1008.32 149.09 1007.87 148.64 1007.87 148.09 1007.87 147.54 1008.32 147.09 1008.87 147.09L1019.29 147.09C1019.84 147.09 1020.29 147.54 1020.29 148.09 1020.29 148.64 1019.84 149.09 1019.29 149.09Z" fill="#A07448"/><path d="M948.45 122 936.46 122C935.91 122 935.46 121.55 935.46 121 935.46 120.45 935.91 120 936.46 120L948.45 120C949 120 949.45 120.45 949.45 121 949.45 121.55 949 122 948.45 122Z" fill="#A07448"/><path d="M984.92 101.16 944.27 101.16C943.72 101.16 943.27 100.71 943.27 100.16 943.27 99.61 943.72 99.16 944.27 99.16L984.92 99.16C985.47 99.16 985.92 99.61 985.92 100.16 985.92 100.72 985.47 101.16 984.92 101.16Z" fill="#A07448"/><path d="M1010.45 105.33 1003.66 105.33C1003.11 105.33 1002.66 104.88 1002.66 104.33 1002.66 103.78 1003.11 103.33 1003.66 103.33L1010.45 103.33C1011 103.33 1011.45 103.78 1011.45 104.33 1011.45 104.88 1011 105.33 1010.45 105.33Z" fill="#A07448"/><path d="M955.74 254.84 941.66 254.84C941.11 254.84 940.66 254.39 940.66 253.84 940.66 253.29 941.11 252.84 941.66 252.84L955.74 252.84C956.29 252.84 956.74 253.29 956.74 253.84 956.74 254.39 956.29 254.84 955.74 254.84Z" fill="#A07448"/><path d="M514.74 263.1 468.07 263.1C467.52 263.1 467.07 262.65 467.07 262.1 467.07 261.55 467.52 261.1 468.07 261.1L514.74 261.1C515.29 261.1 515.74 261.55 515.74 262.1 515.74 262.65 515.29 263.1 514.74 263.1Z" fill="#A07448"/><path d="M521.43 277.1 512.74 277.1C512.19 277.1 511.74 276.65 511.74 276.1 511.74 275.55 512.19 275.1 512.74 275.1L521.43 275.1C521.98 275.1 522.43 275.55 522.43 276.1 522.43 276.65 521.98 277.1 521.43 277.1Z" fill="#A07448"/><path d="M564.74 306.43 539.4 306.43C538.85 306.43 538.4 305.98 538.4 305.43 538.4 304.88 538.85 304.43 539.4 304.43L564.74 304.43C565.29 304.43 565.74 304.88 565.74 305.43 565.74 305.99 565.29 306.43 564.74 306.43Z" fill="#A07448"/><path d="M466.73 297.77 452.73 297.77C452.18 297.77 451.73 297.32 451.73 296.77 451.73 296.22 452.18 295.77 452.73 295.77L466.73 295.77C467.28 295.77 467.73 296.22 467.73 296.77 467.73 297.32 467.29 297.77 466.73 297.77Z" fill="#A07448"/></g></g></svg>