<svg width="66.47" height="75.02" viewBox="0 0 66.47 75.02" xmlns="http://www.w3.org/2000/svg" xmlns:xlink="http://www.w3.org/1999/xlink" xml:space="preserve" overflow="hidden"><defs></defs><linearGradient x1="12.5198" y1="59.5859" x2="22.2671" y2="59.5859" gradientUnits="userSpaceOnUse" id="SVGID_37_"><stop offset="0" stop-color="#F4CBBF"/><stop offset="0.4374" stop-color="#E9BCAA"/><stop offset="0.5056" stop-color="#E7B9A6"/><stop offset="1" stop-color="#D6957A"/></linearGradient><linearGradient x1="56.2224" y1="464.029" x2="38.8768" y2="454.228" gradientUnits="userSpaceOnUse" id="SVGID_38_" gradientTransform="matrix(0.3861 0.9225 -0.9225 0.3861 438.599 -162.144)"><stop offset="0" stop-color="#F4CBBF"/><stop offset="0.4374" stop-color="#E8BBAA"/><stop offset="0.5056" stop-color="#E6B8A6"/><stop offset="1" stop-color="#D6957A"/></linearGradient><g><g><radialGradient cx="27.0447" cy="45.3043" r="2.7161" gradientUnits="userSpaceOnUse" id="SVGID_10_"><stop offset="0" stop-color="#FF0024"/><stop offset="0.2065" stop-color="#F90024"/><stop offset="0.4691" stop-color="#EA0025"/><stop offset="0.7609" stop-color="#D00025"/><stop offset="1" stop-color="#B50026"/></radialGradient><radialGradient cx="23.5334" cy="44.1933" r="5.0803" gradientUnits="userSpaceOnUse" id="SVGID_11_"><stop offset="0" stop-color="#F4CBBF"/><stop offset="0.2276" stop-color="#EBBEAE"/><stop offset="0.4176" stop-color="#E6B8A6"/><stop offset="0.5755" stop-color="#E4B4A1"/><stop offset="0.7504" stop-color="#E0A694"/><stop offset="0.9328" stop-color="#D8917E"/><stop offset="1" stop-color="#D48774"/></radialGradient><g><path d="M17.62 48.17C18.75 49.36 21.24 51.86 23.22 52.93 24.37 51.02 26.64 46.88 26.13 44.87 25.49 42.3 23.92 42.52 17.62 48.17Z"/><path d="M21.64 44.82C22.89 45.15 22.91 48.04 21.29 51.6 21.95 52.12 22.61 52.59 23.22 52.92 24.37 51.01 26.64 46.87 26.13 44.86 25.65 42.97 24.67 42.6 21.64 44.82Z" opacity="0.3"/><path d="M16.83 48.89C16.83 48.89 20.06 52.41 22.59 53.95 22.59 53.95 22.85 53.56 23.22 52.94 21.24 51.87 18.75 49.37 17.62 48.18 17.37 48.4 17.1 48.64 16.83 48.89Z"/></g><g><linearGradient x1="40.9828" y1="73.4029" x2="39.3391" y2="66.9774" gradientUnits="userSpaceOnUse" id="SVGID_1_"><stop offset="0" stop-color="#F4CBBF"/><stop offset="0.4374" stop-color="#E8BBAA"/><stop offset="0.5056" stop-color="#E6B8A6"/><stop offset="1" stop-color="#D6957A"/></linearGradient><radialGradient cx="49.8186" cy="74.4381" r="6.8634" gradientUnits="userSpaceOnUse" id="SVGID_2_"><stop offset="0.1927" stop-color="#29ACE3"/><stop offset="1" stop-color="#057AC9"/></radialGradient><radialGradient cx="53.3046" cy="68.2125" r="9.1254" gradientUnits="userSpaceOnUse" id="SVGID_3_"><stop offset="0.1927" stop-color="#29ACE3"/><stop offset="1" stop-color="#057AC9"/></radialGradient><path d="M47.13 70.1C47.13 70.1 44.92 70.6 41.41 70.92 37.89 71.25 37.26 71.26 37.14 68.1 37.02 64.94 32.43 64.33 32.51 68.44 32.58 72.15 33.71 74.16 37.91 73.98 42.12 73.8 48.18 72.02 48.18 72.02 47.04 71.53 47.13 70.1 47.13 70.1Z" fill="url(#SVGID_1_)"/><path d="M49.24 67.19C48.83 67.53 48.58 67.81 48.04 68.31 46.91 69.32 47.13 70.11 47.13 70.11 47.13 70.11 47.04 71.54 48.18 72.03 48.18 72.03 50 72.69 55.04 72.97 55.85 73.01 56.42 72.97 56.81 72.79 56.12 69.59 51.14 67.77 49.24 67.19Z" fill="url(#SVGID_2_)"/><path d="M56.53 70.1C53.76 67.48 50.98 66.94 50.36 66.72 50.04 66.61 49.67 66.82 49.24 67.18 51.14 67.76 56.13 69.58 56.81 72.78 57.88 72.28 57.49 71.01 56.53 70.1Z" fill="url(#SVGID_3_)"/></g><g><linearGradient x1="50.6097" y1="74.7543" x2="47.6961" y2="66.91" gradientUnits="userSpaceOnUse" id="SVGID_4_"><stop offset="0" stop-color="#F4CBBF"/><stop offset="0.4374" stop-color="#E8BBAA"/><stop offset="0.5056" stop-color="#E6B8A6"/><stop offset="1" stop-color="#D6957A"/></linearGradient><radialGradient cx="63.0912" cy="69.4077" r="7.6789" gradientUnits="userSpaceOnUse" id="SVGID_5_"><stop offset="0.1927" stop-color="#29ACE3"/><stop offset="1" stop-color="#057AC9"/></radialGradient><radialGradient cx="59.0562" cy="75.907" r="6.7389" gradientUnits="userSpaceOnUse" id="SVGID_6_"><stop offset="0.1927" stop-color="#29ACE3"/><stop offset="1" stop-color="#057AC9"/></radialGradient><path d="M57.73 71.11C56.94 70.49 55.84 71.02 55.84 71.02 55.84 71.02 54.72 71.43 51.1 71.77 47.48 72.11 45.69 72.22 45.56 68.97 45.44 65.72 40.71 65.09 40.79 69.32 40.87 73.14 42.02 75.21 46.35 75.02 50.68 74.83 56.92 73 56.92 73 56.45 71.95 57.73 71.11 57.73 71.11Z" fill="url(#SVGID_4_)"/><path d="M65.52 71.01C62.67 68.32 59.81 67.76 59.17 67.54 58.84 67.42 58.46 67.64 58.02 68.01 59.98 68.61 65.11 70.48 65.81 73.77 66.91 73.26 66.51 71.95 65.52 71.01Z" fill="url(#SVGID_5_)"/><path d="M58.02 68.01C57.6 68.36 57.12 68.86 56.56 69.36 55.4 70.4 55.85 71 55.85 71 55.85 71 56.95 70.48 57.74 71.09 57.74 71.09 56.46 71.93 56.94 72.98 56.94 72.98 57.16 73.65 58.43 73.24 60.42 72.6 60.86 73.65 64 73.95 64.83 74.03 65.42 73.95 65.82 73.76 65.11 70.49 59.97 68.61 58.02 68.01Z" fill="url(#SVGID_6_)"/></g><g><linearGradient x1="31.7872" y1="62.2562" x2="48.2092" y2="62.2562" gradientUnits="userSpaceOnUse" id="SVGID_7_"><stop offset="0" stop-color="#674019"/><stop offset="0.8561" stop-color="#47210B"/></linearGradient><linearGradient x1="31.7872" y1="63.3881" x2="48.2092" y2="63.3881" gradientUnits="userSpaceOnUse" id="SVGID_8_"><stop offset="0" stop-color="#674019"/><stop offset="0.8561" stop-color="#47210B"/></linearGradient><linearGradient x1="37.043" y1="66.5814" x2="38.1836" y2="66.5814" gradientUnits="userSpaceOnUse" id="SVGID_9_"><stop offset="0" stop-color="#674019"/><stop offset="0.8561" stop-color="#47210B"/></linearGradient><path d="M47.49 57.69C46.2 53.67 42.84 51.85 42.84 51.85 42.84 51.85 42.69 53.31 41.72 55.14 42.92 56.38 45.02 58.03 47.49 57.69Z" fill="#0C0B0B"/><path d="M47.49 57.69C45.02 58.03 42.92 56.38 41.73 55.15 40.6 57.29 38.36 59.94 33.93 61.4 33.93 61.4 32.23 65.53 31.79 67.68 31.79 67.68 32.95 68.82 37.96 68.26L37.96 68.82C37.96 68.82 43.45 70.5 47.93 68.03 47.93 68.03 48.79 61.83 47.52 57.76 47.51 57.73 47.5 57.71 47.49 57.69Z" fill="url(#SVGID_7_)"/><path d="M47.52 57.75C47.51 57.73 47.5 57.71 47.5 57.68 46.62 57.8 45.79 57.67 45.04 57.4 45.04 57.4 48.19 69.03 40.65 68.43 38.08 68.23 38.45 64.77 38.45 64.77 37.63 64.62 36.77 64.28 36.77 64.28 36.77 64.28 38.45 67.01 35.61 67.5 33.88 67.8 32.59 67.61 31.85 67.42 31.83 67.5 31.81 67.58 31.8 67.65 31.8 67.65 32.96 68.79 37.97 68.23L37.97 68.79C37.97 68.79 43.46 70.47 47.94 68 47.93 68.02 48.78 61.82 47.52 57.75Z" fill="url(#SVGID_8_)" opacity="0.4"/><path d="M37.04 64.5C37.04 64.5 37.11 64.53 37.22 64.59 37.33 64.65 37.5 64.73 37.69 64.84 37.74 64.87 37.79 64.89 37.84 64.92L37.92 64.96 37.96 65 37.98 65.01 37.98 65.01 37.98 65.01 38 65.03 38 65.03 38.01 65.04C38.03 65.05 38.07 65.14 38.08 65.17 38.09 65.21 38.1 65.24 38.11 65.28 38.13 65.35 38.14 65.42 38.15 65.49 38.19 65.77 38.19 66.06 38.19 66.35 38.19 66.93 38.14 67.51 38.08 67.95 38.05 68.17 38.02 68.35 38 68.47 37.98 68.6 37.96 68.67 37.96 68.67 37.96 68.67 37.95 68.6 37.94 68.47 37.94 68.34 37.92 68.16 37.91 67.94 37.89 67.5 37.89 66.93 37.89 66.35 37.89 66.06 37.89 65.77 37.88 65.51 37.88 65.44 37.87 65.38 37.87 65.32 37.87 65.29 37.86 65.26 37.86 65.24 37.85 65.2 37.87 65.23 37.85 65.19L37.84 65.18 37.83 65.18C37.84 65.19 37.81 65.16 37.85 65.2L37.85 65.2 37.85 65.2 37.83 65.19 37.79 65.16 37.72 65.1C37.68 65.06 37.63 65.03 37.59 64.99 37.42 64.85 37.29 64.73 37.19 64.65 37.1 64.55 37.04 64.5 37.04 64.5Z" fill="url(#SVGID_9_)" opacity="0.5"/></g><g><path d="M27.26 42.36C32.44 42.24 38.32 47.24 43.99 51.97 43.99 51.97 43.02 61.79 32.86 62.83 32.86 62.83 28.15 58.29 24.77 50.72 21.38 43.16 25.17 42.41 27.26 42.36Z"/><path d="M26.04 45.8C26.97 41.79 42.95 49.66 41 58.77 43.63 55.67 44 51.98 44 51.98 38.32 47.25 32.44 42.24 27.27 42.37 26.77 42.38 26.16 42.44 25.59 42.61L26.04 45.8Z" opacity="0.3"/></g><path d="M29.47 44.64C29.17 42.96 28.1 42.39 28.1 42.39L28.09 42.4C28.34 42.86 28.5 43.42 28.57 43.94 28.76 45.25 28.39 47.04 27.13 47.11 25.88 47.19 25.36 45.69 25.3 44.36 25.3 44.36 25.16 43.55 25.27 42.77L25.23 42.73C25.23 42.73 24.27 43.26 24.61 45.31 24.95 47.36 26.07 48.41 27.6 48.19 29.14 47.97 29.77 46.32 29.47 44.64Z" fill="url(#SVGID_10_)"/><g><g><path d="M34.03 54.83C34.27 52.1 34.99 43.96 32.15 43.21 29.12 42.41 27.67 51.22 27.39 54.04 28.44 54.47 30.53 55.04 34.03 54.83Z"/><path d="M27.39 54.04C27.33 54.66 27.3 55.05 27.3 55.05 27.3 55.05 29.94 56.31 33.91 55.91 33.91 55.91 33.96 55.5 34.02 54.84 30.53 55.04 28.44 54.47 27.39 54.04Z"/></g><path d="M32.16 43.21C31.73 43.1 31.33 43.18 30.97 43.41 32.51 43.69 33.34 49.02 31.84 54.86 32.5 54.88 33.23 54.88 34.04 54.83 34.27 52.1 34.99 43.96 32.16 43.21Z" opacity="0.3"/></g><path d="M25.31 44.36C25.31 44.36 24.84 41.69 26.26 41.39 27.68 41.09 28.39 42.62 28.58 43.93 28.77 45.24 28.4 47.03 27.14 47.1 25.89 47.18 25.37 45.68 25.31 44.36Z" fill="url(#SVGID_11_)"/><g><radialGradient cx="22.2009" cy="6.7224" r="44.9611" gradientUnits="userSpaceOnUse" id="SVGID_36_" gradientTransform="matrix(0.95 -0.3125 0.3125 0.95 -8.0809 3.2857)"><stop offset="0.2845" stop-color="#D37E1D"/><stop offset="1" stop-color="#E9B100"/></radialGradient><g><radialGradient cx="33.2304" cy="4.9887" r="42.3895" gradientUnits="userSpaceOnUse" id="SVGID_12_" gradientTransform="matrix(0.9809 -0.1945 0.1945 0.9809 -3.7247 5.8865)"><stop offset="0" stop-color="#E9B100"/><stop offset="0.7155" stop-color="#D37E1D"/></radialGradient><radialGradient cx="-75.2552" cy="36.3207" r="25.4539" gradientUnits="userSpaceOnUse" id="SVGID_15_" gradientTransform="matrix(-0.9335 0.3585 0.3585 0.9335 -60.2825 22.0548)"><stop offset="0" stop-color="#FFFFFF"/><stop offset="0.2204" stop-color="#F9EEEA"/><stop offset="0.6749" stop-color="#EAC2B3"/><stop offset="0.776" stop-color="#E6B8A6"/><stop offset="0.8346" stop-color="#E4B2A0"/><stop offset="0.9139" stop-color="#DEA18F"/><stop offset="1" stop-color="#D48774"/></radialGradient><radialGradient cx="-19.7296" cy="-20.2716" r="1.2583" gradientUnits="userSpaceOnUse" id="SVGID_16_" gradientTransform="matrix(0.9953 0.0969 -0.0969 0.9953 34.2204 56.7475)"><stop offset="0" stop-color="#E69281"/><stop offset="0.1323" stop-color="#C17A6C"/><stop offset="0.4419" stop-color="#6F473E"/><stop offset="0.6964" stop-color="#33201D"/><stop offset="0.8826" stop-color="#0E0908"/><stop offset="0.9809"/></radialGradient><radialGradient cx="-92.0178" cy="46.9873" r="3.8634" gradientUnits="userSpaceOnUse" id="SVGID_30_" gradientTransform="matrix(-0.9335 0.3585 0.3585 0.9335 -60.2825 22.0548)"><stop offset="0" stop-color="#FFFFFF"/><stop offset="0.1678" stop-color="#F9EEEA"/><stop offset="0.5136" stop-color="#EAC2B3"/><stop offset="0.5906" stop-color="#E6B8A6"/><stop offset="0.6976" stop-color="#E4B2A0"/><stop offset="0.8427" stop-color="#DEA18F"/><stop offset="1" stop-color="#D48774"/></radialGradient><radialGradient cx="-59.0553" cy="32.8739" r="2.9044" gradientUnits="userSpaceOnUse" id="SVGID_31_" gradientTransform="matrix(-0.9335 0.3585 0.3585 0.9335 -60.2825 22.0548)"><stop offset="0" stop-color="#FFFFFF"/><stop offset="0.2126" stop-color="#F9EEEA"/><stop offset="0.6509" stop-color="#EAC2B3"/><stop offset="0.7485" stop-color="#E6B8A6"/><stop offset="0.8142" stop-color="#E4B2A0"/><stop offset="0.9033" stop-color="#DEA18F"/><stop offset="1" stop-color="#D48774"/></radialGradient><radialGradient cx="33.5897" cy="5.7083" r="41.927" gradientUnits="userSpaceOnUse" id="SVGID_32_" gradientTransform="matrix(0.9809 -0.1945 0.1945 0.9809 -3.7247 5.8865)"><stop offset="0" stop-color="#E9B100"/><stop offset="0.7155" stop-color="#D37E1D"/></radialGradient><path d="M37.67 38.67C37.67 38.67 38.72 37.82 42.71 34.39 46.7 30.96 49.23 29.66 54.3 27.65 54.3 27.65 53.12 22.5 50.8 20.38 50.8 20.38 53.67 21.1 56.27 25.03 56.27 25.03 54.53 8.87 39.84 6.87 29.86-3.88 14.77-0.57 5.79 6.97 1.1 10.91 0.04 17.29 0.04 17.29 0.04 17.29 0.47 16.86 2.66 16.61 2.66 16.61 0.91 17.68 0 19.24 0 19.24 6.67 17.51 7.94 27.83L37.67 38.67Z" fill="url(#SVGID_12_)"/><g><radialGradient cx="-79.9377" cy="30.1323" r="23.8564" fx="-76.56" fy="16.4803" gradientUnits="userSpaceOnUse" id="SVGID_13_" gradientTransform="matrix(-0.9335 0.3585 0.3585 0.9335 -60.2825 22.0548)"><stop offset="0" stop-color="#F4CBBF"/><stop offset="0.2276" stop-color="#EBBEAE"/><stop offset="0.4176" stop-color="#E6B8A6"/><stop offset="0.5755" stop-color="#E4B4A1"/><stop offset="0.7504" stop-color="#E0A694"/><stop offset="0.9328" stop-color="#D8917E"/><stop offset="1" stop-color="#D48774"/></radialGradient><radialGradient cx="-56.9745" cy="28.2434" r="7.2287" gradientUnits="userSpaceOnUse" id="SVGID_14_" gradientTransform="matrix(-0.9335 0.3585 0.3585 0.9335 -60.2825 22.0548)"><stop offset="0" stop-color="#F4CBBF"/><stop offset="0.2276" stop-color="#EBBEAE"/><stop offset="0.4176" stop-color="#E6B8A6"/><stop offset="0.5755" stop-color="#E4B4A1"/><stop offset="0.7504" stop-color="#E0A694"/><stop offset="0.9328" stop-color="#D8917E"/><stop offset="1" stop-color="#D48774"/></radialGradient><path d="M9.07 30.41C9.45 29.1 9.59 27.77 9.59 27.77 9.59 27.77 10.66 25.88 7.81 19.85 4.97 13.82 13.28 7.55 24.79 7.17 40.23 6.65 41.35 21.85 38.7 30.22 38.7 30.22 40.07 27.54 42.36 28.28 44.65 29.02 45.08 35.12 39.73 34.73 39.73 34.73 39.17 37.26 37.73 38.92 29.24 48.75 16.92 46.08 12.62 41.77 7.77 36.91 8.47 33.21 8.47 33.21 8.47 33.21 8.69 31.72 9.07 30.41Z" fill="url(#SVGID_13_)"/><path d="M8.48 33.19C8.48 33.19 5.96 33.01 6.08 29.55 6.2 26.1 8.65 26.12 9.59 27.77 9.59 27.77 9.45 29.1 9.07 30.41 8.69 31.72 8.48 33.19 8.48 33.19Z" fill="url(#SVGID_14_)"/></g><path d="M34.35 22.7 33.9 20.47C33.9 20.47 33.57 21.96 33.58 22.71 33.58 22.71 27.7 20.94 24.53 20.81 24.53 20.81 24.48 19.28 24.62 18.35 24.62 18.35 24.06 19.53 24.01 20.81 24.01 20.81 19.88 20.48 17.05 20.83 17.05 20.83 16.74 19.31 16.85 18.48 16.85 18.48 16.39 19.77 16.5 20.98 16.5 20.98 12.72 20.78 10.33 20.99 10.33 20.99 10.03 19.43 10.24 18.68 10.24 18.68 9.81 19.99 9.84 20.92L9.2 21.15C9.2 21.15 10.88 25.57 9.54 28.13L9.54 28.13C9.57 27.9 9.59 27.77 9.59 27.77 9.59 27.77 10.66 25.88 7.81 19.85 4.97 13.82 13.28 7.55 24.79 7.17 40.23 6.65 41.35 21.85 38.7 30.22 38.7 30.22 38.31 26.87 37.44 23.87 37.34 23.51 34.35 22.7 34.35 22.7Z" fill="url(#SVGID_15_)"/><path d="M15.65 35.25C15.64 35.5 16.01 35.73 16.48 35.75 16.95 35.77 17.33 35.58 17.35 35.33 17.36 35.08 16.99 34.85 16.53 34.83 16.05 34.81 15.66 35 15.65 35.25Z" fill="url(#SVGID_16_)"/><g><radialGradient cx="-21.9286" cy="-21.9485" r="4.3911" gradientUnits="userSpaceOnUse" id="SVGID_27_" gradientTransform="matrix(0.9953 0.0969 -0.0969 0.9953 34.2204 56.7475)"><stop offset="0" stop-color="#FFFFFF"/><stop offset="0.0995" stop-color="#F9EEEA"/><stop offset="0.2679" stop-color="#F1D7CC"/><stop offset="0.4343" stop-color="#EBC6B7"/><stop offset="0.5962" stop-color="#E7BBAA"/><stop offset="0.7485" stop-color="#E6B8A6"/><stop offset="0.8142" stop-color="#E4B2A0"/><stop offset="0.9033" stop-color="#DEA18F"/><stop offset="1" stop-color="#D48774"/></radialGradient><radialGradient cx="-75.646" cy="34.6598" r="4.0469" gradientUnits="userSpaceOnUse" id="SVGID_28_" gradientTransform="matrix(-0.9485 0.3168 0.3168 0.9485 -59.8136 11.7837)"><stop offset="0" stop-color="#E9B100"/><stop offset="0.7155" stop-color="#D37E1D"/></radialGradient><radialGradient cx="-66.7786" cy="25.7098" r="3.5308" gradientUnits="userSpaceOnUse" id="SVGID_29_" gradientTransform="matrix(-0.9335 0.3585 0.3585 0.9335 -60.2825 22.0548)"><stop offset="0" stop-color="#E9B100"/><stop offset="0.7155" stop-color="#D37E1D"/></radialGradient><g><radialGradient cx="4352.98" cy="293.24" r="12.1235" gradientUnits="userSpaceOnUse" id="SVGID_17_" gradientTransform="matrix(-0.9998 -0.0222 -0.0222 0.9998 4378.86 -171.185)"><stop offset="0" stop-color="#FFFFFF"/><stop offset="0.2126" stop-color="#F9EEEA"/><stop offset="0.6509" stop-color="#EAC2B3"/><stop offset="0.7485" stop-color="#E6B8A6"/><stop offset="0.8142" stop-color="#E4B2A0"/><stop offset="0.9033" stop-color="#DEA18F"/><stop offset="1" stop-color="#D48774"/></radialGradient><path d="M24.77 25.2C24.77 25.2 27.67 26.36 27.17 30.74 27.17 30.74 27.01 32.77 25.62 33.77 25.62 33.77 26.62 33.83 27.38 34.4 27.38 34.4 25.07 33.57 22.9 34.82L23.47 34.17C23.47 34.17 21.96 33.61 21.33 31.46 20.68 29.23 21.12 24.6 24.77 25.2Z" fill="url(#SVGID_17_)"/><g><linearGradient x1="-385.288" y1="-50.8596" x2="-381.977" y2="-60.7904" gradientUnits="userSpaceOnUse" id="SVGID_18_" gradientTransform="matrix(0.9651 -0.2618 0.2618 0.9651 409.031 -16.9311)"><stop offset="0" stop-color="#FFFFFF"/><stop offset="0.8358" stop-color="#EAEAEA"/><stop offset="1" stop-color="#E5E5E5"/></linearGradient><path d="M26.85 29.69C26.89 32.1 25.72 34.08 24.24 34.09 22.76 34.11 21.52 32.16 21.48 29.75 21.44 27.33 22.61 25.36 24.09 25.35 25.57 25.33 26.81 27.27 26.85 29.69Z" fill="url(#SVGID_18_)"/><g><linearGradient x1="-442.144" y1="503.888" x2="-442.219" y2="497.392" gradientUnits="userSpaceOnUse" id="SVGID_19_" gradientTransform="matrix(0.997 0.0772 -0.0772 0.997 503.614 -435.519)"><stop offset="0.1439" stop-color="#47210B"/><stop offset="1" stop-color="#674019"/></linearGradient><radialGradient cx="-445.012" cy="120.071" r="4.6024" gradientUnits="userSpaceOnUse" id="SVGID_20_" gradientTransform="matrix(0.9241 -0.1144 0.1059 0.9934 423.288 -140.799)"><stop offset="0.2679" stop-color="#215673"/><stop offset="0.4726" stop-color="#1F526F"/><stop offset="0.6939" stop-color="#194862"/><stop offset="0.9223" stop-color="#0F364C"/><stop offset="1" stop-color="#0B2E43"/></radialGradient><linearGradient x1="-687.588" y1="71.224" x2="-689.519" y2="71.3772" gradientUnits="userSpaceOnUse" id="SVGID_21_" gradientTransform="matrix(0.7852 0.5908 -0.4658 0.7602 597.353 381.555)"><stop offset="0" stop-color="#FFFFFF"/><stop offset="0.8358" stop-color="#EAEAEA"/><stop offset="1" stop-color="#E5E5E5"/></linearGradient><path d="M25.76 30.78C25.67 32.54 24.83 33.93 23.88 33.87 22.93 33.82 22.23 32.34 22.32 30.58 22.41 28.82 23.25 27.43 24.2 27.49 25.14 27.54 25.84 29.01 25.76 30.78Z" fill="url(#SVGID_19_)"/><path d="M24.93 30.87C24.88 31.92 24.38 32.75 23.81 32.71 23.24 32.68 22.83 31.8 22.88 30.75 22.93 29.7 23.44 28.87 24 28.91 24.57 28.94 24.98 29.82 24.93 30.87Z" fill="url(#SVGID_20_)"/><path d="M23.8 29.21C23.55 29.66 23.15 29.87 22.9 29.69 22.65 29.51 22.66 29 22.91 28.56 23.16 28.11 23.56 27.9 23.81 28.08 24.05 28.26 24.05 28.76 23.8 29.21Z" fill="url(#SVGID_21_)"/></g></g><g><path d="M26.32 34.72C26.33 34.84 26.24 34.95 26.12 34.95 26 34.96 25.89 34.87 25.88 34.75 25.87 34.63 25.96 34.52 26.08 34.51 26.21 34.5 26.31 34.6 26.32 34.72Z" fill="#F5A8A5"/><path d="M27.17 35.66C27.18 35.73 27.12 35.8 27.05 35.8 26.98 35.8 26.92 35.75 26.91 35.68 26.91 35.61 26.96 35.54 27.03 35.54 27.11 35.53 27.17 35.59 27.17 35.66Z" fill="#F5A8A5"/><path d="M27.8 35.09C27.8 35.16 27.75 35.23 27.68 35.23 27.61 35.23 27.54 35.18 27.54 35.11 27.54 35.04 27.59 34.97 27.66 34.97 27.73 34.96 27.79 35.02 27.8 35.09Z" fill="#F5A8A5"/><path d="M25.4 36.23C25.4 36.28 25.37 36.32 25.32 36.32 25.27 36.32 25.23 36.29 25.23 36.24 25.23 36.19 25.26 36.15 25.31 36.15 25.36 36.14 25.4 36.18 25.4 36.23Z" fill="#F5A8A5"/><path d="M24.75 35.1C24.75 35.14 24.76 35.17 24.76 35.17 24.76 35.17 24.75 35.14 24.75 35.1 24.75 35.06 24.75 35.04 24.75 35.04 24.75 35.04 24.75 35.07 24.75 35.1Z" fill="#F5A8A5"/><path d="M23.91 35.72C23.92 35.82 23.84 35.9 23.75 35.91 23.65 35.92 23.57 35.84 23.56 35.75 23.55 35.65 23.62 35.57 23.72 35.56 23.82 35.55 23.9 35.62 23.91 35.72Z" fill="#F5A8A5"/><path d="M24.4 36.48C24.41 36.53 24.37 36.57 24.32 36.57 24.27 36.57 24.23 36.54 24.23 36.49 24.23 36.44 24.26 36.4 24.31 36.4 24.36 36.39 24.4 36.43 24.4 36.48Z" fill="#F5A8A5"/><path d="M30.01 34.51C30.02 34.67 29.91 34.8 29.75 34.82 29.59 34.83 29.46 34.71 29.44 34.55 29.43 34.39 29.55 34.26 29.71 34.24 29.86 34.23 30 34.35 30.01 34.51Z" fill="#F5A8A5"/><path d="M29.77 36.14C29.77 36.19 29.74 36.23 29.69 36.23 29.64 36.23 29.6 36.2 29.6 36.15 29.59 36.1 29.63 36.06 29.68 36.05 29.72 36.05 29.77 36.09 29.77 36.14Z" fill="#F5A8A5"/></g><g><g><radialGradient cx="-51.6412" cy="-26.9138" r="10.5245" gradientUnits="userSpaceOnUse" id="SVGID_22_" gradientTransform="matrix(-0.9963 0.0861 0.0861 0.9963 -40.7063 57.8944)"><stop offset="0" stop-color="#FFFFFF"/><stop offset="0.2126" stop-color="#F9EEEA"/><stop offset="0.6509" stop-color="#EAC2B3"/><stop offset="0.7485" stop-color="#E6B8A6"/><stop offset="0.8142" stop-color="#E4B2A0"/><stop offset="0.9033" stop-color="#DEA18F"/><stop offset="1" stop-color="#D48774"/></radialGradient><path d="M12.93 33.78C13.49 33.47 14.14 32.84 14.51 31.8 15.41 29.21 14.42 26.21 12.52 26.07 10.62 25.92 9.54 28.49 9.96 31.29 10.14 32.48 10.79 33.19 10.79 33.19 10.79 33.19 10.34 33.16 9.86 33.28 9.86 33.28 12.45 33.77 13.47 34.41 13.48 34.42 13.28 34.06 12.93 33.78Z" fill="url(#SVGID_22_)"/><g><linearGradient x1="-400.361" y1="-59.6206" x2="-397.596" y2="-67.9181" gradientUnits="userSpaceOnUse" id="SVGID_23_" gradientTransform="matrix(0.9776 -0.2104 0.2104 0.9776 415.776 8.2661)"><stop offset="0" stop-color="#FFFFFF"/><stop offset="0.8358" stop-color="#EAEAEA"/><stop offset="1" stop-color="#E5E5E5"/></linearGradient><path d="M14.53 30.06C14.46 32.08 13.39 33.67 12.15 33.62 10.91 33.57 9.97 31.89 10.04 29.88 10.11 27.86 11.18 26.27 12.41 26.32 13.66 26.36 14.61 28.04 14.53 30.06Z" fill="url(#SVGID_23_)"/><g><linearGradient x1="-458.271" y1="498.022" x2="-458.335" y2="492.424" gradientUnits="userSpaceOnUse" id="SVGID_24_" gradientTransform="matrix(0.9903 0.1386 -0.1386 0.9903 535.136 -397.074)"><stop offset="0.1439" stop-color="#47210B"/><stop offset="1" stop-color="#674019"/></linearGradient><radialGradient cx="-460.081" cy="110.145" r="4.1623" gradientUnits="userSpaceOnUse" id="SVGID_25_" gradientTransform="matrix(0.9294 -0.057 0.0443 0.998 435.99 -106.493)"><stop offset="0.2679" stop-color="#215673"/><stop offset="0.4726" stop-color="#1F526F"/><stop offset="0.6939" stop-color="#194862"/><stop offset="0.9223" stop-color="#0F364C"/><stop offset="1" stop-color="#0B2E43"/></radialGradient><linearGradient x1="-705.18" y1="76.7456" x2="-707.173" y2="76.9038" gradientUnits="userSpaceOnUse" id="SVGID_26_" gradientTransform="matrix(0.7473 0.6382 -0.5118 0.7299 579.321 424.086)"><stop offset="0" stop-color="#FFFFFF"/><stop offset="0.8358" stop-color="#EAEAEA"/><stop offset="1" stop-color="#E5E5E5"/></linearGradient><path d="M14 31.04C13.83 32.55 13.03 33.7 12.22 33.6 11.41 33.5 10.88 32.2 11.05 30.69 11.22 29.18 12.02 28.03 12.83 28.13 13.64 28.22 14.17 29.53 14 31.04Z" fill="url(#SVGID_24_)"/><path d="M13.35 31.02C13.24 31.96 12.74 32.68 12.24 32.62 11.73 32.56 11.4 31.74 11.51 30.8 11.62 29.86 12.12 29.14 12.62 29.2 13.13 29.26 13.46 30.08 13.35 31.02Z" fill="url(#SVGID_25_)"/><path d="M12.58 29.77C12.29 30.21 11.86 30.41 11.62 30.21 11.38 30.01 11.42 29.49 11.7 29.04 11.99 28.6 12.41 28.4 12.66 28.6 12.91 28.8 12.87 29.33 12.58 29.77Z" fill="url(#SVGID_26_)"/></g></g></g><g><path d="M12.28 34.79C12.24 34.89 12.28 35 12.38 35.05 12.48 35.09 12.59 35.05 12.64 34.95 12.68 34.85 12.64 34.73 12.54 34.69 12.44 34.65 12.33 34.69 12.28 34.79Z" fill="#F5A8A5"/><path d="M11.28 35.37C11.25 35.43 11.28 35.5 11.34 35.52 11.4 35.55 11.47 35.52 11.49 35.46 11.52 35.4 11.49 35.33 11.43 35.31 11.38 35.29 11.31 35.31 11.28 35.37Z" fill="#F5A8A5"/><path d="M10.94 34.71C10.91 34.77 10.94 34.84 11 34.86 11.06 34.89 11.13 34.86 11.15 34.8 11.18 34.74 11.15 34.67 11.09 34.65 11.03 34.62 10.96 34.65 10.94 34.71Z" fill="#F5A8A5"/><path d="M12.58 36.37C12.56 36.41 12.58 36.46 12.62 36.47 12.66 36.49 12.7 36.47 12.72 36.43 12.74 36.39 12.72 36.34 12.68 36.33 12.64 36.31 12.6 36.33 12.58 36.37Z" fill="#F5A8A5"/><path d="M13.45 35.63C13.44 35.66 13.43 35.68 13.43 35.68 13.43 35.68 13.44 35.66 13.45 35.63 13.46 35.6 13.47 35.58 13.47 35.58 13.47 35.58 13.47 35.6 13.45 35.63Z" fill="#F5A8A5"/><path d="M13.97 36.39C13.94 36.47 13.97 36.56 14.05 36.6 14.13 36.63 14.22 36.6 14.26 36.52 14.29 36.44 14.26 36.35 14.18 36.31 14.09 36.27 14 36.31 13.97 36.39Z" fill="#F5A8A5"/><path d="M13.33 36.87C13.31 36.91 13.33 36.95 13.37 36.97 13.41 36.99 13.46 36.97 13.47 36.93 13.48 36.89 13.47 36.84 13.43 36.83 13.39 36.81 13.35 36.83 13.33 36.87Z" fill="#F5A8A5"/><path d="M9.24 33.66C9.18 33.79 9.24 33.94 9.37 33.99 9.5 34.05 9.64 33.99 9.7 33.86 9.76 33.73 9.7 33.58 9.57 33.53 9.45 33.48 9.3 33.54 9.24 33.66Z" fill="#F5A8A5"/><path d="M8.99 34.99C8.97 35.03 8.99 35.07 9.03 35.09 9.07 35.11 9.12 35.09 9.13 35.05 9.15 35.01 9.13 34.96 9.09 34.95 9.05 34.94 9.01 34.95 8.99 34.99Z" fill="#F5A8A5"/></g></g></g><path d="M17.22 34.86C17.22 34.86 17.16 34.79 17.04 34.69 16.91 34.6 16.71 34.47 16.44 34.41 16.3 34.39 16.15 34.38 15.98 34.42 15.82 34.47 15.65 34.53 15.51 34.65L15.48 34.67 15.47 34.68 15.46 34.69 15.46 34.69 15.46 34.69 15.45 34.7 15.4 34.75 15.31 34.85C15.25 34.94 15.17 35.05 15.15 35.15 15.07 35.36 15.08 35.58 15.11 35.79 15.14 35.89 15.15 36 15.2 36.09L15.26 36.23 15.33 36.36C15.43 36.53 15.56 36.67 15.7 36.78 15.84 36.89 15.99 36.98 16.14 37.04 16.21 37.08 16.29 37.1 16.36 37.11 16.43 37.12 16.5 37.15 16.57 37.15 16.71 37.16 16.83 37.17 16.94 37.15 17.05 37.14 17.14 37.13 17.22 37.1 17.37 37.05 17.46 37.03 17.46 37.03 17.46 37.03 17.37 37.03 17.22 37.05 17.14 37.06 17.05 37.05 16.95 37.05 16.84 37.05 16.73 37.02 16.61 37 16.55 36.99 16.49 36.96 16.42 36.94 16.36 36.92 16.29 36.89 16.23 36.86 16.1 36.8 15.98 36.7 15.86 36.6 15.74 36.49 15.64 36.36 15.56 36.22L15.49 36.11 15.44 35.99C15.4 35.91 15.39 35.83 15.37 35.75 15.35 35.59 15.33 35.41 15.39 35.26 15.4 35.22 15.41 35.18 15.43 35.16L15.48 35.07 15.57 34.97 15.62 34.92C15.63 34.91 15.6 34.93 15.61 34.93L15.61 34.93 15.61 34.93 15.62 34.92 15.63 34.91 15.66 34.89C15.78 34.79 15.91 34.72 16.05 34.67 16.18 34.63 16.32 34.61 16.44 34.62 16.56 34.63 16.68 34.65 16.78 34.68 16.88 34.71 16.97 34.75 17.03 34.78 17.15 34.8 17.22 34.86 17.22 34.86Z" fill="url(#SVGID_27_)"/><path d="M21.85 22.96C21.77 23.22 22.11 23.48 22.3 23.42 22.5 23.35 23.57 21.37 25.27 23.71 25.51 24.04 25.38 21.63 23.87 21.27 22.36 20.9 21.93 22.69 21.85 22.96Z" fill="url(#SVGID_28_)"/><path d="M13.63 23.75C13.65 24.04 13.45 24.52 13.23 24.59 13.02 24.65 12.26 23.65 11.45 23.81 10.64 23.97 10.34 24.74 10.25 24.67 10.16 24.6 9.98 22.87 11.55 22.6 13.12 22.31 13.62 23.59 13.63 23.75Z" fill="url(#SVGID_29_)"/></g><path d="M39.63 32.71C39.62 32.6 39.62 32.49 39.62 32.35 39.63 32.22 39.63 32.08 39.65 31.93 39.67 31.78 39.7 31.62 39.76 31.46 39.86 31.14 40.04 30.82 40.3 30.56 40.43 30.43 40.58 30.33 40.75 30.25 40.91 30.17 41.09 30.12 41.26 30.1 41.6 30.06 41.94 30.16 42.15 30.33 42.26 30.41 42.34 30.52 42.39 30.61 42.44 30.71 42.47 30.8 42.49 30.87 42.51 30.95 42.51 31.01 42.51 31.05 42.51 31.09 42.51 31.11 42.51 31.11 42.51 31.11 42.5 31.02 42.45 30.88 42.4 30.74 42.29 30.56 42.08 30.44 41.88 30.31 41.59 30.25 41.3 30.31 41.01 30.36 40.71 30.51 40.49 30.73 40.37 30.84 40.28 30.97 40.19 31.1 40.17 31.14 40.15 31.17 40.13 31.21 40.13 31.27 40.12 31.34 40.12 31.41 40.13 31.48 40.13 31.57 40.15 31.65 40.17 31.73 40.18 31.82 40.22 31.9 40.24 31.99 40.31 32.06 40.36 32.13L40.45 32.23 40.56 32.32C40.64 32.37 40.71 32.43 40.8 32.45 40.88 32.49 40.98 32.5 41.06 32.53 41.15 32.53 41.24 32.55 41.32 32.54 41.4 32.54 41.48 32.52 41.56 32.51 41.64 32.5 41.7 32.47 41.76 32.45 41.82 32.43 41.87 32.41 41.91 32.38 41.99 32.34 42.04 32.31 42.04 32.31 42.04 32.31 42 32.35 41.94 32.41 41.91 32.44 41.87 32.48 41.81 32.52 41.75 32.55 41.69 32.61 41.61 32.63 41.53 32.66 41.45 32.7 41.35 32.71 41.26 32.74 41.15 32.73 41.04 32.73 40.94 32.71 40.82 32.71 40.72 32.66 40.61 32.63 40.51 32.56 40.41 32.5 40.36 32.46 40.32 32.43 40.28 32.39L40.17 32.26C40.13 32.22 40.11 32.16 40.08 32.11 40.05 32.06 40.03 32.01 40.02 31.96 39.98 31.86 39.97 31.75 39.96 31.66 39.96 31.63 39.96 31.61 39.96 31.58 39.94 31.63 39.92 31.68 39.91 31.73 39.89 31.8 39.87 31.87 39.85 31.94 39.82 32.08 39.8 32.21 39.78 32.34 39.77 32.47 39.75 32.58 39.75 32.68 39.74 32.78 39.73 32.87 39.74 32.95 39.74 33.1 39.73 33.19 39.73 33.19 39.73 33.19 39.71 33.11 39.69 32.96 39.65 32.91 39.65 32.82 39.63 32.71Z" fill="url(#SVGID_30_)"/><path d="M7.45 30.71C7.47 30.72 7.5 30.74 7.54 30.76 7.58 30.77 7.61 30.8 7.65 30.8 7.82 30.85 8.05 30.86 8.24 30.77 8.29 30.75 8.34 30.72 8.38 30.69 8.42 30.66 8.46 30.63 8.5 30.59 8.52 30.55 8.56 30.52 8.58 30.47 8.59 30.45 8.6 30.42 8.61 30.4L8.6 30.36 8.59 30.27 8.56 30.19C8.54 30.09 8.48 29.98 8.42 29.9 8.39 29.85 8.35 29.82 8.31 29.78 8.27 29.75 8.23 29.71 8.18 29.69 8.1 29.62 8 29.59 7.91 29.57 7.82 29.55 7.72 29.56 7.64 29.58 7.55 29.6 7.48 29.63 7.42 29.67 7.36 29.71 7.32 29.76 7.28 29.8 7.24 29.84 7.23 29.88 7.21 29.9 7.19 29.93 7.18 29.94 7.18 29.94 7.18 29.94 7.19 29.92 7.19 29.9 7.2 29.87 7.2 29.82 7.24 29.78 7.27 29.73 7.3 29.67 7.36 29.61 7.42 29.55 7.49 29.49 7.59 29.46 7.64 29.44 7.69 29.43 7.75 29.41 7.8 29.41 7.87 29.4 7.93 29.4 8.05 29.41 8.18 29.43 8.3 29.5 8.42 29.56 8.53 29.65 8.61 29.76 8.69 29.87 8.76 29.99 8.8 30.14L8.83 30.24 8.84 30.33 8.85 30.42C8.85 30.47 8.85 30.49 8.85 30.53 8.85 30.6 8.85 30.66 8.84 30.73 8.83 30.79 8.82 30.86 8.8 30.92 8.77 31.04 8.72 31.16 8.66 31.26 8.6 31.36 8.53 31.45 8.46 31.52 8.32 31.66 8.17 31.74 8.07 31.79 7.97 31.83 7.9 31.84 7.9 31.84 7.9 31.84 7.96 31.81 8.04 31.74 8.13 31.68 8.24 31.57 8.35 31.42 8.4 31.35 8.45 31.26 8.49 31.17 8.53 31.08 8.56 30.98 8.58 30.87 8.58 30.85 8.59 30.83 8.59 30.8 8.57 30.83 8.55 30.85 8.52 30.87 8.47 30.92 8.4 30.95 8.34 30.99 8.27 31.02 8.2 31.04 8.13 31.05 8.06 31.06 7.99 31.06 7.92 31.05 7.79 31.04 7.66 30.99 7.58 30.92 7.53 30.89 7.5 30.85 7.47 30.82 7.44 30.79 7.42 30.76 7.41 30.73 7.38 30.68 7.37 30.65 7.37 30.65 7.37 30.65 7.4 30.68 7.45 30.71Z" fill="url(#SVGID_31_)"/><path d="M38.7 30.22C38.7 30.22 38.89 27.53 38.05 22.94 38.05 22.94 36.66 22.23 34.61 21.84 34.61 21.84 33.72 17.66 34.33 15.3 34.33 15.3 32.77 17.05 33.39 21.13 33.39 21.13 27.79 19.77 24.84 19.69 24.84 19.69 24.67 16.25 25.67 13.83 25.67 13.83 24.35 15.16 23.93 19.71 23.93 19.71 20.59 19.39 17.25 19.82 17.25 19.82 16.7 16.85 18.13 14.01 18.13 14.01 16.3 15.63 16.24 19.85 16.24 19.85 13.51 19.82 10.51 19.95 10.51 19.95 9.98 16.87 11.53 15.17 11.53 15.17 9.76 16.44 9.7 19.87 9.7 19.87 8.29 20.28 7.51 20.48 7.51 20.48 4.66 16.04 10.16 10.39 15.66 4.74 31.16 1.74 38.22 11.09 46.35 21.85 38.7 30.22 38.7 30.22Z" fill="url(#SVGID_32_)"/></g><g><linearGradient x1="8.2117" y1="45.8031" x2="20.2712" y2="45.8031" gradientUnits="userSpaceOnUse" id="SVGID_33_" gradientTransform="matrix(0.95 -0.3125 0.3125 0.95 -8.0809 3.2857)"><stop offset="0" stop-color="#E34C61"/><stop offset="1" stop-color="#441D11"/></linearGradient><path d="M15.88 40.94C15.88 40.94 21.74 41.11 26.81 36.38 26.81 36.38 29.91 40.85 26.02 43.7 22.24 46.47 16.24 42.06 15.88 40.94Z" fill="url(#SVGID_33_)"/><g><linearGradient x1="18.1183" y1="47.3426" x2="22.9571" y2="47.3426" gradientUnits="userSpaceOnUse" id="SVGID_34_" gradientTransform="matrix(0.95 -0.3125 0.3125 0.95 -8.0809 3.2857)"><stop offset="0.1146" stop-color="#E75667"/><stop offset="1" stop-color="#CA1A18"/></linearGradient><linearGradient x1="12.7081" y1="43.7647" x2="23.0488" y2="43.7647" gradientUnits="userSpaceOnUse" id="SVGID_35_" gradientTransform="matrix(0.95 -0.3125 0.3125 0.95 -8.0809 3.2857)"><stop offset="0" stop-color="#FFFFFF"/><stop offset="0.8358" stop-color="#EAEAEA"/><stop offset="1" stop-color="#E5E5E5"/></linearGradient><path d="M24.53 44.42C25.05 44.27 25.56 44.04 26.03 43.69 27.84 42.36 28.13 40.68 27.93 39.26 24.33 40.22 24.25 42.91 24.53 44.42Z" fill="url(#SVGID_34_)"/><path d="M17.64 40.8C18.96 41.3 21.07 41.6 23.8 40.27 25.59 39.4 26.79 38.6 27.59 37.95 27.25 37.01 26.81 36.38 26.81 36.38 23.46 39.51 19.76 40.49 17.64 40.8Z" fill="url(#SVGID_35_)"/></g></g><path d="M1.55 14.18C1.55 14.18 5.97 3.61 20.45 1.5 34.94-0.6 39.32 8.87 39.32 8.87 39.32 8.87 44.36 7.86 49.24 12.38 53.78 16.59 55.25 22.37 55.25 22.37 55.25 22.37 48.9 8.4 38.56 10.79 38.56 10.79 34.59 3.17 20.89 3.62 7.18 4.07 1.55 14.18 1.55 14.18Z" fill="url(#SVGID_36_)" opacity="0.6"/></g></g></g><path d="M18.74 62.75C18.44 62.5 20.29 55.86 22.26 52.14 21.34 51.81 20.26 51.26 19.5 50.4 18.69 51.84 16.19 56.71 16 62.45 15.98 63.15 15.23 62.72 13.98 63.97 12.73 65.22 12.3 66.58 12.6 66.85 12.89 67.12 13.61 65.85 14.52 64.51 14.52 64.51 13.58 66.49 13.49 67.58 13.4 68.67 14.18 67.17 15.54 64.63 15.54 64.63 14.74 66.77 14.71 68 14.69 69.23 15.47 68.37 15.78 67.21 16.08 66.05 16.51 65.19 16.51 65.19 16.51 65.19 16.16 67.12 16.53 68.43 16.66 68.92 17.24 69.04 17.45 67.6 17.65 66.15 17.94 64.35 18.39 64.44 18.83 64.52 19.41 66.01 20.07 65.66 20.73 65.32 19.93 63.74 18.74 62.75Z" fill="url(#SVGID_37_)"/><path d="M32.66 67.96C35.64 64.5 37.58 58.93 36.01 51.54 33.71 52.25 31.13 52.9 31.13 52.9 31.13 52.9 34.99 60.27 30.74 66.66 29.98 67.64 31.35 69.22 32.66 67.96Z" fill="url(#SVGID_38_)"/><g><linearGradient x1="60.6016" y1="463.589" x2="52.2813" y2="470.922" gradientUnits="userSpaceOnUse" id="SVGID_39_" gradientTransform="matrix(0.3861 0.9225 -0.9225 0.3861 438.599 -162.144)"><stop offset="0" stop-color="#F4CBBF"/><stop offset="0.4374" stop-color="#E8BBAA"/><stop offset="0.5056" stop-color="#E6B8A6"/><stop offset="1" stop-color="#D6957A"/></linearGradient><path d="M32.69 68.26C32.49 67.91 32.22 67.59 31.91 67.31 30.9 66.43 29.58 65.86 28.22 65.97 27.72 66.01 26.66 66.17 26.65 66.88 26.85 67.71 28.91 66.65 29.22 67.63 29.53 68.6 27.36 70.43 26.06 70.97 24.75 71.52 25.61 73.22 29.73 69.87 29.73 69.87 29.39 71.1 28.4 71.88 27.41 72.66 26.79 73.06 26.99 73.58 27.19 74.1 29.27 73.18 30.88 71.28 30.88 71.28 30.27 72.69 29.48 73.39 28.69 74.09 28.37 74.78 29.38 74.47 30.38 74.17 31.58 72.76 31.96 71.59 31.7 73.29 30.98 74.15 31.24 74.41 31.54 74.69 32.43 73.49 32.52 73.35 33.46 71.86 33.58 69.77 32.69 68.26Z" fill="url(#SVGID_39_)"/></g></svg>