<svg width="133.41" height="158.29" viewBox="0 0 133.41 158.29" xmlns="http://www.w3.org/2000/svg" xmlns:xlink="http://www.w3.org/1999/xlink" xml:space="preserve" overflow="hidden"><defs></defs><g><path d="M40.78 4.83C36.88 3.47 34.72 7.32 34.72 7.32 36.48-3.22 23.1 3.03 23.1 3.03 26.07-3.84 12.37 2.06 4.8 9.83-2.79 17.6 4.81 22.8 4.81 22.8 4.81 22.8-0.12 28 0.01 34.5 0.22 45.35 15.38 50.5 15.38 50.5 13.57 59.62 31.16 58.36 38.03 53.1L43.24 12.97C43.23 12.98 44.69 6.2 40.78 4.83Z" fill="#BF6149"/><path d="M27.5 12.74C17.81 12.74 5.36 22.82 1.44 16.51 1.37 20.43 4.81 22.8 4.81 22.8 4.81 22.8-0.12 28 0.01 34.5 0.22 45.35 15.38 50.5 15.38 50.5 13.57 59.62 31.16 58.36 38.03 53.1L42.29 20.29C37.81 24.49 35.1 12.74 27.5 12.74Z" fill="#AD4D3A"/><path d="M49.89 54.13C49.89 54.13 64.72 44.88 65.84 44.08 66.96 43.27 86.74 29.26 86.74 29.26L87.7 30.54C87.7 30.54 70 45.83 68.25 47.11 66.5 48.4 52.14 59.03 52.14 59.03 52.14 59.03 47.81 55.26 49.89 54.13Z" fill="#FFCD9C"/><path d="M81.96 34.79C80.2 36.08 65.85 46.71 65.85 46.71 65.85 46.71 65.45 45.79 65.04 44.62 61.71 46.77 49.89 54.14 49.89 54.14 47.81 55.27 52.14 59.04 52.14 59.04 52.14 59.04 66.5 48.4 68.25 47.11 70 45.82 87.7 30.54 87.7 30.54L87.45 30.2C84.72 32.53 82.52 34.38 81.96 34.79Z" fill="#EF8F6F"/><path d="M48.6 53.83 61.72 45.19 66.04 57.03C66.04 57.03 56.76 60.39 55.8 60.07 54.85 59.75 44.76 58.47 48.6 53.83Z" fill="#C95579"/><path d="M51.54 59C53.44 59.64 55.41 59.94 55.81 60.07 56.77 60.39 66.05 57.03 66.05 57.03L65.22 54.75C61.06 56.18 53.18 58.84 51.54 59Z" fill="#C13330"/><path d="M64.65 57.87 59.83 46.12 62.22 44.57 66.5 57.03Z" fill="#FF6161"/><path d="M62.29 52.11 64.66 57.87 66.51 57.03 64.68 51.71C63.94 51.96 63.13 52.1 62.29 52.11Z" fill="#ED5551"/><path d="M43.86 157.97 45.78 157.97 55.22 95.71 47.66 99.52Z" fill="#FFCD9C"/><path d="M48.58 139.52 55.23 95.71 47.67 99.52 44.91 141.86C46.12 140.91 47.36 140.12 48.58 139.52Z" fill="#EF8F6F"/><path d="M56.24 157.97 58.16 157.97 67.97 95.65 60.39 99.47Z" fill="#FFCD9C"/><path d="M61.52 136.59 67.97 95.66 60.39 99.48 57.49 140.28C58.71 138.32 60.11 137 61.52 136.59Z" fill="#EF8F6F"/><path d="M40.76 133.8 53.56 131.88 56.28 119.4 56.28 131.57 68.28 131.73C68.28 131.73 73.56 101.96 71.48 90.44 71.48 90.44 57.26 88.35 44.62 95.07 43.51 103.7 41.56 117 40.76 133.8Z" fill="#F4E4B8"/><g><path d="M55.02 118.28C54.92 121.9 54.54 125.92 54.03 129.76L56.29 119.4 56.29 131.57 57.74 131.59C57.74 131.11 57.74 130.63 57.76 130.13 57.92 126.28 58.62 122.05 59.7 118.29L55.02 118.29Z" fill="#E8C59C"/><path d="M71.49 90.43C71.49 90.43 56.92 88.35 44.28 95.07 43.16 103.71 41.56 117 40.76 133.8L42.92 133.48C44.44 121.32 45.72 113.07 48.27 110.81 49.73 110.23 66.21 108.92 71.45 107.02 72.26 102.49 72.73 97.27 71.49 90.43Z" fill="#E8C59C"/><path d="M52.21 117.95C54.98 119.63 58.55 119.85 62.05 117.88L52.21 117.95Z" fill="#E8C59C"/></g><path d="M56.29 54.63C52.77 50.15 40.2 56.8 39.64 59.11 38.68 63.11 41.68 74.48 43 79.12 45.56 88.08 41.99 98.35 42.15 108.11 49.8 109.57 61.83 107.74 72.62 104.17 74.39 82.99 59.81 59.11 56.29 54.63Z" fill="#DD7290"/><path d="M48.13 66.11C44.35 54.22 39.89 58.09 39.64 59.11 38.68 63.11 41.68 74.48 43 79.12 45.56 88.08 41.99 98.35 42.15 108.11 44.86 108.63 48.11 108.72 51.67 108.49 52.01 98.35 49.66 70.92 48.13 66.11Z" fill="#C95579"/><path d="M40.92 58.59 37.09 46.81 44.22 47.29 47.12 55.72Z" fill="#FFCD9C"/><g><g><path d="M90.18 27.7 105.04 19.35 104.21 17.71 99.69 17.89 95.51 13.94 88.98 18.44 88.85 24.12Z" fill="#FFC35A"/><path d="M101.04 19.18C100.24 19.62 99.95 20.75 100.37 21.69 100.4 21.77 100.45 21.84 100.49 21.9L103.33 20.31C103.3 20.23 103.28 20.16 103.25 20.09 102.82 19.15 101.83 18.74 101.04 19.18Z" fill="#806A93"/><path d="M91.45 24.58C90.66 25.02 90.36 26.15 90.78 27.09 90.81 27.17 90.86 27.23 90.9 27.3L93.74 25.71C93.72 25.64 93.7 25.56 93.66 25.49 93.23 24.54 92.24 24.14 91.45 24.58Z" fill="#806A93"/><path d="M100.75 21.76C101.09 22.52 101.88 22.84 102.52 22.49 103.15 22.13 103.39 21.23 103.05 20.47 102.71 19.71 101.92 19.39 101.28 19.75 100.65 20.1 100.41 21 100.75 21.76Z" fill="#60546B"/><path d="M91.17 27.15C91.51 27.91 92.3 28.23 92.93 27.87 93.56 27.51 93.8 26.61 93.46 25.85 93.12 25.09 92.33 24.77 91.69 25.12 91.07 25.48 90.83 26.39 91.17 27.15Z" fill="#60546B"/><path d="M99.36 18.16 95.38 14.55 89.38 18.64 89.44 23.43Z" fill="#806A93"/><path d="M98.93 18.08 95.34 14.84 89.7 18.7 89.63 23.08Z" fill="#97CCCC"/><path d="M93.8 20.93 92.08 16.86 92.96 16.31 94.53 20.6Z" fill="#806A93"/><path d="M94.62 22.18 92.14 16.51 92.67 16.11 94.89 22.15Z" fill="#FFC35A"/><path d="M101.48 21.36C101.61 21.64 101.9 21.76 102.13 21.63 102.36 21.5 102.45 21.16 102.32 20.88 102.19 20.6 101.9 20.48 101.67 20.61 101.44 20.74 101.35 21.07 101.48 21.36Z" fill="#A08CAF"/><path d="M91.86 26.82C91.99 27.1 92.28 27.22 92.51 27.09 92.74 26.96 92.83 26.62 92.7 26.34 92.57 26.06 92.28 25.94 92.05 26.07 91.82 26.2 91.73 26.53 91.86 26.82Z" fill="#A08CAF"/></g><path d="M106.48 22.02 112.71 10.14 133.41 9.61 129.28 18.95Z" fill="#BC8879"/><path d="M123.26 20.19C122.91 17.58 120.82 15.73 118.59 16.06 116.37 16.39 114.85 18.78 115.2 21.39 115.55 24 117.64 25.85 119.87 25.52 122.1 25.19 123.62 22.8 123.26 20.19Z" fill="#7AB7CE"/><path d="M118.52 17.17C120.74 16.84 122.83 18.69 123.18 21.3 123.21 21.5 123.22 21.69 123.22 21.89 123.31 21.35 123.33 20.78 123.26 20.19 122.91 17.58 120.82 15.73 118.59 16.06 116.54 16.37 115.09 18.43 115.16 20.8 115.5 18.93 116.79 17.43 118.52 17.17Z" fill="#98CDE2"/><path d="M114.96 21.09C114.34 16.52 110.63 13.3 106.67 13.89 102.71 14.48 100 18.66 100.62 23.23 101.24 27.8 104.95 31.02 108.91 30.43 112.87 29.84 115.58 25.65 114.96 21.09Z" fill="#EA7591"/><path d="M106.54 15.69C110.55 15.09 114.32 18.42 114.95 23.13 114.99 23.4 115.01 23.67 115.02 23.94 115.2 22.94 115.24 21.89 115.1 20.81 114.47 16.1 110.7 12.77 106.69 13.37 102.91 13.93 100.27 17.79 100.5 22.17 101.13 18.82 103.45 16.15 106.54 15.69Z" fill="#FF8DA8"/><path d="M68.66 24.8 73.89 50.17 126.53 45.09 129.28 18.95Z" fill="#BC8879"/><path d="M68.66 24.8 73.89 50.17 126.53 45.09 127.17 21.05Z" fill="#AD7966"/><path d="M94.75 22.28 68.66 24.8 73.89 50.17 95.17 48.12Z" fill="#915747"/><path d="M91.72 26.67 68.66 24.8 73.89 50.17 95.17 48.12Z" fill="#9E6452"/><path d="M68.97 25.64 61.95 17.68 86.26 17.09 94.91 22.55Z" fill="#915747"/><path d="M97.51 44.28 97.43 36.38 103.02 35.98 103.19 43.58Z" fill="#C99585"/></g><path d="M48.45 55.86C48.45 55.86 65.23 49.83 66.46 49.21 67.69 48.59 89.39 38.22 89.39 38.22L90.16 39.21C90.16 39.21 70.31 51.57 68.38 52.57 66.45 53.57 50.62 61.85 50.62 61.85 50.62 61.85 46.23 56.66 48.45 55.86Z" fill="#FFCD9C"/><path d="M78.55 45.14C76.62 46.14 60.79 54.42 60.79 54.42 60.79 54.42 60.41 53.09 60.23 51.59 55.01 53.51 48.46 55.86 48.46 55.86 46.23 56.65 50.62 61.86 50.62 61.86 50.62 61.86 66.45 53.58 68.38 52.58 70.31 51.58 90.16 39.22 90.16 39.22L90.09 38.74C85.03 41.86 79.49 44.66 78.55 45.14Z" fill="#EF8F6F"/><path d="M65.89 158.29 55.65 158.29C55.65 158.29 55.65 155.09 57.41 154.45 59.17 153.81 66.21 157.49 65.89 158.29Z" fill="#FFF1D7"/><path d="M50.36 158.29 42.05 158.29C42.05 158.29 43.39 154.92 44.77 154.77 46.2 154.61 50.58 157.49 50.36 158.29Z" fill="#FFF1D7"/><path d="M40.4 133.99 40.04 131.44 54.33 130.49 54.04 132.24Z" fill="#FFF5DC"/><path d="M56.08 132.24 55.86 129.83 68.91 131.07 68.4 132.6Z" fill="#FFF5DC"/><path d="M60.19 108.24 57.17 108.85 56.65 110.43 60.02 110.08Z" fill="#FFF5DC"/><path d="M49.73 53.08 48.86 53.66C48.12 53.86 47.38 54.12 46.66 54.4L44.22 47.29 42.69 47.19 37.6 48.41 40.66 57.8C40.63 57.82 40.61 57.85 40.58 57.87L40.18 58.02C40.06 58.15 39.97 58.29 39.87 58.43 39.87 58.43 39.87 58.43 39.87 58.43 39.82 58.51 39.77 58.58 39.72 58.67 39.07 59.67 38.81 60.9 38.79 62.16L51.63 55.94 49.73 53.08Z" fill="#BC5642" opacity="0.5"/><path d="M40.18 58.02 57.88 51.43 59.96 63.91C59.96 63.91 41.48 68.53 40.61 68.01 39.75 67.49 37.79 60.6 40.18 58.02Z" fill="#DD7290"/><path d="M41.39 65.71C40.75 65.33 39.51 61.46 39.88 58.43 37.42 61.73 39.76 68.13 40.59 68.62 41.46 69.14 59.97 63.9 59.97 63.9L59.63 61.88C55.65 62.87 42.13 66.15 41.39 65.71Z" fill="#C95579"/><path d="M58.27 64.8 55.35 51.95 57.97 50.86 60.23 64.29Z" fill="#FF6161"/><path d="M58.15 62.18C57.99 62.18 57.82 62.17 57.66 62.15L58.26 64.8 60.23 64.29 59.84 61.91C59.31 62.08 58.74 62.18 58.15 62.18Z" fill="#ED5551"/><path d="M20.82 43.92C27.32 51.97 38.31 55.43 48.18 50.44 59.05 44.94 62.87 31.12 56.69 26.51 50.71 22.05 43.37 9.74 34.88 10.66 26.56 11.56 18.94 17.29 16.5 24.44 14.06 31.59 19.27 42 20.82 43.92Z" fill="#FFCD9C"/><path d="M22.86 14.48C20.16 24.26 24.77 30.89 29.94 33.48 35.11 36.07 35.67 46.75 32.98 46.52 30.28 46.3 31.29 51.24 33.2 52.59 33.2 52.59 16.37 51.12 13.64 42.7 7.01 22.24 22.86 14.48 22.86 14.48Z" fill="#AD4D3A"/><path d="M34.36 47.53C32.81 46.59 26.68 43.69 25.72 46.09 24.76 48.49 27.8 53.13 30.36 53.13 32.92 53.13 38.04 49.77 34.36 47.53Z" fill="#FFCD9C"/><path d="M32.86 48.4C31.93 47.83 28.24 46.09 27.67 47.53 27.09 48.97 28.92 51.76 30.46 51.76 31.99 51.76 35.07 49.74 32.86 48.4Z" fill="#EF8F6F"/><path d="M34.15 48.69C33.46 48.35 30.78 47.37 30.47 48.41 30.16 49.45 31.61 51.29 32.69 51.19 33.76 51.1 35.78 49.49 34.15 48.69Z" fill="#FFCD9C"/><g><path d="M49.82 22.45C48.1 19.76 45.42 18.5 43.86 19.62 42.29 20.74 42.41 23.83 44.13 26.52 45.85 29.2 47.69 29.17 49.26 28.04 50.83 26.92 51.54 25.13 49.82 22.45Z" fill="#EF8F6F"/><path d="M39.49 28.16C37.57 25.18 34.58 23.83 32.8 25.13 31.03 26.44 31.13 29.91 33.05 32.89 34.97 35.87 37.03 35.78 38.81 34.48 40.59 33.17 41.41 31.14 39.49 28.16Z" fill="#EF8F6F"/><path d="M50.01 22.75C48.44 20.29 45.88 19.22 44.31 20.34 42.74 21.46 42.74 24.37 44.31 26.82 45.89 29.28 47.68 29.17 49.25 28.05 50.83 26.92 51.59 25.2 50.01 22.75Z" fill="#FFF9E9"/><path d="M39.61 28.56C37.86 25.84 34.99 24.68 33.22 25.99 31.44 27.29 31.42 30.56 33.17 33.28 34.92 36.01 36.94 35.84 38.72 34.54 40.5 33.24 41.36 31.29 39.61 28.56Z" fill="#FFF9E9"/><g><path d="M45.28 40.22C45.13 40.04 45.05 39.79 45.07 39.56 45.08 39.33 45.19 39.14 45.36 39.05L52.4 35.25C52.52 35.18 52.69 35.21 52.84 35.32 53 35.43 53.13 35.6 53.2 35.79 53.66 37.18 54.24 40.14 51.67 41.85 48.79 43.75 46.35 41.53 45.28 40.22Z" fill="#542C23"/><path d="M46 39.63C45.92 39.56 45.89 39.44 45.93 39.31 45.96 39.18 46.06 39.07 46.19 39L51.79 35.94C51.89 35.88 52.01 35.87 52.11 35.91 52.2 35.94 52.28 36.03 52.29 36.13 52.41 36.83 53.54 37.66 50.31 39.61 46.61 41.84 46.61 40.16 46 39.63Z" fill="#FFEAE6"/></g><path d="M46.82 35.12C45.7 35.39 44.71 35.02 44.39 34.3 44.32 34.5 44.29 34.71 44.32 34.9 44.48 35.8 45.62 36.28 46.87 35.97 48.13 35.66 49.02 34.69 48.87 33.79 48.85 33.7 48.79 33.62 48.75 33.54 48.53 34.24 47.79 34.88 46.82 35.12Z" fill="#EF8F6F"/><path d="M48.16 21.59C47.49 20.72 46.44 20.44 45.82 20.97 45.2 21.49 45.25 22.62 45.93 23.49 46.61 24.36 47.66 24.65 48.27 24.12 48.89 23.59 48.84 22.46 48.16 21.59Z" fill="#5795AA"/><path d="M38.08 27.45C37.4 26.43 36.25 26.06 35.52 26.62 34.78 27.18 34.74 28.46 35.42 29.48 36.1 30.5 37.24 30.87 37.98 30.31 38.71 29.74 38.75 28.46 38.08 27.45Z" fill="#5795AA"/><path d="M37.24 28.09C36.99 27.71 36.56 27.58 36.29 27.78 36.02 27.99 36 28.46 36.25 28.84 36.5 29.22 36.93 29.35 37.2 29.15 37.47 28.94 37.49 28.47 37.24 28.09Z" fill="#78C7DD"/><path d="M47.46 22.19C47.21 21.87 46.82 21.77 46.59 21.96 46.36 22.16 46.38 22.57 46.63 22.89 46.88 23.21 47.27 23.32 47.5 23.12 47.73 22.93 47.71 22.51 47.46 22.19Z" fill="#78C7DD"/><g><path d="M46.75 17.77C43.89 16.41 41.27 17.75 40.86 18.35L39.8 17.13C40.54 16.05 43.69 14.77 46.86 16.29L46.75 17.77Z" fill="#99432E"/></g><g><path d="M34 22.03C30.57 23.77 28.88 28.19 28.85 29.31L27.16 29.17C27.23 27.18 29.45 22.23 33.26 20.29L34 22.03Z" fill="#99432E"/></g><path d="M52.95 26C52.57 25.26 50.39 25.61 48.07 26.78 45.76 27.95 44.19 29.51 44.57 30.24 44.95 30.98 47.13 30.63 49.44 29.46 51.76 28.29 53.33 26.74 52.95 26Z" fill="#FFCD9C"/><path d="M42.19 32.45C41.78 31.73 39.61 32.17 37.35 33.44 35.09 34.71 33.59 36.33 34.01 37.05 34.42 37.77 36.59 37.32 38.85 36.05 41.1 34.79 42.6 33.17 42.19 32.45Z" fill="#FFCD9C"/></g><path d="M91.45 39.34C91.75 39.3 92.22 39.3 92.69 39.27 93.52 39.21 94.34 38.81 94.24 38.48 94.16 38.2 93.56 38.52 92.98 38.57 92.46 38.61 92.28 38.64 92.26 38.51 92.24 38.42 92.88 38.24 93.59 38.03 94.49 37.74 95.04 37.41 94.93 37.07 94.82 36.75 94.28 37.09 93.43 37.27 92.7 37.43 92.4 37.54 92.28 37.22 92.22 37.07 92.69 36.92 93.35 36.53 94.13 36.08 94.5 35.61 94.34 35.37 94.1 35.04 93.9 35.5 92.94 35.89 91.7 36.41 90.6 37.06 89.79 36.84 89.04 36.63 89.31 35 88.68 35.16 88.18 35.29 88.56 36.68 88.8 38.43 88.89 39.09 89.11 39.68 91.45 39.34Z" fill="#FFCD9C"/></g></svg>