<svg width="463.06" height="400.06" viewBox="0 0 463.06 400.06" xmlns="http://www.w3.org/2000/svg" xmlns:xlink="http://www.w3.org/1999/xlink" xml:space="preserve" overflow="hidden"><defs></defs><g id="Floor_1_"><ellipse cx="231.53" cy="270.22" rx="231.53" ry="129.83" id="Floor_2_" fill="#E0E0E0"/><g id="Lines_2_"><path d="M436.09 323.8C433.7 322.42 429.82 322.42 427.43 323.8L307.86 392.83C339.78 386.6 369.74 376.33 395.24 362.03 414.33 351.32 429.37 339.21 440.4 326.29L436.09 323.8Z" fill="#FAFAFA"/><path d="M78.64 286.05 98.41 297.47C100.8 298.85 104.68 298.85 107.07 297.47L244.64 218.04C247.03 216.66 247.03 214.42 244.64 213.04L224.87 201.62C222.48 200.24 218.6 200.24 216.21 201.62L78.64 281.05C76.24 282.43 76.24 284.66 78.64 286.05Z" fill="#FAFAFA"/><path d="M191.84 182.49 172.07 171.07C169.68 169.69 165.8 169.69 163.41 171.07L25.83 250.5C23.44 251.88 23.44 254.12 25.83 255.5L45.6 266.92C47.99 268.3 51.87 268.3 54.26 266.92L191.83 187.49C194.23 186.11 194.23 183.87 191.84 182.49Z" fill="#FAFAFA"/><path d="M139.03 151.95 138.09 151.41C112.59 157.71 88.7 166.71 67.81 178.43 40.62 193.67 21.62 211.77 10.79 231L139.03 156.96C141.43 155.56 141.43 153.33 139.03 151.95Z" fill="#FAFAFA"/><path d="M237.05 377.68 256.82 389.1C259.21 390.48 263.09 390.48 265.48 389.1L403.05 309.67C405.44 308.29 405.44 306.05 403.05 304.67L383.28 293.25C380.89 291.87 377.01 291.87 374.62 293.25L237.05 372.68C234.66 374.06 234.66 376.3 237.05 377.68Z" fill="#FAFAFA"/><path d="M350.25 274.12 330.48 262.7C328.09 261.32 324.21 261.32 321.82 262.7L184.25 342.13C181.86 343.51 181.86 345.75 184.25 347.13L204.02 358.55C206.41 359.93 210.29 359.93 212.68 358.55L350.25 279.12C352.64 277.74 352.64 275.5 350.25 274.12Z" fill="#FAFAFA"/><path d="M277.67 232.16C275.28 230.78 271.4 230.78 269.01 232.16L131.44 311.59C129.05 312.97 129.05 315.21 131.44 316.59L151.21 328.01C153.6 329.39 157.48 329.39 159.87 328.01L297.44 248.58C299.83 247.2 299.83 244.96 297.44 243.58L277.67 232.16Z" fill="#FAFAFA"/></g></g><path d="M119.82 257.2C120.33 257.31 120.84 257.43 121.35 257.55 128.28 259.17 135.11 261.29 142.15 262.34 144.18 262.64 146.23 262.82 148.28 262.92 152.05 263.11 156.03 263.15 159.69 262.14 162.69 261.31 166.53 258.4 164.18 254.9 163.53 253.94 162.68 252.95 162.81 251.8 162.94 250.67 163.97 249.89 164.94 249.3 172.61 244.65 182.27 243.58 191.07 244.43 198.68 245.16 206.15 249.42 213.52 251.44 221.62 253.66 230.12 254.95 238.5 253.68 241.38 253.24 244.67 252.1 245.51 249.31 246.11 247.32 245.15 245.13 243.66 243.69 242.17 242.25 240.21 241.41 238.3 240.6 232.72 238.23 225.65 236.41 220.72 232.93 217.45 230.62 214.32 228.11 211.36 225.41 208.76 223.03 206.25 221.92 203.08 220.35 190.36 214.08 176.74 208.79 162.56 208.63 158 208.58 153.1 209.21 149.7 212.25 147.39 214.31 146.07 217.24 144.2 219.7 141.8 222.85 137.87 224.18 134.31 225.64 129.68 227.53 124.44 228.01 119.49 227.57 114.2 227.1 109.07 225.7 103.99 224.21 99.68 222.95 95.16 222.26 91 220.71 85.61 218.7 79.64 218.26 74.02 219.52 70.29 220.36 63.38 221.91 62.85 226.49 62.54 229.2 63.91 231.81 65.51 234.01 71.58 242.39 81.19 247.57 91.06 250.7 100.45 253.69 110.23 255.05 119.82 257.2Z" id="Shadow_1_" opacity="0.07"/><g id="Character_2_"><g><path d="M304.31 322.52C304.32 323.3 303.96 324.48 304.45 325.11 305.15 326 306.34 326.73 307.3 327.29 308.1 327.75 308.76 328.23 309.42 328.87 310.16 329.58 310.61 330.55 311.19 331.39 311.94 332.48 312.95 334.58 314.88 335.92 317.74 337.9 322.02 338.68 326.31 338.5 330.6 338.32 332.96 337.07 334.11 336.05 335.25 335.03 335.55 332.77 335.16 331.71 334.77 330.65 304.31 322.52 304.31 322.52Z" fill="#37474F"/><path d="M305.7 319.77 316.9 317.59 313.62 300.76 302.91 305.46Z" id="XMLID_61_" fill="#FFA8A7"/><path d="M334.77 329.89C332.69 328.27 328.63 326.1 323.97 322.48 321.73 320.75 319.85 317.81 318.41 315.39L318.41 315.38C316.93 312.87 317.31 311.64 316.6 310.73 315.96 309.91 315.47 309.72 315.38 309.7 315.44 309.85 316.11 311.44 313.21 312.17 310.18 312.94 309 312.46 308.7 313.22 308.53 313.62 308.7 314.78 308.86 315.86 309 316.84 309.13 317.75 309.01 317.98 308.74 318.46 308.09 317.82 307.31 316.59 306.87 315.89 306.1 315.34 305.51 315 305.49 314.99 305.48 314.98 305.47 314.98 305.08 314.75 304.79 314.61 304.71 314.58 304.7 314.57 304.69 314.57 304.69 314.57L304.48 313.5C303.86 313.45 303.99 315.42 303.87 317.24 303.74 319.23 303.76 321.55 304.31 322.5 305.32 324.24 308.41 325.51 309.91 326.88 311.41 328.25 312.72 331.36 314.62 333.28 316.51 335.19 321.02 336.57 326.28 336.36 333.29 336.1 337.54 332.07 334.77 329.89Z" fill="#27DEBF"/><path d="M334.77 329.89C332.69 328.27 328.63 326.1 323.97 322.48 321.73 320.75 319.85 317.81 318.41 315.39L318.41 315.38C316.93 312.87 317.31 311.64 316.6 310.73 315.96 309.91 315.47 309.72 315.38 309.7 315.44 309.85 316.11 311.44 313.21 312.17 310.18 312.94 309 312.46 308.7 313.22 308.53 313.62 308.7 314.78 308.86 315.86 309 316.84 309.13 317.75 309.01 317.98 308.74 318.46 308.09 317.82 307.31 316.59 306.87 315.89 306.1 315.34 305.51 315 305.49 314.99 305.48 314.98 305.47 314.98 305.08 314.75 304.79 314.61 304.71 314.58 304.7 314.57 304.69 314.57 304.69 314.57L304.48 313.5C303.86 313.45 303.99 315.42 303.87 317.24 303.74 319.23 303.76 321.55 304.31 322.5 305.32 324.24 308.41 325.51 309.91 326.88 311.41 328.25 312.72 331.36 314.62 333.28 316.51 335.19 321.02 336.57 326.28 336.36 333.29 336.1 337.54 332.07 334.77 329.89Z" opacity="0.3"/><path d="M314.62 333.29C314.62 333.29 315.15 329.28 320.92 326.89 326.69 324.5 328.67 325.51 330.12 326.14 331.57 326.77 336.51 329.52 335.87 331.61 335.24 333.7 333.45 335.47 328.06 336.39 322.68 337.31 316.46 335.67 314.62 333.29Z" fill="#FAFAFA"/></g><g><path d="M246.61 292.27C248.47 296.6 251.78 297.6 255.85 296.87L266.94 284.73 256.96 276.71 246.61 292.27Z" id="XMLID_60_" fill="#FFA8A7"/><path d="M244.22 295.59C244.26 295.63 242.95 297.31 242.95 297.57 242.95 298.34 243.35 299.19 243.67 299.87 244.17 300.93 244.79 301.93 245.15 303.04 245.51 304.16 245.51 305.28 245.56 306.44 245.62 307.8 245.56 310.1 246.34 312.37 247.53 315.81 250.47 318.87 254.3 321.02 258.13 323.17 261.47 323.11 263.02 322.83 264.57 322.55 265.91 321.33 266.15 320.2 266.38 319.06 244.28 295.65 244.22 295.59Z" fill="#37474F"/><path d="M266.94 317.55C266.01 315.01 263.48 311.79 261.37 306.15 260.33 303.35 260.15 299.82 260.1 297.07 260.05 294.81 260.59 293.94 261.24 292.75 261.88 291.56 261.68 291.21 261.24 290.98 261.24 290.98 260.52 291.65 258.21 291.76 256.45 291.83 254.77 290.48 254.05 289.84 253.56 289.41 252.57 290.99 251.92 292.41 251.61 293.09 251.39 293.74 251.33 294.12 251.17 295.31 250.37 295.75 250.09 294.75 249.82 293.82 250.26 291.79 249.13 289.43 249.05 289.26 248.96 289.09 248.86 288.92L249.74 287.6C249.22 287.22 247.77 289.24 246.69 290.77 245.51 292.43 244.27 294.46 244.24 295.59 244.18 297.64 246.19 300.41 246.76 302.42 247.32 304.43 247.09 307.59 247.7 310.27 248.31 312.96 251.89 317.56 255.9 319.49 262.36 322.6 268.18 320.94 266.94 317.55Z" fill="#27DEBF"/><path d="M266.94 317.55C266.01 315.01 263.48 311.79 261.37 306.15 260.33 303.35 260.15 299.82 260.1 297.07 260.05 294.81 260.59 293.94 261.24 292.75 261.88 291.56 261.68 291.21 261.24 290.98 261.24 290.98 260.52 291.65 258.21 291.76 256.45 291.83 254.77 290.48 254.05 289.84 253.56 289.41 252.57 290.99 251.92 292.41 251.61 293.09 251.39 293.74 251.33 294.12 251.17 295.31 250.37 295.75 250.09 294.75 249.82 293.82 250.26 291.79 249.13 289.43 249.05 289.26 248.96 289.09 248.86 288.92L249.74 287.6C249.22 287.22 247.77 289.24 246.69 290.77 245.51 292.43 244.27 294.46 244.24 295.59 244.18 297.64 246.19 300.41 246.76 302.42 247.32 304.43 247.09 307.59 247.7 310.27 248.31 312.96 251.89 317.56 255.9 319.49 262.36 322.6 268.18 320.94 266.94 317.55Z" opacity="0.3"/><path d="M248.92 312.98C253.11 310.9 257.03 309.51 260.55 310.03 264.07 310.55 264.46 311.1 265.93 313.76 267.05 315.78 268.87 319.17 266.03 320.57 263.2 321.97 253.44 321.81 248.92 312.98Z" fill="#FAFAFA"/></g><g id="XMLID_55_"><path d="M319.64 176.32C322.29 193.3 318.31 216.66 313.69 228.78 309.36 240.12 305.45 246.19 304.07 248.55 302.69 250.91 264.09 287.84 264.09 287.84 264.09 287.84 257.6 288.3 254.03 280.4 254.03 280.4 270.25 254.76 273.76 249.1 277.28 243.43 289.01 233.04 289.01 233.04L290.89 179.5 319.64 176.32Z" id="XMLID_59_" fill="#37474F"/><path d="M304.05 204.33C304.05 204.33 307.31 201.59 311.72 195.5 318.13 186.64 318.12 179.09 318.12 179.09L314.52 178.78 276.78 178.78C275.78 190.95 275.35 196.85 276.26 202.89 278.84 219.93 290.09 251.96 290.09 251.96 289.89 254.32 291.29 263.71 293.54 272.52 297.1 286.41 303.17 308.02 303.17 308.02 303.17 308.02 311.47 308.24 314.25 303.93 314.25 303.93 311.51 259.74 310.06 247.51 308.49 234.28 304.05 204.33 304.05 204.33Z" id="XMLID_58_" fill="#37474F"/><path d="M321.01 182.12C321.01 182.12 321.54 188.33 321.01 189.01 320.48 189.69 313.44 195.05 303.17 196.48 292.89 197.91 279.85 194.63 275.55 191.96 275.2 191.31 275.4 185.47 275.4 185.47L321.01 182.12Z" fill="#27DEBF"/><path d="M321.01 182.12C321.01 182.12 321.54 188.33 321.01 189.01 320.48 189.69 313.44 195.05 303.17 196.48 292.89 197.91 279.85 194.63 275.55 191.96 275.2 191.31 275.4 185.47 275.4 185.47L321.01 182.12Z" opacity="0.3"/><path d="M308.83 237.93C308.83 237.93 305 208.27 304.05 204.33 304.05 204.33 309 203.35 311.18 200.86 311.18 200.86 310.41 203.01 306.7 205.7L308.83 237.93Z" id="XMLID_57_" fill="#263238"/><path d="M285.21 237.35 290.07 251.96C290.07 251.96 290.53 257.96 291.31 262.03L289.24 264.14C289.24 264.14 288.01 257.18 288.65 252.31L285.21 237.35Z" id="XMLID_56_" fill="#263238"/></g><g><path d="M347.47 197.12C346.76 196.8 346.06 196.46 345.37 196.1 344.44 195.63 343.55 195.08 342.63 194.61 342.34 194.46 341.5 193.81 341.23 193.82 342.92 193.75 344.26 193.66 345.14 193.38 346.89 192.81 347.16 191.41 347.01 190.76 346.89 190.26 345.67 190.65 343.63 190.24 341.02 189.71 339.31 188.44 336.43 188.59 335.49 188.64 334.27 188.25 332.9 187.03L317.2 171.73C317.2 171.73 320.46 150.82 321.11 142.2 321.77 133.59 323.29 127.1 316.55 122.53L305.35 139.95C305.35 139.95 303.72 161.67 303.27 173.06 303.12 176.89 304.26 178.58 307.04 180.66 310.3 183.08 308.72 182.54 323.03 192.54 327.91 195.91 331.54 198.86 333.92 200.95 336.57 203.28 339.26 205.38 342.94 205.61 344.96 205.74 347.09 205.15 348.5 203.71 349.1 203.1 349.58 202.34 350.35 201.97 350.8 201.76 351.3 201.7 351.76 201.54 352.23 201.38 352.7 201.08 352.83 200.61 352.97 200.14 352.72 199.62 352.35 199.29 351.98 198.96 351.51 198.79 351.04 198.61 349.86 198.16 348.66 197.66 347.47 197.12Z" fill="#B16668"/><path d="M318.27 123.89C321.21 126.35 321.98 127.67 322.13 133.61 322.28 139.55 317.77 171.54 317.77 171.54L327.01 181C327.01 181 321.4 186.28 319.82 190.41 319.82 190.41 308.93 182.99 305.81 180.5 302.69 178 302.74 177.79 302.61 172.18 302.48 166.57 303.69 142.22 303.69 142.22L318.27 123.89Z" fill="#27DEBF"/><path d="M318.27 123.89C321.21 126.35 321.98 127.67 322.13 133.61 322.28 139.55 317.77 171.54 317.77 171.54L327.01 181C327.01 181 321.4 186.28 319.82 190.41 319.82 190.41 308.93 182.99 305.81 180.5 302.69 178 302.74 177.79 302.61 172.18 302.48 166.57 303.69 142.22 303.69 142.22L318.27 123.89Z" opacity="0.3"/><path d="M327.01 181.01 332.52 186.65C332.52 186.65 327.82 191.55 326.25 194.9L319.82 190.41C319.82 190.41 320.49 188.1 323 185.05 325.5 181.99 327.01 181.01 327.01 181.01Z" fill="#455A64"/></g><g><path d="M319.13 141.51C318.6 134.51 318.54 121.93 307.77 121.3L289.71 122.26C289.71 122.26 283.03 123.2 278.48 124.35 273.75 125.44 272.75 137.01 274.67 156.06L275.39 185.48C285.17 189.64 306.89 192.16 321.01 182.12 325.27 179.21 319.84 150.85 319.13 141.51Z" id="XMLID_54_" fill="#27DEBF"/></g><g id="XMLID_38_"><g id="XMLID_46_"><path d="M274.63 99.57 277.22 110.12C277.84 112.56 279.26 113.81 281.78 113.81L285.16 113.81 285.16 97.9 274.63 99.57Z" id="XMLID_53_" fill="#263238"/><circle cx="297.48" cy="92.8" r="12.22" id="XMLID_52_" fill="#263238"/><path d="M277.88 87.11C277.88 87.11 275.72 86.74 274.03 88.46 272.38 90.15 272.62 95 275.09 101.54L279.13 101.05 277.88 87.11Z" id="XMLID_51_" fill="#263238"/><path d="M280.28 101.05C279.52 101.5 278.44 100.05 277.51 99.07 276.58 98.09 273.52 96.76 272 99.96 270.45 103.23 273.13 106.77 275.46 107.73 278.72 109.08 279.91 107.01 279.91 107.01L279.91 121.26C276.07 125.76 288.82 130.01 295.43 122.76L295.42 117.34C295.42 117.34 297.98 117.63 299.93 117.53 302.65 117.39 305.06 117.59 306.55 113.24 308.18 108.48 308.75 99.62 307.24 90.78 305.31 79.45 291.87 79.56 284.7 84.07 277.54 88.58 280.28 101.05 280.28 101.05Z" id="XMLID_50_" fill="#B16668"/><g><path d="M281.81 132.19C282.76 130.4 285.69 127.52 289.83 125.03 293.97 122.54 295.42 121.15 295.42 121.15L295.42 118.36C295.42 118.36 305.99 118.36 310.04 121.48 313.57 124.19 313.56 126.16 313.56 126.16 313.56 126.16 311.06 123.98 305.88 124.04 302.48 123.18 302.27 123.4 300.65 123.4 299.03 123.4 290.93 127.36 288.44 128.34 285.95 129.31 281.81 132.19 281.81 132.19Z" fill="#455A64"/><path d="M281.81 132.19C279.14 128.5 279.9 121.26 279.9 121.26L279.89 118.09C279.89 118.09 277.52 118.53 276.75 118.89 275.99 119.25 274.94 121.22 274.94 121.22 274.94 121.22 277.33 128.6 281.81 132.19Z" fill="#455A64"/></g><path d="M280.06 102.57C279.04 101.62 278.31 99.8 277.5 99.07 276.19 97.88 277 86.18 277 86.18 277.33 81.77 281.26 79.11 285.32 78.46 287.67 78.08 290.07 78.17 292.44 78.02 296.36 77.78 300.23 76.91 303.87 75.44 304.53 75.17 305.19 74.89 305.9 74.82 306.61 74.75 307.38 74.96 307.82 75.51 308.2 75.99 308.27 76.65 308.26 77.27 308.24 79.06 307.71 80.84 306.76 82.35 307.37 82.38 307.92 82.02 308.48 81.78 309.04 81.54 309.79 81.45 310.18 81.92 310.54 82.34 310.42 82.97 310.25 83.49 307.33 92.45 296.69 93.33 289.03 90.55 288.62 90.4 288.21 90.24 287.81 90.06 287.67 92.41 285.86 94.57 283.56 95.11 283.93 96.82 283.96 98.61 283.66 100.34 283.55 101 283.38 101.67 283 102.22 282.62 102.77 282 103.19 281.33 103.18 280.86 103.17 280.44 102.93 280.06 102.57Z" id="XMLID_49_" fill="#263238"/><path d="M277.89 87.95 273.31 85.49C273.96 84.18 275.51 83.66 276.78 84.34 278.04 85.02 278.54 86.64 277.89 87.95Z" id="XMLID_48_" fill="#263238"/><path d="M295.42 117.33C295.42 117.33 288.71 115.86 286.33 114.6 284.74 113.75 282.6 109.56 282.22 108.63 282.22 108.63 283.23 113.15 284.65 114.97 286.39 117.19 295.43 119.15 295.43 119.15L295.43 117.33Z" id="XMLID_47_" fill="#9A4A4D"/></g><g id="XMLID_39_"><path d="M294.54 99.8C294.54 100.58 293.93 101.21 293.18 101.21 292.43 101.21 291.82 100.57 291.82 99.79 291.82 99.01 292.43 98.38 293.18 98.38 293.93 98.38 294.54 99.02 294.54 99.8Z" id="XMLID_45_" fill="#263238"/><path d="M293.09 94.66 290.18 96.27C289.75 95.43 290.05 94.39 290.86 93.95 291.66 93.5 292.66 93.82 293.09 94.66Z" id="XMLID_44_" fill="#263238"/><path d="M294.88 109.1 298.43 110.43C298.08 111.45 297 111.98 296.02 111.61 295.04 111.25 294.53 110.12 294.88 109.1Z" id="XMLID_43_" fill="#9A4A4D"/><path d="M306.41 96.12 303.75 94.07C304.29 93.31 305.33 93.15 306.06 93.72 306.8 94.29 306.95 95.36 306.41 96.12Z" id="XMLID_42_" fill="#263238"/><path d="M305.6 99.34C305.6 100.12 304.99 100.75 304.24 100.75 303.49 100.75 302.88 100.11 302.88 99.33 302.88 98.55 303.49 97.92 304.24 97.92 304.99 97.93 305.6 98.56 305.6 99.34Z" id="XMLID_41_" fill="#263238"/><path d="M299.08 98.56 299.27 106.76 303.59 105.43Z" id="XMLID_40_" fill="#9A4A4D"/></g></g><g><path d="M314.98 201.06C313.18 200.83 311.5 200.4 309.78 199.86 309.69 199.83 309.6 199.8 309.53 199.75 309.07 199.38 309.93 199.41 310.08 199.39 310.5 199.32 310.93 199.24 311.34 199.12 312.15 198.9 312.94 198.56 313.6 198.03 314.03 197.68 314.42 197.21 314.55 196.66 314.64 196.24 314.79 195.65 314.43 195.32 314.15 195.06 313.72 195.07 313.33 195.1 312.34 195.17 311.35 195.21 310.37 195.23 307.9 195.28 305.42 195.18 302.96 194.92 301.9 194.81 300.75 194.69 299.77 194.25 299.23 194 298.26 193.54 297.8 193.16 295.3 191.09 292.79 189.02 290.29 186.96 287.94 185.02 285.59 183.08 283.23 181.15 282.19 180.3 281.13 179.17 279.96 178.49 279.58 178.27 283.11 142.68 283.11 142.68 283.11 142.68 284.36 127.57 278.48 124.36 273.05 125.25 268.49 128.54 267.32 138.56 266.15 148.57 265.07 175.68 265.14 179.39 265.19 181.94 264.65 184.51 269.38 187.97 274.38 191.63 274.9 191.87 291.87 202.07 294.89 204.01 299.04 206.78 301.63 207.93 310.61 211.92 314.81 211.22 317.65 208.09 318.48 207.18 318.87 206.03 319.65 205.09 320.08 204.57 320.61 204.12 320.9 203.5 321.19 202.89 321.13 202.03 320.55 201.69 320.28 201.53 319.96 201.51 319.64 201.49 318.09 201.37 316.53 201.26 314.98 201.06Z" fill="#B16668"/><path d="M279.37 124.13C277.09 124.08 271.5 124.09 268.36 130.53 265.21 136.96 265.57 141.68 265.14 149.88 264.71 158.08 264.08 180.36 264.4 183.04 264.72 185.72 268.58 188.28 271.45 190.04 275.74 192.67 283.36 196.94 283.36 196.94 284.14 193.66 287.49 188.57 290.86 187.42L280.78 177.85 283.95 144.76C283.95 144.76 286.43 130.02 279.37 124.13Z" fill="#27DEBF"/><path d="M279.37 124.13C277.09 124.08 271.5 124.09 268.36 130.53 265.21 136.96 265.57 141.68 265.14 149.88 264.71 158.08 264.08 180.36 264.4 183.04 264.72 185.72 268.58 188.28 271.45 190.04 275.74 192.67 283.36 196.94 283.36 196.94 284.14 193.66 287.49 188.57 290.86 187.42L280.78 177.85 283.95 144.76C283.95 144.76 286.43 130.02 279.37 124.13Z" opacity="0.3"/><path d="M290.86 187.42C290.86 187.42 288.25 187.66 285.59 191.34 282.93 195.01 283.36 196.95 283.36 196.95L291.06 201.58C291.06 201.58 292.36 194.84 296.92 192.44L290.86 187.42Z" fill="#455A64"/><path d="M281.92 189.05C283.97 188.86 284.33 189.16 285.77 188.7 287.21 188.24 286.6 187.39 286.18 186.85 285.76 186.31 281.48 185.66 282.52 184.8 283.51 183.99 286.06 183.52 286.81 183.73L286.17 183.11C285.8 182.82 284.97 182.4 284.35 182.11 284.03 181.98 283.68 181.86 283.27 181.73 280.86 180.97 269.95 180.98 264.32 181.16 264.33 182.05 264.36 182.7 264.4 183.04 264.54 184.23 265.39 185.4 266.53 186.48 267.26 186.08 267.61 185.94 268.61 185.87 270.84 185.73 274.99 187.79 276.26 188.26 277.53 188.73 279.87 189.24 281.92 189.05Z" opacity="0.1"/></g></g><g id="Character_1_"><g><path d="M175.39 126.23 175.75 127.05C177.29 124.83 173.61 120.13 170.55 117.39 167.49 114.65 145.35 102.1 145.35 102.1 145.35 102.1 145.79 92.65 146.87 80.52 147.95 68.39 143.98 64.45 140.61 63.24L133.32 81.11C133.32 81.11 133.87 100.2 133.94 105.17 133.99 108.7 136.21 110.47 139.05 111.59 143.36 113.29 157.96 119.55 160.25 121.37 160.47 121.55 160.69 121.72 160.92 121.9L160.92 121.9C162.91 123.35 164.45 126.08 166.47 127.48 167.02 127.86 167.62 128.16 168.23 128.44 169.01 128.8 169.8 129.12 170.6 129.45 171.46 129.8 172.31 130.15 173.17 130.5 173.28 130.55 173.4 130.59 173.52 130.6 173.86 130.62 174.15 130.31 174.22 129.98 174.28 129.65 174.17 129.3 174.02 128.99 173.45 127.82 172.38 126.98 171.43 126.09 171.22 125.89 171 125.6 171.02 125.34 173.73 124.87 175.39 126.23 175.39 126.23Z" fill="#FFA8A7"/><path d="M139.99 62.22C139.99 62.22 143.78 63.82 145.43 66.73 147.07 69.63 147.61 73.35 147.49 77.72 147.37 82.09 145.93 101.69 145.93 101.69L157.34 109.01C157.34 109.01 154.33 113.64 153.03 117.6 153.03 117.6 139.79 112.18 136.6 110.98 133.42 109.78 133.66 108.31 133.1 103.87 132.54 99.43 131.82 80.57 131.82 80.57L139.99 62.22Z" fill="#27DEBF"/></g><g id="XMLID_23_"><g id="XMLID_24_"><g id="XMLID_25_"><g id="XMLID_33_"><path d="M135.06 245.58C135.11 247.63 137.03 252.76 137.03 252.76 137.03 252.76 138.35 254.35 141.65 254.76L140.99 247.07 135.06 245.58Z" id="XMLID_37_" fill="#263238"/><path d="M141.65 254.76 147.6 250.84 147.6 244.62 141.27 250.32Z" id="XMLID_36_"/><path d="M144.33 235.61 144.04 234.34C145.04 234.53 148.41 241.43 152.38 245.61 156.01 249.43 161.46 250.63 163.54 252.16 166.32 254.2 163.2 258.66 156.35 259.03 152.95 259.21 147.53 258.48 145.62 256.67 143.71 254.86 142.19 251 140.67 249.7 139.16 248.4 136.1 247.26 135.06 245.59 134.49 244.67 134.4 242.4 134.47 240.45 134.53 238.66 134.59 236.7 135.2 236.72 135.25 236.93 135.47 237.78 135.47 237.78 135.77 238.62 137 239.38 140.5 238.59 142.08 238.24 144.81 237.32 144.33 235.61Z" id="XMLID_35_" fill="#27DEBF"/><path d="M144.33 235.61 144.04 234.34C145.04 234.53 148.41 241.43 152.38 245.61 156.01 249.43 161.46 250.63 163.54 252.16 166.32 254.2 163.2 258.66 156.35 259.03 152.95 259.21 147.53 258.48 145.62 256.67 143.71 254.86 142.19 251 140.67 249.7 139.16 248.4 136.1 247.26 135.06 245.59 134.49 244.67 134.4 242.4 134.47 240.45 134.53 238.66 134.59 236.7 135.2 236.72 135.25 236.93 135.47 237.78 135.47 237.78 135.77 238.62 137 239.38 140.5 238.59 142.08 238.24 144.81 237.32 144.33 235.61Z" id="XMLID_34_" opacity="0.4"/></g><g id="XMLID_28_"><path d="M71.15 213.14C70.23 214.75 69.52 225.36 69.52 225.36 69.52 225.36 72.43 228.72 74 229.66L77.5 219.32 71.15 213.14Z" id="XMLID_32_" fill="#263238"/><path d="M73.99 229.66 82.26 226.75 84.66 219.85 76.11 223.32Z" id="XMLID_31_"/><path d="M77.16 206.67C76.56 206.13 75.8 207.27 74.28 208.98 73.21 210.18 71.85 211.68 71.23 212.93 70.36 214.68 72.91 218.54 74.57 220.64 76.32 222.87 76.66 224.76 77.02 227.98 77.45 231.88 77.02 234.33 82.2 237.25 86.35 239.59 94.19 239.21 95.72 237.4 98.33 234.33 91.06 231.34 89.31 225.86 86.89 218.28 86.55 217.02 86.17 211.58L77.16 206.67Z" id="XMLID_30_" fill="#27DEBF"/><path d="M77.16 206.67C76.56 206.13 75.8 207.27 74.28 208.98 73.21 210.18 71.85 211.68 71.23 212.93 70.36 214.68 72.91 218.54 74.57 220.64 76.32 222.87 76.66 224.76 77.02 227.98 77.45 231.88 77.02 234.33 82.2 237.25 86.35 239.59 94.19 239.21 95.72 237.4 98.33 234.33 91.06 231.34 89.31 225.86 86.89 218.28 86.55 217.02 86.17 211.58L77.16 206.67Z" id="XMLID_29_" opacity="0.4"/></g><path d="M141.88 97.48C138.38 99.92 135.25 103.94 118.96 102.35L117.04 152.93C117.04 152.93 104.04 161.99 100.38 167.9 96.71 173.81 79.54 203.19 79.54 203.19L79.54 203.19 77.07 206.8C75.54 209.04 76.32 210.84 78.56 212.37 80.71 213.77 83.4 214.62 85.13 212.73L87.25 210.42C87.25 210.42 129.25 169.67 130.68 167.22 132.12 164.76 135.31 158.7 138.14 146.36 141.77 130.52 142.52 114.79 141.88 97.48Z" id="XMLID_27_" fill="#FFA8A7"/><path d="M140.73 130.07C140.29 135.22 139.5 140.46 138.15 146.35 135.33 158.69 132.13 164.75 130.69 167.21 130.46 167.6 129.2 168.97 127.25 170.98L127.25 170.98C124.27 174.05 119.68 178.63 114.66 183.6 114.91 177.3 115.91 170.22 115.91 170.22 113.55 167.14 110.34 161.96 108.73 159.32 108.74 159.31 108.75 159.31 108.76 159.3 109 159.1 109.25 158.89 109.49 158.69 109.55 158.64 109.6 158.6 109.66 158.56 109.86 158.4 110.05 158.24 110.24 158.08 110.31 158.02 110.38 157.97 110.45 157.91 110.63 157.76 110.81 157.62 110.99 157.48 111.06 157.43 111.13 157.37 111.2 157.32 111.37 157.18 111.55 157.05 111.72 156.91 111.79 156.86 111.86 156.8 111.93 156.75 112.1 156.61 112.27 156.48 112.44 156.35 112.5 156.31 112.56 156.26 112.61 156.22 112.8 156.08 112.98 155.93 113.16 155.8 113.19 155.78 113.23 155.75 113.26 155.73 113.47 155.57 113.68 155.41 113.87 155.27 113.87 155.27 113.88 155.26 113.88 155.26 114.3 154.95 114.68 154.66 115.03 154.4 115.05 154.39 115.06 154.38 115.07 154.37 115.22 154.26 115.37 154.15 115.51 154.05 115.54 154.03 115.58 154 115.61 153.98 115.72 153.9 115.83 153.82 115.93 153.75 115.97 153.72 116.01 153.69 116.05 153.66 116.14 153.59 116.23 153.53 116.31 153.47 116.34 153.45 116.36 153.43 116.39 153.41 116.47 153.35 116.55 153.3 116.61 153.25 116.63 153.24 116.65 153.22 116.67 153.2 116.73 153.15 116.79 153.11 116.84 153.08 116.85 153.07 116.86 153.06 116.87 153.06 116.92 153.02 116.96 152.99 116.99 152.97 116.99 152.97 117 152.97 117 152.96 117.03 152.94 117.04 152.93 117.04 152.93L118.36 120.49 140.73 130.07Z" fill="#F28F8F"/><path d="M144.76 236.58 144.62 235.63C142.9 227.12 138.71 179.73 137.2 166.98 135.57 153.18 129.23 120.02 129.23 120.02 129.23 120.02 137.28 103.83 141.88 97.48 134.81 99.24 116.24 100.55 102.64 97.59 103.22 102.31 101.34 111.12 100.96 121.6 100.3 139.78 118.61 170.21 118.61 170.21 118.4 172.67 117.36 183.03 119.71 192.21 123.42 206.69 133.66 231.89 134.84 235.39L135.65 238.36C137.51 240.11 143.89 239.08 144.76 236.58Z" id="XMLID_26_" fill="#FFA8A7"/></g></g><path d="M102.64 97.64C102.52 100.52 96.81 114.15 96.96 134.54 97.02 142.97 101.35 169 97.48 187.19 96.75 190.63 89.02 216.25 89.02 216.25 89.02 216.25 92.74 236.14 117.5 240.89 135.61 244.36 143.19 226.94 143.19 226.94 143.19 226.94 146.03 176.6 146.05 159.04 146.07 137.77 141.89 97.5 141.89 97.5L102.64 97.64Z" stroke="#000000" stroke-miterlimit="10" fill="#2D2121"/><path d="M127.75 228.34 88.75 216.34 76.75 199.34 98.02 148.43" stroke="#000000" stroke-miterlimit="10" fill="#2D2121"/></g><g id="XMLID_19_"><g id="XMLID_21_"><path d="M143.45 80.48C143.17 83.61 142.48 93.03 141.88 97.48 134.3 104.11 108.84 103.7 102.64 97.59L102.42 79.07C102.42 79.07 102.06 74.79 102.08 74.78 102.44 74.17 113.54 63.8 106.48 50.49L116.85 48.98 130.13 49.21C133.19 49.38 135.38 49.68 135.38 49.68 137.34 51.52 140 55.56 142.65 60.83 144.23 64.01 148.94 71 143.45 80.48Z" id="XMLID_22_" fill="#27DEBF"/></g><path d="M143.45 80.48C143.17 83.61 142.48 93.03 141.88 97.48 134.3 104.11 108.84 103.7 102.64 97.59L102.42 79.07C102.42 79.07 102.06 74.79 102.08 74.78 102.44 74.17 113.54 63.8 106.48 50.49L116.85 48.98 130.13 49.21C133.19 49.38 135.38 49.68 135.38 49.68 137.34 51.52 140 55.56 142.65 60.83 144.23 64.01 148.94 71 143.45 80.48Z" id="XMLID_20_" fill="#FFFFFF" opacity="0.6"/></g><g><path d="M80.5 115.61C80.37 119.2 80.11 124.03 80.44 126.84 81.57 136.61 84.31 139.86 88.44 140.72 95.04 142.09 95.43 139.6 93.03 134.9 91.26 131.43 90.91 128.36 90.91 128.36 92.08 129.53 93.03 130.42 93.82 130.87 95.39 131.75 96.57 131.01 96.93 130.47 97.21 130.05 96.12 129.44 95.06 127.71 93.71 125.5 93.48 123.43 91.47 121.47 90.72 120.74 90.62 119.57 90.5 118.53 90.35 117.14 93.8 95.72 95.09 92.14L104.34 72C106.97 66.62 113.54 54.45 106.92 50.1 97.8 49.83 94.96 57.85 84.29 83.38 82.38 87.97 80.77 108.2 80.5 115.61Z" id="XMLID_18_" fill="#FFA8A7"/><path d="M90.87 115.12C90.87 115.12 94.37 95.53 95.55 92.57 96.73 89.62 108.6 65.5 108.6 65.5 108.6 65.5 111.97 54.96 109.07 50.41 109.07 50.41 102.61 49.11 99.26 52.43 95.91 55.75 90.51 66.7 86.46 76.56 82.41 86.42 82.11 90.99 81.28 97.63 80.45 104.26 80.48 116.2 80.48 116.2 80.48 116.2 84.15 114.22 90.87 115.12Z" fill="#27DEBF"/></g><g id="XMLID_1_"><path d="M125.56 3.32C127.72 7.06 125.41 12.43 120.4 15.33 115.39 18.22 109.58 17.53 107.42 13.8 105.26 10.06 107.57 4.69 112.58 1.79 117.59-1.1 123.4-0.42 125.56 3.32Z" fill="#E0E0E0"/><path d="M125.56 3.32C127.72 7.06 125.41 12.43 120.4 15.33 115.39 18.22 109.58 17.53 107.42 13.8 105.26 10.06 107.57 4.69 112.58 1.79 117.59-1.1 123.4-0.42 125.56 3.32Z" opacity="0.05"/><path d="M118.54 42.83C115.81 42.83 112.29 42.03 108.77 37.36 105.63 33.19 103.38 26.11 107.98 18.18 111.97 11.3 124.32 2.49 135.29 5.29 143.38 7.35 146.61 14.31 147.06 17.37 147.51 20.42 146.4 25.35 143.01 29.08 139.77 32.64 118.54 42.83 118.54 42.83Z" fill="#E0E0E0"/><path d="M118.54 42.83C115.81 42.83 112.29 42.03 108.77 37.36 105.63 33.19 103.38 26.11 107.98 18.18 111.97 11.3 124.32 2.49 135.29 5.29 143.38 7.35 146.61 14.31 147.06 17.37 147.51 20.42 146.4 25.35 143.01 29.08 139.77 32.64 118.54 42.83 118.54 42.83Z" fill="#E0E0E0"/><g id="XMLID_16_"><path d="M139.83 16.73C141.25 18.27 143.25 19.71 142.99 30.99 142.77 40.54 139.1 42.97 137.54 43.65 135.99 44.33 132.99 43.92 130.07 43.43L130.07 49.16C130.07 49.16 131.21 52.11 125.99 52.41 118.06 52.87 116.84 49.57 116.84 49.57L116.79 38.23C116.79 38.23 114.56 39.02 112.08 36.08 110.02 33.64 109.54 29.88 111.41 27.98 113.28 26.08 116.74 26.6 118.07 29.31 118.07 29.31 119.92 19.16 126.77 17.43 133.49 15.73 135.56 22.53 139.83 16.73Z" id="XMLID_17_" fill="#FFA8A7"/></g><g><path d="M127.34 27.2C127.12 26.95 126.73 26.88 126.42 26.86 126.28 26.85 126.14 26.85 126 26.86 125.9 26.87 125.81 26.88 125.71 26.9 125.69 26.9 125.68 26.91 125.66 26.91 125.63 26.92 125.6 26.93 125.57 26.95 125.49 27 125.48 27.07 125.45 27.14 125.38 27.28 125.51 27.54 125.68 27.55 125.68 27.55 125.96 27.57 125.83 27.57 125.89 27.57 125.92 27.58 125.97 27.58 126 27.58 126.04 27.58 126.07 27.57 126.12 27.57 126.17 27.56 126.22 27.56 126.33 27.55 126.44 27.55 126.55 27.55 126.55 27.55 126.55 27.55 126.55 27.55 126.55 27.55 126.55 27.55 126.56 27.55 126.61 27.55 126.66 27.55 126.72 27.56 126.77 27.56 126.81 27.56 126.86 27.57 126.9 27.57 126.94 27.58 126.98 27.58 127.04 27.59 127.13 27.59 127.19 27.61 127.29 27.64 127.39 27.62 127.43 27.52 127.46 27.41 127.41 27.28 127.34 27.2Z" fill="#F28F8F"/><path d="M127.13 28.21C127.01 28.2 126.91 28.21 126.8 28.25 126.75 28.27 126.7 28.29 126.65 28.3 126.64 28.3 126.62 28.31 126.62 28.31 126.6 28.32 126.57 28.32 126.55 28.33 126.5 28.34 126.45 28.35 126.4 28.36 126.16 28.41 125.91 28.39 125.69 28.5 125.6 28.54 125.61 28.7 125.63 28.77 125.66 28.87 125.75 28.99 125.86 29.02 126.02 29.07 126.18 29.07 126.35 29.05 126.45 29.04 126.55 29.02 126.65 29 126.77 28.97 126.89 28.94 127 28.9 127.04 28.88 127.08 28.86 127.12 28.84 127.16 28.82 127.2 28.8 127.23 28.77 127.33 28.7 127.33 28.59 127.35 28.49 127.36 28.37 127.25 28.21 127.13 28.21Z" fill="#F28F8F"/><path d="M142.48 26.27C142.39 26.14 142.24 26.06 142.09 26.16 142.01 26.19 141.93 26.22 141.86 26.25 141.71 26.3 141.55 26.34 141.4 26.39 141.37 26.4 141.34 26.41 141.32 26.43 141.27 26.48 141.29 26.56 141.33 26.62 141.46 26.82 141.7 26.8 141.91 26.79 142.1 26.78 142.31 26.76 142.48 26.66 142.53 26.63 142.56 26.55 142.56 26.49 142.55 26.42 142.53 26.34 142.48 26.27Z" fill="#F28F8F"/><path d="M142.57 27.92C142.57 27.9 142.56 27.89 142.55 27.87 142.55 27.86 142.54 27.85 142.53 27.85 142.52 27.83 142.51 27.81 142.49 27.79 142.48 27.78 142.48 27.76 142.46 27.75 142.45 27.74 142.44 27.74 142.43 27.73 142.4 27.7 142.36 27.67 142.31 27.65 142.3 27.64 142.29 27.64 142.28 27.63 142.22 27.59 142.16 27.56 142.09 27.52 141.92 27.42 141.73 27.32 141.55 27.26 141.41 27.21 141.23 27.34 141.26 27.49 141.28 27.57 141.33 27.63 141.39 27.68 141.5 27.78 141.61 27.84 141.74 27.92 141.76 27.94 141.79 27.95 141.81 27.97 141.94 28.06 142.08 28.13 142.22 28.2 142.35 28.27 142.54 28.21 142.56 28.05 142.58 28 142.58 27.96 142.57 27.92Z" fill="#F28F8F"/><path d="M130.47 36.07C130.46 36.1 130.46 36.1 130.45 36.11 130.45 36.11 130.45 36.1 130.46 36.1L130.47 36.07Z" fill="#F28F8F"/><path d="M130.83 35.29C130.82 35.19 130.8 35.04 130.68 35.01 130.69 35.01 130.68 35.01 130.68 35.01 130.67 35.01 130.66 35 130.65 35 130.6 34.99 130.55 34.99 130.5 35 130.44 35.01 130.39 35.03 130.34 35.06 130.27 35.1 130.19 35.13 130.14 35.18 130.11 35.21 130.09 35.24 130.06 35.27 130 35.35 129.95 35.43 129.91 35.52 129.89 35.57 129.87 35.63 129.87 35.69 129.87 35.71 129.87 35.73 129.87 35.75 129.87 35.78 129.87 35.81 129.87 35.84 129.88 35.89 129.89 35.93 129.92 35.97 129.93 36.01 129.94 36.04 129.96 36.08 130 36.16 130.07 36.24 130.16 36.28L130.21 36.3C130.27 36.32 130.32 36.29 130.36 36.22 130.44 36.16 130.45 36.14 130.46 36.12 130.45 36.13 130.44 36.14 130.43 36.16 130.48 36.11 130.5 36.06 130.52 35.99 130.52 36 130.52 36.01 130.51 36.02 130.51 36.01 130.51 36 130.52 35.99 130.52 35.99 130.52 35.99 130.52 35.99 130.52 35.98 130.52 35.97 130.53 35.96 130.54 35.93 130.55 35.9 130.55 35.87 130.54 35.9 130.54 35.92 130.53 35.95 130.55 35.87 130.58 35.8 130.63 35.73 130.66 35.69 130.68 35.66 130.71 35.62L130.67 35.68C130.69 35.65 130.71 35.63 130.73 35.6 130.75 35.58 130.79 35.54 130.8 35.51 130.83 35.44 130.83 35.36 130.83 35.29Z" fill="#F28F8F"/><path d="M130.47 36.09C130.47 36.09 130.46 36.1 130.46 36.1 130.46 36.11 130.45 36.12 130.45 36.13 130.46 36.12 130.46 36.1 130.47 36.09Z" fill="#F28F8F"/></g><g><g id="XMLID_14_"><path d="M130.95 27.46C131.02 28.15 130.54 28.75 129.88 28.82 129.22 28.88 128.63 28.38 128.56 27.69 128.49 27 128.97 26.4 129.63 26.33 130.29 26.26 130.88 26.77 130.95 27.46Z" id="XMLID_15_" fill="#263238"/></g><g id="XMLID_12_" opacity="0.5"><path d="M138.61 39.47 131.51 38.08C132 36.55 133.99 35.62 135.95 36.01 137.91 36.39 139.1 37.94 138.61 39.47Z" id="XMLID_13_" fill="#FFA8A7"/></g><g id="XMLID_10_"><path d="M141.43 23.82 138.73 22.62C139.04 21.86 139.89 21.5 140.64 21.84 141.37 22.17 141.73 23.06 141.43 23.82Z" id="XMLID_11_" fill="#E0E0E0"/></g><g id="XMLID_8_"><path d="M129.54 23.4 127.01 24.93C126.56 24.24 126.76 23.34 127.45 22.92 128.16 22.5 129.09 22.72 129.54 23.4Z" id="XMLID_9_" fill="#E0E0E0"/></g><g id="XMLID_6_"><path d="M140.61 26.71C140.67 27.35 140.23 27.92 139.61 27.98 138.99 28.04 138.44 27.57 138.38 26.93 138.32 26.29 138.76 25.72 139.38 25.66 139.99 25.6 140.54 26.08 140.61 26.71Z" id="XMLID_7_" fill="#263238"/></g><g id="XMLID_4_" opacity="0.5"><path d="M135.41 26.86 136.04 35.12 140.33 33.56Z" id="XMLID_5_" fill="#FFA8A7"/></g></g><g id="XMLID_2_" opacity="0.5"><path d="M130.08 43.43C127.01 43.03 120.69 41.21 119.7 38.71 119.7 38.71 120.03 40.28 121.92 41.9 123.81 43.52 130.08 45.34 130.08 45.34L130.08 43.43Z" id="XMLID_3_" fill="#FFA8A7"/></g></g><g><path d="M116.84 48.98 112.26 49.65C112.26 49.65 129.97 73.9 134.55 85.88 134.55 85.88 136.26 58.25 131.49 49.3L130.07 49.17 130.07 48.31C130.07 48.31 136.96 48.77 139.49 49.67 143.59 51.13 147.21 56.2 150.84 70.14 150.84 70.14 143.98 85.12 134.65 89.82 134.65 89.82 100.11 83.02 87.9 71.48 87.9 71.48 92.58 61.12 95.64 55.91 97.6 52.57 100.18 50.57 105.27 49.68 110.36 48.79 116.84 48.32 116.84 48.32L116.84 48.98Z" fill="#455A64"/><path d="M133.47 88.71C132.23 89.07 130.65 90.47 130.58 93.31 130.51 96.15 129.97 97.46 129.97 97.46 129.97 97.46 132.86 96.91 134.1 93.21 135.13 90.16 134.81 88.32 133.47 88.71Z" fill="#455A64"/><path d="M135.75 87.62C136.99 87.98 138.57 89.38 138.64 92.22 138.71 95.06 139.25 96.37 139.25 96.37 139.25 96.37 136.36 95.82 135.12 92.12 134.08 89.07 134.41 87.23 135.75 87.62Z" fill="#455A64"/></g></g></svg>