<svg width="76.64" height="77.12" viewBox="0 0 76.64 77.12" xmlns="http://www.w3.org/2000/svg" xmlns:xlink="http://www.w3.org/1999/xlink" xml:space="preserve" overflow="hidden"><defs></defs><radialGradient cx="856.246" cy="-1803.09" r="40.9903" gradientUnits="userSpaceOnUse" id="SVGID_1_" gradientTransform="matrix(0.2134 -0.283 0.024 0.0553 -74.0695 407.325)"><stop offset="0" stop-color="#333333"/><stop offset="0.1983" stop-color="#6E6E6E"/><stop offset="0.3965" stop-color="#A2A2A2"/><stop offset="0.5814" stop-color="#CACACA"/><stop offset="0.7492" stop-color="#E7E7E7"/><stop offset="0.8942" stop-color="#F9F9F9"/><stop offset="1" stop-color="#FFFFFF"/></radialGradient><radialGradient cx="400.999" cy="-1527.86" r="40.969" gradientUnits="userSpaceOnUse" id="SVGID_2_" gradientTransform="matrix(0.6907 0.1111 0.031 0.0663 -199.179 127.521)"><stop offset="0" stop-color="#333333"/><stop offset="0.1983" stop-color="#6E6E6E"/><stop offset="0.3965" stop-color="#A2A2A2"/><stop offset="0.5814" stop-color="#CACACA"/><stop offset="0.7492" stop-color="#E7E7E7"/><stop offset="0.8942" stop-color="#F9F9F9"/><stop offset="1" stop-color="#FFFFFF"/></radialGradient><path d="M74.12 53.7C74.66 54.95 71.19 61.16 66.36 67.57 61.53 73.97 57.18 78.16 56.63 76.9 56.09 75.65 59.56 69.44 64.39 63.03 69.23 56.63 73.58 52.44 74.12 53.7Z" fill="url(#SVGID_1_)"/><path d="M58.73 75.33C59.43 76.83 47.32 76.01 31.7 73.49 16.07 70.97 2.83 67.72 2.12 66.22 1.42 64.72 13.52 65.54 29.15 68.06 44.79 70.58 58.03 73.83 58.73 75.33Z" fill="url(#SVGID_2_)"/><g><g><g><path d="M59.35 13.37 76.64 3.16 74.48 54.65 57.92 75.95Z" fill="#F54F1E"/></g><g><path d="M0 8.58 26.9 0 76.64 3.16 59.35 13.37Z" fill="#FF6030"/></g><g><path d="M59.35 13.37 57.92 75.95 2.53 66.17 0 8.58Z" fill="#DE471A"/></g></g></g><g><g><g><linearGradient x1="29.5702" y1="59.1953" x2="29.5702" y2="22.8877" gradientUnits="userSpaceOnUse" id="SVGID_3_"><stop offset="0" stop-color="#666666"/><stop offset="0.272" stop-color="#626262"/><stop offset="0.5626" stop-color="#555555"/><stop offset="0.861" stop-color="#404040"/><stop offset="1" stop-color="#333333"/></linearGradient><path d="M35.79 24 26.29 22.89 14.85 42.3 14.84 49.22 32.41 51.28 32.4 58.2 40.95 59.2 40.96 52.28 44.28 52.67 44.29 45.75 40.96 45.36 40.97 37.95 32.42 36.95 32.41 44.36 24.34 43.42 35.79 24" fill="url(#SVGID_3_)"/></g></g></g></svg>