<svg width="47.15" height="85.54" viewBox="0 0 47.15 85.54" xmlns="http://www.w3.org/2000/svg" xmlns:xlink="http://www.w3.org/1999/xlink" xml:space="preserve" overflow="hidden"><defs></defs><g><g><g><g><g><path d="M27.34 79.97C23.69 80.36 21.9 78.78 21.22 77.3 21.34 79.16 23.4 80.43 25.75 80.6 28 80.76 30.12 79.94 30.12 79.94 30.12 79.94 30.51 79.63 31.32 79.37 31.32 79.37 31.53 79.29 31.87 79.15 30.62 79.47 29.1 79.78 27.34 79.97Z" fill="#F7F7F7"/><path d="M27.29 79.94C24.98 80.17 22.36 79.61 21.3 77.31 21.29 77.28 21.15 77.25 21.15 77.29 21.34 79.69 24.19 80.6 26.22 80.66 27.45 80.69 28.7 80.46 29.86 80.09 30.04 80.03 30.18 79.98 30.34 79.87 30.83 79.56 31.4 79.4 31.93 79.18 31.99 79.16 31.85 79.11 31.82 79.12 30.33 79.5 28.81 79.77 27.29 79.94 27.21 79.95 27.35 80.01 27.39 80.01 28.92 79.84 30.43 79.58 31.92 79.19 31.88 79.17 31.85 79.15 31.81 79.13 31.37 79.31 30.9 79.46 30.47 79.68 30.31 79.76 30.15 79.89 29.99 79.95 29.11 80.27 28.17 80.46 27.24 80.55 25.05 80.77 21.52 80.06 21.3 77.32 21.25 77.31 21.2 77.3 21.15 77.3 22.25 79.68 25 80.25 27.39 80.01 27.46 79.99 27.32 79.93 27.29 79.94Z" fill="#BCC8CE"/></g><g><g><path d="M23.69 74.6C23.01 74.75 21.67 75.18 21.34 76.29 21.23 76.65 21.2 76.98 21.22 77.31 21.89 78.79 23.68 80.36 27.33 79.98 27.01 75 23.69 74.6 23.69 74.6Z" fill="#F7F7F7"/><path d="M23.63 74.56C22.78 74.75 21.88 75.12 21.42 75.91 21.18 76.31 21.01 77.03 21.23 77.46 21.39 77.79 21.61 78.09 21.85 78.37 23.22 79.92 25.43 80.21 27.37 80.02 27.38 80.02 27.4 80.02 27.4 80 27.28 78.29 26.77 76.52 25.4 75.39 24.92 74.99 24.29 74.65 23.66 74.57 23.56 74.56 23.67 74.64 23.71 74.65 24.22 74.72 24.71 74.99 25.12 75.28 26.23 76.08 26.82 77.39 27.09 78.7 27.14 78.92 27.17 79.14 27.2 79.37 27.23 79.62 27.35 79.95 27.01 79.98 26.44 80.03 25.86 80.02 25.29 79.96 24.4 79.86 23.53 79.58 22.78 79.08 22.24 78.72 21.79 78.23 21.47 77.67 21 76.87 21.5 75.82 22.19 75.31 22.64 74.97 23.21 74.78 23.76 74.66 23.8 74.62 23.67 74.55 23.63 74.56Z" fill="#BCC8CE"/></g><g><path d="M35.33 76.44C35.3 76.43 35.27 76.42 35.24 76.41 34.53 76.15 34.83 75.29 34.83 75.29 32.08 76.82 27.64 75.34 26.36 73.81 26.31 73.75 26.26 73.69 26.23 73.63 25.67 73.97 24.68 74.26 24.09 74.53 24.09 74.53 23.93 74.55 23.68 74.6 23.68 74.6 27 75 27.32 79.97 27.32 79.97 27.33 79.97 27.33 79.97 29.09 79.78 30.62 79.48 31.86 79.15 32.5 78.88 33.57 78.4 34.45 77.84 35.24 77.33 35.42 77.18 35.42 77.18 35.42 77.18 35.28 76.82 35.33 76.44Z" fill="#96592F"/><path d="M35.37 76.42C34.86 76.26 34.75 75.76 34.91 75.3 34.92 75.26 34.79 75.26 34.77 75.27 33.29 76.07 31.51 76.02 29.91 75.64 28.65 75.34 27.07 74.75 26.3 73.63 26.28 73.6 26.2 73.59 26.16 73.61 25.71 73.87 25.21 74.04 24.73 74.23 24.36 74.37 24.02 74.5 23.63 74.58 23.56 74.59 23.66 74.63 23.68 74.64 24.28 74.72 24.9 75.09 25.36 75.48 26.66 76.58 27.13 78.34 27.25 79.98 27.25 80.02 27.33 80.02 27.36 80.02 28.23 79.95 29.1 79.8 29.95 79.64 30.65 79.51 31.43 79.4 32.09 79.13 33.26 78.63 34.5 78.05 35.49 77.22 35.49 77.22 35.49 77.21 35.49 77.2 35.4 76.96 35.38 76.72 35.4 76.47 35.4 76.43 35.25 76.41 35.25 76.45 35.25 76.5 35.34 77.19 35.34 77.18 35.22 77.28 35.09 77.36 34.96 77.45 34.19 77.97 33.39 78.42 32.55 78.81 31.8 79.16 31.03 79.34 30.23 79.5 29.26 79.7 28.27 79.87 27.28 79.95 27.32 79.96 27.35 79.98 27.39 79.99 27.26 78.08 26.61 76.05 24.87 75.02 24.54 74.82 24.16 74.67 23.78 74.59 23.75 74.58 23.72 74.58 23.68 74.57 23.94 74.61 24.09 74.57 24.32 74.47 24.97 74.19 25.67 74.01 26.28 73.65 26.23 73.64 26.19 73.64 26.14 73.63 26.96 74.81 28.62 75.39 29.95 75.71 31.56 76.1 33.39 76.11 34.88 75.31 34.83 75.3 34.79 75.29 34.74 75.28 34.57 75.79 34.74 76.29 35.27 76.46 35.33 76.48 35.46 76.45 35.37 76.42Z" fill="#6D3A17"/></g></g><g><g><path d="M27.07 76.73C27.38 77.65 28.16 77.21 27.73 76.19 27.33 75.23 26.34 74.36 25.06 74.15 24.82 74.24 24.57 74.33 24.33 74.4 24.93 74.51 26.47 74.96 27.07 76.73Z" fill="#F7F7F7"/><path d="M26.99 76.73C27.08 76.98 27.35 77.41 27.69 77.22 28.18 76.95 27.81 76.16 27.62 75.82 27.28 75.22 26.72 74.75 26.11 74.44 25.82 74.29 25.5 74.19 25.19 74.13 24.87 74.08 24.56 74.27 24.26 74.37 24.2 74.39 24.27 74.42 24.29 74.42 25.57 74.67 26.56 75.52 26.99 76.73 27 76.77 27.15 76.76 27.14 76.72 26.71 75.5 25.7 74.64 24.43 74.39 24.32 74.37 24.59 74.36 24.62 74.35 24.74 74.31 24.87 74.26 24.99 74.22 25.25 74.13 25.67 74.34 25.91 74.44 26.41 74.65 26.84 75.01 27.19 75.42 27.47 75.76 27.71 76.18 27.77 76.62 27.8 76.79 27.77 76.97 27.68 77.11 27.47 77.44 27.2 76.88 27.14 76.73 27.13 76.68 26.98 76.69 26.99 76.73Z" fill="#BCC8CE"/></g><g><path d="M29.12 75.56C28.73 74.61 27.74 73.74 26.48 73.53 26.36 73.59 26.16 73.68 25.87 73.81 26.55 73.96 27.9 74.47 28.46 76.1 28.77 77.02 29.55 76.59 29.12 75.56Z" fill="#F7F7F7"/><path d="M29.2 75.56C28.91 74.88 28.38 74.3 27.73 73.94 27.38 73.75 27.01 73.6 26.62 73.52 26.33 73.47 26.08 73.67 25.82 73.78 25.78 73.8 25.8 73.82 25.83 73.83 26.99 74.1 27.91 74.87 28.34 75.99 28.46 76.29 28.62 76.7 29.01 76.63 29.48 76.54 29.31 75.84 29.2 75.56 29.19 75.52 29.03 75.53 29.05 75.57 29.12 75.77 29.17 75.96 29.17 76.17 29.17 76.35 29.05 76.69 28.8 76.53 28.63 76.42 28.56 76.17 28.5 75.99 28.42 75.78 28.32 75.57 28.2 75.38 27.86 74.8 27.32 74.36 26.71 74.07 26.49 73.96 26.25 73.89 26.01 73.82 25.89 73.79 26.1 73.76 26.15 73.74 26.21 73.71 26.28 73.68 26.34 73.65 26.59 73.53 26.85 73.65 27.1 73.74 27.96 74.05 28.68 74.74 29.04 75.57 29.07 75.61 29.22 75.6 29.2 75.56Z" fill="#BCC8CE"/></g></g></g><g opacity="0.8"><path d="M23.69 74.6C23.01 74.75 21.67 75.18 21.34 76.29 21.23 76.65 21.2 76.98 21.22 77.31 21.89 78.79 23.68 80.36 27.33 79.98 27.01 75 23.69 74.6 23.69 74.6ZM24.49 78.86C21.81 78.77 21.37 76.81 21.58 76.33 22.27 74.74 24.22 74.27 25.29 75.69 26.37 77.11 27.17 78.95 24.49 78.86Z" fill="#BCC8CE"/></g><g opacity="0.5"><path d="M35.33 76.44C35.3 76.43 35.27 76.42 35.24 76.41 34.53 76.15 34.83 75.29 34.83 75.29 32.08 76.82 27.64 75.34 26.36 73.81 26.31 73.75 26.26 73.69 26.23 73.63 26 73.77 25.7 73.9 25.39 74.02 26.77 74.52 28.09 75.27 28.99 76.33 30.26 77.82 28.18 79.59 27.43 77.81 26.78 76.25 25.92 75.22 24.24 74.46 24.19 74.48 24.13 74.51 24.08 74.53 24.08 74.53 23.92 74.55 23.67 74.6 23.67 74.6 26.99 75 27.31 79.97 27.31 79.97 27.32 79.97 27.32 79.97 29.08 79.78 30.61 79.48 31.85 79.15 32.49 78.88 33.56 78.4 34.44 77.84 35.23 77.33 35.41 77.18 35.41 77.18 35.41 77.18 35.28 76.82 35.33 76.44Z" fill="#96592F"/></g></g><g><g><path d="M44.22 61.06C46.67 47.13 43.08 45.55 43.08 45.55 43.08 45.55 41.97 50.52 33.86 51.57 32.47 51.75 31.34 51.82 30.42 51.83 30.42 51.83 29.02 51.86 27.43 51.52 27.43 51.52 25.34 56.42 26.04 63.51 26.28 65.96 25.64 69.79 26.46 72.28 26.46 72.28 25.57 72.86 26.36 73.81 27.63 75.34 32.07 76.82 34.83 75.29 34.83 75.29 34.52 76.16 35.24 76.41 35.95 76.67 37.12 76.43 39.98 78.2 41.31 79.02 47.29 79.96 46.87 76.82 46.51 74.17 46.41 73.86 46.36 72.79 46.31 71.72 46.05 66.87 44.73 64.47 44.73 64.47 45.14 62.49 44.22 61.06Z" fill="#133467"/><path d="M44.3 61.05C44.91 57.57 45.39 53.95 45.06 50.41 44.93 48.99 44.67 47.42 43.85 46.22 43.68 45.97 43.44 45.66 43.16 45.53 43.13 45.52 43.03 45.51 43.02 45.56 42.77 46.68 41.93 47.73 41.13 48.5 38.57 50.96 34.82 51.59 31.41 51.78 30.1 51.85 28.79 51.77 27.5 51.5 27.47 51.49 27.39 51.49 27.38 51.53 26.58 53.4 26.23 55.52 26.01 57.53 25.78 59.67 25.88 61.78 26.02 63.92 26.15 65.87 25.91 67.83 26 69.78 26.03 70.49 26.12 71.21 26.29 71.9 26.34 72.08 26.48 72.23 26.33 72.35 26.2 72.46 26.1 72.61 26.03 72.77 25.62 73.73 27.1 74.58 27.77 74.93 29.86 76.03 32.75 76.48 34.91 75.32 34.87 75.32 34.82 75.31 34.78 75.31 34.64 75.73 34.71 76.19 35.11 76.42 35.41 76.59 35.83 76.59 36.15 76.65 36.78 76.76 37.38 76.96 37.97 77.2 38.74 77.53 39.43 78.01 40.18 78.37 41.11 78.8 42.2 78.96 43.21 79.03 44.21 79.1 45.37 79.06 46.24 78.5 47.39 77.76 46.89 76.26 46.73 75.16 46.59 74.21 46.48 73.27 46.43 72.31 46.35 70.86 46.19 69.41 45.93 67.97 45.78 67.15 45.58 66.33 45.3 65.54 45.19 65.23 45.06 64.92 44.91 64.62 44.82 64.44 44.86 64.34 44.89 64.13 44.98 63.07 44.85 61.95 44.3 61.05 44.27 61.01 44.13 61.04 44.15 61.08 44.64 61.87 44.78 62.8 44.74 63.72 44.73 63.95 44.71 64.19 44.67 64.42 44.63 64.64 44.87 64.92 44.96 65.12 45.61 66.64 45.87 68.34 46.06 69.98 46.19 71.09 46.23 72.2 46.32 73.31 46.36 73.79 46.43 74.27 46.5 74.75 46.62 75.56 46.84 76.42 46.81 77.24 46.77 78.51 45.38 78.88 44.35 78.96 43.17 79.05 41.93 78.87 40.8 78.51 40.18 78.31 39.66 77.94 39.09 77.64 38.41 77.27 37.7 76.96 36.95 76.75 36.52 76.63 36.08 76.57 35.64 76.49 35.41 76.45 35.19 76.39 35.02 76.23 34.8 76.02 34.81 75.65 34.88 75.38 34.89 75.36 34.89 75.33 34.9 75.31 34.92 75.26 34.79 75.29 34.77 75.3 32.94 76.29 30.63 76 28.76 75.29 28.01 75 27.26 74.62 26.66 74.06 26.16 73.6 25.82 72.78 26.51 72.32 26.52 72.32 26.53 72.31 26.53 72.3 25.94 70.44 26.09 68.41 26.14 66.49 26.17 65.57 26.2 64.64 26.13 63.72 26.05 62.59 25.96 61.47 25.97 60.33 25.99 57.48 26.39 54.53 27.38 51.85 27.42 51.75 27.45 51.65 27.5 51.55 27.46 51.56 27.42 51.57 27.37 51.58 28.93 51.91 30.49 51.95 32.08 51.82 34.01 51.67 35.93 51.38 37.75 50.68 39.77 49.91 41.66 48.57 42.71 46.64 42.89 46.31 43.06 45.95 43.15 45.58 43.1 45.59 43.06 45.6 43.01 45.61 43.43 45.8 43.73 46.33 43.94 46.71 44.78 48.29 44.93 50.24 44.98 51.99 45.06 55.04 44.66 58.11 44.13 61.11 44.14 61.1 44.29 61.1 44.3 61.05Z" fill="#0A2449"/></g><g><path d="M35.14 76.33C34.63 75.76 34.99 75.07 35.49 74.63 35.58 74.55 35.53 74.03 35.53 73.92 35.59 72.37 35.58 70.82 35.5 69.27 35.3 65.59 34.25 62 33.63 58.38 33.51 57.67 33.38 56.95 33.36 56.23 33.36 56.18 33.21 56.16 33.21 56.19 33.25 57.61 33.59 59.05 33.86 60.44 34.23 62.33 34.63 64.21 34.99 66.09 35.34 67.89 35.4 69.76 35.41 71.59 35.42 72.58 35.4 73.58 35.34 74.57 35.34 74.6 35.18 74.73 35.15 74.76 35.03 74.89 34.94 75.03 34.86 75.18 34.64 75.58 34.7 75.99 35 76.32 35.03 76.35 35.17 76.37 35.14 76.33L35.14 76.33Z" fill="#0A2449"/><path d="M30.84 54.42C30.84 54.42 30.93 54.44 31.08 54.47 31.23 54.5 31.45 54.54 31.71 54.6 31.97 54.67 32.27 54.74 32.6 54.83 32.68 54.85 32.76 54.87 32.85 54.9L32.91 54.92 32.94 54.93 32.96 54.93 32.96 54.93 32.96 54.93C32.97 54.93 32.95 54.93 32.97 54.94L32.98 54.94 33.04 54.97C33.06 54.98 33.08 55.01 33.1 55.03 33.18 55.12 33.21 55.21 33.23 55.3 33.25 55.39 33.27 55.48 33.28 55.57 33.32 55.93 33.34 56.28 33.37 56.62 33.4 56.95 33.42 57.26 33.45 57.53 33.46 57.66 33.48 57.78 33.49 57.89 33.5 58 33.51 58.09 33.52 58.17 33.54 58.33 33.55 58.41 33.55 58.41 33.55 58.41 33.53 58.32 33.49 58.17 33.47 58.09 33.45 58 33.43 57.89 33.41 57.78 33.38 57.66 33.36 57.53 33.32 57.27 33.27 56.96 33.23 56.62 33.19 56.29 33.17 55.93 33.12 55.58 33.11 55.49 33.1 55.41 33.07 55.33 33.05 55.25 33.02 55.17 32.98 55.12 32.97 55.11 32.97 55.1 32.95 55.09L32.89 55.06 32.78 55.03C32.7 55.01 32.62 54.98 32.54 54.96 32.22 54.86 31.93 54.77 31.67 54.69 31.41 54.62 31.2 54.55 31.05 54.5 30.93 54.45 30.84 54.42 30.84 54.42Z" fill="#0A2449"/><path d="M34.14 61.49C34.14 61.49 34.24 61.84 34.39 62.35 34.46 62.61 34.56 62.91 34.65 63.23 34.7 63.39 34.75 63.56 34.8 63.73 34.85 63.9 34.9 64.07 34.96 64.24 35.01 64.41 35.07 64.58 35.12 64.75 35.17 64.92 35.22 65.09 35.28 65.24 35.39 65.56 35.48 65.86 35.58 66.11 35.68 66.36 35.75 66.58 35.8 66.72 35.85 66.87 35.88 66.95 35.88 66.95 35.88 66.95 35.84 66.87 35.77 66.73 35.7 66.59 35.61 66.38 35.5 66.14 35.44 66.02 35.39 65.88 35.33 65.74 35.27 65.6 35.21 65.44 35.15 65.29 35.02 64.98 34.92 64.63 34.81 64.29 34.75 64.12 34.71 63.94 34.66 63.77 34.61 63.6 34.56 63.43 34.52 63.27 34.44 62.94 34.36 62.64 34.3 62.37 34.2 61.85 34.14 61.49 34.14 61.49Z" fill="#0A2449"/><path d="M27.33 72.84C27.33 72.84 27.39 72.89 27.5 72.96 27.55 73 27.62 73.04 27.7 73.09 27.78 73.14 27.87 73.19 27.97 73.24 28.07 73.29 28.18 73.35 28.3 73.4 28.42 73.46 28.54 73.5 28.67 73.56 28.8 73.61 28.94 73.65 29.08 73.7 29.22 73.74 29.36 73.79 29.51 73.82 29.66 73.85 29.8 73.9 29.94 73.92 30.08 73.94 30.23 73.98 30.36 74 30.5 74.02 30.63 74.04 30.76 74.06 30.89 74.07 31.01 74.08 31.12 74.09 31.23 74.1 31.34 74.11 31.43 74.12 31.52 74.13 31.6 74.13 31.67 74.13 31.8 74.14 31.88 74.15 31.88 74.15 31.88 74.15 31.8 74.16 31.67 74.16 31.6 74.16 31.52 74.17 31.43 74.17 31.34 74.18 31.23 74.18 31.12 74.17 31.01 74.17 30.88 74.16 30.75 74.16 30.62 74.15 30.48 74.14 30.34 74.12 30.2 74.11 30.05 74.08 29.91 74.05 29.76 74.03 29.61 73.99 29.47 73.95 29.32 73.91 29.18 73.86 29.03 73.82 28.89 73.77 28.75 73.72 28.62 73.66 28.49 73.6 28.36 73.54 28.25 73.48 28.13 73.42 28.03 73.35 27.93 73.3 27.83 73.24 27.75 73.18 27.68 73.12 27.61 73.06 27.55 73.01 27.49 72.97 27.38 72.9 27.33 72.84 27.33 72.84Z" fill="#0A2449"/><path d="M36.97 75.07C36.97 75.07 37.07 75.11 37.25 75.18 37.43 75.25 37.68 75.35 37.99 75.47 38.3 75.59 38.66 75.72 39.04 75.87 39.23 75.95 39.43 76.02 39.63 76.1 39.73 76.14 39.83 76.18 39.93 76.22L40 76.25C40.02 76.26 40.05 76.27 40.07 76.27L40.23 76.32C40.33 76.35 40.44 76.39 40.54 76.42 40.59 76.44 40.64 76.46 40.69 76.47L40.85 76.51C40.95 76.53 41.06 76.56 41.16 76.58 41.26 76.61 41.36 76.63 41.46 76.64 41.66 76.67 41.85 76.71 42.04 76.73 42.23 76.75 42.4 76.77 42.57 76.78 42.73 76.79 42.88 76.79 43.02 76.8 43.15 76.8 43.27 76.8 43.36 76.8 43.46 76.8 43.53 76.8 43.58 76.8 43.63 76.8 43.66 76.8 43.66 76.8 43.66 76.8 43.55 76.82 43.36 76.84 43.26 76.85 43.15 76.85 43.01 76.86 42.88 76.87 42.73 76.87 42.56 76.87 42.39 76.87 42.22 76.86 42.03 76.85 41.84 76.84 41.64 76.81 41.44 76.78 41.34 76.77 41.23 76.75 41.13 76.72 41.03 76.7 40.92 76.67 40.81 76.65L40.65 76.62C40.6 76.61 40.55 76.59 40.49 76.57 40.39 76.54 40.28 76.5 40.18 76.47L40.02 76.42C39.99 76.41 39.97 76.4 39.94 76.39L39.86 76.36C39.76 76.32 39.66 76.28 39.56 76.23 39.36 76.15 39.16 76.06 38.98 75.99 38.6 75.83 38.25 75.67 37.95 75.54 37.65 75.41 37.41 75.28 37.23 75.2 37.07 75.12 36.97 75.07 36.97 75.07Z" fill="#0A2449"/><path d="M26.05 63.07C26.05 63.07 26.06 63.18 26.09 63.38 26.11 63.58 26.16 63.86 26.21 64.2 26.24 64.37 26.26 64.55 26.3 64.74 26.33 64.93 26.37 65.13 26.41 65.34 26.45 65.55 26.49 65.76 26.54 65.98 26.59 66.2 26.64 66.42 26.69 66.64 26.75 66.86 26.8 67.08 26.85 67.3 26.91 67.51 26.96 67.73 27.03 67.93 27.1 68.13 27.15 68.33 27.22 68.51 27.29 68.69 27.34 68.87 27.41 69.03 27.48 69.19 27.53 69.33 27.58 69.46 27.63 69.59 27.69 69.7 27.73 69.79 27.81 69.97 27.86 70.07 27.86 70.07 27.86 70.07 27.8 69.97 27.7 69.8 27.65 69.71 27.59 69.61 27.53 69.48 27.47 69.36 27.4 69.21 27.33 69.06 27.26 68.9 27.19 68.73 27.12 68.55 27.04 68.37 26.98 68.17 26.91 67.97 26.84 67.77 26.78 67.55 26.72 67.34 26.66 67.12 26.6 66.9 26.55 66.68 26.5 66.46 26.45 66.23 26.41 66.01 26.37 65.79 26.33 65.57 26.29 65.36 26.25 65.15 26.23 64.94 26.2 64.75 26.17 64.56 26.16 64.37 26.14 64.2 26.05 63.53 26.05 63.07 26.05 63.07Z" fill="#0A2449"/><path d="M33.93 60.43C33.93 60.43 33.95 60.54 33.98 60.74 34.01 60.94 34.04 61.22 34.07 61.56 34.1 61.9 34.13 62.3 34.14 62.73 34.14 62.94 34.15 63.17 34.15 63.39 34.15 63.62 34.15 63.84 34.13 64.07 34.12 64.3 34.1 64.53 34.08 64.75 34.06 64.98 34.03 65.2 34 65.41 33.98 65.62 33.92 65.83 33.89 66.02 33.85 66.21 33.79 66.39 33.75 66.56 33.71 66.73 33.64 66.87 33.59 67 33.56 67.06 33.54 67.13 33.52 67.18 33.49 67.23 33.47 67.28 33.44 67.33 33.34 67.51 33.29 67.61 33.29 67.61 33.29 67.61 33.33 67.5 33.41 67.32 33.43 67.27 33.45 67.22 33.48 67.17 33.5 67.11 33.52 67.05 33.54 66.98 33.56 66.91 33.58 66.84 33.6 66.77 33.62 66.7 33.65 66.62 33.66 66.53 33.69 66.36 33.75 66.19 33.78 65.99 33.81 65.8 33.85 65.6 33.87 65.38 33.89 65.17 33.93 64.95 33.94 64.73 33.96 64.51 33.97 64.28 33.98 64.05 33.99 63.82 34 63.6 34.01 63.37 34.02 63.15 34.01 62.93 34.01 62.71 34.01 62.5 34.01 62.29 34 62.09 33.99 61.89 33.99 61.71 33.98 61.54 33.96 61.2 33.96 60.91 33.94 60.71 33.94 60.55 33.93 60.43 33.93 60.43Z" fill="#0A2449"/><path d="M35.89 54.42C35.89 54.42 35.97 54.35 36.14 54.24 36.3 54.13 36.54 53.99 36.85 53.85 37.16 53.72 37.52 53.57 37.93 53.48 38.14 53.43 38.34 53.38 38.57 53.37 38.68 53.37 38.8 53.37 38.92 53.41 38.98 53.43 39.04 53.45 39.09 53.5 39.14 53.54 39.19 53.61 39.2 53.68 39.22 53.83 39.15 53.95 39.08 54.04 39.01 54.13 38.92 54.21 38.83 54.28 38.65 54.42 38.46 54.52 38.29 54.64 38.12 54.75 37.95 54.86 37.8 54.97 37.65 55.08 37.51 55.2 37.41 55.32 37.36 55.38 37.32 55.45 37.3 55.51 37.29 55.57 37.32 55.63 37.37 55.66 37.48 55.73 37.6 55.74 37.69 55.75 37.79 55.76 37.86 55.76 37.91 55.77 37.96 55.77 37.99 55.77 37.99 55.77 37.99 55.77 37.96 55.77 37.91 55.78 37.86 55.78 37.78 55.79 37.68 55.78 37.58 55.77 37.46 55.77 37.33 55.7 37.3 55.68 37.27 55.66 37.24 55.62 37.22 55.58 37.21 55.54 37.22 55.49 37.23 55.4 37.28 55.33 37.33 55.26 37.44 55.12 37.57 55 37.72 54.88 37.87 54.76 38.03 54.64 38.21 54.52 38.38 54.4 38.57 54.3 38.73 54.16 38.81 54.09 38.89 54.02 38.95 53.94 39.01 53.86 39.06 53.77 39.04 53.69 39.03 53.62 38.95 53.56 38.86 53.54 38.77 53.51 38.66 53.5 38.56 53.5 38.36 53.5 38.14 53.56 37.94 53.6 37.84 53.62 37.74 53.65 37.65 53.67 37.55 53.69 37.46 53.72 37.37 53.75 37.19 53.8 37.02 53.86 36.87 53.92 36.56 54.04 36.31 54.16 36.15 54.25 35.98 54.36 35.89 54.42 35.89 54.42Z" fill="#0A2449"/></g><g opacity="0.4"><path d="M46.87 76.82C46.51 74.17 46.41 73.86 46.36 72.79 46.31 71.72 46.05 66.87 44.73 64.47 44.73 64.47 45.14 62.48 44.22 61.05 46.67 47.12 43.08 45.54 43.08 45.54 43.08 45.54 41.97 50.51 33.86 51.56 32.47 51.74 31.34 51.81 30.42 51.82 30.42 51.82 29.02 51.85 27.43 51.51 27.43 51.51 25.34 56.41 26.04 63.5 26.28 65.95 25.64 69.78 26.46 72.27 26.46 72.27 25.57 72.85 26.36 73.8 27.63 75.33 32.07 76.81 34.83 75.28 34.83 75.28 34.52 76.15 35.24 76.4 35.95 76.66 37.12 76.42 39.98 78.19 41.31 79.01 47.3 79.96 46.87 76.82ZM40.02 75.07C34.65 73.93 35.55 66.92 36.11 67.62 36.67 68.32 37.74 69.16 37.15 67.94 33.03 59.48 35.04 55.03 33.29 54.83 31.54 54.63 30.25 54.42 30.25 54.42 31.42 55.03 34.76 63.42 32.21 68.96 31.83 69.78 32.61 69.22 33.29 68.25 33.97 67.28 35.81 73.09 31.27 73.63 26.73 74.17 26.76 69.07 27.87 70.29 28.98 71.51 26.37 66.7 26.32 60.81 26.24 51.84 30.67 52.72 32.44 52.32 37.18 51.23 41.88 51.27 42.75 59.99 43.23 64.8 41.79 66.98 41.6 67.26 41.8 66.99 43.38 64.89 43.67 65.66 44.12 66.86 43.67 67.64 43.67 67.64 44.99 66.34 45.39 76.21 40.02 75.07Z" fill="#495668"/></g><g><path d="M46.87 76.82C46.51 74.17 46.41 73.86 46.36 72.79 46.31 71.72 46.05 66.87 44.73 64.47 44.73 64.47 45.14 62.48 44.22 61.05 46.67 47.12 43.08 45.54 43.08 45.54 43.08 45.54 42.61 47.66 40.02 49.42 40.27 50.19 40.75 51.26 41.62 51.66 43.36 52.45 43.56 51.92 43.97 52.17 43.97 52.17 43.67 63.12 42.62 65.78 42.62 65.78 44.06 64.32 43.91 66.56 43.91 66.56 45 67.06 44.84 72.11 44.68 77.02 45.5 78.38 44.66 78.93 46.01 78.79 47.06 78.2 46.87 76.82Z" fill="#C60000"/><path d="M46.95 76.84C46.78 75.56 46.53 74.28 46.45 72.98 46.38 71.78 46.3 70.58 46.14 69.39 45.92 67.78 45.63 66.1 44.89 64.64 44.8 64.46 44.83 64.4 44.85 64.21 44.89 63.9 44.9 63.58 44.89 63.27 44.88 62.85 44.82 62.43 44.71 62.02 44.65 61.8 44.56 61.59 44.47 61.38 44.32 61.06 44.34 60.85 44.4 60.5 44.97 57.14 45.39 53.64 45.04 50.23 44.9 48.86 44.63 47.34 43.81 46.18 43.64 45.94 43.41 45.65 43.13 45.52 43.12 45.51 43.04 45.48 43.03 45.52 42.66 47.13 41.27 48.5 39.97 49.4 39.96 49.4 39.96 49.41 39.96 49.42 40.21 50.18 40.57 50.95 41.21 51.46 41.72 51.87 42.51 52.11 43.16 52.16 43.27 52.17 43.9 52.09 43.9 52.2 43.89 52.42 43.89 52.64 43.88 52.85 43.79 55.27 43.66 57.7 43.46 60.12 43.36 61.22 43.25 62.32 43.09 63.42 42.97 64.21 42.85 65.02 42.56 65.77 42.54 65.81 42.67 65.85 42.7 65.83 42.84 65.69 43.01 65.56 43.19 65.46 43.89 65.08 43.88 66.12 43.85 66.55 43.85 66.57 43.88 66.59 43.89 66.6 44.12 66.71 44.3 67.23 44.39 67.49 44.87 68.94 44.83 70.6 44.78 72.11 44.73 73.76 44.8 75.39 44.94 77.03 44.99 77.61 45.18 78.53 44.61 78.92 44.57 78.95 44.7 78.99 44.72 78.99 45.93 78.83 47.11 78.26 46.95 76.84 46.95 76.8 46.8 76.76 46.81 76.81 46.97 78.19 45.82 78.77 44.62 78.92 44.66 78.94 44.69 78.97 44.73 78.99 45.27 78.62 45.13 77.81 45.09 77.26 44.96 75.51 44.87 73.77 44.92 72.02 44.96 70.54 44.98 68.96 44.52 67.53 44.42 67.22 44.27 66.76 43.96 66.58 43.91 66.55 43.99 66.43 43.99 66.37 43.99 66.12 43.98 65.88 43.89 65.65 43.83 65.48 43.68 65.34 43.49 65.32 43.13 65.27 42.78 65.55 42.54 65.79 42.59 65.81 42.63 65.83 42.68 65.85 43.04 64.92 43.16 63.89 43.29 62.91 43.48 61.52 43.59 60.13 43.7 58.73 43.85 56.63 43.96 54.52 44.02 52.41 44.02 52.35 44.02 52.3 44.03 52.24 44.03 52.22 44.02 52.21 44 52.2 43.86 52.12 43.72 52.09 43.57 52.1 43.23 52.12 42.93 52.12 42.6 52.04 41.85 51.86 41.19 51.51 40.74 50.87 40.56 50.61 40.42 50.32 40.29 50.03 40.24 49.91 40.19 49.78 40.15 49.66 40.08 49.45 40.28 49.36 40.43 49.26 41.59 48.41 42.82 47.07 43.16 45.61 43.13 45.61 43.09 45.61 43.06 45.61 43.46 45.79 43.8 46.37 44 46.76 44.83 48.38 44.97 50.35 45.01 52.13 45.05 53.89 44.91 55.65 44.71 57.4 44.58 58.53 44.41 59.65 44.22 60.78 44.17 61.06 44.16 61.06 44.29 61.3 44.42 61.53 44.51 61.78 44.58 62.04 44.71 62.47 44.75 62.93 44.76 63.38 44.77 63.69 44.74 64 44.7 64.31 44.67 64.55 44.7 64.56 44.82 64.81 45.17 65.53 45.39 66.31 45.58 67.09 45.94 68.62 46.12 70.2 46.24 71.76 46.29 72.4 46.3 73.03 46.37 73.67 46.49 74.73 46.67 75.79 46.81 76.85 46.81 76.85 46.95 76.88 46.95 76.84Z" fill="#600000"/></g><g opacity="0.6"><path d="M46.36 72.79C46.31 71.72 46.05 66.87 44.73 64.47 44.73 64.47 44.98 63.27 44.66 62.07 44.4 61.83 44.23 61.5 44.23 61.06 44.23 61.06 44.23 61.05 44.22 61.05 44.22 61.04 44.22 61.03 44.23 61.02 44.23 61.01 44.23 61.01 44.23 61 44.14 60.8 44.09 60.58 44.08 60.32 43.99 57.49 44.57 54.68 44.45 51.86 44.42 51.17 44.5 50.79 43.9 50.46 43.4 50.19 42.72 50.25 42.18 49.94 41.61 49.61 41.18 49.22 40.88 48.77 40.63 48.99 40.34 49.21 40.03 49.42 40.28 50.19 40.76 51.26 41.63 51.66 43.37 52.45 43.57 51.92 43.98 52.17 43.98 52.17 43.68 63.12 42.63 65.78 42.63 65.78 44.07 64.32 43.92 66.56 43.92 66.56 45.01 67.06 44.85 72.11 44.69 77.02 45.51 78.38 44.67 78.93 46.02 78.77 47.07 78.18 46.89 76.8 46.52 74.17 46.42 73.86 46.36 72.79Z" fill="#C60000"/></g><path d="M44.58 58.81C44.58 58.81 44.56 59.32 44.45 60.09 44.42 60.28 44.39 60.49 44.35 60.7 44.31 60.92 44.27 61.15 44.22 61.38 44.17 61.62 44.11 61.86 44.06 62.11 44 62.36 43.93 62.6 43.87 62.85 43.8 63.1 43.72 63.34 43.64 63.58 43.55 63.82 43.47 64.06 43.38 64.28 43.29 64.5 43.2 64.72 43.1 64.92 43 65.12 42.91 65.31 42.82 65.48 42.72 65.65 42.63 65.8 42.55 65.94 42.47 66.08 42.39 66.18 42.32 66.28 42.19 66.46 42.12 66.57 42.12 66.57 42.12 66.57 42.19 66.46 42.3 66.27 42.35 66.17 42.43 66.06 42.5 65.92 42.57 65.78 42.65 65.62 42.74 65.45 42.82 65.28 42.9 65.09 42.99 64.88 43.08 64.68 43.15 64.46 43.24 64.24 43.33 64.02 43.4 63.78 43.48 63.54 43.56 63.3 43.63 63.05 43.7 62.81 43.77 62.56 43.84 62.32 43.9 62.07 43.96 61.83 44.02 61.59 44.07 61.35 44.12 61.12 44.17 60.89 44.22 60.67 44.27 60.46 44.3 60.25 44.34 60.06 44.41 59.68 44.47 59.37 44.5 59.14 44.56 58.94 44.58 58.81 44.58 58.81Z" fill="#600000"/><path d="M44.82 63.35C44.82 63.35 44.84 63.41 44.85 63.51 44.86 63.56 44.86 63.63 44.87 63.7 44.87 63.77 44.88 63.86 44.87 63.95 44.86 64.04 44.85 64.14 44.85 64.25 44.85 64.36 44.82 64.46 44.8 64.58 44.77 64.69 44.76 64.81 44.72 64.93 44.68 65.04 44.64 65.16 44.6 65.28 44.56 65.39 44.52 65.51 44.47 65.62 44.42 65.73 44.37 65.83 44.32 65.94 44.27 66.04 44.22 66.14 44.17 66.23 44.11 66.32 44.06 66.4 44.01 66.48 43.91 66.63 43.82 66.76 43.76 66.85 43.7 66.94 43.66 66.99 43.66 66.99 43.66 66.99 43.68 66.93 43.73 66.84 43.78 66.75 43.84 66.61 43.93 66.45 43.97 66.37 44.02 66.28 44.07 66.19 44.11 66.09 44.15 65.99 44.2 65.89 44.25 65.79 44.29 65.68 44.34 65.57 44.39 65.46 44.42 65.35 44.46 65.24 44.5 65.13 44.54 65.01 44.58 64.9 44.62 64.79 44.64 64.67 44.67 64.57 44.69 64.46 44.73 64.36 44.74 64.26 44.76 64.16 44.77 64.06 44.79 63.97 44.8 63.88 44.81 63.8 44.82 63.73 44.83 63.66 44.83 63.59 44.83 63.54 44.83 63.49 44.83 63.45 44.83 63.42 44.82 63.37 44.82 63.35 44.82 63.35Z" fill="#600000"/></g><g><g><path d="M42.66 43.71C42.38 43.38 42.19 43.43 42.09 43.53L41.97 43.71C41.97 43.71 42.33 48.51 31.3 50.65L30.42 51.83 30.42 51.84C30.42 51.84 30.42 51.84 30.43 51.83 31.35 51.82 32.48 51.75 33.87 51.57 41.98 50.52 43.09 45.55 43.09 45.55 43.09 45.55 43.16 44.29 42.66 43.71Z" fill="#FDBB30"/><path d="M42.73 43.72C42.61 43.59 42.44 43.41 42.24 43.42 42.12 43.43 41.9 43.54 41.91 43.7 41.91 43.75 41.91 43.8 41.91 43.86 41.89 44.23 41.78 44.6 41.63 44.94 40.9 46.67 39.18 47.83 37.57 48.64 36.12 49.36 34.55 49.86 32.98 50.25 32.5 50.37 32.02 50.47 31.54 50.57 31.24 50.63 31.25 50.63 31.08 50.86 30.92 51.07 30.76 51.28 30.6 51.5 30.55 51.56 30.35 51.76 30.36 51.84 30.37 51.88 30.48 51.91 30.51 51.88 30.54 51.84 31.03 51.87 31.11 51.87 31.34 51.86 31.56 51.85 31.79 51.84 32.36 51.8 32.92 51.75 33.49 51.68 34.48 51.57 35.46 51.4 36.42 51.13 37.85 50.74 39.23 50.13 40.43 49.26 41.61 48.39 42.7 47.15 43.15 45.72 43.18 45.63 43.19 45.57 43.19 45.47 43.17 44.87 43.11 44.19 42.73 43.72 42.7 43.69 42.56 43.66 42.59 43.71 43 44.22 43.15 45.14 42.93 45.77 42.74 46.34 42.43 46.86 42.09 47.35 40.46 49.63 37.71 50.8 35.04 51.33 34.13 51.51 33.21 51.61 32.29 51.69 31.89 51.73 31.5 51.75 31.1 51.77 30.97 51.78 30.41 51.71 30.34 51.81 30.39 51.82 30.44 51.84 30.49 51.85 30.48 51.77 30.77 51.48 30.82 51.41 30.99 51.18 31.16 50.96 31.33 50.73 31.42 50.61 31.64 50.63 31.78 50.6 32.05 50.55 32.31 50.49 32.58 50.43 33.11 50.31 33.64 50.17 34.16 50.02 35.68 49.59 37.18 49.02 38.56 48.23 39.95 47.42 41.34 46.27 41.88 44.7 41.96 44.46 42.02 44.21 42.05 43.96 42.08 43.69 42.12 43.2 42.61 43.71 42.62 43.73 42.77 43.76 42.73 43.72Z" fill="#BC6B00"/></g><g opacity="0.6"><path d="M38.41 48.56C39.59 47.78 40.37 46.8 40.38 46.8 38.97 48.17 36.31 49.68 31.31 50.65L30.43 51.83 30.43 51.84C30.43 51.84 30.43 51.84 30.44 51.83 31.36 51.82 32.49 51.75 33.88 51.57 37.16 51.15 39.29 50.08 40.67 48.97L40.65 48.96C38.92 49.76 37.23 49.34 38.41 48.56Z" fill="#FDBB30"/></g></g><g><g><g><g><path d="M3.96 45.58C2.95 45.63 2.5 45.74 2.64 46.27 2.82 46.92 3.98 47.01 4.84 47.09 5.37 47.14 5.69 47.35 5.69 47.35 5.38 47.57 4.9 47.79 4.18 48.12 2.42 48.95 0.04 49.98 0.05 50.4 0.06 50.82 0.78 50.91 2.05 50.62 3.33 50.33 5.08 49.52 5.08 49.52 5.08 49.52 2.28 51.43 1.22 52.22 0.21 52.97 1.23 53.91 2.7 53.03 3.82 52.36 6.08 50.71 6.08 50.71 4.87 51.83 2.19 54.25 2.92 54.58 3.65 54.92 4.28 54.36 5.37 53.28 6.45 52.2 7.01 51.66 7.01 51.66 7.01 51.66 5.17 54.95 5.65 55.34 6.13 55.74 7.03 54.84 7.34 54.08 7.65 53.32 8.1 52.17 8.1 52.17 8.1 52.17 9.24 51.91 10.16 51.14 11.75 49.82 11.13 48.56 11.13 48.56 11.13 48.56 11.62 48.22 12.08 47.79 11.69 47.64 11.09 47.27 10.29 46.4 9.81 45.88 9.47 45.46 9.24 45.13L8.55 45.7C7.68 45.04 5.54 45.5 3.96 45.58Z" fill="#FBD0B4"/><path d="M3.94 45.55C3.56 45.57 2.59 45.52 2.54 46.08 2.48 46.71 3.36 46.91 3.81 47 4.26 47.08 4.72 47.07 5.17 47.18 5.33 47.22 5.49 47.28 5.63 47.37 5.58 47.34 5.19 47.61 5.13 47.64 4.23 48.1 3.3 48.5 2.39 48.93 1.67 49.27 0.9 49.6 0.25 50.08-0.05 50.31-0.09 50.61 0.31 50.75 0.91 50.97 1.75 50.75 2.33 50.6 3.16 50.38 3.97 50.06 4.77 49.72 4.9 49.66 5.04 49.6 5.17 49.54 5.13 49.53 5.08 49.51 5.04 49.5 4.31 50 3.58 50.5 2.86 51 2.37 51.34 1.88 51.69 1.39 52.04 1.07 52.28 0.59 52.63 0.84 53.08 1.04 53.45 1.61 53.43 1.95 53.38 2.58 53.28 3.14 52.84 3.65 52.5 4.5 51.93 5.34 51.34 6.17 50.73 6.12 50.72 6.08 50.71 6.03 50.7 5.23 51.44 4.43 52.17 3.69 52.96 3.48 53.19 2.43 54.18 2.82 54.56 3.02 54.75 3.43 54.73 3.67 54.67 4.14 54.56 4.53 54.18 4.88 53.86 5.65 53.16 6.36 52.39 7.1 51.67 7.05 51.66 7 51.65 6.95 51.65 6.49 52.47 6.07 53.31 5.74 54.19 5.64 54.46 5.36 55.05 5.58 55.33 5.89 55.73 6.53 55.27 6.77 55.05 7.42 54.45 7.67 53.51 7.99 52.72 8.04 52.58 8.1 52.45 8.15 52.31 8.18 52.25 8.21 52.19 8.18 52.2 8.43 52.14 8.67 52.05 8.91 51.96 10.15 51.46 11.72 50.24 11.29 48.71 11.25 48.59 11.22 48.61 11.3 48.55 11.61 48.33 11.9 48.08 12.18 47.82 12.19 47.81 12.17 47.79 12.16 47.79 11.66 47.6 11.24 47.25 10.85 46.89 10.29 46.37 9.78 45.77 9.33 45.14 9.31 45.11 9.22 45.1 9.19 45.13 8.97 45.32 8.75 45.51 8.52 45.69 8.52 45.69 8.62 45.69 8.49 45.63 8.41 45.59 8.34 45.55 8.26 45.52 8.05 45.45 7.83 45.4 7.61 45.38 6.38 45.23 5.15 45.48 3.94 45.55 3.84 45.56 3.91 45.61 3.98 45.61 4.72 45.57 5.46 45.47 6.2 45.42 6.93 45.36 7.86 45.27 8.5 45.72 8.53 45.74 8.6 45.75 8.63 45.73 8.86 45.54 9.09 45.34 9.32 45.15 9.27 45.15 9.23 45.14 9.18 45.14 9.74 45.92 10.39 46.66 11.14 47.27 11.39 47.47 11.66 47.65 11.94 47.78 12.06 47.83 11.87 47.94 11.81 47.98 11.69 48.09 11.56 48.19 11.43 48.3 11.32 48.39 11.2 48.48 11.09 48.56 11.08 48.57 11.08 48.57 11.08 48.58 11.65 49.79 10.4 51.02 9.48 51.57 9.14 51.77 8.77 51.93 8.39 52.06 8.35 52.07 8.06 52.12 8.04 52.17 7.81 52.74 7.59 53.32 7.36 53.89 7.21 54.26 7.03 54.58 6.77 54.89 6.61 55.07 5.89 55.75 5.69 55.26 5.54 54.9 5.87 54.26 6 53.94 6.31 53.16 6.7 52.41 7.11 51.68 7.14 51.63 6.99 51.63 6.96 51.66 6.44 52.16 5.93 52.67 5.42 53.18 4.98 53.62 4.54 54.09 4.01 54.43 3.78 54.58 2.89 54.89 2.9 54.37 2.91 54.1 3.15 53.82 3.3 53.62 3.56 53.28 3.86 52.96 4.16 52.66 4.81 51.99 5.49 51.36 6.18 50.73 6.21 50.7 6.07 50.68 6.04 50.7 5.4 51.17 4.74 51.63 4.09 52.08 3.64 52.39 3.19 52.69 2.72 52.98 2.31 53.23 1.81 53.44 1.32 53.32 1.05 53.25 0.89 53.02 0.93 52.75 1 52.3 1.68 51.97 2.02 51.73 2.47 51.41 2.92 51.1 3.37 50.78 3.97 50.37 4.57 49.95 5.17 49.54 5.22 49.5 5.07 49.49 5.04 49.5 4.3 49.84 3.54 50.14 2.76 50.39 2.13 50.59 1.47 50.76 0.8 50.76 0.54 50.76-0.09 50.61 0.23 50.24 0.48 49.96 0.89 49.78 1.21 49.6 1.71 49.33 2.22 49.09 2.73 48.85 3.73 48.38 4.84 47.99 5.77 47.37 5.78 47.36 5.79 47.35 5.77 47.34 5.14 46.93 4.28 47.05 3.58 46.88 3.16 46.78 2.66 46.54 2.7 46.03 2.74 45.58 3.69 45.62 3.98 45.61 4.08 45.6 4 45.54 3.94 45.55Z" fill="#B56A4D"/></g><path d="M8.93 47.77C8.83 47.9 8.71 48.02 8.58 48.13 8.45 48.24 8.31 48.33 8.16 48.4 7.86 48.55 7.51 48.62 7.17 48.58 7.09 48.57 7 48.55 6.92 48.54 6.83 48.52 6.75 48.49 6.67 48.46 6.51 48.39 6.37 48.3 6.24 48.18 6.11 48.07 6 47.94 5.9 47.8 5.8 47.66 5.72 47.52 5.65 47.36L5.67 47.38C5.61 47.34 5.54 47.31 5.48 47.28 5.45 47.26 5.41 47.25 5.38 47.24 5.35 47.22 5.31 47.21 5.28 47.2 5.21 47.17 5.14 47.15 5.07 47.13 5 47.11 4.93 47.1 4.85 47.08 4.92 47.09 5 47.08 5.07 47.1 5.14 47.11 5.22 47.12 5.29 47.14 5.36 47.16 5.44 47.18 5.51 47.21 5.58 47.24 5.65 47.27 5.72 47.3L5.73 47.31 5.74 47.33C5.81 47.47 5.9 47.6 6 47.72 6.1 47.85 6.21 47.96 6.33 48.06 6.45 48.16 6.59 48.24 6.73 48.31 6.8 48.34 6.88 48.37 6.95 48.39 7.03 48.41 7.1 48.42 7.18 48.43 7.34 48.45 7.5 48.45 7.65 48.42 7.81 48.4 7.96 48.36 8.11 48.3 8.26 48.24 8.4 48.16 8.54 48.07 8.69 47.99 8.82 47.88 8.93 47.77Z" fill="#B56A4D"/><path d="M7.41 51.72C7.41 51.72 7.35 51.7 7.25 51.64 7.15 51.59 7.01 51.51 6.85 51.41 6.69 51.3 6.51 51.18 6.33 51.02 6.24 50.94 6.15 50.86 6.06 50.77 5.97 50.68 5.88 50.59 5.8 50.49 5.72 50.39 5.63 50.3 5.56 50.19 5.47 50.1 5.4 50 5.34 49.9 5.28 49.8 5.22 49.7 5.17 49.6 5.12 49.5 5.07 49.41 5.04 49.32 5.01 49.23 4.98 49.15 4.95 49.07 4.93 48.99 4.92 48.93 4.9 48.87 4.88 48.76 4.86 48.7 4.86 48.7 4.86 48.7 4.88 48.76 4.93 48.86 4.95 48.91 4.97 48.97 5 49.04 5.03 49.11 5.07 49.19 5.11 49.27 5.15 49.36 5.2 49.44 5.26 49.53 5.31 49.62 5.38 49.72 5.44 49.81 5.5 49.91 5.58 50 5.65 50.1 5.72 50.2 5.81 50.29 5.89 50.38 5.97 50.47 6.06 50.56 6.14 50.65 6.23 50.73 6.31 50.82 6.4 50.9 6.57 51.06 6.74 51.2 6.89 51.32 7.04 51.44 7.16 51.54 7.25 51.6 7.35 51.68 7.41 51.72 7.41 51.72Z" fill="#B56A4D"/></g><g opacity="0.7"><path d="M2.64 46.27C2.7 46.49 2.88 46.65 3.12 46.76 2.45 46.32 3.26 46.01 4.72 46.09 6.18 46.17 7.73 46.07 8.29 46.99 8.85 47.92 7.9 48.44 7.9 48.44 8.69 48.1 10.16 48.89 9.77 50.21 9.34 51.67 7.51 51.64 7.51 51.64 7.51 51.64 7.6 52.1 7.11 53.31 6.65 54.43 6.15 55.16 5.79 55.4 6.29 55.58 7.07 54.77 7.35 54.07 7.66 53.31 8.11 52.16 8.11 52.16 8.11 52.16 9.25 51.9 10.17 51.13 11.76 49.81 11.14 48.55 11.14 48.55 11.14 48.55 11.63 48.21 12.09 47.78 11.7 47.63 11.1 47.26 10.3 46.39 9.82 45.87 9.48 45.45 9.25 45.12L8.55 45.7C7.68 45.03 5.54 45.5 3.95 45.57 2.95 45.63 2.49 45.74 2.64 46.27Z" fill="#F4C9AB"/></g></g><g><path d="M9.75 44.05C9.75 44.05 9.29 44.71 9.24 45.17 9.19 45.63 10.36 47.8 11.89 48.13 11.89 48.13 12.56 48.07 12.97 47.54 11.43 47.49 10.05 45.43 9.75 44.05Z" fill="#FDBB30"/><path d="M9.68 44.05C9.42 44.44 9.07 44.96 9.21 45.44 9.38 46.03 9.77 46.58 10.17 47.04 10.61 47.56 11.18 48 11.85 48.16 12.26 48.26 12.82 47.82 13.05 47.54 13.07 47.52 13 47.51 12.99 47.51 11.37 47.42 10.15 45.47 9.83 44.04 9.82 44 9.67 44.02 9.68 44.05 9.91 45.07 10.48 46.01 11.22 46.73 11.55 47.06 11.95 47.32 12.39 47.47 12.48 47.5 12.58 47.53 12.67 47.54 12.84 47.57 12.94 47.51 12.75 47.7 12.54 47.92 12.22 48.05 11.92 48.1 11.74 48.13 11.45 47.93 11.3 47.85 11.06 47.72 10.84 47.54 10.64 47.35 10.27 47 9.96 46.59 9.7 46.15 9.54 45.87 9.36 45.55 9.33 45.23 9.29 44.85 9.63 44.36 9.84 44.06 9.85 44.02 9.71 44.01 9.68 44.05Z" fill="#BC6B00"/></g><g opacity="0.6"><path d="M11.89 47.18C11.79 47.24 11.68 47.28 11.57 47.27 9.99 47.12 9.4 45.73 9.56 44.35 9.43 44.58 9.27 44.9 9.24 45.16 9.19 45.62 10.36 47.79 11.89 48.12 11.89 48.12 12.56 48.06 12.97 47.53 12.6 47.53 12.23 47.4 11.89 47.18Z" fill="#FDBB30"/></g><g><g><g><path d="M25.22 31.64 26.51 39.47 29.21 31.01C29.21 31.01 32.21 29.02 30.56 26.23 30.56 26.23 30.75 23.97 28.61 23.82 26.47 23.67 24.81 26.22 24.76 28.16 24.71 30.09 25.22 31.64 25.22 31.64Z" fill="#FBD0B4"/><path d="M26.48 39.79 25.14 31.65C25.14 31.65 24.63 30.08 24.68 28.15 24.73 26.15 26.41 23.73 28.42 23.73 28.48 23.73 28.55 23.73 28.61 23.74 29.24 23.79 29.74 24.01 30.09 24.42 30.67 25.1 30.64 26.04 30.63 26.21 32.19 28.89 29.54 30.86 29.26 31.06L26.48 39.79ZM28.43 23.89C26.5 23.89 24.89 26.23 24.84 28.16 24.79 30.06 25.29 31.6 25.29 31.62L26.53 39.14 29.14 30.96 29.16 30.95C29.17 30.95 29.91 30.45 30.43 29.62 31.13 28.52 31.15 27.4 30.49 26.27L30.48 26.25 30.48 26.23C30.48 26.22 30.56 25.21 29.97 24.53 29.65 24.16 29.19 23.94 28.6 23.9 28.55 23.89 28.49 23.89 28.43 23.89Z" fill="#B56A4D"/></g><path d="M29.91 28.12C30.21 28.54 30.44 29 30.62 29.47 31.09 28.64 31.33 27.52 30.57 26.22 30.57 26.22 30.76 23.96 28.62 23.81 26.91 23.69 25.52 25.28 24.99 26.91 26.7 26.39 28.87 26.65 29.91 28.12Z" fill="#EAC0A9" opacity="0.7"/></g><g><path d="M31.49 50.65C42.53 48.51 42.16 43.71 42.16 43.71 42.16 43.71 42.85 41.41 41.89 39.92 40.93 38.43 39.13 36.13 39.13 36.13 38.48 32.19 36.41 30.31 36.41 30.31 36.35 30.18 36.28 30.06 36.21 29.94L36.21 29.94C34.86 27.73 32.17 27.21 32.17 27.21 32.28 29.54 30.41 31.99 29.21 32.43 28.39 32.73 27.83 32.42 27.55 32.19 26.71 34.65 26.85 40.38 26.85 40.38L26.23 40.38C26.13 37.07 25.46 33.87 25.18 32.66 24.96 32.69 24.67 32.65 24.33 32.43 23.53 31.91 23.54 29.7 23.54 29.7 21.52 31.05 17.6 35.96 14.31 39.27 11.44 42.15 9.55 43.05 9.76 44.05 10.13 45.77 12.2 48.57 14.15 47.16 17.62 44.66 21.66 37.84 21.66 37.84 21.58 43.35 22.98 46.33 24.33 47.92 23.97 48.81 24.41 49.71 24.41 49.71 24.41 49.71 26.44 50.67 27.62 54.57 27.62 54.57 28.69 54.99 29.42 53.5 29.59 53.15 30.03 52.59 30.61 51.83L30.61 51.82 31.49 50.65Z" fill="#C60000"/><path d="M31.52 50.68C34.55 50.09 37.83 49.2 40.24 47.16 41.16 46.38 42.01 45.32 42.2 44.09 42.23 43.87 42.24 43.67 42.29 43.45 42.45 42.76 42.51 42.03 42.43 41.33 42.33 40.46 41.89 39.79 41.4 39.09 40.91 38.39 40.4 37.7 39.88 37.02 39.71 36.8 39.54 36.58 39.37 36.36 39.2 36.14 39.18 36.04 39.13 35.75 38.83 34.16 38.21 32.61 37.28 31.28 37.05 30.96 36.81 30.65 36.53 30.37 36.37 30.21 36.28 29.96 36.16 29.77 35.91 29.38 35.59 29.04 35.24 28.74 34.41 28 33.3 27.43 32.2 27.21 32.18 27.21 32.08 27.2 32.08 27.24 32.13 28.59 31.6 29.88 30.82 30.96 30.12 31.93 28.81 33.15 27.6 32.2 27.57 32.18 27.47 32.17 27.46 32.21 27.02 33.54 26.92 34.99 26.84 36.38 26.77 37.58 26.75 38.79 26.76 40 26.76 40.12 26.76 40.23 26.76 40.35 26.76 40.42 26.75 40.37 26.83 40.37 26.72 40.37 26.61 40.37 26.5 40.37 26.44 40.37 26.37 40.37 26.31 40.37 26.17 40.37 26.3 40.39 26.3 40.25 26.29 39.95 26.27 39.66 26.26 39.37 26.22 38.8 26.17 38.23 26.11 37.66 25.93 35.99 25.64 34.33 25.26 32.69 25.25 32.66 25.19 32.66 25.16 32.66 23.74 32.78 23.61 30.72 23.62 29.73 23.62 29.68 23.5 29.7 23.48 29.71 22.3 30.51 21.31 31.63 20.35 32.67 18.98 34.14 17.65 35.65 16.29 37.13 14.87 38.68 13.39 40.16 11.8 41.53 11.29 41.97 10.76 42.39 10.28 42.87 10.01 43.14 9.72 43.46 9.68 43.84 9.61 44.39 10.04 45.1 10.3 45.54 10.68 46.2 11.21 46.81 11.86 47.22 12.36 47.53 12.94 47.66 13.52 47.52 14.18 47.37 14.75 46.79 15.24 46.35 17.51 44.29 19.31 41.68 20.96 39.12 21.23 38.7 21.49 38.28 21.75 37.86 21.7 37.86 21.65 37.85 21.6 37.85 21.56 41.07 21.92 44.6 23.8 47.32 23.94 47.52 24.08 47.71 24.24 47.89 24.31 47.97 24.14 48.47 24.13 48.58 24.11 48.84 24.16 49.1 24.22 49.34 24.29 49.6 24.32 49.7 24.53 49.83 25.43 50.4 26.1 51.33 26.6 52.25 26.86 52.72 27.07 53.21 27.26 53.7 27.36 53.96 27.41 54.36 27.56 54.59 27.58 54.61 27.63 54.62 27.65 54.63 28.1 54.76 28.57 54.6 28.93 54.31 29.27 54.03 29.43 53.63 29.65 53.27 29.96 52.77 30.34 52.31 30.69 51.85 30.99 51.46 31.28 51.06 31.57 50.66 31.59 50.63 31.45 50.61 31.42 50.64 31.14 51.01 30.86 51.39 30.58 51.76 30.13 52.36 29.63 52.94 29.29 53.62 29 54.19 28.39 54.76 27.7 54.57 27.66 54.56 27.6 54.25 27.57 54.18 27.49 53.94 27.4 53.69 27.3 53.45 27.12 53 26.91 52.56 26.68 52.14 26.19 51.25 25.52 50.37 24.66 49.81 24.6 49.77 24.54 49.74 24.48 49.7 24.41 49.66 24.33 49.28 24.31 49.15 24.26 48.92 24.26 48.68 24.27 48.45 24.28 48.28 24.47 48 24.36 47.87 24.19 47.67 24.04 47.46 23.89 47.25 22.03 44.56 21.69 41.02 21.73 37.84 21.73 37.8 21.6 37.8 21.58 37.83 20.45 39.73 19.18 41.56 17.81 43.3 16.79 44.59 15.7 45.86 14.41 46.89 14.08 47.15 13.75 47.38 13.34 47.48 12.83 47.6 12.32 47.4 11.9 47.13 11.2 46.69 10.68 45.98 10.29 45.26 10.05 44.81 9.68 44.14 9.87 43.61 10.03 43.16 10.48 42.8 10.82 42.49 12.21 41.24 13.64 40.06 14.94 38.71 16.36 37.25 17.71 35.72 19.07 34.21 20.25 32.91 21.42 31.58 22.73 30.41 23.01 30.16 23.29 29.93 23.6 29.72 23.55 29.71 23.5 29.71 23.46 29.7 23.46 30.84 23.64 32.82 25.2 32.69 25.17 32.68 25.14 32.67 25.1 32.66 25.69 35.19 26.07 37.78 26.15 40.38 26.15 40.41 26.21 40.41 26.23 40.41 26.44 40.41 26.64 40.41 26.85 40.41 26.87 40.41 26.93 40.41 26.93 40.38 26.91 39.32 26.92 38.26 26.97 37.21 27.04 35.55 27.1 33.78 27.64 32.2 27.59 32.2 27.54 32.21 27.5 32.21 28.48 32.98 29.63 32.43 30.41 31.66 31.55 30.52 32.33 28.84 32.27 27.22 32.23 27.23 32.19 27.24 32.15 27.25 33.18 27.45 34.18 27.98 34.98 28.63 35.33 28.91 35.64 29.24 35.91 29.6 36.07 29.82 36.19 30.18 36.38 30.35 36.59 30.54 36.77 30.77 36.94 30.99 37.9 32.23 38.53 33.72 38.89 35.23 38.95 35.48 39 35.74 39.05 36 39.07 36.12 39.05 36.11 39.1 36.17 39.23 36.33 39.35 36.49 39.47 36.65 39.96 37.28 40.43 37.92 40.9 38.57 41.42 39.29 42.01 40.02 42.23 40.9 42.41 41.65 42.35 42.46 42.21 43.21 42.16 43.49 42.11 43.73 42.08 44.01 41.93 45.25 41.05 46.33 40.13 47.12 37.76 49.16 34.46 50.03 31.46 50.62 31.35 50.64 31.48 50.69 31.52 50.68Z" fill="#600000"/></g><g><path d="M24.4 49.72C24.4 49.72 24.36 49.65 24.31 49.51 24.26 49.37 24.2 49.16 24.17 48.88 24.15 48.61 24.15 48.26 24.3 47.89 24.34 47.8 24.38 47.71 24.44 47.62 24.47 47.58 24.49 47.53 24.52 47.49 24.55 47.45 24.59 47.41 24.62 47.36 24.68 47.27 24.78 47.2 24.86 47.12 24.94 47.04 25.03 46.97 25.12 46.89 25.21 46.81 25.3 46.73 25.39 46.65 25.47 46.56 25.56 46.47 25.64 46.38 25.82 46.2 25.98 45.99 26.15 45.79 26.33 45.59 26.49 45.36 26.66 45.13 26.83 44.91 26.99 44.66 27.16 44.42 27.49 43.93 27.82 43.42 28.14 42.89 28.46 42.36 28.77 41.81 29.06 41.25 29.36 40.69 29.63 40.13 29.89 39.57 30.02 39.29 30.13 39 30.25 38.72 30.37 38.44 30.46 38.16 30.57 37.88 30.75 37.32 30.93 36.78 31 36.24 31.01 36.17 31.02 36.11 31.03 36.04 31.03 35.97 31.04 35.91 31.04 35.84 31.05 35.71 31.06 35.58 31.07 35.45 31.09 35.2 31.11 34.95 31.12 34.71 31.15 34.24 31.17 33.8 31.22 33.42 31.24 33.23 31.28 33.05 31.31 32.89 31.36 32.73 31.4 32.58 31.45 32.45 31.51 32.33 31.57 32.21 31.61 32.12 31.67 32.03 31.72 31.95 31.76 31.89 31.84 31.77 31.89 31.7 31.89 31.7 31.89 31.7 31.85 31.77 31.77 31.89 31.73 31.95 31.68 32.03 31.63 32.12 31.59 32.22 31.53 32.33 31.48 32.45 31.43 32.58 31.4 32.73 31.35 32.88 31.33 33.04 31.29 33.22 31.28 33.41 31.24 33.79 31.23 34.22 31.21 34.7 31.2 34.94 31.19 35.18 31.17 35.44 31.16 35.57 31.15 35.7 31.15 35.83 31.15 35.9 31.14 35.96 31.14 36.03 31.13 36.1 31.12 36.16 31.11 36.23 31.05 36.78 30.88 37.33 30.7 37.9 30.6 38.18 30.5 38.46 30.38 38.75 30.26 39.03 30.15 39.32 30.02 39.6 29.77 40.17 29.49 40.74 29.2 41.3 28.9 41.86 28.59 42.41 28.27 42.94 27.95 43.47 27.62 43.99 27.28 44.47 27.11 44.71 26.95 44.95 26.77 45.18 26.59 45.4 26.43 45.63 26.25 45.83 26.07 46.04 25.9 46.24 25.72 46.42 25.63 46.51 25.54 46.6 25.46 46.69 25.37 46.77 25.28 46.85 25.19 46.93 25.1 47.01 25.01 47.08 24.93 47.16 24.85 47.24 24.76 47.3 24.7 47.39 24.67 47.43 24.63 47.47 24.6 47.51 24.57 47.55 24.54 47.6 24.52 47.64 24.46 47.72 24.42 47.81 24.38 47.9 24.22 48.25 24.21 48.59 24.23 48.86 24.25 49.13 24.31 49.34 24.35 49.49 24.37 49.65 24.4 49.72 24.4 49.72Z" fill="#990000"/><path d="M36.21 29.95 36.55 30.95 36.69 31.46C36.73 31.63 36.79 31.8 36.83 31.97L36.94 32.49C36.96 32.58 36.98 32.66 36.99 32.75L37.03 33.01 37.11 33.53 37.16 34.06C37.18 34.24 37.18 34.41 37.19 34.59 37.19 34.77 37.2 34.94 37.19 35.12 37.18 35.3 37.18 35.47 37.16 35.65 37.14 35.83 37.13 36 37.1 36.18 37.07 36.35 37.05 36.53 37.01 36.7 36.97 36.87 36.94 37.05 36.88 37.22 36.84 37.39 36.78 37.56 36.71 37.73 36.64 37.9 36.58 38.06 36.48 38.22L36.49 38.19 36.35 39.4 36.31 39.7C36.3 39.8 36.27 39.9 36.26 40L36.14 40.6 36.03 41.2C35.98 41.4 35.93 41.59 35.88 41.79L35.72 42.38 35.64 42.67 35.54 42.96C35.41 43.34 35.29 43.73 35.15 44.11L34.69 45.24 34.17 46.34C33.99 46.7 33.79 47.06 33.6 47.42 33.4 47.77 33.19 48.12 32.99 48.47 32.78 48.81 32.56 49.15 32.33 49.49 32.1 49.82 31.87 50.16 31.63 50.48 31.39 50.81 31.15 51.13 30.91 51.45L30.17 52.41C30.05 52.57 29.92 52.73 29.81 52.89L29.63 53.13C29.57 53.21 29.52 53.3 29.47 53.39 29.27 53.74 29.07 54.11 28.73 54.35 28.41 54.6 27.97 54.69 27.58 54.56 27.97 54.68 28.4 54.58 28.72 54.33 28.8 54.27 28.87 54.2 28.94 54.13 29 54.05 29.07 53.98 29.12 53.89 29.24 53.73 29.32 53.54 29.42 53.37 29.47 53.28 29.52 53.19 29.58 53.11L29.75 52.86C29.86 52.69 29.99 52.53 30.11 52.37L30.84 51.4C31.08 51.08 31.32 50.75 31.55 50.42 31.79 50.09 32 49.75 32.23 49.42L32.88 48.4C33.08 48.05 33.29 47.71 33.48 47.35 33.67 46.99 33.86 46.64 34.04 46.28L34.55 45.18 35 44.06C35.08 43.87 35.13 43.68 35.2 43.49L35.39 42.92 35.49 42.63 35.57 42.34 35.73 41.76C35.78 41.57 35.84 41.37 35.88 41.18L36 40.59 36.12 40C36.14 39.9 36.16 39.8 36.17 39.7L36.21 39.4 36.36 38.2 36.36 38.18 36.37 38.17C36.45 38.02 36.52 37.86 36.59 37.7 36.65 37.54 36.71 37.37 36.76 37.2 36.81 37.03 36.85 36.86 36.89 36.69 36.93 36.52 36.95 36.35 36.98 36.17 37.01 36 37.02 35.82 37.04 35.65 37.06 35.48 37.06 35.3 37.07 35.12 37.08 34.94 37.08 34.77 37.08 34.59 37.08 34.41 37.08 34.24 37.06 34.06L37.02 33.53 36.95 33.01 36.92 32.75C36.91 32.66 36.89 32.58 36.87 32.49L36.77 31.97C36.74 31.8 36.69 31.63 36.65 31.46L36.52 30.95 36.21 29.95Z" fill="#990000"/><path d="M30.73 32.44C30.73 32.44 30.72 32.5 30.71 32.6 30.7 32.7 30.69 32.85 30.68 33.02 30.68 33.11 30.67 33.2 30.67 33.3 30.67 33.4 30.67 33.5 30.67 33.61 30.67 33.72 30.68 33.83 30.68 33.94 30.69 34.05 30.69 34.17 30.7 34.28 30.71 34.39 30.72 34.51 30.74 34.62 30.75 34.68 30.75 34.73 30.76 34.79 30.77 34.84 30.78 34.9 30.79 34.95 30.81 35.06 30.83 35.16 30.85 35.25 30.87 35.35 30.89 35.44 30.92 35.52 30.94 35.6 30.96 35.68 30.98 35.75 31 35.82 31.02 35.87 31.04 35.92 31.07 36.02 31.09 36.07 31.09 36.07 31.09 36.07 31.06 36.02 31.01 35.93 30.99 35.89 30.96 35.83 30.92 35.77 30.89 35.7 30.86 35.63 30.83 35.55 30.79 35.47 30.77 35.38 30.74 35.28 30.71 35.18 30.68 35.08 30.66 34.97 30.63 34.86 30.61 34.75 30.6 34.64 30.58 34.53 30.57 34.41 30.56 34.29 30.55 34.17 30.55 34.06 30.54 33.94 30.54 33.82 30.54 33.71 30.54 33.6 30.55 33.38 30.57 33.18 30.6 33.01 30.63 32.84 30.66 32.7 30.69 32.6 30.71 32.49 30.73 32.44 30.73 32.44Z" fill="#990000"/><path d="M36.38 34.53C36.38 34.53 36.4 34.63 36.43 34.82 36.44 34.91 36.46 35.02 36.48 35.15 36.49 35.28 36.51 35.42 36.53 35.58 36.54 35.74 36.55 35.91 36.56 36.09 36.57 36.27 36.58 36.46 36.58 36.66 36.58 36.86 36.58 37.06 36.58 37.27 36.58 37.48 36.56 37.69 36.55 37.9 36.53 38.11 36.52 38.32 36.5 38.53 36.48 38.74 36.44 38.94 36.42 39.14 36.39 39.34 36.36 39.53 36.33 39.71 36.31 39.89 36.26 40.06 36.23 40.21 36.16 40.52 36.1 40.78 36.06 40.96 36.01 41.14 35.99 41.24 35.99 41.24 35.99 41.24 36 41.14 36.03 40.95 36.06 40.77 36.09 40.51 36.15 40.2 36.17 40.04 36.21 39.88 36.23 39.7 36.25 39.52 36.27 39.33 36.29 39.13 36.31 38.93 36.34 38.73 36.36 38.53 36.37 38.32 36.39 38.11 36.4 37.91 36.41 37.7 36.44 37.49 36.44 37.28 36.45 37.07 36.45 36.87 36.46 36.67 36.47 36.47 36.47 36.28 36.47 36.1 36.47 35.92 36.47 35.75 36.47 35.59 36.46 35.43 36.46 35.29 36.45 35.16 36.45 35.03 36.44 34.92 36.43 34.83 36.39 34.63 36.38 34.53 36.38 34.53Z" fill="#990000"/><path d="M27.33 44.31C27.33 44.31 27.37 44.23 27.45 44.09 27.53 43.95 27.64 43.75 27.78 43.51 27.85 43.39 27.93 43.26 28.01 43.13 28.1 43 28.19 42.86 28.28 42.71 28.38 42.57 28.47 42.41 28.59 42.27 28.7 42.12 28.81 41.98 28.92 41.83 29.03 41.68 29.15 41.55 29.27 41.41 29.39 41.27 29.5 41.13 29.62 41.01 29.74 40.89 29.86 40.77 29.97 40.66 30.09 40.55 30.2 40.46 30.31 40.36 30.41 40.26 30.52 40.19 30.61 40.13 30.7 40.07 30.78 40 30.85 39.97 30.99 39.89 31.07 39.85 31.07 39.85 31.07 39.85 30.99 39.9 30.86 40 30.79 40.04 30.72 40.11 30.64 40.18 30.56 40.25 30.46 40.33 30.36 40.43 30.26 40.53 30.15 40.63 30.05 40.74 29.94 40.86 29.83 40.98 29.72 41.11 29.6 41.23 29.5 41.38 29.38 41.51 29.27 41.65 29.14 41.79 29.04 41.93 28.93 42.07 28.82 42.22 28.71 42.36 28.6 42.5 28.5 42.65 28.4 42.79 28.3 42.93 28.2 43.06 28.11 43.19 28.01 43.32 27.93 43.44 27.86 43.55 27.71 43.78 27.57 43.97 27.48 44.1 27.38 44.24 27.33 44.31 27.33 44.31Z" fill="#990000"/><path d="M22.3 34.25C22.3 34.25 22.28 34.34 22.24 34.5 22.2 34.66 22.15 34.88 22.09 35.15 22.06 35.28 22.03 35.43 22 35.59 21.97 35.75 21.94 35.91 21.91 36.08 21.88 36.25 21.85 36.43 21.83 36.61 21.81 36.79 21.78 36.97 21.76 37.15L21.73 37.42C21.72 37.51 21.72 37.6 21.71 37.69 21.69 37.87 21.68 38.05 21.68 38.22 21.67 38.39 21.67 38.56 21.66 38.72 21.66 38.88 21.65 39.03 21.66 39.17 21.66 39.31 21.67 39.43 21.67 39.55 21.68 39.66 21.68 39.76 21.69 39.84 21.7 40 21.7 40.09 21.7 40.09 21.7 40.09 21.68 40 21.66 39.84 21.65 39.76 21.63 39.66 21.62 39.55 21.61 39.44 21.59 39.31 21.58 39.17 21.57 39.03 21.56 38.88 21.55 38.72 21.54 38.56 21.54 38.39 21.54 38.22 21.54 38.05 21.54 37.87 21.56 37.68 21.57 37.5 21.59 37.31 21.61 37.13 21.63 36.95 21.66 36.76 21.68 36.58 21.7 36.4 21.74 36.22 21.77 36.05 21.84 35.71 21.92 35.39 21.99 35.13 22.06 34.86 22.14 34.64 22.19 34.49 22.26 34.33 22.3 34.25 22.3 34.25Z" fill="#990000"/><path d="M21.61 33.38C21.61 33.38 21.6 33.45 21.57 33.57 21.54 33.69 21.51 33.87 21.48 34.08 21.46 34.19 21.45 34.3 21.43 34.42 21.41 34.54 21.41 34.67 21.39 34.8 21.37 35.07 21.35 35.35 21.35 35.64L21.35 35.85C21.35 35.92 21.36 35.99 21.36 36.06 21.36 36.2 21.37 36.34 21.38 36.47 21.39 36.6 21.4 36.73 21.42 36.85 21.43 36.97 21.45 37.09 21.47 37.19 21.49 37.3 21.51 37.39 21.52 37.48 21.54 37.56 21.56 37.64 21.57 37.7 21.6 37.82 21.61 37.89 21.61 37.89 21.61 37.89 21.58 37.82 21.54 37.71 21.52 37.65 21.49 37.58 21.46 37.5 21.43 37.42 21.41 37.32 21.38 37.22 21.35 37.12 21.33 37 21.3 36.88 21.28 36.76 21.25 36.63 21.24 36.49 21.22 36.36 21.21 36.22 21.2 36.07 21.2 36 21.19 35.93 21.19 35.85L21.19 35.63C21.19 35.48 21.2 35.34 21.21 35.2 21.22 35.06 21.24 34.92 21.25 34.78 21.27 34.65 21.29 34.52 21.31 34.39 21.33 34.27 21.36 34.15 21.38 34.05 21.43 33.84 21.49 33.67 21.53 33.55 21.58 33.45 21.61 33.38 21.61 33.38Z" fill="#990000"/><path d="M38.59 34C38.59 34 38.82 34.61 39.09 35.56 39.15 35.8 39.23 36.05 39.29 36.33 39.32 36.47 39.36 36.61 39.39 36.75 39.42 36.89 39.45 37.04 39.49 37.19 39.56 37.49 39.61 37.8 39.67 38.12 39.73 38.44 39.78 38.76 39.83 39.09 39.87 39.42 39.91 39.74 39.94 40.06 39.96 40.38 40 40.7 40.01 41.01 40.02 41.32 40.04 41.61 40.03 41.9 40.02 42.18 40.02 42.45 40.01 42.69 39.99 42.93 39.97 43.16 39.95 43.36 39.93 43.56 39.9 43.73 39.88 43.87 39.83 44.15 39.81 44.31 39.81 44.31 39.81 44.31 39.83 44.15 39.85 43.86 39.86 43.72 39.89 43.55 39.9 43.35 39.91 43.15 39.92 42.93 39.93 42.68 39.94 42.44 39.93 42.17 39.93 41.89 39.93 41.75 39.92 41.61 39.91 41.46 39.9 41.31 39.89 41.16 39.89 41.01 39.88 40.7 39.84 40.39 39.81 40.07 39.78 39.75 39.73 39.43 39.69 39.1 39.64 38.78 39.6 38.45 39.54 38.14 39.48 37.82 39.43 37.51 39.37 37.21 39.31 36.91 39.25 36.62 39.19 36.35 39.13 36.08 39.07 35.82 39.01 35.58 38.89 35.1 38.79 34.71 38.72 34.43 38.64 34.16 38.59 34 38.59 34Z" fill="#990000"/></g><g><g><path d="M26.85 40.38C26.85 40.38 26.71 34.65 27.55 32.19 27.42 32.08 27.35 32 27.35 32 26.47 34.07 26.51 39.46 26.51 39.46 26.36 36.02 25.67 32.46 25.67 32.46 25.67 32.46 25.49 32.63 25.18 32.67 25.46 33.88 26.13 37.07 26.23 40.39L26.85 40.39Z" fill="#FDBB30"/><path d="M26.92 40.4C26.89 39.34 26.91 38.28 26.96 37.23 27.03 35.57 27.1 33.8 27.63 32.22 27.63 32.21 27.62 32.2 27.61 32.19 27.54 32.13 27.48 32.07 27.42 32 27.4 31.98 27.3 31.93 27.28 31.98 26.7 33.37 26.62 35 26.53 36.49 26.47 37.47 26.43 38.46 26.44 39.45 26.49 39.46 26.54 39.48 26.59 39.49 26.48 37.14 26.19 34.79 25.75 32.48 25.74 32.44 25.64 32.42 25.61 32.44 25.48 32.55 25.31 32.61 25.14 32.64 25.13 32.64 25.11 32.65 25.11 32.66 25.7 35.19 26.08 37.77 26.16 40.37 26.16 40.41 26.23 40.43 26.26 40.43 26.47 40.43 26.67 40.43 26.88 40.43 26.98 40.43 26.87 40.36 26.82 40.36 26.61 40.36 26.41 40.36 26.2 40.36 26.23 40.38 26.27 40.4 26.3 40.42 26.24 38.72 26.05 37.03 25.77 35.35 25.66 34.71 25.54 34.08 25.41 33.45 25.37 33.24 25.32 33.03 25.27 32.82 25.24 32.69 25.62 32.61 25.73 32.52 25.68 32.51 25.64 32.49 25.59 32.48 26.03 34.78 26.32 37.13 26.43 39.47 26.43 39.52 26.58 39.55 26.58 39.51 26.57 38.52 26.61 37.54 26.67 36.55 26.76 35.07 26.84 33.43 27.42 32.04 27.37 32.03 27.33 32.02 27.28 32.02 27.39 32.16 27.47 32.2 27.41 32.4 27.36 32.57 27.32 32.74 27.28 32.92 27.18 33.34 27.11 33.77 27.06 34.2 26.93 35.14 26.87 36.09 26.83 37.04 26.78 38.16 26.76 39.28 26.79 40.4 26.77 40.41 26.92 40.44 26.92 40.4Z" fill="#BC6B00"/></g><g><path d="M24.33 32.44C25.13 32.96 25.67 32.47 25.67 32.47 26.85 31.64 24.87 30.81 24.76 28.92 24.76 28.15 25.22 26.32 25.22 26.32 23.53 27.38 23.22 28.76 23.22 29.71 23.22 30.65 23.52 31.91 24.33 32.44Z" fill="#FDBB30"/><path d="M24.27 32.45C24.83 32.78 25.42 32.79 25.91 32.34 26.4 31.88 25.88 31.25 25.6 30.83 25.07 30.05 24.76 29.28 24.89 28.32 24.98 27.65 25.13 26.98 25.3 26.32 25.31 26.28 25.18 26.27 25.16 26.28 24.08 26.97 23.31 27.97 23.17 29.26 23.04 30.36 23.32 31.79 24.27 32.45 24.3 32.47 24.45 32.47 24.38 32.42 23.42 31.75 23.2 30.3 23.32 29.22 23.46 27.98 24.25 27 25.28 26.34 25.23 26.33 25.19 26.32 25.14 26.3 24.84 27.51 24.43 28.83 24.97 30.02 25.23 30.59 25.7 31.05 25.92 31.64 26.02 31.92 25.92 32.16 25.71 32.35 25.32 32.71 24.85 32.7 24.38 32.42 24.35 32.4 24.2 32.41 24.27 32.45Z" fill="#BC6B00"/></g><g><path d="M29.21 32.44C30.41 32.01 32.29 29.56 32.17 27.22 31.86 25.73 30.37 25.84 30.56 26.23 30.75 26.61 30.67 27.11 29.68 28.22 28.69 29.33 26.94 29.86 26.86 30.77 26.79 31.69 27.35 32 27.35 32 27.35 32 28.01 32.87 29.21 32.44Z" fill="#FDBB30"/><path d="M29.27 32.47C29.92 32.22 30.43 31.68 30.85 31.15 31.41 30.44 31.83 29.6 32.08 28.73 32.3 27.96 32.41 27.07 31.86 26.42 31.61 26.12 31.17 25.91 30.78 25.96 30.33 26.01 30.56 26.25 30.57 26.56 30.58 26.84 30.42 27.12 30.28 27.36 30.02 27.78 29.67 28.18 29.3 28.52 28.42 29.33 26.01 30.16 27 31.74 27.13 31.95 27.39 32.16 27.59 32.31 28.09 32.64 28.71 32.65 29.27 32.47 29.32 32.45 29.19 32.4 29.15 32.41 28.63 32.58 28.12 32.56 27.67 32.24 27.57 32.17 27.5 32.05 27.4 31.99 26.83 31.63 26.81 30.71 27.21 30.24 27.73 29.62 28.57 29.26 29.2 28.77 29.8 28.3 30.46 27.6 30.69 26.85 30.74 26.67 30.74 26.49 30.68 26.32 30.6 26.08 30.74 26.01 30.99 26.02 31.36 26.04 31.67 26.31 31.87 26.6 32.15 27.03 32.13 27.53 32.07 28.01 31.95 28.99 31.52 29.94 30.97 30.75 30.54 31.38 29.98 32.03 29.28 32.36 29.24 32.38 29.2 32.39 29.16 32.41 29.1 32.43 29.23 32.48 29.27 32.47Z" fill="#BC6B00"/></g></g><g><g opacity="0.6"><path d="M41.89 39.92C40.93 38.43 39.13 36.13 39.13 36.13 39.1 35.97 39.07 35.81 39.04 35.65 39.6 42.22 36.3 45.43 36.93 42.07 37.81 37.43 37.1 33.79 37.1 33.79 37.1 33.79 36.7 37.61 36.58 35.63 36.46 33.65 35.97 33.36 35.97 33.36 35.97 33.36 36.65 35.31 34.63 41.74 32 50.12 25.67 50.07 25.18 48.55 24.69 47.04 26.28 46.29 27.33 44.65 29.28 41.6 31.9 39.14 31.9 39.14 31.9 39.14 30.31 40.41 31.08 38.26 31.86 36.11 31.2 33.98 31.2 33.98 30.97 35.41 30.59 34.78 30.59 34.78 30.3 38.61 26.34 45.26 24.17 42.74 22 40.21 22.2 34.51 22.2 34.51 22.2 34.51 21.49 36.35 21.43 35.63 21.38 34.93 21.45 34 21.45 34 21.45 34 18.79 41.45 14.7 44.26 11.37 46.55 9.97 44.42 10.71 42.54 10.03 43.16 9.66 43.64 9.75 44.05 10.12 45.77 12.19 48.57 14.14 47.16 17.61 44.66 21.65 37.84 21.65 37.84 21.57 43.35 22.97 46.33 24.32 47.92 23.96 48.81 24.4 49.71 24.4 49.71 24.4 49.71 26.43 50.67 27.61 54.57 27.61 54.57 28.68 54.99 29.41 53.5 29.58 53.15 30.02 52.59 30.6 51.83L30.6 51.82 31.48 50.64C42.52 48.5 42.15 43.7 42.15 43.7 42.15 43.7 42.85 41.42 41.89 39.92Z" fill="#C60000"/></g></g><g opacity="0.6"><path d="M25.18 30.28C25.44 31.39 24.71 31.7 24.02 30.8 23.54 30.17 23.33 29.09 23.59 28.04 23.3 28.64 23.22 29.23 23.22 29.7 23.22 30.65 23.53 31.91 24.33 32.43 25.13 32.95 25.67 32.46 25.67 32.46 26.52 31.87 25.73 31.27 25.18 30.28L25.18 30.28Z" fill="#FDBB30"/></g><g opacity="0.6"><path d="M31.9 26.56 31.9 26.56C32.44 27.75 30.98 30.27 29.3 30.86 27.62 31.45 27.51 30.22 29.07 28.78L29.07 28.78C28.1 29.53 26.93 30.02 26.87 30.77 26.79 31.69 27.35 32 27.35 32 27.35 32 28.01 32.87 29.21 32.43 30.41 32 32.29 29.55 32.17 27.21 32.12 26.95 32.02 26.73 31.9 26.56Z" fill="#FDBB30"/></g></g><g><g><path d="M23.87 50.48C24.02 50.82 25.68 52.15 26.74 54.92 26.74 54.92 26.8 56.13 25.2 57.82 23.59 59.5 22.44 61.06 21.93 60.78 21.42 60.5 22.29 59.13 22.95 58.41 22.95 58.41 20.42 60.62 19.68 59.88 18.94 59.14 21.65 57.46 21.65 57.46 21.65 57.46 18.97 59.02 18.13 59.07 17.29 59.12 16.79 58.18 18.59 57.23 18.59 57.23 16.68 58.02 16.22 57.46 15.76 56.9 16.42 56.61 17.98 55.65 19.54 54.68 19.87 54.61 20.15 54.2 20.43 53.79 20.3 52.85 20.71 52.24 20.71 52.24 20.35 52.17 19.21 51.85 18.06 51.53 17.42 50.71 17.81 50.18 18.19 49.64 19.8 50.54 21 50.59 22.19 50.62 23.51 50.04 23.87 50.48Z" fill="#FBD0B4"/><path d="M23.8 50.5C23.92 50.75 24.18 50.96 24.36 51.17 24.78 51.64 25.16 52.14 25.51 52.66 25.72 52.97 25.91 53.3 26.08 53.63 26.2 53.85 26.3 54.07 26.41 54.3 26.49 54.47 26.66 54.74 26.67 54.92 26.68 55.21 26.58 55.52 26.48 55.79 26.2 56.55 25.69 57.21 25.14 57.79 24.48 58.5 23.84 59.23 23.17 59.93 22.95 60.16 22.72 60.39 22.46 60.58 22.17 60.79 21.84 60.77 21.87 60.36 21.92 59.66 22.58 58.89 23.03 58.4 23.07 58.35 22.92 58.36 22.9 58.38 22.54 58.7 22.15 58.99 21.75 59.26 21.31 59.56 20.22 60.34 19.74 59.81 19.31 59.34 20.26 58.56 20.56 58.31 20.92 58 21.32 57.71 21.73 57.46 21.8 57.42 21.65 57.41 21.62 57.43 20.8 57.91 19.95 58.36 19.07 58.74 18.63 58.93 17.97 59.24 17.58 58.81 17.02 58.2 18.29 57.44 18.67 57.24 18.74 57.2 18.6 57.19 18.57 57.2 17.98 57.44 17.1 57.8 16.48 57.56 16.19 57.45 16.11 57.11 16.28 56.87 16.57 56.46 17.16 56.21 17.58 55.96 18.11 55.63 18.64 55.31 19.18 54.99 19.45 54.83 19.73 54.68 19.97 54.49 20.65 53.96 20.39 52.92 20.81 52.23 20.82 52.22 20.8 52.2 20.79 52.2 20.17 52.07 19.53 51.92 18.95 51.69 18.53 51.53 18.13 51.25 17.9 50.86 17.81 50.7 17.78 50.52 17.82 50.34 17.89 50.05 18.16 50.01 18.42 50.03 19.29 50.12 20.1 50.54 20.99 50.6 21.46 50.63 21.93 50.55 22.39 50.47 22.74 50.41 23.48 50.17 23.8 50.5 23.83 50.53 23.97 50.5 23.94 50.47 23.53 50.05 22.57 50.38 22.1 50.46 21.54 50.55 20.99 50.58 20.43 50.47 19.98 50.38 19.54 50.24 19.09 50.11 18.71 50.01 18.04 49.79 17.73 50.16 17.3 50.67 17.99 51.29 18.38 51.54 19.01 51.94 19.84 52.07 20.55 52.24 20.58 52.25 20.62 52.26 20.65 52.26 20.53 52.23 20.41 52.74 20.39 52.82 20.28 53.23 20.29 53.67 20.14 54.07 19.98 54.51 19.41 54.75 19.04 54.96 18.22 55.44 17.37 55.92 16.59 56.47 16.36 56.63 16 56.85 16 57.17 16 57.48 16.33 57.64 16.59 57.69 17.25 57.79 18.03 57.51 18.63 57.26 18.6 57.25 18.56 57.24 18.53 57.22 18.11 57.45 17.01 58.08 17.33 58.74 17.53 59.15 18.06 59.15 18.44 59.05 19.58 58.75 20.68 58.08 21.7 57.49 21.66 57.48 21.63 57.47 21.59 57.46 21.12 57.76 18.66 59.37 19.72 60 20.24 60.31 21.08 59.79 21.51 59.53 22.04 59.21 22.55 58.83 23.01 58.43 22.97 58.42 22.92 58.42 22.88 58.41 22.42 58.92 21.82 59.63 21.71 60.34 21.65 60.75 21.92 60.94 22.29 60.8 22.91 60.56 23.41 59.85 23.84 59.38 24.58 58.57 25.4 57.79 26.03 56.9 26.39 56.39 26.68 55.81 26.79 55.2 26.81 55.11 26.82 55.02 26.81 54.93 26.8 54.75 26.63 54.47 26.55 54.31 26.45 54.08 26.33 53.85 26.22 53.62 25.83 52.88 25.36 52.18 24.83 51.54 24.55 51.2 24.22 50.9 23.97 50.54 23.96 50.52 23.95 50.5 23.94 50.49 23.92 50.43 23.77 50.46 23.8 50.5Z" fill="#B56A4D"/></g><g><path d="M17.91 57.47C17.91 57.47 17.97 57.45 18.08 57.41 18.19 57.37 18.34 57.31 18.52 57.25 18.61 57.22 18.71 57.18 18.81 57.14 18.91 57.1 19.02 57.06 19.14 57.01 19.26 56.97 19.37 56.91 19.48 56.87 19.6 56.82 19.72 56.77 19.83 56.72 19.86 56.71 19.9 56.7 19.91 56.68L20 56.63C20.06 56.6 20.11 56.57 20.17 56.54 20.28 56.47 20.37 56.4 20.47 56.33 20.56 56.25 20.65 56.18 20.74 56.11 20.82 56.03 20.9 55.96 20.97 55.89 21.04 55.82 21.1 55.76 21.15 55.7 21.2 55.64 21.25 55.59 21.29 55.55 21.36 55.46 21.4 55.41 21.4 55.41 21.4 55.41 21.37 55.47 21.31 55.57 21.25 55.67 21.16 55.8 21.03 55.96 20.96 56.03 20.89 56.11 20.82 56.2 20.74 56.28 20.65 56.36 20.56 56.45 20.46 56.52 20.36 56.61 20.25 56.68 20.19 56.71 20.14 56.74 20.08 56.78L20 56.8C19.96 56.82 19.94 56.83 19.91 56.84 19.79 56.89 19.67 56.94 19.55 56.99 19.43 57.04 19.31 57.09 19.2 57.12 19.08 57.16 18.97 57.19 18.86 57.23 18.75 57.26 18.65 57.3 18.56 57.32 18.37 57.37 18.21 57.4 18.1 57.43 17.97 57.45 17.91 57.47 17.91 57.47Z" fill="#844D24"/><path d="M21.13 57.81C21.13 57.81 21.23 57.71 21.39 57.57 21.55 57.43 21.77 57.26 21.99 57.1L22.07 57.04 22.11 57.01 22.15 56.98C22.2 56.94 22.26 56.9 22.31 56.86 22.41 56.78 22.5 56.7 22.58 56.64 22.74 56.51 22.85 56.42 22.85 56.42 22.85 56.42 22.78 56.54 22.64 56.7 22.57 56.78 22.49 56.88 22.39 56.96 22.34 57 22.29 57.05 22.24 57.09L22.2 57.12 22.15 57.15 22.07 57.21C21.84 57.37 21.61 57.52 21.43 57.63 21.26 57.75 21.13 57.81 21.13 57.81Z" fill="#844D24"/><path d="M24.05 57.33C24.05 57.33 23.99 57.44 23.87 57.59 23.81 57.67 23.75 57.75 23.67 57.85 23.63 57.9 23.59 57.94 23.55 57.99L23.49 58.06 23.46 58.1 23.43 58.13C23.38 58.17 23.34 58.21 23.29 58.26 23.25 58.3 23.19 58.34 23.15 58.37 23.05 58.44 22.96 58.51 22.88 58.55 22.72 58.65 22.6 58.7 22.6 58.7 22.6 58.7 22.69 58.61 22.83 58.48 22.9 58.42 22.98 58.34 23.07 58.27 23.16 58.2 23.25 58.1 23.34 58.02L23.37 57.99 23.4 57.96 23.46 57.89C23.5 57.84 23.54 57.8 23.59 57.76 23.67 57.68 23.75 57.6 23.82 57.54 23.94 57.41 24.05 57.33 24.05 57.33Z" fill="#844D24"/></g><g opacity="0.7"><path d="M20 57.11C20.61 56.65 21.09 56.01 21.36 55.6 21.18 55.81 20.86 56.1 20.31 56.43 19.13 57.14 17.74 56.56 18.89 55.76 20.04 54.96 20.61 55.03 20.8 54 21.09 52.45 21.6 51.83 21.6 51.83 19.53 51.56 18.14 50.81 17.73 50.26 17.49 50.79 18.11 51.53 19.19 51.83 20.34 52.15 20.69 52.22 20.69 52.22 20.28 52.83 20.41 53.78 20.13 54.18 19.85 54.59 19.52 54.66 17.96 55.63 16.4 56.6 15.74 56.88 16.2 57.44 16.66 58 18.57 57.21 18.57 57.21 16.77 58.15 17.27 59.1 18.11 59.05 18.71 59.01 20.24 58.22 21.07 57.76 19.85 58.31 19.12 57.78 20 57.11Z" fill="#EAC0A9"/><path d="M26.74 54.92C26.33 53.84 25.83 52.98 25.36 52.31 26.21 53.64 26.15 56.55 24.79 57.8 23.36 59.12 22.53 59.96 22.85 59.28 23.17 58.59 23.85 57.55 23.85 57.55 21.38 59.8 20.08 59.01 21.14 58.17 21.98 57.5 22.49 56.97 22.78 56.63 22.53 56.88 22.11 57.23 21.41 57.61 21.41 57.61 21.41 57.61 21.41 57.61 20.76 58.05 19.09 59.27 19.69 59.87 20.43 60.61 22.96 58.4 22.96 58.4 22.3 59.12 21.43 60.48 21.94 60.77 22.45 61.05 23.6 59.49 25.21 57.81 26.8 56.13 26.74 54.92 26.74 54.92Z" fill="#EAC0A9"/></g></g><g><g><path d="M24.4 49.72C24.4 49.72 23.71 50.14 23.86 50.48 24.01 50.82 25.67 52.15 26.73 54.92 27.04 55.72 27.61 54.58 27.61 54.58 26.43 50.67 24.4 49.72 24.4 49.72Z" fill="#FDBB30"/><path d="M24.35 49.7C24.07 49.88 23.6 50.24 23.86 50.6 24.14 50.98 24.49 51.31 24.79 51.68 25.34 52.35 25.8 53.08 26.19 53.86 26.39 54.26 26.51 54.79 26.78 55.15 26.87 55.27 27.03 55.26 27.16 55.21 27.33 55.15 27.46 54.96 27.55 54.82 27.75 54.53 27.64 54.4 27.52 54.06 27.23 53.22 26.85 52.4 26.37 51.65 25.9 50.92 25.3 50.19 24.53 49.74 24.51 49.73 24.48 49.71 24.45 49.7 24.41 49.68 24.27 49.72 24.32 49.75 24.8 49.98 25.2 50.4 25.54 50.79 25.96 51.26 26.31 51.8 26.61 52.36 26.83 52.76 27.01 53.18 27.18 53.6 27.28 53.86 27.62 54.44 27.47 54.7 27.38 54.86 27.09 55.36 26.87 55.07 26.74 54.9 26.68 54.62 26.59 54.42 26.51 54.22 26.41 54.03 26.32 53.83 25.98 53.13 25.55 52.47 25.08 51.85 24.78 51.46 24.45 51.1 24.13 50.74 24.04 50.64 23.95 50.54 23.91 50.42 23.83 50.16 24.26 49.86 24.45 49.74 24.53 49.69 24.38 49.68 24.35 49.7Z" fill="#BC6B00"/></g><g opacity="0.6"><path d="M24.4 49.72C24.4 49.72 24.31 49.77 24.21 49.86 25.47 50.48 26.4 52.23 26.17 53.66 26.37 54.04 26.56 54.46 26.74 54.92 27.05 55.72 27.62 54.58 27.62 54.58 26.43 50.67 24.4 49.72 24.4 49.72Z" fill="#FDBB30"/></g></g></g><g><g><g><path d="M47.05 80.76C45.81 82.23 42.51 84.09 36.24 84.86 30.33 85.58 28.56 83.28 28.52 81.55 28.3 82.09 28.3 82.74 28.82 83.47 30.31 85.57 35.59 86.22 40.91 84.62 46.23 83.01 47.18 83.01 47.07 81.06 47.06 80.95 47.05 80.85 47.05 80.76Z" fill="#F7F7F7"/><path d="M46.97 80.75C46.29 81.56 45.36 82.13 44.43 82.61 42.92 83.38 41.28 83.87 39.63 84.25 37.48 84.74 35.19 85.12 32.98 84.91 31.68 84.79 30.3 84.4 29.38 83.42 28.9 82.91 28.61 82.24 28.59 81.54 28.59 81.5 28.45 81.5 28.44 81.54 27.85 83.06 29.26 84.23 30.51 84.77 32.12 85.47 33.97 85.58 35.7 85.53 37.97 85.45 40.11 84.88 42.27 84.24 43.58 83.85 45.01 83.56 46.22 82.91 46.55 82.73 46.85 82.49 47.01 82.15 47.21 81.72 47.16 81.21 47.13 80.76 47.12 80.71 46.97 80.72 46.97 80.75 47.02 81.6 46.99 82.32 46.22 82.8 45.75 83.09 45.2 83.27 44.68 83.44 43.86 83.71 43.02 83.95 42.19 84.19 41.01 84.54 39.85 84.9 38.64 85.13 37.5 85.35 36.34 85.46 35.18 85.48 33.37 85.5 31.36 85.29 29.8 84.3 28.88 83.72 28.17 82.66 28.59 81.55 28.54 81.55 28.49 81.55 28.44 81.55 28.51 83.72 30.79 84.71 32.64 84.94 34.66 85.19 36.72 84.89 38.71 84.51 40.42 84.19 42.11 83.73 43.7 83.05 44.94 82.52 46.23 81.82 47.12 80.77 47.14 80.74 47 80.72 46.97 80.75Z" fill="#BCC8CE"/></g><g><path d="M34.94 80.62C33.26 79.33 31.69 79.36 30.65 79.64 30.29 79.81 30.12 79.95 30.12 79.95L30.07 79.97C29.85 80.09 28.88 80.66 28.52 81.54 28.56 83.27 30.33 85.57 36.24 84.85 36.55 84.81 36.85 84.77 37.15 84.73 36.99 83.42 36.45 81.79 34.94 80.62Z" fill="#F7F7F7"/><path d="M34.99 80.61C34.23 80.04 33.39 79.64 32.45 79.5 31.84 79.41 31.02 79.39 30.46 79.67 29.99 79.9 29.52 80.22 29.13 80.58 28.84 80.85 28.6 81.17 28.44 81.53 28.39 81.64 28.48 81.93 28.5 82.05 28.98 84.32 31.78 84.96 33.74 85.02 34.9 85.05 36.05 84.93 37.19 84.77 37.2 84.77 37.22 84.76 37.22 84.75 37.01 83.12 36.3 81.64 34.99 80.61 34.96 80.59 34.81 80.58 34.87 80.63 35.7 81.28 36.3 82.13 36.68 83.11 36.82 83.48 36.92 83.88 37 84.27 37.02 84.36 37.03 84.45 37.05 84.55 37.08 84.77 36.84 84.74 36.72 84.76 36.37 84.81 36.01 84.85 35.66 84.89 33.95 85.06 32.07 85.04 30.5 84.26 29.64 83.83 28.93 83.1 28.69 82.16 28.64 81.98 28.62 81.8 28.61 81.61 28.59 81.23 29.17 80.73 29.44 80.5 29.86 80.14 30.49 79.71 31.03 79.61 32.43 79.33 33.79 79.8 34.9 80.64 34.91 80.66 35.06 80.66 34.99 80.61Z" fill="#BCC8CE"/></g><g><path d="M47.05 80.76C46.97 79.54 46.88 78.61 46.55 78.14 45.3 79.63 41.08 78.87 39.99 78.2 37.23 76.5 36.05 76.65 35.33 76.44 35.28 76.82 35.42 77.18 35.42 77.18 35.42 77.18 35.24 77.33 34.45 77.84 33.12 78.7 31.31 79.37 31.31 79.37 31.04 79.46 30.82 79.55 30.64 79.64 31.68 79.37 33.25 79.33 34.93 80.62 36.45 81.79 36.98 83.42 37.14 84.73 42.82 83.91 45.87 82.16 47.05 80.76Z" fill="#96592F"/><path d="M47.12 80.76C47.07 79.93 47.1 78.86 46.62 78.13 46.6 78.09 46.5 78.1 46.47 78.13 45.76 78.94 44.48 78.99 43.48 78.96 42.45 78.93 41.37 78.75 40.41 78.36 39.87 78.14 39.38 77.78 38.86 77.51 38.36 77.25 37.83 77.03 37.29 76.85 36.66 76.64 36 76.6 35.36 76.42 35.34 76.41 35.25 76.4 35.24 76.44 35.22 76.69 35.25 76.93 35.33 77.17 35.33 77.17 35.22 77.26 35.18 77.28 34.66 77.66 34.11 78 33.54 78.31 32.58 78.83 31.57 79.16 30.59 79.61 30.52 79.64 30.65 79.67 30.68 79.66 32.31 79.25 33.91 79.79 35.16 80.88 36.28 81.85 36.88 83.28 37.06 84.73 37.06 84.77 37.15 84.76 37.17 84.76 39.46 84.42 41.74 83.9 43.87 82.97 45.06 82.44 46.27 81.77 47.12 80.76 47.14 80.74 47 80.71 46.97 80.75 46.11 81.76 44.88 82.43 43.69 82.96 41.61 83.88 39.35 84.38 37.11 84.71 37.15 84.72 37.19 84.73 37.22 84.74 37.01 83.06 36.25 81.55 34.88 80.52 33.65 79.6 32.1 79.24 30.61 79.61 30.64 79.63 30.67 79.64 30.7 79.66 31.47 79.3 32.28 79.04 33.04 78.67 33.88 78.26 34.77 77.8 35.48 77.19 35.49 77.18 35.49 77.18 35.49 77.17 35.4 76.94 35.38 76.69 35.4 76.44 35.36 76.45 35.32 76.46 35.28 76.46 35.99 76.66 36.72 76.72 37.43 76.97 38.17 77.23 38.86 77.59 39.54 77.98 39.94 78.21 40.3 78.41 40.74 78.56 41.79 78.9 42.92 79.05 44.02 79.02 44.91 79 45.99 78.85 46.61 78.14 46.56 78.14 46.51 78.14 46.46 78.14 46.93 78.86 46.9 79.92 46.96 80.75 46.97 80.8 47.13 80.8 47.12 80.76Z" fill="#6D3A17"/></g><g><g><path d="M36.1 80.73C36.48 81.7 37.18 81.14 36.68 80.06 36.21 79.06 35.19 78.22 33.95 78.14 33.73 78.27 33.5 78.39 33.28 78.5 33.87 78.55 35.37 78.86 36.1 80.73Z" fill="#F7F7F7"/><path d="M36.03 80.74C36.12 80.96 36.43 81.46 36.75 81.2 37.2 80.84 36.78 80.05 36.55 79.68 36.19 79.08 35.62 78.63 34.99 78.34 34.7 78.21 34.4 78.15 34.09 78.11 33.78 78.07 33.5 78.34 33.23 78.47 33.18 78.5 33.24 78.52 33.27 78.52 34.57 78.65 35.54 79.56 36.03 80.74 36.05 80.78 36.2 80.76 36.18 80.72 35.68 79.51 34.7 78.64 33.39 78.48 33.29 78.47 33.53 78.43 33.57 78.41 33.68 78.35 33.79 78.29 33.9 78.23 34.14 78.1 34.55 78.28 34.78 78.36 35.29 78.54 35.73 78.89 36.09 79.28 36.4 79.63 36.65 80.06 36.76 80.52 36.8 80.7 36.79 80.9 36.72 81.07 36.55 81.45 36.23 80.84 36.18 80.72 36.16 80.68 36.01 80.7 36.03 80.74Z" fill="#BCC8CE"/></g><g><path d="M37.94 79.23C37.48 78.24 36.46 77.4 35.25 77.31 35.14 77.39 34.96 77.51 34.7 77.68 35.36 77.77 36.69 78.17 37.37 79.89 37.74 80.86 38.44 80.3 37.94 79.23Z" fill="#F7F7F7"/><path d="M38.01 79.22C37.65 78.48 37.06 77.9 36.31 77.55 35.99 77.4 35.62 77.3 35.26 77.29 35.07 77.28 34.78 77.58 34.63 77.68 34.6 77.7 34.65 77.72 34.66 77.72 35.9 77.9 36.82 78.77 37.29 79.91 37.41 80.2 37.6 80.5 37.95 80.41 38.4 80.28 38.12 79.47 38.01 79.22 37.99 79.18 37.84 79.2 37.86 79.25 37.95 79.46 38.01 79.66 38.03 79.89 38.04 80.04 37.98 80.53 37.67 80.28 37.52 80.16 37.45 79.93 37.38 79.77 37.28 79.55 37.18 79.35 37.05 79.15 36.7 78.59 36.16 78.14 35.55 77.89 35.33 77.8 35.1 77.73 34.87 77.69 34.76 77.67 34.75 77.71 34.86 77.63 34.95 77.57 35.03 77.51 35.12 77.45 35.33 77.31 35.51 77.38 35.75 77.44 36.68 77.68 37.44 78.4 37.85 79.25 37.88 79.28 38.03 79.26 38.01 79.22Z" fill="#BCC8CE"/></g></g></g><g opacity="0.8"><path d="M34.94 80.62C33.26 79.33 31.69 79.36 30.65 79.64 30.29 79.81 30.12 79.95 30.12 79.95L30.07 79.97C29.85 80.09 28.88 80.66 28.52 81.54 28.56 83.27 30.33 85.57 36.24 84.85 36.55 84.81 36.85 84.77 37.15 84.73 36.99 83.42 36.45 81.79 34.94 80.62ZM33.28 84.54C30.59 84.34 28.37 82.9 28.92 81.63 29.68 79.91 31.34 79.09 33.66 80.4 36 81.7 35.98 84.73 33.28 84.54Z" fill="#BCC8CE"/></g><g opacity="0.5"><path d="M46.55 78.14C45.3 79.63 41.08 78.87 39.99 78.2 37.23 76.5 36.05 76.65 35.33 76.44 35.28 76.82 35.42 77.18 35.42 77.18 35.42 77.18 35.41 77.19 35.4 77.2 36.75 77.28 38.54 77.86 40.02 79.69 41.93 82.04 38.27 84.06 36.85 81.83 35.71 80.04 34.2 79.15 32.29 78.97 31.72 79.22 31.31 79.38 31.31 79.38 31.04 79.47 30.82 79.56 30.64 79.65 31.68 79.38 33.25 79.34 34.93 80.63 36.45 81.8 36.98 83.43 37.14 84.74 42.82 83.91 45.87 82.17 47.04 80.77 46.97 79.54 46.88 78.61 46.55 78.14Z" fill="#96592F"/></g></g></g><g><radialGradient cx="-96.7484" cy="16.0133" r="29.3918" gradientUnits="userSpaceOnUse" id="SVGID_1_" gradientTransform="matrix(-0.5812 0 0 0.6145 -39.8464 10.385)"><stop offset="0" stop-color="#F4CBBF"/><stop offset="0.4996" stop-color="#E9BCAA"/><stop offset="0.5775" stop-color="#E7B9A6"/><stop offset="0.6894" stop-color="#E5B3A0"/><stop offset="0.8426" stop-color="#DEA18E"/><stop offset="1" stop-color="#D58875"/></radialGradient><radialGradient cx="-846.61" cy="235.459" r="19.741" gradientUnits="userSpaceOnUse" id="SVGID_2_" gradientTransform="matrix(0.576 0.0821 -0.0776 0.6091 530.465 -58.4726)"><stop offset="0" stop-color="#F4CBBF"/><stop offset="0.6476" stop-color="#E9BCAA"/><stop offset="0.7485" stop-color="#E7B9A6"/><stop offset="0.8151" stop-color="#E5B3A0"/><stop offset="0.9053" stop-color="#DEA28F"/><stop offset="1" stop-color="#D58875"/></radialGradient><path d="M15.59 10.3C15.59 10.3 11.45 24.56 22.77 26.65 27.55 27.68 32.47 25.31 33.25 22.37 34.48 17.79 34.11 11.72 31.63 7.54 29.15 3.37 19.51 5.06 15.59 10.3Z" fill="url(#SVGID_1_)"/><path d="M32.49 16.99C32.49 16.99 30.57 18.25 29.67 12.61 29.67 12.61 28.88 13.98 27.8 13.98 26.72 13.98 27.48 11.67 27.48 11.67 27.48 11.67 26.39 13.33 25.18 13.08 23.97 12.83 25.04 10.45 25.04 10.45 25.04 10.45 23.59 12.25 22.59 11.98 21.6 11.71 22.79 9.22 22.79 9.22 22.79 9.22 20.59 10.7 19.49 11.04 18.38 11.37 18.17 10.41 18.56 9.22 18.96 8.03 16.21 10.39 15.83 11.04 15.46 11.68 14.9 14.66 14.89 14.71 15.04 12.2 15.59 10.31 15.59 10.31 19.51 5.07 29.15 3.38 31.63 7.56 34.11 11.74 34.47 17.8 33.25 22.39 33.13 22.85 32.9 23.3 32.59 23.72L32.25 23.78C32.25 23.77 33.65 21.37 32.49 16.99Z" fill="url(#SVGID_2_)"/><g><radialGradient cx="-109.266" cy="13.4252" r="30.9769" gradientUnits="userSpaceOnUse" id="SVGID_3_" gradientTransform="matrix(-0.5812 0 0 0.6145 -39.8464 10.385)"><stop offset="0.4271" stop-color="#651221"/><stop offset="0.5379" stop-color="#741521"/><stop offset="0.7499" stop-color="#9A1D23"/><stop offset="1" stop-color="#CF2824"/></radialGradient><path d="M26.31 26.84C26.31 26.84 29.59 26.67 31.84 24.28 34.09 21.9 33.03 16.84 32.27 14.5 32.27 14.5 32.35 16.15 31.54 16.3 30.73 16.45 29.98 12.91 29.94 11.03 29.94 11.03 29.31 12.62 28.4 13.35 27.1 14.4 27.91 10.72 27.91 10.72L27.93 10.61C27.93 10.61 27.2 12.12 25.88 12.66 24.56 13.2 24.83 11.87 25.7 9.32 25.7 9.32 24.18 10.59 23.17 11.47 22.16 12.35 22.38 9.96 23.59 8.48 23.59 8.48 21.06 10.22 19.56 10.72 18.06 11.22 18.63 8.8 19.84 7.94 19.84 7.94 17.74 8.01 14.56 11.79 13.93 12.54 13.3 10.49 14.46 8.7 14.46 8.7 13.69 9.45 12.88 9.66 12.06 9.86 11.78 7.96 15 5.93 15 5.93 14.15 6.14 13.4 6.58 12.65 7.02 12.43 4.27 19.13 1.46 27.78-2.18 33.94 1.73 36.18 5.32 36.18 5.32 35.7 3.45 36.65 3.54 37.6 3.62 36.94 5.6 36.94 5.6 36.94 5.6 38.18 5.43 39.26 6.13 40.34 6.83 37.68 6.66 37.68 6.66 37.68 6.66 39.1 7.16 40.53 10.09 41.95 13.02 41.19 13.35 40.53 12.34 40.53 12.34 41.31 13.86 41.14 16.38 40.96 18.9 40.41 17.92 40.11 17.21 40.11 17.21 40.37 18.73 39.42 21.13 38.47 23.53 37.6 23.12 38.1 20.54 38.1 20.54 37.45 23.44 34.44 25.13 31.43 26.82 28.78 27.15 26.31 26.84Z" fill="url(#SVGID_3_)"/><path d="M35.88 5.37C35.88 5.37 33.28 0.9 26.47 0.45 19.65 0 15.72 4.26 15.72 4.26 15.72 4.26 25.59-2.9 35.88 5.37Z" fill="#FFFFFF"/></g><g><linearGradient x1="1125.61" y1="846.265" x2="1128.15" y2="843.572" gradientUnits="userSpaceOnUse" id="SVGID_5_" gradientTransform="matrix(-0.9913 -0.1321 -0.1321 0.9913 1264.01 -666.781)"><stop offset="0" stop-color="#F4CBBF"/><stop offset="0.2841" stop-color="#E6B6AA"/><stop offset="0.8696" stop-color="#C38073"/><stop offset="1" stop-color="#BB7366"/></linearGradient><g><radialGradient cx="985.833" cy="1091.28" r="8.4726" gradientUnits="userSpaceOnUse" id="SVGID_4_" gradientTransform="matrix(-0.5587 -0.1692 -0.16 0.5908 762.907 -454.814)"><stop offset="0" stop-color="#F4CBBF"/><stop offset="0.4886" stop-color="#E9BCAA"/><stop offset="0.5648" stop-color="#E7B9A6"/><stop offset="0.68" stop-color="#E5B3A0"/><stop offset="0.8362" stop-color="#DEA28F"/><stop offset="1" stop-color="#D58875"/></radialGradient><path d="M33.19 19.33C33.19 19.33 34.22 17.96 35.53 19.03 36.84 20.1 35.87 23.3 32.86 22.47 32.86 22.47 33.31 21.22 33.19 19.33Z" fill="url(#SVGID_4_)"/></g><path d="M34.6 19.73C35.3 19.57 35.42 20.37 35.42 20.37 35.3 20.13 35.01 19.83 34.44 20.13 34.24 20.24 34.12 20.48 34.05 20.76 34.24 21.64 34.88 21.07 34.88 21.07 34.88 21.07 34.71 21.62 34.23 21.53 34.09 21.51 34.01 21.44 33.97 21.36 33.95 21.66 33.96 21.9 33.96 21.9 33.61 21.43 33.9 19.89 34.6 19.73Z" fill="url(#SVGID_5_)"/></g><g><g><linearGradient x1="-129.957" y1="-11.3606" x2="-129.832" y2="-7.878" gradientUnits="userSpaceOnUse" id="SVGID_20_" gradientTransform="matrix(-0.9099 -0.4148 -0.4148 0.9099 -98.8326 -29.9801)"><stop offset="0" stop-color="#CF2824"/><stop offset="0.4366" stop-color="#9A1D23"/><stop offset="0.8066" stop-color="#741521"/><stop offset="1" stop-color="#651221"/></linearGradient><linearGradient x1="-107.869" y1="12.5171" x2="-107.676" y2="16.0679" gradientUnits="userSpaceOnUse" id="SVGID_21_" gradientTransform="matrix(-1 0 0 1 -90.9008 0)"><stop offset="0" stop-color="#CF2824"/><stop offset="0.4366" stop-color="#9A1D23"/><stop offset="0.8066" stop-color="#741521"/><stop offset="1" stop-color="#651221"/></linearGradient><g><radialGradient cx="-97.5653" cy="13.7687" r="6.5348" gradientUnits="userSpaceOnUse" id="SVGID_6_" gradientTransform="matrix(-0.5812 0 0 0.6145 -39.8464 10.385)"><stop offset="0" stop-color="#E7B9A6"/><stop offset="0.2648" stop-color="#E5B3A0"/><stop offset="0.6236" stop-color="#DEA28F"/><stop offset="1" stop-color="#D58875"/></radialGradient><path d="M15.19 18.2C15.09 16.88 15.62 15.75 16.36 15.68 17.1 15.61 17.78 16.63 17.87 17.96 17.96 19.28 17.44 20.41 16.7 20.48 16.62 20.49 16.54 20.48 16.46 20.46 16.48 20.48 16.49 20.5 16.5 20.51 16.54 20.55 16.57 20.6 16.59 20.64 16.65 20.73 16.68 20.81 16.7 20.86 16.72 20.92 16.73 20.95 16.73 20.95 16.73 20.95 16.71 20.92 16.68 20.87 16.65 20.82 16.6 20.76 16.53 20.69 16.47 20.62 16.39 20.54 16.3 20.46 16.26 20.42 16.21 20.38 16.16 20.34 16.11 20.3 16.06 20.27 16.01 20.23 15.96 20.2 15.91 20.16 15.86 20.13 15.81 20.1 15.76 20.07 15.71 20.04 15.66 20.02 15.61 19.99 15.56 19.97 15.51 19.95 15.47 19.93 15.43 19.91 15.35 19.87 15.27 19.84 15.22 19.82 15.17 19.8 15.14 19.79 15.14 19.79 15.14 19.79 15.17 19.79 15.22 19.8 15.27 19.81 15.35 19.81 15.44 19.84 15.48 19.85 15.53 19.86 15.59 19.88 15.64 19.9 15.69 19.92 15.74 19.94 15.46 19.53 15.24 18.91 15.19 18.2Z" fill="url(#SVGID_6_)" opacity="0.8"/><g><g><linearGradient x1="-97.5049" y1="28.6808" x2="-95.6833" y2="24.3165" gradientUnits="userSpaceOnUse" id="SVGID_7_" gradientTransform="matrix(-0.9999 0.0123 0.0123 0.9999 -80.4697 -7.3976)"><stop offset="0" stop-color="#FFFFFF"/><stop offset="0.8358" stop-color="#EAEAEA"/><stop offset="1" stop-color="#E5E5E5"/></linearGradient><path d="M16.37 15.9C17.06 15.84 17.68 16.79 17.77 18.01 17.86 19.24 17.37 20.28 16.68 20.35 15.99 20.41 15.37 19.47 15.28 18.24 15.2 17.01 15.69 15.96 16.37 15.9Z" fill="url(#SVGID_7_)"/><g><linearGradient x1="-104.895" y1="12.2988" x2="-104.141" y2="15.254" gradientUnits="userSpaceOnUse" id="SVGID_8_" gradientTransform="matrix(-0.9932 -0.1152 -0.1152 0.9932 -85.7831 -6.9126)"><stop offset="0.2679" stop-color="#235774"/><stop offset="1" stop-color="#092E43"/></linearGradient><linearGradient x1="-433.426" y1="8.6179" x2="-432.438" y2="8.6179" gradientUnits="userSpaceOnUse" id="SVGID_9_" gradientTransform="matrix(0.9879 -0.1544 0.1544 0.9879 442.725 -56.122)"><stop offset="0.2679" stop-color="#235774"/><stop offset="1" stop-color="#092E43"/></linearGradient><linearGradient x1="-531.681" y1="500.066" x2="-532.7" y2="500.147" gradientUnits="userSpaceOnUse" id="SVGID_10_" gradientTransform="matrix(0.974 -0.2263 0.2263 0.974 421.908 -589.204)"><stop offset="0" stop-color="#FFFFFF"/><stop offset="0.8358" stop-color="#EAEAEA"/><stop offset="1" stop-color="#E5E5E5"/></linearGradient><path d="M16.39 17.23C16.85 17.22 17.24 17.91 17.27 18.77 17.3 19.63 16.96 20.33 16.5 20.34 16.05 20.35 15.65 19.65 15.62 18.8 15.59 17.94 15.94 17.24 16.39 17.23Z" fill="url(#SVGID_8_)"/><path d="M16.84 19.22C16.85 19.76 16.65 20.21 16.38 20.22 16.11 20.23 15.89 19.79 15.87 19.25 15.86 18.71 16.06 18.26 16.33 18.25 16.6 18.25 16.83 18.68 16.84 19.22Z" fill="url(#SVGID_9_)"/><path d="M16.95 18.27C17.02 18.58 16.95 18.87 16.8 18.92 16.65 18.96 16.46 18.75 16.39 18.43 16.32 18.12 16.39 17.83 16.54 17.78 16.69 17.74 16.87 17.96 16.95 18.27Z" fill="url(#SVGID_10_)"/></g></g></g></g><g><radialGradient cx="-110.247" cy="2.2422" r="4.4743" gradientUnits="userSpaceOnUse" id="SVGID_11_" gradientTransform="matrix(-0.5744 -0.0936 -0.0885 0.6074 -40.3538 7.5781)"><stop offset="0" stop-color="#E7B9A6"/><stop offset="0.2648" stop-color="#E5B3A0"/><stop offset="0.6236" stop-color="#DEA28F"/><stop offset="1" stop-color="#D58875"/></radialGradient><path d="M22 16.32C22.91 16.08 23.94 17.09 24.3 18.57 24.54 19.57 24.42 20.54 24.03 21.13 24.06 21.12 24.09 21.11 24.12 21.1 24.18 21.08 24.24 21.05 24.29 21.04 24.4 21.01 24.49 20.99 24.55 20.98 24.61 20.97 24.65 20.97 24.65 20.97 24.65 20.97 24.61 20.98 24.56 21.01 24.5 21.03 24.42 21.08 24.32 21.13 24.27 21.15 24.22 21.19 24.16 21.21 24.1 21.24 24.04 21.27 23.99 21.31 23.93 21.34 23.87 21.38 23.82 21.41 23.7 21.52 23.57 21.61 23.42 21.67 23.37 21.71 23.32 21.75 23.27 21.78 23.21 21.82 23.16 21.86 23.11 21.9 23.06 21.94 23.01 21.98 22.97 22.01 22.88 22.08 22.81 22.14 22.75 22.18 22.7 22.22 22.67 22.24 22.67 22.24 22.67 22.24 22.69 22.21 22.73 22.16 22.77 22.11 22.83 22.03 22.91 21.95 22.95 21.91 22.99 21.86 23.04 21.82 23.06 21.8 23.09 21.77 23.12 21.75 22.26 21.81 21.35 20.84 21.02 19.46 20.65 17.96 21.09 16.56 22 16.32Z" fill="url(#SVGID_11_)" opacity="0.8"/><g><linearGradient x1="-95.1614" y1="43.1965" x2="-93.0855" y2="38.2228" gradientUnits="userSpaceOnUse" id="SVGID_12_" gradientTransform="matrix(-0.9838 0.1795 0.1795 0.9838 -77.3812 -4.308)"><stop offset="0" stop-color="#FFFFFF"/><stop offset="0.8358" stop-color="#EAEAEA"/><stop offset="1" stop-color="#E5E5E5"/></linearGradient><path d="M22.07 16.6C22.9 16.38 23.84 17.3 24.17 18.67 24.5 20.03 24.09 21.31 23.26 21.53 22.43 21.75 21.49 20.83 21.16 19.46 20.83 18.11 21.24 16.82 22.07 16.6Z" fill="url(#SVGID_12_)"/><g><linearGradient x1="-103.839" y1="25.1364" x2="-102.975" y2="28.5236" gradientUnits="userSpaceOnUse" id="SVGID_13_" gradientTransform="matrix(-0.9986 0.0528 0.0528 0.9986 -82.0147 -1.4731)"><stop offset="0.2679" stop-color="#235774"/><stop offset="1" stop-color="#092E43"/></linearGradient><linearGradient x1="-439.832" y1="22.6341" x2="-438.6" y2="22.6341" gradientUnits="userSpaceOnUse" id="SVGID_14_" gradientTransform="matrix(0.9481 -0.3177 0.3177 0.9481 431.826 -140.725)"><stop offset="0.2679" stop-color="#235774"/><stop offset="1" stop-color="#092E43"/></linearGradient><linearGradient x1="-538.3" y1="512.921" x2="-539.561" y2="513.021" gradientUnits="userSpaceOnUse" id="SVGID_15_" gradientTransform="matrix(0.9224 -0.3862 0.3862 0.9224 321.925 -661.976)"><stop offset="0" stop-color="#FFFFFF"/><stop offset="0.8358" stop-color="#EAEAEA"/><stop offset="1" stop-color="#E5E5E5"/></linearGradient><path d="M22.32 18.09C22.88 17.98 23.48 18.67 23.68 19.63 23.87 20.59 23.58 21.45 23.02 21.56 22.46 21.67 21.85 20.98 21.66 20.02 21.47 19.07 21.76 18.2 22.32 18.09Z" fill="url(#SVGID_13_)"/><path d="M23.19 20.15C23.3 20.76 23.13 21.3 22.81 21.37 22.48 21.44 22.13 21 22.01 20.39 21.9 19.78 22.07 19.24 22.39 19.17 22.71 19.11 23.07 19.55 23.19 20.15Z" fill="url(#SVGID_14_)"/><path d="M23.18 19.21C23.32 19.55 23.29 19.89 23.11 19.97 22.93 20.05 22.66 19.85 22.52 19.51 22.37 19.17 22.41 18.83 22.59 18.75 22.77 18.67 23.04 18.87 23.18 19.21Z" fill="url(#SVGID_15_)"/></g></g></g><g><radialGradient cx="-422.613" cy="423.637" r="5.5387" gradientUnits="userSpaceOnUse" id="SVGID_16_" gradientTransform="matrix(0.5677 -0.1313 0.1241 0.6003 207.594 -288.641)"><stop offset="0" stop-color="#E7B9A6"/><stop offset="0.2648" stop-color="#E5B3A0"/><stop offset="0.6236" stop-color="#DEA28F"/><stop offset="1" stop-color="#D58875"/></radialGradient><defs><filter id="Adobe_OpacityMaskFilter" x="18.59" y="20.1" width="0.68" height="0.72" filterUnits="userSpaceOnUse" primitiveUnits="userSpaceOnUse"><feFlood flood-color="#FFFFFF" result="back"/><feBlend in="SourceGraphic" in2="back" mode="normal"/></filter></defs><mask maskUnits="userSpaceOnUse" x="18.59" y="20.1" width="0.68" height="0.72" id="SVGID_17_"><g filter="url(#Adobe_OpacityMaskFilter)"><defs><filter id="Adobe_OpacityMaskFilter_1_" x="18.59" y="20.1" width="0.68" height="0.72" filterUnits="userSpaceOnUse" primitiveUnits="userSpaceOnUse"><feFlood flood-color="#FFFFFF" result="back"/><feBlend in="SourceGraphic" in2="back" mode="normal"/></filter></defs><mask maskUnits="userSpaceOnUse" x="18.59" y="20.1" width="0.68" height="0.72" id="SVGID_17_"><g filter="url(#Adobe_OpacityMaskFilter_1_)"></g></mask><radialGradient cx="-290.89" cy="494.116" r="2.5284" gradientUnits="userSpaceOnUse" id="SVGID_18_" gradientTransform="matrix(0.5237 0.2665 -0.252 0.5538 295.639 -176.036)"><stop offset="0" stop-color="#FFFFFF"/><stop offset="0.0858" stop-color="#F4F4F4"/><stop offset="0.2353" stop-color="#D8D8D8"/><stop offset="0.4306" stop-color="#A9A9A9"/><stop offset="0.6642" stop-color="#696969"/><stop offset="0.9275" stop-color="#181818"/><stop offset="1"/></radialGradient><path d="M19.23 20.61C19.15 20.79 18.95 20.86 18.78 20.78 18.61 20.69 18.54 20.48 18.62 20.3 18.7 20.12 18.9 20.05 19.07 20.13 19.24 20.22 19.31 20.43 19.23 20.61Z" fill="url(#SVGID_18_)" mask="url(#SVGID_17_)"/></g></mask><radialGradient cx="-290.89" cy="494.116" r="2.5284" gradientUnits="userSpaceOnUse" id="SVGID_19_" gradientTransform="matrix(0.5237 0.2665 -0.252 0.5538 295.639 -176.036)"><stop offset="0" stop-color="#FFFFFF"/><stop offset="1" stop-color="#FFFFFF"/></radialGradient><path d="M19.51 21.72C18.12 21.93 17.79 20.39 18.57 19.97 19.32 19.57 19.66 20.35 19.66 20.35 19.64 20.29 19.51 20.23 19.47 20.2 19.33 20.11 19.18 20.03 19.02 20.02 18.37 19.97 18.18 20.75 18.49 21.23 18.59 21.39 18.77 21.51 18.94 21.56 19.49 21.73 19.51 21.72 19.51 21.72Z" fill="url(#SVGID_16_)" opacity="0.8"/><path d="M19.23 20.61C19.15 20.79 18.95 20.86 18.78 20.78 18.61 20.69 18.54 20.48 18.62 20.3 18.7 20.12 18.9 20.05 19.07 20.13 19.24 20.22 19.31 20.43 19.23 20.61Z" fill="url(#SVGID_19_)" opacity="0.7"/></g><path d="M24.52 16.61C23.17 14.87 22.25 15.13 21.06 15.95 20.66 16.23 21.7 14.23 22.83 14.46 24.1 14.72 24.91 17.11 24.52 16.61Z" fill="url(#SVGID_20_)"/><path d="M17.85 14.81C17.34 13.46 16.49 13.26 15.86 14.66 15.6 15.23 15.74 15.23 15.94 14.96 16.08 14.76 16.93 13.79 17.72 15.05 17.97 15.46 17.98 15.13 17.85 14.81Z" fill="url(#SVGID_21_)"/></g><g><linearGradient x1="-111.193" y1="25.8775" x2="-114.218" y2="24.0977" gradientUnits="userSpaceOnUse" id="SVGID_22_" gradientTransform="matrix(-1 0 0 1 -90.9008 0)"><stop offset="0.1146" stop-color="#E75768"/><stop offset="1" stop-color="#3E150E"/></linearGradient><radialGradient cx="-107.925" cy="24.2061" r="2.3967" gradientUnits="userSpaceOnUse" id="SVGID_23_" gradientTransform="matrix(-0.5812 0 0 0.6145 -39.8464 10.385)"><stop offset="0" stop-color="#E75768"/><stop offset="1" stop-color="#791711"/></radialGradient><path d="M22.01 24.68C23.05 24.33 23.11 23.57 23.11 23.57 23.2 23.79 23.32 24.07 23.43 24.35 23.16 24.74 22.66 25.2 22.01 24.68Z" fill="#FFFFFF"/><path d="M21.92 24.71C21.95 24.7 21.98 24.69 22.01 24.68 22.66 25.2 23.16 24.74 23.43 24.36 23.47 24.47 23.51 24.58 23.54 24.68 23.22 24.85 22.72 25.27 22.77 26.17 21.58 26.04 19.8 24.42 19.8 24.42 19.8 24.42 20.79 25.04 21.92 24.71Z" fill="url(#SVGID_22_)"/><path d="M23.54 24.68C23.76 25.39 23.8 26.08 23.06 26.17 22.97 26.18 22.88 26.18 22.78 26.17 22.72 25.26 23.22 24.85 23.54 24.68Z" fill="url(#SVGID_23_)"/></g></g></g></g></svg>