<svg width="74.59" height="94.65" viewBox="0 0 74.59 94.65" xmlns="http://www.w3.org/2000/svg" xmlns:xlink="http://www.w3.org/1999/xlink" xml:space="preserve" overflow="hidden"><defs></defs><g><g><linearGradient x1="45.4842" y1="67.7948" x2="73.2879" y2="67.7948" gradientUnits="userSpaceOnUse" id="SVGID_1_"><stop offset="0.1927" stop-color="#56A033"/><stop offset="1" stop-color="#006238"/></linearGradient><linearGradient x1="53.2179" y1="67.7948" x2="73.2879" y2="67.7948" gradientUnits="userSpaceOnUse" id="SVGID_2_"><stop offset="0.1927" stop-color="#56A033"/><stop offset="1" stop-color="#006238"/></linearGradient><linearGradient x1="87.8419" y1="71.5239" x2="46.6193" y2="54.7907" gradientUnits="userSpaceOnUse" id="SVGID_3_"><stop offset="0.1963" stop-color="#00671F"/><stop offset="1" stop-color="#004000"/></linearGradient><linearGradient x1="87.9532" y1="69.6572" x2="47.8078" y2="53.3612" gradientUnits="userSpaceOnUse" id="SVGID_4_"><stop offset="0.1963" stop-color="#00671F"/><stop offset="1" stop-color="#004000"/></linearGradient><linearGradient x1="59.3801" y1="70.6163" x2="59.3801" y2="73.8044" gradientUnits="userSpaceOnUse" id="SVGID_5_"><stop offset="0.1927" stop-color="#56A033"/><stop offset="1" stop-color="#006238"/></linearGradient><linearGradient x1="59.3095" y1="69.5602" x2="59.3095" y2="72.7454" gradientUnits="userSpaceOnUse" id="SVGID_6_"><stop offset="0" stop-color="#6C6C6B"/><stop offset="1" stop-color="#1B1B12"/></linearGradient><linearGradient x1="56.6248" y1="65.5557" x2="56.6248" y2="67.2365" gradientUnits="userSpaceOnUse" id="SVGID_7_"><stop offset="0" stop-color="#6C6C6B"/><stop offset="1" stop-color="#1B1B12"/></linearGradient><linearGradient x1="79.0285" y1="309.36" x2="79.0285" y2="313.694" gradientUnits="userSpaceOnUse" id="SVGID_8_" gradientTransform="matrix(0 -1 1 0 -264.161 170.443)"><stop offset="0" stop-color="#6C6C6B"/><stop offset="1" stop-color="#1B1B12"/></linearGradient><linearGradient x1="79.0285" y1="332.864" x2="79.0285" y2="337.2" gradientUnits="userSpaceOnUse" id="SVGID_9_" gradientTransform="matrix(0 -1 1 0 -264.161 170.443)"><stop offset="0" stop-color="#6C6C6B"/><stop offset="1" stop-color="#1B1B12"/></linearGradient><path d="M59.39 45.16C44.38 45.16 45.51 59.29 45.51 59.29L45.51 90.44 73.28 90.44 73.28 59.29C73.27 59.29 74.39 45.16 59.39 45.16Z" fill="url(#SVGID_1_)"/><path d="M59.39 45.16C58.46 45.16 57.6 45.21 56.79 45.31 69.06 46.85 68.07 59.28 68.07 59.28 68.07 59.28 68.07 69.5 68.07 78.82 68.07 86.74 60.47 89.54 53.22 90.42L73.27 90.42 73.27 59.29C73.27 59.29 74.39 45.16 59.39 45.16Z" fill="url(#SVGID_2_)" opacity="0.3"/><path d="M56.62 48.6C47.49 48.6 48.18 55.8 48.18 55.8L48.18 66.7 65.07 66.7 65.07 55.8C65.06 55.8 65.74 48.6 56.62 48.6Z" fill="url(#SVGID_3_)"/><path d="M56.62 48.6C53.36 48.6 51.35 49.52 50.12 50.7 50.97 50.47 51.98 50.31 53.18 50.32 58 50.38 57.6 56.83 57.6 56.83L57.6 66.69 65.07 66.69 65.07 55.8C65.06 55.8 65.74 48.6 56.62 48.6Z" fill="url(#SVGID_4_)" opacity="0.4"/><path d="M73.27 73.41C72.56 73.41 46.43 73.41 45.5 73.41 45.5 73.41 45.35 71.29 46.12 71.29 46.88 71.29 72.02 71.29 72.64 71.29 73.26 71.29 73.27 73.41 73.27 73.41Z" fill="url(#SVGID_5_)" opacity="0.3"/><path d="M74.04 72.35C73.26 72.35 45.76 72.35 44.74 72.35 43.72 72.35 43.9 70.24 44.74 70.24 45.58 70.24 73.36 70.24 74.04 70.24 74.72 70.24 74.82 72.35 74.04 72.35Z" fill="url(#SVGID_6_)"/><path d="M65.65 67.03C64.99 67.03 48.14 67.03 47.52 67.03 46.9 67.03 46.94 65.91 47.52 65.91 48.1 65.91 64.9 65.91 65.65 65.91 66.4 65.91 66.31 67.03 65.65 67.03Z" fill="url(#SVGID_7_)"/><path d="M46.12 90.43 46.12 91.7C46.12 92.54 49 92.72 49 91.7L49 90.43 46.12 90.43Z" fill="url(#SVGID_8_)"/><path d="M69.62 90.43 69.62 91.7C69.62 92.54 72.5 92.72 72.5 91.7L72.5 90.43 69.62 90.43Z" fill="url(#SVGID_9_)"/></g><g><g><g><radialGradient cx="36.9426" cy="44.8859" r="7.2638" gradientUnits="userSpaceOnUse" id="SVGID_10_"><stop offset="0.1232" stop-color="#2CACE3"/><stop offset="0.3686" stop-color="#29A3DC"/><stop offset="0.7714" stop-color="#218ACA"/><stop offset="1" stop-color="#1B79BE"/></radialGradient><linearGradient x1="46.7517" y1="51.5687" x2="44.592" y2="55.7012" gradientUnits="userSpaceOnUse" id="SVGID_11_"><stop offset="0" stop-color="#F4CBBF"/><stop offset="0.4374" stop-color="#E9BCAA"/><stop offset="0.5056" stop-color="#E7B9A6"/><stop offset="1" stop-color="#D6957A"/></linearGradient><path d="M30 43.89C31.35 42.06 36.8 45.31 39.57 47.18 39.57 47.18 39.19 49.92 37.04 51.96 37.04 51.96 27.74 46.97 30 43.89Z" fill="url(#SVGID_10_)"/><path d="M54.31 54.29C53.84 53.5 50.57 54.32 49.48 54.61 48.39 54.9 49.05 55.02 45.92 52.7 43.58 50.97 40.66 49 39.35 48.12 39.13 48.83 38.72 49.86 37.99 50.87 40.61 52.63 47.45 56.62 47.55 56.77 47.67 56.94 47.53 58.22 48.71 58.39 49.88 58.56 50.67 57.81 50.67 57.81 50.67 57.81 51.78 58.2 52.08 57.81 52.39 57.42 51.45 56.99 51.45 56.99 51.45 56.99 52.52 57.45 52.76 56.99 53 56.53 52.15 56.14 52.15 56.14 52.15 56.14 53.7 56.29 53.75 55.75 53.8 55.21 52.73 55.16 52.73 55.16 53.51 54.92 54.49 54.6 54.31 54.29Z" fill="url(#SVGID_11_)"/></g><path d="M34.27 47.65C32.98 45.31 31.42 43.74 32.64 43.55 31.45 43.22 30.48 43.24 30.01 43.88 27.74 46.96 37.05 51.95 37.05 51.95 37.17 51.84 37.27 51.73 37.38 51.62 36.49 50.78 35.24 49.41 34.27 47.65Z" fill="#141313" opacity="0.6"/></g><g><linearGradient x1="24.0814" y1="85.2448" x2="15.0995" y2="76.7391" gradientUnits="userSpaceOnUse" id="SVGID_12_"><stop offset="0" stop-color="#F4CBBF"/><stop offset="0.4374" stop-color="#E9BCAA"/><stop offset="0.5056" stop-color="#E7B9A6"/><stop offset="1" stop-color="#D6957A"/></linearGradient><path d="M20.6 74.22C19.42 79.58 11.91 83.05 11.91 83.05 11.91 83.05 11.62 84.09 12.05 85.02 12.05 85.02 13.43 84.59 14.6 85.29 14.6 85.29 16.71 84 20.71 81 23.55 78.88 24.54 76.19 24.88 74.81 22.97 74.79 21.49 74.47 20.6 74.22Z" fill="url(#SVGID_12_)"/><g><radialGradient cx="16.2172" cy="87.3349" r="7.9119" gradientUnits="userSpaceOnUse" id="SVGID_13_"><stop offset="0" stop-color="#E62532"/><stop offset="0.2686" stop-color="#E02431"/><stop offset="0.6102" stop-color="#D11F2E"/><stop offset="0.99" stop-color="#B7182A"/><stop offset="1" stop-color="#B6182A"/></radialGradient><radialGradient cx="17.147" cy="96.9269" r="17.3058" gradientUnits="userSpaceOnUse" id="SVGID_14_"><stop offset="0" stop-color="#E62532"/><stop offset="0.2686" stop-color="#E02431"/><stop offset="0.6102" stop-color="#D11F2E"/><stop offset="0.99" stop-color="#B7182A"/><stop offset="1" stop-color="#B6182A"/></radialGradient><path d="M16.37 94.43C17.99 93.86 18.35 92.41 17.27 91.24 16.03 89.9 14.68 88.26 15.19 86.9 15.7 85.54 14.59 85.28 14.59 85.28 13.42 84.58 12.04 85.01 12.04 85.01 11.61 84.08 11.9 83.04 11.9 83.04 11.53 82.64 9.7 83.47 8.75 84.15 9.16 86.01 10.14 89.56 12.05 91.59 13.51 93.13 15.16 93.98 16.37 94.43Z" fill="url(#SVGID_13_)"/><path d="M12.07 91.6C10.16 89.57 9.17 86.02 8.77 84.16 8.42 84.42 8.18 84.65 8.2 84.79 8.85 90.79 13.26 94.95 15.56 94.63 15.86 94.59 16.13 94.52 16.38 94.43 15.16 93.98 13.51 93.13 12.07 91.6Z" fill="url(#SVGID_14_)"/></g></g><g><linearGradient x1="39.3906" y1="80.8348" x2="31.5672" y2="80.9028" gradientUnits="userSpaceOnUse" id="SVGID_15_"><stop offset="0" stop-color="#F4CBBF"/><stop offset="0.4374" stop-color="#E9BCAA"/><stop offset="0.5056" stop-color="#E7B9A6"/><stop offset="1" stop-color="#D6957A"/></linearGradient><path d="M33 88.92C34.43 88.9 34.5 87.88 35.31 87.7 35.31 87.7 37.62 79.06 36.67 72.83 35.2 73.43 33.6 73.81 32.56 74.02 32.97 75.12 33.43 77.31 32.95 81.17 32.18 87.34 31.46 88.43 31.46 88.43 31.46 88.43 31.57 88.94 33 88.92Z" fill="url(#SVGID_15_)"/><g><radialGradient cx="37.8959" cy="86.7909" r="8.67" gradientUnits="userSpaceOnUse" id="SVGID_16_"><stop offset="0" stop-color="#E62532"/><stop offset="0.2686" stop-color="#E02431"/><stop offset="0.6102" stop-color="#D11F2E"/><stop offset="0.99" stop-color="#B7182A"/><stop offset="1" stop-color="#B6182A"/></radialGradient><radialGradient cx="42.5218" cy="93.0721" r="17.7893" gradientUnits="userSpaceOnUse" id="SVGID_17_"><stop offset="0" stop-color="#E62532"/><stop offset="0.2686" stop-color="#E02431"/><stop offset="0.6102" stop-color="#D11F2E"/><stop offset="0.99" stop-color="#B7182A"/><stop offset="1" stop-color="#B6182A"/></radialGradient><path d="M43.85 91.83C43.79 90.97 42.95 89.79 40.84 89.79 37.8 89.79 36.89 87.52 35.31 87.7 34.5 87.88 34.43 88.9 33 88.92 31.57 88.94 31.47 88.42 31.47 88.42 31.47 88.42 30.78 87.88 30.24 90.1 30.07 90.79 29.88 91.35 29.83 91.81 30.64 92.37 32.4 93.06 36.15 93.17 40.37 93.28 42.72 92.43 43.85 91.83Z" fill="url(#SVGID_16_)"/><path d="M36.15 93.16C32.39 93.05 30.64 92.36 29.83 91.8 29.72 92.8 30.28 93.32 33.16 93.72 37.35 94.31 41.51 93.7 43.52 92.63 43.76 92.5 43.88 92.19 43.85 91.81 42.72 92.43 40.37 93.28 36.15 93.16Z" fill="url(#SVGID_17_)"/></g></g><g><radialGradient cx="35.4453" cy="51.8247" r="19.4748" gradientUnits="userSpaceOnUse" id="SVGID_19_"><stop offset="0.1927" stop-color="#2CACE3"/><stop offset="1" stop-color="#1B79BE"/></radialGradient><g><linearGradient x1="25.7765" y1="44.6222" x2="29.5734" y2="44.6222" gradientUnits="userSpaceOnUse" id="SVGID_18_"><stop offset="0" stop-color="#F4CBBF"/><stop offset="0.4374" stop-color="#E9BCAA"/><stop offset="0.5056" stop-color="#E7B9A6"/><stop offset="1" stop-color="#D6957A"/></linearGradient><path d="M27.62 46.74C28.94 46.96 29.4 44.81 29.57 43.17 29.13 42.89 28.67 42.69 28.19 42.58 27.34 42.39 26.53 42.49 25.78 42.86 25.8 44.08 26.05 46.48 27.62 46.74Z" fill="url(#SVGID_18_)"/><path d="M29.57 43.17C29.4 44.81 28.94 46.96 27.62 46.74 26.05 46.48 25.8 44.07 25.77 42.86 23.43 44.02 21.58 47.84 20.34 53.97 19.05 60.33 19.66 64.21 19.66 64.21 19.66 64.21 24.29 66.12 28.91 65.66 33.54 65.21 36.8 62.8 36.8 62.8 36.8 62.8 35.17 46.7 29.57 43.17Z" fill="#191919"/></g><path d="M36.29 59.17C36.29 59.17 36.31 65.27 27.08 64.13 21.66 63.46 21.41 58.13 22.79 54.29 23.89 51.24 25.81 47.76 26.21 45.39 25.88 44.56 25.79 43.53 25.78 42.86 23.44 44.02 21.59 47.84 20.35 53.97 19.06 60.33 19.67 64.21 19.67 64.21 19.67 64.21 24.3 66.12 28.92 65.66 33.55 65.21 36.81 62.8 36.81 62.8 36.81 62.8 36.66 61.33 36.29 59.17L36.29 59.17Z" fill="url(#SVGID_19_)" opacity="0.6"/></g><g><radialGradient cx="42.9295" cy="32.912" r="29.3918" gradientUnits="userSpaceOnUse" id="SVGID_20_"><stop offset="0" stop-color="#F4CBBF"/><stop offset="0.4996" stop-color="#E9BCAA"/><stop offset="0.5775" stop-color="#E7B9A6"/><stop offset="0.6894" stop-color="#E5B3A0"/><stop offset="0.8426" stop-color="#DEA18E"/><stop offset="1" stop-color="#D58875"/></radialGradient><radialGradient cx="-995.229" cy="271.697" r="19.741" gradientUnits="userSpaceOnUse" id="SVGID_21_" gradientTransform="matrix(-0.9911 0.1336 0.1336 0.9911 -993.711 -111.208)"><stop offset="0" stop-color="#F4CBBF"/><stop offset="0.6476" stop-color="#E9BCAA"/><stop offset="0.7485" stop-color="#E7B9A6"/><stop offset="0.8151" stop-color="#E5B3A0"/><stop offset="0.9053" stop-color="#DEA28F"/><stop offset="1" stop-color="#D58875"/></radialGradient><path d="M44.3 16.77C44.3 16.77 51.43 39.97 31.95 43.38 23.73 45.06 15.27 41.2 13.91 36.42 11.8 28.96 12.43 19.09 16.7 12.29 20.96 5.49 37.55 8.24 44.3 16.77Z" fill="url(#SVGID_20_)"/><path d="M15.22 27.65C15.22 27.65 18.53 29.7 20.07 20.52 20.07 20.52 21.43 22.75 23.29 22.75 25.15 22.75 23.83 18.99 23.83 18.99 23.83 18.99 25.71 21.69 27.79 21.28 29.86 20.87 28.03 16.99 28.03 16.99 28.03 16.99 30.53 19.92 32.24 19.47 33.95 19.03 31.9 14.98 31.9 14.98 31.9 14.98 35.68 17.39 37.58 17.94 39.48 18.48 39.86 16.92 39.18 14.98 38.5 13.04 43.23 16.89 43.87 17.94 44.51 18.98 45.48 23.84 45.49 23.92 45.23 19.84 44.28 16.77 44.28 16.77 37.53 8.24 20.95 5.49 16.68 12.29 12.41 19.09 11.79 28.96 13.89 36.42 14.1 37.17 14.49 37.89 15.02 38.58L15.61 38.68C15.63 38.68 13.22 34.77 15.22 27.65Z" fill="url(#SVGID_21_)"/><g><path d="M25.85 43.67C25.85 43.67 20.21 43.39 16.33 39.51 12.45 35.63 14.28 27.4 15.58 23.59 15.58 23.59 15.45 26.28 16.84 26.51 18.23 26.75 19.53 21 19.59 17.94 19.59 17.94 20.67 20.52 22.24 21.72 24.48 23.42 23.09 17.43 23.09 17.43L23.06 17.26C23.06 17.26 24.32 19.71 26.6 20.59 28.88 21.47 28.4 19.3 26.91 15.15 26.91 15.15 29.53 17.22 31.26 18.65 32.99 20.08 32.62 16.2 30.55 13.78 30.55 13.78 34.9 16.6 37.49 17.42 40.07 18.24 39.09 14.29 37.01 12.89 37.01 12.89 40.63 13 46.09 19.15 47.18 20.37 48.27 17.04 46.26 14.11 46.26 14.11 47.58 15.33 48.98 15.67 50.37 16.01 50.85 12.92 45.31 9.62 45.31 9.62 46.77 9.96 48.07 10.67 49.36 11.38 49.74 6.92 38.22 2.33 23.34-3.55 12.74 2.8 8.87 8.65 8.87 8.65 9.69 5.61 8.05 5.75 6.42 5.88 7.55 9.1 7.55 9.1 7.55 9.1 5.42 8.83 3.56 9.96 1.7 11.09 6.28 10.82 6.28 10.82 6.28 10.82 3.83 11.64 1.38 16.4-1.07 21.16 0.25 21.71 1.38 20.05 1.38 20.05 0.03 22.53 0.34 26.63 0.65 30.73 1.6 29.13 2.11 27.97 2.11 27.97 1.67 30.44 3.3 34.34 4.93 38.24 6.43 37.58 5.58 33.38 5.58 33.38 6.7 38.1 11.87 40.86 17.04 43.63 21.6 44.18 25.85 43.67Z" fill="#211E1E"/><path d="M9.39 8.74C9.39 8.74 13.86 1.47 25.58 0.73 37.3 0 44.07 6.92 44.07 6.92 44.07 6.92 27.09-4.73 9.39 8.74Z" fill="#FFFFFF"/></g><g><linearGradient x1="1251.64" y1="879.634" x2="1255.8" y2="875.228" gradientUnits="userSpaceOnUse" id="SVGID_23_" gradientTransform="matrix(0.9913 -0.1321 0.1321 0.9913 -1348.31 -668.497)"><stop offset="0" stop-color="#F4CBBF"/><stop offset="0.2841" stop-color="#E6B6AA"/><stop offset="0.8696" stop-color="#C38073"/><stop offset="1" stop-color="#BB7366"/></linearGradient><g><radialGradient cx="1101.16" cy="1146.69" r="8.4726" gradientUnits="userSpaceOnUse" id="SVGID_22_" gradientTransform="matrix(0.9613 -0.2753 0.2753 0.9613 -1367.62 -761.602)"><stop offset="0" stop-color="#F4CBBF"/><stop offset="0.4886" stop-color="#E9BCAA"/><stop offset="0.5648" stop-color="#E7B9A6"/><stop offset="0.68" stop-color="#E5B3A0"/><stop offset="0.8362" stop-color="#DEA28F"/><stop offset="1" stop-color="#D58875"/></radialGradient><path d="M14.02 31.45C14.02 31.45 12.25 29.22 10 30.96 7.75 32.71 9.42 37.9 14.59 36.56 14.58 36.56 13.81 34.53 14.02 31.45Z" fill="url(#SVGID_22_)"/></g><path d="M11.59 32.1C10.39 31.83 10.18 33.14 10.18 33.14 10.39 32.76 10.88 32.26 11.87 32.75 12.21 32.92 12.42 33.33 12.54 33.78 12.21 35.21 11.12 34.28 11.12 34.28 11.12 34.28 11.42 35.18 12.24 35.04 12.47 35 12.61 34.89 12.7 34.76 12.74 35.25 12.71 35.64 12.71 35.64 13.3 34.86 12.79 32.36 11.59 32.1Z" fill="url(#SVGID_23_)"/></g><g><g><linearGradient x1="-23.643" y1="55.8188" x2="-23.4355" y2="61.6283" gradientUnits="userSpaceOnUse" id="SVGID_38_" gradientTransform="matrix(0.9099 -0.4148 0.4148 0.9099 28.0582 -38.5453)"><stop offset="0" stop-color="#CF2824"/><stop offset="0.4366" stop-color="#9A1D23"/><stop offset="0.8066" stop-color="#741521"/><stop offset="1" stop-color="#651221"/></linearGradient><linearGradient x1="41.9391" y1="20.3635" x2="42.2538" y2="26.1548" gradientUnits="userSpaceOnUse" id="SVGID_39_"><stop offset="0" stop-color="#CF2824"/><stop offset="0.4366" stop-color="#9A1D23"/><stop offset="0.8066" stop-color="#741521"/><stop offset="1" stop-color="#651221"/></linearGradient><g><radialGradient cx="42.1126" cy="30.6674" r="6.5348" gradientUnits="userSpaceOnUse" id="SVGID_24_"><stop offset="0" stop-color="#E7B9A6"/><stop offset="0.2648" stop-color="#E5B3A0"/><stop offset="0.6236" stop-color="#DEA28F"/><stop offset="1" stop-color="#D58875"/></radialGradient><path d="M44.98 29.61C45.14 27.45 44.24 25.62 42.97 25.51 41.7 25.4 40.53 27.06 40.37 29.22 40.21 31.37 41.11 33.21 42.38 33.32 42.52 33.33 42.66 33.32 42.8 33.29 42.77 33.32 42.75 33.35 42.73 33.38 42.67 33.45 42.61 33.53 42.57 33.6 42.47 33.74 42.41 33.87 42.37 33.96 42.33 34.05 42.31 34.11 42.31 34.11 42.31 34.11 42.34 34.06 42.4 33.98 42.45 33.9 42.54 33.8 42.65 33.68 42.76 33.56 42.89 33.43 43.04 33.3 43.11 33.23 43.19 33.18 43.27 33.11 43.35 33.05 43.44 32.99 43.52 32.93 43.61 32.88 43.7 32.82 43.78 32.77 43.87 32.72 43.96 32.67 44.05 32.63 44.14 32.59 44.22 32.55 44.3 32.51 44.38 32.47 44.46 32.44 44.53 32.41 44.67 32.35 44.8 32.3 44.88 32.27 44.97 32.24 45.02 32.21 45.02 32.21 45.02 32.21 44.97 32.21 44.88 32.22 44.79 32.24 44.66 32.24 44.5 32.28 44.42 32.3 44.34 32.32 44.25 32.34 44.17 32.37 44.08 32.4 43.99 32.43 44.51 31.77 44.89 30.77 44.98 29.61Z" fill="url(#SVGID_24_)" opacity="0.8"/><g><g><linearGradient x1="52.8367" y1="39.3276" x2="55.8132" y2="32.1963" gradientUnits="userSpaceOnUse" id="SVGID_25_" gradientTransform="matrix(0.9999 0.0123 -0.0123 0.9999 -11.0547 -7.2839)"><stop offset="0" stop-color="#FFFFFF"/><stop offset="0.8358" stop-color="#EAEAEA"/><stop offset="1" stop-color="#E5E5E5"/></linearGradient><path d="M42.95 25.87C41.77 25.77 40.69 27.31 40.54 29.31 40.39 31.31 41.22 33.01 42.41 33.11 43.59 33.21 44.67 31.67 44.82 29.67 44.97 27.67 44.13 25.97 42.95 25.87Z" fill="url(#SVGID_25_)"/><g><linearGradient x1="36.8097" y1="41.1773" x2="38.0393" y2="45.9943" gradientUnits="userSpaceOnUse" id="SVGID_26_" gradientTransform="matrix(0.9932 -0.1152 0.1152 0.9932 0.6478 -8.3689)"><stop offset="0.2679" stop-color="#235774"/><stop offset="1" stop-color="#092E43"/></linearGradient><linearGradient x1="-611.098" y1="-4.7533" x2="-609.405" y2="-4.7533" gradientUnits="userSpaceOnUse" id="SVGID_27_" gradientTransform="matrix(-0.9879 -0.1544 -0.1544 0.9879 -560.633 -58.2251)"><stop offset="0.2679" stop-color="#235774"/><stop offset="1" stop-color="#092E43"/></linearGradient><linearGradient x1="-710.524" y1="473.801" x2="-712.261" y2="473.939" gradientUnits="userSpaceOnUse" id="SVGID_28_" gradientTransform="matrix(-0.974 -0.2263 -0.2263 0.974 -543.321 -592.705)"><stop offset="0" stop-color="#FFFFFF"/><stop offset="0.8358" stop-color="#EAEAEA"/><stop offset="1" stop-color="#E5E5E5"/></linearGradient><path d="M42.92 28.04C42.14 28.03 41.46 29.15 41.41 30.55 41.36 31.95 41.95 33.09 42.73 33.1 43.51 33.11 44.19 31.98 44.24 30.59 44.29 29.19 43.7 28.05 42.92 28.04Z" fill="url(#SVGID_26_)"/><path d="M42.14 31.28C42.12 32.16 42.47 32.89 42.93 32.9 43.39 32.91 43.78 32.2 43.8 31.32 43.83 30.44 43.47 29.71 43.02 29.7 42.55 29.69 42.16 30.4 42.14 31.28Z" fill="url(#SVGID_27_)"/><path d="M41.96 29.74C41.84 30.25 41.95 30.72 42.22 30.79 42.49 30.86 42.8 30.51 42.93 30 43.05 29.49 42.94 29.02 42.67 28.95 42.4 28.87 42.09 29.23 41.96 29.74Z" fill="url(#SVGID_28_)"/></g></g></g></g><g><radialGradient cx="17.4103" cy="41.1003" r="4.4743" gradientUnits="userSpaceOnUse" id="SVGID_29_" gradientTransform="matrix(0.9883 -0.1523 0.1523 0.9883 8.4692 -6.63)"><stop offset="0" stop-color="#E7B9A6"/><stop offset="0.2648" stop-color="#E5B3A0"/><stop offset="0.6236" stop-color="#DEA28F"/><stop offset="1" stop-color="#D58875"/></radialGradient><path d="M33.26 26.56C31.7 26.17 29.93 27.81 29.31 30.23 28.89 31.86 29.11 33.43 29.77 34.4 29.72 34.38 29.67 34.36 29.62 34.35 29.52 34.31 29.42 34.27 29.32 34.25 29.13 34.2 28.98 34.16 28.87 34.15 28.76 34.13 28.7 34.13 28.7 34.13 28.7 34.13 28.76 34.15 28.86 34.2 28.96 34.24 29.1 34.32 29.28 34.39 29.37 34.43 29.46 34.48 29.55 34.53 29.65 34.58 29.75 34.63 29.85 34.69 29.95 34.74 30.05 34.81 30.15 34.86 30.36 35.04 30.58 35.19 30.84 35.28 30.93 35.34 31.02 35.4 31.11 35.46 31.21 35.53 31.3 35.59 31.39 35.65 31.48 35.71 31.56 35.78 31.63 35.83 31.78 35.95 31.91 36.04 32 36.1 32.09 36.17 32.14 36.2 32.14 36.2 32.14 36.2 32.1 36.15 32.03 36.06 31.96 35.98 31.85 35.85 31.72 35.71 31.65 35.64 31.59 35.56 31.5 35.49 31.46 35.45 31.41 35.41 31.36 35.37 32.83 35.47 34.4 33.89 34.97 31.65 35.59 29.23 34.83 26.95 33.26 26.56Z" fill="url(#SVGID_29_)" opacity="0.8"/><g><linearGradient x1="58.6234" y1="27.7054" x2="62.0402" y2="19.5191" gradientUnits="userSpaceOnUse" id="SVGID_30_" gradientTransform="matrix(0.9838 0.1795 -0.1795 0.9838 -22.7619 -3.3951)"><stop offset="0" stop-color="#FFFFFF"/><stop offset="0.8358" stop-color="#EAEAEA"/><stop offset="1" stop-color="#E5E5E5"/></linearGradient><path d="M33.14 27.02C31.71 26.66 30.09 28.17 29.52 30.38 28.95 32.59 29.65 34.68 31.09 35.04 32.52 35.4 34.14 33.89 34.71 31.68 35.28 29.46 34.58 27.38 33.14 27.02Z" fill="url(#SVGID_30_)"/><g><linearGradient x1="44.6943" y1="28.2424" x2="46.1004" y2="33.7506" gradientUnits="userSpaceOnUse" id="SVGID_31_" gradientTransform="matrix(0.9986 0.0528 -0.0528 0.9986 -11.5723 -1.0342)"><stop offset="0.2679" stop-color="#235774"/><stop offset="1" stop-color="#092E43"/></linearGradient><linearGradient x1="-617.397" y1="-17.3034" x2="-615.299" y2="-17.3034" gradientUnits="userSpaceOnUse" id="SVGID_32_" gradientTransform="matrix(-0.9481 -0.3177 -0.3177 0.9481 -557.615 -146.419)"><stop offset="0.2679" stop-color="#235774"/><stop offset="1" stop-color="#092E43"/></linearGradient><linearGradient x1="-714.866" y1="460.214" x2="-717.004" y2="460.384" gradientUnits="userSpaceOnUse" id="SVGID_33_" gradientTransform="matrix(-0.9224 -0.3862 -0.3862 0.9224 -450.934 -669.632)"><stop offset="0" stop-color="#FFFFFF"/><stop offset="0.8358" stop-color="#EAEAEA"/><stop offset="1" stop-color="#E5E5E5"/></linearGradient><path d="M32.72 29.44C31.76 29.27 30.72 30.39 30.38 31.95 30.05 33.51 30.56 34.92 31.52 35.09 32.48 35.27 33.53 34.14 33.86 32.58 34.18 31.03 33.68 29.62 32.72 29.44Z" fill="url(#SVGID_31_)"/><path d="M31.23 32.79C31.03 33.78 31.33 34.67 31.88 34.77 32.44 34.88 33.06 34.17 33.25 33.18 33.45 32.19 33.15 31.31 32.59 31.2 32.04 31.09 31.43 31.81 31.23 32.79Z" fill="url(#SVGID_32_)"/><path d="M31.23 31.26C30.98 31.81 31.03 32.36 31.35 32.5 31.66 32.64 32.12 32.3 32.37 31.76 32.62 31.21 32.57 30.66 32.25 30.52 31.94 30.38 31.48 30.71 31.23 31.26Z" fill="url(#SVGID_33_)"/></g></g></g><g><radialGradient cx="-592.594" cy="407.08" r="5.5387" gradientUnits="userSpaceOnUse" id="SVGID_34_" gradientTransform="matrix(-0.9768 -0.2136 -0.2136 0.9768 -455.632 -489.819)"><stop offset="0" stop-color="#E7B9A6"/><stop offset="0.2648" stop-color="#E5B3A0"/><stop offset="0.6236" stop-color="#DEA28F"/><stop offset="1" stop-color="#D58875"/></radialGradient><defs><filter id="Adobe_OpacityMaskFilter" x="37.97" y="32.7" width="1.17" height="1.17" filterUnits="userSpaceOnUse" primitiveUnits="userSpaceOnUse"><feFlood flood-color="#FFFFFF" result="back"/><feBlend in="SourceGraphic" in2="back" mode="normal"/></filter></defs><mask maskUnits="userSpaceOnUse" x="37.97" y="32.7" width="1.17" height="1.17" id="SVGID_35_"><g filter="url(#Adobe_OpacityMaskFilter)"><defs><filter id="Adobe_OpacityMaskFilter_1_" x="37.97" y="32.7" width="1.17" height="1.17" filterUnits="userSpaceOnUse" primitiveUnits="userSpaceOnUse"><feFlood flood-color="#FFFFFF" result="back"/><feBlend in="SourceGraphic" in2="back" mode="normal"/></filter></defs><mask maskUnits="userSpaceOnUse" x="37.97" y="32.7" width="1.17" height="1.17" id="SVGID_35_"><g filter="url(#Adobe_OpacityMaskFilter_1_)"></g></mask><radialGradient cx="-405.833" cy="569.089" r="2.5284" gradientUnits="userSpaceOnUse" id="SVGID_36_" gradientTransform="matrix(-0.9011 0.4336 0.4336 0.9011 -573.628 -304.169)"><stop offset="0" stop-color="#FFFFFF"/><stop offset="0.0858" stop-color="#F4F4F4"/><stop offset="0.2353" stop-color="#D8D8D8"/><stop offset="0.4306" stop-color="#A9A9A9"/><stop offset="0.6642" stop-color="#696969"/><stop offset="0.9275" stop-color="#181818"/><stop offset="1"/></radialGradient><path d="M38.03 33.54C38.17 33.83 38.52 33.95 38.81 33.81 39.1 33.67 39.22 33.32 39.08 33.03 38.94 32.74 38.59 32.62 38.3 32.76 38.01 32.9 37.89 33.25 38.03 33.54Z" fill="url(#SVGID_36_)" mask="url(#SVGID_35_)"/></g></mask><radialGradient cx="-405.833" cy="569.089" r="2.5284" gradientUnits="userSpaceOnUse" id="SVGID_37_" gradientTransform="matrix(-0.9011 0.4336 0.4336 0.9011 -573.628 -304.169)"><stop offset="0" stop-color="#FFFFFF"/><stop offset="1" stop-color="#FFFFFF"/></radialGradient><path d="M37.56 35.35C39.95 35.7 40.53 33.18 39.18 32.5 37.9 31.85 37.31 33.12 37.31 33.12 37.35 33.03 37.56 32.93 37.64 32.88 37.87 32.73 38.13 32.6 38.41 32.58 39.52 32.5 39.86 33.77 39.32 34.55 39.14 34.81 38.84 35 38.54 35.09 37.58 35.37 37.56 35.35 37.56 35.35Z" fill="url(#SVGID_34_)" opacity="0.8"/><path d="M38.03 33.54C38.17 33.83 38.52 33.95 38.81 33.81 39.1 33.67 39.22 33.32 39.08 33.03 38.94 32.74 38.59 32.62 38.3 32.76 38.01 32.9 37.89 33.25 38.03 33.54Z" fill="url(#SVGID_37_)" opacity="0.7"/></g><path d="M28.94 27.03C31.26 24.2 32.85 24.62 34.9 25.95 35.59 26.4 33.79 23.14 31.85 23.53 29.66 23.96 28.27 27.84 28.94 27.03Z" fill="url(#SVGID_38_)"/><path d="M40.4 24.1C41.28 21.9 42.75 21.57 43.83 23.86 44.27 24.79 44.04 24.78 43.7 24.35 43.45 24.03 41.99 22.45 40.64 24.5 40.2 25.16 40.19 24.62 40.4 24.1Z" fill="url(#SVGID_39_)"/></g><g><linearGradient x1="36.2425" y1="42.1843" x2="31.0394" y2="39.1237" gradientUnits="userSpaceOnUse" id="SVGID_40_"><stop offset="0.1146" stop-color="#E75768"/><stop offset="1" stop-color="#3E150E"/></linearGradient><radialGradient cx="31.7529" cy="41.1048" r="2.3967" gradientUnits="userSpaceOnUse" id="SVGID_41_"><stop offset="0" stop-color="#E75768"/><stop offset="1" stop-color="#791711"/></radialGradient><path d="M33.25 40.15C31.46 39.58 31.36 38.35 31.36 38.35 31.2 38.71 30.99 39.16 30.81 39.63 31.27 40.25 32.13 41 33.25 40.15Z" fill="#FFFFFF"/><path d="M33.41 40.2C33.36 40.18 33.31 40.17 33.26 40.15 32.14 41 31.28 40.25 30.82 39.63 30.75 39.8 30.69 39.98 30.63 40.16 31.18 40.44 32.05 41.11 31.95 42.58 33.99 42.36 37.06 39.73 37.06 39.73 37.06 39.73 35.34 40.75 33.41 40.2Z" fill="url(#SVGID_40_)"/><path d="M30.62 40.16C30.24 41.31 30.18 42.43 31.45 42.58 31.6 42.6 31.77 42.6 31.93 42.58 32.04 41.11 31.17 40.44 30.62 40.16Z" fill="url(#SVGID_41_)"/></g></g></g><g><linearGradient x1="10.9571" y1="60.1189" x2="20.7043" y2="60.1189" gradientUnits="userSpaceOnUse" id="SVGID_42_"><stop offset="0" stop-color="#F4CBBF"/><stop offset="0.4374" stop-color="#E9BCAA"/><stop offset="0.5056" stop-color="#E7B9A6"/><stop offset="1" stop-color="#D6957A"/></linearGradient><radialGradient cx="19.5277" cy="45.7016" r="8.3282" gradientUnits="userSpaceOnUse" id="SVGID_43_"><stop offset="0.1232" stop-color="#2CACE3"/><stop offset="0.3686" stop-color="#29A3DC"/><stop offset="0.7714" stop-color="#218ACA"/><stop offset="1" stop-color="#1B79BE"/></radialGradient><radialGradient cx="21.7092" cy="45.7042" r="7.2575" gradientUnits="userSpaceOnUse" id="SVGID_44_"><stop offset="0.1927" stop-color="#2CACE3"/><stop offset="1" stop-color="#1B79BE"/></radialGradient><path d="M17.18 63.29C16.88 63.04 18.73 56.4 20.7 52.68 19.78 52.35 18.7 51.8 17.94 50.94 17.13 52.38 14.63 57.25 14.44 62.99 14.42 63.69 13.67 63.26 12.42 64.51 11.17 65.76 10.74 67.12 11.04 67.39 11.33 67.66 12.05 66.39 12.96 65.05 12.96 65.05 12.02 67.03 11.93 68.12 11.84 69.21 12.62 67.71 13.98 65.17 13.98 65.17 13.18 67.31 13.15 68.54 13.13 69.77 13.91 68.91 14.22 67.75 14.52 66.59 14.95 65.73 14.95 65.73 14.95 65.73 14.6 67.66 14.97 68.97 15.1 69.46 15.68 69.58 15.89 68.14 16.09 66.69 16.38 64.89 16.83 64.98 17.27 65.07 17.85 66.55 18.51 66.2 19.17 65.85 18.37 64.27 17.18 63.29Z" fill="url(#SVGID_42_)"/><path d="M17.35 50.03C17.35 50.03 22.53 42.39 25.18 43.48 27.83 44.56 22.43 53.14 22.43 53.14 22.43 53.14 18.53 52.55 17.35 50.03Z" fill="url(#SVGID_43_)"/><path d="M25.18 43.48C24.95 43.39 24.71 43.36 24.45 43.39 25.42 43.98 23.75 47.61 20.28 52.51 21.43 52.99 22.43 53.14 22.43 53.14 22.43 53.14 27.83 44.57 25.18 43.48Z" fill="url(#SVGID_44_)" opacity="0.6"/></g><g><radialGradient cx="38.3032" cy="65.5653" r="20.9408" gradientUnits="userSpaceOnUse" id="SVGID_45_"><stop offset="0.3563" stop-color="#6C6C6B"/><stop offset="1" stop-color="#1B1B12"/></radialGradient><radialGradient cx="35.8663" cy="65.3072" r="18.6723" gradientUnits="userSpaceOnUse" id="SVGID_46_"><stop offset="0.3563" stop-color="#6C6C6B"/><stop offset="1" stop-color="#1B1B12"/></radialGradient><radialGradient cx="38.3025" cy="65.5666" r="20.9378" gradientUnits="userSpaceOnUse" id="SVGID_47_"><stop offset="0.3563" stop-color="#6C6C6B"/><stop offset="1" stop-color="#1B1B12"/></radialGradient><path d="M36.23 63.18C35.1 63.88 32.39 65.32 28.92 65.66 24.93 66.05 20.95 64.69 19.92 64.31 19.67 65.98 19.16 70.17 19.67 73.91 19.67 73.91 23.34 75.51 28.55 74.49L29.13 68.91C29.13 68.91 30.97 73.6 31.48 74.22 31.48 74.22 36.86 73.47 39.17 71.4 39.15 71.38 38.32 67.64 36.23 63.18Z" fill="url(#SVGID_45_)"/><g><g><path d="M32.15 67.71C32.06 67.81 31.97 67.92 31.86 68.01 31.76 68.1 31.64 68.19 31.53 68.27 31.48 68.31 31.41 68.35 31.35 68.38 31.29 68.42 31.23 68.46 31.16 68.49 31.03 68.55 30.91 68.62 30.78 68.67 30.65 68.72 30.52 68.77 30.38 68.81 30.25 68.85 30.11 68.89 29.97 68.92 29.69 68.98 29.42 69.02 29.13 69.04L29.26 68.92C29.17 69.72 29.05 70.51 28.88 71.3 28.87 70.49 28.92 69.69 29 68.89 29.01 68.83 29.06 68.78 29.12 68.77L29.13 68.77C29.39 68.75 29.66 68.71 29.93 68.66 30.19 68.6 30.46 68.54 30.71 68.45 30.84 68.41 30.97 68.36 31.09 68.31 31.15 68.29 31.22 68.26 31.28 68.23 31.34 68.2 31.41 68.18 31.47 68.14 31.59 68.07 31.71 68.02 31.83 67.94 31.92 67.88 32.03 67.78 32.15 67.71Z" fill="#353535"/></g></g><path d="M25.33 66.65C31.06 66.59 34.79 65.01 36.6 64 36.48 63.73 36.35 63.45 36.22 63.17 35.09 63.87 32.38 65.31 28.91 65.65 24.92 66.04 20.94 64.68 19.91 64.3 19.67 65.92 19.19 69.91 19.61 73.56 19.77 70.19 20.98 66.7 25.33 66.65Z" fill="url(#SVGID_46_)" opacity="0.7"/><path d="M31.34 71.12C30.51 68.9 32.41 67.47 32.41 67.47 32.41 67.47 30.84 68.61 29.1 68.61 29 68.61 29.12 68.89 29.12 68.89 29.12 68.89 30.96 73.58 31.47 74.2 31.47 74.2 32.71 74.03 34.25 73.62 33.14 73.31 31.9 72.62 31.34 71.12Z" fill="url(#SVGID_47_)" opacity="0.7"/></g></g><g><linearGradient x1="51.5103" y1="54.055" x2="49.3507" y2="58.1873" gradientUnits="userSpaceOnUse" id="SVGID_54_"><stop offset="0" stop-color="#F4CBBF"/><stop offset="0.4374" stop-color="#E9BCAA"/><stop offset="0.5056" stop-color="#E7B9A6"/><stop offset="1" stop-color="#D6957A"/></linearGradient><radialGradient cx="50.5741" cy="56.0572" r="1.6449" gradientUnits="userSpaceOnUse" id="SVGID_55_"><stop offset="0" stop-color="#E7B9A6"/><stop offset="0.2648" stop-color="#E5B3A0"/><stop offset="0.6236" stop-color="#DEA28F"/><stop offset="1" stop-color="#D58875"/></radialGradient><g><linearGradient x1="52.6844" y1="25.9035" x2="57.8611" y2="25.9035" gradientUnits="userSpaceOnUse" id="SVGID_48_" gradientTransform="matrix(0.8639 0.5037 -0.5037 0.8639 18.6075 5.782)"><stop offset="0" stop-color="#E4F3F8"/><stop offset="0.809" stop-color="#94DFEF"/></linearGradient><linearGradient x1="53.023" y1="26.412" x2="54.2594" y2="26.412" gradientUnits="userSpaceOnUse" id="SVGID_49_" gradientTransform="matrix(0.8639 0.5037 -0.5037 0.8639 18.6075 5.782)"><stop offset="0.1232" stop-color="#2CACE3"/><stop offset="0.3686" stop-color="#29A3DC"/><stop offset="0.7714" stop-color="#218ACA"/><stop offset="1" stop-color="#1B79BE"/></linearGradient><linearGradient x1="53.0207" y1="20.1577" x2="54.4661" y2="20.1577" gradientUnits="userSpaceOnUse" id="SVGID_50_" gradientTransform="matrix(0.8639 0.5037 -0.5037 0.8639 18.6075 5.782)"><stop offset="0.1232" stop-color="#2CACE3"/><stop offset="0.3686" stop-color="#29A3DC"/><stop offset="0.7714" stop-color="#218ACA"/><stop offset="1" stop-color="#1B79BE"/></linearGradient><radialGradient cx="55.449" cy="25.9035" r="5.7426" gradientUnits="userSpaceOnUse" id="SVGID_51_" gradientTransform="matrix(0.8639 0.5037 -0.5037 0.8639 18.6075 5.782)"><stop offset="0.1927" stop-color="#2CACE3"/><stop offset="1" stop-color="#1B79BE"/></radialGradient><radialGradient cx="55.2735" cy="32.9782" r="1.7738" gradientUnits="userSpaceOnUse" id="SVGID_52_" gradientTransform="matrix(0.8639 0.5037 -0.5037 0.8639 18.6075 5.782)"><stop offset="0.1927" stop-color="#2CACE3"/><stop offset="1" stop-color="#1B79BE"/></radialGradient><path d="M57.22 49.3C54.81 47.89 53.91 49.84 53.91 49.84L47.52 60.81C47.33 61.13 48.18 61.98 49.41 62.7 50.64 63.42 51.8 63.74 51.99 63.41L58.39 52.44C58.38 52.44 59.63 50.71 57.22 49.3Z" fill="url(#SVGID_48_)" opacity="0.7"/><path d="M49.05 59.58 54.56 51.84 53.49 51.22 48.73 59.39Z" fill="url(#SVGID_49_)" opacity="0.4"/><path d="M53.79 50.72 54.86 51.34 55.66 50.38C55.66 50.38 55.85 49.74 55.27 49.4 54.69 49.06 54.27 49.88 54.27 49.88L53.79 50.72Z" fill="url(#SVGID_50_)" opacity="0.4"/><path d="M57.22 49.3C56.84 49.08 56.49 48.94 56.18 48.86 56.23 48.89 56.28 48.9 56.33 48.93 58.28 50.06 57.08 51.78 57.08 51.78L50.82 62.52C50.63 62.84 49.68 62.62 48.68 62.04 48.26 61.79 47.9 61.53 47.64 61.27 47.92 61.67 48.57 62.21 49.4 62.69 50.63 63.41 51.79 63.73 51.98 63.4L58.38 52.43C58.38 52.44 59.63 50.71 57.22 49.3Z" fill="url(#SVGID_51_)" opacity="0.4"/><path d="M50.07 61.56C48.91 60.89 47.83 60.58 47.65 60.89 47.47 61.19 48.27 61.99 49.42 62.66 50.58 63.33 51.66 63.63 51.84 63.33 52.02 63.03 51.23 62.24 50.07 61.56Z" fill="url(#SVGID_52_)" opacity="0.3"/><g><radialGradient cx="54.6605" cy="15.7784" r="2.3457" gradientUnits="userSpaceOnUse" id="SVGID_53_" gradientTransform="matrix(0.8639 0.5037 -0.5037 0.8639 18.6075 5.782)"><stop offset="0.3563" stop-color="#787877"/><stop offset="1" stop-color="#414149"/></radialGradient><path d="M58.17 48.39 57.54 48.02C56.94 47.67 56.16 47.87 55.81 48.48 55.75 48.58 55.71 48.69 55.68 48.79 56.1 48.8 56.61 48.95 57.22 49.3 57.82 49.65 58.2 50.02 58.42 50.39 58.5 50.31 58.57 50.23 58.63 50.13 58.98 49.52 58.77 48.74 58.17 48.39Z" fill="url(#SVGID_53_)"/></g></g><path d="M51.64 54.78C50.52 55.31 49.39 55.61 49.39 55.61L48.83 57.53C50.7 57.62 50.73 56.29 50.73 56.29 52.11 56.19 52.88 54.2 51.64 54.78Z" fill="url(#SVGID_54_)"/><path d="M52.25 54.85C52.24 54.78 52.2 54.7 52.13 54.66 52.06 54.62 51.99 54.62 51.92 54.62 51.79 54.64 51.68 54.7 51.57 54.76 51.69 54.72 51.81 54.69 51.92 54.69 51.97 54.69 52.03 54.71 52.06 54.74 52.09 54.77 52.1 54.81 52.1 54.86 52.11 54.96 52.06 55.07 52.01 55.17 51.96 55.27 51.89 55.37 51.82 55.46 51.68 55.64 51.5 55.79 51.3 55.9 51.1 56.02 50.89 56.08 50.67 56.11L50.56 56.12 50.55 56.24C50.55 56.27 50.54 56.32 50.53 56.37 50.52 56.41 50.51 56.46 50.49 56.5 50.45 56.58 50.42 56.67 50.37 56.75 50.35 56.79 50.32 56.83 50.29 56.86 50.26 56.9 50.23 56.93 50.19 56.96 50.16 56.99 50.12 57.03 50.08 57.05 50.04 57.08 50.01 57.11 49.96 57.13L49.83 57.2 49.69 57.26C49.6 57.3 49.5 57.32 49.4 57.35 49.3 57.37 49.2 57.39 49.1 57.41 49 57.42 48.89 57.43 48.79 57.44 48.89 57.45 49 57.47 49.1 57.47 49.2 57.47 49.31 57.47 49.42 57.47 49.52 57.45 49.63 57.45 49.73 57.42L49.89 57.37 50.04 57.3C50.09 57.28 50.14 57.25 50.18 57.22 50.23 57.19 50.27 57.16 50.31 57.12 50.35 57.08 50.4 57.05 50.43 57 50.47 56.96 50.51 56.92 50.54 56.87 50.61 56.78 50.66 56.68 50.7 56.57 50.72 56.52 50.74 56.46 50.75 56.4 50.76 56.38 50.76 56.36 50.76 56.34 50.86 56.33 50.95 56.31 51.04 56.28 51.17 56.24 51.29 56.18 51.4 56.11 51.62 55.97 51.81 55.79 51.96 55.58 52.03 55.47 52.1 55.36 52.15 55.24 52.17 55.18 52.19 55.11 52.2 55.05 52.26 54.99 52.27 54.92 52.25 54.85Z" fill="url(#SVGID_55_)" opacity="0.8"/></g></g></svg>