<svg width="229.6" height="239.69" viewBox="0 0 229.6 239.69" xmlns="http://www.w3.org/2000/svg" xmlns:xlink="http://www.w3.org/1999/xlink" xml:space="preserve" overflow="hidden"><defs></defs><path d="M91.09 238.62C120.84 243.64 153.83 230.79 169.34 204.9 183.33 181.54 181.94 152.55 185.52 125.56 190.11 90.95 203.7 57.58 224.59 29.61 227.8 25.32 231.32 19.7 228.67 15.05 227.66 13.28 225.91 12.07 224.16 11.01 207.37 0.89 186.78-0.06 167.19 0 134.28 0.11 101.4 2.3 68.66 5.55 58.14 6.6 46.98 8.02 38.83 14.75 33.86 18.86 30.51 24.57 27.5 30.28 8.62 66.09-0.92 106.77 0.07 147.25 0.65 170.92 17.48 184.48 31.56 201.82 46.62 220.37 67.22 234.59 91.09 238.62Z" fill="#98DDFC"/></svg>