<svg width="359.12" height="579.67" viewBox="0 0 359.12 579.67" xmlns="http://www.w3.org/2000/svg" xmlns:xlink="http://www.w3.org/1999/xlink" xml:space="preserve" overflow="hidden"><defs></defs><g><linearGradient x1="483.345" y1="-916.647" x2="476.296" y2="-889.179" gradientUnits="userSpaceOnUse" id="SVGID_1_" gradientTransform="matrix(-0.8732 0.4873 0.4873 0.8732 1206.54 691.92)"><stop offset="0.2206" stop-color="#FCE8D9"/><stop offset="1" stop-color="#F4C7BD"/></linearGradient><path d="M349.23 145.86C350.84 152.05 351.78 158.37 351.65 164.82 351.32 180.16 344.38 194.62 333.2 204.32 319.85 215.9 305.24 217.16 288.73 216.7 281.57 216.5 274.4 216.13 267.27 215.34 253.21 213.78 239.18 210.58 226.38 204.06 210.15 195.79 193.13 180.85 186.35 162.81 178.7 142.43 178.41 119.61 182.29 98.28 185.47 80.83 202.56 61.49 216.45 52.29 238.51 37.68 265.34 37.65 288.19 50.38 315.11 65.38 325.97 90.19 338.49 117.79 342.61 126.85 346.73 136.2 349.23 145.86Z" fill="#F9B799"/><g><path d="M295.2 136.09C295.01 137.1 293.17 137.57 291.09 137.12 289.01 136.68 287.48 135.49 287.68 134.48 287.87 133.47 289.71 133 291.79 133.45 293.87 133.89 295.4 135.07 295.2 136.09Z" fill="#F4C7BD"/><path d="M308.38 140.18C308.19 141.19 306.35 141.66 304.27 141.21 302.19 140.77 300.66 139.58 300.86 138.57 301.05 137.56 302.89 137.09 304.97 137.54 307.05 137.99 308.57 139.17 308.38 140.18Z" fill="#F4C7BD"/><path d="M299.38 144.2C299.19 145.21 297.35 145.68 295.27 145.23 293.19 144.79 291.66 143.6 291.86 142.59 292.05 141.58 293.89 141.11 295.97 141.56 298.05 142 299.57 143.19 299.38 144.2Z" fill="#F4C7BD"/></g><path d="M352.39 134.88C354.93 135.91 358.14 136.66 358.96 139.4 359.39 140.86 358.92 142.49 358.04 143.7 357.16 144.91 355.91 145.76 354.64 146.48 353.09 147.37 351.37 148.12 349.61 147.94 346.82 147.66 344.69 145.12 343.43 142.47 341.3 138 340.48 131.81 342.41 127.16 345.86 129.61 348.42 133.26 352.39 134.88Z" fill="url(#SVGID_1_)"/><g><path d="M293.79 122.54C296.02 121.7 303.5 125.72 305.76 126.62 308.42 127.68 311.01 128.93 313.51 130.34 314.01 130.62 320.08 134.28 319.94 134.46 322.3 131.41 323.26 127.76 323.63 123.9 323.85 121.66 323.88 119.39 323.73 117.14 323.69 116.6 322.88 110.79 322.8 110.82 318.03 112.69 314.72 114.94 310.01 116.98 305.67 118.86 298.48 122.07 293.79 122.54Z" fill="#FFFFFF"/><g><defs><path d="M293.79 125.54C296.02 124.7 303.5 128.72 305.76 129.62 308.42 130.68 311.01 131.93 313.51 133.34 314.01 133.62 320.08 137.28 319.94 137.46 322.3 134.41 323.26 130.76 323.63 126.9 323.85 124.66 323.88 122.39 323.73 120.14 323.69 119.6 322.88 113.79 322.8 113.82 318.03 115.69 314.72 117.94 310.01 119.98 305.67 121.86 298.48 125.07 293.79 125.54Z" id="SVGID_2_"/></defs><clipPath id="SVGID_3_"><use width="100%" height="100%" xlink:href="#SVGID_2_" overflow="visible"></use></clipPath><g clip-path="url(#SVGID_3_)"><path d="M328.9 129.27C332.62 124 331.59 116.54 326.6 112.6 321.61 108.67 314.56 109.75 310.84 115.02 307.12 120.29 308.16 127.75 313.14 131.69 318.13 135.63 325.18 134.54 328.9 129.27Z" fill="#8C7257"/><path d="M325.04 128.76C326.38 126.86 326.01 124.17 324.21 122.76 322.41 121.34 319.87 121.73 318.53 123.63 317.19 125.53 317.56 128.22 319.36 129.63 321.15 131.05 323.7 130.66 325.04 128.76Z" fill="#3A3129"/><path d="M315.1 118.94C314.28 118.86 313.45 118.77 312.64 118.94 311.45 119.18 310.95 119.77 310.73 121 310.67 121.34 310.61 121.68 310.6 122.02 310.54 123.48 311.42 125.83 312.62 126.67 313.32 127.16 314.25 126.66 314.93 126.15 316.57 124.93 320.36 122.65 321.13 120.65 321.71 119.14 320.73 119.53 319.24 119.38 317.86 119.23 316.48 119.08 315.1 118.94Z" fill="#FFFFFF" opacity="0.2"/><path d="M315.87 129.2C315.81 129.26 315.74 129.34 315.72 129.43 315.68 129.61 315.84 129.76 315.98 129.87 316.45 130.21 316.97 130.5 317.53 130.61 318.09 130.72 318.7 130.63 319.17 130.28 319.6 129.95 319.86 129.43 320.08 128.91 320.32 128.32 321.81 123.97 320.24 124.71 319.48 125.07 318.67 126.32 318.07 126.93 317.34 127.69 316.6 128.45 315.87 129.2Z" fill="#FFFFFF" opacity="0.2"/></g></g><g><path d="M326.19 109.77C323.6 111.11 321.03 112.46 318.43 113.76 315.83 115.07 313.18 116.28 310.47 117.38 307.77 118.46 305.07 119.58 302.31 120.54 299.55 121.47 296.72 122.34 293.8 122.6L293.79 122.48C296.66 122.05 299.39 121 302.08 119.93 304.77 118.84 307.41 117.63 310.04 116.39 312.66 115.15 315.26 113.86 317.94 112.71 320.62 111.57 323.33 110.46 326.15 109.66L326.19 109.77Z" fill="#5E5149"/></g></g><path d="M203.19 9.37C217.47 4.19 232.4 0.75 247.6 0.11 267.79-0.74 288.51 3.56 305.71 14.22 316.55 20.94 325.97 30.23 332.96 41.27 340.37 52.98 342.17 66.65 338.01 80.43 334.74 91.26 327.12 100.86 317.01 104.75 318.61 99.13 319.57 93.31 319.88 87.45 319.52 94.41 309.17 102.89 304.46 106.9 297.18 113.1 288.85 117.9 280.18 121.55 275.5 123.52 270.44 125.37 267.39 129.4 265.06 132.49 264.24 136.48 264.18 140.34 264.05 147.58 266.65 155.23 272.47 159.65 262.6 154.45 254.97 145.2 251.8 134.59 252.24 144.1 256.08 153.44 262.48 160.58 257.63 160.2 254.39 155.57 251.88 151.42 249.29 147.12 246.69 142.83 244.1 138.53 243.32 137.23 242.47 135.87 241.13 135.16 240.01 134.57 238.7 134.51 237.44 134.54 229.95 134.73 222.23 138.31 218.83 144.91 214.91 152.52 217.5 161.74 216.75 170.28 215.5 184.52 203.58 197.06 189.32 199.14 190.68 195.17 191.41 190.97 191.47 186.76 186.5 190.16 182.1 187.1 178.04 183.6 165.5 172.79 152.44 161.24 146.97 145.71 143.61 136.19 143.4 125.91 143.69 115.85 144.01 104.81 145.33 92.76 153.21 85.01 148.96 64.32 153.56 40.85 169.41 26.91 175.23 21.79 182.24 18.18 189.34 14.99 193.89 12.95 198.5 11.07 203.19 9.37Z" fill="#111010"/><path d="M272.48 159.64C266.65 155.23 264.06 147.57 264.19 140.33 264.26 136.46 265.07 132.47 267.4 129.39 270.44 125.36 275.51 123.5 280.19 121.54 288.86 117.9 297.19 113.1 304.47 106.89 309.17 102.88 319.53 94.4 319.89 87.44 310.1 98.19 297.68 107.1 284.3 111.85 277.54 114.25 270.14 116 265.16 121.4 260.35 126.61 258.75 134.6 260.26 141.7 261.76 148.81 267.06 155.14 272.48 159.64Z" opacity="0.15"/><path d="M238.42 164.59C231.53 166.74 223.71 165.25 217.96 160.69 212.21 156.13 208.67 148.6 208.7 141.01 208.7 140.72 208.71 140.42 208.87 140.18 209.08 139.86 209.49 139.77 209.85 139.7 212.15 139.29 214.46 138.87 216.76 138.46L238.42 164.59Z" opacity="0.15"/><path d="M263.18 7.59C277.73 8.39 292.69 11.69 304.35 20.92 316.01 30.15 323.56 46.39 319.79 61.26 317.63 54.26 313.86 47.81 308.9 42.63 306.17 56.72 297.52 69.39 285.74 76.58 274.64 83.35 260.73 85.69 252.17 95.77 251.52 90.47 251.61 85.06 252.44 79.79 245.63 81.5 239.41 85.69 235.06 91.48 228.19 73.88 214.54 59.35 197.93 51.97 193.71 50.1 189.23 48.65 184.66 48.66 177.28 48.67 170.25 52.5 164.91 57.88 165.44 50.18 169.16 43.04 174.02 37.29 195.1 12.35 233.14 5.94 263.18 7.59Z" fill="#FFFFFF" opacity="0.1"/><g id="path8693_2_"><path d="M324.5 175.63C330.08 175.04 340.78 176.68 340.66 171.87 340.34 170.87 339.27 170.32 338.27 170.64 332.31 172.55 314.88 171.76 307.84 171.11 306.8 171.02 305.87 171.78 305.77 172.83 305.94 176.84 317.43 174.92 324.5 175.63Z" fill="#FB8D52"/></g></g><g id="g33962_1_" transform="matrix(1.06711 0 0 1.06711 -164.158 143.265)"><g id="path21447_1_"><path d="M202.9 339.38C202.9 339.38 169 330.92 164.37 332.72 151.72 340.49 150.65 397.07 160.19 406.67 166 410.55 184.24 409.21 189.48 404.66 194.72 400.11 190.25 372.38 190.25 372.38L197.26 373.57 202.9 339.38Z" fill="#FBB383"/></g><g id="path21449_1_"><path d="M170.43 359.12C170.43 359.12 170.85 370.3 183.49 371.93 184.5 378.29 185.91 387.12 185.51 393.45 170.31 398.38 161.59 396.99 154.18 379.83 154.42 391.36 155.88 403.79 160.19 406.67 165.67 410.33 182.2 409.34 188.46 405.41L188.46 405.41C195.45 398.71 190.79 381.23 190.25 372.39L197.26 373.58 198.76 364.46 170.43 359.12Z" fill="#FB8D52"/></g><g id="path21451_1_"><path d="M383.3 397.41C388.3 401.26 484.62 411.19 481.79 379.85 482.99 368.28 481.58 345.22 467.52 336.28 448.05 323.91 400.46 280.44 400.46 280.44L311.49 293.23C311.49 293.23 332.18 343.12 334.46 346.02 336.74 348.92 383.3 397.41 383.3 397.41L383.3 397.41Z" fill="#39525B"/></g><g id="path21453_1_"><path d="M245.61 353.57C219.28 268.33 264.05 264.48 331.09 276.15L313.1 297.12C313.1 297.12 360.94 346.05 360.24 347.74 359.54 349.43 325.49 378.64 325.49 378.64L245.61 353.57Z" fill="#39525B"/></g><g id="path21455_1_"><path d="M327.68 359.65C327.68 359.65 212.76 337.01 205.06 336.25 197.36 335.49 193.78 376.27 200.63 388.1 206.68 399.19 389.91 422.92 397.27 387.43 405.87 370.37 406.82 352.09 390.34 342.7 373.86 333.31 331.53 306.38 331.53 306.38L289.42 305.73 327.68 359.65Z" fill="#39525B"/></g><g id="path21457_1_"><path d="M355.36 406.98C344.11 399.33 387.63 409.37 395.67 386.63 400.25 377.56 408.8 355.28 389.45 344.26 375.67 336.41 343.53 316.11 334 310.08 332.04 308.9 333.96 305.77 335.91 307.07 345.42 313.09 377.5 333.35 391.21 341.16 406.48 349.86 409.34 367.46 398.85 388.24 391.28 403.3 378.74 406.28 355.36 406.98Z" fill="#27383E"/></g><g id="path21459_1_"><path d="M327.68 361.44C327.09 359.67 244.51 348.47 216.52 338.2 245.77 338.34 327.54 359.55 328.02 357.9 330.08 358.26 329.78 361.5 327.68 361.44Z" fill="#27383E"/></g><g id="path21461_1_"><path d="M396.59 294.21C396.59 294.21 390.51 312.75 393.56 322.24 396.61 331.72 412.01 340.53 415.91 338.4 419.81 336.27 408.47 319.33 408.47 319.33L411.82 296.67 396.59 294.21Z" fill="#FBB383"/></g><g id="path21463_1_"><path d="M329.37 73.12C219.33 80.64 245.88 226.16 236.04 287.58 259.03 298.25 382 303.13 410.05 292.48 409.05 233.62 408.61 181.97 392.94 113.35 378.56 91.39 348.37 74.48 329.37 73.12L329.37 73.12Z" fill="#83BACE"/></g><g id="path21465_1_"><path d="M408.03 326.93C408.03 326.93 416.51 336.02 423.94 338.72 437.92 342.08 460.63 343.95 457.75 325.44 457.1 322.39 430.14 301.26 425.35 298.99 420.56 296.72 403.85 301.13 403.85 301.13L408.03 326.93Z" fill="#FBB383"/></g><g id="path21467_1_"><path d="M329.37 73.12C323.97 73.13 315.63 74.41 306.45 77.48 301.74 85.05 303.42 97.2 327.93 104.09L342.4 117.21 349.51 101.73C349.51 101.73 361.91 98 360.25 83.98 346.69 77.28 338.06 73.46 329.37 73.12Z" fill="#567A88"/></g><g id="path21469_1_"><path d="M314.87 62.71 314.61 84.39C318.97 89.1 344.68 104.98 350.9 87.71 350.9 87.71 348.24 68.63 348.24 68.63L314.87 62.71Z" fill="#FB8D52"/></g><g id="path21501_1_"><path d="M379.18 237.93C376.44 237.72 374.85 241.2 373.57 243.11 372.27 245.13 372.85 247.8 374.86 249.1 374.91 249.13 409.43 271.41 409.49 271.43L409.08 256.35C408.14 255.99 379.69 236.63 379.18 237.93L379.18 237.93ZM305.51 238.44C304.68 238.42 303.83 238.65 303.07 239.14L268.5 261.44C264.76 263.77 267.28 268.03 269.27 270.62 270.57 272.64 273.24 273.21 275.26 271.91L309.83 249.61C311.85 248.31 312.42 245.64 311.12 243.62 309.81 241.72 308.27 238.22 305.51 238.44L305.51 238.44Z" fill="#567A88"/></g><g id="path21503_1_"><path d="M298.5 312.41C308.36 349.07 318.16 361.52 359.67 351.74 363.46 349.87 366.35 338.54 362.14 331.79 357.93 325.04 320.43 297.79 320.43 297.79L298.5 312.41Z" fill="#FBB383"/></g><g id="path21505_1_"><path d="M275.67 95.25C235.51 117.61 220.1 175.96 219.84 221.74 219.72 242.35 220.58 244.9 232.46 259.6 244.34 274.3 297.65 319.91 297.65 319.91 297.65 319.91 322 303.4 326.14 294 310.9 277.88 263.94 225.69 263.94 225.69 264.63 208.54 307.37 109.45 275.67 95.25Z" fill="#83BACE"/></g><g id="path21507_1_"><path d="M414.37 340.51C387.15 334.02 388.55 313.15 394.75 294.11 395.41 291.9 398.88 292.97 398.15 295.17 397.57 297.02 392.6 313.45 395.25 321.69 397.43 328.22 407.82 336.77 414.93 336.88 415.41 335.09 411.77 327.48 406.98 320.32 406.43 319.5 406.65 318.39 407.47 317.84 408.29 317.29 409.4 317.51 409.94 318.33 412.12 322.27 424.94 339.37 414.37 340.51Z" fill="#FB8D52"/></g><g id="path21509_1_"><path d="M391.6 111.66C397.99 128.18 398.65 148 402.33 165.57 403.85 175.01 406.53 192.61 407.57 199.78 407.57 199.78 408.83 246.72 408.83 246.72L408.04 247C408.38 247.26 391.16 294.74 391.21 295.01 394.87 297.36 412.73 309.01 432.25 301.26 431.58 252.49 428.67 142.46 391.6 111.66L391.6 111.66Z" fill="#83BACE"/></g><g id="path21511_1_"><path d="M297.65 321.7C293.73 319.93 244.15 275.98 231.07 260.73 230.16 259.81 229.16 258.22 230.51 257.19 231.82 256.12 233.13 257.38 233.84 258.49 244.57 271.77 290.25 311.21 297.76 317.67 302.33 314.48 319.52 302.14 323.98 294.32 308.06 277.4 263.07 227.41 262.61 226.89 260.99 223.96 279.89 161.4 282.54 146.87 293.96 133.2 263.78 227.57 265.91 225.22 271.61 231.55 313.35 277.88 327.43 292.78 327.92 293.3 328.06 294.07 327.77 294.73 322.82 304.86 299.61 321.28 297.65 321.7Z" fill="#567A88"/></g><g id="path21513_1_"><path d="M418.65 305.69C404.2 305.53 393.71 298.77 390.22 296.5 389.54 296.05 389.25 295.19 389.52 294.42L406.25 247.11C406.21 246.49 406.5 245.9 407 245.55L405.77 199.94C403.66 185.54 400.39 164.4 397.76 148.78 397.35 146.52 400.93 145.89 401.28 148.19 403.85 163.52 407.34 185.86 409.33 199.74 409.33 199.74 410.59 246.68 410.59 246.68 410.61 247.38 410.22 248.02 409.6 248.33L393.35 294.3C397.79 297.14 414.6 306.6 431.57 299.62L432.23 301.23C432.24 301.23 434.02 301.23 434.03 301.23 431.95 305.5 422.47 305.31 418.65 305.69ZM430.47 301.16 431.8 301.24 430.47 301.16Z" fill="#567A88"/></g><g id="path21515_1_"><path d="M233.97 385.1C228.34 372.69 215.11 372.11 203.09 375.39 191.07 378.68 173.31 384.08 175.24 391.45 182.58 404.39 234.92 412.27 233.97 385.1Z" fill="#FBB383"/></g><g id="path21517_1_"><path d="M209.72 405.23C173.14 403.67 154.63 384.74 202.62 373.68 218.74 369.27 230.46 373.06 235.59 384.37 236.91 400.2 221.99 404.42 209.72 405.23ZM214.61 375.5C201.43 375.48 173.06 386.74 176.96 391.01 178.48 396.83 204.48 403.76 215.06 401.16 239.71 397.17 235.36 375.39 214.61 375.5Z" fill="#FB8D52"/></g><g id="path21519_1_"><path d="M351.76 347.22C351.76 347.22 367.35 356.31 372.57 359.47 377.79 362.63 384.08 358.78 378.96 352.14 373.83 345.5 356.17 331.52 356.17 331.52L351.76 347.22Z" fill="#FBB383"/></g><g id="path21521_1_"><path d="M376.41 362.39C370.02 361.75 352.53 348.95 350.86 348.77 348.85 347.63 350.67 344.49 352.66 345.69 352.82 345.78 368.33 354.82 373.5 357.96 377.93 360.4 381.05 357.41 377.55 353.24 372.61 346.85 355.24 333.06 355.07 332.92 350.72 321.66 375.52 345.26 380.38 351.06 385.39 358.32 381.4 362.04 376.41 362.39Z" fill="#FB8D52"/></g><g id="path33401_1_"><path d="M375.58 87.6C385.86 91.75 397.08 92 408 92.2 410.83 92.78 460.69 88.55 447.59 83.6 424.55 88.26 399.66 92.11 376.85 84.26 374.58 83.43 373.28 86.64 375.58 87.6Z" fill="#AFBDBE"/></g><g id="path33403_1_"><path d="M388.03 101.4C397.51 104.42 407.59 104.12 417.4 103.61 426.9 102.6 422.19 103.22 431.54 101.74 434.03 101.34 433.47 97.82 430.98 98.22 421.98 99.65 426.08 99.13 416.91 100.07 407.62 100.55 398.16 100.86 389.14 98.02 386.82 97.29 385.69 100.56 388.03 101.4L388.03 101.4Z" fill="#AFBDBE"/></g><g><linearGradient x1="153.703" y1="-735.668" x2="146.654" y2="-708.2" gradientUnits="userSpaceOnUse" id="SVGID_4_" gradientTransform="matrix(0.8732 0.4873 -0.4873 0.8732 -250.028 556.422)"><stop offset="0.2206" stop-color="#FCE8D9"/><stop offset="1" stop-color="#F4C7BD"/></linearGradient><path d="M231.96 6.58C230.45 12.38 229.57 18.3 229.7 24.35 230.01 38.72 236.51 52.28 246.99 61.36 259.5 72.21 273.19 73.39 288.66 72.96 295.37 72.77 302.09 72.43 308.77 71.69 321.95 70.23 335.09 67.23 347.09 61.12 362.3 53.37 378.25 39.37 384.6 22.46 391.77 3.36 392.04-18.02 388.41-38.01 385.43-54.36 369.41-72.49 356.4-81.11 335.73-94.8 310.58-94.83 289.17-82.9 263.94-68.84 253.76-45.59 242.04-19.73 238.17-11.24 234.31-2.47 231.96 6.58Z" fill="#F9B799"/><g><path d="M282.59-2.58C282.77-1.63 284.5-1.2 286.44-1.61 288.39-2.03 289.82-3.13 289.64-4.08 289.46-5.03 287.73-5.46 285.79-5.05 283.84-4.64 282.41-3.53 282.59-2.58Z" fill="#F4C7BD"/><path d="M270.25 1.26C270.43 2.21 272.16 2.64 274.1 2.23 276.05 1.81 277.48 0.71 277.3-0.24 277.12-1.19 275.39-1.62 273.45-1.21 271.5-0.8 270.06 0.31 270.25 1.26Z" fill="#F4C7BD"/><path d="M278.68 5.02C278.86 5.97 280.59 6.4 282.53 5.99 284.48 5.57 285.91 4.47 285.73 3.52 285.55 2.57 283.82 2.14 281.88 2.55 279.93 2.96 278.5 4.07 278.68 5.02Z" fill="#F4C7BD"/></g><path d="M229-3.71C226.62-2.74 223.61-2.04 222.85 0.53 222.44 1.9 222.88 3.43 223.71 4.56 224.54 5.69 225.71 6.49 226.9 7.17 228.36 8 229.97 8.71 231.61 8.54 234.23 8.28 236.22 5.9 237.4 3.42 239.39-0.77 240.17-6.57 238.36-10.93 235.13-8.65 232.73-5.23 229-3.71Z" fill="url(#SVGID_4_)"/><g><path d="M283.92-15.28C281.83-16.06 274.82-12.3 272.7-11.46 270.21-10.47 267.78-9.29 265.43-7.97 264.96-7.71 259.27-4.28 259.4-4.11 257.19-6.97 256.29-10.39 255.94-14 255.74-16.1 255.7-18.23 255.84-20.33 255.87-20.83 256.64-26.28 256.71-26.25 261.18-24.5 264.28-22.39 268.69-20.48 272.78-18.72 279.53-15.72 283.92-15.28Z" fill="#FFFFFF"/><g><defs><path d="M283.92-12.47C281.83-13.25 274.82-9.49 272.7-8.65 270.21-7.66 267.78-6.48 265.43-5.16 264.96-4.9 259.27-1.47 259.4-1.3 257.19-4.16 256.29-7.58 255.94-11.19 255.74-13.29 255.7-15.42 255.84-17.52 255.87-18.02 256.64-23.47 256.71-23.44 261.18-21.69 264.28-19.58 268.69-17.67 272.78-15.91 279.53-12.91 283.92-12.47Z" id="SVGID_5_"/></defs><clipPath id="SVGID_6_"><use width="100%" height="100%" xlink:href="#SVGID_5_" overflow="visible"></use></clipPath><g clip-path="url(#SVGID_6_)"><path d="M251.02-8.97C247.54-13.91 248.5-20.9 253.18-24.59 257.85-28.28 264.47-27.26 267.95-22.32 271.43-17.38 270.47-10.39 265.79-6.7 261.11-3.01 254.5-4.03 251.02-8.97Z" fill="#8C7257"/><path d="M254.64-9.45C253.39-11.23 253.73-13.75 255.42-15.08 257.1-16.41 259.49-16.04 260.74-14.26 261.99-12.48 261.65-9.96 259.96-8.63 258.28-7.3 255.89-7.67 254.64-9.45Z" fill="#3A3129"/><path d="M263.95-18.65C264.72-18.73 265.5-18.81 266.25-18.65 267.36-18.42 267.83-17.87 268.04-16.72 268.1-16.4 268.15-16.08 268.17-15.76 268.23-14.39 267.4-12.19 266.28-11.4 265.62-10.94 264.76-11.41 264.11-11.89 262.57-13.03 259.02-15.17 258.3-17.05 257.75-18.47 258.67-18.1 260.07-18.24 261.36-18.38 262.65-18.52 263.95-18.65Z" fill="#FFFFFF" opacity="0.2"/><path d="M263.23-9.03C263.29-8.97 263.35-8.9 263.37-8.82 263.4-8.65 263.26-8.51 263.12-8.41 262.68-8.09 262.19-7.82 261.67-7.71 261.14-7.61 260.57-7.69 260.14-8.02 259.73-8.33 259.49-8.82 259.29-9.3 259.06-9.85 257.67-13.93 259.14-13.23 259.85-12.89 260.61-11.72 261.17-11.15 261.85-10.45 262.54-9.74 263.23-9.03Z" fill="#FFFFFF" opacity="0.2"/></g></g><g><path d="M253.6-27.35C256.24-26.6 258.79-25.57 261.3-24.49 263.81-23.42 266.25-22.2 268.7-21.04 271.17-19.88 273.64-18.74 276.16-17.72 278.68-16.72 281.23-15.73 283.93-15.33L283.92-15.22C281.18-15.46 278.54-16.28 275.95-17.15 273.36-18.05 270.83-19.1 268.3-20.11 265.76-21.14 263.27-22.27 260.84-23.5 258.4-24.72 255.99-25.98 253.56-27.24L253.6-27.35Z" fill="#5E5149"/></g></g><path d="M368.82-121.33C355.43-126.18 341.44-129.41 327.2-130.01 308.28-130.81 288.86-126.78 272.74-116.79 262.58-110.5 253.75-101.79 247.2-91.44 240.25-80.47 238.57-67.65 242.47-54.74 245.53-44.59 252.68-35.6 262.15-31.95 260.65-37.22 259.75-42.67 259.46-48.16 259.8-41.63 269.5-33.69 273.91-29.93 280.73-24.12 288.53-19.62 296.66-16.21 301.04-14.37 305.79-12.63 308.64-8.85 310.83-5.96 311.59-2.22 311.65 1.41 311.77 8.19 309.34 15.37 303.88 19.5 313.12 14.63 320.28 5.96 323.25-3.98 322.84 4.93 319.24 13.68 313.24 20.37 317.79 20.02 320.82 15.68 323.17 11.79 325.6 7.76 328.03 3.74 330.46-0.29 331.19-1.5 331.99-2.78 333.25-3.45 334.3-4 335.53-4.06 336.71-4.03 343.73-3.85 350.97-0.49 354.15 5.68 357.82 12.82 355.4 21.45 356.1 29.45 357.27 42.79 368.44 54.55 381.8 56.49 380.52 52.77 379.84 48.84 379.79 44.89 384.44 48.07 388.57 45.21 392.38 41.93 404.13 31.8 416.37 20.98 421.5 6.43 424.65-2.49 424.84-12.13 424.57-21.55 424.27-31.9 423.04-43.19 415.64-50.45 419.62-69.84 415.31-91.84 400.46-104.9 395-109.7 388.44-113.08 381.79-116.07 377.54-117.97 373.22-119.74 368.82-121.33Z" fill="#111010"/><path d="M303.88 19.49C309.34 15.35 311.77 8.18 311.65 1.4 311.59-2.23 310.83-5.96 308.64-8.86 305.79-12.63 301.04-14.38 296.66-16.22 288.53-19.64 280.73-24.13 273.91-29.94 269.5-33.69 259.8-41.64 259.46-48.17 268.64-38.1 280.27-29.75 292.81-25.3 299.15-23.05 306.08-21.41 310.75-16.35 315.26-11.47 316.76-3.98 315.34 2.68 313.93 9.34 308.96 15.27 303.88 19.49Z" opacity="0.15"/><path d="M335.81 24.13C342.27 26.15 349.6 24.75 354.98 20.48 360.37 16.2 363.69 9.15 363.66 2.04 363.66 1.77 363.65 1.49 363.5 1.26 363.3 0.96 362.92 0.87 362.58 0.81 360.42 0.42 358.26 0.04 356.1-0.35L335.81 24.13Z" opacity="0.15"/><path d="M312.61-123C298.98-122.25 284.96-119.16 274.03-110.51 263.1-101.86 256.03-86.64 259.56-72.71 261.59-79.27 265.12-85.31 269.76-90.17 272.32-76.97 280.42-65.09 291.46-58.35 301.86-52 314.9-49.82 322.92-40.36 323.53-45.33 323.45-50.4 322.67-55.34 329.05-53.74 334.88-49.81 338.96-44.38 345.4-60.88 358.19-74.49 373.76-81.4 377.71-83.16 381.91-84.51 386.2-84.5 393.11-84.49 399.71-80.9 404.71-75.86 404.21-83.07 400.73-89.77 396.17-95.16 376.4-118.53 340.76-124.55 312.61-123Z" fill="#FFFFFF" opacity="0.1"/><g id="path8693_1_"><path d="M255.14 34.48C249.91 33.93 239.88 35.46 240 30.96 240.3 30.02 241.3 29.5 242.24 29.8 247.82 31.59 264.16 30.85 270.76 30.24 271.73 30.15 272.61 30.87 272.7 31.85 272.53 35.61 261.76 33.81 255.14 34.48Z" fill="#FB8D52"/></g></g></g></svg>