<svg width="89.45" height="100" viewBox="0 0 89.45 100" xmlns="http://www.w3.org/2000/svg" xmlns:xlink="http://www.w3.org/1999/xlink" xml:space="preserve" overflow="hidden"><defs></defs><path d="M81.88 82.61C87.07 73.61 88.04 62.94 88.78 52.46 89.93 35.95 90.06 18.73 85.24 2.79 84.86 1.53 83.69 1.11 82.69 1.41 79.32-0.13 76.67 0.42 72.61 0.51 67.01 0.6 61.32 0.3 55.66 0.22 50.58 0.14 45.39-0.28 40.34 0.32 39.89 0.41 39.54 0.57 39.23 0.82 38.38 0.76 37.51 1.21 37.52 2.28 37.6 21.17 37.16 40.29 34.37 59.04 33.17 54.76 31.16 50.91 28.24 48.48 17.31 39.42 6 52.66 2.46 62.33-1.27 72.34-1.92 88.6 8.97 94.5 21.91 101.55 33.59 88.6 35.45 76.41 44.65 53.9 45.5 29.94 41.51 6.03 45.95 7.12 50.47 8.21 55.03 8.78 61.69 9.62 73.64 12.29 80.87 9.28 79.4 29.41 81.74 50.73 78.35 70.59 76.74 64.75 73.24 59.42 67.51 57.56 55.33 53.6 50.63 69.97 50.56 78.67 50.5 87.31 54.2 101.09 65.39 99.91 73.6 99.01 80.67 90.79 81.88 82.61Z" fill="#EA2316"/></svg>