<svg width="602.15" height="663.92" viewBox="0 0 602.15 663.92" xmlns="http://www.w3.org/2000/svg" xmlns:xlink="http://www.w3.org/1999/xlink" xml:space="preserve" overflow="hidden"><defs></defs><g><path d="M567.33 465.84C571.66 463.48 577.17 465.05 579.93 469.38 582.69 473.71 581.51 479.62 577.17 482.37 573.23 484.73 567.33 483.16 564.57 478.83 561.82 474.11 563 468.6 567.33 465.84L567.33 465.84Z" fill="#FEFEFE" fill-rule="evenodd" clip-rule="evenodd"/><g><path d="M288.53 663.92C394.46 663.92 481.09 655.65 481.09 645.81 481.09 635.57 394.46 627.3 288.53 627.3 182.6 627.3 96.36 635.57 96.36 645.81 96.37 655.65 182.61 663.92 288.53 663.92L288.53 663.92Z" fill="#CCCCCC" fill-rule="evenodd" clip-rule="evenodd"/><g><path d="M278.3 636.35C578.36 632.02 708.31 247.29 440.93 223.27 407.06 220.12 385.8 211.06 366.11 184.68 301.14 96.47 235.77 83.48 145.59 141.36-76.5 285.1 2.25 640.29 278.3 636.35L278.3 636.35ZM314.52 249.66C339.33 228 374.77 228 394.06 250.05 413.36 272.1 409.42 307.15 384.61 328.81 360.2 350.47 324.75 350.47 305.46 328.42 285.78 306.36 290.11 271.31 314.52 249.66L314.52 249.66Z" fill="#704319" fill-rule="evenodd" clip-rule="evenodd"/></g><g><path d="M261.36 624.93C561.82 620.6 691.77 235.87 424 211.85 390.53 208.7 369.26 199.64 349.57 173.26 284.2 85.05 218.83 71.66 129.05 129.94-93.44 273.68-14.68 628.87 261.36 624.93L261.36 624.93ZM297.99 237.84C322.4 216.58 357.85 216.58 377.53 238.63 396.83 260.68 392.49 295.73 368.08 317.39 343.67 339.05 307.83 338.65 288.54 317 269.24 294.94 273.57 259.5 297.99 237.84L297.99 237.84Z" fill="#DBB634" fill-rule="evenodd" clip-rule="evenodd"/></g><g opacity="0.68"><path d="M411.4 210.28C385.02 205.95 366.51 196.1 349.58 173.26 316.9 129.16 284.61 103.95 249.16 96.87 248.37 120.1 253.1 164.99 260.97 176.02 283.02 207.13 307.04 194.13 329.49 222.88 343.67 220.52 357.84 223.27 369.26 231.15 383.44 226.03 399.19 218.15 411.4 210.28L411.4 210.28Z" fill="#CB792D" fill-rule="evenodd" clip-rule="evenodd"/></g><g opacity="0.68"><path d="M261.36 624.93C502.75 621.39 634.27 372.12 537.4 261.86 555.12 344.56 541.73 407.17 512.2 456.39L388.95 279.98C387.37 288.64 384.22 297.31 379.11 305.18L502.76 474.51C410.22 630.45 107.4 663.13 11.32 443.79 40.84 544.99 128.26 626.9 261.36 624.93L261.36 624.93Z" fill="#CB792D" fill-rule="evenodd" clip-rule="evenodd"/></g><path d="M136.93 176.81C109.37 195.71 84.56 246.51 125.9 258.72 135.74 261.87 145.98 268.96 159.37 269.75 175.12 270.93 192.84 264.24 197.57 246.52 200.72 235.1 201.51 226.83 205.84 213.05 208.99 203.21 207.02 191 201.9 181.55 188.91 158.3 155.83 164.2 136.93 176.81L136.93 176.81Z" fill="#E50012" fill-rule="evenodd" clip-rule="evenodd"/><path d="M104.24 236.27C105.82 246.51 112.12 254.78 125.9 258.72 135.74 261.87 145.98 268.96 159.37 269.75 175.12 270.93 192.84 264.24 197.57 246.52 200.72 235.1 201.51 226.83 205.84 213.05 207.81 206.75 207.81 200.06 206.23 193.36 196.39 221.32 183.78 274.87 116.45 244.16 110.15 241.39 106.61 239.02 104.24 236.27L104.24 236.27Z" fill="#871A1F" fill-rule="evenodd" clip-rule="evenodd" opacity="0.69"/><path d="M75.1 328.02C49.9 336.68 28.63 361.49 42.02 385.91 46.75 394.97 55.8 397.33 67.22 414.26 101.09 465.45 168.03 390.24 140.46 348.1 127.87 328.81 95.58 321.32 75.1 328.02L75.1 328.02Z" fill="#5278F7" fill-rule="evenodd" clip-rule="evenodd"/><g opacity="0.68"><path d="M56.2 400.87C59.35 404.02 62.89 408.35 67.23 414.26 101.1 465.45 167.65 390.24 140.87 348.5 140.48 356.38 138.51 366.61 134.57 376.46 123.15 405.6 92.04 431.98 68.81 407.96 65.65 404.41 60.93 402.05 56.2 400.87L56.2 400.87Z" fill="#4150F3" fill-rule="evenodd" clip-rule="evenodd"/></g><path d="M184.18 488.29C157.01 508.37 159.37 535.15 178.67 551.69 192.85 563.5 209.39 564.68 224.35 561.53 266.48 552.47 274.75 542.23 272.79 503.25 270.03 458.76 210.17 468.6 184.18 488.29L184.18 488.29Z" fill="#009944" fill-rule="evenodd" clip-rule="evenodd"/><path d="M166.46 535.54C169.22 541.45 173.15 546.96 178.67 551.69 192.85 563.5 209.39 564.68 224.35 561.53 266.48 552.47 274.75 542.23 272.79 503.25 272.4 500.89 272 498.92 271.61 496.56 264.92 526.09 240.89 554.05 202.7 551.69 187.33 550.9 174.73 540.27 166.46 535.54L166.46 535.54Z" fill="#005C34" fill-rule="evenodd" clip-rule="evenodd" opacity="0.69"/><path d="M401.16 409.53C379.11 420.95 359.42 436.31 353.51 461.12 349.57 478.84 359.02 486.72 369.26 490.65 381.47 495.38 403.91 506.8 414.15 507.98 437.38 510.34 460.62 496.56 461.01 468.21 461.8 431.19 447.23 385.51 401.16 409.53L401.16 409.53Z" fill="#9E26C5" fill-rule="evenodd" clip-rule="evenodd"/><path d="M354.3 458.36C353.91 459.15 353.51 460.33 353.51 461.12 349.57 478.84 359.02 486.72 369.26 490.65 381.47 495.38 403.91 506.8 414.15 507.98 437.38 510.34 460.62 496.56 461.01 468.21 461.4 456.79 460.22 444.98 457.07 433.95 454.71 445.76 451.16 462.3 440.53 472.54 424.38 487.9 397.61 491.84 377.13 483.96 358.63 476.48 357.84 468.21 354.3 458.36L354.3 458.36Z" fill="#7914BA" fill-rule="evenodd" clip-rule="evenodd"/><path d="M372.41 256.35 366.11 247.69 329.09 194.13C366.5 188.22 393.67 169.32 414.54 142.15L444.47 198.07 449.98 209.1C433.05 232.72 404.7 251.62 372.41 256.35L372.41 256.35Z" fill="#9E26C5" fill-rule="evenodd" clip-rule="evenodd"/><path d="M372.41 256.35 366.11 247.69 329.09 194.13C345.63 191.77 360.59 186.25 373.59 178.77 367.29 204.37 384.22 226.81 401.94 247.68 392.49 252.02 382.65 254.77 372.41 256.35L372.41 256.35Z" fill="#7914BA" fill-rule="evenodd" clip-rule="evenodd"/><path d="M552.37 513.89 372.41 256.35C404.7 251.62 433.05 232.72 449.99 209.1L598.45 488.29C614.59 518.61 574.03 544.99 552.37 513.89L552.37 513.89Z" fill="#008CD6" fill-rule="evenodd" clip-rule="evenodd"/><path d="M552.37 513.89 372.41 256.35C404.7 251.62 433.05 232.72 449.99 209.1L453.53 215.4C445.26 229.58 423.21 244.15 413.76 250.45 392.5 264.63 409.43 280.77 420.45 296.92 461.01 357.96 538.59 466.64 574.42 527.68 566.55 527.27 558.67 522.94 552.37 513.89L552.37 513.89Z" fill="#0070B3" fill-rule="evenodd" clip-rule="evenodd"/><path d="M329.09 194.13C273.57 185.47 266.48 146.09 267.66 74.81 268.05 50.79 261.75 33.46 232.61 6.29 317.67-16.55 420.05 50.39 414.54 142.15 393.68 169.32 366.5 188.23 329.09 194.13L329.09 194.13Z" fill="#3E3938" fill-rule="evenodd" clip-rule="evenodd"/><path d="M265.7 78.36C266.09 76.79 266.09 75.6 266.09 74.03 266.48 50.4 261.76 33.47 232.62 6.3 261.37-9.45 340.12 7.48 347.61 22.84 349.19 25.6 347.61 33.08 342.88 38.99 335 48.44 336.97 59.07 340.52 68.92 357.45 112.63 336.58 119.32 304.29 90.18 292.87 80.34 283.42 85.85 274.76 90.18 266.09 94.11 264.91 86.63 265.7 78.36L265.7 78.36Z" fill="#E50012" fill-rule="evenodd" clip-rule="evenodd"/><path d="M555.13 456C512.6 386.69 470.07 316.99 427.54 247.29 434.23 242.17 440.93 237.45 447.62 232.33 487.79 304.39 528.35 376.46 568.51 448.52 574.03 457.97 561.43 466.24 555.13 456L555.13 456Z" fill="#FEFEFE" fill-rule="evenodd" clip-rule="evenodd"/><path d="M191.27 221.7C192.06 224.06 192.85 226.43 193.24 230.76 193.63 238.64 190.09 245.33 187.33 250.06 173.94 273.29 133.38 261.87 163.31 242.97 171.97 237.46 171.58 229.58 173.55 223.28 175.91 214.61 186.54 211.85 191.27 221.7L191.27 221.7Z" fill="#FEFEFE" fill-rule="evenodd" clip-rule="evenodd" opacity="0.4"/><path d="M87.55 420.44C100.15 431.47 126.53 415.71 134.02 394.84 138.75 381.85 132.84 370.43 120.63 380.66 110.39 388.93 112.36 398.77 97.79 403.89 92.27 405.87 75.34 409.81 87.55 420.44L87.55 420.44Z" fill="#FEFEFE" fill-rule="evenodd" clip-rule="evenodd" opacity="0.5"/><path d="M265.7 523.91C267.28 516.03 262.55 513.28 259.4 513.28 255.46 513.28 249.95 518.01 245.62 522.73 236.56 531.79 240.11 532.57 226.72 535.33 207.03 539.27 210.97 555.81 227.51 554.63 242.46 553.45 263.33 537.7 265.7 523.91L265.7 523.91Z" fill="#FEFEFE" fill-rule="evenodd" clip-rule="evenodd" opacity="0.47"/><path d="M450.77 470.96C445.26 511.91 389.73 490.65 416.12 475.69 421.24 472.93 425.18 472.15 428.33 467.03 431.09 463.09 430.69 457.58 431.09 452.46 431.88 444.98 438.97 437.5 444.87 443.8 448.41 448.12 451.56 465.45 450.77 470.96L450.77 470.96Z" fill="#FEFEFE" fill-rule="evenodd" clip-rule="evenodd" opacity="0.35"/><path d="M420.85 224.45 405.89 200.82 422.43 185.86 435.82 212.24 420.85 224.45ZM400.76 192.95 392.88 180.35 411.39 164.99 418.08 177.59 400.76 192.95Z" fill="#FEFEFE" fill-rule="evenodd" clip-rule="evenodd"/><path d="M355.08 40.95C361.77 35.44 373.19 37.8 380.28 46.46 387.37 54.73 387.37 66.54 380.67 72.06 373.98 77.57 362.95 75.21 355.86 66.55 348.39 58.28 348.39 46.86 355.08 40.95L355.08 40.95Z" fill="#E50012" fill-rule="evenodd" clip-rule="evenodd"/><path d="M127.08 140.97C45.57 204.37 16.82 268.95 7.37 360.31 32.18 271.31 55.41 206.34 127.08 140.97L127.08 140.97Z" fill="#FEFEFE" fill-rule="evenodd" clip-rule="evenodd" opacity="0.47"/><g opacity="0.69"><path d="M269.63 74.53C269.63 73.03 269.63 71.9 269.63 70.77 270 47.86 265.96 31.72 238.4 5.81 260.45 15.57 284.33 19.7 283.23 52 282.5 66.65 303.07 64.02 316.67 84.29 322.55 92.93 334.67 94.8 344.96 91.05 343.86 108.32 327.69 106.07 305.28 86.17 294.99 76.41 286.17 81.66 278.09 85.79 269.63 89.55 268.9 82.41 269.63 74.53L269.63 74.53Z" fill="#871A1F" fill-rule="evenodd" clip-rule="evenodd"/></g></g></g></svg>