<svg width="54.63" height="56.74" viewBox="0 0 54.63 56.74" xmlns="http://www.w3.org/2000/svg" xmlns:xlink="http://www.w3.org/1999/xlink" xml:space="preserve" overflow="hidden"><defs></defs><g><path d="M33.02 41.51C32.96 41.3 32.82 41.11 32.75 40.9 32.71 40.78 32.68 40.66 32.66 40.54 32.33 38.9 30.98 38.52 29.37 40.35 28.9 40.88 28.52 41.46 27.99 41.93 27.67 42.23 27.3 42.5 26.92 42.71 26.57 42.91 26.22 43.02 25.96 43.37 25.73 43.68 25.63 44.1 25.73 44.48 25.86 44.94 26.26 45.29 26.72 45.42 27.57 45.66 28.33 45.25 29.08 44.93 29.65 44.68 30.23 44.47 30.76 44.16 31.66 43.63 33.24 42.23 33.02 41.51Z" fill="#B4BCE2"/><g><g><g><g><defs><path d="M32.24 27.18 32.29 44.52C32.29 44.64 32.37 44.75 32.52 44.84L32.47 27.5C32.32 27.41 32.24 27.3 32.24 27.18Z" id="SVGID_1_"/></defs><clipPath id="SVGID_2_"><use width="100%" height="100%" xlink:href="#SVGID_1_" overflow="visible"></use></clipPath><use width="100%" height="100%" xlink:href="#SVGID_1_" fill="#DADFF6" overflow="visible"></use><g clip-path="url(#SVGID_2_)"><path d="M32.24 27.18 32.29 44.52C32.29 44.64 32.37 44.75 32.52 44.84L32.47 27.5C32.32 27.41 32.24 27.3 32.24 27.18L32.24 27.18Z" fill="#DADFF6"/></g></g><g><defs><path d="M36.75 44.51 36.7 27.18C36.7 27.3 36.62 27.41 36.47 27.5L36.52 44.84C36.67 44.75 36.75 44.63 36.75 44.51Z" id="SVGID_3_"/></defs><clipPath id="SVGID_4_"><use width="100%" height="100%" xlink:href="#SVGID_3_" overflow="visible"></use></clipPath><use width="100%" height="100%" xlink:href="#SVGID_3_" fill="#F4F5FA" overflow="visible"></use><g clip-path="url(#SVGID_4_)"><path d="M36.47 27.5 36.52 44.84C36.67 44.75 36.75 44.63 36.75 44.52L36.7 27.18C36.7 27.29 36.62 27.41 36.47 27.5L36.47 27.5Z" fill="#F4F5FA"/></g></g><g><path d="M32.47 27.5 32.52 44.84 33.96 45.68 33.91 28.34Z" fill="#DADFF6"/></g><g><path d="M35.02 28.34 35.06 45.68 36.52 44.84 36.47 27.5Z" fill="#F4F5FA"/></g><g><defs><path d="M33.91 28.34 33.96 45.68C34.26 45.86 34.76 45.86 35.06 45.68L35.01 28.34C34.71 28.51 34.21 28.51 33.91 28.34Z" id="SVGID_5_"/></defs><clipPath id="SVGID_6_"><use width="100%" height="100%" xlink:href="#SVGID_5_" overflow="visible"></use></clipPath><use width="100%" height="100%" xlink:href="#SVGID_5_" fill="#F4F5FA" overflow="visible"></use><g clip-path="url(#SVGID_6_)"><path d="M33.91 28.34 33.96 45.68C34.26 45.86 34.76 45.86 35.06 45.68L35.01 28.34C34.71 28.51 34.21 28.51 33.91 28.34L33.91 28.34Z" fill="#F4F5FA"/></g></g><g><path d="M32.47 26.86C32.17 27.04 32.16 27.32 32.47 27.5L33.91 28.34C34.21 28.52 34.71 28.52 35.01 28.34L36.46 27.5C36.76 27.32 36.77 27.04 36.46 26.86L35.02 26.02C34.72 25.84 34.22 25.84 33.92 26.02L32.47 26.86Z" fill="#F4F5FA"/></g></g></g><g><g><g><defs><path d="M10.61 14.73 10.66 32.07C10.66 32.19 10.74 32.3 10.89 32.39L10.84 15.05C10.69 14.96 10.61 14.85 10.61 14.73Z" id="SVGID_7_"/></defs><clipPath id="SVGID_8_"><use width="100%" height="100%" xlink:href="#SVGID_7_" overflow="visible"></use></clipPath><use width="100%" height="100%" xlink:href="#SVGID_7_" fill="#DADFF6" overflow="visible"></use><g clip-path="url(#SVGID_8_)"><path d="M10.61 14.73 10.66 32.07C10.66 32.19 10.74 32.3 10.89 32.39L10.84 15.05C10.69 14.96 10.61 14.85 10.61 14.73L10.61 14.73Z" fill="#DADFF6"/></g></g><g><defs><path d="M15.11 32.07 15.06 14.73C15.06 14.85 14.98 14.96 14.83 15.05L14.88 32.39C15.04 32.3 15.11 32.18 15.11 32.07Z" id="SVGID_9_"/></defs><clipPath id="SVGID_10_"><use width="100%" height="100%" xlink:href="#SVGID_9_" overflow="visible"></use></clipPath><use width="100%" height="100%" xlink:href="#SVGID_9_" fill="#F4F5FA" overflow="visible"></use><g clip-path="url(#SVGID_10_)"><path d="M14.84 15.05 14.89 32.39C15.04 32.3 15.12 32.18 15.12 32.07L15.07 14.73C15.07 14.85 14.99 14.96 14.84 15.05L14.84 15.05Z" fill="#F4F5FA"/></g></g><g><path d="M10.84 15.05 10.89 32.39 12.33 33.23 12.28 15.89Z" fill="#DADFF6"/></g><g><path d="M13.38 15.89 13.43 33.23 14.88 32.39 14.84 15.05Z" fill="#F4F5FA"/></g><g><defs><path d="M12.28 15.89 12.33 33.23C12.63 33.41 13.13 33.41 13.43 33.23L13.38 15.89C13.08 16.07 12.58 16.07 12.28 15.89Z" id="SVGID_11_"/></defs><clipPath id="SVGID_12_"><use width="100%" height="100%" xlink:href="#SVGID_11_" overflow="visible"></use></clipPath><use width="100%" height="100%" xlink:href="#SVGID_11_" fill="#F4F5FA" overflow="visible"></use><g clip-path="url(#SVGID_12_)"><path d="M12.28 15.89 12.33 33.23C12.63 33.41 13.13 33.41 13.43 33.23L13.38 15.89C13.08 16.07 12.58 16.07 12.28 15.89L12.28 15.89Z" fill="#F4F5FA"/></g></g><g><path d="M10.84 14.41C10.54 14.59 10.53 14.87 10.84 15.05L12.28 15.89C12.58 16.07 13.08 16.07 13.38 15.89L14.83 15.05C15.13 14.87 15.14 14.59 14.83 14.41L13.39 13.57C13.09 13.39 12.59 13.39 12.29 13.57L10.84 14.41Z" fill="#F4F5FA"/></g></g></g><g><g><g><defs><path d="M50.13 16.87 50.18 34.21C50.18 34.33 50.26 34.44 50.41 34.53L50.36 17.19C50.2 17.1 50.13 16.98 50.13 16.87Z" id="SVGID_13_"/></defs><clipPath id="SVGID_14_"><use width="100%" height="100%" xlink:href="#SVGID_13_" overflow="visible"></use></clipPath><use width="100%" height="100%" xlink:href="#SVGID_13_" fill="#DADFF6" overflow="visible"></use><g clip-path="url(#SVGID_14_)"><path d="M50.13 16.87 50.18 34.21C50.18 34.33 50.26 34.44 50.41 34.53L50.36 17.19C50.2 17.1 50.13 16.98 50.13 16.87L50.13 16.87Z" fill="#DADFF6"/></g></g><g><defs><path d="M54.63 34.2 54.58 16.86C54.58 16.98 54.5 17.09 54.35 17.18L54.4 34.52C54.55 34.43 54.63 34.31 54.63 34.2Z" id="SVGID_15_"/></defs><clipPath id="SVGID_16_"><use width="100%" height="100%" xlink:href="#SVGID_15_" overflow="visible"></use></clipPath><use width="100%" height="100%" xlink:href="#SVGID_15_" fill="#F4F5FA" overflow="visible"></use><g clip-path="url(#SVGID_16_)"><path d="M54.35 17.18 54.4 34.52C54.55 34.43 54.63 34.31 54.63 34.2L54.58 16.86C54.58 16.98 54.51 17.1 54.35 17.18L54.35 17.18Z" fill="#F4F5FA"/></g></g><g><path d="M50.35 17.18 50.4 34.52 51.85 35.36 51.8 18.02Z" fill="#DADFF6"/></g><g><path d="M52.9 18.02 52.95 35.36 54.4 34.52 54.35 17.18Z" fill="#F4F5FA"/></g><g><defs><path d="M51.8 18.02 51.85 35.36C52.15 35.54 52.65 35.54 52.95 35.36L52.9 18.02C52.6 18.2 52.1 18.2 51.8 18.02Z" id="SVGID_17_"/></defs><clipPath id="SVGID_18_"><use width="100%" height="100%" xlink:href="#SVGID_17_" overflow="visible"></use></clipPath><use width="100%" height="100%" xlink:href="#SVGID_17_" fill="#F4F5FA" overflow="visible"></use><g clip-path="url(#SVGID_18_)"><path d="M51.8 18.02 51.85 35.36C52.15 35.54 52.65 35.54 52.95 35.36L52.9 18.02C52.6 18.2 52.1 18.2 51.8 18.02L51.8 18.02Z" fill="#F4F5FA"/></g></g><g><path d="M50.36 16.54C50.06 16.72 50.05 17 50.36 17.18L51.8 18.02C52.1 18.2 52.6 18.2 52.9 18.02L54.35 17.18C54.65 17 54.66 16.72 54.35 16.54L52.91 15.7C52.61 15.52 52.11 15.52 51.81 15.7L50.36 16.54Z" fill="#F4F5FA"/></g></g></g><g><g><g><defs><path d="M10.61 13.37 10.62 15.97C10.62 16.3 10.84 16.64 11.28 16.89L11.27 14.29C10.83 14.04 10.61 13.71 10.61 13.37Z" id="SVGID_19_"/></defs><clipPath id="SVGID_20_"><use width="100%" height="100%" xlink:href="#SVGID_19_" overflow="visible"></use></clipPath><use width="100%" height="100%" xlink:href="#SVGID_19_" fill="#DADFF6" overflow="visible"></use><g clip-path="url(#SVGID_20_)"><path d="M10.61 13.37 10.62 15.97C10.62 16.3 10.84 16.64 11.28 16.89L11.27 14.29C10.83 14.04 10.61 13.71 10.61 13.37L10.61 13.37Z" fill="#DADFF6"/></g></g><g><defs><path d="M54.59 18.11 54.58 15.51C54.58 15.85 54.36 16.19 53.91 16.44L53.92 19.04C54.37 18.78 54.59 18.44 54.59 18.11Z" id="SVGID_21_"/></defs><clipPath id="SVGID_22_"><use width="100%" height="100%" xlink:href="#SVGID_21_" overflow="visible"></use></clipPath><use width="100%" height="100%" xlink:href="#SVGID_21_" fill="#F4F5FA" overflow="visible"></use><g clip-path="url(#SVGID_22_)"><path d="M53.92 16.44 53.93 19.04C54.37 18.78 54.6 18.44 54.6 18.11L54.59 15.51C54.58 15.84 54.36 16.18 53.92 16.44L53.92 16.44Z" fill="#F4F5FA"/></g></g><g><path d="M11.27 14.29 11.28 16.89 32.83 29.37 32.83 26.77Z" fill="#DADFF6"/></g><g><path d="M36.03 26.77 36.04 29.37 53.92 19.04 53.92 16.44Z" fill="#F4F5FA"/></g><g><defs><path d="M32.83 26.77 32.84 29.37C33.72 29.88 35.16 29.88 36.04 29.37L36.03 26.77C35.15 27.28 33.7 27.28 32.83 26.77Z" id="SVGID_23_"/></defs><clipPath id="SVGID_24_"><use width="100%" height="100%" xlink:href="#SVGID_23_" overflow="visible"></use></clipPath><use width="100%" height="100%" xlink:href="#SVGID_23_" fill="#F4F5FA" overflow="visible"></use><g clip-path="url(#SVGID_24_)"><path d="M32.83 26.77 32.84 29.37C33.01 29.47 33.21 29.55 33.41 29.61L33.4 27.01C33.19 26.95 33 26.87 32.83 26.77L32.83 26.77Z" fill="#DADFF6"/><path d="M33.4 27.01 33.41 29.61C33.98 29.78 34.65 29.8 35.24 29.67L35.23 27.07C34.64 27.19 33.97 27.18 33.4 27.01L33.4 27.01Z" fill="#F4F5FA"/><path d="M35.23 27.07 35.24 29.67C35.53 29.61 35.81 29.51 36.04 29.37L36.03 26.77C35.8 26.9 35.52 27 35.23 27.07L35.23 27.07Z" fill="#F4F5FA"/></g></g><g><path d="M11.28 12.44C10.4 12.95 10.39 13.79 11.27 14.3L32.83 26.77C33.71 27.28 35.15 27.28 36.03 26.77L53.92 16.44C54.8 15.93 54.81 15.09 53.93 14.58L32.37 2.11C31.49 1.6 30.05 1.6 29.17 2.11L11.28 12.44Z" fill="#F4F5FA"/></g></g></g><g><g><g><defs><path d="M10.61 12.89 10.62 13.42C10.62 13.75 10.84 14.09 11.28 14.34L11.27 13.81C10.83 13.55 10.61 13.22 10.61 12.89Z" id="SVGID_25_"/></defs><clipPath id="SVGID_26_"><use width="100%" height="100%" xlink:href="#SVGID_25_" overflow="visible"></use></clipPath><use width="100%" height="100%" xlink:href="#SVGID_25_" fill="#FFB900" overflow="visible"></use><g clip-path="url(#SVGID_26_)"><path d="M10.61 12.89 10.62 13.42C10.62 13.75 10.84 14.09 11.28 14.34L11.27 13.81C10.83 13.55 10.61 13.22 10.61 12.89L10.61 12.89Z" fill="#FFB900"/></g></g><g><defs><path d="M54.59 15.55 54.58 15.02C54.58 15.36 54.36 15.7 53.91 15.95L53.92 16.48C54.37 16.22 54.59 15.89 54.59 15.55Z" id="SVGID_27_"/></defs><clipPath id="SVGID_28_"><use width="100%" height="100%" xlink:href="#SVGID_27_" overflow="visible"></use></clipPath><use width="100%" height="100%" xlink:href="#SVGID_27_" fill="#FFB900" overflow="visible"></use><g clip-path="url(#SVGID_28_)"><path d="M53.92 15.95 53.93 16.48C54.37 16.22 54.6 15.88 54.6 15.55L54.59 15.02C54.58 15.36 54.36 15.7 53.92 15.95L53.92 15.95Z" fill="#FFB900"/></g></g><g><path d="M11.27 13.81 11.28 14.33 32.83 26.81 32.83 26.28Z" fill="#FFB900"/></g><g><path d="M36.03 26.28 36.04 26.81 53.92 16.48 53.92 15.95Z" fill="#FFB900"/></g><g><defs><path d="M32.83 26.28 32.84 26.81C33.72 27.32 35.16 27.32 36.04 26.81L36.03 26.28C35.15 26.79 33.7 26.79 32.83 26.28Z" id="SVGID_29_"/></defs><clipPath id="SVGID_30_"><use width="100%" height="100%" xlink:href="#SVGID_29_" overflow="visible"></use></clipPath><use width="100%" height="100%" xlink:href="#SVGID_29_" fill="#FFB900" overflow="visible"></use><g clip-path="url(#SVGID_30_)"><path d="M32.83 26.28 32.84 26.81C33.01 26.91 33.21 26.99 33.41 27.05L33.4 26.52C33.19 26.46 33 26.38 32.83 26.28L32.83 26.28Z" fill="#FFB900"/><path d="M33.4 26.52 33.41 27.05C33.98 27.22 34.65 27.24 35.24 27.11L35.23 26.58C34.64 26.71 33.97 26.69 33.4 26.52L33.4 26.52Z" fill="#FFB900"/><path d="M35.23 26.58 35.24 27.11C35.53 27.05 35.81 26.95 36.04 26.81L36.03 26.28C35.8 26.42 35.52 26.52 35.23 26.58L35.23 26.58Z" fill="#FFB900"/></g></g><g><path d="M11.28 11.95C10.4 12.46 10.39 13.3 11.27 13.81L32.83 26.28C33.71 26.79 35.15 26.79 36.03 26.28L53.92 15.95C54.8 15.44 54.81 14.6 53.93 14.09L32.37 1.62C31.49 1.11 30.05 1.11 29.17 1.62L11.28 11.95Z" fill="#FFE229"/></g></g></g></g><g><path d="M42.3 10.78C42.98 10.39 42.98 9.76 42.31 9.37 41.95 9.16 41.46 9.06 40.98 9.08 41.3 8.71 41.19 8.24 40.66 7.93 40.03 7.56 39.02 7.54 38.34 7.87 38.26 7.78 38.16 7.69 38.02 7.62 37.35 7.23 36.25 7.23 35.58 7.62 34.91 8.01 34.9 8.64 35.56 9.03 35.15 9.42 35.23 9.93 35.81 10.26 36.26 10.52 36.89 10.6 37.46 10.52 37.51 10.73 37.67 10.93 37.95 11.09 38.62 11.48 39.72 11.48 40.39 11.09 40.43 11.07 40.47 11.04 40.5 11.02 41.1 11.14 41.81 11.06 42.3 10.78Z" fill="#F4F5FA"/><path d="M36.22 11.33 38.06 6.68C37.63 6.51 37.14 6.73 36.97 7.16L35.16 11.73 36.22 11.33Z" fill="#464048"/><path d="M35.65 10.86 37.98 9.13 39.61 7.92C39.7 8.2 39.44 8.67 38.85 9.16L38.04 9.84 35.62 12.2 35.65 10.86Z" fill="#464048"/><path d="M35.61 12.2 36.43 11.14 35.53 11.07 35.01 11.74Z" fill="#464048"/><g><path d="M33.35 15.84C32.93 15.63 32.76 15.12 32.97 14.69L33.5 13.62C33.71 13.19 34.22 13.02 34.64 13.23 35.06 13.44 35.23 13.95 35.02 14.38L34.49 15.45C34.29 15.87 33.77 16.05 33.35 15.84ZM33.29 14.85C33.17 15.1 33.27 15.4 33.51 15.52 33.76 15.64 34.05 15.54 34.18 15.29L34.71 14.22C34.83 13.97 34.73 13.67 34.49 13.55 34.25 13.43 33.95 13.53 33.82 13.78L33.29 14.85Z" fill="#51ADE2"/></g><path d="M25.44 9.94C25.39 9.87 25.28 9.87 25.33 9.76 25.37 9.68 25.58 9.62 25.65 9.59 25.81 9.52 26.1 9.44 26.12 9.23 26.13 9.1 26.1 9.09 26.17 8.97 26.22 8.9 26.26 8.86 26.2 8.77 26.1 8.62 25.86 8.58 25.7 8.57 25.56 8.55 25.32 8.64 25.26 8.44 25.25 8.39 25.29 8.34 25.26 8.3 25.24 8.26 25.14 8.24 25.1 8.23 24.84 8.18 24.54 8.2 24.28 8.22 23.93 8.24 23.57 8.27 23.22 8.31 22.89 8.35 22.56 8.33 22.24 8.41 21.44 8.6 20.78 9.11 20.04 9.44 19.94 9.48 19.59 9.65 19.48 9.69 19.14 9.83 18.64 9.8 18.28 9.85 17.91 9.9 17.22 9.83 16.9 9.96 16.12 10.28 16.41 11.81 16.84 12.31 17.88 13.53 19.18 12.03 20.31 11.85 20.78 11.78 21.58 11.56 22.14 11.45 22.77 11.33 23.24 10.87 23.84 10.67 24.02 10.62 25.74 10.36 25.44 9.94Z" fill="#FFBFA2"/><rect x="21.02" y="1.2" width="8.38" height="12" fill="#ACBF00" transform="matrix(0.7071 -0.7071 0.7071 0.7071 2.2873 19.9343)"/><path d="M22.59 11.48C23.03 11.15 23.37 10.78 23.88 10.59 24.16 10.48 24.99 10.38 24.98 9.94 24.98 9.79 24.83 9.67 24.69 9.63 24.41 9.55 24.11 9.64 23.83 9.71 23.5 9.79 23.16 9.84 22.82 9.86 22.66 9.87 22.51 9.88 22.36 9.83 22.21 9.78 22.06 9.74 21.9 9.75 21.66 9.76 21.45 9.79 21.24 9.92 20.86 10.16 20.47 10.76 20.79 11.19 20.9 11.35 21.14 11.48 21.31 11.56 21.59 11.69 21.92 11.73 22.22 11.65 22.35 11.62 22.46 11.54 22.59 11.48Z" fill="#FFD8C5"/><g><path d="M35.3 11.37C34.7 11.64 33.99 11.96 33.34 11.96 33.26 11.82 33.14 11.7 32.99 11.62 32.52 11.35 31.92 11.51 31.66 11.99L31.37 12.51C31.1 12.99 31.27 13.6 31.73 13.87 31.9 13.97 32.08 14.01 32.26 14 32.26 14.08 32.3 14.15 32.37 14.2 32.47 14.26 32.61 14.22 32.67 14.12L32.75 13.98C32.78 13.93 32.78 13.88 32.78 13.83 32.89 13.75 32.99 13.64 33.07 13.51L33.36 12.99C33.46 12.81 33.5 12.62 33.49 12.43 34.02 12.41 34.52 12.31 35.01 12.12L34.79 12.92C34.74 13.1 34.65 13.26 34.54 13.4L34.97 13.8C35.03 13.7 35.15 13.45 35.19 13.34L35.62 12.23 36.05 11.83C36.05 11.81 35.32 11.41 35.3 11.37ZM33.05 12.79 32.76 13.31C32.59 13.61 32.22 13.71 31.93 13.54 31.64 13.37 31.54 12.99 31.7 12.69L31.99 12.17C32.16 11.87 32.53 11.77 32.82 11.94 33.11 12.11 33.21 12.5 33.05 12.79Z" fill="#51ADE2"/><path d="M33.53 15.81C33.43 15.99 33.15 16.09 32.98 16.2 32.74 16.35 32.48 16.42 32.2 16.48 31.59 16.62 30.63 17.11 30.23 17.55 29.78 18.05 27.83 18.78 27.74 18.51 27.69 18.36 27.68 18.2 27.69 18.05 27.75 17.42 26.94 17.91 27.11 17.3 27.2 16.98 28.12 16.32 28.54 15.88 28.65 15.77 29.25 14.46 29.37 14.19 29.52 13.87 29.84 13.43 30.01 13.24 30.36 12.82 30.67 12.83 31.14 12.55 31.48 12.35 32.03 12.18 32.43 12.24 32.55 12.26 32.64 12.32 32.75 12.37 33.05 12.52 33.37 12.61 33.66 12.76 34.2 13.05 34.26 13.71 34.11 14.24 33.97 14.77 33.73 15.32 33.53 15.81Z" fill="#F8B495"/></g><path d="M45.98 12.12 42.09 16.01 49.86 16.01Z" fill="#FE443E"/><path d="M44.78 19.27 38.88 22.67 32.98 19.27 38.88 15.86Z" fill="#51ADE2"/><path d="M37.2 20.2 31.03 21.16 35.55 23.76Z" fill="#6C8B06"/><path d="M27.09 38.34C27.04 38.12 26.93 37.93 26.87 37.71 26.84 37.59 26.82 37.46 26.81 37.34 26.6 35.68 25.29 35.19 23.55 36.89 23.05 37.38 22.61 37.93 22.05 38.36 21.7 38.63 21.32 38.87 20.92 39.06 20.55 39.23 20.19 39.32 19.91 39.64 19.66 39.94 19.53 40.34 19.6 40.73 19.69 41.2 20.07 41.57 20.51 41.74 21.34 42.04 22.13 41.69 22.9 41.43 23.48 41.23 24.08 41.06 24.63 40.79 25.57 40.35 27.25 39.07 27.09 38.34Z" fill="#B4BCE2"/><path d="M22.99 39C22.95 38.82 21.85 31.83 21.8 30.62 21.76 29.78 20.88 26.35 20.52 25.43 19.98 24.04 18.93 23.51 17.51 23.28 15.41 22.94 13.95 26.39 16.12 33.07 16.19 33.27 17.85 38.77 18.51 39.8 19.73 41.71 23.5 41.4 22.99 39Z" fill="#FF6C03"/><path d="M30.2 42.63C30.17 42.45 28.14 30.39 25.83 28.04 24.78 26.98 21.31 30.88 23.44 37.57 23.5 37.77 25.26 43.21 25.79 44.31 26.48 45.76 30.54 44.39 30.2 42.63Z" fill="#FF8C00"/><g><g><g><defs><path d="M13.46 37.27 13.4 55.86C13.4 55.94 13.35 56.02 13.25 56.08L13.3 37.5C13.4 37.43 13.46 37.35 13.46 37.27Z" id="SVGID_31_"/></defs><clipPath id="SVGID_32_"><use width="100%" height="100%" xlink:href="#SVGID_31_" overflow="visible"></use></clipPath><use width="100%" height="100%" xlink:href="#SVGID_31_" fill="#DADFF6" overflow="visible"></use><g clip-path="url(#SVGID_32_)"><path d="M13.46 37.27 13.4 55.86C13.4 55.94 13.35 56.02 13.25 56.08L13.3 37.5C13.4 37.43 13.46 37.35 13.46 37.27L13.46 37.27Z" fill="#DADFF6"/></g></g><g><defs><path d="M10.37 55.86 10.42 37.28C10.42 37.36 10.47 37.44 10.58 37.5L10.53 56.08C10.42 56.02 10.37 55.94 10.37 55.86Z" id="SVGID_33_"/></defs><clipPath id="SVGID_34_"><use width="100%" height="100%" xlink:href="#SVGID_33_" overflow="visible"></use></clipPath><use width="100%" height="100%" xlink:href="#SVGID_33_" fill="#DADFF6" overflow="visible"></use><g clip-path="url(#SVGID_34_)"><path d="M10.58 37.49 10.53 56.07C10.43 56.01 10.37 55.93 10.37 55.85L10.42 37.27C10.42 37.35 10.48 37.43 10.58 37.49L10.58 37.49Z" fill="#DADFF6"/></g></g><g><path d="M13.3 37.49 13.25 56.08 12.27 56.65 12.32 38.06Z" fill="#DADFF6"/></g><g><path d="M11.57 38.06 11.52 56.65 10.53 56.08 10.58 37.49Z" fill="#DADFF6"/></g><g><defs><path d="M12.32 38.06 12.27 56.64C12.06 56.76 11.73 56.76 11.52 56.64L11.57 38.06C11.78 38.18 12.11 38.18 12.32 38.06Z" id="SVGID_35_"/></defs><clipPath id="SVGID_36_"><use width="100%" height="100%" xlink:href="#SVGID_35_" overflow="visible"></use></clipPath><use width="100%" height="100%" xlink:href="#SVGID_35_" fill="#DADFF6" overflow="visible"></use><g clip-path="url(#SVGID_36_)"><path d="M12.32 38.06 12.27 56.64C12.06 56.76 11.73 56.76 11.52 56.64L11.57 38.06C11.78 38.18 12.11 38.18 12.32 38.06L12.32 38.06Z" fill="#DADFF6"/></g></g><g><path d="M13.3 37.06C13.51 37.18 13.51 37.38 13.3 37.49L12.32 38.06C12.11 38.18 11.78 38.18 11.57 38.06L10.58 37.49C10.37 37.37 10.37 37.17 10.58 37.06L11.56 36.49C11.77 36.37 12.1 36.37 12.31 36.49L13.3 37.06Z" fill="#DADFF6"/></g></g></g><g><g><g><defs><path d="M3.11 37.86 3.08 49.94C3.08 50.02 3.03 50.1 2.93 50.16L2.96 38.08C3.06 38.02 3.11 37.94 3.11 37.86Z" id="SVGID_37_"/></defs><clipPath id="SVGID_38_"><use width="100%" height="100%" xlink:href="#SVGID_37_" overflow="visible"></use></clipPath><use width="100%" height="100%" xlink:href="#SVGID_37_" fill="#DADFF6" overflow="visible"></use><g clip-path="url(#SVGID_38_)"><path d="M3.11 37.86 3.08 49.94C3.08 50.02 3.03 50.1 2.93 50.16L2.96 38.08C3.06 38.02 3.11 37.94 3.11 37.86L3.11 37.86Z" fill="#DADFF6"/></g></g><g><defs><path d="M0.04 49.94 0.07 37.86C0.07 37.94 0.12 38.02 0.23 38.08L0.2 50.16C0.1 50.1 0.04 50.02 0.04 49.94Z" id="SVGID_39_"/></defs><clipPath id="SVGID_40_"><use width="100%" height="100%" xlink:href="#SVGID_39_" overflow="visible"></use></clipPath><use width="100%" height="100%" xlink:href="#SVGID_39_" fill="#DADFF6" overflow="visible"></use><g clip-path="url(#SVGID_40_)"><path d="M0.23 38.08 0.2 50.16C0.1 50.1 0.04 50.02 0.04 49.94L0.07 37.86C0.08 37.94 0.13 38.02 0.23 38.08L0.23 38.08Z" fill="#DADFF6"/></g></g><g><path d="M2.96 38.08 2.92 50.16 1.94 50.73 1.97 38.65Z" fill="#DADFF6"/></g><g><path d="M1.22 38.65 1.19 50.73 0.2 50.16 0.23 38.08Z" fill="#DADFF6"/></g><g><defs><path d="M1.97 38.65 1.94 50.73C1.73 50.85 1.4 50.85 1.19 50.73L1.22 38.65C1.43 38.77 1.77 38.77 1.97 38.65Z" id="SVGID_41_"/></defs><clipPath id="SVGID_42_"><use width="100%" height="100%" xlink:href="#SVGID_41_" overflow="visible"></use></clipPath><use width="100%" height="100%" xlink:href="#SVGID_41_" fill="#DADFF6" overflow="visible"></use><g clip-path="url(#SVGID_42_)"><path d="M1.97 38.65 1.94 50.73C1.73 50.85 1.4 50.85 1.19 50.73L1.22 38.65C1.43 38.77 1.77 38.77 1.97 38.65L1.97 38.65Z" fill="#DADFF6"/></g></g><g><path d="M2.95 37.65C3.16 37.77 3.16 37.97 2.95 38.08L1.97 38.65C1.76 38.77 1.43 38.77 1.22 38.65L0.23 38.08C0.02 37.96 0.02 37.76 0.23 37.65L1.21 37.08C1.42 36.96 1.75 36.96 1.96 37.08L2.95 37.65Z" fill="#DADFF6"/></g></g></g><g><g><g><defs><path d="M25.12 37.04 25.09 49.12C25.09 49.2 25.04 49.28 24.94 49.34L24.97 37.26C25.07 37.2 25.12 37.12 25.12 37.04Z" id="SVGID_43_"/></defs><clipPath id="SVGID_44_"><use width="100%" height="100%" xlink:href="#SVGID_43_" overflow="visible"></use></clipPath><use width="100%" height="100%" xlink:href="#SVGID_43_" fill="#DADFF6" overflow="visible"></use><g clip-path="url(#SVGID_44_)"><path d="M25.12 37.04 25.09 49.12C25.09 49.2 25.04 49.28 24.94 49.34L24.97 37.26C25.07 37.2 25.12 37.12 25.12 37.04L25.12 37.04Z" fill="#DADFF6"/></g></g><g><defs><path d="M22.05 49.12 22.08 37.04C22.08 37.12 22.13 37.2 22.24 37.26L22.21 49.34C22.1 49.28 22.05 49.2 22.05 49.12Z" id="SVGID_45_"/></defs><clipPath id="SVGID_46_"><use width="100%" height="100%" xlink:href="#SVGID_45_" overflow="visible"></use></clipPath><use width="100%" height="100%" xlink:href="#SVGID_45_" fill="#DADFF6" overflow="visible"></use><g clip-path="url(#SVGID_46_)"><path d="M22.24 37.26 22.21 49.34C22.11 49.28 22.05 49.2 22.05 49.12L22.08 37.04C22.09 37.12 22.14 37.2 22.24 37.26L22.24 37.26Z" fill="#DADFF6"/></g></g><g><path d="M24.96 37.26 24.93 49.34 23.95 49.91 23.98 37.83Z" fill="#DADFF6"/></g><g><path d="M23.23 37.83 23.2 49.91 22.21 49.34 22.24 37.26Z" fill="#DADFF6"/></g><g><defs><path d="M23.98 37.83 23.95 49.91C23.74 50.03 23.41 50.03 23.2 49.91L23.23 37.83C23.44 37.95 23.78 37.95 23.98 37.83Z" id="SVGID_47_"/></defs><clipPath id="SVGID_48_"><use width="100%" height="100%" xlink:href="#SVGID_47_" overflow="visible"></use></clipPath><use width="100%" height="100%" xlink:href="#SVGID_47_" fill="#DADFF6" overflow="visible"></use><g clip-path="url(#SVGID_48_)"><path d="M23.98 37.83 23.95 49.91C23.74 50.03 23.41 50.03 23.2 49.91L23.23 37.83C23.44 37.95 23.78 37.95 23.98 37.83L23.98 37.83Z" fill="#DADFF6"/></g></g><g><path d="M24.96 36.82C25.17 36.94 25.17 37.14 24.96 37.25L23.98 37.82C23.77 37.94 23.44 37.94 23.23 37.82L22.24 37.25C22.03 37.13 22.03 36.94 22.24 36.82L23.22 36.25C23.43 36.13 23.76 36.13 23.97 36.25L24.96 36.82Z" fill="#DADFF6"/></g></g></g><g><g><g><defs><path d="M25.04 36.72 25.03 38.58C25.03 38.66 24.97 38.75 24.86 38.81L24.87 36.95C24.99 36.88 25.04 36.8 25.04 36.72Z" id="SVGID_49_"/></defs><clipPath id="SVGID_50_"><use width="100%" height="100%" xlink:href="#SVGID_49_" overflow="visible"></use></clipPath><use width="100%" height="100%" xlink:href="#SVGID_49_" fill="#F4F5FA" overflow="visible"></use><g clip-path="url(#SVGID_50_)"><path d="M25.04 36.72 25.03 38.58C25.03 38.66 24.97 38.75 24.86 38.81L24.87 36.95C24.99 36.88 25.04 36.8 25.04 36.72L25.04 36.72Z" fill="#F4F5FA"/></g></g><g><defs><path d="M0.05 39.46 0.06 37.6C0.06 37.69 0.12 37.77 0.23 37.84L0.22 39.7C0.11 39.63 0.05 39.54 0.05 39.46Z" id="SVGID_51_"/></defs><clipPath id="SVGID_52_"><use width="100%" height="100%" xlink:href="#SVGID_51_" overflow="visible"></use></clipPath><use width="100%" height="100%" xlink:href="#SVGID_51_" fill="#DADFF6" overflow="visible"></use><g clip-path="url(#SVGID_52_)"><path d="M0.22 37.83 0.21 39.69C0.1 39.63 0.04 39.54 0.04 39.45L0.05 37.59C0.05 37.68 0.11 37.77 0.22 37.83L0.22 37.83Z" fill="#DADFF6"/></g></g><g><path d="M24.88 36.95 24.87 38.81 12.22 46.16 12.23 44.3Z" fill="#F4F5FA"/></g><g><path d="M11.42 44.3 11.42 46.16 0.22 39.69 0.22 37.83Z" fill="#DADFF6"/></g><g><defs><path d="M12.23 44.3 12.22 46.16C12 46.29 11.64 46.29 11.41 46.16L11.42 44.3C11.65 44.43 12.01 44.43 12.23 44.3Z" id="SVGID_53_"/></defs><clipPath id="SVGID_54_"><use width="100%" height="100%" xlink:href="#SVGID_53_" overflow="visible"></use></clipPath><use width="100%" height="100%" xlink:href="#SVGID_53_" fill="#F4F5FA" overflow="visible"></use><g clip-path="url(#SVGID_54_)"><path d="M12.23 44.3 12.22 46.16C12.18 46.19 12.13 46.21 12.08 46.22L12.09 44.36C12.14 44.34 12.19 44.32 12.23 44.3L12.23 44.3Z" fill="#F4F5FA"/><path d="M12.08 44.36 12.07 46.22C11.93 46.26 11.76 46.27 11.61 46.23L11.62 44.37C11.77 44.41 11.94 44.4 12.08 44.36L12.08 44.36Z" fill="#F4F5FA"/><path d="M11.62 44.37 11.61 46.23C11.54 46.21 11.47 46.19 11.41 46.15L11.42 44.29C11.48 44.33 11.55 44.36 11.62 44.37L11.62 44.37Z" fill="#F4F5FA"/></g></g><g><path d="M24.88 36.48C25.1 36.61 25.1 36.82 24.88 36.95L12.23 44.3C12.01 44.43 11.65 44.43 11.42 44.3L0.22 37.83C0 37.7 0 37.49 0.22 37.37L12.87 30.02C13.09 29.89 13.45 29.89 13.68 30.02L24.88 36.48Z" fill="#FBF5EC"/></g></g></g><g><g><g><defs><path d="M25.18 35.62 25.18 36.55C25.18 36.78 25.03 37.01 24.72 37.19L24.72 36.26C25.03 36.09 25.18 35.85 25.18 35.62Z" id="SVGID_55_"/></defs><clipPath id="SVGID_56_"><use width="100%" height="100%" xlink:href="#SVGID_55_" overflow="visible"></use></clipPath><use width="100%" height="100%" xlink:href="#SVGID_55_" fill="#FFB900" overflow="visible"></use><g clip-path="url(#SVGID_56_)"><path d="M25.18 35.62 25.18 36.55C25.18 36.78 25.03 37.01 24.72 37.19L24.72 36.26C25.03 36.09 25.18 35.85 25.18 35.62L25.18 35.62Z" fill="#FFB900"/></g></g><g><path d="M3.51 36.7 3.51 37.63 1.76 36.63 1.77 35.7Z" fill="#FFB900"/></g><g><path d="M13.77 42.63 13.77 43.56 12.03 42.56 12.03 41.63Z" fill="#FFB900"/></g><g><path d="M24.73 36.26 24.72 37.19 13.77 43.56 13.77 42.63Z" fill="#FFB900"/></g><g><path d="M12.03 41.63 12.03 42.56 10.3 43.56 10.3 42.63Z" fill="#FFB900"/></g><g><path d="M24.72 34.97C25.33 35.32 25.34 35.9 24.73 36.26L13.78 42.63 12.04 41.62 10.31 42.63 1.79 37.71 3.52 36.7 1.77 35.7 12.72 29.33C13.33 28.98 14.33 28.98 14.94 29.33L24.72 34.97Z" fill="#FFE600"/></g></g></g><g><g><path d="M20.02 10.75C20.15 11.08 20.29 11.74 20.03 12.06 19.82 12.32 19.21 12.43 18.91 12.55 17.98 12.93 17.04 13.28 16.1 13.62 15.67 13.78 15.25 13.94 14.82 14.08 13.56 14.5 12.27 14.8 10.96 14.96 10.45 15.02 9.62 15.15 9.14 14.94 8.67 14.74 8.48 14.23 8.39 13.7 8.23 12.75 8.41 11.72 9.18 11.11 9.95 10.5 10.85 10.39 11.75 10.24 13.82 9.9 15.91 9.69 18 9.61 18.37 9.6 18.75 9.59 19.1 9.71 19.49 9.88 19.84 10.28 20.02 10.75Z" fill="#EBEEFC"/><path d="M19.63 24.36C21.36 26.7 18.36 29.63 16.88 31.24 14.54 33.79 11.8 36.27 9.24 36.73 6.99 37.14 5.34 36.45 4.72 35.84 3.42 34.56 3.15 32.06 4.23 30.55 5.49 28.78 7.89 27.31 9.67 26.07 15.19 22.24 18.67 23.05 19.63 24.36Z" fill="#FF6C03"/><path d="M24.26 27.41C25.39 27.43 26.25 28.14 26.44 29.26 26.65 30.52 26.17 31.67 25.2 32.45 22.53 34.61 19.79 36.69 16.78 38.33 15.74 38.89 14.67 39.4 13.52 39.67 12.37 39.94 11.14 39.96 10.04 39.55 9.59 39.38 9.17 39.15 8.78 38.86 8.48 38.64 8.2 38.39 7.98 38.09 7.46 37.39 7.29 36.46 7.44 35.59 7.79 33.64 9.45 32.68 11.13 31.94 11.81 31.64 12.5 31.39 13.21 31.17 13.54 31.07 14 31 14.29 30.8 17.94 28.34 22.25 27.37 24.26 27.41Z" fill="#FF8C00"/><g><g><path d="M4.22 16.18C4.83 9.29 10.69 12.89 12.71 13.61 14.16 14.13 15.54 14.81 16.84 15.64 20.34 17.88 17.41 19.4 17.73 28.76 17.76 29.74 18.78 32.44 16.62 34.07 12.53 37.14 4.52 34.42 3.58 31.77 3.28 30.99 4.13 17.21 4.22 16.18Z" fill="#CED4F1"/></g></g><path d="M16.84 16.58C12.9 16.23 13.57 21.25 14.59 22.23 15.22 22.83 15.57 22.46 18.74 22.48 22.4 22.5 24.83 22.53 25.89 21.08 26.29 20.53 26.45 19.78 26.29 19.13 25.92 17.56 24.79 17.84 24.6 17.82 18.83 16.99 16.72 16.57 16.84 16.58Z" fill="#EBEEFC"/><path d="M31.2 17.02C30.94 17.7 25.44 22.28 23.62 22.13 22.91 22.07 16.18 19.96 28.5 15.37 30.47 14.63 31.46 16.34 31.2 17.02Z" fill="#EBEEFC"/><path d="M13.94 12.44C14.03 11.82 14.5 11.97 14.26 11.41 13.33 9.19 11.61 9.82 11.44 9.82 7.74 9.83 9.65 10.13 8.85 12.59 8.74 12.93 7.78 14.66 9.72 15.6 10.95 16.19 13.46 15.96 13.9 15.24 14.26 14.67 13.75 13.73 13.94 12.44Z" fill="#FFBFA2"/><path d="M16.58 4.2C16.91 4.61 17.17 5.06 17.25 5.6 17.43 6.79 16.95 8.02 17.21 9.21 17.46 10.36 16.97 12.97 14.7 13.63 13.55 13.97 11.29 13.57 10.57 13.22 9.59 12.75 8.95 11.81 8.37 10.89 3.65 3.39 13.38 0.3 16.58 4.2Z" fill="#FFBFA2"/><path d="M7.74 2.07C7.83 1.88 7.83 1.63 7.95 1.44 8.1 1.2 8.37 1.02 8.65 1.04 8.76 1.06 8.88 1.1 9 1.1 9.37 1.1 9.55 0.67 9.82 0.41 10.12 0.13 10.59 0.07 10.95 0.25 11.05 0.3 11.15 0.38 11.26 0.4 11.57 0.47 11.87 0.18 12.19 0.19 12.54 0.2 12.82 0.57 13.16 0.54 13.3 0.53 13.42 0.45 13.54 0.41 13.84 0.31 14.2 0.39 14.42 0.61 14.53 0.72 14.62 0.86 14.76 0.93 14.93 1.01 15.13 0.96 15.31 0.98 15.61 1.01 15.88 1.23 15.97 1.51 16.05 1.77 16.06 2.13 16.32 2.18 16.41 2.2 16.5 2.17 16.59 2.16 16.89 2.13 17.17 2.37 17.3 2.64 17.43 2.92 17.43 3.23 17.43 3.54 17.62 3.5 17.81 3.65 17.88 3.83 17.95 4.01 17.93 4.21 17.92 4.4 17.87 4.92 17.8 5.49 17.43 5.86 17.16 6.13 17.1 6.37 17.11 6.76 17.12 7.04 17.1 7.36 16.87 7.53 16.8 7.59 16.71 7.62 16.64 7.68 16.53 7.78 16.49 7.93 16.49 8.07 16.49 8.21 16.51 8.36 16.51 8.5 16.51 8.69 16.45 8.89 16.32 9.02 15.97 9.38 15.71 9.01 15.49 8.76 15.38 8.64 15.29 8.61 15.16 8.75 15.01 8.91 15.06 9.15 15.06 9.35 15.07 9.52 15.03 9.71 14.89 9.8 14.83 9.83 14.77 9.85 14.71 9.89 14.58 9.98 14.56 10.16 14.61 10.31 14.65 10.46 14.74 10.59 14.77 10.74 14.81 10.89 14.78 11.08 14.65 11.16 14.51 11.24 14.3 11.18 14.19 11.3 14.06 11.45 14.2 11.71 14.09 11.87 13.95 12.06 13.61 11.9 13.41 12.03 13.22 12.15 13.23 12.49 13.01 12.55 12.81 12.61 12.57 12.38 12.41 12.52 12.33 12.59 12.34 12.71 12.27 12.8 12.19 12.9 12.04 12.9 11.93 12.86 11.81 12.82 11.71 12.75 11.59 12.72 11.47 12.69 11.32 12.73 11.28 12.85 10.9 12.86 10.66 13.19 10.25 12.98 10.02 12.84 9.9 12.51 9.64 12.48 9.44 12.46 9.29 12.63 9.1 12.69 8.79 12.8 8.44 12.62 8.25 12.36 8.06 12.09 7.99 11.76 7.93 11.44 7.62 11.54 7.28 11.36 7.1 11.1 6.92 10.83 6.88 10.5 6.88 10.17 6.88 10.03 6.88 9.88 6.8 9.77 6.73 9.68 6.62 9.63 6.53 9.56 6.07 9.23 6.1 8.55 6.17 7.99 6.18 7.87 6.2 7.75 6.16 7.63 6.12 7.51 6.02 7.43 5.93 7.34 5.61 6.98 5.53 6.42 5.73 5.98 5.79 5.86 5.87 5.74 5.87 5.6 5.87 5.47 5.81 5.35 5.77 5.23 5.54 4.63 5.83 3.88 6.41 3.58 6.34 3.62 6.38 3.02 6.41 2.95 6.52 2.73 6.76 2.6 6.97 2.49 7.15 2.39 7.49 2.36 7.63 2.22 7.68 2.18 7.71 2.13 7.74 2.07Z" fill="#29110F"/><path d="M14.6 8.03C13.69 7.95 13.44 9.08 14.05 9.96 14.23 10.22 14.55 10.45 14.78 10.65 16.38 12.06 16.82 10.57 16.31 10.09 15.13 8.98 15.74 8.13 14.6 8.03Z" fill="#FFBFA2"/><path d="M14.84 9.75C14.74 9.65 13.71 9.02 14.42 8.62 14.62 8.51 14.83 8.68 14.86 8.89 14.87 9 14.84 9.11 14.85 9.21 14.86 9.27 14.88 9.33 14.92 9.39 15.01 9.54 15.32 9.69 15.26 9.91 15.2 10.1 14.9 9.8 14.84 9.75Z" fill="#F3A984"/></g></g><g><g><g><defs><path d="M0.39 21.8 1.19 21.33C1.42 21.2 1.74 21.21 2.1 21.42 2.44 21.62 2.77 21.65 3.01 21.51L2.21 21.98C1.97 22.12 1.65 22.09 1.3 21.89 0.94 21.69 0.62 21.67 0.39 21.8Z" id="SVGID_57_"/></defs><clipPath id="SVGID_58_"><use width="100%" height="100%" xlink:href="#SVGID_57_" overflow="visible"></use></clipPath><use width="100%" height="100%" xlink:href="#SVGID_57_" fill="#FFE600" overflow="visible"></use><g clip-path="url(#SVGID_58_)"><path d="M0.39 21.8 1.19 21.33C1.42 21.2 1.74 21.21 2.1 21.42 2.44 21.62 2.77 21.65 3.01 21.51L2.21 21.98C1.97 22.12 1.65 22.09 1.3 21.89 0.94 21.69 0.62 21.67 0.39 21.8L0.39 21.8Z" fill="#FFE600"/></g></g><g><defs><path d="M14.85 36.46 14.05 36.93C14.28 36.8 14.42 36.51 14.42 36.11L15.22 35.64C15.22 36.04 15.07 36.32 14.85 36.46Z" id="SVGID_59_"/></defs><clipPath id="SVGID_60_"><use width="100%" height="100%" xlink:href="#SVGID_59_" overflow="visible"></use></clipPath><use width="100%" height="100%" xlink:href="#SVGID_59_" fill="#FFE600" overflow="visible"></use><g clip-path="url(#SVGID_60_)"><path d="M14.41 36.11 15.21 35.64C15.21 36.04 15.07 36.32 14.84 36.46L14.04 36.93C14.27 36.79 14.41 36.51 14.41 36.11L14.41 36.11Z" fill="#FFE600"/></g></g><g><defs><path d="M3.24 21.03 4.04 20.56C5.06 19.97 6.47 20.05 8.04 20.95L7.24 21.42C5.68 20.52 4.26 20.44 3.24 21.03Z" id="SVGID_61_"/></defs><clipPath id="SVGID_62_"><use width="100%" height="100%" xlink:href="#SVGID_61_" overflow="visible"></use></clipPath><use width="100%" height="100%" xlink:href="#SVGID_61_" fill="#FFE600" overflow="visible"></use><g clip-path="url(#SVGID_62_)"><path d="M3.24 21.03 4.04 20.56C5.06 19.97 6.47 20.05 8.04 20.95L7.24 21.42C5.68 20.52 4.26 20.44 3.24 21.03L3.24 21.03Z" fill="#FFE600"/></g></g><g><path d="M14.43 30.94 15.23 30.47 15.22 35.64 14.41 36.11Z" fill="#FFE600"/></g><g><defs><path d="M7.24 21.42 8.04 20.95C10.1 22.14 11.9 24.45 12.87 26.92 13.1 27.5 13.51 28.01 13.96 28.27 14.66 28.68 15.23 29.66 15.23 30.47L14.43 30.94C14.43 30.13 13.86 29.15 13.16 28.74 12.71 28.48 12.29 27.97 12.07 27.39 11.09 24.93 9.3 22.61 7.24 21.42Z" id="SVGID_63_"/></defs><clipPath id="SVGID_64_"><use width="100%" height="100%" xlink:href="#SVGID_63_" overflow="visible"></use></clipPath><use width="100%" height="100%" xlink:href="#SVGID_63_" fill="#FFE600" overflow="visible"></use><g clip-path="url(#SVGID_64_)"><path d="M7.24 21.42 8.04 20.95C10.1 22.14 11.9 24.45 12.87 26.92 13.1 27.5 13.51 28.01 13.96 28.27 14.66 28.68 15.23 29.66 15.23 30.47L14.43 30.94C14.43 30.13 13.86 29.15 13.16 28.74 12.71 28.48 12.29 27.97 12.07 27.39 11.09 24.93 9.3 22.61 7.24 21.42L7.24 21.42Z" fill="#FFE600"/></g></g><g><path d="M7.24 21.42C9.3 22.61 11.1 24.92 12.07 27.39 12.3 27.97 12.71 28.48 13.16 28.74 13.86 29.15 14.43 30.13 14.43 30.94L14.42 36.11C14.42 36.92 13.85 37.24 13.14 36.84L1.27 29.98C0.57 29.58 0 28.59 0 27.78L0.01 22.61C0.01 21.8 0.58 21.48 1.29 21.88 1.74 22.14 2.16 22.11 2.39 21.79 3.37 20.47 5.18 20.23 7.24 21.42Z" fill="#FFB900"/></g></g></g><g><g><g><defs><path d="M3.09 24.65 3.05 37.66C3.05 37.74 2.99 37.83 2.88 37.89L2.92 24.88C3.04 24.81 3.09 24.73 3.09 24.65Z" id="SVGID_65_"/></defs><clipPath id="SVGID_66_"><use width="100%" height="100%" xlink:href="#SVGID_65_" overflow="visible"></use></clipPath><use width="100%" height="100%" xlink:href="#SVGID_65_" fill="#F4F5FA" overflow="visible"></use><g clip-path="url(#SVGID_66_)"><path d="M3.09 24.65 3.05 37.66C3.05 37.74 2.99 37.83 2.88 37.89L2.92 24.88C3.04 24.81 3.09 24.73 3.09 24.65L3.09 24.65Z" fill="#F4F5FA"/></g></g><g><defs><path d="M0.05 37.65 0.09 24.64C0.09 24.73 0.15 24.81 0.26 24.88L0.22 37.89C0.11 37.82 0.05 37.74 0.05 37.65Z" id="SVGID_67_"/></defs><clipPath id="SVGID_68_"><use width="100%" height="100%" xlink:href="#SVGID_67_" overflow="visible"></use></clipPath><use width="100%" height="100%" xlink:href="#SVGID_67_" fill="#DADFF6" overflow="visible"></use><g clip-path="url(#SVGID_68_)"><path d="M0.26 24.88 0.22 37.89C0.11 37.83 0.05 37.74 0.05 37.65L0.09 24.64C0.09 24.73 0.15 24.81 0.26 24.88L0.26 24.88Z" fill="#DADFF6"/></g></g><g><path d="M2.93 24.88 2.89 37.89 1.96 38.43 2 25.42Z" fill="#F4F5FA"/></g><g><path d="M1.19 25.42 1.16 38.43 0.22 37.89 0.26 24.88Z" fill="#DADFF6"/></g><g><path d="M2.92 24.41C3.14 24.54 3.14 24.75 2.92 24.88L2 25.42C1.78 25.55 1.42 25.55 1.19 25.42L0.26 24.88C0.04 24.75 0.04 24.54 0.26 24.41L1.19 23.87C1.41 23.74 1.77 23.74 2 23.87L2.92 24.41Z" fill="#FFFFFF"/></g></g><g><defs><path d="M2 25.42 1.96 38.84 1.15 38.37 1.19 25.42C1.42 25.55 1.78 25.55 2 25.42Z" id="SVGID_69_"/></defs><clipPath id="SVGID_70_"><use width="100%" height="100%" xlink:href="#SVGID_69_" overflow="visible"></use></clipPath><use width="100%" height="100%" xlink:href="#SVGID_69_" fill="#F4F5FA" overflow="visible"></use></g></g><path d="M12.03 41.63 10.3 42.63 1.78 37.71 3.51 36.7Z" fill="#FFE600"/><g><g><g><defs><path d="M13.65 30.75 13.61 43.76C13.61 43.84 13.55 43.93 13.44 43.99L13.48 30.98C13.59 30.92 13.65 30.84 13.65 30.75Z" id="SVGID_71_"/></defs><clipPath id="SVGID_72_"><use width="100%" height="100%" xlink:href="#SVGID_71_" overflow="visible"></use></clipPath><use width="100%" height="100%" xlink:href="#SVGID_71_" fill="#F4F5FA" overflow="visible"></use><g clip-path="url(#SVGID_72_)"><path d="M13.65 30.75 13.61 43.76C13.61 43.84 13.55 43.93 13.44 43.99L13.48 30.98C13.59 30.92 13.65 30.84 13.65 30.75L13.65 30.75Z" fill="#F4F5FA"/></g></g><g><defs><path d="M10.61 43.76 10.65 30.75C10.65 30.84 10.71 30.92 10.82 30.99L10.78 44C10.67 43.93 10.61 43.85 10.61 43.76Z" id="SVGID_73_"/></defs><clipPath id="SVGID_74_"><use width="100%" height="100%" xlink:href="#SVGID_73_" overflow="visible"></use></clipPath><use width="100%" height="100%" xlink:href="#SVGID_73_" fill="#F4F5FA" overflow="visible"></use><g clip-path="url(#SVGID_74_)"><path d="M10.82 30.99 10.78 44C10.67 43.94 10.61 44.12 10.61 44.03L10.65 30.75C10.65 30.84 10.7 30.92 10.82 30.99L10.82 30.99Z" fill="#DADFF6"/></g></g><g><path d="M13.48 30.99 13.45 44 12.52 44.53 12.56 31.53Z" fill="#F4F5FA"/></g><g><path d="M11.75 31.53 11.71 44.53 10.78 44 10.82 30.99Z" fill="#DADFF6"/></g><g><defs><path d="M12.56 31.53 12.52 44.54C12.3 44.67 11.94 44.67 11.71 44.54L11.75 31.53C11.97 31.65 12.33 31.65 12.56 31.53Z" id="SVGID_75_"/></defs><clipPath id="SVGID_76_"><use width="100%" height="100%" xlink:href="#SVGID_75_" overflow="visible"></use></clipPath><use width="100%" height="100%" xlink:href="#SVGID_75_" fill="#F4F5FA" overflow="visible"></use><g clip-path="url(#SVGID_76_)"><path d="M12.56 31.53 12.52 44.54C12.3 44.67 11.94 44.67 11.71 44.54L11.75 31.53C11.97 31.65 12.33 31.65 12.56 31.53L12.56 31.53Z" fill="#F4F5FA"/></g></g><g><path d="M13.48 30.52C13.7 30.65 13.7 30.86 13.48 30.99L12.55 31.53C12.33 31.66 11.97 31.66 11.74 31.53L10.81 30.99C10.59 30.86 10.59 30.65 10.81 30.52L11.74 29.98C11.96 29.85 12.32 29.85 12.55 29.98L13.48 30.52Z" fill="#FFFFFF"/></g></g></g><g><path d="M10.3 42.63 10.3 43.56 1.77 38.64 1.78 37.71Z" fill="#FFB900"/></g></g></g></svg>