<svg width="71.7" height="109.91" viewBox="0 0 71.7 109.91" xmlns="http://www.w3.org/2000/svg" xmlns:xlink="http://www.w3.org/1999/xlink" xml:space="preserve" overflow="hidden"><defs></defs><g><path d="M44.56 38.6C44.54 38.65 44.51 38.68 44.49 38.73 44.49 38.87 44.44 39.03 44.28 39.21 44.13 39.39 42.22 40.64 40.91 40.23 40.82 40.2 40.74 40.17 40.66 40.12 35.31 40.92 33.05 43.79 26.58 41.99 26.26 41.9 25.93 41.9 25.58 41.85 24.26 41.67 22.79 40.58 21.69 39.59 21.64 39.55 21.6 39.51 21.56 39.47 21.32 39.23 21.1 38.96 20.95 38.63 20.9 38.53 20.71 37.65 20.7 37.64 21.64 37.78 22.6 37.94 23.55 38.07 23.63 38.1 23.72 38.11 23.81 38.12 24.25 38.18 24.69 38.25 25.12 38.31 30.05 39 35.09 39.31 39.8 37.1 40.42 36.8 41.02 36.39 41.68 36.29 41.82 36.27 41.96 36.27 42.1 36.27 42.14 36.27 42.18 36.27 42.22 36.29 42.41 36.24 42.61 36.2 42.79 36.22 42.92 36.18 43.06 36.16 43.21 36.16 43.6 36.16 43.71 36.6 43.56 36.89 43.76 36.94 43.94 37.03 44.08 37.19 44.28 37.43 44.32 37.71 44.24 37.97 44.48 38.08 44.64 38.26 44.56 38.6Z" fill="#FFDCC0"/><path d="M40.91 40.23C40.82 40.2 40.74 40.17 40.66 40.12 35.31 40.92 33.05 43.79 26.58 41.99 26.26 41.9 25.93 41.9 25.58 41.85 24.26 41.67 22.79 40.58 21.69 39.59 21.64 39.55 21.6 39.51 21.56 39.47 21.63 39.4 21.73 39.35 21.89 39.34 22.85 39.27 24.47 40.21 25.42 40.48 27.74 41.14 30.15 41.59 32.56 41.4 35.34 41.19 38.01 40.14 40.8 40.07 40.84 40.13 40.88 40.18 40.91 40.23Z" fill="#F4C7A8"/><path d="M11.27 32.55C11.21 32.92 11.3 33.31 11.58 33.56 12.2 34.12 12.89 34.57 13.62 34.91 14.84 35.49 16.18 35.77 17.57 35.76 18.55 35.75 19.53 35.61 20.48 35.37 21.56 35.09 22.61 34.68 23.6 34.16 24.44 33.72 24.41 32.56 23.67 32.05 23.6 32 23.52 31.95 23.45 31.9 23.46 31.91 23.46 31.91 23.47 31.91 23.45 31.9 23.43 31.87 23.4 31.84 23.31 31.75 23.21 31.66 23.13 31.57 22.89 31.31 22.84 31.22 22.7 31 22.38 30.48 22.13 29.92 21.89 29.36 21.63 28.75 20.77 28.58 20.24 28.87 19.97 29.02 19.79 29.24 19.7 29.49 19.61 29.57 19.53 29.65 19.43 29.73 19.38 29.77 19.33 29.81 19.29 29.84 19.27 29.85 19.24 29.87 19.21 29.89 18.91 30.08 18.61 30.24 18.29 30.39 18.23 30.42 17.97 30.53 17.97 30.53 17.93 30.54 17.9 30.56 17.86 30.57 17.74 30.61 17.62 30.65 17.5 30.69 17.13 30.8 16.76 30.89 16.39 30.96 16.2 31 16.01 31.02 15.82 31.05 15.8 31.05 15.79 31.05 15.78 31.06 15.77 31.06 15.76 31.06 15.75 31.06 15.66 31.07 15.56 31.08 15.47 31.08 15.29 31.09 15.11 31.09 14.92 31.09 14.74 31.04 14.56 30.98 14.38 30.92 14.2 30.86 14.02 30.85 13.84 30.88 13.76 30.89 13.68 30.92 13.6 30.95 13.58 30.94 13.55 30.94 13.53 30.93 13.37 30.89 13.21 30.83 13.06 30.77 13.05 30.76 12.99 30.74 12.94 30.72 12.89 30.7 12.83 30.66 12.83 30.66 12.25 30.34 11.52 30.46 11.15 31.05 10.85 31.51 10.91 32.16 11.27 32.55Z" fill="#603913"/><path d="M22.53 36.04C21.61 35.46 20.68 34.85 19.59 34.69 18.92 34.6 18.72 35.44 19.13 35.8 19.02 35.84 18.92 35.89 18.83 35.95 18.21 36.38 18.84 37.26 19.47 37.02 19.4 37.36 19.65 37.76 20 37.82 20.05 38.15 20.32 38.43 20.69 38.35 20.71 38.71 21.05 39.03 21.43 38.95 21.52 39.2 21.8 39.38 22.1 39.36 22.15 39.48 22.24 39.58 22.35 39.65 22.29 39.81 22.24 39.97 22.2 40.15 22.14 40.43 22.33 40.68 22.57 40.79 22.63 41.17 23.06 41.46 23.45 41.28 24.78 40.67 25.36 39.1 25.88 37.84 25.89 37.81 25.9 37.78 25.9 37.74 25.45 37.5 23.15 36.44 22.53 36.04Z" fill="#4E1F77"/><path d="M65.85 46.68C65.81 46.92 65.76 47.19 65.59 47.35 65.37 47.55 65.06 47.54 64.78 47.51 59.61 47.12 54.42 47.05 49.25 47.28 46.64 47.41 44.03 47.83 41.43 47.9 40.26 47.93 40.23 47.96 39.92 46.9 39.65 45.97 39.78 44.69 40.23 43.83 40.25 43.79 40.26 43.77 40.28 43.74 40.85 42.7 42.01 42.01 43.15 42.16 43.69 42.23 44.26 42.6 44.47 43.09 44.4 42.05 44.6 40.96 45.29 40.24 46.14 39.38 47.84 39.47 48.27 40.63 48.54 41.38 48.22 42.28 48.5 43.03 49.01 41.85 49.53 40.64 50.4 39.72 51.27 38.79 52.56 38.19 53.76 38.53 54.95 38.87 55.83 40.37 55.29 41.54 56.05 40.01 57.94 39.64 59.58 39.45 60.31 39.36 61.14 39.3 61.73 39.78 62.31 40.26 62.25 41.49 61.51 41.6 62.35 41.5 63.26 41.43 63.97 41.9 64.68 42.37 64.91 43.64 64.19 44.09 64.69 43.66 65.52 44.04 65.81 44.65 65.81 44.66 65.82 44.66 65.82 44.67 66.07 45.26 65.97 46 65.85 46.68Z" fill="#51C8F2"/><path d="M65.79 44.62C65.11 44.49 64.51 44.63 63.86 44.79 63.69 44.57 63.66 44.27 63.62 44 63.34 42.38 60.9 44.3 60.9 44.58 60.46 43.57 59.85 42.43 58.75 42.25 58.39 42.2 56.57 42.61 56.52 43.07 56.57 42.63 56.48 42.14 56.18 41.81 55.62 41.21 54.46 41.67 53.92 42.09 53.35 42.52 53.01 43.25 53.1 43.95 53.04 43.36 52.93 42.69 52.45 42.34 51.86 41.9 51.02 42.14 50.37 42.49 49.75 42.82 49.18 43.22 48.68 43.7 48.37 43.98 48.03 44.69 47.6 44.74 46.86 44.83 46.6 43.57 45.73 43.58 45.32 43.59 44.96 43.87 44.73 44.21 44.52 44.54 44.42 44.94 44.31 45.32 43.83 44.44 43.18 43.79 42.16 43.59 41.51 43.46 40.83 43.54 40.21 43.79 40.23 43.75 40.24 43.73 40.26 43.7 40.83 42.66 41.99 41.97 43.13 42.12 43.67 42.19 44.24 42.56 44.45 43.05 44.38 42.01 44.58 40.92 45.27 40.2 46.12 39.34 47.82 39.43 48.25 40.59 48.52 41.34 48.2 42.24 48.48 42.99 48.99 41.81 49.51 40.6 50.38 39.68 51.25 38.75 52.54 38.15 53.74 38.49 54.93 38.83 55.81 40.33 55.27 41.5 56.03 39.97 57.92 39.6 59.56 39.41 60.29 39.32 61.12 39.26 61.71 39.74 62.29 40.22 62.23 41.45 61.49 41.56 62.33 41.46 63.24 41.39 63.95 41.86 64.66 42.33 64.89 43.6 64.17 44.05 64.67 43.63 65.5 44.01 65.79 44.62Z" fill="#94E8FF"/><path d="M71.7 48.89 71.7 105.3 31.69 105.3 31.69 53.76C31.69 51.19 33.69 49.09 36.22 48.92 36.34 48.9 36.45 48.9 36.56 48.9L71.7 48.9Z" fill="#8DC63F"/><rect x="38.8" y="46.93" width="32.89" height="1.96" fill="#808285"/><path d="M36.22 48.91 36.22 105.3 31.69 105.3 31.69 53.76C31.69 51.18 33.69 49.08 36.22 48.91Z" fill="#80AF35"/><path d="M69.05 46.93 66.33 46.93 66.33 30.35C66.33 27.92 64.35 25.94 61.92 25.94L61.58 25.94C59.15 25.94 57.17 27.92 57.17 30.35L54.45 30.35C54.45 26.42 57.65 23.22 61.58 23.22L61.92 23.22C65.85 23.22 69.05 26.42 69.05 30.35L69.05 46.93Z" fill="#A7A9AC"/><rect x="53.93" y="29.9" width="3.81" height="1.47" fill="#808285"/><rect x="54.51" y="31.37" width="2.63" height="15.55" fill="#27AAE1"/><path d="M27.63 89.73 27.63 93.19C27.63 93.86 27.09 94.4 26.42 94.4L8.48 94.4C7.81 94.4 7.27 93.86 7.27 93.19L7.27 89.73C7.27 89.06 7.81 88.52 8.48 88.52L26.42 88.52C27.09 88.52 27.63 89.06 27.63 89.73Z" fill="#A97C50"/><path d="M27.63 92.14 27.63 93.19C27.63 93.86 27.09 94.4 26.42 94.4L8.48 94.4C7.81 94.4 7.27 93.86 7.27 93.19L7.27 92.14 27.63 92.14Z" fill="#8B5E3C"/><path d="M8.44 105.31 7.01 105.31C6.36 105.31 5.87 104.72 5.99 104.09L8.48 94.41 12.02 94.41 9.46 104.47C9.37 104.95 8.94 105.31 8.44 105.31Z" fill="#603913"/><path d="M26.08 105.31 27.51 105.31C28.16 105.31 28.65 104.72 28.53 104.09L26.04 94.41 22.5 94.41 25.06 104.47C25.16 104.95 25.59 105.31 26.08 105.31Z" fill="#603913"/><rect x="68.66" y="45.35" width="0.85" height="1.57" fill="#808285"/><rect x="67.3" y="44.84" width="3.56" height="0.96" fill="#27AAE1"/><rect x="30.8" y="55.63" width="0.89" height="3.55" fill="#FFBE08"/><path d="M19.47 34.96C19.51 35.35 19.69 35.73 19.69 36.13 19.65 36.18 19.61 36.23 19.58 36.29 19.47 36.49 19.35 36.69 19.21 36.88 19.17 36.94 19.07 37.02 19.04 37.09 19.04 37.09 19.04 37.09 19.04 37.09 18.91 37.23 18.77 37.35 18.62 37.47 18.6 37.49 18.52 37.55 18.46 37.59 18.43 37.61 18.4 37.63 18.38 37.64 18.21 37.74 18.04 37.83 17.86 37.91 17.78 37.95 17.69 37.97 17.61 38.01 17.63 38 17.65 37.99 17.67 37.98 17.8 37.94 17.94 37.84 17.67 37.98 17.66 37.98 17.66 37.98 17.65 37.98 17.48 38.03 17.31 38.07 17.14 38.1 17.12 38.1 17.03 38.11 16.97 38.12 16.95 38.12 16.93 38.12 16.92 38.12 16.75 38.12 16.57 38.11 16.4 38.09 16.2 38.01 16.17 38.03 16.23 38.05 16.22 38.05 16.2 38.04 16.19 38.04 16.11 38.02 16.03 37.99 15.95 37.96 15.92 37.95 15.79 37.89 15.74 37.87 15.74 37.87 15.74 37.87 15.73 37.87 15.64 37.82 15.56 37.76 15.47 37.71 15.45 37.7 15.43 37.68 15.41 37.66 15.4 37.64 15.35 37.6 15.29 37.56 15.2 37.47 15.04 37.19 14.94 37.15 14.88 37.05 14.82 36.95 14.77 36.85 14.72 36.76 14.68 36.66 14.64 36.57 14.63 36.56 14.63 36.55 14.63 36.54 14.63 36.53 14.62 36.52 14.62 36.5 14.65 36.26 14.69 36.02 14.73 35.78 15 34.08 15.35 32.4 15.52 30.69 15.74 30.4 16.04 30.18 16.38 30.05 16.81 29.81 17.33 29.75 17.81 29.87 17.81 29.87 17.82 29.87 17.82 29.87 18.82 29.93 19.59 30.7 19.6 31.71 19.63 32.8 19.35 33.9 19.47 34.96Z" fill="#F4C7A8"/><g><path d="M0.63 13.24C0.94 11.37 1.72 9.5 2.74 7.91 4.85 4.6 8.43 2.41 12.36 2.16 14.7 2.01 17.03 2.42 19.37 2.55 19.52 1.85 19.2 0.97 18.63 0.56 18.32 0.34 18.63-0.16 18.94 0.06 19.58 0.52 20.01 1.4 20 2.22 20.32 1.77 20.34 1.03 20.26 0.56 20.2 0.19 20.77 0.05 20.83 0.42 20.93 1.02 20.89 1.78 20.6 2.35 20.52 2.41 20.45 2.47 20.38 2.54 20.18 2.73 19.96 2.99 19.78 3.27 19.71 3.25 19.65 3.21 19.61 3.15 19.57 3.15 19.54 3.15 19.51 3.14 17.52 3.05 15.54 2.74 13.54 2.72 11.4 2.7 9.35 3.14 7.47 4.21 4.37 5.97 2.35 8.99 1.42 12.39 0.7 15 1.24 17.69 1.78 20.28 1.86 20.65 1.29 20.79 1.21 20.42 0.72 18.06 0.23 15.65 0.63 13.24Z" fill="#603913"/><path d="M5.48 21.59C5.54 22.02 5.63 22.45 5.73 22.87 6.22 24.83 7.17 26.68 8.46 28.24 9.05 28.95 9.72 29.61 10.44 30.18 10.81 30.48 11.2 30.75 11.61 31.01 11.76 31.1 11.9 31.19 12.05 31.27 12.13 31.32 12.21 31.36 12.29 31.4 14.97 32.83 18.24 33 21.2 32.75 23.52 32.55 26.03 32.31 28.08 31.12 30.31 29.83 31.55 26.83 32.04 24.41 32.26 23.3 32.41 22.22 32.52 21.32 32.53 21.23 32.54 21.13 32.55 21.04 32.67 20.07 32.69 19.09 32.64 18.11 32.63 17.93 32.62 17.75 32.6 17.57 32.54 16.86 32.44 16.15 32.3 15.44 32.24 15.14 32.18 14.84 32.1 14.54 32.05 14.31 31.99 14.08 31.93 13.86 31.79 13.34 31.62 12.8 31.39 12.28 31.32 12.11 31.23 11.94 31.15 11.78 30.89 11.29 30.56 10.84 30.15 10.48 29.94 10.29 29.67 10.2 29.4 10.21 29.29 10.11 29.16 10.04 29.01 10.01 28.49 9.9 27.98 9.77 27.48 9.63 26.65 9.4 25.82 9.17 24.96 9.02 24.77 8.99 24.58 8.96 24.38 8.94 22.64 8.74 20.91 9.16 19.17 9.12 18.85 9.11 18.55 9.28 18.37 9.53 17.44 9.68 16.5 9.89 15.58 10.18 15.29 10.27 15 10.36 14.72 10.47 12.27 11.35 9.97 12.71 8.28 14.56 7.82 15.06 7.35 15.67 6.94 16.34 5.94 17.94 5.23 19.89 5.48 21.59Z" fill="#FFDCC0"/><path d="M10.44 30.18C10.81 30.48 11.2 30.75 11.61 31.01 11.76 31.1 11.9 31.19 12.05 31.27 12.13 31.32 12.21 31.36 12.29 31.4 12.74 31.15 13.08 30.58 12.9 30.08 12.04 27.82 11.59 25.48 11.75 23.08 11.78 22.65 11.83 22.22 11.89 21.8 11.89 21.79 11.89 21.79 11.89 21.78 11.91 21.67 11.93 21.56 11.95 21.46 11.99 21.24 12.04 21.02 12.1 20.81 12.21 20.37 12.34 19.94 12.49 19.52 12.56 19.33 12.63 19.13 12.71 18.94 12.74 18.88 12.76 18.82 12.79 18.76 12.79 18.75 12.88 18.57 12.88 18.56 13.07 18.17 13.29 17.78 13.54 17.42 13.65 17.26 13.77 17.09 13.89 16.94 13.91 16.91 13.95 16.86 13.97 16.84 14.03 16.77 14.09 16.71 14.15 16.64 14.32 16.46 14.5 16.29 14.69 16.13 14.73 16.09 14.99 15.9 15 15.89 15 15.89 15 15.89 15 15.89 15 15.89 15 15.89 15 15.89 15.3 15.69 15.69 15.47 15.96 15.36 17.96 14.55 20.17 15.06 22.26 14.29 23.67 13.77 24.95 12.86 25.94 11.72 27.27 13.75 29.73 15.1 32.13 14.56 32.08 14.33 32.02 14.1 31.96 13.88 31.82 13.36 31.65 12.82 31.42 12.3 31.39 12.31 31.35 12.31 31.32 12.32 31.31 12.32 31.3 12.32 31.29 12.32 31.12 12.32 30.95 12.33 30.78 12.31 30.71 12.3 30.64 12.3 30.57 12.29 30.56 12.29 30.54 12.28 30.53 12.28 30.25 12.21 29.97 12.13 29.7 12.01 29.68 12 29.66 11.99 29.63 11.97 29.56 11.93 29.49 11.9 29.43 11.86 29.3 11.78 29.17 11.7 29.04 11.61 28.96 11.55 28.88 11.5 28.81 11.44 28.81 11.44 28.81 11.44 28.8 11.43 28.79 11.42 28.78 11.42 28.77 11.4 28.65 11.29 28.54 11.19 28.43 11.08 28.32 10.97 28.22 10.85 28.12 10.73 28.11 10.72 28.06 10.65 28.03 10.62 28.01 10.58 27.96 10.52 27.95 10.5 27.78 10.23 27.63 9.95 27.5 9.66 27.5 9.65 27.49 9.64 27.49 9.63 27.49 9.62 27.48 9.61 27.48 9.6 27.46 9.53 27.43 9.46 27.41 9.38 27.37 9.23 27.34 9.09 27.31 8.94 27.21 8.44 26.7 8.06 26.2 8.04 25.64 8.02 25.25 8.39 25.04 8.87 25.02 8.92 25 8.97 24.97 9.02 24.78 9.37 24.43 9.88 24.18 10.16 23.99 10.36 23.8 10.56 23.59 10.74 23.41 10.9 23.09 11.16 22.97 11.25 21.97 11.96 21.03 12.29 19.81 12.43 19.62 12.45 19.31 12.47 19.02 12.5 18.74 12.52 18.46 12.54 18.18 12.56 17.61 12.61 17.04 12.66 16.48 12.77 15.39 12.98 14.38 13.43 13.49 14.09 12 15.19 11.01 16.82 10.35 18.52 8.91 22.23 9.14 26.46 10.44 30.18Z" fill="#F4C7A8"/><path d="M0.92 27.93C0.94 24.13-0.36 20.24 0.1 16.47 0.51 13.09 2.11 9.78 4.47 7.33 7.97 3.71 13.19 2.38 18.09 2.43 21.99 2.47 29.64 3.04 29.96 8.26 29.98 8.53 30.01 8.79 30.05 9.05 29.7 8.81 29.34 8.57 28.99 8.31 28.88 8.23 28.77 8.2 28.66 8.2 28.12 7.79 27.44 7.49 26.8 7.78 26.49 7.92 26.29 8.2 26.26 8.54 26.24 8.77 26.31 9 26.3 9.22 26.24 9.17 26.18 9.13 26.12 9.09 25.55 10.3 24.39 11.18 23.08 11.69 19.57 13.08 15.76 12.16 12.82 14.99 10.64 17.09 9.68 20.5 9.92 23.47 10.08 25.46 11.01 27.34 12.13 28.95 12.74 29.83 15.45 32 15.22 33.11 15.09 33.76 14.23 34.07 13.69 34.27 13.47 34.35 13.25 34.43 13.03 34.49 10.44 35.25 7.73 34.69 5.46 33.28 3.82 32.28 0.91 30.03 0.92 27.93Z" fill="#603913"/><path d="M8.2 19.98C8.95 18.5 9.83 17.08 11.04 15.92 11.64 15.35 12.32 14.8 13.06 14.42 13.84 14.01 14.7 13.82 15.57 13.72 18.37 13.41 21.41 13.68 23.91 12.11 25.24 11.28 25.93 9.95 25.95 8.39 25.96 8.01 26.54 8.03 26.54 8.41 26.52 9.74 26.07 11.01 25.09 11.94 24.16 12.83 22.92 13.33 21.69 13.64 20.31 14 18.88 14.13 17.45 14.19 16.53 14.23 15.61 14.25 14.71 14.45 13.75 14.66 12.94 15.11 12.17 15.71 10.63 16.92 9.58 18.55 8.7 20.28 8.53 20.63 8.03 20.31 8.2 19.98Z" fill="#4F290A"/><path d="M10.59 13.37C11.78 11.96 13.39 11.01 15.11 10.38 17.08 9.67 19.11 9.68 21.1 9.05 22.09 8.74 23.04 8.27 23.83 7.6 24.64 6.92 25.19 5.76 26.43 6.53 27.96 7.48 29.4 8.68 30.57 10.07 30.62 10.2 30.67 10.33 30.72 10.47 30.83 10.54 30.94 10.61 31.05 10.68 31.51 10.98 31.99 11.29 32.56 11.31 33 11.33 33.38 11.88 33.07 12.28 32.13 13.5 30.26 12.88 29.13 12.28 27.96 11.66 26.91 10.55 26.35 9.29 26.26 9.23 26.18 9.17 26.1 9.11 25.53 10.32 24.37 11.2 23.06 11.71 19.55 13.1 15.74 12.18 12.8 15.01 10.62 17.11 9.66 20.52 9.9 23.49 10.06 25.48 10.99 27.36 12.11 28.97 12.72 29.85 15.43 32.02 15.2 33.13 15.07 33.78 14.21 34.09 13.67 34.29 13.45 34.37 13.23 34.45 13.01 34.51 12.88 34.44 12.76 34.37 12.64 34.28 12.54 34.21 12.44 34.13 12.34 34.05 12.3 34.02 12.26 33.99 12.23 33.96 11.04 32.99 10.13 31.77 9.43 30.4 8.08 27.76 7.34 24.75 7.43 21.78 7.54 18.69 8.59 15.74 10.59 13.37Z" fill="#4F290A"/><path d="M13.42 6.54C18.89 3.99 26.17 4.54 30.26 7.69 30.77 8.62 30.91 9.62 31.06 10.67 31.1 10.9 27.6 8.6 24.9 8.42 18.43 7.97 10.62 9.95 8.78 21.75 7.83 22.08 7.45 22.48 7.31 22.83 7.11 19.86 6.89 9.59 13.42 6.54Z" fill="#F15A29"/><path d="M11.63 11.12C11.76 11 8.5 17.4 8.09 22.56 7.68 27.72 7.36 22.11 7.36 22.11 7.36 22.11 7.88 14.31 11.63 11.12Z" fill="#E5461C"/><path d="M7.31 22.83C7.14 23.28 7.38 23.65 7.38 23.65 7.38 23.65 7.35 23.35 7.31 22.83Z" fill="#F15A29"/><path d="M6.11 22.53C7.13 21.15 8.86 21.84 10.18 22.22 10.27 22.25 10.36 22.28 10.45 22.32 10.35 23.23 10.49 24.17 10.72 25.05 10.84 25.51 10.98 25.97 11.16 26.41 10.48 26.6 9.69 26.62 9 26.55 8.1 26.47 7.13 26.29 6.45 25.64 5.61 24.85 5.42 23.46 6.11 22.53Z" fill="#F4C7A8"/><path d="M9.75 23.93C9.75 23.93 6.94 23.65 7.33 24.29 7.72 24.93 9.99 25.55 10.08 25.1 10.17 24.65 9.75 23.93 9.75 23.93Z" fill="#E5A980"/><path d="M16.26 23.71C16.23 24.66 17.39 25.47 18.84 25.52 20.3 25.57 21.5 24.83 21.53 23.87 21.56 22.92 20.4 22.11 18.95 22.06 17.5 22.02 16.29 22.76 16.26 23.71Z" fill="#FFB0B0"/><path d="M30.86 23.67C31.07 24.02 31.5 24.28 32.05 24.42 32.27 23.31 32.42 22.23 32.53 21.33 31.14 21.93 30.41 22.91 30.86 23.67Z" fill="#FFB0B0"/><path d="M30.95 17.92C31.43 17.8 32.11 17.88 32.65 18.11 32.64 17.93 32.63 17.75 32.61 17.57 32.5 17.53 32.39 17.51 32.28 17.48 31.8 17.36 31.27 17.31 30.79 17.43 30.47 17.52 30.64 18 30.95 17.92Z" fill="#603913"/><path d="M27.62 20.8C27.62 20.8 30.15 22.6 28.19 23.19L27.62 20.8Z" fill="#F4C7A8"/><path d="M30.42 23.92 21.88 24.73C21.88 24.73 23.44 29.16 26.83 28.58 30.21 27.99 30.42 23.92 30.42 23.92Z" fill="#FFFFFF"/><path d="M26.6 9.04C26.56 10.6 27.62 12.23 29.07 12.83 30.14 13.27 32.36 13.22 32.79 11.87 32.87 11.61 33.27 11.74 33.19 11.99 32.69 13.54 30.35 13.74 29.06 13.27 27.37 12.66 26.14 10.8 26.18 9.02 26.19 8.76 26.61 8.77 26.6 9.04Z" fill="#4F290A"/><path d="M20.95 17.33C20.43 17.22 19.89 17.29 19.38 17.43 18.9 17.56 18.37 17.77 18.02 18.15 17.79 18.41 18.15 18.8 18.38 18.55 18.89 17.98 20.04 17.69 20.78 17.84 21.13 17.91 21.29 17.4 20.95 17.33Z" fill="#603913"/><path d="M30.05 19.19C30.33 18.91 30.72 18.73 31.07 18.69 31.41 18.65 31.7 18.75 31.93 18.94 32.08 18.88 32.21 18.73 32.24 18.57 32.27 18.45 32.36 18.35 32.5 18.36 32.62 18.37 32.74 18.5 32.71 18.62 32.65 18.9 32.48 19.15 32.25 19.29 32.31 19.38 32.36 19.48 32.4 19.58 32.74 19.57 33.22 19.47 33.26 19.19 33.3 18.89 33.77 18.94 33.73 19.24 33.66 19.76 33.06 20.01 32.53 20.05 32.54 20.13 32.55 20.21 32.55 20.29 32.56 20.59 32.09 20.66 32.08 20.36 32.07 19.83 31.74 19.31 31.18 19.27 30.43 19.21 30.41 19.83 30.07 20.27 29.85 20.55 29.72 20.16 29.71 19.96 29.69 19.68 29.83 19.41 30.05 19.19Z" fill="#231F20"/><path d="M21.64 20.27C21.36 19.99 20.96 19.81 20.62 19.78 20.28 19.74 19.99 19.85 19.76 20.03 19.61 19.97 19.48 19.82 19.45 19.66 19.42 19.54 19.32 19.44 19.19 19.45 19.07 19.46 18.96 19.59 18.98 19.71 19.05 19.99 19.21 20.24 19.45 20.38 19.39 20.47 19.35 20.57 19.31 20.67 18.97 20.66 18.49 20.57 18.45 20.28 18.41 19.98 17.94 20.04 17.98 20.34 18.05 20.86 18.66 21.1 19.19 21.14 19.18 21.22 19.17 21.3 19.17 21.38 19.16 21.68 19.63 21.75 19.64 21.45 19.65 20.92 19.97 20.4 20.53 20.35 21.28 20.29 21.3 20.91 21.65 21.35 21.87 21.63 21.99 21.24 22 21.04 22.01 20.76 21.86 20.48 21.64 20.27Z" fill="#231F20"/></g><path d="M17.31 87.16C17.51 87.38 17.75 87.58 17.99 87.71 17.99 87.71 18 87.72 18 87.72 18.17 87.81 18.36 87.87 18.54 87.91 18.56 87.92 18.59 87.92 18.61 87.93 18.76 87.96 18.91 87.99 19.06 88.02 19.5 88.12 19.92 88.26 20.33 88.44 20.69 88.6 21.01 88.82 21.34 89.03 21.43 89.08 21.51 89.14 21.6 89.19 21.71 89.26 21.81 89.31 21.9 89.34L21.9 89.34C22.01 89.38 22.12 89.39 22.23 89.38 22.25 89.38 22.27 89.38 22.29 89.37 22.56 89.33 22.96 89.22 23.29 89.21 23.47 89.2 23.64 89.22 23.82 89.25 23.88 89.22 23.95 89.19 24.01 89.16 24.4 88.96 24.3 88.53 24.02 88.34 24.08 88.26 24.13 88.17 24.16 88.07 24.2 87.96 24.16 87.79 24.11 87.69 24.05 87.58 23.92 87.48 23.8 87.46 23.8 87.46 23.79 87.46 23.79 87.46 23.82 87.37 23.83 87.28 23.8 87.18 23.77 87.06 23.67 86.93 23.56 86.88 23.44 86.82 23.3 86.79 23.18 86.83 23.1 86.86 23.01 86.9 22.95 86.97 22.81 87.11 21.77 86.51 21.62 86.44 21.01 86.15 20.35 86 20.24 85.26 20.22 85.12 20.55 80.55 20.56 79.82 20.61 77.41 20.55 74.96 21.04 72.61 21.13 71.88 21.23 71.14 21.28 70.41 21.29 70.25 21.3 70.08 21.31 69.92 21.31 69.84 21.31 69.75 21.31 69.67 21.3 69.22 21.28 68.76 21.22 68.31 21.21 68.22 21.2 68.13 21.19 68.03 21.67 64.1 20.91 60.02 20.52 56.11 20.45 55.41 19.88 54.94 19.25 54.97 19.22 54.97 19.2 54.98 19.18 54.98 18.97 54.92 18.73 54.92 18.49 55.01 18.13 55.14 17.85 55.54 17.77 55.97 17.6 55.7 17.41 55.44 17.19 55.2 16.75 54.71 15.9 54.86 15.54 55.38 15.53 55.37 15.52 55.35 15.51 55.33 14.94 54.51 13.53 54.71 13.44 55.83 13.32 57.32 13.4 58.78 13.58 60.21 14.18 64.87 15.96 69.32 16.13 73.99 16.2 75.9 16.22 77.82 16.48 79.65 16.66 80.9 17.38 84.52 17.62 85.35 17.64 85.42 17.66 85.48 17.67 85.5 17.62 85.56 17.58 85.62 17.54 85.69 17.24 86.22 17.17 86.73 17.31 87.16Z" fill="#F4C7A8"/><path d="M16.26 71.47C16.47 73.37 16.63 75.29 17.02 77.08 17.29 78.32 18.27 81.87 18.58 82.68 18.61 82.54 18.61 82.39 18.58 82.24 18.21 80.48 18.09 78.7 17.87 76.93 17.68 75.38 17.41 73.83 17.26 72.27 17.12 70.76 17.02 69.27 16.69 67.79 16.36 66.28 16.1 64.75 15.66 63.26 15.22 61.76 14.55 60.41 14.32 58.9 14.22 58.2 13.53 57.79 12.86 57.87 12.8 57.88 12.75 57.89 12.7 57.9 13.66 62.51 15.76 66.82 16.26 71.47Z" fill="#F4C7A8"/><path d="M14.39 88.75C14.58 88.99 14.79 89.2 15.03 89.35 15.03 89.35 15.04 89.36 15.04 89.36 15.2 89.46 15.38 89.53 15.57 89.59 15.59 89.6 15.62 89.6 15.64 89.61 15.79 89.66 15.93 89.69 16.08 89.74 16.51 89.87 16.92 90.04 17.31 90.25 17.65 90.44 17.96 90.68 18.27 90.91 18.35 90.97 18.43 91.03 18.52 91.09 18.62 91.16 18.72 91.22 18.81 91.26 18.81 91.26 18.81 91.26 18.81 91.26 18.92 91.31 19.02 91.33 19.14 91.33 19.16 91.33 19.18 91.33 19.2 91.33 19.48 91.31 19.88 91.23 20.21 91.25 20.39 91.26 20.56 91.29 20.73 91.33 20.8 91.3 20.86 91.28 20.92 91.25 21.33 91.08 21.26 90.64 20.99 90.43 21.06 90.36 21.11 90.27 21.15 90.17 21.2 90.06 21.17 89.89 21.12 89.79 21.06 89.68 20.95 89.57 20.82 89.53 20.82 89.53 20.81 89.53 20.81 89.53 20.85 89.44 20.86 89.35 20.84 89.25 20.82 89.13 20.73 88.99 20.62 88.93 20.51 88.86 20.37 88.82 20.24 88.86 20.16 88.88 20.07 88.92 20 88.98 19.85 89.11 18.86 88.43 18.72 88.35 18.13 88.01 17.49 87.81 17.43 87.07 17.42 86.93 18.08 82.39 18.15 81.67 18.38 79.27 18.49 76.83 19.15 74.51 19.3 73.79 19.44 73.06 19.55 72.33 19.57 72.17 19.59 72 19.61 71.84 19.61 71.76 19.62 71.67 19.63 71.59 19.66 71.14 19.66 70.68 19.64 70.23 19.64 70.14 19.63 70.04 19.63 69.95 20.4 66.07 19.94 61.94 19.84 58.01 19.82 57.3 19.28 56.79 18.66 56.78 18.63 56.78 18.61 56.78 18.59 56.78 18.38 56.7 18.15 56.69 17.9 56.76 17.53 56.86 17.22 57.24 17.11 57.66 16.96 57.38 16.79 57.1 16.59 56.85 16.18 56.33 15.33 56.42 14.93 56.91 14.92 56.89 14.91 56.88 14.9 56.86 14.4 56 12.97 56.1 12.8 57.21 12.57 58.69 12.54 60.14 12.62 61.59 12.88 66.28 14.33 70.85 14.16 75.52 14.09 77.43 13.97 79.35 14.1 81.19 14.19 82.45 14.64 86.11 14.82 86.96 14.84 87.04 14.85 87.09 14.86 87.12 14.81 87.17 14.76 87.23 14.72 87.3 14.39 87.81 14.29 88.31 14.39 88.75Z" fill="#FFDCC0"/><path d="M14.16 75.51C14.09 77.42 13.97 79.34 14.1 81.18 14.19 82.44 14.64 86.1 14.82 86.95 14.87 86.81 14.89 86.67 14.88 86.52 14.77 84.73 14.91 82.95 14.95 81.16 14.99 79.59 14.95 78.03 15.03 76.46 15.11 74.95 15.23 73.46 15.12 71.94 15.01 70.4 14.98 68.84 14.76 67.31 14.55 65.77 14.07 64.33 14.07 62.81 14.07 62.1 13.45 61.59 12.78 61.58 12.72 61.58 12.67 61.58 12.62 61.59 12.89 66.27 14.34 70.83 14.16 75.51Z" fill="#F4C7A8"/><path d="M15.64 89.61C15.79 89.66 15.93 89.69 16.08 89.74 16.51 89.87 16.92 90.04 17.31 90.25 17.65 90.44 17.96 90.68 18.27 90.91 18.35 90.97 18.43 91.03 18.52 91.09 18.62 91.16 18.72 91.22 18.81 91.26 18.79 91.19 18.76 91.12 18.73 91.05 18.52 90.62 18.14 90.27 17.72 90.02 17.26 89.75 16.74 89.56 16.2 89.55 16.01 89.56 15.83 89.58 15.64 89.61Z" fill="#F4C7A8"/><path d="M44.56 51.77C44.46 51.61 44.33 51.49 44.21 51.35 44.41 51.21 44.49 50.92 44.28 50.67 43.89 50.21 43.37 49.85 42.83 49.51 43.35 49.45 43.81 49.29 43.87 48.88 43.91 48.59 43.75 48.31 43.43 48.31 42.64 48.31 41.84 48.31 41.05 48.31 41.01 48.3 40.97 48.29 40.93 48.28 40.88 48.27 40.82 48.26 40.77 48.25 40.66 48.19 40.55 48.13 40.43 48.08 39.76 47.76 39.05 47.7 38.4 47.98 38.01 47.81 37.62 47.64 37.24 47.46 36.35 47.06 35.43 46.68 34.59 46.18 32.85 45.14 31.14 44.04 29.31 43.17 28.37 42.72 27.42 42.32 26.49 41.85 24.03 40.6 21.6 38.5 18.8 38.14 18.28 38.07 17.74 38.25 17.34 38.56 16.65 39.1 16.37 40.04 17.32 40.84 17.6 41.07 17.89 41.28 18.19 41.47 19.99 42.57 22.19 43.01 23.72 44.54 25.69 46.52 27.12 46.68 29.79 47.35 31.52 47.79 35.5 49.36 36.79 49.81 36.81 49.82 36.83 49.82 36.85 49.83 36.82 49.82 37.05 50.39 37.08 50.45 37.24 50.74 37.4 51.01 37.65 51.25 38.1 51.69 38.7 51.98 39.33 52.02 39.62 52.07 39.91 52.11 40.2 52.15 40.72 52.47 41.24 52.79 41.76 53.12 42.16 53.36 42.59 52.89 42.38 52.5 42.36 52.46 42.33 52.43 42.31 52.39 42.59 52.54 42.86 52.7 43.15 52.82 43.49 52.97 43.83 52.73 43.83 52.43 43.97 52.47 44.12 52.49 44.31 52.44 44.57 52.37 44.71 52.01 44.56 51.77Z" fill="#FFDCC0"/><path d="M22.97 79.6C22.64 73.85 22.31 68.09 21.98 62.33 21.99 62.29 22 62.25 22.01 62.21 22.01 62.18 22.01 62.16 22 62.13 21.99 62.01 21.97 61.89 21.95 61.77 21.88 60.63 21.82 59.5 21.75 58.36 21.58 58.42 21.41 58.46 21.24 58.51 20.8 57 20.22 55.52 19.57 54.33 20.27 53.87 20.63 52.09 20.52 50.62 20.38 48.82 19.54 47.93 18.77 48.15 18.05 48.36 17.33 48.6 16.62 49.02 14.64 50.2 12.47 53.12 11.45 57.11 10.34 61.45 10.4 66.59 11.67 70.6 11.66 70.72 11.66 70.84 11.65 70.96 11.66 71.25 11.66 71.57 11.66 71.87 11.51 72.82 11.35 73.74 11.3 74.33 11.07 76.76 10.93 79.23 10.88 81.71 12.72 83.57 14.7 84.93 16.72 85.16 18.75 85.39 20.84 84.41 22.52 81.94 22.67 81.72 22.82 81.48 22.9 81.13 23.02 80.67 23 80.11 22.97 79.6Z" fill="#F15A29"/><path d="M18.18 41.46C19.98 42.56 22.18 43 23.71 44.53 25.68 46.51 27.11 46.67 29.78 47.34 31.51 47.78 35.49 49.35 36.78 49.8 35.88 48.94 34.61 48.42 33.49 47.92 32.19 47.34 30.84 46.84 29.51 46.33 28.18 45.82 26.86 45.37 25.64 44.61 24.45 43.87 23.33 43.02 22.14 42.29 21.66 42 21.17 41.74 20.62 41.63 20.38 41.59 20.14 41.56 19.9 41.5 19.88 41.49 19.85 41.49 19.83 41.48 19.45 40.9 18.58 40.98 18.18 41.46Z" fill="#F4C7A8"/><path d="M16.56 36.02C16.54 36.01 16.52 36 16.51 36 16.53 36 16.56 36.01 16.57 36.02 16.57 36.02 16.56 36.02 16.56 36.02Z" fill="#8DC63F"/><path d="M21.08 45.58C21.06 45.67 21.05 45.75 21.05 45.84 21.02 46.28 21.07 46.85 21.15 47.45 21.16 47.46 21.16 47.48 21.16 47.49 21.36 48.93 21.79 50.62 22.13 51.72 22.3 52.28 22.45 52.69 22.51 52.82 22.8 53.37 23.41 53.69 23 54.36 22.95 54.43 21.93 55.12 21.4 55.21 18.27 55.74 15.05 54.44 11.91 54.91 11.47 54.97 9.7 54.93 9.87 54.51 10.68 52.59 10.65 48.84 10.82 47.45 11.1 45.18 11.35 39.27 11.64 36.98 11.84 35.43 11.94 34.6 13.99 34.06 14.94 33.81 16.02 34.06 16.86 34.45 18.4 35.17 20.13 36.08 21.42 37.13 21.78 37.43 25.68 40.71 25.87 40.46 25.28 41.23 24.69 42.01 24.17 42.83 23.78 43.45 23.36 45.04 22.84 45.46 22.64 45.61 21.12 45.6 21.12 45.33 21.11 45.43 21.09 45.51 21.08 45.58Z" fill="#662D91"/><path d="M22.13 51.72C21.32 50.8 20.04 48.98 19.86 46.7 17.77 43.81 16.71 41.34 16.67 41.25 16.72 41.32 18.62 43.75 21.08 45.58 21.06 45.67 21.05 45.75 21.05 45.84 21 46.37 21.04 46.92 21.15 47.45 21.16 47.46 21.16 47.48 21.16 47.49 21.36 48.93 21.79 50.63 22.13 51.72Z" fill="#4E1F77"/><path d="M42.35 35.9C41.94 35.67 41.36 35.93 41.01 36.09 40.57 36.29 39.3 37.44 39 37.72 38.78 37.92 39.96 37.21 40.27 37.22L40.27 37.22C39.95 37.53 40.73 37.81 41.05 37.51 41.38 37.2 41.91 37.03 42.27 36.75 42.54 36.52 42.75 36.12 42.35 35.9Z" fill="#FFDCC0"/><path d="M65.66 107.13C64.98 107 64.38 107.14 63.73 107.3 63.56 107.08 63.53 106.78 63.49 106.51 63.21 104.89 60.77 106.81 60.77 107.09 60.33 106.08 59.72 104.94 58.62 104.76 58.26 104.71 56.44 105.12 56.39 105.58 56.44 105.14 56.35 104.65 56.05 104.32 55.49 103.72 54.33 104.18 53.79 104.6 53.22 105.03 52.88 105.76 52.97 106.46 52.91 105.87 52.8 105.2 52.32 104.85 51.73 104.41 50.89 104.65 50.24 105 49.62 105.33 49.05 105.73 48.55 106.21 48.24 106.49 47.9 107.2 47.47 107.25 46.73 107.34 46.47 106.08 45.6 106.09 45.19 106.1 44.83 106.38 44.6 106.72 44.39 107.05 44.29 107.45 44.18 107.83 43.7 106.95 43.05 106.3 42.03 106.1 41.38 105.97 40.7 106.05 40.08 106.3 40.1 106.26 40.11 106.24 40.13 106.21 40.7 105.17 41.86 104.48 43 104.63 43.54 104.7 44.11 105.07 44.32 105.56 44.25 104.52 44.45 103.43 45.14 102.71 45.99 101.85 47.69 101.94 48.12 103.1 48.39 103.85 48.07 104.75 48.35 105.5 48.86 104.32 49.38 103.11 50.25 102.19 51.12 101.26 52.41 100.66 53.61 101 54.8 101.33 55.68 102.84 55.14 104.01 55.9 102.48 57.79 102.11 59.43 101.92 60.16 101.83 60.99 101.77 61.58 102.25 62.16 102.73 62.1 103.96 61.36 104.07 62.2 103.97 63.11 103.9 63.82 104.37 64.53 104.84 64.76 106.11 64.04 106.56 64.54 106.14 65.37 106.52 65.66 107.13Z" fill="#94E8FF"/><path d="M62.87 108.82C62.19 108.69 61.59 108.83 60.94 108.99 60.77 108.77 60.74 108.47 60.7 108.2 60.42 106.58 57.98 108.5 57.98 108.78 57.54 107.77 56.93 106.63 55.83 106.45 55.47 106.4 53.65 106.81 53.6 107.27 53.65 106.83 53.56 106.34 53.26 106.01 52.7 105.41 51.54 105.87 51 106.29 50.43 106.72 50.09 107.45 50.18 108.15 50.12 107.56 50.01 106.89 49.53 106.54 48.94 106.1 48.1 106.34 47.45 106.69 46.83 107.02 46.26 107.42 45.76 107.9 45.45 108.18 45.11 108.89 44.68 108.94 43.94 109.03 43.68 107.77 42.82 107.78 42.41 107.79 42.05 108.07 41.82 108.41 41.61 108.74 41.51 109.14 41.4 109.52 40.92 108.64 40.27 107.99 39.25 107.79 38.6 107.66 37.92 107.74 37.3 107.99 37.32 107.95 37.33 107.93 37.35 107.9 37.92 106.86 39.08 106.17 40.22 106.32 40.76 106.39 41.33 106.76 41.54 107.25 41.47 106.21 41.67 105.12 42.36 104.4 43.21 103.54 44.91 103.63 45.34 104.79 45.61 105.54 45.29 106.44 45.57 107.19 46.08 106.01 46.6 104.8 47.47 103.88 48.34 102.95 49.63 102.35 50.83 102.69 52.02 103.03 52.9 104.53 52.36 105.7 53.12 104.17 55.01 103.8 56.65 103.61 57.38 103.52 58.21 103.46 58.8 103.94 59.38 104.42 59.32 105.65 58.58 105.76 59.42 105.66 60.33 105.59 61.04 106.06 61.75 106.53 61.98 107.8 61.26 108.25 61.75 107.83 62.58 108.21 62.87 108.82Z" fill="#94E8FF"/><rect x="53.93" y="49.01" width="3.12" height="53.6" fill="#27AAE1"/><path d="M62.87 108.82C62.19 108.69 61.59 108.83 60.94 108.99 60.77 108.77 60.74 108.47 60.7 108.2 60.42 106.58 57.98 108.5 57.98 108.78 57.54 107.77 56.93 106.63 55.83 106.45 55.47 106.4 53.65 106.81 53.6 107.27 53.65 106.83 53.56 106.34 53.26 106.01 52.7 105.41 51.54 105.87 51 106.29 50.43 106.72 50.09 107.45 50.18 108.15 50.12 107.56 50.01 106.89 49.53 106.54 48.94 106.1 48.1 106.34 47.45 106.69 46.83 107.02 46.26 107.42 45.76 107.9 45.45 108.18 45.11 108.89 44.68 108.94 43.94 109.03 43.68 107.77 42.82 107.78 42.41 107.79 42.05 108.07 41.82 108.41 41.61 108.74 41.51 109.14 41.4 109.52 40.92 108.64 40.27 107.99 39.25 107.79 38.6 107.66 37.92 107.74 37.3 107.99 37.32 107.95 37.33 107.93 37.35 107.9 37.92 106.86 39.08 106.17 40.22 106.32 40.76 106.39 41.33 106.76 41.54 107.25 41.47 106.21 41.67 105.12 42.36 104.4 43.21 103.54 44.91 103.63 45.34 104.79 45.61 105.54 45.29 106.44 45.57 107.19 46.08 106.01 46.6 104.8 47.47 103.88 48.34 102.95 49.63 102.35 50.83 102.69 52.02 103.03 52.9 104.53 52.36 105.7 53.12 104.17 55.01 103.8 56.65 103.61 57.38 103.52 58.21 103.46 58.8 103.94 59.38 104.42 59.32 105.65 58.58 105.76 59.42 105.66 60.33 105.59 61.04 106.06 61.75 106.53 61.98 107.8 61.26 108.25 61.75 107.83 62.58 108.21 62.87 108.82Z" fill="#94E8FF"/><path d="M61.54 109.18C60.86 109.05 60.26 109.19 59.61 109.35 59.44 109.13 59.41 108.83 59.37 108.56 59.09 106.94 56.65 108.86 56.65 109.14 56.21 108.13 55.6 106.99 54.5 106.81 54.14 106.76 52.32 107.17 52.27 107.63 52.32 107.19 52.23 106.7 51.93 106.37 51.37 105.77 50.21 106.23 49.67 106.65 49.1 107.08 48.76 107.81 48.85 108.51 48.79 107.92 48.68 107.25 48.2 106.9 47.61 106.46 46.77 106.7 46.12 107.05 45.5 107.38 44.93 107.78 44.43 108.26 44.12 108.54 43.78 109.25 43.35 109.3 42.61 109.39 42.35 108.13 41.49 108.14 41.08 108.15 40.72 108.43 40.49 108.77 40.28 109.1 40.18 109.5 40.07 109.88 39.59 109 38.94 108.35 37.92 108.15 37.27 108.02 36.59 108.1 35.97 108.35 35.99 108.31 36 108.29 36.02 108.26 36.59 107.22 37.75 106.53 38.89 106.68 39.43 106.75 40 107.12 40.21 107.61 40.14 106.57 40.34 105.48 41.03 104.76 41.88 103.9 43.58 103.99 44.01 105.15 44.28 105.9 43.96 106.8 44.24 107.55 44.75 106.37 45.27 105.16 46.14 104.24 47.01 103.31 48.3 102.71 49.5 103.05 50.69 103.39 51.57 104.89 51.03 106.06 51.79 104.53 53.68 104.16 55.32 103.97 56.05 103.88 56.88 103.82 57.47 104.3 58.05 104.78 57.99 106.01 57.25 106.12 58.09 106.02 59 105.95 59.71 106.42 60.42 106.89 60.65 108.16 59.93 108.61 60.41 108.18 61.25 108.56 61.54 109.18Z" fill="#94E8FF"/></g></svg>