<svg width="463.06" height="413.24" viewBox="0 0 463.06 413.24" xmlns="http://www.w3.org/2000/svg" xmlns:xlink="http://www.w3.org/1999/xlink" xml:space="preserve" overflow="hidden"><defs></defs><g id="Floor_1_"><ellipse cx="231.53" cy="283.41" rx="231.53" ry="129.83" id="Floor_2_" fill="#E0E0E0"/><g id="Lines_2_"><path d="M436.09 336.98C433.7 335.6 429.82 335.6 427.43 336.98L307.86 406.01C339.78 399.78 369.74 389.51 395.24 375.21 414.33 364.5 429.37 352.39 440.4 339.47L436.09 336.98Z" fill="#FAFAFA"/><path d="M78.64 299.23 98.41 310.65C100.8 312.03 104.68 312.03 107.07 310.65L244.64 231.22C247.03 229.84 247.03 227.6 244.64 226.22L224.87 214.8C222.48 213.42 218.6 213.42 216.21 214.8L78.64 294.23C76.24 295.61 76.24 297.85 78.64 299.23Z" fill="#FAFAFA"/><path d="M191.84 195.67 172.07 184.25C169.68 182.87 165.8 182.87 163.41 184.25L25.83 263.68C23.44 265.06 23.44 267.3 25.83 268.68L45.6 280.1C47.99 281.48 51.87 281.48 54.26 280.1L191.83 200.67C194.23 199.29 194.23 197.05 191.84 195.67Z" fill="#FAFAFA"/><path d="M139.03 165.13 138.09 164.59C112.59 170.89 88.7 179.89 67.81 191.61 40.62 206.85 21.62 224.95 10.79 244.18L139.03 170.14C141.43 168.75 141.43 166.51 139.03 165.13Z" fill="#FAFAFA"/><path d="M237.05 390.86 256.82 402.28C259.21 403.66 263.09 403.66 265.48 402.28L403.05 322.85C405.44 321.47 405.44 319.23 403.05 317.85L383.28 306.43C380.89 305.05 377.01 305.05 374.62 306.43L237.05 385.86C234.66 387.24 234.66 389.48 237.05 390.86Z" fill="#FAFAFA"/><path d="M350.25 287.31 330.48 275.89C328.09 274.51 324.21 274.51 321.82 275.89L184.25 355.32C181.86 356.7 181.86 358.94 184.25 360.32L204.02 371.74C206.41 373.12 210.29 373.12 212.68 371.74L350.25 292.31C352.64 290.93 352.64 288.69 350.25 287.31Z" fill="#FAFAFA"/><path d="M277.67 245.35C275.28 243.97 271.4 243.97 269.01 245.35L131.44 324.78C129.05 326.16 129.05 328.4 131.44 329.78L151.21 341.2C153.6 342.58 157.48 342.58 159.87 341.2L297.44 261.77C299.83 260.39 299.83 258.15 297.44 256.77L277.67 245.35Z" fill="#FAFAFA"/></g></g><path d="M119.82 270.38C120.33 270.49 120.84 270.61 121.35 270.73 128.28 272.35 135.11 274.47 142.15 275.52 144.18 275.82 146.23 276 148.28 276.1 152.05 276.29 156.03 276.33 159.69 275.32 162.69 274.49 166.53 271.58 164.18 268.08 163.53 267.12 162.68 266.13 162.81 264.98 162.94 263.85 163.97 263.07 164.94 262.48 172.61 257.83 182.27 256.76 191.07 257.61 198.68 258.34 206.15 262.6 213.52 264.62 221.62 266.84 230.12 268.13 238.5 266.86 241.38 266.42 244.67 265.28 245.51 262.49 246.11 260.5 245.15 258.31 243.66 256.87 242.17 255.43 240.21 254.59 238.3 253.78 232.72 251.41 225.65 249.59 220.72 246.11 217.45 243.8 214.32 241.29 211.36 238.59 208.76 236.21 206.25 235.1 203.08 233.53 190.36 227.26 176.74 221.97 162.56 221.81 158 221.76 153.1 222.39 149.7 225.43 147.39 227.49 146.07 230.42 144.2 232.88 141.8 236.03 137.87 237.36 134.31 238.82 129.68 240.71 124.44 241.19 119.49 240.75 114.2 240.28 109.07 238.88 103.99 237.39 99.68 236.13 95.16 235.44 91 233.89 85.61 231.88 79.64 231.44 74.02 232.7 70.29 233.54 63.38 235.09 62.85 239.67 62.54 242.38 63.91 244.99 65.51 247.19 71.58 255.57 81.19 260.75 91.06 263.88 100.45 266.87 110.23 268.23 119.82 270.38Z" id="Shadow_1_" opacity="0.07"/><g id="Character_2_"><g><path d="M209.31 247.7C209.32 248.48 208.96 249.66 209.45 250.29 210.15 251.18 211.34 251.91 212.3 252.47 213.1 252.93 213.76 253.41 214.42 254.05 215.16 254.76 215.61 255.73 216.19 256.57 216.94 257.66 217.95 259.76 219.88 261.1 222.74 263.08 227.02 263.86 231.31 263.68 235.6 263.5 237.96 262.25 239.11 261.23 240.25 260.21 240.55 257.95 240.16 256.89 239.77 255.83 209.31 247.7 209.31 247.7Z" fill="#37474F"/><path d="M210.7 244.95 221.9 242.77 218.62 225.94 207.91 230.65Z" id="XMLID_61_" fill="#FFA8A7"/><path d="M239.77 255.08C237.69 253.46 233.63 251.29 228.97 247.67 226.73 245.94 224.85 243 223.41 240.58L223.41 240.57C221.93 238.06 222.31 236.83 221.6 235.92 220.96 235.1 220.47 234.91 220.38 234.89 220.44 235.04 221.11 236.63 218.21 237.36 215.18 238.13 214 237.65 213.7 238.41 213.53 238.81 213.7 239.97 213.86 241.05 214 242.03 214.13 242.94 214.01 243.17 213.74 243.65 213.09 243.01 212.31 241.78 211.87 241.08 211.1 240.53 210.51 240.19 210.49 240.18 210.48 240.17 210.47 240.17 210.09 239.94 209.79 239.8 209.71 239.77 209.7 239.76 209.69 239.76 209.69 239.76L209.48 238.69C208.86 238.64 208.98 240.61 208.87 242.43 208.74 244.42 208.76 246.74 209.31 247.69 210.32 249.43 213.41 250.7 214.91 252.07 216.41 253.44 217.72 256.55 219.62 258.47 221.51 260.38 226.02 261.76 231.28 261.55 238.29 261.28 242.54 257.26 239.77 255.08Z" fill="#27DEBF"/><path d="M239.77 255.08C237.69 253.46 233.63 251.29 228.97 247.67 226.73 245.94 224.85 243 223.41 240.58L223.41 240.57C221.93 238.06 222.31 236.83 221.6 235.92 220.96 235.1 220.47 234.91 220.38 234.89 220.44 235.04 221.11 236.63 218.21 237.36 215.18 238.13 214 237.65 213.7 238.41 213.53 238.81 213.7 239.97 213.86 241.05 214 242.03 214.13 242.94 214.01 243.17 213.74 243.65 213.09 243.01 212.31 241.78 211.87 241.08 211.1 240.53 210.51 240.19 210.49 240.18 210.48 240.17 210.47 240.17 210.09 239.94 209.79 239.8 209.71 239.77 209.7 239.76 209.69 239.76 209.69 239.76L209.48 238.69C208.86 238.64 208.98 240.61 208.87 242.43 208.74 244.42 208.76 246.74 209.31 247.69 210.32 249.43 213.41 250.7 214.91 252.07 216.41 253.44 217.72 256.55 219.62 258.47 221.51 260.38 226.02 261.76 231.28 261.55 238.29 261.28 242.54 257.26 239.77 255.08Z" opacity="0.3"/><path d="M219.62 258.48C219.62 258.48 220.15 254.47 225.92 252.08 231.69 249.69 233.67 250.7 235.12 251.33 236.57 251.96 241.51 254.71 240.87 256.8 240.24 258.89 238.45 260.66 233.06 261.58 227.67 262.5 221.46 260.86 219.62 258.48Z" fill="#FAFAFA"/></g><g><path d="M151.61 217.45C153.47 221.78 156.78 222.78 160.85 222.05L171.94 209.91 161.96 201.89 151.61 217.45Z" id="XMLID_60_" fill="#FFA8A7"/><path d="M149.22 220.77C149.26 220.81 147.95 222.49 147.95 222.75 147.95 223.52 148.35 224.37 148.67 225.05 149.17 226.11 149.79 227.11 150.15 228.22 150.51 229.34 150.51 230.46 150.56 231.62 150.62 232.98 150.56 235.28 151.34 237.55 152.53 240.99 155.47 244.05 159.3 246.2 163.13 248.35 166.47 248.29 168.02 248.01 169.57 247.73 170.91 246.51 171.15 245.38 171.38 244.24 149.28 220.84 149.22 220.77Z" fill="#37474F"/><path d="M171.94 242.73C171.01 240.19 168.48 236.97 166.37 231.33 165.33 228.53 165.15 225 165.1 222.25 165.05 219.99 165.59 219.12 166.24 217.93 166.88 216.74 166.68 216.39 166.24 216.16 166.24 216.16 165.52 216.83 163.21 216.94 161.45 217.01 159.77 215.66 159.05 215.02 158.56 214.59 157.57 216.17 156.92 217.59 156.61 218.27 156.39 218.92 156.33 219.3 156.17 220.49 155.37 220.93 155.09 219.93 154.82 219 155.26 216.97 154.13 214.61 154.05 214.44 153.96 214.27 153.86 214.1L154.74 212.78C154.22 212.4 152.77 214.42 151.69 215.95 150.51 217.61 149.27 219.64 149.24 220.77 149.18 222.82 151.19 225.59 151.76 227.6 152.32 229.61 152.09 232.77 152.7 235.45 153.31 238.14 156.89 242.74 160.9 244.67 167.36 247.78 173.18 246.12 171.94 242.73Z" fill="#27DEBF"/><path d="M171.94 242.73C171.01 240.19 168.48 236.97 166.37 231.33 165.33 228.53 165.15 225 165.1 222.25 165.05 219.99 165.59 219.12 166.24 217.93 166.88 216.74 166.68 216.39 166.24 216.16 166.24 216.16 165.52 216.83 163.21 216.94 161.45 217.01 159.77 215.66 159.05 215.02 158.56 214.59 157.57 216.17 156.92 217.59 156.61 218.27 156.39 218.92 156.33 219.3 156.17 220.49 155.37 220.93 155.09 219.93 154.82 219 155.26 216.97 154.13 214.61 154.05 214.44 153.96 214.27 153.86 214.1L154.74 212.78C154.22 212.4 152.77 214.42 151.69 215.95 150.51 217.61 149.27 219.64 149.24 220.77 149.18 222.82 151.19 225.59 151.76 227.6 152.32 229.61 152.09 232.77 152.7 235.45 153.31 238.14 156.89 242.74 160.9 244.67 167.36 247.78 173.18 246.12 171.94 242.73Z" opacity="0.3"/><path d="M153.92 238.16C158.11 236.08 162.03 234.69 165.55 235.21 169.07 235.73 169.46 236.28 170.93 238.94 172.05 240.96 173.87 244.35 171.03 245.75 168.2 247.15 158.44 246.99 153.92 238.16Z" fill="#FAFAFA"/></g><g id="XMLID_55_"><path d="M224.64 101.5C227.29 118.48 223.31 141.84 218.69 153.96 214.36 165.3 210.45 171.37 209.07 173.73 207.69 176.09 169.09 213.02 169.09 213.02 169.09 213.02 162.6 213.48 159.03 205.58 159.03 205.58 175.25 179.94 178.76 174.28 182.28 168.61 194.01 158.22 194.01 158.22L195.89 104.68 224.64 101.5Z" id="XMLID_59_" fill="#37474F"/><path d="M209.05 129.52C209.05 129.52 212.31 126.78 216.72 120.69 223.13 111.83 223.12 104.28 223.12 104.28L219.52 103.97 181.78 103.97C180.78 116.14 180.35 122.04 181.26 128.08 183.84 145.12 195.08 177.15 195.08 177.15 194.88 179.51 196.28 188.9 198.53 197.71 202.09 211.6 208.16 233.21 208.16 233.21 208.16 233.21 216.46 233.43 219.24 229.12 219.24 229.12 216.5 184.93 215.05 172.7 213.49 159.47 209.05 129.52 209.05 129.52Z" id="XMLID_58_" fill="#37474F"/><path d="M226.01 107.3C226.01 107.3 226.54 113.51 226.01 114.19 225.48 114.87 218.44 120.23 208.17 121.66 197.89 123.09 184.85 119.81 180.55 117.14 180.2 116.49 180.4 110.65 180.4 110.65L226.01 107.3Z" fill="#27DEBF"/><path d="M226.01 107.3C226.01 107.3 226.54 113.51 226.01 114.19 225.48 114.87 218.44 120.23 208.17 121.66 197.89 123.09 184.85 119.81 180.55 117.14 180.2 116.49 180.4 110.65 180.4 110.65L226.01 107.3Z" opacity="0.3"/><path d="M213.83 163.11C213.83 163.11 210 133.45 209.05 129.51 209.05 129.51 214 128.53 216.18 126.04 216.18 126.04 215.41 128.19 211.7 130.88L213.83 163.11Z" id="XMLID_57_" fill="#263238"/><path d="M190.21 162.53 195.07 177.14C195.07 177.14 195.53 183.14 196.31 187.21L194.24 189.32C194.24 189.32 193.01 182.36 193.65 177.49L190.21 162.53Z" id="XMLID_56_" fill="#263238"/></g><g><path d="M282.61 86.99C281.85 87.16 281.09 87.32 280.32 87.46 279.3 87.65 278.26 87.76 277.24 87.94 276.92 88 275.86 87.99 275.65 88.16 276.95 87.08 277.96 86.2 278.49 85.43 279.54 83.91 278.9 82.63 278.39 82.21 277.99 81.88 277.26 82.94 275.39 83.85 273 85.02 270.86 85.05 268.67 86.91 267.95 87.52 266.75 87.95 264.92 87.81L243.15 85.18C243.15 85.18 233.04 66.59 228.33 59.34 223.62 52.1 220.89 46.02 212.76 46.48L214.44 67.12C214.44 67.12 226.34 85.37 232.88 94.69 235.08 97.83 237.02 98.48 240.49 98.44 244.55 98.39 242.97 98.92 260.4 98.17 266.32 97.88 271 98.02 274.16 98.24 277.69 98.48 281.09 98.52 284.16 96.47 285.84 95.35 287.18 93.59 287.43 91.58 287.54 90.74 287.46 89.84 287.85 89.08 288.07 88.64 288.44 88.29 288.71 87.88 288.99 87.47 289.18 86.95 289 86.49 288.82 86.03 288.31 85.77 287.82 85.74 287.33 85.71 286.84 85.85 286.37 86 285.14 86.37 283.88 86.7 282.61 86.99Z" fill="#B16668"/><path d="M214.94 46.53C218.77 46.7 220.19 47.28 223.91 51.91 227.63 56.54 243.47 84.7 243.47 84.7L256.56 86.61C256.56 86.61 255.31 94.21 256.56 98.45 256.56 98.45 243.4 99.17 239.41 99.08 235.42 98.99 235.32 98.79 231.82 94.41 228.32 90.03 214.49 69.94 214.49 69.94L214.94 46.53Z" fill="#27DEBF"/><path d="M214.94 46.53C218.77 46.7 220.19 47.28 223.91 51.91 227.63 56.54 243.47 84.7 243.47 84.7L256.56 86.61C256.56 86.61 255.31 94.21 256.56 98.45 256.56 98.45 243.4 99.17 239.41 99.08 235.42 98.99 235.32 98.79 231.82 94.41 228.32 90.03 214.49 69.94 214.49 69.94L214.94 46.53Z" opacity="0.3"/><path d="M256.56 86.61 264.36 87.75C264.36 87.75 263.6 94.5 264.39 98.11L256.56 98.44C256.56 98.44 255.69 96.2 255.83 92.25 255.97 88.3 256.56 86.61 256.56 86.61Z" fill="#455A64"/></g><g><path d="M224.13 66.7C223.6 59.7 223.54 47.12 212.77 46.49L194.71 47.45C194.71 47.45 188.03 48.39 183.48 49.54 178.75 50.63 177.75 62.2 179.67 81.25L180.39 110.67C190.17 114.83 211.89 117.35 226.01 107.31 230.27 104.39 224.84 76.03 224.13 66.7Z" id="XMLID_54_" fill="#27DEBF"/></g><g id="XMLID_38_"><g id="XMLID_46_"><path d="M215.47 24.75 212.88 35.3C212.26 37.74 210.84 38.99 208.32 38.99L204.94 38.99 204.94 23.08 215.47 24.75Z" id="XMLID_53_" fill="#263238"/><circle cx="192.62" cy="17.98" r="12.22" id="XMLID_52_" fill="#263238"/><path d="M212.22 12.3C212.22 12.3 214.38 11.93 216.07 13.65 217.72 15.34 217.48 20.19 215.01 26.73L210.97 26.24 212.22 12.3Z" id="XMLID_51_" fill="#263238"/><path d="M209.82 26.24C210.58 26.69 211.66 25.24 212.59 24.26 213.52 23.28 216.58 21.95 218.1 25.15 219.65 28.42 216.97 31.96 214.64 32.92 211.38 34.27 210.19 32.2 210.19 32.2L210.19 46.45C214.03 50.95 201.28 55.2 194.67 47.95L194.68 42.53C194.68 42.53 192.12 42.82 190.17 42.72 187.45 42.58 185.04 42.78 183.55 38.43 181.92 33.67 181.35 24.81 182.86 15.97 184.79 4.64 198.23 4.75 205.4 9.26 212.56 13.76 209.82 26.24 209.82 26.24Z" id="XMLID_50_" fill="#B16668"/><g><path d="M208.29 57.37C207.34 55.58 204.41 52.7 200.27 50.21 196.13 47.72 194.68 46.33 194.68 46.33L194.68 43.54C194.68 43.54 184.11 43.54 180.06 46.66 176.53 49.37 176.54 51.34 176.54 51.34 176.54 51.34 179.04 49.16 184.22 49.22 187.62 48.36 187.83 48.58 189.45 48.58 191.07 48.58 199.17 52.54 201.66 53.52 204.15 54.49 208.29 57.37 208.29 57.37Z" fill="#455A64"/><path d="M208.29 57.37C210.96 53.68 210.2 46.44 210.2 46.44L210.21 43.27C210.21 43.27 212.58 43.71 213.35 44.07 214.11 44.43 215.16 46.4 215.16 46.4 215.16 46.4 212.77 53.78 208.29 57.37Z" fill="#455A64"/></g><path d="M210.04 27.76C211.06 26.81 211.79 24.99 212.6 24.26 213.91 23.07 213.1 11.37 213.1 11.37 212.77 6.96 208.84 4.3 204.78 3.65 202.43 3.27 200.03 3.36 197.66 3.21 193.74 2.97 189.87 2.1 186.23 0.63 185.57 0.36 184.91 0.08 184.2 0.01 183.49-0.06 182.72 0.15 182.28 0.7 181.9 1.18 181.83 1.84 181.84 2.46 181.86 4.25 182.39 6.03 183.34 7.54 182.73 7.57 182.18 7.21 181.62 6.97 181.06 6.73 180.31 6.64 179.92 7.11 179.56 7.53 179.68 8.16 179.85 8.68 182.77 17.64 193.41 18.52 201.07 15.74 201.48 15.59 201.89 15.43 202.29 15.25 202.43 17.6 204.24 19.76 206.54 20.3 206.17 22.01 206.14 23.8 206.44 25.53 206.55 26.19 206.72 26.86 207.1 27.41 207.48 27.96 208.1 28.38 208.77 28.37 209.24 28.35 209.66 28.11 210.04 27.76Z" id="XMLID_49_" fill="#263238"/><path d="M212.21 13.13 216.79 10.67C216.14 9.36 214.59 8.84 213.32 9.52 212.06 10.21 211.56 11.82 212.21 13.13Z" id="XMLID_48_" fill="#263238"/><path d="M194.68 42.52C194.68 42.52 201.39 41.05 203.77 39.79 205.36 38.94 207.5 34.75 207.88 33.82 207.88 33.82 206.87 38.34 205.45 40.16 203.71 42.38 194.67 44.34 194.67 44.34L194.67 42.52Z" id="XMLID_47_" fill="#9A4A4D"/></g><g id="XMLID_39_"><path d="M195.56 24.98C195.56 25.76 196.17 26.39 196.92 26.39 197.67 26.39 198.28 25.75 198.28 24.97 198.28 24.19 197.67 23.56 196.92 23.56 196.17 23.57 195.56 24.2 195.56 24.98Z" id="XMLID_45_" fill="#263238"/><path d="M197.01 19.84 199.92 21.45C200.35 20.61 200.05 19.57 199.24 19.13 198.44 18.69 197.44 19.01 197.01 19.84Z" id="XMLID_44_" fill="#263238"/><path d="M195.22 34.29 191.67 35.62C192.02 36.64 193.1 37.17 194.08 36.8 195.06 36.43 195.57 35.31 195.22 34.29Z" id="XMLID_43_" fill="#9A4A4D"/><path d="M183.69 21.31 186.35 19.26C185.81 18.5 184.77 18.34 184.04 18.91 183.3 19.47 183.15 20.55 183.69 21.31Z" id="XMLID_42_" fill="#263238"/><path d="M184.5 24.53C184.5 25.31 185.11 25.94 185.86 25.94 186.61 25.94 187.22 25.3 187.22 24.52 187.22 23.74 186.61 23.11 185.86 23.11 185.11 23.11 184.5 23.75 184.5 24.53Z" id="XMLID_41_" fill="#263238"/><path d="M191.02 23.74 190.83 31.94 186.51 30.62Z" id="XMLID_40_" fill="#9A4A4D"/></g></g><g><path d="M219.98 126.25C218.18 126.02 216.5 125.59 214.78 125.05 214.69 125.02 214.6 124.99 214.53 124.94 214.07 124.57 214.93 124.6 215.08 124.58 215.5 124.51 215.93 124.43 216.34 124.31 217.15 124.09 217.94 123.75 218.6 123.22 219.03 122.87 219.42 122.4 219.55 121.85 219.64 121.43 219.79 120.84 219.43 120.51 219.15 120.25 218.71 120.26 218.33 120.29 217.34 120.36 216.35 120.4 215.37 120.42 212.9 120.47 210.42 120.37 207.96 120.11 206.9 120 205.75 119.88 204.77 119.44 204.23 119.19 203.26 118.73 202.8 118.35 200.3 116.28 197.79 114.21 195.29 112.15 192.94 110.21 190.59 108.27 188.23 106.34 187.19 105.49 186.13 104.36 184.96 103.68 184.58 103.46 188.11 67.87 188.11 67.87 188.11 67.87 189.36 52.76 183.48 49.55 178.05 50.44 173.49 53.73 172.32 63.75 171.15 73.76 170.07 100.87 170.14 104.58 170.19 107.13 169.65 109.7 174.38 113.16 179.38 116.82 179.9 117.06 196.87 127.26 199.89 129.2 204.04 131.97 206.63 133.12 215.61 137.11 219.81 136.41 222.66 133.28 223.49 132.37 223.88 131.22 224.66 130.28 225.09 129.76 225.62 129.31 225.91 128.69 226.2 128.08 226.14 127.22 225.56 126.88 225.29 126.72 224.97 126.7 224.65 126.68 223.09 126.56 221.53 126.45 219.98 126.25Z" fill="#B16668"/><path d="M184.37 49.32C182.09 49.27 176.5 49.28 173.36 55.72 170.21 62.15 170.57 66.87 170.14 75.07 169.71 83.27 169.08 105.55 169.4 108.23 169.72 110.91 173.58 113.47 176.45 115.23 180.74 117.86 188.36 122.13 188.36 122.13 189.14 118.85 192.49 113.76 195.86 112.61L185.78 103.04 188.95 69.95C188.95 69.94 191.43 55.21 184.37 49.32Z" fill="#27DEBF"/><path d="M184.37 49.32C182.09 49.27 176.5 49.28 173.36 55.72 170.21 62.15 170.57 66.87 170.14 75.07 169.71 83.27 169.08 105.55 169.4 108.23 169.72 110.91 173.58 113.47 176.45 115.23 180.74 117.86 188.36 122.13 188.36 122.13 189.14 118.85 192.49 113.76 195.86 112.61L185.78 103.04 188.95 69.95C188.95 69.94 191.43 55.21 184.37 49.32Z" opacity="0.3"/><path d="M195.86 112.6C195.86 112.6 193.25 112.84 190.59 116.52 187.93 120.19 188.36 122.13 188.36 122.13L196.06 126.76C196.06 126.76 197.36 120.02 201.92 117.62L195.86 112.6Z" fill="#455A64"/><path d="M186.92 114.24C188.97 114.05 189.33 114.35 190.77 113.89 192.21 113.43 191.6 112.58 191.18 112.04 190.76 111.5 186.48 110.85 187.52 109.99 188.51 109.18 191.06 108.71 191.81 108.92L191.17 108.3C190.8 108.01 189.97 107.59 189.35 107.3 189.03 107.17 188.68 107.05 188.27 106.92 185.86 106.16 174.95 106.17 169.32 106.35 169.33 107.24 169.36 107.89 169.4 108.23 169.54 109.42 170.39 110.59 171.53 111.67 172.26 111.27 172.61 111.13 173.61 111.06 175.84 110.92 179.99 112.98 181.26 113.45 182.53 113.91 184.87 114.42 186.92 114.24Z" opacity="0.1"/></g></g><g id="Character_1_"><g><path d="M191.18 108.3 191.82 108.92C192.42 106.28 187.25 103.3 183.39 101.9 179.52 100.5 154.3 97.13 154.3 97.13 154.3 97.13 151.18 88.2 147.65 76.55 144.12 64.9 138.96 62.72 135.38 62.86L135.3 82.16C135.3 82.16 142.94 99.66 144.87 104.25 146.24 107.5 148.95 108.31 152.01 108.29 156.65 108.26 172.53 108.6 175.32 109.44 175.59 109.52 175.87 109.6 176.14 109.68L176.14 109.68C178.52 110.28 180.98 112.24 183.38 112.78 184.03 112.93 184.7 112.98 185.37 113.01 186.23 113.05 187.09 113.06 187.94 113.06 188.87 113.07 189.79 113.07 190.72 113.08 190.84 113.08 190.96 113.08 191.08 113.04 191.4 112.93 191.56 112.54 191.5 112.2 191.43 111.87 191.2 111.59 190.95 111.36 189.98 110.49 188.68 110.11 187.46 109.64 187.19 109.53 186.88 109.35 186.8 109.09 189.13 107.65 191.18 108.3 191.18 108.3Z" fill="#FFA8A7"/><path d="M134.42 62.16C134.42 62.16 138.54 62.23 141.15 64.31 143.76 66.39 145.64 69.64 147.16 73.74 148.68 77.84 154.68 96.56 154.68 96.56L168 99.09C168 99.09 166.94 104.51 167.21 108.67 167.21 108.67 152.9 108.59 149.5 108.67 146.1 108.75 145.78 107.29 143.6 103.39 141.42 99.48 133.71 82.25 133.71 82.25L134.42 62.16Z" fill="#27DEBF"/></g><g id="XMLID_23_"><g id="XMLID_24_"><g id="XMLID_25_"><g id="XMLID_33_"><path d="M135.06 258.77C135.11 260.82 137.03 265.95 137.03 265.95 137.03 265.95 138.35 267.54 141.65 267.95L140.99 260.26 135.06 258.77Z" id="XMLID_37_" fill="#263238"/><path d="M141.65 267.94 147.6 264.03 147.6 257.8 141.27 263.51Z" id="XMLID_36_"/><path d="M144.33 248.79 144.04 247.52C145.04 247.71 148.41 254.61 152.38 258.79 156.01 262.61 161.46 263.81 163.54 265.34 166.32 267.38 163.2 271.84 156.35 272.21 152.95 272.39 147.53 271.66 145.62 269.85 143.71 268.04 142.19 264.18 140.67 262.88 139.16 261.58 136.1 260.44 135.06 258.77 134.49 257.85 134.4 255.58 134.47 253.63 134.53 251.84 134.59 249.88 135.2 249.9 135.25 250.11 135.47 250.96 135.47 250.96 135.77 251.8 137 252.56 140.5 251.77 142.08 251.43 144.81 250.51 144.33 248.79Z" id="XMLID_35_" fill="#27DEBF"/><path d="M144.33 248.79 144.04 247.52C145.04 247.71 148.41 254.61 152.38 258.79 156.01 262.61 161.46 263.81 163.54 265.34 166.32 267.38 163.2 271.84 156.35 272.21 152.95 272.39 147.53 271.66 145.62 269.85 143.71 268.04 142.19 264.18 140.67 262.88 139.16 261.58 136.1 260.44 135.06 258.77 134.49 257.85 134.4 255.58 134.47 253.63 134.53 251.84 134.59 249.88 135.2 249.9 135.25 250.11 135.47 250.96 135.47 250.96 135.77 251.8 137 252.56 140.5 251.77 142.08 251.43 144.81 250.51 144.33 248.79Z" id="XMLID_34_" opacity="0.4"/></g><g id="XMLID_28_"><path d="M71.15 226.32C70.23 227.93 69.52 238.54 69.52 238.54 69.52 238.54 72.43 241.9 74 242.84L77.5 232.5 71.15 226.32Z" id="XMLID_32_" fill="#263238"/><path d="M73.99 242.84 82.26 239.93 84.66 233.03 76.11 236.5Z" id="XMLID_31_"/><path d="M77.16 219.85C76.56 219.31 75.8 220.45 74.28 222.16 73.21 223.36 71.85 224.86 71.23 226.11 70.36 227.86 72.91 231.72 74.57 233.82 76.32 236.05 76.66 237.94 77.02 241.16 77.45 245.06 77.02 247.51 82.2 250.43 86.35 252.77 94.19 252.39 95.72 250.58 98.33 247.51 91.06 244.52 89.31 239.04 86.89 231.46 86.55 230.2 86.17 224.76L77.16 219.85Z" id="XMLID_30_" fill="#27DEBF"/><path d="M77.16 219.85C76.56 219.31 75.8 220.45 74.28 222.16 73.21 223.36 71.85 224.86 71.23 226.11 70.36 227.86 72.91 231.72 74.57 233.82 76.32 236.05 76.66 237.94 77.02 241.16 77.45 245.06 77.02 247.51 82.2 250.43 86.35 252.77 94.19 252.39 95.72 250.58 98.33 247.51 91.06 244.52 89.31 239.04 86.89 231.46 86.55 230.2 86.17 224.76L77.16 219.85Z" id="XMLID_29_" opacity="0.4"/></g><path d="M141.88 110.67C138.38 113.11 135.25 117.13 118.96 115.54L117.04 166.12C117.04 166.12 104.04 175.18 100.38 181.09 96.71 187 79.54 216.38 79.54 216.38L79.54 216.38 77.07 219.99C75.54 222.23 76.32 224.03 78.56 225.56 80.71 226.96 83.4 227.81 85.13 225.92L87.25 223.61C87.25 223.61 129.25 182.86 130.68 180.41 132.12 177.95 135.31 171.89 138.14 159.55 141.77 143.7 142.52 127.97 141.88 110.67Z" id="XMLID_27_" fill="#FFA8A7"/><path d="M140.73 143.25C140.29 148.4 139.5 153.64 138.15 159.53 135.33 171.87 132.13 177.93 130.69 180.39 130.46 180.78 129.2 182.15 127.25 184.16L127.25 184.16C124.27 187.23 119.68 191.81 114.66 196.78 114.91 190.48 115.91 183.4 115.91 183.4 113.55 180.32 110.34 175.14 108.73 172.5 108.74 172.49 108.75 172.49 108.76 172.48 109 172.28 109.25 172.07 109.49 171.87 109.55 171.82 109.6 171.78 109.66 171.74 109.86 171.58 110.05 171.42 110.24 171.26 110.31 171.2 110.38 171.15 110.45 171.09 110.63 170.94 110.81 170.8 110.99 170.66 111.06 170.61 111.13 170.55 111.2 170.5 111.37 170.36 111.55 170.23 111.72 170.09 111.79 170.04 111.86 169.98 111.93 169.93 112.1 169.79 112.27 169.66 112.44 169.53 112.5 169.49 112.56 169.44 112.61 169.4 112.8 169.26 112.98 169.11 113.16 168.98 113.19 168.96 113.23 168.93 113.26 168.91 113.47 168.75 113.68 168.59 113.87 168.45 113.87 168.45 113.88 168.44 113.88 168.44 114.3 168.13 114.68 167.84 115.03 167.58 115.05 167.57 115.06 167.56 115.07 167.55 115.22 167.44 115.37 167.33 115.51 167.23 115.54 167.21 115.58 167.18 115.61 167.16 115.72 167.08 115.83 167 115.93 166.93 115.97 166.9 116.01 166.87 116.05 166.84 116.14 166.77 116.23 166.71 116.31 166.65 116.34 166.63 116.36 166.61 116.39 166.59 116.47 166.53 116.55 166.48 116.61 166.43 116.63 166.42 116.65 166.4 116.67 166.38 116.73 166.33 116.79 166.29 116.84 166.26 116.85 166.25 116.86 166.24 116.87 166.24 116.92 166.2 116.96 166.17 116.99 166.15 116.99 166.15 117 166.15 117 166.14 117.03 166.12 117.04 166.11 117.04 166.11L118.36 133.67 140.73 143.25Z" fill="#F28F8F"/><path d="M144.76 249.77 144.62 248.82C142.9 240.31 138.71 192.92 137.2 180.17 135.57 166.37 129.23 133.21 129.23 133.21 129.23 133.21 137.28 117.02 141.88 110.67 134.81 112.43 116.24 113.74 102.64 110.78 103.22 115.5 101.34 124.31 100.96 134.79 100.3 152.97 118.61 183.4 118.61 183.4 118.4 185.86 117.36 196.22 119.71 205.4 123.42 219.88 133.66 245.08 134.84 248.58L135.65 251.55C137.51 253.29 143.89 252.27 144.76 249.77Z" id="XMLID_26_" fill="#FFA8A7"/></g></g><path d="M102.64 110.82C102.52 113.7 96.81 127.33 96.96 147.72 97.02 156.15 101.35 182.18 97.48 200.37 96.75 203.81 89.02 229.43 89.02 229.43 89.02 229.43 92.74 249.32 117.5 254.07 135.61 257.54 143.19 240.12 143.19 240.12 143.19 240.12 146.03 189.78 146.05 172.22 146.07 150.95 141.89 110.68 141.89 110.68L102.64 110.82Z" stroke="#000000" stroke-miterlimit="10" fill="#2D2121"/><path d="M127.75 241.53 88.75 229.53 76.75 212.53 98.02 161.61" stroke="#000000" stroke-miterlimit="10" fill="#2D2121"/></g><g id="XMLID_19_"><g id="XMLID_21_"><path d="M143.45 93.66C143.17 96.79 142.48 106.21 141.88 110.66 134.3 117.29 108.84 116.88 102.64 110.77L102.42 92.25C102.42 92.25 102.06 87.97 102.08 87.96 102.44 87.35 113.54 76.98 106.48 63.67L116.85 62.16 130.13 62.39C133.19 62.56 135.38 62.86 135.38 62.86 137.34 64.7 140 68.74 142.65 74.01 144.23 77.19 148.94 84.18 143.45 93.66Z" id="XMLID_22_" fill="#27DEBF"/></g><path d="M143.45 93.66C143.17 96.79 142.48 106.21 141.88 110.66 134.3 117.29 108.84 116.88 102.64 110.77L102.42 92.25C102.42 92.25 102.06 87.97 102.08 87.96 102.44 87.35 113.54 76.98 106.48 63.67L116.85 62.16 130.13 62.39C133.19 62.56 135.38 62.86 135.38 62.86 137.34 64.7 140 68.74 142.65 74.01 144.23 77.19 148.94 84.18 143.45 93.66Z" id="XMLID_20_" fill="#FFFFFF" opacity="0.6"/></g><g><path d="M80.5 128.8C80.37 132.39 80.11 137.22 80.44 140.03 81.57 149.8 84.31 153.05 88.44 153.91 95.04 155.28 95.43 152.79 93.03 148.09 91.26 144.62 90.91 141.55 90.91 141.55 92.08 142.72 93.03 143.61 93.82 144.06 95.39 144.94 96.57 144.2 96.93 143.66 97.21 143.24 96.12 142.63 95.06 140.9 93.71 138.69 93.48 136.62 91.47 134.66 90.72 133.93 90.62 132.76 90.5 131.72 90.35 130.33 93.8 108.91 95.09 105.33L104.33 85.19C106.96 79.81 113.53 67.64 106.91 63.29 97.79 63.02 94.95 71.04 84.28 96.57 82.38 101.16 80.77 121.38 80.5 128.8Z" id="XMLID_18_" fill="#FFA8A7"/><path d="M90.87 128.3C90.87 128.3 94.37 108.71 95.55 105.75 96.73 102.8 108.6 78.68 108.6 78.68 108.6 78.68 111.97 68.14 109.07 63.59 109.07 63.59 102.61 62.29 99.26 65.61 95.91 68.93 90.51 79.88 86.46 89.74 82.41 99.6 82.11 104.17 81.28 110.81 80.45 117.44 80.48 129.38 80.48 129.38 80.48 129.38 84.15 127.4 90.87 128.3Z" fill="#27DEBF"/></g><g id="XMLID_1_"><path d="M125.56 16.51C127.72 20.25 125.41 25.62 120.4 28.52 115.39 31.41 109.58 30.72 107.42 26.99 105.26 23.25 107.57 17.88 112.58 14.98 117.59 12.08 123.4 12.77 125.56 16.51Z" fill="#E0E0E0"/><path d="M125.56 16.51C127.72 20.25 125.41 25.62 120.4 28.52 115.39 31.41 109.58 30.72 107.42 26.99 105.26 23.25 107.57 17.88 112.58 14.98 117.59 12.08 123.4 12.77 125.56 16.51Z" opacity="0.05"/><path d="M118.54 56.01C115.81 56.01 112.29 55.21 108.77 50.54 105.63 46.37 103.38 39.29 107.98 31.36 111.97 24.48 124.32 15.67 135.29 18.47 143.38 20.53 146.61 27.49 147.06 30.55 147.51 33.6 146.4 38.53 143.01 42.26 139.77 45.83 118.54 56.01 118.54 56.01Z" fill="#E0E0E0"/><path d="M118.54 56.01C115.81 56.01 112.29 55.21 108.77 50.54 105.63 46.37 103.38 39.29 107.98 31.36 111.97 24.48 124.32 15.67 135.29 18.47 143.38 20.53 146.61 27.49 147.06 30.55 147.51 33.6 146.4 38.53 143.01 42.26 139.77 45.83 118.54 56.01 118.54 56.01Z" fill="#E0E0E0"/><g id="XMLID_16_"><path d="M139.83 29.92C141.25 31.46 143.25 32.9 142.99 44.18 142.77 53.73 139.1 56.16 137.54 56.84 135.99 57.52 132.99 57.11 130.07 56.62L130.07 62.35C130.07 62.35 131.21 65.3 125.99 65.6 118.06 66.06 116.84 62.76 116.84 62.76L116.79 51.42C116.79 51.42 114.56 52.21 112.08 49.27 110.02 46.83 109.54 43.07 111.41 41.17 113.28 39.27 116.74 39.79 118.07 42.5 118.07 42.5 119.92 32.35 126.77 30.62 133.49 28.91 135.56 35.71 139.83 29.92Z" id="XMLID_17_" fill="#FFA8A7"/></g><g><path d="M127.34 40.38C127.12 40.13 126.73 40.06 126.42 40.04 126.28 40.03 126.14 40.03 126 40.04 125.9 40.05 125.81 40.06 125.71 40.08 125.69 40.08 125.68 40.09 125.66 40.09 125.63 40.1 125.6 40.11 125.57 40.13 125.49 40.18 125.48 40.25 125.45 40.32 125.38 40.46 125.51 40.72 125.68 40.73 125.68 40.73 125.96 40.75 125.83 40.75 125.89 40.75 125.92 40.76 125.97 40.76 126 40.76 126.04 40.76 126.07 40.75 126.12 40.75 126.17 40.74 126.22 40.74 126.33 40.73 126.44 40.73 126.55 40.73 126.55 40.73 126.55 40.73 126.55 40.73 126.55 40.73 126.55 40.73 126.56 40.73 126.61 40.73 126.66 40.73 126.72 40.74 126.77 40.74 126.81 40.74 126.86 40.75 126.9 40.75 126.94 40.76 126.98 40.76 127.04 40.77 127.13 40.77 127.19 40.79 127.29 40.82 127.39 40.8 127.43 40.7 127.46 40.6 127.41 40.47 127.34 40.38Z" fill="#F28F8F"/><path d="M127.13 41.39C127.01 41.38 126.91 41.39 126.8 41.43 126.75 41.45 126.7 41.47 126.65 41.48 126.64 41.48 126.62 41.49 126.62 41.49 126.6 41.5 126.57 41.5 126.55 41.51 126.5 41.52 126.45 41.53 126.4 41.54 126.16 41.59 125.91 41.57 125.69 41.68 125.6 41.72 125.61 41.88 125.63 41.95 125.66 42.05 125.75 42.17 125.86 42.2 126.02 42.25 126.18 42.25 126.35 42.23 126.45 42.22 126.55 42.2 126.65 42.18 126.77 42.15 126.89 42.12 127 42.08 127.04 42.06 127.08 42.04 127.12 42.02 127.16 42 127.2 41.98 127.23 41.95 127.33 41.88 127.33 41.77 127.35 41.67 127.36 41.56 127.25 41.4 127.13 41.39Z" fill="#F28F8F"/><path d="M142.48 39.45C142.39 39.32 142.24 39.24 142.09 39.34 142.01 39.37 141.93 39.4 141.86 39.43 141.71 39.48 141.55 39.52 141.4 39.57 141.37 39.58 141.34 39.59 141.32 39.61 141.27 39.66 141.29 39.74 141.33 39.8 141.46 40 141.7 39.98 141.91 39.97 142.1 39.96 142.31 39.94 142.48 39.84 142.53 39.81 142.56 39.73 142.56 39.67 142.55 39.6 142.53 39.52 142.48 39.45Z" fill="#F28F8F"/><path d="M142.57 41.1C142.57 41.08 142.56 41.07 142.55 41.05 142.55 41.04 142.54 41.03 142.53 41.02 142.52 41 142.51 40.98 142.49 40.96 142.48 40.95 142.48 40.93 142.46 40.92 142.45 40.91 142.44 40.91 142.43 40.9 142.4 40.87 142.36 40.84 142.31 40.82 142.3 40.81 142.29 40.81 142.28 40.8 142.22 40.76 142.16 40.73 142.09 40.69 141.92 40.59 141.73 40.49 141.55 40.43 141.41 40.38 141.23 40.51 141.26 40.66 141.28 40.74 141.33 40.8 141.39 40.85 141.5 40.95 141.61 41.01 141.74 41.09 141.76 41.11 141.79 41.12 141.81 41.14 141.94 41.23 142.08 41.3 142.22 41.37 142.35 41.44 142.54 41.38 142.56 41.22 142.58 41.19 142.58 41.14 142.57 41.1Z" fill="#F28F8F"/><path d="M130.47 49.25C130.46 49.28 130.46 49.28 130.45 49.29 130.45 49.29 130.45 49.28 130.46 49.28L130.47 49.25Z" fill="#F28F8F"/><path d="M130.83 48.47C130.82 48.37 130.8 48.22 130.68 48.19 130.69 48.19 130.68 48.19 130.68 48.19 130.67 48.19 130.66 48.18 130.65 48.18 130.6 48.17 130.55 48.17 130.5 48.18 130.44 48.19 130.39 48.21 130.34 48.24 130.27 48.28 130.19 48.31 130.14 48.36 130.11 48.39 130.09 48.42 130.06 48.45 130 48.53 129.95 48.61 129.91 48.7 129.89 48.75 129.87 48.81 129.87 48.87 129.87 48.89 129.87 48.91 129.87 48.93 129.87 48.96 129.87 48.99 129.87 49.02 129.88 49.07 129.89 49.11 129.92 49.15 129.93 49.19 129.94 49.22 129.96 49.26 130 49.34 130.07 49.42 130.16 49.46L130.21 49.48C130.27 49.5 130.32 49.47 130.36 49.4 130.44 49.34 130.45 49.32 130.46 49.3 130.45 49.31 130.44 49.32 130.43 49.34 130.48 49.29 130.5 49.24 130.52 49.17 130.52 49.18 130.52 49.19 130.51 49.2 130.51 49.19 130.51 49.18 130.52 49.17 130.52 49.17 130.52 49.17 130.52 49.17 130.52 49.16 130.52 49.15 130.53 49.14 130.54 49.11 130.55 49.08 130.55 49.05 130.54 49.08 130.54 49.1 130.53 49.13 130.55 49.05 130.58 48.98 130.63 48.91 130.66 48.87 130.68 48.84 130.71 48.8L130.67 48.86C130.69 48.83 130.71 48.81 130.73 48.78 130.75 48.76 130.79 48.72 130.8 48.69 130.83 48.62 130.83 48.54 130.83 48.47Z" fill="#F28F8F"/><path d="M130.47 49.27C130.47 49.27 130.46 49.28 130.46 49.28 130.46 49.29 130.45 49.3 130.45 49.31 130.46 49.3 130.46 49.29 130.47 49.27Z" fill="#F28F8F"/></g><g><g id="XMLID_14_"><path d="M130.95 40.64C131.02 41.33 130.54 41.93 129.88 42 129.22 42.06 128.63 41.56 128.56 40.87 128.49 40.18 128.97 39.58 129.63 39.51 130.29 39.45 130.88 39.95 130.95 40.64Z" id="XMLID_15_" fill="#263238"/></g><g id="XMLID_12_" opacity="0.5"><path d="M131.55 49.14 135.04 50.07C134.8 51.07 133.83 51.67 132.87 51.41 131.9 51.15 131.31 50.13 131.55 49.14Z" id="XMLID_13_" fill="#FFA8A7"/></g><g id="XMLID_10_"><path d="M141.43 37.01 138.73 35.81C139.04 35.05 139.89 34.69 140.64 35.03 141.37 35.35 141.73 36.24 141.43 37.01Z" id="XMLID_11_" fill="#E0E0E0"/></g><g id="XMLID_8_"><path d="M129.54 36.59 127.01 38.12C126.56 37.43 126.76 36.53 127.45 36.11 128.16 35.69 129.09 35.9 129.54 36.59Z" id="XMLID_9_" fill="#E0E0E0"/></g><g id="XMLID_6_"><path d="M140.61 39.9C140.67 40.54 140.23 41.11 139.61 41.17 138.99 41.23 138.44 40.76 138.38 40.12 138.32 39.48 138.76 38.91 139.38 38.85 139.99 38.79 140.54 39.26 140.61 39.9Z" id="XMLID_7_" fill="#263238"/></g><g id="XMLID_4_" opacity="0.5"><path d="M135.41 40.04 136.04 48.31 140.33 46.74Z" id="XMLID_5_" fill="#FFA8A7"/></g></g><g id="XMLID_2_" opacity="0.5"><path d="M130.08 56.62C127.01 56.22 120.69 54.4 119.7 51.9 119.7 51.9 120.03 53.47 121.92 55.09 123.81 56.71 130.08 58.53 130.08 58.53L130.08 56.62Z" id="XMLID_3_" fill="#FFA8A7"/></g></g><g><path d="M116.84 62.16 112.26 62.83C112.26 62.83 129.97 87.08 134.55 99.06 134.55 99.06 136.26 71.43 131.49 62.48L130.07 62.35 130.07 61.49C130.07 61.49 136.96 61.95 139.49 62.85 143.59 64.31 147.21 69.38 150.84 83.32 150.84 83.32 143.98 98.3 134.65 103 134.65 103 100.11 96.2 87.9 84.66 87.9 84.66 92.58 74.3 95.64 69.09 97.6 65.75 100.18 63.75 105.27 62.86 110.36 61.97 116.84 61.5 116.84 61.5L116.84 62.16Z" fill="#455A64"/><path d="M133.47 101.89C132.23 102.25 130.65 103.65 130.58 106.49 130.51 109.33 129.97 110.64 129.97 110.64 129.97 110.64 132.86 110.09 134.1 106.39 135.13 103.34 134.81 101.5 133.47 101.89Z" fill="#455A64"/><path d="M135.75 100.8C136.99 101.16 138.57 102.56 138.64 105.4 138.71 108.24 139.25 109.55 139.25 109.55 139.25 109.55 136.36 109 135.12 105.3 134.08 102.25 134.41 100.41 135.75 100.8Z" fill="#455A64"/></g></g></svg>