<svg width="154.24" height="284.55" viewBox="0 0 154.24 284.55" xmlns="http://www.w3.org/2000/svg" xmlns:xlink="http://www.w3.org/1999/xlink" xml:space="preserve" overflow="hidden"><defs></defs><g><g><g><path d="M129.66 271.78C127.17 257.67 123.62 243.74 119.04 230.16 115.38 219.3 110.83 208.32 102.55 200.4 103.28 198.32 104.35 195.39 106.36 194.47 109.82 192.88 113.38 196.4 115.38 199.63 127.37 218.94 131.33 242.02 135.04 264.44 135.42 266.75 135.75 269.34 134.4 271.25 133.05 273.16 130.07 274.09 129.66 271.78Z" fill="#F5D4A1"/><path d="M129.41 271.07C128.27 269.13 128.24 266.09 127.85 264.16 127.04 260.14 126.14 256.13 125.15 252.14 123.27 244.53 121.07 237 118.56 229.58 116.39 223.15 113.96 216.76 110.56 210.87 108.8 207.82 106.79 204.92 104.45 202.29 103.43 201.14 99.35 195.95 104.18 196.29 105.73 196.4 106.9 197.67 107.87 198.88 109.93 201.45 111.83 204.16 113.42 207.05 115.63 211.08 117.21 215.42 118.67 219.78 121.57 228.42 124.03 237.2 126.06 246.09 127.09 250.62 128.01 255.18 128.82 259.76 129.46 263.38 131.23 268.76 130.51 272.28 130.05 271.97 129.7 271.55 129.41 271.07Z" fill="#F5D4A1"/><path d="M130.12 274.66C128.92 276.09 127.76 274.61 127.7 273.28 127.66 272.55 127.77 271.79 127.54 271.09 127.46 270.86 127.35 270.64 127.3 270.4 127.21 270.01 127.3 269.6 127.44 269.23 128.5 266.48 133.12 263.98 135.89 265.23 136.65 265.57 137.24 266.27 137.45 267.07 137.57 267.51 137.58 267.99 137.79 268.4 138.04 268.86 138.55 269.26 138.47 269.77 138.41 270.17 137.98 270.43 137.58 270.47 137.18 270.51 136.78 270.39 136.38 270.31 135.45 270.14 134.53 270.87 133.68 271.24 132.71 271.66 131.72 272.15 131.1 273.04 130.73 273.56 130.52 274.18 130.12 274.66Z" fill="#FFFFFF"/><path d="M128.87 283.6C128.56 283.4 128.32 283.12 128.21 282.75 128.12 282.43 128.15 282.08 128.19 281.74 128.63 277.42 128.23 273.37 132.41 270.92 132.88 270.64 133.38 270.39 133.92 270.28 134.67 270.13 135.45 270.25 136.21 270.27 138.88 270.31 141.39 268.94 143.41 267.19 145.43 265.45 147.09 263.32 149 261.46 149.7 260.77 150.67 260.07 151.58 260.45 152.11 260.67 152.44 261.19 152.67 261.71 154.05 264.74 153.29 268.4 151.5 271.21 147.83 276.95 137.77 283.96 130.81 284.06 130.16 284.06 129.4 283.94 128.87 283.6Z" fill="#3F4555"/><path d="M135.85 275.68C140.97 271.81 144.4 266.17 148.81 261.51 149.46 260.82 150.23 260.11 151.17 260.08 152.57 260.03 153.55 261.47 153.92 262.82 154.63 265.42 154.1 268.25 152.87 270.64 151.64 273.03 149.75 275.03 147.68 276.76 142.92 280.73 137.1 283.41 130.99 284.44 130.23 284.57 129.4 284.66 128.74 284.27 125.45 282.36 134.66 276.58 135.85 275.68Z" fill="#2A3035"/><path d="M127.6 282.34C127.74 281.55 128.28 280.89 128.85 280.32 130.52 278.65 132.6 277.47 134.51 276.09 139.69 272.35 143.65 267.22 147.7 262.29 148.33 261.52 148.99 260.74 149.88 260.29 150.77 259.85 151.95 259.83 152.66 260.53 151.67 260.09 150.48 260.38 149.58 260.99 148.68 261.6 148.02 262.49 147.38 263.36 142.88 269.41 138.05 275.49 131.52 279.27 130.52 279.85 129.44 280.41 128.79 281.36 128.14 282.31 128.11 283.82 129.06 284.47 128.29 283.94 127.36 283.65 127.6 282.34Z" fill="#FFFFFF"/></g><g><path d="M15.07 212.79C24.55 218.42 34.53 224.46 43.93 230.23 47.46 221.2 50.42 211.94 52.8 202.54 54.13 201.51 55.45 201.5 57.1 201.88 60.24 202.6 63.8 203.88 64.8 206.94 65.46 208.96 64.76 211.15 64.01 213.15 60.2 223.4 55.3 233.24 49.4 242.45 48.57 243.74 46.55 242.14 45.26 241.31 34.48 234.33 24.08 226.76 14.13 218.64 12.43 217.25 13.39 214.22 15.07 212.79Z" fill="#F5D4A1"/><path d="M15.2 213.16C17.4 213.47 22.57 217.25 23.49 217.81 25.36 218.93 44.35 229.71 44.1 230.33 46.26 224.8 48.21 219.18 49.94 213.5 50.64 211.22 52.21 199.57 55.5 200.03 56.58 200.18 57.39 201.17 57.67 202.23 57.94 203.29 57.78 204.4 57.6 205.48 57.13 208.15 56.5 210.79 55.7 213.39 54.39 217.62 52.65 221.7 50.92 225.78 49.68 228.69 48.44 231.59 47.21 234.5 47.07 234.82 46.91 235.17 46.6 235.33 46.23 235.52 45.78 235.37 45.39 235.2 42.23 233.88 39.34 232 36.47 230.13 31.38 226.82 26.29 223.5 21.2 220.19 20.12 219.49 13.07 215.2 14.34 213.42 14.48 213.17 14.79 213.11 15.2 213.16Z" fill="#F5D4A1"/><g><path d="M1.26 228.89C1.01 232.57 0.82 237.8 2.65 241.19 3.08 241.99 3.9 242.64 4.81 242.6 5.33 242.58 5.81 242.34 6.23 242.04 8.78 240.26 9.41 236.82 9.84 233.74 10.4 229.67 12.42 225.67 13.57 221.75 14.56 218.39 17.51 210.12 14.66 207.16 13.53 205.99 11.67 205.78 10.12 206.26 2.41 208.59 1.7 222.24 1.26 228.89Z" fill="#3F4555"/><path d="M14.99 210.65C17.04 210.72 18.18 212.72 18.15 214.58 17.83 214.29 17.33 214.21 16.93 214.38 16.77 214.45 16.64 214.55 16.5 214.66 15.17 215.73 15.42 217.41 15.41 218.94 15.41 219.24 15.41 219.56 15.58 219.8 15.71 219.99 15.92 220.1 16.12 220.21 16.01 220.56 15.73 220.84 15.41 221.02 15.09 221.2 14.73 221.29 14.36 221.34 14.06 221.38 13.76 221.41 13.47 221.33 12.98 221.21 12.66 220.72 12.38 220.34 11.13 218.66 10.32 216.54 10.69 214.48 11.06 212.42 12.9 210.57 14.99 210.65Z" fill="#FFFFFF"/><path d="M5.2 213.08C2.29 221.38 1.5 230.41 2.94 239.08 3.09 239.99 3.29 240.95 3.92 241.63 4.54 242.31 5.74 242.55 6.38 241.89 6.08 242.98 4.74 243.54 3.64 243.27 2.54 243 1.69 242.09 1.15 241.1-0.01 238.97-0.02 236.43 0.02 234.01 0.16 225.41 0.73 216.39 5.26 209.08 6.21 207.55 7.37 206.08 9 205.31 11.09 204.32 13.7 204.9 14.56 207.15 14.4 206.73 13.9 206.57 13.47 206.46 12.36 206.18 11.18 205.9 10.08 206.23 8.82 206.6 7.84 207.98 7.14 209.03 6.28 210.27 5.7 211.67 5.2 213.08Z" fill="#FFFFFF"/></g></g><path d="M46.1 203.59C48.79 186.37 50.29 168.96 50.58 151.54 61.57 155.85 73.73 155.81 85.03 152.37 88.76 151.23 92.39 149.66 95.54 147.37 95.91 147.1 96.1 146.99 96.41 146.65 104.58 161.87 112.75 177.09 120.93 192.31 118.7 194.14 116.44 196 114.21 197.83 109.76 201.47 105.3 205.11 100.62 208.46 97.27 199.91 92.1 192.05 86.1 185.09 83.49 185.95 80.08 186.53 77.35 186.73 75.61 195.59 73.63 203.87 71.89 212.73 71.52 214.59 68.46 213.52 66.59 213.21 58.64 211.85 51.78 209.29 46.1 203.59Z" fill="#484F57"/><path d="M46.03 203.59C48.72 186.37 50.22 168.96 50.51 151.54 50.47 153.69 69.53 155.46 71.76 155.75 72.48 155.84 73.24 155.95 73.8 156.41 74.49 156.98 74.7 157.92 74.86 158.8 76 165.1 76.23 172.11 72.54 177.33 70.8 179.79 68.3 181.68 66.91 184.35 64.86 188.28 65.63 193.02 66.34 197.4 66.93 201 67.69 205.63 65.87 209.02 63.72 213.01 59.2 211.68 55.74 210.17 54.3 209.54 45.74 205.46 46.03 203.59Z" fill="#484F57" opacity="0.2"/><g><g><path d="M84.17 159.13C84.97 161.07 85.55 163.11 85.99 165.17 86.44 167.23 86.69 169.33 86.81 171.44 86.91 173.55 86.88 175.67 86.64 177.76 86.52 178.81 86.37 179.85 86.19 180.89 85.97 181.92 85.75 182.95 85.45 183.96 85.49 183.43 85.53 182.91 85.59 182.39L85.7 180.83C85.78 179.79 85.84 178.75 85.87 177.71 85.92 175.63 85.92 173.56 85.81 171.49 85.72 169.42 85.5 167.36 85.24 165.3 84.96 163.24 84.57 161.19 84.17 159.13Z" fill="#3A4047"/></g><g><path d="M73.56 162.76C74.88 164.66 75.7 166.86 76.17 169.12 76.61 171.38 76.71 173.73 76.23 175.99 75.92 173.71 75.64 171.5 75.19 169.31 74.76 167.12 74.16 164.98 73.56 162.76Z" fill="#3A4047"/></g><g><path d="M49.32 170.11C51.2 170.4 52.92 169.53 54.31 168.44 55.01 167.87 55.65 167.25 56.22 166.55 56.81 165.86 57.36 165.14 57.84 164.37 58.84 162.86 59.62 161.21 60.24 159.49 60.84 157.77 61.25 155.97 61.47 154.11 61.64 155.97 61.48 157.88 60.98 159.72 60.5 161.56 59.71 163.32 58.68 164.92 57.63 166.5 56.38 167.99 54.77 169.08 53.98 169.62 53.09 170.05 52.14 170.27 51.2 170.46 50.2 170.45 49.32 170.11Z" fill="#3A4047"/></g><g><path d="M89.63 149.85C91.05 153.32 92.95 156.5 95.44 159.19 96.67 160.52 98.08 161.7 99.73 162.35 101.37 162.96 103.31 163.09 104.99 162.21 103.52 163.43 101.34 163.65 99.48 163.09 97.58 162.53 96 161.26 94.7 159.87 92.13 157.06 90.29 153.55 89.63 149.85Z" fill="#3A4047"/></g></g></g><g><path d="M128.87 115.01C122.33 120.41 115.28 125.2 108.64 130.29 105.16 122.93 102.64 114.97 99.45 107.45 96.69 108.61 93.58 109.98 92.73 112.85 92.25 114.46 92.59 116.19 92.97 117.83 95.34 127.97 99.53 138.12 107.36 144.99 112.35 145.3 117.79 136.96 120.5 133.68 124.79 128.49 129.08 123.29 133.37 118.1 132.6 116.46 131.83 114.81 131.06 113.17 130.33 113.79 129.6 114.41 128.87 115.01Z" fill="#F5D4A1"/><path d="M131.65 118.5C131.61 118.53 131.58 118.56 131.55 118.59 126.56 123.32 122.77 129.15 118.43 134.48 116.14 137.29 113.57 140.06 110.22 141.46 109.58 141.73 108.89 141.94 108.21 141.83 107.21 141.67 106.46 140.87 105.82 140.08 99.44 132.28 96.2 122.3 94.86 112.31 94.76 111.58 94.44 110.64 93.71 110.68 92.67 110.74 92.84 112.19 92.64 112.86 92.16 114.47 92.5 116.2 92.88 117.84 95.25 127.98 99.44 138.13 107.27 145 112.26 145.31 117.7 136.97 120.41 133.69 122.95 130.61 125.49 127.54 128.04 124.46 129.29 122.95 130.54 121.44 131.78 119.93 132.08 119.57 133.2 118.72 133.11 118.19 132.99 117.46 132.08 118.12 131.65 118.5Z" fill="#F4BBA2" opacity="0.4"/><path d="M31.5 76.28C30.54 76.49 29.52 76.75 28.86 77.47 28.26 78.13 28.06 79.06 27.89 79.94 25.89 90.35 24.25 100.84 22.98 111.36 21.98 119.64 21.26 128.34 24.48 136.03 27.7 143.72 36.13 149.88 44.18 147.7 48.53 146.52 52.02 143.2 56.3 141.81 58.35 141.15 60.57 140.92 62.41 139.8 65.91 137.66 66.86 133.09 67.29 129.01 68.36 118.78 68.14 108.41 66.63 98.23 65.61 91.32 63.55 79.83 56.95 75.78 50.59 71.89 38.21 74.82 31.5 76.28Z" fill="#526A6D"/><path d="M28.05 85.12C27.05 91.06 26.76 96.93 25.81 103.02 25 108.22 24.38 113.46 24.21 118.72 24.01 124.96 24.88 131.36 27.76 136.89 29.24 139.74 38.42 151.49 42.18 145.29 42.95 144.01 42.71 142.39 42.48 140.92 41.24 133.09 40.97 125.1 41.69 117.21 42.53 107.87 44.72 98.3 42.24 89.26 41.41 86.22 40.01 83.26 37.71 81.11 36.22 79.72 32.23 77.2 30.07 78.43 28.42 79.35 28.32 83.49 28.05 85.12Z" fill="#526A6D" opacity="0.49"/><path d="M16.57 173.84C16.79 173.19 16.91 172.52 16.87 171.81 16.72 168.65 16.28 165.51 16.21 162.33 16.07 155.83 16.56 149.31 17.66 142.9 19.8 130.41 24.25 118.3 30.83 107.47 31.84 105.81 33.56 104.85 35.18 105.94 36.79 107.02 37.41 109.17 37.21 111.11 37.01 113.04 36.14 114.83 35.32 116.6 30.81 126.33 27.57 136.65 25.67 147.21 24.69 152.66 24.06 158.18 23.8 163.72 23.6 167.96 22.54 174.23 27.94 175.73 28.91 176 30.05 176.06 30.67 176.85 30.93 177.18 31.05 177.6 31.16 178 31.52 179.26 31.88 180.52 32.24 181.78 32.58 182.98 32.79 184.57 31.73 185.22 31.1 185.61 30.25 185.48 29.63 185.87 28.76 186.42 28.75 187.65 28.69 188.68 28.63 189.71 28.13 190.98 27.1 190.96 26.55 190.95 25.84 190.37 25.42 190.07 24.98 190.76 24.31 191.04 23.57 190.57 23.14 190.3 22.75 189.9 22.25 189.83 21.18 189.67 20.24 190.99 19.21 190.67 18.49 190.44 18.11 189.47 17.35 189.46 13.73 189.42 12.31 185.27 12.85 181.74 13.31 178.84 15.71 176.45 16.57 173.84Z" fill="#F5D4A1"/><path d="M12.91 181.63C13.35 178.72 15.75 176.34 16.61 173.73 16.83 173.08 16.95 172.41 16.91 171.7 16.76 168.54 16.32 165.4 16.25 162.22 16.11 155.72 16.6 149.2 17.7 142.79 18.96 135.42 21.03 128.19 23.86 121.27 25.3 117.75 26.94 114.31 28.77 110.98 29.13 110.33 33.33 102.71 33.89 107.52 33.98 108.33 33.63 109.12 33.28 109.85 28.85 119.34 24.81 129.06 22.26 139.21 19.72 149.37 18.71 160.01 20.37 170.35 20.65 172.12 21 173.99 20.32 175.65 18.77 179.38 14.56 180.65 16.79 185.43 16.97 185.82 17.2 186.2 17.54 186.44 18.41 187.06 19.88 186.74 20.42 187.67 21.44 189.41 23.28 188.35 24.35 190.36 23.9 190.77 23.38 190.68 22.83 190.32 22.34 190 21.76 189.6 21.23 189.84 21.01 189.94 20.85 190.14 20.67 190.29 19.44 191.31 16.05 189.32 14.99 188.54 13.1 187.15 12.36 183.85 12.91 181.63Z" fill="#F5D4A1" opacity="0.49"/><path d="M25.24 108.04C30.06 99.73 35.46 91.76 41.39 84.2 43.88 81.02 46.65 77.79 50.43 76.38 53.45 75.26 55.99 75.83 59.15 76.44 63.8 77.35 68.61 77.44 73.29 76.71 76.31 76.24 79.29 75.43 82.35 75.46 85.4 75.48 88.65 76.5 90.45 78.97 91.6 80.55 92 81.05 92.71 82.88 95.53 90.23 99.14 97.29 103.45 103.88 104.04 104.78 104.66 105.93 104.12 106.86 103.91 107.22 103.57 107.47 103.23 107.7 100.17 109.85 97.01 111.86 93.75 113.71 93.15 116.49 93.33 119.01 93.47 121.85 93.91 130.85 95.6 139.78 98.46 148.32 90.71 153.11 81.73 156.17 72.67 157.2 63.61 158.23 54.1 156.58 46.43 151.66 46.6 138.5 47.12 126.23 47.29 113.07 45.09 116.7 42.61 119.64 40.41 123.26 40.19 123.63 39.94 124.02 39.54 124.18 38.89 124.44 38.19 123.99 37.63 123.56 32.07 119.29 26.67 114.92 25.24 108.04Z" fill="#627792"/><path d="M25.43 107.98C30.25 99.67 35.65 91.7 41.58 84.14 44.07 80.96 46.84 77.73 50.62 76.32 54.68 74.81 60.54 76.01 64.29 78.03 66.19 79.05 65.94 81.76 66.11 83.9 66.34 86.88 67.85 89.58 68.88 92.39 71.7 100.03 71.01 108.53 69.16 116.46 68.36 119.9 66.85 123.31 66.49 126.79 66.05 131.02 65.95 135.33 66.67 139.53 67.56 144.75 69.82 149.87 73.72 153.45 74.54 154.2 75.48 155 75.57 156.1 72.36 158.19 68.23 157.98 64.43 157.52 60.17 157.01 55.87 156.28 51.9 154.6 50.6 154.05 47.34 152.9 46.67 151.58 45.85 149.98 46.73 145.85 46.76 144.03 46.98 133.69 47.35 123.36 47.49 113.02 45.29 116.65 42.81 119.59 40.61 123.21 40.39 123.58 40.14 123.97 39.74 124.13 39.09 124.39 38.39 123.94 37.83 123.51 32.26 119.23 26.86 114.86 25.43 107.98Z" fill="#627792" opacity="0.42"/><path d="M58.97 76.48C58.33 76.78 57.94 77.14 58.17 77.7 59.67 81.36 63.16 84.13 67.06 84.77 70.97 85.4 75.15 83.87 77.73 80.86 78.16 80.36 78.56 79.66 78.24 79.08 77.54 77.86 75.02 78.44 73.87 76.79 72.68 75.08 73.14 72.5 73.12 70.56 69.74 70.92 66.32 70.86 62.95 70.39 63.64 71.71 63.55 73.41 62.71 74.64 62.08 75.59 60.12 75.94 58.97 76.48Z" fill="#F5D4A1"/><path d="M47.12 117.23C47.16 116.05 51.23 114.05 52.06 113.3 53.85 111.69 55.75 109.68 56.79 107.49 57.74 105.48 58.23 103.29 58.67 101.11 59.68 96.09 60.63 90.74 59.92 85.62 59.76 84.5 56 74.48 54.42 75.68 56.37 74.2 59.35 74.89 61.08 76.62 62.82 78.35 63.57 80.82 64.07 83.21 65.79 91.49 65.18 100.23 62.37 108.2 59.82 115.43 53.02 121.29 46.42 124.91 46.52 121.78 47.01 120.36 47.12 117.23Z" fill="#789094"/><path d="M87.05 94.25C88.97 101.39 89.77 108.85 92.35 115.78 91.92 114.61 92.56 112.1 92.55 110.8 92.54 108.97 92.45 107.14 92.27 105.33 91.91 101.69 91.21 98.09 90.17 94.58 88.22 87.94 85.09 80.86 80.45 75.63 80.28 75.44 80.09 75.24 79.84 75.17 79.6 75.11 79.34 75.18 79.1 75.25 77.99 75.59 76.88 75.93 75.77 76.28 81.71 81.22 85.04 86.77 87.05 94.25Z" fill="#789094"/></g><g><g><path d="M87.89 30.76C91.62 37.89 92.92 46.57 92.14 54.33 91.33 62.34 86.77 70.42 79.26 73.32 73.92 75.38 67.79 74.59 62.58 72.22 57.37 69.85 52.96 66.03 48.91 61.99 48.44 63.88 46.21 63.82 44.34 63.27 42.47 62.72 41.09 61.14 40.07 59.48 38.93 57.64 38.08 55.54 38.18 53.38 38.28 51.22 39.5 49.02 41.51 48.23 43.52 47.44 46.2 48.53 46.71 50.63 41.07 41.83 42.34 28.98 49.88 21.75 57.71 14.25 69.42 14.3 78.39 20.08 82.5 22.71 85.63 26.45 87.89 30.76Z" fill="#F5D4A1"/><path d="M62.65 35.81C61.48 36.24 60.27 36.63 59.26 37.36 58.04 38.23 57.62 39.3 57.48 40.72 57.33 42.25 56.86 43.79 56.59 45.33 56.02 48.57 55.79 51.9 56.39 55.15 57.4 60.65 60.83 65.66 65.59 68.59 70.35 71.52 76.37 72.32 81.74 70.73 82.36 71.1 81.7 72.02 81.06 72.35 77.2 74.34 72.69 75.04 68.4 74.33 67.63 74.2 66.73 74.07 66.16 74.6 65.82 74.91 65.7 75.39 65.61 75.84 64.99 79.05 65.91 81.64 66.86 84.6 65.96 84.56 65.06 84.32 64.17 84.14 64.03 81 62.55 77.94 60.18 75.87 61.11 75.69 62.04 75.29 62.62 74.54 63.69 73.15 63.01 72.47 61.83 71.91 60.2 71.13 58.65 70.2 57.17 69.16 54.19 67.08 51.51 64.63 48.94 62.07 48.47 63.96 46.24 63.9 44.37 63.35 42.5 62.8 41.12 61.22 40.1 59.56 38.96 57.72 38.11 55.62 38.21 53.46 38.31 51.3 39.53 49.1 41.54 48.31 43.55 47.52 46.23 48.61 46.74 50.71 46.37 49.18 45.02 47.58 44.49 46.02 43.91 44.3 43.53 42.51 43.35 40.71 43 37.09 43.45 33.39 44.69 29.97 46.51 24.95 49.24 19.67 54.26 17.21 57.64 15.55 61.6 15.2 65.28 16 66.72 16.31 68.14 16.81 69.32 17.68 71.39 19.22 72.51 21.86 72.45 24.45 72.39 27.03 71.23 29.52 69.49 31.43 67.76 33.34 65.48 34.71 63.07 35.64 62.94 35.71 62.8 35.76 62.65 35.81Z" fill="#F5D4A1" opacity="0.34"/><g><g><g><path d="M73.23 63.14C73.77 63.42 74.26 63.77 74.72 64.13 75.18 64.49 75.63 64.88 76.05 65.28L75.34 65.29C75.78 64.72 76.26 64.19 76.77 63.68 77.29 63.18 77.83 62.69 78.48 62.27 78.2 62.97 77.82 63.6 77.41 64.21 76.99 64.81 76.55 65.4 76.06 65.95L75.72 66.34 75.36 65.97C74.95 65.55 74.57 65.1 74.21 64.64 73.85 64.17 73.51 63.69 73.23 63.14Z" fill="#F2877E"/></g><g><g><path d="M77.28 52.07C77.83 52.62 78.3 53.23 78.64 53.97 78.98 54.69 79.13 55.57 78.96 56.42 78.79 57.25 78.22 58.13 77.33 58.41 76.51 58.71 75.45 58.47 75.08 57.72 75.75 58.13 76.48 57.99 77.01 57.69 77.53 57.38 77.85 56.83 77.97 56.2 78.11 55.57 78.05 54.9 77.89 54.21 77.74 53.53 77.47 52.83 77.28 52.07Z" fill="#F2877E"/></g><g><path d="M65.75 47.46C65.75 48.57 65.15 49.47 64.41 49.47 63.67 49.47 63.07 48.57 63.07 47.46 63.07 46.35 63.67 45.45 64.41 45.45 65.15 45.45 65.75 46.35 65.75 47.46Z"/><path d="M85.54 45.1C85.68 46.15 85.28 47.06 84.66 47.14 84.04 47.22 83.43 46.44 83.29 45.39 83.15 44.34 83.55 43.43 84.17 43.35 84.8 43.27 85.41 44.05 85.54 45.1Z"/></g></g></g><g><g><path d="M59.38 45.71C59.29 44.98 59.49 44.21 59.87 43.56 60.25 42.9 60.81 42.35 61.45 41.94 62.1 41.54 62.84 41.28 63.6 41.23 64.35 41.17 65.13 41.33 65.75 41.74 64.3 41.72 63.07 42.11 61.98 42.79 60.89 43.47 60 44.4 59.38 45.71Z" fill="#D1794B"/></g><g><path d="M82.65 39.84C82.86 39.26 83.52 38.96 84.11 38.87 84.72 38.77 85.36 38.89 85.92 39.14 87.04 39.68 87.79 40.79 87.87 41.94 87.06 41.12 86.35 40.44 85.49 40.04 85.07 39.83 84.61 39.7 84.14 39.64 83.65 39.61 83.16 39.58 82.65 39.84Z" fill="#D1794B"/></g></g><g><path d="M70.25 56.29C70.25 58.32 68.24 59.96 65.76 59.96 63.28 59.96 61.27 58.32 61.27 56.29 61.27 54.26 63.28 52.62 65.76 52.62 68.24 52.62 70.25 54.26 70.25 56.29Z" fill="#F5D4A1" opacity="0.35"/><path d="M90.86 54.29C90.86 56.32 88.85 57.96 86.37 57.96 83.89 57.96 81.88 56.32 81.88 54.29 81.88 52.26 83.89 50.62 86.37 50.62 88.85 50.62 90.86 52.26 90.86 54.29Z" fill="#F5D4A1" opacity="0.35"/></g></g><path d="M41.31 53.14C40.76 55.11 41.02 57.29 42.04 59.06 42.49 59.85 43.12 60.59 43.95 60.96 44.78 61.34 45.85 61.29 46.53 60.68 47.01 60.25 47.24 59.6 47.35 58.96 47.46 58.35 47.47 57.69 47.17 57.15 46.87 56.61 46.17 56.26 45.6 56.51 45.25 56.67 45.01 57.03 44.64 57.13 44.1 57.29 43.58 56.84 43.25 56.39 41.64 54.21 42.74 52.77 43.92 50.87 42.57 50.49 41.65 51.91 41.31 53.14Z" fill="#F5D4A1" opacity="0.34"/><path d="M77.21 57.36C77.73 56.84 77.94 56.07 77.91 55.33 77.88 54.59 77.64 53.88 77.36 53.2 77.32 53.09 77.27 52.98 77.17 52.92 76.94 52.77 76.65 52.98 76.47 53.19 75.75 54.03 75.26 55.07 75.08 56.16 74.99 56.67 74.86 57.54 75.4 57.85 75.94 58.15 76.83 57.75 77.21 57.36Z" fill="#F5D4A1" opacity="0.35"/></g><path d="M93.02 33.46C93.2 33.15 93.39 32.85 93.57 32.54 94.18 31.52 94.73 30.39 94.62 29.21 94.51 28.03 93.48 26.87 92.31 27.04 93.56 24.94 93.87 22.3 93.13 19.96 92.82 18.99 91.9 17.9 90.98 18.35 90.71 18.48 90.51 18.73 90.21 18.8 89.63 18.94 89.18 18.29 89.03 17.72 88.38 15.37 89.47 12.8 88.82 10.45 88.13 7.94 85.89 6.72 84.09 5.09 82.17 3.33 80.54 1.44 78 0.5 75.43-0.45 72.17-0.08 70.46 2.06 69.76 2.93 69.3 4.09 68.28 4.54 66.51 5.32 64.79 3.49 63.29 2.27 59.96-0.43 54.91-0.41 51.21 1.75 49.56 2.71 48.02 4.29 48.08 6.2 48.1 6.81 48.25 7.52 47.83 7.96 47.36 8.47 46.54 8.25 45.85 8.2 44.5 8.09 43.12 8.84 42.46 10.02 42.31 10.28 42.2 10.57 41.98 10.78 41.45 11.29 40.6 11.14 39.87 11.06 37.31 10.76 34.59 11.9 33.16 14.04 31.73 16.18 31.78 19.27 33.44 21.24 34.76 22.81 36.29 23.86 35.48 26.16 34.8 28.1 32.7 29.55 31.46 31.13 29.43 33.72 29.1 37.91 31.58 40.08 32.88 41.21 34.64 41.59 36.27 42.14 39.6 43.28 42.79 45.29 44.83 48.15 46.29 50.2 49.64 55.19 49.1 57.86 49.36 56.6 49.02 55.3 48.95 54.01 48.88 52.72 49.18 51.25 50.27 50.58 50.8 50.25 51.43 50.16 52.02 49.98 53.67 49.46 55.04 48.07 55.41 46.38 55.78 44.69 55.05 42.78 53.57 41.89 52.34 41.14 50.63 41.01 49.91 39.76 49.65 39.31 49.57 38.78 49.55 38.26 49.5 36.92 49.92 34.25 51.16 33.41 52.47 32.53 53.23 33.52 54.61 34.04 57.71 35.22 61.34 35.02 64.24 33.38 67.91 31.31 70.21 27.04 69.94 22.84 70.08 25.02 72.57 26.82 74.49 27.29 76.78 27.85 79.05 25.37 80.89 26.03 81.76 26.34 82.01 27.41 82.32 28.28 82.63 29.15 83.48 30.09 84.31 29.69 84.57 29.57 84.75 29.34 85 29.19 85.97 28.63 87.08 29.7 87.54 30.71 88.32 32.4 88.59 34.26 89.25 35.98 89.84 37.52 90.88 38.82 91.45 40.38 92.35 39.08 91.77 37.3 92.04 35.74 92.22 34.92 92.6 34.18 93.02 33.46Z" fill="#D1794B"/><path d="M79.9 23.1C80.42 22.43 80.83 21.65 81.09 20.85 81.37 19.98 81.51 19.06 81.36 18.16 81.01 16.07 79.2 14.59 77.52 13.31 78.65 11.76 78.89 9.61 78.13 7.86 77.37 6.1 75.63 4.81 73.74 4.58 72.32 4.41 70.72 4.89 69.96 6.11 69.27 7.22 69.32 8.79 68.29 9.59 67.76 10 67.06 10.1 66.4 10.1 65.69 10.1 64.91 9.96 64.44 9.42 63.89 8.8 63.93 7.88 63.86 7.06 63.41 1.72 57.75-0.75 53.1 1.38 50.79 2.43 49.06 4.86 49.2 7.39 49.21 7.54 49.21 7.72 49.1 7.82 48.99 7.92 48.82 7.89 48.67 7.88 47.71 7.78 46.89 8.27 45.87 8.19 44.52 8.08 43.14 8.83 42.48 10.01 42.33 10.27 42.22 10.56 42 10.77 41.47 11.28 40.62 11.13 39.89 11.05 37.33 10.75 34.61 11.89 33.18 14.03 31.75 16.17 31.8 19.26 33.46 21.23 34.78 22.8 36.31 23.85 35.5 26.15 34.82 28.09 32.72 29.54 31.48 31.12 29.45 33.71 29.12 37.9 31.6 40.07 32.9 41.2 34.66 41.58 36.29 42.13 39.62 43.27 42.81 45.28 44.85 48.14 46.31 50.19 49.66 55.18 49.12 57.85 49.38 56.59 49.04 55.29 48.97 54 48.9 52.71 49.2 51.24 50.29 50.57 50.82 50.24 51.45 50.15 52.04 49.97 53.69 49.45 55.06 48.06 55.43 46.37 55.8 44.68 55.07 42.77 53.59 41.88 52.36 41.13 50.65 41 49.93 39.75 49.67 39.3 49.59 38.77 49.57 38.25 49.52 36.91 49.94 34.24 51.18 33.4 52.49 32.52 53.25 33.51 54.63 34.03 57.73 35.21 61.36 35.01 64.26 33.37 66.06 32.36 67.53 30.81 68.53 29.01 69.03 28.11 69.41 27.14 69.66 26.14 69.84 25.39 69.76 24.28 70.13 23.66 70.26 23.93 72.33 26.42 72.41 26.12 72.58 25.54 73.22 25.21 73.83 25.17 74.43 25.12 75.04 25.28 75.64 25.31 77.34 25.39 78.85 24.45 79.9 23.1Z" fill="#D1794B" opacity="0.48"/></g></g></svg>