<svg width="519.17" height="1297.21" viewBox="0 0 519.17 1297.21" xmlns="http://www.w3.org/2000/svg" xmlns:xlink="http://www.w3.org/1999/xlink" xml:space="preserve" overflow="hidden"><defs></defs><g><g><path d="M252.12 450.64C252.12 450.64 252.55 452.25 253.36 455.28 254.18 458.22 255.39 462.36 256.99 467.5 260.17 477.81 264.89 492.24 271.16 509.42 277.48 526.6 285.17 546.5 295.44 567.79 300.67 578.46 306.36 589.42 314.3 600.9 318.44 606.65 322.8 612.58 330.31 618.92 331.21 619.68 332.34 620.51 333.4 621.29 333.93 621.67 334.57 622.09 335.16 622.48L336.07 623.06 337.18 623.74 337.42 623.87 339.63 625.04C340.97 625.71 342.47 626.45 343.72 626.95 348.45 628.91 353.52 630.19 358.51 630.71 368.55 631.78 377.79 629.97 385.54 627.26 393.32 624.47 399.95 620.8 405.86 616.84 417.64 608.86 426.89 599.79 435.03 590.66 443.14 581.52 449.99 572.21 455.99 563.15 461.98 554.08 467.08 545.24 471.42 536.92 480.11 520.26 485.78 505.64 489.27 495.21 491.01 489.99 492.24 485.83 493.03 482.98 493.8 480.11 494.22 478.59 494.22 478.59 496.38 470.54 491.61 462.26 483.57 460.1 475.93 458.04 468.08 462.24 465.45 469.55L465.28 470C465.28 470 464.82 471.29 463.96 473.72 463.08 476.13 461.73 479.67 459.83 484.12 456.06 493 450 505.56 441.16 519.68 436.73 526.72 431.63 534.15 425.81 541.58 420 549 413.51 556.47 406.34 563.35 399.22 570.2 391.34 576.55 383.43 580.96 379.51 583.17 375.59 584.78 372.19 585.66 368.78 586.51 366.06 586.48 364.36 586.01 363.49 585.78 362.83 585.47 362.16 585.05 362.06 584.98 362.26 585.01 362.27 585.05L360.65 584.03 360.42 583.88C360.21 583.75 361.69 584.64 361.07 584.27L361.07 584.26 361.07 584.22C361.06 584.19 361.08 584.22 361.02 584.14 360.93 584 360.86 583.97 360.68 583.74 359.33 582.32 356.68 578.7 354.45 574.77 349.8 566.71 345.56 556.98 341.84 547.43 334.41 528.15 328.66 508.92 324.09 492.43 319.54 475.9 316.21 461.94 314.07 452.3 312.99 447.47 312.23 443.73 311.76 441.3 311.33 438.93 311.1 437.67 311.1 437.67L311.06 437.45C308.09 421.03 292.35 410.13 275.93 413.1 259.5 416.08 248.6 431.8 251.57 448.23 251.71 449.01 251.91 449.86 252.12 450.64Z" fill="#F3BEA7"/><path d="M471.72 506.23C464.01 502.71 455.81 500.52 447.96 497.41 450.18 492.5 452.36 486.42 454.16 482.17 459.89 481.64 485.92 491.7 491.85 497.41 490.06 502.37 488.02 507.82 485.75 513.6 481.2 510.91 476.54 508.42 471.72 506.23Z" fill="#F6F6F6"/><path d="M275.92 413.08C283.57 411.69 293.35 411.72 300.22 415.78 308.08 420.43 309.76 429.97 311.5 438.21 316.61 462.46 323.28 486 331.03 509.55 333.23 516.23 335.48 522.88 337.78 529.53 342.52 543.2 353.03 571.04 365.06 581.94 375.69 591.58 420.83 564.91 445.85 492.48 458.15 491.92 482.33 502.54 489.74 509.39 481.64 536.37 444.45 616.74 381.54 634.86 350.45 643.81 325.39 621.96 308.98 596.66 303.07 587.54 300.2 577.53 295.42 567.78 285.16 546.49 277.47 526.6 271.14 509.41 264.87 492.23 260.16 477.8 256.97 467.49 255.38 462.34 254.17 458.21 253.34 455.27 252.53 452.24 252.1 450.63 252.1 450.63 251.89 449.85 251.69 449 251.55 448.2 248.59 431.78 259.49 416.06 275.92 413.08Z" fill="#5F9EB1"/></g><path d="M465.14 453.03C464.09 458.7 464.14 469.45 467.62 474.09 473.44 481.85 483.86 486.36 494.11 485.68 501.91 485.17 508.96 477.85 514.01 472.48 516.07 470.3 518.57 467.41 519.08 464.3 519.74 460.28 516.82 457.49 505.45 466.28 516.76 448.28 522.44 437.09 517.11 434.4 512.11 431.88 504.86 440.69 496.95 449.04 498.3 435.99 503.25 426.28 498.51 423.86 492.95 421.01 482.61 437.51 479.5 451.37 479.5 441.73 479.72 432.83 476.56 432.5 472.58 432.08 468.6 434.4 465.14 453.03Z" fill="#F3BEA7"/><path d="M452.62 1246.74C457.99 1257.98 440.54 1269.42 413.17 1281.4 380.72 1295.59 369.07 1306.3 352.91 1284.69 341.87 1269.95 351.63 1264.62 362.95 1259.65 372.51 1255.46 377.58 1250.09 395.54 1247.51 423.22 1242.47 445.31 1231.48 452.62 1246.74Z" fill="#524743"/><path d="M449.17 1244.08C453.11 1254.22 437.01 1264.06 409.78 1275.19 371.3 1290.91 361.11 1300.7 348.53 1278.45 335.51 1255.42 353.1 1254.17 363.99 1248.76 383.76 1238.95 379.07 1247.34 396.86 1244.94 424.25 1240.2 445.78 1235.35 449.17 1244.08Z" fill="#724923"/><path d="M22.71 1190.11C27.43 1182.43 31.92 1175.46 36.05 1167.46 43.48 1153.05 51.86 1140.13 60.82 1127.21 67.65 1134.15 74.52 1141.05 81.56 1147.78 87.43 1153.39 94.5 1158.9 100.41 1165.17 94.09 1170.2 87.81 1175.27 82.26 1180.88 72.99 1190.25 64.53 1199.19 55.28 1208.56 49.25 1214.67 42.54 1216.93 35.63 1212.35 25.76 1205.82 15.76 1199.62 22.71 1190.11Z" fill="#524743"/><path d="M67.42 1207.37C52.93 1207.37 27.89 1187.67 20.39 1174.66 21.68 1170.14 39.49 1148.04 42.12 1144.3 47.54 1136.63 53.26 1129.17 58.98 1121.72 71.83 1104.99 85.14 1088.63 99 1072.74 110.79 1059.21 123.21 1046.31 136.67 1034.43 150.05 1022.62 163.66 1011.58 176.25 1000.61 187.65 990.67 208.66 976.47 211.39 960.61 211.34 960.74 210.92 961.89 210.83 961.95 210.84 961.69 211.18 960.39 211.03 960.24 211.06 960.26 210.88 961.21 210.84 961.27 218.15 948.81 210.34 920.77 208.74 907.29 206.04 884.5 202.82 861.78 200.77 838.91 200.55 835.04 200.35 831.23 200.15 827.48 199.77 820.36 199.39 813.48 199.04 806.88 197.62 780.91 195.57 760.6 193.65 747.78 193.2 744.5 192.69 741.85 192.29 739.46 191.92 737.63 191.6 736.08 191.34 734.82 190.42 730.74 189.93 728.57 189.93 728.57L189.87 728.31C189.61 727.13 189.38 725.93 189.19 724.72 183.95 691.87 206.33 660.99 239.19 655.75 272.04 650.51 302.92 672.9 308.15 705.75 308.15 705.75 308.5 707.95 309.17 712.08 309.56 714.78 310.12 718.66 310.61 722.63 310.99 726.25 311.48 730.49 311.8 734.96 313.36 753.13 313.59 777.35 313.03 804.82 312.21 845.98 311.69 887.44 308.59 928.49 305.96 963.33 298.39 999.29 273.88 1025.74 265.57 1034.72 257.34 1041.73 249.34 1048.08 241.31 1054.39 233.46 1059.9 225.84 1065.12 210.6 1075.51 196.18 1084.64 183.34 1093.53 176.93 1097.96 170.93 1102.3 165.59 1106.55 159.99 1110.95 156.41 1114.3 150.19 1120.09 144.63 1125.26 139.27 1130.22 134.25 1135.06 129.1 1139.85 69.41 1205.34 67.42 1207.37Z" fill="#B68D69"/><path d="M336.05 1195.02C344.79 1191.24 354.19 1189.19 363.12 1186.02 368.87 1202.02 373.72 1218.02 379.43 1234.14 383.78 1246.4 388.2 1254.35 374.75 1263.36 358.46 1274.26 353.03 1269.72 346.65 1260.07 336.3 1244.42 325.48 1220.24 317.8 1204.71 323.74 1201.21 329.71 1197.77 336.05 1195.02Z" fill="#524743"/><path d="M143.88 685.21C167.38 677.36 206.21 685.07 217.26 706.92 228.87 729.86 237.79 762.85 244.94 782.4 272.62 858.05 315.71 1033.7 321.99 1056.2 333.36 1096.93 387.43 1212.37 390.85 1222.26 387.69 1234.15 357.92 1245.62 332.98 1250.78 326.16 1237.25 306.87 1203.35 303.11 1197.12 286.08 1168.86 275.24 1139.21 261.18 1109.33 254.04 1094.3 250.29 1078.99 243.57 1062.36 228.54 1024.45 219.59 982.02 203.72 944.46 192.52 917.96 179.26 892.38 164.82 867.51 151.26 844.16 134.73 822.42 122.08 798.59 119.33 793.4 116.76 787.82 114.53 782.01 100.51 745.64 99.22 700.13 143.88 685.21Z" fill="#CB9B72"/><path d="M61.38 196.76C62.27 186.54 70.78 191.52 76.8 196.74 86.2 204.89 90.82 216.86 95.69 227.91 99.56 236.67 105.37 244.1 110.35 252.1 110.38 252.53 110.41 252.96 110.51 253.42 112.93 264.1 112.86 274.62 111.24 285.2 110.17 285.01 107.96 284.43 106.65 283.22 90.03 267.86 76.41 250.25 68.31 229 65.01 220.33 60.56 206.06 61.38 196.76Z" fill="#926239"/><path d="M310.36 720.75C319.83 714.69 282.61 729.6 271.97 730.4 254.62 731.7 237.46 728.8 220.3 726.6 205.78 724.74 191.11 724.06 176.54 722.53 162.48 721.05 147.85 719.64 134.05 723.56 125.17 726.08 113.4 733.97 104.01 729.87 92.83 724.99 101.27 709.28 105.88 700.1 114.91 682.1 116.86 668.89 118.06 655 120.78 623.46 121.96 603.09 116.95 542.79 114.98 519.09 112.41 509.54 112.41 485.75 112.41 467.6 100.09 432.23 119.17 419.91 136.5 408.72 168.61 408.36 186.88 405.55 192.72 404.65 198.38 402.84 204.21 401.83 210.68 400.71 217.37 398.74 223.85 399.85 257.98 405.69 280.36 406.1 294.45 413.53 308.8 457.21 303.36 559.77 302 591 299.95 637.89 307.72 722.44 310.36 720.75Z" fill="#F6F6F6"/><g><path d="M50.65 198.72C50.65 214.38 65.73 226.02 78.6 228.21 96.5 231.25 103.33 214.38 103.33 198.72 103.33 183.06 91.54 170.36 76.99 170.36 62.44 170.37 50.65 183.06 50.65 198.72Z" fill="#F3BEA7"/><path d="M71.31 183.12C69.05 183.84 67.46 185.29 65.8 186.95 63.79 188.95 63.65 191.26 62.91 193.88 62.12 196.71 62.53 199.1 62.44 201.98 64.45 206.18 75.77 211.28 81.22 208.98 86.81 206.61 88.83 195.3 84.73 185.82 83.72 183.47 82.55 181.93 80.73 181.58 77.54 180.96 74.29 182.16 71.31 183.12Z" fill="#F7F3F1"/><path d="M84.91 183.47C79.17 180.5 73.13 181.03 68.17 184.6 64.82 187.02 61.65 191.86 61.89 200.11" stroke="#E6A582" stroke-width="3.4233" stroke-linecap="round" stroke-linejoin="round" stroke-miterlimit="10" fill="none"/></g><path d="M224.6 7.78C268.82 7.78 308.1 23.33 332.89 73.34 350.15 108.14 360.38 171.2 360.38 208.9 360.38 272.48 331.27 299.11 288.48 327.11 283.51 330.37 278.31 332.78 273.6 335.84 264.58 341.69 254.84 345.64 250.06 356 245.13 366.7 243.72 380.18 247.18 391.51 249.99 400.68 261.46 404.94 262.24 414.95 263.17 426.97 253.88 429.52 233.1 429.52 212.33 429.52 194.71 426.92 196.35 414.96 197.42 407.19 195.92 404.73 199.14 398.43 205.89 385.25 201.39 363.46 194.07 351.51 187.96 341.53 177.85 337.9 168.52 331.82 166.76 330.67 164.87 329.73 163.06 328.6 119.01 301.1 88.83 273.63 88.83 208.9 88.83 167 101.48 99.05 122.35 61.94 147.22 17.67 183.81 7.78 224.6 7.78Z" fill="#F3BEA7"/><path d="M251.87 138.06C230.28 137.06 208.89 134.45 187.36 132.88 169.75 131.6 154.99 134.59 138.63 137.98 167.27 169.18 218.24 170.32 258.08 172.94 283.94 174.65 308.56 177.97 334.85 174.6 342.72 173.59 349.9 169.7 357.44 167.49 355.9 155.31 353.77 142.6 351.11 130.19 318.23 135.45 285.4 139.62 251.87 138.06Z" fill="#F5F4F5"/><path d="M250.05 356C246.78 363.1 245.1 371.42 245.33 379.53 234.05 391.25 215.66 396.69 198.27 399.76 198.56 399.32 198.88 398.9 199.13 398.42 205.88 385.24 201.38 363.45 194.06 351.5 193.12 349.97 192.07 348.64 190.96 347.38 198.63 351.28 217.39 355.38 230 353.85 239.5 352.69 248.88 350.66 257.05 346.84 254.25 349.32 251.8 352.21 250.05 356Z" fill="#F5F1F4"/><g><path d="M249.52 237.04C256.8 236.54 258.39 241.31 258.04 245.33 257.48 251.66 252.21 251.41 248.54 251.43" stroke="#E6A582" stroke-width="3.4233" stroke-linecap="round" stroke-linejoin="round" stroke-miterlimit="10" fill="none"/><path d="M299.95 222.99C299.95 230.73 304.13 237 309.29 237 314.44 237 318.62 230.72 318.62 222.99 318.62 215.26 314.44 208.98 309.29 208.98 304.13 208.98 299.95 215.25 299.95 222.99Z" fill="#7F4B20"/><path d="M300.56 215.86C300.56 219.17 302.35 221.86 304.56 221.86 306.77 221.86 308.55 219.17 308.55 215.86 308.55 212.55 306.76 209.86 304.56 209.86 302.35 209.86 300.56 212.55 300.56 215.86Z" fill="#FFFFFF"/><path d="M196.34 222.99C196.34 230.73 192.16 237 187 237 181.85 237 177.67 230.72 177.67 222.99 177.67 215.26 181.85 208.98 187 208.98 192.16 208.98 196.34 215.25 196.34 222.99Z" fill="#7F4B20"/><path d="M187 215.86C187 219.17 185.21 221.86 183 221.86 180.79 221.86 179 219.17 179 215.86 179 212.55 180.79 209.86 183 209.86 185.21 209.86 187 212.55 187 215.86Z" fill="#FFFFFF"/><path d="M223.59 288.22C223.48 292.67 226.37 297.95 228.61 300.97 234.04 308.25 240.46 310.03 248.16 310.03 255.07 310.03 259.41 308.44 265.8 303.05 268.83 300.48 275.22 287.76 271.23 285.24 271.12 285.21 271.04 285.13 270.9 285.09 270.68 285.02 270.44 284.94 270.16 284.9 266.83 284.52 262.9 286.9 259.65 287.73 256.04 288.63 252.06 289.54 248.4 289.35 243.35 289.09 238.35 288.1 233.38 286.97 231.47 286.52 227.24 283.69 225.03 284.82 225 284.82 224.97 284.86 224.95 284.86L224.95 284.9C224.65 285.05 224.4 285.28 224.18 285.62 223.81 286.22 223.59 287.05 223.59 288.22Z" fill="#D55751"/><path d="M225.03 284.8C226.23 294.83 236.91 295.54 243.46 295.81 249.63 296.08 256.11 295.74 262.19 294.67 266.31 293.93 269.86 290.17 270.9 285.04 270.68 284.97 270.44 284.91 270.16 284.87 266.83 284.53 262.9 286.65 259.65 287.39 256.04 288.19 252.06 289 248.4 288.83 243.35 288.59 238.35 287.72 233.38 286.71 231.48 286.31 227.24 283.79 225.03 284.8Z" fill="#EDEDED"/><g><path d="M327.46 194.12C327.46 194.12 327.06 193.84 326.37 193.35 325.62 192.87 324.83 192.46 323.49 191.93 320.96 190.9 317.23 189.84 313.77 189.62L312.6 189.66C312.58 189.62 311.78 189.79 311.41 189.85 310.49 190.03 309.5 190.15 308.69 190.37 307.2 190.91 305.83 191.24 304.72 191.89 304.16 192.16 303.66 192.42 303.2 192.64 302.86 192.91 302.57 193.15 302.33 193.34 301.84 193.7 301.56 193.9 301.56 193.9L300.88 194.4C299.35 195.52 297.21 195.18 296.09 193.66 294.97 192.13 295.3 189.99 296.83 188.87 296.93 188.79 297.04 188.72 297.15 188.66 297.15 188.66 297.69 188.35 298.64 187.81 299.12 187.55 299.69 187.24 300.35 186.89 301 186.64 301.73 186.43 302.52 186.18 304.06 185.59 306.05 185.36 308.09 185.03 309.06 184.94 309.96 184.96 310.93 184.92 311.51 184.93 311.66 184.86 312.61 184.93L314.34 185.14C318.56 186.07 322.16 187.78 324.82 189.33 326.1 190.05 327.35 191 327.93 191.54 328.54 192.13 328.89 192.47 328.89 192.47 329.33 192.89 329.34 193.59 328.92 194.02 328.54 194.41 327.93 194.46 327.5 194.15L327.46 194.12Z" fill="#945627"/></g><g><path d="M166.34 192.15C166.34 192.15 167.79 190.82 170.44 189.07 171.77 188.23 173.4 187.32 175.27 186.57 176.23 186.26 177.19 185.79 178.24 185.59 179.28 185.37 180.34 185.02 181.44 184.97L183.08 184.8C183.43 184.79 183.46 184.72 184.07 184.74L184.81 184.76C185.79 184.79 186.75 184.82 187.68 184.84 189.74 185.19 191.87 185.4 193.43 186.05 194.24 186.33 194.99 186.59 195.65 186.82 196.32 187.19 196.89 187.51 197.37 187.78 198.32 188.35 198.86 188.67 198.86 188.67 200.48 189.64 201.02 191.74 200.05 193.36 199.08 194.98 196.98 195.51 195.36 194.55 195.27 194.5 195.18 194.44 195.1 194.37L194.46 193.9C194.46 193.9 194.17 193.69 193.66 193.32 193.41 193.12 193.1 192.88 192.74 192.6 192.28 192.38 191.76 192.13 191.2 191.85 190.07 191.18 188.71 190.94 187.17 190.39 186.25 190.24 185.3 190.1 184.33 189.94L183.6 189.83C183.73 189.82 183.26 189.82 183.12 189.81L181.79 189.78C180.89 189.7 180.02 189.89 179.13 189.95 178.24 189.99 177.41 190.29 176.57 190.44 174.92 190.87 173.41 191.47 172.13 192.06 169.62 193.29 167.96 194.44 167.96 194.43 167.33 194.87 166.46 194.71 166.02 194.08 165.62 193.5 165.72 192.72 166.22 192.26L166.34 192.15Z" fill="#945627"/></g></g><path d="M84.91 64.73C90.19 56.42 96.58 47.39 103.39 39.28 106.71 47.47 110.73 55.25 117.27 61.65 131.26 75.37 145.98 84.46 148.54 104.62 143.81 112.1 139.64 122.69 138.17 130.27 136.27 140.09 134.19 155.55 130.93 170.36 129.25 177.99 105.35 170.78 103.32 205.16 103.15 208.04 93.71 208.98 93.88 205.32 94.44 193.44 92.29 177.5 88.81 174.3 78.06 166.96 65.09 171.21 58.38 178.65 51.12 140.64 72.4 84.44 84.91 64.73Z" fill="#926239"/><path d="M68.21 184.79C69.26 189.82 73.14 194.98 78.06 199.47" stroke="#E6A582" stroke-width="3.4233" stroke-linecap="round" stroke-linejoin="round" stroke-miterlimit="10" fill="none"/><path d="M103.19 726.62C110.08 706.14 116.86 668.89 118.05 655 120.77 623.46 121.95 603.09 116.94 542.79 114.97 519.09 112.4 509.54 112.4 485.75 112.4 467.6 100.08 432.23 119.16 419.91 136.49 408.72 189.18 405.13 190.33 404.9 186.42 417.08 180.8 428.44 178.53 441.29 176.5 452.8 175.12 464.39 174.47 476.06 172.9 504.35 173.57 532.57 177.19 560.67 184.17 614.76 183.87 712.05 179.36 766.18 178.15 766.06 176.93 765.97 175.72 765.84 161.66 764.37 147.03 762.96 133.23 766.87 124.35 769.39 107.24 782.59 103.19 773.18 100.69 767.38 99.92 736.36 103.19 726.62Z" fill="#62A3B7"/><path d="M280.57 682.37C275.44 652.25 273.9 626.28 272.2 595.78 270.2 559.8 276.47 517.85 277.27 485.49 277.99 456.66 269.4 428.04 255.38 402.84 270.56 404.93 285.98 409.07 294.44 413.53 313.3 462.01 303.36 559.77 302 591 299.96 637.89 309.15 709.31 317.24 725.04 320.55 731.48 323.07 744.32 319.28 749.69 318.39 750.96 317.2 752.18 315.65 753.35 309.27 758.18 301.61 761.53 290.71 761.53 287.17 744.31 283.52 699.72 280.57 682.37Z" fill="#5994A6"/><g><path d="M453.03 1247.11C458.47 1258.41 440.97 1269.83 413.53 1281.75 380.98 1295.87 369.33 1306.58 353.01 1284.84 341.87 1270 351.66 1264.69 363.01 1259.75 372.6 1255.57 377.68 1250.2 395.71 1247.68 423.48 1242.71 445.63 1231.76 453.03 1247.11Z" fill="#524743"/><path d="M449.56 1244.42C453.55 1254.61 437.42 1264.43 410.11 1275.5 371.52 1291.14 361.32 1300.92 348.61 1278.55 335.45 1255.4 353.11 1254.2 364.04 1248.81 383.86 1239.04 379.18 1247.44 397.04 1245.09 424.51 1240.43 446.12 1235.65 449.56 1244.42Z" fill="#724923"/></g><g><path d="M81.83 1281.23C74.02 1290.94 56.15 1280.14 33.53 1260.63 6.71 1237.49-7.98 1231.62 4.51 1207.71 13.04 1191.39 22.06 1197.88 31.43 1205.95 39.34 1212.76 46.38 1215.01 56.46 1230.1 72.97 1252.86 92.44 1268.05 81.83 1281.23Z" fill="#524743"/><path d="M82.74 1276.97C75.3 1284.91 59.47 1274.65 37.67 1254.89 6.86 1226.99-6.36 1222.03 8.27 1201.07 23.41 1179.38 32.14 1194.7 41.72 1202.19 59.11 1215.77 49.52 1215.18 59.37 1230.18 75.48 1252.82 89.15 1270.14 82.74 1276.97Z" fill="#724923"/></g><path d="M246.24 432.91C247.45 436.63 243.89 457.9 237.39 457.9 230.59 457.9 218.3 442 219.62 435.35 221.08 427.99 244.04 426.14 246.24 432.91Z" fill="#70AEC1"/><g><path d="M196.08 399.52C208.22 417.42 233.09 422.71 233.79 426.09 234.48 429.41 229.97 439.98 228.98 443.32 227.48 448.37 225.86 453.23 223.6 457.9 215.58 453.06 207.51 444.68 200.58 438.33 198.45 436.37 188.5 428.1 186.95 425.68 183.93 420.97 196.08 399.52 196.08 399.52Z" fill="#DEECF5"/><path d="M260.24 402.89C249.69 416.7 233.11 423.93 233.05 426.8 232.97 430.2 238.83 439.16 240.4 442.26 242.78 446.96 245.69 451.48 249.19 456.27 256.19 450.06 262.61 440.36 268.27 432.85 270.01 430.54 273.3 427.15 274.39 424.49 276.01 420.54 275.19 415.53 273.88 411.13 268.76 409.18 264.51 406.16 260.24 402.89Z" fill="#DEECF5"/></g><path d="M282.17 693.13C287.45 661.18 292.69 631.02 296.88 594.53 298.27 582.42 311.7 559.58 309.74 550.92 308.34 542.25 292.09 540.88 290.42 531.19 289.9 528.18 292.51 526.68 295.76 526.6 300.81 526.46 309.46 524.59 311.41 518.49 314.49 511.78 310.08 481.92 303.86 456.28 288.28 392.05 253.34 400.72 253.32 400.71 268.88 433.84 277.35 456.9 276.18 485.71 274.86 517.83 270.59 559.81 272.59 595.79 274.29 626.29 275.43 652.26 280.56 682.38 281.02 685.05 281.56 688.75 282.17 693.13Z" fill="#70AEC1"/><path d="M400.38 53.56C399.66 42.38 392.37 30.27 389.61 27.56 386.83 24.81 391.04 42.82 389.1 39.55 373.37 13.13 349.79 19.56 329.22 18.13 316.95 17.27 305.65 14.08 293.89 10.82 256.22 0.36 215.53-5.55 177.68 7.43 166.17 11.37 104.66 24.3 98.88 44.87 91.68 70.46 106.56 103.37 122.62 123.77 125.6 127.56 129 131.02 132.46 134.36 132.46 134.36 157.94 149.7 175.59 153.71 204.95 160.39 236 161.17 265.93 163.65 300.41 166.51 351.89 169.82 375.85 139.42 393.22 117.4 402.27 83.08 400.38 53.56ZM262.74 9.14C255.61 7.75 255.64 7.44 225.52 3.86 225.52 3.86 259.77 0.01 298.49 16.86 298.48 16.86 272.4 11.02 262.74 9.14Z" fill="#926239"/><g><path d="M157.15 457.76C153 466.85 146.93 475.73 142.66 482.88 137.73 491.13 133.25 499.66 128.82 508.19 124.76 516.01 120.42 524.55 116.12 533.64 111.84 542.7 107.46 552.39 103.73 562.02 103.24 563.24 102.87 564.36 102.43 565.54 102.02 566.7 101.53 567.93 101.24 568.95L100.19 572.28 99.02 576.5C97.47 582.11 95.9 587.78 94.32 593.5 91.25 604.8 88.39 616.01 86.29 627.11 85.79 629.88 85.21 632.66 84.86 635.41L84.24 639.55 83.98 641.24 83.75 643.5 83.31 648 83.09 650.25 82.97 652.26C82.83 654.95 82.62 657.53 82.52 660.28 82.06 671.44 82.39 682.66 83 693.54 83.6 704.43 84.74 715 85.97 725.02 87.25 735.05 88.73 744.52 90.3 753.23 93.41 770.68 96.8 785.09 99.36 795.12 100.6 800.15 101.7 804.06 102.44 806.73 103.18 809.4 103.57 810.83 103.57 810.83L103.65 811.12C105.73 818.7 101.27 826.53 93.7 828.6 86.42 830.6 78.89 826.51 76.47 819.46 76.47 819.46 75.97 817.99 75.03 815.23 74.09 812.47 72.69 808.43 71.07 803.24 67.76 792.87 63.3 777.99 58.93 759.83 56.73 750.76 54.57 740.86 52.57 730.3 50.62 719.73 48.73 708.53 47.37 696.76 46 685 44.91 672.74 44.66 660.03 44.58 656.82 44.64 653.41 44.64 650.09L44.66 647.6 44.75 645.34 44.93 640.82 45.02 638.55 45.21 635.73 45.59 630.83C45.8 627.54 46.22 624.35 46.58 621.1 48.1 608.21 50.38 595.71 52.74 583.77 53.93 577.88 55.11 572.04 56.28 566.26L57.15 561.97C57.55 560.28 57.94 558.6 58.33 556.92 58.74 555.13 59.19 553.64 59.64 552.07 60.09 550.53 60.51 548.91 60.99 547.45 64.67 535.59 68.65 524.94 72.58 514.84 76.5 504.78 80.47 495.45 84.2 486.84 87.95 478.25 91.56 470.42 94.87 463.49 98.17 456.56 101.22 450.53 103.8 445.55 106.5 440.45 108.84 436.13 110.16 433.87 111.56 431.39 112.31 430.07 112.31 430.07 119.62 417.17 136.01 412.63 148.91 419.94 165.35 429.27 163.54 443.75 157.15 457.76Z" fill="#F3BEA7"/><g><path d="M112.15 838.14C109.96 844.74 98.97 859.12 92.8 862.44 85.23 866.51 74.07 858.46 69.05 852.92 61.8 844.9 69.6 841.4 73.39 834.06 78.06 825.01 72.36 813.79 74.18 803.88 79.38 802.03 84.7 803.65 89.81 805.38 98.07 808.19 102.12 806.78 105.88 814.85 109.07 821.65 114.76 830.31 112.15 838.14Z" fill="#F3BEA7"/><g><g><path d="M82.46 860.35C82.46 860.35 86.3 856.09 90.14 851.82 93.3 847.21 96.46 842.6 96.46 842.6L96.6 842.39C97.14 841.61 98.2 841.41 98.98 841.95 99.76 842.49 99.96 843.55 99.43 844.33 99.4 844.37 99.37 844.42 99.33 844.46 99.33 844.46 95.56 848.98 91.8 853.5 87.59 857.39 83.37 861.28 83.37 861.28 83.1 861.52 82.69 861.51 82.45 861.24 82.22 860.99 82.23 860.6 82.46 860.35Z" fill="#E6A582"/></g></g><g><g><path d="M73.14 853.29C73.14 853.29 74.04 852.31 75.38 850.84 76.81 849.41 78.27 847.29 79.91 845.29 80.6 844.2 81.28 843.11 81.93 842.09 82.64 841.1 83.1 840.1 83.41 839.23 84.12 837.53 84.6 836.4 84.6 836.4L84.76 836.01C85.13 835.14 86.13 834.73 87 835.09 87.87 835.46 88.28 836.46 87.91 837.33 87.9 837.36 87.88 837.41 87.86 837.44 87.86 837.44 87.21 838.71 86.24 840.63 85.79 841.61 85.18 842.67 84.35 843.66 83.58 844.69 82.76 845.78 81.94 846.88 80.06 848.85 78.3 850.98 76.8 852.26 75.34 853.62 74.37 854.52 74.37 854.52 74.02 854.85 73.46 854.83 73.13 854.48 72.83 854.14 72.83 853.62 73.14 853.29Z" fill="#E6A582"/></g></g></g><path d="M78.38 796.7C86.71 795.14 94.67 792.21 102.88 790.25 103.89 795.55 105.6 801.77 106.57 806.27 102.19 810.01 75.12 816.75 66.98 815.5 65.59 810.41 64.13 804.78 62.66 798.74 67.93 798.33 73.17 797.68 78.38 796.7Z" fill="#F6F6F6"/><path d="M103.17 565.8C99.89 574.87 96.92 584.09 94.32 593.5 85.34 626.51 86.27 658.11 88.2 692.31 88.79 703.19 89.94 713.77 91.17 723.79 92.45 733.81 95.24 744.04 96.8 752.75 98.6 762.88 104.09 783.22 105.86 791.05 101.23 794.78 68.91 804.08 60.31 802.82 58.09 795.1 55.28 772.94 52.91 763.09 50.71 754.01 48.55 744.11 46.55 733.56 44.6 722.99 42.72 711.78 41.35 700.02 37.42 666.28 39.72 631.79 44.7 598.31 49.7 564.68 57.77 531.45 70.77 499.98 81.2 474.75 92.97 450.13 110.17 428.11 119.5 416.16 135.26 410.67 149.63 418.81 157.64 423.34 163.23 430.66 163.68 439.78 164.24 451.07 155.72 463.24 150.05 472.28 147.45 476.56 133.17 502.62 129.08 510.45 119.28 529.27 110.32 546.06 103.17 565.8Z" fill="#62A3B7"/></g><path d="M199.13 399.08C156.04 394.46 151.43 462.51 141.34 504.98 138.28 517.86 132.32 526.96 144.8 538.16 149.7 542.56 162.92 552.22 160.23 559.41 155.01 573.4 138.83 573.11 142.14 588.82 144.87 601.74 155.09 636.53 158.31 649.3 162.74 666.9 169.44 684.05 173.17 701.8 175.18 711.38 179.69 722.09 181.47 731.7 184.76 678.39 189.49 611.1 183.57 565.28 179.94 537.17 179.28 508.95 180.85 480.67 181.5 468.99 190.33 411.61 199.13 399.08Z" fill="#70AEC1"/></g></svg>