<svg width="467.59" height="491.47" viewBox="0 0 467.59 491.47" xmlns="http://www.w3.org/2000/svg" xmlns:xlink="http://www.w3.org/1999/xlink" xml:space="preserve" overflow="hidden"><defs></defs><g id="g167545_1_" transform="matrix(1.06711 0 0 1.06711 32.6078 -139.572)"><g id="path161194_1_"><path d="M3.93 535.9C3.85 538.4-0.12 572.98 1.23 580.54 2.58 588.1 6.21 591.02 24.46 591.02 42.71 591.02 75.11 589.19 83.13 589.19 91.15 589.19 88.95 572.68 86.49 568.47 84.03 564.27 56.59 557.14 48.81 554.51 41.03 551.88 40.31 536.91 40.31 536.91L3.93 535.9Z" fill="#FBB383"/></g><g id="path162752_1_"><path d="M3.93 535.9C-3.92 606.4-1.11 589.69 71.96 589.52 71.78 584.43 69.93 575.67 66.49 573.28 61.92 570.11 30.97 568.99 29.04 566.05 28.07 564.58 27.43 557.23 27.03 550.25 33.39 550.14 38.47 547.67 41.84 545.38 40.52 541.07 40.31 536.92 40.31 536.92 29.79 536.62 14.46 536.19 3.93 535.9Z" fill="#FB8D52"/></g><g id="path158442_1_"><path d="M78.2 398.5C76.7 410.34 74.66 455.9 50.1 455.75 34.71 453.77 58.2 387.91 58.2 387.91L78.2 398.5Z" fill="#FBB383"/></g><g id="path156234_1_"><path d="M15.27 211.19C-48.08 227.97-34.34 310.55-11.08 341.93L-4.46 538.63C-4.46 538.63 21.73 551.46 43.53 538.74L67.14 326.91 15.27 211.19Z" fill="#39525B"/></g><g id="path153627_1_"><path d="M8.89 208.07C21.36 209.08 169.2 192.18 189.49 207.82 200.83 214.62 213.81 237.2 217.66 246.21 219.5 269.44 204.26 315.22 179.79 325.14 166.33 329.16 69.64 347.7 69.64 347.7 29.75 323.57 9.3 245.77 8.89 208.07L8.89 208.07Z" fill="#83BACE"/></g><g id="path166665_1_"><path d="M102.79 328.05C102.71 327.22 102.38 326.41 101.8 325.72L75.41 294.16C72.64 290.73 68.72 293.76 66.4 296.05 64.56 297.59 64.32 300.31 65.86 302.15L92.25 333.71C93.79 335.55 96.51 335.79 98.35 334.26 100.06 332.72 103.35 330.77 102.79 328.05Z" fill="#567A88"/></g><g id="path151030_1_"><path d="M237.16 239.08 211.47 239.95C211.47 239.95 202.56 265.25 207.94 270.2L240.82 270.62 237.16 239.08Z" fill="#FBB383"/></g><g id="path153625_1_"><path d="M59.86 393.51 87.81 416.17 164.75 301.14 137.47 262.37 61.63 377.6 59.86 393.51Z" fill="#83BACE"/></g><g id="path165364_1_"><path d="M137.43 343.76C136.06 343.79 135.14 342.12 135.95 340.98 137.17 340.8 163.55 295.84 165.74 299.65 166.56 300.2 166.78 301.31 166.23 302.13L138.91 342.97C138.57 343.48 138.01 343.76 137.43 343.76Z" fill="#567A88"/></g><g id="path165822_1_"><path d="M62.38 378.24C61.02 378.26 60.09 376.62 60.89 375.48 63.3 374.88 134.41 257.83 138.44 260.89 139.27 261.43 139.5 262.54 138.96 263.36 137.49 264.17 64.77 378.82 62.38 378.24Z" fill="#567A88"/></g><g><linearGradient x1="-460.897" y1="-493.235" x2="-467.06" y2="-469.219" gradientUnits="userSpaceOnUse" id="SVGID_1_" gradientTransform="matrix(-0.5813 -0.8137 -0.8137 0.5813 -361.478 197.167)"><stop offset="0.2206" stop-color="#FCE8D9"/><stop offset="1" stop-color="#F4C7BD"/></linearGradient><path d="M293.32 296.57C288.26 298.39 283.03 299.7 277.59 300.16 264.65 301.26 251.82 297.04 242.6 289.05 231.6 279.5 229.16 268.04 227.99 254.93 227.48 249.24 227.12 243.53 227.11 237.82 227.1 226.55 228.47 215.16 232.76 204.44 238.2 190.85 249.17 176.05 263.72 169.09 280.16 161.23 299.34 158.97 317.66 160.16 332.65 161.13 350.54 172.96 359.59 183.14 373.97 199.32 376.52 220.57 367.95 239.79 357.86 262.44 337.99 273.24 315.94 285.59 308.7 289.64 301.21 293.73 293.32 296.57Z" fill="#F9B799"/><g><path d="M296.46 252.91C295.59 252.85 295.03 251.43 295.21 249.74 295.39 248.05 296.24 246.74 297.11 246.8 297.98 246.86 298.54 248.28 298.36 249.97 298.18 251.66 297.33 252.98 296.46 252.91Z" fill="#F4C7BD"/><path d="M294.25 263.71C293.38 263.65 292.82 262.23 293 260.54 293.18 258.86 294.03 257.54 294.9 257.6 295.77 257.66 296.33 259.08 296.15 260.77 295.98 262.46 295.13 263.77 294.25 263.71Z" fill="#F4C7BD"/><path d="M290.02 256.94C289.15 256.88 288.59 255.46 288.77 253.77 288.95 252.08 289.8 250.77 290.67 250.83 291.54 250.89 292.1 252.31 291.92 254 291.75 255.69 290.9 257 290.02 256.94Z" fill="#F4C7BD"/></g><g><path d="M275.19 284.06C274.52 280.12 274.82 276.02 275.97 272.18 277.17 268.35 279.2 264.81 281.85 261.82L281.97 261.92C281.09 263.79 280.22 265.53 279.46 267.3 279.28 267.75 279.11 268.2 278.91 268.63 278.73 269.07 278.57 269.52 278.4 269.96 278.07 270.85 277.75 271.74 277.49 272.65 277.34 273.1 277.22 273.55 277.08 274.01 276.95 274.46 276.87 274.93 276.74 275.39 276.62 275.85 276.53 276.31 276.42 276.78 276.34 277.25 276.25 277.72 276.14 278.18 275.8 280.07 275.58 281.99 275.34 284.04L275.19 284.06Z" fill="#E08D80"/></g><path d="M302.86 298.1C302.23 300.2 301.9 302.81 299.67 303.7 298.48 304.17 297.06 303.95 295.96 303.35 294.86 302.76 294.03 301.84 293.3 300.9 292.41 299.75 291.61 298.45 291.59 297.05 291.56 294.81 293.5 292.91 295.61 291.67 299.17 289.59 304.3 288.39 308.4 289.51 306.68 292.45 303.85 294.8 302.86 298.1Z" fill="url(#SVGID_1_)"/><g><path d="M306.05 250.77C306.96 252.46 304.29 258.74 303.74 260.61 303.1 262.81 302.29 264.97 301.33 267.08 301.14 267.5 298.63 272.63 298.47 272.54 301.26 274.14 304.43 274.57 307.71 274.53 309.62 274.5 311.53 274.33 313.41 274.01 313.86 273.93 318.68 272.77 318.64 272.71 316.62 269.1 314.41 266.67 312.25 263.13 310.26 259.85 306.89 254.44 306.05 250.77Z" fill="#FFFFFF"/><g><defs><path d="M306.05 250.77C306.96 252.46 304.29 258.74 303.74 260.61 303.1 262.81 302.29 264.97 301.33 267.08 301.14 267.5 298.63 272.63 298.47 272.54 301.26 274.14 304.43 274.57 307.71 274.53 309.62 274.5 311.53 274.33 313.41 274.01 313.86 273.93 318.68 272.77 318.64 272.71 316.62 269.1 314.41 266.67 312.25 263.13 310.26 259.85 306.89 254.44 306.05 250.77Z" id="SVGID_2_"/></defs><clipPath id="SVGID_3_"><use width="100%" height="100%" xlink:href="#SVGID_2_" overflow="visible"></use></clipPath><g clip-path="url(#SVGID_3_)"><path d="M306.21 278.9C311 281.38 317.18 279.9 320.02 275.6 322.86 271.3 321.29 265.81 316.5 263.33 311.71 260.85 305.53 262.33 302.69 266.63 299.85 270.94 301.43 276.43 306.21 278.9Z" fill="#8C7257"/><path d="M310.49 275.36C312.21 276.25 314.44 275.72 315.47 274.17 316.49 272.62 315.93 270.64 314.2 269.75 312.48 268.86 310.25 269.39 309.22 270.94 308.19 272.49 308.76 274.47 310.49 275.36Z" fill="#3A3129"/><path d="M313.61 267.06C313.6 266.4 313.6 265.74 313.38 265.11 313.06 264.19 312.52 263.85 311.47 263.78 311.18 263.76 310.89 263.74 310.6 263.76 309.36 263.84 307.47 264.75 306.88 265.77 306.53 266.37 307.04 267.06 307.54 267.55 308.72 268.74 310.99 271.54 312.76 271.97 314.09 272.3 313.67 271.56 313.65 270.36 313.63 269.28 313.62 268.17 313.61 267.06Z" fill="#FFFFFF" opacity="0.2"/><path d="M305.05 268.58C304.99 268.54 304.92 268.49 304.85 268.48 304.7 268.47 304.58 268.6 304.51 268.73 304.27 269.13 304.07 269.57 304.03 270.02 303.99 270.47 304.12 270.95 304.46 271.29 304.78 271.6 305.24 271.76 305.7 271.89 306.22 272.03 310.02 272.82 309.25 271.64 308.88 271.07 307.75 270.54 307.17 270.12 306.45 269.61 305.75 269.09 305.05 268.58Z" fill="#FFFFFF" opacity="0.2"/></g></g><g><path d="M319.85 275.31C318.46 273.4 317.08 271.51 315.73 269.58 314.38 267.65 313.12 265.66 311.95 263.61 310.79 261.56 309.6 259.52 308.54 257.41 307.5 255.3 306.5 253.12 306 250.8L306.11 250.77C306.76 253.03 307.92 255.09 309.08 257.11 310.25 259.14 311.52 261.11 312.82 263.07 314.11 265.02 315.45 266.96 316.65 268.98 317.86 271 319.03 273.06 319.95 275.25L319.85 275.31Z" fill="#5E5149"/></g></g><path d="M394.48 168.82C400.19 179.67 404.49 191.19 406.46 203.17 409.08 219.08 407.41 235.88 400.05 250.44 395.42 259.62 388.48 267.9 379.84 274.42 370.68 281.33 359.34 283.96 347.34 281.89 337.91 280.26 329.12 275.07 324.89 267.41 329.77 268.18 334.76 268.43 339.72 268.15 333.82 268.48 325.71 261.03 321.89 257.66 315.98 252.44 311.16 246.28 307.27 239.73 305.18 236.2 303.13 232.35 299.46 230.3 296.64 228.73 293.21 228.44 289.94 228.73 283.83 229.27 277.63 232 274.47 237.01 277.92 228.74 284.99 221.87 293.62 218.42 285.66 219.61 278.15 223.48 272.75 229.18 272.61 225.3 276.2 222.33 279.46 219.97 282.83 217.54 286.21 215.1 289.58 212.67 290.6 211.94 291.66 211.14 292.14 210.02 292.53 209.08 292.46 208.04 292.32 207.04 291.46 201.13 287.71 195.33 281.84 193.22 275.06 190.79 267.54 193.66 260.29 193.82 248.19 194.09 236.5 185.76 233.41 174.65 236.88 175.38 240.48 175.58 244.03 175.25 240.7 171.62 242.86 167.86 245.43 164.33 253.35 153.44 261.84 142.08 274.4 136.37 282.1 132.87 290.74 131.79 299.23 131.13 308.56 130.4 318.82 130.38 326.09 135.94 343.11 130.74 363.31 132.31 376.53 143.62 381.39 147.78 385.09 153.01 388.44 158.35 390.59 161.77 392.61 165.26 394.48 168.82Z" fill="#111010"/><path d="M274.49 237C277.66 232 283.86 229.26 289.96 228.72 293.22 228.43 296.66 228.72 299.48 230.29 303.16 232.34 305.2 236.19 307.29 239.72 311.17 246.27 316 252.43 321.91 257.65 325.72 261.02 333.84 268.47 339.74 268.14 329.77 261.34 321.1 252.29 315.84 242.12 313.18 236.98 311.01 231.27 306 227.81 301.16 224.46 294.29 223.9 288.44 225.72 282.61 227.55 277.77 232.31 274.49 237Z" opacity="0.15"/><path d="M267.12 210.46C264.66 205.19 265.18 198.87 268.48 193.91 271.78 188.95 277.78 185.48 284.18 184.83 284.42 184.81 284.68 184.79 284.89 184.89 285.18 185.03 285.3 185.34 285.39 185.63 285.95 187.42 286.52 189.21 287.08 190.99L267.12 210.46Z" opacity="0.15"/><path d="M401.63 216.17C402.33 227.76 400.96 239.9 394.28 249.96 387.61 260.01 374.65 267.43 361.77 265.76 367.46 263.43 372.53 259.87 376.43 255.49 364.31 254.57 352.83 248.85 345.67 240.16 338.92 231.97 335.65 221.16 326.35 215.28 330.75 214.29 335.31 213.89 339.83 214.08 337.75 208.84 333.64 204.28 328.35 201.35 342.52 194.35 353.47 182.25 358.11 168.45 359.29 164.94 360.08 161.27 359.65 157.65 358.95 151.81 355.06 146.57 350.03 142.83 356.56 142.57 362.92 144.88 368.22 148.22 391.21 162.68 400.19 192.23 401.63 216.17Z" fill="#FFFFFF" opacity="0.1"/></g></g></svg>