<svg width="181.09" height="187.93" viewBox="0 0 181.09 187.93" xmlns="http://www.w3.org/2000/svg" xmlns:xlink="http://www.w3.org/1999/xlink" xml:space="preserve" overflow="hidden"><defs></defs><g><g><path d="M136.84 43.12C136.84 43.12 140.52 36.87 140.15 34.29 140.15 34.29 133.9 29.51 132.79 23.99 131.69 18.47 130.95 3.76 133.89 1.19 136.83-1.38 175.82-0.28 180.23 9.28 184.64 18.84 171.04 41.28 162.21 41.64 153.38 42.01 144.19 37.23 144.19 37.23L136.84 43.12Z" fill="#FC5F3C"/><g><path d="M147.77 26.47C147.65 26.74 147.55 26.91 147.22 26.87 145.77 26.71 144.89 25.54 144.45 24.83 144.32 24.62 144.28 24.37 144.31 24.09 144.4 23.29 144.67 22.25 144.86 21.68 144.92 21.49 145.08 21.29 145.43 21.33 146.17 21.41 147.41 21.79 148.12 22.37 148.4 22.6 148.67 23.15 148.56 23.51 148.23 24.66 148.06 25.76 147.77 26.47ZM148.57 20.41C148.45 20.68 147.98 21.02 147.65 20.99 146.2 20.83 145.95 20.36 145.73 19.94 145.6 19.71 145.54 19.04 145.55 18.76 145.69 15.12 146.44 12.16 147.03 10.97 147.12 10.8 147.51 10.59 147.86 10.62 148.6 10.7 150.23 11.21 150.74 11.49 151.07 11.66 151.68 12.12 151.46 12.89 150.76 15.33 149.26 18.8 148.57 20.41Z" fill="#F4EEED"/><path d="M154.93 27.27C154.81 27.54 154.71 27.71 154.38 27.67 152.93 27.51 152.05 26.34 151.61 25.63 151.48 25.42 151.44 25.17 151.47 24.89 151.56 24.09 151.83 23.05 152.02 22.48 152.08 22.29 152.24 22.09 152.59 22.13 153.33 22.21 154.58 22.59 155.28 23.17 155.56 23.4 155.83 23.95 155.72 24.31 155.39 25.46 155.23 26.56 154.93 27.27ZM155.74 21.21C155.62 21.48 155.14 21.82 154.82 21.79 153.37 21.63 153.12 21.16 152.9 20.74 152.77 20.51 152.72 19.84 152.73 19.56 152.87 15.92 153.62 12.96 154.21 11.77 154.29 11.6 154.69 11.39 155.04 11.42 155.78 11.5 157.41 12.01 157.92 12.29 158.25 12.46 158.86 12.92 158.64 13.68 157.92 16.13 156.42 19.6 155.74 21.21Z" fill="#F4EEED"/><path d="M162.09 28.07C161.97 28.34 161.87 28.51 161.54 28.47 160.09 28.31 159.21 27.14 158.77 26.43 158.64 26.22 158.6 25.97 158.63 25.69 158.72 24.89 158.99 23.85 159.18 23.28 159.24 23.09 159.4 22.89 159.75 22.93 160.49 23.01 161.73 23.39 162.44 23.97 162.72 24.2 162.99 24.75 162.88 25.11 162.56 26.26 162.39 27.36 162.09 28.07ZM162.9 22.01C162.78 22.28 162.31 22.62 161.98 22.59 160.53 22.43 160.28 21.96 160.06 21.54 159.93 21.31 159.87 20.64 159.89 20.36 160.03 16.72 160.78 13.76 161.37 12.57 161.45 12.4 161.85 12.19 162.2 12.22 162.94 12.3 164.57 12.81 165.08 13.09 165.41 13.26 166.02 13.72 165.8 14.48 165.09 16.93 163.58 20.4 162.9 22.01Z" fill="#F4EEED"/></g></g><path d="M45.4 54.29 40.25 49.51C40.25 49.51 17.08 59.07 9.36 53.55 1.64 48.03-4.62 34.06 4.58 24.87 13.77 15.68 39.89 3.17 48.35 11.26 56.81 19.35 54.6 36.64 50.56 41.05 46.51 45.46 43.57 46.93 43.57 46.93L45.4 54.29Z" fill="#FFFFFF"/><g><path d="M23.25 32.29C23.18 32.53 23.06 32.89 23.03 33.27 22.85 33.68 22.66 33.94 22.13 34.06 21.77 34.15 20.86 34.37 20.15 34.09 19.87 33.99 19.56 33.46 19.49 33.06 18.93 30.13 21.3 29.95 20.88 28.33 20.79 27.68 20.05 27.42 19.41 27.64 18.6 27.93 18.24 29.35 18.38 30.27 18.49 30.96 17.42 31.58 16.82 31.37L14.89 31C14.61 30.9 14.21 30.4 14.14 29.67 13.91 27.45 15.15 24.9 16.88 24.18 18.3 23.58 22.53 23.19 23.99 23.99 24.25 24.12 25.2 25.15 25.41 26.22 26.38 29.01 24.02 30.34 23.25 32.29ZM23.48 35.24C22.45 35.01 21.28 35.44 20.48 35.75 20.09 35.9 20.04 36.18 20.08 36.4 20.18 37.12 20.37 38.09 20.71 38.96 20.83 39.28 21.02 39.49 21.26 39.64 22.11 40.15 23.21 40.48 24.78 39.87 25.14 39.73 25.14 39.52 25.13 39.16 25.05 38.28 24.84 37.54 24.54 36.16 24.47 35.75 23.88 35.32 23.48 35.24Z" fill="#362C71"/><path d="M35.48 27.54C35.41 27.78 35.29 28.14 35.26 28.52 35.08 28.93 34.89 29.19 34.36 29.31 34 29.4 33.09 29.62 32.38 29.34 32.1 29.24 31.79 28.7 31.72 28.31 31.16 25.38 33.53 25.2 33.11 23.58 33.02 22.93 32.28 22.67 31.64 22.89 30.83 23.18 30.47 24.6 30.61 25.52 30.72 26.21 29.65 26.83 29.05 26.62L27.12 26.24C26.84 26.14 26.44 25.64 26.37 24.91 26.14 22.69 27.38 20.14 29.11 19.42 30.53 18.82 34.75 18.43 36.22 19.23 36.48 19.36 37.43 20.39 37.64 21.46 38.61 24.26 36.25 25.59 35.48 27.54ZM35.71 30.49C34.68 30.26 33.51 30.69 32.71 31 32.32 31.15 32.28 31.43 32.31 31.66 32.41 32.38 32.6 33.35 32.94 34.22 33.06 34.54 33.25 34.75 33.49 34.9 34.34 35.41 35.44 35.74 37.01 35.13 37.37 34.99 37.37 34.78 37.36 34.42 37.28 33.53 37.07 32.8 36.77 31.42 36.7 31 36.11 30.57 35.71 30.49Z" fill="#362C71"/></g><path d="M49.4 183.22C49.4 183.22 117.95 194.77 145.67 181.68 145.68 181.68 75.59 173.98 49.4 183.22Z" fill="#03968E" opacity="0.3"/><g><linearGradient x1="130.922" y1="104.489" x2="120.745" y2="170.508" gradientUnits="userSpaceOnUse" id="SVGID_2_"><stop offset="1.953e-05" stop-color="#3D2B1D"/><stop offset="0.9847" stop-color="#542D17"/></linearGradient><linearGradient x1="64.4901" y1="105.839" x2="72.6503" y2="59.9253" gradientUnits="userSpaceOnUse" id="SVGID_3_"><stop offset="0.005" stop-color="#122C3F"/><stop offset="1" stop-color="#12354D"/></linearGradient><linearGradient x1="90.3193" y1="88.2821" x2="91.64" y2="72.5618" gradientUnits="userSpaceOnUse" id="SVGID_4_"><stop offset="0" stop-color="#F6D4B5"/><stop offset="1" stop-color="#F7BB9F"/></linearGradient><linearGradient x1="65.8777" y1="68.6598" x2="67.3069" y2="60.6189" gradientUnits="userSpaceOnUse" id="SVGID_7_"><stop offset="0.005" stop-color="#122C3F"/><stop offset="1" stop-color="#12354D"/></linearGradient><linearGradient x1="52.0086" y1="104.527" x2="57.4499" y2="73.9115" gradientUnits="userSpaceOnUse" id="SVGID_8_"><stop offset="0.005" stop-color="#122C3F"/><stop offset="1" stop-color="#12354D"/></linearGradient><linearGradient x1="77.7835" y1="103.638" x2="83.2087" y2="73.1126" gradientUnits="userSpaceOnUse" id="SVGID_9_"><stop offset="0.005" stop-color="#122C3F"/><stop offset="1" stop-color="#12354D"/></linearGradient><linearGradient x1="131.295" y1="116.972" x2="122.803" y2="172.06" gradientUnits="userSpaceOnUse" id="SVGID_11_"><stop offset="1.953e-05" stop-color="#3D2B1D"/><stop offset="0.9847" stop-color="#542D17"/></linearGradient><linearGradient x1="132.071" y1="178.157" x2="132.008" y2="178.571" gradientUnits="userSpaceOnUse" id="SVGID_12_"><stop offset="1.953e-05" stop-color="#3D2B1D"/><stop offset="0.9847" stop-color="#542D17"/></linearGradient><linearGradient x1="132.071" y1="178.157" x2="132.008" y2="178.571" gradientUnits="userSpaceOnUse" id="SVGID_13_"><stop offset="1.953e-05" stop-color="#3D2B1D"/><stop offset="0.9847" stop-color="#542D17"/></linearGradient><linearGradient x1="139.439" y1="105.74" x2="129.64" y2="169.305" gradientUnits="userSpaceOnUse" id="SVGID_14_"><stop offset="1.953e-05" stop-color="#3D2B1D"/><stop offset="0.9847" stop-color="#542D17"/></linearGradient><path d="M82.08 106.16 81.99 109.01 81.67 118.69 81.23 121.48 75.98 154.67 72.36 177.55 69.47 178.34C69.47 178.34 69.47 178.34 69.15 178.4 68.96 178.44 68.65 178.5 68.16 178.6 68.1 178.61 68.04 178.62 67.98 178.63 66.69 178.8 65 178.19 64.62 177.94 64.44 177.82 62.13 165.8 59.67 152.7 57.55 141.37 55.31 129.22 54.24 123.28 53.86 121.18 53.64 119.85 53.61 119.61 53.18 115.51 52.87 111.1 52.66 107.56 52.64 107.18 52.61 106.81 52.59 106.45 53.67 106.6 54.46 106.63 54.46 106.63 54.46 106.63 53.86 102.01 54.2 102.24 54.28 102.29 54.75 102.49 55.52 102.75 56.27 103.01 57.3 103.33 58.53 103.65 60.38 104.13 62.7 104.61 65.21 104.87 65.34 104.88 65.47 104.89 65.61 104.91 66 104.94 66.39 104.97 66.79 105 67.13 105.02 67.47 105.03 67.82 105.04 67.95 105.04 68.08 105.05 68.21 105.04 70.94 105.1 73.7 104.84 75.91 104.54 77.2 104.36 78.3 104.18 79.12 104.02 80.08 103.84 80.65 103.71 80.65 103.71L80.68 105.97C80.69 105.98 81.22 106.09 82.08 106.16Z" fill="#4E4E4E"/><g opacity="0.4"><path d="M68.22 105.04 67.96 111.72 65.63 108.81 65.23 104.87C65.36 104.88 65.49 104.89 65.63 104.91L66.01 108.65 67.61 110.65 67.83 105.03C67.95 105.04 68.09 105.05 68.22 105.04Z" fill="#4E4E4E"/></g><path d="M58.54 103.65C57.12 105.68 54.19 107.94 53.03 107.85 52.9 107.84 52.77 107.74 52.67 107.57 52.65 107.19 52.62 106.82 52.6 106.46 53.68 106.61 54.47 106.64 54.47 106.64 54.47 106.64 53.87 102.02 54.21 102.25 54.29 102.3 54.76 102.5 55.53 102.76 56.27 103.01 57.31 103.33 58.54 103.65Z" fill="#4E4E4E" opacity="0.4"/><path d="M82.08 106.16 81.99 109.01C79.84 108.65 77.05 106.51 75.92 104.54 77.21 104.36 78.31 104.18 79.13 104.02 80.09 103.84 80.66 103.71 80.66 103.71L80.69 105.97C80.69 105.98 81.22 106.09 82.08 106.16Z" fill="#4E4E4E" opacity="0.4"/><g><linearGradient x1="114.835" y1="68.8258" x2="116.144" y2="64.6356" gradientUnits="userSpaceOnUse" id="SVGID_1_"><stop offset="0" stop-color="#F6D4B5"/><stop offset="1" stop-color="#F7BB9F"/></linearGradient><path d="M120.66 61.35 118.82 66.76 118.63 67.31C118.63 67.31 118.24 67.73 117.39 68.1 117.03 68.25 116.6 68.4 116.08 68.49 114.31 68.82 113.59 67.96 113.59 67.96L113.28 67.28 112.68 66 112.41 65.41C112.41 65.41 114.05 65.28 116.47 64.62 118.82 63.99 120.56 61.51 120.66 61.35Z" fill="url(#SVGID_1_)"/><path d="M120.66 61.35 118.82 66.76 118.63 67.31C118.63 67.31 118.24 67.73 117.39 68.1 116.53 67.53 114.17 66.31 112.68 66L112.41 65.41C112.41 65.41 114.05 65.28 116.47 64.62 118.82 63.99 120.56 61.51 120.66 61.35Z" fill="#E78865" opacity="0.2"/></g><path d="M135.28 103.55C135.28 103.55 129.38 106.57 124.6 107.03 119.81 107.49 115.16 107.22 115.16 107.22 115.16 107.22 115.05 106.78 114.89 106.02 114.41 103.98 113.42 99.65 112.61 95.81 111.5 90.56 109 84.01 109 84.01 109 84.01 106.77 87.41 105 89.38 103.23 91.35 101.2 93.31 99.04 93.12 96.88 92.92 94.71 89.65 94.71 89.65 94.71 89.65 95.67 89.06 96.54 87.83 96.7 87.61 96.86 87.36 97 87.1 98.05 85.2 98.25 83.1 98.25 83.1L99.89 84.54C99.89 84.54 107.49 68.88 108.41 67.37 108.57 67.11 108.82 66.93 109.12 66.82 110.35 66.36 112.49 67.01 113.28 67.29L113.59 67.97C113.59 67.97 114.31 68.82 116.08 68.5 117.85 68.17 118.64 67.32 118.64 67.32L118.83 66.77C119.32 66.68 121.28 66.42 123.59 67.12 124.03 67.25 124.48 67.42 124.94 67.64 126.07 68.17 127.05 69.12 127.92 70.38 128.75 71.58 129.48 73.06 130.12 74.73 130.12 74.73 130.12 74.73 130.12 74.74 130.75 76.37 131.31 78.18 131.82 80.09 133.38 86.05 135.28 103.55 135.28 103.55Z" fill="#F0A000"/><path d="M129.17 87.45C127.6 92.17 126.32 95.46 124.3 95.76 122.28 96.05 121.4 95.27 120.37 94.53 120.37 94.53 120.96 94.14 121.35 93.25 121.74 92.37 121.79 91.63 121.79 91.63 123.41 93.45 124.35 92.76 124.79 92.27 125.23 91.78 128.04 87.11 128.53 81.06 128.87 76.91 128.51 73.21 127.9 70.39 128.73 71.59 129.46 73.07 130.1 74.74 130.1 74.74 130.1 74.74 130.1 74.75 130.45 78.42 130.38 83.81 129.17 87.45Z" fill="#F0A000" opacity="0.26"/><path d="M114.89 106.03C114.41 103.99 113.42 99.66 112.61 95.82 111.5 90.57 109 84.02 109 84.02 109 84.02 106.77 87.42 105 89.39 103.23 91.36 101.2 93.32 99.04 93.13 96.88 92.93 94.71 89.66 94.71 89.66 94.71 89.66 95.67 89.07 96.54 87.84 98.1 89.7 98.95 90.47 99.67 90.69 100.46 90.94 101.24 90.45 101.24 90.45 101.24 90.45 103.95 88.19 106.4 84.6 108.86 81.01 108.51 78.06 108.66 78.61 108.81 79.15 110.63 83.7 112.53 89.86 113.92 94.32 114.61 102.09 114.89 106.03Z" fill="#F0A000" opacity="0.21"/><path d="M123.58 67.12C122.72 67.93 121.56 68.93 120.43 69.56 118.22 70.79 115.61 69.95 115.46 70.05 115.32 70.15 112.41 70.1 110.6 68.53 109.6 67.67 109.4 67.13 109.13 66.83 110.36 66.37 112.5 67.02 113.29 67.3L113.6 67.98C113.6 67.98 114.32 68.83 116.09 68.51 117.86 68.18 118.65 67.33 118.65 67.33L118.84 66.78C119.31 66.68 121.28 66.41 123.58 67.12Z" fill="#F0A000" opacity="0.4"/><path d="M123.22 69.46C121.7 71.82 121.21 73.15 121.21 77.82 121.21 82.49 122 86.18 122 86.18 122 86.18 122.05 83.03 121.95 78.76 121.85 74.48 122.05 73.25 122.39 72.03 122.73 70.78 123.22 69.46 123.22 69.46Z" fill="#F0A000" opacity="0.26"/><path d="M58.73 118.82C57.73 121.15 55.06 122.81 54.25 123.28 53.87 121.18 53.65 119.85 53.62 119.61 53.14 115.07 52.81 110.15 52.6 106.45 53.68 106.6 54.47 106.63 54.47 106.63 54.47 106.63 53.87 102.01 54.21 102.24 54.29 102.29 54.76 102.49 55.53 102.75L55.98 113.05C55.98 113.06 59.91 116.07 58.73 118.82Z" fill="#4E4E4E" opacity="0.4"/><path d="M82.08 106.16 81.67 118.69 81.23 121.48C79.61 121.1 77.13 120.12 77.22 117.64 77.22 117.64 76.17 115.54 77.22 113.84L78.53 111.48C78.53 111.48 79.18 107.73 79.14 104.02 80.1 103.84 80.67 103.71 80.67 103.71L80.7 105.97C80.69 105.98 81.22 106.09 82.08 106.16Z" fill="#4E4E4E" opacity="0.4"/><path d="M132.9 175.23C132.9 175.23 132.9 175.24 132.9 175.24 132.59 176.12 132.36 176.71 132.3 176.89 132.3 176.9 132.3 176.9 132.3 176.9 132.29 176.93 132.28 176.95 132.28 176.95L132.19 177C132.19 177 132.19 177 132.19 177L131.97 177.12 131.4 177.43C131.4 177.43 129.53 156.79 129.24 150.89 128.95 144.99 125.6 118.94 125.6 118.94L119.7 144.3C122.35 146.86 124.71 151.87 124.22 157.47 123.89 161.22 121.86 178.11 121.86 178.11L121.41 177.99 120.38 177.71C120.38 177.71 114.68 155.49 113.79 151.17 112.91 146.84 112.02 143.3 112.51 139.77 112.89 137.02 114.28 118.92 114.88 110.96 114.89 110.81 114.9 110.66 114.91 110.52 115.07 108.47 115.16 107.2 115.16 107.2 115.16 107.2 116.27 107.2 117.88 107.17 118.01 107.17 118.14 107.16 118.27 107.16 119.7 107.12 121.45 107.05 123.14 106.91 123.24 106.9 123.34 106.89 123.43 106.89 124.02 106.84 124.59 106.78 125.14 106.71 125.24 106.7 125.34 106.69 125.43 106.67 125.68 106.64 125.93 106.6 126.16 106.56 127.95 106.27 129.83 105.67 131.41 105.08 131.5 105.04 131.59 105.01 131.69 104.97 132.16 104.79 132.6 104.61 133 104.45 134.3 103.9 135.14 103.48 135.14 103.48 135.14 103.48 135.53 105.44 135.84 108.58 135.85 108.68 135.86 108.78 135.87 108.88 136.07 111.06 136.23 113.78 136.19 116.78 136.09 124.35 135.11 142.73 135.11 142.73 135.11 142.73 137.57 146.27 138.45 152.17 139.18 156.99 134.61 170.43 132.9 175.23Z" fill="url(#SVGID_2_)"/><path d="M88.68 105.52C88.68 105.52 86.94 106.01 84.68 106.18 83.67 106.26 82.77 106.22 82.08 106.17 82.01 106.16 81.94 106.16 81.87 106.15 81.13 106.08 80.68 105.98 80.68 105.98L80.65 103.72C80.65 103.72 80.08 103.85 79.12 104.03 76.64 104.49 71.53 105.28 66.79 105 61.5 104.68 56.79 103.23 54.98 102.56 54.54 102.39 54.26 102.28 54.21 102.24 53.87 102.02 54.47 106.63 54.47 106.63 54.47 106.63 53.68 106.6 52.6 106.45 52.52 106.44 52.45 106.43 52.37 106.41 51.72 106.32 51 106.18 50.27 105.97 48.21 105.38 47.32 104.86 47.32 104.86 47.32 104.86 45.87 100.1 45.09 90.9 44.14 79.63 46.34 71.76 47.71 68.52 48.64 66.33 52.17 64.41 55.12 63.09 56.29 62.56 57.37 62.13 58.16 61.82 58.66 62.64 59.37 63.52 60.39 64.39 63.88 67.34 68.01 68.18 72.09 64.68 73.03 63.87 73.8 63.04 74.42 62.23 75.12 62.43 76.74 62.91 78.51 63.5 80.89 64.29 83.53 65.27 84.57 66.06 86.63 67.63 89.98 73.33 90.08 81.3 90.19 89.27 88.68 105.52 88.68 105.52Z" fill="url(#SVGID_3_)"/><path d="M98.25 83.1C98.25 83.1 98.18 85.53 96.87 87.56 96.81 87.65 96.75 87.74 96.69 87.82 95.67 89.27 94.71 89.65 94.71 89.65 94.71 89.65 93.73 87.88 92.42 84.86 91.11 81.85 88.81 75.1 88.81 75.1 88.81 75.1 87.89 74.84 86.65 74.38 85.59 73.99 84.46 73.18 84.21 72.58 84.16 72.47 84.14 72.37 84.16 72.28 84.29 71.64 86.53 72.87 86.65 72.93 86.53 72.79 84.04 69.85 84.43 69.53 84.81 69.21 87.41 71.55 87.57 71.68 87.43 71.49 85.31 68.72 86.07 68.28 86.81 67.85 88.42 70.84 88.61 71.19 88.46 70.82 87.23 67.66 87.71 67.42 87.84 67.35 88.23 67.62 88.95 69.32 89.48 70.58 90.66 72.34 90.66 72.34 90.66 72.34 91.71 70.77 92.1 70.24 92.49 69.71 92.69 69.91 92.82 70.96 92.95 72.01 91.11 73.71 91.11 73.71L97.14 81.77 98.25 83.1Z" fill="url(#SVGID_4_)"/><g><linearGradient x1="51.9057" y1="105.291" x2="52.8889" y2="117.089" gradientUnits="userSpaceOnUse" id="SVGID_5_"><stop offset="0" stop-color="#F6D4B5"/><stop offset="1" stop-color="#F78D86"/></linearGradient><path d="M57.36 116.53C57.27 117.21 57.01 117.73 56.75 118.09 56.71 118.14 56.68 118.18 56.65 118.22 56.54 118.36 56.44 118.47 56.35 118.56 56.2 118.7 56.11 118.76 56.11 118.76 56.11 118.76 56.37 119.74 54.41 120.27 52.44 120.8 49.37 118.83 48.84 117.52 48.81 117.45 48.79 117.38 48.77 117.31L48.77 117.31C48.42 116 49.3 114.12 49.3 114.12 49.3 114.12 48.66 110.92 48.19 109.01 47.6 106.65 47.34 104.88 47.34 104.88 47.49 105.03 49.98 105.99 52.37 106.43 53.11 106.57 53.84 106.65 54.49 106.65L54.88 113.4C54.87 113.38 57.55 115.02 57.36 116.53Z" fill="url(#SVGID_5_)"/><path d="M57.36 116.53C57.27 117.21 57.01 117.73 56.75 118.09 56.71 118.14 56.68 118.18 56.65 118.22 56.66 118.13 56.65 118.04 56.64 117.95 56.58 117.22 56.2 116.5 55.76 115.84 55.67 115.71 55.59 115.59 55.5 115.48 55.5 115.48 55.5 115.48 55.5 115.48 54.96 114.75 54.43 114.15 54.34 113.79 54.18 113.15 52.91 108.47 52.36 106.43 53.1 106.57 53.83 106.65 54.48 106.65L54.87 113.4C54.87 113.38 57.55 115.02 57.36 116.53Z" fill="#E78865" opacity="0.2"/><path d="M54.41 120.27C52.44 120.8 49.37 118.83 48.84 117.52 48.81 117.45 48.79 117.38 48.77 117.31 49.55 118.33 50.83 118.9 52.64 118.9 54.93 118.9 56.11 118.77 56.11 118.77 56.11 118.77 56.37 119.74 54.41 120.27Z" fill="#E78865" opacity="0.2"/><path d="M56.75 118.09C56.71 118.14 56.68 118.18 56.65 118.22 56.54 118.36 56.44 118.47 56.35 118.56 55.65 117.95 54.61 116.71 54.99 115.88 55.17 115.49 55.35 115.4 55.49 115.47 55.49 115.47 55.49 115.47 55.49 115.47 55.59 115.52 55.68 115.66 55.75 115.83 55.83 116.02 55.88 116.26 55.9 116.46 55.94 116.83 56.32 117.46 56.63 117.93 56.68 117.99 56.72 118.04 56.75 118.09Z" fill="#E78865" opacity="0.2"/></g><g><linearGradient x1="85.0253" y1="105.733" x2="81.6828" y2="118.317" gradientUnits="userSpaceOnUse" id="SVGID_6_"><stop offset="0" stop-color="#F6D4B5"/><stop offset="1" stop-color="#F78D86"/></linearGradient><path d="M88.55 106.24C88.09 109.45 86.65 113.91 86.65 113.91 86.65 113.91 86.78 117.38 86.26 118.49 85.74 119.61 82.92 120.59 80.43 119.8 78.65 119.24 78.54 118.08 78.62 117.46 78.65 117.21 78.72 117.05 78.72 117.05 78.72 117.05 78.57 116.86 78.39 116.61 78.22 116.37 78.02 116.06 77.91 115.79 77.81 115.54 77.77 115.33 77.87 115.21 78.2 114.82 80.1 112.98 80.1 112.98 80.1 112.98 80.76 106.29 80.69 105.97 80.69 105.97 81.7 106.16 83.07 106.15 83.57 106.15 84.12 106.11 84.69 106.04 87.05 105.71 88.69 105.51 88.69 105.51L88.55 106.24Z" fill="url(#SVGID_6_)"/><path d="M78.62 117.47C78.65 117.22 78.72 117.06 78.72 117.06 78.72 117.06 78.57 116.87 78.39 116.62 78.52 116.55 78.65 116.45 78.79 116.34 79.31 115.88 79.97 114.57 80.23 115.36 80.47 116.08 79.81 116.97 78.62 117.47Z" fill="#E78865" opacity="0.2"/><path d="M83.07 106.16C82.5 108.13 81.06 112.94 80.69 113.52 80.38 114.02 78.83 115.15 77.91 115.8 77.81 115.55 77.77 115.34 77.87 115.22 78.2 114.83 80.1 112.99 80.1 112.99 80.1 112.99 80.76 106.3 80.69 105.98 80.69 105.98 81.7 106.17 83.07 106.16Z" fill="#E78865" opacity="0.2"/></g><path d="M78.53 63.5C76.26 65.47 72.12 68.46 67.39 68.92 61.5 69.49 57.2 66.08 55.14 63.1 56.31 62.57 57.39 62.14 58.18 61.83 58.68 62.65 59.39 63.53 60.41 64.4 63.9 67.35 68.03 68.19 72.11 64.69 73.05 63.88 73.82 63.05 74.44 62.24 75.13 62.44 76.76 62.91 78.53 63.5Z" fill="url(#SVGID_7_)" opacity="0.3"/><path d="M54.47 106.64C54.47 106.64 53.68 106.61 52.6 106.46 52.52 106.45 52.45 106.44 52.37 106.42 52.02 103.15 51.51 97.36 51.85 92.21 52.24 86.11 54.5 74.71 54.5 74.71 54.5 74.71 53.52 92.21 54.11 97.13 54.32 98.9 54.65 100.82 54.98 102.56 54.54 102.39 54.26 102.28 54.21 102.24 53.87 102.02 54.47 106.64 54.47 106.64Z" fill="url(#SVGID_8_)" opacity="0.3"/><path d="M81.87 106.14C81.13 106.07 80.68 105.97 80.68 105.97L80.65 103.71C80.65 103.71 80.08 103.84 79.12 104.02 79.69 99.02 80.18 89.6 79.76 84.25 79.3 78.23 78.57 73.78 78.57 73.61 78.57 73.61 78.57 73.61 78.58 73.63 78.68 74.02 80.35 82.18 81.33 92.7 81.95 99.2 81.96 103.68 81.87 106.14Z" fill="url(#SVGID_9_)" opacity="0.3"/><path d="M69.16 178.4C68.97 178.44 68.66 178.5 68.17 178.6 68.11 178.61 68.05 178.62 67.99 178.63L66.46 110.57 67.6 114.89 69.16 178.4Z" fill="#4E4E4E" opacity="0.4"/><path d="M75.98 154.67 72.36 177.55 69.47 178.34C69.47 178.34 69.47 178.34 69.15 178.4 68.96 178.44 68.65 178.5 68.16 178.6 68.1 178.61 68.04 178.62 67.98 178.63 66.69 178.8 65 178.19 64.62 177.94 64.44 177.82 62.13 165.8 59.67 152.7 62.5 155.34 65.7 156.84 68.16 156.05 68.17 156.05 72.56 156.98 75.98 154.67Z" fill="#4E4E4E" opacity="0.2"/><path d="M61.39 180.3 76.14 180.3C76.14 180.3 75.68 177.65 72.37 177.55 69.06 177.45 69.16 178.43 69.16 178.43 69.16 178.43 66.11 177.45 64.15 177.55 62.17 177.65 61.39 180.3 61.39 180.3Z" fill="#0C5C77"/><path d="M54.28 80.94C54.28 80.94 66.21 82.51 79.71 81.07 79.71 81.07 80.1 86.18 80.1 88.8 80.1 88.8 64.63 90.24 53.75 88.14 53.75 88.14 53.75 86.83 53.88 84.34 54.01 81.86 54.28 80.94 54.28 80.94Z" fill="#0C5D77"/><path d="M96.7 87.83C95.68 89.28 94.72 89.66 94.72 89.66 94.72 89.66 93.74 87.89 92.43 84.87 91.12 81.86 88.82 75.11 88.82 75.11 88.82 75.11 87.9 74.85 86.66 74.39 85.6 74 84.47 73.19 84.22 72.59 84.8 73.1 85.41 73.43 86.4 73.66 87.77 73.99 89.48 74.51 89.48 74.51 89.48 74.51 89.74 76.54 91.25 79.23 92.76 81.92 95.51 86.38 95.51 86.38L96.7 87.83Z" fill="#E78865" opacity="0.2"/><g><linearGradient x1="112.751" y1="92.8646" x2="114.085" y2="76.9826" gradientUnits="userSpaceOnUse" id="SVGID_10_"><stop offset="0" stop-color="#F6D4B5"/><stop offset="1" stop-color="#F7BB9F"/></linearGradient><path d="M121.98 90.05C121.98 90.56 121.94 91.01 121.88 91.42 121.5 93.79 120.21 94.51 120.21 94.51 117.65 92.02 112.22 79.63 112.22 79.63 110.37 81.31 107.8 80.55 107.02 79.88 106.89 79.77 106.8 79.65 106.78 79.56 106.7 79.16 107.48 79.15 108.09 79.21 106.79 78.87 105.08 77.7 105.08 76.95 105.08 76.29 107.01 77.12 108.1 77.64 106.68 76.71 105.33 74.57 105.67 74.07 106.04 73.51 109.59 76.53 109.91 76.8 109.67 76.54 107.48 74.19 108.1 73.88 108.76 73.55 110.92 76.04 111.38 76.44 111.61 76.64 113 76.88 113.94 76.05 114.84 75.26 115.29 73.42 115.45 72.9 115.78 71.85 116.04 72.31 116.3 73.16 116.56 74.01 115.38 76.77 115.38 76.77L121.74 85.29C121.72 85.27 121.98 86.58 121.98 90.05Z" fill="url(#SVGID_10_)"/><path d="M121.87 91.42C121.49 93.79 120.2 94.51 120.2 94.51 117.64 92.02 112.21 79.63 112.21 79.63 110.36 81.31 107.79 80.55 107.01 79.88 107.59 80.06 108.33 80.1 109.16 80.07 110.48 80.02 112.6 78.4 112.6 78.4 112.6 78.4 115.16 84.64 117.86 87.34 119.48 88.96 120.95 90.47 121.87 91.42Z" fill="#E78865" opacity="0.2"/></g><path d="M131.95 177.14 131.38 177.45C131.38 177.45 129.51 156.81 129.22 150.91 128.93 145.01 125.58 118.96 125.58 118.96L119.68 144.32C122.33 146.88 124.69 151.89 124.2 157.49 123.87 161.24 121.84 178.13 121.84 178.13L121.39 178.01C121.67 175.34 122.26 169.25 122.03 166.53 121.74 162.99 121.64 154.83 120.16 151.29 118.68 147.75 117.21 143.82 117.21 143.82 117.21 143.82 119.18 135.66 121.93 127.01 124.68 118.36 125.67 114.72 125.67 114.72 125.67 114.72 129.41 138.61 129.8 147.85 130.14 155.68 131.53 172.23 131.95 177.14Z" fill="url(#SVGID_11_)" opacity="0.2"/><path d="M132.07 178.53 131.94 178.61C131.97 178.46 132 178.31 132.03 178.14 132.06 178.4 132.07 178.53 132.07 178.53Z" fill="url(#SVGID_12_)" opacity="0.2"/><path d="M132.07 178.53 131.94 178.61C131.97 178.46 132 178.31 132.03 178.14 132.06 178.4 132.07 178.53 132.07 178.53Z" fill="url(#SVGID_13_)" opacity="0.2"/><path d="M136 155.33C136.1 150.71 134.03 143.34 134.03 143.34 134.03 143.34 134.33 128.1 134.13 121.03 133.96 114.73 133.62 107.74 133 104.47 134.3 103.92 135.14 103.5 135.14 103.5 135.14 103.5 136.29 109.23 136.19 116.8 136.09 124.37 135.11 142.75 135.11 142.75 135.11 142.75 137.57 146.29 138.45 152.19 139.3 157.89 132.72 175.72 132.28 176.9 132.89 173.92 133.73 169.78 133.73 169.59 133.74 169.29 135.91 159.95 136 155.33Z" fill="url(#SVGID_14_)" opacity="0.2"/><g opacity="0.4"><linearGradient x1="125.398" y1="106.668" x2="124.501" y2="112.484" gradientUnits="userSpaceOnUse" id="SVGID_15_"><stop offset="1.953e-05" stop-color="#3D2B1D"/><stop offset="0.9847" stop-color="#542D17"/></linearGradient><linearGradient x1="116.885" y1="106.964" x2="116.233" y2="111.194" gradientUnits="userSpaceOnUse" id="SVGID_16_"><stop offset="1.953e-05" stop-color="#3D2B1D"/><stop offset="0.9847" stop-color="#542D17"/></linearGradient><linearGradient x1="137.77" y1="105.92" x2="126.935" y2="176.203" gradientUnits="userSpaceOnUse" id="SVGID_17_"><stop offset="1.953e-05" stop-color="#3D2B1D"/><stop offset="0.9847" stop-color="#542D17"/></linearGradient><path d="M126.67 112.82 124.38 111.79 123.15 106.93C123.25 106.92 123.35 106.91 123.44 106.91L124.63 111.59 126.27 112.33 125.15 106.73C125.25 106.72 125.35 106.71 125.44 106.69L126.67 112.82Z" fill="url(#SVGID_15_)"/><path d="M118.27 107.18C117.44 108.19 116.07 109.81 114.88 110.99 114.89 110.84 114.9 110.69 114.91 110.55 115.87 109.56 116.98 108.28 117.88 107.2 118.01 107.19 118.14 107.18 118.27 107.18Z" fill="url(#SVGID_16_)"/><path d="M132.9 175.23C132.9 175.23 132.9 175.24 132.9 175.24 132.59 176.12 132.36 176.71 132.3 176.89 132.3 176.9 132.3 176.9 132.3 176.9 132.29 176.93 132.28 176.95 132.28 176.95L132.19 177C132.94 173.87 136.33 159.46 136.07 154.44 135.78 148.83 133.93 143.43 133.92 143.37L133.91 143.34 133.91 143.3C133.92 143.24 134.8 136.92 134.89 128.38 134.98 120.46 134.74 110.12 134.7 108.54 133.07 107.78 131.93 105.97 131.44 105.08 131.53 105.04 131.62 105.01 131.72 104.97 132.22 105.87 133.36 107.64 134.94 108.32L134.99 108.32 134.99 108.34C135.27 108.45 135.56 108.54 135.87 108.57 135.88 108.67 135.89 108.77 135.9 108.87 135.58 108.84 135.29 108.77 135 108.66 135.05 110.63 135.28 120.66 135.19 128.38 135.1 136.61 134.28 142.79 134.21 143.31 134.37 143.78 136.09 149 136.37 154.43 136.57 158.81 134.06 170.19 132.9 175.23Z" fill="url(#SVGID_17_)"/></g><g><path d="M122.57 179.71C122.57 179.71 121.98 180.23 119.29 180.76 117.19 181.17 115.88 181.14 115.42 181.1 115.42 181.1 115.42 181.1 115.42 181.1 115.29 181.09 115.23 181.08 115.23 181.08 115.23 181.08 117.85 178 119.09 177.67 119.87 177.47 120.76 177.7 121.31 177.9 121.64 178.02 121.84 178.13 121.84 178.13L122.57 179.71Z" fill="#282F39"/><path d="M122.57 179.71C122.57 179.71 121.98 180.23 119.29 180.76 117.19 181.17 115.88 181.14 115.42 181.1 116.82 180.72 119.18 180.06 119.22 179.94 119.28 179.8 120.71 178.94 121.31 177.91 121.64 178.03 121.84 178.14 121.84 178.14L122.57 179.71Z" fill="#282F39" opacity="0.3"/></g><g><path d="M134.76 180.11C134.76 180.11 134.3 180.79 132.86 181.1 132.75 181.12 132.64 181.15 132.53 181.16 130.82 181.42 130.56 180.24 130.43 179.98 130.3 179.72 131.35 176.96 131.35 176.96L131.72 176.81 132.47 176.5 134.76 180.11Z" fill="#282F39"/><path d="M132.86 181.09C132.75 181.11 132.64 181.14 132.53 181.15 130.82 181.41 130.56 180.23 130.43 179.97 130.3 179.71 131.35 176.95 131.35 176.95L131.72 176.8C131.57 177.65 131.68 179.04 131.98 179.54 132.16 179.86 132.55 180.55 132.86 181.09Z" fill="#282F39" opacity="0.3"/></g><g><linearGradient x1="66.6028" y1="67.705" x2="66.974" y2="43.574" gradientUnits="userSpaceOnUse" id="SVGID_18_"><stop offset="0" stop-color="#F6D4B5"/><stop offset="1" stop-color="#E9634E"/></linearGradient><path d="M80.02 56.66C78.45 60.14 76.4 59.03 76.4 59.03 76.4 59.03 75.96 61.28 74.01 63.81 73.42 64.58 72.7 65.37 71.81 66.13 70.89 66.92 69.96 67.48 69.04 67.82 69.04 67.82 69.03 67.83 69.03 67.82 66.12 68.92 63.27 67.96 60.77 65.84 60.5 65.61 60.25 65.38 60.02 65.15 59.44 64.56 59 63.97 58.66 63.42 57.52 61.55 57.56 60.04 57.56 60.04 57.56 60.04 55.89 60.37 54.08 57.81 52.27 55.26 52.46 52.2 54.55 52.01 55.47 51.93 56.03 52.38 56.37 52.91 56.43 53.38 56.48 53.69 56.5 53.78 56.5 53.78 57.06 54.71 57.06 54.99 57.08 54.74 57.2 51.65 57.8 49.01 58.45 46.13 59.42 45.11 59.42 45.11 59.42 45.11 60.02 45.53 60.98 46.02 62.29 46.68 64.26 47.48 66.24 47.48 68.62 47.48 71.39 46.55 72.87 45.97 73.54 45.71 73.94 45.53 73.94 45.53 74.96 46.18 76.08 51.66 76.17 52.77 76.26 53.88 77.1 54.53 77.1 54.53L77.59 53.06C77.97 52.55 78.52 52 79.19 51.93 80.44 51.79 81.6 53.18 80.02 56.66Z" fill="url(#SVGID_18_)"/><path d="M77.65 52.86 77.58 53.06 77.09 54.53C77.09 54.53 76.26 53.88 76.16 52.77 76.07 51.66 74.95 46.18 73.93 45.53 73.93 45.53 69.66 47.48 66.23 47.48 62.8 47.48 59.41 45.11 59.41 45.11 59.41 45.11 58.44 46.13 57.79 49.01 57.19 51.66 57.07 54.74 57.05 54.99 57.05 54.71 56.49 53.78 56.49 53.78 56.47 53.69 56.42 53.38 56.36 52.91 56.15 51.33 55.78 47.93 56.03 45.29 56.1 44.54 56.22 43.86 56.4 43.29 57.42 40.13 63.36 37.91 67.91 38.09 70.54 38.2 73.05 39.58 74.84 41.45 76.15 42.8 77.07 44.42 77.38 45.98 78.12 49.7 77.65 52.86 77.65 52.86Z" fill="#6F2A00"/><path d="M77.65 52.86 77.58 53.06 77.09 54.53C77.09 54.53 76.26 53.88 76.16 52.77 76.07 51.66 74.95 46.18 73.93 45.53 73.93 45.53 69.66 47.48 66.23 47.48 62.8 47.48 59.41 45.11 59.41 45.11 59.41 45.11 58.44 46.13 57.79 49.01 57.19 51.66 57.07 54.74 57.05 54.99 57.05 54.71 56.49 53.78 56.49 53.78 56.47 53.69 56.42 53.38 56.36 52.91 56.15 51.33 55.78 47.93 56.03 45.29 56.45 45.48 56.9 45.64 57.33 45.7 58.63 45.89 59.14 44.54 59.14 44.54 59.79 45.23 66.05 47.04 69.25 46.3 72.21 45.61 73.9 43.7 74.83 41.44 76.14 42.79 77.06 44.41 77.37 45.97 78.12 49.7 77.65 52.86 77.65 52.86Z" fill="#6F2A00" opacity="0.2"/><path d="M80.02 56.66C78.45 60.14 76.4 59.03 76.4 59.03 76.4 59.03 75.96 61.28 74.01 63.81 73.42 64.58 72.7 65.37 71.81 66.13 70.89 66.92 69.96 67.48 69.04 67.82 73.1 65.18 74.67 60.09 75.28 56.54 75.93 52.73 73.96 48.02 72.88 45.97 73.55 45.71 73.95 45.53 73.95 45.53 74.97 46.18 76.09 51.66 76.18 52.77 76.27 53.88 77.11 54.53 77.11 54.53L77.6 53.06C77.98 52.55 78.53 52 79.2 51.93 80.44 51.79 81.6 53.18 80.02 56.66Z" fill="#E78865" opacity="0.2"/><path d="M60.02 65.16C59.44 64.57 59 63.98 58.66 63.43 57.52 61.56 57.56 60.05 57.56 60.05 57.56 60.05 55.89 60.38 54.08 57.82 52.27 55.27 52.46 52.21 54.55 52.02 55.47 51.94 56.03 52.39 56.37 52.92 56.43 53.39 56.48 53.7 56.5 53.79 56.5 53.79 57.06 54.72 57.06 55 57.08 54.75 57.2 51.66 57.8 49.02 58.45 46.14 59.42 45.12 59.42 45.12 59.42 45.12 60.02 45.54 60.98 46.03 60.01 48.23 58.24 52.68 58.01 56.12 57.78 59.54 58.69 62.84 60.02 65.16Z" fill="#E78865" opacity="0.2"/><path d="M54.67 53.69C54.67 53.69 56.9 55.61 56.65 57.84 56.65 57.84 55.97 58.03 55.41 57.34 54.85 56.66 55.91 56.35 55.91 56.35L54.67 53.69Z" fill="#E78865" opacity="0.2"/><path d="M79.11 53.57C79.11 53.57 77.81 54.68 77.44 56.17 77.07 57.66 77.32 57.72 77.32 57.72 77.32 57.72 78.31 58.03 78.62 57.35 78.93 56.67 78 56.24 78 56.24L79.11 53.57Z" fill="#E78865" opacity="0.2"/><g><path d="M59.19 55.23C59.16 55.04 60.3 53.3 61.95 53.56 63.61 53.81 64.38 56.79 64.38 56.79 64.38 56.79 63.73 58.1 61.58 57.67 59.43 57.25 59.19 55.23 59.19 55.23Z" fill="#FFFFFF"/><path d="M63.39 54.97C63.34 55.69 62.71 56.24 61.99 56.19 61.26 56.14 60.72 55.51 60.77 54.79 60.82 54.07 61.45 53.52 62.17 53.57 62.9 53.62 63.44 54.25 63.39 54.97Z" fill="#3D281C"/><path d="M59.15 55.15C59.17 54.81 59.87 52.86 62 53.13 64.12 53.4 64.66 56.01 64.39 56.8 64.39 56.8 63.79 54.19 61.91 53.97 60.04 53.74 59.15 55.15 59.15 55.15Z" fill="#7C4F3C"/></g><g><path d="M69.56 57.07C69.2 56.36 69.01 54.75 70.51 53.71 72.01 52.67 74.24 54.73 74.24 54.73 74.24 54.73 75 56.13 72.81 57.17 70.61 58.21 69.56 57.07 69.56 57.07Z" fill="#FFFFFF"/><path d="M72.79 54.54C73.04 55.22 72.69 55.98 72 56.22 71.32 56.47 70.56 56.12 70.32 55.43 70.07 54.75 70.42 53.99 71.11 53.75 71.78 53.51 72.54 53.86 72.79 54.54Z" fill="#3D281C"/><path d="M69.46 56.82C69.46 56.82 68.51 54.64 70.5 53.42 72.49 52.2 74.13 53.92 74.31 54.87 74.31 54.87 72.74 53.16 71.04 54.11 69.67 54.87 69.46 56.82 69.46 56.82Z" fill="#7C4F3C"/></g><path d="M58.44 51.19C58.67 50.26 60.16 49.33 61.55 50.12 62.94 50.91 63.85 52.52 64.33 53.04 64.63 53.37 64.93 53.46 64.93 53.46 64.93 53.46 64.37 54.2 63.4 53.51 62.43 52.81 61.31 51.61 60.2 51.19 59.09 50.77 58.44 51.19 58.44 51.19Z" fill="#541E00"/><path d="M68 53.69C68.84 53.97 70.04 54.15 71.43 53.04 72.82 51.93 73.98 51.51 74.35 51.7 74.72 51.88 75.09 52.07 75.09 52.07 75.09 52.07 75.46 50.12 73.46 50.07 71.47 50.02 71.14 51.7 70.31 52.44 69.47 53.18 69.04 53.23 67.9 53.41 67.59 53.47 68 53.69 68 53.69Z" fill="#541E00"/><g><path d="M69.86 65.67C69.84 65.72 69.81 65.77 69.76 65.82 69.06 66.63 65.33 67.57 63.41 65.39 63.38 65.36 63.37 65.29 63.35 65.21 63.29 64.66 63.6 63.14 64.47 62.17 64.98 61.6 65.68 61.22 66.6 61.31 67.5 61.4 68.2 61.8 68.71 62.33 69.79 63.43 70.08 65.1 69.86 65.67Z" fill="#AC2A2A"/><path d="M68.72 62.33C67.08 62.68 65.41 62.4 64.48 62.16 64.99 61.59 65.69 61.21 66.61 61.3 67.51 61.39 68.21 61.8 68.72 62.33Z" fill="#FFFFFF"/><path d="M69.76 65.82C69.06 66.63 65.33 67.57 63.41 65.39 63.38 65.36 63.37 65.29 63.35 65.21 63.87 64.79 64.95 64.15 66.64 64.21 68.49 64.28 69.41 65.31 69.76 65.82Z" fill="#D03B3B"/></g><path d="M64.69 54C65 54.46 65.68 55.79 65.37 57.68 65.06 59.57 64.57 60.46 64.57 60.46 64.57 60.46 65.5 60.99 66.77 60.83 68.04 60.68 68.35 59.99 68.19 59.87 68.04 59.75 67.69 59.68 67.6 59.93 67.51 60.18 66.83 60.52 65.9 60.46 64.97 60.4 64.97 60.24 64.97 60.24 64.97 60.24 65.96 58.48 65.9 56.9 65.84 55.33 64.69 54 64.69 54Z" fill="#E78865"/><path d="M59.15 55.15C59.15 55.15 60.93 53.76 62.37 54.52 63.81 55.28 64.39 56.8 64.39 56.8 64.39 56.8 64.57 54.61 62.45 53.68 60.33 52.75 59.15 55.15 59.15 55.15Z" fill="#A4A3A3" opacity="0.4"/><path d="M69.46 56.82C69.46 56.82 69.35 54.62 70.77 53.79 72.19 52.95 74.14 54.32 74.31 54.87 74.31 54.87 72.58 53.68 71.34 54.45 70.1 55.22 69.46 56.82 69.46 56.82Z" fill="#A4A3A3" opacity="0.4"/></g><g><linearGradient x1="114.543" y1="61.0531" x2="115.047" y2="46.7946" gradientUnits="userSpaceOnUse" id="SVGID_19_"><stop offset="0" stop-color="#F6D4B5"/><stop offset="1" stop-color="#FFA28D"/></linearGradient><path d="M125.52 57.44C125.27 59.84 122.3 59.14 122.3 59.14 122.3 59.14 121.67 61.29 119.27 63.62 117.92 64.93 116.18 65.73 114.16 65.89 112.6 66.02 110.87 65.76 109.06 65.07 104.9 63.49 104.14 59.2 103.89 57.12 103.64 55.04 104.46 54.28 104.39 50.87 104.37 50.02 104.42 49.3 104.53 48.69 104.55 48.73 104.56 48.77 104.58 48.79 104.58 48.79 105.15 47.59 105.9 46.33 106.66 45.07 108.23 44.56 109.18 43.93 110.13 43.3 112.02 42.79 112.02 42.79 112.02 42.79 113.35 43.8 114.61 44.55 115.87 45.31 117.89 45.44 117.89 45.44 117.89 45.44 118.43 45.29 119.42 46.73 119.55 46.92 119.7 47.14 119.84 47.4 120.7 48.86 121.53 51.21 121.97 52.57 122.18 53.22 122.3 53.64 122.3 53.64 122.3 53.64 121.67 55.09 122.43 53.96 123.19 52.82 124.64 52.76 124.64 52.76 124.64 52.76 124.65 52.7 124.67 52.58 125.47 53.28 125.72 55.5 125.52 57.44Z" fill="url(#SVGID_19_)"/><path d="M125.52 57.44C125.27 59.84 122.3 59.14 122.3 59.14 122.3 59.14 121.67 61.29 119.27 63.62 117.92 64.93 116.18 65.73 114.16 65.89 118.83 63 120.4 57.16 120.57 54.57 120.71 52.35 120.15 49.26 119.42 46.74 119.55 46.93 119.7 47.15 119.84 47.41 120.7 48.87 121.53 51.22 121.97 52.58 122.18 53.23 122.3 53.65 122.3 53.65 122.3 53.65 121.67 55.1 122.43 53.97 123.19 52.83 124.64 52.77 124.64 52.77 124.64 52.77 124.65 52.71 124.67 52.59 125.47 53.28 125.72 55.5 125.52 57.44Z" fill="#E78865" opacity="0.2"/><path d="M123.75 54.41C123.12 54.92 122.17 55.8 122.55 57.5 122.55 57.5 123.18 58 123.62 57.5 124.06 57 123.05 56.36 123.05 56.36L123.75 54.41Z" fill="#E78865" opacity="0.2"/><g><path d="M124.67 52.6C124.65 52.72 124.64 52.78 124.64 52.78 124.64 52.78 123.19 52.84 122.43 53.98 121.67 55.12 122.3 53.66 122.3 53.66 122.3 53.66 122.17 53.24 121.97 52.59 121.53 51.23 120.7 48.87 119.84 47.42 118.58 45.28 117.89 45.47 117.89 45.47 117.89 45.47 115.87 45.34 114.61 44.58 113.35 43.82 112.02 42.82 112.02 42.82 112.02 42.82 110.13 43.32 109.18 43.96 108.23 44.59 106.65 45.1 105.9 46.36 105.14 47.62 104.58 48.82 104.58 48.82 104.57 48.79 104.55 48.76 104.53 48.72 104.3 48.26 103.57 46.9 103.42 45.26 103.36 44.61 103.38 43.92 103.57 43.21 104.27 40.56 106.28 39.42 108.68 38.73 111.08 38.04 112.34 39.55 112.34 39.55 112.34 39.55 113.79 37.03 117.38 37.66 118.58 37.87 119.84 38.45 120.99 39.25 123.28 40.84 125.14 43.3 125.27 45.48 125.44 48.33 124.83 51.79 124.67 52.6Z" fill="#241911"/><path d="M124.67 52.6C124.65 52.72 124.64 52.78 124.64 52.78 124.64 52.78 123.19 52.84 122.43 53.98 121.67 55.12 122.3 53.66 122.3 53.66 122.3 53.66 122.17 53.24 121.97 52.59 121.53 51.23 120.7 48.87 119.84 47.42 118.58 45.28 117.89 45.47 117.89 45.47 117.89 45.47 115.87 45.34 114.61 44.58 113.35 43.82 112.02 42.82 112.02 42.82 112.02 42.82 110.13 43.32 109.18 43.96 108.23 44.59 106.65 45.1 105.9 46.36 105.14 47.62 104.58 48.82 104.58 48.82 104.57 48.79 104.55 48.76 104.53 48.72 104.3 48.26 103.57 46.9 103.42 45.26 104.55 44.4 106.16 43.35 107.67 42.96 110.38 42.27 111.7 42.08 111.7 42.08 111.7 42.08 115.49 44.16 117.32 44.29 119.15 44.42 120.47 43.47 120.73 42.71 120.93 42.1 121.21 40.72 120.99 39.25 123.28 40.84 125.14 43.3 125.27 45.48 125.44 48.33 124.83 51.79 124.67 52.6Z" fill="#241911" opacity="0.3"/></g><path d="M105.27 52.96C105.28 52.61 106.44 50.75 108.42 51.26 110.41 51.76 111.32 53.41 111.07 54.26 110.81 55.11 108.96 55.58 107.41 55.21 105.87 54.82 105.24 53.82 105.27 52.96Z" fill="#FFFFFF"/><path d="M114.95 53.97C114.44 53.09 115.3 51.54 117.22 50.82 119.14 50.09 120.44 50.54 120.81 51.67 121.19 52.8 120.34 54.16 118.98 54.73 117.64 55.3 115.62 55.11 114.95 53.97Z" fill="#FFFFFF"/><path d="M111.89 51.58C112.68 53.06 112.6 53.86 112.46 54.77 112.24 56.19 110.75 57.26 110.69 57.48 110.63 57.7 111.04 58.17 111.48 58.21 111.92 58.24 113.12 57.86 113.31 58.05 113.5 58.24 112.58 58.49 111.73 58.55 110.88 58.61 110 57.95 110.44 57.29 110.88 56.63 111.95 55.74 112.11 54.26 112.27 52.78 111.89 51.58 111.89 51.58Z" fill="#E78865"/><g><path d="M117.3 62.92C117.3 62.95 117.29 62.98 117.28 63 117.12 63.28 113.56 64.99 110.75 64.1 110.48 64.01 110.33 63.36 110.35 62.57 110.36 61.62 110.61 60.49 111.17 59.94 112.18 58.93 114.42 58.52 115.52 59.88 116.55 61.13 117.33 62.51 117.3 62.92Z" fill="#AC2A2A"/><path d="M117.3 62.92C117.3 62.95 117.29 62.98 117.28 63 117.12 63.28 113.56 64.99 110.75 64.1 110.48 64.01 110.33 63.36 110.35 62.57 110.81 61.99 111.71 61.42 112.93 61.29 114.49 61.14 116.41 62.05 117.3 62.92Z" fill="#D03B3B"/></g><path d="M107.94 53.06C107.94 53.71 107.41 54.24 106.76 54.24 106.11 54.24 105.58 53.71 105.58 53.06 105.58 52.41 106.11 51.88 106.76 51.88 107.4 51.88 107.94 52.41 107.94 53.06Z" fill="#3D281C"/><path d="M117.35 53.01C117.35 53.66 116.82 54.19 116.17 54.19 115.52 54.19 114.99 53.66 114.99 53.01 114.99 52.36 115.52 51.83 116.17 51.83 116.82 51.83 117.35 52.36 117.35 53.01Z" fill="#3D281C"/><path d="M105.21 52.84C105.37 52.46 106.32 51.01 107.92 51.11 109.53 51.2 111.42 52.37 111.08 54.27 111.08 54.27 110.01 52.44 108.46 51.9 106.91 51.36 105.21 52.84 105.21 52.84Z" fill="#7C4F3C"/><path d="M111.04 51.89C110.95 51.61 109.53 50.69 108.33 50.28 107.13 49.87 105.43 49.84 105.11 50.63 104.8 51.42 105.08 51.51 105.08 51.51 105.08 51.51 106.37 51.67 107.95 51.73 109.53 51.8 111.04 51.89 111.04 51.89Z" fill="#241911"/><path d="M114.73 53.53C114.73 53.53 114.48 51.79 116.43 50.82 118.38 49.84 120.72 50.32 120.91 51.86 120.91 51.86 120.06 50.85 117.57 51.32 115.08 51.8 114.73 53.53 114.73 53.53Z" fill="#7C4F3C"/><path d="M113.56 51.48C113.38 52.12 114.73 52.33 115.96 52.02 117.19 51.7 120.06 50.1 120.06 50.1 120.06 50.1 120.19 49.56 119.74 49.53 119.31 49.49 113.82 50.57 113.56 51.48Z" fill="#241911"/><path d="M93.34 55.44C93 55.56 92.66 55.59 92.37 55.52 90.67 55.11 91.86 53.67 91.94 53.58 91.92 53.59 91.87 53.62 91.77 53.66L91.77 53.66C91.22 53.94 89.49 54.71 88.82 54 88.01 53.15 89.77 52.58 89.81 52.44 89.86 52.3 88.34 52.49 88.15 51.12 87.96 49.75 88.82 49.84 88.82 49.84 88.82 49.84 87.88 49.51 87.73 47.85 87.61 46.45 88.98 46.71 89.41 46.82 88.96 46.66 87.53 46.04 89.77 45.15 90.08 45.03 90.37 44.96 90.64 44.96 92.62 44.91 93.5 47.65 93.5 47.65 93.5 47.65 93.8 46.4 94.47 46.41 94.55 46.41 94.63 46.43 94.73 46.47 95.58 46.85 94.78 48.88 94.78 48.88 96.82 52.12 95.01 54.85 93.34 55.44Z" fill="#F4EEED"/><path d="M143.28 55.14C143.33 57.7 139.45 57.08 139.45 57.08 139.45 57.08 139.74 58.36 138.64 58.68 137.61 58.99 137.55 57.83 137.55 57.7 137.55 57.69 137.55 57.69 137.55 57.69 137.55 57.69 137.55 57.69 137.54 57.69 137.37 57.79 134.53 59.5 133.43 58.3 132.3 57.07 133.38 55.51 133.38 55.51 133.38 55.51 132.34 55.98 131.97 54.89 131.59 53.8 132.54 53 132.54 53 132.02 52.34 132.25 50.12 133.01 49.97 133.17 49.94 133.32 49.96 133.45 50.01 133.96 50.21 134.3 50.88 134.33 51.1 134.33 51.1 134.39 49.76 134.84 49.19 134.96 49.04 135.1 48.94 135.28 48.93 136.14 48.88 135.85 50.21 135.85 50.21 135.85 50.21 137.7 48.41 139.35 49.21 141.01 50.02 139.49 51.91 139.49 51.91 140.82 51.54 143.23 52.59 143.28 55.14Z" fill="#F4EEED"/><g><path d="M101.59 51.73C101.58 51.73 101.57 51.73 101.55 51.72 101.32 51.61 95.92 49.02 95.73 48.93 95.68 48.91 95.66 48.85 95.69 48.8 95.71 48.75 95.77 48.73 95.82 48.76 96.01 48.85 101.58 51.52 101.64 51.55 101.69 51.57 101.71 51.63 101.68 51.68 101.66 51.71 101.63 51.73 101.59 51.73Z" fill="#94BBCD"/></g><g><path d="M101.78 52.63C101.77 52.63 101.76 52.63 101.75 52.62 99.93 51.98 97.15 51.03 96.95 51.02 96.9 51.02 96.86 50.97 96.86 50.92 96.86 50.87 96.9 50.83 96.95 50.83 97.19 50.83 101.04 52.17 101.81 52.44 101.86 52.46 101.88 52.51 101.87 52.56 101.86 52.61 101.82 52.63 101.78 52.63Z" fill="#94BBCD"/></g><g><path d="M102.78 53.67C102.78 53.67 102.77 53.67 102.76 53.67 102.32 53.59 98.45 52.86 98.3 52.82 98.25 52.8 98.22 52.75 98.24 52.7 98.26 52.65 98.31 52.62 98.36 52.64 98.48 52.68 101.08 53.17 102.79 53.49 102.84 53.5 102.88 53.55 102.87 53.6 102.86 53.64 102.82 53.67 102.78 53.67Z" fill="#94BBCD"/></g><g><path d="M125.82 54.67C125.78 54.67 125.74 54.64 125.73 54.59 125.72 54.54 125.75 54.49 125.8 54.48 126.03 54.43 131.74 52.98 131.8 52.97 131.85 52.96 131.9 52.99 131.92 53.04 131.93 53.09 131.9 53.14 131.85 53.15 131.61 53.21 126.07 54.62 125.84 54.67 125.83 54.67 125.83 54.67 125.82 54.67Z" fill="#94BBCD"/></g><g><path d="M127.05 55.38C127 55.38 126.97 55.35 126.96 55.3 126.95 55.25 126.98 55.2 127.03 55.19L131.57 54.29C131.62 54.28 131.67 54.31 131.68 54.36 131.69 54.41 131.66 54.46 131.61 54.47L127.07 55.37C127.06 55.38 127.05 55.38 127.05 55.38Z" fill="#94BBCD"/></g><g><path d="M126.44 56.7C126.39 56.7 126.35 56.66 126.35 56.62 126.34 56.57 126.38 56.52 126.43 56.51L131.78 55.75C131.83 55.74 131.88 55.78 131.89 55.83 131.9 55.88 131.86 55.93 131.81 55.94L126.46 56.7C126.44 56.7 126.44 56.7 126.44 56.7Z" fill="#94BBCD"/></g><path d="M143.28 55.14C143.33 57.7 139.45 57.08 139.45 57.08 139.45 57.08 141.44 56.32 141.72 54.67 142.01 53.01 138.93 53.2 138.93 53.2 138.93 53.2 139.5 51.69 138.12 50.84 136.79 50.01 135.18 52.36 135.09 52.49 135.11 52.38 135.51 50.53 135.23 49.7 135.14 49.42 135 49.28 134.84 49.2 134.96 49.05 135.1 48.95 135.28 48.94 136.14 48.89 135.85 50.22 135.85 50.22 135.85 50.22 137.7 48.42 139.35 49.22 141.01 50.03 139.49 51.92 139.49 51.92 140.82 51.54 143.23 52.59 143.28 55.14Z" fill="#94BBCD" opacity="0.3"/><path d="M92.22 52.92C92.2 52.96 92.05 53.27 91.77 53.66L91.77 53.66C91.22 53.94 89.49 54.71 88.82 54 88.01 53.15 89.77 52.58 89.81 52.44 89.86 52.3 88.34 52.49 88.15 51.12 87.96 49.75 88.82 49.84 88.82 49.84 88.82 49.84 87.88 49.51 87.73 47.85 87.6 46.38 89.12 46.74 89.46 46.84 89.1 46.72 87.43 46.09 89.77 45.16 90.08 45.04 90.37 44.97 90.64 44.97 90.06 45.22 89.74 45.7 89.91 46.25 90.14 47.03 91.2 48.02 91.28 48.09 91.18 48.04 89 46.97 88.63 47.67 88.25 48.38 90.05 50.04 90.05 50.04 90.05 50.04 88.82 49.99 89.01 50.99 89.2 51.99 91.42 52.03 91.42 52.03 91.42 52.03 89.05 53.02 89.58 53.5 90.09 53.95 92.12 52.97 92.22 52.92Z" fill="#94BBCD" opacity="0.3"/><path d="M93.34 55.44C93.93 54.67 94.5 53.59 94.69 52.59 95.02 50.84 94.03 49.52 94.03 49.52 94.42 48.88 94.57 47.46 94.48 46.43 94.56 46.43 94.64 46.45 94.74 46.49 95.59 46.87 94.79 48.9 94.79 48.9 96.82 52.12 95.01 54.85 93.34 55.44Z" fill="#94BBCD" opacity="0.5"/><path d="M137.54 57.7C137.37 57.8 134.53 59.51 133.43 58.31 132.3 57.08 133.38 55.52 133.38 55.52 133.38 55.52 132.34 55.99 131.97 54.9 131.59 53.81 132.54 53.01 132.54 53.01 132.02 52.35 132.25 50.13 133.01 49.98 133.17 49.95 133.32 49.97 133.45 50.02 133.06 50.91 132.98 52.43 133.81 53.34 133.81 53.34 132.53 53.38 132.72 54.24 132.91 55.09 134.89 54.9 134.89 54.9 134.89 54.9 131.86 55.9 133.85 57.22 135.78 58.5 137.43 57.75 137.54 57.7Z" fill="#94BBCD" opacity="0.5"/></g></g></g></svg>