<svg width="473.59" height="159.89" viewBox="0 0 473.59 159.89" xmlns="http://www.w3.org/2000/svg" xmlns:xlink="http://www.w3.org/1999/xlink" xml:space="preserve" overflow="hidden"><defs></defs><g><rect x="377.37" y="103.53" width="26.33" height="29.28" fill="#3B2314"/><rect x="69.89" y="11.36" width="26.33" height="29.28" fill="#3B2314"/><path d="M71.42 47.76C67.29 46.44 65.04 42 66.37 37.88L67.14 35.52C68.47 31.39 72.89 29.13 77.02 30.46L400.88 135.14C405 136.46 407.27 140.89 405.93 145.02L405.16 147.38C403.83 151.5 399.41 153.77 395.28 152.43L71.42 47.76Z" fill="#744C29"/><path d="M0 0C18.26 13.99 54.62 22.7 83.06 22.7 111.5 22.7 147.86 13.99 166.12 0L0 0Z" fill="#666161"/><path d="M307.48 92.16C325.74 106.15 362.09 114.86 390.54 114.86 418.98 114.86 455.34 106.15 473.6 92.16L307.48 92.16Z" fill="#666161"/><path d="M271.7 152.89 265.34 71.5C265.34 58.15 254.53 44.14 241.21 44.16L233.57 44.15C220.23 44.14 209.41 58.16 209.44 71.48L203.06 152.88 271.7 152.88Z" fill="#E94E1B"/><path d="M250.32 91.45C250.32 98.6 244.53 104.39 237.38 104.39 230.23 104.39 224.44 98.6 224.44 91.45 224.44 84.3 230.23 78.51 237.38 78.51 244.52 78.51 250.32 84.3 250.32 91.45Z" fill="#3B2314"/><path d="M198.34 159.88C195.74 159.88 193.65 157.78 193.64 155.18L193.64 153.69C193.63 151.09 195.74 148.99 198.34 148.99L273.96 148.99C276.55 148.98 278.66 151.09 278.66 153.69L278.66 155.18C278.66 157.77 276.56 159.88 273.96 159.88L198.34 159.88Z" fill="#CE360D"/></g></svg>