<svg width="171.72" height="261.15" viewBox="0 0 171.72 261.15" xmlns="http://www.w3.org/2000/svg" xmlns:xlink="http://www.w3.org/1999/xlink" xml:space="preserve" overflow="hidden"><defs></defs><g><g><path d="M108.1 59.36 108.1 59.36C102.19 61.11 98.83 67.32 100.58 73.23L97.16 61.72C95.41 55.81 89.2 52.45 83.29 54.2L83.29 54.2C77.38 55.95 74.02 62.16 75.77 68.07 74.02 62.16 67.81 58.8 61.9 60.55L61.9 60.55C55.99 62.3 52.63 68.51 54.38 74.42L34.94 8.91C32.98 2.32 26.06-1.44 19.47 0.52L19.47 0.52C12.88 2.47 9.12 9.4 11.07 15.99L40 113.47 25.06 95.1C20.14 89.05 11.25 88.14 5.2 93.06L5.2 93.06C-0.85 97.98-1.76 106.87 3.16 112.92L33.94 150.84C39.04 157.12 45.42 162.1 52.55 165.51 64.46 171.21 73.28 181.86 77.03 194.52L82.96 214.49 150.63 194.41 140.05 158.77C138.85 154.74 139.06 150.42 140.65 146.52L140.67 146.47 140.67 146.47C142.5 141.95 142.74 136.94 141.36 132.27L138.63 123.07 137.27 118.48 121.96 66.89C120.21 60.97 114 57.61 108.1 59.36Z" fill="#FFC494"/><path d="M30.36 21.43 21.73 23.99C19.85 24.55 17.87 23.48 17.31 21.59L15.19 14.44C13.92 10.18 16.36 5.69 20.62 4.43L20.62 4.43C24.88 3.16 29.37 5.6 30.63 9.86L32.75 17.01C33.32 18.89 32.25 20.87 30.36 21.43Z" fill="#F8E0CF" opacity="0.99"/><path d="M23.03 106.54 15.65 112.97C13.62 114.74 10.54 114.53 8.77 112.49L6.67 110.05C3.13 105.98 3.55 99.81 7.62 96.27L7.62 96.27C11.69 92.73 17.86 93.15 21.4 97.22L23.5 99.66C25.27 101.7 25.06 104.78 23.03 106.54Z" fill="#F8E0CF" opacity="0.99"/></g><path d="M132.02 147.46C132.02 147.46 125.58 151.16 131.95 172.6 134.52 181.25 137.16 190.17 139.41 197.73L150.65 194.39 140.07 158.75C138.87 154.72 139.08 150.4 140.67 146.5L140.69 146.45 140.69 146.45C142.52 141.93 142.76 136.92 141.38 132.25L138.65 123.05C138.64 123.05 139.86 137.6 132.02 147.46Z" fill="#EFB98C"/><path d="M94.72 211C88.97 189.38 88.19 172.64 70.38 164.23 56.66 157.75 33.95 150.84 33.95 150.84 39.05 157.12 45.43 162.1 52.56 165.51 64.47 171.21 73.29 181.86 77.04 194.52L82.97 214.49 94.72 211Z" fill="#EFB98C"/></g><rect x="70.64" y="182.99" width="93.59" height="66.22" fill="#020202" transform="matrix(0.9587 -0.2845 0.2845 0.9587 -56.6285 42.3426)"/></svg>