<svg width="112.75" height="100" viewBox="0 0 112.75 100" xmlns="http://www.w3.org/2000/svg" xmlns:xlink="http://www.w3.org/1999/xlink" xml:space="preserve" overflow="hidden"><defs></defs><g><g><g><g><g><g><g><g><path d="M87.02 95.66C86.81 95.11 65.72 40.3 63.11 33.89 59.15 24.17 51.61 24.93 50.88 25.03 49.71 25.17 48.63 25.5 47.64 25.94 47.7 26.89 47.89 27.84 48.15 28.71 48.23 28.98 48.32 29.26 48.43 29.55 49.3 29.06 50.27 28.71 51.32 28.58 51.34 28.58 51.36 28.57 51.39 28.57 51.44 28.56 56.78 27.82 59.8 35.24 62.4 41.62 83.47 96.39 83.68 96.94 84.04 97.86 85.07 98.32 86 97.97 86.91 97.62 87.37 96.58 87.02 95.66Z" fill="#008CD0"/></g></g><g><g><path d="M85.34 98.2 85.34 98.2C84.56 98.2 83.85 97.71 83.57 96.98 83.36 96.43 62.29 41.67 59.69 35.28 59.06 33.73 56.62 28.65 51.83 28.65 51.55 28.65 51.4 28.67 51.4 28.67L51.33 28.68C50.37 28.8 49.41 29.12 48.48 29.63 48.45 29.64 48.42 29.65 48.39 29.64 48.36 29.63 48.34 29.61 48.33 29.58 48.24 29.32 48.15 29.04 48.05 28.73 47.76 27.76 47.59 26.82 47.53 25.94 47.53 25.9 47.55 25.85 47.59 25.84 48.65 25.36 49.75 25.05 50.87 24.92 50.99 24.9 51.32 24.87 51.8 24.87 54.13 24.87 59.91 25.75 63.21 33.85 65.82 40.25 86.91 95.07 87.12 95.62 87.5 96.6 87.01 97.7 86.03 98.08 85.81 98.16 85.58 98.2 85.34 98.2ZM51.83 28.45C52.52 28.45 53.9 28.59 55.43 29.5 57.3 30.62 58.8 32.54 59.89 35.2 62.5 41.59 83.56 96.35 83.77 96.9 84.02 97.55 84.65 97.98 85.34 97.98L85.34 97.98C85.55 97.98 85.75 97.94 85.95 97.87 86.82 97.54 87.25 96.56 86.92 95.69 86.71 95.14 65.62 40.32 63.01 33.93 59.75 25.94 54.08 25.08 51.8 25.08 51.33 25.08 51.01 25.12 50.89 25.13 49.82 25.26 48.76 25.55 47.74 26.01 47.8 26.86 47.97 27.76 48.25 28.68 48.33 28.94 48.4 29.18 48.48 29.4 49.4 28.9 50.35 28.59 51.3 28.48L51.34 28.48C51.36 28.47 51.53 28.45 51.83 28.45Z" fill="#231F20"/></g></g></g><g opacity="0.5"><g><g><g><path d="M87.02 95.66C86.81 95.11 65.72 40.3 63.11 33.89 59.15 24.17 51.61 24.93 50.88 25.03 49.71 25.17 48.63 25.5 47.64 25.95 47.65 26.12 47.66 26.29 47.68 26.47 47.99 26.7 48.09 27.02 47.82 27.35 47.91 27.82 48.02 28.28 48.15 28.72 48.23 28.99 48.32 29.27 48.43 29.56 49.3 29.07 50.27 28.72 51.32 28.59 51.34 28.59 51.36 28.58 51.39 28.58 51.44 28.57 56.78 27.83 59.8 35.25 62.4 41.63 83.47 96.4 83.68 96.95 84.04 97.87 85.07 98.33 86 97.98 86.91 97.62 87.37 96.58 87.02 95.66Z" fill="#008CD0"/></g></g><g><g><path d="M85.34 98.2 85.34 98.2C84.56 98.2 83.85 97.71 83.57 96.98 83.36 96.43 62.29 41.67 59.69 35.28 59.06 33.73 56.62 28.65 51.83 28.65 51.55 28.65 51.4 28.67 51.4 28.67L51.33 28.68C50.37 28.8 49.41 29.12 48.48 29.63L48.37 29.69 48.33 29.57C48.24 29.31 48.15 29.03 48.05 28.72 47.92 28.27 47.8 27.81 47.71 27.34L47.7 27.29 47.73 27.25C47.83 27.12 47.88 27 47.86 26.88 47.84 26.75 47.76 26.63 47.61 26.52L47.57 26.49 47.57 26.44C47.55 26.27 47.54 26.09 47.53 25.92L47.53 25.85 47.6 25.82C48.66 25.34 49.76 25.03 50.88 24.9 51 24.88 51.33 24.85 51.81 24.85 54.14 24.85 59.92 25.73 63.22 33.83 65.83 40.23 86.92 95.05 87.13 95.6 87.51 96.58 87.02 97.68 86.04 98.06 85.81 98.16 85.58 98.2 85.34 98.2ZM51.83 28.45C52.52 28.45 53.9 28.59 55.43 29.5 57.3 30.62 58.8 32.54 59.89 35.2 62.5 41.59 83.56 96.35 83.77 96.9 84.02 97.55 84.65 97.98 85.34 97.98L85.34 97.98C85.55 97.98 85.75 97.94 85.95 97.87 86.82 97.54 87.25 96.56 86.92 95.69 86.71 95.14 65.62 40.32 63.01 33.93 59.75 25.94 54.08 25.08 51.8 25.08 51.33 25.08 51.01 25.12 50.89 25.13 49.82 25.26 48.76 25.55 47.74 26.01 47.75 26.14 47.76 26.27 47.77 26.4 47.94 26.54 48.05 26.7 48.07 26.87 48.09 27.03 48.04 27.2 47.93 27.37 48.02 27.81 48.12 28.26 48.25 28.68 48.33 28.94 48.4 29.18 48.48 29.4 49.4 28.9 50.35 28.59 51.3 28.48L51.34 28.48C51.36 28.47 51.53 28.45 51.83 28.45Z" fill="#231F20"/></g></g></g></g><g><g><g><g><path d="M112.52 95.66C112.31 95.11 91.22 40.3 88.61 33.89 84.65 24.17 77.11 24.93 76.37 25.03 75.2 25.17 75.28 25.35 74.29 25.8 74.3 25.97 73.16 26.29 73.17 26.46 73.48 26.69 73.58 27.01 73.31 27.34 73.4 27.81 73.51 28.27 73.64 28.71 73.72 28.98 73.81 29.26 73.92 29.55 74.8 29.06 75.76 28.71 76.81 28.58 76.83 28.58 76.85 28.57 76.87 28.57 76.92 28.56 82.26 27.82 85.28 35.24 87.88 41.62 108.95 96.39 109.16 96.94 109.52 97.86 110.55 98.32 111.48 97.97 112.42 97.62 112.88 96.58 112.52 95.66Z" fill="#008CD0"/></g></g><g><g><path d="M110.85 98.2 110.85 98.2C110.07 98.2 109.36 97.71 109.08 96.98 108.87 96.43 87.79 41.63 85.2 35.28 84.57 33.73 82.13 28.65 77.34 28.65 77.06 28.65 76.91 28.67 76.91 28.67L76.84 28.68C75.88 28.8 74.92 29.12 73.99 29.63L73.88 29.69 73.84 29.57C73.75 29.32 73.66 29.05 73.56 28.72 73.43 28.27 73.31 27.81 73.22 27.34L73.21 27.29 73.24 27.25C73.34 27.12 73.39 27 73.37 26.88 73.35 26.75 73.27 26.63 73.12 26.52L73.08 26.49 73.07 26.44C73.05 26.28 73.26 26.19 73.69 26 73.86 25.92 74.12 25.81 74.18 25.75L74.18 25.7 74.25 25.67C74.55 25.53 74.75 25.42 74.92 25.33 75.3 25.12 75.53 24.99 76.36 24.89 76.48 24.87 76.82 24.84 77.3 24.84 79.63 24.84 85.41 25.72 88.71 33.82 91.31 40.2 112.41 95.04 112.62 95.59 112.8 96.06 112.79 96.58 112.58 97.04 112.37 97.5 112 97.86 111.53 98.04 111.31 98.16 111.08 98.2 110.85 98.2ZM77.33 28.45C78.02 28.45 79.4 28.59 80.93 29.5 82.8 30.62 84.3 32.54 85.39 35.2 87.98 41.55 109.06 96.35 109.27 96.9 109.52 97.55 110.15 97.98 110.84 97.98L110.84 97.98C111.05 97.98 111.25 97.94 111.45 97.87 111.87 97.71 112.2 97.39 112.38 96.98 112.56 96.57 112.58 96.11 112.42 95.69 112.21 95.14 91.11 40.3 88.51 33.93 85.25 25.94 79.58 25.08 77.29 25.08 76.82 25.08 76.5 25.12 76.38 25.13 75.59 25.22 75.38 25.34 75.01 25.54 74.85 25.63 74.65 25.74 74.37 25.87 74.31 25.98 74.11 26.07 73.77 26.22 73.62 26.28 73.41 26.37 73.32 26.43 73.46 26.56 73.55 26.71 73.57 26.86 73.59 27.02 73.54 27.19 73.42 27.36 73.51 27.8 73.61 28.24 73.74 28.67 73.82 28.95 73.9 29.18 73.97 29.39 74.89 28.89 75.84 28.58 76.79 28.47L76.83 28.46C76.87 28.47 77.04 28.45 77.33 28.45Z" fill="#231F20"/></g></g></g></g><g><g><g><path d="M67.81 46.23C67.81 47.21 67.06 48 66.14 48 65.22 48 64.46 47.21 64.46 46.23 64.46 45.25 65.21 44.46 66.14 44.46 67.06 44.46 67.81 45.25 67.81 46.23Z" fill="#005EAD"/></g></g><g><g><path d="M66.13 48.11C65.15 48.11 64.35 47.27 64.35 46.23 64.35 45.19 65.15 44.35 66.13 44.35 67.11 44.35 67.91 45.19 67.91 46.23 67.91 47.27 67.12 48.11 66.13 48.11ZM66.13 44.56C65.26 44.56 64.56 45.31 64.56 46.23 64.56 47.15 65.26 47.9 66.13 47.9 66.99 47.9 67.7 47.15 67.7 46.23 67.7 45.31 67 44.56 66.13 44.56Z" fill="#17235A"/></g></g></g><g><g><g><path d="M75.24 65.2C75.24 66.18 74.49 66.97 73.57 66.97 72.65 66.97 71.9 66.18 71.9 65.2 71.9 64.22 72.65 63.43 73.57 63.43 74.5 63.42 75.24 64.22 75.24 65.2Z" fill="#005EAD"/></g></g><g><g><path d="M73.57 67.08C72.59 67.08 71.79 66.24 71.79 65.2 71.79 64.16 72.59 63.32 73.57 63.32 74.55 63.32 75.35 64.16 75.35 65.2 75.35 66.24 74.55 67.08 73.57 67.08ZM73.57 63.53C72.71 63.53 72 64.28 72 65.2 72 66.12 72.7 66.87 73.57 66.87 74.44 66.87 75.14 66.12 75.14 65.2 75.14 64.28 74.43 63.53 73.57 63.53Z" fill="#17235A"/></g></g></g><g><g><g><path d="M82.68 84.54C82.68 85.52 81.93 86.31 81.01 86.31 80.08 86.31 79.34 85.52 79.34 84.54 79.34 83.56 80.09 82.77 81.01 82.77 81.93 82.76 82.68 83.56 82.68 84.54Z" fill="#005EAD"/></g></g><g><g><path d="M81.01 86.42C80.03 86.42 79.23 85.57 79.23 84.54 79.23 83.5 80.03 82.66 81.01 82.66 81.99 82.66 82.79 83.5 82.79 84.54 82.79 85.57 81.99 86.42 81.01 86.42ZM81.01 82.87C80.14 82.87 79.44 83.62 79.44 84.54 79.44 85.46 80.14 86.21 81.01 86.21 81.87 86.21 82.58 85.46 82.58 84.54 82.57 83.62 81.87 82.87 81.01 82.87Z" fill="#17235A"/></g></g></g><g><g><g><g><g><path d="M104.16 83.67 81.82 83.67C81.32 83.67 80.92 83.95 80.92 84.45 80.92 84.94 81.32 85.23 81.82 85.23L104.61 85.23C104.66 85.23 104.72 85.23 104.77 85.22 104.56 84.7 104.34 84.19 104.16 83.67Z" fill="#ED1942"/></g></g><g><g><path d="M104.61 85.33 81.82 85.33C81.23 85.33 80.82 84.97 80.82 84.45 80.82 83.93 81.23 83.57 81.82 83.57L104.23 83.57 104.26 83.64C104.41 84.08 104.59 84.51 104.77 84.94L104.92 85.31 104.79 85.33C104.73 85.33 104.67 85.33 104.61 85.33ZM81.82 83.78C81.43 83.78 81.03 83.99 81.03 84.45 81.03 84.91 81.43 85.12 81.82 85.12L104.61 85.12 104.61 85.12 104.57 85.01C104.4 84.61 104.23 84.19 104.08 83.77L81.82 83.77Z" fill="#231F20"/></g></g></g><g><g><g><path d="M97.37 65.95C97.12 65.45 96.9 64.94 96.71 64.42L74.39 64.42C73.9 64.42 73.49 64.7 73.49 65.2 73.49 65.7 73.89 65.98 74.39 65.98L97.18 65.98C97.25 65.97 97.31 65.96 97.37 65.95 97.37 65.95 97.37 65.95 97.37 65.95Z" fill="#ED1942"/></g></g><g><g><path d="M97.19 66.08 74.39 66.08C73.8 66.08 73.39 65.72 73.39 65.19 73.39 64.67 73.8 64.3 74.39 64.3L96.78 64.3 96.81 64.37C96.99 64.86 97.21 65.36 97.47 65.89L97.53 66.02 97.39 66.05C97.32 66.07 97.26 66.08 97.19 66.08ZM74.39 64.52C74 64.52 73.6 64.73 73.6 65.19 73.6 65.65 74 65.86 74.39 65.86L97.18 65.86C97.18 65.86 97.2 65.86 97.21 65.86 96.99 65.39 96.8 64.95 96.63 64.51L74.39 64.51Z" fill="#231F20"/></g></g></g><g><g><g><path d="M89.69 45.97C89.62 45.85 89.55 45.73 89.48 45.62 89.45 45.62 89.43 45.61 89.4 45.61L66.6 45.61C66.11 45.61 65.71 45.9 65.71 46.39 65.71 46.89 66.11 47.17 66.6 47.17L89.4 47.17C89.64 47.17 89.86 47.1 90.03 46.97 89.95 46.74 89.87 46.51 89.81 46.28 89.76 46.18 89.73 46.08 89.69 45.97Z" fill="#ED1942"/></g></g><g><g><path d="M89.4 47.28 66.6 47.28C66.01 47.28 65.6 46.92 65.6 46.4 65.6 45.88 66.01 45.51 66.6 45.51L89.4 45.51C89.43 45.51 89.45 45.51 89.48 45.52L89.52 45.53 89.57 45.57C89.65 45.68 89.72 45.8 89.79 45.93L89.84 46.06C89.86 46.12 89.89 46.18 89.91 46.25 89.98 46.5 90.05 46.73 90.13 46.95L90.16 47.02 90.1 47.07C89.91 47.2 89.66 47.28 89.4 47.28ZM66.6 45.72C66.21 45.72 65.81 45.93 65.81 46.39 65.81 46.85 66.21 47.06 66.6 47.06L89.4 47.06C89.59 47.06 89.76 47.01 89.9 46.93 89.83 46.73 89.77 46.52 89.7 46.3 89.68 46.25 89.66 46.18 89.63 46.12L89.59 46C89.54 45.9 89.48 45.8 89.41 45.71 89.4 45.71 89.4 45.71 89.4 45.71L66.6 45.71Z" fill="#231F20"/></g></g></g></g></g></g></g><g><g><g><g><g><g><path d="M0.48 95.67C0.8 96.55 1.14 97.04 1.49 97.3 1.49 97.3 1.79 97.17 2.35 96.92 2.91 96.68 3.73 96.28 4.76 95.78 5.79 95.26 7.03 94.6 8.43 93.79 9.82 92.94 11.38 91.95 13.01 90.7 14.63 89.45 16.32 87.95 17.94 86.16 19.56 84.36 21.07 82.26 22.42 79.95 23.77 77.64 24.9 75.13 25.93 72.55 26.95 69.97 27.84 67.33 28.7 64.69 29.54 62.06 30.38 59.44 31.2 56.85 31.62 55.57 32.03 54.3 32.44 53.04 32.64 52.41 32.86 51.81 33.08 51.21 33.29 50.61 33.51 50.01 33.72 49.42 35.46 44.72 37.52 40.57 39.65 37.38 41.77 34.17 44 32.02 45.63 30.8 45.83 30.64 46.03 30.51 46.22 30.39 46.41 30.27 46.58 30.15 46.75 30.05 47.08 29.87 47.36 29.71 47.59 29.59 47.82 29.49 47.99 29.41 48.11 29.35 48.22 29.31 48.28 29.29 48.28 29.29 48.36 29.26 48.43 29.21 48.49 29.13 48.54 29.05 48.56 28.96 48.58 28.81 48.61 28.52 48.56 28.08 48.43 27.4 48.21 26.25 47.91 25.75 47.66 25.54 47.4 25.33 47.24 25.41 47.18 25.39 47.18 25.39 47.09 25.42 46.91 25.49 46.73 25.56 46.5 25.67 46.18 25.82 45.86 25.97 45.5 26.18 45.06 26.42 44.85 26.55 44.63 26.7 44.4 26.85 44.17 27.01 43.91 27.16 43.67 27.36 41.65 28.84 39.09 31.36 36.74 34.89 34.38 38.41 32.18 42.86 30.34 47.81 29.9 49.05 29.42 50.32 29 51.59 28.59 52.86 28.17 54.14 27.75 55.44 26.93 58.02 26.09 60.64 25.25 63.26 24.4 65.86 23.53 68.43 22.57 70.87 21.6 73.31 20.55 75.63 19.35 77.71 18.14 79.79 16.8 81.65 15.37 83.25 13.94 84.85 12.43 86.19 10.96 87.33 9.48 88.46 8.05 89.38 6.75 90.17 6.09 90.54 5.48 90.91 4.9 91.21 4.32 91.51 3.79 91.8 3.3 92.04 2.32 92.52 1.55 92.9 1.01 93.13 0.48 93.37 0.19 93.5 0.19 93.5 0.03 93.96 0.11 94.67 0.48 95.67Z" fill="#FBC041"/></g></g><g><g><path d="M1.49 97.41C1.47 97.41 1.45 97.4 1.43 97.39 1.04 97.1 0.7 96.55 0.39 95.71 0.03 94.73-0.08 93.97 0.07 93.45 0.08 93.42 0.1 93.4 0.13 93.38 0.13 93.38 0.42 93.25 0.95 93.01 1.38 92.82 1.96 92.54 2.69 92.19L3.23 91.93C3.54 91.78 3.86 91.6 4.2 91.42 4.4 91.31 4.61 91.2 4.82 91.09 5.19 90.9 5.57 90.68 5.97 90.44 6.2 90.31 6.43 90.18 6.66 90.04 7.79 89.35 9.29 88.41 10.86 87.21 12.52 85.92 13.96 84.59 15.26 83.14 16.7 81.52 18.04 79.66 19.22 77.62 20.31 75.73 21.36 73.5 22.44 70.79 23.45 68.21 24.36 65.5 25.11 63.18L28.85 51.51C29.12 50.68 29.43 49.84 29.72 49.04 29.88 48.6 30.03 48.16 30.19 47.73 32.04 42.76 34.26 38.28 36.6 34.79 39.38 30.62 42.15 28.26 43.56 27.23 43.73 27.09 43.92 26.97 44.1 26.85 44.17 26.81 44.23 26.76 44.3 26.72 44.39 26.66 44.47 26.61 44.55 26.56 44.69 26.47 44.83 26.38 44.97 26.29 45.12 26.21 45.25 26.13 45.38 26.06 45.65 25.91 45.88 25.78 46.1 25.68 46.21 25.63 46.3 25.59 46.39 25.55 46.57 25.47 46.72 25.4 46.84 25.35 47.02 25.28 47.11 25.25 47.11 25.25 47.13 25.24 47.15 25.24 47.17 25.25 47.2 25.25 47.22 25.24 47.25 25.24 47.4 25.24 47.54 25.3 47.69 25.41 48.04 25.7 48.31 26.35 48.5 27.33 48.62 27.97 48.69 28.46 48.65 28.78 48.63 28.94 48.6 29.05 48.54 29.14 48.48 29.24 48.39 29.3 48.28 29.35L48.11 29.41 47.6 29.65C47.44 29.73 47.24 29.84 47.01 29.97L46.77 30.1 46.23 30.46C46.05 30.58 45.86 30.7 45.67 30.85 44.46 31.75 42.09 33.79 39.71 37.4 37.56 40.62 35.51 44.78 33.79 49.42 33.6 49.94 33.41 50.47 33.22 51.01L33.02 51.58C32.85 52.05 32.68 52.54 32.52 53.04L31.28 56.85 28.78 64.69C27.95 67.22 27.05 69.92 26 72.56 24.81 75.54 23.69 77.9 22.49 79.97 21.15 82.28 19.64 84.38 18 86.2 16.54 87.82 14.87 89.35 13.06 90.76 11.41 92.03 9.82 93.03 8.47 93.85 7.26 94.56 6.02 95.23 4.79 95.85L4.62 95.93C3.67 96.39 2.91 96.76 2.38 96.99L1.53 97.4C1.52 97.41 1.51 97.41 1.49 97.41ZM0.26 93.56C0.14 94.04 0.25 94.74 0.58 95.64 0.86 96.41 1.16 96.91 1.5 97.18L2.3 96.82C2.83 96.59 3.58 96.23 4.53 95.76L4.7 95.67C5.92 95.05 7.16 94.38 8.37 93.68 9.71 92.87 11.3 91.86 12.93 90.6 14.74 89.2 16.39 87.68 17.85 86.07 19.48 84.26 20.98 82.18 22.31 79.88 23.51 77.82 24.63 75.47 25.81 72.5 26.85 69.87 27.76 67.17 28.58 64.65L31.45 55.68 32.32 53C32.48 52.49 32.65 52 32.83 51.53L33.03 50.96C33.22 50.43 33.41 49.9 33.6 49.37 35.33 44.71 37.38 40.54 39.54 37.3 41.94 33.66 44.33 31.6 45.55 30.7 45.75 30.54 45.94 30.42 46.12 30.3L46.67 29.94 46.92 29.8C47.15 29.67 47.35 29.56 47.52 29.47L48.04 29.23 48.22 29.16C48.29 29.13 48.34 29.1 48.37 29.04 48.41 28.98 48.43 28.9 48.44 28.77 48.48 28.47 48.4 28 48.29 27.39 48.07 26.22 47.76 25.77 47.55 25.59 47.37 25.44 47.26 25.46 47.2 25.47 47.18 25.47 47.17 25.47 47.16 25.47 47.12 25.48 47.04 25.51 46.92 25.56 46.8 25.6 46.66 25.67 46.49 25.75 46.4 25.79 46.3 25.84 46.2 25.88 45.99 25.98 45.76 26.1 45.5 26.25 45.37 26.32 45.23 26.4 45.09 26.48 44.96 26.56 44.82 26.65 44.68 26.74 44.6 26.79 44.52 26.85 44.43 26.9 44.37 26.94 44.3 26.99 44.23 27.03 44.05 27.14 43.87 27.26 43.7 27.4 42.3 28.42 39.55 30.76 36.79 34.91 34.46 38.39 32.25 42.85 30.4 47.81 30.25 48.24 30.09 48.68 29.93 49.12 29.64 49.93 29.34 50.76 29.06 51.59L27.81 55.44 25.31 63.26C24.55 65.58 23.65 68.3 22.63 70.88 21.55 73.6 20.49 75.84 19.4 77.73 18.21 79.79 16.86 81.66 15.41 83.29 14.1 84.75 12.65 86.09 10.98 87.38 9.41 88.59 7.9 89.54 6.76 90.23 6.52 90.36 6.29 90.5 6.07 90.63 5.66 90.86 5.28 91.08 4.91 91.28 4.7 91.39 4.49 91.5 4.29 91.61 3.94 91.79 3.62 91.96 3.31 92.12L2.77 92.38C2.04 92.74 1.46 93.02 1.02 93.21 0.62 93.39 0.36 93.51 0.26 93.56Z" fill="#231F20"/></g></g></g></g></g><g><g><g><path d="M47.44 26.5 48.05 26.13C48.05 26.13 48.8 27.56 52.98 27.76 57.15 27.96 70.77 27.83 73.68 26.35 76.59 24.88 76.51 25.28 76.83 26.51 77.15 27.73 71.35 28.43 67.46 33.8 63.57 39.17 56.15 57.61 52.32 70 48.49 82.37 31.46 95.58 27.1 96.03L25.91 99.12C25.91 99.12 11.42 100.42 1.48 97.31 1.48 97.31 0.38 95.8 1.89 94.86 3.4 93.92 14.42 90.14 20.53 80.38 26.64 70.62 27.45 62.13 29.12 57.13 30.81 52.13 36.23 31.8 47.44 26.5Z" fill="#FBC041"/></g></g><g><g><path d="M18.7 99.49C13.87 99.49 6.96 99.13 1.45 97.4 1.43 97.39 1.41 97.38 1.4 97.36 1.38 97.33 0.87 96.62 1.02 95.84 1.11 95.41 1.38 95.04 1.84 94.76 2.08 94.61 2.56 94.39 3.22 94.09 6.84 92.42 15.32 88.51 20.45 80.32 24.98 73.08 26.61 66.45 27.81 61.6 28.24 59.87 28.6 58.38 29.03 57.09 29.18 56.63 29.37 56.03 29.59 55.33 31.66 48.74 37.17 31.24 47.38 26.4L47.98 26.03C48.01 26.02 48.04 26.01 48.06 26.02 48.09 26.03 48.11 26.05 48.13 26.07 48.14 26.08 48.93 27.45 52.97 27.65 53.95 27.7 55.37 27.72 56.97 27.72 63.32 27.72 71.48 27.34 73.62 26.25 74.98 25.56 75.67 25.3 76.08 25.3 76.62 25.3 76.72 25.72 76.87 26.3L76.92 26.48C77.07 27.04 76.27 27.43 74.94 28.09 72.93 29.08 69.9 30.59 67.53 33.85 63.67 39.18 56.22 57.67 52.4 70.02 50.14 77.32 43.63 84.14 39.96 87.56 35 92.16 29.53 95.83 27.16 96.13L26 99.16C25.98 99.2 25.95 99.22 25.91 99.23 25.9 99.22 22.87 99.49 18.7 99.49ZM1.56 97.21C7.03 98.92 13.9 99.28 18.7 99.28 22.52 99.28 25.37 99.06 25.84 99.02L27 95.99C27.01 95.95 27.05 95.93 27.09 95.92 29.38 95.68 34.86 92.02 39.83 87.4 43.49 84 49.97 77.21 52.21 69.95 56.04 57.59 63.49 39.07 67.37 33.72 69.77 30.41 72.83 28.89 74.86 27.89 76 27.32 76.83 26.92 76.73 26.52L76.68 26.34C76.53 25.74 76.45 25.5 76.09 25.5 75.71 25.5 75.03 25.77 73.72 26.43 71.55 27.53 63.34 27.92 56.98 27.92 55.38 27.92 53.95 27.89 52.97 27.85 49.35 27.68 48.26 26.59 48.01 26.26L47.49 26.58C37.35 31.38 31.86 48.82 29.8 55.38 29.58 56.09 29.39 56.68 29.24 57.15 28.81 58.43 28.45 59.92 28.02 61.64 26.82 66.5 25.19 73.15 20.64 80.42 15.47 88.67 6.95 92.6 3.31 94.28 2.66 94.58 2.19 94.8 1.95 94.94 1.55 95.19 1.3 95.51 1.23 95.88 1.12 96.49 1.47 97.08 1.56 97.21Z" fill="#231F20"/></g></g></g><g><g><path d="M45.15 78.5C43.08 79.56 40.83 79.79 38.58 79.87 36.56 79.94 34.52 79.93 32.5 79.81 29.71 79.64 26.65 79.32 24.26 77.6 23.7 77.2 23.25 76.72 22.9 76.2 22.22 77.56 21.44 78.95 20.56 80.37 14.43 90.13 3.41 93.91 1.9 94.85 0.39 95.79 1.49 97.3 1.49 97.3 11.43 100.42 25.92 99.11 25.92 99.11L27.11 96.02C30.92 95.62 44.45 85.45 50.33 74.61 48.69 76.08 47.06 77.52 45.15 78.5Z" fill="#FBC041"/></g></g><g><g><g><path d="M48.05 26.12 47.44 26.49C36.23 31.8 30.81 52.12 29.14 57.12 27.47 62.11 26.66 70.61 20.55 80.37 14.43 90.13 3.41 93.91 1.9 94.85 1.81 94.91 1.73 94.96 1.66 95.02 1.76 95.01 1.86 95.02 1.96 95.04 2.7 95.18 3.11 95.81 3.58 96.37 3.95 96.08 4.43 95.94 4.91 95.8 7.47 94.81 13.34 91.86 19.82 85.85 27.95 78.31 30.7 58.68 36.63 45.48 41.72 34.16 48.22 28.63 49.97 27.29 48.41 26.79 48.05 26.12 48.05 26.12Z" fill="#FBC041"/></g></g></g><g><g><g><g><g><path d="M24.43 98.64C24.52 98.78 24.63 98.91 24.78 99.01 25.51 99.51 26.45 99.07 27.19 98.87 27.19 98.87 27.5 98.73 28.09 98.48 28.68 98.23 29.53 97.83 30.61 97.32 32.76 96.26 35.85 94.69 39.28 92.16 40.99 90.89 42.78 89.37 44.5 87.55 46.23 85.73 47.86 83.57 49.31 81.2 50.77 78.83 52 76.22 53.11 73.55 54.22 70.87 55.18 68.12 56.12 65.38 57.03 62.64 57.94 59.91 58.83 57.22 59.28 55.89 59.73 54.56 60.17 53.25 60.39 52.59 60.63 51.97 60.86 51.34 61.09 50.71 61.32 50.09 61.55 49.48 63.44 44.59 65.66 40.29 67.95 36.99 70.24 33.68 72.61 31.47 74.35 30.22 74.56 30.05 74.78 29.93 74.98 29.8 75.18 29.67 75.36 29.55 75.54 29.45 75.89 29.27 76.19 29.09 76.43 28.98 76.67 28.87 76.86 28.79 76.98 28.73 77.1 28.69 77.16 28.66 77.16 28.66 77.25 28.63 77.32 28.58 77.38 28.49 77.43 28.41 77.47 28.31 77.48 28.17 77.52 27.88 77.47 27.44 77.35 26.75 77.13 25.6 76.83 25.1 76.58 24.89 76.32 24.68 76.14 24.76 76.09 24.74 76.09 24.74 75.7 24.87 75.05 25.17 74.72 25.31 74.35 25.54 73.89 25.77 73.67 25.89 73.44 26.05 73.19 26.2 72.95 26.36 72.67 26.51 72.42 26.71 70.3 28.21 67.59 30.78 65.06 34.4 62.53 38.02 60.16 42.63 58.17 47.77 57.7 49.06 57.18 50.38 56.73 51.7 56.28 53.02 55.83 54.36 55.38 55.71 54.49 58.39 53.58 61.12 52.68 63.85 50.85 69.26 48.89 74.54 46.27 78.85 44.96 81 43.53 82.92 41.98 84.54 40.44 86.18 38.83 87.55 37.27 88.72 34.13 91.03 31.22 92.54 29.17 93.54 28.14 94.03 27.33 94.42 26.76 94.65 25.8 95.05 24.71 95.83 24.34 96.93 24.15 97.5 24.13 98.16 24.43 98.64Z" fill="#ED1942"/></g></g><g><g><path d="M25.57 99.34 25.57 99.34C25.24 99.34 24.96 99.26 24.71 99.09 24.56 98.98 24.43 98.85 24.33 98.69 24.04 98.23 24 97.56 24.23 96.9 24.56 95.94 25.49 95.07 26.71 94.55 27.2 94.34 27.87 94.03 28.72 93.62L29.11 93.43C31.26 92.37 34.13 90.87 37.19 88.62 38.95 87.3 40.49 85.94 41.89 84.46 43.41 82.86 44.85 80.96 46.17 78.78 48.81 74.45 50.81 69.02 52.57 63.81L55.67 54.49 56.63 51.67C56.93 50.8 57.26 49.93 57.57 49.08 57.74 48.63 57.91 48.18 58.07 47.74 60.06 42.59 62.45 37.96 64.97 34.34 67.97 30.04 70.89 27.66 72.36 26.62 72.53 26.49 72.71 26.37 72.88 26.27 72.97 26.22 73.05 26.16 73.13 26.11 73.21 26.06 73.29 26.01 73.37 25.96 73.53 25.86 73.68 25.76 73.84 25.67 73.99 25.59 74.13 25.51 74.26 25.44 74.54 25.29 74.78 25.16 75.01 25.06 75.38 24.89 75.74 24.74 76.04 24.63L76.04 24.63C76.07 24.62 76.09 24.61 76.12 24.62 76.16 24.62 76.18 24.61 76.2 24.61 76.35 24.61 76.5 24.67 76.64 24.78 76.99 25.08 77.27 25.72 77.45 26.71 77.59 27.47 77.63 27.88 77.58 28.16 77.56 28.32 77.52 28.44 77.46 28.53 77.39 28.63 77.3 28.7 77.19 28.74L76.86 28.87 76.46 29.05C76.32 29.12 76.16 29.2 75.97 29.3 75.84 29.37 75.71 29.44 75.57 29.51L75.02 29.86C74.97 29.89 74.92 29.93 74.86 29.96 74.71 30.05 74.55 30.15 74.4 30.27 73.13 31.18 70.61 33.26 68.02 37.02 65.7 40.36 63.49 44.67 61.64 49.49L60.79 51.77C60.61 52.25 60.43 52.74 60.26 53.25 59.83 54.52 59.4 55.8 58.97 57.09L58.92 57.22C58.03 59.91 57.12 62.65 56.21 65.38 55.36 67.87 54.36 70.77 53.2 73.56 51.9 76.67 50.69 79.11 49.39 81.23 47.92 83.65 46.29 85.79 44.57 87.6 43.02 89.24 41.26 90.8 39.33 92.23 36.06 94.63 33.1 96.19 30.64 97.4 29.53 97.93 28.7 98.32 28.11 98.56L27.21 98.95C27.07 98.99 26.93 99.03 26.79 99.07 26.43 99.21 25.99 99.34 25.57 99.34ZM76.12 24.84C75.83 24.94 75.48 25.09 75.12 25.26 74.9 25.36 74.66 25.48 74.39 25.63 74.26 25.7 74.12 25.78 73.97 25.86 73.82 25.94 73.68 26.04 73.52 26.14 73.44 26.19 73.36 26.24 73.28 26.29 73.2 26.34 73.12 26.4 73.03 26.45 72.86 26.56 72.69 26.66 72.52 26.79 71.06 27.82 68.16 30.19 65.18 34.46 62.67 38.06 60.29 42.68 58.3 47.81 58.14 48.25 57.97 48.7 57.8 49.15 57.48 49.99 57.16 50.87 56.86 51.73L55.51 55.74 52.81 63.88C51.04 69.11 49.04 74.55 46.39 78.9 45.06 81.09 43.61 83.01 42.09 84.61 40.68 86.11 39.14 87.48 37.36 88.8 34.28 91.06 31.41 92.57 29.24 93.63L28.85 93.82C28 94.22 27.32 94.54 26.83 94.75 26.39 94.93 24.92 95.63 24.46 96.97 24.25 97.57 24.28 98.17 24.54 98.58 24.62 98.71 24.73 98.82 24.86 98.91 25.07 99.05 25.31 99.12 25.59 99.12 25.97 99.12 26.38 99 26.77 98.88 26.91 98.84 27.05 98.79 27.18 98.76L28.06 98.37C28.64 98.12 29.47 97.73 30.58 97.21 33.04 96.01 35.98 94.45 39.24 92.06 41.16 90.64 42.91 89.09 44.45 87.46 46.16 85.66 47.78 83.53 49.24 81.13 50.54 79.02 51.74 76.59 53.04 73.49 54.19 70.71 55.2 67.82 56.04 65.32 56.95 62.59 57.86 59.85 58.75 57.16L58.79 57.03C59.22 55.74 59.66 54.46 60.08 53.19 60.25 52.68 60.44 52.18 60.61 51.7L61.46 49.42C63.32 44.59 65.54 40.26 67.87 36.91 70.48 33.13 73.02 31.03 74.3 30.12 74.46 29.99 74.62 29.89 74.78 29.79 74.83 29.76 74.88 29.72 74.93 29.69L75.49 29.33C75.64 29.25 75.77 29.18 75.9 29.11 76.09 29.01 76.25 28.92 76.4 28.85L76.95 28.6 77.14 28.53C77.21 28.5 77.27 28.46 77.31 28.4 77.35 28.34 77.38 28.25 77.4 28.13 77.44 27.87 77.4 27.47 77.27 26.75 77.05 25.59 76.75 25.13 76.53 24.95 76.35 24.8 76.24 24.82 76.17 24.82 76.15 24.84 76.14 24.84 76.12 24.84Z" fill="#AC191D"/></g></g></g></g></g><g><g><g><g><g><path d="M24.43 98.64C24.52 98.78 24.63 98.91 24.78 99.01 25.51 99.51 25.89 99.5 28.09 98.48 28.67 98.21 29.53 97.83 30.61 97.32 32.76 96.26 35.85 94.69 39.28 92.16 40.99 90.89 42.78 89.37 44.5 87.55 46.23 85.73 47.86 83.57 49.31 81.2 50.77 78.83 52 76.22 53.11 73.55 54.22 70.87 55.18 68.12 56.12 65.38 57.03 62.64 57.94 59.91 58.83 57.22 59.28 55.89 59.73 54.56 60.17 53.25 60.39 52.59 60.63 51.97 60.86 51.34 61.09 50.71 61.32 50.09 61.55 49.48 63.44 44.59 65.66 40.29 67.95 36.99 70.24 33.68 72.61 31.47 74.35 30.22 74.56 30.05 74.78 29.93 74.98 29.8 75.18 29.67 75.36 29.55 75.54 29.45 75.89 29.27 76.19 29.09 76.43 28.98 76.67 28.87 76.86 28.79 76.98 28.73 77.1 28.69 77.16 28.66 77.16 28.66 77.25 28.63 77.32 28.58 77.38 28.49 77.43 28.41 77.47 28.31 77.48 28.17 77.52 27.88 77.47 27.44 77.35 26.75 77.13 25.6 76.83 25.1 76.58 24.89 76.32 24.68 76.14 24.76 76.09 24.74 76.09 24.74 75.7 24.87 75.05 25.17 74.72 25.31 74.35 25.54 73.89 25.77 73.67 25.89 73.44 26.05 73.19 26.2 72.95 26.36 72.67 26.51 72.42 26.71 70.3 28.21 67.59 30.78 65.06 34.4 62.53 38.02 60.16 42.63 58.17 47.77 57.7 49.06 57.18 50.38 56.73 51.7 56.28 53.02 55.83 54.36 55.38 55.71 54.49 58.39 53.58 61.12 52.68 63.85 50.85 69.26 48.89 74.54 46.27 78.85 44.96 81 43.53 82.92 41.98 84.54 40.44 86.18 38.83 87.55 37.27 88.72 34.13 91.03 31.22 92.54 29.17 93.54 28.14 94.03 27.33 94.42 26.76 94.65 25.8 95.05 24.71 95.83 24.34 96.93 24.15 97.5 24.13 98.16 24.43 98.64Z" fill="#FBC041"/></g></g><g><g><path d="M25.64 99.43C25.28 99.43 25.02 99.3 24.72 99.09 24.57 98.98 24.44 98.85 24.34 98.69 24.05 98.23 24.01 97.56 24.24 96.9 24.57 95.94 25.5 95.07 26.72 94.55 27.21 94.34 27.88 94.03 28.73 93.62L29.12 93.43C31.27 92.37 34.14 90.87 37.2 88.62 38.96 87.3 40.5 85.94 41.9 84.46 43.42 82.86 44.86 80.96 46.18 78.78 48.82 74.45 50.82 69.02 52.58 63.81L55.68 54.49 56.64 51.67C56.94 50.8 57.27 49.93 57.58 49.08 57.75 48.63 57.92 48.18 58.08 47.74 60.07 42.59 62.46 37.96 64.98 34.34 67.98 30.04 70.9 27.66 72.37 26.62 72.54 26.49 72.72 26.37 72.89 26.27 72.98 26.22 73.06 26.16 73.14 26.11 73.22 26.06 73.3 26.01 73.38 25.96 73.54 25.86 73.69 25.76 73.85 25.67 74 25.59 74.14 25.51 74.27 25.44 74.55 25.29 74.79 25.16 75.02 25.06 75.39 24.89 75.75 24.74 76.05 24.63L76.05 24.63C76.08 24.62 76.1 24.61 76.13 24.62 76.17 24.62 76.19 24.61 76.21 24.61 76.36 24.61 76.51 24.67 76.65 24.78 77 25.08 77.28 25.72 77.46 26.71 77.6 27.47 77.64 27.88 77.59 28.16 77.57 28.32 77.53 28.44 77.47 28.53 77.4 28.63 77.31 28.7 77.2 28.74L76.87 28.87 76.47 29.05C76.33 29.12 76.17 29.2 75.98 29.3 75.85 29.37 75.72 29.44 75.58 29.51L75.03 29.86C74.98 29.89 74.93 29.93 74.87 29.96 74.72 30.05 74.56 30.15 74.41 30.27 73.14 31.18 70.62 33.26 68.03 37.02 65.71 40.36 63.5 44.67 61.65 49.49L60.8 51.77C60.62 52.25 60.44 52.74 60.27 53.25 59.84 54.52 59.41 55.8 58.98 57.09L58.93 57.22C58.04 59.91 57.13 62.65 56.22 65.38 55.37 67.87 54.37 70.77 53.21 73.56 51.91 76.67 50.7 79.11 49.4 81.23 47.93 83.65 46.3 85.79 44.58 87.6 43.03 89.24 41.27 90.8 39.34 92.23 36.07 94.63 33.11 96.19 30.65 97.4 29.88 97.77 29.23 98.06 28.7 98.3 28.49 98.4 28.29 98.48 28.13 98.56 26.72 99.22 26.11 99.43 25.64 99.43ZM76.12 24.84C75.83 24.94 75.48 25.09 75.12 25.26 74.9 25.36 74.66 25.48 74.39 25.63 74.26 25.7 74.12 25.78 73.97 25.86 73.82 25.94 73.68 26.04 73.52 26.14 73.44 26.19 73.36 26.24 73.28 26.29 73.2 26.34 73.12 26.4 73.03 26.45 72.86 26.56 72.69 26.66 72.52 26.79 71.06 27.82 68.16 30.19 65.18 34.46 62.67 38.06 60.29 42.68 58.3 47.81 58.14 48.25 57.97 48.7 57.8 49.15 57.48 49.99 57.16 50.87 56.86 51.73L55.51 55.74 52.81 63.88C51.04 69.11 49.04 74.55 46.39 78.9 45.06 81.09 43.61 83.01 42.09 84.61 40.68 86.11 39.14 87.48 37.36 88.8 34.28 91.06 31.41 92.57 29.24 93.63L28.85 93.82C28 94.22 27.32 94.54 26.83 94.75 26.39 94.93 24.92 95.63 24.46 96.97 24.25 97.57 24.28 98.17 24.54 98.58 24.62 98.71 24.73 98.82 24.86 98.91 25.14 99.1 25.36 99.22 25.66 99.22 26.09 99.22 26.7 99.01 28.06 98.38 28.23 98.3 28.42 98.22 28.64 98.12 29.16 97.88 29.82 97.58 30.59 97.22 33.05 96.02 35.99 94.46 39.25 92.07 41.17 90.65 42.92 89.1 44.46 87.47 46.17 85.67 47.79 83.54 49.25 81.14 50.55 79.03 51.75 76.6 53.05 73.5 54.2 70.72 55.21 67.83 56.05 65.33 56.96 62.6 57.87 59.86 58.76 57.17L58.8 57.04C59.23 55.75 59.67 54.47 60.09 53.2 60.26 52.69 60.45 52.19 60.62 51.71L61.47 49.43C63.33 44.6 65.55 40.27 67.88 36.92 70.49 33.14 73.03 31.04 74.31 30.13 74.47 30 74.63 29.9 74.79 29.8 74.84 29.77 74.89 29.73 74.94 29.7L75.5 29.34C75.65 29.26 75.78 29.19 75.91 29.12 76.1 29.02 76.26 28.93 76.41 28.86L76.96 28.61 77.15 28.54C77.22 28.51 77.28 28.47 77.32 28.41 77.36 28.35 77.39 28.26 77.41 28.14 77.45 27.88 77.41 27.48 77.28 26.76 77.06 25.6 76.76 25.14 76.54 24.96 76.36 24.81 76.25 24.83 76.18 24.83 76.15 24.84 76.14 24.84 76.12 24.84Z" fill="#231F20"/></g></g></g></g></g><g><g><g opacity="0.5"><g><path d="M74.92 26.12C70.55 28.68 68 31.49 65.46 35.12 62.93 38.74 60.56 43.35 58.57 48.49 58.1 49.78 57.58 51.1 57.13 52.42 56.68 53.74 56.23 55.08 55.78 56.43 54.89 59.12 53.98 61.84 53.08 64.57 51.25 69.98 49.29 75.26 46.67 79.56 45.37 81.71 43.93 83.63 42.38 85.26 40.84 86.89 39.23 88.27 37.67 89.43 34.52 91.74 30.91 93.69 28.11 95.01 28.11 95.01 39.05 92.32 47.22 80.55 47.22 80.55 50.3 75.56 53.89 65.12 57.52 54.55 63.62 38.44 67.2 33.82 70.89 29.02 74.92 26.12 74.92 26.12Z" fill="#FFFFFF"/></g></g></g></g><g><g><g opacity="0.5"><g><path d="M46.6 26.32C42.23 28.88 39.67 31.69 37.14 35.32 34.61 38.94 32.24 43.55 30.25 48.69 29.78 49.98 29.26 51.3 28.81 52.62 28.36 53.94 27.91 55.28 27.46 56.63 26.57 59.32 25.75 62.72 24.84 65.45 23.01 70.86 21.35 75.29 18.73 79.59 17.42 81.74 15.65 83.75 13.98 85.22 12.19 86.8 11.29 87.62 9.73 88.78 6.59 91.09 5.06 91.7 2.26 93.02 2.26 93.02 10 91.53 18.88 80.76 18.88 80.76 23.17 74.75 25.62 65.52 30.37 47.59 35.28 38.64 38.85 34.02 42.57 29.23 46.6 26.32 46.6 26.32Z" fill="#FFFFFF"/></g></g></g></g><g><g><g><path d="M1.49 97.3C1.49 97.3-0.14 95.35 0.17 93.48 0.17 93.48 1.38 92.39 2.23 94.07 3.08 95.75 13.23 100.21 22.27 96.75 22.27 96.75 26.01 94 27.07 95.46 28.13 96.92 26.89 99.37 25.89 99.48 24.66 99.62 8.22 101.13 1.49 97.3Z" fill="#FBC041"/></g></g><g><g><path d="M17.16 100C12.08 100 5.22 99.55 1.43 97.39 1.42 97.38 1.41 97.38 1.4 97.37 1.33 97.29-0.26 95.36 0.05 93.46 0.06 93.44 0.07 93.42 0.09 93.4 0.11 93.38 0.51 93.02 1.03 93.02 1.54 93.02 1.98 93.36 2.31 94.02 2.89 95.18 8.44 97.92 15 97.92 17.58 97.92 20 97.49 22.2 96.65 22.4 96.5 24.61 94.92 26.09 94.92 26.56 94.92 26.91 95.08 27.14 95.39 27.67 96.12 27.71 97.18 27.25 98.22 26.91 98.99 26.37 99.53 25.89 99.58 25.86 99.6 22.03 100 17.16 100ZM1.56 97.22C5.31 99.34 12.11 99.79 17.16 99.79 22.02 99.79 25.83 99.39 25.87 99.39 26.27 99.35 26.75 98.85 27.06 98.16 27.39 97.41 27.54 96.33 26.97 95.54 26.78 95.28 26.49 95.15 26.09 95.15 24.64 95.15 22.34 96.83 22.32 96.84 22.31 96.85 22.3 96.85 22.3 96.85 20.07 97.7 17.62 98.13 15.01 98.13 8.74 98.13 2.83 95.49 2.13 94.11 1.83 93.53 1.47 93.23 1.04 93.23 0.67 93.23 0.36 93.45 0.27 93.53 0.01 95.24 1.42 97.04 1.56 97.22Z" fill="#231F20"/></g></g></g></g></g><g><g><g><g><path d="M44.91 33.03C44.89 33.03 44.86 33.03 44.84 33.02 44.62 32.94 39.28 31.05 37.06 29.1 34.85 27.17 29.76 21.16 29.71 21.1 29.63 21.01 29.65 20.88 29.74 20.8 29.83 20.72 29.96 20.73 30.04 20.82 30.09 20.88 35.16 26.86 37.34 28.78 39.5 30.68 44.93 32.6 44.99 32.62 45.1 32.66 45.16 32.78 45.12 32.89 45.08 32.97 44.99 33.03 44.91 33.03Z" fill="#1D1C1A"/></g></g><g><g><g><path d="M25.61 17.27C25.41 17.54 26.86 19.04 27.28 19.37 27.24 19.36 27.2 19.34 27.17 19.33 26.88 19.23 26.61 19.07 26.32 18.96 26.07 18.86 25.15 18.38 25.06 18.97 24.99 19.47 25.93 19.82 26.25 20.01 27.32 20.64 28.21 22.45 29.65 22.11 30.02 22.02 30.41 21.78 30.69 21.52 31.2 21.04 31.47 20.37 31.67 19.72 31.81 19.24 32.23 18.24 31.87 17.79 31.66 17.52 31.38 17.73 31.21 17.92 31.08 18.06 30.98 18.22 30.88 18.38 30.84 18.46 30.59 18.83 30.63 18.91 30.41 18.4 30.17 17.89 29.88 17.42 29.87 17.4 29.86 17.38 29.84 17.37 29.73 17.15 29.6 16.94 29.46 16.74 29.24 16.43 28.94 15.91 28.5 15.94 27.94 15.97 28.33 17.1 28.75 17.94 28.37 17.51 27.9 16.98 27.51 16.7 27.33 16.57 26.84 16.16 26.64 16.47 26.54 16.63 26.7 16.88 26.77 17.01 26.9 17.23 27.06 17.45 27.21 17.65 27.33 17.81 27.45 17.95 27.57 18.1 27.67 18.23 27.77 18.4 27.9 18.5 27.24 17.91 25.95 16.79 25.61 17.27Z" fill="#F7D6B6"/></g></g><g><g><path d="M29.68 22.21C28.66 22.45 27.92 21.7 27.21 20.98 26.87 20.63 26.54 20.3 26.2 20.1 26.14 20.06 26.06 20.02 25.97 19.98 25.54 19.77 24.89 19.43 24.96 18.95 24.99 18.72 25.13 18.63 25.24 18.6 25.52 18.51 25.91 18.67 26.25 18.82 26.29 18.84 26.32 18.85 26.35 18.86 26.47 18.91 26.59 18.97 26.71 19.02 26.73 19.03 26.76 19.04 26.78 19.06 26.21 18.5 25.29 17.51 25.51 17.21 25.56 17.14 25.63 17.09 25.71 17.07 26.04 16.97 26.57 17.28 27.17 17.74 27.16 17.73 27.15 17.71 27.14 17.7 26.99 17.5 26.83 17.28 26.68 17.03 26.59 16.87 26.43 16.6 26.56 16.4 26.61 16.32 26.67 16.27 26.75 16.25 26.99 16.18 27.28 16.37 27.53 16.56L27.58 16.6C27.83 16.78 28.1 17.05 28.38 17.35 28.19 16.89 28.04 16.35 28.17 16.05 28.23 15.91 28.34 15.83 28.5 15.82 28.96 15.79 29.26 16.24 29.49 16.57L29.56 16.67C29.69 16.86 29.82 17.07 29.95 17.31 29.96 17.33 29.98 17.35 29.99 17.36 30.23 17.75 30.43 18.15 30.64 18.62 30.67 18.55 30.72 18.47 30.78 18.38L30.81 18.33C30.92 18.14 31.03 17.99 31.15 17.85 31.24 17.75 31.38 17.63 31.53 17.58 31.7 17.53 31.86 17.58 31.97 17.73 32.31 18.16 32.04 18.98 31.86 19.52 31.83 19.6 31.81 19.68 31.79 19.75 31.61 20.33 31.34 21.07 30.78 21.6 30.5 21.86 30.13 22.08 29.8 22.18 29.75 22.2 29.72 22.21 29.68 22.21ZM31.3 17.99C31.19 18.11 31.09 18.26 30.99 18.43L30.96 18.49C30.79 18.77 30.76 18.86 30.75 18.87 30.77 18.92 30.75 18.99 30.7 19.01 30.64 19.04 30.58 19.01 30.56 18.96 30.31 18.39 30.09 17.93 29.81 17.48 29.8 17.47 29.79 17.45 29.77 17.42 29.65 17.19 29.52 16.98 29.39 16.8L29.32 16.69C29.12 16.4 28.86 16.01 28.52 16.03 28.45 16.03 28.4 16.06 28.37 16.13 28.26 16.38 28.45 17.07 28.86 17.88 28.88 17.93 28.87 17.99 28.82 18.02 28.77 18.05 28.71 18.04 28.68 18 28.27 17.53 27.83 17.04 27.46 16.78L27.41 16.74C27.26 16.62 26.87 16.32 26.75 16.52 26.69 16.61 26.82 16.84 26.89 16.95 27.02 17.17 27.17 17.38 27.32 17.58 27.43 17.73 27.56 17.88 27.67 18.03 27.71 18.07 27.75 18.13 27.79 18.18 27.85 18.27 27.92 18.36 27.99 18.43 28.03 18.47 28.04 18.54 28 18.58 27.96 18.62 27.89 18.63 27.85 18.59L27.85 18.59 27.85 18.59C27.4 18.2 26.21 17.15 25.78 17.28 25.74 17.29 25.72 17.31 25.7 17.34 25.64 17.56 26.81 18.87 27.35 19.3 27.39 19.33 27.4 19.39 27.38 19.43 27.36 19.48 27.3 19.5 27.25 19.48L27.14 19.44C26.96 19.38 26.8 19.3 26.63 19.23 26.51 19.18 26.4 19.12 26.28 19.07 26.25 19.06 26.22 19.04 26.17 19.03 25.96 18.94 25.53 18.75 25.3 18.82 25.25 18.84 25.18 18.87 25.16 19 25.11 19.33 25.71 19.63 26.06 19.81 26.16 19.86 26.24 19.9 26.3 19.94 26.66 20.16 27 20.5 27.35 20.85 28.02 21.53 28.72 22.24 29.62 22.02 29.95 21.94 30.33 21.73 30.61 21.46 31.14 20.97 31.4 20.26 31.57 19.7 31.59 19.63 31.62 19.55 31.65 19.47 31.8 19 32.06 18.22 31.79 17.87 31.73 17.79 31.66 17.77 31.58 17.79 31.5 17.81 31.4 17.88 31.3 17.99Z" fill="#1D1C1A"/></g></g></g></g><g><g><g><g><path d="M37.07 59.15 36.6 60.87C36.6 60.87 33.4 59.63 31.32 53.6 31.32 53.6 36.33 53.58 37.07 59.15Z" fill="#1A4168"/></g></g><g><g><path d="M36.6 60.98C36.59 60.98 36.57 60.98 36.56 60.97 36.43 60.92 33.29 59.64 31.22 53.63 31.21 53.6 31.21 53.56 31.23 53.53 31.25 53.5 31.28 53.48 31.32 53.48 31.53 53.48 36.44 53.54 37.17 59.12 37.17 59.13 37.17 59.15 37.17 59.16L36.7 60.9C36.69 60.93 36.67 60.95 36.65 60.97 36.63 60.97 36.61 60.98 36.6 60.98ZM31.47 53.71C33.29 58.87 35.96 60.44 36.53 60.72L36.96 59.14C36.3 54.24 32.32 53.76 31.47 53.71Z" fill="#1D1C1A"/></g></g></g><g><g><g><path d="M34.87 57.51C34.03 56.14 32.86 54.41 31.32 53.6L39.95 50.58 45.01 48.24 48.85 49.36C48.85 49.36 49.83 56.11 44.76 57.53 41.18 58.53 37.99 60.12 36.6 60.87 36.11 59.68 35.5 58.54 34.87 57.51Z" fill="#466A84"/></g></g><g><g><path d="M36.6 60.98C36.59 60.98 36.58 60.98 36.56 60.97 36.53 60.96 36.51 60.94 36.5 60.91 36.05 59.81 35.47 58.69 34.78 57.57 33.93 56.18 32.76 54.49 31.27 53.69 31.23 53.67 31.21 53.63 31.21 53.59 31.21 53.55 31.24 53.51 31.28 53.5L39.92 50.48 44.97 48.15C44.99 48.14 45.02 48.14 45.04 48.14L48.88 49.26C48.92 49.27 48.95 49.3 48.96 49.35 48.97 49.42 49.89 56.21 44.79 57.64 41.29 58.62 38.19 60.14 36.65 60.97 36.63 60.97 36.61 60.98 36.6 60.98ZM31.58 53.62C33 54.46 34.08 56.02 34.96 57.46 35.63 58.56 36.2 59.65 36.65 60.72 38.23 59.88 41.29 58.39 44.73 57.43 49.38 56.13 48.84 50.15 48.75 49.44L45.02 48.35 40 50.67 31.58 53.62Z" fill="#1D1C1A"/></g></g></g><g opacity="0.7"><g><path d="M42.65 54.26C39.87 54.56 37.21 55.96 34.68 57.21 34.75 57.31 34.81 57.42 34.87 57.52 35.5 58.54 36.11 59.69 36.6 60.88 38 60.13 41.18 58.54 44.76 57.54 46.11 57.16 47.03 56.4 47.66 55.49 46.11 54.63 44.41 54.07 42.65 54.26Z" fill="#466A84"/></g></g></g><g><g><g><g><path d="M42.17 62.55 41.7 64.27C41.7 64.27 38.5 63.02 36.42 57 36.42 57 41.44 56.98 42.17 62.55Z" fill="#1A4168"/></g></g><g><g><path d="M41.7 64.38C41.69 64.38 41.67 64.38 41.66 64.37 41.53 64.32 38.39 63.04 36.32 57.03 36.31 57 36.32 56.96 36.33 56.93 36.35 56.9 36.38 56.89 36.42 56.89 36.63 56.89 41.54 56.95 42.27 62.53 42.27 62.54 42.27 62.56 42.27 62.57L41.8 64.3C41.79 64.33 41.77 64.35 41.75 64.37 41.74 64.38 41.72 64.38 41.7 64.38ZM36.58 57.11C38.4 62.28 41.07 63.84 41.64 64.12L42.07 62.54C41.41 57.64 37.42 57.16 36.58 57.11Z" fill="#1D1C1A"/></g></g></g><g><g><g><path d="M39.98 60.92C39.14 59.55 37.97 57.82 36.43 57.01L43.73 54.16 40.9 50 53.96 52.76C53.96 52.76 54.94 59.52 49.87 60.93 46.29 61.93 43.1 63.52 41.71 64.27 41.21 63.08 40.6 61.94 39.98 60.92Z" fill="#466A84"/></g></g><g><g><path d="M41.7 64.38C41.69 64.38 41.68 64.38 41.66 64.37 41.63 64.36 41.61 64.34 41.6 64.31 41.15 63.21 40.57 62.09 39.88 60.97 39.03 59.58 37.86 57.88 36.37 57.09 36.33 57.07 36.31 57.03 36.31 56.99 36.31 56.95 36.34 56.91 36.38 56.9L43.55 54.1 40.81 50.06C40.79 50.02 40.79 49.98 40.81 49.94 40.83 49.9 40.88 49.89 40.92 49.89L53.98 52.66C54.02 52.67 54.06 52.7 54.06 52.75 54.07 52.82 54.99 59.61 49.89 61.04 46.39 62.02 43.29 63.54 41.75 64.37 41.74 64.38 41.72 64.38 41.7 64.38ZM36.67 57.02C38.09 57.86 39.18 59.43 40.06 60.86 40.73 61.96 41.3 63.05 41.75 64.13 43.33 63.29 46.39 61.8 49.83 60.84 54.47 59.55 53.94 53.59 53.85 52.86L41.13 50.17 43.8 54.1C43.82 54.13 43.82 54.16 43.81 54.19 43.8 54.22 43.78 54.25 43.75 54.26L36.67 57.02Z" fill="#1D1C1A"/></g></g></g><g opacity="0.7"><g><path d="M53.96 52.77 41.03 50.03C42.48 51.91 44.86 52.63 47.14 53.25 48.27 53.56 50.32 54.08 50.41 55.6 50.54 57.82 48.26 58.82 46.6 59.67 44.68 60.65 42.73 61.52 40.68 62.14 41.05 62.82 41.4 63.54 41.71 64.28 43.11 63.53 46.3 61.94 49.87 60.94 54.94 59.52 53.96 52.77 53.96 52.77Z" fill="#466A84"/></g></g></g><g><g><g><g><g><g><path d="M48.7 33.02C48.6 32.84 48.48 32.67 48.32 32.52 47.28 31.52 46.18 30.65 44.93 29.92 43.74 29.22 42.46 28.65 41.16 28.2 41.16 28.2 39.26 31.22 39.42 33.45 39.42 33.45 43.91 35.49 46 35.62 46.63 35.66 47.23 35.71 47.85 35.51 48.95 35.15 49.18 33.93 48.7 33.02Z" fill="#BED86E"/></g></g><g><g><path d="M46.8 35.76 46.8 35.76C46.57 35.76 46.33 35.74 46.1 35.73L46 35.72C43.92 35.59 39.57 33.62 39.38 33.54 39.34 33.52 39.32 33.49 39.32 33.45 39.16 31.21 41 28.26 41.08 28.13 41.11 28.09 41.16 28.07 41.21 28.09 42.58 28.56 43.85 29.14 45 29.82 46.19 30.52 47.31 31.37 48.41 32.43 48.57 32.58 48.7 32.76 48.81 32.96 49.1 33.5 49.14 34.13 48.93 34.66 48.74 35.12 48.39 35.44 47.89 35.6 47.56 35.71 47.21 35.76 46.8 35.76ZM39.52 33.38C40.05 33.62 44.09 35.4 46 35.51L46.1 35.52C46.34 35.54 46.56 35.55 46.79 35.55L46.79 35.55C47.19 35.55 47.51 35.51 47.8 35.41 48.23 35.27 48.54 34.99 48.71 34.59 48.9 34.13 48.86 33.56 48.6 33.07 48.51 32.89 48.39 32.73 48.24 32.59 47.15 31.55 46.05 30.7 44.87 30.01 43.75 29.35 42.52 28.79 41.2 28.32 40.93 28.79 39.42 31.41 39.52 33.38Z" fill="#1D1C1A"/></g></g></g><g opacity="0.5"><g><path d="M48.7 33.02C48.6 32.84 48.48 32.67 48.32 32.52 47.28 31.52 46.18 30.65 44.93 29.92 43.74 29.22 42.46 28.65 41.16 28.2 41.16 28.2 41.04 28.4 40.86 28.72 41.9 29.33 42.94 29.94 43.99 30.53 44.63 30.89 45.4 31.22 45.85 31.83 46.29 32.43 45.29 33.47 45.09 33.96 44.9 34.43 44.72 34.89 44.51 35.35 45.06 35.5 45.58 35.6 45.99 35.62 46.62 35.66 47.22 35.71 47.84 35.51 48.95 35.15 49.18 33.93 48.7 33.02Z" fill="#6BC07D"/></g></g><g><g><path d="M39.37 33.54C39.33 33.52 39.31 33.49 39.31 33.45 39.15 31.21 40.99 28.26 41.07 28.13 41.1 28.09 41.14 28.07 41.2 28.09 42.57 28.56 43.84 29.14 44.99 29.82 46.18 30.52 47.3 31.38 48.4 32.43 48.56 32.58 48.69 32.76 48.8 32.96 49.09 33.5 49.13 34.13 48.92 34.65 48.73 35.11 48.37 35.44 47.88 35.6 47.28 35.79 46.7 35.76 46.09 35.72L45.99 35.71C45.81 35.7 45.61 35.67 45.38 35.64 43.16 35.26 39.41 33.56 39.37 33.54ZM39.52 33.38C40 33.6 43.37 35.09 45.42 35.44 45.63 35.48 45.83 35.5 46 35.51L46.1 35.52C46.69 35.56 47.24 35.59 47.81 35.41 48.24 35.27 48.55 34.99 48.72 34.59 48.91 34.13 48.87 33.56 48.61 33.07 48.51 32.89 48.4 32.73 48.25 32.59 47.17 31.55 46.06 30.7 44.88 30.01 43.76 29.35 42.52 28.79 41.2 28.32 40.93 28.79 39.41 31.4 39.52 33.38Z" fill="#1D1C1A"/></g></g></g><g><g><g><g><path d="M50.84 31.15C50.27 31.21 49.71 31.33 49.19 31.57 47.81 32.2 46.82 33.41 45.9 34.57 43.21 37.96 40.31 49.69 40.43 49.78 40.43 49.78 47.34 54.39 54.43 53.28 54.72 51.75 58.01 34.54 54.91 32.08 54.35 31.64 53.25 31.19 52.54 31.15 51.99 31.11 51.41 31.1 50.84 31.15Z" fill="#BED86E"/></g></g><g><g><path d="M52.17 53.55 52.17 53.55C45.99 53.55 40.44 49.9 40.38 49.86 40.36 49.84 40.34 49.81 40.33 49.78 40.27 49.39 43.11 37.92 45.82 34.5 46.85 33.21 47.81 32.09 49.15 31.47 49.63 31.25 50.19 31.11 50.83 31.04 51.32 30.99 51.84 30.99 52.55 31.03 53.26 31.07 54.38 31.51 54.98 31.99 57.88 34.28 55.38 48.84 54.54 53.25L54.53 53.29C54.52 53.33 54.49 53.37 54.44 53.37 53.72 53.49 52.95 53.55 52.17 53.55ZM40.55 49.72C41.09 50.07 46.35 53.34 52.17 53.34L52.17 53.34C52.91 53.34 53.65 53.29 54.35 53.18 56.06 44.17 57.08 33.92 54.86 32.16 54.29 31.71 53.21 31.29 52.55 31.25 51.85 31.21 51.34 31.21 50.86 31.26 50.24 31.32 49.71 31.45 49.25 31.67 47.95 32.27 47.01 33.37 46 34.64 43.39 37.91 40.65 48.89 40.55 49.72Z" fill="#1D1C1A"/></g></g></g><g><g><path d="M54.46 53.38C47.42 54.48 40.45 49.91 40.39 49.87 40.33 49.83 40.23 49.76 41.12 46.5 41.49 45.14 42.26 42.47 43.2 39.9 44.15 37.33 45.03 35.52 45.83 34.51 46.86 33.22 47.81 32.1 49.16 31.48 49.65 31.25 50.2 31.12 50.84 31.05 51.33 31 51.86 31 52.56 31.04 53.27 31.08 54.39 31.52 54.99 32 57.89 34.29 55.39 48.85 54.55 53.26L54.54 53.3C54.54 53.31 54.53 53.31 54.53 53.32 54.53 53.35 54.49 53.37 54.46 53.38ZM40.54 49.72C41.15 50.11 47.71 54.19 54.34 53.18 56.05 44.17 57.07 33.92 54.85 32.16 54.28 31.71 53.2 31.29 52.54 31.25 51.85 31.21 51.33 31.21 50.85 31.26 50.23 31.32 49.7 31.45 49.24 31.67 47.94 32.27 47 33.37 45.99 34.64 45.2 35.63 44.33 37.42 43.39 39.97 41.8 44.27 40.61 49.16 40.54 49.72Z" fill="#1D1C1A"/></g></g></g><g opacity="0.5"><g><path d="M40.44 49.78C40.41 49.76 40.57 48.97 40.89 47.76 41.48 48.2 42.09 48.63 42.73 49 43.79 49.6 44.97 50.03 46.16 50.27 48.46 50.74 50.63 50.12 51.31 47.65 52.13 44.71 51.84 41.64 52.3 38.65 52.57 36.94 53.02 34.94 54.14 33.56 54.47 33.15 54.84 32.78 55.25 32.46 57.75 35.9 54.71 51.81 54.43 53.28 47.35 54.38 40.44 49.78 40.44 49.78Z" fill="#6BC07D"/></g></g><g><g><g><path d="M49.96 34.64C49.24 34.56 48.7 34.04 48.76 33.47L49.14 29.81C49.2 29.24 49.83 28.84 50.55 28.91 51.27 28.99 51.81 29.51 51.75 30.08L51.37 33.74C51.31 34.32 50.68 34.72 49.96 34.64Z" fill="#F7D6B6"/></g></g><g><g><path d="M49.94 34.75C49.16 34.67 48.58 34.09 48.65 33.46L49.03 29.8C49.04 29.72 49.06 29.64 49.08 29.57 49.27 29.06 49.89 28.73 50.56 28.8 51.34 28.88 51.92 29.46 51.85 30.09L51.47 33.75C51.46 33.83 51.44 33.9 51.42 33.98L51.42 33.98C51.23 34.5 50.61 34.82 49.94 34.75ZM49.25 29.83 48.87 33.48C48.82 33.99 49.31 34.47 49.97 34.53 50.62 34.6 51.21 34.23 51.26 33.73L51.64 30.07C51.69 29.56 51.2 29.08 50.54 29.01 49.97 28.95 49.44 29.21 49.29 29.64 49.27 29.71 49.25 29.77 49.25 29.83Z" fill="#1D1C1A"/></g></g></g></g></g><g><g><g><g><g><g><path d="M41.06 9.05C42.15 7.43 43.52 6.01 45.13 4.9 47.52 3.24 50.4 2.2 53.33 2.17 57.86 2.13 62.45 4.14 65.49 7.51 66.3 8.4 67.01 9.44 67.58 10.5 68.09 11.45 68.52 12.51 68.78 13.56 69.98 18.36 68.66 23.41 65.37 27.11 62.68 30.15 58.58 31.72 54.37 31.66 49.96 31.6 45.04 30.3 41.94 27.08 41.12 26.23 40.45 25.26 39.88 24.24 38.58 21.9 37.85 19.84 38.12 17.19 38.42 14.3 39.43 11.46 41.06 9.05Z" fill="#F7D6B6"/></g></g><g><g><path d="M54.37 31.77C49.18 31.7 44.63 30.02 41.87 27.16 41.1 26.36 40.42 25.43 39.79 24.3 38.53 22.03 37.74 19.95 38.02 17.18 38.32 14.23 39.33 11.4 40.96 8.99 42.06 7.36 43.4 5.97 44.95 4.88L45.06 4.8C47.58 3.06 50.51 2.08 53.32 2.05 57.9 2.01 62.48 4.02 65.56 7.43 66.35 8.3 67.08 9.34 67.67 10.44 68.21 11.46 68.63 12.52 68.88 13.52 70.07 18.3 68.79 23.4 65.45 27.17 64.81 27.89 64.07 28.55 63.27 29.12L63.27 29.12C60.8 30.88 57.64 31.82 54.37 31.77ZM41.15 9.11C39.54 11.49 38.54 14.29 38.24 17.21 37.97 19.92 38.74 21.96 39.99 24.2 40.61 25.31 41.28 26.23 42.03 27.02 44.75 29.84 49.25 31.5 54.38 31.57 57.6 31.61 60.72 30.69 63.15 28.97 63.94 28.41 64.67 27.76 65.3 27.05 68.59 23.33 69.86 18.3 68.68 13.59 68.44 12.61 68.02 11.55 67.49 10.56 66.91 9.47 66.19 8.45 65.41 7.59 62.37 4.23 57.86 2.25 53.33 2.29 50.57 2.31 47.68 3.28 45.19 5L45.08 5.07C43.56 6.14 42.24 7.5 41.15 9.11Z" fill="#1D1C1A"/></g></g></g></g><g><g><g><path d="M40.37 12.56C37.9 17.61 39.07 23.13 43.08 27.11 44.32 28.34 45.78 29.5 47.37 30.45 45.32 29.71 43.43 28.62 41.95 27.09 41.13 26.24 40.46 25.27 39.89 24.25 38.59 21.91 37.86 19.85 38.13 17.2 38.29 15.62 38.67 14.05 39.24 12.56 39.61 12.6 40 12.6 40.37 12.56Z" fill="#F7D6B6"/></g></g></g></g></g><g><g><g><path d="M72.24 20.14C73.6 19.61 72.66 16.93 72.5 15.95 72.14 13.76 71.42 11.52 69.58 10.4 69.72 10.46 69.88 10.53 70.09 10.59 70.28 10.65 70.49 10.42 70.57 10.28 71.22 9.12 68.94 8.32 67.45 8.39 68.12 6.99 68.76 5.12 68.04 4.42 68 4.37 67.93 4.37 67.88 4.39 67.03 4.7 66.64 5.6 66.2 6.39 66.1 5.95 66.03 5.55 65.76 5.12 65.08 4.04 63.8 3.25 62.77 2.55 60.57 1.05 58 0.28 55.36 0.13 52.58-0.02 49.55 0.48 46.96 1.5 44.57 2.44 39.29 7.62 37 6.08 36.87 5.99 36.55 6.3 36.57 6.43 36.87 8.04 37.7 9.47 39.05 9.97 37.8 10.8 36.42 11.15 34.88 11.28 34.55 11.31 34.45 11.31 34.22 11.53 34.15 11.59 34.01 11.72 34.07 11.83 34.94 13.17 36.78 13.7 38.26 13.16 38.2 13.21 38.14 13.27 38.07 13.34 37.68 13.7 36.88 14.32 36.68 14.87 36.16 16.23 38.24 15.51 38.84 15.23 39.72 14.83 40.67 14.17 41.51 13.42 41.33 13.8 41.2 14.17 41.17 14.5 41.17 14.55 41.16 14.6 41.22 14.61 41.93 14.83 42.83 13.98 43.3 13.63 44.02 13.09 44.81 12.54 45.34 11.82 45.62 13.61 46.47 15.25 47.89 16.43 48.42 16.88 49.29 17.11 49.77 16.44 50 16.12 49.95 15.79 49.93 15.43 49.92 15.35 49.91 15.28 49.9 15.2 50.4 16.27 51.11 17.25 52.18 17.67 52.32 17.72 52.51 17.54 52.58 17.45 52.95 16.93 52.95 16.2 52.82 15.43 54.37 18.57 56.1 21.62 57.51 24.82 57.56 24.93 57.79 24.8 57.84 24.77 58.01 24.66 58.17 24.53 58.32 24.37 58.29 24.67 58.26 24.97 58.21 25.24 57.83 27.37 57.3 29.9 55.54 31.38 55.47 31.44 55.26 31.69 55.47 31.71 56.72 31.83 58.1 31.2 59.27 30.85 61.05 30.32 62.75 29.46 64.29 28.45 65.19 27.86 66.38 26.95 67.41 25.91 67.45 25.91 67.5 25.9 67.55 25.87 68.44 25.35 68.92 24.4 69.53 23.6 69.93 23.07 70.07 22.57 70.07 22.05 70.37 22.24 70.67 22.44 70.93 22.69 71.21 22.95 71.33 23.41 71.74 23.44 71.91 23.45 72.17 23.23 72.2 23.06 72.38 21.84 72.12 20.72 71.67 19.67 71.77 19.83 71.88 19.98 72.01 20.13 72.08 20.2 72.18 20.16 72.24 20.14Z" fill="#AF5E28"/></g></g><g><g><path d="M55.79 31.84C55.68 31.84 55.57 31.84 55.46 31.82 55.33 31.81 55.29 31.74 55.28 31.69 55.23 31.51 55.47 31.3 55.47 31.3 57.14 29.9 57.68 27.53 58.1 25.23 58.13 25.05 58.15 24.86 58.17 24.65 58.07 24.73 57.98 24.8 57.88 24.86 57.87 24.86 57.71 24.97 57.57 24.97 57.49 24.97 57.43 24.93 57.4 24.86 56.5 22.82 55.45 20.8 54.44 18.85 53.96 17.93 53.47 16.98 52.99 16.03 53.03 16.66 52.92 17.13 52.66 17.5 52.61 17.58 52.42 17.78 52.22 17.78 52.19 17.78 52.16 17.77 52.13 17.76 51.3 17.43 50.61 16.77 50.05 15.74 50.06 15.99 50.03 16.24 49.85 16.49 49.64 16.79 49.32 16.95 48.95 16.95 48.58 16.95 48.15 16.78 47.82 16.5 46.49 15.38 45.61 13.85 45.28 12.06 44.82 12.62 44.21 13.07 43.63 13.51L43.37 13.71C43.3 13.76 43.23 13.82 43.15 13.88 42.69 14.24 42.07 14.74 41.47 14.74 41.37 14.74 41.28 14.73 41.19 14.7 41.05 14.66 41.06 14.52 41.07 14.48 41.08 14.28 41.14 14.05 41.23 13.79 40.45 14.44 39.63 14.97 38.88 15.31 38.54 15.46 37.75 15.76 37.18 15.76 36.89 15.76 36.68 15.68 36.57 15.52 36.46 15.36 36.46 15.12 36.57 14.81 36.75 14.33 37.33 13.82 37.76 13.45 37.79 13.42 37.82 13.4 37.85 13.37 37.59 13.43 37.32 13.46 37.05 13.46 35.79 13.46 34.62 12.85 33.99 11.87 33.87 11.69 34.06 11.52 34.15 11.44 34.41 11.2 34.54 11.19 34.85 11.16L34.88 11.16C36.48 11.03 37.74 10.65 38.83 9.98 37.66 9.45 36.8 8.18 36.47 6.44 36.45 6.34 36.51 6.24 36.57 6.17 36.65 6.07 36.8 5.95 36.94 5.95 36.98 5.95 37.02 5.96 37.06 5.99 37.32 6.16 37.64 6.25 38.01 6.25 39.6 6.25 41.87 4.67 43.87 3.28 45.04 2.47 46.14 1.7 46.92 1.39 49.21 0.5 51.86 0 54.36 0 54.7 0 55.04 0.01 55.37 0.03 58.13 0.18 60.71 1.02 62.84 2.46L63.12 2.65C64.11 3.31 65.23 4.06 65.86 5.07 66.08 5.42 66.17 5.75 66.25 6.1 66.26 6.09 66.26 6.07 66.27 6.06 66.66 5.34 67.06 4.59 67.85 4.31 67.94 4.28 68.05 4.29 68.12 4.36 68.91 5.13 68.18 7.09 67.62 8.3 67.62 8.3 67.63 8.3 67.64 8.3 68.77 8.3 70.25 8.75 70.68 9.47 70.84 9.75 70.84 10.06 70.67 10.35 70.59 10.49 70.4 10.69 70.2 10.72 71.81 12.06 72.35 14.31 72.62 15.95 72.65 16.12 72.7 16.34 72.76 16.6 73.06 17.87 73.5 19.79 72.29 20.26 72.22 20.29 72.11 20.31 72.04 20.29 72.38 21.29 72.47 22.2 72.33 23.12 72.3 23.33 72 23.59 71.78 23.59 71.43 23.57 71.26 23.32 71.1 23.1 71.03 22.99 70.96 22.9 70.88 22.82 70.66 22.61 70.42 22.44 70.19 22.29 70.16 22.8 69.98 23.26 69.64 23.71 69.5 23.9 69.36 24.1 69.22 24.3 68.78 24.94 68.32 25.59 67.63 26 67.58 26.03 67.53 26.05 67.48 26.05 66.22 27.31 64.89 28.23 64.37 28.57 62.69 29.68 60.99 30.49 59.32 30.98 59.05 31.06 58.78 31.15 58.49 31.25 57.6 31.53 56.68 31.84 55.79 31.84ZM55.5 31.61C55.6 31.62 55.7 31.62 55.79 31.62 56.64 31.62 57.54 31.32 58.41 31.02 58.7 30.92 58.98 30.83 59.25 30.75 60.9 30.26 62.58 29.45 64.24 28.36 64.76 28.02 66.09 27.1 67.35 25.83 67.37 25.81 67.4 25.8 67.43 25.8 67.45 25.8 67.47 25.8 67.51 25.77 68.16 25.39 68.6 24.75 69.03 24.13 69.17 23.93 69.31 23.72 69.46 23.53 69.81 23.06 69.98 22.59 69.98 22.05 69.98 22.01 70 21.98 70.03 21.96 70.06 21.94 70.1 21.94 70.14 21.96 70.41 22.13 70.73 22.34 71.02 22.62 71.12 22.71 71.2 22.83 71.27 22.94 71.41 23.15 71.54 23.33 71.77 23.34L71.77 23.34C71.89 23.34 72.1 23.17 72.12 23.05 72.28 21.99 72.12 20.92 71.6 19.71 71.58 19.66 71.6 19.6 71.65 19.58 71.7 19.55 71.76 19.57 71.79 19.62 71.88 19.76 71.99 19.92 72.12 20.07 72.14 20.06 72.18 20.05 72.2 20.04 73.25 19.64 72.81 17.75 72.55 16.62 72.49 16.36 72.44 16.13 72.41 15.96 72.12 14.18 71.51 11.68 69.54 10.48 69.49 10.45 69.48 10.39 69.5 10.34 69.53 10.29 69.58 10.27 69.63 10.29L69.66 10.3C69.79 10.35 69.93 10.41 70.12 10.47 70.23 10.5 70.41 10.33 70.47 10.21 70.6 9.97 70.61 9.75 70.48 9.54 70.09 8.87 68.54 8.43 67.45 8.48 67.41 8.48 67.38 8.46 67.36 8.43 67.34 8.4 67.34 8.36 67.35 8.33 67.79 7.42 68.72 5.22 67.97 4.48 67.94 4.48 67.93 4.48 67.92 4.48 67.21 4.74 66.83 5.45 66.46 6.13 66.41 6.23 66.36 6.33 66.3 6.42 66.28 6.46 66.24 6.48 66.19 6.47 66.14 6.46 66.11 6.43 66.1 6.39L66.07 6.25C65.99 5.87 65.91 5.52 65.68 5.15 65.07 4.19 63.97 3.45 63 2.8L62.72 2.61C60.62 1.2 58.08 0.37 55.36 0.22 55.03 0.2 54.7 0.19 54.36 0.19 51.88 0.19 49.27 0.68 47 1.58 46.24 1.88 45.15 2.64 43.99 3.45 41.96 4.86 39.67 6.46 38.01 6.46 37.6 6.46 37.24 6.36 36.94 6.16 36.86 6.16 36.68 6.34 36.68 6.41 37.01 8.16 37.89 9.42 39.1 9.86 39.14 9.87 39.17 9.91 39.17 9.95 39.17 9.99 39.16 10.03 39.12 10.05 37.97 10.81 36.63 11.24 34.9 11.38L34.87 11.38C34.57 11.4 34.5 11.41 34.3 11.59 34.18 11.7 34.17 11.74 34.17 11.75 34.76 12.67 35.87 13.24 37.06 13.24 37.47 13.24 37.87 13.17 38.24 13.04 38.29 13.02 38.34 13.04 38.37 13.08 38.4 13.12 38.39 13.18 38.35 13.21L38.16 13.39C38.09 13.45 38.01 13.53 37.92 13.6 37.51 13.96 36.95 14.45 36.79 14.88 36.73 15.04 36.67 15.26 36.76 15.39 36.83 15.49 36.97 15.54 37.19 15.54 37.68 15.54 38.43 15.28 38.81 15.11 39.65 14.73 40.59 14.09 41.45 13.32 41.49 13.29 41.55 13.28 41.58 13.31 41.62 13.34 41.63 13.4 41.61 13.44 41.41 13.85 41.31 14.2 41.28 14.48 41.28 14.48 41.28 14.49 41.28 14.49 41.34 14.51 41.4 14.51 41.47 14.51 41.99 14.51 42.6 14.02 43.01 13.69 43.09 13.62 43.17 13.56 43.24 13.51L43.5 13.31C44.14 12.84 44.8 12.34 45.26 11.71 45.29 11.68 45.33 11.66 45.37 11.67 45.41 11.68 45.44 11.71 45.45 11.76 45.74 13.6 46.61 15.17 47.96 16.31 48.26 16.56 48.63 16.71 48.96 16.71 49.27 16.71 49.51 16.58 49.69 16.34 49.88 16.07 49.86 15.8 49.83 15.48L49.82 15.41C49.82 15.36 49.81 15.31 49.8 15.26L49.79 15.2C49.78 15.15 49.82 15.1 49.86 15.08 49.91 15.07 49.96 15.09 49.99 15.14 50.58 16.41 51.31 17.2 52.21 17.55 52.21 17.55 52.21 17.55 52.21 17.55 52.3 17.55 52.42 17.45 52.48 17.36 52.79 16.93 52.86 16.31 52.7 15.42 52.69 15.37 52.72 15.32 52.77 15.3 52.82 15.28 52.87 15.31 52.9 15.35 53.46 16.48 54.05 17.62 54.62 18.72 55.63 20.67 56.68 22.68 57.58 24.72 57.64 24.71 57.72 24.67 57.76 24.65 57.91 24.56 58.06 24.43 58.22 24.27 58.25 24.24 58.3 24.23 58.34 24.25 58.38 24.27 58.4 24.31 58.4 24.36L58.38 24.59C58.35 24.82 58.33 25.03 58.3 25.23 57.96 27.07 57.46 29.86 55.59 31.43 55.57 31.5 55.52 31.57 55.5 31.61Z" fill="#231F20"/></g></g></g><g><g><g><path d="M42.87 26.5C42.87 26.5 46.69 27.21 50.28 25.17 50.28 25.17 50.32 28.22 48.56 29.16 46.81 30.09 42.87 26.5 42.87 26.5Z" fill="#FFFFFF"/></g></g><g><g><path d="M47.88 29.42C45.94 29.42 42.93 26.69 42.8 26.58 42.77 26.55 42.76 26.5 42.78 26.45 42.8 26.41 42.85 26.39 42.89 26.39 42.9 26.39 43.54 26.51 44.52 26.51 45.97 26.51 48.14 26.26 50.23 25.08 50.26 25.06 50.3 25.06 50.34 25.08 50.37 25.1 50.39 25.13 50.39 25.17 50.39 25.3 50.41 28.3 48.62 29.25 48.4 29.36 48.16 29.42 47.88 29.42ZM43.21 26.65C44 27.32 46.34 29.2 47.88 29.2 48.12 29.2 48.34 29.15 48.51 29.06 49.95 28.3 50.14 26.01 50.17 25.35 48.09 26.48 45.96 26.72 44.52 26.72 43.95 26.72 43.5 26.68 43.21 26.65Z" fill="#221F1F"/></g></g></g><g><g><path d="M46.78 20.02C46.79 20.56 47.09 20.99 47.44 20.98 47.8 20.97 48.07 20.53 48.06 20 48.05 19.46 47.75 19.03 47.39 19.04 47.05 19.04 46.77 19.48 46.78 20.02Z"/></g></g><g><g><path d="M39.98 19.11C39.99 19.65 40.29 20.07 40.64 20.07 41 20.06 41.27 19.62 41.26 19.08 41.25 18.54 40.95 18.12 40.6 18.12 40.24 18.14 39.96 18.58 39.98 19.11Z"/></g></g><g><g><path d="M57.03 34.42C56.96 34.42 56.89 34.39 56.85 34.32 56.79 34.22 56.81 34.09 56.91 34.03 56.96 34 61.79 30.86 63.45 28.52 65.12 26.15 68.66 19.15 68.7 19.08 68.75 18.97 68.88 18.93 68.99 18.99 69.09 19.04 69.13 19.17 69.08 19.28 69.04 19.35 65.49 26.38 63.8 28.77 62.09 31.19 57.34 34.27 57.14 34.4 57.11 34.41 57.07 34.42 57.03 34.42Z" fill="#1D1C1A"/></g></g><g><g><g><path d="M70.1 16.41C70.21 16.29 70.29 16.11 70.37 15.97 70.47 15.81 70.57 15.64 70.67 15.47 70.8 15.24 70.93 15.02 71.03 14.78 71.09 14.64 71.21 14.37 71.09 14.23 70.86 13.94 70.42 14.42 70.26 14.57 69.91 14.9 69.51 15.48 69.19 15.96 69.5 15.07 69.75 13.91 69.19 13.95 68.75 13.98 68.51 14.53 68.34 14.87 68.22 15.09 68.12 15.32 68.04 15.55 68.03 15.57 68.02 15.59 68.01 15.61 67.78 16.12 67.61 16.65 67.45 17.19 67.47 17.1 67.19 16.76 67.14 16.69 67.02 16.54 66.9 16.4 66.76 16.27 66.57 16.11 66.26 15.93 66.09 16.23 65.79 16.72 66.33 17.66 66.53 18.12 66.81 18.74 67.17 19.37 67.73 19.78 68.03 20 68.46 20.19 68.84 20.23 70.31 20.38 70.97 18.48 71.95 17.72 72.25 17.49 73.14 17.02 73 16.54 72.84 15.97 71.99 16.56 71.75 16.69 71.48 16.84 71.23 17.03 70.96 17.16 70.92 17.18 70.89 17.2 70.85 17.21 71.23 16.83 72.47 15.16 72.24 14.92 71.83 14.47 70.69 15.74 70.1 16.41Z" fill="#F7D6B6"/></g></g><g><g><path d="M68.71 20.3C68.36 20.24 67.97 20.07 67.66 19.84 67.04 19.39 66.67 18.69 66.43 18.13 66.4 18.07 66.37 17.99 66.33 17.91 66.08 17.4 65.71 16.62 66 16.14 66.09 15.98 66.24 15.91 66.42 15.94 66.58 15.97 66.73 16.07 66.83 16.16 66.97 16.28 67.1 16.42 67.23 16.59L67.27 16.64C67.34 16.73 67.4 16.8 67.44 16.86 67.59 16.37 67.74 15.95 67.92 15.53 67.93 15.51 67.94 15.49 67.95 15.47 68.04 15.22 68.15 14.99 68.26 14.78L68.32 14.67C68.5 14.32 68.75 13.83 69.2 13.8 69.36 13.79 69.48 13.86 69.56 13.98 69.72 14.26 69.64 14.81 69.51 15.29 69.75 14.96 69.98 14.66 70.21 14.45L70.25 14.41C70.48 14.19 70.74 13.96 70.99 14 71.07 14.02 71.14 14.06 71.2 14.13 71.35 14.31 71.23 14.6 71.16 14.77 71.05 15.04 70.91 15.28 70.79 15.49 70.78 15.5 70.77 15.52 70.77 15.53 71.3 15 71.79 14.62 72.13 14.68 72.21 14.69 72.29 14.73 72.34 14.79 72.6 15.06 71.81 16.16 71.31 16.79 71.33 16.78 71.36 16.76 71.38 16.75 71.49 16.68 71.6 16.61 71.72 16.54 71.74 16.53 71.78 16.51 71.81 16.48 72.13 16.29 72.5 16.08 72.79 16.13 72.91 16.15 73.06 16.22 73.12 16.45 73.25 16.92 72.64 17.33 72.24 17.6 72.16 17.66 72.08 17.71 72.03 17.75 71.72 17.99 71.43 18.36 71.14 18.75 70.52 19.56 69.89 20.39 68.85 20.28 68.78 20.31 68.74 20.3 68.71 20.3ZM66.37 16.16C66.28 16.14 66.22 16.18 66.17 16.26 65.95 16.64 66.3 17.38 66.51 17.83 66.55 17.91 66.59 17.99 66.62 18.05 66.86 18.58 67.21 19.25 67.79 19.67 68.11 19.9 68.51 20.06 68.85 20.1 69.77 20.2 70.37 19.41 70.95 18.65 71.25 18.25 71.54 17.87 71.88 17.61 71.94 17.57 72.02 17.51 72.1 17.45 72.43 17.23 72.98 16.86 72.89 16.54 72.86 16.41 72.79 16.39 72.73 16.38 72.5 16.34 72.09 16.58 71.9 16.7 71.86 16.72 71.82 16.74 71.8 16.76 71.69 16.82 71.58 16.89 71.47 16.96 71.32 17.06 71.16 17.16 70.99 17.24L70.88 17.29C70.83 17.31 70.78 17.3 70.75 17.25 70.72 17.21 70.72 17.15 70.76 17.11 71.24 16.62 72.24 15.17 72.15 14.96 72.13 14.94 72.1 14.92 72.06 14.91 71.62 14.84 70.57 16.02 70.17 16.47L70.17 16.47 70.17 16.47C70.13 16.51 70.06 16.52 70.02 16.48 69.98 16.44 69.97 16.37 70.01 16.33 70.07 16.26 70.13 16.16 70.18 16.06 70.21 16 70.24 15.95 70.27 15.9 70.37 15.74 70.47 15.58 70.56 15.41 70.69 15.19 70.81 14.96 70.91 14.73 70.96 14.61 71.06 14.37 70.99 14.28 70.85 14.1 70.5 14.45 70.36 14.58L70.31 14.62C69.98 14.93 69.61 15.47 69.25 15.99 69.22 16.04 69.16 16.05 69.11 16.03 69.06 16 69.04 15.95 69.06 15.9 69.36 15.05 69.46 14.34 69.33 14.11 69.29 14.05 69.25 14.03 69.17 14.03 68.83 14.05 68.62 14.47 68.46 14.78L68.4 14.9C68.3 15.1 68.2 15.32 68.11 15.56 68.09 15.59 68.09 15.61 68.08 15.62 67.86 16.1 67.7 16.59 67.53 17.18 67.51 17.23 67.46 17.27 67.4 17.25 67.35 17.23 67.31 17.18 67.33 17.12 67.32 17.11 67.27 17.02 67.07 16.77L67.03 16.72C66.91 16.56 66.79 16.43 66.67 16.32 66.57 16.23 66.46 16.17 66.37 16.16Z" fill="#1D1C1A"/></g></g></g><g><g><g><g><path d="M55.71 36.69C55.92 36.68 56.13 36.65 56.33 36.57 57.68 36.08 58.95 35.47 60.15 34.67 61.3 33.91 62.37 33.01 63.35 32.04 63.35 32.04 61.47 29 59.4 28.17 59.4 28.17 55.59 31.31 54.56 33.12 54.25 33.67 53.94 34.19 53.85 34.83 53.68 35.98 54.68 36.72 55.71 36.69Z" fill="#8CBD3F"/></g></g><g><g><path d="M63.46 32.03C63.46 32.06 63.45 32.09 63.43 32.11 62.41 33.13 61.33 34.02 60.21 34.76 59.05 35.53 57.8 36.15 56.37 36.67 56.17 36.75 55.95 36.79 55.72 36.8 54.77 36.83 53.77 36.21 53.74 35.13 53.74 35.03 53.74 34.92 53.76 34.81 53.85 34.19 54.13 33.69 54.43 33.16L54.48 33.07C55.51 31.26 59.19 28.21 59.35 28.09 59.38 28.06 59.42 28.06 59.46 28.07 61.54 28.91 63.38 31.86 63.46 31.98 63.45 32 63.46 32.01 63.46 32.03ZM53.94 35.12C53.97 36.07 54.86 36.61 55.71 36.58 55.91 36.57 56.11 36.54 56.29 36.47 57.71 35.96 58.95 35.34 60.09 34.58 61.17 33.86 62.23 33 63.22 32.02 62.93 31.56 61.24 29.06 59.42 28.28 58.97 28.65 55.6 31.5 54.66 33.16L54.61 33.25C54.32 33.76 54.05 34.25 53.96 34.83 53.94 34.94 53.94 35.03 53.94 35.12Z" fill="#1D1C1A"/></g></g></g><g><g><g><g><path d="M55.71 36.69C55.92 36.68 56.13 36.65 56.33 36.57 57.68 36.08 58.95 35.47 60.15 34.67 61.3 33.91 62.37 33.01 63.35 32.04 63.35 32.04 61.47 29 59.4 28.17 59.4 28.17 55.59 31.31 54.56 33.12 54.25 33.67 53.94 34.19 53.85 34.83 53.68 35.98 54.68 36.72 55.71 36.69Z" fill="#BED86E"/></g></g><g><g><path d="M55.64 36.8C55.04 36.8 54.47 36.55 54.12 36.14 53.8 35.77 53.67 35.32 53.75 34.81 53.84 34.19 54.13 33.68 54.43 33.15L54.48 33.07C55.51 31.26 59.19 28.21 59.34 28.09 59.37 28.06 59.41 28.06 59.45 28.07 61.53 28.91 63.37 31.86 63.45 31.98 63.48 32.02 63.47 32.08 63.43 32.11 62.41 33.13 61.33 34.02 60.21 34.76 59.06 35.53 57.8 36.15 56.37 36.67 56.17 36.74 55.95 36.79 55.72 36.8L55.64 36.8ZM59.42 28.29C58.97 28.66 55.6 31.51 54.66 33.17L54.61 33.25C54.32 33.77 54.04 34.25 53.96 34.84 53.89 35.28 54 35.68 54.28 36 54.6 36.37 55.11 36.59 55.64 36.59L55.7 36.59C55.91 36.58 56.1 36.55 56.28 36.48 57.7 35.96 58.94 35.35 60.08 34.59 61.17 33.87 62.22 33.01 63.21 32.03 62.92 31.56 61.24 29.06 59.42 28.29Z" fill="#1D1C1A"/></g></g></g><g><g><path d="M63.46 32.03C63.46 32.06 63.45 32.09 63.43 32.11 62.41 33.13 61.33 34.02 60.21 34.76 59.05 35.53 57.8 36.15 56.37 36.67 56.17 36.75 55.95 36.79 55.72 36.8 54.77 36.83 53.77 36.21 53.74 35.13 53.74 35.03 53.74 34.92 53.76 34.81 53.85 34.19 54.13 33.69 54.43 33.16L54.48 33.07C55.51 31.26 59.19 28.21 59.35 28.09 59.38 28.06 59.42 28.06 59.46 28.07 61.54 28.91 63.38 31.86 63.46 31.98 63.45 32 63.46 32.01 63.46 32.03ZM53.94 35.12C53.97 36.07 54.86 36.61 55.71 36.58 55.91 36.57 56.11 36.54 56.29 36.47 57.71 35.96 58.95 35.34 60.09 34.58 61.17 33.86 62.23 33 63.22 32.02 62.93 31.56 61.24 29.06 59.42 28.28 58.97 28.65 55.6 31.5 54.66 33.16L54.61 33.25C54.32 33.76 54.05 34.25 53.96 34.83 53.94 34.94 53.94 35.03 53.94 35.12Z" fill="#1D1C1A"/></g></g></g><g opacity="0.5"><g><path d="M55.42 36.68C54.96 36.32 54.78 35.75 55.19 34.91 55.82 33.64 57.06 32.94 58.12 32.07 59.17 31.2 60.22 30.33 61.27 29.47 60.7 28.92 60.06 28.43 59.4 28.16 59.4 28.16 55.59 31.3 54.56 33.11 54.25 33.66 53.94 34.18 53.85 34.82 53.7 35.87 54.51 36.58 55.42 36.68Z" fill="#6BC07D"/></g></g></g><g><g><path d="M43.72 54.26C43.67 54.26 43.63 54.23 43.62 54.18 43.6 54.12 43.63 54.06 43.69 54.05 45.61 53.47 48.25 53.82 48.36 53.83 48.42 53.84 48.46 53.89 48.45 53.95 48.44 54.01 48.39 54.05 48.33 54.04 48.3 54.04 45.62 53.68 43.75 54.25 43.74 54.26 43.73 54.26 43.72 54.26Z" fill="#1D1C1A"/></g></g><g><g><g><g><g><g><path d="M30.49 70.83C30.49 70.82 30.5 70.81 30.5 70.79 30.74 70.13 30.58 69.33 29.86 69.07 28.87 68.71 25.98 68.45 24.89 69.02 23.85 69.56 24.23 70.35 25.02 70.76 26.07 71.29 29.88 72.5 30.49 70.83Z" fill="#B8D433"/></g></g><g><g><path d="M28.74 71.79 28.74 71.79C27.29 71.79 25.55 71.15 24.98 70.86 24.47 70.6 24.16 70.21 24.16 69.82 24.16 69.58 24.28 69.23 24.85 68.93 25.4 68.64 26.3 68.59 26.96 68.59 28.05 68.59 29.29 68.75 29.91 68.98 30.71 69.27 30.87 70.14 30.61 70.84 30.6 70.86 30.6 70.87 30.59 70.89 30.37 71.48 29.74 71.79 28.74 71.79ZM26.96 68.79C26.06 68.79 25.34 68.91 24.95 69.11 24.57 69.31 24.37 69.55 24.37 69.81 24.37 70.11 24.64 70.44 25.08 70.66 25.7 70.98 27.41 71.57 28.75 71.57L28.75 71.57C29.65 71.57 30.21 71.31 30.4 70.79 30.4 70.79 30.41 70.76 30.41 70.76 30.63 70.15 30.51 69.41 29.84 69.17 29.24 68.95 28.03 68.79 26.96 68.79Z" fill="#1D1C1A"/></g></g></g><g><g><g><path d="M24.9 69.02C25.36 68.78 26.13 68.69 26.94 68.69 27.39 69.08 27.65 69.65 27.63 70.3 27.62 70.65 27.56 71.13 27.4 71.54 26.42 71.34 25.48 70.99 25.03 70.77 24.24 70.35 23.86 69.56 24.9 69.02Z" fill="#E5E2CD"/></g></g><g><g><path d="M27.4 71.64C27.4 71.64 27.39 71.64 27.38 71.64 26.4 71.44 25.45 71.1 24.99 70.86 24.48 70.6 24.17 70.21 24.17 69.82 24.17 69.58 24.29 69.23 24.86 68.93 25.4 68.65 26.29 68.59 26.95 68.59L26.95 68.59C26.98 68.59 27 68.6 27.02 68.62 27.51 69.04 27.76 69.64 27.74 70.31 27.73 70.53 27.7 71.09 27.5 71.58 27.48 71.61 27.44 71.64 27.4 71.64ZM26.9 68.79C26.01 68.8 25.34 68.91 24.95 69.11 24.57 69.31 24.37 69.55 24.37 69.81 24.37 70.11 24.64 70.44 25.08 70.66 25.52 70.88 26.4 71.21 27.33 71.4 27.48 70.96 27.52 70.48 27.52 70.28 27.54 69.7 27.32 69.17 26.9 68.79Z" fill="#1D1C1A"/></g></g></g><g><g><g><path d="M27.17 70.9C26.35 70.73 24.91 70.43 24.28 69.66 24.18 70.07 24.52 70.5 25.03 70.76 26.07 71.29 29.84 72.49 30.49 70.85 29.49 71.28 28.17 71.11 27.17 70.9Z" fill="#E5E2CD"/></g></g><g><g><path d="M28.74 71.79C27.29 71.79 25.55 71.15 24.98 70.86 24.39 70.55 24.07 70.08 24.18 69.64 24.19 69.6 24.22 69.57 24.26 69.56 24.3 69.55 24.34 69.56 24.36 69.6 24.98 70.36 26.42 70.65 27.19 70.81 27.88 70.95 28.46 71.02 28.97 71.02 29.54 71.02 30.04 70.93 30.44 70.76 30.48 70.74 30.52 70.75 30.56 70.78 30.59 70.81 30.6 70.86 30.59 70.89 30.35 71.49 29.73 71.79 28.74 71.79ZM24.39 69.93C24.45 70.2 24.7 70.47 25.08 70.67 25.7 70.99 27.41 71.58 28.74 71.58 29.48 71.58 29.99 71.4 30.25 71.05 29.47 71.29 28.49 71.28 27.15 71.01 26.42 70.86 25.11 70.59 24.39 69.93Z" fill="#1D1C1A"/></g></g></g></g><g><g><path d="M27.8 70.1C27.85 70.11 27.9 70.08 27.92 70.03 28.15 69.31 28.9 69.12 28.9 69.11 28.95 69.1 28.99 69.04 28.97 68.99 28.96 68.94 28.9 68.9 28.85 68.92 28.81 68.93 27.99 69.14 27.72 69.96 27.71 70.03 27.74 70.08 27.8 70.1 27.79 70.1 27.79 70.1 27.8 70.1Z" fill="#1D1C1A"/></g></g><g><g><path d="M29.1 70.17C29.12 70.18 29.15 70.18 29.17 70.16 29.22 70.14 29.24 70.08 29.21 70.02 29.19 69.98 28.73 69.1 27.43 68.78 27.38 68.77 27.32 68.8 27.31 68.85 27.3 68.9 27.32 68.95 27.38 68.97 27.41 68.98 27.43 68.98 27.46 68.99 28.61 69.3 29.03 70.1 29.04 70.11 29.05 70.14 29.07 70.16 29.1 70.17Z" fill="#1D1C1A"/></g></g></g><g><g><path d="M30 69.49 29.99 69.49C29.87 69.49 29.78 69.39 29.79 69.27 29.87 68.16 30.58 58.38 32.1 57.22 33.63 56.06 34.27 56.38 34.39 56.45 34.49 56.51 34.51 56.65 34.45 56.74 34.39 56.83 34.26 56.86 34.16 56.81 34.13 56.8 33.63 56.59 32.36 57.56 31.2 58.44 30.42 66.33 30.21 69.3 30.21 69.41 30.11 69.49 30 69.49Z" fill="#1D1C1A"/></g></g></g><g><g><g><path d="M32.19 74.58C32.17 74.58 32.15 74.58 32.13 74.57 32.02 74.54 31.95 74.42 31.99 74.31 32.1 73.92 34.74 64.74 36.22 63.18 37.69 61.63 39.55 60.55 39.63 60.5 39.73 60.44 39.86 60.47 39.92 60.58 39.98 60.68 39.94 60.81 39.84 60.87 39.82 60.88 37.95 61.97 36.53 63.48 35.12 64.97 32.42 74.34 32.4 74.44 32.37 74.52 32.28 74.58 32.19 74.58Z" fill="#1D1C1A"/></g></g><g><g><g><g><g><path d="M32.66 75.54C32.67 75.53 32.68 75.52 32.68 75.51 33.1 74.95 33.18 74.14 32.57 73.68 31.73 73.05 29.04 71.97 27.82 72.19 26.67 72.41 26.81 73.28 27.44 73.89 28.29 74.71 31.58 76.96 32.66 75.54Z" fill="#B8D433"/></g></g><g><g><path d="M31.62 76.11 31.62 76.11C30.09 76.11 27.94 74.52 27.37 73.97 26.96 73.57 26.78 73.11 26.89 72.74 26.96 72.51 27.18 72.21 27.81 72.09 27.93 72.07 28.06 72.06 28.2 72.06 29.51 72.06 31.82 72.99 32.63 73.6 32.94 73.84 33.11 74.17 33.12 74.56 33.12 74.91 33 75.27 32.77 75.58 32.76 75.59 32.75 75.61 32.74 75.62 32.49 75.94 32.11 76.11 31.62 76.11ZM28.2 72.27C28.07 72.27 27.95 72.28 27.84 72.3 27.42 72.38 27.16 72.55 27.09 72.8 27 73.09 27.17 73.48 27.52 73.82 28.15 74.43 30.23 75.9 31.62 75.9L31.62 75.9C32.04 75.9 32.36 75.76 32.57 75.48 32.58 75.47 32.59 75.46 32.59 75.45 32.79 75.18 32.91 74.85 32.9 74.56 32.9 74.33 32.83 74.01 32.5 73.77 31.72 73.18 29.47 72.27 28.2 72.27Z" fill="#1D1C1A"/></g></g></g><g><g><g><path d="M27.82 72.2C28.33 72.1 29.09 72.24 29.87 72.47 30.19 72.97 30.27 73.59 30.06 74.21 29.95 74.54 29.75 74.98 29.48 75.33 28.6 74.86 27.8 74.25 27.44 73.91 26.81 73.28 26.67 72.41 27.82 72.2Z" fill="#E5E2CD"/></g></g><g><g><path d="M29.49 75.43C29.47 75.43 29.46 75.43 29.44 75.42 28.55 74.95 27.75 74.34 27.37 73.98 26.96 73.58 26.78 73.12 26.89 72.75 26.96 72.52 27.18 72.22 27.81 72.1 28.28 72 29 72.1 29.9 72.37 29.92 72.38 29.95 72.39 29.96 72.42 30.3 72.96 30.38 73.61 30.16 74.25 30.09 74.46 29.89 74.99 29.57 75.4 29.55 75.41 29.52 75.43 29.49 75.43ZM28.2 72.27C28.07 72.27 27.95 72.28 27.85 72.3 27.43 72.38 27.17 72.55 27.1 72.8 27.01 73.09 27.18 73.48 27.53 73.82 27.88 74.16 28.63 74.72 29.47 75.18 29.75 74.8 29.92 74.35 29.98 74.17 30.17 73.61 30.11 73.04 29.82 72.56 29.16 72.37 28.61 72.27 28.2 72.27Z" fill="#1D1C1A"/></g></g></g><g><g><g><path d="M29.46 74.66C28.72 74.26 27.43 73.56 27.05 72.63 26.84 72.99 27.04 73.5 27.45 73.9 28.29 74.71 31.56 76.95 32.65 75.56 31.56 75.68 30.35 75.14 29.46 74.66Z" fill="#E5E2CD"/></g></g><g><g><path d="M31.62 76.11C30.09 76.11 27.94 74.52 27.37 73.97 26.89 73.51 26.73 72.96 26.95 72.57 26.97 72.53 27.01 72.51 27.05 72.52 27.09 72.52 27.13 72.55 27.14 72.59 27.51 73.49 28.81 74.19 29.5 74.56 30.29 74.99 31.52 75.57 32.63 75.45 32.67 75.44 32.71 75.47 32.74 75.5 32.76 75.54 32.76 75.59 32.73 75.62 32.48 75.95 32.1 76.11 31.62 76.11ZM27.07 72.91C27.05 73.18 27.21 73.52 27.52 73.82 28.15 74.43 30.23 75.9 31.62 75.9 31.92 75.9 32.17 75.83 32.37 75.69 32.36 75.69 32.35 75.69 32.34 75.69 31.27 75.69 30.16 75.16 29.41 74.76 28.75 74.4 27.57 73.76 27.07 72.91Z" fill="#1D1C1A"/></g></g></g></g><g><g><path d="M30.28 74.07C30.33 74.1 30.38 74.09 30.41 74.04 30.84 73.42 31.61 73.45 31.61 73.45 31.67 73.45 31.72 73.41 31.72 73.36 31.72 73.3 31.68 73.26 31.63 73.25 31.59 73.25 30.74 73.21 30.25 73.93 30.22 73.97 30.24 74.03 30.28 74.07L30.28 74.07Z" fill="#1D1C1A"/></g></g><g><g><path d="M31.51 74.51C31.53 74.52 31.55 74.53 31.58 74.52 31.63 74.51 31.67 74.46 31.66 74.4 31.65 74.36 31.47 73.38 30.31 72.7 30.26 72.67 30.2 72.69 30.17 72.74 30.14 72.79 30.15 72.84 30.21 72.88 30.24 72.89 30.26 72.91 30.28 72.92 31.29 73.55 31.46 74.44 31.46 74.45 31.48 74.47 31.49 74.49 31.51 74.51Z" fill="#1D1C1A"/></g></g></g></g></g><g><g><g><g><g><path d="M56.91 28.77C61.76 29.09 64.04 23.94 61.51 23.1 59.52 22.44 57.77 23.93 57.77 23.93 57.77 23.93 55.78 25.77 55.91 27.58 55.91 27.58 55.93 28.28 56.42 28.53 56.91 28.77 56.91 28.77 56.91 28.77Z" fill="#F7D6B6"/></g></g></g></g><g><g><g><g><path d="M57.35 28.89C57.21 28.89 57.06 28.89 56.91 28.88 56.9 28.88 56.88 28.87 56.87 28.87L56.38 28.62C56.05 28.45 55.91 28.1 55.85 27.84 55.84 27.78 55.87 27.73 55.93 27.71 55.99 27.7 56.04 27.73 56.06 27.79 56.11 28.01 56.22 28.29 56.48 28.42L56.95 28.66C58.85 28.77 61.9 27.72 62.41 25.08 62.59 24.15 62.25 23.45 61.49 23.2 59.58 22.57 57.87 23.99 57.85 24 57.81 24.04 57.74 24.03 57.7 23.99 57.66 23.95 57.67 23.88 57.71 23.84 57.73 23.83 59.53 22.32 61.55 23 62.42 23.29 62.82 24.09 62.61 25.13 62.31 26.69 60.43 28.89 57.35 28.89Z" fill="#1D1C1A"/></g></g></g></g><g><g><g><path d="M58.07 26.81C58.03 26.78 58.01 26.72 58.03 26.66 58.06 26.6 58.74 25.12 60.14 24.99 60.64 24.95 61.01 25.05 61.24 25.29 61.53 25.6 61.48 26.03 61.48 26.05 61.47 26.12 61.41 26.16 61.34 26.15 61.27 26.14 61.23 26.08 61.24 26.01 61.24 26.01 61.28 25.68 61.07 25.45 60.89 25.27 60.59 25.19 60.17 25.23 58.9 25.35 58.26 26.74 58.26 26.75 58.23 26.81 58.16 26.84 58.1 26.81 58.08 26.82 58.07 26.81 58.07 26.81Z" fill="#1D1C1A"/></g></g><g><g><path d="M59.23 26.66C59.11 26.57 59 26.44 58.94 26.27 58.85 25.99 58.94 25.67 59.21 25.32 59.25 25.27 59.33 25.26 59.38 25.3 59.44 25.34 59.45 25.42 59.4 25.47 59.18 25.76 59.11 26 59.17 26.2 59.27 26.49 59.64 26.61 59.65 26.61 59.72 26.63 59.75 26.7 59.73 26.76 59.71 26.83 59.64 26.86 59.58 26.84 59.57 26.84 59.4 26.78 59.23 26.66Z" fill="#1D1C1A"/></g></g></g></g></g><g><g><g><g><path d="M61 63.58 52 82.8 61 63.58Z" fill="#AF5E28"/></g></g><g><g><path d="M52 82.91C51.99 82.91 51.97 82.91 51.95 82.9 51.9 82.88 51.88 82.81 51.9 82.76L60.9 63.54C60.93 63.49 60.99 63.46 61.04 63.49 61.09 63.51 61.11 63.58 61.09 63.63L52.1 82.84C52.08 82.88 52.04 82.91 52 82.91Z" fill="#231F20"/></g></g></g><g><g><g><path d="M63.35 60.67 54.34 79.89 63.35 60.67Z" fill="#AF5E28"/></g></g><g><g><path d="M54.34 80C54.32 80 54.31 80 54.29 79.99 54.24 79.97 54.22 79.9 54.24 79.85L63.25 60.64C63.27 60.59 63.34 60.56 63.39 60.59 63.44 60.62 63.47 60.68 63.44 60.73L54.43 79.95C54.42 79.97 54.38 80 54.34 80Z" fill="#231F20"/></g></g></g></g><g><g><g><g><path d="M61 63.58 52 82.8 61 63.58Z" fill="#AF5E28"/></g></g><g><g><path d="M52 82.91C51.99 82.91 51.97 82.91 51.95 82.9 51.9 82.88 51.88 82.81 51.9 82.76L60.9 63.54C60.93 63.49 60.99 63.46 61.04 63.49 61.09 63.51 61.11 63.58 61.09 63.63L52.1 82.84C52.08 82.88 52.04 82.91 52 82.91Z" fill="#231F20"/></g></g></g><g><g><g><path d="M63.35 60.67 54.34 79.89 63.35 60.67Z" fill="#AF5E28"/></g></g><g><g><path d="M54.34 80C54.32 80 54.31 80 54.29 79.99 54.24 79.97 54.22 79.9 54.24 79.85L63.25 60.64C63.27 60.59 63.34 60.56 63.39 60.59 63.44 60.62 63.47 60.68 63.44 60.73L54.43 79.95C54.42 79.97 54.38 80 54.34 80Z" fill="#231F20"/></g></g></g></g><g><g><g><g><path d="M22 39.19 13 58.41 22 39.19Z" fill="#AF5E28"/></g></g><g><g><path d="M13 58.51C12.98 58.51 12.97 58.51 12.95 58.5 12.9 58.47 12.88 58.41 12.9 58.36L21.91 39.14C21.93 39.09 22 39.06 22.05 39.09 22.1 39.11 22.13 39.18 22.1 39.23L13.09 58.45C13.08 58.49 13.04 58.51 13 58.51Z" fill="#231F20"/></g></g></g><g><g><g><path d="M24.34 36.28 15.34 55.5 24.34 36.28Z" fill="#AF5E28"/></g></g><g><g><path d="M15.34 55.6C15.32 55.6 15.31 55.6 15.3 55.59 15.25 55.57 15.22 55.5 15.25 55.45L24.26 36.23C24.29 36.18 24.35 36.15 24.4 36.18 24.45 36.2 24.48 36.27 24.45 36.32L15.44 55.54C15.42 55.58 15.38 55.6 15.34 55.6Z" fill="#231F20"/></g></g></g><g><g><g><path d="M22.5 47.06 13.49 66.28 22.5 47.06Z" fill="#AF5E28"/></g></g><g><g><path d="M13.49 66.38C13.47 66.38 13.46 66.38 13.45 66.37 13.4 66.35 13.37 66.28 13.4 66.23L22.41 47.01C22.43 46.96 22.5 46.93 22.55 46.96 22.6 46.99 22.63 47.05 22.6 47.1L13.59 66.32C13.57 66.36 13.53 66.38 13.49 66.38Z" fill="#231F20"/></g></g></g><g><g><g><path d="M24.84 44.15 15.83 63.37 24.84 44.15Z" fill="#AF5E28"/></g></g><g><g><path d="M15.83 63.48C15.81 63.48 15.8 63.48 15.79 63.47 15.74 63.44 15.71 63.38 15.74 63.33L24.75 44.11C24.77 44.06 24.84 44.03 24.89 44.06 24.94 44.09 24.97 44.15 24.94 44.2L15.93 63.42C15.91 63.45 15.87 63.48 15.83 63.48Z" fill="#231F20"/></g></g></g></g></g></svg>