<svg width="257.88" height="132.86" viewBox="0 0 257.88 132.86" xmlns="http://www.w3.org/2000/svg" xmlns:xlink="http://www.w3.org/1999/xlink" xml:space="preserve" overflow="hidden"><defs></defs><g><g><g><g><rect x="53.51" y="8.59" width="6.55" height="98.1" fill="#C48A34"/><path d="M63.34 104.35 60.07 106.69 60.07 8.59 63.34 8.59Z" fill="#925F2D"/></g><g><rect x="199.15" y="8.59" width="6.55" height="98.1" fill="#C48A34"/><path d="M195.88 104.35 199.15 106.69 199.15 8.59 195.88 8.59Z" fill="#925F2D"/></g><rect x="10.19" y="34.76" width="8.68" height="98.1" fill="#C48A34"/><path d="M23.2 130.52 18.87 132.86 18.87 34.76 23.2 34.76Z" fill="#925F2D"/><path d="M233.7 130.52 238.03 132.86 238.03 34.76 233.7 34.76Z" fill="#925F2D"/><rect x="238.03" y="34.76" width="8.68" height="98.1" fill="#C48A34"/><rect x="18.87" y="34.76" width="219.17" height="12.54" fill="#704116"/><rect x="0.14" y="29.8" width="257.74" height="5.28" fill="#925F2D"/><path d="M257.88 29.8 0.14 29.8 54.3 0 212.46 0Z" fill="#C48A34"/></g><g><path d="M16.85 41.22C16.85 42.25 15.75 43.08 14.39 43.08 13.03 43.08 11.93 42.25 11.93 41.22 11.93 40.19 13.03 39.36 14.39 39.36 15.75 39.37 16.85 40.2 16.85 41.22Z" fill="#5D5D5D"/><rect x="14.07" y="39.37" width="0.69" height="3.69" fill="#3F3F3F"/></g><g><path d="M245.43 41.22C245.43 42.25 244.33 43.08 242.97 43.08 241.61 43.08 240.51 42.25 240.51 41.22 240.51 40.19 241.61 39.36 242.97 39.36 244.33 39.37 245.43 40.2 245.43 41.22Z" fill="#5D5D5D"/><rect x="242.65" y="39.37" width="0.69" height="3.69" fill="#3F3F3F"/></g></g><g opacity="0.5"><path d="M54.16 0 0 29.8C0 29.8 50.69 6.71 112.09 6.71 173.5 6.71 257.74 29.8 257.74 29.8L212.31 0 54.16 0Z" fill="#C48A34"/></g></g></svg>