<svg width="137.79" height="125.37" viewBox="0 0 137.79 125.37" xmlns="http://www.w3.org/2000/svg" xmlns:xlink="http://www.w3.org/1999/xlink" xml:space="preserve" overflow="hidden"><defs></defs><g><path d="M137.78 112.52C136.93 109.78 110.23 106.19 107.97 104.74 103.94 102.14 98.52 101.09 93.93 99.97 90.98 99.25 87.64 99.69 84.62 99.51 82.07 99.36 80.37 99.29 77.89 100.12 72.15 102.02 65.14 101.35 59.17 102.21 52.52 103.17 45.98 105.35 39.43 106.83 33.02 108.27 26.71 109.82 20.36 111.52 17.53 112.27 14.86 113.54 12.03 114.3 9.73 114.92 7.5 114.58 5.35 115.8 4.93 116.04 4.51 116.83 4.4 117.43 2.64 118.25 0.85 119.4 0.66 121.14 0.38 123.73 7.82 123.95 9.02 124.15 14.45 125.06 20.29 125.74 25.8 125.18 27.88 124.97 29.75 123.71 31.49 122.66 34.63 120.77 38.02 119.28 41.23 117.53 43.75 116.15 45.86 114.18 48.4 112.85 51.39 111.3 55.23 111.63 58.48 111.66 64.58 111.71 70.62 113.05 76.7 113.52 88.09 114.39 93.65 119.38 105.95 117.83 107.28 117.66 138.48 114.81 137.78 112.52Z" fill="#A89694" opacity="0.5"/><g><g><g><g><g><g><path d="M84.62 58.43C85.01 58.43 85.45 58.39 85.45 58.34L85.45 40.54C85.45 40.44 85.27 40.37 84.69 40.38 83.72 40.39 83.71 40.51 83.71 40.52L83.71 58.33C84.58 58.4 84.18 58.43 84.62 58.43Z" fill="#EB1C43"/><path d="M85.21 58.73C84.77 58.73 84.33 58.61 84.04 58.55 83.97 58.53 83.7 58.4 83.7 58.32L83.7 40.52C83.7 40.38 84.23 40.42 85.32 40.42L85.37 40.42C85.92 40.42 86.32 40.28 86.32 40.54L86.32 58.34C86.32 58.41 86.25 58.48 86.18 58.49L86.13 58.57C85.85 58.62 85.66 58.73 85.27 58.73L85.21 58.73ZM84.58 58.21C84.58 58.25 84.87 58.74 85.21 58.74L85.26 58.74C85.58 58.74 85.45 58.26 85.45 58.22L85.45 40.59C85.45 40.57 85.78 40.42 85.38 40.42L85.33 40.42C84.76 40.42 84.58 40.58 84.58 40.61L84.58 58.21Z" fill="#AB1F24"/></g></g><g opacity="0.5"><g><path d="M85.03 58.36C85.2 58.36 85.45 58.32 85.45 58.27L85.45 40.66C85.45 40.56 85.31 40.5 85.06 40.5 84.65 40.51 84.58 40.63 84.58 40.64L84.58 58.26C84.58 58.33 84.84 58.37 85.03 58.36Z" fill="#FFFFFF"/></g></g></g><g><g><g><path d="M92.04 59.35C92.43 59.35 92.43 59.31 92.43 59.26L92.43 41.46C92.43 41.36 92.68 41.3 92.11 41.3 91.14 41.31 91.56 41.43 91.56 41.44L91.56 59.25C91.55 59.31 91.59 59.35 92.04 59.35Z" fill="#EB1C43"/><path d="M91.64 58.73C91.2 58.73 91.47 59.07 91.18 59.01 91.11 58.99 91.55 59.32 91.55 59.24L91.55 41.44C91.55 41.3 90.66 41.29 91.76 41.29L91.81 41.29C92.36 41.29 92.43 41.2 92.43 41.46L92.43 59.26C92.43 59.34 92.52 59.4 92.45 59.41L92.48 59.03C92.2 59.08 92.09 58.73 91.7 58.73L91.64 58.73ZM91.55 59.13C91.55 59.17 91.29 58.74 91.64 58.74L91.69 58.74C92.01 58.74 92.42 59.18 92.42 59.14L92.42 41.51C92.42 41.49 92.2 41.3 91.8 41.3L91.76 41.3C91.19 41.3 91.55 41.51 91.55 41.53L91.55 59.13Z" fill="#AB1F24"/></g></g><g opacity="0.5"><g><path d="M91.57 59.28C91.74 59.28 91.55 59.24 91.55 59.19L91.55 41.58C91.55 41.48 91.84 41.42 91.6 41.42 91.19 41.43 91.55 41.55 91.55 41.56L91.55 59.18C91.55 59.25 91.38 59.28 91.57 59.28Z" fill="#FFFFFF"/></g></g></g><g><g><g><path d="M99.45 59.96C99.84 59.96 100.28 59.93 100.28 59.88L100.28 42.08C100.28 41.98 100.09 41.92 99.52 41.92 98.56 41.93 98.54 42.05 98.54 42.06L98.54 59.87C98.53 59.93 99 59.96 99.45 59.96Z" fill="#EB1C43"/><path d="M99.31 59.61C98.87 59.61 98.8 59.82 98.51 59.76 98.44 59.74 98.54 59.93 98.54 59.86L98.54 42.16C98.54 42.16 98.34 42.16 99.43 42.16L99.48 42.16C100.03 42.16 100.29 41.81 100.29 42.07L100.29 59.87C100.29 59.94 100.29 60.01 100.22 60.02L100.2 59.77C99.92 59.82 99.76 59.6 99.37 59.6L99.31 59.6ZM98.53 59.74C98.53 59.78 98.96 59.61 99.31 59.61L99.36 59.61C99.68 59.61 100.28 59.79 100.28 59.75L100.28 42.12C100.28 42.1 99.87 42.16 99.47 42.16L99.42 42.16C98.85 42.16 98.53 42.11 98.53 42.14L98.53 59.74Z" fill="#AB1F24"/></g></g><g opacity="0.5"><g><path d="M98.99 59.89C99.16 59.89 99.41 59.85 99.41 59.8L99.41 42.19C99.41 42.09 99.27 42.03 99.02 42.03 98.61 42.04 99.41 42.16 98.53 42.17L98.53 59.8C99.4 59.86 98.8 59.9 98.99 59.89Z" fill="#FFFFFF"/></g></g></g></g><g><g><g><g><g><path d="M74.16 103.64C74.17 103.25 74.13 103 74.07 102.84L48.27 101.8C48.12 101.79 48.03 101.94 48.01 102.52 47.98 103.48 48.15 103.46 48.18 103.48L73.98 104.52C74.08 104.37 74.15 104.09 74.16 103.64Z" fill="#EB1C43"/><path d="M73.98 104.96 73.98 104.96 48.17 103.74C48.15 103.74 48.13 103.64 48.11 103.62 48.01 103.57 47.9 103.36 47.92 102.56 47.93 102.15 47.98 101.74 48.25 101.74L74.06 102.77C74.09 102.77 74.11 102.78 74.13 102.81 74.21 102.99 74.24 103.26 74.23 103.64 74.22 104.09 74.15 104.57 74.04 104.74 74.03 104.77 74.01 104.96 73.98 104.96ZM48.2 103.13 73.94 104.31C74.02 104.15 74.07 103.95 74.08 103.57 74.09 103.25 74.07 103.04 74.01 102.88L48.26 101.87 48.26 101.87C48.15 101.87 48.09 101.95 48.08 102.38 48.06 103.13 48.17 103.13 48.2 103.13L48.2 103.13Z" fill="#AB1F24"/></g></g><g opacity="0.5"><g><path d="M74.05 103.92C74.05 103.75 74.01 103.65 73.94 103.58L48.41 102.55C48.26 102.54 48.17 102.6 48.17 102.85 48.16 103.26 48.34 103.25 48.36 103.26L73.9 104.29C73.99 104.23 74.05 104.11 74.05 103.92Z" fill="#FFFFFF"/></g></g></g></g><g><g><g><g><path d="M105.41 101.8C105.42 101.41 105.39 101.16 105.32 101L79.53 99.96C79.38 99.95 79.29 100.1 79.27 100.68 79.24 101.65 79.42 101.62 79.44 101.64L105.24 102.68C105.34 102.53 105.4 102.25 105.41 101.8Z" fill="#EB1C43"/><path d="M105.24 103.21 105.24 103.21 79.43 101.94C79.41 101.94 79.39 101.82 79.37 101.8 79.27 101.75 79.16 101.53 79.18 100.73 79.19 100.32 79.24 99.91 79.51 99.91L105.32 100.94C105.35 100.94 105.38 100.95 105.39 100.98 105.47 101.16 105.5 101.43 105.49 101.81 105.48 102.26 105.41 102.78 105.3 102.96 105.29 102.98 105.26 103.21 105.24 103.21ZM79.46 101.57 105.2 102.61C105.28 102.45 105.33 102.18 105.34 101.8 105.35 101.48 105.33 101.24 105.27 101.08L79.52 100.04 79.52 100.04C79.41 100.04 79.35 100.26 79.34 100.69 79.32 101.44 79.42 101.55 79.46 101.57L79.46 101.57Z" fill="#AB1F24"/></g></g><g opacity="0.5"><g><path d="M105.3 102.08C105.3 101.91 105.26 101.81 105.19 101.74L79.66 100.71C79.51 100.71 79.42 100.77 79.42 101.01 79.41 101.42 79.58 101.41 79.61 101.42L105.15 102.45C105.24 102.39 105.3 102.27 105.3 102.08Z" fill="#FFFFFF"/></g></g></g></g><g><g><g><g><g><path d="M51.48 62.11C51.87 62.11 51.43 62.07 52.3 62.02L52.3 44.22C52.3 44.12 52.12 44.06 51.54 44.06 50.57 44.07 50.55 44.19 50.55 44.2L50.55 62.01C50.56 62.07 51.04 62.11 51.48 62.11Z" fill="#EB1C43"/><path d="M51.81 62.22C51.37 62.22 51.06 62.2 50.77 62.13 50.7 62.11 50.56 62.07 50.56 62L50.56 44.2C50.56 44.06 50.83 43.91 51.93 43.91L51.98 43.91C52.53 43.91 52.31 43.96 52.31 44.22L52.31 62.02C52.31 62.09 52.55 62.16 52.47 62.17L52.57 62.16C52.29 62.21 52.25 62.22 51.86 62.22L51.81 62.22ZM50.56 61.88C50.56 61.92 51.47 62.22 51.81 62.22L51.86 62.22C52.18 62.22 52.3 61.92 52.3 61.89L52.3 44.27C52.3 44.25 52.37 43.91 51.97 43.91L51.93 43.91C51.36 43.91 50.56 44.26 50.56 44.29L50.56 61.88Z" fill="#AB1F24"/></g></g><g opacity="0.5"><g><path d="M51.02 62.04C51.19 62.04 51.44 62.01 51.44 61.95L51.44 44.33C51.44 44.23 51.3 44.17 51.05 44.17 50.64 44.18 50.57 44.3 50.57 44.31L50.57 61.93C50.56 62.01 50.83 62.04 51.02 62.04Z" fill="#FFFFFF"/></g></g></g><g><g><g><path d="M58.89 61.19C59.28 61.19 59.28 61.15 59.28 61.1L59.28 43.3C59.28 43.2 59.53 43.14 58.96 43.14 58 43.15 58.41 43.27 58.41 43.28L58.41 61.09C58.41 61.15 58.45 61.19 58.89 61.19Z" fill="#EB1C43"/><path d="M58.71 62.22C57.86 62.22 58.41 61.23 58.41 61.09L58.41 43.29C58.41 43.22 58.12 42.76 58.14 42.74 58.2 42.66 58.02 42.16 58.82 42.16L58.87 42.16C59.3 42.16 59.29 43.01 59.29 43.29L59.29 61.09C59.29 61.23 59.58 62.22 58.77 62.22L58.71 62.22ZM58.41 61C58.41 61.02 58.39 61.36 58.71 61.36L58.76 61.36C59.04 61.36 59.29 61.02 59.29 61.01L59.29 43.33C59.29 43.32 59.17 43.91 58.87 43.91L58.83 43.91C58.37 43.91 58.42 43.33 58.42 43.35L58.42 61Z" fill="#AB1F24"/></g></g><g opacity="0.5"><g><path d="M58.87 61.12C59.04 61.12 59.29 61.08 59.29 61.03L59.29 43.42C59.29 43.32 59.15 43.26 58.9 43.26 58.49 43.27 58.41 43.39 58.41 43.4L58.41 61.02C58.41 61.09 58.68 61.12 58.87 61.12Z" fill="#FFFFFF"/></g></g></g><g><g><g><path d="M65.44 60.27C65.83 60.27 66.26 60.23 66.26 60.18L66.26 42.38C66.26 42.28 66.08 42.22 65.5 42.22 64.53 42.23 64.52 42.35 64.52 42.36L64.52 60.17C64.52 60.23 64.99 60.27 65.44 60.27Z" fill="#EB1C43"/><path d="M65.45 61.35C64.6 61.35 64.52 60.31 64.52 60.17L64.52 42.38C64.52 42.31 64.55 42.31 64.57 42.29 64.63 42.21 64.77 42.17 65.57 42.17L65.62 42.17C66.05 42.17 66.27 42.1 66.27 42.39L66.27 60.19C66.27 60.33 66.32 61.36 65.51 61.36L65.45 61.36ZM64.52 60.08C64.52 60.1 65.14 59.61 65.45 59.61L65.5 59.61C65.78 59.61 66.26 60.1 66.26 60.08L66.26 42.41C66.26 42.4 65.9 42.17 65.61 42.17L65.56 42.17C65.1 42.17 64.51 42.41 64.51 42.43L64.51 60.08Z" fill="#AB1F24"/></g></g><g opacity="0.5"><g><path d="M64.97 60.2C65.14 60.2 65.39 60.17 65.39 60.12L65.39 42.5C65.39 42.4 65.25 42.34 65 42.34 64.59 42.35 64.52 42.47 64.52 42.48L64.52 60.1C64.52 60.17 64.78 60.2 64.97 60.2Z" fill="#FFFFFF"/></g></g></g><g><g><g><path d="M72.41 59.35C72.8 59.35 73.23 59.31 73.23 59.26L73.23 41.46C73.23 41.36 73.05 41.3 72.47 41.3 71.5 41.31 71.49 41.43 71.49 41.44L71.49 59.25C71.49 59.31 71.97 59.35 72.41 59.35Z" fill="#EB1C43"/><path d="M72.34 58.73C71.9 58.73 71.79 59.07 71.5 59.01 71.43 58.99 71.49 59.32 71.49 59.24L71.49 41.44C71.49 41.3 71.36 41.29 72.45 41.29L72.5 41.29C73.05 41.29 73.23 41.2 73.23 41.46L73.23 59.26C73.23 59.34 73.23 59.4 73.23 59.41L73.23 59.03C73.23 59.08 72.77 58.73 72.39 58.73L72.34 58.73ZM71.49 59.13C71.49 59.17 71.99 58.74 72.34 58.74L72.39 58.74C72.71 58.74 73.24 59.18 73.24 59.14L73.24 41.51C73.24 41.49 72.91 41.3 72.51 41.3L72.47 41.3C71.9 41.3 71.51 41.51 71.51 41.53L71.51 59.13Z" fill="#AB1F24"/></g></g><g opacity="0.5"><g><path d="M71.51 59.28C71.68 59.28 71.49 59.24 71.49 59.19L71.49 41.58C71.49 41.48 71.78 41.42 71.54 41.42 71.13 41.43 71.49 41.55 71.49 41.56L71.49 59.18C71.49 59.25 71.33 59.28 71.51 59.28Z" fill="#FFFFFF"/></g></g></g></g><g><g><g><path d="M106.92 42.46C106.94 42.07 106.86 41.82 106.7 41.65L79.63 39.52 48.72 43.29C48.39 43.33 48.21 43.51 48.29 44.08 48.43 45.04 48.81 44.95 48.87 44.97L79.67 41.21 106.54 43.32C106.76 43.18 106.9 42.9 106.92 42.46Z" fill="#EB1C43"/><path d="M48.86 45.65C48.86 45.65 48.85 45.35 48.84 45.35 48.7 45.34 48.34 45.15 48.21 44.24 48.16 43.93 48.19 43.63 48.3 43.49 48.39 43.38 48.52 43.28 48.7 43.25L79.61 39.46 106.7 41.57C106.72 41.57 106.74 41.58 106.75 41.59 106.93 41.79 107.01 42.07 106.99 42.46 106.97 42.91 106.82 43.22 106.56 43.38 106.55 43.39 106.53 43.39 106.51 43.39L79.64 41.58 48.85 45.64 48.86 45.64ZM79.62 39.6 48.72 43.37C48.57 43.39 48.48 43.43 48.42 43.51 48.34 43.62 48.32 43.8 48.35 44.07 48.46 44.86 48.74 44.88 48.83 44.89 48.84 44.89 48.85 44.89 48.86 44.89L79.65 41.13 106.51 43.24C106.71 43.1 106.82 42.84 106.84 42.45 106.86 42.12 106.8 41.88 106.66 41.71L79.62 39.6Z" fill="#AB1F24"/></g></g><g opacity="0.5"><g><path d="M106.68 42.72C106.69 42.55 106.59 42.44 106.43 42.36L79.65 40.26 49.19 43.98C48.87 44.02 48.67 44.11 48.71 44.35 48.78 44.75 49.17 44.69 49.22 44.7L79.67 40.99 106.34 43.08C106.55 43.03 106.67 42.91 106.68 42.72Z" fill="#FFFFFF"/></g></g></g><g><g><g><g><path d="M79.5 105.71C80.34 105.7 80.93 105.53 81.23 105.28L81.23 16.28C81.23 15.77 80.87 15.46 79.63 15.48 77.55 15.51 77.55 16.11 77.55 16.19L77.55 105.22C77.86 105.54 78.54 105.72 79.5 105.71Z" fill="#2084AF"/><path d="M79.39 105.86C78.45 105.86 77.77 105.67 77.44 105.32 77.41 105.29 77.4 105.25 77.4 105.21L77.4 16.19C77.4 15.88 77.69 15.35 79.63 15.32L79.73 15.32C80.5 15.32 81.38 15.43 81.38 16.28L81.38 105.28C81.38 105.32 81.36 105.37 81.33 105.4 80.98 105.69 80.35 105.86 79.5 105.87L79.39 105.86ZM77.71 105.15C78 105.41 78.59 105.55 79.39 105.55L79.5 105.55C80.22 105.54 80.78 105.42 81.08 105.2L81.08 16.28C81.08 16.07 81.08 15.63 79.74 15.63L79.64 15.63C78.12 15.65 77.71 15.99 77.71 16.19L77.71 105.15Z" fill="#19598B"/></g></g><g><g><path d="M80.16 15.49 80.16 105.64C80.77 105.57 81.08 105.44 81.08 105.26L81.08 16.26C81.08 15.86 81.08 15.57 80.16 15.49Z" fill="#4F99BB"/></g></g></g></g><g><path d="M106.97 59.21 79.55 56.91 47.22 61.51 74.87 64.11Z" fill="#00557F"/><path d="M74.87 63.97 74.86 63.97 47.2 61.51C47.12 61.5 47.06 61.51 47.06 61.43 47.06 61.35 47.11 61.32 47.19 61.31L79.52 56.73C79.53 56.73 79.54 56.74 79.55 56.74L106.97 59.04C107.05 59.05 107.11 59.11 107.11 59.19 107.11 59.27 107.06 59.33 106.98 59.35L74.88 64.1C74.89 64.12 74.88 63.97 74.87 63.97ZM48.53 61.48 74.87 63.96 105.66 59.25 79.55 57.06 48.53 61.48Z" fill="#212659"/></g><g><g><g><path d="M106.33 60.45C106.22 59.61 106.09 59.1 105.96 58.78L75.2 62.77C75.02 62.79 74.96 63.14 75.12 64.36 75.4 66.42 75.6 66.32 75.63 66.36L106.4 62.37C106.47 62.02 106.45 61.4 106.33 60.45Z" fill="#44C7F4"/><path d="M75.63 66.58C75.59 66.58 75.55 66.53 75.52 66.51 75.41 66.44 75.22 66.25 74.97 64.39 74.81 63.24 74.86 62.89 74.99 62.73 75.04 62.67 75.1 62.62 75.18 62.61L105.94 58.61C106.01 58.6 106.08 58.64 106.1 58.7 106.25 59.06 106.37 59.62 106.48 60.41 106.61 61.35 106.63 61.99 106.56 62.38 106.55 62.45 106.49 62.53 106.43 62.53L75.66 66.56 75.63 66.56ZM105.86 58.94 75.22 62.92C75.2 62.95 75.11 63.14 75.28 64.34 75.48 65.81 75.63 66.13 75.69 66.21L106.28 62.24C106.33 61.88 106.29 61.28 106.19 60.48 106.08 59.79 105.97 59.28 105.86 58.94Z" fill="#0376BC"/></g></g><g><g><path d="M75.05 63.8 106.21 59.75C106.13 59.31 106.04 58.99 105.95 58.78L75.2 62.77C75.05 62.79 74.98 63.03 75.05 63.8Z" fill="#44C7F4"/></g></g><g opacity="0.5"><g><path d="M106.28 61.07C106.23 60.72 106.15 60.5 106.04 60.37L75.6 64.32C75.43 64.34 75.34 64.5 75.41 65.02 75.53 65.89 75.73 65.83 75.77 65.85L106.22 61.89C106.32 61.74 106.34 61.47 106.28 61.07Z" fill="#FFFFFF"/></g></g></g><g><g><g><path d="M49.06 63.15C49.02 63.99 49.03 64.52 49.08 64.86L72.93 66.16C73.06 66.17 73.17 65.84 73.23 64.6 73.34 62.53 73.17 62.6 73.15 62.54L49.29 61.24C49.19 61.58 49.11 62.19 49.06 63.15Z" fill="#44C7F4"/><path d="M72.94 66.58 72.94 66.58 72.93 66.58 49.08 65.14C49.01 65.14 48.95 65.01 48.94 64.94 48.88 64.56 48.88 63.96 48.91 63.16 48.96 62.22 49.04 61.56 49.16 61.2 49.18 61.13 49.24 61.08 49.31 61.08L73.17 62.38C73.22 62.38 73.27 62.41 73.3 62.46 73.38 62.56 73.49 62.88 73.4 64.74 73.32 66.21 73.19 66.58 72.94 66.58ZM49.22 64.71 72.91 66C72.95 65.92 73.03 65.64 73.08 64.59 73.15 63.17 73.09 62.79 73.06 62.68L49.41 61.4C49.32 61.75 49.25 62.34 49.21 63.15 49.18 63.85 49.18 64.36 49.22 64.71Z" fill="#0376BC"/></g></g><g><g><path d="M73.2 65.18 49.04 63.86C49.03 64.31 49.05 64.63 49.08 64.87L72.93 66.17C73.05 66.17 73.14 65.95 73.2 65.18Z" fill="#44C7F4"/></g></g><g opacity="0.5"><g><path d="M49.19 62.54C49.17 62.9 49.21 63.12 49.27 63.27L72.88 64.56C73.01 64.57 73.11 64.43 73.13 63.91 73.17 63.03 73.01 63.05 72.99 63.03L49.38 61.74C49.27 61.88 49.21 62.14 49.19 62.54Z" fill="#FFFFFF"/></g></g></g><g><g><g><g><path d="M75.09 110.61C75.93 110.59 76.73 110.44 76.73 110.18L76.73 21.18C76.73 20.67 76.47 20.36 75.23 20.38 73.15 20.41 73.24 21.01 73.24 21.09L73.24 110.12C73.24 110.44 74.13 110.62 75.09 110.61Z" fill="#44C7F4"/><path d="M74.79 111.06C73.85 111.06 73.39 110.72 73.06 110.37 73.03 110.34 73.24 110.15 73.24 110.11L73.24 21.09C73.24 20.78 73.1 20.36 75.04 20.36L75.14 20.36C75.91 20.36 76.73 20.33 76.73 21.18L76.73 110.18C76.73 110.23 76.74 110.42 76.71 110.45 76.36 110.74 75.76 111.07 74.91 111.07L74.79 111.07ZM73.24 110.05C73.24 110.31 73.99 111.07 74.79 111.07L74.89 111.07C75.61 111.07 76.72 110.32 76.72 110.1L76.72 21.18C76.72 20.97 76.47 21.23 75.13 21.23L75.03 21.23C73.51 21.23 73.23 20.89 73.23 21.09L73.23 110.05Z" fill="#0376BC"/></g></g><g><g><path d="M75.86 20.4 75.86 110.55C76.73 110.48 76.73 110.35 76.73 110.17L76.73 21.17C76.73 20.76 76.73 20.47 75.86 20.4Z" fill="#44C7F4"/></g></g><g opacity="0.5"><g><path d="M73.72 110.27C74.08 110.26 74.11 110.1 74.11 109.84L74.11 21.76C74.11 21.26 74.3 20.95 73.78 20.97 72.9 21 73.24 21.6 73.24 21.68L73.24 109.79C73.24 110.1 73.31 110.28 73.72 110.27Z" fill="#FFFFFF"/></g></g></g></g><g><g><g><g><path d="M46.74 109.08C47.58 109.07 48.82 108.91 48.82 108.65L48.82 21.16C48.82 20.66 48.12 20.35 46.88 20.37 44.8 20.4 44.46 20.99 44.46 21.07L44.46 108.59C44.46 108.92 45.78 109.09 46.74 109.08Z" fill="#44C7F4"/><path d="M47.21 108.45C46.27 108.45 45.21 108.66 44.88 108.31 44.85 108.28 44.45 108.64 44.45 108.6L44.45 21.07C44.45 20.76 45.51 20.36 47.45 20.36L47.55 20.36C48.32 20.36 49.68 20.32 49.68 21.16L49.68 108.65C49.68 108.7 49.42 108.35 49.38 108.37 49.03 108.66 48.16 108.44 47.31 108.44L47.21 108.44ZM44.46 108.53C46.21 108.79 46.42 108.45 47.22 108.45L47.33 108.45C48.05 108.45 48.83 108.79 48.83 108.58L48.83 21.16C48.83 20.95 48.92 21.23 47.57 21.23L47.47 21.23C45.95 21.23 44.46 20.88 44.46 21.07L44.46 108.53Z" fill="#0376BC"/></g></g><g><g><path d="M47.95 20.39 47.95 109.02C48.82 108.95 48.82 108.82 48.82 108.65L48.82 21.16C48.82 20.75 48.82 20.47 47.95 20.39Z" fill="#44C7F4"/></g></g><g opacity="0.5"><g><path d="M47.12 108.74C47.48 108.73 47.95 108.57 47.95 108.32L47.95 21.73C47.95 21.24 47.71 20.93 47.18 20.95 46.3 20.98 46.2 21.56 46.2 21.64L46.2 108.26C46.2 108.58 46.71 108.76 47.12 108.74Z" fill="#FFFFFF"/></g></g></g></g><g><g><g><g><path d="M106.05 106.62C106.89 106.61 108.13 106.45 108.13 106.19L108.13 17.2C108.13 16.69 107.43 16.38 106.19 16.4 104.11 16.43 103.77 17.03 103.77 17.11L103.77 106.14C103.76 106.46 105.09 106.64 106.05 106.62Z" fill="#44C7F4"/><path d="M106.04 106.7C105.1 106.7 104.28 106.55 103.95 106.2 103.92 106.17 103.76 106.17 103.76 106.13L103.76 17.11C103.76 16.8 104.34 16 106.29 16L106.39 16C107.16 16 108.12 16.35 108.12 17.2L108.12 106.19C108.12 106.24 108.06 106.24 108.02 106.27 107.67 106.56 107 106.7 106.15 106.7L106.04 106.7ZM103.76 106.07C103.76 106.33 105.24 105.83 106.04 105.83L106.15 105.83C106.87 105.83 108.12 106.33 108.12 106.12L108.12 17.2C108.12 16.99 107.73 16.88 106.39 16.88L106.29 16.88C104.77 16.88 103.76 16.92 103.76 17.11L103.76 106.07Z" fill="#0376BC"/></g></g><g><g><path d="M106.38 16.41 106.38 106.56C108.13 106.49 108.13 106.36 108.13 106.18L108.13 17.2C108.12 16.78 108.12 16.49 106.38 16.41Z" fill="#44C7F4"/></g></g><g opacity="0.5"><g><path d="M104.68 106.28C105.04 106.27 105.51 106.11 105.51 105.85L105.51 17.77C105.51 17.27 105.27 16.96 104.74 16.97 103.86 17 103.77 17.6 103.77 17.68L103.77 105.79C105.51 106.12 104.27 106.29 104.68 106.28Z" fill="#FFFFFF"/></g></g></g></g><g><path d="M106.81 58.87 104.21 59.26 131.84 111.07 132.7 110.95Z" fill="#F9AC7E"/><path d="M131.84 111.06C131.78 111.06 131.73 111.11 131.71 111.06L104.08 59.29C104.06 59.25 104.06 59.21 104.08 59.17 104.1 59.13 104.15 59.11 104.19 59.1L106.79 58.71C106.86 58.7 106.92 58.74 106.95 58.8L132.84 110.89C132.86 110.93 132.86 110.99 132.84 111.03 132.82 111.07 132.77 111.03 132.73 111.03L131.86 111.07C131.86 111.06 131.84 111.06 131.84 111.06ZM104.45 59.38 131.92 110.91 132.47 110.84 106.72 59.04 104.45 59.38Z" fill="#D45748"/></g><g><path d="M105.89 59 75.71 63.04 76.82 67.18 100.99 114.97 131.84 111.07Z" fill="#BB5A35"/><path d="M100.99 115.42C100.93 115.42 100.88 115.24 100.85 115.19L76.69 67.32C76.69 67.31 76.68 67.26 76.68 67.25L75.57 63.1C75.56 63.06 75.57 63 75.59 62.97 75.61 62.93 75.65 62.9 75.7 62.9L105.88 58.86C105.95 58.85 106.01 58.89 106.04 58.94L131.97 111C131.99 111.04 131.99 111.1 131.97 111.14 131.95 111.18 131.9 111.36 131.85 111.37L101.01 115.42C101.01 115.42 101 115.42 100.99 115.42ZM76.97 67.12 101.09 114.81 131.61 110.94 105.81 59.17 75.91 63.17 76.97 67.12Z" fill="#8A3529"/></g><g><path d="M104.67 59.17 75.71 63.04 76.82 67.18 100.99 114.97 130.31 111.26Z" fill="#F37647"/><path d="M100.99 115.42C100.93 115.42 100.88 115.24 100.85 115.19L76.69 67.32C76.69 67.31 76.68 67.26 76.68 67.25L75.57 63.1C75.56 63.06 75.57 63 75.59 62.97 75.61 62.93 75.65 62.9 75.7 62.9L104.65 59.02C104.72 59.01 104.78 59.05 104.81 59.1L130.45 111.2C130.47 111.24 130.47 111.3 130.45 111.34 130.43 111.38 130.38 111.56 130.33 111.57L101.02 115.43C101.01 115.42 101 115.42 100.99 115.42ZM76.97 67.12 101.09 114.81 130.08 111.14 104.59 59.34 75.92 63.18 76.97 67.12Z" fill="#D45748"/></g><g><path d="M76.63 62.92 75.41 63.04 100.99 114.97 102.58 114.77Z" fill="#F9AC7E"/><path d="M100.99 115.42C100.93 115.42 100.88 115.24 100.85 115.19L75.27 63.18C75.25 63.14 75.25 63.05 75.27 63 75.29 62.96 75.34 62.91 75.39 62.9L76.62 62.77C76.68 62.76 76.74 62.79 76.77 62.85L102.71 114.7C102.73 114.74 102.73 114.8 102.71 114.84 102.69 114.88 102.64 115.06 102.59 115.07L101.01 115.42C101.01 115.42 101 115.42 100.99 115.42ZM75.64 63.17 101.08 114.81 102.34 114.65 76.54 63.08 75.64 63.17Z" fill="#D45748"/></g><g><path d="M75.86 63.04 75.86 68.25 97.42 114.55 100.99 114.55Z" fill="#BB5A35"/><path d="M100.99 114.55 97.41 114.55C97.35 114.55 97.3 114.8 97.27 114.75L75.57 68.17C75.56 68.15 75.86 68.27 75.86 68.25L75.86 63.04C75.86 62.97 75.61 62.91 75.68 62.89 75.75 62.87 75.67 62.91 75.7 62.97L101.21 114.91C101.23 114.95 101.19 114.72 101.16 114.77 101.13 114.81 101.05 114.55 100.99 114.55ZM97.52 114.55 100.75 114.55 75.86 63.7 75.86 68.22 97.52 114.55Z" fill="#8A3529"/></g><g><g><g><g><path d="M0.39 116.01C0.63 116.76 0.9 117.19 1.2 117.42 1.2 117.42 1.48 117.33 2 117.16 2.52 117 3.29 116.73 4.26 116.39 5.23 116.03 6.4 115.58 7.72 115.01 9.04 114.42 10.52 113.71 12.08 112.8 13.63 111.89 15.26 110.77 16.85 109.42 18.43 108.06 19.95 106.44 21.31 104.64 22.68 102.84 23.87 100.85 24.97 98.81 26.06 96.77 27.04 94.65 27.99 92.55 28.92 90.45 29.85 88.36 30.76 86.29 31.22 85.27 31.68 84.25 32.13 83.25 32.35 82.74 32.59 82.27 32.83 81.79 33.06 81.31 33.3 80.84 33.53 80.37 35.42 76.63 37.55 73.37 39.69 70.9 41.82 68.41 43.98 66.8 45.55 65.92 45.74 65.8 45.93 65.71 46.11 65.62 46.29 65.53 46.45 65.45 46.61 65.37 46.92 65.24 47.19 65.13 47.4 65.05 47.61 64.98 47.78 64.93 47.89 64.89 47.99 64.86 48.05 64.85 48.05 64.85 48.13 64.83 48.2 64.79 48.25 64.73 48.3 64.67 48.33 64.59 48.35 64.47 48.4 64.24 48.37 63.87 48.3 63.3 48.17 62.34 47.94 61.91 47.72 61.72 47.5 61.53 47.34 61.58 47.3 61.56 47.3 61.56 47.21 61.58 47.05 61.62 46.89 61.66 46.67 61.74 46.36 61.84 46.06 61.94 45.72 62.09 45.31 62.25 45.11 62.34 44.9 62.45 44.68 62.56 44.46 62.67 44.21 62.78 43.98 62.92 42.05 63.99 39.56 65.88 37.2 68.61 34.83 71.34 32.55 74.83 30.56 78.77 30.08 79.76 29.57 80.77 29.11 81.78 28.65 82.8 28.19 83.82 27.73 84.86 26.82 86.92 25.89 89.01 24.96 91.11 24.02 93.18 23.07 95.23 22.04 97.17 21 99.1 19.9 100.93 18.67 102.56 17.44 104.19 16.1 105.61 14.7 106.83 13.3 108.04 11.84 109.04 10.43 109.87 9.02 110.7 7.65 111.35 6.42 111.91 5.8 112.17 5.22 112.43 4.67 112.63 4.12 112.84 3.62 113.04 3.16 113.2 2.24 113.52 1.52 113.78 1.01 113.93 0.51 114.09 0.24 114.18 0.24 114.18 0.09 114.57 0.12 115.16 0.39 116.01Z" fill="#EB1C43"/><path d="M1.2 117.57C1.17 117.57 1.13 117.56 1.11 117.54 0.76 117.27 0.48 116.78 0.25 116.06-0.02 115.21-0.07 114.56 0.11 114.13 0.13 114.09 0.16 114.06 0.2 114.04L0.97 113.8C1.38 113.68 1.93 113.48 2.62 113.24L3.11 113.07C3.4 112.97 3.71 112.85 4.03 112.72 4.22 112.65 4.41 112.57 4.61 112.5 4.95 112.37 5.31 112.22 5.68 112.06 5.9 111.97 6.12 111.87 6.35 111.78 7.43 111.29 8.86 110.62 10.34 109.75 11.93 108.81 13.32 107.82 14.59 106.73 16 105.51 17.33 104.08 18.53 102.48 19.64 101.01 20.74 99.25 21.89 97.11 22.98 95.07 23.97 92.9 24.81 91.06L28.96 81.74C29.26 81.07 29.6 80.4 29.91 79.75 30.08 79.41 30.25 79.06 30.41 78.72 32.41 74.76 34.72 71.24 37.07 68.53 39.87 65.29 42.54 63.55 43.89 62.8 44.06 62.69 44.24 62.61 44.41 62.52 44.47 62.49 44.54 62.46 44.6 62.43L44.82 62.32C44.97 62.25 45.11 62.18 45.24 62.12 45.38 62.06 45.51 62.01 45.63 61.96 45.88 61.86 46.1 61.76 46.31 61.7L46.57 61.61C46.75 61.55 46.89 61.51 47 61.48L47.25 61.42C47.28 61.41 47.31 61.41 47.34 61.42 47.43 61.42 47.6 61.42 47.82 61.61 48.13 61.89 48.34 62.45 48.45 63.29 48.53 63.93 48.54 64.28 48.49 64.51 48.46 64.66 48.42 64.76 48.36 64.83 48.29 64.91 48.19 64.97 48.08 65L47.92 65.04 47.44 65.19C47.29 65.25 47.11 65.32 46.9 65.41L46.66 65.51 46.17 65.75C45.99 65.84 45.81 65.92 45.62 66.04 44.48 66.7 42.2 68.2 39.81 71 37.65 73.49 35.53 76.75 33.67 80.44L32.83 82.17C32.65 82.54 32.46 82.92 32.29 83.32L30.92 86.37 28.15 92.63C27.24 94.64 26.24 96.8 25.12 98.9 23.87 101.23 22.67 103.14 21.45 104.75 20.08 106.56 18.57 108.17 16.96 109.55 15.53 110.78 13.92 111.92 12.17 112.95 10.57 113.89 9.07 114.59 7.8 115.17 6.65 115.67 5.51 116.12 4.33 116.55L4.14 116.62C3.26 116.93 2.56 117.17 2.06 117.33L1.26 117.59C1.23 117.57 1.22 117.57 1.2 117.57ZM0.37 114.31C0.25 114.68 0.31 115.23 0.54 115.96 0.74 116.58 0.97 117 1.24 117.24L1.96 117.01C2.45 116.86 3.14 116.62 4.02 116.31L4.21 116.24C5.39 115.81 6.52 115.36 7.66 114.87 8.92 114.3 10.42 113.6 12 112.67 13.73 111.65 15.33 110.52 16.74 109.3 18.33 107.93 19.82 106.33 21.18 104.54 22.39 102.95 23.59 101.05 24.83 98.73 25.95 96.63 26.94 94.49 27.85 92.48L31.99 83.18C32.17 82.78 32.36 82.39 32.54 82.02L33.38 80.29C35.25 76.58 37.39 73.29 39.56 70.79 41.98 67.96 44.29 66.43 45.46 65.78 45.65 65.66 45.84 65.57 46.02 65.48L46.52 65.23 46.77 65.13C46.98 65.04 47.17 64.97 47.33 64.91L47.99 64.71C48.04 64.7 48.08 64.67 48.11 64.64 48.14 64.6 48.16 64.55 48.18 64.45 48.22 64.25 48.21 63.93 48.13 63.33 48 62.38 47.77 62.24 47.6 62.09 47.47 61.98 47.39 62.22 47.32 62.22 47.31 62.22 47.29 62.22 47.28 62.22L47.06 62.03C46.95 62.06 46.82 61.98 46.65 62.04L46.39 62.06C46.19 62.12 45.98 62.18 45.73 62.28 45.61 62.33 45.48 62.37 45.35 62.42 45.22 62.48 45.09 62.54 44.95 62.61L44.73 62.71C44.67 62.74 44.61 62.77 44.54 62.8 44.37 62.88 44.2 62.96 44.04 63.06 42.71 63.8 40.06 65.52 37.3 68.72 34.96 71.41 32.67 74.91 30.68 78.85 30.52 79.19 30.35 79.53 30.18 79.88 29.86 80.53 29.53 81.19 29.23 81.86L27.85 84.93 25.08 91.18C24.25 93.03 23.25 95.2 22.16 97.25 21.01 99.4 19.9 101.17 18.78 102.66 17.56 104.27 16.22 105.71 14.79 106.95 13.51 108.06 12.1 109.06 10.5 110 9.01 110.87 7.57 111.55 6.48 112.05 6.25 112.15 6.02 112.24 5.81 112.33 5.43 112.49 5.08 112.64 4.73 112.78 4.53 112.86 4.34 112.93 4.15 113 3.82 113.13 3.51 113.25 3.22 113.35L2.72 113.52C2.02 113.76 1.47 113.96 1.06 114.08L0.37 114.31Z" fill="#AB1F24"/></g></g></g><g><path d="M47.48 62.52 48.06 62.25C48.06 62.25 48.65 63.48 52.43 63.94 56.21 64.4 68.59 65.26 71.33 64.25 74.06 63.24 73.97 63.57 74.18 64.6 74.39 65.63 69.08 65.78 65.2 69.92 61.32 74.05 53.4 88.68 49.12 98.58 44.84 108.48 28.53 118.12 24.55 118.18L23.27 120.63C23.27 120.63 10.03 120.67 1.2 117.41 1.2 117.41 0.3 116.09 1.73 115.42 3.16 114.76 13.42 112.44 19.59 104.85 25.76 97.27 27.05 90.35 28.88 86.37 30.73 82.39 36.96 66.08 47.48 62.52Z" fill="#EB1C43"/><path d="M23.24 120.66C22.69 120.66 9.78 120.69 1.14 117.5 1.11 117.49 1.08 117.5 1.07 117.48 1.05 117.45 0.63 116.84 0.81 116.18 0.92 115.8 1.2 115.5 1.66 115.29 1.89 115.18 2.34 115.04 2.96 114.84 6.35 113.73 14.29 111.12 19.46 104.77 24.03 99.15 25.94 93.83 27.33 89.94 27.83 88.55 28.26 87.35 28.73 86.32 28.9 85.95 29.11 85.48 29.35 84.92 31.66 79.65 37.8 65.64 47.41 62.38L47.98 62.12C48.05 62.08 48.14 62.12 48.18 62.19 48.19 62.2 48.82 63.35 52.43 63.79 55.12 64.12 61.3 64.57 65.9 64.57 68.62 64.57 70.43 64.42 71.25 64.11 72.46 63.67 73.08 63.49 73.48 63.49 74.09 63.49 74.18 63.92 74.28 64.42L74.31 64.57C74.42 65.1 73.65 65.38 72.37 65.83 70.49 66.5 67.64 67.52 65.29 70.02 61.44 74.12 53.5 88.77 49.24 98.63 46.71 104.49 40.36 109.63 36.79 112.18 32.01 115.6 26.82 118.21 24.62 118.32L23.38 120.62C23.35 120.67 23.3 120.63 23.24 120.63L23.24 120.63ZM1.3 117.3C9.66 120.37 22.03 120.49 23.17 120.49L24.4 118.12C24.43 118.07 24.48 118.04 24.53 118.04 28.25 117.98 44.58 108.69 48.96 98.53 53.23 88.64 61.2 73.95 65.07 69.83 67.47 67.27 70.36 66.24 72.27 65.56 73.24 65.21 74.07 64.92 74.01 64.65L73.98 64.49C73.87 63.96 73.83 63.81 73.48 63.81 73.13 63.81 72.51 63.98 71.36 64.41 70.5 64.73 68.66 64.89 65.9 64.89 61.28 64.89 55.09 64.43 52.39 64.11 49.24 63.73 48.24 62.8 47.98 62.46L47.52 62.67C38.03 65.89 31.93 79.8 29.63 85.04 29.38 85.6 29.18 86.08 29 86.45 28.53 87.47 28.1 88.66 27.61 90.05 26.21 93.96 24.3 99.31 19.69 104.97 14.46 111.4 6.46 114.02 3.04 115.14 2.43 115.34 1.99 115.49 1.77 115.59 1.39 115.77 1.16 116 1.08 116.29 0.99 116.71 1.23 117.16 1.3 117.3Z" fill="#AB1F24"/></g><g><path d="M42.06 105.07C40.11 105.79 38.06 105.83 36 105.73 34.16 105.64 32.31 105.49 30.48 105.24 27.96 104.9 25.2 104.43 23.13 102.85 22.64 102.48 22.27 102.06 21.98 101.6 21.27 102.67 20.48 103.76 19.59 104.86 13.41 112.45 3.16 114.77 1.73 115.43 0.3 116.09 1.2 117.42 1.2 117.42 10.03 120.68 23.27 120.64 23.27 120.64L24.55 118.19C28.04 118.14 40.98 110.74 47.02 102.25 45.44 103.34 43.86 104.41 42.06 105.07Z" fill="#BC2037"/></g><g><g><path d="M48.06 62.25 47.48 62.52C36.96 66.08 30.73 82.4 28.89 86.38 27.05 90.36 25.77 97.28 19.6 104.86 13.42 112.45 3.17 114.77 1.74 115.43 1.66 115.47 1.58 115.51 1.51 115.56 1.6 115.56 1.69 115.57 1.78 115.6 2.44 115.77 2.77 116.31 3.16 116.8 3.51 116.59 3.96 116.51 4.41 116.43 6.8 115.8 12.32 113.79 18.59 109.31 26.45 103.69 30.22 87.76 36.45 77.34 41.8 68.4 48.06 64.33 49.74 63.35 48.33 62.83 48.06 62.25 48.06 62.25Z" fill="#BC2037"/></g></g><g><g><g><path d="M21.95 120.14C22.02 120.26 22.12 120.37 22.24 120.46 22.87 120.93 23.75 120.63 24.44 120.52 24.44 120.52 24.73 120.43 25.28 120.26 25.83 120.1 26.63 119.83 27.65 119.48 29.67 118.77 32.57 117.69 35.86 115.86 37.5 114.94 39.22 113.82 40.9 112.44 42.59 111.07 44.21 109.41 45.67 107.56 47.15 105.71 48.43 103.66 49.62 101.54 50.8 99.42 51.85 97.23 52.88 95.04 53.88 92.86 54.88 90.68 55.86 88.53 56.36 87.47 56.85 86.41 57.33 85.36 57.57 84.83 57.83 84.34 58.08 83.84 58.33 83.34 58.58 82.85 58.83 82.36 60.86 78.48 63.15 75.1 65.44 72.56 67.73 70.01 70.02 68.35 71.69 67.45 71.9 67.32 72.1 67.24 72.29 67.15 72.48 67.06 72.66 66.98 72.82 66.9 73.15 66.78 73.44 66.65 73.66 66.58 73.89 66.51 74.06 66.45 74.18 66.42 74.29 66.39 74.35 66.38 74.35 66.38 74.44 66.36 74.51 66.32 74.57 66.26 74.62 66.2 74.66 66.12 74.68 66 74.74 65.77 74.72 65.4 74.65 64.83 74.53 63.87 74.29 63.44 74.07 63.24 73.84 63.05 73.68 63.1 73.63 63.08 73.63 63.08 73.27 63.16 72.66 63.36 72.35 63.46 72 63.61 71.57 63.77 71.36 63.86 71.14 63.97 70.91 64.07 70.68 64.19 70.42 64.29 70.18 64.44 68.16 65.52 65.53 67.44 63 70.24 60.47 73.04 58.02 76.65 55.89 80.73 55.38 81.76 54.82 82.8 54.33 83.86 53.84 84.91 53.34 85.98 52.84 87.06 51.86 89.2 50.86 91.38 49.86 93.56 47.85 97.87 45.73 102.08 43.08 105.42 41.76 107.09 40.33 108.57 38.82 109.8 37.32 111.03 35.76 112.05 34.27 112.89 31.27 114.57 28.53 115.6 26.6 116.28 25.63 116.61 24.87 116.87 24.34 117.02 23.44 117.28 22.4 117.84 21.99 118.72 21.77 119.19 21.71 119.73 21.95 120.14Z" fill="#EB1C43"/><path d="M23.11 120.88 23.11 120.88C22.72 120.88 22.4 120.79 22.15 120.6 22.01 120.5 21.9 120.37 21.82 120.23 21.57 119.81 21.58 119.23 21.84 118.68 22.21 117.9 23.12 117.23 24.29 116.9 24.74 116.77 25.37 116.55 26.16 116.28L26.54 116.15C28.56 115.44 31.26 114.41 34.18 112.77 35.86 111.82 37.34 110.81 38.71 109.69 40.18 108.49 41.61 107.03 42.95 105.34 45.62 101.98 47.78 97.66 49.71 93.51L52.69 87.02 54.17 83.82C54.5 83.13 54.85 82.43 55.19 81.76 55.37 81.4 55.56 81.05 55.73 80.69 57.87 76.6 60.34 72.96 62.87 70.16 65.87 66.83 68.68 65.08 70.09 64.33 70.25 64.23 70.42 64.15 70.59 64.08 70.67 64.04 70.75 64 70.83 63.96 70.91 63.92 70.99 63.89 71.07 63.85 71.22 63.78 71.36 63.71 71.5 63.65 71.65 63.6 71.78 63.54 71.91 63.49 72.17 63.38 72.4 63.29 72.61 63.23 73.14 63.05 73.49 62.97 73.58 62.95L73.58 62.95C73.61 62.94 73.64 62.94 73.67 62.95 73.76 62.95 73.94 62.95 74.15 63.14 74.46 63.42 74.68 63.98 74.78 64.82 74.86 65.46 74.86 65.81 74.81 66.05 74.78 66.19 74.73 66.29 74.66 66.37 74.58 66.45 74.49 66.51 74.37 66.54L74.2 66.58 73.69 66.74C73.56 66.78 73.41 66.84 73.24 66.91 73.12 66.96 72.99 67.01 72.86 67.06L72.2 67.38C72.06 67.45 71.91 67.52 71.76 67.61 70.55 68.27 68.14 69.79 65.54 72.69 63.22 75.26 60.95 78.64 58.95 82.46L58.04 84.26C57.84 84.64 57.64 85.04 57.46 85.45L56 88.59 53 95.13C52.06 97.12 50.96 99.44 49.74 101.64 48.36 104.1 47.11 106.02 45.78 107.68 44.28 109.56 42.67 111.22 40.98 112.58 39.47 113.82 37.77 114.97 35.92 116.02 32.8 117.76 30.01 118.83 27.69 119.65 26.72 119.98 25.88 120.26 25.32 120.43L24.48 120.69C24.34 120.72 24.22 120.74 24.09 120.76 23.78 120.81 23.44 120.88 23.11 120.88ZM73.63 63.26C73.51 63.29 73.19 63.37 72.7 63.53 72.49 63.59 72.28 63.68 72.02 63.78 71.89 63.83 71.76 63.89 71.61 63.94 71.48 63.99 71.34 64.06 71.2 64.13 71.12 64.17 71.04 64.2 70.96 64.24 70.88 64.28 70.8 64.32 70.71 64.36 70.55 64.43 70.39 64.51 70.24 64.6 68.84 65.34 66.07 67.08 63.09 70.37 60.58 73.15 58.13 76.76 56 80.83 55.82 81.18 55.64 81.54 55.46 81.9 55.12 82.57 54.76 83.27 54.44 83.95L52.35 88.47 49.98 93.64C48.04 97.81 45.87 102.14 43.18 105.53 41.83 107.24 40.39 108.72 38.89 109.93 37.51 111.06 36.02 112.08 34.32 113.04 31.38 114.68 28.66 115.72 26.63 116.44L26.25 116.57C25.46 116.84 24.82 117.05 24.36 117.19 23.95 117.31 22.6 117.77 22.11 118.81 21.9 119.27 21.88 119.74 22.08 120.07 22.14 120.18 22.23 120.27 22.33 120.35 22.53 120.5 22.79 120.57 23.11 120.57 23.41 120.57 23.73 120.51 24.03 120.45 24.16 120.42 24.29 120.4 24.41 120.38L25.23 120.13C25.79 119.96 26.63 119.68 27.59 119.35 29.9 118.53 32.68 117.47 35.77 115.74 37.6 114.71 39.29 113.56 40.79 112.34 42.46 110.99 44.06 109.36 45.54 107.48 46.86 105.84 48.1 103.93 49.47 101.49 50.69 99.29 51.79 96.99 52.72 95L55.7 88.49 55.71 88.46 57.17 85.33C57.36 84.91 57.56 84.51 57.76 84.13L58.67 82.33C60.68 78.49 62.97 75.09 65.3 72.49 67.92 69.56 70.37 68.02 71.59 67.35 71.74 67.25 71.9 67.18 72.05 67.11L72.72 66.79C72.87 66.74 72.99 66.68 73.11 66.64 73.29 66.57 73.44 66.51 73.58 66.46L74.28 66.25C74.34 66.24 74.38 66.21 74.42 66.18 74.45 66.14 74.48 66.08 74.5 65.99 74.55 65.79 74.54 65.47 74.47 64.87 74.34 63.92 74.11 63.53 73.94 63.38 73.81 63.27 73.72 63.26 73.65 63.26 73.66 63.26 73.64 63.26 73.63 63.26Z" fill="#AB1F24"/></g></g></g><g><g><g><path d="M21.95 120.14C22.02 120.26 22.12 120.37 22.24 120.46 22.87 120.93 23.75 120.63 24.44 120.52 24.44 120.52 24.73 120.43 25.28 120.26 25.83 120.1 26.63 119.83 27.65 119.48 29.67 118.77 32.57 117.69 35.86 115.86 37.5 114.94 39.22 113.82 40.9 112.44 42.59 111.07 44.21 109.41 45.67 107.56 47.15 105.71 48.43 103.66 49.62 101.54 50.8 99.42 51.85 97.23 52.88 95.04 53.88 92.86 54.88 90.68 55.86 88.53 56.36 87.47 56.85 86.41 57.33 85.36 57.57 84.83 57.83 84.34 58.08 83.84 58.33 83.34 58.58 82.85 58.83 82.36 60.86 78.48 63.15 75.1 65.44 72.56 67.73 70.01 70.02 68.35 71.69 67.45 71.9 67.32 72.1 67.24 72.29 67.15 72.48 67.06 72.66 66.98 72.82 66.9 73.15 66.78 73.44 66.65 73.66 66.58 73.89 66.51 74.06 66.45 74.18 66.42 74.29 66.39 74.35 66.38 74.35 66.38 74.44 66.36 74.51 66.32 74.57 66.26 74.62 66.2 74.66 66.12 74.68 66 74.74 65.77 74.72 65.4 74.65 64.83 74.53 63.87 74.29 63.44 74.07 63.24 73.84 63.05 73.68 63.1 73.63 63.08 73.63 63.08 73.27 63.16 72.66 63.36 72.35 63.46 72 63.61 71.57 63.77 71.36 63.86 71.14 63.97 70.91 64.07 70.68 64.19 70.42 64.29 70.18 64.44 68.16 65.52 65.53 67.44 63 70.24 60.47 73.04 58.02 76.65 55.89 80.73 55.38 81.76 54.82 82.8 54.33 83.86 53.84 84.91 53.34 85.98 52.84 87.06 51.86 89.2 50.86 91.38 49.86 93.56 47.85 97.87 45.73 102.08 43.08 105.42 41.76 107.09 40.33 108.57 38.82 109.8 37.32 111.03 35.76 112.05 34.27 112.89 31.27 114.57 28.53 115.6 26.6 116.28 25.63 116.61 24.87 116.87 24.34 117.02 23.44 117.28 22.4 117.84 21.99 118.72 21.77 119.19 21.71 119.73 21.95 120.14Z" fill="#EB1C43"/><path d="M23.11 120.88 23.11 120.88C22.72 120.88 22.4 120.79 22.15 120.6 22.01 120.5 21.9 120.37 21.82 120.23 21.57 119.81 21.58 119.23 21.84 118.68 22.21 117.9 23.12 117.23 24.29 116.9 24.74 116.77 25.37 116.55 26.16 116.28L26.54 116.15C28.56 115.44 31.26 114.41 34.18 112.77 35.86 111.82 37.34 110.81 38.71 109.69 40.18 108.49 41.61 107.03 42.95 105.34 45.62 101.98 47.78 97.66 49.71 93.51L52.69 87.02 54.17 83.82C54.5 83.13 54.85 82.43 55.19 81.76 55.37 81.4 55.56 81.05 55.73 80.69 57.87 76.6 60.34 72.96 62.87 70.16 65.87 66.83 68.68 65.08 70.09 64.33 70.25 64.23 70.42 64.15 70.59 64.08 70.67 64.04 70.75 64 70.83 63.96 70.91 63.92 70.99 63.89 71.07 63.85 71.22 63.78 71.36 63.71 71.5 63.65 71.65 63.6 71.78 63.54 71.91 63.49 72.17 63.38 72.4 63.29 72.61 63.23 73.14 63.05 73.49 62.97 73.58 62.95L73.58 62.95C73.61 62.94 73.64 62.94 73.67 62.95 73.76 62.95 73.94 62.95 74.15 63.14 74.46 63.42 74.68 63.98 74.78 64.82 74.86 65.46 74.86 65.81 74.81 66.05 74.78 66.19 74.73 66.29 74.66 66.37 74.58 66.45 74.49 66.51 74.37 66.54L74.2 66.58 73.69 66.74C73.56 66.78 73.41 66.84 73.24 66.91 73.12 66.96 72.99 67.01 72.86 67.06L72.2 67.38C72.06 67.45 71.91 67.52 71.76 67.61 70.55 68.27 68.14 69.79 65.54 72.69 63.22 75.26 60.95 78.64 58.95 82.46L58.04 84.26C57.84 84.64 57.64 85.04 57.46 85.45L56 88.59 53 95.13C52.06 97.12 50.96 99.44 49.74 101.64 48.36 104.1 47.11 106.02 45.78 107.68 44.28 109.56 42.67 111.22 40.98 112.58 39.47 113.82 37.77 114.97 35.92 116.02 32.8 117.76 30.01 118.83 27.69 119.65 26.72 119.98 25.88 120.26 25.32 120.43L24.48 120.69C24.34 120.72 24.22 120.74 24.09 120.76 23.78 120.81 23.44 120.88 23.11 120.88ZM73.63 63.26C73.51 63.29 73.19 63.37 72.7 63.53 72.49 63.59 72.28 63.68 72.02 63.78 71.89 63.83 71.76 63.89 71.61 63.94 71.48 63.99 71.34 64.06 71.2 64.13 71.12 64.17 71.04 64.2 70.96 64.24 70.88 64.28 70.8 64.32 70.71 64.36 70.55 64.43 70.39 64.51 70.24 64.6 68.84 65.34 66.07 67.08 63.09 70.37 60.58 73.15 58.13 76.76 56 80.83 55.82 81.18 55.64 81.54 55.46 81.9 55.12 82.57 54.76 83.27 54.44 83.95L52.35 88.47 49.98 93.64C48.04 97.81 45.87 102.14 43.18 105.53 41.83 107.24 40.39 108.72 38.89 109.93 37.51 111.06 36.02 112.08 34.32 113.04 31.38 114.68 28.66 115.72 26.63 116.44L26.25 116.57C25.46 116.84 24.82 117.05 24.36 117.19 23.95 117.31 22.6 117.77 22.11 118.81 21.9 119.27 21.88 119.74 22.08 120.07 22.14 120.18 22.23 120.27 22.33 120.35 22.53 120.5 22.79 120.57 23.11 120.57 23.41 120.57 23.73 120.51 24.03 120.45 24.16 120.42 24.29 120.4 24.41 120.38L25.23 120.13C25.79 119.96 26.63 119.68 27.59 119.35 29.9 118.53 32.68 117.47 35.77 115.74 37.6 114.71 39.29 113.56 40.79 112.34 42.46 110.99 44.06 109.36 45.54 107.48 46.86 105.84 48.1 103.93 49.47 101.49 50.69 99.29 51.79 96.99 52.72 95L55.7 88.49 55.71 88.46 57.17 85.33C57.36 84.91 57.56 84.51 57.76 84.13L58.67 82.33C60.68 78.49 62.97 75.09 65.3 72.49 67.92 69.56 70.37 68.02 71.59 67.35 71.74 67.25 71.9 67.18 72.05 67.11L72.72 66.79C72.87 66.74 72.99 66.68 73.11 66.64 73.29 66.57 73.44 66.51 73.58 66.46L74.28 66.25C74.34 66.24 74.38 66.21 74.42 66.18 74.45 66.14 74.48 66.08 74.5 65.99 74.55 65.79 74.54 65.47 74.47 64.87 74.34 63.92 74.11 63.53 73.94 63.38 73.81 63.27 73.72 63.26 73.65 63.26 73.66 63.26 73.64 63.26 73.63 63.26Z" fill="#AB1F24"/></g></g></g><g><g><g opacity="0.5"><path d="M72.46 64.15C68.32 65.95 65.83 68.07 63.29 70.87 60.76 73.66 58.31 77.28 56.18 81.36 55.67 82.39 55.11 83.43 54.62 84.49 54.13 85.55 53.63 86.61 53.13 87.69 52.15 89.83 51.15 92.01 50.15 94.18 48.14 98.49 46.02 102.7 43.37 106.04 42.04 107.71 40.62 109.19 39.11 110.41 37.61 111.64 36.06 112.66 34.56 113.51 31.56 115.19 28.14 116.53 25.52 117.41 25.52 117.41 35.63 115.98 43.8 106.89 43.8 106.89 46.91 103.01 50.85 94.69 54.83 86.26 61.4 73.46 64.94 69.92 68.62 66.26 72.46 64.15 72.46 64.15Z" fill="#FFFFFF"/></g></g></g><g><g><g opacity="0.5"><path d="M46.72 62.32C42.58 64.11 40.09 66.24 37.56 69.04 35.03 71.84 32.58 75.45 30.44 79.53 29.93 80.56 29.37 81.6 28.88 82.66 28.39 83.71 27.89 84.78 27.39 85.86 26.41 88 25.44 90.74 24.45 92.92 22.44 97.23 20.65 100.76 18 104.1 16.67 105.77 14.94 107.3 13.33 108.39 11.6 109.56 10.74 110.17 9.24 111.02 6.24 112.7 4.81 113.09 2.19 113.97 2.19 113.97 9.32 113.3 18.07 105.08 18.07 105.08 22.36 100.45 25.17 93.04 30.64 78.65 35.67 71.65 39.21 68.11 42.88 64.42 46.72 62.32 46.72 62.32Z" fill="#FFFFFF"/></g></g></g><g><path d="M1.2 117.42C1.2 117.42-0.15 115.7 0.25 114.19 0.25 114.19 1.42 113.38 2.08 114.82 2.74 116.26 11.68 120.64 20.11 118.45 20.11 118.45 23.68 116.46 24.55 117.74 25.42 119.02 24.13 120.94 23.22 120.96 22.1 120.97 7.07 121.04 1.2 117.42Z" fill="#EB1C43"/><path d="M22.58 121.11C19.96 121.11 6.6 120.94 1.12 117.56 1.1 117.55 1.09 117.54 1.08 117.52 1.02 117.45-0.32 115.72 0.1 114.15 0.11 114.12 0.13 114.09 0.16 114.06 0.18 114.05 0.53 113.81 0.98 113.81 1.35 113.81 1.86 113.97 2.22 114.76 2.71 115.82 8.47 118.9 15.2 118.9 16.89 118.9 18.52 118.7 20.05 118.3 20.27 118.18 22.18 117.15 23.53 117.15 24.07 117.15 24.45 117.32 24.68 117.65 25.1 118.26 25.1 119.1 24.68 119.9 24.31 120.61 23.73 121.09 23.23 121.1 23.12 121.11 22.9 121.11 22.58 121.11ZM1.31 117.31C6.74 120.64 19.98 120.81 22.59 120.81 22.9 120.81 23.12 120.81 23.22 120.8 23.6 120.79 24.1 120.36 24.41 119.76 24.77 119.06 24.78 118.34 24.43 117.82 24.27 117.58 23.97 117.46 23.54 117.46 22.22 117.46 20.21 118.57 20.19 118.58 20.18 118.59 20.17 118.59 20.15 118.59 18.6 119 16.93 119.2 15.21 119.2 8.43 119.2 2.52 116.13 1.95 114.88 1.71 114.37 1.39 114.11 0.99 114.11 0.72 114.11 0.49 114.23 0.39 114.28 0.07 115.61 1.16 117.11 1.31 117.31Z" fill="#AB1F24"/></g><g><path d="M47.07 66.58C47.07 66.58 39.72 72.03 35.84 80.09 31.96 88.16 46.49 90.78 52.9 83.64 52.9 83.64 57.8 72.99 64.75 67.43 64.75 67.43 65.46 67.12 64.75 66.41 64.03 65.7 57.87 66.51 53.21 65.61 49.19 64.84 49.19 64.84 47.07 66.58Z" fill="#FBBB7E"/></g></g></g><g><rect x="78.47" y="23.85" width="0.87" height="32.27" fill="#44C7F4"/></g><g><path d="M103.85 4.93C100.07 0.98 94.91-0.33 92.03 0.31L60.32 6.11 60.95 5.77C74.07 4.95 76.48 22.39 76.48 22.39L107.53 18.1C107.53 18.1 108.34 18.25 108.34 17.33 108.35 16.42 108.35 9.63 103.85 4.93Z" fill="#EB1C43"/><path d="M76.48 22.98C76.45 22.98 76.41 22.75 76.39 22.73 76.36 22.7 76.33 22.56 76.33 22.52 76.31 22.36 73.97 6.36 62.31 5.95L60.35 6.28C60.27 6.29 60.2 6.24 60.18 6.17 60.16 6.1 60.19 6.01 60.25 5.98L60.89 5.63C60.91 5.62 60.93 5.61 60.95 5.61 61.4 5.58 61.86 5.57 62.29 5.59L92 0.15C92.47 0.05 93 0 93.57 0 96.24 0 100.56 1.26 103.96 4.82 108.17 9.22 108.5 15.51 108.5 17.33 108.5 18.19 107.86 18.26 107.66 18.26 107.6 18.26 107.56 18.47 107.53 18.47L76.5 22.97 76.48 22.97ZM63.48 5.69C73.81 7 76.35 20.62 76.61 22.22L107.51 17.95C107.53 17.95 107.54 17.95 107.56 17.95 107.56 17.95 107.6 17.96 107.66 17.96 108.01 17.96 108.19 17.75 108.19 17.34 108.19 15.54 107.87 9.36 103.74 5.04 100.4 1.54 96.18 0.3 93.57 0.3 93.02 0.3 92.52 0.35 92.06 0.45L63.48 5.69Z" fill="#AB1F24"/></g><g><path d="M106.89 18C106.08 17.34 105.94 16.27 105.74 15.3 105.45 13.83 105.22 12.34 104.76 10.91 104.33 9.59 103.68 8.29 102.89 7.15 101.28 4.81 99.05 3.1 96.47 1.94 95.27 1.41 93.76 0.79 92.43 0.71 91.55 0.66 90.59 0.94 89.72 0.72L62.29 5.75C74.24 6.15 76.48 22.39 76.48 22.39L107.13 18.16C107.05 18.11 106.97 18.06 106.89 18Z" fill="#941A27"/></g><g><path d="M60.95 5.77 60.32 6.11 62.29 5.75C61.86 5.73 61.41 5.74 60.95 5.77Z" fill="#941A27"/></g><g><path d="M100.55 5.51C96.77 1.58 91.6 0.28 88.71 0.91L56.95 5.26 57.2 5.68C59.06 5 61.24 5.11 63.12 5.51 65.68 6.05 68.12 7.18 69.97 9.06 73.08 12.2 74.45 16.48 75.48 20.72 75.91 21.75 76.11 22.39 76.11 22.39L104.25 18.61C104.25 18.61 105.07 18.76 105.07 17.85 105.05 16.94 105.05 10.18 100.55 5.51Z" fill="#FBED21"/><path d="M76.1 22.54C76.03 22.54 75.97 22.5 75.95 22.43 75.95 22.43 75.74 21.78 75.32 20.78 74.31 16.59 72.95 12.3 69.85 9.17 68.15 7.45 65.81 6.24 63.08 5.66 60.86 5.19 58.82 5.24 57.25 5.82 57.18 5.85 57.1 5.82 57.06 5.75L56.81 5.33C56.78 5.29 56.78 5.23 56.81 5.19 56.83 5.15 56.88 5.11 56.93 5.11L88.69 0.77C89.15 0.67 89.68 0.62 90.25 0.62 92.92 0.62 97.25 1.88 100.66 5.41 104.88 9.78 105.2 16.04 105.2 17.85 105.2 18.2 105.09 18.46 104.88 18.62 104.71 18.75 104.5 18.78 104.36 18.78L104.36 18.78C104.3 18.78 104.26 18.77 104.23 18.77L76.11 22.55C76.11 22.54 76.1 22.54 76.1 22.54ZM60.21 5.04C61.13 5.04 62.12 5.15 63.14 5.36 65.93 5.95 68.33 7.2 70.07 8.96 73.22 12.15 74.6 16.48 75.61 20.69 75.92 21.44 76.12 21.99 76.2 22.22L104.21 18.46C104.22 18.46 104.24 18.46 104.26 18.46 104.26 18.46 104.3 18.47 104.36 18.47L104.36 18.47C104.45 18.47 104.59 18.45 104.7 18.37 104.83 18.27 104.9 18.1 104.9 17.85 104.9 16.07 104.58 9.91 100.44 5.62 97.1 2.15 92.86 0.92 90.25 0.92 89.7 0.92 89.19 0.97 88.74 1.07L59.57 5.06C59.78 5.04 59.99 5.04 60.21 5.04ZM57.2 5.38 57.27 5.5C57.54 5.41 57.82 5.33 58.11 5.26L57.2 5.38Z" fill="#F79720"/></g><g><path d="M70.08 9.19C76.41 8.18 95.55 4.58 98.81 3.96 98.19 3.49 97.56 3.07 96.92 2.7 93.66 3.29 74.58 6.69 68.29 7.67 68.88 8.08 69.45 8.54 69.96 9.06 70 9.11 70.04 9.15 70.08 9.19Z" fill="#F4F5C9"/></g><g><path d="M74.33 16.67C74.78 18 75.14 19.36 75.47 20.72 75.9 21.75 76.1 22.39 76.1 22.39L104.24 18.61C104.24 18.61 105.06 18.76 105.06 17.85 105.06 17.31 105.06 14.7 104.11 11.69 99.57 12.45 75.71 16.4 74.33 16.67Z" fill="#F6D02B"/></g><g><path d="M94.14 0.54C94.14 0.54 102.09 1.58 105.44 7.7 108.37 13.06 107.78 17.7 107.78 17.7 107.78 17.7 107.51 9.85 103.15 5.49 99.51 1.87 94.14 0.54 94.14 0.54Z" fill="#FFFFFF"/></g></g><g opacity="0.5"><path d="M99.94 86.25C99.95 86.24 99.97 86.22 99.98 86.21 100.05 86.13 100.11 86.05 100.18 85.97 100.18 85.97 100.18 85.97 100.18 85.97 100.24 85.89 100.3 85.8 100.36 85.72 100.37 85.71 100.38 85.69 100.39 85.68 100.51 85.5 100.61 85.32 100.7 85.13 100.7 85.12 100.71 85.11 100.71 85.1 100.8 84.91 100.87 84.71 100.92 84.51 100.92 84.5 100.99 84.5 100.99 84.49 101.04 84.29 101.15 84.09 101.15 83.89 101.15 83.89 101.15 83.88 101.15 83.88 101.15 83.68 101.08 83.48 101.03 83.29 101.03 83.29 101 83.29 101 83.28 100.87 82.69 100.46 82.16 99.71 81.83 98.6 81.33 96.43 80.89 95.23 81.2 94.18 81.48 93.4 82.49 93.04 83.65 93.04 83.66 93.03 83.66 93.03 83.67 92.99 83.81 92.95 83.95 92.92 84.09 92.92 84.1 92.91 84.12 92.91 84.13 92.88 84.26 92.86 84.39 92.84 84.52 92.84 84.55 92.83 84.57 92.83 84.6 92.82 84.72 92.81 84.84 92.8 84.96 92.8 85 92.8 85.03 92.8 85.06 92.8 85.17 92.8 85.27 92.81 85.38 92.81 85.42 92.81 85.46 92.82 85.5 92.83 85.6 92.84 85.7 92.86 85.79 92.87 85.83 92.87 85.88 92.88 85.92 92.9 86.02 92.93 86.11 92.95 86.2 92.96 86.24 92.97 86.28 92.98 86.31 93.02 86.44 93.07 86.55 93.13 86.67 94.1 88.55 97.18 87.84 98.68 87.2 98.76 87.16 98.85 87.12 98.93 87.08 98.95 87.07 98.97 87.06 98.99 87.05 99.07 87 99.15 86.95 99.23 86.9 99.23 86.9 99.23 86.9 99.24 86.89 99.32 86.84 99.39 86.78 99.47 86.72 99.49 86.71 99.51 86.69 99.52 86.68 99.6 86.62 99.67 86.55 99.74 86.48 99.74 86.48 99.74 86.48 99.75 86.47 99.81 86.4 99.87 86.33 99.94 86.25Z" fill="#873F1F"/></g><g opacity="0.5"><path d="M121.04 107.19C121.04 107.19 121.04 107.19 121.04 107.19 121.09 107.12 121.14 107.06 121.19 106.99 121.2 106.98 121.2 106.97 121.21 106.96 121.3 106.82 121.38 106.67 121.45 106.52 121.46 106.51 121.46 106.5 121.46 106.49 121.53 106.34 121.59 106.18 121.63 106.02 121.63 106.01 121.82 106.01 121.82 106 121.86 105.84 122.08 105.68 122.08 105.52 122.08 105.52 122.08 105.51 122.08 105.51 122.08 105.35 121.89 105.2 121.85 105.05 121.85 105.05 121.57 105.11 121.56 105.11 121.54 105.04 121.25 104.96 121.25 104.96L121.23 104.96 121.23 104.96C121.23 104.96 120.96 104.19 120.46 103.96 119.58 103.56 117.94 103.15 116.98 103.41 116.25 103.6 115.77 104.96 115.44 104.96L115.44 104.96C115.44 104.96 115.44 104.98 115.44 104.98 115.39 105.09 115.35 105.21 115.32 105.33 115.32 105.34 115.32 105.35 115.32 105.35 115.29 105.46 115.26 105.57 115.23 105.68 115.23 105.69 115.22 105.71 115.22 105.72 115.2 105.82 115.18 105.93 115.16 106.03 115.16 106.05 115.16 106.07 115.15 106.09 115.14 106.19 115.13 106.28 115.13 106.38 115.13 106.41 115.13 106.43 115.13 106.46 115.13 106.55 115.13 106.63 115.14 106.72 115.14 106.75 115.14 106.78 115.14 106.81 115.15 106.89 115.16 106.97 115.17 107.04 115.18 107.07 115.18 107.11 115.19 107.14 115.2 107.22 115.23 107.29 115.25 107.36 115.26 107.39 115.27 107.42 115.28 107.45 115.32 107.55 115.35 107.65 115.4 107.74 116.17 109.24 118.62 108.67 119.82 108.16 119.89 108.13 119.95 108.1 120.02 108.06 120.04 108.05 120.05 108.04 120.07 108.03 120.14 107.99 120.2 107.95 120.26 107.91 120.26 107.91 120.26 107.91 120.26 107.91 120.32 107.87 120.38 107.82 120.44 107.77 120.45 107.76 120.47 107.75 120.48 107.74 120.54 107.69 120.6 107.64 120.66 107.58 120.66 107.58 120.66 107.58 120.67 107.57 120.72 107.52 120.78 107.46 120.83 107.4 120.84 107.39 120.85 107.38 120.86 107.36 120.93 107.32 120.99 107.25 121.04 107.19Z" fill="#873F1F"/></g><g opacity="0.5"><path d="M89.94 68.3C89.94 68.3 89.83 68.42 89.83 68.42 89.81 68.34 89.63 68.33 89.63 68.33L89.64 68.33 89.64 68.33C89.64 68.33 89.39 67.49 88.89 67.27 88.01 66.87 86.38 66.5 85.43 66.75 84.7 66.94 84.23 67.46 83.9 68.33L83.7 68.33 83.7 68.35C83.7 68.46 83.72 68.52 83.68 68.64 83.68 68.65 83.73 68.63 83.73 68.63 83.7 68.74 83.69 68.83 83.67 68.95 83.67 68.96 83.68 68.97 83.67 68.98 83.65 69.08 83.64 69.18 83.62 69.29 83.62 69.31 83.62 69.33 83.62 69.35 83.61 69.45 83.6 69.54 83.6 69.64 83.6 69.67 83.6 69.69 83.6 69.72 83.6 69.81 83.6 69.89 83.61 69.98 83.61 70.01 83.61 70.04 83.61 70.07 83.62 70.15 83.63 70.23 83.64 70.3 83.65 70.33 83.65 70.37 83.66 70.4 83.68 70.48 83.7 70.55 83.72 70.62 83.73 70.65 83.74 70.68 83.75 70.71 83.78 70.81 83.82 70.91 83.87 71 84.64 72.5 87.09 71.93 88.29 71.42 88.36 71.39 88.42 71.36 88.49 71.32 88.51 71.31 88.52 71.3 88.54 71.29 88.61 71.25 88.67 71.21 88.73 71.17L88.74 71.17C88.8 71.13 88.86 71.08 88.92 71.03 88.93 71.02 88.95 71.01 88.96 71 89.02 70.95 89.08 70.9 89.14 70.84 89.14 70.84 89.15 70.84 89.15 70.83 89.21 70.78 89.26 70.72 89.31 70.66 89.32 70.65 89.33 70.64 89.34 70.62 89.39 70.56 89.45 70.5 89.5 70.43L89.5 70.43C89.55 70.36 89.6 70.3 89.64 70.23 89.65 70.22 89.66 70.21 89.66 70.2 89.75 70.06 89.83 69.91 89.9 69.76 89.9 69.75 89.91 69.74 89.91 69.73 89.98 69.58 90.04 69.42 90.08 69.26 90.08 69.25 89.91 69.25 89.91 69.24 89.95 69.08 89.81 68.92 89.81 68.77 89.81 68.76 89.81 68.76 89.81 68.76 89.81 68.61 89.97 68.45 89.94 68.3Z" fill="#873F1F"/></g><g opacity="0.5"><path d="M114.35 88.2C114.36 88.2 114.36 88.19 114.36 88.17 114.36 88.17 114.29 88.16 114.3 88.15 114.3 88.14 114.23 88.12 114.23 88.1 114.23 88.09 114.23 88.09 114.23 88.08 114.23 88.05 114.29 88.02 114.29 87.98 114.29 87.97 114.32 87.97 114.32 87.96 114.32 87.93 114.33 87.9 114.32 87.87 114.32 87.86 114.32 87.85 114.32 87.83 114.32 87.8 114.32 87.77 114.31 87.74 114.31 87.73 114.31 87.68 114.31 87.67 114.3 87.64 114.3 87.54 114.3 87.54L114.29 87.54C114.27 87.54 114.25 87.42 114.24 87.4 114.11 87.06 113.72 86.89 113.41 86.77 112.91 86.57 112.36 86.42 111.83 86.37 111.24 86.31 110.7 86.12 110.1 86.28 109.79 86.36 109.52 86.53 109.28 86.76 109.24 86.8 109.2 86.84 109.16 86.88 109.13 86.91 109.1 86.94 109.08 86.98 109.05 87.02 109.02 87.06 108.99 87.1 108.96 87.13 108.94 87.17 108.91 87.21 108.88 87.25 108.85 87.3 108.83 87.34 108.81 87.38 108.79 87.41 108.76 87.45 108.73 87.5 108.7 87.56 108.67 87.61 108.65 87.65 108.63 87.69 108.62 87.73 108.59 87.8 108.55 87.88 108.53 87.96 108.52 88 108.5 88.03 108.49 88.07 108.47 88.13 108.45 88.18 108.44 88.24 108.43 88.28 108.42 88.32 108.41 88.36 108.4 88.42 108.38 88.48 108.37 88.54 108.36 88.58 108.36 88.62 108.35 88.65 108.34 88.72 108.33 88.78 108.32 88.85 108.32 88.88 108.31 88.91 108.31 88.94 108.3 89.03 108.3 89.13 108.3 89.22 108.3 89.24 108.3 89.27 108.3 89.29 108.3 89.36 108.3 89.43 108.31 89.5 108.31 89.53 108.32 89.56 108.32 89.59 108.33 89.65 108.34 89.71 108.35 89.77 108.36 89.8 108.36 89.83 108.37 89.86 108.38 89.92 108.4 89.98 108.42 90.03 108.43 90.06 108.44 90.08 108.44 90.11 108.47 90.19 108.5 90.27 108.54 90.34 109.26 91.74 111.54 91.21 112.66 90.73 113.59 90.33 114.32 89.49 114.34 88.45 114.34 88.4 114.34 88.34 114.33 88.29 114.34 88.29 114.35 88.29 114.36 88.28 114.41 88.27 114.37 88.2 114.35 88.2Z" fill="#873F1F"/></g><g opacity="0.5"><path d="M107.73 72.73C108.36 72.15 108.68 71.32 108.39 70.4 108.03 69.24 106.92 67.33 105.88 66.64 104.97 66.04 103.7 66.14 102.6 66.63 102.6 66.63 102.59 66.64 102.58 66.64 102.45 66.7 102.32 66.76 102.19 66.83 102.18 66.84 102.16 66.84 102.15 66.85 102.03 66.92 101.92 66.99 101.81 67.06 101.79 67.07 101.77 67.09 101.75 67.1 101.65 67.17 101.55 67.24 101.46 67.32 101.43 67.34 101.41 67.36 101.38 67.38 101.3 67.45 101.22 67.52 101.14 67.6 101.11 67.63 101.08 67.65 101.06 67.68 100.99 67.75 100.93 67.83 100.87 67.9 100.84 67.93 100.82 67.97 100.79 68 100.73 68.08 100.68 68.16 100.63 68.24 100.61 68.27 100.59 68.3 100.57 68.34 100.5 68.45 100.45 68.57 100.4 68.69 99.96 69.83 100.68 70.92 101.47 71.69 102.1 72.3 102.85 72.68 103.64 73.04 104.65 73.51 105.52 73.75 106.6 73.38 107.04 73.25 107.42 73.02 107.73 72.73Z" fill="#873F1F"/></g><g opacity="0.5"><path d="M106.74 101.19C106.75 101.19 106.76 101.18 106.77 101.18 106.8 101.17 106.57 101.1 106.55 101.11 106.56 101.11 106.38 101.1 106.38 101.08 106.38 101.08 106.38 101.07 106.38 101.06 106.38 101.05 106.55 101.03 106.55 101.01 106.55 101 106.64 101 106.63 100.99 106.62 100.96 106.66 100.93 106.64 100.9 106.64 100.9 106.66 100.89 106.66 100.89 106.65 100.86 106.65 100.83 106.63 100.8 106.63 100.79 106.63 100.78 106.62 100.77 106.61 100.74 106.59 100.71 106.58 100.67 106.58 100.67 106.64 100.66 106.63 100.66 106.62 100.63 106.64 100.6 106.64 100.57L106.64 100.57C106.64 100.49 106.51 100.43 106.49 100.4 106.28 100.1 105.83 100.02 105.5 99.97 104.97 99.89 104.38 99.87 103.85 99.94 103.26 100.02 102.68 99.96 102.14 100.26 101.89 100.4 101.68 100.59 101.51 100.82L101.51 100.82 101.51 100.82C101.49 100.85 101.47 100.88 101.45 100.91 101.42 100.96 101.39 101 101.36 101.05 101.34 101.09 101.32 101.13 101.3 101.16 101.28 101.2 101.26 101.25 101.24 101.29 101.22 101.33 101.21 101.37 101.19 101.41 101.17 101.46 101.15 101.51 101.14 101.56 101.13 101.6 101.11 101.64 101.1 101.68 101.08 101.74 101.07 101.8 101.06 101.86 101.05 101.9 101.04 101.95 101.03 101.99 101.02 102.07 101 102.15 100.99 102.23 100.99 102.27 100.98 102.31 100.98 102.35 100.98 102.41 100.97 102.47 100.97 102.53 100.97 102.57 100.97 102.61 100.97 102.65 100.97 102.71 100.97 102.77 100.97 102.83 100.97 102.87 100.97 102.91 100.98 102.94 100.98 103.01 100.99 103.08 101 103.14 101 103.17 101.01 103.19 101.01 103.22 101.02 103.31 101.04 103.41 101.07 103.5 101.07 103.52 101.08 103.54 101.09 103.56 101.11 103.63 101.13 103.7 101.15 103.77 101.16 103.8 101.17 103.83 101.18 103.86 101.2 103.91 101.22 103.97 101.25 104.03 101.26 104.06 101.28 104.09 101.29 104.11 101.32 104.17 101.35 104.22 101.38 104.27 101.39 104.29 101.41 104.32 101.42 104.34 101.47 104.41 101.52 104.48 101.57 104.54 102.6 105.73 104.69 104.67 105.66 103.94 106.47 103.33 106.97 102.34 106.75 101.32 106.78 101.29 106.76 101.24 106.74 101.19Z" fill="#873F1F"/></g><g><g><g><path d="M98.67 86.26C100.66 85.41 102.27 82.07 99.69 80.9 98.58 80.4 96.42 79.95 95.22 80.27 93.22 80.8 92.22 83.99 93.12 85.73 94.09 87.62 97.16 86.91 98.67 86.26Z" fill="#19BAED"/><path d="M95.58 87.1 95.58 87.1C94.32 87.1 93.42 86.65 92.98 85.8 92.48 84.83 92.52 83.4 93.08 82.15 93.55 81.1 94.32 80.36 95.18 80.13 95.46 80.06 95.8 80.02 96.2 80.02 97.46 80.02 98.94 80.4 99.76 80.77 100.69 81.19 101.19 81.94 101.18 82.89 101.16 84.26 100.07 85.84 98.73 86.41 98.35 86.57 96.99 87.1 95.58 87.1ZM96.2 80.33C95.83 80.33 95.52 80.37 95.26 80.43 94.48 80.64 93.79 81.31 93.36 82.28 92.85 83.43 92.81 84.8 93.25 85.67 93.63 86.42 94.42 86.8 95.57 86.8L95.57 86.8C96.93 86.8 98.24 86.28 98.61 86.13 99.82 85.61 100.86 84.13 100.87 82.89 100.88 82.31 100.67 81.52 99.63 81.05 98.84 80.69 97.41 80.33 96.2 80.33Z" fill="#3B6AB2"/></g><g><path d="M100.88 82.08C100.59 83.37 99.05 84.37 98.06 82.98 97.67 82.43 97.47 81.76 96.63 81.83 96.03 81.88 95.64 82.26 95.44 82.81 95.14 83.62 95.1 84.49 94.81 85.29 94.78 85.36 94.73 85.39 94.66 85.4 93.14 85.59 92.82 83.94 93.19 82.29 92.71 83.43 92.64 84.79 93.12 85.73 94.09 87.61 97.17 86.9 98.67 86.26 100.18 85.62 101.46 83.56 100.88 82.08Z" fill="#19BAED"/></g><g><path d="M97.4 82.78C97.4 83.21 97.02 83.56 96.55 83.56 96.08 83.56 95.7 83.21 95.7 82.78 95.7 82.35 96.08 81.99 96.55 81.99 97.02 81.99 97.4 82.35 97.4 82.78Z" fill="#00557F"/></g><g><path d="M97.16 83C97.16 83.31 96.89 83.56 96.56 83.56 96.23 83.56 95.96 83.31 95.96 83 95.96 82.69 96.23 82.44 96.56 82.44 96.89 82.44 97.16 82.7 97.16 83Z" fill="#042641"/></g><g><path d="M94.1 81.83C94.1 81.83 94.48 80.58 96.55 80.56 98.62 80.54 100.02 81.58 100.02 81.58 100.02 81.58 96.7 80.24 94.1 81.83Z" fill="#19BAED"/></g></g><g><g><path d="M119.84 107.24C121.42 106.56 122.71 103.91 120.65 102.97 119.77 102.57 118.04 102.22 117.09 102.47 115.49 102.89 114.71 105.43 115.42 106.82 116.19 108.32 118.64 107.75 119.84 107.24Z" fill="#A0CEEE"/><path d="M117.38 107.94 117.38 107.94C116.36 107.94 115.64 107.58 115.29 106.89 114.89 106.11 114.92 104.96 115.37 103.95 115.75 103.1 116.37 102.51 117.06 102.32 117.29 102.26 117.56 102.23 117.88 102.23 118.89 102.23 120.07 102.53 120.73 102.83 121.48 103.17 121.89 103.78 121.88 104.55 121.87 105.65 120.99 106.92 119.91 107.38 119.6 107.51 118.51 107.94 117.38 107.94ZM117.87 102.54C117.58 102.54 117.33 102.57 117.13 102.62 116.52 102.78 115.98 103.31 115.64 104.08 115.24 104.99 115.2 106.06 115.56 106.75 115.86 107.34 116.47 107.63 117.38 107.63L117.38 107.63C118.45 107.63 119.49 107.22 119.79 107.1 120.74 106.69 121.56 105.52 121.57 104.55 121.58 103.9 121.24 103.41 120.6 103.11 119.97 102.83 118.83 102.54 117.87 102.54Z" fill="#0E94D2"/></g><g><path d="M121.6 103.91C121.37 104.94 120.14 105.74 119.35 104.63 119.04 104.19 118.88 103.66 118.21 103.71 117.73 103.75 117.42 104.05 117.26 104.49 117.02 105.13 116.99 105.83 116.76 106.47 116.74 106.53 116.7 106.55 116.64 106.56 115.43 106.71 115.18 105.4 115.47 104.09 115.09 105 115.03 106.08 115.41 106.83 116.18 108.33 118.63 107.77 119.83 107.25 121.04 106.73 122.06 105.08 121.6 103.91Z" fill="#19BAED"/></g><g><path d="M118.83 104.46C118.83 104.81 118.53 105.09 118.16 105.09 117.79 105.09 117.49 104.81 117.49 104.46 117.49 104.12 117.79 103.84 118.16 103.84 118.53 103.84 118.83 104.12 118.83 104.46Z" fill="#00557F"/></g><g><path d="M118.64 104.64C118.64 104.89 118.42 105.09 118.16 105.09 117.89 105.09 117.68 104.89 117.68 104.64 117.68 104.39 117.89 104.2 118.16 104.2 118.42 104.2 118.64 104.39 118.64 104.64Z" fill="#042641"/></g><g><path d="M116.2 103.7C116.2 103.7 116.5 102.71 118.16 102.69 119.81 102.67 120.92 103.5 120.92 103.5 120.92 103.5 118.27 102.44 116.2 103.7Z" fill="#E8ECF6"/></g></g><g><g><path d="M119.84 107.24C121.42 106.56 122.71 103.91 120.65 102.97 119.77 102.57 118.04 102.22 117.09 102.47 115.49 102.89 114.71 105.43 115.42 106.82 116.19 108.32 118.64 107.75 119.84 107.24Z" fill="#2084AF"/><path d="M117.38 107.94 117.38 107.94C116.36 107.94 115.64 107.58 115.29 106.89 114.89 106.11 114.92 104.96 115.37 103.95 115.75 103.1 116.37 102.51 117.06 102.32 117.29 102.26 117.56 102.23 117.88 102.23 118.89 102.23 120.07 102.53 120.73 102.83 121.48 103.17 121.89 103.78 121.88 104.55 121.87 105.65 120.99 106.92 119.91 107.38 119.6 107.51 118.51 107.94 117.38 107.94ZM117.87 102.54C117.58 102.54 117.33 102.57 117.13 102.62 116.52 102.78 115.98 103.31 115.64 104.08 115.24 104.99 115.2 106.06 115.56 106.75 115.86 107.34 116.47 107.63 117.38 107.63L117.38 107.63C118.45 107.63 119.49 107.22 119.79 107.1 120.74 106.69 121.56 105.52 121.57 104.55 121.58 103.9 121.24 103.41 120.6 103.11 119.97 102.83 118.83 102.54 117.87 102.54Z" fill="#19598B"/></g><g><path d="M121.6 103.91C121.37 104.94 120.14 105.74 119.35 104.63 119.04 104.19 118.88 103.66 118.21 103.71 117.73 103.75 117.42 104.05 117.26 104.49 117.02 105.13 116.99 105.83 116.76 106.47 116.74 106.53 116.7 106.55 116.64 106.56 115.43 106.71 115.18 105.4 115.47 104.09 115.09 105 115.03 106.08 115.41 106.83 116.18 108.33 118.63 107.77 119.83 107.25 121.04 106.73 122.06 105.08 121.6 103.91Z" fill="#19BAED"/></g><g><path d="M118.83 104.46C118.83 104.81 118.53 105.09 118.16 105.09 117.79 105.09 117.49 104.81 117.49 104.46 117.49 104.12 117.79 103.84 118.16 103.84 118.53 103.84 118.83 104.12 118.83 104.46Z" fill="#00557F"/></g><g><path d="M118.64 104.64C118.64 104.89 118.42 105.09 118.16 105.09 117.89 105.09 117.68 104.89 117.68 104.64 117.68 104.39 117.89 104.2 118.16 104.2 118.42 104.2 118.64 104.39 118.64 104.64Z" fill="#042641"/></g><g><path d="M116.2 103.7C116.2 103.7 116.5 102.71 118.16 102.69 119.81 102.67 120.92 103.5 120.92 103.5 120.92 103.5 118.27 102.44 116.2 103.7Z" fill="#E8ECF6"/></g></g><g><g><path d="M88.28 70.47C89.86 69.79 91.14 67.14 89.09 66.2 88.21 65.8 86.48 65.45 85.53 65.7 83.93 66.12 83.14 68.66 83.86 70.05 84.63 71.55 87.08 70.99 88.28 70.47Z" fill="#EB1C43"/><path d="M85.82 71.17 85.82 71.17C84.8 71.17 84.08 70.81 83.72 70.12 83.32 69.34 83.35 68.19 83.8 67.18 84.18 66.33 84.79 65.74 85.49 65.55 85.72 65.49 85.99 65.46 86.31 65.46 87.31 65.46 88.5 65.76 89.16 66.06 89.91 66.4 90.32 67.01 90.31 67.78 90.3 68.88 89.41 70.15 88.34 70.61 88.04 70.74 86.95 71.17 85.82 71.17ZM86.31 65.77C86.02 65.77 85.77 65.8 85.57 65.85 84.96 66.01 84.42 66.54 84.08 67.31 83.68 68.22 83.64 69.29 84 69.98 84.3 70.57 84.92 70.86 85.82 70.86L85.82 70.86C86.89 70.86 87.93 70.45 88.23 70.32 89.18 69.91 90 68.74 90.01 67.77 90.02 67.12 89.68 66.63 89.04 66.33 88.41 66.06 87.27 65.77 86.31 65.77Z" fill="#AB1F24"/></g><g><path d="M90.04 67.14C89.81 68.17 88.58 68.97 87.79 67.86 87.48 67.42 87.32 66.89 86.65 66.94 86.17 66.98 85.86 67.29 85.7 67.72 85.46 68.36 85.43 69.06 85.2 69.7 85.18 69.76 85.14 69.78 85.08 69.79 83.87 69.94 83.62 68.63 83.91 67.32 83.53 68.23 83.47 69.31 83.85 70.06 84.62 71.56 87.07 71 88.27 70.48 89.48 69.96 90.5 68.31 90.04 67.14Z" fill="#82431D"/></g><g><path d="M87.27 67.7C87.27 68.04 86.97 68.33 86.6 68.33 86.23 68.33 85.93 68.05 85.93 67.7 85.93 67.35 86.23 67.07 86.6 67.07 86.97 67.07 87.27 67.35 87.27 67.7Z" fill="#00557F"/></g><g><path d="M87.08 67.88C87.08 68.12 86.86 68.33 86.6 68.33 86.34 68.33 86.12 68.13 86.12 67.88 86.12 67.63 86.33 67.43 86.6 67.43 86.87 67.43 87.08 67.63 87.08 67.88Z" fill="#042641"/></g><g><path d="M84.64 66.94C84.64 66.94 84.94 65.95 86.6 65.93 88.25 65.91 89.36 66.74 89.36 66.74 89.36 66.74 86.72 65.67 84.64 66.94Z" fill="#E8ECF6"/></g></g><g><g><path d="M112.67 89.8C113.6 89.4 114.32 88.56 114.35 87.52 114.35 87.46 114.35 87.41 114.35 87.36 114.36 87.36 114.37 87.36 114.38 87.35 114.41 87.35 114.38 87.27 114.35 87.27 114.42 87.26 114.29 86.63 114.25 86.52 114.12 86.18 113.73 86 113.42 85.87 112.92 85.67 112.37 85.51 111.84 85.46 111.25 85.39 110.71 85.21 110.11 85.36 108.62 85.76 107.89 88.12 108.55 89.41 109.27 90.81 111.55 90.28 112.67 89.8Z" fill="#F393BD"/><path d="M110.38 90.46 110.38 90.46C109.43 90.46 108.75 90.12 108.42 89.48 108.05 88.75 108.08 87.68 108.49 86.74 108.84 85.95 109.42 85.39 110.07 85.22 110.48 85.11 110.96 85.17 111.4 85.24 111.55 85.27 111.7 85.29 111.86 85.31 112.37 85.36 112.93 85.51 113.48 85.73 113.85 85.88 114.24 86.08 114.4 86.46 114.4 86.47 114.55 86.97 114.53 87.23 114.54 87.26 114.55 87.29 114.55 87.31 114.55 87.35 114.54 87.39 114.51 87.43 114.51 87.46 114.51 87.48 114.51 87.51 114.48 88.55 113.8 89.47 112.74 89.93 112.45 90.06 111.43 90.46 110.38 90.46ZM110.61 85.46C110.45 85.46 110.3 85.48 110.15 85.52 109.58 85.67 109.08 86.16 108.77 86.87 108.39 87.72 108.36 88.71 108.69 89.35 108.97 89.89 109.54 90.16 110.38 90.16L110.38 90.16C111.38 90.16 112.34 89.78 112.62 89.66 113.58 89.25 114.19 88.43 114.21 87.51 114.21 87.46 114.21 87.41 114.21 87.37 114.21 87.35 114.21 87.33 114.22 87.31 114.22 87.3 114.22 87.29 114.22 87.28 114.22 87.25 114.23 87.23 114.24 87.2 114.24 87.07 114.16 86.66 114.13 86.58 114.02 86.3 113.69 86.14 113.38 86.02 112.85 85.81 112.32 85.67 111.84 85.62 111.68 85.6 111.52 85.58 111.36 85.55 111.09 85.5 110.85 85.46 110.61 85.46Z" fill="#CB569F"/></g><g><path d="M112.67 89.8C113.6 89.4 114.32 88.56 114.35 87.52 114.35 87.46 114.35 87.41 114.35 87.36 114.36 87.36 114.37 87.36 114.38 87.35 114.41 87.35 114.38 87.27 114.35 87.27 114.42 87.26 114.29 86.63 114.25 86.52 114.12 86.18 113.73 86 113.42 85.87 112.92 85.67 112.37 85.51 111.84 85.46 111.25 85.39 110.71 85.21 110.11 85.36 108.62 85.76 107.89 88.12 108.55 89.41 109.27 90.81 111.55 90.28 112.67 89.8Z" fill="#F393BD"/><path d="M110.38 90.46 110.38 90.46C109.43 90.46 108.75 90.12 108.42 89.48 108.05 88.75 108.08 87.68 108.49 86.74 108.84 85.95 109.42 85.39 110.07 85.22 110.48 85.11 110.96 85.17 111.4 85.24 111.55 85.27 111.7 85.29 111.86 85.31 112.37 85.36 112.93 85.51 113.48 85.73 113.85 85.88 114.24 86.08 114.4 86.46 114.4 86.47 114.55 86.97 114.53 87.23 114.54 87.26 114.55 87.29 114.55 87.31 114.55 87.35 114.54 87.39 114.51 87.43 114.51 87.46 114.51 87.48 114.51 87.51 114.48 88.55 113.8 89.47 112.74 89.93 112.45 90.06 111.43 90.46 110.38 90.46ZM110.61 85.46C110.45 85.46 110.3 85.48 110.15 85.52 109.58 85.67 109.08 86.16 108.77 86.87 108.39 87.72 108.36 88.71 108.69 89.35 108.97 89.89 109.54 90.16 110.38 90.16L110.38 90.16C111.38 90.16 112.34 89.78 112.62 89.66 113.58 89.25 114.19 88.43 114.21 87.51 114.21 87.46 114.21 87.41 114.21 87.37 114.21 87.35 114.21 87.33 114.22 87.31 114.22 87.3 114.22 87.29 114.22 87.28 114.22 87.25 114.23 87.23 114.24 87.2 114.24 87.07 114.16 86.66 114.13 86.58 114.02 86.3 113.69 86.14 113.38 86.02 112.85 85.81 112.32 85.67 111.84 85.62 111.68 85.6 111.52 85.58 111.36 85.55 111.09 85.5 110.85 85.46 110.61 85.46Z" fill="#CB569F"/></g><g><path d="M114.35 87.28C114.4 87.27 114.35 86.94 114.29 86.71 113.9 87.17 113.4 87.55 112.86 87.72 112.4 87.87 112.07 87.41 111.67 87.29 110.67 87.01 110.17 87.78 110.13 88.67 110.12 88.81 109.97 88.87 109.87 88.78 109.41 88.38 109.26 87.95 109.47 87.36 109.59 87.03 110.03 86.05 109.55 85.82 109.49 85.79 109.43 85.77 109.37 85.76 108.4 86.59 108.01 88.36 108.55 89.4 109.27 90.8 111.55 90.27 112.67 89.79 113.6 89.39 114.32 88.55 114.35 87.51 114.35 87.45 114.35 87.4 114.35 87.35 114.36 87.35 114.37 87.35 114.38 87.34 114.41 87.35 114.38 87.27 114.35 87.28Z" fill="#F393BD"/></g><g><path d="M112.11 88.29C112.11 88.72 111.73 89.07 111.26 89.07 110.79 89.07 110.41 88.72 110.41 88.29 110.41 87.86 110.79 87.51 111.26 87.51 111.73 87.51 112.11 87.86 112.11 88.29Z" fill="#F5B7D2"/></g><g><path d="M111.86 88.52C111.86 88.83 111.59 89.08 111.26 89.08 110.93 89.08 110.66 88.83 110.66 88.52 110.66 88.21 110.93 87.96 111.26 87.96 111.59 87.96 111.86 88.21 111.86 88.52Z" fill="#BB4C81"/></g><g><path d="M110.41 85.77C110.41 85.77 112.81 86.06 113.55 86.38 114.3 86.7 111.51 86.94 110.41 85.77Z" fill="#F393BD"/></g></g><g><g><path d="M103.73 72.28C105.69 73.2 109.25 72.18 108.41 69.48 108.05 68.32 106.93 66.41 105.9 65.72 104.17 64.58 101.13 65.96 100.43 67.78 99.66 69.76 102.24 71.58 103.73 72.28Z" fill="#B2B734"/><path d="M105.33 72.76 105.33 72.76C104.71 72.76 104.14 72.64 103.66 72.42 102.14 71.71 99.48 69.81 100.28 67.73 100.82 66.33 102.7 65.15 104.39 65.15 105 65.15 105.53 65.3 105.98 65.59 107.1 66.32 108.21 68.32 108.55 69.43 108.8 70.22 108.7 70.94 108.27 71.51 107.71 72.28 106.58 72.76 105.33 72.76ZM104.39 65.46C102.81 65.46 101.06 66.55 100.56 67.84 99.84 69.71 102.35 71.47 103.78 72.14 104.22 72.35 104.75 72.46 105.32 72.46L105.32 72.46C106.47 72.46 107.5 72.03 108.01 71.34 108.38 70.83 108.46 70.22 108.24 69.53 107.9 68.45 106.81 66.52 105.79 65.85 105.42 65.59 104.94 65.46 104.39 65.46Z" fill="#469E46"/></g><g><path d="M108.32 71.14C107.16 71.78 105.39 71.3 105.77 69.63 105.92 68.97 106.29 68.38 105.68 67.8 105.24 67.39 104.7 67.35 104.15 67.56 103.35 67.87 102.67 68.42 101.88 68.74 101.81 68.77 101.75 68.75 101.7 68.7 100.55 67.69 101.57 66.35 103.04 65.53 101.87 65.93 100.8 66.78 100.42 67.76 99.66 69.74 102.24 71.56 103.72 72.26 105.2 72.97 107.6 72.55 108.32 71.14Z" fill="#95C950"/></g><g><path d="M105.48 69.01C105.16 69.3 104.64 69.25 104.33 68.9 104.02 68.55 104.03 68.03 104.35 67.75 104.67 67.46 105.19 67.51 105.5 67.86 105.81 68.21 105.8 68.72 105.48 69.01Z" fill="#00557F"/></g><g><path d="M105.15 68.98C104.92 69.19 104.55 69.15 104.33 68.9 104.11 68.65 104.12 68.28 104.34 68.08 104.57 67.87 104.94 67.91 105.16 68.16 105.39 68.4 105.38 68.77 105.15 68.98Z" fill="#042641"/></g><g><path d="M103.99 65.91C103.99 65.91 105.18 65.37 106.57 66.9 107.97 68.43 108.12 70.17 108.12 70.17 108.12 70.17 106.91 66.79 103.99 65.91Z" fill="#19BAED"/></g></g><g><g><path d="M105.7 103.04C106.51 102.43 107.01 101.44 106.79 100.42 106.78 100.36 106.76 100.31 106.75 100.26 106.76 100.26 106.77 100.25 106.78 100.25 106.81 100.24 106.76 100.17 106.74 100.18 106.8 100.16 106.53 99.57 106.46 99.47 106.25 99.17 105.83 99.09 105.5 99.04 104.97 98.97 104.4 98.94 103.87 99.01 103.28 99.09 102.71 99.04 102.16 99.33 100.81 100.06 100.66 102.54 101.61 103.63 102.63 104.82 104.73 103.77 105.7 103.04Z" fill="#F393BD"/><path d="M102.87 104.32 102.87 104.32C102.29 104.32 101.82 104.12 101.49 103.73 100.95 103.11 100.73 102.06 100.91 101.05 101.07 100.2 101.49 99.52 102.09 99.2 102.52 98.97 102.96 98.94 103.38 98.91 103.53 98.9 103.69 98.89 103.84 98.87 104.34 98.81 104.93 98.82 105.51 98.9 105.9 98.96 106.34 99.06 106.57 99.4 106.57 99.4 106.83 99.86 106.88 100.11 106.91 100.14 106.92 100.17 106.93 100.21 106.94 100.24 106.93 100.28 106.91 100.32 106.92 100.35 106.92 100.37 106.93 100.4 107.15 101.41 106.71 102.48 105.78 103.17 105.08 103.7 103.88 104.32 102.87 104.32ZM104.54 99.13C104.31 99.13 104.09 99.14 103.88 99.17 103.72 99.19 103.56 99.2 103.4 99.21 102.99 99.24 102.6 99.27 102.23 99.47 101.72 99.75 101.34 100.35 101.21 101.11 101.05 102.02 101.25 102.99 101.72 103.54 102 103.86 102.39 104.02 102.87 104.02L102.87 104.02C103.8 104.02 104.93 103.43 105.6 102.92 106.43 102.3 106.83 101.35 106.64 100.46 106.63 100.41 106.61 100.37 106.6 100.32 106.59 100.3 106.59 100.28 106.59 100.26 106.59 100.25 106.58 100.25 106.58 100.24 106.57 100.21 106.57 100.18 106.58 100.15 106.55 100.02 106.37 99.65 106.32 99.57 106.15 99.33 105.79 99.25 105.46 99.2 105.16 99.15 104.84 99.13 104.54 99.13Z" fill="#CB569F"/></g><g><path d="M105.7 103.04C106.51 102.43 107.01 101.44 106.79 100.42 106.78 100.36 106.76 100.31 106.75 100.26 106.76 100.26 106.77 100.25 106.78 100.25 106.81 100.24 106.76 100.17 106.74 100.18 106.8 100.16 106.53 99.57 106.46 99.47 106.25 99.17 105.83 99.09 105.5 99.04 104.97 98.97 104.4 98.94 103.87 99.01 103.28 99.09 102.71 99.04 102.16 99.33 100.81 100.06 100.66 102.54 101.61 103.63 102.63 104.82 104.73 103.77 105.7 103.04Z" fill="#FDE045"/><path d="M102.87 104.32 102.87 104.32C102.29 104.32 101.82 104.12 101.49 103.73 100.95 103.11 100.73 102.06 100.91 101.05 101.07 100.2 101.49 99.52 102.09 99.2 102.52 98.97 102.96 98.94 103.38 98.91 103.53 98.9 103.69 98.89 103.84 98.87 104.34 98.81 104.93 98.82 105.51 98.9 105.9 98.96 106.34 99.06 106.57 99.4 106.57 99.4 106.83 99.86 106.88 100.11 106.91 100.14 106.92 100.17 106.93 100.21 106.94 100.24 106.93 100.28 106.91 100.32 106.92 100.35 106.92 100.37 106.93 100.4 107.15 101.41 106.71 102.48 105.78 103.17 105.08 103.7 103.88 104.32 102.87 104.32ZM104.54 99.13C104.31 99.13 104.09 99.14 103.88 99.17 103.72 99.19 103.56 99.2 103.4 99.21 102.99 99.24 102.6 99.27 102.23 99.47 101.72 99.75 101.34 100.35 101.21 101.11 101.05 102.02 101.25 102.99 101.72 103.54 102 103.86 102.39 104.02 102.87 104.02L102.87 104.02C103.8 104.02 104.93 103.43 105.6 102.92 106.43 102.3 106.83 101.35 106.64 100.46 106.63 100.41 106.61 100.37 106.6 100.32 106.59 100.3 106.59 100.28 106.59 100.26 106.59 100.25 106.58 100.25 106.58 100.24 106.57 100.21 106.57 100.18 106.58 100.15 106.55 100.02 106.37 99.65 106.32 99.57 106.15 99.33 105.79 99.25 105.46 99.2 105.16 99.15 104.84 99.13 104.54 99.13Z" fill="#D99C28"/></g><g><path d="M106.74 100.19C106.78 100.18 106.65 99.86 106.55 99.65 106.28 100.19 105.89 100.68 105.4 100.97 104.99 101.22 104.56 100.85 104.14 100.84 103.11 100.8 102.8 101.67 102.97 102.55 103 102.68 102.86 102.78 102.74 102.72 102.2 102.43 101.94 102.05 102.01 101.43 102.05 101.08 102.25 100.02 101.73 99.92 101.67 99.91 101.6 99.9 101.54 99.9 100.8 100.94 100.84 102.74 101.61 103.63 102.64 104.82 104.73 103.76 105.7 103.04 106.51 102.43 107.01 101.44 106.79 100.42 106.78 100.36 106.76 100.31 106.75 100.26 106.76 100.26 106.77 100.25 106.78 100.25 106.81 100.24 106.76 100.18 106.74 100.19Z" fill="#FBB865"/></g><g><path d="M104.79 101.71C104.89 102.13 104.61 102.56 104.15 102.67 103.69 102.78 103.24 102.53 103.14 102.11 103.04 101.69 103.32 101.26 103.78 101.15 104.24 101.04 104.69 101.29 104.79 101.71Z" fill="#F5B7D2"/></g><g><path d="M104.61 101.98C104.68 102.28 104.48 102.59 104.16 102.67 103.83 102.75 103.51 102.57 103.44 102.27 103.37 101.97 103.57 101.66 103.89 101.58 104.22 101.51 104.54 101.69 104.61 101.98Z" fill="#BB4C81"/></g><g><path d="M102.55 99.65C102.55 99.65 104.95 99.36 105.75 99.5 106.55 99.64 103.9 100.54 102.55 99.65Z" fill="#F393BD"/></g></g></g></g><g><g><path d="M46.98 21.31 73.36 22.67C73.36 22.67 75.42 17.25 71.67 11.62 67.93 5.99 47.08 1.79 46.98 21.31Z" fill="#B2B734"/><path d="M74.11 22.84 46.2 21.46 46.2 21.31C46.2 8.18 55.7 6.76 59.63 6.76 64.5 6.76 70.11 8.86 71.89 11.53 75.64 17.16 74.11 22.67 74.11 22.72L74.11 22.84ZM47.14 21.17 73.25 22.51C73.51 21.73 74.91 16.77 71.54 11.71 69.81 9.11 64.71 7.08 59.93 7.08 56.12 7.08 47.27 8.45 47.14 21.17Z" fill="#469E46"/></g><g><path d="M54.75 10.2C57.21 8.26 60.3 7.83 63.4 7.7 64.03 7.67 64.67 7.68 65.31 7.72 57.85 5.51 47.05 7.28 46.97 21.32L49.6 21.46C49.78 20.34 49.6 14.25 54.75 10.2Z" fill="#B2B734"/></g><g><g><g><path d="M75.02 22.63C75.82 22.61 76.32 22.51 76.63 22.35 76.63 22.35 76.62 22.15 76.61 21.79 76.6 21.42 76.55 20.89 76.5 20.21 76.47 19.87 76.41 19.49 76.36 19.08 76.3 18.67 76.22 18.22 76.13 17.75 75.93 16.8 75.67 15.74 75.25 14.6 74.83 13.46 74.28 12.26 73.51 11.06 72.75 9.87 71.76 8.7 70.55 7.7 69.35 6.68 67.9 5.87 66.35 5.31 64.79 4.77 63.13 4.48 61.49 4.46 59.85 4.44 58.22 4.65 56.7 5.06 56.32 5.16 55.94 5.26 55.55 5.4L54.97 5.6C54.78 5.68 54.59 5.75 54.41 5.83 54.03 5.97 53.68 6.17 53.32 6.35 52.97 6.54 52.63 6.75 52.29 6.96 50.98 7.83 49.85 8.89 48.97 10 48.09 11.12 47.41 12.26 46.89 13.36 45.86 15.55 45.4 17.49 45.14 18.85 45.01 19.53 44.94 20.07 44.9 20.44 44.86 20.81 44.84 21.02 44.84 21.02 44.81 21.31 45.12 21.54 46.3 21.58 48.27 21.65 48.22 21.4 48.27 21.36 48.27 21.36 48.29 21.2 48.32 20.89 48.36 20.58 48.42 20.12 48.53 19.53 48.75 18.37 49.15 16.69 50 14.88 50.84 13.08 52.18 11.17 54.16 9.87 54.41 9.71 54.66 9.56 54.93 9.41 55.2 9.28 55.46 9.12 55.75 9.02L56.18 8.84C56.32 8.78 56.47 8.74 56.62 8.69 56.77 8.64 56.91 8.59 57.07 8.55L57.55 8.42C58.82 8.08 60.14 7.91 61.44 7.92 62.74 7.92 64.02 8.15 65.2 8.56 66.37 8.98 67.45 9.58 68.36 10.35 70.2 11.86 71.36 13.9 72.04 15.77 72.37 16.71 72.6 17.61 72.77 18.42 72.84 18.83 72.91 19.21 72.97 19.57 73.02 19.93 73.06 20.26 73.09 20.55 73.14 21.15 73.19 21.62 73.19 21.95 73.2 22.27 73.21 22.45 73.21 22.45 73.52 22.58 74.11 22.66 75.02 22.63Z" fill="#EB1C43"/><path d="M74.69 22.79C73.97 22.79 73.44 22.71 73.12 22.57 73.07 22.54 73.03 22.49 73.03 22.43L73.01 21.93C73.01 21.7 72.98 21.4 72.95 21.02L72.91 20.54 72.79 19.56C72.75 19.29 72.7 19.01 72.64 18.71L72.59 18.42C72.38 17.43 72.15 16.59 71.86 15.8 71.29 14.25 70.19 12.06 68.23 10.45 67.36 9.71 66.31 9.16 65.12 8.73 63.9 8.31 62.65 8.14 61.42 8.14L61.3 8.14C60.05 8.14 58.8 8.27 57.57 8.59L57.09 8.7C56.99 8.73 56.91 8.75 56.82 8.78 56.76 8.8 56.71 8.82 56.65 8.83 56.6 8.85 56.54 8.87 56.48 8.88 56.39 8.91 56.3 8.94 56.22 8.97L55.8 9.16C55.62 9.23 55.46 9.31 55.29 9.4 55.19 9.45 55.09 9.5 54.99 9.55 54.73 9.7 54.48 9.84 54.25 10 52.12 11.4 50.84 13.46 50.15 14.95 49.48 16.38 49.01 17.89 48.69 19.56 48.61 20.02 48.54 20.46 48.49 20.91L48.44 21.38C48.44 21.42 48.42 21.45 48.4 21.48 48.28 21.64 48.04 21.81 46.31 21.75 45.48 21.72 45.02 21.61 44.82 21.38 44.73 21.28 44.69 21.16 44.7 21.02 44.7 21.02 44.72 20.82 44.76 20.44 44.82 19.9 44.9 19.38 45 18.83 45.25 17.55 45.7 15.59 46.77 13.31 47.35 12.08 48.06 10.94 48.87 9.92 49.8 8.75 50.96 7.68 52.23 6.84 52.51 6.66 52.88 6.43 53.27 6.22 53.37 6.17 53.47 6.12 53.56 6.07 53.82 5.94 54.09 5.8 54.38 5.69L54.94 5.46 55.53 5.26C55.87 5.14 56.21 5.05 56.54 4.96L56.69 5.09C58.21 4.69 59.78 4.66 61.35 4.66L61.53 4.66C63.18 4.66 64.88 4.79 66.44 5.34 68.02 5.91 69.49 6.66 70.69 7.67 71.86 8.64 72.87 9.74 73.68 11.02 74.37 12.09 74.96 13.27 75.44 14.56 75.88 15.77 76.14 16.88 76.32 17.72L76.4 18.14C76.46 18.46 76.51 18.76 76.55 19.05L76.6 19.45C76.63 19.71 76.67 19.96 76.69 20.19L76.72 20.52C76.77 21.06 76.8 21.48 76.81 21.79L76.83 22.35C76.83 22.41 76.8 22.47 76.74 22.49 76.38 22.67 75.84 22.76 75.06 22.78 74.91 22.79 74.8 22.79 74.69 22.79ZM73.34 22.32C73.56 22.4 73.96 22.48 74.69 22.48 74.79 22.48 74.9 22.48 75.01 22.48 75.67 22.46 76.15 22.39 76.47 22.26L76.45 21.81C76.45 21.51 76.41 21.09 76.37 20.56L76.34 20.24C76.32 20.02 76.29 19.77 76.25 19.52L76.2 19.12C76.16 18.84 76.11 18.54 76.05 18.22L75.98 17.8C75.8 16.98 75.54 15.87 75.11 14.68 74.64 13.41 74.06 12.23 73.38 11.18 72.58 9.92 71.59 8.8 70.45 7.85 69.28 6.86 67.84 6.04 66.3 5.49 64.77 4.95 63.11 4.66 61.49 4.65L61.31 4.65C59.77 4.65 58.23 4.85 56.74 5.24L56.6 5.26C56.26 5.35 55.95 5.43 55.61 5.55L55.03 5.75 54.48 5.98C54.21 6.09 53.94 6.22 53.69 6.35 53.59 6.4 53.49 6.45 53.4 6.5 53.02 6.7 52.66 6.93 52.39 7.1 51.15 7.92 50.02 8.96 49.11 10.11 48.32 11.11 47.62 12.23 47.05 13.44 46 15.69 45.55 17.63 45.31 18.89 45.21 19.42 45.13 19.94 45.07 20.47 45.02 20.84 45.01 21.04 45.01 21.04 45 21.09 45.01 21.13 45.05 21.16 45.14 21.27 45.44 21.4 46.31 21.43 47.8 21.48 48.08 21.34 48.13 21.3L48.17 20.87C48.22 20.41 48.29 19.97 48.38 19.5 48.7 17.8 49.18 16.26 49.86 14.81 50.57 13.29 51.89 11.17 54.07 9.73 54.31 9.57 54.56 9.42 54.84 9.27 54.95 9.22 55.04 9.17 55.14 9.12 55.31 9.03 55.49 8.94 55.68 8.87L56.1 8.7C56.19 8.66 56.29 8.63 56.39 8.6 56.44 8.58 56.5 8.56 56.55 8.55 56.61 8.53 56.66 8.51 56.72 8.49 56.81 8.46 56.91 8.42 57.01 8.4L57.48 8.03C58.73 7.69 60.02 7.29 61.29 7.29L61.41 7.29C62.68 7.29 63.96 7.75 65.21 8.17 66.44 8.62 67.52 9.35 68.42 10.11 70.44 11.76 71.56 14.06 72.15 15.65 72.44 16.46 72.68 17.34 72.89 18.35L72.94 18.65C72.99 18.95 73.04 19.25 73.09 19.52L73.21 20.51 73.26 21C73.29 21.38 73.32 21.69 73.32 21.92L73.34 22.32Z" fill="#AB1F24"/></g></g></g><g><g><g><path d="M58.87 4.99C62.25 4.88 65.43 5.33 68.23 7.23 70.75 8.94 72.98 11.66 74.09 14.53 75.07 17.06 75.7 19.88 75.45 22.62 76.01 22.58 76.38 22.49 76.64 22.37 76.64 22.37 76.63 22.17 76.62 21.81 76.61 21.44 76.56 20.91 76.51 20.23 76.48 19.89 76.42 19.51 76.37 19.1 76.31 18.69 76.23 18.24 76.14 17.77 75.94 16.82 75.68 15.76 75.26 14.62 74.84 13.48 74.29 12.28 73.52 11.08 72.76 9.89 71.77 8.72 70.56 7.72 69.36 6.7 67.91 5.89 66.36 5.33 64.8 4.79 63.14 4.5 61.5 4.48 59.86 4.46 58.23 4.67 56.71 5.08 56.33 5.18 55.95 5.28 55.56 5.42L54.98 5.62C54.79 5.7 54.6 5.77 54.42 5.85 54.04 5.99 53.69 6.19 53.33 6.37 52.98 6.56 52.64 6.77 52.3 6.98 52.06 7.14 51.84 7.3 51.61 7.47 53.89 6.22 56.26 5.08 58.87 4.99Z" fill="#941A27"/></g><g><path d="M60.22 7.63C57.49 7.64 54.79 8.59 52.61 10.23 50.06 12.15 48.39 14.79 47.83 17.94 47.66 18.9 47.57 19.94 47.24 20.86 47.13 21.15 46.91 21.44 46.63 21.59 48.27 21.63 48.22 21.4 48.28 21.36 48.28 21.36 48.3 21.2 48.33 20.89 48.37 20.58 48.43 20.12 48.54 19.53 48.76 18.37 49.16 16.69 50.01 14.88 50.85 13.08 52.19 11.17 54.17 9.87 54.42 9.71 54.67 9.56 54.94 9.41 55.21 9.28 55.47 9.12 55.76 9.02L56.19 8.84C56.33 8.78 56.48 8.74 56.63 8.69 56.78 8.64 56.92 8.59 57.08 8.55L57.56 8.42C58.83 8.08 60.15 7.91 61.45 7.92 61.94 7.92 62.42 7.95 62.9 8.02 62.04 7.76 61.16 7.62 60.22 7.63Z" fill="#941A27"/></g></g></g><g><path d="M60.45 4.95C60.45 4.95 52.26 5.34 48.53 11.31 45.26 16.53 45.53 21.32 45.53 21.32 45.53 21.32 46.01 13.52 50.88 9.28 54.93 5.75 60.45 4.95 60.45 4.95Z" fill="#FFFFFF"/></g></g></g></g></svg>