<svg width="46.72" height="65.81" viewBox="0 0 46.72 65.81" xmlns="http://www.w3.org/2000/svg" xmlns:xlink="http://www.w3.org/1999/xlink" xml:space="preserve" overflow="hidden"><defs></defs><g><linearGradient x1="0.0828" y1="60.0703" x2="46.7179" y2="60.0703" gradientUnits="userSpaceOnUse" id="SVGID_1_"><stop offset="0" stop-color="#82D9C8"/><stop offset="1" stop-color="#6EDECC"/></linearGradient><linearGradient x1="-4.4882" y1="38.8953" x2="25.7179" y2="12.1555" gradientUnits="userSpaceOnUse" id="SVGID_2_"><stop offset="0" stop-color="#F2C8A5"/><stop offset="1" stop-color="#F1AB8C"/></linearGradient><linearGradient x1="3.353" y1="30.0554" x2="14.7321" y2="19.9821" gradientUnits="userSpaceOnUse" id="SVGID_3_"><stop offset="0" stop-color="#F2C8A5"/><stop offset="1" stop-color="#F1AB8C"/></linearGradient><linearGradient x1="9.2632" y1="36.7775" x2="20.6578" y2="26.6905" gradientUnits="userSpaceOnUse" id="SVGID_4_"><stop offset="0" stop-color="#F2C8A5"/><stop offset="1" stop-color="#F1AB8C"/></linearGradient><linearGradient x1="-2.6811" y1="23.254" x2="8.7064" y2="13.1733" gradientUnits="userSpaceOnUse" id="SVGID_5_"><stop offset="0" stop-color="#F2C8A5"/><stop offset="1" stop-color="#F1AB8C"/></linearGradient><linearGradient x1="10.1449" y1="-1.7456" x2="6.4062" y2="12.9002" gradientUnits="userSpaceOnUse" id="SVGID_6_"><stop offset="0.00501953" stop-color="#FF7139"/><stop offset="0.995" stop-color="#FF632B"/></linearGradient><linearGradient x1="-2.8832" y1="23.0083" x2="8.4907" y2="12.9396" gradientUnits="userSpaceOnUse" id="SVGID_7_"><stop offset="0" stop-color="#F2C8A5"/><stop offset="1" stop-color="#F1AB8C"/></linearGradient><linearGradient x1="103.384" y1="-329.924" x2="37.3311" y2="-71.1757" gradientUnits="userSpaceOnUse" id="SVGID_8_"><stop offset="0.00501953" stop-color="#FF7139"/><stop offset="0.995" stop-color="#FF632B"/></linearGradient><linearGradient x1="69.7753" y1="-196.343" x2="28.8909" y2="-36.1865" gradientUnits="userSpaceOnUse" id="SVGID_11_"><stop offset="0.00501953" stop-color="#FF7139"/><stop offset="0.995" stop-color="#FF632B"/></linearGradient><path d="M0.1 59.56C0.52 62.27 9.08 65.1 13.29 63.95 13.29 63.95 19.97 67.2 26.47 65.1 32.96 63 37.74 60.9 37.74 60.9 37.74 60.9 46.53 62.05 46.72 58.61 46.91 55.17 34.3 54.02 20.74 54.41 7.17 54.78-0.28 57.08 0.1 59.56Z" fill="url(#SVGID_1_)" opacity="0.4"/><path d="M36.21 54.12C34.45 53.06 30.72 52.87 27.04 52.35 26.11 52.22 25.16 52.13 24.27 52.05 22.8 51.93 21.45 51.87 20.56 51.85 19.86 51.84 19.45 51.84 19.45 51.84 19.45 51.84 18.93 51.21 17.78 48.96 16.63 46.72 15.72 43.86 15.72 43.86 15.72 43.86 14.96 43.76 13.28 44.14 11.61 44.52 11.08 44.96 11.08 44.96 11.08 44.96 10.94 44.4 10.75 43.58 10.46 42.33 10.06 40.45 9.85 38.99 9.51 36.56 11.62 34.3 12.1 33.94 12.24 33.82 12.38 33.74 12.53 33.66 13.11 33.63 13.67 33.58 14.2 33.5 16.58 33.13 19.26 31.74 21.11 29.87 21.17 29.84 21.22 29.81 21.27 29.78 22.75 28.97 24.18 29.82 26.43 31.73 28.67 33.64 32.35 38.42 34.12 43.19 35.46 46.84 35.98 51.29 36.15 53.19 36.19 53.78 36.21 54.12 36.21 54.12Z" fill="#0B3531"/><path d="M20.55 51.84C19.85 51.83 19.44 51.83 19.44 51.83 19.44 51.83 18.92 51.2 17.77 48.95 16.62 46.71 15.71 43.85 15.71 43.85 15.71 43.85 14.95 43.75 13.27 44.13 11.6 44.51 11.07 44.95 11.07 44.95 11.07 44.95 10.93 44.39 10.74 43.57 11.15 43.42 11.88 43.13 12.75 42.99 13.9 42.8 15.34 42.8 15.34 42.8 15.34 42.8 14.29 39.53 14.05 38.33 14.15 38.59 15.85 42.9 17.06 44.47 18.3 46.1 20.45 48.1 20.45 48.1L20.55 51.84Z" fill="#0B3531" opacity="0.4"/><path d="M36.21 54.12C34.45 53.06 30.72 52.87 27.04 52.35 26.11 52.22 25.16 52.13 24.27 52.05L25.85 48.96C28.04 49.54 30.81 49.97 33.01 51.17 34.22 51.83 35.36 52.62 36.15 53.19 36.19 53.78 36.21 54.12 36.21 54.12Z" fill="#0B3531" opacity="0.3"/><g><path d="M39.64 55.23C39.81 55.99 38.41 57.33 36.71 58.56 35.17 59.68 33.22 60.55 32.09 60.94 30.15 61.62 25.7 62.71 22.69 61.8L22.68 61.8C21.96 61.59 21.35 61.3 20.85 60.96 20.27 60.58 19.83 60.13 19.53 59.63 19.28 59.22 19.13 58.8 19.07 58.36 19 57.82 19.08 57.26 19.3 56.69 19.78 55.45 22 54.2 24.12 53.34 25.1 52.94 26.06 52.62 26.8 52.42 27.16 52.32 27.46 52.25 27.7 52.21 27.74 52.19 27.81 52.19 27.85 52.19 30.76 51.8 36.15 53.69 36.15 53.69 36.15 53.69 38.65 54 39.43 54.85 39.55 54.96 39.62 55.09 39.64 55.23Z" fill="#1CBCB4"/><path d="M39.64 55.23C39.81 55.99 38.41 57.33 36.71 58.56 35.17 59.68 33.22 60.55 32.09 60.94 30.15 61.62 25.69 62.71 22.69 61.8 21.15 61.33 20.1 60.56 19.53 59.63 19.28 59.22 19.13 58.8 19.07 58.36 20.81 59.29 26.78 60.19 29.37 59.65 32.19 59.08 38.02 55.97 38.02 55.97L39.44 54.84C39.55 54.96 39.62 55.09 39.64 55.23Z" fill="#1CBCB4" opacity="0.5"/></g><g><path d="M27.86 52.19C27.82 52.2 27.75 52.2 27.71 52.21 25.88 52.51 20.11 54.6 19.3 56.69 19.19 56.98 19.11 57.26 19.08 57.54 18.99 58.25 19.12 58.94 19.49 59.56 19.38 59.69 19.29 59.79 19.21 59.89 18.38 60.1 16.15 60.68 13.9 61.08 12.68 61.3 11.44 61.48 10.43 61.52 7.04 61.67 3.31 61.52 2.4 59.76 2.24 59.44 2.15 59.11 2.14 58.76 2.04 57.18 3.54 55.32 7.19 53.6 9.86 52.33 13.46 51.82 16.22 51.63L17.47 51.57C17.76 51.56 18.03 51.55 18.28 51.55L18.29 51.55C19.11 51.53 19.75 51.56 20.09 51.58 21.77 51.71 26.77 52.1 27.86 52.19Z" fill="#1CBCB4"/><path d="M19.49 59.56C19.38 59.69 19.29 59.79 19.21 59.89 18.38 60.1 16.15 60.68 13.9 61.08 12.68 61.3 11.44 61.48 10.43 61.52 7.04 61.67 3.31 61.52 2.4 59.76 2.24 59.44 2.15 59.11 2.14 58.76 3.42 59.64 5.07 60.06 7.56 60.14 9.35 60.2 12.34 59.62 14.44 59.15 15.12 59 15.71 58.85 16.13 58.75 16.57 58.64 16.83 58.57 16.83 58.57L17.97 58.06 19.1 57.55C18.99 58.25 19.12 58.94 19.49 59.56Z" fill="#1CBCB4" opacity="0.5"/></g><path d="M27.86 52.19C27.82 52.2 27.75 52.2 27.71 52.21 25.88 52.51 20.11 54.6 19.3 56.69 19.19 56.98 19.11 57.26 19.08 57.54 18.99 58.25 19.12 58.94 19.49 59.56 19.38 59.69 19.29 59.79 19.21 59.89 18.38 60.1 16.15 60.68 13.9 61.08 14.05 60.6 14.24 59.92 14.44 59.14 15.11 56.54 15.95 52.82 16.21 51.63L17.46 51.57C17.53 52.23 17.63 53.63 17.5 55.27 17.39 56.61 16.69 57.9 16.13 58.74 15.73 59.34 15.4 59.71 15.4 59.71 15.4 59.71 16.83 59.76 17.36 59.23 17.53 59.07 17.75 58.62 17.97 58.06 18.49 56.79 19.07 54.96 19.27 54.56 19.52 54.08 18.97 52.5 18.29 51.56 19.11 51.54 19.75 51.57 20.09 51.59 21.77 51.71 26.77 52.1 27.86 52.19Z" fill="#1CBCB4" opacity="0.5"/><path d="M26.81 52.42C25.98 55.49 24.63 58.85 23.69 60.37 23.32 60.98 22.98 61.45 22.7 61.81L22.69 61.81C21.97 61.6 21.36 61.31 20.86 60.97 21.28 60.22 22.37 58.3 22.83 56.94 23.16 56.02 23.7 54.52 24.12 53.35 25.11 52.94 26.07 52.62 26.81 52.42Z" fill="#1CBCB4" opacity="0.5"/><path d="M27.73 22.64C27.71 23.36 27.52 24.18 27.03 25.03 25.55 27.66 22.91 27.28 22.91 27.28 22.51 28.19 21.87 29.07 21.09 29.85 19.24 31.72 16.56 33.11 14.18 33.48 13.65 33.56 13.08 33.61 12.51 33.64 12.25 33.65 11.98 33.65 11.72 33.65 8.79 33.6 5.61 32.71 3.92 30.38 1.73 27.38 2.73 23.88 3.3 22.41 3.69 21.42 3.68 19.68 3.59 18.29 3.58 18.08 3.57 17.89 3.55 17.69 3.77 17.75 3.92 17.77 3.92 17.77L4.34 16.68C5.25 17.11 6.29 16.28 6.74 15.85 7.21 15.94 7.73 16 8.26 16.03 9.14 16.24 10.36 16.38 11.65 16.05 14.08 15.43 14.23 13.71 14.33 12.52 14.33 12.52 15.04 15.2 17.39 16.05 19.73 16.91 20.34 15.38 20.34 15.38 20.34 15.38 19.58 18.25 21.01 19.82 21.91 20.82 23.14 21.29 23.91 21.51 24.07 21.56 24.16 21.59 24.16 21.59L24.17 21.58C24.48 21.66 24.69 21.69 24.69 21.69 24.69 21.69 25.35 20.44 26.22 20.21 27.07 19.98 27.7 22.65 27.7 22.65L27.73 22.65Z" fill="url(#SVGID_2_)"/><path d="M11.66 16.05C14.09 15.43 14.24 13.71 14.33 12.51 14.33 12.51 15.05 15.19 17.39 16.05 19.73 16.91 20.35 15.38 20.35 15.38 20.35 15.38 19.59 18.25 21.02 19.82 21.91 20.81 23.14 21.29 23.92 21.51 23.27 21.3 21.53 20.59 20.87 19.01 20.06 17.05 20.77 14.85 20.77 14.85 20.77 14.85 19.48 16.38 17.81 15.76 16.14 15.14 14.23 11.7 14.23 11.7 14.23 11.7 13.8 14.85 12.32 15.57 11.5 15.97 9.82 16.12 8.26 16.03 9.14 16.24 10.37 16.38 11.66 16.05Z" fill="url(#SVGID_3_)"/><path d="M26.37 19.97C25.44 19.83 24.24 21.49 24.18 21.59 24.5 21.66 24.7 21.69 24.7 21.69 24.7 21.69 25.37 20.45 26.23 20.21 27.09 19.97 27.71 22.65 27.71 22.65 27.72 22.65 27.73 22.65 27.74 22.65 27.77 21.14 27.01 20.06 26.37 19.97Z" fill="url(#SVGID_4_)"/><path d="M6.75 15.85C6.11 15.72 5.57 15.54 5.26 15.29 5.26 15.29 5.07 16.39 4.36 16.68 5.25 17.11 6.3 16.28 6.75 15.85Z" fill="url(#SVGID_5_)"/><path d="M6.75 15.85C6.11 15.72 5.57 15.54 5.26 15.29 5.26 15.29 5.07 16.39 4.36 16.68 5.25 17.11 6.3 16.28 6.75 15.85Z" fill="url(#SVGID_6_)"/><path d="M4.35 16.67C3.63 16.95 3.44 16.62 3.44 16.62 3.47 16.89 3.51 17.26 3.55 17.68 3.78 17.74 3.92 17.76 3.92 17.76L4.35 16.67Z" fill="url(#SVGID_7_)"/><path d="M31.38 13.37C31.38 13.4 31.38 13.42 31.38 13.45 31.38 13.45 31.38 13.45 31.38 13.46 31.27 15.71 29.33 17.38 29.33 17.38 29.33 17.38 31.15 18.67 30.86 20.15 30.58 21.63 29.35 22.71 27.74 22.63L27.72 22.63C27.72 22.63 27.09 19.96 26.24 20.19 25.38 20.43 24.71 21.67 24.71 21.67 24.71 21.67 24.5 21.64 24.19 21.56 24.11 21.54 24.02 21.52 23.93 21.49 23.16 21.27 21.93 20.8 21.03 19.8 19.6 18.23 20.36 15.36 20.36 15.36 20.36 15.36 19.75 16.89 17.41 16.03 15.06 15.17 14.35 12.5 14.35 12.5 14.25 13.69 14.1 15.41 11.67 16.03 10.38 16.36 9.16 16.22 8.28 16.01 7.49 15.84 6.99 15.6 6.99 15.6 6.99 15.6 6.91 15.69 6.76 15.83 6.12 15.7 5.58 15.52 5.27 15.27 5.27 15.27 5.08 16.37 4.36 16.66L3.94 17.75C3.94 17.75 3.79 17.73 3.57 17.67 2.81 17.47 1.08 16.82 0.31 14.99-0.08 14.06-0.03 13.1 0.18 12.28 0.46 11.2 0.99 10.35 1.16 10.1 1.19 10.05 1.21 10.02 1.21 10.02 1.21 10.02 1.1 9.87 0.99 9.58 0.81 9.15 0.58 8.45 0.56 7.64 0.55 7.48 0.55 7.32 0.56 7.16 0.61 6.44 0.84 5.66 1.39 4.92 2.02 4.06 2.88 3.59 3.72 3.32 3.92 3.26 4.11 3.21 4.3 3.17 5.58 2.9 6.7 3.06 6.7 3.06 6.7 3.06 6.8 2.93 7.02 2.72 7.09 2.64 7.2 2.55 7.3 2.46 8.28 1.56 10.37-0.03 12.9 0.01 13.54 0.02 14.12 0.09 14.65 0.21 14.78 0.24 14.91 0.27 15.03 0.32 15.98 0.59 16.76 1.04 17.4 1.6 17.51 1.68 17.61 1.77 17.7 1.86 18.29 2.43 18.77 3.06 19.18 3.71 19.24 3.8 19.29 3.89 19.35 3.98 19.35 3.98 19.47 3.8 19.67 3.53 20.23 2.78 21.49 1.33 22.95 1.22 23.15 1.21 23.36 1.22 23.58 1.26L23.59 1.26C23.74 1.29 23.89 1.34 24.04 1.4 26.48 2.45 25.67 6.37 25.67 6.37 25.67 6.37 27.39 6.08 28.34 7.61 28.51 7.88 28.63 8.14 28.7 8.38 28.74 8.51 28.77 8.63 28.81 8.74 28.99 9.68 28.63 10.28 28.63 10.28 28.63 10.28 29.52 10.54 30.3 11.18 30.79 11.58 31.23 12.13 31.36 12.86 31.38 13.01 31.39 13.19 31.38 13.37Z" fill="url(#SVGID_8_)"/><path d="M27.73 22.64C27.71 23.36 27.52 24.18 27.03 25.03 25.55 27.66 22.91 27.28 22.91 27.28 22.51 28.19 21.87 29.07 21.09 29.85 19.24 31.72 16.56 33.11 14.18 33.48 13.65 33.56 13.08 33.61 12.51 33.64 12.25 33.65 11.98 33.65 11.72 33.65 14.29 33.03 16.25 31.92 18.72 30.62 22.83 28.47 23.6 22.59 23.6 22.59 23.6 22.59 22.59 22.26 20.68 20.88 18.85 19.55 19.52 16.61 19.57 16.35 19.47 16.49 18.45 17.83 17.1 17.19 15.66 16.53 14.42 14.33 14.42 14.33 14.51 16.15 12.74 16.86 10.07 16.96 7.39 17.06 5.92 16.86 5.05 17.19 4.33 17.47 4.02 18.18 3.57 18.28 3.56 18.07 3.55 17.88 3.53 17.68 3.75 17.74 3.9 17.76 3.9 17.76L4.32 16.67C5.23 17.1 6.27 16.27 6.72 15.84 7.19 15.93 7.71 15.99 8.24 16.02 9.12 16.23 10.34 16.37 11.63 16.04 14.06 15.42 14.21 13.7 14.31 12.51 14.31 12.51 15.02 15.19 17.37 16.04 19.71 16.9 20.32 15.37 20.32 15.37 20.32 15.37 19.56 18.24 20.99 19.81 21.89 20.81 23.12 21.28 23.89 21.5 24.05 21.55 24.14 21.58 24.14 21.58L24.15 21.57C24.46 21.65 24.67 21.68 24.67 21.68 24.67 21.68 25.33 20.43 26.2 20.2 27.05 19.97 27.68 22.64 27.68 22.64L27.73 22.64Z" fill="#E68765" opacity="0.5"/><path d="M26.37 21.88C26.22 21.98 24.6 23.26 24.08 25.37 24.08 25.37 25.27 25.7 25.75 25.13 26.23 24.56 25.27 23.98 25.27 23.98L26.37 21.88Z" fill="#E68765" opacity="0.3"/><path d="M19.49 40.6C19.83 40.6 21.83 40.84 23.74 41.89 25.65 42.94 26.41 42.99 26.41 42.99 26.41 42.99 26.89 39.74 26.7 37.59 26.51 35.44 25.36 33 23.4 32.29 23.4 32.29 25.55 32.91 26.7 34.91 27.85 36.92 27.75 38.78 27.75 38.78L27.13 45.85 21.92 43.17 19.63 41.69 19.49 40.6Z" fill="#0B3531" opacity="0.4"/><g><linearGradient x1="13.1157" y1="59.0575" x2="22.1937" y2="51.0213" gradientUnits="userSpaceOnUse" id="SVGID_9_"><stop offset="0" stop-color="#F2C8A5"/><stop offset="1" stop-color="#F1AB8C"/></linearGradient><path d="M24.6 57.36C23.45 60.8 21.31 62.28 21.31 62.28 21.31 62.28 21.09 63.88 20.64 63.95 20.62 63.95 20.61 63.95 20.59 63.95 20.12 63.91 20.5 62.42 20.5 62.28 20.5 62.14 19.21 63.67 18.97 63.33 18.72 63 19.4 62.09 19.4 62.09 19.4 62.09 17.01 63.29 16.68 62.85 16.34 62.42 18.78 61.28 18.78 61.28 18.78 61.28 16.43 61.56 16.2 61 15.97 60.42 19.31 59.9 19.31 59.9 19.31 59.9 20.02 57.7 20.07 52.35 20.12 47 19.97 43.61 19.64 41.7 19.64 41.7 20.79 41.9 23.46 43.18 23.82 43.36 24.17 43.54 24.48 43.71 26.4 44.83 27.14 45.85 27.14 45.85 27.33 48.77 25.74 53.92 24.6 57.36Z" fill="url(#SVGID_9_)"/><path d="M24.6 57.36C23.45 60.8 21.31 62.28 21.31 62.28 21.31 62.28 21.09 63.88 20.64 63.95 20.77 63.24 21.5 61.62 21.5 61.62 21.5 61.62 24.22 54.07 24.6 50.96 24.9 48.45 24.87 45.98 24.47 43.71 26.39 44.83 27.13 45.85 27.13 45.85 27.33 48.77 25.74 53.92 24.6 57.36Z" fill="#E68765" opacity="0.5"/></g><g><linearGradient x1="6.6703" y1="59.9217" x2="14.9114" y2="52.6263" gradientUnits="userSpaceOnUse" id="SVGID_10_"><stop offset="0" stop-color="#F2C8A5"/><stop offset="1" stop-color="#F1AB8C"/></linearGradient><path d="M17.34 52.64C17.15 55.36 14.86 60.47 14.86 60.47 15.4 60.96 16.53 62.14 16.26 62.51 16.25 62.54 16.23 62.55 16.19 62.57 15.72 62.85 13.66 61.71 13.66 61.71 13.18 62.28 11.13 62.85 10.7 62.66 10.31 62.49 11.34 61.86 11.56 61.73 11.23 61.85 9.24 62.59 8.98 62.33 8.7 62.06 10.46 61.33 10.67 61.24 10.42 61.28 8.16 61.73 8.08 61.28 7.98 60.8 11.61 59.71 11.61 59.71 11.61 59.71 12.28 54.89 12.18 52.26 12.09 49.63 11.08 44.95 11.08 44.95 11.59 44.35 12.82 44 13.86 43.8 14.65 43.64 15.35 43.58 15.53 43.55 15.53 43.55 16.43 45.33 16.91 46.76 17.39 48.19 17.53 49.92 17.34 52.64Z" fill="url(#SVGID_10_)"/><path d="M17.34 52.64C17.15 55.36 14.86 60.47 14.86 60.47 15.4 60.96 16.53 62.14 16.26 62.51 15.88 61.68 14.39 60.18 14.39 60.18 14.39 60.18 15.16 58.08 15.49 55.93 15.82 53.78 16.26 51.87 15.87 49.34 15.55 47.19 14.49 45.17 13.86 43.8 14.65 43.64 15.35 43.58 15.53 43.55 15.53 43.55 16.43 45.33 16.91 46.76 17.39 48.19 17.53 49.92 17.34 52.64Z" fill="#E68765" opacity="0.5"/></g><g><path d="M44.64 59.6C44.2 60.06 43.34 60.4 41.75 60.26 41.74 60.26 41.71 60.26 41.69 60.25 38.98 60 37.65 59.23 36.71 58.55 37.29 58.14 37.83 57.71 38.29 57.29 39.18 56.48 39.77 55.72 39.65 55.22 40.21 55.66 42.12 56.55 43.5 57.33 44.32 57.79 44.96 58.21 45 58.47 45.06 58.79 44.98 59.22 44.64 59.6Z" fill="#FCB10C"/><path d="M41.75 60.26C41.74 60.26 41.71 60.26 41.69 60.25 42.35 59.37 43.1 58.11 43.49 57.33 44.31 57.79 44.95 58.21 44.99 58.47 45.12 59.18 44.61 60.52 41.75 60.26Z" fill="#FCB10C" opacity="0.4"/><path d="M44.64 59.6C44.2 60.06 43.34 60.4 41.75 60.26 41.74 60.26 41.71 60.26 41.69 60.25 38.98 60 37.65 59.23 36.71 58.55 37.29 58.14 37.83 57.71 38.29 57.29 39.12 58.24 39.95 58.93 41.8 59.21 43.1 59.43 44.07 59.54 44.64 59.6Z" fill="#FCB10C" opacity="0.4"/></g><path d="M30.86 20.16C30.58 21.64 29.35 22.72 27.74 22.64L27.72 22.64C27.72 22.64 27.09 19.97 26.24 20.2 25.38 20.44 24.71 21.68 24.71 21.68 24.71 21.68 24.5 21.65 24.19 21.57 24.11 21.55 24.02 21.53 23.93 21.5 23.16 21.28 21.93 20.81 21.03 19.81 19.6 18.24 20.36 15.37 20.36 15.37 20.36 15.37 19.75 16.9 17.41 16.04 15.06 15.18 14.35 12.51 14.35 12.51 14.25 13.7 14.1 15.42 11.67 16.04 10.38 16.37 9.16 16.23 8.28 16.02 7.49 15.85 6.99 15.61 6.99 15.61 6.99 15.61 6.91 15.7 6.76 15.84 6.12 15.71 5.58 15.53 5.27 15.28 5.27 15.28 5.08 16.38 4.36 16.67L3.94 17.76C3.94 17.76 3.79 17.74 3.57 17.68 2.81 17.48 1.08 16.83 0.31 15-0.08 14.07-0.03 13.11 0.18 12.29 0.53 13.15 1.18 14.09 2.22 14.66 4.07 15.68 5.15 13.96 5.15 13.96 5.15 13.96 7.51 15.56 10.5 14.8 13.5 14.03 13.82 9.19 13.82 9.19 13.82 9.19 15.16 13.96 17.76 14.48 20.37 14.99 21.33 13.02 21.33 13.02 21.33 13.02 21.39 17.41 23.75 17.73 26.1 18.05 26.68 14.81 26.68 14.81 26.68 14.81 30.18 13.72 30.3 11.18 30.9 11.67 31.43 12.39 31.41 13.39 31.36 15.68 29.35 17.4 29.35 17.4 29.35 17.4 31.15 18.68 30.86 20.16Z" fill="url(#SVGID_11_)" opacity="0.4"/><g opacity="0.3"><linearGradient x1="0.4159" y1="6.051" x2="5.9401" y2="6.051" gradientUnits="userSpaceOnUse" id="SVGID_12_"><stop offset="0.00501953" stop-color="#FF7139"/><stop offset="0.995" stop-color="#FF632B"/></linearGradient><linearGradient x1="0.9883" y1="6.6377" x2="8.8239" y2="6.6377" gradientUnits="userSpaceOnUse" id="SVGID_13_"><stop offset="0.00501953" stop-color="#FF7139"/><stop offset="0.995" stop-color="#FF632B"/></linearGradient><linearGradient x1="16.0233" y1="5.9082" x2="23.0275" y2="5.9082" gradientUnits="userSpaceOnUse" id="SVGID_14_"><stop offset="0.00501953" stop-color="#FF7139"/><stop offset="0.995" stop-color="#FF632B"/></linearGradient><linearGradient x1="25.3723" y1="11.4822" x2="28.7948" y2="11.4822" gradientUnits="userSpaceOnUse" id="SVGID_15_"><stop offset="0.00501953" stop-color="#FF7139"/><stop offset="0.995" stop-color="#FF632B"/></linearGradient><linearGradient x1="13.305" y1="8.3789" x2="31.3863" y2="8.3789" gradientUnits="userSpaceOnUse" id="SVGID_16_"><stop offset="0.00501953" stop-color="#FF7139"/><stop offset="0.995" stop-color="#FF632B"/></linearGradient><path d="M0.56 7.64C0.51 7.57 0.47 7.5 0.44 7.42 0.39 7.33 0.43 7.21 0.53 7.17 0.54 7.16 0.54 7.16 0.56 7.16 0.64 7.13 0.74 7.17 0.78 7.26 1.31 8.37 2.33 8.8 3.51 8.41 4.7 8.03 5.78 6.79 5.52 5.4 5.34 4.45 4.63 3.67 3.72 3.32 3.92 3.26 4.11 3.21 4.3 3.17 5.11 3.62 5.71 4.41 5.89 5.33 6.2 6.99 4.95 8.34 3.62 8.78 2.61 9.11 1.31 8.97 0.56 7.64Z" fill="url(#SVGID_12_)"/><path d="M7.77 9.17C6.98 10.32 5.58 10.82 4.12 10.82 3.12 10.82 2.09 10.58 1.23 10.16L1.14 10.11C1.17 10.06 1.19 10.03 1.19 10.03 1.19 10.03 1.1 9.87 0.99 9.58 1.12 9.66 1.26 9.74 1.41 9.82 3.38 10.79 6.28 10.68 7.46 8.95 8.44 7.5 8.7 5.84 8.18 4.42 7.93 3.76 7.54 3.19 7.02 2.72 7.09 2.64 7.2 2.55 7.3 2.46 7.85 2.96 8.27 3.58 8.53 4.29 9.11 5.83 8.83 7.61 7.77 9.17Z" fill="url(#SVGID_13_)"/><path d="M16.68 7.99C15.83 6.13 15.81 4.06 16.62 2.6 16.82 2.22 17.09 1.88 17.4 1.59 17.51 1.67 17.61 1.76 17.7 1.85 17.4 2.11 17.15 2.43 16.95 2.78 16.19 4.15 16.22 6.09 17.02 7.83 17.64 9.19 18.91 9.97 20.25 9.83 21.4 9.71 22.27 8.94 22.52 7.81 22.82 6.46 22.56 5.26 21.78 4.5 21.22 3.94 20.45 3.71 19.69 3.89 19 4.06 18.77 4.7 18.69 5.22 18.5 6.35 18.97 7.86 19.62 8.26 19.71 8.32 19.73 8.44 19.68 8.52 19.63 8.61 19.51 8.64 19.42 8.59 18.62 8.11 18.1 6.47 18.3 5.17 18.41 4.48 18.72 3.97 19.17 3.7 19.3 3.62 19.45 3.57 19.6 3.53 19.62 3.52 19.64 3.52 19.66 3.52 20.53 3.32 21.4 3.59 22.06 4.23 22.92 5.09 23.23 6.42 22.89 7.9 22.59 9.19 21.6 10.08 20.29 10.22 18.79 10.36 17.36 9.49 16.68 7.99Z" fill="url(#SVGID_14_)"/><path d="M26.49 14.51C24.71 11.8 25.44 10.22 26.03 9.52 26.63 8.8 27.62 8.4 28.69 8.35 28.73 8.48 28.76 8.6 28.8 8.71 27.8 8.73 26.88 9.1 26.32 9.76 25.43 10.82 25.6 12.43 26.82 14.29 26.88 14.38 26.85 14.5 26.77 14.56 26.67 14.63 26.55 14.6 26.49 14.51Z" fill="url(#SVGID_15_)"/><path d="M31.38 13.37C31.38 13.4 31.38 13.42 31.38 13.45 31.38 13.45 31.38 13.45 31.38 13.46 30.42 14.81 28.81 16.01 26.88 16.44 26.56 16.51 26.25 16.55 25.96 16.55 25.26 16.55 24.66 16.33 24.19 15.9 22.9 14.72 22.9 12.27 22.97 11.19 22.48 11.64 21.91 12.02 21.26 12.26 20.79 12.43 20.3 12.52 19.81 12.52 18.63 12.52 17.4 12.03 16.14 11.06 14.44 9.73 13.49 8 13.33 5.88 13.17 3.75 13.87 1.61 14.65 0.2 14.78 0.23 14.91 0.26 15.03 0.31 14.3 1.61 13.55 3.71 13.71 5.86 13.86 7.85 14.77 9.51 16.4 10.76 18.07 12.04 19.67 12.43 21.15 11.9 23.11 11.19 24.44 8.94 24.76 7.55 25.09 6.11 24.91 3.24 23.47 1.67 23.3 1.49 23.13 1.34 22.95 1.2 23.15 1.19 23.36 1.2 23.58 1.24L23.59 1.24C23.65 1.29 23.71 1.35 23.76 1.41 25.29 3.09 25.49 6.12 25.14 7.64 24.94 8.48 24.36 9.75 23.41 10.78 23.37 11.16 23.05 14.33 24.46 15.62 25.03 16.14 25.81 16.29 26.81 16.07 28.83 15.63 30.49 14.27 31.34 12.84 31.38 13.01 31.39 13.19 31.38 13.37Z" fill="url(#SVGID_16_)"/></g><path d="M14.19 17.7C13.67 17.18 15.1 15.84 16.77 15.98 18.44 16.12 19.49 18.06 19.31 18.38 19.18 18.59 17.87 17.84 16.54 17.74 14.84 17.63 14.19 17.7 14.19 17.7Z" fill="#EA5932"/><path d="M4.19 16.84C3.86 16.46 4.62 15.38 6.44 15.23 8.25 15.09 9.21 16.51 8.83 16.89 8.33 17.39 7.49 16.7 6.34 16.55 5.19 16.41 4.19 16.84 4.19 16.84Z" fill="#EA5932"/><path d="M9.02 21.86C9.02 21.86 7.46 22.36 6.13 21.98 5.72 21.86 5.39 21.7 5.16 21.53 5.16 21.52 5.16 21.52 5.15 21.52 4.64 21.16 4.51 20.78 4.51 20.78 4.03 19.99 5.24 18.58 6.61 18.84 7.06 18.92 7.5 19.16 7.86 19.48 8.6 20.11 9.1 21.1 9.02 21.86Z" fill="#FFFFFF"/><path d="M19.07 23.45C19.07 23.45 17.64 24.15 15.89 23.58 15.4 23.42 14.98 23.23 14.65 23.05 14.64 23.05 14.64 23.04 14.64 23.04 14.44 22.93 14.27 22.83 14.14 22.73 14.13 22.72 14.1 22.71 14.1 22.7 13.64 22.37 13.43 22.12 13.43 22.12 13.42 22.02 13.44 21.91 13.5 21.79 13.87 21.06 15.59 20.09 16.93 20.59 17.1 20.65 17.26 20.72 17.41 20.82 18.63 21.53 19.13 22.99 19.07 23.45Z" fill="#FFFFFF"/><path d="M7.87 19.78C7.87 20.84 7 21.71 5.95 21.71 5.67 21.71 5.39 21.65 5.15 21.54 5.15 21.53 5.15 21.53 5.14 21.53 4.63 21.17 4.5 20.79 4.5 20.79 4.02 20 5.23 18.59 6.6 18.85 7.05 18.93 7.49 19.17 7.85 19.49 7.86 19.58 7.87 19.68 7.87 19.78Z" fill="#5D874D"/><path d="M17.45 21.18C17.45 22.3 16.55 23.2 15.42 23.2 15.15 23.2 14.89 23.14 14.65 23.05 14.64 23.05 14.64 23.04 14.64 23.04 14.45 22.97 14.28 22.86 14.14 22.73 14.13 22.72 14.1 22.71 14.1 22.7 13.82 22.46 13.61 22.14 13.5 21.79 13.87 21.06 15.59 20.09 16.93 20.59 17.1 20.65 17.26 20.72 17.41 20.82 17.45 20.93 17.45 21.06 17.45 21.18Z" fill="#5D874D"/><path d="M13.47 21.83C13.47 21.39 14.97 19.22 16.94 19.63 18.91 20.04 19.42 22.85 19.1 23.48 19.1 23.48 18.76 21.15 16.91 20.68 15.16 20.23 13.47 21.83 13.47 21.83Z" fill="#995A44"/><path d="M9.01 21.86C9.01 21.86 9.39 19.76 7.83 18.65 6.27 17.53 4.42 18.46 4.49 19.95 4.49 19.95 5.35 18.52 6.84 19.09 8.35 19.66 9.01 21.86 9.01 21.86Z" fill="#995A44"/><path d="M4.49 19.95C4.49 19.95 5.25 19 6.75 19.44 8.25 19.89 9.01 21.86 9.01 21.86 9.01 21.86 8.88 19.61 7.29 18.87 5.26 17.91 4.49 19.95 4.49 19.95Z" fill="#A89F9D" opacity="0.4"/><path d="M13.44 21.86C13.44 21.86 15.23 20.49 16.91 21.29 18.6 22.08 19.1 23.48 19.1 23.48 19.1 23.48 19.23 21 17.22 20.27 15.22 19.54 13.44 21.86 13.44 21.86Z" fill="#A89F9D" opacity="0.4"/><path d="M6.56 21.06C6.56 20.73 6.83 20.46 7.17 20.46 7.5 20.46 7.77 20.73 7.77 21.06 7.77 21.4 7.5 21.67 7.17 21.67 6.83 21.67 6.56 21.4 6.56 21.06Z" fill="#FFFFFF"/><path d="M16.56 22.34C16.56 22.01 16.83 21.73 17.17 21.73 17.5 21.73 17.77 22 17.77 22.34 17.77 22.67 17.5 22.95 17.17 22.95 16.83 22.94 16.56 22.67 16.56 22.34Z" fill="#FFFFFF"/><path d="M7.77 28.01C7.77 28.01 12.87 28.23 14.01 28.55 14.01 28.55 13.75 30.97 10.73 30.78 7.71 30.59 7.77 28.01 7.77 28.01Z" fill="#FFFFFF"/><path d="M10.29 19.44C10.54 19.98 10.86 20.81 10.54 22.02 10.22 23.23 9.49 24.28 9.49 24.28 9.49 24.28 8.18 24.25 8.09 24.79 7.99 25.33 8.92 25.94 9.84 26.29 10.76 26.64 11.72 26.16 11.88 25.78 12.04 25.4 12.01 25.05 11.69 25.27 11.37 25.5 11.02 26.03 10.29 25.88 9.56 25.72 8.26 25.27 8.41 24.93 8.57 24.58 9.87 24.77 9.87 24.77 9.87 24.77 10.95 23.05 11.08 21.68 11.21 20.3 10.29 19.44 10.29 19.44Z" fill="#E68765"/></g></svg>