<svg width="36.34" height="66.71" viewBox="0 0 36.34 66.71" xmlns="http://www.w3.org/2000/svg" xmlns:xlink="http://www.w3.org/1999/xlink" xml:space="preserve" overflow="hidden"><defs></defs><g><g><path d="M8.9 31.25C8.96 31.26 9.01 31.23 9.03 31.17L12.79 19.71C12.81 19.65 12.78 19.58 12.72 19.57 12.66 19.55 12.59 19.58 12.58 19.64L8.82 31.11C8.8 31.17 8.83 31.23 8.89 31.25 8.89 31.25 8.9 31.25 8.9 31.25Z" fill="#571983"/><g><path d="M12.93 18.52C12.6 18.52 12.33 18.79 12.33 19.12 12.33 19.45 12.6 19.72 12.93 19.72 13.26 19.72 13.53 19.45 13.53 19.12 13.52 18.79 13.26 18.52 12.93 18.52ZM12.93 19.46C12.74 19.46 12.59 19.31 12.59 19.12 12.59 18.93 12.74 18.78 12.93 18.78 13.12 18.78 13.27 18.93 13.27 19.12 13.26 19.31 13.11 19.46 12.93 19.46Z" fill="#8A4EAD"/></g><g><g opacity="0.5"><path d="M11.2 32.34C11.11 32.31 11.01 32.29 10.92 32.27L10.92 32.46C10.92 32.46 11.12 32.42 11.13 32.57 11.14 32.69 11.14 32.85 11.17 33.32 11.18 33.46 11.19 33.64 11.21 33.84 11.21 33.85 11.2 33.85 11.2 33.86 11.25 33.87 11.31 33.88 11.37 33.87 11.37 33.75 11.36 33.61 11.36 33.44 11.37 32.64 11.39 32.4 11.2 32.34Z" fill="#D68C5B"/></g><g><path d="M10.31 32.65 10.49 32.69C10.49 32.68 10.55 32.4 10.56 32.11 10.57 31.68 10.47 31.44 10.27 31.38 9.88 31.27 8.83 31.27 8.79 31.27L8.79 31.45C8.8 31.45 9.86 31.45 10.23 31.56 10.42 31.62 10.39 32.24 10.31 32.65Z" fill="#54D2DC"/><path d="M8.55 32.34C8.55 32.41 8.59 32.47 8.66 32.47L8.66 32.47C8.73 32.48 8.79 32.43 8.79 32.36L8.93 30.77C8.94 30.7 8.89 30.64 8.83 30.64L8.83 30.64C8.76 30.64 8.71 30.68 8.7 30.75L8.55 32.34Z" fill="#FF93D0"/><path d="M8.71 32.33C8.63 32.32 8.56 32.37 8.55 32.43L8.55 32.43C8.54 32.49 8.6 32.55 8.68 32.56L10.62 32.77C10.7 32.78 10.77 32.73 10.78 32.67L10.78 32.67C10.79 32.6 10.73 32.54 10.65 32.54L8.71 32.33Z" fill="#DD54A9"/></g></g><path d="M9.71 31.36C9.76 31.36 9.8 31.32 9.81 31.27L12.92 19.63C12.94 19.57 12.9 19.51 12.84 19.49 12.78 19.47 12.72 19.51 12.7 19.57L9.59 31.22C9.57 31.28 9.61 31.34 9.67 31.36 9.69 31.36 9.7 31.36 9.71 31.36Z" fill="#8A4EAD"/></g><g><g><path d="M31.85 31.51C31.8 31.53 31.74 31.5 31.71 31.45L26 19.58C25.97 19.53 25.99 19.46 26.05 19.43 26.1 19.4 26.18 19.43 26.2 19.48L31.91 31.35C31.94 31.41 31.91 31.48 31.86 31.5 31.86 31.5 31.85 31.51 31.85 31.51Z" fill="#8025C1"/><path d="M34.3 29.89C34.26 29.91 34.2 29.89 34.17 29.85L26.08 19.48C26.04 19.43 26.05 19.36 26.1 19.32 26.15 19.28 26.22 19.29 26.26 19.34L34.34 29.71C34.38 29.76 34.37 29.83 34.32 29.87 34.32 29.88 34.31 29.89 34.3 29.89Z" fill="#CB73FF"/><g><path d="M25.79 18.52C25.46 18.52 25.19 18.79 25.19 19.12 25.19 19.45 25.46 19.72 25.79 19.72 26.12 19.72 26.39 19.45 26.39 19.12 26.39 18.79 26.12 18.52 25.79 18.52ZM25.79 19.46C25.61 19.46 25.46 19.31 25.46 19.12 25.46 18.93 25.61 18.78 25.79 18.78 25.98 18.78 26.13 18.93 26.13 19.12 26.13 19.31 25.98 19.46 25.79 19.46Z" fill="#CB73FF"/></g></g><path d="M32.25 32.09C32.22 32.09 32.19 32.07 32.18 32.05L31.77 31.31C31.76 31.29 31.76 31.27 31.76 31.24 31.77 31.22 31.78 31.2 31.8 31.19L34.47 29.75C34.51 29.73 34.56 29.74 34.58 29.79 34.6 29.83 34.59 29.88 34.54 29.91L34.87 30.71 32.31 31.97C32.33 32.01 32.32 32.06 32.27 32.09 32.28 32.08 32.27 32.09 32.25 32.09Z" fill="#FF93D0"/><g><path d="M34.95 30.55 32.21 31.87 31.99 32.66 35.2 31.19Z" fill="#DD54A9"/><path d="M35.2 31.19 31.99 32.66 32.11 32.89 35.31 31.45Z" fill="#B52D88"/></g><g><path d="M32.29 31.83C32.26 31.83 32.24 31.83 32.21 31.81 32.17 31.78 32.17 31.72 32.2 31.68 32.24 31.63 33.12 30.56 34.76 30.48 34.81 30.48 34.85 30.52 34.85 30.57 34.85 30.62 34.81 30.65 34.77 30.67 33.26 31.09 32.34 31.8 32.34 31.8 32.32 31.81 32.31 31.82 32.29 31.83Z"/><path d="M32.36 31.67C32.36 31.67 33.16 30.84 34.68 30.57 33.92 30.61 32.98 30.88 32.36 31.67Z" fill="#515149"/></g><path d="M31.99 32.74C31.96 32.74 31.93 32.72 31.92 32.7 31.91 32.68 31.63 32.16 31.52 31.91 31.39 31.63 31.89 31.03 31.99 30.91 32.02 30.87 32.07 30.87 32.11 30.9 32.15 30.93 32.15 30.99 32.12 31.02 31.86 31.32 31.62 31.72 31.68 31.84 31.79 32.08 32.07 32.61 32.07 32.62 32.09 32.66 32.08 32.71 32.03 32.74 32.02 32.74 32.01 32.74 31.99 32.74Z" fill="#54D2DC"/><path d="M35.2 31.28C35.17 31.28 35.14 31.26 35.12 31.23L34.48 29.85C34.46 29.81 34.48 29.76 34.52 29.74 34.56 29.72 34.61 29.74 34.63 29.78L35.27 31.16C35.29 31.2 35.27 31.25 35.23 31.27 35.23 31.27 35.22 31.28 35.2 31.28Z" fill="#54D2DC"/></g><g><path d="M24.9 32.75C24.85 32.75 24.8 32.71 24.79 32.66L22.83 19.64C22.82 19.58 22.86 19.52 22.93 19.51 22.99 19.5 23.05 19.54 23.06 19.6L25.02 32.62C25.03 32.68 24.99 32.74 24.92 32.75 24.91 32.75 24.9 32.75 24.9 32.75Z" fill="#571983"/><path d="M27.31 32.13C27.26 32.13 27.22 32.1 27.2 32.05L23.06 19.57C23.04 19.51 23.07 19.45 23.13 19.43 23.19 19.41 23.25 19.44 23.27 19.5L27.41 31.98C27.43 32.04 27.4 32.1 27.34 32.12 27.34 32.13 27.32 32.13 27.31 32.13Z" fill="#8A4EAD"/><path d="M25.21 33.08 25.03 32.56C25.03 32.56 26.53 31.94 27.31 31.96 27.47 32.06 27.7 32.53 27.7 32.53L25.21 33.08Z" fill="#FF93D0"/><g><path d="M27.43 33.29 24.86 33.82 24.9 33.97 27.52 33.42 27.82 32.74 27.76 32.62Z" fill="#B52D88"/><path d="M27.76 32.62 27.7 32.53 25.21 33.08 24.86 33.82 27.43 33.29Z" fill="#DD54A9"/></g><path d="M24.87 33.89C24.84 33.89 24.81 33.88 24.8 33.85 24.73 33.73 24.37 33.13 24.57 32.88 24.76 32.64 24.96 32.51 25.36 32.36 25.4 32.34 25.45 32.37 25.47 32.41 25.48 32.45 25.47 32.5 25.42 32.52 25 32.68 24.85 32.8 24.7 32.99 24.61 33.1 24.79 33.52 24.95 33.77 24.98 33.81 24.96 33.86 24.92 33.89 24.9 33.89 24.88 33.89 24.87 33.89Z" fill="#54D2DC"/><path d="M25.24 33.19C25.24 33.19 26.15 32.59 27.6 32.67 26.89 32.54 25.98 32.59 25.24 33.19Z" fill="#515149"/><path d="M27.41 33.34C27.38 33.34 27.35 33.32 27.33 33.3 26.84 32.42 26.85 32.31 27.15 32.04L27.19 32C27.24 31.95 27.31 31.93 27.37 31.95 27.6 32 27.8 32.52 27.83 32.62 27.85 32.66 27.83 32.71 27.78 32.73 27.74 32.75 27.69 32.72 27.67 32.68 27.58 32.42 27.42 32.14 27.33 32.11 27.32 32.11 27.31 32.11 27.3 32.12L27.26 32.16C27.04 32.36 27.01 32.39 27.48 33.21 27.5 33.25 27.49 33.3 27.45 33.32 27.44 33.33 27.43 33.34 27.41 33.34Z" fill="#54D2DC"/><g><path d="M22.94 18.52C22.61 18.52 22.34 18.79 22.34 19.12 22.34 19.45 22.61 19.72 22.94 19.72 23.27 19.72 23.54 19.45 23.54 19.12 23.54 18.79 23.28 18.52 22.94 18.52ZM22.94 19.46C22.76 19.46 22.6 19.31 22.6 19.12 22.6 18.93 22.75 18.78 22.94 18.78 23.13 18.78 23.28 18.93 23.28 19.12 23.28 19.31 23.13 19.46 22.94 19.46Z" fill="#8A4EAD"/></g></g><g><path d="M0.95 32.81C0.94 32.81 0.92 32.81 0.91 32.8 0.87 32.78 0.86 32.72 0.88 32.68 0.89 32.66 1.2 32.14 1.37 31.9 1.47 31.75 1.54 31.66 1.63 31.67 1.71 31.67 1.75 31.75 1.78 31.82 1.85 31.96 1.95 32.15 1.95 32.15 1.97 32.19 1.96 32.24 1.92 32.27 1.88 32.29 1.83 32.28 1.81 32.24 1.81 32.24 1.7 32.04 1.63 31.9 1.62 31.89 1.62 31.88 1.62 31.87 1.6 31.89 1.57 31.93 1.52 32.01 1.35 32.25 1.04 32.78 1.03 32.78 1.01 32.79 0.98 32.81 0.95 32.81Z" fill="#54D2DC"/><path d="M3.37 34.71C3.34 34.71 3.31 34.7 3.28 34.67 3.24 34.62 3.25 34.55 3.3 34.51L3.3 34.51C3.3 34.51 3.42 34.4 3.63 34.02 3.87 33.59 3.83 33.56 3.66 33.44L3.64 33.43C3.39 33.25 3.09 33.03 2.51 32.65 2.43 32.59 2.35 32.54 2.29 32.5 2.13 32.39 2.02 32.32 1.97 32.31 1.95 32.31 1.89 32.37 1.84 32.44 1.63 32.72 1.31 33.23 1.31 33.23 1.28 33.28 1.21 33.3 1.15 33.27 1.1 33.24 1.08 33.17 1.11 33.11 1.12 33.09 1.43 32.58 1.65 32.3 1.9 31.97 2.02 32.05 2.4 32.31 2.46 32.35 2.54 32.4 2.62 32.46 3.21 32.85 3.52 33.07 3.76 33.25L3.78 33.26C4.11 33.5 4.05 33.71 3.81 34.14 3.58 34.56 3.44 34.68 3.43 34.69 3.42 34.7 3.4 34.71 3.37 34.71Z" fill="#FF93D0"/><path d="M3.43 34.7C3.41 34.7 3.39 34.7 3.37 34.68L0.98 33.2C0.95 33.19 0.94 33.16 0.93 33.13L0.84 32.77C0.82 32.71 0.86 32.65 0.92 32.63 0.98 32.61 1.05 32.65 1.06 32.71L1.14 33.03 3.5 34.49C3.55 34.52 3.57 34.59 3.54 34.65 3.51 34.68 3.47 34.7 3.43 34.7Z" fill="#DD54A9"/><path d="M3.91 33.49C3.87 33.46 3.85 33.4 3.87 33.35L10.61 19.63C10.64 19.57 10.71 19.55 10.76 19.58 10.81 19.61 10.84 19.68 10.81 19.73L4.08 33.45C4.05 33.51 3.98 33.53 3.93 33.5 3.92 33.5 3.91 33.5 3.91 33.49Z" fill="#8025C1"/><path d="M1.94 32.17C1.91 32.13 1.91 32.08 1.94 32.04L10.44 19.49C10.48 19.44 10.54 19.43 10.6 19.46 10.65 19.5 10.66 19.57 10.63 19.62L2.13 32.17C2.1 32.22 2.02 32.24 1.97 32.2 1.95 32.18 1.94 32.17 1.94 32.17Z" fill="#CB73FF"/><g><path d="M10.86 18.52C10.53 18.52 10.26 18.79 10.26 19.12 10.26 19.45 10.53 19.72 10.86 19.72 11.19 19.72 11.46 19.45 11.46 19.12 11.47 18.79 11.2 18.52 10.86 18.52ZM10.86 19.46C10.67 19.46 10.52 19.31 10.52 19.12 10.52 18.93 10.67 18.78 10.86 18.78 11.05 18.78 11.2 18.93 11.2 19.12 11.2 19.31 11.05 19.46 10.86 19.46Z" fill="#CB73FF"/></g></g><g><g><g><g><rect x="14.86" y="18.81" width="6.65" height="40.98" fill="#FFA402"/><rect x="16.01" y="18.9" width="4.35" height="40.88" fill="#FFC502"/><rect x="17.01" y="18.9" width="2.35" height="40.81" fill="#FFEC02"/><g><path d="M17.98 24.84 17.99 24.84 17.98 24.84Z" fill="#FF93D0"/><path d="M17.98 22.24 17.98 22.24 17.99 22.24Z" fill="#FF93D0"/><path d="M15.63 23.55 16.39 24.82 17.19 23.53 16.42 22.27Z" fill="#FF93D0"/><path d="M19.58 22.27 19.57 22.24 17.99 22.24 18.79 23.55Z" fill="#54D2DC"/><path d="M17.19 23.53 17.98 22.24 16.44 22.24 16.42 22.27Z" fill="#54D2DC"/><path d="M16.44 22.24 16.4 22.24 16.42 22.27Z" fill="#FF93D0"/><path d="M21.15 22.24 21.13 22.24 21.14 22.26Z" fill="#FF93D0"/><path d="M21.51 22.87 21.51 22.24 21.15 22.24 21.14 22.26Z" fill="#3C979E"/><path d="M19.6 22.24 19.57 22.24 19.58 22.27Z" fill="#FF93D0"/><path d="M18.79 23.55 19.55 24.82 20.35 23.53 19.58 22.27Z" fill="#FF93D0"/><path d="M14.83 22.24 14.83 24.84 15.63 23.55Z" fill="#B86A96"/><path d="M21.12 24.84 21.14 24.84 21.13 24.82Z" fill="#FF93D0"/><path d="M21.14 24.84 21.51 24.84 21.51 24.21 21.13 24.82Z" fill="#3C979E"/><path d="M21.14 22.26 20.35 23.53 21.13 24.82 21.51 24.21 21.51 22.87Z" fill="#B86A96"/><path d="M19.53 24.84 19.57 24.84 19.55 24.82Z" fill="#FF93D0"/><path d="M16.37 24.84 16.4 24.84 16.39 24.82Z" fill="#FF93D0"/><path d="M17.99 22.24 17.98 22.24 17.19 23.53 17.98 24.84 17.99 24.84 18.79 23.55Z" fill="#FF93D0"/><path d="M18.79 23.55 17.99 24.84 19.53 24.84 19.55 24.82Z" fill="#54D2DC"/><path d="M16.39 24.82 16.4 24.84 17.98 24.84 17.19 23.53Z" fill="#54D2DC"/></g><g><path d="M18.19 48.82 18.54 49.54 19.32 49.65 18.75 50.21 18.89 50.99 18.19 50.62 17.48 50.99 17.61 50.21 17.05 49.65 17.83 49.54Z" fill="#54D2DC"/><path d="M16.38 49.65 15.6 49.54 15.24 48.82 14.89 49.54 14.87 49.54 14.87 50.82 15.24 50.62 15.95 50.99 15.81 50.21Z" fill="#54D2DC"/><path d="M20 49.65 20.78 49.54 21.13 48.82 21.49 49.54 21.51 49.54 21.51 50.82 21.13 50.62 20.43 50.99 20.57 50.21Z" fill="#54D2DC"/></g></g><g><path d="M16.01 22.94 15.63 23.55 16.01 24.19Z" fill="#B86A96"/><path d="M16.42 22.27 16.4 22.24 16.01 22.24 16.01 22.94Z" fill="#54D2DC"/><path d="M16.01 22.24 14.83 22.24 15.63 23.55 16.01 22.94Z" fill="#3C979E"/><path d="M15.63 23.55 14.83 24.84 16.01 24.84 16.01 24.19Z" fill="#3C979E"/><path d="M16.01 24.84 16.37 24.84 16.39 24.82 16.01 24.19Z" fill="#54D2DC"/></g><g><path d="M20.36 23.51 20.35 23.53 20.36 23.55Z" fill="none"/><path d="M21.14 22.26 21.13 22.24 20.36 22.24 20.36 23.51Z" fill="#3C979E"/><path d="M20.36 22.24 19.6 22.24 19.58 22.27 20.35 23.53 20.36 23.51Z" fill="#54D2DC"/><path d="M20.35 23.53 19.55 24.82 19.57 24.84 20.36 24.84 20.36 23.55Z" fill="#54D2DC"/><path d="M20.36 24.84 21.12 24.84 21.13 24.82 20.36 23.55Z" fill="#3C979E"/></g></g><g><rect x="13.7" y="59.53" width="8.94" height="2.49" fill="#BF6202"/><g><rect x="13.7" y="60.31" width="8.94" height="0.47" fill="#FFA402"/><rect x="13.7" y="61.55" width="8.94" height="0.47" fill="#FFA402"/></g><g opacity="0.5"><rect x="13.7" y="59.53" width="1.51" height="2.49" fill="#939393"/><rect x="21.17" y="59.53" width="1.47" height="2.49" fill="#939393"/></g></g><g><g><path d="M13.24 62.71C13.24 62.9 13.09 63.05 12.9 63.05 12.71 63.05 12.56 62.9 12.56 62.71 12.56 62.52 12.71 62.37 12.9 62.37 13.09 62.37 13.24 62.52 13.24 62.71Z" fill="#FFE902"/><g><path d="M12.98 62.38C13.03 62.44 13.07 62.52 13.07 62.61 13.07 62.8 12.92 62.95 12.73 62.95 12.7 62.95 12.68 62.95 12.65 62.94 12.71 63.01 12.8 63.05 12.9 63.05 13.09 63.05 13.24 62.9 13.24 62.71 13.24 62.55 13.13 62.42 12.98 62.38Z" fill="#D37B04"/></g><path d="M12.8 62.58C12.75 62.64 12.67 62.67 12.64 62.64 12.61 62.61 12.63 62.53 12.68 62.47 12.73 62.41 12.81 62.38 12.84 62.41 12.87 62.45 12.86 62.52 12.8 62.58Z" fill="#FFFF02"/><path d="M12.64 62.71C12.64 62.74 12.62 62.76 12.6 62.76 12.58 62.76 12.58 62.73 12.58 62.71 12.58 62.68 12.6 62.66 12.61 62.66 12.64 62.66 12.65 62.69 12.64 62.71Z" fill="#FFFF02"/></g><g><path d="M23.09 62.71C23.09 62.9 23.24 63.05 23.43 63.05 23.62 63.05 23.77 62.9 23.77 62.71 23.77 62.52 23.62 62.37 23.43 62.37 23.24 62.37 23.09 62.52 23.09 62.71Z" fill="#FFE902"/><g><path d="M23.35 62.38C23.29 62.44 23.26 62.52 23.26 62.61 23.26 62.8 23.41 62.95 23.6 62.95 23.63 62.95 23.66 62.95 23.68 62.94 23.62 63.01 23.53 63.05 23.43 63.05 23.24 63.05 23.09 62.9 23.09 62.71 23.09 62.55 23.2 62.42 23.35 62.38Z" fill="#D37B04"/></g><path d="M23.52 62.58C23.58 62.64 23.65 62.67 23.68 62.64 23.71 62.61 23.7 62.53 23.64 62.47 23.59 62.41 23.52 62.38 23.48 62.41 23.45 62.45 23.47 62.52 23.52 62.58Z" fill="#FFFF02"/><path d="M23.68 62.71C23.68 62.74 23.7 62.76 23.71 62.76 23.73 62.76 23.73 62.73 23.73 62.71 23.73 62.68 23.71 62.66 23.7 62.66 23.69 62.66 23.68 62.69 23.68 62.71Z" fill="#FFFF02"/></g><path d="M16.38 62.02 13.7 62.02 12.25 63.92 17.8 63.92 18.54 63.92 24.09 63.92 22.65 62.02 19.96 62.02Z" fill="#54D2DC"/><g><path d="M16.69 65.67C15.47 65.67 15.21 66.62 15.21 66.62L18.14 66.62C18.14 66.62 17.92 65.67 16.69 65.67Z" fill="#FF93D0"/><path d="M18.14 66.64 18.15 66.67 18.2 66.62 18.15 66.62Z" fill="#54D2DC"/><path d="M21.13 66.62 21.14 66.64 21.16 66.62Z" fill="#54D2DC"/><path d="M21.14 66.64 21.15 66.71 21.17 66.62 21.16 66.62Z" fill="#54D2DC"/><path d="M18.14 66.62 18.14 66.64 18.15 66.62Z" fill="#54D2DC"/><path d="M18.14 66.68 18.15 66.67 18.14 66.64Z" fill="#54D2DC"/><path d="M15.19 66.68 15.21 66.62 15.19 66.64Z" fill="#54D2DC"/><path d="M15.19 66.64 15.21 66.62 15.18 66.62Z" fill="#54D2DC"/><path d="M18.15 64.73C18.15 64.73 18.73 64.12 19.67 64.12 20.62 64.12 21.16 64.82 21.16 64.82L21.16 63.92 18.24 63.92 18.15 63.92 18.15 64.73C18.15 64.73 18.15 64.73 18.15 64.73Z" fill="#CB73FF"/><path d="M16.7 64.12C17.65 64.12 18.12 64.7 18.15 64.73L18.15 63.92 15.21 63.92 15.21 64.7C15.29 64.61 15.8 64.12 16.7 64.12Z" fill="#CB73FF"/><path d="M19.68 64.12C18.74 64.12 18.16 64.73 18.16 64.73 18.16 64.73 18.16 64.73 18.16 64.73L18.16 65.58C18.16 65.58 18.16 65.58 18.16 65.58 18.16 65.58 18.74 64.97 19.68 64.97 20.63 64.97 21.17 65.67 21.17 65.67L21.17 64.82C21.17 64.82 20.62 64.12 19.68 64.12Z" fill="#FF93D0"/><path d="M22.7 64.12C23.88 64.12 24.09 64.82 24.09 64.82L24.09 63.92 21.17 63.92 21.17 64.82C21.17 64.82 21.52 64.12 22.7 64.12Z" fill="#9253B8"/><path d="M13.67 64.12C14.62 64.12 15.2 64.71 15.2 64.71 15.2 64.71 15.21 64.71 15.21 64.7L15.21 63.92 12.25 63.92 12.25 64.75C12.25 64.74 12.71 64.12 13.67 64.12Z" fill="#9253B8"/><path d="M22.7 64.12C21.52 64.12 21.17 64.82 21.17 64.82L21.17 65.67C21.17 65.67 21.52 64.97 22.7 64.97 23.88 64.97 24.09 65.67 24.09 65.67L24.09 64.82C24.09 64.82 23.89 64.12 22.7 64.12Z" fill="#B86A96"/><path d="M16.7 64.12C15.8 64.12 15.29 64.61 15.21 64.7L15.21 65.55C15.29 65.47 15.8 64.97 16.7 64.97 17.65 64.97 18.12 65.55 18.15 65.58L18.15 64.73C18.12 64.7 17.65 64.12 16.7 64.12Z" fill="#FF93D0"/><path d="M18.15 65.58C18.12 65.54 17.65 64.97 16.7 64.97 15.8 64.97 15.29 65.46 15.21 65.55L15.21 66.62C15.21 66.62 15.47 65.67 16.69 65.67 17.91 65.67 18.14 66.62 18.14 66.62L18.15 66.62 18.15 65.58Z" fill="#CB73FF"/><path d="M22.64 65.67C21.54 65.67 21.22 66.44 21.17 66.59L21.17 66.62 24.09 66.62C24.09 66.62 23.86 65.67 22.64 65.67Z" fill="#B86A96"/><path d="M21.17 66.59 21.17 65.67C21.17 65.67 20.63 64.97 19.68 64.97 18.74 64.97 18.16 65.58 18.16 65.58 18.16 65.58 18.16 65.58 18.16 65.58L18.16 66.62 18.21 66.62C18.21 66.62 18.47 65.67 19.69 65.67 20.91 65.67 21.14 66.62 21.14 66.62L21.17 66.62C21.16 66.62 21.16 66.61 21.17 66.59Z" fill="#CB73FF"/><path d="M21.16 66.62 21.16 66.62 21.17 66.59C21.16 66.61 21.16 66.62 21.16 66.62Z" fill="#54D2DC"/><path d="M24.09 65.67C24.09 65.67 23.88 64.97 22.7 64.97 21.52 64.97 21.17 65.67 21.17 65.67L21.17 66.59C21.22 66.44 21.54 65.67 22.64 65.67 23.86 65.67 24.09 66.62 24.09 66.62L24.09 66.62 24.09 65.67Z" fill="#9253B8"/><path d="M19.68 65.67C18.46 65.67 18.2 66.62 18.2 66.62L18.24 66.62 21.13 66.62C21.13 66.62 20.91 65.67 19.68 65.67Z" fill="#FF93D0"/><path d="M13.73 65.67C12.51 65.67 12.25 66.62 12.25 66.62L15.18 66.62C15.18 66.62 14.96 65.67 13.73 65.67Z" fill="#B86A96"/><path d="M13.73 66.04C13 66.04 12.84 66.61 12.84 66.61L14.6 66.61C14.6 66.62 14.46 66.04 13.73 66.04Z" fill="#B8AA01"/><path d="M16.73 66.04C15.99 66.04 15.84 66.61 15.84 66.61L17.6 66.61C17.6 66.62 17.47 66.04 16.73 66.04Z" fill="#FFEC02"/><path d="M19.69 66.04C18.96 66.04 18.8 66.61 18.8 66.61L20.56 66.61C20.56 66.62 20.42 66.04 19.69 66.04Z" fill="#FFEC02"/><path d="M22.71 66.04C21.97 66.04 21.82 66.61 21.82 66.61L23.58 66.61C23.58 66.62 23.45 66.04 22.71 66.04Z" fill="#B8AA01"/><path d="M15.2 65.56C15.2 65.56 14.61 64.97 13.67 64.97 12.72 64.97 12.25 65.6 12.25 65.6L12.25 66.62 12.25 66.62C12.25 66.62 12.51 65.67 13.73 65.67 14.95 65.67 15.18 66.62 15.18 66.62L15.21 66.62 15.21 65.55C15.2 65.55 15.2 65.56 15.2 65.56Z" fill="#9253B8"/><path d="M13.67 64.97C14.62 64.97 15.2 65.56 15.2 65.56 15.2 65.56 15.21 65.55 15.21 65.55L15.21 64.7C15.2 64.71 15.2 64.71 15.2 64.71 15.2 64.71 14.61 64.12 13.67 64.12 12.72 64.12 12.25 64.74 12.25 64.74L12.25 65.59C12.25 65.59 12.71 64.97 13.67 64.97Z" fill="#B86A96"/></g><g><path d="M22.65 62.02 21.17 62.02 21.17 63.92 24.09 63.92Z" fill="#3C979E"/><path d="M13.7 62.02 12.25 63.92 15.21 63.92 15.21 62.02Z" fill="#3C979E"/></g><g><g><path d="M13.85 62.74C13.66 62.74 13.51 62.89 13.51 63.08 13.51 63.27 13.66 63.42 13.85 63.42 14.04 63.42 14.19 63.27 14.19 63.08 14.19 62.89 14.04 62.74 13.85 62.74Z" fill="#3C979E"/><path d="M15.29 62.74C15.1 62.74 14.95 62.89 14.95 63.08 14.95 63.27 15.1 63.42 15.29 63.42 15.48 63.42 15.63 63.27 15.63 63.08 15.63 62.89 15.48 62.74 15.29 62.74Z" fill="#3C979E"/><path d="M16.72 62.74C16.53 62.74 16.38 62.89 16.38 63.08 16.38 63.27 16.53 63.42 16.72 63.42 16.91 63.42 17.06 63.27 17.06 63.08 17.06 62.89 16.91 62.74 16.72 62.74Z" fill="#3C979E"/><path d="M18.15 62.74C17.96 62.74 17.81 62.89 17.81 63.08 17.81 63.27 17.96 63.42 18.15 63.42 18.34 63.42 18.49 63.27 18.49 63.08 18.49 62.89 18.34 62.74 18.15 62.74Z" fill="#3C979E"/><path d="M19.59 62.74C19.4 62.74 19.25 62.89 19.25 63.08 19.25 63.27 19.4 63.42 19.59 63.42 19.78 63.42 19.93 63.27 19.93 63.08 19.92 62.89 19.77 62.74 19.59 62.74Z" fill="#3C979E"/><path d="M21.02 62.74C20.83 62.74 20.68 62.89 20.68 63.08 20.68 63.27 20.83 63.42 21.02 63.42 21.21 63.42 21.36 63.27 21.36 63.08 21.36 62.89 21.21 62.74 21.02 62.74Z" fill="#3C979E"/><path d="M22.45 62.74C22.26 62.74 22.11 62.89 22.11 63.08 22.11 63.27 22.26 63.42 22.45 63.42 22.64 63.42 22.79 63.27 22.79 63.08 22.79 62.89 22.64 62.74 22.45 62.74Z" fill="#3C979E"/></g><g><path d="M14.19 62.87C14.19 63.06 14.04 63.21 13.85 63.21 13.66 63.21 13.51 63.06 13.51 62.87 13.51 62.68 13.66 62.53 13.85 62.53 14.04 62.53 14.19 62.68 14.19 62.87Z" fill="#D37B04"/><path d="M14.1 62.81C14.1 62.96 13.98 63.08 13.83 63.08 13.68 63.08 13.56 62.96 13.56 62.81 13.56 62.66 13.68 62.54 13.83 62.54 13.98 62.54 14.1 62.66 14.1 62.81Z" fill="#FFE902"/><path d="M13.95 62.71C13.95 62.79 13.88 62.86 13.8 62.86 13.72 62.86 13.65 62.79 13.65 62.71 13.65 62.63 13.72 62.56 13.8 62.56 13.88 62.56 13.95 62.63 13.95 62.71Z" fill="#FFFF02"/><path d="M13.76 62.92C13.76 62.95 13.74 62.97 13.71 62.97 13.68 62.97 13.66 62.95 13.66 62.92 13.66 62.89 13.68 62.87 13.71 62.87 13.74 62.87 13.76 62.89 13.76 62.92Z" fill="#FFFF02"/></g><g><path d="M15.63 62.87C15.63 63.06 15.48 63.21 15.29 63.21 15.1 63.21 14.95 63.06 14.95 62.87 14.95 62.68 15.1 62.53 15.29 62.53 15.48 62.53 15.63 62.68 15.63 62.87Z" fill="#D37B04"/><path d="M15.54 62.81C15.54 62.96 15.42 63.08 15.27 63.08 15.12 63.08 15 62.96 15 62.81 15 62.66 15.12 62.54 15.27 62.54 15.42 62.54 15.54 62.66 15.54 62.81Z" fill="#FFE902"/><path d="M15.38 62.71C15.38 62.79 15.31 62.86 15.23 62.86 15.15 62.86 15.08 62.79 15.08 62.71 15.08 62.63 15.15 62.56 15.23 62.56 15.31 62.56 15.38 62.63 15.38 62.71Z" fill="#FFFF02"/><path d="M15.2 62.92C15.2 62.95 15.18 62.97 15.15 62.97 15.12 62.97 15.1 62.95 15.1 62.92 15.1 62.89 15.12 62.87 15.15 62.87 15.18 62.87 15.2 62.89 15.2 62.92Z" fill="#FFFF02"/></g><g><path d="M17.06 62.87C17.06 63.06 16.91 63.21 16.72 63.21 16.53 63.21 16.38 63.06 16.38 62.87 16.38 62.68 16.53 62.53 16.72 62.53 16.91 62.53 17.06 62.68 17.06 62.87Z" fill="#D37B04"/><path d="M16.97 62.81C16.97 62.96 16.85 63.08 16.7 63.08 16.55 63.08 16.43 62.96 16.43 62.81 16.43 62.66 16.55 62.54 16.7 62.54 16.85 62.54 16.97 62.66 16.97 62.81Z" fill="#FFE902"/><path d="M16.81 62.71C16.81 62.79 16.74 62.86 16.66 62.86 16.58 62.86 16.51 62.79 16.51 62.71 16.51 62.63 16.58 62.56 16.66 62.56 16.74 62.56 16.81 62.63 16.81 62.71Z" fill="#FFFF02"/><path d="M16.63 62.92C16.63 62.95 16.61 62.97 16.58 62.97 16.55 62.97 16.53 62.95 16.53 62.92 16.53 62.89 16.55 62.87 16.58 62.87 16.61 62.87 16.63 62.89 16.63 62.92Z" fill="#FFFF02"/></g><g><circle cx="18.15" cy="62.87" r="0.34" fill="#D37B04"/><path d="M18.4 62.81C18.4 62.96 18.28 63.08 18.13 63.08 17.98 63.08 17.86 62.96 17.86 62.81 17.86 62.66 17.98 62.54 18.13 62.54 18.28 62.54 18.4 62.66 18.4 62.81Z" fill="#FFE902"/><path d="M18.25 62.71C18.25 62.79 18.18 62.86 18.1 62.86 18.02 62.86 17.95 62.79 17.95 62.71 17.95 62.63 18.02 62.56 18.1 62.56 18.18 62.56 18.25 62.63 18.25 62.71Z" fill="#FFFF02"/><path d="M18.06 62.92C18.06 62.95 18.04 62.97 18.01 62.97 17.98 62.97 17.96 62.95 17.96 62.92 17.96 62.89 17.98 62.87 18.01 62.87 18.04 62.87 18.06 62.89 18.06 62.92Z" fill="#FFFF02"/></g><g><path d="M19.92 62.87C19.92 63.06 19.77 63.21 19.58 63.21 19.39 63.21 19.24 63.06 19.24 62.87 19.24 62.68 19.39 62.53 19.58 62.53 19.77 62.53 19.92 62.68 19.92 62.87Z" fill="#D37B04"/><path d="M19.84 62.81C19.84 62.96 19.72 63.08 19.57 63.08 19.42 63.08 19.3 62.96 19.3 62.81 19.3 62.66 19.42 62.54 19.57 62.54 19.71 62.54 19.84 62.66 19.84 62.81Z" fill="#FFE902"/><path d="M19.68 62.71C19.68 62.79 19.61 62.86 19.53 62.86 19.45 62.86 19.38 62.79 19.38 62.71 19.38 62.63 19.45 62.56 19.53 62.56 19.61 62.56 19.68 62.63 19.68 62.71Z" fill="#FFFF02"/><path d="M19.49 62.92C19.49 62.95 19.47 62.97 19.44 62.97 19.41 62.97 19.39 62.95 19.39 62.92 19.39 62.89 19.41 62.87 19.44 62.87 19.47 62.87 19.49 62.89 19.49 62.92Z" fill="#FFFF02"/></g><g><path d="M21.36 62.87C21.36 63.06 21.21 63.21 21.02 63.21 20.83 63.21 20.68 63.06 20.68 62.87 20.68 62.68 20.83 62.53 21.02 62.53 21.21 62.53 21.36 62.68 21.36 62.87Z" fill="#D37B04"/><path d="M21.27 62.81C21.27 62.96 21.15 63.08 21 63.08 20.85 63.08 20.73 62.96 20.73 62.81 20.73 62.66 20.85 62.54 21 62.54 21.15 62.54 21.27 62.66 21.27 62.81Z" fill="#FFE902"/><path d="M21.11 62.71C21.11 62.79 21.04 62.86 20.96 62.86 20.88 62.86 20.81 62.79 20.81 62.71 20.81 62.63 20.88 62.56 20.96 62.56 21.04 62.56 21.11 62.63 21.11 62.71Z" fill="#FFFF02"/><path d="M20.93 62.92C20.93 62.95 20.91 62.97 20.88 62.97 20.85 62.97 20.83 62.95 20.83 62.92 20.83 62.89 20.85 62.87 20.88 62.87 20.91 62.87 20.93 62.89 20.93 62.92Z" fill="#FFFF02"/></g><g><path d="M22.79 62.87C22.79 63.06 22.64 63.21 22.45 63.21 22.26 63.21 22.11 63.06 22.11 62.87 22.11 62.68 22.26 62.53 22.45 62.53 22.64 62.53 22.79 62.68 22.79 62.87Z" fill="#D37B04"/><path d="M22.7 62.81C22.7 62.96 22.58 63.08 22.43 63.08 22.28 63.08 22.16 62.96 22.16 62.81 22.16 62.66 22.28 62.54 22.43 62.54 22.58 62.54 22.7 62.66 22.7 62.81Z" fill="#FFE902"/><path d="M22.54 62.71C22.54 62.79 22.47 62.86 22.39 62.86 22.31 62.86 22.24 62.79 22.24 62.71 22.24 62.63 22.31 62.56 22.39 62.56 22.48 62.56 22.54 62.63 22.54 62.71Z" fill="#FFFF02"/><path d="M22.36 62.92C22.36 62.95 22.34 62.97 22.31 62.97 22.28 62.97 22.26 62.95 22.26 62.92 22.26 62.89 22.28 62.87 22.31 62.87 22.34 62.87 22.36 62.89 22.36 62.92Z" fill="#FFFF02"/></g></g></g></g></g><g><path d="M17.7 36.65C17.7 36.65 17.7 36.65 17.7 36.65 17.63 36.65 17.58 36.56 17.58 36.45L17.9 19.66C17.9 19.55 17.95 19.47 18.02 19.47 18.08 19.47 18.13 19.56 18.13 19.67L17.81 36.46C17.81 36.57 17.76 36.65 17.7 36.65Z" fill="#8025C1"/><g><path d="M18.2 18.52C17.87 18.52 17.6 18.79 17.6 19.12 17.6 19.45 17.87 19.72 18.2 19.72 18.53 19.72 18.8 19.45 18.8 19.12 18.8 18.79 18.53 18.52 18.2 18.52ZM18.2 19.46C18.01 19.46 17.86 19.31 17.86 19.12 17.86 18.93 18.01 18.78 18.2 18.78 18.39 18.78 18.54 18.93 18.54 19.12 18.54 19.31 18.39 19.46 18.2 19.46Z" fill="#CB73FF"/></g><path d="M18.6 36.92C18.54 36.92 18.49 36.87 18.49 36.81L18.26 19.53C18.26 19.47 18.31 19.42 18.37 19.42 18.37 19.42 18.37 19.42 18.37 19.42 18.43 19.42 18.48 19.47 18.48 19.53L18.71 36.81C18.72 36.87 18.67 36.92 18.6 36.92 18.61 36.92 18.61 36.92 18.6 36.92Z" fill="#CB73FF"/><path d="M16.43 37.76 16.21 37.72C16.21 37.71 16.28 37.37 16.41 37.03 16.6 36.53 16.83 36.3 17.09 36.33 17.58 36.39 18.78 36.89 18.84 36.91L18.75 37.12C18.74 37.12 17.52 36.62 17.06 36.56 16.8 36.53 16.53 37.25 16.43 37.76Z" fill="#54D2DC"/><path d="M18.58 38.24C18.56 38.32 18.47 38.36 18.4 38.34L18.4 38.34C18.32 38.32 18.28 38.23 18.31 38.16L18.9 36.28C18.93 36.2 19.01 36.16 19.08 36.18L19.08 36.18C19.16 36.2 19.2 36.29 19.18 36.36L18.58 38.24Z" fill="#FF93D0"/><path d="M18.4 38.15C18.49 38.18 18.55 38.26 18.53 38.34L18.53 38.34C18.51 38.42 18.41 38.46 18.32 38.43L16.01 37.74C15.91 37.71 15.86 37.63 15.88 37.55L15.88 37.55C15.9 37.47 16 37.43 16.1 37.46L18.4 38.15Z" fill="#DD54A9"/></g><g><g><g><path d="M17.57 0.98C17.57 0.98 17.96 0 18.14 0 18.37 0 18.7 0.96 18.7 0.96 18.7 0.96 20.13 1.19 20.13 1.4 20.13 1.61 19.1 2.05 19.1 2.05 19.1 2.05 19.47 3.26 19.34 3.38 19.23 3.5 18.2 2.29 18.2 2.29 18.2 2.29 17.28 3.46 17.06 3.41 16.84 3.36 17.23 2.13 17.23 2.13 17.23 2.13 16.21 1.6 16.22 1.46 16.23 1.31 17.57 0.98 17.57 0.98Z" fill="#FFEC02"/><g><path d="M18.14 0C18.14 0.13 18.15 0.26 18.15 0.39 18.15 0.52 18.15 0.65 18.15 0.78 18.15 0.91 18.16 1.04 18.16 1.17L18.16 1.56 18.16 1.57 18.16 1.58C18.07 1.74 17.98 1.89 17.89 2.04L17.62 2.5 17.34 2.96 17.2 3.18 17.06 3.41 17.19 3.17 17.32 2.93 17.58 2.46 17.85 2C17.94 1.84 18.03 1.69 18.12 1.54L18.12 1.55 18.12 1.16C18.12 1.03 18.12 0.9 18.12 0.77 18.12 0.64 18.12 0.51 18.13 0.38 18.14 0.26 18.14 0.13 18.14 0Z" fill="#FFC502"/><path d="M16.22 1.45C16.38 1.45 16.54 1.46 16.7 1.46L17.18 1.48C17.5 1.49 17.82 1.51 18.14 1.52L18.16 1.52 18.17 1.53C18.27 1.68 18.37 1.84 18.47 1.99L18.77 2.45 19.06 2.91C19.16 3.06 19.26 3.22 19.35 3.38 19.25 3.23 19.14 3.08 19.04 2.93L18.73 2.48 18.43 2.03C18.33 1.88 18.23 1.73 18.13 1.57L18.15 1.58C17.83 1.56 17.51 1.55 17.19 1.53L16.7 1.5C16.54 1.47 16.37 1.46 16.22 1.45Z" fill="#FFC502"/><path d="M18.14 1.55C18.14 1.55 18.17 1.55 18.22 1.54 18.28 1.53 18.35 1.52 18.45 1.51 18.54 1.5 18.65 1.49 18.77 1.48 18.89 1.47 19.01 1.46 19.14 1.45 19.26 1.44 19.39 1.43 19.5 1.43 19.62 1.42 19.72 1.42 19.82 1.42 19.91 1.42 19.99 1.42 20.05 1.41 20.11 1.41 20.14 1.41 20.14 1.41 20.14 1.41 20.11 1.41 20.05 1.42 20 1.43 19.92 1.44 19.83 1.45 19.74 1.46 19.63 1.47 19.51 1.48 19.39 1.49 19.27 1.5 19.15 1.51 19.02 1.52 18.9 1.53 18.78 1.54 18.66 1.55 18.56 1.55 18.46 1.55 18.37 1.55 18.29 1.55 18.24 1.56 18.17 1.55 18.14 1.55 18.14 1.55Z" fill="#FFC502"/></g></g><g><path d="M19 2.76C18.7 2.84 18.17 2.09 18.17 2.09 18.17 2.09 17.58 2.86 17.39 2.76 17.19 2.66 17.61 1.83 17.61 1.83 17.01 1.78 16.52 1.58 16.24 1.43 16.23 1.44 16.23 1.45 16.23 1.46 16.21 1.6 17.24 2.13 17.24 2.13 17.24 2.13 16.85 3.36 17.07 3.41 17.29 3.46 18.21 2.29 18.21 2.29 18.21 2.29 19.24 3.5 19.36 3.38 19.49 3.26 19.12 2.05 19.12 2.05 19.12 2.05 20.14 1.61 20.14 1.4 20.14 1.39 20.13 1.38 20.13 1.37 19.48 1.66 18.7 1.79 18.7 1.79 18.7 1.79 19.3 2.68 19 2.76Z" fill="#FFCC02"/></g><path d="M18.22 2.9C19.1 2.9 19.45 3.58 19.45 3.58 19.95 3.24 21.33 3.47 21.45 4.25 20.37 4.26 19.72 5.41 19.72 5.41L16.62 5.41C16.62 5.41 15.96 4.27 14.89 4.25 15.02 3.47 16.4 3.24 16.89 3.58 16.89 3.58 17.24 2.9 18.13 2.9L18.22 2.9Z" fill="#FFC502"/><g><path d="M14.88 4.24C15.96 4.25 16.61 5.4 16.61 5.4L17.19 5.4C16.51 2.98 14.88 4.24 14.88 4.24Z" fill="#FFA402"/><path d="M15.73 4.49C16.54 5.05 16.72 5.61 16.72 5.61L16.95 5.47C16.44 3.68 15.73 4.49 15.73 4.49Z" fill="#FFA402"/><path d="M18.21 3.45 18.15 3.45C17.22 3.45 17.34 4.93 17.41 5.4L18.96 5.4C19.02 4.94 19.15 3.45 18.21 3.45Z" fill="#FFA402"/><path d="M18.2 3.93 18.15 3.93C17.44 3.93 17.54 5.05 17.59 5.4L18.77 5.4C18.81 5.05 18.91 3.93 18.2 3.93Z" fill="#FFA402"/><path d="M19.15 5.4 19.72 5.4C19.72 5.4 20.38 4.26 21.45 4.24 21.45 4.24 21.45 4.24 21.45 4.24 21.35 4.16 19.81 3.06 19.15 5.4Z" fill="#FFA402"/><path d="M20.6 4.49C19.79 5.05 19.61 5.61 19.61 5.61L19.38 5.47C19.9 3.68 20.6 4.49 20.6 4.49Z" fill="#FFA402"/></g><g><path d="M20.37 6.02C20.37 6.7 19.39 7.24 18.17 7.24 16.95 7.24 15.97 6.69 15.97 6.02 15.97 5.34 16.95 4.99 18.17 4.99 19.39 4.99 20.37 5.34 20.37 6.02Z" fill="#FFEC02"/><path d="M17.2 5.08C16.47 5.22 15.97 5.54 15.97 6.02 15.97 6.5 16.47 6.92 17.2 7.12L17.2 5.08Z" fill="#FFEC02"/><path d="M19.08 5.07 19.08 7.14C19.84 6.95 20.37 6.52 20.37 6.03 20.37 5.52 19.84 5.2 19.08 5.07Z" fill="#FFC302"/></g><g><g><path d="M20.94 6.66C20.8 5.9 19.61 5.51 18.16 5.51 16.71 5.51 15.53 5.9 15.38 6.66L20.94 6.66Z" fill="#FFC502"/><path d="M20.94 6.66C20.85 6.18 20.35 5.86 19.63 5.67L19.63 6.66 20.94 6.66Z" fill="#FFC502"/><path d="M16.73 6.66 16.73 5.66C16 5.84 15.48 6.18 15.39 6.66L16.73 6.66Z" fill="#FFC502" opacity="0.5"/></g><g><path d="M20.94 6.66C20.9 6.45 20.78 6.27 20.6 6.12 18.61 5.58 16.55 5.93 15.72 6.12 15.54 6.27 15.42 6.45 15.38 6.66L20.94 6.66Z" fill="#FFC502"/></g></g><path d="M17.06 3.6C17.06 3.6 17.42 2.95 18.33 3 18.02 2.84 17.25 2.99 17.06 3.6Z" fill="#FFFFFF"/><path d="M15.05 4.02C15.05 4.02 15.74 3.31 16.72 3.67 16.27 3.31 15.48 3.42 15.05 4.02Z" fill="#FFFFFF"/></g><g><g><path d="M16.95 6.12 16.95 6.13 16.95 6.13Z" fill="#FF93D0"/><path d="M18.5 6.06C18.41 6.06 18.31 6.06 18.22 6.06 18.12 7.41 18.29 9.25 18.4 10.27 19.22 10.26 19.99 10.23 20.71 10.17 20.26 8.51 19.27 7.01 18.53 6.06 18.52 6.06 18.51 6.06 18.5 6.06Z" fill="#54D2DC"/><path d="M16.95 6.13C11.92 6.58 9.05 9.07 9.05 9.07 9.53 9.2 10 9.32 10.47 9.42 11.05 8.64 12.78 6.89 16.95 6.13Z" fill="#FF93D0"/><path d="M19.48 6.08C21.29 6.76 23.55 7.86 25.04 9.52 25.51 9.41 25.91 9.31 26.23 9.22 24.74 7.82 21.98 6.77 19.73 6.09 19.65 6.09 19.56 6.09 19.48 6.08Z" fill="#FF93D0"/><path d="M19.73 6.1C21.98 6.77 24.74 7.82 26.23 9.23 26.86 9.06 27.29 9.04 27.29 9.04 27.29 9.04 24.86 6.45 19.73 6.1Z" fill="#54D2DC"/><path d="M18.6 6.06C18.58 6.06 18.56 6.06 18.53 6.06 19.27 7.01 20.26 8.51 20.71 10.17 21.7 10.09 22.59 9.98 23.38 9.85 22.16 7.72 20.04 6.6 18.6 6.06Z" fill="#FF93D0"/><path d="M19.48 6.08C19.19 6.07 18.9 6.06 18.6 6.05 20.04 6.6 22.17 7.72 23.39 9.84 24.01 9.74 24.56 9.63 25.04 9.52 23.55 7.87 21.28 6.76 19.48 6.08Z" fill="#54D2DC"/><path d="M17.57 6.08C17.36 6.09 17.15 6.11 16.95 6.13 13.99 7.17 12.65 8.8 12.09 9.75 12.64 9.84 13.17 9.93 13.7 9.99 14.13 9.02 15.19 7.29 17.57 6.08Z" fill="#FF93D0"/><path d="M16.95 6.13 16.95 6.13C12.78 6.9 11.05 8.65 10.47 9.43 11.02 9.55 11.56 9.66 12.09 9.75 12.65 8.79 13.99 7.16 16.95 6.13Z" fill="#54D2DC"/><path d="M17.57 6.08C15.19 7.29 14.13 9.02 13.69 9.99 14.51 10.09 15.31 10.17 16.07 10.21 16.14 9.48 16.45 7.54 17.93 6.06 17.82 6.07 17.69 6.07 17.57 6.08Z" fill="#54D2DC"/><path d="M18.22 6.06C18.12 6.06 18.03 6.06 17.94 6.07 16.46 7.55 16.15 9.48 16.08 10.22 16.89 10.27 17.67 10.28 18.41 10.28 18.29 9.25 18.12 7.41 18.22 6.06Z" fill="#FF93D0"/></g><g opacity="0.5"><path d="M23.1 6.71C23.24 6.91 23.69 7.93 18.22 7.93 13.01 7.93 13.24 7.07 13.42 6.82 10.6 7.72 9.05 9.07 9.05 9.07 9.53 9.2 10 9.32 10.47 9.42 11.02 9.54 11.56 9.65 12.09 9.74 12.64 9.83 13.17 9.92 13.7 9.98 14.52 10.08 15.32 10.16 16.08 10.2 16.89 10.25 17.67 10.26 18.41 10.26 19.23 10.25 20 10.22 20.72 10.16 21.71 10.08 22.6 9.97 23.39 9.84 24.01 9.74 24.56 9.63 25.04 9.52 25.51 9.41 25.91 9.31 26.23 9.22 26.86 9.05 27.29 9.03 27.29 9.03 27.29 9.03 25.93 7.59 23.1 6.71Z" fill="#939393"/></g></g><g><g><path d="M36.3 10.19C35.77 11.44 34.26 15.75 34.26 15.75L27.63 15.75 29.46 9.66C31.77 8.04 36.83 8.95 36.3 10.19Z" fill="#D37B04"/><g><path d="M0.04 10.19C0.57 11.44 2.08 15.75 2.08 15.75L8.71 15.75 6.89 9.66C4.56 8.04-0.49 8.95 0.04 10.19Z" fill="#D37B04"/><path d="M10.75 8.53C7.91 8.53 6.89 9.66 6.89 9.66L8.72 15.75 14.86 15.75 14 9.51C14 9.51 13.58 8.53 10.75 8.53Z" fill="#D37B04"/><path d="M29.44 9.66C29.44 9.66 29.43 9.66 29.43 9.67 29.43 9.67 28.41 8.54 25.57 8.54 23.03 8.54 22.43 9.33 22.33 9.49L22.33 9.52 21.47 15.76 27.61 15.76 29.44 9.66 29.44 9.66Z" fill="#D37B04"/><path d="M22.34 9.48C22.33 9.5 22.33 9.51 22.33 9.51 22.33 9.51 21.56 8.11 18.3 8.11L18.03 8.11C14.77 8.11 14 9.51 14 9.51L14.86 15.75 17.75 15.75 18.58 15.75 21.48 15.75 22.34 9.51 22.34 9.48Z" fill="#D37B04"/></g><path d="M36.3 10.5C35.77 11.75 34.26 16.06 34.26 16.06L27.63 16.06 29.46 9.97C31.77 8.35 36.83 9.25 36.3 10.5Z" fill="#FFA402"/><g><path d="M0.04 10.5C0.57 11.75 2.08 16.06 2.08 16.06L8.71 16.06 6.89 9.97C4.56 8.35-0.49 9.25 0.04 10.5Z" fill="#FFA402"/><path d="M10.75 8.84C7.91 8.84 6.89 9.97 6.89 9.97L8.72 16.06 14.86 16.06 14 9.82C14 9.82 13.58 8.84 10.75 8.84Z" fill="#FFC502"/><path d="M29.44 9.96C29.44 9.96 29.43 9.96 29.43 9.97 29.43 9.97 28.41 8.84 25.57 8.84 23.03 8.84 22.43 9.63 22.33 9.79L22.33 9.82 21.47 16.06 27.61 16.06 29.44 9.96 29.44 9.96Z" fill="#FFC502"/><path d="M22.34 9.79C22.33 9.81 22.33 9.82 22.33 9.82 22.33 9.82 21.56 8.42 18.3 8.42L18.03 8.42C14.77 8.42 14 9.82 14 9.82L14.86 16.06 17.75 16.06 18.58 16.06 21.48 16.06 22.34 9.82 22.34 9.79Z" fill="#FFEC02"/></g><path d="M2.72 15.36 7.78 15.36 6.36 10.89C6.36 10.89 3.77 9.13 0.88 10.65L2.72 15.36Z" fill="#FF8502"/><path d="M14.07 15.36 9.28 15.36 7.78 10.46C7.78 10.46 10.43 8.88 13.29 10.46L14.07 15.36Z" fill="#FFA402"/><path d="M33.67 15.36 28.61 15.36 30.03 10.89C30.03 10.89 32.62 9.13 35.51 10.65L33.67 15.36Z" fill="#FF8502"/><path d="M22.33 15.36 27.12 15.36 28.62 10.46C28.62 10.46 25.97 8.88 23.11 10.46L22.33 15.36Z" fill="#FFA402"/><path d="M15.51 15.36 20.86 15.36 21.61 10.3C21.61 10.3 18.4 8.03 14.79 10.3L15.51 15.36Z" fill="#FFC502"/><g><path d="M16.77 11.65C16.77 11.65 16.74 11.79 16.61 11.72 16.48 11.66 16.53 11.38 16.86 11.38 17.19 11.38 17.34 12.08 16.71 12.19 16.07 12.3 15.69 11.53 16.15 10.92 16.61 10.32 17.66 10.35 18.03 11.04 18.4 11.73 17.7 12.46 16.97 12.97 16.33 13.44 16.32 14.18 16.85 14.43 17.38 14.69 17.71 14.21 17.49 13.96 17.46 14.17 16.92 14.12 17 13.66 17.08 13.2 17.88 13.23 18.01 13.72 18.14 14.21 17.76 15.13 16.8 14.77 16.09 14.51 15.85 13.48 16.85 12.83 17.83 12.17 18.1 11.87 18.05 11.32 18.01 10.77 17.03 10.4 16.4 10.97 16.01 11.32 16.25 11.86 16.52 11.9 16.78 11.94 16.87 11.76 16.77 11.65Z" fill="#D37B04"/><path d="M19.47 11.65C19.47 11.65 19.5 11.79 19.63 11.72 19.76 11.66 19.71 11.38 19.38 11.38 19.06 11.38 18.9 12.08 19.53 12.19 20.17 12.3 20.55 11.53 20.09 10.92 19.63 10.32 18.58 10.35 18.21 11.04 17.84 11.73 18.54 12.46 19.27 12.97 19.91 13.44 19.92 14.18 19.4 14.43 18.87 14.69 18.54 14.21 18.76 13.96 18.79 14.17 19.33 14.12 19.25 13.66 19.17 13.2 18.37 13.23 18.24 13.72 18.11 14.21 18.49 15.13 19.45 14.77 20.16 14.51 20.39 13.48 19.4 12.83 18.42 12.17 18.15 11.87 18.2 11.32 18.25 10.77 19.22 10.4 19.85 10.97 20.24 11.32 19.99 11.86 19.73 11.9 19.46 11.94 19.36 11.76 19.47 11.65Z" fill="#D37B04"/></g><g><path d="M9.51 11.65C9.51 11.65 9.51 11.79 9.36 11.72 9.22 11.66 9.23 11.38 9.55 11.38 9.87 11.38 10.15 12.08 9.53 12.19 8.91 12.3 8.4 11.53 8.76 10.92 9.12 10.32 10.18 10.35 10.66 11.04 11.14 11.73 10.57 12.46 9.92 12.97 9.36 13.44 9.47 14.18 10.04 14.43 10.61 14.69 10.87 14.21 10.6 13.96 10.61 14.17 10.06 14.12 10.06 13.66 10.06 13.2 10.87 13.23 11.08 13.72 11.3 14.21 11.06 15.13 10.05 14.77 9.3 14.51 8.89 13.48 9.77 12.83 10.64 12.17 10.86 11.87 10.72 11.32 10.58 10.77 9.55 10.4 9.01 10.97 8.68 11.32 9.02 11.86 9.29 11.9 9.56 11.94 9.63 11.76 9.51 11.65Z" fill="#D37B04"/><path d="M12.21 11.65C12.21 11.65 12.26 11.79 12.39 11.72 12.51 11.66 12.41 11.38 12.09 11.38 11.77 11.38 11.73 12.08 12.38 12.19 13.03 12.3 13.29 11.53 12.72 10.92 12.16 10.32 11.11 10.35 10.86 11.04 10.61 11.73 11.43 12.46 12.24 12.97 12.96 13.44 13.1 14.18 12.61 14.43 12.12 14.69 11.71 14.21 11.89 13.96 11.95 14.17 12.48 14.12 12.33 13.66 12.18 13.2 11.38 13.23 11.33 13.72 11.28 14.21 11.82 15.13 12.72 14.77 13.39 14.51 13.45 13.48 12.35 12.83 11.26 12.17 10.94 11.87 10.9 11.32 10.85 10.77 11.76 10.4 12.5 10.97 12.95 11.32 12.79 11.86 12.53 11.9 12.25 11.94 12.12 11.76 12.21 11.65Z" fill="#D37B04"/></g><g><path d="M2.44 11.65C2.44 11.65 2.46 11.79 2.31 11.72 2.15 11.66 2.11 11.38 2.44 11.38 2.76 11.38 3.16 12.08 2.57 12.19 1.97 12.3 1.32 11.53 1.57 10.92 1.82 10.32 2.89 10.35 3.49 11.04 4.1 11.73 3.65 12.46 3.1 12.97 2.62 13.44 2.86 14.18 3.48 14.43 4.1 14.69 4.27 14.21 3.96 13.96 4 14.17 3.45 14.12 3.36 13.66 3.27 13.2 4.08 13.23 4.39 13.72 4.69 14.21 4.62 15.13 3.54 14.77 2.74 14.51 2.15 13.48 2.92 12.83 3.68 12.17 3.84 11.87 3.6 11.32 3.37 10.77 2.26 10.4 1.82 10.97 1.55 11.32 1.99 11.86 2.26 11.9 2.55 11.94 2.58 11.76 2.44 11.65Z" fill="#D37B04"/><path d="M5.14 11.65C5.14 11.65 5.22 11.79 5.33 11.72 5.44 11.66 5.29 11.38 4.97 11.38 4.65 11.38 4.73 12.08 5.4 12.19 6.07 12.3 6.19 11.53 5.52 10.92 4.85 10.32 3.81 10.35 3.68 11.04 3.55 11.73 4.5 12.46 5.41 12.97 6.22 13.44 6.48 14.18 6.04 14.43 5.6 14.69 5.1 14.21 5.23 13.96 5.33 14.17 5.85 14.12 5.62 13.66 5.38 13.2 4.59 13.23 4.63 13.72 4.67 14.21 5.37 15.13 6.21 14.77 6.83 14.51 6.71 13.48 5.49 12.83 4.28 12.17 3.91 11.87 3.77 11.32 3.63 10.77 4.47 10.4 5.3 10.97 5.81 11.32 5.75 11.86 5.5 11.9 5.24 11.94 5.08 11.76 5.14 11.65Z" fill="#D37B04"/></g><g><path d="M26.97 11.65C26.97 11.65 26.97 11.79 27.12 11.72 27.26 11.66 27.25 11.38 26.93 11.38 26.61 11.38 26.33 12.08 26.95 12.19 27.56 12.3 28.08 11.53 27.72 10.92 27.36 10.32 26.3 10.35 25.82 11.04 25.33 11.73 25.91 12.46 26.55 12.97 27.12 13.44 27 14.18 26.43 14.43 25.86 14.69 25.61 14.21 25.87 13.96 25.86 14.17 26.41 14.12 26.41 13.66 26.41 13.2 25.6 13.23 25.39 13.72 25.17 14.21 25.41 15.13 26.43 14.77 27.18 14.51 27.59 13.48 26.7 12.83 25.83 12.17 25.61 11.87 25.75 11.32 25.89 10.77 26.92 10.4 27.46 10.97 27.79 11.32 27.45 11.86 27.18 11.9 26.91 11.94 26.85 11.76 26.97 11.65Z" fill="#D37B04"/><path d="M24.27 11.65C24.27 11.65 24.22 11.79 24.1 11.72 23.98 11.66 24.08 11.38 24.4 11.38 24.72 11.38 24.77 12.08 24.11 12.19 23.45 12.3 23.2 11.53 23.76 10.92 24.32 10.32 25.37 10.35 25.62 11.04 25.87 11.73 25.05 12.46 24.24 12.97 23.52 13.44 23.39 14.18 23.87 14.43 24.36 14.69 24.77 14.21 24.59 13.96 24.53 14.17 24 14.12 24.15 13.66 24.3 13.2 25.1 13.23 25.15 13.72 25.2 14.21 24.66 15.13 23.77 14.77 23.1 14.51 23.04 13.48 24.14 12.83 25.23 12.17 25.55 11.87 25.59 11.32 25.63 10.77 24.73 10.4 23.99 10.97 23.54 11.32 23.7 11.86 23.96 11.9 24.23 11.94 24.35 11.76 24.27 11.65Z" fill="#D37B04"/></g><g><path d="M34.04 11.65C34.04 11.65 34.02 11.79 34.17 11.72 34.33 11.66 34.36 11.38 34.04 11.38 33.72 11.38 33.31 12.08 33.91 12.19 34.51 12.3 35.16 11.53 34.91 10.92 34.66 10.32 33.59 10.35 32.99 11.04 32.38 11.73 32.83 12.46 33.38 12.97 33.86 13.44 33.61 14.18 33 14.43 32.38 14.69 32.22 14.21 32.52 13.96 32.48 14.17 33.03 14.12 33.12 13.66 33.2 13.2 32.39 13.23 32.09 13.72 31.79 14.21 31.86 15.13 32.94 14.77 33.74 14.51 34.33 13.48 33.57 12.83 32.82 12.17 32.65 11.87 32.89 11.32 33.13 10.77 34.23 10.4 34.66 10.97 34.93 11.32 34.5 11.86 34.22 11.9 33.93 11.94 33.9 11.76 34.04 11.65Z" fill="#D37B04"/><path d="M31.34 11.65C31.34 11.65 31.26 11.79 31.15 11.72 31.04 11.66 31.19 11.38 31.51 11.38 31.83 11.38 31.75 12.08 31.08 12.19 30.41 12.3 30.29 11.53 30.96 10.92 31.63 10.32 32.67 10.35 32.8 11.04 32.93 11.73 31.98 12.46 31.08 12.97 30.27 13.44 30.01 14.18 30.45 14.43 30.89 14.69 31.39 14.21 31.26 13.96 31.16 14.17 30.64 14.12 30.87 13.66 31.11 13.2 31.9 13.23 31.86 13.72 31.82 14.21 31.12 15.13 30.29 14.77 29.67 14.51 29.79 13.48 31.01 12.83 32.22 12.17 32.59 11.87 32.74 11.32 32.88 10.77 32.04 10.4 31.21 10.97 30.7 11.32 30.76 11.86 31.01 11.9 31.24 11.94 31.4 11.76 31.34 11.65Z" fill="#D37B04"/></g></g><g opacity="0.5"><path d="M18.16 14.86C16.44 14.86 15.35 12.1 14.83 10.29 14.82 10.3 14.8 10.3 14.79 10.31L15.51 15.37 20.86 15.37 21.61 10.31C21.61 10.31 21.61 10.31 21.61 10.31 20.99 12.32 19.84 14.86 18.16 14.86Z" fill="#FFC502"/></g><g opacity="0.5"><path d="M13.3 10.54C13.14 12.67 12.6 15.05 11.08 15.02 9.16 14.98 7.78 10.47 7.78 10.47L9.28 15.37 14.07 15.37 13.3 10.54Z" fill="#FFA402"/></g><g opacity="0.5"><path d="M23.11 10.54C23.27 12.67 23.81 15.05 25.33 15.02 27.25 14.98 28.63 10.47 28.63 10.47L27.13 15.37 22.34 15.37 23.11 10.54Z" fill="#FFA402"/></g><g opacity="0.5"><path d="M7.78 15.36 6.36 10.89C6.36 10.89 5.93 10.6 5.22 10.35 5.39 12.13 5.42 14.54 4.4 14.79 3.4 15.03 1.94 12.7 0.94 10.82L2.72 15.36 7.78 15.36Z" fill="#D36C05"/></g><g opacity="0.5"><path d="M28.64 15.36 30.06 10.89C30.06 10.89 30.49 10.6 31.2 10.35 31.03 12.13 30.99 14.54 32.02 14.79 33.02 15.03 34.48 12.7 35.47 10.82L33.7 15.36 28.64 15.36Z" fill="#D36C05"/></g><path d="M15.44 10.2C15.44 10.2 17.76 9.09 19.91 9.88 19.1 9.26 17.01 9.09 15.44 10.2Z" fill="#FFFFFF"/><path d="M8.16 10.66C8.16 10.66 9.55 9.88 11.34 10.14 10.82 9.8 8.83 9.91 8.16 10.66Z" fill="#FFA402"/><path d="M28.33 10.66C28.33 10.66 26.94 9.88 25.14 10.14 25.66 9.8 27.65 9.91 28.33 10.66Z" fill="#FFA402"/><path d="M1.26 10.77C1.26 10.77 2.17 10.09 4.06 10.39 2.96 9.86 1.71 10.35 1.26 10.77Z" fill="#FF8502"/><path d="M35.3 10.77C35.3 10.77 34.39 10.09 32.5 10.39 33.6 9.86 34.84 10.35 35.3 10.77Z" fill="#FF8502"/></g><g><path d="M18.2 18.83 18.2 18.81 18.19 18.81Z" fill="#FFEC02"/><path d="M10.47 18.81 14.88 18.81 8.71 16.06Z" fill="#FF0000"/><path d="M14.88 18.81 18.19 18.81 14.85 16.06Z" fill="#FF0000"/><path d="M21.51 18.81 25.8 18.81 27.68 16.06Z" fill="#FF0000"/><path d="M18.2 18.81 18.33 18.81 19.11 18.81 21.51 18.81 21.54 16.06Z" fill="#FF0000"/></g><g><path d="M14.85 16.06 18.19 18.81 18.2 18.81 18.2 16.06Z" fill="#BF2C02"/><path d="M18.2 16.06 18.2 18.81 21.54 16.06Z" fill="#BF6202"/></g><g><path d="M5.48 16.06 10.47 18.8 8.71 16.06Z" fill="#BF6202"/><path d="M2.08 16.06 10.47 18.81 10.47 18.8 5.48 16.06Z" fill="#BF2C02"/><path d="M27.68 16.06 25.8 18.81 30.8 16.06Z" fill="#BF2C02"/><path d="M30.8 16.06 25.8 18.81 34.19 16.06Z" fill="#BF6202"/></g><g><path d="M8.71 16.06 14.88 18.81 11.8 16.06Z" fill="#BF2C02"/><path d="M11.8 16.06 14.88 18.81 14.85 16.06Z" fill="#BF6202"/></g><g><path d="M21.54 16.06 21.51 18.81 21.58 18.78 24.63 16.06Z" fill="#BF2C02"/><path d="M24.63 16.06 21.58 18.78 27.68 16.06Z" fill="#BF6202"/></g><rect x="14.79" y="19.09" width="6.75" height="0.29" fill="#BF6202"/><rect x="10.47" y="18.81" width="15.33" height="0.29" fill="#934703"/></g></g></svg>