<svg width="64.88" height="27.28" viewBox="0 0 64.88 27.28" xmlns="http://www.w3.org/2000/svg" xmlns:xlink="http://www.w3.org/1999/xlink" xml:space="preserve" overflow="hidden"><defs></defs><g><rect x="-1.23" y="13.06" width="67.34" height="1.05" fill="#2353A1" transform="matrix(0.959 -0.2833 0.2833 0.959 -2.5181 9.7457)"/><rect x="-1.18" y="13.43" width="67.34" height="0.67" fill="#163060" transform="matrix(0.959 -0.2833 0.2833 0.959 -2.5676 9.7684)"/></g><g><path d="M42.3 27.28 23.24 27.28 32.88 13.89Z" fill="#E30613"/><path d="M42.3 27.28 23.24 27.28 41.16 26.6 32.88 13.89Z" fill="#E30613"/><path d="M32.56 14.79 23.81 26.82 24.11 26.9Z" fill="#FFFFFF"/></g><g><path d="M15.16 18.33C15.23 18.56 15.09 18.81 14.84 18.89L14.84 18.89C14.59 18.97 14.33 18.85 14.26 18.62L12.26 12.29C12.19 12.06 12.33 11.81 12.58 11.73L12.58 11.73C12.83 11.65 13.09 11.77 13.16 12L15.16 18.33Z" fill="#4D954A"/><path d="M12.76 13.86C13.07 13.79 13.38 13.71 13.68 13.63L13.17 12C13.1 11.77 12.84 11.65 12.59 11.73 12.34 11.81 12.2 12.06 12.27 12.29L12.76 13.86Z" fill="#4D954A"/><path d="M15 17.81C14.7 17.91 14.4 18 14.1 18.1L14.26 18.61C14.33 18.84 14.59 18.96 14.84 18.88 15.09 18.8 15.23 18.55 15.16 18.32L15 17.81Z" fill="#4D954A"/><path d="M13.83 12.43C13.83 12.99 13.38 13.44 12.82 13.44 12.26 13.44 11.81 12.99 11.81 12.43 11.81 11.87 12.26 11.42 12.82 11.42 13.38 11.41 13.83 11.87 13.83 12.43Z" fill="#2353A1"/><path d="M13.49 12.44C13.49 12.82 13.19 13.12 12.81 13.12 12.44 13.12 12.13 12.82 12.13 12.44 12.13 12.07 12.43 11.76 12.81 11.76 13.19 11.76 13.49 12.06 13.49 12.44Z" fill="#E30613"/><path d="M12.97 14.1 14.19 17.82 14.41 17.76 13.23 14Z" fill="#4D954A"/></g><g><path d="M53.67 6.91C53.74 7.14 53.6 7.39 53.35 7.47L53.35 7.47C53.1 7.55 52.84 7.43 52.77 7.2L50.77 0.88C50.7 0.65 50.84 0.4 51.09 0.32L51.09 0.32C51.34 0.24 51.6 0.37 51.67 0.59L53.67 6.91Z" fill="#4D954A"/><path d="M51.27 2.44C51.58 2.37 51.88 2.29 52.19 2.21L51.68 0.58C51.61 0.35 51.35 0.23 51.1 0.31 50.85 0.39 50.71 0.64 50.78 0.87L51.27 2.44Z" fill="#4D954A"/><path d="M53.51 6.4C53.21 6.5 52.91 6.59 52.61 6.69L52.77 7.2C52.84 7.43 53.1 7.55 53.35 7.47 53.6 7.39 53.74 7.14 53.67 6.91L53.51 6.4Z" fill="#4D954A"/><path d="M52.34 1.01C52.34 1.57 51.89 2.02 51.33 2.02 50.77 2.02 50.32 1.57 50.32 1.01 50.32 0.45 50.78 0 51.33 0 51.88 0 52.34 0.45 52.34 1.01Z" fill="#2353A1"/><path d="M52 1.02C52 1.39 51.7 1.7 51.32 1.7 50.95 1.7 50.64 1.4 50.64 1.02 50.64 0.65 50.94 0.34 51.32 0.34 51.7 0.34 52 0.65 52 1.02Z" fill="#E30613"/><path d="M51.48 2.69 52.7 6.41 52.92 6.34 51.73 2.58Z" fill="#4D954A"/></g></svg>