<svg width="31.59" height="60.44" viewBox="0 0 31.59 60.44" xmlns="http://www.w3.org/2000/svg" xmlns:xlink="http://www.w3.org/1999/xlink" xml:space="preserve" overflow="hidden"><defs></defs><g><g id="man_1_"><g id="body_1_"><g id="_x30_4_x5F_man_x5F_smart_x5F_watch_1_"><g id="man_2_"><path d="M8.96 16.89 13.19 16.99C13.19 16.99 13.19 17 13.19 17 11.57 21.1 9.75 25.6 9.38 25.73 8.91 25.9 6.5 23.42 6.5 23.42 6.97 21.37 8.09 18.44 8.96 16.89Z" fill="#F3A984"/><path d="M13.36 11.34C12.23 10.87 11.28 12.22 10.7 12.98 9.96 13.94 9.36 15.02 8.94 16.16 8.73 16.73 8.37 17.46 8.57 18.06 8.79 18.74 9.27 19.24 9.86 19.63 10.31 19.92 10.79 20.15 11.3 20.31 12.19 20.59 12.36 20.04 12.69 19.35 13.06 18.58 13.44 17.82 13.83 17.06 15.17 14.44 14.57 11.84 13.36 11.34Z" fill="#FFC800"/><g><g><g><path d="M30.42 52.43C30.75 52.38 31.73 52.44 31.58 51.07 31.58 51.07 31.19 49.17 31.04 47.58 30.95 46.64 31.4 46.48 31.03 45.48 30.59 44.31 27.33 43.54 26.92 43.96 26.82 44.06 26.57 44.78 26.72 44.89 27.19 45.23 27.42 47.31 27.91 48.98 28.45 50.85 29.4 52.59 30.42 52.43Z" fill="#CED4F1"/><path d="M10.88 36.73C11.47 39.9 12.32 46.35 15.56 45.4 16.58 45.1 17.41 41.39 17.43 40.24 17.47 37.87 19.98 29.89 14.83 28.63 14.06 28.44 12.81 27.05 12.19 27.58 12.06 27.69 11.66 28.2 11.39 29.3 11.23 29.93 10.85 29.15 10.76 29.99 10.61 31.42 10.56 34.98 10.88 36.73Z" fill="#8EA630"/><path d="M13.32 43.81C13.88 44.04 26.56 47.72 27.39 47.56 28.1 47.42 28.69 45.54 28.53 44.53 28.31 43.09 21.25 40.9 20.25 40.52 18.56 39.88 17.45 39.23 15.67 38.58 14.8 38.27 14.06 40.02 13.32 43.81Z" fill="#8EA630"/><path d="M20.87 29.58C20.19 29 17.77 32.58 17.15 31.93 16.58 31.34 19.23 30.07 18.94 29.37 18.79 29.39 16.44 31.55 14.88 34.95 14.05 36.76 13.7 38.27 10.99 42.1 10.73 42.47 10.41 43.32 10.41 43.9 10.41 44.4 10.68 44.62 11 44.98 11.73 45.78 11.87 46.35 13.21 45.89 13.93 45.64 13.08 47.07 13.71 46.66 15.88 45.26 20.53 41.95 22.16 39.92 22.8 39.12 24.41 37.58 24.12 35.17 23.65 31.28 21.26 29.92 20.87 29.58Z" fill="#B1CB4E"/><path d="M23.9 23.24C24.07 21.64 25.53 18.07 24.48 15.91 23.97 14.86 23.07 14.12 22.12 13.48 20.91 12.66 18.5 11.59 16.14 10.85 15.24 10.57 14.09 10.24 13.19 10.69 12.43 11.07 12.08 11.94 11.78 12.69 10.61 15.65 11.53 21.17 10.79 27.66 10.42 30.91 10.8 31.41 11.37 31.97 13.26 33.83 16.12 34.27 18.37 34.12 22.5 33.84 22.74 33.51 23.08 30.61 23.36 28.17 23.63 25.74 23.9 23.24Z" fill="#DADFF6"/></g></g></g></g></g><path d="M26.34 28.66C25.06 26.49 23.3 23.25 21.99 20.43L25.41 16.6C25.73 17.14 25.96 17.81 26.22 18.32 27.29 20.4 28.83 23.9 29.6 26.12 29.92 27.03 28.89 26.68 28.61 27.63 28.49 28.05 28.94 28.48 28.55 28.7 28.05 28.97 26.63 29.14 26.34 28.66Z" fill="#F3A984"/><path d="M25.73 33.4C25.04 33.94 24.39 34.51 24.02 34.73 23.65 34.95 22.08 36.02 21.74 35.75 21.43 35.5 20.15 35.57 20.24 35.19 20.43 34.39 21.34 34.1 22.57 32.51 23.15 31.76 25.32 27.57 25.84 26.85 26.32 26.18 27.43 25.02 28.25 25.12 30.1 25.36 29.95 27.6 29.38 28.86 29.04 29.6 28.01 31.62 25.73 33.4Z" fill="#F3A984"/><g><path d="M22.72 32.52C21.53 32.52 19.6 33.12 19.22 34.03 18.78 35.08 18.59 35.13 18.67 35.51 18.88 36.48 19.31 35.86 19.5 35.98 19.71 36.12 19.58 36.26 19.93 36.84 20.22 37.31 20.32 36.92 20.48 37.01 20.61 37.08 20.59 37.28 20.75 37.31 20.81 37.32 20.85 37.28 20.91 37.3 21.06 37.35 20.98 37.5 21.41 37.59 21.81 37.67 21.46 36.49 22.2 36.03 22.39 35.92 22.59 35.85 22.79 35.76 23.03 35.65 23.25 35.5 23.45 35.31 23.62 35.15 23.94 34.81 24.03 34.75L22.72 32.52Z" fill="#F3A984"/></g><path d="M4.87 30.37C4.6 30.83 4.28 30.61 3.74 30.62 3.21 30.63 2.72 29.3 2.94 28.88 3.61 27.61 6.61 23.26 7.26 21.86 7.52 21.29 9.32 21.89 9.78 22.41 10.85 23.61 9.37 25.74 9.37 25.74 7.63 27.41 5.26 29.72 4.87 30.37Z" fill="#F3A984"/><g><path d="M2.95 28.88C1.81 29.52 0.16 31.08 0.12 32.09 0.06 33.25-0.1 33.39 0.11 33.68 0.65 34.42 0.85 33.64 1.07 33.65 1.32 33.66 1.24 33.86 1.78 34.18 2.22 34.44 2.18 34.05 2.36 34.04 2.51 34.03 2.56 34.22 2.72 34.16 2.78 34.14 2.81 34.07 2.87 34.06 3.03 34.03 3.01 34.2 3.45 34.05 3.87 33.9 3.11 33.06 3.67 32.26 3.81 32.06 3.99 31.89 4.14 31.7 4.33 31.47 4.49 31.22 4.62 30.95 4.73 30.72 4.92 30.25 4.98 30.14L2.95 28.88Z" fill="#F3A984"/></g><path d="M10.63 55.75C6.73 57.49 2.63 57.73 6.21 60.13 7.59 61.05 8.66 59.71 11.79 59.18 13.14 58.95 13.65 57.4 13.33 56.79 13.18 56.5 12.74 56.27 12.5 56.03 12.05 55.56 12.1 55.09 10.63 55.75Z" fill="#CED4F1"/><path d="M10.54 43.21C9.73 46.63 9.13 51.51 9.44 55.72 9.57 57.47 11.34 57.19 11.89 57.36 14.36 58.09 15.82 46.48 15.1 44.32 14.86 43.57 10.65 42.77 10.54 43.21Z" fill="#B1CB4E"/><path d="M21.54 14.47C18.92 15.6 22.5 22.52 23.15 23.13 24.16 24.07 27.66 22.47 27.89 21.58 27.97 21.25 27.82 20.9 27.68 20.59 26.21 17.48 24.61 13.15 21.54 14.47Z" fill="#FFC800"/></g><g id="head_1_"><path d="M19.86 12.77C19.95 15.62 14.6 15.67 14.68 12.99 14.79 9.25 15.01 8.82 16.78 8.25 17.26 8.09 17.77 7.97 18.28 7.96 20.14 7.93 19.42 8.87 19.35 9.53 19.14 11.47 19.83 11.75 19.86 12.77Z" fill="#F3A984"/><g><g><path d="M12.21 3.55C11.16 5.37 11.08 7.7 11.55 9.75 11.86 11.09 12.53 12.47 13.76 13.06 14.49 13.41 15.35 13.42 16.13 13.21 16.91 12.99 17.61 12.56 18.23 12.03 19.15 11.25 20.08 10.15 20.46 8.98 20.6 8.54 20.63 8.05 20.73 7.6 20.89 6.88 21.02 6.14 20.96 5.39 20.9 4.71 20.97 4.09 20.72 3.43 20.49 2.82 20.11 2.27 19.62 1.85 18.77 1.12 17.6 0.8 16.5 0.94 16.11 0.99 15.73 1.09 15.36 1.2 14.54 1.45 13.71 1.76 13.1 2.37 13.09 2.38 13.08 2.39 13.07 2.4 12.73 2.76 12.45 3.14 12.21 3.55Z" fill="#FFBFA2"/><path d="M16.35 4.07C16.66 4.01 16.97 4 17.25 4.11 17.74 4.29 18.05 4.77 18.15 5.26 18.33 6.15 18.13 7.05 18.06 7.94 18.04 8.24 17.93 8.71 18.22 8.89 18.53 9.08 18.65 8.8 18.79 9.62 18.84 9.92 19.06 10.17 19.35 10.27 19.49 10.32 19.14 10.98 19.29 10.97 20.34 10.9 21.5 9.18 21.92 8.32 22.46 7.23 22.72 6.01 22.69 4.79 22.63 1.77 20.4 1.31 20.4 1.31 20.4 1.31 19.35-0.21 16.8 0.03 15.46 0.15 14.16 0.63 13.05 1.36 13 1.38 12.96 1.41 12.92 1.44 12.38 1.81 11.88 2.24 11.55 2.78 10.63 4.27 12.01 5.36 13.6 5.05 14.35 4.9 15.02 4.54 15.73 4.27 15.92 4.19 16.13 4.12 16.35 4.07Z" fill="#29110F"/></g><path d="M19.28 7.92C20.1 7.83 20.35 8.79 19.82 9.56 19.67 9.79 19.39 9.99 19.18 10.18 17.77 11.44 17.34 10.17 17.79 9.74 18.83 8.75 18.26 8.03 19.28 7.92Z" fill="#FFBFA2"/><path d="M18.87 9.79C18.96 9.7 19.87 9.14 19.22 8.81 19.04 8.72 18.85 8.88 18.83 9.05 18.82 9.14 18.85 9.24 18.84 9.33 18.83 9.38 18.81 9.44 18.78 9.49 18.7 9.62 18.43 9.76 18.49 9.94 18.56 10.1 18.82 9.84 18.87 9.79Z" fill="#F3A984"/></g></g></g></g></svg>