<svg width="71.45" height="41.24" viewBox="0 0 71.45 41.24" xmlns="http://www.w3.org/2000/svg" xmlns:xlink="http://www.w3.org/1999/xlink" xml:space="preserve" overflow="hidden"><defs></defs><g><g><g><rect x="59.64" y="9.74" width="1.32" height="0.6" fill="#E21B22"/><rect x="63.54" y="9.74" width="1.32" height="0.6" fill="#E21B22"/><g><g><path d="M65.42 24.45C65.42 22.94 64.51 21.64 63.21 21.06L63.11 20.78 61.72 20.75C59.68 20.75 58.02 22.41 58.02 24.45 58.02 26.33 59.42 27.87 61.23 28.12 62.3 28.28 63.43 28.11 63.43 28.11 63.22 28.1 63.01 28.06 62.8 27.99 64.31 27.53 65.42 26.12 65.42 24.45ZM61.72 26.41C61.36 26.41 61.03 26.31 60.74 26.15 60.68 26.04 60.61 25.51 60.56 25.07L60.93 22.66C61.17 22.55 61.45 22.49 61.73 22.49 62.81 22.49 63.69 23.37 63.69 24.45 63.69 25.53 62.8 26.41 61.72 26.41Z" fill="#26282A"/><path d="M65.14 25.87 63.07 25.87C62.72 26.2 62.24 26.41 61.72 26.41 61.36 26.41 61.03 26.31 60.74 26.15 60.72 26.11 60.69 26.01 60.67 25.87L58.3 25.87C58.8 27.06 59.9 27.94 61.22 28.12 62.29 28.28 63.42 28.11 63.42 28.11 63.21 28.1 63 28.06 62.79 27.99 63.86 27.67 64.71 26.88 65.14 25.87Z" fill="#0D0F11"/><path d="M60.65 25.82C60.61 25.61 60.58 25.33 60.54 25.07L60.91 22.66C61.15 22.55 61.43 22.49 61.71 22.49 62.79 22.49 63.67 23.37 63.67 24.45 63.67 24.98 63.46 25.46 63.12 25.81L65.15 25.81C65.32 25.39 65.41 24.93 65.41 24.45 65.41 22.94 64.5 21.64 63.2 21.06L63.1 20.78 61.71 20.75C59.67 20.75 58.01 22.41 58.01 24.45 58.01 24.93 58.1 25.39 58.27 25.81L60.65 25.81Z" fill="#26282A"/><path d="M64.63 22.17C64.26 21.69 63.77 21.31 63.21 21.07L63.11 20.79 61.72 20.76C60.54 20.76 59.48 21.31 58.81 22.18L64.63 22.18Z" fill="#0F1113"/><g><path d="M64.28 10.38C64.28 13.98 64.28 17.56 64.3 21.19L64.28 10.38 64.28 10.38Z" fill="#00B15A"/><g><g><path d="M64.12 10.38 64.14 21.13C64.24 21.21 64.36 21.27 64.48 21.27L64.46 10.38 64.12 10.38Z" fill="#9F6228"/><path d="M64.12 10.38 64.14 21.13C64.24 21.21 64.36 21.27 64.48 21.27L64.46 10.38 64.12 10.38Z" fill="#9F6228"/><path d="M64.29 10.38 64.31 21.23C64.37 21.25 64.42 21.27 64.48 21.27L64.46 10.38 64.29 10.38Z" fill="#9F6228" opacity="0.6"/><g><path d="M64.35 10.32C64.3 10.27 64.23 10.2 64.14 10.16 64.14 10.16 64.18 10.24 64.25 10.32L64.35 10.32Z" fill="#E28B41" opacity="0.6"/><path d="M64.14 10.78C64.14 10.78 64.24 11.01 64.44 11.05 64.44 11.05 64.33 10.86 64.14 10.78Z" fill="#E28B41" opacity="0.6"/><path d="M64.14 11.36C64.14 11.36 64.24 11.59 64.44 11.63 64.44 11.63 64.33 11.45 64.14 11.36Z" fill="#E28B41" opacity="0.6"/><path d="M64.14 11.98C64.14 11.98 64.24 12.21 64.44 12.25 64.44 12.24 64.33 12.06 64.14 11.98Z" fill="#E28B41" opacity="0.6"/><path d="M64.15 12.59C64.15 12.59 64.25 12.82 64.45 12.86 64.44 12.86 64.33 12.67 64.15 12.59Z" fill="#E28B41" opacity="0.6"/><path d="M64.15 13.2C64.15 13.2 64.25 13.43 64.45 13.47 64.44 13.47 64.33 13.29 64.15 13.2Z" fill="#E28B41" opacity="0.6"/></g><g><path d="M64.15 13.74C64.15 13.74 64.25 13.97 64.45 14.01 64.45 14.01 64.33 13.83 64.15 13.74Z" fill="#E28B41" opacity="0.6"/><path d="M64.15 14.35C64.15 14.35 64.26 14.58 64.45 14.62 64.45 14.62 64.34 14.44 64.15 14.35Z" fill="#E28B41" opacity="0.6"/><path d="M64.15 14.97C64.15 14.97 64.25 15.2 64.45 15.24 64.45 15.23 64.34 15.05 64.15 14.97Z" fill="#E28B41" opacity="0.6"/><path d="M64.15 15.58C64.15 15.58 64.25 15.81 64.45 15.85 64.45 15.85 64.34 15.66 64.15 15.58Z" fill="#E28B41" opacity="0.6"/><path d="M64.15 16.16C64.15 16.16 64.25 16.39 64.45 16.43 64.45 16.43 64.34 16.25 64.15 16.16Z" fill="#E28B41" opacity="0.6"/><path d="M64.15 16.78C64.15 16.78 64.25 17.01 64.45 17.05 64.45 17.04 64.34 16.86 64.15 16.78Z" fill="#E28B41" opacity="0.6"/><path d="M64.15 17.39C64.15 17.39 64.25 17.62 64.45 17.66 64.45 17.66 64.34 17.47 64.15 17.39Z" fill="#E28B41" opacity="0.6"/><path d="M64.16 18C64.16 18 64.26 18.23 64.46 18.27 64.45 18.27 64.34 18.09 64.16 18Z" fill="#E28B41" opacity="0.6"/></g><g><path d="M64.16 18.57C64.16 18.57 64.26 18.8 64.46 18.84 64.45 18.84 64.34 18.65 64.16 18.57Z" fill="#E28B41" opacity="0.6"/><path d="M64.16 19.18C64.16 19.18 64.26 19.41 64.46 19.45 64.46 19.45 64.35 19.26 64.16 19.18Z" fill="#E28B41" opacity="0.6"/><path d="M64.16 19.79C64.16 19.79 64.26 20.02 64.46 20.06 64.46 20.06 64.35 19.88 64.16 19.79Z" fill="#E28B41" opacity="0.6"/><path d="M64.16 20.41C64.16 20.41 64.26 20.64 64.46 20.68 64.46 20.67 64.35 20.49 64.16 20.41Z" fill="#E28B41" opacity="0.6"/><path d="M64.16 20.99C64.16 20.99 64.26 21.22 64.46 21.26 64.46 21.26 64.35 21.08 64.16 20.99Z" fill="#E28B41" opacity="0.6"/></g></g><g><g><path d="M64.12 10.38 64.12 10.41C64.21 10.48 64.34 10.49 64.46 10.46L64.46 10.38 64.12 10.38Z" fill="#E28B41" opacity="0.6"/><path d="M64.21 10.38C64.23 10.39 64.26 10.4 64.28 10.42 64.34 10.45 64.44 10.43 64.49 10.38L64.21 10.38Z" fill="#CC7E39"/></g><g><path d="M64.47 13.21 64.47 12.6C64.43 12.62 64.38 12.64 64.34 12.62 64.28 12.6 64.2 12.49 64.13 12.51L64.13 13.15C64.22 13.22 64.35 13.24 64.47 13.21Z" fill="#E28B41" opacity="0.6"/><path d="M64.06 12.9C64.09 12.87 64.13 12.84 64.17 12.82 64.25 12.77 64.34 12.68 64.44 12.67 64.49 12.66 64.54 12.69 64.56 12.74 64.6 12.83 64.54 12.96 64.48 13.02 64.41 13.1 64.31 13.12 64.21 13.13 64.14 13.13 64.06 13.09 64.03 13.02 64.01 12.98 64.03 12.94 64.06 12.9Z" fill="#CC7E39"/><path d="M64.35 12.7C64.29 12.73 64.23 12.79 64.17 12.82 64.14 12.84 64.1 12.86 64.06 12.9 64.05 12.91 64.04 12.93 64.03 12.94 64.07 13.02 64.12 13.09 64.19 13.14 64.19 13.14 64.2 13.14 64.21 13.14 64.31 13.13 64.41 13.1 64.48 13.03 64.51 13 64.53 12.97 64.55 12.93 64.47 12.86 64.4 12.79 64.35 12.7Z" fill="#E28B41" opacity="0.6"/><path d="M64.51 13.12C64.46 13.18 64.36 13.2 64.29 13.17 64.19 13.13 64.09 13.06 64.04 12.95 64 12.86 63.98 12.71 64.05 12.63 64.09 12.59 64.15 12.57 64.2 12.6 64.3 12.65 64.35 12.78 64.43 12.86 64.46 12.89 64.49 12.93 64.51 12.98 64.54 13.02 64.54 13.07 64.51 13.12Z" fill="#CC7E39"/><path d="M64.26 13.1C64.16 13 64.02 12.81 64.07 12.66 64.07 12.65 64.06 12.66 64.06 12.66 63.94 12.83 64.12 13.03 64.25 13.11 64.26 13.11 64.26 13.1 64.26 13.1Z" fill="#E28B41"/></g><g><path d="M64.47 15.96 64.47 15.35C64.43 15.37 64.38 15.39 64.34 15.37 64.28 15.35 64.2 15.25 64.13 15.26L64.13 15.9C64.22 15.98 64.35 15.99 64.47 15.96Z" fill="#E28B41" opacity="0.6"/><path d="M64.07 15.65C64.1 15.62 64.14 15.59 64.18 15.57 64.26 15.52 64.35 15.43 64.45 15.42 64.5 15.41 64.55 15.44 64.57 15.49 64.61 15.58 64.55 15.71 64.49 15.77 64.42 15.84 64.32 15.87 64.22 15.88 64.16 15.89 64.07 15.84 64.04 15.77 64.01 15.73 64.04 15.69 64.07 15.65Z" fill="#CC7E39"/><path d="M64.35 15.46C64.29 15.5 64.23 15.55 64.17 15.58 64.14 15.6 64.09 15.62 64.06 15.66 64.05 15.67 64.04 15.69 64.03 15.7 64.06 15.78 64.12 15.85 64.19 15.9 64.2 15.9 64.2 15.9 64.21 15.9 64.31 15.89 64.41 15.86 64.48 15.79 64.51 15.76 64.53 15.73 64.55 15.69 64.48 15.61 64.4 15.54 64.35 15.46Z" fill="#E28B41" opacity="0.6"/><path d="M64.51 15.87C64.46 15.93 64.36 15.94 64.29 15.92 64.19 15.88 64.09 15.81 64.04 15.7 64 15.61 63.98 15.46 64.05 15.38 64.09 15.34 64.15 15.32 64.2 15.35 64.3 15.4 64.35 15.53 64.43 15.61 64.46 15.64 64.49 15.68 64.51 15.73 64.54 15.77 64.55 15.83 64.51 15.87Z" fill="#CC7E39"/><path d="M64.27 15.85C64.17 15.75 64.03 15.56 64.08 15.41 64.08 15.4 64.07 15.41 64.07 15.41 63.95 15.58 64.13 15.78 64.26 15.86 64.26 15.87 64.27 15.86 64.27 15.85Z" fill="#E28B41"/></g><g><path d="M64.48 18.72 64.48 18.11C64.44 18.14 64.39 18.15 64.35 18.13 64.29 18.1 64.21 18.01 64.14 18.02L64.14 18.66C64.23 18.73 64.36 18.75 64.48 18.72Z" fill="#E28B41" opacity="0.6"/><path d="M64.07 18.41C64.1 18.38 64.14 18.35 64.18 18.33 64.27 18.28 64.35 18.19 64.45 18.18 64.5 18.17 64.55 18.21 64.57 18.26 64.61 18.35 64.55 18.47 64.49 18.54 64.42 18.62 64.32 18.64 64.22 18.65 64.15 18.65 64.07 18.61 64.04 18.54 64.02 18.49 64.04 18.44 64.07 18.41Z" fill="#CC7E39"/><path d="M64.36 18.21C64.3 18.25 64.24 18.3 64.18 18.33 64.15 18.35 64.11 18.37 64.07 18.41 64.06 18.42 64.05 18.44 64.04 18.45 64.07 18.53 64.13 18.59 64.2 18.65 64.21 18.65 64.21 18.65 64.22 18.65 64.32 18.64 64.42 18.61 64.49 18.54 64.52 18.51 64.54 18.48 64.56 18.44 64.48 18.37 64.41 18.3 64.36 18.21Z" fill="#E28B41" opacity="0.6"/><path d="M64.52 18.63C64.47 18.69 64.37 18.7 64.3 18.67 64.2 18.63 64.1 18.56 64.05 18.45 64.01 18.36 63.99 18.21 64.06 18.13 64.1 18.09 64.16 18.07 64.21 18.1 64.31 18.15 64.36 18.28 64.44 18.36 64.47 18.39 64.5 18.43 64.52 18.48 64.55 18.53 64.55 18.58 64.52 18.63Z" fill="#CC7E39"/><path d="M64.27 18.61C64.17 18.51 64.03 18.32 64.08 18.17 64.08 18.16 64.07 18.17 64.07 18.17 63.95 18.34 64.13 18.54 64.26 18.62 64.27 18.62 64.27 18.61 64.27 18.61Z" fill="#E28B41"/></g><g><path d="M64.08 21.16C64.11 21.13 64.15 21.1 64.19 21.08 64.27 21.03 64.36 20.94 64.46 20.93 64.51 20.92 64.56 20.95 64.58 21.01 64.62 21.1 64.56 21.22 64.5 21.29 64.43 21.37 64.32 21.39 64.23 21.4 64.16 21.4 64.08 21.36 64.05 21.29 64.02 21.24 64.04 21.2 64.08 21.16Z" fill="#CC7E39"/><path d="M64.36 20.96C64.3 20.99 64.24 21.05 64.18 21.08 64.15 21.1 64.11 21.12 64.07 21.16 64.06 21.17 64.05 21.19 64.04 21.2 64.07 21.28 64.13 21.35 64.2 21.4 64.2 21.4 64.21 21.4 64.22 21.4 64.32 21.39 64.42 21.36 64.49 21.29 64.51 21.26 64.54 21.23 64.56 21.19 64.49 21.12 64.41 21.05 64.36 20.96Z" fill="#E28B41" opacity="0.6"/><path d="M64.52 21.38C64.47 21.44 64.37 21.45 64.3 21.42 64.2 21.38 64.1 21.31 64.05 21.2 64.01 21.11 63.99 20.96 64.06 20.88 64.1 20.84 64.16 20.82 64.21 20.85 64.31 20.9 64.36 21.03 64.44 21.11 64.47 21.14 64.5 21.18 64.52 21.23 64.55 21.28 64.56 21.34 64.52 21.38Z" fill="#CC7E39"/><path d="M64.28 21.36C64.18 21.26 64.04 21.07 64.09 20.92 64.09 20.91 64.08 20.92 64.08 20.92 63.96 21.09 64.14 21.29 64.27 21.37 64.27 21.37 64.28 21.36 64.28 21.36Z" fill="#E28B41"/></g></g></g></g><path d="M62.87 20.78C60.83 20.78 59.17 22.43 59.17 24.47 59.17 26.51 60.83 28.16 62.87 28.16 64.91 28.16 66.57 26.51 66.57 24.47 66.57 22.43 64.91 20.78 62.87 20.78ZM62.87 26.42C61.79 26.42 60.91 25.55 60.91 24.47 60.91 23.39 61.79 22.52 62.87 22.52 63.95 22.52 64.83 23.4 64.83 24.47 64.83 25.54 63.95 26.42 62.87 26.42Z" fill="#303234"/><path d="M62.87 20.78C60.83 20.78 59.17 22.43 59.17 24.47 59.17 26.51 60.83 28.16 62.87 28.16 64.91 28.16 66.57 26.51 66.57 24.47 66.57 22.43 64.91 20.78 62.87 20.78ZM62.87 26.42C61.79 26.42 60.91 25.55 60.91 24.47 60.91 23.39 61.79 22.52 62.87 22.52 63.95 22.52 64.83 23.4 64.83 24.47 64.83 25.54 63.95 26.42 62.87 26.42Z" fill="#303234"/><g><path d="M60.38 10.38C60.38 13.98 60.38 17.56 60.4 21.19L60.38 10.38 60.38 10.38Z" fill="#00B15A"/><g><g><path d="M60.22 10.38 60.24 21.13C60.34 21.21 60.46 21.27 60.58 21.27L60.56 10.38 60.22 10.38Z" fill="#9F6228"/><path d="M60.22 10.38 60.24 21.13C60.34 21.21 60.46 21.27 60.58 21.27L60.56 10.38 60.22 10.38Z" fill="#9F6228"/><path d="M60.39 10.38 60.41 21.23C60.47 21.25 60.52 21.27 60.58 21.27L60.56 10.38 60.39 10.38Z" fill="#9F6228" opacity="0.6"/><g><path d="M60.45 10.32C60.4 10.27 60.33 10.2 60.24 10.16 60.24 10.16 60.28 10.24 60.35 10.32L60.45 10.32Z" fill="#E28B41" opacity="0.6"/><path d="M60.24 10.78C60.24 10.78 60.34 11.01 60.54 11.05 60.54 11.05 60.43 10.86 60.24 10.78Z" fill="#E28B41" opacity="0.6"/><path d="M60.24 11.36C60.24 11.36 60.34 11.59 60.54 11.63 60.54 11.63 60.43 11.45 60.24 11.36Z" fill="#E28B41" opacity="0.6"/><path d="M60.24 11.98C60.24 11.98 60.34 12.21 60.54 12.25 60.54 12.24 60.43 12.06 60.24 11.98Z" fill="#E28B41" opacity="0.6"/><path d="M60.24 12.59C60.24 12.59 60.34 12.82 60.54 12.86 60.54 12.86 60.43 12.67 60.24 12.59Z" fill="#E28B41" opacity="0.6"/><path d="M60.24 13.2C60.24 13.2 60.34 13.43 60.54 13.47 60.54 13.47 60.43 13.29 60.24 13.2Z" fill="#E28B41" opacity="0.6"/></g><g><path d="M60.24 13.74C60.24 13.74 60.34 13.97 60.54 14.01 60.54 14.01 60.43 13.83 60.24 13.74Z" fill="#E28B41" opacity="0.6"/><path d="M60.25 14.35C60.25 14.35 60.35 14.58 60.55 14.62 60.54 14.62 60.43 14.44 60.25 14.35Z" fill="#E28B41" opacity="0.6"/><path d="M60.25 14.97C60.25 14.97 60.35 15.2 60.55 15.24 60.54 15.23 60.43 15.05 60.25 14.97Z" fill="#E28B41" opacity="0.6"/><path d="M60.25 15.58C60.25 15.58 60.35 15.81 60.55 15.85 60.55 15.85 60.44 15.66 60.25 15.58Z" fill="#E28B41" opacity="0.6"/><path d="M60.25 16.16C60.25 16.16 60.35 16.39 60.55 16.43 60.55 16.43 60.44 16.25 60.25 16.16Z" fill="#E28B41" opacity="0.6"/><path d="M60.25 16.78C60.25 16.78 60.35 17.01 60.55 17.05 60.55 17.04 60.44 16.86 60.25 16.78Z" fill="#E28B41" opacity="0.6"/><path d="M60.25 17.39C60.25 17.39 60.35 17.62 60.55 17.66 60.55 17.66 60.44 17.47 60.25 17.39Z" fill="#E28B41" opacity="0.6"/><path d="M60.25 18C60.25 18 60.35 18.23 60.55 18.27 60.55 18.27 60.44 18.09 60.25 18Z" fill="#E28B41" opacity="0.6"/></g><g><path d="M60.25 18.57C60.25 18.57 60.35 18.8 60.55 18.84 60.55 18.84 60.44 18.65 60.25 18.57Z" fill="#E28B41" opacity="0.6"/><path d="M60.25 19.18C60.25 19.18 60.35 19.41 60.55 19.45 60.55 19.45 60.44 19.26 60.25 19.18Z" fill="#E28B41" opacity="0.6"/><path d="M60.25 19.79C60.25 19.79 60.35 20.02 60.55 20.06 60.55 20.06 60.44 19.88 60.25 19.79Z" fill="#E28B41" opacity="0.6"/><path d="M60.26 20.41C60.26 20.41 60.36 20.64 60.56 20.68 60.55 20.67 60.44 20.49 60.26 20.41Z" fill="#E28B41" opacity="0.6"/><path d="M60.26 20.99C60.26 20.99 60.36 21.22 60.56 21.26 60.55 21.26 60.44 21.08 60.26 20.99Z" fill="#E28B41" opacity="0.6"/></g></g><g><g><path d="M60.22 10.38 60.22 10.41C60.31 10.48 60.45 10.49 60.56 10.46L60.56 10.38 60.22 10.38Z" fill="#E28B41" opacity="0.6"/><path d="M60.31 10.38C60.33 10.39 60.36 10.4 60.38 10.42 60.44 10.45 60.54 10.43 60.59 10.38L60.31 10.38Z" fill="#CC7E39"/></g><g><path d="M60.56 13.21 60.56 12.6C60.52 12.62 60.47 12.64 60.43 12.62 60.37 12.6 60.29 12.49 60.22 12.51L60.22 13.15C60.32 13.22 60.45 13.24 60.56 13.21Z" fill="#E28B41" opacity="0.6"/><path d="M60.16 12.9C60.19 12.87 60.23 12.84 60.26 12.82 60.35 12.77 60.43 12.68 60.53 12.67 60.58 12.66 60.63 12.69 60.65 12.74 60.69 12.83 60.63 12.96 60.57 13.02 60.5 13.1 60.39 13.12 60.3 13.13 60.23 13.13 60.15 13.09 60.12 13.02 60.1 12.98 60.13 12.94 60.16 12.9Z" fill="#CC7E39"/><path d="M60.44 12.7C60.38 12.73 60.32 12.79 60.26 12.82 60.23 12.84 60.19 12.86 60.16 12.9 60.15 12.91 60.14 12.93 60.13 12.94 60.16 13.02 60.22 13.09 60.29 13.14 60.29 13.14 60.3 13.14 60.31 13.14 60.41 13.13 60.51 13.1 60.58 13.03 60.61 13 60.63 12.97 60.65 12.93 60.57 12.86 60.49 12.79 60.44 12.7Z" fill="#E28B41" opacity="0.6"/><path d="M60.6 13.12C60.55 13.18 60.45 13.2 60.38 13.17 60.28 13.13 60.18 13.06 60.13 12.95 60.09 12.86 60.07 12.71 60.14 12.63 60.18 12.59 60.24 12.57 60.29 12.6 60.39 12.65 60.44 12.78 60.52 12.86 60.55 12.89 60.58 12.93 60.6 12.98 60.63 13.02 60.64 13.07 60.6 13.12Z" fill="#CC7E39"/><path d="M60.36 13.1C60.26 13 60.12 12.81 60.17 12.66 60.17 12.65 60.16 12.66 60.16 12.66 60.04 12.83 60.22 13.03 60.35 13.11 60.35 13.11 60.36 13.1 60.36 13.1Z" fill="#E28B41"/></g><g><path d="M60.57 15.96 60.57 15.35C60.53 15.37 60.48 15.39 60.44 15.37 60.38 15.35 60.3 15.25 60.23 15.26L60.23 15.9C60.32 15.98 60.45 15.99 60.57 15.96Z" fill="#E28B41" opacity="0.6"/><path d="M60.17 15.65C60.2 15.62 60.24 15.59 60.28 15.57 60.37 15.52 60.45 15.43 60.55 15.42 60.6 15.41 60.65 15.44 60.67 15.49 60.71 15.58 60.65 15.71 60.59 15.77 60.52 15.84 60.41 15.87 60.31 15.88 60.25 15.89 60.16 15.84 60.13 15.77 60.11 15.73 60.13 15.69 60.17 15.65Z" fill="#CC7E39"/><path d="M60.45 15.46C60.39 15.5 60.33 15.55 60.27 15.58 60.24 15.6 60.2 15.62 60.16 15.66 60.15 15.67 60.14 15.69 60.13 15.7 60.16 15.78 60.22 15.85 60.29 15.9 60.3 15.9 60.3 15.9 60.31 15.9 60.41 15.89 60.51 15.86 60.59 15.79 60.62 15.76 60.64 15.73 60.66 15.69 60.57 15.61 60.5 15.54 60.45 15.46Z" fill="#E28B41" opacity="0.6"/><path d="M60.61 15.87C60.56 15.93 60.46 15.94 60.39 15.92 60.29 15.88 60.19 15.81 60.14 15.7 60.1 15.61 60.08 15.46 60.15 15.38 60.19 15.34 60.25 15.32 60.3 15.35 60.4 15.4 60.45 15.53 60.53 15.61 60.56 15.64 60.59 15.68 60.61 15.73 60.64 15.77 60.65 15.83 60.61 15.87Z" fill="#CC7E39"/><path d="M60.36 15.85C60.26 15.75 60.12 15.56 60.17 15.41 60.17 15.4 60.17 15.41 60.16 15.41 60.04 15.58 60.22 15.78 60.35 15.86 60.36 15.87 60.37 15.86 60.36 15.85Z" fill="#E28B41"/></g><g><path d="M60.57 18.72 60.57 18.11C60.53 18.14 60.48 18.15 60.44 18.13 60.38 18.1 60.3 18.01 60.23 18.02L60.23 18.66C60.32 18.73 60.46 18.75 60.57 18.72Z" fill="#E28B41" opacity="0.6"/><path d="M60.17 18.41C60.2 18.38 60.24 18.35 60.28 18.33 60.36 18.28 60.45 18.19 60.55 18.18 60.6 18.17 60.65 18.21 60.67 18.26 60.71 18.35 60.65 18.47 60.59 18.54 60.52 18.62 60.41 18.64 60.31 18.65 60.25 18.65 60.16 18.61 60.13 18.54 60.11 18.49 60.14 18.44 60.17 18.41Z" fill="#CC7E39"/><path d="M60.45 18.21C60.39 18.25 60.33 18.3 60.27 18.33 60.24 18.35 60.19 18.37 60.16 18.41 60.15 18.42 60.14 18.44 60.13 18.45 60.16 18.53 60.22 18.59 60.29 18.65 60.29 18.65 60.3 18.65 60.3 18.65 60.4 18.64 60.5 18.61 60.58 18.54 60.61 18.51 60.63 18.48 60.65 18.44 60.58 18.37 60.5 18.3 60.45 18.21Z" fill="#E28B41" opacity="0.6"/><path d="M60.61 18.63C60.56 18.69 60.46 18.7 60.39 18.67 60.29 18.63 60.19 18.56 60.14 18.45 60.1 18.36 60.08 18.21 60.15 18.13 60.19 18.09 60.25 18.07 60.3 18.1 60.4 18.15 60.45 18.28 60.53 18.36 60.56 18.39 60.59 18.43 60.61 18.48 60.64 18.53 60.65 18.58 60.61 18.63Z" fill="#CC7E39"/><path d="M60.37 18.61C60.27 18.51 60.13 18.32 60.18 18.17 60.18 18.16 60.17 18.17 60.17 18.17 60.05 18.34 60.23 18.54 60.36 18.62 60.36 18.62 60.37 18.61 60.37 18.61Z" fill="#E28B41"/></g><g><path d="M60.17 21.16C60.2 21.13 60.24 21.1 60.28 21.08 60.36 21.03 60.45 20.94 60.55 20.93 60.6 20.92 60.65 20.95 60.67 21.01 60.71 21.1 60.65 21.22 60.59 21.29 60.52 21.37 60.41 21.39 60.32 21.4 60.25 21.4 60.17 21.36 60.14 21.29 60.12 21.24 60.14 21.2 60.17 21.16Z" fill="#CC7E39"/><path d="M60.46 20.96C60.4 20.99 60.34 21.05 60.28 21.08 60.25 21.1 60.21 21.12 60.17 21.16 60.16 21.17 60.15 21.19 60.14 21.2 60.17 21.28 60.23 21.35 60.3 21.4 60.31 21.4 60.31 21.4 60.32 21.4 60.42 21.39 60.52 21.36 60.59 21.29 60.62 21.26 60.64 21.23 60.66 21.19 60.58 21.12 60.51 21.05 60.46 20.96Z" fill="#E28B41" opacity="0.6"/><path d="M60.62 21.38C60.57 21.44 60.47 21.45 60.4 21.42 60.3 21.38 60.2 21.31 60.15 21.2 60.11 21.11 60.09 20.96 60.16 20.88 60.2 20.84 60.26 20.82 60.31 20.85 60.41 20.9 60.46 21.03 60.54 21.11 60.57 21.14 60.6 21.18 60.62 21.23 60.65 21.28 60.66 21.34 60.62 21.38Z" fill="#CC7E39"/><path d="M60.37 21.36C60.27 21.26 60.13 21.07 60.18 20.92 60.18 20.91 60.17 20.92 60.17 20.92 60.05 21.09 60.23 21.29 60.36 21.37 60.37 21.37 60.38 21.36 60.37 21.36Z" fill="#E28B41"/></g></g></g></g><path d="M62.96 26.99C61.55 26.99 60.4 25.84 60.4 24.43 60.4 23.02 61.55 21.87 62.96 21.87 64.37 21.87 65.52 23.02 65.52 24.43 65.52 25.84 64.37 26.99 62.96 26.99ZM62.96 21.93C61.58 21.93 60.46 23.05 60.46 24.43 60.46 25.81 61.58 26.93 62.96 26.93 64.34 26.93 65.46 25.81 65.46 24.43 65.46 23.05 64.34 21.93 62.96 21.93Z" fill="#595A5D"/><path d="M61.8 21.07C61.8 21.07 58.76 22.35 59.5 25.77 59.5 25.77 58.39 22.74 61.8 21.07Z" fill="#595A5D"/></g><path d="M71.08 32.72C70.88 32.72 70.71 32.55 70.71 32.35L70.71 13.91C70.66 12.68 69.94 11.78 68.57 11.23 67.53 10.81 66.47 10.76 66.39 10.76L50.15 10.76C49.95 10.76 49.78 10.6 49.78 10.39 49.78 10.19 49.95 10.02 50.15 10.02L66.4 10.02C66.4 10.02 66.41 10.02 66.41 10.02 66.46 10.02 67.62 10.06 68.82 10.54 70.48 11.19 71.38 12.35 71.45 13.89 71.45 13.89 71.45 13.9 71.45 13.9L71.45 32.35C71.45 32.56 71.28 32.72 71.08 32.72Z" fill="#FABD2D"/><path d="M55.53 10.22 67.27 10.22C71.34 10.9 71.2 13.73 71.2 13.73 71.2 13.73 70.82 11.17 67.92 10.55 67.92 10.55 67.41 10.37 66.75 10.37 66.07 10.36 55.53 10.22 55.53 10.22Z" fill="#FFFFFF"/></g></g><g><path d="M59.91 33.02 50.91 9.4C50.91 9.4 50.7 8.89 50.05 8.93 49.41 8.98 48.56 9.05 48.56 9.05L48.57 9.92 49.65 11.29 49.65 33 59.91 33.02Z" fill="#E21B22"/><path d="M49.28 9.4C49.28 9.4 48.79 8.76 48.2 9.21 48.13 9.31 48.08 9.42 48.02 9.52L48.02 33 58.28 33.02 49.28 9.4Z" fill="#0079AB"/></g><g><path d="M57.61 33.02 48.82 9.89 20.1 9.89 29.43 33.05 39.07 33.02Z" fill="#B57C56"/><path d="M51.25 16.29 48.82 9.89 20.1 9.89 22.68 16.29Z" fill="#B57C56"/><path d="M26.89 26.74 29.43 33.05 39.07 33.02 57.61 33.02 55.22 26.74Z" fill="#986948"/><g><path d="M49.9 12.75 21.26 12.75 21.37 13.05 50.02 13.05Z" fill="#B57C56"/><path d="M51.23 16.24 22.66 16.24 22.78 16.54 51.34 16.54Z" fill="#B57C56"/><path d="M52.55 19.73 24.07 19.73 24.18 20.02 52.67 20.02Z" fill="#B57C56"/><path d="M53.88 23.22 25.47 23.22 25.59 23.51 53.99 23.51Z" fill="#B57C56"/><path d="M55.21 26.71 26.88 26.71 26.99 27 55.32 27Z" fill="#B57C56"/><path d="M28.28 30.19 28.4 30.49 56.64 30.49 56.53 30.19Z" fill="#B57C56"/></g></g><g><path d="M30.48 33.02 21.48 9.4C21.48 9.4 21.27 8.89 20.62 8.93 19.98 8.98 19.13 9.05 19.13 9.05L19.14 9.92 20.22 11.29 20.22 33 30.48 33.02Z" fill="#E21B22"/><path d="M19.85 9.4C19.85 9.4 19.37 8.76 18.77 9.21 18.7 9.31 18.65 9.42 18.59 9.52L18.59 33 28.85 33.02 19.85 9.4Z" fill="#0079AB"/></g><g><g><g><path d="M15.71 15.6C15.71 15.6 19.27 15.64 19.75 15.64 20.23 15.64 20.54 15.89 20.53 16.34 20.52 16.96 20.02 16.89 19.16 16.9 18.3 16.91 15.85 16.9 15.85 16.9L15.71 15.6Z" fill="#77D7E6"/></g><g><path d="M16.36 15.86C16.36 15.78 16.36 15.69 16.36 15.61 15.97 15.61 15.7 15.6 15.7 15.6L15.84 16.9C15.84 16.9 16.04 16.9 16.35 16.9 16.36 16.55 16.36 16.21 16.36 15.86Z" fill="#77D7E6"/></g><g><path d="M15.2 10.79C15.2 10.79 15.58 11.06 17.14 11.02 18.7 10.99 19.07 10.75 19.3 10.62 19.54 10.5 19.94 10.7 20.11 11.26 20.42 12.3 20.54 12.94 19.28 12.97 18.02 13 15.64 12.96 15.64 12.96L15.2 10.79Z" fill="#77D7E6"/><path d="M15.2 10.79C15.2 10.79 15.58 11.06 17.14 11.02 18.7 10.99 19.07 10.75 19.3 10.62 19.54 10.5 19.94 10.7 20.11 11.26 20.42 12.3 20.54 12.94 19.28 12.97 18.02 13 15.64 12.96 15.64 12.96L15.2 10.79Z" fill="#77D7E6"/><path d="M16.18 12.47C16.09 11.96 15.98 11.43 15.75 10.96 15.75 10.95 15.74 10.95 15.74 10.94 15.33 10.87 15.2 10.78 15.2 10.78L15.64 12.95C15.64 12.95 15.88 12.95 16.25 12.96 16.23 12.81 16.2 12.64 16.18 12.47Z" fill="#77D7E6"/><path d="M16.42 11.11C16.42 11.11 18.02 11.16 18.85 10.96 19.69 10.74 20.03 11.09 18.31 11.36 17.29 11.51 15.66 11.29 16.42 11.11Z" fill="#77D7E6"/></g><g><path d="M15.92 20.06C15.92 20.06 19.61 20.07 19.92 20.07 20.23 20.07 20.67 20.12 20.66 20.73 20.65 21.33 19.82 21.25 18.94 21.24 18.07 21.23 15.94 21.2 15.94 21.2L15.92 20.06Z" fill="#77D7E6"/><path d="M16.42 20.29C16.42 20.22 16.42 20.14 16.42 20.07 16.11 20.07 15.92 20.07 15.92 20.07L15.93 21.21C15.93 21.21 16.13 21.21 16.43 21.22 16.43 20.9 16.43 20.6 16.42 20.29Z" fill="#77D7E6"/><path d="M17.04 20.13C17.04 20.13 19.35 20.13 19.81 20.13 20.27 20.13 20.25 20.4 18.88 20.44 17.52 20.48 15.88 20.23 17.04 20.13Z" fill="#77D7E6"/><path d="M16.68 15.8C16.68 15.8 18.99 15.8 19.45 15.8 19.91 15.8 19.89 16.07 18.53 16.11 17.16 16.14 15.52 15.89 16.68 15.8Z" fill="#77D7E6"/></g><g><path d="M15.89 24.12C15.89 24.12 20 24.14 20.33 24.14 20.91 24.14 21.09 24.41 21.09 24.76 21.09 25.11 20.89 25.28 20.23 25.28 19.57 25.28 15.95 25.28 15.95 25.28L15.89 24.12Z" fill="#77D7E6"/><path d="M16.44 24.12C16.11 24.12 15.89 24.12 15.89 24.12L15.95 25.28C15.95 25.28 16.14 25.28 16.44 25.28 16.45 24.9 16.45 24.51 16.44 24.12Z" fill="#77D7E6"/><path d="M16.85 24.31C16.85 24.31 19.14 24.25 19.91 24.27 20.68 24.29 20.53 24.5 19.41 24.56 18.29 24.61 15.27 24.48 16.85 24.31Z" fill="#77D7E6"/></g><g><path d="M15.89 28.85C15.89 28.85 18.82 28.89 19.7 28.89 20.58 28.89 21.2 28.98 21.2 29.55 21.2 30.11 20.6 30.14 20.02 30.14 19.44 30.14 15.97 30.14 15.97 30.14L15.89 28.85Z" fill="#77D7E6"/><path d="M16.42 28.86C16.1 28.86 15.89 28.85 15.89 28.85L15.97 30.14C15.97 30.14 16.15 30.14 16.43 30.14 16.42 29.71 16.41 29.28 16.42 28.86Z" fill="#77D7E6"/><path d="M17.15 29.03C17.15 29.03 19.44 28.97 20.21 28.99 20.98 29.01 20.83 29.22 19.71 29.28 18.6 29.34 15.57 29.21 17.15 29.03Z" fill="#77D7E6"/></g></g><path d="M15.8 14.98C15.61 11.05 14.73 8 12.62 8 12.29 8 11.95 8.1 11.62 8.34 11.85 8.27 12.1 8.24 12.37 8.28 13.63 8.47 14.82 11.27 14.92 17.08 15 21.81 14.82 30.03 14.76 32.92L14.89 33.21C14.89 33.21 15.93 33.49 15.96 32.58 15.99 31.67 15.99 18.91 15.8 14.98Z" fill="#A31115"/><g><path d="M14.92 17.08C14.83 11.26 13.63 8.46 12.37 8.28 12.1 8.24 11.85 8.27 11.62 8.34 10.84 8.91 10.13 10.28 9.79 13.13 9.32 17.19 9.35 21.27 9.35 21.27L11.35 25.59C11.42 22.67 11.68 14.07 12.18 13.94 12.68 13.81 12.74 24.89 12.75 28.6L14.76 32.93C14.82 30.03 14.99 21.81 14.92 17.08Z" fill="#E21B22"/><g><path d="M12.08 13.35C11.94 13.28 11.84 13.31 11.73 13.44 11.57 13.92 11.44 14.82 11.29 16.37 11.13 18.07 10.93 21.9 10.81 24.42L11.35 25.59C11.42 22.67 11.68 14.07 12.18 13.94 12.24 13.92 12.3 14.1 12.35 14.42 12.35 14.27 12.29 13.46 12.08 13.35Z" fill="#A31115"/></g></g><path d="M15.77 33.59C13.79 32.39 13.7 30.85 13.7 28.21 13.7 25.57 11.34 22.68 9.45 19.66 7.85 17.1 9.17 15.02 9.6 14.44 9.67 14.12 9.74 13.81 9.77 13.48 9.77 13.45 9.78 13.42 9.79 13.39 9.81 13.19 9.83 12.99 9.86 12.78 9.9 12.33 9.97 11.88 10.06 11.44 4.96 12.53 2.58 15.26 1.92 16.69 1.26 18.14 1.7 21.53 3.59 23.48 5.48 25.43 5.63 27.06 5.73 27.88 5.82 28.7 5.67 30.21 6.14 31.81 6.61 33.41 8.22 34.07 9.19 34.67 10.16 35.27 9.79 36.43 10.42 36.53 11.05 36.62 14.92 36.56 16.05 36.5 17.18 36.44 17.4 36.12 17.43 35.93 17.6 34.95 17.5 34.69 15.77 33.59Z" fill="#0093CF"/><path d="M4.98 16.76C6.14 17.03 7.49 17.07 8.7 16.74 8.81 15.61 9.35 14.78 9.61 14.44 9.68 14.12 9.75 13.81 9.78 13.48 9.78 13.45 9.79 13.42 9.8 13.39 9.82 13.19 9.84 12.99 9.87 12.78 9.91 12.33 9.98 11.88 10.07 11.44 6.01 12.31 3.67 14.22 2.56 15.68 3.28 16.21 4.13 16.56 4.98 16.76Z" fill="#0093CF" opacity="0.4"/><g opacity="0.5"><linearGradient x1="5.6157" y1="11.7447" x2="5.6157" y2="37.3969" gradientUnits="userSpaceOnUse" id="SVGID_1_"><stop offset="0.031" stop-color="#8AF205"/><stop offset="0.2267" stop-color="#447E0E"/><stop offset="0.2661" stop-color="#44750E"/><stop offset="0.3662" stop-color="#44610E"/><stop offset="0.4616" stop-color="#67AB09"/><stop offset="0.5368" stop-color="#80DE06"/><stop offset="0.5735" stop-color="#8AF205"/><stop offset="0.713" stop-color="#447E0E"/><stop offset="0.7596" stop-color="#44750E"/><stop offset="0.8777" stop-color="#44610E"/><stop offset="0.9276" stop-color="#67AB09"/><stop offset="0.967" stop-color="#80DE06"/><stop offset="0.9862" stop-color="#8AF205"/></linearGradient><path d="M9.91 12.39C9.95 12.08 10 11.76 10.07 11.45 4.97 12.54 2.59 15.27 1.93 16.7 1.33 18.02 1.64 20.95 3.13 22.94 0.53 15.78 8.11 12.9 9.91 12.39Z" fill="#01568F"/><path d="M15.77 33.59C13.79 32.39 13.7 30.85 13.7 28.21 13.7 25.57 11.34 22.68 9.45 19.66 7.85 17.1 9.17 15.02 9.6 14.44 9.65 14.23 9.69 14.01 9.73 13.8 8.36 15.25 6.62 18.14 8.91 22.3 11.69 26.77 11.94 26.62 12.41 29.85 12.82 32.73 13.48 34.96 16.97 36.35 17.32 36.23 17.42 36.06 17.44 35.94 17.6 34.95 17.5 34.69 15.77 33.59Z" fill="#01568F"/><path d="M5.61 27.03C5.62 27.06 5.62 27.09 5.63 27.12 5.63 27.06 5.63 27.03 5.63 27.03L5.61 27.03Z" fill="url(#SVGID_1_)"/></g><path d="M8.6 34.55C7.74 34.25 6.66 33.64 6.06 32.59 5.83 32.18 5.68 31.72 5.63 31.17 5.46 29.2 5.46 28.23 5.33 27.09 5.2 25.95 3.89 24.26 3.11 23.4 3.1 23.38 3.08 23.37 3.07 23.35 2.41 22.62 1.25 21.28 1.16 18.88 0.97 21.03 2.02 24.66 3.26 26.45 5.12 29.14 2.8 32.28 5.99 35.11 6.36 35.44 6.78 35.77 7.35 35.98 8.21 36.29 9.51 36.77 10.47 36.92 10.32 36.38 9.53 34.88 8.6 34.55Z" fill="#E21B22"/><path d="M17.68 35.29C17.55 33.91 16.55 34.09 15.6 33.21 15.14 32.78 14.73 32.3 14.44 31.63 14.13 30.92 13.95 30.01 14 28.74 14.09 26.29 13.37 24.72 11.89 22.64 11.79 22.5 11.69 22.36 11.58 22.21 10.1 20.18 7.94 17.28 9.6 14.98 9.66 14.72 9.68 14.3 9.69 14.05 9.28 14.36 8.7 15.01 8.37 16.16 7.92 17.73 9.63 20.53 11.01 22.57 11.38 23.11 11.72 23.6 11.99 23.99 13.28 25.88 13.47 27.48 13.4 29.62 13.37 30.55 13.58 31.34 13.91 31.97 14.33 32.79 14.93 33.35 15.43 33.63 16.33 34.13 17.06 34.62 17.15 35.17 17.24 35.72 17.27 36.31 16.27 36.31 15.26 36.31 12.82 36.4 11.6 36.4 10.38 36.4 10.47 36.13 10.3 35.58 10.13 35.04 9.64 34.34 8.39 33.88 7.62 33.6 6.95 33.22 6.52 32.23 6.25 31.62 6.07 30.77 6 29.56 5.9 27.63 6.21 25.87 4.28 23.9 3.98 23.59 3.7 23.27 3.43 22.92 2.01 21.07 1.23 18.73 2.28 16.63 2.29 16.61 2.3 16.59 2.31 16.57 3.38 14.49 5.38 13.27 7.13 12.57 8.33 12.08 9.42 11.84 10 11.74 10.03 11.58 10.06 11.42 10.1 11.27 9.63 11.33 8.29 11.56 6.77 12.17 4.93 12.91 2.84 14.23 1.76 16.52 1.67 16.71 1.59 16.91 1.51 17.11 1.32 17.63 1.2 18.23 1.14 18.88 1.23 21.28 2.4 22.62 3.05 23.35 3.06 23.37 3.08 23.38 3.09 23.4 3.87 24.26 5.17 25.95 5.31 27.09 5.45 28.23 5.45 29.2 5.61 31.17 5.66 31.71 5.81 32.18 6.04 32.59 6.63 33.65 7.72 34.25 8.58 34.55 9.51 34.87 9.91 36.12 10.05 36.66 10.38 37.27 13.32 37.1 15.18 36.98 17.55 36.82 17.81 36.67 17.68 35.29Z" fill="#77D7E6"/></g><g><g><path d="M28.97 14.57C28.62 14.1 27.93 14.02 27.43 14.29 27.34 14.34 27.26 14.4 27.2 14.47 27.05 14.53 26.91 14.63 26.84 14.78 26.65 15.17 26.92 15.59 27.14 15.9 27.47 16.36 27.9 16.81 28.5 16.83 28.97 16.84 29.4 16.44 29.43 15.98 29.48 15.49 29.26 14.96 28.97 14.57Z" fill="#B57C56"/><path d="M34.98 19.71C34.91 19.37 34.56 18.72 34.13 18.79 33.68 18.86 33.24 19.31 32.97 19.65 32.78 19.89 32.52 20.28 32.44 20.65 32.31 20.92 32.23 21.21 32.24 21.5 32.26 22.06 32.99 21.87 33.33 21.78 33.82 21.64 34.31 21.37 34.64 20.98 34.95 20.59 35.08 20.2 34.98 19.71Z" fill="#B57C56"/><path d="M46.48 15C46.83 15.01 47.55 14.82 47.58 14.39 47.62 13.93 47.29 13.4 47.02 13.06 46.83 12.82 46.51 12.47 46.18 12.31 45.95 12.12 45.68 11.98 45.4 11.92 44.85 11.8 44.86 12.56 44.87 12.91 44.89 13.42 45.04 13.95 45.34 14.37 45.63 14.77 45.98 14.98 46.48 15Z" fill="#B57C56"/><path d="M38.98 12.72C38.68 12.56 38.3 12.53 37.98 12.66 37.85 12.71 37.65 12.84 37.53 12.99 37.53 12.99 37.52 12.99 37.52 13 37.26 13.25 37.26 13.62 37.39 13.93 37.69 14.69 38.75 15.14 39.46 14.68 40.26 14.16 39.59 13.06 38.98 12.72Z" fill="#B57C56"/><path d="M48.05 19.83C47.93 19.65 47.8 19.5 47.63 19.35 47.59 19.31 47.55 19.27 47.5 19.23 47.21 18.73 46.55 18.22 46.24 18.95 46.08 19.32 46.03 19.76 46 20.16 45.97 20.53 46.1 20.83 46.38 21.07 46.67 21.32 47.12 21.44 47.49 21.4 47.87 21.37 48.11 21.27 48.28 20.91 48.45 20.55 48.26 20.14 48.05 19.83Z" fill="#B57C56"/><path d="M32.59 28.32C32.47 28.14 32.34 27.99 32.17 27.84 32.13 27.8 32.08 27.76 32.04 27.72 31.76 27.22 31.09 26.71 30.78 27.44 30.62 27.81 30.57 28.25 30.54 28.65 30.51 29.02 30.64 29.32 30.92 29.56 31.21 29.81 31.66 29.93 32.03 29.89 32.41 29.86 32.65 29.76 32.82 29.4 32.98 29.03 32.79 28.63 32.59 28.32Z" fill="#B57C56"/><path d="M41.44 23.14C41.36 22.86 41.19 22.64 40.89 22.52 40.46 22.35 40.3 23.07 40.07 23.28 39.84 23.49 39.49 23.5 39.26 23.72 39.12 23.86 39.06 24.07 39.08 24.29 39.43 25.02 40.63 25.64 41.16 24.78 41.42 24.37 41.59 23.67 41.44 23.14Z" fill="#B57C56"/><path d="M49.65 29.39C49.61 28.72 48.91 28.25 48.33 28.47 48.05 28.45 47.77 28.56 47.58 28.88 47.38 29.2 47.39 29.64 47.6 29.95 47.85 30.3 48.31 30.66 48.74 30.74 49.43 30.88 49.68 29.87 49.65 29.39Z" fill="#B57C56"/><path d="M53.43 25.39C53.4 24.94 52.94 24.64 52.56 24.78 52.38 24.76 52.19 24.84 52.06 25.05 51.93 25.26 51.93 25.55 52.08 25.76 52.24 25.99 52.55 26.23 52.83 26.28 53.28 26.37 53.45 25.71 53.43 25.39Z" fill="#B57C56"/><path d="M41.16 30.89C41.16 30.88 41.15 30.87 41.14 30.86 41.14 30.4 40.74 29.94 40.29 29.82 40.1 29.64 39.81 29.5 39.56 29.53 39.31 29.55 39.16 29.74 39.08 29.97 38.97 30.32 39.25 30.72 39.45 30.98 39.81 31.44 40.73 31.95 41.07 31.17 41.1 31.1 41.12 31.03 41.13 30.96 41.16 30.93 41.17 30.9 41.16 30.89Z" fill="#B57C56"/></g><g><path d="M28.94 14.22C28.59 13.75 27.9 13.67 27.4 13.94 27.31 13.99 27.23 14.05 27.17 14.12 27.02 14.18 26.88 14.28 26.81 14.43 26.62 14.82 26.89 15.24 27.11 15.55 27.44 16.01 27.87 16.46 28.47 16.48 28.94 16.5 29.37 16.09 29.4 15.63 29.45 15.14 29.23 14.61 28.94 14.22Z" fill="#E24096"/><path d="M34.95 19.36C34.88 19.02 34.52 18.37 34.1 18.44 33.65 18.51 33.21 18.96 32.94 19.3 32.75 19.54 32.49 19.93 32.41 20.3 32.28 20.57 32.2 20.86 32.21 21.15 32.23 21.71 32.96 21.52 33.3 21.43 33.79 21.29 34.28 21.02 34.61 20.63 34.92 20.25 35.05 19.85 34.95 19.36Z" fill="#91CC85"/><path d="M46.45 14.66C46.8 14.67 47.52 14.48 47.55 14.05 47.59 13.59 47.26 13.06 46.99 12.72 46.8 12.48 46.48 12.13 46.15 11.97 45.92 11.78 45.65 11.64 45.37 11.58 44.82 11.46 44.83 12.22 44.84 12.57 44.86 13.08 45.01 13.61 45.31 14.03 45.6 14.42 45.95 14.64 46.45 14.66Z" fill="#B34097"/><path d="M38.95 12.38C38.65 12.22 38.27 12.19 37.95 12.32 37.82 12.37 37.62 12.5 37.5 12.65 37.5 12.65 37.49 12.65 37.49 12.66 37.23 12.91 37.23 13.28 37.36 13.59 37.66 14.35 38.72 14.8 39.43 14.34 40.23 13.82 39.56 12.71 38.95 12.38Z" fill="#2EC4F0"/><path d="M48.02 19.48C47.9 19.3 47.77 19.15 47.6 19 47.56 18.96 47.51 18.92 47.47 18.88 47.19 18.38 46.52 17.87 46.21 18.6 46.05 18.97 46 19.41 45.97 19.81 45.94 20.18 46.07 20.48 46.35 20.72 46.64 20.97 47.09 21.08 47.46 21.05 47.84 21.02 48.08 20.92 48.25 20.56 48.42 20.2 48.23 19.79 48.02 19.48Z" fill="#FABD2D"/><path d="M32.55 27.97C32.43 27.79 32.3 27.64 32.13 27.5 32.09 27.46 32.05 27.42 32 27.38 31.71 26.88 31.05 26.37 30.74 27.1 30.58 27.47 30.53 27.91 30.5 28.31 30.47 28.68 30.6 28.98 30.88 29.22 31.17 29.47 31.62 29.59 31.99 29.55 32.37 29.52 32.61 29.42 32.78 29.06 32.95 28.69 32.76 28.28 32.55 27.97Z" fill="#ED672D"/><path d="M41.41 22.79C41.33 22.51 41.16 22.29 40.87 22.17 40.44 22.01 40.28 22.72 40.04 22.93 39.81 23.15 39.45 23.15 39.23 23.37 39.09 23.51 39.03 23.72 39.05 23.94 39.4 24.67 40.59 25.29 41.13 24.43 41.39 24.03 41.56 23.32 41.41 22.79Z" fill="#2AB34B"/><path d="M49.62 29.04C49.58 28.37 48.88 27.9 48.3 28.12 48.02 28.09 47.74 28.21 47.55 28.53 47.35 28.85 47.36 29.29 47.57 29.6 47.82 29.95 48.28 30.31 48.71 30.39 49.4 30.53 49.65 29.53 49.62 29.04Z" fill="#2EC4F0"/><path d="M53.39 25.04C53.36 24.59 52.9 24.29 52.52 24.43 52.34 24.41 52.15 24.49 52.02 24.7 51.89 24.91 51.89 25.2 52.04 25.41 52.2 25.64 52.51 25.88 52.79 25.93 53.25 26.03 53.42 25.36 53.39 25.04Z" fill="#E21B22"/><path d="M41.13 30.54C41.13 30.53 41.12 30.52 41.12 30.51 41.12 30.05 40.72 29.59 40.27 29.47 40.08 29.29 39.79 29.15 39.54 29.18 39.29 29.2 39.14 29.39 39.06 29.62 38.95 29.97 39.23 30.37 39.43 30.63 39.79 31.09 40.71 31.61 41.05 30.82 41.08 30.75 41.1 30.68 41.11 30.61 41.12 30.58 41.13 30.56 41.13 30.54Z" fill="#E21B22"/></g><path d="M28.34 14.94C28.34 15.04 28.25 15.13 28.15 15.13 28.05 15.13 27.96 15.04 27.96 14.94 27.96 14.83 28.04 14.75 28.15 14.75 28.25 14.75 28.34 14.84 28.34 14.94Z" fill="#472507"/><path d="M33.84 20.03C33.84 20.13 33.76 20.22 33.65 20.22 33.55 20.22 33.46 20.14 33.46 20.03 33.46 19.93 33.54 19.84 33.65 19.84 33.76 19.84 33.84 19.93 33.84 20.03Z" fill="#472507"/><path d="M38.78 13.53C38.78 13.63 38.7 13.72 38.59 13.72 38.49 13.72 38.4 13.64 38.4 13.53 38.4 13.43 38.48 13.34 38.59 13.34 38.69 13.34 38.78 13.42 38.78 13.53Z" fill="#472507"/><path d="M46.57 13.15C46.57 13.26 46.49 13.34 46.38 13.34 46.27 13.34 46.19 13.25 46.19 13.15 46.19 13.05 46.27 12.96 46.38 12.96 46.49 12.96 46.57 13.04 46.57 13.15Z" fill="#472507"/><path d="M47.39 19.69C47.39 19.79 47.31 19.88 47.2 19.88 47.09 19.88 47.01 19.8 47.01 19.69 47.01 19.58 47.09 19.5 47.2 19.5 47.31 19.5 47.39 19.58 47.39 19.69Z" fill="#472507"/><path d="M40.41 23.52C40.41 23.62 40.33 23.71 40.22 23.71 40.11 23.71 40.03 23.62 40.03 23.52 40.03 23.42 40.11 23.33 40.22 23.33 40.33 23.33 40.41 23.42 40.41 23.52Z" fill="#472507"/><path d="M40.29 30.06C40.29 30.16 40.21 30.25 40.1 30.25 40 30.25 39.91 30.17 39.91 30.06 39.91 29.95 39.99 29.87 40.1 29.87 40.2 29.87 40.29 29.96 40.29 30.06Z" fill="#472507"/><path d="M31.8 28.05C31.8 28.15 31.72 28.24 31.61 28.24 31.51 28.24 31.42 28.16 31.42 28.05 31.42 27.95 31.5 27.86 31.61 27.86 31.71 27.86 31.8 27.95 31.8 28.05Z" fill="#472507"/><path d="M48.65 28.93C48.65 29.03 48.57 29.12 48.46 29.12 48.35 29.12 48.27 29.03 48.27 28.93 48.27 28.83 48.35 28.74 48.46 28.74 48.56 28.74 48.65 28.83 48.65 28.93Z" fill="#472507"/><path d="M52.97 25.01C52.97 25.11 52.89 25.2 52.78 25.2 52.68 25.2 52.59 25.11 52.59 25.01 52.59 24.91 52.67 24.82 52.78 24.82 52.88 24.82 52.97 24.91 52.97 25.01Z" fill="#472507"/></g></g><g><g><path d="M62.2 34.28 62.2 38.45C62.2 38.7 63.2 38.9 64.43 38.9 65.66 38.9 66.66 38.7 66.66 38.45L66.66 34.28 62.2 34.28Z" fill="#E21B22"/><path d="M63.42 34.28 63.01 34.28 63.01 38.79C63.14 38.81 63.27 38.83 63.42 38.84L63.42 34.28Z" fill="#E21B22"/><path d="M65.36 34.28 65.36 38.85C66.12 38.78 66.65 38.62 66.65 38.45L66.65 34.28 65.36 34.28Z" fill="#E21B22"/><path d="M66.65 34.28C66.65 34.53 65.65 34.72 64.42 34.72 63.19 34.72 62.19 34.52 62.19 34.28 62.19 34.03 63.19 33.83 64.42 33.83 65.65 33.83 66.65 34.04 66.65 34.28Z" fill="#F2685D"/></g><g><path d="M43.6 37.59 43.6 40.88C43.6 41.07 44.39 41.23 45.36 41.23 46.33 41.23 47.12 41.07 47.12 40.88L47.12 37.59 43.6 37.59Z" fill="#E21B22"/><path d="M44.56 37.59 44.24 37.59 44.24 41.16C44.34 41.18 44.45 41.19 44.56 41.2L44.56 37.59Z" fill="#E21B22"/><path d="M46.1 37.59 46.1 41.2C46.7 41.15 47.12 41.02 47.12 40.88L47.12 37.59 46.1 37.59Z" fill="#E21B22"/><path d="M47.12 37.59C47.12 37.78 46.33 37.94 45.36 37.94 44.39 37.94 43.6 37.78 43.6 37.59 43.6 37.39 44.39 37.24 45.36 37.24 46.33 37.24 47.12 37.4 47.12 37.59Z" fill="#F2685D"/></g><g><path d="M51.98 32.17 51.98 37.67C51.98 37.99 53.3 38.26 54.92 38.26 56.54 38.26 57.86 38 57.86 37.67L57.86 32.17 51.98 32.17Z" fill="#2AB34B"/><path d="M53.59 32.17 53.05 32.17 53.05 38.13C53.22 38.16 53.4 38.18 53.59 38.2L53.59 32.17Z" fill="#2AB34B"/><path d="M56.16 32.17 56.16 38.21C57.17 38.12 57.87 37.91 57.87 37.68L57.87 32.18 56.16 32.18Z" fill="#008D3F"/><path d="M57.86 32.17C57.86 32.5 56.54 32.76 54.92 32.76 53.29 32.76 51.98 32.5 51.98 32.17 51.98 31.85 53.3 31.58 54.92 31.58 56.54 31.58 57.86 31.84 57.86 32.17Z" fill="#8DC640"/></g><g><path d="M49.22 36.46 49.22 40.78C49.22 41.03 50.25 41.24 51.53 41.24 52.8 41.24 53.84 41.03 53.84 40.78L53.84 36.46 49.22 36.46Z" fill="#0079AB"/><path d="M50.48 36.46 50.06 36.46 50.06 41.13C50.19 41.15 50.33 41.17 50.48 41.19L50.48 36.46Z" fill="#0079AB"/><path d="M52.49 36.46 52.49 41.2C53.28 41.13 53.83 40.97 53.83 40.78L53.83 36.46 52.49 36.46Z" fill="#0079AB"/><path d="M53.83 36.46C53.83 36.71 52.8 36.92 51.52 36.92 50.25 36.92 49.21 36.71 49.21 36.46 49.21 36.21 50.24 36 51.52 36 52.79 36 53.83 36.21 53.83 36.46Z" fill="#009CC4"/></g><g><path d="M57.2 35.59 57.2 40.69C57.2 40.99 58.42 41.24 59.92 41.24 61.42 41.24 62.64 41 62.64 40.69L62.64 35.59 57.2 35.59Z" fill="#FABD2D"/><path d="M58.69 35.59 58.19 35.59 58.19 41.11C58.34 41.14 58.51 41.16 58.69 41.18L58.69 35.59Z" fill="#FFF01C"/><path d="M61.07 35.59 61.07 41.18C62 41.09 62.65 40.9 62.65 40.68L62.65 35.58 61.07 35.58Z" fill="#F5992E"/><path d="M62.65 35.59C62.65 35.89 61.43 36.13 59.93 36.13 58.43 36.13 57.21 35.89 57.21 35.59 57.21 35.29 58.43 35.04 59.93 35.04 61.43 35.05 62.65 35.29 62.65 35.59Z" fill="#FFF01C"/></g><g><path d="M67.65 37.59 67.65 40.88C67.65 41.07 68.44 41.23 69.41 41.23 70.38 41.23 71.17 41.07 71.17 40.88L71.17 37.59 67.65 37.59Z" fill="#3463AB"/><path d="M68.61 37.59 68.29 37.59 68.29 41.16C68.39 41.18 68.5 41.19 68.61 41.2L68.61 37.59Z" fill="#3463AB"/><path d="M70.15 37.59 70.15 41.2C70.75 41.15 71.17 41.02 71.17 40.88L71.17 37.59 70.15 37.59Z" fill="#204176"/><path d="M71.17 37.59C71.17 37.78 70.38 37.94 69.41 37.94 68.44 37.94 67.65 37.78 67.65 37.59 67.65 37.39 68.44 37.24 69.41 37.24 70.38 37.24 71.17 37.4 71.17 37.59Z" fill="#0097D2"/></g></g><g><g><g><path d="M38.79 9.42C38.79 9.42 38.76 9.17 39 9.12 39.24 9.07 40.24 9.28 40 9.61 39.85 9.81 39.02 9.64 39 9.64 38.98 9.63 38.79 9.42 38.79 9.42Z" fill="#C33523"/></g><g><path d="M39.56 9.24C39.64 9.27 39.92 9.35 40.03 9.47 39.96 9.22 39.21 9.07 39 9.11 38.92 9.13 38.87 9.16 38.84 9.21 39.01 9.08 39.39 9.18 39.56 9.24Z" fill="#005F9F"/></g><g><path d="M40.28 9.36C40.28 9.36 40.32 9.11 40.57 9.13 40.82 9.15 41.72 9.63 41.4 9.87 41.2 10.02 40.45 9.63 40.43 9.62 40.4 9.62 40.28 9.36 40.28 9.36Z" fill="#C33523"/></g><g><path d="M41.07 9.4C41.14 9.45 41.38 9.61 41.46 9.75 41.46 9.49 40.78 9.15 40.56 9.13 40.48 9.12 40.42 9.15 40.37 9.18 40.59 9.11 40.92 9.3 41.07 9.4Z" fill="#005F9F"/></g><g><g><g><g><path d="M37.49 9.04C37.49 9.04 37.39 9.7 37.7 9.62 38.01 9.54 38.73 9.25 38.73 9.25 38.73 9.25 38.95 9.14 39.01 9.33 39.1 9.61 38.86 9.7 38.66 9.8 38.46 9.9 37.29 10.3 37.1 9.92 36.92 9.54 36.92 9.14 36.92 9.14L37.49 9.04Z" fill="#F4D9BF"/><path d="M37.49 9.04C37.49 9.04 37.39 9.7 37.7 9.62 38.01 9.54 38.73 9.25 38.73 9.25 38.73 9.25 38.95 9.14 39.01 9.33 39.1 9.61 38.86 9.7 38.66 9.8 38.46 9.9 37.29 10.3 37.1 9.92 36.92 9.54 36.92 9.14 36.92 9.14L37.49 9.04Z" fill="#F4D9BF"/><path d="M38.29 9.43C38.53 9.34 38.73 9.26 38.73 9.26 38.73 9.26 38.95 9.15 39.01 9.34 39.1 9.62 38.86 9.71 38.66 9.81 38.62 9.83 38.53 9.87 38.42 9.91 38.38 9.75 38.34 9.59 38.29 9.43Z" fill="#F4D9BF"/><path d="M37.06 9.8C36.93 9.46 36.93 9.14 36.93 9.14L37.5 9.04C37.5 9.04 37.4 9.7 37.71 9.62 37.71 9.62 37.71 9.62 37.72 9.62 37.57 9.8 37.29 9.82 37.06 9.8Z" fill="#F4D9BF"/></g><path d="M35.24 7.49 35.74 7.4C35.74 7.4 35.74 7.41 35.74 7.42 35.72 7.63 35.45 9.39 35.22 9.95L34.91 9.81C34.91 9.81 35.22 8.46 35.24 7.49Z" fill="#F4D9BF"/><path d="M35.67 7.92C35.55 7.95 35.36 7.96 35.22 7.92 35.23 7.77 35.24 7.63 35.24 7.49L35.74 7.4C35.74 7.4 35.74 7.41 35.74 7.42 35.73 7.49 35.71 7.68 35.67 7.92Z" fill="#F4D9BF"/><path d="M35.31 6.38C35.31 6.38 35.62 6.06 35.88 6.56 36.14 7.06 35.89 7.78 35.89 7.78 35.89 7.78 35.47 7.84 35.02 7.61 35.02 7.62 35.16 6.56 35.31 6.38Z" fill="#0083C8"/><path d="M35.4 7.22C35.39 6.9 35.44 6.6 35.54 6.3 35.54 6.29 35.54 6.29 35.54 6.28 35.64 6.28 35.76 6.34 35.88 6.56 36.14 7.06 35.89 7.78 35.89 7.78 35.89 7.78 35.73 7.8 35.51 7.77 35.45 7.59 35.41 7.42 35.4 7.22Z" fill="#006AB5" opacity="0.4"/><path d="M38.98 9.17C38.98 9.17 38.88 9.83 39.2 9.75 39.51 9.67 40.23 9.38 40.23 9.38 40.23 9.38 40.45 9.27 40.51 9.46 40.6 9.74 38.78 10.43 38.6 10.05 38.42 9.67 38.42 9.27 38.42 9.27L38.98 9.17Z" fill="#F4D9BF"/><path d="M38.99 9.59C38.89 9.62 38.77 9.64 38.67 9.66 38.6 9.68 38.54 9.69 38.47 9.7 38.41 9.46 38.41 9.28 38.41 9.28L38.98 9.18C38.98 9.17 38.95 9.42 38.99 9.59Z" fill="#F4D9BF"/><path d="M36.7 8.94C36.7 8.51 36.66 8.54 36.66 8.54 36.66 8.54 36.77 8.55 36.95 8.56 37.39 8.59 37.78 8.18 38.47 7.9 38.55 7.87 38.69 7.68 38.8 7.58 39.35 8.05 39.13 8.76 39.15 9.43L37.98 9.66 37.74 9.16 37.74 9.56C37.74 9.56 37.37 9.79 36.65 9.64 36.64 9.46 36.7 9.08 36.7 8.94Z" fill="#003F6E"/><path d="M36.91 9.13C36.84 9.2 36.76 9.25 36.67 9.28 36.68 9.14 36.7 9.01 36.7 8.94 36.7 8.61 36.68 8.55 36.66 8.54 36.69 8.54 36.79 8.55 36.94 8.56 36.98 8.56 37.02 8.56 37.06 8.56 37.06 8.77 37.05 8.99 36.91 9.13Z" fill="#FECB27"/><path d="M38.85 8.46C38.71 8.26 38.63 8.04 38.59 7.8 38.65 7.73 38.72 7.65 38.78 7.59 39.12 7.88 39.16 8.26 39.15 8.67 39.04 8.62 38.93 8.57 38.85 8.46Z" fill="#FECB27"/><path d="M37.94 8.91C37.51 9.01 37.11 9.04 36.7 9 36.7 8.98 36.7 8.96 36.7 8.94 36.7 8.61 36.68 8.55 36.66 8.54 36.69 8.54 36.79 8.55 36.94 8.56 37.38 8.59 37.77 8.18 38.46 7.9 38.54 7.87 38.68 7.68 38.79 7.58 38.96 7.73 39.06 7.9 39.11 8.08 39 8.44 38.2 8.84 37.94 8.91Z" fill="#C9CACC"/><path d="M36.51 8.9C36.12 8.28 35.23 7.31 35.7 6.23 35.82 6.19 35.94 6.13 36.08 6.06 36.18 6.01 36.28 5.95 36.38 5.88 36.38 5.88 36.41 5.85 36.46 5.84 37.35 5.78 39.03 7.82 39.03 7.82 39.03 7.82 38.62 9.09 36.51 8.9Z" fill="#006AB5"/><path d="M36.65 6.38C36.65 6.38 36.94 6.01 37.27 6.5 37.6 7 37.42 7.79 37.42 7.79 37.42 7.79 36.88 7.98 36.38 7.79 36.39 7.79 36.51 6.59 36.65 6.38Z" fill="#006AB5" opacity="0.4"/><g><path d="M36.3 6.06C36.3 6.06 36.44 6.9 36.15 6.96 35.86 7.03 35.61 6.17 35.61 6.17L36.3 6.06Z" fill="#F4D9BF"/></g><g><path d="M36.3 6.06C36.3 6.06 36.44 6.9 36.15 6.96 35.86 7.03 35.61 6.17 35.61 6.17L36.3 6.06Z" fill="#F2D7BD"/></g><g><g><path d="M33.27 1.8C33.66 1.3 34.38 1.62 34.38 1.62 34.38 1.62 35.09 0.76 36.33 0.89 40.51 1.32 39.65 4.62 38.83 5.54 37.99 6.84 36.76 6.22 36.76 6.22 36.76 6.22 37.37 6.06 37.63 5.62 37.78 5.83 38.2 5.7 38.24 5.3 38.27 5.02 37.75 4.76 37.54 5.17 37.61 4.4 37.39 3.81 37.39 3.81 37.39 3.81 37.37 4.15 37.26 4.14 37.15 4.13 36.79 3.1 36.79 3.1 36.79 3.1 36.8 3.53 36.7 3.55 36.6 3.57 36.1 2.72 36.1 2.72 36.1 2.72 36.05 3.13 35.94 3.13 35.83 3.14 35.48 2.44 35.48 2.44 35.48 2.44 35.18 3 34.97 3 34.76 3 34.89 2.36 34.89 2.36 34.89 2.36 34.4 2.81 34.26 2.79 34.12 2.77 34.3 2.29 34.3 2.29 34.3 2.29 34.23 2.37 34.11 2.47 33.97 2.51 33.53 2.64 33.51 2.54 33.54 2.19 34.02 1.97 34.02 1.97 34.02 1.97 33.19 1.95 33.27 1.8Z" fill="#835955"/><path d="M34.3 2.29C34.3 2.29 34.12 2.77 34.26 2.79 34.4 2.81 34.89 2.36 34.89 2.36 34.89 2.36 34.76 2.99 34.97 3 35.18 3 35.47 2.45 35.47 2.45 35.47 2.45 35.82 3.15 35.93 3.14 36.04 3.13 36.09 2.73 36.09 2.73 36.09 2.73 36.6 3.58 36.69 3.56 36.79 3.54 36.78 3.11 36.78 3.11 36.78 3.11 37.14 4.14 37.25 4.15 37.36 4.16 37.38 3.82 37.38 3.82 37.38 3.82 37.6 4.41 37.53 5.18 37.74 4.77 38.26 5.02 38.23 5.31 38.2 5.71 37.77 5.83 37.62 5.63 37.36 6.07 36.75 6.23 36.75 6.23 36.75 6.23 36.21 6.39 35.66 6.34 33.84 6.04 33.68 4.78 33.88 4.31 34.05 3.93 34.1 3.76 34 3.33 33.9 2.89 34.15 2.46 34.15 2.46 34.15 2.46 34.13 2.46 34.11 2.47 34.23 2.37 34.3 2.29 34.3 2.29Z" fill="#F4D9BF"/></g><g><path d="M35.53 4.38C35.52 4.51 35.47 4.6 35.42 4.59 35.37 4.58 35.34 4.46 35.35 4.34 35.36 4.21 35.41 4.12 35.46 4.13 35.51 4.14 35.54 4.25 35.53 4.38Z" fill="#673121"/><path d="M35.43 4.26C35.42 4.3 35.41 4.33 35.39 4.32 35.37 4.31 35.37 4.28 35.37 4.24 35.37 4.2 35.39 4.17 35.41 4.18 35.43 4.18 35.44 4.22 35.43 4.26Z" fill="#FFFFFF"/></g><g><path d="M34.28 4.02C34.27 4.12 34.24 4.19 34.2 4.18 34.16 4.17 34.14 4.09 34.14 3.99 34.15 3.89 34.18 3.82 34.22 3.83 34.26 3.84 34.28 3.93 34.28 4.02Z" fill="#673121"/><path d="M34.2 3.93C34.2 3.96 34.18 3.98 34.17 3.97 34.16 3.97 34.15 3.94 34.16 3.91 34.16 3.88 34.18 3.86 34.19 3.87 34.2 3.87 34.21 3.9 34.2 3.93Z" fill="#FFFFFF"/></g><g><path d="M34.75 4.83C34.75 4.83 34.74 4.79 34.71 4.74 34.7 4.73 34.69 4.71 34.68 4.7 34.67 4.69 34.65 4.67 34.64 4.66 34.62 4.65 34.6 4.64 34.58 4.63 34.57 4.63 34.56 4.62 34.54 4.62L34.53 4.62 34.53 4.62 34.53 4.62 34.53 4.62 34.53 4.62 34.53 4.62 34.52 4.62C34.51 4.62 34.48 4.64 34.48 4.65 34.47 4.66 34.47 4.68 34.47 4.69 34.47 4.72 34.47 4.74 34.47 4.76 34.48 4.8 34.49 4.84 34.5 4.86 34.53 4.92 34.55 4.95 34.55 4.95 34.55 4.95 34.54 4.91 34.53 4.85 34.53 4.82 34.52 4.79 34.52 4.75 34.52 4.73 34.52 4.71 34.52 4.7 34.52 4.69 34.52 4.69 34.53 4.68L34.53 4.68C34.53 4.68 34.53 4.68 34.53 4.68 34.53 4.68 34.53 4.68 34.53 4.68L34.54 4.68 34.54 4.68 34.54 4.68C34.53 4.68 34.54 4.68 34.53 4.68L34.53 4.68 34.53 4.68 34.53 4.68 34.53 4.68C34.54 4.68 34.55 4.68 34.55 4.68 34.56 4.69 34.58 4.69 34.59 4.7 34.62 4.72 34.65 4.74 34.67 4.76 34.72 4.8 34.75 4.83 34.75 4.83Z" fill="#C39368"/></g><path d="M37.82 5.25C37.88 5.21 37.98 5.21 38.02 5.29 38.02 5.3 38.01 5.3 38.01 5.3 37.95 5.24 37.89 5.27 37.83 5.31 37.8 5.33 37.78 5.36 37.76 5.38 37.74 5.4 37.73 5.43 37.71 5.45 37.7 5.46 37.69 5.45 37.69 5.45 37.66 5.37 37.76 5.28 37.82 5.25Z" fill="#C39368"/><path d="M35.41 4.85C35.41 4.93 35.56 5 35.75 5.02 35.94 5.03 36.1 4.98 36.11 4.9 36.11 4.82 35.96 4.75 35.77 4.73 35.58 4.71 35.42 4.77 35.41 4.85Z" fill="#F9CBC0"/><path d="M33.94 4.47C33.93 4.51 34 4.57 34.09 4.6 34.19 4.63 34.27 4.62 34.29 4.58 34.3 4.54 34.23 4.48 34.14 4.45 34.04 4.42 33.95 4.43 33.94 4.47Z" fill="#F9CBC0"/><g opacity="0.4"><path d="M34.36 1.81C33.97 2.08 33.81 2.24 33.84 2.32 33.88 2.4 34.5 1.98 34.5 1.98 34.5 1.98 34.3 2.46 34.41 2.53 34.51 2.6 35.03 1.97 35.03 1.97 35.03 1.97 34.9 2.62 35.05 2.68 35.2 2.74 35.55 2 35.55 2 35.55 2 35.66 2.74 35.86 2.75 36.05 2.76 35.95 2.15 35.95 2.15 35.95 2.15 36.44 3.03 36.53 3.03 36.62 3.03 36.5 2.37 36.5 2.37 36.5 2.37 37.06 3.61 37.21 3.57 37.36 3.54 37.27 2.96 37.27 2.96 37.27 2.96 37.72 3.93 37.69 4.81 37.95 4.63 38.42 4.9 38.32 5.38 38.2 5.86 37.79 5.89 37.65 5.81 37.56 6.06 38.46 6.15 38.94 5.3 38.9 5.38 38.87 5.45 38.82 5.52 37.98 6.82 36.75 6.2 36.75 6.2 36.75 6.2 37.36 6.04 37.62 5.6 37.77 5.81 38.19 5.68 38.23 5.28 38.26 5 37.74 4.74 37.53 5.15 37.6 4.38 37.38 3.79 37.38 3.79 37.38 3.79 37.36 4.13 37.25 4.12 37.14 4.11 36.78 3.08 36.78 3.08 36.78 3.08 36.79 3.51 36.69 3.53 36.59 3.55 36.09 2.7 36.09 2.7 36.09 2.7 36.04 3.11 35.93 3.11 35.82 3.12 35.47 2.42 35.47 2.42 35.47 2.42 35.18 3 34.97 3 34.76 3 34.89 2.36 34.89 2.36 34.89 2.36 34.4 2.81 34.26 2.79 34.12 2.77 34.3 2.29 34.3 2.29 34.3 2.29 34.23 2.37 34.11 2.47 33.97 2.51 33.53 2.64 33.51 2.54 33.54 2.19 34.02 1.97 34.02 1.97 34.02 1.97 33.19 1.96 33.27 1.81 33.3 1.77 33.33 1.74 33.36 1.72 33.54 1.8 33.86 1.89 34.36 1.81Z" fill="#835955"/></g></g><path d="M36.66 7.59 37.16 7.5C37.16 7.5 37.16 7.51 37.16 7.52 37.14 7.73 36.86 9.49 36.56 10.22L36.24 10.05C36.24 10.05 36.55 8.6 36.66 7.59Z" fill="#F4D9BF"/><path d="M37.11 7.91C36.95 7.91 36.79 7.87 36.64 7.82 36.65 7.74 36.66 7.67 36.67 7.59L37.17 7.5C37.17 7.5 37.17 7.51 37.17 7.52 37.16 7.58 37.14 7.72 37.11 7.91Z" fill="#F4D9BF"/><path d="M36.69 6.36C36.69 6.36 36.96 5.98 37.32 6.46 37.68 6.94 37.53 7.73 37.53 7.73 37.53 7.73 37.1 7.86 36.59 7.7 36.59 7.69 36.57 6.57 36.69 6.36Z" fill="#0083C8"/><path d="M34.67 10.44C34.75 10.41 34.79 10.34 34.84 10.27 34.9 10.19 34.99 10.13 35.09 10.1 35.1 10.1 35.11 10.1 35.11 10.09 35.12 10.14 35.12 10.47 35.17 10.44 35.17 10.44 35.18 10.44 35.18 10.43 35.18 10.43 35.19 10.43 35.2 10.42 35.2 10.42 35.2 10.42 35.2 10.41 35.23 10.38 35.24 10.33 35.25 10.29 35.27 10.12 35.34 9.9 35.22 9.75 35.06 9.56 34.77 9.64 34.59 9.74 34.55 9.76 34.51 9.8 34.48 9.83 34.47 9.85 34.47 9.87 34.5 9.87 34.56 9.87 34.61 9.85 34.66 9.83 34.58 9.88 34.52 9.93 34.48 9.97 34.4 10.06 34.46 10.12 34.51 10.07 34.59 10 34.64 9.97 34.72 9.94 34.74 9.93 34.75 9.93 34.77 9.93 34.74 9.95 34.71 9.97 34.68 9.99 34.61 10.04 34.51 10.14 34.51 10.2 34.51 10.22 34.53 10.23 34.55 10.22 34.63 10.19 34.69 10.11 34.76 10.07 34.8 10.05 34.83 10.03 34.87 10.02 34.75 10.11 34.65 10.24 34.63 10.38 34.63 10.44 34.66 10.45 34.67 10.44Z" fill="#F4D9BF"/><g><path d="M35.97 10.03C35.97 10.03 35.82 10.07 35.72 10.07 35.62 10.08 35.7 10.2 35.78 10.19 35.87 10.19 35.97 10.03 35.97 10.03Z" fill="#F4D9BF"/><path d="M35.97 10.03C35.97 10.03 35.82 10.07 35.72 10.07 35.62 10.08 35.7 10.2 35.78 10.19 35.87 10.19 35.97 10.03 35.97 10.03Z" fill="#F4D9BF"/><path d="M35.76 10.34C35.8 10.29 35.87 10.25 35.95 10.17 35.89 10.2 35.67 10.38 35.61 10.38 35.59 10.38 35.54 10.32 35.65 10.22 35.69 10.18 35.83 10.09 35.88 10.07 35.98 10.01 36.1 9.96 36.22 9.95 36.32 9.94 36.47 9.96 36.55 10.04 36.6 10.1 36.6 10.18 36.58 10.25 36.56 10.31 36.5 10.41 36.44 10.43 36.44 10.43 36.43 10.43 36.43 10.43 36.32 10.46 36.23 10.46 36.16 10.55 36.11 10.62 36.15 10.63 36.06 10.67 36.04 10.68 36.01 10.65 36.01 10.63 36.03 10.48 36.04 10.47 36.17 10.38 36.13 10.4 36.09 10.41 36.05 10.44 35.97 10.49 35.95 10.54 35.86 10.58 35.84 10.59 35.79 10.58 35.81 10.54 35.83 10.47 35.89 10.4 35.96 10.35 35.99 10.33 36.03 10.31 36.06 10.29 36.04 10.29 36.02 10.3 36.01 10.3 35.92 10.33 35.83 10.44 35.74 10.52 35.68 10.57 35.62 10.5 35.76 10.34Z" fill="#F4D9BF"/></g></g></g><path d="M35.25 3.71C35.25 3.71 35.58 3.5 35.76 3.96 35.76 3.96 35.83 3.63 35.57 3.48 35.32 3.33 35.25 3.71 35.25 3.71Z" fill="#835955"/><path d="M34.04 3.55C34.04 3.55 34.33 3.3 34.57 3.72 34.57 3.72 34.58 3.39 34.32 3.28 34.05 3.17 34.04 3.55 34.04 3.55Z" fill="#835955"/></g></g><path d="M34.45 5.4C34.45 5.4 34.91 5.87 35.58 5.45 35.57 5.45 34.93 6.17 34.45 5.4Z" fill="#FFFFFF"/></g><g><path d="M12.19 30.38C12.2 30.28 12.16 30.17 12.02 30.09 11.97 30.06 11.92 30.03 11.86 30 11.84 29.99 11.82 29.98 11.8 29.97 11.77 29.95 11.74 29.94 11.71 29.92 11.69 29.91 11.68 29.9 11.66 29.9L11.66 29.9C11.41 29.78 11.17 29.66 11.12 29.56 11.04 29.41 11.1 29.28 10.87 29.26 10.87 29.22 10.87 29.17 10.88 29.11 10.88 29.1 10.88 29.1 10.88 29.09 10.88 29.06 10.88 29.04 10.88 29.01 10.88 29 10.88 28.99 10.88 28.97 10.88 28.94 10.88 28.91 10.88 28.88 10.88 28.87 10.88 28.85 10.88 28.84 10.88 28.81 10.88 28.78 10.88 28.75 10.88 28.74 10.88 28.72 10.88 28.71 10.88 28.68 10.88 28.64 10.88 28.61 10.88 28.6 10.88 28.59 10.88 28.58 10.87 28.46 10.86 28.34 10.85 28.21 10.85 28.2 10.85 28.18 10.85 28.17 10.75 27.26 10.42 26.1 9.49 25.22 9.58 25.16 9.64 25.12 9.67 25.1 9.67 25.1 9.67 25.1 9.67 25.1 9.68 25.09 9.69 25.08 9.69 25.08 9.5 24.76 8.7 23.83 8.7 23.83 8.68 23.71 8.66 23.6 8.64 23.5L8.64 23.5C8.64 23.5 8.64 23.49 8.64 23.49L8.64 23.49C8.64 23.49 8.64 23.49 8.64 23.48 8.63 23.45 8.63 23.43 8.62 23.4 8.62 23.38 8.61 23.37 8.61 23.35 8.61 23.34 8.61 23.33 8.6 23.33 8.6 23.33 8.6 23.33 8.6 23.33 8.9 23.1 9.03 22.91 9.03 22.91 9.03 22.91 8.45 21.78 7.4 20.94 7.74 20.56 8.02 20.07 8.2 19.41 8.2 19.41 8.16 19.39 8.08 19.36 8.34 18.55 8.56 17.16 7.95 15.44 7.95 15.44 8.1 15.31 7.95 14.99 7.92 14.92 8.04 14.65 8.08 14.55 8.12 14.44 7.9 14.31 7.79 14.85 7.79 14.85 7.76 14.57 7.75 14.37 7.74 14.17 7.47 13.94 7.56 14.78 7.56 14.78 7.45 14.62 7.4 14.43 7.38 14.35 7.38 14.29 7.34 14.16 7.32 14.08 7.26 14.03 7.21 14.07 7.14 14.11 7.14 14.19 7.17 14.35 7.2 14.53 7.27 14.75 7.35 14.89 7.35 14.89 7.11 14.59 7.03 14.36 6.95 14.15 6.79 14.09 6.82 14.32 6.83 14.38 6.87 14.49 6.91 14.59 7.1 15.07 7.14 15.07 7.14 15.07 7.14 15.07 7.15 15.08 7.16 15.1 7.13 15.08 7.11 15.07 7.08 15.05 7.02 15.02 6.95 14.98 6.88 14.99 6.84 14.99 6.8 15.01 6.78 15.03 6.77 15.04 6.75 15.05 6.74 15.07 6.73 15.09 6.72 15.11 6.73 15.13 6.74 15.15 6.76 15.16 6.77 15.17L6.82 15.2C6.85 15.22 6.89 15.23 6.92 15.25 6.98 15.28 7.04 15.32 7.1 15.36 7.15 15.4 7.19 15.44 7.23 15.5 7.27 15.55 7.31 15.6 7.36 15.63 7.39 15.65 7.41 15.65 7.44 15.65 7.47 15.65 7.49 15.64 7.51 15.64 7.53 15.63 7.55 15.62 7.56 15.62 7.61 15.75 7.91 16.7 7.71 17.95 7.64 17.85 7.56 17.76 7.49 17.7L7.49 17.7C7.48 17.69 7.47 17.68 7.45 17.67 7.43 17.65 7.41 17.64 7.4 17.62 7.19 17.42 7.03 17.41 6.87 17.08 6.91 16.96 6.96 16.72 6.76 16.48 6.76 16.48 6.93 16.47 7.06 16.68 7.07 16.69 7.08 16.7 7.08 16.71 7.08 16.71 7.09 16.71 7.09 16.71 7.1 16.71 7.1 16.71 7.1 16.71 7.1 16.71 7.1 16.71 7.11 16.71 7.11 16.71 7.12 16.7 7.12 16.7 7.12 16.7 7.12 16.7 7.12 16.69 7.12 16.68 7.13 16.67 7.13 16.66 7.13 16.66 7.13 16.66 7.13 16.66 7.13 16.64 7.13 16.62 7.13 16.6 7.13 16.6 7.13 16.59 7.13 16.59 7.13 16.57 7.12 16.55 7.12 16.54 7.12 16.53 7.12 16.53 7.12 16.52 7.11 16.5 7.11 16.48 7.1 16.46 7.1 16.45 7.1 16.45 7.09 16.44 7.08 16.41 7.07 16.38 7.05 16.35L7.05 16.35C6.97 16.19 6.82 16 6.57 15.86 5.91 15.48 4.71 15.15 3.32 15.87 2.88 16.1 2.13 16.91 2.1 17.88 2.1 17.88 2.08 17.86 2.05 17.83 1.95 18.44 1.9 19.07 1.97 19.68 2.43 20.18 2.84 20.46 3.03 20.58L2.86 20.74C2.86 20.74 3.58 21.74 4.65 21.92 4.65 21.92 5.58 23.01 5.86 24.51 5.86 24.51 5.87 24.51 5.9 24.5 5.9 24.51 5.89 24.53 5.89 24.54 5.88 24.57 5.88 24.59 5.87 24.62 5.86 24.64 5.86 24.66 5.85 24.69 5.84 24.72 5.84 24.75 5.83 24.78 5.83 24.79 5.82 24.8 5.82 24.81L5.82 24.81C5.73 25.37 5.76 26.06 5.76 26.06 5.83 26.08 5.91 26.09 5.98 26.11 5.99 26.11 6.01 26.11 6.02 26.12 6.1 26.13 6.18 26.14 6.26 26.15L6.26 26.15C6.41 26.16 6.55 26.17 6.69 26.17 7.03 26.75 7.41 27.73 7.24 29.06 7.23 29.13 7.22 29.2 7.21 29.27 7.21 29.29 7.21 29.3 7.2 29.32 7.19 29.38 7.18 29.44 7.16 29.51 7.15 29.54 7.15 29.56 7.14 29.59 7.13 29.65 7.11 29.7 7.1 29.76 7.09 29.79 7.08 29.82 7.07 29.86 7.06 29.91 7.04 29.96 7.03 30.01 7.02 30 6.96 29.94 6.83 29.97 6.69 30.01 6.71 30.16 6.71 30.25 6.7 30.34 6.68 30.65 6.68 30.65 6.68 30.65 6.99 31.28 7.53 31.63L7.53 31.63C7.55 31.64 7.57 31.66 7.59 31.67 8.17 32.01 8.54 31.7 8.54 31.7 8.54 31.7 8.56 31.68 8.58 31.65L8.58 31.65C8.59 31.63 8.6 31.61 8.61 31.59 8.61 31.59 8.61 31.58 8.61 31.58 8.62 31.56 8.63 31.54 8.63 31.52 8.63 31.52 8.63 31.51 8.63 31.51 8.63 31.51 8.63 31.51 8.63 31.51 8.65 31.42 8.65 31.3 8.53 31.19 8.49 31.15 8.44 31.11 8.39 31.07 8.41 31.01 8.39 31 8.38 30.99 8.34 30.95 8.29 30.92 8.25 30.88 8.25 30.88 8.25 30.88 8.25 30.88 8.04 30.71 7.83 30.54 7.79 30.43 7.74 30.27 7.83 30.16 7.61 30.09 7.63 30.02 7.65 29.93 7.68 29.84 7.68 29.84 7.68 29.83 7.68 29.82 7.7 29.75 7.71 29.68 7.73 29.6 7.73 29.59 7.73 29.59 7.73 29.58 7.76 29.41 7.79 29.23 7.81 29.03 7.81 29.03 7.81 29.03 7.81 29.02 7.9 28.18 7.85 27.1 7.29 26.1 7.37 26.09 7.44 26.08 7.49 26.08L7.49 26.08C7.53 26.07 7.57 26.07 7.58 26.07 7.59 26.07 7.6 26.07 7.6 26.07L7.73 25.26C7.83 25.37 8.17 25.96 8.17 25.96 8.25 25.93 8.32 25.89 8.4 25.85 8.41 25.85 8.42 25.84 8.42 25.84 8.49 25.8 8.56 25.77 8.63 25.73 8.64 25.72 8.65 25.72 8.67 25.71 8.74 25.67 8.8 25.64 8.87 25.6 8.88 25.59 8.9 25.58 8.91 25.58 8.94 25.56 8.97 25.55 8.99 25.53 9.45 26 10.12 26.91 10.25 28.34 10.25 28.36 10.25 28.38 10.25 28.41 10.26 28.56 10.27 28.71 10.27 28.86 10.27 28.87 10.27 28.88 10.27 28.89 10.27 29.02 10.26 29.15 10.25 29.28 10.24 29.27 10.16 29.23 10.05 29.29 9.92 29.36 9.98 29.5 9.99 29.59 10 29.68 10.05 29.98 10.05 29.98 10.05 29.98 10.49 30.52 11.1 30.75L11.1 30.75C11.12 30.76 11.14 30.77 11.17 30.78 11.81 30.99 12.1 30.6 12.1 30.6 12.1 30.6 12.11 30.58 12.13 30.54L12.13 30.54C12.14 30.52 12.14 30.5 12.15 30.48 12.15 30.48 12.15 30.47 12.15 30.47 12.19 30.43 12.19 30.41 12.19 30.38 12.19 30.38 12.19 30.38 12.19 30.38L12.19 30.38ZM5.19 20.51C5.19 20.51 5.19 20.51 5.19 20.51 5.09 20.5 4.99 20.48 4.89 20.46 4.88 20.46 4.86 20.45 4.85 20.45 4.76 20.43 4.68 20.41 4.59 20.39 4.54 20.38 4.48 20.36 4.43 20.35 4.6 20.35 4.76 20.35 4.88 20.35 4.98 20.39 5.08 20.43 5.19 20.47 5.25 20.49 5.31 20.51 5.37 20.53 5.31 20.52 5.25 20.51 5.19 20.51Z" fill="#0093CF"/><path d="M10.6 24.43C10.6 24.45 10.62 24.45 10.62 24.43 10.75 23.71 10.76 22.97 10.63 22.25 10.51 21.53 10.29 20.84 10.08 20.14 10.08 20.14 10.07 20.14 10.07 20.14 10.24 20.86 10.46 21.57 10.57 22.3 10.7 23.02 10.67 23.71 10.6 24.43Z" fill="#0093CF"/><path d="M10.45 24.01C10.45 24.02 10.46 24.03 10.46 24.02 10.49 23.46 10.44 22.88 10.32 22.32 10.2 21.76 10.04 21.21 9.87 20.67 9.87 20.67 9.86 20.67 9.87 20.67 10.01 21.23 10.18 21.79 10.3 22.36 10.4 22.92 10.44 23.46 10.45 24.01Z" fill="#0093CF"/><path d="M2.73 21.74C2.57 21.33 2.38 20.93 2.18 20.54 2.22 20.64 2.26 20.74 2.31 20.84 2.32 20.86 2.32 20.89 2.31 20.91 2.45 21.2 2.58 21.5 2.69 21.81 2.94 22.48 3.05 23.17 3.12 23.88 3.12 23.9 3.15 23.9 3.15 23.88 3.14 23.15 3 22.42 2.73 21.74Z" fill="#0093CF"/><path d="M1.67 20.33C1.67 20.33 1.66 20.33 1.67 20.33 1.92 20.86 2.19 21.37 2.42 21.91 2.63 22.43 2.78 22.96 2.9 23.5 2.9 23.51 2.92 23.51 2.91 23.5 2.82 22.95 2.66 22.39 2.44 21.86 2.21 21.34 1.94 20.84 1.67 20.33Z" fill="#0093CF"/></g><g><g><path d="M8.87 24.76C8.87 24.76 10.87 26.02 10.59 29.03 10.59 29.03 10.64 29.42 11.15 29.25 11.15 29.25 11.66 25.96 9.17 24.38L8.87 24.76Z" fill="#EFCAA6"/><path d="M9.22 25.04C9.01 24.85 8.87 24.76 8.87 24.76L9.17 24.38C9.3 24.46 9.42 24.55 9.53 24.64 9.42 24.76 9.31 24.9 9.22 25.04Z" fill="#EFCAA6"/><path d="M10.59 29.02C10.63 28.63 10.63 28.26 10.59 27.93 10.79 27.95 10.99 27.92 11.15 27.81 11.24 28.63 11.15 29.25 11.15 29.25 10.64 29.42 10.59 29.02 10.59 29.02Z" fill="#F4F1EF"/><path d="M12.44 30.22C12.44 30.22 12.64 29.9 12.33 29.72 12.02 29.54 11.51 29.35 11.43 29.2 11.35 29.05 11.41 28.92 11.18 28.9 10.94 28.88 10.93 29.13 10.93 29.13L10.59 29.03 10.6 28.9C10.6 28.9 10.52 28.84 10.39 28.91 10.26 28.98 10.32 29.12 10.33 29.21 10.34 29.3 10.39 29.6 10.39 29.6 10.39 29.6 10.87 30.18 11.51 30.39 12.15 30.6 12.44 30.22 12.44 30.22Z" fill="#9C6AA9"/><path d="M11.34 30C11.33 29.62 11.66 29.52 11.97 29.53 12.1 29.59 12.22 29.65 12.33 29.71 12.64 29.89 12.44 30.21 12.44 30.21 12.44 30.21 12.15 30.6 11.51 30.39 11.49 30.38 11.46 30.37 11.44 30.36 11.38 30.25 11.34 30.13 11.34 30Z" fill="#BE8ECE"/><path d="M10.37 29.44C10.66 29.76 11.07 30.01 11.46 30.14 11.77 30.24 12.28 30.29 12.5 30 12.5 30.12 12.44 30.21 12.44 30.21 12.44 30.21 12.15 30.6 11.51 30.39 10.87 30.18 10.39 29.6 10.39 29.6 10.39 29.6 10.38 29.52 10.37 29.44Z" fill="#8846A3"/></g><g><path d="M6.58 25.17C6.58 25.17 8.25 26.84 7.31 29.71 7.31 29.71 7.28 30.11 7.81 30.05 7.81 30.05 9.03 26.96 6.95 24.86L6.58 25.17Z" fill="#EFCAA6"/><path d="M6.86 25.52C6.7 25.29 6.58 25.17 6.58 25.17L6.95 24.86C7.06 24.97 7.16 25.08 7.25 25.19 7.12 25.3 6.98 25.41 6.86 25.52Z" fill="#EFCAA6"/><path d="M7.32 29.71C7.44 29.33 7.52 28.98 7.56 28.64 7.75 28.7 7.95 28.72 8.13 28.64 8.04 29.46 7.81 30.04 7.81 30.04 7.28 30.11 7.32 29.71 7.32 29.71Z" fill="#F4F1EF"/><path d="M8.86 31.28C8.86 31.28 9.12 31.01 8.86 30.77 8.6 30.53 8.14 30.23 8.09 30.06 8.04 29.9 8.13 29.78 7.91 29.72 7.68 29.65 7.62 29.89 7.62 29.89L7.31 29.72 7.35 29.6C7.35 29.6 7.28 29.52 7.14 29.56 7 29.6 7.02 29.75 7.02 29.84 7.02 29.92 7 30.23 7 30.23 7 30.23 7.34 30.9 7.91 31.25 8.49 31.6 8.86 31.28 8.86 31.28Z" fill="#9C6AA9"/><path d="M7.84 30.83C7.91 30.46 8.26 30.44 8.56 30.51 8.67 30.6 8.78 30.69 8.87 30.77 9.13 31.01 8.87 31.28 8.87 31.28 8.87 31.28 8.5 31.59 7.92 31.25 7.9 31.24 7.88 31.22 7.86 31.21 7.83 31.08 7.81 30.95 7.84 30.83Z" fill="#BE8ECE"/><path d="M7.01 30.07C7.23 30.45 7.56 30.78 7.92 30.99 8.2 31.16 8.69 31.32 8.96 31.09 8.93 31.2 8.85 31.28 8.85 31.28 8.85 31.28 8.48 31.59 7.9 31.25 7.34 30.9 7 30.23 7 30.23 7 30.23 7.01 30.15 7.01 30.07Z" fill="#8846A3"/></g><path d="M9.34 22.54C9.34 22.54 8.89 23.17 7.75 23.59 6.61 24.02 6.17 24.11 6.17 24.11 6.17 24.11 6.39 23.44 7.48 22.9 8.56 22.35 9.34 22.54 9.34 22.54Z" fill="#C6BFBA"/><g><path d="M0.17 16.21C0.22 16.19 0.23 16.18 0.32 16.47 0.36 16.58 0.4 16.68 0.53 16.81 0.39 16.58 0.35 16.41 0.33 16.32 0.29 16.17 0.25 15.95 0.36 15.93 0.47 15.91 0.5 16 0.57 16.31 0.61 16.48 0.66 16.61 0.74 16.7 0.69 16.59 0.65 16.49 0.62 16.39 0.59 16.26 0.5 16.04 0.53 15.91 0.55 15.84 0.57 15.83 0.6 15.82 0.68 15.79 0.74 15.96 0.76 16.07 0.78 16.21 0.83 16.33 0.88 16.46 0.91 16.53 0.95 16.59 0.99 16.65 0.97 16.62 0.96 16.59 0.95 16.56 0.88 16.41 0.78 16.17 0.89 16.03 0.93 15.98 0.99 16.03 1 16.05 1.05 16.15 1.08 16.28 1.13 16.41 1.16 16.49 1.19 16.55 1.24 16.6 1.23 16.55 1.23 16.49 1.23 16.43 1.23 16.3 1.34 16.16 1.48 16.24 1.49 16.24 1.49 16.25 1.49 16.26 1.51 16.28 1.5 16.3 1.48 16.31 1.36 16.4 1.46 16.59 1.5 16.7 1.55 16.84 1.59 16.96 1.53 17.11 1.5 17.16 1.46 17.22 1.41 17.27 1.57 17.61 2.23 18.87 3.89 19.89L3.48 20.27C3.48 20.27 2.12 19.62 1.08 17.51 1.02 17.52 0.96 17.52 0.9 17.49 0.7 17.4 0.39 17.05 0.24 16.74 0.08 16.42 0.12 16.23 0.17 16.21Z" stroke="#C9976D" stroke-width="0.25" stroke-miterlimit="10" fill="#EFCAA6"/><g><path d="M0.99 16.86C1.04 16.8 1.15 16.74 1.24 16.74 1.24 16.72 1.24 16.7 1.24 16.68 1.23 16.59 1.21 16.51 1.22 16.42 1.22 16.29 1.33 16.15 1.47 16.23 1.48 16.23 1.48 16.24 1.48 16.25 1.5 16.27 1.49 16.29 1.47 16.3 1.35 16.39 1.45 16.58 1.49 16.69 1.54 16.83 1.58 16.95 1.52 17.1 1.49 17.16 1.43 17.24 1.36 17.3L0.9 17.1C0.9 17.01 0.94 16.92 0.99 16.86Z" fill="#EFCAA6"/><path d="M0.9 17.1 0.91 17.03C0.92 17.01 0.92 16.99 0.93 16.97L0.95 16.94C0.95 16.93 0.96 16.92 0.97 16.91L0.99 16.88C1 16.87 1 16.87 1.01 16.86 1.02 16.85 1.02 16.84 1.03 16.84 1.04 16.83 1.05 16.83 1.06 16.82 1.08 16.81 1.1 16.8 1.12 16.79 1.14 16.78 1.16 16.77 1.18 16.77L1.21 16.76 1.24 16.76 1.26 16.76 1.26 16.75C1.26 16.72 1.26 16.68 1.26 16.66L1.24 16.57C1.24 16.55 1.24 16.54 1.24 16.53L1.24 16.49C1.24 16.46 1.24 16.43 1.24 16.4 1.24 16.39 1.25 16.37 1.25 16.36 1.25 16.34 1.26 16.33 1.27 16.32 1.28 16.29 1.31 16.27 1.33 16.26 1.34 16.25 1.36 16.25 1.37 16.25 1.38 16.25 1.38 16.25 1.39 16.25 1.4 16.25 1.4 16.25 1.41 16.25 1.42 16.25 1.44 16.26 1.45 16.26L1.47 16.27C1.47 16.27 1.48 16.27 1.48 16.28 1.48 16.28 1.48 16.28 1.48 16.28L1.48 16.29 1.48 16.29C1.48 16.29 1.49 16.3 1.48 16.31 1.48 16.31 1.48 16.32 1.47 16.32 1.47 16.32 1.47 16.32 1.47 16.32L1.46 16.3 1.45 16.31 1.44 16.33C1.43 16.34 1.43 16.35 1.42 16.37 1.4 16.39 1.4 16.41 1.4 16.44 1.4 16.47 1.4 16.49 1.41 16.52 1.42 16.57 1.44 16.62 1.45 16.66 1.47 16.7 1.49 16.75 1.5 16.79 1.51 16.81 1.51 16.84 1.52 16.86L1.53 16.89 1.53 16.92C1.53 16.94 1.53 16.97 1.53 16.99 1.53 17.01 1.52 17.04 1.51 17.06 1.51 17.07 1.5 17.08 1.5 17.09L1.48 17.12C1.47 17.14 1.45 17.16 1.44 17.18L1.4 17.24 1.35 17.3 1.35 17.3 1.41 17.26C1.43 17.24 1.44 17.23 1.46 17.21 1.47 17.19 1.49 17.17 1.5 17.15L1.52 17.12C1.53 17.11 1.53 17.1 1.53 17.09 1.54 17.07 1.55 17.04 1.55 17.02 1.55 16.99 1.56 16.97 1.56 16.94 1.56 16.92 1.56 16.89 1.55 16.87 1.55 16.85 1.54 16.82 1.53 16.8 1.52 16.75 1.5 16.71 1.48 16.66 1.46 16.62 1.44 16.57 1.43 16.53 1.42 16.51 1.42 16.48 1.42 16.46 1.42 16.44 1.42 16.41 1.43 16.4 1.43 16.39 1.44 16.38 1.44 16.37L1.45 16.36 1.46 16.35 1.47 16.34C1.47 16.34 1.48 16.34 1.48 16.33 1.5 16.3 1.5 16.29 1.5 16.28 1.5 16.26 1.5 16.24 1.48 16.23L1.48 16.24C1.48 16.24 1.47 16.23 1.47 16.23 1.47 16.23 1.46 16.22 1.46 16.22 1.45 16.21 1.44 16.21 1.44 16.21 1.43 16.21 1.41 16.2 1.39 16.2 1.38 16.2 1.37 16.2 1.37 16.2 1.36 16.2 1.35 16.2 1.35 16.2 1.33 16.2 1.32 16.21 1.31 16.22 1.28 16.24 1.26 16.26 1.25 16.29 1.24 16.3 1.24 16.32 1.23 16.33 1.23 16.34 1.22 16.36 1.22 16.38 1.21 16.41 1.22 16.44 1.22 16.47L1.22 16.52C1.22 16.54 1.22 16.55 1.22 16.57L1.23 16.66C1.23 16.69 1.23 16.72 1.23 16.75L1.25 16.73C1.22 16.73 1.2 16.73 1.18 16.74 1.16 16.75 1.13 16.75 1.11 16.77 1.09 16.78 1.07 16.79 1.05 16.8 1.04 16.81 1.03 16.81 1.02 16.82 1 16.82 0.99 16.83 0.99 16.84 0.98 16.85 0.97 16.86 0.97 16.87L0.95 16.9C0.94 16.91 0.94 16.92 0.93 16.93L0.92 16.96C0.91 16.98 0.91 17.01 0.9 17.03 0.9 17.05 0.9 17.07 0.9 17.1L0.9 17.1Z" fill="#C9976D"/></g></g><g><path d="M7.86 15.22C7.68 15.31 7.63 15.21 7.51 15.07 7.39 14.92 7.16 14.83 7.07 14.79 6.98 14.75 7.04 14.68 7.1 14.64 7.21 14.57 7.36 14.67 7.47 14.75 7.45 14.71 7.44 14.69 7.44 14.69 7.44 14.69 7.4 14.7 7.21 14.21 7.17 14.11 7.13 14 7.12 13.94 7.09 13.71 7.25 13.77 7.33 13.98 7.41 14.21 7.65 14.51 7.65 14.51 7.57 14.37 7.5 14.14 7.47 13.97 7.44 13.81 7.45 13.73 7.51 13.69 7.56 13.66 7.62 13.71 7.64 13.79 7.68 13.92 7.68 13.98 7.7 14.06 7.75 14.26 7.86 14.41 7.86 14.41 7.78 13.57 8.04 13.8 8.06 14 8.07 14.2 8.1 14.48 8.1 14.48 8.21 13.94 8.43 14.07 8.39 14.18 8.35 14.28 8.23 14.56 8.26 14.62 8.41 14.95 8.26 15.07 8.26 15.07 9.25 17.84 8.06 19.77 8.06 19.77L7.45 19.26C8.53 17.22 7.92 15.37 7.86 15.22Z" stroke="#C9976D" stroke-width="0.25" stroke-miterlimit="10" fill="#EFCAA6"/><g><path d="M7.1 14.64C7.26 14.54 7.52 14.8 7.56 14.82 7.6 14.84 7.62 14.81 7.67 14.77 7.85 14.65 7.95 14.71 8 14.8L8 15.13C7.98 15.15 7.94 15.17 7.89 15.2 7.7 15.31 7.64 15.21 7.52 15.06 7.4 14.91 7.17 14.82 7.08 14.78 6.99 14.74 7.04 14.68 7.1 14.64Z" fill="#EFCAA6"/><path d="M8 14.8C8 14.8 8 14.79 7.99 14.78 7.99 14.77 7.98 14.76 7.97 14.75 7.97 14.74 7.96 14.74 7.96 14.73 7.95 14.72 7.95 14.72 7.94 14.72 7.93 14.71 7.91 14.7 7.89 14.7 7.88 14.7 7.87 14.7 7.86 14.7 7.85 14.7 7.85 14.7 7.84 14.7 7.83 14.7 7.83 14.7 7.82 14.7 7.81 14.7 7.8 14.7 7.78 14.7 7.77 14.7 7.76 14.71 7.74 14.71 7.71 14.72 7.69 14.73 7.67 14.75 7.66 14.75 7.64 14.76 7.63 14.77 7.62 14.78 7.61 14.79 7.6 14.8 7.6 14.8 7.59 14.81 7.58 14.8 7.57 14.8 7.56 14.79 7.55 14.78 7.5 14.74 7.44 14.7 7.38 14.67 7.32 14.64 7.25 14.6 7.18 14.61 7.14 14.61 7.11 14.63 7.08 14.65 7.06 14.66 7.05 14.67 7.04 14.69 7.03 14.71 7.02 14.73 7.03 14.75 7.04 14.77 7.06 14.78 7.08 14.79L7.13 14.81C7.16 14.83 7.19 14.84 7.23 14.86 7.29 14.89 7.35 14.93 7.41 14.97 7.46 15.01 7.5 15.06 7.54 15.11 7.58 15.16 7.62 15.21 7.67 15.24 7.7 15.25 7.72 15.26 7.75 15.26 7.78 15.26 7.8 15.25 7.83 15.24 7.87 15.22 7.91 15.2 7.93 15.18 7.97 15.16 8 15.14 8 15.14L8 15.14C8 15.14 7.97 15.16 7.91 15.19 7.88 15.21 7.85 15.23 7.81 15.24 7.79 15.24 7.77 15.25 7.74 15.25 7.72 15.25 7.7 15.24 7.67 15.23 7.63 15.2 7.6 15.15 7.56 15.1 7.52 15.05 7.47 15 7.42 14.96 7.36 14.92 7.3 14.88 7.23 14.85 7.2 14.83 7.17 14.82 7.13 14.81 7.1 14.79 7.06 14.78 7.04 14.76 7.03 14.73 7.06 14.7 7.08 14.68 7.11 14.66 7.14 14.64 7.17 14.64 7.24 14.64 7.31 14.67 7.36 14.71 7.42 14.75 7.47 14.79 7.52 14.83 7.53 14.84 7.55 14.85 7.57 14.86 7.59 14.87 7.62 14.86 7.63 14.85 7.64 14.84 7.65 14.83 7.66 14.82 7.67 14.81 7.68 14.8 7.69 14.8 7.71 14.79 7.74 14.77 7.76 14.76 7.77 14.76 7.78 14.75 7.79 14.75 7.8 14.75 7.81 14.75 7.82 14.74L7.83 14.74C7.83 14.74 7.84 14.74 7.84 14.74 7.85 14.74 7.86 14.74 7.87 14.74 7.89 14.75 7.9 14.75 7.92 14.76 7.93 14.76 7.93 14.77 7.94 14.77 7.94 14.77 7.95 14.78 7.95 14.78 7.96 14.79 7.97 14.79 7.97 14.8 8 14.79 8 14.8 8 14.8L8 14.8Z" fill="#C9976D"/></g></g><path d="M8.78 22.47C8.78 22.47 8.93 22.94 9.01 23.46 9.01 23.46 9.81 24.39 9.99 24.73 9.99 24.73 9.24 25.27 8.5 25.59 8.5 25.59 8.15 25 8.06 24.89L7.93 25.7C7.93 25.7 6.85 25.87 6.08 25.67 6.08 25.67 6.01 24.32 6.32 23.87L8.78 22.47Z" fill="#836963"/><path d="M8.24 23.43C8.07 23.47 7.89 23.51 7.71 23.52 7.55 23.52 7.39 23.52 7.23 23.54 7.2 23.55 7.19 23.59 7.21 23.61 7.39 23.76 7.64 23.78 7.87 23.78 8.03 23.78 8.19 23.78 8.34 23.77 8.01 23.84 7.67 23.82 7.33 23.79 7.05 23.77 6.74 23.73 6.52 23.96 6.42 24.07 6.43 24.21 6.41 24.35 6.38 24.55 6.37 24.76 6.39 24.96 6.41 25.24 6.48 25.5 6.57 25.75 6.4 25.73 6.23 25.71 6.07 25.67 6.07 25.67 6 24.32 6.31 23.87L8.77 22.48C8.77 22.48 8.86 22.77 8.94 23.13 8.78 23.3 8.46 23.38 8.24 23.43Z" fill="#836963" opacity="0.6"/><path d="M7.86 25.26C7.9 25.01 7.98 24.76 7.99 24.51 8.24 24.47 8.47 24.31 8.65 24.13 8.59 24.22 8.52 24.31 8.45 24.39 8.44 24.4 8.44 24.42 8.45 24.43 8.52 24.54 8.61 24.64 8.68 24.75 8.73 24.82 8.77 24.9 8.83 24.96 8.92 25.05 9.01 25.1 9.14 25.08 9.3 25.06 9.49 24.95 9.63 24.88 9.73 24.83 9.85 24.79 9.95 24.73 9.82 24.82 9.15 25.29 8.48 25.57 8.48 25.57 8.13 24.98 8.04 24.87L7.91 25.68C7.91 25.68 7.87 25.69 7.79 25.7 7.82 25.56 7.84 25.41 7.86 25.26Z" fill="#836963" opacity="0.6"/><path d="M7.79 23.4C7.59 23.41 7.39 23.4 7.19 23.37L8.77 22.47C8.77 22.47 8.86 22.75 8.94 23.11 8.61 23.32 8.19 23.38 7.79 23.4Z" fill="#C9976D"/><path d="M6.48 24.31C6.37 24.36 6.26 24.39 6.14 24.41 6.18 24.19 6.23 23.99 6.32 23.86L6.8 23.59C6.82 23.88 6.78 24.17 6.48 24.31Z" fill="#99714D" opacity="0.7"/><path d="M3.88 19.66 3.18 20.34C3.18 20.34 3.9 21.34 4.97 21.52 6.04 21.7 7.91 21.32 8.51 19.03 8.51 19.03 8.13 18.84 7.46 18.82 7.45 18.83 7.29 21.14 3.88 19.66Z" fill="#D03E16"/><path d="M6.18 19.94 6.54 19.9C8.32 20.54 9.34 22.54 9.34 22.54 8.06 22.79 6.17 24.11 6.17 24.11 5.89 22.61 4.96 21.52 4.96 21.52L6.18 19.94Z" fill="#F4F1EF"/><path d="M6.55 20.71C6.24 20.83 6.08 20.47 6.01 20.16L6.18 19.94 6.54 19.9C6.57 19.91 6.6 19.92 6.63 19.94 6.77 20.18 6.86 20.6 6.55 20.71Z" fill="#BB0F00" opacity="0.4"/><path d="M6.54 19.92C6.54 19.92 6.75 20.43 6.51 20.5 6.26 20.58 6.05 20 6.05 20L6.54 19.92Z" fill="#EFCAA6"/><path d="M3.37 20.15C3.84 20.74 4.54 20.94 5.27 21.03 5.52 21.23 5.71 21.49 5.9 21.75 6.14 22.09 6.37 22.44 6.56 22.81 6.69 23.08 6.81 23.35 6.91 23.63 6.47 23.9 6.17 24.11 6.17 24.11 5.89 22.61 4.96 21.52 4.96 21.52 3.89 21.34 3.17 20.34 3.17 20.34L3.37 20.15Z" fill="#D6CCC5"/><path d="M7.73 19.74C7.49 20.02 7.16 20.25 6.8 20.37 6.11 20.62 5.34 20.52 4.86 20 5.33 20.13 5.71 20.16 6.02 20.14L6.18 19.93 6.54 19.89C6.6 19.91 6.65 19.93 6.7 19.95 7.4 19.58 7.45 18.82 7.45 18.82 7.73 18.83 7.95 18.86 8.12 18.9 8.05 19.21 7.93 19.51 7.73 19.74Z" fill="#D6CCC5"/><g><path d="M7.15 16.78C7.15 16.78 7.35 16.44 7.07 16.09 7.07 16.09 7.24 16.08 7.37 16.29 7.5 16.5 7.54 15.85 6.88 15.46 6.22 15.07 5.02 14.75 3.63 15.47 3.19 15.7 2.44 16.51 2.41 17.48 2.41 17.48 2.28 17.39 2.3 17.2 2.3 17.2 2.14 17.36 2.21 17.58 2.21 17.58 1.97 17.62 1.9 17.75L2.2 17.76C2.2 17.76 1.88 18.51 2.7 19.34 3.52 20.17 5.44 19.95 5.44 19.95L7.15 16.78Z" fill="#99714D"/><path d="M2.03 17.75C2.16 17.69 2.29 17.66 2.45 17.68 2.24 17.94 2.2 18.27 2.37 18.57 2.41 18.65 2.52 18.74 2.62 18.68 2.72 18.61 2.76 18.48 2.8 18.37 2.93 18.56 3.18 19.12 3.43 18.89 3.62 18.72 3.67 18.41 3.67 18.16 3.67 18 3.65 17.84 3.63 17.68 3.71 17.84 3.82 18.09 3.98 18.19 4.16 18.3 4.17 18.02 4.16 17.91 4.13 17.54 4.13 17.16 4.16 16.79 4.22 17.12 4.29 17.45 4.46 17.74 4.47 17.75 4.48 17.76 4.5 17.75 4.58 17.7 4.6 17.59 4.61 17.5 4.63 17.36 4.63 17.22 4.63 17.08 4.63 16.72 4.67 16.35 4.54 16.01 4.74 16.2 4.95 16.41 5.23 16.42 5.25 16.42 5.26 16.41 5.26 16.39 5.23 16.18 5.07 16.06 4.91 15.96 5.11 16.03 5.31 16.09 5.53 16.12 5.75 16.15 5.98 16.19 6.2 16.13 6.22 16.12 6.23 16.1 6.21 16.08 5.96 15.92 5.68 15.81 5.41 15.68 5.61 15.72 5.81 15.78 6.01 15.81 6.14 15.83 6.28 15.84 6.42 15.86 6.52 15.88 6.62 15.89 6.72 15.88 6.75 15.88 6.75 15.85 6.73 15.83 6.62 15.73 6.5 15.67 6.36 15.62 6.48 15.63 6.61 15.64 6.73 15.62 6.75 15.62 6.76 15.58 6.74 15.57 6.57 15.47 6.4 15.4 6.21 15.35 6.49 15.4 6.76 15.49 6.98 15.66 6.91 15.66 6.85 15.68 6.79 15.72 6.77 15.73 6.78 15.76 6.8 15.77 7 15.87 7.19 15.97 7.36 16.1 7.38 16.12 7.41 16.1 7.4 16.08 7.39 16.03 7.38 15.99 7.37 15.95 7.5 16.21 7.45 16.41 7.38 16.28 7.25 16.07 7.08 16.08 7.08 16.08 7.36 16.43 7.16 16.77 7.16 16.77L5.45 19.94C5.45 19.94 3.53 20.16 2.71 19.33 1.89 18.5 2.21 17.75 2.21 17.75L2.03 17.75Z" fill="#99714D" opacity="0.7"/><path d="M6.6 15.97C6.6 15.97 6.96 16.13 7.14 16.58 7.31 17.03 7.49 17.01 7.72 17.23 7.95 17.45 8.62 17.95 7.94 19.27 7.78 19.58 6.54 20.5 5.49 20.1 5.06 19.93 4.68 19.82 4.33 19.24 4.33 19.24 4.25 19.52 3.85 19.27 3.45 19.02 3.75 18.42 4.17 18.66 4.17 18.66 4.42 19.01 4.39 18.59 4.35 18.17 4.29 17.75 4.29 17.75 4.29 17.75 4.39 18.25 4.6 18.21 4.81 18.18 4.9 16.44 4.9 16.44 4.9 16.44 5.17 16.62 5.27 16.6 5.38 16.58 5.27 16.3 5.27 16.3 5.27 16.3 6.26 16.29 6.42 16.26 6.58 16.24 6.18 15.99 6.18 15.99L6.6 15.97Z" fill="#F4D9BF"/><path d="M4 18.81C4.11 18.81 4.17 18.98 4.19 19.06 4.19 19.07 4.18 19.07 4.18 19.06 4.16 19.03 4.14 19 4.12 18.97 4.08 19.03 4.02 19.07 3.99 19.14 3.99 19.15 3.97 19.14 3.97 19.14 4 19.06 4.06 19 4.1 18.93 4.1 18.93 4.1 18.93 4.1 18.93 4.08 18.91 4.06 18.88 4.04 18.87 3.94 18.81 3.87 18.97 3.84 19.03 3.84 19.04 3.82 19.04 3.82 19.03 3.82 18.93 3.9 18.82 4 18.81Z" fill="#C39368"/><path d="M7.16 17.68C7.13 17.67 7.11 17.66 7.1 17.64 7.06 17.61 7.01 17.57 7 17.52 7 17.51 7.01 17.51 7.01 17.51 7.04 17.54 7.07 17.57 7.12 17.59 7.14 17.6 7.16 17.6 7.19 17.61 7.2 17.61 7.22 17.61 7.23 17.61 7.3 17.56 7.38 17.53 7.44 17.56 7.55 17.62 7.5 17.81 7.47 17.9 7.47 17.91 7.46 17.9 7.46 17.9 7.48 17.82 7.49 17.7 7.43 17.64 7.39 17.6 7.32 17.64 7.28 17.66 7.21 17.7 7.17 17.77 7.13 17.83 7.12 17.84 7.1 17.84 7.1 17.82 7.09 17.78 7.12 17.72 7.16 17.68Z" fill="#C39368"/><path d="M7.59 18.37C7.8 18.32 7.83 18.84 7.66 19.09 7.49 19.34 7.14 19.18 7.2 18.86 7.26 18.54 7.48 18.39 7.59 18.37Z" fill="#930323"/><g><path d="M7.29 17.18C7.37 17.26 7.45 17.3 7.47 17.28 7.49 17.25 7.44 17.16 7.37 17.08 7.29 17 7.21 16.96 7.19 16.98 7.17 17.01 7.22 17.1 7.29 17.18Z" fill="#3D1A0B"/><path d="M7.28 17.06C7.31 17.08 7.33 17.09 7.34 17.09 7.35 17.08 7.33 17.05 7.3 17.03 7.27 17.01 7.25 17 7.24 17.01 7.24 17.01 7.25 17.04 7.28 17.06Z" fill="#FFFFFF"/></g><g><path d="M6.18 17.55C6.26 17.66 6.35 17.72 6.39 17.69 6.43 17.66 6.4 17.55 6.32 17.44 6.24 17.33 6.15 17.27 6.11 17.3 6.07 17.33 6.1 17.44 6.18 17.55Z" fill="#3D1A0B"/><path d="M6.2 17.41C6.22 17.44 6.25 17.46 6.26 17.45 6.27 17.44 6.26 17.41 6.23 17.37 6.2 17.34 6.18 17.32 6.16 17.33 6.16 17.34 6.17 17.38 6.2 17.41Z" fill="#FFFFFF"/></g><path d="M6.42 18.03C6.41 18.12 6.24 18.17 6.03 18.16 5.82 18.14 5.66 18.06 5.67 17.98 5.68 17.89 5.85 17.84 6.06 17.85 6.26 17.86 6.42 17.94 6.42 18.03Z" fill="#F9CBC0"/><path d="M7.8 17.31C7.83 17.36 7.77 17.44 7.68 17.49 7.59 17.54 7.49 17.53 7.46 17.48 7.43 17.43 7.49 17.34 7.58 17.3 7.67 17.25 7.77 17.26 7.8 17.31Z" fill="#F9CBC0"/><path d="M5.71 16.79C5.89 16.71 6.13 16.8 6.25 16.95 6.26 16.96 6.25 16.97 6.24 16.96 6.1 16.88 5.95 16.82 5.78 16.86 5.71 16.89 5.65 16.93 5.61 17 5.56 17.08 5.58 17.17 5.56 17.25 5.55 17.27 5.52 17.29 5.5 17.26 5.41 17.08 5.54 16.87 5.71 16.79Z" fill="#684B33"/><path d="M6.95 16.5C7.05 16.47 7.16 16.57 7.17 16.66 7.17 16.68 7.15 16.69 7.13 16.68 7.08 16.66 7.05 16.6 7 16.59 6.93 16.57 6.85 16.7 6.86 16.75 6.86 16.76 6.85 16.76 6.84 16.75 6.8 16.65 6.84 16.54 6.95 16.5Z" fill="#684B33"/></g><path d="M10.89 21.94C10.78 21.21 10.56 20.5 10.39 19.78 10.39 19.78 10.4 19.77 10.4 19.78 10.61 20.48 10.83 21.17 10.95 21.89 11.07 22.61 11.07 23.35 10.94 24.07 10.94 24.09 10.91 24.08 10.92 24.06 10.98 23.34 11 22.65 10.89 21.94Z" fill="#2B120C"/><path d="M10.6 21.99C10.49 21.42 10.32 20.86 10.17 20.3 10.17 20.3 10.17 20.29 10.17 20.3 10.33 20.84 10.5 21.39 10.62 21.95 10.74 22.51 10.79 23.09 10.76 23.65 10.76 23.66 10.75 23.66 10.75 23.65 10.75 23.09 10.71 22.55 10.6 21.99Z" fill="#2B120C"/><path d="M3 21.43C2.75 20.74 2.39 20.08 2.08 19.41 2.08 19.4 2.08 19.4 2.09 19.41 2.43 20.05 2.78 20.69 3.04 21.37 3.3 22.05 3.45 22.78 3.45 23.51 3.45 23.53 3.43 23.53 3.42 23.51 3.36 22.79 3.25 22.11 3 21.43Z" fill="#2B120C"/><path d="M2.72 21.54C2.5 21 2.22 20.49 1.97 19.97 1.97 19.97 1.97 19.96 1.97 19.97 2.24 20.47 2.51 20.97 2.73 21.5 2.96 22.03 3.12 22.58 3.2 23.14 3.2 23.15 3.19 23.15 3.19 23.14 3.08 22.59 2.94 22.07 2.72 21.54Z" fill="#2B120C"/></g><g><path d="M18.72 11.48C18.72 11.48 18.58 11.75 18.1 11.91 17.62 12.08 17.36 11.9 17.36 11.9 17.36 11.9 17.42 11.61 17.82 11.48 18.21 11.36 18.72 11.48 18.72 11.48Z" fill="#5C3D70"/><path d="M19.03 11.3C19.03 11.3 20.12 11.61 20.41 10.94 20.41 10.94 20.03 10.74 19.58 10.86 19.14 10.98 19.03 11.3 19.03 11.3Z" fill="#5C3D70"/><path d="M18.3 11.54C18.3 11.54 17.94 11.6 17.68 11.73 17.68 11.73 18.18 12.68 17.94 14.13 17.94 14.13 17.81 14.67 18.19 14.8 18.57 14.93 18.66 14.58 18.69 14.04 18.73 13.5 18.74 12.45 18.3 11.54Z" fill="#F4D9BF"/><path d="M17.96 11.88C17.9 11.9 17.84 11.93 17.78 11.96 17.73 11.81 17.68 11.73 17.68 11.73 17.94 11.6 18.3 11.54 18.3 11.54 18.34 11.62 18.37 11.69 18.4 11.77 18.25 11.79 18.1 11.83 17.96 11.88Z" fill="#EFCAA6"/><path d="M18.01 13.43C18.23 13.54 18.51 13.59 18.72 13.5 18.72 13.71 18.72 13.89 18.71 14.03 18.68 14.57 18.58 14.92 18.21 14.79 17.83 14.66 17.96 14.12 17.96 14.12 17.99 13.88 18.01 13.65 18.01 13.43Z" fill="#F2EEEB"/><path d="M20.11 10.92C20.11 10.92 19.86 10.87 19.49 10.99 19.49 10.99 20.13 12.76 19.83 14.17 19.83 14.17 19.87 14.57 20.53 14.53 20.54 14.52 20.91 12.42 20.11 10.92Z" fill="#F4D9BF"/><path d="M20.02 11.15C19.87 11.18 19.73 11.23 19.59 11.3 19.53 11.1 19.49 10.98 19.49 10.98 19.86 10.86 20.11 10.91 20.11 10.91 20.14 10.98 20.18 11.05 20.21 11.11 20.15 11.13 20.08 11.14 20.02 11.15Z" fill="#EFCAA6"/><path d="M19.92 13.32C20.16 13.39 20.42 13.4 20.63 13.29 20.64 14 20.55 14.52 20.55 14.52 19.89 14.56 19.85 14.16 19.85 14.16 19.89 13.89 19.92 13.61 19.92 13.32Z" fill="#F2EEEB"/><path d="M20.11 14.27C20.11 14.27 19.89 14.11 19.86 13.96 19.86 13.96 19.73 14.05 19.66 14.47 19.59 14.89 19.63 15.12 20.14 15.56 20.65 16 21.55 16.49 21.7 15.86 21.74 15.69 21.69 15.59 21.27 15.1 20.85 14.61 20.79 14.72 20.8 14.5 20.81 14.29 20.82 14.1 20.59 14 20.38 13.9 20.11 14.27 20.11 14.27Z" fill="#359381"/><path d="M20.69 15.69C20.93 15.84 21.32 16.06 21.63 16.03 21.36 16.38 20.59 15.95 20.14 15.56 19.67 15.15 19.6 14.93 19.65 14.56 19.67 14.91 20.26 15.41 20.69 15.69Z" fill="#359381"/><path d="M18.88 14.68C19.05 14.92 19.51 15.47 19.44 15.73 19.37 15.98 19.19 16.13 18.88 16.02 18.58 15.91 18.05 15.5 17.78 15.26 17.51 15.02 17.36 14.76 17.54 14.35 17.73 13.94 17.7 13.81 17.99 13.94 17.99 13.94 18.06 14.19 18.19 14.28 18.19 14.28 18.42 14.07 18.63 14.11 18.85 14.16 18.83 14.34 18.83 14.53 18.82 14.62 18.88 14.68 18.88 14.68Z" fill="#359381"/><path d="M18.49 15.56C18.72 15.69 19.13 15.93 19.4 15.83 19.32 16.03 19.14 16.12 18.88 16.03 18.58 15.92 18.05 15.51 17.78 15.27 17.54 15.05 17.39 14.83 17.49 14.49 17.7 14.94 18.02 15.29 18.49 15.56Z" fill="#359381"/><path d="M18.72 9.27 18.77 9.61C18.77 9.61 19.82 10.05 20.4 10.94 20.4 10.94 19.48 10.74 19.02 11.3 19.02 11.3 18.62 10.75 18.21 10.54 18.21 10.54 18.67 11.15 18.71 11.48 18.71 11.48 17.92 11.54 17.35 11.9 17.35 11.9 17.06 11.23 16.55 10.87 16.04 10.52 15.77 10.52 15.91 9.85 16.06 9.19 16.12 9.22 16.12 9.22L18.72 9.27Z" fill="#9F83AF"/><path d="M15.92 9.85C16.07 9.19 16.13 9.22 16.13 9.22L18.73 9.27 18.78 9.61C18.78 9.61 18.8 9.62 18.83 9.63 18.64 9.68 18.47 9.76 18.29 9.86 18.35 9.8 18.41 9.74 18.47 9.7 18.55 9.65 18.62 9.61 18.68 9.54 18.7 9.51 18.68 9.47 18.64 9.48 18.37 9.54 18.14 9.7 17.89 9.78 17.58 9.88 17.25 9.9 16.93 9.87 16.79 9.86 16.54 9.74 16.4 9.82 16.3 9.88 16.33 10.07 16.33 10.15 16.34 10.31 16.47 10.41 16.6 10.49 16.84 10.66 17.03 10.87 17.2 11.11 17.35 11.32 17.47 11.55 17.58 11.79 17.51 11.83 17.44 11.86 17.37 11.91 17.37 11.91 17.08 11.24 16.57 10.88 16.05 10.52 15.77 10.52 15.92 9.85Z" fill="#9F83AF" opacity="0.6"/><path d="M18.22 10.54C18.22 10.54 18.68 11.15 18.72 11.48 18.72 11.48 18.71 11.48 18.68 11.48 18.6 11.25 18.52 11.03 18.38 10.83 18.2 10.57 17.94 10.41 17.65 10.32 17.77 10.34 17.88 10.35 18 10.37 18.07 10.38 18.19 10.4 18.25 10.36 18.35 10.28 18.41 10.16 18.53 10.09 18.59 10.05 18.66 10.02 18.72 10 18.61 10.11 18.54 10.25 18.46 10.38 18.45 10.4 18.46 10.43 18.48 10.44 18.71 10.52 18.88 10.64 19.08 10.76 19.19 10.83 19.31 10.89 19.44 10.89 19.64 10.9 19.83 10.89 20.01 10.91 19.7 10.92 19.29 10.99 19.03 11.31 19.03 11.3 18.63 10.76 18.22 10.54Z" fill="#9F83AF" opacity="0.6"/><path d="M19.42 7.42 18.91 7.63C18.91 7.63 18.92 8.35 18.76 9.31 18.76 9.31 16.75 10.09 16.2 9.43 16.27 9.05 16.39 8.31 16.61 7.99 16.61 7.99 16.23 7.81 16.05 7.62 16.05 7.62 16.32 6.38 17.07 6.01 17.81 5.64 18.55 5.93 18.69 6.04 18.84 6.15 19.1 6.39 19.42 7.42Z" fill="#B92400"/><path d="M18.49 6.33C18.25 6.39 18.01 6.43 17.77 6.41 17.45 6.38 17.15 6.3 16.87 6.15 16.94 6.1 17.01 6.05 17.08 6.01 17.82 5.64 18.56 5.93 18.7 6.04 18.74 6.07 18.79 6.11 18.85 6.18 18.73 6.24 18.62 6.3 18.49 6.33Z" fill="#A02400"/><path d="M16.26 7.75C16.36 7.8 16.56 7.96 16.67 7.85 16.73 7.79 17.23 6.7 17.37 6.54 17.32 6.65 17.29 6.76 17.26 6.88 17.2 7.09 17.12 7.29 17.08 7.49 16.98 7.92 16.89 8.36 16.82 8.8 16.79 8.99 16.75 9.19 16.75 9.38 16.75 9.49 16.78 9.58 16.87 9.64 16.91 9.67 16.94 9.69 16.98 9.7 16.66 9.7 16.38 9.63 16.22 9.43 16.29 9.05 16.41 8.31 16.63 7.99 16.63 7.99 16.25 7.81 16.07 7.62 16.07 7.62 16.07 7.62 16.07 7.61 16.12 7.66 16.19 7.71 16.26 7.75Z" fill="#A02400"/><path d="M18.86 7.86C18.84 7.57 18.81 6.96 18.64 6.42 18.85 6.78 18.91 7.19 19 7.59L18.9 7.63C18.9 7.63 18.91 8.35 18.75 9.31 18.75 9.31 18.74 9.31 18.72 9.32 18.8 8.84 18.89 8.37 18.86 7.86Z" fill="#A02400"/><path d="M18.31 5.82C18.31 5.82 18.3 6.21 18.2 6.29 18.1 6.37 17.66 6.45 17.75 5.77L18.31 5.82Z" fill="#D4A87F"/><path d="M17.23 5.6C17.23 5.6 17.04 5.73 16.61 5.49 16.61 5.49 17.01 5.83 16.66 5.73 16.43 5.67 16.16 5.47 16.1 5.39 16.1 5.39 16.23 5.59 16.12 5.61 16.01 5.63 15.68 5.36 15.54 5.04 15.54 5.04 15.51 5.32 15.37 5.29 15.23 5.26 15.16 4.62 15.16 4.62 15.16 4.62 15.17 4.89 15.06 4.88 14.95 4.87 14.63 4.06 14.95 3.65 14.95 3.65 14.76 3.84 14.68 3.8 14.59 3.76 14.59 3.32 14.88 3.11 14.88 3.11 14.68 3.24 14.62 3.18 14.55 3.12 14.68 2.83 14.88 2.67 14.88 2.67 14.63 2.68 14.52 2.58 14.41 2.48 14.83 2.03 15.16 1.91 15.16 1.91 15.03 1.95 14.91 1.86 14.78 1.77 14.92 1.37 15.76 1.26 15.76 1.26 15.55 1.11 15.52 1 15.49 0.88 16.14 0.66 16.51 0.73 16.51 0.73 16.3 0.53 16.33 0.36 16.36 0.2 16.82 0.37 17 0.57 17 0.57 17.15 0.07 17.32 0.07 17.5 0.07 17.42 0.47 17.42 0.47 17.42 0.47 17.89-0.03 18.19 0 18.48 0.03 18.13 0.36 18.13 0.36 18.13 0.36 18.5 0.16 18.73 0.22 18.96 0.29 18.55 0.52 18.55 0.52 18.55 0.52 19.14 0.39 19.32 0.51 19.5 0.63 19.09 0.81 19.09 0.81 19.09 0.81 19.45 0.62 19.56 0.64 19.67 0.66 19.49 1.01 19.49 1.01 19.49 1.01 19.73 0.76 19.81 0.79 19.9 0.83 19.86 1.21 19.86 1.21 19.86 1.21 19.97 1.14 20.07 1.17 20.17 1.2 19.99 1.51 19.99 1.51 19.99 1.51 20.34 1.37 20.3 1.53 20.28 1.62 20.15 1.76 20.15 1.76 20.15 1.76 20.59 2 20.39 2.02 20.16 2.05 19.91 1.96 19.91 1.96 19.91 1.96 20.21 2.45 20 2.51 19.78 2.58 17.23 5.6 17.23 5.6Z" fill="#8D2300"/><path d="M14.52 2.59C14.48 2.55 14.51 2.47 14.59 2.37 14.58 2.42 14.6 2.46 14.64 2.49 14.79 2.6 14.96 2.53 15.12 2.43 15 2.56 14.89 2.7 14.91 2.87 14.91 2.9 14.94 2.92 14.96 2.91 15.04 2.89 15.1 2.86 15.15 2.82 15.11 3.04 15.06 3.42 15.31 3.34 15.45 3.3 15.48 3.07 15.48 2.88 15.56 3.05 15.69 3.26 15.84 3.13 16.01 2.99 15.83 2.7 15.71 2.47 15.8 2.57 15.91 2.65 16.01 2.54 16.2 2.34 15.96 1.99 15.94 1.74 16.11 1.92 16.29 2.29 16.57 2.2 16.85 2.11 16.87 1.65 16.94 1.37 17.06 1.6 17.12 2.1 17.44 2.03 17.7 1.97 17.8 1.67 17.9 1.44 17.92 1.69 17.95 2.07 18.14 2.1 18.31 2.13 18.38 1.95 18.41 1.75 18.44 1.92 18.5 2.08 18.65 2.09 18.85 2.11 18.83 1.81 18.8 1.6 18.91 1.78 19.06 2.01 19.22 2 19.39 1.99 19.33 1.82 19.25 1.66 19.38 1.79 19.52 1.91 19.7 1.96 19.73 1.97 19.75 1.95 19.76 1.92 19.76 1.79 19.69 1.69 19.61 1.6 19.82 1.68 20.04 1.75 20.21 1.56 20.24 1.53 20.26 1.49 20.28 1.46 20.29 1.47 20.3 1.49 20.29 1.52 20.27 1.61 20.14 1.75 20.14 1.75 20.14 1.75 20.58 1.99 20.38 2.01 20.15 2.04 19.9 1.95 19.9 1.95 19.9 1.95 20.2 2.44 19.99 2.5 19.77 2.56 17.22 5.58 17.22 5.58 17.22 5.58 17.03 5.71 16.6 5.47 16.6 5.47 17 5.81 16.65 5.71 16.42 5.65 16.15 5.45 16.09 5.37 16.09 5.37 16.22 5.57 16.11 5.59 16 5.61 15.67 5.34 15.53 5.02 15.53 5.02 15.5 5.3 15.36 5.27 15.22 5.24 15.15 4.6 15.15 4.6 15.15 4.6 15.16 4.87 15.05 4.86 14.94 4.85 14.62 4.04 14.94 3.63 14.94 3.63 14.75 3.82 14.67 3.78 14.58 3.74 14.58 3.3 14.87 3.09 14.87 3.09 14.67 3.22 14.61 3.16 14.54 3.1 14.67 2.81 14.87 2.65 14.88 2.68 14.63 2.69 14.52 2.59Z" fill="#6D2300" opacity="0.6"/><path d="M16 3.77C16 3.77 16.08 3.89 16.09 4.01 16.1 4.13 16.57 3.7 16.1 3.04 16.1 3.04 16.46 3.28 16.57 3.21 16.68 3.13 16.31 2.62 16.31 2.62 16.31 2.62 16.71 3.03 16.94 2.95 17.17 2.87 17 2.21 17 2.21 17 2.21 17.1 2.56 17.25 2.69 17.41 2.82 17.79 2.06 17.79 2.06 17.79 2.06 17.92 2.46 18.11 2.51 18.3 2.56 18.41 2.15 18.41 2.15 18.41 2.15 18.47 2.48 18.71 2.5 18.96 2.52 18.92 2.04 18.92 2.04 18.92 2.04 19.27 2.45 19.44 2.44 19.61 2.43 19.47 2.08 19.47 2.08 19.47 2.08 19.87 2.44 20.01 2.45 20.09 2.46 19.99 2.18 19.89 1.97 20.04 2.13 20.18 2.38 20.18 2.75 20.18 2.97 20.08 3.3 20.22 3.65 20.36 4 20.75 4.76 19.77 5.55 18.79 6.33 16.47 5.98 16.15 4.63 16.15 4.63 15.72 4.86 15.52 4.4 15.33 3.91 15.7 3.62 16 3.77Z" fill="#F4D9BF"/><path d="M18.83 5.65C19.24 5.7 19.55 5.38 19.69 4.97 19.58 5.02 19.4 5.05 19.29 5.06 18.92 5.1 18.55 4.89 18.25 4.7 18.23 5.09 18.41 5.61 18.83 5.65Z" fill="#930323"/><path d="M15.71 4.26C15.76 4.17 15.85 4.13 15.95 4.19 16.04 4.25 16.1 4.36 16.09 4.47 16.09 4.49 16.06 4.48 16.06 4.47 16.06 4.4 16.02 4.34 15.97 4.29 15.96 4.29 15.96 4.3 15.96 4.31 15.95 4.32 15.94 4.35 15.94 4.36 15.93 4.39 15.92 4.44 15.92 4.47 15.92 4.48 15.91 4.48 15.91 4.47 15.9 4.43 15.89 4.4 15.9 4.36 15.9 4.33 15.91 4.28 15.93 4.25 15.87 4.22 15.79 4.22 15.72 4.27 15.71 4.28 15.7 4.27 15.71 4.26Z" fill="#C39368"/><path d="M19.47 4.41C19.52 4.35 19.54 4.25 19.51 4.19 19.47 4.11 19.35 4.18 19.28 4.22 19.25 4.14 19.21 4.04 19.26 3.96 19.26 3.96 19.27 3.96 19.27 3.97 19.27 4.01 19.27 4.06 19.3 4.09 19.31 4.09 19.31 4.1 19.31 4.11 19.39 4.06 19.51 4.06 19.56 4.14 19.66 4.3 19.47 4.56 19.3 4.56 19.29 4.56 19.29 4.55 19.3 4.54 19.36 4.49 19.42 4.47 19.47 4.41Z" fill="#C39368"/><path d="M18.87 5.68C19.28 5.68 19.62 5.37 19.71 4.97 19.83 4.9 19.93 4.81 19.98 4.67 19.99 4.66 19.97 4.65 19.96 4.66 19.63 5.26 18.74 4.97 18.3 4.69 18.28 4.68 18.26 4.69 18.25 4.7 18.23 4.7 18.21 4.71 18.21 4.73 18.17 5.13 18.39 5.67 18.87 5.68ZM18.28 4.77C18.59 4.96 18.94 5.12 19.31 5.08 19.43 5.07 19.55 5.04 19.66 4.99 19.5 5.3 19.28 5.65 18.87 5.61 18.45 5.56 18.27 5.16 18.28 4.77Z" fill="#C39368"/><path d="M18.28 3.49C18.47 3.5 18.5 3.67 18.5 3.77 18.44 3.69 18.33 3.64 18.23 3.68 18.17 3.7 18.13 3.75 18.11 3.8 18.1 3.8 18.1 3.73 18.09 3.73 18.07 3.75 18.04 3.76 18.02 3.77 18 3.78 17.98 3.81 17.99 3.79 18.03 3.64 18.13 3.49 18.28 3.49Z" fill="#5A3900"/><path d="M19.68 3.47C19.69 3.47 19.69 3.47 19.7 3.47 19.73 3.47 19.76 3.47 19.78 3.48 19.86 3.52 19.91 3.57 19.94 3.64 19.93 3.64 19.92 3.64 19.91 3.64 19.9 3.63 19.88 3.63 19.87 3.62 19.87 3.63 19.88 3.64 19.88 3.66 19.89 3.68 19.91 3.69 19.91 3.71 19.91 3.72 19.91 3.74 19.9 3.75 19.83 3.66 19.73 3.6 19.62 3.66 19.58 3.68 19.56 3.71 19.53 3.75 19.56 3.64 19.57 3.51 19.68 3.47Z" fill="#5A3900"/><path d="M18.36 2.78C18.61 2.79 18.68 3.09 18.66 3.28 18.66 3.3 18.64 3.3 18.63 3.28 18.59 3.12 18.53 2.94 18.35 2.9 18.15 2.86 18.05 3.15 17.96 3.27 17.95 3.29 17.92 3.28 17.91 3.26 17.9 3.02 18.1 2.77 18.36 2.78Z" fill="#8D2300"/><path d="M19.8 2.89C19.92 2.89 20.05 3.09 20.02 3.2 20.02 3.22 20 3.22 19.98 3.21 19.91 3.16 19.89 3.06 19.82 3.01 19.71 2.93 19.6 3.21 19.57 3.27 19.56 3.28 19.54 3.28 19.54 3.27 19.56 3.13 19.61 2.89 19.8 2.89Z" fill="#8D2300"/><path d="M17.71 4.19C17.71 4.3 17.89 4.38 18.13 4.39 18.36 4.39 18.55 4.31 18.55 4.2 18.55 4.09 18.37 4 18.13 4 17.9 3.99 17.71 4.08 17.71 4.19Z" fill="#F9CBC0"/><path d="M19.67 4.11C19.69 4.19 19.83 4.22 19.97 4.18 20.11 4.14 20.21 4.04 20.19 3.96 20.17 3.88 20.03 3.85 19.89 3.89 19.75 3.93 19.65 4.03 19.67 4.11Z" fill="#F9CBC0"/><g><path d="M19.58 10.1C19.41 9.95 19.2 9.81 18.99 9.7L18.99 9.68C18.99 9.68 18.94 9.12 18.85 8.5 18.86 8.43 18.86 8.36 18.86 8.29 18.87 8.07 18.89 7.85 18.9 7.63 18.91 7.63 18.93 7.62 18.94 7.61 19.01 7.58 19.08 7.54 19.15 7.51 19.23 7.91 19.44 9.14 19.4 9.8 19.42 9.81 19.57 9.8 19.58 10.1Z" fill="#EFCAA6"/><path d="M18.97 9.7 18.97 9.69C18.97 9.64 18.92 9.15 18.84 8.59 18.85 8.53 18.85 8.47 18.85 8.42 18.94 9.07 19 9.68 19 9.69L19 9.7 18.99 9.72C19 9.71 18.99 9.7 18.97 9.7Z" fill="#C9976D"/><path d="M19.56 10.08C19.55 9.97 19.53 9.9 19.5 9.87 19.47 9.83 19.43 9.83 19.42 9.83L19.4 9.83 19.4 9.81C19.44 9.16 19.23 7.94 19.15 7.53 19.16 7.52 19.17 7.52 19.19 7.51 19.26 7.9 19.48 9.13 19.44 9.8 19.46 9.8 19.49 9.82 19.53 9.85 19.58 9.91 19.6 10 19.6 10.13 19.58 10.11 19.57 10.09 19.56 10.08Z" fill="#C9976D"/></g><g><path d="M15.7 10.45C15.7 10.45 15.65 9 16.17 7.72 16.23 7.76 16.29 7.8 16.35 7.84 16.44 7.89 16.53 7.96 16.63 8 16.46 8.35 16.16 9.15 16.16 10.46 16.16 10.46 16.52 10.54 16.72 10.77 16.91 11 16.98 11.19 16.91 11.24 16.83 11.29 16.65 10.88 16.4 10.87 16.4 10.87 16.88 11.16 16.82 11.5 16.8 11.61 16.5 11.1 16.26 11.06 16.26 11.06 16.65 11.45 16.57 11.68 16.49 11.9 16.35 11.38 16.12 11.22 16.12 11.22 16.41 11.65 16.3 11.77 16.26 11.81 16.17 11.64 16.1 11.49 16.03 11.33 15.91 11.23 15.83 11.24 15.73 11.23 15.43 10.93 15.7 10.45Z" fill="#EFCAA6"/><path d="M15.67 10.45C15.67 10.35 15.65 8.95 16.14 7.71 16.15 7.72 16.16 7.73 16.17 7.73 15.67 9 15.7 10.43 15.71 10.45L15.71 10.45 15.71 10.45C15.54 10.76 15.61 10.97 15.67 11.07 15.72 11.16 15.79 11.2 15.81 11.2L15.81 11.2C15.91 11.19 16.03 11.3 16.1 11.46 16.19 11.68 16.25 11.74 16.27 11.74 16.36 11.65 16.17 11.33 16.09 11.22L16.03 11.13 16.12 11.19C16.22 11.26 16.31 11.41 16.38 11.52 16.43 11.6 16.49 11.7 16.51 11.7 16.51 11.7 16.53 11.69 16.54 11.66 16.61 11.45 16.23 11.07 16.23 11.06L16.19 11.02 16.25 11.03C16.39 11.05 16.55 11.23 16.66 11.36 16.7 11.41 16.76 11.47 16.78 11.48 16.83 11.16 16.37 10.88 16.37 10.88L16.3 10.84 16.38 10.84C16.53 10.85 16.66 11 16.75 11.1 16.8 11.16 16.85 11.21 16.87 11.21L16.87 11.21C16.88 11.2 16.89 11.19 16.89 11.17 16.9 11.11 16.85 10.97 16.68 10.77 16.49 10.54 16.14 10.46 16.13 10.46L16.12 10.46 16.12 10.44C16.11 9.13 16.41 8.33 16.59 7.97 16.61 8 16.62 8 16.64 8.01 16.47 8.36 16.17 9.16 16.18 10.45 16.25 10.47 16.55 10.55 16.73 10.77 16.88 10.96 16.97 11.11 16.95 11.2 16.94 11.23 16.93 11.25 16.91 11.26 16.9 11.26 16.89 11.27 16.88 11.27L16.88 11.27C16.84 11.27 16.79 11.22 16.73 11.14 16.67 11.07 16.59 10.98 16.5 10.93 16.64 11.04 16.87 11.25 16.82 11.5 16.82 11.53 16.79 11.53 16.79 11.53 16.76 11.53 16.72 11.49 16.63 11.39 16.54 11.29 16.42 11.16 16.31 11.1 16.42 11.22 16.64 11.49 16.57 11.68 16.56 11.7 16.55 11.75 16.51 11.75 16.46 11.75 16.41 11.67 16.34 11.55 16.3 11.49 16.26 11.41 16.21 11.35 16.29 11.49 16.38 11.69 16.29 11.77 16.28 11.78 16.27 11.78 16.26 11.78 16.24 11.78 16.19 11.78 16.06 11.48 16 11.34 15.89 11.23 15.81 11.24L15.8 11.24C15.76 11.24 15.68 11.19 15.62 11.09 15.59 11.01 15.49 10.78 15.67 10.45Z" fill="#C9976D"/></g></g></g></svg>