<svg width="119.39" height="140.34" viewBox="0 0 119.39 140.34" xmlns="http://www.w3.org/2000/svg" xmlns:xlink="http://www.w3.org/1999/xlink" xml:space="preserve" overflow="hidden"><defs></defs><g><g><g><path d="M69.44 60.87 69.44 26.82 51.37 16.38 51.37 50.44Z" fill="#EBEEFC"/><path d="M72.68 28.48 72.68 62.54 119.39 89.51 119.39 55.46Z" fill="#EBEEFC"/><g><path d="M97.74 59.88C97.74 61.84 96.36 62.64 94.66 61.66 92.96 60.68 91.58 58.29 91.58 56.33 91.58 54.37 92.96 53.57 94.66 54.55 96.36 55.53 97.74 57.92 97.74 59.88Z" fill="#B4BCE2"/><g><path d="M97.74 50.59C97.74 53.61 96.36 55.26 94.66 54.28 92.96 53.3 91.58 50.06 91.58 47.04 91.58 44.02 92.96 42.37 94.66 43.35 96.36 44.32 97.74 47.57 97.74 50.59Z" fill="#B4BCE2"/><path d="M97.74 69.17C97.74 72.19 96.36 73.84 94.66 72.86 92.96 71.88 91.58 68.64 91.58 65.62 91.58 62.6 92.96 60.95 94.66 61.93 96.36 62.91 97.74 66.15 97.74 69.17Z" fill="#B4BCE2"/></g><g><path d="M86.16 54.76C88.43 54.56 90.95 56.17 91.8 58.36 92.65 60.55 91.5 62.49 89.24 62.69 86.97 62.89 84.45 61.28 83.6 59.09 82.74 56.9 83.89 54.96 86.16 54.76Z" fill="#B4BCE2"/><path d="M100.09 53.52C102.36 53.32 104.88 54.93 105.73 57.12 106.58 59.31 105.43 61.25 103.17 61.45 100.9 61.65 98.38 60.04 97.53 57.85 96.68 55.66 97.83 53.72 100.09 53.52Z" fill="#B4BCE2"/></g><g><path d="M103.17 64.58C100.91 61.76 98.38 60.46 97.53 61.67 96.68 62.88 97.83 66.14 100.09 68.96 102.36 71.78 104.88 73.08 105.73 71.87 106.58 70.67 105.44 67.4 103.17 64.58Z" fill="#B4BCE2"/><path d="M89.23 47.25C86.96 44.43 84.44 43.13 83.59 44.34 82.74 45.55 83.89 48.81 86.15 51.63 88.42 54.45 90.94 55.75 91.79 54.54 92.64 53.33 91.5 50.06 89.23 47.25Z" fill="#B4BCE2"/></g></g><g><path d="M64.43 32.31C62.85 31.4 61.57 29.19 61.57 27.37 61.57 25.55 62.85 24.82 64.43 25.73 66.01 26.64 67.29 28.85 67.29 30.67 67.29 32.49 66.01 33.22 64.43 32.31Z" fill="#8EB500"/><path d="M64.43 40.26C62.85 39.35 61.57 37.14 61.57 35.32 61.57 33.5 62.85 32.77 64.43 33.68 66.01 34.59 67.29 36.8 67.29 38.62 67.29 40.44 66.01 41.17 64.43 40.26Z" fill="#FF8C00"/><path d="M64.43 48.21C62.85 47.3 61.57 45.09 61.57 43.27 61.57 41.45 62.85 40.72 64.43 41.63 66.01 42.54 67.29 44.75 67.29 46.57 67.29 48.39 66.01 49.13 64.43 48.21Z" fill="#FFE229"/><path d="M64.43 56.17C62.85 55.26 61.57 53.05 61.57 51.23 61.57 49.41 62.85 48.68 64.43 49.59 66.01 50.5 67.29 52.71 67.29 54.53 67.29 56.35 66.01 57.08 64.43 56.17Z" fill="#51ADE2"/></g><g><path d="M56.17 27.54C54.59 26.63 53.31 24.42 53.31 22.6 53.31 20.78 54.59 20.05 56.17 20.96 57.75 21.87 59.03 24.08 59.03 25.9 59.03 27.72 57.75 28.45 56.17 27.54Z" fill="#E5322B"/><path d="M56.17 35.49C54.59 34.58 53.31 32.37 53.31 30.55 53.31 28.73 54.59 28 56.17 28.91 57.75 29.82 59.03 32.03 59.03 33.85 59.03 35.67 57.75 36.4 56.17 35.49Z" fill="#DBF205"/><path d="M56.17 43.44C54.59 42.53 53.31 40.32 53.31 38.5 53.31 36.68 54.59 35.95 56.17 36.86 57.75 37.77 59.03 39.98 59.03 41.8 59.03 43.62 57.75 44.36 56.17 43.44Z" fill="#A697E0"/><path d="M56.17 51.4C54.59 50.49 53.31 48.28 53.31 46.46 53.31 44.64 54.59 43.91 56.17 44.82 57.75 45.73 59.03 47.94 59.03 49.76 59.03 51.58 57.75 52.31 56.17 51.4Z" fill="#FF5283"/></g></g><path d="M119.39 39.28 51.36 0 51.36 13.3 119.39 52.57Z" fill="#FFB900"/></g><g><g><path d="M33.48 71.18C33.46 71.17 33.43 71.17 33.41 71.17 33.4 71.17 33.38 71.17 33.37 71.17 33.34 71.17 33.32 71.17 33.3 71.18 33.29 71.18 33.28 71.18 33.27 71.19 33.24 71.2 33.2 71.21 33.17 71.23 33.21 71.21 33.25 71.19 33.29 71.16 33.34 71.14 33.38 71.11 33.43 71.09 33.48 71.06 33.53 71.04 33.57 71.02L33.94 70.86C34.06 70.81 34.23 70.75 34.35 70.7L34.75 70.57C34.88 70.53 35.05 70.49 35.17 70.46L35.31 70.43C35.38 70.41 35.46 70.4 35.54 70.38L35.6 70.37C35.6 70.37 35.61 70.37 35.62 70.37 36.67 70.17 37.83 70.14 39.01 70.36L39.11 70.38C39.24 70.4 39.41 70.44 39.54 70.47L39.95 70.58C40.08 70.62 40.25 70.67 40.37 70.72L40.76 70.87C41.05 70.99 41.07 71 41.53 71.25L41.53 71.25 41.53 71.25C41.53 71.25 41.53 71.25 41.53 71.25L41.53 71.25 45.17 73.36 48.81 75.47 52.45 77.58 56.09 79.69 59.73 81.8 63.37 83.91 67.01 86.02 70.65 88.13 74.29 90.24 77.93 92.35 81.57 94.46 85.21 96.57 88.85 98.68 92.49 100.79 96.13 102.9 99.77 105.01 103.41 107.12 107.05 109.23 110.69 111.34 114.33 113.45C114.3 113.43 114.28 113.42 114.25 113.41L41.45 71.2C41.32 71.15 41.18 71.16 41.03 71.25 39.01 70.07 35.67 70.07 33.64 71.25 33.6 71.23 33.57 71.21 33.53 71.2 33.51 71.19 33.49 71.19 33.48 71.18Z" fill="#F4F5FA"/><g><path d="M41.51 71.22C41.37 71.14 41.2 71.14 41.03 71.24 39.01 70.06 35.67 70.06 33.64 71.24 33.46 71.14 33.3 71.14 33.16 71.22 34.03 70.73 34.82 70.53 35.17 70.45 35.47 70.38 36.29 70.21 37.34 70.21 38.4 70.21 39.22 70.38 39.52 70.46 39.65 70.49 39.83 70.53 39.96 70.58 40.2 70.66 40.51 70.77 40.74 70.86 40.87 70.91 41.04 70.99 41.16 71.05 41.27 71.09 41.4 71.17 41.51 71.22Z" fill="#F4F5FA"/><g><g><path d="M2.8 89.05 33.63 71.25C33.6 71.23 33.57 71.22 33.54 71.21L33.54 71.21 32 72.1 30.46 72.99 28.92 73.88 27.38 74.77 25.84 75.66 24.3 76.55 22.76 77.44 21.22 78.33 19.68 79.22 18.14 80.11 16.6 81 15.06 81.89 13.52 82.78 11.98 83.67 10.44 84.56 8.9 85.45 7.36 86.34 5.8 87.22 4.26 88.11 2.72 89C2.75 89.02 2.77 89.03 2.8 89.05L2.8 89.05Z" fill="#F4F5FA"/><path d="M2.72 89 2.72 89 2.72 89 4.26 88.11 5.8 87.22 7.34 86.33 8.88 85.44 10.42 84.55 11.96 83.66 13.5 82.77 15.04 81.88 16.58 80.99 18.12 80.1 19.66 79.21 21.2 78.32 22.74 77.43 24.28 76.54 25.82 75.65 27.36 74.76 28.9 73.87 30.44 72.98 31.98 72.09 33.52 71.2C33.38 71.14 33.24 71.15 33.13 71.22L30.07 73 26.99 74.78 23.91 76.56 20.83 78.34 17.75 80.12 14.67 81.9 11.59 83.68 8.51 85.46 5.43 87.24 5.43 87.24 3.89 88.13 2.35 89.02C2.44 88.96 2.57 88.95 2.72 89L2.72 89Z" fill="#F4F5FA"/></g></g><g><defs><path d="M0 93.26C0.01 93.57 0.01 93.62 0.04 93.81 0.08 94.1 0.14 94.34 0.15 94.35 0.23 94.63 0.35 95.01 0.61 95.44 0.88 95.89 1.18 96.19 1.26 96.26 1.4 96.4 1.6 96.58 1.76 96.7 1.92 96.82 2.14 96.96 2.3 97.06 2.05 96.91 1.88 96.5 1.88 95.91 0.63 95.18 0 94.22 0 93.26Z" id="SVGID_1_"/></defs><clipPath id="SVGID_2_"><use width="100%" height="100%" xlink:href="#SVGID_1_" overflow="visible"></use></clipPath><use width="100%" height="100%" xlink:href="#SVGID_1_" fill="#98A4E0" overflow="visible"></use><g clip-path="url(#SVGID_2_)"><path d="M0 93.26C0.07 95.4 1.27 96.41 2.3 97.05 2.05 96.9 1.88 96.49 1.88 95.9 0.63 95.18 0 94.22 0 93.26L0 93.26Z" fill="#98A4E0"/></g></g><g><g><path d="M0 92.85 0 93.26C0 94.22 0.63 95.18 1.88 95.9L1.88 95.49C0.63 94.77 0 93.81 0 92.85L0 92.85Z" fill="#BFC7ED"/></g></g><g><defs><path d="M114.22 113.48C89.98 99.39 65.75 85.31 41.51 71.22 41.37 71.14 41.2 71.14 41.03 71.24L113.74 113.5C113.92 113.4 114.08 113.4 114.22 113.48Z" id="SVGID_3_"/></defs><clipPath id="SVGID_4_"><use width="100%" height="100%" xlink:href="#SVGID_3_" overflow="visible"></use></clipPath><use width="100%" height="100%" xlink:href="#SVGID_3_" fill="#CBD4ED" overflow="visible"></use><g clip-path="url(#SVGID_4_)"><path d="M41.02 71.25 113.73 113.51C113.88 113.43 114.01 113.41 114.13 113.45L41.43 71.19C41.31 71.15 41.17 71.16 41.02 71.25L41.02 71.25Z" fill="#F4F5FA"/></g></g><g><g><path d="M114.2 121.52C114.77 121.17 116.52 120.09 116.53 117.69 116.53 118.66 115.9 119.63 114.62 120.37 114.62 120.95 114.45 121.37 114.2 121.52L114.2 121.52Z" fill="#98A4E0"/></g></g><g><g><path d="M114.62 119.95 114.62 120.36C115.9 119.62 116.53 118.65 116.53 117.68L116.53 117.27C116.53 118.24 115.89 119.22 114.62 119.95L114.62 119.95Z" fill="#BFC7ED"/></g></g><g><g><path d="M116.53 117.27C116.48 115.6 115.75 114.4 114.23 113.48 114.09 113.4 113.92 113.4 113.75 113.5 115.77 114.67 115.76 116.61 113.73 117.78 114.23 118.07 114.63 119.04 114.63 119.95 115.89 119.22 116.53 118.24 116.53 117.27L116.53 117.27Z" fill="#F4F5FA"/><path d="M114.14 113.44C117 115.09 117.22 118.15 114.58 119.51 114.6 119.65 114.61 119.8 114.61 119.95 115.89 119.21 116.52 118.24 116.52 117.27 116.52 117.2 116.51 117.1 116.51 117.02 116.48 116.7 116.48 116.68 116.45 116.49L116.4 116.25C116.38 116.16 116.34 116.04 116.32 115.96L116.23 115.72C116.19 115.63 116.14 115.51 116.1 115.42L115.97 115.18C115.91 115.08 115.83 114.95 115.76 114.85L115.58 114.62C115.48 114.5 115.34 114.35 115.23 114.24L114.98 114.01C114.65 113.75 114.58 113.7 114.22 113.48 114.2 113.46 114.17 113.45 114.14 113.44L114.14 113.44Z" fill="#BFC7ED"/></g></g><g><defs><path d="M2.3 97.06 9.57 101.29 16.84 105.52 24.11 109.75 31.38 113.98 38.65 118.21 45.92 122.44 53.19 126.67 60.46 130.9 67.73 135.13 75 139.36C74.75 139.21 74.58 138.8 74.58 138.21L1.88 95.91C1.88 96.49 2.05 96.91 2.3 97.06Z" id="SVGID_5_"/></defs><clipPath id="SVGID_6_"><use width="100%" height="100%" xlink:href="#SVGID_5_" overflow="visible"></use></clipPath><use width="100%" height="100%" xlink:href="#SVGID_5_" fill="#98A4E0" overflow="visible"></use><g clip-path="url(#SVGID_6_)"><path d="M74.6 138.16 1.88 95.91C1.88 96.49 2.05 96.91 2.3 97.06L9.57 101.29 16.84 105.52 24.11 109.75 31.38 113.98 38.65 118.21 45.92 122.44 53.19 126.67 60.46 130.9 67.73 135.13 75 139.36C74.77 139.17 74.6 138.75 74.6 138.16L74.6 138.16Z" fill="#98A4E0"/></g></g><g><defs><path d="M83.37 139.32 86.45 137.54 89.53 135.76 92.61 133.98 95.69 132.2 98.77 130.42 101.85 128.64 104.93 126.86 108.01 125.08 111.09 123.3 114.17 121.52C114.42 121.37 114.59 120.96 114.59 120.37L83.76 138.17C83.79 138.75 83.62 139.17 83.37 139.32Z" id="SVGID_7_"/></defs><clipPath id="SVGID_8_"><use width="100%" height="100%" xlink:href="#SVGID_7_" overflow="visible"></use></clipPath><use width="100%" height="100%" xlink:href="#SVGID_7_" fill="#98A4E0" overflow="visible"></use><g clip-path="url(#SVGID_8_)"><path d="M114.62 120.36 83.79 138.16C83.79 138.75 83.63 139.17 83.37 139.31L86.45 137.53 89.53 135.75 92.61 133.97 95.69 132.19 98.77 130.41 101.85 128.63 104.93 126.85 108.01 125.07 111.09 123.29 114.17 121.51C114.45 121.37 114.62 120.95 114.62 120.36L114.62 120.36Z" fill="#98A4E0"/></g></g><g><path d="M1.88 95.5 1.88 95.91 74.6 138.16 74.59 137.75Z" fill="#BFC7ED"/></g><g><path d="M83.78 137.75 83.79 138.16 114.62 120.36 114.62 119.95Z" fill="#BFC7ED"/></g><g><path d="M75.52 135.58 2.81 93.33C2.74 93.37 2.67 93.43 2.6 93.49L75.31 135.75C75.38 135.68 75.45 135.63 75.52 135.58L75.52 135.58Z" fill="#F4F5FA"/></g><g><g><path d="M113.71 117.78 82.88 135.58C82.95 135.62 83.02 135.67 83.08 135.74L113.91 117.94C113.85 117.88 113.78 117.82 113.71 117.78L113.71 117.78Z" fill="#F4F5FA"/><path d="M113.92 117.94 83.09 135.74C83.25 135.9 83.4 136.14 83.52 136.41L114.35 118.61C114.23 118.34 114.08 118.11 113.92 117.94L113.92 117.94Z" fill="#F4F5FA"/><path d="M114.34 118.62 83.51 136.42C83.63 136.69 83.71 137 83.75 137.32L114.58 119.52C114.54 119.2 114.46 118.89 114.34 118.62L114.34 118.62Z" fill="#F4F5FA"/><path d="M114.59 119.52 83.76 137.32C83.78 137.46 83.79 137.61 83.79 137.76L114.62 119.96C114.61 119.81 114.6 119.66 114.59 119.52L114.59 119.52Z" fill="#BFC7ED"/></g></g><g><defs><path d="M75.02 139.31C75.12 139.37 75.26 139.45 75.37 139.5 75.49 139.56 75.66 139.64 75.79 139.69 76.02 139.78 76.34 139.89 76.57 139.97 76.7 140.01 76.88 140.05 77.01 140.09 77.31 140.16 78.13 140.34 79.19 140.34 80.25 140.34 81.06 140.17 81.36 140.1 81.49 140.07 81.66 140.03 81.78 139.99 82.02 139.91 82.33 139.81 82.57 139.72 82.58 139.71 82.92 139.58 83.36 139.33 83.61 139.19 83.78 138.77 83.78 138.18 81.24 139.64 77.11 139.64 74.59 138.18 74.6 138.75 74.77 139.17 75.02 139.31Z" id="SVGID_9_"/></defs><clipPath id="SVGID_10_"><use width="100%" height="100%" xlink:href="#SVGID_9_" overflow="visible"></use></clipPath><use width="100%" height="100%" xlink:href="#SVGID_9_" fill="#98A4E0" overflow="visible"></use><g clip-path="url(#SVGID_10_)"><path d="M75.02 139.31C77.97 140.9 81.42 140.43 83.37 139.31 83.62 139.17 83.79 138.75 83.79 138.16 81.25 139.62 77.12 139.62 74.6 138.16 74.6 138.75 74.77 139.17 75.02 139.31L75.02 139.31Z" fill="#98A4E0"/></g></g><g><g><path d="M74.59 137.75 74.59 138.16C77.11 139.62 81.25 139.62 83.78 138.16L83.78 137.75C81.25 139.22 77.11 139.22 74.59 137.75L74.59 137.75Z" fill="#BFC7ED"/></g></g><g><g><path d="M74.62 137.32C74.72 136.55 75.07 135.83 75.49 135.59 77.51 136.77 80.85 136.77 82.88 135.59 83.3 135.83 83.65 136.56 83.75 137.32 81.22 138.76 77.14 138.76 74.62 137.32Z" fill="#F4F5FA"/><path d="M83.75 137.32C83.77 137.46 83.78 137.61 83.78 137.76 81.24 139.22 77.11 139.22 74.59 137.76 74.59 137.62 74.6 137.47 74.62 137.32 77.14 138.76 81.22 138.76 83.75 137.32Z" fill="#BFC7ED"/><path d="M82.88 135.58C80.85 136.76 77.51 136.76 75.49 135.58 75.07 135.82 74.72 136.55 74.62 137.31 74.61 137.3 74.6 137.3 74.59 137.29 74.59 136.38 74.99 135.41 75.49 135.12 77.51 136.3 80.85 136.3 82.88 135.12 83.38 135.41 83.78 136.38 83.78 137.29 83.77 137.3 83.76 137.3 83.75 137.31 83.65 136.55 83.3 135.83 82.88 135.58Z" fill="#F4F5FA"/></g></g><g><linearGradient x1="2.4967" y1="82.4299" x2="125.425" y2="128.994" gradientUnits="userSpaceOnUse" id="SVGID_11_"><stop offset="0" stop-color="#4EB1ED"/><stop offset="0.1863" stop-color="#49A8EC"/><stop offset="0.4873" stop-color="#3A90EB"/><stop offset="0.8633" stop-color="#236AE8"/><stop offset="1" stop-color="#195AE7"/></linearGradient><path d="M2.78 93.33C0.76 92.16 0.77 90.22 2.8 89.05 13.08 83.12 23.35 77.18 33.63 71.25 35.66 70.07 39 70.07 41.02 71.25 41.34 71.44 41.66 71.62 41.99 71.81L3.74 93.89C3.42 93.7 3.1 93.51 2.78 93.33Z" fill="#F4F5FA"/><path d="M41.99 71.81C65.91 85.71 89.82 99.61 113.74 113.51 115.76 114.68 115.75 116.62 113.72 117.79 103.44 123.72 93.17 129.66 82.89 135.59 80.86 136.77 77.52 136.77 75.5 135.59 51.58 121.69 27.67 107.79 3.75 93.89L41.99 71.81Z" fill="url(#SVGID_11_)"/></g></g><g><path d="M2.6 93.49 75.31 135.75C74.99 136.08 74.67 136.67 74.59 137.3L1.89 95.32C1.93 94.6 2.23 93.86 2.6 93.49Z" fill="#F4F5FA"/><path d="M74.63 137.32C74.61 137.46 74.6 137.61 74.6 137.75L1.88 95.5C1.88 95.44 1.88 95.38 1.89 95.33L74.63 137.32Z" fill="#BFC7ED"/></g><g><path d="M2.33 89.02C1.75 89.38 0.01 90.46 0 92.85 0 93.81 0.63 94.77 1.88 95.49 1.9 94.63 2.28 93.61 2.78 93.32 0.76 92.15 0.77 90.21 2.8 89.04 2.63 88.94 2.46 88.94 2.33 89.02L2.33 89.02Z" fill="#F4F5FA"/></g><path d="M0.02 92.41C0.01 92.5 0.01 92.59 0.01 92.68 0.01 93.64 0.64 94.6 1.89 95.32 1.89 95.38 1.88 95.44 1.88 95.49 0.63 94.77 0 93.81 0 92.85 0 92.7 0.01 92.55 0.02 92.41Z" fill="#BFC7ED"/><g><path d="M34.44 73.62C35.14 74.02 35.14 74.67 34.45 75.07 33.76 75.47 32.63 75.47 31.93 75.07 31.23 74.67 31.23 74.02 31.92 73.62 32.62 73.22 33.75 73.22 34.44 73.62Z" fill="#0B1B38"/><path d="M36.7 72.25C37.14 72.51 37.15 72.92 36.7 73.18 36.26 73.44 35.54 73.43 35.1 73.18 34.66 72.92 34.65 72.51 35.1 72.25 35.54 71.99 36.25 71.99 36.7 72.25Z" fill="#0B1B38"/><path d="M22.09 81.91 24.61 80.45C25.1 80.16 25.1 79.7 24.61 79.41L24.61 79.41C24.11 79.12 23.3 79.12 22.81 79.41L20.29 80.87C19.8 81.16 19.8 81.62 20.29 81.91L20.29 81.91C20.79 82.2 21.6 82.2 22.09 81.91Z" fill="#0B1B38"/></g><path d="M85.89 137.05C85.89 137.38 85.66 137.78 85.37 137.95 85.16 138.07 84.98 138.03 84.9 137.88 84.87 137.82 84.85 137.74 84.85 137.65 84.85 137.32 85.08 136.91 85.37 136.75 85.44 136.71 85.51 136.69 85.57 136.68 85.76 136.67 85.89 136.8 85.89 137.05Z" fill="#E3E5FA"/><path d="M85.63 136.91C85.63 137.24 85.4 137.64 85.11 137.81 85.04 137.85 84.97 137.87 84.9 137.88 84.87 137.82 84.85 137.74 84.85 137.65 84.85 137.32 85.08 136.91 85.37 136.75 85.44 136.71 85.51 136.69 85.57 136.68 85.61 136.74 85.63 136.82 85.63 136.91Z" fill="#0B1B38"/><path d="M101.11 128.18C101.11 128.51 100.88 128.91 100.59 129.08L99.15 129.91C99.07 129.96 98.99 129.98 98.92 129.98 98.83 129.98 98.75 129.94 98.7 129.86 98.66 129.8 98.63 129.71 98.63 129.61 98.63 129.28 98.86 128.88 99.15 128.71L100.59 127.88C100.64 127.85 100.7 127.83 100.74 127.82 100.77 127.81 100.79 127.81 100.82 127.81 100.99 127.81 101.11 127.95 101.11 128.18Z" fill="#E3E5FA"/><path d="M100.81 128.08C100.81 128.41 100.58 128.81 100.29 128.98L98.85 129.81C98.8 129.84 98.75 129.86 98.7 129.87 98.66 129.81 98.63 129.72 98.63 129.62 98.63 129.29 98.86 128.89 99.15 128.72L100.59 127.89C100.64 127.86 100.7 127.84 100.74 127.83 100.78 127.89 100.81 127.97 100.81 128.08Z" fill="#0B1B38"/></g></g><g><g><g><g><g><defs><path d="M80.78 82.85 81.57 99.27C81.57 99.42 81.47 99.56 81.28 99.67L80.58 83.12C80.72 83.06 80.78 82.95 80.78 82.85Z" id="SVGID_12_"/></defs><clipPath id="SVGID_13_"><use width="100%" height="100%" xlink:href="#SVGID_12_" overflow="visible"></use></clipPath><use width="100%" height="100%" xlink:href="#SVGID_12_" fill="#DADFF6" overflow="visible"></use><g clip-path="url(#SVGID_13_)"><path d="M80.78 82.85 81.57 99.27C81.57 99.42 81.47 99.56 81.28 99.67L80.58 83.12C80.72 83.06 80.78 82.95 80.78 82.85L80.78 82.85Z" fill="#DADFF6"/></g></g><g><defs><path d="M75.91 99.27 76.82 82.85C76.82 82.95 76.89 83.06 77.02 83.14L76.2 99.68C76.01 99.57 75.91 99.42 75.91 99.27Z" id="SVGID_14_"/></defs><clipPath id="SVGID_15_"><use width="100%" height="100%" xlink:href="#SVGID_14_" overflow="visible"></use></clipPath><use width="100%" height="100%" xlink:href="#SVGID_14_" fill="#EBEEFC" overflow="visible"></use><g clip-path="url(#SVGID_15_)"><path d="M77.03 83.13 76.2 99.68C76.01 99.57 75.91 99.42 75.91 99.27L76.82 82.85C76.82 82.95 76.89 83.06 77.03 83.13L77.03 83.13Z" fill="#EBEEFC"/></g></g><g><path d="M80.58 83.13 81.28 99.68 79.45 100.75 79.3 83.88Z" fill="#DADFF6"/></g><g><path d="M78.32 83.88 78.05 100.75 76.2 99.68 77.03 83.13Z" fill="#EBEEFC"/></g><g><defs><path d="M79.3 83.88 79.45 100.74C79.07 100.96 78.44 100.96 78.05 100.74L78.32 83.88C78.59 84.04 79.03 84.04 79.3 83.88Z" id="SVGID_16_"/></defs><clipPath id="SVGID_17_"><use width="100%" height="100%" xlink:href="#SVGID_16_" overflow="visible"></use></clipPath><use width="100%" height="100%" xlink:href="#SVGID_16_" fill="#EBEEFC" overflow="visible"></use><g clip-path="url(#SVGID_17_)"><path d="M79.3 83.88 79.45 100.74C79.07 100.96 78.44 100.96 78.05 100.74L78.32 83.88C78.59 84.04 79.03 84.04 79.3 83.88L79.3 83.88Z" fill="#EBEEFC"/></g></g><g><path d="M80.58 82.57C80.85 82.73 80.85 82.98 80.58 83.14L79.3 83.89C79.03 84.05 78.59 84.05 78.32 83.89L77.03 83.14C76.76 82.98 76.76 82.73 77.03 82.57L78.31 81.82C78.58 81.66 79.02 81.66 79.29 81.82L80.58 82.57Z" fill="#EBEEFC"/></g></g></g><g><g><g><defs><path d="M53.77 98.1 54.56 114.52C54.56 114.67 54.46 114.81 54.27 114.92L53.57 98.37C53.7 98.31 53.77 98.21 53.77 98.1Z" id="SVGID_18_"/></defs><clipPath id="SVGID_19_"><use width="100%" height="100%" xlink:href="#SVGID_18_" overflow="visible"></use></clipPath><use width="100%" height="100%" xlink:href="#SVGID_18_" fill="#DADFF6" overflow="visible"></use><g clip-path="url(#SVGID_19_)"><path d="M53.77 98.1 54.56 114.52C54.56 114.67 54.46 114.81 54.27 114.92L53.57 98.37C53.7 98.31 53.77 98.21 53.77 98.1L53.77 98.1Z" fill="#DADFF6"/></g></g><g><defs><path d="M48.9 114.52 49.81 98.1C49.81 98.2 49.88 98.31 50.01 98.39L49.19 114.93C49 114.82 48.9 114.67 48.9 114.52Z" id="SVGID_20_"/></defs><clipPath id="SVGID_21_"><use width="100%" height="100%" xlink:href="#SVGID_20_" overflow="visible"></use></clipPath><use width="100%" height="100%" xlink:href="#SVGID_20_" fill="#EBEEFC" overflow="visible"></use><g clip-path="url(#SVGID_21_)"><path d="M50.01 98.38 49.19 114.92C49 114.81 48.9 114.66 48.9 114.51L49.81 98.09C49.81 98.2 49.88 98.31 50.01 98.38L50.01 98.38Z" fill="#EBEEFC"/></g></g><g><path d="M53.57 98.38 54.27 114.93 52.44 116 52.29 99.13Z" fill="#DADFF6"/></g><g><path d="M51.31 99.13 51.04 116 49.19 114.93 50.01 98.38Z" fill="#EBEEFC"/></g><g><defs><path d="M52.29 99.13 52.44 116C52.06 116.22 51.43 116.22 51.04 116L51.31 99.14C51.58 99.29 52.02 99.29 52.29 99.13Z" id="SVGID_22_"/></defs><clipPath id="SVGID_23_"><use width="100%" height="100%" xlink:href="#SVGID_22_" overflow="visible"></use></clipPath><use width="100%" height="100%" xlink:href="#SVGID_22_" fill="#EBEEFC" overflow="visible"></use><g clip-path="url(#SVGID_23_)"><path d="M52.29 99.13 52.44 116C52.06 116.22 51.43 116.22 51.04 116L51.31 99.14C51.58 99.29 52.02 99.29 52.29 99.13L52.29 99.13Z" fill="#EBEEFC"/></g></g><g><path d="M53.57 97.82C53.84 97.98 53.84 98.23 53.57 98.39L52.29 99.14C52.02 99.3 51.58 99.3 51.31 99.14L50.02 98.39C49.75 98.23 49.75 97.98 50.02 97.82L51.3 97.07C51.57 96.91 52.01 96.91 52.28 97.07L53.57 97.82Z" fill="#EBEEFC"/></g></g></g><g><g><g><defs><path d="M35.92 87.82 36.71 104.24C36.71 104.39 36.61 104.53 36.42 104.64L35.72 88.09C35.85 88.03 35.92 87.92 35.92 87.82Z" id="SVGID_24_"/></defs><clipPath id="SVGID_25_"><use width="100%" height="100%" xlink:href="#SVGID_24_" overflow="visible"></use></clipPath><use width="100%" height="100%" xlink:href="#SVGID_24_" fill="#DADFF6" overflow="visible"></use><g clip-path="url(#SVGID_25_)"><path d="M35.92 87.82 36.71 104.24C36.71 104.39 36.61 104.53 36.42 104.64L35.72 88.09C35.85 88.03 35.92 87.92 35.92 87.82L35.92 87.82Z" fill="#DADFF6"/></g></g><g><defs><path d="M31.04 104.24 31.95 87.82C31.95 87.92 32.02 88.03 32.15 88.11L31.33 104.65C31.14 104.54 31.04 104.39 31.04 104.24Z" id="SVGID_26_"/></defs><clipPath id="SVGID_27_"><use width="100%" height="100%" xlink:href="#SVGID_26_" overflow="visible"></use></clipPath><use width="100%" height="100%" xlink:href="#SVGID_26_" fill="#EBEEFC" overflow="visible"></use><g clip-path="url(#SVGID_27_)"><path d="M32.16 88.1 31.34 104.64C31.15 104.53 31.05 104.38 31.05 104.23L31.96 87.81C31.95 87.92 32.02 88.02 32.16 88.1L32.16 88.1Z" fill="#EBEEFC"/></g></g><g><path d="M35.72 88.1 36.42 104.65 34.58 105.71 34.43 88.85Z" fill="#DADFF6"/></g><g><path d="M33.45 88.85 33.18 105.71 31.34 104.65 32.16 88.1Z" fill="#EBEEFC"/></g><g><defs><path d="M34.43 88.85 34.58 105.71C34.2 105.93 33.57 105.93 33.18 105.71L33.45 88.85C33.72 89 34.16 89 34.43 88.85Z" id="SVGID_28_"/></defs><clipPath id="SVGID_29_"><use width="100%" height="100%" xlink:href="#SVGID_28_" overflow="visible"></use></clipPath><use width="100%" height="100%" xlink:href="#SVGID_28_" fill="#EBEEFC" overflow="visible"></use><g clip-path="url(#SVGID_29_)"><path d="M34.43 88.85 34.58 105.71C34.2 105.93 33.57 105.93 33.18 105.71L33.45 88.85C33.72 89 34.16 89 34.43 88.85L34.43 88.85Z" fill="#EBEEFC"/></g></g><g><path d="M35.71 87.53C35.98 87.69 35.98 87.94 35.71 88.1L34.43 88.85C34.16 89.01 33.72 89.01 33.45 88.85L32.16 88.1C31.89 87.94 31.89 87.69 32.16 87.53L33.44 86.78C33.71 86.62 34.15 86.62 34.42 86.78L35.71 87.53Z" fill="#EBEEFC"/></g></g></g><g><g><g><defs><path d="M81.59 78.78 81.58 82.08C81.58 82.5 81.3 82.93 80.75 83.25L80.76 79.95C81.31 79.63 81.59 79.2 81.59 78.78Z" id="SVGID_30_"/></defs><clipPath id="SVGID_31_"><use width="100%" height="100%" xlink:href="#SVGID_30_" overflow="visible"></use></clipPath><use width="100%" height="100%" xlink:href="#SVGID_30_" fill="#ACBF00" overflow="visible"></use><g clip-path="url(#SVGID_31_)"><path d="M81.59 78.78 81.58 82.08C81.58 82.5 81.3 82.93 80.75 83.25L80.76 79.95C81.31 79.63 81.59 79.2 81.59 78.78L81.59 78.78Z" fill="#ACBF00"/></g></g><g><defs><path d="M31.1 87.35 31.11 84.05C31.11 84.48 31.39 84.91 31.96 85.24L31.95 88.54C31.38 88.21 31.09 87.78 31.1 87.35Z" id="SVGID_32_"/></defs><clipPath id="SVGID_33_"><use width="100%" height="100%" xlink:href="#SVGID_32_" overflow="visible"></use></clipPath><use width="100%" height="100%" xlink:href="#SVGID_32_" fill="#ACBF00" overflow="visible"></use><g clip-path="url(#SVGID_33_)"><path d="M31.95 85.23 31.94 88.53C31.37 88.2 31.09 87.77 31.09 87.34L31.1 84.04C31.1 84.47 31.39 84.9 31.95 85.23L31.95 85.23Z" fill="#ACBF00"/></g></g><g><path d="M80.76 79.95 80.75 83.25 53.86 98.86 53.87 95.56Z" fill="#ACBF00"/></g><g><path d="M49.8 95.56 49.79 98.86 31.94 88.53 31.95 85.23Z" fill="#ACBF00"/></g><g><defs><path d="M53.87 95.56 53.86 98.86C52.74 99.51 50.91 99.51 49.79 98.86L49.8 95.56C50.93 96.21 52.76 96.21 53.87 95.56Z" id="SVGID_34_"/></defs><clipPath id="SVGID_35_"><use width="100%" height="100%" xlink:href="#SVGID_34_" overflow="visible"></use></clipPath><use width="100%" height="100%" xlink:href="#SVGID_34_" fill="#ACBF00" overflow="visible"></use><g clip-path="url(#SVGID_35_)"><path d="M53.87 95.56 53.86 98.86C53.64 98.99 53.4 99.09 53.13 99.17L53.14 95.87C53.41 95.79 53.65 95.69 53.87 95.56L53.87 95.56Z" fill="#ACBF00"/><path d="M53.14 95.87 53.13 99.17C52.41 99.38 51.56 99.41 50.8 99.24L50.81 95.94C51.57 96.1 52.42 96.08 53.14 95.87L53.14 95.87Z" fill="#ACBF00"/><path d="M50.82 95.94 50.81 99.24C50.44 99.16 50.09 99.03 49.79 98.86L49.8 95.56C50.1 95.73 50.45 95.86 50.82 95.94L50.82 95.94Z" fill="#ACBF00"/></g></g><g><path d="M80.74 77.59C81.86 78.24 81.87 79.3 80.75 79.95L53.87 95.56C52.75 96.21 50.92 96.21 49.8 95.56L31.95 85.23C30.83 84.58 30.82 83.52 31.94 82.87L58.82 67.26C59.94 66.61 61.77 66.61 62.89 67.26L80.74 77.59Z" fill="#CDE305"/></g></g></g></g><g><path d="M74.51 79.04 63.27 85.53 47.62 76.49 58.86 70Z" fill="#EBEEFC"/><path d="M71.56 77.88C71.23 77.85 71.05 77.96 70.8 78.08 70.31 78.32 69.83 78.57 69.34 78.82 68.32 79.35 67.33 79.89 66.38 80.46 65.46 81.01 64.57 81.58 63.75 82.19 63.04 82.71 62.26 83.26 61.85 83.88 62.35 83.24 63.2 82.67 63.96 82.13 64.67 81.62 65.43 81.13 66.22 80.65 67.06 80.14 67.94 79.66 68.84 79.18 69.23 78.97 69.63 78.77 70.03 78.56 70.26 78.44 70.49 78.33 70.72 78.21 70.83 78.15 70.95 78.1 71.06 78.04 71.41 77.95 71.46 77.96 71.22 78.08 71.14 78.15 71.04 78.21 70.92 78.28 70.66 78.38 70.41 78.49 70.17 78.62 70.05 78.67 69.93 78.72 69.83 78.77 69.41 78.97 69 79.18 68.59 79.39 67.66 79.87 66.75 80.36 65.89 80.88 64.39 81.8 63.07 82.81 62.11 83.95 62.08 83.99 62.15 84.02 62.21 83.99 62.65 83.78 63.01 83.53 63.35 83.27 63.02 83.63 62.75 84.01 62.58 84.41 62.56 84.46 62.67 84.5 62.73 84.46 63 84.32 63.25 84.15 63.48 83.98 63.46 84.03 63.45 84.07 63.45 84.12 63.44 84.22 63.71 84.22 63.72 84.12 63.73 84.04 63.76 83.96 63.82 83.88 65.27 83.08 66.71 82.27 67.98 81.37 68.37 81.1 68.75 80.82 69.15 80.54 70.19 80 71.23 79.46 72.25 78.9 72.36 78.84 72.22 78.73 72.09 78.78 71.67 78.92 71.28 79.09 70.92 79.27L71.8 78.71C71.87 78.67 71.78 78.6 71.69 78.63 70.82 78.92 70.12 79.39 69.43 79.8 68.6 80.29 67.79 80.79 67 81.3 66.56 81.59 66.13 81.88 65.7 82.17 65.33 82.39 64.98 82.62 64.65 82.87 64.33 83.1 63.94 83.38 63.69 83.67 63.43 83.87 63.16 84.07 62.86 84.25 63.47 83.03 64.95 82.04 66.44 81.14 67.28 80.63 68.17 80.14 69.07 79.66 69.95 79.19 70.88 78.76 71.62 78.21 71.67 78.17 71.63 78.1 71.53 78.12 71.43 78.14 71.33 78.16 71.23 78.19 71.36 78.11 71.49 78.03 71.6 77.94 71.61 77.92 71.61 77.88 71.56 77.88ZM66.48 81.93C66.01 82.23 65.53 82.54 65.05 82.83 65.01 82.86 64.96 82.88 64.91 82.91 65.09 82.78 65.27 82.66 65.46 82.54 65.78 82.33 66.12 82.13 66.48 81.93ZM67.96 81.18C66.77 82.04 65.45 82.82 64.08 83.59 64.14 83.54 64.2 83.49 64.26 83.44 64.4 83.36 64.56 83.28 64.71 83.19 65.03 83.01 65.33 82.82 65.63 82.63 66.32 82.2 67 81.76 67.68 81.33 67.76 81.28 67.84 81.23 67.92 81.18 67.98 81.15 68.04 81.12 68.1 81.09 68.06 81.11 68.01 81.14 67.96 81.18ZM69.23 80.06C69.83 79.7 70.44 79.29 71.14 78.97 70.23 79.55 69.33 80.12 68.42 80.7 67.98 80.93 67.53 81.16 67.09 81.39 67.79 80.94 68.5 80.49 69.23 80.06ZM62.37 83.82C63.38 82.67 64.76 81.66 66.31 80.73 67.12 80.25 67.98 79.79 68.86 79.35 68.92 79.32 68.99 79.29 69.06 79.25 68.24 79.71 67.46 80.18 66.71 80.67 65.95 81.17 65.23 81.68 64.53 82.21 63.83 82.74 63.21 83.36 62.37 83.82ZM68.76 79.66C68.04 80.05 67.32 80.44 66.63 80.85 67.34 80.38 68.08 79.93 68.85 79.49 69.23 79.28 69.62 79.06 70.01 78.86 70.39 78.66 70.77 78.43 71.23 78.29 70.49 78.79 69.59 79.22 68.76 79.66Z" fill="#ACBF00"/><path d="M63.47 76.85C63.2 76.99 63.26 77.43 63.26 77.61 63.25 77.96 63.32 78.31 63.46 78.66 63.66 79.18 64.01 79.69 64.45 80.16 63.2 79.54 62.05 78.84 61.05 78.08 60.99 78.04 60.87 78.09 60.92 78.14 61.82 78.9 62.85 79.59 64.01 80.2 62.57 80.04 61.15 79.85 59.74 79.63 59.63 79.61 59.49 79.7 59.57 79.76 60.13 80.19 60.94 80.84 61.93 80.93 63.08 81.05 64.23 80.75 65.38 80.97 65.44 80.98 65.51 80.97 65.54 80.94 65.65 80.99 65.76 81.03 65.87 81.08 66.04 81.15 66.2 81.01 66.13 80.93 65.79 80.45 65.61 79.92 65.38 79.41 65.17 78.97 64.97 78.52 64.75 78.08 64.67 77.91 64.15 76.5 63.47 76.85ZM62.86 80.75C62.19 80.78 61.67 80.75 61.14 80.49 60.75 80.3 60.41 80.09 60.09 79.86 61.55 80.08 63.02 80.28 64.5 80.45 64.67 80.53 64.84 80.61 65.01 80.69 65.03 80.71 65.05 80.72 65.06 80.74 64.33 80.67 63.61 80.72 62.86 80.75ZM63.89 77.19C63.96 77.27 64.01 77.36 64.07 77.45 64.16 77.6 64.24 77.75 64.32 77.9 64.49 78.22 64.64 78.55 64.79 78.88 65.08 79.49 65.47 80.11 65.68 80.73 65.51 80.66 65.35 80.58 65.19 80.51 64.7 80.04 64.26 79.56 63.98 79.03 63.82 78.73 63.7 78.42 63.64 78.1 63.62 77.96 63.6 77.81 63.6 77.67 63.6 77.56 63.56 77.16 63.68 77.1 63.67 77.04 63.7 77.03 63.76 77.07 63.84 77.09 63.89 77.13 63.89 77.19Z" fill="#ACBF00"/><path d="M60.46 76.95C59.94 76.7 58.97 76.66 58.95 77.17 58.95 77.21 58.96 77.26 58.97 77.3 58.75 77.47 58.77 77.72 59.04 77.93 59.47 78.27 60.25 78.42 60.77 78.05 61.22 77.72 60.99 77.21 60.46 76.95ZM59.75 77.87C59.42 77.84 59.28 77.71 59.29 77.58 59.33 77.59 59.38 77.61 59.43 77.62 59.53 77.64 59.64 77.64 59.74 77.63 59.73 77.71 59.78 77.8 59.87 77.88 59.82 77.87 59.79 77.87 59.75 77.87ZM60.27 77.68C60.18 77.73 60.09 77.77 60 77.82 59.88 77.76 59.84 77.69 59.85 77.6 59.97 77.57 60.06 77.51 60.09 77.43 60.19 77.48 60.3 77.56 60.32 77.62 60.31 77.63 60.3 77.65 60.27 77.68ZM59.42 77.39C59.53 77.32 59.72 77.29 59.94 77.36 59.85 77.41 59.61 77.42 59.42 77.39ZM60.71 77.47C60.91 77.94 60.11 78.31 59.47 77.96 59.66 78 59.86 78 60.05 77.96 60.17 78 60.31 78 60.45 77.92 60.59 77.84 60.62 77.73 60.58 77.63 60.74 77.28 60.07 77.07 59.53 77.12 59.41 77.13 59.31 77.15 59.22 77.18 59.4 77.08 59.58 77 59.76 76.91 59.84 76.92 59.91 76.93 59.98 76.95 60.35 77.06 60.61 77.25 60.71 77.47Z" fill="#FF79A2"/><path d="M60.09 74.37C59.36 74.46 59.27 75.08 59.2 75.41 59.16 75.63 59 76.13 59.22 76.4 58.6 76.38 58.2 76.03 57.53 76.08 57.07 76.11 56.68 76.28 56.51 76.53 56.12 77.11 56.9 77.45 57.74 77.63 57.29 77.68 56.86 77.78 56.56 78 56.22 78.25 56.12 78.66 56.31 78.96 56.81 79.76 58.58 79.23 59.32 78.79 59.7 79.33 60.81 79.67 61.71 79.25 62.62 78.82 62.07 78.15 61.42 77.7 61.93 77.76 62.48 77.75 62.94 77.62 63.6 77.43 63.44 76.97 63.15 76.64 62.6 76.02 61.32 75.98 60.55 76.37 60.88 75.58 61.31 74.21 60.09 74.37ZM60.6 74.92C60.68 75.54 60.32 76.22 60.04 76.81 59.99 76.92 60.27 76.96 60.33 76.85 60.71 76.21 62.22 76.06 62.84 76.67 62.95 76.78 63.02 76.92 63.05 77.05 63.12 77.3 62.89 77.43 62.5 77.51 62.02 77.61 61.41 77.54 60.96 77.43 60.81 77.39 60.63 77.5 60.77 77.57 61.36 77.88 62.28 78.52 61.7 79 61.01 79.56 59.76 79.15 59.54 78.6 59.51 78.52 59.33 78.52 59.26 78.58 58.97 78.8 58.61 78.98 58.18 79.09 57.61 79.24 56.72 79.28 56.56 78.83 56.28 78.05 57.52 77.77 58.62 77.78 58.78 77.78 58.82 77.63 58.66 77.61 58.21 77.56 57.72 77.51 57.33 77.36 56.7 77.12 56.47 76.59 57.23 76.34 58 76.09 58.51 76.58 59.25 76.59 59.32 76.59 59.37 76.57 59.39 76.54 59.44 76.56 59.49 76.58 59.56 76.59 59.63 76.6 59.68 76.54 59.61 76.52 59.12 76.39 59.39 75.6 59.45 75.37 59.49 75.22 59.53 75.07 59.61 74.93 59.66 74.81 59.76 74.7 59.9 74.61 60.41 74.58 60.64 74.68 60.6 74.92Z" fill="#FF79A2"/><path d="M52.74 75.88C52.54 75.88 52.36 75.92 52.21 75.98 52.14 75.99 52.07 76.01 52.01 76.04 51.63 76.2 51.56 76.53 51.75 76.77 51.82 76.85 51.9 76.92 51.99 76.97 52.24 77.22 52.77 77.36 53.24 77.16 53.63 76.99 53.7 76.69 53.57 76.43 53.51 76.17 53.21 75.89 52.74 75.88ZM52.48 76.07C52.54 76.07 52.6 76.07 52.66 76.08 52.52 76.1 52.38 76.15 52.26 76.2 52.3 76.15 52.36 76.11 52.45 76.08 52.46 76.08 52.47 76.08 52.48 76.07ZM52.89 76.57C52.85 76.57 52.8 76.57 52.75 76.57 52.71 76.49 52.72 76.44 52.75 76.41 52.79 76.41 52.84 76.4 52.88 76.4 52.91 76.41 52.94 76.42 52.97 76.43 52.95 76.48 52.92 76.52 52.89 76.57ZM52.95 76.85C52.82 76.87 52.71 76.86 52.62 76.82 52.66 76.81 52.7 76.8 52.74 76.79 52.9 76.83 53.06 76.8 53.18 76.74 53.1 76.82 53.03 76.84 52.95 76.85ZM52.52 76.97C52.44 76.96 52.37 76.94 52.29 76.9 52.21 76.86 52.16 76.81 52.13 76.74 52.22 76.84 52.36 76.92 52.52 76.97Z" fill="#FFF628"/><path d="M55.23 74.79C55 74.82 54.78 74.95 54.61 75.04 54.31 75.18 54.03 75.32 53.75 75.47 53.63 75.54 53.81 75.64 53.93 75.58 54.18 75.45 54.43 75.33 54.69 75.21 54.78 75.17 54.99 75.05 55.11 75.03 55.36 74.97 55.36 75.04 55.37 75.16 55.37 75.2 55.46 75.22 55.5 75.18 55.65 75 55.7 74.73 55.23 74.79Z" fill="#FFF628"/><path d="M56.38 77.1C55.73 76.82 55.04 76.57 54.32 76.35 54.23 76.32 54.12 76.4 54.21 76.43 54.78 76.68 55.36 76.93 55.95 77.18 55.89 77.19 55.91 77.25 55.96 77.25 56.04 77.25 56.12 77.26 56.19 77.28 56.45 77.34 56.53 77.16 56.38 77.1Z" fill="#FFF628"/><path d="M53.62 77.41C53.56 77.4 53.49 77.41 53.47 77.45 53.34 77.79 53.37 78.16 53.45 78.52 53.41 78.53 53.38 78.55 53.39 78.58 53.42 78.69 53.49 78.8 53.56 78.91 53.64 79.03 53.94 78.99 53.89 78.86 53.73 78.42 53.72 77.99 53.68 77.54 53.73 77.53 53.77 77.49 53.72 77.46 53.68 77.43 53.67 77.42 53.62 77.41Z" fill="#FFF628"/><path d="M51.94 77.06C51.69 77.02 51.43 77.02 51.18 77.04 51.05 77.05 50.93 77.06 50.8 77.06 50.67 77.07 50.46 77.1 50.45 76.99 50.45 76.96 50.39 76.95 50.36 76.97 50.27 77.01 50.22 77.07 50.27 77.13 50.33 77.21 50.49 77.21 50.62 77.21 51.05 77.21 51.47 77.12 51.9 77.16 52 77.16 52.05 77.07 51.94 77.06Z" fill="#FFF628"/><path d="M50.95 75.65C50.94 75.89 51.01 76.15 51.44 76.25 51.51 76.27 51.56 76.2 51.49 76.18 51.2 76.1 51.18 75.92 51.18 75.75 51.24 75.77 51.28 75.75 51.27 75.72 51.25 75.67 51.21 75.64 51.15 75.6 51.08 75.56 50.96 75.59 50.95 75.65Z" fill="#FFF628"/><path d="M52.96 74.7C52.8 74.91 52.67 75.12 52.53 75.33 52.43 75.49 52.32 75.65 52.34 75.82 52.35 75.88 52.5 75.88 52.5 75.82 52.5 75.62 52.68 75.44 52.82 75.27 52.91 75.15 53.01 75.04 53.1 74.92 53.17 74.85 53.18 74.83 53.21 74.77 53.27 74.67 53.03 74.61 52.96 74.7Z" fill="#FFF628"/><path d="M60.82 72.67C60.39 72.8 59.95 72.93 59.52 73.05 59.8 72.84 60.08 72.65 60.3 72.47 60.42 72.37 60.27 72.2 60.14 72.26 59.63 72.51 59.16 72.81 58.7 73.13 59.03 72.88 59.37 72.63 59.72 72.4 59.82 72.33 59.76 72.15 59.63 72.2 59.34 72.31 59.06 72.43 58.78 72.57 58.75 72.57 58.73 72.57 58.7 72.58 58.51 72.66 58.33 72.75 58.15 72.84 58.19 72.61 58.72 72.2 58.87 72.04 58.96 71.94 58.84 71.75 58.71 71.83 58.67 71.86 58.63 71.89 58.59 71.91 57.79 72.34 57.04 72.78 56.29 73.24 56.09 73.37 55.75 73.45 55.74 73.72 55.74 73.75 55.79 73.75 55.79 73.72 55.81 73.39 57.11 72.86 57.4 72.71 57.42 72.7 57.45 72.69 57.49 72.67 56.83 73.18 56.22 73.76 55.65 74.38 55.58 74.46 55.67 74.57 55.76 74.52 56.32 74.24 56.85 73.91 57.39 73.59 57.26 73.68 57.13 73.78 57.01 73.87 56.8 74.01 56.59 74.15 56.38 74.31 56.25 74.41 56.37 74.62 56.51 74.53 56.74 74.38 56.97 74.22 57.19 74.06 57.07 74.16 56.95 74.26 56.84 74.36 56.73 74.45 56.87 74.62 56.99 74.55 57.54 74.25 58.04 73.89 58.55 73.54 58.59 73.53 58.63 73.52 58.67 73.51 58.47 73.7 58.27 73.89 58.07 74.08 58.01 74.14 58.03 74.24 58.1 74.29 58.41 74.5 58.77 74.23 59.07 74.09 59.75 73.77 60.36 73.36 60.94 72.89 61.05 72.8 60.94 72.63 60.82 72.67ZM57.31 73.26C57.43 73.16 57.54 73.06 57.66 72.96 57.63 73.01 57.6 73.06 57.58 73.12 57.49 73.16 57.4 73.21 57.31 73.26ZM56.11 74.15C56.17 74.08 56.23 74.01 56.3 73.94 56.31 73.96 56.33 73.98 56.35 73.99 56.17 74.13 55.87 74.44 56.11 74.15ZM58.95 73.86C58.4 74.13 58.24 74.2 58.46 74.06 58.59 73.85 58.79 73.64 59.02 73.44 59.42 73.35 59.82 73.23 60.22 73.12 59.99 73.28 59.76 73.43 59.51 73.57 59.33 73.68 59.14 73.78 58.95 73.86Z" fill="#FF8C00"/></g><g><g><g><g><defs><path d="M47.85 80.45 47.85 81.09C47.85 81.16 47.8 81.23 47.71 81.28L47.71 80.64C47.81 80.58 47.85 80.51 47.85 80.45Z" id="SVGID_36_"/></defs><clipPath id="SVGID_37_"><use width="100%" height="100%" xlink:href="#SVGID_36_" overflow="visible"></use></clipPath><use width="100%" height="100%" xlink:href="#SVGID_36_" fill="#DADFF6" overflow="visible"></use><g clip-path="url(#SVGID_37_)"><path d="M47.85 80.45 47.85 81.09C47.85 81.12 47.84 81.15 47.83 81.17L47.83 80.53C47.85 80.5 47.85 80.47 47.85 80.45L47.85 80.45Z" fill="#DADFF6"/><path d="M47.83 80.53 47.83 81.17C47.81 81.2 47.79 81.23 47.76 81.25L47.76 80.61C47.79 80.58 47.82 80.56 47.83 80.53L47.83 80.53Z" fill="#DADFF6"/><path d="M47.76 80.61 47.76 81.25C47.72 81.28 47.72 80.64 47.72 80.64 47.76 80.61 47.76 80.61 47.76 80.61Z" fill="#DADFF6"/></g></g><g><defs><path d="M34.91 83.18 34.91 82.54C34.91 82.61 34.96 82.68 35.05 82.73L35.05 83.37C34.96 83.32 34.91 83.25 34.91 83.18Z" id="SVGID_38_"/></defs><clipPath id="SVGID_39_"><use width="100%" height="100%" xlink:href="#SVGID_38_" overflow="visible"></use></clipPath><use width="100%" height="100%" xlink:href="#SVGID_38_" fill="#DADFF6" overflow="visible"></use><g clip-path="url(#SVGID_39_)"><path d="M35.05 82.73 35.05 83.37C34.96 83.32 34.91 83.25 34.91 83.18L34.91 82.54C34.91 82.61 34.96 82.68 35.05 82.73L35.05 82.73Z" fill="#DADFF6"/></g></g><g><path d="M47.72 80.64 47.72 81.28 39.93 85.8 39.93 85.16Z" fill="#DADFF6"/></g><g><path d="M39.26 85.16 39.26 85.8 35.05 83.37 35.05 82.73Z" fill="#DADFF6"/></g><g><defs><path d="M39.93 85.16 39.93 85.8C39.75 85.91 39.45 85.91 39.26 85.8L39.26 85.16C39.45 85.27 39.75 85.27 39.93 85.16Z" id="SVGID_40_"/></defs><clipPath id="SVGID_41_"><use width="100%" height="100%" xlink:href="#SVGID_40_" overflow="visible"></use></clipPath><use width="100%" height="100%" xlink:href="#SVGID_40_" fill="#DADFF6" overflow="visible"></use><g clip-path="url(#SVGID_41_)"><path d="M39.93 85.16 39.93 85.8C39.87 85.84 39.79 85.86 39.7 85.87L39.7 85.23C39.78 85.23 39.86 85.2 39.93 85.16L39.93 85.16Z" fill="#DADFF6"/><path d="M39.7 85.24 39.7 85.88C39.65 85.89 39.59 85.89 39.54 85.88L39.54 85.24C39.59 85.25 39.65 85.24 39.7 85.24L39.7 85.24Z" fill="#DADFF6"/><path d="M39.53 85.24 39.53 85.88C39.48 85.88 39.44 85.87 39.39 85.86L39.39 85.22C39.44 85.23 39.49 85.24 39.53 85.24L39.53 85.24Z" fill="#DADFF6"/><path d="M39.4 85.22 39.4 85.86C39.35 85.85 39.3 85.83 39.26 85.81L39.26 85.17C39.3 85.19 39.35 85.21 39.4 85.22L39.4 85.22Z" fill="#DADFF6"/></g></g><g><path d="M47.72 80.25C47.9 80.36 47.91 80.53 47.72 80.64L39.93 85.17C39.75 85.28 39.45 85.28 39.26 85.17L35.05 82.74C34.87 82.63 34.87 82.46 35.05 82.35L42.84 77.82C43.02 77.71 43.32 77.71 43.51 77.82L47.72 80.25Z" fill="#EBEEFC"/></g></g></g><g><path d="M45.06 80.86C45.46 81.09 46.1 81.09 46.5 80.86 46.9 80.63 46.9 80.26 46.5 80.03 46.1 79.8 45.46 79.8 45.06 80.03 44.67 80.25 44.67 80.63 45.06 80.86Z" fill="#FFF628"/><path d="M42.99 82.05C43.39 82.28 44.03 82.28 44.43 82.05 44.83 81.82 44.83 81.45 44.43 81.22 44.03 80.99 43.39 80.99 42.99 81.22 42.59 81.45 42.59 81.82 42.99 82.05Z" fill="#8EB500"/><path d="M40.92 83.25C41.32 83.48 41.96 83.48 42.36 83.25 42.76 83.02 42.76 82.65 42.36 82.42 41.96 82.19 41.32 82.19 40.92 82.42 40.52 82.65 40.52 83.02 40.92 83.25Z" fill="#51ADE2"/><path d="M38.84 84.45C39.24 84.68 39.88 84.68 40.28 84.45 40.68 84.22 40.68 83.85 40.28 83.62 39.88 83.39 39.24 83.39 38.84 83.62 38.45 83.84 38.45 84.22 38.84 84.45Z" fill="#FF7AA0"/><path d="M42.49 79.37C42.89 79.6 43.53 79.6 43.93 79.37 44.33 79.14 44.33 78.77 43.93 78.54 43.53 78.31 42.89 78.31 42.49 78.54 42.09 78.77 42.09 79.14 42.49 79.37Z" fill="#685F74"/><path d="M40.41 80.57C40.81 80.8 41.45 80.8 41.85 80.57 42.25 80.34 42.25 79.97 41.85 79.74 41.45 79.51 40.81 79.51 40.41 79.74 40.02 79.96 40.02 80.34 40.41 80.57Z" fill="#FFAA00"/><path d="M38.34 81.76C38.74 81.99 39.38 81.99 39.78 81.76 40.18 81.53 40.18 81.16 39.78 80.93 39.38 80.7 38.74 80.7 38.34 80.93 37.94 81.16 37.94 81.53 38.34 81.76Z" fill="#D1D1D1"/><path d="M36.27 82.96C36.67 83.19 37.31 83.19 37.71 82.96 38.11 82.73 38.11 82.36 37.71 82.13 37.31 81.9 36.67 81.9 36.27 82.13 35.87 82.36 35.87 82.73 36.27 82.96Z" fill="#805247"/></g><path d="M45.06 80.28C45.46 80.05 46.1 80.05 46.5 80.28 46.64 80.36 46.73 80.46 46.77 80.57 46.84 80.38 46.75 80.18 46.5 80.03 46.1 79.8 45.46 79.8 45.06 80.03 44.81 80.18 44.72 80.38 44.79 80.57 44.83 80.46 44.92 80.36 45.06 80.28Z" fill="#FFE229"/><path d="M44.43 81.22C44.03 80.99 43.39 80.99 42.99 81.22 42.74 81.37 42.65 81.57 42.72 81.76 42.76 81.65 42.85 81.55 42.99 81.47 43.39 81.24 44.03 81.24 44.43 81.47 44.57 81.55 44.66 81.65 44.7 81.76 44.77 81.57 44.68 81.37 44.43 81.22Z" fill="#9AB144"/><path d="M42.35 82.42C41.95 82.19 41.31 82.19 40.91 82.42 40.66 82.57 40.57 82.77 40.64 82.96 40.68 82.85 40.77 82.75 40.91 82.67 41.31 82.44 41.95 82.44 42.35 82.67 42.49 82.75 42.58 82.85 42.62 82.96 42.7 82.77 42.61 82.56 42.35 82.42Z" fill="#3584B2"/><path d="M40.28 83.62C39.88 83.39 39.24 83.39 38.84 83.62 38.59 83.77 38.5 83.97 38.57 84.16 38.61 84.05 38.7 83.95 38.84 83.87 39.24 83.64 39.88 83.64 40.28 83.87 40.42 83.95 40.51 84.05 40.55 84.16 40.62 83.97 40.53 83.76 40.28 83.62Z" fill="#E2557F"/><path d="M42.49 78.79C42.89 78.56 43.53 78.56 43.93 78.79 44.07 78.87 44.16 78.97 44.2 79.08 44.27 78.89 44.18 78.69 43.93 78.54 43.53 78.31 42.89 78.31 42.49 78.54 42.24 78.69 42.15 78.89 42.22 79.08 42.25 78.97 42.34 78.87 42.49 78.79Z" fill="#514A5A"/><path d="M40.41 79.99C40.81 79.76 41.45 79.76 41.85 79.99 41.99 80.07 42.08 80.17 42.12 80.28 42.19 80.09 42.1 79.89 41.85 79.74 41.45 79.51 40.81 79.51 40.41 79.74 40.16 79.89 40.07 80.09 40.14 80.28 40.18 80.17 40.27 80.07 40.41 79.99Z" fill="#E57700"/><path d="M38.34 81.18C38.74 80.95 39.38 80.95 39.78 81.18 39.92 81.26 40.01 81.36 40.05 81.47 40.12 81.28 40.03 81.08 39.78 80.93 39.38 80.7 38.74 80.7 38.34 80.93 38.09 81.08 38 81.28 38.07 81.47 38.11 81.37 38.2 81.26 38.34 81.18Z" fill="#B7B7B7"/><path d="M37.71 82.13C37.31 81.9 36.67 81.9 36.27 82.13 36.02 82.28 35.93 82.48 36 82.67 36.04 82.56 36.13 82.46 36.27 82.38 36.67 82.15 37.31 82.15 37.71 82.38 37.85 82.46 37.94 82.56 37.98 82.67 38.05 82.48 37.96 82.27 37.71 82.13Z" fill="#664139"/><path d="M44.6 79.86C44.58 79.88 44.56 79.89 44.54 79.9L38.77 83.23C38.62 83.32 38.37 83.32 38.22 83.23 38.2 83.22 38.18 83.2 38.16 83.19 38.07 83.1 38.09 82.99 38.22 82.91L43.99 79.58C44.07 79.54 44.17 79.51 44.27 79.51 44.37 79.51 44.47 79.53 44.55 79.58 44.67 79.66 44.69 79.77 44.6 79.86Z" fill="#EBEEFC"/><path d="M44.6 79.86C44.58 79.88 44.56 79.89 44.54 79.9L38.77 83.23C38.62 83.32 38.37 83.32 38.22 83.23 38.2 83.22 38.18 83.2 38.16 83.19 38.18 83.17 38.2 83.16 38.22 83.15L43.99 79.82C44.07 79.78 44.17 79.75 44.27 79.75 44.37 79.75 44.47 79.77 44.55 79.82 44.57 79.82 44.59 79.84 44.6 79.86Z" fill="#DADFF6"/></g><g><g><g><g><defs><path d="M77.44 115.86 76.94 128.16C76.94 128.25 77 128.35 77.12 128.42L77.56 116.04C77.49 115.99 77.44 115.92 77.44 115.86Z" id="SVGID_42_"/></defs><clipPath id="SVGID_43_"><use width="100%" height="100%" xlink:href="#SVGID_42_" overflow="visible"></use></clipPath><use width="100%" height="100%" xlink:href="#SVGID_42_" fill="#DADFF6" overflow="visible"></use><g clip-path="url(#SVGID_43_)"><path d="M77.44 115.86 76.94 128.16C76.94 128.25 77 128.35 77.12 128.42L77.56 116.04C77.49 115.99 77.44 115.92 77.44 115.86L77.44 115.86Z" fill="#DADFF6"/></g></g><g><defs><path d="M80.54 128.15 79.96 115.85C79.96 115.92 79.92 115.98 79.83 116.03L80.35 128.41C80.48 128.34 80.54 128.25 80.54 128.15Z" id="SVGID_44_"/></defs><clipPath id="SVGID_45_"><use width="100%" height="100%" xlink:href="#SVGID_44_" overflow="visible"></use></clipPath><use width="100%" height="100%" xlink:href="#SVGID_44_" fill="#DADFF6" overflow="visible"></use><g clip-path="url(#SVGID_45_)"><path d="M79.83 116.04 80.35 128.42C80.47 128.35 80.54 128.25 80.53 128.16L79.95 115.86C79.96 115.92 79.92 115.99 79.83 116.04L79.83 116.04Z" fill="#DADFF6"/></g></g><g><path d="M77.57 116.04 77.13 128.41 78.29 129.09 78.39 116.51Z" fill="#DADFF6"/></g><g><path d="M79.01 116.51 79.18 129.09 80.35 128.41 79.83 116.04Z" fill="#DADFF6"/></g><g><defs><path d="M78.39 116.51 78.3 129.09C78.54 129.23 78.94 129.23 79.19 129.09L79.02 116.51C78.84 116.61 78.56 116.61 78.39 116.51Z" id="SVGID_46_"/></defs><clipPath id="SVGID_47_"><use width="100%" height="100%" xlink:href="#SVGID_46_" overflow="visible"></use></clipPath><use width="100%" height="100%" xlink:href="#SVGID_46_" fill="#DADFF6" overflow="visible"></use><g clip-path="url(#SVGID_47_)"><path d="M78.39 116.51 78.3 129.09C78.54 129.23 78.94 129.23 79.19 129.09L79.02 116.51C78.84 116.61 78.56 116.61 78.39 116.51L78.39 116.51Z" fill="#DADFF6"/></g></g><g><path d="M77.57 115.68C77.4 115.78 77.4 115.94 77.57 116.04L78.39 116.51C78.56 116.61 78.84 116.61 79.01 116.51L79.83 116.04C80 115.94 80 115.78 79.83 115.68L79.01 115.21C78.84 115.11 78.56 115.11 78.39 115.21L77.57 115.68Z" fill="#DADFF6"/></g></g></g><g><g><g><defs><path d="M89.73 108.83 89.23 121.13C89.23 121.22 89.29 121.32 89.41 121.39L89.85 109.01C89.77 108.96 89.73 108.89 89.73 108.83Z" id="SVGID_48_"/></defs><clipPath id="SVGID_49_"><use width="100%" height="100%" xlink:href="#SVGID_48_" overflow="visible"></use></clipPath><use width="100%" height="100%" xlink:href="#SVGID_48_" fill="#DADFF6" overflow="visible"></use><g clip-path="url(#SVGID_49_)"><path d="M89.73 108.83 89.23 121.13C89.23 121.22 89.29 121.32 89.41 121.39L89.85 109.01C89.77 108.96 89.73 108.89 89.73 108.83L89.73 108.83Z" fill="#DADFF6"/></g></g><g><defs><path d="M92.82 121.12 92.24 108.82C92.24 108.89 92.2 108.95 92.11 109L92.63 121.38C92.76 121.31 92.82 121.22 92.82 121.12Z" id="SVGID_50_"/></defs><clipPath id="SVGID_51_"><use width="100%" height="100%" xlink:href="#SVGID_50_" overflow="visible"></use></clipPath><use width="100%" height="100%" xlink:href="#SVGID_50_" fill="#DADFF6" overflow="visible"></use><g clip-path="url(#SVGID_51_)"><path d="M92.11 109.01 92.63 121.39C92.75 121.32 92.82 121.22 92.81 121.13L92.23 108.83C92.24 108.89 92.2 108.96 92.11 109.01L92.11 109.01Z" fill="#DADFF6"/></g></g><g><path d="M89.85 109.01 89.41 121.38 90.57 122.06 90.67 109.48Z" fill="#DADFF6"/></g><g><path d="M91.29 109.48 91.46 122.06 92.63 121.38 92.11 109.01Z" fill="#DADFF6"/></g><g><defs><path d="M90.67 109.48 90.58 122.06C90.82 122.2 91.22 122.2 91.47 122.06L91.3 109.48C91.12 109.58 90.84 109.58 90.67 109.48Z" id="SVGID_52_"/></defs><clipPath id="SVGID_53_"><use width="100%" height="100%" xlink:href="#SVGID_52_" overflow="visible"></use></clipPath><use width="100%" height="100%" xlink:href="#SVGID_52_" fill="#DADFF6" overflow="visible"></use><g clip-path="url(#SVGID_53_)"><path d="M90.67 109.48 90.58 122.06C90.82 122.2 91.22 122.2 91.47 122.06L91.3 109.48C91.12 109.58 90.84 109.58 90.67 109.48L90.67 109.48Z" fill="#DADFF6"/></g></g><g><path d="M89.85 108.64C89.68 108.74 89.68 108.9 89.85 109L90.67 109.47C90.84 109.57 91.12 109.57 91.29 109.47L92.11 109C92.28 108.9 92.28 108.74 92.11 108.64L91.29 108.17C91.12 108.07 90.84 108.07 90.67 108.17L89.85 108.64Z" fill="#DADFF6"/></g></g></g><path d="M61.74 111.67C61.64 111.43 61.61 111.16 61.52 110.91 61.47 110.77 61.4 110.64 61.33 110.51 60.38 108.76 61.31 107.39 64.17 107.83 64.99 107.96 65.79 108.18 66.63 108.22 67.15 108.24 67.69 108.21 68.2 108.12 68.67 108.03 69.08 107.87 69.57 107.99 70.02 108.1 70.42 108.41 70.62 108.82 70.85 109.33 70.75 109.96 70.43 110.42 69.84 111.28 68.84 111.49 67.91 111.76 67.21 111.97 66.52 112.21 65.8 112.34 64.59 112.55 62.08 112.48 61.74 111.67Z" fill="#FFBFA2"/><path d="M65.73 107.91C65.77 107.7 67.08 99.41 67.14 97.98 67.18 96.98 68.23 92.92 68.66 91.83 69.3 90.18 70.54 89.55 72.22 89.28 74.71 88.88 76.44 92.97 73.86 100.88 73.78 101.12 71.81 107.63 71.03 108.85 69.6 111.12 65.13 110.75 65.73 107.91Z" fill="#FF8C00"/><path d="M51.49 118.94C51.39 118.7 51.36 118.43 51.27 118.18 51.22 118.04 51.15 117.91 51.08 117.78 50.13 116.03 51.06 114.66 53.92 115.1 54.74 115.23 55.54 115.45 56.38 115.49 56.9 115.51 57.44 115.48 57.95 115.39 58.42 115.3 58.83 115.14 59.32 115.26 59.77 115.37 60.17 115.68 60.37 116.09 60.6 116.6 60.5 117.23 60.18 117.69 59.59 118.55 58.59 118.76 57.66 119.03 56.96 119.24 56.27 119.48 55.55 119.61 54.34 119.83 51.83 119.75 51.49 118.94Z" fill="#FFBFA2"/><path d="M55.88 114.77C55.92 114.56 57.23 106.27 57.29 104.84 57.33 103.84 58.38 99.78 58.81 98.69 59.45 97.04 60.26 96.53 61.94 96.26 64.43 95.86 66.59 99.84 64.01 107.74 63.93 107.98 61.96 114.49 61.18 115.71 59.74 117.98 55.28 117.61 55.88 114.77Z" fill="#FFAA00"/><g><g><g><defs><path d="M63.67 107.96 63.17 120.26C63.17 120.35 63.23 120.45 63.35 120.52L63.79 108.14C63.71 108.09 63.67 108.02 63.67 107.96Z" id="SVGID_54_"/></defs><clipPath id="SVGID_55_"><use width="100%" height="100%" xlink:href="#SVGID_54_" overflow="visible"></use></clipPath><use width="100%" height="100%" xlink:href="#SVGID_54_" fill="#DADFF6" overflow="visible"></use><g clip-path="url(#SVGID_55_)"><path d="M63.67 107.96 63.17 120.26C63.17 120.35 63.23 120.45 63.35 120.52L63.79 108.14C63.71 108.09 63.67 108.02 63.67 107.96L63.67 107.96Z" fill="#DADFF6"/></g></g><g><defs><path d="M66.76 120.25 66.18 107.95C66.18 108.02 66.14 108.08 66.05 108.13L66.57 120.51C66.7 120.44 66.76 120.35 66.76 120.25Z" id="SVGID_56_"/></defs><clipPath id="SVGID_57_"><use width="100%" height="100%" xlink:href="#SVGID_56_" overflow="visible"></use></clipPath><use width="100%" height="100%" xlink:href="#SVGID_56_" fill="#DADFF6" overflow="visible"></use><g clip-path="url(#SVGID_57_)"><path d="M66.05 108.14 66.57 120.52C66.69 120.45 66.76 120.35 66.76 120.26L66.18 107.96C66.18 108.02 66.14 108.09 66.05 108.14L66.05 108.14Z" fill="#DADFF6"/></g></g><g><path d="M63.79 108.14 63.35 120.51 64.51 121.19 64.61 108.61Z" fill="#DADFF6"/></g><g><path d="M65.23 108.61 65.4 121.19 66.57 120.51 66.05 108.14Z" fill="#DADFF6"/></g><g><defs><path d="M64.61 108.61 64.52 121.19C64.76 121.33 65.16 121.33 65.41 121.19L65.24 108.61C65.06 108.71 64.78 108.71 64.61 108.61Z" id="SVGID_58_"/></defs><clipPath id="SVGID_59_"><use width="100%" height="100%" xlink:href="#SVGID_58_" overflow="visible"></use></clipPath><use width="100%" height="100%" xlink:href="#SVGID_58_" fill="#DADFF6" overflow="visible"></use><g clip-path="url(#SVGID_59_)"><path d="M64.61 108.61 64.52 121.19C64.76 121.33 65.16 121.33 65.41 121.19L65.24 108.61C65.06 108.71 64.78 108.71 64.61 108.61L64.61 108.61Z" fill="#DADFF6"/></g></g><g><path d="M63.79 107.78C63.62 107.88 63.62 108.04 63.79 108.14L64.61 108.61C64.78 108.71 65.06 108.71 65.23 108.61L66.05 108.14C66.22 108.04 66.22 107.88 66.05 107.78L65.23 107.31C65.06 107.21 64.78 107.21 64.61 107.31L63.79 107.78Z" fill="#DADFF6"/></g></g></g><g><g><g><defs><path d="M63.21 105.55 63.22 107.75C63.22 107.85 63.29 107.95 63.42 108.03L63.41 105.83C63.28 105.75 63.21 105.65 63.21 105.55Z" id="SVGID_60_"/></defs><clipPath id="SVGID_61_"><use width="100%" height="100%" xlink:href="#SVGID_60_" overflow="visible"></use></clipPath><use width="100%" height="100%" xlink:href="#SVGID_60_" fill="#EBEEFC" overflow="visible"></use><g clip-path="url(#SVGID_61_)"><path d="M63.21 105.55 63.22 107.75C63.22 107.85 63.29 107.95 63.42 108.03L63.41 105.83C63.28 105.75 63.21 105.65 63.21 105.55L63.21 105.55Z" fill="#EBEEFC"/></g></g><g><defs><path d="M92.83 108.8 92.82 106.6C92.82 106.7 92.75 106.8 92.62 106.88L92.63 109.08C92.77 109 92.83 108.9 92.83 108.8Z" id="SVGID_62_"/></defs><clipPath id="SVGID_63_"><use width="100%" height="100%" xlink:href="#SVGID_62_" overflow="visible"></use></clipPath><use width="100%" height="100%" xlink:href="#SVGID_62_" fill="#DADFF6" overflow="visible"></use><g clip-path="url(#SVGID_63_)"><path d="M92.63 106.88 92.64 109.08C92.77 109 92.84 108.9 92.84 108.8L92.83 106.6C92.83 106.7 92.76 106.8 92.63 106.88L92.63 106.88Z" fill="#DADFF6"/></g></g><g><path d="M63.41 105.83 63.42 108.03 78.41 116.74 78.4 114.54Z" fill="#EBEEFC"/></g><g><path d="M79.36 114.54 79.36 116.74 92.63 109.08 92.63 106.88Z" fill="#DADFF6"/></g><g><defs><path d="M78.4 114.54 78.41 116.74C78.67 116.89 79.1 116.89 79.37 116.74L79.36 114.54C79.09 114.69 78.66 114.69 78.4 114.54Z" id="SVGID_64_"/></defs><clipPath id="SVGID_65_"><use width="100%" height="100%" xlink:href="#SVGID_64_" overflow="visible"></use></clipPath><use width="100%" height="100%" xlink:href="#SVGID_64_" fill="#EBEEFC" overflow="visible"></use><g clip-path="url(#SVGID_65_)"><path d="M78.4 114.54 78.41 116.74C78.46 116.77 78.52 116.79 78.58 116.81L78.57 114.61C78.51 114.59 78.45 114.57 78.4 114.54L78.4 114.54Z" fill="#EBEEFC"/><path d="M78.57 114.61 78.58 116.81C78.75 116.86 78.95 116.87 79.13 116.83L79.12 114.63C78.94 114.67 78.74 114.66 78.57 114.61L78.57 114.61Z" fill="#DADFF6"/><path d="M79.12 114.63 79.13 116.83C79.22 116.81 79.3 116.78 79.37 116.74L79.36 114.54C79.29 114.58 79.2 114.61 79.12 114.63L79.12 114.63Z" fill="#DADFF6"/></g></g><g><path d="M63.41 105.27C63.15 105.42 63.14 105.67 63.41 105.82L78.4 114.53C78.66 114.68 79.09 114.68 79.36 114.53L92.63 106.87C92.89 106.72 92.9 106.47 92.63 106.32L77.64 97.61C77.38 97.46 76.95 97.46 76.68 97.61L63.41 105.27Z" fill="#FBF5EC"/></g></g></g><g><g><g><defs><path d="M63.05 104.26 63.05 105.36C63.05 105.64 63.23 105.91 63.59 106.12L63.59 105.02C63.23 104.81 63.05 104.53 63.05 104.26Z" id="SVGID_66_"/></defs><clipPath id="SVGID_67_"><use width="100%" height="100%" xlink:href="#SVGID_66_" overflow="visible"></use></clipPath><use width="100%" height="100%" xlink:href="#SVGID_66_" fill="#ACBF00" overflow="visible"></use><g clip-path="url(#SVGID_67_)"><path d="M63.05 104.26 63.05 105.36C63.05 105.64 63.23 105.91 63.59 106.12L63.59 105.02C63.23 104.81 63.05 104.53 63.05 104.26L63.05 104.26Z" fill="#ACBF00"/></g></g><g><path d="M88.73 105.54 88.74 106.64 90.8 105.45 90.8 104.35Z" fill="#ACBF00"/></g><g><path d="M76.57 112.57 76.57 113.67 78.64 112.47 78.63 111.37Z" fill="#ACBF00"/></g><g><path d="M63.59 105.02 63.59 106.12 76.57 113.67 76.57 112.57Z" fill="#ACBF00"/></g><g><path d="M78.63 111.37 78.64 112.47 80.69 113.67 80.68 112.57Z" fill="#ACBF00"/></g><g><path d="M63.6 103.49C62.87 103.91 62.87 104.6 63.59 105.02L76.57 112.57 78.63 111.38 80.68 112.57 90.78 106.74 88.73 105.55 90.79 104.36 77.82 96.8C77.1 96.38 75.91 96.38 75.18 96.8L63.6 103.49Z" fill="#CDE305"/></g></g></g><g><g><g><path d="M71.38 74.02C70.48 73.15 69.34 72.42 68.18 71.96 67.89 71.85 67.6 71.75 67.29 71.69 67.16 71.66 67.03 71.65 66.89 71.64 66.71 71.63 66.58 71.73 66.44 71.85 66.08 72.17 65.79 72.56 65.52 72.96 65.16 73.49 64.82 74.07 64.71 74.7 64.7 74.73 64.7 74.77 64.71 74.8 64.75 74.88 64.9 74.82 64.94 74.94 65 75.11 64.8 75.23 64.92 75.4 64.96 75.46 65.06 75.48 65.1 75.55 65.2 75.73 64.98 75.76 65.33 76.23 65.66 76.68 66.4 75.52 67.57 75.93 67.86 76.03 68.13 76.19 68.41 76.31 68.75 76.46 69.11 76.58 69.48 76.64 69.79 76.7 70.43 76.77 70.58 76.82L71.38 74.02Z" fill="#F3A984"/></g><g><path d="M67.56 71.12 63.97 76.67C63.92 76.75 63.92 76.86 63.98 76.98 64.11 77.23 64.44 77.45 64.73 77.47 64.87 77.48 64.98 77.43 65.03 77.35L68.62 71.8C68.57 71.88 68.47 71.92 68.32 71.92 68.03 71.9 67.7 71.69 67.57 71.43 67.51 71.31 67.51 71.2 67.56 71.12L67.56 71.12Z" fill="#FF5283"/></g><g><path d="M67.86 71C67.57 70.98 67.45 71.18 67.57 71.43 67.7 71.68 68.03 71.9 68.32 71.92 68.61 71.94 68.73 71.74 68.61 71.49 68.48 71.24 68.14 71.02 67.86 71Z" fill="#FF5283"/></g><path d="M69.17 74.79C69.02 75.18 68.86 75.97 69.16 76.34 69.41 76.65 70.13 76.78 70.49 76.92 71.59 77.37 72.71 77.78 73.82 78.19 74.33 78.38 74.83 78.57 75.34 78.74 76.83 79.24 78.37 79.59 79.91 79.79 80.51 79.87 81.5 80.01 82.07 79.77 82.63 79.53 82.86 78.93 82.96 78.3 83.15 77.18 82.93 75.96 82.03 75.23 81.12 74.51 80.05 74.38 78.98 74.2 76.52 73.79 74.05 73.55 71.58 73.46 71.14 73.44 70.69 73.44 70.28 73.58 69.79 73.75 69.38 74.23 69.17 74.79Z" fill="#EBEEFC"/><path d="M69.56 90.48C67.32 93.08 70.44 96.81 71.96 98.85 74.36 102.07 77.24 105.24 80.12 106.03 82.66 106.72 84.63 106.02 85.31 105.26 86.67 103.74 87.62 101.09 86.54 99.21 85.28 97.01 82.69 95.05 80.79 93.43 74.89 88.4 70.81 89.03 69.56 90.48Z" fill="#FF8C00"/><path d="M61.36 96.33C60.04 96.54 59.15 97.53 59.12 98.87 59.08 100.39 59.84 101.65 61.11 102.41 64.6 104.49 68.17 106.48 71.98 107.89 73.29 108.38 74.64 108.8 76.03 108.92 77.42 109.04 78.87 108.86 80.09 108.19 80.59 107.92 81.05 107.57 81.45 107.17 81.76 106.86 82.05 106.52 82.26 106.13 82.75 105.22 82.79 104.1 82.47 103.11 81.73 100.88 79.62 100.04 77.53 99.45 76.69 99.21 75.83 99.04 74.96 98.89 74.55 98.82 74 98.82 73.62 98.63 68.92 96.36 63.7 95.95 61.36 96.33Z" fill="#FFAA00"/><g><g><path d="M87.89 81.22C87.16 73.05 80.23 77.32 77.83 78.18 76.12 78.8 74.47 79.61 72.94 80.59 68.79 83.24 72.27 85.04 71.89 96.14 71.85 97.3 70.64 100.5 73.21 102.43 78.06 106.07 85.43 104.14 87.09 99.79 87.6 98.47 88 82.44 87.89 81.22Z" fill="#B4BCE2"/></g></g><path d="M72.96 81.81C77.91 81.95 76.16 87.64 74.72 88.62 73.82 89.23 73.47 88.75 69.53 88.34 64.99 87.86 61.96 87.56 60.92 85.76 60.52 85.07 60.47 84.19 60.78 83.46 61.53 81.71 64.21 82.15 64.45 82.14 71.75 81.99 73.12 81.82 72.96 81.81Z" fill="#E3E5FA"/><g><path d="M58.91 79.3C58.35 77.74 56.76 75.34 55.54 75.04 54.14 74.69 53.99 74.45 53.6 74.63 52.59 75.11 53.5 75.55 53.45 75.81 53.39 76.11 53.16 75.97 52.67 76.56 52.27 77.03 52.76 77.09 52.73 77.31 52.71 77.49 52.48 77.51 52.51 77.72 52.52 77.8 52.6 77.85 52.6 77.93 52.61 78.13 52.4 78.07 52.5 78.64 52.6 79.19 53.78 78.47 54.65 79.35 54.87 79.57 55.04 79.83 55.24 80.07 55.48 80.36 55.76 80.62 56.06 80.84 56.32 81.03 56.86 81.37 56.97 81.48L58.91 79.3Z" fill="#F3A984"/></g><path d="M55.74 80.48C55.94 81.32 61.11 87.2 63.28 87.31 64.12 87.35 72.98 85.84 59.23 78.51 57.03 77.33 55.54 79.64 55.74 80.48Z" fill="#E3E5FA"/><path d="M76.38 76.79C76.27 76.06 75.72 76.23 76 75.57 77.11 72.94 79.14 73.69 79.34 73.69 83.73 73.71 81.46 74.06 82.4 76.97 82.53 77.37 83.67 79.42 81.37 80.54 79.91 81.24 76.93 80.96 76.41 80.12 76 79.43 76.6 78.31 76.38 76.79Z" fill="#FFBFA2"/><path d="M73.24 67.02C72.84 67.5 72.54 68.04 72.44 68.68 72.23 70.1 72.8 71.55 72.49 72.96 72.19 74.32 72.78 77.41 75.46 78.2 76.82 78.6 79.5 78.13 80.36 77.72 81.52 77.17 82.28 76.05 82.96 74.96 88.57 66.06 77.04 62.4 73.24 67.02Z" fill="#FFBFA2"/><path d="M83.72 64.5C83.61 64.28 83.61 63.98 83.47 63.75 83.3 63.46 82.98 63.25 82.65 63.28 82.51 63.29 82.37 63.35 82.23 63.35 81.79 63.34 81.57 62.83 81.25 62.53 80.9 62.2 80.34 62.12 79.91 62.34 79.79 62.4 79.67 62.49 79.54 62.52 79.17 62.61 78.82 62.26 78.44 62.27 78.03 62.29 77.7 62.72 77.29 62.68 77.13 62.66 76.99 62.57 76.83 62.52 76.47 62.4 76.05 62.49 75.78 62.76 75.65 62.89 75.54 63.06 75.38 63.14 75.18 63.24 74.94 63.18 74.72 63.2 74.37 63.23 74.05 63.49 73.94 63.83 73.84 64.13 73.84 64.56 73.52 64.63 73.41 64.65 73.3 64.62 73.19 64.61 72.83 64.58 72.5 64.85 72.35 65.18 72.2 65.51 72.2 65.88 72.19 66.25 71.97 66.21 71.75 66.38 71.66 66.6 71.58 66.81 71.6 67.05 71.62 67.28 71.68 67.9 71.76 68.57 72.2 69.01 72.33 69.13 72.48 69.24 72.56 69.39 72.64 69.55 72.64 69.74 72.69 69.91 72.74 70.11 72.85 70.28 72.96 70.46 73.33 71.03 73.73 71.63 74.36 71.87 74.72 72 74.7 71.69 74.91 71.63 75.16 71.56 75.42 71.55 75.68 71.63 76.08 71.75 76.52 72.17 76.58 72.6 76.64 73.05 76.18 73.41 76.45 73.87 76.51 73.98 76.6 74.07 76.64 74.19 76.7 74.37 76.62 74.57 76.6 74.76 76.52 75.36 77.04 75.96 77.64 75.98 77.54 76.27 77.8 76.58 78.09 76.68 78.38 76.79 78.71 76.78 79 76.88 79.3 76.99 79.55 77.2 79.82 77.35 80.1 77.5 80.46 77.59 80.73 77.42 81 77.25 81.14 76.86 81.46 76.83 81.69 76.81 81.88 77 82.1 77.08 82.47 77.21 82.89 77 83.11 76.68 83.34 76.36 83.41 75.97 83.49 75.58 83.85 75.7 84.26 75.49 84.47 75.17 84.68 74.85 84.73 74.46 84.74 74.07 84.74 73.9 84.74 73.73 84.83 73.59 84.91 73.48 85.04 73.42 85.15 73.34 85.69 72.94 85.66 72.14 85.58 71.48 85.56 71.34 85.54 71.19 85.6 71.06 85.65 70.92 85.77 70.82 85.87 70.71 86.25 70.28 86.35 69.62 86.1 69.1 86.03 68.96 85.94 68.81 85.93 68.65 85.92 68.5 86 68.36 86.05 68.21 86.32 67.49 85.98 66.6 85.3 66.24 85.38 66.28 85.33 65.57 85.29 65.5 85.16 65.24 84.88 65.08 84.63 64.95 84.41 64.84 84.02 64.79 83.84 64.63 83.8 64.62 83.76 64.57 83.72 64.5Z" fill="#29110F"/><path d="M76.31 71.03C77.38 70.94 77.68 72.27 76.96 73.31 76.75 73.61 76.37 73.89 76.1 74.13 74.2 75.8 73.69 74.04 74.29 73.47 75.68 72.15 74.95 71.14 76.31 71.03Z" fill="#FFBFA2"/><path d="M76.02 73.06C76.14 72.94 77.36 72.2 76.51 71.72 76.28 71.59 76.02 71.79 75.99 72.04 75.97 72.17 76.02 72.3 76 72.42 75.99 72.5 75.96 72.57 75.92 72.63 75.81 72.81 75.45 72.99 75.52 73.24 75.59 73.48 75.95 73.13 76.02 73.06Z" fill="#F3A984"/></g></g><g><g><g><defs><path d="M92.43 87.88 91.48 87.33C91.21 87.17 90.83 87.19 90.41 87.44 90 87.68 89.62 87.71 89.34 87.55L90.29 88.1C90.57 88.26 90.96 88.23 91.36 87.99 91.78 87.74 92.16 87.72 92.43 87.88Z" id="SVGID_68_"/></defs><clipPath id="SVGID_69_"><use width="100%" height="100%" xlink:href="#SVGID_68_" overflow="visible"></use></clipPath><use width="100%" height="100%" xlink:href="#SVGID_68_" fill="#CDE305" overflow="visible"></use><g clip-path="url(#SVGID_69_)"><path d="M92.43 87.88 91.48 87.33C91.21 87.17 90.83 87.19 90.41 87.44 90 87.68 89.62 87.71 89.34 87.55L90.29 88.1C90.57 88.26 90.96 88.23 91.36 87.99 91.78 87.74 92.16 87.72 92.43 87.88L92.43 87.88Z" fill="#CDE305"/></g></g><g><defs><path d="M75.3 105.25 76.25 105.8C75.98 105.64 75.81 105.31 75.81 104.83L74.86 104.28C74.86 104.76 75.03 105.09 75.3 105.25Z" id="SVGID_70_"/></defs><clipPath id="SVGID_71_"><use width="100%" height="100%" xlink:href="#SVGID_70_" overflow="visible"></use></clipPath><use width="100%" height="100%" xlink:href="#SVGID_70_" fill="#CDE305" overflow="visible"></use><g clip-path="url(#SVGID_71_)"><path d="M75.81 104.83 74.86 104.28C74.86 104.76 75.03 105.09 75.3 105.25L76.25 105.8C75.98 105.64 75.81 105.31 75.81 104.83L75.81 104.83Z" fill="#CDE305"/></g></g><g><defs><path d="M89.05 86.97 88.1 86.42C86.89 85.72 85.21 85.82 83.36 86.88L84.31 87.43C86.17 86.36 87.84 86.26 89.05 86.97Z" id="SVGID_72_"/></defs><clipPath id="SVGID_73_"><use width="100%" height="100%" xlink:href="#SVGID_72_" overflow="visible"></use></clipPath><use width="100%" height="100%" xlink:href="#SVGID_72_" fill="#CDE305" overflow="visible"></use><g clip-path="url(#SVGID_73_)"><path d="M89.05 86.97 88.1 86.42C86.89 85.72 85.21 85.82 83.36 86.88L84.31 87.43C86.17 86.36 87.84 86.26 89.05 86.97L89.05 86.97Z" fill="#CDE305"/></g></g><g><path d="M75.79 98.71 74.84 98.16 74.86 104.28 75.81 104.83Z" fill="#CDE305"/></g><g><defs><path d="M84.32 87.43 83.37 86.88C80.93 88.29 78.8 91.03 77.65 93.95 77.38 94.63 76.89 95.24 76.36 95.55 75.53 96.03 74.85 97.2 74.86 98.16L75.81 98.71C75.81 97.75 76.48 96.59 77.31 96.1 77.84 95.79 78.34 95.18 78.6 94.5 79.74 91.58 81.87 88.84 84.32 87.43Z" id="SVGID_74_"/></defs><clipPath id="SVGID_75_"><use width="100%" height="100%" xlink:href="#SVGID_74_" overflow="visible"></use></clipPath><use width="100%" height="100%" xlink:href="#SVGID_74_" fill="#CDE305" overflow="visible"></use><g clip-path="url(#SVGID_75_)"><path d="M84.32 87.43 83.37 86.88C80.93 88.29 78.8 91.03 77.65 93.95 77.38 94.63 76.89 95.24 76.36 95.55 75.53 96.03 74.85 97.2 74.86 98.16L75.81 98.71C75.81 97.75 76.48 96.59 77.31 96.1 77.84 95.79 78.34 95.18 78.6 94.5 79.74 91.58 81.87 88.84 84.32 87.43L84.32 87.43Z" fill="#CDE305"/></g></g><g><path d="M84.32 87.43C81.88 88.84 79.75 91.58 78.6 94.5 78.33 95.18 77.84 95.79 77.31 96.1 76.48 96.58 75.8 97.75 75.81 98.71L75.83 104.83C75.83 105.79 76.51 106.17 77.34 105.69L91.4 97.57C92.23 97.09 92.91 95.92 92.9 94.96L92.88 88.84C92.88 87.88 92.2 87.5 91.37 87.98 90.84 88.29 90.34 88.25 90.07 87.88 88.9 86.3 86.76 86.02 84.32 87.43Z" fill="#ACBF00"/></g></g></g><g><g><g><defs><path d="M89.23 91.25 89.27 106.67C89.27 106.77 89.34 106.87 89.47 106.94L89.43 91.52C89.29 91.45 89.23 91.35 89.23 91.25Z" id="SVGID_76_"/></defs><clipPath id="SVGID_77_"><use width="100%" height="100%" xlink:href="#SVGID_76_" overflow="visible"></use></clipPath><use width="100%" height="100%" xlink:href="#SVGID_76_" fill="#EBEEFC" overflow="visible"></use><g clip-path="url(#SVGID_77_)"><path d="M89.23 91.25 89.27 106.67C89.27 106.77 89.34 106.87 89.47 106.94L89.43 91.52C89.29 91.45 89.23 91.35 89.23 91.25L89.23 91.25Z" fill="#EBEEFC"/></g></g><g><defs><path d="M92.83 106.66 92.79 91.24C92.79 91.34 92.72 91.44 92.59 91.52L92.63 106.94C92.76 106.87 92.83 106.77 92.83 106.66Z" id="SVGID_78_"/></defs><clipPath id="SVGID_79_"><use width="100%" height="100%" xlink:href="#SVGID_78_" overflow="visible"></use></clipPath><use width="100%" height="100%" xlink:href="#SVGID_78_" fill="#DADFF6" overflow="visible"></use><g clip-path="url(#SVGID_79_)"><path d="M92.59 91.53 92.63 106.95C92.76 106.87 92.83 106.77 92.83 106.67L92.79 91.25C92.78 91.35 92.72 91.45 92.59 91.53L92.59 91.53Z" fill="#DADFF6"/></g></g><g><path d="M89.42 91.53 89.47 106.94 90.57 107.58 90.52 92.16Z" fill="#EBEEFC"/></g><g><path d="M91.48 92.16 91.52 107.58 92.63 106.94 92.59 91.53Z" fill="#DADFF6"/></g><g><path d="M89.43 90.97C89.17 91.12 89.16 91.37 89.43 91.52L90.53 92.16C90.79 92.31 91.22 92.31 91.49 92.16L92.6 91.52C92.86 91.37 92.87 91.12 92.6 90.97L91.5 90.33C91.24 90.18 90.81 90.18 90.54 90.33L89.43 90.97Z" fill="#EBEEFC"/></g></g><g><defs><path d="M90.52 92.16 90.56 108.41C90.82 108.56 91.25 107.98 91.52 107.83L91.48 92.16C91.22 92.32 90.79 92.32 90.52 92.16Z" id="SVGID_80_"/></defs><clipPath id="SVGID_81_"><use width="100%" height="100%" xlink:href="#SVGID_80_" overflow="visible"></use></clipPath><use width="100%" height="100%" xlink:href="#SVGID_80_" fill="#DADFF6" overflow="visible"></use></g></g><path d="M78.63 111.37 80.68 112.57 90.79 106.73 88.74 105.54Z" fill="#CDE305"/><g><g><g><defs><path d="M76.72 98.49 76.76 113.91C76.76 114.01 76.83 114.11 76.96 114.19L76.92 98.77C76.78 98.69 76.72 98.59 76.72 98.49Z" id="SVGID_82_"/></defs><clipPath id="SVGID_83_"><use width="100%" height="100%" xlink:href="#SVGID_82_" overflow="visible"></use></clipPath><use width="100%" height="100%" xlink:href="#SVGID_82_" fill="#EBEEFC" overflow="visible"></use><g clip-path="url(#SVGID_83_)"><path d="M76.72 98.49 76.76 113.91C76.76 114.01 76.83 114.11 76.96 114.19L76.92 98.77C76.78 98.69 76.72 98.59 76.72 98.49L76.72 98.49Z" fill="#EBEEFC"/></g></g><g><defs><path d="M80.32 113.9 80.28 98.48C80.28 98.58 80.21 98.68 80.08 98.76L80.12 114.18C80.25 114.11 80.32 114 80.32 113.9Z" id="SVGID_84_"/></defs><clipPath id="SVGID_85_"><use width="100%" height="100%" xlink:href="#SVGID_84_" overflow="visible"></use></clipPath><use width="100%" height="100%" xlink:href="#SVGID_84_" fill="#EBEEFC" overflow="visible"></use><g clip-path="url(#SVGID_85_)"><path d="M80.08 98.76 80.12 114.18C80.25 114.1 80.32 114 80.32 113.9L80.28 98.48C80.27 98.59 80.21 98.69 80.08 98.76L80.08 98.76Z" fill="#DADFF6"/></g></g><g><path d="M76.91 98.76 76.96 114.18 78.06 114.82 78.01 99.4Z" fill="#EBEEFC"/></g><g><path d="M78.97 99.4 79.01 114.82 80.12 114.18 80.08 98.76Z" fill="#DADFF6"/></g><g><defs><path d="M78.01 99.4 78.05 114.82C78.31 114.97 78.74 114.97 79.01 114.82L78.97 99.4C78.71 99.56 78.28 99.56 78.01 99.4Z" id="SVGID_86_"/></defs><clipPath id="SVGID_87_"><use width="100%" height="100%" xlink:href="#SVGID_86_" overflow="visible"></use></clipPath><use width="100%" height="100%" xlink:href="#SVGID_86_" fill="#EBEEFC" overflow="visible"></use><g clip-path="url(#SVGID_87_)"><path d="M78.01 99.4 78.05 114.82C78.31 114.97 78.74 114.97 79.01 114.82L78.97 99.4C78.71 99.56 78.28 99.56 78.01 99.4L78.01 99.4Z" fill="#EBEEFC"/></g></g><g><path d="M76.92 98.21C76.66 98.36 76.65 98.61 76.92 98.76L78.02 99.4C78.28 99.55 78.71 99.55 78.98 99.4L80.09 98.76C80.35 98.61 80.36 98.36 80.09 98.21L78.99 97.57C78.73 97.42 78.3 97.42 78.03 97.57L76.92 98.21Z" fill="#EBEEFC"/></g></g></g><g><path d="M80.68 112.57 80.69 113.67 90.79 107.83 90.79 106.73Z" fill="#ACBF00"/></g><path d="M67.53 74.2C67.16 74.39 66.76 74.52 66.38 74.7 66 74.88 65.64 75.12 65.42 75.48 65.3 75.68 65.23 75.93 65.29 76.15 65.31 76.22 65.35 76.3 65.42 76.33 65.53 76.39 65.66 76.32 65.78 76.26 66.03 76.15 66.3 76.12 66.56 76.05 66.83 75.98 67.09 75.88 67.33 75.74 67.65 75.57 67.94 75.35 68.19 75.09 68.39 74.88 68.58 74.64 68.64 74.36 68.69 74.11 68.6 73.63 68.28 73.58 68.12 73.55 68.06 73.74 67.98 73.84 67.86 74 67.7 74.11 67.53 74.2Z" fill="#F3A984"/></g></g><g><g><g><path d="M42.86 85.38 46.1 83.5C46.2 83.44 46.34 83.45 46.5 83.54L43.26 85.42C43.1 85.33 42.96 85.32 42.86 85.38Z" fill="#51ADE2"/></g><g><path d="M46.89 84.86 43.65 86.74C43.75 86.68 43.81 86.56 43.81 86.38 43.81 86.02 43.56 85.59 43.25 85.41L46.49 83.53C46.8 83.71 47.05 84.14 47.05 84.5 47.06 84.68 46.99 84.8 46.89 84.86Z" fill="#51ADE2"/></g><g><path d="M43.26 85.42C43.57 85.6 43.82 86.03 43.82 86.39 43.82 86.75 43.57 86.89 43.26 86.71 42.95 86.53 42.7 86.1 42.7 85.74 42.69 85.38 42.95 85.24 43.26 85.42Z" fill="#3584B2"/></g></g></g><g><g><g><path d="M51.4 86.75 48.16 84.87C48.06 84.81 47.92 84.82 47.76 84.91L51 86.79C51.16 86.7 51.3 86.69 51.4 86.75Z" fill="#FFAA00"/></g><g><path d="M47.36 86.23 50.6 88.11C50.5 88.05 50.44 87.93 50.44 87.75 50.44 87.39 50.69 86.96 51 86.78L47.76 84.9C47.45 85.08 47.2 85.51 47.2 85.87 47.2 86.05 47.26 86.17 47.36 86.23Z" fill="#FFAA00"/></g><g><path d="M51 86.79C50.69 86.97 50.44 87.4 50.44 87.76 50.44 88.12 50.69 88.26 51 88.08 51.31 87.9 51.56 87.47 51.56 87.11 51.57 86.75 51.31 86.61 51 86.79Z" fill="#FF8C00"/></g></g></g></g></svg>