<svg width="225" height="225" viewBox="0 0 225 225" xmlns="http://www.w3.org/2000/svg" xmlns:xlink="http://www.w3.org/1999/xlink" xml:space="preserve" overflow="hidden"><defs></defs><g><rect x="0" y="0" width="225" height="225" fill="#FFFFFF"/><rect x="0" y="132.08" width="225" height="92.92" fill="#F1F2F2"/><path d="M160.97 46.47 117.71 46.47 83.66 46.47C79.59 46.47 76.29 49.77 76.29 53.84L76.29 134.87C76.29 137.18 78.17 139.06 80.48 139.06L113.52 139.06C115.83 139.06 117.71 137.18 117.71 134.87L117.71 99.42C117.71 87.47 127.39 77.79 139.34 77.79L139.34 77.79C151.29 77.79 160.97 87.47 160.97 99.42L160.97 134.86C160.97 137.17 162.85 139.05 165.16 139.05L198.2 139.05C200.51 139.05 202.39 137.17 202.39 134.86L202.39 53.84C202.39 49.77 199.09 46.47 195.02 46.47L160.97 46.47Z" fill="#EA5A76"/><path d="M146.58 46.47 103.32 46.47 69.27 46.47C65.2 46.47 61.9 49.77 61.9 53.84L61.9 134.87C61.9 137.18 63.78 139.06 66.09 139.06L99.13 139.06C101.44 139.06 103.32 137.18 103.32 134.87L103.32 99.42C103.32 87.47 113 77.79 124.95 77.79L124.95 77.79C136.9 77.79 146.58 87.47 146.58 99.42L146.58 134.86C146.58 137.17 148.46 139.05 150.77 139.05L183.81 139.05C186.12 139.05 188 137.17 188 134.86L188 53.84C188 49.77 184.7 46.47 180.63 46.47L146.58 46.47Z" fill="#F69DB1"/><path d="M169.93 46.47 124.95 46.47 144.58 21.22C145.28 20.33 146.29 19.86 147.31 19.82 148.42 19.78 149.55 20.25 150.3 21.22L169.93 46.47Z" fill="#FFD108"/><path d="M169.93 46.47C159.37 46.47 148.62 47.03 138.11 46.39 142.38 46.65 152.36 43.87 154.86 40.28 156.59 37.79 156.4 34.35 155.14 31.58 154.79 30.81 147.89 19.79 147.31 19.82 148.42 19.78 149.55 20.25 150.3 21.22L169.93 46.47Z" fill="#F0941D"/><g><path d="M198.66 152.48 166.75 152.48C164.76 152.48 163.15 150.87 163.15 148.88L163.15 123.75C163.15 121.76 164.76 120.15 166.75 120.15L198.66 120.15C200.65 120.15 202.26 121.76 202.26 123.75L202.26 148.88C202.25 150.87 200.64 152.48 198.66 152.48Z" fill="#9FB352"/><path d="M207.49 152.48 189.98 152.48C188.46 152.48 187.22 151.24 187.22 149.72L187.22 122.91C187.22 121.39 188.46 120.15 189.98 120.15L207.49 120.15C209.01 120.15 210.25 121.39 210.25 122.91L210.25 149.72C210.25 151.25 209.01 152.48 207.49 152.48Z" fill="#C4D962"/></g><path d="M55.64 159.29 22.6 159.29C20.29 159.29 18.41 157.41 18.41 155.1L18.41 122.06C18.41 119.75 20.29 117.87 22.6 117.87L55.64 117.87C57.95 117.87 59.83 119.75 59.83 122.06L59.83 155.1C59.83 157.41 57.95 159.29 55.64 159.29Z" fill="#00A896"/><path d="M74.54 159.29 44.58 159.29C42.36 159.29 40.57 157.49 40.57 155.28L40.57 121.88C40.57 119.66 42.37 117.87 44.58 117.87L74.54 117.87C76.76 117.87 78.55 119.67 78.55 121.88L78.55 155.28C78.55 157.49 76.76 159.29 74.54 159.29Z" fill="#07B69F"/></g></svg>