<svg width="138.28" height="113.13" viewBox="0 0 138.28 113.13" xmlns="http://www.w3.org/2000/svg" xmlns:xlink="http://www.w3.org/1999/xlink" xml:space="preserve" overflow="hidden"><defs></defs><g><g><path d="M117.99 49.84 0.11 65.4 0.11 113.13 118.27 113.13Z" fill="#656D70"/><path d="M71.29 95.87C23.51 105-6.73 105 46.74 82.29 93.33 62.51 19.82 70.09 0.11 72.37L0.11 113.13 108.95 113.13C112.79 111.21 115.87 109.42 118.24 107.75L118.18 94.37C108.95 91.72 91 92.1 71.29 95.87Z" fill="#C3C9CB" opacity="0.06"/><path d="M46.74 82.29C-6.73 105 23.51 105 71.29 95.87 91 92.1 108.95 91.72 118.19 94.39L117.99 49.85 0.11 65.4 0.11 72.37C19.82 70.09 93.33 62.51 46.74 82.29Z" fill="#717A7D" opacity="0.1"/></g><path d="M117.99 49.84 0.11 65.4 0.11 68.2 118 52.03Z" fill="#717A7D" opacity="0.1"/><g><path d="M0.29 49.62 118.2 32.53 118.2 0.07 0.07 0.07Z" stroke="#969690" stroke-width="0.1458" fill="#CAC7BD"/><path d="M118.2 0.07 60.45 0.07C77.98 0.56 87.63 12.03 84.56 21.62 79.85 36.35 58.33 39.11 35.12 44.57L118.21 32.53 118.21 0.07Z" fill="#B9B7AA" opacity="0.48"/></g><path d="M0.22 62.57 118.2 47.36 118.2 32.53 0.29 49.62Z" stroke="#757A7B" stroke-width="0.1458" fill="#9FA9AC"/><path d="M118.2 32.53 0.29 49.62 0.27 53.42 118.2 36.14Z" fill="#9FA9AC" opacity="0.15"/><path d="M0.22 62.57 118.2 47.36 118.2 45.59 0.23 61.03Z" fill="#B0BBBE"/><path d="M8.83 55.85C8.82 56.19 8.18 56.45 7.39 56.43 6.61 56.4 5.98 56.1 5.99 55.76 6 55.41 6.64 55.16 7.43 55.18 8.21 55.2 8.84 55.5 8.83 55.85Z" fill="#9FA9AC" opacity="0.15"/><path d="M4.08 52.46C4.07 52.67 3.69 52.82 3.23 52.8 2.76 52.78 2.39 52.6 2.4 52.4 2.41 52.19 2.79 52.04 3.26 52.06 3.71 52.07 4.09 52.25 4.08 52.46Z" fill="#9FA9AC" opacity="0.15"/><path d="M10.98 55.22C10.97 55.43 10.59 55.58 10.13 55.56 9.66 55.54 9.29 55.36 9.3 55.16 9.31 54.95 9.69 54.8 10.15 54.82 10.62 54.83 10.99 55.01 10.98 55.22Z" fill="#9FA9AC" opacity="0.15"/><g><path d="M20.22 60.57 138.2 45.36 138.06 48.56 20.22 63.62Z" stroke="#757A7B" stroke-width="0.1458" fill="#F5FBFD"/><path d="M82.51 55.66 72.26 56.97 72.21 53.87 82.31 52.57Z" stroke="#A31E22" stroke-width="0.1458" fill="#CE2027"/><path d="M102.79 53.07 92.54 54.38 92.49 51.28 102.6 49.98Z" stroke="#A31E22" stroke-width="0.1458" fill="#CE2027"/><path d="M61.73 58.31 52.02 59.55 51.9 56.49 61.62 55.24Z" stroke="#A31E22" stroke-width="0.1458" fill="#CE2027"/><path d="M42.11 60.82 33.32 61.94 33.2 58.9 42.01 57.76Z" stroke="#A31E22" stroke-width="0.1458" fill="#CE2027"/><path d="M24.28 63.1 20.22 63.62 20.22 60.57 24.21 60.06Z" stroke="#A31E22" stroke-width="0.1458" fill="#CE2027"/><path d="M138.2 45.36 20.22 60.57 20.22 62.2 138.13 47Z" fill="#C4C6C7" opacity="0.61"/></g><path d="M23.24 49.17C23.23 49.49 22.5 49.72 21.61 49.69 20.72 49.66 20 49.37 20.01 49.06 20.02 48.74 20.75 48.51 21.64 48.54 22.54 48.57 23.25 48.85 23.24 49.17Z" fill="#9FA9AC" opacity="0.15"/><path d="M50.69 46.85C50.68 47.17 49.95 47.4 49.06 47.37 48.17 47.34 47.45 47.06 47.46 46.74 47.47 46.42 48.2 46.19 49.09 46.22 49.98 46.25 50.69 46.53 50.69 46.85Z" fill="#9FA9AC" opacity="0.15"/><path d="M27.96 54.63C27.95 54.82 27.52 54.96 26.99 54.94 26.46 54.92 26.03 54.75 26.04 54.56 26.05 54.37 26.48 54.23 27.01 54.25 27.54 54.27 27.96 54.44 27.96 54.63Z" fill="#9FA9AC" opacity="0.15"/><path d="M21.48 54.34C21.47 54.53 21.04 54.67 20.51 54.65 19.98 54.63 19.55 54.46 19.56 54.27 19.57 54.08 20 53.94 20.53 53.96 21.06 53.98 21.49 54.15 21.48 54.34Z" fill="#9FA9AC" opacity="0.15"/><path d="M59.51 45.13C59.49 45.64 58.55 46.02 57.4 45.98 56.25 45.94 55.33 45.5 55.34 44.99 55.36 44.48 56.3 44.1 57.45 44.14 58.61 44.18 59.53 44.62 59.51 45.13Z" fill="#9FA9AC" opacity="0.15"/><path d="M74.23 42.26C74.22 42.58 73.63 42.82 72.9 42.79 72.18 42.76 71.6 42.49 71.61 42.17 71.62 41.85 72.21 41.61 72.94 41.64 73.66 41.66 74.24 41.94 74.23 42.26Z" fill="#9FA9AC" opacity="0.15"/><path d="M61.75 43.48C61.74 43.8 61.15 44.04 60.42 44.01 59.7 43.98 59.12 43.71 59.13 43.39 59.14 43.07 59.73 42.83 60.46 42.86 61.18 42.88 61.75 43.16 61.75 43.48Z" fill="#9FA9AC" opacity="0.15"/><path d="M73.49 49.32C73.47 49.83 72.53 50.21 71.38 50.17 70.23 50.13 69.31 49.69 69.32 49.18 69.34 48.67 70.28 48.29 71.43 48.33 72.59 48.37 73.51 48.81 73.49 49.32Z" fill="#9FA9AC" opacity="0.15"/><path d="M66.7 49.35C66.69 49.54 66.34 49.68 65.91 49.67 65.48 49.66 65.14 49.49 65.14 49.3 65.15 49.11 65.5 48.97 65.93 48.98 66.36 49 66.7 49.16 66.7 49.35Z" fill="#9FA9AC" opacity="0.15"/><rect x="0.84" y="0.32" width="116.81" height="91.29" fill="none"/><g opacity="0.25"><g><path d="M19.62 88.97C18.76 88.96 17.97 89.03 17.27 89.15 16.8 89.02 16.31 88.91 15.78 88.82 13.12 88.38 10.87 88.68 10.75 89.5 10.63 90.32 12.69 91.33 15.35 91.78 16.59 91.98 17.72 92.02 18.61 91.93 18.93 91.95 19.26 91.97 19.61 91.97 22.3 91.99 24.49 91.33 24.49 90.51 24.48 89.67 22.31 88.99 19.62 88.97Z" fill="#4C5663"/></g></g></g></svg>