<svg width="160.46" height="128.33" viewBox="0 0 160.46 128.33" xmlns="http://www.w3.org/2000/svg" xmlns:xlink="http://www.w3.org/1999/xlink" xml:space="preserve" overflow="hidden"><defs></defs><g><path d="M108.18 75.45C107.74 74.84 106.55 73.41 105.84 73.58 105.13 73.75 104.31 74.53 103.8 75.08 103.8 75.08 103.43 75.51 103.32 76.7 103.22 77.89 103.32 79.04 103.32 79.04 104.2 79.65 106.34 79.07 106.34 79.07L106.41 75.44C106.96 75.93 108.62 76.07 108.18 75.45Z" fill="#FFA581"/><path d="M110.08 91.59C109.7 91.37 108.93 89.54 107.84 89.2 106.75 88.86 105.36 89.96 104.92 90.4 104.48 90.83 104.7 91.31 105.44 91.11 106.18 90.91 107.13 90.74 107.13 90.74L107.13 96.44C107.13 96.44 109 97.05 110.9 95.98 110.9 95.98 110.25 94.37 110.15 93.18 110.05 91.99 110.08 91.59 110.08 91.59Z" fill="#FCCDA2"/><path d="M111.97 103.73C111.94 103.68 111.88 103.67 111.83 103.7 111.82 103.71 111.81 103.72 111.81 103.73 111.24 103.34 110.26 103.11 109.99 102.2 109.71 101.25 108.29 99.82 108.29 99.82L106.39 99.43C105.57 100.84 104.08 102.27 103.81 103.29 103.78 103.4 103.77 103.5 103.76 103.59 102.97 104.49 102.82 105.19 102.61 106.26 102.53 106.67 102.44 107.13 102.29 107.68 101.68 110 101.55 110.35 101.54 110.37 101.52 110.42 101.55 110.48 101.6 110.5 101.61 110.5 101.62 110.51 101.64 110.51 101.68 110.51 101.72 110.49 101.73 110.45 101.74 110.44 101.87 110.1 102.48 107.74 102.63 107.19 102.72 106.72 102.8 106.31 102.99 105.35 103.12 104.69 103.76 103.9 103.85 104.53 104.32 104.98 104.15 105.87 104.02 106.55 104.03 107.04 104.18 107.51 104.05 108.55 103.61 109.18 102.83 109.49 102.78 109.51 102.75 109.57 102.77 109.62 102.79 109.66 102.82 109.68 102.86 109.68 102.87 109.68 102.89 109.68 102.9 109.67 103.67 109.36 104.13 108.78 104.32 107.87 104.42 108.07 104.54 108.28 104.69 108.5 105.15 109.17 105.02 109.95 105.18 110.48 105.08 110.97 104.93 111.36 104.8 111.72 104.69 112.02 104.59 112.3 104.52 112.61 104.3 113.58 104.58 115.32 104.59 115.4 104.6 115.45 104.64 115.49 104.69 115.49 104.7 115.49 104.7 115.49 104.71 115.49 104.77 115.48 104.8 115.43 104.79 115.37 104.79 115.35 104.51 113.59 104.72 112.66 104.78 112.37 104.89 112.09 104.99 111.8 105.1 111.49 105.22 111.17 105.32 110.78 105.35 110.82 105.39 110.87 105.43 110.9 105.78 111.2 106.45 111.07 107.08 110.72 107.08 111.29 107.07 111.96 107.01 112.68 106.96 113.35 106.89 113.82 106.83 114.2 106.7 115 106.64 115.41 107.02 116.35 107.04 116.39 107.07 116.41 107.11 116.41 107.12 116.41 107.14 116.41 107.15 116.4 107.2 116.38 107.23 116.32 107.21 116.27 106.85 115.37 106.91 115.01 107.03 114.22 107.09 113.84 107.16 113.36 107.21 112.69 107.27 111.91 107.28 111.19 107.28 110.59 107.54 110.42 107.79 110.22 108 109.99 108.28 109.69 108.53 109.53 108.78 109.44 109.32 111.15 109.48 111.69 109.05 113.12 108.51 114.93 108.69 115.7 108.7 115.73 108.71 115.78 108.75 115.81 108.8 115.81 108.81 115.81 108.82 115.81 108.82 115.81 108.87 115.8 108.91 115.74 108.89 115.69 108.89 115.68 108.72 114.92 109.24 113.18 109.69 111.69 109.51 111.09 108.97 109.38 109.32 109.3 109.65 109.32 109.97 109.25 110.27 109.18 110.33 108.57 110.39 107.87 110.57 108.37 110.79 108.81 111 109.23 111.36 109.96 111.71 110.65 111.77 111.49 111.89 113.27 111.13 114.67 111.12 114.68 111.09 114.73 111.11 114.79 111.16 114.82 111.18 114.83 111.19 114.83 111.21 114.83 111.25 114.83 111.28 114.81 111.3 114.78 111.33 114.72 112.1 113.32 111.97 111.47 111.91 110.59 111.55 109.88 111.18 109.13 110.91 108.59 110.63 108.03 110.44 107.37 110.51 106.83 110.62 106.3 110.88 105.98 111.39 105.39 111.96 104.72 112.03 104.23 113.16 106.18 113.05 107.64 112.74 108.53 112.72 108.58 112.75 108.64 112.8 108.66 112.81 108.66 112.82 108.67 112.83 108.67 112.87 108.67 112.91 108.64 112.93 108.6 113.31 107.62 113.42 105.96 111.97 103.73Z" fill="#180800"/><path d="M127.54 22.25C127.52 22.17 127.44 22.12 127.36 22.14 127.28 22.16 127.23 22.24 127.25 22.32 128.15 26.26 122.89 28.73 121.43 29.34 122.18 27.8 122.35 26.4 122.51 25.11 122.6 24.38 122.68 23.69 122.87 23.04 122.89 22.96 122.85 22.87 122.76 22.85 122.68 22.83 122.59 22.87 122.57 22.96 122.38 23.64 122.29 24.34 122.2 25.08 121.95 27.12 121.67 29.42 119.02 32.17 116.65 34.62 115.92 35.2 114.92 36.01 114.39 36.43 113.79 36.92 112.83 37.77 110.84 39.54 108.05 42.02 107.19 45.17 106.95 42.89 106.3 39.64 105.6 36.7 106.02 34.81 106.43 33.02 108.14 30.69 109.72 28.54 111.24 25.39 110.82 23.55 110.44 21.89 110.82 17.85 110.82 17.81 110.83 17.73 110.77 17.65 110.68 17.64 110.6 17.63 110.52 17.69 110.51 17.78 110.49 17.95 110.13 21.91 110.51 23.62 110.91 25.36 109.42 28.41 107.88 30.51 106.32 32.64 105.82 34.32 105.42 36.03 105.08 34.66 104.74 33.38 104.44 32.34 103.19 28.08 102.93 21.02 103.88 17.24 103.9 17.16 103.85 17.08 103.77 17.05 103.69 17.03 103.6 17.08 103.58 17.16 102.62 20.98 102.88 28.11 104.14 32.42 105.24 36.19 106.82 43.07 106.95 46.31 106.89 46.83 106.89 47.37 106.96 47.93 106.96 47.95 106.98 47.97 106.99 47.99 107.01 50.02 106.97 52.43 106.94 53.86 106.45 51.9 105.4 50.17 103.86 48.05 101.96 45.44 97.37 40.54 95.46 39.29 93.73 38.15 92.51 34.7 91.96 33.02 91.96 33.02 91.96 33.02 91.96 33.02 91.3 30.74 91.58 30.41 92 29.92 92.3 29.57 92.66 29.14 92.85 28.04 93.32 25.27 93.36 23.47 92.18 21.89 92.13 21.82 92.03 21.81 91.97 21.86 91.9 21.91 91.89 22.01 91.94 22.07 93.05 23.56 93.02 25.3 92.56 27.99 92.39 29.01 92.06 29.39 91.78 29.73 91.41 30.17 91.17 30.53 91.33 31.59 91.1 31.24 90.83 30.9 90.54 30.55 90.47 30.32 90.02 28.77 90.32 27.28L90.35 27.15C90.68 25.53 90.87 24.56 89.11 21.43 89.07 21.36 88.98 21.33 88.9 21.37 88.83 21.41 88.8 21.5 88.84 21.58 90.55 24.61 90.36 25.54 90.05 27.09L90 27.18C89.78 28.25 89.93 29.34 90.07 30 90 29.92 89.94 29.85 89.87 29.77 89.17 28.98 88.45 28.16 87.84 27.16 87.52 26.64 87.21 26.19 86.93 25.8 86.01 24.49 85.39 23.63 85.74 21.49 85.75 21.41 85.7 21.33 85.61 21.32 85.53 21.31 85.45 21.36 85.44 21.45 85.08 23.71 85.75 24.66 86.69 25.98 86.96 26.37 87.27 26.81 87.59 27.32 88.22 28.34 88.98 29.21 89.66 29.97 90.52 30.94 91.27 31.79 91.57 32.72 92.06 34.23 93.36 38.24 95.32 39.52 97.21 40.76 101.76 45.62 103.64 48.21 105.74 51.09 106.89 53.21 106.99 56.21 107.09 59.33 106.99 100.2 106.99 100.61 106.99 100.69 107.06 100.76 107.14 100.76L107.14 100.76C107.22 100.76 107.29 100.69 107.29 100.61 107.29 100.2 107.39 59.32 107.29 56.2 107.28 55.85 107.25 55.5 107.21 55.17 107.23 55.15 107.24 55.12 107.24 55.09 107.24 55.03 107.39 49.45 107.29 46.37 107.29 46.34 107.29 46.31 107.29 46.28 107.69 42.75 110.74 40.03 113.05 37.98 114 37.13 114.6 36.66 115.12 36.23 116.13 35.42 116.86 34.83 119.25 32.37 120.14 31.45 120.77 30.58 121.22 29.75 121.86 29.51 128.6 26.86 127.54 22.25Z" fill="#1B0B00"/><path d="M153.02 93.9C152.29 94.28 151.61 94.83 150.99 95.49 150.99 95.49 150.98 95.5 150.97 95.51 149.72 96.8 148.99 98.43 148.99 98.43 145.68 106.93 133.77 110.86 133.77 110.86 133.6 110.89 133.43 110.91 133.26 110.92 131.04 111.05 128.93 109.36 128.88 108.98 128.84 108.63 132.91 104.77 133.94 103.8 133.94 103.8 133.97 103.78 134.02 103.73 134.12 103.63 134.18 103.58 134.18 103.58 134.18 103.58 133.76 102.43 132.97 99.94 132.93 99.81 132.89 99.69 132.85 99.56 131.98 96.81 131.17 89.37 131.17 89.37 131.17 89.37 128.01 93.44 121.09 95.07 114.16 96.7 110.9 95.99 110.9 95.99 109.88 94.87 110.09 91.61 110.09 91.61 110.09 91.61 112.89 90.64 115.39 89.88 117.89 89.11 121.65 87.79 122.72 86.47 123.25 85.81 124.43 84.27 125.63 82.74 126.49 81.64 127.38 80.55 128.06 79.79 128.33 79.49 128.57 79.24 128.76 79.06 130.8 80.7 133.18 81.92 136.17 82.32 137.88 82.55 139.77 82.52 141.92 82.14 142.15 82.1 142.38 82.05 142.6 81.99 144.38 81.57 145.82 80.76 146.98 79.77L146.98 79.77C146.98 79.77 147.22 79.85 147.61 80.02 148.62 80.48 150.58 81.64 151.65 83.92 152.95 86.72 153.02 92.63 153.02 93.9Z" fill="#F9D980"/><path d="M88.08 127.42 132.84 127.42C132.84 127.42 133.37 123.43 128.69 124.58 128.69 124.58 127.97 123.07 126.61 122.82 125.25 122.57 124.12 123.99 124.12 123.99 124.12 123.99 124.5 122.23 122.53 122.03 120.56 121.83 118.7 122.83 118.7 122.83 118.7 122.83 119.43 119.11 116.09 118.84 116.09 118.84 117.22 116.6 115.41 115.11 113.6 113.62 112.98 114.52 112.98 114.52 112.98 114.52 113.48 112.97 111.47 113.01 109.46 113.06 108.81 114.38 108.81 114.38 108.81 114.38 107.86 112.82 106.31 112.94 104.75 113.07 104.7 114.78 104.7 114.78 104.7 114.78 103.5 112.42 101.64 113.75 99.78 115.08 100.1 117.31 100.1 117.31 100.1 117.31 98.78 116.77 97.49 117.81 96.2 118.85 96.47 122.24 96.47 122.24 96.47 122.24 96.06 120.75 93.38 121.29 90.7 121.83 90.42 125.61 90.42 125.61 90.42 125.61 90.09 124.41 88.66 124.58 87.23 124.75 88.08 127.42 88.08 127.42Z" fill="#682C2C"/><path d="M133.94 103.78 133.94 103.78 133.94 103.78Z" fill="#561818"/><path d="M139.41 116.09C139.41 116.09 139.38 116.12 139.33 116.19 139.73 117.88 139.12 122.13 138.8 122.87 138.44 123.68 136.97 125.52 137.22 125.88 137.47 126.23 142.47 122.97 142.47 122.97L142.91 120.94C142.9 119.75 144 114.21 144 114.21 142.06 114.01 139.41 116.09 139.41 116.09Z" fill="#74ADA7"/><path d="M142.93 121.14C142.06 122.57 140.56 126.28 140.83 126.64 141.1 127 142.07 127.9 144.82 128.02 147.57 128.15 147.62 126.84 147.77 126.53 147.92 126.22 147.48 121.89 147.48 121.89L147.48 121.89C145.53 122.63 143.13 121.62 142.93 121.14Z" fill="#8CD3CF"/><path d="M160.39 100.23C160.07 103.09 158.74 106.46 157.29 109.47 154.75 114.77 147.72 121.79 147.72 121.79 147.64 121.83 147.56 121.86 147.48 121.88 146.88 122.11 146.23 122.17 145.62 122.13 144.25 122.05 143.07 121.46 142.93 121.12 142.91 121.09 142.91 121.02 142.91 120.93 142.9 119.74 144 114.2 144 114.2 142.06 114 139.41 116.09 139.41 116.09 139.41 116.09 139.39 116.12 139.33 116.19 139.02 116.57 137.68 118.12 133.94 121.13 129.58 124.65 123.33 126.43 121.44 125.72 120.87 125.5 120.23 125.16 119.72 124.61 118.51 123.33 117.97 120.98 120.57 116.7 124.29 110.59 130.14 107.02 133.93 103.78 132.9 104.75 128.83 108.6 128.87 108.96 128.92 109.37 131.36 111.3 133.76 110.85 133.76 110.85 137.02 109.78 140.6 107.54 143.12 105.97 145.8 103.82 147.62 101.05 147.64 101.01 147.67 100.97 147.69 100.93 148.2 100.14 148.64 99.31 148.99 98.42 148.99 98.42 149.71 96.79 150.97 95.5 150.97 95.5 150.98 95.49 150.99 95.48 151.61 94.82 152.29 94.27 153.02 93.89 154.79 92.97 156.83 93.03 158.98 94.97 160.29 96.18 160.63 98.06 160.39 100.23Z" fill="#DE4B10"/><path d="M74.2 39.87C74.2 38.72 74.54 34.51 77.87 31.52 81.2 28.53 86.7 28.19 88.8 28.6 88.8 28.6 86.97 27.54 87.71 27.24 88.46 26.94 89.34 28.53 89.34 28.53 89.34 28.53 90.15 26.49 90.77 27.2 91.38 27.92 89.82 28.87 89.82 28.87 89.82 28.87 94.57 30.16 97.43 33.01 100.28 35.86 101.29 40.83 100.15 44.35 99 47.87 100.01 47.94 98.76 50.32 97.5 52.7 96.28 57.11 95.6 59.83 94.92 62.55 96.28 67.71 89.96 70.56 83.65 73.41 72.71 73.21 68.57 67.64 64.43 62.07 65.45 55.28 66.53 51.82 67.62 48.36 70.94 46.59 72.1 44.89 73.24 43.2 74.2 39.87 74.2 39.87Z" fill="#2E241B"/><path d="M154.59 65.68C153.64 65.54 152.47 66.59 151.84 67.25 151.57 67.59 151.38 67.77 151.38 67.77 151.38 67.77 150.6 65.45 149.14 63.5 147.68 61.55 145.73 60.38 145.73 60.38 145.73 60.38 146.54 64.55 145.48 64.55 144.41 64.55 142.22 60.38 142.22 60.38 141.84 61.79 142.63 64.96 142.63 64.96 142.63 64.96 141.76 64.86 140.29 63.79 138.81 62.72 138.05 60.38 138.05 60.38 138.05 60.38 137.39 64.55 136.83 64.4 136.27 64.25 136.02 60.38 136.02 60.38L135 64.55C135 64.55 134.19 63.84 133.78 62.09 133.37 60.34 133.17 59.36 133.17 59.36 133.17 59.36 130.47 61.96 129.04 63.5 127.61 65.04 127.56 66.49 127.56 66.49 127.56 66.49 127.44 66.4 127.25 66.22 127.33 67.97 127.17 69.45 126.59 70.57 125.83 72.05 124.71 75.46 128.02 78.41 128.26 78.63 128.51 78.84 128.77 79.04 130.81 80.68 133.19 81.9 136.18 82.3 137.89 82.53 139.78 82.5 141.92 82.12 142.15 82.08 142.38 82.03 142.6 81.98 144.38 81.55 145.82 80.75 146.97 79.76 149.62 77.49 150.74 74.24 150.88 72.38 150.88 72.38 152.97 73.37 154.6 70.88 156.23 68.39 155.97 65.88 154.59 65.68Z" fill="#FCCDA2"/><path d="M151.84 67.25C151.56 67.55 151.38 67.77 151.38 67.77 151.38 67.77 151.57 67.59 151.84 67.25Z" fill="#892922"/><path d="M148.94 53.15C145.83 51.11 142.37 51.47 142.37 51.47 142.37 51.47 143.85 50.15 143.34 49.72 142.83 49.28 141.51 51.32 141.51 51.32 141.51 51.32 140.19 48.82 139.27 49.18 138.35 49.54 139.68 51.06 139.68 51.06 136.62 50.81 131.74 52.03 128.48 55.13 125.22 58.24 125.32 61.47 125.78 63.49 126.1 64.9 126.84 65.8 127.26 66.21 127.44 66.39 127.57 66.48 127.57 66.48 127.57 66.48 127.62 65.03 129.05 63.49 130.48 61.95 133.18 59.35 133.18 59.35 133.18 59.35 133.38 60.33 133.79 62.08 134.2 63.83 135.01 64.54 135.01 64.54L136.03 60.37C136.03 60.37 136.28 64.24 136.84 64.39 137.4 64.54 138.06 60.37 138.06 60.37 138.06 60.37 138.82 62.71 140.3 63.78 141.78 64.85 142.64 64.95 142.64 64.95 142.64 64.95 141.85 61.78 142.23 60.37 142.23 60.37 144.42 64.54 145.49 64.54 146.56 64.54 145.74 60.37 145.74 60.37 145.74 60.37 147.7 61.54 149.15 63.49 150.61 65.44 151.39 67.76 151.39 67.76 151.39 67.76 151.57 67.54 151.85 67.24 152.44 66.5 153.39 64.97 153.53 62.77 153.73 59.57 152.05 55.19 148.94 53.15Z" fill="#FF7A64"/><path d="M128.87 108.96C127.49 109.21 124.85 109.77 124.74 110.39 124.64 111 127.03 110.39 127.03 110.39 127.03 110.39 123.92 112.73 124.13 113.55 124.33 114.36 127.24 112.33 127.24 112.33 127.24 112.33 124.18 114.57 124.44 115.03 124.69 115.49 127.7 113.76 127.7 113.76 127.7 113.76 126.21 115.03 126.5 115.39 126.78 115.75 129.18 114.32 129.18 114.32 129.18 114.32 127.86 115.39 128.52 115.7 129.18 116.01 130.92 114.78 131.88 113.66 132.84 112.54 133.26 110.92 133.26 110.92L133.26 110.92C131.03 111.04 128.92 109.34 128.87 108.96Z" fill="#FCCDA2"/><path d="M90.02 23.41C86.61 23.91 84.68 23.23 84.14 22.43 84.13 22.42 84.12 22.41 84.12 22.39 83.61 21.58 84.43 20.66 84.43 20.66 82.39 21.68 78.93 21.17 79.64 18.72 80.35 16.28 83.92 14.54 87.08 14.75 90.24 14.95 90.52 16.79 90.52 16.79 90.52 16.79 94.44 15.5 96.33 17.79 96.37 17.84 96.42 17.89 96.46 17.95 98.27 20.45 93.48 22.9 90.02 23.41Z" fill="#53C18A"/><path d="M126.99 17.09C123.53 19.74 115.99 19.74 106.19 19.16 96.98 18.61 92.77 14.39 92.9 11.26 92.9 11.06 92.93 10.87 92.97 10.68 93.68 7.52 97.25 7.22 100.6 7.83 100.6 7.83 98.17 6.51 98.47 5.18 98.78 3.86 99.49 1.11 108.81 0.19 118.14-0.73 123.93 1.92 125.53 4.77 127.12 7.62 123.83 8.33 123.83 8.33 125.92 8.79 128.05 11.17 128.4 13.51 128.6 14.83 128.24 16.14 126.99 17.09Z" fill="#53C18A"/><path d="M130.66 21.98C130.35 23.61 121.7 25.68 119.46 23.58 119.12 23.26 119.06 22.9 119.22 22.54 119.79 21.16 123.34 19.66 125.54 19.48 127.86 19.28 130.09 20.03 130.59 21.23 130.68 21.46 130.71 21.71 130.66 21.98Z" fill="#53C18A"/><path d="M131.54 15.56C130.32 17.68 133 18.62 136.67 17.5 140.34 16.38 140.03 14.85 138.91 14.24 137.79 13.63 133.24 12.61 131.54 15.56Z" fill="#1CA24E"/><path d="M132.08 16.58C129.55 16.93 128.72 17.5 129.02 18.41 129.33 19.33 131.69 19.08 133.71 18.41 135.73 17.75 133.43 16.39 132.08 16.58Z" fill="#53C18A"/><path d="M100.47 115.73C97.97 115.38 97.48 117.99 98.7 119.3 99.92 120.61 102.28 120.3 103.27 118.59 104.28 116.87 102.04 115.95 100.47 115.73Z" fill="#561818"/><path d="M108.25 113.25C106.17 113.78 105.35 114.23 105.76 115.45 106.17 116.67 109.23 116.5 110.45 115.74 111.68 114.97 110.24 112.74 108.25 113.25Z" fill="#561818"/><path d="M114.6 113.25C111.86 113.54 112.77 117.76 114.6 117.56 116.43 117.35 116.77 113.01 114.6 113.25Z" fill="#561818"/><path d="M110.52 118.23C108.44 118.55 108.08 119.59 108.28 120.54 108.48 121.49 111.74 122.17 112.62 120.54 113.51 118.91 111.66 118.06 110.52 118.23Z" fill="#561818"/><path d="M100.8 112.73C98.93 113.03 99.01 115.14 100.8 115.79 102.59 116.43 103.4 115.83 103.8 114.76 104.21 113.68 102.07 112.53 100.8 112.73Z" fill="#561818"/><path d="M102.1 121.14C98.94 121.15 98.98 122.72 99.42 123.87 99.86 125.02 102.09 125.64 104.3 124.58 106.52 123.53 105.84 121.12 102.1 121.14Z" fill="#561818"/><path d="M95.72 121.14C93.89 121.16 92.8 122.85 93.89 124.08 94.98 125.3 97.22 125.57 98.51 124.08 99.79 122.58 97.76 121.12 95.72 121.14Z" fill="#561818"/><path d="M88.86 124C85.39 123.92 84.58 124.53 84.11 125.9 83.63 127.26 86.15 128.18 88.86 127.42 91.58 126.65 90.17 124.03 88.86 124Z" fill="#561818"/><path d="M106.24 117.91C104.03 118.77 103.97 119.68 104.31 120.68 104.65 121.68 107.15 121.45 108.17 120.05 109.18 118.65 107.42 117.44 106.24 117.91Z" fill="#561818"/><path d="M114.6 117.55C113.14 118.66 113.15 119.99 114.49 120.74 115.82 121.49 117.59 120.47 117.32 119.14 117.04 117.83 115.55 116.83 114.6 117.55Z" fill="#561818"/><path d="M113.75 120.11C112.06 120.56 111.33 122.43 112.35 124 113.37 125.57 115.02 126.12 116.1 125.1 117.18 124.07 115.9 119.54 113.75 120.11Z" fill="#561818"/><path d="M107.14 114.41C106.01 114.26 104.49 113.26 105.65 112.09 106.81 110.92 109.08 112 109.41 112.89 109.73 113.77 108.96 114.64 107.14 114.41Z" fill="#561818"/><path d="M104.15 111.51C102.25 111.6 102.63 113.86 104.15 114.38 105.67 114.9 106.67 113.84 106.31 112.94 105.94 112.05 105.52 111.44 104.15 111.51Z" fill="#561818"/><path d="M110.55 114.38C111.73 115.5 113.28 114.02 113.5 113.28 113.72 112.53 113.72 111.3 111.89 111.51 110.07 111.71 109.42 113.31 110.55 114.38Z" fill="#561818"/><path d="M116.91 119.55C115.18 120.62 115.33 123.19 116.49 123.73 117.65 124.27 120.16 122.68 120.23 121.13 120.3 119.59 118.57 118.52 116.91 119.55Z" fill="#561818"/><path d="M81.21 127.42 70.62 127.42C70.62 127.42 70.59 123.85 70.6 121.05 70.6 120.1 70.61 119.25 70.62 118.65 71.9 119.01 73.63 119.38 75.79 119.59L75.24 122.26 75.15 122.66 81.21 127.42Z" fill="#F9D980"/><path d="M100.1 127.42 88.08 127.42C88.08 127.42 87.67 124.59 87.25 122.18 87.11 121.38 86.97 120.63 86.84 120.04 88.07 120.05 89.77 119.87 91.81 119.17L91.85 122.01 91.85 122.3 100.1 127.42Z" fill="#F9D980"/><path d="M95.38 117.55C94.1 118.28 92.9 118.8 91.81 119.18 91.23 119.38 90.67 119.54 90.15 119.66 88.84 119.97 87.72 120.06 86.84 120.05 85.4 120.04 84.59 119.76 84.59 119.76L81.06 100.03 81.02 100.35 81.02 100.37 78.89 119.76C77.77 119.74 76.74 119.68 75.79 119.59 73.62 119.38 71.89 119.01 70.62 118.65 68.8 118.13 67.89 117.62 67.89 117.62 67.89 117.62 71.23 97.74 72.92 88.16 72.94 88.06 72.95 87.97 72.97 87.87 73.26 86.26 73.49 84.97 73.65 84.14 73.66 84.07 73.67 84 73.69 83.94 73.78 83.48 73.84 83.21 73.87 83.13 73.87 83.13 82.43 85.51 89.96 83L90.12 84.03 90.15 84.23 90.93 89.18 90.97 89.47 95.38 117.55Z" fill="#03496F"/><path d="M66.03 86.67C65.11 87.26 62.67 90.07 62.97 90.73 63.28 91.39 64.91 89.56 64.91 89.56 64.91 89.56 63.43 91.6 63.89 92.06 64.35 92.52 66.03 90.46 66.03 90.46 66.03 90.46 65.19 92.63 65.56 92.98 65.93 93.34 67.2 90.89 67.2 90.89 67.2 90.89 66.69 93.18 67.2 93.39 67.71 93.59 68.78 89.83 68.78 89.83 68.78 89.83 69.7 92.01 70.16 91.76 70.62 91.51 69.2 87.88 69.2 87.88L69.2 87.88C69.14 88.02 69.11 88.1 69.11 88.1 66.93 88.15 66.03 86.67 66.03 86.67Z" fill="#FFA581"/><path d="M103.8 75.09C103.8 75.09 94.77 74.1 94.36 73.69 93.95 73.28 91.3 64.65 90.29 63.5 89.27 62.35 83.84 62.42 83.84 62.42 83.84 62.42 83.09 63.23 81.87 63.17 80.65 63.1 80.44 62.12 80.44 62.12 79.49 62.08 75.42 61.93 73.92 63.5 72.43 65.07 69.71 68.86 68.15 74.4 66.59 79.94 66.03 86.68 66.03 86.68 66.03 86.68 66.93 88.16 69.1 88.09 69.1 88.09 69.13 88.01 69.19 87.87 69.89 86.19 74.51 75.14 75.14 72.95L73.85 83.14C73.85 83.14 82.41 85.52 89.94 83L89.4 78.04C89.4 78.04 90.15 80.55 95.31 80.42 100.47 80.28 103.32 79.06 103.32 79.06 103.32 79.06 103.22 77.91 103.32 76.72 103.43 75.52 103.8 75.09 103.8 75.09Z" fill="#8CD3CF"/><path d="M80.54 58.68C80.79 60.11 81.05 61.42 80.45 62.12 80.45 62.12 80.65 63.1 81.88 63.17 83.1 63.24 83.85 62.42 83.85 62.42 83.85 62.42 84.38 60.6 84.81 59.77 83.2 59.55 81.78 59.18 80.54 58.68Z" fill="#EA8164"/><path d="M98.64 43.81C98.03 42.04 96.06 40.96 96.06 40.96 96.06 40.96 94.5 44.08 93.96 44.08 93.42 44.08 93.12 39.8 92.9 39.73 92.67 39.66 89.75 42.58 88.94 42.58 88.13 42.58 89.42 39.66 89.42 39.66 89.42 39.66 87.93 41.9 87.11 41.83 86.3 41.76 86.13 37.76 86.13 37.76 86.13 37.76 81.47 40.14 80.72 40.14 79.97 40.14 81.64 36.2 81.64 36.2 81.64 36.2 79.3 37.76 78.01 38.98 76.72 40.2 75.7 41.76 75.7 41.76 75.36 40.33 74 38.43 72.1 39.66 70.2 40.88 70.17 44.47 71.03 46.07 71.9 47.67 73.93 47.4 73.93 47.4 73.93 47.4 72.78 50.88 75.08 54.3 76.41 56.28 78.18 57.72 80.54 58.67 81.79 59.17 83.2 59.54 84.8 59.76 85.4 59.85 86.03 59.91 86.69 59.96 92.39 60.37 94.97 58.81 96.84 56.7 98.71 54.6 98.64 51.82 98.64 49.64 98.64 47.48 99.25 45.58 98.64 43.81Z" fill="#FFA581"/><path d="M79.98 42.28C79.65 42.1 80.41 41.34 81.84 41.24 83.27 41.14 84.82 41.88 85.51 42.44 86.2 43 86.12 43.99 86.12 43.99 86.12 43.99 84.29 43.3 83.27 42.82 82.25 42.33 79.98 42.28 79.98 42.28Z" fill="#2E241B"/><path d="M91.7 45.46C93.76 45.74 95.72 46.25 96.36 46.35 97 46.45 97.02 46.22 96.97 45.9 96.92 45.58 95.49 44.74 94.22 44.61 92.95 44.49 91.7 45.46 91.7 45.46Z" fill="#2E241B"/><path d="M83.22 45.49C83.83 45.56 84.11 48.54 83.22 48.64 82.33 48.74 82.61 45.42 83.22 45.49Z" fill="#1B0A00"/><path d="M93.86 47.9C94.39 47.85 94.6 50.47 93.86 50.68 93.12 50.88 93.05 47.98 93.86 47.9Z" fill="#1B0A00"/><path d="M89.74 48.12C89.51 48.94 89.71 50.6 89.94 51.41 90.17 52.22 89.74 52.81 89.2 52.68 88.67 52.55 88.31 51.64 88.31 50.8 88.31 49.97 89.74 48.12 89.74 48.12Z" fill="#EA8164"/><path d="M78.69 49.1C77.78 50.16 81.47 52.82 82.36 51.62 83.24 50.42 79.3 48.39 78.69 49.1Z" fill="#FF8164"/><path d="M92.72 53.17C92.98 54.33 96.95 53.6 96.62 52.36 96.28 51.11 92.41 51.82 92.72 53.17Z" fill="#FF8164"/><path d="M129.56 65.75C131.11 65.85 133.02 66.54 133.58 66.79 134.14 67.04 134.14 66.26 133.38 65.75 132.62 65.24 131.93 64.91 131.19 64.99 129.97 65.12 129.56 65.75 129.56 65.75Z" fill="#FC6551"/><path d="M139.7 67.76C139.27 67.28 140.39 66.18 141.94 66.08 143.49 65.98 144.61 66.78 145.07 67.24 145.53 67.71 145.53 68.32 145.53 68.32 145.53 68.32 143.54 67.29 142.35 67.2 141.15 67.1 139.7 67.76 139.7 67.76Z" fill="#FC6551"/><path d="M141.55 69.11C142.19 69.24 141.68 71.5 140.89 71.43 140.1 71.35 140.92 68.99 141.55 69.11Z" fill="#1B0A00"/><path d="M130.99 68.02C131.72 68.05 131.12 70.41 130.51 70.27 129.89 70.13 130.3 67.99 130.99 68.02Z" fill="#1B0A00"/><path d="M135.32 69.8C135.24 70.46 134.15 72.02 133.74 72.58 133.33 73.14 133.71 73.88 134.53 73.65 135.35 73.42 135.52 72.75 135.57 71.75 135.62 70.74 135.32 69.8 135.32 69.8Z" fill="#F1A771"/><path d="M127.65 71.13C126.46 72.47 129.74 73.98 130.4 73.04 131.06 72.09 128.24 70.46 127.65 71.13Z" fill="#FF9E88"/><path d="M142.19 73.8C142.64 75.2 146.44 73.93 145.98 72.86 145.53 71.79 141.83 72.7 142.19 73.8Z" fill="#FF9E88"/><path d="M138.51 78.51C138.49 78.53 138.47 78.55 138.45 78.56 137.4 79.45 134.93 79.19 134.07 79.04 133.7 78.98 133.45 78.63 133.27 78.2 133.03 77.63 132.92 76.9 132.83 76.48 132.68 75.74 132.63 74.42 132.63 74.42 133.1 74.67 133.79 74.99 134.56 75.21 135.41 75.45 136.37 75.56 137.29 75.3 137.33 75.29 137.38 75.28 137.42 75.26 139.06 74.8 139.39 74.46 139.61 74.53 139.82 74.61 139.51 77.56 138.51 78.51Z" fill="#FF664D"/><path d="M137.41 75.26C137.41 75.61 137.38 76.12 137.2 76.19 136.92 76.29 134.73 76.29 134.58 76.19 134.47 76.12 134.51 75.55 134.55 75.2 135.4 75.44 136.36 75.55 137.28 75.29 137.32 75.29 137.37 75.27 137.41 75.26Z" fill="#FFFFFF"/><path d="M138.51 78.51C138.49 78.53 138.47 78.55 138.45 78.56 137.4 79.45 134.93 79.19 134.07 79.04 133.7 78.98 133.45 78.63 133.27 78.2 133.94 77.49 134.9 76.9 135.97 76.88 136.89 76.86 138.01 77.96 138.51 78.51Z" fill="#FF897D"/><path d="M144.51 89.36C142.47 93.03 139.52 97.81 138.3 99.44 137.19 100.92 134.51 103.29 134.02 103.72 134.12 103.62 134.18 103.57 134.18 103.57 134.18 103.57 133.76 102.42 132.97 99.93 133.71 99.2 134.96 97.99 136.82 96.26 140.13 93.18 144.51 89.36 144.51 89.36Z" fill="#F3B940"/><path d="M147.62 101.05C145.9 103.83 144.83 109.63 144 114.21 142.06 114.01 139.41 116.1 139.41 116.1 139.41 116.1 139.39 116.13 139.33 116.2 139.02 116.58 137.68 118.13 133.94 121.14 129.58 124.66 123.33 126.44 121.44 125.73 120.87 125.51 120.23 125.17 119.72 124.62 122.17 124.2 126.69 123.06 130.4 120.12 134.3 117.03 138.55 110.78 140.6 107.55 143.12 105.97 145.8 103.81 147.62 101.05Z" fill="#C93705"/><path d="M160.39 100.23C160.07 103.09 158.74 106.46 157.29 109.47 154.75 114.77 147.72 121.79 147.72 121.79 147.64 121.83 147.56 121.86 147.48 121.88 146.88 122.11 146.23 122.17 145.62 122.13 146.74 121.11 148.48 119.4 149.86 117.55 151.73 115.02 157.71 106.17 160.39 100.23Z" fill="#C93705"/><path d="M147.6 80.01C145.65 82.54 141.57 84.52 136.92 84.57 132.09 84.62 129.57 82.14 128.05 79.77 128.32 79.47 128.56 79.22 128.75 79.04 130.79 80.68 133.17 81.9 136.16 82.3 137.87 82.53 139.76 82.5 141.91 82.12 142.14 82.08 142.37 82.03 142.59 81.97 144.37 81.55 145.81 80.74 146.97 79.75L146.97 79.75C146.97 79.76 147.21 79.83 147.6 80.01Z" fill="#F3B940"/><path d="M136.17 82.3C135.93 83.76 136.22 85.73 139.54 85.64 142.52 85.55 143 83.21 142.6 81.98 142.38 82.03 142.15 82.08 141.92 82.12 139.77 82.5 137.87 82.53 136.17 82.3Z" fill="#F1A771"/><path d="M90.15 119.66C88.84 119.97 87.72 120.06 86.84 120.05 85.4 120.04 84.59 119.76 84.59 119.76L81.06 100.03 81.02 100.35 81.82 90.03 90.15 119.66Z" fill="#012942"/><path d="M75.79 119.59 75.24 122.26C74.03 122.11 72.08 121.76 70.6 121.05 70.6 120.1 70.61 119.25 70.62 118.65 71.89 119.01 73.62 119.38 75.79 119.59Z" fill="#F3B940"/><path d="M91.85 122.01C91.27 122.16 89.3 122.6 87.25 122.18 87.11 121.38 86.97 120.63 86.84 120.04 88.07 120.05 89.77 119.87 91.81 119.17L91.85 122.01Z" fill="#F3B940"/><path d="M90.97 89.47C89.07 88.02 87.8 85.55 87.61 84.97 86.25 85.26 84.47 85.5 82.23 85.54 82.07 85.54 81.9 85.54 81.74 85.54 79.6 85.54 77.85 85.3 76.48 85.01 76.08 85.9 74.23 87.25 72.92 88.16 72.94 88.06 72.95 87.97 72.97 87.87 74.2 87.01 75.89 85.76 76.28 84.96 75.09 84.69 74.21 84.37 73.65 84.14 73.66 84.07 73.67 84 73.69 83.94 74.86 84.44 77.57 85.34 81.75 85.34 81.91 85.34 82.07 85.34 82.23 85.34 86.34 85.27 88.9 84.51 90.12 84.03L90.15 84.23C89.61 84.44 88.83 84.7 87.8 84.93 87.94 85.38 89.13 87.72 90.92 89.18L90.97 89.47Z" fill="#012942"/><path d="M80.81 102.39C80.8 102.39 80.8 102.39 80.81 102.39 80.75 102.39 80.7 102.34 80.71 102.28L81.9 87.43C81.9 87.37 81.95 87.33 82.01 87.34 82.07 87.34 82.11 87.39 82.1 87.45L80.91 102.3C80.9 102.35 80.86 102.39 80.81 102.39Z" fill="#012942"/><path d="M89.59 79.78C89.54 79.78 89.49 79.74 89.49 79.69L88.21 68.64C88.2 68.58 88.24 68.53 88.3 68.53 88.36 68.52 88.41 68.56 88.41 68.62L89.69 79.67C89.7 79.73 89.66 79.78 89.6 79.78 89.59 79.78 89.59 79.78 89.59 79.78Z" fill="#74ADA7"/><path d="M75.07 73.67C75.06 73.67 75.06 73.67 75.05 73.67 74.99 73.66 74.96 73.61 74.97 73.55L75.92 68.61C75.93 68.55 75.98 68.51 76.04 68.53 76.1 68.54 76.13 68.59 76.12 68.65L75.17 73.59C75.16 73.64 75.11 73.67 75.07 73.67Z" fill="#74ADA7"/><path d="M88.41 55.32C87.06 55.32 86.05 54.1 86.04 54.09 86 54.05 86.01 53.98 86.05 53.95 86.09 53.91 86.16 53.92 86.19 53.96 86.25 54.04 87.76 55.85 89.52 54.79 89.57 54.76 89.63 54.78 89.66 54.82 89.69 54.87 89.67 54.93 89.63 54.96 89.21 55.22 88.8 55.32 88.41 55.32Z" fill="#F97450"/><path d="M73.82 44.49C73.82 44.49 73.82 44.49 73.82 44.49 73.76 44.49 73.72 44.44 73.72 44.38 73.72 44.37 73.75 43.52 72.87 42.04 72.84 41.99 72.86 41.93 72.91 41.9 72.96 41.87 73.02 41.89 73.05 41.93 73.97 43.47 73.93 44.35 73.93 44.38 73.92 44.45 73.88 44.49 73.82 44.49Z" fill="#F97450"/><path d="M150.97 70.72C150.96 70.72 150.94 70.72 150.93 70.71 150.88 70.69 150.85 70.63 150.88 70.58 150.9 70.54 151.33 69.57 152.76 68.55 152.81 68.52 152.87 68.53 152.9 68.57 152.93 68.62 152.92 68.68 152.88 68.71 151.5 69.7 151.07 70.64 151.07 70.65 151.04 70.69 151.01 70.72 150.97 70.72Z" fill="#FF9271"/><path d="M134.17 103.67C134.14 103.67 134.12 103.66 134.1 103.64 134.06 103.6 134.06 103.53 134.1 103.5 136.81 100.91 140.36 96.16 141.42 94.44 141.8 93.82 142.38 92.8 143.05 91.61 144.25 89.48 145.74 86.84 147.07 84.8 147.1 84.75 147.16 84.74 147.21 84.77 147.26 84.8 147.27 84.86 147.24 84.91 145.91 86.94 144.42 89.58 143.23 91.71 142.56 92.9 141.98 93.92 141.6 94.55 140.53 96.27 136.97 101.05 134.25 103.65 134.22 103.66 134.2 103.67 134.17 103.67Z" fill="#F3B940"/><path d="M74.06 102.72C73.79 102.72 73.5 102.71 73.18 102.68 73.1 102.67 73.03 102.6 73.04 102.52 73.05 102.44 73.12 102.37 73.2 102.38 75.08 102.53 75.94 102.15 75.95 102.15 76.03 102.11 76.12 102.15 76.15 102.23 76.18 102.31 76.15 102.4 76.07 102.43 76.04 102.44 75.42 102.72 74.06 102.72Z" fill="#012942"/><path d="M88.08 103.75C87.95 103.75 87.81 103.74 87.66 103.72 87.58 103.71 87.52 103.63 87.53 103.55 87.54 103.47 87.62 103.41 87.7 103.42 89.02 103.6 89.44 102.79 89.45 102.76 89.49 102.68 89.58 102.65 89.65 102.69 89.73 102.73 89.76 102.82 89.72 102.89 89.71 102.92 89.3 103.75 88.08 103.75Z" fill="#012942"/><path d="M156.28 98.25C153.89 98.25 153.39 96.33 153.39 96.31 153.37 96.23 153.42 96.15 153.5 96.13 153.58 96.11 153.66 96.16 153.69 96.24 153.71 96.32 154.22 98.18 156.75 97.92 156.84 97.91 156.91 97.97 156.92 98.06 156.93 98.14 156.87 98.22 156.78 98.23 156.61 98.24 156.44 98.25 156.28 98.25Z" fill="#C93705"/><path d="M130.2 58.61C130.15 58.61 130.11 58.59 130.08 58.55 130.03 58.48 130.04 58.39 130.11 58.34 131.56 57.2 133.16 56.79 133.23 56.78 133.31 56.76 133.39 56.81 133.41 56.89 133.43 56.97 133.38 57.05 133.3 57.08 133.28 57.08 131.69 57.49 130.3 58.59 130.27 58.59 130.24 58.61 130.2 58.61Z" fill="#FF897D"/><path d="M145.53 56.12C145.47 56.12 145.42 56.09 145.39 56.03 145.35 55.94 144.41 53.95 141.84 53.91 141.76 53.91 141.69 53.84 141.69 53.76 141.69 53.68 141.75 53.62 141.84 53.61 144.61 53.65 145.65 55.88 145.66 55.91 145.69 55.99 145.66 56.08 145.58 56.11 145.57 56.11 145.55 56.12 145.53 56.12Z" fill="#FF897D"/><path d="M137.2 58.83C137.2 58.83 137.19 58.83 137.19 58.83 137.11 58.82 137.04 58.75 137.05 58.67 137.06 58.58 137.22 56.57 138.39 55.13 138.44 55.06 138.54 55.06 138.6 55.11 138.67 55.16 138.68 55.26 138.62 55.33 137.5 56.7 137.35 58.68 137.34 58.7 137.34 58.77 137.28 58.83 137.2 58.83Z" fill="#FF897D"/><path d="M150.98 61.19C150.9 61.19 150.83 61.13 150.83 61.05 150.83 61.03 150.62 58.88 149.2 57.8 149.13 57.75 149.12 57.65 149.17 57.59 149.22 57.52 149.32 57.51 149.38 57.56 150.91 58.72 151.12 60.93 151.13 61.03 151.14 61.11 151.08 61.19 150.99 61.2 150.99 61.19 150.99 61.19 150.98 61.19Z" fill="#FF897D"/><path d="M127.5 61.08C127.5 61.08 127.5 61.08 127.5 61.08 127.41 61.08 127.34 61.01 127.35 60.92 127.35 60.83 127.42 58.75 128.33 57.59 128.38 57.52 128.48 57.51 128.54 57.56 128.61 57.61 128.62 57.71 128.57 57.77 127.73 58.85 127.66 60.9 127.66 60.92 127.65 61.01 127.59 61.08 127.5 61.08Z" fill="#FF897D"/><g><path d="M49.34 99.44C49.34 99.44 48.25 100.51 46.08 101.94 43.9 103.37 37.79 106.15 33.86 105.88 33.66 105.87 33.47 105.85 33.29 105.83 30.54 105.49 29.55 104.21 29.27 103.71 29.25 103.67 29.23 103.63 29.21 103.6 29.19 103.57 29.19 103.55 29.18 103.53L30.78 109.48C30.16 109.48 29.71 109.55 29.71 109.55 29.71 109.55 28.83 110.77 27.47 111.11 26.11 111.45 25.03 112.33 25.03 112.33 25.18 112.6 25.35 112.88 25.54 113.14 23.48 112.9 18.57 112.32 14.89 111.84 13.01 111.6 11.46 111.38 10.77 111.24 8.33 110.77 6.04 112.12 6.04 112.12 6.04 112.12 8.13 102.88 8.04 100.44 8.02 99.99 7.97 99.46 7.89 98.88L7.89 98.88C7.52 96.33 6.61 92.75 6.17 89.99 6.13 89.7 6.09 89.42 6.07 89.15 6.06 88.96 6.05 88.78 6.05 88.61 6.05 86.14 7.33 84.64 9.79 84.1 9.87 84.08 9.96 84.06 10.04 84.04 10.17 84.12 10.3 84.2 10.44 84.28 13.64 86.08 18.54 87.14 23.03 86.46 23.28 86.79 23.66 87.27 24.12 87.87 26.82 91.35 32.37 98.47 32.78 98.65 33.32 98.89 34.34 99.09 37.13 98.08 39.87 97.08 47.54 94.49 47.78 94.41 47.74 94.48 47.19 95.42 47.45 96.98 47.72 98.61 48.54 99.36 48.54 99.36 48.71 99.46 48.99 99.46 49.31 99.4 49.32 99.42 49.34 99.44 49.34 99.44Z" fill="#DE4B10"/><path d="M25.55 113.13C23.49 112.89 18.58 112.31 14.9 111.83 13.99 110.99 12.03 108.8 10.24 104.37 9.15 101.69 8.42 100.01 7.89 98.87L7.89 98.87C7.52 96.32 6.61 92.74 6.17 89.98 6.13 89.69 6.09 89.41 6.07 89.14 7.09 91.54 8.79 94.33 11.39 98.06 14.76 102.9 19.49 108.44 21.58 110.28 23.67 112.11 25.04 112.32 25.04 112.32 25.19 112.6 25.36 112.87 25.55 113.13Z" fill="#BB3100"/><path d="M24.12 87.87C23.24 88.13 21.9 88.46 20.05 88.75 16.7 89.26 11.95 86.29 9.79 84.11 9.87 84.09 9.96 84.07 10.04 84.05 10.17 84.13 10.3 84.21 10.44 84.29 13.64 86.09 18.54 87.15 23.03 86.47 23.28 86.79 23.66 87.28 24.12 87.87Z" fill="#BB3100"/><path d="M33.3 105.82C30.55 105.48 29.56 104.2 29.28 103.7 29.26 103.66 29.24 103.62 29.22 103.59 29.2 103.53 29.18 103.5 29.18 103.5 29.18 103.5 27.07 96.13 25.4 92.37 25.4 92.37 29.27 97.46 31.41 101.53 32.44 103.5 33 104.9 33.3 105.82Z" fill="#BB3100"/><g><path d="M52.59 89.14C51.5 89.89 50.25 90.63 48.98 90.16 48.38 89.94 47.9 88.6 49.6 86.36 51.3 84.12 56.46 77.53 56.46 77.53 56.46 77.53 58.97 89.96 58.84 90.64 58.7 91.32 57.24 91.62 56.26 91.09 55.58 90.72 53.64 88.6 53.64 88.6L52.59 89.14Z" fill="#03496F"/><path d="M55.23 83.24C54.25 83.23 49.87 101.85 49.87 101.85 49.87 101.85 50.42 103.07 52.59 102.26 52.59 102.25 55.87 83.24 55.23 83.24Z" fill="#012942"/></g><path d="M30.84 66.22C30.53 63.77 29.86 61.13 26.6 58.89 23.34 56.65 20.29 57.4 20.29 57.4 20.29 57.4 22.26 55.77 21.1 55.02 19.95 54.27 17.98 56.65 17.98 56.65 17.98 56.65 16.42 54.03 15.43 54.34 14.44 54.65 16.56 57.12 16.56 57.12 13.91 56.64 9.09 57.53 6.51 60.52 3.93 63.51 2.84 67.17 3.18 69.57 4.06 69.71 4.85 70.42 5.22 71.32 5.22 71.32 8.55 69.76 10.52 68.47 12.49 67.18 13.51 64.67 13.51 64.67 13.51 64.67 14.94 65.76 16.36 65.35 17.79 64.94 18.26 63.51 18.26 63.51 18.26 63.51 20.5 65.76 23.15 66.23 25.8 66.7 26.21 64.06 26.21 64.06 28.04 69.42 30.77 70.48 30.77 70.48L30.77 70.48C30.75 70.47 31.15 68.66 30.84 66.22Z" fill="#894B21"/><path d="M30.82 70.9C30.81 70.77 30.79 70.62 30.75 70.46L30.75 70.46C30.75 70.46 28.02 69.4 26.19 64.04 26.19 64.04 25.78 66.68 23.13 66.21 20.48 65.74 18.24 63.49 18.24 63.49 18.24 63.49 17.76 64.92 16.34 65.33 14.91 65.74 13.49 64.65 13.49 64.65 13.49 64.65 12.47 67.16 10.5 68.45 8.53 69.74 5.2 71.3 5.2 71.3 4.83 70.4 4.04 69.69 3.16 69.55 2.44 69.43 1.66 69.7 0.99 70.55-0.5 72.45-0.16 74.28 0.99 75.71 2.14 77.14 4.93 77.47 4.93 77.47 4.93 77.47 6.01 81.55 10.03 84.03 10.16 84.11 10.3 84.19 10.43 84.27 13.63 86.07 18.52 87.13 23.03 86.45 24.64 86.21 26.2 85.75 27.61 85.02 32.97 82.24 29.99 78.64 29.99 77.75 29.99 76.88 30.97 73.08 30.82 70.9Z" fill="#E28E69"/><path d="M51.99 91.14C51.38 90.94 48.59 93.52 47.78 94.4 47.78 94.4 47.17 95.35 47.44 96.98 47.71 98.61 48.53 99.36 48.53 99.36 48.7 99.46 48.98 99.46 49.3 99.4 50.25 99.23 51.58 98.54 51.58 98.54L51.99 95.96 51.31 94.4C51.92 95.55 52.26 95.28 52.53 94.4 52.8 93.52 52.6 91.34 51.99 91.14Z" fill="#E28E69"/><path d="M33.06 115.51C33.05 115.47 33.05 115.45 33.05 115.45 33.05 115.45 33.05 115.47 33.06 115.51Z" fill="#E28E69"/><path d="M33.06 115.51C33.05 115.47 33.05 115.45 33.05 115.45 33.05 115.45 33.05 115.47 33.06 115.51Z" fill="#AD533B"/><path d="M35.07 115.8C34.88 115.7 34.69 115.61 34.49 115.51 34.6 115.79 34.78 116.01 35.07 115.8Z" fill="#E28E69"/><path d="M34.29 115.42C34.36 115.45 34.42 115.48 34.49 115.51 34.37 115.21 34.34 114.84 34.34 114.84 34.34 114.84 34.34 115.1 34.29 115.42Z" fill="#74ADA7"/><path d="M33.06 115.51C33.05 115.47 33.05 115.45 33.05 115.45 33.05 115.45 33.05 115.47 33.06 115.51Z" fill="#AD533B"/><path d="M44.66 117.03C43.92 116.49 38.97 113.61 34.96 111.72 35.66 113.32 35.57 115.42 35.08 115.79 35.07 115.79 35.07 115.8 35.06 115.8 36.33 116.46 37.52 117.23 38.13 118.03 39.83 120.27 40.1 122.99 37.79 125.97 37.67 126.12 37.55 126.26 37.43 126.4 38.51 126.82 40.47 127.54 41.05 127.4 41.86 127.2 45.12 126.79 45.94 123.87 46.76 120.95 45.47 117.62 44.66 117.03Z" fill="#74ADA7"/><path d="M11.32 122.51C11.16 122.39 11.02 122.26 10.88 122.15 10.85 122.13 10.81 122.12 10.77 122.1 10.63 122.04 10.45 121.95 10.23 121.84 10.04 121.81 9.83 121.82 9.55 121.9 8.6 122.17 0.59 126.18 0.59 126.18L12.88 126.86C11.86 126.18 11.32 122.51 11.32 122.51Z" fill="#03496F"/><path d="M37.8 125.97C37.68 126.12 37.56 126.26 37.44 126.4 35.24 128.89 32.8 128.39 26.94 128.01 20.76 127.61 12.88 126.85 12.88 126.85 11.99 126.26 11.46 123.36 11.34 122.66 11.32 122.56 11.32 122.51 11.32 122.51 11.32 122.51 11.49 122.51 11.28 122.37 11.21 122.32 11.08 122.25 10.88 122.15 10.69 122 10.49 121.88 10.24 121.84 9.07 121.23 6.94 119.93 6.04 118.1 4.97 115.92 5.2 113.41 6.04 112.12 6.04 112.12 6.16 111.89 7.51 111.5 9.12 111.03 11.66 110.9 16 111.58 18.36 111.95 22.34 112.57 25.5 113.07 25.51 113.09 25.53 113.11 25.54 113.13 26.21 114.05 27.14 114.84 28.36 114.84 29.92 114.84 30.32 115.59 30.83 116.27 31.33 116.93 31.86 117.2 31.76 116.34 31.76 116.32 31.76 116.3 31.75 116.27 31.75 116.27 32.29 117.43 32.77 116.89 33.14 116.46 33.1 115.82 33.06 115.57 33.13 115.88 33.34 116.69 33.79 116.47 34.1 116.32 34.23 115.82 34.29 115.42 34.36 115.45 34.42 115.48 34.49 115.51 34.6 115.79 34.78 116.01 35.06 115.8 36.34 116.46 37.52 117.22 38.14 118.03 39.84 120.27 40.11 122.99 37.8 125.97Z" fill="#8CD3CF"/><path d="M10.88 122.15C10.69 122 10.49 121.87 10.24 121.83 10.45 121.94 10.64 122.03 10.78 122.09 10.81 122.12 10.85 122.14 10.88 122.15Z" fill="#AD533B"/><path d="M22.41 73.75C22.16 74.49 22.41 75.63 22.97 76.45 23.53 77.26 23.3 78.03 22.64 78.21 21.98 78.39 21.24 77.34 21.11 76.5 20.99 75.66 22.41 73.75 22.41 73.75Z" fill="#CC5E3B"/><path d="M11.64 69.09C11.49 68.71 12.86 67.18 14.9 67.23 16.94 67.28 19.13 69.19 19.28 69.93 19.28 69.93 16.4 68.4 14.98 68.38 13.55 68.35 11.64 69.09 11.64 69.09Z" fill="#894B21"/><path d="M24.12 70.69C23.59 70.26 25.32 69.09 26.87 69.06 28.42 69.03 29.94 69.71 30.82 70.9L30.84 71.31C30.84 71.31 28.83 70.29 27.43 70.18 26.03 70.08 24.12 70.69 24.12 70.69Z" fill="#894B21"/><path d="M16.61 72.56C16.32 73.24 15.87 73.71 15.6 73.59 15.33 73.48 15.35 72.83 15.64 72.15 15.93 71.47 16.38 71 16.65 71.12 16.92 71.24 16.9 71.87 16.61 72.56Z" fill="#1B0A00"/><path d="M27.49 73.63C27.31 74.44 26.9 75.05 26.56 74.97 26.22 74.9 26.09 74.18 26.27 73.36 26.45 72.55 26.86 71.94 27.2 72.02 27.53 72.1 27.66 72.81 27.49 73.63Z" fill="#1B0A00"/><path d="M11.34 75.51C9.88 77.3 14.09 79.43 15.31 78.03 16.53 76.63 12.12 74.54 11.34 75.51Z" fill="#FF794A"/><path d="M25.26 78.05C25.74 79.51 29.21 78.3 28.88 77.29 28.55 76.27 24.81 76.65 25.26 78.05Z" fill="#FF794A"/><path d="M3.8 74.64C3.79 74.64 3.78 74.64 3.77 74.64 3.72 74.62 3.69 74.57 3.7 74.51 3.7 74.5 3.94 73.59 2.11 72.44 2.06 72.41 2.05 72.35 2.08 72.3 2.11 72.25 2.17 72.24 2.22 72.27 4.2 73.52 3.91 74.53 3.89 74.57 3.88 74.61 3.84 74.64 3.8 74.64Z" fill="#E56441"/><path d="M22.35 81.17C21.67 81.17 20.87 80.99 19.95 80.49 19.9 80.46 19.87 80.45 19.86 80.44 19.81 80.42 19.78 80.36 19.8 80.31 19.82 80.26 19.87 80.23 19.93 80.25 19.95 80.26 19.99 80.28 20.06 80.31 21.55 81.12 22.9 81.19 24.08 80.51 24.13 80.48 24.19 80.5 24.22 80.55 24.25 80.6 24.23 80.66 24.18 80.69 23.72 80.94 23.11 81.17 22.35 81.17Z" fill="#E56441"/><path d="M30.03 110.24C30 110.24 29.96 110.22 29.94 110.19 29.84 110.01 19.47 92.58 16.4 88.87 16.36 88.83 16.37 88.76 16.41 88.73 16.45 88.69 16.52 88.7 16.55 88.74 19.63 92.47 30 109.91 30.11 110.09 30.14 110.14 30.12 110.2 30.07 110.23 30.06 110.23 30.04 110.24 30.03 110.24Z" fill="#BB3100"/><g><path d="M55.96 94.26C55.95 94.31 55.94 94.37 55.92 94.41L55.92 94.41C55.72 95.03 55.15 95.27 55.15 95.27 55.18 95.32 55.2 95.39 55.22 95.46 55.37 96.11 55.09 97.42 53.86 97.85 52.5 98.33 51.14 97.92 51.34 97.31 51.43 97.06 51.54 96.85 51.66 96.7 51.71 96.63 51.77 96.56 51.81 96.51 51.86 96.46 51.91 96.42 51.93 96.39 51.81 96.46 51.29 96.7 51.34 95.74 51.38 95.05 51.87 94.69 52.21 94.52 52.41 94.42 52.56 94.39 52.56 94.39 52.56 94.39 52.49 94.38 52.38 94.34 52.19 94.25 51.9 94.04 51.81 93.51 51.68 92.7 53.29 92.39 54.59 91.95 55.22 91.73 55.47 91.61 55.68 91.95 55.79 92.13 55.63 92.5 55.45 92.81 55.3 93.08 55.14 93.3 55.14 93.3 55.24 93.24 55.32 93.21 55.4 93.19 55.89 93.08 56.07 93.62 55.96 94.26Z" fill="#E28E69"/><g><path d="M55.14 93.31C55.24 93.25 55.32 93.22 55.4 93.2 54.57 94.06 53.38 94.54 52.41 94.54 52.34 94.54 52.27 94.54 52.2 94.53 52.4 94.43 52.55 94.4 52.55 94.4 52.55 94.4 52.48 94.39 52.37 94.35 53.48 94.37 54.71 93.69 55.44 92.82 55.31 93.09 55.14 93.31 55.14 93.31Z" fill="#CC5E3B"/><path d="M55.14 95.28C55.17 95.33 55.19 95.4 55.21 95.47 54.27 96.33 53.3 96.77 52.29 96.77 52.08 96.77 51.87 96.75 51.65 96.71 51.7 96.64 51.76 96.57 51.8 96.52 53.22 96.73 54.6 96.03 55.91 94.42 55.91 94.42 55.91 94.42 55.92 94.42 55.72 95.05 55.14 95.28 55.14 95.28Z" fill="#CC5E3B"/></g></g><path d="M27.22 123.27C27.23 123.36 27.18 123.43 27.09 123.45 26.14 123.61 24.95 123.67 23.63 123.67 18.62 123.67 11.94 122.75 11.33 122.66 11.31 122.56 11.31 122.51 11.31 122.51 11.31 122.51 11.48 122.51 11.27 122.37 11.29 122.36 11.31 122.36 11.34 122.36 11.45 122.38 22.39 123.92 27.05 123.15 27.13 123.13 27.21 123.19 27.22 123.27Z" fill="#74ADA7"/><g><path d="M23.25 61.08C23.19 61.08 23.14 61.05 23.11 61 23.1 60.98 22.32 59.47 21.03 58.82 20.95 58.78 20.92 58.69 20.96 58.61 21 58.53 21.09 58.5 21.17 58.54 22.55 59.24 23.35 60.79 23.38 60.85 23.42 60.93 23.39 61.02 23.31 61.06 23.3 61.07 23.28 61.08 23.25 61.08Z" fill="#723B16"/><path d="M8.19 62.96C8.18 62.96 8.16 62.96 8.15 62.95 8.07 62.93 8.02 62.84 8.05 62.76 8.08 62.67 8.77 60.46 10.8 59.17 10.87 59.12 10.97 59.15 11.01 59.22 11.06 59.29 11.03 59.39 10.96 59.43 9.02 60.66 8.34 62.83 8.34 62.85 8.32 62.92 8.26 62.96 8.19 62.96Z" fill="#723B16"/><path d="M7.52 67C7.45 67 7.39 66.96 7.37 66.89 7.35 66.81 7.4 66.72 7.48 66.7 7.5 66.69 9.5 66.13 10.94 64.86 11 64.8 11.1 64.81 11.16 64.87 11.22 64.93 11.21 65.03 11.15 65.09 9.66 66.41 7.66 66.97 7.57 66.99 7.54 67 7.53 67 7.52 67Z" fill="#723B16"/><path d="M15.52 61.21C15.52 61.21 15.52 61.21 15.52 61.21 15.43 61.21 15.37 61.14 15.37 61.06 15.37 61.02 15.38 60.14 15.66 59.26 15.69 59.18 15.77 59.14 15.85 59.16 15.93 59.19 15.98 59.27 15.95 59.35 15.68 60.19 15.67 61.05 15.67 61.06 15.67 61.14 15.6 61.21 15.52 61.21Z" fill="#723B16"/><path d="M22 63.65C21.98 63.65 21.96 63.65 21.94 63.64 21.86 63.61 20.05 62.88 19.18 62.22 19.11 62.17 19.1 62.07 19.15 62.01 19.2 61.94 19.3 61.93 19.36 61.98 20.2 62.62 22.03 63.36 22.05 63.36 22.13 63.39 22.17 63.48 22.14 63.56 22.12 63.61 22.07 63.65 22 63.65Z" fill="#723B16"/><path d="M28.9 64.13C28.83 64.13 28.76 64.08 28.75 64 28.75 63.99 28.53 62.67 26.77 61.03 26.71 60.97 26.7 60.88 26.76 60.81 26.82 60.75 26.91 60.74 26.98 60.8 28.82 62.51 29.05 63.89 29.05 63.94 29.06 64.02 29 64.1 28.92 64.11 28.92 64.13 28.91 64.13 28.9 64.13Z" fill="#723B16"/></g><path d="M35.09 115.79C35.08 115.79 35.08 115.8 35.07 115.8 34.84 115.97 34.67 115.86 34.56 115.65 34.54 115.61 34.52 115.56 34.49 115.51 34.37 115.21 34.34 114.84 34.34 114.84 34.34 114.84 34.34 115.06 34.31 115.33 34.31 115.36 34.3 115.39 34.3 115.42 34.24 115.82 34.11 116.32 33.8 116.47 33.5 116.62 33.31 116.31 33.19 115.99 33.19 115.99 33.19 115.99 33.19 115.98 33.13 115.82 33.1 115.67 33.07 115.56 33.09 115.75 33.13 116.15 32.98 116.52 32.98 116.52 32.98 116.52 32.98 116.53 32.93 116.65 32.87 116.77 32.77 116.88 32.64 117.03 32.5 117.05 32.37 117 32.28 116.96 32.19 116.89 32.11 116.8 32.11 116.8 32.11 116.8 32.11 116.8 31.91 116.58 31.76 116.26 31.76 116.26 31.76 116.28 31.76 116.3 31.77 116.33 31.87 117.2 31.34 116.92 30.84 116.26 30.33 115.58 29.93 114.83 28.37 114.83 27.15 114.83 26.23 114.05 25.55 113.12 25.54 113.1 25.52 113.08 25.51 113.06 25.33 112.82 25.18 112.56 25.04 112.31 25.04 112.31 26.13 111.43 27.48 111.09 28.84 110.75 29.72 109.53 29.72 109.53 29.72 109.53 30.16 109.46 30.79 109.46 31.8 109.46 33.28 109.63 34.2 110.55 34.52 110.87 34.77 111.27 34.96 111.71 35.66 113.32 35.57 115.41 35.09 115.79Z" fill="#E28E69"/><g><path d="M32.38 117C32.29 116.96 32.2 116.89 32.12 116.8 32.12 116.8 32.12 116.8 32.12 116.8 31.87 115.88 31.28 114.11 30.18 112.43 30.15 112.39 30.16 112.32 30.21 112.29 30.25 112.26 30.32 112.27 30.35 112.32 31.57 114.2 32.16 116.18 32.38 117Z" fill="#CC5E3B"/><path d="M33.07 115.56C33.09 115.75 33.13 116.15 32.98 116.52 33.02 115.73 32.91 114.21 32.27 112.41 32.25 112.36 32.28 112.3 32.34 112.28 32.39 112.26 32.45 112.29 32.47 112.34 33.04 113.93 33.17 115.2 33.19 115.98 33.13 115.82 33.09 115.67 33.07 115.56Z" fill="#CC5E3B"/><path d="M34.56 115.65C34.54 115.61 34.52 115.56 34.49 115.51 34.37 115.21 34.34 114.84 34.34 114.84 34.34 114.84 34.34 115.06 34.31 115.33 34.13 114.3 33.73 112.91 33.01 111.77 32.98 111.72 33 111.66 33.04 111.63 33.09 111.6 33.15 111.61 33.18 111.66 33.96 112.92 34.4 114.54 34.56 115.65Z" fill="#CC5E3B"/></g></g><path d="M107.88 75.66C108.93 75.97 108.83 76.51 108.63 76.81 108.43 77.12 107.88 76.81 107.88 76.81 107.88 76.81 109.09 77.35 108.76 77.83 108.42 78.31 107.88 78.14 107.88 78.14 107.88 78.14 108.55 78.28 108.35 78.79 108.15 79.3 106.69 79.28 106.11 79.15 105.54 79.02 105.33 78.72 105.5 78.31 105.67 77.9 106.52 77.9 106.52 77.9 106.52 77.9 105.73 77.59 105.77 77.12 105.81 76.64 106.86 76.81 106.86 76.81 106.86 76.81 105.91 76.54 106.01 75.86 106.11 75.18 107.88 75.66 107.88 75.66Z" fill="#FC9775"/><path d="M108.42 94.86C108.29 94.38 107.72 94.38 107.48 94.41 107.47 94.39 107.47 94.38 107.46 94.36 107.69 94.21 108.25 93.79 108.25 93.31 108.25 92.86 107.76 92.83 107.5 92.85 107.71 92.82 108.06 92.7 108.04 92.32 108.01 91.78 107.36 91.84 107.36 91.84 108.1 91.64 107.84 91.03 107.36 90.79 106.88 90.55 106.44 90.86 105.44 91.1L105.45 91.12C104.45 91.48 104.28 91.85 104.31 92.19 104.34 92.56 105.04 92.43 105.04 92.43 105.04 92.43 104.31 92.57 104.31 93.14 104.31 93.72 105.2 93.51 105.2 93.51 105.2 93.51 104.45 93.88 104.52 94.32 104.59 94.76 105.45 94.83 105.45 94.83 105.45 94.83 104.62 95 104.71 95.37 104.75 95.54 105.49 95.88 106.38 95.78 107.34 95.67 108.48 95.09 108.42 94.86Z" fill="#FFBB88"/><path d="M126.99 17.09C123.53 19.74 115.99 19.74 106.19 19.16 96.98 18.61 92.77 14.39 92.9 11.26 97.59 16.38 106.61 17.87 115.89 17.79 122.82 17.73 126.66 15.15 128.4 13.51 128.6 14.83 128.24 16.14 126.99 17.09Z" fill="#1CA24E"/><path d="M90.02 23.41C86.61 23.91 84.68 23.23 84.14 22.43 87.69 22.45 93.88 21.15 96.31 17.79 96.35 17.84 96.4 17.89 96.44 17.95 98.27 20.45 93.48 22.9 90.02 23.41Z" fill="#1CA24E"/><path d="M130.66 21.98C130.35 23.61 121.7 25.68 119.46 23.58 119.12 23.26 119.06 22.9 119.22 22.54 123.17 23.51 128.45 21.96 130.59 21.22 130.68 21.46 130.71 21.71 130.66 21.98Z" fill="#1CA24E"/></g></svg>