<svg width="30.77" height="27.9" viewBox="0 0 30.77 27.9" xmlns="http://www.w3.org/2000/svg" xmlns:xlink="http://www.w3.org/1999/xlink" xml:space="preserve" overflow="hidden"><defs></defs><g><g><path d="M14.12 14.88C14.12 14.88 19.87 11.08 19.98 10.85 20.09 10.62 20.03 8.55 20.21 8.25 20.39 7.95 22.03 7.11 22.28 7.75 22.28 7.75 23.22 7.45 23.4 8.14 23.4 8.14 24.15 8.23 24.17 8.78 24.17 8.78 24.95 9.49 24.76 10.24L24.14 10.08C24.14 10.08 23.98 9.69 23.68 9.83 23.38 9.97 23.33 11.57 21.54 11.38 21.11 11.33 17.05 15.2 15.45 15.91 13.87 16.6 14.12 14.88 14.12 14.88Z" stroke="#E9B45E" stroke-width="0.0626" stroke-linecap="round" stroke-linejoin="round" fill="#FFDD97"/><path d="M21.39 8.35C21.38 8.35 21.38 8.35 21.37 8.35 21.36 8.34 21.35 8.32 21.36 8.31 21.5 8.1 22.23 7.75 22.26 7.73 22.28 7.72 22.3 7.73 22.3 7.74 22.31 7.76 22.3 7.77 22.29 7.78 22.28 7.78 21.54 8.14 21.41 8.34 21.41 8.35 21.4 8.35 21.39 8.35L21.39 8.35Z" fill="#E9B45E"/><path d="M22.55 8.71C22.55 8.71 22.54 8.71 22.54 8.71 22.52 8.7 22.52 8.68 22.53 8.67 22.62 8.48 23.31 8.15 23.39 8.11 23.41 8.1 23.42 8.11 23.43 8.12 23.44 8.14 23.43 8.15 23.42 8.16 23.21 8.26 22.66 8.55 22.59 8.69 22.58 8.71 22.57 8.71 22.55 8.71L22.55 8.71Z" fill="#E9B45E"/><path d="M23.47 9.01C23.46 9.01 23.46 9.01 23.45 9 23.44 8.99 23.44 8.97 23.45 8.96 23.73 8.63 24.17 8.74 24.19 8.75 24.21 8.75 24.22 8.77 24.21 8.79 24.21 8.81 24.19 8.82 24.17 8.81 24.17 8.81 23.75 8.71 23.5 9.01 23.48 9.01 23.48 9.01 23.47 9.01L23.47 9.01Z" fill="#E9B45E"/><path d="M24.17 8.77C24.15 8.22 23.4 8.13 23.4 8.13 23.22 7.45 22.28 7.74 22.28 7.74 22.03 7.1 20.39 7.95 20.21 8.24 20.03 8.54 20.1 10.61 19.98 10.84 19.87 11.07 14.12 14.87 14.12 14.87 14.12 14.87 13.87 16.6 15.46 15.89 17.06 15.18 21.12 11.31 21.55 11.36 23.34 11.55 23.4 9.95 23.69 9.81 23.99 9.67 24.15 10.06 24.15 10.06L24.77 10.22C24.95 9.48 24.17 8.77 24.17 8.77ZM17.07 14.19C16.82 14.5 16.28 15.1 15.77 15.1 15.26 15.1 14.92 14.56 15.2 14.5 15.2 14.5 16.28 13.59 16.65 13.59 17.04 13.59 17.32 13.87 17.07 14.19ZM23.25 9.88C22.93 10.56 21.76 11.03 21.52 10.99 21.27 10.95 19.26 12.84 18.43 13.42 17.6 14 16.9 13.47 17.29 13.2 17.29 13.2 20.01 11.21 20.22 11.07 20.44 10.93 20.22 8.84 20.48 8.43 20.74 8.02 21.5 7.79 21.86 7.92 21.86 7.92 22.53 7.67 22.94 8.4 22.94 8.4 23.6 8.43 23.6 8.91 23.6 8.91 24.04 8.91 24.11 9.25 24.19 9.58 23.57 9.2 23.25 9.88Z" fill="#F5CA80" opacity="0.45"/></g><g><g><path d="M16.74 18.7C16.74 18.7 18.04 17.65 18.65 17.47 19.27 17.29 19.93 18.31 20.38 20.52 20.84 22.73 20.93 24.28 21.02 24.48 21.11 24.69 22.3 23.43 22.66 23.89 23.03 24.35 23.39 26.49 21.5 26.8 19.61 27.12 19.49 25.43 19.49 25.43 19.49 25.43 19.24 22.61 18.94 22.15 18.66 21.7 16.74 18.7 16.74 18.7Z" stroke="#E9B45E" stroke-width="0.0626" stroke-linecap="round" stroke-linejoin="round" fill="#FFDD97"/><path d="M22.67 23.89C22.31 23.43 21.12 24.69 21.03 24.48 20.94 24.28 20.85 22.73 20.39 20.52 19.93 18.31 19.27 17.29 18.66 17.47 18.04 17.65 16.75 18.7 16.75 18.7 16.75 18.7 16.95 19.01 17.23 19.45 17.2 19.03 17.33 18.58 17.71 18.39 17.71 18.39 18.47 17.79 18.91 17.83 19.35 17.87 20.03 18.63 20.26 21.17 20.5 23.72 20.58 24.51 20.86 24.83 21.14 25.15 20.18 26.46 19.66 24.83 19.14 23.2 19.26 21.01 18.9 20.18 18.54 19.34 18.62 19.62 17.98 20.22 17.91 20.28 17.84 20.32 17.78 20.33 18.28 21.12 18.81 21.94 18.95 22.16 19.25 22.62 19.5 25.44 19.5 25.44 19.5 25.44 19.61 27.12 21.51 26.81 23.4 26.48 23.03 24.34 22.67 23.89Z" fill="#F5CA80" opacity="0.45"/></g><g><g><path d="M21 24.39C21 24.39 21.18 25.23 21.55 25.37 21.92 25.51 21 26.1 20.41 26.08 19.82 26.06 19.5 25.67 19.5 25.35 19.5 25.03 18.93 25.94 19.45 27.03 19.97 28.12 21.46 28.1 23.05 27.1 24.65 26.1 25.81 24.19 24.99 22.87 24.17 21.55 23.19 22.53 22.73 22.98 22.27 23.43 21.86 23.91 21.59 23.91 21.32 23.91 20.91 24.21 21 24.39Z" stroke="#727731" stroke-width="0.0939" stroke-linecap="round" stroke-linejoin="round" fill="#8A9539"/><path d="M24.99 22.86C24.17 21.54 23.19 22.52 22.73 22.97 22.27 23.42 21.86 23.9 21.59 23.9 21.32 23.9 20.91 24.2 21 24.38 21 24.38 21.18 25.22 21.55 25.36 21.92 25.5 21 26.09 20.41 26.07 19.82 26.05 19.5 25.66 19.5 25.34 19.5 25.02 18.93 25.93 19.45 27.02 19.97 28.11 21.46 28.09 23.05 27.09 24.65 26.1 25.81 24.19 24.99 22.86ZM22.56 26.63C20.17 28.14 19.33 26.59 20.17 26.47 21.01 26.35 22.76 25.95 22.08 25.44 21.4 24.92 21.64 24.05 22.64 23.65 22.64 23.65 23.08 22.81 23.88 22.81 24.68 22.81 24.95 25.11 22.56 26.63Z" fill="#8A9539" opacity="0.3"/></g><g><path d="M21.6 23.91C21.6 23.91 22.18 24.08 22.44 25.18 22.55 25.66 23.56 24.54 23.44 24.09 23.33 23.63 22.52 23.32 22.52 23.32 22.52 23.32 21.41 23.16 21.6 23.91Z" stroke="#C1C030" stroke-width="0.0939" stroke-linecap="round" stroke-linejoin="round" fill="#E6E658"/><path d="M23.44 24.09C23.33 23.63 22.52 23.32 22.52 23.32 22.52 23.32 22.42 23.31 22.29 23.31 22.63 23.56 23 23.9 22.96 24.16 22.88 24.64 22.6 24.52 22.44 24.24 22.32 24.03 21.9 23.77 21.59 23.64 21.57 23.71 21.57 23.8 21.6 23.91 21.6 23.91 22.18 24.08 22.44 25.18 22.55 25.67 23.56 24.55 23.44 24.09Z" fill="#E6E658"/></g></g></g><g><g><path d="M25.59 23.99C25.59 23.99 24.97 24.86 25.52 25.67 26.07 26.49 28.21 27.51 29.76 24.9 31.31 22.28 30.79 19.78 29.62 19.41 28.46 19.04 28.02 20.84 27.73 21.44 27.43 22.03 26.16 21.89 26.13 22.37 26.11 22.85 25.59 23.99 25.59 23.99Z" stroke="#727731" stroke-width="0.0939" stroke-linecap="round" stroke-linejoin="round" fill="#8A9539"/><path d="M29.62 19.42C28.46 19.05 28.02 20.85 27.73 21.45 27.43 22.04 26.16 21.9 26.13 22.38 26.11 22.86 25.58 24 25.58 24 25.58 24 24.96 24.87 25.51 25.68 26.06 26.5 28.2 27.52 29.75 24.91 31.31 22.28 30.79 19.78 29.62 19.42ZM29.06 24.4C27.27 27.07 25.35 25.16 26.07 24.92 26.79 24.68 28.22 23.61 27.58 22.89 26.94 22.17 27.22 22.01 27.66 22.17 28.1 22.33 28.14 21.57 28.14 21.57 28.14 21.57 27.98 20.38 29.06 20.14 30.13 19.9 30.85 21.73 29.06 24.4Z" fill="#8A9539" opacity="0.3"/></g><g><path d="M26.89 21.97C26.89 21.97 27.53 22.63 27.46 23.38 27.39 24.13 29.08 23.2 28.67 22.17 28.26 21.15 27.64 21.26 27.48 21.26 27.32 21.26 26.75 21.72 26.89 21.97Z" stroke="#C1C030" stroke-width="0.0939" stroke-linecap="round" stroke-linejoin="round" fill="#E6E658"/><path d="M28.66 22.17C28.35 21.4 27.92 21.27 27.66 21.26 27.93 21.58 28.24 22.04 28.17 22.39 28.05 23.01 27.7 22.85 27.63 22.43 27.57 22.12 27.2 21.78 26.96 21.63 26.87 21.75 26.83 21.87 26.88 21.96 26.88 21.96 27.52 22.62 27.45 23.37 27.39 24.13 29.08 23.19 28.66 22.17Z" fill="#E6E658"/></g><g><path d="M19.53 24.04C19.53 24.04 21.36 22.45 22.64 21.06 22.92 20.76 23.28 22.21 25.89 24.44 26.08 24.6 27.26 24.28 27.01 23.35 27.01 23.35 24.94 20.6 24.07 19.43 23.12 18.15 22.12 17.6 18.23 21.27L19.53 24.04Z" stroke="#E9B45E" stroke-width="0.0626" stroke-linecap="round" stroke-linejoin="round" fill="#FFDD97"/><g><path d="M22.64 21.06C22.64 21.06 22.76 20.86 23.16 21.02L22.64 21.06Z" fill="#FFDD97"/><path d="M22.64 21.09C22.63 21.09 22.63 21.09 22.62 21.09 22.61 21.08 22.6 21.06 22.61 21.05 22.62 21.04 22.75 20.83 23.17 21 23.19 21.01 23.19 21.02 23.19 21.04 23.18 21.06 23.17 21.06 23.15 21.06 22.78 20.91 22.68 21.08 22.67 21.09 22.66 21.08 22.65 21.09 22.64 21.09L22.64 21.09Z" fill="#E9B45E"/></g><path d="M27.01 23.34C27.01 23.34 24.94 20.59 24.07 19.42 23.12 18.14 22.12 17.59 18.23 21.26L19.53 24.03C19.53 24.03 21.36 22.44 22.64 21.05 22.92 20.75 23.28 22.2 25.89 24.43 26.09 24.6 27.26 24.28 27.01 23.34ZM26.03 23.8C25.31 23.52 23.2 21.37 23.56 21.37 23.92 21.37 23 19.58 21.25 21.33 19.5 23.08 18.82 21.53 18.82 21.53 18.82 21.53 18.54 20.77 20.81 19.46 23.08 18.15 23.24 18.69 24.99 20.97 26.83 23.36 26.75 24.08 26.03 23.8Z" fill="#F5CA80" opacity="0.45"/></g></g><path d="M10.52 25.28C10.52 25.28 11.25 27.35 13.83 27.49 16.41 27.63 17.89 26.62 18.53 25.71 19.17 24.8 19.53 24.71 19.65 24.71 19.76 24.71 20.13 24.53 20.08 23.98 20.03 23.43 19.1 20.54 18.41 20.77 18.41 20.77 18.14 18.81 16.84 18.45 16.84 18.45 16.2 18.54 16.29 18.86L16.38 19C16.37 18.99 9.54 22.36 10.52 25.28Z" stroke="#2F2612" stroke-width="0.0939" stroke-linecap="round" stroke-linejoin="round" fill="#443513"/><path d="M17.45 21.19C17.36 21.19 17.25 21.14 17.14 21.09 16.98 21.02 16.81 20.94 16.7 21.01 16.68 21.02 16.65 21.02 16.64 21 16.63 20.98 16.63 20.95 16.65 20.94 16.8 20.84 17 20.93 17.18 21.01 17.31 21.07 17.45 21.13 17.51 21.08 17.68 20.91 18.37 20.73 18.4 20.73 18.42 20.72 18.45 20.74 18.46 20.76 18.47 20.78 18.45 20.81 18.43 20.82 18.24 20.87 17.71 21.02 17.59 21.15 17.54 21.18 17.5 21.19 17.45 21.19L17.45 21.19Z" fill="#2F2612"/><path d="M19.48 24.82C19.47 24.82 19.47 24.82 19.48 24.82 19.45 24.82 19.43 24.79 19.43 24.77 19.43 24.77 19.49 24.24 19.18 23.06 18.87 21.88 17.93 20.93 17.92 20.92 17.9 20.9 17.9 20.87 17.92 20.85 17.94 20.83 17.97 20.83 17.99 20.85 18 20.86 18.96 21.83 19.28 23.03 19.6 24.23 19.53 24.76 19.53 24.78 19.52 24.81 19.5 24.82 19.48 24.82L19.48 24.82Z" fill="#2F2612"/><path d="M17.95 20.93C17.93 20.93 17.91 20.92 17.9 20.89 17.57 19.52 16.37 19.04 16.35 19.03 16.33 19.02 16.31 18.99 16.32 18.97 16.33 18.95 16.36 18.93 16.38 18.94 16.39 18.94 17.64 19.44 17.98 20.86 17.99 20.89 17.97 20.91 17.95 20.92 17.96 20.93 17.95 20.93 17.95 20.93L17.95 20.93Z" fill="#2F2612"/><path d="M18.7 21.06C18.7 21.06 19.22 21.51 19.39 22.17 19.56 22.82 20.1 23.78 19.96 24.06 19.83 24.35 19.78 23.91 19.76 23.74 19.74 23.57 19.54 23 19.59 23.45 19.64 23.9 19.67 24.41 19.59 24.31 19.51 24.21 19.66 23.44 19.17 22.43 18.68 21.43 18.26 20.83 18.7 21.06Z" fill="#5A4A2D" opacity="0.39"/><path d="M16.85 18.65C16.9 18.66 17.55 18.8 17.94 19.64 18.33 20.48 18.28 20.65 18.06 20.29 17.84 19.94 17.69 19.77 17.77 19.95 17.85 20.13 17.28 19.31 16.8 19.06 16.31 18.81 16.7 18.78 16.88 18.83 17.07 18.89 16.45 18.53 16.85 18.65Z" fill="#5A4A2D" opacity="0.39"/><path d="M14.22 25.34C13.93 25.34 13.76 25.32 13.75 25.32 13.73 25.32 13.72 25.3 13.72 25.29 13.72 25.27 13.74 25.26 13.75 25.26 13.75 25.26 13.93 25.28 14.21 25.28 15.21 25.28 17.69 25.03 19.03 22.73 19.04 22.72 19.06 22.71 19.07 22.72 19.09 22.73 19.09 22.75 19.08 22.76 17.74 25.09 15.24 25.34 14.22 25.34L14.22 25.34Z" fill="#2F2612"/><path d="M7.89 16.04C7.89 16.04 7.5 16.84 8.28 18.91 9.06 20.98 9.01 22.32 8.92 22.85 8.83 23.37 8.67 23.21 8.92 23.53 9.17 23.85 8.62 24.67 8.81 24.94 8.99 25.21 11.11 26.78 14.08 25.14 17.04 23.5 17.55 21.32 17.14 21.22 16.73 21.13 17.46 20.79 17.09 20.29 16.73 19.79 15.7 18.7 15.47 17.26 15.47 17.26 16.2 16.42 16.22 16.21 16.24 16 15.01 14.53 13.78 14.48 12.54 14.44 8.3 14.99 7.89 16.04Z" stroke="#968B40" stroke-width="0.0939" stroke-linecap="round" stroke-linejoin="round" fill="#D1C12A"/><path d="M15.05 17.77C15.04 17.77 15.03 17.77 15.02 17.76 15 17.74 15 17.71 15.02 17.69 15.18 17.53 15.43 17.24 15.43 17.24 15.45 17.22 15.48 17.22 15.5 17.23 15.52 17.25 15.52 17.28 15.5 17.3 15.49 17.31 15.25 17.6 15.09 17.76 15.08 17.76 15.07 17.77 15.05 17.77L15.05 17.77Z" fill="#968B40"/><path d="M15.03 24.85C15.03 24.85 17.47 23.14 17.51 22.17 17.55 21.2 17.66 21.54 17.71 21.97 17.77 22.4 18.04 22.23 17.97 21.69 17.9 21.15 18.77 22.1 18.68 22.68 18.58 23.25 16.98 24.96 15.03 24.85Z" fill="#5A4A2D" opacity="0.39"/><path d="M14.24 27.5C16.2 27.51 17.47 26.84 18.18 26.12 17.38 26.08 15.56 25.83 15.56 25.83 15.55 26.05 14.49 27.22 14.24 27.5Z" stroke="#2F2612" stroke-width="0.0939" stroke-linecap="round" stroke-linejoin="round" fill="#443513"/><path d="M13.88 25.55C13.88 25.55 16.95 25.9 17.99 24.55 19.03 23.19 19.26 23.99 19.22 24.48 19.18 24.96 19.01 24.81 18.92 24.5 18.83 24.18 18.49 24.7 18.4 25.43 18.31 26.15 16 27.49 13.99 27.27 11.98 27.05 10.97 26.32 12.41 26.27 13.84 26.2 13.48 25.57 13.88 25.55Z" fill="#5A4A2D" opacity="0.39"/><path d="M17.13 21.23C16.72 21.14 17.45 20.8 17.08 20.3 16.72 19.8 15.69 18.71 15.46 17.27 15.46 17.27 16.19 16.43 16.21 16.22 16.23 16.01 15 14.54 13.77 14.49 12.54 14.44 8.3 14.99 7.89 16.04 7.89 16.04 7.5 16.84 8.28 18.91 9.06 20.98 9.01 22.32 8.92 22.85 8.83 23.37 8.67 23.21 8.92 23.53 9.17 23.85 8.62 24.67 8.81 24.94 8.99 25.21 11.11 26.78 14.08 25.14 17.04 23.5 17.54 21.32 17.13 21.23ZM13.39 24.93C10.13 26.06 8.97 24.12 9.6 24.24 10.23 24.37 11.04 23.77 10.54 23.77 10.04 23.77 9.26 23.39 9.48 23.02 9.7 22.64 9.69 20.84 8.73 19.14 7.41 16.82 8.92 16.82 8.92 16.82 8.89 16.69 9.23 16.73 9.83 16.98 10.42 17.23 10.36 16.82 11.21 16.89 12.06 16.95 11.49 16.26 12.18 16.23 12.87 16.2 12.49 15.64 13.12 15.57 13.75 15.51 13.56 15.16 14.28 15.07 15 14.98 15.81 16.35 15.06 17.17 14.31 17.98 14.81 18.42 15 18.2 15.19 17.98 15.16 17.95 15.44 18.7 15.72 19.45 15.35 21.39 14.5 22.2 13.65 23.01 14.97 22.64 15.94 21.92 16.9 21.21 16.65 23.8 13.39 24.93Z" fill="#D1C12A" opacity="0.5"/><g><path d="M16.97 8.48C16.83 7.71 16.91 6.23 15.96 5.01 15.8 5.29 15.08 5.03 15.08 5.03 15.16 5.32 15.33 6.37 15.1 6.48 14.87 6.59 14.73 6.37 14.73 6.37 15.01 7.21 14.22 7.74 14.22 7.74 14.22 7.74 14.12 9.3 14.16 9.68 14.2 10.06 14.17 10.41 14.06 10.04 13.95 9.67 13.43 9.01 12.78 9.21 12.03 9.45 11.93 10.48 12.34 11.36 12.75 12.24 13.44 12.08 13.44 12.08 13.78 12.85 13.49 13.88 13.25 14.12 13 14.37 13.02 13.93 12.97 14.14 12.91 14.35 12.75 14.65 12.75 14.65 12.97 14.79 12.88 15.03 12.88 15.03 12.88 15.03 14.37 14.89 15.69 13.46 15.69 13.46 16.29 12.86 16.56 12 16.56 12 16.85 11.74 16.85 11.58 16.85 11.42 16.75 11.35 16.75 11.35 16.75 11.35 16.79 11.34 16.84 11.32L16.83 11.31C16.52 11.42 16 11.5 16 11.5 16 11.5 16.52 11.43 16.83 11.31L16.84 11.32C17.07 11.25 17.53 11.04 17.52 10.53 17.51 10.17 16.82 10.48 17.38 9.77 17.6 9.49 17.94 9.3 17.73 9.03 17.51 8.76 17.12 9.24 16.97 8.48Z" stroke="#E9B45E" stroke-width="0.0626" stroke-linecap="round" stroke-linejoin="round" fill="#FFDD97"/><g opacity="0.46"><path d="M13.93 13.39C13.79 11.67 14.61 10.6 14.53 9.71 14.45 8.83 14.38 8.03 14.65 7.69 14.93 7.35 15.06 6.69 15.06 6.69 15.81 6.54 15.37 5.29 15.37 5.29 15.74 5.47 16.03 5.28 16.11 5.22 16.06 5.15 16.01 5.07 15.95 5 15.79 5.28 15.07 5.02 15.07 5.02 15.15 5.31 15.32 6.36 15.09 6.47 14.86 6.58 14.72 6.36 14.72 6.36 15 7.2 14.21 7.73 14.21 7.73 14.21 7.73 14.11 9.29 14.15 9.67 14.19 10.05 14.16 10.4 14.05 10.03 13.94 9.66 13.42 9 12.77 9.2 12.02 9.44 11.92 10.47 12.33 11.35 12.74 12.23 13.43 12.07 13.43 12.07 13.77 12.84 13.48 13.87 13.24 14.11 12.99 14.36 13.01 13.92 12.96 14.13 12.9 14.34 12.74 14.64 12.74 14.64 12.96 14.78 12.87 15.02 12.87 15.02 12.87 15.02 13.74 14.94 14.74 14.26 14.34 14.4 14 14.23 13.93 13.39Z" fill="#ECBD72"/><path d="M15.41 7.62C15 8.12 15.17 9.24 15.45 9.5 15.74 9.76 16.72 9.34 17.02 9.18 17.32 9.02 17.53 9.01 17.58 9.21 17.62 9.41 17.28 9.49 17.09 9.64 16.91 9.79 16.63 10.05 17.26 10.56 17.76 10.97 16.17 11.39 16.01 11.42 15.85 11.45 15.66 11.54 15.92 11.61 16.18 11.68 16.75 11.52 16.75 11.52 16.72 12.02 16.01 11.93 16.27 12.06 16.37 12.11 16.41 12.22 16.4 12.38 16.45 12.26 16.5 12.14 16.54 12.01 16.54 12.01 16.83 11.75 16.83 11.59 16.83 11.43 16.73 11.36 16.73 11.36 16.73 11.36 16.77 11.35 16.82 11.33L16.81 11.32C16.5 11.43 15.98 11.51 15.98 11.51 15.98 11.51 16.5 11.44 16.81 11.32L16.82 11.33C17.05 11.26 17.63 10.83 17.5 10.54 17.33 10.17 16.85 10.4 17.36 9.78 17.58 9.51 17.92 9.31 17.71 9.04 17.5 8.77 17.11 9.25 16.96 8.48 16.85 7.89 16.87 6.89 16.46 5.91 16.49 6.07 16.52 6.23 16.55 6.39 16.7 7.23 15.83 7.11 15.41 7.62Z" fill="#ECBD72"/></g><path d="M16.37 6.26C16.37 6.26 15.75 6.15 15.33 6.61 15.33 6.61 14.88 7.22 14.89 6.8 14.9 6.39 15.45 5.63 16.39 5.8 16.39 5.8 16.55 5.82 16.5 5.94 16.45 6.06 16.67 6.27 16.37 6.26Z" stroke="#5D3816" stroke-width="0.0626" fill="#77491E"/><g><path d="M3.82 14.79C3.81 14.74 3.79 14.72 3.82 14.79L3.82 14.79Z" fill="none"/><path d="M13.99 6.96C14 6.94 14 6.91 14 6.89 14 6.89 14 6.92 13.99 6.96Z" stroke="#E02E64" stroke-width="0.0626" stroke-linecap="round" stroke-linejoin="round" fill="none"/><path d="M15.51 1.67C15.51 1.67 15.71 1.22 14.89 1.21 14.89 1.21 15.19 0.94 14.99 0.58 14.79 0.22 14.8 0.77 13.97 0.64 13.14 0.51 7.58-1.33 4.71 2.24 4.71 2.24 4.62 1.82 4.44 1.94 4.27 2.04 4.13 2.77 4.13 2.77 4.13 2.77 3.97 2.01 3.59 2.13 3.21 2.25 3.52 3 3.6 3.11 3.68 3.21 2.6 2.79 2.46 3.37 2.33 3.95 3.14 3.92 3.14 3.92 3.14 3.92 1.71 4.81 1.21 7.2 0.72 9.6-0.15 9.84 0.14 10.18 0.43 10.52 0.95 10.01 0.95 10.01 0.95 10.01 0.88 12.73 1.89 13.21 1.89 13.21 2.14 13.26 2.21 13.02 2.21 13.02 3.12 15.05 3.58 15 3.82 14.97 3.83 14.85 3.82 14.78 3.79 14.71 3.81 14.73 3.82 14.78 3.83 14.8 3.85 14.83 3.87 14.87 4.07 15.21 5.02 16.43 5.67 15.96 5.67 15.96 6.33 16.52 6.88 16.15 6.88 16.15 7.63 16.57 8.11 16.41 8.11 16.41 8.22 16.55 8.08 16.73 7.95 16.9 8.78 16.88 8.62 16.06 8.62 16.06 9.18 16.7 9.55 16.52 9.92 16.34 9.65 16.02 9.65 16.02 9.65 16.02 10.58 16.56 10.89 16.17 10.89 16.17 11.03 16.03 10.87 15.85 10.87 15.85 11.72 15.9 12.07 15.57 12.07 15.57 12.25 15.45 12.07 15.31 12.07 15.31 12.63 15.42 12.86 15.04 12.86 15.04 12.95 14.81 12.73 14.66 12.73 14.66 12.89 14.36 12.95 14.15 13.01 13.94 12.99 14.37 13.23 14.13 13.48 13.88 13.76 12.85 13.42 12.09 13.42 12.09 12.73 12.25 12.32 11.37 11.91 10.49 12.01 9.45 12.76 9.22 13.4 9.02 13.92 9.68 14.04 10.05 14.15 10.42 14.18 10.07 14.14 9.69 14.1 9.31 14.2 7.75 14.2 7.75 14.2 7.75 14.23 7.73 14.27 7.7 14.26 7.7 14.25 7.7 14.25 7.7 13.9 7.81 13.95 7.18 13.98 6.97 13.78 8.25 12.48 8.24 12.83 7.77 13.19 7.29 13.29 6.35 13.29 6.35 13.29 6.35 13.19 7.29 12.83 7.77 12.48 8.24 13.78 8.25 13.98 6.97 14 6.92 14 6.89 14 6.89 14 6.91 13.99 6.94 13.99 6.96 13.96 7.17 13.9 7.8 14.26 7.69 14.27 7.69 14.28 7.69 14.28 7.69 14.46 7.54 14.95 7.06 14.72 6.37 14.72 6.37 14.87 6.59 15.09 6.48 15.32 6.37 15.15 5.32 15.07 5.03 15.07 5.03 15.8 5.28 15.95 5.01 15.95 5.01 16.16 4.79 15.66 4.42 15.66 4.42 16.3 4.76 16.41 4.52 16.52 4.28 16.12 3.77 16.12 3.77 16.12 3.77 16.34 3.92 16.5 3.63 16.5 3.63 16.72 3.86 16.85 3.7 16.98 3.55 16.61 3.19 16.61 3.19 16.61 3.19 17 3.04 16.74 2.67 16.49 2.31 15.51 1.67 15.51 1.67Z" stroke="#472C16" stroke-width="0.0939" stroke-linecap="round" stroke-linejoin="round" fill="#613E19"/></g><path d="M11 3.33C11 3.33 11.3 3.66 11.81 3.6 12.32 3.54 11.86 4.38 11.34 4.34 11.34 4.34 12.03 4.78 11.77 5.12 11.77 5.12 12.18 4.8 11.83 4.43 11.83 4.43 12.76 4.07 12.3 3.58 11.96 3.21 11.83 3.73 11 3.33Z" fill="#613E19" opacity="0.2"/><path d="M3.82 14.79C3.81 14.74 3.79 14.72 3.82 14.79L3.82 14.79Z" stroke="#E02E64" stroke-width="0.0626" stroke-linecap="round" stroke-linejoin="round" fill="none"/><g><path d="M11 3.33C11 3.33 11.3 3.66 11.81 3.6 12.32 3.54 11.86 4.38 11.34 4.34 11.34 4.34 12.03 4.78 11.77 5.12L11 3.33Z" fill="#613E19"/><path d="M11.77 5.17C11.76 5.17 11.75 5.17 11.74 5.16 11.72 5.14 11.72 5.11 11.73 5.09 11.77 5.03 11.79 4.97 11.77 4.91 11.72 4.65 11.31 4.39 11.31 4.38 11.29 4.37 11.28 4.35 11.29 4.33 11.3 4.31 11.32 4.3 11.34 4.3 11.58 4.32 11.81 4.13 11.92 3.94 11.98 3.83 12 3.73 11.97 3.69 11.94 3.65 11.87 3.65 11.82 3.65 11.3 3.72 10.98 3.38 10.97 3.37 10.95 3.35 10.95 3.32 10.97 3.3 10.99 3.28 11.02 3.28 11.04 3.3 11.04 3.3 11.33 3.61 11.81 3.55 11.95 3.53 12.02 3.58 12.05 3.63 12.1 3.72 12.08 3.85 12 3.99 11.9 4.16 11.7 4.34 11.47 4.39 11.61 4.49 11.83 4.69 11.87 4.9 11.89 4.99 11.87 5.08 11.81 5.16 11.8 5.17 11.78 5.17 11.77 5.17L11.77 5.17Z" fill="#472C16"/></g><g><path d="M2.61 13.83C2.65 13.92 2.7 14.01 2.75 14.11 2.85 14.29 2.95 14.43 3.03 14.53 2.89 14.32 2.74 14.07 2.61 13.83Z" fill="none"/><path d="M1.11 7.65C0.51 9.27-0.22 9.47 0.06 10.06 0.06 10.06 0.07 10.07 0.09 10.09 0.02 9.8 0.66 9.44 1.11 7.65Z" fill="none"/><path d="M3.82 14.79C3.81 14.74 3.79 14.72 3.82 14.79L3.82 14.79Z" fill="none"/><path d="M13.98 0.64C14.05 0.65 14.11 0.66 14.17 0.66 13.99 0.65 13.76 0.6 13.44 0.49 12.98 0.33 11.75 0.04 10.3 0.05 12.08 0.11 13.58 0.57 13.98 0.64Z" fill="none"/><path d="M13.99 6.96C14 6.94 14 6.91 14 6.89 14 6.89 14 6.92 13.99 6.96Z" fill="none"/><path d="M1.11 11.83C1.17 12.28 1.31 12.61 1.46 12.78 1.29 12.5 1.17 12.13 1.1 11.75 1.1 11.78 1.1 11.81 1.11 11.83Z" fill="none"/><g><path d="M3.54 3.66C2.49 3.77 2.47 3.42 2.49 3.3 2.48 3.32 2.47 3.34 2.47 3.37 2.33 3.95 3.14 3.92 3.14 3.92 3.14 3.92 1.71 4.81 1.21 7.2 1.18 7.36 1.14 7.5 1.11 7.64 1.17 7.48 1.22 7.32 1.28 7.13 1.9 5.05 3.54 3.66 3.54 3.66Z" fill="#613E19" opacity="0.33"/><path d="M4.74 2.64C6.15 0.61 8.41 0.07 10.3 0.06 8.4 5.55112e-17 6.2 0.4 4.71 2.24 4.71 2.24 4.62 1.82 4.44 1.94 4.59 1.89 4.74 2.64 4.74 2.64Z" fill="#613E19" opacity="0.33"/><path d="M0.09 10.09C0.1 10.12 0.12 10.15 0.14 10.18 0.43 10.52 0.95 10.01 0.95 10.01 0.95 10.01 0.93 10.9 1.1 11.75 0.97 10.7 1.22 9.42 1.22 9.42 0.48 10.28 0.18 10.16 0.09 10.09Z" fill="#613E19" opacity="0.33"/><path d="M15.51 1.67C15.51 1.67 15.71 1.22 14.89 1.21 14.89 1.21 15.19 0.94 14.99 0.58 14.81 0.25 14.8 0.69 14.16 0.66 14.58 0.69 14.68 0.56 14.77 0.74 14.9 0.99 14.44 1.27 14.44 1.27 14.44 1.27 15.31 1.22 15.32 1.44 15.34 1.66 15.07 1.65 15.07 1.65 15.07 1.65 15.94 2.15 16.3 2.44 16.67 2.73 16.47 2.93 16.27 2.86 16.07 2.8 16.2 2.83 16.45 3.15 16.7 3.46 16.3 3.46 16.3 3.46 16.32 3.8 15.68 3.51 15.68 3.51 15.68 3.51 16.29 4.12 16.2 4.37 16.11 4.62 15.57 4.16 15.35 4.2 15.13 4.24 15.86 4.7 15.73 4.92 15.6 5.15 14.79 4.7 14.79 4.7 14.79 4.7 15.03 6.06 14.81 6.17 14.58 6.28 14.43 5.91 14.43 5.91 14.57 6.31 14.68 7.12 14.34 7.24 13.99 7.36 14.14 5.89 14.01 6.7 13.88 7.51 13.02 7.9 13.14 7.62 13.26 7.33 13.52 6.79 13.33 6.28 13.14 5.77 13.05 6.86 12.73 7.48 12.4 8.1 12.62 8.2 12.62 8.2 13.11 8.74 13.84 7.82 13.77 8.15 13.7 8.48 13.84 9.25 13.4 8.92 12.84 8.49 12.23 9.24 12.23 9.24 11.04 10.86 12.72 12.66 12.94 12.67 13.16 12.68 13.24 12.32 13.24 12.32 13.24 12.32 13.52 13.6 13.17 13.84 12.82 14.09 12.92 12.94 12.78 13.62 12.64 14.29 12.24 14.66 12.24 14.66 12.24 14.66 12.8 14.71 12.62 15.01 12.45 15.32 11.64 15.08 11.64 15.08 11.64 15.08 12 15.31 11.81 15.55 11.62 15.8 10.53 15.64 10.53 15.64 10.89 16.04 10.52 16.39 9.73 15.91 8.94 15.43 9.68 15.96 9.44 16.31 9.21 16.66 8.47 15.9 8.47 15.9 8.71 16.47 8.15 16.74 8.24 16.49 8.33 16.24 8.13 16.16 8.13 16.16 7.33 16.43 6.58 15.68 6.58 15.68 6.58 15.68 6.84 16.08 6.33 16.14 5.82 16.2 5.28 15.41 5.28 15.41 5.28 15.87 4.93 15.95 4.41 15.46 3.9 14.96 3.47 13.93 3.47 13.93 3.66 14.46 3.52 15.18 3.03 14.57 3.23 14.85 3.43 15.06 3.58 15.04 3.82 15.01 3.83 14.89 3.82 14.82 3.79 14.75 3.81 14.77 3.82 14.82 3.83 14.84 3.85 14.87 3.87 14.91 4.07 15.25 5.02 16.47 5.67 16 5.67 16 6.33 16.56 6.88 16.19 6.88 16.19 7.63 16.61 8.11 16.45 8.11 16.45 8.22 16.59 8.08 16.77 7.95 16.94 8.78 16.92 8.62 16.1 8.62 16.1 9.18 16.74 9.55 16.56 9.92 16.38 9.65 16.06 9.65 16.06 9.65 16.06 10.58 16.6 10.89 16.21 10.89 16.21 11.03 16.07 10.87 15.89 10.87 15.89 11.72 15.94 12.07 15.61 12.07 15.61 12.25 15.49 12.07 15.35 12.07 15.35 12.63 15.46 12.86 15.08 12.86 15.08 12.95 14.85 12.73 14.7 12.73 14.7 12.89 14.4 12.95 14.19 13.01 13.98 12.99 14.41 13.23 14.17 13.48 13.92 13.76 12.89 13.42 12.13 13.42 12.13 12.73 12.29 12.32 11.41 11.91 10.53 12.01 9.49 12.76 9.26 13.4 9.06 13.92 9.72 14.04 10.09 14.15 10.46 14.18 10.11 14.14 9.73 14.1 9.35 14.2 7.79 14.2 7.79 14.2 7.79 14.23 7.77 14.27 7.74 14.26 7.74 14.25 7.74 14.25 7.74 13.9 7.85 13.95 7.22 13.98 7.01 13.78 8.29 12.48 8.28 12.83 7.81 13.19 7.33 13.29 6.39 13.29 6.39 13.29 6.39 13.19 7.33 12.83 7.81 12.48 8.28 13.78 8.29 13.98 7.01 14 6.92 14 6.89 14 6.89 14 6.91 13.99 6.94 13.99 6.96 13.96 7.17 13.9 7.8 14.26 7.69 14.27 7.69 14.28 7.69 14.28 7.69 14.46 7.54 14.95 7.06 14.72 6.37 14.72 6.37 14.87 6.59 15.09 6.48 15.32 6.37 15.15 5.32 15.07 5.03 15.07 5.03 15.8 5.28 15.95 5.01 15.95 5.01 16.16 4.79 15.66 4.42 15.66 4.42 16.3 4.76 16.41 4.52 16.52 4.28 16.12 3.77 16.12 3.77 16.12 3.77 16.34 3.92 16.5 3.63 16.5 3.63 16.72 3.86 16.85 3.7 16.98 3.55 16.61 3.19 16.61 3.19 16.61 3.19 17 3.04 16.74 2.67 16.49 2.31 15.51 1.67 15.51 1.67Z" fill="#613E19" opacity="0.33"/><path d="M2.05 12.53C1.92 12.98 1.67 13.03 1.46 12.79 1.58 12.98 1.72 13.13 1.89 13.21 1.89 13.21 2.14 13.26 2.21 13.02 2.21 13.02 2.38 13.4 2.61 13.83 2.07 12.68 2.25 11.81 2.05 12.53Z" fill="#613E19" opacity="0.33"/></g></g><path d="M4.54 3.58C4.54 3.58 2.52 4.39 1.75 6.79 1.75 6.79 1.52 8.17 0.83 9.18 0.14 10.19 1.22 9.35 1.34 8.99 1.46 8.63 1.12 10.93 1.47 11.76 1.83 12.59 2.05 10.86 2.16 11.52 2.27 12.19 2.58 13.75 3 13.8 3.42 13.85 3.06 12.74 3.58 13.77 4.11 14.8 4.89 15.53 4.86 14.81 4.82 14.1 4.87 14.06 5.14 14.7 5.41 15.33 6.05 15.13 5.73 14.42 5.41 13.71 7.12 15.92 7.65 15.43 8.18 14.95 7.58 14.84 8.18 15.44 8.78 16.04 8.89 15.61 8.41 14.87 7.93 14.12 8.61 15.23 9.31 15.17 10.01 15.11 9.29 14.37 10.01 14.79 10.74 15.2 10.76 14.59 10.31 14.21 9.85 13.83 10.76 14.59 11.46 12.94 11.46 12.94 11.6 12.99 11.72 13.23 11.84 13.47 12.46 12.93 11.92 11.9 11.16 10.45 11.5 8.86 11.62 9.42 11.74 9.98 12.08 9.16 12.16 8.62 12.23 8.08 12.1 7.92 11.71 8.42 11.33 8.92 12.42 7.29 12.72 6.22 13.01 5.15 13.41 5.11 13.48 5.98 13.55 6.85 14.07 6.23 13.7 5.34 13.33 4.45 14.04 5.93 14.16 5.57 14.28 5.21 14.24 4.39 14.42 4.94 14.6 5.49 14.68 4.52 14.4 4.14 14.12 3.76 14.81 4.33 14.93 4.08 15.05 3.83 14.38 3.45 14.94 3.61 15.5 3.77 15.63 3.37 15.03 3.09 14.43 2.81 15.25 2.77 15.66 2.93 16.08 3.08 15.6 2.23 14.89 2.23 14.89 2.23 15.23 1.94 14.53 1.72 14.53 1.72 14.52 1.27 13.22 1.44 13.22 1.44 14 1.29 13.8 0.92 13.6 0.56 10.29 0.02 8.99 0.29 7.71 0.58 9.51 0.69 9 0.88 8.49 1.06 5.51 1.37 4.54 3.58Z" fill="#77491E"/><g><path d="M4.51 4.23C4.51 4.23 3.54 4.84 3.84 4.81 4.14 4.78 4.8 4.11 4.67 4.71 4.58 5.07 5.32 3.87 5.83 3.8 6.34 3.73 5.93 3.4 5.37 3.76 5.21 3.87 5.38 3.23 5.87 2.84 6.36 2.45 4.67 2.94 4.54 4.18L4.51 4.23Z" fill="#613E19"/><path d="M4.34 4.49C4.33 4.49 4.32 4.49 4.32 4.48 4.31 4.47 4.31 4.45 4.32 4.44 4.34 4.43 4.71 4.12 4.94 4.11 4.95 3.97 5.01 3.38 5.64 2.93 5.65 2.92 5.67 2.92 5.68 2.94 5.7 2.95 5.69 2.97 5.68 2.98 4.99 3.48 5.01 4.13 5.01 4.14 5.01 4.15 5.01 4.16 5 4.16 4.99 4.17 4.98 4.18 4.97 4.18 4.8 4.15 4.47 4.39 4.36 4.48 4.36 4.49 4.35 4.49 4.34 4.49L4.34 4.49Z" fill="#472C16"/></g><g><path d="M16.31 7.03C16.23 7.03 16.15 7.03 16.07 7.05 15.56 7.16 15.2 7.66 15.16 8.15 15.12 8.65 15.37 9.16 15.87 9.3 16.63 9.51 17.27 8.88 17.18 8.09 17.12 7.59 16.83 7.05 16.31 7.03Z" stroke="#E29E4D" stroke-width="0.0939" stroke-linecap="round" stroke-linejoin="round" fill="#F0F1B4"/><path d="M16.31 7.26C16.24 7.26 16.17 7.26 16.11 7.28 15.69 7.37 15.39 7.78 15.36 8.2 15.33 8.61 15.54 9.04 15.95 9.15 16.58 9.33 17.11 8.8 17.04 8.15 16.99 7.73 16.74 7.28 16.31 7.26Z" fill="#FFFCEC"/><g><g><path d="M16.78 7.67C16.98 7.8 17.06 8.06 17.06 8.32 17.05 8.86 16.61 9 16.37 8.97 16.13 8.94 15.75 8.7 15.84 8.11 15.91 7.64 16.45 7.46 16.78 7.67Z" fill="#C08D2C"/><path d="M16.79 7.85C16.94 7.95 17.01 8.15 17 8.35 16.99 8.76 16.65 8.87 16.47 8.85 16.29 8.83 16 8.64 16.07 8.19 16.13 7.83 16.54 7.69 16.79 7.85Z" fill="#7A5B25"/><path d="M16.83 8.02C16.92 8.08 16.96 8.2 16.96 8.32 16.96 8.57 16.75 8.63 16.64 8.62 16.53 8.61 16.35 8.49 16.39 8.22 16.43 8.01 16.68 7.92 16.83 8.02Z" fill="#4E3C17"/></g><path d="M15.74 7.91C15.68 8.09 15.75 8.27 15.89 8.31 16.03 8.36 16.19 8.25 16.25 8.07 16.31 7.89 16.24 7.71 16.1 7.67 15.96 7.62 15.8 7.73 15.74 7.91Z" fill="#F0F1B4" opacity="0.86"/><path d="M16.61 8.57C16.58 8.68 16.62 8.79 16.71 8.82 16.8 8.85 16.9 8.78 16.93 8.67 16.96 8.56 16.92 8.45 16.83 8.42 16.75 8.39 16.65 8.46 16.61 8.57Z" fill="#F0F1B4" opacity="0.76"/></g></g><g><path d="M13.48 11.06C13.48 11.06 13.18 10.73 13.46 10.38 13.74 10.05 13.19 9.49 12.85 9.65 12.42 9.86 12.32 10.95 12.8 11.37 13.21 11.73 13.48 11.06 13.48 11.06Z" fill="#ECBD72" opacity="0.5"/><g><path d="M12.92 10.55C12.95 11.2 13.53 11.11 13.05 11.48 13.32 11.47 13.49 11.06 13.49 11.06 13.49 11.06 13.19 10.73 13.47 10.38 13.6 10.22 13.54 10.01 13.41 9.85 13.34 9.87 12.89 9.95 12.92 10.55Z" fill="#ECBD72" opacity="0.5"/></g><path d="M13.48 11.06C13.48 11.06 13.18 10.73 13.46 10.38 13.74 10.05 13.19 9.49 12.85 9.65 12.42 9.86 12.32 10.95 12.8 11.37 13.21 11.73 13.48 11.06 13.48 11.06Z" stroke="#DFA751" stroke-width="0.0626" stroke-linecap="round" stroke-linejoin="round" fill="none"/></g></g></g></svg>