<svg width="23.34" height="49.17" viewBox="0 0 23.34 49.17" xmlns="http://www.w3.org/2000/svg" xmlns:xlink="http://www.w3.org/1999/xlink" xml:space="preserve" overflow="hidden"><defs></defs><g><path d="M22.58 46.54C22.56 48.06 18.71 49.24 13.97 49.17 9.23 49.1 5.41 47.83 5.42 46.31 5.44 44.79 9.29 43.61 14.03 43.68 18.77 43.74 22.59 45.02 22.58 46.54L22.58 46.54Z" fill="#9FA9AC" opacity="0.15"/><path d="M8.99 44.54C8.99 44.54 8.63 44.61 8.84 45.39 9.05 46.17 10.45 49.24 13.36 48.55 16.28 47.85 14.49 46.75 17.21 47.44 19.93 48.13 22.39 46.23 20.82 45.55 19.25 44.87 14.48 44.42 14.48 44.42 14.48 44.42 14.59 45.25 13.58 44.68 12.58 44.1 9.54 44.24 8.99 44.54L8.99 44.54Z" fill="#A68C47" opacity="0.5"/><g><path d="M16.22 41.64C16.85 41.55 16.9 41.14 16.9 41.14L16.86 40.66C16.86 40.66 17.25 40.58 17.38 41.12 17.5 41.6 17.59 42.26 17.46 42.52 17.43 42.54 17.4 42.56 17.36 42.58 16.4 43.16 15.15 42.68 15.15 42.68 15.15 42.68 14.85 42.73 14.71 42.08 14.57 41.43 14.67 41.08 14.93 40.87L15.07 40.75 15.26 41.57C15.26 41.57 15.59 41.73 16.22 41.64L16.22 41.64Z" fill="#D5C58D"/><path d="M16.22 41.64C16.85 41.55 16.9 41.14 16.9 41.14L16.86 40.66C16.86 40.66 17.25 40.58 17.38 41.12 17.5 41.6 17.59 42.26 17.46 42.52 17.43 42.54 17.4 42.56 17.36 42.58 16.4 43.16 15.15 42.68 15.15 42.68 15.15 42.68 14.85 42.73 14.71 42.08 14.57 41.43 14.67 41.08 14.93 40.87L15.07 40.75 15.26 41.57C15.26 41.57 15.59 41.73 16.22 41.64Z" stroke="#A5935C" stroke-width="0.0607" fill="none"/><path d="M14.93 36.58C15.18 34.88 14.63 33.28 14.63 33.28L16.97 34.13C16.97 34.13 17.18 35.59 16.84 36.17 16.51 36.75 16.84 39.42 16.87 40.66L16.91 41.14C16.91 41.14 16.86 41.55 16.23 41.64 15.6 41.73 15.27 41.57 15.27 41.57L15.08 40.75C15.07 40.75 14.68 38.28 14.93 36.58L14.93 36.58Z" fill="#DBAA4A"/><path d="M14.93 36.58C15.18 34.88 14.63 33.28 14.63 33.28L16.97 34.13C16.97 34.13 17.18 35.59 16.84 36.17 16.51 36.75 16.84 39.42 16.87 40.66L16.91 41.14C16.91 41.14 16.86 41.55 16.23 41.64 15.6 41.73 15.27 41.57 15.27 41.57L15.08 40.75C15.07 40.75 14.68 38.28 14.93 36.58Z" stroke="#AF7F2C" stroke-width="0.0607" fill="none"/><g opacity="0.4"><g><path d="M14.63 33.28 16.97 34.13C16.97 34.13 16.99 34.28 17.01 34.51 16.6 34.57 15.68 34.81 15.64 35.69 15.58 36.82 15.6 36.47 15.44 36.94 15.28 37.41 14.98 38.86 15.73 41.19 15.8 41.4 15.88 41.56 15.97 41.67 15.51 41.69 15.27 41.58 15.27 41.58L15.08 40.76C15.08 40.76 14.69 38.28 14.94 36.58 15.18 34.88 14.63 33.28 14.63 33.28L14.63 33.28Z" fill="#DBAA4A"/><path d="M14.63 33.28 16.97 34.13C16.97 34.13 16.99 34.28 17.01 34.51 16.6 34.57 15.68 34.81 15.64 35.69 15.58 36.82 15.6 36.47 15.44 36.94 15.28 37.41 14.98 38.86 15.73 41.19 15.8 41.4 15.88 41.56 15.97 41.67 15.51 41.69 15.27 41.58 15.27 41.58L15.08 40.76C15.08 40.76 14.69 38.28 14.94 36.58 15.18 34.88 14.63 33.28 14.63 33.28Z" stroke="#DBAA4A" stroke-width="0.0607" fill="none"/></g></g><g opacity="0.53"><g><path d="M16.69 41.08C16.69 41.08 16.62 38.3 16.6 37.48 16.58 36.66 16.11 37.05 16.01 37.57 15.91 38.1 15.95 42.29 16.69 41.08L16.69 41.08Z" fill="#EDBA57"/></g></g><g opacity="0.83"><g><path d="M14.86 42.77 17.45 42.65 17.38 40.85 14.79 40.96Z" fill="none"/><path d="M17 41.27C17 41.27 17.11 41.1 17.05 40.93 16.99 40.76 17.28 40.9 17.28 41.34 17.28 41.78 17.04 42.09 17.32 42.02 17.32 42.02 17.4 42.03 17.42 42.15 17.44 42.27 17.08 42.72 16.07 42.71 15.06 42.7 15.02 42.37 14.92 42.03 14.8 41.63 14.7 41.28 14.93 41.1 14.93 41.1 15.04 41.05 15.04 41.18 15.05 41.31 14.92 41.59 15.35 41.82 15.8 42.04 16.89 41.83 17 41.27L17 41.27Z" fill="#E6DBB5"/></g></g><path d="M17.34 41.85C17.33 41.85 17.33 41.85 17.32 41.84 17.31 41.83 17.31 41.81 17.32 41.8 17.45 41.66 17.38 41.28 17.38 41.27 17.38 41.25 17.39 41.24 17.4 41.23 17.42 41.23 17.43 41.24 17.44 41.26 17.44 41.28 17.51 41.68 17.36 41.84 17.35 41.85 17.34 41.85 17.34 41.85L17.34 41.85Z" fill="#A5935C"/><path d="M15.15 42.69C15.15 42.69 16.41 43.17 17.36 42.59 17.39 42.57 17.42 42.55 17.46 42.53 17.45 42.56 17.43 42.58 17.41 42.6 17.41 42.6 17.48 42.68 17.6 42.81 17.4 42.8 16.65 42.82 16.4 43.35 16.4 43.35 16.3 43.18 16.01 43.28 15.73 43.38 15.3 43.19 15.11 43.01 15.12 43.01 15.12 43.01 15.13 43L15.15 42.69Z" fill="#C5B883"/><path d="M15.15 42.69C15.15 42.69 16.41 43.17 17.36 42.59 17.39 42.57 17.42 42.55 17.46 42.53 17.45 42.56 17.43 42.58 17.41 42.6 17.41 42.6 17.48 42.68 17.6 42.81 17.4 42.8 16.65 42.82 16.4 43.35 16.4 43.35 16.3 43.18 16.01 43.28 15.73 43.38 15.3 43.19 15.11 43.01 15.12 43.01 15.12 43.01 15.13 43L15.15 42.69Z" stroke="#A5935C" stroke-width="0.0607" fill="none"/><path d="M16.01 43.28C16.3 43.18 16.4 43.35 16.4 43.35 16.65 42.81 17.4 42.8 17.6 42.81 17.97 43.2 18.78 44 19.35 44.21 19.35 44.21 17.36 44.79 17.19 46.66 17.17 46.84 17.17 47.02 17.19 47.19 15.98 46.49 15.27 45.75 15.12 45.7 14.96 45.65 14.88 45.05 14.92 44.78 14.96 44.51 14.7 43.14 15.11 43.01 15.3 43.19 15.73 43.38 16.01 43.28L16.01 43.28Z" fill="#80142D"/><path d="M16.01 43.28C16.3 43.18 16.4 43.35 16.4 43.35 16.65 42.81 17.4 42.8 17.6 42.81 17.97 43.2 18.78 44 19.35 44.21 19.35 44.21 17.36 44.79 17.19 46.66 17.17 46.84 17.17 47.02 17.19 47.19 15.98 46.49 15.27 45.75 15.12 45.7 14.96 45.65 14.88 45.05 14.92 44.78 14.96 44.51 14.7 43.14 15.11 43.01 15.3 43.19 15.73 43.38 16.01 43.28Z" stroke="#561326" stroke-width="0.0607" fill="none"/><path d="M17.19 46.65C17.36 44.78 19.35 44.2 19.35 44.2 19.35 44.2 21.22 44.3 21.52 45.76 21.81 47.22 19.07 48.17 17.6 47.41 17.46 47.34 17.32 47.26 17.19 47.18 17.18 47.01 17.18 46.83 17.19 46.65L17.19 46.65Z" fill="#D5C463"/><path d="M17.19 46.65C17.36 44.78 19.35 44.2 19.35 44.2 19.35 44.2 21.22 44.3 21.52 45.76 21.81 47.22 19.07 48.17 17.6 47.41 17.46 47.34 17.32 47.26 17.19 47.18 17.18 47.01 17.18 46.83 17.19 46.65Z" stroke="#A5935C" stroke-width="0.0607" stroke-linecap="round" stroke-linejoin="round" fill="none"/><g opacity="0.39"><g><path d="M17.58 46.36C17.73 44.82 19.43 44.33 19.43 44.33 19.43 44.33 21.03 44.41 21.28 45.61 21.53 46.81 19.18 47.6 17.92 46.97 17.8 46.91 17.68 46.85 17.57 46.78 17.56 46.65 17.56 46.51 17.58 46.36L17.58 46.36Z" fill="#EAE2C9"/></g></g><g opacity="0.77"><g><path d="M18.03 45.8C18.16 44.79 19.55 44.46 19.55 44.46 19.55 44.46 20.86 44.5 21.05 45.28 21.25 46.06 19.32 46.6 18.3 46.2 18.2 46.16 18.11 46.12 18.01 46.08 18.02 45.99 18.02 45.9 18.03 45.8L18.03 45.8Z" fill="#E6DCBA"/></g></g><path d="M19.05 44.04C19.05 44.04 19.16 44.06 18.99 43.85 18.87 43.69 18.73 43.76 18.73 43.76 18.73 43.76 17.62 43.95 16.95 44.63 16.95 44.63 16.87 44.71 16.93 44.82L17.08 45C17.08 45 17.17 45.06 17.24 44.98 17.31 44.9 18.11 44.12 19.05 44.04L19.05 44.04Z" fill="#2F1813"/><path d="M19.05 44.04C19.05 44.04 19.16 44.06 18.99 43.85 18.87 43.69 18.73 43.76 18.73 43.76 18.73 43.76 17.62 43.95 16.95 44.63 16.95 44.63 16.87 44.71 16.93 44.82L17.08 45C17.08 45 17.17 45.06 17.24 44.98 17.31 44.9 18.11 44.12 19.05 44.04Z" stroke="#25110E" stroke-width="0.0607" fill="none"/><path d="M18.59 43.55C18.59 43.55 18.7 43.57 18.53 43.36 18.4 43.2 18.26 43.26 18.26 43.26 18.26 43.26 17.14 43.45 16.47 44.13 16.47 44.13 16.39 44.21 16.45 44.32L16.61 44.52C16.61 44.52 16.7 44.58 16.77 44.5 16.84 44.41 17.65 43.63 18.59 43.55L18.59 43.55Z" fill="#2F1813"/><path d="M18.59 43.55C18.59 43.55 18.7 43.57 18.53 43.36 18.4 43.2 18.26 43.26 18.26 43.26 18.26 43.26 17.14 43.45 16.47 44.13 16.47 44.13 16.39 44.21 16.45 44.32L16.61 44.52C16.61 44.52 16.7 44.58 16.77 44.5 16.84 44.41 17.65 43.63 18.59 43.55Z" stroke="#25110E" stroke-width="0.0607" fill="none"/><g opacity="0.43"><g><path d="M16.89 45.07 18.03 45.02 18 44.23 16.86 44.28Z" fill="none"/><path d="M17.31 44.62C17.45 44.77 17.76 44.47 17.98 44.42 17.57 44.66 17.28 44.94 17.24 44.99 17.17 45.06 17.08 45 17.08 45L16.92 44.81C16.85 44.7 16.94 44.62 16.94 44.62 17.07 44.49 17.21 44.38 17.35 44.29 17.31 44.35 17.2 44.5 17.31 44.62L17.31 44.62Z" fill="#2F1813"/><path d="M17.31 44.62C17.45 44.77 17.76 44.47 17.98 44.42 17.57 44.66 17.28 44.94 17.24 44.99 17.17 45.06 17.08 45 17.08 45L16.92 44.81C16.85 44.7 16.94 44.62 16.94 44.62 17.07 44.49 17.21 44.38 17.35 44.29 17.31 44.35 17.2 44.5 17.31 44.62Z" stroke="#25110E" stroke-width="0.0607" stroke-linecap="round" stroke-linejoin="round" fill="none"/></g></g><path d="M17.29 44.06C17.29 44.06 17.28 44.07 17.28 44.07 17.28 44.06 17.29 44.06 17.29 44.06L17.29 44.06Z" fill="#2F1813"/><path d="M17.29 44.06C17.29 44.06 17.28 44.07 17.28 44.07 17.28 44.06 17.29 44.06 17.29 44.06L17.29 44.06Z" stroke="#25110E" stroke-width="0.0607" fill="none"/><g opacity="0.43"><g><path d="M16.41 44.58 17.17 44.54 17.13 43.64 16.38 43.67Z" fill="none"/><path d="M16.47 44.13C16.66 43.94 16.88 43.79 17.1 43.67L17.1 43.68C17.1 43.68 16.72 43.93 16.84 44.15 16.9 44.27 17.03 44.23 17.13 44.17 16.93 44.33 16.79 44.46 16.77 44.49 16.7 44.57 16.61 44.51 16.61 44.51L16.45 44.31C16.38 44.21 16.47 44.13 16.47 44.13L16.47 44.13Z" fill="#2F1813"/><path d="M16.47 44.13C16.66 43.94 16.88 43.79 17.1 43.67L17.1 43.68C17.1 43.68 16.72 43.93 16.84 44.15 16.9 44.27 17.03 44.23 17.13 44.17 16.93 44.33 16.79 44.46 16.77 44.49 16.7 44.57 16.61 44.51 16.61 44.51L16.45 44.31C16.38 44.21 16.47 44.13 16.47 44.13Z" stroke="#25110E" stroke-width="0.0607" stroke-linecap="round" stroke-linejoin="round" fill="none"/></g></g><g opacity="0.14"><g><path d="M17.24 43.77 18.47 43.71 18.46 43.33 17.22 43.39Z" fill="none"/><path d="M18.37 43.33C18.37 43.33 17.8 43.41 17.37 43.64 16.94 43.86 17.6 43.74 17.82 43.67 18.04 43.6 18.7 43.48 18.37 43.33L18.37 43.33Z" fill="#FFC116"/></g></g><g opacity="0.14"><g><path d="M17.7 44.24 18.93 44.18 18.92 43.8 17.68 43.85Z" fill="none"/><path d="M18.83 43.8C18.83 43.8 18.26 43.88 17.83 44.11 17.4 44.33 18.06 44.21 18.28 44.14 18.5 44.07 19.16 43.94 18.83 43.8L18.83 43.8Z" fill="#FFC116"/></g></g><path d="M19.05 44.04C19.05 44.04 19.16 44.06 18.99 43.85 18.87 43.69 18.73 43.76 18.73 43.76 18.73 43.76 17.62 43.95 16.95 44.63 16.95 44.63 16.87 44.71 16.93 44.82L17.08 45C17.08 45 17.17 45.06 17.24 44.98 17.31 44.9 18.11 44.12 19.05 44.04Z" stroke="#25110E" stroke-width="0.0607" fill="none"/><path d="M18.59 43.55C18.59 43.55 18.7 43.57 18.53 43.36 18.4 43.2 18.26 43.26 18.26 43.26 18.26 43.26 17.14 43.45 16.47 44.13 16.47 44.13 16.39 44.21 16.45 44.32L16.61 44.52C16.61 44.52 16.7 44.58 16.77 44.5 16.84 44.41 17.65 43.63 18.59 43.55Z" stroke="#25110E" stroke-width="0.0607" fill="none"/><g opacity="0.44"><g><path d="M16.59 43.66 17.89 43.61 17.86 42.87 16.57 42.93Z" fill="none"/><path d="M17.87 43.23 17.57 42.89C17.57 42.89 16.76 42.93 16.62 43.31 16.47 43.69 16.85 43.55 16.91 43.63 16.97 43.72 17.2 43.4 17.87 43.23L17.87 43.23Z" fill="#CB1F46"/></g></g><g opacity="0.44"><g><path d="M17.69 45.02 19.06 44.96 19.03 44.16 17.66 44.23Z" fill="none"/><path d="M18.89 44.18C18.89 44.18 18.03 44.4 17.68 44.8 17.68 44.8 17.78 44.97 17.8 45.02 17.82 45.07 18.51 44.41 18.97 44.25 18.97 44.25 19.15 44.14 18.89 44.18L18.89 44.18Z" fill="#CB1F46"/></g></g><g opacity="0.44"><g><path d="M16.42 43.88C16.42 43.88 16.28 43.27 16.06 43.35 15.84 43.43 15.43 43.45 15.24 43.27 15.05 43.09 14.99 43.37 15.06 44.21 15.11 44.79 15.77 44.99 15.32 44.99 14.87 44.99 15.73 45.79 16.48 46.18 17.22 46.57 16.86 46.57 17.13 45.87 17.4 45.17 17.1 45.38 16.64 44.8 16.18 44.21 16.41 44.01 16.42 43.88L16.42 43.88Z" fill="#CB1F46"/></g></g><g opacity="0.65"><g><path d="M16.13 44.03 16.68 44.01 16.64 43.07 16.09 43.1Z" fill="none"/><g><g><path d="M16.13 44.03 16.68 44.01 16.64 43.07 16.09 43.1Z" fill="none"/><path d="M16.59 43.77 16.67 43.92 16.57 44.01C16.57 44.01 16.46 43.35 16.1 43.26 16.32 43.22 16.41 43.35 16.41 43.35 16.46 43.24 16.54 43.15 16.63 43.07L16.64 43.08C16.63 43.08 16.34 43.35 16.59 43.77L16.59 43.77Z" fill="#9C1C39"/></g></g></g></g><g opacity="0.53"><g><path d="M16.87 35.09C16.86 34.93 16.82 34.81 16.74 34.76 16.6 34.67 16.39 34.79 16.31 35.23 16.23 35.68 16.38 35.98 16.6 35.93 16.78 35.9 16.9 35.43 16.87 35.09L16.87 35.09Z" fill="#EDBA57"/></g></g><path d="M16.37 36.45C16.32 36.45 16.27 36.44 16.22 36.42 16.21 36.42 16.2 36.4 16.2 36.38 16.21 36.36 16.22 36.35 16.24 36.36 16.46 36.44 16.64 36.29 16.64 36.29 16.65 36.28 16.67 36.28 16.68 36.29 16.69 36.3 16.69 36.32 16.68 36.34 16.67 36.35 16.55 36.45 16.37 36.45L16.37 36.45Z" fill="#AF7F2C"/></g><g><path d="M13.35 45.42C13.35 45.42 13.35 45.43 13.36 45.45 13.36 45.44 13.35 45.43 13.35 45.42L13.35 45.42Z" fill="#CB1F46"/><path d="M13.35 45.42C13.35 45.42 13.35 45.43 13.36 45.45 13.36 45.44 13.35 45.43 13.35 45.42L13.35 45.42Z" stroke="#91193C" stroke-width="0.0911" fill="none"/><path d="M9.11 43.36 9.25 43.3C9.25 43.3 9.76 43.53 10.42 43.56 11.08 43.59 11.78 43.45 11.85 43.44 11.85 43.44 12.58 44.63 12.97 44.9 9.85 44.99 10.38 47.8 10.41 48 10.18 47.82 9.98 47.62 9.84 47.41 9.34 46.65 8.83 45.31 8.89 45.02 8.96 44.73 8.88 43.47 9.11 43.36L9.11 43.36Z" fill="#80142D"/><path d="M9.11 43.36 9.25 43.3C9.25 43.3 9.76 43.53 10.42 43.56 11.08 43.59 11.78 43.45 11.85 43.44 11.85 43.44 12.58 44.63 12.97 44.9 9.85 44.99 10.38 47.8 10.41 48 10.18 47.82 9.98 47.62 9.84 47.41 9.34 46.65 8.83 45.31 8.89 45.02 8.96 44.73 8.88 43.47 9.11 43.36Z" stroke="#80142D" stroke-width="0.0607" fill="none"/><path d="M12.98 44.9C12.98 44.9 14.5 45.36 14.71 46.5 14.92 47.64 14.3 48.47 12.88 48.61 11.87 48.71 11.01 48.44 10.42 48 10.38 47.81 9.86 44.99 12.98 44.9L12.98 44.9Z" fill="#D5C463"/><path d="M12.98 44.9C12.98 44.9 14.5 45.36 14.71 46.5 14.92 47.64 14.3 48.47 12.88 48.61 11.87 48.71 11.01 48.44 10.42 48 10.38 47.81 9.86 44.99 12.98 44.9Z" stroke="#A5935C" stroke-width="0.0607" stroke-linecap="round" stroke-linejoin="round" fill="none"/><g opacity="0.39"><g><path d="M12.97 45.03C12.97 45.03 14.33 45.4 14.51 46.32 14.7 47.24 14.15 47.91 12.88 48.03 11.97 48.11 11.21 47.89 10.69 47.53 10.66 47.37 10.19 45.1 12.97 45.03L12.97 45.03Z" fill="#EAE2C9"/></g></g><g opacity="0.77"><g><path d="M13.02 45.23C13.02 45.23 14.18 45.54 14.31 46.2 14.45 46.86 13.96 47.3 12.87 47.33 12.09 47.35 11.44 47.17 11 46.9 10.98 46.78 10.63 45.16 13.02 45.23L13.02 45.23Z" fill="#E6DCBA"/></g></g><g opacity="0.44"><g><path d="M10.23 44.9 12.31 44.93 12.33 43.65 10.25 43.62Z" fill="none"/><path d="M12.32 44.51C12.32 44.51 11.88 43.71 11.84 43.65 11.8 43.59 11.1 43.78 10.56 43.79 10.02 43.8 10.27 44.21 10.56 44.41 10.85 44.61 10.7 44.64 10.68 44.86 10.66 45.07 11.56 44.44 12.32 44.51L12.32 44.51Z" fill="#CB1F46"/></g></g><g opacity="0.44"><g><path d="M9.83 43.75C9.83 43.75 9.33 43.63 9.2 43.51 9.07 43.39 9 44.11 9.03 44.32 9.07 44.53 9.72 45.47 9.44 45.29 9.15 45.11 9.05 45.19 9.2 45.6 9.36 46.01 10.06 47.7 10.17 47.29 10.28 46.88 10.19 46.32 10.5 45.8 10.81 45.28 9.91 45.02 9.65 44.4 9.4 43.79 9.83 43.75 9.83 43.75L9.83 43.75Z" fill="#CB1F46"/></g></g><g opacity="0.63"><g><rect x="9.48" y="43.7" width="0.97" height="0.48" fill="none" transform="matrix(0.0122 -0.9999 0.9999 0.0122 -34.089 53.376)"/><path d="M10.18 43.56C10.18 43.56 9.99 43.68 10.09 43.98 10.19 44.28 10.27 44.49 10.15 44.41 10.03 44.32 9.88 43.58 9.74 43.45 9.74 43.45 9.95 43.53 10.18 43.56L10.18 43.56Z" fill="#9C1C39"/></g></g><path d="M12.82 44.73C12.82 44.73 12.93 44.77 12.78 44.53 12.68 44.36 12.53 44.4 12.53 44.4 12.53 44.4 11.41 44.43 10.66 45.01 10.66 45.01 10.57 45.08 10.62 45.19L10.75 45.4C10.75 45.4 10.83 45.47 10.91 45.4 10.99 45.35 11.88 44.68 12.82 44.73L12.82 44.73Z" fill="#2F1813"/><path d="M12.82 44.73C12.82 44.73 12.93 44.77 12.78 44.53 12.68 44.36 12.53 44.4 12.53 44.4 12.53 44.4 11.41 44.43 10.66 45.01 10.66 45.01 10.57 45.08 10.62 45.19L10.75 45.4C10.75 45.4 10.83 45.47 10.91 45.4 10.99 45.35 11.88 44.68 12.82 44.73Z" stroke="#25110E" stroke-width="0.0607" fill="none"/><path d="M12.42 44.18C12.42 44.18 12.53 44.22 12.38 43.98 12.28 43.81 12.13 43.85 12.13 43.85 12.13 43.85 11 43.88 10.25 44.47 10.25 44.47 10.16 44.54 10.21 44.66L10.34 44.88C10.34 44.88 10.42 44.95 10.5 44.88 10.58 44.79 11.47 44.13 12.42 44.18L12.42 44.18Z" fill="#2F1813"/><path d="M12.42 44.18C12.42 44.18 12.53 44.22 12.38 43.98 12.28 43.81 12.13 43.85 12.13 43.85 12.13 43.85 11 43.88 10.25 44.47 10.25 44.47 10.16 44.54 10.21 44.66L10.34 44.88C10.34 44.88 10.42 44.95 10.5 44.88 10.58 44.79 11.47 44.13 12.42 44.18Z" stroke="#25110E" stroke-width="0.0607" fill="none"/><g opacity="0.43"><g><rect x="10.77" y="44.52" width="0.77" height="1.16" fill="none" transform="matrix(0.0135 -0.9999 0.9999 0.0135 -34.088 55.6454)"/><path d="M11.03 45.06C11.15 45.23 11.49 44.98 11.71 44.95 11.27 45.13 10.96 45.37 10.91 45.41 10.83 45.48 10.75 45.41 10.75 45.41L10.62 45.2C10.57 45.09 10.66 45.02 10.66 45.02 10.8 44.91 10.95 44.82 11.11 44.75 11.06 44.79 10.93 44.93 11.03 45.06L11.03 45.06Z" fill="#2F1813"/><path d="M11.03 45.06C11.15 45.23 11.49 44.98 11.71 44.95 11.27 45.13 10.96 45.37 10.91 45.41 10.83 45.48 10.75 45.41 10.75 45.41L10.62 45.2C10.57 45.09 10.66 45.02 10.66 45.02 10.8 44.91 10.95 44.82 11.11 44.75 11.06 44.79 10.93 44.93 11.03 45.06Z" stroke="#25110E" stroke-width="0.0607" stroke-linecap="round" stroke-linejoin="round" fill="none"/></g></g><path d="M11.07 44.51C11.07 44.51 11.06 44.52 11.06 44.52 11.06 44.51 11.07 44.51 11.07 44.51L11.07 44.51Z" fill="#2F1813"/><path d="M11.07 44.51C11.07 44.51 11.06 44.52 11.06 44.52 11.06 44.51 11.07 44.51 11.07 44.51L11.07 44.51Z" stroke="#25110E" stroke-width="0.0607" fill="none"/><g opacity="0.43"><g><path d="M10.16 44.92 10.95 44.93 10.96 44.06 10.17 44.05Z" fill="none"/><path d="M10.25 44.46C10.46 44.3 10.7 44.18 10.93 44.09L10.93 44.1C10.93 44.1 10.52 44.3 10.62 44.53 10.67 44.65 10.8 44.64 10.9 44.59 10.68 44.72 10.53 44.83 10.5 44.85 10.42 44.92 10.34 44.85 10.34 44.85L10.21 44.63C10.15 44.53 10.25 44.46 10.25 44.46L10.25 44.46Z" fill="#2F1813"/><path d="M10.25 44.46C10.46 44.3 10.7 44.18 10.93 44.09L10.93 44.1C10.93 44.1 10.52 44.3 10.62 44.53 10.67 44.65 10.8 44.64 10.9 44.59 10.68 44.72 10.53 44.83 10.5 44.85 10.42 44.92 10.34 44.85 10.34 44.85L10.21 44.63C10.15 44.53 10.25 44.46 10.25 44.46Z" stroke="#25110E" stroke-width="0.0607" stroke-linecap="round" stroke-linejoin="round" fill="none"/></g></g><g opacity="0.14"><g><rect x="11.53" y="43.45" width="0.3" height="1.25" fill="none" transform="matrix(0.0132 -0.9999 0.9999 0.0132 -32.5484 55.1769)"/><path d="M12.23 43.94C12.23 43.94 11.66 43.94 11.21 44.11 10.76 44.27 11.42 44.24 11.65 44.2 11.87 44.16 12.53 44.12 12.23 43.94L12.23 43.94Z" fill="#FFC116"/></g></g><g opacity="0.14"><g><rect x="11.93" y="43.98" width="0.3" height="1.25" fill="none" transform="matrix(0.0132 -0.9999 0.9999 0.0132 -32.6795 56.0944)"/><path d="M12.63 44.46C12.63 44.46 12.06 44.46 11.61 44.63 11.16 44.79 11.82 44.76 12.05 44.72 12.27 44.68 12.93 44.65 12.63 44.46L12.63 44.46Z" fill="#FFC116"/></g></g><path d="M12.82 44.73C12.82 44.73 12.93 44.77 12.78 44.53 12.68 44.36 12.53 44.4 12.53 44.4 12.53 44.4 11.41 44.43 10.66 45.01 10.66 45.01 10.57 45.08 10.62 45.19L10.75 45.4C10.75 45.4 10.83 45.47 10.91 45.4 10.99 45.35 11.88 44.68 12.82 44.73Z" stroke="#25110E" stroke-width="0.0607" fill="none"/><path d="M12.42 44.18C12.42 44.18 12.53 44.22 12.38 43.98 12.28 43.81 12.13 43.85 12.13 43.85 12.13 43.85 11 43.88 10.25 44.47 10.25 44.47 10.16 44.54 10.21 44.66L10.34 44.88C10.34 44.88 10.42 44.95 10.5 44.88 10.58 44.79 11.47 44.13 12.42 44.18Z" stroke="#25110E" stroke-width="0.0607" fill="none"/><path d="M9.17 45.01C8.91 44.81 8.89 44.35 8.89 44.34L8.95 44.34C8.95 44.34 8.97 44.78 9.2 44.97L9.17 45.01 9.17 45.01Z" fill="#561326"/><path d="M10.13 44.32 10 44.01C9.89 43.62 10.06 43.49 10.07 43.49L10.1 43.54C10.09 43.54 9.96 43.65 10.05 43.99L10.18 44.3 10.13 44.32 10.13 44.32Z" fill="#561326"/><path d="M9.47 40.98C9.47 40.98 9.47 40.98 9.47 40.97L9.5 41.33C9.5 41.33 9.58 41.65 10.28 41.95 10.98 42.25 11.37 41.86 11.37 41.86L11.39 41.31C11.39 41.31 12 41.28 12.09 41.66 12.18 42.05 11.98 42.57 11.98 42.65 11.98 42.73 12.28 43.18 11.87 43.44 11.8 43.45 11.1 43.6 10.44 43.56 9.78 43.53 9.27 43.3 9.27 43.3 9.27 43.3 9 43.22 9.04 42.64 9.08 42.06 9.06 41.96 8.98 41.65 8.88 41.35 9.15 40.86 9.47 40.98L9.47 40.98Z" fill="#D5C58D"/><path d="M9.47 40.98C9.47 40.98 9.47 40.98 9.47 40.97L9.5 41.33C9.5 41.33 9.58 41.65 10.28 41.95 10.98 42.25 11.37 41.86 11.37 41.86L11.39 41.31C11.39 41.31 12 41.28 12.09 41.66 12.18 42.05 11.98 42.57 11.98 42.65 11.98 42.73 12.28 43.18 11.87 43.44 11.8 43.45 11.1 43.6 10.44 43.56 9.78 43.53 9.27 43.3 9.27 43.3 9.27 43.3 9 43.22 9.04 42.64 9.08 42.06 9.06 41.96 8.98 41.65 8.88 41.35 9.15 40.86 9.47 40.98Z" stroke="#A5935C" stroke-width="0.0607" fill="none"/><path d="M10.28 41.95C9.58 41.65 9.5 41.33 9.5 41.33L9.47 40.97C9.47 40.82 9.44 38.98 9.62 37.98 9.81 36.94 9.99 34.37 9.99 34.37L12.27 34.33C12.27 34.33 12.02 36.61 11.69 37.28 11.36 37.95 11.39 41.3 11.39 41.3L11.37 41.85C11.37 41.86 10.98 42.25 10.28 41.95L10.28 41.95Z" fill="#DBAA4A"/><path d="M10.28 41.95C9.58 41.65 9.5 41.33 9.5 41.33L9.47 40.97C9.47 40.82 9.44 38.98 9.62 37.98 9.81 36.94 9.99 34.37 9.99 34.37L12.27 34.33C12.27 34.33 12.02 36.61 11.69 37.28 11.36 37.95 11.39 41.3 11.39 41.3L11.37 41.85C11.37 41.86 10.98 42.25 10.28 41.95Z" stroke="#AF7F2C" stroke-width="0.0607" fill="none"/><g opacity="0.37"><g><path d="M9.62 37.98C9.81 36.94 9.99 34.37 9.99 34.37L12.27 34.33C12.27 34.33 12.17 35.24 12.01 36.07 11.97 35.92 11.75 35.3 11.09 35.4 10.4 35.5 10.25 36.42 10.18 37.06 10.1 37.8 9.85 38.49 9.81 39.22 9.77 39.99 9.61 41.62 10.44 41.82 10.8 41.91 11.13 41.86 11.38 41.74L11.38 41.86C11.38 41.86 10.99 42.25 10.29 41.95 9.59 41.65 9.51 41.33 9.51 41.33L9.48 40.97C9.47 40.82 9.44 38.99 9.62 37.98L9.62 37.98Z" fill="#DBAA4A"/><path d="M9.62 37.98C9.81 36.94 9.99 34.37 9.99 34.37L12.27 34.33C12.27 34.33 12.17 35.24 12.01 36.07 11.97 35.92 11.75 35.3 11.09 35.4 10.4 35.5 10.25 36.42 10.18 37.06 10.1 37.8 9.85 38.49 9.81 39.22 9.77 39.99 9.61 41.62 10.44 41.82 10.8 41.91 11.13 41.86 11.38 41.74L11.38 41.86C11.38 41.86 10.99 42.25 10.29 41.95 9.59 41.65 9.51 41.33 9.51 41.33L9.48 40.97C9.47 40.82 9.44 38.99 9.62 37.98Z" stroke="#DBAA4A" stroke-width="0.0607" fill="none"/></g></g><g opacity="0.53"><g><path d="M11.19 41.39C11.19 41.39 11.25 39.22 11.27 38.59 11.28 37.95 10.67 38.23 10.52 38.63 10.36 39.03 10.18 42.29 11.19 41.39L11.19 41.39Z" fill="#EDBA57"/></g></g><g opacity="0.83"><g><path d="M9.05 43.28 11.94 43.32 11.97 41.34 9.07 41.3Z" fill="none"/><path d="M11.64 41.5C11.64 41.5 12.02 41.46 11.91 41.98 11.8 42.5 11.36 42.79 11.54 42.91 11.72 43.03 11.89 42.86 11.94 43.07 11.99 43.29 11.49 43.31 10.78 43.31 10.07 43.3 9.27 43.17 9.28 42.76 9.28 42.35 9.3 42.62 9.62 42.62 9.84 42.62 9.6 42.45 9.54 42.39 9.35 42.21 8.94 41.65 9.12 41.36 9.2 41.23 9.35 41.32 9.43 41.52 9.64 42.06 10.33 42.28 10.82 42.27 11.69 42.27 11.83 41.56 11.64 41.5L11.64 41.5Z" fill="#E6DBB5"/></g></g><path d="M9.43 42.46C9.43 42.46 9.42 42.45 9.43 42.46 9.13 42.37 8.99 41.83 8.99 41.81 8.99 41.79 8.99 41.78 9.01 41.77 9.03 41.77 9.04 41.78 9.05 41.79 9.05 41.8 9.18 42.31 9.44 42.4 9.46 42.4 9.46 42.42 9.46 42.44 9.45 42.45 9.44 42.46 9.43 42.46L9.43 42.46Z" fill="#A5935C"/><path d="M11.74 42.81C11.71 42.81 11.68 42.8 11.65 42.79 11.64 42.78 11.63 42.76 11.63 42.75 11.64 42.73 11.65 42.73 11.67 42.73 11.81 42.79 11.95 42.63 11.95 42.62 11.96 42.61 11.98 42.61 11.99 42.62 12 42.63 12 42.65 11.99 42.66 11.99 42.68 11.88 42.81 11.74 42.81L11.74 42.81Z" fill="#A5935C"/><g opacity="0.53"><g><path d="M11.8 36.15C11.8 35.98 11.77 35.83 11.68 35.77 11.53 35.65 11.27 35.76 11.14 36.25 11.01 36.74 11.15 37.09 11.4 37.06 11.62 37.03 11.8 36.53 11.8 36.15L11.8 36.15Z" fill="#EDBA57"/></g></g><path d="M11.18 37.46C11.13 37.46 11.07 37.45 11.01 37.42 11 37.41 10.99 37.39 10.99 37.38 11 37.36 11.01 37.36 11.03 37.36 11.24 37.45 11.43 37.31 11.43 37.31 11.44 37.3 11.46 37.3 11.47 37.32 11.48 37.33 11.48 37.35 11.46 37.36 11.46 37.37 11.34 37.46 11.18 37.46L11.18 37.46Z" fill="#AF7F2C"/></g><g><path d="M9.48 28.04C9.48 28.04 8.92 28.7 8.99 30.97 9.06 33.24 11.95 29.25 9.48 28.04L9.48 28.04Z" fill="#422E19"/><path d="M9.48 28.04C9.48 28.04 8.92 28.7 8.99 30.97 9.06 33.24 11.95 29.25 9.48 28.04Z" stroke="#322214" stroke-width="0.0607" stroke-linecap="round" stroke-linejoin="round" fill="none"/><path d="M8.47 30.1C8.47 30.1 8.43 29.94 8.51 29.89 8.59 29.84 9.52 30.49 9.95 28.8L16.89 26.54C16.89 26.54 17.32 29.51 17.34 32.15 17.34 32.15 17.72 32.12 17.73 32.3 17.74 32.48 17.73 33.56 17.73 33.56 17.73 33.56 16.78 34.81 15.69 34.47L14.6 34.13C14.6 34.13 14.31 34.52 14.1 34.1 14.1 34.1 13.96 33.24 13.88 33.15 13.81 33.07 13.53 33.18 13.53 33.18L13.63 31.01C14.58 30.7 14.85 29.83 14.85 29.83 14.85 29.83 14.58 30.7 13.63 31.01L13.53 33.18C13.53 33.18 13.81 33.07 13.88 33.15 13.95 33.24 14.1 34.1 14.1 34.1L13.92 34.46C13.92 34.46 12.97 35.21 12.31 35.35 11.65 35.5 10.75 35.69 10.42 35.37 10.1 35.05 9.05 34.47 8.97 34.23 8.88 33.98 8.78 32.91 8.78 32.91L9.05 32.73 8.93 31.78C8.93 31.78 8.58 31.44 8.47 30.1L8.47 30.1Z" fill="#422E19"/><path d="M8.47 30.1C8.47 30.1 8.43 29.94 8.51 29.89 8.59 29.84 9.52 30.49 9.95 28.8L16.89 26.54C16.89 26.54 17.32 29.51 17.34 32.15 17.34 32.15 17.72 32.12 17.73 32.3 17.74 32.48 17.73 33.56 17.73 33.56 17.73 33.56 16.78 34.81 15.69 34.47L14.6 34.13C14.6 34.13 14.31 34.52 14.1 34.1 14.1 34.1 13.96 33.24 13.88 33.15 13.81 33.07 13.53 33.18 13.53 33.18L13.63 31.01C14.58 30.7 14.85 29.83 14.85 29.83 14.85 29.83 14.58 30.7 13.63 31.01L13.53 33.18C13.53 33.18 13.81 33.07 13.88 33.15 13.95 33.24 14.1 34.1 14.1 34.1L13.92 34.46C13.92 34.46 12.97 35.21 12.31 35.35 11.65 35.5 10.75 35.69 10.42 35.37 10.1 35.05 9.05 34.47 8.97 34.23 8.88 33.98 8.78 32.91 8.78 32.91L9.05 32.73 8.93 31.78C8.93 31.78 8.58 31.44 8.47 30.1Z" stroke="#322214" stroke-width="0.0607" stroke-linecap="round" stroke-linejoin="round" fill="none"/><path d="M11.36 34.05C12.23 33.83 13.53 33.19 13.53 33.19 13.53 33.19 13.81 33.08 13.88 33.16 13.95 33.25 14.1 34.11 14.1 34.11L13.92 34.47C13.92 34.47 12.97 35.22 12.31 35.36 11.65 35.51 10.75 35.7 10.42 35.38 10.1 35.06 9.05 34.48 8.97 34.24 8.89 33.99 8.78 32.92 8.78 32.92L9.05 32.74 9.07 32.89C9.07 32.88 10.49 34.27 11.36 34.05L11.36 34.05Z" fill="#422E19"/><path d="M11.36 34.05C12.23 33.83 13.53 33.19 13.53 33.19 13.53 33.19 13.81 33.08 13.88 33.16 13.95 33.25 14.1 34.11 14.1 34.11L13.92 34.47C13.92 34.47 12.97 35.22 12.31 35.36 11.65 35.51 10.75 35.7 10.42 35.38 10.1 35.06 9.05 34.48 8.97 34.24 8.89 33.99 8.78 32.92 8.78 32.92L9.05 32.74 9.07 32.89C9.07 32.88 10.49 34.27 11.36 34.05Z" stroke="#322214" stroke-width="0.0607" stroke-linecap="round" stroke-linejoin="round" fill="none"/><path d="M13.53 33.19C13.55 32.87 13.69 32.73 13.89 32.8 14.09 32.88 14.86 33.09 15.69 33.13 16.52 33.16 17.33 32.16 17.33 32.16 17.33 32.16 17.71 32.13 17.72 32.31 17.73 32.49 17.73 33.57 17.73 33.57 17.73 33.57 16.78 34.82 15.69 34.48L14.6 34.14C14.6 34.14 14.31 34.53 14.1 34.11 14.1 34.11 13.96 33.25 13.88 33.16 13.8 33.07 13.53 33.19 13.53 33.19L13.53 33.19Z" fill="#422E19"/><path d="M13.53 33.19C13.55 32.87 13.69 32.73 13.89 32.8 14.09 32.88 14.86 33.09 15.69 33.13 16.52 33.16 17.33 32.16 17.33 32.16 17.33 32.16 17.71 32.13 17.72 32.31 17.73 32.49 17.73 33.57 17.73 33.57 17.73 33.57 16.78 34.82 15.69 34.48L14.6 34.14C14.6 34.14 14.31 34.53 14.1 34.11 14.1 34.11 13.96 33.25 13.88 33.16 13.8 33.07 13.53 33.19 13.53 33.19Z" stroke="#322214" stroke-width="0.0607" stroke-linecap="round" stroke-linejoin="round" fill="none"/><g opacity="0.25"><g><path d="M13.53 30.22C13.63 30.19 13.72 30.15 13.82 30.12 13.95 30.07 14.13 29.98 14.27 30.03 14.26 30.07 14.24 30.1 14.21 30.12 13.9 30.42 12.52 30.79 12.84 31.04 13.16 31.29 12.87 31.66 12.44 31.97 12.01 32.28 11.1 32.45 12.06 32.69 13.01 32.93 11.34 33.88 10.27 33.16 9.2 32.45 9.62 32.18 10.58 32.28 11.54 32.38 10.18 31.6 10.94 31.17 11.69 30.74 10.4 30.32 11.07 30.42 11.71 30.52 12.37 30.51 13 30.37 13.18 30.34 13.36 30.28 13.53 30.22L13.53 30.22Z" fill="#6A5523"/></g></g><g opacity="0.25"><g><path d="M16.86 29.01C16.86 29.01 17.03 30.96 16.93 31.89 16.93 31.89 16.28 32.83 15.38 32.6 14.48 32.37 15.83 32.56 16.41 32.1 17 31.64 15.82 32.21 15.03 31.88 14.24 31.56 15.88 30.03 15.76 29.58 15.64 29.13 15.24 29.46 15.78 28.83 16.54 27.95 16.26 28.53 15.91 29.01 15.62 29.41 15.88 29.84 16.65 29 16.65 29.01 16.86 28.74 16.86 29.01L16.86 29.01Z" fill="#6A5523"/></g></g><g opacity="0.28"><g><path d="M9.21 31.45 10.11 31.38 10.01 29.85 9.11 29.92Z" fill="none"/><path d="M9.79 29.99C9.79 29.99 9.59 30.66 9.28 30.96 8.97 31.26 9.56 31.79 9.86 31.08 10.16 30.38 10.03 29.54 9.79 29.99L9.79 29.99Z" fill="#6A5523"/></g></g><path d="M9.19 31.91C9.06 31.91 8.93 31.82 8.92 31.81 8.91 31.8 8.9 31.78 8.91 31.77 8.92 31.75 8.94 31.75 8.95 31.76 8.95 31.76 9.1 31.87 9.22 31.85 9.24 31.85 9.25 31.86 9.25 31.88 9.25 31.9 9.24 31.91 9.23 31.92 9.22 31.9 9.2 31.91 9.19 31.91L9.19 31.91Z" fill="#322214"/><path d="M8.47 30.1C8.47 30.1 8.43 29.94 8.51 29.89 8.59 29.84 9.52 30.49 9.95 28.8L16.89 26.54C16.89 26.54 17.32 29.51 17.34 32.15 17.34 32.15 17.72 32.12 17.73 32.3 17.74 32.48 17.73 33.56 17.73 33.56 17.73 33.56 16.78 34.81 15.69 34.47L14.6 34.13C14.6 34.13 14.31 34.52 14.1 34.1 14.1 34.1 13.96 33.24 13.88 33.15 13.81 33.07 13.53 33.18 13.53 33.18L13.63 31.01C14.58 30.7 14.85 29.83 14.85 29.83 14.85 29.83 14.58 30.7 13.63 31.01L13.53 33.18C13.53 33.18 13.81 33.07 13.88 33.15 13.95 33.24 14.1 34.1 14.1 34.1L13.92 34.46C13.92 34.46 12.97 35.21 12.31 35.35 11.65 35.5 10.75 35.69 10.42 35.37 10.1 35.05 9.05 34.47 8.97 34.23 8.88 33.98 8.78 32.91 8.78 32.91L9.05 32.73 8.93 31.78C8.93 31.78 8.58 31.44 8.47 30.1Z" stroke="#322214" stroke-width="0.0607" stroke-linecap="round" stroke-linejoin="round" fill="none"/><path d="M10.04 31.33C10.03 31.33 10.02 31.33 10.02 31.32 10.01 31.31 10.01 31.29 10.02 31.28 10.49 30.9 10.56 29.66 10.56 29.65 10.56 29.63 10.57 29.62 10.59 29.62 10.61 29.62 10.62 29.64 10.62 29.65 10.62 29.7 10.54 30.93 10.06 31.33 10.05 31.33 10.04 31.33 10.04 31.33L10.04 31.33Z" fill="#322214"/><path d="M9.42 30.1C9.41 30.1 9.41 30.1 9.4 30.09 9.39 30.08 9.38 30.06 9.39 30.05 9.53 29.85 9.61 29.55 9.62 29.55 9.62 29.53 9.64 29.52 9.66 29.53 9.68 29.53 9.68 29.55 9.68 29.57 9.68 29.58 9.59 29.88 9.45 30.09 9.44 30.09 9.43 30.1 9.42 30.1L9.42 30.1Z" fill="#322214"/><path d="M9.01 30.8C9 30.8 9 30.8 9.01 30.8 8.87 30.77 8.69 30.55 8.69 30.54 8.68 30.53 8.68 30.51 8.69 30.5 8.7 30.49 8.72 30.49 8.73 30.5 8.78 30.56 8.92 30.72 9.01 30.74 9.03 30.74 9.04 30.76 9.03 30.78 9.03 30.79 9.02 30.8 9.01 30.8L9.01 30.8Z" fill="#322214"/><path d="M16.14 29.04C16.13 29.04 16.13 29.04 16.12 29.03 16.11 29.02 16.11 29 16.12 28.99 16.55 28.48 16.8 27.68 16.81 27.67 16.81 27.65 16.83 27.64 16.85 27.65 16.86 27.66 16.87 27.67 16.87 27.69 16.87 27.7 16.61 28.52 16.17 29.03 16.15 29.03 16.14 29.04 16.14 29.04L16.14 29.04Z" fill="#322214"/><g opacity="0.2"><g><path d="M8.93 31.78 9.05 32.73 8.78 32.91C8.78 32.91 8.89 33.98 8.97 34.23 9.06 34.48 10.1 35.05 10.42 35.37 10.74 35.69 11.65 35.5 12.31 35.35 12.97 35.2 13.92 34.46 13.92 34.46L14.1 34.1C14.1 34.1 13.96 33.24 13.88 33.15 13.81 33.06 13.53 33.18 13.53 33.18L13.63 31.01C14.58 30.7 14.85 29.83 14.85 29.83 14.85 29.83 14.58 30.7 13.63 31.01L13.53 33.18C13.53 33.18 13.81 33.06 13.88 33.15 13.95 33.24 14.1 34.1 14.1 34.1 14.31 34.52 14.6 34.13 14.6 34.13L15.69 34.47C16.78 34.81 17.73 33.56 17.73 33.56 17.73 33.56 17.74 32.48 17.72 32.3 17.71 32.12 17.33 32.15 17.33 32.15 17.31 29.51 16.88 26.54 16.88 26.54L9.94 28.8C9.51 30.49 8.58 29.83 8.5 29.89 8.42 29.94 8.46 30.1 8.46 30.1 8.58 31.44 8.93 31.78 8.93 31.78L8.93 31.78ZM9.09 30.87C9.31 30.89 8.92 30.59 8.73 30.34 8.54 30.09 8.85 30.1 9.04 30.11 9.23 30.12 9.46 29.95 9.35 30.19 9.25 30.43 9.43 30.28 9.6 29.96 9.77 29.65 9.86 29.65 9.86 29.65 10.23 29.69 10.25 30.26 10.25 30.26 10.33 31.29 9.43 31.73 9.85 31.57 10.27 31.41 10.5 30.84 10.59 30.42 10.68 30 10.87 30.08 10.87 30.08 12.48 30.62 14.48 29.71 15.13 29.27 15.78 28.84 16.8 27.61 16.21 28.67 15.62 29.73 16.18 29.32 16.53 28.83 16.88 28.34 16.95 28.78 16.95 28.78 17.13 29.37 17.09 32.27 17.09 32.27 16.35 33.3 15.17 33.1 14.82 32.94 14.48 32.78 15.54 32.49 14.86 32.52 14.18 32.55 13.98 31.81 14.41 31.13 14.85 30.45 15.25 29.04 14.74 29.84 14.23 30.64 13.53 30.65 13.49 31.05 13.45 31.44 12.96 31.88 12.96 31.88 12.11 32.57 12.62 32.46 12.91 32.83 13.2 33.2 12.8 33.34 11.78 33.75 10.76 34.16 9.81 33.31 9.66 33.16 9.51 33.01 9.27 32.6 9.24 32.31 9.21 32.03 9.28 31.94 9.39 31.85 9.5 31.76 9.22 31.82 9.02 31.5 8.82 31.18 8.87 30.86 9.09 30.87L9.09 30.87Z" fill="#422E19"/></g></g><path d="M15.3 33.33C15.3 33.33 16.52 33.54 17.5 32.4 17.5 32.4 17.57 32.34 17.58 32.65 17.59 32.96 17.36 33.44 16.82 33.64 16.28 33.84 17.04 33.74 17.42 33.49 17.8 33.23 16.76 34.8 15.39 34.23 15.39 34.23 14.75 34.08 14.78 33.87 14.8 33.66 15 33.65 14.77 33.35 14.54 33.07 15.06 33.3 15.3 33.33L15.3 33.33Z" fill="#422E19"/><path d="M11.1 34.35C11.1 34.35 12.57 34.05 12.99 33.81 13.41 33.57 13.58 33.24 13.68 33.48 13.78 33.71 13.87 34.12 13.61 34.31 13.35 34.5 12.38 35.17 11.58 35.17 10.78 35.17 10.89 34.85 10.73 34.45 10.57 34.06 10.86 34.43 11.1 34.35L11.1 34.35Z" fill="#422E19"/><path d="M9.87 33.95C9.87 33.95 9.1 33.19 9.08 33.35 9.06 33.51 9.09 33.76 9.09 33.97 9.09 34.18 9.85 34.57 9.87 33.95L9.87 33.95Z" fill="#422E19"/><g opacity="0.25"><g><path d="M15.6 34.3 17.44 34.15 17.35 32.79 15.51 32.94Z" fill="none"/><path d="M16 33.42C16.41 33.35 16.83 33.19 17.17 32.88 17.26 32.8 17.42 32.72 17.33 32.94 17.22 33.2 17.02 33.37 16.82 33.48 16.75 33.52 16.24 33.62 16.27 33.78 16.3 33.97 16.82 33.83 16.9 33.8 17.36 33.62 16.48 34.43 15.81 34.22 15.81 34.22 15.46 34.11 15.66 34.03 15.86 33.94 15.67 33.72 15.57 33.58 15.49 33.47 15.67 33.47 15.71 33.46 15.8 33.45 15.9 33.44 16 33.42L16 33.42Z" fill="#6A5523"/></g></g><g opacity="0.25"><g><path d="M11.84 34.85 13.49 34.72 13.43 33.89 11.78 34.02Z" fill="none"/><path d="M11.81 34.46C11.81 34.46 12.65 34.32 13 34.06 13.35 33.8 13.36 33.91 13.44 34.09 13.52 34.27 12.7 34.7 12.44 34.79 12.18 34.88 12.06 34.48 11.81 34.46L11.81 34.46Z" fill="#6A5523"/></g></g><path d="M16.49 26.57C16.48 26.57 16.48 26.58 16.47 26.58 16.44 26.61 16.45 26.6 16.49 26.57L16.49 26.57Z" fill="#8A8031"/><path d="M16.49 26.57C16.48 26.57 16.48 26.58 16.47 26.58 16.44 26.61 16.45 26.6 16.49 26.57Z" stroke="#8A8031" stroke-width="0.0607" fill="none"/></g><path d="M7.72 19.83C7.71 19.83 7.71 19.83 7.72 19.83 7.71 19.82 7.71 19.83 7.72 19.83Z" stroke="#EE5389" stroke-width="0.0607" fill="none"/><g><path d="M21.13 15.98C21.13 15.98 22.15 15.25 22.45 16.4 22.45 16.4 22.97 16.3 23.07 17.12 23.07 17.12 23.31 17.12 23.3 17.59 23.3 18.06 22.91 18.32 22.76 18.17 22.76 18.17 22.69 18.28 22.49 18.21 22.49 18.21 22.28 20.09 20.86 19.88 20.86 19.88 20.46 22.18 19.48 22.41 18.5 22.64 16.25 21.53 16.25 21.53L16.73 20.38C16.73 20.38 18.5 21.07 19.17 21.01 19.37 20.99 19.73 19.38 19.72 19.31 19.71 19.25 18.94 18.61 19.28 17.62 19.81 16.09 20.2 15.9 20.66 14.5 21.14 13.01 21.63 13.22 21.68 13.64 21.8 14.68 21.13 15.98 21.13 15.98Z" stroke="#AE7D2B" stroke-width="0.0607" stroke-linecap="round" stroke-linejoin="round" fill="#DBAA49"/><path d="M19 21.34C19 21.34 18.99 21.34 18.99 21.34 18.98 21.33 18.97 21.31 18.98 21.3 19.04 21.15 19.2 20.99 19.2 20.98 19.21 20.97 19.23 20.97 19.24 20.98 19.25 20.99 19.25 21.01 19.24 21.02 19.24 21.02 19.09 21.19 19.03 21.32 19.02 21.34 19.01 21.34 19 21.34L19 21.34Z" fill="#AE7D2B"/><path d="M22.76 18.2C22.75 18.2 22.75 18.2 22.74 18.19 22.73 18.18 22.73 18.16 22.74 18.15 22.74 18.15 23.11 17.68 23.03 17.07 23.03 17.05 23.04 17.04 23.06 17.03 23.08 17.03 23.09 17.04 23.09 17.06 23.18 17.69 22.81 18.17 22.79 18.19 22.78 18.19 22.77 18.2 22.76 18.2L22.76 18.2Z" fill="#AE7D2B"/><path d="M22.5 18.24C22.5 18.24 22.5 18.24 22.5 18.24 22.41 18.22 22.29 18.13 22.24 18.01 22.21 17.93 22.22 17.84 22.27 17.76 22.61 17.23 22.43 16.41 22.42 16.4 22.42 16.38 22.43 16.37 22.44 16.36 22.46 16.36 22.47 16.37 22.48 16.38 22.49 16.41 22.67 17.24 22.32 17.79 22.28 17.85 22.27 17.92 22.3 17.98 22.34 18.08 22.44 18.15 22.51 18.17 22.53 18.17 22.54 18.19 22.53 18.21 22.53 18.23 22.51 18.24 22.5 18.24L22.5 18.24Z" fill="#AE7D2B"/><path d="M21.73 18.25C21.58 18.25 21.48 18.14 21.43 18.07 21.35 17.95 21.3 17.8 21.33 17.74 21.33 17.73 21.59 17.29 21.41 16.16 21.41 16.14 21.42 16.13 21.43 16.12 21.45 16.12 21.46 16.13 21.46 16.15 21.65 17.31 21.39 17.76 21.38 17.77 21.37 17.79 21.4 17.92 21.48 18.03 21.53 18.1 21.64 18.22 21.81 18.18 22.11 18.11 22.27 17.78 22.28 17.77 22.29 17.75 22.31 17.75 22.32 17.76 22.33 17.77 22.34 17.79 22.33 17.8 22.32 17.81 22.15 18.16 21.83 18.24 21.78 18.24 21.76 18.25 21.73 18.25L21.73 18.25Z" fill="#AE7D2B"/><path d="M16.25 21.53C16.25 21.53 18.5 22.64 19.48 22.41 20.46 22.18 20.86 19.88 20.86 19.88 22.28 20.09 22.49 18.21 22.49 18.21 22.68 18.27 22.76 18.17 22.76 18.17 22.91 18.33 23.3 18.06 23.3 17.59 23.31 17.12 23.07 17.12 23.07 17.12 22.97 16.29 22.45 16.4 22.45 16.4 22.15 15.25 21.13 15.98 21.13 15.98 21.13 15.98 21.89 13.92 21.64 13.43 21.55 13.26 21.23 13.36 21.09 13.6 20.74 14.23 20.49 14.96 20.14 15.7 19.72 16.59 19.45 16.99 19.28 17.63 19 18.65 19.7 19.26 19.72 19.32 19.73 19.38 19.37 21 19.17 21.02 18.5 21.08 16.73 20.39 16.73 20.39L16.25 21.53ZM19.41 20.99C19.84 20.33 19.88 19.42 19.88 19.42 19.88 19.42 19.99 19.21 19.79 19.07 19.43 18.8 19.38 18.04 19.47 17.84 19.56 17.64 19.73 17.17 19.81 16.96 19.89 16.75 20.44 17 20.65 17.58 20.86 18.16 21.19 17.76 21.26 18.03 21.33 18.3 21.72 18.5 21.99 18.33 22.26 18.16 22.26 18.31 22.26 18.37 22.26 18.43 22.4 18.85 21.76 19.49 21.12 20.13 20.57 19.41 20.6 19.67 20.63 19.93 20.05 21.97 19.57 22.18 19.12 22.37 19.14 21.41 19.41 20.99ZM17.4 20.96C17.4 20.96 17.95 21.19 18.18 21.21 18.41 21.23 18.56 22.04 18.24 22.06 17.92 22.08 17.26 21.8 17.17 21.7 17.07 21.6 17.2 20.99 17.4 20.96Z" stroke="#DBAA49" stroke-width="0.0607" stroke-linecap="round" stroke-linejoin="round" fill="#DBAA49" opacity="0.3"/><path d="M21.96 17.93C21.96 17.93 22.43 17.63 22.35 16.75 22.27 15.87 21.89 15.83 21.81 16.04 21.73 16.25 21.94 17.06 21.78 17.46 21.61 17.86 21.75 18.07 21.96 17.93Z" fill="#DBAA49"/><path d="M22.73 16.78C22.73 16.78 22.7 17.37 22.54 17.67 22.38 17.96 22.72 18.14 22.84 17.79 23.05 17.22 22.94 16.59 22.73 16.78Z" fill="#DBAA49"/><g><path d="M19.48 17.94C19.48 17.94 19.79 17.36 19.87 16.34 19.91 15.81 21.3 16.4 20.48 17.75 20.48 17.75 21.48 17.7 21.22 18.87L19.48 17.94Z" fill="#DBAA49"/><path d="M21.22 18.91C21.22 18.91 21.22 18.91 21.22 18.91 21.2 18.91 21.19 18.89 21.19 18.87 21.27 18.51 21.24 18.23 21.1 18.05 20.89 17.77 20.49 17.79 20.49 17.79 20.48 17.79 20.47 17.78 20.46 17.77 20.46 17.76 20.46 17.75 20.46 17.74 20.86 17.08 20.7 16.67 20.57 16.48 20.41 16.25 20.16 16.15 20.02 16.2 19.97 16.21 19.91 16.25 19.9 16.35 19.82 17.36 19.51 17.95 19.5 17.96 19.49 17.97 19.47 17.98 19.46 17.97 19.45 17.96 19.44 17.94 19.45 17.93 19.45 17.92 19.76 17.34 19.84 16.35 19.85 16.24 19.91 16.17 20 16.14 20.17 16.09 20.44 16.19 20.62 16.45 20.75 16.65 20.92 17.07 20.54 17.73 20.66 17.73 20.96 17.77 21.15 18.01 21.31 18.21 21.34 18.51 21.26 18.89 21.25 18.9 21.24 18.91 21.22 18.91L21.22 18.91Z" fill="#AE7D2B"/></g><path d="M20.54 17.48C20.54 17.48 20.83 16.73 20.49 16.52 20.15 16.3 20.34 17.76 20.54 17.48Z" fill="#E4B049"/><path d="M20.55 15.39C20.55 15.39 20.74 14.53 21.03 13.99 21.32 13.44 21.74 13.49 21.36 14.37 21.11 14.94 21.44 14.91 21.03 15.5 20.63 16.08 20.27 16.15 20.55 15.39Z" fill="#DBAA49"/></g><g><path d="M8.21 21.89C8.21 21.89 5.55 24.23 5.37 26.52 5.37 26.52 6.34 27.13 6.5 27.88 6.66 28.63 6.97 28.87 7.13 28.96 7.3 29.05 7.24 29.35 7.1 29.43 7.1 29.43 7.44 29.47 7.39 29.86 7.34 30.24 6.22 30.62 5.48 29.93 5.48 29.93 4.96 30.22 4.24 29.51 4.24 29.51 3.99 29.75 3.4 28.8 2.81 27.85 3.37 26.7 4.03 26.18 4.03 26.18 5.47 21.86 7.71 20.76L8.21 21.89Z" stroke="#AE7D2B" stroke-width="0.0607" stroke-linecap="round" stroke-linejoin="round" fill="#DBAA49"/><path d="M6.69 29.63C6.35 29.63 6.06 29.31 5.89 29.07 5.68 28.77 5.6 28.58 5.6 28.57 5.59 28.55 5.6 28.53 5.62 28.53 5.63 28.52 5.65 28.53 5.66 28.55 5.66 28.55 5.73 28.74 5.94 29.04 6.16 29.35 6.6 29.81 7.08 29.42 7.09 29.41 7.11 29.41 7.12 29.43 7.13 29.44 7.13 29.46 7.11 29.47 6.97 29.59 6.83 29.63 6.69 29.63L6.69 29.63Z" fill="#AE7D2B"/><path d="M5.47 29.97C5.46 29.97 5.46 29.97 5.45 29.96 5.02 29.54 4.77 28.81 4.76 28.78 4.76 28.76 4.76 28.74 4.78 28.74 4.8 28.74 4.81 28.74 4.82 28.76 4.82 28.77 5.07 29.5 5.49 29.91 5.5 29.92 5.5 29.94 5.49 29.95 5.49 29.97 5.48 29.97 5.47 29.97L5.47 29.97Z" fill="#AE7D2B"/><path d="M4.23 29.55C4.22 29.55 4.21 29.55 4.21 29.54 3.94 29.2 3.83 28.82 3.83 28.8 3.83 28.78 3.83 28.77 3.85 28.76 3.87 28.76 3.88 28.76 3.89 28.78 3.89 28.78 4 29.17 4.26 29.5 4.27 29.51 4.27 29.53 4.26 29.54 4.25 29.55 4.24 29.55 4.23 29.55L4.23 29.55Z" fill="#AE7D2B"/><path d="M4.03 26.2C4.03 26.2 5.47 21.88 7.71 20.78L8.2 21.9C8.2 21.9 5.54 24.24 5.36 26.53 5.36 26.53 6.33 27.14 6.49 27.89 6.65 28.64 6.96 28.88 7.12 28.97 7.16 28.99 7.19 29.03 7.21 29.08 6.92 28.92 6.27 28.73 6.25 28.16 6.23 27.37 5.79 27.2 5.2 26.68 4.61 26.15 6.05 23.94 6.7 22.87 7.17 22.09 5.67 22.53 4.92 24.34 4.17 26.15 4.38 26.25 4.25 26.36 4.13 26.47 3.4 26.85 3.34 27.93 3.28 29.01 4.02 29.22 4.02 29.22 4.6 29.87 5.16 29.57 5.16 29.57 5.82 29.92 5.9 29.05 5.9 29.05 6.32 29.67 6.85 29.62 7.14 29.45 7.23 29.48 7.41 29.58 7.37 29.86 7.32 30.24 6.2 30.62 5.46 29.93 5.46 29.93 4.94 30.22 4.22 29.51 4.22 29.51 3.97 29.75 3.38 28.8 2.81 27.87 3.37 26.71 4.03 26.2Z" stroke="#DBAA49" stroke-width="0.0607" stroke-linecap="round" stroke-linejoin="round" fill="#DBAA49" opacity="0.3"/></g><g><path d="M14.22 18.93C14.22 18.93 16.15 19.91 16.44 19.88 16.73 19.85 16.79 19.77 16.88 19.98 16.97 20.2 17.11 21.04 16.74 21.64 16.37 22.24 16.24 22.19 16.21 22.04 16.18 21.89 15.69 21.82 15.61 21.76 15.52 21.7 17.13 25.32 17.27 25.95 17.4 26.58 17.75 26.23 17.71 26.72 17.67 27.21 15.98 28.9 12.91 29.19 9.84 29.47 8.13 28.09 8.5 27.81 8.86 27.53 8.69 24.83 8.84 23.28 9 21.7 9.18 21.52 8.99 21.57 8.8 21.62 8.39 22.09 8.38 22.17 8.36 22.38 8.28 22.62 7.98 22.51 7.69 22.4 7.21 21.58 7.12 21.02 7.03 20.46 7.31 20.55 7.6 20.37 7.83 20.22 9.86 18.51 14.22 18.93Z" stroke="#468998" stroke-width="0.0607" stroke-linecap="round" stroke-linejoin="round" fill="#8AD1CF"/><path d="M15.61 21.79C15.6 21.79 15.59 21.78 15.58 21.77 15.42 21.39 15.09 20.52 15.09 20.51 15.08 20.49 15.09 20.48 15.11 20.47 15.12 20.46 15.14 20.47 15.15 20.49 15.15 20.5 15.49 21.37 15.64 21.75 15.65 21.77 15.64 21.79 15.63 21.79 15.62 21.79 15.61 21.79 15.61 21.79L15.61 21.79Z" fill="#468998"/><path d="M12.9 29.19C15.97 28.91 17.66 27.21 17.7 26.72 17.74 26.23 17.4 26.58 17.26 25.95 17.13 25.32 15.51 21.7 15.6 21.76 15.69 21.82 16.17 21.89 16.2 22.04 16.23 22.19 16.36 22.24 16.73 21.64 17.1 21.04 16.97 20.2 16.87 19.98 16.77 19.76 16.72 19.85 16.43 19.88 16.14 19.91 14.21 18.93 14.21 18.93 9.85 18.51 7.83 20.22 7.58 20.37 7.3 20.55 7.01 20.46 7.1 21.02 7.19 21.58 7.67 22.4 7.96 22.51 8.26 22.62 8.34 22.38 8.36 22.17 8.37 22.09 8.78 21.61 8.97 21.57 9.16 21.52 8.97 21.7 8.82 23.28 8.67 24.82 8.84 27.53 8.48 27.81 8.13 28.09 9.83 29.47 12.9 29.19ZM10.73 27.93C11.93 28.3 14.44 27.89 12.14 27.46 9.84 27.03 9.97 25.49 9.62 24.37 9.26 23.25 9.35 22.39 9.44 21.53 9.53 20.67 9.03 21.25 8.49 21.64 7.95 22.02 8.18 22.18 7.76 21.65 7.34 21.13 7.39 20.45 7.59 20.65 7.79 20.85 7.99 20.72 8.45 20.14 8.91 19.57 10.58 19.24 10.58 19.24 10.78 19.07 11.12 19.4 11.27 19.91 11.42 20.42 11.99 20.94 12.83 21.07 13.67 21.2 14 20.57 14.04 19.85 14.08 19.13 15.62 19.63 16.1 20.05 16.58 20.47 16.52 19.65 16.64 20.58 16.76 21.51 16.15 21.75 16.26 21.54 16.36 21.34 16.37 20.56 16.15 21.37 15.94 22.18 15.71 21.31 15.54 20.89 15.37 20.47 15.19 19.97 14.98 20.24 14.76 20.5 14.74 20.76 15.7 22.9 16.66 25.04 16.26 26.81 16.79 26.73 17.7 26.58 15.93 28.15 13.1 28.69 10.26 29.21 9.52 27.56 10.73 27.93Z" fill="#8AD1CF" opacity="0.5"/><path d="M8.49 27.81C8.85 27.53 8.68 24.83 8.83 23.28 8.99 21.7 9.17 21.52 8.98 21.57 8.79 21.62 8.38 22.09 8.37 22.17 8.35 22.38 8.27 22.62 7.97 22.51 7.84 22.46 7.68 22.28 7.54 22.05 7.79 22.11 8.16 22.17 8.07 22.02 8.06 22 8.06 21.99 8.05 21.97 8.12 21.98 8.18 21.84 8.48 21.62 8.6 21.53 8.72 21.43 8.84 21.35 8.9 21.32 8.97 21.3 9.03 21.28 9.54 21.11 8.66 26.09 10.08 26.91 11.5 27.73 9.81 27.48 9.45 27.23 9.11 27 8.79 28.53 11.25 29.18 9.24 28.97 8.2 28.03 8.49 27.81Z" fill="#8AD1CF" opacity="0.5"/><path d="M14.32 20.51C14.32 20.51 14.16 21.63 14.94 22.72 15.72 23.81 16.7 26.71 15.08 27.15 13.46 27.59 13.31 25.85 12.16 25.93 11.01 26.01 10.14 24.86 10.53 23.77 10.92 22.68 9.84 22.41 10.42 21.36 11 20.31 11.76 20.95 12.23 21.28 12.7 21.62 13.4 21.61 13.66 21.13 13.91 20.66 14.2 20.13 14.32 20.51Z" fill="#9BD7D6"/></g><path d="M16.24 27.06C16.24 27.06 13.92 28.35 12.22 28.18 10.52 28.02 11.96 28.95 14.22 28.27 16.47 27.59 16.68 26.95 16.24 27.06Z" fill="#9BD7D6"/><g><path d="M13.33 19.27C13.33 19.27 13.95 20.45 13.28 20.67 12.61 20.89 11.46 20.11 11.36 19.44 11.27 18.77 12.92 18.73 13.33 19.27Z" stroke="#AE7D2B" stroke-width="0.0607" stroke-linecap="round" stroke-linejoin="round" fill="#DBAA49"/><path d="M11.36 19.44C11.45 20.11 12.61 20.89 13.28 20.67 13.95 20.45 13.33 19.27 13.33 19.27 12.92 18.73 11.27 18.77 11.36 19.44ZM12.74 19.3C12.9 19.21 13.13 19.37 13.27 19.64 13.41 19.92 13.39 20.22 13.23 20.31 13.07 20.4 12.84 20.24 12.7 19.97 12.57 19.69 12.58 19.39 12.74 19.3Z" stroke="#DBAA49" stroke-width="0.0607" stroke-linecap="round" stroke-linejoin="round" fill="#DBAA49" opacity="0.3"/></g><g><g><path d="M5.96 16.19C5.63 17.05 4.79 16.95 4.79 16.95 4.79 16.95 5.04 17.32 4.75 17.65 4.46 17.98 4.1 17.67 4.1 17.93 4.1 18.19 4.96 18.84 5.33 17.76 5.33 17.76 5.27 18.43 5.52 18.42 5.77 18.41 5.83 17.56 5.83 17.56 5.83 17.56 6.13 18.15 6.29 17.98 6.46 17.81 6.37 17.23 6.37 17.23 6.37 17.23 7.05 17.82 7.37 17.19 6.47 16.83 5.96 16.19 5.96 16.19L5.96 16.19Z" fill="#443619"/><path d="M5.96 16.19C5.63 17.05 4.79 16.95 4.79 16.95 4.79 16.95 5.04 17.32 4.75 17.65 4.46 17.98 4.1 17.67 4.1 17.93 4.1 18.19 4.96 18.84 5.33 17.76 5.33 17.76 5.27 18.43 5.52 18.42 5.77 18.41 5.83 17.56 5.83 17.56 5.83 17.56 6.13 18.15 6.29 17.98 6.46 17.81 6.37 17.23 6.37 17.23 6.37 17.23 7.05 17.82 7.37 17.19 6.47 16.83 5.96 16.19 5.96 16.19Z" stroke="#000000" stroke-width="0.0911" fill="none"/></g><g><path d="M18.03 8.61C18.13 8.58 18.81 8.36 18.68 8.03 18.68 8.03 19.09 7.98 19.17 7.79 19.24 7.59 18.85 7.47 18.85 7.47 18.85 7.47 19.14 7.45 18.82 7.03 18.51 6.61 18.23 6.6 18.23 6.6 18.23 6.6 18.77 6.59 18.84 6.05 18.91 5.51 18.48 6.09 18.01 5.66 18.01 5.66 17.95 5.61 17.97 5.58 17.54 5.66 17.18 5.62 17.18 5.62 17.06 5.74 16.94 5.79 16.81 5.79 17.22 6.44 17.72 7.41 18.03 8.61L18.03 8.61Z" fill="#443619"/><path d="M18.03 8.61C18.13 8.58 18.81 8.36 18.68 8.03 18.68 8.03 19.09 7.98 19.17 7.79 19.24 7.59 18.85 7.47 18.85 7.47 18.85 7.47 19.14 7.45 18.82 7.03 18.51 6.61 18.23 6.6 18.23 6.6 18.23 6.6 18.77 6.59 18.84 6.05 18.91 5.51 18.48 6.09 18.01 5.66 18.01 5.66 17.95 5.61 17.97 5.58 17.54 5.66 17.18 5.62 17.18 5.62 17.06 5.74 16.94 5.79 16.81 5.79 17.22 6.44 17.72 7.41 18.03 8.61Z" stroke="#000000" stroke-width="0.0911" fill="none"/><path d="M17.65 5.87C17.65 5.87 17.82 6.2 18.3 6.04 18.78 5.88 18.36 6.74 17.49 6.35 16.63 5.96 17.38 5.63 17.65 5.87L17.65 5.87Z" fill="#6A5523"/><path d="M17.89 6.83C17.89 6.83 18.57 6.98 18.71 7.23 18.85 7.47 17.8 7.39 17.89 6.83L17.89 6.83Z" fill="#6A5523"/><path d="M17.94 7.43C17.94 7.43 18.56 7.49 18.79 7.61 19.02 7.73 18.2 7.89 17.94 7.43L17.94 7.43Z" fill="#6A5523"/><path d="M18.29 10.94C18.18 10.25 18.02 9.2 18.01 8.62 18.01 8.62 18.02 8.62 18.02 8.62 17.72 7.42 17.21 6.45 16.81 5.8 16.34 5.8 15.87 5.12 15.87 5.12 15.87 5.12 16.28 5.87 15.99 6.04 15.71 6.21 15.17 5.39 15.17 5.39 15.17 5.39 15.6 6.18 15.22 6.43 14.84 6.68 14.44 5.72 14.44 5.72 14.43 6.18 13.66 7.13 13.45 6.99 13.24 6.85 13.56 5.87 13.56 5.87 12.9 7.13 11.24 7.62 11.44 7.29 11.64 6.96 11.45 6.46 11.45 6.46 11.18 7.83 9.76 8.53 9.94 8.2 10.12 7.87 10.17 7.2 10.17 7.2 9.94 8.2 8.72 9.15 8.29 9.31 7.86 9.46 7.86 9.27 7.86 9.27 7.21 9.55 6.71 8.2 6.71 8.2 6.71 8.2 6.98 9.34 6.79 9.45 6.6 9.56 6.29 9.03 6.29 9.03 6.29 9.03 6.84 10.13 6.57 10.43 6.3 10.73 5.77 10.05 5.77 10.05 6.19 10.83 6.46 11.93 6.09 12.04 5.72 12.15 5.51 11.36 5.51 11.36 5.51 11.36 5.53 11.57 5.38 12.24 5.23 12.9 5.52 14.53 5.59 15.02 5.66 15.51 5.82 15.91 5.63 15.99 5.44 16.07 5.46 15.8 5.23 15.35 5 14.92 4.27 14.19 3.59 14.66 2.91 15.13 2.98 15.91 2.98 15.91 2.98 15.91 3.16 17.14 4.12 17.21 4.12 17.21 4.91 17.54 5.43 16.8 5.43 16.8 5.77 17.55 6.54 18.16 6.54 18.16 6.54 18.16 6.55 18.17 6.67 18.28 8.59 19.95 12.09 19.29 12.09 19.29 13.28 19.62 14.7 18.71 16.12 17.8 19.19 14.98 18.41 11.6 18.41 11.6 18.38 11.4 18.33 11.11 18.31 11.11 18.3 11.11 18.3 11.11 18.29 11.04 18.29 10.99 18.29 10.94L18.29 10.94Z" fill="#DBAA4A"/><path d="M18.29 10.94C18.18 10.25 18.02 9.2 18.01 8.62 18.01 8.62 18.02 8.62 18.02 8.62 17.72 7.42 17.21 6.45 16.81 5.8 16.34 5.8 15.87 5.12 15.87 5.12 15.87 5.12 16.28 5.87 15.99 6.04 15.71 6.21 15.17 5.39 15.17 5.39 15.17 5.39 15.6 6.18 15.22 6.43 14.84 6.68 14.44 5.72 14.44 5.72 14.43 6.18 13.66 7.13 13.45 6.99 13.24 6.85 13.56 5.87 13.56 5.87 12.9 7.13 11.24 7.62 11.44 7.29 11.64 6.96 11.45 6.46 11.45 6.46 11.18 7.83 9.76 8.53 9.94 8.2 10.12 7.87 10.17 7.2 10.17 7.2 9.94 8.2 8.72 9.15 8.29 9.31 7.86 9.46 7.86 9.27 7.86 9.27 7.21 9.55 6.71 8.2 6.71 8.2 6.71 8.2 6.98 9.34 6.79 9.45 6.6 9.56 6.29 9.03 6.29 9.03 6.29 9.03 6.84 10.13 6.57 10.43 6.3 10.73 5.77 10.05 5.77 10.05 6.19 10.83 6.46 11.93 6.09 12.04 5.72 12.15 5.51 11.36 5.51 11.36 5.51 11.36 5.53 11.57 5.38 12.24 5.23 12.9 5.52 14.53 5.59 15.02 5.66 15.51 5.82 15.91 5.63 15.99 5.44 16.07 5.46 15.8 5.23 15.35 5 14.92 4.27 14.19 3.59 14.66 2.91 15.13 2.98 15.91 2.98 15.91 2.98 15.91 3.16 17.14 4.12 17.21 4.12 17.21 4.91 17.54 5.43 16.8 5.43 16.8 5.77 17.55 6.54 18.16 6.54 18.16 6.54 18.16 6.55 18.17 6.67 18.28 8.59 19.95 12.09 19.29 12.09 19.29 13.28 19.62 14.7 18.71 16.12 17.8 19.19 14.98 18.41 11.6 18.41 11.6 18.38 11.4 18.33 11.11 18.31 11.11 18.3 11.11 18.3 11.11 18.29 11.04 18.29 10.99 18.29 10.94Z" stroke="#AF7F2C" stroke-width="0.0607" fill="none"/><g opacity="0.18"><g><path d="M16.81 5.79C16.34 5.79 15.87 5.11 15.87 5.11 15.87 5.11 16.28 5.86 15.99 6.03 15.71 6.2 15.17 5.38 15.17 5.38 15.17 5.38 15.6 6.17 15.22 6.42 14.84 6.67 14.44 5.71 14.44 5.71 14.43 6.17 13.66 7.12 13.45 6.98 13.24 6.84 13.56 5.86 13.56 5.86 12.9 7.12 11.24 7.61 11.44 7.28 11.64 6.95 11.45 6.45 11.45 6.45 11.18 7.82 9.76 8.52 9.94 8.19 10.12 7.86 10.17 7.19 10.17 7.19 9.94 8.19 8.72 9.14 8.29 9.3 7.86 9.46 7.86 9.27 7.86 9.27 7.21 9.55 6.71 8.2 6.71 8.2 6.71 8.2 6.98 9.34 6.79 9.45 6.6 9.56 6.29 9.03 6.29 9.03 6.29 9.03 6.84 10.13 6.57 10.43 6.3 10.73 5.77 10.05 5.77 10.05 6.19 10.83 6.46 11.93 6.09 12.04 5.72 12.15 5.51 11.36 5.51 11.36 5.51 11.36 5.53 11.57 5.38 12.24 5.23 12.9 5.52 14.53 5.59 15.02 5.65 15.52 5.82 15.91 5.63 15.99 5.44 16.07 5.46 15.8 5.23 15.35 5.01 14.93 4.32 14.25 3.67 14.61L3.67 14.63C3.67 14.63 4.16 14.49 4.47 15.12 4.77 15.75 5.08 17.15 4.4 17.23 4.34 17.24 4.27 17.24 4.19 17.24 4.39 17.3 5 17.42 5.44 16.81 5.44 16.81 5.78 17.56 6.55 18.17 6.55 18.17 6.55 18.17 6.56 18.18 6.68 18.29 8.6 19.96 12.1 19.3 12.1 19.3 13.29 19.63 14.71 18.72 16.13 17.81 19.2 14.99 18.42 11.61 18.42 11.61 18.39 11.41 18.34 11.12 18.32 11.12 18.31 11.12 18.31 11.12 18.31 11.06 18.31 11.01 18.31 10.96 18.2 10.27 18.04 9.22 18.03 8.64 18.03 8.64 18.04 8.64 18.04 8.64 17.72 7.41 17.22 6.44 16.81 5.79L16.81 5.79ZM17.86 15.05C17.02 16.71 14.4 20.2 11.83 18.81 11.83 18.81 11.75 18.72 11.55 18.85 11.25 19.05 8.74 18.95 7.49 17.6 6.19 16.19 6.18 14.21 6.56 13.22 6.94 12.22 8.14 11.76 9.38 12.82 10.62 13.88 12.51 14.34 13.76 12.44 13.76 12.44 14.59 10.49 15.77 11.19 16.95 11.89 17.56 11.9 17.97 11.66 18.38 11.4 18.7 13.39 17.86 15.05L17.86 15.05ZM16.62 7.24C15.8 8.89 13.4 9.63 12.03 8.55 11.15 7.86 12.11 7.37 13.44 7.24 14.62 7.12 15.28 6.78 16 6.55 16.14 6.5 16.28 6.47 16.39 6.47 16.66 6.46 16.85 6.77 16.62 7.24L16.62 7.24Z" fill="#DBAA4A"/><path d="M16.81 5.79C16.34 5.79 15.87 5.11 15.87 5.11 15.87 5.11 16.28 5.86 15.99 6.03 15.71 6.2 15.17 5.38 15.17 5.38 15.17 5.38 15.6 6.17 15.22 6.42 14.84 6.67 14.44 5.71 14.44 5.71 14.43 6.17 13.66 7.12 13.45 6.98 13.24 6.84 13.56 5.86 13.56 5.86 12.9 7.12 11.24 7.61 11.44 7.28 11.64 6.95 11.45 6.45 11.45 6.45 11.18 7.82 9.76 8.52 9.94 8.19 10.12 7.86 10.17 7.19 10.17 7.19 9.94 8.19 8.72 9.14 8.29 9.3 7.86 9.46 7.86 9.27 7.86 9.27 7.21 9.55 6.71 8.2 6.71 8.2 6.71 8.2 6.98 9.34 6.79 9.45 6.6 9.56 6.29 9.03 6.29 9.03 6.29 9.03 6.84 10.13 6.57 10.43 6.3 10.73 5.77 10.05 5.77 10.05 6.19 10.83 6.46 11.93 6.09 12.04 5.72 12.15 5.51 11.36 5.51 11.36 5.51 11.36 5.53 11.57 5.38 12.24 5.23 12.9 5.52 14.53 5.59 15.02 5.65 15.52 5.82 15.91 5.63 15.99 5.44 16.07 5.46 15.8 5.23 15.35 5.01 14.93 4.32 14.25 3.67 14.61L3.67 14.63C3.67 14.63 4.16 14.49 4.47 15.12 4.77 15.75 5.08 17.15 4.4 17.23 4.34 17.24 4.27 17.24 4.19 17.24 4.39 17.3 5 17.42 5.44 16.81 5.44 16.81 5.78 17.56 6.55 18.17 6.55 18.17 6.55 18.17 6.56 18.18 6.68 18.29 8.6 19.96 12.1 19.3 12.1 19.3 13.29 19.63 14.71 18.72 16.13 17.81 19.2 14.99 18.42 11.61 18.42 11.61 18.39 11.41 18.34 11.12 18.32 11.12 18.31 11.12 18.31 11.12 18.31 11.06 18.31 11.01 18.31 10.96 18.2 10.27 18.04 9.22 18.03 8.64 18.03 8.64 18.04 8.64 18.04 8.64 17.72 7.41 17.22 6.44 16.81 5.79ZM17.86 15.05C17.02 16.71 14.4 20.2 11.83 18.81 11.83 18.81 11.75 18.72 11.55 18.85 11.25 19.05 8.74 18.95 7.49 17.6 6.19 16.19 6.18 14.21 6.56 13.22 6.94 12.22 8.14 11.76 9.38 12.82 10.62 13.88 12.51 14.34 13.76 12.44 13.76 12.44 14.59 10.49 15.77 11.19 16.95 11.89 17.56 11.9 17.97 11.66 18.38 11.4 18.7 13.39 17.86 15.05ZM16.62 7.24C15.8 8.89 13.4 9.63 12.03 8.55 11.15 7.86 12.11 7.37 13.44 7.24 14.62 7.12 15.28 6.78 16 6.55 16.14 6.5 16.28 6.47 16.39 6.47 16.66 6.46 16.85 6.77 16.62 7.24Z" stroke="#DBAA4A" stroke-width="0.0607" fill="none"/></g></g><path d="M18.29 11.1C18.29 11.1 18.3 11.1 18.32 11.1 18.31 11.05 18.3 10.99 18.29 10.93 18.29 10.99 18.29 11.04 18.29 11.1Z" stroke="#EE5389" stroke-width="0.0607" fill="none"/><g opacity="0.43"><g><path d="M13.4 8.18C13.4 8.18 11.94 7.07 10.33 8.4L10.58 9.02C10.58 9.02 11.75 7.83 13.18 8.68L13.4 8.18Z" fill="#DBAA4A"/><path d="M13.4 8.18C13.4 8.18 11.94 7.07 10.33 8.4L10.58 9.02C10.58 9.02 11.75 7.83 13.18 8.68L13.4 8.18Z" stroke="#DBAA4A" stroke-width="0.0607" fill="none"/></g></g><path d="M13.4 7.99C13.4 7.99 11.94 6.88 10.33 8.21L10.58 8.83C10.58 8.83 11.75 7.64 13.18 8.49L13.4 7.99Z" fill="#392E17"/><path d="M13.4 7.99C13.4 7.99 11.94 6.88 10.33 8.21L10.58 8.83C10.58 8.83 11.75 7.64 13.18 8.49L13.4 7.99Z" stroke="#000000" stroke-width="0.0911" fill="none"/><path d="M4.71 15.94C4.71 15.94 4.4 15.69 4.41 15.39 4.42 15.09 3.95 14.93 3.6 15.22 3.34 15.44 3.44 15.9 3.54 16.17 3.66 16.47 3.92 16.71 4.24 16.72 4.99 16.74 4.96 16.05 4.71 15.94L4.71 15.94Z" fill="#DBAA4A"/><path d="M4.71 15.94C4.71 15.94 4.4 15.69 4.41 15.39 4.42 15.09 3.95 14.93 3.6 15.22 3.34 15.44 3.44 15.9 3.54 16.17 3.66 16.47 3.92 16.71 4.24 16.72 4.99 16.74 4.96 16.05 4.71 15.94Z" stroke="#AF7F2C" stroke-width="0.0607" fill="none"/><g opacity="0.6"><g><path d="M3.6 15.22C3.94 14.95 4.37 15.07 4.41 15.34 4.34 15.36 4.27 15.39 4.21 15.44 4.02 15.6 4.09 15.94 4.17 16.14 4.26 16.36 4.45 16.54 4.68 16.54 4.71 16.54 4.74 16.54 4.76 16.54 4.66 16.65 4.5 16.73 4.24 16.72 3.92 16.71 3.66 16.48 3.54 16.17 3.44 15.9 3.34 15.44 3.6 15.22L3.6 15.22Z" fill="#DBAA4A"/></g></g><g opacity="0.6"><g><path d="M4.46 16.72 5 16.39 4.43 15.3 3.89 15.63Z" fill="none"/><path d="M4.16 16.14C4.08 15.94 4.01 15.6 4.2 15.44 4.26 15.39 4.33 15.35 4.4 15.34 4.4 15.36 4.4 15.37 4.4 15.39 4.39 15.69 4.7 15.94 4.7 15.94 4.86 16.01 4.93 16.33 4.74 16.54 4.71 16.54 4.69 16.54 4.66 16.54 4.44 16.54 4.25 16.36 4.16 16.14L4.16 16.14Z" fill="#DBAA4A"/></g></g><g opacity="0.6"><g><path d="M4.46 16.72 5 16.39 4.43 15.3 3.89 15.63Z" fill="none"/><path d="M4.16 16.14C4.08 15.94 4.01 15.6 4.2 15.44 4.26 15.39 4.33 15.35 4.4 15.34 4.4 15.36 4.4 15.37 4.4 15.39 4.39 15.69 4.7 15.94 4.7 15.94 4.86 16.01 4.93 16.33 4.74 16.54 4.71 16.54 4.69 16.54 4.66 16.54 4.44 16.54 4.25 16.36 4.16 16.14L4.16 16.14Z" fill="#DBAA4A"/></g></g><g opacity="0.76"><g><path d="M4.71 15.94C4.71 15.94 4.4 15.69 4.41 15.39 4.42 15.09 3.95 14.93 3.6 15.22 3.34 15.44 3.44 15.9 3.54 16.17 3.66 16.47 3.92 16.71 4.24 16.72 4.99 16.74 4.96 16.05 4.71 15.94Z" stroke="#AF7F2C" stroke-width="0.0607" fill="none"/></g></g><path d="M15.82 13.29C15.81 13.29 15.79 13.28 15.79 13.27 15.79 13.25 15.8 13.24 15.81 13.23 15.89 13.21 16.04 13.02 16.06 12.83 16.07 12.73 16.06 12.6 15.91 12.52 15.58 12.34 15.35 12.74 15.34 12.75 15.33 12.76 15.31 12.77 15.3 12.76 15.29 12.75 15.28 12.73 15.29 12.72 15.29 12.72 15.56 12.25 15.93 12.46 16.06 12.54 16.13 12.67 16.11 12.83 16.1 13.05 15.94 13.26 15.82 13.29 15.82 13.29 15.82 13.29 15.82 13.29L15.82 13.29Z" fill="#AF7F2C"/><g opacity="0.26"><g><path d="M15.67 13.35 16.22 13.02 16.06 12.71 15.51 13.05Z" fill="none"/><path d="M16.05 12.76C16.05 12.76 16.09 12.98 15.95 13.12 15.81 13.26 15.63 13.27 15.6 13.15 15.58 13.03 16.02 13.08 16.05 12.76L16.05 12.76Z" fill="#DBAA4A"/><path d="M16.05 12.76C16.05 12.76 16.09 12.98 15.95 13.12 15.81 13.26 15.63 13.27 15.6 13.15 15.58 13.03 16.02 13.08 16.05 12.76Z" stroke="#DBAA4A" stroke-width="0.0607" stroke-linecap="round" stroke-linejoin="round" fill="none"/></g></g><path d="M18.23 2.25C18.23 2.25 18.58 1.81 18.29 1.21 18 0.6 18.01 1.74 17.38 1.88 17.38 1.88 17.63 1.36 17.36 1.04 17.09 0.72 16.52 1.65 16.52 1.65 16.52 1.65 16.99 0.84 16.45 0.34 15.91-0.16 15.41 0 15.74 0.67 16.07 1.34 15.47 1.9 15.05 1.74 14.63 1.57 14.23 1.33 14.23 1.33 14.23 1.33 11.95-0.13 9.1 0.94 9.1 0.94 9.34 0.11 8.84 0.1 8.34 0.1 8.42 1.2 8.42 1.2 8.42 1.2 8.09-0.05 7.53 0.36 6.96 0.78 8.54 1.55 7.54 1.2 6.54 0.85 6.75 1.79 7.08 1.82 7.08 1.82 5.46 2.43 4.42 4 4.42 4 4.01 4.55 3.53 4.44 3.05 4.34 3.34 4.02 3.14 3.76 2.93 3.5 2.43 4.55 2.92 4.98 3.41 5.41 2.11 4.69 1.87 5.21 1.63 5.74 2.87 5.6 2.87 5.6 2.87 5.6 1.92 5.92 2.12 6.37 2.12 6.37 0.42 7.32 0.43 8.04 0.45 8.76 1.71 7.61 1.71 7.61 1.71 7.61 1.45 7.86 1.51 8.08 1.51 8.08 1.26 8.27 1.46 8.61 1.46 8.61 1 9.57 0.29 9.51-0.42 9.44 0.52 10.33 1.19 10.09 1.19 10.09 0.82 10.58 0.48 10.57 0.14 10.57 0.55 11.31 1.13 10.89 1.13 10.89 0.62 12.44 0.79 12.76 0.96 13.08 1.2 12.7 1.2 12.7 1.2 12.7 1.08 13.94 1.43 14.7 1.78 15.47 2.03 14.55 2.03 14.55 2.03 14.55 1.99 15.28 2.39 15.96 2.79 16.63 2.97 15.92 2.97 15.92 2.97 15.92 2.9 15.14 3.58 14.67 4.26 14.2 4.99 14.93 5.22 15.36 5.45 15.81 5.43 16.07 5.62 16 5.81 15.92 5.64 15.53 5.58 15.03 5.52 14.53 5.22 12.91 5.37 12.25 5.52 11.58 5.5 11.37 5.5 11.37 5.5 11.37 5.71 12.16 6.08 12.05 6.45 11.94 6.18 10.84 5.76 10.06 5.76 10.06 6.29 10.73 6.56 10.44 6.83 10.14 6.28 9.04 6.28 9.04 6.28 9.04 6.59 9.58 6.78 9.46 6.98 9.34 6.71 8.2 6.71 8.2 6.71 8.2 7.21 9.54 7.86 9.26 7.86 9.26 7.86 9.46 8.28 9.29 8.71 9.13 9.94 8.17 10.16 7.18 10.16 7.18 10.11 7.84 9.93 8.18 9.75 8.52 11.17 7.81 11.44 6.44 11.44 6.44 11.63 6.94 11.43 7.27 11.23 7.6 12.89 7.11 13.55 5.85 13.55 5.85 13.23 6.83 13.44 6.97 13.65 7.11 14.42 6.17 14.43 5.7 14.43 5.7 14.83 6.67 15.21 6.41 15.59 6.16 15.16 5.37 15.16 5.37 15.16 5.37 15.7 6.19 15.98 6.02 16.26 5.85 15.86 5.1 15.86 5.1 15.86 5.1 16.62 6.19 17.17 5.61 17.17 5.61 17.53 5.65 17.96 5.57 17.97 5.56 17.98 5.55 18.01 5.55 18.13 5.54 18.81 5.34 18.88 4.99 18.94 4.63 18.7 4.83 18.43 4.75 18.43 4.75 19.12 4.6 19.16 4.08 19.2 3.56 18.82 3.77 18.82 3.77 18.82 3.77 19.28 3.52 19.22 3.36 19.16 3.2 18.58 3.44 18.58 3.44 18.58 3.44 19.34 3.12 19.25 2.91 19.16 2.7 18.46 2.81 18.46 2.81 18.46 2.81 19.28 2.48 19.1 1.83 18.92 1.19 18.85 1.86 18.23 2.25L18.23 2.25Z" fill="#443619"/><path d="M18.23 2.25C18.23 2.25 18.58 1.81 18.29 1.21 18 0.6 18.01 1.74 17.38 1.88 17.38 1.88 17.63 1.36 17.36 1.04 17.09 0.72 16.52 1.65 16.52 1.65 16.52 1.65 16.99 0.84 16.45 0.34 15.91-0.16 15.41 0 15.74 0.67 16.07 1.34 15.47 1.9 15.05 1.74 14.63 1.57 14.23 1.33 14.23 1.33 14.23 1.33 11.95-0.13 9.1 0.94 9.1 0.94 9.34 0.11 8.84 0.1 8.34 0.1 8.42 1.2 8.42 1.2 8.42 1.2 8.09-0.05 7.53 0.36 6.96 0.78 8.54 1.55 7.54 1.2 6.54 0.85 6.75 1.79 7.08 1.82 7.08 1.82 5.46 2.43 4.42 4 4.42 4 4.01 4.55 3.53 4.44 3.05 4.34 3.34 4.02 3.14 3.76 2.93 3.5 2.43 4.55 2.92 4.98 3.41 5.41 2.11 4.69 1.87 5.21 1.63 5.74 2.87 5.6 2.87 5.6 2.87 5.6 1.92 5.92 2.12 6.37 2.12 6.37 0.42 7.32 0.43 8.04 0.45 8.76 1.71 7.61 1.71 7.61 1.71 7.61 1.45 7.86 1.51 8.08 1.51 8.08 1.26 8.27 1.46 8.61 1.46 8.61 1 9.57 0.29 9.51-0.42 9.44 0.52 10.33 1.19 10.09 1.19 10.09 0.82 10.58 0.48 10.57 0.14 10.57 0.55 11.31 1.13 10.89 1.13 10.89 0.62 12.44 0.79 12.76 0.96 13.08 1.2 12.7 1.2 12.7 1.2 12.7 1.08 13.94 1.43 14.7 1.78 15.47 2.03 14.55 2.03 14.55 2.03 14.55 1.99 15.28 2.39 15.96 2.79 16.63 2.97 15.92 2.97 15.92 2.97 15.92 2.9 15.14 3.58 14.67 4.26 14.2 4.99 14.93 5.22 15.36 5.45 15.81 5.43 16.07 5.62 16 5.81 15.92 5.64 15.53 5.58 15.03 5.52 14.53 5.22 12.91 5.37 12.25 5.52 11.58 5.5 11.37 5.5 11.37 5.5 11.37 5.71 12.16 6.08 12.05 6.45 11.94 6.18 10.84 5.76 10.06 5.76 10.06 6.29 10.73 6.56 10.44 6.83 10.14 6.28 9.04 6.28 9.04 6.28 9.04 6.59 9.58 6.78 9.46 6.98 9.34 6.71 8.2 6.71 8.2 6.71 8.2 7.21 9.54 7.86 9.26 7.86 9.26 7.86 9.46 8.28 9.29 8.71 9.13 9.94 8.17 10.16 7.18 10.16 7.18 10.11 7.84 9.93 8.18 9.75 8.52 11.17 7.81 11.44 6.44 11.44 6.44 11.63 6.94 11.43 7.27 11.23 7.6 12.89 7.11 13.55 5.85 13.55 5.85 13.23 6.83 13.44 6.97 13.65 7.11 14.42 6.17 14.43 5.7 14.43 5.7 14.83 6.67 15.21 6.41 15.59 6.16 15.16 5.37 15.16 5.37 15.16 5.37 15.7 6.19 15.98 6.02 16.26 5.85 15.86 5.1 15.86 5.1 15.86 5.1 16.62 6.19 17.17 5.61 17.17 5.61 17.53 5.65 17.96 5.57 17.97 5.56 17.98 5.55 18.01 5.55 18.13 5.54 18.81 5.34 18.88 4.99 18.94 4.63 18.7 4.83 18.43 4.75 18.43 4.75 19.12 4.6 19.16 4.08 19.2 3.56 18.82 3.77 18.82 3.77 18.82 3.77 19.28 3.52 19.22 3.36 19.16 3.2 18.58 3.44 18.58 3.44 18.58 3.44 19.34 3.12 19.25 2.91 19.16 2.7 18.46 2.81 18.46 2.81 18.46 2.81 19.28 2.48 19.1 1.83 18.92 1.19 18.85 1.86 18.23 2.25Z" stroke="#000000" stroke-width="0.0911" fill="none"/><path d="M10.43 15.81C10.42 15.81 10.41 15.8 10.4 15.79 10.39 15.78 10.4 15.76 10.41 15.75 11.18 15.32 11.27 14.59 11.27 14.59 11.27 14.57 11.29 14.56 11.3 14.56 11.32 14.56 11.33 14.58 11.33 14.6 11.33 14.61 11.24 15.37 10.44 15.81 10.44 15.81 10.43 15.81 10.43 15.81L10.43 15.81Z" fill="#AF7F2C"/><path d="M11.74 9.26C11.74 9.26 9.99 9.28 9.73 11.22 9.48 13.02 12.14 14.46 13.47 12.5 14.69 10.69 12.73 9.11 11.74 9.26L11.74 9.26Z" fill="#E1D8BD"/><path d="M11.74 9.26C11.74 9.26 9.99 9.28 9.73 11.22 9.48 13.02 12.14 14.46 13.47 12.5 14.69 10.69 12.73 9.11 11.74 9.26Z" stroke="#84722C" stroke-width="0.0911" stroke-linecap="round" stroke-linejoin="round" fill="none"/><path d="M11.83 9.56C11.83 9.56 10.43 9.61 10.09 11.2 9.75 12.8 12.13 13.99 13.26 12.31 14.31 10.77 12.72 9.37 11.83 9.56L11.83 9.56Z" fill="#F5EFDE"/><path d="M13.56 11.06C13.53 11.54 13.14 11.9 12.68 11.88 12.22 11.85 11.87 11.44 11.89 10.96 11.92 10.48 12.31 10.12 12.77 10.14 13.24 10.17 13.59 10.58 13.56 11.06L13.56 11.06Z" fill="#7F7A30"/><g opacity="0.76"><g><path d="M12.53 11.96 13.71 11.25 13.06 9.99 11.87 10.7Z" fill="none"/><path d="M13.48 11.02C13.46 11.41 13.13 11.72 12.76 11.69 12.38 11.67 12.09 11.33 12.11 10.93 12.13 10.54 12.45 10.24 12.83 10.26 13.21 10.28 13.5 10.62 13.48 11.02L13.48 11.02Z" fill="#4E502E"/></g></g><path d="M13.27 10.78C13.26 11.01 13.08 11.18 12.88 11.17 12.68 11.16 12.52 10.96 12.54 10.74 12.55 10.51 12.73 10.34 12.93 10.35 13.13 10.36 13.29 10.56 13.27 10.78L13.27 10.78Z" fill="#2C2D1B"/><g opacity="0.75"><g><path d="M12.48 10.98 12.93 10.7 12.67 10.21 12.22 10.48Z" fill="none"/><path d="M12.83 10.61C12.82 10.77 12.7 10.89 12.56 10.88 12.42 10.87 12.31 10.74 12.32 10.58 12.33 10.42 12.45 10.3 12.59 10.31 12.73 10.31 12.84 10.45 12.83 10.61L12.83 10.61Z" fill="#E3D67D"/></g></g><path d="M17.21 7.75C17.21 7.75 16.28 7.91 15.92 8.85 15.56 9.79 15.99 11.63 17.53 11.49 19.04 11.36 19.32 10.01 19.03 9.05 18.73 8.09 18.06 7.56 17.21 7.75L17.21 7.75Z" fill="#E1D8BD"/><path d="M17.21 7.75C17.21 7.75 16.28 7.91 15.92 8.85 15.56 9.79 15.99 11.63 17.53 11.49 19.04 11.36 19.32 10.01 19.03 9.05 18.73 8.09 18.06 7.56 17.21 7.75Z" stroke="#84722C" stroke-width="0.0911" stroke-linecap="round" stroke-linejoin="round" fill="none"/><path d="M17.32 8C17.32 8 16.52 8.13 16.21 8.96 15.9 9.79 16.29 11.41 17.63 11.31 18.94 11.21 19.17 10.03 18.91 9.18 18.65 8.32 18.07 7.84 17.32 8L17.32 8Z" fill="#F5EFDE"/><path d="M18.83 9.28C18.77 9.72 18.38 10.02 17.96 9.96 17.54 9.89 17.25 9.49 17.3 9.05 17.36 8.61 17.74 8.31 18.17 8.38 18.6 8.44 18.89 8.85 18.83 9.28L18.83 9.28Z" fill="#7F7A30"/><g opacity="0.76"><g><path d="M17.89 10.05 18.98 9.39 18.38 8.23 17.28 8.89Z" fill="none"/><path d="M18.76 9.23C18.71 9.59 18.39 9.84 18.05 9.79 17.7 9.74 17.46 9.4 17.51 9.04 17.56 8.68 17.88 8.43 18.22 8.48 18.56 8.54 18.81 8.87 18.76 9.23L18.76 9.23Z" fill="#4E502E"/></g></g><path d="M18.58 8.99C18.55 9.2 18.38 9.34 18.2 9.31 18.02 9.28 17.89 9.09 17.92 8.88 17.95 8.67 18.12 8.53 18.3 8.56 18.48 8.59 18.6 8.78 18.58 8.99L18.58 8.99Z" fill="#2C2D1B"/><g opacity="0.75"><g><path d="M17.78 9.21 18.19 8.96 17.96 8.5 17.54 8.75Z" fill="none"/><path d="M18.1 8.89C18.08 9.04 17.96 9.14 17.83 9.12 17.7 9.1 17.61 8.97 17.63 8.82 17.65 8.67 17.77 8.57 17.9 8.59 18.03 8.61 18.12 8.75 18.1 8.89L18.1 8.89Z" fill="#E3D67D"/></g></g><g opacity="0.43"><g><path d="M16.95 8.2 18.58 7.21 17.96 6.03 16.33 7.01Z" fill="none"/><path d="M16.39 7.07C16.39 7.07 17.35 6.07 18.37 6.89L18.38 7.25C18.38 7.25 17.42 6.76 16.69 7.55L16.39 7.07Z" fill="#DBAA4A"/><path d="M16.39 7.07C16.39 7.07 17.35 6.07 18.37 6.89L18.38 7.25C18.38 7.25 17.42 6.76 16.69 7.55L16.39 7.07Z" stroke="#DBAA4A" stroke-width="0.0607" fill="none"/></g></g><path d="M16.33 6.95C16.33 6.95 17.29 5.95 18.31 6.77L18.32 7.13C18.32 7.13 17.36 6.64 16.63 7.43L16.33 6.95Z" fill="#392E17"/><path d="M16.33 6.95C16.33 6.95 17.29 5.95 18.31 6.77L18.32 7.13C18.32 7.13 17.36 6.64 16.63 7.43L16.33 6.95Z" stroke="#000000" stroke-width="0.0911" fill="none"/><g opacity="0.74"><g><path d="M9.51 14.15C9.48 14.4 9.11 14.56 8.68 14.5 8.26 14.43 7.94 14.17 7.97 13.92 8 13.66 8.37 13.5 8.8 13.57 9.22 13.63 9.54 13.89 9.51 14.15L9.51 14.15Z" fill="#DC9D48"/></g></g><g opacity="0.16"><g><path d="M5.91 13.77C6.17 11.66 7.8 11.48 7.95 11.35 8.1 11.22 7.89 10.82 7.89 10.82 7.79 10.07 8.39 9.42 8.78 9 8.58 9.15 8.4 9.25 8.29 9.3 7.86 9.46 7.86 9.27 7.86 9.27 7.21 9.55 6.71 8.2 6.71 8.2 6.71 8.2 6.98 9.34 6.79 9.45 6.6 9.56 6.29 9.03 6.29 9.03 6.29 9.03 6.84 10.13 6.57 10.43 6.3 10.73 5.77 10.05 5.77 10.05 6.19 10.83 6.46 11.93 6.09 12.04 5.72 12.15 5.51 11.36 5.51 11.36 5.51 11.36 5.53 11.57 5.38 12.24 5.23 12.9 5.52 14.53 5.59 15.02 5.66 15.51 5.82 15.91 5.63 15.99 5.44 16.07 5.46 15.8 5.23 15.35 5.01 14.93 4.32 14.25 3.67 14.61L3.67 14.63C3.67 14.63 4.5 14.5 4.84 15.11 5.44 16.2 5.07 17.15 4.4 17.22 4.34 17.23 4.27 17.23 4.19 17.23 4.39 17.29 5 17.41 5.44 16.8 5.44 16.8 5.78 17.55 6.55 18.16 6.55 18.16 6.55 18.16 6.56 18.17 6.63 18.23 7.34 18.85 8.64 19.21 6.75 18.24 5.58 16.42 5.91 13.77L5.91 13.77Z" fill="#DBAA4A"/><path d="M5.91 13.77C6.17 11.66 7.8 11.48 7.95 11.35 8.1 11.22 7.89 10.82 7.89 10.82 7.79 10.07 8.39 9.42 8.78 9 8.58 9.15 8.4 9.25 8.29 9.3 7.86 9.46 7.86 9.27 7.86 9.27 7.21 9.55 6.71 8.2 6.71 8.2 6.71 8.2 6.98 9.34 6.79 9.45 6.6 9.56 6.29 9.03 6.29 9.03 6.29 9.03 6.84 10.13 6.57 10.43 6.3 10.73 5.77 10.05 5.77 10.05 6.19 10.83 6.46 11.93 6.09 12.04 5.72 12.15 5.51 11.36 5.51 11.36 5.51 11.36 5.53 11.57 5.38 12.24 5.23 12.9 5.52 14.53 5.59 15.02 5.66 15.51 5.82 15.91 5.63 15.99 5.44 16.07 5.46 15.8 5.23 15.35 5.01 14.93 4.32 14.25 3.67 14.61L3.67 14.63C3.67 14.63 4.5 14.5 4.84 15.11 5.44 16.2 5.07 17.15 4.4 17.22 4.34 17.23 4.27 17.23 4.19 17.23 4.39 17.29 5 17.41 5.44 16.8 5.44 16.8 5.78 17.55 6.55 18.16 6.55 18.16 6.55 18.16 6.56 18.17 6.63 18.23 7.34 18.85 8.64 19.21 6.75 18.24 5.58 16.42 5.91 13.77Z" stroke="#DBAA4A" stroke-width="0.0607" fill="none"/></g></g><path d="M7.6 6.77C7.6 6.77 8.15 6.92 8.5 6.56 8.85 6.19 8.35 7.04 8.14 7.64 7.94 8.25 8.14 7.23 7.6 6.77L7.6 6.77Z" fill="#443619"/><g opacity="0.63"><g><path d="M2.88 6.21C2.88 6.21 1.63 6.64 0.82 7.51 0.02 8.38 3.55 6.34 2.88 6.21L2.88 6.21Z" fill="#6A5523"/><path d="M2.96 5.29C2.96 5.29 2.42 5.12 2.19 5.14 1.96 5.17 1.99 5.4 2.49 5.42 3 5.44 3.11 5.35 2.96 5.29L2.96 5.29Z" fill="#6A5523"/><path d="M5.18 3.56C5.18 3.56 5.96 2.65 7.03 2.27 8.09 1.89 6.94 3.13 7.67 2.57 8.39 2.02 8.19 1.83 8.99 1.94 9.79 2.05 9.9 1.74 9.43 1.62 8.96 1.51 9.4 0.96 10.7 0.87 12.01 0.79 13.89 1.24 14.2 1.57 14.51 1.9 14.34 1.98 13.85 2.01 13.35 2.04 15.11 2.42 15.73 1.73 16.35 1.05 16.17 1.79 15.72 2.16 15.27 2.53 16.17 2.38 16.49 1.87 16.81 1.35 16.9 1.97 16.54 2.28 16.19 2.59 17.58 2.23 17.81 1.8 18.05 1.37 18.19 2.11 17.56 2.41 16.94 2.71 17.81 2.72 18.41 2.3 19.01 1.88 18.6 2.63 17.83 2.86 17.06 3.09 19.12 2.88 18.5 3.22 17.88 3.56 17.67 3.68 18.15 3.64 18.63 3.6 18.7 3.67 18.33 3.85 17.96 4.03 19.06 3.95 18.58 4.29 18.1 4.64 17.39 4.53 17.39 4.53 17.39 4.53 17.78 4.85 18.29 4.87 18.8 4.89 17.4 5.52 16.65 4.85 15.9 4.18 17 5.18 16.68 5.45 16.36 5.72 15.75 4.62 15.75 4.62 15.75 4.62 15.45 4.21 15.57 4.71 15.69 5.21 15.83 5.62 15.36 5.24 14.89 4.85 14.8 4.64 14.98 5.26 15.16 5.88 15.04 6.3 14.48 5.35 13.92 4.41 14.57 5.43 14.16 6.02 13.74 6.62 13.98 5.78 13.79 5.21 13.6 4.64 13.71 4.99 13.11 5.1 12.51 5.21 13.39 5.49 12.61 6.37 11.83 7.25 12.41 6.11 12 5.92 11.59 5.73 12.16 6.13 11.91 6.48 11.67 6.83 11.81 6.06 11.19 5.87 10.57 5.68 11.56 6.18 10.76 7.28 9.96 8.38 10.93 6.61 10.04 6.44 9.14 6.27 10.21 6.72 9.42 7.71 8.64 8.69 8.17 8.8 8.1 8.38 8.1 8.38 7.96 8.9 7.68 8.65 7.41 8.4 6.87 7.65 6.73 7.33 6.58 7.02 6.64 7.98 6.33 7.72 6.02 7.47 6.55 8.21 6.5 8.66 6.45 9.11 5.93 8.41 5.76 8.09 5.59 7.77 6.22 9.11 5.61 8.75 5 8.4 4.92 8.35 5.47 9.74 6.01 11.13 5.74 11.55 5.18 10.49 4.63 9.43 4.62 12.15 4.28 10.67 3.94 9.19 4.2 10.42 3.83 10.66 3.46 10.91 3.26 10.34 3.82 9.59 4.38 8.84 3.16 10.37 2.7 10.04 2.24 9.71 3.48 9.37 3.95 8.59 4.43 7.82 2.42 9.42 3.3 7.94 4.19 6.46 2.68 9.03 1.64 9.43 0.6 9.83 1.52 8.87 2.04 8.55 2.56 8.23 2.89 7.73 2.02 8.23 1.14 8.74 2.19 7.62 3.13 7.2 4.07 6.78 2.01 7.55 2.96 6.79 3.92 6.03 5.11 5.24 4.22 5.57 3.33 5.9 3.22 5.64 4.46 5.02 5.7 4.4 4.78 4.73 4.25 4.74 3.71 4.76 4.71 4.09 5.18 3.56L5.18 3.56Z" fill="#6A5523"/><path d="M1.71 10.61C1.71 10.61 1.08 11.5 1.07 11.89 1.06 12.28 1.91 11.13 1.71 10.61L1.71 10.61Z" fill="#6A5523"/><path d="M2.03 11.49C2.03 11.49 1.42 12.55 1.51 13.59 1.6 14.63 1.92 13.78 2.13 13.19 2.34 12.6 2.07 13.84 2.4 14.89 2.73 15.94 2.68 13.78 2.89 13.19 3.1 12.6 3.09 14.27 3.48 13.73 3.86 13.19 3.87 13.06 4.24 13.83 4.62 14.6 5.05 15.25 4.96 13.8 4.87 12.35 5.32 11.16 4.7 12.25 4.08 13.34 4.05 12.92 4.08 12.01 4.11 11.1 3.47 11.51 3.13 12.56 2.8 13.6 2.7 12.33 2.95 11.49 3.2 10.65 2.36 11.82 1.95 12.61 1.53 13.4 2.37 11.33 2.03 11.49L2.03 11.49Z" fill="#6A5523"/></g></g><g><g opacity="0.26"><g><path d="M15.62 16.05C15.62 16.05 15.72 16.37 16.08 16.21 16.44 16.04 16.38 16.77 15.06 16.98 13.74 17.19 13.55 17.58 13.63 17.93 13.71 18.27 14.26 18.11 14.43 17.79 14.61 17.47 14.63 17.2 15.19 17.16 15.75 17.13 16.51 16.87 16.52 16.3 16.53 15.73 16.2 15.84 16.13 15.91 16.05 15.98 15.92 16 15.81 15.87 15.7 15.73 15.55 15.9 15.62 16.05L15.62 16.05Z" fill="#DBAA4A"/><path d="M15.62 16.05C15.62 16.05 15.72 16.37 16.08 16.21 16.44 16.04 16.38 16.77 15.06 16.98 13.74 17.19 13.55 17.58 13.63 17.93 13.71 18.27 14.26 18.11 14.43 17.79 14.61 17.47 14.63 17.2 15.19 17.16 15.75 17.13 16.51 16.87 16.52 16.3 16.53 15.73 16.2 15.84 16.13 15.91 16.05 15.98 15.92 16 15.81 15.87 15.7 15.73 15.55 15.9 15.62 16.05Z" stroke="#DBAA4A" stroke-width="0.0607" fill="none"/></g></g><path d="M13.89 18.72C13.85 18.72 13.8 18.71 13.76 18.7 13.48 18.59 13.39 18.14 13.38 18.12 13.38 18.1 13.39 18.09 13.4 18.08 13.42 18.08 13.43 18.09 13.43 18.11 13.43 18.11 13.51 18.54 13.77 18.64 13.91 18.69 14.08 18.64 14.28 18.46 14.29 18.45 14.31 18.45 14.32 18.46 14.33 18.47 14.33 18.49 14.32 18.5 14.17 18.65 14.02 18.72 13.89 18.72L13.89 18.72Z" fill="#AF7F2C"/><path d="M14.77 17.15C14.77 17.15 14.62 17.2 14.33 17.66 14.05 18.12 13.85 18 13.79 17.96 13.71 17.91 13.52 17.44 14.77 17.15L14.77 17.15Z" fill="#B54026"/><path d="M14.77 17.15C14.77 17.15 14.62 17.2 14.33 17.66 14.05 18.12 13.85 18 13.79 17.96 13.71 17.91 13.52 17.44 14.77 17.15Z" stroke="#B2722A" stroke-width="0.0607" stroke-linecap="round" stroke-linejoin="round" fill="none"/><path d="M13.92 18.04C13.86 18.04 13.81 18.02 13.77 17.98 13.7 17.92 13.66 17.79 13.77 17.64 13.95 17.37 14.25 17.21 15.52 16.95 16.25 16.8 16.35 16.4 16.37 16.28 16.39 16.14 16.34 16.03 16.29 16 16.25 15.98 16.22 16 16.2 16.03 16.12 16.12 16.04 16.16 15.96 16.15 15.83 16.13 15.75 16 15.75 15.99 15.74 15.97 15.75 15.96 15.76 15.95 15.77 15.94 15.79 15.95 15.8 15.96 15.8 15.96 15.87 16.08 15.97 16.09 16.03 16.1 16.1 16.06 16.16 15.99 16.21 15.94 16.27 15.92 16.32 15.95 16.41 16 16.46 16.14 16.44 16.29 16.42 16.42 16.31 16.85 15.55 17.01 15.27 17.07 15.04 17.12 14.84 17.17 14.84 17.18 14.83 17.18 14.83 17.18 14.6 17.28 14.52 17.43 14.42 17.6 14.36 17.7 14.3 17.81 14.2 17.91 14.09 18 14 18.04 13.92 18.04L13.92 18.04ZM14.62 17.22C14.11 17.37 13.94 17.5 13.82 17.67 13.75 17.77 13.75 17.87 13.81 17.93 13.88 17.99 14.02 17.99 14.14 17.86 14.23 17.76 14.29 17.66 14.35 17.56 14.42 17.44 14.49 17.32 14.62 17.22L14.62 17.22Z" fill="#B2722A"/><g opacity="0.26"><g><path d="M13.41 18.69 14.34 18.73 14.36 18.24 13.43 18.2Z" fill="none"/><path d="M14.27 18.54C14.27 18.54 13.75 19.03 13.45 18.22 13.45 18.22 13.65 18.67 14.27 18.54L14.27 18.54Z" fill="#DBAA4A"/><path d="M14.27 18.54C14.27 18.54 13.75 19.03 13.45 18.22 13.45 18.22 13.65 18.67 14.27 18.54Z" stroke="#DBAA4A" stroke-width="0.0607" fill="none"/></g></g></g></g></g></g></svg>