<svg width="191.51" height="209.1" viewBox="0 0 191.51 209.1" xmlns="http://www.w3.org/2000/svg" xmlns:xlink="http://www.w3.org/1999/xlink" xml:space="preserve" overflow="hidden"><defs></defs><g><defs><rect x="0" y="0" width="157" height="181.62" id="SVGID_1_"/></defs><clipPath id="SVGID_2_"><use width="100%" height="100%" xlink:href="#SVGID_1_" overflow="visible"></use></clipPath><g clip-path="url(#SVGID_2_)"><g><defs><filter id="Adobe_OpacityMaskFilter" x="7.4" y="168.24" width="184.11" height="40.86" filterUnits="userSpaceOnUse" primitiveUnits="userSpaceOnUse"><feFlood flood-color="#FFFFFF" result="back"/><feBlend in="SourceGraphic" in2="back" mode="normal"/></filter></defs><mask maskUnits="userSpaceOnUse" x="7.4" y="168.24" width="184.11" height="40.86" id="SVGID_3_"><g filter="url(#Adobe_OpacityMaskFilter)"><defs><filter id="Adobe_OpacityMaskFilter_1_" x="7.4" y="168.24" width="184.11" height="40.86" filterUnits="userSpaceOnUse" primitiveUnits="userSpaceOnUse"><feFlood flood-color="#FFFFFF" result="back"/><feBlend in="SourceGraphic" in2="back" mode="normal"/></filter></defs><mask maskUnits="userSpaceOnUse" x="7.4" y="168.24" width="184.11" height="40.86" id="SVGID_3_"><g filter="url(#Adobe_OpacityMaskFilter_1_)"></g></mask><linearGradient x1="99.4566" y1="181.817" x2="99.4566" y2="245.78" gradientUnits="userSpaceOnUse" id="SVGID_4_"><stop offset="0" stop-color="#FFFFFF"/><stop offset="0.2583" stop-color="#585858"/><stop offset="0.4015"/></linearGradient><path d="M7.4 174.45 131.26 168.24 191.51 202.11 45.41 209.1Z" fill="url(#SVGID_4_)" mask="url(#SVGID_3_)"/></g></mask><linearGradient x1="99.4566" y1="181.817" x2="99.4566" y2="245.78" gradientUnits="userSpaceOnUse" id="SVGID_5_"><stop offset="0" stop-color="#A64C13"/><stop offset="0.2472" stop-color="#DEBCA7"/><stop offset="0.4015" stop-color="#FFFFFF"/></linearGradient><path d="M7.4 174.45 131.26 168.24 191.51 202.11 45.41 209.1Z" fill="url(#SVGID_5_)"/><g opacity="0.5"><defs><filter id="Adobe_OpacityMaskFilter_2_" x="14.14" y="168.24" width="177.38" height="38.18" filterUnits="userSpaceOnUse" primitiveUnits="userSpaceOnUse"><feFlood flood-color="#FFFFFF" result="back"/><feBlend in="SourceGraphic" in2="back" mode="normal"/></filter></defs><mask maskUnits="userSpaceOnUse" x="14.14" y="168.24" width="177.38" height="38.18" id="SVGID_6_"><g filter="url(#Adobe_OpacityMaskFilter_2_)"><defs><filter id="Adobe_OpacityMaskFilter_3_" x="14.14" y="168.24" width="177.38" height="38.18" filterUnits="userSpaceOnUse" primitiveUnits="userSpaceOnUse"><feFlood flood-color="#FFFFFF" result="back"/><feBlend in="SourceGraphic" in2="back" mode="normal"/></filter></defs><mask maskUnits="userSpaceOnUse" x="14.14" y="168.24" width="177.38" height="38.18" id="SVGID_6_"><g filter="url(#Adobe_OpacityMaskFilter_3_)"></g></mask><linearGradient x1="99.359" y1="184.042" x2="145.904" y2="242.655" gradientUnits="userSpaceOnUse" id="SVGID_7_"><stop offset="0" stop-color="#FFFFFF"/><stop offset="0.3402" stop-color="#585858"/><stop offset="0.5288"/></linearGradient><path d="M155.09 181.64C147.64 179.09 134.64 174.57 129.37 172.3 124.22 170.07 129 169.28 132.61 169L131.27 168.25 14.14 174.12C14.96 176.56 18.21 180.83 30.94 180.58 48.7 180.23 55.25 178.68 55.25 178.68 61.63 179.89 63.52 177.82 63.52 177.82L101.47 206.43 191.52 202.13 155.09 181.64Z" fill="url(#SVGID_7_)" mask="url(#SVGID_6_)"/></g></mask><linearGradient x1="99.359" y1="184.042" x2="145.904" y2="242.655" gradientUnits="userSpaceOnUse" id="SVGID_8_"><stop offset="0" stop-color="#A64C13"/><stop offset="0.3256" stop-color="#DEBCA7"/><stop offset="0.5288" stop-color="#FFFFFF"/></linearGradient><path d="M155.09 181.64C147.64 179.09 134.64 174.57 129.37 172.3 124.22 170.07 129 169.28 132.61 169L131.27 168.25 14.14 174.12C14.96 176.56 18.21 180.83 30.94 180.58 48.7 180.23 55.25 178.68 55.25 178.68 61.63 179.89 63.52 177.82 63.52 177.82L101.47 206.43 191.52 202.13 155.09 181.64Z" fill="url(#SVGID_8_)"/></g></g><g><path d="M105.18 115.53 104.29 110.83 114.57 111.03 114.84 115.11C114.85 115.12 109.54 117.98 105.18 115.53Z" fill="#F9D4AA"/><path d="M109.19 116.78C107.65 116.78 106.26 116.43 105.05 115.75L104.94 115.69 103.97 110.56 114.81 110.78 115.11 115.27 114.96 115.35C114.86 115.41 112.27 116.78 109.19 116.78ZM105.41 115.36C106.52 115.96 107.79 116.26 109.19 116.26 111.74 116.26 113.99 115.25 114.58 114.96L114.33 111.28 104.6 111.09 105.41 115.36Z" fill="#1D1D1B"/></g><g opacity="0.8"><path d="M114.58 111.04 104.3 110.84 104.84 113.71 104.89 113.69C104.89 113.69 105.08 112.72 106.12 113.5 107.16 114.28 108.19 115.05 107.02 114.79 106.48 114.67 105.71 114.7 105.03 114.77L105.18 115.54C109.54 117.99 114.85 115.13 114.85 115.13L114.58 111.04Z" fill="#EFBA82"/></g><g><path d="M37.53 154.41 34.94 143.68C34.94 143.68 32.74 157.64 32.22 160.88 31.7 164.11 33.25 162.82 37.78 162.17 36.23 159.45 37.53 154.41 37.53 154.41Z" fill="none"/><g><path d="M113.55 121.43C116.78 120.4 117.82 118.59 116.52 114.71 116 113.29 115.86 113.3 115.08 113.99 114.3 114.67 112.84 116.87 104.92 115.09 103.96 114.82 104.14 116.78 104.6 118.2 107.47 121.05 110.32 122.47 113.55 121.43Z" fill="#FFFFFF"/><path d="M111.46 122.03 111.46 122.03C109.17 122.03 106.93 120.87 104.42 118.38L104.38 118.34 104.36 118.28C104.08 117.41 103.73 115.75 104.21 115.09 104.39 114.84 104.67 114.75 105 114.85 106.98 115.3 108.71 115.52 110.14 115.52 113.13 115.52 114.12 114.56 114.71 113.99 114.78 113.92 114.85 113.85 114.91 113.8 115.27 113.49 115.52 113.28 115.79 113.28 116.24 113.28 116.46 113.79 116.76 114.62 117.45 116.69 117.5 118.19 116.91 119.34 116.38 120.38 115.33 121.13 113.62 121.68 112.9 121.91 112.17 122.03 111.46 122.03ZM104.83 118.06C107.21 120.42 109.32 121.51 111.46 121.51L111.46 121.51C112.12 121.51 112.8 121.4 113.47 121.18 115.05 120.68 116 120.02 116.46 119.1 116.98 118.08 116.92 116.71 116.28 114.78 116.05 114.15 115.89 113.81 115.8 113.78 115.7 113.78 115.39 114.05 115.26 114.17 115.2 114.22 115.14 114.28 115.07 114.34 114.47 114.92 113.34 116.01 110.14 116.01 108.67 116.01 106.9 115.78 104.87 115.32 104.74 115.28 104.7 115.28 104.63 115.37 104.38 115.73 104.48 116.92 104.83 118.06Z"/></g><g><path d="M118.46 119.24C119.37 117.69 120.27 116.65 116.52 114.71 117.81 118.59 116.78 120.4 113.55 121.43 110.32 122.47 107.47 121.04 104.61 118.19 103.79 117.32 103.56 118.82 103.47 120.62 103.26 124.71 103.77 129.53 103.77 129.53 103.77 129.53 99.99 126.94 94.29 121.77 86.96 115.13 82.05 108.24 77.83 108.75 73.61 109.27 68.09 109.44 68.09 109.44L45.55 110.56C45.55 110.56 42.71 113.79 37.27 115.47 32.36 115.73 27.44 116.51 26.02 122.84 24.6 129.17 21.62 155.16 18.52 165.89 15.42 174.68 18.78 177.27 25.89 178.04 33 178.82 51.88 177.91 55.11 175.71L55.11 175.71C55.02 175.62 54.94 175.53 54.85 175.45 52.26 172.99 52.01 166.79 52.91 164.33 53.81 161.87 54.98 161.87 58.47 161.36 61.96 160.84 60.8 163.69 60.8 163.69 59.64 166.53 58.86 169.12 60.28 172.35 61.58 172.48 62.52 172.55 63.14 172.58 66.67 172.3 92.58 170.23 95.84 169.51 99.33 168.73 95.45 160.07 93.51 152.57 91.57 145.07 86.79 129.56 86.79 129.56 86.79 129.56 98.43 143.65 108.12 148.95 115.49 152.83 118.85 149.08 119.76 142.87 120.66 136.69 117.56 120.79 118.46 119.24ZM32.22 160.87C32.74 157.64 34.94 143.67 34.94 143.67L37.53 154.4C37.53 154.4 36.24 159.44 37.79 162.16 33.26 162.81 31.71 164.1 32.22 160.87Z" fill="#C2C6EB"/><path d="M32.57 178.6C29.83 178.6 27.51 178.5 25.86 178.32 21.62 177.86 19.19 176.79 17.97 174.86 16.73 172.88 16.83 169.93 18.27 165.82 20.24 159 22.14 146.11 23.67 135.74 24.51 130.03 25.24 125.09 25.76 122.79 27.22 116.3 32.21 115.49 37.22 115.22 42.5 113.58 45.32 110.42 45.35 110.39L45.42 110.31 45.53 110.31 68.07 109.19C68.13 109.19 73.63 109.01 77.79 108.5 80.92 108.12 84.34 111.56 88.72 116 90.43 117.73 92.36 119.69 94.46 121.58 98.95 125.65 102.29 128.14 103.46 128.99 103.33 127.59 103.04 123.85 103.21 120.6 103.3 118.79 103.5 117.68 104.18 117.68 104.38 117.68 104.58 117.79 104.8 118.01 107.93 121.12 110.61 122.09 113.48 121.18 115.06 120.68 116.01 120.02 116.47 119.1 116.99 118.08 116.93 116.71 116.29 114.78L116.09 114.18 116.66 114.47C118.38 115.36 119.25 116.11 119.47 116.91 119.69 117.68 119.28 118.37 118.85 119.1L118.7 119.35C118.34 119.98 118.78 123.97 119.22 127.83 119.8 133.02 120.53 139.47 120.03 142.91 119.28 148.06 117 150.79 113.44 150.79L113.44 150.79C111.87 150.79 110.05 150.25 108.02 149.18 99.86 144.72 90.24 133.95 87.42 130.68 88.58 134.47 92.17 146.3 93.78 152.51 94.25 154.32 94.83 156.21 95.4 158.03 96.9 162.87 98.19 167.06 97.14 168.88 96.87 169.34 96.46 169.64 95.92 169.76 92.73 170.47 68.09 172.45 63.19 172.84 62.33 172.8 61.37 172.72 60.29 172.61L60.14 172.6 60.08 172.46C58.59 169.07 59.47 166.33 60.6 163.59 60.6 163.58 60.98 162.63 60.59 162.05 60.3 161.61 59.6 161.47 58.55 161.62L57.87 161.72C54.88 162.15 53.98 162.28 53.19 164.43 52.34 166.73 52.55 172.89 55.07 175.27 55.13 175.33 55.19 175.39 55.25 175.45L55.55 175.75 55.29 175.93C52.57 177.78 40.37 178.6 32.57 178.6ZM45.66 110.83C45.17 111.36 42.36 114.18 37.34 115.74L37.28 115.75C32.47 116 27.65 116.77 26.27 122.92 25.76 125.2 25.03 130.13 24.19 135.83 22.66 146.21 20.75 159.12 18.77 165.99 17.37 169.95 17.26 172.76 18.41 174.59 19.53 176.37 21.85 177.37 25.92 177.81 27.55 177.99 29.85 178.08 32.57 178.08 41.22 178.08 51.88 177.17 54.69 175.69 54.68 175.68 54.68 175.68 54.67 175.67 51.97 173.1 51.76 166.74 52.67 164.27 53.57 161.83 54.8 161.66 57.76 161.23L58.43 161.13C59.71 160.94 60.56 161.16 60.97 161.78 61.52 162.59 61.05 163.76 61.03 163.81 59.93 166.5 59.12 168.99 60.45 172.13 61.45 172.23 62.38 172.3 63.14 172.34 68.01 171.95 92.61 169.98 95.77 169.27 96.17 169.18 96.46 168.97 96.66 168.64 97.61 167.01 96.28 162.73 94.88 158.2 94.31 156.37 93.73 154.48 93.25 152.65 91.33 145.24 86.58 129.8 86.53 129.65L86.15 128.4 86.98 129.41C87.1 129.55 98.7 143.53 108.24 148.74 110.19 149.76 111.93 150.29 113.41 150.29L113.41 150.29C117.54 150.29 119 146.25 119.49 142.86 119.98 139.48 119.26 133.07 118.68 127.91 118.1 122.78 117.8 119.84 118.23 119.11L118.38 118.85C118.79 118.17 119.11 117.63 118.95 117.07 118.79 116.51 118.15 115.92 116.95 115.24 117.45 116.99 117.44 118.31 116.91 119.34 116.38 120.38 115.33 121.13 113.62 121.68 112.9 121.91 112.17 122.03 111.45 122.03 109.16 122.03 106.92 120.87 104.41 118.38 104.24 118.2 104.17 118.2 104.16 118.2 104.15 118.2 103.83 118.23 103.7 120.63 103.49 124.65 104 129.45 104 129.5L104.06 130.06 103.6 129.74C103.56 129.71 99.74 127.07 94.09 121.96 91.98 120.05 90.04 118.09 88.33 116.36 84.05 112.03 80.73 108.66 77.83 109.01 73.64 109.52 68.12 109.7 68.07 109.7L45.66 110.83ZM33.11 163.23C32.83 163.23 32.42 163.19 32.15 162.87 31.84 162.51 31.79 161.92 31.97 160.83 32.49 157.6 34.68 143.63 34.68 143.63L34.88 142.35 37.79 154.41 37.77 154.47C37.76 154.52 36.52 159.44 38 162.03L38.19 162.36 37.81 162.41C36.75 162.56 35.83 162.75 35.1 162.91 34.27 163.09 33.61 163.23 33.11 163.23ZM34.99 145C34.44 148.53 32.9 158.28 32.48 160.91 32.34 161.8 32.36 162.32 32.55 162.54 32.61 162.62 32.74 162.71 33.12 162.71 33.56 162.71 34.2 162.58 35.01 162.41 35.67 162.27 36.47 162.1 37.39 161.96 36.14 159.28 37.12 155 37.26 154.4L34.99 145Z" fill="#1D1D1B"/></g><path d="M32.22 160.87C32.74 157.64 34.94 143.67 34.94 143.67L37.53 154.4C37.53 154.4 36.24 159.44 37.79 162.16 33.26 162.81 31.71 164.1 32.22 160.87Z" fill="#939BC9" opacity="0.5"/><g><path d="M116.52 114.71C116 113.29 115.86 113.3 115.08 113.99 114.3 114.67 112.84 116.87 104.92 115.09 103.96 114.82 104.14 116.78 104.6 118.2 107.47 121.05 110.31 122.47 113.54 121.44 116.78 120.4 117.82 118.59 116.52 114.71ZM112.82 120.54C108.13 121.61 105.45 117.46 107.46 117.59 107.46 117.59 109.74 118.39 113.09 116.92 116.43 115.45 116.02 119.81 112.82 120.54Z" fill="#DDE8F0"/></g></g><g><path d="M37.53 154.41 34.94 143.68C34.94 143.68 32.74 157.64 32.22 160.88 31.7 164.11 33.25 162.82 37.78 162.17 36.23 159.45 37.53 154.41 37.53 154.41Z" fill="none"/></g><path d="M77.65 110.23C77.65 110.23 81.61 110.4 83.86 113.85 86.1 117.3 74.89 110.4 77.65 110.23Z" fill="#C2C6EB" opacity="0.3"/><g><path d="M86.79 129.58C86.79 129.58 86.71 129.42 86.57 129.14 86.44 128.86 86.24 128.46 86.01 127.99 85.78 127.51 85.52 126.95 85.25 126.35 84.95 125.76 84.66 125.12 84.36 124.48 84.22 124.16 84.07 123.84 83.93 123.52 83.79 123.2 83.65 122.89 83.49 122.6 83.19 122.01 82.93 121.46 82.7 120.98 82.48 120.5 82.31 120.09 82.18 119.81 82.06 119.52 81.99 119.36 81.99 119.36 81.99 119.36 82.09 119.5 82.26 119.76 82.43 120.02 82.68 120.39 82.95 120.84 83.23 121.29 83.55 121.82 83.88 122.4 84.05 122.69 84.22 122.98 84.36 123.31 84.51 123.63 84.66 123.94 84.81 124.27 85.1 124.92 85.39 125.56 85.65 126.17 85.89 126.79 86.09 127.38 86.26 127.88 86.44 128.38 86.56 128.81 86.64 129.11 86.75 129.41 86.79 129.58 86.79 129.58Z" fill="#1D1D1B"/><path d="M106.44 144.97C106.21 144.74 106.02 144.46 105.86 144.16 105.7 143.87 105.57 143.56 105.46 143.25 105.22 142.63 105.04 141.99 104.89 141.34 104.58 140.05 104.34 138.75 104.17 137.44 103.99 136.13 103.86 134.81 103.76 133.5 103.66 132.18 103.58 130.87 103.55 129.54L103.97 129.64C103.85 129.87 103.72 130.13 103.62 130.39 103.5 130.64 103.41 130.91 103.32 131.17 103.22 131.43 103.15 131.71 103.07 131.98 102.98 132.25 102.92 132.52 102.87 132.8 102.82 133.08 102.74 133.35 102.7 133.63L102.58 134.47C102.53 134.75 102.53 135.03 102.51 135.32L102.45 136.17 102.42 135.31C102.42 135.02 102.39 134.74 102.42 134.45L102.47 133.59C102.48 133.3 102.55 133.02 102.59 132.74 102.63 132.46 102.68 132.17 102.76 131.89 102.83 131.61 102.88 131.33 102.98 131.05 103.07 130.77 103.14 130.5 103.25 130.23 103.35 129.96 103.46 129.69 103.6 129.42L103.97 128.69 104.02 129.52C104.1 130.83 104.19 132.14 104.29 133.45 104.39 134.76 104.52 136.07 104.66 137.37 104.81 138.67 104.97 139.98 105.21 141.27 105.34 141.91 105.47 142.55 105.65 143.18 105.82 143.82 106.04 144.44 106.44 144.97Z" fill="#1D1D1B"/><path d="M87.3 120.79C87.3 120.79 87.35 121.26 87.34 121.96 87.34 122.31 87.32 122.72 87.3 123.16 87.28 123.6 87.22 124.06 87.16 124.53 87.09 124.99 87.03 125.45 86.95 125.89 86.92 126.11 86.85 126.31 86.8 126.51 86.75 126.71 86.7 126.89 86.65 127.06 86.45 127.74 86.28 128.17 86.28 128.17 86.28 128.17 86.29 127.69 86.36 127 86.39 126.65 86.45 126.25 86.5 125.82 86.54 125.38 86.59 124.93 86.65 124.47 86.79 123.55 86.91 122.63 87.05 121.95 87.18 121.25 87.3 120.79 87.3 120.79Z" fill="#1D1D1B"/><path d="M36.62 126.61C36.62 126.61 36.65 126.89 36.68 127.37 36.7 127.86 36.76 128.55 36.77 129.38 36.79 130.21 36.81 131.18 36.8 132.22 36.79 133.26 36.75 134.37 36.68 135.48 36.6 136.59 36.52 137.7 36.38 138.73 36.32 139.25 36.24 139.75 36.15 140.22 36.08 140.69 35.98 141.14 35.89 141.54 35.82 141.95 35.71 142.32 35.61 142.65 35.52 142.98 35.44 143.26 35.34 143.49 35.16 143.94 35.06 144.2 35.06 144.2 35.06 144.2 35.12 143.93 35.24 143.46 35.31 143.23 35.36 142.94 35.41 142.61 35.47 142.28 35.54 141.91 35.59 141.5 35.72 140.68 35.81 139.72 35.91 138.69 35.96 138.18 36 137.64 36.04 137.1 36.09 136.56 36.12 136.01 36.15 135.46 36.23 134.36 36.28 133.25 36.33 132.22 36.38 131.18 36.43 130.22 36.47 129.39 36.51 128.56 36.54 127.87 36.57 127.39 36.61 126.88 36.62 126.61 36.62 126.61Z" fill="#1D1D1B"/><path d="M36.49 134.37C36.49 134.37 36.55 134.32 36.63 134.22 36.72 134.13 36.84 133.98 36.98 133.83 37.05 133.74 37.12 133.65 37.19 133.55 37.27 133.46 37.34 133.35 37.42 133.24 37.5 133.13 37.57 133.02 37.65 132.91 37.73 132.79 37.79 132.67 37.86 132.55 37.93 132.43 38.02 132.31 38.08 132.19 38.13 132.06 38.2 131.94 38.26 131.82 38.32 131.7 38.39 131.59 38.45 131.48 38.5 131.37 38.55 131.26 38.59 131.16 38.77 130.76 38.93 130.5 38.93 130.5 38.93 130.5 38.93 130.8 38.87 131.25 38.85 131.36 38.84 131.49 38.81 131.61 38.77 131.73 38.73 131.86 38.68 132 38.63 132.13 38.58 132.28 38.52 132.41 38.46 132.55 38.37 132.68 38.3 132.81 38.22 132.94 38.14 133.07 38.05 133.19 37.96 133.31 37.85 133.42 37.76 133.53 37.67 133.64 37.57 133.74 37.46 133.82 37.36 133.91 37.26 133.98 37.17 134.05 36.97 134.17 36.81 134.26 36.68 134.31 36.57 134.35 36.49 134.37 36.49 134.37Z" fill="#1D1D1B"/><path d="M28.6 167.14 28.1 167.01C28.68 164.79 30.34 163.02 31.23 162.2 29.66 162.34 25.98 163.02 24.44 166.28L23.97 166.06C26.09 161.56 31.91 161.64 31.97 161.64L32.7 161.66 32.12 162.11C32.1 162.13 29.34 164.29 28.6 167.14Z" fill="#1D1D1B"/><path d="M61.05 163.14 60.55 163C60.7 162.47 60.69 162.11 60.52 161.9 60.22 161.53 59.35 161.58 58.49 161.65 58.14 161.68 57.82 161.74 57.5 161.8 56.49 162 55.53 162.19 54.75 160.74 54.05 159.44 52.02 159.59 47.96 161.24 44.46 162.67 37.67 162.43 37.38 162.42L37.4 161.9C37.47 161.9 44.37 162.14 47.77 160.75 51 159.43 54.13 158.49 55.21 160.48 55.81 161.6 56.41 161.48 57.41 161.28 57.72 161.22 58.07 161.15 58.45 161.12 59.53 161.03 60.46 161 60.92 161.56 61.21 161.92 61.25 162.43 61.05 163.14Z" fill="#1D1D1B"/></g><g><path d="M37.53 154.41 34.94 143.68C34.94 143.68 32.74 157.64 32.22 160.88 31.7 164.11 33.25 162.82 37.78 162.17 36.23 159.45 37.53 154.41 37.53 154.41Z" fill="none"/><g><path d="M60.8 163.71C60.8 163.71 61.96 160.87 58.47 161.38 54.98 161.9 53.81 161.9 52.91 164.35 52 166.81 52.26 173.01 54.85 175.47 54.94 175.55 55.02 175.64 55.11 175.73 59.51 176.38 62.61 175.47 62.74 172.63 62.74 172.63 62.88 172.62 63.14 172.6 62.52 172.57 61.58 172.5 60.28 172.37 58.86 169.14 59.63 166.56 60.8 163.71Z" fill="#FFFFFF"/><path d="M57.62 176.2C57.61 176.2 57.61 176.2 57.62 176.2 56.84 176.2 55.99 176.13 55.08 176L55 175.99 54.86 175.85C54.8 175.79 54.75 175.73 54.69 175.68 51.99 173.11 51.78 166.75 52.69 164.28 53.59 161.84 54.82 161.67 57.78 161.24L58.45 161.14C59.72 160.95 60.58 161.17 60.99 161.79 61.54 162.6 61.07 163.77 61.05 163.82 59.95 166.51 59.14 169 60.47 172.14 61.47 172.24 62.4 172.31 63.16 172.35L63.17 172.87 62.99 172.88C62.76 175.02 60.87 176.2 57.62 176.2ZM55.23 175.5C56.08 175.62 56.88 175.68 57.61 175.68 57.61 175.68 57.61 175.68 57.61 175.68 59.71 175.68 62.22 175.18 62.46 172.82 61.79 172.78 61.05 172.71 60.25 172.63L60.1 172.62 60.04 172.48C58.55 169.09 59.43 166.35 60.56 163.61 60.56 163.6 60.94 162.65 60.55 162.06 60.26 161.62 59.56 161.48 58.51 161.63L57.83 161.73C54.84 162.16 53.94 162.29 53.15 164.44 52.3 166.74 52.51 172.9 55.03 175.28 55.09 175.34 55.15 175.4 55.21 175.46L55.23 175.5Z"/></g></g><g><path d="M52.01 175.1C52.01 175.81 51.44 176.38 50.73 176.38 50.02 176.38 49.45 175.81 49.45 175.1 49.45 174.39 50.03 173.82 50.73 173.82 51.44 173.81 52.01 174.39 52.01 175.1Z" fill="#323F91"/><path d="M50.73 176.64C49.88 176.64 49.19 175.95 49.19 175.1 49.19 174.25 49.88 173.56 50.73 173.56 51.58 173.56 52.27 174.25 52.27 175.1 52.27 175.95 51.58 176.64 50.73 176.64ZM50.73 174.07C50.17 174.07 49.71 174.53 49.71 175.1 49.71 175.66 50.17 176.12 50.73 176.12 51.29 176.12 51.75 175.66 51.75 175.1 51.75 174.53 51.29 174.07 50.73 174.07Z" fill="#1D1D1B"/></g><g><path d="M108.77 130.66C108.77 131.31 108.24 131.84 107.59 131.84 106.94 131.84 106.41 131.31 106.41 130.66 106.41 130.01 106.94 129.48 107.59 129.48 108.24 129.48 108.77 130 108.77 130.66Z" fill="#323F91"/><path d="M107.59 132.09C106.8 132.09 106.15 131.45 106.15 130.65 106.15 129.86 106.8 129.21 107.59 129.21 108.38 129.21 109.03 129.85 109.03 130.65 109.03 131.45 108.38 132.09 107.59 132.09ZM107.59 129.73C107.08 129.73 106.67 130.14 106.67 130.65 106.67 131.16 107.08 131.57 107.59 131.57 108.1 131.57 108.51 131.16 108.51 130.65 108.51 130.15 108.1 129.73 107.59 129.73Z" fill="#1D1D1B"/></g><g><circle cx="107.15" cy="124.45" r="1.18" fill="#323F91"/><path d="M107.15 125.89C106.36 125.89 105.71 125.25 105.71 124.45 105.71 123.66 106.36 123.01 107.15 123.01 107.94 123.01 108.59 123.66 108.59 124.45 108.59 125.24 107.94 125.89 107.15 125.89ZM107.15 123.53C106.64 123.53 106.23 123.94 106.23 124.45 106.23 124.96 106.64 125.37 107.15 125.37 107.66 125.37 108.07 124.96 108.07 124.45 108.07 123.94 107.66 123.53 107.15 123.53Z" fill="#1D1D1B"/></g><path d="M60.05 172.05C60.05 172.05 60.18 172.14 60.32 172.31 60.47 172.47 60.61 172.7 60.74 172.94 60.86 173.19 60.94 173.44 60.99 173.65 61.04 173.86 61.03 174.02 61.03 174.02 61.03 174.02 60.89 173.95 60.73 173.8 60.65 173.73 60.56 173.63 60.48 173.52 60.4 173.41 60.34 173.29 60.27 173.16 60.14 172.91 60.07 172.63 60.05 172.42 60.03 172.21 60.05 172.05 60.05 172.05Z"/><g><path d="M60.28 172.38C58.86 169.15 59.63 166.56 60.8 163.72 60.8 163.72 61.96 160.88 58.47 161.39 54.98 161.91 53.81 161.91 52.91 164.36 52.45 165.61 52.29 167.84 52.59 170.05L52.65 170C52.65 170 52.75 164.16 55.83 163.65 58.91 163.14 58.8 165.19 58.19 167.54 57.57 169.9 58.8 172.46 59.42 173.69 60.02 174.9 55.59 176.1 53.78 174.01 54.08 174.57 54.43 175.08 54.85 175.48 54.94 175.56 55.02 175.65 55.11 175.74 59.51 176.39 62.61 175.48 62.74 172.64 62.74 172.64 62.88 172.63 63.14 172.61 62.52 172.57 61.58 172.51 60.28 172.38Z" fill="#DDE8F0"/></g><path d="M26.45 129.71C26.45 129.71 24.21 143.85 23.35 148.84 22.49 153.84 22.66 157.46 22.31 159.87 21.97 162.28 26.79 160.73 28 157.8 29.21 154.87 31.07 148.97 31.96 141.08 34.03 122.82 27.83 114.71 26.45 129.71Z" fill="#C2C6EB" opacity="0.3"/><path d="M23.05 170.83C23.05 170.83 26.15 166.56 26.54 169.02 26.93 171.48 29.38 167.73 31.71 166.43 34.04 165.14 37.4 164.23 39.98 165.14 42.57 166.05 43.34 166.3 45.41 165.14 47.48 163.98 47.51 170.07 45.41 171.6 43.47 173.02 40.5 173.67 33.9 174.19 27.31 174.7 21.36 173.28 23.05 170.83Z" fill="#C2C6EB" opacity="0.3"/><path d="M91.57 121.18C91.57 121.18 99.85 127 100.23 130.36 100.62 133.72 101.39 138.25 94.8 133.07 88.21 127.9 89.24 119.63 91.57 121.18Z" fill="#C2C6EB" opacity="0.3"/><path d="M113.68 128.16C113.68 128.16 115.62 133.72 113.16 134.75 110.7 135.78 108.89 137.72 110.83 142.77 112.77 147.81 118.59 146.65 117.94 135.4 117.3 124.15 113.03 124.67 113.68 128.16Z" fill="#C2C6EB" opacity="0.3"/><g><g><g><path d="M64.12 106.52 64.72 104.54 51.88 100.92 51.1 103.68 50.32 106.37C50.32 106.37 50.97 108.63 56.66 111.22 61.42 113.38 62.88 113.47 64.55 115.11 65.11 115.2 65.67 115.25 66.18 115.23 66.26 115.23 66.33 115.21 66.4 115.2 65.62 111.69 63.32 109.02 63.32 109.02L64.12 106.52Z" fill="#F9D4AA"/><path d="M65.91 115.5 65.91 115.5C65.5 115.5 65.04 115.46 64.51 115.37L64.43 115.36 64.37 115.3C63.3 114.25 62.33 113.87 60.41 113.09 59.41 112.69 58.18 112.2 56.55 111.46 50.82 108.85 50.1 106.54 50.07 106.45L50.05 106.38 51.69 100.61 65.04 104.37 64.36 106.6 63.6 108.97C64.05 109.52 65.94 111.98 66.64 115.15L66.7 115.41 66.43 115.46C66.35 115.47 66.27 115.49 66.18 115.49 66.1 115.49 66.01 115.5 65.91 115.5ZM64.68 114.87C65.15 114.94 65.56 114.98 65.92 114.98L65.92 114.98C65.98 114.98 66.04 114.98 66.09 114.98 65.28 111.71 63.15 109.22 63.13 109.2L63.04 109.09 64.41 104.73 52.07 101.25 50.61 106.37C50.77 106.74 51.82 108.74 56.78 110.99 58.39 111.72 59.62 112.22 60.61 112.61 62.5 113.37 63.55 113.79 64.68 114.87Z" fill="#1D1D1B"/></g><g><path d="M50.33 106.37 51.11 103.68C51.11 103.68 50.08 102.99 48.87 102.47 47.66 101.95 45.51 107.3 44.65 109.19 43.79 111.09 50.51 117.55 56.46 121.69 58.1 117.12 60.08 113.93 61.29 114.28 62.12 114.52 63.35 114.91 64.57 115.11 62.89 113.47 61.44 113.38 56.68 111.22 50.97 108.64 50.33 106.37 50.33 106.37Z" fill="#C2C6EB"/><path d="M56.58 122.1 56.3 121.91C50.8 118.08 43.39 111.31 44.4 109.09 44.5 108.86 44.63 108.58 44.77 108.27 46.18 105.06 47.55 102.18 48.69 102.18 48.79 102.18 48.88 102.2 48.96 102.24 50.17 102.76 51.2 103.44 51.24 103.47L51.4 103.57 50.6 106.36C50.76 106.73 51.81 108.73 56.77 110.98 58.38 111.71 59.61 112.21 60.6 112.6 62.53 113.37 63.59 113.8 64.73 114.92L65.32 115.49 64.51 115.36C63.47 115.19 62.46 114.89 61.64 114.65L61.2 114.52C60.36 114.28 58.47 116.79 56.69 121.77L56.58 122.1ZM48.69 102.7C47.79 102.7 46 106.75 45.24 108.48 45.1 108.8 44.98 109.08 44.87 109.31 44.18 110.83 49.81 116.72 56.32 121.3 57.64 117.72 59.54 114.01 61.09 114.01 61.18 114.01 61.26 114.02 61.35 114.05L61.79 114.18C62.33 114.34 62.97 114.53 63.64 114.68 62.81 114.07 61.89 113.7 60.41 113.11 59.41 112.71 58.18 112.22 56.55 111.48 50.82 108.87 50.1 106.56 50.07 106.47L50.05 106.4 50.79 103.82C50.46 103.61 49.65 103.12 48.75 102.74 48.74 102.7 48.71 102.7 48.69 102.7Z" fill="#1D1D1B"/></g><g><path d="M68.68 109.71C66.66 106.46 64.11 106.52 64.11 106.52L63.31 109.02C63.31 109.02 65.61 111.69 66.39 115.2 67.83 114.94 67.98 112.99 67.98 112.99L71.94 116.87C71.96 116.87 71.53 114.28 68.68 109.71Z" fill="#C2C6EB"/><path d="M72.34 117.61 68.16 113.52C68 114.18 67.57 115.26 66.44 115.46L66.2 115.5 66.15 115.26C65.4 111.86 63.15 109.22 63.12 109.2L63.03 109.09 63.93 106.28 64.11 106.28 64.11 106.28C64.41 106.28 66.9 106.37 68.9 109.59 71.74 114.15 72.19 116.73 72.21 116.84L72.34 117.61ZM67.78 112.42 71.47 116.03C71.12 114.92 70.3 112.8 68.47 109.85 66.85 107.26 64.9 106.86 64.31 106.79L63.62 108.96C64.06 109.5 65.86 111.83 66.6 114.87 67.61 114.48 67.74 112.97 67.75 112.96L67.78 112.42Z" fill="#1D1D1B"/></g><g opacity="0.8"><path d="M64.41 112.11C65.91 114.89 59.7 111.57 55.84 109 51.98 106.43 52.52 102.68 56.16 104.18 58.6 105.18 62.14 105.85 64.22 106.18L64.72 104.53 51.88 100.91 51.1 103.67 50.32 106.36C50.32 106.36 50.97 108.62 56.66 111.21 61.42 113.37 62.88 113.46 64.55 115.1 65.11 115.19 65.67 115.24 66.18 115.22 66.26 115.22 66.33 115.2 66.4 115.19 65.62 111.68 63.32 109.01 63.32 109.01 63.32 109.01 62.91 109.33 64.41 112.11Z" fill="#EFBA82"/></g></g><g opacity="0.5"><path d="M56.66 111.22C50.97 108.63 50.32 106.37 50.32 106.37L51.1 103.68C51.1 103.68 50.07 102.99 48.86 102.47 48.11 102.15 47 104.09 46.05 106.06 46.79 105.72 47.49 105.75 48 106.44 49.89 109.03 51.96 111.44 55.41 112.65 58.63 113.78 57.04 117.6 56.12 121.47 56.23 121.55 56.34 121.63 56.45 121.7 58.09 117.13 60.07 113.94 61.28 114.29 62.11 114.53 63.34 114.92 64.56 115.12 62.88 113.47 61.42 113.39 56.66 111.22Z" fill="#939BC9"/></g><g opacity="0.5"><path d="M67.91 111.74C66.2 110.5 65.26 108.21 66.53 107.4 65.21 106.5 64.11 106.52 64.11 106.52L63.31 109.02C63.31 109.02 65.61 111.69 66.39 115.2 67.83 114.94 67.98 112.99 67.98 112.99L71.94 116.87C71.94 116.87 71.77 115.88 70.98 114.04 70.11 113.37 69 112.53 67.91 111.74Z" fill="#939BC9"/></g><path d="M46.27 111.35C46.27 111.35 50.41 116.09 52.91 118.07 55.41 120.05 55.32 117.21 55.15 115.14 54.98 113.07 53.68 114.88 51.79 112.55 49.89 110.23 44.46 107.64 46.27 111.35Z" fill="#C2C6EB" opacity="0.3"/></g><g><g><path d="M60.41 172.64C60.41 172.64 69.72 173.16 71.4 172.25 71.14 174.45 75.93 174.58 80.06 173.16 82.52 173.29 83.68 172.64 84.33 172.25 86.4 172.77 87.82 171.73 87.82 171.73 89.76 172.12 90.66 170.31 90.66 169.14 94.15 170.3 95.44 169.14 94.41 167.2 93.37 165.26 90.66 159.83 89.62 157.24 88.59 154.66 86.39 154.14 80.57 153.36 74.75 152.58 72.3 153.88 68.93 157.24 65.57 160.6 64.66 162.67 64.66 162.67L60.91 163.06C60.93 163.07 57.95 167.59 60.41 172.64Z" fill="#F9D4AA"/><path d="M74.84 174.34C73.71 174.34 72.21 174.17 71.5 173.38 71.3 173.16 71.18 172.9 71.14 172.62 70.25 172.9 68.48 173.03 65.78 173.03L65.78 173.03C63.08 173.03 60.42 172.88 60.39 172.88L60.24 172.87 60.17 172.73C57.68 167.61 60.67 162.95 60.7 162.91L60.77 162.81 64.5 162.42C64.76 161.9 65.84 159.96 68.75 157.05 71.46 154.34 73.67 152.88 77.62 152.88 78.51 152.88 79.49 152.95 80.6 153.1 86.46 153.88 88.77 154.43 89.86 157.14 90.88 159.68 93.55 165.03 94.63 167.07 95.17 168.09 95.03 168.73 94.82 169.09 94.61 169.44 94.13 169.85 93.04 169.85 92.43 169.85 91.71 169.72 90.9 169.47 90.76 170.6 89.93 172.02 88.34 172.02 88.19 172.02 88.04 172.01 87.88 171.98 87.6 172.16 86.73 172.63 85.49 172.63 85.12 172.63 84.74 172.59 84.37 172.5 83.77 172.85 82.55 173.51 80.1 173.39 78.36 174 76.45 174.34 74.84 174.34ZM71.71 171.78 71.65 172.27C71.61 172.57 71.69 172.82 71.88 173.03 72.33 173.53 73.4 173.82 74.84 173.82 76.4 173.82 78.28 173.48 79.97 172.9L80.02 172.88 80.07 172.88C82.52 173.01 83.66 172.33 84.19 172.01L84.28 171.95 84.38 171.98C84.74 172.07 85.11 172.12 85.47 172.12 86.78 172.12 87.64 171.51 87.65 171.51L87.74 171.44 87.85 171.46C88.01 171.49 88.17 171.51 88.32 171.51 89.73 171.51 90.39 170.09 90.39 169.13L90.39 168.77 90.73 168.88C92.59 169.5 93.98 169.46 94.37 168.82 94.58 168.47 94.51 167.94 94.17 167.31 93.08 165.27 90.4 159.89 89.37 157.33 88.39 154.87 86.28 154.38 80.53 153.61 79.44 153.46 78.49 153.39 77.62 153.39 73.83 153.39 71.78 154.74 69.11 157.41 65.83 160.69 64.91 162.74 64.9 162.76L64.84 162.9 61.07 163.29C60.67 163.97 58.52 167.98 60.57 172.36 61.17 172.39 63.46 172.5 65.78 172.5 69.55 172.5 70.85 172.23 71.27 172L71.71 171.78Z" fill="#1D1D1B"/></g><g><path d="M81.5 160.14C81.5 160.14 81.61 160.31 81.79 160.61 81.96 160.91 82.22 161.34 82.5 161.88 83.05 162.95 83.71 164.42 84.2 165.95 84.32 166.34 84.43 166.72 84.53 167.11 84.63 167.49 84.71 167.88 84.77 168.25 84.9 169 84.95 169.71 84.91 170.32 84.89 170.63 84.85 170.9 84.79 171.15 84.73 171.39 84.67 171.6 84.59 171.76 84.46 172.09 84.31 172.24 84.33 172.25 84.33 172.25 84.35 172.2 84.38 172.12 84.41 172.03 84.46 171.91 84.5 171.74 84.59 171.41 84.64 170.92 84.61 170.33 84.58 169.74 84.48 169.07 84.32 168.34 84.25 167.98 84.14 167.61 84.04 167.24 83.94 166.86 83.82 166.49 83.7 166.11 83.23 164.6 82.66 163.12 82.23 162.01 81.8 160.89 81.5 160.14 81.5 160.14Z" fill="#1D1D1B"/><path d="M76.49 161.66C76.49 161.66 76.51 161.71 76.56 161.78 76.61 161.86 76.68 161.97 76.77 162.11 76.94 162.4 77.21 162.8 77.5 163.3 78.09 164.3 78.82 165.66 79.44 167.09 80.06 168.51 80.56 170 80.68 171.19 80.74 171.78 80.69 172.29 80.55 172.61 80.48 172.77 80.4 172.88 80.32 172.94 80.25 173 80.22 173.03 80.22 173.03 80.22 173.03 80.25 172.99 80.3 172.92 80.36 172.86 80.41 172.73 80.45 172.58 80.49 172.42 80.51 172.22 80.5 172 80.49 171.77 80.45 171.52 80.39 171.24 80.27 170.69 80.07 170.05 79.82 169.38 79.57 168.71 79.28 168 78.97 167.3 78.36 165.89 77.71 164.5 77.24 163.44 77 162.91 76.82 162.47 76.68 162.16 76.61 162 76.57 161.88 76.54 161.79 76.5 161.71 76.49 161.66 76.49 161.66Z" fill="#1D1D1B"/><path d="M73.94 165.47 74.44 166.71C74.61 167.12 74.79 167.53 74.97 167.93 75.05 168.14 75.16 168.33 75.26 168.52 75.36 168.71 75.45 168.91 75.57 169.09L75.74 169.37C75.8 169.46 75.84 169.56 75.91 169.64L76.3 170.13 76.84 170.79 76.03 170.54 75.72 170.44C75.61 170.41 75.5 170.4 75.39 170.38 75.28 170.36 75.17 170.37 75.06 170.36 74.95 170.35 74.84 170.37 74.72 170.38 74.5 170.4 74.27 170.44 74.05 170.51 73.94 170.54 73.83 170.57 73.72 170.62 73.61 170.66 73.5 170.7 73.39 170.75 73.18 170.84 72.97 170.95 72.77 171.07 72.57 171.19 72.38 171.33 72.2 171.48 72.02 171.63 71.85 171.8 71.71 171.99 71.65 172.09 71.57 172.18 71.53 172.29 71.47 172.4 71.45 172.51 71.43 172.63 71.43 172.51 71.42 172.38 71.46 172.26 71.48 172.13 71.54 172.02 71.59 171.91 71.7 171.68 71.85 171.48 72.02 171.29 72.19 171.11 72.38 170.94 72.58 170.78 72.79 170.63 73 170.49 73.22 170.37 73.45 170.25 73.68 170.15 73.92 170.07 74.04 170.02 74.16 169.99 74.29 169.96 74.42 169.93 74.54 169.9 74.67 169.89 74.8 169.88 74.93 169.85 75.06 169.86 75.19 169.86 75.32 169.85 75.45 169.87 75.58 169.89 75.71 169.9 75.84 169.93L76.22 170.05 75.94 170.47 75.5 169.91C75.42 169.82 75.38 169.71 75.32 169.62L75.15 169.32C75.03 169.12 74.95 168.91 74.85 168.7 74.76 168.49 74.67 168.28 74.6 168.07 74.44 167.65 74.31 167.21 74.2 166.78 74.11 166.35 74 165.92 73.94 165.47Z" fill="#1D1D1B"/><path d="M86.75 158.75C86.75 158.75 86.81 158.94 86.91 159.29 87 159.64 87.15 160.13 87.28 160.73 87.41 161.33 87.58 162.03 87.72 162.79 87.87 163.55 87.99 164.36 88.1 165.18 88.2 166 88.28 166.82 88.32 167.59 88.36 168.36 88.34 169.09 88.3 169.71 88.27 170.02 88.25 170.3 88.2 170.55 88.14 170.8 88.1 171.02 88.05 171.19 87.91 171.53 87.83 171.72 87.83 171.72 87.83 171.72 87.87 171.51 87.95 171.17 87.97 170.99 87.98 170.78 88 170.53 88.01 170.28 87.99 170 88 169.7 88 169.4 87.97 169.07 87.96 168.72 87.93 168.37 87.9 168.01 87.86 167.62 87.78 166.86 87.69 166.05 87.58 165.24 87.37 163.62 87.15 162 86.99 160.78 86.83 159.57 86.75 158.75 86.75 158.75Z" fill="#1D1D1B"/><path d="M89.79 161.26C89.79 161.26 89.83 161.38 89.89 161.6 89.95 161.82 90.04 162.12 90.13 162.5 90.31 163.25 90.5 164.25 90.62 165.27 90.68 165.78 90.73 166.29 90.75 166.77 90.79 167.25 90.79 167.7 90.77 168.09 90.76 168.28 90.76 168.46 90.74 168.62 90.71 168.78 90.69 168.91 90.67 169.03 90.63 169.25 90.6 169.38 90.6 169.38 90.6 169.38 90.58 169.25 90.57 169.03 90.56 168.92 90.55 168.79 90.54 168.63 90.52 168.48 90.5 168.3 90.47 168.12 90.44 167.93 90.42 167.73 90.4 167.51 90.37 167.29 90.34 167.07 90.3 166.83 90.24 166.36 90.17 165.85 90.11 165.35 90.06 164.84 89.99 164.34 89.95 163.86 89.91 163.38 89.86 162.94 89.84 162.56 89.81 162.18 89.81 161.86 89.8 161.63 89.79 161.39 89.79 161.26 89.79 161.26Z" fill="#1D1D1B"/><path d="M64.81 162.55C64.81 162.55 64.73 162.81 64.59 163.18 64.53 163.36 64.43 163.56 64.34 163.79 64.25 164.01 64.14 164.24 64.03 164.47 63.91 164.69 63.79 164.92 63.69 165.14 63.58 165.35 63.48 165.55 63.37 165.72 63.17 166.05 62.99 166.27 62.99 166.27 62.99 166.27 63 166 63.09 165.62 63.13 165.42 63.19 165.2 63.27 164.97 63.31 164.85 63.34 164.73 63.39 164.61 63.44 164.49 63.5 164.38 63.56 164.26 63.68 164.03 63.8 163.8 63.93 163.59 64.06 163.38 64.21 163.2 64.33 163.05 64.59 162.71 64.81 162.55 64.81 162.55Z" fill="#1D1D1B"/></g><g opacity="0.8"><path d="M94.42 167.21C94.35 167.09 94.28 166.95 94.2 166.8 94.35 167.21 94.52 168.1 92.91 167.9 90.84 167.64 91.19 163.68 89.55 160.06 90.24 164.46 90.84 168.01 89.46 168.16 88.68 168.25 88.68 165.57 87.74 161.26 86.96 157.55 86.28 158.24 86.79 160.4 87.31 162.56 88.25 168.33 86.62 168.76 84.98 169.19 84.64 164.71 82.05 159.97 80.76 158.16 83.07 165.34 83.6 168.33 83.86 169.79 81.53 171 79.81 167.04 78.09 163.07 77.22 161.78 75.76 160.66 74.3 159.54 77.92 164.63 79.29 168.5 79.98 170.74 77.39 171.35 75.67 168.07 73.95 164.79 72.82 164.19 73.95 167.12 75.07 170.05 72.49 169.27 71.36 170.31 70.24 171.35 63.56 172.27 64.12 167.81 64.55 164.36 68.52 158.07 72.57 155.4 76.62 152.73 81.79 153.5 84.64 154.19 85.07 154.29 85.56 154.34 86.09 154.36 84.75 153.97 82.98 153.69 80.59 153.37 74.77 152.59 72.32 153.89 68.95 157.25 65.59 160.61 64.68 162.68 64.68 162.68L60.93 163.07C60.93 163.07 57.96 167.6 60.41 172.64 60.41 172.64 69.72 173.16 71.4 172.25 71.14 174.45 75.93 174.58 80.06 173.16 82.52 173.29 83.68 172.64 84.33 172.25 86.4 172.77 87.82 171.73 87.82 171.73 89.76 172.12 90.66 170.31 90.66 169.14 94.16 170.31 95.45 169.14 94.42 167.21Z" fill="#EFBA82"/></g></g><g><g><path d="M85.92 46.96 83.51 43 83.85 45.93C83.85 45.93 79.54 45.59 77.82 40.07 76.78 43.35 69.54 48.86 69.54 48.86 69.54 48.86 70.06 46.62 70.06 45.59 69.2 47.66 66.27 49.04 66.27 49.04 66.27 49.04 66.79 48.35 66.79 44.9 65.93 46.8 62.65 49.9 62.65 49.9 62.65 49.9 62.82 46.97 61.44 44.56 61.1 50.59 55.75 55.77 55.75 55.77 55.75 55.77 56.27 53.7 55.06 50.43 55.06 52.5 54.37 57.15 54.37 57.15L52.65 54.05 52.65 59.91C52.65 59.91 52.31 60.94 51.44 54.05 51.1 55.77 50.06 62.84 50.06 62.84 50.06 62.84 49.2 63.01 46.61 58.53 46.78 63.19 45.57 69.74 45.57 69.74 45.57 69.74 44.71 69.05 42.29 63.02 40.74 66.47 40.39 79.05 44.53 87.15 41.95 86.63 37.63 78.36 34.88 78.53 32.12 78.7 29.71 83.7 33.84 89.74 37.98 95.77 47.11 91.81 47.11 91.81 47.11 91.81 47.28 93.53 44.01 94.22 46.81 96 48.65 98.24 49.8 100.06 49.74 99.9 49.67 99.74 49.6 99.55 65.77 109.73 83.88 105.39 91.51 95.36 99.14 85.33 95.55 73.36 93.46 69.46 91.36 65.57 90.32 63.62 91.07 57.63 91.82 51.49 86.88 44.16 86.88 44.16 86.88 44.16 86.9 44.18 86.94 44.21 86.62 43.77 86.43 43.53 86.43 43.53L85.92 46.96Z" fill="#F9D4AA"/><path d="M69.1 105.6C62.5 105.6 55.88 103.67 49.91 100.02L49.6 100.18C48.11 97.82 46.19 95.88 43.89 94.42L43.35 94.08 43.97 93.95C46.03 93.52 46.63 92.69 46.8 92.2 45.86 92.55 43.49 93.33 40.87 93.33 37.64 93.33 35.21 92.17 33.63 89.87 31.36 86.55 30.74 83.04 31.99 80.48 32.63 79.16 33.7 78.33 34.86 78.26 36.46 78.17 38.44 80.55 40.35 82.87 41.63 84.43 42.95 86.03 44 86.64 40.18 78.55 40.42 66.53 42.05 62.89L42.3 62.34 42.53 62.9C44.08 66.78 44.98 68.42 45.41 69.09 45.7 67.39 46.48 62.29 46.34 58.52L46.3 57.48 46.82 58.38C48.54 61.37 49.46 62.22 49.84 62.46 50.05 61.07 50.88 55.47 51.18 53.97L51.49 52.41 51.7 54C51.99 56.34 52.22 57.73 52.39 58.56L52.39 53.04 54.22 56.34C54.41 54.94 54.8 51.94 54.8 50.42L54.8 48.97 55.3 50.33C56.09 52.47 56.16 54.1 56.1 55.01 57.45 53.52 60.9 49.27 61.17 44.54L61.22 43.67 61.65 44.43C62.68 46.23 62.87 48.27 62.9 49.28 63.82 48.37 65.89 46.21 66.54 44.79L67.03 43.7 67.03 44.89C67.03 46.79 66.87 47.88 66.72 48.48 67.6 47.97 69.22 46.88 69.8 45.48L70.3 44.28 70.3 45.57C70.3 46.26 70.08 47.44 69.93 48.2 71.64 46.83 76.72 42.61 77.55 39.98L77.8 39.19 78.05 39.98C79.43 44.41 82.54 45.4 83.54 45.61L83.1 41.84 85.76 46.21 86.16 43.54 85.85 43.08 86.19 43.33 86.26 42.89 86.63 43.35C86.63 43.35 86.83 43.59 87.15 44.03L88.15 45.4 87.81 45.15C89.17 47.47 91.91 52.86 91.33 57.64 90.59 63.55 91.63 65.47 93.7 69.31 95.77 73.15 99.45 85.35 91.73 95.49 86.99 101.73 78.32 105.6 69.1 105.6ZM49.57 99.2 49.75 99.31C55.75 103.09 62.44 105.08 69.1 105.08 78.16 105.08 86.67 101.29 91.32 95.18 98.87 85.26 95.27 73.32 93.24 69.56 91.12 65.62 90.06 63.65 90.82 57.58 91.55 51.61 86.72 44.36 86.67 44.28L86.6 44.17 86.07 47.69 83.9 44.13 84.14 46.2 83.83 46.17C83.79 46.17 79.68 45.78 77.8 40.78 76.16 44.1 69.98 48.83 69.7 49.05L69.13 49.48 69.29 48.78C69.29 48.77 69.54 47.68 69.69 46.69 68.5 48.24 66.48 49.2 66.37 49.25L65.43 49.69 66.05 48.86C66.05 48.86 66.42 48.27 66.5 45.88 65.28 47.73 62.93 49.96 62.81 50.07L62.34 50.52 62.38 49.87C62.38 49.85 62.5 47.59 61.6 45.47 60.83 51.13 56.13 55.73 55.92 55.93L55.28 56.55 55.49 55.68C55.49 55.66 55.83 54.22 55.24 51.88 55.07 54.1 54.64 57.01 54.62 57.16L54.51 57.91 52.9 55.01 52.89 59.96C52.84 60.1 52.75 60.19 52.58 60.19 52.33 60.19 52.01 60.16 51.4 55.73 50.96 58.41 50.32 62.79 50.31 62.85L50.28 63.03 50.04 63.07C49.74 63.07 48.84 62.7 46.88 59.47 46.87 63.99 45.84 69.69 45.82 69.75L45.74 70.17 45.4 69.9C45.31 69.83 44.48 69.05 42.29 63.68 40.91 67.88 40.96 79.57 44.75 86.99L44.99 87.47 44.47 87.36C43.18 87.1 41.61 85.19 39.94 83.17 38.23 81.09 36.3 78.74 34.95 78.74L34.88 78.74C33.92 78.8 33 79.52 32.45 80.67 32.01 81.57 30.83 84.86 34.05 89.54 35.52 91.69 37.81 92.77 40.86 92.77 44.07 92.77 46.98 91.52 47.01 91.51L47.33 91.37 47.37 91.72C47.38 91.8 47.51 93.46 44.65 94.27 46.59 95.62 48.23 97.26 49.57 99.2Z" fill="#1D1D1B"/></g><g opacity="0.8"><path d="M95.43 74.91C84.68 76.81 80.2 90.54 80.45 94.8 75.93 95.45 73.08 93.38 73.08 93.38 73.08 93.38 73.86 90.02 72.3 89.11 71.52 93.25 68.03 95.06 68.03 95.06 68.03 95.06 69.97 95.19 71.65 94.16 74.24 96.75 77.86 97.65 81.35 97.39 81.61 99.07 83.81 99.98 83.81 99.98 83.81 99.98 79.93 104.25 69.85 103.99 53.56 103.47 46.06 86.02 46.84 72.05 46.97 69.73 48.13 64.81 48.13 64.81L50.84 65.72 51.74 61.07 52.9 63.4 54.45 59.13C54.45 59.13 54.45 59.13 55.49 60.55 57.82 58.48 61.44 50.72 61.44 50.72L61.7 54.08 64.93 49.43 65.06 52.14 68.03 49.94 68.42 51.88C68.42 51.88 71.13 50.2 78.76 46.06 81.22 48.77 84.58 48.13 84.58 48.13L86.52 49.68C87.41 47.53 88.79 48.61 90.67 52.66 89.55 48.12 86.88 44.15 86.88 44.15 86.88 44.15 86.9 44.17 86.94 44.2 86.62 43.76 86.43 43.52 86.43 43.52L85.91 46.97 83.51 43 83.85 45.93C83.85 45.93 79.54 45.59 77.82 40.07 76.78 43.35 69.54 48.86 69.54 48.86 69.54 48.86 70.06 46.62 70.06 45.59 69.2 47.66 66.27 49.04 66.27 49.04 66.27 49.04 66.79 48.35 66.79 44.9 65.93 46.8 62.65 49.9 62.65 49.9 62.65 49.9 62.82 46.97 61.44 44.56 61.1 50.59 55.75 55.77 55.75 55.77 55.75 55.77 56.27 53.7 55.06 50.43 55.06 52.5 54.37 57.15 54.37 57.15L52.65 54.05 52.65 59.91C52.65 59.91 52.31 60.94 51.44 54.05 51.1 55.77 50.06 62.84 50.06 62.84 50.06 62.84 49.2 63.01 46.61 58.53 46.78 63.19 45.57 69.74 45.57 69.74 45.57 69.74 44.71 69.05 42.29 63.02 40.74 66.47 40.39 79.05 44.53 87.15 41.95 86.63 37.63 78.36 34.88 78.53 32.36 78.69 30.14 82.86 32.91 88.18 32.63 86.81 31.77 81.81 33.85 80.78 36.26 79.57 33.82 87.75 36.09 84.57 36.95 83.36 37.64 84.74 36.61 85.95 35.58 87.16 35.92 89.4 36.78 90.43 36.78 90.43 40.4 93.88 44.36 92.5 44.25 92.58 44.15 92.66 44.04 92.74 45.85 92.36 47.11 91.81 47.11 91.81 47.11 91.81 47.28 93.53 44.01 94.22 46.81 96 48.65 98.24 49.8 100.06 49.74 99.9 49.67 99.74 49.6 99.55 65.77 109.73 83.88 105.39 91.51 95.36 96.86 88.34 96.71 80.39 95.43 74.91Z" fill="#EFBA82"/></g><path d="M89.5 74.18C89.5 74.18 90.21 70.43 93.96 71.27 94.86 71.66 94.15 70.24 92.6 69.98 92.79 68.17 90.14 62.8 90.66 59.83 91.11 57.57 85.49 56.53 83.81 60.61 82.13 64.68 84.39 71.66 88.79 72.31 88.6 73.4 89.5 74.18 89.5 74.18Z" fill="#EFBA82"/><path d="M60.41 77.48C60.41 77.48 65.75 74.2 70.75 79.38 72.82 81.45 72.47 79.21 71.27 77.14 74.37 77.31 79.2 71.62 75.75 63.35 72.3 55.08 58.34 59.73 63.68 73.87 59.89 75.06 60.41 77.48 60.41 77.48Z" fill="#EFBA82"/><g><path d="M104.1 28.88C102.45 25.89 98.26 25.59 98.26 25.59 98.26 25.59 99.91 25.29 102.15 23.64 96.91 23.19 91.37 19.15 91.37 19.15 91.37 19.15 93.02 18.7 96.46 19.75 91.98 14.06 83 15.4 83 15.4 83 15.4 84.8 13.3 89.29 12.41 81.5 10.46 73.27 15.4 73.27 15.4 73.27 15.4 74.32 13.15 72.97 9.26 72.22 17.79 65.64 16.15 48.87 19.59 24.02 26.92 21.63 38.9 21.63 38.9 21.63 38.9 20.73 35.91 20.88 33.36 18.04 37.7 18.34 45.03 18.34 45.03 16.54 44.58 15.35 41.14 15.35 41.14 15.35 41.14 15.5 44.43 16.85 46.83 11.46 47.13 11.61 50.72 11.61 50.72 11.61 50.72 13.26 48.47 16.25 49.07 4.42 62.24 12.81 78.41 12.81 78.41 12.81 78.41 12.66 77.66 14.16 73.77 13.56 78.26 15.66 80.06 15.66 80.06 15.66 80.06 15.66 80.06 17.01 77.07 17.91 85.15 25.54 89.64 25.54 89.64 25.54 89.64 23.89 88.59 24.94 84.55 25.69 88.59 30.48 90.39 30.48 90.39 30.48 90.39 30.03 89.49 30.63 87.4 31.83 93.24 35.42 93.54 39.31 95.03 43.2 96.52 47.24 100.72 47.24 100.72 47.24 100.72 47.24 100.72 47.09 98.92 48.74 100.57 50.53 101.76 50.53 101.76 50.53 101.76 50.53 101.75 49.83 100.02 48.68 98.2 46.84 95.96 44.04 94.18 47.32 93.49 47.14 91.77 47.14 91.77 47.14 91.77 38 95.75 33.86 89.72 29.72 83.69 32.14 78.69 34.9 78.51 37.66 78.34 41.97 86.61 44.55 87.13 40.41 79.03 40.76 66.44 42.31 63 44.72 69.03 45.59 69.72 45.59 69.72 45.59 69.72 46.8 63.17 46.63 58.51 49.22 62.99 50.08 62.82 50.08 62.82 50.08 62.82 51.12 55.75 51.46 54.03 52.32 60.93 52.67 59.89 52.67 59.89L52.67 54.03 54.39 57.13C54.39 57.13 55.08 52.47 55.08 50.41 56.29 53.69 55.77 55.75 55.77 55.75 55.77 55.75 61.11 50.58 61.46 44.54 62.84 46.95 62.67 49.88 62.67 49.88 62.67 49.88 65.95 46.78 66.81 44.88 66.81 48.33 66.29 49.02 66.29 49.02 66.29 49.02 69.22 47.64 70.08 45.57 70.08 46.6 69.56 48.84 69.56 48.84 69.56 48.84 76.8 43.32 77.84 40.05 79.56 45.57 83.87 45.91 83.87 45.91L83.51 43 85.92 46.96 86.44 43.51C86.44 43.51 86.63 43.75 86.95 44.19 87.54 44.63 92.13 48.13 92.13 51.63 94.23 48.19 91.68 40.7 91.68 40.7 91.68 40.7 95.12 44.29 94.67 47.44 99.16 41.75 95.42 35.61 95.42 35.61 95.42 35.61 99.46 37.56 100.06 39.65 100.81 30.37 96.32 29.17 96.32 29.17 96.32 29.17 100.36 26.93 104.1 28.88Z" fill="#DEB300"/><path d="M51.03 102.43 50.37 101.99C50.35 101.98 48.88 100.99 47.39 99.59L47.54 101.42 47.04 100.9C47 100.86 42.99 96.73 39.2 95.27 38.63 95.05 38.07 94.86 37.52 94.67 34.49 93.63 31.84 92.72 30.62 88.53 30.44 89.72 30.69 90.27 30.69 90.27L30.96 90.85 30.37 90.63C30.19 90.56 26.23 89.04 24.95 85.63 24.46 88.58 25.65 89.41 25.66 89.42L25.39 89.86C25.32 89.82 18.19 85.54 16.86 77.98L15.73 80.48 15.47 80.25C15.39 80.19 13.83 78.8 13.78 75.52 13 77.78 13.05 78.34 13.05 78.37L13.2 79.76 12.56 78.53C12.48 78.37 4.38 62.34 15.73 49.25 15.56 49.23 15.4 49.22 15.24 49.22 13.04 49.22 11.82 50.85 11.81 50.86L11.37 51.45 11.34 50.71C11.34 50.67 11.25 47.04 16.42 46.58 15.23 44.21 15.08 41.26 15.08 41.13L15 39.39 15.58 41.06C15.59 41.09 16.6 43.94 18.06 44.66 18.04 43.07 18.14 37.06 20.66 33.22L21.19 32.41 21.13 33.38C21.03 35.02 21.39 36.88 21.64 37.95 22.72 34.99 27.73 25.57 48.79 19.35 52.85 18.52 56.24 17.99 59.22 17.53 68.37 16.11 72.16 15.53 72.71 9.25L72.82 8.04 73.22 9.18C74.18 11.95 73.95 13.91 73.72 14.86 75.35 14 80.2 11.7 85.45 11.7 86.81 11.7 88.13 11.85 89.35 12.16L90.47 12.44 89.34 12.67C86.36 13.27 84.58 14.41 83.75 15.07 84.15 15.04 84.69 15.01 85.33 15.01 88.21 15.01 93.52 15.61 96.67 19.59L97.18 20.24 96.39 20C94.22 19.34 92.81 19.29 92.08 19.33 93.6 20.34 98.01 23.03 102.17 23.39L102.86 23.45 102.3 23.86C101.11 24.73 100.1 25.23 99.38 25.51 100.78 25.81 103.14 26.63 104.32 28.76L104.73 29.51 103.97 29.12C103 28.61 101.91 28.36 100.73 28.36 99.08 28.36 97.65 28.87 96.92 29.19 97.37 29.44 98.04 29.92 98.66 30.81 100.06 32.8 100.61 35.79 100.3 39.7L100.18 41.12 99.79 39.75C99.38 38.31 97.16 36.9 96 36.25 96.83 38.09 98.49 43.03 94.86 47.63L94.26 48.38 94.4 47.43C94.69 45.39 93.23 43.11 92.27 41.86 92.9 44.15 93.97 49.1 92.33 51.79L91.85 52.58 91.85 51.66C91.85 48.27 87.3 44.81 86.78 44.43L86.72 44.37C86.67 44.3 86.63 44.24 86.58 44.18L86.05 47.73 83.88 44.17 84.12 46.24 83.81 46.21C83.77 46.21 79.66 45.82 77.78 40.82 76.14 44.14 69.96 48.87 69.68 49.09L69.11 49.52 69.27 48.82C69.27 48.81 69.52 47.72 69.67 46.73 68.48 48.28 66.46 49.24 66.35 49.29L65.41 49.73 66.03 48.9C66.03 48.9 66.4 48.31 66.48 45.92 65.26 47.77 62.91 50 62.79 50.11L62.32 50.56 62.36 49.91C62.36 49.89 62.48 47.63 61.58 45.51 60.81 51.17 56.11 55.77 55.9 55.97L55.26 56.59 55.47 55.72C55.47 55.7 55.81 54.26 55.22 51.92 55.05 54.14 54.62 57.05 54.6 57.2L54.49 57.95 52.88 55.05 52.87 60C52.82 60.14 52.7 60.23 52.57 60.23 52.31 60.23 52 60.23 51.38 55.77 50.94 58.45 50.3 62.83 50.29 62.89L50.26 63.07 50.02 63.11C49.72 63.11 48.82 62.74 46.86 59.51 46.85 64.03 45.82 69.73 45.8 69.79L45.72 70.21 45.38 69.94C45.29 69.87 44.46 69.09 42.27 63.72 40.89 67.92 40.94 79.61 44.73 87.03L44.97 87.51 44.45 87.4C43.16 87.14 41.59 85.23 39.92 83.21 38.21 81.13 36.28 78.78 34.93 78.78L34.86 78.78C33.9 78.84 32.98 79.56 32.43 80.71 31.99 81.61 30.81 84.9 34.03 89.58 35.5 91.73 37.79 92.81 40.84 92.81 44.05 92.81 46.96 91.56 46.99 91.55L47.31 91.41 47.35 91.76C47.36 91.84 47.49 93.5 44.63 94.31 46.77 95.77 48.58 97.65 50 99.9 50.72 101.68 50.72 101.69 50.72 101.69L51.03 102.43ZM46.75 98.25 47.25 98.75C48.23 99.73 49.27 100.55 49.94 101.05L49.57 100.13C48.1 97.81 46.19 95.87 43.89 94.41L43.35 94.07 43.97 93.94C46.03 93.51 46.63 92.68 46.8 92.19 45.86 92.54 43.49 93.32 40.87 93.32 37.64 93.32 35.21 92.16 33.63 89.86 31.36 86.54 30.74 83.03 31.99 80.47 32.63 79.15 33.7 78.32 34.86 78.25 36.46 78.15 38.44 80.54 40.35 82.86 41.63 84.42 42.95 86.02 44 86.63 40.18 78.54 40.42 66.52 42.05 62.88L42.3 62.33 42.53 62.89C44.08 66.77 44.98 68.41 45.41 69.08 45.7 67.38 46.48 62.28 46.34 58.51L46.3 57.47 46.82 58.37C48.54 61.36 49.46 62.21 49.84 62.45 50.05 61.06 50.88 55.46 51.18 53.96L51.49 52.4 51.7 54C51.99 56.34 52.22 57.73 52.39 58.56L52.39 53.04 54.22 56.34C54.41 54.94 54.8 51.94 54.8 50.42L54.8 48.97 55.3 50.33C56.09 52.47 56.16 54.1 56.1 55.01 57.45 53.52 60.9 49.27 61.17 44.54L61.22 43.67 61.65 44.43C62.68 46.23 62.87 48.27 62.9 49.28 63.82 48.37 65.89 46.21 66.54 44.79L67.03 43.7 67.03 44.89C67.03 46.79 66.87 47.88 66.72 48.48 67.6 47.97 69.22 46.88 69.8 45.48L70.3 44.28 70.3 45.57C70.3 46.26 70.08 47.44 69.93 48.2 71.64 46.83 76.72 42.61 77.55 39.98L77.8 39.19 78.05 39.98C79.43 44.41 82.54 45.4 83.54 45.61L83.1 41.84 85.76 46.21 86.26 42.88 86.63 43.34C86.63 43.34 86.82 43.57 87.12 43.99 87.73 44.45 91.6 47.43 92.27 50.67 93.54 47.12 91.44 40.83 91.42 40.77L91.04 39.67 91.85 40.51C91.98 40.65 94.79 43.62 94.95 46.59 98.49 41.31 95.22 35.8 95.19 35.74L94.75 35 95.54 35.38C95.69 35.45 98.64 36.89 99.87 38.68 100.23 30.59 96.3 29.44 96.26 29.43L95.64 29.27 96.2 28.96C96.28 28.91 98.25 27.83 100.75 27.83 101.68 27.83 102.57 27.98 103.39 28.28 101.61 26.11 98.29 25.85 98.25 25.84L96.24 25.7 98.23 25.33C98.24 25.33 99.58 25.07 101.46 23.82 96.43 23.11 91.46 19.52 91.24 19.36L90.81 19.04 91.33 18.9C91.35 18.9 91.72 18.79 92.47 18.79 93.16 18.79 94.25 18.88 95.73 19.26 92.68 16.02 87.98 15.52 85.35 15.52 83.98 15.52 83.06 15.65 83.05 15.66L82.36 15.76 82.81 15.23C82.88 15.15 84.4 13.41 88.09 12.42 87.24 12.28 86.36 12.21 85.45 12.21 79.16 12.21 73.46 15.59 73.41 15.62L72.69 16.05 73.04 15.29C73.05 15.27 73.82 13.53 73.08 10.5 72.09 16.05 67.88 16.7 59.31 18.03 56.33 18.49 52.96 19.02 48.93 19.84 24.53 27.04 21.91 38.83 21.89 38.95L21.69 39.97 21.39 38.98C21.36 38.87 20.69 36.61 20.62 34.34 18.37 38.61 18.6 44.97 18.6 45.03L18.61 45.38 18.28 45.3C17.21 45.03 16.35 43.83 15.8 42.81 15.99 43.95 16.36 45.47 17.07 46.72L17.27 47.08 16.86 47.1C13.27 47.3 12.26 48.97 11.97 49.98 12.59 49.44 13.69 48.73 15.24 48.73 15.58 48.73 15.94 48.77 16.29 48.84L16.74 48.93 16.44 49.27C6.34 60.5 11.19 74.1 12.65 77.5 12.81 76.8 13.15 75.62 13.89 73.69L14.68 71.64 14.39 73.82C13.94 77.16 15.04 78.97 15.56 79.61L17.13 76.11 17.23 77.05C17.9 83.09 22.45 87.13 24.56 88.7 24.27 87.88 24.12 86.56 24.65 84.5L24.94 83.37 25.15 84.52C25.73 87.63 28.85 89.39 30.05 89.96 29.98 89.46 29.97 88.6 30.33 87.34L30.62 86.33 30.83 87.36C31.82 92.19 34.53 93.12 37.65 94.2 38.2 94.39 38.77 94.59 39.35 94.81 42.49 96.02 45.67 98.89 46.87 100.06L46.75 98.25Z"/></g><path d="M59.89 62.82C59.89 62.82 59.95 62.55 60.13 62.1 60.31 61.65 60.59 61.02 61.03 60.31 61.47 59.6 62.06 58.81 62.82 58.07 63.2 57.7 63.62 57.34 64.08 57.02 64.54 56.69 65.04 56.4 65.57 56.15 66.09 55.9 66.65 55.71 67.21 55.57 67.77 55.44 68.33 55.36 68.88 55.35 69.42 55.33 69.95 55.38 70.44 55.46 70.68 55.51 70.92 55.54 71.14 55.61 71.36 55.68 71.57 55.74 71.77 55.81 72.17 55.96 72.53 56.1 72.82 56.27 73.12 56.43 73.38 56.56 73.58 56.71 73.98 56.98 74.2 57.15 74.2 57.15 74.2 57.15 73.92 57.1 73.46 56.99 73.24 56.93 72.94 56.9 72.63 56.83 72.32 56.76 71.95 56.74 71.57 56.68 71.18 56.65 70.77 56.62 70.33 56.63 69.89 56.63 69.44 56.67 68.98 56.73 68.75 56.76 68.52 56.82 68.29 56.86 68.06 56.92 67.83 56.98 67.59 57.04 67.13 57.19 66.66 57.35 66.22 57.57 65.32 57.98 64.48 58.54 63.72 59.12 62.96 59.7 62.29 60.33 61.72 60.88 61.16 61.44 60.7 61.93 60.38 62.28 60.08 62.62 59.89 62.82 59.89 62.82Z" fill="#68560B"/><path d="M84.11 55.67C84.11 55.67 84.12 55.54 84.18 55.33 84.24 55.12 84.35 54.83 84.54 54.5 84.74 54.19 85 53.83 85.37 53.53 85.73 53.21 86.21 52.96 86.74 52.81 87.01 52.76 87.28 52.69 87.56 52.71 87.84 52.69 88.1 52.75 88.36 52.82 88.62 52.87 88.83 53 89.03 53.11 89.24 53.21 89.39 53.36 89.53 53.5 89.67 53.64 89.8 53.75 89.87 53.89 89.96 54.02 90.02 54.14 90.08 54.23 90.18 54.42 90.22 54.54 90.22 54.54 90.22 54.54 90.09 54.52 89.88 54.47 89.78 54.44 89.66 54.42 89.53 54.37 89.4 54.32 89.24 54.32 89.09 54.28 88.94 54.25 88.78 54.2 88.61 54.2 88.44 54.19 88.28 54.15 88.12 54.17 88.04 54.17 87.95 54.17 87.87 54.17 87.79 54.17 87.7 54.2 87.62 54.2 87.45 54.21 87.29 54.26 87.12 54.3 86.95 54.34 86.78 54.4 86.61 54.46 86.44 54.54 86.27 54.59 86.1 54.67 85.76 54.81 85.44 54.99 85.14 55.13 84.83 55.29 84.58 55.42 84.4 55.51 84.23 55.61 84.11 55.67 84.11 55.67Z" fill="#68560B"/><g><path d="M35.19 84.96C35.19 84.96 35.16 84.77 35.18 84.43 35.19 84.26 35.2 84.05 35.25 83.82 35.29 83.58 35.35 83.32 35.5 83.04 35.64 82.77 35.87 82.47 36.25 82.34 36.34 82.29 36.44 82.3 36.54 82.28L36.61 82.27 36.69 82.27 36.82 82.28C37 82.29 37.24 82.37 37.41 82.47 37.78 82.67 38.05 83.01 38.24 83.37 38.43 83.74 38.54 84.14 38.57 84.56 38.58 84.77 38.57 84.98 38.51 85.21 38.49 85.32 38.43 85.43 38.38 85.54 38.33 85.62 38.28 85.7 38.22 85.79 38.01 86.11 37.82 86.37 37.83 86.66 37.82 86.94 37.97 87.23 38.14 87.48 38.33 87.72 38.54 87.94 38.75 88.13 39.17 88.5 39.55 88.8 39.82 88.99 40.09 89.19 40.24 89.31 40.24 89.31 40.24 89.31 40.06 89.23 39.76 89.08 39.61 89.01 39.43 88.91 39.22 88.79 39.01 88.68 38.79 88.53 38.55 88.36 38.31 88.18 38.07 87.98 37.83 87.72 37.61 87.45 37.38 87.11 37.36 86.66 37.34 86.21 37.59 85.82 37.79 85.52 37.84 85.45 37.89 85.37 37.93 85.29 37.95 85.23 37.99 85.17 38 85.09 38.04 84.94 38.04 84.77 38.03 84.6 38.01 84.26 37.92 83.91 37.77 83.6 37.62 83.3 37.42 83.02 37.16 82.86 37.02 82.78 36.92 82.73 36.76 82.7L36.63 82.68C36.62 82.68 36.57 82.67 36.59 82.67L36.54 82.67C36.47 82.68 36.4 82.67 36.34 82.7 36.08 82.76 35.88 82.96 35.73 83.18 35.44 83.63 35.33 84.11 35.26 84.43 35.21 84.76 35.19 84.96 35.19 84.96Z" fill="#1D1D1B"/><path d="M37.61 86.52C37.61 86.52 37.52 86.71 37.39 86.95 37.26 87.2 37.09 87.51 36.98 87.83 36.95 87.91 36.92 87.99 36.9 88.07 36.88 88.15 36.85 88.23 36.84 88.31 36.8 88.46 36.79 88.61 36.78 88.75 36.76 89.02 36.77 89.23 36.76 89.23 36.77 89.22 36.59 89.1 36.48 88.8 36.44 88.73 36.42 88.65 36.41 88.55 36.39 88.46 36.38 88.37 36.38 88.27 36.37 88.07 36.43 87.86 36.49 87.66 36.57 87.47 36.67 87.28 36.79 87.13 36.91 86.98 37.04 86.86 37.16 86.76 37.41 86.58 37.61 86.52 37.61 86.52Z" fill="#1D1D1B"/></g><g><g><g><g><path d="M75.36 67.6C75.66 71.79 73.41 75.52 70.32 75.93 67.23 76.34 64.48 73.29 64.18 69.1 63.88 64.91 66.13 61.18 69.22 60.77 72.31 60.36 75.06 63.42 75.36 67.6Z" fill="#FFF9DF"/><path d="M69.76 76.2C66.74 76.2 64.24 73.16 63.95 69.12 63.64 64.82 65.98 60.97 69.18 60.54 69.38 60.51 69.57 60.5 69.77 60.5 72.79 60.5 75.29 63.55 75.58 67.58 75.89 71.88 73.55 75.73 70.35 76.15 70.16 76.19 69.96 76.2 69.76 76.2ZM69.78 60.96C69.61 60.96 69.43 60.97 69.25 61 66.29 61.4 64.11 65.03 64.41 69.09 64.69 72.89 66.99 75.75 69.77 75.75 69.95 75.75 70.12 75.74 70.3 75.71 73.27 75.31 75.44 71.68 75.14 67.62 74.86 63.82 72.56 60.96 69.78 60.96Z" fill="#1D1D1B"/></g><g><path d="M75 66.65C75.11 69.66 73.41 72.16 71.2 72.24 68.99 72.32 67.1 69.94 66.99 66.93 66.88 63.92 68.58 61.42 70.79 61.34 73 61.26 74.89 63.64 75 66.65Z" fill="#3E1B00"/><path d="M75 66.65C75.11 69.66 73.57 72.16 71.55 72.23 69.53 72.3 67.81 69.92 67.69 66.91 67.58 63.9 69.12 61.4 71.13 61.33 73.16 61.26 74.89 63.64 75 66.65Z" fill="#2ED3FF"/><path d="M71.14 61.33C69.7 61.38 68.51 62.67 67.98 64.5 68.88 61.69 71.66 61.15 73.39 63.2 75.13 65.26 74.05 67.57 73.85 66.67 73.65 65.77 73.32 63.5 71.09 63.73 68.86 63.96 68.66 67.6 68.66 67.6 68.47 68.47 67.83 68.06 67.69 66.85 67.69 66.86 67.69 66.88 67.69 66.89 67.8 69.9 69.53 72.28 71.55 72.21 73.57 72.14 75.11 69.64 75 66.63 74.89 63.64 73.16 61.26 71.14 61.33Z" fill="#2E81FF"/><path d="M74.27 66.59C74.33 68.34 73.42 69.8 72.22 69.84 71.02 69.88 70 68.5 69.93 66.74 69.86 64.99 70.78 63.54 71.98 63.49 73.18 63.45 74.2 64.84 74.27 66.59Z" fill="#2E364C"/><path d="M73.97 63.82C74.22 64.91 73.84 65.91 73.14 66.05 72.44 66.19 71.67 65.42 71.43 64.33 71.19 63.24 71.56 62.24 72.26 62.1 72.96 61.96 73.73 62.73 73.97 63.82Z" fill="#FFFFFF"/></g></g></g><path d="M69.22 60.77C69.22 60.77 69.35 60.72 69.6 60.67 69.84 60.63 70.2 60.57 70.63 60.58 70.84 60.58 71.08 60.6 71.32 60.64 71.56 60.69 71.82 60.73 72.08 60.82 72.34 60.9 72.6 61 72.86 61.14 73.12 61.26 73.35 61.44 73.6 61.6 73.83 61.78 74.04 61.98 74.25 62.18 74.43 62.4 74.61 62.61 74.77 62.83 74.91 63.06 75.05 63.28 75.17 63.5 75.28 63.72 75.36 63.94 75.44 64.13 75.53 64.33 75.59 64.51 75.62 64.68 75.66 64.85 75.7 64.99 75.73 65.11 75.79 65.35 75.81 65.49 75.81 65.49 75.81 65.49 75.74 65.37 75.63 65.15 75.58 65.04 75.51 64.91 75.44 64.76 75.37 64.61 75.27 64.44 75.16 64.27 75.05 64.1 74.95 63.9 74.82 63.7 74.68 63.51 74.53 63.32 74.39 63.11 74.23 62.92 74.04 62.74 73.87 62.54 73.67 62.37 73.48 62.18 73.27 62.02 73.05 61.87 72.85 61.7 72.61 61.59 72.49 61.53 72.38 61.47 72.27 61.41 72.15 61.36 72.03 61.31 71.92 61.26 71.69 61.16 71.46 61.1 71.23 61.03 71 60.98 70.79 60.92 70.59 60.89 70.19 60.82 69.84 60.79 69.6 60.78 69.36 60.76 69.22 60.77 69.22 60.77Z" fill="#1D1D1B"/></g><g><g><g><g><path d="M92.16 63.78C93.1 67.07 92.24 70.37 90.25 71.15 88.25 71.94 85.87 69.91 84.93 66.63 83.99 63.34 84.84 60.04 86.84 59.25 88.83 58.47 91.22 60.49 92.16 63.78Z" fill="#FFF9DF"/><path d="M89.35 71.5C87.46 71.5 85.57 69.52 84.76 66.68 83.8 63.32 84.7 59.92 86.77 59.1 87.08 58.98 87.4 58.92 87.73 58.92 89.62 58.92 91.51 60.9 92.32 63.74 93.28 67.1 92.38 70.5 90.31 71.32 90 71.43 89.68 71.5 89.35 71.5ZM87.73 59.26C87.44 59.26 87.16 59.31 86.9 59.42 84.98 60.17 84.17 63.39 85.09 66.59 85.85 69.24 87.64 71.16 89.35 71.16 89.64 71.16 89.92 71.11 90.18 71 92.1 70.25 92.91 67.03 91.99 63.83 91.22 61.14 89.47 59.26 87.73 59.26Z" fill="#1D1D1B"/></g><g><path d="M91.75 63.08C92.36 65.46 91.66 67.7 90.19 68.09 88.72 68.48 87.04 66.87 86.43 64.49 85.82 62.11 86.52 59.87 88 59.48 89.46 59.09 91.14 60.7 91.75 63.08Z" fill="#3E1B00"/><path d="M91.75 63.08C92.36 65.46 91.76 67.67 90.42 68.03 89.08 68.39 87.5 66.74 86.9 64.37 86.29 61.99 86.89 59.78 88.23 59.42 89.57 59.06 91.14 60.7 91.75 63.08Z" fill="#2ED3FF"/><path d="M88.22 59.42C87.26 59.67 86.69 60.88 86.66 62.41 86.77 60.04 88.54 59.2 90.06 60.57 91.59 61.95 91.27 63.95 90.98 63.26 90.69 62.57 90.06 60.82 88.61 61.34 87.15 61.85 87.67 64.78 87.67 64.78 87.7 65.5 87.19 65.27 86.89 64.33 86.89 64.34 86.89 64.35 86.9 64.36 87.51 66.74 89.08 68.38 90.42 68.02 91.76 67.66 92.36 65.45 91.75 63.07 91.14 60.7 89.57 59.06 88.22 59.42Z" fill="#2E81FF"/><path d="M91.25 63.14C91.6 64.52 91.24 65.82 90.45 66.03 89.65 66.24 88.72 65.29 88.37 63.91 88.02 62.53 88.38 61.24 89.17 61.02 89.96 60.8 90.89 61.75 91.25 63.14Z" fill="#2E364C"/><path d="M90.56 60.98C90.92 61.81 90.84 62.66 90.4 62.88 89.95 63.1 89.3 62.6 88.95 61.77 88.6 60.94 88.67 60.09 89.12 59.87 89.56 59.65 90.2 60.15 90.56 60.98Z" fill="#FFFFFF"/></g></g></g><path d="M86.83 59.26C86.83 59.26 87.18 59.01 87.81 58.91 87.97 58.88 88.14 58.87 88.32 58.87 88.51 58.87 88.7 58.88 88.9 58.93 89.1 58.96 89.3 59.03 89.5 59.1 89.69 59.19 89.89 59.27 90.07 59.39 90.24 59.52 90.43 59.62 90.58 59.77 90.74 59.91 90.89 60.05 91.01 60.21 91.14 60.36 91.26 60.51 91.36 60.66 91.45 60.81 91.54 60.96 91.63 61.09 91.8 61.36 91.87 61.61 91.95 61.77 92.02 61.94 92.06 62.03 92.06 62.03 92.06 62.03 91.99 61.95 91.89 61.8 91.78 61.66 91.65 61.44 91.45 61.21 91.35 61.09 91.25 60.96 91.14 60.83 91.03 60.7 90.89 60.58 90.77 60.44 90.65 60.3 90.49 60.19 90.34 60.06 90.2 59.92 90.02 59.83 89.87 59.72 89.71 59.61 89.53 59.53 89.36 59.44 89.18 59.38 89.01 59.29 88.83 59.26 88.65 59.21 88.48 59.18 88.31 59.16 88.14 59.14 87.98 59.13 87.83 59.13 87.53 59.13 87.28 59.17 87.1 59.2 86.93 59.23 86.83 59.26 86.83 59.26Z" fill="#1D1D1B"/></g><path d="M61.36 76.36C61.36 76.36 61.5 76.27 61.76 76.14 62.02 76.01 62.4 75.83 62.88 75.66 63.12 75.58 63.38 75.49 63.66 75.43 63.94 75.36 64.24 75.28 64.56 75.25 64.87 75.2 65.2 75.17 65.54 75.16 65.87 75.14 66.22 75.18 66.56 75.19 66.9 75.26 67.24 75.29 67.56 75.4 67.88 75.5 68.21 75.6 68.49 75.76 68.63 75.83 68.77 75.91 68.91 75.98 69.04 76.06 69.16 76.16 69.28 76.25 69.4 76.34 69.51 76.43 69.62 76.51 69.73 76.59 69.81 76.71 69.9 76.8 70.07 76.99 70.23 77.16 70.35 77.33 70.46 77.51 70.55 77.66 70.63 77.79 70.78 78.04 70.86 78.19 70.86 78.19 70.86 78.19 70.74 78.07 70.55 77.85 70.46 77.74 70.34 77.61 70.21 77.46 70.07 77.32 69.88 77.19 69.7 77.03 69.53 76.86 69.3 76.73 69.07 76.58 68.95 76.51 68.84 76.43 68.71 76.36 68.58 76.3 68.44 76.24 68.31 76.18 68.05 76.04 67.74 75.98 67.44 75.89 67.14 75.79 66.82 75.78 66.51 75.72 66.19 75.71 65.87 75.66 65.56 75.67 65.24 75.68 64.93 75.67 64.63 75.71 64.02 75.76 63.46 75.87 62.98 75.96 62.74 76.02 62.52 76.06 62.32 76.11 62.12 76.16 61.95 76.2 61.82 76.25 61.52 76.31 61.36 76.36 61.36 76.36Z" fill="#1D1D1B"/><path d="M89.26 73.27C89.26 73.27 89.28 72.88 89.5 72.35 89.61 72.09 89.76 71.78 89.99 71.49 90.1 71.34 90.24 71.21 90.37 71.07 90.53 70.95 90.67 70.81 90.85 70.72L91.12 70.58 91.41 70.48C91.59 70.4 91.79 70.4 91.98 70.37 92.17 70.33 92.35 70.37 92.52 70.38 92.69 70.38 92.84 70.44 92.98 70.47 93.12 70.51 93.25 70.54 93.35 70.6 93.45 70.65 93.55 70.7 93.62 70.73 93.77 70.81 93.85 70.86 93.85 70.86 93.85 70.86 93.76 70.85 93.59 70.83 93.51 70.82 93.41 70.81 93.3 70.79 93.19 70.77 93.06 70.78 92.93 70.77 92.8 70.77 92.65 70.74 92.5 70.77 92.35 70.79 92.19 70.78 92.04 70.83 91.89 70.87 91.72 70.9 91.57 70.97L91.34 71.06 91.12 71.19C90.96 71.26 90.84 71.38 90.7 71.47 90.58 71.59 90.44 71.68 90.33 71.81 90.22 71.93 90.11 72.05 90.01 72.17 89.91 72.29 89.83 72.41 89.75 72.52 89.45 72.94 89.26 73.27 89.26 73.27Z" fill="#1D1D1B"/><g><path d="M69.96 94.2C69.96 94.2 70.21 94.1 70.52 93.91 70.68 93.82 70.85 93.7 71.02 93.56 71.11 93.49 71.18 93.41 71.26 93.33 71.35 93.26 71.41 93.16 71.49 93.08 71.56 92.99 71.63 92.9 71.69 92.8 71.74 92.7 71.81 92.61 71.87 92.51 71.91 92.41 71.97 92.32 72.02 92.22 72.06 92.12 72.1 92.03 72.14 91.95 72.22 91.78 72.27 91.63 72.32 91.53 72.37 91.43 72.4 91.36 72.4 91.36 72.4 91.36 72.41 91.42 72.42 91.54 72.43 91.66 72.46 91.82 72.43 92.02 72.42 92.22 72.37 92.45 72.29 92.69 72.24 92.81 72.19 92.93 72.13 93.05 72.06 93.17 71.98 93.28 71.9 93.39 71.8 93.49 71.72 93.6 71.61 93.68 71.51 93.77 71.4 93.85 71.28 93.91 71.17 93.98 71.05 94.02 70.95 94.07 70.84 94.11 70.73 94.14 70.63 94.16 70.23 94.27 69.96 94.2 69.96 94.2Z" fill="#1D1D1B"/><path d="M71.58 93.39C71.58 93.39 71.75 93.53 72.08 93.75 72.4 93.97 72.87 94.26 73.46 94.56 73.75 94.72 74.08 94.85 74.42 95.01 74.78 95.13 75.14 95.29 75.53 95.4 75.73 95.46 75.93 95.52 76.13 95.58 76.34 95.62 76.54 95.67 76.75 95.72 77.17 95.83 77.6 95.86 78.03 95.92 78.46 95.98 78.9 95.97 79.33 96 79.76 95.98 80.18 95.97 80.59 95.96 81 95.91 81.39 95.86 81.76 95.82 82.14 95.78 82.48 95.67 82.8 95.61 83.12 95.53 83.42 95.49 83.68 95.4 83.94 95.32 84.16 95.26 84.35 95.2 84.73 95.09 84.94 95.03 84.94 95.03 84.94 95.03 84.74 95.12 84.39 95.29 84.21 95.37 83.99 95.47 83.75 95.58 83.5 95.71 83.21 95.79 82.89 95.89 82.57 95.98 82.22 96.12 81.84 96.19 81.46 96.26 81.06 96.35 80.64 96.42 80.22 96.45 79.78 96.5 79.33 96.51 78.88 96.49 78.43 96.5 77.98 96.44 77.53 96.37 77.08 96.33 76.65 96.21 76.43 96.16 76.22 96.11 76.01 96.05 75.8 95.98 75.6 95.91 75.4 95.84 74.99 95.72 74.63 95.52 74.28 95.36 73.94 95.17 73.61 95.01 73.33 94.82 73.04 94.65 72.79 94.46 72.57 94.29 72.35 94.12 72.17 93.97 72.03 93.84 71.72 93.56 71.58 93.39 71.58 93.39Z" fill="#1D1D1B"/></g><path d="M74.03 58.51C74.03 58.51 73.54 58.31 72.79 58.13 72.61 58.08 72.4 58.05 72.19 58 71.97 57.97 71.75 57.92 71.52 57.9 71.29 57.87 71.05 57.86 70.8 57.84 70.56 57.82 70.31 57.84 70.06 57.84 69.81 57.84 69.56 57.88 69.32 57.89 69.08 57.93 68.84 57.96 68.61 57.99 68.38 58.04 68.15 58.09 67.94 58.13 67.73 58.17 67.53 58.25 67.35 58.29 67.17 58.35 66.99 58.38 66.84 58.44 66.69 58.49 66.56 58.53 66.45 58.57 66.23 58.64 66.1 58.67 66.1 58.67 66.1 58.67 66.2 58.59 66.39 58.45 66.58 58.32 66.84 58.1 67.2 57.93 67.38 57.84 67.57 57.72 67.78 57.65 68 57.57 68.22 57.48 68.47 57.4 68.72 57.34 68.97 57.27 69.23 57.23 69.5 57.21 69.77 57.16 70.04 57.15 70.31 57.15 70.58 57.14 70.85 57.18 71.12 57.19 71.38 57.25 71.62 57.3 71.87 57.34 72.1 57.43 72.32 57.5 72.54 57.59 72.74 57.66 72.92 57.76 73.66 58.11 74.03 58.51 74.03 58.51Z" fill="#FFF9DF"/><path d="M85.41 56.41C85.41 56.41 85.59 56.14 85.97 55.85 86.16 55.71 86.39 55.55 86.67 55.44 86.94 55.31 87.25 55.22 87.57 55.16 87.73 55.15 87.89 55.12 88.06 55.12 88.22 55.12 88.38 55.13 88.53 55.15 88.68 55.17 88.83 55.2 88.96 55.25 89.09 55.29 89.22 55.33 89.32 55.4 89.54 55.51 89.7 55.64 89.79 55.74 89.89 55.84 89.94 55.89 89.94 55.89 89.94 55.89 89.86 55.88 89.72 55.86 89.65 55.85 89.57 55.83 89.49 55.81 89.4 55.8 89.3 55.79 89.19 55.77 89.09 55.75 88.97 55.76 88.85 55.74 88.73 55.73 88.6 55.74 88.47 55.74 88.34 55.73 88.21 55.76 88.07 55.76 87.94 55.76 87.8 55.8 87.66 55.82 87.11 55.9 86.56 56.07 86.13 56.19 85.72 56.33 85.41 56.41 85.41 56.41Z" fill="#FFF9DF"/><path d="M84.88 54.85C84.88 54.85 86.74 53.81 88.22 53.89 89.71 53.96 87.18 51.58 84.88 54.85Z" fill="#68560B"/><path d="M71.53 56.36C71.53 56.36 66.53 55.5 63.43 58.95 64.2 56.53 68.34 54.72 71.53 56.36Z" fill="#68560B"/><path d="M82.39 69.98C82.39 69.98 83.68 74.72 86.96 75.15 89.2 75.67 88.94 77.48 85.06 79.63 87.56 77.73 88.33 76.53 86.27 75.75 84.2 74.98 82.91 74.29 82.39 69.98Z" fill="#EFBA82"/><path d="M82.67 71.13C82.93 71.65 83.23 72.16 83.58 72.62 83.75 72.85 83.93 73.08 84.12 73.29 84.22 73.39 84.31 73.51 84.41 73.6L84.72 73.89 85.05 74.15C85.16 74.24 85.28 74.31 85.4 74.38 85.52 74.46 85.64 74.53 85.76 74.59 85.89 74.65 86.01 74.72 86.14 74.76L86.53 74.89C86.66 74.93 86.8 74.95 86.93 74.98 87.06 75.01 87.2 75.03 87.34 75.03L87.75 75.05 87.77 75.05C87.95 75.08 88.13 75.08 88.31 75.19 88.4 75.23 88.49 75.27 88.56 75.35 88.63 75.42 88.72 75.48 88.76 75.58 88.88 75.75 88.91 75.94 88.94 76.13 88.93 76.31 88.93 76.49 88.87 76.66 88.83 76.83 88.76 76.98 88.68 77.13 88.62 77.28 88.51 77.41 88.43 77.55 88.34 77.68 88.23 77.8 88.13 77.92 88.03 78.05 87.9 78.14 87.79 78.25 87.68 78.36 87.55 78.45 87.43 78.55 87.3 78.64 87.18 78.74 87.05 78.82L86.66 79.07 86.25 79.28C85.98 79.43 85.68 79.52 85.4 79.64 85.11 79.75 84.81 79.82 84.52 79.9L84.93 79.7C85.07 79.63 85.21 79.58 85.34 79.51 85.6 79.36 85.88 79.23 86.12 79.06L86.5 78.82 86.86 78.55C86.98 78.47 87.09 78.36 87.2 78.26 87.31 78.16 87.42 78.07 87.52 77.96 87.62 77.85 87.73 77.75 87.81 77.63 87.89 77.51 87.99 77.41 88.07 77.28 88.14 77.16 88.23 77.04 88.27 76.91 88.32 76.78 88.38 76.66 88.4 76.53 88.45 76.4 88.44 76.28 88.45 76.15 88.43 76.04 88.41 75.92 88.35 75.84 88.34 75.79 88.28 75.77 88.25 75.73 88.22 75.69 88.17 75.67 88.11 75.65 88.02 75.59 87.88 75.6 87.77 75.56L87.79 75.56 87.33 75.54C87.17 75.54 87.02 75.52 86.87 75.48 86.72 75.44 86.56 75.42 86.42 75.38L85.98 75.22C85.83 75.17 85.71 75.08 85.57 75.01 85.43 74.94 85.3 74.86 85.18 74.77 85.06 74.68 84.92 74.6 84.81 74.49L84.48 74.18 84.17 73.85C84.07 73.74 83.98 73.62 83.89 73.5 83.71 73.26 83.54 73.02 83.39 72.76 83.24 72.5 83.11 72.24 82.99 71.97 82.85 71.69 82.75 71.42 82.67 71.13Z" fill="#1D1D1B"/><path d="M83.08 72.48C83.08 72.48 83.31 72.73 83.65 73.09 83.82 73.27 84.01 73.48 84.22 73.69 84.43 73.9 84.66 74.13 84.9 74.33 85.13 74.55 85.39 74.72 85.63 74.89 85.76 74.97 85.88 75.03 86 75.1 86.12 75.16 86.24 75.21 86.35 75.26 86.46 75.29 86.57 75.33 86.66 75.37 86.75 75.41 86.84 75.41 86.91 75.43 87.05 75.46 87.14 75.48 87.14 75.48 87.14 75.48 87.06 75.5 86.91 75.53 86.84 75.54 86.74 75.57 86.64 75.56 86.53 75.56 86.41 75.56 86.28 75.54 86.02 75.5 85.72 75.42 85.42 75.28 85.28 75.2 85.12 75.13 84.98 75.03 84.85 74.93 84.69 74.83 84.57 74.71 84.31 74.48 84.07 74.23 83.88 73.97 83.68 73.72 83.53 73.46 83.41 73.24 83.16 72.81 83.08 72.48 83.08 72.48Z" fill="#FFF9DF"/><path d="M88.08 75.75C88.08 75.75 88.15 75.79 88.23 75.9 88.27 75.96 88.31 76.04 88.33 76.13 88.36 76.23 88.37 76.34 88.37 76.46 88.37 76.58 88.34 76.72 88.3 76.85 88.26 76.98 88.2 77.12 88.13 77.25 88.05 77.37 87.98 77.52 87.88 77.63 87.78 77.75 87.69 77.87 87.58 77.98 87.37 78.2 87.14 78.4 86.91 78.57 86.68 78.73 86.45 78.87 86.26 78.98 85.86 79.19 85.57 79.28 85.57 79.28 85.57 79.28 85.76 79.04 86.08 78.74 86.23 78.58 86.42 78.41 86.61 78.22 86.8 78.03 87.01 77.84 87.2 77.63 87.4 77.43 87.58 77.22 87.73 77.02 87.8 76.91 87.87 76.82 87.93 76.72 87.99 76.62 88.03 76.52 88.06 76.43 88.12 76.24 88.14 76.07 88.12 75.95 88.12 75.82 88.08 75.75 88.08 75.75Z" fill="#FFF9DF"/><path d="M61.32 77.74C61.32 77.74 61.44 77.64 61.67 77.51 61.9 77.37 62.24 77.2 62.68 77.05 62.9 76.97 63.14 76.9 63.4 76.84 63.66 76.78 63.94 76.74 64.23 76.71 64.52 76.71 64.83 76.67 65.14 76.71 65.29 76.72 65.45 76.74 65.61 76.75L66.07 76.84C66.38 76.89 66.67 77.02 66.97 77.11 67.26 77.21 67.52 77.38 67.79 77.51 68.05 77.65 68.27 77.84 68.49 77.99 68.72 78.13 68.88 78.34 69.05 78.49 69.21 78.65 69.37 78.79 69.48 78.95 69.59 79.1 69.69 79.23 69.77 79.34 69.92 79.56 70 79.68 70 79.68 70 79.68 69.88 79.59 69.66 79.43 69.56 79.35 69.44 79.25 69.29 79.14 69.16 79.02 68.97 78.92 68.8 78.79 68.61 78.67 68.43 78.51 68.21 78.41 67.99 78.3 67.76 78.16 67.52 78.04 67.27 77.94 67.02 77.82 66.76 77.73 66.49 77.65 66.23 77.54 65.94 77.5L65.52 77.41C65.38 77.39 65.24 77.38 65.1 77.36 64.82 77.32 64.54 77.32 64.27 77.31 64 77.32 63.74 77.31 63.49 77.34 63.24 77.36 63 77.38 62.79 77.42 62.35 77.48 61.99 77.56 61.74 77.63 61.46 77.69 61.32 77.74 61.32 77.74Z" fill="#FFF9DF"/><path d="M90.28 73.99C90.28 73.99 90.24 73.91 90.19 73.76 90.15 73.61 90.1 73.39 90.12 73.11 90.12 72.97 90.15 72.82 90.18 72.67 90.23 72.52 90.28 72.35 90.38 72.19 90.46 72.03 90.58 71.88 90.71 71.74 90.85 71.62 91 71.48 91.17 71.39 91.34 71.3 91.51 71.21 91.69 71.16 91.86 71.1 92.04 71.06 92.21 71.05 92.38 71.03 92.54 71 92.7 71.02 92.85 71.02 93 71.04 93.13 71.05 93.26 71.05 93.38 71.09 93.48 71.12 93.58 71.14 93.67 71.17 93.75 71.2 93.89 71.24 93.98 71.28 93.98 71.28 93.98 71.28 93.89 71.31 93.74 71.34 93.67 71.36 93.58 71.38 93.47 71.39 93.37 71.41 93.26 71.42 93.13 71.45 93.01 71.48 92.88 71.51 92.75 71.53 92.61 71.55 92.48 71.61 92.34 71.64 92.19 71.67 92.06 71.73 91.92 71.79 91.78 71.83 91.65 71.91 91.53 71.98 91.4 72.04 91.3 72.14 91.18 72.22 91.09 72.32 90.97 72.41 90.9 72.52 90.73 72.73 90.61 72.97 90.52 73.19 90.43 73.41 90.38 73.61 90.34 73.76 90.29 73.9 90.28 73.99 90.28 73.99Z" fill="#FFF9DF"/><g opacity="0.7"><path d="M91.44 29.21C96.44 30.24 98.16 35.59 98.16 35.59 98.16 35.59 95.92 34.21 91.78 33.01 95.57 37.66 95.06 42.49 95.06 42.49 95.06 42.49 91.61 36.97 88.34 35.77 90.75 40.6 91.44 45.94 91.44 45.94 91.44 45.94 86.1 41.28 85.23 37.49 85.4 41.46 85.75 42.83 85.75 42.83 85.75 42.83 83.16 38.52 82.47 35.76 81.95 39.72 81.78 42.14 81.78 42.14 81.78 42.14 77.47 38.69 78.16 34.38 75.4 40.41 72.3 45.07 72.3 45.07 72.47 40.07 72.47 40.07 72.47 40.07L69.54 43.86 67.82 39.55C67.82 39.55 65.92 44.03 64.2 45.58 62.48 41.27 60.24 39.37 60.24 39.37 60.24 39.37 60.58 46.44 58.17 50.23 55.93 44.37 55.07 43.68 55.07 43.68 55.07 43.68 54.55 49.02 53.86 51.78 52.48 49.02 51.27 46.61 51.27 46.61 51.27 46.61 49.72 52.82 49.55 57.64 45.93 52.64 45.76 51.61 45.76 51.61 45.76 51.61 44.73 57.13 44.9 62.64 41.11 57.47 41.11 57.47 41.11 57.47 41.11 57.47 37.83 68.33 39.9 76.95 39.9 76.95 38.18 76.6 35.59 72.12 33 67.64 33.18 71.95 34.04 73.67 31.63 75.39 29.33 77.62 29.21 81.25 29.08 85.23 25.28 84.76 25.6 77.02 21.18 81.92 22.6 85.39 22.6 85.39 22.6 85.39 16.12 79.07 21.49 69.12 21.49 69.12 17.54 70.86 16.59 73.86 15.64 76.86 14.38 71.49 18.33 65.64 14.22 69.43 12.96 70.22 12.96 70.22 12.96 70.22 9.8 56.18 19.59 50.97 17.22 56.5 19.12 60.92 19.12 60.92 19.12 60.92 18.65 51.6 26.23 49.86 22.28 44.65 27.81 37.38 35.87 36.9 28.92 33.27 22.91 40.85 22.91 40.85 22.91 40.85 29.54 25.37 50.08 21.57 69.41 18.01 73.07 17.8 73.04 9.5 73.02 9.42 73 9.35 72.97 9.27 72.22 17.8 65.64 16.16 48.87 19.6 24.02 26.93 21.63 38.91 21.63 38.91 21.63 38.91 20.73 35.92 20.88 33.37 18.04 37.71 18.34 45.04 18.34 45.04 16.54 44.59 15.35 41.15 15.35 41.15 15.35 41.15 15.5 44.44 16.85 46.84 11.46 47.14 11.61 50.73 11.61 50.73 11.61 50.73 13.26 48.48 16.25 49.08 4.42 62.25 12.81 78.42 12.81 78.42 12.81 78.42 12.66 77.67 14.16 73.78 13.56 78.27 15.66 80.07 15.66 80.07 15.66 80.07 15.66 80.07 17.01 77.08 17.91 85.16 25.54 89.65 25.54 89.65 25.54 89.65 23.89 88.6 24.94 84.56 25.69 88.6 30.48 90.4 30.48 90.4 30.48 90.4 30.03 89.5 30.63 87.41 31.83 93.25 35.42 93.55 39.31 95.04 43.2 96.53 47.24 100.73 47.24 100.73 47.24 100.73 47.24 100.73 47.09 98.93 48.74 100.58 50.53 101.77 50.53 101.77 50.53 101.77 50.53 101.76 49.83 100.03 48.68 98.21 46.84 95.97 44.04 94.19 47.32 93.5 47.14 91.78 47.14 91.78 47.14 91.78 38 95.75 33.86 89.72 29.72 83.69 32.14 78.69 34.9 78.51 37.66 78.34 41.97 86.61 44.55 87.13 40.41 79.03 40.76 66.44 42.31 63 44.72 69.03 45.59 69.72 45.59 69.72 45.59 69.72 46.8 63.17 46.63 58.51 49.22 62.99 50.08 62.82 50.08 62.82 50.08 62.82 51.12 55.75 51.46 54.03 52.32 60.93 52.67 59.89 52.67 59.89L52.67 54.03 54.39 57.13C54.39 57.13 55.08 52.47 55.08 50.41 56.29 53.69 55.77 55.75 55.77 55.75 55.77 55.75 61.11 50.58 61.46 44.54 62.84 46.95 62.67 49.88 62.67 49.88 62.67 49.88 65.95 46.78 66.81 44.88 66.81 48.33 66.29 49.02 66.29 49.02 66.29 49.02 69.22 47.64 70.08 45.57 70.08 46.6 69.56 48.84 69.56 48.84 69.56 48.84 76.8 43.32 77.84 40.05 79.56 45.57 83.87 45.91 83.87 45.91L83.51 43 85.92 46.96 86.44 43.51C86.44 43.51 86.63 43.75 86.95 44.19 87.54 44.63 92.13 48.13 92.13 51.63 94.23 48.19 91.68 40.7 91.68 40.7 91.68 40.7 95.12 44.29 94.67 47.44 99.16 41.75 95.42 35.61 95.42 35.61 95.42 35.61 99.46 37.56 100.06 39.65 100.81 30.37 96.32 29.17 96.32 29.17 96.32 29.17 100.36 26.92 104.1 28.87 103.96 28.62 103.8 28.39 103.62 28.17 101.12 26.95 97.03 26.22 91.44 29.21Z" fill="#BF9B02"/></g><path d="M39.32 53.52C39.32 53.52 36.42 62.5 37.73 69.75 38.89 75.55 34.11 67.87 33.82 64.39 33.53 60.91 31.5 69.03 31.79 71.78 32.08 74.53 28.46 73.66 27.73 77.58 27.01 81.49 25.27 74.25 27.29 71.06 29.32 67.87 22.51 74.1 22.08 78.31 21.64 82.51 20.34 73.09 23.82 68.6 27.3 64.11 20.49 66.86 19.18 69.04 17.88 71.21 19.3 55.77 28.22 51.51 25.18 44.56 31.93 37.89 44.1 37.31 50.04 36.59 46.56 34.7 39.17 34.12 31.78 33.54 35.11 25.57 50.76 24.41 66.41 23.25 68 20.64 70.32 18.33 70.46 20.5 69.3 22.68 69.3 22.68 69.3 22.68 75.39 15.44 80.89 14.86 80.89 14.86 79.01 16.74 78.57 19.5 81.76 17.04 85.09 16.75 88.71 16.89 88.71 16.89 87.12 18.34 86.25 20.8 89.73 19.64 96.1 23.41 96.1 23.41 96.1 23.41 89.14 28.19 86.97 29.06 92.33 30.36 93.93 32.25 93.93 32.25 93.93 32.25 89.58 32.25 88.28 31.82 86.98 31.39 90.89 34.43 92.05 37.04 93.21 39.65 88.72 35.88 86.98 34.14 85.24 32.4 87.27 35.88 88.14 39.07 89.09 42.07 85.7 36.73 84.4 33.86 83.1 30.99 85.7 40.38 83.62 36.34 81.53 32.3 80.88 33.86 81.01 38.04 78.79 36.08 78.79 31.26 78.79 31.26 78.79 31.26 76.05 36.21 74.36 39.21 73.84 35.69 73.84 34.78 73.84 34.78L70.45 40.52 67.71 36.35 64.71 42.48C64.71 42.48 63.01 37.26 59.36 37 59.23 42.61 58.45 46.13 58.45 46.13L54.28 40.92C54.28 40.92 53.89 45.22 53.24 47.57 51.42 43.79 50.37 42.75 50.37 42.75L49.33 53.05 46.07 48.62 43.59 56.7C43.59 56.63 40.26 55.49 39.32 53.52Z" fill="#DEB300" opacity="0.5"/></g><g><g><path d="M122.35 92.41 97.27 76.5C94.35 74.62 88.87 77.95 85.03 83.93 81.53 89.38 80.61 95.14 82.68 97.54L82.67 97.55 82.71 97.57C82.9 97.79 83.12 97.99 83.36 98.15 83.62 98.32 83.9 98.44 84.21 98.53L108.45 114.05 122.35 92.41Z" stroke="#1D1D1B" stroke-width="0.6234" stroke-miterlimit="10" fill="#CEBFB6"/><path d="M108.52 114.42 108.3 114.28 84.1 98.78C83.78 98.69 83.49 98.55 83.22 98.38 82.99 98.23 82.77 98.04 82.54 97.78L82.35 97.65 82.38 97.58C80.32 94.97 81.33 89.22 84.82 83.79 87.92 78.96 92.17 75.72 95.38 75.72 96.15 75.72 96.84 75.91 97.42 76.28L122.72 92.32 108.52 114.42ZM82.92 97.43C83.12 97.65 83.31 97.82 83.5 97.94 83.73 98.09 83.99 98.21 84.28 98.29L84.35 98.32 108.37 113.7 122 92.49 97.13 76.72C96.63 76.4 96.04 76.24 95.37 76.24 92.37 76.24 88.21 79.46 85.25 84.08 81.88 89.32 80.86 95.04 82.88 97.38L82.92 97.43Z" fill="#878787"/></g><g><path d="M97.27 76.5C94.35 74.62 88.87 77.95 85.03 83.93 81.53 89.38 80.61 95.14 82.68 97.54L82.67 97.55 82.71 97.57C82.9 97.79 83.12 97.99 83.36 98.15 83.62 98.32 83.9 98.44 84.21 98.53L108.45 114.05 122.36 92.4 97.27 76.5ZM111.09 92.81C108.77 94.15 106.58 97.2 104.87 101.11 103.16 105.01 83.42 95.58 86.82 88.18 90.23 80.74 94.5 79.03 98.53 79.03 98.53 79.03 107.07 84.03 111.71 87.08 116.34 90.13 113.41 91.47 111.09 92.81Z" fill="#CEBFB6"/></g><g><path d="M111.83 85.74C112.04 86 112.3 86.24 112.64 86.45 116.61 88.86 118.5 90.41 114.36 92.66 104.19 99.04 104.88 109.21 104.88 109.21 104.88 109.21 99.54 106.28 92.81 101.97 86.09 97.66 82.98 95.94 84.71 89.04 89.36 78.01 96.43 77.15 96.43 77.15L103.32 80.6 103.53 80.5 97.26 76.53C94.34 74.65 88.86 77.98 85.02 83.96 81.52 89.41 80.6 95.17 82.67 97.57L82.66 97.58 82.7 97.6C82.89 97.82 83.11 98.02 83.35 98.18 83.61 98.35 83.89 98.47 84.2 98.56L108.44 114.08 122.35 92.43 111.83 85.74Z" fill="#B2B2B2"/></g><g><path d="M120.68 106.63C116.84 112.61 111.36 115.94 108.44 114.06 105.52 112.18 106.27 105.82 110.11 99.84 113.95 93.86 119.43 90.53 122.35 92.41 125.27 94.28 124.53 100.65 120.68 106.63Z" stroke="#1D1D1B" stroke-width="0.6234" stroke-miterlimit="10" fill="#CEBFB6"/><path d="M110.34 114.84C109.57 114.84 108.88 114.65 108.3 114.28 106.8 113.32 106.16 111.25 106.48 108.46 106.8 105.74 108.01 102.62 109.89 99.7 112.99 94.87 117.24 91.63 120.45 91.63 121.22 91.63 121.91 91.82 122.49 92.19 123.99 93.15 124.64 95.22 124.31 98.01 123.99 100.73 122.78 103.85 120.9 106.77 117.8 111.6 113.56 114.84 110.34 114.84ZM120.45 92.14C117.45 92.14 113.29 95.36 110.33 99.98 108.49 102.84 107.31 105.87 107 108.52 106.7 111.1 107.26 112.99 108.58 113.85 109.08 114.17 109.67 114.33 110.34 114.33 113.34 114.33 117.5 111.11 120.46 106.49 122.3 103.63 123.48 100.6 123.79 97.95 124.09 95.37 123.53 93.48 122.21 92.63 121.72 92.3 121.12 92.14 120.45 92.14Z" fill="#878787"/></g><g><path d="M122.35 92.41C119.43 90.53 113.95 93.86 110.11 99.84 106.27 105.82 105.52 112.19 108.44 114.06 111.36 115.94 116.84 112.61 120.68 106.63 124.53 100.65 125.27 94.28 122.35 92.41ZM119.33 105.76C116.47 110.21 112.39 112.69 110.21 111.29 108.04 109.89 108.59 105.15 111.45 100.7 114.31 96.25 118.39 93.77 120.56 95.17 122.75 96.57 122.19 101.31 119.33 105.76Z" fill="#B2B2B2"/></g><g><path d="M97.36 80.65C97.36 80.65 106.76 84.7 107.77 86.87 108.78 89.03 91.72 80.5 97.36 80.65Z" fill="#FFFFFF"/><path d="M110.97 88.53C110.83 88.78 110.35 88.77 109.89 88.51 109.43 88.25 109.18 87.84 109.32 87.59 109.46 87.34 109.94 87.35 110.4 87.61 110.85 87.87 111.11 88.28 110.97 88.53Z" fill="#FFFFFF"/></g></g></g></g></svg>