<svg width="69.9" height="100" viewBox="0 0 69.9 100" xmlns="http://www.w3.org/2000/svg" xmlns:xlink="http://www.w3.org/1999/xlink" xml:space="preserve" overflow="hidden"><defs></defs><g><g><g><path d="M34.5 84.41C34.42 84.41 34.34 84.37 34.29 84.29 31.39 79.63 27.36 64.32 27.19 63.67 27.16 63.54 27.23 63.4 27.37 63.37 27.5 63.34 27.63 63.41 27.67 63.54 27.71 63.7 31.84 79.43 34.71 84.02 34.78 84.13 34.75 84.28 34.63 84.36 34.59 84.4 34.54 84.41 34.5 84.41Z" fill="#1D1D1B"/></g><g><path d="M37.26 85.49C37.25 85.49 37.25 85.49 37.24 85.49 37.11 85.48 37 85.37 37.01 85.23 37.47 77.97 36.88 63.27 36.87 63.12 36.86 62.99 36.97 62.87 37.1 62.87 37.23 62.86 37.35 62.97 37.35 63.1 37.36 63.25 37.95 77.97 37.49 85.26 37.49 85.39 37.38 85.49 37.26 85.49Z" fill="#1D1D1B"/></g><g><g><g><g><g><path d="M36.15 84.89C36.14 84.87 36.13 84.86 36.13 84.85 35.75 84.08 34.9 83.54 34.06 83.96 32.9 84.54 30.23 86.88 29.81 88.34 29.41 89.72 30.44 90.05 31.46 89.7 32.82 89.21 37.11 86.86 36.15 84.89Z" fill="#5A71B6"/></g><g><path d="M30.73 89.95 30.73 89.95C30.32 89.95 29.98 89.81 29.79 89.55 29.64 89.35 29.49 88.97 29.69 88.3 30.12 86.83 32.81 84.44 34.01 83.85 34.22 83.74 34.44 83.69 34.67 83.69 35.3 83.69 35.91 84.12 36.25 84.79 36.26 84.8 36.26 84.82 36.27 84.84 36.47 85.24 36.47 85.69 36.28 86.16 35.6 87.8 32.64 89.41 31.51 89.8 31.24 89.9 30.97 89.95 30.73 89.95ZM34.66 83.93C34.47 83.93 34.29 83.97 34.11 84.06 32.98 84.62 30.32 86.97 29.92 88.36 29.79 88.81 29.81 89.17 29.99 89.39 30.18 89.64 30.5 89.69 30.73 89.69L30.73 89.69C30.94 89.69 31.18 89.65 31.42 89.56 32.51 89.18 35.39 87.63 36.04 86.06 36.21 85.66 36.21 85.28 36.04 84.93L36.02 84.89C35.73 84.31 35.2 83.93 34.66 83.93Z" fill="#1D1D1B"/></g></g><g><g><path d="M29.81 88.33C29.99 87.72 30.56 86.96 31.24 86.23 31.96 86.16 32.69 86.41 33.25 86.98 33.55 87.29 33.93 87.74 34.16 88.23 33.15 88.94 32.05 89.48 31.47 89.68 30.43 90.05 29.41 89.71 29.81 88.33Z" fill="#FCE3D0"/></g><g><path d="M30.73 89.95C30.32 89.95 29.99 89.81 29.79 89.55 29.64 89.35 29.49 88.97 29.69 88.3 29.9 87.58 30.6 86.74 31.15 86.15 31.17 86.13 31.2 86.12 31.23 86.11 32 86.04 32.77 86.32 33.33 86.9 33.56 87.14 34 87.62 34.26 88.19 34.29 88.24 34.27 88.31 34.22 88.34 33.2 89.05 32.1 89.6 31.5 89.8 31.24 89.9 30.97 89.95 30.73 89.95ZM31.3 86.36C30.55 87.15 30.08 87.85 29.92 88.37 29.79 88.82 29.81 89.18 29.99 89.4 30.18 89.65 30.5 89.7 30.73 89.7 30.94 89.7 31.18 89.66 31.42 89.57 32 89.37 33.06 88.84 34 88.2 33.74 87.69 33.33 87.25 33.16 87.07 32.66 86.57 31.98 86.3 31.3 86.36Z" fill="#1D1D1B"/></g></g><g><g><path d="M33.41 87.9C32.56 88.49 31.08 89.52 29.85 89.42 30.13 89.85 30.8 89.91 31.46 89.68 32.82 89.21 37.08 86.87 36.16 84.91 35.69 86.17 34.43 87.19 33.41 87.9Z" fill="#FCE3D0"/></g><g><path d="M30.73 89.94C30.28 89.94 29.93 89.78 29.74 89.49 29.71 89.45 29.71 89.4 29.74 89.36 29.77 89.32 29.81 89.3 29.86 89.3 31.06 89.39 32.55 88.35 33.34 87.8 34.28 87.15 35.58 86.13 36.05 84.87 36.07 84.83 36.11 84.79 36.16 84.79 36.21 84.79 36.25 84.82 36.28 84.86 36.47 85.27 36.46 85.71 36.27 86.18 35.58 87.82 32.63 89.41 31.51 89.8 31.24 89.9 30.98 89.94 30.73 89.94ZM30.15 89.55C30.44 89.74 30.93 89.75 31.42 89.57 32.5 89.19 35.37 87.65 36.03 86.09 36.15 85.8 36.19 85.52 36.14 85.26 35.57 86.44 34.36 87.38 33.47 88 32.73 88.53 31.36 89.48 30.15 89.55Z" fill="#1D1D1B"/></g></g></g></g></g><g><g><g><g><g><path d="M35.55 86.52C35.55 86.5 35.55 86.48 35.56 86.47 35.7 85.62 36.36 84.86 37.29 85.02 38.56 85.24 41.8 86.71 42.62 87.98 43.4 89.19 42.51 89.8 41.43 89.76 39.99 89.7 35.2 88.68 35.55 86.52Z" fill="#5A71B6"/></g><g><path d="M41.54 89.88C41.5 89.88 41.46 89.88 41.42 89.88 40.23 89.83 36.93 89.15 35.81 87.78 35.49 87.38 35.36 86.95 35.43 86.51L35.44 86.47C35.57 85.7 36.13 84.89 37.05 84.89 37.14 84.89 37.22 84.9 37.31 84.91 38.63 85.13 41.89 86.64 42.73 87.93 43.15 88.58 43.07 89.02 42.94 89.27 42.72 89.65 42.2 89.88 41.54 89.88ZM37.04 85.12C36.26 85.12 35.79 85.83 35.67 86.49L35.67 86.53C35.61 86.91 35.72 87.28 35.99 87.62 37.07 88.94 40.27 89.59 41.42 89.64 42.04 89.67 42.52 89.48 42.71 89.14 42.86 88.86 42.79 88.48 42.51 88.05 41.71 86.81 38.54 85.36 37.26 85.14 37.19 85.13 37.12 85.12 37.04 85.12Z" fill="#1D1D1B"/></g></g><g><g><path d="M42.62 87.98C42.28 87.45 41.51 86.88 40.64 86.39 39.93 86.53 39.31 86.98 38.93 87.69 38.73 88.07 38.5 88.62 38.43 89.15 39.6 89.53 40.81 89.73 41.42 89.76 42.51 89.8 43.4 89.19 42.62 87.98Z" fill="#FCE3D0"/></g><g><path d="M41.54 89.88 41.54 89.88C41.5 89.88 41.46 89.88 41.42 89.88 40.79 89.85 39.57 89.65 38.39 89.26 38.33 89.24 38.3 89.19 38.31 89.13 38.39 88.51 38.67 87.93 38.83 87.63 39.21 86.91 39.85 86.42 40.62 86.27 40.65 86.27 40.68 86.27 40.7 86.28 41.4 86.68 42.31 87.28 42.72 87.91 43.14 88.56 43.06 89 42.93 89.25 42.72 89.65 42.2 89.88 41.54 89.88ZM38.57 89.06C39.65 89.41 40.82 89.61 41.43 89.63 42.05 89.66 42.53 89.47 42.72 89.13 42.87 88.85 42.8 88.47 42.52 88.04 42.23 87.59 41.55 87.04 40.62 86.51 39.94 86.66 39.38 87.09 39.04 87.73 38.93 87.96 38.67 88.5 38.57 89.06Z" fill="#1D1D1B"/></g></g><g><g><path d="M39.05 88.61C40.03 88.93 41.75 89.48 42.89 89.04 42.74 89.53 42.12 89.78 41.43 89.76 39.99 89.7 35.24 88.69 35.55 86.54 36.36 87.6 37.86 88.22 39.05 88.61Z" fill="#FCE3D0"/></g><g><path d="M41.54 89.88C41.5 89.88 41.46 89.88 41.42 89.88 40.24 89.83 36.96 89.16 35.82 87.79 35.49 87.4 35.36 86.97 35.42 86.53 35.43 86.48 35.46 86.44 35.51 86.43 35.56 86.42 35.61 86.44 35.64 86.47 36.46 87.54 37.99 88.14 39.08 88.5 39.75 88.72 40.88 89.09 41.88 89.09L41.88 89.09C42.25 89.09 42.58 89.04 42.84 88.93 42.88 88.91 42.93 88.92 42.97 88.95 43 88.98 43.02 89.03 43 89.08 42.86 89.57 42.3 89.88 41.54 89.88ZM35.66 86.87C35.69 87.13 35.81 87.39 36.01 87.63 37.09 88.94 40.28 89.58 41.43 89.63 41.97 89.66 42.42 89.5 42.64 89.24 42.41 89.29 42.16 89.32 41.88 89.32L41.88 89.32C40.85 89.32 39.7 88.94 39.01 88.72 37.98 88.39 36.56 87.84 35.66 86.87Z" fill="#1D1D1B"/></g></g></g></g></g></g><g><g><g><g><g><g><path d="M20.84 67.17 21.04 85.71 22.66 85.69 22.46 67.17Z" fill="#828487"/></g><g><path d="M21.04 85.83C20.97 85.83 20.92 85.78 20.92 85.71L20.72 67.17C20.72 67.14 20.73 67.11 20.76 67.08 20.78 67.06 20.81 67.04 20.85 67.04L22.47 67.04C22.54 67.04 22.59 67.1 22.59 67.16L22.79 85.68C22.79 85.71 22.78 85.74 22.75 85.77 22.73 85.79 22.7 85.81 22.66 85.81L21.04 85.83 21.04 85.83ZM20.96 67.29 21.15 85.58 22.53 85.57 22.33 67.29 20.96 67.29Z" fill="#1D1D1B"/></g></g></g><g><g><g><rect x="21.02" y="84.01" width="1.62" height="1.69" fill="#48484A" transform="matrix(0.9999 -0.0122 0.0122 0.9999 -1.0304 0.2719)"/></g><g><path d="M21.04 85.83C20.97 85.83 20.92 85.78 20.92 85.71L20.9 84.02C20.9 83.99 20.91 83.96 20.94 83.93 20.96 83.91 20.99 83.89 21.03 83.89L22.66 83.87 22.66 83.87C22.73 83.87 22.78 83.92 22.78 83.99L22.8 85.68C22.8 85.71 22.79 85.74 22.76 85.77 22.74 85.79 22.71 85.81 22.67 85.81L21.04 85.83 21.04 85.83ZM21.14 84.14 21.15 85.58 22.53 85.57 22.52 84.13 21.14 84.14Z" fill="#1D1D1B"/></g></g></g><g><g><g><path d="M46.89 67.17 47.09 85.41 48.71 85.39 48.52 67.17Z" fill="#828487"/></g><g><path d="M47.09 85.53C47.06 85.53 47.03 85.52 47.01 85.49 46.99 85.47 46.97 85.44 46.97 85.4L46.77 67.16C46.77 67.13 46.78 67.1 46.81 67.07 46.83 67.05 46.86 67.03 46.9 67.03L48.53 67.03C48.6 67.03 48.65 67.09 48.65 67.15L48.84 85.37C48.84 85.44 48.79 85.49 48.72 85.49L47.09 85.53 47.09 85.53ZM47.01 67.29 47.2 85.28 48.58 85.27 48.4 67.29 47.01 67.29Z" fill="#1D1D1B"/></g></g></g><g><g><g><rect x="47.08" y="84.36" width="1.62" height="1.03" fill="#48484A" transform="matrix(1 -0.00851609 0.00851609 1 -0.7211 0.4109)"/></g><g><path d="M47.09 85.53C47.06 85.53 47.03 85.52 47.01 85.49 46.99 85.47 46.97 85.44 46.97 85.4L46.96 84.37C46.96 84.3 47.01 84.25 47.08 84.25L48.7 84.23C48.74 84.23 48.76 84.24 48.79 84.27 48.81 84.29 48.83 84.32 48.83 84.36L48.84 85.4C48.84 85.47 48.79 85.52 48.72 85.52L47.09 85.53 47.09 85.53ZM47.2 84.49 47.21 85.28 48.59 85.27 48.58 84.48 47.2 84.49Z" fill="#1D1D1B"/></g></g></g></g><g><g><g><g><path d="M22.91 62.29 23.11 80.82 24.73 80.8 24.54 62.29Z" fill="#828487"/></g><g><path d="M23.11 80.94C23.04 80.94 22.99 80.89 22.99 80.82L22.79 62.28C22.79 62.25 22.8 62.22 22.83 62.19 22.85 62.17 22.88 62.15 22.92 62.15L24.55 62.15C24.62 62.15 24.67 62.2 24.67 62.27L24.87 80.79C24.87 80.82 24.86 80.85 24.83 80.88 24.81 80.9 24.78 80.92 24.74 80.92L23.11 80.94 23.11 80.94ZM23.04 62.41 23.24 80.7 24.62 80.68 24.42 62.4 23.04 62.4Z" fill="#1D1D1B"/></g></g></g><g><g><g><rect x="23.1" y="79.13" width="1.62" height="1.69" fill="#48484A" transform="matrix(0.9999 -0.011 0.011 0.9999 -0.8809 0.2687)"/></g><g><path d="M23.11 80.94C23.04 80.94 22.99 80.89 22.99 80.82L22.97 79.13C22.97 79.1 22.98 79.06 23.01 79.04 23.03 79.01 23.06 79 23.1 79L24.71 79 24.71 79C24.78 79 24.84 79.06 24.84 79.12L24.86 80.81C24.86 80.84 24.85 80.87 24.82 80.9 24.8 80.92 24.77 80.94 24.73 80.94L23.11 80.94 23.11 80.94ZM23.21 79.26 23.23 80.7 24.61 80.68 24.59 79.24 23.21 79.26Z" fill="#1D1D1B"/></g></g></g><g><g><g><path d="M44.57 62.29 44.77 80.52 46.39 80.5 46.19 62.29Z" fill="#828487"/></g><g><path d="M44.77 80.64C44.74 80.64 44.71 80.63 44.69 80.6 44.66 80.58 44.65 80.55 44.65 80.51L44.45 62.27C44.45 62.24 44.46 62.21 44.48 62.18 44.5 62.16 44.54 62.14 44.57 62.14L46.2 62.14C46.27 62.14 46.32 62.19 46.32 62.26L46.52 80.48C46.52 80.55 46.47 80.6 46.4 80.6L44.77 80.64 44.77 80.64ZM44.69 62.41 44.88 80.4 46.26 80.38 46.07 62.41 44.69 62.41Z" fill="#1D1D1B"/></g></g></g><g><g><g><rect x="44.76" y="79.48" width="1.63" height="1.03" fill="#48484A" transform="matrix(0.9999 -0.0113 0.0113 0.9999 -0.902 0.5207)"/></g><g><path d="M44.77 80.64C44.74 80.64 44.71 80.63 44.69 80.6 44.66 80.58 44.65 80.55 44.65 80.51L44.64 79.47C44.64 79.4 44.69 79.35 44.76 79.35L46.39 79.33C46.43 79.33 46.45 79.34 46.48 79.37 46.5 79.39 46.52 79.42 46.52 79.46L46.53 80.49C46.53 80.56 46.48 80.61 46.41 80.61L44.77 80.64 44.77 80.64ZM44.88 79.61 44.89 80.4 46.27 80.38 46.26 79.59 44.88 79.61Z" fill="#1D1D1B"/></g></g></g></g><g><g><g><rect x="24.75" y="44.84" width="1.43" height="14.57" fill="#636466"/></g><g><path d="M26.18 59.54 24.75 59.54C24.68 59.54 24.63 59.49 24.63 59.42L24.63 44.84C24.63 44.77 24.68 44.72 24.75 44.72L26.18 44.72C26.25 44.72 26.3 44.77 26.3 44.84L26.3 59.41C26.31 59.48 26.25 59.54 26.18 59.54ZM24.87 59.29 26.06 59.29 26.06 44.96 24.87 44.96 24.87 59.29Z" fill="#1D1D1B"/></g></g><g><g><rect x="44.72" y="44.84" width="1.43" height="14.57" fill="#636466"/></g><g><path d="M46.15 59.54 44.72 59.54C44.65 59.54 44.6 59.49 44.6 59.42L44.6 44.84C44.6 44.77 44.65 44.72 44.72 44.72L46.15 44.72C46.22 44.72 46.27 44.77 46.27 44.84L46.27 59.41C46.27 59.48 46.22 59.54 46.15 59.54ZM44.84 59.29 46.03 59.29 46.03 44.96 44.84 44.96 44.84 59.29Z" fill="#1D1D1B"/></g></g></g><g><g><path d="M49.97 66.1 47.36 60.33C47.36 60.33 46.99 59.16 46.19 59.21L37.52 59.21 32 59.21 23.33 59.21C22.54 59.16 22.16 60.33 22.16 60.33L19.65 66.1C19.65 66.1 18.97 68.35 20.78 68.69L33.75 68.69 35.74 68.69 48.72 68.69C50.54 68.35 49.97 66.1 49.97 66.1Z" fill="#BE805C"/></g><g><path d="M48.74 68.82 20.8 68.82C20.28 68.72 19.92 68.49 19.69 68.11 19.19 67.29 19.54 66.12 19.56 66.07L22.07 60.29C22.08 60.25 22.48 59.04 23.36 59.1L46.2 59.1C46.21 59.1 46.23 59.1 46.25 59.1 47.09 59.1 47.47 60.26 47.48 60.31L50.08 66.06C50.1 66.13 50.39 67.3 49.87 68.11 49.63 68.49 49.26 68.73 48.76 68.82 48.75 68.82 48.75 68.82 48.74 68.82ZM19.78 66.15C19.78 66.15 19.46 67.26 19.9 67.98 20.09 68.29 20.4 68.49 20.82 68.57L48.73 68.57C49.15 68.49 49.46 68.28 49.67 67.97 50.13 67.24 49.86 66.14 49.86 66.13L47.26 60.39C47.25 60.37 46.92 59.34 46.26 59.34L46.22 59.34 23.34 59.34 23.29 59.34C22.63 59.34 22.29 60.37 22.29 60.38L19.78 66.15 19.78 66.15Z" fill="#1D1D1B"/></g></g><g><g><path d="M49.79 65.61 47.4 59.33C47.4 59.33 47.02 58.16 46.23 58.21L37.56 58.21 32.04 58.21 23.37 58.21C22.58 58.16 22.21 59.33 22.21 59.33L19.81 65.61C19.81 65.61 19.02 67.35 20.83 67.69L33.8 67.69 35.79 67.69 48.77 67.69C50.57 67.34 49.79 65.61 49.79 65.61Z" fill="#BE805C"/></g><g><path d="M48.77 67.81 20.83 67.81C20.25 67.7 19.86 67.45 19.67 67.07 19.33 66.41 19.69 65.59 19.71 65.55L22.1 59.28C22.11 59.24 22.52 58.03 23.39 58.08L46.24 58.08C46.25 58.08 46.27 58.08 46.29 58.08 47.12 58.08 47.51 59.24 47.52 59.29L49.91 65.56C49.92 65.59 50.29 66.41 49.94 67.07 49.74 67.45 49.36 67.7 48.8 67.81 48.79 67.81 48.78 67.81 48.77 67.81ZM23.32 58.33C22.66 58.33 22.33 59.36 22.32 59.37L19.93 65.65C19.92 65.66 19.6 66.4 19.89 66.96 20.05 67.27 20.38 67.47 20.86 67.57L48.77 67.57C49.25 67.48 49.57 67.27 49.73 66.97 50.02 66.41 49.69 65.67 49.69 65.66L47.29 59.37C47.28 59.35 46.95 58.33 46.29 58.33L46.25 58.33 23.37 58.33 23.32 58.33Z" fill="#1D1D1B"/></g></g><g><g><g><rect x="22.5" y="31.51" width="25.89" height="13.35" fill="#BE6F42"/></g><g><path d="M48.4 44.98 22.5 44.98C22.43 44.98 22.38 44.93 22.38 44.86L22.38 31.51C22.38 31.44 22.43 31.39 22.5 31.39L48.4 31.39C48.47 31.39 48.52 31.45 48.52 31.51L48.52 44.86C48.52 44.93 48.46 44.98 48.4 44.98ZM22.63 44.74 48.28 44.74 48.28 31.63 22.63 31.63 22.63 44.74Z" fill="#1D1D1B"/></g></g><g><g><rect x="22.5" y="32.41" width="25.89" height="13.35" fill="#BE805C"/></g><g><path d="M48.4 45.88 22.5 45.88C22.43 45.88 22.38 45.83 22.38 45.76L22.38 32.41C22.38 32.34 22.43 32.29 22.5 32.29L48.4 32.29C48.47 32.29 48.52 32.35 48.52 32.41L48.52 45.76C48.52 45.83 48.46 45.88 48.4 45.88ZM22.63 45.64 48.28 45.64 48.28 32.53 22.63 32.53 22.63 45.64Z" fill="#1D1D1B"/></g></g><g><g><g><path d="M26.04 42.58C26.04 42.81 25.86 42.99 25.63 42.99 25.41 42.99 25.22 42.81 25.22 42.58 25.22 42.35 25.4 42.17 25.63 42.17 25.86 42.18 26.04 42.36 26.04 42.58Z" fill="#636466"/></g><g><path d="M25.63 43.11C25.34 43.11 25.1 42.87 25.1 42.58 25.1 42.29 25.34 42.05 25.63 42.05 25.92 42.05 26.16 42.29 26.16 42.58 26.16 42.88 25.92 43.11 25.63 43.11ZM25.63 42.3C25.47 42.3 25.35 42.43 25.35 42.59 25.35 42.75 25.48 42.87 25.63 42.87 25.79 42.87 25.91 42.74 25.91 42.59 25.91 42.44 25.79 42.3 25.63 42.3Z" fill="#1D1D1B"/></g></g><g><g><path d="M26.04 36.23C26.04 36.45 25.86 36.64 25.63 36.64 25.41 36.64 25.22 36.46 25.22 36.23 25.22 36.01 25.4 35.82 25.63 35.82 25.86 35.83 26.04 36.01 26.04 36.23Z" fill="#636466"/></g><g><path d="M25.63 36.76C25.34 36.76 25.1 36.52 25.1 36.23 25.1 35.94 25.34 35.7 25.63 35.7 25.92 35.7 26.16 35.94 26.16 36.23 26.16 36.52 25.92 36.76 25.63 36.76ZM25.63 35.95C25.47 35.95 25.35 36.08 25.35 36.24 25.35 36.4 25.48 36.53 25.63 36.53 25.79 36.53 25.91 36.4 25.91 36.24 25.92 36.08 25.79 35.95 25.63 35.95Z" fill="#1D1D1B"/></g></g></g><g><g><g><path d="M45.58 42.58C45.58 42.81 45.4 42.99 45.17 42.99 44.94 42.99 44.76 42.81 44.76 42.58 44.76 42.35 44.94 42.17 45.17 42.17 45.4 42.18 45.58 42.36 45.58 42.58Z" fill="#636466"/></g><g><path d="M45.17 43.11C44.88 43.11 44.64 42.87 44.64 42.58 44.64 42.29 44.88 42.05 45.17 42.05 45.46 42.05 45.7 42.29 45.7 42.58 45.7 42.88 45.47 43.11 45.17 43.11ZM45.17 42.3C45.01 42.3 44.89 42.43 44.89 42.59 44.89 42.75 45.02 42.87 45.17 42.87 45.33 42.87 45.46 42.74 45.46 42.59 45.46 42.44 45.33 42.3 45.17 42.3Z" fill="#1D1D1B"/></g></g><g><g><path d="M45.58 36.23C45.58 36.45 45.4 36.64 45.17 36.64 44.94 36.64 44.76 36.46 44.76 36.23 44.76 36.01 44.94 35.82 45.17 35.82 45.4 35.83 45.58 36.01 45.58 36.23Z" fill="#636466"/></g><g><path d="M45.17 36.76C44.88 36.76 44.64 36.52 44.64 36.23 44.64 35.94 44.88 35.7 45.17 35.7 45.46 35.7 45.7 35.94 45.7 36.23 45.7 36.52 45.47 36.76 45.17 36.76ZM45.17 35.95C45.01 35.95 44.89 36.08 44.89 36.24 44.89 36.4 45.02 36.53 45.17 36.53 45.33 36.53 45.46 36.4 45.46 36.24 45.46 36.08 45.33 35.95 45.17 35.95Z" fill="#1D1D1B"/></g></g></g></g></g><g><g><g><g><g><rect x="7.23" y="69.95" width="1.4" height="29.93" fill="#828487"/></g><g><path d="M8.63 100 7.23 100C7.16 100 7.11 99.94 7.11 99.88L7.11 69.95C7.11 69.88 7.16 69.83 7.23 69.83L8.63 69.83C8.7 69.83 8.75 69.89 8.75 69.95L8.75 99.88C8.75 99.94 8.69 100 8.63 100ZM7.35 99.76 8.5 99.76 8.5 70.07 7.35 70.07 7.35 99.76Z" fill="#1D1D1B"/></g></g></g><g><g><g><rect x="7.23" y="98.43" width="1.4" height="1.45" fill="#48484A"/></g><g><path d="M8.63 100 7.23 100C7.16 100 7.11 99.94 7.11 99.88L7.11 98.43C7.11 98.36 7.16 98.31 7.23 98.31L8.63 98.31C8.7 98.31 8.75 98.36 8.75 98.43L8.75 99.88C8.75 99.94 8.69 100 8.63 100ZM7.35 99.76 8.5 99.76 8.5 98.56 7.35 98.56 7.35 99.76Z" fill="#1D1D1B"/></g></g></g><g><g><g><rect x="61.27" y="69.95" width="1.39" height="29.93" fill="#828487"/></g><g><path d="M62.66 100 61.27 100C61.2 100 61.15 99.94 61.15 99.88L61.15 69.95C61.15 69.88 61.2 69.83 61.27 69.83L62.66 69.83C62.73 69.83 62.78 69.89 62.78 69.95L62.78 99.88C62.79 99.94 62.73 100 62.66 100ZM61.39 99.76 62.54 99.76 62.54 70.07 61.39 70.07 61.39 99.76Z" fill="#1D1D1B"/></g></g></g><g><g><g><rect x="61.27" y="98.99" width="1.39" height="0.89" fill="#48484A"/></g><g><path d="M62.66 100 61.27 100C61.2 100 61.15 99.94 61.15 99.88L61.15 98.99C61.15 98.92 61.2 98.87 61.27 98.87L62.66 98.87C62.73 98.87 62.78 98.92 62.78 98.99L62.78 99.88C62.79 99.94 62.73 100 62.66 100ZM61.39 99.76 62.54 99.76 62.54 99.12 61.39 99.12 61.39 99.76Z" fill="#1D1D1B"/></g></g></g></g><g><g><g><g><rect x="10.79" y="64.08" width="1.39" height="29.93" fill="#828487"/></g><g><path d="M12.19 94.14 10.8 94.14C10.73 94.14 10.68 94.08 10.68 94.02L10.68 64.08C10.68 64.01 10.74 63.96 10.8 63.96L12.19 63.96C12.26 63.96 12.31 64.01 12.31 64.08L12.31 94.01C12.31 94.08 12.25 94.14 12.19 94.14ZM10.92 93.89 12.07 93.89 12.07 64.2 10.92 64.2 10.92 93.89Z" fill="#1D1D1B"/></g></g></g><g><g><g><rect x="10.79" y="92.99" width="1.39" height="1.03" fill="#48484A"/></g><g><path d="M12.19 94.14 10.8 94.14C10.73 94.14 10.68 94.08 10.68 94.02L10.68 92.99C10.68 92.92 10.74 92.87 10.8 92.87L12.19 92.87C12.26 92.87 12.31 92.92 12.31 92.99L12.31 94.02C12.31 94.08 12.25 94.14 12.19 94.14ZM10.92 93.89 12.07 93.89 12.07 93.11 10.92 93.11 10.92 93.89Z" fill="#1D1D1B"/></g></g></g><g><g><g><rect x="57.71" y="64.08" width="1.39" height="29.93" fill="#828487"/></g><g><path d="M59.1 94.14 57.71 94.14C57.64 94.14 57.59 94.08 57.59 94.02L57.59 64.08C57.59 64.01 57.64 63.96 57.71 63.96L59.1 63.96C59.17 63.96 59.22 64.01 59.22 64.08L59.22 94.01C59.23 94.08 59.17 94.14 59.1 94.14ZM57.83 93.89 58.98 93.89 58.98 64.2 57.83 64.2 57.83 93.89Z" fill="#1D1D1B"/></g></g></g><g><g><g><rect x="57.71" y="93.06" width="1.39" height="0.96" fill="#48484A"/></g><g><path d="M59.1 94.14 57.71 94.14C57.64 94.14 57.59 94.08 57.59 94.02L57.59 93.06C57.59 92.99 57.64 92.94 57.71 92.94L59.1 92.94C59.17 92.94 59.22 92.99 59.22 93.06L59.22 94.02C59.23 94.08 59.17 94.14 59.1 94.14ZM57.83 93.89 58.98 93.89 58.98 93.18 57.83 93.18 57.83 93.89Z" fill="#1D1D1B"/></g></g></g></g><g><g><path d="M66.61 70.4 66.61 68.08 3.28 68.08 3.28 70.86 3.3 70.86C3.34 72.18 3.85 73.65 5.78 74.14L64.14 74.14C66.29 73.59 66.67 71.82 66.61 70.4L66.61 70.4Z" fill="#A04832"/></g><g><path d="M64.13 74.26 5.78 74.26C4.14 73.85 3.25 72.7 3.19 70.92 3.18 70.9 3.17 70.88 3.17 70.86L3.17 68.08C3.17 68.01 3.22 67.96 3.29 67.96L66.61 67.96C66.68 67.96 66.74 68.01 66.74 68.08L66.74 70.4C66.74 70.41 66.74 70.41 66.74 70.42 66.8 71.87 66.4 73.7 64.18 74.26 64.15 74.25 64.14 74.26 64.13 74.26ZM3.4 70.8C3.41 70.82 3.42 70.84 3.42 70.86 3.47 72.57 4.27 73.64 5.8 74.02L64.11 74.02C66.18 73.49 66.54 71.77 66.47 70.41 66.47 70.4 66.47 70.39 66.47 70.38L66.47 68.2 3.4 68.2 3.4 70.8Z" fill="#1D1D1B"/></g></g><g><g><g><path d="M69.77 67.49 69.73 66.03 0.15 65.23 0.12 67.29 0.14 67.72C0.18 68.39 0.74 69.13 2.86 69.38L67.04 69.38C69.42 69.11 69.84 68.21 69.77 67.49L69.77 67.49Z" fill="#BE6F42"/></g><g><path d="M67.05 69.5 2.87 69.5C0.59 69.24 0.06 68.39 0.02 67.73L0 67.3 0.03 65.23C0.03 65.16 0.08 65.1 0.15 65.11L69.73 65.9C69.8 65.9 69.85 65.95 69.85 66.02L69.89 67.48C69.89 67.49 69.89 67.49 69.89 67.5 69.95 68.26 69.51 69.21 67.06 69.49L67.05 69.49ZM0.27 65.36 0.24 67.3 0.26 67.72C0.31 68.54 1.22 69.07 2.87 69.26L67.03 69.26C68.83 69.05 69.73 68.44 69.63 67.51 69.63 67.5 69.63 67.48 69.63 67.47L69.6 66.15 0.27 65.36Z" fill="#1D1D1B"/></g></g><g><g><path d="M69.73 65.97 69.58 56.9C69.58 56.9 69.82 54.75 66.75 54.79L41.29 54.79 28.61 54.79 2.33 54.79C0.51 54.72 0.33 56.36 0.33 56.36L0.18 65.15C0.18 65.15-0.16 67.5 2.86 67.8L32.66 67.8 37.24 67.8 67.04 67.8C70.05 67.49 69.73 65.97 69.73 65.97Z" fill="#BE805C"/></g><g><path d="M67.04 67.93 2.86 67.93C1.8 67.83 1.02 67.47 0.55 66.86-0.07 66.08 0.06 65.17 0.06 65.14L0.21 56.37C0.22 56.34 0.43 54.6 2.34 54.68L66.84 54.68C67.94 54.68 68.75 54.96 69.23 55.51 69.8 56.14 69.72 56.9 69.71 56.93L69.86 65.98 69.86 65.98C69.86 65.98 69.94 66.41 69.6 66.87 69.18 67.45 68.32 67.8 67.05 67.94 67.05 67.93 67.04 67.93 67.04 67.93ZM2.21 54.91C0.62 54.91 0.45 56.32 0.45 56.37L0.3 65.16C0.3 65.18 0.19 66.02 0.74 66.72 1.17 67.27 1.89 67.6 2.87 67.69L67.03 67.69C68.52 67.53 69.14 67.08 69.4 66.72 69.67 66.34 69.61 66.01 69.61 66L69.46 56.91C69.46 56.89 69.53 56.21 69.03 55.66 68.59 55.17 67.85 54.92 66.82 54.92L66.75 54.92 2.33 54.92C2.28 54.91 2.25 54.91 2.21 54.91Z" fill="#1D1D1B"/></g></g></g></g><g><g><g><g><path d="M29.14 34.46C28.57 34.07 27.75 34.07 27.08 34.17 26.39 34.28 25.72 34.51 25.07 34.74 22.22 35.74 19.78 36.64 19.78 36.64 19.78 36.64 19.09 40.67 21.45 43.24 22.24 42.89 23.02 42.53 23.79 42.14 25.07 41.51 26.48 40.85 27.6 39.95 28.44 39.28 29.15 38.37 29.52 37.35 29.78 36.64 29.99 35.7 29.62 35 29.5 34.77 29.34 34.59 29.14 34.46Z" fill="#F59E5F"/></g><g><path d="M21.45 43.35C21.42 43.35 21.38 43.34 21.36 43.31 18.98 40.73 19.65 36.65 19.66 36.61 19.67 36.57 19.7 36.53 19.74 36.52 19.77 36.51 22.21 35.61 25.03 34.62 25.71 34.38 26.38 34.16 27.06 34.05 27.94 33.91 28.71 34.01 29.21 34.36 29.43 34.51 29.61 34.7 29.73 34.94 30.04 35.54 30.01 36.36 29.64 37.39 29.28 38.37 28.59 39.31 27.68 40.04 26.64 40.87 25.39 41.49 24.17 42.08L23.85 42.24C23.04 42.64 22.25 43.01 21.51 43.34 21.48 43.35 21.47 43.35 21.45 43.35ZM19.89 36.73C19.81 37.27 19.42 40.78 21.48 43.09 22.2 42.77 22.96 42.42 23.74 42.03L24.07 41.87C25.28 41.28 26.52 40.67 27.53 39.85 28.4 39.15 29.07 38.25 29.41 37.31 29.76 36.35 29.79 35.59 29.51 35.06 29.41 34.86 29.26 34.7 29.07 34.57 28.62 34.26 27.92 34.17 27.1 34.3 26.43 34.41 25.78 34.62 25.11 34.86 22.56 35.75 20.31 36.58 19.89 36.73Z" fill="#1D1D1B"/></g></g><g><g><path d="M20.7 36.3C20.12 36.51 19.78 36.63 19.78 36.63 19.78 36.63 19.09 40.66 21.45 43.23 21.73 43.1 22.02 42.97 22.3 42.84 22.62 40.56 22.3 37.8 20.7 36.3Z" fill="#BFE5FB"/></g><g><path d="M21.45 43.35C21.42 43.35 21.38 43.34 21.36 43.31 18.98 40.73 19.65 36.65 19.66 36.61 19.67 36.57 19.7 36.53 19.74 36.52 19.74 36.52 20.08 36.39 20.66 36.19 20.7 36.17 20.75 36.18 20.79 36.21 22.47 37.78 22.74 40.68 22.43 42.86 22.42 42.9 22.4 42.94 22.36 42.95L22.28 42.99C22.02 43.11 21.76 43.23 21.51 43.34 21.48 43.35 21.47 43.35 21.45 43.35ZM19.89 36.73C19.81 37.27 19.42 40.78 21.48 43.09 21.71 42.99 21.94 42.88 22.17 42.77L22.19 42.76C22.47 40.67 22.22 37.94 20.67 36.44 20.28 36.58 20.01 36.68 19.89 36.73Z" fill="#1D1D1B"/></g></g><g><path d="M29.62 35C29.5 34.77 29.33 34.59 29.14 34.46 28.8 34.22 28.36 34.13 27.92 34.12 25.82 36.61 24.36 39.47 23.13 42.46 23.35 42.35 23.57 42.25 23.79 42.14 25.07 41.51 26.48 40.85 27.6 39.95 28.44 39.28 29.15 38.37 29.52 37.35 29.78 36.64 29.99 35.7 29.62 35Z" fill="#DA8DBC"/></g><g><g><path d="M21.51 43.2C21.59 42.7 21.69 42.2 21.64 41.67 21.58 41 21.47 40.34 21.3 39.68 21.03 38.62 20.69 37.34 19.8 36.63 19.78 36.63 19.77 36.64 19.77 36.64 19.77 36.64 19.08 40.67 21.44 43.24 21.47 43.22 21.49 43.21 21.51 43.2Z" fill="#00A9C4"/></g><g><path d="M21.45 43.35C21.42 43.35 21.38 43.34 21.36 43.31 18.98 40.73 19.65 36.65 19.66 36.61 19.67 36.57 19.7 36.53 19.74 36.52 19.78 36.5 19.85 36.5 19.88 36.53 20.83 37.29 21.17 38.66 21.42 39.65 21.58 40.28 21.69 40.96 21.76 41.65 21.81 42.14 21.73 42.6 21.66 43.05L21.63 43.22C21.63 43.26 21.6 43.29 21.56 43.31L21.49 43.34C21.48 43.35 21.47 43.35 21.45 43.35ZM19.88 36.85C19.79 37.66 19.55 40.84 21.43 43.02L21.43 43.02C21.5 42.57 21.57 42.15 21.53 41.69 21.47 41 21.35 40.34 21.2 39.72 20.96 38.81 20.65 37.59 19.88 36.85Z" fill="#1D1D1B"/></g></g><g><g><path d="M33.78 34.46C34.35 34.07 35.17 34.07 35.84 34.17 36.53 34.28 37.2 34.51 37.85 34.74 40.7 35.74 43.14 36.64 43.14 36.64 43.14 36.64 43.83 40.67 41.47 43.24 40.68 42.89 39.9 42.53 39.13 42.14 37.85 41.51 36.44 40.85 35.32 39.95 34.48 39.28 33.77 38.37 33.4 37.35 33.14 36.64 32.93 35.7 33.3 35 33.42 34.77 33.59 34.59 33.78 34.46Z" fill="#F59E5F"/></g><g><path d="M41.47 43.35C41.45 43.35 41.43 43.35 41.42 43.34 40.67 43.01 39.89 42.64 39.08 42.24L38.76 42.08C37.54 41.48 36.28 40.87 35.24 40.03 34.33 39.3 33.64 38.36 33.28 37.38 32.9 36.35 32.87 35.53 33.19 34.93 33.31 34.7 33.49 34.5 33.71 34.35 34.21 34.01 34.97 33.9 35.86 34.04 36.54 34.15 37.21 34.37 37.89 34.61 40.71 35.6 43.16 36.5 43.18 36.51 43.22 36.52 43.25 36.56 43.26 36.6 43.27 36.64 43.94 40.72 41.56 43.3 41.54 43.34 41.51 43.35 41.47 43.35ZM35.13 34.24C34.6 34.24 34.17 34.35 33.85 34.56 33.66 34.69 33.52 34.85 33.41 35.05 33.13 35.58 33.17 36.34 33.51 37.3 33.85 38.24 34.52 39.14 35.39 39.84 36.4 40.66 37.65 41.27 38.86 41.86L39.18 42.02C39.96 42.4 40.72 42.76 41.43 43.08 43.49 40.77 43.1 37.26 43.02 36.72 42.61 36.57 40.35 35.75 37.8 34.85 37.13 34.61 36.47 34.4 35.81 34.29 35.58 34.26 35.34 34.24 35.13 34.24Z" fill="#1D1D1B"/></g></g><g><g><path d="M43.14 36.64C43.14 36.64 42.66 36.46 41.89 36.18 40.4 38.23 40.18 40.49 40.61 42.84 40.9 42.97 41.19 43.11 41.48 43.24 43.83 40.67 43.14 36.64 43.14 36.64Z" fill="#BFE5FB"/></g><g><path d="M41.47 43.35C41.45 43.35 41.43 43.35 41.42 43.34 41.17 43.23 40.92 43.11 40.67 43L40.55 42.95C40.51 42.94 40.49 42.9 40.48 42.86 39.99 40.19 40.42 37.98 41.78 36.11 41.81 36.07 41.87 36.05 41.92 36.07 42.7 36.35 43.17 36.53 43.17 36.53 43.21 36.54 43.24 36.58 43.25 36.62 43.26 36.66 43.93 40.74 41.55 43.32 41.54 43.34 41.51 43.35 41.47 43.35ZM40.72 42.75 40.78 42.78C41 42.88 41.22 42.98 41.45 43.08 43.51 40.77 43.12 37.26 43.04 36.72 42.89 36.67 42.5 36.52 41.94 36.32 40.67 38.11 40.26 40.22 40.72 42.75Z" fill="#1D1D1B"/></g></g><g><path d="M35.16 34.12C34.67 34.12 34.17 34.2 33.78 34.46 33.59 34.59 33.42 34.77 33.3 35 32.93 35.71 33.14 36.64 33.4 37.35 33.77 38.37 34.48 39.27 35.32 39.95 36.44 40.85 37.85 41.51 39.13 42.14 39.63 42.39 40.14 42.63 40.65 42.86 39.3 39.81 37.69 36.22 35.16 34.12Z" fill="#DA8DBC"/></g><g><g><path d="M41.41 43.2C41.33 42.7 41.23 42.2 41.28 41.67 41.34 41 41.45 40.34 41.62 39.68 41.89 38.62 42.23 37.34 43.12 36.63 43.13 36.63 43.14 36.64 43.14 36.64 43.14 36.64 43.83 40.67 41.47 43.24 41.45 43.22 41.43 43.21 41.41 43.2Z" fill="#00A9C4"/></g><g><path d="M41.47 43.35C41.45 43.35 41.43 43.35 41.42 43.34L41.35 43.31C41.31 43.29 41.29 43.26 41.28 43.22L41.25 43.06C41.18 42.61 41.1 42.15 41.15 41.66 41.22 40.96 41.33 40.29 41.49 39.66 41.74 38.66 42.08 37.3 43.03 36.54 43.06 36.51 43.11 36.51 43.15 36.52 43.19 36.54 43.24 36.58 43.25 36.62 43.26 36.66 43.93 40.74 41.55 43.32 41.54 43.34 41.51 43.35 41.47 43.35ZM43.05 36.85C42.28 37.59 41.97 38.8 41.74 39.71 41.58 40.33 41.47 40.99 41.41 41.68 41.37 42.14 41.43 42.57 41.51 43.02 43.38 40.84 43.14 37.67 43.05 36.85Z" fill="#1D1D1B"/></g></g><g><g><path d="M33.62 53.49C36.01 53.32 38.79 53.01 41.26 52.13 39.86 41.2 35.86 34.52 33.52 33.41 30.77 32.11 28.52 34.54 28.52 34.54 24.26 40.14 22.81 47.21 22.35 52.3 25.75 53.87 30.02 53.74 33.62 53.49Z" fill="#F59E5F"/></g><g><path d="M29.89 53.76 29.89 53.76C26.75 53.76 24.27 53.32 22.3 52.42 22.26 52.4 22.22 52.35 22.23 52.3 22.68 47.29 24.13 40.13 28.43 34.47 28.5 34.4 29.9 32.91 31.88 32.91 32.46 32.91 33.04 33.04 33.59 33.3 34.89 33.92 36.5 36.06 37.87 39.03 39.04 41.56 40.6 45.88 41.4 52.11 41.41 52.17 41.37 52.22 41.32 52.24 38.75 53.14 35.87 53.44 33.65 53.6 32.61 53.68 31.27 53.76 29.89 53.76ZM22.48 52.23C24.41 53.09 26.83 53.52 29.89 53.52 31.26 53.52 32.6 53.44 33.61 53.37 35.79 53.21 38.61 52.92 41.13 52.05 39.73 41.22 35.74 34.6 33.48 33.53 32.96 33.28 32.42 33.16 31.88 33.16 30.02 33.16 28.63 34.62 28.62 34.64 24.38 40.2 22.94 47.26 22.48 52.23Z" fill="#1D1D1B"/></g></g><g><path d="M36.03 42.18C36.46 44.42 36.96 46.67 37.2 48.94 37.34 50.31 37.44 51.68 37.57 53.04 38.82 52.84 40.08 52.55 41.27 52.13 39.87 41.2 35.87 34.52 33.53 33.41 33.34 33.32 33.14 33.25 32.95 33.19 34.31 36.06 35.41 38.96 36.03 42.18Z" fill="#DA8DBC"/></g></g><g><path d="M12.36 43.72C12.33 43.72 12.3 43.72 12.28 43.71 12.15 43.67 12.09 43.53 12.13 43.4 13.39 39.88 20.71 39.04 21.02 39.01 21.15 39 21.28 39.09 21.29 39.23 21.3 39.36 21.21 39.48 21.07 39.5 21 39.51 13.75 40.34 12.59 43.57 12.56 43.66 12.46 43.72 12.36 43.72Z" fill="#1D1D1B"/></g><g><path d="M52.17 45.51C52.15 45.51 52.13 45.51 52.11 45.5 51.98 45.47 51.9 45.34 51.93 45.21 52.14 44.29 51.97 43.49 51.43 42.74 49.29 39.81 42.1 39.14 42.03 39.14 41.9 39.13 41.79 39.01 41.81 38.88 41.82 38.75 41.94 38.65 42.07 38.66 42.38 38.69 49.56 39.35 51.82 42.46 52.44 43.31 52.64 44.28 52.4 45.32 52.39 45.44 52.29 45.51 52.17 45.51Z" fill="#1D1D1B"/></g><g><g><g><path d="M31.5 44.39C31.5 44.39 24.66 38.41 13.98 35.23L13.61 39.26 31.5 44.39Z" fill="#F9FAE6"/></g><g><path d="M31.5 44.52C31.49 44.52 31.48 44.52 31.46 44.52L13.57 39.39C13.51 39.37 13.48 39.32 13.48 39.26L13.85 35.23C13.85 35.19 13.87 35.16 13.9 35.14 13.93 35.12 13.97 35.11 14.01 35.12 24.6 38.27 31.51 44.25 31.58 44.31 31.62 44.35 31.63 44.41 31.61 44.46 31.58 44.49 31.54 44.52 31.5 44.52ZM13.74 39.18 30.97 44.12C29.29 42.77 23.01 38.08 14.08 35.4L13.74 39.18Z" fill="#1D1D1B"/></g></g><g><g><path d="M32.17 44.94C32.17 44.94 23.93 38.96 13.24 35.78L13.61 39.26 32.17 44.94Z" fill="#F9FAE6"/></g><g><path d="M32.17 45.07C32.16 45.07 32.15 45.07 32.13 45.07L13.57 39.39C13.52 39.37 13.49 39.33 13.48 39.29L13.11 35.81C13.11 35.77 13.12 35.73 13.15 35.7 13.18 35.67 13.22 35.66 13.26 35.68 23.84 38.82 32.14 44.8 32.22 44.86 32.27 44.9 32.29 44.96 32.26 45.01 32.25 45.04 32.21 45.07 32.17 45.07ZM13.72 39.17 31.45 44.59C29.32 43.15 22.15 38.59 13.38 35.95L13.72 39.17Z" fill="#1D1D1B"/></g></g><g><g><path d="M32.17 44.94C32.17 44.94 22.52 38.77 12.45 36.64L12.82 40.12 32.17 44.94Z" fill="#F9FAE6"/></g><g><path d="M32.17 45.07C32.16 45.07 32.15 45.07 32.14 45.07L12.78 40.24C12.73 40.23 12.69 40.19 12.69 40.14L12.32 36.66C12.32 36.62 12.33 36.58 12.36 36.56 12.39 36.53 12.43 36.52 12.47 36.53 22.45 38.65 32.14 44.79 32.23 44.85 32.28 44.88 32.3 44.95 32.28 45 32.26 45.04 32.21 45.07 32.17 45.07ZM12.92 40.02 31.42 44.63C29.07 43.22 20.94 38.61 12.58 36.79L12.92 40.02Z" fill="#1D1D1B"/></g></g></g><g><g><path d="M32.17 44.39C32.17 44.39 39.01 38.41 49.7 35.23L50.07 39.26 32.17 44.39Z" fill="#F9FAE6"/></g><g><path d="M32.17 44.52C32.13 44.52 32.08 44.5 32.06 44.46 32.03 44.41 32.04 44.35 32.09 44.31 32.16 44.25 39.07 38.27 49.66 35.12 49.69 35.11 49.73 35.12 49.76 35.14 49.79 35.16 49.81 35.19 49.81 35.23L50.18 39.26C50.19 39.32 50.15 39.37 50.09 39.39L32.2 44.51C32.19 44.52 32.18 44.52 32.17 44.52ZM49.58 35.4C40.65 38.08 34.38 42.77 32.7 44.12L49.93 39.18 49.58 35.4Z" fill="#1D1D1B"/></g></g><g><g><path d="M31.5 44.94C31.5 44.94 39.74 38.96 50.43 35.78L50.06 39.26 31.5 44.94Z" fill="#F9FAE6"/></g><g><path d="M31.5 45.07C31.45 45.07 31.41 45.05 31.39 45 31.36 44.95 31.38 44.88 31.43 44.85 31.51 44.79 39.81 38.82 50.4 35.67 50.44 35.66 50.48 35.67 50.51 35.69 50.54 35.72 50.56 35.76 50.55 35.8L50.18 39.28C50.17 39.33 50.14 39.37 50.1 39.38L31.53 45.06C31.52 45.07 31.51 45.07 31.5 45.07ZM50.28 35.96C41.5 38.6 34.34 43.17 32.21 44.6L49.94 39.18 50.28 35.96Z" fill="#1D1D1B"/></g></g><g><g><path d="M31.5 44.94C31.5 44.94 41.15 38.77 51.22 36.64L50.85 40.12 31.5 44.94Z" fill="#F9FAE6"/></g><g><path d="M31.5 45.07C31.45 45.07 31.4 45.04 31.39 45 31.36 44.95 31.39 44.88 31.44 44.85 31.53 44.79 41.22 38.65 51.2 36.53 51.24 36.52 51.28 36.53 51.31 36.56 51.34 36.59 51.35 36.63 51.35 36.66L50.98 40.14C50.97 40.19 50.94 40.23 50.89 40.24L31.53 45.07C31.51 45.07 31.5 45.07 31.5 45.07ZM51.08 36.79C42.71 38.6 34.59 43.22 32.24 44.63L50.74 40.02 51.08 36.79Z" fill="#1D1D1B"/></g></g><g><g><g><path d="M29.78 43.64 11.83 37.01 14.64 60.94 30.64 65.09Z" fill="#7C9CD1"/></g><g><path d="M30.64 65.22C30.63 65.22 30.62 65.22 30.61 65.22L14.61 61.07C14.56 61.06 14.52 61.02 14.52 60.97L11.71 37.03C11.71 36.99 11.72 36.95 11.76 36.92 11.79 36.89 11.84 36.88 11.88 36.9L29.83 43.53C29.88 43.55 29.91 43.59 29.91 43.64L30.76 65.09C30.76 65.13 30.74 65.17 30.72 65.19 30.69 65.21 30.67 65.22 30.64 65.22ZM14.75 60.84 30.51 64.93 29.67 43.72 11.98 37.18 14.75 60.84Z" fill="#1D1D1B"/></g></g><g opacity="0.3"><path d="M29.78 43.64 28.98 43.35C28.92 45.79 28.91 48.23 28.8 50.68 28.73 52.03 28.6 53.38 28.53 54.73 28.49 55.51 28.45 56.33 28.22 57.08 27.03 60.91 21.96 58.11 19.9 56.54 16.09 53.63 13.99 49.09 12.7 44.35L14.65 60.96 30.65 65.11 29.78 43.64Z" fill="#8674B5"/></g><g><g><path d="M34.02 43.64 52.62 37.01 49.81 60.94 33.82 65.09Z" fill="#7C9CD1"/></g><g><path d="M33.82 65.22C33.79 65.22 33.76 65.21 33.74 65.19 33.71 65.17 33.69 65.13 33.69 65.09L33.9 43.64C33.9 43.59 33.93 43.54 33.98 43.53L52.58 36.89C52.62 36.88 52.66 36.88 52.7 36.91 52.73 36.94 52.75 36.98 52.74 37.02L49.93 60.96C49.93 61.01 49.89 61.05 49.84 61.06L33.84 65.21C33.83 65.22 33.83 65.22 33.82 65.22ZM34.14 43.73 33.94 64.94 49.7 60.85 52.48 37.19 34.14 43.73Z" fill="#1D1D1B"/></g></g><g opacity="0.3"><path d="M48.76 38.38C49.05 42.8 48.26 47.27 47.5 51.6 46.75 55.87 45.14 59.7 40.89 61.44 39.58 61.98 37.65 62.77 36.21 62.3 35.12 61.95 34.99 60.28 34.83 59.38 34.45 57.25 34.17 55.1 33.92 52.95L33.81 65.09 49.81 60.94 52.62 37 48.76 38.38Z" fill="#8674B5"/></g><g><g><path d="M29.78 43.64C29.78 43.64 31.78 44.78 34.02 43.64L33.98 47.39 33.81 65.1C33.81 65.1 33.36 66 30.64 65.1L29.78 43.64Z" fill="#8674B5"/></g><g><path d="M32.68 65.62C32.12 65.62 31.42 65.48 30.61 65.21 30.56 65.2 30.53 65.15 30.52 65.1L29.67 43.65C29.67 43.6 29.69 43.56 29.73 43.54 29.77 43.52 29.82 43.52 29.86 43.54 29.87 43.55 30.74 44.03 31.94 44.03 32.65 44.03 33.33 43.86 33.98 43.54 34.02 43.52 34.06 43.52 34.1 43.54 34.14 43.56 34.16 43.6 34.16 43.65L33.96 65.1C33.96 65.12 33.96 65.14 33.95 65.15 33.9 65.2 33.66 65.62 32.68 65.62ZM30.76 65.01C31.52 65.25 32.16 65.38 32.68 65.38 33.4 65.38 33.64 65.14 33.7 65.07L33.9 43.85C33.28 44.14 32.61 44.28 31.93 44.28 30.98 44.28 30.25 44 29.92 43.85L30.76 65.01Z" fill="#1D1D1B"/></g></g><g opacity="0.5"><path d="M33.14 43.98C33.13 51.14 33.04 58.31 33.03 65.47 33.67 65.39 33.82 65.09 33.82 65.09L33.99 47.38 34.03 43.63C33.72 43.8 33.43 43.91 33.14 43.98Z" fill="#8674B5"/></g><g opacity="0.5"><path d="M30.4 43.9C30.01 43.77 29.78 43.64 29.78 43.64L30.64 65.09C30.88 65.17 31.1 65.23 31.3 65.28 30.86 58.17 30.45 51.04 30.4 43.9Z" fill="#8674B5"/></g></g><g><g><path d="M12.32 41.61C12.32 41.61 11.75 41.45 10.86 43.44 9.96 45.43 11.47 49.87 13.18 50.48 13.18 50.48 14.62 50.76 15.35 50.44 16.08 50.12 12.88 48.46 12.75 48.33 12.75 48.33 15.01 49.38 15.87 48.89 16.12 48.75 16.33 48.35 16.01 48.12 15.23 47.55 13.16 46.99 12.7 46.41 12.7 46.41 14.73 47.21 15.75 47.16 16.1 47.14 16.43 46.86 16.42 46.49 16.4 45.27 13.13 45.28 12.72 44.79 12.72 44.79 15.35 45.25 15.84 44.39 16.33 43.54 12.74 43.27 12.53 42.66 12.32 42.05 12.32 41.61 12.32 41.61Z" fill="#F9D8B7"/></g><g><path d="M14.37 50.72C13.75 50.72 13.18 50.61 13.15 50.6 12.44 50.35 11.73 49.48 11.19 48.22 10.56 46.73 10.17 44.66 10.75 43.39 11.65 41.39 12.28 41.47 12.36 41.49 12.41 41.5 12.45 41.55 12.45 41.61 12.45 41.61 12.45 42.05 12.65 42.63 12.72 42.83 13.49 43.04 14.1 43.22 14.98 43.47 15.81 43.7 15.98 44.1 16.03 44.22 16.02 44.34 15.95 44.46 15.73 44.85 15.13 45.04 14.18 45.04L14.18 45.04C14.02 45.04 13.87 45.03 13.73 45.03 13.84 45.05 13.95 45.08 14.05 45.1 15.16 45.33 16.53 45.63 16.55 46.5 16.55 46.92 16.2 47.27 15.76 47.3 15.18 47.33 14.31 47.1 13.63 46.88 13.91 47.01 14.22 47.14 14.53 47.27 15.15 47.53 15.74 47.78 16.09 48.03 16.23 48.13 16.31 48.28 16.3 48.45 16.29 48.66 16.14 48.89 15.94 49.01 15.77 49.11 15.55 49.16 15.27 49.16 14.87 49.16 14.41 49.06 13.99 48.94 15.01 49.56 15.61 50.02 15.59 50.33 15.59 50.39 15.56 50.5 15.41 50.57 15.14 50.66 14.8 50.72 14.37 50.72ZM13.22 50.37C13.23 50.37 13.79 50.48 14.37 50.48 14.77 50.48 15.08 50.43 15.3 50.33 15.33 50.32 15.33 50.31 15.33 50.31 15.37 50.21 15.13 49.87 13.1 48.69 12.78 48.5 12.7 48.45 12.66 48.42 12.62 48.38 12.61 48.31 12.65 48.26 12.69 48.21 12.75 48.19 12.8 48.22 12.82 48.23 14.27 48.9 15.25 48.9 15.48 48.9 15.67 48.86 15.8 48.79 15.93 48.72 16.03 48.56 16.04 48.43 16.04 48.34 16.01 48.27 15.93 48.22 15.6 47.98 15 47.73 14.42 47.49 13.63 47.16 12.87 46.84 12.59 46.49 12.55 46.45 12.55 46.39 12.59 46.34 12.62 46.29 12.68 46.28 12.73 46.3 12.75 46.31 14.75 47.09 15.73 47.04 16 47.03 16.29 46.8 16.29 46.49 16.28 45.81 15.01 45.54 13.99 45.33 13.33 45.19 12.8 45.08 12.63 44.87 12.6 44.83 12.59 44.78 12.62 44.73 12.65 44.69 12.7 44.66 12.75 44.67 12.76 44.67 13.45 44.79 14.18 44.79 15.03 44.79 15.57 44.63 15.74 44.33 15.78 44.26 15.77 44.21 15.76 44.18 15.64 43.89 14.75 43.64 14.04 43.44 13.1 43.18 12.52 43 12.42 42.69 12.28 42.26 12.23 41.91 12.22 41.73 12.04 41.8 11.6 42.1 10.98 43.48 10.52 44.51 10.7 46.41 11.43 48.11 11.92 49.3 12.59 50.14 13.22 50.37L13.22 50.37Z" fill="#1D1D1B"/></g></g><g><g><path d="M52.29 41.61C52.29 41.61 52.86 41.45 53.75 43.44 54.65 45.43 53.14 49.87 51.43 50.48 51.43 50.48 50.42 50.93 49.74 50.9 49.45 50.89 49.12 50.75 49.1 50.53 49.01 49.73 51.73 48.45 51.85 48.33 51.85 48.33 49.59 49.38 48.74 48.89 48.49 48.75 48.28 48.35 48.6 48.12 49.38 47.55 51.45 46.99 51.92 46.41 51.92 46.41 49.88 47.21 48.87 47.16 48.52 47.14 48.19 46.86 48.2 46.49 48.22 45.27 51.49 45.28 51.89 44.79 51.89 44.79 49.27 45.25 48.78 44.39 48.29 43.54 51.89 43.27 52.09 42.66 52.29 42.05 52.29 41.61 52.29 41.61Z" fill="#F9D8B7"/></g><g><path d="M49.82 51.84C49.8 51.84 49.77 51.84 49.75 51.84 49.41 51.84 49.02 51.24 48.99 50.96 48.94 50.48 49.64 49.72 50.56 49.16 49.87 49.36 49.09 49.34 48.69 49.11 48.49 48.99 48.34 48.71 48.33 48.5 48.32 48.33 48.4 48.16 48.54 48.05 48.9 47.79 49.48 47.54 50.1 47.28 50.41 47.15 50.72 46.85 51 46.72 50.37 46.92 49.55 46.97 48.97 46.97L48.97 46.97C48.93 46.97 48.9 46.97 48.87 46.97 48.43 46.97 48.08 46.75 48.08 46.34 48.09 45.47 49.47 45.26 50.58 45.03 50.69 45.01 50.8 45.03 50.9 45 50.76 45.01 50.6 45.04 50.45 45.04 49.49 45.04 48.9 44.85 48.68 44.47 48.61 44.35 48.6 44.23 48.65 44.11 48.81 43.71 49.65 43.48 50.53 43.23 51.15 43.06 51.92 42.84 51.98 42.64 52.18 42.06 52.18 41.63 52.18 41.62 52.18 41.56 52.22 41.52 52.27 41.5 52.34 41.48 52.98 41.39 53.88 43.4 54.45 44.67 54.07 46.74 53.43 48.23 52.89 49.49 52.18 50.77 51.48 51.02 51.45 51.02 50.51 51.84 49.82 51.84ZM51.87 48.21C51.91 48.21 51.95 48.23 51.97 48.26 52 48.31 52 48.37 51.95 48.42 51.91 48.46 51.83 48.5 51.57 48.64 50.98 48.97 49.17 50.49 49.23 51.05 49.24 51.17 49.5 51.84 49.75 51.84L49.81 51.84C50.45 51.84 51.37 50.91 51.38 50.9 52.01 50.68 52.69 49.57 53.19 48.39 53.91 46.69 54.1 44.65 53.64 43.62 53.02 42.24 52.58 41.88 52.4 41.81 52.38 41.99 52.34 42.31 52.2 42.73 52.1 43.04 51.52 43.2 50.58 43.46 49.87 43.66 48.98 43.9 48.86 44.19 48.85 44.22 48.84 44.26 48.88 44.33 49.05 44.63 49.59 44.78 50.44 44.78 51.17 44.78 51.86 44.66 51.87 44.66 51.92 44.65 51.97 44.67 52 44.72 52.02 44.77 52.02 44.82 51.99 44.86 51.81 45.07 51.29 45.18 50.63 45.32 49.61 45.53 48.34 45.81 48.33 46.48 48.33 46.79 48.61 47.01 48.88 47.03 48.91 47.03 48.94 47.03 48.97 47.03L48.97 47.03C49.98 47.03 51.86 46.29 51.88 46.28 51.93 46.26 51.99 46.28 52.02 46.32 52.05 46.36 52.05 46.43 52.02 46.47 51.74 46.82 50.99 47.13 50.19 47.47 49.61 47.71 49.01 47.96 48.68 48.2 48.6 48.26 48.57 48.33 48.57 48.41 48.57 48.54 48.68 48.69 48.81 48.77 48.94 48.85 49.13 48.88 49.36 48.88 50.34 48.88 51.8 48.21 51.81 48.2 51.83 48.21 51.85 48.21 51.87 48.21Z" fill="#1D1D1B"/></g></g></g><g><g><path d="M29.78 34.08C29.78 34.08 28.97 37.17 30.19 37.75 31.41 38.32 33.77 38.28 33.65 36.36 33.52 34.45 33.65 33.88 33.65 33.88L29.78 34.08Z" fill="#F9D8B7"/></g><g><path d="M31.71 38.18 31.71 38.18C31.16 38.18 30.59 38.06 30.14 37.85 28.84 37.24 29.63 34.18 29.67 34.04 29.68 33.99 29.73 33.95 29.78 33.95L33.65 33.75C33.69 33.75 33.72 33.76 33.75 33.79 33.77 33.82 33.78 33.86 33.78 33.9 33.78 33.9 33.66 34.49 33.78 36.35 33.81 36.86 33.68 37.28 33.39 37.6 33.02 37.97 32.43 38.18 31.71 38.18ZM29.88 34.19C29.76 34.68 29.23 37.15 30.24 37.63 30.66 37.83 31.2 37.94 31.71 37.94L31.71 37.94C32.36 37.94 32.89 37.76 33.2 37.43 33.45 37.17 33.56 36.81 33.53 36.37 33.44 34.97 33.48 34.29 33.51 34.01L29.88 34.19Z" fill="#1D1D1B"/></g></g><g><g><g><g><g><path d="M16.69 24.47C10.75 23.45 12.65 17.87 15.37 18.14 17.5 18.35 18.35 20.22 18.35 20.22 18.35 20.22 19.23 22.46 18.2 23.88 18.2 23.88 17.83 24.44 17.26 24.46 16.69 24.47 16.69 24.47 16.69 24.47Z" fill="#F9D8B7"/></g><g><path d="M16.69 24.59C16.68 24.59 16.68 24.59 16.67 24.59 13.52 24.05 12.54 22.22 12.67 20.7 12.8 19.13 14.03 17.88 15.38 18.02 17.56 18.24 18.45 20.15 18.46 20.17 18.5 20.27 19.36 22.5 18.29 23.95 18.28 23.97 17.88 24.56 17.26 24.58L16.69 24.59 16.69 24.59ZM15.18 18.25C14.05 18.25 13.03 19.36 12.91 20.72 12.73 22.88 14.74 24.01 16.7 24.35L17.25 24.33C17.75 24.31 18.09 23.81 18.09 23.81 19.08 22.46 18.24 20.28 18.23 20.26 18.22 20.25 17.39 18.46 15.35 18.26 15.3 18.25 15.24 18.25 15.18 18.25Z" fill="#1D1D1B"/></g></g><g><g><path d="M44.06 30.86C49.84 32.58 50.61 26.73 48.04 25.77 46.03 25.01 44.45 26.31 44.45 26.31 44.45 26.31 42.67 27.93 42.97 29.66 42.97 29.66 43.05 30.33 43.56 30.59 44.06 30.86 44.06 30.86 44.06 30.86Z" fill="#F9D8B7"/></g><g><path d="M46.01 31.3 46.01 31.3C45.4 31.3 44.73 31.19 44.02 30.98L43.5 30.7C42.95 30.41 42.85 29.71 42.85 29.68 42.54 27.91 44.3 26.29 44.37 26.22 44.41 26.18 45.37 25.41 46.76 25.41 47.21 25.41 47.65 25.49 48.08 25.65 49.15 26.05 49.74 27.31 49.5 28.65 49.27 29.93 48.24 31.3 46.01 31.3ZM46.76 25.65C45.46 25.65 44.54 26.39 44.52 26.4 44.51 26.41 42.8 27.99 43.08 29.64 43.08 29.65 43.17 30.25 43.6 30.48L44.1 30.75C44.77 30.95 45.41 31.05 46 31.05L46 31.05C48.07 31.05 49.04 29.79 49.25 28.61 49.47 27.39 48.94 26.24 47.99 25.88 47.6 25.73 47.18 25.65 46.76 25.65Z" fill="#1D1D1B"/></g></g><g><g><path d="M47.97 23.06C45.97 31.64 37.33 36.95 28.67 34.93 20.02 32.91 14.62 24.32 16.63 15.74 18.63 7.16 27.27 1.85 35.93 3.87 44.58 5.89 49.98 14.48 47.97 23.06Z" fill="#F9D8B7"/></g><g><path d="M32.38 35.49C31.13 35.49 29.88 35.35 28.65 35.06 24.43 34.08 20.85 31.52 18.55 27.87 16.26 24.22 15.53 19.9 16.51 15.72 18.22 8.42 24.68 3.32 32.22 3.32 33.47 3.32 34.72 3.47 35.95 3.75 44.66 5.78 50.1 14.46 48.09 23.09 46.39 30.39 39.93 35.49 32.38 35.49ZM32.22 3.57C24.79 3.57 18.42 8.59 16.74 15.78 15.78 19.9 16.49 24.15 18.75 27.74 21 31.34 24.54 33.85 28.69 34.82 29.9 35.1 31.14 35.25 32.37 35.25 39.8 35.25 46.17 30.23 47.85 23.04 49.84 14.54 44.47 5.99 35.9 3.99 34.69 3.71 33.45 3.57 32.22 3.57Z" fill="#1D1D1B"/></g></g><g><g><path d="M47.97 23.06C45.97 31.64 37.33 36.95 28.67 34.93 20.02 32.91 14.62 24.32 16.63 15.74 18.63 7.16 27.27 1.85 35.93 3.87 44.58 5.89 49.98 14.48 47.97 23.06Z" fill="#F9D8B7"/></g><g><path d="M32.38 35.49C31.13 35.49 29.88 35.35 28.65 35.06 24.43 34.08 20.85 31.52 18.55 27.87 16.26 24.22 15.53 19.9 16.51 15.72 18.22 8.42 24.68 3.32 32.22 3.32 33.47 3.32 34.72 3.47 35.95 3.75 44.66 5.78 50.1 14.46 48.09 23.09 46.39 30.39 39.93 35.49 32.38 35.49ZM32.22 3.57C24.79 3.57 18.42 8.59 16.74 15.78 15.78 19.9 16.49 24.15 18.75 27.74 21 31.34 24.54 33.85 28.69 34.82 29.9 35.1 31.14 35.25 32.37 35.25 39.8 35.25 46.17 30.23 47.85 23.04 49.84 14.54 44.47 5.99 35.9 3.99 34.69 3.71 33.45 3.57 32.22 3.57Z" fill="#1D1D1B"/></g></g><g><path d="M35.93 3.87C27.28 1.85 18.64 7.16 16.63 15.74 14.63 24.32 20.02 32.91 28.67 34.93 37.33 36.95 45.97 31.63 47.97 23.06 49.98 14.48 44.58 5.89 35.93 3.87ZM40.1 31.72C35.43 34.9 29.38 34.56 24.45 32.05 21.48 30.54 17.19 26.25 18.7 22.5 19.51 20.48 21.31 19.94 23.34 19.77 25.31 19.6 27.23 19.28 29.16 18.93 31.26 18.41 37.41 18.19 39.59 16.74 39.72 16.66 41.7 22.01 42.58 23.81 43.06 24.79 43.41 25.71 43.34 26.82 43.2 28.81 41.69 30.64 40.1 31.72Z" fill="#F9D8B7"/></g><g><g><path d="M50.06 12.35C49.87 11.82 49.66 11.3 49.42 10.8 48.96 9.85 48.38 8.85 47.7 8.04 46.5 6.62 44.8 5.13 43.15 4.26 41.03 3.15 38.73 2.43 36.36 2.14 32.9 1.72 29.34 1.85 26.05 3.11 22.13 4.62 18.45 7.26 16.52 11.08 14.63 14.84 15.04 17.84 15.31 17.97 19 19.82 32.62 16.83 35.58 14.86 36.59 14.19 37.77 13.63 38.69 12.84 37.64 13.73 36.59 14.71 35.56 15.64 35.5 15.7 35.39 15.85 35.55 15.88 37.03 16.15 38.98 15.53 40.47 14.49 40.43 15.5 40.57 16.49 41.04 17.08 41.1 17.16 41.21 17.12 41.29 17.1 41.92 16.92 42.33 16.27 42.62 15.55 42.84 19.45 44.38 23.94 46.77 26.77 46.9 26.93 47.21 26.75 47.33 26.65 48.48 25.65 49.48 23.83 50.05 22.44 51.31 19.36 51.18 15.56 50.06 12.35Z" fill="#8B6C36"/></g><g><path d="M46.91 26.98 46.91 26.98C46.81 26.98 46.72 26.94 46.67 26.87 44.45 24.25 42.85 20.06 42.52 16.06 42.18 16.72 41.78 17.1 41.31 17.24 41.25 17.25 41.19 17.27 41.13 17.27 41.02 17.27 40.96 17.22 40.92 17.18 40.43 16.55 40.31 15.56 40.32 14.75 38.77 15.77 36.88 16.28 35.51 16.02 35.39 16 35.35 15.92 35.34 15.88 35.3 15.73 35.45 15.59 35.47 15.57L36.17 14.93C36.48 14.65 36.78 14.37 37.1 14.09 36.99 14.16 36.87 14.22 36.76 14.29 36.38 14.51 35.99 14.74 35.64 14.98 33.31 16.53 24.48 18.69 18.98 18.69 17.29 18.69 16.04 18.49 15.26 18.1 15.19 18.07 15.14 17.99 15.1 17.85 14.82 17.03 14.79 14.28 16.42 11.04 18.17 7.57 21.58 4.71 26.01 3.01 28.07 2.22 30.42 1.81 32.97 1.81 34.05 1.81 35.2 1.88 36.38 2.02 38.77 2.31 41.07 3.02 43.21 4.15 44.77 4.97 46.48 6.39 47.8 7.96 48.41 8.69 49 9.63 49.54 10.74 49.78 11.23 50 11.76 50.19 12.3 51.39 15.72 51.38 19.54 50.17 22.5 49.89 23.18 48.87 25.5 47.41 26.76 47.31 26.84 47.1 26.98 46.91 26.98ZM42.6 15.45 42.62 15.45C42.68 15.46 42.72 15.51 42.72 15.57 42.95 19.66 44.57 24.04 46.84 26.72 46.84 26.73 46.86 26.74 46.9 26.74 47 26.74 47.16 26.65 47.23 26.59 48.36 25.61 49.36 23.8 49.92 22.42 51.11 19.51 51.11 15.77 49.93 12.4 49.74 11.87 49.53 11.35 49.29 10.87 48.76 9.77 48.19 8.86 47.58 8.14 46.28 6.59 44.59 5.19 43.06 4.39 40.94 3.28 38.67 2.57 36.31 2.28 35.14 2.14 34.01 2.07 32.93 2.07 30.41 2.07 28.1 2.46 26.06 3.25 21.68 4.93 18.32 7.74 16.6 11.16 14.73 14.86 15.15 17.7 15.34 17.9 16.08 18.27 17.3 18.46 18.95 18.46 24.41 18.46 33.17 16.33 35.48 14.8 35.84 14.56 36.23 14.33 36.61 14.1 37.29 13.7 37.99 13.29 38.58 12.79L38.58 12.79 38.58 12.79C38.63 12.75 38.71 12.75 38.75 12.8 38.79 12.85 38.79 12.93 38.74 12.97L38.74 12.97 38.74 12.97C37.93 13.66 37.11 14.4 36.31 15.12L35.61 15.76C35.6 15.77 35.59 15.78 35.58 15.79 36.99 16.04 38.85 15.47 40.36 14.42 40.4 14.39 40.45 14.39 40.49 14.41 40.53 14.43 40.56 14.48 40.55 14.52 40.52 15.31 40.59 16.39 41.09 17.03 41.13 17.03 41.17 17.02 41.2 17.01 41.71 16.86 42.12 16.38 42.46 15.53 42.51 15.48 42.55 15.45 42.6 15.45Z" fill="#1D1D1B"/></g></g><g><g><g><path d="M45.85 29.88C45.81 29.87 45.78 29.82 45.78 29.77 45.79 29.71 45.91 28.34 47 27.83 47.39 27.65 47.71 27.63 47.96 27.76 48.29 27.93 48.36 28.28 48.36 28.3 48.37 28.36 48.33 28.41 48.28 28.42 48.22 28.43 48.17 28.39 48.16 28.34 48.16 28.34 48.1 28.06 47.86 27.94 47.67 27.84 47.4 27.87 47.08 28.02 46.1 28.47 45.98 29.77 45.98 29.78 45.97 29.83 45.93 29.88 45.87 29.87 45.86 29.88 45.85 29.88 45.85 29.88Z" fill="#1D1D1B"/></g><g><path d="M46.74 29.42C46.62 29.38 46.49 29.31 46.4 29.19 46.25 28.99 46.23 28.71 46.34 28.35 46.36 28.3 46.42 28.27 46.47 28.28 46.52 28.3 46.56 28.35 46.54 28.41 46.45 28.7 46.45 28.92 46.56 29.06 46.72 29.27 47.05 29.25 47.05 29.25 47.11 29.25 47.16 29.29 47.17 29.35 47.17 29.41 47.13 29.45 47.07 29.46 47.06 29.47 46.91 29.48 46.74 29.42Z" fill="#1D1D1B"/></g></g><g><g><path d="M15.55 22.83C15.6 22.84 15.64 22.81 15.66 22.77 15.68 22.72 16.18 21.43 15.43 20.5 15.16 20.16 14.88 20 14.6 20 14.23 20 14.01 20.29 14 20.3 13.96 20.35 13.97 20.41 14.02 20.44 14.06 20.48 14.13 20.47 14.17 20.42 14.17 20.42 14.35 20.2 14.61 20.19 14.83 20.19 15.05 20.33 15.28 20.61 15.96 21.45 15.49 22.66 15.48 22.68 15.46 22.73 15.48 22.79 15.54 22.81 15.54 22.83 15.54 22.83 15.55 22.83Z" fill="#1D1D1B"/></g><g><path d="M14.95 22.03C15.07 22.05 15.22 22.04 15.36 21.98 15.58 21.87 15.73 21.63 15.78 21.26 15.79 21.2 15.75 21.15 15.7 21.14 15.64 21.13 15.59 21.17 15.58 21.22 15.54 21.52 15.43 21.71 15.27 21.79 15.04 21.9 14.74 21.74 14.74 21.74 14.69 21.71 14.63 21.73 14.6 21.78 14.57 21.83 14.59 21.89 14.64 21.92 14.64 21.93 14.78 22 14.95 22.03Z" fill="#1D1D1B"/></g></g></g><g><g><path d="M51.67 13.73C52.53 12.77 52.96 11.41 52.58 10.22 52.23 9.13 50.98 8.58 49.93 8.57 49.9 6.94 49.03 5.23 47.7 4.43 46.47 3.7 45.2 3.48 43.92 4.01 43.82 3.79 43.72 3.57 43.61 3.36 42.85 1.89 41.71 1.3 40.11 1.13 39.37 1.05 38.48 1.2 37.8 1.61 36.88 0.41 35.19-0.14 33.44 0.22 32.9 0.33 31.85 0.97 31.18 1.73 30.07 0.91 28.6 0.87 27.32 1.87 27.23 1.94 27.1 2.07 26.95 2.23 25.7 1.43 23.61 1.68 22.36 2.37 21.49 2.85 20.89 3.65 20.58 4.56 19.31 4.43 17.57 5.44 16.88 6.09 16.25 6.69 15.67 7.69 15.65 8.57 15.63 9.11 15.73 9.81 16 10.4 15.94 10.4 15.88 10.4 15.82 10.4 15.21 10.44 14.55 10.97 14.28 11.49 13.88 12.26 13.95 13.32 14.36 14.14 13.69 14.74 13.21 15.57 13.16 16.42 13.11 17.33 13.9 18.21 14.77 18.31 14.86 18.32 14.95 18.32 15.04 18.31 15.04 18.66 15.04 19 15.07 19.34 15.15 20.26 15.38 21.88 16.11 22.55 16.23 22.66 16.45 22.43 16.5 22.33 16.79 21.82 16.81 21.19 16.93 20.62 17 20.29 17.1 19.96 17.21 19.64 18.52 20.06 19.93 19.66 21.05 18.84 21.11 18.87 21.16 18.9 21.22 18.93 22.21 19.38 23.3 19.03 24.24 18.41 25.39 18.93 27 18.86 27.95 18.42 28.8 18.03 29.73 17.55 30.47 16.92 30.63 17.03 30.82 17.12 31.07 17.19 31.8 17.4 32.58 17.26 33.27 17 33.69 16.84 34.23 16.44 34.68 15.95 35.32 16.75 36.33 17.32 37.44 17.36 38.33 17.39 39.17 17.06 39.9 16.53 39.93 16.62 39.96 16.71 39.99 16.8 40.48 17.98 41.48 18.57 42.56 18.66 42.41 19.12 42.39 19.6 42.52 20.1 42.71 20.81 43.14 21.13 43.65 21.19 43.62 22.01 43.78 22.85 44.04 23.54 44.34 24.34 45.69 27.24 46.87 27 48.09 26.75 49.13 25.54 49.75 24.52 49.75 24.52 49.76 24.51 49.76 24.5 50.09 24.25 50.37 23.98 50.47 23.84 50.84 23.32 51.03 22.68 50.98 22.07 51.46 21.66 51.84 21.12 52.12 20.57 52.72 19.41 52.61 18.23 51.89 17.31 52.14 17.01 52.35 16.7 52.44 16.52 52.99 15.51 52.5 14.42 51.67 13.73Z" fill="#C3501D"/></g><g><path d="M46.75 27.17 46.75 27.17C45.34 27.17 43.96 23.65 43.94 23.61 43.67 22.89 43.53 22.08 43.54 21.32 43.12 21.24 42.62 20.96 42.41 20.15 42.29 19.69 42.29 19.24 42.41 18.78 41.25 18.64 40.33 17.94 39.88 16.86 39.86 16.82 39.85 16.78 39.84 16.74 39.07 17.26 38.24 17.52 37.44 17.49 36.41 17.45 35.38 16.95 34.68 16.15 34.23 16.61 33.73 16.97 33.32 17.13 32.49 17.45 31.7 17.52 31.04 17.33 30.83 17.27 30.65 17.19 30.49 17.09 29.73 17.72 28.81 18.18 28.01 18.55 27.5 18.78 26.81 18.92 26.11 18.92 25.42 18.92 24.78 18.8 24.25 18.57 23.14 19.28 22.05 19.46 21.17 19.06 21.13 19.04 21.09 19.02 21.06 19 19.88 19.84 18.48 20.14 17.29 19.8 17.19 20.1 17.11 20.39 17.05 20.66 17.02 20.82 16.99 20.98 16.96 21.14 16.89 21.57 16.82 22.01 16.6 22.4 16.56 22.46 16.38 22.71 16.18 22.71 16.12 22.71 16.07 22.69 16.02 22.65 15.46 22.14 15.09 21.03 14.94 19.36 14.91 19.09 14.9 18.79 14.9 18.45 14.85 18.45 14.79 18.45 14.74 18.44 13.79 18.32 12.98 17.36 13.03 16.42 13.08 15.61 13.51 14.75 14.2 14.12 13.78 13.24 13.76 12.2 14.16 11.44 14.44 10.9 15.13 10.32 15.8 10.28 15.8 10.28 15.81 10.28 15.81 10.28 15.61 9.77 15.51 9.14 15.53 8.57 15.56 7.6 16.21 6.56 16.8 6 17.5 5.34 19.19 4.36 20.5 4.43 20.85 3.48 21.49 2.71 22.3 2.26 23.04 1.85 24.04 1.61 24.97 1.61 25.74 1.61 26.41 1.77 26.93 2.08 27.06 1.95 27.17 1.84 27.25 1.78 27.89 1.27 28.62 1 29.36 1 29.99 1 30.61 1.2 31.15 1.58 31.84 0.83 32.86 0.23 33.4 0.11 33.77 0.04 34.13 0 34.49 0 35.85 0 37.06 0.53 37.82 1.46 38.35 1.16 39.04 1 39.72 1 39.85 1 39.99 1.01 40.12 1.02 41.88 1.2 42.99 1.91 43.71 3.31 43.8 3.49 43.89 3.67 43.98 3.86 45.18 3.4 46.45 3.56 47.75 4.33 49.05 5.1 49.98 6.78 50.04 8.45 51.09 8.5 52.33 9.05 52.69 10.18 53.05 11.3 52.72 12.68 51.84 13.71 52.59 14.38 53.14 15.47 52.56 16.62 52.46 16.81 52.27 17.09 52.06 17.36 52.77 18.33 52.84 19.53 52.25 20.67 52.03 21.09 51.66 21.68 51.12 22.16 51.15 22.76 50.96 23.41 50.58 23.94 50.48 24.08 50.2 24.36 49.86 24.61 49.45 25.3 48.36 26.85 46.9 27.15 46.86 27.17 46.8 27.17 46.75 27.17ZM39.9 16.43C39.91 16.43 39.93 16.43 39.94 16.44 39.98 16.45 40.01 16.48 40.02 16.52 40.05 16.62 40.08 16.7 40.11 16.78 40.54 17.82 41.44 18.47 42.58 18.56 42.62 18.56 42.65 18.58 42.67 18.61 42.69 18.64 42.7 18.68 42.69 18.71 42.54 19.17 42.54 19.62 42.66 20.09 42.82 20.69 43.17 21.03 43.69 21.09 43.75 21.1 43.8 21.15 43.8 21.22 43.77 21.98 43.91 22.8 44.18 23.53 44.58 24.59 45.78 26.93 46.76 26.93L46.76 26.93C46.8 26.93 46.84 26.93 46.88 26.92 48.26 26.64 49.3 25.13 49.68 24.49 49.69 24.48 49.71 24.45 49.72 24.44 50.06 24.19 50.32 23.92 50.4 23.81 50.76 23.3 50.94 22.68 50.89 22.12 50.89 22.08 50.9 22.04 50.93 22.02 51.46 21.56 51.83 20.97 52.05 20.56 52.61 19.47 52.53 18.33 51.83 17.43 51.79 17.38 51.79 17.32 51.83 17.28 52.1 16.95 52.29 16.66 52.36 16.51 52.9 15.44 52.33 14.41 51.61 13.81 51.58 13.79 51.57 13.76 51.57 13.73 51.57 13.7 51.58 13.66 51.6 13.64 52.48 12.66 52.83 11.33 52.48 10.25 52.14 9.19 50.92 8.7 49.94 8.68 49.88 8.68 49.82 8.62 49.82 8.56 49.8 6.93 48.9 5.28 47.65 4.53 46.37 3.77 45.14 3.63 43.99 4.12 43.93 4.15 43.86 4.12 43.83 4.06 43.73 3.84 43.63 3.63 43.52 3.42 42.84 2.1 41.79 1.43 40.12 1.26 40 1.25 39.87 1.24 39.74 1.24 39.06 1.24 38.38 1.42 37.88 1.72 37.83 1.75 37.76 1.74 37.72 1.69 37.01 0.77 35.84 0.24 34.51 0.24 34.17 0.24 33.82 0.28 33.47 0.35 32.95 0.46 31.93 1.09 31.28 1.82 31.24 1.87 31.17 1.87 31.12 1.83 30.6 1.45 30 1.24 29.38 1.24 28.7 1.24 28.01 1.49 27.41 1.97 27.33 2.04 27.2 2.16 27.05 2.32 27.01 2.36 26.95 2.37 26.9 2.34 26.41 2.03 25.75 1.86 24.98 1.86 24.09 1.86 23.14 2.09 22.43 2.48 21.64 2.92 21.03 3.67 20.71 4.6 20.69 4.65 20.64 4.69 20.58 4.68 19.39 4.57 17.7 5.51 16.98 6.18 16.43 6.7 15.82 7.68 15.79 8.58 15.77 9.18 15.9 9.85 16.12 10.35 16.14 10.39 16.13 10.43 16.11 10.47 16.09 10.5 16.04 10.52 16.01 10.52L15.9 10.52C15.87 10.52 15.84 10.52 15.81 10.52 15.23 10.55 14.61 11.08 14.37 11.55 14 12.26 14.03 13.26 14.45 14.09 14.48 14.14 14.46 14.2 14.42 14.24 13.74 14.84 13.31 15.66 13.26 16.43 13.21 17.25 13.92 18.1 14.76 18.2 14.84 18.21 14.92 18.21 15.01 18.2 15.04 18.2 15.08 18.21 15.1 18.24 15.12 18.26 15.14 18.3 15.14 18.33 15.13 18.73 15.15 19.05 15.17 19.34 15.32 20.95 15.66 22 16.17 22.47 16.21 22.47 16.33 22.35 16.37 22.28 16.57 21.93 16.64 21.51 16.7 21.1 16.73 20.93 16.76 20.76 16.79 20.6 16.86 20.29 16.95 19.96 17.07 19.6 17.09 19.54 17.16 19.5 17.22 19.52 18.38 19.89 19.78 19.59 20.95 18.74 20.99 18.71 21.04 18.71 21.08 18.73L21.14 18.76C21.17 18.78 21.2 18.8 21.24 18.82 22.06 19.19 23.09 19.01 24.14 18.31 24.18 18.29 24.22 18.28 24.26 18.3 24.77 18.53 25.41 18.66 26.08 18.66 26.74 18.66 27.4 18.53 27.87 18.32 28.69 17.94 29.62 17.47 30.36 16.84 30.4 16.8 30.46 16.8 30.51 16.83 30.67 16.94 30.85 17.02 31.07 17.09 31.68 17.27 32.42 17.2 33.19 16.9 33.6 16.74 34.12 16.35 34.56 15.88 34.59 15.85 34.62 15.84 34.65 15.84 34.69 15.84 34.72 15.86 34.74 15.88 35.4 16.7 36.4 17.21 37.41 17.24 38.21 17.27 39.04 16.99 39.8 16.44 39.85 16.44 39.87 16.43 39.9 16.43Z" fill="#1D1D1B"/></g></g></g><g><g><g><path d="M26.9 32.87C26.77 32.71 26.68 32.54 26.68 32.36 26.67 31.61 27.42 31.77 27.89 31.93 28.88 32.27 29.82 32.71 30.89 32.74 31.97 32.78 33.05 32.34 34.09 32.12 34.57 32.02 35.77 31.88 35.62 32.71 35.55 33.07 35.16 33.5 34.88 33.71 33.9 34.46 32.54 34.62 31.35 34.52 30.18 34.43 29 34.21 27.96 33.65 27.66 33.5 27.17 33.22 26.9 32.87Z" fill="#F6BBD6"/></g><g><path d="M31.96 34.68C31.76 34.68 31.55 34.67 31.34 34.65 29.9 34.53 28.81 34.25 27.9 33.77 27.4 33.5 27.02 33.22 26.8 32.94 26.64 32.74 26.56 32.54 26.55 32.35 26.55 32.13 26.6 31.96 26.72 31.84 26.94 31.62 27.34 31.61 27.93 31.81 28.14 31.88 28.35 31.96 28.56 32.04 29.34 32.32 30.07 32.59 30.89 32.62 31.64 32.65 32.39 32.44 33.13 32.24 33.44 32.16 33.76 32.07 34.07 32 34.18 31.98 34.48 31.92 34.79 31.92 35.19 31.92 35.47 32.01 35.63 32.2 35.75 32.34 35.78 32.52 35.75 32.74 35.68 33.13 35.29 33.57 34.96 33.82 34.02 34.53 32.81 34.68 31.96 34.68ZM27.22 31.92C27.07 31.92 26.96 31.96 26.89 32.02 26.82 32.09 26.79 32.2 26.79 32.35 26.79 32.49 26.86 32.64 26.98 32.79 27.18 33.04 27.53 33.3 28 33.55 28.88 34.02 29.94 34.29 31.34 34.4 31.55 34.42 31.75 34.43 31.95 34.43 32.76 34.43 33.91 34.29 34.79 33.62 35.09 33.4 35.43 33 35.48 32.69 35.51 32.54 35.49 32.43 35.42 32.35 35.31 32.22 35.09 32.16 34.77 32.16 34.48 32.16 34.21 32.21 34.11 32.23 33.8 32.3 33.49 32.38 33.18 32.47 32.43 32.67 31.65 32.88 30.87 32.86 30.01 32.83 29.22 32.54 28.46 32.27 28.25 32.19 28.04 32.12 27.83 32.05 27.6 31.96 27.39 31.92 27.22 31.92Z" fill="#1D1D1B"/></g></g><g><g><path d="M31.38 33.18C30.27 33.06 28.79 32.95 27.77 33.56 27.84 33.6 27.9 33.64 27.96 33.66 29 34.22 30.18 34.44 31.35 34.53 32.34 34.61 33.45 34.51 34.37 34.03 33.48 33.52 32.39 33.3 31.38 33.18Z" fill="#ED6C85"/></g><g><path d="M31.95 34.68 31.95 34.68C31.75 34.68 31.54 34.67 31.34 34.66 29.9 34.54 28.81 34.26 27.9 33.78 27.84 33.75 27.78 33.71 27.71 33.67 27.67 33.65 27.65 33.61 27.65 33.57 27.65 33.53 27.67 33.49 27.71 33.47 28.27 33.14 29 32.98 29.95 32.98 30.48 32.98 31 33.03 31.4 33.07 32.68 33.21 33.67 33.5 34.43 33.94 34.47 33.96 34.49 34.01 34.49 34.05 34.49 34.1 34.46 34.14 34.42 34.16 33.75 34.5 32.89 34.68 31.95 34.68ZM28.02 33.56C28.9 34.03 29.96 34.3 31.35 34.41 32.37 34.49 33.34 34.36 34.09 34.03 33.39 33.67 32.49 33.43 31.36 33.3 30.97 33.26 30.45 33.21 29.94 33.21 29.15 33.21 28.52 33.33 28.02 33.56Z" fill="#1D1D1B"/></g></g><g><g><path d="M31.56 33.7C32.85 33.7 34.48 33.41 34.75 32.05 34.5 32.05 34.26 32.09 34.1 32.13 33.06 32.35 31.98 32.78 30.9 32.75 29.83 32.72 28.89 32.28 27.9 31.94 27.8 31.91 27.7 31.88 27.59 31.85 27.99 33.33 30.22 33.7 31.56 33.7Z" fill="#FFFFFF"/></g><g><path d="M31.58 33.82 31.58 33.82 31.56 33.82C30.96 33.82 27.96 33.72 27.47 31.87 27.46 31.83 27.47 31.78 27.5 31.75 27.53 31.72 27.57 31.71 27.62 31.71 27.73 31.74 27.84 31.77 27.94 31.8 28.15 31.87 28.36 31.95 28.57 32.03 29.35 32.31 30.08 32.58 30.9 32.61 31.65 32.64 32.4 32.43 33.14 32.23 33.45 32.15 33.77 32.06 34.08 31.99 34.18 31.97 34.45 31.91 34.75 31.91 34.79 31.91 34.82 31.93 34.84 31.95 34.86 31.98 34.87 32.02 34.87 32.05 34.65 33.2 33.48 33.82 31.58 33.82ZM27.77 32.02C28.26 33.16 30.08 33.57 31.56 33.58L31.58 33.7 31.58 33.58C32.78 33.58 34.25 33.33 34.59 32.18 34.38 32.19 34.2 32.23 34.12 32.25 33.81 32.32 33.5 32.4 33.19 32.49 32.44 32.69 31.66 32.9 30.88 32.88 30.02 32.85 29.23 32.56 28.47 32.29 28.26 32.21 28.05 32.14 27.84 32.07 27.83 32.04 27.8 32.03 27.77 32.02Z" fill="#1D1D1B"/></g></g></g><g><path d="M27.92 24.97C27.84 25.45 27.51 25.8 27.19 25.75 26.87 25.7 26.68 25.26 26.76 24.78 26.84 24.3 27.17 23.95 27.48 24 27.8 24.05 28 24.48 27.92 24.97Z"/></g><g><path d="M36.72 25.84C36.72 26.33 36.45 26.72 36.13 26.72 35.8 26.72 35.54 26.32 35.55 25.83 35.55 25.34 35.82 24.94 36.14 24.95 36.47 24.95 36.73 25.35 36.72 25.84Z"/></g></g></g></g></g></svg>