<svg width="123.96" height="180.63" viewBox="0 0 123.96 180.63" xmlns="http://www.w3.org/2000/svg" xmlns:xlink="http://www.w3.org/1999/xlink" xml:space="preserve" overflow="hidden"><defs></defs><g><radialGradient cx="74.3486" cy="135.394" r="18.7662" gradientUnits="userSpaceOnUse" id="SVGID_1_"><stop offset="0.0798" stop-color="#B1C135"/><stop offset="0.1225" stop-color="#A8BB36"/><stop offset="0.2876" stop-color="#88A63B"/><stop offset="0.4265" stop-color="#74993E"/><stop offset="0.5215" stop-color="#6D943F"/><stop offset="1" stop-color="#1F723C"/></radialGradient><g><rect x="41.49" y="31.3" width="63.7" height="148.33" stroke="#757A7B" fill="#B7C6D0"/><path d="M102.08 31.3 105.19 31.3 105.19 179.63 41.49 179.63 41.49 70.14C41.49 70.14 54.5 81.99 78 72.47 101.5 62.95 102.08 31.3 102.08 31.3Z" fill="#B7C6D0" opacity="0.73"/><path d="M1.49 149.33 41.49 179.63 41.49 31.3 1.49 1.01Z" fill="#A37C52"/><path d="M1.49 78.1 1.49 149.33 41.49 179.63 41.49 67.23C41.49 67.23 40.52 132.83 20.71 134.77 0.9 136.71 1.49 78.1 1.49 78.1Z" fill="#774F26" opacity="0.3"/><path d="M65.18 1.01 1.49 1.01 41.49 31.3 105.19 31.3Z" stroke="#757A7B" fill="#CBD7DE"/><path d="M1.49 149.33 41.49 179.63 41.49 31.3 1.49 1.01Z" stroke="#757A7B" fill="#BCCCD5"/><path d="M37.7 31.01 2.96 4.7 2.96 28.65C2.96 28.65 3.38 10.77 9.62 13.81 15.86 16.84 37.7 31.01 37.7 31.01Z" fill="#F3F4F5" opacity="0.74"/><path d="M42.31 30.03 5.28 1.98 64.26 1.98 85.42 18C85.42 18 70.2 4.58 38.37 4.58 6.53 4.59 42.31 30.03 42.31 30.03Z" fill="#F3F4F5" opacity="0.74"/><path d="M49.6 172.27C49.6 173.27 48.79 174.09 47.78 174.09 46.77 174.09 45.96 173.27 45.96 172.27 45.96 171.26 46.77 170.45 47.78 170.45 48.78 170.45 49.6 171.27 49.6 172.27Z" fill="#817073"/><path d="M49.6 40.38C49.6 41.39 48.79 42.2 47.78 42.2 46.77 42.2 45.96 41.38 45.96 40.38 45.96 39.38 46.77 38.56 47.78 38.56 48.78 38.56 49.6 39.37 49.6 40.38Z" fill="#817073"/><path d="M100.21 40.38C100.21 41.39 99.4 42.2 98.39 42.2 97.38 42.2 96.57 41.38 96.57 40.38 96.57 39.38 97.38 38.56 98.39 38.56 99.39 38.56 100.21 39.37 100.21 40.38Z" fill="#817073"/><path d="M100.64 172.27C100.64 173.27 99.83 174.09 98.82 174.09 97.82 174.09 97 173.27 97 172.27 97 171.26 97.82 170.45 98.82 170.45 99.83 170.45 100.64 171.27 100.64 172.27Z" fill="#817073"/><path d="M99.99 172.27C99.99 172.91 99.47 173.43 98.82 173.43 98.18 173.43 97.66 172.91 97.66 172.27 97.66 171.63 98.18 171.1 98.82 171.1 99.47 171.11 99.99 171.63 99.99 172.27Z" fill="#817073" opacity="0.4"/><path d="M98.97 40.09C98.97 40.73 98.45 41.26 97.8 41.26 97.16 41.26 96.64 40.74 96.64 40.09 96.64 39.45 97.16 38.93 97.8 38.93 98.45 38.92 98.97 39.44 98.97 40.09Z" fill="#817073" opacity="0.4"/><path d="M48.48 40.09C48.48 40.73 47.96 41.26 47.32 41.26 46.68 41.26 46.15 40.74 46.15 40.09 46.15 39.45 46.67 38.93 47.32 38.93 47.96 38.92 48.48 39.44 48.48 40.09Z" fill="#817073" opacity="0.4"/><path d="M48.94 172.27C48.94 172.91 48.42 173.43 47.78 173.43 47.14 173.43 46.61 172.91 46.61 172.27 46.61 171.63 47.13 171.1 47.78 171.1 48.42 171.11 48.94 171.63 48.94 172.27Z" fill="#817073" opacity="0.4"/></g><g><g><path d="M101.32 71.55C101.32 86.8 88.96 99.16 73.71 99.16 58.46 99.16 46.11 86.8 46.11 71.55 46.11 56.31 58.47 43.95 73.71 43.95 88.95 43.95 101.32 56.3 101.32 71.55Z" stroke="#8D6F39" fill="#A48044"/><path d="M50.08 81.68C49.33 79.14 48.91 76.44 48.91 73.65 48.91 58.01 61.59 45.32 77.24 45.32 79.6 45.32 81.89 45.61 84.08 46.16 81.14 45.09 77.97 44.49 74.65 44.49 59.4 44.49 47.04 56.85 47.04 72.1 47.04 79.96 50.34 87.05 55.61 92.07 53.21 89.23 51.38 85.95 50.28 82.37 50.25 82.29 50.23 82.2 50.2 82.11 50.17 81.97 50.12 81.83 50.08 81.68Z" fill="#C69C61"/><path d="M94.88 68.79C94.88 84.03 82.52 96.39 67.28 96.39 64.65 96.39 62.12 96.02 59.72 95.33 63.83 97.75 68.61 99.15 73.72 99.15 88.97 99.15 101.33 86.79 101.33 71.54 101.33 58.92 92.86 48.28 81.29 44.99 89.42 49.8 94.88 58.65 94.88 68.79Z" fill="#A48044" opacity="0.59"/></g><path d="M81.96 90.39C81.66 89.64 78.84 77.95 78.4 74.06 77.95 70.18 78.26 59.87 78.26 59.87 82.39 63.21 81.52 68.2 81.61 71.25L83.89 71.25C87.26 57.95 76.17 55.54 76.17 55.54 75.74 55.54 75.17 55.46 74.63 55.38 76.15 54.72 77.2 53.21 77.2 51.44 77.2 49.07 75.28 47.15 72.91 47.15 70.54 47.15 68.61 49.07 68.61 51.44 68.61 53.26 69.74 54.81 71.34 55.44 70.93 55.5 70.52 55.54 70.2 55.54 70.2 55.54 59.11 57.95 62.48 71.25L64.79 71.25C65.02 68.27 64.77 63.63 67.97 60.17 67.97 60.17 68.42 70.18 67.97 74.06 67.52 77.94 64.96 89.64 64.66 90.39 64.36 91.14 61.53 91.73 62.57 92.18 63.61 92.63 68.39 92.18 68.39 92.18L73.18 73.03 78.23 92.18C78.23 92.18 83.01 92.63 84.05 92.18 85.1 91.74 82.26 91.14 81.96 90.39Z" stroke="#B5252A" fill="#D92429"/></g><g><path d="M101.32 135.93C101.32 151.17 88.96 163.53 73.71 163.53 58.46 163.53 46.11 151.17 46.11 135.93 46.11 120.68 58.47 108.32 73.71 108.32 88.95 108.32 101.32 120.69 101.32 135.93Z" stroke="#C38937" fill="#EABE66"/><path d="M50.08 146.07C49.33 143.53 48.91 140.83 48.91 138.04 48.91 122.4 61.59 109.71 77.24 109.71 79.6 109.71 81.89 110.01 84.08 110.55 81.14 109.48 77.97 108.88 74.65 108.88 59.4 108.88 47.04 121.24 47.04 136.48 47.04 144.34 50.34 151.43 55.61 156.45 53.21 153.61 51.38 150.33 50.28 146.75 50.25 146.66 50.23 146.58 50.2 146.49 50.17 146.36 50.12 146.21 50.08 146.07Z" fill="#F1CF8F"/><path d="M94.88 133.17C94.88 148.42 82.52 160.78 67.28 160.78 64.65 160.78 62.12 160.4 59.72 159.72 63.83 162.14 68.61 163.54 73.72 163.54 88.97 163.54 101.33 151.18 101.33 135.94 101.33 123.32 92.86 112.68 81.29 109.39 89.42 114.19 94.88 123.04 94.88 133.17Z" fill="#E2B064" opacity="0.48"/></g><path d="M89.68 151.66C88.58 150.56 81.28 144.78 80.45 138.03 80.45 138.03 78.65 130.21 79.9 128.12 80.28 127.5 82.64 130.11 84.69 135.31L86.75 134.53C86.42 132.06 85.41 129.28 81.89 124.78 80.15 122.56 77.85 121.49 75.87 121.34 77.03 120.65 77.81 119.39 77.81 117.94 77.81 115.75 76.04 113.98 73.85 113.98 71.66 113.98 69.89 115.75 69.89 117.94 69.89 119.53 70.83 120.9 72.19 121.53 71.48 121.61 68.54 122.64 65.6 127.41 63.23 131.26 61.05 133.1 59.7 134.5L61.48 136.46C63.45 134.98 65.74 133.03 67.92 128.67 69.1 126.3 71.15 133.07 69.57 139.13 67.78 146.01 65.44 150.42 62.96 151.66 62.41 151.94 60.86 151.35 59.7 151.1L58.69 152.03C59.68 153.45 62.56 155.9 63.92 155.79 65.44 155.67 70.25 149.04 74.93 138.03 74.93 138.03 79.2 145.88 82.23 148.91 85.26 151.94 86.22 152.08 85.12 153.45 84.76 153.9 84.38 154.61 84.13 155.32L85.68 156.83C85.72 156.8 85.76 156.79 85.81 156.75 88.99 154.69 90.78 152.76 89.68 151.66Z" stroke="#204923" stroke-linecap="round" stroke-linejoin="round" fill="url(#SVGID_1_)"/><g><path d="M105.14 58.58C104.98 58.58 104.82 58.5 104.72 58.36 104.57 58.13 104.63 57.82 104.86 57.67L111.32 53.36C111.55 53.21 111.86 53.27 112.01 53.5 112.16 53.73 112.1 54.04 111.87 54.19L105.41 58.5C105.34 58.55 105.24 58.58 105.14 58.58L105.14 58.58Z" fill="#FF0000"/></g><g><path d="M107.3 69.35C107.04 69.35 106.82 69.15 106.8 68.88 106.78 68.6 106.99 68.37 107.27 68.35L123.43 67.27C123.71 67.26 123.94 67.46 123.96 67.74 123.98 68.02 123.77 68.25 123.49 68.27L107.33 69.35C107.32 69.35 107.31 69.35 107.3 69.35L107.3 69.35Z" fill="#FF0000"/></g><g><path d="M112.69 86.59C112.63 86.59 112.58 86.58 112.52 86.56L100.67 82.25C100.41 82.16 100.28 81.87 100.37 81.61 100.46 81.35 100.75 81.22 101.01 81.31L112.86 85.62C113.12 85.71 113.25 86 113.16 86.26 113.08 86.47 112.89 86.59 112.69 86.59L112.69 86.59Z" fill="#FF0000"/></g><g><path d="M42.65 57.5C42.58 57.5 42.51 57.49 42.44 57.45L28.43 50.99C28.18 50.87 28.07 50.58 28.19 50.33 28.31 50.08 28.6 49.97 28.85 50.09L42.86 56.55C43.11 56.67 43.22 56.96 43.1 57.21 43.02 57.39 42.84 57.5 42.65 57.5L42.65 57.5Z" fill="#FF0000"/></g><g><path d="M28.64 72.58C28.39 72.58 28.17 72.39 28.14 72.14 28.11 71.87 28.31 71.62 28.58 71.59L38.28 70.51C38.55 70.48 38.8 70.68 38.83 70.95 38.86 71.22 38.66 71.47 38.39 71.5L28.69 72.58C28.68 72.58 28.66 72.58 28.64 72.58L28.64 72.58Z" fill="#FF0000"/></g><g><path d="M29.72 94.13C29.53 94.13 29.35 94.02 29.27 93.84 29.15 93.59 29.26 93.29 29.51 93.18L43.52 86.72C43.77 86.6 44.07 86.71 44.18 86.96 44.3 87.21 44.19 87.51 43.94 87.62L29.93 94.08C29.86 94.12 29.79 94.13 29.72 94.13L29.72 94.13Z" fill="#FF0000"/></g></g></svg>