<svg width="59.2" height="75.07" viewBox="0 0 59.2 75.07" xmlns="http://www.w3.org/2000/svg" xmlns:xlink="http://www.w3.org/1999/xlink" xml:space="preserve" overflow="hidden"><defs></defs><g><path d="M53.67 27.92C53.67 27.92 56.66 33.99 56.92 34.66 57.18 35.32 59.17 38.41 59.17 38.41L50.79 42.72 51.34 34.51C51.34 34.51 51.97 33 52.56 31.16 53.15 29.32 53.67 27.92 53.67 27.92Z" fill="#008CE2"/><path d="M53.04 28.03C53.04 28.03 56.99 35.02 58.24 36.86 59.49 38.7 59.16 38.41 59.16 38.41L52.08 50.45 48.76 41.17C48.76 41.17 48.76 38.37 49.98 35.65 51.19 32.92 53.04 28.03 53.04 28.03Z" fill="#FFFBEE"/><path d="M59.04 38.14C58.14 37.68 57.23 37.39 56.27 37.12 54.94 36.74 53.55 36.33 52.27 35.82 51.4 35.47 50.79 34.95 50.78 33.97 50.78 33.9 50.78 33.83 50.79 33.77 50.51 34.45 50.23 35.1 49.98 35.66 48.76 38.38 48.76 41.18 48.76 41.18L52.08 50.46 59.16 38.42C59.16 38.42 59.29 38.53 59.08 38.18 59.07 38.16 59.05 38.15 59.04 38.14Z" fill="#EAE4D6"/><path d="M45.51 34.69C45.51 34.69 44.73 37.38 44.29 39.48L59.16 38.41C59.16 38.41 55.21 37.6 53.44 37.05 51.67 36.5 49.24 35.8 48.02 35.54 46.8 35.28 45.51 34.69 45.51 34.69Z" fill="#FFFBEE"/><path d="M33.16 54.31C33.16 54.31 36.8 56.03 37.98 57.31 39.16 58.59 38.57 59.32 35.91 62.71 33.25 66.1 32.22 66.88 32.22 66.88L30.5 66.22C30.5 66.22 35.44 59.96 35.74 59.05 36.04 58.14 32 56.6 31.63 56.4L33.16 54.31Z" fill="#F4D9BF"/><path d="M34.93 55.22C33.96 54.69 33.16 54.31 33.16 54.31L31.64 56.4C31.82 56.5 32.84 56.9 33.82 57.4 34.2 56.68 34.54 55.93 34.93 55.22Z" fill="#D4A87F"/><path d="M18.92 62.71C18.92 62.71 18.38 66.61 18.43 67.03 18.48 67.45 25.61 64.97 26.84 64.45 28.07 63.93 28.49 63.69 28.93 63.91 29.37 64.13 31.17 66.98 30.06 66.61 28.95 66.24 28.36 65.77 27.7 66.12 27.04 66.46 19.46 69.66 16.78 69.87 15.87 69.95 15.7 69.16 15.67 68.2 15.65 67.24 15.99 62.12 16.06 62.04 16.15 61.97 18.92 62.71 18.92 62.71Z" fill="#F4D9BF"/><path d="M18.67 64.65C18.8 63.65 18.93 62.71 18.93 62.71 18.93 62.71 16.15 61.98 16.08 62.05 16.05 62.08 15.97 63.05 15.89 64.22 16.82 64.24 17.74 64.43 18.67 64.65Z" fill="#D4A87F"/><path d="M30.58 36.1C30.58 36.1 39.21 39.78 44.82 39.09 44.82 39.09 44.38 41.52 44.41 41.59 44.43 41.66 38.04 42.23 29.28 37.78L30.58 36.1Z" fill="#F4D9BF"/><path d="M15.04 51.81C15.04 51.81 14.96 53.43 15.19 54.53 15.19 54.53 12.9 60.2 12.68 62.63 12.68 62.63 14.01 63 15.26 62.92 16.51 62.85 18.06 63.29 19.17 63.73 20.28 64.17 21.53 63.88 21.53 63.88L22.71 59.61C22.71 59.61 24.55 59.02 25.36 58.65 25.36 58.65 29.2 59.31 30.01 59.83 30.01 59.83 32.67 57.77 34.14 54.38 34.14 54.38 32.52 53.42 26.69 52.83L15.04 51.81Z" fill="#8D4200"/><path d="M18.33 54.78C18.34 54.76 18.36 54.74 18.37 54.73 18.38 54.64 18.44 54.57 18.54 54.61 21.1 55.68 25.32 55.31 27.07 52.88 26.94 52.87 26.82 52.85 26.69 52.84L15.03 51.81C15.03 51.81 14.95 53.43 15.18 54.53 15.18 54.53 12.89 60.2 12.67 62.63 12.67 62.63 14 63 15.25 62.92 15.4 62.91 15.56 62.91 15.71 62.92 16.15 60.09 16.95 57.33 18.33 54.78Z" fill="#8D4200"/><path d="M30.75 57.31C30.05 57.07 29.31 56.84 28.57 56.82 28.04 56.8 27.51 56.79 26.98 56.72 26.88 56.71 26.85 56.58 26.89 56.51 27.1 56.1 27.25 55.68 27.39 55.25 26.08 56.7 24.46 57.61 22.84 57.71 22.6 59.28 22.18 60.5 21.85 61.8 21.68 62.48 21.46 63.28 21.11 63.96 21.37 63.93 21.54 63.89 21.54 63.89L22.72 59.62C22.72 59.62 24.56 59.03 25.37 58.66 25.37 58.66 29.21 59.32 30.02 59.84 30.02 59.84 30.96 59.11 32.03 57.81 31.6 57.63 31.18 57.46 30.75 57.31Z" fill="#8D4200"/><path d="M14.59 56.06C15.5 56.36 16.52 56.26 17.12 55.37 17.56 54.71 17.56 53.91 17.43 53.16 17.36 52.77 17.25 52.38 17.13 51.99L15.04 51.81C15.04 51.81 14.96 53.43 15.19 54.53 15.18 54.53 14.94 55.15 14.59 56.06Z" fill="#9E6500"/><path d="M30.75 65.91C30.75 65.91 28.69 67.93 28.39 68.75 28.09 69.56 30.49 72.1 32.04 73.31 33.59 74.52 35.95 76 36.32 74.3 36.69 72.61 32.82 66.42 32.82 66.42 32.82 66.42 31.31 67.27 30.75 65.91Z" fill="#8D4200"/><path d="M31.57 70.2C32.27 71.5 33.18 72.32 34.73 72.21 35.09 72.18 35.45 72.13 35.81 72.04 34.82 69.61 32.82 66.42 32.82 66.42 32.82 66.42 31.31 67.27 30.75 65.9 30.75 65.9 30.15 66.49 29.55 67.16 30.61 67.6 31.11 69.34 31.57 70.2Z" fill="#8D4200" opacity="0.4"/><g><path d="M29.46 69.4C28.81 68.89 28.5 68.81 28.37 68.92 28.41 69.88 30.6 72.17 32.05 73.31 33.47 74.42 35.56 75.74 36.19 74.67 35.91 73.15 31.04 70.65 29.46 69.4Z" fill="#9E6500"/></g><path d="M27.8 64.03C27.8 64.03 28.65 63.7 29.28 64.91 29.9 66.13 29.1 66.31 29.1 66.31 29.1 66.31 30.69 67.38 31.35 68.59 32.02 69.81 34.52 71.64 35.48 70.98 36.44 70.32 36.25 68.22 34.37 66.16 32.49 64.1 29.8 61.45 28.32 62.92 27.88 63.37 27.8 64.03 27.8 64.03Z" fill="#8D4200"/><path d="M34.37 66.16C32.82 64.46 30.72 62.37 29.2 62.5 30.9 62.76 32.64 64.88 33.49 65.99 34.38 67.16 35.35 68.68 35.38 70.2 35.39 70.44 35.37 70.78 35.29 71.06 35.35 71.04 35.41 71.01 35.47 70.97 36.43 70.32 36.25 68.23 34.37 66.16Z" fill="#9E6500"/><path d="M21.31 33.4C23.37 33.47 26.25 34.28 30.83 35.98 30.83 35.98 29.72 38.85 28.47 40.4L25.89 39.59C25.89 39.59 27.22 48.35 27.29 52.69 27.29 52.69 26.55 54.02 22.27 54.16 17.99 54.31 14.01 52.17 14.01 52.17 14.01 52.17 14.67 35.9 17.85 33.62L21.31 33.4Z" fill="#905AB7"/><path d="M26.62 36.9C26.15 36.71 25.63 36.53 25.29 36.14 25.09 35.91 24.91 35.67 24.73 35.43 24.88 35.95 24.98 36.49 25.14 36.98 25.58 38.33 25.94 39.71 26.1 41.13 26.1 41.13 26.11 41.14 26.11 41.14 25.98 40.19 25.89 39.6 25.89 39.6L28.47 40.41C28.95 39.81 29.41 39.02 29.8 38.28 29.62 38.16 29.43 38.04 29.24 37.93 28.4 37.47 27.49 37.25 26.62 36.9Z" fill="#905AB7"/><path d="M17.4 43.6C17.42 43.45 17.65 43.47 17.69 43.6 17.96 44.55 18.59 45.53 19.42 46.08 19.72 45.15 20.2 44.22 20.93 43.57 19.86 42.75 19.01 41.65 18.4 40.45 17.85 39.37 17.26 38.03 17.31 36.79 17.39 34.83 19.26 34.72 20.82 34.9 20.96 34.41 21.03 33.88 21.19 33.41L17.84 33.62C14.67 35.9 14 52.17 14 52.17 14 52.17 15.06 52.74 16.67 53.27 16.62 50.03 16.96 46.75 17.4 43.6Z" fill="#905AB7"/><path d="M19.97 35.2C20.06 35.93 20.3 36.66 20.79 37.19 21.17 37.6 21.8 37.88 22.37 37.62 23.44 37.14 23.42 35.92 23.44 34.83 23.45 34.47 23.45 34.11 23.43 33.74 22.59 33.53 21.86 33.42 21.22 33.4L19.91 33.49C19.91 34.07 19.9 34.64 19.97 35.2Z" fill="#FFC000"/><path d="M18.53 44.94C18.81 45.38 19.12 45.8 19.51 46.15 20.13 45.1 20.82 44.12 21.56 43.12 22.24 42.21 22.94 41.29 23.83 40.58 23.47 40.26 23.09 39.95 22.71 39.64 21.06 41.22 19.76 43.02 18.53 44.94Z" fill="#FFC000"/><path d="M29.52 35.5C28.97 37.09 28.31 38.7 27.29 40.02L28.47 40.39C29.72 38.84 30.83 35.97 30.83 35.97 30.37 35.81 29.94 35.66 29.52 35.5Z" fill="#FFC000"/><path d="M20.62 33.5C20.62 33.5 20.67 36.89 22.05 36.59 23.43 36.3 22.59 32.96 22.59 32.96L20.62 33.5Z" fill="#D4A87F"/><path d="M26.32 34.43C24.2 33.78 22.6 33.45 21.31 33.4L17.84 33.62C17.51 33.86 17.21 34.25 16.93 34.76 19.77 36.39 23.47 36.07 26.32 34.43Z" fill="#C0C0C0"/><path d="M19.76 5.06C26.32 4.5 30.53 6.01 32.52 12.57 33.26 15 32.52 17.13 32.59 20.01 32.66 22.88 38.2 25.83 29.86 31.27 21.52 36.72 15.25 34.14 12.59 31.27 12.59 31.27 8.85 35.32 6.83 29.38 4.83 23.44 7.39 6.11 19.76 5.06Z" fill="#F4D9BF"/><path d="M33.66 9.7C33.66 9.7 29.87-2.23 15.76 0.37 11.22 1.21 5.86 4.3 4.39 8.96 4.39 8.96 1.34 9.16 0.16 17.75-1.02 26.34 4.68 32.08 7.64 33.7 9.61 34.78 14.59 35.64 17.73 34.15 17.73 34.15 14.41 33.55 12.7 30.95 12.7 30.95 10.29 33.17 9.36 29.57 9.06 28.44 9.74 26.54 11.38 26.87 11.87 26.97 12.36 27.41 12.51 28.29 12.51 28.29 13.1 29.22 13.94 30.11 13.94 30.11 13.45 27.85 13.05 25.5 12.66 23.15 12.85 20.89 12.85 20.89 12.85 20.89 14.04 18.89 16.65 16.69 16.46 16.04 16.21 15.4 15.9 14.79 16.4 15.22 16.91 15.64 17.37 16.11 18.65 15.11 20.22 14.1 22.11 13.24 22.84 12.91 23.55 12.6 24.24 12.33 24.1 11.76 23.92 11.2 23.67 10.68 24.16 11.06 24.58 11.52 24.96 12.05 27.36 11.14 29.46 10.56 30.99 10.21 30.93 9.63 30.79 9.07 30.54 8.55 31.02 9.01 31.32 9.54 31.54 10.09 32.87 9.79 33.66 9.7 33.66 9.7Z" fill="#AA0011"/><path d="M3.81 28.44C1.74 25.69 0.38 22.16 0.4 18.69 0.42 15.48 1.48 12.47 3.07 9.73 2.1 10.7 0.83 12.87 0.16 17.74-1.02 26.33 4.68 32.07 7.64 33.69 9.61 34.77 14.59 35.63 17.73 34.14 17.73 34.14 16.84 33.98 15.74 33.46 11.27 34.12 6.59 32.14 3.81 28.44Z" fill="#AA0011"/><path d="M28.38 10.69C27.33 10.95 26.31 11.25 25.29 11.61 25.23 11.63 25.18 11.61 25.15 11.57 25.11 11.56 25.08 11.54 25.05 11.5 24.5 10.61 23.64 10 22.73 9.5 23.16 10.31 23.54 11.13 23.8 12.01 23.83 12.12 23.74 12.19 23.65 12.19L23.65 12.19C21.55 13 19.22 13.84 17.61 15.49 17.57 15.53 17.48 15.55 17.43 15.51 16.54 14.85 15.79 13.98 14.82 13.44 15.16 14.61 15.5 15.78 15.97 16.91 16 16.97 15.95 17.04 15.9 17.08 14.43 18.2 13.21 19.64 12.28 21.24 12.28 22.47 12.42 23.71 12.66 24.91 12.96 26.4 13.19 28.02 13.77 29.46 13.6 28.62 13.29 27.08 13.02 25.5 12.63 23.15 12.82 20.89 12.82 20.89 12.82 20.89 14.01 18.89 16.62 16.69 16.43 16.04 16.18 15.4 15.87 14.79 16.37 15.22 16.88 15.64 17.34 16.11 18.62 15.11 20.19 14.1 22.08 13.24 22.81 12.91 23.52 12.6 24.21 12.33 24.07 11.76 23.89 11.2 23.64 10.68 24.13 11.06 24.55 11.52 24.93 12.05 27.27 11.16 29.31 10.59 30.83 10.24 30.03 10.17 29.16 10.5 28.38 10.69Z" fill="#AA0011"/><path d="M28.99 15.14C28.99 15.14 29.69 15.11 29.8 15.41 29.91 15.71 29.32 15.73 29.06 15.59 28.8 15.46 28.99 15.14 28.99 15.14Z" fill="#461A00"/><path d="M20.61 17.81C20.61 17.81 20.63 17.77 20.66 17.72 20.76 17.57 20.97 17.3 21.09 17.51 21.25 17.78 20.81 18.59 20.55 18.73 20.3 18.87 20.34 18.13 20.61 17.81Z" fill="#461A00"/><g><path d="M21.46 23.16C21.49 24 21.82 24.68 22.19 24.66 22.56 24.65 22.83 23.95 22.8 23.11 22.77 22.27 22.44 21.59 22.07 21.61 21.7 21.63 21.43 22.32 21.46 23.16Z" fill="#461A00"/><path d="M22.2 22.5C22.23 22.75 22.35 22.95 22.46 22.94 22.57 22.93 22.64 22.71 22.61 22.46 22.58 22.21 22.46 22.01 22.35 22.02 22.23 22.03 22.17 22.24 22.2 22.5Z" fill="#FFFFFF"/></g><g><path d="M29 20.91C29.02 21.7 29.31 22.33 29.64 22.32 29.97 22.31 30.22 21.66 30.2 20.87 30.18 20.08 29.89 19.45 29.56 19.46 29.23 19.47 28.98 20.12 29 20.91Z" fill="#461A00"/><path d="M29.67 20.29C29.7 20.53 29.8 20.71 29.9 20.7 30 20.69 30.06 20.49 30.03 20.25 30 20.01 29.9 19.83 29.8 19.84 29.7 19.85 29.64 20.05 29.67 20.29Z" fill="#FFFFFF"/></g><path d="M17.99 26.64C18.04 27.14 19.06 27.44 20.26 27.32 21.46 27.2 22.4 26.69 22.34 26.2 22.29 25.7 21.27 25.4 20.07 25.52 18.87 25.63 17.94 26.14 17.99 26.64Z" fill="#F9CBC0"/><path d="M30.09 23.57C30.29 23.89 31.05 23.76 31.79 23.29 32.53 22.82 32.97 22.18 32.76 21.86 32.56 21.54 31.79 21.67 31.06 22.14 30.32 22.62 29.88 23.26 30.09 23.57Z" fill="#F9CBC0"/><path d="M27.39 24.96C27.36 24.95 27.34 24.99 27.36 25.01 27.84 25.33 28.56 25.81 28.5 26.47 28.47 26.81 28.11 26.95 27.83 26.98 27.45 27.02 27.16 26.8 26.82 26.7 26.77 26.68 26.72 26.76 26.76 26.79 27.3 27.39 28.33 27.58 28.76 26.75 29.21 25.9 28.06 25.13 27.39 24.96Z" fill="#C39368"/><path d="M28.61 29.77C27.46 31.28 25.83 31.98 23.93 31.81 22.22 31.66 21.08 30.58 20.14 29.26 20.41 29.15 20.64 28.93 20.64 28.62 20.64 28.54 20.54 28.54 20.51 28.6 20.22 29.12 19.49 29.17 18.95 29.06 18.92 29.05 18.9 29.1 18.92 29.12 19.24 29.33 19.57 29.4 19.95 29.32 20.79 30.93 22.32 31.9 24.11 32.08 25.73 32.24 28.14 31.56 28.62 29.78 28.63 29.76 28.61 29.76 28.61 29.77Z" fill="#C39368"/><path d="M11.25 28.48C10.65 28.26 10.23 28.73 10.12 29.27 10.12 29.29 10.15 29.31 10.16 29.29 10.47 28.81 10.81 28.61 11.34 28.9 11.75 29.12 12.03 29.49 12.3 29.85 12.34 29.9 12.42 29.86 12.4 29.8 12.28 29.23 11.79 28.69 11.25 28.48Z" fill="#C39368"/><path d="M59.16 38.41C59.16 38.41 54.8 37.71 51.37 37.23 47.94 36.75 45.36 36.02 44.73 35.28 44.73 35.28 42.55 40.99 41.78 43.27 41.01 45.55 39.79 49.9 39.01 51.81 38.24 53.72 36.87 57.66 36.98 57.74 37.09 57.81 39.6 58.37 43.44 58.59 47.28 58.81 50.12 59.07 50.12 59.07 50.12 59.07 51.85 55.5 53.88 51.08 55.91 46.66 59.49 39.18 59.16 38.41Z" fill="#008CE2"/><path d="M59.16 38.41C59.16 38.41 58.65 38.33 57.84 38.2 57.6 38.99 57.25 39.75 56.88 40.49 56.28 41.69 55.79 42.95 55.28 44.2 54.33 46.53 53.45 48.89 52.41 51.18 51.41 53.37 50.47 55.59 49.5 57.8 49.33 58.19 49.15 58.58 48.97 58.96 49.7 59.02 50.11 59.06 50.11 59.06 50.11 59.06 51.84 55.49 53.87 51.07 55.91 46.66 59.49 39.18 59.16 38.41Z" fill="#004D99"/><g><g><path d="M43.2 49.35C43.89 47.63 42.07 46.41 40.25 46.01 38.43 45.62 37.35 47.48 37.35 47.48 30.83 47.36 25.16 42.59 23.4 40.96 22.97 41.36 22.59 41.8 22.22 42.26 28.56 49.53 36.65 49.79 36.65 49.79 36.65 49.79 36.7 50.43 37.86 51.02 39.01 51.61 39.51 50.83 39.51 50.83 40.05 50.61 40.74 50.58 41.57 51.22 42.41 51.86 42.55 51.02 42.55 51.02 42.9 50.82 42.85 50.38 42.85 50.38 43.35 49.94 43.2 49.35 43.2 49.35Z" fill="#F4D9BF"/></g><path d="M41.91 50.11C41.39 49.79 40.83 49.49 40.21 49.52 40.18 49.52 40.1 49.54 40.12 49.54 40.61 49.61 41.09 49.83 41.52 50.07 41.92 50.3 42.55 50.59 42.48 51.22 42.48 51.24 42.55 51.13 42.55 51.05 42.58 50.56 42.32 50.37 41.91 50.11Z" fill="#C39368"/><path d="M40.7 48.29C40.69 48.29 40.68 48.31 40.7 48.31 41.72 48.61 42.98 49.66 42.73 50.84 42.72 50.87 42.78 50.79 42.79 50.77 43.2 49.52 41.88 48.45 40.7 48.29Z" fill="#C39368"/><path d="M42.61 48.25C42.2 47.72 41.58 47.41 40.94 47.23 40.93 47.23 40.93 47.24 40.94 47.25 42.08 47.71 43.05 48.69 43.12 49.97 43.12 50.03 43.18 49.94 43.19 49.89 43.32 49.26 42.98 48.73 42.61 48.25Z" fill="#C39368"/></g><g><path d="M22.88 39.59C22.72 39.43 22.55 39.28 22.39 39.11L21.91 38.62 21.45 38.11C21.29 37.94 21.16 37.76 21.01 37.58L20.79 37.31C20.71 37.22 20.66 37.12 20.59 37.03L20.2 36.46 20.56 37.05C20.62 37.15 20.68 37.25 20.75 37.34L20.96 37.62C21.1 37.8 21.23 38 21.38 38.17L21.82 38.7C21.97 38.87 22.13 39.04 22.29 39.21 22.44 39.38 22.61 39.54 22.77 39.71 23.07 40.01 23.37 40.3 23.69 40.59L23.11 41.11 22.51 41.77C22.31 41.99 22.14 42.23 21.95 42.46 21.76 42.69 21.58 42.92 21.41 43.16 21.24 43.4 21.06 43.63 20.89 43.87L20.38 44.6C20.08 45.04 19.79 45.47 19.5 45.92 19.36 45.77 19.23 45.62 19.11 45.46 18.95 45.25 18.8 45.03 18.65 44.81 18.51 44.58 18.37 44.36 18.24 44.12 18.1 43.89 17.99 43.65 17.86 43.41 17.75 43.17 17.63 42.93 17.52 42.68 17.41 42.43 17.31 42.19 17.22 41.94 17.12 41.69 17.05 41.43 16.96 41.18 16.88 40.92 16.8 40.67 16.74 40.41 16.68 40.15 16.61 39.89 16.56 39.63 16.51 39.37 16.47 39.1 16.43 38.84 16.39 38.58 16.38 38.3 16.36 38.04 16.35 37.78 16.34 37.51 16.35 37.24L16.37 36.84 16.42 36.44C16.44 36.31 16.48 36.18 16.51 36.05 16.55 35.92 16.59 35.8 16.65 35.68 16.76 35.44 16.93 35.23 17.16 35.09 17.39 34.95 17.67 34.94 17.94 34.98 17.68 34.92 17.39 34.92 17.14 35.05 16.9 35.18 16.7 35.4 16.58 35.64 16.52 35.76 16.47 35.89 16.42 36.02 16.39 36.15 16.34 36.28 16.32 36.42L16.25 36.82 16.21 37.23C16.19 37.5 16.2 37.77 16.2 38.05 16.22 38.32 16.22 38.59 16.26 38.86 16.29 39.13 16.32 39.4 16.37 39.67 16.41 39.94 16.47 40.2 16.53 40.47 16.59 40.74 16.67 40.99 16.74 41.26 16.83 41.52 16.9 41.78 17 42.03 17.09 42.29 17.19 42.54 17.3 42.79 17.4 43.04 17.52 43.28 17.64 43.53 17.77 43.77 17.88 44.02 18.02 44.25 18.15 44.49 18.29 44.72 18.44 44.95 18.74 45.41 19.05 45.85 19.44 46.25L19.57 46.38 19.67 46.22C19.98 45.72 20.31 45.23 20.63 44.75L21.13 44.03C21.3 43.79 21.47 43.55 21.65 43.31 21.82 43.07 22 42.84 22.18 42.61 22.37 42.38 22.53 42.14 22.73 41.92L23.3 41.26 23.93 40.66 24.02 40.57 23.93 40.5C23.55 40.22 23.21 39.91 22.88 39.59Z" fill="#3F0076"/><path d="M26.05 40.77C26.03 40.6 26.02 40.35 25.98 40.06 25.95 39.77 25.9 39.43 25.83 39.07 25.79 38.89 25.76 38.7 25.72 38.51 25.68 38.32 25.63 38.13 25.58 37.94 25.53 37.75 25.48 37.56 25.43 37.37 25.38 37.18 25.31 37 25.25 36.83 25.14 36.48 25 36.16 24.89 35.89 24.77 35.62 24.66 35.4 24.58 35.25 24.5 35.1 24.44 35.02 24.44 35.02 24.44 35.02 24.47 35.11 24.52 35.28 24.58 35.44 24.64 35.68 24.73 35.96 24.77 36.1 24.82 36.25 24.86 36.41 24.91 36.57 24.95 36.74 25 36.92 25.1 37.27 25.2 37.64 25.29 38.02 25.34 38.21 25.4 38.39 25.44 38.58 25.48 38.77 25.53 38.95 25.57 39.13 25.62 39.31 25.66 39.48 25.7 39.64 25.74 39.8 25.78 39.96 25.81 40.1 25.88 40.38 25.94 40.62 25.99 40.79 26.04 40.96 26.07 41.05 26.07 41.05 26.07 41.05 26.06 40.94 26.05 40.77Z" fill="#3F0076"/></g></g></svg>