<svg width="483.79" height="252.49" viewBox="0 0 483.79 252.49" xmlns="http://www.w3.org/2000/svg" xmlns:xlink="http://www.w3.org/1999/xlink" xml:space="preserve" overflow="hidden"><defs></defs><g><radialGradient cx="276.063" cy="72.7299" r="48.2303" gradientUnits="userSpaceOnUse" id="SVGID_3_"><stop offset="0.0223" stop-color="#A14F1A"/><stop offset="0.9541" stop-color="#923722"/></radialGradient><linearGradient x1="281.266" y1="133.321" x2="281.266" y2="55.7417" gradientUnits="userSpaceOnUse" id="SVGID_4_"><stop offset="0.0223" stop-color="#E97C1A"/><stop offset="0.9944" stop-color="#FF9814"/></linearGradient><radialGradient cx="220.975" cy="19047.9" r="46.7595" gradientUnits="userSpaceOnUse" id="SVGID_12_" gradientTransform="matrix(1.0442 0 0 0.3006 -12.0413 -5627.2)"><stop offset="0.0223" stop-color="#A14F1A"/><stop offset="0.9541" stop-color="#923722"/></radialGradient><radialGradient cx="163.278" cy="56.3095" r="71.2325" gradientUnits="userSpaceOnUse" id="SVGID_13_"><stop offset="0.0223" stop-color="#A14F1A"/><stop offset="0.9541" stop-color="#923722"/></radialGradient><linearGradient x1="172.425" y1="145.543" x2="172.425" y2="26.0532" gradientUnits="userSpaceOnUse" id="SVGID_14_"><stop offset="0.0223" stop-color="#E97C1A"/><stop offset="0.9944" stop-color="#FF9814"/></linearGradient><linearGradient x1="189.18" y1="97.0067" x2="275.978" y2="97.0067" gradientUnits="userSpaceOnUse" id="SVGID_15_"><stop offset="0" stop-color="#FFFFFF"/><stop offset="1" stop-color="#890050"/></linearGradient><radialGradient cx="156.306" cy="19095" r="20.7141" gradientUnits="userSpaceOnUse" id="SVGID_16_" gradientTransform="matrix(1 0 0 0.3006 0 -5627.2)"><stop offset="0.0223" stop-color="#A14F1A"/><stop offset="0.9541" stop-color="#923722"/></radialGradient><radialGradient cx="140.709" cy="136.74" r="9.5126" gradientUnits="userSpaceOnUse" id="SVGID_17_"><stop offset="0.0223" stop-color="#A14F1A"/><stop offset="0.9541" stop-color="#923722"/></radialGradient><linearGradient x1="236.148" y1="117.34" x2="236.148" y2="89.7023" gradientUnits="userSpaceOnUse" id="SVGID_18_"><stop offset="0" stop-color="#3F3655"/><stop offset="1" stop-color="#654F4D"/></linearGradient><linearGradient x1="244.088" y1="182.709" x2="244.088" y2="88.1861" gradientUnits="userSpaceOnUse" id="SVGID_25_"><stop offset="0" stop-color="#4F404F"/><stop offset="1" stop-color="#3F3655"/></linearGradient><path d="M14.49 243.82 0 247.1 224.67 252.49 428.11 221.73Z" fill="#5E225F" fill-rule="evenodd" clip-rule="evenodd" opacity="0.5"/><path d="M163.21 224.19 14.49 240.47 14.49 243.82 224.67 248.82 483.79 214.32 483.79 211.64 314.4 210.79Z" fill="#D4C5CE" fill-rule="evenodd" clip-rule="evenodd"/><path d="M483.79 211.64 224.23 242.74 14.49 240.47 14.49 243.82 224.67 248.82 483.79 214.32Z" fill="#776E7E" fill-rule="evenodd" clip-rule="evenodd"/><g><g><path d="M277.28 237.03 124.76 228.42 124.78 228.17 277.3 236.78Z" fill="#776E7E"/></g><g><path d="M341.29 228.84 157.97 224.89 157.98 224.64 341.3 228.59Z" fill="#776E7E"/></g><g><path d="M151.09 242.07 151.06 241.82 218.26 233.45 218.29 233.69Z" fill="#776E7E"/></g><g><path d="M407.99 220.85 277.28 213.31 277.3 213.06 408.01 220.6Z" fill="#776E7E"/></g><g><path d="M357.12 217.7 357.07 217.46 386.31 211.03 386.36 211.27Z" fill="#776E7E"/></g></g><g><radialGradient cx="226.704" cy="194.313" r="55.9443" gradientUnits="userSpaceOnUse" id="SVGID_1_"><stop offset="0" stop-color="#9A95A5"/><stop offset="1" stop-color="#7F7996"/></radialGradient><radialGradient cx="226.922" cy="148.85" r="58.8078" gradientUnits="userSpaceOnUse" id="SVGID_2_"><stop offset="0" stop-color="#9A95A5"/><stop offset="1" stop-color="#89839E"/></radialGradient><path d="M155.74 162.58 163.7 228.29C163.7 228.29 237.13 232.42 295.19 224.01L297.65 159.32 155.74 162.58Z" fill="url(#SVGID_1_)" fill-rule="evenodd" clip-rule="evenodd"/><path d="M147.99 161.3 145.55 144.47C145.55 144.47 221.35 121.4 308.28 137.12L304.74 158.21C304.75 158.22 215.5 173.58 147.99 161.3Z" fill="url(#SVGID_2_)" fill-rule="evenodd" clip-rule="evenodd"/><path d="M145.56 144.48C145.56 144.48 226.93 154.48 308.29 137.13 308.29 137.13 239.88 119.72 145.56 144.48Z" fill="#DDD1D8" fill-rule="evenodd" clip-rule="evenodd"/><path d="M160.67 142.86C160.67 142.86 229.64 147.25 295.2 135.98 295.2 135.98 229.05 126.68 160.67 142.86Z" fill="#675D6F" fill-rule="evenodd" clip-rule="evenodd"/><g><g><path d="M227.07 165.74 226.77 165.72 228.18 146.8 227.79 142.87 228.09 142.84 228.48 146.8Z" fill="#776E7E"/></g><g><path d="M253.2 164.25 251.92 145.4 246.04 141.97 246.19 141.71 252.21 145.22 252.22 145.3 253.5 164.23Z" fill="#776E7E"/></g><g><path d="M266.44 163.11 266.14 163.1 267.1 143.78 261.21 140.46 261.36 140.2 267.41 143.61 267.4 143.71Z" fill="#776E7E"/></g><g><path d="M294.11 159.83 291.41 140.46 278.56 138.66 278.6 138.36 291.68 140.2 294.41 159.79Z" fill="#776E7E"/></g><g><path d="M301.38 158.8 301.08 158.77 302.95 138.34 286.41 137.55 286.43 137.25 303.28 138.05 303.26 138.21Z" fill="#776E7E"/></g><g><path d="M198.55 165.98 196.13 147.16 196.23 147.11 203.81 143.56 203.94 143.83 196.46 147.34 198.84 165.94Z" fill="#776E7E"/></g><g><path d="M183.26 165.76 179.57 146.81 187.01 143.56 187.13 143.84 179.91 146.99 183.56 165.7Z" fill="#776E7E"/></g><g><path d="M159.63 163.11 159.33 163.11 159.5 145.64 159.63 145.63 175.94 143.32 175.98 143.61 159.8 145.91Z" fill="#776E7E"/></g><g><path d="M151.22 161.69 150.93 161.64 153.6 145.27 153.7 145.25 165.96 142.98 166.01 143.27 153.86 145.52Z" fill="#776E7E"/></g><g><rect x="227.48" y="131.67" width="0.3" height="2.14" fill="#776E7E" transform="matrix(0.9953 -0.0969 0.0969 0.9953 -11.7916 22.6837)"/></g><g><rect x="240.88" y="132.1" width="2.95" height="0.3" fill="#776E7E" transform="matrix(0.6906 -0.7232 0.7232 0.6906 -20.6617 216.207)"/></g><g><path d="M263.62 133.88 263.37 133.72 264.75 131.56 265 131.72Z" fill="#776E7E"/></g><g><rect x="214.59" y="132.34" width="0.3" height="2.47" fill="#776E7E" transform="matrix(0.7905 -0.6125 0.6125 0.7905 -36.8184 159.522)"/></g><g><path d="M202.1 135.79 201.94 133.81 202.24 133.79 202.4 135.77Z" fill="#776E7E"/></g><g><path d="M195.25 136.74 192.06 135.22 192.19 134.95 195.38 136.48Z" fill="#776E7E"/></g><g><path d="M278.61 134.7 278.55 134.4 286.39 132.86 286.45 133.16Z" fill="#776E7E"/></g></g><g opacity="0.45"><path d="M157.97 180.97C157.97 180.97 160.39 175.76 163.04 175.66 165.69 175.57 172.23 189.07 173.84 200.27 175.45 211.47 162.22 215.99 162.22 215.99L157.97 180.97Z" fill="#776E7E" fill-rule="evenodd" clip-rule="evenodd"/><path d="M170.41 215.99C167.97 212.47 174.48 207.67 175.96 207.44 177.44 207.21 183.41 213.12 183.79 215.99 184.17 218.87 171.25 217.2 170.41 215.99Z" fill="#806C6D" fill-rule="evenodd" clip-rule="evenodd" opacity="0.53"/><path d="M175.96 201.59C175.21 200.13 169.48 177.17 171.09 173.58 172.7 169.99 198.47 166.2 205.48 169.51 212.49 172.83 211.83 201.53 206.33 205.98 200.84 210.43 178.95 207.4 175.96 201.59Z" fill="#806C6D" fill-rule="evenodd" clip-rule="evenodd"/><path d="M179.74 228.29C179.74 228.29 184.36 212.03 203.87 212.51 223.39 212.99 233.59 228.91 233.59 228.91 233.59 228.91 206.24 229.15 179.74 228.29Z" fill="#6C6273" fill-rule="evenodd" clip-rule="evenodd"/><path d="M204.31 209.39C205.13 207.27 210.51 204.09 212.4 204.38 214.29 204.66 218.18 211 216.57 212.52 214.96 214.03 203.82 210.65 204.31 209.39Z" fill="#776E7E" fill-rule="evenodd" clip-rule="evenodd"/><path d="M206.67 166.06C206.67 166.06 210.13 175.29 227.94 180.97 245.75 186.65 263.5 163.37 263.5 163.37 263.5 163.37 219.69 166.3 206.67 166.06Z" fill="#806C6D" fill-rule="evenodd" clip-rule="evenodd"/><path d="M157.97 163.11C157.97 163.11 159.41 169.29 163.58 171.44 167.75 173.59 185.19 165.46 185.19 165.46 185.19 165.46 159.63 163.62 157.97 163.11Z" fill="#776E7E" fill-rule="evenodd" clip-rule="evenodd"/><path d="M297.16 172.62C297.16 172.62 289.41 171.34 285.36 172.62 281.31 173.9 270.48 186.66 271.47 199.54 272.47 212.42 295.41 218.49 295.41 218.49L297.16 172.62Z" fill="#776E7E" fill-rule="evenodd" clip-rule="evenodd" opacity="0.53"/><path d="M297.49 163.82C297.49 163.82 290.37 163.35 288.57 165.22 286.77 167.09 297.22 171.12 297.22 171.12L297.49 163.82Z" fill="#776E7E" fill-rule="evenodd" clip-rule="evenodd"/><path d="M274.42 162.27C274.42 162.27 280.67 164.35 285.92 164.23 291.16 164.11 297.16 159.39 297.16 159.39 297.16 159.39 278.78 161.81 274.42 162.27Z" fill="#776E7E" fill-rule="evenodd" clip-rule="evenodd"/><path d="M279.41 169.79C279.74 164.74 243.8 179.16 239.88 184.93 235.96 190.7 255.67 206.99 259.64 205.98 263.62 204.97 268.79 197.93 269.3 195.83 269.81 193.73 279.28 171.75 279.41 169.79Z" fill="#6C6273" fill-rule="evenodd" clip-rule="evenodd" opacity="0.53"/><path d="M239.37 228.71C239.37 228.71 243.67 207.54 248.47 205.38 253.26 203.22 270.7 213.33 276.13 217.05 281.56 220.76 281.69 225.72 281.69 225.72 281.69 225.72 249.47 228.49 239.37 228.71Z" fill="#806C6D" fill-rule="evenodd" clip-rule="evenodd"/><path d="M263.51 207.45C263.11 205.93 267.68 202.53 269.29 202.67 270.9 202.81 272.98 208.5 272.18 210.2 271.37 211.9 264.08 209.62 263.51 207.45Z" fill="#776E7E" fill-rule="evenodd" clip-rule="evenodd"/><path d="M248.46 201.43C249.18 202.65 246.44 206.27 245.37 206.72 244.3 207.17 236.78 205.66 235.77 203.51 234.76 201.36 236.46 194.51 237.54 194.3 238.61 194.11 247.64 200.05 248.46 201.43Z" fill="#776E7E" fill-rule="evenodd" clip-rule="evenodd"/><path d="M236.27 184.76C235.93 183.67 218.96 178.44 214.99 179.96 211.01 181.48 211.21 199.16 212.08 201.88 212.95 204.59 223.07 209 226.7 208.63 230.34 208.26 239.31 194.49 236.27 184.76Z" fill="#806C6D" fill-rule="evenodd" clip-rule="evenodd" opacity="0.53"/><path d="M225.6 219.37C231.22 223.54 237.89 225.05 239.37 223.73 240.85 222.41 243.6 210.01 243.35 208.63 243.1 207.25 235.14 206.28 233.06 206.73 230.97 207.18 219.98 215.2 225.6 219.37Z" fill="#6C6273" fill-rule="evenodd" clip-rule="evenodd"/><path d="M218.56 207.45C217.6 207.42 219.23 212.81 221.36 213.47 223.49 214.13 224.72 210.91 224.67 210.46 224.62 210.01 219.74 207.49 218.56 207.45Z" fill="#806C6D" fill-rule="evenodd" clip-rule="evenodd"/><path d="M193.72 210.79C193.6 210.15 182.27 207.05 180.85 207.44 179.43 207.83 184.59 215.78 185.78 216 186.96 216.22 191.61 214.69 192.51 213.56 193.41 212.42 193.99 212.24 193.72 210.79Z" fill="#806C6D" fill-rule="evenodd" clip-rule="evenodd"/><path d="M176.83 228.83C176.83 228.83 179.22 220.24 170.81 218.87 162.4 217.5 163.71 228.29 163.71 228.29L176.83 228.83Z" fill="#776E7E" fill-rule="evenodd" clip-rule="evenodd"/></g><path d="M228.33 146.81C228.33 146.81 245.41 145.91 252.06 145.3L253.34 164.23 226.96 165.04 228.33 146.81Z" fill="#51255B" fill-rule="evenodd" clip-rule="evenodd" opacity="0.2"/><path d="M291.55 140.33 303.11 138.2 301.31 157.91 294.26 159.32Z" fill="#777290" fill-rule="evenodd" clip-rule="evenodd" opacity="0.2"/><path d="M172.44 187.38 209.87 196.94 210.58 185.93 171.96 184.08Z" fill="#A6565B" fill-rule="evenodd" clip-rule="evenodd" opacity="0.2"/><path d="M252.96 176.84 274.1 183.75 274.42 182.95 254.26 176.24Z" fill="#A6565B" fill-rule="evenodd" clip-rule="evenodd" opacity="0.2"/><path d="M216.95 215.36 194.27 228.71 210.58 228.83 223.68 219.11C223.68 219.11 218.79 216.28 216.95 215.36Z" fill="#A6565B" fill-rule="evenodd" clip-rule="evenodd" opacity="0.2"/><path d="M196.29 148.09 179.74 146.9 184.04 165.37 198.62 165.37Z" fill="#EBF5FF" fill-rule="evenodd" clip-rule="evenodd" opacity="0.2"/><path d="M297.16 166.06C297.16 166.06 219.99 169.23 192.13 177.94 164.27 186.66 161.79 212.5 161.79 212.5L155.74 162.58C155.74 162.58 234.88 170.04 297.15 159.4L297.15 166.06Z" fill="#885C89" fill-rule="evenodd" clip-rule="evenodd" opacity="0.5"/><path d="M277.29 142.86 272.36 162.49 279.41 161.68 284.28 141.84Z" fill="#777290" fill-rule="evenodd" clip-rule="evenodd" opacity="0.2"/></g><path d="M138.69 243.31 218.28 233.57 278.72 236.9 224.67 245.27Z" fill="#E7DEE3" fill-rule="evenodd" clip-rule="evenodd"/><path d="M138.69 243.31 137.15 247.79 226.45 250.89 280.89 241.95 278.72 236.9 224.67 245.27Z" fill="#776E7E" fill-rule="evenodd" clip-rule="evenodd"/><path d="M224.67 245.27 226.45 250.89 137.15 247.79 138.69 243.31Z" fill="#885C89" fill-rule="evenodd" clip-rule="evenodd" opacity="0.5"/><path d="M14.49 243.82 14.49 240.47 149.82 241.95 138.69 243.31 137.15 246.74Z" fill="#BCA4BD" fill-rule="evenodd" clip-rule="evenodd" opacity="0.5"/><path d="M278.91 133.32 268.36 133.78 253.36 141.26C253.36 141.26 232.25 144.14 177.04 143.47L177.13 145.31 173.98 145.55 167.72 146.32 161.51 163.38 147.99 161.31 145.55 144.48C145.56 144.48 222.43 123.62 278.91 133.32Z" fill="#40294A" fill-rule="evenodd" clip-rule="evenodd" opacity="0.7"/><path d="M295.2 224.01C295.2 224.01 214 234.29 173.98 235.58 133.96 236.87 53.03 236.25 53.03 236.25L163.22 224.19 163.72 228.29C163.71 228.29 246.9 231.02 295.2 224.01Z" fill="#5E225F" fill-rule="evenodd" clip-rule="evenodd" opacity="0.5"/><path d="M271.44 133.01 272.37 47.77 281.69 52.46 277.29 133.32Z" fill="url(#SVGID_3_)" fill-rule="evenodd" clip-rule="evenodd"/><path d="M281.44 57.07 285.24 55.74 278.91 133.32 277.29 133.32Z" fill="url(#SVGID_4_)" fill-rule="evenodd" clip-rule="evenodd"/><g><linearGradient x1="247.294" y1="63.6584" x2="247.294" y2="0.1595" gradientUnits="userSpaceOnUse" id="SVGID_5_"><stop offset="0.0223" stop-color="#E97C1A"/><stop offset="0.9944" stop-color="#FF9814"/></linearGradient><radialGradient cx="158.244" cy="20.5117" r="53.6388" gradientUnits="userSpaceOnUse" id="SVGID_6_"><stop offset="0.0223" stop-color="#A14F1A"/><stop offset="0.9541" stop-color="#923722"/></radialGradient><radialGradient cx="158.49" cy="26.4521" r="42.8418" gradientUnits="userSpaceOnUse" id="SVGID_7_"><stop offset="0.0223" stop-color="#A14F1A"/><stop offset="0.9541" stop-color="#923722"/></radialGradient><linearGradient x1="159.778" y1="31.909" x2="225.979" y2="31.909" gradientUnits="userSpaceOnUse" id="SVGID_8_"><stop offset="0" stop-color="#FFFFFF"/><stop offset="1" stop-color="#890050"/></linearGradient><linearGradient x1="310.082" y1="52.697" x2="310.082" y2="15.4083" gradientUnits="userSpaceOnUse" id="SVGID_9_"><stop offset="0" stop-color="#FFFFFF"/><stop offset="1" stop-color="#890050"/></linearGradient><radialGradient cx="267.755" cy="40.3262" r="14.5902" gradientUnits="userSpaceOnUse" id="SVGID_10_"><stop offset="0.0223" stop-color="#A14F1A"/><stop offset="0.9541" stop-color="#923722"/></radialGradient><radialGradient cx="238.666" cy="17.6635" r="13.6966" gradientUnits="userSpaceOnUse" id="SVGID_11_"><stop offset="0.0223" stop-color="#A14F1A"/><stop offset="0.9541" stop-color="#923722"/></radialGradient><path d="M122.78 63.7 280.66 51.45 294.26 2.99 159.68 7.02Z" fill="#6D2322" fill-rule="evenodd" clip-rule="evenodd"/><path d="M159.78 0.16 204.49 63.66 277.24 58.53 276.17 55.74 334.81 51.45 293.44 0.6Z" fill="url(#SVGID_5_)" fill-rule="evenodd" clip-rule="evenodd"/><path d="M204.49 63.66 199.41 69.92 159.68 7.02 122.78 63.7 120.24 62.44 159.78 0.16Z" fill="url(#SVGID_6_)" fill-rule="evenodd" clip-rule="evenodd"/><path d="M199.41 69.92 276.17 61.17 277.24 58.53 204.49 63.66Z" fill="#7C2D22" fill-rule="evenodd" clip-rule="evenodd"/><path d="M334.81 51.45 331.25 55.74 276.79 57.35 276.17 55.74Z" fill="#7C2D22" fill-rule="evenodd" clip-rule="evenodd"/><path d="M128.08 60.55 131.31 65.86 162.37 17.86 193.72 65.86 195.49 63.46 161.7 10.22Z" fill="url(#SVGID_7_)" fill-rule="evenodd" clip-rule="evenodd"/><path d="M131.31 65.86 134.65 64.22 164.38 20.94 162.37 17.86Z" fill="#7C2D22" fill-rule="evenodd" clip-rule="evenodd"/><path d="M193.72 65.86 196.84 65.86 195.49 63.46Z" fill="#6D2322" fill-rule="evenodd" clip-rule="evenodd"/><g><g><rect x="206.62" y="-5.21" width="0.5" height="73.34" fill="#CA5E40" transform="matrix(0.8536 -0.521 0.521 0.8536 13.9032 112.385)"/></g><g><path d="M244.61 60.97 194.4 0.32 194.78 0 245 60.65Z" fill="#CA5E40"/></g><g><rect x="215.94" y="27.64" width="0.5" height="14.56" fill="#CA5E40" transform="matrix(0.0163 -0.9999 0.9999 0.0163 177.742 250.512)"/></g><g><path d="M275.96 55.87 241.74 0.56 242.16 0.3 276.38 55.61Z" fill="#CA5E40"/></g><g><rect x="283.14" y="-7.5" width="0.5" height="69.09" fill="#CA5E40" transform="matrix(0.7685 -0.6398 0.6398 0.7685 48.2883 187.568)"/></g><g><path d="M317.55 52.86 271.25 0.69 271.63 0.36 317.93 52.53Z" fill="#CA5E40"/></g><g><rect x="285.35" y="15.56" width="20.15" height="0.5" fill="#CA5E40" transform="matrix(0.9992 -0.039 0.039 0.9992 -0.3916 11.5247)"/></g><g><rect x="245.33" y="-2.4" width="0.5" height="65.12" fill="#CA5E40" transform="matrix(0.9103 -0.4139 0.4139 0.9103 9.5394 104.358)"/></g></g><path d="M159.78 0.16 204.49 63.66 225.98 62.76 187.77 0.16Z" fill="url(#SVGID_8_)" fill-rule="evenodd" clip-rule="evenodd" opacity="0.2"/><path d="M285.35 16.2 318.05 52.7 334.81 51.45 305.49 15.41Z" fill="url(#SVGID_9_)" fill-rule="evenodd" clip-rule="evenodd" opacity="0.2"/><path d="M244.81 60.81 223.47 35.04 208.91 34.8 225.62 62.17Z" fill="#B5812A" fill-rule="evenodd" clip-rule="evenodd" opacity="0.2"/><path d="M305.49 53.59 261.28 0.49 241.95 0.43 276.17 55.74Z" fill="#B5812A" fill-rule="evenodd" clip-rule="evenodd" opacity="0.2"/><path d="M279.41 55.25 256.1 23.3 276.79 57.35Z" fill="url(#SVGID_10_)" fill-rule="evenodd" clip-rule="evenodd"/><path d="M229.64 0.52 247.69 34.8 232.11 0.52Z" fill="url(#SVGID_11_)" fill-rule="evenodd" clip-rule="evenodd"/><path d="M288.12 32.72 271.44 44.32 272.88 46.3 291.94 37.31Z" fill="#B5812A" opacity="0.2"/><path d="M206.87 15.81 237.69 15.81 241.63 23.3 213.75 23.3Z" fill="#E2C2AE" opacity="0.5"/><path d="M220.5 31.46 246.6 32.72 247.03 33.34 221.36 32.4Z" fill="#E2C2AE" opacity="0.5"/></g><path d="M171.58 89.92C171.58 89.92 186.14 105.94 175.49 120.15L273.62 112.81C273.62 112.81 281.38 96.13 269.14 89.7L171.58 89.92Z" fill="url(#SVGID_12_)" fill-rule="evenodd" clip-rule="evenodd"/><path d="M171.58 89.92C171.58 89.92 157.3 105.9 175.49 120.15 175.49 120.15 192.16 103.53 171.58 89.92Z" fill="#6D2322" fill-rule="evenodd" clip-rule="evenodd"/><path d="M166.55 145.54 173.98 145.54 167.72 26.05 163.47 19.55 154.48 32.4Z" fill="url(#SVGID_13_)" fill-rule="evenodd" clip-rule="evenodd"/><path d="M167.72 26.05 171.25 31.46 177.13 145.3 173.98 145.54Z" fill="url(#SVGID_14_)" fill-rule="evenodd" clip-rule="evenodd"/><path d="M178.4 114.7 187.77 114.7 177.44 116.83Z" fill="#6D2322" fill-rule="evenodd" clip-rule="evenodd"/><path d="M180.86 100.35 229.64 101.3C229.64 101.3 231.54 103.38 231.16 108.12L182.84 109.15C182.84 109.15 182.85 101.96 180.86 100.35Z" fill="#B5812A" fill-rule="evenodd" clip-rule="evenodd" opacity="0.2"/><path d="M273.72 93.66 189.18 97.35 189.18 100.35 275.98 100.35C275.98 100.35 276.04 95.58 273.72 93.66Z" fill="url(#SVGID_15_)" fill-rule="evenodd" clip-rule="evenodd" opacity="0.2"/><path d="M275.77 105.35 270.57 103.76 276.04 103.41Z" fill="#6D2322" fill-rule="evenodd" clip-rule="evenodd"/><path d="M165.51 102.88 151.07 104.75 147.84 135.78C147.84 135.78 148.29 137.47 151.83 136.48L153.09 107.06 166.25 107.06C166.25 107.07 167.41 104.26 165.51 102.88Z" fill="url(#SVGID_16_)" fill-rule="evenodd" clip-rule="evenodd"/><path d="M147.84 131.64 129.83 132.25C129.83 132.25 126.28 135.86 129.83 141.84L152.22 139.26C152.23 139.26 156.16 132.28 147.84 131.64Z" fill="url(#SVGID_17_)" fill-rule="evenodd" clip-rule="evenodd"/><path d="M129.84 132.25C129.84 132.25 134.88 137.06 129.84 141.84 129.84 141.84 125.67 137.99 129.84 132.25Z" fill="#6D2322" fill-rule="evenodd" clip-rule="evenodd"/><path d="M210.6 89.7C210.6 89.7 214.23 91.6 217.14 98.8 220.05 106 213.05 117.34 213.05 117.34L214.87 117.2C214.87 117.2 218.66 111.07 219.7 105.03 219.7 105.03 220.96 111.68 219.81 116.83L250.87 114.51C250.87 114.51 256.93 99.03 250.87 89.92 250.87 89.92 260.45 97.73 259.07 113.9L261.29 113.73C261.29 113.73 264.05 96.99 255.28 89.7L210.6 89.7Z" fill="url(#SVGID_18_)" fill-rule="evenodd" clip-rule="evenodd"/><path d="M227.73 89.7C227.73 89.7 234.44 104.57 225.98 116.37 225.98 116.37 232.26 106.43 227.73 89.7Z" fill="#3C2E44" fill-rule="evenodd" clip-rule="evenodd"/><path d="M243.38 89.76C243.38 89.76 252.1 94.78 248.39 114.7 248.39 114.7 251.3 98.05 243.38 89.76Z" fill="#3C2E44" fill-rule="evenodd" clip-rule="evenodd"/><path d="M213.05 117.34C213.05 117.34 218.16 107.65 216.89 101.05 215.62 94.45 210.6 89.7 210.6 89.7 210.6 89.7 217.67 92.52 218.21 100.63 218.75 108.74 213.05 117.34 213.05 117.34Z" fill="#3C2E44" fill-rule="evenodd" clip-rule="evenodd"/><path d="M233.83 233.57C233.83 233.57 214.52 234.14 196.29 238.36 187.19 240.47 256.82 242.06 268.55 235.83L233.83 233.57Z" fill="#5E225F" fill-rule="evenodd" clip-rule="evenodd" opacity="0.5"/><g><radialGradient cx="261.821" cy="200.335" r="24.4435" gradientUnits="userSpaceOnUse" id="SVGID_19_"><stop offset="0.0223" stop-color="#D15E1A"/><stop offset="1" stop-color="#A64E22"/></radialGradient><radialGradient cx="248.953" cy="189.75" r="12.9811" gradientUnits="userSpaceOnUse" id="SVGID_20_"><stop offset="0.0223" stop-color="#A14F1A"/><stop offset="0.9541" stop-color="#923722"/></radialGradient><linearGradient x1="252.049" y1="237.688" x2="252.049" y2="191.367" gradientUnits="userSpaceOnUse" id="SVGID_21_"><stop offset="0" stop-color="#FFFFFF"/><stop offset="1" stop-color="#890050"/></linearGradient><radialGradient cx="248.334" cy="217.289" r="16.4546" gradientUnits="userSpaceOnUse" id="SVGID_22_"><stop offset="0" stop-color="#9A95A5"/><stop offset="1" stop-color="#89839E"/></radialGradient><radialGradient cx="236.599" cy="198.472" r="3.3187" gradientUnits="userSpaceOnUse" id="SVGID_23_"><stop offset="0" stop-color="#9A95A5"/><stop offset="1" stop-color="#89839E"/></radialGradient><radialGradient cx="250.344" cy="177.371" r="18.2012" gradientUnits="userSpaceOnUse" id="SVGID_24_"><stop offset="0" stop-color="#E0DEE3"/><stop offset="1" stop-color="#B2AEC0"/></radialGradient><path d="M228.01 236.59 224.64 191.11C224.64 191.11 247.28 185.62 272.29 189.9L268.56 235.83C268.56 235.83 250.18 240.97 228.01 236.59Z" fill="url(#SVGID_19_)" fill-rule="evenodd" clip-rule="evenodd"/><path d="M224.64 191.11C224.64 191.11 244.76 193.57 272.29 189.9 272.29 189.9 253.03 183.62 224.64 191.11Z" fill="#FFA11A" fill-rule="evenodd" clip-rule="evenodd"/><path d="M230.65 190.51C230.65 190.51 253.26 186.13 267.25 189.68 267.25 189.68 246.76 192.47 230.65 190.51Z" fill="url(#SVGID_20_)" fill-rule="evenodd" clip-rule="evenodd"/><g><path d="M236.77 237.77 232.49 191.61 236.15 190.77 236.21 191.02 232.76 191.8 237.01 237.75Z" fill="#864040"/></g><g><path d="M245.78 238.36 245.53 238.35 246.1 191.96 245.56 191.29 245.75 191.13 246.35 191.88 246.35 191.92Z" fill="#864040"/></g><g><path d="M258.32 237.65 257.65 191.46 256.12 191.02 256.19 190.77 257.89 191.27 257.9 191.37 258.57 237.65Z" fill="#864040"/></g><g><path d="M260.65 237.39 260.4 237.37 263.97 190.92 262.76 190.3 262.88 190.07 264.23 190.77 264.22 190.85Z" fill="#864040"/></g><g><path d="M266.97 236.26 266.72 236.23 271.27 190.13 267.24 189.8 267.26 189.55 271.54 189.9 271.53 190.03Z" fill="#864040"/></g><path d="M246.22 191.92 245.66 237.38C245.66 237.38 253.69 238.32 258.43 236.9L257.77 191.37C257.77 191.37 248.91 192.63 246.22 191.92Z" fill="url(#SVGID_21_)" fill-rule="evenodd" clip-rule="evenodd" opacity="0.2"/><path d="M264.1 190.84 271.4 190.02 266.85 234.91 260.67 235.58Z" fill="#B5812A" fill-rule="evenodd" clip-rule="evenodd" opacity="0.2"/><path d="M233.69 191.75 234.82 215.36 232.63 191.7Z" fill="#7C2D22" fill-rule="evenodd" clip-rule="evenodd"/><path d="M261.85 190.28 263.49 190.9 262.47 212.06 264.53 190.82 263.69 190.09Z" fill="#7C2D22" fill-rule="evenodd" clip-rule="evenodd"/><path d="M226.08 210.5C226.08 210.5 249.21 215.22 270.6 210.79L269.62 222.82C269.62 222.82 250.07 226.74 226.93 220.71L226.08 210.5Z" fill="url(#SVGID_22_)" fill-rule="evenodd" clip-rule="evenodd"/><path d="M226.08 210.5C226.08 210.5 254.58 217.12 270.6 210.79 270.59 210.79 254.34 215.4 226.08 210.5Z" fill="#DDD1D8" fill-rule="evenodd" clip-rule="evenodd"/><path d="M252.05 224.01 255.22 213.49 262.9 212.8 262.9 223.69Z" fill="#DDD1D8" fill-rule="evenodd" clip-rule="evenodd"/><path d="M231.2 221.73 229.64 211.23 227.43 210.79 228.69 221.16Z" fill="#DDD1D8" fill-rule="evenodd" clip-rule="evenodd" opacity="0.5"/><path d="M233.83 194.68 239.37 195.03 239.37 202.26 234.19 202.26Z" fill="url(#SVGID_23_)" fill-rule="evenodd" clip-rule="evenodd"/><path d="M235.81 198.47C235.81 198.47 237.46 156.9 249.73 156.13 262 155.36 264.87 188.33 264.87 188.33L263.49 187.43C263.49 187.43 262.51 159.04 250.34 158.78 238.16 158.51 237.79 196.3 237.79 196.3 237.79 196.3 237.66 199.3 235.81 198.47Z" fill="url(#SVGID_24_)" fill-rule="evenodd" clip-rule="evenodd"/></g><path d="M235.46 89.78C235.46 89.78 239.16 88.07 242.36 88.2 245.56 88.33 254.04 103.47 252.96 117.35 251.88 131.23 230.86 137.43 231.21 140.69 231.56 143.95 254.16 141.08 257.3 142.87 260.44 144.65 261.7 180.01 256.15 182.57 251.11 184.9 250.34 158.79 250.34 158.79 250.34 158.79 251 156.89 249.73 156.14 249.73 156.14 250.74 154.83 252 155.18 253.26 155.53 252.57 159.33 252.57 159.33 252.57 159.33 252.76 179.38 255.85 179.3 258.94 179.21 257.29 149.25 254.28 145.55 251.95 142.69 241.26 145.55 230.46 142.86 219.66 140.17 250.83 129.07 252.05 117.34 253.35 104.75 242.02 89.92 242.02 89.92L235.46 89.78Z" fill="url(#SVGID_25_)" fill-rule="evenodd" clip-rule="evenodd"/><path d="M173.4 73.11 170.18 73.11 160.67 90.55 154.48 32.4 163.47 19.55 171.25 31.46Z" fill="#752322" fill-rule="evenodd" clip-rule="evenodd" opacity="0.79"/><path d="M284.27 67.57 280.81 68.55 271.97 84.72 272.22 61.62 276.17 61.17 277.24 58.53 276.79 57.35 285.35 56.83Z" fill="#752322" fill-rule="evenodd" clip-rule="evenodd" opacity="0.79"/><path d="M202.49 60.81 212.72 63.31 202.49 66.13Z" fill="#AB4522" fill-rule="evenodd" clip-rule="evenodd"/><path d="M278.21 53.59 285.35 55.07 277.86 56.49Z" fill="#AB4522" fill-rule="evenodd" clip-rule="evenodd"/><path d="M262.32 33.34 263.43 33.34 252.61 17.66Z" fill="#AB4522" fill-rule="evenodd" clip-rule="evenodd"/></g></svg>