<svg width="17.04" height="38.1" viewBox="0 0 17.04 38.1" xmlns="http://www.w3.org/2000/svg" xmlns:xlink="http://www.w3.org/1999/xlink" xml:space="preserve" overflow="hidden"><defs></defs><g><path d="M17.04 35.85C17.04 37.09 13.65 38.09 9.47 38.09 5.29 38.09 1.9 37.09 1.9 35.85 1.9 34.61 5.29 33.61 9.47 33.61 13.65 33.61 17.04 34.62 17.04 35.85Z" fill="#4B5051" opacity="0.35"/><path d="M4.08 34.47C4.08 34.47 3.76 34.53 3.95 35.17 4.14 35.8 5.41 38.3 7.97 37.7 10.54 37.1 8.95 36.22 11.36 36.75 13.77 37.29 15.92 35.71 14.53 35.17 13.14 34.63 8.92 34.32 8.92 34.32 8.92 34.32 9.02 35 8.13 34.54 7.24 34.07 4.56 34.21 4.08 34.47Z" fill="#4B5051" opacity="0.35"/><g><g><g><path d="M10.87 15.24C10.87 15.24 12.41 17.81 12.43 21.21 12.43 21.21 12.98 23.67 11.42 24.26 11.42 24.26 11.1 17.73 10.19 15.87 9.27 14.01 10.87 15.24 10.87 15.24Z" stroke="#AE7D2B" stroke-width="0.0677" fill="#DBAA49"/><g opacity="0.4"><path d="M10.87 15.24C10.87 15.24 10.97 15.41 11.13 15.73 11 15.77 10.89 15.84 10.92 15.99 10.98 16.31 11.39 17.17 11.66 17.95 11.66 17.95 11.86 18.47 11.77 18.54 11.68 18.61 12 19.45 12.01 20.63 12.02 21.81 12.27 22.13 12.12 22.59 11.98 23.05 12.11 23.34 12.21 23.11 12.31 22.88 12.37 23.15 11.9 23.77 11.82 23.88 11.78 23.98 11.78 24.07 11.67 24.15 11.55 24.22 11.42 24.27 11.42 24.27 11.1 17.74 10.19 15.88 9.27 14.01 10.87 15.24 10.87 15.24Z" stroke="#DBAA49" stroke-width="0.0677" fill="#DBAA49"/></g></g><path d="M11.94 23.45C11.93 23.45 11.91 23.45 11.9 23.45 11.88 23.45 11.87 23.43 11.87 23.41 11.87 23.39 11.89 23.38 11.91 23.38 12.1 23.42 12.23 23.06 12.24 23.06 12.25 23.04 12.27 23.03 12.28 23.04 12.3 23.05 12.31 23.07 12.3 23.08 12.3 23.09 12.16 23.45 11.94 23.45L11.94 23.45Z" fill="#AE7D2B"/></g><path d="M4.62 21.17C4.62 21.17 4.05 21.6 3.97 23.16 3.89 24.73 6.88 22.14 4.62 21.17Z" stroke="#322214" stroke-width="0.0677" stroke-linecap="round" stroke-linejoin="round" fill="#422E18"/><g><path d="M8.16 34.81C8.16 34.81 8.16 34.82 8.17 34.83 8.17 34.82 8.17 34.81 8.16 34.81L8.16 34.81Z" stroke="#921939" stroke-width="0.1015" fill="#CD1F45"/></g><g><path d="M4.4 33.17 4.53 33.12C4.53 33.12 4.99 33.3 5.57 33.32 6.15 33.34 6.77 33.21 6.83 33.2 6.83 33.2 7.48 34.16 7.83 34.38 5.08 34.48 5.57 36.78 5.61 36.94 5.4 36.8 5.23 36.64 5.1 36.46 4.65 35.85 4.19 34.76 4.24 34.52 4.28 34.29 4.2 33.27 4.4 33.17Z" stroke="#7F132C" stroke-width="0.0677" fill="#7F132C"/><path d="M7.83 34.39C7.83 34.39 9.18 34.75 9.37 35.68 9.56 36.61 9.03 37.29 7.78 37.42 6.89 37.51 6.13 37.3 5.61 36.95 5.57 36.78 5.08 34.49 7.83 34.39Z" stroke="#A5935B" stroke-width="0.0677" stroke-linecap="round" stroke-linejoin="round" fill="#D5C565"/><path d="M7.83 34.49C7.83 34.49 9.03 34.78 9.21 35.53 9.38 36.28 8.9 36.83 7.79 36.94 6.99 37.02 6.32 36.84 5.85 36.56 5.81 36.43 5.37 34.58 7.83 34.49Z" fill="#EDE5CA" opacity="0.39"/><path d="M7.87 34.65C7.87 34.65 8.89 34.89 9.02 35.43 9.15 35.96 8.72 36.33 7.76 36.37 7.07 36.4 6.5 36.25 6.1 36.04 6.08 35.94 5.76 34.63 7.87 34.65Z" fill="#E8DEBB" opacity="0.77"/><path d="M7.24 34.07C7.24 34.07 6.84 33.42 6.81 33.38 6.78 33.33 6.16 33.49 5.69 33.51 5.22 33.53 5.44 33.86 5.69 34.01 5.94 34.17 5.82 34.2 5.8 34.37 5.79 34.55 6.58 34.03 7.24 34.07Z" fill="#CD1F45" opacity="0.44"/><path d="M5.04 33.48C5.04 33.48 4.6 33.39 4.48 33.29 4.37 33.2 4.31 33.78 4.34 33.95 4.37 34.12 4.96 34.88 4.71 34.74 4.46 34.6 4.36 34.66 4.51 34.99 4.65 35.32 5.29 36.69 5.39 36.36 5.48 36.03 5.4 35.57 5.67 35.14 5.94 34.71 5.14 34.51 4.91 34.01 4.66 33.52 5.04 33.48 5.04 33.48Z" fill="#CD1F45" opacity="0.44"/><path d="M5.35 33.32C5.35 33.32 5.18 33.42 5.27 33.67 5.36 33.91 5.43 34.09 5.33 34.02 5.23 33.95 5.08 33.34 4.96 33.24 4.96 33.24 5.14 33.3 5.35 33.32Z" fill="#9D1B36" opacity="0.63"/><g><path d="M7.69 34.25C7.69 34.25 7.78 34.28 7.65 34.09 7.56 33.95 7.43 33.99 7.43 33.99 7.43 33.99 6.44 34.03 5.79 34.51 5.79 34.51 5.71 34.57 5.76 34.66L5.88 34.83C5.88 34.83 5.95 34.89 6.02 34.83 6.08 34.77 6.86 34.22 7.69 34.25Z" stroke="#25100D" stroke-width="0.0677" fill="#301611"/><path d="M7.33 33.8C7.33 33.8 7.43 33.83 7.29 33.64 7.2 33.5 7.07 33.54 7.07 33.54 7.07 33.54 6.07 33.58 5.42 34.06 5.42 34.06 5.34 34.12 5.39 34.21L5.51 34.39C5.51 34.39 5.58 34.45 5.65 34.39 5.71 34.32 6.49 33.77 7.33 33.8Z" stroke="#25100D" stroke-width="0.0677" fill="#301611"/><g><path d="M5.99 34.16C6.03 34.14 6.08 34.11 6.13 34.09 6.1 34.11 6.05 34.14 5.99 34.16Z" fill="none"/><path d="M6.11 34.54C6.22 34.67 6.52 34.47 6.71 34.44 6.33 34.59 6.05 34.79 6.01 34.83 5.94 34.89 5.87 34.83 5.87 34.83L5.75 34.66C5.7 34.56 5.79 34.5 5.79 34.5 5.91 34.41 6.05 34.33 6.19 34.27 6.13 34.32 6.02 34.43 6.11 34.54Z" stroke="#25100D" stroke-width="0.0677" stroke-linecap="round" stroke-linejoin="round" fill="#301611" opacity="0.43"/><path d="M6.14 34.08C6.14 34.08 6.13 34.08 6.13 34.09 6.14 34.09 6.14 34.08 6.14 34.08L6.14 34.08Z" stroke="#25100D" stroke-width="0.0677" fill="#301611"/><path d="M5.42 34.06C5.6 33.93 5.81 33.83 6.02 33.75L6.02 33.76C6.02 33.76 5.66 33.93 5.75 34.12 5.79 34.22 5.91 34.21 6 34.17 5.81 34.28 5.68 34.37 5.65 34.39 5.58 34.45 5.51 34.39 5.51 34.39L5.39 34.21C5.33 34.11 5.42 34.06 5.42 34.06Z" stroke="#25100D" stroke-width="0.0677" stroke-linecap="round" stroke-linejoin="round" fill="#301611" opacity="0.43"/></g><g><path d="M7.16 33.61C7.16 33.61 6.65 33.62 6.26 33.76 5.86 33.9 6.45 33.86 6.65 33.83 6.84 33.79 7.43 33.76 7.16 33.61Z" fill="#FFC113" opacity="0.14"/><path d="M7.52 34.03C7.52 34.03 7.01 34.04 6.62 34.18 6.22 34.32 6.81 34.28 7.01 34.25 7.2 34.21 7.79 34.18 7.52 34.03Z" fill="#FFC113" opacity="0.14"/></g><path d="M7.69 34.25C7.69 34.25 7.78 34.28 7.65 34.09 7.56 33.95 7.43 33.99 7.43 33.99 7.43 33.99 6.44 34.03 5.79 34.51 5.79 34.51 5.71 34.57 5.76 34.66L5.88 34.83C5.88 34.83 5.95 34.89 6.02 34.83 6.08 34.77 6.86 34.22 7.69 34.25Z" stroke="#25100D" stroke-width="0.0677" fill="none"/><path d="M7.33 33.8C7.33 33.8 7.43 33.83 7.29 33.64 7.2 33.5 7.07 33.54 7.07 33.54 7.07 33.54 6.07 33.58 5.42 34.06 5.42 34.06 5.34 34.12 5.39 34.21L5.51 34.39C5.51 34.39 5.58 34.45 5.65 34.39 5.71 34.32 6.49 33.77 7.33 33.8Z" stroke="#25100D" stroke-width="0.0677" fill="none"/></g><path d="M4.47 34.52C4.24 34.35 4.22 33.98 4.22 33.97L4.29 33.97C4.29 33.97 4.31 34.33 4.52 34.47L4.47 34.52 4.47 34.52Z" fill="#561025"/><path d="M5.3 33.95 5.18 33.7C5.08 33.38 5.23 33.27 5.24 33.26L5.28 33.32C5.28 33.32 5.16 33.41 5.25 33.68L5.37 33.93 5.3 33.95 5.3 33.95Z" fill="#561025"/></g><path d="M10.19 31.61C10.75 31.56 10.81 31.23 10.81 31.23L10.79 30.84C10.79 30.84 11.14 30.79 11.24 31.23 11.33 31.63 11.39 32.17 11.26 32.37 11.23 32.39 11.2 32.4 11.17 32.42 10.3 32.86 9.21 32.42 9.21 32.42 9.21 32.42 8.94 32.45 8.84 31.92 8.74 31.38 8.84 31.1 9.07 30.94L9.2 30.84 9.34 31.51C9.35 31.52 9.63 31.66 10.19 31.61Z" stroke="#A5935B" stroke-width="0.0677" fill="#D3C58D"/><path d="M9.22 27.43C9.5 26.05 9.07 24.73 9.07 24.73L11.1 25.51C11.1 25.51 11.23 26.71 10.92 27.17 10.61 27.63 10.81 29.82 10.79 30.83L10.81 31.22C10.81 31.22 10.75 31.55 10.19 31.6 9.63 31.65 9.35 31.51 9.35 31.51L9.21 30.84C9.21 30.84 8.94 28.81 9.22 27.43Z" stroke="#AE7D2B" stroke-width="0.0677" fill="#DBAA49"/><path d="M4.69 31.23C4.69 31.23 4.69 31.22 4.69 31.23L4.72 31.52C4.72 31.52 4.79 31.78 5.41 32.01 6.03 32.24 6.37 31.92 6.37 31.92L6.38 31.47C6.38 31.47 6.92 31.44 7 31.75 7.08 32.07 6.91 32.49 6.91 32.56 6.91 32.62 7.18 32.98 6.82 33.21 6.76 33.22 6.14 33.35 5.56 33.33 4.98 33.31 4.52 33.13 4.52 33.13 4.52 33.13 4.28 33.07 4.31 32.59 4.34 32.12 4.32 32.04 4.24 31.79 4.17 31.53 4.41 31.13 4.69 31.23Z" stroke="#A5935B" stroke-width="0.0677" fill="#D3C58D"/><path d="M5.42 32.01C4.8 31.78 4.73 31.52 4.73 31.52L4.7 31.22C4.7 31.1 4.65 29.6 4.8 28.78 4.95 27.93 5.09 25.83 5.09 25.83L7.1 25.77C7.1 25.77 6.9 27.63 6.62 28.19 6.34 28.74 6.4 31.48 6.4 31.48L6.39 31.93C6.38 31.92 6.04 32.24 5.42 32.01Z" stroke="#AE7D2B" stroke-width="0.0677" fill="#DBAA49"/><g opacity="0.37"><path d="M4.79 28.78C4.94 27.93 5.08 25.83 5.08 25.83L7.09 25.77C7.09 25.77 7.01 26.51 6.88 27.2 6.84 27.08 6.65 26.58 6.06 26.66 5.45 26.75 5.32 27.5 5.27 28.02 5.22 28.63 5 29.19 4.97 29.79 4.94 30.42 4.82 31.75 5.55 31.9 5.87 31.97 6.16 31.93 6.38 31.82L6.38 31.92C6.38 31.92 6.04 32.24 5.42 32.01 4.8 31.78 4.73 31.52 4.73 31.52L4.7 31.22C4.69 31.09 4.65 29.6 4.79 28.78Z" stroke="#DBAA49" stroke-width="0.0677" fill="#DBAA49"/></g><g opacity="0.4"><path d="M9.07 24.73 11.1 25.51C11.1 25.51 11.11 25.64 11.12 25.82 10.76 25.86 9.94 26.02 9.87 26.73 9.78 27.65 9.81 27.36 9.65 27.74 9.49 28.12 9.18 29.29 9.76 31.21 9.81 31.38 9.88 31.51 9.96 31.61 9.56 31.61 9.35 31.51 9.35 31.51L9.21 30.84C9.21 30.84 8.95 28.8 9.23 27.43 9.5 26.06 9.07 24.73 9.07 24.73Z" stroke="#DBAA49" stroke-width="0.0677" fill="#DBAA49"/></g><path d="M6.21 31.54C6.21 31.54 6.24 29.77 6.25 29.25 6.25 28.73 5.71 28.96 5.58 29.29 5.46 29.62 5.34 32.29 6.21 31.54Z" fill="#EDBA57" opacity="0.53"/><path d="M10.62 31.16C10.62 31.16 10.66 28.89 10.66 28.22 10.67 27.55 10.24 27.85 10.14 28.28 10.04 28.71 9.93 32.13 10.62 31.16Z" fill="#EDBA57" opacity="0.53"/><path d="M6.62 31.62C6.62 31.62 6.95 31.58 6.86 32.01 6.77 32.44 6.39 32.68 6.54 32.77 6.7 32.86 6.85 32.72 6.9 32.9 6.95 33.08 6.51 33.1 5.88 33.11 5.25 33.11 4.55 33.01 4.55 32.68 4.55 32.35 4.56 32.56 4.85 32.56 5.04 32.56 4.83 32.43 4.77 32.38 4.6 32.24 4.23 31.79 4.39 31.55 4.46 31.44 4.59 31.51 4.66 31.68 4.85 32.12 5.46 32.29 5.9 32.28 6.67 32.25 6.78 31.67 6.62 31.62Z" fill="#E6DBB5" opacity="0.83"/><path d="M10.89 31.33C10.89 31.33 11 31.2 10.95 31.06 10.9 30.92 11.15 31.05 11.14 31.4 11.13 31.76 10.91 32 11.15 31.96 11.15 31.96 11.22 31.97 11.23 32.07 11.24 32.16 10.91 32.52 10.02 32.48 9.13 32.44 9.11 32.16 9.03 31.88 8.94 31.55 8.87 31.26 9.07 31.12 9.07 31.12 9.16 31.08 9.17 31.19 9.17 31.3 9.05 31.52 9.42 31.72 9.8 31.92 10.77 31.78 10.89 31.33Z" fill="#E6DBB5" opacity="0.83"/><path d="M11.17 31.83C11.16 31.83 11.15 31.83 11.14 31.82 11.13 31.81 11.13 31.78 11.14 31.77 11.24 31.68 11.22 31.44 11.21 31.35 11.21 31.33 11.22 31.31 11.24 31.31 11.26 31.31 11.28 31.32 11.28 31.34 11.28 31.35 11.33 31.69 11.19 31.82 11.18 31.82 11.17 31.83 11.17 31.83L11.17 31.83Z" fill="#A5935B"/><path d="M4.67 32.44C4.67 32.44 4.67 32.44 4.67 32.44 4.4 32.36 4.27 31.93 4.27 31.91 4.27 31.89 4.28 31.87 4.29 31.87 4.31 31.87 4.33 31.88 4.33 31.89 4.33 31.89 4.45 32.31 4.68 32.37 4.7 32.37 4.71 32.39 4.7 32.41 4.7 32.43 4.69 32.44 4.67 32.44L4.67 32.44Z" fill="#A5935B"/><path d="M6.71 32.7C6.68 32.7 6.66 32.7 6.63 32.68 6.61 32.67 6.6 32.65 6.61 32.64 6.62 32.62 6.64 32.61 6.65 32.62 6.77 32.67 6.88 32.54 6.88 32.53 6.89 32.52 6.91 32.51 6.93 32.53 6.94 32.54 6.95 32.56 6.93 32.58 6.94 32.59 6.84 32.7 6.71 32.7L6.71 32.7Z" fill="#A5935B"/><path d="M9.18 32.67C9.17 32.67 9.17 32.67 9.16 32.67 9.15 32.66 9.14 32.65 9.14 32.65 9.11 32.62 9.03 32.58 8.92 32.53L9.22 32.42 9.18 32.67Z" fill="none"/><path d="M9.21 32.42C9.21 32.42 10.3 32.86 11.17 32.42 11.2 32.4 11.23 32.39 11.26 32.37 11.25 32.39 11.23 32.41 11.21 32.43 11.21 32.43 11.27 32.5 11.37 32.61 11.19 32.6 10.53 32.58 10.29 33.01 10.29 33.01 10.21 32.87 9.95 32.94 9.7 33 9.32 32.84 9.16 32.68 9.17 32.68 9.17 32.68 9.18 32.68L9.21 32.42Z" stroke="#A5935B" stroke-width="0.0677" fill="#C5B883"/><path d="M9.95 32.93C10.21 32.86 10.29 33 10.29 33 10.53 32.57 11.19 32.59 11.37 32.6 11.68 32.93 12.37 33.62 12.86 33.81 12.86 33.81 11.09 34.21 10.87 35.73 10.85 35.88 10.84 36.02 10.85 36.16 9.8 35.54 9.21 34.91 9.08 34.87 8.94 34.82 8.89 34.33 8.93 34.11 8.97 33.89 8.79 32.76 9.16 32.68 9.32 32.84 9.7 33 9.95 32.93Z" stroke="#561025" stroke-width="0.0677" fill="#7F132C"/><path d="M10.88 35.73C11.09 34.21 12.87 33.81 12.87 33.81 12.87 33.81 14.52 33.96 14.73 35.16 14.94 36.36 12.49 37.03 11.22 36.36 11.1 36.29 10.98 36.23 10.86 36.16 10.85 36.02 10.86 35.88 10.88 35.73Z" stroke="#A5935B" stroke-width="0.0677" stroke-linecap="round" stroke-linejoin="round" fill="#D5C565"/><path d="M11.23 35.5C11.41 34.25 12.93 33.92 12.93 33.92 12.93 33.92 14.34 34.04 14.52 35.03 14.7 36.02 12.6 36.58 11.51 36.02 11.4 35.97 11.3 35.91 11.21 35.86 11.2 35.74 11.21 35.62 11.23 35.5Z" fill="#EDE5CA" opacity="0.39"/><path d="M11.64 35.06C11.79 34.24 13.03 34.02 13.03 34.02 13.03 34.02 14.18 34.1 14.33 34.75 14.48 35.4 12.76 35.76 11.88 35.4 11.79 35.36 11.71 35.33 11.63 35.29 11.63 35.22 11.63 35.14 11.64 35.06Z" fill="#E8DEBB" opacity="0.77"/><g><path d="M12.6 33.67C12.6 33.67 12.7 33.69 12.55 33.51 12.45 33.38 12.32 33.42 12.32 33.42 12.32 33.42 11.33 33.53 10.72 34.06 10.72 34.06 10.64 34.12 10.7 34.21L10.83 34.38C10.83 34.38 10.91 34.43 10.97 34.37 11.04 34.31 11.77 33.7 12.6 33.67Z" stroke="#25100D" stroke-width="0.0677" fill="#301611"/><path d="M12.21 33.25C12.21 33.25 12.31 33.27 12.16 33.09 12.06 32.96 11.93 33 11.93 33 11.93 33 10.94 33.11 10.32 33.64 10.32 33.64 10.24 33.7 10.3 33.79L10.43 33.96C10.43 33.96 10.5 34.01 10.57 33.95 10.64 33.89 11.38 33.28 12.21 33.25Z" stroke="#25100D" stroke-width="0.0677" fill="#301611"/><g><path d="M10.9 33.71C10.94 33.68 10.99 33.66 11.03 33.63 11.01 33.64 10.96 33.68 10.9 33.71Z" fill="none"/><path d="M11.05 34.07C11.17 34.2 11.45 33.97 11.64 33.93 11.27 34.11 11.01 34.33 10.97 34.37 10.9 34.43 10.83 34.38 10.83 34.38L10.7 34.21C10.65 34.12 10.72 34.06 10.72 34.06 10.84 33.96 10.97 33.88 11.1 33.8 11.06 33.85 10.96 33.97 11.05 34.07Z" stroke="#25100D" stroke-width="0.0677" stroke-linecap="round" stroke-linejoin="round" fill="#301611" opacity="0.43"/><path d="M11.05 33.62C11.05 33.62 11.04 33.62 11.04 33.63 11.04 33.62 11.05 33.62 11.05 33.62L11.05 33.62Z" stroke="#25100D" stroke-width="0.0677" fill="#301611"/><path d="M10.32 33.64C10.49 33.49 10.69 33.38 10.89 33.29L10.89 33.3C10.89 33.3 10.55 33.49 10.65 33.68 10.7 33.78 10.81 33.75 10.9 33.71 10.72 33.83 10.59 33.93 10.57 33.95 10.5 34.01 10.43 33.96 10.43 33.96L10.3 33.8C10.25 33.71 10.32 33.64 10.32 33.64Z" stroke="#25100D" stroke-width="0.0677" stroke-linecap="round" stroke-linejoin="round" fill="#301611" opacity="0.43"/></g><g><path d="M12.03 33.07C12.03 33.07 11.53 33.12 11.14 33.28 10.76 33.45 11.34 33.37 11.53 33.32 11.73 33.27 12.31 33.19 12.03 33.07Z" fill="#FFC113" opacity="0.14"/><path d="M12.42 33.46C12.42 33.46 11.92 33.51 11.53 33.67 11.15 33.83 11.73 33.76 11.92 33.71 12.12 33.67 12.7 33.59 12.42 33.46Z" fill="#FFC113" opacity="0.14"/></g><path d="M12.6 33.67C12.6 33.67 12.7 33.69 12.55 33.51 12.45 33.38 12.32 33.42 12.32 33.42 12.32 33.42 11.33 33.53 10.72 34.06 10.72 34.06 10.64 34.12 10.7 34.21L10.83 34.38C10.83 34.38 10.91 34.43 10.97 34.37 11.04 34.31 11.77 33.7 12.6 33.67Z" stroke="#25100D" stroke-width="0.0677" fill="none"/><path d="M12.21 33.25C12.21 33.25 12.31 33.27 12.16 33.09 12.06 32.96 11.93 33 11.93 33 11.93 33 10.94 33.11 10.32 33.64 10.32 33.64 10.24 33.7 10.3 33.79L10.43 33.96C10.43 33.96 10.5 34.01 10.57 33.95 10.64 33.89 11.38 33.28 12.21 33.25Z" stroke="#25100D" stroke-width="0.0677" fill="none"/></g><path d="M11.59 32.96 11.34 32.67C11.34 32.67 10.63 32.67 10.49 32.98 10.35 33.29 10.69 33.18 10.74 33.26 10.78 33.33 10.99 33.08 11.59 32.96Z" fill="#CD1F45" opacity="0.44"/><path d="M12.46 33.77C12.46 33.77 11.69 33.92 11.37 34.23 11.37 34.23 11.45 34.37 11.47 34.41 11.49 34.45 12.12 33.94 12.53 33.83 12.52 33.83 12.69 33.75 12.46 33.77Z" fill="#CD1F45" opacity="0.44"/><path d="M10.29 33.44C10.29 33.44 10.18 32.94 9.99 32.99 9.79 33.05 9.43 33.05 9.27 32.89 9.11 32.73 9.05 32.96 9.08 33.65 9.11 34.12 9.68 34.31 9.28 34.3 8.88 34.29 9.62 34.97 10.26 35.31 10.9 35.65 10.59 35.64 10.84 35.08 11.1 34.52 10.83 34.68 10.45 34.19 10.07 33.7 10.28 33.55 10.29 33.44Z" fill="#CD1F45" opacity="0.44"/><g opacity="0.65"><path d="M10.45 33.35 10.51 33.48 10.42 33.55C10.42 33.55 10.34 33.01 10.03 32.92 10.23 32.89 10.3 33 10.3 33 10.35 32.91 10.42 32.84 10.5 32.78L10.51 32.79C10.51 32.79 10.24 33 10.45 33.35Z" fill="#9D1B36"/></g><g><path d="M3.53 22.53C3.53 22.53 3.5 22.42 3.58 22.39 3.66 22.36 4.5 22.86 5.02 21.72L11.75 20.54C11.75 20.54 11.97 22.61 11.82 24.42 11.82 24.42 12.18 24.42 12.19 24.55 12.19 24.68 12.11 25.42 12.11 25.42 12.11 25.42 11.13 26.23 10.12 25.93 9.11 25.64 9.11 25.64 9.11 25.64 9.11 25.64 8.81 25.89 8.64 25.59 8.64 25.59 8.56 24.99 8.49 24.93 8.43 24.87 8.16 24.93 8.16 24.93L8.39 23.44C9.31 23.28 9.62 22.69 9.62 22.69 9.62 22.69 9.31 23.28 8.39 23.44L8.16 24.93C8.16 24.93 8.43 24.87 8.49 24.93 8.55 24.99 8.64 25.59 8.64 25.59L8.45 25.83C8.45 25.83 7.5 26.29 6.87 26.36 6.24 26.43 5.37 26.51 5.08 26.27 4.79 26.03 3.84 25.58 3.78 25.41 3.72 25.24 3.68 24.49 3.68 24.49L3.95 24.38 3.9 23.72C3.87 23.72 3.55 23.46 3.53 22.53Z" stroke="#322214" stroke-width="0.0677" stroke-linecap="round" stroke-linejoin="round" fill="#422E18"/><g><path d="M6.02 25.4C6.86 25.29 8.13 24.92 8.13 24.92 8.13 24.92 8.4 24.86 8.46 24.92 8.52 24.98 8.61 25.58 8.61 25.58L8.42 25.82C8.42 25.82 7.47 26.28 6.84 26.35 6.21 26.42 5.34 26.5 5.05 26.26 4.76 26.02 3.81 25.57 3.75 25.4 3.69 25.23 3.65 24.48 3.65 24.48L3.92 24.37 3.93 24.47C3.93 24.48 5.18 25.51 6.02 25.4Z" stroke="#322214" stroke-width="0.0677" stroke-linecap="round" stroke-linejoin="round" fill="#422E18"/><path d="M8.13 24.93C8.17 24.71 8.31 24.62 8.49 24.68 8.67 24.74 9.39 24.93 10.18 25 10.96 25.07 11.8 24.42 11.8 24.42 11.8 24.42 12.16 24.42 12.17 24.55 12.17 24.68 12.09 25.42 12.09 25.42 12.09 25.42 11.11 26.23 10.1 25.93 9.09 25.64 9.09 25.64 9.09 25.64 9.09 25.64 8.79 25.89 8.62 25.59 8.62 25.59 8.54 24.99 8.47 24.93 8.4 24.86 8.13 24.93 8.13 24.93Z" stroke="#322214" stroke-width="0.0677" stroke-linecap="round" stroke-linejoin="round" fill="#422E18"/></g><path d="M8.33 22.89C8.42 22.87 8.52 22.85 8.61 22.84 8.74 22.81 8.91 22.76 9.04 22.8 9.03 22.83 9 22.84 8.98 22.86 8.66 23.05 7.33 23.23 7.62 23.42 7.91 23.61 7.61 23.85 7.18 24.04 6.75 24.23 5.88 24.3 6.77 24.52 7.66 24.74 6.01 25.3 5.04 24.75 4.07 24.2 4.48 24.04 5.39 24.16 6.29 24.28 5.06 23.67 5.8 23.42 6.54 23.16 5.34 22.81 5.97 22.91 6.57 23.01 7.2 23.04 7.81 22.98 7.98 22.95 8.16 22.92 8.33 22.89Z" fill="#6A5422" opacity="0.25"/><path d="M11.56 22.23C11.56 22.23 11.6 23.58 11.44 24.21 11.44 24.21 10.76 24.82 9.92 24.61 9.08 24.4 10.35 24.61 10.93 24.32 11.51 24.03 10.36 24.36 9.63 24.1 8.9 23.84 10.56 22.87 10.47 22.56 10.38 22.24 9.99 22.45 10.54 22.05 11.31 21.49 11.01 21.87 10.65 22.18 10.35 22.44 10.57 22.75 11.35 22.22 11.36 22.22 11.58 22.05 11.56 22.23Z" fill="#6A5422" opacity="0.25"/><path d="M4.79 22.53C4.79 22.53 4.56 22.98 4.25 23.17 3.93 23.36 4.46 23.75 4.79 23.29 5.11 22.82 5.05 22.23 4.79 22.53Z" fill="#6A5422" opacity="0.28"/><g><path d="M4.12 23.83C3.99 23.83 3.86 23.75 3.85 23.75 3.83 23.74 3.83 23.72 3.84 23.7 3.85 23.68 3.87 23.68 3.89 23.69 3.89 23.69 4.03 23.77 4.14 23.76 4.16 23.76 4.18 23.77 4.18 23.79 4.18 23.81 4.17 23.82 4.15 23.83 4.13 23.83 4.13 23.83 4.12 23.83L4.12 23.83Z" fill="#322214"/><path d="M3.53 22.53C3.53 22.53 3.5 22.42 3.58 22.39 3.66 22.36 4.5 22.86 5.02 21.72L11.75 20.54C11.75 20.54 11.97 22.61 11.82 24.42 11.82 24.42 12.18 24.42 12.19 24.55 12.19 24.68 12.11 25.42 12.11 25.42 12.11 25.42 11.13 26.23 10.12 25.93 9.11 25.64 9.11 25.64 9.11 25.64 9.11 25.64 8.81 25.89 8.64 25.59 8.64 25.59 8.56 24.99 8.49 24.93 8.43 24.87 8.16 24.93 8.16 24.93L8.39 23.44C9.31 23.28 9.62 22.69 9.62 22.69 9.62 22.69 9.31 23.28 8.39 23.44L8.16 24.93C8.16 24.93 8.43 24.87 8.49 24.93 8.55 24.99 8.64 25.59 8.64 25.59L8.45 25.83C8.45 25.83 7.5 26.29 6.87 26.36 6.24 26.43 5.37 26.51 5.08 26.27 4.79 26.03 3.84 25.58 3.78 25.41 3.72 25.24 3.68 24.49 3.68 24.49L3.95 24.38 3.9 23.72C3.87 23.72 3.55 23.46 3.53 22.53Z" stroke="#322214" stroke-width="0.0677" stroke-linecap="round" stroke-linejoin="round" fill="none"/></g><g><path d="M4.94 23.48C4.93 23.48 4.92 23.47 4.91 23.46 4.9 23.44 4.91 23.42 4.92 23.41 5.38 23.17 5.53 22.33 5.53 22.33 5.53 22.31 5.55 22.3 5.57 22.3 5.59 22.3 5.6 22.32 5.6 22.34 5.59 22.38 5.44 23.22 4.95 23.47 4.95 23.48 4.95 23.48 4.94 23.48L4.94 23.48Z" fill="#322214"/><path d="M4.44 22.59C4.43 22.59 4.42 22.59 4.41 22.58 4.4 22.57 4.4 22.54 4.41 22.53 4.55 22.4 4.65 22.2 4.65 22.2 4.66 22.18 4.68 22.18 4.7 22.18 4.72 22.19 4.72 22.21 4.72 22.23 4.72 22.24 4.61 22.44 4.46 22.58 4.46 22.59 4.45 22.59 4.44 22.59L4.44 22.59Z" fill="#322214"/><path d="M4 23.05C4 23.05 4 23.05 4 23.05 3.87 23.02 3.71 22.86 3.71 22.85 3.7 22.84 3.7 22.81 3.71 22.8 3.72 22.79 3.75 22.79 3.76 22.8 3.8 22.84 3.92 22.96 4.01 22.98 4.03 22.98 4.04 23 4.04 23.02 4.03 23.04 4.01 23.05 4 23.05L4 23.05Z" fill="#322214"/><path d="M10.88 22.23C10.87 22.23 10.86 22.23 10.85 22.22 10.84 22.21 10.84 22.18 10.86 22.17 11.3 21.84 11.59 21.31 11.59 21.3 11.6 21.28 11.62 21.28 11.64 21.29 11.66 21.3 11.66 21.32 11.65 21.34 11.64 21.36 11.35 21.9 10.9 22.23 10.89 22.22 10.88 22.23 10.88 22.23L10.88 22.23Z" fill="#322214"/></g><path d="M3.87 23.72 3.92 24.38 3.65 24.49C3.65 24.49 3.69 25.23 3.75 25.41 3.81 25.58 4.77 26.04 5.05 26.27 5.34 26.51 6.21 26.42 6.84 26.36 7.47 26.29 8.42 25.83 8.42 25.83L8.61 25.59C8.61 25.59 8.53 24.99 8.46 24.93 8.4 24.87 8.13 24.93 8.13 24.93L8.36 23.44C9.28 23.28 9.59 22.69 9.59 22.69 9.59 22.69 9.28 23.28 8.36 23.44L8.13 24.93C8.13 24.93 8.4 24.87 8.46 24.93 8.52 24.99 8.61 25.59 8.61 25.59 8.78 25.89 9.08 25.64 9.08 25.64 9.08 25.64 9.08 25.64 10.09 25.93 11.11 26.23 12.08 25.42 12.08 25.42 12.08 25.42 12.16 24.68 12.16 24.55 12.16 24.42 11.79 24.42 11.79 24.42 11.94 22.6 11.72 20.54 11.72 20.54L4.99 21.72C4.47 22.86 3.63 22.36 3.55 22.39 3.47 22.42 3.5 22.53 3.5 22.53 3.55 23.46 3.87 23.72 3.87 23.72ZM4.07 23.1C4.28 23.12 3.93 22.9 3.76 22.72 3.59 22.54 3.89 22.56 4.07 22.58 4.25 22.59 4.47 22.49 4.36 22.65 4.25 22.8 4.43 22.7 4.61 22.5 4.79 22.29 4.88 22.3 4.88 22.3 5.23 22.35 5.21 22.74 5.21 22.74 5.22 23.45 4.34 23.71 4.75 23.62 5.15 23.53 5.41 23.15 5.52 22.87 5.63 22.59 5.8 22.65 5.8 22.65 7.29 23.11 9.24 22.59 9.89 22.32 10.54 22.06 11.58 21.27 10.95 21.97 10.32 22.67 10.88 22.41 11.24 22.09 11.6 21.77 11.64 22.08 11.64 22.08 11.78 22.5 11.55 24.49 11.55 24.49 10.79 25.16 9.67 24.96 9.36 24.83 9.04 24.7 10.07 24.56 9.42 24.55 8.77 24.54 8.63 24.02 9.08 23.57 9.54 23.13 10.01 22.18 9.47 22.7 8.93 23.22 8.27 23.2 8.21 23.46 8.16 23.73 7.67 24 7.67 24 6.82 24.43 7.31 24.38 7.56 24.65 7.81 24.92 7.43 25 6.43 25.22 5.43 25.45 4.59 24.81 4.46 24.7 4.33 24.59 4.12 24.29 4.12 24.09 4.11 23.89 4.18 23.84 4.29 23.78 4.4 23.72 4.13 23.75 3.96 23.52 3.79 23.3 3.87 23.08 4.07 23.1Z" fill="#422E18" opacity="0.2"/><g><g><path d="M9.81 25.12C9.81 25.12 10.95 25.33 11.96 24.6 11.96 24.6 12.03 24.56 12.02 24.78 12.01 24.99 11.76 25.31 11.24 25.42 10.72 25.53 11.44 25.5 11.82 25.35 12.2 25.19 11.11 26.22 9.85 25.75 9.85 25.75 9.26 25.61 9.29 25.47 9.33 25.33 9.52 25.33 9.31 25.11 9.1 24.9 9.58 25.09 9.81 25.12Z" fill="#422E18"/><path d="M5.76 25.6C5.76 25.6 7.17 25.48 7.59 25.33 8 25.19 8.18 24.97 8.27 25.14 8.35 25.31 8.41 25.59 8.15 25.71 7.89 25.83 6.93 26.24 6.17 26.19 5.41 26.15 5.54 25.93 5.41 25.65 5.27 25.37 5.52 25.64 5.76 25.6Z" fill="#422E18"/><path d="M4.62 25.26C4.62 25.26 3.94 24.69 3.91 24.8 3.88 24.91 3.9 25.08 3.88 25.23 3.86 25.37 4.56 25.69 4.62 25.26Z" fill="#422E18"/></g><g><path d="M10.46 25.22C10.86 25.19 11.26 25.11 11.61 24.91 11.7 24.86 11.85 24.82 11.75 24.96 11.63 25.13 11.43 25.24 11.24 25.3 11.17 25.32 10.68 25.36 10.7 25.48 10.72 25.61 11.22 25.54 11.29 25.53 11.74 25.43 10.85 25.94 10.23 25.76 10.23 25.76 9.9 25.67 10.1 25.62 10.3 25.57 10.13 25.41 10.04 25.3 9.97 25.22 10.14 25.23 10.18 25.23 10.28 25.23 10.37 25.23 10.46 25.22Z" fill="#6A5422" opacity="0.25"/><path d="M6.43 25.71C6.43 25.71 7.24 25.66 7.59 25.5 7.94 25.34 7.94 25.42 8 25.55 8.06 25.68 7.26 25.93 7 25.98 6.75 26.02 6.66 25.74 6.43 25.71Z" fill="#6A5422" opacity="0.25"/></g></g></g><g><path d="M4.16 15.15C4.21 15.07 4.38 14.98 4.38 14.98 4.38 14.98 5.18 13.44 5.59 13.2 6 12.96 6.22 12.96 6.22 12.96 6.22 12.96 5.94 12.17 6.75 12.51 7.56 12.85 8.13 13.07 8.13 13.07 8.13 13.07 8.58 12.52 8.82 13.23 8.82 13.23 9.44 13.3 9.77 13.53 10.1 13.77 10.73 14.69 11.06 14.83 11.39 14.97 10.73 15.59 10.49 15.59 10.17 15.03 9.57 14.33 9.57 14.33 9.57 14.33 10.17 15.04 10.49 15.59 10.49 15.59 11.64 17.62 11.55 19.33 11.55 19.33 11.67 19.52 11.69 19.64 11.69 19.64 12.07 19.66 12.05 19.88 12.03 20.1 11.91 20.21 12.03 20.28 12.15 20.35 12.13 20.52 11.96 20.68 11.79 20.85 9.94 22.83 7.09 22.62 7.09 22.62 4.95 22.58 4.5 21.37 4.5 21.37 4.39 20.93 4.66 20.88 4.66 20.88 4.47 20.72 4.56 20.31 4.65 19.9 4.62 19.43 4.67 19.19 4.72 18.95 4.76 18.97 4.75 18.59 4.73 18.21 4.7 18.37 4.81 18.13 4.92 17.89 4.99 16.5 4.9 15.86 5.33 16.08 5.35 15.95 5.44 15.66 5.53 15.36 5.84 14.77 5.84 14.77 5.84 14.77 5.53 15.36 5.44 15.66 5.35 15.96 5.32 16.09 4.9 15.86 4.9 15.86 4.34 15.5 4.17 15.37 3.99 15.24 4.11 15.23 4.16 15.15Z" stroke="#742367" stroke-width="0.0677" stroke-linecap="round" stroke-linejoin="round" fill="#9BD7D6"/><path d="M5.62 15.19C5.55 15.35 5.47 15.52 5.43 15.64 4.78 15.58 4.25 15.05 4.25 15.05L4.25 15.05C4.31 15 4.37 14.97 4.37 14.97 4.37 14.97 4.43 14.85 4.53 14.67 4.53 14.67 4.54 14.68 4.54 14.69 4.98 15.18 5.53 15.19 5.62 15.19Z" fill="#972584"/><path d="M4.6 21.04 5.18 21.5C7.54 23.15 10.01 21.51 10.01 21.51 6.68 22.64 4.66 20.87 4.66 20.87 4.66 20.87 4.66 20.87 4.66 20.87 4.65 20.86 4.52 20.74 4.54 20.45 5.3 20.91 7.11 21.56 9.18 21.27 11.27 20.98 11.97 20.17 11.97 20.17 11.97 20.17 11.98 20.17 11.99 20.16 11.98 20.21 11.99 20.25 12.04 20.28 12.16 20.35 12.14 20.52 11.97 20.68 11.8 20.85 9.95 22.83 7.1 22.62 7.1 22.62 4.96 22.58 4.51 21.37 4.51 21.37 4.47 21.21 4.5 21.07 4.54 20.98 4.6 21.04 4.6 21.04Z" fill="#972584"/><path d="M9.95 14.8C10.34 14.84 10.62 14.63 10.72 14.55 10.85 14.68 10.97 14.79 11.06 14.83 11.37 14.96 10.82 15.5 10.55 15.58 10.52 15.57 10.49 15.56 10.47 15.55 10.33 15.3 10.13 15.02 9.95 14.8Z" fill="#972584"/><path d="M6.33 12.48C6.03 12.92 6.81 13.61 6.43 13.36 6.05 13.11 5.65 13.33 5.45 13.55 5.24 13.77 4.71 14.83 4.48 15.05 4.29 15.23 4.31 15.4 4.33 15.47 4.26 15.42 4.2 15.38 4.16 15.36 3.99 15.23 4.1 15.23 4.16 15.15 4.21 15.07 4.38 14.98 4.38 14.98 4.38 14.98 5.18 13.44 5.59 13.2 6 12.96 6.22 12.96 6.22 12.96 6.22 12.96 6.04 12.46 6.38 12.42 6.37 12.44 6.35 12.46 6.33 12.48Z" fill="#97278D" opacity="0.41"/><path d="M8.92 13.46C8.75 13.74 8.26 14.03 8.53 13.71 8.8 13.39 8.7 13 8.7 13 8.7 13 8.71 13 8.72 13 8.76 13.05 8.79 13.13 8.83 13.22 8.83 13.22 9.03 13.24 9.26 13.3 9.13 13.3 9 13.33 8.92 13.46Z" fill="#97278D" opacity="0.41"/><path d="M11.37 20.53C11.37 20.53 11.36 20.54 11.35 20.54 11.31 20.56 11.33 20.56 11.37 20.53Z" stroke="#8B8131" stroke-width="0.0677" fill="#8B8131"/><path d="M11.87 20.17C12.12 19.84 12.01 19.71 11.83 19.65 11.65 19.59 11.38 19.82 11.47 19.62 11.56 19.42 11.33 19.27 11.33 19.27 11.65 18.87 11.39 17.9 11.39 17.9L11.39 17.9C11.5 18.37 11.57 18.86 11.55 19.33 11.55 19.33 11.67 19.52 11.69 19.64 11.69 19.64 12.07 19.66 12.05 19.88 12.03 20.1 11.91 20.21 12.03 20.28 12.04 20.28 12.04 20.29 12.05 20.3 11.92 20.25 11.69 20.42 11.87 20.17Z" fill="#97278D" opacity="0.34"/><path d="M4.16 15.15C4.21 15.07 4.38 14.98 4.38 14.98 4.38 14.98 5.18 13.44 5.59 13.2 6 12.96 6.22 12.96 6.22 12.96 6.22 12.96 5.94 12.17 6.75 12.51 7.56 12.85 8.13 13.07 8.13 13.07 8.13 13.07 8.58 12.52 8.82 13.23 8.82 13.23 9.44 13.3 9.77 13.53 10.1 13.77 10.73 14.69 11.06 14.83 11.39 14.97 10.73 15.59 10.49 15.59 10.17 15.03 9.57 14.33 9.57 14.33 9.57 14.33 10.17 15.04 10.49 15.59 10.49 15.59 11.64 17.62 11.55 19.33 11.55 19.33 11.67 19.52 11.69 19.64 11.69 19.64 12.07 19.66 12.05 19.88 12.03 20.1 11.91 20.21 12.03 20.28 12.15 20.35 12.13 20.52 11.96 20.68 11.79 20.85 9.94 22.83 7.09 22.62 7.09 22.62 4.95 22.58 4.5 21.37 4.5 21.37 4.39 20.93 4.66 20.88 4.66 20.88 4.47 20.72 4.56 20.31 4.65 19.9 4.62 19.43 4.67 19.19 4.72 18.95 4.76 18.97 4.75 18.59 4.73 18.21 4.7 18.37 4.81 18.13 4.92 17.89 4.99 16.5 4.9 15.86 5.33 16.08 5.35 15.95 5.44 15.66 5.53 15.36 5.84 14.77 5.84 14.77 5.84 14.77 5.53 15.36 5.44 15.66 5.35 15.96 5.32 16.09 4.9 15.86 4.9 15.86 4.34 15.5 4.17 15.37 3.99 15.24 4.11 15.23 4.16 15.15Z" stroke="#742367" stroke-width="0.0677" stroke-linecap="round" stroke-linejoin="round" fill="none"/><path d="M5.75 19.47C5.75 19.47 5.75 19.47 5.75 19.47 4.76 19.37 4.71 18.59 4.71 18.58 4.71 18.56 4.72 18.54 4.74 18.54 4.76 18.54 4.77 18.55 4.78 18.57 4.78 18.6 4.83 19.3 5.75 19.39 5.77 19.39 5.78 19.41 5.78 19.43 5.78 19.46 5.77 19.47 5.75 19.47L5.75 19.47Z" fill="#6F1A54"/><path d="M11.18 19.91C11.17 19.91 11.16 19.91 11.15 19.9 11.14 19.88 11.14 19.86 11.16 19.85 11.35 19.71 11.68 19.6 11.69 19.6 11.71 19.59 11.73 19.6 11.73 19.62 11.74 19.64 11.73 19.66 11.71 19.66 11.71 19.66 11.38 19.77 11.2 19.9 11.2 19.91 11.19 19.91 11.18 19.91L11.18 19.91Z" fill="#6F1A54"/><path d="M11.26 20.63C11.24 20.63 11.23 20.62 11.23 20.6 11.23 20.58 11.24 20.56 11.25 20.56 11.67 20.45 11.97 20.07 11.97 20.06 11.98 20.05 12 20.04 12.02 20.05 12.03 20.06 12.04 20.08 12.03 20.1 12.01 20.12 11.71 20.51 11.26 20.63 11.26 20.63 11.26 20.63 11.26 20.63L11.26 20.63Z" fill="#6F1A54"/><path d="M7.42 21.66C5.91 21.66 4.66 20.9 4.64 20.9 4.62 20.89 4.62 20.87 4.63 20.85 4.64 20.83 4.66 20.83 4.68 20.84 4.7 20.85 6.19 21.75 7.87 21.57 7.89 21.57 7.91 21.58 7.91 21.6 7.91 21.62 7.9 21.64 7.88 21.64 7.72 21.65 7.57 21.66 7.42 21.66L7.42 21.66Z" fill="#6F1A54"/><path d="M8.53 13.81C8.52 13.81 8.51 13.81 8.5 13.8 8.49 13.78 8.49 13.76 8.51 13.75 8.85 13.53 8.76 13.2 8.76 13.19 8.76 13.17 8.77 13.15 8.78 13.15 8.8 13.15 8.82 13.16 8.82 13.17 8.82 13.17 8.92 13.55 8.54 13.8 8.55 13.8 8.54 13.81 8.53 13.81L8.53 13.81Z" fill="#6F1A54"/><path d="M6.49 13.4C6.48 13.4 6.48 13.4 6.47 13.39 6.32 13.28 6.2 12.97 6.19 12.96 6.18 12.94 6.19 12.92 6.21 12.92 6.23 12.91 6.25 12.92 6.25 12.94 6.25 12.94 6.37 13.25 6.5 13.34 6.52 13.35 6.52 13.37 6.51 13.39 6.51 13.4 6.5 13.4 6.49 13.4L6.49 13.4Z" fill="#6F1A54"/><path d="M5.22 15.33C5.35 15 5.56 14.51 6.05 14.27 6.54 14.03 5.78 15.34 5.77 15.97 5.76 16.6 5.81 17.73 5.83 18.53 5.85 19.33 7.66 19.75 6.83 19.77 6.01 19.79 5.27 19.81 5.54 20.74 5.81 21.67 8.92 21.43 9.53 21.38 10.15 21.33 9.37 21.62 9.37 21.62 7.72 22.13 5.81 21.56 5.14 21.32 4.47 21.09 4.65 22.52 7.4 22.51 10.15 22.5 12.07 20.57 11.95 20.41 11.86 20.29 11.47 20.47 11.35 20.53 11.51 20.43 11.89 20.1 11.88 19.86 11.87 19.61 11.34 19.78 11.34 19.78 11.32 19.47 11.02 19.53 11.02 19.53 11.35 19.24 11.17 18.04 11.17 18.04 11.12 17.61 10.99 17.2 10.83 16.81 10.56 16.17 10.19 15.57 9.78 15.01 9.65 14.83 9.51 14.67 9.37 14.5 9.34 14.46 9.32 14.4 9.28 14.34 9.17 14.16 9.13 13.92 9.39 14.05 9.59 14.15 9.91 14.4 10.03 14.6 10.16 14.82 10.58 15.37 10.75 15.45 10.65 15.52 10.55 15.57 10.48 15.57 10.16 15.01 9.56 14.31 9.56 14.31 9.56 14.31 10.16 15.02 10.48 15.57 10.48 15.57 11.63 17.6 11.54 19.31 11.54 19.31 11.66 19.5 11.68 19.62 11.68 19.62 12.06 19.64 12.04 19.86 12.02 20.08 11.9 20.19 12.02 20.26 12.14 20.33 12.12 20.5 11.95 20.66 11.78 20.83 9.93 22.81 7.08 22.6 7.08 22.6 4.94 22.56 4.49 21.35 4.49 21.35 4.38 20.91 4.65 20.86 4.65 20.86 4.46 20.7 4.55 20.29 4.64 19.88 4.61 19.41 4.66 19.17 4.71 18.93 4.75 18.95 4.74 18.57 4.72 18.19 4.69 18.35 4.8 18.11 4.91 17.87 4.98 16.48 4.89 15.84 5.32 16.06 5.34 15.93 5.43 15.64 5.52 15.34 5.83 14.75 5.83 14.75 5.83 14.75 5.52 15.34 5.43 15.64 5.34 15.94 5.31 16.07 4.89 15.84 4.89 15.84 4.82 15.79 4.71 15.73 4.73 15.74 4.74 15.74 4.76 15.75 5.19 15.96 5.1 15.66 5.22 15.33Z" fill="#9BD7D6" opacity="0.41"/><path d="M4.66 20.87C4.66 20.87 4.47 20.71 4.56 20.3 4.65 19.89 4.62 19.42 4.67 19.18 4.72 18.94 4.76 18.96 4.75 18.58 4.73 18.2 4.7 18.36 4.81 18.12 4.92 17.89 4.99 16.54 4.9 15.88 4.92 15.88 4.95 15.89 4.98 15.89 5.33 16.05 5.35 15.92 5.44 15.64 5.53 15.34 5.84 14.75 5.84 14.75 5.84 14.75 5.53 15.34 5.44 15.64 5.35 15.92 5.33 16.05 4.98 15.89 5.1 15.89 5.25 15.82 5.32 15.49 5.32 15.49 5.57 14.71 5.85 14.55 6.13 14.39 5.92 14.82 5.73 15.26 5.54 15.7 5.45 15.95 5.37 16.58 5.29 17.21 5.19 18.14 5.09 18.21 5 18.29 4.84 18.35 4.93 18.61 5.01 18.87 5.46 19.25 5.9 19.41 6.34 19.57 5.53 19.62 5.28 19.59 5.03 19.55 4.92 19.8 4.96 20.09 5 20.37 4.76 20.58 5.11 20.81 5.46 21.04 6.14 21.6 7.95 21.57 7.95 21.57 8.15 21.54 8.15 21.63 8.15 21.71 6.9 21.99 5.51 21.31 5.51 21.31 4.89 21.03 4.77 21.12 4.66 21.21 4.56 21.45 4.71 21.72 4.63 21.61 4.55 21.5 4.51 21.36 4.51 21.36 4.39 20.92 4.66 20.87Z" fill="#832880" opacity="0.7"/></g><path d="M6.7 27.25C6.7 27.11 6.67 26.99 6.59 26.94 6.45 26.85 6.23 26.93 6.12 27.34 6.01 27.74 6.14 28.02 6.36 28 6.55 27.98 6.7 27.56 6.7 27.25Z" fill="#EDBA57" opacity="0.53"/><path d="M10.99 26.29C10.99 26.16 10.95 26.06 10.89 26.01 10.77 25.93 10.58 26.02 10.5 26.38 10.42 26.74 10.54 26.99 10.73 26.96 10.88 26.94 11 26.57 10.99 26.29Z" fill="#EDBA57" opacity="0.53"/><path d="M6.17 28.34C6.12 28.34 6.07 28.33 6.02 28.31 6 28.31 5.99 28.29 6 28.27 6.01 28.25 6.03 28.24 6.04 28.25 6.23 28.32 6.39 28.21 6.39 28.21 6.4 28.2 6.43 28.2 6.44 28.22 6.45 28.23 6.45 28.26 6.43 28.27 6.42 28.27 6.31 28.34 6.17 28.34L6.17 28.34Z" fill="#AE7D2B"/><path d="M10.52 27.39C10.47 27.39 10.42 27.38 10.37 27.36 10.35 27.35 10.34 27.33 10.35 27.32 10.36 27.3 10.38 27.29 10.39 27.3 10.58 27.37 10.74 27.26 10.74 27.25 10.75 27.24 10.78 27.24 10.79 27.26 10.8 27.27 10.8 27.3 10.78 27.31 10.77 27.31 10.66 27.39 10.52 27.39L10.52 27.39Z" fill="#AE7D2B"/><g><path d="M7.43 14.06C7.43 14.06 7.43 14.06 7.43 14.06 7.11 14.03 6.85 13.82 6.84 13.81 6.83 13.8 6.82 13.78 6.84 13.76 6.85 13.75 6.87 13.74 6.89 13.76 6.89 13.76 7.15 13.97 7.44 13.99 7.46 13.99 7.47 14.01 7.47 14.03 7.46 14.05 7.45 14.06 7.43 14.06L7.43 14.06Z" fill="#6F1A54"/><path d="M6.75 13.64C6.75 13.64 7.14 14.02 7.69 14.05 7.69 14.05 7.04 14.25 6.75 13.64Z" fill="#97278D" opacity="0.41"/></g><path d="M7.8 13.95C7.68 13.95 7.55 13.92 7.42 13.87 6.93 13.68 6.5 13.1 6.58 12.73 6.58 12.71 6.6 12.7 6.62 12.7 6.64 12.7 6.65 12.72 6.65 12.74 6.59 13.04 6.96 13.61 7.45 13.8 7.75 13.91 8.03 13.89 8.22 13.73 8.36 13.62 8.43 13.45 8.4 13.3 8.4 13.28 8.41 13.26 8.43 13.26 8.45 13.26 8.47 13.27 8.47 13.29 8.5 13.47 8.43 13.66 8.27 13.79 8.13 13.9 7.98 13.95 7.8 13.95L7.8 13.95Z" fill="#6F1A54"/><g><g><path d="M2.45 24.2C2.45 24.18 2.44 24.16 2.44 24.15 2.44 24.15 2.45 24.17 2.45 24.2Z" stroke="#AE7D2B" stroke-width="0.0677" fill="#DBAA49"/><path d="M2.4 23.31C2.4 23.31 2.96 23.38 2.95 23.78 2.94 24.18 2.44 24.15 2.44 24.15 2.36 23.72 2.4 23.31 2.4 23.31Z" stroke="#AE7D2B" stroke-width="0.0677" fill="#DBAA49"/></g><g><path d="M3.36 20.42C3.92 21 4.09 22.41 4.22 22.81 4.35 23.21 3.97 23.2 3.97 23.2 3.38 23.24 3.35 21.73 2.98 22.05 2.61 22.37 2.39 23.31 2.39 23.31 2.39 23.31 2.36 23.72 2.43 24.15 2.43 24.17 2.44 24.18 2.44 24.2 2.46 24.31 2.48 24.57 2.16 24.56 1.76 24.55 1.66 23.72 1.66 23.72 1.66 23.72 1.63 22.74 1.87 22.28 1.63 22.74 1.66 23.72 1.66 23.72 1.33 23.66 1.22 23.29 1.22 23.29 1.1 22.69 1.35 22.1 1.35 22.1 1.35 22.1 1.11 22.69 1.22 23.29 0.28 22.09 1.7 20.55 1.97 20.28 2.25 20.01 2.36 19.84 2.36 19.84 2.36 19.84 3.11 17.43 4.17 15.42 4.28 15.5 4.52 15.71 5.03 15.97 4.04 18.26 3.95 18.5 3.33 20.29 3.34 20.29 3.3 20.36 3.36 20.42Z" stroke="#AE7D2B" stroke-width="0.0677" fill="#DBAA49"/></g><path d="M2.4 23.31C2.4 23.31 2.96 23.38 2.95 23.78 2.94 24.18 2.44 24.15 2.44 24.15 2.36 23.72 2.4 23.31 2.4 23.31Z" fill="#DBAA49" opacity="0.43"/><g opacity="0.49"><path d="M1.22 23.29C1.1 22.69 1.35 22.1 1.35 22.1 1.35 22.1 1.11 22.69 1.22 23.29 1.22 23.29 1.33 23.67 1.66 23.72 1.66 23.72 1.63 22.74 1.87 22.28 1.63 22.74 1.66 23.72 1.66 23.72 1.66 23.72 1.76 24.55 2.16 24.56 2.48 24.57 2.46 24.31 2.44 24.2 2.44 24.18 2.43 24.16 2.43 24.15 2.35 23.72 2.39 23.31 2.39 23.31 2.39 23.31 2.61 22.37 2.98 22.05 3.35 21.73 3.38 23.25 3.97 23.2 3.97 23.2 4.35 23.21 4.22 22.81 4.09 22.41 3.91 21 3.36 20.42 3.29 20.35 3.34 20.29 3.34 20.29 3.96 18.5 4.05 18.26 5.04 15.97 4.52 15.7 4.29 15.49 4.18 15.42 3.12 17.43 2.37 19.84 2.37 19.84 2.37 19.84 2.26 20.01 1.98 20.28 1.7 20.55 0.28 22.09 1.22 23.29ZM1.06 22.61C0.94 22.51 0.85 21.39 2.35 20.06 2.35 20.06 2.48 19.96 2.55 19.72 2.63 19.48 3.44 17.1 4.16 15.67 4.16 15.67 4.7 15.98 4.75 16.08 4.75 16.08 4.71 16.41 4.33 16.36 3.95 16.31 4.52 16.48 4.29 17.01 4.05 17.54 3.25 19.93 3.08 20.23 2.91 20.52 3.43 20.38 3.75 21.45 4.07 22.53 4.03 22.55 4.11 22.79 4.19 23.04 3.86 23.28 3.61 22.72 3.35 22.16 3.4 21.73 2.92 21.85 2.44 21.97 2.05 23.21 2.21 23.79 2.37 24.38 2.22 24.54 1.98 24.41 1.74 24.29 1.6 22.92 1.96 22.17 1.96 22.17 1.9 22.07 1.76 22.26 1.62 22.45 1.55 23.07 1.55 23.29 1.55 23.5 1.11 23.42 1.4 22.13 1.4 22.13 1.43 21.98 1.31 22.01 1.21 22.07 1.18 22.71 1.06 22.61Z" fill="#DBAA49"/></g></g><g><path d="M3.58 15.75C3.58 15.75 3.58 15.75 3.58 15.75 3.57 15.75 2.83 15.6 3 14.63 3 14.61 3.02 14.6 3.04 14.6 3.06 14.6 3.07 14.62 3.07 14.64 2.92 15.54 3.57 15.68 3.59 15.68 3.61 15.68 3.62 15.7 3.62 15.72 3.61 15.74 3.6 15.75 3.58 15.75L3.58 15.75Z" fill="#322214"/><path d="M3 16.08C3 16.08 2.99 16.08 2.99 16.08 2.98 16.08 2.11 15.73 2.51 14.56 2.52 14.54 2.54 14.53 2.55 14.54 2.57 14.55 2.58 14.57 2.57 14.58 2.18 15.68 2.97 16 3 16.01 3.02 16.02 3.03 16.04 3.02 16.05 3.02 16.07 3.01 16.08 3 16.08L3 16.08Z" fill="#322214"/></g><g><path d="M3.02 1.7C3.02 1.7 5.3-0.3 8.38 0.11 11.46 0.52 11.79 1.87 12.56 1.78 13.33 1.69 12.61 1.12 12.95 0.95 13.29 0.78 13.98 1.7 13.28 2.43 13.28 2.43 14.25 2.15 13.59 2.89 13.59 2.89 14.4 2.84 14.54 3.2 14.69 3.56 14.04 3.63 13.93 3.54 13.93 3.54 14.55 4.12 14.35 4.32 14.14 4.52 13.72 4.15 13.72 4.15 13.72 4.15 14.1 4.76 13.81 4.79 13.52 4.81 14.13 5.35 13.77 5.55 13.41 5.75 13.97 6 14.28 6.02 14.59 6.04 14.29 6.4 13.81 6.31 13.33 6.22 13.71 6.45 13.53 6.66 13.35 6.87 13.25 6.65 13.25 6.65 13.25 6.65 13.35 7.31 12.9 7.44 12.45 7.57 8.3 8.72 6.21 10.16 4.11 11.6 4.73 12.16 4.96 12.55 5.19 12.93 4.35 12.94 4.09 12.62 3.83 12.3 3.91 12.73 3.68 12.73 3.46 12.73 3.42 12.54 3.42 12.54 3.42 12.54 3.31 12.81 3.11 12.72 2.91 12.64 3.03 12.49 3.03 12.49 3.03 12.49 2.43 12.62 2.19 12.44 1.96 12.26 2.3 12.17 2.3 12.17 2.3 12.17 1.7 12.16 1.55 11.8 1.4 11.44 2.48 11.89 2.5 11.22 2.52 10.54 2.23 10.72 2.02 10.92 1.81 11.12 1.64 10.84 1.68 10.58 1.71 10.31 1.55 10.93 1.37 10.76 1.19 10.59 1.32 10.11 1.32 10.11 1.32 10.11 1.1 10.49 0.91 9.92 0.71 9.34 0.82 8.33 0.92 8.12 1.02 7.9 0.74 8.62 0.48 8.43 0.21 8.22 0.36 7.35 0.49 7.15 0.62 6.95 0.39 7.21 0.44 6.86 0.5 6.5 0.76 6.39 0.76 6.39 0.76 6.39 0.19 6.61 0.06 6.4-0.06 6.19 0.81 5.45 0.81 5.45 0.81 5.45 0.5 5.55 0.66 5.29 0.82 5.03 0.39 5.44 0.28 5.19 0.17 4.95 0.51 4.21 1.09 3.93 1.09 3.93 0.73 3.62 1.54 3.28 1.54 3.28 0.9 3.17 0.75 2.86 0.6 2.55 1.86 2.76 1.86 2.76 1.86 2.76 1.42 2.61 1.44 2.32 1.47 2.03 2.03 2.45 2.03 2.45 2.03 2.45 1.68 2.01 1.75 1.83 1.81 1.65 2.21 2.08 2.21 2.08 2.21 2.08 2.08 1.27 2.49 1.16 2.9 1.04 2.35 1.98 3.02 1.7Z" stroke="#000000" stroke-width="0.1014" stroke-linecap="round" stroke-linejoin="round" fill="#443513"/><path d="M12.32 5.59C12.32 5.59 12.48 6.28 12.39 6.88 12.3 7.48 14.41 10.92 10.96 12.62 7.51 14.33 4.29 13.15 3.63 11.78 3.63 11.78 2.61 11.93 2.23 10.88 1.83 9.83 2.75 8.74 3.64 9.51 4.53 10.28 4.13 9.7 4.02 9.38 3.91 9.06 4.07 7.48 4.12 7.39 4.12 7.39 3.38 7.43 4.91 6.02 6.42 4.63 9.9 3.67 12.32 5.59Z" stroke="#AE7D2B" stroke-width="0.0676" stroke-linecap="round" stroke-linejoin="round" fill="#DBAA49"/><path d="M12.32 5.59C12.32 5.59 12.48 6.28 12.39 6.88 12.3 7.48 14.41 10.92 10.96 12.62 7.51 14.33 4.29 13.15 3.63 11.78 3.63 11.78 2.61 11.93 2.23 10.88 1.83 9.83 2.75 8.74 3.64 9.51 4.53 10.28 4.13 9.7 4.02 9.38 3.91 9.06 4.07 7.48 4.12 7.39 4.12 7.39 3.38 7.43 4.91 6.02 6.42 4.63 9.9 3.67 12.32 5.59Z" stroke="#AE7D2B" stroke-width="0.0676" stroke-linecap="round" stroke-linejoin="round" fill="#DBAA49"/><g><path d="M2.86 10C3.15 9.83 3.47 9.98 3.48 10.18 3.43 10.18 3.37 10.2 3.31 10.23 3.15 10.32 3.17 10.59 3.21 10.74 3.26 10.92 3.39 11.07 3.57 11.1 3.59 11.1 3.61 11.11 3.64 11.11 3.55 11.18 3.42 11.22 3.22 11.19 2.97 11.15 2.79 10.94 2.73 10.7 2.67 10.48 2.63 10.13 2.86 10Z" fill="#DBAA49" opacity="0.6"/><path d="M3.21 10.74C3.17 10.59 3.14 10.32 3.31 10.23 3.36 10.2 3.42 10.18 3.48 10.18 3.48 10.19 3.48 10.2 3.48 10.22 3.44 10.44 3.66 10.66 3.66 10.66 3.78 10.73 3.8 10.98 3.64 11.11 3.62 11.11 3.6 11.11 3.57 11.1 3.39 11.07 3.26 10.92 3.21 10.74Z" fill="#DBAA49" opacity="0.6"/><path d="M3.21 10.74C3.17 10.59 3.14 10.32 3.31 10.23 3.36 10.2 3.42 10.18 3.48 10.18 3.48 10.19 3.48 10.2 3.48 10.22 3.44 10.44 3.66 10.66 3.66 10.66 3.78 10.73 3.8 10.98 3.64 11.11 3.62 11.11 3.6 11.11 3.57 11.1 3.39 11.07 3.26 10.92 3.21 10.74Z" fill="#DBAA49" opacity="0.6"/></g><path d="M8.88 5.97C8.88 5.97 7.77 5.37 6.78 6.39L7.01 6.78C7.01 6.78 7.71 5.89 8.77 6.32L8.88 5.97Z" stroke="#000000" stroke-width="0.1014" stroke-linecap="round" stroke-linejoin="round" fill="#392E16"/><path d="M12.7 6.24C12.7 6.24 12.2 5.63 11.54 6.31L11.36 5.96C11.36 5.96 12.2 5.08 12.77 5.99L12.7 6.24Z" stroke="#000000" stroke-width="0.1014" stroke-linecap="round" stroke-linejoin="round" fill="#392E16"/><path d="M11.34 9.97C11.34 9.97 11.34 9.97 11.34 9.97 11.41 9.94 11.47 9.82 11.49 9.72 11.52 9.58 11.49 9.45 11.42 9.39 11.26 9.24 11 9.52 10.98 9.53 10.97 9.54 10.97 9.56 10.98 9.57 10.99 9.58 11.01 9.58 11.02 9.57 11.02 9.57 11.26 9.32 11.39 9.43 11.45 9.48 11.47 9.59 11.44 9.71 11.42 9.82 11.37 9.91 11.33 9.92 11.32 9.92 11.31 9.94 11.31 9.95 11.31 9.96 11.33 9.97 11.34 9.97L11.34 9.97Z" fill="#AE7D2B"/><path d="M12.4 8.81C12.11 8.88 11.84 8.87 11.56 8.73 11.17 8.54 10.92 8.03 10.43 8.06 9.69 8.11 9.48 9.05 8.94 9.42 8.6 9.65 8.19 9.79 7.79 9.81 7.46 9.83 7.09 9.73 6.75 9.7 6.42 9.67 6.05 9.63 5.78 9.42 5.43 9.16 6.01 8.93 6.05 8.48 6.08 8.03 6.23 7.02 7.19 6.59 8.14 6.16 8.83 6.58 9.47 7.09 10.11 7.59 10.45 7.5 11.28 6.76 11.75 6.33 12.16 6.34 12.43 6.43 12.43 6.58 12.42 6.74 12.4 6.89 12.36 7.15 12.72 7.93 12.88 8.87 12.75 8.71 12.59 8.76 12.4 8.81Z" stroke="#DBAA49" stroke-width="0.0676" stroke-linecap="round" stroke-linejoin="round" fill="#DBAA49" opacity="0.2"/><g><path d="M11.46 6.81C11.46 6.81 12.27 6.25 12.85 6.97 13.43 7.69 13.04 8.42 12.38 8.63 11.72 8.84 11.23 8.33 11.1 7.94 10.96 7.5 11.1 7.01 11.46 6.81Z" stroke="#85712D" stroke-width="0.0676" stroke-linecap="round" stroke-linejoin="round" fill="#DFD8BC"/><path d="M11.52 6.9C11.52 6.9 12.19 6.42 12.69 7.05 13.19 7.68 12.87 8.3 12.32 8.48 11.77 8.65 11.34 8.2 11.23 7.86 11.1 7.49 11.22 7.08 11.52 6.9Z" fill="#F5EFDE"/><g><path d="M12.02 8.27C12.11 8.47 12.36 8.54 12.57 8.44 12.78 8.34 12.87 8.09 12.78 7.9 12.68 7.7 12.44 7.63 12.23 7.73 12.01 7.83 11.92 8.08 12.02 8.27Z" fill="#7F7930"/><path d="M12.05 8.24C12.13 8.4 12.33 8.46 12.5 8.38 12.67 8.29 12.75 8.09 12.67 7.93 12.59 7.77 12.39 7.71 12.22 7.79 12.05 7.87 11.97 8.07 12.05 8.24Z" fill="#4D502E" opacity="0.76"/><path d="M12.24 8.13C12.29 8.22 12.4 8.26 12.49 8.22 12.58 8.17 12.62 8.06 12.57 7.97 12.53 7.88 12.41 7.84 12.32 7.88 12.23 7.92 12.2 8.03 12.24 8.13Z" fill="#2C2D1A"/><path d="M12.15 7.99C12.18 8.06 12.26 8.08 12.32 8.05 12.38 8.02 12.41 7.94 12.38 7.87 12.35 7.8 12.27 7.78 12.21 7.81 12.14 7.85 12.11 7.93 12.15 7.99Z" fill="#E2D685" opacity="0.75"/></g></g><g><path d="M7.05 6.96C7.05 6.96 8.2 6.16 9.02 7.18 9.84 8.2 9.29 9.24 8.35 9.54 7.42 9.84 6.71 9.11 6.53 8.55 6.33 7.95 6.54 7.26 7.05 6.96Z" stroke="#85712D" stroke-width="0.0676" stroke-linecap="round" stroke-linejoin="round" fill="#DFD8BC"/><path d="M7.14 7.1C7.14 7.1 8.1 6.42 8.81 7.32 9.51 8.21 9.06 9.1 8.27 9.35 7.49 9.6 6.88 8.95 6.72 8.47 6.54 7.94 6.71 7.35 7.14 7.1Z" fill="#F5EFDE"/><g><path d="M7.84 9.05C7.98 9.33 8.33 9.44 8.62 9.29 8.92 9.14 9.05 8.8 8.91 8.52 8.78 8.24 8.43 8.13 8.13 8.28 7.84 8.42 7.7 8.77 7.84 9.05Z" fill="#7F7930"/><path d="M7.89 9C8 9.23 8.29 9.32 8.53 9.2 8.77 9.08 8.88 8.79 8.77 8.56 8.66 8.33 8.37 8.24 8.12 8.36 7.88 8.48 7.77 8.77 7.89 9Z" fill="#4D502E" opacity="0.76"/><path d="M8.16 8.84C8.22 8.97 8.38 9.03 8.51 8.96 8.64 8.9 8.69 8.74 8.63 8.61 8.57 8.48 8.41 8.42 8.28 8.49 8.15 8.55 8.09 8.71 8.16 8.84Z" fill="#2C2D1A"/><path d="M8.02 8.65C8.07 8.74 8.17 8.78 8.27 8.74 8.36 8.69 8.4 8.58 8.35 8.49 8.31 8.39 8.2 8.36 8.11 8.4 8.02 8.45 7.98 8.56 8.02 8.65Z" fill="#E2D685" opacity="0.75"/></g></g><path d="M3.64 9.51C4.53 10.28 4.13 9.7 4.02 9.38 3.91 9.06 4.07 7.48 4.12 7.39 4.12 7.39 3.38 7.43 4.91 6.02 6.42 4.62 9.9 3.67 12.32 5.59 12.32 5.59 12.37 5.82 12.4 6.13 12.22 6.08 11.93 6.07 11.54 6.3L11.45 5.98C11.45 5.98 10.96 5.79 10.85 5.61 10.85 5.61 10.04 6.11 9.16 5.47 9.16 5.47 8.57 5.94 7.35 5.37 7.35 5.37 7.47 6.34 6.67 5.99 6.67 5.99 6.34 6.95 5.76 6.47 5.76 6.47 5.63 7.53 5.05 7.34 5.05 7.34 4.9 8.26 4.39 7.88 3.89 7.5 4.31 9.31 4.64 9.58 4.97 9.85 3.88 10.16 4.77 11.95 5.75 13.93 8.97 12.97 9.27 12.82 9.57 12.67 9.96 12.88 10.38 12.76 10.81 12.64 11.06 12.24 11.06 12.24 11.06 12.24 12.06 12.02 12.71 10.84 12.45 11.5 11.92 12.12 10.94 12.6 7.49 14.31 4.27 13.13 3.61 11.76 3.61 11.76 2.59 11.91 2.21 10.86 1.83 9.83 2.75 8.74 3.64 9.51Z" stroke="#DBAA49" stroke-width="0.0676" stroke-linecap="round" stroke-linejoin="round" fill="#DBAA49" opacity="0.2"/><g><path d="M12.04 3.32C12.04 3.32 12.55 4.02 13.24 3.78 13.93 3.54 13.15 4.38 12.73 4.34 12.32 4.3 13.04 4.59 13.32 4.55 13.6 4.5 13.29 5.05 12.86 4.94 12.42 4.83 13.6 5.3 13.29 5.54 12.97 5.78 11.86 5.44 11.86 5.44 11.86 5.44 12.28 5.58 11.95 5.72 11.62 5.86 10.57 5.19 10.57 5.19 10.57 5.19 10.74 5.47 10.37 5.54 10 5.62 8.29 4.84 8.21 4.74 8.13 4.64 8.35 5 8.71 5.24 9.06 5.48 8.53 5.58 7.6 5.19 6.67 4.79 7 4.96 7.1 5.47 7.2 5.98 6.9 6.13 6.56 5.65 6.22 5.17 6.32 5.6 6.39 5.96 6.46 6.32 6.11 6.83 5.7 6.07 5.3 5.31 5.69 6.39 5.49 6.84 5.3 7.29 5.08 7.24 5 7.01 4.92 6.78 4.85 7.8 4.57 7.8 4.3 7.79 4.31 7.17 4.31 7.17 4.31 7.17 3.92 7.79 3.6 7.85 3.27 7.91 3.45 7.65 3.45 7.65 3.45 7.65 2.98 8.01 2.77 7.83 2.55 7.65 3.03 7.15 3.03 7.15 3.03 7.15 2.7 7.42 2.55 7.26 2.4 7.11 2.9 6.62 2.9 6.62 2.9 6.62 2.23 6.78 2.02 6.16 1.81 5.54 2.28 6.33 2.93 5.82L12.04 3.32Z" fill="#443513"/><path d="M13.18 5.63C13.23 5.62 13.28 5.59 13.32 5.57 13.38 5.52 13.39 5.47 13.39 5.44 13.38 5.29 13.16 5.14 12.92 4.99 13.14 5.02 13.33 4.89 13.42 4.76 13.48 4.68 13.49 4.6 13.46 4.55 13.44 4.52 13.4 4.49 13.32 4.5 13.16 4.53 12.84 4.43 12.7 4.37 12.71 4.37 12.72 4.37 12.73 4.37 13.01 4.4 13.44 4.04 13.53 3.86 13.56 3.79 13.55 3.75 13.53 3.72 13.49 3.67 13.39 3.67 13.23 3.73 12.57 3.96 12.08 3.29 12.07 3.28 12.06 3.26 12.03 3.26 12.02 3.27 12 3.3 12 3.32 12.01 3.34 12.02 3.35 12.55 4.06 13.26 3.81 13.45 3.74 13.48 3.78 13.48 3.78 13.48 3.78 13.48 3.8 13.47 3.83 13.39 4 12.99 4.32 12.74 4.3 12.64 4.29 12.6 4.3 12.58 4.33 12.57 4.35 12.57 4.37 12.58 4.39 12.64 4.47 13.12 4.63 13.33 4.59 13.36 4.58 13.38 4.59 13.39 4.6 13.4 4.61 13.39 4.66 13.35 4.72 13.26 4.85 13.07 4.96 12.86 4.91 12.79 4.89 12.73 4.88 12.72 4.92 12.7 4.96 12.74 4.98 12.87 5.06 13.02 5.15 13.29 5.32 13.3 5.44 13.3 5.46 13.3 5.48 13.26 5.51 12.96 5.73 11.88 5.41 11.87 5.41 11.85 5.4 11.83 5.41 11.82 5.44 11.81 5.46 11.83 5.48 11.85 5.49 11.94 5.52 12.04 5.58 12.04 5.61 12.04 5.63 12.01 5.66 11.94 5.69 11.69 5.8 10.89 5.35 10.6 5.16 10.58 5.15 10.56 5.15 10.55 5.17 10.54 5.18 10.54 5.2 10.54 5.22 10.54 5.22 10.59 5.31 10.56 5.39 10.54 5.45 10.47 5.49 10.36 5.51 10 5.58 8.31 4.79 8.25 4.72 8.23 4.7 8.21 4.68 8.19 4.69 8.18 4.69 8.16 4.71 8.16 4.72 8.15 4.77 8.4 5.08 8.69 5.27 8.78 5.33 8.79 5.36 8.78 5.37 8.75 5.44 8.34 5.46 7.61 5.15 7.1 4.93 6.99 4.89 6.94 4.95 6.9 4.99 6.92 5.05 6.96 5.16 6.99 5.24 7.03 5.35 7.05 5.47 7.1 5.68 7.06 5.85 6.98 5.89 6.9 5.92 6.76 5.87 6.59 5.62 6.44 5.41 6.37 5.38 6.33 5.4 6.25 5.44 6.27 5.58 6.34 5.93L6.35 5.97C6.39 6.16 6.3 6.37 6.18 6.42 6.05 6.46 5.89 6.33 5.74 6.05 5.6 5.79 5.56 5.75 5.51 5.77 5.46 5.79 5.47 5.86 5.49 6.06 5.51 6.28 5.55 6.62 5.46 6.82 5.33 7.12 5.22 7.14 5.18 7.14 5.12 7.14 5.07 7.08 5.04 6.99 5.04 6.97 5.02 6.93 4.98 6.93 4.93 6.93 4.91 7 4.86 7.19 4.8 7.41 4.71 7.76 4.58 7.76 4.54 7.76 4.51 7.74 4.48 7.71 4.37 7.59 4.35 7.28 4.35 7.17 4.35 7.15 4.34 7.14 4.32 7.13 4.3 7.12 4.29 7.13 4.28 7.15 4.28 7.16 3.9 7.76 3.59 7.82 3.5 7.83 3.45 7.82 3.44 7.8 3.43 7.78 3.46 7.71 3.48 7.67 3.49 7.65 3.49 7.63 3.47 7.62 3.46 7.61 3.44 7.61 3.42 7.62 3.3 7.71 2.95 7.93 2.79 7.8 2.77 7.78 2.75 7.75 2.75 7.71 2.74 7.55 2.97 7.27 3.06 7.17 3.07 7.15 3.07 7.13 3.06 7.12 3.05 7.1 3.02 7.1 3.01 7.11 2.92 7.18 2.68 7.34 2.58 7.23 2.56 7.22 2.56 7.21 2.56 7.19 2.56 7.04 2.83 6.76 2.93 6.66 2.94 6.65 2.95 6.63 2.94 6.61 2.93 6.59 2.91 6.58 2.9 6.59 2.87 6.59 2.26 6.72 2.06 6.14 2.01 5.98 2.01 5.95 2.01 5.94 2.02 5.94 2.07 5.96 2.11 5.97 2.28 6.03 2.59 6.13 2.96 5.85 2.97 5.84 2.97 5.81 2.96 5.8 2.95 5.78 2.92 5.77 2.91 5.79 2.57 6.05 2.3 5.95 2.13 5.9 2.05 5.87 1.99 5.85 1.95 5.89 1.92 5.92 1.93 5.99 1.99 6.17 2.16 6.66 2.59 6.69 2.8 6.68 2.68 6.8 2.48 7.03 2.48 7.19 2.48 7.23 2.49 7.27 2.52 7.3 2.61 7.38 2.74 7.35 2.85 7.3 2.76 7.43 2.67 7.59 2.67 7.72 2.67 7.78 2.7 7.83 2.74 7.86 2.91 8.01 3.2 7.86 3.36 7.75 3.36 7.78 3.36 7.81 3.37 7.84 3.41 7.9 3.49 7.91 3.6 7.89 3.86 7.84 4.14 7.47 4.27 7.29 4.28 7.43 4.31 7.65 4.42 7.76 4.46 7.81 4.51 7.83 4.57 7.83 4.76 7.83 4.86 7.47 4.93 7.21 4.95 7.15 4.96 7.09 4.98 7.04 5.02 7.14 5.09 7.21 5.18 7.21 5.27 7.22 5.4 7.16 5.54 6.85 5.63 6.63 5.6 6.28 5.58 6.05 5.56 5.99 5.55 5.92 5.55 5.88 5.57 5.91 5.61 5.97 5.67 6.09 5.9 6.52 6.11 6.53 6.21 6.49 6.39 6.42 6.47 6.15 6.43 5.96L6.42 5.91C6.39 5.77 6.34 5.54 6.36 5.48 6.38 5.49 6.42 5.53 6.53 5.67 6.7 5.91 6.88 6.02 7.01 5.96 7.14 5.91 7.18 5.72 7.13 5.46 7.1 5.32 7.06 5.21 7.03 5.13 7.01 5.08 6.99 5.02 6.99 5 6.99 5 6.99 5 6.99 5 7.03 4.99 7.32 5.11 7.58 5.22 8.27 5.52 8.78 5.55 8.85 5.41 8.87 5.37 8.87 5.3 8.73 5.21 8.57 5.1 8.44 4.97 8.35 4.87 8.81 5.11 10.05 5.65 10.39 5.58 10.53 5.55 10.61 5.5 10.65 5.41 10.67 5.36 10.67 5.32 10.66 5.28 10.93 5.44 11.69 5.88 11.98 5.75 12.02 5.73 12.13 5.69 12.13 5.6 12.13 5.58 12.12 5.56 12.11 5.55 12.4 5.61 12.89 5.71 13.18 5.63L13.18 5.63Z"/></g><path d="M5.4 10.91C5.47 11.11 5.81 11.18 6.17 11.05 6.52 10.93 6.76 10.67 6.69 10.46 6.62 10.26 6.28 10.19 5.92 10.32 5.56 10.45 5.33 10.71 5.4 10.91Z" fill="#DA9C46" opacity="0.74"/><path d="M12.13 9.43C12.16 9.57 12.34 9.64 12.54 9.6 12.74 9.56 12.87 9.41 12.84 9.28 12.81 9.14 12.63 9.07 12.43 9.11 12.24 9.15 12.1 9.3 12.13 9.43Z" fill="#DA9C46" opacity="0.74"/><path d="M11.45 9.54C11.45 9.54 11.52 9.71 11.43 9.85 11.33 9.99 11.19 10.03 11.14 9.93 11.09 9.85 11.47 9.81 11.45 9.54Z" stroke="#DBAA49" stroke-width="0.0676" stroke-linecap="round" stroke-linejoin="round" fill="#DBAA49" opacity="0.26"/><path d="M3.36 1.63C3.36 1.63 5.36 0 8.24 0.26 11.12 0.52 11.71 1.73 11.44 1.82 11.17 1.91 11.91 2.2 12.46 2.08 13.01 1.96 13.12 1.76 13.06 1.51 13 1.26 13.17 1.16 13.4 1.34 13.63 1.53 13.59 2.17 12.82 2.31 12.05 2.45 13.25 2.55 13.45 2.5 13.65 2.46 13.64 2.58 13.14 2.75 12.64 2.92 14.15 2.98 14.3 3.15 14.45 3.32 14.19 3.45 13.69 3.29 13.19 3.12 13.41 3.43 13.59 3.49 13.77 3.55 12.79 3.89 12.14 3.14 11.49 2.4 11.67 3.35 12.13 3.67 12.59 3.99 12.16 4.1 12 4.17 11.75 4.29 12.27 4.79 12.73 5.04 13.19 5.29 12.42 5.62 11.78 4.92 11.34 4.45 11.86 5.36 11.37 5.33 11.06 5.31 10.46 4.78 10.23 4.44 10 4.11 10.13 4.69 10.3 4.92 10.47 5.15 9.42 5.42 8.31 4.42 7.19 3.47 7.8 4.63 7.98 4.88 8.16 5.13 7.43 4.85 7.08 4.49 6.72 4.14 6.56 4.43 6.74 4.95 6.92 5.47 6.63 5.59 6.23 4.91 5.83 4.23 5.86 4.87 6.05 5.33 6.23 5.8 5.94 6.26 5.46 5.32 4.97 4.37 5.21 5.28 5.33 5.77 5.45 6.26 5.35 6.78 5.16 6.7 4.97 6.62 5.09 6.1 5.03 5.9 4.96 5.71 4.77 6.33 4.76 6.91 4.75 7.5 4.37 7.41 4.47 6.67 4.57 5.93 4.12 7.35 3.78 7.46 3.45 7.58 3.95 6.88 3.95 6.88 3.95 6.88 3.39 7.55 3.18 7.41 2.96 7.27 3.5 6.84 3.64 6.79 3.79 6.74 3.2 6.94 3.12 6.75 3.04 6.56 4.08 6.13 3.75 6.2 3.42 6.26 2.93 6.6 2.63 6.37 2.34 6.13 3.03 6.08 3.3 5.65 3.57 5.22 2.71 5.85 2.38 5.82 2.04 5.8 2.45 5.34 2.82 5.19 3.19 5.04 2.39 5.02 1.69 5.72 0.99 6.42 1.19 5.75 1.35 5.62 1.52 5.49 0.8 6.27 0.53 6.08 0.25 5.89 1.59 5.08 1.59 5.08 1.59 5.08 1.12 5.27 1.06 5.12 1.01 4.97 1.18 4.84 1.39 4.77 1.6 4.69 1.32 4.57 0.83 4.84 0.33 5.11 0.52 4.2 1.36 4.15 2.21 4.1 0.52 3.74 1.56 3.48 2.59 3.22 1.66 3.23 1.41 3.1 1.15 2.96 1.48 2.83 1.87 2.96 2.27 3.09 2.01 2.74 1.87 2.6 1.72 2.45 2.14 2.5 2.2 2.63 2.27 2.75 2.1 2.33 2.1 2.2 2.11 2.08 2.3 2.23 2.33 2.34 2.38 2.44 2.17 1.7 2.39 1.52 2.61 1.35 2.54 1.76 2.62 1.92 2.7 2.09 2.97 1.96 3.36 1.63Z" fill="#6A5322" opacity="0.83"/><path d="M13.72 6C13.72 6 14.15 5.99 14.13 6.14 14.11 6.29 13.45 6.06 13.72 6Z" fill="#6A5322" opacity="0.83"/><path d="M13.32 5.93C13.32 5.93 13.54 6.51 13.38 6.51 13.22 6.51 13.18 6.38 13.18 6.38 13.18 6.38 13.21 6.94 13.05 6.92 12.89 6.9 12.92 6.24 12.79 6.05 12.66 5.86 13.06 5.94 13.1 6.05 13.14 6.17 13.13 5.58 13.32 5.93Z" fill="#6A5322" opacity="0.83"/><path d="M13.26 5.06C13.26 5.06 13.54 5.02 13.72 5.24 13.9 5.46 13.12 5.15 13.26 5.06Z" fill="#6A5322" opacity="0.83"/><path d="M13.96 3.79C13.96 3.79 14.31 4.02 14.26 4.17 14.21 4.31 13.63 3.62 13.96 3.79Z" fill="#6A5322" opacity="0.83"/><path d="M12.7 3.9C12.7 3.9 12.93 4.02 13.26 3.87 13.25 3.87 12.89 4.32 12.7 3.9Z" fill="#6A5322" opacity="0.83"/><path d="M12.74 4.53C12.74 4.53 12.98 4.62 13.22 4.61 13.45 4.6 13.03 4.98 12.74 4.53Z" fill="#6A5322" opacity="0.83"/><path d="M3.64 8.17C3.64 8.17 3.85 8.71 3.65 9.01 3.46 9.31 3.26 8.93 3.25 8.77 3.24 8.61 2.44 9.06 2.07 9.58 1.7 10.1 1.42 9.41 1.85 8.65 2.27 7.89 1.47 8.88 1.39 9.23 1.3 9.59 0.82 9.24 1.14 8.19 1.47 7.13 0.96 7.66 0.82 7.9 0.67 8.14 0.43 7.51 0.74 7.2 1.04 6.88 1.33 6.6 1.52 6.27 1.7 5.95 1.9 6.54 1.59 7.02 1.27 7.5 1.9 7.06 2.01 6.8 2.13 6.55 2.52 7.23 2.05 7.73 1.58 8.22 2.65 7.22 2.58 7.74 2.51 8.26 2.61 8.55 2.9 8.33 3.19 8.11 3.6 7.9 3.64 8.17Z" fill="#6A5322" opacity="0.83"/><path d="M4.03 2.16C4.03 2.16 3.41 2.54 3.48 2.89 3.55 3.24 3.1 2.86 2.59 3.36 2.08 3.86 2.68 2.93 3 2.89 3.33 2.85 3.26 2.43 3.7 2.2 4.15 1.98 4.03 2.16 4.03 2.16Z" fill="#443513"/><g><path d="M10.91 12.59C10.91 12.59 10.62 13.24 9.78 12.92L10.91 12.59Z" fill="#DBAA49"/><path d="M10.44 13.01C10.79 12.91 10.94 12.61 10.94 12.61 10.95 12.6 10.94 12.58 10.93 12.57 10.92 12.56 10.9 12.57 10.9 12.58 10.89 12.61 10.61 13.2 9.8 12.89 9.79 12.88 9.77 12.89 9.77 12.91 9.77 12.92 9.77 12.94 9.79 12.94 10.05 13.05 10.27 13.05 10.44 13.01L10.44 13.01Z" fill="#AE7D2B"/></g><g opacity="0.2"><path d="M10.91 12.59C10.91 12.59 10.62 13.24 9.78 12.92L10.91 12.59Z" fill="#DBAA49"/><path d="M10.44 13.01C10.79 12.91 10.94 12.61 10.94 12.61 10.95 12.6 10.94 12.58 10.93 12.57 10.92 12.56 10.9 12.57 10.9 12.58 10.89 12.61 10.61 13.2 9.8 12.89 9.79 12.88 9.77 12.89 9.77 12.91 9.77 12.92 9.77 12.94 9.79 12.94 10.05 13.05 10.27 13.05 10.44 13.01L10.44 13.01Z" fill="#DBAA49"/></g><g><path d="M11.11 10.66C11.11 10.66 11.32 10.67 11.37 10.88 11.41 11.09 11.05 11.32 10.79 11.4 10.72 11.42 10.71 11.66 10.72 11.7 10.73 11.92 10.85 12.13 10.8 12.36 10.76 12.55 10.64 12.72 10.43 12.75 10.05 12.8 9.82 12.25 10.1 11.75 10.38 11.25 10.77 11.27 10.96 11.07 11.15 10.87 11 10.82 10.88 10.86 10.76 10.91 10.73 10.67 11.11 10.66Z" fill="#DBAA49" opacity="0.2"/><g><path d="M10.67 11.35C10.67 11.35 10.56 11.5 10.66 11.97 10.72 12.26 10.71 12.69 10.35 12.65 9.94 12.61 10.05 11.62 10.67 11.35Z" stroke="#AE7D2B" stroke-width="0.0676" stroke-linecap="round" stroke-linejoin="round" fill="#C64F27"/><path d="M10.48 12.67C10.46 12.68 10.44 12.68 10.42 12.68 10.3 12.68 10.2 12.62 10.14 12.52 10.04 12.35 10.08 12.09 10.25 11.73 10.39 11.44 10.63 11.33 10.88 11.23 10.98 11.19 11.11 11.13 11.18 11.04 11.24 10.97 11.25 10.9 11.21 10.84 11.17 10.78 11.08 10.76 10.99 10.79 10.98 10.8 10.96 10.79 10.96 10.77 10.96 10.76 10.96 10.74 10.98 10.74 11.1 10.7 11.21 10.73 11.26 10.81 11.31 10.88 11.3 10.98 11.23 11.07 11.15 11.17 11.01 11.23 10.91 11.27 10.84 11.3 10.77 11.33 10.71 11.36 10.62 11.54 10.65 11.73 10.69 11.93 10.73 12.12 10.76 12.32 10.68 12.51 10.62 12.6 10.55 12.65 10.48 12.67L10.48 12.67ZM10.62 11.41C10.48 11.49 10.37 11.59 10.29 11.76 10.13 12.1 10.09 12.34 10.18 12.5 10.23 12.59 10.32 12.64 10.42 12.64 10.51 12.64 10.58 12.59 10.62 12.5 10.7 12.33 10.67 12.14 10.63 11.95 10.59 11.77 10.55 11.58 10.62 11.41L10.62 11.41Z" fill="#AE7D2B"/></g></g></g></g></g></svg>