<svg width="202.91" height="140.2" viewBox="0 0 202.91 140.2" xmlns="http://www.w3.org/2000/svg" xmlns:xlink="http://www.w3.org/1999/xlink" xml:space="preserve" overflow="hidden"><defs></defs><g><g><g><g><g><g><g><path d="M196.41 6.38 157.69 19.8C152.78 21.5 148.78 25.15 146.64 29.89 146.13 31.02 145.73 32.2 145.45 33.41 145.17 34.62 145.01 35.85 144.97 37.09L144.62 48.28 142.9 104.02 192.03 104.02C198.03 104.02 202.9 99.16 202.9 93.15L202.9 11.18C202.91 7.8 199.64 5.38 196.41 6.38ZM147.88 45.15 147.88 37.05C147.88 34.07 148.78 31.16 150.47 28.7 152.08 26.36 154.34 24.53 156.96 23.44 161.62 21.5 166.29 19.56 170.95 17.63 173.8 16.45 176.8 15.81 179.79 15.04 183.19 14.16 186.59 13.27 190 12.39 192.85 11.65 195.71 10.91 198.56 10.17 199.61 9.9 200.64 10.69 200.64 11.78L200.64 44.13C200.64 45.58 199.47 46.75 198.02 46.75L149.47 46.75C148.59 46.73 147.88 46.02 147.88 45.15Z" fill="#FBC10D"/></g></g></g><g opacity="0.5"><g><g><path d="M200.65 11.76 200.65 44.11C200.65 45.56 199.48 46.73 198.03 46.73L149.48 46.73C148.92 46.73 148.42 46.44 148.14 46 147.98 45.75 147.89 45.46 147.89 45.15L147.89 37.05C147.89 34.07 148.79 31.16 150.48 28.7 152.09 26.36 154.35 24.53 156.97 23.44 161.39 21.6 165.8 19.77 170.22 17.94 170.47 17.84 170.72 17.73 170.96 17.63 173.77 16.46 176.73 15.83 179.68 15.07 179.72 15.06 179.76 15.05 179.8 15.04 183.2 14.16 186.6 13.27 190.01 12.39 192.86 11.65 195.72 10.91 198.57 10.17 199.62 9.88 200.65 10.67 200.65 11.76Z" fill="#98BAF4"/></g></g></g><g><g><g><g><rect x="150.45" y="66.47" width="8.11" height="7.77" fill="#3C3C70"/></g></g></g><g><g><g><rect x="158.56" y="74.23" width="8.11" height="7.76" fill="#3C3C70"/></g></g></g><g><g><g><rect x="166.67" y="66.47" width="8.11" height="7.77" fill="#3C3C70"/></g></g></g><g><g><g><rect x="174.79" y="74.23" width="8.11" height="7.76" fill="#3C3C70"/></g></g></g><g><g><g><rect x="182.9" y="66.47" width="8.11" height="7.77" fill="#3C3C70"/></g></g></g><g><g><g><rect x="191.01" y="74.23" width="8.11" height="7.76" fill="#3C3C70"/></g></g></g><g><g><g><rect x="199.13" y="66.47" width="3.78" height="7.77" fill="#3C3C70"/></g></g></g></g><g><g><g><g><path d="M195.5 61.81 182.88 61.81C182.29 61.81 181.8 61.33 181.8 60.73L181.8 55.64C181.8 55.05 182.28 54.56 182.88 54.56L195.5 54.56C196.09 54.56 196.58 55.04 196.58 55.64L196.58 60.73C196.58 61.33 196.09 61.81 195.5 61.81Z" fill="#F28C08"/></g></g></g><g><g><g><path d="M196.42 58.19C196.42 59.02 193.86 59.7 190.69 59.7 187.53 59.7 184.96 59.03 184.96 58.19 184.96 57.36 187.52 56.68 190.69 56.68 193.86 56.68 196.42 57.36 196.42 58.19Z" fill="#FBC10D"/></g></g></g></g><g><g><g><path d="M158.13 79.26 158.13 104.02 142.9 104.02 144.62 48.28C145.22 49.48 145.88 50.66 146.59 51.8L153.46 62.88C156.52 67.79 158.13 73.47 158.13 79.26Z" fill="#F28C08"/></g></g></g><g opacity="0.5"><g><g><g><path d="M179.68 15.06C179.31 17.27 179.24 19.65 178.52 21.5 177.21 24.85 173.9 26.93 170.65 28.46 167.61 29.89 164.22 31.22 162.54 34.12 161.46 35.97 161.27 38.19 160.76 40.27 160.2 42.56 159.25 44.7 158.07 46.73L149.48 46.73C148.92 46.73 148.42 46.44 148.14 46 150.39 44.31 152.63 42.64 153.68 40.1 154.62 37.8 154.44 35.05 155.87 33.01 156.93 31.49 158.69 30.66 160.28 29.7 164.49 27.16 167.89 23.29 169.87 18.79 170 18.51 170.11 18.22 170.23 17.94 170.48 17.84 170.73 17.73 170.97 17.63 173.77 16.46 176.73 15.82 179.68 15.06Z" fill="#FFFFFF"/></g></g></g><g><g><g><path d="M200.65 16.23 200.65 27.8C197.88 30.2 195.35 32.94 193.7 36.24 193.37 36.9 193.07 37.59 192.8 38.28 191.66 41.15 190.86 44.19 189.24 46.73L175.38 46.73C175.39 46.72 175.39 46.71 175.4 46.7 177.24 44.41 180.03 43.14 182.32 41.3 184.94 39.19 186.92 36.29 187.91 33.08 188.53 31.06 188.84 28.81 190.32 27.3 191.76 25.83 194 25.42 195.58 24.1 196.92 22.98 197.65 21.33 198.39 19.75 199 18.49 199.66 17.19 200.65 16.23Z" fill="#FFFFFF"/></g></g></g></g><g><g><g><path d="M198.02 47.49 149.47 47.49C148.18 47.49 147.13 46.44 147.13 45.15L147.13 37.05C147.13 33.9 148.07 30.87 149.86 28.27 151.56 25.8 153.92 23.89 156.68 22.74L170.67 16.93C173.01 15.96 175.47 15.34 177.85 14.75 178.44 14.6 179.03 14.46 179.61 14.3L198.38 9.43C199.11 9.24 199.87 9.4 200.46 9.86 201.06 10.32 201.4 11.02 201.4 11.77L201.4 44.12C201.4 45.97 199.88 47.49 198.02 47.49ZM198.99 10.85C198.91 10.85 198.84 10.86 198.76 10.88L179.99 15.75C179.4 15.9 178.81 16.05 178.21 16.2 175.78 16.81 173.48 17.38 171.25 18.31L157.26 24.12C154.76 25.16 152.63 26.88 151.1 29.11 149.49 31.45 148.64 34.19 148.64 37.03L148.64 45.13C148.64 45.59 149.01 45.96 149.47 45.96L198.02 45.96C199.05 45.96 199.89 45.12 199.89 44.09L199.89 11.76C199.89 11.48 199.76 11.22 199.54 11.04 199.38 10.92 199.19 10.85 198.99 10.85Z" fill="#3C3C70"/></g></g></g></g><g><g><g><path d="M93.6 0 68.9 0C66.78 0 64.96 1.48 64.52 3.55L62.55 12.96 99.94 12.96 97.97 3.55C97.54 1.48 95.72 0 93.6 0Z" fill="#FFFFFF"/></g></g><g><g><path d="M101.16 16.13 61.35 16.13C60.98 16.13 60.68 15.83 60.68 15.46L60.68 12.28C60.68 11.91 60.98 11.61 61.35 11.61L101.16 11.61C101.53 11.61 101.83 11.91 101.83 12.28L101.83 15.46C101.83 15.83 101.53 16.13 101.16 16.13Z" fill="#F28C08"/></g></g><g><g><g><path d="M72.96 4.03C71.82 4.04 71.09 4.08 71.09 4.08 71.09 4.08 71.06 3.86 71.06 3.65 71.06 3.51 71.08 3.31 71.13 3.07L76.21 3.07C76.21 3.07 76.24 3.26 76.24 3.44 76.24 3.59 76.22 3.87 76.15 4.08 76.02 4.06 75.05 4.03 74.26 4.03L74.26 10.83 72.97 10.83 72.97 4.03Z" fill="#3C3C70"/></g></g><g><g><path d="M78.59 3.07 80.54 3.07 82.86 10.83 81.56 10.83 80.85 8.46 78.34 8.46 77.67 10.83 76.34 10.83 78.59 3.07ZM80.58 7.46 79.53 3.66 78.59 7.46 80.58 7.46Z" fill="#3C3C70"/></g></g><g><g><path d="M85.21 6.85 82.86 3.06 84.33 3.06 85.45 5 85.96 6.07 86 6.07 86.53 5 87.63 3.07 89.14 3.07 86.72 6.98 89.23 10.82 87.69 10.82 86.36 8.6 85.95 7.79 85.93 7.79 85.55 8.6 84.32 10.83 82.83 10.83 85.21 6.85Z" fill="#3C3C70"/></g></g><g><g><path d="M90.16 3.07 91.45 3.07 91.45 10.83 90.16 10.83 90.16 3.07Z" fill="#3C3C70"/></g></g></g></g><g><g><g><g><path d="M148.03 108.39 148.03 136.65C148.03 137.9 147.38 139 146.4 139.63 145.99 139.9 145.52 140.08 145.01 140.16 144.84 140.19 144.66 140.2 144.48 140.2L126.4 140.2C126.22 140.2 126.04 140.19 125.87 140.16 125.36 140.08 124.89 139.9 124.48 139.63 123.5 139 122.85 137.9 122.85 136.65L122.85 108.39 148.03 108.39Z" fill="#272443"/></g></g><g><g><g><g><g><g><path d="M127.15 108.39C127.12 108.47 127.08 108.54 127.03 108.6L125.3 110.71C125.17 110.87 124.99 110.95 124.81 110.95 124.65 110.95 124.49 110.88 124.36 110.75 124.09 110.47 124.08 109.99 124.33 109.69L125.39 108.39 127.15 108.39Z" fill="#3C3C70"/></g></g></g><g><g><g><path d="M130.86 110.75C130.73 110.89 130.57 110.95 130.41 110.95 130.23 110.95 130.05 110.87 129.92 110.71L128.19 108.6C128.14 108.54 128.1 108.46 128.07 108.39L129.84 108.39 130.9 109.69C131.15 109.99 131.13 110.47 130.86 110.75Z" fill="#3C3C70"/></g></g></g></g><g><g><g><g><path d="M124.81 114.72C124.65 114.72 124.48 114.65 124.36 114.52 124.09 114.24 124.07 113.76 124.33 113.45L126.06 111.34C126.31 111.04 126.73 111.02 127 111.3 127.27 111.58 127.29 112.06 127.04 112.37L125.31 114.48C125.16 114.64 124.99 114.72 124.81 114.72Z" fill="#3C3C70"/></g></g></g><g><g><g><path d="M130.41 114.72C130.23 114.72 130.05 114.64 129.92 114.48L128.19 112.37C127.94 112.06 127.96 111.59 128.22 111.3 128.49 111.02 128.91 111.03 129.16 111.34L130.89 113.45C131.14 113.75 131.13 114.23 130.85 114.52 130.73 114.65 130.57 114.72 130.41 114.72Z" fill="#3C3C70"/></g></g></g></g><g><g><g><g><path d="M124.81 118.49C124.65 118.49 124.48 118.42 124.36 118.29 124.09 118.01 124.07 117.53 124.33 117.22L126.06 115.11C126.31 114.8 126.73 114.79 127 115.07 127.27 115.35 127.29 115.83 127.04 116.14L125.31 118.25C125.16 118.41 124.99 118.49 124.81 118.49Z" fill="#3C3C70"/></g></g></g><g><g><g><path d="M130.41 118.49C130.23 118.49 130.05 118.41 129.92 118.25L128.19 116.14C127.94 115.83 127.96 115.36 128.22 115.07 128.49 114.79 128.91 114.8 129.16 115.11L130.89 117.22C131.14 117.53 131.13 118 130.85 118.29 130.73 118.42 130.57 118.49 130.41 118.49Z" fill="#3C3C70"/></g></g></g></g><g><g><g><g><path d="M124.81 122.26C124.65 122.26 124.48 122.19 124.36 122.06 124.09 121.78 124.07 121.3 124.33 120.99L126.06 118.88C126.31 118.58 126.73 118.56 127 118.84 127.27 119.12 127.29 119.6 127.04 119.91L125.31 122.02C125.16 122.18 124.99 122.26 124.81 122.26Z" fill="#3C3C70"/></g></g></g><g><g><g><path d="M130.41 122.26C130.23 122.26 130.05 122.18 129.92 122.02L128.19 119.91C127.94 119.6 127.96 119.13 128.22 118.84 128.49 118.56 128.91 118.57 129.16 118.88L130.89 120.99C131.14 121.29 131.13 121.77 130.85 122.06 130.73 122.19 130.57 122.26 130.41 122.26Z" fill="#3C3C70"/></g></g></g></g><g><g><g><g><path d="M124.81 126.03C124.65 126.03 124.48 125.96 124.36 125.83 124.09 125.55 124.07 125.07 124.33 124.76L126.06 122.65C126.31 122.34 126.73 122.33 127 122.61 127.27 122.89 127.29 123.37 127.04 123.68L125.31 125.79C125.16 125.95 124.99 126.03 124.81 126.03Z" fill="#3C3C70"/></g></g></g><g><g><g><path d="M130.41 126.03C130.23 126.03 130.05 125.95 129.92 125.79L128.19 123.68C127.94 123.37 127.96 122.9 128.22 122.61 128.49 122.33 128.91 122.34 129.16 122.65L130.89 124.76C131.14 125.07 131.13 125.54 130.85 125.83 130.73 125.96 130.57 126.03 130.41 126.03Z" fill="#3C3C70"/></g></g></g></g><g><g><g><g><path d="M124.81 129.8C124.65 129.8 124.48 129.73 124.36 129.6 124.09 129.32 124.07 128.84 124.33 128.53L126.06 126.42C126.31 126.12 126.73 126.1 127 126.38 127.27 126.66 127.29 127.14 127.04 127.45L125.31 129.56C125.16 129.72 124.99 129.8 124.81 129.8Z" fill="#3C3C70"/></g></g></g><g><g><g><path d="M130.41 129.8C130.23 129.8 130.05 129.72 129.92 129.56L128.19 127.45C127.94 127.14 127.96 126.67 128.22 126.38 128.49 126.1 128.91 126.11 129.16 126.42L130.89 128.53C131.14 128.83 131.13 129.31 130.85 129.6 130.73 129.73 130.57 129.8 130.41 129.8Z" fill="#3C3C70"/></g></g></g></g><g><g><g><g><path d="M124.81 133.57C124.65 133.57 124.48 133.5 124.36 133.37 124.09 133.09 124.07 132.61 124.33 132.3L126.06 130.19C126.31 129.89 126.73 129.87 127 130.15 127.27 130.43 127.29 130.91 127.04 131.22L125.31 133.33C125.16 133.48 124.99 133.57 124.81 133.57Z" fill="#3C3C70"/></g></g></g><g><g><g><path d="M130.41 133.57C130.23 133.57 130.05 133.49 129.92 133.33L128.19 131.22C127.94 130.91 127.96 130.44 128.22 130.15 128.49 129.87 128.91 129.88 129.16 130.19L130.89 132.3C131.14 132.61 131.13 133.08 130.85 133.37 130.73 133.5 130.57 133.57 130.41 133.57Z" fill="#3C3C70"/></g></g></g></g><g><g><g><g><path d="M124.81 137.33C124.65 137.33 124.48 137.26 124.36 137.13 124.09 136.85 124.07 136.37 124.33 136.06L126.06 133.95C126.31 133.65 126.73 133.63 127 133.91 127.27 134.19 127.29 134.67 127.04 134.98L125.31 137.09C125.16 137.25 124.99 137.33 124.81 137.33Z" fill="#3C3C70"/></g></g></g><g><g><g><path d="M130.41 137.33C130.23 137.33 130.05 137.25 129.92 137.09L128.19 134.98C127.94 134.67 127.96 134.2 128.22 133.91 128.49 133.63 128.91 133.64 129.16 133.95L130.89 136.06C131.14 136.37 131.13 136.84 130.85 137.13 130.73 137.27 130.57 137.33 130.41 137.33Z" fill="#3C3C70"/></g></g></g></g><g><g><g><g><path d="M127.03 138.75 125.87 140.16C125.36 140.08 124.89 139.9 124.48 139.63L126.05 137.72C126.3 137.42 126.72 137.4 126.99 137.68 127.26 137.97 127.28 138.45 127.03 138.75Z" fill="#3C3C70"/></g></g></g><g><g><g><path d="M131.06 140.2 129.37 140.2 128.18 138.75C127.93 138.45 127.94 137.97 128.21 137.69 128.48 137.41 128.9 137.42 129.15 137.73L130.88 139.84C130.98 139.94 131.04 140.07 131.06 140.2Z" fill="#3C3C70"/></g></g></g></g></g><g><g><g><g><g><path d="M134.99 108.39C134.96 108.47 134.92 108.54 134.87 108.6L133.14 110.71C133.01 110.87 132.83 110.95 132.65 110.95 132.49 110.95 132.33 110.88 132.2 110.75 131.93 110.47 131.92 109.99 132.17 109.69L133.23 108.39 134.99 108.39Z" fill="#3C3C70"/></g></g></g><g><g><g><path d="M138.7 110.75C138.57 110.89 138.41 110.95 138.25 110.95 138.07 110.95 137.89 110.87 137.76 110.71L136.03 108.6C135.98 108.54 135.94 108.46 135.91 108.39L137.68 108.39 138.74 109.69C138.99 109.99 138.97 110.47 138.7 110.75Z" fill="#3C3C70"/></g></g></g></g><g><g><g><g><path d="M132.65 114.72C132.49 114.72 132.32 114.65 132.2 114.52 131.93 114.24 131.91 113.76 132.17 113.45L133.9 111.34C134.15 111.04 134.57 111.02 134.84 111.3 135.11 111.58 135.13 112.06 134.87 112.37L133.14 114.48C133 114.64 132.82 114.72 132.65 114.72Z" fill="#3C3C70"/></g></g></g><g><g><g><path d="M138.25 114.72C138.07 114.72 137.89 114.64 137.76 114.48L136.03 112.37C135.78 112.06 135.8 111.59 136.06 111.3 136.33 111.02 136.75 111.03 137 111.34L138.73 113.45C138.98 113.75 138.96 114.23 138.7 114.52 138.57 114.65 138.41 114.72 138.25 114.72Z" fill="#3C3C70"/></g></g></g></g><g><g><g><g><path d="M132.65 118.49C132.49 118.49 132.32 118.42 132.2 118.29 131.93 118.01 131.91 117.53 132.17 117.22L133.9 115.11C134.15 114.8 134.57 114.79 134.84 115.07 135.11 115.35 135.13 115.83 134.87 116.14L133.14 118.25C133 118.41 132.82 118.49 132.65 118.49Z" fill="#3C3C70"/></g></g></g><g><g><g><path d="M138.25 118.49C138.07 118.49 137.89 118.41 137.76 118.25L136.03 116.14C135.78 115.83 135.8 115.36 136.06 115.07 136.33 114.79 136.75 114.8 137 115.11L138.73 117.22C138.98 117.53 138.96 118 138.7 118.29 138.57 118.42 138.41 118.49 138.25 118.49Z" fill="#3C3C70"/></g></g></g></g><g><g><g><g><path d="M132.65 122.26C132.49 122.26 132.32 122.19 132.2 122.06 131.93 121.78 131.91 121.3 132.17 120.99L133.9 118.88C134.15 118.58 134.57 118.56 134.84 118.84 135.11 119.12 135.13 119.6 134.87 119.91L133.14 122.02C133 122.18 132.82 122.26 132.65 122.26Z" fill="#3C3C70"/></g></g></g><g><g><g><path d="M138.25 122.26C138.07 122.26 137.89 122.18 137.76 122.02L136.03 119.91C135.78 119.6 135.8 119.13 136.06 118.84 136.33 118.56 136.75 118.57 137 118.88L138.73 120.99C138.98 121.29 138.96 121.77 138.7 122.06 138.57 122.19 138.41 122.26 138.25 122.26Z" fill="#3C3C70"/></g></g></g></g><g><g><g><g><path d="M132.65 126.03C132.49 126.03 132.32 125.96 132.2 125.83 131.93 125.55 131.91 125.07 132.17 124.76L133.9 122.65C134.15 122.34 134.57 122.33 134.84 122.61 135.11 122.89 135.13 123.37 134.87 123.68L133.14 125.79C133 125.95 132.82 126.03 132.65 126.03Z" fill="#3C3C70"/></g></g></g><g><g><g><path d="M138.25 126.03C138.07 126.03 137.89 125.95 137.76 125.79L136.03 123.68C135.78 123.37 135.8 122.9 136.06 122.61 136.33 122.33 136.75 122.34 137 122.65L138.73 124.76C138.98 125.07 138.96 125.54 138.7 125.83 138.57 125.96 138.41 126.03 138.25 126.03Z" fill="#3C3C70"/></g></g></g></g><g><g><g><g><path d="M132.65 129.8C132.49 129.8 132.32 129.73 132.2 129.6 131.93 129.32 131.91 128.84 132.17 128.53L133.9 126.42C134.15 126.12 134.57 126.1 134.84 126.38 135.11 126.66 135.13 127.14 134.87 127.45L133.14 129.56C133 129.72 132.82 129.8 132.65 129.8Z" fill="#3C3C70"/></g></g></g><g><g><g><path d="M138.25 129.8C138.07 129.8 137.89 129.72 137.76 129.56L136.03 127.45C135.78 127.14 135.8 126.67 136.06 126.38 136.33 126.1 136.75 126.11 137 126.42L138.73 128.53C138.98 128.83 138.96 129.31 138.7 129.6 138.57 129.73 138.41 129.8 138.25 129.8Z" fill="#3C3C70"/></g></g></g></g><g><g><g><g><path d="M132.65 133.57C132.49 133.57 132.32 133.5 132.2 133.37 131.93 133.09 131.91 132.61 132.17 132.3L133.9 130.19C134.15 129.89 134.57 129.87 134.84 130.15 135.11 130.43 135.13 130.91 134.87 131.22L133.14 133.33C133 133.48 132.82 133.57 132.65 133.57Z" fill="#3C3C70"/></g></g></g><g><g><g><path d="M138.25 133.57C138.07 133.57 137.89 133.49 137.76 133.33L136.03 131.22C135.78 130.91 135.8 130.44 136.06 130.15 136.33 129.87 136.75 129.88 137 130.19L138.73 132.3C138.98 132.61 138.96 133.08 138.7 133.37 138.57 133.5 138.41 133.57 138.25 133.57Z" fill="#3C3C70"/></g></g></g></g><g><g><g><g><path d="M132.65 137.33C132.49 137.33 132.32 137.26 132.2 137.13 131.93 136.85 131.91 136.37 132.17 136.06L133.9 133.95C134.15 133.65 134.57 133.63 134.84 133.91 135.11 134.19 135.13 134.67 134.87 134.98L133.14 137.09C133 137.25 132.82 137.33 132.65 137.33Z" fill="#3C3C70"/></g></g></g><g><g><g><path d="M138.25 137.33C138.07 137.33 137.89 137.25 137.76 137.09L136.03 134.98C135.78 134.67 135.8 134.2 136.06 133.91 136.33 133.63 136.75 133.64 137 133.95L138.73 136.06C138.98 136.37 138.96 136.84 138.7 137.13 138.57 137.27 138.41 137.33 138.25 137.33Z" fill="#3C3C70"/></g></g></g></g><g><g><g><g><path d="M134.87 138.75 133.68 140.2 131.99 140.2C132.01 140.07 132.07 139.94 132.15 139.84L133.88 137.73C134.13 137.43 134.55 137.41 134.82 137.69 135.1 137.97 135.12 138.45 134.87 138.75Z" fill="#3C3C70"/></g></g></g><g><g><g><path d="M138.9 140.2 137.21 140.2 136.02 138.75C135.77 138.45 135.78 137.97 136.05 137.69 136.32 137.41 136.74 137.42 136.99 137.73L138.72 139.84C138.82 139.94 138.88 140.07 138.9 140.2Z" fill="#3C3C70"/></g></g></g></g></g><g><g><g><g><g><path d="M142.83 108.39C142.8 108.47 142.76 108.54 142.71 108.6L140.98 110.71C140.85 110.87 140.67 110.95 140.49 110.95 140.33 110.95 140.17 110.88 140.04 110.75 139.77 110.47 139.76 109.99 140.01 109.69L141.07 108.39 142.83 108.39Z" fill="#3C3C70"/></g></g></g><g><g><g><path d="M146.54 110.75C146.41 110.89 146.25 110.95 146.09 110.95 145.91 110.95 145.73 110.87 145.6 110.71L143.87 108.6C143.82 108.54 143.78 108.46 143.75 108.39L145.52 108.39 146.58 109.69C146.82 109.99 146.81 110.47 146.54 110.75Z" fill="#3C3C70"/></g></g></g></g><g><g><g><g><path d="M140.48 114.72C140.32 114.72 140.15 114.65 140.03 114.52 139.76 114.24 139.74 113.76 139.99 113.45L141.72 111.34C141.97 111.04 142.39 111.02 142.66 111.3 142.93 111.58 142.95 112.06 142.69 112.37L140.96 114.48C140.84 114.64 140.66 114.72 140.48 114.72Z" fill="#3C3C70"/></g></g></g><g><g><g><path d="M146.09 114.72C145.91 114.72 145.73 114.64 145.6 114.48L143.87 112.37C143.62 112.06 143.64 111.59 143.91 111.3 144.18 111.02 144.6 111.03 144.85 111.34L146.58 113.45C146.83 113.75 146.82 114.23 146.55 114.52 146.41 114.65 146.25 114.72 146.09 114.72Z" fill="#3C3C70"/></g></g></g></g><g><g><g><g><path d="M140.48 118.49C140.32 118.49 140.15 118.42 140.03 118.29 139.76 118.01 139.74 117.53 139.99 117.22L141.72 115.11C141.97 114.8 142.39 114.79 142.66 115.07 142.93 115.35 142.95 115.83 142.69 116.14L140.96 118.25C140.84 118.41 140.66 118.49 140.48 118.49Z" fill="#3C3C70"/></g></g></g><g><g><g><path d="M146.09 118.49C145.91 118.49 145.73 118.41 145.6 118.25L143.87 116.14C143.62 115.83 143.64 115.36 143.91 115.07 144.18 114.79 144.6 114.8 144.85 115.11L146.58 117.22C146.83 117.53 146.82 118 146.55 118.29 146.41 118.42 146.25 118.49 146.09 118.49Z" fill="#3C3C70"/></g></g></g></g><g><g><g><g><path d="M140.48 122.26C140.32 122.26 140.15 122.19 140.03 122.06 139.76 121.78 139.74 121.3 139.99 120.99L141.72 118.88C141.97 118.58 142.39 118.56 142.66 118.84 142.93 119.12 142.95 119.6 142.69 119.91L140.96 122.02C140.84 122.18 140.66 122.26 140.48 122.26Z" fill="#3C3C70"/></g></g></g><g><g><g><path d="M146.09 122.26C145.91 122.26 145.73 122.18 145.6 122.02L143.87 119.91C143.62 119.6 143.64 119.13 143.91 118.84 144.18 118.56 144.6 118.57 144.85 118.88L146.58 120.99C146.83 121.29 146.82 121.77 146.55 122.06 146.41 122.19 146.25 122.26 146.09 122.26Z" fill="#3C3C70"/></g></g></g></g><g><g><g><g><path d="M140.48 126.03C140.32 126.03 140.15 125.96 140.03 125.83 139.76 125.55 139.74 125.07 139.99 124.76L141.72 122.65C141.97 122.34 142.39 122.33 142.66 122.61 142.93 122.89 142.95 123.37 142.69 123.68L140.96 125.79C140.84 125.95 140.66 126.03 140.48 126.03Z" fill="#3C3C70"/></g></g></g><g><g><g><path d="M146.09 126.03C145.91 126.03 145.73 125.95 145.6 125.79L143.87 123.68C143.62 123.37 143.64 122.9 143.91 122.61 144.18 122.33 144.6 122.34 144.85 122.65L146.58 124.76C146.83 125.07 146.82 125.54 146.55 125.83 146.41 125.96 146.25 126.03 146.09 126.03Z" fill="#3C3C70"/></g></g></g></g><g><g><g><g><path d="M140.48 129.8C140.32 129.8 140.15 129.73 140.03 129.6 139.76 129.32 139.74 128.84 139.99 128.53L141.72 126.42C141.97 126.12 142.39 126.1 142.66 126.38 142.93 126.66 142.95 127.14 142.69 127.45L140.96 129.56C140.84 129.72 140.66 129.8 140.48 129.8Z" fill="#3C3C70"/></g></g></g><g><g><g><path d="M146.09 129.8C145.91 129.8 145.73 129.72 145.6 129.56L143.87 127.45C143.62 127.14 143.64 126.67 143.91 126.38 144.18 126.1 144.6 126.11 144.85 126.42L146.58 128.53C146.83 128.83 146.82 129.31 146.55 129.6 146.41 129.73 146.25 129.8 146.09 129.8Z" fill="#3C3C70"/></g></g></g></g><g><g><g><g><path d="M140.48 133.57C140.32 133.57 140.15 133.5 140.03 133.37 139.76 133.09 139.74 132.61 139.99 132.3L141.72 130.19C141.97 129.89 142.39 129.87 142.66 130.15 142.93 130.43 142.95 130.91 142.69 131.22L140.96 133.33C140.84 133.48 140.66 133.57 140.48 133.57Z" fill="#3C3C70"/></g></g></g><g><g><g><path d="M146.09 133.57C145.91 133.57 145.73 133.49 145.6 133.33L143.87 131.22C143.62 130.91 143.64 130.44 143.91 130.15 144.18 129.87 144.6 129.88 144.85 130.19L146.58 132.3C146.83 132.61 146.82 133.08 146.55 133.37 146.41 133.5 146.25 133.57 146.09 133.57Z" fill="#3C3C70"/></g></g></g></g><g><g><g><g><path d="M140.48 137.33C140.32 137.33 140.15 137.26 140.03 137.13 139.76 136.85 139.74 136.37 139.99 136.06L141.72 133.95C141.97 133.65 142.39 133.63 142.66 133.91 142.93 134.19 142.95 134.67 142.69 134.98L140.96 137.09C140.84 137.25 140.66 137.33 140.48 137.33Z" fill="#3C3C70"/></g></g></g><g><g><g><path d="M146.09 137.33C145.91 137.33 145.73 137.25 145.6 137.09L143.87 134.98C143.62 134.67 143.64 134.2 143.91 133.91 144.18 133.63 144.6 133.64 144.85 133.95L146.58 136.06C146.83 136.37 146.82 136.84 146.55 137.13 146.41 137.27 146.25 137.33 146.09 137.33Z" fill="#3C3C70"/></g></g></g></g><g><g><g><g><path d="M142.71 138.75 141.52 140.2 139.83 140.2C139.85 140.07 139.91 139.94 139.99 139.84L141.72 137.73C141.97 137.43 142.39 137.41 142.66 137.69 142.94 137.97 142.96 138.45 142.71 138.75Z" fill="#3C3C70"/></g></g></g><g><g><g><path d="M146.41 139.63C146 139.9 145.53 140.08 145.02 140.16L143.86 138.75C143.61 138.45 143.62 137.97 143.89 137.69 144.16 137.41 144.58 137.42 144.83 137.73L146.41 139.63Z" fill="#3C3C70"/></g></g></g></g></g></g></g><g><g><g><path d="M39.64 108.39 39.64 136.65C39.64 137.9 38.99 139 38.01 139.63 37.6 139.9 37.13 140.08 36.62 140.16 36.45 140.19 36.27 140.2 36.09 140.2L18.01 140.2C17.83 140.2 17.65 140.19 17.48 140.16 16.97 140.08 16.5 139.9 16.09 139.63 15.11 139 14.46 137.9 14.46 136.65L14.46 108.39 39.64 108.39Z" fill="#272443"/></g></g><g><g><g><g><g><g><path d="M18.76 108.39C18.73 108.47 18.69 108.54 18.64 108.6L16.91 110.71C16.78 110.87 16.6 110.95 16.42 110.95 16.26 110.95 16.1 110.88 15.97 110.75 15.7 110.47 15.69 109.99 15.94 109.69L17 108.39 18.76 108.39Z" fill="#3C3C70"/></g></g></g><g><g><g><path d="M22.47 110.75C22.34 110.89 22.18 110.95 22.02 110.95 21.84 110.95 21.66 110.87 21.53 110.71L19.8 108.6C19.75 108.54 19.71 108.46 19.68 108.39L21.45 108.39 22.51 109.69C22.76 109.99 22.74 110.47 22.47 110.75Z" fill="#3C3C70"/></g></g></g></g><g><g><g><g><path d="M16.42 114.72C16.26 114.72 16.09 114.65 15.97 114.52 15.7 114.24 15.68 113.76 15.94 113.45L17.67 111.34C17.92 111.04 18.34 111.02 18.61 111.3 18.88 111.58 18.9 112.06 18.65 112.37L16.92 114.48C16.77 114.64 16.6 114.72 16.42 114.72Z" fill="#3C3C70"/></g></g></g><g><g><g><path d="M22.02 114.72C21.84 114.72 21.66 114.64 21.53 114.48L19.8 112.37C19.55 112.06 19.57 111.59 19.84 111.3 20.11 111.02 20.53 111.03 20.78 111.34L22.51 113.45C22.76 113.75 22.74 114.23 22.48 114.52 22.34 114.65 22.18 114.72 22.02 114.72Z" fill="#3C3C70"/></g></g></g></g><g><g><g><g><path d="M16.42 118.49C16.26 118.49 16.09 118.42 15.97 118.29 15.7 118.01 15.68 117.53 15.94 117.22L17.67 115.11C17.92 114.8 18.34 114.79 18.61 115.07 18.88 115.35 18.9 115.83 18.65 116.14L16.92 118.25C16.77 118.41 16.6 118.49 16.42 118.49Z" fill="#3C3C70"/></g></g></g><g><g><g><path d="M22.02 118.49C21.84 118.49 21.66 118.41 21.53 118.25L19.8 116.14C19.55 115.83 19.57 115.36 19.84 115.07 20.11 114.79 20.53 114.8 20.78 115.11L22.51 117.22C22.76 117.53 22.74 118 22.48 118.29 22.34 118.42 22.18 118.49 22.02 118.49Z" fill="#3C3C70"/></g></g></g></g><g><g><g><g><path d="M16.42 122.26C16.26 122.26 16.09 122.19 15.97 122.06 15.7 121.78 15.68 121.3 15.94 120.99L17.67 118.88C17.92 118.58 18.34 118.56 18.61 118.84 18.88 119.12 18.9 119.6 18.65 119.91L16.92 122.02C16.77 122.18 16.6 122.26 16.42 122.26Z" fill="#3C3C70"/></g></g></g><g><g><g><path d="M22.02 122.26C21.84 122.26 21.66 122.18 21.53 122.02L19.8 119.91C19.55 119.6 19.57 119.13 19.84 118.84 20.11 118.56 20.53 118.57 20.78 118.88L22.51 120.99C22.76 121.29 22.74 121.77 22.48 122.06 22.34 122.19 22.18 122.26 22.02 122.26Z" fill="#3C3C70"/></g></g></g></g><g><g><g><g><path d="M16.42 126.03C16.26 126.03 16.09 125.96 15.97 125.83 15.7 125.55 15.68 125.07 15.94 124.76L17.67 122.65C17.92 122.34 18.34 122.33 18.61 122.61 18.88 122.89 18.9 123.37 18.65 123.68L16.92 125.79C16.77 125.95 16.6 126.03 16.42 126.03Z" fill="#3C3C70"/></g></g></g><g><g><g><path d="M22.02 126.03C21.84 126.03 21.66 125.95 21.53 125.79L19.8 123.68C19.55 123.37 19.57 122.9 19.84 122.61 20.11 122.33 20.53 122.34 20.78 122.65L22.51 124.76C22.76 125.07 22.74 125.54 22.48 125.83 22.34 125.96 22.18 126.03 22.02 126.03Z" fill="#3C3C70"/></g></g></g></g><g><g><g><g><path d="M16.42 129.8C16.26 129.8 16.09 129.73 15.97 129.6 15.7 129.32 15.68 128.84 15.94 128.53L17.67 126.42C17.92 126.12 18.34 126.1 18.61 126.38 18.88 126.66 18.9 127.14 18.65 127.45L16.92 129.56C16.77 129.72 16.6 129.8 16.42 129.8Z" fill="#3C3C70"/></g></g></g><g><g><g><path d="M22.02 129.8C21.84 129.8 21.66 129.72 21.53 129.56L19.8 127.45C19.55 127.14 19.57 126.67 19.84 126.38 20.11 126.1 20.53 126.11 20.78 126.42L22.51 128.53C22.76 128.83 22.74 129.31 22.48 129.6 22.34 129.73 22.18 129.8 22.02 129.8Z" fill="#3C3C70"/></g></g></g></g><g><g><g><g><path d="M16.42 133.57C16.26 133.57 16.09 133.5 15.97 133.37 15.7 133.09 15.68 132.61 15.94 132.3L17.67 130.19C17.92 129.89 18.34 129.87 18.61 130.15 18.88 130.43 18.9 130.91 18.65 131.22L16.92 133.33C16.77 133.48 16.6 133.57 16.42 133.57Z" fill="#3C3C70"/></g></g></g><g><g><g><path d="M22.02 133.57C21.84 133.57 21.66 133.49 21.53 133.33L19.8 131.22C19.55 130.91 19.57 130.44 19.84 130.15 20.11 129.87 20.53 129.88 20.78 130.19L22.51 132.3C22.76 132.61 22.74 133.08 22.48 133.37 22.34 133.5 22.18 133.57 22.02 133.57Z" fill="#3C3C70"/></g></g></g></g><g><g><g><g><path d="M16.42 137.33C16.26 137.33 16.09 137.26 15.97 137.13 15.7 136.85 15.68 136.37 15.94 136.06L17.67 133.95C17.92 133.65 18.34 133.63 18.61 133.91 18.88 134.19 18.9 134.67 18.65 134.98L16.92 137.09C16.77 137.25 16.6 137.33 16.42 137.33Z" fill="#3C3C70"/></g></g></g><g><g><g><path d="M22.02 137.33C21.84 137.33 21.66 137.25 21.53 137.09L19.8 134.98C19.55 134.67 19.57 134.2 19.84 133.91 20.11 133.63 20.53 133.64 20.78 133.95L22.51 136.06C22.76 136.37 22.74 136.84 22.48 137.13 22.34 137.27 22.18 137.33 22.02 137.33Z" fill="#3C3C70"/></g></g></g></g><g><g><g><g><path d="M18.64 138.75 17.48 140.16C16.97 140.08 16.5 139.9 16.09 139.63L17.66 137.72C17.91 137.42 18.33 137.4 18.6 137.68 18.87 137.97 18.89 138.45 18.64 138.75Z" fill="#3C3C70"/></g></g></g><g><g><g><path d="M22.67 140.2 20.98 140.2 19.79 138.75C19.54 138.45 19.55 137.97 19.82 137.69 20.09 137.41 20.51 137.42 20.76 137.73L22.49 139.84C22.59 139.94 22.65 140.07 22.67 140.2Z" fill="#3C3C70"/></g></g></g></g></g><g><g><g><g><g><path d="M26.6 108.39C26.57 108.47 26.53 108.54 26.48 108.6L24.75 110.71C24.62 110.87 24.44 110.95 24.26 110.95 24.1 110.95 23.94 110.88 23.81 110.75 23.54 110.47 23.53 109.99 23.78 109.69L24.84 108.39 26.6 108.39Z" fill="#3C3C70"/></g></g></g><g><g><g><path d="M30.31 110.75C30.18 110.89 30.02 110.95 29.86 110.95 29.68 110.95 29.5 110.87 29.37 110.71L27.64 108.6C27.59 108.54 27.55 108.46 27.52 108.39L29.29 108.39 30.35 109.69C30.6 109.99 30.58 110.47 30.31 110.75Z" fill="#3C3C70"/></g></g></g></g><g><g><g><g><path d="M24.26 114.72C24.1 114.72 23.93 114.65 23.81 114.52 23.54 114.24 23.52 113.76 23.78 113.45L25.51 111.34C25.76 111.04 26.18 111.02 26.45 111.3 26.72 111.58 26.74 112.06 26.48 112.37L24.75 114.48C24.61 114.64 24.43 114.72 24.26 114.72Z" fill="#3C3C70"/></g></g></g><g><g><g><path d="M29.86 114.72C29.68 114.72 29.5 114.64 29.37 114.48L27.64 112.37C27.39 112.06 27.41 111.59 27.67 111.3 27.94 111.02 28.36 111.03 28.61 111.34L30.34 113.45C30.59 113.75 30.57 114.23 30.3 114.52 30.18 114.65 30.02 114.72 29.86 114.72Z" fill="#3C3C70"/></g></g></g></g><g><g><g><g><path d="M24.26 118.49C24.1 118.49 23.93 118.42 23.81 118.29 23.54 118.01 23.52 117.53 23.78 117.22L25.51 115.11C25.76 114.8 26.18 114.79 26.45 115.07 26.72 115.35 26.74 115.83 26.48 116.14L24.75 118.25C24.61 118.41 24.43 118.49 24.26 118.49Z" fill="#3C3C70"/></g></g></g><g><g><g><path d="M29.86 118.49C29.68 118.49 29.5 118.41 29.37 118.25L27.64 116.14C27.39 115.83 27.41 115.36 27.67 115.07 27.94 114.79 28.36 114.8 28.61 115.11L30.34 117.22C30.59 117.53 30.57 118 30.3 118.29 30.18 118.42 30.02 118.49 29.86 118.49Z" fill="#3C3C70"/></g></g></g></g><g><g><g><g><path d="M24.26 122.26C24.1 122.26 23.93 122.19 23.81 122.06 23.54 121.78 23.52 121.3 23.78 120.99L25.51 118.88C25.76 118.58 26.18 118.56 26.45 118.84 26.72 119.12 26.74 119.6 26.48 119.91L24.75 122.02C24.61 122.18 24.43 122.26 24.26 122.26Z" fill="#3C3C70"/></g></g></g><g><g><g><path d="M29.86 122.26C29.68 122.26 29.5 122.18 29.37 122.02L27.64 119.91C27.39 119.6 27.41 119.13 27.67 118.84 27.94 118.56 28.36 118.57 28.61 118.88L30.34 120.99C30.59 121.29 30.57 121.77 30.3 122.06 30.18 122.19 30.02 122.26 29.86 122.26Z" fill="#3C3C70"/></g></g></g></g><g><g><g><g><path d="M24.26 126.03C24.1 126.03 23.93 125.96 23.81 125.83 23.54 125.55 23.52 125.07 23.78 124.76L25.51 122.65C25.76 122.34 26.18 122.33 26.45 122.61 26.72 122.89 26.74 123.37 26.48 123.68L24.75 125.79C24.61 125.95 24.43 126.03 24.26 126.03Z" fill="#3C3C70"/></g></g></g><g><g><g><path d="M29.86 126.03C29.68 126.03 29.5 125.95 29.37 125.79L27.64 123.68C27.39 123.37 27.41 122.9 27.67 122.61 27.94 122.33 28.36 122.34 28.61 122.65L30.34 124.76C30.59 125.07 30.57 125.54 30.3 125.83 30.18 125.96 30.02 126.03 29.86 126.03Z" fill="#3C3C70"/></g></g></g></g><g><g><g><g><path d="M24.26 129.8C24.1 129.8 23.93 129.73 23.81 129.6 23.54 129.32 23.52 128.84 23.78 128.53L25.51 126.42C25.76 126.12 26.18 126.1 26.45 126.38 26.72 126.66 26.74 127.14 26.48 127.45L24.75 129.56C24.61 129.72 24.43 129.8 24.26 129.8Z" fill="#3C3C70"/></g></g></g><g><g><g><path d="M29.86 129.8C29.68 129.8 29.5 129.72 29.37 129.56L27.64 127.45C27.39 127.14 27.41 126.67 27.67 126.38 27.94 126.1 28.36 126.11 28.61 126.42L30.34 128.53C30.59 128.83 30.57 129.31 30.3 129.6 30.18 129.73 30.02 129.8 29.86 129.8Z" fill="#3C3C70"/></g></g></g></g><g><g><g><g><path d="M24.26 133.57C24.1 133.57 23.93 133.5 23.81 133.37 23.54 133.09 23.52 132.61 23.78 132.3L25.51 130.19C25.76 129.89 26.18 129.87 26.45 130.15 26.72 130.43 26.74 130.91 26.48 131.22L24.75 133.33C24.61 133.48 24.43 133.57 24.26 133.57Z" fill="#3C3C70"/></g></g></g><g><g><g><path d="M29.86 133.57C29.68 133.57 29.5 133.49 29.37 133.33L27.64 131.22C27.39 130.91 27.41 130.44 27.67 130.15 27.94 129.87 28.36 129.88 28.61 130.19L30.34 132.3C30.59 132.61 30.57 133.08 30.3 133.37 30.18 133.5 30.02 133.57 29.86 133.57Z" fill="#3C3C70"/></g></g></g></g><g><g><g><g><path d="M24.26 137.33C24.1 137.33 23.93 137.26 23.81 137.13 23.54 136.85 23.52 136.37 23.78 136.06L25.51 133.95C25.76 133.65 26.18 133.63 26.45 133.91 26.72 134.19 26.74 134.67 26.48 134.98L24.75 137.09C24.61 137.25 24.43 137.33 24.26 137.33Z" fill="#3C3C70"/></g></g></g><g><g><g><path d="M29.86 137.33C29.68 137.33 29.5 137.25 29.37 137.09L27.64 134.98C27.39 134.67 27.41 134.2 27.67 133.91 27.94 133.63 28.36 133.64 28.61 133.95L30.34 136.06C30.59 136.37 30.57 136.84 30.3 137.13 30.18 137.27 30.02 137.33 29.86 137.33Z" fill="#3C3C70"/></g></g></g></g><g><g><g><g><path d="M26.48 138.75 25.29 140.2 23.6 140.2C23.62 140.07 23.68 139.94 23.76 139.84L25.49 137.73C25.74 137.43 26.16 137.41 26.43 137.69 26.71 137.97 26.73 138.45 26.48 138.75Z" fill="#3C3C70"/></g></g></g><g><g><g><path d="M30.51 140.2 28.82 140.2 27.63 138.75C27.38 138.45 27.39 137.97 27.66 137.69 27.93 137.41 28.35 137.42 28.6 137.73L30.33 139.84C30.43 139.94 30.49 140.07 30.51 140.2Z" fill="#3C3C70"/></g></g></g></g></g><g><g><g><g><g><path d="M34.44 108.39C34.41 108.47 34.37 108.54 34.32 108.6L32.59 110.71C32.46 110.87 32.28 110.95 32.1 110.95 31.94 110.95 31.78 110.88 31.65 110.75 31.38 110.47 31.36 109.99 31.62 109.69L32.68 108.39 34.44 108.39Z" fill="#3C3C70"/></g></g></g><g><g><g><path d="M38.15 110.75C38.02 110.89 37.86 110.95 37.7 110.95 37.52 110.95 37.34 110.87 37.21 110.71L35.48 108.6C35.43 108.54 35.39 108.46 35.36 108.39L37.13 108.39 38.19 109.69C38.43 109.99 38.42 110.47 38.15 110.75Z" fill="#3C3C70"/></g></g></g></g><g><g><g><g><path d="M32.09 114.72C31.93 114.72 31.76 114.65 31.64 114.52 31.37 114.24 31.35 113.76 31.6 113.45L33.33 111.34C33.58 111.04 34 111.02 34.27 111.3 34.54 111.58 34.56 112.06 34.3 112.37L32.57 114.48C32.45 114.64 32.27 114.72 32.09 114.72Z" fill="#3C3C70"/></g></g></g><g><g><g><path d="M37.7 114.72C37.52 114.72 37.34 114.64 37.21 114.48L35.48 112.37C35.23 112.06 35.25 111.59 35.51 111.3 35.78 111.02 36.2 111.03 36.45 111.34L38.18 113.45C38.43 113.75 38.41 114.23 38.15 114.52 38.02 114.65 37.86 114.72 37.7 114.72Z" fill="#3C3C70"/></g></g></g></g><g><g><g><g><path d="M32.09 118.49C31.93 118.49 31.76 118.42 31.64 118.29 31.37 118.01 31.35 117.53 31.6 117.22L33.33 115.11C33.58 114.8 34 114.79 34.27 115.07 34.54 115.35 34.56 115.83 34.3 116.14L32.57 118.25C32.45 118.41 32.27 118.49 32.09 118.49Z" fill="#3C3C70"/></g></g></g><g><g><g><path d="M37.7 118.49C37.52 118.49 37.34 118.41 37.21 118.25L35.48 116.14C35.23 115.83 35.25 115.36 35.51 115.07 35.78 114.79 36.2 114.8 36.45 115.11L38.18 117.22C38.43 117.53 38.41 118 38.15 118.29 38.02 118.42 37.86 118.49 37.7 118.49Z" fill="#3C3C70"/></g></g></g></g><g><g><g><g><path d="M32.09 122.26C31.93 122.26 31.76 122.19 31.64 122.06 31.37 121.78 31.35 121.3 31.6 120.99L33.33 118.88C33.58 118.58 34 118.56 34.27 118.84 34.54 119.12 34.56 119.6 34.3 119.91L32.57 122.02C32.45 122.18 32.27 122.26 32.09 122.26Z" fill="#3C3C70"/></g></g></g><g><g><g><path d="M37.7 122.26C37.52 122.26 37.34 122.18 37.21 122.02L35.48 119.91C35.23 119.6 35.25 119.13 35.51 118.84 35.78 118.56 36.2 118.57 36.45 118.88L38.18 120.99C38.43 121.29 38.41 121.77 38.15 122.06 38.02 122.19 37.86 122.26 37.7 122.26Z" fill="#3C3C70"/></g></g></g></g><g><g><g><g><path d="M32.09 126.03C31.93 126.03 31.76 125.96 31.64 125.83 31.37 125.55 31.35 125.07 31.6 124.76L33.33 122.65C33.58 122.34 34 122.33 34.27 122.61 34.54 122.89 34.56 123.37 34.3 123.68L32.57 125.79C32.45 125.95 32.27 126.03 32.09 126.03Z" fill="#3C3C70"/></g></g></g><g><g><g><path d="M37.7 126.03C37.52 126.03 37.34 125.95 37.21 125.79L35.48 123.68C35.23 123.37 35.25 122.9 35.51 122.61 35.78 122.33 36.2 122.34 36.45 122.65L38.18 124.76C38.43 125.07 38.41 125.54 38.15 125.83 38.02 125.96 37.86 126.03 37.7 126.03Z" fill="#3C3C70"/></g></g></g></g><g><g><g><g><path d="M32.09 129.8C31.93 129.8 31.76 129.73 31.64 129.6 31.37 129.32 31.35 128.84 31.6 128.53L33.33 126.42C33.58 126.12 34 126.1 34.27 126.38 34.54 126.66 34.56 127.14 34.3 127.45L32.57 129.56C32.45 129.72 32.27 129.8 32.09 129.8Z" fill="#3C3C70"/></g></g></g><g><g><g><path d="M37.7 129.8C37.52 129.8 37.34 129.72 37.21 129.56L35.48 127.45C35.23 127.14 35.25 126.67 35.51 126.38 35.78 126.1 36.2 126.11 36.45 126.42L38.18 128.53C38.43 128.83 38.41 129.31 38.15 129.6 38.02 129.73 37.86 129.8 37.7 129.8Z" fill="#3C3C70"/></g></g></g></g><g><g><g><g><path d="M32.09 133.57C31.93 133.57 31.76 133.5 31.64 133.37 31.37 133.09 31.35 132.61 31.6 132.3L33.33 130.19C33.58 129.89 34 129.87 34.27 130.15 34.54 130.43 34.56 130.91 34.3 131.22L32.57 133.33C32.45 133.48 32.27 133.57 32.09 133.57Z" fill="#3C3C70"/></g></g></g><g><g><g><path d="M37.7 133.57C37.52 133.57 37.34 133.49 37.21 133.33L35.48 131.22C35.23 130.91 35.25 130.44 35.51 130.15 35.78 129.87 36.2 129.88 36.45 130.19L38.18 132.3C38.43 132.61 38.41 133.08 38.15 133.37 38.02 133.5 37.86 133.57 37.7 133.57Z" fill="#3C3C70"/></g></g></g></g><g><g><g><g><path d="M32.09 137.33C31.93 137.33 31.76 137.26 31.64 137.13 31.37 136.85 31.35 136.37 31.6 136.06L33.33 133.95C33.58 133.65 34 133.63 34.27 133.91 34.54 134.19 34.56 134.67 34.3 134.98L32.57 137.09C32.45 137.25 32.27 137.33 32.09 137.33Z" fill="#3C3C70"/></g></g></g><g><g><g><path d="M37.7 137.33C37.52 137.33 37.34 137.25 37.21 137.09L35.48 134.98C35.23 134.67 35.25 134.2 35.51 133.91 35.78 133.63 36.2 133.64 36.45 133.95L38.18 136.06C38.43 136.37 38.41 136.84 38.15 137.13 38.02 137.27 37.86 137.33 37.7 137.33Z" fill="#3C3C70"/></g></g></g></g><g><g><g><g><path d="M34.32 138.75 33.13 140.2 31.44 140.2C31.46 140.07 31.52 139.94 31.6 139.84L33.33 137.73C33.58 137.43 34 137.41 34.27 137.69 34.55 137.97 34.57 138.45 34.32 138.75Z" fill="#3C3C70"/></g></g></g><g><g><g><path d="M38.02 139.63C37.61 139.9 37.14 140.08 36.63 140.16L35.47 138.75C35.22 138.45 35.23 137.97 35.5 137.69 35.77 137.41 36.19 137.42 36.44 137.73L38.02 139.63Z" fill="#3C3C70"/></g></g></g></g></g></g></g></g><g><g><g><g><path d="M147.97 50.35 160.77 50.35C161.73 50.35 162.5 49.57 162.5 48.62L162.5 41.73C162.5 41.08 161.97 40.55 161.32 40.55L149.05 40.55C148.45 40.55 147.97 41.03 147.97 41.63L147.97 50.35Z" fill="#F28C08"/></g></g><g><g><rect x="141.1" y="46.75" width="11.71" height="3.6" fill="#F28C08" transform="matrix(-1 -1.22465e-16 1.22465e-16 -1 293.919 97.0973)"/></g></g></g><g><g><g><path d="M14.53 50.35 1.73 50.35C0.78 50.35 0 49.58 0 48.62L0 41.73C0 41.08 0.53 40.55 1.18 40.55L13.45 40.55C14.05 40.55 14.53 41.03 14.53 41.63L14.53 50.35Z" fill="#F28C08"/></g></g><g><g><rect x="9.69" y="46.75" width="11.71" height="3.6" fill="#F28C08"/></g></g></g></g><g><g><path d="M156.78 79.26 156.78 105.55C156.78 108.17 156.09 110.63 154.88 112.76 152.37 117.17 147.63 120.15 142.19 120.15L20.32 120.15C14.88 120.15 10.14 117.18 7.63 112.76 6.42 110.63 5.73 108.17 5.73 105.55L5.73 79.26C5.73 73.47 7.35 67.79 10.4 62.87L17.27 51.79C18.42 49.93 19.44 47.99 20.31 45.98L30.3 22.96C32.5 17.9 37.49 14.62 43.01 14.62L119.49 14.62C125.01 14.62 130.01 17.9 132.2 22.96L142.19 45.98C143.06 47.99 144.08 49.93 145.23 51.79L152.1 62.87C155.16 67.79 156.78 73.47 156.78 79.26Z" fill="#FBC10D"/></g></g><g><g><path d="M107.7 93.16 50.43 93.16C48.55 93.16 47.03 94.68 47.03 96.56L47.03 104.54C47.03 106.42 48.55 107.94 50.43 107.94L107.7 107.94C109.58 107.94 111.1 106.42 111.1 104.54L111.1 96.56C111.1 94.69 109.58 93.16 107.7 93.16Z" fill="#FFFFFF"/></g></g><g><g><path d="M154.87 112.76C152.36 117.17 147.62 120.15 142.18 120.15L20.32 120.15C14.88 120.15 10.14 117.18 7.63 112.76L12.17 112.76C12.44 110.55 14.33 108.84 16.61 108.84L39.77 108.84C42.05 108.84 43.94 110.55 44.21 112.76L118.3 112.76C118.57 110.55 120.46 108.84 122.74 108.84L145.9 108.84C148.18 108.84 150.07 110.55 150.34 112.76L154.87 112.76Z" fill="#F28C08"/></g></g><g><g><g><path d="M50.5 76.57C50.4 76.57 50.29 76.55 50.19 76.51 49.91 76.41 49.71 76.17 49.66 75.87 41.66 73.23 33.44 70.95 25.24 69.1L25.07 69.06C23.3 68.66 21.47 68.25 19.8 67.37 17.04 65.92 14.38 62.95 17.4 57.05 20.93 50.17 24.76 43.34 28.81 36.77L30.09 37.56C26.06 44.1 22.24 50.89 18.74 57.74 16.71 61.71 17.27 64.35 20.5 66.04 22 66.83 23.73 67.21 25.4 67.59L25.57 67.63C33.97 69.52 42.37 71.86 50.55 74.58 51.06 74.75 51.35 75.04 51.43 75.46 51.49 75.79 51.37 76.11 51.11 76.33 50.94 76.49 50.72 76.57 50.5 76.57ZM50.5 75.06C50.37 75.06 50.24 75.1 50.15 75.18 49.99 75.31 49.92 75.53 49.96 75.74 49.96 75.76 49.97 75.77 49.97 75.79L51.15 75.61C51.12 75.38 50.95 75.18 50.73 75.09 50.65 75.07 50.58 75.06 50.5 75.06Z" fill="#F28C08"/></g></g><g><g><path d="M112 76.57C111.78 76.57 111.56 76.49 111.38 76.34 111.12 76.12 111 75.79 111.06 75.47 111.14 75.05 111.44 74.76 111.94 74.59 120.12 71.87 128.53 69.53 136.92 67.64L137.09 67.6C138.76 67.22 140.49 66.84 141.99 66.05 145.22 64.36 145.78 61.72 143.75 57.75 140.24 50.9 136.42 44.11 132.4 37.57L133.68 36.78C137.73 43.35 141.57 50.18 145.09 57.06 148.11 62.97 145.46 65.93 142.69 67.38 141.02 68.26 139.19 68.67 137.42 69.07L137.25 69.11C129.04 70.96 120.83 73.23 112.83 75.88 112.77 76.18 112.58 76.41 112.3 76.52 112.21 76.55 112.1 76.57 112 76.57ZM112 75.06C111.93 75.06 111.85 75.07 111.78 75.1 111.56 75.18 111.39 75.39 111.36 75.62L112.54 75.8C112.54 75.78 112.55 75.77 112.55 75.75 112.59 75.54 112.52 75.32 112.36 75.19 112.25 75.1 112.13 75.06 112 75.06Z" fill="#F28C08"/></g></g></g><g><g><g><path d="M135.98 48.24 26.52 48.24C24.88 48.24 23.8 46.53 24.5 45.05L25.17 43.65 32.38 28.5 36.24 20.39C36.82 19.17 38.05 18.39 39.4 18.39L123.1 18.39C124.45 18.39 125.68 19.17 126.26 20.39L128.13 24.32 133.17 34.9 138 45.05C138.7 46.53 137.62 48.24 135.98 48.24Z" fill="#272443"/></g></g><g><g><g><path d="M105.67 18.39C104.04 18.98 102.4 19.52 100.9 20.37 97.8 22.14 95.51 25.26 94.74 28.74 94.42 30.16 94.35 31.66 93.74 32.99 92.75 35.15 90.56 36.45 88.49 37.63 86.08 39 83.61 40.39 80.89 40.94 78.87 41.34 76.73 41.28 74.86 42.15 72.4 43.29 70.92 45.79 69.72 48.25L59.45 48.25C62.57 43.04 64.27 36.59 69.47 33.57 72.95 31.55 77.28 31.58 80.96 29.95 84.93 28.2 87.83 24.67 90.26 21.07 90.86 20.19 91.44 19.29 92.03 18.39L105.67 18.39Z" fill="#3C3C70"/></g></g><g><g><path d="M56.4 18.39C55.83 19.02 55.3 19.69 54.79 20.41 52.98 22.97 51.43 25.78 49.1 27.88 49.08 27.9 49.05 27.92 49.03 27.94 46.07 30.57 42.36 30.77 39.03 32.57 35.62 34.42 32.35 36.99 29.84 39.95 28.78 41.2 27.77 42.59 26.29 43.31 25.94 43.48 25.56 43.59 25.17 43.64L32.38 28.49C35.61 27.18 38.99 25.84 41.63 23.23 43.08 21.8 44.14 20.04 45.31 18.38L56.4 18.38Z" fill="#3C3C70"/></g></g><g><g><path d="M133.17 34.9C132.35 35.97 131.71 37.18 131.29 38.46 130.92 39.59 130.71 40.78 130.15 41.83 129.41 43.22 128.04 44.27 126.51 44.64 125.52 44.87 124.48 44.83 123.48 45.03 121.55 45.41 119.88 46.67 118.68 48.25L104.68 48.25C104.94 47.76 105.23 47.27 105.58 46.81 107.53 44.24 110.06 42.11 112.94 40.64 116.13 39.02 119.82 38.13 122.33 35.57 124.3 33.56 125.26 30.8 126.29 28.17 126.51 27.61 126.74 27.04 127 26.48 127.34 25.74 127.71 25 128.13 24.32L133.17 34.9Z" fill="#3C3C70"/></g></g></g><g><g><path d="M135.98 48.99 26.52 48.99C25.49 48.99 24.54 48.47 23.99 47.6 23.44 46.73 23.38 45.65 23.82 44.72L35.55 20.06C36.25 18.58 37.76 17.63 39.4 17.63L123.1 17.63C124.73 17.63 126.24 18.58 126.95 20.06L138.68 44.72C139.12 45.65 139.06 46.73 138.51 47.6 137.96 48.47 137.01 48.99 135.98 48.99ZM39.4 19.15C38.34 19.15 37.37 19.77 36.92 20.72L25.19 45.37C24.97 45.84 25 46.36 25.28 46.8 25.56 47.24 26.01 47.49 26.53 47.49L135.99 47.49C136.51 47.49 136.96 47.24 137.24 46.8 137.52 46.36 137.55 45.84 137.33 45.37L125.6 20.71C125.15 19.76 124.17 19.14 123.12 19.14L39.4 19.14Z" fill="#181838"/></g></g></g><g><g><path d="M44.27 78.89C44.42 79.04 44.59 79.2 44.8 79.2 44.97 79.2 45.12 79.08 45.25 78.96 45.78 78.49 46.23 77.94 46.6 77.34 47.04 76.61 47.36 75.68 46.94 74.93 46.77 74.62 46.49 74.39 46.21 74.17 45.18 73.38 44 72.77 42.76 72.38 42.18 72.2 39.32 71.32 39.06 72.2 38.86 72.87 40.9 74.96 41.31 75.48 42.25 76.68 43.23 77.81 44.27 78.89Z" fill="#F28C08"/></g></g><g><g><path d="M87.73 66.41C87.73 68.03 84.83 69.35 81.25 69.35 77.67 69.35 74.77 68.03 74.77 66.41 74.77 64.79 77.67 63.47 81.25 63.47 84.83 63.47 87.73 64.78 87.73 66.41Z" fill="#F28C08"/></g></g><g><g><path d="M118.53 73.22C117.7 73.61 116.9 74.13 116.32 74.85 115.74 75.57 115.4 76.52 115.56 77.43 115.66 78.05 116.05 78.67 116.66 78.82 117.02 78.91 117.41 78.81 117.74 78.64 118.45 78.27 118.92 77.57 119.46 76.99 120.17 76.23 121.02 75.62 121.8 74.93 122.58 74.24 123.31 73.43 123.63 72.44 123.7 72.23 121.68 72.3 121.44 72.33 120.43 72.45 119.43 72.79 118.53 73.22Z" fill="#F28C08"/></g></g><g><g><g><g><g><path d="M41.4 84.44C40.59 84.53 39.77 84.57 39 84.57 37 84.57 35 84.57 33 84.57 29.83 84.57 26.66 84.57 23.48 84.57 21.02 84.57 18.71 84.28 16.7 82.67 15.61 81.8 14.75 80.68 14.03 79.49 12.32 76.69 13.44 73.07 16.3 71.49 17.77 70.67 19.48 70.38 21.16 70.22 24.03 69.94 26.93 69.98 29.79 70.34 32.01 70.62 34.6 70.65 36.62 71.63 38.63 72.6 40.42 73.99 41.87 75.68 43.17 77.19 45.02 79.63 45.26 81.65 45.35 82.43 45.1 83.3 44.44 83.73 44.18 83.9 43.88 83.99 43.57 84.06 42.87 84.23 42.14 84.35 41.4 84.44Z" fill="#FFFFFF"/></g></g><g><g><path d="M39 85.32 23.48 85.32C21.05 85.32 18.49 85.07 16.23 83.26 15.19 82.43 14.26 81.32 13.38 79.88 12.48 78.41 12.23 76.67 12.68 74.98 13.14 73.23 14.33 71.71 15.93 70.82 17.58 69.9 19.46 69.62 21.08 69.46 24 69.17 26.96 69.22 29.88 69.58 30.36 69.64 30.85 69.69 31.37 69.74 33.28 69.93 35.25 70.12 36.94 70.94 39.01 71.94 40.91 73.4 42.43 75.18 44.6 77.7 45.8 79.85 46 81.56 46.14 82.72 45.68 83.82 44.84 84.36 44.48 84.59 44.1 84.7 43.74 84.79 43.05 84.96 42.29 85.09 41.49 85.18L41.49 85.18C40.66 85.28 39.83 85.32 39 85.32ZM29.82 83.82 39 83.82C39.77 83.82 40.55 83.78 41.32 83.69L41.32 83.69C42.06 83.61 42.75 83.49 43.38 83.34 43.61 83.28 43.85 83.22 44.01 83.11 44.42 82.84 44.55 82.24 44.49 81.75 44.33 80.36 43.22 78.44 41.27 76.18 39.88 74.56 38.15 73.22 36.27 72.32 34.81 71.62 32.98 71.44 31.2 71.26 30.69 71.21 30.17 71.16 29.67 71.1 26.86 70.75 24.01 70.71 21.2 70.98 19.73 71.12 18.04 71.38 16.64 72.16 15.39 72.85 14.47 74.03 14.12 75.39 13.78 76.68 13.97 78 14.65 79.12 15.44 80.41 16.25 81.38 17.15 82.11 19.05 83.63 21.3 83.84 23.46 83.84L29.82 83.84Z" fill="#F28C08"/></g></g></g><g><g><g><path d="M22.84 81.68C20.43 81.68 18.47 79.72 18.47 77.31 18.47 74.9 20.43 72.94 22.84 72.94 25.25 72.94 27.21 74.9 27.21 77.31 27.21 79.71 25.25 81.68 22.84 81.68ZM22.84 73.84C20.93 73.84 19.37 75.4 19.37 77.31 19.37 79.22 20.93 80.78 22.84 80.78 24.75 80.78 26.31 79.22 26.31 77.31 26.3 75.39 24.75 73.84 22.84 73.84Z" fill="#98BAF4"/></g></g><g><g><path d="M35.2 82.31C33.21 82.31 31.58 80.69 31.58 78.69 31.58 76.7 33.2 75.07 35.2 75.07 37.2 75.07 38.82 76.69 38.82 78.69 38.81 80.69 37.19 82.31 35.2 82.31ZM35.2 75.98C33.7 75.98 32.49 77.2 32.49 78.69 32.49 80.19 33.71 81.4 35.2 81.4 36.7 81.4 37.91 80.18 37.91 78.69 37.91 77.2 36.69 75.98 35.2 75.98Z" fill="#98BAF4"/></g></g></g></g><g><g><g><g><path d="M121.1 84.44C121.91 84.53 122.73 84.57 123.5 84.57 125.5 84.57 127.5 84.57 129.5 84.57 132.67 84.57 135.84 84.57 139.02 84.57 141.48 84.57 143.79 84.28 145.8 82.67 146.89 81.8 147.75 80.68 148.47 79.49 150.18 76.69 149.06 73.07 146.2 71.49 144.73 70.67 143.02 70.38 141.34 70.22 138.47 69.94 135.57 69.98 132.71 70.34 130.49 70.62 127.9 70.65 125.88 71.63 123.87 72.6 122.08 73.99 120.63 75.68 119.33 77.19 117.48 79.63 117.24 81.65 117.15 82.43 117.4 83.3 118.06 83.73 118.32 83.9 118.63 83.99 118.93 84.06 119.63 84.23 120.36 84.35 121.1 84.44Z" fill="#FFFFFF"/></g></g><g><g><path d="M139.03 85.32 123.5 85.32C122.67 85.32 121.83 85.27 121.01 85.18L121.01 85.18C120.21 85.09 119.46 84.96 118.76 84.79 118.4 84.7 118.02 84.59 117.66 84.36 116.82 83.82 116.36 82.72 116.5 81.56 116.7 79.85 117.9 77.71 120.07 75.18 121.6 73.4 123.5 71.94 125.56 70.94 127.26 70.12 129.23 69.93 131.13 69.74 131.65 69.69 132.14 69.64 132.62 69.58 135.54 69.21 138.5 69.17 141.42 69.46 143.04 69.62 144.92 69.9 146.57 70.82 148.17 71.71 149.36 73.23 149.82 74.98 150.26 76.67 150.01 78.4 149.12 79.88 148.24 81.32 147.31 82.42 146.27 83.26 144.02 85.08 141.46 85.32 139.03 85.32ZM132.68 83.82 139.03 83.82C141.19 83.82 143.44 83.61 145.34 82.09 146.24 81.37 147.06 80.39 147.84 79.1 148.52 77.98 148.71 76.66 148.37 75.37 148.01 74.01 147.09 72.84 145.85 72.14 144.44 71.36 142.75 71.11 141.29 70.96 138.48 70.69 135.64 70.73 132.82 71.08 132.32 71.14 131.8 71.19 131.29 71.24 129.51 71.41 127.68 71.59 126.22 72.3 124.34 73.21 122.61 74.54 121.22 76.16 119.28 78.42 118.17 80.34 118 81.73 117.94 82.21 118.07 82.82 118.48 83.09 118.65 83.2 118.88 83.26 119.12 83.32 119.75 83.47 120.45 83.59 121.18 83.67L121.18 83.67C121.95 83.76 122.73 83.8 123.5 83.8L132.68 83.8Z" fill="#F28C08"/></g></g></g><g><g><g><path d="M139.67 81.68C137.26 81.68 135.3 79.72 135.3 77.31 135.3 74.9 137.26 72.94 139.67 72.94 142.08 72.94 144.04 74.9 144.04 77.31 144.04 79.71 142.08 81.68 139.67 81.68ZM139.67 73.84C137.76 73.84 136.2 75.4 136.2 77.31 136.2 79.22 137.76 80.78 139.67 80.78 141.58 80.78 143.14 79.22 143.14 77.31 143.13 75.39 141.58 73.84 139.67 73.84Z" fill="#98BAF4"/></g></g><g><g><path d="M127.31 82.31C125.31 82.31 123.69 80.69 123.69 78.69 123.69 76.7 125.31 75.07 127.31 75.07 129.3 75.07 130.93 76.69 130.93 78.69 130.92 80.69 129.3 82.31 127.31 82.31ZM127.31 75.98C125.81 75.98 124.6 77.2 124.6 78.69 124.6 80.19 125.82 81.4 127.31 81.4 128.81 81.4 130.02 80.18 130.02 78.69 130.02 77.2 128.8 75.98 127.31 75.98Z" fill="#98BAF4"/></g></g></g></g></g><g><g><g><path d="M118.63 77.91 113.45 88.17C112.97 89.12 112.13 89.7 111.22 89.7L51.28 89.7C50.37 89.7 49.53 89.12 49.05 88.17L43.87 77.91C43.04 76.27 43.57 74.27 44.77 73.4 45.12 73.15 45.52 72.99 45.96 72.97 46.01 72.97 46.05 72.97 46.1 72.97L116.4 72.97C116.59 72.97 116.78 72.99 116.96 73.04 117.37 73.15 117.74 73.37 118.05 73.68 119.02 74.64 119.38 76.43 118.63 77.91Z" fill="#272443"/></g></g><g><g><path d="M116.96 73.03C115.32 76.54 112.76 82.11 109.28 89.69L110.67 89.69C113.43 83.67 116.24 77.57 118.05 73.67 117.74 73.37 117.37 73.14 116.96 73.03ZM109.78 72.96C108.48 76.46 106.42 82.04 103.61 89.69L104.93 89.69C107.28 83.3 109.66 76.81 111.1 72.96L109.78 72.96ZM102.57 72.96C101.46 76.92 99.74 83.17 97.94 89.69L99.22 89.69C100.86 83.74 102.72 76.99 103.85 72.96L102.57 72.96ZM92.26 89.7 93.5 89.7C94.59 83.77 95.83 77.03 96.58 72.97L95.34 72.97C94.58 77.05 93.39 83.54 92.26 89.7ZM86.57 89.7 87.78 89.7C88.34 83.58 88.95 76.98 89.32 72.97L88.1 72.97C87.72 77.18 87.1 83.95 86.57 89.7ZM80.87 89.7 82.08 89.7 82.08 72.96 80.87 72.96 80.87 89.7ZM73.63 72.96C74 76.98 74.61 83.57 75.17 89.69L76.38 89.69C75.85 83.94 75.23 77.17 74.84 72.96L73.63 72.96ZM66.38 72.96C67.14 77.02 68.38 83.77 69.46 89.69L70.7 89.69C69.57 83.53 68.38 77.04 67.62 72.96L66.38 72.96ZM59.11 72.96C60.24 77 62.1 83.75 63.74 89.7L65.02 89.7C63.23 83.18 61.5 76.93 60.39 72.97L59.11 72.97ZM51.85 72.96C53.29 76.82 55.67 83.3 58.02 89.69L59.34 89.69C56.54 82.04 54.48 76.45 53.17 72.96L51.85 72.96ZM44.78 73.4C46.58 77.28 49.46 83.53 52.29 89.7L53.68 89.7C50.18 82.07 47.61 76.48 45.97 72.97 45.52 72.99 45.12 73.15 44.78 73.4Z" fill="#3C3C70"/></g></g></g><g><g><g><path d="M31.04 102.51 11.16 102.51C10.74 102.51 10.4 102.17 10.4 101.75L10.4 98.15C10.4 97.73 10.74 97.39 11.16 97.39L31.04 97.39C31.46 97.39 31.8 97.73 31.8 98.15L31.8 101.75C31.8 102.17 31.46 102.51 31.04 102.51Z" fill="#FFFFFF"/></g></g><g><g><path d="M151.34 102.51 131.46 102.51C131.04 102.51 130.7 102.17 130.7 101.75L130.7 98.15C130.7 97.73 131.04 97.39 131.46 97.39L151.34 97.39C151.76 97.39 152.1 97.73 152.1 98.15L152.1 101.75C152.1 102.17 151.76 102.51 151.34 102.51Z" fill="#FFFFFF"/></g></g></g></g><g><g><g><path d="M174.4 19.77C174.52 19.49 174.6 19.26 174.64 18.96 174.68 18.67 174.69 18.37 174.75 18.09 174.81 17.8 174.87 17.29 175.16 17.13 175.18 17.47 175.08 17.81 175 18.15 174.86 18.76 174.78 19.38 174.76 20 174.75 20.42 174.73 21.15 175.01 21.5 175.1 21.61 175.27 21.67 175.39 21.6 175.47 21.55 175.51 21.46 175.54 21.38 176.05 20.08 175.93 18.53 176.71 17.37 176.81 18.56 176.24 19.74 176.4 20.92 176.42 21.08 176.52 21.29 176.68 21.25 176.74 21.24 176.78 21.19 176.81 21.15 177.22 20.67 177.38 20.04 177.57 19.45 177.67 19.15 177.79 18.88 177.91 18.6 177.97 18.45 178.02 18.3 178.07 18.16 178.1 18.09 178.25 17.61 178.41 17.8 178.46 17.86 178.45 17.95 178.44 18.03 178.37 18.38 178.25 18.72 178.16 19.06 178.04 19.54 178.01 20.03 177.97 20.53 177.94 20.9 178.21 21.03 178.49 20.82 178.77 20.6 178.9 20.15 179.04 19.84 179.31 19.23 179.5 18.6 179.74 17.97 180.21 16.72 180.81 15.52 181.54 14.4 181.93 13.8 182.45 13.16 182.35 12.41 182.25 11.71 182.18 11.03 181.62 10.52 181.15 10.08 180.48 9.9 179.83 9.9 178.39 9.89 177.47 10.88 176.67 11.95 176.26 12.49 175.95 13.1 175.56 13.65 175.18 14.17 174.8 14.63 174.53 15.23 174.21 15.92 174.01 16.66 173.88 17.4 173.81 17.77 173.76 18.15 173.73 18.53 173.71 18.89 173.64 19.27 173.71 19.63 173.73 19.75 173.77 19.88 173.86 19.96 173.95 20.05 174.09 20.09 174.2 20.04 174.31 19.96 174.36 19.86 174.4 19.77Z" fill="#F7967C"/></g></g><g><g><g><g><path d="M182.61 13.75C182.05 13.89 181.48 14 180.91 14.07 180.03 14.17 178.56 14.25 178.06 13.33 177.72 12.7 177.31 11.31 178.03 10.82 182.83 7.48 188.21 4.89 193.93 3.71 195.64 3.36 197.43 3.13 199.13 3.55 200.14 3.8 201.13 4.31 201.73 5.16 202.53 6.31 202.45 8.21 201.13 8.89 199.58 9.68 197.79 9.86 196.11 10.17 194.82 10.41 193.53 10.71 192.26 11.03 189.84 11.64 187.44 12.31 185.06 13.04 184.25 13.29 183.44 13.55 182.61 13.75Z" fill="#F7967C"/></g></g></g></g></g></g></g></svg>