<svg width="387.19" height="310.18" viewBox="0 0 387.19 310.18" xmlns="http://www.w3.org/2000/svg" xmlns:xlink="http://www.w3.org/1999/xlink" xml:space="preserve" overflow="hidden"><defs></defs><g><g><g><path d="M307.56 104.89C303.22 106.05 294.67 113.3 292.07 115.56 294.6 119.57 298.87 126.01 300.14 126 301.98 126 308.61 118.67 311.17 112.27 312.39 109.22 312.14 106.77 311.05 105.17 310.04 104.72 308.87 104.54 307.56 104.89Z" fill="#FC7E4C"/><path d="M302.03 102.97C297.28 105.39 288.04 111.88 288.04 111.88 288.04 111.88 290.93 113.75 292.07 115.56 294.67 113.29 303.23 106.04 307.56 104.89 308.87 104.54 310.03 104.72 311.04 105.17 309.68 103.17 305.12 101.4 302.03 102.97Z" fill="#FF8E5C"/></g><path d="M36.74 170.23 45.36 164.53 63.36 141.1C63.36 141.1 47.87 136.97 39.83 143.92 31.78 150.88 36.74 170.23 36.74 170.23Z" fill="#EF5F33"/><path d="M198.68 262.98 226.49 244.01 225.3 233.85C225.3 233.85 209.81 229.72 201.77 236.67 193.73 243.63 198.68 262.98 198.68 262.98Z" fill="#EF5F33"/><g><path d="M256.76 284.35C256.76 267.99 246.82 248.99 234.55 241.91 231.45 240.12 227.77 239.2 224.85 239.21 222.56 239.21 216.7 239.44 210.62 243.2 203.63 247.52 202.69 257.33 202.69 257.33L227.64 308.59C227.64 308.59 235.68 312.53 243.93 308.01 249.07 305.2 252.17 300.55 253.58 297.97 254.2 296.84 255.14 294.57 255.42 293.71 256.28 291.05 256.76 287.92 256.76 284.35Z" fill="#2B2B2B"/><path d="M201.94 264.51C201.94 280.87 211.88 299.87 224.15 306.95 236.42 314.03 246.36 306.51 246.36 290.16 246.36 273.8 236.42 254.8 224.15 247.72 211.88 240.63 201.94 248.15 201.94 264.51Z" fill="#333333"/><path d="M206.23 267.19C206.23 280.12 214.09 295.15 223.8 300.75 233.5 306.35 241.36 300.41 241.36 287.47 241.36 274.54 233.5 259.51 223.8 253.91 214.1 248.31 206.23 254.26 206.23 267.19Z" fill="#EEE1E0"/><g><path d="M223.19 256.6C231.9 261.63 238.97 275.13 238.97 286.74 238.97 298.36 231.91 303.7 223.19 298.67 214.48 293.64 207.41 280.14 207.41 268.53 207.41 256.91 214.47 251.57 223.19 256.6ZM226.61 260.49C226.22 259.93 224.52 258.57 223.27 257.89 221.92 257.15 220.47 256.05 217.43 256.28 216.77 256.33 216.1 256.72 215.78 257.06 215.29 257.58 215.39 258.24 215.94 259.31 216.46 260.32 217.22 261.78 217.94 262.85 218.3 263.38 218.52 263.14 219.26 263.21 220 263.28 220.8 263.34 221.38 263.59 222.82 264.21 223.88 264.88 224.89 265.7 225.4 266.11 225.65 265.97 225.85 265.69 226.39 264.92 226.8 263.87 227.12 262.82 227.3 262.16 227.25 261.43 226.61 260.49ZM214.79 272.78C214.79 278.97 218.55 286.16 223.19 288.83 227.83 291.51 231.59 288.66 231.59 282.48 231.59 276.29 227.83 269.1 223.19 266.43 218.55 263.75 214.79 266.59 214.79 272.78ZM236.67 277.64C235.51 272.72 234.33 270.9 233.38 269.07 232.5 267.38 231.08 265.25 230.62 264.88 229.86 264.25 229.46 264.49 229.21 265.06 228.8 266 228.42 267.1 228.25 268.28 228.19 268.72 228.22 269.17 228.65 269.81 229.5 271.07 230.29 272.46 231.22 274.48 231.59 275.29 231.96 276.54 232.31 277.68 232.66 278.82 232.62 279.27 233.05 279.61 233.91 280.3 234.98 280.89 235.73 281.29 236.52 281.71 236.9 281.6 236.97 280.6 237 279.93 236.92 278.71 236.67 277.64ZM233.16 297.62C233.58 297.61 234.75 296.58 235.41 295.55 236.12 294.43 237.08 293.51 237.49 289.26 237.58 288.34 237.46 287.1 237.3 286.35 237.06 285.22 236.63 284.76 235.86 284.52 235.13 284.29 234.08 283.98 233.27 283.96 232.87 283.95 232.98 284.46 232.8 285.38 232.62 286.3 232.44 287.31 232.18 287.86 231.53 289.21 230.91 290 230.22 290.6 229.87 290.9 229.91 291.36 230.05 291.89 230.43 293.31 231.02 294.81 231.63 296.19 231.99 297.02 232.46 297.63 233.16 297.62ZM218.63 293.07C219.04 293.73 219.82 294.73 220.54 295.36 223.85 298.28 225.21 298.37 226.53 298.77 227.75 299.13 229.35 299.17 229.67 298.91 230.2 298.48 230.12 297.73 229.81 296.87 229.29 295.46 228.67 293.97 227.96 292.67 227.69 292.18 227.4 291.82 226.93 291.81 225.98 291.79 224.96 291.59 223.53 290.99 222.95 290.75 222.1 290.11 221.32 289.53 220.54 288.95 220.26 288.5 219.97 288.76 219.38 289.27 218.82 290.17 218.43 290.8 218.01 291.46 218.02 292.08 218.63 293.07ZM209.8 278.82C210.44 280.78 210.92 282.89 213.63 287.18 214.22 288.11 215.04 289.03 215.54 289.46 216.3 290.12 216.66 289.94 216.91 289.09 217.15 288.29 217.49 287.12 217.6 286.03 217.66 285.49 217.31 285.2 216.74 284.15 216.16 283.1 215.53 281.96 215.21 281.13 214.42 279.06 213.98 277.52 213.68 276.04 213.53 275.3 213.23 274.95 212.86 274.68 211.89 273.96 210.84 273.45 209.87 273.08 209.28 272.85 208.83 272.96 208.74 273.94 208.69 274.51 209.21 277.01 209.8 278.82ZM209.84 270.85C210.81 271.27 211.85 271.61 212.76 271.67 213.1 271.69 213.36 271.57 213.39 270.9 213.44 269.57 213.63 268.28 214.1 266.73 214.29 266.1 214.76 265.42 215.18 264.78 215.6 264.14 215.92 264.12 215.76 263.49 215.44 262.23 214.86 260.68 214.45 259.61 214.02 258.48 213.61 257.98 212.91 258.04 212.45 258.08 211.73 258.37 211.28 258.87 209.16 261.18 209.04 263.04 208.72 264.61 208.42 266.05 208.32 268.3 208.48 268.97 208.74 270.09 209.25 270.6 209.84 270.85Z" fill="#FFFFFF"/><path d="M222.29 269.63C226.07 271.81 229.13 277.66 229.13 282.7 229.13 287.74 226.07 290.05 222.29 287.87 218.51 285.69 215.45 279.83 215.45 274.8 215.45 269.76 218.52 267.44 222.29 269.63Z" fill="#FFFFFF"/><path d="M235.72 281.29C234.98 280.89 233.9 280.3 233.04 279.61 232.61 279.27 232.65 278.82 232.3 277.68 231.95 276.54 231.59 275.29 231.21 274.48 230.29 272.47 229.49 271.07 228.64 269.81 228.21 269.18 228.18 268.73 228.24 268.28 228.41 267.1 228.79 266 229.2 265.06 229.45 264.49 229.85 264.25 230.61 264.88 231.06 265.26 232.49 267.39 233.37 269.07 234.33 270.9 235.5 272.72 236.66 277.64 236.91 278.7 236.99 279.93 236.95 280.59 236.89 281.59 236.51 281.71 235.72 281.29Z" fill="#474747"/><path d="M225.83 265.67C225.63 265.96 225.38 266.09 224.87 265.68 223.86 264.87 222.8 264.19 221.36 263.57 220.78 263.32 219.98 263.26 219.24 263.19 218.5 263.12 218.28 263.36 217.92 262.83 217.2 261.76 216.44 260.31 215.92 259.29 215.37 258.22 215.27 257.57 215.76 257.04 216.09 256.69 216.76 256.31 217.41 256.26 220.46 256.03 221.9 257.13 223.25 257.87 224.5 258.56 226.2 259.91 226.59 260.47 227.24 261.4 227.28 262.14 227.09 262.78 226.79 263.85 226.38 264.91 225.83 265.67Z" fill="#474747"/><path d="M208.71 264.62C209.03 263.05 209.15 261.19 211.27 258.88 211.73 258.38 212.44 258.09 212.9 258.05 213.6 257.99 214.01 258.49 214.44 259.62 214.85 260.69 215.43 262.23 215.75 263.5 215.91 264.13 215.59 264.15 215.17 264.79 214.74 265.43 214.27 266.11 214.09 266.74 213.62 268.29 213.44 269.58 213.38 270.91 213.35 271.58 213.1 271.7 212.75 271.68 211.84 271.63 210.8 271.28 209.83 270.86 209.24 270.61 208.73 270.1 208.46 268.98 208.31 268.3 208.41 266.06 208.71 264.62Z" fill="#474747"/><path d="M209.86 273.07C210.83 273.45 211.88 273.96 212.85 274.67 213.21 274.94 213.51 275.28 213.67 276.03 213.98 277.51 214.41 279.05 215.2 281.12 215.52 281.96 216.15 283.09 216.73 284.14 217.31 285.19 217.65 285.48 217.59 286.02 217.48 287.11 217.14 288.27 216.9 289.08 216.65 289.93 216.29 290.11 215.53 289.45 215.03 289.01 214.2 288.09 213.62 287.17 210.91 282.88 210.43 280.77 209.79 278.81 209.2 277 208.68 274.5 208.73 273.92 208.82 272.96 209.27 272.85 209.86 273.07Z" fill="#474747"/><path d="M219.96 288.77C220.25 288.51 220.53 288.96 221.31 289.54 222.09 290.12 222.94 290.76 223.52 291 224.95 291.6 225.98 291.81 226.92 291.82 227.4 291.83 227.68 292.19 227.95 292.68 228.66 293.98 229.28 295.47 229.8 296.88 230.11 297.73 230.19 298.48 229.66 298.92 229.34 299.18 227.74 299.14 226.52 298.78 225.2 298.39 223.83 298.3 220.53 295.37 219.82 294.74 219.03 293.73 218.62 293.08 218 292.08 218 291.47 218.41 290.81 218.81 290.18 219.37 289.28 219.96 288.77Z" fill="#474747"/><path d="M230.21 290.6C230.9 290 231.52 289.2 232.17 287.86 232.43 287.32 232.62 286.31 232.79 285.38 232.97 284.46 232.86 283.95 233.26 283.96 234.06 283.98 235.12 284.29 235.85 284.52 236.62 284.76 237.05 285.22 237.29 286.35 237.45 287.1 237.57 288.34 237.48 289.26 237.07 293.51 236.12 294.43 235.4 295.55 234.74 296.58 233.58 297.61 233.15 297.62 232.45 297.63 231.97 297.02 231.61 296.18 231.01 294.81 230.42 293.3 230.03 291.88 229.9 291.35 229.86 290.9 230.21 290.6Z" fill="#474747"/></g></g><g><path d="M92.91 189.06C92.91 172.7 82.97 153.7 70.7 146.62 67.6 144.83 63.92 143.91 61 143.92 58.71 143.92 52.85 144.15 46.77 147.91 39.78 152.23 38.84 162.04 38.84 162.04L63.79 213.29C63.79 213.29 71.83 217.23 80.08 212.71 85.22 209.9 88.32 205.25 89.73 202.67 90.35 201.54 91.29 199.27 91.57 198.41 92.44 195.76 92.91 192.63 92.91 189.06Z" fill="#2B2B2B"/><path d="M38.09 169.22C38.09 185.58 48.03 204.58 60.3 211.66 72.57 218.74 82.51 211.22 82.51 194.87 82.51 178.51 72.57 159.51 60.3 152.43 48.04 145.34 38.09 152.86 38.09 169.22Z" fill="#333333"/><path d="M42.39 171.9C42.39 184.83 50.25 199.86 59.96 205.46 69.66 211.06 77.53 205.12 77.53 192.18 77.53 179.25 69.67 164.22 59.96 158.62 50.25 153.02 42.39 158.96 42.39 171.9Z" fill="#EEE1E0"/><g><path d="M59.34 161.31C68.05 166.34 75.12 179.84 75.12 191.45 75.12 203.07 68.06 208.41 59.34 203.38 50.63 198.35 43.56 184.85 43.56 173.24 43.56 161.62 50.63 156.28 59.34 161.31ZM62.76 165.2C62.37 164.64 60.67 163.28 59.42 162.6 58.07 161.86 56.62 160.76 53.58 160.99 52.92 161.04 52.25 161.43 51.93 161.77 51.44 162.29 51.54 162.95 52.09 164.02 52.61 165.03 53.37 166.49 54.09 167.56 54.45 168.09 54.67 167.85 55.4 167.92 56.14 167.99 56.94 168.05 57.52 168.3 58.96 168.92 60.02 169.59 61.03 170.41 61.54 170.82 61.79 170.68 61.99 170.4 62.53 169.63 62.95 168.58 63.26 167.53 63.45 166.87 63.41 166.14 62.76 165.2ZM50.94 177.49C50.94 183.68 54.7 190.87 59.34 193.54 63.98 196.22 67.74 193.38 67.74 187.19 67.74 181 63.98 173.81 59.34 171.14 54.7 168.46 50.94 171.3 50.94 177.49ZM72.82 182.35C71.66 177.43 70.48 175.61 69.53 173.78 68.65 172.09 67.23 169.96 66.77 169.59 66.01 168.96 65.61 169.2 65.36 169.77 64.95 170.71 64.57 171.81 64.4 172.99 64.34 173.43 64.37 173.88 64.8 174.52 65.65 175.78 66.44 177.17 67.37 179.19 67.74 180 68.11 181.25 68.46 182.39 68.81 183.53 68.77 183.98 69.2 184.32 70.06 185.01 71.13 185.6 71.88 186 72.67 186.42 73.05 186.31 73.12 185.31 73.15 184.64 73.08 183.42 72.82 182.35ZM69.32 202.33C69.74 202.33 70.91 201.29 71.57 200.26 72.28 199.14 73.24 198.22 73.65 193.97 73.74 193.05 73.62 191.81 73.46 191.06 73.22 189.93 72.79 189.47 72.02 189.23 71.29 189 70.24 188.69 69.43 188.67 69.03 188.66 69.14 189.17 68.96 190.09 68.78 191.01 68.6 192.02 68.34 192.56 67.69 193.91 67.07 194.7 66.38 195.3 66.03 195.6 66.07 196.06 66.21 196.59 66.59 198.01 67.18 199.51 67.79 200.89 68.14 201.73 68.61 202.34 69.32 202.33ZM54.79 197.78C55.2 198.44 55.98 199.44 56.7 200.07 60.01 202.99 61.37 203.08 62.69 203.47 63.91 203.83 65.51 203.87 65.83 203.61 66.36 203.18 66.28 202.42 65.97 201.57 65.45 200.17 64.83 198.67 64.12 197.37 63.85 196.88 63.56 196.52 63.09 196.51 62.15 196.49 61.12 196.29 59.69 195.69 59.11 195.45 58.26 194.81 57.48 194.23 56.7 193.65 56.42 193.2 56.13 193.46 55.54 193.98 54.98 194.87 54.59 195.5 54.16 196.17 54.17 196.79 54.79 197.78ZM45.95 183.53C46.59 185.49 47.07 187.6 49.77 191.89 50.36 192.82 51.18 193.74 51.68 194.17 52.44 194.83 52.8 194.65 53.05 193.8 53.29 193 53.63 191.83 53.74 190.74 53.8 190.2 53.45 189.91 52.88 188.86 52.3 187.81 51.67 186.67 51.35 185.84 50.56 183.77 50.12 182.23 49.82 180.75 49.67 180.01 49.37 179.66 49 179.39 48.03 178.67 46.98 178.16 46.01 177.79 45.42 177.56 44.97 177.67 44.88 178.65 44.84 179.22 45.36 181.72 45.95 183.53ZM46 175.56C46.97 175.98 48.01 176.32 48.92 176.38 49.26 176.4 49.52 176.28 49.55 175.61 49.6 174.28 49.79 172.99 50.26 171.44 50.45 170.81 50.92 170.13 51.34 169.49 51.76 168.85 52.08 168.83 51.92 168.2 51.6 166.94 51.02 165.39 50.61 164.32 50.18 163.19 49.77 162.69 49.07 162.75 48.61 162.79 47.89 163.08 47.44 163.58 45.32 165.89 45.2 167.75 44.88 169.32 44.58 170.76 44.48 173.01 44.65 173.68 44.9 174.8 45.41 175.31 46 175.56Z" fill="#FFFFFF"/><path d="M58.45 174.33C62.23 176.51 65.29 182.37 65.29 187.4 65.29 192.44 62.23 194.75 58.45 192.57 54.67 190.39 51.61 184.54 51.61 179.5 51.61 174.47 54.67 172.15 58.45 174.33Z" fill="#FFFFFF"/><path d="M71.88 185.99C71.14 185.59 70.06 185 69.2 184.31 68.77 183.97 68.81 183.52 68.46 182.38 68.11 181.24 67.75 179.99 67.37 179.18 66.45 177.17 65.65 175.77 64.8 174.51 64.37 173.88 64.34 173.43 64.4 172.98 64.57 171.8 64.95 170.7 65.36 169.76 65.61 169.19 66.01 168.95 66.77 169.58 67.22 169.96 68.65 172.09 69.53 173.77 70.48 175.6 71.66 177.42 72.82 182.34 73.07 183.4 73.15 184.63 73.11 185.29 73.05 186.3 72.66 186.42 71.88 185.99Z" fill="#474747"/><path d="M61.99 170.38C61.79 170.67 61.54 170.8 61.03 170.39 60.02 169.58 58.96 168.9 57.52 168.28 56.94 168.03 56.14 167.97 55.4 167.9 54.66 167.83 54.44 168.07 54.09 167.54 53.37 166.47 52.61 165.01 52.09 164 51.54 162.93 51.44 162.28 51.93 161.75 52.26 161.4 52.93 161.02 53.58 160.97 56.63 160.74 58.07 161.84 59.42 162.58 60.67 163.27 62.37 164.62 62.76 165.18 63.4 166.11 63.45 166.85 63.26 167.49 62.94 168.56 62.53 169.62 61.99 170.38Z" fill="#474747"/><path d="M44.86 169.32C45.18 167.75 45.3 165.89 47.42 163.58 47.88 163.08 48.59 162.79 49.05 162.75 49.75 162.69 50.16 163.19 50.59 164.32 51 165.39 51.58 166.93 51.9 168.2 52.06 168.83 51.74 168.85 51.32 169.49 50.9 170.13 50.43 170.81 50.24 171.44 49.77 172.99 49.59 174.28 49.53 175.61 49.5 176.28 49.25 176.4 48.9 176.38 47.99 176.33 46.95 175.98 45.98 175.56 45.39 175.31 44.88 174.8 44.61 173.68 44.46 173.01 44.56 170.77 44.86 169.32Z" fill="#474747"/><path d="M46.02 177.78C46.99 178.16 48.04 178.67 49.01 179.38 49.37 179.65 49.67 179.99 49.83 180.74 50.14 182.22 50.57 183.76 51.36 185.83 51.68 186.66 52.31 187.8 52.89 188.85 53.47 189.9 53.81 190.19 53.75 190.73 53.64 191.82 53.3 192.98 53.06 193.79 52.81 194.64 52.45 194.82 51.69 194.16 51.19 193.72 50.36 192.81 49.78 191.88 47.07 187.59 46.59 185.48 45.96 183.52 45.37 181.71 44.85 179.21 44.9 178.63 44.97 177.67 45.43 177.56 46.02 177.78Z" fill="#474747"/><path d="M56.11 193.47C56.4 193.21 56.68 193.66 57.46 194.24 58.24 194.82 59.09 195.46 59.67 195.7 61.1 196.3 62.13 196.51 63.07 196.52 63.55 196.53 63.84 196.89 64.1 197.38 64.81 198.68 65.43 200.17 65.95 201.58 66.26 202.43 66.34 203.18 65.81 203.62 65.49 203.88 63.89 203.84 62.67 203.48 61.35 203.09 59.99 203 56.68 200.08 55.97 199.45 55.18 198.44 54.77 197.79 54.15 196.8 54.15 196.18 54.56 195.52 54.96 194.88 55.53 193.99 56.11 193.47Z" fill="#474747"/><path d="M66.37 195.31C67.06 194.71 67.68 193.91 68.33 192.57 68.59 192.03 68.78 191.02 68.95 190.1 69.13 189.18 69.02 188.67 69.42 188.68 70.22 188.7 71.28 189.01 72.01 189.24 72.78 189.48 73.21 189.94 73.45 191.07 73.61 191.82 73.73 193.06 73.64 193.98 73.23 198.23 72.27 199.15 71.56 200.27 70.9 201.3 69.74 202.33 69.31 202.34 68.61 202.35 68.13 201.74 67.77 200.9 67.17 199.53 66.58 198.02 66.19 196.6 66.06 196.06 66.02 195.61 66.37 195.31Z" fill="#474747"/></g></g><g><path d="M337.13 151.3C326.12 142.71 312.61 132.47 304.22 126.15 300.08 131.27 291.88 139.19 274.2 150.41 259.17 159.95 241.65 169.31 225.12 175.74 224.6 175.94 257.25 196.52 279.67 222.17 287.58 231.21 296.62 237.1 317.52 232.04 322.71 230.78 338.72 222.97 352.53 212.98 362.74 205.59 370.4 196.41 374.89 189.68 365.53 174.67 353.43 164.02 337.13 151.3Z" fill="#FF8E5C"/><g><path d="M383.77 204.72C382.29 201.18 378.04 193.3 375.81 189.73 364.55 203.2 329.09 226.16 320.21 228.86 300.13 234.96 290.92 226.88 282.9 219.73 257.49 197.05 224.61 175.95 225.13 175.75 241.67 169.32 259.19 159.96 274.21 150.42 291.89 139.2 300.09 131.28 304.23 126.16 302.87 125.14 301.63 124.2 300.58 123.41 291.78 112.59 282.12 94.32 270.6 78.51 268.12 75.11 265.56 72.03 262.6 69.24 254.49 71.85 244.3 68.63 236.95 65.6 221.98 59.43 207.1 55.39 190.86 54.46 174.78 53.53 154.95 55.72 139.1 58.39 123.25 61.07 109.13 69.15 92.31 66.77 102.51 60.12 126.25 44.98 142.25 36.46 150.23 32.21 158.37 28.24 166.61 24.52 169.61 23.17 172.73 21.64 175.92 20.2 173.89 19.45 171.96 18.83 170.23 18.41 168.81 18.07 161.93 19.97 152.4 24.44 146.1 27.4 138.9 32.11 130.39 35.79 129.58 36.14 123.01 38.64 120.55 40 97.9 52.91 25 95.05 25 95.05 25 95.05 63.62 117.61 105.68 146.25 147.74 174.88 211.67 217.25 252.05 245.28 292.43 273.31 283.07 297.38 283.07 297.38L369.93 247.47 378.38 242.61C383.1 240.45 386.24 237.5 386.24 232.86 386.25 226.93 388.7 216.52 383.77 204.72Z" fill="#FC7E4C"/><path d="M142.24 36.45C126.24 44.98 102.49 60.11 92.3 66.76 109.12 69.14 123.24 61.06 139.09 58.38 154.94 55.71 174.77 53.52 190.85 54.45 207.09 55.38 221.97 59.43 236.94 65.59 244.29 68.62 254.48 71.84 262.59 69.23 259.86 66.65 256.79 64.31 253.12 62.2 248.68 59.65 216.62 41.24 206.24 35.28 203.83 33.9 187.97 24.63 175.91 20.18 172.73 21.62 169.6 23.14 166.6 24.5 158.36 28.23 150.22 32.2 142.24 36.45Z" fill="#FF8E5C"/></g></g><g><path d="M287.62 259.89C279.91 241.46 261.16 222.22 240.99 206.47 228.2 196.49 212 184.27 204.42 178.57 195.62 167.75 185.96 149.48 174.44 133.67 169.68 127.13 164.63 121.77 156.97 117.37 152.53 114.82 120.47 96.41 110.09 90.45 107.28 88.84 86.09 76.44 74.07 73.57 71.72 73.01 59.34 77.16 38.84 89.05 35.36 91.07 27.82 92.97 25.01 95.04 21.2 97.85 20.73 106.64 20.91 122.04 20.96 126.68 20.28 149.48 25.28 156.16 25.29 156.16 25.29 156.15 25.3 156.15 27.23 160.01 29.63 163.48 32.34 166.34 32.33 165.87 32.29 165.39 32.29 164.92 32.29 141.28 46.66 130.41 64.39 140.65 81.1 150.3 94.82 175.25 96.34 197.88 102.98 201.73 117.56 210.12 138.99 222.17 166.33 237.53 189.01 250.18 195.36 253.71 197.3 233.66 210.8 225.05 227.2 234.52 244.93 244.76 259.3 272.22 259.3 295.86 259.3 296.29 259.26 296.69 259.25 297.12 264.07 299.17 270.21 301.57 272.31 301.03 282.01 298.55 290.1 295.47 290.1 288.02 290.1 282.11 292.56 271.69 287.62 259.89Z" fill="#EF5F33"/><path d="M227.19 234.53C210.79 225.06 197.29 233.67 195.35 253.72 189 250.18 166.31 237.54 138.98 222.18 117.55 210.14 102.97 201.74 96.33 197.89 96.32 197.35 96.26 196.69 96.19 196.07 94.08 173.94 80.64 150.05 64.38 140.66 46.65 130.42 32.28 141.29 32.28 164.93 32.28 165.4 32.32 165.88 32.33 166.35 33.67 167.76 35.08 169.03 36.57 170.11 36.63 170.15 36.68 170.19 36.74 170.23 36.72 169.61 36.67 168.98 36.67 168.37 36.67 148.26 48.89 139.02 63.98 147.73 79.06 156.44 91.29 179.8 91.29 199.9 91.29 200.69 91.24 201.43 91.2 202.18L93.97 203.76 96.37 205.13 195.19 261.35 198.71 263.35C198.68 262.66 198.63 261.97 198.63 261.28 198.63 241.17 210.86 231.93 225.94 240.64 241.02 249.35 253.25 272.7 253.25 292.81 253.25 293.4 253.2 293.94 253.18 294.51 254.01 294.81 256.41 295.9 259.25 297.11 259.26 296.68 259.3 296.29 259.3 295.85 259.3 272.23 244.93 244.76 227.19 234.53Z" fill="#DB4123"/></g><g><path d="M261.37 80.13C257.22 83.35 249.26 89.06 236.28 96.55 215.12 108.77 175.76 127.94 175.76 127.94L204.44 171.85C221.12 157.25 276.62 125.06 287.58 119.27 284.11 112.92 271.44 93.54 261.37 80.13Z" fill="#EEE1E0"/><path d="M265.28 148.94C294.03 132.31 298.2 126.11 298.2 126.11L264.96 77.16C264.96 77.16 263.85 78.2 261.36 80.13 271.43 93.54 284.1 112.92 287.56 119.28 276.59 125.07 221.1 157.25 204.42 171.86L207.95 177.41C207.97 177.4 234.57 166.71 265.28 148.94Z" fill="#E5D4D3"/><path d="M177.38 130.43C177.38 130.43 221.32 124.12 245.39 113.62 273.27 101.46 278.63 97.28 278.63 97.28L264.97 77.16C264.97 77.16 250.9 87.93 231.61 99.21 219.84 106.1 175.76 127.95 175.76 127.95L177.38 130.43Z" fill="#FFFFFF" opacity="0.5"/></g><g><path d="M369.43 218.93C369.74 213.87 371.69 207.05 374.9 206 375.04 205.95 375.36 206.31 375.75 206.85 375.74 206.23 375.72 205.6 375.67 204.99 374.17 203.97 370.38 201.12 370.35 201.28 361.94 216.63 323.26 239.53 296.9 239.84 294.55 239.87 302.94 246.64 303.52 246.46 308.98 244.85 316.07 245.28 321.59 247.54 329.37 243.14 337.68 239.66 345.37 235.01 351.66 231.23 361.5 224.61 369.43 218.93Z" fill="#333333"/><path d="M341.9 251.54C350.26 247.42 361.1 240.06 368.84 235.1 370.34 234.14 370.57 231.71 370.4 229.04 361.95 236.25 345.36 245.89 331.22 252.4 334.61 253.92 338.31 253.31 341.9 251.54Z" fill="#333333"/><path d="M323.87 248.61C324.98 249.21 326.83 250.16 328.74 251.16 335.72 247.44 343.01 244.22 349.82 240.11 356.7 235.96 363.62 231.58 370.18 226.84 369.92 224.81 369.56 222.84 369.44 221.46 358.12 230.27 337.99 242.26 323.87 248.61Z" fill="#333333"/><path d="M328.74 251.16C329.35 251.48 329.96 251.8 330.55 252.11 330.77 252.23 330.99 252.3 331.21 252.4 345.36 245.89 361.94 236.25 370.39 229.04 370.34 228.31 370.27 227.58 370.17 226.84 363.61 231.58 356.69 235.95 349.81 240.11 343.01 244.23 335.72 247.44 328.74 251.16Z" fill="#474747"/><path d="M369.39 220.88C369.37 220.27 369.38 219.61 369.43 218.92 361.5 224.61 351.66 231.22 345.39 235.01 337.7 239.65 329.39 243.14 321.61 247.54 322.34 247.84 323.06 248.17 323.73 248.53 323.77 248.55 323.83 248.58 323.87 248.61 337.99 242.26 358.12 230.28 369.43 221.47 369.42 221.26 369.4 221.06 369.39 220.88Z" fill="#474747"/></g><path d="M306.59 248.46C303.35 240.27 293.28 234.89 284.16 233.21 280.19 232.48 267 230.03 263.92 235.66 263.13 237.1 265.78 239.79 268.95 241.63 275.47 245.42 281.36 251.62 283.58 257.22 284.61 259.82 285.78 262.24 287.59 264.23 289.94 266.82 298.92 262.37 301.65 260.44 306.22 257.21 309.15 254.92 306.59 248.46Z" fill="#E5D4D3"/><path d="M365.25 176.66C363.67 187.12 371.11 203.37 374.9 211.02 376.97 215.2 382.26 215.23 385.65 210.45 384.29 204.07 378.54 189.29 365.25 176.66Z" fill="#E5D4D3"/><path d="M386.84 217.92C386.67 217.54 386.12 217.23 385.7 217.27 380.31 217.83 377.94 222.12 376.81 227.04 375.38 233.25 374.19 237.1 368.07 240.71 363.56 243.37 358.94 245.85 354.38 248.41 346.72 252.71 339.06 257.01 331.4 261.31 327.45 262.36 323.67 262.47 320.56 260.71 316.12 258.21 313.03 256.04 308.62 260.02 302.99 265.1 298.61 272.91 298.31 280.3 298.2 283.05 298.3 283.68 302.11 281.81 311.24 277.34 321.51 270.12 328.43 271.29 331.99 269.3 360.32 253.65 369.13 247.91 369.88 245.66 371.77 243.93 373.98 242.46 378.9 239.18 383.66 236.68 386.26 232.04 386.86 228.48 387.66 224.27 386.84 217.92Z" fill="#333333"/><path d="M313.66 262.21C311.42 263.51 309.6 266.98 309.6 269.97 309.6 272.96 311.42 274.34 313.66 273.04 315.9 271.74 317.72 268.27 317.72 265.28 317.73 262.29 315.91 260.91 313.66 262.21Z" fill="#474747"/><path d="M381.46 223.71C379.42 224.89 377.77 228.04 377.77 230.76 377.77 233.48 379.42 234.72 381.46 233.55 383.5 232.37 385.15 229.22 385.15 226.5 385.15 223.78 383.49 222.54 381.46 223.71Z" fill="#474747"/><path d="M304.72 271.01C303.26 271.86 302.07 274.12 302.07 276.07 302.07 278.02 303.26 278.92 304.72 278.07 306.18 277.23 307.37 274.96 307.37 273.01 307.37 271.06 306.18 270.17 304.72 271.01Z" fill="#474747"/><g><path d="M94.46 97C84.97 91.98 75.38 90.75 67.27 99.24 64.98 101.64 63.22 104.52 61.23 107.21L193.29 183.51 193.29 172.06C188.17 163.72 181.95 153.77 176.4 145.42 157.42 133.67 140.64 125.69 123.17 114.79 113.68 108.87 104.34 102.23 94.46 97Z" fill="#E5D4D3"/><path d="M163.43 128.26C155.11 121.74 124.91 103.34 100.53 89.77 86.74 82.1 80.14 78.17 73.85 79.14 68.34 80 66 82.79 62.1 87.73 56.78 94.48 51.96 101.84 51.96 101.84L61.23 107.2C63.22 104.52 64.98 101.63 67.27 99.23 75.38 90.74 84.97 91.97 94.46 96.99 104.34 102.22 113.68 108.86 123.17 114.77 140.64 125.67 157.42 133.65 176.4 145.4 170.79 136.98 165.87 130.17 163.43 128.26Z" fill="#D8C6C5"/></g><path d="M297.53 141.18C290.36 146.09 275.96 155.83 261.98 164.59 260.68 165.4 261.31 167.26 262.73 167.35 276.67 168.23 289.65 163.75 300.59 155.68 310.55 148.33 297.55 141.19 297.53 141.18Z" fill="#FFFFFF" opacity="0.5"/><path d="M218.93 179.42C218.76 179.34 218.53 179.59 218.71 179.7 228.77 185.79 240.83 196.01 251.31 204.98 260.69 213.01 269.38 222.58 280.2 228.74 278.63 224.22 242.88 190.88 218.93 179.42Z" fill="#EF5F33"/><path d="M361.16 184.88C346.43 164.25 324.46 146.98 303.52 132.98 303.35 132.87 303.15 133.13 303.3 133.26 313.08 141.73 323.55 149.36 333.27 157.91 343.02 166.48 357.32 183.21 361.16 184.88Z" fill="#EF5F33"/><path d="M304.71 248.56C303.74 245.91 299.35 240.87 294.27 241.34 288.79 241.85 281.82 242.56 285.66 248.53 288.06 252.26 288.93 255.83 289.98 258.04 291.19 260.59 293.13 262.98 296.51 261.09 302.17 257.92 307.23 255.46 304.71 248.56Z" fill="#FFFFFF"/><path d="M372.84 192.83C371.07 194.37 373.88 202.25 375.91 207.26 377.94 212.27 379.15 212.34 381.83 210.92 384.51 209.5 383.09 203.56 380.41 199.14 377.73 194.73 375.21 190.78 372.84 192.83Z" fill="#FFFFFF"/><path d="M134.94 108.24C134.94 108.24 132.43 138.27 132.43 153.09 132.43 167.33 123.17 153.63 123.04 150.88 122.45 138.43 128.23 105.06 128.23 105.06L134.94 108.24Z" fill="#EF5F33"/><path d="M92.91 167.45C92.91 167.45 103.85 167.98 136.04 184.88 171.07 203.27 178.15 207.81 202.68 230.37 194.5 234.79 191.99 244.58 191.99 244.58 191.99 244.58 124.64 205.07 100.31 191.44 99.45 182.34 98.01 176.43 92.91 167.45Z" fill="#FC7E4C" opacity="0.5"/><path d="M22.06 100.46C22.06 100.46 24.68 102.55 27.84 104.38 29.04 105.08 29.45 107.64 29.17 110.72 28.74 115.47 27.97 121.44 27.77 123.75 27.45 127.3 23.31 124.83 20.91 123.59 19.64 119.81 20.47 105.12 22.06 100.46Z" fill="#E5D4D3"/><path d="M79.08 77.31C79.08 77.31 67.44 103.96 65.29 113.52 64.28 118.02 69.65 122.44 70.13 120.46 72.46 110.93 77.36 91.18 82.15 78.48 82.45 77.71 79.08 77.31 79.08 77.31Z" fill="#EF5F33"/><path d="M130.74 107.59C130.74 107.59 126.55 138.07 125.54 153.91 123.67 183.29 127.44 213.55 127.44 213.55 127.44 213.55 127.27 195.93 127.65 187.49 128.33 172.44 128.42 153.03 129.7 142.44 131.26 129.6 132.42 108.61 132.42 108.61L130.74 107.59Z" fill="#DB4123"/><path d="M139.14 157.21C136.21 156.08 134.3 155.73 133.77 157.46 133.02 159.91 136.49 161.69 137.74 162.34 140.58 163.83 144.16 166.48 145.56 163.56 146.97 160.6 141.51 158.13 139.14 157.21Z" fill="#333333"/><path d="M74.53 119.61C71.6 118.48 69.69 118.13 69.16 119.86 68.41 122.31 71.88 124.09 73.13 124.75 75.97 126.24 79.55 128.89 80.95 125.97 82.37 123.01 76.91 120.53 74.53 119.61Z" fill="#333333"/><path d="M176.15 33.31C176.07 32.32 173.84 30.43 173.5 30.32 168.66 28.41 163.9 30.29 159.74 32.82 156.08 35.05 151.14 38.04 148.13 41.78 146.75 43.49 145.95 45.2 149.65 45.19 153.16 45.19 171.2 39.18 174.46 37.15 176.38 35.96 176.72 34.51 176.15 33.31Z" fill="#FFFFFF" opacity="0.5"/><path d="M135.88 88.74C119.05 80.96 105.23 71.05 87.26 66.34 86.71 66.2 86.31 67.03 86.86 67.29 102.69 74.75 161.69 106.08 175.33 116.2 169.79 107.59 149.74 95.14 135.88 88.74Z" fill="#EF5F33"/><path d="M215.12 43.49C198.29 35.71 184.47 25.8 166.5 21.09 165.95 20.95 165.55 21.78 166.1 22.04 181.93 29.5 240.93 60.83 254.57 70.95 249.03 62.34 228.98 49.9 215.12 43.49Z" fill="#EF5F33"/><path d="M352.28 228.36C353.61 230.66 352.21 233.96 349.16 235.72 346.11 237.48 342.56 237.04 341.23 234.74 339.9 232.44 341.3 229.14 344.35 227.38 347.4 225.62 350.95 226.05 352.28 228.36Z" fill="#FFFFFF"/><g><path d="M189.71 186.47C189.71 186.47 198.64 188.26 200.53 187.13 202.42 186 202.29 182.4 199.84 181.71 197.4 181.01 192.11 181.71 192.11 181.71L189.71 186.47Z" fill="#333333"/><g><path d="M177.69 184.2C182.58 179.51 191.27 174.39 194.6 173.1 194.34 172.82 194.1 172.54 193.82 172.3 191.42 170.2 189.53 172.07 187.17 173.2 181.58 175.87 173.51 180.44 170.13 187.12 167.34 192.64 167.81 196.41 172.19 196.96 171.2 193.31 173.28 188.44 177.69 184.2Z" fill="#FF8E5C"/><path d="M188.08 192.51C196.39 188.58 198.35 182.99 197.39 178.41 196.96 176.34 195.91 174.51 194.6 173.09 191.26 174.38 182.58 179.5 177.69 184.19 173.27 188.43 171.19 193.3 172.19 196.95 175.36 197.36 180.55 196.08 188.08 192.51Z" fill="#FC7E4C"/></g></g><path d="M366.31 247.41 330.32 268.19 330.32 256.2 366.31 235.42Z" fill="#FFFFFF"/></g><path d="M51.42 53.73C46.15 49.03 39.77 45.45 33.91 41.54 27.31 37.13 20.8 32.49 13.95 28.48 12.87 27.85 12.07 29.39 13 30.11 18.94 34.68 25.27 38.74 31.46 42.96 37.57 47.12 43.6 52 50.24 55.27 51.17 55.73 52.3 54.51 51.42 53.73Z" fill="#FFFFFF"/><path d="M69.95 49.47C47.16 33.52 24.37 16.36 0.31 2.39 0.12 2.28-0.12 2.56 0.07 2.71 21.76 20.23 45.94 35.43 69.02 51.06 70.01 51.73 70.91 50.14 69.95 49.47Z" fill="#FFFFFF"/><path d="M83.42 38.03C66 23.91 47.48 9.82 27.22 0.03 26.9-0.13 26.65 0.3 26.94 0.51 45.22 13.67 63.97 25.68 81.4 40.04 82.81 41.2 84.84 39.19 83.42 38.03Z" fill="#FFFFFF"/></g></svg>