<svg width="69.9" height="90.53" viewBox="0 0 69.9 90.53" xmlns="http://www.w3.org/2000/svg" xmlns:xlink="http://www.w3.org/1999/xlink" xml:space="preserve" overflow="hidden"><defs></defs><g><g><g><g><g><g><path d="M14.49 57.7 14.68 76.23 16.31 76.22 16.11 57.7Z" fill="#828487"/></g><g><path d="M14.68 76.35C14.62 76.35 14.56 76.3 14.56 76.23L14.36 57.69C14.36 57.66 14.37 57.63 14.4 57.6 14.42 57.58 14.45 57.56 14.48 57.56L16.11 57.56C16.18 57.56 16.23 57.62 16.23 57.68L16.43 76.2C16.43 76.23 16.42 76.26 16.4 76.29 16.38 76.31 16.34 76.33 16.31 76.33L14.68 76.35 14.68 76.35ZM14.61 57.82 14.81 76.11 16.19 76.1 15.99 57.82 14.61 57.82Z" fill="#1D1D1B"/></g></g></g><g><g><g><rect x="14.67" y="74.54" width="1.63" height="1.69" fill="#48484A" transform="matrix(0.9999 -0.0104 0.0104 0.9999 -0.7818 0.1649)"/></g><g><path d="M14.68 76.35C14.62 76.35 14.56 76.3 14.56 76.23L14.54 74.54C14.54 74.51 14.55 74.48 14.57 74.45 14.59 74.43 14.63 74.41 14.66 74.41L16.28 74.39 16.28 74.39C16.35 74.39 16.4 74.44 16.4 74.51L16.42 76.2C16.42 76.23 16.41 76.26 16.39 76.29 16.37 76.31 16.33 76.33 16.3 76.33L14.68 76.35 14.68 76.35ZM14.79 74.67 14.8 76.11 16.18 76.1 16.17 74.66 14.79 74.67Z" fill="#1D1D1B"/></g></g></g><g><g><g><path d="M40.54 57.7 40.74 75.93 42.36 75.92 42.16 57.7Z" fill="#828487"/></g><g><path d="M40.74 76.05C40.71 76.05 40.68 76.04 40.66 76.01 40.63 75.99 40.62 75.96 40.62 75.92L40.42 57.68C40.42 57.65 40.43 57.62 40.46 57.59 40.48 57.57 40.51 57.55 40.55 57.55L42.17 57.55C42.24 57.55 42.3 57.61 42.3 57.67L42.5 75.89C42.5 75.96 42.45 76.01 42.38 76.01L40.74 76.05C40.74 76.05 40.74 76.05 40.74 76.05ZM40.67 57.82 40.86 75.81 42.24 75.8 42.05 57.82 40.67 57.82Z" fill="#1D1D1B"/></g></g></g><g><g><g><rect x="40.73" y="74.89" width="1.63" height="1.03" fill="#48484A" transform="matrix(1 -0.00948375 0.00948375 1 -0.7133 0.3974)"/></g><g><path d="M40.74 76.05C40.71 76.05 40.68 76.04 40.66 76.01 40.63 75.99 40.62 75.96 40.62 75.92L40.6 74.9C40.6 74.83 40.65 74.78 40.72 74.78L42.34 74.76C42.37 74.76 42.4 74.77 42.43 74.8 42.45 74.82 42.47 74.85 42.47 74.89L42.48 75.93C42.48 76 42.43 76.05 42.36 76.05L40.74 76.05C40.74 76.05 40.74 76.05 40.74 76.05ZM40.85 75.02 40.86 75.81 42.24 75.8 42.23 75 40.85 75.02Z" fill="#1D1D1B"/></g></g></g></g><g><g><g><g><path d="M16.56 52.81 16.76 71.35 18.38 71.33 18.19 52.81Z" fill="#828487"/></g><g><path d="M16.76 71.47C16.69 71.47 16.64 71.42 16.64 71.35L16.44 52.81C16.44 52.78 16.45 52.75 16.48 52.72 16.5 52.7 16.53 52.68 16.57 52.68L18.19 52.68C18.25 52.68 18.31 52.73 18.31 52.8L18.51 71.32C18.51 71.35 18.5 71.38 18.47 71.41 18.45 71.43 18.42 71.45 18.38 71.45L16.76 71.47 16.76 71.47ZM16.69 52.93 16.89 71.22 18.27 71.2 18.07 52.92 16.69 52.92Z" fill="#1D1D1B"/></g></g></g><g><g><g><rect x="16.75" y="69.65" width="1.62" height="1.69" fill="#48484A" transform="matrix(0.9999 -0.0104 0.0104 0.9999 -0.7351 0.1872)"/></g><g><path d="M16.76 71.47C16.69 71.47 16.64 71.42 16.64 71.35L16.62 69.66C16.62 69.63 16.63 69.59 16.66 69.58 16.68 69.55 16.71 69.54 16.75 69.54L18.37 69.52 18.37 69.52C18.44 69.52 18.49 69.58 18.49 69.64L18.51 71.33C18.51 71.36 18.5 71.39 18.47 71.42 18.45 71.44 18.42 71.46 18.38 71.46L16.76 71.47 16.76 71.47ZM16.87 69.79 16.89 71.23 18.27 71.21 18.25 69.77 16.87 69.79Z" fill="#1D1D1B"/></g></g></g><g><g><g><path d="M38.22 52.81 38.42 71.05 40.04 71.03 39.85 52.81Z" fill="#828487"/></g><g><path d="M38.42 71.17C38.39 71.17 38.36 71.16 38.34 71.13 38.32 71.11 38.3 71.08 38.3 71.04L38.1 52.81C38.1 52.78 38.11 52.75 38.13 52.72 38.15 52.7 38.18 52.68 38.22 52.68L39.85 52.68C39.92 52.68 39.97 52.73 39.97 52.8L40.17 71.02C40.17 71.09 40.12 71.14 40.05 71.14L38.42 71.17 38.42 71.17ZM38.35 52.93 38.54 70.92 39.92 70.9 39.73 52.93 38.35 52.93Z" fill="#1D1D1B"/></g></g></g><g><g><g><rect x="38.41" y="70" width="1.63" height="1.03" fill="#48484A" transform="matrix(0.9999 -0.0103 0.0103 0.9999 -0.7275 0.4096)"/></g><g><path d="M38.42 71.17C38.39 71.17 38.36 71.16 38.34 71.13 38.32 71.11 38.3 71.08 38.3 71.04L38.29 70C38.29 69.93 38.34 69.88 38.41 69.88L40.04 69.86C40.09 69.86 40.11 69.87 40.13 69.9 40.15 69.92 40.17 69.95 40.17 69.99L40.18 71.02C40.18 71.09 40.13 71.14 40.06 71.14L38.42 71.17 38.42 71.17ZM38.53 70.13 38.54 70.92 39.92 70.9 39.91 70.11 38.53 70.13Z" fill="#1D1D1B"/></g></g></g></g><g><g><g><rect x="18.4" y="35.37" width="1.43" height="14.57" fill="#636466"/></g><g><path d="M19.83 50.06 18.4 50.06C18.33 50.06 18.28 50.01 18.28 49.94L18.28 35.37C18.28 35.3 18.33 35.25 18.4 35.25L19.83 35.25C19.9 35.25 19.95 35.3 19.95 35.37L19.95 49.94C19.96 50.01 19.9 50.06 19.83 50.06ZM18.52 49.82 19.71 49.82 19.71 35.49 18.52 35.49 18.52 49.82Z" fill="#1D1D1B"/></g></g><g><g><rect x="38.37" y="35.37" width="1.43" height="14.57" fill="#636466"/></g><g><path d="M39.8 50.06 38.37 50.06C38.3 50.06 38.25 50.01 38.25 49.94L38.25 35.37C38.25 35.3 38.31 35.25 38.37 35.25L39.8 35.25C39.87 35.25 39.92 35.3 39.92 35.37L39.92 49.94C39.92 50.01 39.87 50.06 39.8 50.06ZM38.49 49.82 39.68 49.82 39.68 35.49 38.49 35.49 38.49 49.82Z" fill="#1D1D1B"/></g></g></g><g><g><path d="M43.62 56.63 41.01 50.86C41.01 50.86 40.64 49.69 39.85 49.74L31.18 49.74 25.66 49.74 17 49.74C16.21 49.69 15.83 50.86 15.83 50.86L13.32 56.63C13.32 56.63 12.65 58.88 14.45 59.22L27.42 59.22 29.41 59.22 42.38 59.22C44.2 58.88 43.62 56.63 43.62 56.63Z" fill="#BE805C"/></g><g><path d="M42.39 59.35 14.45 59.35C13.93 59.25 13.57 59.02 13.34 58.64 12.84 57.82 13.19 56.65 13.2 56.6L15.71 50.82C15.72 50.78 16.1 49.63 16.94 49.63 16.96 49.63 16.98 49.63 17 49.63L39.85 49.63C39.86 49.63 39.88 49.63 39.9 49.63 40.74 49.63 41.12 50.79 41.13 50.84L43.73 56.59C43.75 56.66 44.04 57.83 43.52 58.64 43.28 59.02 42.91 59.26 42.41 59.35 42.4 59.35 42.4 59.35 42.39 59.35ZM13.43 56.68C13.43 56.68 13.11 57.79 13.55 58.51 13.74 58.82 14.05 59.02 14.47 59.1L42.38 59.1C42.8 59.02 43.12 58.81 43.32 58.5 43.78 57.77 43.51 56.67 43.51 56.66L40.91 50.92C40.9 50.9 40.57 49.87 39.91 49.87L39.87 49.87 16.99 49.87 16.94 49.87C16.28 49.87 15.94 50.9 15.94 50.91L13.43 56.68 13.43 56.68Z" fill="#1D1D1B"/></g></g><g><g><path d="M43.44 56.13 41.05 49.85C41.05 49.85 40.67 48.68 39.88 48.73L31.21 48.73 25.69 48.73 17.02 48.73C16.23 48.68 15.85 49.85 15.85 49.85L13.46 56.13C13.46 56.13 12.67 57.87 14.48 58.21L27.45 58.21 29.44 58.21 42.41 58.21C44.23 57.87 43.44 56.13 43.44 56.13Z" fill="#BE805C"/></g><g><path d="M42.42 58.34 14.48 58.34C13.9 58.23 13.52 57.98 13.32 57.6 12.98 56.94 13.34 56.12 13.36 56.08L15.75 49.81C15.76 49.77 16.14 48.61 16.98 48.61 17 48.61 17.02 48.61 17.04 48.61L39.88 48.61C39.89 48.61 39.91 48.61 39.93 48.61 40.76 48.61 41.14 49.77 41.16 49.82L43.55 56.09C43.56 56.12 43.93 56.94 43.58 57.6 43.38 57.98 43 58.23 42.44 58.34 42.44 58.34 42.43 58.34 42.42 58.34ZM16.97 48.86C16.31 48.86 15.97 49.89 15.97 49.9L13.57 56.18C13.56 56.19 13.24 56.93 13.53 57.49 13.69 57.8 14.02 58 14.5 58.1L42.41 58.1C42.88 58.01 43.2 57.8 43.37 57.5 43.66 56.94 43.33 56.2 43.33 56.19L40.93 49.9C40.92 49.88 40.59 48.86 39.93 48.86L39.89 48.86 17.02 48.86 16.97 48.86Z" fill="#1D1D1B"/></g></g><g><g><g><rect x="16.16" y="22.04" width="25.89" height="13.35" fill="#BE6F42"/></g><g><path d="M42.04 35.51 16.16 35.51C16.09 35.51 16.04 35.46 16.04 35.39L16.04 22.04C16.04 21.97 16.09 21.92 16.16 21.92L42.05 21.92C42.12 21.92 42.17 21.98 42.17 22.04L42.17 35.39C42.17 35.46 42.11 35.51 42.04 35.51ZM16.28 35.27 41.93 35.27 41.93 22.16 16.28 22.16 16.28 35.27Z" fill="#1D1D1B"/></g></g><g><g><rect x="16.16" y="22.93" width="25.89" height="13.35" fill="#BE805C"/></g><g><path d="M42.04 36.41 16.16 36.41C16.09 36.41 16.04 36.36 16.04 36.29L16.04 22.93C16.04 22.86 16.09 22.81 16.16 22.81L42.05 22.81C42.12 22.81 42.17 22.87 42.17 22.93L42.17 36.28C42.17 36.35 42.11 36.41 42.04 36.41ZM16.28 36.16 41.93 36.16 41.93 23.05 16.28 23.05 16.28 36.16Z" fill="#1D1D1B"/></g></g><g><g><g><path d="M19.69 33.11C19.69 33.34 19.51 33.52 19.28 33.52 19.06 33.52 18.87 33.34 18.87 33.11 18.87 32.88 19.05 32.7 19.28 32.7 19.51 32.7 19.69 32.88 19.69 33.11Z" fill="#636466"/></g><g><path d="M19.28 33.64C18.99 33.64 18.75 33.4 18.75 33.11 18.75 32.82 18.99 32.58 19.28 32.58 19.57 32.58 19.81 32.82 19.81 33.11 19.81 33.4 19.58 33.64 19.28 33.64ZM19.28 32.83C19.12 32.83 19 32.96 19 33.12 19 33.28 19.13 33.4 19.28 33.4 19.44 33.4 19.57 33.27 19.57 33.12 19.57 32.97 19.44 32.83 19.28 32.83Z" fill="#1D1D1B"/></g></g><g><g><path d="M19.69 26.76C19.69 26.98 19.51 27.17 19.28 27.17 19.06 27.17 18.87 26.99 18.87 26.76 18.87 26.53 19.05 26.35 19.28 26.35 19.51 26.35 19.69 26.53 19.69 26.76Z" fill="#636466"/></g><g><path d="M19.28 27.29C18.99 27.29 18.75 27.05 18.75 26.76 18.75 26.47 18.99 26.23 19.28 26.23 19.57 26.23 19.81 26.47 19.81 26.76 19.81 27.05 19.58 27.29 19.28 27.29ZM19.28 26.47C19.12 26.47 19 26.6 19 26.76 19 26.92 19.13 27.05 19.28 27.05 19.44 27.05 19.57 26.92 19.57 26.76 19.57 26.6 19.44 26.47 19.28 26.47Z" fill="#1D1D1B"/></g></g></g><g><g><g><path d="M39.23 33.11C39.23 33.34 39.05 33.52 38.82 33.52 38.6 33.52 38.41 33.34 38.41 33.11 38.41 32.88 38.59 32.7 38.82 32.7 39.05 32.7 39.23 32.88 39.23 33.11Z" fill="#636466"/></g><g><path d="M38.82 33.64C38.53 33.64 38.29 33.4 38.29 33.11 38.29 32.82 38.53 32.58 38.82 32.58 39.11 32.58 39.35 32.82 39.35 33.11 39.35 33.4 39.12 33.64 38.82 33.64ZM38.82 32.83C38.66 32.83 38.53 32.96 38.53 33.12 38.53 33.28 38.66 33.4 38.82 33.4 38.98 33.4 39.1 33.27 39.1 33.12 39.1 32.97 38.98 32.83 38.82 32.83Z" fill="#1D1D1B"/></g></g><g><g><path d="M39.23 26.76C39.23 26.98 39.05 27.17 38.82 27.17 38.6 27.17 38.41 26.99 38.41 26.76 38.41 26.53 38.59 26.35 38.82 26.35 39.05 26.35 39.23 26.53 39.23 26.76Z" fill="#636466"/></g><g><path d="M38.82 27.29C38.53 27.29 38.29 27.05 38.29 26.76 38.29 26.47 38.53 26.23 38.82 26.23 39.11 26.23 39.35 26.47 39.35 26.76 39.35 27.05 39.12 27.29 38.82 27.29ZM38.82 26.47C38.66 26.47 38.53 26.6 38.53 26.76 38.53 26.92 38.66 27.05 38.82 27.05 38.98 27.05 39.1 26.92 39.1 26.76 39.11 26.6 38.98 26.47 38.82 26.47Z" fill="#1D1D1B"/></g></g></g></g></g><g><g><g><g><g><path d="M34.81 54.58 37.14 55.19C37.14 55.19 35.51 57.43 31.79 58.69 31.79 58.69 28.91 59.3 27.77 59 27.77 59 28.98 54.06 34.81 54.58Z" fill="#005794"/></g><g><path d="M28.62 59.21C28.26 59.21 27.97 59.18 27.75 59.12 27.68 59.1 27.64 59.04 27.66 58.97 27.67 58.93 27.95 57.82 28.87 56.69 29.72 55.65 31.3 54.42 33.98 54.42 34.26 54.42 34.54 54.43 34.83 54.46L37.17 55.07C37.21 55.08 37.24 55.11 37.26 55.15 37.27 55.19 37.27 55.23 37.24 55.26 37.22 55.28 35.55 57.54 31.83 58.81 31.8 58.81 29.94 59.21 28.62 59.21ZM27.93 58.91C28.12 58.95 28.35 58.96 28.62 58.96 29.91 58.96 31.75 58.57 31.77 58.57 34.87 57.52 36.5 55.77 36.93 55.26L34.79 54.7C34.53 54.68 34.25 54.67 33.98 54.67 31.9 54.67 30.25 55.4 29.06 56.85 28.34 57.72 28.03 58.6 27.93 58.91Z" fill="#1D1D1B"/></g></g><g><g><path d="M43.91 50.21 45.14 50.42C45.14 50.42 43.53 53.66 38.3 54.4 38.3 54.39 39.85 50.45 43.91 50.21Z" fill="#005794"/></g><g><path d="M38.3 54.52C38.26 54.52 38.23 54.5 38.2 54.47 38.17 54.44 38.16 54.39 38.18 54.35 38.2 54.31 39.81 50.33 43.9 50.09L45.15 50.3C45.19 50.31 45.22 50.33 45.24 50.36 45.26 50.4 45.26 50.44 45.24 50.47 45.22 50.5 44.81 51.31 43.75 52.22 42.77 53.06 41.04 54.13 38.31 54.51 38.31 54.52 38.31 54.52 38.3 54.52ZM43.89 50.33C40.5 50.53 38.88 53.45 38.5 54.24 42.81 53.56 44.56 51.13 44.94 50.5L43.89 50.33Z" fill="#1D1D1B"/></g></g><g><g><path d="M44.08 68.74C44.07 68.74 44.06 68.74 44.05 68.74 43.92 68.72 43.82 68.6 43.84 68.47 43.98 67.29 44.14 66.12 44.29 64.94 44.54 63.06 44.8 61.12 44.98 59.21 45.21 56.91 45.44 54.53 43.22 53.02 41.98 52.17 40.42 51.36 38.69 50.65 38.56 50.6 38.51 50.46 38.56 50.33 38.61 50.21 38.75 50.15 38.88 50.2 40.64 50.92 42.24 51.75 43.5 52.62 45.96 54.3 45.7 56.94 45.47 59.26 45.28 61.18 45.02 63.13 44.77 65.01 44.61 66.18 44.46 67.36 44.32 68.54 44.31 68.65 44.2 68.74 44.08 68.74Z" fill="#1D1D1B"/></g><g><g><g><g><path d="M42.33 68.6C42.34 68.59 42.35 68.57 42.36 68.56 42.87 67.86 43.79 67.48 44.55 68.03 45.6 68.79 47.83 71.56 48 73.06 48.16 74.49 47.09 74.64 46.14 74.12 44.88 73.42 41.05 70.38 42.33 68.6Z" fill="#E5331F"/></g><g><path d="M47.09 74.52C46.78 74.52 46.43 74.42 46.08 74.23 45.04 73.66 42.39 71.57 42 69.84 41.89 69.34 41.96 68.9 42.23 68.53 42.24 68.52 42.25 68.5 42.26 68.49 42.64 67.96 43.21 67.65 43.76 67.65 44.07 67.65 44.36 67.74 44.62 67.94 45.7 68.73 47.95 71.53 48.12 73.05 48.18 73.56 48.09 73.95 47.86 74.21 47.68 74.41 47.42 74.52 47.09 74.52ZM43.76 67.89C43.29 67.89 42.79 68.17 42.46 68.63L42.43 68.66C42.2 68.97 42.14 69.35 42.24 69.78 42.61 71.44 45.19 73.45 46.2 74.01 46.51 74.18 46.82 74.27 47.09 74.27 47.26 74.27 47.51 74.23 47.68 74.04 47.86 73.84 47.93 73.5 47.88 73.07 47.72 71.63 45.5 68.87 44.48 68.13 44.26 67.97 44.02 67.89 43.76 67.89Z" fill="#1D1D1B"/></g></g><g><g><path d="M48 73.06C47.93 72.43 47.5 71.58 46.94 70.75 46.24 70.56 45.48 70.69 44.83 71.15 44.48 71.4 44.03 71.79 43.73 72.23 44.6 73.1 45.6 73.82 46.14 74.11 47.09 74.65 48.17 74.49 48 73.06Z" fill="#FCE3D0"/></g><g><path d="M47.09 74.52C46.78 74.52 46.43 74.42 46.08 74.23 45.52 73.92 44.52 73.2 43.65 72.33 43.61 72.29 43.6 72.22 43.63 72.17 44 71.64 44.54 71.22 44.76 71.06 45.42 70.59 46.22 70.44 46.97 70.64 47 70.65 47.03 70.67 47.04 70.69 47.49 71.36 48.03 72.31 48.12 73.05 48.18 73.56 48.09 73.95 47.86 74.21 47.68 74.41 47.42 74.52 47.09 74.52ZM43.9 72.22C44.74 73.04 45.68 73.72 46.2 74.01 46.51 74.18 46.82 74.27 47.09 74.27 47.26 74.27 47.51 74.23 47.68 74.04 47.86 73.84 47.93 73.51 47.88 73.07 47.82 72.53 47.47 71.77 46.87 70.86 46.2 70.69 45.49 70.84 44.91 71.25 44.71 71.4 44.24 71.76 43.9 72.22Z" fill="#1D1D1B"/></g></g><g><g><path d="M44.53 72.03C45.27 72.76 46.56 74.02 47.78 74.13 47.43 74.51 46.76 74.46 46.15 74.12 44.89 73.42 41.09 70.4 42.32 68.62 42.57 69.93 43.64 71.15 44.53 72.03Z" fill="#FCE3D0"/></g><g><path d="M47.09 74.52C46.78 74.52 46.42 74.41 46.08 74.23 45.05 73.66 42.41 71.59 42 69.86 41.88 69.36 41.96 68.92 42.21 68.55 42.24 68.51 42.29 68.49 42.34 68.5 42.39 68.51 42.43 68.55 42.43 68.6 42.68 69.92 43.79 71.14 44.6 71.95 45.29 72.63 46.58 73.9 47.77 74.01 47.82 74.01 47.86 74.05 47.87 74.09 47.89 74.14 47.88 74.18 47.85 74.22 47.68 74.41 47.42 74.52 47.09 74.52ZM42.27 68.97C42.18 69.22 42.17 69.5 42.24 69.81 42.63 71.46 45.19 73.46 46.2 74.02 46.66 74.27 47.14 74.35 47.46 74.21 46.28 73.94 45.1 72.77 44.44 72.13 43.67 71.36 42.64 70.23 42.27 68.97Z" fill="#1D1D1B"/></g></g></g></g></g><g><g><path d="M34.39 71.91C34.38 71.91 34.37 71.91 34.36 71.91 34.23 71.9 34.13 71.77 34.15 71.64 34.29 70.46 34.45 69.29 34.6 68.11 34.85 66.23 35.11 64.29 35.29 62.38 35.52 60.08 35.75 57.7 33.53 56.19 32.29 55.35 30.73 54.53 29 53.82 28.87 53.77 28.82 53.63 28.87 53.5 28.92 53.38 29.06 53.32 29.19 53.37 30.95 54.08 32.54 54.92 33.81 55.78 36.27 57.46 36.01 60.1 35.78 62.42 35.59 64.34 35.33 66.28 35.08 68.17 34.92 69.35 34.77 70.52 34.63 71.7 34.62 71.82 34.51 71.91 34.39 71.91Z" fill="#1D1D1B"/></g><g><g><g><g><path d="M32.64 71.78C32.65 71.77 32.66 71.75 32.67 71.74 33.18 71.04 34.1 70.66 34.86 71.21 35.91 71.97 38.15 74.74 38.31 76.24 38.47 77.67 37.4 77.82 36.45 77.3 35.19 76.6 31.36 73.55 32.64 71.78Z" fill="#E5331F"/></g><g><path d="M37.4 77.69C37.09 77.69 36.74 77.59 36.39 77.4 35.35 76.82 32.7 74.75 32.31 73.01 32.2 72.51 32.27 72.07 32.54 71.7 32.55 71.69 32.56 71.67 32.57 71.66 32.95 71.13 33.51 70.82 34.07 70.82 34.38 70.82 34.67 70.92 34.93 71.11 36.01 71.9 38.26 74.7 38.43 76.22 38.49 76.73 38.4 77.12 38.17 77.38 37.99 77.59 37.73 77.69 37.4 77.69ZM34.07 71.07C33.6 71.07 33.1 71.35 32.77 71.81L32.75 71.84C32.52 72.15 32.46 72.53 32.56 72.96 32.93 74.62 35.51 76.63 36.52 77.19 36.83 77.36 37.14 77.45 37.41 77.45 37.59 77.45 37.83 77.41 38 77.22 38.18 77.02 38.25 76.68 38.2 76.25 38.04 74.81 35.82 72.05 34.8 71.31 34.57 71.15 34.33 71.07 34.07 71.07Z" fill="#1D1D1B"/></g></g><g><g><path d="M38.32 76.24C38.25 75.61 37.82 74.77 37.26 73.93 36.56 73.74 35.8 73.87 35.15 74.33 34.8 74.58 34.35 74.97 34.05 75.41 34.93 76.27 35.92 77 36.46 77.29 37.4 77.82 38.48 77.67 38.32 76.24Z" fill="#FCE3D0"/></g><g><path d="M37.4 77.69C37.09 77.69 36.74 77.59 36.39 77.4 35.83 77.09 34.83 76.37 33.96 75.5 33.92 75.46 33.91 75.39 33.95 75.34 34.32 74.81 34.86 74.39 35.08 74.23 35.73 73.76 36.54 73.61 37.29 73.81 37.32 73.82 37.34 73.84 37.36 73.86 37.81 74.53 38.36 75.48 38.44 76.22 38.5 76.73 38.41 77.12 38.18 77.38 37.99 77.59 37.73 77.69 37.4 77.69ZM34.21 75.4C35.05 76.22 35.99 76.9 36.51 77.19 36.82 77.36 37.13 77.45 37.4 77.45 37.58 77.45 37.82 77.41 37.99 77.22 38.17 77.02 38.24 76.68 38.19 76.25 38.13 75.71 37.78 74.95 37.18 74.04 36.51 73.87 35.8 74.01 35.22 74.43 35.03 74.57 34.55 74.94 34.21 75.4Z" fill="#1D1D1B"/></g></g><g><g><path d="M34.84 75.21C35.58 75.94 36.87 77.2 38.09 77.31 37.74 77.69 37.07 77.64 36.46 77.3 35.2 76.6 31.4 73.58 32.63 71.8 32.88 73.11 33.95 74.33 34.84 75.21Z" fill="#FCE3D0"/></g><g><path d="M37.4 77.69C37.09 77.69 36.73 77.59 36.39 77.4 35.36 76.83 32.72 74.76 32.31 73.03 32.19 72.53 32.27 72.09 32.52 71.72 32.55 71.68 32.6 71.66 32.65 71.67 32.7 71.68 32.73 71.72 32.75 71.77 33 73.09 34.11 74.31 34.92 75.12 35.61 75.8 36.9 77.07 38.09 77.18 38.14 77.18 38.18 77.22 38.19 77.26 38.21 77.31 38.2 77.35 38.17 77.39 37.99 77.59 37.73 77.69 37.4 77.69ZM32.59 72.14C32.5 72.39 32.49 72.67 32.56 72.98 32.94 74.63 35.51 76.64 36.52 77.19 36.98 77.44 37.46 77.52 37.78 77.38 36.59 77.11 35.41 75.94 34.76 75.3 33.98 74.53 32.95 73.4 32.59 72.14Z" fill="#1D1D1B"/></g></g></g></g></g><g><g><path d="M17.95 45.72C17.95 45.72 16.46 48.81 19.08 52.12 21.7 55.42 27.78 58.99 27.78 58.99 27.78 58.99 31.59 55.12 37.15 55.18L32.33 51.09 38.31 54.38C38.31 54.38 42.22 50.58 45.15 50.4 45.15 50.4 38.29 46.26 31.34 45.71L17.95 45.71Z" fill="#0080B0"/></g><g><path d="M27.77 59.12C27.75 59.12 27.73 59.12 27.71 59.1 27.65 59.07 21.58 55.48 18.98 52.2 17.6 50.46 17.36 48.78 17.41 47.68 17.45 46.48 17.82 45.7 17.84 45.67 17.86 45.63 17.9 45.6 17.95 45.6L31.34 45.6C38.25 46.14 45.14 50.27 45.21 50.31 45.26 50.34 45.28 50.39 45.27 50.44 45.26 50.49 45.21 50.53 45.16 50.53 42.31 50.7 38.44 54.44 38.4 54.48 38.36 54.52 38.3 54.53 38.25 54.5L33.33 51.79 37.2 55.07C37.24 55.09 37.27 55.13 37.27 55.18 37.27 55.25 37.22 55.3 37.15 55.3L37.14 55.3 37.01 55.3C31.64 55.3 27.9 59.04 27.86 59.08 27.84 59.11 27.81 59.12 27.77 59.12ZM18.03 45.85C17.84 46.32 16.85 49.12 19.17 52.05 21.58 55.1 27.03 58.42 27.75 58.85 28.28 58.34 31.84 55.15 36.8 55.07L32.23 51.2C32.18 51.16 32.17 51.09 32.21 51.04 32.25 50.99 32.31 50.97 32.37 51L38.27 54.25C38.79 53.76 42.04 50.75 44.75 50.34 43.31 49.53 37.32 46.33 31.32 45.85L18.03 45.85Z" fill="#1D1D1B"/></g></g><g opacity="0.6"><path d="M31.56 50.17C31.51 50.08 38.27 52.26 39.88 53.05 38.94 53.79 38.31 54.4 38.31 54.4L32.48 51.19C32.11 50.89 31.79 50.57 31.56 50.17Z" fill="#0087C1"/></g><g opacity="0.6"><path d="M17.95 45.72 31.34 45.72C31.84 45.76 32.35 45.82 32.84 45.89 32.57 46.44 32.19 46.93 31.54 47.38 30.91 47.82 30.25 48.22 29.56 48.55 27.64 49.49 25.66 50.09 23.53 50.32 23.33 50.34 23.09 50.54 23.18 50.77 24.23 53.32 27.02 55.03 29.25 56.45 29.6 56.67 29.96 56.88 30.32 57.09 28.71 58.04 27.77 58.99 27.77 58.99 27.77 58.99 21.69 55.42 19.07 52.12 16.46 48.82 17.95 45.72 17.95 45.72Z" fill="#0087C1"/></g><g><g><path d="M20.63 53.11C19.73 52.1 18.89 51.02 18.44 49.77 18.04 48.65 17.92 47.45 18.01 46.26 18.02 46.08 18.05 45.9 18.09 45.72L20.25 45.72C20.42 46.08 20.58 46.45 20.68 46.83 20.99 48.01 21.14 49.26 21.07 50.48 21.02 51.39 20.86 52.26 20.63 53.11Z" fill="#0080B0"/></g><g><path d="M20.63 53.23C20.6 53.23 20.56 53.22 20.54 53.19 19.72 52.27 18.81 51.15 18.33 49.81 17.94 48.71 17.79 47.51 17.9 46.26 17.91 46.1 17.94 45.92 17.98 45.71 17.99 45.65 18.04 45.61 18.1 45.61L20.26 45.61C20.31 45.61 20.35 45.64 20.37 45.68 20.51 45.98 20.69 46.38 20.81 46.81 21.14 48.05 21.28 49.32 21.2 50.5 21.15 51.37 21 52.23 20.75 53.15 20.74 53.19 20.7 53.23 20.66 53.24 20.65 53.23 20.64 53.23 20.63 53.23ZM18.2 45.85C18.17 46.01 18.15 46.15 18.14 46.28 18.04 47.51 18.18 48.67 18.56 49.74 19 50.96 19.8 52 20.57 52.87 20.78 52.05 20.9 51.27 20.95 50.49 21.02 49.34 20.89 48.09 20.57 46.88 20.47 46.5 20.31 46.14 20.18 45.86L18.2 45.86Z" fill="#1D1D1B"/></g></g><g><g><path d="M23.81 47.76C21.79 47.65 19.48 47.27 17.67 46.22 17.05 43.34 17.32 39.37 17.58 36.94 18.57 27.46 22.95 22.21 27.37 23.74 28.45 24.11 30.35 26.71 31.21 28.24 31.21 28.24 34.14 35.21 32.38 45.84 30.16 47.39 26.27 47.89 23.81 47.76Z" fill="#E5331F"/></g><g><path d="M24.63 47.9C24.34 47.9 24.07 47.89 23.81 47.88 21.22 47.73 19.14 47.21 17.61 46.32 17.58 46.3 17.56 46.27 17.55 46.24 16.95 43.46 17.16 39.64 17.45 36.92 18.3 28.8 21.67 23.35 25.84 23.35 26.36 23.35 26.88 23.44 27.4 23.62 28.57 24.03 30.52 26.78 31.31 28.17 31.35 28.25 34.24 35.31 32.5 45.85 32.5 45.88 32.48 45.91 32.45 45.93 30.39 47.38 26.94 47.9 24.63 47.9ZM17.78 46.14C19.27 46.99 21.3 47.5 23.82 47.64 24.07 47.65 24.35 47.66 24.62 47.66 26.89 47.66 30.24 47.16 32.26 45.77 33.97 35.33 31.11 28.36 31.09 28.29 30.2 26.71 28.33 24.21 27.32 23.86 26.83 23.69 26.33 23.61 25.84 23.61 21.87 23.61 18.52 29.1 17.69 36.96 17.41 39.63 17.2 43.4 17.78 46.14Z" fill="#1D1D1B"/></g></g><g><path d="M17.58 36.94C18.57 27.46 22.95 22.21 27.37 23.74 28.2 24.03 29.5 25.61 30.45 27.02 30.47 27.62 30.45 28.21 30.39 28.8 30.12 31.45 27.68 32.82 25.34 31.72 25.37 31.73 23.5 39.15 23.17 41.83 22.94 43.75 22.65 45.72 22.7 47.66 20.98 47.48 19.16 47.08 17.68 46.21 17.05 43.33 17.32 39.37 17.58 36.94Z" fill="#CC0B19"/></g><g><g><path d="M25.52 24.93C27.21 25.3 28.49 24.87 30.26 25.39 30.04 26.49 30.02 28.35 29.64 29.39 29.56 29.61 29.45 29.8 29.31 29.97 28.65 30.79 27.42 30.96 26.65 29.88 26.23 29.29 26.04 28.62 25.84 27.93 25.72 27.51 25.6 25.52 25.52 24.93Z" fill="#F9D8B7"/></g><g><path d="M27.99 30.76C27.44 30.76 26.93 30.48 26.56 29.96 26.15 29.38 25.96 28.75 25.76 28.08L25.73 27.97C25.64 27.68 25.56 26.74 25.49 25.92 25.45 25.5 25.43 25.15 25.4 24.95 25.4 24.91 25.41 24.87 25.44 24.84 25.47 24.81 25.51 24.8 25.55 24.81 26.31 24.98 27 24.98 27.67 24.98 28.48 24.98 29.32 24.98 30.29 25.27 30.35 25.29 30.39 25.35 30.37 25.41 30.29 25.82 30.23 26.35 30.18 26.9 30.08 27.82 29.99 28.77 29.75 29.43 29.66 29.65 29.55 29.86 29.4 30.04 29.04 30.5 28.53 30.76 27.99 30.76ZM25.66 25.08C25.68 25.29 25.7 25.57 25.73 25.89 25.8 26.66 25.88 27.63 25.96 27.89L25.99 28C26.18 28.65 26.37 29.26 26.76 29.8 27.08 30.25 27.52 30.5 27.99 30.5 28.45 30.5 28.9 30.27 29.22 29.88 29.35 29.72 29.45 29.54 29.53 29.34 29.76 28.71 29.86 27.77 29.95 26.87 30 26.36 30.05 25.87 30.13 25.47 29.23 25.22 28.44 25.22 27.68 25.22 27.04 25.22 26.38 25.22 25.66 25.08Z" fill="#1D1D1B"/></g></g><g><g><path d="M32.44 33.78C32.44 33.74 32.43 33.7 32.42 33.65 32.19 31.62 31.76 29.62 30.97 27.76 31.66 27.97 32.19 28.39 32.75 28.82 34.35 30.05 36.7 33.66 37.4 34.78 36.28 36.24 34.64 37.31 32.87 38.03 32.8 36.61 32.63 35.19 32.44 33.78Z" fill="#CC0B19"/></g><g><path d="M32.86 38.15C32.84 38.15 32.81 38.14 32.79 38.13 32.76 38.11 32.74 38.07 32.74 38.03 32.68 36.51 32.49 35.03 32.31 33.79L32.29 33.67C32.03 31.39 31.56 29.47 30.85 27.81 30.83 27.77 30.84 27.72 30.87 27.68 30.9 27.64 30.95 27.63 31 27.64 31.68 27.85 32.19 28.25 32.74 28.67L32.82 28.73C34.44 29.97 36.81 33.63 37.5 34.72 37.53 34.76 37.53 34.82 37.49 34.86 36.45 36.22 34.87 37.35 32.91 38.14 32.9 38.15 32.88 38.15 32.86 38.15ZM31.18 27.97C31.84 29.59 32.29 31.45 32.54 33.64L32.56 33.76C32.73 34.96 32.91 36.38 32.98 37.85 34.8 37.09 36.26 36.03 37.24 34.78 36.5 33.62 34.21 30.12 32.66 28.93L32.58 28.87C32.13 28.52 31.7 28.18 31.18 27.97Z" fill="#1D1D1B"/></g></g><g><path d="M34.65 37.15C34.08 37.48 33.48 37.78 32.87 38.03 32.81 36.61 32.64 35.19 32.44 33.78 32.44 33.74 32.43 33.7 32.42 33.65 32.19 31.62 31.76 29.62 30.97 27.76 31.05 27.79 31.13 27.82 31.21 27.86 33.16 30.57 34.31 33.83 34.65 37.15Z" fill="#CC0B19"/></g><g><g><g><path d="M35.81 26.62 26.84 23.95C26.84 23.95 26.69 27 30.2 27.75 33.71 28.5 35.92 26.64 35.92 26.64L35.81 26.62Z" fill="#F08FBA"/></g><g><path d="M31.84 28.05C31.33 28.05 30.77 28 30.18 27.87 26.61 27.11 26.72 23.98 26.72 23.95 26.72 23.91 26.74 23.88 26.77 23.86 26.8 23.84 26.84 23.83 26.88 23.84L35.85 26.51C35.87 26.51 35.88 26.52 35.89 26.53 35.93 26.52 35.98 26.53 36.01 26.57 36.05 26.62 36.05 26.7 36 26.74 35.98 26.76 34.4 28.05 31.84 28.05ZM26.96 24.12C26.98 24.75 27.27 27 30.23 27.63 33.06 28.23 35.03 27.11 35.64 26.69L26.96 24.12Z" fill="#1D1D1B"/></g></g><g><g><path d="M31.68 27.92C31.22 27.91 30.72 27.86 30.2 27.75 26.69 27 26.84 23.95 26.84 23.95L29.05 24.61C29.65 25.05 31.33 26.66 31.68 27.92Z" fill="#ED6C85"/></g><g><path d="M31.68 28.05 31.68 28.05C31.16 28.04 30.66 27.98 30.17 27.88 26.6 27.12 26.71 23.99 26.71 23.96 26.71 23.92 26.73 23.89 26.76 23.87 26.79 23.85 26.83 23.84 26.87 23.85L29.08 24.51C29.09 24.51 29.11 24.52 29.12 24.53 29.76 24.99 31.42 26.61 31.79 27.87 31.8 27.89 31.81 27.91 31.81 27.94 31.81 27.99 31.76 28.05 31.68 28.05L31.68 28.05ZM26.96 24.12C26.98 24.75 27.27 27 30.23 27.63 30.65 27.72 31.08 27.77 31.52 27.79 31.1 26.62 29.61 25.17 29.01 24.72L26.96 24.12Z" fill="#1D1D1B"/></g></g><g><g><path d="M26.85 24.23C26.84 24.06 26.84 23.95 26.84 23.95L34.73 26.3C32.37 27.23 28.87 25.97 26.85 24.23Z" fill="#FFFFFF"/></g><g><path d="M32.92 26.74C30.91 26.74 28.44 25.77 26.77 24.33 26.75 24.31 26.73 24.28 26.73 24.25 26.71 24.07 26.72 23.96 26.72 23.96 26.72 23.92 26.74 23.89 26.77 23.87 26.8 23.85 26.84 23.84 26.88 23.85L34.77 26.19C34.82 26.2 34.85 26.25 34.86 26.3 34.86 26.35 34.83 26.4 34.78 26.42 34.23 26.63 33.6 26.74 32.92 26.74ZM26.96 24.17C28.59 25.56 30.98 26.49 32.91 26.49 33.42 26.49 33.89 26.43 34.32 26.31L26.96 24.12C26.96 24.14 26.96 24.15 26.96 24.17Z" fill="#1D1D1B"/></g></g></g><g><g><g><path d="M36.74 14.79C36.74 14.79 37.56 13.29 38.93 14.36 40.3 15.43 39.15 17.55 38.15 17.53 37.16 17.5 36.74 14.79 36.74 14.79Z" fill="#FBCA8F"/><path d="M36.68 14.8C36.68 14.78 36.68 14.77 36.69 14.75 36.7 14.74 37.26 13.73 38.22 13.92 38.47 13.97 38.72 14.1 38.98 14.29 39.58 14.76 39.78 15.51 39.53 16.29 39.28 17.04 38.69 17.6 38.16 17.59 38.12 17.59 38.09 17.59 38.05 17.58L38.05 17.58C37.09 17.4 36.7 14.91 36.68 14.8ZM36.82 14.8C36.86 15.07 37.25 17.28 38.08 17.45 38.11 17.46 38.14 17.46 38.16 17.46 38.63 17.47 39.18 16.94 39.4 16.26 39.51 15.91 39.69 15.04 38.9 14.42 38.66 14.23 38.42 14.12 38.19 14.07 37.39 13.91 36.9 14.65 36.82 14.8Z" fill="#D97E31"/></g></g><g><path d="M38.33 16.39C38.4 16.46 38.56 16.51 38.66 16.51 38.88 16.5 39.01 16.23 39.04 16.01 39.07 15.76 39.01 15.52 38.91 15.3 38.76 14.95 38.47 14.64 38.13 14.53 37.91 14.46 37.56 14.48 37.45 14.78 37.37 15.01 37.42 15.14 37.56 15.28 37.67 15.39 37.75 15.38 37.88 15.38 38.13 15.39 38.13 15.61 38.12 15.82 38.11 16.06 38.17 16.23 38.33 16.39Z" fill="#D46428"/><path d="M38.39 15.28C38.49 15.45 38.56 15.6 38.59 15.81 38.63 16.04 38.53 16.34 38.31 16.38 38.17 16.23 38.1 16.06 38.11 15.83 38.12 15.62 38.13 15.4 37.87 15.39 37.74 15.39 37.66 15.4 37.55 15.29 37.47 15.21 37.42 15.13 37.4 15.03 37.42 14.95 37.46 14.87 37.59 14.86 37.75 14.84 38.2 14.94 38.39 15.28Z" fill="#DA8E28" opacity="0.5"/></g><g><g><path d="M18.43 19.54C18.47 20.65 18.92 21.4 18.92 21.4 18.16 21.35 17.45 19.74 17.45 19.74 17.45 19.74 17.37 19.73 17.25 19.7L17.25 19.7C17.25 19.7 17.72 19.78 18.43 19.54Z" fill="#512B11"/><path d="M17.41 19.81C17.38 19.8 17.31 19.79 17.24 19.77 17.22 19.77 17.2 19.74 17.19 19.71 17.19 19.68 17.21 19.65 17.23 19.64 17.24 19.63 17.26 19.63 17.27 19.63 17.28 19.63 17.73 19.71 18.42 19.47 18.44 19.46 18.46 19.47 18.48 19.48 18.5 19.49 18.5 19.51 18.51 19.53 18.54 20.61 18.99 21.35 18.99 21.36 19 21.38 19.01 21.41 18.99 21.44 18.98 21.46 18.95 21.48 18.93 21.48 18.91 21.48 18.88 21.47 18.85 21.47 18.14 21.33 17.52 20.04 17.41 19.81ZM17.55 19.78C17.69 20.08 18.22 21.11 18.8 21.3 18.67 21.04 18.42 20.44 18.38 19.63 18.03 19.74 17.74 19.78 17.55 19.78Z" fill="#462A1E"/></g><path d="M18.43 19.54C18.47 20.65 18.92 21.4 18.92 21.4 18.16 21.35 17.45 19.74 17.45 19.74 17.45 19.74 17.37 19.73 17.25 19.7L17.25 19.7C17.25 19.7 17.72 19.78 18.43 19.54Z" fill="#512B11" opacity="0.5"/><g><path d="M15.96 16.89C16.19 15.5 17.91 14.91 18.45 15.87 19 16.85 19.35 16.52 19.35 16.52 19.35 16.52 19.59 12.93 20.91 10.77 20.56 12.25 20.77 13.18 21.04 12.48 21.65 10.68 22.23 9.76 24.07 7.36 23.6 8.5 23.98 8.95 25.34 6.76 25.6 7.99 25.79 8.85 25.89 6.51 27.75 8.4 28.64 8.65 27.71 6.77 31.56 8.86 31.29 7.74 28.94 5.69 32.31 5.66 36.12 9.08 36.46 11.24 36.8 13.4 37.18 14.48 37.18 14.48 37.57 15.28 38.07 15.98 38.54 16.72 39.12 17.64 39.23 18.77 39.04 19.88 38.93 20.5 38.74 21.14 38.52 21.72 38.06 22.87 37.23 23.96 36.27 24.65 33.84 26.39 30.92 27.38 28.09 27.06 26 26.83 23.7 26.09 21.94 24.87 20.69 24 19.75 22.74 18.94 21.4 18.94 21.4 18.48 20.65 18.45 19.54 17.73 19.78 17.27 19.7 17.27 19.7 16.77 19.57 15.6 19.04 15.96 16.89Z" fill="#FBCA8F"/><path d="M21.89 24.94C20.81 24.19 19.88 23.11 18.87 21.45 18.85 21.42 18.43 20.71 18.37 19.64 17.8 19.82 17.4 19.8 17.24 19.78 17.24 19.78 17.23 19.78 17.23 19.78 16.71 19.64 15.52 19.09 15.89 16.89 15.97 16.42 16.22 16 16.59 15.71 16.97 15.41 17.43 15.28 17.83 15.36 18.12 15.42 18.35 15.58 18.49 15.84 18.92 16.61 19.19 16.53 19.27 16.49 19.3 16.09 19.6 12.77 20.84 10.74 20.86 10.71 20.89 10.7 20.92 10.71 20.95 10.72 20.96 10.76 20.96 10.79 20.69 11.9 20.77 12.61 20.86 12.65 20.86 12.65 20.91 12.63 20.97 12.46 21.58 10.64 22.17 9.73 24.01 7.32 24.03 7.29 24.07 7.28 24.09 7.3 24.12 7.32 24.13 7.36 24.11 7.39 23.92 7.85 23.9 8.12 23.94 8.21 23.95 8.23 23.96 8.24 23.98 8.24 24.01 8.25 24.32 8.26 25.27 6.72 25.29 6.7 25.31 6.68 25.34 6.69 25.36 6.7 25.39 6.72 25.39 6.74 25.49 7.2 25.61 7.76 25.68 7.89 25.71 7.8 25.77 7.51 25.81 6.51 25.81 6.48 25.83 6.46 25.85 6.44 25.87 6.43 25.9 6.43 25.92 6.45 26.81 7.36 27.51 7.91 27.84 7.98 27.93 8 27.97 7.99 28 7.96 28.03 7.91 28.1 7.7 27.66 6.81 27.64 6.78 27.65 6.75 27.67 6.72 27.69 6.7 27.72 6.69 27.75 6.71 28.89 7.32 29.74 7.7 30.22 7.8 30.54 7.86 30.59 7.79 30.61 7.76 30.67 7.62 30.38 7.04 28.92 5.75 28.9 5.73 28.89 5.7 28.9 5.67 28.91 5.64 28.94 5.62 28.96 5.62 29.33 5.62 29.72 5.65 30.11 5.73 33.21 6.34 36.24 9.26 36.55 11.22 36.89 13.34 37.26 14.44 37.26 14.44 37.54 15.03 37.9 15.57 38.24 16.1 38.37 16.29 38.49 16.48 38.61 16.67 39.15 17.53 39.33 18.65 39.12 19.89 39.02 20.48 38.84 21.12 38.59 21.74 38.13 22.91 37.28 24.02 36.32 24.71 33.71 26.58 30.79 27.44 28.09 27.14 27.69 27.09 27.29 27.03 26.89 26.95 25 26.58 23.24 25.87 21.89 24.94ZM29.13 5.77C29.86 6.42 30.88 7.42 30.71 7.82 30.65 7.96 30.48 8 30.18 7.94 29.71 7.85 28.93 7.51 27.87 6.94 28.14 7.52 28.21 7.88 28.1 8.04 28.06 8.1 27.99 8.16 27.83 8.13 27.48 8.06 26.82 7.54 25.95 6.67 25.89 7.81 25.82 7.97 25.76 8.03 25.74 8.05 25.71 8.06 25.68 8.05 25.56 8.03 25.49 7.74 25.31 6.93 24.92 7.55 24.29 8.44 23.97 8.38 23.92 8.37 23.87 8.33 23.84 8.28 23.79 8.17 23.8 7.98 23.87 7.73 22.22 9.89 21.67 10.8 21.1 12.51 21.07 12.59 20.98 12.82 20.84 12.79 20.8 12.78 20.77 12.75 20.74 12.71 20.64 12.52 20.61 11.94 20.75 11.18 19.63 13.31 19.4 16.5 19.4 16.53 19.4 16.55 19.39 16.57 19.38 16.58 19.37 16.59 19.27 16.68 19.1 16.64 18.87 16.59 18.63 16.35 18.38 15.91 18.25 15.69 18.05 15.54 17.8 15.49 17.44 15.42 17.02 15.54 16.66 15.82 16.32 16.09 16.08 16.47 16.01 16.9 15.66 18.97 16.76 19.5 17.25 19.63 17.25 19.63 17.25 19.63 17.26 19.63 17.41 19.65 17.82 19.67 18.4 19.47 18.42 19.46 18.44 19.47 18.46 19.48 18.48 19.49 18.48 19.51 18.49 19.53 18.52 20.61 18.97 21.35 18.97 21.36 19.97 23 20.89 24.07 21.96 24.81 23.29 25.74 25.03 26.44 26.88 26.81 27.28 26.89 27.68 26.95 28.08 27 30.75 27.3 33.64 26.44 36.22 24.6 37.16 23.93 37.99 22.84 38.44 21.7 38.68 21.09 38.86 20.46 38.96 19.88 39.16 18.67 38.99 17.6 38.47 16.77 38.35 16.58 38.22 16.39 38.1 16.2 37.75 15.67 37.4 15.12 37.1 14.52 37.1 14.51 36.72 13.41 36.38 11.27 36.23 10.34 35.43 9.16 34.23 8.1 32.95 6.97 31.42 6.17 30.04 5.89 29.75 5.81 29.44 5.78 29.13 5.77Z" fill="#D97E31"/></g><path d="M16.02 18.54C16.3 19.35 16.92 19.62 17.25 19.7 17.25 19.7 17.72 19.78 18.43 19.54 18.47 20.65 18.92 21.4 18.92 21.4 19.74 22.74 20.68 24 21.92 24.87 23.68 26.09 25.97 26.83 28.07 27.06 30.9 27.38 33.82 26.39 36.25 24.65 37.21 23.96 38.04 22.87 38.5 21.72 38.73 21.14 38.92 20.5 39.02 19.88 39.21 18.76 39.1 17.63 38.52 16.72 38.05 15.98 37.55 15.28 37.16 14.48 37.16 14.48 36.79 13.4 36.44 11.24 36.1 9.08 32.29 5.66 28.92 5.69 31.27 7.75 31.54 8.87 27.69 6.77 28.62 8.65 27.73 8.4 25.87 6.51 25.77 8.84 25.58 7.99 25.32 6.76 23.96 8.95 23.58 8.5 24.05 7.36 22.21 9.76 21.62 10.68 21.02 12.48 20.75 13.18 20.53 12.25 20.89 10.77 19.56 12.93 19.33 16.52 19.33 16.52 19.33 16.52 18.98 16.84 18.43 15.87 18.12 15.32 17.43 15.28 16.85 15.61 16.97 15.6 17.1 15.61 17.23 15.65 18.11 15.92 18.44 16.87 18.43 17.82 18.42 18.94 17.52 19.6 16.62 19.13 16.39 18.99 16.19 18.79 16.02 18.54ZM21.23 14.08C21.27 13.97 21.39 14.08 21.39 14.15 21.42 14.86 21.53 15.63 21.86 16.23 21.86 13.55 22.69 10.9 24.31 8.8 24.37 8.72 24.45 8.83 24.46 8.89 24.51 9.25 24.52 9.61 24.56 9.96 24.73 9.45 24.77 8.9 25.11 8.46 25.14 8.41 25.2 8.44 25.23 8.47 25.78 9.2 25.75 10.22 26.13 11.04 26.47 10.37 26.25 9.47 26.36 8.75 26.39 8.51 26.56 7.88 26.88 8.15 27.28 8.49 27.57 8.96 27.94 9.33 28.07 9.45 28.2 9.56 28.36 9.64 28.76 9.84 28.7 9.11 28.69 8.95 28.67 8.66 28.62 8.38 28.65 8.09 28.66 8.05 28.69 8.02 28.73 8.02 29.26 8.03 29.69 8.42 30.08 8.76 30.52 9.13 30.94 9.51 31.39 9.88 31.54 10.01 32.12 10.5 32.21 10.1 32.29 9.71 32.09 9.29 31.94 8.96 31.7 8.47 31.38 8 31.28 7.43 31.27 7.39 31.28 7.31 31.33 7.31 31.57 7.29 31.76 7.36 31.93 7.47 32.82 7.64 33.59 8.48 34.22 9.09 35.05 9.91 35.65 10.88 35.96 12.09 36.14 12.79 36.22 13.54 36.38 14.25 36.58 15.16 37.07 15.79 37.62 16.47 38.3 17.32 38.5 18.41 38.31 19.55 37.93 21.89 36.18 24.01 34.34 25.13 32.41 26.31 30.12 26.55 28.02 26.19 25.61 25.78 23.28 24.53 21.9 22.3 20.45 19.94 20.3 16.79 21.23 14.08Z" fill="#FBCA8F" opacity="0.5"/><path d="M33.63 8.29C32.34 7.34 30.91 6.72 29.45 6.15 29.29 6 29.12 5.85 28.94 5.69 32.31 5.66 36.12 9.08 36.46 11.24 36.49 11.44 36.53 11.63 36.55 11.81 35.9 10.37 34.82 9.17 33.63 8.29Z" fill="#FBCA8F" opacity="0.5"/><path d="M30.66 7.77C30.82 7.94 30.98 8.13 31.12 8.33 30.38 8.53 29.4 8.19 28.75 7.91 28.51 7.8 28.26 7.68 28.03 7.54 27.97 7.34 27.87 7.09 27.71 6.78 29.68 7.84 30.57 8.07 30.66 7.77Z" fill="#FBCA8F" opacity="0.5"/><path d="M28.06 7.98C28.19 8.17 28.29 8.36 28.18 8.39 27.72 8.51 27.27 8.31 26.9 8.02 26.54 7.74 26.17 7.38 25.87 6.96 25.88 6.82 25.89 6.67 25.89 6.51 27.11 7.75 27.91 8.29 28.06 7.98Z" fill="#FBCA8F" opacity="0.5"/><path d="M25.65 7.94C25.63 8.2 25.61 8.46 25.59 8.73 25.35 8.24 25.2 7.71 25.09 7.16 25.17 7.04 25.25 6.91 25.34 6.77 25.46 7.31 25.56 7.79 25.65 7.94Z" fill="#FBCA8F" opacity="0.5"/><path d="M23.88 8.1C23.25 8.95 22.74 9.9 22.29 10.89 21.77 12.02 21.26 13.17 20.94 14.39 20.81 14.04 20.65 13.7 20.44 13.4 20.41 13.36 20.34 13.35 20.31 13.41 19.82 14.47 19.73 15.71 19.67 16.87 19.64 17.51 19.61 18.19 19.71 18.83 19.14 17.98 18.89 16.87 18.23 16.08 17.99 15.78 17.68 15.46 17.28 15.46 17.74 15.35 18.2 15.47 18.44 15.89 18.99 16.87 19.34 16.54 19.34 16.54 19.34 16.54 19.58 12.95 20.9 10.79 20.55 12.27 20.76 13.2 21.03 12.5 21.64 10.7 22.22 9.78 24.06 7.38 23.95 7.67 23.88 7.93 23.88 8.1Z" fill="#FBCA8F" opacity="0.5"/><path d="M19.17 18.95C19.06 21.38 20.89 23.56 22.48 24.9 22.92 25.27 23.39 25.63 23.88 25.95 23.18 25.65 22.52 25.29 21.92 24.87 20.67 24 19.73 22.74 18.92 21.4 18.92 21.4 18.47 20.66 18.43 19.56 18.7 19.4 18.95 19.18 19.17 18.95Z" fill="#FBCA8F" opacity="0.5"/></g><g><g><path d="M31.9 13.12C31.9 13.12 30.15 10.85 28.4 12.66 29.17 10.38 31.33 10.73 31.9 13.12Z" fill="#512B11"/><path d="M28.36 12.72C28.34 12.7 28.32 12.67 28.34 12.63 28.72 11.5 29.47 10.91 30.3 11.07 31.06 11.22 31.7 11.99 31.96 13.09 31.97 13.12 31.95 13.16 31.93 13.17 31.9 13.18 31.87 13.18 31.85 13.15 31.84 13.14 31.14 12.23 30.19 12.05 29.57 11.93 28.98 12.15 28.44 12.7 28.42 12.72 28.4 12.72 28.38 12.72 28.38 12.73 28.37 12.73 28.36 12.72ZM31.76 12.85C31.47 11.96 30.92 11.35 30.28 11.22 29.59 11.08 28.95 11.54 28.57 12.41 29.08 11.97 29.64 11.8 30.22 11.92 30.91 12.06 31.47 12.55 31.76 12.85Z" fill="#462A1E"/></g></g><g><path d="M33.69 17.33C33.88 17.18 34.13 17.02 34.4 17.03 34.4 17.03 34.41 17.03 34.41 17.03 34.67 17.04 34.88 17.2 35.06 17.49 35.27 17.85 35.2 18.28 34.87 18.62 34.65 18.86 34.31 19.02 34.03 19.02 33.93 19.02 33.84 18.99 33.76 18.95 34.08 18.99 34.4 18.9 34.64 18.65 34.69 18.61 34.74 18.57 34.78 18.52 34.92 18.38 35.2 18.01 34.95 17.58 34.8 17.32 34.62 17.19 34.41 17.18 34.4 17.18 34.4 17.18 34.39 17.18 33.93 17.17 33.48 17.73 33.48 17.74 33.47 17.76 33.45 17.76 33.43 17.76 33.51 17.61 33.59 17.46 33.69 17.33Z" fill="#D97E31"/><path d="M34.86 17.77C34.89 17.56 34.73 17.37 34.49 17.34 34.26 17.31 34.04 17.45 34.01 17.66 33.98 17.87 34.15 18.06 34.38 18.09 34.62 18.12 34.83 17.97 34.86 17.77Z" fill="#FBCA8F"/></g><g><g><path d="M36.65 13.77C36.68 13.85 35.57 11.91 34.14 13 34.29 11.69 35.55 11.07 36.65 13.77Z" fill="#512B11"/><path d="M36.58 13.79C36.19 13.22 35.72 12.85 35.26 12.76 34.9 12.69 34.53 12.79 34.18 13.05 34.16 13.07 34.13 13.07 34.11 13.06 34.09 13.04 34.08 13.02 34.08 12.99 34.13 12.55 34.3 12.18 34.54 11.98 34.72 11.83 34.94 11.77 35.16 11.82 35.7 11.93 36.25 12.61 36.71 13.74 36.72 13.77 36.72 13.8 36.7 13.82 36.68 13.84 36.66 13.85 36.63 13.85 36.61 13.84 36.6 13.83 36.58 13.79ZM34.62 12.1C34.43 12.25 34.29 12.52 34.23 12.85 34.58 12.62 34.93 12.55 35.29 12.62 35.66 12.69 36.03 12.93 36.36 13.29 35.85 12.26 35.38 12.01 35.13 11.96 34.95 11.93 34.77 11.98 34.62 12.1Z" fill="#462A1E"/></g></g><g opacity="0.5"><path d="M32.07 13.54C32.07 13.54 29.96 11.26 28.21 13.07 28.98 10.79 31.49 11.16 32.07 13.54Z" fill="#FBCA8F"/></g><g opacity="0.5"><path d="M36.88 14.29C36.91 14.36 35.42 12.33 33.99 13.42 34.13 12.11 35.78 11.59 36.88 14.29Z" fill="#FBCA8F"/></g><path d="M17.76 17.69C17.61 17.51 17.45 17.32 17.67 17.07 17.79 16.94 17.87 16.88 17.89 16.68 17.92 16.42 17.88 16.25 17.65 16.12 17.34 15.95 17.02 16.25 16.87 16.52 16.63 16.93 16.58 17.49 16.68 17.94 16.75 18.22 16.85 18.5 17.05 18.7 17.23 18.87 17.52 19 17.73 18.8 17.82 18.71 17.93 18.52 17.95 18.39 17.99 18.11 17.93 17.89 17.76 17.69Z" fill="#D46428"/><path d="M17.14 17.44C17.17 17.68 17.2 17.9 17.31 18.11 17.44 18.36 17.73 18.53 17.95 18.37 17.98 18.1 17.92 17.88 17.76 17.68 17.61 17.5 17.45 17.31 17.67 17.06 17.79 16.93 17.87 16.87 17.89 16.67 17.91 16.52 17.9 16.39 17.85 16.3 17.78 16.24 17.68 16.21 17.56 16.32 17.42 16.46 17.08 16.96 17.14 17.44Z" fill="#DA8E28" opacity="0.5"/><path d="M33.92 18.67C34.14 18.69 34.39 18.65 34.62 18.56 34.79 18.53 34.9 18.43 34.97 18.34 35.02 18.3 35.06 18.26 35.09 18.21 35.18 19.03 34.26 19.69 33.42 18.98 33.13 18.73 33.08 18.44 33.14 18.17 33.36 18.44 33.61 18.64 33.92 18.67Z" fill="#FBCA8F" opacity="0.5"/><path d="M29.17 15.63C29.17 15.63 28.72 15.17 29.04 13.96 29.36 12.74 30.19 12.61 30.82 13.14 31.44 13.68 31.5 15.3 30.64 15.95 30.64 15.95 31.4 16.45 31.65 17.8 31.65 17.8 30.59 15.46 27.56 16.42 27.55 16.41 27.99 15.6 29.17 15.63Z" fill="#FBCA8F" opacity="0.5"/><path d="M36.31 16.11C36.31 16.11 37.03 15.15 36.3 14 35.57 12.84 34.45 13.57 34.36 14.74 34.27 15.91 35.35 16.5 35.35 16.5 35.35 16.5 35.11 16.83 35.08 17.36 35.08 17.36 35.74 15.76 37.16 16.73 37.15 16.73 37.03 16.39 36.31 16.11Z" fill="#FBCA8F" opacity="0.5"/><g><g><g><path d="M31.08 14.59C31.03 15.36 30.56 15.96 30.04 15.94 29.52 15.92 29.13 15.29 29.19 14.52 29.24 13.75 29.71 13.15 30.23 13.17 30.75 13.19 31.13 13.83 31.08 14.59Z" fill="#FEFCEE"/><path d="M30.85 15C30.78 15.53 30.46 15.93 30.11 15.9 29.77 15.87 29.55 15.41 29.61 14.87 29.68 14.34 30 13.94 30.34 13.97 30.7 14 30.92 14.46 30.85 15Z" fill="#6E4217"/><path d="M30.68 15.04C30.63 15.43 30.39 15.73 30.14 15.7 29.89 15.67 29.72 15.33 29.77 14.94 29.82 14.55 30.06 14.25 30.31 14.28 30.57 14.31 30.73 14.65 30.68 15.04Z" fill="#3B1C0F"/><path d="M30.23 14.54C30.18 14.72 30.05 14.83 29.94 14.79 29.83 14.75 29.77 14.56 29.82 14.38 29.87 14.2 30 14.09 30.12 14.13 30.23 14.18 30.28 14.36 30.23 14.54Z" fill="#FEFCEE"/><path d="M30.55 15.52C30.52 15.67 30.42 15.78 30.32 15.76 30.22 15.74 30.17 15.59 30.2 15.44 30.23 15.29 30.33 15.18 30.43 15.2 30.53 15.23 30.58 15.37 30.55 15.52Z" fill="#E5EBEE"/></g></g><path d="M31.29 17.2C31.29 17.2 30.18 15.27 27.75 16.26 28.55 15.5 30.5 15.41 31.29 17.2Z" fill="#D97E31"/></g><g><g><g><path d="M36.41 14.82C36.54 15.52 36.25 16.2 35.76 16.33 35.27 16.46 34.77 16 34.64 15.29 34.51 14.59 34.8 13.91 35.29 13.78 35.78 13.65 36.27 14.11 36.41 14.82Z" fill="#FEFCEE"/><path d="M36.21 15.26C36.27 15.75 36.06 16.21 35.74 16.28 35.42 16.34 35.11 15.99 35.05 15.5 34.99 15.01 35.2 14.55 35.52 14.49 35.83 14.42 36.14 14.77 36.21 15.26Z" fill="#6E4217"/><path d="M36.06 15.35C36.11 15.72 35.95 16.05 35.72 16.1 35.48 16.15 35.25 15.89 35.2 15.52 35.16 15.15 35.31 14.82 35.55 14.77 35.79 14.73 36.02 14.99 36.06 15.35Z" fill="#3B1C0F"/><path d="M35.53 15.03C35.53 15.21 35.43 15.34 35.32 15.34 35.2 15.33 35.11 15.18 35.12 15.01 35.12 14.83 35.22 14.7 35.33 14.7 35.44 14.7 35.53 14.85 35.53 15.03Z" fill="#FEFCEE"/><path d="M36.05 15.82C36.06 15.97 35.99 16.09 35.9 16.1 35.81 16.11 35.72 16 35.72 15.85 35.71 15.7 35.78 15.58 35.87 15.57 35.96 15.56 36.05 15.67 36.05 15.82Z" fill="#E5EBEE"/></g></g><path d="M36.97 16.58C36.97 16.58 36.27 16.08 35.45 16.67 35.87 16.05 36.51 16.07 36.97 16.58Z" fill="#D97E31"/></g><path d="M30.06 16.61C29.27 16.3 28.51 16.36 27.71 16.48 28.58 15.87 29.58 15.81 30.44 16.37 30.97 16.72 31.35 17.34 31.42 18.03 31.07 17.43 30.69 16.85 30.06 16.61Z" fill="#FBCA8F"/><path d="M36.66 16.8C36.03 16.83 35.51 17.17 35.11 17.67 35.09 17.64 35.08 17.61 35.08 17.57 35.06 16.84 35.75 16.47 36.34 16.45 36.79 16.44 37.15 16.71 37.44 17.06 37.22 16.9 36.91 16.79 36.66 16.8Z" fill="#FBCA8F"/><g><g><g><path d="M13.67 12.74C13.67 12.74 13.35 9.65 15.76 7.98 14.52 7.96 14.49 8.11 14.49 8.11 14.49 8.11 17.93 1.47 23.02 1.85 22.65 1.28 22.38 0.87 22.38 0.87 22.38 0.87 23.01 0.37 24.54 1.62 23.99 0.09 23.73 0.01 23.99 0.09 24.25 0.17 25.25 0.82 25.5 1.68 25.75 2.54 25.91 0.43 26.7 0.45 26.72 0.78 26.09 1.84 26.09 1.84 26.09 1.84 28.65-0.25 31.08 1 30.17 1.16 30.09 1.38 30.09 1.38 30.09 1.38 34.6 1.26 36.5 3.64 35.16 3.05 34.83 3.05 34.83 3.05 34.83 3.05 36.71 3.98 37.39 5.48 36.58 4.98 36.25 4.94 36.25 4.94 36.25 4.94 39.73 7.13 38.76 11.26 38.58 12.11 38.31 10.47 37.87 9.98 38.19 11.95 37.93 13.61 37.18 14.49 37.18 14.49 36.81 13.41 36.46 11.25 36.12 9.09 32.31 5.67 28.94 5.7 31.29 7.76 31.56 8.88 27.71 6.78 28.64 8.66 27.75 8.41 25.89 6.52 25.79 8.85 25.6 8 25.34 6.77 23.98 8.96 23.6 8.51 24.07 7.37 22.23 9.77 21.64 10.69 21.04 12.49 20.77 13.19 20.55 12.26 20.91 10.78 19.58 12.94 19.35 16.53 19.35 16.53 19.35 16.53 19 16.85 18.45 15.88 17.92 14.92 16.2 15.51 15.96 16.9 15.97 16.82 15.49 17.44 15.49 17.44 15.49 17.44 14.83 16.68 15.3 14.95 14.55 15.79 14.42 16.27 14.42 16.27 14.42 16.27 13.23 13.44 14.55 11.99 13.88 12.17 13.67 12.74 13.67 12.74Z" fill="#512B11"/><path d="M15.43 17.48C15.4 17.45 14.82 16.75 15.16 15.19 14.59 15.87 14.48 16.27 14.47 16.27 14.46 16.3 14.44 16.32 14.41 16.32 14.38 16.32 14.36 16.31 14.35 16.28 14.35 16.27 14.05 15.55 13.91 14.66 13.75 13.6 13.89 12.73 14.32 12.12 13.88 12.34 13.73 12.74 13.72 12.76 13.71 12.79 13.68 12.81 13.65 12.81 13.62 12.81 13.6 12.78 13.6 12.75 13.6 12.72 13.31 9.75 15.54 8.06 14.71 8.06 14.56 8.14 14.54 8.15 14.52 8.18 14.49 8.19 14.46 8.18 14.43 8.17 14.41 8.13 14.42 8.1 14.42 8.09 14.43 8.08 14.43 8.07L14.43 8.07C14.57 7.8 17.92 1.52 22.87 1.76 22.54 1.26 22.31 0.91 22.31 0.91 22.3 0.89 22.29 0.87 22.3 0.86 22.3 0.84 22.31 0.82 22.33 0.81 22.34 0.8 22.56 0.63 23.04 0.72 23.43 0.8 23.88 1.03 24.38 1.41 24.15 0.8 23.98 0.46 23.89 0.28 23.81 0.13 23.79 0.08 23.83 0.03 23.86 0 23.89-0.01 23.94 0 23.96 0 23.98 0.01 24.01 0.02 24.29 0.11 25.3 0.77 25.56 1.66 25.59 1.78 25.62 1.81 25.62 1.82 25.66 1.79 25.74 1.59 25.8 1.45 25.97 1.02 26.23 0.37 26.71 0.38 26.74 0.38 26.77 0.41 26.77 0.45 26.78 0.7 26.49 1.26 26.3 1.61 26.9 1.2 28.48 0.27 30.16 0.6 30.49 0.66 30.81 0.78 31.11 0.93 31.14 0.94 31.15 0.97 31.14 1 31.14 1.03 31.11 1.06 31.08 1.06 30.64 1.14 30.4 1.23 30.27 1.3 30.65 1.3 31.56 1.34 32.6 1.54 33.85 1.79 35.55 2.34 36.54 3.58 36.56 3.61 36.56 3.64 36.54 3.67 36.52 3.7 36.49 3.71 36.46 3.69 35.95 3.47 35.59 3.33 35.33 3.24 35.94 3.62 36.96 4.38 37.44 5.42 37.45 5.45 37.45 5.48 37.43 5.51 37.41 5.53 37.38 5.54 37.35 5.52 37.07 5.35 36.85 5.23 36.68 5.15 37.57 5.89 39.59 7.98 38.82 11.25 38.8 11.35 38.75 11.57 38.61 11.55 38.5 11.53 38.41 11.32 38.26 10.93 38.17 10.71 38.08 10.45 37.97 10.25 38.22 12.09 37.94 13.68 37.21 14.52 37.19 14.54 37.17 14.55 37.15 14.54 37.13 14.54 37.11 14.52 37.1 14.5 37.1 14.49 36.72 13.39 36.38 11.25 36.23 10.32 35.43 9.14 34.23 8.08 32.95 6.95 31.42 6.15 30.04 5.87 29.72 5.81 29.41 5.77 29.11 5.76 29.84 6.41 30.86 7.41 30.69 7.81 30.65 7.96 30.48 8 30.18 7.94 29.71 7.85 28.93 7.51 27.87 6.94 28.14 7.52 28.21 7.88 28.1 8.04 28.06 8.1 27.99 8.16 27.83 8.13 27.48 8.06 26.82 7.54 25.95 6.67 25.89 7.81 25.82 7.97 25.76 8.03 25.74 8.05 25.71 8.06 25.68 8.05 25.56 8.03 25.49 7.74 25.31 6.93 24.92 7.55 24.29 8.44 23.97 8.38 23.92 8.37 23.87 8.33 23.84 8.28 23.79 8.17 23.8 7.98 23.87 7.73 22.22 9.89 21.67 10.8 21.1 12.51 21.07 12.59 20.98 12.82 20.84 12.79 20.8 12.78 20.77 12.75 20.74 12.71 20.64 12.52 20.61 11.94 20.75 11.18 19.63 13.31 19.4 16.5 19.4 16.53 19.4 16.55 19.39 16.57 19.38 16.58 19.37 16.59 19.27 16.68 19.1 16.64 18.87 16.59 18.63 16.35 18.38 15.91 18.25 15.69 18.05 15.54 17.8 15.49 17.44 15.42 17.02 15.54 16.66 15.82 16.32 16.09 16.08 16.47 16.01 16.9 16 16.93 15.98 16.96 15.95 16.96 15.89 17.02 15.69 17.26 15.52 17.48 15.51 17.5 15.49 17.5 15.47 17.51 15.46 17.51 15.46 17.51 15.45 17.51 15.46 17.5 15.44 17.49 15.43 17.48ZM16.6 15.7C16.98 15.4 17.44 15.27 17.84 15.35 18.13 15.41 18.36 15.57 18.5 15.83 18.93 16.6 19.2 16.52 19.28 16.48 19.31 16.08 19.61 12.76 20.85 10.73 20.87 10.7 20.9 10.69 20.93 10.7 20.96 10.71 20.97 10.75 20.97 10.78 20.7 11.89 20.78 12.6 20.87 12.64 20.87 12.64 20.92 12.62 20.98 12.45 21.59 10.63 22.18 9.72 24.02 7.31 24.04 7.28 24.08 7.27 24.1 7.29 24.13 7.31 24.14 7.35 24.12 7.38 23.93 7.84 23.91 8.11 23.95 8.2 23.96 8.22 23.97 8.23 23.99 8.23 24.02 8.24 24.33 8.25 25.28 6.71 25.3 6.69 25.32 6.67 25.35 6.68 25.37 6.69 25.4 6.71 25.4 6.73 25.5 7.19 25.62 7.75 25.69 7.88 25.72 7.79 25.78 7.5 25.82 6.5 25.82 6.47 25.84 6.45 25.86 6.43 25.88 6.42 25.91 6.42 25.93 6.44 26.82 7.35 27.52 7.9 27.85 7.97 27.93 8 27.97 7.99 28 7.96 28.03 7.91 28.1 7.7 27.66 6.81 27.64 6.78 27.65 6.75 27.67 6.72 27.69 6.7 27.72 6.69 27.75 6.71 28.89 7.32 29.74 7.7 30.22 7.8 30.54 7.86 30.59 7.79 30.61 7.76 30.67 7.62 30.38 7.03 28.92 5.75 28.9 5.73 28.89 5.7 28.9 5.67 28.91 5.64 28.94 5.62 28.96 5.62 29.33 5.62 29.72 5.65 30.11 5.73 33.21 6.34 36.24 9.26 36.55 11.22 36.83 12.96 37.13 14.01 37.23 14.34 37.91 13.46 38.13 11.85 37.83 9.99 37.82 9.96 37.84 9.93 37.87 9.91 37.9 9.9 37.93 9.9 37.95 9.92 38.14 10.13 38.29 10.53 38.43 10.88 38.51 11.09 38.62 11.37 38.68 11.42 38.69 11.41 38.71 11.36 38.74 11.24 39.69 7.21 36.3 5.02 36.26 5 36.23 4.98 36.22 4.95 36.23 4.91 36.24 4.88 36.27 4.86 36.3 4.86L36.32 4.86C36.4 4.88 36.69 4.95 37.26 5.29 36.52 3.96 34.86 3.12 34.84 3.11 34.81 3.1 34.8 3.06 34.81 3.03 34.82 3 34.84 2.97 34.87 2.97 34.87 2.97 35.18 2.98 36.27 3.44 35.29 2.4 33.76 1.91 32.61 1.69 31.26 1.42 30.13 1.45 30.12 1.45 30.1 1.45 30.08 1.44 30.07 1.42 30.06 1.4 30.06 1.38 30.06 1.35 30.07 1.31 30.18 1.12 30.88 0.96 30.65 0.86 30.4 0.78 30.16 0.74 28.1 0.33 26.18 1.88 26.16 1.9 26.13 1.92 26.1 1.92 26.08 1.9 26.06 1.87 26.06 1.84 26.07 1.81 26.23 1.54 26.61 0.84 26.67 0.53 26.33 0.59 26.11 1.11 25.95 1.51 25.83 1.81 25.76 1.99 25.63 1.97 25.56 1.96 25.51 1.88 25.47 1.72 25.2 0.91 24.29 0.28 24 0.17 24 0.19 24.01 0.2 24.02 0.22 24.12 0.42 24.32 0.83 24.6 1.6 24.61 1.63 24.6 1.67 24.58 1.69 24.56 1.71 24.52 1.71 24.5 1.69 23.94 1.23 23.45 0.96 23.02 0.88 22.74 0.82 22.56 0.87 22.48 0.91 22.57 1.05 22.8 1.39 23.08 1.82 23.1 1.84 23.1 1.87 23.08 1.9 23.07 1.92 23.04 1.94 23.02 1.94 18.46 1.6 15.24 6.94 14.65 7.99 14.86 7.94 15.24 7.92 15.77 7.93 15.8 7.93 15.83 7.95 15.83 7.98 15.83 8 15.82 8.03 15.8 8.05 13.83 9.41 13.71 11.76 13.73 12.5 13.86 12.3 14.11 12.03 14.53 11.9 14.56 11.89 14.59 11.91 14.6 11.93 14.62 11.96 14.61 12 14.59 12.02 13.49 13.23 14.2 15.47 14.42 16.07 14.52 15.86 14.75 15.46 15.25 14.89 15.27 14.87 15.31 14.86 15.33 14.88 15.36 14.9 15.37 14.93 15.36 14.96 14.98 16.36 15.36 17.11 15.49 17.32 15.74 17.01 15.85 16.89 15.91 16.84 15.99 16.39 16.23 15.98 16.6 15.7Z" fill="#462A1E"/></g></g><path d="M13.67 12.74C13.67 12.74 13.88 12.17 14.54 11.97 13.22 13.42 14.41 16.25 14.41 16.25 14.41 16.25 14.54 15.77 15.29 14.93 14.82 16.66 15.48 17.42 15.48 17.42 15.48 17.42 15.97 16.8 15.95 16.88 16.18 15.49 17.9 14.9 18.44 15.86 18.99 16.84 19.34 16.51 19.34 16.51 19.34 16.51 19.58 12.92 20.9 10.76 20.55 12.24 20.76 13.17 21.03 12.47 21.64 10.67 22.22 9.75 24.06 7.35 23.59 8.49 23.97 8.94 25.33 6.75 25.59 7.98 25.78 8.84 25.88 6.5 27.74 8.39 28.63 8.64 27.7 6.76 31.55 8.85 31.28 7.73 28.93 5.68 32.3 5.65 36.11 9.07 36.45 11.23 36.79 13.39 37.17 14.47 37.17 14.47 37.92 13.6 38.18 11.93 37.86 9.96 38.3 10.45 38.57 12.09 38.75 11.24 39.72 7.11 36.24 4.92 36.24 4.92 36.24 4.92 36.57 4.97 37.38 5.46 36.7 3.96 34.82 3.03 34.82 3.03 34.82 3.03 35.15 3.04 36.49 3.62 34.59 1.24 30.08 1.36 30.08 1.36 30.08 1.36 30.17 1.16 31.08 1 28.65-0.24 26.09 1.85 26.09 1.85 26.09 1.85 26.72 0.79 26.7 0.46 25.9 0.44 25.75 2.55 25.5 1.69 25.25 0.83 24.25 0.18 23.99 0.1 23.73 0.02 23.99 0.1 24.54 1.63 23.01 0.37 22.38 0.88 22.38 0.88 22.38 0.88 22.66 1.29 23.02 1.86 17.96 1.49 14.54 8.04 14.5 8.12 14.51 8.1 14.64 7.98 15.77 8 13.35 9.65 13.67 12.74 13.67 12.74ZM16.49 6.66C16.94 5.91 17.57 5.26 18.25 4.7 18.54 4.49 19.28 3.97 19.34 3.9 19.45 3.83 19.56 3.76 19.67 3.69 20.84 2.96 22.06 2.52 23.35 2.44 23.21 2.59 23.1 2.78 23.06 3.03 23.05 3.07 23.1 3.17 23.14 3.13 23.41 2.86 23.69 2.73 24.03 2.63 23.74 3.04 23.4 3.41 23.48 3.97 23.48 4.01 23.54 4.07 23.58 4.03 23.83 3.74 23.97 3.34 24.26 3.07 24.36 2.97 24.47 2.89 24.58 2.82 24.74 3.09 24.97 3.27 25.21 3.47 25.39 3.62 25.58 3.82 25.83 3.82 25.87 3.82 25.88 3.78 25.86 3.74 25.72 3.4 25.57 3.05 25.39 2.74 25.2 2.4 25.68 2.77 25.8 2.82 25.98 2.89 25.94 2.88 26.13 2.92 26.18 2.93 26.18 2.85 26.16 2.82 26.07 2.7 25.97 2.61 25.86 2.53 26.4 2.37 27.1 2.55 27.62 2.63 28.06 2.69 28.59 2.92 29.03 2.84 29.05 2.83 29.04 2.81 29.04 2.8 28.8 2.36 28.05 2.17 27.62 2.09 27.38 2.04 27.02 1.98 26.65 1.98 26.79 1.92 26.92 1.85 27.06 1.77 27.55 1.48 28.07 1.15 28.62 1.22 28.91 1.17 29.2 1.16 29.5 1.23 29.57 1.24 29.63 1.35 29.57 1.42 29.37 1.64 29.14 1.82 28.93 2.02 30.63 1.76 32.37 2.24 33.97 2.76 34.04 2.79 34.07 2.94 33.98 2.97 33.68 3.07 33.4 3.03 33.1 3.02 33 3.02 32.91 3.02 32.82 3.03 33.15 3.11 33.48 3.2 33.81 3.31 34.58 3.59 35.46 4.01 35.91 4.79 35.95 4.86 35.91 4.97 35.83 4.93 35.5 4.8 35.17 4.7 34.84 4.6 35.16 4.83 35.47 5.07 35.77 5.33 35.79 5.34 35.8 5.35 35.82 5.35 35.84 5.36 35.85 5.37 35.85 5.38 36.08 5.54 36.28 5.78 36.49 5.96 36.8 6.23 37.06 6.55 37.29 6.91 37.79 7.67 38.15 8.54 38.37 9.46 38.4 9.58 38.27 9.63 38.22 9.52 37.62 8.05 36.51 6.67 35.19 5.86 36.16 6.79 36.87 8.09 37.15 9.47 37.18 9.59 37.05 9.63 37 9.53 35.01 5.59 30.57 3.85 26.53 3.88 27.36 4.32 28.11 4.91 28.58 5.77 28.61 5.82 28.59 5.94 28.52 5.92 27.84 5.76 27.18 5.51 26.53 5.27 26.77 5.66 26.92 6.11 26.93 6.49 26.93 6.54 26.9 6.59 26.85 6.59 26.26 6.5 25.77 6.12 25.34 5.67 25.25 6.08 25.05 6.49 24.74 6.71 24.68 6.75 24.63 6.68 24.61 6.63 24.49 6.29 24.43 5.92 24.38 5.55 24.27 5.68 24.16 5.79 24.12 5.84 23.86 6.13 23.6 6.43 23.35 6.73 22.92 7.26 22.6 7.88 22.28 8.48 21.98 9.04 21.76 9.67 21.37 10.17 21.31 10.25 21.23 10.14 21.22 10.08 21.1 9.32 21.44 8.51 21.67 7.79 21.71 7.66 21.75 7.54 21.79 7.41 21.85 7.3 21.91 7.18 21.96 7.06 21.98 7.02 21.94 6.97 21.91 6.95 21.47 6.68 20.91 7.7 20.71 8 20.37 8.54 20.08 9.22 19.69 9.74 19.76 9.38 19.87 9.05 20 8.7 20.07 8.51 20.16 8.32 20.11 8.12 20.06 7.9 19.85 7.97 19.72 8.07 19.35 8.38 19.05 8.8 18.78 9.21 18.63 9.44 18.48 9.68 18.33 9.92 18.3 9.94 18.27 9.95 18.24 9.96 18.28 9.2 18.84 8.56 19.05 7.84 19.06 7.79 19.01 7.69 18.96 7.73 18.39 8.15 17.97 8.75 17.55 9.34 17.34 9.64 17.13 9.95 16.95 10.27 16.85 10.46 16.75 10.71 16.61 10.88 16.8 9.92 17.26 9.05 17.68 8.18 18.08 7.34 18.73 6.69 19.23 5.93 19.28 5.86 19.2 5.76 19.15 5.75 18.71 5.64 18.15 6.26 17.85 6.55 17.31 7.07 16.93 7.67 16.51 8.28 16.69 7.74 17.77 6.12 17.77 6.11 17.81 6.05 17.19 6.1 16.88 6.34 16.73 6.44 16.61 6.55 16.49 6.66Z" fill="#512B11" opacity="0.5"/><path d="M15.76 7.99C14.63 7.98 14.51 8.09 14.49 8.11 14.53 8.04 17.46 2.44 21.89 1.88 20.7 2.27 19.52 2.92 18.59 3.83 17.93 4.48 17.34 5.18 16.72 5.86 16.33 6.29 15.86 6.74 15.76 7.36 15.75 7.43 15.8 7.52 15.87 7.5 16.05 7.46 16.22 7.38 16.38 7.28 16.36 7.32 16.33 7.36 16.31 7.4 15.23 8.59 14.5 10.32 14.95 11.92 14.97 12 15.08 12.06 15.11 11.94 15.23 11.46 15.4 11.01 15.59 10.57 15.48 10.96 15.38 11.35 15.32 11.76 15.26 12.23 15.16 12.8 15.44 13.18 15.46 13.21 15.53 13.24 15.56 13.19 15.81 12.82 15.92 12.38 16.12 11.98 16.14 11.93 16.17 11.89 16.19 11.84 16.06 12.54 16 13.26 16.04 13.94 16.05 14.14 16.05 14.52 16.22 14.65 16.41 14.79 16.53 14.58 16.59 14.39 16.78 13.73 17 13.11 17.26 12.48 17.48 11.95 17.71 11.39 18.07 10.96 17.62 12.05 17.48 13.31 18.03 14.3 18.06 14.35 18.15 14.41 18.18 14.32 18.34 13.82 18.34 13.3 18.43 12.79 18.46 12.61 18.5 12.43 18.54 12.26 18.52 12.54 18.52 12.83 18.54 13.11 18.59 13.7 18.66 14.45 19.11 14.83 19.14 14.86 19.2 14.86 19.22 14.8 19.59 13.64 19.73 12.44 20.2 11.31 20.44 10.74 20.71 10.17 21.01 9.63 21.04 9.58 21.07 9.53 21.11 9.48 21 10.03 20.92 10.59 21 11.15 21.01 11.21 21.09 11.33 21.15 11.24 21.76 10.31 22.28 9.32 22.88 8.38 23.32 7.69 23.82 7.06 24.3 6.41 24.27 6.74 24.26 7.07 24.26 7.4 24.26 7.45 24.32 7.54 24.37 7.52 24.82 7.34 25.12 6.79 25.35 6.27 25.4 6.41 25.46 6.55 25.53 6.68 25.59 6.8 25.7 6.8 25.7 6.68 25.69 6.45 25.68 6.21 25.65 5.99 25.82 6.13 26 6.27 26.16 6.43 26.56 6.81 27.06 7.35 27.65 7.26 27.7 7.25 27.72 7.18 27.7 7.14 27.57 6.71 27.33 6.37 27.07 6.05 27.23 6.13 27.39 6.22 27.56 6.3 28.14 6.59 28.77 7.03 29.45 6.92 29.5 6.91 29.51 6.84 29.5 6.8 29.33 5.98 28.67 5.43 28.06 4.93 31.98 5.23 35.95 7.14 37.51 11.3 37.54 11.37 37.65 11.39 37.66 11.3 37.83 10.16 37.61 9.09 37.2 8.1 37.42 8.41 37.64 8.74 37.82 9.09 38.07 9.58 38.3 10.07 38.58 10.54 38.62 10.61 38.71 10.64 38.74 10.53 38.87 9.96 38.9 9.4 38.86 8.84 38.99 9.55 38.99 10.37 38.78 11.27 38.6 12.12 38.33 10.48 37.89 9.99 38.21 11.96 37.95 13.62 37.2 14.5 37.2 14.5 36.83 13.42 36.48 11.26 36.14 9.1 32.33 5.68 28.96 5.71 31.31 7.77 31.58 8.89 27.73 6.79 28.66 8.67 27.77 8.42 25.91 6.53 25.81 8.86 25.62 8.01 25.36 6.78 24 8.97 23.62 8.52 24.09 7.38 22.25 9.78 21.66 10.7 21.06 12.5 20.79 13.2 20.57 12.27 20.93 10.79 19.6 12.95 19.37 16.54 19.37 16.54 19.37 16.54 19.02 16.86 18.47 15.89 17.94 14.93 16.22 15.52 15.98 16.91 15.99 16.83 15.51 17.45 15.51 17.45 15.51 17.45 14.85 16.69 15.32 14.96 14.57 15.8 14.44 16.28 14.44 16.28 14.44 16.28 13.25 13.45 14.57 12 13.91 12.19 13.7 12.77 13.7 12.77 13.7 12.77 13.35 9.65 15.76 7.99Z" fill="#512B11" opacity="0.5"/><g><path d="M36.02 7.71C34.7 5.99 32.97 4.82 31.01 4.19 30.81 4.1 30.61 4.02 30.41 3.94 30.24 3.87 30.07 3.81 29.89 3.76 32.7 4.18 35.42 5.57 36.69 8.48 36.47 8.23 36.25 7.97 36.02 7.71Z" fill="#512B11" opacity="0.5"/><path d="M36.98 6.69C37 6.72 37.03 6.74 37.05 6.77 37.22 6.99 37.4 7.22 37.56 7.46 37.63 7.57 37.7 7.68 37.77 7.8 37.96 8.21 38.09 8.67 38.15 9.11 38.14 9.1 38.12 9.09 38.11 9.07 37.87 8.57 37.65 8.07 37.36 7.61 37.09 7.18 36.76 6.8 36.49 6.38 36.67 6.46 36.83 6.57 36.98 6.69Z" fill="#512B11" opacity="0.5"/><path d="M27.58 5.11C27.47 5.01 27.37 4.91 27.25 4.81 27.22 4.79 27.19 4.77 27.16 4.74 27.16 4.74 27.15 4.73 27.15 4.73 26.93 4.54 26.71 4.35 26.49 4.14 26.76 4.29 27.05 4.42 27.3 4.6 27.63 4.84 27.93 5.14 28.19 5.47 28.2 5.48 28.2 5.49 28.21 5.5 27.99 5.43 27.78 5.28 27.58 5.11Z" fill="#512B11" opacity="0.5"/><path d="M22.68 6.85C23 6.39 23.61 5.31 24.21 5.28 23.13 6.45 22.24 7.84 21.57 9.32 21.85 8.46 22.14 7.62 22.68 6.85Z" fill="#512B11" opacity="0.5"/><path d="M20.87 7.44C20.65 7.77 20.43 8.1 20.22 8.43 20.21 8.4 20.2 8.38 20.21 8.36 20.46 7.41 21.22 6.5 22.04 6.11 22.04 6.11 22.05 6.11 22.05 6.11 21.66 6.55 21.21 6.94 20.87 7.44Z" fill="#512B11" opacity="0.5"/></g></g><g><path d="M36.93 20.03C36.93 20.03 36.33 21.15 33.51 20.57 30.7 19.99 28.03 18.03 28.03 18.03 28.03 18.03 28.25 17.8 28.19 17.39 28.19 17.39 27.9 17.94 27.29 17.93 26.68 17.92 26.37 17.6 26.37 17.6 26.37 17.6 26.73 18.21 27.19 18.29 27.19 18.29 25.4 21.72 27.02 24.7 27.02 24.7 27.83 26.53 30.27 26.77 32.71 27.01 34.95 24.93 36.2 21.21 36.19 21.2 37.15 20.55 36.93 20.03Z" fill="#F8BE7D" opacity="0.5"/><g><g><g><path d="M36.1 20.87C36.1 20.87 33.49 22.09 27.67 18.05 25.38 22.2 27.2 26.12 29.89 26.42 32.58 26.7 34.18 25.14 36.1 20.87Z" fill="#800C11"/><path d="M27.43 22.41C28.24 23.01 29.14 23.53 30.08 23.84 30.92 24.11 32.01 24.19 32.79 23.58 33.47 23.05 33.39 21.99 32.87 21.42 32.55 21.08 32.17 20.83 31.78 20.61 31.27 20.32 30.76 20.03 30.22 19.81 29.39 19.48 27.96 19.02 27.03 19.51 27.19 19.03 27.4 18.55 27.67 18.06 33.49 22.1 36.1 20.88 36.1 20.88 34.17 25.15 32.57 26.71 29.89 26.42 28.04 26.22 26.59 24.29 26.63 21.74 26.98 22.07 27.32 22.33 27.43 22.41Z" fill="#800C11" opacity="0.5"/><path d="M31.38 22.35C28.48 21.5 27.44 20.23 27.04 19.49 27.2 19.02 27.41 18.53 27.68 18.05 31.65 20.81 34.13 21.11 35.3 21.03 35.12 21.67 34.39 23.24 31.38 22.35Z" fill="#FFFFFF"/><path d="M27.55 19.08C27.37 19.21 27.21 19.36 27.07 19.53 27.06 19.52 27.05 19.5 27.04 19.48 27.2 19.01 27.41 18.52 27.68 18.04 31.65 20.8 34.13 21.1 35.3 21.02 35.28 21.11 35.24 21.22 35.19 21.33 34.68 21.54 34.05 21.47 33.54 21.41 32.82 21.33 32.11 21.15 31.44 20.88 30.8 20.63 30.18 20.33 29.56 20.03 29.05 19.8 27.8 18.9 27.55 19.08Z" fill="#CECFCF" opacity="0.5"/><g><path d="M31.73 25.27C31.99 24.13 31.25 23.24 31.25 23.24 32.72 22.87 33.27 24.34 33.46 25.2 32.44 26.21 31.32 26.57 29.9 26.42 28.52 26.27 27.36 25.16 26.88 23.55 29.09 25.67 31.61 25.6 31.73 25.27Z" fill="#CECFCF"/><path d="M31.73 25.27C31.61 25.6 29.09 25.67 26.88 23.54 26.66 22.8 26.58 21.96 26.68 21.06 27.43 20.88 28.32 21.52 28.64 22.01 29.35 21.78 30.79 22.36 31.25 23.23 31.25 23.24 31.99 24.13 31.73 25.27Z" fill="#EA7673"/><path d="M28.64 22.02C29.08 21.87 29.81 22.05 30.4 22.4 30.32 22.37 30.23 22.34 30.13 22.32 29.72 22.24 29.22 22.27 29.08 22.72 28.99 22.58 28.89 22.46 28.77 22.36 28.43 22.05 27.86 21.86 27.47 22.25 26.82 22.91 27.8 24.14 28.31 24.47 28.85 24.82 31.11 25.75 31.77 25.04 31.76 25.12 31.75 25.19 31.73 25.27 31.61 25.6 29.09 25.67 26.88 23.54 26.66 22.8 26.58 21.96 26.68 21.06 27.43 20.89 28.32 21.52 28.64 22.02Z" fill="#EA7673" opacity="0.4"/></g><path d="M31.85 23.34C31.85 23.34 32.91 24.4 31.79 25.32 32.22 24.83 32.34 24.16 31.85 23.34Z" fill="#9E9F9F"/><path d="M29.64 22.37C29.64 22.37 30.81 22.47 31.03 23.43 31.25 24.38 28.63 22.33 29.64 22.37Z" fill="#F09693"/><path d="M28.64 22.02C28.64 22.02 29.06 22.64 29.12 23.38 29.12 23.38 29.3 22.52 28.64 22.02Z" fill="#E23F5F"/><path d="M32.23 23.55C32.23 23.55 32.91 24.46 31.86 25.44 30.99 26.06 29.09 25.37 28.01 24.72 26.93 24.06 28.35 26.45 30.92 26.24 33.5 26.03 33.2 24.89 32.97 24.38 32.75 23.86 32.07 23.13 32.23 23.55Z" fill="#FFFFFF"/><path d="M29.88 26.54C28.64 26.41 27.55 25.52 26.97 24.16 26.19 22.35 26.42 20.1 27.58 17.99 27.6 17.96 27.62 17.94 27.65 17.93 27.68 17.92 27.71 17.93 27.74 17.94 32.53 21.27 35.14 20.99 35.83 20.83 35.98 20.8 36.06 20.76 36.06 20.76 36.1 20.74 36.15 20.75 36.18 20.79 36.21 20.82 36.22 20.88 36.2 20.93 34.62 24.44 33.26 26.04 31.5 26.46 31.01 26.58 30.48 26.61 29.88 26.54ZM35.87 21.08C34.97 21.3 32.38 21.44 27.71 18.24 26.65 20.24 26.45 22.34 27.18 24.05 27.73 25.33 28.75 26.17 29.91 26.3 30.49 26.36 31 26.34 31.47 26.22 33.12 25.82 34.37 24.38 35.88 21.09 35.88 21.08 35.88 21.08 35.87 21.08Z" fill="#CD6A26"/></g><path d="M36.89 20.27C36.89 20.27 36.66 20.62 36.03 20.8 35.43 20.96 36.53 21.11 36.89 20.27Z" fill="#CD6A26"/><path d="M28.06 17.71C28.06 17.71 27.65 18.2 26.87 17.97 27.18 18.45 28.05 18.15 28.06 17.71Z" fill="#CD6A26"/></g></g></g></g></g></g></g><g><g><g><g><g><rect x="7.23" y="60.47" width="1.39" height="29.93" fill="#828487"/></g><g><path d="M8.63 90.53 7.23 90.53C7.16 90.53 7.11 90.47 7.11 90.41L7.11 60.47C7.11 60.4 7.16 60.35 7.23 60.35L8.62 60.35C8.69 60.35 8.74 60.41 8.74 60.47L8.74 90.4C8.75 90.47 8.69 90.53 8.63 90.53ZM7.36 90.28 8.5 90.28 8.5 60.6 7.36 60.6 7.36 90.28Z" fill="#1D1D1B"/></g></g></g><g><g><g><rect x="7.23" y="88.96" width="1.39" height="1.45" fill="#48484A"/></g><g><path d="M8.63 90.53 7.23 90.53C7.16 90.53 7.11 90.47 7.11 90.41L7.11 88.96C7.11 88.89 7.16 88.84 7.23 88.84L8.62 88.84C8.69 88.84 8.74 88.89 8.74 88.96L8.74 90.41C8.75 90.47 8.69 90.53 8.63 90.53ZM7.36 90.28 8.5 90.28 8.5 89.08 7.36 89.08 7.36 90.28Z" fill="#1D1D1B"/></g></g></g><g><g><g><rect x="61.27" y="60.47" width="1.39" height="29.93" fill="#828487"/></g><g><path d="M62.66 90.53 61.27 90.53C61.2 90.53 61.15 90.47 61.15 90.41L61.15 60.47C61.15 60.4 61.21 60.35 61.27 60.35L62.66 60.35C62.73 60.35 62.78 60.41 62.78 60.47L62.78 90.4C62.79 90.47 62.73 90.53 62.66 90.53ZM61.39 90.28 62.54 90.28 62.54 60.6 61.39 60.6 61.39 90.28Z" fill="#1D1D1B"/></g></g></g><g><g><g><rect x="61.27" y="89.52" width="1.39" height="0.89" fill="#48484A"/></g><g><path d="M62.66 90.53 61.27 90.53C61.2 90.53 61.15 90.47 61.15 90.41L61.15 89.52C61.15 89.45 61.21 89.4 61.27 89.4L62.66 89.4C62.73 89.4 62.78 89.45 62.78 89.52L62.78 90.41C62.79 90.47 62.73 90.53 62.66 90.53ZM61.39 90.28 62.54 90.28 62.54 89.64 61.39 89.64 61.39 90.28Z" fill="#1D1D1B"/></g></g></g></g><g><g><g><g><rect x="10.79" y="54.61" width="1.39" height="29.93" fill="#828487"/></g><g><path d="M12.19 84.66 10.8 84.66C10.73 84.66 10.68 84.6 10.68 84.54L10.68 54.61C10.68 54.54 10.73 54.49 10.8 54.49L12.19 54.49C12.26 54.49 12.31 54.54 12.31 54.61L12.31 84.54C12.31 84.61 12.25 84.66 12.19 84.66ZM10.92 84.42 12.07 84.42 12.07 54.73 10.92 54.73 10.92 84.42Z" fill="#1D1D1B"/></g></g></g><g><g><g><rect x="10.79" y="83.51" width="1.39" height="1.03" fill="#48484A"/></g><g><path d="M12.19 84.66 10.8 84.66C10.73 84.66 10.68 84.6 10.68 84.54L10.68 83.51C10.68 83.44 10.73 83.39 10.8 83.39L12.19 83.39C12.26 83.39 12.31 83.44 12.31 83.51L12.31 84.54C12.31 84.61 12.25 84.66 12.19 84.66ZM10.92 84.42 12.07 84.42 12.07 83.64 10.92 83.64 10.92 84.42Z" fill="#1D1D1B"/></g></g></g><g><g><g><rect x="57.71" y="54.61" width="1.39" height="29.93" fill="#828487"/></g><g><path d="M59.1 84.66 57.71 84.66C57.64 84.66 57.59 84.6 57.59 84.54L57.59 54.61C57.59 54.54 57.65 54.49 57.71 54.49L59.1 54.49C59.17 54.49 59.22 54.54 59.22 54.61L59.22 84.54C59.23 84.61 59.17 84.66 59.1 84.66ZM57.83 84.42 58.98 84.42 58.98 54.73 57.83 54.73 57.83 84.42Z" fill="#1D1D1B"/></g></g></g><g><g><g><rect x="57.71" y="83.58" width="1.39" height="0.96" fill="#48484A"/></g><g><path d="M59.1 84.66 57.71 84.66C57.64 84.66 57.59 84.6 57.59 84.54L57.59 83.58C57.59 83.51 57.65 83.46 57.71 83.46L59.1 83.46C59.17 83.46 59.22 83.51 59.22 83.58L59.22 84.54C59.23 84.61 59.17 84.66 59.1 84.66ZM57.83 84.42 58.98 84.42 58.98 83.71 57.83 83.71 57.83 84.42Z" fill="#1D1D1B"/></g></g></g></g><g><g><path d="M66.61 60.92 66.61 58.6 3.29 58.6 3.29 61.38 3.3 61.38C3.34 62.7 3.85 64.17 5.78 64.66L64.14 64.66C66.29 64.12 66.67 62.34 66.61 60.92L66.61 60.92Z" fill="#A04832"/></g><g><path d="M64.14 64.78 5.78 64.78C4.14 64.37 3.25 63.22 3.19 61.44 3.18 61.42 3.17 61.4 3.17 61.38L3.17 58.6C3.17 58.53 3.22 58.48 3.29 58.48L66.61 58.48C66.68 58.48 66.73 58.53 66.73 58.6L66.73 60.92C66.73 60.93 66.73 60.93 66.73 60.94 66.79 62.39 66.39 64.22 64.17 64.78 64.15 64.78 64.15 64.78 64.14 64.78ZM3.41 61.32C3.42 61.34 3.43 61.36 3.43 61.38 3.48 63.09 4.28 64.16 5.81 64.54L64.12 64.54C66.19 64.01 66.55 62.29 66.48 60.93 66.48 60.92 66.48 60.91 66.48 60.9L66.48 58.72 3.41 58.72 3.41 61.32Z" fill="#1D1D1B"/></g></g><g><g><g><path d="M69.77 58.02 69.73 56.56 0.15 55.76 0.12 57.82 0.14 58.25C0.18 58.92 0.74 59.66 2.86 59.91L67.04 59.91C69.42 59.63 69.84 58.73 69.77 58.02L69.77 58.02Z" fill="#BE6F42"/></g><g><path d="M67.05 60.03 2.87 60.03C0.59 59.77 0.07 58.92 0.03 58.26L0 57.83 0.03 55.76C0.03 55.69 0.09 55.64 0.15 55.64L0.15 55.64 69.73 56.43C69.79 56.43 69.85 56.48 69.85 56.55L69.89 58.01C69.89 58.02 69.89 58.02 69.89 58.03 69.95 58.79 69.51 59.74 67.06 60.02 67.06 60.03 67.05 60.03 67.05 60.03ZM0.28 55.88 0.25 57.82 0.27 58.24C0.32 59.06 1.23 59.59 2.88 59.78L67.04 59.78C68.84 59.57 69.74 58.96 69.64 58.03 69.64 58.02 69.64 58 69.64 57.99L69.61 56.67 0.28 55.88Z" fill="#1D1D1B"/></g></g><g><g><path d="M69.73 56.5 69.58 47.43C69.58 47.43 69.83 45.28 66.75 45.32L41.29 45.32 28.61 45.32 2.33 45.32C0.51 45.25 0.33 46.89 0.33 46.89L0.18 55.68C0.18 55.68-0.16 58.03 2.86 58.33L32.66 58.33 37.24 58.33 67.04 58.33C70.05 58.02 69.73 56.5 69.73 56.5Z" fill="#BE805C"/></g><g><path d="M67.04 58.46 2.86 58.46C1.8 58.36 1.02 58 0.55 57.39-0.06 56.61 0.06 55.7 0.06 55.67L0.21 46.9C0.21 46.87 0.43 45.13 2.34 45.21L66.84 45.21C67.94 45.21 68.75 45.49 69.23 46.04 69.8 46.67 69.72 47.43 69.71 47.46L69.86 56.51 69.86 56.51C69.86 56.51 69.94 56.94 69.61 57.4 69.19 57.98 68.33 58.33 67.06 58.47 67.05 58.46 67.04 58.46 67.04 58.46ZM2.21 45.44C0.62 45.44 0.45 46.85 0.45 46.9L0.3 55.68C0.3 55.7 0.19 56.54 0.74 57.24 1.17 57.79 1.89 58.12 2.87 58.21L67.03 58.21C68.51 58.05 69.14 57.6 69.4 57.25 69.68 56.88 69.62 56.54 69.61 56.53L69.46 47.44C69.46 47.42 69.53 46.74 69.03 46.19 68.59 45.7 67.85 45.45 66.82 45.45L66.75 45.45 2.33 45.45C2.29 45.44 2.25 45.44 2.21 45.44Z" fill="#1D1D1B"/></g></g></g></g><g><g><g><g><path d="M36.38 47.4C36.38 47.4 25.76 44.63 17.45 47.68L15.5 58.8C15.5 58.8 29.91 54.77 36.5 57.58L36.38 47.4Z" fill="#D5D8CE"/></g><g><path d="M15.5 58.92C15.47 58.92 15.44 58.91 15.42 58.89 15.39 58.86 15.37 58.82 15.38 58.78L17.33 47.67C17.34 47.63 17.37 47.59 17.41 47.58 20.01 46.62 23.11 46.14 26.6 46.14 31.92 46.14 36.36 47.28 36.41 47.29 36.46 47.3 36.5 47.35 36.5 47.41L36.62 57.59C36.62 57.63 36.6 57.67 36.57 57.69 36.54 57.71 36.49 57.72 36.45 57.7 34.92 57.05 32.81 56.71 30.2 56.71 23.51 56.71 15.6 58.9 15.52 58.92 15.52 58.92 15.51 58.92 15.5 58.92ZM17.56 47.77 15.65 58.62C16.89 58.29 24.06 56.45 30.21 56.45 32.76 56.45 34.83 56.77 36.38 57.38L36.26 47.48C35.61 47.32 31.47 46.35 26.6 46.35 23.17 46.37 20.12 46.84 17.56 47.77Z" fill="#1D1D1B"/></g></g><g><g><path d="M36.63 47.4C36.63 47.4 47.26 44.63 55.56 47.68L57.52 58.79C57.52 58.79 43.11 54.76 36.51 57.57L36.63 47.4Z" fill="#D5D8CE"/></g><g><path d="M57.51 58.92C57.5 58.92 57.49 58.92 57.48 58.92 57.4 58.9 49.49 56.71 42.8 56.71 40.19 56.71 38.09 57.04 36.55 57.7 36.51 57.72 36.47 57.71 36.44 57.69 36.4 57.67 36.38 57.63 36.38 57.59L36.5 47.4C36.5 47.35 36.54 47.3 36.59 47.28 36.63 47.27 41.09 46.13 46.4 46.13 49.9 46.13 52.99 46.61 55.6 47.57 55.64 47.58 55.67 47.62 55.68 47.66L57.64 58.77C57.65 58.81 57.63 58.85 57.6 58.88 57.57 58.91 57.54 58.92 57.51 58.92ZM42.8 56.46C48.95 56.46 56.12 58.3 57.36 58.63L55.45 47.78C52.89 46.85 49.84 46.38 46.4 46.38 41.53 46.38 37.4 47.34 36.75 47.51L36.63 57.41C38.18 56.77 40.25 56.46 42.8 56.46Z" fill="#1D1D1B"/></g></g></g><g><g><g><path d="M36.38 46.91C36.38 46.91 25.76 44.14 17.45 47.2L15.5 58.31C15.5 58.31 29.91 54.28 36.5 57.09L36.38 46.91Z" fill="#D5D8CE"/></g><g><path d="M15.5 58.43C15.47 58.43 15.44 58.42 15.42 58.4 15.39 58.37 15.37 58.33 15.38 58.29L17.33 47.18C17.34 47.14 17.37 47.1 17.41 47.09 20.01 46.13 23.11 45.65 26.6 45.65 31.92 45.65 36.36 46.79 36.41 46.8 36.46 46.81 36.5 46.86 36.5 46.92L36.62 57.1C36.62 57.14 36.6 57.18 36.57 57.2 36.54 57.22 36.49 57.23 36.45 57.21 34.92 56.56 32.81 56.22 30.2 56.22 23.51 56.22 15.6 58.41 15.52 58.43 15.52 58.43 15.51 58.43 15.5 58.43ZM17.56 47.29 15.65 58.14C16.89 57.81 24.06 55.97 30.21 55.97 32.76 55.97 34.83 56.28 36.38 56.9L36.26 47C35.61 46.84 31.47 45.87 26.6 45.87 23.17 45.88 20.12 46.35 17.56 47.29Z" fill="#1D1D1B"/></g></g><g><g><path d="M36.63 46.91C36.63 46.91 47.26 44.14 55.56 47.2L57.52 58.31C57.52 58.31 43.11 54.28 36.51 57.09L36.63 46.91Z" fill="#D5D8CE"/></g><g><path d="M57.51 58.43C57.5 58.43 57.49 58.43 57.48 58.43 57.4 58.41 49.49 56.22 42.8 56.22 40.19 56.22 38.09 56.55 36.55 57.21 36.51 57.22 36.47 57.22 36.44 57.2 36.4 57.18 36.38 57.14 36.38 57.1L36.5 46.92C36.5 46.86 36.54 46.82 36.59 46.8 36.63 46.79 41.09 45.65 46.4 45.65 49.9 45.65 52.99 46.14 55.6 47.09 55.64 47.1 55.67 47.14 55.68 47.18L57.64 58.29C57.65 58.33 57.63 58.37 57.6 58.4 57.57 58.42 57.54 58.43 57.51 58.43ZM42.8 55.97C48.95 55.97 56.12 57.81 57.36 58.14L55.45 47.29C52.89 46.36 49.84 45.89 46.4 45.89 41.53 45.89 37.4 46.85 36.75 47.02L36.63 56.92C38.18 56.28 40.25 55.97 42.8 55.97Z" fill="#1D1D1B"/></g></g></g><g><g><g><path d="M36.38 46.42C36.38 46.42 25.76 43.65 17.45 46.71L15.5 57.82C15.5 57.82 29.91 53.79 36.5 56.6L36.38 46.42Z" fill="#D5D8CE"/></g><g><path d="M15.5 57.94C15.47 57.94 15.44 57.93 15.42 57.91 15.39 57.88 15.37 57.84 15.38 57.8L17.33 46.69C17.34 46.65 17.37 46.61 17.41 46.6 20.01 45.64 23.11 45.16 26.6 45.16 31.92 45.16 36.36 46.3 36.41 46.31 36.46 46.32 36.5 46.37 36.5 46.43L36.62 56.61C36.62 56.65 36.6 56.69 36.57 56.71 36.54 56.73 36.49 56.74 36.45 56.72 34.92 56.07 32.81 55.73 30.2 55.73 23.51 55.73 15.6 57.92 15.52 57.94 15.52 57.94 15.51 57.94 15.5 57.94ZM17.56 46.8 15.65 57.65C16.89 57.32 24.06 55.48 30.21 55.48 32.76 55.48 34.83 55.79 36.38 56.41L36.26 46.51C35.61 46.35 31.47 45.38 26.6 45.38 23.17 45.39 20.12 45.87 17.56 46.8Z" fill="#1D1D1B"/></g></g><g><g><path d="M36.63 46.42C36.63 46.42 47.26 43.65 55.56 46.71L57.52 57.82C57.52 57.82 43.11 53.79 36.51 56.6L36.63 46.42Z" fill="#D5D8CE"/></g><g><path d="M57.51 57.94C57.5 57.94 57.49 57.94 57.48 57.93 57.4 57.91 49.49 55.72 42.8 55.72 40.19 55.72 38.09 56.05 36.55 56.71 36.51 56.73 36.47 56.72 36.44 56.7 36.4 56.68 36.38 56.64 36.38 56.6L36.5 46.42C36.5 46.36 36.54 46.31 36.59 46.3 36.63 46.29 41.09 45.15 46.4 45.15 49.9 45.15 52.99 45.64 55.6 46.59 55.64 46.6 55.67 46.64 55.68 46.68L57.64 57.79C57.65 57.83 57.63 57.87 57.6 57.9 57.57 57.93 57.54 57.94 57.51 57.94ZM42.8 55.48C48.95 55.48 56.12 57.32 57.36 57.65L55.45 46.8C52.89 45.87 49.84 45.39 46.4 45.39 41.53 45.39 37.4 46.35 36.75 46.52L36.63 56.42C38.18 55.79 40.25 55.48 42.8 55.48Z" fill="#1D1D1B"/></g></g></g><g><g><path d="M36.38 45.93C36.38 45.93 25.76 43.16 17.45 46.22L15.5 57.33C15.5 57.33 29.91 53.3 36.5 56.11L36.38 45.93Z" fill="#EFF9FE"/></g><g><path d="M15.5 57.45C15.47 57.45 15.44 57.44 15.42 57.42 15.39 57.39 15.37 57.35 15.38 57.31L17.33 46.2C17.34 46.16 17.37 46.12 17.41 46.11 20.01 45.15 23.11 44.67 26.6 44.67 31.92 44.67 36.36 45.81 36.41 45.83 36.46 45.84 36.5 45.89 36.5 45.95L36.62 56.13C36.62 56.17 36.6 56.21 36.57 56.23 36.54 56.25 36.49 56.26 36.45 56.24 34.92 55.58 32.81 55.25 30.2 55.25 23.51 55.25 15.6 57.44 15.52 57.46 15.52 57.45 15.51 57.45 15.5 57.45ZM17.56 46.31 15.65 57.17C16.89 56.84 24.06 55 30.21 55 32.76 55 34.83 55.31 36.38 55.93L36.26 46.03C35.61 45.87 31.47 44.9 26.6 44.9 23.17 44.91 20.12 45.38 17.56 46.31Z" fill="#1D1D1B"/></g></g><g><g><path d="M36.46 45.97C36.46 45.97 47.25 43.16 55.55 46.21L57.51 57.32C57.51 57.32 43.1 53.29 36.5 56.1L36.46 45.97Z" fill="#EFF9FE"/></g><g><path d="M57.51 57.45C57.5 57.45 57.49 57.45 57.48 57.45 57.4 57.43 49.49 55.24 42.8 55.24 40.19 55.24 38.09 55.57 36.55 56.23 36.51 56.25 36.47 56.24 36.44 56.22 36.4 56.2 36.38 56.16 36.38 56.12L36.34 45.99C36.34 45.93 36.38 45.89 36.43 45.87 36.47 45.86 41.04 44.69 46.44 44.69 49.94 44.69 53.02 45.17 55.6 46.12 55.64 46.13 55.67 46.17 55.68 46.21L57.64 57.32C57.65 57.36 57.63 57.4 57.6 57.43 57.57 57.44 57.54 57.45 57.51 57.45ZM42.8 54.99C48.95 54.99 56.12 56.83 57.36 57.16L55.45 46.3C52.91 45.38 49.88 44.91 46.44 44.91 41.49 44.91 37.26 45.9 36.59 46.06L36.63 55.92C38.17 55.31 40.25 54.99 42.8 54.99Z" fill="#1D1D1B"/></g></g></g><g><g><path d="M24.7 51.92C24.64 51.92 24.57 51.89 24.53 51.85 23.99 51.3 19.27 46.41 19.05 45 18.83 43.61 19.79 36.68 19.83 36.39 19.85 36.26 19.97 36.16 20.1 36.18 20.23 36.2 20.33 36.32 20.31 36.46 20.3 36.53 19.32 43.61 19.53 44.93 19.68 45.88 22.81 49.39 24.88 51.51 24.98 51.61 24.98 51.76 24.88 51.85 24.82 51.89 24.76 51.92 24.7 51.92Z" fill="#1D1D1B"/></g><g><g><path d="M19.79 38.84C19.01 38.69 18.13 38.45 17.35 38.06 17.5 36.88 17.73 35.71 18.06 34.57 18.52 32.98 18.87 31.1 20.06 29.86 20.97 28.91 22.66 28.28 23.47 29.75 24.55 31.73 24.25 34.3 24 36.46 23.98 36.6 23.9 37.72 23.79 38.52 22.5 38.91 21.13 39.1 19.79 38.84Z" fill="#CC0B19"/></g><g><path d="M21.08 39.08C20.63 39.08 20.19 39.04 19.77 38.96 18.78 38.76 17.98 38.51 17.3 38.17 17.26 38.15 17.23 38.1 17.23 38.05 17.39 36.8 17.64 35.62 17.95 34.54 18.02 34.29 18.09 34.04 18.16 33.78 18.55 32.34 18.95 30.85 19.98 29.79 20.46 29.29 21.26 28.77 22.09 28.77 22.73 28.77 23.25 29.09 23.58 29.71 24.67 31.7 24.37 34.33 24.14 36.43L24.13 36.49C24.12 36.52 24.12 36.62 24.11 36.75 24.08 37.17 24.01 37.95 23.92 38.56 23.91 38.61 23.88 38.65 23.84 38.66 22.83 38.94 21.93 39.08 21.08 39.08ZM17.48 37.99C18.12 38.29 18.9 38.54 19.81 38.72 20.97 38.95 22.23 38.85 23.69 38.43 23.76 37.84 23.83 37.11 23.86 36.71 23.87 36.58 23.88 36.48 23.88 36.45L23.89 36.39C24.14 34.21 24.42 31.74 23.36 29.81 23.07 29.27 22.64 29 22.08 29 21.46 29 20.7 29.37 20.15 29.95 19.17 30.97 18.77 32.43 18.39 33.84 18.32 34.1 18.25 34.36 18.18 34.61 17.87 35.64 17.64 36.78 17.48 37.99Z" fill="#1D1D1B"/></g></g><g><path d="M20.06 29.86C20.97 28.91 22.66 28.28 23.47 29.75 23.47 29.75 23.47 29.76 23.48 29.76 22.98 29.65 22.41 29.77 21.83 30.22 20.8 31.02 20.49 32.79 20.31 33.97 20.06 35.58 19.88 37.2 19.68 38.81 18.93 38.65 18.09 38.43 17.35 38.06 17.5 36.88 17.73 35.71 18.06 34.57 18.52 32.98 18.87 31.09 20.06 29.86Z" fill="#CC0B19"/></g><g><g><g><path d="M28.78 53.39C28.94 53.47 29.15 53.5 29.32 53.56 29.52 53.62 29.72 53.68 29.92 53.74 30.19 53.81 30.46 53.88 30.73 53.92 30.89 53.94 31.2 54 31.31 53.84 31.52 53.53 30.9 53.2 30.69 53.08 30.24 52.8 29.52 52.55 28.94 52.34 29.93 52.43 31.19 52.38 30.96 51.82 30.78 51.37 30.15 51.28 29.75 51.18 29.49 51.12 29.23 51.08 28.97 51.05 28.95 51.04 28.92 51.04 28.9 51.04 28.31 50.94 27.72 50.9 27.13 50.88 27.45 50.89 28.52 50.39 28.58 50.07 28.69 49.51 27.82 49.68 27.5 49.73 26.54 49.88 25 50.69 24.69 51.63 24.13 53.34 24.63 54.27 27.77 55.7 28.18 55.89 29.19 56.65 29.63 56.39 30.16 56.08 29.27 55.36 29.06 55.16 28.82 54.92 28.55 54.72 28.32 54.47 28.29 54.44 28.26 54.41 28.23 54.37 28.74 54.65 30.83 55.5 30.99 55.2 31.3 54.66 29.65 53.82 28.78 53.39Z" fill="#F9D8B7"/></g><g><path d="M29.41 56.55C29.02 56.55 28.51 56.25 28.1 56.01 27.95 55.92 27.81 55.84 27.72 55.8 24.66 54.41 23.96 53.46 24.58 51.58 24.91 50.59 26.49 49.76 27.49 49.6L27.54 49.59C27.68 49.57 27.9 49.53 28.1 49.53 28.36 49.53 28.54 49.59 28.64 49.71 28.72 49.8 28.74 49.93 28.71 50.08 28.66 50.32 28.25 50.6 27.84 50.78 28.19 50.8 28.56 50.84 28.93 50.91 28.95 50.91 28.97 50.92 29 50.92 29.28 50.95 29.54 50.99 29.79 51.05L29.92 51.08C30.33 51.17 30.9 51.3 31.08 51.76 31.15 51.93 31.1 52.06 31.05 52.14 30.9 52.37 30.45 52.48 29.73 52.49 30.12 52.64 30.48 52.8 30.75 52.96L30.81 53C31.1 53.17 31.4 53.37 31.46 53.62 31.48 53.72 31.46 53.82 31.4 53.9 31.33 54.01 31.2 54.06 31.01 54.06 30.91 54.06 30.8 54.04 30.73 54.03 30.45 53.99 30.18 53.92 29.93 53.85 30.56 54.22 31.04 54.58 31.14 54.91 31.18 55.03 31.16 55.14 31.11 55.24 31.04 55.36 30.88 55.37 30.82 55.37L30.82 55.37C30.4 55.37 29.49 55.04 28.84 54.76 28.95 54.86 29.06 54.95 29.16 55.05 29.18 55.07 29.21 55.1 29.25 55.13 29.59 55.45 29.96 55.82 29.93 56.16 29.92 56.25 29.87 56.38 29.71 56.48 29.62 56.53 29.52 56.55 29.41 56.55ZM28.1 49.78C27.92 49.78 27.72 49.81 27.59 49.84L27.53 49.85C26.62 50 25.11 50.77 24.82 51.66 24.3 53.22 24.61 54.12 27.83 55.58 27.94 55.63 28.08 55.71 28.24 55.8 28.6 56.02 29.1 56.31 29.42 56.31 29.48 56.31 29.54 56.3 29.58 56.27 29.67 56.22 29.68 56.17 29.68 56.14 29.71 55.9 29.27 55.49 29.08 55.32 29.04 55.28 29.01 55.25 28.99 55.23 28.89 55.13 28.78 55.04 28.68 54.94 28.53 54.81 28.38 54.68 28.25 54.53L28.16 54.43C28.12 54.39 28.12 54.32 28.16 54.27 28.2 54.22 28.26 54.21 28.31 54.24 28.74 54.48 30.31 55.12 30.83 55.12L30.83 55.12C30.9 55.12 30.92 55.11 30.92 55.11 30.93 55.08 30.93 55.04 30.92 54.99 30.78 54.51 29.35 53.8 28.74 53.5L28.74 53.5 28.74 53.5C28.68 53.47 28.66 53.4 28.68 53.33 28.71 53.27 28.79 53.25 28.84 53.27 28.93 53.32 29.05 53.35 29.17 53.38 29.24 53.4 29.3 53.42 29.36 53.43 29.57 53.5 29.76 53.56 29.95 53.61 30.21 53.68 30.49 53.75 30.75 53.79 30.95 53.82 31.17 53.83 31.21 53.77 31.23 53.74 31.24 53.71 31.23 53.68 31.19 53.51 30.84 53.3 30.69 53.22L30.63 53.18C30.21 52.92 29.54 52.68 28.9 52.46 28.84 52.44 28.81 52.38 28.82 52.32 28.83 52.26 28.88 52.22 28.95 52.22 29.2 52.24 29.46 52.26 29.68 52.26 30.6 52.26 30.8 52.07 30.84 52.02 30.86 51.99 30.88 51.95 30.84 51.87 30.7 51.53 30.21 51.42 29.85 51.34L29.71 51.31C29.47 51.25 29.22 51.21 28.94 51.18 28.9 51.17 28.88 51.17 28.86 51.17 28.25 51.06 27.64 51.03 27.11 51.01 27.04 51.01 26.99 50.95 26.99 50.88 26.99 50.81 27.05 50.77 27.12 50.76L27.12 50.76C27.45 50.76 28.4 50.28 28.45 50.05 28.47 49.94 28.44 49.9 28.43 49.89 28.4 49.81 28.28 49.78 28.1 49.78Z" fill="#1D1D1B"/></g></g></g></g><g><path d="M37.16 47.85C37.07 47.85 36.99 47.81 36.95 47.72 36.88 47.6 36.93 47.45 37.04 47.39 38.11 46.81 40.93 45.07 41.11 44.06 41.27 43.17 37.64 39.18 35.32 36.87 35.22 36.77 35.22 36.62 35.32 36.53 35.42 36.43 35.57 36.43 35.67 36.53 36.71 37.56 41.85 42.76 41.6 44.16 41.34 45.58 37.7 47.6 37.28 47.83 37.24 47.84 37.2 47.85 37.16 47.85Z" fill="#1D1D1B"/></g><g><g><g><path d="M32.25 51.33C32.46 51.59 34.38 50.41 34.84 50.05 34.81 50.09 34.79 50.12 34.77 50.16 34.59 50.44 34.35 50.69 34.16 50.97 33.99 51.21 33.24 52.07 33.81 52.28 34.29 52.47 35.15 51.54 35.53 51.29 38.38 49.36 38.72 48.35 37.88 46.76 37.42 45.88 35.77 45.35 34.8 45.36 34.47 45.36 33.58 45.34 33.79 45.87 33.9 46.18 35.04 46.49 35.35 46.43 34.77 46.55 34.2 46.69 33.64 46.88 33.62 46.89 33.6 46.9 33.57 46.91 33.32 46.98 33.07 47.07 32.82 47.17 32.45 47.33 31.83 47.53 31.73 48 31.6 48.59 32.85 48.43 33.81 48.18 33.27 48.48 32.61 48.85 32.21 49.2 32.03 49.36 31.47 49.78 31.73 50.06 31.86 50.19 32.16 50.09 32.31 50.04 32.57 49.96 32.83 49.84 33.09 49.72 33.28 49.63 33.46 49.54 33.65 49.45 33.81 49.37 34.01 49.3 34.15 49.2 33.36 49.76 31.87 50.86 32.25 51.33Z" fill="#F9D8B7"/></g><g><path d="M33.94 52.42C33.88 52.42 33.81 52.41 33.76 52.39 33.58 52.32 33.51 52.2 33.49 52.12 33.4 51.8 33.7 51.37 33.99 50.99 34.02 50.95 34.05 50.92 34.06 50.89 34.14 50.78 34.23 50.67 34.32 50.56 33.67 50.98 32.73 51.5 32.36 51.5L32.36 51.5C32.27 51.5 32.2 51.47 32.15 51.41 32.08 51.33 32.05 51.22 32.07 51.1 32.11 50.76 32.52 50.32 33.08 49.86 32.85 49.96 32.6 50.08 32.34 50.16 32.11 50.24 31.78 50.3 31.63 50.15 31.56 50.07 31.52 49.98 31.53 49.88 31.55 49.62 31.82 49.37 32.07 49.16L32.12 49.12C32.36 48.91 32.71 48.69 33.05 48.48 32.82 48.52 32.58 48.54 32.36 48.54 32.01 48.54 31.78 48.47 31.67 48.33 31.62 48.26 31.56 48.16 31.6 47.99 31.7 47.51 32.24 47.29 32.63 47.12L32.75 47.07C32.99 46.97 33.24 46.88 33.51 46.8 33.54 46.79 33.56 46.78 33.57 46.77 33.92 46.65 34.28 46.55 34.62 46.46 34.2 46.35 33.73 46.15 33.64 45.91 33.57 45.72 33.62 45.59 33.67 45.51 33.85 45.26 34.3 45.23 34.72 45.23L34.78 45.23 34.78 45.23C35.78 45.23 37.48 45.75 37.97 46.69 38.89 48.44 38.36 49.49 35.58 51.37 35.49 51.43 35.38 51.53 35.24 51.64 34.85 52 34.35 52.42 33.94 52.42ZM34.84 49.93C34.87 49.93 34.9 49.94 34.92 49.96 34.96 50 34.97 50.07 34.94 50.12L34.87 50.23C34.77 50.4 34.64 50.56 34.52 50.71 34.43 50.82 34.34 50.93 34.26 51.04 34.24 51.07 34.22 51.1 34.18 51.14 34.03 51.34 33.66 51.82 33.73 52.05 33.74 52.08 33.76 52.13 33.85 52.16 34.14 52.27 34.71 51.8 35.1 51.47 35.24 51.35 35.37 51.25 35.46 51.18 38.39 49.2 38.54 48.27 37.77 46.81 37.33 45.98 35.75 45.48 34.81 45.48L34.73 45.48C34.51 45.48 34 45.48 33.89 45.65 33.88 45.67 33.85 45.71 33.89 45.82 33.96 46 34.8 46.31 35.24 46.31 35.27 46.31 35.3 46.31 35.32 46.3 35.38 46.29 35.45 46.33 35.46 46.4 35.47 46.46 35.43 46.53 35.37 46.54 34.85 46.65 34.25 46.79 33.67 46.99L33.63 47C33.63 47 33.6 47.01 33.6 47.01 33.33 47.09 33.09 47.17 32.86 47.27L32.73 47.32C32.39 47.46 31.92 47.65 31.85 48.01 31.83 48.09 31.85 48.13 31.87 48.15 31.91 48.19 32.02 48.27 32.37 48.27 32.85 48.27 33.46 48.13 33.78 48.05 33.84 48.03 33.9 48.06 33.92 48.12 33.94 48.18 33.92 48.24 33.87 48.27 33.4 48.53 32.69 48.92 32.29 49.27L32.24 49.31C32.11 49.42 31.8 49.68 31.78 49.86 31.78 49.89 31.79 49.92 31.82 49.95 31.84 49.97 31.89 49.98 31.92 49.98 32.03 49.98 32.16 49.93 32.25 49.91 32.53 49.82 32.8 49.7 33.03 49.59 33.21 49.51 33.38 49.42 33.55 49.34L33.58 49.32C33.64 49.29 33.7 49.26 33.76 49.23 33.87 49.18 33.98 49.13 34.06 49.07 34.11 49.03 34.19 49.04 34.23 49.1 34.27 49.15 34.26 49.23 34.2 49.27 33.65 49.67 32.36 50.61 32.3 51.11 32.29 51.16 32.3 51.21 32.33 51.24 32.75 51.23 34.31 50.29 34.74 49.94 34.78 49.93 34.81 49.93 34.84 49.93Z" fill="#1D1D1B"/></g></g></g></g></svg>