<svg width="229.33" height="167.65" viewBox="0 0 229.33 167.65" xmlns="http://www.w3.org/2000/svg" xmlns:xlink="http://www.w3.org/1999/xlink" xml:space="preserve" overflow="hidden"><defs></defs><g><g><ellipse cx="114.67" cy="162" rx="114.67" ry="5.64" fill="#679166"/></g><g><g><g><g><path d="M48.26 76.64 12.47 76.64C9.92 76.64 7.86 74.58 7.86 72.03L7.86 56.78C7.86 56.72 7.86 56.67 7.87 56.62 7.88 56.56 7.88 56.5 7.89 56.44 7.96 56.02 8.14 55.62 8.42 55.3 11.46 51.87 15.08 49.05 19.08 46.96 23.08 44.87 27.45 43.49 32.01 42.95L40.21 41.97 43.57 56.45 44.81 61.81 48.26 76.64Z" fill="#FBC10D"/></g></g><g><g><g><path d="M16.63 66.99 7.86 66.99 7.86 56.79 8.02 56.63 12.13 56.63C12.7 56.63 13.23 56.92 13.53 57.4L17.94 64.32 18.02 64.44C18.74 65.53 17.94 66.99 16.63 66.99Z" fill="#E75860"/></g></g><g><g><path d="M16.63 66.99 7.86 66.99 7.86 64.3 17.95 64.3 18.03 64.42C18.74 65.53 17.94 66.99 16.63 66.99Z" fill="#D83F4E"/></g></g></g></g><g><g><path d="M22.57 102.33C22.2 103.75 11.04 132.2 11.04 132.2L13.98 132.58 32.85 103.67 22.57 102.33Z" fill="#272443"/></g></g><g><g><path d="M49.51 76.64 42.72 76.64 35.64 42.39C35.33 40.87 36.51 39.46 38.08 39.46L39.79 39.46C40.98 39.46 42 40.28 42.23 41.42L49.51 76.64Z" fill="#272443"/></g></g><g><g><g><g><g><g><ellipse cx="45.04" cy="141.7" rx="18.42" ry="18.42" fill="#3C3C70" transform="matrix(0.0982 -0.9952 0.9952 0.0982 -100.396 172.615)"/></g></g></g><g><g><g><g><g><g><path d="M46 124.61 44.08 124.61C43.95 124.61 43.85 124.51 43.85 124.38L43.85 122.99C43.85 122.86 43.95 122.76 44.08 122.76L46 122.76C46.13 122.76 46.23 122.86 46.23 122.99L46.23 124.38C46.24 124.51 46.13 124.61 46 124.61Z" fill="#3C3C70"/></g></g></g><g><g><g><path d="M46 160.65 44.08 160.65C43.95 160.65 43.85 160.55 43.85 160.42L43.85 159.03C43.85 158.9 43.95 158.8 44.08 158.8L46 158.8C46.13 158.8 46.23 158.9 46.23 159.03L46.23 160.42C46.24 160.54 46.13 160.65 46 160.65Z" fill="#3C3C70"/></g></g></g></g><g><g><g><g><path d="M62.14 142.66 62.14 140.74C62.14 140.61 62.24 140.51 62.37 140.51L63.76 140.51C63.89 140.51 63.99 140.61 63.99 140.74L63.99 142.66C63.99 142.79 63.89 142.89 63.76 142.89L62.37 142.89C62.24 142.89 62.14 142.79 62.14 142.66Z" fill="#3C3C70"/></g></g></g><g><g><g><path d="M26.1 142.66 26.1 140.74C26.1 140.61 26.2 140.51 26.33 140.51L27.72 140.51C27.85 140.51 27.95 140.61 27.95 140.74L27.95 142.66C27.95 142.79 27.85 142.89 27.72 142.89L26.33 142.89C26.2 142.89 26.1 142.79 26.1 142.66Z" fill="#3C3C70"/></g></g></g></g><g><g><g><g><path d="M56.45 154.47 57.81 153.11C57.9 153.02 58.05 153.02 58.14 153.11L59.12 154.09C59.21 154.18 59.21 154.33 59.12 154.42L57.76 155.78C57.67 155.87 57.52 155.87 57.43 155.78L56.45 154.8C56.36 154.7 56.36 154.56 56.45 154.47Z" fill="#3C3C70"/></g></g></g><g><g><g><path d="M30.97 128.98 32.33 127.62C32.42 127.53 32.57 127.53 32.66 127.62L33.64 128.6C33.73 128.69 33.73 128.84 33.64 128.93L32.28 130.29C32.19 130.38 32.04 130.38 31.95 130.29L30.97 129.31C30.88 129.22 30.88 129.07 30.97 128.98Z" fill="#3C3C70"/></g></g></g></g><g><g><g><g><path d="M32.28 153.11 33.64 154.47C33.73 154.56 33.73 154.71 33.64 154.8L32.66 155.78C32.57 155.87 32.42 155.87 32.33 155.78L30.97 154.42C30.88 154.33 30.88 154.18 30.97 154.09L31.95 153.11C32.04 153.02 32.19 153.02 32.28 153.11Z" fill="#3C3C70"/></g></g></g><g><g><g><path d="M57.76 127.63 59.12 128.99C59.21 129.08 59.21 129.23 59.12 129.32L58.14 130.3C58.05 130.39 57.9 130.39 57.81 130.3L56.45 128.94C56.36 128.85 56.36 128.7 56.45 128.61L57.43 127.63C57.52 127.53 57.67 127.53 57.76 127.63Z" fill="#3C3C70"/></g></g></g></g></g><g><g><g><g><g><path d="M49.24 125.11 47.36 124.74C47.23 124.72 47.15 124.59 47.18 124.47L47.44 123.11C47.46 122.98 47.59 122.9 47.71 122.93L49.59 123.3C49.72 123.32 49.8 123.45 49.77 123.57L49.51 124.93C49.49 125.05 49.37 125.13 49.24 125.11Z" fill="#3C3C70"/></g></g></g><g><g><g><path d="M42.37 160.48 40.49 160.11C40.36 160.09 40.28 159.96 40.31 159.84L40.58 158.48C40.6 158.35 40.73 158.27 40.85 158.3L42.73 158.67C42.86 158.69 42.94 158.82 42.91 158.94L42.64 160.3C42.62 160.43 42.5 160.51 42.37 160.48Z" fill="#3C3C70"/></g></g></g></g><g><g><g><g><path d="M61.64 145.9 62.01 144.02C62.03 143.89 62.16 143.81 62.28 143.84L63.64 144.1C63.77 144.12 63.85 144.25 63.82 144.37L63.45 146.25C63.43 146.38 63.3 146.46 63.18 146.43L61.82 146.17C61.7 146.15 61.61 146.03 61.64 145.9Z" fill="#3C3C70"/></g></g></g><g><g><g><path d="M26.26 139.03 26.63 137.15C26.65 137.02 26.78 136.94 26.9 136.97L28.26 137.23C28.39 137.25 28.47 137.38 28.44 137.5L28.07 139.38C28.05 139.51 27.92 139.59 27.8 139.56L26.44 139.3C26.32 139.28 26.24 139.16 26.26 139.03Z" fill="#3C3C70"/></g></g></g></g><g><g><g><g><path d="M53.81 156.41 55.4 155.34C55.51 155.27 55.65 155.3 55.72 155.4L56.5 156.55C56.57 156.66 56.54 156.8 56.44 156.87L54.85 157.94C54.74 158.01 54.6 157.98 54.53 157.88L53.75 156.73C53.67 156.62 53.7 156.48 53.81 156.41Z" fill="#3C3C70"/></g></g></g><g><g><g><path d="M33.65 126.53 35.24 125.46C35.35 125.39 35.49 125.42 35.56 125.52L36.34 126.67C36.41 126.78 36.38 126.92 36.28 126.99L34.69 128.06C34.58 128.13 34.44 128.1 34.37 128L33.59 126.85C33.52 126.75 33.54 126.6 33.65 126.53Z" fill="#3C3C70"/></g></g></g></g><g><g><g><g><path d="M30.34 150.47 31.41 152.06C31.48 152.17 31.45 152.31 31.35 152.38L30.2 153.16C30.09 153.23 29.95 153.2 29.88 153.1L28.81 151.51C28.74 151.4 28.77 151.26 28.87 151.19L30.02 150.41C30.12 150.33 30.27 150.36 30.34 150.47Z" fill="#3C3C70"/></g></g></g><g><g><g><path d="M60.21 130.31 61.28 131.9C61.35 132.01 61.32 132.15 61.22 132.22L60.07 133C59.96 133.07 59.82 133.04 59.75 132.94L58.68 131.35C58.61 131.24 58.64 131.1 58.74 131.03L59.89 130.25C60 130.17 60.14 130.2 60.21 130.31Z" fill="#3C3C70"/></g></g></g></g></g><g><g><g><g><g><path d="M52.43 126.26 50.65 125.53C50.53 125.48 50.47 125.35 50.52 125.23L51.05 123.94C51.1 123.82 51.23 123.76 51.35 123.81L53.13 124.54C53.25 124.59 53.31 124.72 53.26 124.84L52.73 126.13C52.69 126.25 52.55 126.31 52.43 126.26Z" fill="#3C3C70"/></g></g></g><g><g><g><path d="M38.73 159.59 36.95 158.86C36.83 158.81 36.77 158.68 36.82 158.56L37.35 157.27C37.4 157.15 37.53 157.09 37.65 157.14L39.43 157.87C39.55 157.92 39.61 158.05 39.56 158.17L39.03 159.46C38.98 159.58 38.84 159.64 38.73 159.59Z" fill="#3C3C70"/></g></g></g></g><g><g><g><g><path d="M60.49 149.09 61.22 147.31C61.27 147.19 61.4 147.13 61.52 147.18L62.81 147.71C62.93 147.76 62.99 147.89 62.94 148.01L62.21 149.79C62.16 149.91 62.03 149.97 61.91 149.92L60.62 149.39C60.49 149.34 60.44 149.21 60.49 149.09Z" fill="#3C3C70"/></g></g></g><g><g><g><path d="M27.16 135.38 27.89 133.6C27.94 133.48 28.07 133.42 28.19 133.47L29.48 134C29.6 134.05 29.66 134.18 29.61 134.3L28.88 136.08C28.83 136.2 28.7 136.26 28.58 136.21L27.29 135.68C27.16 135.64 27.11 135.5 27.16 135.38Z" fill="#3C3C70"/></g></g></g></g><g><g><g><g><path d="M50.74 157.85 52.51 157.11C52.63 157.06 52.76 157.12 52.81 157.24L53.35 158.52C53.4 158.64 53.34 158.77 53.22 158.82L51.45 159.56C51.33 159.61 51.2 159.55 51.15 159.43L50.61 158.15C50.56 158.03 50.62 157.89 50.74 157.85Z" fill="#3C3C70"/></g></g></g><g><g><g><path d="M36.86 124.59 38.63 123.85C38.75 123.8 38.88 123.86 38.93 123.98L39.47 125.26C39.52 125.38 39.46 125.51 39.34 125.56L37.57 126.3C37.45 126.35 37.32 126.29 37.27 126.17L36.73 124.89C36.69 124.77 36.74 124.63 36.86 124.59Z" fill="#3C3C70"/></g></g></g></g><g><g><g><g><path d="M28.9 147.4 29.64 149.17C29.69 149.29 29.63 149.42 29.51 149.47L28.23 150.01C28.11 150.06 27.98 150 27.93 149.88L27.19 148.11C27.14 147.99 27.2 147.86 27.32 147.81L28.6 147.27C28.71 147.22 28.85 147.28 28.9 147.4Z" fill="#3C3C70"/></g></g></g><g><g><g><path d="M62.16 133.52 62.9 135.29C62.95 135.41 62.89 135.54 62.77 135.59L61.49 136.13C61.37 136.18 61.24 136.12 61.19 136L60.45 134.23C60.4 134.11 60.46 133.98 60.58 133.93L61.86 133.4C61.97 133.35 62.11 133.4 62.16 133.52Z" fill="#3C3C70"/></g></g></g></g></g><g><g><g><g><g><path d="M55.35 128.03 53.75 126.96C53.64 126.89 53.61 126.74 53.69 126.64L54.46 125.48C54.53 125.37 54.68 125.34 54.78 125.42L56.38 126.49C56.49 126.56 56.52 126.71 56.44 126.81L55.67 127.96C55.6 128.08 55.46 128.1 55.35 128.03Z" fill="#3C3C70"/></g></g></g><g><g><g><path d="M35.3 157.98 33.7 156.91C33.59 156.84 33.56 156.69 33.64 156.59L34.41 155.43C34.48 155.32 34.63 155.29 34.73 155.37L36.33 156.44C36.44 156.51 36.47 156.66 36.39 156.76L35.62 157.92C35.55 158.02 35.41 158.05 35.3 157.98Z" fill="#3C3C70"/></g></g></g></g><g><g><g><g><path d="M58.71 152.01 59.78 150.41C59.85 150.3 60 150.27 60.1 150.35L61.26 151.12C61.37 151.19 61.4 151.34 61.32 151.44L60.25 153.04C60.18 153.15 60.03 153.18 59.93 153.1L58.78 152.33C58.67 152.26 58.64 152.11 58.71 152.01Z" fill="#3C3C70"/></g></g></g><g><g><g><path d="M28.77 131.96 29.84 130.36C29.91 130.25 30.06 130.22 30.16 130.3L31.32 131.07C31.43 131.14 31.46 131.29 31.38 131.39L30.31 132.99C30.24 133.1 30.09 133.13 29.99 133.05L28.83 132.28C28.72 132.21 28.69 132.07 28.77 131.96Z" fill="#3C3C70"/></g></g></g></g><g><g><g><g><path d="M47.42 158.65 49.3 158.28C49.43 158.26 49.55 158.34 49.57 158.46L49.84 159.82C49.86 159.95 49.78 160.07 49.66 160.09L47.78 160.46C47.65 160.48 47.53 160.4 47.51 160.28L47.24 158.92C47.21 158.8 47.3 158.68 47.42 158.65Z" fill="#3C3C70"/></g></g></g><g><g><g><path d="M40.42 123.3 42.3 122.93C42.43 122.9 42.55 122.99 42.57 123.11L42.84 124.47C42.86 124.6 42.78 124.72 42.66 124.74L40.78 125.11C40.65 125.13 40.53 125.05 40.51 124.93L40.24 123.57C40.21 123.45 40.3 123.33 40.42 123.3Z" fill="#3C3C70"/></g></g></g></g><g><g><g><g><path d="M28.09 144.08 28.46 145.96C28.48 146.09 28.4 146.21 28.28 146.23L26.92 146.5C26.79 146.52 26.67 146.44 26.65 146.32L26.28 144.44C26.26 144.31 26.34 144.19 26.46 144.17L27.82 143.9C27.94 143.87 28.07 143.95 28.09 144.08Z" fill="#3C3C70"/></g></g></g><g><g><g><path d="M63.44 137.08 63.81 138.96C63.83 139.09 63.75 139.21 63.63 139.23L62.27 139.5C62.14 139.52 62.02 139.44 62 139.32L61.63 137.44C61.61 137.31 61.69 137.19 61.81 137.17L63.17 136.9C63.3 136.87 63.42 136.95 63.44 137.08Z" fill="#3C3C70"/></g></g></g></g></g></g></g><g><g><g><path d="M59.09 141.7C59.09 149.46 52.8 155.74 45.05 155.74 37.29 155.74 31.01 149.45 31.01 141.7 31.01 133.94 37.3 127.66 45.05 127.66 52.8 127.66 59.09 133.94 59.09 141.7Z" fill="#D9E3F9"/></g></g></g><g><g><g><g><path d="M55.37 138.54C55.57 138.44 55.77 138.35 55.97 138.25 54.51 133.62 50.19 130.25 45.09 130.23 45.12 130.45 45.15 130.67 45.18 130.9 49.98 130.97 54.03 134.17 55.37 138.54Z" fill="#98BAF4"/></g></g><g><g><path d="M55.1 145.63C55.3 145.74 55.48 145.87 55.66 146.02 56.2 144.69 56.5 143.23 56.5 141.71 56.5 141.48 56.49 141.25 56.48 141.02 56.26 141.08 56.05 141.15 55.83 141.2 55.84 141.37 55.84 141.54 55.84 141.71 55.84 143.09 55.58 144.41 55.1 145.63Z" fill="#98BAF4"/></g></g><g><g><path d="M54.24 147.36C52.72 149.82 50.25 151.62 47.34 152.26 47.35 152.48 47.36 152.71 47.38 152.93 50.46 152.29 53.09 150.41 54.72 147.84 54.55 147.68 54.39 147.52 54.24 147.36Z" fill="#98BAF4"/></g></g><g><g><path d="M34.5 139.37C34.29 139.34 34.07 139.29 33.85 139.25 33.68 140.04 33.58 140.86 33.58 141.7 33.58 143.64 34.06 145.47 34.92 147.07 35.11 146.95 35.29 146.83 35.48 146.71 34.69 145.21 34.25 143.51 34.25 141.7 34.25 140.9 34.33 140.12 34.5 139.37Z" fill="#98BAF4"/></g></g><g><g><path d="M43.23 130.38C39.62 130.96 36.57 133.23 34.91 136.35 35.12 136.43 35.32 136.52 35.52 136.61 37.08 133.71 39.93 131.6 43.29 131.05 43.27 130.83 43.25 130.61 43.23 130.38Z" fill="#98BAF4"/></g></g><g><g><path d="M36.58 148.4C36.4 148.53 36.22 148.66 36.05 148.8 38.08 151.37 41.19 153.06 44.69 153.16 44.7 152.94 44.69 152.72 44.69 152.49 41.41 152.39 38.49 150.81 36.58 148.4Z" fill="#98BAF4"/></g></g></g></g><g><g><g><g><path d="M39.75 147.17C39.88 146.99 40.01 146.81 40.14 146.63 38.87 145.37 38.09 143.63 38.09 141.7 38.09 140.14 38.61 138.7 39.48 137.54 39.38 137.42 39.28 137.3 39.2 137.2 39.15 137.14 39.11 137.07 39.06 137.01 38.04 138.31 37.43 139.94 37.43 141.71 37.43 143.85 38.32 145.79 39.75 147.17Z" fill="#98BAF4"/></g></g><g><g><path d="M50.21 136.11C48.85 134.86 47.04 134.09 45.05 134.09 43.72 134.09 42.46 134.44 41.37 135.04 41.49 135.23 41.6 135.42 41.71 135.61 42.7 135.06 43.84 134.75 45.05 134.75 46.83 134.75 48.45 135.42 49.68 136.52 49.84 136.37 50.02 136.23 50.21 136.11Z" fill="#98BAF4"/></g></g><g><g><path d="M51.58 139.32C51.85 140.06 52 140.86 52 141.7 52 142.88 51.71 143.99 51.19 144.96 51.39 145.06 51.58 145.18 51.76 145.31 52.34 144.24 52.67 143.01 52.67 141.7 52.67 140.72 52.48 139.79 52.15 138.93 51.96 139.07 51.77 139.2 51.58 139.32Z" fill="#98BAF4"/></g></g><g><g><path d="M49.92 146.65C48.66 147.89 46.94 148.65 45.04 148.65 44.68 148.65 44.33 148.62 43.98 148.57 43.98 148.79 43.96 149.01 43.93 149.23 44.29 149.28 44.66 149.31 45.04 149.31 47.14 149.31 49.05 148.45 50.43 147.07 50.27 146.94 50.1 146.79 49.92 146.65Z" fill="#98BAF4"/></g></g></g></g><g><g><g><path d="M49.28 141.7C49.28 144.04 47.38 145.94 45.04 145.94 42.7 145.94 40.8 144.04 40.8 141.7 40.8 139.36 42.7 137.46 45.04 137.46 47.39 137.46 49.28 139.36 49.28 141.7Z" fill="#98BAF4"/></g></g></g><g><g><g><path d="M45.04 144.82C43.32 144.82 41.93 143.42 41.93 141.71 41.93 139.99 43.33 138.6 45.04 138.6 46.76 138.6 48.15 140 48.15 141.71 48.16 143.42 46.76 144.82 45.04 144.82ZM45.04 139.25C43.69 139.25 42.59 140.35 42.59 141.7 42.59 143.05 43.69 144.15 45.04 144.15 46.39 144.15 47.49 143.05 47.49 141.7 47.49 140.35 46.4 139.25 45.04 139.25Z" fill="#D9E3F9"/></g></g></g></g><g><g><path d="M79.21 133.26C77.83 130.3 75.03 128.11 72.09 126.8 69.5 125.64 67.16 123.6 64.71 122.14 59.6 119.09 54.24 116.48 48.88 113.9 45.6 112.32 41.26 110.43 37.72 112.33 34.34 114.14 32.07 118.68 30.78 122.14 30.52 122.84 30.31 123.56 30.28 124.3 30.11 128.53 34.02 128.32 36.96 129.57 41.14 131.36 45.64 132.21 49.89 133.81 53.23 135.06 56.39 136.75 59.71 138.05 63.2 139.41 66.64 139.82 70.34 140.05 72.94 140.21 77 140.47 78.86 138.26 80 136.9 79.95 134.86 79.21 133.26Z" fill="#272443"/></g></g><g><g><g><g><g><g><g><path d="M222.72 141.7C222.72 151.87 214.47 160.12 204.3 160.12 194.13 160.12 185.88 151.87 185.88 141.7 185.88 131.53 194.13 123.28 204.3 123.28 214.48 123.28 222.72 131.53 222.72 141.7Z" fill="#3C3C70"/></g></g></g><g><g><g><g><g><g><path d="M205.27 124.61 203.35 124.61C203.22 124.61 203.12 124.51 203.12 124.38L203.12 122.99C203.12 122.86 203.22 122.76 203.35 122.76L205.27 122.76C205.4 122.76 205.5 122.86 205.5 122.99L205.5 124.38C205.5 124.51 205.39 124.61 205.27 124.61Z" fill="#3C3C70"/></g></g></g><g><g><g><path d="M205.27 160.65 203.35 160.65C203.22 160.65 203.12 160.55 203.12 160.42L203.12 159.03C203.12 158.9 203.22 158.8 203.35 158.8L205.27 158.8C205.4 158.8 205.5 158.9 205.5 159.03L205.5 160.42C205.5 160.54 205.39 160.65 205.27 160.65Z" fill="#3C3C70"/></g></g></g></g><g><g><g><g><path d="M221.4 142.66 221.4 140.74C221.4 140.61 221.5 140.51 221.63 140.51L223.02 140.51C223.15 140.51 223.25 140.61 223.25 140.74L223.25 142.66C223.25 142.79 223.15 142.89 223.02 142.89L221.63 142.89C221.5 142.89 221.4 142.79 221.4 142.66Z" fill="#3C3C70"/></g></g></g><g><g><g><path d="M185.36 142.66 185.36 140.74C185.36 140.61 185.46 140.51 185.59 140.51L186.98 140.51C187.11 140.51 187.21 140.61 187.21 140.74L187.21 142.66C187.21 142.79 187.11 142.89 186.98 142.89L185.59 142.89C185.46 142.89 185.36 142.79 185.36 142.66Z" fill="#3C3C70"/></g></g></g></g><g><g><g><g><path d="M215.71 154.47 217.07 153.11C217.16 153.02 217.31 153.02 217.4 153.11L218.38 154.09C218.47 154.18 218.47 154.33 218.38 154.42L217.02 155.78C216.93 155.87 216.78 155.87 216.69 155.78L215.71 154.8C215.62 154.7 215.62 154.56 215.71 154.47Z" fill="#3C3C70"/></g></g></g><g><g><g><path d="M190.23 128.98 191.59 127.62C191.68 127.53 191.83 127.53 191.92 127.62L192.9 128.6C192.99 128.69 192.99 128.84 192.9 128.93L191.54 130.29C191.45 130.38 191.3 130.38 191.21 130.29L190.23 129.31C190.14 129.22 190.14 129.07 190.23 128.98Z" fill="#3C3C70"/></g></g></g></g><g><g><g><g><path d="M191.54 153.11 192.9 154.47C192.99 154.56 192.99 154.71 192.9 154.8L191.92 155.78C191.83 155.87 191.68 155.87 191.59 155.78L190.23 154.42C190.14 154.33 190.14 154.18 190.23 154.09L191.21 153.11C191.3 153.02 191.45 153.02 191.54 153.11Z" fill="#3C3C70"/></g></g></g><g><g><g><path d="M217.02 127.63 218.38 128.99C218.47 129.08 218.47 129.23 218.38 129.32L217.4 130.3C217.31 130.39 217.16 130.39 217.07 130.3L215.71 128.94C215.62 128.85 215.62 128.7 215.71 128.61L216.69 127.63C216.79 127.53 216.93 127.53 217.02 127.63Z" fill="#3C3C70"/></g></g></g></g></g><g><g><g><g><g><path d="M208.51 125.11 206.63 124.74C206.5 124.72 206.42 124.59 206.45 124.47L206.71 123.11C206.73 122.98 206.86 122.9 206.98 122.93L208.86 123.3C208.99 123.32 209.07 123.45 209.04 123.57L208.77 124.93C208.75 125.05 208.63 125.13 208.51 125.11Z" fill="#3C3C70"/></g></g></g><g><g><g><path d="M201.64 160.48 199.76 160.11C199.63 160.09 199.55 159.96 199.58 159.84L199.85 158.48C199.87 158.35 200 158.27 200.12 158.3L202 158.67C202.13 158.69 202.21 158.82 202.18 158.94L201.91 160.3C201.88 160.43 201.76 160.51 201.64 160.48Z" fill="#3C3C70"/></g></g></g></g><g><g><g><g><path d="M220.9 145.9 221.27 144.02C221.29 143.89 221.42 143.81 221.54 143.84L222.9 144.1C223.03 144.12 223.11 144.25 223.08 144.37L222.71 146.25C222.69 146.38 222.56 146.46 222.44 146.43L221.08 146.17C220.96 146.15 220.88 146.03 220.9 145.9Z" fill="#3C3C70"/></g></g></g><g><g><g><path d="M185.52 139.03 185.89 137.15C185.91 137.02 186.04 136.94 186.16 136.97L187.52 137.23C187.65 137.25 187.73 137.38 187.7 137.5L187.33 139.38C187.31 139.51 187.18 139.59 187.06 139.56L185.7 139.3C185.58 139.28 185.5 139.16 185.52 139.03Z" fill="#3C3C70"/></g></g></g></g><g><g><g><g><path d="M213.07 156.41 214.66 155.34C214.77 155.27 214.91 155.3 214.98 155.4L215.76 156.55C215.83 156.66 215.8 156.8 215.7 156.87L214.11 157.94C214 158.01 213.86 157.98 213.79 157.88L213.01 156.73C212.94 156.62 212.96 156.48 213.07 156.41Z" fill="#3C3C70"/></g></g></g><g><g><g><path d="M192.91 126.53 194.5 125.46C194.61 125.39 194.75 125.42 194.82 125.52L195.6 126.67C195.67 126.78 195.64 126.92 195.54 126.99L193.95 128.06C193.84 128.13 193.7 128.1 193.63 128L192.85 126.85C192.78 126.75 192.81 126.6 192.91 126.53Z" fill="#3C3C70"/></g></g></g></g><g><g><g><g><path d="M189.6 150.47 190.67 152.06C190.74 152.17 190.71 152.31 190.61 152.38L189.46 153.16C189.35 153.23 189.21 153.2 189.14 153.1L188.07 151.51C188 151.4 188.03 151.26 188.13 151.19L189.28 150.41C189.38 150.33 189.53 150.36 189.6 150.47Z" fill="#3C3C70"/></g></g></g><g><g><g><path d="M219.47 130.31 220.54 131.9C220.61 132.01 220.58 132.15 220.48 132.22L219.33 133C219.22 133.07 219.08 133.04 219.01 132.94L217.94 131.35C217.87 131.24 217.9 131.1 218 131.03L219.15 130.25C219.26 130.17 219.4 130.2 219.47 130.31Z" fill="#3C3C70"/></g></g></g></g></g><g><g><g><g><g><path d="M211.69 126.26 209.91 125.53C209.79 125.48 209.73 125.35 209.78 125.23L210.31 123.94C210.36 123.82 210.49 123.76 210.61 123.81L212.39 124.54C212.51 124.59 212.57 124.72 212.52 124.84L211.99 126.13C211.95 126.25 211.81 126.31 211.69 126.26Z" fill="#3C3C70"/></g></g></g><g><g><g><path d="M197.99 159.59 196.21 158.86C196.09 158.81 196.03 158.68 196.08 158.56L196.61 157.27C196.66 157.15 196.79 157.09 196.91 157.14L198.69 157.87C198.81 157.92 198.87 158.05 198.82 158.17L198.29 159.46C198.24 159.58 198.11 159.64 197.99 159.59Z" fill="#3C3C70"/></g></g></g></g><g><g><g><g><path d="M219.75 149.09 220.48 147.31C220.53 147.19 220.66 147.13 220.78 147.18L222.07 147.71C222.19 147.76 222.25 147.89 222.2 148.01L221.47 149.79C221.42 149.91 221.29 149.97 221.17 149.92L219.88 149.39C219.76 149.34 219.7 149.21 219.75 149.09Z" fill="#3C3C70"/></g></g></g><g><g><g><path d="M186.42 135.38 187.15 133.6C187.2 133.48 187.33 133.42 187.45 133.47L188.74 134C188.86 134.05 188.92 134.18 188.87 134.3L188.14 136.08C188.09 136.2 187.96 136.26 187.84 136.21L186.55 135.68C186.43 135.64 186.37 135.5 186.42 135.38Z" fill="#3C3C70"/></g></g></g></g><g><g><g><g><path d="M210 157.85 211.77 157.11C211.89 157.06 212.02 157.12 212.07 157.24L212.61 158.52C212.66 158.64 212.6 158.77 212.48 158.82L210.71 159.56C210.59 159.61 210.46 159.55 210.41 159.43L209.87 158.15C209.83 158.03 209.88 157.89 210 157.85Z" fill="#3C3C70"/></g></g></g><g><g><g><path d="M196.12 124.59 197.89 123.85C198.01 123.8 198.14 123.86 198.19 123.98L198.73 125.26C198.78 125.38 198.72 125.51 198.6 125.56L196.83 126.3C196.71 126.35 196.58 126.29 196.53 126.17L195.99 124.89C195.95 124.77 196.01 124.63 196.12 124.59Z" fill="#3C3C70"/></g></g></g></g><g><g><g><g><path d="M188.16 147.4 188.9 149.17C188.95 149.29 188.89 149.42 188.77 149.47L187.49 150.01C187.37 150.06 187.24 150 187.19 149.88L186.45 148.11C186.4 147.99 186.46 147.86 186.58 147.81L187.86 147.27C187.98 147.22 188.11 147.28 188.16 147.4Z" fill="#3C3C70"/></g></g></g><g><g><g><path d="M221.42 133.52 222.16 135.29C222.21 135.41 222.15 135.54 222.03 135.59L220.75 136.13C220.63 136.18 220.5 136.12 220.45 136L219.71 134.23C219.66 134.11 219.72 133.98 219.84 133.93L221.12 133.4C221.24 133.35 221.37 133.4 221.42 133.52Z" fill="#3C3C70"/></g></g></g></g></g><g><g><g><g><g><path d="M214.61 128.03 213.01 126.96C212.9 126.89 212.87 126.74 212.95 126.64L213.72 125.49C213.79 125.38 213.94 125.35 214.04 125.43L215.64 126.5C215.75 126.57 215.78 126.72 215.7 126.82L214.93 127.97C214.86 128.08 214.72 128.1 214.61 128.03Z" fill="#3C3C70"/></g></g></g><g><g><g><path d="M194.56 157.98 192.96 156.91C192.85 156.84 192.82 156.69 192.9 156.59L193.67 155.43C193.74 155.32 193.89 155.29 193.99 155.37L195.59 156.44C195.7 156.51 195.73 156.66 195.65 156.76L194.88 157.92C194.81 158.02 194.67 158.05 194.56 157.98Z" fill="#3C3C70"/></g></g></g></g><g><g><g><g><path d="M217.97 152.01 219.04 150.41C219.11 150.3 219.26 150.27 219.36 150.35L220.51 151.12C220.62 151.19 220.65 151.34 220.57 151.44L219.5 153.04C219.43 153.15 219.28 153.18 219.18 153.1L218.02 152.33C217.93 152.26 217.9 152.11 217.97 152.01Z" fill="#3C3C70"/></g></g></g><g><g><g><path d="M188.03 131.96 189.1 130.36C189.17 130.25 189.32 130.22 189.42 130.3L190.58 131.07C190.69 131.14 190.72 131.29 190.64 131.39L189.57 132.99C189.5 133.1 189.35 133.13 189.25 133.05L188.1 132.28C187.98 132.21 187.96 132.07 188.03 131.96Z" fill="#3C3C70"/></g></g></g></g><g><g><g><g><path d="M206.68 158.65 208.56 158.28C208.69 158.26 208.81 158.34 208.83 158.46L209.1 159.82C209.12 159.95 209.04 160.07 208.92 160.09L207.04 160.46C206.91 160.48 206.79 160.4 206.77 160.28L206.5 158.92C206.48 158.8 206.56 158.68 206.68 158.65Z" fill="#3C3C70"/></g></g></g><g><g><g><path d="M199.68 123.3 201.56 122.93C201.69 122.9 201.81 122.99 201.83 123.11L202.1 124.47C202.13 124.6 202.04 124.72 201.92 124.74L200.04 125.11C199.91 125.13 199.79 125.05 199.77 124.93L199.5 123.57C199.48 123.45 199.56 123.33 199.68 123.3Z" fill="#3C3C70"/></g></g></g></g><g><g><g><g><path d="M187.35 144.08 187.72 145.96C187.74 146.09 187.66 146.21 187.54 146.23L186.18 146.5C186.05 146.52 185.93 146.44 185.91 146.32L185.54 144.44C185.51 144.31 185.6 144.19 185.72 144.17L187.08 143.9C187.21 143.87 187.33 143.95 187.35 144.08Z" fill="#3C3C70"/></g></g></g><g><g><g><path d="M222.71 137.08 223.08 138.96C223.1 139.09 223.02 139.21 222.9 139.23L221.54 139.5C221.41 139.52 221.29 139.44 221.27 139.32L220.9 137.44C220.88 137.31 220.96 137.19 221.08 137.17L222.44 136.9C222.56 136.87 222.68 136.95 222.71 137.08Z" fill="#3C3C70"/></g></g></g></g></g></g></g><g><g><g><path d="M218.35 141.7C218.35 149.46 212.06 155.74 204.31 155.74 196.55 155.74 190.27 149.45 190.27 141.7 190.27 133.94 196.56 127.66 204.31 127.66 212.06 127.66 218.35 133.94 218.35 141.7Z" fill="#D9E3F9"/></g></g></g><g><g><g><g><path d="M214.63 138.54C214.83 138.44 215.03 138.35 215.23 138.25 213.77 133.62 209.45 130.25 204.35 130.23 204.38 130.45 204.41 130.67 204.44 130.9 209.24 130.97 213.29 134.17 214.63 138.54Z" fill="#98BAF4"/></g></g><g><g><path d="M214.36 145.63C214.56 145.74 214.74 145.87 214.92 146.02 215.46 144.69 215.76 143.23 215.76 141.71 215.76 141.48 215.75 141.25 215.74 141.02 215.52 141.08 215.31 141.15 215.09 141.2 215.1 141.37 215.1 141.54 215.1 141.71 215.1 143.09 214.84 144.41 214.36 145.63Z" fill="#98BAF4"/></g></g><g><g><path d="M213.5 147.36C211.98 149.82 209.51 151.62 206.6 152.26 206.61 152.48 206.62 152.71 206.64 152.93 209.72 152.29 212.35 150.41 213.98 147.84 213.81 147.68 213.65 147.52 213.5 147.36Z" fill="#98BAF4"/></g></g><g><g><path d="M193.76 139.37C193.55 139.34 193.33 139.29 193.11 139.25 192.94 140.04 192.84 140.86 192.84 141.7 192.84 143.64 193.32 145.47 194.18 147.07 194.37 146.95 194.55 146.83 194.74 146.71 193.95 145.21 193.51 143.51 193.51 141.7 193.51 140.9 193.6 140.12 193.76 139.37Z" fill="#98BAF4"/></g></g><g><g><path d="M202.49 130.38C198.88 130.96 195.83 133.23 194.17 136.35 194.38 136.43 194.58 136.52 194.78 136.61 196.34 133.71 199.19 131.6 202.55 131.05 202.53 130.83 202.51 130.61 202.49 130.38Z" fill="#98BAF4"/></g></g><g><g><path d="M195.84 148.4C195.66 148.53 195.48 148.66 195.31 148.8 197.34 151.37 200.45 153.06 203.95 153.16 203.96 152.94 203.95 152.72 203.95 152.49 200.67 152.39 197.75 150.81 195.84 148.4Z" fill="#98BAF4"/></g></g></g></g><g><g><g><g><path d="M199.01 147.17C199.14 146.99 199.27 146.81 199.4 146.63 198.13 145.37 197.35 143.63 197.35 141.7 197.35 140.14 197.87 138.7 198.74 137.54 198.64 137.42 198.54 137.3 198.46 137.2 198.41 137.14 198.37 137.07 198.32 137.01 197.3 138.31 196.69 139.94 196.69 141.71 196.69 143.85 197.58 145.79 199.01 147.17Z" fill="#98BAF4"/></g></g><g><g><path d="M209.47 136.11C208.11 134.86 206.3 134.09 204.31 134.09 202.98 134.09 201.72 134.44 200.63 135.04 200.75 135.23 200.86 135.42 200.97 135.61 201.96 135.06 203.1 134.75 204.31 134.75 206.09 134.75 207.71 135.42 208.94 136.52 209.1 136.37 209.28 136.23 209.47 136.11Z" fill="#98BAF4"/></g></g><g><g><path d="M210.84 139.32C211.11 140.06 211.26 140.86 211.26 141.7 211.26 142.88 210.97 143.99 210.45 144.96 210.65 145.06 210.84 145.18 211.02 145.31 211.6 144.24 211.93 143.01 211.93 141.7 211.93 140.72 211.74 139.79 211.41 138.93 211.22 139.07 211.03 139.2 210.84 139.32Z" fill="#98BAF4"/></g></g><g><g><path d="M209.18 146.65C207.92 147.89 206.2 148.65 204.3 148.65 203.94 148.65 203.59 148.62 203.24 148.57 203.24 148.79 203.22 149.01 203.19 149.23 203.55 149.28 203.92 149.31 204.3 149.31 206.4 149.31 208.31 148.45 209.69 147.07 209.53 146.94 209.36 146.79 209.18 146.65Z" fill="#98BAF4"/></g></g></g></g><g><g><path d="M204.31 138.59C202.59 138.59 201.2 139.99 201.2 141.7 201.2 143.42 202.6 144.81 204.31 144.81 206.03 144.81 207.42 143.41 207.42 141.7 207.42 139.98 206.02 138.59 204.31 138.59Z" fill="#3C3C70"/></g></g></g><g><g><path d="M204.31 147.6C201.06 147.6 198.41 144.95 198.41 141.7 198.41 138.45 201.06 135.8 204.31 135.8 207.56 135.8 210.21 138.45 210.21 141.7 210.2 144.95 207.56 147.6 204.31 147.6ZM204.31 136.7C201.55 136.7 199.31 138.94 199.31 141.7 199.31 144.46 201.55 146.7 204.31 146.7 207.07 146.7 209.31 144.45 209.31 141.7 209.31 138.94 207.07 136.7 204.31 136.7Z" fill="#272443"/></g></g></g><g><g><path d="M205.94 142C206.24 141.37 206.25 140.47 206.31 139.86 206.51 137.63 206.65 135.28 207.16 133.1 207.57 131.35 208.4 129.59 210.19 128.93 212.12 128.21 214.52 128.45 216.56 128.45 217.81 128.45 219.07 128.45 220.32 128.45 220.85 128.45 221.12 127.82 220.77 127.43 216.69 122.93 210.76 120.12 204.18 120.21 192.23 120.37 182.52 130.18 182.48 142.13 182.47 143.8 182.13 148.02 184.89 146.3 187.45 144.7 187.65 141.37 190.81 140.47 191.91 140.16 193.08 140.19 194.22 140.23 195.91 140.29 197.55 140.43 199.16 140.99 200.62 141.5 201.89 142.48 203.45 142.77 204.15 142.9 205.24 142.91 205.74 142.33 205.81 142.25 205.88 142.13 205.94 142Z" fill="#F28C08"/></g></g><g><g><path d="M203.95 142.06 192.24 142.06C191.5 142.06 190.9 141.46 190.9 140.72L190.9 128.02C190.9 127.28 191.5 126.68 192.24 126.68L198.05 126.68 203.95 142.06Z" fill="#3C3C70"/></g></g><g><g><path d="M204.31 143.49C203.65 143.49 203.02 143.12 202.71 142.49L182.69 101.91C182.25 101.02 182.62 99.95 183.5 99.52 184.39 99.08 185.46 99.45 185.89 100.33L205.91 140.91C206.35 141.8 205.98 142.87 205.1 143.3 204.84 143.43 204.57 143.49 204.31 143.49Z" fill="#272443"/></g></g><g><g><rect x="190.9" y="136.7" width="8.58" height="2.68" fill="#272443"/></g></g></g><g><g><path d="M198.53 112.7C196.5 118.18 192.58 121.82 189.44 126.5 185.82 131.89 181.7 136.95 177.15 141.59 176.12 142.64 175.04 143.68 173.88 144.57L84.96 144.57C83.18 143.79 81.47 142.84 79.75 141.88 79.65 141.82 79.54 141.76 79.44 141.71 79.41 141.7 79.39 141.68 79.37 141.67 79.05 141.49 78.73 141.31 78.41 141.13 78.38 141.11 78.35 141.09 78.32 141.08 71.31 137.07 64.7 132.4 58.12 127.74 51.48 123.04 44.84 118.34 38.44 113.33 35.24 110.83 32.1 108.26 29.06 105.57 26.62 103.42 22.97 101 21.73 97.88 20.39 94.51 19.88 90.27 19.77 86.67 19.64 82.63 20.2 78.23 23 75.32 26.32 71.88 31.66 71.58 36.45 71.72 48.72 72.09 62.89 72.91 74.12 78.08 86.27 83.68 98.42 89.28 110.56 94.88 113.19 96.09 114.08 98.85 113.01 101.52 112.17 103.61 110.53 105.29 109.48 107.28 108.53 109.07 113.73 112.83 114.95 114.15L123.46 123.42C125.49 125.63 127.59 127.89 130.33 129.12 131.03 129.44 131.77 129.68 132.52 129.85 132.61 129.87 132.69 129.89 132.78 129.9 132.82 129.91 132.86 129.92 132.91 129.92 134.63 130.24 136.4 130.17 138.16 130.11 139.87 130.05 141.57 129.98 143.27 129.92 145.81 129.83 148.35 129.73 150.89 129.64 152.02 129.6 153.14 129.56 154.27 129.51 154.75 129.49 155.25 129.47 155.68 129.24 156.11 129.01 156.41 128.6 156.69 128.2 159.02 124.91 161.24 121.54 163.68 118.33 165.29 116.21 166.9 114.1 168.51 111.98 169.55 110.61 171.7 108.7 170.83 106.74 170.75 106.57 170.66 106.4 170.55 106.25 170.26 105.82 169.87 105.46 169.48 105.12 169.46 105.11 169.45 105.09 169.43 105.08 166.02 102.12 162 99.97 158.27 97.42 155.05 95.22 149.93 91.57 149.2 87.45 148.43 83.13 152.39 78.66 155.09 75.84 158.23 72.57 161.49 69.4 164.85 66.35 166.73 64.64 169.63 60.92 172.48 60.2 173.08 60.05 173.68 60.03 174.26 60.19 174.35 60.21 174.43 60.24 174.51 60.27L174.51 60.27C174.71 60.34 174.91 60.44 175.11 60.56 177.23 61.85 179.79 63.02 181.47 64.8 183.33 66.77 184.88 69.28 186.45 71.49 187.76 73.34 189.05 75.21 190.29 77.12 191.97 79.7 193.58 82.34 195.06 85.03 196.24 87.1 197.4 89.51 196.66 91.77 196.39 92.6 195.88 93.35 195.38 94.1 194.66 95.18 193.97 96.24 194.07 97.49 194.07 97.51 194.07 97.53 194.08 97.55 194.29 99.69 196.63 101.19 197.85 102.95 198 103.17 198.13 103.38 198.24 103.61 199.62 106.51 199.64 109.68 198.53 112.7Z" fill="#FBC10D"/></g></g><g><g><path d="M109.73 145.46 39.96 145.46C39.51 145.46 39.15 145.1 39.15 144.65L39.15 138.95C39.15 138.5 39.51 138.14 39.96 138.14L109.72 138.14C110.23 138.14 110.64 138.55 110.64 139.06L110.64 144.55C110.64 145.04 110.23 145.46 109.73 145.46Z" fill="#272443"/></g></g></g><g><g><path d="M128.99 138.49C123.24 134.1 117.66 129.33 112.26 124.72 105.91 119.3 99.34 113.69 92.5 108.69 77.43 97.69 63.53 91.77 50.02 90.6L50.14 89.18C63.92 90.38 78.05 96.38 93.34 107.54 100.23 112.57 106.82 118.2 113.19 123.64 118.58 128.24 124.15 133 129.86 137.36L128.99 138.49Z" fill="#F28C08"/></g></g><g><g><path d="M172.12 123.08C169.22 127.96 166.01 132.66 162.52 137.14 159.76 140.68 156.85 141.7 152.38 141.7L110.64 141.7C110.59 139.72 108.97 138.13 106.98 138.13L80.49 138.13C82.32 135.73 84.45 133.51 87.03 131.95 90.39 129.92 93.71 129.91 97.49 129.91L120.4 129.91C124.29 129.91 128.19 129.95 132.08 129.91 132.31 129.91 132.53 129.9 132.76 129.89 132.8 129.9 132.84 129.91 132.89 129.91 134.61 130.23 136.38 130.16 138.14 130.1 139.85 130.04 141.55 129.97 143.25 129.91 145.79 129.82 148.33 129.72 150.87 129.63 152 129.59 153.12 129.55 154.25 129.5 154.73 129.48 155.23 129.46 155.66 129.23 156.09 129 156.39 128.59 156.67 128.19 159 124.9 161.22 121.53 163.66 118.32 165.27 116.2 166.88 114.09 168.49 111.97 169.53 110.6 171.68 108.69 170.81 106.73 170.73 106.56 170.64 106.39 170.53 106.24 170.24 105.81 169.85 105.45 169.46 105.11 169.44 105.1 169.43 105.08 169.41 105.07 166 102.11 161.98 99.96 158.25 97.41 155.03 95.21 149.91 91.56 149.18 87.44 148.41 83.12 152.37 78.65 155.07 75.83 158.21 72.56 161.47 69.39 164.83 66.34 166.71 64.63 169.61 60.91 172.46 60.19 173.06 60.04 173.66 60.02 174.24 60.18 174.33 60.2 174.41 60.23 174.49 60.26 173.93 61.01 173.12 61.7 172.53 62.3 170.13 64.75 168.25 67.9 166.2 70.64 163.73 73.95 161.75 77.33 159.65 80.86 157.72 84.09 158.18 87.51 160.43 90.61 162.33 93.23 165.05 95.1 167.62 97.06 169.74 98.67 171.81 100.38 173.42 102.37 175.21 104.59 176.43 107.17 176.51 110.37 176.63 114.9 174.44 119.17 172.12 123.08Z" fill="#F28C08"/></g></g><g><g><g><g><g><g><path d="M107.28 30.05 107.01 30.08C107.12 30.12 107.24 30.14 107.28 30.05Z" fill="#D9E3F9"/></g></g></g><g><g><g><path d="M112.18 78.69C111.96 79.29 111.28 79.61 110.65 79.61 109.6 79.62 108.52 79.03 107.47 78.88 106.24 78.71 105.01 78.56 103.77 78.4 102.91 78.28 102.05 78.18 101.19 78.11 100.89 78.08 100.59 78.06 100.3 78.05 100.1 78.04 99.89 78.03 99.69 78.02 99.18 78 98.67 78.01 98.15 78.02 97.85 78.03 97.55 78.04 97.26 78.05 95.4 78.13 93.54 78.32 91.67 78.34 89.06 78.37 86.46 78.07 83.86 77.78 83.19 77.7 82.42 77.56 82.11 76.96 81.94 76.63 81.96 76.24 81.98 75.86 82.36 69.71 82.75 63.57 83.13 57.42 83.39 53.18 83.66 48.92 84.56 44.76 85.32 41.21 86.55 37.76 88.19 34.52 89.49 31.94 91.1 29.46 93.35 27.65 95.62 25.83 98.78 24.38 101.56 25.67 104.75 27.15 108.62 29.54 109.13 33.31 109.79 38.21 110.15 43.18 110.56 48.1 111.39 57.98 111.96 67.87 112.28 77.78 112.28 78.09 112.29 78.41 112.18 78.69Z" fill="#F28C08"/></g></g></g></g><g><g><path d="M98.15 78.01C97.85 78.02 97.55 78.03 97.26 78.04 97.25 76.77 97.23 75.51 97.22 74.24 97.15 68.39 97.05 62.54 96.94 56.69 96.93 56.34 97.82 56.3 97.83 56.63 97.86 58.29 97.89 59.96 97.92 61.62 98.01 67.09 98.09 72.55 98.15 78.01Z" fill="#FBC10D"/></g><g><path d="M101.19 78.11C100.89 78.08 100.59 78.06 100.3 78.05 100.29 76.76 100.27 75.47 100.26 74.17 100.18 68.32 100.09 62.47 99.97 56.62 99.96 56.28 100.86 56.23 100.86 56.57 100.89 58.23 100.92 59.89 100.95 61.56 101.05 67.07 101.13 72.59 101.19 78.11Z" fill="#FBC10D"/></g></g><g><g><path d="M98.06 28.86C96.62 29.53 95.41 30.61 94.42 31.86 89.37 38.21 89.59 47.64 93.11 54.69 94.04 56.55 95.4 58.43 97.42 58.91 98.04 59.06 98.69 59.06 99.32 58.98 101.7 58.68 104 57.34 105.22 55.28 106 53.97 106.46 52.49 106.82 51 107.6 47.8 107.94 44.49 107.83 41.2 107.73 37.99 107.14 34.7 105.61 31.84 105.02 30.74 104.02 28.87 102.81 28.37 101.46 27.8 99.34 28.27 98.06 28.86Z" fill="#FFFFFF"/></g></g></g><g><g><g><g><g><g><g><g><path d="M110.04 23.08C110.01 23.4 109.89 23.72 109.73 24.04 109.5 24.49 109.21 24.92 108.98 25.28 108.66 25.8 108.37 26.32 108.09 26.85 107.98 27.05 107.88 27.25 107.78 27.46 107.77 27.48 107.76 27.5 107.75 27.52 107.21 28.66 108.05 29.89 108.47 30.98 108.58 31.26 109.06 32.11 108.6 32.21 108.3 32.27 107.78 31.81 107.56 31.64 107.26 31.4 107.01 31.08 106.74 30.81 106.19 30.26 105.61 29.73 105 29.23 103.81 28.26 102.47 27.44 100.97 27.04 99.8 26.72 98.56 26.67 97.39 26.35 96.74 26.17 95.83 26.01 96.46 25.24 98.56 22.7 99.56 19.35 100.87 16.37 101.11 15.83 101.36 15.28 101.71 14.8 102.14 14.19 102.98 13.8 103.71 13.69 104.71 13.55 105.67 14.12 106.43 14.78 108.33 16.46 109.48 18.87 109.97 21.35 110.03 21.68 110.09 22.02 110.09 22.36 110.12 22.62 110.1 22.85 110.04 23.08Z" fill="#F7967C"/></g></g></g></g><g><g><g><g><path d="M110.04 23.08C110.01 23.4 109.89 23.72 109.73 24.04 109.5 24.49 109.21 24.92 108.98 25.28 108.66 25.8 108.37 26.32 108.09 26.85 107.56 26.61 107.06 26.27 106.6 25.8 105.47 24.65 104.8 23.11 104.46 21.54 104.56 21.26 104.73 21.02 104.98 20.83 106.23 19.89 107.98 20.95 109.07 21.66 109.4 21.88 109.77 22.11 110.11 22.37 110.12 22.62 110.1 22.85 110.04 23.08Z" fill="#DB6357"/></g></g></g></g></g></g><g><g><g><g><path d="M116.68 8.9C116.73 9.57 116.74 10.27 116.71 10.95 116.68 11.65 116.22 12.43 115.97 13.08 115.86 13.36 115.75 13.65 115.73 13.95 115.7 14.54 116.02 15.09 116.33 15.59 116.8 16.36 117.28 17.12 117.75 17.89 118.11 18.47 117.01 19.16 116.57 19.37 116.27 19.51 115.93 19.61 115.69 19.84 115.4 20.12 115.29 20.53 115.2 20.92 114.89 22.2 114.53 23.47 114.13 24.73 113.81 25.75 113.02 25.91 112.02 25.91 109.3 25.9 106.74 24.36 104.99 22.35 104.3 21.55 103.84 20.67 103.33 19.76 102.83 18.86 102.28 18.47 101.32 18.11 100.59 17.84 100.1 17.61 99.57 16.98 99.01 16.32 98.78 15.45 98.63 14.59 98.28 12.51 98.33 10.34 98.91 8.31 99.23 7.2 99.7 6.13 100.32 5.15 100.89 4.26 101.62 3.15 102.65 2.84 104.76 2.22 106.93 1.59 109.12 1.83 110.98 2.04 112.71 2.87 114.29 3.86 114.93 4.26 115.6 4.73 115.96 5.41 116.36 6.16 116.48 7.09 116.58 7.92 116.62 8.27 116.65 8.59 116.68 8.9Z" fill="#F7967C"/></g></g></g></g><g><g><g><g><path d="M112.76 7.59C112.36 7.65 111.94 7.59 111.54 7.59 110.34 7.6 109.19 8.27 108.52 9.25 108.17 9.76 108.1 10.2 108 10.77 107.88 11.45 107.45 12.16 107.18 12.8 107 13.22 106.73 13.75 106.35 14.03 105.82 14.42 105.5 13.96 104.95 14.07 104.09 14.23 104.05 15.65 103.78 16.28 103.78 17.22 102.21 18.59 101.63 19.24 101.24 19.67 100.84 20.12 100.3 20.35 99.77 20.58 99.07 20.54 98.69 20.1 98.52 19.9 98.44 19.65 98.36 19.41 97.87 17.85 97.9 16.24 97.62 14.62 97.31 12.83 97 10.99 97.29 9.18 97.47 8.06 97.9 7 98.5 6.06 98.79 5.6 99.13 5.11 99.52 4.72 99.87 4.37 100.2 4.24 100.51 3.8 100.9 3.24 101.51 2.84 102.18 2.7 102.39 2.66 102.61 2.64 102.8 2.54 102.95 2.46 103.06 2.33 103.17 2.21 103.54 1.78 103.88 1.28 104.39 1.03 105.42 0.52 106.58 1.11 107.65 1.06 108.25 1.03 108.56 0.68 109.11 0.51 109.73 0.31 110.43 0.35 111.02 0.63 111.56 0.89 112.02 1.33 112.6 1.47 112.94 1.55 113.3 1.53 113.65 1.55 114.32 1.6 114.95 1.85 115.56 2.11 116.05 2.32 116.56 2.56 116.86 3 117.21 3.49 117.22 4.14 117.23 4.74 117.24 5.76 116.55 6.04 115.68 6.21 114.59 6.42 113.85 7.42 112.76 7.59Z" fill="#272443"/></g></g></g></g><g><g><g><g><path d="M115.71 12.05C115.58 11.99 115.42 11.96 115.26 11.94 114.52 11.86 113.75 11.91 113.05 12.13 112.53 12.29 112.06 12.54 111.69 12.86 111.54 12.99 110.92 13.43 111.3 13.5 111.48 13.53 111.52 13.46 111.65 13.39 111.98 13.23 112.33 13.1 112.7 13.01 113.44 12.82 114.22 12.76 114.98 12.7 115.39 12.67 116.46 12.42 115.72 12.05 115.72 12.06 115.72 12.06 115.71 12.05Z" fill="#272443"/></g></g></g></g><g><g><g><g><g><path d="M104.08 12.64C103.92 12.68 103.76 12.76 103.6 12.88 103.17 13.22 102.91 13.81 102.8 14.41 102.56 15.79 102.85 16.91 103.41 18.11 103.69 18.71 104.1 19.35 104.67 19.38 104.96 19.39 105.24 19.23 105.48 19.03 106.12 18.49 106.51 17.61 106.64 16.7 106.83 15.3 106.5 13.76 105.39 12.99 104.97 12.7 104.52 12.53 104.08 12.64Z" fill="#F7967C"/></g></g></g></g></g><g><g><g><path d="M113.54 22.05C113.65 22.01 113.74 21.95 113.8 21.84 113.88 21.7 113.97 21.54 113.99 21.38 114.02 21.21 113.99 21.03 113.87 20.91 113.75 20.79 113.57 20.75 113.41 20.67 113.12 20.52 112.94 20.23 112.71 20 112.47 19.77 112.15 19.61 111.82 19.63 111.53 19.64 111.24 19.82 111.13 20.09 110.99 20.42 111.1 20.62 111.29 20.9 111.44 21.12 111.6 21.34 111.8 21.52 112.07 21.77 112.45 21.95 112.8 22.04 113.02 22.1 113.31 22.13 113.54 22.05Z" fill="#FFFFFF"/></g></g></g><g><g><path d="M114.47 13.98C114.34 13.8 114.12 13.74 113.93 13.8 113.76 13.85 113.61 14.01 113.54 14.21 113.49 14.36 113.47 14.52 113.47 14.68 113.45 14.81 113.45 14.95 113.46 15.08 113.48 15.27 113.54 15.47 113.66 15.6 113.8 15.76 114.01 15.82 114.19 15.71 114.34 15.62 114.43 15.44 114.49 15.25 114.56 15.04 114.59 14.82 114.61 14.61 114.63 14.39 114.6 14.15 114.47 13.98Z" fill="#272443"/></g></g></g><g><g><path d="M121.59 23.72C121.59 23.73 121.59 23.74 121.58 23.74 121.55 23.88 121.52 24.01 121.49 24.14 121.25 25.09 120.86 25.99 120.33 26.81 120.28 26.88 120.24 26.95 120.19 27.02 119.89 27.47 118.36 28.78 118.58 29.24 118.07 29.17 117.63 29.37 117.18 29.59 116.82 29.77 116.45 29.95 116.05 29.99 115.7 30.03 115.35 29.94 115.01 29.86 108.43 27.8 101.89 24.78 96.56 20.39 95.6 19.6 94.61 18.77 94.13 17.62 94.01 17.34 93.93 17.05 93.87 16.76 93.77 16.28 93.74 15.78 93.71 15.28 93.62 13.42 93.8 11.57 93.85 9.72 93.88 8.53 94.1 7.28 94.54 6.15 94.68 5.78 94.85 5.43 95.04 5.09 95.85 3.67 97.32 2.7 98.65 1.82 98.74 1.76 98.82 1.71 98.91 1.65 100.43 0.64 102.44-0.1 104.26-0.01 107.23 0.15 109.99 0.17 112.88 1.08 113.87 1.39 114.84 1.77 115.78 2.21 117.3 2.92 118.03 3.72 118.75 5.22 119.44 6.66 120.03 8.16 120.5 9.7 120.54 9.82 120.57 9.93 120.61 10.05L120.61 10.05C120.72 10.43 120.83 10.82 120.93 11.21 120.93 11.22 120.94 11.23 120.94 11.23 121.42 13.1 121.74 15.01 121.88 16.94 121.88 16.97 121.89 17 121.89 17.03 122.05 19.19 122.04 21.59 121.59 23.72Z" fill="#FBC10D"/></g></g><g><g><path d="M121.59 23.72C121.59 23.73 121.59 23.74 121.58 23.74 121.55 23.88 121.52 24.01 121.49 24.14 121.25 25.09 120.86 25.99 120.33 26.81 118.46 26.7 116.35 25.63 114.94 25 112.6 23.95 110.38 22.65 108.29 21.17 104.11 18.22 100.46 14.56 97.27 10.58 96.18 9.22 95.13 7.8 94.55 6.16 94.69 5.79 94.86 5.44 95.05 5.1 95.86 3.68 97.33 2.71 98.66 1.83 99.21 2.42 99.76 3.03 100.38 3.47 101.81 4.48 103.4 5.26 105.05 5.85 108.47 7.08 112.09 7.56 115.65 8.29 117.38 8.65 119.16 9.09 120.62 10.05L120.62 10.05C120.73 10.43 120.84 10.82 120.94 11.21 120.94 11.22 120.95 11.23 120.95 11.23 121.43 13.1 121.75 15.01 121.89 16.94 121.89 16.97 121.9 17 121.9 17.03 122.05 19.19 122.04 21.59 121.59 23.72Z" fill="#F28C08"/></g></g><g><g><path d="M117.18 29.6C116.82 29.78 116.45 29.96 116.05 30 115.7 30.04 115.35 29.95 115.01 29.87 108.43 27.81 101.89 24.79 96.56 20.4 95.6 19.61 94.61 18.78 94.13 17.63 94.01 17.35 93.93 17.06 93.87 16.77 94.1 16.8 94.33 16.85 94.55 16.92 94.96 17.04 95.36 17.22 95.73 17.42 96.77 17.99 97.65 18.81 98.55 19.58 102.41 22.87 106.86 25.48 111.62 27.22 113.51 27.91 115.47 28.49 117.16 29.58 117.17 29.59 117.17 29.6 117.18 29.6Z" fill="#F28C08"/></g></g><g><g><g><path d="M121.59 23.72C121.59 23.73 121.59 23.74 121.58 23.74 121.54 23.74 121.5 23.75 121.46 23.75 120.18 23.81 118.72 23.41 117.65 23.08 116.83 22.83 116 22.57 115.17 22.27 113.83 21.8 112.5 21.26 111.21 20.63 109.59 19.83 108.05 18.89 106.71 17.75 105.85 17.02 105.07 16.2 104.4 15.29 103.79 14.46 103.27 13.56 102.86 12.57 102.09 10.71 103.16 8.91 105.24 9.08 106.29 9.17 107.25 9.69 108.25 10.05 108.97 10.31 109.76 10.47 110.57 10.58 111.68 10.73 112.82 10.79 113.86 10.86 115.12 10.95 116.38 11 117.63 11.04 118.43 11.07 119.22 11.1 120.02 11.14 120.32 11.16 120.62 11.18 120.93 11.22 120.93 11.23 120.94 11.24 120.94 11.24 121.19 12.22 121.4 13.22 121.56 14.23 121.7 15.13 121.81 16.04 121.88 16.95 121.88 16.98 121.89 17.01 121.89 17.04 121.94 17.71 121.97 18.4 121.98 19.1 122 20.66 121.9 22.25 121.59 23.72Z" fill="#272443"/></g></g><g><g><path d="M117.64 11.04 117.58 11.15C117.21 11.82 116.83 12.5 116.28 13.01 115.17 14.03 113.56 14.25 112.06 14.3 111.16 14.33 110.24 14.33 109.42 14.69 108.49 15.1 107.81 15.94 107.28 16.81 107.09 17.12 106.91 17.43 106.73 17.74 105.87 17.01 105.09 16.19 104.42 15.28 105.5 14.05 106.24 12.48 107.6 11.58 108.48 10.99 109.53 10.75 110.59 10.57 111.7 10.72 112.84 10.78 113.88 10.85 115.13 10.95 116.38 11 117.64 11.04Z" fill="#3C3C70"/></g></g><g><g><path d="M121.98 19.1C121.68 19.24 121.37 19.34 121.06 19.44 120.18 19.72 119.29 19.92 118.38 20.06 117.46 20.2 116.43 20.31 115.8 21.01 115.48 21.36 115.31 21.81 115.17 22.27 113.83 21.8 112.5 21.26 111.21 20.63 111.99 19.91 112.99 19.41 113.97 19.05 115.67 18.43 117.49 18.09 119.01 17.11 120.1 16.41 120.99 15.4 121.55 14.23 121.69 15.13 121.8 16.04 121.87 16.95 121.87 16.98 121.88 17.01 121.88 17.04 121.95 17.71 121.98 18.4 121.98 19.1Z" fill="#3C3C70"/></g></g></g></g><g><g><g><g><g><g><g><path d="M108.14 36.74C109.21 39.77 110.08 42.88 111.04 45.95 112.2 49.68 113.5 53.37 114.93 57 115.55 58.57 116.11 60.22 116.82 61.75 117.49 63.2 117.88 64.27 116.45 65.3 115.06 66.29 113.47 66.9 111.75 66.91 110.95 66.91 110.12 66.79 109.41 66.42 108.2 65.78 107.46 64.54 106.81 63.33 104.03 58.19 101.72 52.79 99.93 47.22 98.43 42.55 96.06 37.56 96.81 32.54 97.18 30.1 99.08 28.12 101.62 27.98 104.5 27.82 105.89 31.16 106.86 33.43 107.33 34.52 107.75 35.62 108.14 36.74Z" fill="#F7967C"/></g></g></g></g></g><g><g><g><g><g><path d="M105.11 55.69C106.21 55.29 107.3 54.84 108.38 54.39 110.18 53.63 111.97 52.84 113.8 52.18 112.64 49.09 111.48 46.01 110.48 42.87 109.18 38.8 108.13 34.59 105.96 30.91 105.31 29.82 104.51 28.73 103.34 28.23 102.43 27.84 101.4 27.86 100.43 28.02 99.69 28.14 98.96 28.35 98.32 28.73 97.18 29.41 96.4 30.6 96.01 31.87 95.34 34.09 95.66 36.89 95.89 39.17 96.15 41.69 96.74 44.17 97.38 46.61 98.25 49.92 99.24 53.2 100.33 56.44 100.37 56.57 100.43 56.71 100.54 56.78 100.65 56.84 100.79 56.83 100.92 56.81 102.35 56.6 103.74 56.19 105.11 55.69Z" fill="#FFFFFF"/></g></g></g></g></g></g><g><g><g><g><path d="M136.34 53.21C136.5 53 136.62 52.78 136.7 52.53 136.9 51.93 136.79 51.24 136.42 50.72 135.53 49.47 134.6 50.15 133.49 50.58 132.05 51.12 130.61 51.66 129.16 52.18 126.26 53.23 123.35 54.23 120.43 55.19 117.02 56.31 113.57 57.37 110.31 58.85 109.45 59.24 108.6 59.66 107.83 60.22 107.02 60.82 106.95 61.27 107.09 62.26 107.34 64.05 108.26 65.9 109.73 67.01 112.21 68.89 114.75 66.81 117 65.64 119.03 64.58 121.03 63.46 123 62.28 124.02 61.67 125.03 61.03 126.04 60.39 126.89 59.85 127.79 59.59 128.61 59 130.75 57.47 132.88 55.92 135.02 54.38 135.49 54.05 135.99 53.68 136.34 53.21Z" fill="#F7967C"/></g></g></g></g><g><g><path d="M102.63 56.37C101.92 56.44 101.21 56.52 100.5 56.59 99.12 52.21 97.7 47.84 96.62 43.36 96.32 42.12 96.04 40.87 95.78 39.61 95.75 39.47 95.4 39.49 95.42 39.61 95.88 41.84 96.41 44.06 97 46.26 97.6 48.5 98.29 50.71 98.98 52.92 99.38 54.19 99.78 55.46 100.17 56.72 100.19 56.79 100.33 56.79 100.39 56.79 101.16 56.71 101.94 56.63 102.71 56.55 102.97 56.54 102.81 56.35 102.63 56.37Z" fill="#98BAF4"/></g></g><g><path d="M113.95 57.37C113.88 57.33 113.77 57.33 113.7 57.37 112.43 58.11 111.39 59.19 110.71 60.49 110.64 60.62 110.99 60.66 111.05 60.54 111.71 59.28 112.71 58.22 113.95 57.5 114.02 57.47 114.01 57.41 113.95 57.37Z" fill="#DB6357"/></g></g><g><g><path d="M137.52 84.71C136.96 82.09 136.28 79.26 134.2 77.56 133.02 76.6 131.58 76.15 130.06 75.93 122.99 74.83 115.55 75.44 108.37 75.48 103.15 75.51 97.93 75.59 92.7 75.72 90.13 75.78 87.55 75.86 84.98 75.94 83.78 75.98 82.25 75.96 81.98 77.34 81.16 81.55 83.58 85.9 87.07 88.38 90.56 90.86 94.93 91.77 99.2 92.12 102.63 92.4 106.07 92.24 109.49 92.23 112.29 92.22 114.75 91.67 117.5 91.42 118.41 91.34 127.01 90.03 127.19 90.45L127.31 90.74C127.5 90.59 127.7 90.48 127.92 90.39 128.01 90.38 128.1 90.37 128.19 90.37 128.93 90.3 129.68 90.23 130.42 90.16 130.91 90.22 131.4 90.31 131.89 90.38 132.98 90.53 133.9 90.6 135 90.52 135.51 90.11 136.02 89.69 136.43 89.18 137.25 88.2 137.79 85.98 137.52 84.71Z" fill="#98BAF4"/></g></g><g><g><g><path d="M144.13 132.09C144.86 132.26 145.73 132.12 146.43 132.02 147.48 131.86 148.54 131.74 149.6 131.65 150.19 131.61 150.83 131.55 151.24 131.13 151.83 130.53 150.31 129.58 149.96 129.2 149.43 128.62 149.16 127.87 148.84 127.15 148.52 126.44 148.12 125.71 147.45 125.31 146.91 124.99 146.25 124.93 145.62 124.92 144.87 124.91 144.1 124.97 143.43 125.29 143.14 125.43 142.88 125.61 142.68 125.86 142.15 126.54 142.28 127.52 142.49 128.35 142.65 128.96 142.84 129.55 143.06 130.14 143.16 130.4 143.3 130.65 143.32 130.93 143.34 131.17 143.25 131.43 143.37 131.66 143.43 131.79 143.56 131.87 143.69 131.92 143.84 132.01 143.98 132.05 144.13 132.09Z" fill="#F7967C"/></g></g><g><g><g><g><g><g><g><path d="M159.45 134.67C159.43 134.69 159.41 134.71 159.4 134.73L142.74 134.73C142.73 134.61 142.71 134.5 142.7 134.38 142.68 134.12 142.67 133.86 142.68 133.6 142.71 132.61 142.96 131.65 143.48 130.77 143.59 130.58 143.74 130.38 143.97 130.34 144.22 130.29 144.46 130.44 144.68 130.57 145.5 131.04 146.71 131.29 147.63 130.96 148.23 130.74 148.75 130.36 149.17 129.91 149.35 129.71 149.53 129.5 149.77 129.36 150.03 129.21 150.33 129.19 150.62 129.25 151.45 129.43 152.18 130.1 152.91 130.49 153.75 130.94 154.63 131.32 155.54 131.64 156.3 131.91 157.09 132.14 157.82 132.48 158.27 132.69 159.03 133.1 159.41 133.6 159.64 133.93 159.72 134.29 159.45 134.67Z" fill="#3C3C70"/></g></g></g></g></g><g><g><g><g><g><path d="M159.45 134.67C159.43 134.69 159.41 134.71 159.4 134.73L142.74 134.73C142.73 134.61 142.71 134.5 142.7 134.38 142.68 134.12 142.67 133.86 142.68 133.6L159.4 133.6C159.64 133.93 159.72 134.29 159.45 134.67Z" fill="#D9E3F9"/></g></g></g></g></g><g><g><g><g><g><path d="M155.69 132.24C155.61 132.06 155.37 132.01 155.2 131.94 154.24 131.57 153.31 131.12 152.43 130.62 151.93 130.33 151.44 130.03 150.97 129.7 150.9 129.65 150.79 129.64 150.7 129.66 150.65 129.68 150.55 129.74 150.63 129.8 151.53 130.42 152.47 130.97 153.46 131.44 153.95 131.67 154.44 131.89 154.94 132.08 155.04 132.12 155.2 132.15 155.28 132.23 155.37 132.33 155.28 132.47 155.22 132.56 155.12 132.71 154.6 133.25 154.73 133.44 154.94 133.73 155.28 133.17 155.34 133.05 155.39 132.94 155.45 132.84 155.52 132.74 155.61 132.61 155.77 132.42 155.69 132.24Z" fill="#272443"/></g></g></g></g></g><g><g><g><g><g><path d="M145.84 133.35C145.61 132.28 145.06 131.22 144.02 130.65 143.94 130.61 143.82 130.61 143.74 130.65 143.67 130.69 143.67 130.75 143.74 130.79 144.71 131.33 145.23 132.35 145.45 133.35 145.48 133.49 145.87 133.48 145.84 133.35Z" fill="#272443"/></g></g></g></g></g><g><g><g><g><g><path d="M152.31 129.81C152.26 129.8 152.21 129.79 152.16 129.8 152.12 129.81 152.07 129.82 152.04 129.85 151.83 130.06 151.62 130.26 151.42 130.47 151.36 130.53 151.42 130.59 151.49 130.61 151.54 130.62 151.59 130.63 151.64 130.62 151.68 130.61 151.73 130.6 151.76 130.57 151.97 130.36 152.18 130.16 152.38 129.95 152.44 129.89 152.38 129.83 152.31 129.81Z" fill="#EFEFEF"/></g></g></g></g></g><g><g><g><g><g><path d="M153.18 130.31C153.1 130.29 152.98 130.29 152.91 130.35 152.71 130.53 152.52 130.72 152.35 130.93 152.33 130.95 152.31 130.98 152.33 131.01 152.35 131.04 152.39 131.06 152.42 131.07 152.47 131.08 152.52 131.09 152.57 131.08 152.61 131.07 152.66 131.06 152.69 131.03 152.86 130.83 153.05 130.63 153.25 130.45 153.32 130.39 153.25 130.33 153.18 130.31Z" fill="#EFEFEF"/></g></g></g></g></g><g><g><g><g><g><path d="M154.22 130.82C154.21 130.79 154.16 130.77 154.13 130.76 154.08 130.75 154.03 130.74 153.98 130.75 153.94 130.76 153.89 130.77 153.86 130.8 153.71 130.98 153.56 131.16 153.41 131.34 153.39 131.36 153.37 131.39 153.39 131.42 153.4 131.45 153.45 131.47 153.48 131.48 153.53 131.49 153.58 131.5 153.63 131.49 153.67 131.48 153.72 131.47 153.75 131.44 153.9 131.26 154.05 131.08 154.2 130.9 154.22 130.87 154.24 130.85 154.22 130.82Z" fill="#EFEFEF"/></g></g></g></g></g><g><g><g><g><g><path d="M155.24 131.16C155.16 131.14 155.04 131.14 154.97 131.2 154.75 131.39 154.56 131.61 154.4 131.85 154.38 131.88 154.4 131.91 154.42 131.93 154.45 131.96 154.5 131.97 154.54 131.98 154.62 131.99 154.73 131.98 154.78 131.91 154.82 131.85 154.85 131.8 154.89 131.74 154.91 131.71 154.93 131.69 154.95 131.66 154.95 131.66 154.96 131.65 154.96 131.65 154.96 131.65 154.97 131.63 154.97 131.63 154.98 131.62 154.99 131.6 155 131.59 155.09 131.49 155.19 131.39 155.29 131.3 155.37 131.25 155.3 131.18 155.24 131.16Z" fill="#EFEFEF"/></g></g></g></g></g></g></g></g><g><g><path d="M145.91 126.79C145.42 127 144.92 127.21 144.43 127.44 144.33 127.48 144.22 127.53 144.12 127.58 143.99 127.64 143.86 127.7 143.73 127.76 143.62 127.81 143.52 127.86 143.41 127.91 142.14 128.51 140.88 129.15 139.65 129.83 136.05 121.46 132.63 113.02 129.38 104.51 127.74 100.2 126.14 95.88 124.59 91.54 124.21 90.46 123.82 89.39 123.45 88.31 123.08 87.27 122.72 86.22 122.36 85.18 122.31 85.03 122.26 84.89 122.22 84.76 122.19 84.69 122.17 84.62 122.15 84.55 121.85 83.65 121.82 83.15 122.71 82.25 123.51 81.44 124.57 80.91 125.61 80.47 127.25 79.78 128.94 79.25 130.68 78.87 132.36 78.5 134.81 78.43 136.02 79.93 136.52 80.55 136.77 81.33 136.99 82.1 137.54 84.01 138.42 85.86 138.9 87.78 139.35 89.61 140.71 91.89 140.71 93.77 143.78 103.99 146.85 114.21 149.93 124.44 150.35 125.9 147.05 126.3 145.91 126.79Z" fill="#98BAF4"/></g></g><g><path d="M91.43 75.76C91.26 78.18 91.31 80.67 92.57 82.8 93.2 83.85 94.09 84.74 95.22 85.24 96.47 85.79 97.85 85.88 99.19 85.89 105.65 85.93 112.09 85.45 118.52 84.88 119.73 84.77 120.97 84.7 122.2 84.76 123.92 84.84 125.6 85.19 127.11 86.09 128.17 86.72 129.1 87.6 129.66 88.71 129.9 89.18 130.07 89.69 130.22 90.2 130.48 91.11 130.65 92.06 130.96 92.95 131.45 94.38 132.11 95.75 132.76 97.11 133.41 98.48 134.03 99.86 134.6 101.26 135.77 104.09 136.79 106.98 137.76 109.88 139.18 114.09 140.51 118.34 142.06 122.5 142.62 124.01 143.22 125.51 143.85 127 143.93 127.19 144.02 127.38 144.1 127.58 144.2 127.53 144.31 127.49 144.41 127.44 143.68 125.77 143.01 124.07 142.37 122.36 141.09 118.92 139.96 115.42 138.8 111.94 137.85 109.07 136.88 106.2 135.79 103.37 135.25 101.96 134.67 100.56 134.06 99.17 133.45 97.78 132.77 96.43 132.15 95.05 131.52 93.64 131.04 92.21 130.68 90.7 130.64 90.53 130.6 90.36 130.55 90.2 130.24 89.11 129.8 88.12 129.01 87.27 127.25 85.38 124.62 84.66 122.11 84.56 122.09 84.56 122.07 84.56 122.05 84.56 120.48 84.5 118.91 84.65 117.34 84.8 115.7 84.96 114.06 85.09 112.41 85.21 109.16 85.44 105.9 85.59 102.65 85.66 101.12 85.69 99.57 85.77 98.04 85.67 96.62 85.58 95.22 85.23 94.13 84.28 91.97 82.39 91.59 79.35 91.71 76.65 91.72 76.36 91.74 76.06 91.76 75.77L91.43 75.76Z" fill="#6981B7"/></g></g><g><g><path d="M111.04 105.21C116.01 103.6 119.99 96.27 114.25 93.2 101.45 86.37 88.25 80.28 74.75 74.95 69.69 72.96 64.53 71.05 59.13 70.44 56.55 70.14 53.87 70.16 51.45 71.11 48.79 72.16 45.91 75.11 46.02 78.22 46.07 79.69 47.36 80.24 48.58 80.95 51.75 82.8 55.29 83.22 58.62 84.77 62.94 86.78 67.26 88.8 71.57 90.81 80.1 94.79 88.64 98.77 97.17 102.75 99.51 103.84 101.87 104.94 104.38 105.49 106.55 105.98 108.94 105.89 111.04 105.21Z" fill="#272443"/></g></g><g><g><path d="M189.27 84.5C184.77 79.3 179.48 74.9 173.55 71.43 170.91 69.88 167.44 68.18 164.06 68.8L163.8 67.39C167.64 66.68 171.41 68.51 174.27 70.19 180.34 73.74 185.75 78.24 190.35 83.56L189.27 84.5Z" fill="#F28C08"/></g></g><g><g><path d="M197.81 102.95C195.36 100.37 192.62 98.07 189.64 96.12 185.67 93.53 181.18 90.33 178 86.26 174.45 81.73 173.16 76.97 174.08 71.71 174.1 71.58 174.21 71.13 174.62 70.92 174.86 70.8 175.13 70.8 175.37 70.91L174.74 72.19C174.9 72.27 175.1 72.27 175.27 72.19 175.37 72.14 175.47 72.05 175.49 71.95 173.68 82.37 181.6 89.14 190.42 94.91 191.67 95.73 192.88 96.6 194.04 97.53 194.26 99.69 196.59 101.19 197.81 102.95Z" fill="#F28C08"/></g></g><g><g><g><path d="M196.63 91.77C196.36 92.6 195.85 93.35 195.35 94.1 192.03 92.52 188.9 90.82 185.79 88.99 184.62 88.3 183.44 87.59 182.27 86.85 180.08 85.49 177.8 84.04 176.49 81.81 175.52 80.17 175.17 78.24 174.97 76.34 174.74 74.1 174.88 71.13 177.83 71.22 178.87 71.25 179.85 71.66 180.8 72.08 181.03 72.18 181.26 72.28 181.49 72.39 184.53 73.74 187.55 75.22 190.27 77.12 191.95 79.7 193.56 82.34 195.04 85.03 196.21 87.09 197.37 89.5 196.63 91.77Z" fill="#FFFFFF"/></g></g><g><g><g><path d="M184.38 84.95C182.8 84.95 181.52 83.03 181.52 80.66 181.52 78.29 182.8 76.37 184.38 76.37 185.96 76.37 187.24 78.29 187.24 80.66 187.24 83.03 185.95 84.95 184.38 84.95ZM184.38 76.91C183.1 76.91 182.06 78.59 182.06 80.66 182.06 82.73 183.1 84.41 184.38 84.41 185.66 84.41 186.7 82.73 186.7 80.66 186.7 78.59 185.66 76.91 184.38 76.91Z" fill="#98BAF4"/></g></g><g><g><path d="M185.62 80.66C185.62 81.73 185.06 82.59 184.38 82.59 183.69 82.59 183.14 81.73 183.14 80.66 183.14 79.59 183.7 78.73 184.38 78.73 185.06 78.73 185.62 79.59 185.62 80.66Z" fill="#98BAF4"/></g></g></g><g><g><g><path d="M190.99 89.58C189.61 89.58 188.49 87.9 188.49 85.84 188.49 83.78 189.61 82.1 190.99 82.1 192.37 82.1 193.49 83.78 193.49 85.84 193.49 87.9 192.37 89.58 190.99 89.58ZM190.99 82.64C189.91 82.64 189.02 84.07 189.02 85.84 189.02 87.6 189.9 89.04 190.99 89.04 192.07 89.04 192.96 87.61 192.96 85.84 192.96 84.08 192.07 82.64 190.99 82.64Z" fill="#98BAF4"/></g></g><g><g><path d="M192.06 85.84C192.06 86.76 191.58 87.5 190.99 87.5 190.4 87.5 189.92 86.76 189.92 85.84 189.92 84.92 190.4 84.18 190.99 84.18 191.58 84.18 192.06 84.92 192.06 85.84Z" fill="#98BAF4"/></g></g></g><g><g><path d="M185.79 88.98C184.62 88.29 183.44 87.58 182.27 86.84 180.08 85.48 177.8 84.03 176.49 81.8 175.52 80.16 175.17 78.23 174.97 76.33 174.74 74.09 174.88 71.12 177.83 71.21 178.87 71.24 179.85 71.65 180.8 72.07 181.03 72.17 181.26 72.27 181.49 72.38 180.68 72.36 179.91 72.1 179.06 72.23 178.1 72.38 177.15 72.87 176.69 73.72 176.4 74.26 176.33 74.88 176.33 75.49 176.32 77.96 177.35 80.35 178.82 82.33 180.29 84.32 182.17 85.95 184.07 87.53 184.64 88.02 185.22 88.5 185.79 88.98Z" fill="#98BAF4"/></g></g></g><g><g><g><path d="M183.37 68.83C180.6 68.3 177.99 67.15 175.46 65.91 174.16 65.28 172.86 64.62 171.63 63.84 171.22 63.58 170.81 63.3 170.41 63.01 169.2 62.14 168.06 61.15 166.99 60.08 165.5 58.59 164.15 56.95 162.91 55.24 162.36 54.48 161.84 53.71 161.35 52.93 160.69 51.89 160.07 50.84 159.49 49.79 159.42 49.67 159.36 49.55 159.29 49.43 158.67 48.31 158.08 47.17 157.5 46.03 156.48 44.01 155.49 41.84 155.64 39.58 155.76 37.64 157.43 37.71 158.75 38.56 160.3 39.56 161.55 40.95 162.78 42.33 162.98 42.55 163.18 42.78 163.37 43 164.17 43.91 164.97 44.83 165.76 45.75 167.99 48.34 170.17 50.96 172.34 53.58 173.16 54.57 173.98 55.56 174.8 56.55 177.05 59.27 179.32 61.99 181.62 64.66 182.25 65.39 182.93 66.19 183.5 67 184 67.73 185.04 69.14 183.37 68.83Z" fill="#FFFFFF"/></g></g><g opacity="0.8"><g><path d="M165.77 45.75C165.22 46.13 164.69 46.53 164.22 47 162.66 48.56 162.04 50.77 161.37 52.92 160.71 51.88 160.09 50.83 159.51 49.78 159.44 49.66 159.38 49.54 159.31 49.42 159.51 49.28 159.71 49.14 159.91 49 161.34 47.94 162.43 46.43 162.98 44.74 163.14 44.24 163.27 43.64 163.39 43 164.18 43.91 164.98 44.83 165.77 45.75Z" fill="#D9E3F9"/></g><g><path d="M174.81 56.55C173.33 58.05 171.4 59.28 170.73 61.26 170.54 61.82 170.47 62.41 170.42 63 169.21 62.13 168.07 61.14 167 60.07 167.05 60.01 167.1 59.94 167.16 59.88 167.83 59.11 168.71 58.57 169.48 57.89 170.8 56.73 171.72 55.2 172.36 53.57 173.17 54.57 173.99 55.56 174.81 56.55Z" fill="#D9E3F9"/></g></g></g><g><g><g><path d="M43.51 112.16 20.57 112.16C13.65 112.16 8.04 106.96 8.04 100.55L8.04 87.95C8.04 86.02 8.56 84.12 9.55 82.43L14.15 74.55C16.34 70.8 20.57 68.46 25.17 68.46L59.69 68.46C66.61 68.46 72.22 73.66 72.22 80.07L72.22 81.06C72.22 83.62 71.31 86.11 69.62 88.14L53.44 107.63C51.06 110.49 47.39 112.16 43.51 112.16Z" fill="#F28C08"/></g></g><g><g><g><rect x="53.46" y="87.82" width="8.05" height="8.53" fill="#272443"/></g></g><g><g><rect x="45.41" y="79.28" width="8.05" height="8.53" fill="#272443"/></g></g><g><g><rect x="37.36" y="87.82" width="8.05" height="8.53" fill="#272443"/></g></g><g><g><rect x="29.31" y="79.28" width="8.05" height="8.53" fill="#272443"/></g></g><g><g><rect x="21.26" y="87.82" width="8.05" height="8.53" fill="#272443"/></g></g><g><g><rect x="13.21" y="79.28" width="8.05" height="8.53" fill="#272443"/></g></g></g></g><g><g><g><g><g><path d="M151.82 53.63 149.37 47.77C148.62 45.97 147.1 44.64 145.22 44.12L143.1 43.54 143.44 42.28 145.56 42.86C147.84 43.48 149.67 45.09 150.58 47.26L153.03 53.12 151.82 53.63Z" fill="#F28C08"/></g></g></g><g><g><g><path d="M144.73 45.99 136.08 44.67C135.56 44.59 135.21 44.11 135.29 43.6L136.14 38.02C136.22 37.5 136.7 37.15 137.22 37.23L145.87 38.54C146.39 38.62 146.74 39.1 146.66 39.62L145.81 45.2C145.73 45.71 145.25 46.07 144.73 45.99Z" fill="#F28C08"/></g></g></g></g><g><g><path d="M163.58 67.46C160.65 70.16 157.81 72.95 155.05 75.83 154.82 76.07 154.57 76.33 154.33 76.59L144.93 55.94C144.25 54.46 145.3 52.77 146.93 52.71L152.25 52.52C153.04 52.49 153.79 52.87 154.23 53.53L163.58 67.46Z" fill="#3C3C70"/></g></g><g><g><g><path d="M131.74 56.44C131.4 56.44 131.07 56.24 130.92 55.91 130.72 55.46 130.92 54.93 131.37 54.73L142.79 49.67C144.15 49.07 145.67 49.04 147.05 49.6 148.43 50.16 149.51 51.23 150.07 52.61L150.26 53.07C150.45 53.53 150.23 54.05 149.77 54.23 149.31 54.42 148.79 54.2 148.61 53.74L148.42 53.28C148.04 52.35 147.32 51.63 146.39 51.26 145.46 50.88 144.44 50.9 143.52 51.31L132.1 56.37C131.98 56.42 131.86 56.44 131.74 56.44Z" fill="#3C3C70"/></g></g><g><g><g><path d="M131.74 57.51C130.99 57.51 130.27 57.07 129.94 56.34 129.5 55.35 129.95 54.19 130.94 53.75L139.45 49.98C140.44 49.54 141.6 49.99 142.04 50.98 142.48 51.97 142.03 53.13 141.04 53.57L132.53 57.34C132.27 57.46 132 57.51 131.74 57.51Z" fill="#272443"/></g></g></g></g><g><g><path d="M137.7 49.22C138.11 49.2 138.53 49.21 138.92 49.32 140.3 49.69 141.24 51.2 141.49 52.53 141.58 53.01 141.48 53.67 141.06 53.99 140.83 54.16 140.47 54.18 140.28 53.97 140.14 54.32 139.97 54.67 139.65 54.88 139.34 55.09 138.86 55.08 138.65 54.77 138.53 54.97 138.35 55.21 138.2 55.39 138.1 55.52 137.98 55.63 137.84 55.7 137.54 55.85 137.15 55.79 136.9 55.56 136.62 56.06 136.06 56.38 135.49 56.37 135.34 56.37 135.15 56.31 135.11 56.17 135.09 56.1 135.11 56.02 135.13 55.94 135.25 55.43 135.3 54.84 135.07 54.35 134.75 53.66 133.96 53.29 133.2 53.22 132.97 53.2 132.73 53.2 132.51 53.14 132.29 53.08 132.07 52.94 131.98 52.73 131.93 52.6 131.93 52.45 131.94 52.3 132.09 51 133.29 50.31 134.4 49.89 135.45 49.49 136.59 49.27 137.7 49.22Z" fill="#F7967C"/></g><g><path d="M139.77 51.9C139.65 51.66 139.52 51.43 139.37 51.21 139.23 51 139.08 50.81 138.87 50.67 138.82 50.63 138.66 50.68 138.74 50.74 138.95 50.88 139.1 51.09 139.24 51.3 139.38 51.51 139.51 51.73 139.62 51.96 139.85 52.42 140.01 52.91 140.11 53.42 140.12 53.49 140.3 53.48 140.29 53.42 140.18 52.89 140.01 52.38 139.77 51.9Z" fill="#DB6357"/></g><g><path d="M137.62 51.68C137.58 51.63 137.41 51.65 137.45 51.71 137.96 52.51 138.28 53.41 138.38 54.35 138.39 54.42 138.57 54.41 138.56 54.35 138.45 53.4 138.13 52.49 137.62 51.68Z" fill="#DB6357"/></g><g><path d="M136.02 52.62C135.98 52.58 135.8 52.61 135.87 52.67 136.51 53.27 136.59 54.18 136.66 55 136.67 55.07 136.84 55.07 136.84 55 136.76 54.15 136.67 53.23 136.02 52.62Z" fill="#DB6357"/></g></g></g></g></g></svg>