<svg width="27.5" height="52.36" viewBox="0 0 27.5 52.36" xmlns="http://www.w3.org/2000/svg" xmlns:xlink="http://www.w3.org/1999/xlink" xml:space="preserve" overflow="hidden"><defs></defs><g><g><path d="M7.64 39.45C7.64 39.45 6.67 42.1 8.86 42.66 11.04 43.22 12.04 40.66 12.04 40.66L7.64 39.45Z" fill="#28A52B"/><path d="M11.14 41.97C10.58 42.26 9.88 42.5 9.24 42.34 8.61 42.17 8 41.6 7.94 40.92 7.9 40.47 8.01 40.03 8.18 39.61L7.63 39.46C7.63 39.46 6.66 42.11 8.85 42.67 9.9 42.94 10.68 42.49 11.2 41.95 11.18 41.95 11.16 41.96 11.14 41.97Z" fill="#D8D0D0"/></g><g><g><path d="M1.04 51.8 1.03 52.36C1.03 52.36 7.52 50.9 13.91 51.41 13.91 51.41 22.48 50.68 26.93 51.2 26.79 50.47 26.78 50.4 26.78 50.4 26.78 50.4 17.88 49.7 13.91 51.05 11.86 50.25 5.04 50.47 1.04 51.8Z" fill="#AD9D74"/><path d="M0.79 51.4 0.75 52.1C0.75 52.1 10.18 50.38 13.93 51.3 17.08 50.67 24.77 50.53 27.09 50.86 26.92 50.06 26.92 50.06 26.92 50.06 26.92 50.06 20.37 49.57 13.86 50.52 9.56 49.79 3.85 50.52 0.79 51.4Z" fill="#C9BA91"/><path d="M0.6 51.1 0.55 51.58C0.55 51.58 8.16 49.94 13.91 51.06 17.43 50.36 24.64 49.88 27.41 50.42L27.07 49.38C27.07 49.38 19.16 49.22 13.89 50.33 10.23 49.35 3.48 49.51 0.6 51.1Z" fill="#E0D3A9"/><g><path d="M27.5 49.9 25.29 42.54C25.29 42.54 18.77 41.98 13.73 43.15L13.9 50.72C21.16 49.05 27.5 49.9 27.5 49.9Z" fill="#F9EFDD"/><path d="M14.17 50.65C14.2 50.54 14.22 50.43 14.26 50.33 14.41 49.86 14.58 49.41 14.77 48.96 15.42 47.44 16.3 46.02 17.65 45.01 18.97 44.02 20.72 43.24 22.28 44.2 23.67 45.05 24.34 46.65 25.1 48.01 25.42 48.59 25.74 49.17 26.05 49.76 26.97 49.82 27.5 49.89 27.5 49.89L25.29 42.53C25.29 42.53 18.77 41.97 13.73 43.14L13.9 50.71C13.99 50.69 14.08 50.67 14.17 50.65Z" fill="#F9EFDD"/><path d="M3.67 42.67C3.67 42.67 2 46.46 0.36 51.23 2.1 50.45 9.74 49.76 13.9 50.72L13.73 43.15C6.43 41.84 3.67 42.67 3.67 42.67Z" fill="#F9EFCB"/></g><g><g><path d="M12.88 45.22C12.89 44.17 12.69 43.78 11.78 43.52 11.41 43.41 10.87 43.33 10.24 43.26 9.81 43.66 9.02 44.35 8.18 44.9 8.59 45.52 9.89 46.84 12.88 45.22Z" fill="#28832B"/><path d="M8.18 44.91C7.56 45.32 6.91 45.65 6.37 45.72 5.2 45.86 4.32 44.74 3.92 44.11 3.79 44.42 2.78 46.89 2.33 48.13 1.85 49.46 2.26 49.46 3.76 49.25 5.26 49.05 8.87 49.11 11.29 49.32 12.72 49.52 12.72 48.98 12.76 47.79 12.8 46.65 12.86 45.83 12.87 45.23 9.89 46.84 8.59 45.52 8.18 44.91Z" fill="#A6DEF7"/></g><path d="M6.38 45.71C7.64 45.55 9.5 43.95 10.25 43.26 8.49 43.07 6.07 43.06 4.87 43.28 4.29 43.45 4.22 43.62 3.95 44.06 3.95 44.06 3.95 44.07 3.94 44.09 4.33 44.74 5.21 45.86 6.38 45.71Z" fill="#28A52B"/></g><path d="M4.05 47.03C4.05 47.03 4.16 46.62 4.57 46.59 4.98 46.57 5.09 46.97 5.09 46.97 5.09 46.97 5.43 46.74 5.68 47 5.85 47.2 5.61 47.36 5.61 47.36 5.61 47.36 5.93 47.79 5.3 48 4.68 48.22 4.56 47.7 4.56 47.7 4.56 47.7 3.96 48.21 3.12 47.77 2.54 47.4 3.18 46.45 4.05 47.03Z" fill="#FFFFFF"/><path d="M9.67 47.09C9.67 47.09 10.19 46.51 10.64 47.2 11.15 46.88 11.71 47.11 11.78 47.4 11.85 47.7 11.39 47.91 11.16 47.79 11.23 48.3 10.1 48.22 9.78 47.85 9.21 48.3 8.27 47.9 8.25 47.37 8.21 46.85 9.35 46.85 9.67 47.09Z" fill="#FFFFFF"/><g><g><rect x="15.44" y="43.66" width="3.45" height="0.14" fill="#C9BA91" transform="matrix(0.9959 -0.0908 0.0908 0.9959 -3.9009 1.74)"/><rect x="15.5" y="44.19" width="3.45" height="0.14" fill="#C9BA91" transform="matrix(0.9956 -0.0941 0.0941 0.9956 -4.0875 1.8164)"/><path d="M15.62 45.1 15.61 44.97 19.04 44.66 19.05 44.79Z" fill="#C9BA91"/><rect x="15.66" y="45.44" width="3.45" height="0.14" fill="#C9BA91" transform="matrix(0.996 -0.0897 0.0897 0.996 -4.0136 1.7438)"/><rect x="15.77" y="46.08" width="3.45" height="0.14" fill="#C9BA91" transform="matrix(0.9958 -0.0912 0.0912 0.9958 -4.1356 1.7878)"/><rect x="15.84" y="46.81" width="3.45" height="0.14" fill="#C9BA91" transform="matrix(0.9959 -0.0905 0.0905 0.9959 -4.1722 1.7831)"/><rect x="15.88" y="47.51" width="3.45" height="0.14" fill="#C9BA91" transform="matrix(0.9959 -0.0908 0.0908 0.9959 -4.2492 1.796)"/><rect x="15.97" y="48.13" width="3.45" height="0.14" fill="#C9BA91" transform="matrix(0.9958 -0.0912 0.0912 0.9958 -4.321 1.8143)"/><rect x="16.03" y="48.7" width="3.45" height="0.14" fill="#C9BA91" transform="matrix(0.9958 -0.0912 0.0912 0.9958 -4.3739 1.8222)"/></g><g><rect x="20.9" y="43.44" width="3.53" height="0.14" fill="#C9BA91" transform="matrix(0.9995 -0.0307 0.0307 0.9995 -1.3235 0.7153)"/><rect x="21" y="43.96" width="3.53" height="0.14" fill="#C9BA91" transform="matrix(0.9995 -0.0306 0.0306 0.9995 -1.3384 0.7183)"/><path d="M21.18 44.76 21.18 44.62 24.7 44.52 24.71 44.65Z" fill="#C9BA91"/><rect x="21.3" y="45.18" width="3.53" height="0.14" fill="#C9BA91" transform="matrix(0.9995 -0.0308 0.0308 0.9995 -1.3817 0.7312)"/><rect x="21.47" y="45.81" width="3.53" height="0.14" fill="#C9BA91" transform="matrix(0.9997 -0.0264 0.0264 0.9997 -1.2024 0.6291)"/><rect x="21.62" y="46.53" width="3.53" height="0.14" fill="#C9BA91" transform="matrix(0.9994 -0.0338 0.0338 0.9994 -1.5629 0.8177)"/><path d="M21.73 47.4 21.73 47.26 25.25 47.15 25.26 47.29Z" fill="#C9BA91"/><rect x="21.88" y="47.82" width="3.53" height="0.14" fill="#C9BA91" transform="matrix(0.9994 -0.0345 0.0345 0.9994 -1.6363 0.8434)"/><rect x="22" y="48.37" width="3.53" height="0.14" fill="#C9BA91" transform="matrix(0.9995 -0.0308 0.0308 0.9995 -1.4784 0.7535)"/></g></g></g><path d="M3.42 46.55C3.96 45.86 4.56 45.2 5.24 44.64 5.88 44.11 6.55 43.65 7.38 43.5 9.04 43.19 10.7 43.84 11.81 45.1 13.18 46.66 13.43 48.66 13.64 50.67 13.72 50.69 13.8 50.7 13.88 50.72L13.71 43.15C6.42 41.84 3.65 42.67 3.65 42.67 3.65 42.67 1.98 46.46 0.34 51.23 0.44 51.18 0.56 51.14 0.7 51.1 1.51 49.52 2.33 47.94 3.42 46.55Z" fill="#F9EFCB"/></g><g><path d="M26.62 35.67C26.62 34.12 25.12 31.76 19.26 30.81 18.01 32.04 16.53 33.38 13.62 33.29 10.71 33.2 8.35 31.35 7.97 30.77 7.97 30.77 0.36 30.82 0.01 34.26-0.33 37.7 4.48 41.34 13.52 41.06 13.52 41.06 13.54 41.07 13.58 41.08 14.09 40.65 14.97 39.74 15.05 38.67 15.03 37.54 14.61 36.88 14.6 36.86 14.35 36.86 13.13 36.83 12.28 36.78 11.46 36.7 11.21 36.49 11.06 36.23 10.91 35.98 10.28 36.18 10.28 36.18 10.28 36.18 11.15 35.58 12.35 35.54 13.55 35.5 15.6 35.97 15.6 35.97L14.21 36.76C14.21 36.76 14.43 36.75 14.65 36.85 14.81 36.82 15.28 36.77 15.41 37.07 16.12 36.53 16.89 36.76 17.22 37.1 17.55 37.45 18.28 37.94 19.73 38.16 20.85 38.35 21.61 38.96 21.61 38.96L21.63 38.97C21.57 38.92 21.51 38.87 21.46 38.83 24.33 38.38 26.53 37.81 26.62 35.67Z" fill="#2B89AA"/><g opacity="0.5"><path d="M19.26 30.81C18.01 32.04 16.53 33.38 13.62 33.29 10.71 33.2 8.35 31.35 7.97 30.77 7.97 30.77 7.6 30.77 7.02 30.81 7.15 30.96 7.28 31.16 7.42 31.43 7.9 32.4 11.37 34.57 14.03 34.25 16.69 33.93 18.71 32.52 18.95 33.4 19.19 34.29 15.93 35.54 12.82 35.37 9.8 35.21 6.29 34.68 6.13 30.88 3.85 31.13 0.25 31.9 0.01 34.25-0.08 35.11 0.16 35.99 0.71 36.81 0.48 36.09-0.1 34 0.82 33.37 1.94 32.61 2.99 34.55 3.89 36.57 4.78 38.57 4.88 39.74 2.7 38.71 4.39 39.83 6.86 40.66 10.03 40.96 9.99 40.79 10.02 40.62 10.18 40.45 10.42 40.2 10.89 40.15 10.71 39.67 10.61 39.39 10.36 39.23 10.09 39.12 9.54 38.9 8.85 38.85 8.35 38.5 7.91 38.2 7.51 37.57 7.39 37.06 7.3 36.69 7.55 36.33 7.93 36.28 8.49 36.2 9.1 36.43 9.59 36.67 10.41 37.07 11.29 37.4 12.2 37.51 12.82 37.59 13.62 37.44 13.83 38.21 14.02 38.93 13.78 39.73 13.44 40.38 13.31 40.63 13.15 40.86 12.96 41.07 13.15 41.07 13.34 41.06 13.53 41.06 13.53 41.06 13.55 41.07 13.59 41.08 14.1 40.65 14.98 39.74 15.06 38.67 15.04 37.54 14.62 36.88 14.61 36.86 14.36 36.86 13.14 36.83 12.29 36.78 11.47 36.7 11.22 36.49 11.07 36.23 10.92 35.98 10.29 36.18 10.29 36.18 10.29 36.18 11.16 35.58 12.36 35.54 13.56 35.5 15.61 35.97 15.61 35.97L14.22 36.76C14.22 36.76 14.44 36.75 14.66 36.85 14.82 36.82 15.29 36.77 15.42 37.07 16.13 36.53 16.9 36.76 17.23 37.1 17.56 37.45 18.29 37.94 19.74 38.16 20.86 38.35 21.62 38.96 21.62 38.96L21.64 38.97C21.58 38.92 21.52 38.87 21.47 38.83 21.8 38.78 22.12 38.72 22.43 38.66 21.87 38.61 21.39 38.45 21.15 38.28 20.71 37.97 18.61 37.63 17.89 37.15 17.17 36.67 16.5 36.28 17.8 35.67 18.77 35.22 18.99 35.19 19.1 36.08 19.2 36.97 20.05 36.42 20.67 35.57 21.28 34.72 22.48 34.58 25.2 35.4 26.67 35.84 26.18 36.84 25.42 37.67 26.13 37.21 26.57 36.58 26.61 35.66 26.62 34.13 25.12 31.77 19.26 30.81Z" fill="#2B89AA"/></g><path d="M14.6 36.86C14.63 36.86 14.64 36.86 14.64 36.86L14.76 36.91C14.72 36.89 14.69 36.87 14.65 36.85 14.62 36.86 14.6 36.86 14.6 36.86 14.6 36.86 14.6 36.86 14.6 36.86Z" fill="none"/></g><path d="M17.99 39.05C17.99 39.28 17.79 39.47 17.55 39.47 17.31 39.47 17.11 39.28 17.11 39.05 17.11 38.82 17.31 38.63 17.55 38.63 17.8 38.63 17.99 38.82 17.99 39.05Z" fill="#C7160C"/><g><path d="M10.37 36.18C10.37 36.18 10.3 36.15 10.18 36.09 10.06 36.03 9.89 35.96 9.68 35.87 9.58 35.82 9.46 35.78 9.35 35.73 9.23 35.68 9.11 35.63 8.98 35.57 8.85 35.52 8.72 35.46 8.58 35.41 8.44 35.35 8.3 35.3 8.16 35.25 8.02 35.2 7.88 35.14 7.74 35.09 7.6 35.04 7.46 34.99 7.33 34.94 7.2 34.89 7.07 34.85 6.95 34.8 6.83 34.75 6.71 34.72 6.61 34.69 6.4 34.62 6.22 34.56 6.09 34.52 5.96 34.48 5.89 34.45 5.89 34.45 5.89 34.45 5.96 34.47 6.09 34.49 6.22 34.52 6.4 34.56 6.62 34.61 6.73 34.64 6.85 34.66 6.97 34.7 7.09 34.74 7.22 34.78 7.36 34.82 7.49 34.86 7.64 34.9 7.77 34.95 7.91 35 8.05 35.05 8.19 35.11 8.33 35.16 8.47 35.22 8.61 35.28 8.75 35.34 8.88 35.4 9.01 35.45 9.14 35.5 9.26 35.57 9.38 35.63 9.5 35.69 9.61 35.74 9.71 35.79 10.12 36.01 10.37 36.18 10.37 36.18Z" fill="#2B89AA"/><path d="M15.61 35.97C15.61 35.97 15.71 35.9 15.89 35.79 15.98 35.74 16.09 35.67 16.22 35.6 16.35 35.53 16.49 35.45 16.66 35.38 16.82 35.3 17 35.22 17.19 35.14 17.38 35.06 17.59 34.98 17.8 34.91 18.02 34.84 18.23 34.76 18.47 34.71 18.58 34.68 18.7 34.65 18.82 34.62 18.94 34.59 19.06 34.57 19.17 34.54 19.4 34.49 19.64 34.46 19.88 34.42 20.11 34.38 20.35 34.37 20.57 34.35 20.79 34.32 21.01 34.34 21.22 34.33 21.32 34.33 21.42 34.33 21.52 34.33 21.62 34.34 21.71 34.34 21.8 34.35 21.98 34.36 22.15 34.37 22.29 34.39 22.43 34.41 22.56 34.43 22.66 34.45 22.87 34.48 22.98 34.5 22.98 34.5 22.98 34.5 22.86 34.49 22.65 34.47 22.55 34.46 22.42 34.45 22.27 34.43 22.13 34.42 21.96 34.42 21.78 34.41 21.69 34.41 21.6 34.4 21.5 34.4 21.4 34.4 21.3 34.41 21.2 34.41 21 34.42 20.78 34.42 20.56 34.45 20.34 34.47 20.11 34.48 19.88 34.53 19.65 34.57 19.41 34.6 19.18 34.65 19.06 34.67 18.95 34.7 18.83 34.72 18.72 34.75 18.6 34.78 18.49 34.81 18.26 34.86 18.04 34.94 17.83 35 17.62 35.07 17.41 35.14 17.22 35.21 17.03 35.28 16.85 35.35 16.68 35.43 16.35 35.57 16.08 35.7 15.9 35.8 15.71 35.91 15.61 35.97 15.61 35.97Z" fill="#2B89AA"/></g><path d="M15.42 37.07C15.26 36.7 14.6 36.86 14.6 36.86 14.6 36.86 15.04 37.52 15.05 38.67 14.98 39.74 14.09 40.65 13.58 41.08 13.79 41.16 14.52 41.39 14.99 40.76 16.44 38.51 15.42 37.07 15.42 37.07Z" fill="#1B7A93"/><path d="M18.97 28.73C19.24 27.54 19.07 27.06 19.07 27.06 18.87 26.45 17.71 23.88 17.41 21.77 17.23 20.49 17.52 19.9 17.77 19.64 17.29 19.49 16.76 19.41 16.17 19.4 13.85 19.47 11.46 18.92 11.46 18.92 11.46 18.92 10.85 18.88 9.97 19.05 10.53 20.35 9.47 22.38 9.02 23.4 8.86 23.75 8.74 24.07 8.64 24.33 8.54 25 8.23 27.19 8.61 28.56 8.13 28.66 8.2 29.38 8.3 29.48 7.55 30.16 7.62 30.88 7.62 30.88 7.62 30.88 9.8 33.67 14.3 33.64 17.91 33.3 19.45 30.81 19.45 30.81 19.45 30.81 19.45 29.86 18.97 28.73Z" fill="#C7160C"/><g><path d="M18.97 28.73C19.24 27.54 19.07 27.06 19.07 27.06 18.87 26.45 17.71 23.88 17.41 21.77 17.23 20.49 17.52 19.9 17.77 19.64 17.29 19.49 16.76 19.41 16.17 19.4 13.85 19.47 11.46 18.92 11.46 18.92 11.46 18.92 11.12 18.9 10.58 18.96 11.12 19.2 11.66 19.53 11.66 19.93 11.66 20.75 11.89 23.07 13.98 22.52 16.07 21.97 15.48 20.29 16.3 20.16 17.12 20.02 16.57 23.66 17.48 25.57 18.39 27.48 18.12 30.11 15.3 31.21 13.62 31.76 15.48 32.07 16.94 31.03 18.39 29.98 17.49 33.17 14.08 32.98 10.67 32.8 8.72 30.75 9.99 30.89 11.26 31.03 9.9 29.62 9.49 27.53 9.08 25.44 9.49 24.94 9.99 22.99 10.49 21.05 10.53 20.01 10.14 19.68 10.25 20.94 9.43 22.54 9.04 23.41 8.88 23.76 8.76 24.08 8.66 24.34 8.56 25.01 8.25 27.2 8.63 28.57 8.15 28.67 8.22 29.39 8.32 29.49 7.57 30.17 7.64 30.89 7.64 30.89 7.64 30.89 9.82 33.68 14.32 33.65 17.93 33.31 19.47 30.82 19.47 30.82 19.47 30.82 19.45 29.86 18.97 28.73Z" fill="#C7160C"/></g><path d="M12.15 19.02C12.15 19.02 11.36 21.44 13.15 21.82 14.94 22.2 15.02 20.43 14.93 19.59 14.17 19.66 12.15 19.02 12.15 19.02Z" fill="#EDB698"/><path d="M11.99 20.27C12.12 20.1 12.31 20.05 12.51 20.08 12.87 20.12 13.22 20.21 13.57 20.26 13.82 20.29 14.28 20.28 14.46 20.49 14.62 20.67 14.63 20.91 14.59 21.13 14.57 21.27 14.53 21.4 14.49 21.53 14.97 21.04 14.99 20.12 14.93 19.58 14.16 19.66 12.14 19.02 12.14 19.02 12.14 19.02 11.94 19.63 11.97 20.29 11.99 20.28 11.99 20.27 11.99 20.27Z" fill="#EDB698"/><g><path d="M6.31 24.32C5.59 23.8 4.9 23.8 4.55 23.85 4.56 25.58 6.56 26.76 7.62 26.56 7.62 26.55 7.33 25.07 6.31 24.32Z" fill="#D38322"/><path d="M9.98 19.05C8.32 19.37 5.73 20.42 4.55 23.82 4.55 23.83 4.55 23.83 4.55 23.84 4.9 23.79 5.59 23.79 6.3 24.31 7.32 25.06 7.61 26.54 7.61 26.54 8.02 25.35 8.67 24.12 8.67 24.12 8.67 24.12 8.66 24.19 8.64 24.32 8.74 24.06 8.87 23.74 9.02 23.39 9.48 22.38 10.55 20.35 9.98 19.05Z" fill="#FFE133"/><path d="M9.98 19.05C9.61 19.12 9.2 19.23 8.76 19.39 8.99 19.36 9.2 19.38 9.31 19.52 9.54 19.83 9.38 20.32 9.28 20.65 9.14 21.08 8.95 21.49 8.75 21.9 8.53 22.36 8.41 22.85 8.15 23.29 7.96 23.62 7.59 24.04 7.15 23.96 6.74 23.88 6.39 23.65 5.99 23.54 5.63 23.44 5.25 23.37 4.88 23.39 4.83 23.39 4.77 23.4 4.72 23.4 4.66 23.54 4.61 23.68 4.56 23.83 4.56 23.84 4.56 23.84 4.56 23.85 4.91 23.8 5.6 23.8 6.31 24.32 7.33 25.07 7.62 26.55 7.62 26.55 8.03 25.36 8.68 24.13 8.68 24.13 8.68 24.13 8.67 24.2 8.65 24.33 8.75 24.07 8.88 23.75 9.03 23.4 9.48 22.38 10.55 20.35 9.98 19.05Z" fill="#FFD133"/></g><g><path d="M20.73 25.58C19.64 26.04 19.08 27.06 19.08 27.06 19.08 27.06 20.95 27.95 22.63 25.83 22.62 25.84 21.82 25.12 20.73 25.58Z" fill="#D38322"/><path d="M17.78 19.64C17.53 19.9 17.24 20.49 17.42 21.77 17.72 23.88 18.88 26.45 19.08 27.06 19.08 27.06 19.64 26.04 20.73 25.58 21.82 25.12 22.62 25.84 22.62 25.84 21.92 23.68 20.67 20.52 17.78 19.64Z" fill="#FFE133"/><path d="M21.92 24.53C21.56 24.46 21.2 24.49 20.89 24.7 20.72 24.81 20.57 24.93 20.38 24.99 19.96 25.11 19.58 24.57 19.42 24.27 19.15 23.77 18.99 23.23 18.82 22.69 18.6 22 17.89 20.83 18.51 20.16 18.56 20.11 18.62 20.06 18.69 20.02 18.41 19.87 18.11 19.74 17.78 19.64 17.53 19.9 17.24 20.49 17.42 21.77 17.72 23.88 18.88 26.45 19.08 27.06 19.08 27.06 19.64 26.04 20.73 25.58 21.82 25.12 22.62 25.84 22.62 25.84 22.49 25.45 22.35 25.03 22.18 24.6 22.1 24.57 22.01 24.55 21.92 24.53Z" fill="#FFD133"/></g><path d="M7.06 25.15C7.06 25.15 4.3 30.7 6.98 38.69 7.2 39.2 7.71 39.08 8.8 39.29 9.9 39.49 10.22 39.48 10.22 39.73 10.22 39.98 9.99 40.05 8.41 40.08 9.51 40.9 10.6 41.88 10.49 42.27 10.37 42.66 8.28 40.68 8.28 40.68 8.28 40.68 9.96 42.65 9.58 43 9.2 43.35 7.3 40.99 7.3 40.99 7.3 40.99 8.66 43.22 8.25 43.41 7.84 43.6 6.4 41.28 6.4 41.28 6.4 41.28 7.01 43.43 6.62 43.57 6.23 43.72 5.93 42.3 5.47 41.29 5 40.28 5.13 40 5.28 39.32 4.64 37.67 1.4 31.15 4.72 23.79 4.71 23.79 6.2 23.73 7.06 25.15Z" fill="#EDB698"/><g><g><path d="M22.62 11.73C22.14 11.34 21.44 9.82 21.44 9.82 21.44 9.82 21.99 11.25 21.64 11.46 21.3 11.66 20.14 11.26 18.87 9.44 19.07 10.05 19.69 11.58 19.23 11.76 18.21 11.94 16.05 9.31 16.05 9.31 16.05 9.31 16.55 10.95 16.3 11.1 16.05 11.26 14.69 10.96 13.23 9.1 13.46 9.62 14.05 11.46 13.64 11.46 12.5 11.42 11.34 10.71 10.21 8.55 10.42 9.16 10.55 10.64 10.32 10.66 9.96 10.55 9.15 9.99 8.94 8.12 8.82 9.16 8.58 10.63 8.39 10.59 8.2 10.56 7.74 10.32 7.64 8.8 7.38 9.63 7.57 11.68 7.4 12.31 7.24 12.95 7.04 13.89 7.04 14.69 7.04 14.69 7.04 17.16 10.47 18.77 13.49 20.18 15.36 20.41 18.83 18.54 21.17 17.15 22.06 15.81 22.06 15.81 22.82 14.52 22.67 13.2 22.62 11.73Z" fill="#EDB698"/><g><path d="M11.58 15.06C11.55 15.53 11.37 15.91 11.17 15.9 10.98 15.89 10.84 15.49 10.87 15.02 10.9 14.55 11.08 14.17 11.28 14.18 11.47 14.19 11.61 14.59 11.58 15.06Z" fill="#EDB698"/><g><path d="M11.42 14.98C11.39 15.45 11.21 15.83 11.01 15.82 10.82 15.81 10.68 15.41 10.71 14.94 10.74 14.46 10.92 14.09 11.12 14.1 11.32 14.11 11.45 14.51 11.42 14.98Z" fill="#000100"/><path d="M11.34 14.58C11.33 14.75 11.26 14.88 11.19 14.88 11.12 14.88 11.07 14.73 11.08 14.56 11.09 14.39 11.16 14.26 11.23 14.26 11.31 14.27 11.36 14.41 11.34 14.58Z" fill="#FFFFFF"/></g></g><g><path d="M17.49 15.53C17.44 16 17.24 16.37 17.05 16.35 16.86 16.33 16.74 15.93 16.79 15.46 16.84 14.99 17.04 14.62 17.23 14.64 17.42 14.66 17.54 15.06 17.49 15.53Z" fill="#EDB698"/><g><path d="M17.34 15.45C17.29 15.92 17.09 16.29 16.9 16.27 16.71 16.25 16.59 15.85 16.64 15.38 16.69 14.91 16.89 14.54 17.08 14.56 17.27 14.57 17.39 14.97 17.34 15.45Z" fill="#000100"/><path d="M17.28 15.04C17.26 15.21 17.19 15.34 17.12 15.33 17.05 15.32 17.01 15.18 17.03 15.01 17.05 14.84 17.12 14.71 17.19 14.72 17.25 14.73 17.29 14.87 17.28 15.04Z" fill="#FFFFFF"/></g></g><path d="M12.85 16.47C12.83 16.27 13.03 16.07 13.22 16.02 13.32 15.99 13.43 15.99 13.54 16.01 13.63 15.83 13.72 15.67 13.67 15.46 13.66 15.43 13.75 15.45 13.76 15.47 13.81 15.57 13.84 15.67 13.81 15.78 13.79 15.87 13.75 15.96 13.69 16.03 13.78 16.05 13.86 16.08 13.94 16.11 14 16.13 13.96 16.16 13.92 16.15 13.82 16.13 13.73 16.1 13.63 16.08 13.61 16.09 13.56 16.08 13.54 16.07 13.42 16.06 13.31 16.09 13.21 16.17 13.08 16.28 13.06 16.45 13.12 16.6 13.23 16.89 13.59 17.04 13.85 17.17 13.96 17.23 13.84 17.27 13.77 17.25 13.42 17.18 12.89 16.87 12.85 16.47Z" fill="#BA703E"/><path d="M13.67 15.36C13.67 15.36 13.9 15.92 13.54 16.01 13.18 16.09 12.96 16.2 12.96 16.47 12.97 16.74 13.41 17.09 14.13 16.74 14.85 16.38 14.4 17.53 13.46 17.26 12.77 17 12.54 16.35 13.08 16.08 13.57 15.87 13.63 15.89 13.67 15.36Z" fill="#EDB698"/><path d="M15.17 18.29C14.79 18.82 14.35 19.1 13.7 19.16 13.09 19.22 12.43 18.76 12.3 18.14 12.29 18.11 12.25 18.16 12.25 18.18 12.36 18.91 13.07 19.32 13.76 19.26 14.38 19.21 14.89 18.86 15.21 18.33 15.23 18.29 15.2 18.25 15.17 18.29Z" fill="#BA703E"/><path d="M9.82 13.19C9.82 13.19 10.83 11.59 11.87 13.21 12.09 13.53 11.73 12.17 10.9 12.1 10.06 12.03 9.82 13.19 9.82 13.19Z" fill="#232623"/><path d="M16.46 13.34C16.46 13.34 17.62 12 18.57 13.48 18.26 12.16 16.73 11.89 16.46 13.34Z" fill="#232623"/><path d="M9.8 13.36C9.8 13.36 10.81 11.76 11.85 13.38 12.07 13.7 11.71 12.34 10.88 12.27 10.04 12.2 9.8 13.36 9.8 13.36Z" fill="#EDB698"/><path d="M16.44 13.51C16.44 13.51 17.6 12.17 18.55 13.65 18.24 12.33 16.72 12.06 16.44 13.51Z" fill="#EDB698"/><g><path d="M23.34 12.23C23.05 12.16 22.82 12.44 22.66 12.73 22.69 13.81 22.65 14.82 22.08 15.82 22.08 15.82 22.93 16.33 24.02 14.46 24.74 13.21 23.91 12.37 23.34 12.23Z" fill="#DDA487"/><path d="M26.85 8.8C26.61 7.81 25.31 6.52 25.31 6.52 25.31 6.52 27.29 7.95 26.16 5.8 25.03 3.65 22.51 0.25 17.23 1.06 15.7-0.23 12.39-0.61 8.67 1.47 4.96 3.55 4.33 6.45 4.25 7.14 4.16 7.7 4.42 7.54 4.8 7.04 4.25 8.11 4.09 9.34 4.26 9.74 4.43 10.14 5 9.17 5 9.17 5 9.17 4.08 11.2 7.05 14.7 7.05 13.9 7.25 12.95 7.41 12.32 7.58 11.67 7.4 9.63 7.65 8.8 7.75 10.32 8.21 10.55 8.4 10.59 8.59 10.62 8.83 9.16 8.95 8.12 9.16 9.99 9.96 10.55 10.33 10.66 10.56 10.64 10.42 9.16 10.22 8.55 11.36 10.71 12.52 11.41 13.65 11.46 14.06 11.46 13.47 9.62 13.24 9.1 14.69 10.96 16.06 11.26 16.31 11.1 16.56 10.94 16.06 9.31 16.06 9.31 16.06 9.31 18.22 11.94 19.24 11.76 19.69 11.58 19.08 10.06 18.88 9.44 20.15 11.26 21.31 11.67 21.65 11.46 21.99 11.26 21.45 9.82 21.45 9.82 21.45 9.82 22.15 11.34 22.63 11.73 22.64 12.07 22.66 12.41 22.67 12.73 22.83 12.44 23.06 12.16 23.35 12.23 23.92 12.37 24.76 13.21 24.03 14.45 24.98 14.55 25.84 12.78 25.29 11.04 25.94 11.99 26.24 12.61 26.24 12.61 26.24 12.61 26.82 11.08 26.07 9.24 26.92 10.13 27.09 9.78 26.85 8.8Z" fill="#232623"/><path d="M26.85 8.8C26.61 7.81 25.31 6.52 25.31 6.52 25.31 6.52 27.29 7.95 26.16 5.8 26.01 5.51 25.83 5.2 25.62 4.87 25.51 4.99 25.39 5.09 25.24 5.17 24.48 5.57 23.75 4.84 23.09 4.51 23.47 5.74 24.53 6.96 24.22 8.3 24.21 8.33 24.18 8.39 24.14 8.39 23.32 8.35 22.86 7.39 22.4 6.79 22.62 7.96 23.8 9 23.35 10.24 23.34 10.27 23.31 10.31 23.28 10.31 22.52 10.4 21.97 9.57 21.62 9.01 21.22 8.36 20.92 7.57 20.43 6.97 20.54 7.78 20.88 8.59 20.64 9.41 20.63 9.43 20.6 9.49 20.57 9.48 19.13 9.28 18.69 7.6 17.87 6.61 17.95 7.19 18.12 7.76 18.2 8.34 18.25 8.68 18.39 9.41 18.03 9.66 17.56 9.98 16.9 9.01 16.68 8.71 16.08 7.92 15.67 7.06 15.27 6.16 15.24 6.75 15.34 7.35 15.3 7.93 15.28 8.29 15.2 8.85 14.77 8.95 14.13 9.1 13.46 8.19 13.16 7.75 12.78 7.21 12.41 6.59 12.21 5.94 12.24 6.48 12.3 7.01 12.3 7.55 12.3 8.07 12.29 8.71 11.93 9.12 11.92 9.13 11.9 9.15 11.88 9.15 10.68 8.61 10.72 6.95 10.18 5.91 9.9 6.76 9.91 7.68 9.46 8.43 9.45 8.44 9.4 8.49 9.39 8.46 9.09 7.72 9.35 6.92 9.31 6.15 8.93 6.92 8.78 8 7.97 8.42 7.95 8.43 7.93 8.44 7.93 8.41 7.91 7.67 8.08 6.94 8.15 6.2 7.96 6.69 7.71 7.14 7.51 7.62 7.4 7.88 7.34 8.15 7.26 8.42 7.11 8.92 6.95 9.6 6.53 9.96 6.18 10.26 6.05 9.74 6.05 9.49 6.05 8.87 6.19 8.25 6.34 7.65 6.4 7.41 6.46 7.18 6.53 6.95 6.55 6.88 6.57 6.81 6.59 6.75 6.28 7.13 6.01 7.55 5.64 7.88 5.43 8.06 5.02 8.29 4.95 7.84 4.86 7.31 5.21 6.74 5.47 6.3 5.63 6.03 5.8 5.76 5.99 5.51 5.99 5.5 6 5.5 6 5.49 5.98 5.51 5.95 5.53 5.93 5.55 5.53 5.9 5.07 6.34 4.54 6.46 4.48 6.48 4.43 6.48 4.39 6.48 4.3 6.77 4.26 7 4.25 7.14 4.16 7.7 4.42 7.54 4.8 7.04 4.25 8.11 4.09 9.34 4.26 9.74 4.43 10.14 5 9.17 5 9.17 5 9.17 4.08 11.2 7.05 14.7 7.05 13.9 7.25 12.95 7.41 12.32 7.58 11.67 7.4 9.63 7.65 8.8 7.75 10.32 8.21 10.55 8.4 10.59 8.59 10.62 8.83 9.16 8.95 8.12 9.16 9.99 9.96 10.55 10.33 10.66 10.56 10.64 10.42 9.16 10.22 8.55 11.36 10.71 12.52 11.41 13.65 11.46 14.06 11.46 13.47 9.62 13.24 9.1 14.69 10.96 16.06 11.26 16.31 11.1 16.56 10.94 16.06 9.31 16.06 9.31 16.06 9.31 18.22 11.94 19.24 11.76 19.69 11.58 19.08 10.06 18.88 9.44 20.15 11.26 21.31 11.67 21.65 11.46 21.99 11.26 21.45 9.82 21.45 9.82 21.45 9.82 22.15 11.34 22.63 11.73 22.64 12.07 22.66 12.41 22.67 12.73 22.83 12.44 23.06 12.16 23.35 12.23 23.92 12.37 24.76 13.21 24.03 14.45 24.98 14.55 25.84 12.78 25.29 11.04 25.94 11.99 26.24 12.61 26.24 12.61 26.24 12.61 26.82 11.08 26.07 9.24 26.92 10.13 27.09 9.78 26.85 8.8Z" fill="#232623"/></g><path d="M7.4 12.42C7.4 12.42 7.05 11.36 6.41 11.55 5.76 11.74 5.13 12.89 5.6 13.54 6.07 14.19 6.77 14.6 7.06 14.69 7.1 13.75 7.3 12.77 7.4 12.42Z" fill="#DDA487"/><path d="M6.45 12.56C6.15 12.42 5.92 12.7 5.93 12.97 5.93 13.03 6 12.96 6 12.93 6.06 12.47 6.48 12.73 6.63 12.96 6.65 12.99 6.66 13.01 6.68 13.04 6.55 13.1 6.46 13.25 6.41 13.39 6.4 13.41 6.39 13.46 6.42 13.46 6.45 13.46 6.48 13.42 6.5 13.4 6.54 13.3 6.6 13.23 6.69 13.17 6.7 13.16 6.71 13.15 6.72 13.13 6.79 13.33 6.79 13.54 6.82 13.75 6.83 13.83 6.93 13.71 6.94 13.67 6.96 13.26 6.84 12.75 6.45 12.56Z" fill="#BA703E"/><path d="M23.44 13.58C23.74 13.44 23.97 13.72 23.96 13.99 23.96 14.05 23.89 13.98 23.89 13.95 23.83 13.49 23.41 13.75 23.26 13.98 23.24 14 23.23 14.03 23.22 14.06 23.35 14.12 23.44 14.28 23.49 14.41 23.5 14.43 23.51 14.48 23.48 14.48 23.45 14.48 23.42 14.44 23.4 14.42 23.36 14.32 23.3 14.25 23.21 14.19 23.2 14.18 23.19 14.17 23.18 14.15 23.11 14.35 23.11 14.56 23.08 14.77 23.07 14.85 22.97 14.73 22.96 14.69 22.93 14.27 23.04 13.76 23.44 13.58Z" fill="#BA703E"/><g opacity="0.5"><path d="M22.62 11.73C22.14 11.34 21.44 9.82 21.44 9.82 21.44 9.82 21.99 11.25 21.64 11.46 21.3 11.66 20.14 11.26 18.87 9.44 19.07 10.05 19.69 11.58 19.23 11.76 18.21 11.94 16.05 9.31 16.05 9.31 16.05 9.31 16.55 10.95 16.3 11.1 16.05 11.26 14.69 10.96 13.23 9.1 13.46 9.62 14.05 11.46 13.64 11.46 12.5 11.42 11.34 10.71 10.21 8.55 10.42 9.16 10.55 10.64 10.32 10.66 9.96 10.55 9.15 9.99 8.94 8.12 8.82 9.16 8.58 10.63 8.39 10.59 8.2 10.56 7.74 10.32 7.64 8.8 7.38 9.63 7.57 11.68 7.4 12.31 7.35 12.48 7.31 12.69 7.26 12.9 7.38 12.63 7.49 12.39 7.57 12.24 7.9 11.61 7.73 10.57 7.73 10.57 7.73 10.57 8.81 12.02 9.03 9.78 9.95 11.45 10.84 11.55 10.74 10.21 12.37 11.86 13.86 11.98 14.14 11.74 14.43 11.5 13.96 10.27 13.96 10.27 13.96 10.27 15.43 11.55 16.4 11.53 16.95 11.49 16.77 10.45 16.77 10.45 16.77 10.45 18.46 12.3 19.54 12.22 20.23 12.12 19.54 10.88 19.6 10.9 19.66 10.92 20.9 12 21.74 11.9 22.07 13.2 22.33 18.11 15.31 19.51 13.26 19.92 8.59 18.76 7.13 15.25 7.13 15.25 7.13 15.25 7.13 15.26 7.34 16.08 8.04 17.65 10.47 18.79 13.49 20.2 15.36 20.43 18.83 18.56 21.17 17.17 22.06 15.83 22.06 15.83 22.82 14.52 22.67 13.2 22.62 11.73Z" fill="#EDB698"/></g><path d="M12.3 17.97C12.3 17.97 12.55 19.01 13.52 19.04 14.48 19.08 14.96 18.49 15.29 18.13 15.44 18 15.11 19.44 13.49 19.3 11.86 19.16 12.14 17.83 12.3 17.97Z" fill="#EDB698" opacity="0.5"/><g><path d="M16.15 0.91C16.15 1.22 14.86 1.68 13.82 2 14.87 1.79 16.11 1.79 15.82 3.13 16.77 1.5 17.88 2.05 18.93 3 17.67 1.62 18.83 0.53 21.5 1.39 20.33 0.97 18.93 0.8 17.24 1.06 16.54 0.47 15.48 0.07 14.18 0.01 15.13 0.2 16.04 0.49 16.15 0.91Z" fill="#232623"/><path d="M13.82 2C13.12 2.14 12.52 2.38 12.52 2.38 12.52 2.38 13.11 2.23 13.82 2Z" fill="#232623"/></g></g><path d="M12.41 0.63C12.41 0.63 8.84 0.98 6.15 3.85 4.17 6.08 5.65 5.51 6.82 4.34 7.99 3.17 5.44 6.43 5.72 6.89 6 7.35 7.67 5.05 7.67 5.05 7.67 5.05 6.57 7.06 6.75 7.7 6.93 8.34 8.48 4.87 8.48 4.87 8.48 4.87 8.48 6.43 8.69 6.43 8.9 6.43 9.89 4.31 9.89 4.31 9.89 4.31 9.58 6.39 9.65 6.53 9.72 6.67 11.13 4.09 11.13 4.09 11.13 4.09 10.71 6.6 11.17 6.99 11.63 7.38 12.44 3.98 12.44 3.98 12.44 3.98 12.72 6.67 13.68 7.02 14.63 7.37 15.38 4.3 15.38 4.3 15.38 4.3 15.73 6.88 16.48 7.34 17.22 7.8 17.29 4.23 17.29 4.23 17.29 4.23 18.46 6.81 18.99 7.02 19.52 7.23 18.57 4.44 18.67 4.44 18.78 4.44 20.83 7.3 21.6 7.13 22.38 6.95 19.94 4.2 19.94 4.2 19.94 4.2 22.03 6.14 22.56 5.97 23.09 5.79 21.22 3.67 21.22 3.67 21.22 3.67 23.62 4.34 23.98 3.99 24.33 3.64 18.43 0.63 19.21 2.36 19.99 4.09 19.17 3.63 18.33 2.85 17.48 2.07 16.74 3.1 16.21 4.23 15.68 5.36 15.79 3.45 15.64 2.74 15.5 2.03 14.05 2 12.39 3.09 10.73 4.19 11.22 2.81 13.52 1.71 15.82 0.61 9.84 2.95 11.75 1.85 13.65 0.77 8.52 2.11 12.41 0.63Z" fill="#232623" opacity="0.6"/></g><g><path d="M23.49 29.05 23.51 29.05C23.51 29.05 23.23 27.27 22.62 25.84 21.13 24.76 19.66 26.3 19.66 26.3L20.81 29.1 20.82 29.1C20.45 29.85 20.06 31.08 20.06 31.08L23.33 31.49C23.33 31.49 23.51 30.55 23.52 29.45 23.52 29.29 23.51 29.16 23.49 29.05Z" fill="#EDB698"/><g opacity="0.5"><path d="M21.88 29.91C21.42 30.09 21.2 29.93 21.35 29.08 21.5 28.24 22.07 28.11 22.99 28.29 22.71 27.94 22.18 27.76 21.76 27.9 21.34 28.05 21.19 28.4 20.88 27.48 20.57 26.56 20.27 25.94 21.25 25.71 21.89 25.59 22.45 25.95 22.83 26.32 22.77 26.15 22.7 25.99 22.63 25.82 21.14 24.74 19.67 26.28 19.67 26.28L20.82 29.08 20.83 29.08C20.46 29.83 20.07 31.06 20.07 31.06L23.34 31.47C23.34 31.47 23.39 31.19 23.44 30.76 22.87 30.17 22.26 29.76 21.88 29.91Z" fill="#EDB698"/></g><path d="M21.92 30.23C21.92 30.23 20.4 30.26 19.8 31.19 19.22 32.1 19 32.32 19.26 32.68 19.52 33.04 19.83 33.48 19.97 33.41 19.8 34.19 19.04 35.89 19.54 36.24 20.03 36.59 20.83 34.25 20.83 34.25 20.83 34.25 21.32 34.63 21.69 34.28 21.96 34.58 22.34 34.29 22.34 34.29 22.34 34.29 22.82 34.72 23.43 33.44 23.91 32.42 23.79 30.49 21.92 30.23Z" fill="#EDB698"/><g><path d="M20.08 32.01C20.08 32.01 20.13 32.09 20.17 32.22 20.22 32.35 20.26 32.53 20.27 32.71 20.28 32.8 20.28 32.89 20.27 32.98 20.26 33.07 20.24 33.15 20.2 33.21 20.17 33.28 20.12 33.32 20.09 33.34 20.06 33.36 20.03 33.37 20.03 33.37 20.03 33.37 20.05 33.35 20.07 33.32 20.09 33.29 20.11 33.24 20.13 33.18 20.16 33.06 20.15 32.88 20.14 32.71 20.13 32.54 20.11 32.36 20.09 32.23 20.08 32.1 20.08 32.01 20.08 32.01Z" fill="#BA703E"/><path d="M21.28 32.44C21.28 32.44 21.28 32.56 21.26 32.73 21.25 32.82 21.24 32.92 21.22 33.03 21.2 33.14 21.17 33.25 21.15 33.36 21.12 33.47 21.1 33.59 21.06 33.69 21.03 33.79 20.99 33.89 20.96 33.97 20.9 34.13 20.84 34.24 20.84 34.24 20.84 34.24 20.85 34.12 20.88 33.95 20.89 33.86 20.92 33.77 20.94 33.66 20.96 33.55 20.99 33.44 21.02 33.33 21.05 33.22 21.08 33.11 21.11 33 21.14 32.89 21.17 32.8 21.19 32.71 21.24 32.55 21.28 32.44 21.28 32.44Z" fill="#BA703E"/><path d="M22.18 32.81C22.18 32.81 22.19 32.91 22.17 33.06 22.17 33.13 22.15 33.22 22.14 33.31 22.13 33.4 22.1 33.49 22.07 33.59 22.04 33.68 22 33.78 21.97 33.86 21.95 33.9 21.93 33.94 21.91 33.98 21.89 34.02 21.87 34.05 21.85 34.08 21.83 34.11 21.81 34.14 21.79 34.16 21.77 34.18 21.75 34.2 21.74 34.22 21.71 34.25 21.69 34.27 21.69 34.27 21.69 34.27 21.7 34.25 21.71 34.21 21.72 34.19 21.73 34.17 21.74 34.14 21.75 34.11 21.77 34.09 21.78 34.05 21.79 34.01 21.8 33.98 21.82 33.94 21.83 33.9 21.85 33.86 21.86 33.82 21.88 33.73 21.92 33.64 21.94 33.55 21.97 33.46 21.99 33.37 22.02 33.28 22.05 33.19 22.07 33.11 22.09 33.05 22.14 32.91 22.18 32.81 22.18 32.81Z" fill="#BA703E"/><path d="M22.83 33.06C22.83 33.06 22.84 33.15 22.83 33.27 22.82 33.4 22.8 33.57 22.74 33.73 22.73 33.77 22.71 33.81 22.69 33.85 22.68 33.89 22.65 33.93 22.64 33.96 22.6 34.03 22.56 34.1 22.51 34.15 22.49 34.17 22.46 34.19 22.45 34.21 22.43 34.23 22.41 34.24 22.39 34.25 22.36 34.27 22.34 34.28 22.34 34.28 22.34 34.28 22.35 34.26 22.37 34.23 22.38 34.21 22.39 34.2 22.4 34.17 22.41 34.15 22.43 34.12 22.44 34.1 22.47 34.05 22.5 33.98 22.52 33.91 22.55 33.84 22.58 33.76 22.6 33.68 22.63 33.6 22.65 33.52 22.68 33.45 22.7 33.38 22.73 33.31 22.75 33.25 22.79 33.14 22.83 33.06 22.83 33.06Z" fill="#BA703E"/></g><path d="M22.9 28.16C22.49 27.91 21.96 27.91 21.56 28.16 21.14 28.42 20.91 28.78 20.75 29.24 20.74 29.28 20.78 29.27 20.79 29.24 21 28.77 21.22 28.46 21.66 28.19 22.01 27.97 22.5 28.1 22.84 28.26 22.88 28.27 22.93 28.18 22.9 28.16Z" fill="#BA703E"/><path d="M23.42 31.12C23.14 30.71 22.74 30.44 22.29 30.25 21.89 30.07 21.39 30.26 21 30.37 20.99 30.37 20.96 30.42 20.99 30.42 21.42 30.38 21.81 30.2 22.25 30.34 22.71 30.49 23.06 30.85 23.38 31.2 23.39 31.22 23.44 31.15 23.42 31.12Z" fill="#BA703E"/></g><g><path d="M8.6 28.52C8.6 28.52 8.64 28.62 8.7 28.76 8.73 28.83 8.76 28.92 8.8 29.01 8.84 29.1 8.87 29.2 8.91 29.3 8.94 29.4 8.98 29.5 9.01 29.59 9.04 29.68 9.07 29.77 9.09 29.85 9.13 30 9.15 30.11 9.15 30.11 9.15 30.11 9.09 30.02 9.01 29.88 8.97 29.81 8.93 29.73 8.89 29.64 8.87 29.6 8.85 29.55 8.83 29.5 8.81 29.45 8.79 29.4 8.78 29.35 8.75 29.25 8.71 29.15 8.69 29.05 8.66 28.96 8.65 28.86 8.63 28.78 8.6 28.63 8.6 28.52 8.6 28.52Z" fill="#C7160C"/><path d="M18.97 28.73C18.97 28.73 18.99 28.83 18.99 28.98 18.99 29.02 18.99 29.06 18.98 29.1 18.98 29.14 18.97 29.19 18.97 29.23 18.95 29.32 18.94 29.42 18.91 29.51 18.9 29.56 18.88 29.61 18.87 29.65 18.86 29.7 18.84 29.74 18.82 29.78 18.78 29.86 18.75 29.94 18.71 30.01 18.63 30.14 18.57 30.21 18.57 30.21 18.57 30.21 18.59 30.11 18.64 29.98 18.67 29.91 18.68 29.83 18.71 29.75 18.74 29.67 18.76 29.57 18.79 29.48 18.82 29.39 18.84 29.3 18.86 29.21 18.88 29.12 18.9 29.04 18.92 28.97 18.95 28.83 18.97 28.73 18.97 28.73Z" fill="#C7160C"/></g><g><path d="M19.41 39.74C19.41 39.97 19.21 40.16 18.97 40.16 18.73 40.16 18.53 39.97 18.53 39.74 18.53 39.51 18.73 39.32 18.97 39.32 19.21 39.32 19.41 39.51 19.41 39.74Z" fill="#C7160C"/><path d="M22.65 41.2C22.34 40.06 21.18 38.97 20.02 38.68 18.86 38.39 18.43 38.28 17.41 37.5 16.85 37.07 16.3 36.89 15.93 36.8 15.76 36.85 15.59 36.93 15.42 37.06 15.42 37.06 16.44 38.5 15 40.75 15 40.75 16.67 41.01 17.97 41.74 18.94 42.29 20.94 43.2 22.2 42.84 22.61 42.52 22.85 41.93 22.65 41.2Z" fill="#28A52B"/><path d="M22.65 41.2C22.34 40.06 21.18 38.97 20.02 38.68 18.86 38.39 18.43 38.28 17.41 37.5 16.85 37.07 16.3 36.89 15.93 36.8 15.76 36.85 15.59 36.93 15.42 37.06 15.42 37.06 16.44 38.5 15 40.75 15 40.75 16.67 41.01 17.97 41.74 18.19 41.87 18.47 42.01 18.78 42.16 18.63 41.72 18.64 41.24 18.92 40.89 19.1 40.66 19.6 40.28 19.54 39.96 19.48 39.64 19.24 39.44 18.91 39.44 18.46 39.45 18.18 39.71 18.02 40.13 17.95 40.31 17.89 40.51 17.76 40.66 17.65 40.78 17.26 41.11 17.29 40.74 17.31 40.45 17.47 40.1 17.64 39.86 17.84 39.57 18.29 39 17.91 38.68 17.55 38.38 17.18 38.59 16.9 38.9 16.68 39.15 16.53 39.4 16.38 39.68 16.28 39.86 16.16 40.01 15.98 40.11 15.97 40.12 15.95 40.12 15.95 40.11 15.81 39.52 16.08 38.93 16.24 38.38 16.3 38.2 16.39 37.97 16.33 37.77 16.31 37.7 16.29 37.64 16.29 37.57 16.3 37.47 16.38 37.41 16.46 37.36 16.77 37.16 17.32 37.64 17.57 37.79 18.24 38.19 18.84 38.69 19.51 39.11 20.12 39.49 20.86 39.77 21.29 40.38 21.65 40.88 21.78 41.43 21.64 42.03 21.56 42.34 21.42 42.63 21.24 42.9 21.59 42.93 21.92 42.92 22.21 42.84 22.61 42.52 22.85 41.93 22.65 41.2Z" fill="#28A52B" opacity="0.5"/><path d="M21.65 38.98 21.63 38.97C21.63 38.97 20.86 38.36 19.75 38.17 18.3 37.94 17.57 37.46 17.24 37.11 16.99 36.84 16.48 36.65 15.93 36.81 16.31 36.89 16.85 37.08 17.41 37.51 18.43 38.29 18.86 38.39 20.02 38.69 21.18 38.98 22.34 40.07 22.65 41.21 22.85 41.94 22.61 42.52 22.2 42.86 22.62 42.74 22.96 42.49 23.15 42.03 23.54 40.88 22.39 39.59 21.65 38.98Z" fill="#D8D0D0"/><g><path d="M17.46 39.58C18.04 38.92 17.49 38.61 16.97 39.1 16.48 39.56 16.12 40.19 16.4 41.09 16.56 41.14 16.72 41.19 16.89 41.26 16.83 40.91 16.84 40.28 17.46 39.58Z" fill="#F9EFEF"/><path d="M18.82 40.38C19.36 39.9 19.11 39.38 18.5 39.64 17.86 39.91 17.52 40.86 17.71 41.6 17.8 41.65 17.89 41.69 17.98 41.74 18.08 41.79 18.18 41.85 18.29 41.91 18.21 41.59 18.2 40.97 18.82 40.38Z" fill="#F9EFEF"/></g></g><g opacity="0.5"><path d="M6.4 41.3C6.4 41.29 6.4 41.29 6.4 41.28 6.4 41.28 6.4 41.27 6.4 41.27 6.4 41.27 6.4 41.29 6.4 41.3Z" fill="#EDB698"/><path d="M6.46 43.25C6.15 43.39 6.19 42.3 5.75 41.34 5.31 40.39 5.24 39.87 5.72 39.19 4.46 37.05 3.27 33.59 3.27 29.85 3.06 34.5 4.83 38.14 5.29 39.31 5.14 40 5.01 40.27 5.48 41.28 5.95 42.29 6.24 43.7 6.63 43.56 7 43.42 6.48 41.51 6.42 41.29 6.51 41.96 6.68 43.15 6.46 43.25Z" fill="#EDB698"/><path d="M8.41 40.08C9.99 40.05 10.22 39.98 10.22 39.73 10.22 39.48 9.9 39.5 8.8 39.29 7.7 39.08 7.19 39.2 6.98 38.69 4.3 30.69 7.06 25.15 7.06 25.15 6.2 23.72 4.71 23.79 4.71 23.79 4.12 25.1 3.74 26.38 3.51 27.61 3.79 26.59 4.43 24.64 5.27 24.58 6.29 24.51 5.91 26.28 5.54 28.02 5.16 29.76 5.2 36.37 6.84 39.06 7.22 39.44 9.47 39.37 9.64 39.67 9.74 39.91 8.45 39.94 8 39.94 9.09 40.79 10.11 41.68 10.15 41.92 10.18 42.16 8.17 40.45 8.17 40.45 7.8 40.08 8.44 40.96 9.06 41.88 9.67 42.8 9.5 43.11 8.72 42.29 7.94 41.47 7.12 40.72 7.12 40.72 7.12 40.72 8.13 42.81 8 43.08 7.86 43.35 6.33 40.86 6.33 40.86 6.33 40.86 6.36 41.03 6.41 41.28 6.48 41.39 7.86 43.59 8.26 43.41 8.67 43.22 7.31 40.99 7.31 40.99 7.31 40.99 9.2 43.35 9.58 43 9.96 42.65 8.28 40.68 8.28 40.68 8.28 40.68 10.37 42.67 10.49 42.27 10.6 41.88 9.51 40.9 8.41 40.08Z" fill="#EDB698"/></g><g><path d="M21.92 30.23C21.92 30.23 20.4 30.26 19.8 31.19 19.71 31.34 19.62 31.46 19.55 31.58 19.72 31.35 20.18 30.84 20.94 30.67 21.94 30.45 22.53 30.52 23.14 31.16 23.75 31.8 23.6 32.72 23.33 33.39 23 34.07 22.62 34.27 22.77 33.82 22.92 33.38 22.9 33.18 22.83 32.94 22.73 33.47 22.53 34.04 22.19 34.07 21.85 34.1 22.41 33.39 22.18 32.69 21.99 33.54 21.72 34.12 21.38 34.01 21.04 33.91 21.63 32.7 21.31 32.3 20.97 33.58 20.28 35.84 19.8 35.91 19.32 35.98 19.88 34.63 20.17 33.8 20.46 32.96 20.44 32.33 20.12 31.89 20.02 32.54 20.1 33 19.85 33.05 19.59 33.1 19.12 32.54 19.29 32.1 19.28 32.11 19.26 32.11 19.25 32.12 19.14 32.35 19.15 32.5 19.28 32.69 19.54 33.05 19.85 33.49 19.99 33.42 19.82 34.2 19.06 35.9 19.56 36.25 20.05 36.6 20.85 34.26 20.85 34.26 20.85 34.26 21.34 34.64 21.71 34.29 21.98 34.59 22.36 34.3 22.36 34.3 22.36 34.3 22.84 34.73 23.45 33.45 23.91 32.42 23.79 30.49 21.92 30.23Z" fill="#EDB698" opacity="0.5"/></g><path d="M11.38 30.49C10.76 29.39 10.26 28.25 9.98 27.01 9.7 25.81 9.96 24.55 10.2 23.37 10.23 23.22 10.07 23.33 10.05 23.42 9.76 24.62 9.51 25.8 9.67 27.04 9.83 28.33 10.38 29.74 11.15 30.78 11.25 30.92 11.44 30.6 11.38 30.49Z" fill="#C7160C"/><path d="M14.32 32.11C13.65 32.24 13.01 32.31 12.34 32.21 11.67 32.11 10.94 31.65 10.41 31.24 10.34 31.19 10.24 31.38 10.3 31.44 11.46 32.48 12.77 32.78 14.26 32.38 14.36 32.35 14.47 32.08 14.32 32.11Z" fill="#C7160C"/><path d="M4.71 36.62C4.13 35.04 3.72 33.49 3.6 31.81 3.54 31 3.52 30.18 3.57 29.38 3.62 28.57 3.77 27.81 3.91 27.01 3.93 26.89 3.8 26.98 3.79 27.05 3.64 27.75 3.49 28.36 3.41 29.07 3.32 29.94 3.33 30.81 3.38 31.68 3.47 33.45 3.84 35.16 4.54 36.79 4.58 36.9 4.74 36.7 4.71 36.62Z" fill="#EDB698" opacity="0.5"/></g></svg>