<svg width="694.57" height="302.04" viewBox="0 0 694.57 302.04" xmlns="http://www.w3.org/2000/svg" xmlns:xlink="http://www.w3.org/1999/xlink" xml:space="preserve" overflow="hidden"><defs></defs><g><g><g><g><rect x="29.76" y="201.19" width="117.05" height="76.09" fill="#FF725E"/><path d="M146.84 277.3 29.74 277.3 29.74 201.16 146.84 201.16 146.84 277.3ZM29.79 277.25 146.79 277.25 146.79 201.21 29.79 201.21 29.79 277.25Z" fill="#263238"/></g><g opacity="0.3"><rect x="29.76" y="201.19" width="117.05" height="76.09"/></g></g><g><path d="M642.28 9.64 25.17 9.64C11.27 9.64 0 18.51 0 29.45L0 257.69C0 268.63 11.27 277.5 25.17 277.5L52 277.5C49.88 272.19 48.7 266.4 48.7 260.34 48.7 234.78 69.42 214.06 94.98 214.06 120.54 214.06 141.26 234.78 141.26 260.34 141.26 266.41 140.08 272.19 137.96 277.5L642.29 277.5C656.19 277.5 667.46 268.63 667.46 257.69L667.46 29.45C667.45 18.51 656.18 9.64 642.28 9.64Z" fill="#FF725E"/></g><g><rect x="286.3" y="27.89" width="247.06" height="148.44" fill="#455A64"/></g><g><g><path d="M0.42 28.15C0.42 28.01 149.85 27.89 334.13 27.89 518.48 27.89 667.87 28.01 667.87 28.15 667.87 28.29 518.48 28.41 334.13 28.41 149.85 28.41 0.42 28.29 0.42 28.15Z" fill="#263238"/></g></g><g><path d="M506.44 14.71 343.57 14.71C339.51 14.71 336.21 11.42 336.21 7.35L336.21 7.35C336.21 3.29 339.5-0.01 343.57-0.01L506.44-0.01C510.5-0.01 513.8 3.28 513.8 7.35L513.8 7.35C513.8 11.42 510.5 14.71 506.44 14.71Z" fill="#FF725E"/></g><g><path d="M108.91 14.71 37.17 14.71C33.11 14.71 29.81 11.42 29.81 7.35L29.81 7.35C29.81 3.29 33.1 0 37.17 0L108.91 0C112.97 0 116.27 3.29 116.27 7.36L116.27 7.36C116.27 11.42 112.97 14.71 108.91 14.71Z" fill="#FF725E"/></g><g opacity="0.3"><rect x="414.54" y="198.75" width="101.78" height="78.74"/></g><g><path d="M669.43 251.9 651.22 251.9C648.02 251.9 645.43 249.31 645.43 246.11L645.43 246.11C645.43 242.91 648.02 240.32 651.22 240.32L669.43 240.32C672.63 240.32 675.22 242.91 675.22 246.11L675.22 246.11C675.22 249.31 672.63 251.9 669.43 251.9Z" fill="#455A64"/></g><g><g><path d="M667.45 236.55 658.27 236.55C650.04 236.55 643.37 229.88 643.37 221.65L643.37 221.65C643.37 213.42 650.04 206.75 658.27 206.75L667.45 206.75 667.45 236.55Z" fill="#EBEBEB"/></g><g><g><path d="M667.45 236.55C667.44 236.54 667.43 236.34 667.42 235.96 667.41 235.54 667.4 234.99 667.39 234.3 667.37 232.82 667.35 230.74 667.32 228.13 667.29 222.84 667.25 215.43 667.2 206.76L667.44 207C664.72 207 661.87 207.01 658.91 207.01 655.99 206.92 652.95 207.66 650.36 209.34 647.65 211.09 645.59 213.67 644.56 216.53 644.27 217.23 644.11 217.97 643.92 218.69 643.81 219.43 643.66 220.15 643.65 220.89 643.55 222.35 643.71 223.79 644.04 225.14 644.67 227.87 646.12 230.21 647.85 232 649.61 233.76 651.67 234.96 653.68 235.63 655.69 236.34 657.65 236.41 659.33 236.41 661.01 236.43 662.47 236.45 663.67 236.46 664.84 236.48 665.77 236.5 666.45 236.51 666.75 236.52 666.99 236.53 667.19 236.53 667.36 236.54 667.45 236.54 667.45 236.55 667.46 236.56 667.38 236.56 667.22 236.57 667.03 236.58 666.8 236.58 666.52 236.59 665.85 236.6 664.93 236.62 663.77 236.64 662.54 236.66 661.07 236.67 659.36 236.69 657.64 236.73 655.65 236.67 653.57 235.97 651.51 235.3 649.38 234.09 647.55 232.29 645.76 230.47 644.25 228.06 643.58 225.24 643.23 223.84 643.07 222.35 643.16 220.85 643.16 220.09 643.32 219.34 643.43 218.58 643.62 217.83 643.79 217.07 644.09 216.34 645.16 213.38 647.29 210.7 650.09 208.89 652.76 207.15 655.94 206.38 658.92 206.49 661.88 206.49 664.73 206.5 667.45 206.5L667.69 206.5 667.69 206.74C667.64 215.48 667.6 222.95 667.57 228.27 667.54 230.86 667.52 232.92 667.5 234.39 667.49 235.06 667.48 235.6 667.47 236 667.47 236.38 667.46 236.56 667.45 236.55Z" fill="#263238"/></g></g></g><g><g><path d="M41.69 244.02 24.81 244.02C21.25 244.02 18.36 241.13 18.36 237.57L18.36 237.57C18.36 234.01 21.25 231.12 24.81 231.12L41.69 231.12C45.25 231.12 48.14 234.01 48.14 237.57L48.14 237.57C48.15 241.13 45.26 244.02 41.69 244.02Z" fill="#F5F5F5"/></g><g><g><path d="M41.69 244.02C41.67 243.94 42.78 244.09 44.46 243.27 45.29 242.86 46.21 242.15 46.94 241.06 47.65 239.97 48.11 238.47 47.91 236.84 47.73 235.22 46.8 233.52 45.22 232.43 44.43 231.89 43.49 231.53 42.48 231.4 41.49 231.29 40.36 231.37 39.26 231.35 34.81 231.36 29.93 231.36 24.8 231.37 22.31 231.34 20.02 232.94 19.12 235.09 18.18 237.23 18.58 239.76 19.94 241.42 20.6 242.26 21.47 242.9 22.4 243.3 23.35 243.7 24.32 243.81 25.31 243.8 27.28 243.81 29.12 243.82 30.81 243.83 34.13 243.86 36.84 243.89 38.77 243.91 39.67 243.93 40.39 243.95 40.93 243.96 41.43 243.99 41.69 244 41.69 244.02 41.69 244.04 41.43 244.06 40.94 244.07 40.39 244.08 39.68 244.1 38.78 244.12 36.84 244.14 34.14 244.17 30.82 244.2 29.13 244.21 27.29 244.22 25.32 244.23 24.34 244.26 23.24 244.15 22.23 243.72 21.23 243.29 20.29 242.62 19.57 241.71 18.1 239.93 17.65 237.2 18.66 234.88 19.63 232.55 22.11 230.81 24.81 230.84 29.94 230.85 34.82 230.85 39.27 230.86 40.39 230.89 41.44 230.81 42.54 230.93 43.62 231.08 44.63 231.47 45.47 232.06 47.15 233.24 48.11 235.07 48.28 236.79 48.46 238.52 47.95 240.09 47.18 241.21 46.4 242.34 45.42 243.05 44.55 243.44 43.68 243.84 42.94 243.96 42.45 244.01 42.2 244.03 42.01 244.02 41.88 244.02 41.76 244.04 41.69 244.03 41.69 244.02Z" fill="#263238"/></g></g></g><g><path d="M691.37 50.68 688.37 50.68C688.37 36.98 680.31 25.83 670.41 25.83L637.45 25.83 637.45 22.83 670.41 22.83C681.97 22.83 691.37 35.32 691.37 50.68Z" fill="#FF725E"/></g><g><g><path d="M690.89 117.68 683.39 117.68C681.51 117.68 679.98 116.15 679.98 114.27L679.98 46.09C679.98 44.21 681.51 42.68 683.39 42.68L690.89 42.68C692.77 42.68 694.3 44.21 694.3 46.09L694.3 114.27C694.3 116.15 692.77 117.68 690.89 117.68Z" fill="#FF725E"/></g><g><g><path d="M690.89 117.68C690.87 117.62 691.54 117.75 692.54 117.19 693.02 116.9 693.58 116.42 693.91 115.66 694.3 114.91 694.19 113.93 694.19 112.83 694.17 108.43 694.14 102.11 694.11 94.32 694.09 86.5 694.08 77.19 694.05 66.86 694.05 61.69 694.04 56.27 694.03 50.65 694.03 49.24 694.03 47.83 694.03 46.4 694.14 45.03 693.34 43.7 692.08 43.18 691.46 42.9 690.78 42.94 690.03 42.94 689.3 42.94 688.57 42.94 687.83 42.94 686.36 42.94 684.88 42.94 683.38 42.94 681.99 42.92 680.68 43.92 680.34 45.26 680.15 45.9 680.25 46.65 680.22 47.38 680.22 48.11 680.22 48.84 680.22 49.57 680.22 52.47 680.22 55.34 680.22 58.15 680.21 63.77 680.21 69.2 680.2 74.37 680.18 84.7 680.16 94.01 680.14 101.83 680.13 105.73 680.11 109.27 680.1 112.38 680.1 113.15 680.08 113.92 680.11 114.61 680.18 115.3 680.46 115.94 680.88 116.42 681.3 116.91 681.84 117.24 682.39 117.42 682.95 117.6 683.52 117.57 684.07 117.58 686.24 117.6 687.93 117.62 689.1 117.63 689.66 117.64 690.09 117.65 690.41 117.66 690.74 117.66 690.89 117.67 690.89 117.68 690.89 117.69 690.74 117.7 690.44 117.71 690.12 117.72 689.69 117.72 689.13 117.74 687.95 117.75 686.26 117.77 684.1 117.79 683.56 117.79 682.96 117.83 682.35 117.65 681.75 117.46 681.17 117.11 680.71 116.59 680.25 116.07 679.94 115.39 679.86 114.64 679.82 113.89 679.84 113.16 679.83 112.38 679.82 109.27 679.81 105.74 679.79 101.83 679.77 94.01 679.76 84.7 679.73 74.37 679.73 69.2 679.72 63.78 679.71 58.15 679.71 55.34 679.71 52.48 679.71 49.57 679.71 48.84 679.71 48.11 679.71 47.38L679.71 46.28C679.71 45.91 679.73 45.5 679.84 45.12 680.23 43.57 681.76 42.4 683.38 42.42 684.87 42.42 686.35 42.42 687.83 42.42 688.57 42.42 689.3 42.42 690.03 42.42 690.73 42.42 691.55 42.37 692.28 42.7 693.75 43.28 694.68 44.9 694.55 46.39 694.55 47.82 694.55 49.24 694.55 50.64 694.54 56.26 694.54 61.69 694.53 66.85 694.51 77.18 694.49 86.48 694.47 94.31 694.44 102.11 694.41 108.43 694.39 112.82 694.38 113.37 694.38 113.88 694.37 114.37 694.35 114.87 694.23 115.32 694.04 115.71 693.67 116.5 693.08 116.98 692.58 117.26 692.07 117.54 691.62 117.63 691.32 117.65 691.04 117.7 690.89 117.68 690.89 117.68Z" fill="#263238"/></g></g></g><g><g><path d="M150.42 180.68 95.85 179.28 49.95 125.68 12.14 125.68 12.14 28.15 150.42 28.15Z" fill="#455A64"/></g><g><g><path d="M150.42 180.68C150.42 180.68 150.41 180.43 150.41 179.95 150.41 179.46 150.4 178.75 150.4 177.82 150.39 175.94 150.38 173.16 150.37 169.55 150.36 162.32 150.33 151.75 150.31 138.35 150.28 111.57 150.24 73.47 150.19 28.15L150.42 28.38C113.82 28.39 71.79 28.4 27.31 28.41 22.22 28.41 17.16 28.41 12.14 28.41L12.4 28.15C12.39 62.8 12.38 95.73 12.38 125.68L12.14 125.44C25.38 125.45 38 125.45 49.95 125.46L50.05 125.46 50.12 125.54C67.96 146.41 83.48 164.57 95.97 179.18L95.86 179.13C113.11 179.61 126.73 179.99 136.05 180.25 140.71 180.39 144.3 180.49 146.73 180.56 147.94 180.6 148.86 180.63 149.48 180.65 150.1 180.66 150.42 180.68 150.42 180.68 150.42 180.68 150.12 180.68 149.51 180.67 148.89 180.66 147.98 180.64 146.78 180.62 144.36 180.57 140.78 180.49 136.13 180.38 126.79 180.16 113.13 179.84 95.84 179.43L95.77 179.43 95.72 179.38C83.21 164.79 67.65 146.66 49.77 125.82L49.94 125.9C37.99 125.91 25.37 125.91 12.13 125.92L11.89 125.92 11.89 125.68C11.88 95.73 11.88 62.8 11.87 28.15L11.87 27.89 12.13 27.89C17.15 27.89 22.21 27.89 27.3 27.89 71.78 27.9 113.81 27.91 150.41 27.92L150.64 27.92 150.64 28.15C150.59 73.53 150.55 111.68 150.52 138.5 150.49 151.88 150.47 162.43 150.46 169.65 150.45 173.24 150.44 176 150.43 177.87 150.42 178.79 150.42 179.49 150.42 179.97 150.43 180.44 150.42 180.68 150.42 180.68Z" fill="#263238"/></g></g></g><g><g><g><g><g><g><g><g><g><g><g><g><ellipse cx="465.28" cy="261.24" rx="40.27" ry="40.27" fill="#263238" transform="matrix(0.0162 -0.9999 0.9999 0.0162 196.528 722.229)"/></g></g></g></g></g></g></g></g></g></g></g><g><g><g><g><g><g><g><g><g><g><g><path d="M425.02 260.56C425.02 260.59 425.01 260.63 425.01 260.66 424.69 282.9 442.46 301.19 464.7 301.51 486.94 301.83 505.23 284.06 505.55 261.82 505.55 261.78 505.55 261.75 505.55 261.72L425.02 260.56Z" fill="#263238"/></g></g></g></g></g></g></g></g></g></g></g><g><g><g><g><g><g><g><g><g><g><g><path d="M437.01 260.84C436.78 276.45 449.26 289.29 464.87 289.52 480.48 289.75 493.32 277.27 493.55 261.66 493.78 246.05 481.3 233.21 465.69 232.98 450.07 232.75 437.23 245.22 437.01 260.84Z" fill="#FAFAFA"/></g></g></g></g></g></g></g></g></g></g></g><g><g><g><g><g><g><g><g><g><g><g><path d="M465.69 232.97C450.08 232.74 437.24 245.22 437.01 260.83L493.55 261.65C493.78 246.04 481.3 233.2 465.69 232.97Z" fill="#E0E0E0"/></g></g></g></g></g></g></g></g></g></g></g><g><g><g><g><g><g><g><g><g><g><g><path d="M448.06 261C447.92 270.51 455.52 278.33 465.03 278.47 474.54 278.61 482.36 271.01 482.5 261.5 482.64 251.99 475.04 244.17 465.53 244.03 456.02 243.89 448.19 251.48 448.06 261Z" fill="#263238"/></g></g></g></g></g></g></g></g></g></g></g></g><g><g><g><g><g><g><g><g><g><g><g><g><ellipse cx="94.83" cy="261.65" rx="40.27" ry="40.27" fill="#263238" transform="matrix(0.0155 -0.9999 0.9999 0.0155 -168.257 352.419)"/></g></g></g></g></g></g></g></g></g></g></g><g><g><g><g><g><g><g><g><g><g><g><path d="M54.57 260.97C54.57 261 54.56 261.04 54.56 261.07 54.24 283.31 72.01 301.6 94.25 301.92 116.49 302.24 134.78 284.47 135.1 262.23 135.1 262.19 135.1 262.16 135.1 262.13L54.57 260.97Z" fill="#263238"/></g></g></g></g></g></g></g></g></g></g></g><g><g><g><g><g><g><g><g><g><g><g><path d="M66.56 261.24C66.33 276.85 78.81 289.69 94.42 289.92 110.03 290.15 122.87 277.67 123.1 262.06 123.33 246.45 110.85 233.61 95.24 233.38 79.63 233.16 66.79 245.63 66.56 261.24Z" fill="#FAFAFA"/></g></g></g></g></g></g></g></g></g></g></g><g><g><g><g><g><g><g><g><g><g><g><path d="M95.24 233.38C79.63 233.15 66.79 245.63 66.56 261.24L123.1 262.06C123.33 246.45 110.86 233.61 95.24 233.38Z" fill="#E0E0E0"/></g></g></g></g></g></g></g></g></g></g></g><g><g><g><g><g><g><g><g><g><g><g><path d="M77.61 261.4C77.47 270.91 85.07 278.73 94.58 278.87 104.09 279.01 111.91 271.41 112.05 261.9 112.19 252.39 104.59 244.57 95.08 244.43 85.57 244.29 77.75 251.89 77.61 261.4Z" fill="#263238"/></g></g></g></g></g></g></g></g></g></g></g></g><g><g><path d="M12.14 274.63C12 274.63 11.88 219.45 11.88 151.39 11.88 83.31 12 28.14 12.14 28.14 12.28 28.14 12.4 83.31 12.4 151.39 12.4 219.45 12.28 274.63 12.14 274.63Z" fill="#263238"/></g></g><g><g><path d="M21.43 10.55C21.43 10.41 133.11 10.29 270.84 10.29 408.62 10.29 520.27 10.41 520.27 10.55 520.27 10.69 408.62 10.81 270.84 10.81 133.11 10.81 21.43 10.69 21.43 10.55Z" fill="#263238"/></g></g><g><g><path d="M286.3 193.83C286.16 193.83 286.04 157.24 286.04 112.11 286.04 66.97 286.16 30.38 286.3 30.38 286.44 30.38 286.56 66.96 286.56 112.11 286.56 157.24 286.45 193.83 286.3 193.83Z" fill="#263238"/></g></g><g><g><path d="M412.13 172.84C411.99 172.84 411.87 140.95 411.87 101.62 411.87 62.27 411.99 30.39 412.13 30.39 412.27 30.39 412.39 62.28 412.39 101.62 412.39 140.95 412.27 172.84 412.13 172.84Z" fill="#263238"/></g></g><g><g><path d="M328.19 156.51C328.07 156.43 340.78 137.84 356.58 114.99 372.38 92.14 385.28 73.68 385.4 73.76 385.52 73.84 372.81 92.43 357.01 115.28 341.21 138.13 328.31 156.59 328.19 156.51Z" fill="#263238"/></g></g><g><g><path d="M310.41 164.95C310.29 164.87 323.92 145.61 340.85 121.94 357.78 98.26 371.6 79.14 371.72 79.23 371.84 79.31 358.21 98.57 341.28 122.24 324.35 145.91 310.53 165.04 310.41 164.95Z" fill="#263238"/></g></g><g><g><path d="M426.69 133.12C426.58 133.03 441.05 116.29 458.99 95.75 476.94 75.2 491.58 58.63 491.69 58.72 491.8 58.81 477.34 75.54 459.38 96.09 441.43 116.64 426.79 133.22 426.69 133.12Z" fill="#263238"/></g></g><g><g><path d="M440.06 135.38C439.95 135.28 454.16 119.81 471.78 100.84 489.41 81.86 503.78 66.55 503.88 66.65 503.99 66.75 489.79 82.21 472.16 101.2 454.53 120.17 440.16 135.48 440.06 135.38Z" fill="#263238"/></g></g><g><path d="M286.3 193.71 286.3 277.27 421.56 277.27C419.44 271.96 418.26 266.17 418.26 260.11 418.26 234.55 438.98 213.83 464.54 213.83 490.1 213.83 510.82 234.55 510.82 260.11 510.82 266.18 508.85 272.1 506.73 277.41L525.84 277.49 525.84 193.72 286.3 193.72Z" fill="#FF725E"/></g><g><g><path d="M403.38 249.46 386.5 249.46C382.94 249.46 380.05 246.57 380.05 243.01L380.05 243.01C380.05 239.45 382.94 236.56 386.5 236.56L403.38 236.56C406.94 236.56 409.83 239.45 409.83 243.01L409.83 243.01C409.83 246.57 406.94 249.46 403.38 249.46Z" fill="#FFFFFF"/></g><g><g><path d="M403.38 249.46C403.36 249.38 404.47 249.53 406.15 248.71 406.98 248.3 407.9 247.59 408.63 246.5 409.34 245.41 409.8 243.91 409.6 242.28 409.42 240.66 408.49 238.96 406.91 237.87 406.12 237.33 405.18 236.97 404.17 236.84 403.18 236.73 402.05 236.81 400.95 236.79 396.5 236.8 391.62 236.8 386.49 236.81 384 236.78 381.71 238.38 380.81 240.53 379.87 242.67 380.27 245.2 381.63 246.86 382.29 247.7 383.16 248.34 384.09 248.74 385.04 249.14 386.01 249.25 387 249.24 388.97 249.25 390.81 249.26 392.5 249.27 395.82 249.3 398.53 249.33 400.46 249.35 401.36 249.37 402.08 249.39 402.62 249.4 403.12 249.42 403.38 249.44 403.38 249.46 403.38 249.48 403.12 249.5 402.63 249.51 402.08 249.52 401.37 249.54 400.47 249.56 398.53 249.58 395.83 249.61 392.51 249.64 390.82 249.65 388.98 249.66 387.01 249.67 386.03 249.7 384.93 249.59 383.92 249.16 382.92 248.73 381.98 248.06 381.26 247.15 379.79 245.37 379.34 242.64 380.35 240.32 381.32 237.99 383.8 236.25 386.5 236.28 391.63 236.29 396.51 236.29 400.96 236.3 402.08 236.33 403.13 236.25 404.23 236.37 405.31 236.52 406.32 236.91 407.16 237.5 408.84 238.68 409.8 240.51 409.97 242.23 410.15 243.96 409.64 245.53 408.87 246.65 408.09 247.78 407.11 248.49 406.24 248.88 405.37 249.28 404.63 249.4 404.14 249.45 403.89 249.47 403.7 249.46 403.57 249.46 403.44 249.47 403.38 249.46 403.38 249.46Z" fill="#263238"/></g></g></g><g><g><g><rect x="150.57" y="28.57" width="67.78" height="248.7" fill="#FF725E"/></g><g><g><path d="M218.35 277.27C218.35 277.27 218.34 276.84 218.33 276.02 218.33 275.19 218.32 273.98 218.31 272.38 218.3 269.18 218.29 264.46 218.28 258.35 218.26 246.14 218.24 228.38 218.21 206.18 218.18 161.8 218.14 99.66 218.09 28.56L218.34 28.81C196.61 28.81 173.89 28.81 150.57 28.82 150.56 28.82 150.55 28.82 150.55 28.82L150.81 28.56C150.77 130.05 150.73 220.36 150.71 277.26L150.55 277.1C171.95 277.14 188.88 277.17 200.46 277.19 206.26 277.21 210.71 277.22 213.73 277.23 215.23 277.24 216.38 277.24 217.15 277.25 217.95 277.26 218.35 277.27 218.35 277.27 218.35 277.27 217.97 277.28 217.21 277.29 216.44 277.29 215.31 277.3 213.81 277.31 210.8 277.32 206.35 277.33 200.57 277.35 188.96 277.37 172 277.4 150.56 277.44L150.4 277.44 150.4 277.28C150.38 220.38 150.34 130.06 150.3 28.58L150.3 28.32 150.56 28.32C150.56 28.32 150.57 28.32 150.58 28.32 173.89 28.32 196.62 28.32 218.35 28.33L218.6 28.33 218.6 28.58C218.55 99.75 218.51 161.96 218.48 206.38 218.45 228.56 218.42 246.29 218.41 258.49 218.4 264.57 218.38 269.27 218.38 272.46 218.37 274.04 218.37 275.25 218.36 276.07 218.36 276.87 218.35 277.27 218.35 277.27Z" fill="#263238"/></g></g></g><g><g><path d="M196.1 193.71 173.61 193.71C166.72 193.71 161.14 188.12 161.14 181.24L161.14 50.06C161.14 43.17 166.73 37.59 173.61 37.59L196.1 37.59C202.99 37.59 208.57 43.17 208.57 50.06L208.57 181.24C208.58 188.13 202.99 193.71 196.1 193.71Z" fill="#455A64"/></g><g><g><path d="M196.1 193.71C196.1 193.71 196.44 193.68 197.09 193.63 197.74 193.57 198.72 193.43 199.94 193.04 201.15 192.65 202.61 191.95 204.04 190.75 205.44 189.53 206.88 187.83 207.69 185.54 208.12 184.41 208.39 183.14 208.43 181.8 208.48 180.46 208.44 179.03 208.45 177.55 208.44 174.58 208.44 171.36 208.43 167.89 208.42 160.96 208.41 153.06 208.39 144.34 208.37 126.89 208.36 106.11 208.33 83.04 208.33 77.27 208.32 71.36 208.32 65.32 208.32 62.3 208.32 59.25 208.32 56.17 208.32 54.63 208.32 53.08 208.32 51.53 208.34 49.96 208.32 48.44 207.9 46.95 207.13 43.97 205.16 41.3 202.5 39.67 201.17 38.85 199.68 38.29 198.12 38.03 196.58 37.76 194.95 37.87 193.33 37.85 186.85 37.85 180.27 37.85 173.62 37.85 170.35 37.83 167.14 39.2 164.89 41.52 162.62 43.82 161.36 47.01 161.39 50.19 161.39 56.67 161.39 63.06 161.39 69.34 161.38 81.9 161.38 94.01 161.37 105.54 161.35 128.61 161.33 149.39 161.31 166.84 161.3 171.2 161.3 175.36 161.29 179.29 161.29 180.27 161.27 181.25 161.33 182.18 161.39 183.12 161.59 184.03 161.83 184.91 162.38 186.65 163.3 188.21 164.44 189.48 166.73 192.05 169.89 193.38 172.81 193.55 175.76 193.64 178.49 193.59 180.92 193.61 185.79 193.63 189.57 193.65 192.16 193.66 193.44 193.67 194.41 193.68 195.08 193.69 195.77 193.7 196.1 193.71 196.1 193.71 196.1 193.71 195.76 193.73 195.1 193.74 194.43 193.75 193.45 193.75 192.18 193.77 189.6 193.78 185.81 193.8 180.94 193.82 178.5 193.81 175.8 193.88 172.81 193.8 169.83 193.64 166.59 192.3 164.24 189.68 163.06 188.38 162.11 186.79 161.54 185 161.28 184.1 161.08 183.17 161.01 182.2 160.94 181.23 160.96 180.27 160.96 179.28 160.95 175.35 160.95 171.2 160.94 166.83 160.92 149.38 160.91 128.6 160.88 105.53 160.88 93.99 160.87 81.88 160.86 69.33 160.86 63.05 160.86 56.66 160.86 50.18 160.83 46.87 162.14 43.54 164.51 41.15 166.85 38.73 170.2 37.31 173.61 37.33 180.27 37.33 186.84 37.33 193.32 37.33 194.93 37.35 196.56 37.24 198.2 37.52 199.82 37.79 201.38 38.38 202.76 39.23 205.54 40.93 207.59 43.72 208.39 46.82 208.82 48.36 208.84 50 208.82 51.53 208.82 53.08 208.82 54.63 208.82 56.17 208.82 59.25 208.82 62.3 208.82 65.32 208.82 71.36 208.81 77.27 208.81 83.04 208.79 106.11 208.77 126.88 208.75 144.34 208.74 153.06 208.72 160.96 208.71 167.89 208.7 171.35 208.7 174.58 208.69 177.55 208.67 179.04 208.71 180.45 208.65 181.81 208.6 183.18 208.32 184.46 207.87 185.61 207.03 187.94 205.55 189.65 204.13 190.87 202.67 192.07 201.19 192.76 199.96 193.14 198.72 193.51 197.74 193.64 197.09 193.68 196.44 193.72 196.1 193.71 196.1 193.71Z" fill="#263238"/></g></g></g><g><g><path d="M286.47 277.27C286.47 277.27 286.46 276.84 286.45 276.02 286.45 275.19 286.44 273.98 286.43 272.38 286.42 269.18 286.41 264.46 286.4 258.35 286.38 246.14 286.36 228.38 286.33 206.18 286.3 161.8 286.26 99.66 286.21 28.56L286.46 28.81C264.73 28.81 242.01 28.81 218.69 28.82 218.68 28.82 218.67 28.82 218.67 28.82L218.93 28.56C218.89 130.05 218.85 220.36 218.83 277.26L218.67 277.1C240.07 277.14 257 277.17 268.58 277.19 274.38 277.21 278.83 277.22 281.85 277.23 283.35 277.24 284.5 277.24 285.27 277.25 286.07 277.26 286.47 277.27 286.47 277.27 286.47 277.27 286.09 277.28 285.33 277.29 284.56 277.29 283.43 277.3 281.93 277.31 278.92 277.32 274.47 277.33 268.69 277.35 257.08 277.37 240.12 277.4 218.68 277.44L218.52 277.44 218.52 277.28C218.5 220.38 218.46 130.06 218.42 28.58L218.42 28.32 218.68 28.32C218.68 28.32 218.69 28.32 218.7 28.32 242.01 28.32 264.74 28.32 286.47 28.33L286.72 28.33 286.72 28.58C286.67 99.75 286.63 161.96 286.6 206.38 286.57 228.56 286.54 246.29 286.53 258.49 286.52 264.57 286.5 269.27 286.5 272.46 286.49 274.04 286.49 275.25 286.48 276.07 286.48 276.87 286.47 277.27 286.47 277.27Z" fill="#263238"/></g></g><g><g><path d="M264.49 193.71 241.45 193.71C234.71 193.71 229.25 188.25 229.25 181.51L229.25 49.79C229.25 43.05 234.71 37.59 241.45 37.59L264.49 37.59C271.23 37.59 276.69 43.05 276.69 49.79L276.69 181.52C276.7 188.25 271.23 193.71 264.49 193.71Z" fill="#455A64"/></g><g><g><path d="M264.49 193.71C264.48 193.63 265.88 193.82 268.33 193.03 269.54 192.63 271 191.92 272.4 190.68 273.8 189.45 275.17 187.7 275.94 185.39 276.31 184.24 276.57 182.97 276.57 181.63 276.57 180.27 276.57 178.85 276.56 177.37 276.55 174.4 276.55 171.17 276.54 167.7 276.53 160.76 276.52 152.86 276.5 144.12 276.48 126.65 276.47 105.85 276.44 82.75 276.44 76.98 276.43 71.06 276.43 65.01 276.43 61.99 276.43 58.93 276.43 55.85 276.43 54.31 276.43 52.76 276.43 51.2 276.45 49.63 276.42 48.11 275.99 46.62 275.19 43.65 273.16 41.01 270.44 39.45 269.09 38.67 267.57 38.15 266.01 37.96 264.46 37.78 262.81 37.88 261.2 37.85 254.71 37.85 248.12 37.85 241.46 37.85 238.19 37.83 234.98 39.24 232.78 41.6 230.54 43.94 229.4 47.17 229.51 50.37 229.51 56.86 229.51 63.26 229.51 69.54 229.5 82.11 229.5 94.24 229.49 105.79 229.47 128.89 229.45 149.69 229.43 167.17 229.42 171.54 229.42 175.7 229.41 179.63 229.39 181.6 229.37 183.51 230 185.25 230.57 186.99 231.52 188.54 232.69 189.78 235.04 192.31 238.26 193.55 241.19 193.58 244.16 193.59 246.87 193.61 249.32 193.62 254.2 193.64 257.99 193.66 260.57 193.67 261.85 193.68 262.82 193.69 263.5 193.7 264.16 193.7 264.49 193.71 264.49 193.71 264.49 193.71 264.15 193.73 263.49 193.74 262.82 193.75 261.84 193.75 260.56 193.77 257.98 193.78 254.19 193.8 249.31 193.82 246.87 193.82 244.15 193.83 241.18 193.83 238.19 193.81 234.89 192.56 232.48 189.98 231.28 188.71 230.3 187.12 229.71 185.34 229.56 184.89 229.46 184.43 229.34 183.97 229.28 183.5 229.17 183.03 229.14 182.54 229.07 181.57 229.09 180.6 229.08 179.62 229.07 175.68 229.07 171.53 229.06 167.16 229.04 149.69 229.03 128.88 229 105.78 229 94.23 228.99 82.1 228.98 69.53 228.98 63.24 228.98 56.85 228.98 50.36 228.86 47.07 230.05 43.67 232.39 41.24 234.68 38.78 238.04 37.3 241.45 37.33 248.11 37.33 254.7 37.33 261.19 37.33 262.82 37.36 264.42 37.26 266.07 37.44 267.7 37.65 269.28 38.18 270.69 39 273.52 40.63 275.64 43.38 276.48 46.48 276.93 48.02 276.96 49.66 276.94 51.2 276.94 52.76 276.94 54.31 276.94 55.85 276.94 58.93 276.94 61.99 276.94 65.01 276.94 71.06 276.93 76.97 276.93 82.75 276.91 105.85 276.89 126.65 276.87 144.12 276.86 152.85 276.84 160.76 276.83 167.7 276.82 171.17 276.82 174.4 276.81 177.37 276.8 178.86 276.8 180.28 276.79 181.63 276.78 183 276.51 184.29 276.13 185.46 275.33 187.8 273.93 189.58 272.5 190.8 271.06 192.04 269.59 192.74 268.36 193.13 267.13 193.52 266.14 193.65 265.49 193.69 264.83 193.72 264.49 193.71 264.49 193.71Z" fill="#263238"/></g></g></g></g><g><g><path d="M86.98 121.26C86.86 121.18 95.27 108.47 105.75 92.87 116.24 77.27 124.84 64.69 124.96 64.77 125.08 64.85 116.68 77.56 106.19 93.16 95.69 108.76 87.09 121.34 86.98 121.26Z" fill="#263238"/></g></g><g><g><path d="M70.64 121.26C70.63 121.26 70.67 121.18 70.76 121.03 70.87 120.86 70.99 120.65 71.15 120.39 71.53 119.8 72.05 119 72.71 117.97 74.08 115.88 76.08 112.87 78.59 109.19 83.61 101.81 90.69 91.72 98.56 80.61 106.43 69.49 113.56 59.44 118.65 52.11 121.17 48.47 123.22 45.51 124.67 43.43 125.36 42.43 125.91 41.64 126.31 41.07 126.49 40.82 126.63 40.62 126.75 40.46 126.85 40.33 126.91 40.26 126.91 40.26 126.92 40.27 126.88 40.34 126.79 40.49 126.69 40.66 126.56 40.87 126.4 41.13 126.02 41.72 125.5 42.52 124.84 43.55 123.48 45.64 121.47 48.65 118.96 52.33 113.94 59.71 106.86 69.8 98.99 80.92 91.12 92.03 84 102.09 78.9 109.41 76.38 113.05 74.33 116.01 72.88 118.1 72.19 119.1 71.64 119.89 71.24 120.46 71.06 120.71 70.92 120.91 70.8 121.07 70.71 121.2 70.65 121.27 70.64 121.26Z" fill="#263238"/></g></g><g><g><path d="M367.57 235.6C367.57 235.6 367.76 235.57 368.14 235.63 368.51 235.69 369.08 235.85 369.65 236.33 370.22 236.8 370.77 237.65 370.78 238.76 370.79 239.83 370.8 241.07 370.8 242.46 370.82 248.04 370.85 256.09 370.88 266.03 370.89 268.52 370.89 271.12 370.9 273.84 371.04 275.25 370.14 276.81 368.69 277.29 368.34 277.42 367.96 277.48 367.58 277.49L366.51 277.49C365.79 277.49 365.07 277.49 364.34 277.49 358.49 277.5 352.24 277.51 345.66 277.51 332.5 277.52 318.04 277.52 302.86 277.53 301.83 277.53 300.81 277.04 300.19 276.23 299.88 275.83 299.65 275.36 299.54 274.86 299.42 274.35 299.47 273.86 299.46 273.4 299.46 271.53 299.46 269.66 299.46 267.81 299.46 264.11 299.46 260.47 299.46 256.89 299.46 253.31 299.46 249.79 299.47 246.35 299.47 244.63 299.47 242.92 299.47 241.24 299.47 240.4 299.47 239.56 299.47 238.73 299.47 237.83 299.84 236.95 300.48 236.33 301.11 235.7 301.99 235.35 302.86 235.36 303.67 235.36 304.48 235.36 305.28 235.36 306.88 235.36 308.46 235.36 310.02 235.37 313.14 235.37 316.16 235.38 319.09 235.38 324.94 235.39 330.39 235.4 335.36 235.41 345.29 235.44 353.34 235.47 358.93 235.49 361.7 235.51 363.85 235.53 365.34 235.54 366.06 235.55 366.61 235.56 367.01 235.57 367.38 235.58 367.57 235.6 367.57 235.6 367.57 235.6 367.38 235.62 367 235.63 366.6 235.64 366.05 235.64 365.33 235.66 363.84 235.67 361.69 235.69 358.92 235.71 353.34 235.73 345.29 235.76 335.35 235.79 330.37 235.8 324.92 235.81 319.08 235.82 316.15 235.82 313.13 235.83 310.01 235.83 308.45 235.83 306.87 235.83 305.27 235.84 304.47 235.84 303.66 235.84 302.85 235.84 302.1 235.84 301.35 236.14 300.81 236.68 300.26 237.21 299.95 237.97 299.95 238.74 299.95 239.57 299.95 240.41 299.95 241.25 299.95 242.93 299.95 244.64 299.95 246.36 299.95 249.8 299.95 253.32 299.96 256.9 299.96 260.48 299.96 264.12 299.96 267.82 299.96 269.67 299.96 271.53 299.96 273.41 299.97 273.89 299.93 274.35 300.03 274.76 300.12 275.18 300.31 275.58 300.58 275.92 301.11 276.61 301.97 277.02 302.84 277.02 318.02 277.03 332.48 277.03 345.64 277.04 352.22 277.05 358.47 277.06 364.32 277.06 365.05 277.06 365.78 277.06 366.49 277.06 367.22 277.05 367.93 277.13 368.53 276.89 369.8 276.46 370.59 275.14 370.48 273.83 370.49 271.12 370.49 268.51 370.5 266.02 370.53 256.09 370.56 248.04 370.58 242.45 370.59 241.06 370.6 239.83 370.6 238.75 370.61 237.69 370.09 236.86 369.56 236.4 369.01 235.92 368.47 235.75 368.11 235.67 367.77 235.61 367.57 235.62 367.57 235.6Z" fill="#263238"/></g></g><g><g><path d="M307.12 277.27C306.98 277.27 306.86 267.96 306.86 256.47 306.86 244.98 306.98 235.67 307.12 235.67 307.26 235.67 307.38 244.98 307.38 256.47 307.38 267.96 307.26 277.27 307.12 277.27Z" fill="#263238"/></g></g><g><g><path d="M314.97 277.27C314.83 277.27 314.71 267.96 314.71 256.47 314.71 244.98 314.83 235.67 314.97 235.67 315.11 235.67 315.23 244.98 315.23 256.47 315.23 267.96 315.11 277.27 314.97 277.27Z" fill="#263238"/></g></g><g><g><path d="M322.82 277.27C322.68 277.27 322.56 267.96 322.56 256.47 322.56 244.98 322.68 235.67 322.82 235.67 322.96 235.67 323.08 244.98 323.08 256.47 323.08 267.96 322.96 277.27 322.82 277.27Z" fill="#263238"/></g></g><g><g><path d="M330.67 277.27C330.53 277.27 330.41 267.96 330.41 256.47 330.41 244.98 330.53 235.67 330.67 235.67 330.81 235.67 330.93 244.98 330.93 256.47 330.93 267.96 330.81 277.27 330.67 277.27Z" fill="#263238"/></g></g><g><g><path d="M338.51 277.27C338.37 277.27 338.25 267.96 338.25 256.47 338.25 244.98 338.37 235.67 338.51 235.67 338.65 235.67 338.77 244.98 338.77 256.47 338.78 267.96 338.66 277.27 338.51 277.27Z" fill="#263238"/></g></g><g><g><path d="M346.36 277.27C346.22 277.27 346.1 267.96 346.1 256.47 346.1 244.98 346.22 235.67 346.36 235.67 346.5 235.67 346.62 244.98 346.62 256.47 346.62 267.96 346.51 277.27 346.36 277.27Z" fill="#263238"/></g></g><g><g><path d="M354.21 277.27C354.07 277.27 353.95 267.96 353.95 256.47 353.95 244.98 354.07 235.67 354.21 235.67 354.35 235.67 354.47 244.98 354.47 256.47 354.47 267.96 354.36 277.27 354.21 277.27Z" fill="#263238"/></g></g><g><g><path d="M362.06 277.27C361.92 277.27 361.8 267.96 361.8 256.47 361.8 244.98 361.92 235.67 362.06 235.67 362.2 235.67 362.32 244.98 362.32 256.47 362.32 267.96 362.2 277.27 362.06 277.27Z" fill="#263238"/></g></g><g><rect x="286.47" y="27.89" width="238.65" height="30.07" fill="#263238"/></g><g><rect x="11.8" y="27.89" width="138.62" height="30.07" fill="#263238"/></g><g><g><path d="M682.94 109.46C682.8 109.46 682.68 96.36 682.68 80.21 682.68 64.05 682.8 50.96 682.94 50.96 683.08 50.96 683.2 64.05 683.2 80.21 683.2 96.36 683.09 109.46 682.94 109.46Z" fill="#263238"/></g></g><g><g><path d="M19.13 213.12C18.99 213.12 18.87 196.3 18.87 175.55 18.87 154.8 18.99 137.98 19.13 137.98 19.27 137.98 19.39 154.8 19.39 175.55 19.39 196.3 19.28 213.12 19.13 213.12Z" fill="#FFFFFF"/></g></g><g><g><path d="M176.7 124.12C176.82 124.2 176.1 125.56 175.1 127.18 174.09 128.79 173.18 130.04 173.06 129.96 172.94 129.88 173.66 128.52 174.66 126.9 175.67 125.29 176.58 124.05 176.7 124.12Z" fill="#FFFFFF"/></g></g><g><g><path d="" stroke="#FFFFFF" stroke-width="0.05" stroke-miterlimit="10" fill="none"/></g></g><g><g><path d="" stroke="#FFFFFF" stroke-width="0.05" stroke-miterlimit="10" fill="none"/></g></g><g><g><path d="" stroke="#FFFFFF" stroke-width="0.05" stroke-miterlimit="10" fill="none"/></g></g><g><g><path d="" stroke="#FFFFFF" stroke-width="0.05" stroke-miterlimit="10" fill="none"/></g></g><g><g><path d="M195.67 110.26C195.69 110.27 195.62 110.42 195.47 110.71 195.29 111.05 195.07 111.45 194.8 111.95 194.21 113.02 193.33 114.55 192.21 116.43 189.98 120.18 186.77 125.3 182.99 130.79 179.21 136.28 175.58 141.11 172.87 144.54 171.52 146.25 170.4 147.63 169.61 148.56 169.24 148.99 168.94 149.34 168.69 149.63 168.48 149.87 168.36 149.99 168.34 149.98 168.33 149.97 168.42 149.83 168.61 149.56 168.84 149.25 169.12 148.88 169.45 148.43 170.24 147.39 171.29 146 172.57 144.31 175.2 140.83 178.78 135.97 182.55 130.49 186.32 125 189.58 119.93 191.89 116.23 193.01 114.43 193.93 112.95 194.62 111.84 194.92 111.37 195.17 110.97 195.37 110.65 195.55 110.39 195.65 110.25 195.67 110.26Z" fill="#FFFFFF"/></g></g><g><g><path d="M260.77 90.68C260.89 90.76 256.27 98.34 250.45 107.62 244.63 116.9 239.81 124.36 239.69 124.28 239.57 124.2 244.19 116.62 250.01 107.34 255.83 98.06 260.65 90.6 260.77 90.68Z" fill="#FFFFFF"/></g></g><g><g><path d="M268.89 96.57C269.01 96.65 262.34 107.76 253.99 121.4 245.63 135.04 238.76 146.04 238.64 145.96 238.52 145.89 245.19 134.77 253.55 121.13 261.89 107.49 268.76 96.49 268.89 96.57Z" fill="#FFFFFF"/></g></g><g><g><path d="M154.82 183.94C154.68 183.94 154.56 156.34 154.56 122.3 154.56 88.25 154.68 60.66 154.82 60.66 154.96 60.66 155.08 88.25 155.08 122.3 155.08 156.34 154.96 183.94 154.82 183.94Z" fill="#FFFFFF"/></g></g><g><g><path d="M165.76 17.62C165.76 17.76 133.42 17.88 93.54 17.88 53.65 17.88 21.32 17.76 21.32 17.62 21.32 17.48 53.65 17.36 93.54 17.36 133.42 17.36 165.76 17.47 165.76 17.62Z" fill="#FFFFFF"/></g></g><g><g><path d="M319.68 17.62C319.68 17.76 307.59 17.88 292.69 17.88 277.78 17.88 265.7 17.76 265.7 17.62 265.7 17.48 277.78 17.36 292.69 17.36 307.6 17.36 319.68 17.47 319.68 17.62Z" fill="#FFFFFF"/></g></g><g><g><path d="M294.15 253.97C294.01 253.97 293.89 238.94 293.89 220.41 293.89 201.87 294.01 186.85 294.15 186.85 294.29 186.85 294.41 201.87 294.41 220.41 294.41 238.95 294.29 253.97 294.15 253.97Z" fill="#FFFFFF"/></g></g><g><g><path d="M221.2 264.91C221.06 264.91 220.94 244.82 220.94 220.05 220.94 195.27 221.06 175.18 221.2 175.18 221.34 175.18 221.46 195.26 221.46 220.05 221.46 244.83 221.35 264.91 221.2 264.91Z" fill="#FFFFFF"/></g></g><g><g><path d="M484.55 6.67C484.55 6.81 452.7 6.93 413.43 6.93 374.14 6.93 342.3 6.81 342.3 6.67 342.3 6.53 374.14 6.41 413.43 6.41 452.7 6.41 484.55 6.53 484.55 6.67Z" fill="#FFFFFF"/></g></g><g><g><path d="M639.93 21.26C639.93 21.4 614.45 21.52 583.03 21.52 551.6 21.52 526.13 21.4 526.13 21.26 526.13 21.12 551.6 21 583.03 21 614.45 21 639.93 21.12 639.93 21.26Z" fill="#FFFFFF"/></g></g></g><g><g><g><rect x="533.36" y="27.93" width="96.2" height="249.34" fill="#FAFAFA"/></g><g><g><path d="M629.57 277.27C629.57 277.27 629.56 276.85 629.55 276.04 629.55 275.23 629.54 274.02 629.53 272.45 629.52 269.28 629.51 264.61 629.5 258.56 629.48 246.45 629.46 228.8 629.43 206.65 629.4 162.37 629.36 100.07 629.31 27.94L629.56 28.19C599.49 28.19 566.99 28.2 533.37 28.2L533.35 28.2 533.61 27.94C533.58 126.2 533.55 214.86 533.53 277.28L533.35 277.1C563.22 277.14 587.25 277.17 603.82 277.2 612.11 277.22 618.54 277.23 622.9 277.24 625.08 277.25 626.74 277.25 627.86 277.26 628.99 277.26 629.57 277.27 629.57 277.27 629.57 277.27 629.01 277.28 627.91 277.29 626.79 277.29 625.15 277.3 622.98 277.31 618.63 277.32 612.22 277.34 603.94 277.35 587.34 277.37 563.28 277.41 533.36 277.45L533.18 277.45 533.18 277.27C533.16 214.85 533.13 126.19 533.1 27.93L533.1 27.67 533.36 27.67 533.38 27.67C567 27.67 599.49 27.68 629.57 27.68L629.82 27.68 629.82 27.93C629.77 100.13 629.73 162.49 629.7 206.81 629.67 228.94 629.65 246.56 629.63 258.66 629.62 264.69 629.61 269.35 629.6 272.5 629.59 274.07 629.59 275.26 629.58 276.06 629.58 276.87 629.57 277.27 629.57 277.27Z" fill="#263238"/></g></g></g><g><g><path d="M667.45 188.28 637.08 188.27 637.08 28.15 667.88 28.15Z" fill="#FAFAFA"/></g><g><g><path d="M667.45 188.28C667.45 188.28 667.44 188 667.44 187.46 667.44 186.91 667.43 186.12 667.43 185.09 667.43 183 667.42 179.93 667.42 175.97 667.42 168.04 667.43 156.54 667.44 142.2 667.49 113.54 667.55 73.54 667.63 28.15L667.89 28.41C658.07 28.41 647.79 28.41 637.32 28.41 637.24 28.41 637.17 28.41 637.1 28.41L637.36 28.15C637.31 95.53 637.27 154.71 637.24 188.27L637.1 188.13C646.75 188.17 654.32 188.19 659.5 188.21 662.09 188.23 664.07 188.24 665.42 188.24 666.08 188.25 666.59 188.25 666.95 188.25 667.27 188.27 667.45 188.28 667.45 188.28 667.45 188.28 667.29 188.29 666.95 188.29 666.6 188.29 666.1 188.3 665.45 188.3 664.1 188.31 662.13 188.32 659.56 188.33 654.36 188.35 646.76 188.37 637.08 188.4L636.94 188.4 636.94 188.26C636.91 154.7 636.87 95.52 636.82 28.14L636.82 27.88 637.08 27.88C637.15 27.88 637.23 27.88 637.3 27.88 647.77 27.88 658.05 27.88 667.87 27.88L668.13 27.88 668.13 28.14C667.96 73.61 667.82 113.67 667.71 142.37 667.64 156.69 667.58 168.17 667.55 176.08 667.52 180.02 667.5 183.06 667.49 185.14 667.48 186.16 667.47 186.94 667.47 187.48 667.46 188.02 667.45 188.28 667.45 188.28Z" fill="#263238"/></g></g></g><g><g><path d="M616.25 115.95C616.29 115.88 617.21 116.19 619.98 116.29 622.75 116.39 627.85 115.8 628.49 115.85 629.13 115.9 636.52 116.29 636.52 116.29 636.52 116.29 634.81 117.87 633.42 117.69 632.02 117.51 629.32 117.75 629.32 117.75L628.29 117.7 630.53 119.33 629.89 126.62C629.89 126.62 629.29 127.1 628.82 126.43 628.35 125.76 628.61 124.32 628.61 124.32L627.66 127.53C627.66 127.53 626.62 127.93 626.09 127.25 625.56 126.57 625.97 125.67 625.97 125.67L625.7 122.83 623.51 120.53 620.89 121.4 622.28 124.56C622.28 124.56 623.66 127.4 623.35 127.67 623.04 127.94 622.74 128.92 621.95 127.88 621.16 126.83 620.94 125.88 620.1 125.48 619.26 125.07 614.75 122.31 613.98 120.07L616.25 115.95Z" fill="#FFBF9D"/></g><g><path d="M568.33 91.68C568.33 91.68 570.84 92.99 572.04 94.32 573.24 95.65 589.89 107 589.89 107L609.77 112.71 617.9 116.05 615.39 123.46 607.32 121.61C607.32 121.61 597.93 120.55 592.24 120.02 586.55 119.49 583.38 117.51 583.38 117.51L572.07 111.03 567.37 97.53 568.33 91.68Z" fill="#FF725E"/></g><g><path d="M600.47 179.32 588.65 207.98 528.04 207.98 528.04 179.32 599.94 178.41" fill="#E0E0E0"/></g><g><path d="M547.63 147.25C547.63 147.25 550.35 157.33 561.3 160.58 572.24 163.83 607.51 162.02 607.51 162.02L612.7 197.85 629.6 195.53C629.6 195.53 621.62 153.02 621.66 149.97 621.73 145.21 619.7 141.85 614.63 141.85 611.58 141.85 577.37 139.89 577.37 139.89L572.04 135.92 549.33 144.34 547.63 147.25Z" fill="#263238"/></g><g><path d="M598.94 172.84C598.94 172.84 602.82 172.54 602.92 168.69 602.97 166.83 602.97 164.31 602.96 162.21 602.95 159.98 601.14 158.18 598.9 158.18L547.63 158.18 543.53 160.36 542.4 166.42 544.48 171.66 598.94 172.84Z" fill="#455A64"/></g><g><g><g><g><g><path d="M575.46 59.8C574.44 58.62 573.19 57.5 572.87 55.97 572.58 54.57 573.13 52.99 572.44 51.73 571.59 50.18 569.33 49.98 568.29 48.55 567.79 47.86 567.64 46.96 567.14 46.27 566.29 45.09 564.65 44.76 563.2 44.91 561.75 45.06 560.35 45.57 558.9 45.67 556.91 45.8 554.85 45.14 552.94 45.71 550.83 46.33 549.53 48.19 548.15 50L546.35 52.09C545.98 52.45 545.58 52.78 545.15 53.05 544.39 53.53 543.53 53.87 542.88 54.48 541.49 55.8 541.59 58.36 543.09 59.56 541.55 60.04 540.45 61.64 540.53 63.25 540.58 64.13 540.94 64.97 541.2 65.81 541.46 66.66 541.62 67.6 541.26 68.41 540.9 69.22 539.86 69.77 539.09 69.34 539.36 70.49 540.17 71.49 541.24 71.99 540.82 72.42 540.24 72.67 539.64 72.69 541.24 76.49 545.63 78.5 549.76 78.54 553.89 78.58 557.84 77.02 561.67 75.5L572.79 72.65C573.77 72.43 574.18 71.25 574.16 70.25 574.15 69.25 573.9 68.21 574.26 67.27 574.75 65.99 576.25 65.31 576.76 64.04 577.36 62.6 576.48 60.98 575.46 59.8Z" fill="#263238"/></g></g></g></g><g><g><g><g><g><g><g><g><g><g><g><g><path d="M549.14 69.86C548.34 67.35 547.56 64.82 547.2 62.2 546.85 59.59 546.95 56.87 547.88 54.4 548.02 54.03 549.23 51.52 549.62 51.56 549.9 51.59 549.16 53.93 549.3 54.18 550.65 56.54 551.01 59.38 550.77 62.09 550.54 64.82 549.96 67.25 549.14 69.86" fill="#263238"/></g></g></g></g></g></g></g></g><g><g><g><path d="M548.96 59.8C548.79 53.19 552.5 47.59 559.11 47.6L559.72 47.64C565.87 48.01 570.7 53.04 570.82 59.2 570.93 64.93 570.99 71.26 570.76 74.32 570.3 80.65 563.91 81.25 563.91 81.25 563.9 81.25 564.07 91.66 564.07 91.66L548.61 81.93 548.96 59.8Z" fill="#FFBF9D"/></g></g></g><g><g><g><g><g><g><g><g><g><g><path d="M563.9 81.24C563.9 81.24 559.89 81.23 555.8 78.3 555.8 78.3 557.51 83.56 563.87 83.37L563.9 81.24Z" fill="#FF9A6C"/></g></g></g></g></g></g></g></g></g></g><g><g><g><g><g><g><g><g><g><g><g><g><g><g><g><g><path d="M567.24 64.57C567.23 65.05 566.81 65.43 566.31 65.43 565.81 65.43 565.42 65.04 565.43 64.56 565.44 64.08 565.86 63.7 566.36 63.7 566.85 63.7 567.25 64.09 567.24 64.57Z" fill="#263238"/></g></g></g></g></g></g></g></g></g></g></g></g></g></g></g></g><g><g><g><g><g><g><g><g><g><g><g><g><g><g><g><g><g><path d="M569.3 61.74C569.18 61.85 568.53 61.3 567.55 61.25 566.58 61.18 565.83 61.64 565.74 61.51 565.69 61.45 565.82 61.25 566.14 61.04 566.46 60.83 567 60.65 567.6 60.69 568.21 60.73 568.7 60.98 568.98 61.23 569.27 61.47 569.36 61.69 569.3 61.74Z" fill="#263238"/></g></g></g></g></g></g></g></g></g></g></g></g></g></g></g></g></g><g><g><g><g><g><g><g><g><g><g><g><g><g><g><g><g><path d="M558.88 64.23C558.87 64.71 558.45 65.09 557.95 65.09 557.45 65.09 557.06 64.7 557.07 64.22 557.08 63.74 557.5 63.36 558 63.36 558.49 63.36 558.89 63.75 558.88 64.23Z" fill="#263238"/></g></g></g></g></g></g></g></g></g></g></g></g></g></g></g></g><g><g><g><g><g><g><g><g><g><g><g><g><g><g><g><g><g><path d="M559.75 61.56C559.63 61.67 558.98 61.12 558 61.07 557.03 61 556.28 61.46 556.19 61.33 556.14 61.27 556.27 61.07 556.59 60.86 556.91 60.65 557.45 60.47 558.05 60.5 558.66 60.54 559.15 60.79 559.43 61.04 559.72 61.29 559.81 61.51 559.75 61.56Z" fill="#263238"/></g></g></g></g></g></g></g></g></g></g></g></g></g></g></g></g></g><g><g><g><g><g><g><g><g><g><g><g><g><g><g><g><g><path d="M562.79 69.24C562.79 69.18 563.4 69.12 564.39 69.05 564.64 69.04 564.88 69 564.93 68.84 565 68.66 564.91 68.39 564.81 68.09 564.61 67.47 564.41 66.83 564.19 66.15 563.33 63.39 562.73 61.14 562.84 61.1 562.95 61.07 563.74 63.27 564.59 66.03 564.8 66.71 564.99 67.36 565.18 67.98 565.26 68.27 565.4 68.6 565.25 68.96 565.17 69.14 564.98 69.27 564.82 69.3 564.66 69.34 564.52 69.33 564.39 69.33 563.4 69.33 562.79 69.3 562.79 69.24Z" fill="#263238"/></g></g></g></g></g></g></g></g></g></g></g></g></g></g></g></g><g><g><g><g><g><g><g><g><g><g><g><g><g><g><g><g><path d="M559.88 69.74C560.04 69.74 559.98 70.8 560.84 71.6 561.7 72.41 562.83 72.36 562.83 72.5 562.84 72.57 562.57 72.69 562.09 72.67 561.62 72.66 560.95 72.47 560.43 71.97 559.91 71.48 559.71 70.85 559.7 70.41 559.68 69.99 559.81 69.73 559.88 69.74Z" fill="#263238"/></g></g></g></g></g></g></g></g></g></g></g></g></g></g></g></g><g><g><g><g><g><g><g><g><g><g><g><g><path d="M559.94 57.6C559.83 57.86 558.86 57.67 557.71 57.74 556.56 57.79 555.62 58.06 555.48 57.82 555.42 57.7 555.59 57.46 555.98 57.23 556.36 57 556.97 56.79 557.66 56.75 558.35 56.72 558.97 56.86 559.38 57.06 559.79 57.26 559.98 57.48 559.94 57.6Z" fill="#263238"/></g></g></g></g></g></g></g></g></g></g></g></g><g><g><g><g><g><g><g><g><g><g><g><g><path d="M569.1 58.48C568.92 58.69 568.26 58.42 567.45 58.36 566.65 58.27 565.95 58.42 565.81 58.18 565.75 58.06 565.87 57.85 566.18 57.66 566.49 57.47 566.99 57.33 567.54 57.38 568.09 57.43 568.56 57.66 568.83 57.9 569.1 58.15 569.18 58.38 569.1 58.48Z" fill="#263238"/></g></g></g></g></g></g></g></g></g></g></g></g><g><g><g><g><g><g><g><g><path d="M549.19 64.52C549.08 64.47 544.92 62.97 544.79 67.31 544.67 71.65 549.05 70.88 549.06 70.75 549.07 70.62 549.19 64.52 549.19 64.52Z" fill="#FFBF9D"/></g></g></g></g></g></g></g></g><g><g><g><g><g><g><g><g><g><path d="M547.78 69.07C547.76 69.06 547.7 69.12 547.57 69.18 547.44 69.23 547.23 69.27 547 69.18 546.55 69 546.18 68.26 546.18 67.48 546.18 67.08 546.27 66.71 546.42 66.4 546.56 66.09 546.77 65.87 547 65.84 547.23 65.79 547.39 65.94 547.44 66.06 547.49 66.18 547.46 66.27 547.49 66.28 547.5 66.29 547.59 66.21 547.56 66.03 547.54 65.94 547.5 65.84 547.4 65.75 547.3 65.66 547.15 65.61 546.99 65.63 546.65 65.64 546.34 65.94 546.18 66.28 546 66.62 545.88 67.04 545.88 67.48 545.88 68.35 546.31 69.19 546.93 69.38 547.23 69.47 547.49 69.38 547.62 69.29 547.77 69.17 547.8 69.07 547.78 69.07Z" fill="#FF9A6C"/></g></g></g></g></g></g></g></g></g><g><g><g><g><g><g><g><g><path d="M568.15 51.95C568.86 51.58 566.8 49.26 565.09 48.44 562.51 47.21 558.54 46.4 556.12 47.03 553.21 47.79 550.78 49.19 549.27 51.79 547.76 54.4 547.16 57.45 547.18 60.46 547.19 61.38 547.26 62.34 547.74 63.12 548.33 64.09 549.48 64.72 549.4 66.04 549.37 66.52 549.5 67.01 549.82 67.37 550.6 68.23 551.58 67.46 552.05 66.67 553.04 64.99 553.18 62.96 553.31 61.02 553.4 59.64 553.48 58.23 553.12 56.89 552.92 56.16 552.59 55.47 552.44 54.74 552.28 54 552.32 53.17 552.79 52.58 552.87 52.48 552.99 52.36 553.15 52.23 554.4 51.18 556.13 50.89 557.65 51.46 560.08 52.37 564.22 53.75 565.33 52.94 566.92 51.78 567.31 51.01 567.31 51.01L568.15 51.95Z" fill="#263238"/></g></g></g></g></g></g></g></g></g></g><g><g><g><g><g><g><g><g><path d="M556.36 46.45C558.76 45.7 561.47 45.8 563.68 47 564.85 47.64 565.9 48.64 566.24 49.93 566.58 51.22 566 52.79 564.75 53.27L564.66 53.32C562.8 53.91 561.6 53.63 559.77 52.96 558.23 52.39 556.87 51.41 555.32 50.85 553.68 50.25 551.86 50.16 550.16 50.6 551.86 48.74 553.96 47.2 556.36 46.45Z" fill="#263238"/></g></g></g></g></g></g></g></g></g></g></g><g><path d="M547.52 82.77C547.52 82.77 538.45 93.4 538.48 100.83 538.5 104.81 547.63 147.25 547.63 147.25L573.09 137.82C574.69 137.23 575.65 135.6 575.4 133.91L572.04 111.67 568.33 91.67 564.51 88.86 564.22 86.78 563.72 85.77 548.89 79.47 547.52 82.77Z" fill="#FF725E"/></g><g><path d="M609.76 132.82 628.4 134.94 630.34 131.83 619.15 128.72 611.22 129.28Z" fill="#263238"/></g><g><path d="M644.24 115.59 639.68 131.83 644.34 131.83 650.7 114.07Z" fill="#263238"/></g><g><path d="M613.49 188.99C613.49 188.99 622.52 139.63 623.98 135.92 625.44 132.22 625.22 130.64 631.17 130.11 637.12 129.58 667.45 130.1 667.45 130.1L667.45 188.27 629.56 188.83 629.4 208.47 609.71 207.54 613.49 188.99Z" fill="#263238"/></g><g><path d="M531.42 62.03C531.42 62.03 539.61 62.83 540.81 66.03 541.68 68.36 541.29 77.57 541 82.41 540.9 84.1 539.5 85.42 537.81 85.42L537.81 85.42C537.81 85.42 542.01 89.11 542.41 90.56 542.81 92.01 550.6 138.96 549.8 147.26 549 155.56 546.6 159.56 546.6 159.56L531.41 160.36 531.41 62.03Z" fill="#455A64"/></g><g><g><path d="M550.81 158.47C550.69 158.34 560.86 131.57 562.83 122.89 564.79 114.22 564.5 88.74 564.5 88.74 565.32 88.75 568.04 90.64 568.82 91.68 568.82 91.68 568.48 114.62 567.35 123.45 566.22 132.28 557.49 160.67 557.49 160.67L550.81 158.47Z" fill="#263238"/></g><g><g><path d="M550.81 158.47C550.82 158.46 550.97 158.5 551.26 158.59 551.57 158.69 552 158.82 552.55 158.99 553.71 159.36 555.37 159.89 557.52 160.57L557.38 160.64C559.06 154.88 561.88 145.56 564.89 133.81 565.62 130.87 566.39 127.77 566.93 124.52 567.43 121.26 567.61 117.81 567.82 114.27 568.19 107.18 568.41 99.63 568.55 91.82 568.55 91.77 568.55 91.72 568.55 91.68L568.6 91.84C568.07 91.19 567.34 90.63 566.63 90.13 566.27 89.88 565.91 89.65 565.54 89.44 565.19 89.24 564.77 89.04 564.48 89.01L564.74 88.75C564.78 98.8 564.65 108.32 563.89 116.92 563.68 119.07 563.42 121.16 562.98 123.17 562.5 125.16 561.92 127.05 561.35 128.87 560.2 132.51 559.04 135.86 557.97 138.91 555.82 145.01 554.01 149.89 552.75 153.26 551.59 156.38 551.03 157.88 550.81 158.47 550.77 158.46 550.92 157.98 551.22 157.09 551.54 156.17 552 154.86 552.58 153.19 553.78 149.8 555.54 144.9 557.64 138.79 558.69 135.73 559.83 132.38 560.96 128.74 561.52 126.92 562.09 125.03 562.56 123.06 562.99 121.09 563.24 119.01 563.44 116.87 564.17 108.3 564.29 98.78 564.24 88.75L564.24 88.46 564.5 88.49C565.05 88.55 565.41 88.78 565.81 88.99 566.2 89.21 566.57 89.45 566.94 89.71 567.67 90.24 568.4 90.78 569.02 91.53L569.07 91.6 569.07 91.7 569.07 91.84C568.93 99.66 568.71 107.2 568.32 114.31 568.11 117.86 567.92 121.31 567.4 124.6 566.84 127.89 566.05 130.98 565.31 133.92 562.25 145.68 559.36 154.98 557.58 160.71L557.55 160.82 557.45 160.78C555.31 160.05 553.65 159.48 552.49 159.09 551.95 158.9 551.53 158.75 551.22 158.64 550.95 158.53 550.81 158.48 550.81 158.47Z" fill="#455A64"/></g></g></g><g><g><path d="M551.48 159.2C551.48 158.73 560.41 142.28 571.04 138.59L576.92 140.31C576.92 140.31 559.4 152.81 557.5 160.67L551.48 159.2Z" fill="#263238"/></g><g><g><path d="M551.48 159.2C551.49 159.19 551.64 159.22 551.92 159.27 552.24 159.34 552.63 159.42 553.12 159.53 554.2 159.77 555.68 160.11 557.53 160.53L557.35 160.64C557.77 159.1 558.64 157.46 559.82 155.78 561.05 154.13 562.53 152.41 564.25 150.68 567.71 147.23 571.97 143.61 576.76 140.11L576.84 140.57C576.78 140.55 576.71 140.53 576.64 140.51 574.69 139.94 572.79 139.38 570.96 138.84L571.12 138.84C567.31 140.28 564.26 142.78 561.82 145.22 559.37 147.68 557.45 150.13 555.93 152.22 552.9 156.41 551.48 159.2 551.48 159.2 551.43 159.21 551.72 158.43 552.41 157.19 553.1 155.93 554.17 154.14 555.65 152.01 557.14 149.88 559.04 147.4 561.49 144.89 563.94 142.41 567.01 139.84 570.94 138.35L571.01 138.32 571.09 138.34C572.92 138.87 574.83 139.43 576.77 140 576.84 140.02 576.91 140.04 576.97 140.06L577.48 140.21 577.05 140.52C572.29 144 568.02 147.6 564.56 150.99 562.84 152.7 561.35 154.39 560.12 156 558.93 157.64 558.05 159.23 557.62 160.7L557.58 160.84 557.44 160.8C555.58 160.31 554.08 159.92 552.99 159.63 552.52 159.5 552.14 159.4 551.84 159.31 551.59 159.25 551.47 159.21 551.48 159.2Z" fill="#455A64"/></g></g></g><g><g><path d="M547.18 88.74C541.41 91.68 543.54 103.24 545.33 108.21 548.46 116.9 553.36 130.57 555.91 132.92 559.47 136.21 584.95 144.84 584.95 144.84L589.88 135.53 566.01 122.83C566.01 122.83 565.99 120.91 565.03 120.64 564.07 120.37 561.28 102.53 561.28 102.53 561.28 102.53 560.23 95.6 557.77 92.31" fill="#FF725E"/></g><g><g><path d="M557.77 92.29C557.77 92.29 558.31 92.88 558.97 94.22 559.63 95.55 560.37 97.62 560.99 100.34 561.32 101.7 561.53 103.24 561.82 104.89 562.11 106.55 562.42 108.35 562.76 110.27 563.11 112.19 563.49 114.24 563.96 116.39 564.2 117.46 564.44 118.57 564.78 119.66 564.87 119.92 564.97 120.22 565.09 120.4 565.02 120.4 565.29 120.48 565.42 120.59 565.57 120.69 565.68 120.83 565.77 120.97 566.11 121.55 566.19 122.17 566.23 122.81L566.12 122.62C573.1 126.32 581.23 130.63 590.01 135.29L590.23 135.41 590.11 135.64C588.53 138.62 586.88 141.76 585.18 144.96L585.08 145.16 584.87 145.09C583.4 144.58 581.82 144.03 580.24 143.48 575.39 141.76 570.68 140.02 566.17 138.21 563.92 137.3 561.72 136.37 559.61 135.37 559.09 135.11 558.56 134.85 558.05 134.58 557.55 134.28 557.03 134.02 556.55 133.69L555.84 133.16C555.62 132.97 555.44 132.72 555.23 132.51 554.9 132.04 554.58 131.56 554.31 131.07 553.2 129.11 552.34 127.11 551.52 125.16 550.7 123.21 549.95 121.3 549.25 119.45 547.84 115.74 546.6 112.27 545.47 109.09 544.3 105.91 543.7 102.88 543.44 100.21 543.2 97.54 543.3 95.18 543.81 93.35 544.31 91.52 545.14 90.21 545.94 89.59 546.11 89.4 546.29 89.28 546.46 89.18 546.62 89.08 546.75 89 546.87 88.93 547.09 88.8 547.2 88.73 547.21 88.74 547.21 88.75 547.11 88.83 546.9 88.97 546.79 89.05 546.66 89.14 546.51 89.24 546.35 89.34 546.18 89.47 546.02 89.66 545.26 90.29 544.48 91.58 544.02 93.39 543.55 95.2 543.47 97.53 543.74 100.17 544.02 102.82 544.64 105.81 545.82 108.95 546.97 112.12 548.24 115.58 549.66 119.28 550.37 121.13 551.13 123.03 551.95 124.97 552.78 126.9 553.65 128.9 554.74 130.82 555.29 131.78 555.86 132.73 556.84 133.28 557.3 133.59 557.81 133.85 558.3 134.14 558.81 134.4 559.33 134.65 559.85 134.91 561.95 135.9 564.14 136.83 566.39 137.73 570.89 139.53 575.6 141.26 580.44 142.98 582.02 143.53 583.6 144.08 585.07 144.59L584.76 144.71C586.45 141.51 588.12 138.38 589.7 135.4L589.81 135.74C581.04 131.06 572.92 126.72 565.96 123L565.85 122.94 565.85 122.81C565.83 122.24 565.73 121.64 565.47 121.19 565.4 121.09 565.32 120.98 565.23 120.92 565.14 120.82 565.06 120.9 564.82 120.65 564.62 120.34 564.55 120.07 564.45 119.79 564.1 118.66 563.87 117.56 563.64 116.48 563.19 114.32 562.82 112.27 562.48 110.34 562.16 108.41 561.86 106.61 561.59 104.95 561.32 103.28 561.12 101.76 560.82 100.4 560.24 97.68 559.54 95.62 558.92 94.28 558.61 93.61 558.34 93.11 558.14 92.79 557.87 92.47 557.77 92.29 557.77 92.29Z" fill="#263238"/></g></g></g><g><path d="M531.42 59.77C531.42 59.77 526.78 60.67 525.63 64.28 524.48 67.89 525.63 179.32 525.63 179.32L600.47 179.32C600.47 179.32 601.69 170.76 593.69 169.1 585.7 167.44 558.09 168.59 558.09 168.59 558.09 168.59 548.38 159.13 546.2 157.22 544.03 155.3 543.13 153.83 540.07 154.37 537.01 154.91 534.7 155.3 534.7 155.3L534.7 117.98 531.41 108.39 531.41 59.77Z" fill="#263238"/></g><g><g><path d="M590.16 145.64C590.16 145.64 586.94 146.91 587.23 150.22 587.52 153.54 588.68 155.68 588.68 155.68L593.69 207.01 598 207.01 593.25 153.82 593.27 147.51 590.16 145.64Z" fill="#263238"/></g><g><g><path d="M590.16 145.64C590.16 145.63 590.23 145.67 590.36 145.74 590.52 145.83 590.71 145.94 590.96 146.08 591.52 146.41 592.31 146.86 593.32 147.45L593.36 147.47 593.36 147.52C593.37 149.13 593.38 151.25 593.39 153.83L593.39 153.82C594.41 164.93 596.2 184.52 598.26 207L598.29 207.28 598 207.28C597.36 207.28 596.67 207.28 595.98 207.28 595.2 207.28 594.43 207.28 593.68 207.28L593.44 207.28 593.42 207.04C591.39 185.72 589.6 167.04 588.52 155.7L588.54 155.76C587.74 154.09 587.39 152.47 587.2 151.06 587.11 150.36 587.06 149.68 587.17 149.07 587.29 148.46 587.52 147.94 587.8 147.52 588.36 146.68 589.02 146.24 589.45 145.98 589.67 145.85 589.85 145.76 589.97 145.71 590.09 145.66 590.16 145.64 590.16 145.64 590.16 145.65 590.11 145.68 589.99 145.74 589.88 145.8 589.71 145.9 589.5 146.04 589.09 146.32 588.46 146.78 587.94 147.6 587.69 148.01 587.47 148.51 587.37 149.09 587.28 149.67 587.34 150.32 587.44 151.02 587.65 152.41 588.03 154.01 588.82 155.61L588.83 155.64 588.83 155.67C589.96 167.01 591.83 185.68 593.95 206.99L593.69 206.76C594.43 206.76 595.21 206.76 595.99 206.76 596.68 206.76 597.37 206.76 598.01 206.76L597.75 207.04C595.79 184.55 594.09 164.95 593.12 153.84L593.12 153.83 593.12 153.82C593.15 151.25 593.17 149.12 593.19 147.51L593.23 147.58C592.25 146.97 591.49 146.49 590.94 146.15 590.7 145.99 590.5 145.87 590.35 145.77 590.23 145.7 590.16 145.65 590.16 145.64Z" fill="#455A64"/></g></g></g><g><g><path d="M563.83 86.03C563.87 86.03 563.9 86.46 563.8 87.22 563.7 87.97 563.44 89.06 562.82 90.26L562.73 90.43 562.55 90.36C560.96 89.74 559.01 88.92 556.94 87.95 554.32 86.74 552 85.53 550.35 84.6 548.7 83.67 547.71 83.04 547.75 82.98 547.79 82.92 548.83 83.43 550.52 84.27 552.21 85.11 554.54 86.26 557.15 87.47 559.22 88.43 561.15 89.28 562.7 89.96L562.43 90.05C563.71 87.78 563.71 86 563.83 86.03Z" fill="#263238"/></g></g><g><g><path d="M570.06 97.41C570.1 97.41 570.17 97.82 570.26 98.56 570.37 99.41 570.51 100.47 570.67 101.71 571.02 104.37 571.55 108.03 572.17 112.08 572.79 116.07 573.34 119.67 573.77 122.44 573.94 123.68 574.09 124.74 574.21 125.59 574.3 126.34 574.34 126.75 574.3 126.76 574.26 126.77 574.16 126.36 574.01 125.63 573.85 124.78 573.64 123.74 573.4 122.51 572.91 119.87 572.27 116.22 571.65 112.17 571.03 108.12 570.55 104.44 570.3 101.76 570.17 100.42 570.09 99.34 570.05 98.59 570.03 97.83 570.02 97.41 570.06 97.41Z" fill="#263238"/></g></g><g><path d="M664.6 109.2 605.11 135.23C604.03 135.7 602.78 135.21 602.31 134.13L602.12 133.71C601.65 132.63 602.14 131.38 603.22 130.91L662.71 104.88C663.79 104.41 665.04 104.9 665.51 105.98L665.7 106.4C666.17 107.48 665.68 108.73 664.6 109.2Z" fill="#455A64"/></g><g><g><path d="M602.48 148.66C602.48 148.07 600.72 141.52 600.13 140.77 599.54 140.01 589.26 137.08 589.31 136.98L585.87 143.1 587.03 144.13C588.41 145.42 590.39 146.34 590.39 146.34L591.31 149.66C591.31 149.66 591.48 151.42 591.56 152.09 591.64 152.76 593.66 152.59 593.66 152.59 594.08 153.18 595.66 152.76 595.66 152.76L597.27 152.76C596.6 154.1 597.77 154.35 597.77 154.35L599.62 153.51C602.39 153.09 601.13 151.33 601.13 151.33 601.13 151.33 602.48 149.25 602.48 148.66Z" fill="#FFBF9D"/></g><g><g><path d="M593.93 152.47C593.78 152.44 594.05 150.8 593.94 148.77 593.85 146.74 593.42 145.14 593.57 145.09 593.69 145.04 594.36 146.64 594.46 148.74 594.56 150.85 594.05 152.51 593.93 152.47Z" fill="#FF9A6C"/></g></g><g><g><path d="M596.92 152.51C596.85 152.48 596.99 152.07 597.08 151.41 597.18 150.75 597.19 149.82 597.01 148.81 596.62 146.8 595.97 145.19 596.14 145.13 596.21 145.11 596.42 145.48 596.71 146.11 596.99 146.74 597.34 147.65 597.53 148.72 597.72 149.79 597.64 150.8 597.44 151.48 597.25 152.18 596.98 152.54 596.92 152.51Z" fill="#FF9A6C"/></g></g><g><g><path d="M597.05 152.84C597.01 152.77 597.48 152.52 598.15 152.08 598.79 151.65 599.68 150.81 599.47 149.62 599.09 147.14 598.87 145.09 599.02 145.07 599.16 145.05 599.6 147.04 599.99 149.56 600.1 150.22 599.89 150.96 599.52 151.42 599.16 151.9 598.72 152.2 598.34 152.4 597.58 152.78 597.07 152.89 597.05 152.84Z" fill="#FF9A6C"/></g></g><g><g><path d="M600.95 151.67C600.89 151.8 600.5 151.74 600.04 151.74 599.59 151.73 599.2 151.77 599.14 151.64 599.08 151.51 599.47 151.21 600.05 151.22 600.63 151.23 601.02 151.55 600.95 151.67Z" fill="#FF9A6C"/></g></g><g><g><path d="M593.54 144.88C593.4 144.83 593.5 144.21 593.15 143.57 592.82 142.92 592.25 142.65 592.29 142.51 592.31 142.45 592.5 142.42 592.78 142.53 593.06 142.64 593.4 142.92 593.61 143.32 593.82 143.73 593.86 144.17 593.79 144.46 593.73 144.75 593.6 144.9 593.54 144.88Z" fill="#FF9A6C"/></g></g><g><g><path d="M596.38 143.9C596.23 143.88 596.18 143.39 595.93 142.86 595.69 142.33 595.35 141.98 595.43 141.85 595.49 141.72 596.09 141.96 596.41 142.64 596.72 143.32 596.51 143.93 596.38 143.9Z" fill="#FF9A6C"/></g></g><g><g><path d="M598.65 144.14C598.5 144.12 598.45 143.53 598.21 142.86 597.98 142.19 597.64 141.69 597.75 141.59 597.84 141.48 598.43 141.89 598.7 142.69 598.98 143.48 598.78 144.16 598.65 144.14Z" fill="#FF9A6C"/></g></g></g></g><g><g><rect x="525.85" y="28.15" width="7.51" height="249.34" fill="#FF725E"/></g><g><g><path d="M533.36 277.49C533.36 277.49 533.35 277.04 533.34 276.19 533.34 275.33 533.33 274.07 533.32 272.42 533.31 269.1 533.3 264.22 533.28 257.94 533.26 245.37 533.23 227.17 533.2 204.65 533.17 159.64 533.14 97.34 533.09 28.15L533.35 28.41C530.98 28.41 528.42 28.41 525.85 28.41L525.84 28.41 526.1 28.15C526 149.54 525.92 251.19 525.9 277.49L525.84 277.43C528.39 277.45 530.26 277.46 531.5 277.47 532.75 277.47 533.36 277.49 533.36 277.49 533.36 277.49 532.78 277.5 531.54 277.52 530.29 277.53 528.41 277.54 525.84 277.56L525.78 277.56 525.78 277.5C525.76 251.2 525.68 149.55 525.58 28.16L525.58 27.9 525.84 27.9 525.85 27.9C528.42 27.9 530.98 27.9 533.35 27.9L533.61 27.9 533.61 28.16C533.57 97.43 533.53 159.79 533.5 204.85 533.47 227.34 533.44 245.52 533.42 258.08 533.4 264.34 533.39 269.2 533.38 272.5 533.37 274.14 533.37 275.39 533.36 276.24 533.38 277.07 533.36 277.49 533.36 277.49Z" fill="#263238"/></g></g></g><g><g><path d="M628.19 244.93C628.19 245.07 607.07 245.19 581.02 245.19 554.96 245.19 533.85 245.07 533.85 244.93 533.85 244.79 554.97 244.67 581.02 244.67 607.07 244.67 628.19 244.79 628.19 244.93Z" fill="#263238"/></g></g><g><g><path d="M628.48 263.28C628.48 263.42 607.29 263.54 581.17 263.54 555.03 263.54 533.85 263.42 533.85 263.28 533.85 263.14 555.03 263.02 581.17 263.02 607.29 263.02 628.48 263.14 628.48 263.28Z" fill="#263238"/></g></g><g><g><path d="M629.59 207.98C629.59 208.12 608.02 208.24 581.43 208.24 554.83 208.24 533.26 208.12 533.26 207.98 533.26 207.84 554.82 207.72 581.43 207.72 608.03 207.72 629.59 207.84 629.59 207.98Z" fill="#263238"/></g></g><g><g><path d="M628.7 227.16C628.7 227.3 607.48 227.42 581.32 227.42 555.15 227.42 533.94 227.3 533.94 227.16 533.94 227.02 555.15 226.9 581.32 226.9 607.49 226.9 628.7 227.01 628.7 227.16Z" fill="#263238"/></g></g><g><g><path d="M628.7 130.47C628.7 130.49 628.42 130.55 627.9 130.68 627.42 130.9 626.7 131.26 626.05 132.07 624.74 133.64 623.63 136.49 623.01 140.1 621.63 147.4 619.75 157.4 617.67 168.45 615.53 179.49 613.59 189.49 612.18 196.78 611.46 200.36 610.87 203.28 610.46 205.35 610.25 206.32 610.09 207.1 609.97 207.68 609.85 208.21 609.78 208.49 609.76 208.48 609.74 208.48 609.78 208.19 609.86 207.66 609.96 207.08 610.09 206.3 610.26 205.32 610.64 203.24 611.17 200.31 611.82 196.72 613.2 189.42 615.08 179.42 617.16 168.36 619.3 157.32 621.24 147.33 622.65 140.04 623.32 136.39 624.5 133.52 625.89 131.94 626.58 131.13 627.35 130.78 627.86 130.59 628.13 130.54 628.34 130.51 628.48 130.5 628.63 130.46 628.7 130.46 628.7 130.47Z" fill="#455A64"/></g></g><g><path d="M546.89 165.49 550.95 158.98 556.64 160.45 553.41 167.84Z" fill="#263238"/></g><g><g><rect x="629.57" y="28.15" width="7.51" height="248.7" fill="#FF725E"/></g><g><g><path d="M637.08 276.85C637.08 276.85 637.07 276.41 637.06 275.56 637.06 274.7 637.05 273.44 637.04 271.8 637.03 268.49 637.02 263.62 637 257.35 636.98 244.81 636.95 226.66 636.92 204.2 636.89 159.3 636.86 97.17 636.81 28.15L637.07 28.41C634.7 28.41 632.14 28.41 629.57 28.41L629.56 28.41 629.82 28.15C629.72 149.22 629.64 250.6 629.62 276.85L629.56 276.79C632.11 276.81 633.98 276.82 635.22 276.83 636.47 276.84 637.08 276.85 637.08 276.85 637.08 276.85 636.5 276.86 635.26 276.88 634.01 276.89 632.13 276.9 629.56 276.92L629.5 276.92 629.5 276.86C629.48 250.61 629.4 149.23 629.3 28.16L629.3 27.9 629.56 27.9 629.57 27.9C632.14 27.9 634.7 27.9 637.07 27.9L637.33 27.9 637.33 28.16C637.29 97.25 637.25 159.46 637.22 204.4 637.19 226.84 637.16 244.96 637.14 257.49 637.12 263.73 637.11 268.58 637.1 271.88 637.09 273.51 637.09 274.76 637.08 275.61 637.09 276.43 637.08 276.85 637.08 276.85Z" fill="#263238"/></g></g></g><g><path d="M556.89 161.84 550.93 159.8C550.11 159.52 549.67 158.62 549.95 157.8L549.95 157.8C550.23 156.98 551.13 156.54 551.95 156.82L557.91 158.86C558.73 159.14 559.17 160.04 558.89 160.86L558.89 160.86C558.61 161.69 557.71 162.13 556.89 161.84Z" fill="#FF725E"/></g><g><g><path d="M640.66 96.25C640.54 96.18 644.6 89.14 649.73 80.55 654.86 71.95 659.12 65.04 659.25 65.11 659.37 65.18 655.31 72.21 650.18 80.82 645.04 89.41 640.78 96.32 640.66 96.25Z" fill="#263238"/></g></g><g><g><path d="M640.92 84.09C640.89 84.07 641.18 83.62 641.74 82.82 642.35 81.94 643.14 80.8 644.09 79.44 646.07 76.58 648.74 72.59 651.53 68.08 654.32 63.57 656.69 59.39 658.36 56.34 659.16 54.88 659.82 53.66 660.34 52.73 660.81 51.88 661.08 51.41 661.11 51.43 661.14 51.45 660.93 51.94 660.52 52.82 660.11 53.7 659.49 54.97 658.69 56.51 657.1 59.61 654.77 63.82 651.98 68.35 649.18 72.87 646.45 76.84 644.4 79.65 643.37 81.06 642.52 82.18 641.92 82.94 641.3 83.7 640.95 84.11 640.92 84.09Z" fill="#263238"/></g></g></g><g><g><path d="M525.85 191.71C525.71 191.71 525.59 155.12 525.59 109.99 525.59 64.85 525.71 28.26 525.85 28.26 525.99 28.26 526.11 64.84 526.11 109.99 526.11 155.12 525.99 191.71 525.85 191.71Z" fill="#263238"/></g></g></g><g><g><g><rect x="346.55" y="94.93" width="5.86" height="207.06" fill="#E0E0E0"/></g><g><g><path d="M352.4 301.98C352.4 301.98 352.39 301.61 352.38 300.9 352.38 300.18 352.37 299.13 352.36 297.76 352.35 295 352.34 290.94 352.32 285.72 352.3 275.27 352.27 260.16 352.24 241.45 352.21 204.07 352.18 152.34 352.13 94.91L352.39 95.17C350.54 95.17 348.55 95.17 346.54 95.17L346.53 95.17 346.79 94.91C346.79 196 346.7 280.61 346.59 301.97L346.53 301.91C348.5 301.93 349.96 301.94 350.93 301.94 351.92 301.97 352.4 301.98 352.4 301.98 352.4 301.98 351.94 301.99 350.98 302 350 302.01 348.53 302.02 346.54 302.03L346.48 302.03 346.48 301.97C346.36 280.62 346.28 196 346.28 94.91L346.28 94.65 346.54 94.65 346.55 94.65C348.55 94.65 350.55 94.65 352.4 94.65L352.66 94.65 352.66 94.91C352.62 152.42 352.58 204.21 352.55 241.64 352.52 260.32 352.49 275.41 352.47 285.84 352.45 291.03 352.44 295.07 352.43 297.82 352.42 299.18 352.42 300.21 352.41 300.92 352.41 301.64 352.4 301.98 352.4 301.98Z" fill="#263238"/></g></g></g><g><g><g><path d="M372.47 100.25 324.04 100.25C321.87 100.25 320.1 98.49 320.1 96.31L320.1 37.9C320.1 35.73 321.86 33.96 324.04 33.96L372.47 33.96C374.64 33.96 376.41 35.72 376.41 37.9L376.41 96.31C376.41 98.48 374.65 100.25 372.47 100.25Z" fill="#FFFFFF"/></g><g><g><path d="M372.47 100.25C372.47 100.23 372.68 100.24 373.08 100.17 373.47 100.1 374.07 99.94 374.71 99.48 375.34 99.03 376.01 98.23 376.24 97.11 376.36 96.55 376.3 95.93 376.31 95.26 376.31 94.59 376.3 93.88 376.3 93.13 376.28 87.08 376.25 78.35 376.22 67.58 376.21 62.19 376.2 56.28 376.19 49.94 376.19 46.77 376.18 43.49 376.18 40.11 376.17 39.27 376.19 38.39 376.16 37.58 376.08 36.78 375.75 35.99 375.19 35.4 374.64 34.8 373.88 34.38 373.06 34.26 372.66 34.19 372.22 34.21 371.78 34.21L370.45 34.21C356.19 34.22 340.51 34.22 324.05 34.23 323.09 34.23 322.14 34.62 321.46 35.29 320.78 35.96 320.38 36.9 320.37 37.85 320.37 39.88 320.37 41.9 320.37 43.9 320.37 47.91 320.37 51.86 320.37 55.74 320.36 63.5 320.36 70.99 320.35 78.12 320.35 81.69 320.34 85.16 320.34 88.54 320.34 90.23 320.34 91.89 320.33 93.53 320.33 94.35 320.33 95.16 320.33 95.97 320.3 96.77 320.44 97.51 320.83 98.17 321.2 98.82 321.77 99.35 322.44 99.66 323.11 100 323.83 100.05 324.6 100.03 326.13 100.03 327.63 100.04 329.1 100.04 332.04 100.05 334.87 100.05 337.57 100.06 348.34 100.1 357.07 100.12 363.12 100.14 366.12 100.16 368.46 100.18 370.07 100.19 370.85 100.2 371.45 100.21 371.88 100.22 372.26 100.23 372.47 100.25 372.47 100.25 372.47 100.25 372.26 100.27 371.85 100.28 371.42 100.29 370.82 100.29 370.04 100.31 368.43 100.32 366.1 100.34 363.09 100.36 357.04 100.38 348.32 100.41 337.54 100.44 334.84 100.45 332.02 100.45 329.07 100.46 327.6 100.46 326.1 100.47 324.57 100.47 323.83 100.5 322.95 100.44 322.22 100.06 321.48 99.71 320.84 99.12 320.42 98.4 319.99 97.69 319.82 96.8 319.86 95.99 319.86 95.18 319.86 94.37 319.86 93.55 319.86 91.91 319.86 90.25 319.85 88.56 319.85 85.18 319.84 81.7 319.84 78.14 319.84 71.01 319.83 63.52 319.82 55.76 319.82 51.88 319.82 47.93 319.82 43.92 319.82 41.91 319.82 39.9 319.82 37.86 319.83 36.78 320.28 35.7 321.06 34.93 321.83 34.16 322.92 33.71 324.02 33.71 340.48 33.72 356.15 33.72 370.42 33.73L371.75 33.73C372.19 33.74 372.64 33.71 373.11 33.79 374.03 33.93 374.89 34.4 375.51 35.08 376.14 35.75 376.52 36.64 376.6 37.54 376.64 38.44 376.61 39.26 376.62 40.11 376.62 43.49 376.61 46.77 376.61 49.94 376.6 56.28 376.59 62.19 376.58 67.58 376.55 78.35 376.52 87.08 376.5 93.13 376.5 93.88 376.49 94.6 376.49 95.26 376.47 95.92 376.53 96.56 376.39 97.14 376.13 98.31 375.42 99.12 374.76 99.56 374.09 100.02 373.48 100.16 373.08 100.22 372.68 100.27 372.47 100.25 372.47 100.25Z" fill="#263238"/></g></g></g><g><g><path d="M363.17 87.23 334.47 87.23C333.67 87.23 333.02 86.58 333.02 85.78L333.02 48.7C333.02 47.9 333.67 47.25 334.47 47.25L363.17 47.25C363.97 47.25 364.62 47.9 364.62 48.7L364.62 85.79C364.62 86.59 363.97 87.23 363.17 87.23Z" fill="#FF725E"/></g><g><path d="M333.6 66.57 332.62 66.57C331.56 66.57 330.71 65.71 330.71 64.66L330.71 56.86C330.71 55.8 331.57 54.95 332.62 54.95L333.6 54.95C334.66 54.95 335.51 55.81 335.51 56.86L335.51 64.66C335.51 65.72 334.65 66.57 333.6 66.57Z" fill="#FF725E"/></g><g><path d="M365.19 66.57 364.21 66.57C363.15 66.57 362.3 65.71 362.3 64.66L362.3 56.86C362.3 55.8 363.16 54.95 364.21 54.95L365.19 54.95C366.25 54.95 367.1 55.81 367.1 56.86L367.1 64.66C367.1 65.72 366.25 66.57 365.19 66.57Z" fill="#FF725E"/></g><g><rect x="336.78" y="54.94" width="24.09" height="15.07" fill="#FFFFFF"/></g><g><circle cx="357.71" cy="76.5" r="3.15" fill="#FFFFFF"/></g><g><circle cx="340.07" cy="76.5" r="3.15" fill="#FFFFFF"/></g><g><path d="M338.57 91.62 337.42 91.62C336.18 91.62 335.18 90.62 335.18 89.38L335.18 82.93 340.81 82.93 340.81 89.38C340.81 90.61 339.81 91.62 338.57 91.62Z" fill="#FF725E"/></g><g><path d="M359.38 91.62 358.23 91.62C356.99 91.62 355.99 90.62 355.99 89.38L355.99 82.93 361.62 82.93 361.62 89.38C361.61 90.61 360.61 91.62 359.38 91.62Z" fill="#FF725E"/></g><g><rect x="342.76" y="50.55" width="12.14" height="1.34" fill="#FFFFFF"/></g></g></g></g></svg>