<svg width="34.23" height="55.49" viewBox="0 0 34.23 55.49" xmlns="http://www.w3.org/2000/svg" xmlns:xlink="http://www.w3.org/1999/xlink" xml:space="preserve" overflow="hidden"><defs></defs><g><rect x="0.46" y="0.66" width="33.12" height="54.83" fill="#F4DA98"/><rect x="22.4" y="0.66" width="11.19" height="54.83" fill="#DDC993"/><rect x="23" y="0.66" width="10.58" height="54.83" fill="#F3EEB5"/><rect x="0.46" y="0.66" width="33.12" height="3.56" fill="#DDC993"/><rect x="0" y="0" width="34.23" height="3.18" fill="#791B1F"/><rect x="0" y="0" width="34.23" height="0.66" fill="#C52931"/><g><g><g><g><rect x="2.86" y="10.12" width="5.53" height="7.01" fill="#554B3F"/></g><g><g><rect x="3.28" y="10.62" width="2.14" height="6.01" fill="#469FBB"/><path d="M5.47 16.68 3.22 16.68 3.22 10.56 5.47 10.56 5.47 16.68ZM3.33 16.57 5.35 16.57 5.35 10.68 3.33 10.68 3.33 16.57Z" fill="#FFFFFF"/></g><g><rect x="5.8" y="10.62" width="2.14" height="6.01" fill="#469FBB"/><path d="M7.99 16.68 5.74 16.68 5.74 10.56 7.99 10.56 7.99 16.68ZM5.86 16.57 7.88 16.57 7.88 10.68 5.86 10.68 5.86 16.57Z" fill="#FFFFFF"/></g></g><g><g><rect x="3.28" y="10.62" width="2.14" height="2.9" fill="#469FBB"/><path d="M5.47 13.58 3.22 13.58 3.22 10.56 5.47 10.56 5.47 13.58ZM3.33 13.46 5.35 13.46 5.35 10.67 3.33 10.67 3.33 13.46Z" fill="#FFFFFF"/></g><g><rect x="5.8" y="10.62" width="2.14" height="2.9" fill="#469FBB"/><path d="M7.99 13.58 5.74 13.58 5.74 10.56 7.99 10.56 7.99 13.58ZM5.86 13.46 7.88 13.46 7.88 10.67 5.86 10.67 5.86 13.46Z" fill="#FFFFFF"/></g></g></g><g><g><rect x="13.43" y="10.12" width="5.53" height="7.01" fill="#554B3F"/></g><g><g><rect x="13.85" y="10.62" width="2.14" height="6.01" fill="#469FBB"/><path d="M16.05 16.68 13.8 16.68 13.8 10.56 16.05 10.56 16.05 16.68ZM13.91 16.57 15.94 16.57 15.94 10.68 13.91 10.68 13.91 16.57Z" fill="#FFFFFF"/></g><g><rect x="16.37" y="10.62" width="2.14" height="6.01" fill="#469FBB"/><path d="M18.56 16.68 16.31 16.68 16.31 10.56 18.56 10.56 18.56 16.68ZM16.43 16.57 18.46 16.57 18.46 10.68 16.43 10.68 16.43 16.57Z" fill="#FFFFFF"/></g></g><g><g><rect x="13.85" y="10.62" width="2.14" height="2.9" fill="#469FBB"/><path d="M16.05 13.58 13.8 13.58 13.8 10.56 16.05 10.56 16.05 13.58ZM13.91 13.46 15.94 13.46 15.94 10.67 13.91 10.67 13.91 13.46Z" fill="#FFFFFF"/></g><g><rect x="16.37" y="10.62" width="2.14" height="2.9" fill="#469FBB"/><path d="M18.56 13.58 16.31 13.58 16.31 10.56 18.56 10.56 18.56 13.58ZM16.43 13.46 18.46 13.46 18.46 10.67 16.43 10.67 16.43 13.46Z" fill="#FFFFFF"/></g></g></g></g><g><g><g><rect x="2.86" y="32.65" width="5.53" height="7.01" fill="#554B3F"/></g><g><g><rect x="3.28" y="33.15" width="2.14" height="6.01" fill="#469FBB"/><path d="M5.47 39.21 3.22 39.21 3.22 33.09 5.47 33.09 5.47 39.21ZM3.33 39.1 5.35 39.1 5.35 33.2 3.33 33.2 3.33 39.1Z" fill="#FFFFFF"/></g><g><rect x="5.8" y="33.15" width="2.14" height="6.01" fill="#469FBB"/><path d="M7.99 39.21 5.74 39.21 5.74 33.09 7.99 33.09 7.99 39.21ZM5.86 39.1 7.88 39.1 7.88 33.2 5.86 33.2 5.86 39.1Z" fill="#FFFFFF"/></g></g><g><g><rect x="3.28" y="33.15" width="2.14" height="2.9" fill="#469FBB"/><path d="M5.47 36.1 3.22 36.1 3.22 33.09 5.47 33.09 5.47 36.1ZM3.33 35.99 5.35 35.99 5.35 33.2 3.33 33.2 3.33 35.99Z" fill="#FFFFFF"/></g><g><rect x="5.8" y="33.15" width="2.14" height="2.9" fill="#469FBB"/><path d="M7.99 36.1 5.74 36.1 5.74 33.09 7.99 33.09 7.99 36.1ZM5.86 35.99 7.88 35.99 7.88 33.2 5.86 33.2 5.86 35.99Z" fill="#FFFFFF"/></g></g></g><g><g><rect x="13.43" y="32.65" width="5.53" height="7.01" fill="#554B3F"/></g><g><g><rect x="13.85" y="33.15" width="2.14" height="6.01" fill="#469FBB"/><path d="M16.05 39.21 13.8 39.21 13.8 33.09 16.05 33.09 16.05 39.21ZM13.91 39.1 15.94 39.1 15.94 33.2 13.91 33.2 13.91 39.1Z" fill="#FFFFFF"/></g><g><rect x="16.37" y="33.15" width="2.14" height="6.01" fill="#469FBB"/><path d="M18.56 39.21 16.31 39.21 16.31 33.09 18.56 33.09 18.56 39.21ZM16.43 39.1 18.46 39.1 18.46 33.2 16.43 33.2 16.43 39.1Z" fill="#FFFFFF"/></g></g><g><g><rect x="13.85" y="33.15" width="2.14" height="2.9" fill="#469FBB"/><path d="M16.05 36.1 13.8 36.1 13.8 33.09 16.05 33.09 16.05 36.1ZM13.91 35.99 15.94 35.99 15.94 33.2 13.91 33.2 13.91 35.99Z" fill="#FFFFFF"/></g><g><rect x="16.37" y="33.15" width="2.14" height="2.9" fill="#469FBB"/><path d="M18.56 36.1 16.31 36.1 16.31 33.09 18.56 33.09 18.56 36.1ZM16.43 35.99 18.46 35.99 18.46 33.2 16.43 33.2 16.43 35.99Z" fill="#FFFFFF"/></g></g></g></g><g><g><g><rect x="2.86" y="43.91" width="5.53" height="7.01" fill="#554B3F"/></g><g><g><rect x="3.28" y="44.41" width="2.14" height="6.01" fill="#469FBB"/><path d="M5.47 50.48 3.22 50.48 3.22 44.36 5.47 44.36 5.47 50.48ZM3.33 50.36 5.35 50.36 5.35 44.47 3.33 44.47 3.33 50.36Z" fill="#FFFFFF"/></g><g><rect x="5.8" y="44.41" width="2.14" height="6.01" fill="#469FBB"/><path d="M7.99 50.48 5.74 50.48 5.74 44.36 7.99 44.36 7.99 50.48ZM5.86 50.36 7.88 50.36 7.88 44.47 5.86 44.47 5.86 50.36Z" fill="#FFFFFF"/></g></g><g><g><rect x="3.28" y="44.41" width="2.14" height="2.9" fill="#469FBB"/><path d="M5.47 47.37 3.22 47.37 3.22 44.36 5.47 44.36 5.47 47.37ZM3.33 47.26 5.35 47.26 5.35 44.47 3.33 44.47 3.33 47.26Z" fill="#FFFFFF"/></g><g><rect x="5.8" y="44.41" width="2.14" height="2.9" fill="#469FBB"/><path d="M7.99 47.37 5.74 47.37 5.74 44.36 7.99 44.36 7.99 47.37ZM5.86 47.26 7.88 47.26 7.88 44.47 5.86 44.47 5.86 47.26Z" fill="#FFFFFF"/></g></g></g><g><g><rect x="13.43" y="43.91" width="5.53" height="7.01" fill="#554B3F"/></g><g><g><rect x="13.85" y="44.41" width="2.14" height="6.01" fill="#469FBB"/><path d="M16.05 50.48 13.8 50.48 13.8 44.36 16.05 44.36 16.05 50.48ZM13.91 50.36 15.94 50.36 15.94 44.47 13.91 44.47 13.91 50.36Z" fill="#FFFFFF"/></g><g><rect x="16.37" y="44.41" width="2.14" height="6.01" fill="#469FBB"/><path d="M18.56 50.48 16.31 50.48 16.31 44.36 18.56 44.36 18.56 50.48ZM16.43 50.36 18.46 50.36 18.46 44.47 16.43 44.47 16.43 50.36Z" fill="#FFFFFF"/></g></g><g><g><rect x="13.85" y="44.41" width="2.14" height="2.9" fill="#469FBB"/><path d="M16.05 47.37 13.8 47.37 13.8 44.36 16.05 44.36 16.05 47.37ZM13.91 47.26 15.94 47.26 15.94 44.47 13.91 44.47 13.91 47.26Z" fill="#FFFFFF"/></g><g><rect x="16.37" y="44.41" width="2.14" height="2.9" fill="#469FBB"/><path d="M18.56 47.37 16.31 47.37 16.31 44.36 18.56 44.36 18.56 47.37ZM16.43 47.26 18.46 47.26 18.46 44.47 16.43 44.47 16.43 47.26Z" fill="#FFFFFF"/></g></g></g></g><g><g><g><rect x="2.86" y="21.38" width="5.53" height="7.01" fill="#554B3F"/></g><g><g><rect x="3.28" y="21.88" width="2.14" height="6.01" fill="#469FBB"/><path d="M5.47 27.95 3.22 27.95 3.22 21.83 5.47 21.83 5.47 27.95ZM3.33 27.83 5.35 27.83 5.35 21.94 3.33 21.94 3.33 27.83Z" fill="#FFFFFF"/></g><g><rect x="5.8" y="21.88" width="2.14" height="6.01" fill="#469FBB"/><path d="M7.99 27.95 5.74 27.95 5.74 21.83 7.99 21.83 7.99 27.95ZM5.86 27.83 7.88 27.83 7.88 21.94 5.86 21.94 5.86 27.83Z" fill="#FFFFFF"/></g></g><g><g><rect x="3.28" y="21.88" width="2.14" height="2.9" fill="#469FBB"/><path d="M5.47 24.84 3.22 24.84 3.22 21.82 5.47 21.82 5.47 24.84ZM3.33 24.73 5.35 24.73 5.35 21.94 3.33 21.94 3.33 24.73Z" fill="#FFFFFF"/></g><g><rect x="5.8" y="21.88" width="2.14" height="2.9" fill="#469FBB"/><path d="M7.99 24.84 5.74 24.84 5.74 21.82 7.99 21.82 7.99 24.84ZM5.86 24.73 7.88 24.73 7.88 21.94 5.86 21.94 5.86 24.73Z" fill="#FFFFFF"/></g></g></g><g><g><rect x="13.43" y="21.38" width="5.53" height="7.01" fill="#554B3F"/></g><g><g><rect x="13.85" y="21.88" width="2.14" height="6.01" fill="#469FBB"/><path d="M16.05 27.95 13.8 27.95 13.8 21.83 16.05 21.83 16.05 27.95ZM13.91 27.83 15.94 27.83 15.94 21.94 13.91 21.94 13.91 27.83Z" fill="#FFFFFF"/></g><g><rect x="16.37" y="21.88" width="2.14" height="6.01" fill="#469FBB"/><path d="M18.56 27.95 16.31 27.95 16.31 21.83 18.56 21.83 18.56 27.95ZM16.43 27.83 18.46 27.83 18.46 21.94 16.43 21.94 16.43 27.83Z" fill="#FFFFFF"/></g></g><g><g><rect x="13.85" y="21.88" width="2.14" height="2.9" fill="#469FBB"/><path d="M16.05 24.84 13.8 24.84 13.8 21.82 16.05 21.82 16.05 24.84ZM13.91 24.73 15.94 24.73 15.94 21.94 13.91 21.94 13.91 24.73Z" fill="#FFFFFF"/></g><g><rect x="16.37" y="21.88" width="2.14" height="2.9" fill="#469FBB"/><path d="M18.56 24.84 16.31 24.84 16.31 21.82 18.56 21.82 18.56 24.84ZM16.43 24.73 18.46 24.73 18.46 21.94 16.43 21.94 16.43 24.73Z" fill="#FFFFFF"/></g></g></g></g></g><g><g><rect x="27.42" y="44.12" width="2.64" height="6.91" fill="#554B3F"/><g><rect x="27.67" y="44.6" width="2.14" height="6.01" fill="#2A6B7E"/><path d="M29.87 50.66 27.62 50.66 27.62 44.54 29.87 44.54 29.87 50.66ZM27.73 50.55 29.76 50.55 29.76 44.66 27.73 44.66 27.73 50.55Z" fill="#FFFFFF"/></g><g><rect x="27.67" y="44.6" width="2.14" height="2.86" fill="#469FBB"/><path d="M29.87 47.52 27.62 47.52 27.62 44.54 29.87 44.54 29.87 47.52ZM27.73 47.41 29.76 47.41 29.76 44.66 27.73 44.66 27.73 47.41Z" fill="#FFFFFF"/></g></g><g><rect x="27.42" y="32.77" width="2.64" height="6.91" fill="#554B3F"/><g><rect x="27.67" y="33.25" width="2.14" height="6.01" fill="#2A6B7E"/><path d="M29.87 39.31 27.62 39.31 27.62 33.19 29.87 33.19 29.87 39.31ZM27.73 39.2 29.76 39.2 29.76 33.3 27.73 33.3 27.73 39.2Z" fill="#FFFFFF"/></g><g><rect x="27.67" y="33.25" width="2.14" height="2.86" fill="#469FBB"/><path d="M29.87 36.17 27.62 36.17 27.62 33.19 29.87 33.19 29.87 36.17ZM27.73 36.05 29.76 36.05 29.76 33.3 27.73 33.3 27.73 36.05Z" fill="#FFFFFF"/></g></g><g><rect x="27.42" y="21.42" width="2.64" height="6.91" fill="#554B3F"/><g><rect x="27.67" y="21.89" width="2.14" height="6.01" fill="#2A6B7E"/><path d="M29.87 27.96 27.62 27.96 27.62 21.84 29.87 21.84 29.87 27.96ZM27.73 27.84 29.76 27.84 29.76 21.95 27.73 21.95 27.73 27.84Z" fill="#FFFFFF"/></g><g><rect x="27.67" y="21.89" width="2.14" height="2.86" fill="#469FBB"/><path d="M29.87 24.81 27.62 24.81 27.62 21.83 29.87 21.83 29.87 24.81ZM27.73 24.7 29.76 24.7 29.76 21.95 27.73 21.95 27.73 24.7Z" fill="#FFFFFF"/></g></g><g><rect x="27.42" y="10.07" width="2.64" height="6.9" fill="#554B3F"/><g><rect x="27.67" y="10.54" width="2.14" height="6.01" fill="#2A6B7E"/><path d="M29.87 16.6 27.62 16.6 27.62 10.48 29.87 10.48 29.87 16.6ZM27.73 16.49 29.76 16.49 29.76 10.6 27.73 10.6 27.73 16.49Z" fill="#FFFFFF"/></g><g><rect x="27.67" y="10.54" width="2.14" height="2.86" fill="#469FBB"/><path d="M29.87 13.46 27.62 13.46 27.62 10.48 29.87 10.48 29.87 13.46ZM27.73 13.35 29.76 13.35 29.76 10.6 27.73 10.6 27.73 13.35Z" fill="#FFFFFF"/></g></g></g></g></svg>