<svg width="183.45" height="123.54" viewBox="0 0 183.45 123.54" xmlns="http://www.w3.org/2000/svg" xmlns:xlink="http://www.w3.org/1999/xlink" xml:space="preserve" overflow="hidden"><defs></defs><g><ellipse cx="83.21" cy="103.85" rx="83.21" ry="14.42" opacity="0.3"/><g><path d="M179.02 109.13C178.25 109.26 177.49 109.39 176.72 109.53 176.66 109.54 176.61 109.55 176.55 109.56 174.5 109.92 172.45 110.27 170.4 110.63 168.73 110.92 167.06 111.21 165.4 111.49 163.3 111.85 161.21 112.22 159.11 112.58 155.71 113.17 152.31 113.76 148.91 114.35 147.39 114.61 145.87 114.87 144.35 115.14 141.33 115.66 138.31 116.18 135.29 116.71 133.22 117.07 131.14 117.43 129.07 117.79 128.57 117.88 128.07 117.96 127.57 118.05 124.97 118.5 122.37 118.95 119.77 119.4 119.76 119.48 119.76 119.56 119.76 119.64 119.1 119.75 118.44 119.86 117.79 119.97 118.76 97.03 121.05 43.17 121.05 43.17 121.05 43.17 123.57 43.61 127.56 44.3 129.99 44.72 132.96 45.23 136.24 45.79 138.69 46.21 141.32 46.65 144.01 47.1 145.79 47.4 147.61 47.71 149.43 48.01 152.55 48.53 155.67 49.04 158.67 49.53 161.26 49.95 163.75 50.35 166.05 50.71 167.44 50.92 168.76 51.13 169.98 51.31 173.18 51.79 175.75 52.14 177.34 52.31 177.8 52.36 178.17 52.39 178.46 52.4 178.56 62.34 178.67 72.74 178.77 83.11 178.84 91.91 178.93 100.69 179.02 109.13Z" fill="#96604B"/><path d="M120.67 51.15C120.71 50.53 120.74 49.92 120.78 49.3 120.76 49.92 120.73 50.54 120.7 51.15 119.73 74.09 118.75 97.02 117.78 119.96 117.46 120.02 117.14 120.07 116.82 120.12L116.81 120.12C116.75 120.13 116.7 120.14 116.65 120.15 116.65 120.14 116.65 120.13 116.65 120.12 117.99 97.13 119.33 74.14 120.67 51.15Z" fill="#E56228"/><path d="M123.27 46.54C122.49 46.62 121.71 46.7 120.93 46.78 120.98 46 121.02 45.22 121.07 44.45L121.19 42.37C121.89 43.79 122.59 45.19 123.27 46.54Z" fill="#E56228"/><path d="M183.28 51.55C183.28 51.55 165.26 49.22 158.08 48.06 145.79 46.07 133.49 44.09 121.2 42.1 121.2 42.19 121.19 42.27 121.18 42.36 117.87 35.72 114.26 28.46 111.1 22.14 111.08 22.11 111.06 22.07 111.05 22.04 100.66 14.7 79.9 0 79.9 0 79.9 0 128.02 20.59 152.08 28.08 152.38 28.17 166.41 35.1 166.41 35.1 166.41 35.1 166.44 35.13 166.51 35.2 167.64 36.37 178.45 47.52 183.28 51.55Z" fill="#2C5B6D"/><path d="M123.27 46.54C122.53 45.86 121.8 45.16 121.06 44.45 121.04 44.43 121.01 44.4 120.99 44.38 118.63 42.09 116.28 39.65 113.92 37.1L113.92 37.1C106.31 28.9 98.69 19.69 91.08 11.36 87.35 7.29 83.62 3.43 79.9 0 90.28 7.35 100.66 14.7 111.05 22.05 114.22 28.4 117.85 35.69 121.18 42.37L121.18 42.37C121.89 43.79 122.59 45.19 123.27 46.54Z" fill="#C44E3F"/><path d="M123.27 46.54C122.49 46.62 121.71 46.7 120.93 46.78 120.92 46.78 120.91 46.78 120.89 46.78 96.06 49.22 68.4 48.3 39.66 45.14 38.73 45.04 37.8 44.93 36.88 44.83 34.04 44.5 31.24 44.14 28.46 43.75 33.47 36.52 38.49 29.28 43.51 22.05 55.63 14.7 67.77 7.35 79.9 0 90.28 7.35 100.66 14.7 111.05 22.05 114.22 28.4 117.85 35.69 121.18 42.37L121.18 42.37C121.89 43.79 122.59 45.19 123.27 46.54Z" fill="#B7ABA7"/><path d="M177.32 52.29C177.12 71.37 176.92 90.45 176.72 109.53 176.66 109.54 176.61 109.55 176.55 109.56 174.5 109.91 172.45 110.27 170.4 110.62 170.26 90.84 170.11 71.06 169.97 51.29 173.16 51.77 175.74 52.13 177.32 52.29Z" fill="#AD6849"/><path d="M136.22 45.77C135.91 69.41 135.6 93.05 135.29 116.69 132.72 117.14 130.14 117.58 127.57 118.03 127.35 93.5 127.13 68.97 126.91 44.44 127.12 44.39 127.33 44.34 127.54 44.28 129.97 44.71 132.94 45.22 136.22 45.77Z" fill="#AD6849"/><path d="M149.42 48C149.25 70.11 149.08 92.23 148.91 114.35 147.39 114.61 145.87 114.88 144.35 115.14 144.23 92.46 144.11 69.78 143.99 47.1 145.78 47.39 147.6 47.7 149.42 48Z" fill="#AD6849"/><path d="M121.04 43.16C121.02 43.57 121.01 43.97 120.99 44.38 120.96 45.18 120.92 45.99 120.89 46.79 120.86 47.6 120.82 48.4 120.79 49.21L120.79 49.22C120.79 49.24 120.79 49.25 120.79 49.27 120.79 49.28 120.79 49.29 120.79 49.3 120.77 49.92 120.74 50.54 120.71 51.15 119.74 74.09 118.76 97.02 117.79 119.96 117.79 120.02 117.78 120.09 117.78 120.15 117.46 120.14 117.14 120.13 116.82 120.12L116.81 120.12C116.76 120.12 116.7 120.12 116.65 120.12 115.94 120.1 115.23 120.08 114.52 120.06 111.96 119.98 109.4 119.91 106.84 119.83 103.59 119.73 100.34 119.63 97.09 119.54 95.11 119.48 93.13 119.42 91.15 119.36 88.18 119.27 85.2 119.18 82.23 119.1L76.34 118.92C74.33 118.86 72.32 118.8 70.31 118.74 67.72 118.66 65.14 118.59 62.55 118.51 59.33 118.41 56.11 118.32 52.89 118.22 50.4 118.14 47.9 118.07 45.41 118 43.48 117.94 41.56 117.89 39.63 117.83 38.72 93.5 37.8 69.17 36.89 44.85 36.87 44.46 36.86 44.07 36.85 43.67 36.85 43.58 36.84 43.5 36.84 43.41 39.52 38.48 42.21 33.55 44.89 28.62 46.02 26.55 47.14 24.48 48.27 22.41L54.01 18.89 62 13.99 71.19 8.35 75.92 5.45 79.07 3.52C80.34 4.35 81.6 5.18 82.87 6 85.5 7.72 88.13 9.44 90.75 11.15 90.87 11.23 90.98 11.3 91.1 11.38 93.3 12.81 95.49 14.25 97.69 15.68 100.59 17.57 103.48 19.47 106.38 21.36 107.15 21.87 107.93 22.37 108.7 22.88 110.85 26.42 113.01 29.95 115.16 33.48 116.95 36.42 118.74 39.35 120.53 42.29 120.68 42.57 120.86 42.87 121.04 43.16Z" fill="#5B3529"/><path d="M53.99 18.88C53.7 51.97 53.42 85.06 53.13 118.15 53.05 118.17 52.96 118.19 52.88 118.22 50.39 118.14 47.89 118.07 45.4 118 45.22 88.21 45.05 58.41 44.87 28.62 46 26.55 47.12 24.48 48.25 22.41L53.99 18.88Z" fill="#AD6849" opacity="0.33"/><path d="M82.22 119.09C82.43 81.39 82.64 43.69 82.85 5.99 81.58 5.16 80.32 4.33 79.05 3.51L75.9 5.43C76.04 43.26 76.19 81.08 76.33 118.91L82.22 119.09Z" fill="#AD6849" opacity="0.33"/><path d="M97.66 15.67C97.47 50.29 97.27 84.91 97.08 119.54 95.1 119.48 93.12 119.42 91.14 119.36 91 83.29 90.87 47.22 90.73 11.14 90.85 11.22 90.96 11.29 91.08 11.37 93.27 12.8 95.47 14.23 97.66 15.67Z" fill="#AD6849" opacity="0.33"/><path d="M115.14 33.47C114.94 62.33 114.73 91.19 114.52 120.05 111.96 119.97 109.4 119.9 106.84 119.82 106.68 86.99 106.52 54.17 106.36 21.34 107.13 21.85 107.91 22.35 108.68 22.86 110.83 26.4 112.98 29.93 115.14 33.47Z" fill="#AD6849" opacity="0.33"/><path d="M183.45 51.7C181.98 51.93 180.5 52.16 179.03 52.39 172.32 51.87 165.56 51.18 158.79 50.45 147.05 49.18 135.28 47.78 123.64 46.9 123.51 46.78 123.39 46.67 123.26 46.55 122.58 45.2 121.89 43.8 121.17 42.38L121.17 42.38C121.17 42.29 121.18 42.21 121.19 42.12 133.48 44.11 145.78 46.09 158.07 48.08 165.25 49.24 183.27 51.57 183.27 51.57 183.34 51.6 183.4 51.65 183.45 51.7Z" fill="#2C5B6D"/><path d="M120.67 51.15C120.71 50.53 120.74 49.92 120.78 49.3 120.76 49.92 120.73 50.54 120.7 51.15 120.69 51.15 120.68 51.15 120.67 51.15Z" opacity="0.15"/><path d="M123.27 46.54C122.49 46.62 121.71 46.7 120.93 46.78 120.98 46 121.02 45.22 121.07 44.45L121.19 42.37C121.89 43.79 122.59 45.19 123.27 46.54Z" opacity="0.15"/><path d="M120.5 42.28C120.48 42.33 120.47 42.37 120.45 42.42 113.28 36.59 106.1 30.76 98.93 24.92 92.05 20.14 85.17 15.36 78.28 10.57 69.59 16.64 60.9 22.7 52.21 28.77 47.08 33.73 41.95 38.69 36.82 43.65 36.82 43.56 36.81 43.48 36.81 43.39 40.62 36.39 44.43 29.39 48.24 22.39L79.04 3.49C88.92 9.95 98.79 16.4 108.67 22.85 112.62 29.34 116.56 35.81 120.5 42.28Z" opacity="0.15"/><path d="M51.02 60.05C69.81 60.64 88.59 61.24 107.38 61.83 106.27 81.21 105.15 100.59 104.04 119.97 86.66 119.52 69.29 119.08 51.91 118.63 51.61 99.11 51.31 79.58 51.02 60.05Z" fill="#938986"/><path d="M102.92 67.58C102.79 74.29 102.66 81.01 102.52 87.73 102.31 98.54 102.09 109.35 101.88 120.16 85.99 119.62 70.1 119.07 54.21 118.53 54.2 116.04 54.2 113.55 54.19 111.06 54.15 96.07 54.11 81.09 54.06 66.1 70.35 66.59 86.63 67.08 102.92 67.58Z" fill="#211818"/><path d="M183.28 51.55C183.28 51.55 165.26 49.22 158.08 48.06 145.79 46.07 133.49 44.09 121.2 42.1 121.2 42.19 121.19 42.27 121.18 42.36 117.87 35.72 114.26 28.46 111.1 22.14 129.57 26.49 148.04 30.84 166.51 35.19 167.64 36.37 178.45 47.52 183.28 51.55Z" fill="#47879D"/><path d="M102.52 87.72C102.31 98.53 102.09 109.34 101.88 120.15 85.99 119.61 70.1 119.06 54.21 118.52 54.2 116.03 54.2 113.54 54.19 111.05 55.74 108.51 57.35 106.46 58.81 104.83 70.97 91.26 88.58 89.22 98.02 88.12 99.57 87.94 101.07 87.81 102.52 87.72Z" fill="#723631" opacity="0.48"/><path d="M179.02 109.13C178.25 109.26 177.49 109.39 176.72 109.53 176.66 109.54 176.61 109.55 176.55 109.56 174.5 109.92 172.45 110.27 170.4 110.63 168.73 110.92 167.06 111.21 165.4 111.49 163.3 111.85 161.21 112.22 159.11 112.58 155.71 113.17 152.31 113.76 148.91 114.35 147.39 114.61 145.87 114.87 144.35 115.14 141.33 115.66 138.31 116.18 135.29 116.71 133.22 117.07 131.14 117.43 129.07 117.79 118.87 93.15 125.39 70.74 137.38 65 147.05 60.38 161.56 65.97 170.31 73.28 174.09 76.44 176.81 79.92 178.75 83.11 178.84 91.91 178.93 100.69 179.02 109.13Z" fill="#DD9A6C" opacity="0.52"/><path d="M132.56 66.81C146.1 67.09 169.9 67.57 169.9 67.57L168.76 80.92C168.76 80.92 143.98 83.3 131.59 83.3 131.92 78.59 132.24 71.51 132.56 66.81Z" fill="#D3CECD"/><path d="M167.23 68.78 166.72 72.28 165.65 79.57C165.65 79.57 148.84 81.23 138.3 81.51 137.32 81.54 136.4 81.55 135.55 81.55 135.82 77.74 136.08 71.95 136.34 68.14 147.29 68.38 167.23 68.78 167.23 68.78Z" fill="#421E1D"/><path d="M166.72 72.29 165.65 79.58C165.65 79.58 148.84 81.24 138.3 81.52 139.6 78.92 141.63 76.08 144.8 73.86 150.92 69.59 159.22 69.06 166.72 72.29Z" fill="#723631"/><path d="M52.35 118.64 48.67 119.05C43.29 119.65 37.91 120.26 32.53 120.86 31.49 99.55 30.45 78.24 29.41 56.92 32.92 57.39 36.43 57.86 39.94 58.33 43.63 58.83 47.33 59.32 51.02 59.82L52.35 118.64Z" fill="#D3CECD"/><path d="M106.93 61.61C109.68 61.09 112.43 60.57 115.17 60.05 114.65 81.21 114.13 102.38 113.61 123.54 110.42 122.13 107.22 120.72 104.03 119.31 105 100.08 105.97 80.84 106.93 61.61Z" fill="#9E928F"/><path d="M49.46 63.24C43.92 62.45 38.37 61.66 32.83 60.86 33.77 79.92 34.71 98.98 35.65 118.04 40.5 117.64 45.35 117.25 50.2 116.85 49.95 98.99 49.7 81.12 49.46 63.24Z" fill="#AD6849"/><path d="M108.05 63.99C109.91 63.57 111.76 63.15 113.62 62.73 113.05 82.06 112.48 101.39 111.91 120.73 109.68 119.89 107.45 119.05 105.23 118.21 106.16 100.13 107.1 82.06 108.05 63.99Z" fill="#54342A"/><path d="M47.9 62.28C43.41 80.44 38.91 98.59 34.42 116.75 34.57 117.6 34.72 118.46 34.87 119.31 35.72 119.27 36.58 119.24 37.43 119.2 41.74 100.3 46.04 81.4 50.35 62.5 49.53 62.43 48.71 62.35 47.9 62.28Z" fill="#D3CECD"/><path d="M52.35 118.64 48.67 119.05C45.76 98.81 42.85 78.57 39.94 58.34 43.63 58.84 47.33 59.33 51.02 59.83L52.35 118.64Z" fill="#211818" opacity="0.36"/><path d="M107.15 63.95C108.45 83.18 109.75 102.42 111.05 121.65 111.76 121.39 112.46 121.13 113.17 120.87 111.54 101.38 109.9 81.88 108.27 62.39 107.9 62.91 107.53 63.43 107.15 63.95Z" fill="#9E928F"/></g></g></svg>