<svg width="2481.5" height="1732.92" viewBox="0 0 2481.5 1732.92" xmlns="http://www.w3.org/2000/svg" xmlns:xlink="http://www.w3.org/1999/xlink" xml:space="preserve" overflow="hidden"><defs></defs><g><g><path d="M2481.44 324.95 2481.44 1403.97C2481.44 1578.97 2332.36 1694.05 2157.94 1717.26 1940.97 1746.15 1704.27 1731.03 1303.79 1704.53 1059.52 1688.39 568.32 1715.15 323.65 1717.26 145.01 1718.81 0.19 1576.99 0.19 1403.97L0.19 324.95C0.19 151.93 145.32 1.49 323.65 11.65 492.56 21.31 733.21 58.5 986.83 35.61 1283.97 8.84 1859.42-15.02 2157.94 11.65 2333.63 27.38 2481.44 150.16 2481.44 324.95Z" fill="#D7E9FD"/></g><g opacity="0.5"><g><g><path d="M1327.51 706.14 1305.15 703.49 1303.92 666.89 1327.51 665.55Z" fill="#DAEBE8"/></g></g><g><g><path d="M1342.96 548.61 1337.47 853.44 1313.55 1017.54 1260.74 1017.06 1242.89 1016.89 1158.11 1016.09 1150.96 916.03 1140.8 596.65Z" fill="#8FB3E3"/></g></g><g><g><path d="M1675.56 1019.84 1611.55 1019.84 1428.03 1018.85 1430.67 874.53 1436.96 589.88 1653.48 601.04 1667.9 874.53Z" fill="#8FB3E3"/></g></g><g><g><path d="M920.83 701.28 920.83 1014.73 797.8 1013.69 551.58 1011.64 533.96 648.67Z" fill="#8FB3E3"/></g></g><g><g><path d="M1769.29 756.71 1769.29 1019.84 1611.55 1019.84 1428.03 1018.05 1355.98 1017.34 1271.64 1016.53 1276.22 632.22Z" fill="#8FB3E3"/></g></g><g><g><path d="M1871.12 574.42 1871.1 575.36 1864.22 1019.84 1685.54 1019.84 1690.25 821.92 1695.51 599.97Z" fill="#8FB3E3"/></g></g><g><g><path d="M1243.15 771.62 1243.15 1016.53 1107.75 1014.61 1041.42 1013.69 926.58 1012.05 926.58 771.62Z" fill="#8FB3E3"/></g></g><g><g><path d="M652.6 1012.56 559.2 1011.97 468.09 1011.38 426.67 1011.12 429.01 861.13 434.75 489.73 632.63 567.28 645.81 861.13Z" fill="#8FB3E3"/></g></g><g><g><path d="M289.66 550.71 289.66 1039.83 198.35 1039.24 97.52 1038.56 97.52 545.4 260.88 549.91Z" fill="#8FB3E3"/></g></g><g><g><path d="M746.56 778 746.56 1013.39 691.35 1012.89 652.6 1012.56 550.4 1011.64 450.7 1010.74 405.39 1010.33 333.4 1009.7 248.91 1008.94 248.91 778Z" fill="#8FB3E3"/></g></g><g><g><path d="M926.58 441.14 918.28 1014.26 904.28 1014.16 828.72 1013.65 780.39 1013.33 701.13 1012.81 706.7 762.89 713.09 474.35Z" fill="#8FB3E3"/></g></g><g><g><path d="M2209.02 380.51 2202.06 778 2198 1009.7 2113.52 1008.94 2085.03 1008.67 1949.04 1007.47 1938.21 861.32 1903.71 395.81 1967.38 392.61 2130.23 384.45Z" fill="#8FB3E3"/></g></g><g><g><path d="M1943.9 701.66 1943.9 1039.83 1902.18 1039.42 1846.58 1038.85 1847.85 878.76 1849.31 697.71Z" fill="#8FB3E3"/></g></g><g><g><path d="M2153.63 773.49 2153.63 1041.83 2017.65 1039.64 1951.9 1038.54 1909.63 1037.87 1853.3 1036.94 1854.58 773.49Z" fill="#8FB3E3"/></g></g><g><g><path d="M870.53 525.17 852.32 522.51 851.32 485.91 870.53 484.57Z" fill="#DAEBE8"/></g></g><g><g><path d="M165.53 633.03 143.25 633.03 141.94 593.77 165.53 596.18Z" fill="#DAEBE8"/></g></g><g><g><path d="M248.91 741.74 226.63 741.74 225.32 702.48 248.91 704.89Z" fill="#DAEBE8"/></g></g><g><g><path d="M1966.58 460.26 1944.3 460.26 1942.99 421.01 1966.58 423.41Z" fill="#DAEBE8"/></g></g><g><g><path d="M1617.34 668.3 1595.06 668.3 1593.75 629.05 1617.34 631.45Z" fill="#DAEBE8"/></g></g><g><g><path d="M509.53 598.7 487.25 598.7 485.94 559.44 509.53 561.85Z" fill="#DAEBE8"/></g></g><g><g><path d="M2150.92 489.73 2128.64 489.73 2127.33 450.47 2150.92 452.88Z" fill="#DAEBE8"/></g></g><g><g><path d="M2150.92 695.11 2128.64 695.11 2127.33 655.85 2150.92 658.26Z" fill="#DAEBE8"/></g></g><g><g><path d="M2015.26 609.51 1992.98 609.51 1991.67 570.25 2015.26 572.66Z" fill="#DAEBE8"/></g></g><g><g><path d="M1842.21 675.48 1819.93 675.48 1818.62 636.22 1842.21 638.63Z" fill="#DAEBE8"/></g></g><g><g><path d="M1894.71 816.12 1872.44 816.12 1871.12 776.87 1894.71 779.27Z" fill="#DAEBE8"/></g></g></g><g><path d="M479.21 960.86 0.19 996.36 0.19 781.26C22.72 784.69 47.05 794.87 63.46 819.88 101.94 878.57 171.61 883.26 200.48 853.6 229.34 823.94 313.47 840.61 333.23 895.74 353.01 950.86 484.98 876.79 479.21 960.86Z" fill="#9EB269"/></g><g><path d="M2481.44 729.74 2481.44 1011.62 1864.69 952.85C1880.58 886.46 2032.05 935.53 2059.78 863.81 2087.52 792.09 2195.93 773.99 2231.56 814.38 2267.19 854.77 2356.57 851.8 2408.43 776.23 2428.08 747.58 2455.27 734.7 2481.44 729.74Z" fill="#9EB269"/></g><g opacity="0.6"><path d="M1026.16 186.07C1026.16 186.07 1009.92 154.83 968.81 158.74 927.71 162.65 932.6 193.97 913.03 191.04 893.46 188.11 866.05 191.04 860.18 210.61 854.31 230.18 827.88 219.42 826.9 236.06 825.92 252.7 857.24 264.44 893.45 249.76 929.66 235.08 947.28 261.16 998.17 256.44 1049.06 251.72 1055.37 245.84 1085.49 248.78 1115.61 251.72 1114.9 231.09 1101.2 217.39 1087.49 203.69 1032.03 204.99 1026.16 186.07Z" fill="#FFFFFF"/></g><g opacity="0.6"><path d="M1815.5 266.29C1815.5 266.29 1802.46 241.22 1769.48 244.36 1736.5 247.5 1740.42 272.63 1724.71 270.28 1709 267.92 1687.01 270.28 1682.3 285.99 1677.59 301.7 1656.38 293.06 1655.6 306.41 1654.82 319.76 1679.95 329.19 1709 317.4 1738.06 305.62 1752.19 326.55 1793.03 322.76 1833.87 318.97 1838.93 314.26 1863.1 316.61 1887.27 318.97 1886.7 302.42 1875.7 291.42 1864.72 280.43 1820.21 281.47 1815.5 266.29Z" fill="#FFFFFF"/></g><g opacity="0.4"><path d="M700.51 276.88C700.51 276.88 673.94 230.86 625.33 238.42 576.72 245.98 624.25 266.73 560.51 276.88 496.77 287.03 482.73 308.64 511.9 325.92 541.07 343.2 588.6 294.59 640.45 318.36 692.3 342.13 761.65 321.83 700.51 276.88Z" fill="#FFFFFF"/></g><g opacity="0.4"><path d="M1581.04 184.97C1581.04 184.97 1563.08 153.86 1530.22 158.97 1497.36 164.08 1529.49 178.11 1486.41 184.97 1443.33 191.83 1433.83 206.44 1453.55 218.12 1473.27 229.8 1505.4 196.94 1540.45 213.01 1575.49 229.07 1622.37 215.35 1581.04 184.97Z" fill="#FFFFFF"/></g><g><path d="M2481.44 948.98C2481.44 1444.94 2481.86 1410.91 2480.47 1428.09 2467.16 1592.44 2320.86 1695.58 2157.94 1717.26 1845.15 1758.9 1432.06 1704.01 1181.98 1699.98 921.01 1695.68 532.8 1715.45 323.65 1717.26 159.67 1718.68 25.46 1599.71 3.4 1448.26-1.17 1417.04 0.19 1438.31 0.19 948.97L2481.44 948.97Z" fill="#8FB3E3"/></g><g><path d="M400.97 948.98 0.19 1071.46 0.19 948.98Z" fill="#CCD39C"/></g><g><path d="M2007.86 948.98 2481.44 1159.99 2481.44 948.98Z" fill="#CCD39C"/></g><g><path d="M2481.44 1090.37 2481.44 1320.78 1818.62 948.98 2016.19 948.98Z" fill="#6995C4"/></g><g><g><path d="M1619.52 762.66 1663.53 762.66 1663.53 773.55 1615.2 773.55Z" fill="#331832"/></g><g><path d="M924.56 762.66 968.58 762.66 968.58 773.55 920.24 773.55Z" fill="#331832"/></g><g><path d="M1608.16 819.1 984.19 819.1C963.55 819.1 952.91 825.92 958.07 809.56L1006.22 654.83C1019.23 610.38 1073.61 600.71 1106.81 600.71L1502.28 600.71C1572.95 603.52 1579.58 640.3 1583.32 651.55L1638.23 801.18C1643.67 817.62 1628.96 819.1 1608.16 819.1Z" fill="#331832"/></g><g><path d="M962.87 828.61C958.23 828.61 954.26 827.66 951.34 824.06 947.31 819.12 948.58 812.72 950.34 807.13L998.48 652.43C1014.72 596.92 1085.5 592.6 1106.81 592.6L1502.28 592.6C1574.67 595.48 1586.05 632.79 1590.33 646.83L1591.01 649.01 1645.83 798.4C1648.43 806.21 1647.89 812.57 1644.32 817.53 1637.85 826.49 1624.12 827.23 1608.17 827.23L984.19 827.23C979.01 827.23 974.51 827.69 970.77 828.06 967.98 828.34 965.33 828.61 962.87 828.61ZM1501.95 608.82 1106.81 608.83C1088.36 608.83 1027.12 612.31 1014.01 657.11L965.81 811.97C965.78 812.06 965.75 812.15 965.72 812.25 966.84 812.16 968.04 812.04 969.14 811.92 973.33 811.5 978.38 810.99 984.18 810.99L1608.15 810.99C1626.54 810.99 1630.46 809.14 1631.15 808.03 1631.16 808.02 1631.57 806.96 1630.5 803.73L1574.8 651.56C1571.13 639.5 1562.51 611.24 1501.95 608.82Z" fill="#EF8062"/></g><g><path d="M1706.08 1025.78 897.38 1025.78C881.63 1025.78 868.41 1013.55 866.72 997.41L854.8 884.08C849.23 831.13 889.46 784.91 941.11 784.91 941.11 784.91 1012.37 771.5 1290.31 771.5 1508.81 771.5 1677.4 784.91 1677.4 784.91 1728.27 784.91 1766.65 832.54 1757.32 884.11L1736.39 999.8C1733.67 1014.86 1720.93 1025.78 1706.08 1025.78Z" fill="#EF8062"/></g><g><path d="M1487.93 920.55C1487.93 920.55 1508.58 897.92 1572.02 884.86 1635.46 871.8 1699.16 868.91 1708.61 893.38 1718.06 917.85 1711.8 947.64 1679.72 951.7 1647.65 955.76 1466.34 957.11 1487.93 920.55Z" fill="#DAEBE8"/></g><g><path d="M938.99 1024.99C938.99 1024.99 899.39 1138.36 935.29 1148.08 971.19 1157.8 1064.57 1159.57 1079.64 1140.14 1094.71 1120.71 1064.9 1019.84 1064.9 1019.84L938.99 1024.99Z" fill="#331832"/></g><g><path d="M1571.42 1025.29C1571.42 1025.29 1520.82 1135.21 1558.63 1145.44 1596.44 1155.67 1673.5 1156.46 1689.37 1136 1705.24 1115.54 1689.81 1025.28 1689.81 1025.28L1571.42 1025.28Z" fill="#331832"/></g><g><path d="M1150.08 921.22C1150.08 921.22 1127.21 896.15 1056.95 881.69 986.69 867.23 916.15 864.03 905.68 891.12 895.21 918.21 902.15 951.21 937.67 955.71 973.2 960.21 1174 961.71 1150.08 921.22Z" fill="#DAEBE8"/></g><g><path d="M1178.35 949.8 1196.03 909.21C1199.02 902.34 1204.62 898.1 1210.69 898.1L1427.73 898.1C1433.53 898.1 1438.92 901.98 1442.01 908.37L1461.59 948.96C1468.63 963.56 1460.57 982.55 1447.31 982.55L1193.01 982.55C1180.1 982.54 1171.98 964.42 1178.35 949.8Z" fill="#764678"/></g><g><path d="M1312.87 867.89C1261.22 867.89 1208.29 866.55 1167.12 863.25 1126.05 859.96 1103 855.11 1098.6 848.84 1065.41 801.61 1044.18 776.87 1043.97 776.62L1044.55 776.12C1044.76 776.36 1066.02 801.12 1099.23 848.39 1103.43 854.38 1126.93 859.24 1167.18 862.48 1217.84 866.54 1295.41 868.05 1374.7 866.47 1446.44 865.04 1499.12 861.42 1502.81 857.64 1513.14 847.05 1520.91 835.62 1529.91 822.38 1538.64 809.53 1548.55 794.96 1563.06 777.83L1563.65 778.33C1549.16 795.42 1539.26 809.98 1530.54 822.81 1521.52 836.08 1513.74 847.53 1503.36 858.16 1498.31 863.37 1407.77 867.89 1312.87 867.89Z" fill="#331832"/></g><g><g><path d="M1745.82 1092.48 862.7 1092.48C857.35 1092.48 852.83 1086.41 852.18 1078.33L847.52 1020.85C846.74 1011.24 851.67 1002.76 858.04 1002.76L1749.58 1002.76C1755.85 1002.76 1760.75 1010.99 1760.13 1020.48L1756.37 1077.96C1755.83 1086.2 1751.27 1092.48 1745.82 1092.48Z" fill="#EF8062"/></g><g><path d="M1745.82 1092.96 862.7 1092.96C857.1 1092.96 852.38 1086.69 851.7 1078.38L847.04 1020.89C846.55 1014.89 848.28 1008.95 851.54 1005.41 853.43 1003.36 855.68 1002.28 858.04 1002.28L1749.58 1002.28C1751.91 1002.28 1754.13 1003.34 1756 1005.35 1759.23 1008.79 1760.98 1014.6 1760.6 1020.51L1756.84 1077.99C1756.29 1086.52 1751.55 1092.96 1745.82 1092.96ZM858.04 1003.23C855.96 1003.23 853.95 1004.21 852.24 1006.06 849.15 1009.4 847.52 1015.06 847.99 1020.81L852.65 1078.3C853.28 1086.11 857.6 1092.01 862.7 1092.01L1745.82 1092.01C1751.04 1092.01 1755.37 1085.96 1755.9 1077.93L1759.66 1020.45C1760.03 1014.78 1758.36 1009.24 1755.32 1005.99 1753.63 1004.18 1751.65 1003.23 1749.59 1003.23L858.04 1003.23Z" fill="#331832"/></g></g><g><path d="M1653.46 767.48C1653.46 767.48 1658.31 736.97 1696.69 737.87 1735.07 738.77 1738.67 751.81 1729.67 767.48 1720.67 783.15 1651.01 786 1653.46 767.48Z" fill="#EF8062"/></g><g><path d="M934.6 767.48C934.6 767.48 929.75 736.97 891.37 737.87 852.99 738.77 849.39 751.81 858.39 767.48 867.39 783.15 937.05 786 934.6 767.48Z" fill="#EF8062"/></g><g><path d="M1685.88 749.22C1685.88 749.22 1696.69 743.45 1706.73 744.99 1716.77 746.53 1723.97 748.22 1723.72 753.42 1723.46 758.64 1680.04 751.65 1685.88 749.22Z" fill="#FF9E89"/></g><g><path d="M1733.77 836.11C1733.77 836.11 1713.42 804.58 1689.74 800.39 1666.06 796.21 1626.43 794.1 1623.86 800.82 1621.29 807.54 1666.73 812.68 1683.13 828.13 1699.52 843.57 1749.67 855.18 1733.77 836.11Z" fill="#FF9E89"/></g><g><path d="M1686.14 1015.48C1686.14 1015.48 1734.52 1009.93 1741.73 1018.11 1748.94 1026.29 1755.63 1047.84 1745.85 1047.62 1736.07 1047.4 1730.82 1035.49 1718.45 1030.63 1706.08 1025.78 1676.17 1016.41 1686.14 1015.48Z" fill="#FF9E89"/></g><g><path d="M1551.58 683.1C1551.58 683.1 1553.4 640 1509.65 635.42 1465.9 630.85 1374.75 624.5 1377.49 635.42 1380.22 646.34 1497.81 675.21 1514.21 694.96 1530.61 714.71 1555.96 704.83 1551.58 683.1Z" fill="#764678"/></g></g><g><path d="M1367.2 159.65 1236.85 401.95C1235.7 404.08 1237.28 406.99 1239.35 406.58L1332.02 388.26C1334.07 387.85 1335.65 390.71 1334.55 392.85L1266.12 525.82C1264.65 528.68 1267.8 532 1269.81 529.71L1463.46 310.57C1465.14 308.66 1463.71 305.08 1461.4 305.42L1337.26 323.44C1335.53 323.69 1334.08 321.61 1334.57 319.56L1371.5 162.32C1372.26 159.11 1368.68 156.89 1367.2 159.65Z" fill="#EF8062"/></g><g><path d="M1537.29 382.73 1437.18 488.8C1436.3 489.73 1436.51 491.52 1437.52 491.64L1482.44 497.16C1483.43 497.28 1483.66 499.04 1482.8 499.98L1429.26 558.7C1428.11 559.96 1428.96 562.22 1430.26 561.35L1554.97 477.81C1556.05 477.08 1556.02 474.97 1554.92 474.77L1495.85 463.95C1495.03 463.8 1494.73 462.47 1495.3 461.47L1538.77 384.85C1539.66 383.27 1538.43 381.52 1537.29 382.73Z" fill="#EF8062"/></g><g><path d="M1174.97 565.26C1173.95 565.26 1172.83 564.72 1172.29 563.58L1139.61 495.46C1139.51 495.26 1139.22 495 1139.12 495.21L1118.35 537.99C1117.96 538.81 1117.15 539.3 1116.18 539.3 1116.17 539.3 1116.17 539.3 1116.16 539.3 1115.02 539.29 1113.94 538.6 1113.47 537.57L1055.66 411.17C1055.14 410.03 1055.47 408.86 1056.47 408.22 1057.64 407.49 1059.22 407.78 1060.14 408.93L1112.2 471.77C1112.36 471.95 1112.56 472.07 1112.64 471.95L1143.15 416.56C1143.64 415.69 1144.66 415.24 1145.69 415.41 1146.93 415.59 1147.93 416.49 1148.17 417.66L1177.34 562.49C1177.58 563.68 1176.98 564.74 1175.84 565.12 1175.56 565.22 1175.27 565.26 1174.97 565.26ZM1139.17 492.71C1139.17 492.71 1139.17 492.71 1139.17 492.71 1140.3 492.71 1141.38 493.38 1141.86 494.38L1174.54 562.5C1174.67 562.79 1174.98 562.75 1175.04 562.76L1145.71 418.17C1145.41 417.89 1145.31 417.97 1145.21 417.88L1114.71 473.27C1114.34 473.94 1113.66 474.38 1112.85 474.45 1111.87 474.69 1110.91 474.13 1110.28 473.37L1058.22 410.53C1058.15 410.46 1058.09 410.41 1058.03 410.38L1115.74 536.54C1115.85 536.75 1116.14 536.84 1116.22 536.8L1136.99 494.01C1137.39 493.19 1138.2 492.71 1139.17 492.71Z" fill="#EF8062"/></g><g><g><g><path d="M137.05 991.43C135.85 991.36 134.65 991.26 133.42 991.15 131.06 990.92 128.65 990.65 126.16 990.3 121.45 989.66 116.73 989.28 112.01 989.17 110.78 989.14 109.56 989.12 108.31 989.15 107.65 989.13 106.99 989.15 106.33 989.17 82.63 989.8 20.35 995.14 22.4 959.15 25.02 913 71.17 932.55 74.16 913.71 77.7 891.47 121 866.83 139.23 902.41 156.89 936.87 166.75 909.88 188.33 921.32 219.52 937.85 212.07 996.57 137.05 991.43Z" fill="#C4C66D"/></g></g><g><g><g><path d="M86.48 957.94C86.48 957.94 38.95 963.56 39.99 968.2 41.04 972.84 86.02 960.41 86.02 960.41L86.48 957.94Z" fill="#9EB269"/></g></g><g><g><path d="M107.2 970.71C107.2 970.71 56.06 934.91 54.07 936.47 52.08 938.03 104.6 973.28 104.6 973.28L107.2 970.71Z" fill="#9EB269"/></g></g></g><g><g><g><path d="M112.02 989.17C110.79 989.14 109.57 989.12 108.32 989.15 107.54 986.27 105.87 980.23 103.88 972.78 103.41 971.04 102.93 969.24 102.42 967.36 96.55 945.38 89 916 90.58 916.18 91.67 916.3 95.93 930.35 100.39 946.23 100.7 947.31 101.02 948.4 101.31 949.49 103.32 956.68 105.34 964.07 107.09 970.6 107.11 970.65 107.12 970.7 107.14 970.76 109.38 979.14 111.2 986.05 112.02 989.17Z" fill="#9EB269"/></g></g><g><g><g><path d="M109.56 937.12C108.82 938.28 108.07 939.41 107.35 940.5 103.91 945.75 101.03 949.91 101.03 949.91L99.19 948.25C99.19 948.25 102.43 942.73 106.31 936.5 107.04 935.3 107.8 934.09 108.57 932.89 113.35 925.34 118.31 918.11 119 919.38 119.75 920.73 114.55 929.38 109.56 937.12Z" fill="#9EB269"/></g></g></g></g><g><g><g><path d="M140.09 973.28C140.09 973.28 179.12 952.13 181.45 955.47 183.78 958.81 142.08 974.54 142.08 974.54L140.09 973.28Z" fill="#9EB269"/></g></g><g><g><path d="M143.11 971.67C142.83 972.63 142.55 973.56 142.28 974.48 139.85 982.59 137.64 989.6 137.05 991.43 135.85 991.36 134.65 991.26 133.42 991.15 134.31 988.11 138.79 972.89 142.9 960.47 143.28 959.29 143.68 958.13 144.05 957 146.64 949.41 148.89 943.6 149.76 943.58 151.17 943.53 147.05 958.41 143.11 971.67Z" fill="#9EB269"/></g></g><g><g><path d="M167 960.25C167 960.25 167.7 941.5 169.56 941 171.42 940.5 170.08 958.94 170.08 958.94L167 960.25Z" fill="#9EB269"/></g></g><g><g><path d="M144.14 962.04C144.14 962.04 127.66 941.34 128.58 939.54 129.5 937.74 145.23 958.54 145.23 958.54L144.14 962.04Z" fill="#9EB269"/></g></g></g></g><g><g><g><path d="M2204.08 967C2202.92 966.93 2201.76 966.83 2200.57 966.73 2198.28 966.51 2195.94 966.24 2193.54 965.91 2188.98 965.29 2184.41 964.92 2179.83 964.82 2178.64 964.79 2177.46 964.77 2176.25 964.8 2175.61 964.78 2174.97 964.8 2174.33 964.82 2151.37 965.43 2091.05 970.61 2093.03 935.74 2095.57 891.04 2140.27 909.97 2143.17 891.73 2146.6 870.19 2188.55 846.32 2206.2 880.78 2223.3 914.16 2232.86 888.01 2253.76 899.09 2283.97 915.1 2276.75 971.98 2204.08 967Z" fill="#C4C66D"/></g></g><g><g><g><path d="M2155.09 934.56C2155.09 934.56 2109.05 940 2110.06 944.5 2111.07 949 2154.65 936.96 2154.65 936.96L2155.09 934.56Z" fill="#9EB269"/></g></g><g><g><path d="M2175.16 946.92C2175.16 946.92 2125.62 912.24 2123.69 913.75 2121.76 915.27 2172.63 949.41 2172.63 949.41L2175.16 946.92Z" fill="#9EB269"/></g></g></g><g><g><g><path d="M2179.83 964.81C2178.64 964.78 2177.46 964.76 2176.25 964.79 2175.49 962 2173.88 956.15 2171.94 948.93 2171.49 947.25 2171.01 945.5 2170.53 943.68 2164.85 922.39 2157.53 893.93 2159.06 894.1 2160.12 894.22 2164.24 907.82 2168.56 923.21 2168.86 924.25 2169.17 925.31 2169.45 926.37 2171.4 933.33 2173.35 940.5 2175.05 946.82 2175.07 946.87 2175.08 946.92 2175.1 946.97 2177.27 955.09 2179.04 961.78 2179.83 964.81Z" fill="#9EB269"/></g></g><g><g><g><path d="M2177.45 914.39C2176.73 915.51 2176.01 916.61 2175.31 917.66 2171.98 922.75 2169.19 926.77 2169.19 926.77L2167.41 925.16C2167.41 925.16 2170.54 919.81 2174.3 913.78 2175.01 912.62 2175.74 911.45 2176.49 910.28 2181.12 902.97 2185.92 895.96 2186.6 897.2 2187.32 898.52 2182.28 906.89 2177.45 914.39Z" fill="#9EB269"/></g></g></g></g><g><g><g><path d="M2207.02 949.42C2207.02 949.42 2244.83 928.93 2247.09 932.17 2249.35 935.41 2208.95 950.64 2208.95 950.64L2207.02 949.42Z" fill="#9EB269"/></g></g><g><g><path d="M2209.95 947.86C2209.68 948.79 2209.41 949.69 2209.14 950.58 2206.79 958.43 2204.65 965.23 2204.08 966.99 2202.92 966.92 2201.76 966.82 2200.57 966.72 2201.43 963.78 2205.77 949.03 2209.75 937 2210.12 935.86 2210.51 934.73 2210.86 933.64 2213.37 926.29 2215.55 920.66 2216.39 920.64 2217.75 920.6 2213.77 935.01 2209.95 947.86Z" fill="#9EB269"/></g></g><g><g><path d="M2233.09 936.79C2233.09 936.79 2233.76 918.63 2235.57 918.14 2237.37 917.65 2236.08 935.52 2236.08 935.52L2233.09 936.79Z" fill="#9EB269"/></g></g><g><g><path d="M2210.94 938.53C2210.94 938.53 2194.97 918.48 2195.86 916.74 2196.75 915 2211.99 935.15 2211.99 935.15L2210.94 938.53Z" fill="#9EB269"/></g></g></g></g><g><g><path d="M2275.6 1201.14C2275.6 1201.14 2285.56 1209.53 2312.67 1209.53 2340.05 1209.53 2349.74 1201.14 2349.74 1201.14L2349.74 1053.96C2349.74 1036.9 2335.8 1023.07 2318.61 1023.07L2308.65 1023.07C2290.4 1023.07 2275.6 1037.75 2275.6 1055.87L2275.6 1201.14Z" fill="#331832"/></g><g><g><rect x="2272.88" y="310.25" width="37.07" height="14.83" fill="#331832" transform="matrix(-1 -1.22465e-16 1.22465e-16 -1 4582.83 635.323)"/></g><g><path d="M2311.64 1201.14 2311.64 1201.14C2318.26 1201.14 2323.63 1195.77 2323.63 1189.15L2323.63 263C2323.63 256.38 2318.26 251.01 2311.64 251.01L2311.64 251.01C2305.02 251.01 2299.65 256.38 2299.65 263L2299.65 1189.15C2299.65 1195.77 2305.02 1201.14 2311.64 1201.14Z" fill="#331832"/></g><g><g><path d="M2167.22 611.69 2255.98 611.69C2266.5 611.69 2275.02 603.23 2275.02 592.79L2275.02 269.91C2275.02 259.47 2266.49 251.01 2255.98 251.01L2156.71 251.01C2145.95 251.01 2137.33 259.85 2137.68 270.52L2148.19 593.4C2148.52 603.59 2156.94 611.69 2167.22 611.69Z" fill="#331832"/></g><g><path d="M2148.52 611.69 2237.28 611.69C2247.8 611.69 2256.32 603.23 2256.32 592.79L2256.32 269.91C2256.32 259.47 2247.79 251.01 2237.28 251.01L2138.01 251.01C2127.25 251.01 2118.63 259.85 2118.98 270.52L2129.49 593.4C2129.81 603.59 2138.24 611.69 2148.52 611.69Z" fill="#366F90"/></g><g><g><ellipse cx="2190.34" cy="324.04" rx="40.7" ry="40.39" fill="#68A1BF"/></g><g><g><path d="M2198.25 323.5C2198.25 321.91 2196.96 320.61 2195.36 320.61 2193.77 320.61 2192.47 321.9 2192.47 323.5 2192.47 325.09 2193.76 326.39 2195.36 326.39 2196.96 326.38 2198.25 325.09 2198.25 323.5Z" fill="#88C2DA"/></g><g><path d="M2178.11 323.5C2178.11 325.09 2179.4 326.39 2181 326.39 2182.6 326.39 2183.89 325.1 2183.89 323.5 2183.89 321.91 2182.6 320.61 2181 320.61 2179.4 320.61 2178.11 321.9 2178.11 323.5Z" fill="#88C2DA"/></g><g><path d="M2168.56 323.5C2168.56 325.09 2169.85 326.39 2171.45 326.39 2173.04 326.39 2174.34 325.1 2174.34 323.5 2174.34 321.91 2173.05 320.61 2171.45 320.61 2169.85 320.61 2168.56 321.9 2168.56 323.5Z" fill="#88C2DA"/></g><g><path d="M2158.51 323.5C2158.51 325.09 2159.8 326.39 2161.4 326.39 2162.99 326.39 2164.29 325.1 2164.29 323.5 2164.29 321.91 2163 320.61 2161.4 320.61 2159.8 320.61 2158.51 321.9 2158.51 323.5Z" fill="#88C2DA"/></g><g><path d="M2212.16 323.5C2212.16 325.09 2213.45 326.39 2215.05 326.39 2216.64 326.39 2217.94 325.1 2217.94 323.5 2217.94 321.91 2216.65 320.61 2215.05 320.61 2213.45 320.61 2212.16 321.9 2212.16 323.5Z" fill="#88C2DA"/></g><g><path d="M2201.59 323.5C2201.59 325.09 2202.88 326.39 2204.48 326.39 2206.07 326.39 2207.37 325.1 2207.37 323.5 2207.37 321.91 2206.08 320.61 2204.48 320.61 2202.89 320.61 2201.59 321.9 2201.59 323.5Z" fill="#88C2DA"/></g><g><path d="M2197.59 335.04C2197.59 336.63 2198.88 337.93 2200.48 337.93 2202.07 337.93 2203.37 336.64 2203.37 335.04 2203.37 333.45 2202.08 332.15 2200.48 332.15 2198.88 332.16 2197.59 333.45 2197.59 335.04Z" fill="#88C2DA"/></g><g><path d="M2175.22 335.04C2175.22 336.63 2176.51 337.93 2178.11 337.93 2179.7 337.93 2181 336.64 2181 335.04 2181 333.45 2179.71 332.15 2178.11 332.15 2176.52 332.16 2175.22 333.45 2175.22 335.04Z" fill="#88C2DA"/></g><g><path d="M2167.53 342.74C2167.53 344.33 2168.82 345.63 2170.42 345.63 2172.01 345.63 2173.31 344.34 2173.31 342.74 2173.31 341.15 2172.02 339.85 2170.42 339.85 2168.82 339.85 2167.53 341.14 2167.53 342.74Z" fill="#88C2DA"/></g><g><path d="M2161.4 334.02C2161.4 335.61 2162.69 336.91 2164.29 336.91 2165.88 336.91 2167.18 335.62 2167.18 334.02 2167.18 332.43 2165.89 331.13 2164.29 331.13 2162.69 331.13 2161.4 332.42 2161.4 334.02Z" fill="#88C2DA"/></g><g><path d="M2174.2 311.95C2174.2 313.54 2175.49 314.84 2177.09 314.84 2178.68 314.84 2179.98 313.55 2179.98 311.95 2179.98 310.36 2178.69 309.06 2177.09 309.06 2175.49 309.06 2174.2 310.35 2174.2 311.95Z" fill="#88C2DA"/></g><g><path d="M2174.2 297.51C2174.2 299.1 2175.49 300.4 2177.09 300.4 2178.68 300.4 2179.98 299.11 2179.98 297.51 2179.98 295.92 2178.69 294.62 2177.09 294.62 2175.49 294.62 2174.2 295.92 2174.2 297.51Z" fill="#88C2DA"/></g><g><path d="M2160.69 311.95C2160.69 313.54 2161.98 314.84 2163.58 314.84 2165.17 314.84 2166.47 313.55 2166.47 311.95 2166.47 310.36 2165.18 309.06 2163.58 309.06 2161.98 309.06 2160.69 310.35 2160.69 311.95Z" fill="#88C2DA"/></g><g><path d="M2209.27 311.95C2209.27 313.54 2210.56 314.84 2212.16 314.84 2213.75 314.84 2215.05 313.55 2215.05 311.95 2215.05 310.36 2213.76 309.06 2212.16 309.06 2210.56 309.06 2209.27 310.35 2209.27 311.95Z" fill="#88C2DA"/></g><g><path d="M2209.27 335.04C2209.27 336.63 2210.56 337.93 2212.16 337.93 2213.75 337.93 2215.05 336.64 2215.05 335.04 2215.05 333.45 2213.76 332.15 2212.16 332.15 2210.56 332.16 2209.27 333.45 2209.27 335.04Z" fill="#88C2DA"/></g><g><path d="M2165.3 303.05C2165.3 304.64 2166.59 305.94 2168.19 305.94 2169.79 305.94 2171.08 304.65 2171.08 303.05 2171.08 301.46 2169.79 300.16 2168.19 300.16 2166.59 300.16 2165.3 301.45 2165.3 303.05Z" fill="#88C2DA"/></g><g><path d="M2196.62 311.95C2196.62 313.54 2197.91 314.84 2199.51 314.84 2201.1 314.84 2202.4 313.55 2202.4 311.95 2202.4 310.36 2201.11 309.06 2199.51 309.06 2197.91 309.06 2196.62 310.35 2196.62 311.95Z" fill="#88C2DA"/></g><g><path d="M2204.48 304.11C2204.48 305.7 2205.77 307 2207.37 307 2208.96 307 2210.26 305.71 2210.26 304.11 2210.26 302.52 2208.97 301.22 2207.37 301.22 2205.77 301.22 2204.48 302.51 2204.48 304.11Z" fill="#88C2DA"/></g><g><path d="M2204.48 343.82C2204.48 345.41 2205.77 346.71 2207.37 346.71 2208.96 346.71 2210.26 345.42 2210.26 343.82 2210.26 342.23 2208.97 340.93 2207.37 340.93 2205.77 340.94 2204.48 342.23 2204.48 343.82Z" fill="#88C2DA"/></g><g><path d="M2185.14 316.72C2185.14 318.31 2186.43 319.61 2188.03 319.61 2189.62 319.61 2190.92 318.32 2190.92 316.72 2190.92 315.13 2189.63 313.83 2188.03 313.83 2186.43 313.83 2185.14 315.13 2185.14 316.72Z" fill="#88C2DA"/></g><g><path d="M2185.14 307.6C2185.14 309.19 2186.43 310.49 2188.03 310.49 2189.62 310.49 2190.92 309.2 2190.92 307.6 2190.92 306.01 2189.63 304.71 2188.03 304.71 2186.43 304.71 2185.14 306 2185.14 307.6Z" fill="#88C2DA"/></g><g><path d="M2185.14 296.53C2185.14 298.12 2186.43 299.42 2188.03 299.42 2189.62 299.42 2190.92 298.13 2190.92 296.53 2190.92 294.94 2189.63 293.64 2188.03 293.64 2186.43 293.64 2185.14 294.94 2185.14 296.53Z" fill="#88C2DA"/></g><g><path d="M2195.69 297.99C2195.69 299.58 2196.98 300.88 2198.58 300.88 2200.17 300.88 2201.47 299.59 2201.47 297.99 2201.47 296.4 2200.18 295.1 2198.58 295.1 2196.99 295.1 2195.69 296.4 2195.69 297.99Z" fill="#88C2DA"/></g><g><path d="M2195.82 349.6C2195.82 351.19 2197.11 352.49 2198.71 352.49 2200.3 352.49 2201.6 351.2 2201.6 349.6 2201.6 348.01 2200.31 346.71 2198.71 346.71 2197.11 346.71 2195.82 348 2195.82 349.6Z" fill="#88C2DA"/></g><g><path d="M2175.28 349.6C2175.28 351.19 2176.57 352.49 2178.17 352.49 2179.76 352.49 2181.06 351.2 2181.06 349.6 2181.06 348.01 2179.77 346.71 2178.17 346.71 2176.57 346.71 2175.28 348 2175.28 349.6Z" fill="#88C2DA"/></g><g><path d="M2185.27 351.56C2185.27 353.15 2186.56 354.45 2188.16 354.45 2189.75 354.45 2191.05 353.16 2191.05 351.56 2191.05 349.97 2189.76 348.67 2188.16 348.67 2186.56 348.67 2185.27 349.96 2185.27 351.56Z" fill="#88C2DA"/></g><g><path d="M2185.27 341.74C2185.27 343.33 2186.56 344.63 2188.16 344.63 2189.75 344.63 2191.05 343.34 2191.05 341.74 2191.05 340.15 2189.76 338.85 2188.16 338.85 2186.56 338.85 2185.27 340.14 2185.27 341.74Z" fill="#88C2DA"/></g><g><path d="M2185.27 331.13C2185.27 332.72 2186.56 334.02 2188.16 334.02 2189.75 334.02 2191.05 332.73 2191.05 331.13 2191.05 329.54 2189.76 328.24 2188.16 328.24 2186.56 328.24 2185.27 329.54 2185.27 331.13Z" fill="#88C2DA"/></g></g><g><ellipse cx="2190.24" cy="428.77" rx="40.7" ry="40.39" fill="#68A1BF"/></g><g><g><path d="M2198.25 428.22C2198.25 426.63 2196.96 425.33 2195.36 425.33 2193.77 425.33 2192.47 426.62 2192.47 428.22 2192.47 429.81 2193.76 431.11 2195.36 431.11 2196.96 431.11 2198.25 429.82 2198.25 428.22Z" fill="#88C2DA"/></g><g><path d="M2178.11 428.22C2178.11 429.81 2179.4 431.11 2181 431.11 2182.6 431.11 2183.89 429.82 2183.89 428.22 2183.89 426.63 2182.6 425.33 2181 425.33 2179.4 425.33 2178.11 426.63 2178.11 428.22Z" fill="#88C2DA"/></g><g><path d="M2168.56 428.22C2168.56 429.81 2169.85 431.11 2171.45 431.11 2173.04 431.11 2174.34 429.82 2174.34 428.22 2174.34 426.63 2173.05 425.33 2171.45 425.33 2169.85 425.34 2168.56 426.63 2168.56 428.22Z" fill="#88C2DA"/></g><g><path d="M2158.51 428.22C2158.51 429.81 2159.8 431.11 2161.4 431.11 2162.99 431.11 2164.29 429.82 2164.29 428.22 2164.29 426.63 2163 425.33 2161.4 425.33 2159.8 425.34 2158.51 426.63 2158.51 428.22Z" fill="#88C2DA"/></g><g><path d="M2212.16 428.22C2212.16 429.81 2213.45 431.11 2215.05 431.11 2216.64 431.11 2217.94 429.82 2217.94 428.22 2217.94 426.63 2216.65 425.33 2215.05 425.33 2213.45 425.34 2212.16 426.63 2212.16 428.22Z" fill="#88C2DA"/></g><g><path d="M2201.59 428.22C2201.59 429.81 2202.88 431.11 2204.48 431.11 2206.07 431.11 2207.37 429.82 2207.37 428.22 2207.37 426.63 2206.08 425.33 2204.48 425.33 2202.89 425.34 2201.59 426.63 2201.59 428.22Z" fill="#88C2DA"/></g><g><path d="M2197.59 439.77C2197.59 441.36 2198.88 442.66 2200.48 442.66 2202.07 442.66 2203.37 441.37 2203.37 439.77 2203.37 438.18 2202.08 436.88 2200.48 436.88 2198.88 436.88 2197.59 438.18 2197.59 439.77Z" fill="#88C2DA"/></g><g><path d="M2175.22 439.77C2175.22 441.36 2176.51 442.66 2178.11 442.66 2179.7 442.66 2181 441.37 2181 439.77 2181 438.18 2179.71 436.88 2178.11 436.88 2176.52 436.88 2175.22 438.18 2175.22 439.77Z" fill="#88C2DA"/></g><g><path d="M2167.53 447.47C2167.53 449.06 2168.82 450.36 2170.42 450.36 2172.01 450.36 2173.31 449.07 2173.31 447.47 2173.31 445.88 2172.02 444.58 2170.42 444.58 2168.82 444.58 2167.53 445.87 2167.53 447.47Z" fill="#88C2DA"/></g><g><path d="M2161.4 438.75C2161.4 440.34 2162.69 441.64 2164.29 441.64 2165.88 441.64 2167.18 440.35 2167.18 438.75 2167.18 437.16 2165.89 435.86 2164.29 435.86 2162.69 435.86 2161.4 437.15 2161.4 438.75Z" fill="#88C2DA"/></g><g><path d="M2174.2 416.67C2174.2 418.26 2175.49 419.56 2177.09 419.56 2178.68 419.56 2179.98 418.27 2179.98 416.67 2179.98 415.08 2178.69 413.78 2177.09 413.78 2175.49 413.79 2174.2 415.08 2174.2 416.67Z" fill="#88C2DA"/></g><g><path d="M2174.2 402.24C2174.2 403.83 2175.49 405.13 2177.09 405.13 2178.68 405.13 2179.98 403.84 2179.98 402.24 2179.98 400.65 2178.69 399.35 2177.09 399.35 2175.49 399.35 2174.2 400.64 2174.2 402.24Z" fill="#88C2DA"/></g><g><path d="M2160.69 416.67C2160.69 418.26 2161.98 419.56 2163.58 419.56 2165.17 419.56 2166.47 418.27 2166.47 416.67 2166.47 415.08 2165.18 413.78 2163.58 413.78 2161.98 413.79 2160.69 415.08 2160.69 416.67Z" fill="#88C2DA"/></g><g><path d="M2209.27 416.67C2209.27 418.26 2210.56 419.56 2212.16 419.56 2213.75 419.56 2215.05 418.27 2215.05 416.67 2215.05 415.08 2213.76 413.78 2212.16 413.78 2210.56 413.79 2209.27 415.08 2209.27 416.67Z" fill="#88C2DA"/></g><g><path d="M2209.27 439.77C2209.27 441.36 2210.56 442.66 2212.16 442.66 2213.75 442.66 2215.05 441.37 2215.05 439.77 2215.05 438.18 2213.76 436.88 2212.16 436.88 2210.56 436.88 2209.27 438.18 2209.27 439.77Z" fill="#88C2DA"/></g><g><path d="M2165.3 407.78C2165.3 409.37 2166.59 410.67 2168.19 410.67 2169.79 410.67 2171.08 409.38 2171.08 407.78 2171.08 406.19 2169.79 404.89 2168.19 404.89 2166.59 404.89 2165.3 406.18 2165.3 407.78Z" fill="#88C2DA"/></g><g><path d="M2196.62 416.67C2196.62 418.26 2197.91 419.56 2199.51 419.56 2201.1 419.56 2202.4 418.27 2202.4 416.67 2202.4 415.08 2201.11 413.78 2199.51 413.78 2197.91 413.79 2196.62 415.08 2196.62 416.67Z" fill="#88C2DA"/></g><g><path d="M2204.48 408.83C2204.48 410.42 2205.77 411.72 2207.37 411.72 2208.96 411.72 2210.26 410.43 2210.26 408.83 2210.26 407.24 2208.97 405.94 2207.37 405.94 2205.77 405.95 2204.48 407.24 2204.48 408.83Z" fill="#88C2DA"/></g><g><path d="M2204.48 448.55C2204.48 450.14 2205.77 451.44 2207.37 451.44 2208.96 451.44 2210.26 450.15 2210.26 448.55 2210.26 446.96 2208.97 445.66 2207.37 445.66 2205.77 445.67 2204.48 446.96 2204.48 448.55Z" fill="#88C2DA"/></g><g><path d="M2185.14 421.45C2185.14 423.04 2186.43 424.34 2188.03 424.34 2189.62 424.34 2190.92 423.05 2190.92 421.45 2190.92 419.86 2189.63 418.56 2188.03 418.56 2186.43 418.56 2185.14 419.85 2185.14 421.45Z" fill="#88C2DA"/></g><g><path d="M2185.14 412.32C2185.14 413.91 2186.43 415.21 2188.03 415.21 2189.62 415.21 2190.92 413.92 2190.92 412.32 2190.92 410.73 2189.63 409.43 2188.03 409.43 2186.43 409.44 2185.14 410.73 2185.14 412.32Z" fill="#88C2DA"/></g><g><path d="M2185.14 401.26C2185.14 402.85 2186.43 404.15 2188.03 404.15 2189.62 404.15 2190.92 402.86 2190.92 401.26 2190.92 399.67 2189.63 398.37 2188.03 398.37 2186.43 398.37 2185.14 399.66 2185.14 401.26Z" fill="#88C2DA"/></g><g><path d="M2195.69 402.72C2195.69 404.31 2196.98 405.61 2198.58 405.61 2200.17 405.61 2201.47 404.32 2201.47 402.72 2201.47 401.13 2200.18 399.83 2198.58 399.83 2196.99 399.83 2195.69 401.12 2195.69 402.72Z" fill="#88C2DA"/></g><g><path d="M2195.82 454.33C2195.82 455.92 2197.11 457.22 2198.71 457.22 2200.3 457.22 2201.6 455.93 2201.6 454.33 2201.6 452.74 2200.31 451.44 2198.71 451.44 2197.11 451.44 2195.82 452.73 2195.82 454.33Z" fill="#88C2DA"/></g><g><path d="M2175.28 454.33C2175.28 455.92 2176.57 457.22 2178.17 457.22 2179.76 457.22 2181.06 455.93 2181.06 454.33 2181.06 452.74 2179.77 451.44 2178.17 451.44 2176.57 451.44 2175.28 452.73 2175.28 454.33Z" fill="#88C2DA"/></g><g><path d="M2185.27 456.29C2185.27 457.88 2186.56 459.18 2188.16 459.18 2189.75 459.18 2191.05 457.89 2191.05 456.29 2191.05 454.7 2189.76 453.4 2188.16 453.4 2186.56 453.4 2185.27 454.69 2185.27 456.29Z" fill="#88C2DA"/></g><g><path d="M2185.27 446.46C2185.27 448.05 2186.56 449.35 2188.16 449.35 2189.75 449.35 2191.05 448.06 2191.05 446.46 2191.05 444.87 2189.76 443.57 2188.16 443.57 2186.56 443.58 2185.27 444.87 2185.27 446.46Z" fill="#88C2DA"/></g><g><path d="M2185.27 435.86C2185.27 437.45 2186.56 438.75 2188.16 438.75 2189.75 438.75 2191.05 437.46 2191.05 435.86 2191.05 434.27 2189.76 432.97 2188.16 432.97 2186.56 432.97 2185.27 434.26 2185.27 435.86Z" fill="#88C2DA"/></g></g><g><ellipse cx="2190.24" cy="533.5" rx="40.7" ry="40.39" fill="#CCD39C"/></g><g><g><path d="M2198.05 532.95C2198.05 531.36 2196.76 530.06 2195.16 530.06 2193.57 530.06 2192.27 531.35 2192.27 532.95 2192.27 534.54 2193.56 535.84 2195.16 535.84 2196.76 535.84 2198.05 534.54 2198.05 532.95Z" fill="#DEE2AC"/></g><g><path d="M2177.92 532.95C2177.92 534.54 2179.21 535.84 2180.81 535.84 2182.4 535.84 2183.7 534.55 2183.7 532.95 2183.7 531.36 2182.41 530.06 2180.81 530.06 2179.21 530.06 2177.92 531.36 2177.92 532.95Z" fill="#DEE2AC"/></g><g><path d="M2168.36 532.95C2168.36 534.54 2169.65 535.84 2171.25 535.84 2172.84 535.84 2174.14 534.55 2174.14 532.95 2174.14 531.36 2172.85 530.06 2171.25 530.06 2169.65 530.06 2168.36 531.36 2168.36 532.95Z" fill="#DEE2AC"/></g><g><path d="M2158.32 532.95C2158.32 534.54 2159.61 535.84 2161.21 535.84 2162.8 535.84 2164.1 534.55 2164.1 532.95 2164.1 531.36 2162.81 530.06 2161.21 530.06 2159.61 530.06 2158.32 531.36 2158.32 532.95Z" fill="#DEE2AC"/></g><g><path d="M2211.97 532.95C2211.97 534.54 2213.26 535.84 2214.86 535.84 2216.45 535.84 2217.75 534.55 2217.75 532.95 2217.75 531.36 2216.46 530.06 2214.86 530.06 2213.26 530.06 2211.97 531.36 2211.97 532.95Z" fill="#DEE2AC"/></g><g><path d="M2201.4 532.95C2201.4 534.54 2202.69 535.84 2204.29 535.84 2205.88 535.84 2207.18 534.55 2207.18 532.95 2207.18 531.36 2205.89 530.06 2204.29 530.06 2202.69 530.06 2201.4 531.36 2201.4 532.95Z" fill="#DEE2AC"/></g><g><path d="M2197.4 544.5C2197.4 546.09 2198.69 547.39 2200.29 547.39 2201.88 547.39 2203.18 546.1 2203.18 544.5 2203.18 542.91 2201.89 541.61 2200.29 541.61 2198.69 541.61 2197.4 542.9 2197.4 544.5Z" fill="#DEE2AC"/></g><g><path d="M2175.03 544.5C2175.03 546.09 2176.32 547.39 2177.92 547.39 2179.51 547.39 2180.81 546.1 2180.81 544.5 2180.81 542.91 2179.52 541.61 2177.92 541.61 2176.32 541.61 2175.03 542.9 2175.03 544.5Z" fill="#DEE2AC"/></g><g><path d="M2167.34 552.19C2167.34 553.78 2168.63 555.08 2170.23 555.08 2171.83 555.08 2173.12 553.79 2173.12 552.19 2173.12 550.6 2171.83 549.3 2170.23 549.3 2168.63 549.3 2167.34 550.6 2167.34 552.19Z" fill="#DEE2AC"/></g><g><path d="M2161.2 543.47C2161.2 545.06 2162.49 546.36 2164.09 546.36 2165.68 546.36 2166.98 545.07 2166.98 543.47 2166.98 541.88 2165.69 540.58 2164.09 540.58 2162.49 540.59 2161.2 541.88 2161.2 543.47Z" fill="#DEE2AC"/></g><g><path d="M2174.01 521.4C2174.01 522.99 2175.3 524.29 2176.9 524.29 2178.5 524.29 2179.79 523 2179.79 521.4 2179.79 519.81 2178.5 518.51 2176.9 518.51 2175.3 518.51 2174.01 519.81 2174.01 521.4Z" fill="#DEE2AC"/></g><g><path d="M2174.01 506.97C2174.01 508.56 2175.3 509.86 2176.9 509.86 2178.5 509.86 2179.79 508.57 2179.79 506.97 2179.79 505.38 2178.5 504.08 2176.9 504.08 2175.3 504.08 2174.01 505.37 2174.01 506.97Z" fill="#DEE2AC"/></g><g><path d="M2160.5 521.4C2160.5 522.99 2161.79 524.29 2163.39 524.29 2164.98 524.29 2166.28 523 2166.28 521.4 2166.28 519.81 2164.99 518.51 2163.39 518.51 2161.79 518.51 2160.5 519.81 2160.5 521.4Z" fill="#DEE2AC"/></g><g><path d="M2209.08 521.4C2209.08 522.99 2210.37 524.29 2211.97 524.29 2213.56 524.29 2214.86 523 2214.86 521.4 2214.86 519.81 2213.57 518.51 2211.97 518.51 2210.37 518.51 2209.08 519.81 2209.08 521.4Z" fill="#DEE2AC"/></g><g><path d="M2209.08 544.5C2209.08 546.09 2210.37 547.39 2211.97 547.39 2213.56 547.39 2214.86 546.1 2214.86 544.5 2214.86 542.91 2213.57 541.61 2211.97 541.61 2210.37 541.61 2209.08 542.9 2209.08 544.5Z" fill="#DEE2AC"/></g><g><path d="M2165.11 512.5C2165.11 514.09 2166.4 515.39 2168 515.39 2169.59 515.39 2170.89 514.1 2170.89 512.5 2170.89 510.91 2169.6 509.61 2168 509.61 2166.4 509.62 2165.11 510.91 2165.11 512.5Z" fill="#DEE2AC"/></g><g><path d="M2196.43 521.4C2196.43 522.99 2197.72 524.29 2199.32 524.29 2200.91 524.29 2202.21 523 2202.21 521.4 2202.21 519.81 2200.92 518.51 2199.32 518.51 2197.72 518.51 2196.43 519.81 2196.43 521.4Z" fill="#DEE2AC"/></g><g><path d="M2204.29 513.56C2204.29 515.15 2205.58 516.45 2207.18 516.45 2208.77 516.45 2210.07 515.16 2210.07 513.56 2210.07 511.97 2208.78 510.67 2207.18 510.67 2205.58 510.67 2204.29 511.97 2204.29 513.56Z" fill="#DEE2AC"/></g><g><path d="M2204.29 553.28C2204.29 554.87 2205.58 556.17 2207.18 556.17 2208.77 556.17 2210.07 554.88 2210.07 553.28 2210.07 551.69 2208.78 550.39 2207.18 550.39 2205.58 550.39 2204.29 551.69 2204.29 553.28Z" fill="#DEE2AC"/></g><g><path d="M2184.95 526.18C2184.95 527.77 2186.24 529.07 2187.84 529.07 2189.43 529.07 2190.73 527.78 2190.73 526.18 2190.73 524.59 2189.44 523.29 2187.84 523.29 2186.24 523.29 2184.95 524.58 2184.95 526.18Z" fill="#DEE2AC"/></g><g><path d="M2184.95 517.05C2184.95 518.64 2186.24 519.94 2187.84 519.94 2189.43 519.94 2190.73 518.65 2190.73 517.05 2190.73 515.46 2189.44 514.16 2187.84 514.16 2186.24 514.16 2184.95 515.46 2184.95 517.05Z" fill="#DEE2AC"/></g><g><path d="M2184.95 505.99C2184.95 507.58 2186.24 508.88 2187.84 508.88 2189.43 508.88 2190.73 507.59 2190.73 505.99 2190.73 504.4 2189.44 503.1 2187.84 503.1 2186.24 503.1 2184.95 504.39 2184.95 505.99Z" fill="#DEE2AC"/></g><g><path d="M2195.5 507.44C2195.5 509.03 2196.79 510.33 2198.39 510.33 2199.98 510.33 2201.28 509.04 2201.28 507.44 2201.28 505.85 2199.99 504.55 2198.39 504.55 2196.79 504.56 2195.5 505.85 2195.5 507.44Z" fill="#DEE2AC"/></g><g><path d="M2195.63 559.05C2195.63 560.64 2196.92 561.94 2198.52 561.94 2200.11 561.94 2201.41 560.65 2201.41 559.05 2201.41 557.46 2200.12 556.16 2198.52 556.16 2196.92 556.17 2195.63 557.46 2195.63 559.05Z" fill="#DEE2AC"/></g><g><path d="M2175.08 559.05C2175.08 560.64 2176.37 561.94 2177.97 561.94 2179.56 561.94 2180.86 560.65 2180.86 559.05 2180.86 557.46 2179.57 556.16 2177.97 556.16 2176.37 556.17 2175.08 557.46 2175.08 559.05Z" fill="#DEE2AC"/></g><g><path d="M2185.08 561.01C2185.08 562.6 2186.37 563.9 2187.97 563.9 2189.56 563.9 2190.86 562.61 2190.86 561.01 2190.86 559.42 2189.57 558.12 2187.97 558.12 2186.37 558.13 2185.08 559.42 2185.08 561.01Z" fill="#DEE2AC"/></g><g><path d="M2185.08 551.19C2185.08 552.78 2186.37 554.08 2187.97 554.08 2189.56 554.08 2190.86 552.79 2190.86 551.19 2190.86 549.6 2189.57 548.3 2187.97 548.3 2186.37 548.3 2185.08 549.6 2185.08 551.19Z" fill="#DEE2AC"/></g><g><path d="M2185.08 540.59C2185.08 542.18 2186.37 543.48 2187.97 543.48 2189.56 543.48 2190.86 542.19 2190.86 540.59 2190.86 539 2189.57 537.7 2187.97 537.7 2186.37 537.7 2185.08 538.99 2185.08 540.59Z" fill="#DEE2AC"/></g></g><g><g><g><path d="M2230.98 316.54C2216.52 308.97 2184.49 296.45 2138.35 302.15 2133.94 302.69 2130.57 298.9 2132.31 295.38 2138.48 282.94 2154.03 260.81 2186.18 262.21 2241.3 264.61 2245.44 297.28 2242.75 311.9 2241.88 316.62 2235.73 319.03 2230.98 316.54Z" fill="#331832"/></g></g><g><path d="M2146.26 285.03C2146.26 285.03 2159.51 268.98 2170.03 269.56 2180.55 270.14 2156.2 292.37 2150.74 291.79 2145.29 291.22 2143.87 287.69 2146.26 285.03Z" fill="#6E3870"/></g></g><g><g><g><path d="M2230.98 430.85C2216.52 423.28 2184.49 410.76 2138.35 416.46 2133.94 417 2130.57 413.21 2132.31 409.69 2138.48 397.25 2154.03 375.12 2186.18 376.52 2241.3 378.92 2245.44 411.59 2242.75 426.21 2241.88 430.92 2235.73 433.33 2230.98 430.85Z" fill="#331832"/></g></g><g><path d="M2146.26 399.34C2146.26 399.34 2159.51 383.29 2170.03 383.87 2180.55 384.45 2156.2 406.68 2150.74 406.1 2145.29 405.52 2143.87 402 2146.26 399.34Z" fill="#6E3870"/></g></g><g><g><g><path d="M2230.98 535.57C2216.52 528 2184.49 515.48 2138.35 521.18 2133.94 521.72 2130.57 517.93 2132.31 514.41 2138.48 501.97 2154.03 479.84 2186.18 481.24 2241.3 483.64 2245.44 516.31 2242.75 530.93 2241.88 535.65 2235.73 538.06 2230.98 535.57Z" fill="#331832"/></g></g><g><path d="M2146.26 504.06C2146.26 504.06 2159.51 488.01 2170.03 488.59 2180.55 489.17 2156.2 511.4 2150.74 510.82 2145.29 510.25 2143.87 506.72 2146.26 504.06Z" fill="#6E3870"/></g></g></g></g><g><path d="M2312.02 1027.32C2308.4 1027.32 2304.11 1026.35 2299.42 1023.47L2299.92 1022.65C2313.38 1030.94 2322.94 1023.05 2323.34 1022.7L2323.95 1023.41C2323.87 1023.49 2319.25 1027.32 2312.02 1027.32Z" fill="#331832"/></g><g><path d="M2312.78 1080.97C2301.64 1080.97 2288.73 1078.66 2275.06 1071.69L2276.13 1069.57C2315.83 1089.78 2348.78 1069.82 2349.11 1069.62L2350.35 1071.63C2350.13 1071.78 2334.96 1080.97 2312.78 1080.97Z" fill="#764678"/></g><g><path d="M2312.78 1182.6C2301.64 1182.6 2288.73 1180.29 2275.06 1173.32L2276.13 1171.2C2315.83 1191.41 2348.78 1171.45 2349.11 1171.25L2350.35 1173.26C2350.13 1173.41 2334.96 1182.6 2312.78 1182.6Z" fill="#764678"/></g></g></g><g><path d="M482.97 1279.36C565.48 1324.03 565.48 1396.46 482.97 1441.13 400.46 1485.8 266.67 1485.8 184.16 1441.13 101.65 1396.46 101.65 1324.03 184.16 1279.36 266.68 1234.69 400.46 1234.69 482.97 1279.36Z" fill="#A79891"/><g><g><path d="M178.27 617.01C178.27 617.01 158 631.8 149.67 672.74 141.34 713.68 122.88 842.19 172.22 861.57 221.56 880.95 318.72 823.04 318.72 823.04L178.27 617.01Z" fill="#0A4C5C"/><path d="M171.41 644.8C165.67 641.53 163.89 634.53 167.64 629.31 172.45 622.62 181.06 612.95 195.92 602.18 223.78 581.98 265.15 565.72 284.68 579.77 304.21 593.83 287.55 630.46 244.47 650.39 214.04 664.46 185.53 652.84 171.41 644.8Z" fill="#1F9096"/></g><g><g><path d="M204.48 1090.39C204.48 1090.39 193.27 1092.41 183.36 1118.67 173.45 1144.93 152.99 1179.45 152.99 1179.45 152.99 1179.45 147.17 1201.09 159.66 1211.39 172.16 1221.69 186.37 1200.68 194.35 1190.38 202.32 1180.08 242.39 1134.83 255.32 1120.28 268.25 1105.73 252.3 1088.36 236.79 1088.16 221.27 1087.96 204.48 1090.39 204.48 1090.39Z" fill="#F9B194"/><path d="M157.37 1171.82C157.37 1171.82 149.75 1175.44 135.09 1189.38 120.44 1203.32 120.22 1206.23 125.18 1214.17 130.13 1222.11 159.44 1240.68 166.33 1251.4 173.22 1262.12 196.06 1287.76 207.91 1292.01 219.76 1296.25 238 1289.4 226.8 1258.89 215.6 1228.39 205.84 1235.37 196.52 1187.67 196.52 1187.67 186.63 1201.9 168.27 1193.01 154.15 1186.17 157.37 1171.82 157.37 1171.82Z" fill="#4B2828"/><path d="M391.07 896.92C391.07 896.92 372.01 965.34 340.98 1007.36 309.96 1049.38 263.05 1121.57 263.05 1121.57 263.05 1121.57 243.31 1137.73 212.72 1115.23 195.52 1102.58 195.41 1091.75 195.41 1091.75L250.99 1021.71C250.99 1021.71 234.11 969.39 226.65 948.38 219.18 927.37 263.99 873.23 321.16 877 378.33 880.76 391.07 896.92 391.07 896.92Z" fill="#0A4C5C"/></g><g><path d="M305.51 1236.24C305.51 1236.24 305.94 1261.69 309.82 1279.67 313.7 1297.65 318.87 1332.64 318.87 1368.02 318.87 1368.02 318.05 1391.01 333.31 1396.64 348.56 1402.27 361.82 1394.96 362.54 1374.49 363.26 1354.02 371.83 1226.55 371.83 1226.55 371.83 1226.55 363.86 1194.43 338.67 1194.83 313.48 1195.23 306.92 1221.44 305.51 1236.24Z" fill="#F9B194"/><path d="M190.05 916.33C190.05 916.33 189.61 945.14 193.48 980.69 197.36 1016.25 300.77 1185.13 300.77 1185.13L297.68 1239.06C297.49 1242.37 298.6 1245.63 300.92 1248.13 306.04 1253.64 317.58 1261.45 340.41 1258.06 374.45 1253.01 377.25 1237.86 377.25 1237.86 377.25 1237.86 379.56 1198.56 378.08 1184.37 376.6 1170.18 324.9 983.92 324.9 983.92 324.9 983.92 384.85 930.71 391.07 896.91 397.29 863.11 276.64 827.62 238.72 858.7 200.81 889.79 190.05 916.33 190.05 916.33Z" fill="#1F9096"/><path d="M362.53 1374.49C362.53 1374.49 376.32 1392.54 403.32 1408.97 430.32 1425.4 435.82 1438.25 427.76 1445.16 419.7 1452.07 387 1450.9 365.12 1439.95 343.24 1429 317.25 1421.11 313.41 1404.93 309.57 1388.75 318.87 1368.03 318.87 1368.03 318.87 1368.03 323.64 1384.43 339.84 1384.97 357.07 1385.53 362.53 1374.49 362.53 1374.49Z" fill="#4B2828"/></g><g><path d="M422.5 685.95C422.5 685.95 437.58 718.09 447.71 740.91 457.84 763.73 508.46 885.75 508.46 885.75 508.46 885.75 528.4 895.31 537.9 910.26 547.4 925.21 553.41 928.17 554.27 934.1 555.13 940.02 549.91 938.08 549.91 938.08 549.91 938.08 558.19 952.42 560.66 960.46 563.13 968.5 563.05 976.41 559.16 976.11 559.16 976.11 558.27 983.49 552.1 981.89 552.1 981.89 545.37 988.66 542.29 982.5 542.29 982.5 534.1 987.44 532.8 980.52 531.5 973.6 526.88 961.66 526.88 961.66 526.88 961.66 511.79 949.57 506.04 940.97 500.28 932.38 496.47 922.56 495.25 913.59 494.03 904.62 492.42 894.8 492.42 894.8 492.42 894.8 430.47 808.84 418.84 791.07 407.21 773.29 384.57 741.1 380.45 717.87 376.32 694.64 409.93 667.97 422.5 685.95Z" fill="#F59473"/><path d="M349.61 675.52 380.06 721.17C380.06 721.17 395.36 721.11 412.81 708.38 430.26 695.65 430.69 683.3 430.69 683.3 430.69 683.3 400.1 627.78 392.34 612.63 384.58 597.48 367.49 582.32 335.21 588.28 302.93 594.24 342.47 664.82 349.61 675.52Z" fill="#EDEDED"/></g><path d="M199.08 732.62 203.68 819.89 180.13 920.18C180.13 920.18 185.3 942.71 226.66 948.37 268.02 954.03 330.93 953.62 357.65 934.63 384.37 915.64 399.01 882.11 399.01 882.11L385.22 833.09C385.22 833.09 386.07 744.1 386.87 703.71 387.67 663.32 382.2 600.91 348.6 589.6 314.99 578.29 224.08 636.47 205.12 658.69 186.16 680.9 199.08 732.62 199.08 732.62Z" fill="#EDEDED"/><path d="M299.11 601.52C299.11 601.52 310.75 593.19 319.84 591.42 328.93 589.65 359.51 601.18 365.97 637.08 372.43 672.97 378.78 732.42 386.5 763.65L385.45 784.94C385.45 784.94 370.93 767.45 364.89 746.3 358.86 725.15 355.31 668.81 349.23 645.29 342.27 618.36 324.67 600.31 299.11 601.52Z" fill="#1F9096"/><g><path d="M247.46 625.67 266.09 572.62C266.09 572.62 327.92 593.75 334.81 609.35 334.81 609.35 332.33 622.94 327.27 636.46 323.02 647.82 297.51 669 247.46 625.67Z" fill="#F59473"/><path d="M250.36 583.13C250.36 583.13 283.75 613.68 302.28 625.68 320.81 637.68 341.49 645.56 350.54 635.25 359.59 624.95 373.38 596.67 380.06 576.06 386.74 555.45 389.81 533.85 372.95 502.32 356.09 470.79 309.39 441.02 279.66 450.25 249.93 459.49 231.54 479.42 229.53 511.74 227.57 543.32 230.32 557.27 250.36 583.13Z" fill="#F9B194"/><path d="M250.68 616.49C250.68 616.49 256.53 593.63 241.11 576.68 215.5 548.54 215.17 516.59 220.34 499.62 225.51 482.65 229.25 459.49 253.37 450.87 277.5 442.25 293.3 438.21 309.1 443.87 324.9 449.53 331.22 449.26 343.86 457.88 356.5 466.5 357.75 465.52 366.89 476.65 376.03 487.78 394.99 502.32 395.56 516.06 396.14 529.8 367.48 552.38 314.91 548.77 284.4 546.68 295.52 577.74 295.52 577.74 295.52 577.74 274.75 585.51 262.27 599.83 249.8 614.14 250.68 616.49 250.68 616.49Z" fill="#291616"/><path d="M274.26 604.06C279.12 600.1 282.13 585.65 271.68 570.2 262.28 556.3 249.54 567.97 255.52 584.34 261.51 600.71 269.45 607.98 274.26 604.06Z" fill="#F9B194"/></g><g><path d="M185.87 771C185.87 771 163.46 809.92 134.74 826.89 134.74 826.89 132.73 884.53 134.74 908.77 136.75 933.01 142.78 951.54 142.78 951.54 142.78 951.54 165.76 965.6 175.24 978.53 184.72 991.46 187.88 1005.73 183.57 1011.12 179.26 1016.51 163.75 992.26 163.75 992.26L165.04 1024.31C165.04 1024.31 174.95 1038.45 177.54 1043.3 180.13 1048.15 176.39 1054.34 168.49 1051.51 168.49 1051.51 164.9 1059.8 156.28 1052.22 156.28 1052.22 151.4 1059.05 144.22 1050.43 144.22 1050.43 139.77 1058.11 133.02 1047.2 126.27 1036.29 116.79 1016.49 114.64 1001.41 112.48 986.33 116.36 957.78 116.36 957.78 116.36 957.78 91.08 846.22 89.36 828.6 87.64 810.98 112.92 763.84 131.59 746.07 150.25 728.31 205.56 743.34 185.87 771Z" fill="#F9B194"/><path d="M121.53 746.63C121.53 746.63 168.07 683.33 183.15 666.36 198.23 649.39 227.41 646.24 239.6 676.46 251.78 706.69 229.85 727.08 216.41 746.01 202.97 764.94 187.89 784.77 187.89 784.77 187.89 784.77 172.58 796.53 148.82 779.49 117.79 757.24 121.53 746.63 121.53 746.63Z" fill="#EDEDED"/></g></g><path d="M225.7 640.55C225.7 640.55 234.06 629.85 243.19 628.13 243.19 628.13 269.85 640.72 280.47 664.95 287.58 681.18 293.6 717.89 268.7 775.58 259.12 797.77 223.29 823.39 201.96 827.23 201.96 827.23 201.76 819.37 201.65 813.15 201.54 806.44 202.78 802.8 202.78 802.8 202.78 802.8 226.61 801.83 247.02 768.78 260.8 746.47 270.33 697.82 263.52 676.52 253.99 646.75 225.7 640.55 225.7 640.55Z" fill="#1F9096"/></g></g></g></svg>