<svg width="288.67" height="257.94" viewBox="0 0 288.67 257.94" xmlns="http://www.w3.org/2000/svg" xmlns:xlink="http://www.w3.org/1999/xlink" xml:space="preserve" overflow="hidden"><defs></defs><g><g><rect x="50.93" y="127.79" width="43.75" height="130.15" fill="#E97F56"/><rect x="59.43" y="127.79" width="26.74" height="130.15" fill="#EDEDED"/><g><rect x="55.71" y="133.67" width="7.45" height="7.44" fill="#FFFFFF"/><rect x="69.08" y="133.67" width="7.44" height="7.44" fill="#FFFFFF"/><rect x="82.45" y="133.67" width="7.44" height="7.44" fill="#FFFFFF"/></g><g><rect x="55.71" y="145.8" width="7.45" height="7.45" fill="#FFFFFF"/><rect x="69.08" y="145.8" width="7.44" height="7.45" fill="#FFFFFF"/><rect x="82.45" y="145.8" width="7.44" height="7.45" fill="#FFFFFF"/></g><g><rect x="55.71" y="157.94" width="7.45" height="7.45" fill="#FFFFFF"/><rect x="69.08" y="157.94" width="7.44" height="7.45" fill="#FFFFFF"/><rect x="82.45" y="157.94" width="7.44" height="7.45" fill="#FFFFFF"/></g><g><rect x="55.71" y="170.07" width="7.45" height="7.45" fill="#FFFFFF"/><rect x="69.08" y="170.07" width="7.44" height="7.45" fill="#FFFFFF"/><rect x="82.45" y="170.07" width="7.44" height="7.45" fill="#FFFFFF"/></g><g><rect x="55.71" y="182.2" width="7.45" height="7.44" fill="#FFFFFF"/><rect x="69.08" y="182.2" width="7.44" height="7.44" fill="#FFFFFF"/><rect x="82.45" y="182.2" width="7.44" height="7.44" fill="#FFFFFF"/></g><g><rect x="55.71" y="194.33" width="7.45" height="7.45" fill="#FFFFFF"/><rect x="69.08" y="194.33" width="7.44" height="7.45" fill="#FFFFFF"/><rect x="82.45" y="194.33" width="7.44" height="7.45" fill="#FFFFFF"/></g><g><rect x="55.71" y="206.47" width="7.45" height="7.44" fill="#FFFFFF"/><rect x="69.08" y="206.47" width="7.44" height="7.44" fill="#FFFFFF"/><rect x="82.45" y="206.47" width="7.44" height="7.44" fill="#FFFFFF"/></g><g><rect x="55.71" y="218.6" width="7.45" height="7.45" fill="#FFFFFF"/><rect x="69.08" y="218.6" width="7.44" height="7.45" fill="#FFFFFF"/><rect x="82.45" y="218.6" width="7.44" height="7.45" fill="#FFFFFF"/></g><g><rect x="55.71" y="230.73" width="7.45" height="7.44" fill="#FFFFFF"/><rect x="69.08" y="230.73" width="7.44" height="7.44" fill="#FFFFFF"/><rect x="82.45" y="230.73" width="7.44" height="7.44" fill="#FFFFFF"/></g><g><rect x="55.71" y="242.86" width="7.45" height="7.45" fill="#FFFFFF"/><rect x="69.08" y="242.86" width="7.44" height="7.45" fill="#FFFFFF"/><rect x="82.45" y="242.86" width="7.44" height="7.45" fill="#FFFFFF"/></g><rect x="55.71" y="120.44" width="34.19" height="7.35" fill="#C36C48"/></g><g><rect x="146.06" y="113.19" width="43.75" height="144.75" fill="#00B0B1"/><rect x="154.56" y="113.19" width="26.74" height="144.75" fill="#EDEDED"/><g><rect x="150.84" y="119.07" width="7.44" height="7.45" fill="#FFFFFF"/><rect x="164.21" y="119.07" width="7.44" height="7.45" fill="#FFFFFF"/><rect x="177.58" y="119.07" width="7.45" height="7.45" fill="#FFFFFF"/></g><g><rect x="150.84" y="131.2" width="7.44" height="7.45" fill="#FFFFFF"/><rect x="164.21" y="131.2" width="7.44" height="7.45" fill="#FFFFFF"/><rect x="177.58" y="131.2" width="7.45" height="7.45" fill="#FFFFFF"/></g><g><rect x="150.84" y="143.34" width="7.44" height="7.44" fill="#FFFFFF"/><rect x="164.21" y="143.34" width="7.44" height="7.44" fill="#FFFFFF"/><rect x="177.58" y="143.34" width="7.45" height="7.44" fill="#FFFFFF"/></g><g><rect x="150.84" y="155.47" width="7.44" height="7.44" fill="#FFFFFF"/><rect x="164.21" y="155.47" width="7.44" height="7.44" fill="#FFFFFF"/><rect x="177.58" y="155.47" width="7.45" height="7.44" fill="#FFFFFF"/></g><g><rect x="150.84" y="167.6" width="7.44" height="7.44" fill="#FFFFFF"/><rect x="164.21" y="167.6" width="7.44" height="7.44" fill="#FFFFFF"/><rect x="177.58" y="167.6" width="7.45" height="7.44" fill="#FFFFFF"/></g><g><rect x="150.84" y="179.73" width="7.44" height="7.45" fill="#FFFFFF"/><rect x="164.21" y="179.73" width="7.44" height="7.45" fill="#FFFFFF"/><rect x="177.58" y="179.73" width="7.45" height="7.45" fill="#FFFFFF"/></g><g><rect x="150.84" y="191.87" width="7.44" height="7.44" fill="#FFFFFF"/><rect x="164.21" y="191.87" width="7.44" height="7.44" fill="#FFFFFF"/><rect x="177.58" y="191.87" width="7.45" height="7.44" fill="#FFFFFF"/></g><g><rect x="150.84" y="204" width="7.44" height="7.45" fill="#FFFFFF"/><rect x="164.21" y="204" width="7.44" height="7.45" fill="#FFFFFF"/><rect x="177.58" y="204" width="7.45" height="7.45" fill="#FFFFFF"/></g><g><rect x="150.84" y="216.13" width="7.44" height="7.45" fill="#FFFFFF"/><rect x="164.21" y="216.13" width="7.44" height="7.45" fill="#FFFFFF"/><rect x="177.58" y="216.13" width="7.45" height="7.45" fill="#FFFFFF"/></g><g><rect x="150.84" y="228.26" width="7.44" height="7.44" fill="#FFFFFF"/><rect x="164.21" y="228.26" width="7.44" height="7.44" fill="#FFFFFF"/><rect x="177.58" y="228.26" width="7.45" height="7.44" fill="#FFFFFF"/></g><g><rect x="150.84" y="241.48" width="7.44" height="7.44" fill="#FFFFFF"/><rect x="164.21" y="241.48" width="7.44" height="7.44" fill="#FFFFFF"/><rect x="177.58" y="241.48" width="7.45" height="7.44" fill="#FFFFFF"/></g></g><g><rect x="98.7" y="110.94" width="43.75" height="146.99" fill="#F8CD85"/><rect x="109.26" y="110.94" width="22.63" height="146.99" fill="#EDEDED"/><g><rect x="106.76" y="119.98" width="4.12" height="130.33" fill="#FFFFFF"/><rect x="118.52" y="119.98" width="4.12" height="130.33" fill="#FFFFFF"/><rect x="130.28" y="119.98" width="4.12" height="130.33" fill="#FFFFFF"/></g><rect x="103.48" y="102.64" width="34.19" height="8.3" fill="#D8B475"/><rect x="111.64" y="94.97" width="16.8" height="7.67" fill="#C6A66D"/><rect x="118.82" y="52.98" width="2.45" height="42" fill="#F8CD85"/></g><g><rect x="195.86" y="66.7" width="43.75" height="191.24" fill="#6EBEBF"/><rect x="204.36" y="66.7" width="26.74" height="191.24" fill="#EDEDED"/><g><rect x="200.64" y="72.58" width="7.45" height="7.44" fill="#FFFFFF"/><rect x="214.01" y="72.58" width="7.44" height="7.44" fill="#FFFFFF"/><rect x="227.38" y="72.58" width="7.44" height="7.44" fill="#FFFFFF"/></g><g><rect x="200.64" y="84.71" width="7.45" height="7.45" fill="#FFFFFF"/><rect x="214.01" y="84.71" width="7.44" height="7.45" fill="#FFFFFF"/><rect x="227.38" y="84.71" width="7.44" height="7.45" fill="#FFFFFF"/></g><g><rect x="200.64" y="96.85" width="7.45" height="7.45" fill="#FFFFFF"/><rect x="214.01" y="96.85" width="7.44" height="7.45" fill="#FFFFFF"/><rect x="227.38" y="96.85" width="7.44" height="7.45" fill="#FFFFFF"/></g><g><rect x="200.64" y="108.98" width="7.45" height="7.45" fill="#FFFFFF"/><rect x="214.01" y="108.98" width="7.44" height="7.45" fill="#FFFFFF"/><rect x="227.38" y="108.98" width="7.44" height="7.45" fill="#FFFFFF"/></g><g><rect x="200.64" y="121.11" width="7.45" height="7.44" fill="#FFFFFF"/><rect x="214.01" y="121.11" width="7.44" height="7.44" fill="#FFFFFF"/><rect x="227.38" y="121.11" width="7.44" height="7.44" fill="#FFFFFF"/></g><g><rect x="200.64" y="133.25" width="7.45" height="7.45" fill="#FFFFFF"/><rect x="214.01" y="133.25" width="7.44" height="7.45" fill="#FFFFFF"/><rect x="227.38" y="133.25" width="7.44" height="7.45" fill="#FFFFFF"/></g><g><rect x="200.64" y="145.38" width="7.45" height="7.44" fill="#FFFFFF"/><rect x="214.01" y="145.38" width="7.44" height="7.44" fill="#FFFFFF"/><rect x="227.38" y="145.38" width="7.44" height="7.44" fill="#FFFFFF"/></g><g><rect x="200.64" y="157.51" width="7.45" height="7.45" fill="#FFFFFF"/><rect x="214.01" y="157.51" width="7.44" height="7.45" fill="#FFFFFF"/><rect x="227.38" y="157.51" width="7.44" height="7.45" fill="#FFFFFF"/></g><g><rect x="200.64" y="169.64" width="7.45" height="7.44" fill="#FFFFFF"/><rect x="214.01" y="169.64" width="7.44" height="7.44" fill="#FFFFFF"/><rect x="227.38" y="169.64" width="7.44" height="7.44" fill="#FFFFFF"/></g><g><rect x="200.64" y="181.78" width="7.45" height="7.45" fill="#FFFFFF"/><rect x="214.01" y="181.78" width="7.44" height="7.45" fill="#FFFFFF"/><rect x="227.38" y="181.78" width="7.44" height="7.45" fill="#FFFFFF"/></g><g><rect x="200.64" y="194.32" width="7.45" height="7.45" fill="#FFFFFF"/><rect x="214.01" y="194.32" width="7.45" height="7.45" fill="#FFFFFF"/><rect x="227.38" y="194.32" width="7.44" height="7.45" fill="#FFFFFF"/></g><g><rect x="200.64" y="206.87" width="7.45" height="7.45" fill="#FFFFFF"/><rect x="214.01" y="206.87" width="7.44" height="7.45" fill="#FFFFFF"/><rect x="227.38" y="206.87" width="7.44" height="7.45" fill="#FFFFFF"/></g><g><rect x="200.64" y="219.41" width="7.45" height="7.45" fill="#FFFFFF"/><rect x="214.01" y="219.41" width="7.44" height="7.45" fill="#FFFFFF"/><rect x="227.38" y="219.41" width="7.44" height="7.45" fill="#FFFFFF"/></g><g><rect x="200.64" y="231.96" width="7.45" height="7.45" fill="#FFFFFF"/><rect x="214.01" y="231.96" width="7.44" height="7.45" fill="#FFFFFF"/><rect x="227.38" y="231.96" width="7.44" height="7.45" fill="#FFFFFF"/></g><g><rect x="200.64" y="244.5" width="7.45" height="7.45" fill="#FFFFFF"/><rect x="214.01" y="244.5" width="7.45" height="7.45" fill="#FFFFFF"/><rect x="227.38" y="244.5" width="7.44" height="7.45" fill="#FFFFFF"/></g><rect x="200.64" y="59.35" width="34.19" height="7.35" fill="#1DB0BC"/><rect x="206.22" y="52" width="23.02" height="7.35" fill="#1C95A0"/><rect x="217.04" y="0" width="1.39" height="52" fill="#1C95A0"/></g><g><rect x="0" y="12.06" width="48.34" height="21.2" fill="#009899"/><rect x="2.3" y="33.05" width="43.75" height="224.89" fill="#00B0B1"/><rect x="10.8" y="33.05" width="26.74" height="224.89" fill="#EDEDED"/><g><rect x="7.08" y="119.07" width="7.45" height="7.45" fill="#FFFFFF"/><rect x="20.45" y="119.07" width="7.44" height="7.45" fill="#FFFFFF"/><rect x="33.82" y="119.07" width="7.45" height="7.45" fill="#FFFFFF"/></g><g><rect x="8.14" y="105.32" width="7.44" height="7.45" fill="#FFFFFF"/><rect x="21.51" y="105.32" width="7.44" height="7.45" fill="#FFFFFF"/><rect x="34.88" y="105.32" width="7.45" height="7.45" fill="#FFFFFF"/></g><g><rect x="7.08" y="91.58" width="7.45" height="7.45" fill="#FFFFFF"/><rect x="20.45" y="91.58" width="7.44" height="7.45" fill="#FFFFFF"/><rect x="33.82" y="91.58" width="7.45" height="7.45" fill="#FFFFFF"/></g><g><rect x="7.08" y="77.83" width="7.45" height="7.45" fill="#FFFFFF"/><rect x="20.45" y="77.83" width="7.44" height="7.45" fill="#FFFFFF"/><rect x="33.82" y="77.83" width="7.45" height="7.45" fill="#FFFFFF"/></g><g><rect x="7.08" y="64.08" width="7.45" height="7.45" fill="#FFFFFF"/><rect x="20.45" y="64.08" width="7.44" height="7.45" fill="#FFFFFF"/><rect x="33.82" y="64.08" width="7.45" height="7.45" fill="#FFFFFF"/></g><g><rect x="7.08" y="50.33" width="7.45" height="7.45" fill="#FFFFFF"/><rect x="20.45" y="50.33" width="7.44" height="7.45" fill="#FFFFFF"/><rect x="33.82" y="50.33" width="7.45" height="7.45" fill="#FFFFFF"/></g><g><rect x="7.54" y="38.93" width="7.44" height="7.45" fill="#FFFFFF"/><rect x="20.92" y="38.93" width="7.44" height="7.45" fill="#FFFFFF"/><rect x="34.29" y="38.93" width="7.45" height="7.45" fill="#FFFFFF"/></g><g><rect x="7.08" y="18.93" width="7.45" height="7.45" fill="#FFFFFF"/><rect x="20.45" y="18.93" width="7.44" height="7.45" fill="#FFFFFF"/><rect x="33.82" y="18.93" width="7.45" height="7.45" fill="#FFFFFF"/></g><g><rect x="7.08" y="131.2" width="7.45" height="7.45" fill="#FFFFFF"/><rect x="20.45" y="131.2" width="7.44" height="7.45" fill="#FFFFFF"/><rect x="33.82" y="131.2" width="7.45" height="7.45" fill="#FFFFFF"/></g><g><rect x="7.08" y="143.34" width="7.45" height="7.44" fill="#FFFFFF"/><rect x="20.45" y="143.34" width="7.44" height="7.44" fill="#FFFFFF"/><rect x="33.82" y="143.34" width="7.45" height="7.44" fill="#FFFFFF"/></g><g><rect x="7.08" y="155.47" width="7.45" height="7.44" fill="#FFFFFF"/><rect x="20.45" y="155.47" width="7.44" height="7.44" fill="#FFFFFF"/><rect x="33.82" y="155.47" width="7.45" height="7.44" fill="#FFFFFF"/></g><g><rect x="7.08" y="167.6" width="7.45" height="7.44" fill="#FFFFFF"/><rect x="20.45" y="167.6" width="7.44" height="7.44" fill="#FFFFFF"/><rect x="33.82" y="167.6" width="7.45" height="7.44" fill="#FFFFFF"/></g><g><rect x="7.08" y="179.73" width="7.45" height="7.45" fill="#FFFFFF"/><rect x="20.45" y="179.73" width="7.44" height="7.45" fill="#FFFFFF"/><rect x="33.82" y="179.73" width="7.45" height="7.45" fill="#FFFFFF"/></g><g><rect x="7.08" y="191.87" width="7.45" height="7.44" fill="#FFFFFF"/><rect x="20.45" y="191.87" width="7.44" height="7.44" fill="#FFFFFF"/><rect x="33.82" y="191.87" width="7.45" height="7.44" fill="#FFFFFF"/></g><g><rect x="7.08" y="204" width="7.45" height="7.45" fill="#FFFFFF"/><rect x="20.45" y="204" width="7.44" height="7.45" fill="#FFFFFF"/><rect x="33.82" y="204" width="7.45" height="7.45" fill="#FFFFFF"/></g><g><rect x="7.08" y="216.13" width="7.45" height="7.45" fill="#FFFFFF"/><rect x="20.45" y="216.13" width="7.44" height="7.45" fill="#FFFFFF"/><rect x="33.82" y="216.13" width="7.45" height="7.45" fill="#FFFFFF"/></g><g><rect x="7.08" y="228.26" width="7.45" height="7.44" fill="#FFFFFF"/><rect x="20.45" y="228.26" width="7.44" height="7.44" fill="#FFFFFF"/><rect x="33.82" y="228.26" width="7.45" height="7.44" fill="#FFFFFF"/></g><g><rect x="7.08" y="241.48" width="7.45" height="7.44" fill="#FFFFFF"/><rect x="20.45" y="241.48" width="7.44" height="7.44" fill="#FFFFFF"/><rect x="33.82" y="241.48" width="7.45" height="7.44" fill="#FFFFFF"/></g></g><g><rect x="244.92" y="110.94" width="43.75" height="146.99" fill="#007881"/><rect x="255.48" y="110.94" width="22.63" height="146.99" fill="#EDEDED"/><g><rect x="252.97" y="119.98" width="4.12" height="130.33" fill="#FFFFFF"/><rect x="264.73" y="119.98" width="4.12" height="130.33" fill="#FFFFFF"/><rect x="276.5" y="119.98" width="4.12" height="130.33" fill="#FFFFFF"/></g><rect x="249.7" y="102.64" width="34.19" height="8.3" fill="#007881"/><rect x="257.86" y="94.97" width="16.8" height="7.67" fill="#00555B"/><rect x="265.03" y="52.98" width="2.45" height="42" fill="#00555B"/></g></g></svg>