<svg width="107.29" height="127.91" viewBox="0 0 107.29 127.91" xmlns="http://www.w3.org/2000/svg" xmlns:xlink="http://www.w3.org/1999/xlink" xml:space="preserve" overflow="hidden"><defs></defs><g><path d="M38.58 25.55C38.58 25.55 35.65 27.03 31.91 29.01 28.17 30.99 25.15 31.72 24.54 32.2 23.93 32.68 20.71 41.33 19.84 44.45 18.97 47.57 17.15 49.5 16.16 50.09 15.17 50.67 11.43 51.72 10.5 53.2 8.73 56 4.84 57.38 6.17 59.67 7.25 61.52 11.94 59.17 13.2 58.67 14.46 58.17 17.68 56.11 18.95 54.84 22.14 51.65 25.07 47.47 26.13 45.02 27.5 41.86 29.43 38.4 29.43 38.4 29.43 38.4 39.49 37.1 41.33 33.29 43.17 29.47 38.58 25.55 38.58 25.55Z" fill="#FFC9B6"/><path d="M62.44 36.1C62.44 36.1 67.05 41.99 70.53 44.31 73.22 46.1 77.87 48.17 77.87 48.17 77.87 48.17 85.32 46.64 91.2 45.01 95.19 43.9 96.03 41.27 97.01 39.56 97.47 38.75 97.96 38.08 98.84 38 100.8 37.83 98.73 40 98.66 41.1 98.52 43.07 99.9 43.11 101.78 42.09 103.59 41.11 108.22 40.16 107.14 44.42 105.85 49.51 96.61 48.14 93.33 49.67 90.88 50.81 85.17 54.3 79.76 55.11 77.93 55.38 76.27 55.39 75.01 54.95 70.01 53.23 57.7 45.01 57.7 45.01L62.44 36.1Z" fill="#FFC9B6"/><path d="M68.27 87.51C68.27 87.51 66.97 92.49 67.72 99.79 68.12 103.63 70.88 110.87 71.28 114.89 71.69 119.08 71.3 119.44 71.3 119.44 71.3 119.44 75.77 121.09 78.84 119.08 77.79 114.27 78.19 102.11 78.39 93.95 78.52 88.81 78.53 85.8 76.38 83.46 73.45 80.27 68.11 77.28 67.63 77.53 66.94 77.9 68.27 87.51 68.27 87.51Z" fill="#FFC9B6"/><path d="M30.53 78.45C28.8 81.72 26.36 86.94 25.6 88.84 21.08 88.33 9.31 91.02 7.4 91.49 8.09 94.24 5.62 94.41 5.49 97.26 6.9 97.52 12.53 98.53 14.11 98.69 21.2 99.42 26.19 99.44 30.05 98.59 33.99 97.72 43.53 82.91 43.53 82.91L30.53 78.45Z" fill="#FFC9B6"/><path d="M31.41 59.9C30.16 63.44 28.99 65.42 29.45 69.33 29.91 73.23 31.58 76.18 31.58 76.18 31.58 76.18 27.74 80.83 25.21 85.17 27.54 91.3 38.19 95.67 38.19 95.67 38.19 95.67 40.27 92.37 44.05 87.97 47.35 84.14 50.65 80.73 51.25 75.98 51.59 73.22 51.15 70.67 51.06 67.76 50.97 64.85 31.41 59.9 31.41 59.9Z" fill="#0F1D7F"/><path d="M37.36 66.4C37.36 66.4 38.36 74.93 42.86 78.04 47.35 81.15 49.78 81.02 49.78 81.02 49.78 81.02 54.88 84.67 57.25 87.64 59.62 90.61 61.58 92.62 61.58 92.62 61.58 92.62 66.07 92.52 71.11 87.26 73.67 84.59 74.37 80.07 74.37 80.07 74.37 80.07 63.37 67.61 58.02 66.01 53.94 64.79 44.05 65.66 39.6 66.14 38.22 66.29 37.36 66.4 37.36 66.4Z" fill="#0F1D7F"/><path d="M52.78 23.29C52.78 23.29 47.69 17.77 42.17 21.03 36.65 24.28 31.82 27.97 31.82 27.97 31.82 27.97 31.98 31.22 33.17 33.88 34.41 36.66 36.87 38.45 36.87 38.45 36.87 38.45 46.59 36.97 48.57 34.43 50.55 31.89 52.78 23.29 52.78 23.29Z" fill="#333333"/><path d="M54.41 15.22C54.41 15.22 52.35 23.92 50.29 25.64 48.23 27.37 53.61 32.53 57.52 32.69 61.43 32.85 61.97 22.41 61.97 22.41L54.41 15.22Z" fill="#FFB8A3"/><path d="M62.12 3.4C57.81 2.24 53.69 4.81 52.11 8.63 50.65 12.16 53.58 17.91 56.09 19.99 58.7 22.14 62.81 25.28 65.74 24.44 69.17 23.47 70.65 20.5 70.69 16.12 70.75 10.1 68.06 5 62.12 3.4Z" fill="#FFC9B6"/><path d="M66.34 33.18C66.34 33.18 61.38 28.14 56.21 25.05 52.23 22.67 49.29 20.51 46.34 22.56 42.89 24.96 37.34 32.7 35.19 39.54 33.04 46.39 29.89 58.6 27.76 64.51 30.89 66.86 32.82 70.22 37.72 71.77 44.6 73.95 53.92 68.61 60.41 66.62 57.53 63.41 56.11 60.49 56.11 60.49L67 38.91 66.34 33.18Z" fill="#1C0604"/><path d="M53.31 22.76C52.93 17.2 44.13 8.29 53.91 1.66 60.36-2.71 66.83 2.87 72.94 3.57 72.15 6.88 72.02 10.16 65.95 9.7 65.53 14.89 58.06 23.17 53.31 22.76Z" fill="#333333"/><path d="M63.69 15.85C63.69 15.85 61.17 12.96 59.61 15.6 58.05 18.24 61.75 19.49 61.75 19.49L63.69 15.85Z" fill="#FFC9B6"/><path d="M57.28 46.63C60.98 49.94 68.26 54.28 68.26 54.28 68.26 54.28 70.88 52.74 72.61 51.28 75.66 48.71 76.56 45.17 76.56 45.17L72.86 43.86C72.86 43.86 67.69 31.17 62.67 30.42 58.21 29.74 53.08 42.88 57.28 46.63Z" fill="#333333"/><g><path d="M75.39 118.98C75.39 118.98 71.87 112.85 70.3 115.59 68.91 118.02 67.66 120.91 67.41 122.75 67.24 123.98 69.25 125.58 74.31 127.03 79.37 128.47 84.51 126.52 87 125.03 89.49 123.54 93.77 121.2 90.47 118.93 87.16 116.66 85.01 118.35 82.98 118.38 81.02 118.4 78.6 116.4 78.6 116.4 78.6 116.4 76.39 118 75.39 118.98Z" fill="#FF4527"/><path d="M68.44 119.35C68.44 119.35 70.98 119.34 72.35 121.73 73.72 124.12 75.3 125.61 77.03 126.23 78.76 126.85 86.33 124.91 87.13 123.46 88.21 121.52 89.13 118.2 89.13 118.2 89.13 118.2 91.56 118.58 91.85 120.76 92.15 122.93 87.31 125.38 84.57 126.67 81.83 127.96 77.27 128.44 73.03 127.25 70.26 126.47 67.22 124.57 66.85 123.46 66.5 122.34 68.44 119.35 68.44 119.35Z" fill="#333333"/><path d="M74.98 122.72C74.98 122.72 75.73 123.8 77.11 124.19 78.49 124.58 80.13 123.48 81.77 123.75 83.41 124.01 84.73 124.11 85.72 123.16 86.71 122.21 86.86 121.35 86.86 121.35 86.86 121.35 85.45 122.25 84.38 122.52 83.31 122.79 81.48 121.81 79.63 122.53 77.77 123.24 75.94 123.07 74.98 122.72Z" fill="#FFFFFF"/><path d="M79.41 116.99C79.41 116.99 79.62 118.53 79.44 119.82 79.25 121.11 80.57 121.05 80.82 119.97 81.07 118.89 80.86 117.82 80.86 117.82L79.41 116.99Z" fill="#333333"/><path d="M82.27 118.3C82.27 118.3 82.49 118.86 82.74 120.06 82.99 121.26 84.16 120.86 84.05 119.96 83.94 119.05 83.76 118.3 83.76 118.3L82.27 118.3Z" fill="#333333"/></g><g><path d="M8.58 95.78C8.58 95.78 13.74 90.95 10.72 90.05 8.03 89.25 4.94 88.69 3.09 88.87 1.85 88.99 0.75 91.31 0.5 96.56 0.25 101.81 3.32 106.38 5.34 108.46 7.36 110.54 10.62 114.18 12.07 110.44 13.53 106.7 11.38 104.99 10.9 103.03 10.43 101.13 11.82 98.31 11.82 98.31 11.82 98.31 9.77 96.53 8.58 95.78Z" fill="#FF4527"/><path d="M6.64 89.1C6.64 89.1 7.23 91.57 5.22 93.45 3.21 95.32 2.12 97.2 1.91 99.03 1.7 100.85 5.32 107.78 6.92 108.23 9.06 108.83 12.5 108.97 12.5 108.97 12.5 108.97 12.68 111.42 10.63 112.2 8.58 112.98 5.1 108.84 3.22 106.46 1.34 104.09-0.17 99.75 0.02 95.36 0.15 92.49 1.3 89.09 2.3 88.48 3.29 87.89 6.64 89.1 6.64 89.1Z" fill="#333333"/><path d="M4.85 96.23C4.85 96.23 3.97 97.21 3.91 98.64 3.85 100.07 5.29 101.42 5.4 103.07 5.52 104.73 5.73 106.03 6.87 106.78 8.02 107.53 8.9 107.47 8.9 107.47 8.9 107.47 7.7 106.31 7.19 105.32 6.69 104.34 7.22 102.34 6.1 100.7 4.98 99.07 4.73 97.24 4.85 96.23Z" fill="#FFFFFF"/><path d="M11.44 99.23C11.44 99.23 9.99 99.79 8.69 99.9 7.39 100.01 7.75 101.28 8.86 101.28 9.97 101.28 10.97 100.83 10.97 100.83L11.44 99.23Z" fill="#333333"/><path d="M10.82 102.32C10.82 102.32 10.32 102.67 9.21 103.18 8.1 103.69 8.75 104.74 9.61 104.43 10.47 104.12 11.16 103.76 11.16 103.76L10.82 102.32Z" fill="#333333"/></g></g></svg>