<svg width="300.79" height="327.9" viewBox="0 0 300.79 327.9" xmlns="http://www.w3.org/2000/svg" xmlns:xlink="http://www.w3.org/1999/xlink" xml:space="preserve" overflow="hidden"><defs></defs><g><rect x="66.86" y="102.58" width="225" height="225" fill="#6B6B6B" transform="matrix(-1 -1.22465e-16 1.22465e-16 -1 358.71 430.159)"/><g><path d="M66.85 125.6 291.85 257.03 291.86 102.58 66.85 102.58Z" fill="#AD95A6"/><path d="M76.95 102.58 291.86 228.22 291.86 102.58Z" fill="#8A5C6B"/><path d="M66.85 327.58 291.85 327.58 291.85 260.76 66.85 132.32Z" fill="#6F5F6A"/><g><g><g><path d="M291.85 259.54 66.85 129.76 66.86 133.14 291.86 262.92Z" fill="#E7ECEF"/></g><g><path d="M291.86 254.55 66.83 124.76 66.85 129.76 291.85 259.54Z" fill="#968290"/></g></g></g></g><path d="M91.17 201.74 66.83 187.69 66.83 182.99 95.24 199.39Z" fill="#E7ECEF"/><path d="M126.37 222.06 99.07 206.3 103.15 203.95 130.44 219.71Z" fill="#E7ECEF"/><path d="M291.83 317.81 275.16 308.13 279.23 305.78 291.83 313.1Z" fill="#E7ECEF"/><path d="M233.33 283.81 206.04 268.05 210.11 265.7 237.4 281.46Z" fill="#E7ECEF"/><path d="M268.33 304.02 241.04 288.26 245.11 285.91 272.4 301.67Z" fill="#E7ECEF"/><g><defs><rect x="66.86" y="102.58" width="225" height="225.32" id="SVGID_2_"/></defs><clipPath id="SVGID_4_"><use width="100%" height="100%" xlink:href="#SVGID_2_" overflow="visible"></use></clipPath></g><g><defs><path d="M66.86 102.58 291.86 202.33 291.86 102.58 121.94 102.58Z" id="SVGID_1_"/></defs><clipPath id="SVGID_5_"><use width="100%" height="100%" xlink:href="#SVGID_1_" overflow="visible"></use></clipPath><g clip-path="url(#SVGID_5_)"><ellipse cx="230.67" cy="152.95" rx="8.21" ry="4.74" fill="#A79891"/><g><g><g><linearGradient x1="-533.609" y1="142.017" x2="-526.849" y2="142.017" gradientUnits="userSpaceOnUse" id="SVGID_7_" gradientTransform="matrix(-1 0 0 1 -299.555 0)"><stop offset="0" stop-color="#E8B17E"/><stop offset="1" stop-color="#695133"/></linearGradient><path d="M227.29 151.62 227.29 130.46 234.05 130.46 234.05 151.62 234.05 151.62C234.05 152.12 233.72 152.62 233.06 153 231.74 153.76 229.6 153.76 228.28 153 227.62 152.62 227.29 152.12 227.29 151.62Z" fill="url(#SVGID_7_)"/><path d="M228.28 129.08C226.96 129.84 226.96 131.08 228.28 131.84 229.6 132.6 231.74 132.6 233.06 131.84 234.38 131.08 234.38 129.84 233.06 129.08 231.74 128.32 229.6 128.32 228.28 129.08Z" fill="#DBA777"/></g><g><g><linearGradient x1="-540.93" y1="115.825" x2="-519.851" y2="115.825" gradientUnits="userSpaceOnUse" id="SVGID_8_" gradientTransform="matrix(-1 0 0 1 -299.555 0)"><stop offset="0" stop-color="#658635"/><stop offset="1" stop-color="#B4D35E"/></linearGradient><path d="M215.65 122.53 215.65 122.53 228.38 97.52 232.97 97.52 245.7 122.53 245.7 122.53C247.26 125.6 245.95 129.06 241.75 131.48 235.64 135.01 225.72 135.01 219.61 131.48 215.41 129.06 214.09 125.6 215.65 122.53Z" fill="url(#SVGID_8_)"/><path d="M228.98 96.93C228.05 97.47 228.05 98.34 228.98 98.88 229.91 99.42 231.43 99.42 232.36 98.88 233.29 98.34 233.29 97.47 232.36 96.93 231.43 96.4 229.92 96.4 228.98 96.93Z" fill="#CAD959"/></g><g><linearGradient x1="-538.513" y1="99.6733" x2="-522.195" y2="99.6733" gradientUnits="userSpaceOnUse" id="SVGID_9_" gradientTransform="matrix(-1 0 0 1 -299.555 0)"><stop offset="0" stop-color="#658635"/><stop offset="1" stop-color="#B4D35E"/></linearGradient><path d="M219.05 104.87 219.05 104.87 228.9 85.51 232.45 85.51 242.3 104.87 242.3 104.87C243.51 107.25 242.49 109.92 239.24 111.8 234.51 114.53 226.83 114.53 222.1 111.8 218.86 109.92 217.84 107.24 219.05 104.87Z" fill="url(#SVGID_9_)"/><path d="M229.37 85.05C228.65 85.47 228.65 86.14 229.37 86.56 230.09 86.98 231.26 86.98 231.99 86.56 232.71 86.14 232.71 85.47 231.99 85.05 231.26 84.63 230.09 84.63 229.37 85.05Z" fill="#CAD959"/></g><g><linearGradient x1="-535.853" y1="84.9968" x2="-524.775" y2="84.9968" gradientUnits="userSpaceOnUse" id="SVGID_10_" gradientTransform="matrix(-1 0 0 1 -299.555 0)"><stop offset="0" stop-color="#658635"/><stop offset="1" stop-color="#B4D35E"/></linearGradient><path d="M222.78 88.52 222.78 88.52 229.47 75.37 231.88 75.37 238.57 88.52 238.57 88.52C239.39 90.13 238.7 91.95 236.49 93.22 233.28 95.08 228.07 95.08 224.85 93.22 222.65 91.95 221.96 90.14 222.78 88.52Z" fill="url(#SVGID_10_)"/><ellipse cx="230.67" cy="75.58" rx="1.26" ry="0.73" fill="#CAD959"/></g></g></g></g></g><g clip-path="url(#SVGID_5_)"><path d="M257.14 167.41C253.93 169.26 253.93 172.26 257.14 174.11 260.35 175.96 265.55 175.96 268.75 174.11 271.96 172.26 271.96 169.26 268.75 167.41 265.55 165.56 260.35 165.56 257.14 167.41Z" fill="#A79891"/><g><g><g><linearGradient x1="-565.881" y1="159.833" x2="-559.121" y2="159.833" gradientUnits="userSpaceOnUse" id="SVGID_11_" gradientTransform="matrix(-1 0 0 1 -299.555 0)"><stop offset="0" stop-color="#E8B17E"/><stop offset="1" stop-color="#695133"/></linearGradient><path d="M259.57 169.43 259.57 148.27 266.33 148.27 266.33 169.43 266.33 169.43C266.33 169.93 266 170.43 265.34 170.81 264.02 171.57 261.88 171.57 260.56 170.81 259.9 170.43 259.57 169.93 259.57 169.43Z" fill="url(#SVGID_11_)"/><path d="M260.56 146.9C259.24 147.66 259.24 148.9 260.56 149.66 261.88 150.42 264.02 150.42 265.34 149.66 266.66 148.9 266.66 147.66 265.34 146.9 264.02 146.14 261.88 146.14 260.56 146.9Z" fill="#DBA777"/></g><g><g><linearGradient x1="-573.201" y1="133.641" x2="-552.123" y2="133.641" gradientUnits="userSpaceOnUse" id="SVGID_12_" gradientTransform="matrix(-1 0 0 1 -299.555 0)"><stop offset="0" stop-color="#658635"/><stop offset="1" stop-color="#B4D35E"/></linearGradient><path d="M247.93 140.35 247.93 140.35 260.66 115.34 265.25 115.34 277.98 140.35 277.98 140.35C279.54 143.42 278.23 146.88 274.03 149.3 267.92 152.83 258 152.83 251.89 149.3 247.68 146.88 246.36 143.42 247.93 140.35Z" fill="url(#SVGID_12_)"/><path d="M261.26 114.75C260.33 115.29 260.33 116.16 261.26 116.7 262.19 117.24 263.71 117.24 264.64 116.7 265.57 116.16 265.57 115.29 264.64 114.75 263.7 114.21 262.19 114.21 261.26 114.75Z" fill="#CAD959"/></g><g><linearGradient x1="-570.785" y1="117.489" x2="-554.467" y2="117.489" gradientUnits="userSpaceOnUse" id="SVGID_13_" gradientTransform="matrix(-1 0 0 1 -299.555 0)"><stop offset="0" stop-color="#658635"/><stop offset="1" stop-color="#B4D35E"/></linearGradient><path d="M251.32 122.68 251.32 122.68 261.17 103.32 264.72 103.32 274.57 122.68 274.57 122.68C275.78 125.06 274.76 127.73 271.51 129.61 266.78 132.34 259.1 132.34 254.37 129.61 251.13 127.73 250.11 125.06 251.32 122.68Z" fill="url(#SVGID_13_)"/><ellipse cx="262.95" cy="103.62" rx="1.85" ry="1.07" fill="#CAD959"/></g><g><linearGradient x1="-568.125" y1="102.812" x2="-557.047" y2="102.812" gradientUnits="userSpaceOnUse" id="SVGID_14_" gradientTransform="matrix(-1 0 0 1 -299.555 0)"><stop offset="0" stop-color="#658635"/><stop offset="1" stop-color="#B4D35E"/></linearGradient><path d="M255.05 106.34 255.05 106.34 261.74 93.19 264.15 93.19 270.84 106.34 270.84 106.34C271.66 107.95 270.97 109.77 268.76 111.04 265.55 112.9 260.34 112.9 257.12 111.04 254.92 109.77 254.23 107.95 255.05 106.34Z" fill="url(#SVGID_14_)"/><path d="M262.06 92.88C261.57 93.16 261.57 93.62 262.06 93.91 262.55 94.19 263.35 94.19 263.84 93.91 264.33 93.63 264.33 93.17 263.84 92.88 263.34 92.6 262.55 92.6 262.06 92.88Z" fill="#CAD959"/></g></g></g></g></g><g clip-path="url(#SVGID_5_)"><ellipse cx="196.01" cy="138.02" rx="5.41" ry="3.13" fill="#A79891"/><g><g><g><linearGradient x1="-497.795" y1="130.815" x2="-493.339" y2="130.815" gradientUnits="userSpaceOnUse" id="SVGID_15_" gradientTransform="matrix(-1 0 0 1 -299.555 0)"><stop offset="0" stop-color="#E8B17E"/><stop offset="1" stop-color="#695133"/></linearGradient><path d="M193.78 137.15 193.78 123.2 198.24 123.2 198.24 137.15 198.24 137.15C198.24 137.48 198.02 137.81 197.59 138.06 196.72 138.56 195.31 138.56 194.44 138.06 194 137.8 193.78 137.47 193.78 137.15Z" fill="url(#SVGID_15_)"/><path d="M194.44 122.29C193.57 122.79 193.57 123.61 194.44 124.11 195.31 124.61 196.72 124.61 197.59 124.11 198.46 123.61 198.46 122.79 197.59 122.29 196.72 121.79 195.31 121.79 194.44 122.29Z" fill="#DBA777"/></g><g><g><linearGradient x1="-502.622" y1="113.548" x2="-488.726" y2="113.548" gradientUnits="userSpaceOnUse" id="SVGID_16_" gradientTransform="matrix(-1 0 0 1 -299.555 0)"><stop offset="0" stop-color="#658635"/><stop offset="1" stop-color="#B4D35E"/></linearGradient><path d="M186.11 117.97 186.11 117.97 194.5 101.48 197.52 101.48 205.91 117.97 205.91 117.97C206.94 119.99 206.07 122.27 203.31 123.87 199.28 126.2 192.74 126.2 188.71 123.87 185.95 122.27 185.08 120 186.11 117.97Z" fill="url(#SVGID_16_)"/><path d="M194.9 101.09C194.28 101.45 194.28 102.02 194.9 102.38 195.52 102.74 196.51 102.74 197.13 102.38 197.75 102.02 197.75 101.45 197.13 101.09 196.51 100.74 195.51 100.74 194.9 101.09Z" fill="#CAD959"/></g><g><linearGradient x1="-501.028" y1="102.9" x2="-490.271" y2="102.9" gradientUnits="userSpaceOnUse" id="SVGID_17_" gradientTransform="matrix(-1 0 0 1 -299.555 0)"><stop offset="0" stop-color="#658635"/><stop offset="1" stop-color="#B4D35E"/></linearGradient><path d="M188.35 106.32 188.35 106.32 194.85 93.55 197.19 93.55 203.69 106.32 203.69 106.32C204.49 107.89 203.82 109.65 201.67 110.89 198.55 112.69 193.49 112.69 190.37 110.89 188.22 109.65 187.55 107.89 188.35 106.32Z" fill="url(#SVGID_17_)"/><path d="M195.15 93.26C194.67 93.54 194.67 93.98 195.15 94.26 195.63 94.54 196.4 94.54 196.87 94.26 197.35 93.99 197.35 93.54 196.87 93.26 196.4 92.98 195.63 92.98 195.15 93.26Z" fill="#CAD959"/></g><g><linearGradient x1="-499.275" y1="93.2243" x2="-491.972" y2="93.2243" gradientUnits="userSpaceOnUse" id="SVGID_18_" gradientTransform="matrix(-1 0 0 1 -299.555 0)"><stop offset="0" stop-color="#658635"/><stop offset="1" stop-color="#B4D35E"/></linearGradient><path d="M190.81 95.55 190.81 95.55 195.22 86.88 196.81 86.88 201.22 95.55 201.22 95.55C201.76 96.61 201.31 97.81 199.85 98.65 197.73 99.87 194.3 99.87 192.18 98.65 190.72 97.81 190.27 96.61 190.81 95.55Z" fill="url(#SVGID_18_)"/><ellipse cx="196.01" cy="87.02" rx="0.83" ry="0.48" fill="#CAD959"/></g></g></g></g></g><g clip-path="url(#SVGID_5_)"><ellipse cx="155.63" cy="120.56" rx="12.68" ry="7.32" fill="#A79891"/><g><g><g><linearGradient x1="-460.404" y1="103.683" x2="-449.968" y2="103.683" gradientUnits="userSpaceOnUse" id="SVGID_19_" gradientTransform="matrix(-1 0 0 1 -299.555 0)"><stop offset="0" stop-color="#E8B17E"/><stop offset="1" stop-color="#695133"/></linearGradient><path d="M150.41 118.51 150.41 85.85 160.85 85.85 160.85 118.51 160.85 118.51C160.85 119.28 160.34 120.05 159.32 120.64 157.28 121.82 153.98 121.82 151.94 120.64 150.92 120.05 150.41 119.28 150.41 118.51Z" fill="url(#SVGID_19_)"/><path d="M151.94 83.72C149.9 84.9 149.9 86.8 151.94 87.98 153.98 89.16 157.28 89.16 159.32 87.98 161.36 86.8 161.36 84.9 159.32 83.72 157.28 82.54 153.98 82.54 151.94 83.72Z" fill="#DBA777"/></g><g><g><linearGradient x1="-471.705" y1="63.2474" x2="-439.164" y2="63.2474" gradientUnits="userSpaceOnUse" id="SVGID_20_" gradientTransform="matrix(-1 0 0 1 -299.555 0)"><stop offset="0" stop-color="#658635"/><stop offset="1" stop-color="#B4D35E"/></linearGradient><path d="M132.44 73.6 132.44 73.6 152.09 34.98 159.17 34.98 178.82 73.6 178.82 73.6C181.23 78.34 179.2 83.67 172.72 87.41 163.28 92.86 147.98 92.86 138.54 87.41 132.06 83.68 130.03 78.35 132.44 73.6Z" fill="url(#SVGID_20_)"/><path d="M153.02 34.08C151.58 34.91 151.58 36.26 153.02 37.09 154.46 37.92 156.8 37.92 158.24 37.09 159.68 36.26 159.68 34.91 158.24 34.08 156.8 33.25 154.46 33.25 153.02 34.08Z" fill="#CAD959"/></g><g><linearGradient x1="-467.974" y1="38.3121" x2="-442.783" y2="38.3121" gradientUnits="userSpaceOnUse" id="SVGID_21_" gradientTransform="matrix(-1 0 0 1 -299.555 0)"><stop offset="0" stop-color="#658635"/><stop offset="1" stop-color="#B4D35E"/></linearGradient><path d="M137.68 46.33 137.68 46.33 152.89 16.44 158.37 16.44 173.58 46.33 173.58 46.33C175.45 50 173.87 54.13 168.86 57.02 161.55 61.24 149.7 61.24 142.4 57.02 137.38 54.13 135.81 50 137.68 46.33Z" fill="url(#SVGID_21_)"/><ellipse cx="155.63" cy="16.9" rx="2.86" ry="1.65" fill="#CAD959"/></g><g><linearGradient x1="-463.868" y1="15.6543" x2="-446.766" y2="15.6543" gradientUnits="userSpaceOnUse" id="SVGID_22_" gradientTransform="matrix(-1 0 0 1 -299.555 0)"><stop offset="0" stop-color="#658635"/><stop offset="1" stop-color="#B4D35E"/></linearGradient><path d="M143.44 21.1 143.44 21.1 153.77 0.8 157.49 0.8 167.82 21.09 167.82 21.09C169.09 23.58 168.02 26.38 164.62 28.35 159.66 31.21 151.62 31.21 146.65 28.35 143.24 26.39 142.18 23.59 143.44 21.1Z" fill="url(#SVGID_22_)"/><path d="M154.26 0.33C153.5 0.77 153.5 1.48 154.26 1.91 155.02 2.35 156.24 2.35 157 1.91 157.76 1.47 157.76 0.76 157 0.33 156.24-0.11 155.02-0.11 154.26 0.33Z" fill="#CAD959"/></g></g></g></g></g><g clip-path="url(#SVGID_5_)"><path d="M171.83 128.95C167.69 131.34 167.69 135.22 171.83 137.61 175.97 140 182.69 140 186.84 137.61 190.98 135.22 190.98 131.34 186.84 128.95 182.7 126.56 175.98 126.56 171.83 128.95Z" fill="#A79891"/><g><g><g><linearGradient x1="-483.26" y1="119.158" x2="-474.525" y2="119.158" gradientUnits="userSpaceOnUse" id="SVGID_23_" gradientTransform="matrix(-1 0 0 1 -299.555 0)"><stop offset="0" stop-color="#E8B17E"/><stop offset="1" stop-color="#695133"/></linearGradient><path d="M174.97 131.57 174.97 104.23 183.71 104.23 183.71 131.57 183.71 131.57C183.71 132.22 183.28 132.86 182.43 133.35 180.72 134.33 177.96 134.33 176.25 133.35 175.4 132.86 174.97 132.21 174.97 131.57Z" fill="url(#SVGID_23_)"/><path d="M176.25 102.44C174.54 103.42 174.54 105.02 176.25 106.01 177.96 106.99 180.72 106.99 182.43 106.01 184.14 105.03 184.14 103.43 182.43 102.44 180.72 101.46 177.95 101.46 176.25 102.44Z" fill="#DBA777"/></g><g><g><linearGradient x1="-492.721" y1="85.3089" x2="-465.481" y2="85.3089" gradientUnits="userSpaceOnUse" id="SVGID_24_" gradientTransform="matrix(-1 0 0 1 -299.555 0)"><stop offset="0" stop-color="#658635"/><stop offset="1" stop-color="#B4D35E"/></linearGradient><path d="M159.93 93.98 159.93 93.98 176.38 61.65 182.31 61.65 198.76 93.98 198.76 93.98C200.78 97.95 199.08 102.41 193.66 105.54 185.76 110.1 172.95 110.1 165.04 105.54 159.61 102.41 157.91 97.95 159.93 93.98Z" fill="url(#SVGID_24_)"/><path d="M177.15 60.9C175.94 61.6 175.94 62.73 177.15 63.42 178.36 64.12 180.31 64.12 181.52 63.42 182.73 62.72 182.73 61.59 181.52 60.9 180.32 60.2 178.36 60.2 177.15 60.9Z" fill="#CAD959"/></g><g><linearGradient x1="-489.598" y1="64.4352" x2="-468.51" y2="64.4352" gradientUnits="userSpaceOnUse" id="SVGID_25_" gradientTransform="matrix(-1 0 0 1 -299.555 0)"><stop offset="0" stop-color="#658635"/><stop offset="1" stop-color="#B4D35E"/></linearGradient><path d="M164.31 71.15 164.31 71.15 177.04 46.12 181.63 46.12 194.36 71.15 194.36 71.15C195.92 74.22 194.61 77.68 190.41 80.1 184.29 83.63 174.37 83.63 168.26 80.1 164.06 77.68 162.75 74.22 164.31 71.15Z" fill="url(#SVGID_25_)"/><path d="M177.65 45.54C176.72 46.08 176.72 46.95 177.65 47.49 178.58 48.03 180.1 48.03 181.03 47.49 181.96 46.95 181.96 46.08 181.03 45.54 180.09 45 178.58 45 177.65 45.54Z" fill="#CAD959"/></g><g><linearGradient x1="-486.16" y1="45.468" x2="-471.844" y2="45.468" gradientUnits="userSpaceOnUse" id="SVGID_26_" gradientTransform="matrix(-1 0 0 1 -299.555 0)"><stop offset="0" stop-color="#658635"/><stop offset="1" stop-color="#B4D35E"/></linearGradient><path d="M169.14 50.02 169.14 50.02 177.78 33.03 180.89 33.03 189.53 50.02 189.53 50.02C190.59 52.11 189.7 54.45 186.85 56.1 182.7 58.5 175.96 58.5 171.81 56.1 168.97 54.46 168.07 52.11 169.14 50.02Z" fill="url(#SVGID_26_)"/><path d="M178.19 32.64C177.56 33.01 177.56 33.6 178.19 33.97 178.82 34.34 179.85 34.34 180.49 33.97 181.12 33.6 181.12 33.01 180.49 32.64 179.85 32.27 178.82 32.27 178.19 32.64Z" fill="#CAD959"/></g></g></g></g></g><g clip-path="url(#SVGID_5_)"><ellipse cx="211.77" cy="152.58" rx="9.92" ry="5.73" fill="#A79891"/><g><g><g><linearGradient x1="-515.402" y1="139.379" x2="-507.239" y2="139.379" gradientUnits="userSpaceOnUse" id="SVGID_27_" gradientTransform="matrix(-1 0 0 1 -299.555 0)"><stop offset="0" stop-color="#E8B17E"/><stop offset="1" stop-color="#695133"/></linearGradient><path d="M207.68 150.98 207.68 125.43 215.84 125.43 215.84 150.98 215.84 150.98C215.84 151.58 215.44 152.19 214.64 152.65 213.05 153.57 210.46 153.57 208.87 152.65 208.08 152.18 207.68 151.58 207.68 150.98Z" fill="url(#SVGID_27_)"/><path d="M208.88 123.76C207.29 124.68 207.29 126.17 208.88 127.09 210.47 128.01 213.06 128.01 214.65 127.09 216.24 126.17 216.24 124.68 214.65 123.76 213.06 122.84 210.47 122.84 208.88 123.76Z" fill="#DBA777"/></g><g><g><linearGradient x1="-524.244" y1="107.747" x2="-498.788" y2="107.747" gradientUnits="userSpaceOnUse" id="SVGID_28_" gradientTransform="matrix(-1 0 0 1 -299.555 0)"><stop offset="0" stop-color="#658635"/><stop offset="1" stop-color="#B4D35E"/></linearGradient><path d="M193.63 115.85 193.63 115.85 209 85.64 214.54 85.64 229.91 115.85 229.91 115.85C231.8 119.56 230.21 123.73 225.14 126.66 217.76 130.92 205.78 130.92 198.4 126.66 193.33 123.73 191.74 119.56 193.63 115.85Z" fill="url(#SVGID_28_)"/><path d="M209.73 84.93C208.6 85.58 208.6 86.64 209.73 87.29 210.86 87.94 212.68 87.94 213.81 87.29 214.94 86.64 214.94 85.58 213.81 84.93 212.68 84.28 210.85 84.28 209.73 84.93Z" fill="#CAD959"/></g><g><linearGradient x1="-521.325" y1="88.2406" x2="-501.618" y2="88.2406" gradientUnits="userSpaceOnUse" id="SVGID_29_" gradientTransform="matrix(-1 0 0 1 -299.555 0)"><stop offset="0" stop-color="#658635"/><stop offset="1" stop-color="#B4D35E"/></linearGradient><path d="M197.72 94.51 197.72 94.51 209.62 71.12 213.91 71.12 225.81 94.51 225.81 94.51C227.27 97.38 226.04 100.61 222.12 102.88 216.4 106.18 207.14 106.18 201.42 102.88 197.49 100.61 196.26 97.38 197.72 94.51Z" fill="url(#SVGID_29_)"/><path d="M210.19 70.58C209.32 71.08 209.32 71.9 210.19 72.4 211.06 72.9 212.48 72.9 213.35 72.4 214.22 71.9 214.22 71.08 213.35 70.58 212.47 70.08 211.06 70.08 210.19 70.58Z" fill="#CAD959"/></g><g><linearGradient x1="-518.112" y1="70.5159" x2="-504.734" y2="70.5159" gradientUnits="userSpaceOnUse" id="SVGID_30_" gradientTransform="matrix(-1 0 0 1 -299.555 0)"><stop offset="0" stop-color="#658635"/><stop offset="1" stop-color="#B4D35E"/></linearGradient><path d="M202.23 74.77 202.23 74.77 210.31 58.89 213.22 58.89 221.3 74.77 221.3 74.77C222.29 76.72 221.46 78.91 218.79 80.45 214.91 82.69 208.62 82.69 204.74 80.45 202.08 78.92 201.24 76.72 202.23 74.77Z" fill="url(#SVGID_30_)"/><path d="M210.69 58.53C210.1 58.87 210.1 59.43 210.69 59.77 211.28 60.11 212.24 60.11 212.83 59.77 213.42 59.43 213.42 58.87 212.83 58.53 212.25 58.18 211.29 58.18 210.69 58.53Z" fill="#CAD959"/></g></g></g></g></g><g clip-path="url(#SVGID_5_)"><ellipse cx="244.19" cy="172.46" rx="8.21" ry="4.74" fill="#A79891"/><g><g><g><linearGradient x1="-547.129" y1="161.528" x2="-540.369" y2="161.528" gradientUnits="userSpaceOnUse" id="SVGID_31_" gradientTransform="matrix(-1 0 0 1 -299.555 0)"><stop offset="0" stop-color="#E8B17E"/><stop offset="1" stop-color="#695133"/></linearGradient><path d="M240.81 171.13 240.81 149.97 247.57 149.97 247.57 171.13 247.57 171.13C247.57 171.63 247.24 172.13 246.58 172.51 245.26 173.27 243.12 173.27 241.8 172.51 241.14 172.13 240.81 171.63 240.81 171.13Z" fill="url(#SVGID_31_)"/><path d="M241.8 148.59C240.48 149.35 240.48 150.59 241.8 151.35 243.12 152.11 245.26 152.11 246.58 151.35 247.9 150.59 247.9 149.35 246.58 148.59 245.26 147.83 243.12 147.83 241.8 148.59Z" fill="#DBA777"/></g><g><g><linearGradient x1="-554.449" y1="135.336" x2="-533.371" y2="135.336" gradientUnits="userSpaceOnUse" id="SVGID_32_" gradientTransform="matrix(-1 0 0 1 -299.555 0)"><stop offset="0" stop-color="#658635"/><stop offset="1" stop-color="#B4D35E"/></linearGradient><path d="M229.17 142.04 229.17 142.04 241.9 117.03 246.49 117.03 259.22 142.04 259.22 142.04C260.78 145.11 259.47 148.57 255.27 150.99 249.16 154.52 239.24 154.52 233.13 150.99 228.93 148.57 227.61 145.12 229.17 142.04Z" fill="url(#SVGID_32_)"/><path d="M242.5 116.45C241.57 116.99 241.57 117.86 242.5 118.4 243.43 118.94 244.95 118.94 245.88 118.4 246.81 117.86 246.81 116.99 245.88 116.45 244.95 115.91 243.44 115.91 242.5 116.45Z" fill="#CAD959"/></g><g><linearGradient x1="-552.033" y1="119.184" x2="-535.715" y2="119.184" gradientUnits="userSpaceOnUse" id="SVGID_33_" gradientTransform="matrix(-1 0 0 1 -299.555 0)"><stop offset="0" stop-color="#658635"/><stop offset="1" stop-color="#B4D35E"/></linearGradient><path d="M232.57 124.38 232.57 124.38 242.42 105.02 245.97 105.02 255.82 124.38 255.82 124.38C257.03 126.76 256.01 129.43 252.76 131.31 248.03 134.04 240.35 134.04 235.62 131.31 232.38 129.43 231.36 126.75 232.57 124.38Z" fill="url(#SVGID_33_)"/><path d="M242.89 104.56C242.17 104.98 242.17 105.65 242.89 106.07 243.61 106.49 244.78 106.49 245.51 106.07 246.23 105.65 246.23 104.98 245.51 104.56 244.78 104.14 243.61 104.14 242.89 104.56Z" fill="#CAD959"/></g><g><linearGradient x1="-549.372" y1="104.507" x2="-538.295" y2="104.507" gradientUnits="userSpaceOnUse" id="SVGID_34_" gradientTransform="matrix(-1 0 0 1 -299.555 0)"><stop offset="0" stop-color="#658635"/><stop offset="1" stop-color="#B4D35E"/></linearGradient><path d="M236.3 108.03 236.3 108.03 242.99 94.88 245.4 94.88 252.09 108.03 252.09 108.03C252.91 109.64 252.22 111.46 250.01 112.73 246.8 114.59 241.59 114.59 238.37 112.73 236.17 111.46 235.48 109.65 236.3 108.03Z" fill="url(#SVGID_34_)"/><path d="M243.31 94.58C242.82 94.86 242.82 95.32 243.31 95.61 243.8 95.89 244.6 95.89 245.09 95.61 245.58 95.33 245.58 94.87 245.09 94.58 244.59 94.3 243.8 94.3 243.31 94.58Z" fill="#CAD959"/></g></g></g></g></g><g clip-path="url(#SVGID_5_)"><path d="M267.66 183.6C262.71 186.46 262.71 191.09 267.66 193.95 272.61 196.81 280.64 196.81 285.59 193.95 290.54 191.09 290.54 186.46 285.59 183.6 280.64 180.74 272.61 180.74 267.66 183.6Z" fill="#A79891"/><g><g><g><linearGradient x1="-581.395" y1="171.897" x2="-570.959" y2="171.897" gradientUnits="userSpaceOnUse" id="SVGID_35_" gradientTransform="matrix(-1 0 0 1 -299.555 0)"><stop offset="0" stop-color="#E8B17E"/><stop offset="1" stop-color="#695133"/></linearGradient><path d="M271.4 186.72 271.4 154.06 281.84 154.06 281.84 186.72 281.84 186.72C281.84 187.49 281.33 188.26 280.31 188.85 278.27 190.03 274.97 190.03 272.93 188.85 271.91 188.26 271.4 187.49 271.4 186.72Z" fill="url(#SVGID_35_)"/><path d="M272.93 151.93C270.89 153.11 270.89 155.01 272.93 156.19 274.97 157.37 278.27 157.37 280.31 156.19 282.35 155.01 282.35 153.11 280.31 151.93 278.27 150.75 274.97 150.75 272.93 151.93Z" fill="#DBA777"/></g><g><g><linearGradient x1="-592.697" y1="131.462" x2="-560.156" y2="131.462" gradientUnits="userSpaceOnUse" id="SVGID_36_" gradientTransform="matrix(-1 0 0 1 -299.555 0)"><stop offset="0" stop-color="#658635"/><stop offset="1" stop-color="#B4D35E"/></linearGradient><path d="M253.43 141.82 253.43 141.82 273.08 103.2 280.16 103.2 299.81 141.82 299.81 141.82C302.22 146.56 300.19 151.89 293.71 155.63 284.27 161.08 268.97 161.08 259.53 155.63 253.05 151.89 251.02 146.56 253.43 141.82Z" fill="url(#SVGID_36_)"/><path d="M274.01 102.3C272.57 103.13 272.57 104.48 274.01 105.31 275.45 106.14 277.79 106.14 279.23 105.31 280.67 104.48 280.67 103.13 279.23 102.3 277.79 101.47 275.45 101.47 274.01 102.3Z" fill="#CAD959"/></g><g><linearGradient x1="-588.966" y1="106.526" x2="-563.774" y2="106.526" gradientUnits="userSpaceOnUse" id="SVGID_37_" gradientTransform="matrix(-1 0 0 1 -299.555 0)"><stop offset="0" stop-color="#658635"/><stop offset="1" stop-color="#B4D35E"/></linearGradient><path d="M258.67 114.54 258.67 114.54 273.88 84.65 279.36 84.65 294.57 114.54 294.57 114.54C296.44 118.21 294.86 122.34 289.85 125.23 282.54 129.45 270.69 129.45 263.39 125.23 258.38 122.34 256.8 118.21 258.67 114.54Z" fill="url(#SVGID_37_)"/><ellipse cx="276.62" cy="85.12" rx="2.86" ry="1.65" fill="#CAD959"/></g><g><linearGradient x1="-584.859" y1="83.8687" x2="-567.757" y2="83.8687" gradientUnits="userSpaceOnUse" id="SVGID_38_" gradientTransform="matrix(-1 0 0 1 -299.555 0)"><stop offset="0" stop-color="#658635"/><stop offset="1" stop-color="#B4D35E"/></linearGradient><path d="M264.44 89.31 264.44 89.31 274.77 69.02 278.49 69.02 288.82 89.31 288.82 89.31C290.09 91.8 289.02 94.6 285.62 96.57 280.66 99.43 272.62 99.43 267.65 96.57 264.24 94.61 263.17 91.8 264.44 89.31Z" fill="url(#SVGID_38_)"/><path d="M275.25 68.54C274.49 68.98 274.49 69.69 275.25 70.12 276.01 70.56 277.23 70.56 277.99 70.12 278.75 69.68 278.75 68.97 277.99 68.54 277.24 68.11 276.01 68.11 275.25 68.54Z" fill="#CAD959"/></g></g></g></g></g><g clip-path="url(#SVGID_5_)"><linearGradient x1="-411.105" y1="101.612" x2="-394.997" y2="101.612" gradientUnits="userSpaceOnUse" id="SVGID_39_" gradientTransform="matrix(-1 0 0 1 -299.555 0)"><stop offset="0" stop-color="#658635"/><stop offset="1" stop-color="#B4D35E"/></linearGradient><path d="M93.72 101.39C88.42 104.45 88.42 109.42 93.72 112.48 99.02 115.54 107.62 115.54 112.92 112.48 118.22 109.42 118.22 104.45 112.92 101.39 107.62 98.33 99.02 98.33 93.72 101.39Z" fill="#A79891"/><path d="M91.41 103.6C91.41 110.21 96.77 111.59 103.37 111.59 109.98 111.59 115.33 110.21 115.33 103.6 115.33 96.99 109.97 91.64 103.37 91.64 96.77 91.63 91.41 96.99 91.41 103.6Z" fill="url(#SVGID_39_)"/></g></g><g><linearGradient x1="-432.756" y1="113.625" x2="-416.648" y2="113.625" gradientUnits="userSpaceOnUse" id="SVGID_40_" gradientTransform="matrix(-1 0 0 1 -299.555 0)"><stop offset="0" stop-color="#658635"/><stop offset="1" stop-color="#B4D35E"/></linearGradient><path d="M115.37 113.4C110.07 116.46 110.07 121.43 115.37 124.49 120.67 127.55 129.27 127.55 134.57 124.49 139.87 121.43 139.87 116.46 134.57 113.4 129.27 110.34 120.67 110.34 115.37 113.4Z" fill="#A79891"/><path d="M113.06 115.61C113.06 122.22 118.42 123.6 125.02 123.6 131.63 123.6 136.98 122.22 136.98 115.61 136.98 109 131.62 103.65 125.02 103.65 118.42 103.65 113.06 109 113.06 115.61Z" fill="url(#SVGID_40_)"/></g><g><linearGradient x1="-454.696" y1="126.252" x2="-438.588" y2="126.252" gradientUnits="userSpaceOnUse" id="SVGID_41_" gradientTransform="matrix(-1 0 0 1 -299.555 0)"><stop offset="0" stop-color="#658635"/><stop offset="1" stop-color="#B4D35E"/></linearGradient><path d="M137.31 126.03C132.01 129.09 132.01 134.06 137.31 137.12 142.61 140.18 151.21 140.18 156.51 137.12 161.81 134.06 161.81 129.09 156.51 126.03 151.21 122.97 142.61 122.97 137.31 126.03Z" fill="#A79891"/><path d="M135 128.24C135 134.85 140.36 136.23 146.96 136.23 153.57 136.23 158.92 134.85 158.92 128.24 158.92 121.63 153.56 116.28 146.96 116.28 140.36 116.27 135 121.63 135 128.24Z" fill="url(#SVGID_41_)"/></g><g><linearGradient x1="-476.636" y1="138.88" x2="-460.528" y2="138.88" gradientUnits="userSpaceOnUse" id="SVGID_42_" gradientTransform="matrix(-1 0 0 1 -299.555 0)"><stop offset="0" stop-color="#658635"/><stop offset="1" stop-color="#B4D35E"/></linearGradient><path d="M159.25 138.66C153.95 141.72 153.95 146.69 159.25 149.75 164.55 152.81 173.15 152.81 178.45 149.75 183.75 146.69 183.75 141.72 178.45 138.66 173.15 135.6 164.55 135.6 159.25 138.66Z" fill="#A79891"/><path d="M156.94 140.87C156.94 147.48 162.3 148.86 168.9 148.86 175.51 148.86 180.86 147.48 180.86 140.87 180.86 134.26 175.5 128.91 168.9 128.91 162.3 128.9 156.94 134.26 156.94 140.87Z" fill="url(#SVGID_42_)"/></g><g><linearGradient x1="-498.575" y1="151.507" x2="-482.467" y2="151.507" gradientUnits="userSpaceOnUse" id="SVGID_43_" gradientTransform="matrix(-1 0 0 1 -299.555 0)"><stop offset="0" stop-color="#658635"/><stop offset="1" stop-color="#B4D35E"/></linearGradient><path d="M181.19 151.29C175.89 154.35 175.89 159.32 181.19 162.38 186.49 165.44 195.09 165.44 200.39 162.38 205.69 159.32 205.69 154.35 200.39 151.29 195.09 148.22 186.49 148.22 181.19 151.29Z" fill="#A79891"/><path d="M178.88 153.49C178.88 160.1 184.24 161.48 190.84 161.48 197.45 161.48 202.8 160.1 202.8 153.49 202.8 146.88 197.44 141.53 190.84 141.53 184.24 141.53 178.88 146.89 178.88 153.49Z" fill="url(#SVGID_43_)"/></g><g><linearGradient x1="-520.515" y1="164.134" x2="-504.407" y2="164.134" gradientUnits="userSpaceOnUse" id="SVGID_44_" gradientTransform="matrix(-1 0 0 1 -299.555 0)"><stop offset="0" stop-color="#658635"/><stop offset="1" stop-color="#B4D35E"/></linearGradient><path d="M203.13 163.91C197.83 166.97 197.83 171.94 203.13 175 208.43 178.06 217.03 178.06 222.33 175 227.63 171.94 227.63 166.97 222.33 163.91 217.03 160.85 208.43 160.85 203.13 163.91Z" fill="#A79891"/><path d="M200.82 166.12C200.82 172.73 206.18 174.11 212.78 174.11 219.39 174.11 224.74 172.73 224.74 166.12 224.74 159.51 219.38 154.16 212.78 154.16 206.18 154.16 200.82 159.51 200.82 166.12Z" fill="url(#SVGID_44_)"/></g><g><linearGradient x1="-542.455" y1="176.761" x2="-526.347" y2="176.761" gradientUnits="userSpaceOnUse" id="SVGID_45_" gradientTransform="matrix(-1 0 0 1 -299.555 0)"><stop offset="0" stop-color="#658635"/><stop offset="1" stop-color="#B4D35E"/></linearGradient><path d="M225.07 176.54C219.77 179.6 219.77 184.57 225.07 187.63 230.37 190.69 238.97 190.69 244.27 187.63 249.57 184.57 249.57 179.6 244.27 176.54 238.97 173.48 230.37 173.48 225.07 176.54Z" fill="#A79891"/><path d="M222.76 178.75C222.76 185.36 228.12 186.74 234.72 186.74 241.33 186.74 246.68 185.36 246.68 178.75 246.68 172.14 241.32 166.79 234.72 166.79 228.12 166.78 222.76 172.14 222.76 178.75Z" fill="url(#SVGID_45_)"/></g><g><linearGradient x1="-564.395" y1="189.389" x2="-548.287" y2="189.389" gradientUnits="userSpaceOnUse" id="SVGID_46_" gradientTransform="matrix(-1 0 0 1 -299.555 0)"><stop offset="0" stop-color="#658635"/><stop offset="1" stop-color="#B4D35E"/></linearGradient><path d="M247.01 189.17C241.71 192.23 241.71 197.2 247.01 200.26 252.31 203.32 260.91 203.32 266.21 200.26 271.51 197.2 271.51 192.23 266.21 189.17 260.91 186.11 252.31 186.11 247.01 189.17Z" fill="#A79891"/><path d="M244.7 191.37C244.7 197.98 250.06 199.36 256.66 199.36 263.27 199.36 268.62 197.98 268.62 191.37 268.62 184.76 263.26 179.41 256.66 179.41 250.05 179.41 244.7 184.77 244.7 191.37Z" fill="url(#SVGID_46_)"/></g><g><linearGradient x1="-586.335" y1="202.016" x2="-570.227" y2="202.016" gradientUnits="userSpaceOnUse" id="SVGID_47_" gradientTransform="matrix(-1 0 0 1 -299.555 0)"><stop offset="0" stop-color="#658635"/><stop offset="1" stop-color="#B4D35E"/></linearGradient><path d="M268.95 201.79C263.65 204.85 263.65 209.82 268.95 212.88 274.25 215.94 282.85 215.94 288.15 212.88 293.45 209.82 293.45 204.85 288.15 201.79 282.85 198.73 274.25 198.73 268.95 201.79Z" fill="#A79891"/><path d="M266.64 204C266.64 210.61 272 211.99 278.6 211.99 285.21 211.99 290.56 210.61 290.56 204 290.56 197.39 285.2 192.04 278.6 192.04 271.99 192.04 266.64 197.39 266.64 204Z" fill="url(#SVGID_47_)"/></g></g><g><path d="M195.17 219.66 273.37 265.15 281.1 260.69 202.9 215.2Z" fill="#E7ECEF"/><path d="M184.59 225.77 262.79 271.26 270.52 266.8 192.32 221.31Z" fill="#E7ECEF"/><path d="M172.88 232.36 251.08 277.85 258.81 273.39 180.61 227.89Z" fill="#E7ECEF"/><path d="M160.77 239.35 238.97 284.84 246.7 280.38 168.5 234.89Z" fill="#E7ECEF"/><path d="M148.66 246.34 226.86 291.84 234.59 287.37 156.39 241.88Z" fill="#E7ECEF"/><path d="M136.56 253.33 214.75 298.83 222.48 294.37 144.28 248.87Z" fill="#E7ECEF"/><path d="M125.06 260.25 203.26 305.75 210.98 301.29 132.79 255.79Z" fill="#E7ECEF"/><path d="M113.35 266.84 191.55 312.34 199.28 307.88 121.08 262.38Z" fill="#E7ECEF"/><path d="M101.24 273.83 179.44 319.33 187.17 314.87 108.97 269.37Z" fill="#E7ECEF"/></g><path d="M66.86 327.58 186.11 327.58 66.83 258.22Z" fill="#AD95A6"/><g><defs><rect x="66.83" y="102.9" width="225" height="225" id="SVGID_48_"/></defs><clipPath id="SVGID_49_"><use width="100%" height="100%" xlink:href="#SVGID_48_" overflow="visible"></use></clipPath><g clip-path="url(#SVGID_49_)"><path d="M1.53 190.45 146.86 274.36C149.35 275.8 152.42 275.8 154.91 274.36L205.13 245.36C207.17 244.18 207.17 241.24 205.13 240.06L59.8 156.16C57.31 154.72 54.24 154.72 51.75 156.16L1.53 185.16C-0.51 186.33-0.51 189.27 1.53 190.45Z" fill="#A79891"/><g><path d="M111.84 240.7 132.06 229.41C132.06 229.41 124.26 223.29 119.53 223.13 114.81 222.97 109.41 234.62 111.84 240.7Z" fill="#363241"/><g><g><path d="M138.17 248.72C138.15 254.35 134.17 256.63 129.26 253.8 124.36 250.97 120.39 244.11 120.41 238.47 120.43 232.84 124.41 230.56 129.32 233.39 134.22 236.23 138.18 243.09 138.17 248.72Z"/></g><g><g><path d="M130.52 256.67 137.19 252.8C135.58 253.72 133.46 253.5 131.19 252.19 128.93 250.89 126.81 248.65 125.21 245.89L118.54 249.77C120.14 252.53 122.26 254.77 124.52 256.07 126.79 257.36 128.92 257.58 130.52 256.67Z" fill="#6B797F"/></g><g><path d="M118.55 249.75 125.22 245.87C123.62 243.11 122.76 240.15 122.76 237.56 122.77 234.96 123.65 233.02 125.26 232.11L118.59 235.98C116.98 236.9 116.1 238.83 116.09 241.43 116.09 244.04 116.95 246.99 118.55 249.75Z" fill="#6B797F"/></g><g><path d="M125.31 232.27 118.64 236.15C120.16 235.27 122.27 235.39 124.59 236.73L131.26 232.86C128.93 231.51 126.83 231.39 125.31 232.27Z" fill="#AEB1B2"/></g><g><path d="M123.56 229.26 116.89 233.14C118.86 232 121.59 232.16 124.59 233.89L131.26 230.01C128.25 228.28 125.52 228.11 123.56 229.26Z" fill="#3C3C3C"/></g><g><path d="M130.48 256.5 137.15 252.62C138.65 251.75 139.58 249.9 139.59 247.27 139.61 241.97 135.86 235.5 131.26 232.84L124.59 236.71C129.2 239.37 132.94 245.84 132.92 251.14 132.91 253.78 131.98 255.63 130.48 256.5Z" fill="#AEB1B2"/></g><g><path d="M132.23 259.53 138.9 255.65C140.84 254.52 142.05 252.12 142.06 248.71 142.08 241.84 137.25 233.47 131.27 230.02L124.6 233.9C130.58 237.35 135.41 245.72 135.39 252.59 135.37 255.99 134.17 258.4 132.23 259.53Z" fill="#3C3C3C"/></g><g><path d="M135.38 252.58C135.36 259.45 130.5 262.22 124.52 258.77 118.54 255.32 113.71 246.95 113.73 240.08 113.75 233.21 118.61 230.44 124.59 233.89 130.57 237.34 135.4 245.71 135.38 252.58ZM118.63 249.71C120.2 252.44 122.3 254.64 124.53 255.93 126.76 257.22 128.86 257.44 130.44 256.53 132.02 255.63 132.9 253.71 132.9 251.15 132.91 248.58 132.05 245.68 130.48 242.95 128.91 240.22 126.82 238.01 124.58 236.72 122.35 235.43 120.25 235.22 118.67 236.13 117.09 237.03 116.22 238.94 116.21 241.51 116.2 244.07 117.06 246.98 118.63 249.71L118.63 249.71Z" fill="#626262"/></g><g><path d="M133.44 251.45C133.42 257.08 129.44 259.36 124.53 256.53 119.63 253.7 115.66 246.84 115.68 241.2 115.7 235.57 119.68 233.29 124.59 236.12 129.49 238.96 133.45 245.82 133.44 251.45ZM118.78 249.62C120.31 252.28 122.36 254.43 124.53 255.68 126.71 256.94 128.75 257.15 130.29 256.27 131.83 255.39 132.68 253.52 132.69 251.03 132.7 248.53 131.86 245.7 130.33 243.04 128.8 240.38 126.76 238.23 124.58 236.97 122.41 235.72 120.36 235.51 118.82 236.39 117.28 237.27 116.43 239.13 116.42 241.63 116.41 244.13 117.25 246.96 118.78 249.62L118.78 249.62Z" fill="#3C3C3C"/></g><g><path d="M130.17 248.2C130.16 251.01 128.17 252.15 125.73 250.73 123.28 249.32 121.31 245.89 121.31 243.08 121.32 240.27 123.31 239.13 125.75 240.55 128.2 241.97 130.18 245.39 130.17 248.2Z" fill="#2A517C"/></g><g><g><path d="M123.98 255.04 124.74 254.58C122.98 253.43 121.38 251.69 120.13 249.71L119.38 250.17C120.62 252.15 122.22 253.89 123.98 255.04Z" fill="#AEB1B2"/></g><g><path d="M118.59 248.84 119.34 248.38C118.26 246.3 117.55 244.05 117.44 241.95L116.69 242.41C116.8 244.5 117.51 246.76 118.59 248.84Z" fill="#AEB1B2"/></g><g><path d="M125.07 255.67 125.83 255.21 126.16 248.89 125.4 249.36Z" fill="#AEB1B2"/></g><g><path d="M122.39 243.98 123.15 243.52 117.45 240.69 116.69 241.15Z" fill="#AEB1B2"/></g><g><path d="M129.73 256.3 130.46 255.69C129.2 256.22 127.59 256.1 125.83 255.22L125.07 255.68C126.84 256.56 128.47 256.83 129.73 256.3Z" fill="#AEB1B2"/></g><g><path d="M116.69 241.15 117.44 240.69C117.57 238.74 118.28 237.3 119.38 236.49L118.62 236.95C117.53 237.76 116.83 239.21 116.69 241.15Z" fill="#AEB1B2"/></g><g><path d="M130.51 255.86 131.24 255.24 127.48 248.22 126.72 248.68Z" fill="#AEB1B2"/></g><g><path d="M123.71 243.29 124.47 242.83 120.16 236.04 119.4 236.51Z" fill="#AEB1B2"/></g><g><path d="M132.43 250.25 132.73 249.5 127.53 246.16 126.77 246.63Z" fill="#AEB1B2"/></g><g><path d="M125.52 244.39 126.28 243.93 125.89 237.72 125.13 237.61Z" fill="#AEB1B2"/></g><g><path d="M129.75 242.54 130.07 242.22 126.28 243.93 125.52 244.39Z" fill="#AEB1B2"/></g><g><path d="M126.77 246.63 127.53 246.16 130.83 243.7 130.52 243.82Z" fill="#AEB1B2"/></g><path d="M132.92 251.15C132.91 256.44 129.14 258.58 124.53 255.92 119.92 253.26 116.18 246.79 116.2 241.5 116.21 236.2 119.98 234.06 124.59 236.72 129.19 239.38 132.93 245.85 132.92 251.15ZM130.48 255.7C131.58 254.89 132.29 253.45 132.42 251.49L126.72 248.68 130.48 255.7 130.48 255.7ZM125.13 237.61 125.52 244.4 129.75 242.49C128.5 240.51 126.89 238.76 125.13 237.61L125.13 237.61ZM118.63 236.96C117.53 237.77 116.82 239.21 116.69 241.16L122.39 243.98 118.63 236.96 118.63 236.96ZM123.98 255.04 123.59 248.25 119.36 250.16C120.62 252.15 122.22 253.89 123.98 255.04L123.98 255.04ZM130.52 243.82 126.77 246.62 132.42 250.24C132.31 248.15 131.61 245.89 130.52 243.82L130.52 243.82ZM118.59 248.84 122.34 246.03 116.69 242.42C116.8 244.5 117.51 246.76 118.59 248.84L118.59 248.84ZM119.4 236.51 123.71 243.3 124.04 236.98C122.27 236.09 120.67 235.98 119.4 236.51L119.4 236.51ZM129.71 256.14 125.4 249.35 125.07 255.67C126.84 256.56 128.45 256.67 129.71 256.14L129.71 256.14Z" fill="#DAD9D9"/></g></g><g><path d="M122.57 245.59C122.56 244.78 123.12 244.44 123.81 244.83 124.51 245.22 125.08 246.19 125.09 246.99 125.1 247.8 124.54 248.14 123.85 247.75 123.15 247.36 122.58 246.39 122.57 245.59Z" fill="#AEB1B2"/><path d="M122.61 245.22C122.61 245.2 122.77 244.61 122.77 244.59 122.95 243.89 123.58 243.66 124.33 244.08 125.24 244.58 125.98 245.84 125.99 246.89 126 247.78 125.48 248.23 124.77 248.04 124.77 248.04 124.21 247.89 124.2 247.89 124.18 247.88 124.16 247.88 124.14 247.87 124.69 248.02 125.09 247.67 125.08 246.99 125.07 246.18 124.5 245.22 123.8 244.83 123.23 244.51 122.75 244.69 122.61 245.22Z" fill="#C5C8C9"/></g></g><path d="M158.04 174.02C158.04 174.02 160.78 171.85 162.77 170.8 164.77 169.75 165.41 172.67 165.45 174.19 165.49 175.71 163.45 179.18 163.45 179.18L158.04 174.02Z" fill="#5AA0DE"/><path d="M62.81 128.59C55.36 130.01 39.43 135.57 26.93 148.29 26.35 148.88 26.55 149.88 27.32 150.21L35.86 153.98 35.86 153.98C39.31 147.82 46.25 143.57 52.57 140.41L57.46 137.97C63.65 134.88 68.87 132.83 75.42 131.09L77.08 130.85C77.06 130.84 66.97 127.8 62.81 128.59Z" fill="#5AA0DE"/><path d="M89.39 132.06 50.08 155.35C49.75 155.27 49.44 155.22 49.18 155.18 43.54 154.23 35.85 153.97 35.85 153.97 35.85 153.97 37.63 148.54 51.33 140.52 65.01 132.51 77.07 130.85 77.07 130.85 77.07 130.85 80.75 131.31 89.39 132.06Z" fill="#83B8E6"/><path d="M198.53 217.04C198.14 213.41 195.35 205.86 189.73 199.19 193.17 204.45 194.25 208.68 193.65 211.66 192.9 215.35 179.24 223.73 169.69 228.42 160.14 233.12 150.31 231.92 142.9 230.23 135.49 228.54 124.19 217.03 124.19 217.03L124.19 228.22C124.79 228.51 125.41 228.83 126.07 229.23 141.55 238.48 134.62 250.12 138.64 256.35 140.36 259 160 257.6 173.24 251.91 182.91 247.74 189.5 243.02 194.62 237.82 196.79 235.61 198.09 232.7 198.3 229.61 198.54 226.06 198.85 220.07 198.53 217.04Z" fill="#35669C"/><path d="M114.53 210.66 114.53 198.96C114.53 198.96 106.75 187.93 103.81 184.54 90.78 169.49 54.83 156.11 49.18 155.17 43.53 154.23 35.84 153.97 35.84 153.97L26.69 148.67 23.07 155.68C23.07 155.68 19.92 157.06 19.64 163.39 19.48 167.02 18.16 183.99 20.24 186.63L22.72 189.29C22.72 189.29 21.14 170.84 34.82 176.82 48.51 182.8 47.65 203.21 47.65 203.21L111.11 240.26 111.11 220.6 114.53 210.66Z" fill="#2A517C"/><path d="M49.87 173.56C32.42 161.24 23.07 155.68 23.07 155.68 23.07 155.68 22.39 156.26 21.5 157.39 19.57 159.87 20.07 163.46 22.51 165.44 29.23 170.88 43.17 182.05 49.35 186.1 57.65 191.55 111.1 220.6 111.1 220.6L114.52 210.66C106.4 207.14 67.32 185.87 49.87 173.56Z" fill="#35669C"/><path d="M114.53 198.96C114.53 198.96 122.18 210.68 127.36 211.7 132.54 212.73 151.26 202.71 156.7 199.18 162.22 195.59 173.93 187.07 171.7 185.15 169.48 183.23 142.81 160.02 141.82 160.52 139.77 161.55 133.9 163.81 128.51 166.85 123.12 169.89 104.68 181.69 102.58 183.19 102.58 183.19 103.41 184.01 104.3 185.14 106.78 188.26 114.53 198.96 114.53 198.96Z" fill="#83B8E6"/><path d="M141.82 160.52 141.13 160.86C141.13 160.86 168.76 183.63 170.99 185.56L171.7 185.15C169.48 183.23 142.81 160.02 141.82 160.52Z" fill="#35669C"/><path d="M144.07 231.33C143.06 231.01 141.98 230.92 140.98 231.28 140.02 231.63 139.16 232.36 139.59 233.87 140.45 236.89 147.67 239.98 153.67 240.02 159.67 240.05 160.46 238.21 160.33 236.58 160.29 236.05 160.27 235.6 160.19 234.95 160.07 234.01 159.76 233.04 158.97 232.65 158.54 232.44 158.06 232.34 157.55 232.38 154.35 232.64 148.72 232.79 144.07 231.33Z" fill="#FFFFFF"/><path d="M160.67 236.6C160.63 236.07 160.55 235.41 160.47 234.76 160.35 233.82 159.76 233.05 158.96 232.66 159.38 233.07 159.67 233.62 159.75 234.25 159.83 234.9 159.91 235.56 159.95 236.09 160.08 237.72 159.15 239.77 153.15 239.73 149.08 239.71 144.37 238.18 141.48 236.25 144.25 238.41 149.44 240.21 153.86 240.24 159.87 240.28 160.8 238.22 160.67 236.6Z" fill="#2A517C"/><path d="M193.99 210.21C193.99 210.21 193.22 212.38 193.99 214.61 194.76 216.84 195.74 218.29 196.38 217.03 196.8 216.21 196.34 213.82 195.74 211.4 195.42 210.11 195.06 208.79 194.65 207.82 193.73 205.61 193.64 206.02 193.64 206.02 193.64 206.02 194.59 208.46 193.99 210.21Z" fill="#FFFFFF"/><path d="M194.77 207.75C193.69 204.91 193.64 206.02 193.64 206.02 193.64 206.02 193.65 206.06 193.67 206.1 193.83 206.24 194.1 206.71 194.59 207.99 195.67 210.83 196.84 216.01 196.2 217.27 196.17 217.32 196.15 217.34 196.12 217.38 196.21 217.3 196.3 217.19 196.38 217.03 197.02 215.77 195.86 210.59 194.77 207.75Z" fill="#2A517C"/><path d="M163.82 230.93C162.92 231.24 162.29 232.06 162.25 233.01 162.14 235.32 162.4 239.28 165.46 238.95 169.75 238.48 179.91 232.58 183.45 230.33 188.87 226.88 194.94 222.28 194.94 219.95 194.94 218.04 194.17 217.07 193.35 215.89 192.86 215.19 191.88 215.05 191.2 215.57 189.13 217.14 184.35 220.67 179.68 223.47 173.93 226.91 169.58 228.92 163.82 230.93Z" fill="#2A517C"/><path d="M163.63 230.96C162.84 231.24 162.28 231.95 162.24 232.79 162.15 234.82 162.37 238.32 165.07 238.03 168.85 237.62 180.02 231.81 183.14 229.83 187.92 226.79 193.27 222.73 193.27 220.68 193.27 219 192.59 218.14 191.87 217.1 191.44 216.48 190.57 216.36 189.97 216.82 188.14 218.21 183.93 221.32 179.81 223.79 174.75 226.81 168.71 229.19 163.63 230.96Z" fill="#363241"/><path d="M150.54 246.11C153.89 245.96 162.43 246.13 170.51 242.97 178.59 239.81 192.11 231.34 194.93 226.59 197.75 221.84 198.01 223.77 197.88 225.39 197.75 227.02 198.35 231.6 194.93 235.51 191.51 239.42 178.85 246.8 174.23 249.53 169.61 252.25 162.9 252.68 158.24 253.02 153.58 253.36 147.33 253.23 146.69 251.74 146.05 250.24 145.49 246.34 150.54 246.11Z" fill="#363241"/><path d="M196.56 224.22C196.56 224.35 196.55 224.49 196.54 224.62 196.41 226.25 197.01 230.83 193.59 234.74 190.17 238.65 177.4 245.85 172.78 248.58 168.16 251.3 161.32 251.62 156.66 251.96 153.16 252.22 149.01 252.5 146.77 251.85 147.66 253.25 153.7 253.36 158.24 253.03 162.9 252.69 169.62 252.26 174.23 249.54 178.85 246.82 191.51 239.43 194.93 235.52 198.35 231.61 197.75 227.03 197.88 225.4 197.98 224.16 197.85 222.77 196.56 224.22Z" fill="#2A517C"/><g><path d="M142.9 230.23C150.31 231.92 160.14 233.12 169.69 228.42 179.24 223.72 192.89 215.34 193.65 211.66 194.26 208.68 193.17 204.45 189.73 199.19 188.4 197.62 186.92 196.09 185.27 194.68 181.53 191.47 177.24 187.98 172.74 184.36L171.7 185.16 127.4 211.76 124.2 217.04C124.2 217.03 135.5 228.54 142.9 230.23Z" fill="#2A517C"/><path d="M154.72 169.8C144.38 161.24 142.93 159.96 142.93 159.96L141.82 160.51 171.7 185.14 172.74 184.34C166.85 179.61 160.6 174.65 154.72 169.8Z" fill="#2A517C"/><path d="M114.52 198.96 114.52 210.66 124.2 217.03 127.4 211.75Z" fill="#2A517C"/><path d="M114.52 210.66 111.11 220.6 124.2 228.22 124.2 217.03Z" fill="#35669C"/><path d="M111.11 240.27 111.85 240.7C111.85 240.7 110.73 221.73 124.2 228.22L111.11 220.6 111.11 240.27Z" fill="#2A517C"/></g><path d="M44.21 167.75C43.45 167.24 42.96 166.41 42.91 165.5 42.78 163.37 43.2 159.68 47.5 159.08 53.6 158.22 70.99 166.63 77.38 170.72 83.77 174.81 94.77 181.52 99.56 187.22 104.35 192.92 112.35 204.77 112.96 208.04 113.57 211.31 78.63 190.04 71.68 185.88 65.66 182.28 48.7 170.79 44.21 167.75Z" fill="#5AA0DE" opacity="0.75"/><path d="M73.02 185.1C67.01 181.5 50.04 170.02 45.55 166.97 44.79 166.46 44.3 165.63 44.25 164.72 44.16 163.19 44.36 160.84 46.09 159.43 43.11 160.56 42.8 163.63 42.91 165.5 42.96 166.41 43.45 167.24 44.21 167.75 48.7 170.8 65.66 182.28 71.68 185.88 78.64 190.04 113.57 211.31 112.96 208.04 112.93 207.87 112.87 207.67 112.8 207.47 107.15 205.65 78.9 188.62 73.02 185.1Z" fill="#35669C"/><g><path d="M70.95 216.87C71.13 216.87 71.28 216.72 71.28 216.53L71.28 198.56C71.28 193.52 72.78 188.29 72.79 188.24L73.38 186.85C73.45 186.68 73.37 186.48 73.2 186.41 73.03 186.33 72.83 186.42 72.76 186.59L72.15 188.02C72.12 188.11 70.6 193.43 70.6 198.57L70.6 216.54C70.62 216.72 70.77 216.87 70.95 216.87Z" fill="#35669C"/></g><path d="M76.34 196.4C76.34 196.4 80.44 198.19 82.89 200.73 85.34 203.27 79.86 200.86 78.15 199.68 76.48 198.52 73.92 195.15 76.34 196.4Z" fill="#5AA0DE"/><g><path d="M110.25 206.02C110.25 206.02 109.39 204.26 107.47 203.11 105.92 202.19 101.47 205.43 99.79 206.74 99.37 207.07 99.13 207.56 99.13 208.1 99.13 208.1 105.47 209.74 110.25 206.02Z" fill="#5AA0DE"/><path d="M110.25 206.02C105.47 209.74 99.13 208.1 99.13 208.1L99.13 209.4C99.13 210.34 99.89 211.12 100.83 211.12 102.33 211.13 104.74 211.05 107.77 210.66 113.02 209.98 113.24 208.76 113.24 208.76L112.42 205.93 110.25 206.02Z" fill="#2A517C"/></g><path d="M142.93 159.97C142.93 159.97 123.81 169.24 102.58 183.19 89.74 169.63 57.05 156.88 50.07 155.35 51.93 152.68 56.13 147.9 65.01 142.25 73.55 136.81 82.54 133.73 89.38 132.07 90.76 132.27 92.3 132.5 94.02 132.77 112.18 135.57 142.93 159.97 142.93 159.97Z" fill="#5AA0DE"/><path d="M171.7 185.15 127.36 211.71C127.36 211.71 142.49 228.78 153.02 227.28 163.55 225.78 183.3 216.5 188.94 208.46 194.59 200.42 171.7 185.15 171.7 185.15Z" fill="#5AA0DE"/></g></g></g><g><g><ellipse cx="94" cy="314.82" rx="5.39" ry="3.11" fill="#A79891"/><path d="M94 226.17C92.9 226.17 92.01 227.06 92.01 228.16L92.01 314.71 92.01 314.71C92.01 315 92.2 315.3 92.59 315.52 93.37 315.97 94.63 315.97 95.41 315.52 95.8 315.3 95.99 315 95.99 314.71L95.99 314.71 95.99 228.16C95.99 227.06 95.1 226.17 94 226.17Z" fill="#3C3C3C"/></g><g><g><g><path d="M101.29 238 104.37 239.79C104.48 239.86 104.59 239.93 104.69 240.02L101.61 238.23C101.51 238.15 101.41 238.07 101.29 238Z" fill="#626262"/></g><g><path d="M101.48 237.69 104.56 239.48C103.76 239.02 102.69 239.11 101.54 239.77L98.46 237.98C99.61 237.32 100.68 237.23 101.48 237.69Z" fill="#878787"/></g><g><path d="M97.3 247.12 94.22 245.33C94.21 242.64 96.11 239.34 98.46 237.99L101.54 239.78C99.2 241.13 97.29 244.42 97.3 247.12Z" fill="#878787"/></g><g><path d="M101.54 239.78C102.86 239.02 104.08 239.01 104.9 239.73L104.7 240.03C103.93 239.35 102.79 239.37 101.55 240.08 99.35 241.35 97.56 244.45 97.57 246.97L97.31 247.12C97.29 244.42 99.2 241.13 101.54 239.78Z" fill="#626262"/></g></g></g><g><g><g><path d="M101.29 250.53 104.37 252.32C104.48 252.38 104.59 252.46 104.69 252.55L101.61 250.76C101.51 250.68 101.41 250.6 101.29 250.53Z" fill="#626262"/></g><g><path d="M101.48 250.22 104.56 252.01C103.76 251.55 102.69 251.64 101.54 252.3L98.46 250.51C99.61 249.85 100.68 249.76 101.48 250.22Z" fill="#878787"/></g><g><path d="M97.3 259.65 94.22 257.86C94.21 255.17 96.11 251.87 98.46 250.52L101.54 252.31C99.2 253.66 97.29 256.96 97.3 259.65Z" fill="#878787"/></g><g><path d="M101.54 252.31C102.86 251.55 104.08 251.54 104.9 252.26L104.7 252.56C103.93 251.88 102.79 251.9 101.55 252.61 99.35 253.88 97.56 256.98 97.57 259.5L97.31 259.65C97.29 256.96 99.2 253.66 101.54 252.31Z" fill="#626262"/></g></g></g><g><g><ellipse cx="104.69" cy="236.87" rx="7.81" ry="13.81" fill="#EF0011" opacity="0" transform="matrix(0.7992 -0.6011 0.6011 0.7992 -121.36 110.502)"/><ellipse cx="104.69" cy="236.87" rx="7.58" ry="13.4" fill="#EF0011" opacity="0.0385" transform="matrix(0.7992 -0.6011 0.6011 0.7992 -121.36 110.502)"/><ellipse cx="104.69" cy="236.87" rx="7.35" ry="12.99" fill="#EF0011" opacity="0.0769" transform="matrix(0.7992 -0.6011 0.6011 0.7992 -121.36 110.502)"/><path d="M95.23 231.41C95.23 236.64 99.47 243.32 104.69 246.34 109.92 249.36 114.15 247.57 114.15 242.34 114.15 237.11 109.91 230.43 104.69 227.41 99.47 224.39 95.23 226.18 95.23 231.41Z" fill="#EF0011" opacity="0.1154"/><ellipse cx="104.69" cy="236.87" rx="6.89" ry="12.17" fill="#EF0011" opacity="0.1538" transform="matrix(0.7992 -0.6011 0.6011 0.7992 -121.36 110.502)"/><ellipse cx="104.69" cy="236.87" rx="6.66" ry="11.77" fill="#EF0011" opacity="0.1923" transform="matrix(0.7992 -0.6011 0.6011 0.7992 -121.36 110.502)"/><path d="M96.15 231.94C96.15 236.66 99.97 242.69 104.69 245.41 109.41 248.13 113.23 246.52 113.23 241.8 113.23 237.08 109.41 231.05 104.69 228.33 99.98 225.61 96.15 227.22 96.15 231.94Z" fill="#EF0011" opacity="0.2308"/><ellipse cx="104.69" cy="236.87" rx="6.19" ry="10.95" fill="#EF0011" opacity="0.2692" transform="matrix(0.7992 -0.6011 0.6011 0.7992 -121.36 110.503)"/><path d="M96.77 232.3C96.77 236.68 100.32 242.28 104.7 244.8 109.08 247.33 112.63 245.83 112.63 241.45 112.63 237.07 109.08 231.47 104.7 228.95 100.31 226.42 96.77 227.92 96.77 232.3Z" fill="#EF0011" opacity="0.3077"/><ellipse cx="104.69" cy="236.87" rx="5.73" ry="10.13" fill="#EF0011" opacity="0.3462" transform="matrix(0.7992 -0.6011 0.6011 0.7992 -121.36 110.502)"/><ellipse cx="104.69" cy="236.87" rx="5.5" ry="9.72" fill="#EF0011" opacity="0.3846" transform="matrix(0.7992 -0.6011 0.6011 0.7992 -121.36 110.502)"/><path d="M97.69 232.83C97.69 236.7 100.83 241.65 104.7 243.88 108.57 246.11 111.7 244.79 111.7 240.92 111.7 237.05 108.56 232.1 104.7 229.87 100.82 227.63 97.69 228.96 97.69 232.83Z" fill="#EF0011" opacity="0.4231"/><path d="M98 233.01C98 236.71 101 241.44 104.7 243.57 108.4 245.71 111.4 244.44 111.4 240.74 111.4 237.04 108.4 232.31 104.7 230.18 100.99 228.04 98 229.31 98 233.01Z" fill="#EF0011" opacity="0.4615"/><path d="M98.3 233.18C98.3 236.71 101.16 241.22 104.69 243.26 108.22 245.3 111.08 244.09 111.08 240.56 111.08 237.03 108.22 232.52 104.69 230.48 101.16 228.45 98.3 229.65 98.3 233.18Z" fill="#EF0011" opacity="0.5"/><path d="M98.61 233.36C98.61 236.72 101.33 241.02 104.69 242.95 108.05 244.89 110.77 243.74 110.77 240.38 110.77 237.02 108.05 232.72 104.69 230.79 101.33 228.85 98.61 230 98.61 233.36Z" fill="#EF0011" opacity="0.5385"/><path d="M98.92 233.54C98.92 236.73 101.51 240.81 104.7 242.65 107.89 244.49 110.48 243.4 110.48 240.21 110.48 237.02 107.89 232.94 104.7 231.1 101.5 229.26 98.92 230.35 98.92 233.54Z" fill="#EF0011" opacity="0.5769"/><path d="M99.22 233.72C99.22 236.74 101.67 240.6 104.69 242.34 107.71 244.08 110.16 243.05 110.16 240.03 110.16 237.01 107.71 233.15 104.69 231.4 101.67 229.66 99.22 230.7 99.22 233.72Z" fill="#EF0011" opacity="0.6154"/><path d="M99.53 233.89C99.53 236.74 101.84 240.38 104.69 242.03 107.54 243.68 109.85 242.7 109.85 239.85 109.85 237 107.54 233.36 104.69 231.71 101.84 230.07 99.53 231.04 99.53 233.89Z" fill="#EF0011" opacity="0.6538"/><ellipse cx="104.69" cy="236.87" rx="3.65" ry="6.45" fill="#EF0011" opacity="0.6923" transform="matrix(0.7992 -0.6011 0.6011 0.7992 -121.36 110.502)"/><path d="M100.15 234.25C100.15 236.76 102.19 239.97 104.7 241.42 107.21 242.87 109.25 242.01 109.25 239.5 109.25 236.99 107.21 233.78 104.7 232.33 102.18 230.88 100.15 231.74 100.15 234.25Z" fill="#EF0011" opacity="0.7308"/><path d="M100.45 234.43C100.45 236.77 102.35 239.76 104.69 241.12 107.03 242.47 108.93 241.67 108.93 239.33 108.93 236.99 107.03 234 104.69 232.64 102.35 231.28 100.45 232.09 100.45 234.43Z" fill="#EF0011" opacity="0.7692"/><path d="M100.76 234.6C100.76 236.77 102.52 239.55 104.69 240.8 106.86 242.05 108.62 241.31 108.62 239.14 108.62 236.97 106.86 234.19 104.69 232.94 102.52 231.69 100.76 232.43 100.76 234.6Z" fill="#EF0011" opacity="0.8077"/><path d="M101.07 234.78C101.07 236.78 102.69 239.34 104.69 240.5 106.69 241.66 108.31 240.97 108.31 238.97 108.31 236.97 106.69 234.41 104.69 233.25 102.69 232.09 101.07 232.78 101.07 234.78Z" fill="#EF0011" opacity="0.8462"/><path d="M101.38 234.96C101.38 236.79 102.86 239.13 104.7 240.19 106.53 241.25 108.02 240.62 108.02 238.79 108.02 236.96 106.54 234.62 104.7 233.56 102.86 232.5 101.38 233.13 101.38 234.96Z" fill="#EF0011" opacity="0.8846"/><path d="M101.68 235.14C101.68 236.8 103.03 238.93 104.69 239.89 106.35 240.85 107.7 240.28 107.7 238.62 107.7 236.96 106.35 234.83 104.69 233.87 103.03 232.9 101.68 233.47 101.68 235.14Z" fill="#EF0011" opacity="0.9231"/><path d="M101.99 235.31C101.99 236.8 103.2 238.71 104.69 239.57 106.18 240.43 107.39 239.92 107.39 238.43 107.39 236.94 106.18 235.03 104.69 234.17 103.2 233.31 101.99 233.82 101.99 235.31Z" fill="#EF0011" opacity="0.9615"/><ellipse cx="104.69" cy="236.87" rx="1.8" ry="3.18" fill="#EF0011" transform="matrix(0.7992 -0.6011 0.6011 0.7992 -121.359 110.501)"/></g><g><g><g><g><path d="M99.12 242.98 96.04 244.77C95.93 244.84 95.82 244.91 95.72 245L98.8 243.21C98.9 243.12 99.01 243.05 99.12 242.98Z" fill="#626262"/></g><g><path d="M98.94 242.67 95.86 244.46C96.66 244 97.73 244.09 98.88 244.75L101.96 242.96C100.81 242.3 99.73 242.21 98.94 242.67Z" fill="#878787"/></g><g><path d="M103.11 252.1 106.19 250.31C106.2 247.62 104.3 244.32 101.95 242.97L98.87 244.76C101.22 246.11 103.12 249.4 103.11 252.1Z" fill="#878787"/></g><g><path d="M98.87 244.76C97.55 244 96.33 243.99 95.51 244.71L95.71 245.01C96.48 244.33 97.62 244.35 98.86 245.06 101.06 246.33 102.85 249.43 102.84 251.95L103.1 252.1C103.12 249.4 101.22 246.11 98.87 244.76Z" fill="#626262"/></g></g></g><g><g><g><path d="M99.12 230.74 96.04 232.53C95.93 232.6 95.82 232.67 95.72 232.76L98.8 230.97C98.9 230.88 99.01 230.81 99.12 230.74Z" fill="#626262"/></g><g><path d="M98.94 230.43 95.86 232.22C96.66 231.76 97.73 231.85 98.88 232.51L101.96 230.72C100.81 230.06 99.73 229.97 98.94 230.43Z" fill="#878787"/></g><g><path d="M103.11 239.86 106.19 238.07C106.2 235.38 104.3 232.08 101.95 230.73L98.87 232.52C101.22 233.87 103.12 237.16 103.11 239.86Z" fill="#878787"/></g><g><path d="M98.87 232.51C97.55 231.75 96.33 231.74 95.51 232.46L95.71 232.76C96.48 232.08 97.62 232.1 98.86 232.81 101.06 234.08 102.85 237.18 102.84 239.7L103.1 239.85C103.12 237.16 101.22 233.87 98.87 232.51Z" fill="#626262"/></g></g></g></g><g><g><path d="M103.45 233.98 103.37 263.29 94.02 268.72 94.1 239.42Z" fill="#3C3C3C"/><path d="M94.1 239.42 94.02 268.72 84.6 263.29 84.69 233.98Z" fill="#626262"/><path d="M103.45 233.98 94.1 239.42 84.69 233.98 94.04 228.55Z" fill="#878787"/></g></g></g><path d="M94 199.44C92.9 199.44 92.01 200.33 92.01 201.43L92.01 233.01 92.01 233.01C92.01 233.3 92.2 233.6 92.59 233.82 93.37 234.27 94.63 234.27 95.41 233.82 95.8 233.6 95.99 233.3 95.99 233.01L95.99 233.01 95.99 201.43C95.99 200.33 95.1 199.44 94 199.44Z" fill="#3C3C3C"/><g><g><g><g><g><path d="M99.33 205.43 96.25 207.22C96.14 207.28 96.03 207.36 95.93 207.45L99.01 205.66C99.11 205.57 99.22 205.49 99.33 205.43Z" fill="#626262"/></g><g><path d="M99.14 205.12 96.06 206.91C96.86 206.45 97.93 206.54 99.08 207.2L102.16 205.41C101.01 204.75 99.94 204.65 99.14 205.12Z" fill="#878787"/></g><g><path d="M103.32 214.54 106.4 212.75C106.41 210.06 104.51 206.76 102.16 205.41L99.08 207.2C101.43 208.55 103.33 211.85 103.32 214.54Z" fill="#878787"/></g><g><path d="M99.08 207.2C97.76 206.44 96.54 206.43 95.72 207.15L95.92 207.45C96.69 206.77 97.83 206.79 99.07 207.5 101.27 208.77 103.06 211.87 103.05 214.39L103.31 214.54C103.33 211.85 101.43 208.55 99.08 207.2Z" fill="#626262"/></g></g></g><g><g><g><path d="M99.33 193.19 96.25 194.98C96.14 195.05 96.03 195.12 95.93 195.21L99.01 193.42C99.11 193.33 99.22 193.25 99.33 193.19Z" fill="#626262"/></g><g><path d="M99.14 192.87 96.06 194.66C96.86 194.2 97.93 194.29 99.08 194.95L102.16 193.16C101.01 192.51 99.94 192.41 99.14 192.87Z" fill="#878787"/></g><g><path d="M103.32 202.3 106.4 200.51C106.41 197.82 104.51 194.52 102.16 193.17L99.08 194.96C101.43 196.31 103.33 199.61 103.32 202.3Z" fill="#878787"/></g><g><path d="M99.08 194.96C97.76 194.2 96.54 194.19 95.72 194.91L95.92 195.21C96.69 194.53 97.83 194.55 99.07 195.26 101.27 196.53 103.06 199.63 103.05 202.15L103.31 202.3C103.33 199.61 101.43 196.31 99.08 194.96Z" fill="#626262"/></g></g></g><g><g><g><path d="M99.33 181.51 96.25 183.3C96.14 183.36 96.03 183.44 95.93 183.53L99.01 181.74C99.11 181.65 99.22 181.58 99.33 181.51Z" fill="#626262"/></g><g><path d="M99.14 181.2 96.06 182.99C96.86 182.53 97.93 182.62 99.08 183.28L102.16 181.49C101.01 180.83 99.94 180.74 99.14 181.2Z" fill="#878787"/></g><g><path d="M103.32 190.63 106.4 188.84C106.41 186.15 104.51 182.85 102.16 181.5L99.08 183.29C101.43 184.64 103.33 187.93 103.32 190.63Z" fill="#878787"/></g><g><path d="M99.08 183.28C97.76 182.52 96.54 182.51 95.72 183.23L95.92 183.53C96.69 182.85 97.83 182.87 99.07 183.58 101.27 184.85 103.06 187.95 103.05 190.47L103.31 190.62C103.33 187.93 101.43 184.64 99.08 183.28Z" fill="#626262"/></g></g></g></g><g><path d="M103.45 183.65 103.37 222.49 94.02 227.92 94.1 189.09Z" fill="#3C3C3C"/><path d="M94.1 189.09 94.02 227.92 84.6 222.49 84.69 183.65Z" fill="#626262"/><path d="M103.45 183.65 94.1 189.09 84.69 183.65 94.04 178.22Z" fill="#878787"/></g><g><g><path d="M104.35 215.67C104.35 218.04 102.43 221.08 100.05 222.45 97.68 223.82 95.75 223.01 95.75 220.63 95.75 218.26 97.67 215.22 100.05 213.85 102.42 212.49 104.35 213.3 104.35 215.67Z" fill="#84DA1A"/><path d="M104.35 215.67C104.35 218.04 102.43 221.08 100.05 222.45 97.68 223.82 95.75 223.01 95.75 220.63 95.75 218.26 97.67 215.22 100.05 213.85 102.42 212.49 104.35 213.3 104.35 215.67Z" fill="#3B7D00"/></g><path d="M94.78 220.08C94.78 217.71 96.7 214.67 99.08 213.3 100.38 212.55 101.53 212.47 102.32 212.93L102.33 212.91 103.3 213.47 103.29 213.49C102.5 213.03 101.35 213.11 100.05 213.86 97.68 215.23 95.75 218.27 95.75 220.64 95.75 221.72 96.16 222.45 96.81 222.83L96.8 222.85 95.83 222.29 95.84 222.27C95.19 221.89 94.78 221.15 94.78 220.08Z" fill="#2A5900"/></g><g><g><g><path d="M101.29 212.13 104.37 213.92C104.48 213.99 104.59 214.06 104.69 214.15L101.61 212.36C101.51 212.27 101.41 212.19 101.29 212.13Z" fill="#626262"/></g><g><path d="M101.48 211.81 104.56 213.6C103.76 213.14 102.69 213.23 101.54 213.89L98.46 212.1C99.61 211.44 100.68 211.35 101.48 211.81Z" fill="#878787"/></g><g><path d="M97.3 221.24 94.22 219.45C94.21 216.76 96.11 213.46 98.46 212.11L101.54 213.9C99.2 215.25 97.29 218.55 97.3 221.24Z" fill="#878787"/></g><g><path d="M101.54 213.9C102.86 213.14 104.08 213.13 104.9 213.85L104.7 214.15C103.93 213.47 102.79 213.49 101.55 214.2 99.35 215.47 97.56 218.57 97.57 221.09L97.31 221.24C97.29 218.55 99.2 215.25 101.54 213.9Z" fill="#626262"/></g></g></g><g><path d="M104.35 203.81C104.35 206.18 102.43 209.22 100.05 210.59 97.68 211.96 95.75 211.15 95.75 208.77 95.75 206.4 97.67 203.36 100.05 201.99 102.42 200.62 104.35 201.44 104.35 203.81Z" fill="#EFAF48"/><path d="M95.75 208.77C95.75 206.4 97.67 203.36 100.05 201.99 101.35 201.24 102.5 201.16 103.29 201.62L103.3 201.6 102.32 201.06C101.53 200.6 100.38 200.68 99.08 201.43 96.71 202.8 94.78 205.84 94.78 208.21 94.78 209.29 95.19 210.02 95.84 210.4L96.8 210.98 96.81 210.96C96.16 210.58 95.75 209.85 95.75 208.77Z" fill="#DC9A30"/></g><g><g><g><path d="M101.29 199.89 104.37 201.68C104.48 201.75 104.59 201.82 104.69 201.91L101.61 200.12C101.51 200.03 101.41 199.95 101.29 199.89Z" fill="#626262"/></g><g><path d="M101.48 199.57 104.56 201.36C103.76 200.9 102.69 200.99 101.54 201.65L98.46 199.86C99.61 199.2 100.68 199.11 101.48 199.57Z" fill="#878787"/></g><g><path d="M97.3 209 94.22 207.21C94.21 204.52 96.11 201.22 98.46 199.87L101.54 201.66C99.2 203.01 97.29 206.31 97.3 209Z" fill="#878787"/></g><g><path d="M101.54 201.66C102.86 200.9 104.08 200.89 104.9 201.61L104.7 201.91C103.93 201.23 102.79 201.25 101.55 201.96 99.35 203.23 97.56 206.33 97.57 208.85L97.3 209C97.29 206.31 99.2 203.01 101.54 201.66Z" fill="#626262"/></g></g></g><g><ellipse cx="100.05" cy="194.62" rx="5.71" ry="3.23" fill="#EF4854" transform="matrix(0.6011 -0.7992 0.7992 0.6011 -115.622 157.588)"/><path d="M95.75 197.1C95.75 194.73 97.67 191.69 100.05 190.32 101.35 189.57 102.5 189.49 103.29 189.95L103.3 189.93 102.32 189.39C101.53 188.94 100.38 189.01 99.08 189.76 96.71 191.13 94.78 194.17 94.78 196.54 94.78 197.62 95.19 198.35 95.84 198.73L96.8 199.31 96.81 199.29C96.16 198.91 95.75 198.17 95.75 197.1Z" fill="#DC303D"/></g><g><g><g><path d="M101.29 188.21 104.37 190C104.48 190.07 104.59 190.14 104.69 190.23L101.61 188.44C101.51 188.35 101.41 188.27 101.29 188.21Z" fill="#626262"/></g><g><path d="M101.48 187.9 104.56 189.69C103.76 189.23 102.69 189.32 101.54 189.98L98.46 188.19C99.61 187.53 100.68 187.44 101.48 187.9Z" fill="#878787"/></g><g><path d="M97.3 197.33 94.22 195.54C94.21 192.85 96.11 189.55 98.46 188.2L101.54 189.99C99.2 191.34 97.29 194.63 97.3 197.33Z" fill="#878787"/></g><g><path d="M101.54 189.98C102.86 189.22 104.08 189.21 104.9 189.93L104.7 190.23C103.93 189.55 102.79 189.57 101.55 190.28 99.35 191.55 97.56 194.65 97.57 197.17L97.31 197.32C97.29 194.63 99.2 191.34 101.54 189.98Z" fill="#626262"/></g></g></g><g><path d="M108.22 214.13C108.22 218.24 104.89 223.5 100.78 225.87 96.67 228.24 93.34 226.84 93.34 222.72 93.34 218.6 96.67 213.35 100.78 210.98 104.89 208.61 108.22 210.02 108.22 214.13Z" fill="#84DA1A" opacity="0"/><path d="M107.99 214.26C107.99 218.24 104.76 223.33 100.78 225.63 96.8 227.93 93.57 226.56 93.57 222.58 93.57 218.6 96.8 213.51 100.78 211.21 104.76 208.92 107.99 210.28 107.99 214.26Z" fill="#84DA1A" opacity="0.0385"/><path d="M107.75 214.4C107.75 218.25 104.63 223.17 100.78 225.4 96.93 227.62 93.81 226.3 93.81 222.45 93.81 218.6 96.93 213.68 100.78 211.45 104.63 209.23 107.75 210.55 107.75 214.4Z" fill="#84DA1A" opacity="0.0769"/><path d="M107.51 214.54C107.51 218.26 104.49 223.02 100.78 225.16 97.06 227.31 94.05 226.03 94.05 222.31 94.05 218.59 97.07 213.83 100.78 211.69 104.5 209.54 107.51 210.82 107.51 214.54Z" fill="#84DA1A" opacity="0.1154"/><path d="M107.28 214.67C107.28 218.26 104.37 222.85 100.78 224.92 97.19 226.99 94.28 225.76 94.28 222.17 94.28 218.58 97.19 213.99 100.78 211.92 104.37 209.86 107.28 211.09 107.28 214.67Z" fill="#84DA1A" opacity="0.1538"/><path d="M107.04 214.81C107.04 218.27 104.24 222.69 100.78 224.69 97.32 226.69 94.52 225.5 94.52 222.04 94.52 218.58 97.32 214.16 100.78 212.16 104.24 210.17 107.04 211.35 107.04 214.81Z" fill="#84DA1A" opacity="0.1923"/><path d="M106.8 214.95C106.8 218.28 104.1 222.53 100.78 224.45 97.45 226.37 94.76 225.23 94.76 221.9 94.76 218.57 97.46 214.32 100.78 212.4 104.1 210.48 106.8 211.62 106.8 214.95Z" fill="#84DA1A" opacity="0.2308"/><path d="M106.57 215.08C106.57 218.28 103.98 222.36 100.78 224.21 97.58 226.06 94.99 224.96 94.99 221.76 94.99 218.56 97.58 214.48 100.78 212.63 103.97 210.79 106.57 211.89 106.57 215.08Z" fill="#84DA1A" opacity="0.2692"/><path d="M106.33 215.22C106.33 218.29 103.84 222.21 100.78 223.98 97.71 225.75 95.23 224.7 95.23 221.63 95.23 218.56 97.72 214.64 100.78 212.87 103.84 211.1 106.33 212.16 106.33 215.22Z" fill="#84DA1A" opacity="0.3077"/><path d="M106.09 215.36C106.09 218.3 103.71 222.05 100.78 223.74 97.84 225.43 95.47 224.43 95.47 221.49 95.47 218.55 97.85 214.8 100.78 213.11 103.71 211.42 106.09 212.42 106.09 215.36Z" fill="#84DA1A" opacity="0.3462"/><path d="M105.86 215.49C105.86 218.29 103.59 221.88 100.78 223.5 97.98 225.12 95.7 224.16 95.7 221.35 95.7 218.55 97.97 214.96 100.78 213.34 103.58 211.73 105.86 212.69 105.86 215.49Z" fill="#84DA1A" opacity="0.3846"/><path d="M105.62 215.63C105.62 218.3 103.45 221.72 100.78 223.27 98.11 224.81 95.94 223.9 95.94 221.22 95.94 218.55 98.11 215.13 100.78 213.58 103.45 212.04 105.62 212.96 105.62 215.63Z" fill="#84DA1A" opacity="0.4231"/><path d="M105.38 215.77C105.38 218.31 103.32 221.56 100.78 223.03 98.24 224.5 96.18 223.63 96.18 221.08 96.18 218.54 98.24 215.29 100.78 213.82 103.32 212.35 105.38 213.22 105.38 215.77Z" fill="#84DA1A" opacity="0.4615"/><path d="M105.15 215.9C105.15 218.31 103.19 221.4 100.78 222.79 98.37 224.18 96.41 223.36 96.41 220.94 96.41 218.52 98.37 215.44 100.78 214.05 103.19 212.67 105.15 213.49 105.15 215.9Z" fill="#84DA1A" opacity="0.5"/><path d="M104.91 216.04C104.91 218.32 103.06 221.24 100.78 222.56 98.5 223.88 96.65 223.1 96.65 220.81 96.65 218.52 98.5 215.61 100.78 214.29 103.06 212.98 104.91 213.76 104.91 216.04Z" fill="#84DA1A" opacity="0.5385"/><path d="M104.67 216.18C104.67 218.33 102.93 221.08 100.78 222.32 98.63 223.56 96.89 222.82 96.89 220.67 96.89 218.52 98.63 215.77 100.78 214.53 102.93 213.29 104.67 214.03 104.67 216.18Z" fill="#84DA1A" opacity="0.5769"/><path d="M104.44 216.31C104.44 218.33 102.8 220.91 100.78 222.08 98.76 223.25 97.12 222.55 97.12 220.53 97.12 218.51 98.76 215.93 100.78 214.76 102.8 213.6 104.44 214.29 104.44 216.31Z" fill="#84DA1A" opacity="0.6154"/><path d="M104.2 216.45C104.2 218.34 102.67 220.76 100.78 221.85 98.89 222.94 97.36 222.29 97.36 220.4 97.36 218.51 98.89 216.09 100.78 215 102.67 213.91 104.2 214.56 104.2 216.45Z" fill="#84DA1A" opacity="0.6538"/><path d="M103.96 216.59C103.96 218.35 102.53 220.6 100.78 221.61 99.02 222.63 97.6 222.02 97.6 220.26 97.6 218.5 99.03 216.25 100.78 215.24 102.54 214.23 103.96 214.83 103.96 216.59Z" fill="#84DA1A" opacity="0.6923"/><path d="M103.73 216.72C103.73 218.35 102.41 220.43 100.78 221.37 99.15 222.31 97.83 221.75 97.83 220.12 97.83 218.49 99.15 216.41 100.78 215.47 102.41 214.54 103.73 215.1 103.73 216.72Z" fill="#84DA1A" opacity="0.7308"/><path d="M103.49 216.86C103.49 218.36 102.28 220.27 100.78 221.14 99.28 222 98.07 221.49 98.07 219.99 98.07 218.49 99.28 216.58 100.78 215.71 102.27 214.85 103.49 215.36 103.49 216.86Z" fill="#84DA1A" opacity="0.7692"/><path d="M103.25 217C103.25 218.37 102.14 220.11 100.78 220.9 99.41 221.69 98.31 221.22 98.31 219.85 98.31 218.48 99.42 216.74 100.78 215.95 102.14 215.16 103.25 215.63 103.25 217Z" fill="#84DA1A" opacity="0.8077"/><path d="M103.02 217.13C103.02 218.37 102.02 219.95 100.78 220.66 99.54 221.37 98.54 220.95 98.54 219.71 98.54 218.47 99.54 216.89 100.78 216.18 102.01 215.47 103.02 215.9 103.02 217.13Z" fill="#84DA1A" opacity="0.8462"/><path d="M102.78 217.27C102.78 218.38 101.88 219.79 100.78 220.43 99.67 221.07 98.78 220.69 98.78 219.58 98.78 218.47 99.68 217.06 100.78 216.42 101.88 215.79 102.78 216.17 102.78 217.27Z" fill="#84DA1A" opacity="0.8846"/><path d="M102.54 217.41C102.54 218.38 101.75 219.63 100.78 220.19 99.81 220.75 99.02 220.42 99.02 219.44 99.02 218.47 99.81 217.22 100.78 216.66 101.75 216.1 102.54 216.43 102.54 217.41Z" fill="#84DA1A" opacity="0.9231"/><path d="M102.31 217.54C102.31 218.38 101.63 219.46 100.78 219.95 99.94 220.44 99.25 220.15 99.25 219.3 99.25 218.46 99.93 217.38 100.78 216.89 101.62 216.41 102.31 216.7 102.31 217.54Z" fill="#84DA1A" opacity="0.9615"/><path d="M102.07 217.68C102.07 218.39 101.49 219.31 100.78 219.72 100.07 220.13 99.49 219.89 99.49 219.17 99.49 218.46 100.07 217.54 100.78 217.13 101.49 216.72 102.07 216.97 102.07 217.68Z" fill="#84DA1A"/></g></g></g></svg>