<svg width="34.68" height="82.57" viewBox="0 0 34.68 82.57" xmlns="http://www.w3.org/2000/svg" xmlns:xlink="http://www.w3.org/1999/xlink" xml:space="preserve" overflow="hidden"><defs></defs><g><ellipse cx="23.65" cy="77.53" rx="6.98" ry="4.03" fill="#A79891" transform="matrix(0.9876 -0.157 0.157 0.9876 -11.8787 4.6744)"/><g><path d="M26.5 53.36C26.5 53.36 27.34 56.08 27.35 58.7 27.36 61.33 26.16 74.69 26.16 74.69 26.16 74.69 26.24 75.83 25.12 76.26 24 76.69 23.42 76.36 23.33 74.64 23.24 72.92 22.6 59.26 22.6 59.26 22.6 59.26 21.72 56.05 21.97 54.27 22.22 52.49 26.07 51.66 26.5 53.36Z" fill="#DC303D"/><path d="M26.19 74.31C26.19 74.31 24.99 75.95 23.33 74.63 23.33 74.63 18.58 78.72 19.17 79.77 19.79 80.87 22.09 79.97 23.61 79.3 25.13 78.63 25.2 78.49 26.46 78.04 27.65 77.62 27.53 76.63 27.13 75.92 26.72 75.23 26.19 74.31 26.19 74.31Z" fill="#FFFFFF"/><path d="M22.49 74.59 20.75 57.57C20.75 57.57 21.39 42.35 21.56 40.92 21.88 38.29 22.17 35.92 22.43 34.83L30.16 40.63C30.16 40.63 27.27 53.83 27.21 56.89 27.15 59.71 27.1 72.68 27.1 74.65 27.1 74.83 27.01 74.99 26.86 75.09 26.54 75.31 25.88 75.64 24.87 75.61 22.61 75.53 22.49 74.59 22.49 74.59Z" fill="#291616"/></g><ellipse cx="14.07" cy="78.45" rx="6.98" ry="4.03" fill="#A79891" transform="matrix(0.9876 -0.157 0.157 0.9876 -12.1408 3.181)"/><g><path d="M23.86 11.7C23.86 11.7 25.38 12.54 26.4 15.37 27.42 18.2 30.11 27.15 27.03 29.06 23.95 30.96 16.81 27.87 16.81 27.87L23.86 11.7Z" fill="#291616"/><path d="M24.64 13.6C24.99 13.31 25.03 12.79 24.72 12.46 24.32 12.03 23.64 11.44 22.52 10.83 20.43 9.69 17.48 8.97 16.34 10.18 15.19 11.39 16.72 13.82 19.82 14.78 22.01 15.45 23.79 14.32 24.64 13.6Z" fill="#4B2828"/></g><g><path d="M16.91 54.27C16.91 54.27 17.75 56.99 17.76 59.61 17.77 62.24 16.57 75.6 16.57 75.6 16.57 75.6 16.65 76.74 15.53 77.17 14.41 77.6 13.83 77.27 13.74 75.55 13.65 73.83 13.02 60.18 13.02 60.18 13.02 60.18 12.14 56.97 12.39 55.19 12.64 53.41 16.49 52.58 16.91 54.27Z" fill="#DC303D"/><path d="M16.6 75.22C16.6 75.22 15.4 76.86 13.74 75.54 13.74 75.54 8.99 79.63 9.58 80.68 10.2 81.78 12.5 80.88 14.02 80.21 15.54 79.54 15.61 79.4 16.87 78.95 18.06 78.53 17.94 77.54 17.54 76.83 17.14 76.14 16.6 75.22 16.6 75.22Z" fill="#FFFFFF"/><path d="M12.91 75.5 11.17 58.48C11.17 58.48 11.81 43.26 11.98 41.83 12.3 39.2 12.59 36.83 12.85 35.74L20.58 41.54C20.58 41.54 17.69 54.74 17.63 57.8 17.57 60.62 17.52 73.59 17.52 75.56 17.52 75.74 17.43 75.9 17.28 76 16.96 76.22 16.3 76.55 15.29 76.52 13.02 76.44 12.91 75.5 12.91 75.5Z" fill="#291616"/></g><g><path d="M12.61 20.78C12.61 20.78 11.9 24.34 11.42 26.33 10.92 28.42 10.63 30.02 9.89 30.8 9.16 31.58 4.39 37.58 4.39 37.58 4.39 37.58 4.51 38.32 4 39.21 3.49 40.1 3.18 40.66 2.66 40.85 2.14 41.03 1.83 41.73 1.77 42.08 1.7 42.43 1.18 42.55 1.09 42.1 1.09 42.1 0.63 42.18 0.71 41.6 0.71 41.6 0.23 41.54 0.3 40.94 0.3 40.94-0.19 40.64 0.11 39.98 0.42 39.32 1.14 38.08 1.14 38.08 1.14 38.08 0.74 38.02 0.89 37.48 1.04 36.94 1.71 36.54 2.22 36.48 2.73 36.42 3.09 36.42 3.51 35.8 3.94 35.18 8.24 28.47 8.24 28.47 8.24 28.47 9.41 21.02 9.8 19.38 10.19 17.74 13.32 18.16 12.61 20.78Z" fill="#F59473"/><path d="M13.67 17.3 13.11 21.32C13.07 21.58 12.82 21.75 12.56 21.68 11.96 21.5 10.95 21.19 10.37 20.9 9.92 20.68 9.59 20.46 9.37 20.31 9.19 20.17 9.1 19.95 9.15 19.72 9.4 18.53 10.26 14.64 10.83 13.58 11.5 12.33 12.65 11.47 13.63 11.24 14.61 11 13.71 15.73 13.67 17.3Z" fill="#DDDDDD"/></g><path d="M24.41 18.92C24.41 18.92 24.79 24.85 24.54 26.98 24.29 29.12 28.34 35.24 28.03 36.72 27.72 38.19 24.72 40.69 20.34 40.24 15.96 39.79 13.32 39.29 12.59 36.58 12.59 36.58 13.11 32.6 12.99 30.17 12.87 27.74 10.98 16.98 10.76 15.48 10.54 13.98 11.62 11.85 13.64 11.24 15.67 10.63 19.58 12.91 19.58 12.91 19.58 12.91 24.16 14.37 24.41 18.92Z" fill="#FFFFFF"/><path d="M16.17 12.05C16.17 12.05 15.3 11.58 14.67 11.55 14.04 11.52 12.13 12.67 12.11 15.29 12.08 17.91 12.42 22.32 12.26 24.63L12.48 26.03C12.48 26.03 13.25 24.63 13.42 23.06 13.58 21.49 13.18 17.44 13.32 15.7 13.48 13.71 14.45 12.24 16.17 12.05Z" fill="#4B2828"/><g><path d="M23.36 21.68C23.36 21.68 23.8 26.46 27.1 30.3L30.99 38.3C30.99 38.3 30.56 39.69 30.31 40.3 30.05 40.91 29.89 41.11 29.98 41.96 30.08 42.81 30.19 43.02 30.56 43.02 30.94 43.01 31 42.75 31 42.4 30.99 42.05 30.92 41.38 31.43 41.27 31.43 41.27 31.87 41.55 31.93 42.49 31.99 43.43 31.8 44.19 32.15 44.37 32.5 44.55 32.73 44.21 32.74 43.87 32.74 43.87 33.27 44.22 33.4 43.43 33.4 43.43 34.07 43.74 34.06 42.79 34.06 42.79 34.7 43.26 34.68 42.31 34.66 41.36 34.53 40.19 34.23 39.45 33.93 38.71 32.82 37.63 32.82 37.63 32.82 37.63 30.15 30.64 29.62 29.46 29.09 28.28 25.81 19.38 25.81 19.38 25.81 19.38 20.54 20.15 23.36 21.68Z" fill="#F9B194"/><path d="M27.64 23.31C27.76 23.18 27.8 22.99 27.75 22.82 27.39 21.6 25.91 16.64 25.45 15.35 24.92 13.88 23.28 13.4 21.89 14.19 20.49 14.98 20.33 16.27 20.41 17 20.48 17.64 22.8 22.77 23.37 24.04 23.45 24.22 23.62 24.34 23.82 24.36 24.59 24.44 26.49 24.48 27.64 23.31Z" fill="#DDDDDD"/></g><g><path d="M17.65 10.26 19.58 12.9C19.58 12.9 17.88 14.94 16.29 15.41 14.7 15.88 14.04 11.63 14.04 11.63 14.04 11.63 16.53 9.66 17.65 10.26Z" fill="#F59473"/></g><path d="M21.09 13.65C21.09 13.65 20.37 13 19.75 12.98 19.75 12.98 18.11 14.16 17.68 16 17.39 17.23 17.4 19.91 19.72 23.75 20.61 25.23 23.12 26.56 24.58 26.61 24.58 26.61 24.72 26.33 24.74 25.89 24.76 25.44 24.62 25.17 24.62 25.17 24.62 25.17 22.82 25.19 21.08 23.05 19.91 21.61 18.7 18.24 18.93 16.66 19.17 15.05 21.09 13.65 21.09 13.65Z" fill="#4B2828"/><path d="M12.58 11.11C12.58 11.11 16.31 13.23 17.95 13.71 19.59 14.19 20.72 14.06 21.16 11.46 21.6 8.86 21.44 5.81 21.06 4.55 20.68 3.28 17.55 0.3 13.84 1.27 10.14 2.24 9.32 7.44 12.58 11.11Z" fill="#F9B194"/><path d="M14.31 11.6C14.31 11.6 16.42 9.28 15.64 7.64 15.64 7.64 18.92 8.67 21.44 6.81 21.67 6.64 21.75 6.35 21.74 6.07 21.72 5.42 21.58 4.11 20.88 3.1 19.91 1.69 15.97-0.22 14.12 0.03 12.27 0.28 9.82 1.07 9.6 4.01 9.38 6.96 9.96 8.75 10.85 9.9 11.74 11.05 12.8 11.31 14.44 13.35L14.31 11.6Z" fill="#291616"/><path d="M14.75 11.61C14.75 11.61 14.8 10.49 13.88 10.31 12.97 10.13 12.86 10.9 13.24 11.48 13.63 12.07 14.41 12.64 14.76 12.47 15.12 12.31 14.83 11.99 14.75 11.61Z" fill="#F9B194"/></g></svg>