<svg width="398.05" height="344.4" viewBox="0 0 398.05 344.4" xmlns="http://www.w3.org/2000/svg" xmlns:xlink="http://www.w3.org/1999/xlink" xml:space="preserve" overflow="hidden"><defs></defs><g id="XMLID_58_"><path d="M282.62 333.04C282.62 333.04 309.09 324.93 321.54 325.79 329.19 326.32 326.37 334.17 326.37 334.17 326.37 334.17 348.37 337.6 350.6 335.29 352.83 332.98 390.58 319.64 370.34 309.57 350.1 299.5 278.07 318.94 278.07 318.94L282.62 333.04Z" id="XMLID_112_" fill="#6BADC1"/><g id="XMLID_59_"><g id="XMLID_107_"><g id="XMLID_109_"><path d="M268.31 322.85C268.31 322.85 267.33 326.88 268.9 328.64 270.46 330.4 278.95 335.18 287.15 331.96 295.35 328.74 297.79 325.81 302.47 325.62 307.15 325.42 308.68 324.97 308.3 322.22 307.92 319.47 268.31 322.85 268.31 322.85Z" id="XMLID_111_" fill="#111224"/><path d="M309.09 317.12C309.12 319.85 308.29 322.21 308.29 322.21 308.29 322.21 305.93 323.17 302.45 323.1 298.97 323.04 296.01 324.9 289.96 328.04 284.11 331.08 269.43 330.74 268.36 323.55 268.33 323.33 268.31 323.09 268.3 322.85 268.1 314.98 278.99 312.8 284.65 311.57 290.31 310.34 289.92 306.72 289.92 306.72L301.15 308.04 307.53 308.79C307.53 308.8 309.07 314.97 309.09 317.12Z" id="XMLID_110_" fill="#443451"/></g><path d="M309.09 317.12C309.12 319.85 308.29 322.21 308.29 322.21 308.29 322.21 305.93 323.17 302.45 323.1 298.97 323.04 296.01 324.9 289.96 328.04 284.11 331.08 269.43 330.74 268.36 323.55 281.74 330.64 289.57 323.83 294.17 321.59 298.79 319.34 304.37 319.87 304.58 317.62 304.79 315.36 304.69 311.28 302.32 310.86 299.97 310.43 296.95 309.04 296.95 309.04L301.14 308.04 307.52 308.79C307.53 308.8 309.07 314.97 309.09 317.12Z" id="XMLID_108_" fill="#362744"/></g><g id="XMLID_102_"><g id="XMLID_104_"><path d="M326.03 329.88C326.03 329.88 325.84 332.91 326.38 334.18 326.91 335.45 331.08 337.66 339.14 337.7 347.62 337.74 354.49 336.19 354.6 326.01L326.03 329.88Z" id="XMLID_106_" fill="#111224"/><path d="M353.16 330.07C349.37 335.93 335.49 336.91 328.32 333.01 326.37 331.95 325.82 330.59 326.11 329.1 326.87 325.13 333.67 320.34 335.71 318.35 338.18 315.93 338.13 313.3 338.08 312.74 338.08 312.66 338.07 312.63 338.07 312.63L353.16 311.57C353.16 311.57 356.95 324.21 353.16 330.07Z" id="XMLID_105_" fill="#443451"/></g><path d="M353.16 330.07C349.37 335.93 335.49 336.91 328.32 333.01 326.37 331.95 325.82 330.59 326.11 329.1 326.11 329.1 331.52 335.23 341.61 331.85 351.69 328.47 351.69 320.84 350.94 317.41 350.19 313.98 343.97 318.45 338.07 312.74 338.07 312.66 338.06 312.63 338.06 312.63L353.15 311.57C353.16 311.57 356.95 324.21 353.16 330.07Z" id="XMLID_103_" fill="#362744"/></g><path d="M333.45 114.06C333.45 114.06 317.99 140.39 311.18 134.6 304.37 128.81 309.74 114.28 309.74 114.28 309.74 114.28 310.02 112.57 309.95 111 309.8 107.9 306.43 107.86 306.25 107.86L324.94 95.09C324.94 95.09 324.92 95.86 324.93 97.06 324.95 100.75 325.12 108.52 326.35 111 327.98 114.28 333.45 114.06 333.45 114.06Z" id="XMLID_101_" fill="#F0B89F"/><path d="M324.93 97.06C324.77 99.99 323.88 105.54 319.71 109.34 313.81 114.71 309.95 111.01 309.95 111.01 309.8 107.91 306.43 107.87 306.25 107.87L324.94 95.1C324.94 95.08 325 95.85 324.93 97.06Z" id="XMLID_100_" fill="#DB825E" opacity="0.5"/><g id="XMLID_92_"><path d="M334.78 114.11 334.81 114.12C337.61 114.56 339.99 114.8 342.06 116.19 347.06 119.57 347.41 126.73 349.18 131.34 350.94 135.94 358.41 153.98 358.41 153.98 358.41 153.98 366.74 139.75 368.49 135.82 370.23 131.88 372.49 127.92 373.57 125.48 374.66 123.04 374.36 120.97 374.69 118.7 375.03 116.44 379.23 118.03 379.85 122.61 380.47 127.19 380.98 127.7 385.63 129.4 390.3 131.11 398.28 133.89 398.03 136.02 397.79 138.15 395.42 137.66 395.42 137.66 395.42 137.66 395.45 137.68 395.51 137.72 396.6 138.39 397.44 139.51 397.36 140.52 397.33 140.97 397.12 141.39 396.68 141.76 395.32 142.88 393.06 141.8 392.7 141.63 393.32 142.19 393.69 143.05 393.56 143.77 393.41 144.63 392.56 145.27 390.57 144.9 387.25 144.27 379.4 140.8 377.42 141.79 377.29 141.85 377.19 141.93 377.12 142.03 377.02 142.16 376.89 142.38 376.74 142.68 376.63 142.86 376.53 143.06 376.42 143.28 374.31 147.54 369.01 160.48 364.88 167.81 363.95 169.48 363.05 170.77 362.18 171.74 362.17 171.74 362.17 171.75 362.16 171.75L362.16 171.76C358.67 175.62 355.6 174.21 351.75 170.51 346.94 165.89 337.22 145.01 337.22 145.01" id="XMLID_99_" fill="#F0B89F"/><path d="M337.22 144.98C337.22 144.98 346.95 165.86 351.75 170.48 355.6 174.18 358.67 175.59 362.16 171.73 358.41 174.76 354.6 171.45 350.2 164.71 347.3 160.27 336.57 136.79 336.57 136.79L337.22 144.98Z" id="XMLID_98_" fill="#DB825E" opacity="0.5"/><path d="M397.37 140.51C397.34 140.96 397.13 141.38 396.69 141.75 395.33 142.87 393.07 141.79 392.71 141.62 392.69 141.61 392.68 141.6 392.68 141.6L386.33 138.98C386.33 138.98 391.75 140.44 394.6 140.97 396.68 141.34 397.3 140.62 397.37 140.51Z" id="XMLID_97_" fill="#DB825E" opacity="0.5"/><path d="M398.05 136.01C397.81 138.14 395.44 137.65 395.44 137.65L388.45 134.58C388.45 134.58 391.9 135.41 394.72 136.2 397.52 137 398.05 136.01 398.05 136.01Z" id="XMLID_96_" fill="#DB825E" opacity="0.5"/><path d="M382.97 130.44C382.97 130.44 382.75 134.82 377.51 135.99 377.51 135.99 381.96 136.06 383.04 133.34 383.85 131.29 382.97 130.44 382.97 130.44Z" id="XMLID_95_" fill="#DB825E" opacity="0.5"/><path d="M358.41 153.97C358.41 153.97 354.4 161.66 355.25 164.71 355.25 164.71 352.95 158.82 357.01 150.59L358.41 153.97Z" id="XMLID_94_" fill="#DB825E" opacity="0.5"/><path d="M393.57 143.75C393.42 144.61 392.57 145.25 390.58 144.88 387.26 144.25 379.41 140.78 377.43 141.77 379.46 139.71 382.74 141.12 387.22 142.81 392.51 144.81 393.56 143.75 393.57 143.75L393.57 143.75Z" id="XMLID_93_" fill="#DB825E" opacity="0.5"/></g><g id="XMLID_76_"><path d="M321.65 60.94C321.65 60.94 319.66 55.37 319.12 52.47 318.58 49.57 312.47 45.67 304.53 46.76 296.59 47.85 293.69 49.25 294.77 54.4 295.84 59.55 298.31 63.31 300.89 63.74 303.45 64.17 321.65 60.94 321.65 60.94Z" id="XMLID_91_" fill="#070707"/><g id="XMLID_80_"><path d="M298.32 103.81C302.36 111.17 314.93 106.77 319.96 103.33 323.18 101.13 324.94 95.08 324.94 95.08 324.94 95.08 331.2 99.29 334.54 91.62 337.08 85.79 330.27 79.86 325.77 85.32L319.61 59.84C312.86 57.84 302.12 59.82 296.95 68.67 295.76 70.71 294.58 74.68 294.24 77.04 294.1 78.04 293.99 79.06 293.92 80.1 293.38 88.27 294.72 97.25 298.32 103.81Z" id="XMLID_90_" fill="#F0B89F"/><path d="M319.71 80.15C319.71 80.15 318.11 79.42 316.21 78.9 314.32 78.37 311.26 78.81 311.17 77.28 311.05 75.25 314.77 75.35 316.69 76.36 318.62 77.37 319.71 80.15 319.71 80.15Z" id="XMLID_89_" fill="#01484C"/><path d="M291.35 80.15C291.35 80.15 292.95 79.42 294.85 78.9 296.74 78.37 299.8 78.81 299.89 77.28 300.01 75.25 296.29 75.35 294.37 76.36 292.44 77.37 291.35 80.15 291.35 80.15Z" id="XMLID_88_" fill="#01484C"/><path d="M311.27 85.46C311.35 86.74 312.35 87.72 313.5 87.64 314.65 87.57 315.52 86.47 315.44 85.19 315.36 83.91 314.36 82.93 313.21 83.01 312.06 83.09 311.19 84.18 311.27 85.46Z" id="XMLID_87_" fill="#111224"/><path d="M300.95 84.93C301.03 86.16 300.2 87.21 299.09 87.29 297.98 87.36 297.02 86.42 296.94 85.19 296.86 83.96 297.69 82.91 298.8 82.83 299.92 82.76 300.88 83.7 300.95 84.93Z" id="XMLID_86_" fill="#111224"/><path d="M305.67 85.9C305.83 86.14 306.26 89.39 306.24 91.89 306.21 94.81 306.13 95.46 304.21 94.76 301.3 93.69 301.85 93.43 302.59 91.7 303.14 90.4 303.74 89.02 304.27 87.8 305.01 86.11 305.26 85.28 305.67 85.9Z" id="XMLID_85_" fill="#EA806A"/><path d="M303.6 98.04C304.96 98.4 307.65 98.78 312.27 98.24 312.4 100.21 308.38 102.45 304.24 101.38 304.24 101.38 303.96 99.8 303.21 98.55 303.06 98.29 303.3 97.96 303.6 98.04Z" id="XMLID_84_" fill="#EDEDED"/><path d="M326.35 87.63C326.35 87.63 326.63 85 328.72 84.56 331.7 83.93 334.86 87.7 332.94 91.31 332.94 91.31 332.29 87.25 329.8 86.9 327.3 86.55 326.35 87.63 326.35 87.63Z" id="XMLID_83_" fill="#DB825E" opacity="0.5"/><path d="M313.64 90.8C313.47 92.46 315.13 93.99 317.36 94.22 319.58 94.45 321.52 93.28 321.69 91.62 321.86 89.96 320.2 88.43 317.97 88.21 315.75 87.97 313.81 89.14 313.64 90.8Z" id="XMLID_82_" fill="#EC5E76" opacity="0.3"/><path d="M291.8 91.66C292.16 93.29 294.22 94.22 296.4 93.73 298.58 93.25 300.05 91.53 299.69 89.9 299.33 88.27 297.27 87.34 295.09 87.83 292.92 88.32 291.44 90.03 291.8 91.66Z" id="XMLID_81_" fill="#EC5E76" opacity="0.3"/></g><path d="M331.01 75.66 329.94 83.18C329.94 83.18 327.79 82.93 325.78 85.33 325.78 85.33 325.14 86.67 324.29 88.17 323.71 89.19 322.76 87.69 322.65 85.69 322.61 84.78 322.73 83.76 323.15 82.83 323.15 82.83 321.58 78.93 320.57 71.64 320.57 71.64 314.28 72.79 308.41 68.64 308.41 68.64 299.89 78 291.36 72.79 282.23 67.22 287.52 54.9 294.97 54.76 301.95 54.62 303.91 57.77 304.12 58.15 303.95 57.53 302.1 50.56 310.56 52.61 315.39 53.78 318.85 57.1 321.32 60.08L321.32 60.09C323.37 62.59 324.72 64.84 325.57 65.42 326.4 66.02 330.54 71.68 331.01 75.66Z" id="XMLID_79_"/><path d="M331.01 75.66 329.94 83.18C329.94 83.18 327.79 82.93 325.78 85.33 325.78 85.33 325.14 86.67 324.29 88.17 323.71 89.19 322.76 87.69 322.65 85.69L322.66 85.69C322.66 85.69 323.27 87.17 324.45 85.06 325.63 82.94 328.63 81.12 328.63 81.12 328.63 81.12 322.35 69.21 321.31 60.09 323.36 62.59 324.71 64.84 325.56 65.42 326.4 66.02 330.54 71.68 331.01 75.66Z" id="XMLID_78_" fill="#033A3A"/><path d="M330.68 77.91 324.04 65.3 324.03 65.29 324.03 65.28 321.29 60.09 320.38 57.19C322.39 57.34 327.99 58.22 331 61.34 334.73 65.2 333.86 73.65 330.68 77.91Z" id="XMLID_77_" fill="#070707"/></g><g id="XMLID_69_"><path d="M291.06 143.61C291.39 148.26 285.28 182.13 285.08 183.62 284.19 190.25 283.82 188.98 280.63 191.14 277.22 193.45 273.33 194.04 272.27 195.27L272.25 195.29C271.95 195.65 271.89 196.06 272.15 196.59 273.04 198.41 275.19 198.89 277.92 198.52 279.24 198.35 279.59 198.72 279.31 199.6L279.31 199.61C279.28 199.69 279.27 199.73 279.27 199.73L279.26 199.73C278.93 200.68 277.95 202.16 276.69 204.12 275.66 205.74 274.32 207.71 274.62 209.06 274.63 209.07 274.63 209.08 274.63 209.09 274.72 209.53 274.99 209.9 275.5 210.17 277.39 211.19 279.1 208.29 281.2 205.34 281.79 204.53 282.59 204.05 282.93 204.23 283.17 204.36 283.18 204.78 282.79 205.61 281.96 207.38 277.65 212.56 278.3 214.34L278.29 214.34 278.31 214.39C278.42 214.66 278.64 214.84 279.01 214.92 281.86 215.54 285.53 208.26 286.64 206.87 287.08 206.33 287.42 206.14 287.63 206.22 287.64 206.23 287.64 206.24 287.64 206.24 287.95 206.4 287.92 207.25 287.32 208.56 286.34 210.73 285.06 214.08 285.55 215.01 286.07 216.02 288.15 216.31 290.98 211.75 293.82 207.18 295.71 198.32 297.04 189.71 298.36 181.11 300.57 154.69 301.01 145.9" id="XMLID_75_" fill="#F0B89F"/><path d="M285.58 215.01C286.1 216.02 288.15 216.59 291.01 211.75 293.75 207.12 295.74 198.32 297.07 189.71 298.39 181.11 300.6 154.69 301.04 145.9 301.48 137.09 290.29 144.13 290.33 151.37 291.14 152.9 294.57 154.62 295.43 154.62 295.48 161.93 292.01 184.04 290.49 190.96 289.49 195.54 295.68 192.51 293.12 201.85 290.33 212.02 287.02 215.87 285.58 215.01Z" id="XMLID_74_" fill="#DB825E" opacity="0.5"/><path d="M278.31 214.34 278.33 214.39C278.44 214.66 278.66 214.84 279.03 214.92 281.88 215.54 285.55 208.26 286.66 206.87 287.1 206.33 287.44 206.14 287.65 206.22 287.54 206.11 287.01 205.25 285.84 206.14 285.02 206.76 282.37 211.72 281.4 212.87 280.46 214 278.85 214.67 278.31 214.34Z" id="XMLID_73_" fill="#DB825E" opacity="0.5"/><path d="M274.64 209.08C274.73 209.52 275 209.89 275.51 210.16 277.4 211.18 279.11 208.28 281.21 205.33 281.8 204.52 282.6 204.04 282.94 204.22 282.87 204.08 282.45 203.39 281.51 203.53 280.34 203.7 278.32 207.4 277.32 208.56 276.35 209.69 275.06 210.15 274.64 209.08Z" id="XMLID_72_" fill="#DB825E" opacity="0.5"/><path d="M272.16 196.59C273.05 198.41 275.2 198.89 277.93 198.52 279.25 198.35 279.6 198.72 279.32 199.6 279.49 199.09 280.05 197.2 278.94 197.08 277.66 196.95 275.27 197.73 273.63 196.89 271.99 196.05 272.27 195.27 272.27 195.27L272.25 195.29C271.96 195.64 271.9 196.06 272.16 196.59Z" id="XMLID_71_" fill="#DB825E" opacity="0.5"/><path d="M281.84 199.19C281.84 199.19 287.63 198.76 289.92 194.97 289.92 194.97 290.06 197.4 287.49 198.98 284.91 200.55 281.84 199.19 281.84 199.19Z" id="XMLID_70_" fill="#DB825E" opacity="0.5"/></g><g id="XMLID_65_"><path d="M353.16 311.57C353.16 311.57 346.72 316.45 338.07 312.73 338.07 312.73 328.19 276.47 325.62 265.37 322.66 252.54 317.03 230.61 317.03 230.61 317.03 230.61 313.11 256.07 312.53 260.65 311.95 265.23 314.25 266.38 311.39 285.26 308.52 304.15 307.38 309.01 307.38 309.01 307.38 309.01 299.65 311.3 289.93 306.73 289.93 306.73 290.79 269.24 291.93 248.64 293.07 228.04 295.27 191.91 295.27 191.91L307.51 191.19 338.07 189.4C338.07 189.4 341.44 215.73 342.29 229.17 343.15 242.62 342.86 251.49 345.15 256.36 347.44 261.23 350.3 266.66 351.74 284.41 353.16 302.13 353.16 311.57 353.16 311.57Z" id="XMLID_68_" fill="#4D6A8D"/><path d="M311.38 285.26C308.51 304.15 307.37 309.01 307.37 309.01 307.37 309.01 299.64 311.3 289.92 306.73 289.92 306.73 301.58 306.58 304.58 291.35 307.58 276.11 297.71 273.54 297.71 270.32 297.71 267.1 302.86 268.17 306.29 261.52 309.72 254.87 308.65 231.26 306.5 224.61 304.35 217.96 303.71 212.59 306.5 214.99 309.29 217.38 312.29 219.89 313.15 220.96 314.01 222.03 317 230.63 317 230.63 317 230.63 313.08 256.09 312.5 260.67 311.95 265.22 314.24 266.37 311.38 285.26Z" id="XMLID_67_" fill="#2F5070"/><path d="M353.16 311.57C353.16 311.57 346.72 316.45 338.07 312.73 343.01 309.58 346.85 304.02 346.44 289 346.01 273.12 336.07 275.09 335.49 269.01 335.24 266.38 340.72 263.43 340.43 257.42 340.15 251.41 335.71 215.14 334.79 206.93 333.87 198.72 329.7 199.68 321.54 199.73 313.38 199.77 303.47 196.16 303.47 196.16L307.5 191.17C318.47 187.19 329 185.11 338.06 189.38 338.06 189.38 341.43 215.71 342.28 229.15 343.14 242.6 342.85 251.47 345.14 256.34 347.43 261.21 350.29 266.64 351.73 284.39 353.16 302.13 353.16 311.57 353.16 311.57Z" id="XMLID_66_" fill="#2F5070"/></g><g id="XMLID_60_"><path d="M337.87 146.36C336.32 148.29 334.79 161.21 334.79 161.21 335.97 167.43 338.07 189.39 338.07 189.39 336.14 192.39 333.45 193.68 333.45 193.68L331.5 189.08 330.99 195.27C312.75 200.29 294.37 195.49 295.03 190.66 295.7 185.83 297.72 153.06 297.72 153.06 293.56 153.21 289 150.74 288.73 150.6 288.72 150.59 288.71 150.59 288.71 150.59 288.71 150.59 290.64 137.67 291.76 129.3 292.88 120.93 299.87 117.71 304.13 116.64 308.4 115.57 309.74 114.28 309.74 114.28 309.74 114.28 306.95 124.58 314.45 124.58 321.95 124.58 326.35 111 326.35 111 330.71 115.34 334.7 112.78 339.93 114.64 344.15 116.14 346.92 120.75 348.73 128.02 350.18 133.85 355.19 145.28 355.19 145.28 349.09 147.8 341.86 154.4 341.86 154.4L338.14 146.9 337.87 146.36Z" id="XMLID_64_" fill="#3DB59F"/><path d="M299.35 136.27 297.71 153.06C293.55 153.21 288.99 150.74 288.72 150.6 289.03 150.65 292.61 151.27 295.07 149.76 297.49 148.28 299.15 137.6 299.35 136.27Z" id="XMLID_63_" fill="#029D84"/><path d="M343.97 152.57 336.58 136.79 337.87 146.36C339.22 149.26 340.55 151.89 341.85 154.4L343.97 152.57Z" id="XMLID_62_" fill="#029D84"/><path d="M338.07 189.39C336.14 192.39 333.45 193.68 333.45 193.68 335.48 188.96 334.75 179.04 332.85 170.64 330.7 161.2 331.71 159.48 333.53 153.05 335.35 146.64 337.01 139.91 337.01 139.91L338.14 146.88 337.87 146.35C336.32 148.28 334.79 161.2 334.79 161.2 335.96 167.43 338.07 189.39 338.07 189.39Z" id="XMLID_61_" fill="#029D84"/></g></g></g><g id="XMLID_7_"><path d="M92.78 339.43C92.78 339.43 70.89 332.65 60.3 332.71 49.7 332.77 51.22 339.75 51.22 339.75L25.54 341.01C25.54 341.01-15.72 323.11 6.65 318.28 29.01 313.45 77.86 317.92 88.63 323.1 99.39 328.28 92.78 339.43 92.78 339.43Z" id="XMLID_57_" fill="#6BADC1"/><g id="XMLID_8_"><g id="XMLID_52_"><g id="XMLID_54_"><path d="M109.01 329.56C109.01 329.56 109.99 333.59 108.42 335.35 106.86 337.11 98.37 341.89 90.17 338.67 81.97 335.45 79.53 332.52 74.85 332.33 70.17 332.13 68.64 331.67 69.02 328.93 69.4 326.18 109.01 329.56 109.01 329.56Z" id="XMLID_56_" fill="#3C1007"/><path d="M68.23 323.83C68.2 326.56 69.03 328.92 69.03 328.92 69.03 328.92 71.39 329.88 74.87 329.81 78.35 329.75 81.31 331.61 87.36 334.75 93.22 337.79 107.89 337.45 108.96 330.26 108.99 330.04 109.01 329.8 109.02 329.56 109.22 321.69 98.33 319.51 92.67 318.28 87.01 317.05 87.4 313.43 87.4 313.43L76.17 314.75 69.79 315.5C69.79 315.51 68.25 321.68 68.23 323.83Z" id="XMLID_55_" fill="#A42921"/></g><path d="M68.23 323.83C68.2 326.56 69.03 328.92 69.03 328.92 69.03 328.92 71.39 329.88 74.87 329.81 78.35 329.75 81.31 331.61 87.36 334.75 93.22 337.79 107.89 337.45 108.96 330.26 95.58 337.35 87.75 330.54 83.15 328.3 78.53 326.05 72.95 326.58 72.74 324.33 72.53 322.07 72.63 318 75 317.57 77.35 317.14 80.37 315.75 80.37 315.75L76.18 314.75 69.8 315.5C69.79 315.51 68.25 321.68 68.23 323.83Z" id="XMLID_53_" fill="#851F1A"/></g><g id="XMLID_47_"><g id="XMLID_49_"><path d="M51.29 336.59C51.29 336.59 51.48 339.62 50.94 340.89 50.41 342.16 46.24 344.37 38.18 344.41 29.7 344.45 22.83 342.9 22.72 332.72L51.29 336.59Z" id="XMLID_51_" fill="#3C1007"/><path d="M24.16 336.78C27.95 342.64 41.83 343.62 49 339.72 50.95 338.66 51.5 337.3 51.21 335.81 50.45 331.84 43.65 327.05 41.61 325.06 39.14 322.64 39.19 320.01 39.24 319.45 39.24 319.37 39.25 319.34 39.25 319.34L24.16 318.28C24.16 318.28 20.37 330.92 24.16 336.78Z" id="XMLID_50_" fill="#A42921"/></g><path d="M24.16 336.78C27.95 342.64 41.83 343.62 49 339.72 50.95 338.66 51.5 337.3 51.21 335.81 51.21 335.81 45.8 341.94 35.71 338.56 25.63 335.18 25.63 327.56 26.38 324.12 27.13 320.69 33.35 325.16 39.25 319.45 39.25 319.37 39.26 319.34 39.26 319.34L24.17 318.28C24.16 318.28 20.37 330.92 24.16 336.78Z" id="XMLID_48_" fill="#851F1A"/></g><path d="M42.45 121.28C42.45 121.28 59.83 146.39 66.18 140.11 72.54 133.83 66.11 119.74 66.11 119.74 66.11 119.74 65.7 118.06 65.65 116.49 65.57 113.39 68.93 113.09 69.11 113.08L49.52 101.73C49.52 101.73 49.59 102.5 49.67 103.7 49.93 107.38 50.33 115.14 49.29 117.71 47.92 121.08 42.45 121.28 42.45 121.28Z" id="XMLID_46_" fill="#F0B89F"/><path d="M49.68 103.68C50.06 106.59 51.35 112.06 55.8 115.53 62.08 120.45 65.66 116.47 65.66 116.47 65.58 113.37 68.94 113.07 69.12 113.06L49.53 101.71C49.53 101.72 49.52 102.48 49.68 103.68Z" id="XMLID_45_" fill="#DB825E" opacity="0.5"/><g id="XMLID_31_"><g id="XMLID_34_"><path d="M76.72 108.44C73.24 116.08 60.38 112.63 55.11 109.57 51.73 107.61 49.54 101.72 49.54 101.72 49.54 101.72 43.61 106.38 39.71 98.99 36.75 93.37 43.09 86.95 47.99 92.06L52.24 66.19C58.83 63.7 69.68 64.87 75.49 73.31 76.83 75.25 78.3 79.13 78.81 81.46 79.02 82.45 79.21 83.46 79.35 84.49 80.5 92.58 79.82 101.63 76.72 108.44Z" id="XMLID_44_" fill="#F0B89F"/><path d="M53.63 86.44C53.63 86.44 55.17 85.6 57.02 84.93 58.87 84.26 61.95 84.47 61.92 82.94 61.88 80.91 58.19 81.28 56.35 82.43 54.51 83.58 53.63 86.44 53.63 86.44Z" id="XMLID_43_" fill="#EEA532"/><path d="M81.91 84.33C81.91 84.33 80.26 83.72 78.33 83.34 76.4 82.96 73.39 83.62 73.19 82.1 72.92 80.09 76.63 79.91 78.63 80.77 80.62 81.64 81.91 84.33 81.91 84.33Z" id="XMLID_42_" fill="#EEA532"/><path d="M62.44 91.11C62.45 92.39 61.53 93.44 60.38 93.45 59.23 93.46 58.28 92.43 58.27 91.15 58.26 89.87 59.18 88.82 60.33 88.81 61.48 88.8 62.43 89.83 62.44 91.11Z" id="XMLID_41_" fill="#111224"/><path d="M72.69 89.81C72.7 91.04 73.61 92.03 74.72 92.02 75.83 92.01 76.72 91 76.7 89.77 76.69 88.54 75.78 87.55 74.67 87.56 73.57 87.57 72.68 88.58 72.69 89.81Z" id="XMLID_40_" fill="#111224"/><path d="M68.06 91.13C67.92 91.38 67.73 94.65 67.94 97.15 68.18 100.06 68.31 100.71 70.17 99.86 72.99 98.58 72.42 98.36 71.56 96.69 70.91 95.43 70.21 94.11 69.59 92.92 68.74 91.29 68.42 90.47 68.06 91.13Z" id="XMLID_39_" fill="#EA806A"/><path d="M71.02 103.08C69.69 103.54 67.03 104.12 62.39 103.92 62.41 105.89 66.58 107.83 70.63 106.45 70.63 106.45 70.79 104.85 71.45 103.56 71.59 103.28 71.32 102.98 71.02 103.08Z" id="XMLID_38_" fill="#EDEDED"/><path d="M47.57 94.39C47.57 94.39 47.09 91.78 44.98 91.5 41.96 91.1 39.09 95.09 41.27 98.54 41.27 98.54 41.62 94.45 44.07 93.91 46.54 93.38 47.57 94.39 47.57 94.39Z" id="XMLID_37_" fill="#DB825E" opacity="0.5"/><path d="M60.48 96.6C60.77 98.24 59.23 99.89 57.03 100.28 54.83 100.67 52.81 99.65 52.52 98.01 52.23 96.37 53.77 94.72 55.97 94.33 58.17 93.94 60.18 94.96 60.48 96.6Z" id="XMLID_36_" fill="#EC5E76" opacity="0.3"/><path d="M82.32 95.84C82.08 97.49 80.1 98.57 77.89 98.25 75.68 97.93 74.08 96.33 74.32 94.68 74.56 93.03 76.54 91.95 78.75 92.27 80.96 92.59 82.56 94.19 82.32 95.84Z" id="XMLID_35_" fill="#EC5E76" opacity="0.3"/></g><path d="M41.49 80.81 43.66 90.21C43.66 90.21 45.79 89.8 47.97 92.05 47.97 92.05 48.7 93.34 49.67 94.77 50.33 95.75 51.16 94.18 51.12 92.17 51.1 91.26 50.9 90.25 50.41 89.36 50.41 89.36 51.69 85.36 52.15 78.01 52.15 78.01 58.51 78.69 64.06 74.11 64.06 74.11 73.25 82.81 81.37 76.99 90.06 70.76 83.87 58.86 76.44 59.28 69.47 59.66 67.75 62.95 67.57 63.34 67.7 62.71 69.02 55.62 60.74 58.3 56.02 59.82 52.8 63.39 50.57 66.55L50.57 66.56C48.7 69.2 41.66 76.81 41.49 80.81Z" id="XMLID_33_" fill="#EEA532"/><path d="M41.49 80.81 43.66 90.21C43.66 90.21 45.79 89.8 47.97 92.05 47.97 92.05 48.7 93.34 49.67 94.77 50.33 95.75 51.16 94.18 51.12 92.17L51.11 92.17C51.11 92.17 50.61 93.7 49.27 91.68 47.94 89.65 44.81 88.06 44.81 88.06 44.81 88.06 43.6 80.8 50.55 66.54 48.7 69.2 41.66 76.81 41.49 80.81Z" id="XMLID_32_" fill="#EC823C"/></g><g id="XMLID_24_"><path d="M86.26 150.32C85.93 154.97 92.04 188.84 92.24 190.33 93.13 196.96 93.5 195.69 96.69 197.85 100.1 200.16 103.99 200.75 105.05 201.98L105.07 202C105.37 202.36 105.43 202.77 105.17 203.3 104.28 205.12 102.13 205.6 99.4 205.23 98.08 205.06 97.73 205.43 98.01 206.31L98.01 206.32C98.03 206.4 98.05 206.44 98.05 206.44L98.06 206.44C98.39 207.39 99.37 208.87 100.63 210.83 101.66 212.45 103 214.42 102.7 215.77 102.69 215.78 102.69 215.79 102.69 215.8 102.6 216.24 102.32 216.61 101.82 216.88 99.93 217.9 98.22 215 96.12 212.05 95.54 211.24 94.73 210.76 94.39 210.94 94.15 211.07 94.14 211.49 94.53 212.32 95.36 214.09 99.67 219.27 99.02 221.06L99.03 221.06 99.01 221.11C98.9 221.38 98.68 221.56 98.31 221.64 95.46 222.26 91.79 214.98 90.68 213.59 90.24 213.05 89.9 212.86 89.69 212.94 89.68 212.95 89.67 212.96 89.67 212.96 89.36 213.12 89.4 213.97 89.99 215.27 90.97 217.44 92.25 220.79 91.76 221.72 91.24 222.73 89.16 223.02 86.33 218.46 83.49 213.89 81.6 205.03 80.27 196.42 78.95 187.82 76.74 161.4 76.3 152.61" id="XMLID_30_" fill="#F0B89F"/><path d="M91.74 221.72C91.22 222.73 89.17 223.3 86.31 218.46 83.57 213.83 81.58 205.03 80.25 196.42 78.93 187.82 76.72 161.4 76.28 152.61 75.84 143.8 87.03 150.84 86.99 158.08 86.18 159.61 82.75 161.33 81.89 161.33 81.84 168.64 85.31 190.75 86.83 197.67 87.83 202.25 81.64 199.21 84.2 208.56 86.99 218.73 90.3 222.58 91.74 221.72Z" id="XMLID_29_" fill="#DB825E" opacity="0.5"/><path d="M99.01 221.05 98.99 221.1C98.88 221.37 98.66 221.55 98.29 221.63 95.44 222.25 91.77 214.97 90.66 213.58 90.22 213.04 89.88 212.85 89.67 212.93 89.78 212.82 90.31 211.96 91.48 212.85 92.3 213.47 94.95 218.43 95.92 219.58 96.86 220.71 98.47 221.38 99.01 221.05Z" id="XMLID_28_" fill="#DB825E" opacity="0.5"/><path d="M102.68 215.79C102.59 216.23 102.31 216.6 101.81 216.87 99.92 217.89 98.21 214.99 96.11 212.04 95.53 211.23 94.72 210.75 94.38 210.93 94.45 210.79 94.87 210.1 95.81 210.24 96.98 210.41 99 214.11 100 215.27 100.97 216.4 102.26 216.87 102.68 215.79Z" id="XMLID_27_" fill="#DB825E" opacity="0.5"/><path d="M105.16 203.3C104.27 205.12 102.12 205.6 99.39 205.23 98.07 205.06 97.72 205.43 98 206.31 97.83 205.8 97.27 203.91 98.38 203.79 99.66 203.66 102.05 204.45 103.69 203.6 105.33 202.76 105.05 201.98 105.05 201.98L105.07 202C105.36 202.35 105.42 202.77 105.16 203.3Z" id="XMLID_26_" fill="#DB825E" opacity="0.5"/><path d="M95.48 205.9C95.48 205.9 89.69 205.47 87.4 201.68 87.4 201.68 87.26 204.11 89.83 205.69 92.41 207.26 95.48 205.9 95.48 205.9Z" id="XMLID_25_" fill="#DB825E" opacity="0.5"/></g><g id="XMLID_20_"><path d="M24.16 318.28C24.16 318.28 30.6 323.16 39.25 319.44 39.25 319.44 49.13 283.18 51.7 272.08 54.66 259.25 60.29 237.32 60.29 237.32 60.29 237.32 64.21 262.78 64.79 267.36 65.37 271.94 63.07 273.09 65.93 291.97 68.8 310.86 69.94 315.71 69.94 315.71 69.94 315.71 77.67 318 87.39 313.43 87.39 313.43 86.53 275.94 85.39 255.34 84.25 234.74 82.05 198.61 82.05 198.61L69.81 197.89 39.25 196.1C39.25 196.1 35.88 222.43 35.03 235.87 34.17 249.32 34.46 258.19 32.17 263.06 29.88 267.93 27.02 273.36 25.59 291.1 24.16 308.84 24.16 318.28 24.16 318.28Z" id="XMLID_23_" fill="#B47331"/><path d="M65.94 291.97C68.81 310.86 69.95 315.71 69.95 315.71 69.95 315.71 77.68 318 87.4 313.43 87.4 313.43 75.74 313.28 72.74 298.05 69.74 282.81 79.61 280.24 79.61 277.02 79.61 273.8 74.46 274.87 71.03 268.22 67.6 261.57 68.67 237.96 70.82 231.31 72.97 224.66 73.61 219.29 70.82 221.69 68.03 224.08 65.03 226.59 64.17 227.66 63.31 228.73 60.32 237.33 60.32 237.33 60.32 237.33 64.24 262.79 64.82 267.37 65.37 271.93 63.08 273.08 65.94 291.97Z" id="XMLID_22_" fill="#AA5F27"/><path d="M24.16 318.28C24.16 318.28 30.6 323.16 39.25 319.44 34.31 316.29 30.47 310.73 30.88 295.71 31.31 279.83 41.25 281.8 41.83 275.72 42.08 273.09 36.6 270.14 36.89 264.13 37.17 258.12 41.61 221.85 42.53 213.64 43.45 205.43 47.62 206.39 55.78 206.44 63.94 206.48 73.85 202.87 73.85 202.87L69.82 197.88C60.58 190.48 50.32 190.37 39.26 196.09 39.26 196.09 35.89 222.42 35.04 235.86 34.18 249.31 34.47 258.18 32.18 263.05 29.89 267.92 27.03 273.35 25.6 291.09 24.16 308.84 24.16 318.28 24.16 318.28Z" id="XMLID_21_" fill="#AA5F27"/></g><g id="XMLID_14_"><path d="M38.93 152.25C38.01 156.82 36.06 173.11 35.28 184.03 35.01 187.96 34.84 191.11 34.83 192.61 34.79 198.29 35.4 198.09 38.28 200.64 41.36 203.37 45.15 204.45 46.05 205.8L46.07 205.82C46.32 206.21 46.32 206.63 46 207.12 44.89 208.81 42.69 209.01 40.03 208.3 38.74 207.96 38.35 208.28 38.51 209.19L38.51 209.2C38.53 209.28 38.53 209.32 38.53 209.32L38.54 209.32C38.75 210.3 39.53 211.9 40.53 214.01 41.35 215.75 42.42 217.87 41.96 219.17 41.95 219.18 41.95 219.19 41.94 219.2 41.79 219.63 41.48 219.95 40.94 220.16 38.94 220.94 37.61 217.84 35.91 214.64 35.43 213.76 34.7 213.18 34.34 213.32 34.09 213.42 34.02 213.84 34.3 214.71 34.9 216.57 38.51 222.26 37.64 223.95L37.65 223.95 37.61 224C37.47 224.25 37.22 224.4 36.84 224.44 33.93 224.69 31.23 217 30.3 215.48 29.94 214.89 29.62 214.66 29.4 214.71 29.39 214.72 29.38 214.73 29.38 214.73 29.05 214.85 28.98 215.7 29.4 217.07 30.09 219.35 30.94 222.84 30.33 223.7 29.68 224.64 27.59 224.65 25.36 219.77 23.13 214.88 22.38 205.85 22.16 197.14 21.94 188.44 23.13 161.96 23.81 153.18L38.93 152.25Z" id="XMLID_19_" fill="#F0B89F"/><path d="M30.33 223.69C29.68 224.63 27.58 224.93 25.36 219.76 23.23 214.82 22.38 205.84 22.16 197.13 21.94 188.43 23.13 161.95 23.81 153.17 24.5 144.38 25.07 138.05 26.39 142.39 27.78 146.93 27.48 150.89 26.51 158.06 25.33 166.77 23.09 198.34 24.53 209.68 25.86 220.13 28.8 224.35 30.33 223.69Z" id="XMLID_18_" fill="#DB825E" opacity="0.5"/><path d="M37.63 223.95 37.61 224C37.47 224.25 37.22 224.4 36.84 224.44 33.93 224.69 31.23 217 30.3 215.48 29.94 214.89 29.62 214.66 29.4 214.71 29.52 214.61 30.16 213.83 31.21 214.86 31.94 215.58 33.94 220.83 34.75 222.1 35.55 223.33 37.05 224.21 37.63 223.95Z" id="XMLID_17_" fill="#DB825E" opacity="0.5"/><path d="M41.94 219.2C41.79 219.63 41.48 219.95 40.94 220.16 38.94 220.94 37.61 217.84 35.91 214.64 35.43 213.76 34.7 213.18 34.34 213.32 34.43 213.19 34.93 212.56 35.85 212.82 36.99 213.13 38.52 217.07 39.36 218.34 40.17 219.59 41.39 220.21 41.94 219.2Z" id="XMLID_16_" fill="#DB825E" opacity="0.5"/><path d="M46 207.13C44.89 208.82 42.69 209.02 40.03 208.31 38.74 207.97 38.35 208.29 38.51 209.2 38.4 208.67 38.09 206.72 39.21 206.75 40.5 206.78 42.76 207.87 44.5 207.24 46.23 206.61 46.06 205.81 46.06 205.81L46.08 205.83C46.31 206.22 46.32 206.64 46 207.13Z" id="XMLID_15_" fill="#DB825E" opacity="0.5"/></g><g id="XMLID_10_"><path d="M88.6 157.31C88.33 157.46 83.78 159.92 79.61 159.77 79.61 159.77 81.63 192.55 82.3 197.37 82.96 202.2 64.58 207 46.34 201.98L45.82 195.79 43.87 200.39C43.87 200.39 41.18 199.1 39.25 196.1 39.25 196.1 41.35 174.14 42.53 167.92 42.53 167.92 41 155 39.45 153.07L39.18 153.6 38.12 163.2C38.12 163.2 27.91 164.12 22.13 159.81 22.13 159.81 24.51 141.02 24.98 135.03 25.58 127.38 29.97 123.47 34.18 121.97 35.53 121.49 36.85 121.22 38.12 121.06 41.78 120.59 45.04 120.98 47.56 119.74 47.56 119.74 55.35 131.3 62.86 131.3 70.37 131.3 66.46 120.58 66.46 120.58 66.46 120.58 68.92 122.29 73.19 123.36 77.45 124.43 84.44 127.65 85.56 136.02 86.68 144.39 88.61 157.31 88.61 157.31 88.61 157.31 88.61 157.3 88.6 157.31Z" id="XMLID_13_" fill="#6796C2"/><path d="M78.14 144.66 79.62 159.77C83.78 159.92 88.34 157.45 88.61 157.31 88.3 157.36 85.76 157.21 83.3 155.7 81.36 154.51 79.23 147.86 78.37 144.61 78.32 144.48 78.12 144.52 78.14 144.66Z" id="XMLID_12_" fill="#4D82AD"/><path d="M39.26 196.1C41.19 199.1 43.88 200.39 43.88 200.39 41.85 195.67 43.28 185.88 44.48 177.35 45.69 168.81 45.62 166.19 43.8 159.76 41.98 153.35 40.32 146.62 40.32 146.62L39.19 153.59 39.46 153.06C41.01 154.99 42.54 167.91 42.54 167.91 41.36 174.14 39.26 196.1 39.26 196.1Z" id="XMLID_11_" fill="#4D82AD"/></g><path d="M38.13 163.2C38.13 163.2 27.92 164.12 22.14 159.81 22.14 159.81 24.52 141.02 24.99 135.03 25.59 127.38 29.98 123.47 34.19 121.97 35.54 121.49 36.86 121.22 38.13 121.06 38.13 121.06 30.04 122.49 27.86 134.3 25.68 146.1 24.37 161.83 38.13 163.2Z" id="XMLID_9_" fill="#4D82AD"/></g></g><g><g id="XMLID_4_"><path d="M255.69 45.2 200.51 45.2C188.03 45.2 177.91 35.08 177.91 22.6L177.91 22.6C177.91 10.12 188.03 0 200.51 0L255.69 0C268.17 0 278.29 10.12 278.29 22.6L278.29 22.6C278.29 35.08 268.17 45.2 255.69 45.2Z" id="XMLID_6_" fill="#6BADC1"/><path d="M236.04 42.06C236.04 42.06 248.26 48.96 242.77 64.03 242.77 64.03 259.57 57.13 255.74 42.06L236.04 42.06Z" id="XMLID_5_" fill="#6BADC1"/></g></g><g><g id="XMLID_1_"><path d="M133.13 53.1 87.63 53.1C77.23 53.1 68.8 44.67 68.8 34.27L68.8 34.27C68.8 23.87 77.23 15.44 87.63 15.44L133.13 15.44C143.53 15.44 151.96 23.87 151.96 34.27L151.96 34.27C151.96 44.67 143.52 53.1 133.13 53.1Z" id="XMLID_3_" fill="#6BADC1"/><path d="M100.07 50.31C100.07 50.31 106.38 58.78 98.69 69.5 98.69 69.5 119.04 68.18 119.52 50.31L100.07 50.31Z" id="XMLID_2_" fill="#6BADC1"/></g></g><g transform="translate(-2.28758 -1.29754)"><path d="M108.89 48.15C95.13 48.15 92.37 34.61 92.34 34.47 92.22 33.82 92.52 33.16 93.03 33 93.53 32.84 94.04 33.23 94.17 33.88L94.17 33.88C94.27 34.37 96.68 45.85 109.09 45.72 123.38 45.57 125.37 32.69 125.45 32.14 125.54 31.48 126.03 31.05 126.54 31.16 127.05 31.28 127.39 31.9 127.3 32.56 127.28 32.71 125 47.98 109.1 48.14 109.03 48.15 108.96 48.15 108.89 48.15Z" fill="#2B203F"/></g><g transform="matrix(1 0 0 -1 -498.672 349.999)"><g><defs><path d="M714.37 333.74C709.77 333.61 708.9 315.29 724.73 315.76 742.87 316.3 742.98 332.62 740.37 337.58 738.73 340.69 734.67 334.2 726.62 333.15 720.62 332.38 715.33 333.76 714.37 333.74Z" id="SVGID_1_"/></defs><clipPath id="SVGID_2_"><use width="100%" height="100%" xlink:href="#SVGID_1_" overflow="visible"></use></clipPath><use width="100%" height="100%" xlink:href="#SVGID_1_" fill="#B02F10" fill-rule="evenodd" clip-rule="evenodd" overflow="visible"></use><g clip-path="url(#SVGID_2_)"><g transform="matrix(1 0 0 -1 105.997 565.324)"><g><path d="M606.94 249.58C606.94 249.58 608.19 239.05 617.81 239.01 627.43 238.97 632.03 244.44 631.34 249.58 631.34 249.58 619.07 258.01 606.94 249.58Z" fill="#EA3E15" fill-rule="evenodd" clip-rule="evenodd"/><path d="M618.69 253.91C615.02 253.91 610.73 252.99 606.46 250.02 606.28 249.89 606.18 249.7 606.21 249.51 606.22 249.4 606.55 246.75 608.1 244.05 610.21 240.37 613.57 238.42 617.81 238.4 617.85 238.4 617.89 238.4 617.93 238.4 623.78 238.4 627.19 240.33 629.01 241.96 631.33 244.03 632.45 246.83 632.07 249.64 632.05 249.79 631.96 249.93 631.81 250.03 631.68 250.12 628.57 252.24 623.88 253.31 622.39 253.66 620.62 253.91 618.69 253.91ZM607.73 249.33C612.48 252.52 617.78 253.48 623.49 252.16 627.18 251.31 629.86 249.75 630.63 249.27 630.87 246.88 629.89 244.52 627.91 242.76 626.27 241.3 623.2 239.57 617.81 239.6 609.86 239.64 608.02 247.66 607.73 249.33Z" fill="#2B203F"/></g></g><g transform="matrix(1 0 0 -1 105.997 565.324)"><g><path d="M608.37 229.25C608.37 229.25 607.92 235.14 620.15 234.82 632.38 234.5 632.86 227.75 632.86 227.75L608.37 229.25Z" fill="#FFFFFF" fill-rule="evenodd" clip-rule="evenodd"/><path d="M619.2 235.43C614.78 235.43 611.55 234.6 609.56 232.96 607.49 231.25 607.62 229.3 607.63 229.22 607.65 228.92 607.94 228.68 608.31 228.66L632.8 227.15C633.01 227.14 633.22 227.2 633.38 227.32 633.53 227.44 633.61 227.61 633.6 227.78 633.59 227.85 632.93 235.08 620.17 235.42 619.85 235.42 619.52 235.43 619.2 235.43ZM609.16 229.8C609.27 230.36 609.6 231.28 610.66 232.14 612.46 233.61 615.74 234.33 620.13 234.22 629.32 233.98 631.48 230.03 631.98 228.4L609.16 229.8Z" fill="#2B203F"/></g></g></g></g><path d="M724.14 315.15C718.28 315.15 715.07 317.67 713.39 319.83 710.19 323.94 710.05 329.98 711.93 332.83 712.73 334.04 713.69 334.32 714.35 334.34 714.67 334.35 715.15 334.27 715.94 334.15 718.09 333.81 722.1 333.18 726.51 333.75 730.3 334.24 733.23 336.04 735.37 337.35 737.15 338.44 738.43 339.23 739.64 338.97 740.25 338.84 740.73 338.45 741.07 337.82 742.91 334.32 743.21 326.62 738.98 321.27 735.92 317.41 731.14 315.35 724.78 315.17 724.55 315.16 724.34 315.15 724.14 315.15ZM714.37 333.74 714.4 333.14C713.88 333.13 713.45 332.59 713.24 332.27 711.75 330.01 711.56 324.43 714.65 320.47 716.88 317.61 720.26 316.23 724.71 316.36 730.56 316.53 734.94 318.4 737.72 321.91 741.63 326.85 741.37 334.17 739.7 337.35 739.62 337.51 739.45 337.77 739.26 337.81 738.75 337.92 737.49 337.14 736.27 336.39 734.01 335 730.9 333.1 726.75 332.56 722.08 331.96 717.91 332.61 715.66 332.96 715.14 333.04 714.55 333.13 714.41 333.13L714.37 333.74ZM714.37 333.74 714.37 333.74 714.37 333.74Z" fill="#2B203F"/></g></svg>