<svg width="2600" height="1740.69" viewBox="0 0 2600 1740.69" xmlns="http://www.w3.org/2000/svg" xmlns:xlink="http://www.w3.org/1999/xlink" xml:space="preserve" overflow="hidden"><defs></defs><g><g id="_x38__1_"><path d="M650.55 904.31C647.9 929.47 642.43 954.23 633.88 977.89 633.65 978.54 633.41 979.17 633.17 979.81L633.17 979.82C633.02 980.27 632.85 980.71 632.68 981.15 632.63 981.29 632.58 981.43 632.53 981.57L0.15 981.57 0.15 512.23C9.49 510.87 18.56 508.52 27 505.21 82.86 486.94 137.45 447.54 202.13 464.62 205.4 465.47 208.68 466.47 212 467.63 248.71 480.6 273.46 497.7 290.28 519.52 295.94 526.84 300.7 534.7 304.71 543.11 334.66 594.94 303.24 666.42 349.06 707.33 357.02 714.43 366.54 719.5 376.68 722.81 422.1 737.66 481.19 730.06 529.79 736.41 643.08 744.05 657.93 840.76 650.55 904.31Z" fill="#C8DFFC"/><path d="M562.33 970.61C561.6 972.67 560.89 974.55 560.19 976.2 560.18 976.24 560.17 976.27 560.15 976.3 559.66 977.46 559.19 978.51 558.72 979.43 558.65 979.57 558.58 979.71 558.51 979.85L0.15 979.85 0.15 625.52C65.11 626.26 122 571.53 191.57 588 296.09 613.46 291.29 685.95 296.79 734 297.76 742.5 300.51 750.75 305.12 757.96 356.62 838.52 574.1 724.52 575 901.7 576.08 918.77 568.87 951.99 562.33 970.61Z" fill="#AAC7F7"/><path d="M514.07 976.2C514.06 977.57 514.01 979.01 513.96 980.41 342.95 980.06 171.65 980.08 0.01 980.12 0.41 980 0.01 888.55 0.15 888.32 116.55 815.01 106.37 817.71 226.1 881 341.75 943.47 521.26 836.21 514.07 976.2Z" fill="#B3D2FF"/></g><g id="_x36__1_"><path d="M2600 975.35 2600 1740.69 0.12 1740.69 0.12 975.34Z" fill="#688DC1"/><path d="M457.09 975.34 88.84 1392.93 88.8 1392.98 0.12 1493.52 0.12 975.34Z" fill="#7FA3DD"/><path d="M2600 1488.12 2572.26 1456.56 2149.29 975.35 2600 975.35Z" fill="#7FA3DD"/><path d="M1485.35 1740.69 1149.52 1740.69 1207.14 1264.86 1427.73 1264.86Z" fill="#A3BCEF"/><path d="M2017.51 1740.69 1681.67 1740.69 1554.91 1264.86 1775.5 1264.86Z" fill="#A3BCEF"/><path d="M2599.66 1740.69 2263.83 1740.69 1952.67 1264.86 2173.26 1264.86Z" fill="#A3BCEF"/><path d="M1079.95 1264.86 953.19 1740.69 617.36 1740.69 851.88 1279.6 859.37 1264.86Z" fill="#A3BCEF"/><path d="M682.19 1264.86 631.88 1341.79 603.54 1385.13 591.27 1403.9 578.29 1423.74 561.1 1450.03 555.09 1459.22 371.03 1740.69 35.21 1740.69 461.6 1264.86Z" fill="#A3BCEF"/><path d="M510 975.34 0.12 1493.52 0.12 1339.07 433.6 975.34Z" fill="#A3BCEF"/><path d="M2600 1340.36 2600 1488.12 2091.13 975.35 2168.59 975.35Z" fill="#A3BCEF"/></g><g id="_x34__1_"><rect x="180.37" y="215.55" width="30.16" height="795.91" fill="#688DC1"/><rect x="180.37" y="215.55" width="30.16" height="93.97" fill="#3E6A96"/><path d="M233.04 297.45 157.87 297.45C139.85 297.45 125.23 282.84 125.23 264.81L125.23 32.63C125.23 14.61 139.84 0 157.86 0L233.03 0C251.05 0 265.67 14.61 265.67 32.63L265.67 264.81C265.67 282.84 251.06 297.45 233.04 297.45Z" fill="#517BAD"/><rect x="180.37" y="840.14" width="30.16" height="171.32" fill="#3E6A96"/><path d="M237.33 871.66 237.33 1010.15C237.33 1020.9 228.61 1029.62 217.87 1029.62L173.03 1029.62C162.28 1029.62 153.57 1020.9 153.57 1010.15L153.57 871.66C153.57 860.91 162.29 852.2 173.03 852.2L217.87 852.2C228.62 852.2 237.33 860.92 237.33 871.66Z" fill="#517BAD"/><circle cx="195.45" cy="81.9" r="51.74" fill="#7FA3DD"/><circle cx="195.45" cy="215.55" r="51.74" fill="#EB5648"/><path d="M237.33 993.29 237.33 1010.15C237.33 1020.9 228.61 1029.62 217.87 1029.62L173.03 1029.62C162.28 1029.62 153.57 1020.9 153.57 1010.15L153.57 993.29C153.78 993.28 153.97 993.28 154.18 993.28L236.73 993.28C236.93 993.29 237.14 993.29 237.33 993.29Z" fill="#3E6A96"/><path d="M273.06 1041.69 117.83 1041.69 117.83 1041.69C117.83 1021.62 134.1 1005.35 154.17 1005.35L236.72 1005.35C256.79 1005.35 273.06 1021.62 273.06 1041.69L273.06 1041.69Z" fill="#517BAD"/></g><g id="_x33__2_"><rect x="2384.09" y="235.34" width="30.16" height="795.91" fill="#688DC1"/><rect x="2384.09" y="235.34" width="30.16" height="93.97" fill="#3E6A96"/><path d="M2436.76 317.24 2361.58 317.24C2343.56 317.24 2328.94 302.63 2328.94 284.61L2328.94 52.42C2328.94 34.4 2343.55 19.78 2361.58 19.78L2436.76 19.78C2454.78 19.78 2469.4 34.39 2469.4 52.42L2469.4 284.6C2469.39 302.63 2454.78 317.24 2436.76 317.24Z" fill="#517BAD"/><rect x="2384.09" y="859.93" width="30.16" height="171.32" fill="#3E6A96"/><path d="M2441.06 891.45 2441.06 1029.94C2441.06 1040.69 2432.34 1049.41 2421.6 1049.41L2376.76 1049.41C2366.01 1049.41 2357.3 1040.69 2357.3 1029.94L2357.3 891.45C2357.3 880.7 2366.02 871.99 2376.76 871.99L2421.6 871.99C2432.34 871.99 2441.06 880.71 2441.06 891.45Z" fill="#517BAD"/><ellipse cx="2399.17" cy="101.69" rx="51.74" ry="51.74" fill="#7FA3DD" transform="matrix(0.00704161 -1 1 0.00704161 2280.59 2500.09)"/><ellipse cx="2399.17" cy="235.34" rx="51.74" ry="51.74" fill="#EB5648" transform="matrix(0.00704161 -1 1 0.00704161 2146.94 2632.79)"/><path d="M2441.06 1013.08 2441.06 1029.94C2441.06 1040.69 2432.34 1049.41 2421.6 1049.41L2376.76 1049.41C2366.01 1049.41 2357.3 1040.69 2357.3 1029.94L2357.3 1013.08C2357.51 1013.07 2357.7 1013.07 2357.91 1013.07L2440.46 1013.07C2440.65 1013.08 2440.86 1013.08 2441.06 1013.08Z" fill="#3E6A96"/><path d="M2476.78 1061.48 2321.55 1061.48 2321.55 1061.48C2321.55 1041.41 2337.82 1025.14 2357.89 1025.14L2440.44 1025.14C2460.51 1025.14 2476.78 1041.41 2476.78 1061.48L2476.78 1061.48Z" fill="#517BAD"/></g><g id="_x32__2_"><g><g><path d="M1144.28 1496.68 1003.95 1496.68C997.54 1496.68 992.49 1491.31 992.81 1484.92 992.96 1481.83 993.33 1478.18 994.05 1474.04 996.08 1462.35 996.92 1450.5 996.71 1438.65 996.61 1432.98 996.27 1427.3 995.69 1421.64L985.59 1323.2C984.92 1316.63 990.08 1310.92 996.69 1310.92L1058.62 1310.92C1065.33 1310.92 1070.53 1316.8 1069.69 1323.45L1058.43 1413.15C1055.97 1432.77 1068.62 1451.08 1087.84 1455.86 1101.53 1459.26 1115.44 1461.3 1125.38 1463.86 1126.66 1464.2 1127.94 1464.54 1129.18 1464.9L1129.2 1464.9C1139.75 1467.91 1148.46 1471.85 1153.5 1479.25 1158.54 1486.64 1153.25 1496.68 1144.28 1496.68Z" fill="#F99370"/><path d="M988.7 1482.14C989.08 1489.01 992.49 1496.85 1000.46 1496.68 1000.46 1496.68 1146.02 1496.68 1146.02 1496.68 1153.54 1496.69 1158.88 1489.16 1156.21 1482.14 1150.56 1466.27 1132.84 1442.52 1064.06 1438.64 1054.18 1439.6 1029.31 1443.06 996.71 1438.64 996.71 1438.64 985.52 1456.21 988.7 1482.14Z" fill="#103663"/><path d="M1111.32 1477C1110.93 1477 1110.54 1476.93 1110.16 1476.77 1108.58 1476.13 1107.82 1474.33 1108.46 1472.74 1115.1 1456.39 1127.5 1451.35 1128.02 1451.15 1129.62 1450.53 1131.4 1451.31 1132.03 1452.89 1132.66 1454.47 1131.88 1456.26 1130.3 1456.89L1130.3 1456.89C1129.87 1457.06 1119.79 1461.29 1114.19 1475.07 1113.7 1476.27 1112.55 1477 1111.32 1477Z" fill="#E8C0A6"/><path d="M1087.29 1474.1C1086.99 1474.1 1086.68 1474.06 1086.37 1473.96 1084.74 1473.45 1083.83 1471.72 1084.33 1470.09 1090.04 1451.69 1105.73 1443.37 1106.4 1443.03 1107.92 1442.24 1109.78 1442.83 1110.57 1444.34 1111.36 1445.85 1110.77 1447.71 1109.26 1448.51 1109.12 1448.58 1095.16 1456.05 1090.25 1471.92 1089.83 1473.25 1088.61 1474.1 1087.29 1474.1Z" fill="#E8C0A6"/><path d="M1059.94 1470.75C1059.6 1470.75 1059.26 1470.69 1058.92 1470.58 1057.31 1470.02 1056.46 1468.26 1057.02 1466.65 1063.5 1448.04 1078.08 1438.24 1078.69 1437.84 1080.11 1436.9 1082.02 1437.29 1082.97 1438.71 1083.91 1440.13 1083.53 1442.05 1082.11 1442.99 1081.98 1443.08 1068.63 1452.1 1062.86 1468.69 1062.41 1469.95 1061.22 1470.75 1059.94 1470.75Z" fill="#E8C0A6"/><path d="M1156.21 1482.14 988.7 1482.14C989.32 1487.25 990.73 1492.21 993.29 1496.68L1146.02 1496.68C1153.44 1496.68 1158.75 1489.38 1156.29 1482.39 1156.27 1482.3 1156.24 1482.22 1156.21 1482.14Z" fill="#0F2E54"/></g><g><path d="M831.83 1495.78 696.81 1457.53C690.64 1455.78 687.25 1449.24 689.3 1443.17 690.29 1440.24 691.64 1436.83 693.46 1433.04 698.6 1422.35 702.64 1411.18 705.67 1399.72 707.12 1394.23 708.34 1388.68 709.32 1383.08L726.43 1285.61C727.57 1279.11 734.09 1275.02 740.45 1276.82L800.04 1293.7C806.5 1295.53 809.89 1302.6 807.28 1308.77L772 1392.01C764.28 1410.22 771.47 1431.28 788.66 1441.11 800.91 1448.12 813.73 1453.87 822.6 1459.04 823.74 1459.72 824.88 1460.39 825.97 1461.07L825.99 1461.07C835.32 1466.84 842.63 1473.01 845.46 1481.5 848.29 1490.01 840.47 1498.23 831.83 1495.78Z" fill="#F99370"/><path d="M686.12 1439.39C684.61 1446.11 685.76 1454.58 693.47 1456.59 693.47 1456.59 833.52 1496.26 833.52 1496.26 840.75 1498.32 847.94 1492.53 847.28 1485.05 846.17 1468.24 833.3 1440.01 768.18 1417.53 758.42 1415.76 735.83 1412.87 705.67 1399.73 705.67 1399.72 690.12 1413.58 686.12 1439.39Z" fill="#103663"/><path d="M805.49 1467.87C805.12 1467.76 804.76 1467.59 804.43 1467.33 803.08 1466.28 802.84 1464.34 803.89 1462.99 814.74 1449.07 828.04 1447.6 828.6 1447.54 830.3 1447.38 831.81 1448.61 831.98 1450.31 832.15 1452 830.92 1453.51 829.23 1453.69L829.23 1453.69C828.77 1453.74 817.92 1455.05 808.78 1466.79 807.98 1467.82 806.67 1468.2 805.49 1467.87Z" fill="#E8C0A6"/><path d="M783.16 1458.53C782.87 1458.45 782.59 1458.32 782.32 1458.15 780.89 1457.22 780.48 1455.3 781.41 1453.87 791.92 1437.72 809.29 1433.99 810.02 1433.84 811.7 1433.49 813.33 1434.57 813.67 1436.24 814.02 1437.91 812.95 1439.54 811.28 1439.89 811.12 1439.92 795.66 1443.31 786.61 1457.24 785.84 1458.4 784.43 1458.89 783.16 1458.53Z" fill="#E8C0A6"/><path d="M757.76 1447.85C757.43 1447.76 757.12 1447.61 756.83 1447.41 755.43 1446.43 755.09 1444.5 756.07 1443.11 767.38 1426.97 784.07 1421.52 784.78 1421.29 786.4 1420.77 788.14 1421.66 788.66 1423.29 789.18 1424.91 788.28 1426.65 786.66 1427.18 786.51 1427.23 771.21 1432.28 761.13 1446.66 760.36 1447.75 758.99 1448.2 757.76 1447.85Z" fill="#E8C0A6"/><path d="M847.28 1485.04 686.11 1439.39C685.31 1444.47 685.32 1449.63 686.57 1454.63L833.52 1496.26C840.66 1498.28 847.76 1492.71 847.3 1485.31 847.29 1485.22 847.29 1485.13 847.28 1485.04Z" fill="#0F2E54"/></g><path d="M1092.04 1381.71C1089.4 1396.04 1087.65 1403.79 1087.65 1403.79 1036.62 1427.5 967.72 1410.31 967.72 1410.31 967.5 1406.55 967.3 1402.79 967.13 1399.02 966.88 1394.06 966.68 1389.1 966.51 1384.13 963.13 1286.61 971.53 1187.64 963.43 1095.08 952.65 971.94 927.1 867.09 924.09 857.82 923.88 857.14 923.78 856.97 923.81 857.33 923.81 857.33 908.58 1024.77 893.43 1102.36 873.82 1202.77 836.79 1314.62 820.16 1362.48 814.91 1377.57 811.7 1386.3 811.7 1386.3 746.09 1402.71 693.37 1367.93 693.37 1367.93 693.37 1367.93 695 1359.01 697.63 1343.9 708.66 1280.62 737.28 1108.82 737.47 1029.63 737.98 820.17 751.35 680.88 752.08 690.8 882.63 728.07 1059.74 686.57 1059.74 686.57 1087.65 805.17 1115.29 946.91 1117.24 1061.51 1119.8 1212.47 1100.89 1333.82 1092.04 1381.71Z" fill="#1D3F70"/><path d="M975.62 322.89C1027.99 378.81 1058.61 451.23 1082.16 522.85 1102.31 592.16 1127.39 645.73 1178 699.15 1196 718.15 1187.03 749.64 1169.38 737.85 1136.67 716.81 1108.43 689.65 1083.13 660.24 1013.95 582.56 988.16 471.26 904.53 405.69 904.49 405.76 904.86 406.05 904.91 406.12 850.69 359.63 921.01 276.91 975.62 322.89Z" fill="#F99370"/><path d="M1156.49 673.3C1156.49 673.3 1154.24 693.39 1126.35 705.21 1126.35 705.21 1120.97 701.4 1112.13 694.48 1105.57 689.32 1097.08 682.44 1087.5 674.12 1066.57 655.92 1040.35 630.82 1017.16 601.72 1016.69 601.16 1016.24 600.58 1015.79 600.02 1001.1 581.42 987.69 561.23 977.69 540.2 974.06 532.56 970.88 524.81 968.25 516.99 934.46 416.56 951.2 304.87 951.2 304.87 951.2 304.87 1011.35 318.87 1043.45 392.91 1073.36 461.86 1114.9 600.64 1149.06 661.23 1151.59 665.7 1154.07 669.74 1156.49 673.3Z" fill="#FCB4B4"/><path d="M927.4 88.6C927.4 88.6 942.4 80.76 950.97 94.12 959.54 107.48 949.33 116.18 960.1 128.01 970.88 139.84 977.67 142.11 974.25 153.07 970.83 164.04 962.32 165.05 965.71 178.99 965.71 178.99 925.08 138.22 920.15 113.37 915.22 88.53 927.4 88.6 927.4 88.6Z" fill="#8C4225"/><path d="M1087.5 674.12C1066.57 655.92 1040.35 630.82 1017.16 601.72L1006.08 382.61C1006.08 382.61 1052.54 448.17 1073.21 547.26 1086.94 613.13 1088.2 654.06 1087.5 674.12Z" fill="#F49F9F"/><path d="M924.38 295.45C924.91 291.51 925.23 287.25 925.4 282.8 926.42 257.08 922.42 225.19 920.33 213.26 919.76 210.03 919.34 208.27 919.19 208.49 919 207.73 918.79 206.99 918.54 206.27 915.77 197.62 909.91 192.38 903.12 190.05 903.1 190.05 903.1 190.05 903.1 190.05 893.05 186.62 880.95 189.52 873.56 197.13 873.41 197.28 873.27 197.45 873.13 197.61 868.46 202.65 865.83 209.63 867.08 218.14 867.14 218.53 867.19 218.93 867.27 219.31 867.36 219.85 867.47 220.38 867.59 220.9 868.83 220.08 872.29 253.61 872.32 277.94 872.32 285.96 871.95 292.99 871.01 297.45 821.05 312.42 971.29 361.64 924.38 295.45Z" fill="#F99370"/><path d="M867.07 218.13C867.13 218.52 867.18 218.92 867.26 219.3 867.35 219.84 867.46 220.37 867.58 220.89 868.82 220.07 872.28 253.6 872.31 277.93 895.2 288.33 920.72 283.75 925.39 282.8 926.41 257.08 922.41 225.19 920.32 213.26 919.7 210.46 919.25 208.83 919.18 208.49 918.99 207.73 918.78 206.99 918.53 206.27 915.98 198.64 910.19 192.84 903.11 190.05 903.09 190.05 903.09 190.05 903.09 190.05 898.17 188.12 892.65 187.64 887.13 188.97 881.67 190.3 877.02 193.22 873.55 197.13 873.4 197.28 873.26 197.45 873.12 197.61 868.45 203.14 866.07 210.54 867.07 218.13Z" fill="#E57D61"/><path d="M958.84 255.04C939.24 274.06 909.53 278.92 886 273.26 876.2 271.08 867.1 266.89 859.59 260.36L859.56 260.36C772.03 169.12 896.35 21.53 950.06 152.93 968.09 188.79 1000.11 211.81 958.84 255.04Z" fill="#F99370"/><path d="M944.47 223.53 913.59 206.83C913.59 206.83 911.33 223.82 923.58 228.74 935.29 233.43 944.47 223.53 944.47 223.53Z" fill="#F9F8F3"/><path d="M921.76 180.69C922.7 178.94 922.05 176.75 920.29 175.81 918.53 174.87 916.35 175.52 915.4 177.28 914.46 179.03 915.11 181.22 916.87 182.17 918.63 183.1 920.82 182.45 921.76 180.69Z" fill="#C16256"/><path d="M952.22 176.32C953.16 174.57 952.51 172.38 950.75 171.44 948.99 170.5 946.81 171.15 945.86 172.91 944.91 174.66 945.57 176.85 947.33 177.8 949.09 178.73 951.28 178.07 952.22 176.32Z" fill="#C16256"/><path d="M944.43 224.89C944.92 224.9 945.41 224.64 945.66 224.17 946.02 223.51 945.77 222.68 945.11 222.32L914.23 205.62C913.58 205.26 912.74 205.5 912.38 206.17 912.02 206.83 912.27 207.66 912.93 208.02L943.81 224.72C944.01 224.84 944.22 224.89 944.43 224.89Z" fill="#C16256"/><path d="M939.96 132.65C939.96 132.65 926.48 140.76 912.77 136.09 899.05 131.42 893.43 135.63 893.55 146.68 893.69 157.72 873.64 153.99 871.13 159.11 868.64 164.23 871.16 174.15 866.47 180.74 861.78 187.34 838.89 195.04 838.89 195.04L842.41 219.25C842.41 219.25 849.39 252.78 864.41 264.07 862.74 262.93 861.12 261.69 859.59 260.35L859.56 260.35C853.15 254.82 847.93 247.8 843.65 239.39 842.39 236.89 841.2 234.25 840.09 231.5 838.44 227.4 836.97 223.03 835.64 218.4 835.25 217.11 833.9 212.05 833.59 210.84 833.18 209.02 848.78 123.88 854.24 118.7 854.56 118.43 931.4 120.42 934.04 123.97 935.12 125.43 939.41 131.73 939.96 132.65Z" fill="#E57D61"/><path d="M940 207.4C944.81 207.51 950.1 205.55 951.41 202.67 951.84 201.73 952.44 199.31 948.78 197.21 942.05 193.36 937.38 179.12 937.33 178.98 937.1 178.27 936.35 177.86 935.61 178.1 934.9 178.33 934.5 179.1 934.73 179.82 934.93 180.44 939.78 195.2 947.42 199.58 948.29 200.08 949.25 200.82 948.93 201.54 948 203.58 941.46 205.72 936.91 204.15 936.18 203.91 935.41 204.28 935.17 204.99 934.92 205.7 935.3 206.48 936.01 206.73 937.22 207.16 938.59 207.37 940 207.4Z" fill="#C16256"/><path d="M752.08 690.8C752.08 690.8 740.64 700.15 749.37 717.02 760.81 739.12 913.66 767.26 946.07 762.12 955.92 760.56 963.31 741.3 963.96 733.16 963.96 733.16 979.81 757.61 995.29 756.48 1010.69 755.36 1057.92 728.6 1063.22 710.29 1068.52 691.98 1064.71 681.72 1064.71 681.72L752.08 690.8Z" fill="#FFD2D2"/><path d="M752.08 690.8C754.58 705.34 874.84 729.01 933.58 723.84 1027.12 715.6 1041.62 699.63 1059.74 686.57 1081.46 670.93 1074.07 618.67 1057.69 538.76 1043.86 471.23 1021.62 402.85 996.92 367.94 982.15 347.08 966.81 331.52 954.02 320.15 938.79 306.65 927.17 299.05 924.4 295.46L924.4 295.48C924.79 297.02 934.65 338.11 871 297.43L851.42 300.92C764.63 392.06 728.42 553.08 752.08 690.8Z" fill="#FCB4B4"/><path d="M935.27 123.31C935.27 123.31 947.23 109.28 935.18 98.47 923.14 87.66 924.28 71.9 907.25 74.13 890.23 76.35 883.86 78.25 865.56 72.85 847.26 67.44 831.21 84.77 831.64 96.44 832.07 108.12 807.33 107.53 803.27 123.21 799.21 138.9 802.78 143.72 802.62 150.55 802.46 157.39 780.66 165.81 784.49 182.21 788.31 198.61 802.06 196.44 804.44 206.95 806.82 217.46 798.34 235.2 810.28 241.37 827.98 250.52 843.66 239.39 843.66 239.39 843.66 239.39 822.27 195.98 843.48 187.53 853.8 183.42 863.99 177.79 860.73 162.45 857.47 147.11 879.92 152.38 885.41 144.62 890.9 136.86 887.3 127.3 897.16 125.43 907.01 123.58 913.19 135.52 935.27 123.31Z" fill="#8C4225"/><path d="M884.81 394.3C869.84 437.98 846.08 509.97 869.74 552.06 925.82 601.85 991.98 548.96 1035.38 515.97 1060.06 497.21 1085.31 503.45 1069.34 530.46 1057.12 547.61 1057.34 553.38 1040.4 571.7 976.23 641.09 864.18 669.35 798.49 585.25 758.02 519.82 768.09 438.41 778.94 366.53 797 295.11 903.89 323.06 884.81 394.3Z" fill="#F99370"/><path d="M1048.53 565.27C1044.25 571.11 1039.5 576.85 1034.32 582.41L1034.31 582.41C986.31 634.03 902.24 670.35 830.74 626.1 751.51 577.09 734.17 470.81 751.9 400.47 774.48 310.91 851.42 300.92 851.42 300.92 851.42 300.92 903.5 342.2 904.4 373.62 905.3 405.05 876.16 449.52 888.82 516.98 898.53 568.67 971.7 544.22 1005.41 529.95 1005.41 529.94 1005.41 529.94 1005.41 529.94 1015.71 525.58 1022.33 522.17 1022.33 522.17 1025.72 555.98 1048.53 565.27 1048.53 565.27Z" fill="#FCB4B4"/><path d="M851.42 300.93C851.84 304.96 853.45 308.76 855.92 312.32 859.38 317.36 864.57 321.91 870.46 325.93 889.82 339.15 916.92 346.65 916.92 346.65L924.39 324.57C933.98 326.93 942.42 340.34 942.42 340.34 950.26 333.14 953.25 326.06 954.02 320.16 955.2 311.17 951.2 304.86 951.2 304.86 938.66 292.28 924.38 295.44 924.38 295.44 924.38 295.44 924.38 295.46 924.4 295.47L924.4 295.49C924.79 297.03 934.65 338.12 871 297.44 863.55 294 851.42 300.93 851.42 300.93Z" fill="#FFD2D2"/><path d="M1048.53 565.27C1044.25 571.11 1039.5 576.85 1034.32 582.41L1034.31 582.41C1000.37 567.32 1005.3 530.78 1005.42 529.96 1005.42 529.95 1005.42 529.95 1005.42 529.95 1015.72 525.59 1022.34 522.18 1022.34 522.18 1025.72 555.98 1048.53 565.27 1048.53 565.27Z" fill="#F49F9F"/><path d="M1156.49 673.3C1156.49 673.3 1154.24 693.39 1126.35 705.21 1126.35 705.21 1120.97 701.4 1112.13 694.48 1112.13 694.48 1136.85 686.71 1149.06 661.23 1151.59 665.7 1154.07 669.74 1156.49 673.3Z" fill="#F49F9F"/><ellipse cx="840.68" cy="198.47" rx="17.82" ry="22.15" fill="#F99370" transform="matrix(0.9648 -0.2628 0.2628 0.9648 -22.6072 227.908)"/><path d="M833.32 208.39C832.63 208.55 831.92 208.17 831.67 207.49 828.17 198 828.14 191.38 831.59 187.79 836.27 182.93 845.29 185.8 845.67 185.93 846.42 186.17 846.83 186.98 846.58 187.73 846.34 188.48 845.53 188.89 844.78 188.65 844.7 188.63 837.07 186.21 833.64 189.78 831.05 192.47 831.3 198.26 834.34 206.5 834.61 207.24 834.24 208.06 833.5 208.33 833.44 208.36 833.38 208.38 833.32 208.39Z" fill="#C16256"/><path d="M846.52 205.63C845.89 205.77 845.23 205.47 844.93 204.87 844.88 204.77 839.76 194.7 830.59 194.62 829.8 194.61 829.17 193.97 829.17 193.18 829.18 192.39 829.82 191.76 830.61 191.76 841.55 191.85 847.25 203.12 847.49 203.6 847.84 204.31 847.55 205.16 846.85 205.51 846.74 205.57 846.63 205.61 846.52 205.63Z" fill="#C16256"/><path d="M905.44 172.78C904.88 172.91 904.28 172.73 903.87 172.27 903.28 171.6 903.34 170.59 904.01 170 904.41 169.64 914.02 161.3 926.2 163.44 927.08 163.59 927.66 164.43 927.51 165.31 927.36 166.19 926.52 166.77 925.64 166.62 915.02 164.76 906.23 172.35 906.14 172.42 905.94 172.6 905.69 172.72 905.44 172.78Z" fill="#C16256"/><path d="M954.99 166.74C954.43 166.87 953.82 166.69 953.41 166.22 949.41 161.59 941.51 163.98 941.42 164.01 940.58 164.26 939.67 163.8 939.4 162.95 939.13 162.1 939.6 161.2 940.45 160.93 940.86 160.8 950.45 157.86 955.84 164.1 956.42 164.77 956.35 165.79 955.67 166.37 955.48 166.57 955.24 166.68 954.99 166.74Z" fill="#C16256"/><path d="M918.52 533.94C918.52 533.94 910.3 534.51 905.57 539.2 905.57 539.2 911.02 547.07 918.52 547.1 926.02 547.13 918.52 533.94 918.52 533.94Z" fill="#F99370"/><path d="M930.46 550.02C922.13 550.02 914.44 549.08 908.15 546.76 875.11 534.56 884.71 456.79 885.14 453.48 885.33 451.97 886.72 450.89 888.23 451.1 889.74 451.29 890.81 452.68 890.61 454.19 890.51 454.95 881.12 530.9 910.07 541.59 940.14 552.7 1008.9 528.62 1009.59 528.38 1011.02 527.86 1012.6 528.62 1013.11 530.06 1013.62 531.5 1012.87 533.07 1011.43 533.58 1009.1 534.4 964.47 550.02 930.46 550.02Z" fill="#F49F9F"/><path d="M959.49 546.29C959.41 545.63 959.37 545.48 959.31 545.14 959.25 544.85 959.19 544.58 959.12 544.31 958.98 543.78 958.82 543.27 958.63 542.77 958.26 541.77 957.77 540.79 957.16 539.88 956.56 538.97 955.83 538.12 955 537.43 954.18 536.71 953.28 536.19 952.38 535.77 949.7 534.53 946.65 536.11 945.55 539.31 944.78 541.56 945.19 544.01 946.44 545.7L948.34 548.26C948.38 548.31 948.29 548.21 948.3 548.23 948.3 548.23 948.33 548.27 948.36 548.34L948.39 548.45C948.39 548.47 948.4 548.47 948.4 548.47L948.36 548.19C948.75 551.82 951.56 554.35 954.63 553.82 957.7 553.29 959.88 549.92 959.49 546.29Z" fill="#F99370"/><path d="M948.61 544.4C948.45 543.88 948.38 543.73 948.28 543.44L947.98 542.71C947.78 542.24 947.56 541.79 947.32 541.34 946.84 540.45 946.28 539.58 945.6 538.74 944.93 537.9 944.09 537.11 943.14 536.43 942.19 535.75 941.07 535.25 939.92 534.94 936.9 534.19 933.9 536.5 933.21 540.09 932.53 543.68 934.42 547.21 937.44 547.95 937.3 547.94 937.27 547.82 937.47 548.06 937.56 548.18 937.68 548.35 937.8 548.57 937.86 548.68 937.92 548.8 937.97 548.92L938.04 549.08C938.05 549.09 938.1 549.25 938.03 549.03 939.06 552.47 942.27 554.22 945.19 552.94 948.11 551.67 949.65 547.84 948.61 544.4Z" fill="#F99370"/><path d="M937.28 542.07 933.83 536.85C931.94 533.98 928.41 533.52 925.96 535.81 923.51 538.1 923.06 542.29 924.95 545.15L928.4 550.37C930.29 553.24 933.82 553.7 936.27 551.41 938.72 549.12 939.17 544.93 937.28 542.07Z" fill="#F99370"/><path d="M927.12 541.58 923.67 536.36C921.78 533.49 918.25 533.03 915.8 535.32 913.35 537.61 912.9 541.8 914.79 544.66L918.24 549.88C920.13 552.75 923.66 553.21 926.11 550.91 928.56 548.63 929.01 544.45 927.12 541.58Z" fill="#F99370"/><path d="M1057.82 470.83C1064.17 472.88 1053.49 488.44 1053.88 494.64 1064.71 490.03 1074.3 482.26 1074.38 482.28 1083.85 471.19 1092.71 459.62 1101.04 447.63 1103.62 443.73 1109.93 447.48 1107.63 451.63 1101.01 464.24 1093.81 476.59 1086.01 488.53 1086.1 488.62 1086.08 488.59 1086.17 488.68 1097.66 479.88 1108.71 470.47 1118.96 460.25 1120.23 458.98 1121.89 458.14 1123.68 458.01 1139.14 456.89 1096.3 495.57 1092.9 499.04 1092.94 499.09 1092.93 499.08 1092.97 499.12 1105.09 492.72 1116.48 484.91 1126.95 476.06 1128.49 474.75 1130.48 474.01 1132.49 474.21 1146.4 475.6 1101.15 510.09 1096.55 512.4 1096.56 512.46 1096.57 512.51 1096.58 512.57 1106.75 508.96 1116.49 504.13 1125.91 498.83 1127.44 497.97 1129.22 497.6 1130.95 497.91 1145.11 500.5 1102.1 524.6 1097.62 526.45 1093.07 529.8 1077.85 548.26 1051.25 554.83 1042.96 556.88 1026.06 542.51 1029.02 528.01 1030.28 521.85 1039.68 502.09 1041.58 498.71 1043.66 492.37 1049.88 469.19 1057.82 470.83Z" fill="#F99370"/><path d="M820.16 1362.48C814.91 1377.57 811.7 1386.3 811.7 1386.3 746.09 1402.71 693.37 1367.93 693.37 1367.93 693.37 1367.93 695 1359.01 697.63 1343.9 719.73 1353.5 763.98 1368.06 820.16 1362.48Z" fill="#0F2E54"/><path d="M1092.04 1381.71C1089.4 1396.04 1087.65 1403.79 1087.65 1403.79 1036.62 1427.5 967.72 1410.31 967.72 1410.31 967.21 1401.6 966.81 1392.87 966.51 1384.13 966.52 1384.14 966.52 1384.15 966.52 1384.15 966.52 1384.15 1021.47 1397.33 1092.04 1381.71Z" fill="#0F2E54"/><path d="M985.52 1399.02 967.13 1399.02C966.88 1394.06 966.68 1389.1 966.51 1384.13 963.13 1286.61 971.53 1187.64 963.43 1095.08 952.65 971.94 927.1 867.09 924.09 857.82 927.6 864.06 963.52 929.75 976.02 1027.81 989.17 1130.96 985.52 1399.02 985.52 1399.02Z" fill="#0F2E54"/></g><path d="M916.66 648.48C915.45 648.48 914.38 647.6 914.19 646.36 913.98 645 914.91 643.72 916.28 643.51 917.06 643.39 995.15 630.75 1033.34 576.25 1034.13 575.12 1035.69 574.84 1036.82 575.64 1037.95 576.43 1038.23 577.99 1037.43 579.12 1016.79 608.57 985.15 625.85 962.24 635.17 937.48 645.23 917.87 648.33 917.05 648.45 916.91 648.47 916.78 648.48 916.66 648.48Z" fill="#F49F9F"/></g><g id="_x31__1_"><ellipse cx="572.78" cy="379.54" rx="49.07" ry="39.62" fill="#F8FCFF" transform="matrix(0.5468 -0.8373 0.8373 0.5468 -58.187 651.574)"/><path d="M913.35 645.38C911.23 655.89 903.02 757.64 793.38 755 789.04 754.89 784.53 754.63 779.86 754.18 738.37 750.23 719.97 721.6 710.41 685.73 700.07 646.93 700.08 599.67 692.43 566 681.14 516.21 670.68 476.99 667.64 465.79 667.08 463.69 666.76 462.57 666.76 462.57 666.76 462.57 674.06 464.44 685.64 468.96 719.21 482.05 746.09 510.02 785.81 584.63 821.95 652.55 913.35 645.38 913.35 645.38Z" fill="#9358E0"/><path d="M793.38 755C789.04 754.89 784.53 754.63 779.86 754.18 738.37 750.23 719.97 721.6 710.41 685.73L756.56 579.86C756.56 579.86 782.42 616.97 786.45 667.43 789.84 709.95 788.7 720.38 793.38 755Z" fill="#7640CC"/><path d="M724.91 1539.45C724.81 1543.4 724.93 1546.27 725.5 1549.84L886.06 1549.84C895.35 1549.84 901 1539.31 895.6 1531.76 889.07 1522.63 877.15 1517.2 865.69 1514.96 846.05 1508.01 799.06 1510.96 793.64 1480.24 792.38 1462.64 806.8 1371.69 808.25 1352.42L715.97 1352.42C720.25 1406.5 735.17 1486.2 724.91 1539.45Z" fill="#F99370"/><path d="M724.96 1544.79C725.09 1546.52 725.19 1548.21 725.49 1549.84L887.52 1549.84C895.44 1549.85 900.88 1541.52 897.35 1534.42L897.33 1534.42C871.02 1492.53 775.98 1549.99 728.36 1488.16 729.63 1507.03 724.69 1526.18 724.96 1544.79Z" fill="#103663"/><g><path d="M470.41 1501.43C469.15 1505.17 468.41 1507.95 467.9 1511.53L621.32 1558.91C630.2 1561.65 638.7 1553.26 635.77 1544.45 632.23 1533.8 622.43 1525.09 612.15 1519.57 595.43 1507.13 549.66 1496.09 553.55 1465.14 557.54 1447.95 598.15 1365.3 605.23 1347.32L517.06 1320.09C505.19 1373.04 495.93 1453.59 470.41 1501.43Z" fill="#F99370"/><path d="M468.88 1506.55C468.49 1508.25 468.09 1509.89 467.9 1511.53L622.71 1559.34C630.28 1561.68 637.94 1555.33 636.66 1547.51L636.64 1547.5C623.86 1499.71 516.1 1526.57 488.84 1453.44 484.49 1471.85 474.11 1488.69 468.88 1506.55Z" fill="#103663"/></g><path d="M448.31 1414.03C448.31 1414.03 570.89 1464.24 854.2 1414.03 854.2 1414.03 854.26 1403.97 854.05 1385.91 853.23 1318.45 848.47 1189.47 821.63 1008.15 815.32 965.51 809.76 930.55 804.87 901.37 783.45 773.23 775.44 756.16 777.27 687.6 779.23 613.4 740.89 522.29 688.4 479.63 681.69 474.18 674.75 469.51 667.64 465.8 667.24 465.56 666.82 465.36 666.4 465.14 666.4 465.14 660.67 474.91 611.21 454.37 611.21 454.37 604.88 459.71 595.31 469.92 571.11 495.69 526.2 552.48 510.23 632.54 495.5 706.32 479.55 784.32 469.38 865.63 464.11 907.5 460.38 950.25 459.15 993.77 455.8 1112 450.79 1385.89 450.79 1385.89 450.07 1395.86 449.24 1405.28 448.31 1414.03Z" fill="#9358E0"/><path d="M573.45 487.51C404.38 600.71 356.9 820.41 589.46 888.25 605.93 891.78 635.17 906.49 641.43 882.16 643.79 869.72 633.73 863.1 623.41 860 608.01 853.52 592.8 845.93 578.52 837.4 429.66 750.59 511.04 638.01 622.48 566.82 674.21 534.52 625.44 455.69 573.45 487.51Z" fill="#F99370"/><path d="M854 1414.15C570.7 1464.37 448 1414.15 448 1414.15L451 1384.15C451 1384.15 565.29 1441.01 854 1386.15 854.21 1404.2 854 1414.15 854 1414.15Z" fill="#7640CC"/><path d="M624.46 860.42C624.46 860.42 698.99 863.92 714.89 918.78 714.89 918.78 639.22 906.02 615.75 895.02 615.75 895.02 642.62 881.46 624.46 860.42Z" fill="#F99370"/><path d="M659.75 1548.55C665.01 1548.55 669.57 1544.63 670.23 1539.27L745.49 982.04C749.49 950.13 726.77 920.91 694.85 916.91L670.74 913.89C637.09 909.67 606.22 933.64 602.01 967.32 601.28 973.12 605.39 978.4 611.19 979.13 616.99 979.88 622.27 975.75 623 969.95 625.77 947.84 646.01 932.1 668.12 934.87L692.23 937.89C712.58 940.44 727.07 959.07 724.52 979.42L649.26 1536.66C648.54 1542.46 652.66 1547.74 658.45 1548.45 658.88 1548.52 659.32 1548.55 659.75 1548.55Z" fill="#1D3F70"/><path d="M710.46 950.82C713.41 950.82 716.03 948.69 716.54 945.68 719.11 930.68 716.63 918.21 709.15 908.62 697.14 893.21 676.72 891.47 675.86 891.4 672.47 891.14 669.49 893.68 669.22 897.09 668.96 900.49 671.49 903.45 674.89 903.72 675.12 903.74 690.88 905.21 699.45 916.28 704.66 923.01 706.31 932.19 704.35 943.58 703.77 946.94 706.03 950.14 709.39 950.71 709.76 950.79 710.11 950.82 710.46 950.82Z" fill="#F99370"/><path d="M692.9 952.91C695.68 952.91 698.2 951.02 698.9 948.21 703.11 931.1 701.34 917.44 693.64 907.62 682.57 893.5 663.56 893.33 662.68 893.33 662.68 893.33 662.68 893.33 662.67 893.33 659.26 893.33 656.49 896.1 656.5 899.51 656.5 902.91 659.26 905.67 662.66 905.68 662.88 905.68 676.67 905.92 683.96 915.31 689.15 921.99 690.14 932.06 686.89 945.25 686.07 948.56 688.1 951.91 691.41 952.73 691.92 952.85 692.41 952.91 692.9 952.91Z" fill="#F99370"/><path d="M676.68 948.43C679.32 948.43 681.76 946.73 682.58 944.07 687.3 928.8 686.37 916.03 679.84 906.11 669.96 891.12 650.99 888.95 650.18 888.86 646.76 888.5 643.74 890.96 643.38 894.35 643.02 897.74 645.47 900.77 648.85 901.14 649.13 901.17 662.98 902.91 669.56 912.97 673.92 919.65 674.33 928.88 670.77 940.41 669.76 943.67 671.59 947.13 674.85 948.14 675.46 948.34 676.07 948.43 676.68 948.43Z" fill="#F99370"/><path d="M660.9 942.32C663.46 942.32 665.86 940.72 666.74 938.16 671.32 924.93 671.12 913.53 666.13 904.27 659.38 891.73 646.31 888.26 645.75 888.12 642.44 887.27 639.08 889.27 638.23 892.58 637.39 895.87 639.36 899.23 642.65 900.09 642.89 900.16 651.24 902.56 655.31 910.25 658.52 916.32 658.43 924.35 655.05 934.12 653.93 937.34 655.64 940.86 658.87 941.98 659.55 942.22 660.23 942.32 660.9 942.32Z" fill="#F99370"/><path d="M469.38 865.62C504.5 884.08 549.41 895.09 602.22 898.04 606.74 898.3 611.29 898.48 615.92 898.63 615.92 898.63 612.9 863.31 629.26 857.42 629.26 857.42 622.77 855.15 612.92 850.21 589.67 838.63 547.78 812.36 528.66 766.76 503.73 707.27 597.22 610.15 645.64 567 650.07 563.07 654.13 559.57 657.68 556.59 700.05 521.12 611.2 454.37 611.2 454.37 605.47 454.96 599.22 456.63 592.29 458.28 522.42 474.93 428.45 537.13 393.76 636.79 357.77 740.2 393.08 825.56 469.38 865.62Z" fill="#9358E0"/><path d="M614.41 855.36C615.17 855.36 615.91 854.95 616.29 854.23 616.83 853.19 616.43 851.92 615.4 851.37 530.84 807.05 521.5 760 528.55 728.33 536.23 693.83 598.12 621.18 598.75 620.45 599.51 619.56 599.4 618.23 598.52 617.47 597.63 616.71 596.3 616.82 595.54 617.7 592.96 620.71 532.34 691.89 524.43 727.41 519.57 749.24 523.65 770.71 536.55 791.24 551.21 814.56 577.08 836.05 613.44 855.11 613.74 855.29 614.08 855.36 614.41 855.36Z" fill="#7640CC"/><path d="M605.59 898.2C606.75 898.2 607.7 897.26 607.71 896.09 607.71 894.92 606.77 893.97 605.6 893.97 517.87 893.72 470.98 864.16 470.51 863.86 469.53 863.23 468.22 863.51 467.59 864.49 466.96 865.47 467.24 866.78 468.22 867.41 468.69 867.72 516.63 897.95 605.59 898.2 605.59 898.2 605.59 898.2 605.59 898.2Z" fill="#7640CC"/><path d="M615.94 898.62C611.31 898.48 606.74 898.29 602.23 898.04 598.25 875.29 606.32 859.14 612.93 850.21 622.77 855.14 629.28 857.41 629.28 857.41 612.91 863.3 615.94 898.62 615.94 898.62Z" fill="#7640CC"/><path d="M616.69 414.45C616.71 414.85 618.36 411.37 615.45 436.06 637.39 449.38 663.88 448.76 668.73 448.36 672.88 422.38 669.49 431.17 671.03 423.92 670.74 421.01 616.59 406.63 616.69 414.45Z" fill="#E57D61"/><path d="M710.3 420.34C688.53 437.8 657.9 439.85 634.52 431.84 624.77 428.67 615.93 423.52 608.93 416.16L608.9 416.16C580.83 383.43 578.24 323.91 601.3 289.02 621.3 254.06 678.42 245.69 699.09 284.05 705.84 294.35 709.61 309.93 713.76 324.07 733.29 358.7 751.39 382.84 710.3 420.34Z" fill="#F99370"/><path d="M598.16 370.27C598.16 370.27 597.05 393.98 613.92 420.79 612.16 419.35 610.5 417.8 608.94 416.16L608.91 416.16C602.92 409.9 598.31 402.27 594.76 393.29 593.73 390.62 592.77 387.82 591.91 384.92 590.63 380.58 589.56 376 588.65 371.16 588.38 369.81 588.13 368.43 587.91 367.03 587.69 365.8 587.51 364.54 587.31 363.28 587.07 361.39 586.82 359.47 586.59 357.48 586.58 357.24 586.55 357.01 586.51 356.76 586.31 354.86 586.14 352.97 586.02 351.11 585.88 349.07 585.82 347.06 585.79 345.03 585.57 323.78 591.35 304.17 601.31 289.03 605.81 282.2 611.16 276.29 617.21 271.54 617.56 271.29 617.88 271.04 618.21 270.79 626.63 264.43 636.37 260.36 646.98 259.17 651.55 258.67 655.86 258.56 659.94 258.89 665.95 259.34 671.41 260.7 676.38 262.9 676.59 262.99 676.8 263.09 677 263.18 679.15 264.18 681.22 265.35 683.2 266.7 686.14 268.69 688.87 271.03 691.4 273.75 691.4 273.75 699.72 326.36 603.74 353.85L598.16 370.27Z" fill="#E57D61"/><path d="M679.82 341.12C680.95 339.43 680.49 337.14 678.8 336.01 677.11 334.88 674.82 335.34 673.69 337.03 672.56 338.72 673.02 341.01 674.71 342.14 676.4 343.27 678.69 342.81 679.82 341.12Z" fill="#C16256"/><path d="M711.2 339.62C712.33 337.93 711.87 335.64 710.18 334.51 708.49 333.38 706.2 333.84 705.07 335.53 703.94 337.22 704.4 339.51 706.09 340.64 707.78 341.77 710.07 341.31 711.2 339.62Z" fill="#C16256"/><path d="M697.91 370.18C702.17 370.18 706.44 368.74 707.82 366.35 708.35 365.43 709.2 363.03 705.67 360.54 699.21 355.97 695.83 341.04 695.8 340.89 695.63 340.14 694.89 339.66 694.14 339.83 693.39 340 692.91 340.74 693.08 341.49 693.22 342.15 696.72 357.63 704.07 362.82 704.9 363.41 705.81 364.26 705.41 364.96 704.26 366.95 697.4 368.5 692.95 366.46 692.25 366.14 691.42 366.45 691.1 367.15 690.78 367.85 691.09 368.68 691.79 369 693.56 369.81 695.73 370.18 697.91 370.18Z" fill="#C16256"/><path d="M568.97 355.41C570.04 367.31 578.67 376.25 588.24 375.39 597.81 374.53 604.7 364.19 603.64 352.29 602.57 340.39 593.94 331.45 584.37 332.31 574.8 333.17 567.91 343.52 568.97 355.41Z" fill="#F99370"/><path d="M577.18 362.14C577.26 362.14 577.34 362.13 577.43 362.12 578.19 361.98 578.69 361.26 578.56 360.5 577.04 352.05 577.8 346.45 580.75 344.31 584.66 341.46 591.58 345.09 591.65 345.13 592.33 345.49 593.17 345.24 593.54 344.56 593.9 343.88 593.65 343.04 592.97 342.67 592.62 342.49 584.45 338.18 579.11 342.05 575.18 344.91 574.07 351.28 575.81 361 575.93 361.67 576.52 362.14 577.18 362.14Z" fill="#C16256"/><path d="M590.34 361.75C590.47 361.75 590.6 361.73 590.73 361.69 591.47 361.47 591.89 360.7 591.68 359.96 591.53 359.46 587.98 347.66 577.48 345.69 576.73 345.55 576 346.05 575.85 346.8 575.71 347.56 576.21 348.29 576.96 348.43 585.76 350.07 588.96 360.63 588.99 360.74 589.18 361.35 589.74 361.75 590.34 361.75Z" fill="#C16256"/><ellipse cx="585.71" cy="370.26" rx="3.13" ry="3.13" fill="#F4D4BE" transform="matrix(0.9092 -0.4164 0.4164 0.9092 -100.987 277.543)"/><path d="M667.83 333.25C668.3 333.25 668.76 333.01 669.03 332.57 674.56 323.4 682.9 323.23 683.25 323.23 684.02 323.22 684.64 322.6 684.64 321.83 684.64 321.06 684.02 320.44 683.25 320.44 682.84 320.44 673.02 320.56 666.64 331.13 666.24 331.79 666.46 332.65 667.12 333.04 667.34 333.18 667.59 333.25 667.83 333.25Z" fill="#C16256"/><path d="M710.08 327.35C710.5 327.35 710.92 327.16 711.19 326.8 711.66 326.19 711.54 325.31 710.93 324.85 710.63 324.62 703.36 319.16 694.17 320.46 693.41 320.57 692.88 321.27 692.99 322.04 693.1 322.8 693.79 323.33 694.57 323.23 702.55 322.1 709.18 327.03 709.25 327.07 709.49 327.26 709.79 327.35 710.08 327.35Z" fill="#C16256"/><path d="M693.38 383.74C693.35 383.74 693.32 383.74 693.28 383.74 678.23 382.79 674.13 369.14 674.09 369 673.86 368.2 674.32 367.37 675.12 367.14 675.92 366.91 676.74 367.37 676.98 368.16L676.98 368.16C677.12 368.64 680.58 379.93 693.48 380.74 694.31 380.79 694.93 381.5 694.88 382.33 694.83 383.13 694.17 383.74 693.38 383.74Z" fill="#C16256"/><path d="M576.97 348.44 537.57 500.5 603.75 522.18 640.44 510.02" fill="#F8FCFF"/><g><path d="M716.69 299.02C716.69 299.02 712.9 270.62 689.76 256.9 666.63 243.18 636.39 230.65 607.29 235.77 578.19 240.89 551.8 280.22 534.09 317.39 517.82 351.56 556.54 395.66 552.78 424.74 549.02 453.82 493.32 470.71 480.27 505.44 467.21 540.17 513.31 560.36 540.85 544.06 568.39 527.76 590.86 540.36 615.91 547.79 640.96 555.22 703.41 563.62 735.52 554.93 767.63 546.23 768.95 529.41 747.56 505.85 726.17 482.29 713.21 477.71 704.74 477.51 696.26 477.31 689.82 469.58 690.43 465.82 691.04 462.06 700.65 464.75 709.84 454.85 719.03 444.96 719.14 419.72 719.14 419.72 719.14 419.72 699.81 445.36 679.76 443.48 659.71 441.6 626.76 420.35 617.55 409.11 608.34 397.87 611.11 376.88 610.74 359.1 610.37 341.32 616.91 322.07 621.59 303.14 626.27 284.21 654.05 272.22 674.14 275.51 694.24 278.84 716.69 299.02 716.69 299.02Z" fill="#1D1E1E"/><path d="M735.52 554.95C703.41 563.65 640.96 555.25 615.91 547.81 590.86 540.37 568.39 527.78 540.85 544.08 513.31 560.38 467.22 540.19 480.27 505.46 493.33 470.73 549.03 453.84 552.78 424.76 556.54 395.68 517.81 351.57 534.09 317.41 534.09 317.41 547.92 361.5 558.57 373.29 569.23 385.08 581.54 414.04 579.71 430.32 577.88 446.59 504.92 509.26 575.29 503.78 600.82 501.79 660.1 515.85 666.31 516.38 666.31 516.38 758.96 526.25 735.52 554.95Z" fill="#0A0A0A"/><path d="M716.69 299.02C716.69 299.02 712.9 270.62 689.76 256.9 666.63 243.18 636.39 230.65 607.29 235.77 578.19 240.89 549.13 282.7 534.09 317.39 519.01 352.18 556.54 395.66 552.78 424.74 549.02 453.82 493.32 470.71 480.27 505.44 467.21 540.17 513.31 560.36 540.85 544.06 568.39 527.76 590.86 540.36 615.91 547.79 640.96 555.22 703.41 563.62 735.52 554.93 767.63 546.23 768.95 529.41 747.56 505.85 726.17 482.29 713.21 477.71 704.74 477.51 696.26 477.31 689.82 469.58 690.43 465.82 691.04 462.06 700.65 464.75 709.84 454.85 719.03 444.96 719.14 419.72 719.14 419.72 719.14 419.72 699.81 445.36 679.76 443.48 659.71 441.6 626.76 420.35 617.55 409.11 608.34 397.87 611.11 376.88 610.74 359.1 610.37 341.32 616.91 322.07 621.59 303.14 626.27 284.21 654.05 272.22 674.14 275.51 694.24 278.84 716.69 299.02 716.69 299.02Z" stroke="#120400" stroke-width="0.5" stroke-miterlimit="10" fill="none"/></g></g></g></svg>