<svg width="49.91" height="81.47" viewBox="0 0 49.91 81.47" xmlns="http://www.w3.org/2000/svg" xmlns:xlink="http://www.w3.org/1999/xlink" xml:space="preserve" overflow="hidden"><defs></defs><g><g><ellipse cx="34.8" cy="66.55" rx="6.98" ry="4.03" fill="#A79891"/><ellipse cx="7.93" cy="77.44" rx="6.98" ry="4.03" fill="#A79891"/><g><path d="M28.08 13.06C28.08 13.06 29.45 14.13 30.01 17.08 30.57 20.03 31.82 29.3 28.49 30.7 25.15 32.1 18.58 27.92 18.58 27.92L28.08 13.06Z" fill="#291616"/><path d="M28.55 15.06C28.94 14.82 29.06 14.32 28.8 13.94 28.48 13.46 27.89 12.76 26.89 11.98 25.01 10.52 22.21 9.35 20.89 10.36 19.57 11.37 20.7 14.01 23.61 15.45 25.66 16.48 27.59 15.64 28.55 15.06Z" fill="#4B2828"/></g><g><path d="M14.53 54.01C14.53 54.01 14.94 56.83 14.53 59.42 14.12 62.01 10.84 75.02 10.84 75.02 10.84 75.02 10.74 76.15 9.56 76.4 8.39 76.65 7.87 76.23 8.05 74.52 8.23 72.8 9.75 59.22 9.75 59.22 9.75 59.22 9.39 55.91 9.91 54.19 10.45 52.49 14.38 52.28 14.53 54.01Z" fill="#DC303D"/><path d="M10.94 74.66C10.94 74.66 9.49 76.09 8.06 74.53 8.06 74.53 2.73 77.83 3.15 78.96 3.59 80.14 6.01 79.61 7.61 79.19 9.21 78.77 9.31 78.64 10.62 78.4 11.86 78.17 11.9 77.18 11.61 76.41 11.32 75.65 10.94 74.66 10.94 74.66Z" fill="#FFFFFF"/><path d="M7.25 74.35 8.2 57.27C8.2 57.27 11.22 42.34 11.62 40.96 12.34 38.42 13 36.12 13.44 35.08L20.17 42.02C20.17 42.02 15.25 54.61 14.7 57.62 14.2 60.4 12.12 73.2 11.8 75.14 11.77 75.32 11.66 75.46 11.49 75.54 11.14 75.71 10.43 75.93 9.44 75.74 7.21 75.3 7.25 74.35 7.25 74.35Z" fill="#291616"/></g><g><path d="M15.54 20.27C15.54 20.27 14.28 23.67 13.49 25.57 12.66 27.55 12.13 29.09 11.28 29.74 10.43 30.39 4.79 35.57 4.79 35.57 4.79 35.57 4.79 36.32 4.15 37.11 3.51 37.91 3.11 38.42 2.57 38.51 2.03 38.61 1.61 39.25 1.49 39.59 1.37 39.93 0.84 39.96 0.81 39.5 0.81 39.5 0.35 39.5 0.51 38.95 0.51 38.95 0.05 38.81 0.21 38.24 0.21 38.24-0.23 37.87 0.17 37.26 0.58 36.66 1.49 35.55 1.49 35.55 1.49 35.55 1.1 35.42 1.34 34.92 1.58 34.41 2.3 34.12 2.81 34.14 3.32 34.16 3.68 34.22 4.19 33.67 4.71 33.13 10.01 27.17 10.01 27.17 10.01 27.17 12.34 20 12.98 18.44 13.63 16.88 16.66 17.79 15.54 20.27Z" fill="#F59473"/><path d="M17.14 17 15.95 20.88C15.87 21.13 15.59 21.26 15.35 21.15 14.79 20.88 13.84 20.41 13.31 20.04 12.9 19.75 12.61 19.48 12.42 19.3 12.26 19.14 12.21 18.9 12.3 18.68 12.74 17.54 14.2 13.83 14.92 12.88 15.78 11.75 17.05 11.08 18.05 11 19.05 10.92 17.42 15.45 17.14 17Z" fill="#DDDDDD"/></g><g><path d="M31.64 67.58C31.37 68.51 32.46 68.92 33.57 68.66 34.69 68.4 36.01 66.98 36.51 66.41 37.01 65.83 37.38 65.56 37.92 64.55 38.45 63.54 38.36 63.46 37.98 62.55 37.68 61.83 36.6 60.8 36.58 60.77 35.62 58.87 33.61 54.85 33.12 53.46 32.46 51.61 31.62 51.15 31.62 51.15L31.21 49.69C29.97 47.31 26.97 51.13 27.11 52.55 27.25 53.96 29.62 56.26 32.11 59 33.84 60.9 34.52 62.02 34.79 62.54 34.78 62.55 34.05 64.09 33.58 64.72 33.11 65.34 31.92 66.65 31.64 67.58Z" fill="#FFFFFF"/><path d="M21.82 34.9C24.21 35.5 26.53 35.6 27.79 37.27 27.79 37.27 29.87 44.45 32.53 50.74 34.37 55.1 36.85 58.98 37.25 60.02 37.3 60.15 37.3 60.27 37.27 60.4 37.17 60.82 36.8 61.86 35.55 62.49 34.51 63.02 33.9 62.96 33.59 62.86 33.46 62.81 33.35 62.73 33.27 62.61 32.31 61.12 23.25 47.01 22.57 45.77 21.85 44.47 14.86 38.74 14.86 38.74L13.43 35.46C13.87 34.44 19.43 34.3 21.82 34.9Z" fill="#4B2828"/></g><path d="M27.49 20.28C27.49 20.28 26.93 26.19 26.35 28.26 25.77 30.33 28.81 37.02 28.27 38.42 27.73 39.82 24.38 41.82 20.12 40.69 15.87 39.55 13.33 38.65 13.04 35.85 13.04 35.85 14.18 32 14.44 29.59 14.7 27.17 14.52 16.25 14.54 14.73 14.56 13.22 15.96 11.28 18.05 11 20.15 10.71 23.66 13.58 23.66 13.58 23.66 13.58 27.95 15.74 27.49 20.28Z" fill="#FFFFFF"/><path d="M20.43 12.2C20.43 12.2 19.64 11.6 19.03 11.47 18.42 11.34 16.35 12.17 15.91 14.76 15.47 17.35 15.11 21.76 14.59 24.01L14.59 25.42C14.59 25.42 15.57 24.16 15.98 22.63 16.39 21.11 16.63 17.04 17.04 15.35 17.51 13.42 18.7 12.12 20.43 12.2Z" fill="#4B2828"/><g><path d="M28.52 22.36C28.52 22.36 31.65 26 36.57 27.21L44.38 31.47C44.38 31.47 44.84 32.86 44.98 33.5 45.12 34.14 45.1 34.4 45.68 35.04 46.25 35.68 46.46 35.79 46.77 35.56 47.07 35.34 46.97 35.08 46.77 34.8 46.56 34.52 46.11 34.02 46.46 33.63 46.46 33.63 46.98 33.6 47.58 34.33 48.18 35.06 48.46 35.79 48.85 35.73 49.24 35.68 49.23 35.26 49.04 34.98 49.04 34.98 49.68 34.96 49.33 34.24 49.33 34.24 50.05 34.11 49.5 33.34 49.5 33.34 50.29 33.35 49.73 32.59 49.17 31.83 48.38 30.95 47.7 30.52 47.02 30.09 45.5 29.86 45.5 29.86 45.5 29.86 39.27 25.72 38.15 25.06 37.03 24.4 29.2 19.06 29.2 19.06 29.2 19.06 25.33 22.75 28.52 22.36Z" fill="#F9B194"/><path d="M32.95 21.2C32.98 21.02 32.9 20.85 32.76 20.74 31.75 19.95 27.68 16.77 26.56 15.99 25.28 15.1 23.67 15.66 22.99 17.12 22.31 18.58 22.93 19.72 23.42 20.27 23.85 20.75 28.72 23.59 29.92 24.28 30.09 24.38 30.3 24.38 30.48 24.28 31.12 23.89 32.69 22.83 32.95 21.2Z" fill="#DDDDDD"/></g><g><path d="M22.17 10.67 23.66 13.58C23.66 13.58 21.66 15.33 20.02 15.55 18.37 15.77 18.39 11.46 18.39 11.46 18.39 11.46 21.16 9.9 22.17 10.67Z" fill="#F59473"/></g><path d="M25.03 14.55C25.03 14.55 24.43 13.8 23.81 13.68 23.81 13.68 22.01 14.59 21.29 16.33 20.81 17.5 20.4 20.15 22.09 24.31 22.74 25.91 25 27.62 26.44 27.9 26.44 27.9 26.62 27.65 26.72 27.21 26.82 26.77 26.72 26.48 26.72 26.48 26.72 26.48 24.94 26.21 23.56 23.83 22.63 22.22 21.96 18.71 22.44 17.18 22.92 15.64 25.03 14.55 25.03 14.55Z" fill="#4B2828"/><path d="M17.03 10.71C17.03 10.71 20.38 13.39 21.92 14.12 23.46 14.85 24.6 14.9 25.45 12.4 26.29 9.9 26.62 6.87 26.44 5.56 26.27 4.25 23.64 0.81 19.83 1.19 16.01 1.57 14.38 6.58 17.03 10.71Z" fill="#F9B194"/><path d="M18.66 11.47C18.66 11.47 21.11 9.51 20.6 7.76 20.6 7.76 23.68 9.29 26.46 7.85 26.71 7.72 26.84 7.44 26.87 7.16 26.95 6.51 27.02 5.2 26.49 4.09 25.75 2.55 22.16 0.04 20.3 0 18.44-0.04 15.89 0.35 15.21 3.22 14.53 6.09 14.82 7.96 15.52 9.23 16.22 10.5 17.22 10.92 18.52 13.2L18.66 11.47Z" fill="#291616"/><path d="M19.09 11.54C19.09 11.54 19.31 10.44 18.44 10.12 17.57 9.8 17.34 10.54 17.63 11.18 17.92 11.82 18.6 12.5 18.98 12.4 19.35 12.3 19.11 11.93 19.09 11.54Z" fill="#F9B194"/></g></g></svg>