<svg width="2000" height="2000" viewBox="0 0 2000 2000" xmlns="http://www.w3.org/2000/svg" xmlns:xlink="http://www.w3.org/1999/xlink" xml:space="preserve" overflow="hidden"><defs></defs><g><rect x="0" y="0" width="2000" height="1497.88" fill="#DCF4FF"/></g><g><path d="M2000 803.91 2000 1573.88 1816.27 1573.88 183.78 1573.83 0 1573.83 0 803.91 43.99 803.91 43.99 738.39 221.98 738.39 221.98 593.99 388.7 593.99 388.7 851.07 440.53 851.07 440.53 738.39 571.2 738.39 571.2 512.98 701.88 512.98 701.88 829.81 819.64 829.81 819.64 903.22 899.28 903.22 899.28 512.98 1075.01 512.98 1075.01 788.1 1175.47 788.1 1175.47 523.82 1351.21 523.82 1351.21 851.07 1411.65 851.07 1411.65 751.7 1653.12 751.7 1653.12 876.12 1709.58 876.12 1709.58 551.09 1952.77 551.09 1952.77 803.91Z" fill="#DCF4FF"/></g><g><g><g><g><g><g><path d="M148.73 1010.08 148.73 1010.08 148.73 1010.08Z" fill="#33192C"/></g><g><path d="M143.29 1009.25 137.83 1008.42C137.61 1009.88 132.68 1044.38 155.31 1069.98 170.61 1087.29 194.49 1096.04 226.35 1096.04 228.12 1096.04 229.92 1096.01 231.74 1095.96L231.41 1084.92C200.33 1085.84 177.52 1078.38 163.63 1062.73 144.46 1041.14 148.66 1010.56 148.73 1010.08L143.28 1009.25 143.29 1009.25Z" fill="#33192C"/></g><g><path d="M143.28 1009.25 148.73 1010.08 148.73 1010.08 143.29 1009.25Z" fill="#33192C"/></g><g><path d="M143.29 1009.25 148.73 1010.08 148.73 1010.07Z" fill="#33192C"/></g></g></g></g></g><g><g><g><g><g><path d="M245.49 947.5 245.16 958.54C246.98 958.59 248.78 958.62 250.55 958.62 282.41 958.62 306.28 949.86 321.59 932.56 344.22 906.97 339.29 872.46 339.07 871L328.17 872.66 333.62 871.83 328.17 872.65C328.22 872.96 332.49 903.66 313.27 925.31 299.38 940.96 276.58 948.43 245.49 947.5Z" fill="#33192C"/></g></g></g></g></g><g><g><g><g><path d="M165.85 933.02C121.72 926.16 111.06 986.75 111.06 986.75 111.06 986.75 100.41 964.27 73.01 965.03 63.59 965.29 57.8 970.51 54.26 977.24 43.5 997.67 56.46 1022.52 79.06 1027.14 119.05 1035.32 187.96 1030.22 212.44 1028.01 221.36 1027.21 228.59 1022.68 232.76 1014.74 235.46 1009.59 237.45 1002.7 233.57 995.51 223.68 977.22 204.65 987.89 204.65 987.89 204.65 987.89 209.99 939.88 165.85 933.02Z" fill="#3F9896"/></g></g></g></g><g><g><g><g><g><path d="M329.12 643.28 329.09 643.29 323.67 644.11Z" fill="#33192C"/></g><g><path d="M240.99 718.96 240.66 730C242.48 730.05 244.28 730.08 246.05 730.08 277.91 730.08 301.78 721.32 317.09 704.02 339.72 678.43 334.79 643.92 334.57 642.46L329.09 643.29 329.12 643.29 323.67 644.12 329.09 643.29 323.67 644.1C323.72 644.41 327.99 675.11 308.77 696.77 294.88 712.42 272.07 719.88 240.99 718.96Z" fill="#33192C"/></g></g></g></g></g><g><g><g><g><g><path d="M333.62 1164.75 333.57 1164.75 328.17 1165.57Z" fill="#33192C"/></g><g><path d="M245.49 1240.42 245.16 1251.46C246.98 1251.51 248.78 1251.54 250.55 1251.54 282.41 1251.54 306.28 1242.78 321.59 1225.48 344.22 1199.89 339.29 1165.38 339.07 1163.92L333.57 1164.76 333.62 1164.75 328.17 1165.58 333.56 1164.76 328.16 1165.57C328.21 1165.88 332.48 1196.58 313.26 1218.23 299.38 1233.88 276.58 1241.34 245.49 1240.42Z" fill="#33192C"/></g></g></g></g></g><g><g><g><g><g><path d="M135.41 752.68 140.86 753.51 140.86 753.49Z" fill="#33192C"/></g><g><path d="M147.44 813.4C162.74 830.71 186.62 839.46 218.48 839.46 220.25 839.46 222.05 839.43 223.87 839.38L223.54 828.34C192.46 829.26 169.65 821.8 155.76 806.15 136.59 784.56 140.79 753.98 140.86 753.5L129.96 751.84C129.74 753.3 124.81 787.81 147.44 813.4Z" fill="#33192C"/></g><g><path d="M140.86 753.51 140.86 753.51 140.86 753.51Z" fill="#33192C"/></g></g></g></g></g><g><g><g><g><path d="M229.73 1418.96 242.53 1418.96 255.32 1418.96 248.93 508.98 248.93 508.57 248.92 508.57 236.13 508.57 236.13 508.57 223.33 508.57 223.33 508.57 223.33 508.98 216.93 1418.96Z" fill="#33192C"/></g></g></g></g><g><g><g><g><path d="M318.34 439.59C255.09 415.53 231.87 480.49 231.87 480.49 195.84 430.77 165.42 472.47 165.42 472.47 118.98 454.83 113.38 512.57 113.38 512.57 99.87 514.37 94.69 522.72 93.49 532.45 91.05 552.3 105.06 570.44 124.64 574.38 224.49 594.45 325.77 574.01 363.25 564.75 375.15 561.81 382.28 548.96 377.6 537.61 372.19 524.5 357.58 527.01 357.58 527.01 357.58 527.01 381.59 463.65 318.34 439.59Z" fill="#3F9896"/></g></g></g></g><g><g><g><g><path d="M353.02 802.19C306.58 794.97 295.37 858.73 295.37 858.73 295.37 858.73 284.16 835.07 255.34 835.87 245.43 836.15 239.34 841.63 235.61 848.72 224.29 870.22 237.93 896.36 261.7 901.22 303.77 909.82 376.28 904.46 402.04 902.14 411.42 901.3 420.03 896.03 424.41 887.68 427.25 882.26 428.36 875.51 424.27 867.95 413.86 848.7 393.85 859.93 393.85 859.93 393.85 859.93 399.46 809.41 353.02 802.19Z" fill="#3F9896"/></g></g></g></g><g><g><g><g><path d="M63.37 739.12C60.11 745.15 60.99 750.53 63.25 754.85 66.74 761.5 73.6 765.7 81.08 766.37 101.61 768.22 159.39 772.49 192.92 765.64 211.86 761.77 222.73 740.93 213.71 723.8 210.74 718.16 205.88 713.78 197.99 713.56 175.02 712.92 166.09 731.77 166.09 731.77 166.09 731.77 157.16 680.97 120.15 686.72 83.15 692.47 87.61 732.73 87.61 732.73 87.61 732.73 71.66 723.78 63.37 739.12Z" fill="#3F9896"/></g></g></g></g><g><g><g><g><path d="M350.59 1121.07C319.44 1116.23 311.93 1158.99 311.93 1158.99 311.93 1158.99 304.41 1143.12 285.08 1143.66 278.43 1143.84 274.35 1147.53 271.85 1152.28 264.26 1166.7 273.41 1184.23 289.35 1187.49 317.57 1193.26 366.2 1189.66 383.48 1188.11 389.77 1187.54 395.55 1184.01 398.49 1178.41 400.4 1174.78 401.14 1170.25 398.39 1165.17 391.41 1152.26 377.98 1159.79 377.98 1159.79 377.98 1159.79 381.73 1125.91 350.59 1121.07Z" fill="#3F9896"/></g></g></g></g><g><g><g><g><path d="M318.08 596.13C286.93 591.29 279.42 634.05 279.42 634.05 279.42 634.05 271.9 618.18 252.57 618.72 245.92 618.9 241.84 622.59 239.34 627.34 231.75 641.76 240.9 659.29 256.84 662.55 285.06 668.32 333.69 664.72 350.97 663.17 357.26 662.6 363.04 659.07 365.98 653.47 367.89 649.84 368.63 645.31 365.88 640.23 358.9 627.32 345.47 634.85 345.47 634.85 345.47 634.85 349.22 600.97 318.08 596.13Z" fill="#3F9896"/></g></g></g></g></g><g><g><g><g><g><g><path d="M1850.42 1010.08 1850.42 1010.08 1850.42 1010.08Z" fill="#33192C"/></g><g><path d="M1855.86 1009.25 1861.32 1008.42C1861.54 1009.88 1866.47 1044.38 1843.84 1069.98 1828.54 1087.29 1804.66 1096.04 1772.8 1096.04 1771.03 1096.04 1769.23 1096.01 1767.41 1095.96L1767.74 1084.92C1798.82 1085.84 1821.63 1078.38 1835.52 1062.73 1854.69 1041.14 1850.49 1010.56 1850.42 1010.08L1855.87 1009.25 1855.86 1009.25Z" fill="#33192C"/></g><g><path d="M1855.87 1009.25 1850.42 1010.08 1850.42 1010.08 1855.86 1009.25Z" fill="#33192C"/></g><g><path d="M1855.86 1009.25 1850.42 1010.08 1850.42 1010.07Z" fill="#33192C"/></g></g></g></g></g><g><g><g><g><g><path d="M1753.65 947.5 1753.98 958.54C1752.16 958.59 1750.36 958.62 1748.59 958.62 1716.73 958.62 1692.86 949.86 1677.55 932.56 1654.92 906.97 1659.85 872.46 1660.07 871L1670.97 872.66 1665.52 871.83 1670.97 872.65C1670.92 872.96 1666.65 903.66 1685.87 925.31 1699.77 940.96 1722.57 948.43 1753.65 947.5Z" fill="#33192C"/></g></g></g></g></g><g><g><g><g><g><path d="M1670.03 643.28 1670.06 643.29 1675.48 644.11Z" fill="#33192C"/></g><g><path d="M1758.16 718.96 1758.49 730C1756.67 730.05 1754.87 730.08 1753.1 730.08 1721.24 730.08 1697.37 721.32 1682.06 704.02 1659.43 678.43 1664.36 643.92 1664.58 642.46L1670.06 643.29 1670.03 643.29 1675.48 644.12 1670.06 643.29 1675.48 644.1C1675.43 644.41 1671.16 675.11 1690.38 696.77 1704.27 712.42 1727.08 719.88 1758.16 718.96Z" fill="#33192C"/></g></g></g></g></g><g><g><g><g><g><path d="M1665.53 1164.75 1665.58 1164.75 1670.98 1165.57Z" fill="#33192C"/></g><g><path d="M1753.65 1240.42 1753.98 1251.46C1752.16 1251.51 1750.36 1251.54 1748.59 1251.54 1716.73 1251.54 1692.86 1242.78 1677.55 1225.48 1654.92 1199.89 1659.85 1165.38 1660.07 1163.92L1665.57 1164.76 1665.52 1164.75 1670.97 1165.58 1665.58 1164.76 1670.98 1165.57C1670.93 1165.88 1666.66 1196.58 1685.88 1218.23 1699.77 1233.88 1722.57 1241.34 1753.65 1240.42Z" fill="#33192C"/></g></g></g></g></g><g><g><g><g><g><path d="M1863.74 752.68 1858.29 753.51 1858.29 753.49Z" fill="#33192C"/></g><g><path d="M1851.71 813.4C1836.41 830.71 1812.53 839.46 1780.67 839.46 1778.9 839.46 1777.1 839.43 1775.28 839.38L1775.61 828.34C1806.69 829.26 1829.5 821.8 1843.39 806.15 1862.56 784.56 1858.36 753.98 1858.29 753.5L1869.19 751.84C1869.41 753.3 1874.34 787.81 1851.71 813.4Z" fill="#33192C"/></g><g><path d="M1858.29 753.51 1858.29 753.51 1858.29 753.51Z" fill="#33192C"/></g></g></g></g></g><g><g><g><g><path d="M1769.42 1418.96 1756.62 1418.96 1743.82 1418.96 1750.22 508.98 1750.22 508.57 1750.22 508.57 1763.02 508.57 1763.02 508.57 1775.82 508.57 1775.82 508.57 1775.82 508.98 1782.22 1418.96Z" fill="#33192C"/></g></g></g></g><g><g><g><g><path d="M1680.81 439.59C1744.06 415.53 1767.28 480.49 1767.28 480.49 1803.31 430.77 1833.73 472.47 1833.73 472.47 1880.17 454.83 1885.77 512.57 1885.77 512.57 1899.28 514.37 1904.46 522.72 1905.66 532.45 1908.1 552.3 1894.09 570.44 1874.51 574.38 1774.66 594.45 1673.38 574.01 1635.9 564.75 1624 561.81 1616.87 548.96 1621.55 537.61 1626.96 524.5 1641.57 527.01 1641.57 527.01 1641.57 527.01 1617.56 463.65 1680.81 439.59Z" fill="#3F9896"/></g></g></g></g><g><g><g><g><path d="M1646.13 802.19C1692.57 794.97 1703.78 858.73 1703.78 858.73 1703.78 858.73 1714.99 835.07 1743.81 835.87 1753.72 836.15 1759.81 841.63 1763.54 848.72 1774.86 870.22 1761.22 896.36 1737.45 901.22 1695.38 909.82 1622.87 904.46 1597.11 902.14 1587.73 901.3 1579.12 896.03 1574.74 887.68 1571.9 882.26 1570.8 875.51 1574.88 867.95 1585.29 848.7 1605.3 859.93 1605.3 859.93 1605.3 859.93 1599.69 809.41 1646.13 802.19Z" fill="#3F9896"/></g></g></g></g><g><g><g><g><path d="M1935.78 739.12C1939.04 745.15 1938.16 750.53 1935.89 754.85 1932.4 761.5 1925.54 765.7 1918.06 766.37 1897.53 768.22 1839.75 772.49 1806.22 765.64 1787.28 761.77 1776.41 740.93 1785.43 723.8 1788.4 718.16 1793.26 713.78 1801.15 713.56 1824.12 712.92 1833.05 731.77 1833.05 731.77 1833.05 731.77 1841.98 680.97 1878.99 686.72 1915.99 692.47 1911.53 732.73 1911.53 732.73 1911.53 732.73 1927.49 723.78 1935.78 739.12Z" fill="#3F9896"/></g></g></g></g><g><g><g><g><path d="M1648.56 1121.07C1679.71 1116.23 1687.22 1158.99 1687.22 1158.99 1687.22 1158.99 1694.74 1143.12 1714.07 1143.66 1720.72 1143.84 1724.8 1147.53 1727.3 1152.28 1734.89 1166.7 1725.74 1184.23 1709.8 1187.49 1681.58 1193.26 1632.95 1189.66 1615.67 1188.11 1609.38 1187.54 1603.6 1184.01 1600.66 1178.41 1598.75 1174.78 1598.01 1170.25 1600.76 1165.17 1607.74 1152.26 1621.17 1159.79 1621.17 1159.79 1621.17 1159.79 1617.41 1125.91 1648.56 1121.07Z" fill="#3F9896"/></g></g></g></g><g><g><g><g><path d="M1681.07 596.13C1712.22 591.29 1719.73 634.05 1719.73 634.05 1719.73 634.05 1727.25 618.18 1746.58 618.72 1753.23 618.9 1757.31 622.59 1759.81 627.34 1767.4 641.76 1758.25 659.29 1742.31 662.55 1714.09 668.32 1665.46 664.72 1648.18 663.17 1641.89 662.6 1636.11 659.07 1633.17 653.47 1631.26 649.84 1630.52 645.31 1633.27 640.23 1640.25 627.32 1653.68 634.85 1653.68 634.85 1653.68 634.85 1649.92 600.97 1681.07 596.13Z" fill="#3F9896"/></g></g></g></g><g><g><g><g><path d="M1833.29 933.02C1877.42 926.16 1888.08 986.75 1888.08 986.75 1888.08 986.75 1898.73 964.27 1926.13 965.03 1935.55 965.29 1941.34 970.51 1944.88 977.24 1955.64 997.67 1942.68 1022.52 1920.08 1027.14 1880.09 1035.32 1811.18 1030.22 1786.7 1028.01 1777.78 1027.21 1770.55 1022.68 1766.38 1014.74 1763.68 1009.59 1761.69 1002.7 1765.57 995.51 1775.46 977.22 1794.49 987.89 1794.49 987.89 1794.49 987.89 1789.16 939.88 1833.29 933.02Z" fill="#3F9896"/></g></g></g></g></g><g><g><path d="M215.13 1404.03 0 1404.21 0 1332.01C5.3 1334.69 11.24 1339.91 15.87 1349.95 15.87 1349.95 24.32 1331.01 38.61 1349.53 38.12 1348.47 18.02 1304.52 29.76 1299.55 41.46 1294.58 52.39 1319.2 52.69 1319.89 52.43 1318.66 41.27 1265.84 61.56 1263.66 82.1 1261.44 83.91 1293.7 83.91 1293.7 83.91 1293.7 91.95 1270.52 102.62 1278.18 113.29 1285.85 103.63 1310.84 103.63 1310.84 103.63 1310.84 115.1 1289.88 124.36 1303.58 133.63 1317.29 127.3 1333.91 127.3 1333.91 127.3 1333.91 137 1323.49 149.68 1329.75 162.36 1335.99 153.96 1358.43 153.96 1358.43 153.96 1358.43 169.26 1345.32 178.73 1358.83 178.73 1358.83 192.82 1333.63 204.09 1354.19 215.36 1374.75 215.13 1404.03 215.13 1404.03Z" fill="#3F9896"/></g></g><g><path d="M818.06 182.91 1014.27 182.91C1017.87 178.46 1017.84 171.25 1012.1 167.32 1003.07 161.15 990.04 163.9 990.04 163.9 990.04 163.9 1004.32 104.09 963.95 96.89 923.58 89.69 910.29 130.82 910.29 130.82 910.92 103.51 845.17 52.12 807.35 105.93 797.53 119.9 793.73 132.24 793.49 142.84 793.09 160.51 803.33 175.72 818.06 182.91Z" fill="#FFFFFF"/></g><g><path d="M1817.99 308.27 1918.93 308.27C1920.78 305.98 1920.77 302.27 1917.81 300.25 1913.16 297.07 1906.46 298.49 1906.46 298.49 1906.46 298.49 1913.8 267.72 1893.04 264.02 1872.27 260.32 1865.43 281.47 1865.43 281.47 1865.75 267.42 1831.93 240.98 1812.47 268.66 1807.42 275.85 1805.46 282.19 1805.34 287.65 1805.14 296.75 1810.41 304.57 1817.99 308.27Z" fill="#FFFFFF"/></g><g><path d="M1570.81 240.05C1571 237.43 1570.19 234.7 1568.06 232.42 1564.17 228.27 1557.55 224.89 1546.4 224.11 1546.4 224.11 1550.24 154.87 1498.03 150.29 1438.15 145.03 1437.42 213.05 1437.42 213.05 1437.42 213.05 1410.2 187.17 1390.57 219.98 1390.57 219.98 1356.64 200.34 1339.53 236.61 1338.99 237.75 1338.87 238.94 1339.07 240.05L1570.81 240.05Z" fill="#FFFFFF"/></g><g><path d="M552.32 318.06C552.58 314.48 551.47 310.74 548.56 307.63 543.25 301.96 534.19 297.35 518.96 296.28 518.96 296.28 524.21 201.68 452.87 195.42 371.05 188.23 370.06 281.17 370.06 281.17 370.06 281.17 332.87 245.81 306.05 290.64 306.05 290.64 259.7 263.81 236.32 313.37 235.58 314.93 235.42 316.55 235.69 318.06L552.32 318.06Z" fill="#FFFFFF"/></g><g><rect x="0" y="1404.27" width="2000" height="595.73" fill="#223749"/></g><g opacity="0.5"><path d="M2000 1776.23 2000 2000 0 2000 0 1776.23 183.78 1573.83 256.12 1494.17 337.75 1404.27 1662.25 1404.27 1743.88 1494.17 1816.27 1573.88Z" fill="#B0CFF4"/></g><g><g><path d="M161.12 1912.97 75.86 1912.97 344.85 1599.54 404.32 1599.54Z" fill="#FFFFFF"/></g><g><path d="M360.04 1912.97 274.78 1912.97 483.61 1599.54 543.07 1599.54Z" fill="#FFFFFF"/></g><g><path d="M558.96 1912.97 473.71 1912.97 622.36 1599.54 681.83 1599.54Z" fill="#FFFFFF"/></g><g><path d="M757.88 1912.97 672.63 1912.97 761.12 1599.54 820.59 1599.54Z" fill="#FFFFFF"/></g><g><path d="M956.8 1912.97 871.55 1912.97 899.88 1599.54 959.34 1599.54Z" fill="#FFFFFF"/></g><g><path d="M1155.72 1912.97 1070.47 1912.97 1038.63 1599.54 1098.1 1599.54Z" fill="#FFFFFF"/></g><g><path d="M1354.65 1912.97 1269.39 1912.97 1177.39 1599.54 1236.86 1599.54Z" fill="#FFFFFF"/></g><g><path d="M1553.57 1912.97 1468.32 1912.97 1316.15 1599.54 1375.61 1599.54Z" fill="#FFFFFF"/></g><g><path d="M1752.49 1912.97 1667.24 1912.97 1454.9 1599.54 1514.37 1599.54Z" fill="#FFFFFF"/></g><g><path d="M1951.41 1912.97 1866.16 1912.97 1593.66 1599.54 1653.13 1599.54Z" fill="#FFFFFF"/></g></g><g><rect x="0" y="367.78" width="2000" height="8.03" fill="#8CB2E7"/></g><g><path d="M1234.76 446.73 765.24 446.73C752.57 446.73 742.3 436.46 742.3 423.79L742.3 327.85C742.3 315.18 752.57 304.91 765.24 304.91L1234.76 304.91C1247.43 304.91 1257.7 315.18 1257.7 327.85L1257.7 423.79C1257.7 436.46 1247.43 446.73 1234.76 446.73Z" fill="#223749"/></g><g opacity="0.3"><ellipse cx="843.61" cy="376.71" rx="54.32" ry="54.41" fill="#3B72A8"/></g><g opacity="0.3"><ellipse cx="1000" cy="376.71" rx="54.32" ry="54.41" fill="#3B72A8"/></g><g><ellipse cx="1156.39" cy="376.71" rx="54.32" ry="54.41" fill="#ED1C24"/></g><g><path d="M744.3 423.71 740.29 423.71 740.29 327.93C740.29 314.13 751.5 302.9 765.28 302.9L1047.25 302.9 1047.25 306.91 765.28 306.91C753.71 306.91 744.3 316.34 744.3 327.93L744.3 423.71Z" fill="#1D1D1B"/></g><g><path d="M1234.72 448.74 862.92 448.74 862.92 444.73 1234.72 444.73C1246.29 444.73 1255.7 435.3 1255.7 423.71L1255.7 327.93 1259.71 327.93 1259.71 423.71C1259.71 437.51 1248.5 448.74 1234.72 448.74Z" fill="#1D1D1B"/></g><g><path d="M843.61 433.13C812.55 433.13 787.28 407.82 787.28 376.71 787.28 345.6 812.55 320.29 843.61 320.29L843.61 324.3C814.76 324.3 791.29 347.81 791.29 376.7 791.29 405.6 814.76 429.1 843.61 429.1L843.61 433.13Z" fill="#1D1D1B"/></g><g><path d="M1000 433.13C968.94 433.13 943.67 407.82 943.67 376.71 943.67 345.6 968.94 320.29 1000 320.29L1000 324.3C971.15 324.3 947.68 347.81 947.68 376.7 947.68 405.6 971.15 429.1 1000 429.1L1000 433.13Z" fill="#1D1D1B"/></g><g><path d="M1156.39 433.13C1125.33 433.13 1100.06 407.82 1100.06 376.71 1100.06 345.6 1125.33 320.29 1156.39 320.29L1156.39 324.3C1127.54 324.3 1104.07 347.81 1104.07 376.7 1104.07 405.6 1127.54 429.1 1156.39 429.1L1156.39 433.13Z" fill="#1D1D1B"/></g><g><rect x="0" y="374.35" width="742.3" height="4.01" fill="#1D1D1B"/></g><g><rect x="1257.7" y="374.35" width="742.3" height="4.01" fill="#1D1D1B"/></g><g><g><g><path d="M1164.06 1546.72 1194.04 1546.72C1204.33 1546.72 1212.67 1538.38 1212.67 1528.09L1212.67 1451.96C1212.67 1441.67 1204.33 1433.33 1194.04 1433.33L1164.06 1433.33C1153.77 1433.33 1145.43 1441.67 1145.43 1451.96L1145.43 1528.09C1145.43 1538.38 1153.77 1546.72 1164.06 1546.72Z" fill="#223749"/></g><g><path d="M678.35 1546.72 708.33 1546.72C718.62 1546.72 726.96 1538.38 726.96 1528.09L726.96 1451.96C726.96 1441.67 718.62 1433.33 708.33 1433.33L678.35 1433.33C668.06 1433.33 659.72 1441.67 659.72 1451.96L659.72 1528.09C659.72 1538.38 668.06 1546.72 678.35 1546.72Z" fill="#223749"/></g><g><g><path d="M760 1266.32 881.02 1266.32C882.47 1265.31 888.19 1260.55 885.65 1249.66 882.76 1237.25 869.12 1192.14 859.62 1187.59 850.12 1183.04 833.87 1182.45 820.51 1181.63 807.15 1182.46 790.9 1183.04 781.4 1187.59 771.9 1192.14 758.26 1237.25 755.37 1249.66 752.83 1260.55 758.55 1265.31 760 1266.32Z" fill="#223749"/></g></g><g><g><path d="M1119.26 1265.27 998.24 1265.27C996.79 1264.26 991.07 1259.5 993.61 1248.61 996.5 1236.2 1010.14 1191.09 1019.64 1186.54 1029.14 1181.99 1045.39 1181.4 1058.75 1180.58 1072.11 1181.41 1088.36 1181.99 1097.86 1186.54 1107.36 1191.09 1121 1236.2 1123.89 1248.61 1126.43 1259.49 1120.71 1264.26 1119.26 1265.27Z" fill="#223749"/></g></g><g><g><g><path d="M1135.38 1260.28C1135.38 1260.28 1116.93 1224.14 1103.98 1216.97 1091.03 1209.8 1065.69 1207.87 1055.23 1208.42 1044.76 1208.97 1012.81 1208.14 1000.14 1216.97 987.47 1225.8 970.94 1257.52 970.94 1257.52 970.94 1257.52 1029.06 1298.63 1038.7 1295.87 1048.34 1293.11 1135.38 1260.28 1135.38 1260.28Z" fill="#49263E"/></g></g><g><g><path d="M1135.17 1260.38 1135.58 1260.17C1135.4 1259.81 1116.94 1223.88 1104.09 1216.76 1091.1 1209.56 1065.84 1207.62 1055.21 1208.18 1053.56 1208.27 1051.36 1208.32 1048.81 1208.38 1035.5 1208.7 1010.73 1209.3 1000 1216.77 987.43 1225.53 970.9 1257.09 970.73 1257.41L971.14 1257.63C971.31 1257.31 987.78 1225.85 1000.26 1217.16 1010.87 1209.77 1035.56 1209.17 1048.82 1208.85 1051.37 1208.79 1053.57 1208.74 1055.23 1208.65 1065.81 1208.09 1090.95 1210.02 1103.86 1217.17 1116.6 1224.22 1134.99 1260.02 1135.17 1260.38Z" fill="#49263E"/></g></g><g><g><path d="M1079.56 1209.65C1079.56 1209.65 1068.06 1221.17 1053.16 1221.72 1038.26 1222.27 1025.48 1209.62 1025.48 1209.62 1025.48 1209.62 1052.29 1205.44 1079.56 1209.65Z" fill="#49263E"/></g></g><g><g><g><g><g><g><g><g><g><g><g><path d="M1066.55 1209.47C1065.92 1212.44 1061.68 1218.42 1053.78 1218.48 1051.29 1218.5 1049.09 1218.09 1047.24 1217.52 1043.46 1216.36 1041.09 1212.62 1041.54 1208.69L1042.75 1198.12C1035.83 1197.19 1036.09 1189.27 1036.09 1189.27L1035.89 1164.64 1064.17 1158.36 1065.29 1185.36 1065.11 1192.33C1065.09 1192.33 1067.18 1206.5 1066.55 1209.47Z" fill="#49263E"/></g></g></g></g></g></g></g></g></g></g><g><g><g><g><g><g><g><g><g><g><path d="M1042.74 1198.12C1042.74 1198.12 1053.47 1200.19 1058.72 1191.26 1058.72 1191.26 1058.36 1204.52 1041.85 1205.92L1042.74 1198.12Z" fill="#49263E"/></g></g></g></g></g></g></g></g></g></g><g><g><g><g><g><g><g><g><g><g><path d="M1054.83 1177.3C1054.66 1177.13 1050.64 1173.08 1046.99 1176.07 1046.85 1176.19 1046.64 1176.17 1046.53 1176.02 1046.41 1175.88 1046.44 1175.67 1046.58 1175.56 1050.69 1172.19 1055.26 1176.79 1055.31 1176.84 1055.44 1176.97 1055.43 1177.18 1055.3 1177.31 1055.24 1177.37 1055.15 1177.4 1055.07 1177.4 1054.99 1177.4 1054.9 1177.37 1054.83 1177.3Z" fill="#49263E"/></g></g></g></g></g></g></g></g></g></g><g><g><g><g><g><g><g><g><path d="M1059.86 1162.43C1061.18 1160.07 1066.39 1173.85 1066.39 1173.85L1059.29 1175.39 1058.02 1176.73C1058.02 1176.73 1058.54 1164.79 1059.86 1162.43Z" fill="#49263E"/></g></g></g></g></g></g></g></g><g><g><g><g><g><g><g><g><g><g><path d="M1041.26 1175.45C1041.23 1175.43 1038.4 1173.04 1036.85 1174.39 1036.71 1174.51 1036.5 1174.5 1036.39 1174.36 1036.27 1174.22 1036.28 1174.01 1036.42 1173.89 1038.39 1172.17 1041.56 1174.83 1041.69 1174.95 1041.83 1175.07 1041.84 1175.28 1041.73 1175.41 1041.67 1175.49 1041.57 1175.53 1041.48 1175.53 1041.4 1175.53 1041.32 1175.51 1041.26 1175.45Z" fill="#49263E"/></g></g></g></g></g></g></g></g></g></g><g><g><g><g><g><g><g><g><g><g><path d="M1048.42 1178.79C1048.42 1178.24 1048.85 1177.8 1049.4 1177.79 1049.95 1177.79 1050.39 1178.22 1050.4 1178.77 1050.4 1179.32 1049.97 1179.76 1049.42 1179.77 1048.87 1179.77 1048.43 1179.33 1048.42 1178.79Z" fill="#49263E"/></g></g></g></g></g></g></g></g></g></g><g><g><g><g><g><g><g><g><g><g><path d="M1037.91 1177.88C1037.91 1177.33 1038.34 1176.89 1038.89 1176.88 1039.44 1176.87 1039.88 1177.31 1039.89 1177.86 1039.89 1178.41 1039.46 1178.85 1038.91 1178.86 1038.36 1178.87 1037.92 1178.43 1037.91 1177.88Z" fill="#49263E"/></g></g></g></g></g></g></g></g></g></g><g><g><g><g><g><g><g><g><g><g><path d="M1056.58 1178.38C1056.55 1175.1 1059.19 1172.42 1062.46 1172.39 1065.73 1172.36 1068.41 1175 1068.44 1178.28 1068.47 1181.56 1065.83 1184.24 1062.56 1184.27 1059.28 1184.29 1056.61 1181.66 1056.58 1178.38Z" fill="#49263E"/></g></g></g></g></g></g></g></g></g></g><g><g><g><g><g><g><g><g><g><g><path d="M1064.93 1177.04C1065.82 1177.59 1066.2 1178.65 1065.89 1179.75 1065.63 1180.68 1064.81 1181.61 1063.58 1181.62 1063.57 1181.62 1063.56 1181.62 1063.55 1181.62 1063.46 1181.62 1063.39 1181.54 1063.39 1181.45 1063.39 1181.36 1063.46 1181.29 1063.55 1181.29 1063.56 1181.29 1063.57 1181.29 1063.58 1181.29 1064.71 1181.28 1065.36 1180.41 1065.57 1179.66 1065.77 1178.94 1065.69 1177.89 1064.76 1177.33 1063.09 1176.31 1061.69 1177.69 1061.63 1177.75L1061.21 1178.17 1061.35 1177.59C1061.6 1176.56 1062.1 1175.83 1062.84 1175.41 1064.13 1174.69 1065.67 1175.17 1065.73 1175.19 1065.82 1175.22 1065.86 1175.31 1065.84 1175.4 1065.81 1175.49 1065.72 1175.53 1065.63 1175.51 1065.62 1175.51 1064.16 1175.05 1063 1175.7 1062.46 1176 1062.07 1176.5 1061.81 1177.17 1062.42 1176.77 1063.61 1176.23 1064.93 1177.04Z" fill="#49263E"/></g></g></g></g></g></g></g></g></g></g><g><g><g><g><g><g><g><g><g><g><path d="M1045.15 1185.38C1045.13 1185.45 1045.06 1185.49 1044.99 1185.49 1044.97 1185.49 1044.96 1185.49 1044.94 1185.48L1041.37 1184.33 1042.38 1176.27C1042.39 1176.18 1042.47 1176.11 1042.56 1176.13 1042.65 1176.14 1042.71 1176.22 1042.7 1176.31L1041.72 1184.1 1045.03 1185.17C1045.13 1185.2 1045.17 1185.29 1045.15 1185.38Z" fill="#49263E"/></g></g></g></g></g></g></g></g></g></g><g><g><g><g><g><g><g><g><g><g><path d="M1041.05 1188.57C1041.05 1188.57 1047.47 1188.67 1047.57 1188.69 1047.57 1188.69 1046.65 1191.31 1044.26 1191.27 1041.87 1191.23 1041.05 1188.57 1041.05 1188.57Z" fill="#49263E"/></g></g></g></g></g></g></g></g></g></g><g><g><g><g><g><g><g><g><path d="M1038.38 1148.5C1040.82 1146.32 1061.17 1153.7 1064.74 1157.98 1068.31 1162.26 1066.4 1173.84 1066.4 1173.84 1061.58 1166.64 1054.65 1164.68 1054.65 1164.68 1044.23 1168.15 1026.68 1165.22 1028.47 1157.97 1030.26 1150.72 1038.42 1153.27 1038.42 1153.27 1038.42 1153.27 1035.93 1150.68 1038.38 1148.5Z" fill="#49263E"/></g></g></g></g></g></g></g></g></g></g><g><g><g><g><path d="M902.02 1262.83C902.02 1262.83 883.57 1226.69 870.62 1219.52 857.67 1212.35 832.33 1210.42 821.87 1210.97 811.4 1211.52 779.45 1210.69 766.78 1219.52 754.11 1228.35 737.58 1260.07 737.58 1260.07 737.58 1260.07 795.7 1301.18 805.34 1298.42 814.98 1295.66 902.02 1262.83 902.02 1262.83Z" fill="#49263E"/></g></g><g><g><path d="M901.82 1262.94 902.23 1262.73C902.05 1262.37 883.59 1226.44 870.74 1219.32 857.75 1212.12 832.49 1210.18 821.86 1210.74 820.21 1210.83 818.01 1210.88 815.46 1210.94 802.15 1211.26 777.38 1211.86 766.65 1219.33 754.08 1228.09 737.55 1259.65 737.38 1259.97L737.79 1260.19C737.95 1259.87 754.43 1228.41 766.91 1219.72 777.52 1212.33 802.21 1211.73 815.47 1211.41 818.02 1211.35 820.22 1211.3 821.88 1211.21 832.47 1210.65 857.59 1212.58 870.51 1219.73 883.25 1226.78 901.63 1262.58 901.82 1262.94Z" fill="#49263E"/></g></g><g><g><g><g><g><g><g><path d="M807.02 1156.75 837.64 1164.64 837.64 1190.12C837.64 1190.12 838 1198.73 830.52 1199.81L831.92 1211.3C832.44 1215.57 829.9 1219.66 825.84 1220.96 823.85 1221.6 821.47 1222.06 818.78 1222.06 810.24 1222.06 805.61 1215.6 804.9 1212.37 804.19 1209.14 806.32 1193.71 806.32 1193.71L806.06 1186.13 807.02 1156.75Z" fill="#49263E"/></g></g></g></g></g></g><g><g><g><g><g><g><path d="M825.73 1175.86C821.77 1172.64 817.45 1177.07 817.27 1177.26 817.2 1177.33 817.11 1177.37 817.01 1177.37 816.92 1177.37 816.83 1177.34 816.76 1177.27 816.62 1177.13 816.61 1176.91 816.75 1176.76 816.8 1176.71 821.7 1171.66 826.17 1175.29 826.32 1175.41 826.35 1175.64 826.22 1175.79 826.1 1175.97 825.88 1175.99 825.73 1175.86Z" fill="#49263E"/></g></g></g></g></g></g><g><g><g><g><g><g><path d="M836.68 1173.94C835 1172.49 831.95 1175.11 831.92 1175.13 831.85 1175.19 831.77 1175.22 831.69 1175.22 831.59 1175.22 831.49 1175.18 831.42 1175.1 831.29 1174.95 831.31 1174.72 831.46 1174.59 831.6 1174.46 835 1171.54 837.15 1173.39 837.3 1173.52 837.32 1173.75 837.19 1173.9 837.05 1174.06 836.82 1174.07 836.68 1173.94Z" fill="#49263E"/></g></g></g></g></g></g><g><g><g><g><g><g><path d="M822.07 1178.83C822.07 1178.24 822.55 1177.75 823.14 1177.75 823.73 1177.75 824.21 1178.23 824.21 1178.83 824.21 1179.42 823.73 1179.91 823.14 1179.91 822.55 1179.91 822.07 1179.42 822.07 1178.83Z" fill="#49263E"/></g></g></g></g></g></g><g><g><g><g><g><g><path d="M833.43 1177.75C833.43 1177.16 833.91 1176.67 834.5 1176.67 835.09 1176.67 835.57 1177.15 835.57 1177.75 835.57 1178.34 835.09 1178.83 834.5 1178.83 833.91 1178.83 833.43 1178.35 833.43 1177.75Z" fill="#49263E"/></g></g></g></g></g></g><g><g><g><g><g><g><path d="M813.98 1166.67 808.02 1158.16C808.02 1158.16 807.46 1156.86 806.81 1154.89 806.15 1152.92 812.03 1147.95 817.02 1145.08 822 1142.21 825.17 1147.92 829.44 1146.01 837.27 1142.5 843.66 1146.71 844.99 1148.78 847.7 1152.97 850.55 1156.99 841.3 1165.37 832.03 1173.74 813.98 1166.67 813.98 1166.67Z" fill="#49263E"/></g></g></g></g></g></g><g><g><g><g><g><g><path d="M808.38 1193.89C797.22 1195.09 798.82 1179.06 798.74 1176.68 798.66 1174.3 795.58 1170.13 797.87 1162.15 800.16 1154.18 808.38 1154.57 808.38 1154.57L807.51 1156.87 811.4 1167.41 808.38 1193.89Z" fill="#49263E"/></g></g></g></g></g></g><g><g><g><g><g><g><path d="M802.57 1178.46C802.57 1174.89 805.44 1172 808.98 1172 812.52 1172 815.39 1174.89 815.39 1178.46 815.39 1182.03 812.52 1184.92 808.98 1184.92 805.44 1184.92 802.57 1182.02 802.57 1178.46Z" fill="#49263E"/></g></g></g></g></g></g><g><g><g><g><g><g><path d="M809.07 1175.98C807.81 1175.28 806.24 1175.79 806.23 1175.8 806.14 1175.83 806.04 1175.78 806 1175.69 805.97 1175.6 806.02 1175.49 806.11 1175.46 806.18 1175.44 807.84 1174.9 809.24 1175.67 810.05 1176.12 810.6 1176.91 810.87 1178.02L811.02 1178.64 810.57 1178.19C810.51 1178.13 808.98 1176.63 807.18 1177.76 806.18 1178.38 806.09 1179.52 806.32 1180.31 806.56 1181.12 807.27 1182.07 808.49 1182.07 808.5 1182.07 808.51 1182.07 808.53 1182.07 808.63 1182.07 808.71 1182.15 808.71 1182.25 808.71 1182.35 808.63 1182.43 808.53 1182.43 808.52 1182.43 808.5 1182.43 808.49 1182.43 807.16 1182.43 806.27 1181.42 805.98 1180.41 805.63 1179.22 806.03 1178.06 806.99 1177.46 808.41 1176.57 809.7 1177.14 810.35 1177.58 810.09 1176.83 809.66 1176.3 809.07 1175.98Z" fill="#49263E"/></g></g></g></g></g></g><g><g><g><g><g><path d="M811.03 1187.8 810.87 1172 811.39 1167.42C812.54 1168.73 813.24 1170.37 813.4 1172.12 813.74 1175.91 814.57 1186.12 815.51 1186.57 816.83 1187.21 836.35 1184.42 838.88 1186.08 838.88 1186.08 841.21 1203.33 829.84 1203.95 813.58 1204.81 812 1195.45 811.03 1187.8Z" fill="#49263E"/></g></g></g></g></g><g><g><g><g><g><g><path d="M830.51 1175.89C830.61 1175.87 830.7 1175.95 830.71 1176.04L831.88 1184.8 828.03 1186.08C828.01 1186.09 827.99 1186.09 827.97 1186.09 827.9 1186.09 827.83 1186.04 827.8 1185.97 827.77 1185.88 827.82 1185.77 827.91 1185.74L831.48 1184.55 830.35 1176.09C830.35 1175.99 830.42 1175.9 830.51 1175.89Z" fill="#49263E"/></g></g></g></g></g></g></g><g><g><path d="M846.21 1212.21C846.21 1212.21 834.71 1223.73 819.81 1224.28 804.91 1224.83 792.13 1212.18 792.13 1212.18 792.13 1212.18 818.93 1207.99 846.21 1212.21Z" fill="#49263E"/></g></g><g><g><path d="M832.55 1188.41C832.42 1188.38 824.21 1188.2 824.21 1188.2 824.21 1188.2 825.25 1191.6 828.3 1191.68 828.3 1191.68 830.99 1191.64 832.55 1188.41Z" fill="#49263E"/></g></g></g><g><g><g><path d="M769.87 1289.14C769.87 1260.31 793.29 1236.85 822.07 1236.85 850.85 1236.85 874.27 1260.31 874.27 1289.14 874.27 1317.97 850.85 1341.43 822.07 1341.43 793.29 1341.43 769.87 1317.97 769.87 1289.14ZM781.83 1289.14C781.83 1311.37 799.88 1329.45 822.07 1329.45 844.26 1329.45 862.31 1311.37 862.31 1289.14 862.31 1266.91 844.26 1248.83 822.07 1248.83 799.88 1248.84 781.83 1266.92 781.83 1289.14Z" fill="#5B3B52"/></g></g></g><g><g><g><path d="M856.2 1266.11C855.05 1266.86 853.31 1266.31 852.25 1264.76 851.09 1263.06 851.19 1260.95 852.43 1260.14L861.86 1253.94C861.86 1253.94 864.31 1254.22 865.46 1256.1 866.61 1257.98 865.97 1259.68 865.67 1259.89L856.2 1266.11Z" fill="#49263E"/></g></g><g><g><path d="M859.68 1272.56C858.55 1273.34 856.81 1272.83 855.73 1271.3 854.55 1269.62 854.61 1267.49 855.83 1266.65L866.12 1259.49C866.12 1259.49 867.65 1259.59 868.83 1261.46 870.01 1263.32 870.02 1265.38 869.72 1265.59L859.68 1272.56Z" fill="#49263E"/></g></g><g><g><path d="M863.2 1278.51C862.16 1279.26 860.54 1278.8 859.52 1277.38 858.41 1275.82 858.44 1273.84 859.57 1273.03L869.06 1266.2C869.06 1266.2 870.48 1266.28 871.59 1268 872.7 1269.73 872.73 1271.65 872.45 1271.84L863.2 1278.51Z" fill="#49263E"/></g></g><g><g><g><path d="M855.85 1265.54 866.02 1258.79C866.24 1258.64 866.58 1258.77 866.77 1259.09 866.94 1259.36 866.94 1259.68 866.79 1259.85 866.77 1259.88 866.74 1259.9 866.71 1259.92L856.54 1266.67C855.15 1267.58 853.1 1266.87 851.86 1265.06 851.2 1264.09 850.86 1262.98 850.9 1261.93 850.94 1260.89 851.37 1260.03 852.07 1259.57L861.4 1253.44C861.62 1253.29 861.96 1253.43 862.15 1253.74 862.34 1254.05 862.31 1254.42 862.09 1254.57L852.76 1260.7C852.27 1261.02 851.99 1261.59 851.96 1262.31 851.93 1263.03 852.17 1263.79 852.62 1264.45 853.47 1265.7 854.89 1266.17 855.85 1265.54Z" fill="#49263E"/></g></g></g><g><g><path d="M851.57 1261C850.46 1261.76 848.75 1261.29 847.67 1259.8 846.43 1258.1 846.49 1255.92 847.73 1255.07L857.14 1248.66C858.19 1247.95 860.09 1248.93 860.78 1250 861.98 1251.84 861.95 1253.92 861.64 1254.13L851.57 1261Z" fill="#49263E"/></g></g><g><g><g><path d="M851.21 1260.45 861.27 1253.52C861.49 1253.37 861.83 1253.5 862.02 1253.81 862.19 1254.08 862.2 1254.4 862.05 1254.58 862.03 1254.61 862 1254.63 861.97 1254.65L851.91 1261.58C850.54 1262.52 848.48 1261.83 847.23 1260.03 846.56 1259.07 846.21 1257.95 846.24 1256.9 846.27 1255.86 846.69 1254.99 847.38 1254.52L856.61 1248.23C856.83 1248.08 857.17 1248.21 857.36 1248.52 857.55 1248.83 857.53 1249.2 857.31 1249.36L848.08 1255.65C847.6 1255.98 847.32 1256.56 847.3 1257.28 847.28 1258 847.52 1258.76 847.98 1259.42 848.84 1260.64 850.26 1261.09 851.21 1260.45Z" fill="#49263E"/></g></g></g><g><g><g><path d="M859.18 1271.92 868.84 1264.93C869.06 1264.77 869.39 1264.89 869.59 1265.2 869.77 1265.47 869.78 1265.8 869.62 1265.98 869.6 1266 869.58 1266.02 869.55 1266.04L859.89 1273.04C858.52 1273.99 856.61 1273.39 855.36 1271.6 854.69 1270.64 854.33 1269.53 854.35 1268.47 854.37 1267.43 854.78 1266.55 855.48 1266.07L865.77 1258.91C865.99 1258.76 866.33 1258.88 866.52 1259.19 866.72 1259.5 866.7 1259.88 866.48 1260.03L856.19 1267.19C855.71 1267.53 855.44 1268.11 855.42 1268.83 855.4 1269.55 855.65 1270.31 856.11 1270.97 856.97 1272.2 858.23 1272.59 859.18 1271.92Z" fill="#49263E"/></g></g></g><g><g><g><path d="M862.52 1277.62 871.77 1270.96C871.99 1270.8 872.33 1270.93 872.52 1271.23 872.7 1271.5 872.7 1271.83 872.55 1272.01 872.53 1272.03 872.51 1272.05 872.48 1272.07L863.23 1278.73C861.96 1279.64 860.02 1279.04 858.82 1277.36 858.18 1276.46 857.83 1275.42 857.84 1274.42 857.85 1273.43 858.23 1272.6 858.87 1272.14L868.36 1265.31C868.58 1265.15 868.92 1265.28 869.11 1265.58 869.31 1265.89 869.29 1266.27 869.08 1266.42L859.59 1273.25C859.15 1273.56 858.91 1274.1 858.9 1274.77 858.89 1275.43 859.12 1276.13 859.55 1276.73 860.36 1277.84 861.66 1278.23 862.52 1277.62Z" fill="#49263E"/></g></g></g></g><g><g><g><path d="M787.06 1266.11C788.21 1266.86 789.95 1266.31 791.01 1264.76 792.17 1263.06 792.07 1260.95 790.83 1260.14L781.4 1253.94C781.4 1253.94 778.95 1254.22 777.8 1256.1 776.65 1257.98 777.29 1259.68 777.59 1259.89L787.06 1266.11Z" fill="#49263E"/></g></g><g><g><path d="M783.58 1272.56C784.71 1273.34 786.45 1272.83 787.53 1271.3 788.71 1269.62 788.65 1267.49 787.43 1266.65L777.14 1259.49C777.14 1259.49 775.61 1259.59 774.43 1261.46 773.25 1263.32 773.24 1265.38 773.54 1265.59L783.58 1272.56Z" fill="#49263E"/></g></g><g><g><path d="M780.06 1278.51C781.1 1279.26 782.72 1278.8 783.74 1277.38 784.85 1275.82 784.82 1273.84 783.69 1273.03L774.2 1266.2C774.2 1266.2 772.78 1266.28 771.67 1268 770.56 1269.73 770.53 1271.65 770.81 1271.84L780.06 1278.51Z" fill="#49263E"/></g></g><g><g><g><path d="M787.41 1265.54 777.24 1258.79C777.02 1258.64 776.68 1258.77 776.49 1259.09 776.32 1259.36 776.32 1259.68 776.47 1259.85 776.49 1259.88 776.52 1259.9 776.55 1259.92L786.72 1266.67C788.11 1267.58 790.16 1266.87 791.4 1265.06 792.06 1264.09 792.4 1262.98 792.36 1261.93 792.32 1260.89 791.89 1260.03 791.19 1259.57L781.86 1253.44C781.64 1253.29 781.3 1253.43 781.11 1253.74 780.92 1254.05 780.95 1254.42 781.17 1254.57L790.5 1260.7C790.99 1261.02 791.27 1261.59 791.3 1262.31 791.33 1263.03 791.09 1263.79 790.64 1264.45 789.79 1265.7 788.37 1266.17 787.41 1265.54Z" fill="#49263E"/></g></g></g><g><g><path d="M791.68 1261C792.79 1261.76 794.5 1261.29 795.58 1259.8 796.82 1258.1 796.76 1255.92 795.52 1255.07L786.11 1248.66C785.06 1247.95 783.16 1248.93 782.47 1250 781.27 1251.84 781.3 1253.92 781.6 1254.13L791.68 1261Z" fill="#49263E"/></g></g><g><g><g><path d="M792.05 1260.45 781.99 1253.52C781.77 1253.37 781.43 1253.5 781.24 1253.81 781.07 1254.08 781.06 1254.4 781.21 1254.58 781.23 1254.61 781.26 1254.63 781.29 1254.65L791.35 1261.58C792.72 1262.52 794.78 1261.83 796.03 1260.03 796.7 1259.07 797.05 1257.95 797.02 1256.9 796.99 1255.86 796.57 1254.99 795.88 1254.52L786.65 1248.23C786.43 1248.08 786.09 1248.21 785.9 1248.52 785.71 1248.83 785.73 1249.2 785.95 1249.36L795.18 1255.65C795.66 1255.98 795.94 1256.56 795.96 1257.28 795.98 1258 795.74 1258.76 795.28 1259.42 794.41 1260.64 793 1261.09 792.05 1260.45Z" fill="#49263E"/></g></g></g><g><g><g><path d="M784.08 1271.92 774.42 1264.93C774.2 1264.77 773.87 1264.89 773.67 1265.2 773.49 1265.47 773.48 1265.8 773.64 1265.98 773.66 1266 773.68 1266.02 773.71 1266.04L783.37 1273.04C784.74 1273.99 786.65 1273.39 787.9 1271.6 788.57 1270.64 788.93 1269.53 788.91 1268.47 788.89 1267.43 788.48 1266.55 787.78 1266.07L777.49 1258.91C777.27 1258.76 776.93 1258.88 776.74 1259.19 776.54 1259.5 776.56 1259.88 776.78 1260.03L787.07 1267.19C787.55 1267.53 787.82 1268.11 787.84 1268.83 787.86 1269.55 787.61 1270.31 787.15 1270.97 786.29 1272.2 785.03 1272.59 784.08 1271.92Z" fill="#49263E"/></g></g></g><g><g><g><path d="M780.74 1277.62 771.49 1270.96C771.27 1270.8 770.93 1270.93 770.74 1271.23 770.56 1271.5 770.56 1271.83 770.71 1272.01 770.73 1272.03 770.75 1272.05 770.78 1272.07L780.03 1278.73C781.3 1279.64 783.24 1279.04 784.44 1277.36 785.08 1276.46 785.43 1275.42 785.42 1274.42 785.41 1273.43 785.03 1272.6 784.39 1272.14L774.9 1265.31C774.68 1265.15 774.34 1265.28 774.15 1265.58 773.95 1265.89 773.97 1266.27 774.18 1266.42L783.67 1273.25C784.11 1273.56 784.35 1274.1 784.36 1274.77 784.37 1275.43 784.14 1276.13 783.71 1276.73 782.89 1277.84 781.6 1278.23 780.74 1277.62Z" fill="#49263E"/></g></g></g></g></g><g><path d="M649.77 1423.68C650.76 1450 672.35 1493.22 698.64 1493.22L939.43 1493.22 939.69 1493.22 1180.48 1493.22C1206.77 1493.22 1228.36 1450 1229.35 1423.68 1230.62 1390.01 1231.79 1349.3 1230.41 1341.21 1228.31 1328.91 1220.75 1313.58 1202.11 1286.96 1197.7 1280.66 1192.82 1274.69 1187.63 1269.02 1185.3 1266.47 1182.37 1262.75 1179.45 1257.62 1172.95 1246.23 1138.03 1148.2 1107.57 1118.1 1107.57 1118.1 1099.85 1108.74 1073.86 1106.71 1047.9 1104.68 979.38 1100.21 939.57 1100.61 899.75 1100.21 831.24 1104.68 805.28 1106.71 779.29 1108.74 771.57 1118.1 771.57 1118.1 741.11 1148.2 706.19 1246.23 699.69 1257.62 696.77 1262.75 693.84 1266.47 691.51 1269.02 686.32 1274.69 681.44 1280.66 677.03 1286.96 658.39 1313.58 650.83 1328.92 648.73 1341.21 647.33 1349.3 648.5 1390.01 649.77 1423.68ZM717.16 1253.88C728.84 1227.03 765.69 1143.36 775.67 1133.06 787.58 1120.77 801.66 1118.24 818.99 1116.43 835.97 1114.66 935.55 1111.85 939.57 1111.73 943.59 1111.84 1043.17 1114.66 1060.15 1116.43 1077.48 1118.24 1091.56 1120.77 1103.47 1133.06 1113.45 1143.36 1150.3 1227.03 1161.98 1253.88 1163.67 1257.76 1160.8 1262.09 1156.58 1262.05L939.71 1259.97 939.71 1259.97 939.58 1259.97 939.45 1259.97 939.45 1259.97 722.58 1262.05C718.34 1262.09 715.47 1257.76 717.16 1253.88Z" fill="#7FC6A6"/></g><g><g><path d="M904.58 1121.86 929.86 1121.86 931.53 1121.86 931.53 1109.1 933.58 1109.1 933.58 1121.86 935.25 1121.86 960.53 1121.86C962.44 1121.86 963.98 1123.41 963.98 1125.31L960.65 1136.45C959.95 1138.24 958.37 1140.15 955.51 1140.15L935.25 1140.15 929.86 1140.15 909.6 1140.15C906.75 1140.15 905.16 1138.24 904.46 1136.45L901.13 1125.31C901.13 1123.41 902.68 1121.86 904.58 1121.86Z" fill="#49263E"/></g></g><g><g opacity="0.5"><g><path d="M714.18 1260.9C715.76 1263.28 718.4 1264.7 721.25 1264.7L1155.37 1264.7C1158.22 1264.7 1160.86 1263.28 1162.44 1260.9 1164.03 1258.49 1164.29 1255.47 1163.14 1252.83 1148.73 1219.72 1114.14 1141.59 1104.1 1131.22 1091.41 1118.12 1076.24 1115.58 1059.16 1113.8 1051.96 1113.05 1030.4 1112.12 1007.42 1111.29 975.84 1110.14 941.61 1109.18 938.36 1109.09L938.36 1109.09 938.25 1109.09 938.25 1109.09C937.3 1109.12 933.73 1109.22 928.37 1109.37 913.12 1109.82 883.36 1110.73 858.15 1111.7 839.9 1112.4 824.02 1113.14 817.77 1113.77 817.66 1113.78 817.56 1113.79 817.46 1113.8 800.38 1115.58 785.21 1118.12 772.52 1131.22 762.48 1141.58 727.89 1219.72 713.48 1252.83 712.33 1255.47 712.59 1258.49 714.18 1260.9Z" fill="#A6E0ED"/></g></g><g opacity="0.3"><g><g><path d="M928.37 1109.37 999.9 1264.7 1078.06 1264.7 1007.42 1111.29C975.84 1110.14 941.61 1109.18 938.36 1109.09L938.36 1109.09 938.25 1109.09 938.25 1109.09C937.31 1109.11 933.74 1109.21 928.37 1109.37Z" fill="#FFFFFF"/></g></g></g><g opacity="0.3"><g><g><path d="M817.77 1113.76 887.27 1264.69 928.61 1264.69 858.15 1111.69C839.9 1112.4 824.03 1113.14 817.77 1113.76Z" fill="#FFFFFF"/></g></g></g></g><g opacity="0.5"><g><path d="M1213.94 1377.29C1213.94 1377.29 1216.23 1396.76 1209.48 1403.26 1202.73 1409.77 1071.19 1405.07 1071.19 1405.07 1071.19 1405.07 1070.82 1398.44 1071.19 1393.5 1071.56 1388.55 1213.94 1377.29 1213.94 1377.29Z" fill="#3F9896"/></g></g><g><g><path d="M1167.52 1272.42 1176.11 1283.61 1199.47 1265.62 1248.13 1265.62C1249.97 1265.53 1251.44 1264 1251.44 1262.13L1251.44 1236.33C1251.44 1231.61 1247.62 1227.79 1242.91 1227.79L1194.18 1227.79C1189.47 1227.79 1185.65 1231.61 1185.65 1236.33L1185.65 1258.46 1167.52 1272.42Z" fill="#7FC6A6"/></g></g><g><g><path d="M939.44 1341.92 939.44 1411.34 1036.8 1411.34C1047.63 1411.34 1053.65 1404.11 1056.29 1397.31L1068.92 1355.02C1068.92 1347.78 1063.06 1341.91 1055.84 1341.91L939.44 1341.91Z" fill="#49263E"/></g></g><g><g><path d="M1197.68 1337.04 1197.68 1395.34C1200.31 1394.76 1202.73 1394.11 1204.9 1393.38 1217.98 1389.01 1217.64 1343.98 1209.33 1338.82 1207.63 1337.77 1203.48 1337.19 1197.68 1337.04Z" fill="#FC671D"/></g></g><g><g><path d="M1071.34 1397.73C1071.34 1397.73 1158.26 1404.08 1197.69 1395.35L1197.69 1337.05C1175.2 1336.46 1127.79 1342.35 1101.03 1352.13 1067.36 1364.42 1071.34 1397.73 1071.34 1397.73Z" fill="#FFFFFF"/></g></g><g><g><path d="M1197.28 1395.94C1199.97 1395.35 1202.42 1394.68 1204.56 1393.97 1209.64 1392.27 1213.35 1384.49 1214.73 1372.62 1216.32 1359.03 1214.4 1341.6 1209.12 1338.32 1207.37 1337.23 1203.34 1336.6 1197.16 1336.44 1185.64 1336.14 1168.13 1337.51 1150.33 1340.1 1130.29 1343.02 1112.52 1347.08 1100.28 1351.56L1100.7 1352.71C1128.09 1342.71 1176.11 1337.13 1197.14 1337.67 1204.56 1337.86 1207.41 1338.7 1208.49 1339.37 1212.84 1342.07 1215.24 1357.85 1213.54 1372.49 1212.21 1383.88 1208.8 1391.29 1204.19 1392.83 1202.09 1393.53 1199.68 1394.18 1197.03 1394.77L1197.28 1395.94Z"/></g></g><g><g><g><path d="M939.44 1345.53 939.44 1407.73 1034.61 1407.73C1044.31 1407.73 1049.7 1401.25 1052.08 1395.16L1063.4 1357.27C1063.4 1350.79 1058.15 1345.53 1051.68 1345.53L939.44 1345.53Z" fill="#49263E"/></g></g><g><g><rect x="939.44" y="1354.21" width="124.92" height="3.25" fill="#49263E" transform="matrix(-1 -1.22465e-16 1.22465e-16 -1 2003.79 2711.67)"/></g></g><g><g><rect x="939.44" y="1364.93" width="124.92" height="3.25" fill="#49263E" transform="matrix(-1 -1.22465e-16 1.22465e-16 -1 2003.79 2733.12)"/></g></g><g><g><path d="M939.44 1375.66 939.44 1378.91 1061.79 1378.91 1062.77 1375.66Z" fill="#49263E"/></g></g><g><g><path d="M939.44 1386.38 939.44 1389.64 1058.59 1389.64 1059.56 1386.38Z" fill="#49263E"/></g></g><g><g><path d="M939.44 1397.11 939.44 1400.36 1054.88 1400.36C1055.43 1399.35 1055.9 1398.33 1056.3 1397.32L1056.37 1397.11 939.44 1397.11Z" fill="#49263E"/></g></g></g><g><g><path d="M665.19 1377.29C665.19 1377.29 662.9 1396.76 669.65 1403.26 676.4 1409.76 807.94 1405.07 807.94 1405.07 807.94 1405.07 808.31 1398.44 807.94 1393.5 807.57 1388.55 665.19 1377.29 665.19 1377.29Z" fill="#3F9896"/></g></g><g><g><path d="M711.61 1272.42 703.02 1283.61 679.66 1265.62 631 1265.62C629.16 1265.53 627.69 1264 627.69 1262.13L627.69 1236.33C627.69 1231.61 631.51 1227.79 636.22 1227.79L684.95 1227.79C689.66 1227.79 693.48 1231.61 693.48 1236.33L693.48 1258.46 711.61 1272.42Z" fill="#7FC6A6"/></g></g><g><g><path d="M940.1 1341.92 940.1 1411.34 842.74 1411.34C831.91 1411.34 825.89 1404.11 823.25 1397.31L810.62 1355.02C810.62 1347.78 816.48 1341.91 823.71 1341.91L940.1 1341.91Z" fill="#49263E"/></g></g><g><g><path d="M681.45 1337.04 681.45 1395.34C678.82 1394.76 676.4 1394.11 674.23 1393.38 661.15 1389.01 661.49 1343.98 669.8 1338.82 671.51 1337.77 675.65 1337.19 681.45 1337.04Z" fill="#FC671D"/></g></g><g><g><path d="M807.8 1397.73C807.8 1397.73 720.88 1404.08 681.45 1395.35L681.45 1337.05C703.94 1336.46 751.35 1342.35 778.11 1352.13 811.78 1364.42 807.8 1397.73 807.8 1397.73Z" fill="#FFFFFF"/></g></g><g><g><g><path d="M940.1 1345.53 940.1 1407.73 844.93 1407.73C835.23 1407.73 829.84 1401.25 827.46 1395.16L816.14 1357.27C816.14 1350.79 821.39 1345.53 827.86 1345.53L940.1 1345.53Z" fill="#49263E"/></g></g><g><g><rect x="815.19" y="1354.21" width="124.92" height="3.25" fill="#49263E"/></g></g><g><g><rect x="815.19" y="1364.93" width="124.92" height="3.25" fill="#49263E"/></g></g><g><g><path d="M940.1 1375.66 940.1 1378.91 817.75 1378.91 816.77 1375.66Z" fill="#49263E"/></g></g><g><g><path d="M941.56 1386.38 941.56 1389.64 822.91 1389.64 821.95 1386.38Z" fill="#49263E"/></g></g><g><g><path d="M940.1 1397.11 940.1 1400.36 824.66 1400.36C824.11 1399.35 823.64 1398.33 823.24 1397.32L823.18 1397.11 940.1 1397.11Z" fill="#49263E"/></g></g></g><g><g><path d="M940.42 1109.11 938.31 1109.12C938.31 1109.12 939.91 1113.08 939.91 1112.87 939.91 1112.66 940.42 1109.11 940.42 1109.11Z" fill="#49263E"/></g></g><g><g><path d="M1229.45 1428.98C1229.67 1425.8 1233.44 1355.25 1231.02 1341.1 1228.78 1328.01 1220.55 1312.22 1202.62 1286.6 1198.42 1280.6 1193.53 1274.55 1188.09 1268.6 1185.17 1265.41 1182.44 1261.61 1179.99 1257.31 1178.45 1254.62 1175.29 1246.99 1170.92 1236.43 1157.06 1202.96 1131.27 1140.68 1108.02 1117.68 1107.46 1117.02 1099.44 1108.09 1073.91 1106.1L1073.81 1107.32C1099.17 1109.3 1107.02 1118.4 1107.1 1118.49L1107.14 1118.53C1130.22 1141.34 1155.96 1203.5 1169.79 1236.9 1174.18 1247.5 1177.35 1255.16 1178.92 1257.92 1181.42 1262.3 1184.2 1266.17 1187.18 1269.43 1192.59 1275.34 1197.45 1281.36 1201.61 1287.31 1219.43 1312.77 1227.6 1328.41 1229.81 1341.32 1232.21 1355.32 1228.28 1428.13 1228.23 1428.9L1229.45 1428.98Z"/></g></g><g><g><rect x="1097.56" y="1371.96" width="1.22" height="53.71" transform="matrix(0.0403 -0.9992 0.9992 0.0403 -343.771 2439.7)"/></g></g><g><g><path d="M682.2 1395.94 682.46 1394.75C679.81 1394.16 677.4 1393.51 675.3 1392.81 670.69 1391.27 667.28 1383.86 665.95 1372.47 664.24 1357.83 666.65 1342.05 671 1339.35 672.08 1338.68 674.92 1337.84 682.35 1337.65 703.37 1337.11 751.4 1342.69 778.79 1352.69L779.21 1351.54C766.97 1347.07 749.19 1343 729.16 1340.08 711.35 1337.49 693.85 1336.12 682.33 1336.42 676.15 1336.58 672.13 1337.21 670.37 1338.3 665.09 1341.58 663.17 1359.01 664.76 1372.6 666.15 1384.47 669.85 1392.26 674.93 1393.95 677.05 1394.68 679.5 1395.34 682.2 1395.94Z"/></g></g><g><g><rect x="754.45" y="1398.2" width="53.71" height="1.22" transform="matrix(0.9992 -0.0403 0.0403 0.9992 -55.7985 32.6605)"/></g></g><g><g><path d="M914.3 1411.96 1035.71 1411.96C1052.83 1411.96 1056.9 1397.42 1056.94 1397.27L1069.5 1355.21 1068.33 1354.86 1055.76 1396.94C1055.6 1397.52 1051.86 1410.74 1035.7 1410.74L914.3 1410.74 914.3 1411.96Z"/></g></g><g><g><path d="M823.11 1398.29 824.28 1397.93 811.23 1354.95C812.1 1344.03 821.8 1342.67 822.52 1342.58L830.68 1342.52 965.93 1342.52 965.93 1341.3 830.68 1341.3 822.43 1341.36C822.32 1341.37 810.92 1342.73 810.02 1354.97L810.01 1355.08 810.04 1355.19 823.11 1398.29Z"/></g></g><g><g><path d="M1033.51 1295.61 1034.08 1294.53 1007.36 1280.43 1006.79 1281.51Z"/></g></g><g><g><path d="M1017.26 1295.61 1017.82 1294.53 991.11 1280.43 990.54 1281.51Z"/></g></g><g><g><rect x="722.59" y="1264.08" width="433.96" height="1.22"/></g></g><g><g><rect x="736.47" y="1258.83" width="406.2" height="1.22"/></g></g><g><g><path d="M1185.04 1258.46 1186.26 1258.46 1186.26 1236.33C1186.26 1234 1186.96 1232.13 1188.33 1230.8 1190.89 1228.31 1195.01 1228.4 1195.05 1228.4L1242.91 1228.4 1242.91 1227.18 1195.06 1227.18C1194.89 1227.18 1190.42 1227.07 1187.48 1229.92 1185.86 1231.5 1185.03 1233.66 1185.03 1236.34L1185.03 1258.46Z"/></g></g><g><g><rect x="1205.89" y="1265.01" width="39.26" height="1.22"/></g></g><g><g><path d="M1244.78 1239.42 1245.52 1238.45 1237.4 1232.3 1236.66 1233.27Z"/></g></g><g><g><path d="M1238.8 1240.25 1239.53 1239.27 1231.41 1233.13 1230.67 1234.1Z"/></g></g><g><g><path d="M649.69 1431.04 650.91 1430.95C650.86 1430.17 647.62 1355.31 650.02 1341.31 652.23 1328.41 660.4 1312.76 678.22 1287.3 682.39 1281.35 687.24 1275.33 692.65 1269.42 695.63 1266.16 698.41 1262.29 700.91 1257.91 702.48 1255.15 705.66 1247.49 710.04 1236.89 723.87 1203.49 749.61 1141.33 772.69 1118.52L772.73 1118.47C772.81 1118.38 780.66 1109.28 806.02 1107.3L805.92 1106.08C780.39 1108.08 772.37 1117 771.81 1117.66 748.56 1140.66 722.77 1202.94 708.91 1236.41 704.54 1246.97 701.38 1254.6 699.84 1257.29 697.39 1261.59 694.66 1265.38 691.74 1268.58 686.29 1274.53 681.4 1280.59 677.21 1286.58 659.28 1312.2 651.05 1327.99 648.81 1341.08 646.39 1355.25 649.46 1427.85 649.69 1431.04Z"/></g></g><g><g><path d="M693.57 1258.46 694.79 1258.46 694.79 1236.33C694.79 1233.65 693.97 1231.49 692.34 1229.91 689.4 1227.06 684.93 1227.16 684.74 1227.17L636.91 1227.17 636.91 1228.39 684.76 1228.39C684.82 1228.39 688.93 1228.3 691.49 1230.79 692.87 1232.13 693.56 1233.99 693.56 1236.32L693.56 1258.46Z"/></g></g><g><g><rect x="634.68" y="1265.01" width="39.26" height="1.22"/></g></g><g><g><path d="M635.05 1239.42 643.17 1233.27 642.44 1232.3 634.31 1238.45Z"/></g></g><g><g><path d="M641.03 1240.25 649.16 1234.1 648.42 1233.13 640.3 1239.27Z"/></g></g><g><g><path d="M1197.15 1364.27C1199.78 1363.69 1202.2 1363.04 1204.37 1362.31 1208.66 1360.88 1211.51 1355.06 1213.11 1347.72 1216.6 1362.43 1214.54 1390.39 1204.37 1393.79 1202.2 1394.51 1199.78 1395.16 1197.15 1395.75 1157.72 1404.49 1070.8 1398.13 1070.8 1398.13 1070.8 1398.13 1068.8 1381.35 1079.67 1367.21 1102.81 1368.56 1165.39 1371.31 1197.15 1364.27Z" fill="#E8F9F9"/></g></g><g><g><path d="M681.99 1364.27C679.36 1363.69 676.94 1363.04 674.77 1362.31 670.48 1360.88 667.63 1355.06 666.03 1347.72 662.54 1362.43 664.6 1390.39 674.77 1393.79 676.94 1394.51 679.36 1395.16 681.99 1395.75 721.42 1404.49 808.34 1398.13 808.34 1398.13 808.34 1398.13 810.34 1381.35 799.47 1367.21 776.33 1368.56 713.75 1371.31 681.99 1364.27Z" fill="#E8F9F9"/></g></g><g><g><path d="M715.44 1260.89C717.02 1263.28 719.65 1264.69 722.5 1264.69 722.53 1264.69 722.56 1264.69 722.58 1264.69L940.29 1264.69 940.29 1264.69 1156.54 1264.69C1156.57 1264.69 1156.6 1264.69 1156.62 1264.69 1159.47 1264.69 1162.11 1263.27 1163.69 1260.89 1165.28 1258.48 1165.54 1255.47 1164.39 1252.82 1149.98 1219.71 1115.39 1141.57 1105.35 1131.21 1092.66 1118.11 1077.49 1115.57 1060.41 1113.79 1043.31 1112.01 945.22 1109.24 939.62 1109.08L939.62 1109.08C939.6 1109.08 939.58 1109.08 939.56 1109.08 939.54 1109.08 939.52 1109.08 939.5 1109.08L939.5 1109.08C933.9 1109.24 835.81 1112.01 818.71 1113.79 801.63 1115.57 786.46 1118.11 773.77 1131.21 763.73 1141.57 729.14 1219.7 714.73 1252.82 713.59 1255.47 713.85 1258.49 715.44 1260.89ZM719.58 1254.93C742.56 1202.12 769.86 1142.85 777.57 1134.89 789.05 1123.05 802.66 1120.78 819.27 1119.05 835.94 1117.31 934.45 1114.51 939.57 1114.37 944.69 1114.51 1043.2 1117.31 1059.87 1119.05 1076.48 1120.78 1090.09 1123.05 1101.57 1134.89 1109.28 1142.85 1136.58 1202.11 1159.56 1254.93 1160 1255.94 1159.9 1257.05 1159.3 1257.97 1158.7 1258.88 1157.73 1259.4 1156.64 1259.4 1156.63 1259.4 1156.62 1259.4 1156.61 1259.4L939.58 1259.96 722.55 1259.4C722.54 1259.4 722.53 1259.4 722.52 1259.4 721.43 1259.4 720.46 1258.88 719.86 1257.97 719.24 1257.05 719.14 1255.95 719.58 1254.93Z" fill="#49263E"/></g></g><g><g><path d="M1016.67 1103.61 1016.76 1102.39C1016.08 1102.34 948.06 1097.48 881.42 1101.44L881.49 1102.66C948.05 1098.71 1015.99 1103.56 1016.67 1103.61Z"/></g></g><g opacity="0.5"><path d="M852.07 1468.57 1020.33 1468.57C1022.78 1468.57 1024.77 1466.58 1024.77 1464.13L1024.77 1440C1024.77 1437.55 1022.78 1435.56 1020.33 1435.56L852.07 1435.56C849.62 1435.56 847.63 1437.55 847.63 1440L847.63 1464.13C847.63 1466.58 849.62 1468.57 852.07 1468.57Z" fill="#FFFFFF"/></g></g><g><g><g><g><path d="M786.68 1092.44 756.19 1028.85 779.08 1034.61 766.08 981.95 801.33 1052.01 779.34 1048.82Z" fill="#FFFFFF"/></g></g></g></g><g><g><g><g><path d="M838.24 1082.26 835.48 1025.74 850.65 1037.12 857.45 994.12 861.72 1056.9 846.41 1047.7Z" fill="#FFFFFF"/></g></g></g></g></g><g><g><path d="M84.06 1397.27C82.09 1399.37 81.14 1401.83 81 1404.27L337.62 1404.27C337.57 1403.49 337.38 1402.69 337.01 1401.91 318.07 1361.76 280.52 1383.5 280.52 1383.5 258.79 1347.18 228.66 1375.83 228.66 1375.83 228.66 1375.83 227.86 1300.54 161.57 1306.36 103.78 1311.44 108.03 1388.07 108.03 1388.07 95.7 1388.94 88.36 1392.68 84.06 1397.27Z" fill="#7FC6A6"/></g></g><g><g><path d="M2000 1331.59 2000 1404.2 1784.02 1404.03C1784.02 1404.03 1783.78 1374.75 1795.06 1354.18 1806.33 1333.62 1820.42 1358.82 1820.42 1358.82 1829.89 1345.31 1845.19 1358.42 1845.19 1358.42 1845.19 1358.42 1836.78 1335.98 1849.47 1329.74 1862.15 1323.49 1871.85 1333.9 1871.85 1333.9 1871.85 1333.9 1865.52 1317.28 1874.79 1303.57 1884.05 1289.86 1895.52 1310.83 1895.52 1310.83 1895.52 1310.83 1885.86 1285.83 1896.53 1278.17 1907.2 1270.51 1915.24 1293.69 1915.24 1293.69 1915.24 1293.69 1917.05 1261.43 1937.59 1263.65 1957.88 1265.84 1946.72 1318.65 1946.46 1319.88 1946.76 1319.19 1957.69 1294.57 1969.39 1299.54 1981.13 1304.52 1961.03 1348.46 1960.54 1349.52 1974.84 1331.01 1983.28 1349.94 1983.28 1349.94 1988.16 1339.36 1994.5 1334.13 2000 1331.59Z" fill="#3F9896"/></g></g><g><g><path d="M1915.09 1397.27C1917.06 1399.37 1918.01 1401.83 1918.15 1404.27L1661.53 1404.27C1661.58 1403.49 1661.77 1402.69 1662.14 1401.91 1681.08 1361.76 1718.63 1383.5 1718.63 1383.5 1740.36 1347.18 1770.49 1375.83 1770.49 1375.83 1770.49 1375.83 1771.29 1300.54 1837.58 1306.36 1895.37 1311.44 1891.12 1388.07 1891.12 1388.07 1903.45 1388.94 1910.79 1392.68 1915.09 1397.27Z" fill="#7FC6A6"/></g></g></svg>