<svg width="452.45" height="564.43" viewBox="0 0 452.45 564.43" xmlns="http://www.w3.org/2000/svg" xmlns:xlink="http://www.w3.org/1999/xlink" xml:space="preserve" overflow="hidden"><defs></defs><g><g><ellipse cx="416.86" cy="528.84" rx="25.24" ry="25.24" fill="#FEC786" transform="matrix(0.0128 -0.9999 0.9999 0.0128 -117.287 938.872)"/><path d="M381.27 528.84C381.27 548.5 397.2 564.43 416.86 564.43 436.52 564.43 452.45 548.5 452.45 528.84 452.45 509.18 436.52 493.25 416.86 493.25 397.2 493.25 381.27 509.18 381.27 528.84ZM396.14 528.84C396.14 517.4 405.41 508.12 416.86 508.12 428.3 508.12 437.58 517.39 437.58 528.84 437.58 540.28 428.31 549.56 416.86 549.56 405.42 549.55 396.14 540.28 396.14 528.84Z" fill="#4C222E"/><path d="M443.64 502.47C443.64 497.62 440.95 493.17 436.65 490.92 429.85 487.36 421.99 485.58 413.65 486.19 392.62 487.73 375.98 504.23 374.25 525.24 374 528.3 374.07 531.29 374.44 534.19 374.82 537.24 377.64 539.4 380.69 538.99 379.35 534.22 378.91 529.08 379.63 523.74 382.01 506.14 396.63 492.48 414.36 491.33 425.83 490.59 436.28 495.01 443.64 502.47L443.64 502.47Z" fill="#FD7583"/><path d="M423.06 526.65 325.22 163.54 371.28 163.54C375.18 163.54 378.34 160.6 378.34 156.97L378.34 156.97C378.34 153.34 375.18 150.4 371.28 150.4L321.68 150.4 318.24 150.4 316.79 150.4 316.79 150.55C313.24 151.28 310.87 154.63 311.8 158.08L411.81 529.27C412.46 531.67 414.77 533.35 417.43 533.35 421.21 533.35 423.98 530.05 423.06 526.65Z" fill="#FD7583"/><path d="M337.98 533.35 354.11 533.35 402.93 467.63 395.68 455.67Z" fill="#FD7583"/><path d="M141.71 533.35 353.92 533.35 353.92 518.21 148.42 518.21C144.72 518.21 141.71 521.21 141.71 524.92L141.71 533.35Z" fill="#FD7583"/><ellipse cx="105.46" cy="528.84" rx="25.24" ry="25.24" fill="#FEC786" transform="matrix(0.0464 -0.9989 0.9989 0.0464 -427.705 609.638)"/><path d="M69.87 528.84C69.87 548.5 85.8 564.43 105.46 564.43 125.12 564.43 141.05 548.5 141.05 528.84 141.05 509.18 125.12 493.25 105.46 493.25 85.8 493.25 69.87 509.18 69.87 528.84ZM84.74 528.84C84.74 517.4 94.01 508.12 105.46 508.12 116.9 508.12 126.18 517.39 126.18 528.84 126.18 540.28 116.91 549.56 105.46 549.56 94.01 549.55 84.74 540.28 84.74 528.84Z" fill="#4C222E"/><path d="M143.03 528.94C143.03 528.91 143.03 528.87 143.03 528.84 143.03 507.35 124.99 490.07 103.22 491.32 85.07 492.37 70.12 506.57 68.1 524.63 67.54 529.65 68 534.49 69.27 539L69.27 539C66.25 539.41 63.42 537.31 63.03 534.28 62.66 531.35 62.58 528.33 62.83 525.25 64.55 504.41 81.44 487.68 102.3 486.19 127.13 484.42 147.85 503.86 148.19 528.24L143.03 528.94Z" fill="#FD7583"/><path d="M149.81 524.32 346.17 524.32C347.86 524.32 349.22 522.95 349.22 521.27L349.22 521.27C349.22 519.58 347.85 518.22 346.17 518.22L149.81 518.22C148.12 518.22 146.76 519.59 146.76 521.27L146.76 521.27C146.75 522.95 148.12 524.32 149.81 524.32Z" fill="#223749"/><path d="M104.13 524.32 142.24 524.32C144.73 524.32 146.75 526.34 146.75 528.83L146.75 528.83C146.75 531.32 144.73 533.35 142.24 533.35L104.13 533.35C101.64 533.35 99.62 531.33 99.62 528.83L99.62 528.83C99.61 526.34 101.63 524.32 104.13 524.32Z" fill="#FD7583"/><path d="M358.3 162.33 395.15 162.33C398.78 162.33 401.72 159.39 401.72 155.76L401.72 155.76C401.72 152.13 398.78 149.19 395.15 149.19L358.3 149.19C354.67 149.19 351.73 152.13 351.73 155.76L351.73 155.76C351.72 159.39 354.67 162.33 358.3 162.33Z" fill="#223749"/></g></g><g><path d="M137.54 104.01C137.54 104.01 127.09 110.03 113.76 118.11 100.43 126.19 89.67 129.15 87.49 131.09 85.31 133.03 73.85 168.25 70.75 180.94 67.65 193.64 61.15 201.51 57.62 203.89 54.08 206.27 40.76 210.54 37.43 216.56 31.13 227.94 17.27 233.56 22 242.88 25.83 250.43 42.57 240.84 47.07 238.8 51.56 236.76 63.03 228.38 67.56 223.21 78.95 210.21 89.38 193.19 93.16 183.25 98.04 170.4 104.91 156.28 104.91 156.28 104.91 156.28 140.79 150.98 147.33 135.49 153.87 119.99 137.54 104.01 137.54 104.01Z" fill="#FFC9B6"/><path d="M222.58 146.97C222.58 146.97 239.01 170.95 251.42 180.39 261 187.68 277.57 196.12 277.57 196.12 277.57 196.12 304.12 189.88 325.08 183.25 339.32 178.75 342.31 168.03 345.8 161.05 347.45 157.75 349.17 155.02 352.31 154.71 359.28 154.02 351.93 162.86 351.65 167.34 351.15 175.36 356.06 175.53 362.76 171.38 369.2 167.39 385.72 163.52 381.86 180.88 377.25 201.6 344.31 196.04 332.65 202.25 323.93 206.88 303.55 221.11 284.29 224.39 277.77 225.5 271.85 225.52 267.34 223.75 249.53 216.75 205.62 183.3 205.62 183.3L222.58 146.97Z" fill="#FFC9B6"/><path d="M243.37 356.28C243.37 356.28 238.73 376.56 241.42 406.27 242.83 421.91 252.7 451.37 254.1 467.76 255.56 484.8 254.17 486.29 254.17 486.29 254.17 486.29 270.09 493 281.04 484.81 277.29 465.24 278.72 415.74 279.43 382.49 279.88 361.55 279.92 349.29 272.26 339.77 261.83 326.79 242.78 314.6 241.08 315.64 238.63 317.15 243.37 356.28 243.37 356.28Z" fill="#FFC9B6"/><path d="M108.82 319.37C102.64 332.69 93.94 353.93 91.24 361.66 75.14 359.6 33.17 370.54 26.37 372.47 28.82 383.68 20.02 384.36 19.55 395.98 24.57 397.03 44.64 401.14 50.26 401.81 75.52 404.79 93.33 404.87 107.08 401.4 121.11 397.86 155.13 337.58 155.13 337.58L108.82 319.37Z" fill="#FFC9B6"/><path d="M111.96 243.87C107.52 258.29 103.34 266.35 104.99 282.25 106.64 298.14 112.57 310.14 112.57 310.14 112.57 310.14 98.88 329.07 89.85 346.75 98.16 371.7 136.11 389.51 136.11 389.51 136.11 389.51 143.51 376.06 157 358.17 168.76 342.58 180.54 328.71 182.65 309.34 183.88 298.09 182.29 287.71 181.99 275.89 181.69 264.07 111.96 243.87 111.96 243.87Z" fill="#0F1D7F"/><path d="M133.19 270.34C133.19 270.34 136.76 305.08 152.78 317.74 168.8 330.39 177.46 329.87 177.46 329.87 177.46 329.87 195.65 344.73 204.09 356.83 212.52 368.93 219.51 377.1 219.51 377.1 219.51 377.1 235.5 376.67 253.48 355.26 262.62 344.38 265.09 326 265.09 326 265.09 326 225.89 275.27 206.82 268.74 192.27 263.76 157.03 267.32 141.17 269.28 136.24 269.88 133.19 270.34 133.19 270.34Z" fill="#0F1D7F"/><path d="M188.14 94.81C188.14 94.81 169.99 72.35 150.32 85.59 130.65 98.83 113.41 113.83 113.41 113.83 113.41 113.83 113.99 127.06 118.23 137.9 122.65 149.21 131.41 156.49 131.41 156.49 131.41 156.49 166.04 150.46 173.12 140.13 180.19 129.81 188.14 94.81 188.14 94.81Z" fill="#333333"/><path d="M193.96 61.97C193.96 61.97 186.61 97.38 179.26 104.41 171.91 111.44 191.11 132.44 205.04 133.11 218.98 133.78 220.91 91.27 220.91 91.27L193.96 61.97Z" fill="#FFB8A3"/><path d="M221.45 13.85C206.1 9.13 191.39 19.59 185.75 35.13 180.53 49.52 191 72.93 199.95 81.37 209.24 90.14 223.89 102.89 234.33 99.5 246.54 95.54 251.82 83.46 251.98 65.63 252.2 41.13 242.62 20.36 221.45 13.85Z" fill="#FFC9B6"/><path d="M236.48 135.08C236.48 135.08 218.81 114.56 200.38 101.99 186.19 92.31 175.7 83.51 165.19 91.87 152.9 101.64 133.11 133.13 125.44 161 117.77 188.87 106.56 238.61 98.97 262.65 110.12 272.24 117.02 285.91 134.46 292.22 159 301.1 192.22 279.37 215.34 271.26 205.08 258.19 200 246.31 200 246.31L238.82 158.43 236.48 135.08Z" fill="#1C0604"/><path d="M190.02 92.65C188.66 70 157.29 33.76 192.15 6.75 215.13-11.06 238.2 11.69 259.98 14.54 257.18 28.02 256.71 41.37 235.06 39.49 233.58 60.63 206.98 94.31 190.02 92.65Z" fill="#333333"/><path d="M227.05 64.55C227.05 64.55 218.07 52.78 212.51 63.51 206.94 74.24 220.15 79.33 220.15 79.33L227.05 64.55Z" fill="#FFC9B6"/><path d="M204.18 189.84C217.37 203.31 243.31 220.97 243.31 220.97 243.31 220.97 252.65 214.7 258.83 208.75 269.69 198.29 272.91 183.86 272.91 183.86L259.71 178.52C259.71 178.52 241.29 126.86 223.39 123.8 207.51 121.08 189.23 174.57 204.18 189.84Z" fill="#333333"/><g><path d="M268.75 484.4C268.75 484.4 256.19 459.46 250.59 470.61 245.62 480.51 241.18 492.25 240.29 499.74 239.7 504.76 246.86 511.27 264.88 517.15 282.9 523.02 301.24 515.09 310.11 509.01 318.97 502.93 334.25 493.4 322.46 484.16 310.68 474.92 303 481.82 295.78 481.92 288.79 482.01 280.16 473.88 280.16 473.88 280.16 473.88 272.31 480.4 268.75 484.4Z" fill="#FF4527"/><path d="M243.98 485.89C243.98 485.89 253.04 485.85 257.91 495.57 262.78 505.29 268.41 511.35 274.58 513.87 280.74 516.39 307.72 508.5 310.59 502.58 314.43 494.66 317.71 481.16 317.71 481.16 317.71 481.16 326.36 482.71 327.42 491.56 328.47 500.41 311.25 510.35 301.48 515.61 291.71 520.87 275.45 522.82 260.36 517.96 250.5 514.79 239.64 507.04 238.34 502.54 237.04 498.05 243.98 485.89 243.98 485.89Z" fill="#333333"/><path d="M267.27 499.62C267.27 499.62 269.94 504.03 274.86 505.6 279.78 507.17 285.62 502.72 291.46 503.8 297.31 504.87 302.02 505.26 305.54 501.4 309.07 497.55 309.6 494.01 309.6 494.01 309.6 494.01 304.58 497.69 300.76 498.78 296.94 499.86 290.44 495.9 283.83 498.81 277.24 501.72 270.7 501.02 267.27 499.62Z" fill="#FFFFFF"/><path d="M283.06 476.28C283.06 476.28 283.82 482.55 283.15 487.8 282.48 493.05 287.17 492.79 288.07 488.41 288.98 484.02 288.22 479.64 288.22 479.64L283.06 476.28Z" fill="#333333"/><path d="M293.26 481.62C293.26 481.62 294.06 483.91 294.94 488.78 295.82 493.65 299.99 492.05 299.6 488.36 299.21 484.67 298.55 481.59 298.55 481.59L293.26 481.62Z" fill="#333333"/></g><g><path d="M30.6 389.94C30.6 389.94 48.99 370.28 38.21 366.6 28.64 363.33 17.61 361.07 11.03 361.8 6.62 362.29 2.7 371.73 1.8 393.12 0.9 414.5 11.85 433.08 19.06 441.55 26.26 450.02 37.88 464.83 43.06 449.62 48.25 434.41 40.62 427.45 38.89 419.44 37.22 411.69 42.18 400.23 42.18 400.23 42.18 400.23 34.82 392.99 30.6 389.94Z" fill="#FF4527"/><path d="M23.67 362.74C23.67 362.74 25.77 372.81 18.6 380.44 11.43 388.07 7.55 395.72 6.8 403.15 6.05 410.58 18.94 438.77 24.64 440.61 32.26 443.07 44.52 443.63 44.52 443.63 44.52 443.63 45.17 453.61 37.87 456.8 30.57 459.99 18.16 443.11 11.44 433.45 4.73 423.79-0.65 406.15 0.05 388.26 0.51 376.57 4.63 362.73 8.17 360.26 11.72 357.8 23.67 362.74 23.67 362.74Z" fill="#333333"/><path d="M17.28 391.77C17.28 391.77 14.13 395.75 13.92 401.57 13.7 407.4 18.83 412.88 19.25 419.62 19.67 426.37 20.42 431.69 24.51 434.73 28.6 437.77 31.73 437.56 31.73 437.56 31.73 437.56 27.45 432.82 25.65 428.82 23.85 424.82 25.75 416.68 21.76 410.01 17.77 403.33 16.87 395.89 17.28 391.77Z" fill="#FFFFFF"/><path d="M40.79 403.99C40.79 403.99 35.62 406.27 30.99 406.72 26.36 407.17 27.65 412.33 31.6 412.33 35.55 412.34 39.11 410.5 39.11 410.5L40.79 403.99Z" fill="#333333"/><path d="M38.56 416.55C38.56 416.55 36.79 417.96 32.83 420.05 28.88 422.14 31.19 426.41 34.25 425.14 37.31 423.87 39.78 422.43 39.78 422.43L38.56 416.55Z" fill="#333333"/></g></g></svg>